mtllib CbluecamguardZ.mtl
v -1078.8555908203125 -86.70243644714355 -74.0 1.000 1.000 1.000
v -1078.8555908203125 -168.70243644714355 -68.0 1.000 1.000 1.000
v -1078.8555908203125 -43.702436447143555 191.0 1.000 1.000 1.000
v -1078.8555908203125 -162.70243644714355 200.0 1.000 1.000 1.000
v -1036.8555908203125 -78.70243644714355 177.0 1.000 1.000 1.000
v -972.8555908203125 -90.70243644714355 -4.0 1.000 1.000 1.000
v -971.8555908203125 -148.70243644714355 -49.0 1.000 1.000 1.000
v -1038.8555908203125 -134.70243644714355 203.0 1.000 1.000 1.000
v -973.8555908203125 -103.70243644714355 -62.0 1.000 1.000 1.000
v -972.8555908203125 -139.70243644714355 20.0 1.000 1.000 1.000
v -1036.8555908203125 -78.70243644714355 177.0 1.000 1.000 1.000
v -1078.8555908203125 -43.702436447143555 191.0 1.000 1.000 1.000
v -1038.8555908203125 -134.70243644714355 203.0 1.000 1.000 1.000
v -1078.8555908203125 -162.70243644714355 200.0 1.000 1.000 1.000
v -972.8555908203125 -139.70243644714355 20.0 1.000 1.000 1.000
v -972.8555908203125 -90.70243644714355 -4.0 1.000 1.000 1.000
v -794.8883666992188 -157.47519826889038 -47.0 1.000 1.000 1.000
v -759.8883666992188 -57.47519826889038 -89.0 1.000 1.000 1.000
v -757.8883666992188 -182.47519826889038 -77.0 1.000 1.000 1.000
v -799.8883666992188 -79.47519826889038 -59.0 1.000 1.000 1.000
v -786.8883666992188 -67.47519826889038 -2.0 1.000 1.000 1.000
v -794.8883666992188 -151.47519826889038 37.0 1.000 1.000 1.000
v -761.8883666992188 -184.47519826889038 88.0 1.000 1.000 1.000
v -743.8883666992188 -21.47519826889038 68.0 1.000 1.000 1.000
v -786.8883666992188 -67.47519826889038 -2.0 1.000 1.000 1.000
v -799.8883666992188 -79.47519826889038 -59.0 1.000 1.000 1.000
v -794.8883666992188 -157.47519826889038 -47.0 1.000 1.000 1.000
v -794.8883666992188 -151.47519826889038 37.0 1.000 1.000 1.000
v -786.8883666992188 -67.47519826889038 -2.0 1.000 1.000 1.000
v -794.8883666992188 -151.47519826889038 37.0 1.000 1.000 1.000
v -973.8555908203125 -103.70243644714355 -62.0 1.000 1.000 1.000
v -972.8555908203125 -90.70243644714355 -4.0 1.000 1.000 1.000
v -971.8555908203125 -148.70243644714355 -49.0 1.000 1.000 1.000
v -972.8555908203125 -139.70243644714355 20.0 1.000 1.000 1.000
v -972.8555908203125 -90.70243644714355 -4.0 1.000 1.000 1.000
v -972.8555908203125 -139.70243644714355 20.0 1.000 1.000 1.000
v -506.88836669921875 -112.47519826889038 106.0 1.000 1.000 1.000
v -523.8883666992188 -22.47519826889038 12.0 1.000 1.000 1.000
v -519.8883666992188 -114.47519826889038 -74.0 1.000 1.000 1.000
v -512.8883666992188 -188.47519826889038 9.0 1.000 1.000 1.000
v -761.8883666992188 -184.47519826889038 88.0 1.000 1.000 1.000
v -743.8883666992188 -21.47519826889038 68.0 1.000 1.000 1.000
v -759.8883666992188 -57.47519826889038 -89.0 1.000 1.000 1.000
v -757.8883666992188 -182.47519826889038 -77.0 1.000 1.000 1.000
v -1000.8883666992188 -139.47519826889038 46.0 1.000 1.000 1.000
v -527.8883666992188 -125.47519826889038 87.0 1.000 1.000 1.000
v -999.8883666992188 -90.47519826889038 23.0 1.000 1.000 1.000
v -518.8883666992188 -27.47519826889038 38.0 1.000 1.000 1.000
v -521.8883666992188 -101.47519826889038 -67.0 1.000 1.000 1.000
v -999.8883666992188 -103.47519826889038 -62.0 1.000 1.000 1.000
v -522.8883666992188 -188.47519826889038 13.0 1.000 1.000 1.000
v -999.8883666992188 -149.47519826889038 -50.0 1.000 1.000 1.000
v -521.8883666992188 -101.47519826889038 -67.0 1.000 1.000 1.000
v -527.8883666992188 -125.47519826889038 87.0 1.000 1.000 1.000
v -522.8883666992188 -188.47519826889038 13.0 1.000 1.000 1.000
v -162.58901977539062 -37.63739013671875 1.0 1.000 1.000 1.000
v -162.58901977539062 -49.63739013671875 -67.0 1.000 1.000 1.000
v -162.58901977539062 -115.63739013671875 -65.0 1.000 1.000 1.000
v -162.58901977539062 -137.63739013671875 -102.0 1.000 1.000 1.000
v -163.58901977539062 -185.63739013671875 20.0 1.000 1.000 1.000
v -162.58901977539062 -191.63739013671875 -102.0 1.000 1.000 1.000
v -161.58901977539062 -189.63739013671875 133.0 1.000 1.000 1.000
v -162.58901977539062 -144.63739013671875 116.0 1.000 1.000 1.000
v -162.58901977539062 -70.63739013671875 89.0 1.000 1.000 1.000
v -162.58901977539062 -17.63739013671875 13.0 1.000 1.000 1.000
v -291.5890197753906 -125.63739013671875 123.0 1.000 1.000 1.000
v -163.58901977539062 -185.63739013671875 20.0 1.000 1.000 1.000
v -162.58901977539062 -144.63739013671875 116.0 1.000 1.000 1.000
v -162.58901977539062 -115.63739013671875 -65.0 1.000 1.000 1.000
v -334.5890197753906 -188.63739013671875 13.0 1.000 1.000 1.000
v -212.58901977539062 -117.63739013671875 -67.0 1.000 1.000 1.000
v -254.58901977539062 -28.63739013671875 12.0 1.000 1.000 1.000
v -162.58901977539062 -37.63739013671875 1.0 1.000 1.000 1.000
v -162.58901977539062 -115.63739013671875 -65.0 1.000 1.000 1.000
v -334.5890197753906 -188.63739013671875 13.0 1.000 1.000 1.000
v -291.5890197753906 -125.63739013671875 123.0 1.000 1.000 1.000
v -162.58901977539062 -144.63739013671875 116.0 1.000 1.000 1.000
v -163.58901977539062 -185.63739013671875 20.0 1.000 1.000 1.000
v -1.0 -94.0 -88.0 1.000 1.000 1.000
v -2.0 -113.0 143.0 1.000 1.000 1.000
v -91.0 -48.0 -70.0 1.000 1.000 1.000
v -132.0 19.0 20.0 1.000 1.000 1.000
v -1.0 -94.0 -88.0 1.000 1.000 1.000
v -2.0 -113.0 143.0 1.000 1.000 1.000
v -63.0 -65.0 133.0 1.000 1.000 1.000
v -161.58901977539062 -189.63739013671875 133.0 1.000 1.000 1.000
v -162.58901977539062 -191.63739013671875 -102.0 1.000 1.000 1.000
v -162.58901977539062 -17.63739013671875 13.0 1.000 1.000 1.000
v -162.58901977539062 -49.63739013671875 -67.0 1.000 1.000 1.000
v -162.58901977539062 -137.63739013671875 -102.0 1.000 1.000 1.000
v -162.58901977539062 -191.63739013671875 -102.0 1.000 1.000 1.000
v -161.58901977539062 -189.63739013671875 133.0 1.000 1.000 1.000
v -162.58901977539062 -70.63739013671875 89.0 1.000 1.000 1.000
v -132.0 19.0 20.0 1.000 1.000 1.000
v -63.0 -65.0 133.0 1.000 1.000 1.000
v -162.58901977539062 -70.63739013671875 89.0 1.000 1.000 1.000
v -162.58901977539062 -17.63739013671875 13.0 1.000 1.000 1.000
v -212.58901977539062 -117.63739013671875 -67.0 1.000 1.000 1.000
v -254.58901977539062 -28.63739013671875 12.0 1.000 1.000 1.000
v -334.5890197753906 -188.63739013671875 13.0 1.000 1.000 1.000
v -291.5890197753906 -125.63739013671875 123.0 1.000 1.000 1.000
v -523.8883666992188 -22.47519826889038 12.0 1.000 1.000 1.000
v -519.8883666992188 -114.47519826889038 -74.0 1.000 1.000 1.000
v -506.88836669921875 -112.47519826889038 106.0 1.000 1.000 1.000
v -512.8883666992188 -188.47519826889038 9.0 1.000 1.000 1.000
v -527.5890197753906 -125.63739013671875 87.0 1.000 1.000 1.000
v -163.58901977539062 -185.63739013671875 20.0 1.000 1.000 1.000
v -166.58901977539062 -144.63739013671875 124.0 1.000 1.000 1.000
v -162.58901977539062 -115.63739013671875 -73.0 1.000 1.000 1.000
v -522.5890197753906 -188.63739013671875 13.0 1.000 1.000 1.000
v -522.5890197753906 -101.63739013671875 -67.0 1.000 1.000 1.000
v -519.5890197753906 -27.63739013671875 38.0 1.000 1.000 1.000
v -162.58901977539062 -30.63739013671875 27.0 1.000 1.000 1.000
v -162.58901977539062 -30.63739013671875 27.0 1.000 1.000 1.000
v -166.58901977539062 -144.63739013671875 124.0 1.000 1.000 1.000
v -163.58901977539062 -185.63739013671875 20.0 1.000 1.000 1.000
v -162.58901977539062 -115.63739013671875 -73.0 1.000 1.000 1.000
v -527.5890197753906 -125.63739013671875 87.0 1.000 1.000 1.000
v -522.5890197753906 -101.63739013671875 -67.0 1.000 1.000 1.000
v -522.5890197753906 -188.63739013671875 13.0 1.000 1.000 1.000
v 1087.927879333496 -45.380823612213135 190.0 1.000 1.000 1.000
v 1087.927879333496 -171.38082361221313 -68.0 1.000 1.000 1.000
v 1087.927879333496 -89.38082361221313 -74.0 1.000 1.000 1.000
v 1087.927879333496 -164.38082361221313 200.0 1.000 1.000 1.000
v 982.9278793334961 -92.38082361221313 -4.0 1.000 1.000 1.000
v 1044.927879333496 -83.38082361221313 177.0 1.000 1.000 1.000
v 1047.927879333496 -135.38082361221313 203.0 1.000 1.000 1.000
v 980.9278793334961 -151.38082361221313 -49.0 1.000 1.000 1.000
v 981.9278793334961 -106.38082361221313 -62.0 1.000 1.000 1.000
v 981.9278793334961 -141.38082361221313 20.0 1.000 1.000 1.000
v 1047.927879333496 -135.38082361221313 203.0 1.000 1.000 1.000
v 1087.927879333496 -45.380823612213135 190.0 1.000 1.000 1.000
v 1044.927879333496 -83.38082361221313 177.0 1.000 1.000 1.000
v 1087.927879333496 -164.38082361221313 200.0 1.000 1.000 1.000
v 982.9278793334961 -92.38082361221313 -4.0 1.000 1.000 1.000
v 981.9278793334961 -141.38082361221313 20.0 1.000 1.000 1.000
v 812.3251266479492 -147.09517669677734 34.0 1.000 1.000 1.000
v 770.3251266479492 -184.09517669677734 88.0 1.000 1.000 1.000
v 767.3251266479492 -187.09517669677734 -77.0 1.000 1.000 1.000
v 813.3251266479492 -160.09517669677734 -45.0 1.000 1.000 1.000
v 796.3251266479492 -80.09517669677734 -57.0 1.000 1.000 1.000
v 768.3251266479492 -84.09517669677734 -89.0 1.000 1.000 1.000
v 751.3251266479492 -20.095176696777344 68.0 1.000 1.000 1.000
v 798.3251266479492 -77.09517669677734 -1.0 1.000 1.000 1.000
v 796.3251266479492 -80.09517669677734 -57.0 1.000 1.000 1.000
v 798.3251266479492 -77.09517669677734 -1.0 1.000 1.000 1.000
v 812.3251266479492 -147.09517669677734 34.0 1.000 1.000 1.000
v 813.3251266479492 -160.09517669677734 -45.0 1.000 1.000 1.000
v 798.3251266479492 -77.09517669677734 -1.0 1.000 1.000 1.000
v 812.3251266479492 -147.09517669677734 34.0 1.000 1.000 1.000
v 981.9278793334961 -106.38082361221313 -62.0 1.000 1.000 1.000
v 982.9278793334961 -92.38082361221313 -4.0 1.000 1.000 1.000
v 980.9278793334961 -151.38082361221313 -49.0 1.000 1.000 1.000
v 981.9278793334961 -141.38082361221313 20.0 1.000 1.000 1.000
v 982.9278793334961 -92.38082361221313 -4.0 1.000 1.000 1.000
v 981.9278793334961 -141.38082361221313 20.0 1.000 1.000 1.000
v 981.9278793334961 -141.38082361221313 20.0 1.000 1.000 1.000
v 515.3251266479492 -115.09517669677734 106.0 1.000 1.000 1.000
v 532.3251266479492 -23.095176696777344 14.0 1.000 1.000 1.000
v 528.3251266479492 -111.09517669677734 -67.0 1.000 1.000 1.000
v 522.3251266479492 -189.09517669677734 9.0 1.000 1.000 1.000
v 751.3251266479492 -20.095176696777344 68.0 1.000 1.000 1.000
v 770.3251266479492 -184.09517669677734 88.0 1.000 1.000 1.000
v 768.3251266479492 -84.09517669677734 -89.0 1.000 1.000 1.000
v 767.3251266479492 -187.09517669677734 -77.0 1.000 1.000 1.000
v 1009.3251266479492 -95.09517669677734 23.0 1.000 1.000 1.000
v 536.3251266479492 -130.09517669677734 87.0 1.000 1.000 1.000
v 1009.3251266479492 -144.09517669677734 46.0 1.000 1.000 1.000
v 1010.3251266479492 -108.09517669677734 -62.0 1.000 1.000 1.000
v 531.3251266479492 -106.09517669677734 -67.0 1.000 1.000 1.000
v 528.3251266479492 -31.095176696777344 38.0 1.000 1.000 1.000
v 531.3251266479492 -193.09517669677734 13.0 1.000 1.000 1.000
v 1008.3251266479492 -153.09517669677734 -49.0 1.000 1.000 1.000
v 531.3251266479492 -193.09517669677734 13.0 1.000 1.000 1.000
v 536.3251266479492 -130.09517669677734 87.0 1.000 1.000 1.000
v 531.3251266479492 -106.09517669677734 -67.0 1.000 1.000 1.000
v 171.1657943725586 -65.35110473632812 88.0 1.000 1.000 1.000
v 172.1657943725586 -39.351104736328125 1.0 1.000 1.000 1.000
v 172.1657943725586 -21.351104736328125 13.0 1.000 1.000 1.000
v 172.1657943725586 -142.35110473632812 111.0 1.000 1.000 1.000
v 171.1657943725586 -198.35110473632812 133.0 1.000 1.000 1.000
v 172.1657943725586 -190.35110473632812 20.0 1.000 1.000 1.000
v 171.1657943725586 -196.35110473632812 -102.0 1.000 1.000 1.000
v 172.1657943725586 -117.35110473632812 -66.0 1.000 1.000 1.000
v 171.1657943725586 -125.35110473632812 -103.0 1.000 1.000 1.000
v 171.1657943725586 -39.351104736328125 -67.0 1.000 1.000 1.000
v 172.1657943725586 -142.35110473632812 111.0 1.000 1.000 1.000
v 172.1657943725586 -190.35110473632812 20.0 1.000 1.000 1.000
v 300.1657943725586 -128.35110473632812 123.0 1.000 1.000 1.000
v 343.1657943725586 -187.35110473632812 12.0 1.000 1.000 1.000
v 172.1657943725586 -117.35110473632812 -66.0 1.000 1.000 1.000
v 224.1657943725586 -94.35110473632812 -67.0 1.000 1.000 1.000
v 172.1657943725586 -142.35110473632812 111.0 1.000 1.000 1.000
v 300.1657943725586 -128.35110473632812 123.0 1.000 1.000 1.000
v 264.1657943725586 -33.351104736328125 12.0 1.000 1.000 1.000
v 224.1657943725586 -94.35110473632812 -67.0 1.000 1.000 1.000
v 172.1657943725586 -39.351104736328125 1.0 1.000 1.000 1.000
v 172.1657943725586 -117.35110473632812 -66.0 1.000 1.000 1.000
v 172.1657943725586 -190.35110473632812 20.0 1.000 1.000 1.000
v 343.1657943725586 -187.35110473632812 12.0 1.000 1.000 1.000
v -2.0 -113.0 143.0 1.000 1.000 1.000
v -1.0 -94.0 -88.0 1.000 1.000 1.000
v 92.0 -46.0 -73.0 1.000 1.000 1.000
v 143.0 19.0 25.0 1.000 1.000 1.000
v -1.0 -94.0 -88.0 1.000 1.000 1.000
v 143.0 19.0 25.0 1.000 1.000 1.000
v 67.0 -61.0 136.0 1.000 1.000 1.000
v 171.1657943725586 -198.35110473632812 133.0 1.000 1.000 1.000
v 171.1657943725586 -196.35110473632812 -102.0 1.000 1.000 1.000
v 171.1657943725586 -39.351104736328125 -67.0 1.000 1.000 1.000
v 171.1657943725586 -125.35110473632812 -103.0 1.000 1.000 1.000
v 172.1657943725586 -21.351104736328125 13.0 1.000 1.000 1.000
v 171.1657943725586 -196.35110473632812 -102.0 1.000 1.000 1.000
v 171.1657943725586 -65.35110473632812 88.0 1.000 1.000 1.000
v 172.1657943725586 -21.351104736328125 13.0 1.000 1.000 1.000
v 67.0 -61.0 136.0 1.000 1.000 1.000
v -2.0 -113.0 143.0 1.000 1.000 1.000
v 171.1657943725586 -198.35110473632812 133.0 1.000 1.000 1.000
v 171.1657943725586 -65.35110473632812 88.0 1.000 1.000 1.000
v 264.1657943725586 -33.351104736328125 12.0 1.000 1.000 1.000
v 224.1657943725586 -94.35110473632812 -67.0 1.000 1.000 1.000
v 343.1657943725586 -187.35110473632812 12.0 1.000 1.000 1.000
v 300.1657943725586 -128.35110473632812 123.0 1.000 1.000 1.000
v 532.3251266479492 -23.095176696777344 14.0 1.000 1.000 1.000
v 515.3251266479492 -115.09517669677734 106.0 1.000 1.000 1.000
v 528.3251266479492 -111.09517669677734 -67.0 1.000 1.000 1.000
v 522.3251266479492 -189.09517669677734 9.0 1.000 1.000 1.000
v 175.1657943725586 -148.35110473632812 124.0 1.000 1.000 1.000
v 173.1657943725586 -189.35110473632812 20.0 1.000 1.000 1.000
v 537.1657943725586 -129.35110473632812 87.0 1.000 1.000 1.000
v 531.1657943725586 -193.35110473632812 13.0 1.000 1.000 1.000
v 171.1657943725586 -119.35110473632812 -73.0 1.000 1.000 1.000
v 172.1657943725586 -35.351104736328125 27.0 1.000 1.000 1.000
v 528.1657943725586 -31.351104736328125 38.0 1.000 1.000 1.000
v 531.1657943725586 -106.35110473632812 -67.0 1.000 1.000 1.000
v 171.1657943725586 -119.35110473632812 -73.0 1.000 1.000 1.000
v 173.1657943725586 -189.35110473632812 20.0 1.000 1.000 1.000
v 175.1657943725586 -148.35110473632812 124.0 1.000 1.000 1.000
v 172.1657943725586 -35.351104736328125 27.0 1.000 1.000 1.000
v 531.1657943725586 -193.35110473632812 13.0 1.000 1.000 1.000
v 531.1657943725586 -106.35110473632812 -67.0 1.000 1.000 1.000
v 537.1657943725586 -129.35110473632812 87.0 1.000 1.000 1.000
v -254.86859130859375 376.30655002593994 70.0 1.000 1.000 1.000
v -198.86859130859375 437.30655002593994 0.0 1.000 1.000 1.000
v -226.86859130859375 413.30655002593994 -45.0 1.000 1.000 1.000
v -304.86859130859375 437.30655002593994 0.0 1.000 1.000 1.000
v -288.86859130859375 414.30655002593994 -41.0 1.000 1.000 1.000
v -6.576026916503906 442.42901611328125 73.0 1.000 1.000 1.000
v -51.576026916503906 469.42901611328125 44.0 1.000 1.000 1.000
v 27.423973083496094 480.42901611328125 -37.0 1.000 1.000 1.000
v 49.423973083496094 468.42901611328125 44.0 1.000 1.000 1.000
v -46.576026916503906 482.42901611328125 -31.0 1.000 1.000 1.000
v 370.1021728515625 -27.755651995539665 -42.76123380661011 1.000 1.000 1.000
v 339.1021728515625 37.244348004460335 -27.761233806610107 1.000 1.000 1.000
v 381.1021728515625 -31.755651995539665 56.23876619338989 1.000 1.000 1.000
v 349.1021728515625 62.244348004460335 51.23876619338989 1.000 1.000 1.000
v 266.1021728515625 11.244348004460335 -28.761233806610107 1.000 1.000 1.000
v 264.1021728515625 27.244348004460335 36.23876619338989 1.000 1.000 1.000
v 339.1021728515625 37.244348004460335 -27.761233806610107 1.000 1.000 1.000
v 349.1021728515625 62.244348004460335 51.23876619338989 1.000 1.000 1.000
v 339.1021728515625 37.244348004460335 -27.761233806610107 1.000 1.000 1.000
v 370.1021728515625 -27.755651995539665 -42.76123380661011 1.000 1.000 1.000
v 266.1021728515625 11.244348004460335 -28.761233806610107 1.000 1.000 1.000
v 264.1021728515625 -28.755651995539665 -25.761233806610107 1.000 1.000 1.000
v 263.1021728515625 -33.755651995539665 32.23876619338989 1.000 1.000 1.000
v 381.1021728515625 -31.755651995539665 56.23876619338989 1.000 1.000 1.000
v 264.1021728515625 27.244348004460335 36.23876619338989 1.000 1.000 1.000
v 349.1021728515625 62.244348004460335 51.23876619338989 1.000 1.000 1.000
v 381.1021728515625 -31.755651995539665 56.23876619338989 1.000 1.000 1.000
v 263.1021728515625 -33.755651995539665 32.23876619338989 1.000 1.000 1.000
v 370.1021728515625 -27.755651995539665 -42.76123380661011 1.000 1.000 1.000
v 264.1021728515625 -28.755651995539665 -25.761233806610107 1.000 1.000 1.000
v 489.6571079492569 393.8121757507324 52.07913017272949 1.000 1.000 1.000
v 483.6571079492569 317.8121757507324 49.07913017272949 1.000 1.000 1.000
v 484.6571079492569 313.8121757507324 -5.920869827270508 1.000 1.000 1.000
v 486.6571079492569 381.8121757507324 -42.92086982727051 1.000 1.000 1.000
v 484.6571079492569 433.8121757507324 7.079130172729492 1.000 1.000 1.000
v 263.1021728515625 -33.755651995539665 32.23876619338989 1.000 1.000 1.000
v 264.1021728515625 -28.755651995539665 -25.761233806610107 1.000 1.000 1.000
v 264.1021728515625 27.244348004460335 36.23876619338989 1.000 1.000 1.000
v 266.1021728515625 11.244348004460335 -28.761233806610107 1.000 1.000 1.000
v 411.6571079492569 415.8121757507324 7.079130172729492 1.000 1.000 1.000
v 413.6571079492569 381.8121757507324 -30.920869827270508 1.000 1.000 1.000
v 412.6571079492569 329.8121757507324 -6.920869827270508 1.000 1.000 1.000
v 410.6571079492569 337.8121757507324 53.07913017272949 1.000 1.000 1.000
v 411.6571079492569 413.8121757507324 50.07913017272949 1.000 1.000 1.000
v 486.6571079492569 381.8121757507324 -42.92086982727051 1.000 1.000 1.000
v 484.6571079492569 433.8121757507324 7.079130172729492 1.000 1.000 1.000
v 484.6571079492569 313.8121757507324 -5.920869827270508 1.000 1.000 1.000
v 483.6571079492569 317.8121757507324 49.07913017272949 1.000 1.000 1.000
v 489.6571079492569 393.8121757507324 52.07913017272949 1.000 1.000 1.000
v 697.6571079492569 351.8121757507324 50.07913017272949 1.000 1.000 1.000
v 402.6571079492569 398.8121757507324 91.07913017272949 1.000 1.000 1.000
v 396.6571079492569 297.8121757507324 89.07913017272949 1.000 1.000 1.000
v 396.6571079492569 297.8121757507324 89.07913017272949 1.000 1.000 1.000
v 398.6571079492569 292.8121757507324 -24.920869827270508 1.000 1.000 1.000
v 698.6571079492569 357.8121757507324 -16.920869827270508 1.000 1.000 1.000
v 404.6571079492569 408.8121757507324 -46.92086982727051 1.000 1.000 1.000
v 699.6571079492569 415.8121757507324 49.07913017272949 1.000 1.000 1.000
v 700.6571079492569 397.8121757507324 -19.920869827270508 1.000 1.000 1.000
v 697.6571079492569 351.8121757507324 50.07913017272949 1.000 1.000 1.000
v 396.6571079492569 297.8121757507324 89.07913017272949 1.000 1.000 1.000
v 402.6571079492569 398.8121757507324 91.07913017272949 1.000 1.000 1.000
v 404.6571079492569 408.8121757507324 -46.92086982727051 1.000 1.000 1.000
v 398.6571079492569 292.8121757507324 -24.920869827270508 1.000 1.000 1.000
v 263.85553324222565 324.87169647216797 69.0 1.000 1.000 1.000
v 274.85553324222565 319.87169647216797 -12.0 1.000 1.000 1.000
v 339.85553324222565 340.87169647216797 61.0 1.000 1.000 1.000
v 333.85553324222565 388.87169647216797 80.0 1.000 1.000 1.000
v 186.85553324222565 379.87169647216797 89.0 1.000 1.000 1.000
v 175.85553324222565 369.87169647216797 -66.0 1.000 1.000 1.000
v 140.85553324222565 403.87169647216797 10.0 1.000 1.000 1.000
v 268.85553324222565 388.87169647216797 -57.0 1.000 1.000 1.000
v 333.85553324222565 325.87169647216797 -10.0 1.000 1.000 1.000
v 274.85553324222565 439.87169647216797 17.0 1.000 1.000 1.000
v -53.86859130859375 220.30655002593994 67.0 1.000 1.000 1.000
v -55.86859130859375 210.30655002593994 -17.0 1.000 1.000 1.000
v -51.86859130859375 353.30655002593994 -49.0 1.000 1.000 1.000
v -51.86859130859375 375.30655002593994 26.0 1.000 1.000 1.000
v -52.86859130859375 335.30655002593994 75.0 1.000 1.000 1.000
v 263.85553324222565 324.87169647216797 69.0 1.000 1.000 1.000
v 274.85553324222565 319.87169647216797 -12.0 1.000 1.000 1.000
v 175.85553324222565 369.87169647216797 -66.0 1.000 1.000 1.000
v 140.85553324222565 403.87169647216797 10.0 1.000 1.000 1.000
v 186.85553324222565 379.87169647216797 89.0 1.000 1.000 1.000
v 274.85553324222565 439.87169647216797 17.0 1.000 1.000 1.000
v 268.85553324222565 388.87169647216797 -57.0 1.000 1.000 1.000
v 333.85553324222565 325.87169647216797 -10.0 1.000 1.000 1.000
v 339.85553324222565 340.87169647216797 61.0 1.000 1.000 1.000
v 333.85553324222565 388.87169647216797 80.0 1.000 1.000 1.000
v 413.6571079492569 381.8121757507324 -30.920869827270508 1.000 1.000 1.000
v 411.6571079492569 415.8121757507324 7.079130172729492 1.000 1.000 1.000
v 412.6571079492569 329.8121757507324 -6.920869827270508 1.000 1.000 1.000
v 410.6571079492569 337.8121757507324 53.07913017272949 1.000 1.000 1.000
v 411.6571079492569 413.8121757507324 50.07913017272949 1.000 1.000 1.000
v 94.85553324222565 289.87169647216797 80.0 1.000 1.000 1.000
v 64.85553324222565 283.87169647216797 -47.0 1.000 1.000 1.000
v 396.85553324222565 297.87169647216797 89.0 1.000 1.000 1.000
v 402.85553324222565 398.87169647216797 91.0 1.000 1.000 1.000
v 151.85553324222565 400.87169647216797 66.0 1.000 1.000 1.000
v 396.85553324222565 297.87169647216797 89.0 1.000 1.000 1.000
v 94.85553324222565 289.87169647216797 80.0 1.000 1.000 1.000
v 148.85553324222565 412.87169647216797 -35.0 1.000 1.000 1.000
v 404.85553324222565 408.87169647216797 -47.0 1.000 1.000 1.000
v 398.85553324222565 292.87169647216797 -25.0 1.000 1.000 1.000
v 398.85553324222565 292.87169647216797 -25.0 1.000 1.000 1.000
v 404.85553324222565 408.87169647216797 -47.0 1.000 1.000 1.000
v 402.85553324222565 398.87169647216797 91.0 1.000 1.000 1.000
v 396.85553324222565 297.87169647216797 89.0 1.000 1.000 1.000
v -785.0662807226181 361.1454210281372 55.0 1.000 1.000 1.000
v -744.0662807226181 433.1454210281372 -27.0 1.000 1.000 1.000
v -773.0662807226181 366.1454210281372 -44.0 1.000 1.000 1.000
v -756.0662807226181 457.1454210281372 52.0 1.000 1.000 1.000
v -744.0662807226181 433.1454210281372 -27.0 1.000 1.000 1.000
v -670.0662807226181 422.1454210281372 42.0 1.000 1.000 1.000
v -669.0662807226181 405.1454210281372 -27.0 1.000 1.000 1.000
v -756.0662807226181 457.1454210281372 52.0 1.000 1.000 1.000
v -669.0662807226181 405.1454210281372 -27.0 1.000 1.000 1.000
v -773.0662807226181 366.1454210281372 -44.0 1.000 1.000 1.000
v -744.0662807226181 433.1454210281372 -27.0 1.000 1.000 1.000
v -667.0662807226181 365.1454210281372 -25.0 1.000 1.000 1.000
v -670.0662807226181 422.1454210281372 42.0 1.000 1.000 1.000
v -785.0662807226181 361.1454210281372 55.0 1.000 1.000 1.000
v -667.0662807226181 358.1454210281372 42.0 1.000 1.000 1.000
v -756.0662807226181 457.1454210281372 52.0 1.000 1.000 1.000
v -773.0662807226181 366.1454210281372 -44.0 1.000 1.000 1.000
v -667.0662807226181 358.1454210281372 42.0 1.000 1.000 1.000
v -785.0662807226181 361.1454210281372 55.0 1.000 1.000 1.000
v -667.0662807226181 365.1454210281372 -25.0 1.000 1.000 1.000
v -475.19768941402435 338.83887100219727 45.0 1.000 1.000 1.000
v -481.19768941402435 401.83887100219727 50.0 1.000 1.000 1.000
v -476.19768941402435 335.83887100219727 -10.0 1.000 1.000 1.000
v -476.19768941402435 390.83887100219727 -46.0 1.000 1.000 1.000
v -475.19768941402435 441.83887100219727 5.0 1.000 1.000 1.000
v -667.0662807226181 358.1454210281372 42.0 1.000 1.000 1.000
v -667.0662807226181 365.1454210281372 -25.0 1.000 1.000 1.000
v -670.0662807226181 422.1454210281372 42.0 1.000 1.000 1.000
v -669.0662807226181 405.1454210281372 -27.0 1.000 1.000 1.000
v -403.19768941402435 424.83887100219727 6.0 1.000 1.000 1.000
v -404.19768941402435 390.83887100219727 -32.0 1.000 1.000 1.000
v -403.19768941402435 338.83887100219727 -10.0 1.000 1.000 1.000
v -403.19768941402435 345.83887100219727 51.0 1.000 1.000 1.000
v -403.19768941402435 420.83887100219727 49.0 1.000 1.000 1.000
v -475.19768941402435 441.83887100219727 5.0 1.000 1.000 1.000
v -476.19768941402435 390.83887100219727 -46.0 1.000 1.000 1.000
v -476.19768941402435 335.83887100219727 -10.0 1.000 1.000 1.000
v -475.19768941402435 338.83887100219727 45.0 1.000 1.000 1.000
v -481.19768941402435 401.83887100219727 50.0 1.000 1.000 1.000
v -391.19768941402435 313.83887100219727 85.0 1.000 1.000 1.000
v -397.19768941402435 414.83887100219727 89.0 1.000 1.000 1.000
v -691.1976894140244 361.83887100219727 42.0 1.000 1.000 1.000
v -691.1976894140244 367.83887100219727 -25.0 1.000 1.000 1.000
v -391.19768941402435 311.83887100219727 -28.0 1.000 1.000 1.000
v -391.19768941402435 313.83887100219727 85.0 1.000 1.000 1.000
v -694.1976894140244 424.83887100219727 42.0 1.000 1.000 1.000
v -397.19768941402435 427.83887100219727 -49.0 1.000 1.000 1.000
v -694.1976894140244 408.83887100219727 -27.0 1.000 1.000 1.000
v -691.1976894140244 361.83887100219727 42.0 1.000 1.000 1.000
v -397.19768941402435 414.83887100219727 89.0 1.000 1.000 1.000
v -391.19768941402435 313.83887100219727 85.0 1.000 1.000 1.000
v -391.19768941402435 311.83887100219727 -28.0 1.000 1.000 1.000
v -397.19768941402435 427.83887100219727 -49.0 1.000 1.000 1.000
v -332.2357143163681 347.22493743896484 62.0 1.000 1.000 1.000
v -267.2357143163681 327.22493743896484 -16.0 1.000 1.000 1.000
v -258.2357143163681 331.22493743896484 66.0 1.000 1.000 1.000
v -181.2357143163681 385.22493743896484 88.0 1.000 1.000 1.000
v -326.2357143163681 395.22493743896484 81.0 1.000 1.000 1.000
v -259.2357143163681 397.22493743896484 -55.0 1.000 1.000 1.000
v -133.2357143163681 412.22493743896484 11.0 1.000 1.000 1.000
v -167.2357143163681 379.22493743896484 -67.0 1.000 1.000 1.000
v -325.2357143163681 333.22493743896484 -10.0 1.000 1.000 1.000
v -267.2357143163681 447.22493743896484 21.0 1.000 1.000 1.000
v -440.86859130859375 220.30655002593994 68.0 1.000 1.000 1.000
v -439.86859130859375 208.30655002593994 -19.0 1.000 1.000 1.000
v -445.86859130859375 354.30655002593994 -50.0 1.000 1.000 1.000
v -444.86859130859375 372.30655002593994 27.0 1.000 1.000 1.000
v -445.86859130859375 334.30655002593994 75.0 1.000 1.000 1.000
v -267.2357143163681 327.22493743896484 -16.0 1.000 1.000 1.000
v -258.2357143163681 331.22493743896484 66.0 1.000 1.000 1.000
v -167.2357143163681 379.22493743896484 -67.0 1.000 1.000 1.000
v -133.2357143163681 412.22493743896484 11.0 1.000 1.000 1.000
v -181.2357143163681 385.22493743896484 88.0 1.000 1.000 1.000
v -267.2357143163681 447.22493743896484 21.0 1.000 1.000 1.000
v -259.2357143163681 397.22493743896484 -55.0 1.000 1.000 1.000
v -325.2357143163681 333.22493743896484 -10.0 1.000 1.000 1.000
v -332.2357143163681 347.22493743896484 62.0 1.000 1.000 1.000
v -326.2357143163681 395.22493743896484 81.0 1.000 1.000 1.000
v -403.19768941402435 424.83887100219727 6.0 1.000 1.000 1.000
v -404.19768941402435 390.83887100219727 -32.0 1.000 1.000 1.000
v -403.19768941402435 338.83887100219727 -10.0 1.000 1.000 1.000
v -403.19768941402435 345.83887100219727 51.0 1.000 1.000 1.000
v -403.19768941402435 420.83887100219727 49.0 1.000 1.000 1.000
v -145.2357143163681 417.22493743896484 68.0 1.000 1.000 1.000
v -89.2357143163681 306.22493743896484 81.0 1.000 1.000 1.000
v -57.2357143163681 302.22493743896484 -45.0 1.000 1.000 1.000
v -141.2357143163681 431.22493743896484 -33.0 1.000 1.000 1.000
v -391.2357143163681 314.22493743896484 85.0 1.000 1.000 1.000
v -391.2357143163681 314.22493743896484 85.0 1.000 1.000 1.000
v -145.2357143163681 417.22493743896484 68.0 1.000 1.000 1.000
v -397.2357143163681 415.22493743896484 89.0 1.000 1.000 1.000
v -89.2357143163681 306.22493743896484 81.0 1.000 1.000 1.000
v -397.2357143163681 428.22493743896484 -49.0 1.000 1.000 1.000
v -391.2357143163681 311.22493743896484 -28.0 1.000 1.000 1.000
v -397.2357143163681 428.22493743896484 -49.0 1.000 1.000 1.000
v -391.2357143163681 311.22493743896484 -28.0 1.000 1.000 1.000
v -391.2357143163681 314.22493743896484 85.0 1.000 1.000 1.000
v -397.2357143163681 415.22493743896484 89.0 1.000 1.000 1.000
v -252.86859130859375 185.30655002593994 -84.0 1.000 1.000 1.000
v -150.86859130859375 91.30655002593994 -68.0 1.000 1.000 1.000
v -360.86859130859375 90.30655002593994 -66.0 1.000 1.000 1.000
v -321.86859130859375 336.30655002593994 -96.0 1.000 1.000 1.000
v -356.86859130859375 197.30655002593994 -74.0 1.000 1.000 1.000
v -51.86859130859375 375.30655002593994 26.0 1.000 1.000 1.000
v -226.86859130859375 413.30655002593994 -45.0 1.000 1.000 1.000
v -198.86859130859375 437.30655002593994 0.0 1.000 1.000 1.000
v -161.86859130859375 196.30655002593994 -80.0 1.000 1.000 1.000
v -55.86859130859375 210.30655002593994 -17.0 1.000 1.000 1.000
v -51.86859130859375 353.30655002593994 -49.0 1.000 1.000 1.000
v -288.86859130859375 414.30655002593994 -41.0 1.000 1.000 1.000
v -444.86859130859375 372.30655002593994 27.0 1.000 1.000 1.000
v -304.86859130859375 437.30655002593994 0.0 1.000 1.000 1.000
v -445.86859130859375 354.30655002593994 -50.0 1.000 1.000 1.000
v -444.86859130859375 372.30655002593994 27.0 1.000 1.000 1.000
v -288.86859130859375 414.30655002593994 -41.0 1.000 1.000 1.000
v -170.86859130859375 336.30655002593994 -96.0 1.000 1.000 1.000
v -252.86859130859375 185.30655002593994 -84.0 1.000 1.000 1.000
v -321.86859130859375 336.30655002593994 -96.0 1.000 1.000 1.000
v -226.86859130859375 413.30655002593994 -45.0 1.000 1.000 1.000
v -51.86859130859375 375.30655002593994 26.0 1.000 1.000 1.000
v -51.86859130859375 353.30655002593994 -49.0 1.000 1.000 1.000
v -360.86859130859375 90.30655002593994 -66.0 1.000 1.000 1.000
v -394.86859130859375 86.30655002593994 20.0 1.000 1.000 1.000
v -439.86859130859375 208.30655002593994 -19.0 1.000 1.000 1.000
v -150.86859130859375 91.30655002593994 -68.0 1.000 1.000 1.000
v -55.86859130859375 210.30655002593994 -17.0 1.000 1.000 1.000
v -105.86859130859375 86.30655002593994 21.0 1.000 1.000 1.000
v -161.86859130859375 196.30655002593994 -80.0 1.000 1.000 1.000
v -356.86859130859375 197.30655002593994 -74.0 1.000 1.000 1.000
v -439.86859130859375 208.30655002593994 -19.0 1.000 1.000 1.000
v -445.86859130859375 354.30655002593994 -50.0 1.000 1.000 1.000
v -360.86859130859375 90.30655002593994 -66.0 1.000 1.000 1.000
v -321.86859130859375 336.30655002593994 -96.0 1.000 1.000 1.000
v -51.86859130859375 375.30655002593994 26.0 1.000 1.000 1.000
v -198.86859130859375 437.30655002593994 0.0 1.000 1.000 1.000
v -254.86859130859375 376.30655002593994 70.0 1.000 1.000 1.000
v -445.86859130859375 334.30655002593994 75.0 1.000 1.000 1.000
v -253.86859130859375 236.30655002593994 189.0 1.000 1.000 1.000
v -52.86859130859375 335.30655002593994 75.0 1.000 1.000 1.000
v -93.86859130859375 223.30655002593994 161.0 1.000 1.000 1.000
v -401.86859130859375 223.30655002593994 161.0 1.000 1.000 1.000
v -394.86859130859375 86.30655002593994 20.0 1.000 1.000 1.000
v -323.86859130859375 95.30655002593994 163.0 1.000 1.000 1.000
v -444.86859130859375 372.30655002593994 27.0 1.000 1.000 1.000
v -254.86859130859375 376.30655002593994 70.0 1.000 1.000 1.000
v -304.86859130859375 437.30655002593994 0.0 1.000 1.000 1.000
v -253.86859130859375 236.30655002593994 189.0 1.000 1.000 1.000
v -323.86859130859375 95.30655002593994 163.0 1.000 1.000 1.000
v -180.86859130859375 95.30655002593994 163.0 1.000 1.000 1.000
v -445.86859130859375 334.30655002593994 75.0 1.000 1.000 1.000
v -401.86859130859375 223.30655002593994 161.0 1.000 1.000 1.000
v -439.86859130859375 208.30655002593994 -19.0 1.000 1.000 1.000
v -394.86859130859375 86.30655002593994 20.0 1.000 1.000 1.000
v -440.86859130859375 220.30655002593994 68.0 1.000 1.000 1.000
v -53.86859130859375 220.30655002593994 67.0 1.000 1.000 1.000
v -52.86859130859375 335.30655002593994 75.0 1.000 1.000 1.000
v -93.86859130859375 223.30655002593994 161.0 1.000 1.000 1.000
v -105.86859130859375 86.30655002593994 21.0 1.000 1.000 1.000
v -55.86859130859375 210.30655002593994 -17.0 1.000 1.000 1.000
v -125.0 67.0 20.0 1.000 1.000 1.000
v -88.0 73.0 -59.0 1.000 1.000 1.000
v 95.0 75.0 -62.0 1.000 1.000 1.000
v 131.0 69.0 21.0 1.000 1.000 1.000
v 75.0 63.0 143.0 1.000 1.000 1.000
v -71.0 60.0 140.0 1.000 1.000 1.000
v -125.0 67.0 20.0 1.000 1.000 1.000
v 131.0 69.0 21.0 1.000 1.000 1.000
v -394.86859130859375 86.30655002593994 20.0 1.000 1.000 1.000
v -360.86859130859375 90.30655002593994 -66.0 1.000 1.000 1.000
v -150.86859130859375 91.30655002593994 -68.0 1.000 1.000 1.000
v -105.86859130859375 86.30655002593994 21.0 1.000 1.000 1.000
v -180.86859130859375 95.30655002593994 163.0 1.000 1.000 1.000
v -323.86859130859375 95.30655002593994 163.0 1.000 1.000 1.000
v -105.86859130859375 86.30655002593994 21.0 1.000 1.000 1.000
v -394.86859130859375 86.30655002593994 20.0 1.000 1.000 1.000
v -382.86859130859375 32.30655002593994 -35.0 1.000 1.000 1.000
v -373.86859130859375 37.30655002593994 141.0 1.000 1.000 1.000
v -461.86859130859375 424.30655002593994 -72.0 1.000 1.000 1.000
v -128.86859130859375 33.30655002593994 -37.0 1.000 1.000 1.000
v -42.86859130859375 427.30655002593994 -70.0 1.000 1.000 1.000
v -130.86859130859375 38.30655002593994 141.0 1.000 1.000 1.000
v -441.86859130859375 384.30655002593994 147.0 1.000 1.000 1.000
v -63.86859130859375 387.30655002593994 148.0 1.000 1.000 1.000
v -42.86859130859375 427.30655002593994 -70.0 1.000 1.000 1.000
v -128.86859130859375 33.30655002593994 -37.0 1.000 1.000 1.000
v -382.86859130859375 32.30655002593994 -35.0 1.000 1.000 1.000
v -461.86859130859375 424.30655002593994 -72.0 1.000 1.000 1.000
v -63.86859130859375 387.30655002593994 148.0 1.000 1.000 1.000
v -461.86859130859375 424.30655002593994 -72.0 1.000 1.000 1.000
v -441.86859130859375 384.30655002593994 147.0 1.000 1.000 1.000
v -63.86859130859375 387.30655002593994 148.0 1.000 1.000 1.000
v -373.86859130859375 37.30655002593994 141.0 1.000 1.000 1.000
v -130.86859130859375 38.30655002593994 141.0 1.000 1.000 1.000
v -461.86859130859375 424.30655002593994 -72.0 1.000 1.000 1.000
v -63.86859130859375 387.30655002593994 148.0 1.000 1.000 1.000
v -42.86859130859375 427.30655002593994 -70.0 1.000 1.000 1.000
v -441.86859130859375 384.30655002593994 147.0 1.000 1.000 1.000
v -382.86859130859375 32.30655002593994 -35.0 1.000 1.000 1.000
v -128.86859130859375 33.30655002593994 -37.0 1.000 1.000 1.000
v -373.86859130859375 37.30655002593994 141.0 1.000 1.000 1.000
v -130.86859130859375 38.30655002593994 141.0 1.000 1.000 1.000
v -132.0 19.0 20.0 1.000 1.000 1.000
v -125.0 67.0 20.0 1.000 1.000 1.000
v -91.0 -48.0 -70.0 1.000 1.000 1.000
v -88.0 73.0 -59.0 1.000 1.000 1.000
v -1.0 -94.0 -88.0 1.000 1.000 1.000
v 95.0 75.0 -62.0 1.000 1.000 1.000
v 92.0 -46.0 -73.0 1.000 1.000 1.000
v 143.0 19.0 25.0 1.000 1.000 1.000
v 131.0 69.0 21.0 1.000 1.000 1.000
v -71.0 60.0 140.0 1.000 1.000 1.000
v -63.0 -65.0 133.0 1.000 1.000 1.000
v -2.0 -113.0 143.0 1.000 1.000 1.000
v -132.0 19.0 20.0 1.000 1.000 1.000
v -125.0 67.0 20.0 1.000 1.000 1.000
v 143.0 19.0 25.0 1.000 1.000 1.000
v 131.0 69.0 21.0 1.000 1.000 1.000
v 75.0 63.0 143.0 1.000 1.000 1.000
v 67.0 -61.0 136.0 1.000 1.000 1.000
v -2.0 -113.0 143.0 1.000 1.000 1.000
v -71.0 60.0 140.0 1.000 1.000 1.000
v -155.0 -199.0 132.0 1.000 1.000 1.000
v -129.0 72.0 -35.0 1.000 1.000 1.000
v -191.0 -199.0 -80.0 1.000 1.000 1.000
v -119.0 77.0 141.0 1.000 1.000 1.000
v 188.0 -198.0 -80.0 1.000 1.000 1.000
v 125.0 73.0 -37.0 1.000 1.000 1.000
v 156.0 -198.0 143.0 1.000 1.000 1.000
v 123.0 78.0 141.0 1.000 1.000 1.000
v 188.0 -198.0 -80.0 1.000 1.000 1.000
v 156.0 -198.0 143.0 1.000 1.000 1.000
v -155.0 -199.0 132.0 1.000 1.000 1.000
v -191.0 -199.0 -80.0 1.000 1.000 1.000
v -191.0 -199.0 -80.0 1.000 1.000 1.000
v -129.0 72.0 -35.0 1.000 1.000 1.000
v 125.0 73.0 -37.0 1.000 1.000 1.000
v 188.0 -198.0 -80.0 1.000 1.000 1.000
v -119.0 77.0 141.0 1.000 1.000 1.000
v -155.0 -199.0 132.0 1.000 1.000 1.000
v 156.0 -198.0 143.0 1.000 1.000 1.000
v 123.0 78.0 141.0 1.000 1.000 1.000
v -129.0 72.0 -35.0 1.000 1.000 1.000
v 123.0 78.0 141.0 1.000 1.000 1.000
v 125.0 73.0 -37.0 1.000 1.000 1.000
v -119.0 77.0 141.0 1.000 1.000 1.000
vt 0.0664 0.9570
vt 0.0866 0.9570
vt 0.9395 0.9707
vt 0.9688 0.9707
vt 0.8945 0.8398
vt 0.2982 0.6348
vt 0.1471 0.6318
vt 0.9792 0.8467
vt 0.1055 0.6357
vt 0.3750 0.6377
vt 0.3379 0.8008
vt 0.1396 0.9167
vt 0.6475 0.8105
vt 0.8008 0.9258
vt 0.6768 0.6283
vt 0.4043 0.6237
vt 0.6045 1.0117
vt 0.3213 0.9720
vt 0.6934 0.9635
vt 0.3711 1.0221
vt 0.3408 1.0059
vt 0.5869 1.0130
vt 0.6982 0.9674
vt 0.2217 0.9531
vt 0.3047 0.0098
vt 0.1152 0.0547
vt 0.1569 0.0498
vt 0.4635 0.0127
vt 0.2480 0.0514
vt 0.8086 0.0592
vt 0.5898 0.6426
vt 0.3154 0.6686
vt 0.5889 0.6595
vt 0.8125 0.6471
vt 0.9512 0.9805
vt 0.6123 0.5671
vt 0.1191 0.9609
vt 0.1123 0.5671
vt 0.4902 0.5697
vt 0.2031 0.9805
vt 0.9326 0.5690
vt 0.9395 0.9759
vt 0.1533 0.3874
vt 0.1865 0.5475
vt 0.3359 0.5495
vt 0.3887 0.6374
vt 0.4893 0.3574
vt 0.5127 0.6426
vt 0.4922 0.0944
vt 0.3896 0.1309
vt 0.2236 0.1868
vt 0.1094 0.3581
vt 0.7168 0.3646
vt 0.9463 0.1973
vt 0.8262 0.1973
vt 0.7402 0.1986
vt 0.8857 0.4173
vt 0.7256 0.2637
vt 0.4453 0.3216
vt 0.5098 0.2031
vt 0.9121 0.4141
vt 0.1777 0.5677
vt 0.1523 0.8073
vt 0.8828 0.7324
vt 0.7627 0.7845
vt 0.9619 0.9577
vt 0.8428 0.6875
vt 0.8936 0.9590
vt 0.7031 0.9622
vt 0.5752 0.8522
vt 0.5850 0.9642
vt 0.4795 0.8613
vt 0.3398 0.7930
vt 0.4766 0.9434
vt 0.2031 0.9401
vt 0.1836 0.6764
vt 0.0811 0.9395
vt 0.9258 0.1784
vt 0.7188 0.1777
vt 0.5713 0.1777
vt 0.1406 0.1797
vt 0.8757 0.9727
vt 0.0807 0.9424
vt 0.0592 0.9424
vt 0.9069 0.9746
vt 0.2852 0.6318
vt 0.8385 0.8428
vt 0.9180 0.8525
vt 0.1458 0.6211
vt 0.1048 0.6240
vt 0.3587 0.6309
vt 1.8779 0.8158
vt 1.0635 0.9238
vt 1.4121 0.8066
vt 2.1279 0.9297
vt 1.4990 0.6315
vt 1.9355 0.6309
vt 0.5742 0.9622
vt 0.7070 0.9017
vt 0.7178 0.8971
vt 0.6133 0.9642
vt 0.3721 0.9388
vt 0.3975 0.8984
vt 0.2070 0.8724
vt 0.3623 0.9421
vt 0.1296 0.0479
vt 0.3079 0.0068
vt 0.1569 0.3320
vt 0.1510 0.4766
vt 0.1686 0.0439
vt 1.2959 0.0514
vt 1.6152 0.3411
vt 1.5576 0.4863
vt 0.5967 0.5306
vt 0.3027 0.5540
vt 0.5801 0.5501
vt 0.8232 0.5410
vt 0.3652 0.9382
vt 0.7158 0.4694
vt 1.0273 0.9609
vt 0.4346 0.9622
vt 0.6191 0.4720
vt 0.3203 0.4694
vt 0.9697 0.4707
vt 1.0176 0.9564
vt 0.7979 0.2135
vt 0.8652 0.4167
vt 0.9043 0.3913
vt 0.6211 0.1517
vt 0.5195 0.3587
vt 0.6924 0.5658
vt 0.6758 0.6504
vt 0.8701 0.5762
vt 0.8242 0.0319
vt 0.9717 0.0319
vt 0.7275 0.2168
vt 0.8936 0.2812
vt 0.7451 0.0306
vt 0.6543 0.1068
vt 0.4482 0.1634
vt 0.5020 0.0306
vt 0.3682 0.7891
vt 0.2432 0.9701
vt 0.4297 0.9674
vt 0.2490 0.6999
vt 0.2061 0.9727
vt 0.8145 0.6849
vt 0.6387 0.7917
vt 0.7822 0.9466
vt 0.8848 0.9505
vt 0.7598 0.0052
vt 0.9238 0.0059
vt 0.6436 0.0052
vt 0.3027 0.0078
vt 0.4775 0.6240
vt 0.4229 0.9766
vt 0.0723 1.1152
vt 0.6621 1.1738
vt 0.8721 0.9414
vt 0.6748 0.8203
vt 0.8262 1.1133
vt 0.1094 1.1777
vt 0.2080 0.8242
vt 0.9189 0.7354
vt 0.8994 0.1221
vt -0.0332 0.8135
vt 0.1758 -0.0244
vt 0.1973 1.0205
vt 0.6904 0.8721
vt 0.0771 0.4404
vt 0.6436 0.1553
vt 0.0537 0.5254
vt 0.7158 0.1777
vt 0.3145 0.9580
vt 0.7314 0.8975
vt 0.7021 0.0244
vt 0.9932 0.9492
vt 0.2070 0.1699
vt 0.1465 0.9062
vt 0.0361 0.1963
vt 0.3301 1.2891
vt 0.9785 0.2402
vt 0.8975 1.1865
vt 0.1426 0.9889
vt 0.4482 0.6719
vt 0.1230 0.6621
vt 0.1113 0.6628
vt 0.1689 0.9889
vt 0.4043 0.6641
vt 0.6270 0.6615
vt 0.4062 0.9909
vt 0.3408 0.9922
vt 0.5967 0.5384
vt 0.4502 0.5404
vt 0.2256 0.5397
vt 0.2559 0.5384
vt 0.5830 0.5384
vt 0.1123 0.8854
vt 0.3008 0.5065
vt 0.1387 0.4948
vt 1.1387 0.4948
vt 0.9424 0.4948
vt 0.9150 0.8854
vt 0.6377 0.5072
vt 0.3027 0.8913
vt 0.7617 0.8900
vt 1.1123 0.8854
vt 0.2119 0.9792
vt 1.0000 1.0000
vt 0.9668 0.2396
vt 0.0830 0.3542
vt 0.2910 0.2884
vt 0.2676 0.3040
vt 0.3115 0.4173
vt 0.5215 0.4069
vt 0.5723 0.1569
vt 0.5518 0.1335
vt 0.7158 0.0749
vt 0.5723 0.2917
vt 0.2568 0.4049
vt 0.7842 0.3047
vt 0.2607 0.2852
vt 0.2432 0.3027
vt 0.3506 0.0579
vt 0.3652 0.0208
vt 0.3359 0.0898
vt 1.1182 0.0365
vt 0.9150 0.0234
vt 0.3281 0.1517
vt 0.1182 0.0365
vt 0.5918 0.1458
vt 0.0000 1.0000
vt 0.9639 0.0534
vt 0.0840 0.2064
vt 0.9521 0.8887
vt 0.1543 0.0752
vt 0.0273 0.8330
vt 0.8926 -0.1387
vt 0.1309 0.3779
vt 0.8135 0.9062
vt 0.2402 0.9873
vt 0.7725 0.1865
vt 0.2266 0.8887
vt 0.8076 0.1104
vt 0.0566 0.4482
vt 0.6484 0.8301
vt 0.1748 0.1943
vt 0.9766 0.9775
vt 0.6943 0.0850
vt 0.0986 0.8945
vt 0.9766 0.2373
vt 0.2539 1.0918
vt 0.0596 0.2559
vt 0.8174 0.9775
vt 0.2314 0.6543
vt 0.5615 0.6660
vt 0.3105 0.9850
vt 0.3447 0.9850
vt 0.2168 0.6549
vt 0.5059 0.6576
vt 0.6436 0.9909
vt 0.7754 0.6569
vt 0.5576 0.9902
vt 0.6943 0.5319
vt 0.5156 0.5332
vt 0.2412 0.5306
vt 0.2783 0.5299
vt 0.6777 0.5319
vt 0.1611 0.4876
vt 0.3281 0.4792
vt 0.1670 0.0697
vt 0.8457 0.0697
vt 0.9258 0.4883
vt 1.1611 0.4876
vt 0.3711 0.0658
vt 0.6084 0.4792
vt 0.6377 0.0664
vt 1.1670 0.0697
vt 1.0000 0.0000
vt -0.1572 -0.2227
vt 0.2969 0.4082
vt 0.2031 0.2962
vt 0.2246 0.2799
vt 0.5195 0.1491
vt 0.5488 0.3991
vt 0.5684 0.2832
vt 0.6641 0.0671
vt 0.4863 0.1257
vt 0.2246 0.3958
vt 0.8311 0.2982
vt 0.1680 0.2773
vt 0.1592 0.2982
vt 0.2139 0.0462
vt 0.2100 0.0150
vt 0.2119 0.0814
vt 1.3486 0.8600
vt 1.1299 0.9792
vt 0.9043 0.9935
vt 0.5762 0.8665
vt 0.3486 0.8600
vt 0.1299 0.9792
vt 0.1357 -0.1921
vt 0.5254 0.4043
vt 0.3174 0.5404
vt 0.7715 0.5332
vt 0.6533 0.1888
vt 0.7490 0.3815
vt 0.0498 0.1628
vt 0.4365 0.1159
vt 0.3750 0.0898
vt 0.3271 0.3913
vt 0.0957 0.3770
vt 0.0664 0.1751
vt 0.5742 0.1133
vt 0.9180 0.1589
vt 0.6084 0.0872
vt 0.9189 0.1582
vt 0.9131 0.1328
vt 0.5713 0.0794
vt 0.3271 0.1940
vt 0.4355 0.0833
vt 0.0625 0.1445
vt 0.8457 0.5365
vt 0.9258 0.3639
vt 0.2217 0.5495
vt 0.9629 0.1445
vt 0.6260 0.0560
vt 0.4951 0.1380
vt 0.0547 0.1901
vt 0.4941 0.3288
vt 0.9600 0.1999
vt 0.8613 0.3509
vt 0.1543 0.3431
vt 0.1670 0.5299
vt 0.3311 0.5202
vt 0.0596 0.1374
vt 0.3818 0.0527
vt 0.6592 0.5234
vt 0.0674 0.3626
vt 0.0645 0.3457
vt 0.9551 0.3561
vt 0.8311 0.5384
vt 0.9492 0.3704
vt 0.8223 0.6211
vt 0.7422 0.6133
vt 0.3447 0.6191
vt 0.2666 0.6276
vt 0.6611 0.6224
vt 0.3252 0.6224
vt 0.2012 0.6120
vt 0.7891 0.6152
vt 0.0420 0.5495
vt 1.1006 0.5456
vt 0.0586 0.0156
vt 0.9951 0.5443
vt -0.0195 0.5384
vt 0.6377 0.0482
vt 0.4492 0.0286
vt 0.0078 0.0352
vt 0.2002 0.5964
vt 0.7480 0.5931
vt 0.9111 0.0312
vt 0.9854 0.0677
vt 0.1006 0.0397
vt 0.0996 0.0677
vt 0.9375 0.1016
vt 0.0996 0.5410
vt 0.9238 0.5345
vt 0.9854 0.0417
vt 0.1123 0.1126
vt 0.1025 0.5365
vt 0.9375 0.5397
vt 0.1328 0.5293
vt 0.9297 0.5339
vt 0.8174 0.6211
vt 0.7383 0.6133
vt 0.3408 0.6191
vt 0.2627 0.6276
vt 0.7930 0.6152
vt -0.0518 0.1849
vt 0.8877 0.9948
vt 0.0703 1.0007
vt 0.0830 0.9590
vt 0.8984 0.9525
vn -0.577 -0.577 -0.577
vn -0.577 -0.577 -0.577
vn -0.577 -0.577 -0.577
vn -0.577 -0.577 -0.577
vn -0.577 -0.577 -0.577
vn -0.577 -0.577 -0.577
vn -0.577 -0.577 -0.577
vn -0.577 -0.577 -0.577
vn -0.577 -0.577 -0.577
vn -0.577 -0.577 -0.577
vn -0.577 -0.577 -0.577
vn -0.577 -0.577 -0.577
vn -0.577 -0.577 -0.577
vn -0.577 -0.577 -0.577
vn -0.577 -0.577 -0.577
vn -0.577 -0.577 -0.577
vn 0.577 0.577 0.577
vn 0.577 0.577 0.577
vn 0.577 0.577 0.577
vn 0.577 0.577 0.577
vn 0.577 0.577 0.577
vn 0.577 0.577 0.577
vn 0.577 0.577 0.577
vn 0.577 0.577 0.577
vn 0.577 0.577 0.577
vn 0.577 0.577 0.577
vn 0.577 0.577 0.577
vn 0.577 0.577 0.577
vn 0.577 0.577 0.577
vn 0.577 0.577 0.577
vn -0.577 -0.577 -0.577
vn -0.577 -0.577 -0.577
vn -0.577 -0.577 -0.577
vn -0.577 -0.577 -0.577
vn -0.577 -0.577 -0.577
vn -0.577 -0.577 -0.577
vn -0.577 -0.577 -0.577
vn -0.577 -0.577 -0.577
vn -0.577 -0.577 -0.577
vn 0.577 0.577 0.577
vn 0.577 0.577 0.577
vn 0.577 0.577 0.577
vn 0.577 0.577 0.577
vn 0.577 0.577 0.577
vn -0.577 -0.577 -0.577
vn -0.577 -0.577 -0.577
vn -0.577 -0.577 -0.577
vn -0.577 -0.577 -0.577
vn -0.577 -0.577 -0.577
vn -0.577 -0.577 -0.577
vn -0.577 -0.577 -0.577
vn -0.577 -0.577 -0.577
vn -0.577 -0.577 -0.577
vn -0.577 -0.577 -0.577
vn -0.577 -0.577 -0.577
vn 0.577 0.577 0.577
vn -0.577 -0.577 -0.577
vn -0.577 -0.577 -0.577
vn 0.577 0.577 0.577
vn -0.577 -0.577 -0.577
vn 0.577 0.577 0.577
vn 0.577 0.577 0.577
vn -0.577 -0.577 -0.577
vn -0.577 -0.577 -0.577
vn 0.577 0.577 0.577
vn -0.577 -0.577 -0.577
vn -0.577 -0.577 -0.577
vn -0.577 -0.577 -0.577
vn -0.577 -0.577 -0.577
vn 0.577 0.577 0.577
vn 0.577 0.577 0.577
vn 0.577 0.577 0.577
vn 0.577 0.577 0.577
vn -0.577 -0.577 -0.577
vn 0.577 0.577 0.577
vn -0.577 -0.577 -0.577
vn -0.577 -0.577 -0.577
vn -0.577 -0.577 -0.577
vn -0.577 -0.577 -0.577
vn -0.577 -0.577 -0.577
vn -0.577 -0.577 -0.577
vn 0.577 0.577 0.577
vn -0.577 -0.577 -0.577
vn -0.577 -0.577 -0.577
vn -0.577 -0.577 -0.577
vn 0.577 0.577 0.577
vn 0.577 0.577 0.577
vn 0.577 0.577 0.577
vn -0.577 -0.577 -0.577
vn 0.577 0.577 0.577
vn 0.577 0.577 0.577
vn 0.577 0.577 0.577
vn -0.577 -0.577 -0.577
vn 0.577 0.577 0.577
vn -0.577 -0.577 -0.577
vn -0.577 -0.577 -0.577
vn 0.577 0.577 0.577
vn 0.577 0.577 0.577
vn 0.577 0.577 0.577
vn 0.577 0.577 0.577
vn -0.577 -0.577 -0.577
vn -0.577 -0.577 -0.577
vn -0.577 -0.577 -0.577
vn -0.577 -0.577 -0.577
vn 0.577 0.577 0.577
vn -0.577 -0.577 -0.577
vn -0.577 -0.577 -0.577
vn -0.577 -0.577 -0.577
vn -0.577 -0.577 -0.577
vn -0.577 -0.577 -0.577
vn 0.577 0.577 0.577
vn -0.577 -0.577 -0.577
vn 0.577 0.577 0.577
vn -0.577 -0.577 -0.577
vn -0.577 -0.577 -0.577
vn -0.577 -0.577 -0.577
vn -0.577 -0.577 -0.577
vn -0.577 -0.577 -0.577
vn -0.577 -0.577 -0.577
vn -0.577 -0.577 -0.577
vn -0.577 -0.577 -0.577
vn -0.577 -0.577 -0.577
vn -0.577 -0.577 -0.577
vn -0.577 -0.577 -0.577
vn -0.577 -0.577 -0.577
vn -0.577 -0.577 -0.577
vn -0.577 -0.577 -0.577
vn -0.577 -0.577 -0.577
vn -0.577 -0.577 -0.577
vn -0.577 -0.577 -0.577
vn -0.577 -0.577 -0.577
vn -0.577 -0.577 -0.577
vn -0.577 -0.577 -0.577
vn -0.577 -0.577 -0.577
vn -0.577 -0.577 -0.577
vn -0.577 -0.577 -0.577
vn 0.577 0.577 0.577
vn 0.577 0.577 0.577
vn 0.577 0.577 0.577
vn 0.577 0.577 0.577
vn 0.577 0.577 0.577
vn 0.577 0.577 0.577
vn 0.577 0.577 0.577
vn 0.577 0.577 0.577
vn 0.577 0.577 0.577
vn 0.577 0.577 0.577
vn 0.577 0.577 0.577
vn 0.577 0.577 0.577
vn 0.577 0.577 0.577
vn 0.577 0.577 0.577
vn -0.577 -0.577 -0.577
vn -0.577 -0.577 -0.577
vn -0.577 -0.577 -0.577
vn -0.577 -0.577 -0.577
vn -0.577 -0.577 -0.577
vn -0.577 -0.577 -0.577
vn -0.577 -0.577 -0.577
vn -0.577 -0.577 -0.577
vn -0.577 -0.577 -0.577
vn -0.577 -0.577 -0.577
vn 0.577 0.577 0.577
vn 0.577 0.577 0.577
vn 0.577 0.577 0.577
vn 0.577 0.577 0.577
vn 0.577 0.577 0.577
vn -0.577 -0.577 -0.577
vn -0.577 -0.577 -0.577
vn -0.577 -0.577 -0.577
vn -0.577 -0.577 -0.577
vn -0.577 -0.577 -0.577
vn -0.577 -0.577 -0.577
vn -0.577 -0.577 -0.577
vn -0.577 -0.577 -0.577
vn -0.577 -0.577 -0.577
vn -0.577 -0.577 -0.577
vn -0.577 -0.577 -0.577
vn 0.577 0.577 0.577
vn 0.577 0.577 0.577
vn 0.577 0.577 0.577
vn 0.577 0.577 0.577
vn 0.577 0.577 0.577
vn -0.577 -0.577 -0.577
vn 0.577 0.577 0.577
vn 0.577 0.577 0.577
vn 0.577 0.577 0.577
vn 0.577 0.577 0.577
vn 0.577 0.577 0.577
vn -0.577 -0.577 -0.577
vn -0.577 -0.577 -0.577
vn 0.577 0.577 0.577
vn 0.577 0.577 0.577
vn 0.577 0.577 0.577
vn 0.577 0.577 0.577
vn -0.577 -0.577 -0.577
vn 0.577 0.577 0.577
vn 0.577 0.577 0.577
vn 0.577 0.577 0.577
vn 0.577 0.577 0.577
vn -0.577 -0.577 -0.577
vn 0.577 0.577 0.577
vn -0.577 -0.577 -0.577
vn -0.577 -0.577 -0.577
vn -0.577 -0.577 -0.577
vn 0.577 0.577 0.577
vn -0.577 -0.577 -0.577
vn 0.577 0.577 0.577
vn -0.577 -0.577 -0.577
vn 0.577 0.577 0.577
vn 0.577 0.577 0.577
vn 0.577 0.577 0.577
vn 0.577 0.577 0.577
vn 0.577 0.577 0.577
vn 0.577 0.577 0.577
vn 0.577 0.577 0.577
vn 0.577 0.577 0.577
vn -0.577 -0.577 -0.577
vn -0.577 -0.577 -0.577
vn 0.577 0.577 0.577
vn 0.577 0.577 0.577
vn 0.577 0.577 0.577
vn 0.577 0.577 0.577
vn 0.577 0.577 0.577
vn -0.577 -0.577 -0.577
vn -0.577 -0.577 -0.577
vn -0.577 -0.577 -0.577
vn -0.577 -0.577 -0.577
vn 0.577 0.577 0.577
vn -0.577 -0.577 -0.577
vn -0.577 -0.577 -0.577
vn -0.577 -0.577 -0.577
vn -0.577 -0.577 -0.577
vn -0.577 -0.577 -0.577
vn 0.577 0.577 0.577
vn -0.577 -0.577 -0.577
vn 0.577 0.577 0.577
vn -0.577 -0.577 -0.577
vn -0.577 -0.577 -0.577
vn -0.577 -0.577 -0.577
vn -0.577 -0.577 -0.577
vn -0.577 -0.577 -0.577
vn -0.577 -0.577 -0.577
vn -0.577 -0.577 -0.577
vn -0.577 -0.577 -0.577
vn -0.577 -0.577 -0.577
vn -0.577 -0.577 -0.577
vn -0.577 -0.577 -0.577
vn -0.577 -0.577 -0.577
vn -0.577 -0.577 -0.577
vn -0.577 -0.577 -0.577
vn -0.577 -0.577 -0.577
vn -0.577 -0.577 -0.577
vn -0.577 -0.577 -0.577
vn -0.577 -0.577 -0.577
vn -0.577 -0.577 -0.577
vn -0.577 -0.577 -0.577
vn -0.577 -0.577 -0.577
vn -0.577 -0.577 -0.577
vn -0.577 -0.577 -0.577
vn -0.577 -0.577 -0.577
vn -0.577 -0.577 -0.577
vn -0.577 -0.577 -0.577
vn -0.577 -0.577 -0.577
vn -0.577 -0.577 -0.577
vn -0.577 -0.577 -0.577
vn -0.577 -0.577 -0.577
vn -0.577 -0.577 -0.577
vn -0.577 -0.577 -0.577
vn -0.577 -0.577 -0.577
vn -0.577 -0.577 -0.577
vn -0.577 -0.577 -0.577
vn -0.577 -0.577 -0.577
vn -0.577 -0.577 -0.577
vn -0.577 -0.577 -0.577
vn 0.577 0.577 0.577
vn 0.577 0.577 0.577
vn -0.577 -0.577 -0.577
vn -0.577 -0.577 -0.577
vn -0.577 -0.577 -0.577
vn -0.577 -0.577 -0.577
vn -0.577 -0.577 -0.577
vn -0.577 -0.577 -0.577
vn -0.577 -0.577 -0.577
vn -0.577 -0.577 -0.577
vn 0.577 0.577 0.577
vn -0.577 -0.577 -0.577
vn -0.577 -0.577 -0.577
vn -0.577 -0.577 -0.577
vn -0.577 -0.577 -0.577
vn 0.577 0.577 0.577
vn 0.577 0.577 0.577
vn -0.577 -0.577 -0.577
vn -0.577 -0.577 -0.577
vn -0.577 -0.577 -0.577
vn -0.577 -0.577 -0.577
vn -0.577 -0.577 -0.577
vn -0.577 -0.577 -0.577
vn -0.577 -0.577 -0.577
vn -0.577 -0.577 -0.577
vn -0.577 -0.577 -0.577
vn -0.577 -0.577 -0.577
vn -0.577 -0.577 -0.577
vn -0.577 -0.577 -0.577
vn -0.577 -0.577 -0.577
vn -0.577 -0.577 -0.577
vn -0.577 -0.577 -0.577
vn -0.577 -0.577 -0.577
vn 0.577 0.577 0.577
vn -0.577 -0.577 -0.577
vn -0.577 -0.577 -0.577
vn -0.577 -0.577 -0.577
vn -0.577 -0.577 -0.577
vn -0.577 -0.577 -0.577
vn -0.577 -0.577 -0.577
vn 0.577 0.577 0.577
vn -0.577 -0.577 -0.577
vn -0.577 -0.577 -0.577
vn 0.577 0.577 0.577
vn -0.577 -0.577 -0.577
vn -0.577 -0.577 -0.577
vn -0.577 -0.577 -0.577
vn -0.577 -0.577 -0.577
vn 0.577 0.577 0.577
vn -0.577 -0.577 -0.577
vn -0.577 -0.577 -0.577
vn -0.577 -0.577 -0.577
vn -0.577 -0.577 -0.577
vn -0.577 -0.577 -0.577
vn 0.577 0.577 0.577
vn -0.577 -0.577 -0.577
vn -0.577 -0.577 -0.577
vn -0.577 -0.577 -0.577
vn -0.577 -0.577 -0.577
vn 0.577 0.577 0.577
vn -0.577 -0.577 -0.577
vn -0.577 -0.577 -0.577
vn -0.577 -0.577 -0.577
vn -0.577 -0.577 -0.577
vn -0.577 -0.577 -0.577
vn -0.577 -0.577 -0.577
vn -0.577 -0.577 -0.577
vn -0.577 -0.577 -0.577
vn -0.577 -0.577 -0.577
vn -0.577 -0.577 -0.577
vn -0.577 -0.577 -0.577
vn -0.577 -0.577 -0.577
vn -0.577 -0.577 -0.577
vn -0.577 -0.577 -0.577
vn -0.577 -0.577 -0.577
vn -0.577 -0.577 -0.577
vn -0.577 -0.577 -0.577
vn -0.577 -0.577 -0.577
vn -0.577 -0.577 -0.577
vn -0.577 -0.577 -0.577
vn -0.577 -0.577 -0.577
vn -0.577 -0.577 -0.577
vn -0.577 -0.577 -0.577
vn -0.577 -0.577 -0.577
vn -0.577 -0.577 -0.577
vn -0.577 -0.577 -0.577
vn -0.577 -0.577 -0.577
vn -0.577 -0.577 -0.577
vn -0.577 -0.577 -0.577
vn -0.577 -0.577 -0.577
vn -0.577 -0.577 -0.577
vn -0.577 -0.577 -0.577
vn -0.577 -0.577 -0.577
vn -0.577 -0.577 -0.577
vn -0.577 -0.577 -0.577
vn -0.577 -0.577 -0.577
vn -0.577 -0.577 -0.577
vn -0.577 -0.577 -0.577
vn 0.577 0.577 0.577
vn -0.577 -0.577 -0.577
vn -0.577 -0.577 -0.577
vn -0.577 -0.577 -0.577
vn -0.577 -0.577 -0.577
vn -0.577 -0.577 -0.577
vn -0.577 -0.577 -0.577
vn -0.577 -0.577 -0.577
vn -0.577 -0.577 -0.577
vn 0.577 0.577 0.577
vn 0.577 0.577 0.577
vn -0.577 -0.577 -0.577
vn -0.577 -0.577 -0.577
vn -0.577 -0.577 -0.577
vn 0.577 0.577 0.577
vn -0.577 -0.577 -0.577
vn -0.577 -0.577 -0.577
vn -0.577 -0.577 -0.577
vn -0.577 -0.577 -0.577
vn -0.577 -0.577 -0.577
vn -0.577 -0.577 -0.577
vn -0.577 -0.577 -0.577
vn -0.577 -0.577 -0.577
vn -0.577 -0.577 -0.577
vn -0.577 -0.577 -0.577
vn -0.577 -0.577 -0.577
vn -0.577 -0.577 -0.577
vn -0.577 -0.577 -0.577
vn -0.577 -0.577 -0.577
vn -0.577 -0.577 -0.577
vn -0.577 -0.577 -0.577
vn -0.577 -0.577 -0.577
vn 0.577 0.577 0.577
vn -0.577 -0.577 -0.577
vn -0.577 -0.577 -0.577
vn -0.577 -0.577 -0.577
vn -0.577 -0.577 -0.577
vn -0.577 -0.577 -0.577
vn -0.577 -0.577 -0.577
vn 0.577 0.577 0.577
vn -0.577 -0.577 -0.577
vn -0.577 -0.577 -0.577
vn 0.577 0.577 0.577
vn -0.577 -0.577 -0.577
vn -0.577 -0.577 -0.577
vn -0.577 -0.577 -0.577
vn 0.577 0.577 0.577
vn -0.577 -0.577 -0.577
vn -0.577 -0.577 -0.577
vn -0.577 -0.577 -0.577
vn -0.577 -0.577 -0.577
vn -0.577 -0.577 -0.577
vn -0.577 -0.577 -0.577
vn 0.577 0.577 0.577
vn -0.577 -0.577 -0.577
vn -0.577 -0.577 -0.577
vn -0.577 -0.577 -0.577
vn -0.577 -0.577 -0.577
vn 0.577 0.577 0.577
vn 0.577 0.577 0.577
vn -0.577 -0.577 -0.577
vn -0.577 -0.577 -0.577
vn -0.577 -0.577 -0.577
vn -0.577 -0.577 -0.577
vn -0.577 -0.577 -0.577
vn -0.577 -0.577 -0.577
vn -0.577 -0.577 -0.577
vn -0.577 -0.577 -0.577
vn -0.577 -0.577 -0.577
vn -0.577 -0.577 -0.577
vn -0.577 -0.577 -0.577
vn -0.577 -0.577 -0.577
vn -0.577 -0.577 -0.577
vn -0.577 -0.577 -0.577
vn -0.577 -0.577 -0.577
vn -0.577 -0.577 -0.577
vn -0.577 -0.577 -0.577
vn -0.577 -0.577 -0.577
vn -0.577 -0.577 -0.577
vn -0.577 -0.577 -0.577
vn -0.577 -0.577 -0.577
vn -0.577 -0.577 -0.577
vn -0.577 -0.577 -0.577
vn -0.577 -0.577 -0.577
vn -0.577 -0.577 -0.577
vn 0.577 0.577 0.577
vn -0.577 -0.577 -0.577
vn -0.577 -0.577 -0.577
vn -0.577 -0.577 -0.577
vn -0.577 -0.577 -0.577
vn -0.577 -0.577 -0.577
vn -0.577 -0.577 -0.577
vn -0.577 -0.577 -0.577
vn -0.577 -0.577 -0.577
vn -0.577 -0.577 -0.577
vn -0.577 -0.577 -0.577
vn -0.577 -0.577 -0.577
vn -0.577 -0.577 -0.577
vn -0.577 -0.577 -0.577
vn -0.577 -0.577 -0.577
vn 0.577 0.577 0.577
vn 0.577 0.577 0.577
vn -0.577 -0.577 -0.577
vn 0.577 0.577 0.577
vn 0.577 0.577 0.577
vn -0.577 -0.577 -0.577
vn -0.577 -0.577 -0.577
vn 0.577 0.577 0.577
vn -0.577 -0.577 -0.577
vn -0.577 -0.577 -0.577
vn -0.577 -0.577 -0.577
vn -0.577 -0.577 -0.577
vn -0.577 -0.577 -0.577
vn -0.577 -0.577 -0.577
vn -0.577 -0.577 -0.577
vn -0.577 -0.577 -0.577
vn -0.577 -0.577 -0.577
vn -0.577 -0.577 -0.577
vn -0.577 -0.577 -0.577
vn 0.577 0.577 0.577
vn -0.577 -0.577 -0.577
vn -0.577 -0.577 -0.577
vn -0.577 -0.577 -0.577
vn -0.577 -0.577 -0.577
vn -0.577 -0.577 -0.577
vn -0.577 -0.577 -0.577
vn -0.577 -0.577 -0.577
vn -0.577 -0.577 -0.577
vn -0.577 -0.577 -0.577
vn 0.577 0.577 0.577
vn 0.577 0.577 0.577
vn -0.577 -0.577 -0.577
vn -0.577 -0.577 -0.577
vn -0.577 -0.577 -0.577
vn -0.577 -0.577 -0.577
vn 0.577 0.577 0.577
vn 0.577 0.577 0.577
vn 0.577 0.577 0.577
vn -0.577 -0.577 -0.577
vn -0.577 -0.577 -0.577
vn 0.577 0.577 0.577
vn -0.577 -0.577 -0.577
vn -0.577 -0.577 -0.577
vn 0.577 0.577 0.577
vn 0.577 0.577 0.577
vn 0.577 0.577 0.577
vn -0.577 -0.577 -0.577
vn -0.577 -0.577 -0.577
vn 0.577 0.577 0.577
vn -0.577 -0.577 -0.577
vn -0.577 -0.577 -0.577
vn 0.577 0.577 0.577
vn 0.577 0.577 0.577
vn -0.577 -0.577 -0.577
vn -0.577 -0.577 -0.577
vn -0.577 -0.577 -0.577
vn -0.577 -0.577 -0.577
vn -0.577 -0.577 -0.577
vn -0.577 -0.577 -0.577
vn -0.577 -0.577 -0.577
vn -0.577 -0.577 -0.577
vn -0.577 -0.577 -0.577
vn -0.577 -0.577 -0.577
vn -0.577 -0.577 -0.577
vn -0.577 -0.577 -0.577
vn -0.577 -0.577 -0.577
vn -0.577 -0.577 -0.577
vn -0.577 -0.577 -0.577
vn -0.577 -0.577 -0.577
vn -0.577 -0.577 -0.577
vn -0.577 -0.577 -0.577
vn -0.577 -0.577 -0.577
vn -0.577 -0.577 -0.577
vn -0.577 -0.577 -0.577
vn -0.577 -0.577 -0.577
vn -0.577 -0.577 -0.577
vn -0.577 -0.577 -0.577
vn -0.577 -0.577 -0.577
vn -0.577 -0.577 -0.577
vn 0.577 0.577 0.577
vn 0.577 0.577 0.577
vn -0.577 -0.577 -0.577
vn -0.577 -0.577 -0.577
vn -0.577 -0.577 -0.577
vn -0.577 -0.577 -0.577
vn -0.577 -0.577 -0.577
vn 0.577 0.577 0.577
vn 0.577 0.577 0.577
vn -0.577 -0.577 -0.577
vn -0.577 -0.577 -0.577
vn -0.577 -0.577 -0.577
vn 0.577 0.577 0.577
vn 0.577 0.577 0.577
vn 0.577 0.577 0.577
vn 0.577 0.577 0.577
vn -0.577 -0.577 -0.577
vn -0.577 -0.577 -0.577
vn -0.577 -0.577 -0.577
vn -0.577 -0.577 -0.577
vn -0.577 -0.577 -0.577
vn -0.577 -0.577 -0.577
vn -0.577 -0.577 -0.577
vn -0.577 -0.577 -0.577
vn -0.577 -0.577 -0.577
vn -0.577 -0.577 -0.577
vn -0.577 -0.577 -0.577
vn -0.577 -0.577 -0.577
vn -0.577 -0.577 -0.577
vn -0.577 -0.577 -0.577
vn -0.577 -0.577 -0.577
vn -0.577 -0.577 -0.577
vn -0.577 -0.577 -0.577
vn -0.577 -0.577 -0.577
vn -0.577 -0.577 -0.577
vn -0.577 -0.577 -0.577
vn -0.577 -0.577 -0.577
vn -0.577 -0.577 -0.577
vn -0.577 -0.577 -0.577
vn -0.577 -0.577 -0.577
vn -0.577 -0.577 -0.577
vn -0.577 -0.577 -0.577
vn -0.577 -0.577 -0.577
vn -0.577 -0.577 -0.577
usemtl tex_1785_lit_w10
f 1/1/1 2/2/2 3/3/3
f 3/3/3 2/2/2 4/4/4
f 3/3/3 5/5/5 6/6/6
f 7/7/7 8/8/8 4/4/4
f 1/1/1 9/9/9 7/7/7
f 2/2/2 1/1/1 7/7/7
f 7/7/7 10/10/10 8/8/8
f 1/1/1 6/6/6 9/9/9
f 3/3/3 6/6/6 1/1/1
f 7/7/7 4/4/4 2/2/2
usemtl tex_1786_lit_w01
f 11/11/11 12/12/12 13/13/13
f 13/13/13 12/12/12 14/14/14
f 13/13/13 15/15/15 16/16/16
f 11/11/11 13/13/13 16/16/16
usemtl tex_1680_lit_w01
f 17/17/17 18/18/18 19/19/19
f 17/17/17 20/20/20 18/18/18
f 20/20/20 21/21/21 18/18/18
f 22/22/22 23/23/23 24/24/24
f 21/21/21 22/22/22 24/24/24
f 23/23/23 22/22/22 19/19/19
f 18/18/18 21/21/21 24/24/24
f 22/22/22 17/17/17 19/19/19
usemtl tex_1785_lit_w10
f 25/25/25 26/26/26 31/9/31
f 25/25/25 31/9/31 32/6/32
f 27/27/27 28/28/28 33/7/33
f 26/26/26 27/27/27 31/9/31
f 27/27/27 33/7/33 31/9/31
f 28/28/28 34/10/34 33/7/33
usemtl tex_1786_lit_w01
f 29/29/29 35/16/35 36/15/36
f 30/30/30 29/29/29 36/15/36
usemtl tex_1680_lit_w01
f 41/23/41 37/31/37 42/24/42
f 38/32/38 39/33/39 43/18/43
f 41/23/41 40/34/40 37/31/37
f 42/24/42 37/31/37 38/32/38
f 43/18/43 39/33/39 44/19/44
f 44/19/44 39/33/39 40/34/40
f 44/19/44 40/34/40 41/23/41
f 42/24/42 38/32/38 43/18/43
f 45/35/45 46/36/46 47/37/47
f 48/38/48 49/39/49 50/40/50
f 45/35/45 51/41/51 46/36/46
f 47/37/47 46/36/46 48/38/48
f 50/40/50 49/39/49 52/42/52
f 52/42/52 49/39/49 51/41/51
f 52/42/52 51/41/51 45/35/45
f 47/37/47 48/38/48 50/40/50
f 50/40/50 52/42/52 45/35/45
f 50/40/50 45/35/45 47/37/47
f 53/39/53 48/38/48 54/36/54
f 53/39/53 54/36/54 55/41/55
f 56/43/56 57/44/57 58/45/58
f 58/45/58 57/44/57 59/46/59
f 58/45/58 59/46/59 60/47/60
f 60/47/60 59/46/59 61/48/61
f 60/47/60 61/48/61 62/49/62
f 63/50/63 61/48/61 62/49/62
f 64/51/64 63/50/63 62/49/62
f 56/43/56 63/50/63 64/51/64
f 65/52/65 56/43/56 64/51/64
f 57/44/57 56/43/56 65/52/65
f 66/53/66 67/54/67 68/55/68
f 69/56/69 67/54/67 70/57/70
f 71/58/71 72/59/72 73/60/73
f 74/56/74 75/57/75 71/58/71
f 72/59/72 76/53/76 77/55/77
f 76/53/76 75/57/75 78/54/78
f 72/59/72 77/55/77 73/60/73
f 74/56/74 71/58/71 73/60/73
usemtl tex_1672_lit_w01
f 79/61/79 80/62/80 86/63/86
f 79/61/79 86/63/86 87/64/87
usemtl tex_1676_lit_w01
f 81/65/81 88/66/88 82/67/82
f 89/68/89 81/65/81 90/69/90
f 81/65/81 89/68/89 88/66/88
f 81/65/81 83/70/83 90/69/90
f 83/70/83 91/71/91 90/69/90
usemtl tex_1675_lit_w01
f 84/72/84 85/73/85 92/74/92
f 85/73/85 93/75/93 92/74/92
f 96/75/96 94/76/94 97/77/97
f 96/75/96 95/73/95 94/76/94
usemtl tex_1680_lit_w01
f 102/32/102 98/58/98 103/33/103
f 102/32/102 99/59/99 98/58/98
f 104/31/104 99/59/99 102/32/102
f 103/33/103 98/58/98 100/57/100
f 103/33/103 100/57/100 105/34/105
f 105/34/105 100/57/100 101/53/101
f 105/34/105 101/53/101 104/31/104
f 104/31/104 101/53/101 99/59/99
f 106/36/106 107/78/107 108/79/108
f 109/80/109 107/78/107 110/41/110
f 111/39/111 112/38/112 113/81/113
f 109/80/109 110/41/110 111/39/111
f 112/38/112 106/36/106 108/79/108
f 106/36/106 110/41/110 107/78/107
f 112/38/112 108/79/108 113/81/113
f 109/80/109 111/39/111 113/81/113
f 114/81/114 115/79/115 116/78/116
f 114/81/114 116/78/116 117/80/117
f 118/36/118 112/38/112 119/39/119
f 118/36/118 119/39/119 120/41/120
usemtl tex_1785_lit_w10
f 121/82/121 122/83/122 123/84/123
f 124/85/124 122/83/122 121/82/121
f 125/86/125 126/87/126 121/82/121
f 124/85/124 127/88/127 128/89/128
f 128/89/128 129/90/129 123/84/123
f 128/89/128 123/84/123 122/83/122
f 127/88/127 130/91/130 128/89/128
f 129/90/129 125/86/125 123/84/123
f 123/84/123 125/86/125 121/82/121
f 122/83/122 124/85/124 128/89/128
usemtl tex_1786_lit_w01
f 131/92/131 132/93/132 133/94/133
f 134/95/134 132/93/132 131/92/131
f 131/92/131 133/94/133 135/96/135
f 136/97/136 131/92/131 135/96/135
usemtl tex_1678_lit_w01
f 137/98/137 138/99/138 139/100/139
f 140/101/140 137/98/137 139/100/139
f 141/102/141 140/101/140 139/100/139
f 141/102/141 139/100/139 142/103/142
f 141/102/141 142/103/142 143/104/143
f 144/105/144 141/102/141 143/104/143
f 137/98/137 144/105/144 143/104/143
f 138/99/138 137/98/137 143/104/143
usemtl tex_1785_lit_w10
f 151/90/151 145/106/145 146/107/146
f 152/86/152 151/90/151 146/107/146
f 147/108/147 153/89/153 154/109/154
f 147/108/147 148/110/148 153/89/153
f 151/90/151 148/110/148 145/106/145
f 151/90/151 153/89/153 148/110/148
usemtl tex_1786_lit_w01
f 155/96/155 149/111/149 150/112/150
f 150/112/150 156/113/156 155/96/155
f 157/97/157 155/96/155 150/112/150
f 155/96/155 150/112/150 156/113/156
usemtl tex_1678_lit_w01
f 162/104/162 158/114/158 163/99/163
f 159/115/159 158/114/158 162/104/162
f 164/103/164 159/115/159 162/104/162
f 160/116/160 159/115/159 164/103/164
f 165/100/165 160/116/160 164/103/164
f 161/117/161 160/116/160 165/100/165
f 163/99/163 161/117/161 165/100/165
f 158/114/158 161/117/161 163/99/163
f 166/118/166 167/119/167 168/120/168
f 169/121/169 170/122/170 171/123/171
f 167/119/167 172/124/172 168/120/168
f 171/123/171 167/119/167 166/118/166
f 173/125/173 170/122/170 169/121/169
f 172/124/172 170/122/170 173/125/173
f 168/120/168 172/124/172 173/125/173
f 169/121/169 171/123/171 166/118/166
f 166/118/166 168/120/168 173/125/173
f 166/118/166 173/125/173 169/121/169
f 174/124/174 175/119/175 171/123/171
f 174/124/174 171/123/171 176/122/176
usemtl tex_1680_lit_w01
f 177/126/177 178/127/178 179/128/179
f 180/129/180 178/127/178 177/126/177
f 181/49/181 180/129/180 177/126/177
f 182/130/182 180/129/180 181/49/181
f 183/48/183 182/130/182 181/49/181
f 184/131/184 182/130/182 183/48/183
f 185/132/185 184/131/184 183/48/183
f 178/127/178 184/131/184 185/132/185
f 186/133/186 178/127/178 185/132/185
f 179/128/179 178/127/178 186/133/186
usemtl tex_1678_lit_w01
f 187/134/187 188/135/188 189/136/189
f 190/137/190 188/135/188 191/138/191
f 192/139/192 190/137/190 191/138/191
f 193/134/193 194/136/194 195/140/195
f 195/140/195 196/139/196 197/141/197
f 196/139/196 198/138/198 197/141/197
f 197/141/197 193/134/193 195/140/195
f 199/135/199 200/137/200 194/136/194
usemtl tex_1672_lit_w01
f 208/63/208 201/62/201 202/61/202
f 208/63/208 202/61/202 209/64/209
usemtl tex_1676_lit_w01
f 203/142/203 210/143/210 211/144/211
f 210/143/210 203/142/203 204/145/204
f 210/143/210 204/145/204 212/146/212
f 205/70/205 211/144/211 213/71/213
f 205/70/205 203/142/203 211/144/211
usemtl tex_1675_lit_w01
f 206/147/206 207/148/207 214/149/214
f 206/147/206 214/149/214 215/150/215
f 216/148/216 217/72/217 218/74/218
f 216/148/216 218/74/218 219/149/219
usemtl tex_1678_lit_w01
f 224/115/224 220/140/220 225/114/225
f 221/139/221 220/140/220 224/115/224
f 226/116/226 221/139/221 224/115/224
f 222/137/222 221/139/221 226/116/226
f 227/117/227 222/137/222 226/116/226
f 223/136/223 222/137/222 227/117/227
f 225/114/225 223/136/223 227/117/227
f 220/140/220 223/136/223 225/114/225
f 228/151/228 229/152/229 230/119/230
f 231/124/231 229/152/229 232/153/232
f 233/154/233 234/123/234 235/122/235
f 235/122/235 231/124/231 232/153/232
f 228/151/228 230/119/230 234/123/234
f 229/152/229 231/124/231 230/119/230
f 233/154/233 228/151/228 234/123/234
f 233/154/233 235/122/235 232/153/232
usemtl tex_1678_lit_w01_ovl
f 236/153/236 237/152/237 238/151/238
f 236/153/236 238/151/238 239/154/239
usemtl tex_1678_lit_w01
f 240/124/240 241/122/241 234/123/234
f 240/124/240 234/123/234 242/119/242
usemtl tex_1781_lit
f 243/155/243 248/156/248 249/157/249
f 250/158/250 244/159/244 245/160/245
f 244/159/244 251/161/251 243/155/243
f 251/161/251 248/156/248 243/155/243
f 246/77/246 243/155/243 249/157/249
f 246/77/246 249/157/249 252/162/252
f 246/77/246 252/162/252 247/163/247
f 252/162/252 245/160/245 247/163/247
f 252/162/252 250/158/250 245/160/245
f 244/159/244 250/158/250 251/161/251
usemtl tex_1609_lit
f 253/164/253 254/165/254 255/166/255
f 255/166/255 254/165/254 256/167/256
usemtl tex_1613_lit_w11
f 257/168/257 258/169/258 259/170/259
f 259/170/259 258/169/258 260/171/260
usemtl tex_1616_lit_w11
f 261/172/261 262/173/262 263/174/263
f 263/174/263 262/173/262 264/175/264
usemtl tex_1619_lit_w11
f 265/176/265 266/177/266 267/178/267
f 267/178/267 266/177/266 268/179/268
usemtl tex_1622_lit_w11
f 269/180/269 270/181/270 271/182/271
f 271/182/271 270/181/270 272/183/272
usemtl tex_1672_lit_w01
f 278/184/278 273/185/273 274/186/274
f 274/186/274 275/187/275 279/188/279
f 275/187/275 276/189/276 279/188/279
f 277/190/277 273/185/273 280/191/280
f 276/189/276 277/190/277 281/192/281
f 273/185/273 278/184/278 280/191/280
f 276/189/276 281/192/281 279/188/279
f 278/184/278 274/186/274 279/188/279
f 277/190/277 280/191/280 281/192/281
f 287/189/287 282/193/282 288/190/288
f 283/194/283 282/193/282 287/189/287
f 289/187/289 283/194/283 287/189/287
f 284/195/284 283/194/283 289/187/289
f 290/186/290 284/195/284 289/187/289
f 285/196/285 284/195/284 290/186/290
f 288/190/288 286/197/286 291/185/291
f 282/193/282 286/197/286 288/190/288
f 291/185/291 285/196/285 290/186/290
f 286/197/286 285/196/285 291/185/291
f 292/198/292 293/199/293 294/200/294
f 295/201/295 296/202/296 297/203/297
f 298/204/298 293/199/293 299/205/299
f 297/203/297 298/204/298 300/206/300
f 297/203/297 296/202/296 298/204/298
f 293/199/293 292/198/292 299/205/299
f 301/207/301 295/201/295 297/203/297
f 298/204/298 299/205/299 300/206/300
f 302/208/302 303/209/303 304/210/304
f 302/208/302 304/210/304 305/211/305
f 306/212/306 307/213/307 308/214/308
f 309/215/309 310/216/310 308/214/308
f 311/217/311 312/218/312 313/219/313
f 310/216/310 306/212/306 308/214/308
f 311/217/311 313/219/313 307/213/307
f 307/213/307 313/219/313 314/220/314
f 315/221/315 312/218/312 310/216/310
f 307/213/307 314/220/314 308/214/308
f 312/218/312 315/221/315 313/219/313
f 315/221/315 310/216/310 309/215/309
f 321/212/321 316/222/316 322/213/322
f 322/213/322 316/222/316 317/223/317
f 322/213/322 317/223/317 323/217/323
f 323/217/323 317/223/317 318/224/318
f 323/217/323 318/224/318 324/218/324
f 324/218/324 318/224/318 319/225/319
f 324/218/324 319/225/319 325/216/325
f 325/216/325 319/225/319 320/226/320
f 325/216/325 320/226/320 321/212/321
f 321/212/321 320/226/320 316/222/316
f 331/194/331 326/221/326 332/193/332
f 327/219/327 326/221/326 331/194/331
usemtl tex_1672_lit_w01_ovl
f 333/195/333 327/219/327 331/194/331
usemtl tex_1672_lit_w01
f 328/220/328 327/219/327 333/195/333
f 334/196/334 328/220/328 333/195/333
f 329/214/329 328/220/328 334/196/334
f 332/193/332 326/221/326 335/197/335
f 330/215/330 329/214/329 334/196/334
f 335/197/335 330/215/330 334/196/334
f 326/221/326 330/215/330 335/197/335
f 336/227/336 337/228/337 338/201/338
f 339/199/339 340/229/340 341/200/341
f 340/229/340 342/230/342 341/200/341
f 343/231/343 344/204/344 337/228/337
f 337/228/337 344/204/344 345/202/345
f 339/199/339 343/231/343 340/229/340
f 337/228/337 345/202/345 338/201/338
f 343/231/343 339/199/339 344/204/344
f 342/230/342 340/229/340 343/231/343
f 343/231/343 337/228/337 336/227/336
f 346/232/346 347/209/347 348/233/348
f 346/232/346 348/233/348 349/234/349
usemtl tex_1609_lit
f 350/235/350 351/236/351 352/237/352
f 353/238/353 351/236/351 350/235/350
usemtl tex_1613_lit_w11
f 354/239/354 355/240/355 356/241/356
f 357/242/357 355/240/355 354/239/354
usemtl tex_1616_lit_w11
f 358/243/358 359/244/359 360/245/360
f 361/246/361 359/244/359 358/243/358
usemtl tex_1619_lit_w11
f 362/247/362 363/248/363 364/249/364
f 365/250/365 363/248/363 362/247/362
usemtl tex_1622_lit_w11
f 366/251/366 367/252/367 368/253/368
f 369/254/369 367/252/367 366/251/366
usemtl tex_1672_lit_w01
f 370/255/370 371/256/371 375/257/375
f 376/258/376 372/259/372 370/255/370
f 376/258/376 373/260/373 372/259/372
f 377/261/377 371/256/371 374/262/374
f 378/263/378 374/262/374 373/260/373
f 377/261/377 375/257/375 371/256/371
f 376/258/376 378/263/378 373/260/373
f 376/258/376 370/255/370 375/257/375
f 378/263/378 377/261/377 374/262/374
f 384/262/384 379/264/379 385/260/385
f 385/260/385 379/264/379 380/265/380
f 385/260/385 380/265/380 386/259/386
f 386/259/386 380/265/380 381/266/381
f 386/259/386 381/266/381 387/255/387
f 387/255/387 381/266/381 382/267/382
f 388/256/388 383/268/383 384/262/384
f 384/262/384 383/268/383 379/264/379
f 387/255/387 382/267/382 388/256/388
f 388/256/388 382/267/382 383/268/383
f 389/269/389 390/270/390 391/271/391
f 392/272/392 393/273/393 394/274/394
f 395/275/395 390/270/390 396/276/396
f 397/277/397 396/276/396 392/272/392
f 396/276/396 393/273/393 392/272/392
f 395/275/395 391/271/391 390/270/390
f 392/272/392 394/274/394 398/278/398
f 397/277/397 395/275/395 396/276/396
f 399/232/399 400/209/400 401/279/401
f 399/232/399 401/279/401 402/280/402
f 403/281/403 404/282/404 405/283/405
f 403/281/403 406/284/406 407/285/407
f 408/286/408 409/287/409 410/288/410
f 403/281/403 405/283/405 406/284/406
f 404/282/404 408/286/408 410/288/410
f 411/289/411 408/286/408 404/282/404
f 406/284/406 409/287/409 412/290/412
f 403/281/403 411/289/411 404/282/404
f 408/286/408 412/290/412 409/287/409
f 407/285/407 406/284/406 412/290/412
f 418/282/418 413/291/413 419/283/419
f 414/292/414 413/291/413 418/282/418
f 420/288/420 414/292/414 418/282/418
f 415/293/415 414/292/414 420/288/420
f 421/287/421 415/293/415 420/288/420
f 416/294/416 415/293/415 421/287/421
f 422/284/422 416/294/416 421/287/421
f 417/295/417 416/294/416 422/284/422
f 419/283/419 417/295/417 422/284/422
f 413/291/413 417/295/417 419/283/419
f 428/264/428 423/290/423 429/265/429
f 429/265/429 423/290/423 424/286/424
f 429/265/429 424/286/424 430/266/430
f 430/266/430 424/286/424 425/289/425
f 430/266/430 425/289/425 431/267/431
f 431/267/431 425/289/425 426/281/426
f 432/268/432 423/290/423 428/264/428
f 431/267/431 426/281/426 427/285/427
f 431/267/431 427/285/427 432/268/432
f 432/268/432 427/285/427 423/290/423
f 433/296/433 434/297/434 435/298/435
f 435/298/435 436/299/436 433/296/433
f 437/274/437 435/298/435 434/297/434
f 438/269/438 439/300/439 440/270/440
f 438/269/438 441/301/441 439/300/439
f 435/298/435 442/276/442 436/299/436
f 443/273/443 442/276/442 435/298/435
f 439/300/439 436/299/436 440/270/440
f 437/274/437 443/273/443 435/298/435
f 442/276/442 440/270/440 436/299/436
f 444/232/444 445/209/445 446/279/446
f 444/232/444 446/279/446 447/302/447
usemtl tex_1676_lit_w01
f 448/303/448 449/304/449 450/305/450
f 451/306/451 448/303/448 452/307/452
f 453/308/453 454/309/454 455/310/455
f 452/307/452 448/303/448 450/305/450
f 456/311/456 457/312/457 449/304/449
f 458/313/458 457/312/457 456/311/456
f 459/314/459 460/315/460 461/316/461
f 462/317/462 463/318/463 464/319/464
f 465/320/465 466/303/466 467/306/467
f 465/320/465 467/306/467 464/319/464
f 468/321/468 465/320/465 464/319/464
f 467/306/467 462/317/462 464/319/464
f 468/321/468 469/322/469 470/313/470
f 471/305/471 472/323/472 473/324/473
f 474/304/474 475/312/475 476/325/476
f 468/321/468 470/313/470 465/320/465
f 477/311/477 466/303/466 465/320/465
f 470/313/470 477/311/477 465/320/465
f 466/303/466 477/311/477 474/304/474
f 478/307/478 479/324/479 480/317/480
f 478/307/478 481/305/481 479/324/479
f 482/306/482 478/307/478 480/317/480
usemtl tex_1675_lit_w01
f 483/326/483 484/327/484 485/328/485
f 485/328/485 486/329/486 487/330/487
f 488/331/488 487/330/487 489/332/489
f 490/333/490 491/334/491 492/335/492
f 488/331/488 485/328/485 487/330/487
f 488/331/488 483/326/483 485/328/485
f 493/336/493 494/328/494 495/337/495
f 496/330/496 497/335/497 498/338/498
f 499/329/499 500/333/500 496/330/496
f 501/339/501 502/334/502 503/340/503
f 504/341/504 505/331/505 506/332/506
f 493/336/493 499/329/499 494/328/494
f 506/332/506 496/330/496 498/338/498
f 504/341/504 506/332/506 507/342/507
f 496/330/496 500/333/500 497/335/497
f 499/329/499 503/340/503 500/333/500
f 502/334/502 500/333/500 503/340/503
f 504/341/504 507/342/507 508/343/508
f 506/332/506 498/338/498 507/342/507
usemtl tex_1676_lit_w01
f 509/344/509 517/323/517 510/345/510
f 510/345/510 517/323/517 518/305/518
f 510/345/510 518/305/518 511/346/511
f 511/346/511 518/305/518 519/304/519
f 511/346/511 519/304/519 512/347/512
f 512/347/512 519/304/519 520/325/520
usemtl tex_1675_lit_w01
f 513/348/513 521/338/521 514/349/514
f 514/349/514 522/335/522 515/350/515
f 514/349/514 521/338/521 522/335/522
f 516/351/516 523/342/523 513/348/513
f 513/348/513 523/342/523 521/338/521
f 515/350/515 522/335/522 524/334/524
usemtl tex_1672_lit_w01
f 525/352/525 526/353/526 527/354/527
f 528/355/528 529/279/529 530/356/530
f 526/353/526 531/357/531 527/354/527
f 532/358/532 530/356/530 529/279/529
usemtl tex_1676_lit_w01
f 533/359/533 534/360/534 535/361/535
f 536/362/536 533/359/533 535/361/535
usemtl tex_1675_lit_w01
f 537/363/537 538/364/538 539/365/539
f 540/366/540 541/367/541 542/368/542
f 543/364/543 544/363/544 545/369/545
f 540/366/540 546/370/546 541/367/541
f 547/371/547 548/372/548 549/373/549
f 548/372/548 550/374/550 549/373/549
usemtl tex_1676_lit_w01
f 551/67/551 552/375/552 553/65/553
f 553/65/553 552/375/552 554/376/554
f 553/65/553 554/376/554 555/70/555
f 555/70/555 554/376/554 556/377/556
f 555/70/555 556/377/556 557/142/557
f 557/142/557 556/377/556 558/145/558
f 558/145/558 556/377/556 559/378/559
usemtl tex_1675_lit_w01
f 560/349/560 561/73/561 562/72/562
f 563/76/563 560/349/560 564/350/564
f 561/73/561 560/349/560 563/76/563
f 565/147/565 566/379/566 567/348/567
f 568/148/568 567/348/567 569/72/569
f 567/348/567 570/349/570 569/72/569
f 565/147/565 567/348/567 568/148/568
usemtl tex_1672_lit_w01
f 571/209/571 572/352/572 573/232/573
f 571/209/571 574/353/574 572/352/572
f 575/209/575 576/355/576 577/232/577
f 577/232/577 576/355/576 578/356/578
f 579/279/579 580/380/580 581/232/581
usemtl tex_1672_lit_w01_ovl
f 579/279/579 581/232/581 582/209/582
usemtl tex_1676_lit_w01
f 583/381/583 584/361/584 585/360/585
f 583/381/583 585/360/585 586/382/586
usemtl tex_1675_lit_w01
f 587/367/587 588/383/588 589/384/589
f 590/368/590 587/367/587 589/384/589
f 591/371/591 592/374/592 593/372/593
f 591/371/591 594/373/594 592/374/592
