mtllib CbluewomanZ.mtl
v -233.91940307617188 333.19312500953674 34.0 1.000 1.000 1.000
v -181.91940307617188 366.19312500953674 8.0 1.000 1.000 1.000
v -187.91940307617188 365.19312500953674 -37.0 1.000 1.000 1.000
v -284.9194030761719 366.19312500953674 8.0 1.000 1.000 1.000
v -282.9194030761719 366.19312500953674 -40.0 1.000 1.000 1.000
v -228.91940307617188 365.19312500953674 -49.0 1.000 1.000 1.000
v -228.91940307617188 365.19312500953674 -49.0 1.000 1.000 1.000
v -5.352396011352539 382.83978271484375 42.0 1.000 1.000 1.000
v -50.35239601135254 399.83978271484375 13.0 1.000 1.000 1.000
v 30.64760398864746 387.83978271484375 -37.0 1.000 1.000 1.000
v 47.64760398864746 398.83978271484375 13.0 1.000 1.000 1.000
v -35.35239601135254 388.83978271484375 -36.0 1.000 1.000 1.000
v 355.4684295654297 -43.78319700062275 90.18506002426147 1.000 1.000 1.000
v 231.4684295654297 -29.78319700062275 65.18506002426147 1.000 1.000 1.000
v 352.4684295654297 -45.78319700062275 -15.814939975738525 1.000 1.000 1.000
v 234.4684295654297 -28.78319700062275 -3.8149399757385254 1.000 1.000 1.000
v 328.4684295654297 34.21680299937725 -18.814939975738525 1.000 1.000 1.000
v 352.4684295654297 -45.78319700062275 -15.814939975738525 1.000 1.000 1.000
v 238.4684295654297 12.21680299937725 -2.8149399757385254 1.000 1.000 1.000
v 234.4684295654297 -28.78319700062275 -3.8149399757385254 1.000 1.000 1.000
v 231.4684295654297 -29.78319700062275 65.18506002426147 1.000 1.000 1.000
v 355.4684295654297 -43.78319700062275 90.18506002426147 1.000 1.000 1.000
v 235.4684295654297 14.21680299937725 62.185060024261475 1.000 1.000 1.000
v 331.4684295654297 36.21680299937725 87.18506002426147 1.000 1.000 1.000
v 238.4684295654297 12.21680299937725 -2.8149399757385254 1.000 1.000 1.000
v 235.4684295654297 14.21680299937725 62.185060024261475 1.000 1.000 1.000
v 328.4684295654297 34.21680299937725 -18.814939975738525 1.000 1.000 1.000
v 331.4684295654297 36.21680299937725 87.18506002426147 1.000 1.000 1.000
v 352.4684295654297 -45.78319700062275 -15.814939975738525 1.000 1.000 1.000
v 328.4684295654297 34.21680299937725 -18.814939975738525 1.000 1.000 1.000
v 355.4684295654297 -43.78319700062275 90.18506002426147 1.000 1.000 1.000
v 331.4684295654297 36.21680299937725 87.18506002426147 1.000 1.000 1.000
v 464.5099958181381 274.783447265625 67.66954803466797 1.000 1.000 1.000
v 465.5099958181381 279.783447265625 -27.33045196533203 1.000 1.000 1.000
v 431.5099958181381 359.783447265625 58.66954803466797 1.000 1.000 1.000
v 445.5099958181381 347.783447265625 -30.33045196533203 1.000 1.000 1.000
v 231.4684295654297 -29.78319700062275 65.18506002426147 1.000 1.000 1.000
v 235.4684295654297 14.21680299937725 62.185060024261475 1.000 1.000 1.000
v 238.4684295654297 12.21680299937725 -2.8149399757385254 1.000 1.000 1.000
v 234.4684295654297 -28.78319700062275 -3.8149399757385254 1.000 1.000 1.000
v 399.5099958181381 319.783447265625 -28.33045196533203 1.000 1.000 1.000
v 396.5099958181381 281.783447265625 -23.33045196533203 1.000 1.000 1.000
v 397.5099958181381 354.783447265625 3.6695480346679688 1.000 1.000 1.000
v 396.5099958181381 346.783447265625 -26.33045196533203 1.000 1.000 1.000
v 396.5099958181381 355.783447265625 37.66954803466797 1.000 1.000 1.000
v 392.5099958181381 326.783447265625 58.66954803466797 1.000 1.000 1.000
v 399.5099958181381 278.783447265625 25.66954803466797 1.000 1.000 1.000
v 394.5099958181381 276.783447265625 63.66954803466797 1.000 1.000 1.000
v 465.5099958181381 279.783447265625 -27.33045196533203 1.000 1.000 1.000
v 445.5099958181381 347.783447265625 -30.33045196533203 1.000 1.000 1.000
v 431.5099958181381 359.783447265625 58.66954803466797 1.000 1.000 1.000
v 464.5099958181381 274.783447265625 67.66954803466797 1.000 1.000 1.000
v 207.125443816185 246.40526580810547 -32.0 1.000 1.000 1.000
v 350.125443816185 274.40526580810547 -19.0 1.000 1.000 1.000
v 348.125443816185 270.40526580810547 61.0 1.000 1.000 1.000
v 218.125443816185 236.40526580810547 61.0 1.000 1.000 1.000
v 127.125443816185 293.40526580810547 -38.0 1.000 1.000 1.000
v 104.125443816185 299.40526580810547 4.0 1.000 1.000 1.000
v 167.125443816185 327.40526580810547 64.0 1.000 1.000 1.000
v 303.125443816185 347.40526580810547 35.0 1.000 1.000 1.000
v 108.125443816185 302.40526580810547 35.0 1.000 1.000 1.000
v 357.125443816185 346.40526580810547 -28.0 1.000 1.000 1.000
v -83.91940307617188 192.19312500953674 -35.0 1.000 1.000 1.000
v -87.91940307617188 195.19312500953674 63.0 1.000 1.000 1.000
v -82.91940307617188 256.19312500953674 65.0 1.000 1.000 1.000
v -88.91940307617188 318.19312500953674 27.0 1.000 1.000 1.000
v -89.91940307617188 315.19312500953674 -21.0 1.000 1.000 1.000
v -83.91940307617188 262.19312500953674 -49.0 1.000 1.000 1.000
v 218.125443816185 236.40526580810547 61.0 1.000 1.000 1.000
v 207.125443816185 246.40526580810547 -32.0 1.000 1.000 1.000
v 167.125443816185 327.40526580810547 64.0 1.000 1.000 1.000
v 108.125443816185 302.40526580810547 35.0 1.000 1.000 1.000
v 104.125443816185 299.40526580810547 4.0 1.000 1.000 1.000
v 127.125443816185 293.40526580810547 -38.0 1.000 1.000 1.000
v 350.125443816185 274.40526580810547 -19.0 1.000 1.000 1.000
v 357.125443816185 346.40526580810547 -28.0 1.000 1.000 1.000
v 303.125443816185 347.40526580810547 35.0 1.000 1.000 1.000
v 348.125443816185 270.40526580810547 61.0 1.000 1.000 1.000
v 396.5099958181381 281.783447265625 -23.33045196533203 1.000 1.000 1.000
v 399.5099958181381 278.783447265625 25.66954803466797 1.000 1.000 1.000
v 399.5099958181381 319.783447265625 -28.33045196533203 1.000 1.000 1.000
v 396.5099958181381 346.783447265625 -26.33045196533203 1.000 1.000 1.000
v 397.5099958181381 354.783447265625 3.6695480346679688 1.000 1.000 1.000
v 396.5099958181381 355.783447265625 37.66954803466797 1.000 1.000 1.000
v 392.5099958181381 326.783447265625 58.66954803466797 1.000 1.000 1.000
v 394.5099958181381 276.783447265625 63.66954803466797 1.000 1.000 1.000
v -720.6943041086197 317.92780900001526 -18.0 1.000 1.000 1.000
v -600.6943041086197 324.92780900001526 66.0 1.000 1.000 1.000
v -725.6943041086197 318.92780900001526 88.0 1.000 1.000 1.000
v -600.6943041086197 324.92780900001526 -5.0 1.000 1.000 1.000
v -603.6943041086197 368.92780900001526 -4.0 1.000 1.000 1.000
v -720.6943041086197 317.92780900001526 -18.0 1.000 1.000 1.000
v -691.6943041086197 396.92780900001526 -20.0 1.000 1.000 1.000
v -600.6943041086197 324.92780900001526 -5.0 1.000 1.000 1.000
v -603.6943041086197 370.92780900001526 65.0 1.000 1.000 1.000
v -725.6943041086197 318.92780900001526 88.0 1.000 1.000 1.000
v -600.6943041086197 324.92780900001526 66.0 1.000 1.000 1.000
v -696.6943041086197 396.92780900001526 86.0 1.000 1.000 1.000
v -691.6943041086197 396.92780900001526 -20.0 1.000 1.000 1.000
v -603.6943041086197 370.92780900001526 65.0 1.000 1.000 1.000
v -603.6943041086197 368.92780900001526 -4.0 1.000 1.000 1.000
v -696.6943041086197 396.92780900001526 86.0 1.000 1.000 1.000
v -725.6943041086197 318.92780900001526 88.0 1.000 1.000 1.000
v -691.6943041086197 396.92780900001526 -20.0 1.000 1.000 1.000
v -720.6943041086197 317.92780900001526 -18.0 1.000 1.000 1.000
v -696.6943041086197 396.92780900001526 86.0 1.000 1.000 1.000
v -418.7749010324478 306.7346839904785 -33.0 1.000 1.000 1.000
v -459.7749010324478 292.7346839904785 63.0 1.000 1.000 1.000
v -425.7749010324478 375.7346839904785 56.0 1.000 1.000 1.000
v -437.7749010324478 365.7346839904785 -30.0 1.000 1.000 1.000
v -600.6943041086197 324.92780900001526 66.0 1.000 1.000 1.000
v -603.6943041086197 370.92780900001526 65.0 1.000 1.000 1.000
v -603.6943041086197 368.92780900001526 -4.0 1.000 1.000 1.000
v -600.6943041086197 324.92780900001526 -5.0 1.000 1.000 1.000
v -390.7749010324478 367.7346839904785 49.0 1.000 1.000 1.000
v -391.7749010324478 363.7346839904785 4.0 1.000 1.000 1.000
v -390.7749010324478 358.7346839904785 -29.0 1.000 1.000 1.000
v -389.7749010324478 296.7346839904785 -21.0 1.000 1.000 1.000
v -388.7749010324478 296.7346839904785 9.0 1.000 1.000 1.000
v -388.7749010324478 296.7346839904785 9.0 1.000 1.000 1.000
v -386.7749010324478 294.7346839904785 56.0 1.000 1.000 1.000
v -387.7749010324478 337.7346839904785 54.0 1.000 1.000 1.000
v -389.7749010324478 338.7346839904785 -25.0 1.000 1.000 1.000
v -389.7749010324478 338.7346839904785 -25.0 1.000 1.000 1.000
v -425.7749010324478 375.7346839904785 56.0 1.000 1.000 1.000
v -437.7749010324478 365.7346839904785 -30.0 1.000 1.000 1.000
v -418.7749010324478 306.7346839904785 -33.0 1.000 1.000 1.000
v -459.7749010324478 292.7346839904785 63.0 1.000 1.000 1.000
v -418.7749010324478 306.7346839904785 -33.0 1.000 1.000 1.000
v -341.6669450998306 287.2091751098633 57.0 1.000 1.000 1.000
v -342.6669450998306 292.2091751098633 -21.0 1.000 1.000 1.000
v -199.66694509983063 263.2091751098633 -31.0 1.000 1.000 1.000
v -211.66694509983063 266.2091751098633 59.0 1.000 1.000 1.000
v -100.66694509983063 320.2091751098633 -38.0 1.000 1.000 1.000
v -347.6669450998306 359.2091751098633 -29.0 1.000 1.000 1.000
v -296.6669450998306 363.2091751098633 35.0 1.000 1.000 1.000
v -168.66694509983063 344.2091751098633 64.0 1.000 1.000 1.000
v -95.66694509983063 323.2091751098633 -4.0 1.000 1.000 1.000
v -99.66694509983063 327.2091751098633 36.0 1.000 1.000 1.000
v -372.9194030761719 318.19312500953674 -21.0 1.000 1.000 1.000
v -370.9194030761719 321.19312500953674 27.0 1.000 1.000 1.000
v -373.9194030761719 263.19312500953674 67.0 1.000 1.000 1.000
v -376.9194030761719 197.19312500953674 63.0 1.000 1.000 1.000
v -367.9194030761719 197.19312500953674 -32.0 1.000 1.000 1.000
v -377.9194030761719 268.19312500953674 -52.0 1.000 1.000 1.000
v -95.66694509983063 323.2091751098633 -4.0 1.000 1.000 1.000
v -99.66694509983063 327.2091751098633 36.0 1.000 1.000 1.000
v -168.66694509983063 344.2091751098633 64.0 1.000 1.000 1.000
v -211.66694509983063 266.2091751098633 59.0 1.000 1.000 1.000
v -199.66694509983063 263.2091751098633 -31.0 1.000 1.000 1.000
v -100.66694509983063 320.2091751098633 -38.0 1.000 1.000 1.000
v -342.6669450998306 292.2091751098633 -21.0 1.000 1.000 1.000
v -347.6669450998306 359.2091751098633 -29.0 1.000 1.000 1.000
v -296.6669450998306 363.2091751098633 35.0 1.000 1.000 1.000
v -341.6669450998306 287.2091751098633 57.0 1.000 1.000 1.000
v -389.7749010324478 338.7346839904785 -25.0 1.000 1.000 1.000
v -389.7749010324478 296.7346839904785 -21.0 1.000 1.000 1.000
v -391.7749010324478 363.7346839904785 4.0 1.000 1.000 1.000
v -390.7749010324478 358.7346839904785 -29.0 1.000 1.000 1.000
v -387.7749010324478 337.7346839904785 54.0 1.000 1.000 1.000
v -390.7749010324478 367.7346839904785 49.0 1.000 1.000 1.000
v -388.7749010324478 296.7346839904785 9.0 1.000 1.000 1.000
v -386.7749010324478 294.7346839904785 56.0 1.000 1.000 1.000
v -296.9194030761719 48.19312500953674 136.0 1.000 1.000 1.000
v -301.9194030761719 77.19312500953674 171.0 1.000 1.000 1.000
v -376.9194030761719 96.19312500953674 110.0 1.000 1.000 1.000
v -316.9194030761719 273.19312500953674 100.0 1.000 1.000 1.000
v -230.91940307617188 130.19312500953674 149.0 1.000 1.000 1.000
v -138.91940307617188 273.19312500953674 100.0 1.000 1.000 1.000
v -77.91940307617188 95.19312500953674 110.0 1.000 1.000 1.000
v -87.91940307617188 195.19312500953674 63.0 1.000 1.000 1.000
v -104.91940307617188 130.19312500953674 153.0 1.000 1.000 1.000
v -137.91940307617188 118.19312500953674 179.0 1.000 1.000 1.000
v -159.91940307617188 77.19312500953674 172.0 1.000 1.000 1.000
v -320.9194030761719 94.19312500953674 178.0 1.000 1.000 1.000
v -147.91940307617188 48.19312500953674 137.0 1.000 1.000 1.000
v -284.9194030761719 366.19312500953674 8.0 1.000 1.000 1.000
v -372.9194030761719 318.19312500953674 -21.0 1.000 1.000 1.000
v -370.9194030761719 321.19312500953674 27.0 1.000 1.000 1.000
v -296.9194030761719 48.19312500953674 136.0 1.000 1.000 1.000
v -230.91940307617188 55.19312500953674 144.0 1.000 1.000 1.000
v -301.9194030761719 77.19312500953674 171.0 1.000 1.000 1.000
v -316.9194030761719 273.19312500953674 100.0 1.000 1.000 1.000
v -284.9194030761719 366.19312500953674 8.0 1.000 1.000 1.000
v -370.9194030761719 321.19312500953674 27.0 1.000 1.000 1.000
v -320.9194030761719 94.19312500953674 178.0 1.000 1.000 1.000
v -230.91940307617188 130.19312500953674 149.0 1.000 1.000 1.000
v -77.91940307617188 95.19312500953674 110.0 1.000 1.000 1.000
v -103.91940307617188 64.19312500953674 -1.0 1.000 1.000 1.000
v -87.91940307617188 195.19312500953674 63.0 1.000 1.000 1.000
v -367.9194030761719 130.19312500953674 153.0 1.000 1.000 1.000
v -376.9194030761719 96.19312500953674 110.0 1.000 1.000 1.000
v -376.9194030761719 197.19312500953674 63.0 1.000 1.000 1.000
v -346.9194030761719 62.19312500953674 -1.0 1.000 1.000 1.000
v -77.91940307617188 95.19312500953674 110.0 1.000 1.000 1.000
v -104.91940307617188 130.19312500953674 153.0 1.000 1.000 1.000
v -159.91940307617188 77.19312500953674 172.0 1.000 1.000 1.000
v -230.91940307617188 130.19312500953674 149.0 1.000 1.000 1.000
v -137.91940307617188 118.19312500953674 179.0 1.000 1.000 1.000
v -138.91940307617188 273.19312500953674 100.0 1.000 1.000 1.000
v -103.91940307617188 64.19312500953674 -1.0 1.000 1.000 1.000
v -83.91940307617188 192.19312500953674 -35.0 1.000 1.000 1.000
v -87.91940307617188 195.19312500953674 63.0 1.000 1.000 1.000
v -316.9194030761719 273.19312500953674 100.0 1.000 1.000 1.000
v -233.91940307617188 333.19312500953674 34.0 1.000 1.000 1.000
v -284.9194030761719 366.19312500953674 8.0 1.000 1.000 1.000
v -376.9194030761719 96.19312500953674 110.0 1.000 1.000 1.000
v -376.9194030761719 197.19312500953674 63.0 1.000 1.000 1.000
v -346.9194030761719 62.19312500953674 -1.0 1.000 1.000 1.000
v -159.91940307617188 77.19312500953674 172.0 1.000 1.000 1.000
v -230.91940307617188 55.19312500953674 144.0 1.000 1.000 1.000
v -147.91940307617188 48.19312500953674 137.0 1.000 1.000 1.000
v -88.91940307617188 318.19312500953674 27.0 1.000 1.000 1.000
v -89.91940307617188 315.19312500953674 -21.0 1.000 1.000 1.000
v -181.91940307617188 366.19312500953674 8.0 1.000 1.000 1.000
v -373.9194030761719 263.19312500953674 67.0 1.000 1.000 1.000
v -376.9194030761719 197.19312500953674 63.0 1.000 1.000 1.000
v -316.9194030761719 273.19312500953674 100.0 1.000 1.000 1.000
v -230.91940307617188 130.19312500953674 149.0 1.000 1.000 1.000
v -320.9194030761719 94.19312500953674 178.0 1.000 1.000 1.000
v -367.9194030761719 130.19312500953674 153.0 1.000 1.000 1.000
v -301.9194030761719 77.19312500953674 171.0 1.000 1.000 1.000
v -138.91940307617188 273.19312500953674 100.0 1.000 1.000 1.000
v -233.91940307617188 333.19312500953674 34.0 1.000 1.000 1.000
v -104.91940307617188 130.19312500953674 153.0 1.000 1.000 1.000
v -87.91940307617188 195.19312500953674 63.0 1.000 1.000 1.000
v -138.91940307617188 273.19312500953674 100.0 1.000 1.000 1.000
v -137.91940307617188 118.19312500953674 179.0 1.000 1.000 1.000
v -373.9194030761719 263.19312500953674 67.0 1.000 1.000 1.000
v -316.9194030761719 273.19312500953674 100.0 1.000 1.000 1.000
v -370.9194030761719 321.19312500953674 27.0 1.000 1.000 1.000
v -77.91940307617188 95.19312500953674 110.0 1.000 1.000 1.000
v -147.91940307617188 48.19312500953674 137.0 1.000 1.000 1.000
v -103.91940307617188 64.19312500953674 -1.0 1.000 1.000 1.000
v -159.91940307617188 77.19312500953674 172.0 1.000 1.000 1.000
v -82.91940307617188 256.19312500953674 65.0 1.000 1.000 1.000
v -88.91940307617188 318.19312500953674 27.0 1.000 1.000 1.000
v -181.91940307617188 366.19312500953674 8.0 1.000 1.000 1.000
v -376.9194030761719 197.19312500953674 63.0 1.000 1.000 1.000
v -367.9194030761719 197.19312500953674 -32.0 1.000 1.000 1.000
v -346.9194030761719 62.19312500953674 -1.0 1.000 1.000 1.000
v -316.9194030761719 273.19312500953674 100.0 1.000 1.000 1.000
v -138.91940307617188 273.19312500953674 100.0 1.000 1.000 1.000
v -233.91940307617188 333.19312500953674 34.0 1.000 1.000 1.000
v -377.9194030761719 268.19312500953674 -52.0 1.000 1.000 1.000
v -228.91940307617188 365.19312500953674 -49.0 1.000 1.000 1.000
v -227.91940307617188 197.19312500953674 -80.0 1.000 1.000 1.000
v -349.9194030761719 197.19312500953674 -69.0 1.000 1.000 1.000
v -229.91940307617188 73.19312500953674 -54.0 1.000 1.000 1.000
v -346.9194030761719 62.19312500953674 -1.0 1.000 1.000 1.000
v -83.91940307617188 262.19312500953674 -49.0 1.000 1.000 1.000
v -372.9194030761719 318.19312500953674 -21.0 1.000 1.000 1.000
v -367.9194030761719 197.19312500953674 -32.0 1.000 1.000 1.000
v -101.91940307617188 197.19312500953674 -68.0 1.000 1.000 1.000
v -83.91940307617188 192.19312500953674 -35.0 1.000 1.000 1.000
v -103.91940307617188 64.19312500953674 -1.0 1.000 1.000 1.000
v -83.91940307617188 262.19312500953674 -49.0 1.000 1.000 1.000
v -284.9194030761719 366.19312500953674 8.0 1.000 1.000 1.000
v -282.9194030761719 366.19312500953674 -40.0 1.000 1.000 1.000
v -372.9194030761719 318.19312500953674 -21.0 1.000 1.000 1.000
v -228.91940307617188 365.19312500953674 -49.0 1.000 1.000 1.000
v -367.9194030761719 197.19312500953674 -32.0 1.000 1.000 1.000
v -377.9194030761719 268.19312500953674 -52.0 1.000 1.000 1.000
v -349.9194030761719 197.19312500953674 -69.0 1.000 1.000 1.000
v -187.91940307617188 365.19312500953674 -37.0 1.000 1.000 1.000
v -89.91940307617188 315.19312500953674 -21.0 1.000 1.000 1.000
v -181.91940307617188 366.19312500953674 8.0 1.000 1.000 1.000
v -227.91940307617188 197.19312500953674 -80.0 1.000 1.000 1.000
v -229.91940307617188 73.19312500953674 -54.0 1.000 1.000 1.000
v -114.95715200901031 62.538307189941406 65.0 1.000 1.000 1.000
v -117.95715200901031 72.5383071899414 -14.0 1.000 1.000 1.000
v -39.957152009010315 30.538307189941406 152.0 1.000 1.000 1.000
v -75.95715200901031 36.538307189941406 131.0 1.000 1.000 1.000
v 35.042847990989685 33.538307189941406 138.0 1.000 1.000 1.000
v -0.9571520090103149 28.538307189941406 155.0 1.000 1.000 1.000
v 113.04284799098969 62.538307189941406 66.0 1.000 1.000 1.000
v 70.04284799098969 36.538307189941406 131.0 1.000 1.000 1.000
v 124.04284799098969 71.5383071899414 -14.0 1.000 1.000 1.000
v -346.9194030761719 62.19312500953674 -1.0 1.000 1.000 1.000
v -296.9194030761719 48.19312500953674 136.0 1.000 1.000 1.000
v -230.91940307617188 55.19312500953674 144.0 1.000 1.000 1.000
v -147.91940307617188 48.19312500953674 137.0 1.000 1.000 1.000
v -103.91940307617188 64.19312500953674 -1.0 1.000 1.000 1.000
v 31.042847990989685 77.5383071899414 -41.0 1.000 1.000 1.000
v 124.04284799098969 71.5383071899414 -14.0 1.000 1.000 1.000
v -36.957152009010315 76.5383071899414 -41.0 1.000 1.000 1.000
v -117.95715200901031 72.5383071899414 -14.0 1.000 1.000 1.000
v -103.91940307617188 64.19312500953674 -1.0 1.000 1.000 1.000
v -229.91940307617188 73.19312500953674 -54.0 1.000 1.000 1.000
v -346.9194030761719 62.19312500953674 -1.0 1.000 1.000 1.000
v -950.990852355957 -82.5441484451294 -33.0 1.000 1.000 1.000
v -950.990852355957 -143.5441484451294 -33.0 1.000 1.000 1.000
v -950.990852355957 -13.544148445129395 202.0 1.000 1.000 1.000
v -950.990852355957 -125.5441484451294 202.0 1.000 1.000 1.000
v -927.990852355957 -55.544148445129395 181.0 1.000 1.000 1.000
v -847.990852355957 -85.5441484451294 30.0 1.000 1.000 1.000
v -848.990852355957 -81.5441484451294 -25.0 1.000 1.000 1.000
v -845.990852355957 -133.5441484451294 -26.0 1.000 1.000 1.000
v -916.990852355957 -97.5441484451294 191.0 1.000 1.000 1.000
v -849.990852355957 -124.5441484451294 32.0 1.000 1.000 1.000
v -567.1337356567383 -149.91656255722046 -1.0 1.000 1.000 1.000
v -580.1337356567383 -81.91656255722046 66.0 1.000 1.000 1.000
v -567.1337356567383 -19.91656255722046 -7.0 1.000 1.000 1.000
v -588.1337356567383 -87.91656255722046 -62.0 1.000 1.000 1.000
v -849.990852355957 -124.5441484451294 32.0 1.000 1.000 1.000
v -845.990852355957 -133.5441484451294 -26.0 1.000 1.000 1.000
v -847.990852355957 -85.5441484451294 30.0 1.000 1.000 1.000
v -848.990852355957 -81.5441484451294 -25.0 1.000 1.000 1.000
v -480.1337356567383 -45.91656255722046 -29.0 1.000 1.000 1.000
v -472.1337356567383 -26.91656255722046 2.0 1.000 1.000 1.000
v -470.1337356567383 -63.91656255722046 65.0 1.000 1.000 1.000
v -470.1337356567383 -87.91656255722046 57.0 1.000 1.000 1.000
v -471.1337356567383 -135.91656255722046 10.0 1.000 1.000 1.000
v -473.1337356567383 -138.91656255722046 -43.0 1.000 1.000 1.000
v -477.1337356567383 -113.91656255722046 -46.0 1.000 1.000 1.000
v -478.1337356567383 -78.91656255722046 -39.0 1.000 1.000 1.000
v -567.1337356567383 -19.91656255722046 -7.0 1.000 1.000 1.000
v -580.1337356567383 -81.91656255722046 66.0 1.000 1.000 1.000
v -567.1337356567383 -149.91656255722046 -1.0 1.000 1.000 1.000
v -588.1337356567383 -87.91656255722046 -62.0 1.000 1.000 1.000
v -420.19693756103516 -77.9778823852539 -108.0 1.000 1.000 1.000
v -417.19693756103516 -16.977882385253906 17.0 1.000 1.000 1.000
v -417.19693756103516 29.022117614746094 17.0 1.000 1.000 1.000
v -416.19693756103516 -77.9778823852539 -51.0 1.000 1.000 1.000
v -421.19693756103516 -169.9778823852539 -114.0 1.000 1.000 1.000
v -421.19693756103516 -142.9778823852539 18.0 1.000 1.000 1.000
v -428.19693756103516 -169.9778823852539 149.0 1.000 1.000 1.000
v -424.19693756103516 -84.9778823852539 71.0 1.000 1.000 1.000
v -426.19693756103516 -84.9778823852539 140.0 1.000 1.000 1.000
v 0.0 -175.0 165.0 1.000 1.000 1.000
v -83.0 -104.0 171.0 1.000 1.000 1.000
v 0.0 -104.0 -112.0 1.000 1.000 1.000
v -170.0 -73.0 4.0 1.000 1.000 1.000
v -428.19693756103516 -169.9778823852539 149.0 1.000 1.000 1.000
v -421.19693756103516 -169.9778823852539 -114.0 1.000 1.000 1.000
v -420.19693756103516 -77.9778823852539 -108.0 1.000 1.000 1.000
v -417.19693756103516 29.022117614746094 17.0 1.000 1.000 1.000
v -426.19693756103516 -84.9778823852539 140.0 1.000 1.000 1.000
v -417.19693756103516 -16.977882385253906 17.0 1.000 1.000 1.000
v -416.19693756103516 -77.9778823852539 -51.0 1.000 1.000 1.000
v -424.19693756103516 -84.9778823852539 71.0 1.000 1.000 1.000
v -421.19693756103516 -142.9778823852539 18.0 1.000 1.000 1.000
v -480.1337356567383 -45.91656255722046 -29.0 1.000 1.000 1.000
v -472.1337356567383 -26.91656255722046 2.0 1.000 1.000 1.000
v -470.1337356567383 -63.91656255722046 65.0 1.000 1.000 1.000
v -477.1337356567383 -113.91656255722046 -46.0 1.000 1.000 1.000
v -478.1337356567383 -78.91656255722046 -39.0 1.000 1.000 1.000
v -470.1337356567383 -87.91656255722046 57.0 1.000 1.000 1.000
v -473.1337356567383 -138.91656255722046 -43.0 1.000 1.000 1.000
v -471.1337356567383 -135.91656255722046 10.0 1.000 1.000 1.000
v 959.2518539428711 -17.029990196228027 201.0 1.000 1.000 1.000
v 959.2518539428711 -148.02999019622803 -33.0 1.000 1.000 1.000
v 959.2518539428711 -86.02999019622803 -33.0 1.000 1.000 1.000
v 959.2518539428711 -128.02999019622803 202.0 1.000 1.000 1.000
v 925.2518539428711 -100.02999019622803 191.0 1.000 1.000 1.000
v 935.2518539428711 -59.02999019622803 181.0 1.000 1.000 1.000
v 855.2518539428711 -84.02999019622803 22.0 1.000 1.000 1.000
v 852.2518539428711 -136.02999019622803 -28.0 1.000 1.000 1.000
v 852.2518539428711 -81.02999019622803 -26.0 1.000 1.000 1.000
v 855.2518539428711 -127.02999019622803 31.0 1.000 1.000 1.000
v 598.3234176635742 -93.23597812652588 -62.0 1.000 1.000 1.000
v 574.3234176635742 -21.23597812652588 -9.0 1.000 1.000 1.000
v 588.3234176635742 -85.23597812652588 65.0 1.000 1.000 1.000
v 576.3234176635742 -153.23597812652588 -1.0 1.000 1.000 1.000
v 852.2518539428711 -81.02999019622803 -26.0 1.000 1.000 1.000
v 855.2518539428711 -127.02999019622803 31.0 1.000 1.000 1.000
v 852.2518539428711 -136.02999019622803 -28.0 1.000 1.000 1.000
v 855.2518539428711 -84.02999019622803 22.0 1.000 1.000 1.000
v 484.3234176635742 -114.23597812652588 -46.0 1.000 1.000 1.000
v 483.3234176635742 -136.23597812652588 -43.0 1.000 1.000 1.000
v 480.3234176635742 -139.23597812652588 10.0 1.000 1.000 1.000
v 479.3234176635742 -91.23597812652588 56.0 1.000 1.000 1.000
v 478.3234176635742 -69.23597812652588 64.0 1.000 1.000 1.000
v 480.3234176635742 -28.23597812652588 2.0 1.000 1.000 1.000
v 487.3234176635742 -41.23597812652588 -29.0 1.000 1.000 1.000
v 485.3234176635742 -64.23597812652588 -39.0 1.000 1.000 1.000
v 598.3234176635742 -93.23597812652588 -62.0 1.000 1.000 1.000
v 576.3234176635742 -153.23597812652588 -1.0 1.000 1.000 1.000
v 588.3234176635742 -85.23597812652588 65.0 1.000 1.000 1.000
v 574.3234176635742 -21.23597812652588 -9.0 1.000 1.000 1.000
v 434.01924896240234 -88.95386505126953 139.0 1.000 1.000 1.000
v 428.01924896240234 -20.95386505126953 18.0 1.000 1.000 1.000
v 426.01924896240234 29.04613494873047 18.0 1.000 1.000 1.000
v 432.01924896240234 -87.95386505126953 71.0 1.000 1.000 1.000
v 436.01924896240234 -173.95386505126953 149.0 1.000 1.000 1.000
v 430.01924896240234 -146.95386505126953 18.0 1.000 1.000 1.000
v 429.01924896240234 -173.95386505126953 -114.0 1.000 1.000 1.000
v 431.01924896240234 -91.95386505126953 -49.0 1.000 1.000 1.000
v 430.01924896240234 -79.95386505126953 -108.0 1.000 1.000 1.000
v 83.0 -105.0 170.0 1.000 1.000 1.000
v 0.0 -104.0 -112.0 1.000 1.000 1.000
v 83.0 -105.0 170.0 1.000 1.000 1.000
v 0.0 -175.0 165.0 1.000 1.000 1.000
v 170.0 -73.0 4.0 1.000 1.000 1.000
v 436.01924896240234 -173.95386505126953 149.0 1.000 1.000 1.000
v 434.01924896240234 -88.95386505126953 139.0 1.000 1.000 1.000
v 429.01924896240234 -173.95386505126953 -114.0 1.000 1.000 1.000
v 430.01924896240234 -79.95386505126953 -108.0 1.000 1.000 1.000
v 434.01924896240234 -88.95386505126953 139.0 1.000 1.000 1.000
v 426.01924896240234 29.04613494873047 18.0 1.000 1.000 1.000
v 432.01924896240234 -87.95386505126953 71.0 1.000 1.000 1.000
v 428.01924896240234 -20.95386505126953 18.0 1.000 1.000 1.000
v 431.01924896240234 -91.95386505126953 -49.0 1.000 1.000 1.000
v 430.01924896240234 -146.95386505126953 18.0 1.000 1.000 1.000
v 478.3234176635742 -69.23597812652588 64.0 1.000 1.000 1.000
v 480.3234176635742 -28.23597812652588 2.0 1.000 1.000 1.000
v 487.3234176635742 -41.23597812652588 -29.0 1.000 1.000 1.000
v 485.3234176635742 -64.23597812652588 -39.0 1.000 1.000 1.000
v 484.3234176635742 -114.23597812652588 -46.0 1.000 1.000 1.000
v 479.3234176635742 -91.23597812652588 56.0 1.000 1.000 1.000
v 483.3234176635742 -136.23597812652588 -43.0 1.000 1.000 1.000
v 480.3234176635742 -139.23597812652588 10.0 1.000 1.000 1.000
v -142.0 16.0 -21.0 1.000 1.000 1.000
v -170.0 -73.0 4.0 1.000 1.000 1.000
v -127.0 -10.0 80.0 1.000 1.000 1.000
v 143.0 17.0 -21.0 1.000 1.000 1.000
v 170.0 -73.0 4.0 1.000 1.000 1.000
v 0.0 -104.0 -112.0 1.000 1.000 1.000
v 0.0 22.0 -66.0 1.000 1.000 1.000
v 118.0 -10.0 80.0 1.000 1.000 1.000
v -61.0 -44.0 165.0 1.000 1.000 1.000
v -83.0 -104.0 171.0 1.000 1.000 1.000
v 83.0 -105.0 170.0 1.000 1.000 1.000
v 54.0 -43.0 161.0 1.000 1.000 1.000
v 0.0 -175.0 165.0 1.000 1.000 1.000
v 83.0 -105.0 170.0 1.000 1.000 1.000
v 54.0 -43.0 161.0 1.000 1.000 1.000
v -142.0 16.0 -21.0 1.000 1.000 1.000
v 143.0 17.0 -21.0 1.000 1.000 1.000
v 118.0 -10.0 80.0 1.000 1.000 1.000
v 54.0 -43.0 161.0 1.000 1.000 1.000
v -61.0 -44.0 165.0 1.000 1.000 1.000
v -127.0 -10.0 80.0 1.000 1.000 1.000
v -114.95715200901031 62.538307189941406 65.0 1.000 1.000 1.000
v -117.95715200901031 72.5383071899414 -14.0 1.000 1.000 1.000
v 113.04284799098969 62.538307189941406 66.0 1.000 1.000 1.000
v 124.04284799098969 71.5383071899414 -14.0 1.000 1.000 1.000
v 70.04284799098969 36.538307189941406 131.0 1.000 1.000 1.000
v 35.042847990989685 33.538307189941406 138.0 1.000 1.000 1.000
v -0.9571520090103149 28.538307189941406 155.0 1.000 1.000 1.000
v -39.957152009010315 30.538307189941406 152.0 1.000 1.000 1.000
v -75.95715200901031 36.538307189941406 131.0 1.000 1.000 1.000
v 0.0 22.0 -66.0 1.000 1.000 1.000
v 143.0 17.0 -21.0 1.000 1.000 1.000
v -142.0 16.0 -21.0 1.000 1.000 1.000
v 31.042847990989685 77.5383071899414 -41.0 1.000 1.000 1.000
v -36.957152009010315 76.5383071899414 -41.0 1.000 1.000 1.000
v -117.95715200901031 72.5383071899414 -14.0 1.000 1.000 1.000
v 124.04284799098969 71.5383071899414 -14.0 1.000 1.000 1.000
vt 0.4746 0.5947
vt 0.4248 0.2266
vt 0.1475 0.1338
vt 0.6279 0.1787
vt 0.7559 0.3604
vt 0.7227 0.3662
vt 0.7197 0.1006
vt 0.1533 0.4033
vt 0.2422 0.2031
vt 0.1670 0.4062
vt 0.4814 0.3916
vt 0.4873 0.3916
vt 0.9346 0.9326
vt 0.7168 0.0879
vt 0.0693 0.9717
vt 0.1553 0.1484
vt 0.0459 1.0049
vt 0.9580 0.9678
vt 0.4404 0.2900
vt 0.9248 0.1611
vt 0.8389 0.1660
vt 1.0156 0.8760
vt 0.2871 0.3447
vt 0.0283 1.0127
vt 0.3281 0.0566
vt 0.9082 0.0400
vt 0.0166 0.4727
vt 0.9346 0.4824
vt 1.0264 0.9971
vt 1.0322 0.6211
vt 1.9492 0.9883
vt 1.9541 0.6172
vt 0.4017 0.0811
vt 0.3997 0.1367
vt 0.8965 0.3877
vt 0.9049 0.7861
vt 0.9108 0.7744
vt 0.2812 0.7920
vt 0.3262 0.7070
vt 0.9023 0.4092
vt 0.1641 0.4668
vt 0.1536 0.1465
vt 0.1556 0.7520
vt 0.1530 0.6943
vt 0.1536 0.7559
vt 0.1452 0.5117
vt 0.1680 0.1172
vt 0.1536 0.0947
vt 0.3385 0.2939
vt 0.8092 0.1758
vt 0.8021 0.1514
vt 0.3691 0.2227
vt 0.1484 0.6885
vt 0.1224 0.7285
vt 0.2695 0.7236
vt 0.7090 0.5850
vt 0.1400 0.7354
vt 0.8757 0.4922
vt 0.3301 0.2617
vt 0.3190 0.2471
vt 0.1296 0.3779
vt 0.0007 0.4580
vt 0.0111 0.4482
vt 0.1100 0.3848
vt 0.9583 0.1289
vt 0.9681 0.1055
vt 0.9941 0.2979
vt 1.0026 0.4277
vt 0.8939 0.5215
vt 1.0091 0.4600
vt 0.9811 0.3320
vt 0.9538 0.1006
vt 1.0234 0.8857
vt 1.7529 -0.0234
vt 1.9805 0.8984
vt 1.1201 -0.0059
vt 0.4385 0.1172
vt 0.9434 0.9180
vt 0.0957 0.8496
vt 0.9053 0.0068
vt 0.2158 0.2422
vt 0.9463 0.9287
vt 0.6709 0.0732
vt 0.0898 0.9805
vt 0.0840 0.5508
vt 0.7598 -0.0117
vt 0.1572 0.0342
vt 1.0117 0.5127
vt 0.9668 -0.0127
vt 0.0674 -0.3486
vt 0.0254 0.0146
vt 1.0078 -0.3721
vt 0.9219 0.3643
vt 0.1888 0.2227
vt 0.3594 0.1094
vt 0.9251 0.7393
vt 0.2051 0.7637
vt 0.9277 0.7266
vt 0.9238 0.3652
vt 0.2565 0.6895
vt 0.0645 0.7041
vt 0.0703 0.6699
vt 0.0690 0.6338
vt 0.1719 0.2256
vt 0.1680 0.2275
vt 0.2715 0.3008
vt 0.0697 0.1436
vt 0.0625 0.1260
vt 0.0579 0.4648
vt 0.0664 0.4785
vt 0.1888 0.6104
vt 0.8112 0.1055
vt 0.8164 0.1338
vt 0.3600 0.1377
vt 0.3978 0.1377
vt 0.1257 0.6680
vt 0.8411 0.5586
vt 0.6803 0.6543
vt 0.2747 0.6982
vt 0.1120 0.6943
vt 0.1250 0.7129
vt 0.0299 0.2725
vt 0.0202 0.2627
vt 0.1367 0.1934
vt 0.3431 0.1240
vt 0.3431 0.0664
vt 0.1198 0.2236
vt 0.9694 0.3740
vt 0.8997 0.1250
vt 0.9805 0.5283
vt 0.9779 0.4990
vt 0.9622 0.3662
vt 0.9766 0.5576
vt 0.9603 0.1016
vt 0.9538 0.0898
vt 0.3164 0.5905
vt 0.2998 0.5286
vt 0.0830 0.4883
vt 0.2334 0.2090
vt 0.5039 0.4167
vt 0.7480 0.2109
vt 0.9453 0.4922
vt 0.9150 0.2819
vt 0.8682 0.4173
vt 0.7725 0.4427
vt 0.7090 0.5312
vt 0.2451 0.4928
vt 0.7471 0.5905
vt 0.3936 -0.0026
vt 0.0723 0.0638
vt 0.0781 0.0573
vt 0.5059 0.5749
vt 0.8721 0.5579
vt 0.1074 0.4167
vt 0.0820 0.2741
vt 0.1709 0.5592
vt 0.9268 0.2878
vt 0.5020 0.0827
vt 0.9346 0.0664
vt 0.9326 0.0736
vt 0.6162 -0.0020
vt 0.0879 0.1361
vt 0.9297 0.1530
vt 0.1064 0.2754
vt 0.9189 0.1204
vt 0.5293 0.0091
vt 0.5410 0.2695
vt 0.8516 0.2708
vt 0.5547 0.5358
vt 0.8525 0.5599
vt 0.1719 0.1302
vt 0.9219 0.0586
vt 0.8984 0.2728
vt 0.2227 0.2682
vt 0.1768 0.2793
vt 0.2354 0.5534
vt 0.6357 -0.0111
vt 0.5830 -0.0007
vt 0.4844 -0.0013
vt 0.1650 0.0625
vt 0.4395 -0.0117
vt 0.1816 0.7057
vt 0.1680 0.5592
vt 0.1748 0.6855
vt 0.3145 0.5905
vt 0.3994 0.7734
vt 0.2969 0.7604
vt 0.5039 0.5749
vt 0.6172 0.7695
vt 0.5127 0.7793
vt 0.7451 0.5905
vt 0.8408 0.7077
vt 0.7168 0.7617
vt 0.8701 0.5579
vt 0.8730 0.6882
vt 0.4736 0.6751
vt 0.2373 0.6849
vt 0.6475 0.6771
vt 0.8525 0.6875
vt -0.0143 0.9961
vt 0.0208 0.9922
vt 0.9883 0.8721
vt 0.9147 0.6895
vt 0.3411 0.1104
vt 0.1257 0.1484
vt 0.1217 0.1230
vt 0.9564 0.5996
vt 0.3477 0.1230
vt 0.8945 0.1406
vt 0.6855 0.9863
vt 0.7441 0.9759
vt 0.4629 0.1745
vt 0.4414 0.9792
vt 0.0752 0.1335
vt 0.4150 0.9831
vt 0.5000 0.1999
vt 0.2539 -0.1276
vt 0.1309 -0.1504
vt 0.3691 -0.1556
vt 0.5186 -0.1543
vt 0.8213 -0.1491
vt 0.8408 -0.1419
vt 0.6826 -0.1335
vt 0.4590 -0.1315
vt 0.3623 0.9365
vt 0.2344 0.5322
vt 0.1016 0.5371
vt 0.3848 0.7490
vt 0.6260 0.9424
vt 0.6016 0.5127
vt 0.7314 0.0762
vt 0.4531 0.3438
vt 0.4805 0.1201
vt 2.4766 0.8291
vt 2.4873 0.4189
vt 2.2422 0.3066
vt 1.2705 0.8506
vt 1.4961 0.8467
vt 1.2578 0.3438
vt 1.8477 0.8242
vt 1.7510 0.2783
vt 2.2197 0.8242
vt 0.0811 -0.3177
vt 0.4658 -0.3171
vt 0.5078 -0.2936
vt 0.8760 -0.2988
vt 1.0111 0.8809
vt 0.0352 0.9375
vt -0.0013 0.9395
vt 1.0117 0.8809
vt 0.9701 0.6025
vt 0.9303 0.6914
vt 0.2995 0.0605
vt 0.1048 0.0508
vt 0.1120 0.0508
vt 0.3340 0.0654
vt 0.5283 0.1654
vt 0.1699 0.0938
vt 0.4268 0.8757
vt 0.6572 0.8880
vt 0.4883 0.1367
vt 0.8311 0.1074
vt 0.7041 0.8789
vt 0.4414 0.8828
vt 0.6484 -0.1504
vt 0.7598 -0.1536
vt 0.7725 -0.1595
vt 0.5342 -0.1680
vt 0.4238 -0.1719
vt 0.2188 -0.1680
vt 0.2861 -0.1471
vt 0.4004 -0.1510
vt 0.9756 0.1016
vt 1.1230 0.4922
vt 1.2676 0.4873
vt 0.9502 0.3262
vt 0.7568 0.5049
vt 0.8916 0.7217
vt 0.9004 0.9141
vt 2.7500 0.8281
vt 2.7451 0.3115
vt 1.0293 0.8525
vt 0.2451 0.3115
vt 0.2500 0.8281
vt 0.6523 0.8340
vt 0.7520 0.2842
vt 0.5254 -0.3001
vt 0.1914 -0.3158
vt 0.5439 -0.3021
vt 0.8213 -0.3014
vt 1.6572 0.1426
vt 1.9238 0.1709
vt 0.8447 0.1475
vt 1.2549 0.1416
vt 0.5723 0.1758
vt 2.2812 0.2148
vt 2.6924 0.2168
vt 0.1924 0.2168
vt 0.1074 0.8034
vt 0.9287 0.8040
vt 0.8584 0.8600
vt 0.6729 0.9303
vt 0.3408 0.9310
vt 0.1504 0.8587
vt 0.5576 0.7923
vt 0.1934 0.8014
vt 0.9160 0.8073
vn -0.577 -0.577 -0.577
vn -0.577 -0.577 -0.577
vn -0.577 -0.577 -0.577
vn -0.577 -0.577 -0.577
vn -0.577 -0.577 -0.577
vn -0.577 -0.577 -0.577
vn -0.577 -0.577 -0.577
vn -0.577 -0.577 -0.577
vn -0.577 -0.577 -0.577
vn -0.577 -0.577 -0.577
vn -0.577 -0.577 -0.577
vn -0.577 -0.577 -0.577
vn -0.577 -0.577 -0.577
vn -0.577 -0.577 -0.577
vn -0.577 -0.577 -0.577
vn -0.577 -0.577 -0.577
vn -0.577 -0.577 -0.577
vn -0.577 -0.577 -0.577
vn -0.577 -0.577 -0.577
vn -0.577 -0.577 -0.577
vn -0.577 -0.577 -0.577
vn -0.577 -0.577 -0.577
vn -0.577 -0.577 -0.577
vn -0.577 -0.577 -0.577
vn -0.577 -0.577 -0.577
vn -0.577 -0.577 -0.577
vn -0.577 -0.577 -0.577
vn -0.577 -0.577 -0.577
vn -0.577 -0.577 -0.577
vn -0.577 -0.577 -0.577
vn -0.577 -0.577 -0.577
vn -0.577 -0.577 -0.577
vn -0.577 -0.577 -0.577
vn -0.577 -0.577 -0.577
vn -0.577 -0.577 -0.577
vn -0.577 -0.577 -0.577
vn -0.577 -0.577 -0.577
vn -0.577 -0.577 -0.577
vn -0.577 -0.577 -0.577
vn -0.577 -0.577 -0.577
vn -0.577 -0.577 -0.577
vn -0.577 -0.577 -0.577
vn -0.577 -0.577 -0.577
vn -0.577 -0.577 -0.577
vn -0.577 -0.577 -0.577
vn -0.577 -0.577 -0.577
vn -0.577 -0.577 -0.577
vn -0.577 -0.577 -0.577
vn -0.577 -0.577 -0.577
vn -0.577 -0.577 -0.577
vn -0.577 -0.577 -0.577
vn -0.577 -0.577 -0.577
vn 0.577 0.577 0.577
vn -0.577 -0.577 -0.577
vn -0.577 -0.577 -0.577
vn 0.577 0.577 0.577
vn -0.577 -0.577 -0.577
vn -0.577 -0.577 -0.577
vn -0.577 -0.577 -0.577
vn -0.577 -0.577 -0.577
vn -0.577 -0.577 -0.577
vn -0.577 -0.577 -0.577
vn 0.577 0.577 0.577
vn 0.577 0.577 0.577
vn -0.577 -0.577 -0.577
vn -0.577 -0.577 -0.577
vn -0.577 -0.577 -0.577
vn -0.577 -0.577 -0.577
vn 0.577 0.577 0.577
vn 0.577 0.577 0.577
vn -0.577 -0.577 -0.577
vn -0.577 -0.577 -0.577
vn -0.577 -0.577 -0.577
vn -0.577 -0.577 -0.577
vn -0.577 -0.577 -0.577
vn -0.577 -0.577 -0.577
vn -0.577 -0.577 -0.577
vn -0.577 -0.577 -0.577
vn -0.577 -0.577 -0.577
vn -0.577 -0.577 -0.577
vn -0.577 -0.577 -0.577
vn -0.577 -0.577 -0.577
vn -0.577 -0.577 -0.577
vn -0.577 -0.577 -0.577
vn -0.577 -0.577 -0.577
vn -0.577 -0.577 -0.577
vn -0.577 -0.577 -0.577
vn -0.577 -0.577 -0.577
vn -0.577 -0.577 -0.577
vn -0.577 -0.577 -0.577
vn -0.577 -0.577 -0.577
vn -0.577 -0.577 -0.577
vn -0.577 -0.577 -0.577
vn -0.577 -0.577 -0.577
vn -0.577 -0.577 -0.577
vn -0.577 -0.577 -0.577
vn -0.577 -0.577 -0.577
vn -0.577 -0.577 -0.577
vn -0.577 -0.577 -0.577
vn -0.577 -0.577 -0.577
vn -0.577 -0.577 -0.577
vn -0.577 -0.577 -0.577
vn -0.577 -0.577 -0.577
vn -0.577 -0.577 -0.577
vn -0.577 -0.577 -0.577
vn -0.577 -0.577 -0.577
vn -0.577 -0.577 -0.577
vn -0.577 -0.577 -0.577
vn -0.577 -0.577 -0.577
vn -0.577 -0.577 -0.577
vn -0.577 -0.577 -0.577
vn -0.577 -0.577 -0.577
vn -0.577 -0.577 -0.577
vn -0.577 -0.577 -0.577
vn -0.577 -0.577 -0.577
vn -0.577 -0.577 -0.577
vn -0.577 -0.577 -0.577
vn -0.577 -0.577 -0.577
vn -0.577 -0.577 -0.577
vn -0.577 -0.577 -0.577
vn -0.577 -0.577 -0.577
vn -0.577 -0.577 -0.577
vn -0.577 -0.577 -0.577
vn -0.577 -0.577 -0.577
vn -0.577 -0.577 -0.577
vn -0.577 -0.577 -0.577
vn -0.577 -0.577 -0.577
vn -0.577 -0.577 -0.577
vn -0.577 -0.577 -0.577
vn -0.577 -0.577 -0.577
vn -0.577 -0.577 -0.577
vn 0.577 0.577 0.577
vn 0.577 0.577 0.577
vn -0.577 -0.577 -0.577
vn -0.577 -0.577 -0.577
vn -0.577 -0.577 -0.577
vn -0.577 -0.577 -0.577
vn -0.577 -0.577 -0.577
vn -0.577 -0.577 -0.577
vn -0.577 -0.577 -0.577
vn -0.577 -0.577 -0.577
vn -0.577 -0.577 -0.577
vn 0.577 0.577 0.577
vn -0.577 -0.577 -0.577
vn -0.577 -0.577 -0.577
vn -0.577 -0.577 -0.577
vn -0.577 -0.577 -0.577
vn -0.577 -0.577 -0.577
vn 0.577 0.577 0.577
vn 0.577 0.577 0.577
vn -0.577 -0.577 -0.577
vn -0.577 -0.577 -0.577
vn -0.577 -0.577 -0.577
vn -0.577 -0.577 -0.577
vn -0.577 -0.577 -0.577
vn -0.577 -0.577 -0.577
vn -0.577 -0.577 -0.577
vn -0.577 -0.577 -0.577
vn -0.577 -0.577 -0.577
vn -0.577 -0.577 -0.577
vn -0.577 -0.577 -0.577
vn -0.577 -0.577 -0.577
vn -0.577 -0.577 -0.577
vn -0.577 -0.577 -0.577
vn -0.577 -0.577 -0.577
vn 0.577 0.577 0.577
vn -0.577 -0.577 -0.577
vn -0.577 -0.577 -0.577
vn -0.577 -0.577 -0.577
vn -0.577 -0.577 -0.577
vn 0.577 0.577 0.577
vn -0.577 -0.577 -0.577
vn -0.577 -0.577 -0.577
vn -0.577 -0.577 -0.577
vn -0.577 -0.577 -0.577
vn -0.577 -0.577 -0.577
vn -0.577 -0.577 -0.577
vn -0.577 -0.577 -0.577
vn -0.577 -0.577 -0.577
vn -0.577 -0.577 -0.577
vn -0.577 -0.577 -0.577
vn -0.577 -0.577 -0.577
vn -0.577 -0.577 -0.577
vn -0.577 -0.577 -0.577
vn -0.577 -0.577 -0.577
vn -0.577 -0.577 -0.577
vn -0.577 -0.577 -0.577
vn -0.577 -0.577 -0.577
vn 0.577 0.577 0.577
vn 0.577 0.577 0.577
vn -0.577 -0.577 -0.577
vn 0.577 0.577 0.577
vn 0.577 0.577 0.577
vn 0.577 0.577 0.577
vn -0.577 -0.577 -0.577
vn -0.577 -0.577 -0.577
vn -0.577 -0.577 -0.577
vn -0.577 -0.577 -0.577
vn -0.577 -0.577 -0.577
vn -0.577 -0.577 -0.577
vn 0.577 0.577 0.577
vn 0.577 0.577 0.577
vn 0.577 0.577 0.577
vn -0.577 -0.577 -0.577
vn -0.577 -0.577 -0.577
vn -0.577 -0.577 -0.577
vn 0.577 0.577 0.577
vn 0.577 0.577 0.577
vn 0.577 0.577 0.577
vn -0.577 -0.577 -0.577
vn -0.577 -0.577 -0.577
vn -0.577 -0.577 -0.577
vn -0.577 -0.577 -0.577
vn -0.577 -0.577 -0.577
vn -0.577 -0.577 -0.577
vn -0.577 -0.577 -0.577
vn 0.577 0.577 0.577
vn -0.577 -0.577 -0.577
vn -0.577 -0.577 -0.577
vn -0.577 -0.577 -0.577
vn -0.577 -0.577 -0.577
vn -0.577 -0.577 -0.577
vn -0.577 -0.577 -0.577
vn -0.577 -0.577 -0.577
vn -0.577 -0.577 -0.577
vn 0.577 0.577 0.577
vn -0.577 -0.577 -0.577
vn -0.577 -0.577 -0.577
vn -0.577 -0.577 -0.577
vn -0.577 -0.577 -0.577
vn -0.577 -0.577 -0.577
vn -0.577 -0.577 -0.577
vn -0.577 -0.577 -0.577
vn 0.577 0.577 0.577
vn -0.577 -0.577 -0.577
vn -0.577 -0.577 -0.577
vn -0.577 -0.577 -0.577
vn -0.577 -0.577 -0.577
vn 0.577 0.577 0.577
vn -0.577 -0.577 -0.577
vn 0.577 0.577 0.577
vn -0.577 -0.577 -0.577
vn -0.577 -0.577 -0.577
vn -0.577 -0.577 -0.577
vn -0.577 -0.577 -0.577
vn -0.577 -0.577 -0.577
vn -0.577 -0.577 -0.577
vn -0.577 -0.577 -0.577
vn -0.577 -0.577 -0.577
vn 0.577 0.577 0.577
vn -0.577 -0.577 -0.577
vn -0.577 -0.577 -0.577
vn -0.577 -0.577 -0.577
vn -0.577 -0.577 -0.577
vn 0.577 0.577 0.577
vn 0.577 0.577 0.577
vn -0.577 -0.577 -0.577
vn -0.577 -0.577 -0.577
vn -0.577 -0.577 -0.577
vn -0.577 -0.577 -0.577
vn -0.577 -0.577 -0.577
vn -0.577 -0.577 -0.577
vn -0.577 -0.577 -0.577
vn -0.577 -0.577 -0.577
vn -0.577 -0.577 -0.577
vn -0.577 -0.577 -0.577
vn -0.577 -0.577 -0.577
vn -0.577 -0.577 -0.577
vn -0.577 -0.577 -0.577
vn 0.577 0.577 0.577
vn 0.577 0.577 0.577
vn -0.577 -0.577 -0.577
vn -0.577 -0.577 -0.577
vn -0.577 -0.577 -0.577
vn -0.577 -0.577 -0.577
vn 0.577 0.577 0.577
vn -0.577 -0.577 -0.577
vn -0.577 -0.577 -0.577
vn 0.577 0.577 0.577
vn -0.577 -0.577 -0.577
vn -0.577 -0.577 -0.577
vn -0.577 -0.577 -0.577
vn 0.577 0.577 0.577
vn -0.577 -0.577 -0.577
vn -0.577 -0.577 -0.577
vn -0.577 -0.577 -0.577
vn 0.577 0.577 0.577
vn 0.577 0.577 0.577
vn -0.577 -0.577 -0.577
vn 0.577 0.577 0.577
vn 0.577 0.577 0.577
vn 0.577 0.577 0.577
vn -0.577 -0.577 -0.577
vn -0.577 -0.577 -0.577
vn -0.577 -0.577 -0.577
vn -0.577 -0.577 -0.577
vn -0.577 -0.577 -0.577
vn -0.577 -0.577 -0.577
vn -0.577 -0.577 -0.577
vn -0.577 -0.577 -0.577
vn -0.577 -0.577 -0.577
vn -0.577 -0.577 -0.577
vn -0.577 -0.577 -0.577
vn -0.577 -0.577 -0.577
vn -0.577 -0.577 -0.577
vn -0.577 -0.577 -0.577
vn -0.577 -0.577 -0.577
vn -0.577 -0.577 -0.577
vn -0.577 -0.577 -0.577
vn -0.577 -0.577 -0.577
vn -0.577 -0.577 -0.577
vn -0.577 -0.577 -0.577
vn -0.577 -0.577 -0.577
vn -0.577 -0.577 -0.577
vn -0.577 -0.577 -0.577
vn -0.577 -0.577 -0.577
vn -0.577 -0.577 -0.577
vn -0.577 -0.577 -0.577
vn -0.577 -0.577 -0.577
vn -0.577 -0.577 -0.577
vn 0.577 0.577 0.577
vn 0.577 0.577 0.577
vn -0.577 -0.577 -0.577
vn 0.577 0.577 0.577
vn 0.577 0.577 0.577
vn 0.577 0.577 0.577
vn 0.577 0.577 0.577
vn 0.577 0.577 0.577
vn 0.577 0.577 0.577
vn -0.577 -0.577 -0.577
vn -0.577 -0.577 -0.577
vn -0.577 -0.577 -0.577
vn -0.577 -0.577 -0.577
vn -0.577 -0.577 -0.577
vn -0.577 -0.577 -0.577
vn -0.577 -0.577 -0.577
vn -0.577 -0.577 -0.577
vn -0.577 -0.577 -0.577
vn -0.577 -0.577 -0.577
vn -0.577 -0.577 -0.577
vn -0.577 -0.577 -0.577
vn -0.577 -0.577 -0.577
vn -0.577 -0.577 -0.577
vn -0.577 -0.577 -0.577
vn -0.577 -0.577 -0.577
vn -0.577 -0.577 -0.577
vn -0.577 -0.577 -0.577
vn -0.577 -0.577 -0.577
vn -0.577 -0.577 -0.577
vn -0.577 -0.577 -0.577
vn -0.577 -0.577 -0.577
vn 0.577 0.577 0.577
vn 0.577 0.577 0.577
vn -0.577 -0.577 -0.577
vn -0.577 -0.577 -0.577
vn -0.577 -0.577 -0.577
vn -0.577 -0.577 -0.577
vn -0.577 -0.577 -0.577
vn -0.577 -0.577 -0.577
vn -0.577 -0.577 -0.577
vn -0.577 -0.577 -0.577
vn -0.577 -0.577 -0.577
vn -0.577 -0.577 -0.577
vn -0.577 -0.577 -0.577
vn -0.577 -0.577 -0.577
vn -0.577 -0.577 -0.577
vn -0.577 -0.577 -0.577
vn -0.577 -0.577 -0.577
vn -0.577 -0.577 -0.577
vn -0.577 -0.577 -0.577
vn -0.577 -0.577 -0.577
vn -0.577 -0.577 -0.577
vn -0.577 -0.577 -0.577
vn -0.577 -0.577 -0.577
vn -0.577 -0.577 -0.577
vn -0.577 -0.577 -0.577
vn -0.577 -0.577 -0.577
vn -0.577 -0.577 -0.577
vn -0.577 -0.577 -0.577
vn -0.577 -0.577 -0.577
vn 0.577 0.577 0.577
vn 0.577 0.577 0.577
vn -0.577 -0.577 -0.577
vn 0.577 0.577 0.577
vn 0.577 0.577 0.577
vn 0.577 0.577 0.577
vn 0.577 0.577 0.577
vn 0.577 0.577 0.577
vn 0.577 0.577 0.577
vn -0.577 -0.577 -0.577
vn -0.577 -0.577 -0.577
vn -0.577 -0.577 -0.577
vn -0.577 -0.577 -0.577
vn -0.577 -0.577 -0.577
vn -0.577 -0.577 -0.577
vn -0.577 -0.577 -0.577
vn -0.577 -0.577 -0.577
vn -0.577 -0.577 -0.577
vn -0.577 -0.577 -0.577
vn -0.577 -0.577 -0.577
vn -0.577 -0.577 -0.577
vn -0.577 -0.577 -0.577
vn -0.577 -0.577 -0.577
vn -0.577 -0.577 -0.577
vn -0.577 -0.577 -0.577
vn -0.577 -0.577 -0.577
vn -0.577 -0.577 -0.577
vn -0.577 -0.577 -0.577
vn -0.577 -0.577 -0.577
vn -0.577 -0.577 -0.577
vn -0.577 -0.577 -0.577
vn -0.577 -0.577 -0.577
vn 0.577 0.577 0.577
vn -0.577 -0.577 -0.577
vn -0.577 -0.577 -0.577
vn 0.577 0.577 0.577
vn -0.577 -0.577 -0.577
vn -0.577 -0.577 -0.577
vn -0.577 -0.577 -0.577
vn -0.577 -0.577 -0.577
vn -0.577 -0.577 -0.577
vn -0.577 -0.577 -0.577
vn -0.577 -0.577 -0.577
vn -0.577 -0.577 -0.577
vn -0.577 -0.577 -0.577
vn -0.577 -0.577 -0.577
vn -0.577 -0.577 -0.577
vn 0.577 0.577 0.577
vn 0.577 0.577 0.577
vn -0.577 -0.577 -0.577
vn -0.577 -0.577 -0.577
vn -0.577 -0.577 -0.577
vn -0.577 -0.577 -0.577
vn 0.577 0.577 0.577
vn 0.577 0.577 0.577
vn 0.577 0.577 0.577
vn -0.577 -0.577 -0.577
vn -0.577 -0.577 -0.577
vn -0.577 -0.577 -0.577
vn -0.577 -0.577 -0.577
vn -0.577 -0.577 -0.577
vn -0.577 -0.577 -0.577
vn -0.577 -0.577 -0.577
vn 0.577 0.577 0.577
vn 0.577 0.577 0.577
vn -0.577 -0.577 -0.577
vn -0.577 -0.577 -0.577
vn 0.577 0.577 0.577
vn -0.577 -0.577 -0.577
usemtl tex_1751_lit
f 1/1/1 8/2/8 9/3/9
f 10/4/10 2/5/2 3/6/3
f 2/5/2 11/7/11 1/1/1
f 11/7/11 8/2/8 1/1/1
f 4/8/4 1/1/1 9/3/9
f 4/8/4 9/3/9 12/9/12
f 4/8/4 12/9/12 5/10/5
f 12/9/12 6/11/6 5/10/5
f 12/9/12 3/6/3 7/12/7
f 12/9/12 10/4/10 6/11/6
f 10/4/10 3/6/3 6/11/6
f 2/5/2 10/4/10 11/7/11
usemtl tex_1900_lit
f 13/13/13 14/14/14 15/15/15
f 15/15/15 14/14/14 16/16/16
usemtl tex_1899_lit
f 17/17/17 18/18/18 19/19/19
f 19/19/19 18/18/18 20/20/20
usemtl tex_1900_lit
f 21/21/21 22/22/22 23/23/23
f 23/23/23 22/22/22 24/24/24
usemtl tex_1898_lit
f 25/25/25 26/26/26 27/27/27
f 27/27/27 26/26/26 28/28/28
f 29/29/29 30/30/30 31/31/31
f 31/31/31 30/30/30 32/32/32
usemtl tex_1896_lit_w11
f 33/33/33 34/34/34 37/35/37
f 33/33/33 37/35/37 38/36/38
f 38/36/38 39/37/39 35/38/35
f 36/39/36 39/37/39 40/40/40
f 35/38/35 33/33/33 38/36/38
f 34/34/34 40/40/40 37/35/37
f 39/37/39 36/39/36 35/38/35
f 34/34/34 36/39/36 40/40/40
f 41/41/41 49/34/49 42/42/42
f 50/39/50 49/34/49 41/41/41
f 43/43/43 50/39/50 44/44/44
f 45/45/45 51/38/51 50/39/50
f 46/46/46 51/38/51 45/45/45
f 52/33/52 51/38/51 46/46/46
f 47/47/47 52/33/52 48/48/48
f 49/34/49 52/33/52 47/47/47
f 48/48/48 52/33/52 46/46/46
f 45/45/45 50/39/50 43/43/43
f 44/44/44 50/39/50 41/41/41
f 42/42/42 49/34/49 47/47/47
usemtl tex_1746_lit_w11
f 53/49/53 54/50/54 55/51/55
f 56/52/56 53/49/53 55/51/55
f 57/53/57 58/54/58 59/55/59
f 57/53/57 58/54/58 59/55/59
f 57/53/57 59/55/59 60/56/60
f 56/52/56 60/56/60 59/55/59
f 58/54/58 61/57/61 59/55/59
f 56/52/56 55/51/55 60/56/60
f 53/49/53 62/58/62 54/50/54
f 62/58/62 53/49/53 57/53/57
f 62/58/62 57/53/57 60/56/60
f 69/52/69 63/59/63 70/49/70
f 64/60/64 63/59/63 69/52/69
f 71/55/71 64/60/64 69/52/69
f 65/61/65 64/60/64 71/55/71
f 72/57/72 65/61/65 71/55/71
f 66/62/66 65/61/65 72/57/72
f 73/54/73 66/62/66 72/57/72
f 67/63/67 66/62/66 73/54/73
f 74/53/74 67/63/67 73/54/73
f 68/64/68 67/63/67 74/53/74
f 70/49/70 68/64/68 74/53/74
f 63/59/63 68/64/68 70/49/70
f 79/65/79 80/66/80 75/50/75
f 81/67/81 79/65/79 75/50/75
f 82/68/82 81/67/81 76/58/76
f 83/69/83 82/68/82 76/58/76
f 84/70/84 83/69/83 77/56/77
f 85/71/85 84/70/84 77/56/77
f 86/72/86 85/71/85 78/51/78
f 80/66/80 86/72/86 78/51/78
f 78/51/78 85/71/85 77/56/77
f 76/58/76 81/67/81 75/50/75
f 75/50/75 80/66/80 78/51/78
f 77/56/77 83/69/83 76/58/76
usemtl tex_1900_lit
f 87/73/87 88/74/88 89/75/89
f 90/76/90 88/74/88 87/73/87
usemtl tex_1899_lit
f 91/77/91 92/78/92 93/79/93
f 94/80/94 92/78/92 91/77/91
usemtl tex_1900_lit
f 95/81/95 96/82/96 97/83/97
f 98/84/98 96/82/96 95/81/95
usemtl tex_1898_lit
f 99/85/99 100/86/100 101/87/101
f 102/88/102 100/86/100 99/85/99
f 103/89/103 104/90/104 105/91/105
f 106/92/106 104/90/104 103/89/103
usemtl tex_1896_lit_w11
f 111/93/111 107/94/107 108/95/108
f 112/96/112 111/93/111 108/95/108
f 109/97/109 113/98/113 112/96/112
f 114/99/114 113/98/113 110/100/110
f 112/96/112 108/95/108 109/97/109
f 111/93/111 114/99/114 107/94/107
f 109/97/109 110/100/110 113/98/113
f 114/99/114 110/100/110 107/94/107
f 115/101/115 116/102/116 125/97/125
f 116/102/116 117/103/117 126/100/126
f 118/104/118 119/105/119 127/106/127
f 120/107/120 121/108/121 128/95/128
f 122/109/122 115/101/115 125/97/125
f 121/108/121 122/109/122 128/95/128
f 117/103/117 123/110/123 126/100/126
f 124/111/124 118/104/118 127/106/127
f 128/95/128 122/109/122 125/97/125
f 129/94/129 120/107/120 128/95/128
f 126/100/126 123/110/123 129/94/129
f 125/97/125 116/102/116 126/100/126
usemtl tex_1746_lit_w11
f 130/112/130 131/113/131 132/114/132
f 130/112/130 132/114/132 133/115/133
f 134/116/134 132/114/132 135/117/135
f 136/118/136 137/119/137 138/120/138
f 136/118/136 138/120/138 134/116/134
f 131/113/131 135/117/135 132/114/132
f 137/119/137 139/121/139 138/120/138
f 136/118/136 130/112/130 133/115/133
f 137/119/137 138/120/138 134/116/134
f 137/119/137 136/118/136 133/115/133
f 135/117/135 136/118/136 134/116/134
f 140/122/140 146/120/146 141/123/141
f 141/123/141 146/120/146 147/121/147
f 141/123/141 147/121/147 142/124/142
f 142/124/142 147/121/147 148/119/148
f 142/124/142 148/119/148 143/125/143
f 143/125/143 148/119/148 149/115/149
f 143/125/143 149/115/149 144/126/144
f 144/126/144 149/115/149 150/114/150
f 144/126/144 150/114/150 145/127/145
f 145/127/145 150/114/150 151/116/151
f 145/127/145 151/116/151 140/122/140
f 140/122/140 151/116/151 146/120/146
f 156/128/156 152/113/152 157/129/157
usemtl tex_1746_lit_w11_ovl
f 153/117/153 152/113/152 156/128/156
usemtl tex_1746_lit_w11
f 158/130/158 153/117/153 159/131/159
f 154/118/154 153/117/153 158/130/158
f 160/132/160 154/118/154 161/133/161
f 155/112/155 154/118/154 160/132/160
f 162/134/162 155/112/155 163/135/163
f 152/113/152 155/112/155 162/134/162
f 163/135/163 155/112/155 160/132/160
f 157/129/157 152/113/152 162/134/162
f 159/131/159 153/117/153 156/128/156
f 161/133/161 154/118/154 158/130/158
usemtl tex_1748_lit_w11
f 164/136/164 165/137/165 166/138/166
f 167/139/167 168/140/168 169/141/169
f 170/142/170 171/143/171 172/144/172
f 173/145/173 168/140/168 174/146/174
f 175/147/175 165/137/165 168/140/168
f 170/142/170 174/146/174 176/148/176
f 177/149/177 178/150/178 179/151/179
f 180/136/180 181/152/181 182/137/182
f 183/139/183 184/149/184 185/151/185
f 183/139/183 186/147/186 187/140/187
f 188/142/188 189/153/189 190/143/190
f 182/137/182 191/154/191 192/138/192
f 191/154/191 193/155/193 192/138/192
f 180/136/180 192/138/192 194/156/194
f 195/142/195 196/144/196 197/146/197
f 198/140/198 199/145/199 200/141/200
f 201/153/201 202/157/202 203/143/203
f 204/139/204 205/158/205 206/149/206
f 207/138/207 208/155/208 209/156/209
f 210/146/210 211/152/211 212/148/212
f 213/159/213 214/160/214 215/161/215
f 216/162/216 217/155/217 218/139/218
f 211/152/211 210/146/210 219/140/219
f 220/147/220 221/154/221 222/137/222
f 218/139/218 221/154/221 220/147/220
f 218/139/218 217/155/217 221/154/221
f 223/141/223 215/161/215 224/158/224
f 222/137/222 211/152/211 219/140/219
f 225/144/225 226/143/226 227/141/227
f 225/144/225 227/141/227 228/145/228
f 229/162/229 230/139/230 231/151/231
f 232/142/232 233/148/233 234/153/234
f 235/146/235 225/144/225 228/145/228
f 236/163/236 227/141/227 226/143/226
f 236/163/236 237/159/237 227/141/227
f 237/159/237 238/161/238 227/141/227
f 239/155/239 240/164/240 241/156/241
f 242/139/242 243/141/243 244/158/244
usemtl tex_1747_lit_w11
f 245/165/245 246/166/246 247/167/247
f 248/168/248 249/169/249 250/170/250
f 247/167/247 246/166/246 251/171/251
f 245/165/245 252/172/252 246/166/246
f 253/173/253 248/168/248 250/170/250
f 254/174/254 255/175/255 256/176/256
f 254/174/254 257/171/257 255/175/255
usemtl tex_1747_lit_w11_ovl
f 258/177/258 259/178/259 260/172/260
usemtl tex_1747_lit_w11
f 259/178/259 261/166/261 260/172/260
f 262/173/262 263/165/263 264/168/264
f 261/166/261 265/179/265 266/180/266
f 265/179/265 267/181/267 266/180/266
f 268/167/268 254/174/254 269/169/269
f 268/167/268 257/171/257 254/174/254
f 264/168/264 263/165/263 268/167/268
f 269/169/269 254/174/254 256/176/256
f 269/169/269 264/168/264 268/167/268
f 261/166/261 266/180/266 257/171/257
usemtl tex_1748_lit_w11
f 270/182/270 279/183/279 271/184/271
f 280/185/280 279/183/279 270/182/270
f 272/186/272 280/185/280 273/187/273
f 281/188/281 280/185/280 272/186/272
f 274/189/274 281/188/281 275/190/275
f 282/191/282 281/188/281 274/189/274
f 276/192/276 282/191/282 277/193/277
f 283/194/283 282/191/282 276/192/276
f 278/195/278 283/194/283 276/192/276
f 273/187/273 280/185/280 270/182/270
f 277/193/277 282/191/282 274/189/274
f 275/190/275 281/188/281 272/186/272
usemtl tex_1747_lit_w11
f 284/196/284 288/176/288 285/197/285
f 289/169/289 288/176/288 284/196/284
f 286/198/286 289/169/289 284/196/284
f 290/170/290 289/169/289 286/198/286
f 287/199/287 290/170/290 286/198/286
usemtl tex_1704_lit_w11
f 291/200/291 292/201/292 293/202/293
f 293/202/293 292/201/292 294/202/294
f 293/202/293 295/203/295 296/204/296
f 293/202/293 296/204/296 297/205/297
f 292/201/292 297/205/297 298/206/298
f 293/202/293 294/202/294 299/207/299
f 300/208/300 298/206/298 297/205/297
f 300/208/300 297/205/297 296/204/296
f 292/201/292 291/200/291 297/205/297
f 293/202/293 297/205/297 291/200/291
f 294/202/294 292/201/292 298/206/298
f 300/208/300 294/202/294 298/206/298
f 300/208/300 299/207/299 294/202/294
f 295/203/295 293/202/293 299/207/299
f 299/207/299 300/208/300 296/204/296
f 299/207/299 296/204/296 295/203/295
usemtl tex_1750_lit_w01
f 301/209/301 305/210/305 306/211/306
f 302/212/302 307/213/307 305/210/305
f 302/212/302 303/214/303 307/213/307
f 303/214/303 308/215/308 307/213/307
f 304/216/304 306/211/306 308/215/308
f 304/216/304 301/209/301 306/211/306
f 301/209/301 302/212/302 305/210/305
f 303/214/303 304/216/304 308/215/308
f 309/217/309 317/214/317 310/218/310
f 310/218/310 317/214/317 318/212/318
f 311/219/311 318/212/318 312/220/312
f 312/220/312 318/212/318 319/209/319
f 313/221/313 319/209/319 314/222/314
f 314/222/314 319/209/319 320/216/320
f 315/223/315 320/216/320 316/224/316
f 316/224/316 320/216/320 317/214/317
f 314/222/314 320/216/320 315/223/315
f 312/220/312 319/209/319 313/221/313
f 310/218/310 318/212/318 311/219/311
f 316/224/316 317/214/317 309/217/309
usemtl tex_1983_lit
f 321/225/321 322/226/322 323/227/323
f 324/228/324 322/226/322 321/225/321
f 325/229/325 324/228/324 321/225/321
f 326/230/326 324/228/324 325/229/325
f 327/231/327 326/230/326 325/229/325
f 328/232/328 326/230/326 327/231/327
f 329/233/329 328/232/328 327/231/327
f 322/226/322 328/232/328 329/233/329
f 323/227/323 322/226/322 329/233/329
f 334/234/334 330/235/330 331/236/331
f 335/237/335 336/238/336 332/239/332
f 334/234/334 335/237/335 332/239/332
f 336/238/336 337/240/337 333/241/333
f 337/240/337 338/242/338 331/236/331
f 333/241/333 337/240/337 331/236/331
f 332/239/332 336/238/336 333/241/333
f 334/234/334 332/239/332 330/235/330
f 338/242/338 334/234/334 331/236/331
usemtl tex_1750_lit_w01
f 339/243/339 343/217/343 344/218/344
f 339/243/339 344/218/344 345/219/345
f 340/244/340 346/223/346 347/224/347
f 339/243/339 347/224/347 343/217/343
f 341/245/341 348/220/348 342/246/342
f 340/244/340 347/224/347 339/243/339
f 342/246/342 349/222/349 340/244/340
f 341/245/341 345/219/345 348/220/348
f 342/246/342 350/221/350 349/222/349
f 340/244/340 349/222/349 346/223/346
f 342/246/342 348/220/348 350/221/350
f 341/245/341 339/243/339 345/219/345
usemtl tex_1704_lit_w11
f 351/247/351 352/248/352 353/249/353
f 354/250/354 352/248/352 351/247/351
f 355/251/355 356/252/356 357/253/357
f 358/254/358 359/255/359 352/248/352
f 355/251/355 354/250/354 351/247/351
f 355/251/355 351/247/351 356/252/356
f 359/255/359 353/249/353 352/248/352
f 353/249/353 359/255/359 351/247/351
f 358/254/358 352/248/352 354/250/354
f 358/254/358 354/250/354 360/256/360
f 354/250/354 355/251/355 360/256/360
f 359/255/359 357/253/357 351/247/351
f 357/253/357 356/252/356 351/247/351
f 359/255/359 358/254/358 360/256/360
f 359/255/359 360/256/360 357/253/357
f 360/256/360 355/251/355 357/253/357
usemtl tex_1750_lit_w01
f 361/257/361 362/258/362 365/259/365
f 366/260/366 363/261/363 364/262/364
f 367/263/367 366/260/366 364/262/364
f 367/263/367 364/262/364 361/257/361
f 368/264/368 365/259/365 362/258/362
f 366/260/366 368/264/368 363/261/363
f 368/264/368 362/258/362 363/261/363
f 367/263/367 361/257/361 365/259/365
f 369/265/369 377/257/377 370/266/370
f 370/266/370 377/257/377 378/262/378
f 371/267/371 378/262/378 372/268/372
f 372/268/372 378/262/378 379/261/379
f 373/269/373 379/261/379 374/270/374
f 374/270/374 379/261/379 380/258/380
f 375/271/375 380/258/380 376/272/376
f 376/272/376 380/258/380 377/257/377
f 372/268/372 379/261/379 373/269/373
f 374/270/374 380/258/380 375/271/375
f 376/272/376 377/257/377 369/265/369
f 370/266/370 378/262/378 371/267/371
usemtl tex_1983_lit
f 381/273/381 382/274/382 383/275/383
f 384/276/384 382/274/382 381/273/381
f 385/231/385 384/276/384 381/273/381
f 386/277/386 384/276/384 385/231/385
f 387/229/387 386/277/386 385/231/385
f 388/278/388 386/277/386 387/229/387
f 389/279/389 388/278/388 387/229/387
f 382/274/382 388/278/388 389/279/389
f 383/275/383 382/274/382 389/279/389
f 395/234/395 396/280/396 390/281/390
f 391/239/391 397/237/397 395/234/395
f 391/239/391 398/282/398 397/237/397
f 392/283/392 399/284/399 400/285/400
f 393/235/393 391/239/391 395/234/395
f 394/286/394 400/285/400 398/282/398
f 392/283/392 400/285/400 394/286/394
f 394/286/394 398/282/398 391/239/391
f 393/235/393 395/234/395 390/281/390
usemtl tex_1750_lit_w01
f 401/287/401 405/269/405 406/270/406
f 402/288/402 406/270/406 407/271/407
f 402/288/402 407/271/407 408/272/408
f 403/289/403 408/272/408 409/265/409
f 402/288/402 408/272/408 403/289/403
f 401/287/401 406/270/406 402/288/402
f 404/290/404 410/268/410 401/287/401
f 403/289/403 411/266/411 404/290/404
f 403/289/403 409/265/409 411/266/411
f 404/290/404 411/266/411 412/267/412
f 404/290/404 412/267/412 410/268/410
f 401/287/401 410/268/410 405/269/405
usemtl tex_1983_lit
f 413/291/413 414/241/414 415/292/415
f 416/293/416 417/286/417 418/239/418
f 413/291/413 419/294/419 418/239/418
f 417/286/417 416/293/416 420/295/420
f 421/296/421 422/236/422 423/281/423
f 423/281/423 424/297/424 421/296/421
f 422/236/422 425/235/425 423/281/423
f 426/283/426 420/295/420 427/298/427
f 414/241/414 413/291/413 418/239/418
f 414/241/414 422/236/422 415/292/415
f 415/292/415 422/236/422 421/296/421
f 426/283/426 417/286/417 420/295/420
f 419/294/419 416/293/416 418/239/418
usemtl tex_1748_lit_w11
f 434/182/434 435/184/435 428/299/428
f 429/300/429 436/192/436 430/301/430
f 437/195/437 436/192/436 429/300/429
f 436/192/436 438/193/438 430/301/430
f 438/193/438 439/189/439 431/302/431
f 440/190/440 432/303/432 431/302/431
f 440/190/440 441/186/441 432/303/432
f 442/187/442 433/304/433 432/303/432
f 442/187/442 434/182/434 433/304/433
f 438/193/438 431/302/431 430/301/430
f 439/189/439 440/190/440 431/302/431
f 441/186/441 442/187/442 432/303/432
f 433/304/433 434/182/434 428/299/428
usemtl tex_1747_lit_w11
f 443/305/443 446/196/446 444/306/444
f 445/307/445 447/198/447 443/305/443
f 447/198/447 446/196/446 443/305/443
f 448/199/448 447/198/447 445/307/445
f 446/196/446 449/197/449 444/306/444
