mtllib CboilerbondZ.mtl
v -1123.4824600219727 -94.32232618331909 -74.0 1.000 1.000 1.000
v -1123.4824600219727 -176.3223261833191 -68.0 1.000 1.000 1.000
v -1123.4824600219727 -51.32232618331909 154.0 1.000 1.000 1.000
v -1123.4824600219727 -171.3223261833191 163.0 1.000 1.000 1.000
v -1086.4824600219727 -87.32232618331909 141.0 1.000 1.000 1.000
v -1023.4824600219727 -92.32232618331909 -4.0 1.000 1.000 1.000
v -1017.4824600219727 -156.3223261833191 -61.0 1.000 1.000 1.000
v -1088.4824600219727 -142.3223261833191 166.0 1.000 1.000 1.000
v -1018.4824600219727 -111.32232618331909 -62.0 1.000 1.000 1.000
v -1017.4824600219727 -152.3223261833191 -16.0 1.000 1.000 1.000
v -1017.4824600219727 -147.3223261833191 20.0 1.000 1.000 1.000
v -1025.4824600219727 -92.32232618331909 -29.0 1.000 1.000 1.000
v -730.8682632446289 -77.88454914093018 52.0 1.000 1.000 1.000
v -864.8682632446289 -83.88454914093018 38.0 1.000 1.000 1.000
v -863.8682632446289 -135.88454914093018 48.0 1.000 1.000 1.000
v -727.8682632446289 -44.884549140930176 -15.0 1.000 1.000 1.000
v -730.8682632446289 -92.88454914093018 -81.0 1.000 1.000 1.000
v -854.8682632446289 -98.88454914093018 -60.0 1.000 1.000 1.000
v -858.8682632446289 -69.88454914093018 3.0 1.000 1.000 1.000
v -728.8682632446289 -153.88454914093018 -68.0 1.000 1.000 1.000
v -727.8682632446289 -184.88454914093018 -3.0 1.000 1.000 1.000
v -851.8682632446289 -140.88454914093018 -59.0 1.000 1.000 1.000
v -730.8682632446289 -125.88454914093018 68.0 1.000 1.000 1.000
v -857.8682632446289 -168.88454914093018 2.0 1.000 1.000 1.000
v -854.8682632446289 -98.88454914093018 -60.0 1.000 1.000 1.000
v -858.8682632446289 -69.88454914093018 3.0 1.000 1.000 1.000
v -864.8682632446289 -83.88454914093018 38.0 1.000 1.000 1.000
v -863.8682632446289 -135.88454914093018 48.0 1.000 1.000 1.000
v -857.8682632446289 -168.88454914093018 2.0 1.000 1.000 1.000
v -851.8682632446289 -140.88454914093018 -59.0 1.000 1.000 1.000
v -1025.4824600219727 -92.32232618331909 -29.0 1.000 1.000 1.000
v -1023.4824600219727 -92.32232618331909 -4.0 1.000 1.000 1.000
v -1017.4824600219727 -147.3223261833191 20.0 1.000 1.000 1.000
v -1018.4824600219727 -111.32232618331909 -62.0 1.000 1.000 1.000
v -1017.4824600219727 -152.3223261833191 -16.0 1.000 1.000 1.000
v -1017.4824600219727 -156.3223261833191 -61.0 1.000 1.000 1.000
v -574.8682632446289 -51.884549140930176 -7.0 1.000 1.000 1.000
v -573.8682632446289 -88.88454914093018 -68.0 1.000 1.000 1.000
v -573.8682632446289 -142.88454914093018 -62.0 1.000 1.000 1.000
v -566.8682632446289 -183.88454914093018 8.0 1.000 1.000 1.000
v -576.8682632446289 -148.88454914093018 85.0 1.000 1.000 1.000
v -577.8682632446289 -78.88454914093018 81.0 1.000 1.000 1.000
v -730.8682632446289 -77.88454914093018 52.0 1.000 1.000 1.000
v -727.8682632446289 -44.884549140930176 -15.0 1.000 1.000 1.000
v -730.8682632446289 -92.88454914093018 -81.0 1.000 1.000 1.000
v -728.8682632446289 -153.88454914093018 -68.0 1.000 1.000 1.000
v -727.8682632446289 -184.88454914093018 -3.0 1.000 1.000 1.000
v -730.8682632446289 -125.88454914093018 68.0 1.000 1.000 1.000
v -1004.8682632446289 -103.88454914093018 -62.0 1.000 1.000 1.000
v -1004.8682632446289 -168.88454914093018 -51.0 1.000 1.000 1.000
v -1032.868263244629 -154.88454914093018 30.0 1.000 1.000 1.000
v -1031.868263244629 -84.88454914093018 11.0 1.000 1.000 1.000
v -559.8682632446289 -132.88454914093018 87.0 1.000 1.000 1.000
v -550.8682632446289 -34.884549140930176 38.0 1.000 1.000 1.000
v -553.8682632446289 -109.88454914093018 -67.0 1.000 1.000 1.000
v -554.8682632446289 -196.88454914093018 13.0 1.000 1.000 1.000
v -559.8682632446289 -132.88454914093018 87.0 1.000 1.000 1.000
v -554.8682632446289 -196.88454914093018 13.0 1.000 1.000 1.000
v -193.23767852783203 -39.731056213378906 -3.0 1.000 1.000 1.000
v -363.23767852783203 -39.731056213378906 -20.0 1.000 1.000 1.000
v -209.23767852783203 -53.731056213378906 51.0 1.000 1.000 1.000
v -375.23767852783203 -57.731056213378906 68.0 1.000 1.000 1.000
v -250.23767852783203 -126.7310562133789 100.0 1.000 1.000 1.000
v -373.23767852783203 -125.7310562133789 99.0 1.000 1.000 1.000
v -288.23767852783203 -189.7310562133789 22.0 1.000 1.000 1.000
v -343.23767852783203 -189.7310562133789 22.0 1.000 1.000 1.000
v -183.23767852783203 -170.7310562133789 -75.0 1.000 1.000 1.000
v -350.23767852783203 -163.7310562133789 -65.0 1.000 1.000 1.000
v -182.23767852783203 -94.7310562133789 -82.0 1.000 1.000 1.000
v -349.23767852783203 -94.7310562133789 -82.0 1.000 1.000 1.000
v -21.0 -190.0 -25.0 1.000 1.000 1.000
v -1.0 -219.0 88.0 1.000 1.000 1.000
v -113.0 -59.0 -70.0 1.000 1.000 1.000
v -36.0 -176.0 -89.0 1.000 1.000 1.000
v -90.0 -114.0 107.0 1.000 1.000 1.000
v -138.0 -36.0 13.0 1.000 1.000 1.000
v -42.0 -168.0 103.0 1.000 1.000 1.000
v -288.23767852783203 -189.7310562133789 22.0 1.000 1.000 1.000
v -182.23767852783203 -94.7310562133789 -82.0 1.000 1.000 1.000
v -193.23767852783203 -39.731056213378906 -3.0 1.000 1.000 1.000
v -183.23767852783203 -170.7310562133789 -75.0 1.000 1.000 1.000
v -209.23767852783203 -53.731056213378906 51.0 1.000 1.000 1.000
v -250.23767852783203 -126.7310562133789 100.0 1.000 1.000 1.000
v -363.23767852783203 -39.731056213378906 -20.0 1.000 1.000 1.000
v -349.23767852783203 -94.7310562133789 -82.0 1.000 1.000 1.000
v -350.23767852783203 -163.7310562133789 -65.0 1.000 1.000 1.000
v -343.23767852783203 -189.7310562133789 22.0 1.000 1.000 1.000
v -373.23767852783203 -125.7310562133789 99.0 1.000 1.000 1.000
v -375.23767852783203 -57.731056213378906 68.0 1.000 1.000 1.000
v -574.8682632446289 -51.884549140930176 -7.0 1.000 1.000 1.000
v -573.8682632446289 -88.88454914093018 -68.0 1.000 1.000 1.000
v -573.8682632446289 -142.88454914093018 -62.0 1.000 1.000 1.000
v -566.8682632446289 -183.88454914093018 8.0 1.000 1.000 1.000
v -576.8682632446289 -148.88454914093018 85.0 1.000 1.000 1.000
v -577.8682632446289 -78.88454914093018 81.0 1.000 1.000 1.000
v -560.237678527832 -133.7310562133789 87.0 1.000 1.000 1.000
v -220.23767852783203 -192.7310562133789 20.0 1.000 1.000 1.000
v -220.23767852783203 -151.7310562133789 124.0 1.000 1.000 1.000
v -220.23767852783203 -122.7310562133789 -73.0 1.000 1.000 1.000
v -554.237678527832 -196.7310562133789 13.0 1.000 1.000 1.000
v -554.237678527832 -109.7310562133789 -67.0 1.000 1.000 1.000
v -551.237678527832 -34.731056213378906 38.0 1.000 1.000 1.000
v -220.23767852783203 -38.731056213378906 27.0 1.000 1.000 1.000
v -220.23767852783203 -38.731056213378906 27.0 1.000 1.000 1.000
v -220.23767852783203 -151.7310562133789 124.0 1.000 1.000 1.000
v -220.23767852783203 -192.7310562133789 20.0 1.000 1.000 1.000
v -220.23767852783203 -122.7310562133789 -73.0 1.000 1.000 1.000
v -560.237678527832 -133.7310562133789 87.0 1.000 1.000 1.000
v -554.237678527832 -196.7310562133789 13.0 1.000 1.000 1.000
v 1131.8396377563477 -53.06830358505249 154.0 1.000 1.000 1.000
v 1131.8396377563477 -179.0683035850525 -68.0 1.000 1.000 1.000
v 1131.8396377563477 -97.06830358505249 -74.0 1.000 1.000 1.000
v 1131.8396377563477 -172.0683035850525 164.0 1.000 1.000 1.000
v 1030.8396377563477 -99.06830358505249 -4.0 1.000 1.000 1.000
v 1095.8396377563477 -91.06830358505249 140.0 1.000 1.000 1.000
v 1097.8396377563477 -144.0683035850525 166.0 1.000 1.000 1.000
v 1025.8396377563477 -160.0683035850525 -61.0 1.000 1.000 1.000
v 1027.8396377563477 -114.06830358505249 -62.0 1.000 1.000 1.000
v 1026.8396377563477 -149.0683035850525 20.0 1.000 1.000 1.000
v 1026.8396377563477 -154.0683035850525 -12.0 1.000 1.000 1.000
v 1032.8396377563477 -98.06830358505249 -35.0 1.000 1.000 1.000
v 872.0406875610352 -138.61004257202148 62.0 1.000 1.000 1.000
v 872.0406875610352 -85.61004257202148 50.0 1.000 1.000 1.000
v 740.0406875610352 -80.61004257202148 52.0 1.000 1.000 1.000
v 864.0406875610352 -100.61004257202148 -58.0 1.000 1.000 1.000
v 739.0406875610352 -95.61004257202148 -81.0 1.000 1.000 1.000
v 737.0406875610352 -49.610042572021484 -15.0 1.000 1.000 1.000
v 867.0406875610352 -70.61004257202148 11.0 1.000 1.000 1.000
v 860.0406875610352 -142.61004257202148 -57.0 1.000 1.000 1.000
v 737.0406875610352 -185.61004257202148 -3.0 1.000 1.000 1.000
v 738.0406875610352 -156.61004257202148 -68.0 1.000 1.000 1.000
v 740.0406875610352 -128.61004257202148 68.0 1.000 1.000 1.000
v 866.0406875610352 -170.61004257202148 10.0 1.000 1.000 1.000
v 866.0406875610352 -170.61004257202148 10.0 1.000 1.000 1.000
v 872.0406875610352 -138.61004257202148 62.0 1.000 1.000 1.000
v 872.0406875610352 -85.61004257202148 50.0 1.000 1.000 1.000
v 867.0406875610352 -70.61004257202148 11.0 1.000 1.000 1.000
v 864.0406875610352 -100.61004257202148 -58.0 1.000 1.000 1.000
v 860.0406875610352 -142.61004257202148 -57.0 1.000 1.000 1.000
v 1026.8396377563477 -149.0683035850525 20.0 1.000 1.000 1.000
v 1030.8396377563477 -99.06830358505249 -4.0 1.000 1.000 1.000
v 1032.8396377563477 -98.06830358505249 -35.0 1.000 1.000 1.000
v 1027.8396377563477 -114.06830358505249 -62.0 1.000 1.000 1.000
v 1025.8396377563477 -160.0683035850525 -61.0 1.000 1.000 1.000
v 1026.8396377563477 -154.0683035850525 -12.0 1.000 1.000 1.000
v 583.0406875610352 -56.610042572021484 -7.0 1.000 1.000 1.000
v 582.0406875610352 -92.61004257202148 -67.0 1.000 1.000 1.000
v 581.0406875610352 -143.61004257202148 -61.0 1.000 1.000 1.000
v 577.0406875610352 -187.61004257202148 8.0 1.000 1.000 1.000
v 585.0406875610352 -149.61004257202148 84.0 1.000 1.000 1.000
v 586.0406875610352 -81.61004257202148 80.0 1.000 1.000 1.000
v 737.0406875610352 -49.610042572021484 -15.0 1.000 1.000 1.000
v 740.0406875610352 -80.61004257202148 52.0 1.000 1.000 1.000
v 739.0406875610352 -95.61004257202148 -81.0 1.000 1.000 1.000
v 738.0406875610352 -156.61004257202148 -68.0 1.000 1.000 1.000
v 737.0406875610352 -185.61004257202148 -3.0 1.000 1.000 1.000
v 740.0406875610352 -128.61004257202148 68.0 1.000 1.000 1.000
v 1041.0406875610352 -87.61004257202148 5.0 1.000 1.000 1.000
v 1042.0406875610352 -160.61004257202148 25.0 1.000 1.000 1.000
v 1013.0406875610352 -174.61004257202148 -56.0 1.000 1.000 1.000
v 1015.0406875610352 -107.61004257202148 -67.0 1.000 1.000 1.000
v 569.0406875610352 -137.61004257202148 87.0 1.000 1.000 1.000
v 563.0406875610352 -113.61004257202148 -67.0 1.000 1.000 1.000
v 561.0406875610352 -39.610042572021484 38.0 1.000 1.000 1.000
v 564.0406875610352 -200.61004257202148 13.0 1.000 1.000 1.000
v 564.0406875610352 -200.61004257202148 13.0 1.000 1.000 1.000
v 569.0406875610352 -137.61004257202148 87.0 1.000 1.000 1.000
v 192.07935333251953 -175.35267639160156 -75.0 1.000 1.000 1.000
v 360.07935333251953 -169.35267639160156 -65.0 1.000 1.000 1.000
v 297.07935333251953 -193.35267639160156 22.0 1.000 1.000 1.000
v 352.07935333251953 -193.35267639160156 22.0 1.000 1.000 1.000
v 259.07935333251953 -129.35267639160156 100.0 1.000 1.000 1.000
v 382.07935333251953 -129.35267639160156 99.0 1.000 1.000 1.000
v 217.07935333251953 -58.35267639160156 51.0 1.000 1.000 1.000
v 384.07935333251953 -64.35267639160156 69.0 1.000 1.000 1.000
v 203.07935333251953 -44.35267639160156 -3.0 1.000 1.000 1.000
v 372.07935333251953 -44.35267639160156 -20.0 1.000 1.000 1.000
v 191.07935333251953 -99.35267639160156 -82.0 1.000 1.000 1.000
v 359.07935333251953 -99.35267639160156 -82.0 1.000 1.000 1.000
v -1.0 -219.0 88.0 1.000 1.000 1.000
v 22.0 -190.0 -25.0 1.000 1.000 1.000
v 34.0 -176.0 -90.0 1.000 1.000 1.000
v 115.0 -60.0 -70.0 1.000 1.000 1.000
v 91.0 -112.0 106.0 1.000 1.000 1.000
v 142.0 -36.0 13.0 1.000 1.000 1.000
v 41.0 -168.0 104.0 1.000 1.000 1.000
v 297.07935333251953 -193.35267639160156 22.0 1.000 1.000 1.000
v 191.07935333251953 -99.35267639160156 -82.0 1.000 1.000 1.000
v 192.07935333251953 -175.35267639160156 -75.0 1.000 1.000 1.000
v 203.07935333251953 -44.35267639160156 -3.0 1.000 1.000 1.000
v 259.07935333251953 -129.35267639160156 100.0 1.000 1.000 1.000
v 217.07935333251953 -58.35267639160156 51.0 1.000 1.000 1.000
v 372.07935333251953 -44.35267639160156 -20.0 1.000 1.000 1.000
v 359.07935333251953 -99.35267639160156 -82.0 1.000 1.000 1.000
v 360.07935333251953 -169.35267639160156 -65.0 1.000 1.000 1.000
v 352.07935333251953 -193.35267639160156 22.0 1.000 1.000 1.000
v 382.07935333251953 -129.35267639160156 99.0 1.000 1.000 1.000
v 384.07935333251953 -64.35267639160156 69.0 1.000 1.000 1.000
v 582.0406875610352 -92.61004257202148 -67.0 1.000 1.000 1.000
v 583.0406875610352 -56.610042572021484 -7.0 1.000 1.000 1.000
v 581.0406875610352 -143.61004257202148 -61.0 1.000 1.000 1.000
v 577.0406875610352 -187.61004257202148 8.0 1.000 1.000 1.000
v 585.0406875610352 -149.61004257202148 84.0 1.000 1.000 1.000
v 586.0406875610352 -81.61004257202148 80.0 1.000 1.000 1.000
v 229.07935333251953 -156.35267639160156 124.0 1.000 1.000 1.000
v 230.07935333251953 -197.35267639160156 20.0 1.000 1.000 1.000
v 569.0793533325195 -137.35267639160156 87.0 1.000 1.000 1.000
v 564.0793533325195 -201.35267639160156 13.0 1.000 1.000 1.000
v 230.07935333251953 -127.35267639160156 -73.0 1.000 1.000 1.000
v 230.07935333251953 -43.35267639160156 27.0 1.000 1.000 1.000
v 560.0793533325195 -39.35267639160156 38.0 1.000 1.000 1.000
v 563.0793533325195 -114.35267639160156 -67.0 1.000 1.000 1.000
v 230.07935333251953 -127.35267639160156 -73.0 1.000 1.000 1.000
v 230.07935333251953 -197.35267639160156 20.0 1.000 1.000 1.000
v 229.07935333251953 -156.35267639160156 124.0 1.000 1.000 1.000
v 230.07935333251953 -43.35267639160156 27.0 1.000 1.000 1.000
v 564.0793533325195 -201.35267639160156 13.0 1.000 1.000 1.000
v 569.0793533325195 -137.35267639160156 87.0 1.000 1.000 1.000
v -208.154296875 424.2938439846039 0.0 1.000 1.000 1.000
v -259.154296875 362.2938439846039 66.0 1.000 1.000 1.000
v -310.154296875 423.2938439846039 0.0 1.000 1.000 1.000
v 42.334922075271606 483.8643493652344 9.0 1.000 1.000 1.000
v 32.334922075271606 462.8643493652344 27.0 1.000 1.000 1.000
v -0.6650779247283936 429.8643493652344 65.0 1.000 1.000 1.000
v -20.665077924728394 440.8643493652344 51.0 1.000 1.000 1.000
v 18.334922075271606 440.8643493652344 49.0 1.000 1.000 1.000
v -44.665077924728394 483.8643493652344 9.0 1.000 1.000 1.000
v -43.665077924728394 479.8643493652344 -2.0 1.000 1.000 1.000
v 41.334922075271606 479.8643493652344 -2.0 1.000 1.000 1.000
v 27.334922075271606 450.8643493652344 40.0 1.000 1.000 1.000
v -37.665077924728394 462.8643493652344 27.0 1.000 1.000 1.000
v -29.665077924728394 450.8643493652344 40.0 1.000 1.000 1.000
v -206.154296875 414.2938439846039 -52.0 1.000 1.000 1.000
v -311.154296875 414.2938439846039 -52.0 1.000 1.000 1.000
v -310.154296875 423.2938439846039 0.0 1.000 1.000 1.000
v -208.154296875 424.2938439846039 0.0 1.000 1.000 1.000
v 24.334922075271606 468.8643493652344 -37.0 1.000 1.000 1.000
v 41.334922075271606 479.8643493652344 -2.0 1.000 1.000 1.000
v -28.665077924728394 468.8643493652344 -36.0 1.000 1.000 1.000
v -43.665077924728394 479.8643493652344 -2.0 1.000 1.000 1.000
v -780.0427733659744 366.6501748561859 55.0 1.000 1.000 1.000
v -744.0427733659744 418.6501748561859 -27.0 1.000 1.000 1.000
v -767.0427733659744 372.6501748561859 -44.0 1.000 1.000 1.000
v -757.0427733659744 442.6501748561859 52.0 1.000 1.000 1.000
v -744.0427733659744 418.6501748561859 -27.0 1.000 1.000 1.000
v -757.0427733659744 442.6501748561859 52.0 1.000 1.000 1.000
v -657.0427733659744 421.6501748561859 7.0 1.000 1.000 1.000
v -658.0427733659744 416.6501748561859 42.0 1.000 1.000 1.000
v -657.0427733659744 404.6501748561859 -27.0 1.000 1.000 1.000
v -658.0427733659744 416.6501748561859 42.0 1.000 1.000 1.000
v -780.0427733659744 366.6501748561859 55.0 1.000 1.000 1.000
v -662.0427733659744 364.6501748561859 38.0 1.000 1.000 1.000
v -757.0427733659744 442.6501748561859 52.0 1.000 1.000 1.000
v -665.0427733659744 367.6501748561859 8.0 1.000 1.000 1.000
v -662.0427733659744 364.6501748561859 38.0 1.000 1.000 1.000
v -780.0427733659744 366.6501748561859 55.0 1.000 1.000 1.000
v -767.0427733659744 372.6501748561859 -44.0 1.000 1.000 1.000
v -660.0427733659744 371.6501748561859 -23.0 1.000 1.000 1.000
v -665.0427733659744 367.6501748561859 8.0 1.000 1.000 1.000
v -780.0427733659744 366.6501748561859 55.0 1.000 1.000 1.000
v -657.0427733659744 404.6501748561859 -27.0 1.000 1.000 1.000
v -767.0427733659744 372.6501748561859 -44.0 1.000 1.000 1.000
v -744.0427733659744 418.6501748561859 -27.0 1.000 1.000 1.000
v -660.0427733659744 371.6501748561859 -23.0 1.000 1.000 1.000
v -601.8884764909744 423.35633087158203 40.0 1.000 1.000 1.000
v -477.8884764909744 388.35633087158203 77.0 1.000 1.000 1.000
v -478.8884764909744 438.35633087158203 66.0 1.000 1.000 1.000
v -602.8884764909744 413.35633087158203 -25.0 1.000 1.000 1.000
v -600.8884764909744 432.35633087158203 14.0 1.000 1.000 1.000
v -478.8884764909744 444.35633087158203 7.0 1.000 1.000 1.000
v -599.8884764909744 376.35633087158203 -31.0 1.000 1.000 1.000
v -480.8884764909744 397.35633087158203 -53.0 1.000 1.000 1.000
v -478.8884764909744 344.35633087158203 -13.0 1.000 1.000 1.000
v -603.8884764909744 367.35633087158203 46.0 1.000 1.000 1.000
v -602.8884764909744 361.35633087158203 12.0 1.000 1.000 1.000
v -478.8884764909744 348.35633087158203 60.0 1.000 1.000 1.000
v -602.8884764909744 361.35633087158203 12.0 1.000 1.000 1.000
v -599.8884764909744 376.35633087158203 -31.0 1.000 1.000 1.000
v -602.8884764909744 413.35633087158203 -25.0 1.000 1.000 1.000
v -600.8884764909744 432.35633087158203 14.0 1.000 1.000 1.000
v -601.8884764909744 423.35633087158203 40.0 1.000 1.000 1.000
v -603.8884764909744 367.35633087158203 46.0 1.000 1.000 1.000
v -665.0427733659744 367.6501748561859 8.0 1.000 1.000 1.000
v -660.0427733659744 371.6501748561859 -23.0 1.000 1.000 1.000
v -657.0427733659744 404.6501748561859 -27.0 1.000 1.000 1.000
v -657.0427733659744 421.6501748561859 7.0 1.000 1.000 1.000
v -658.0427733659744 416.6501748561859 42.0 1.000 1.000 1.000
v -662.0427733659744 364.6501748561859 38.0 1.000 1.000 1.000
v -396.8884764909744 430.35633087158203 6.0 1.000 1.000 1.000
v -397.8884764909744 396.35633087158203 -46.0 1.000 1.000 1.000
v -396.8884764909744 344.35633087158203 -10.0 1.000 1.000 1.000
v -396.8884764909744 351.35633087158203 51.0 1.000 1.000 1.000
v -395.8884764909744 389.35633087158203 58.0 1.000 1.000 1.000
v -396.8884764909744 427.35633087158203 49.0 1.000 1.000 1.000
v -478.8884764909744 444.35633087158203 7.0 1.000 1.000 1.000
v -480.8884764909744 397.35633087158203 -53.0 1.000 1.000 1.000
v -478.8884764909744 344.35633087158203 -13.0 1.000 1.000 1.000
v -478.8884764909744 348.35633087158203 60.0 1.000 1.000 1.000
v -477.8884764909744 388.35633087158203 77.0 1.000 1.000 1.000
v -478.8884764909744 438.35633087158203 66.0 1.000 1.000 1.000
v -396.8884764909744 332.35633087158203 85.0 1.000 1.000 1.000
v -401.8884764909744 433.35633087158203 89.0 1.000 1.000 1.000
v -672.8884764909744 365.35633087158203 42.0 1.000 1.000 1.000
v -672.8884764909744 372.35633087158203 -25.0 1.000 1.000 1.000
v -396.8884764909744 329.35633087158203 -28.0 1.000 1.000 1.000
v -673.8884764909744 428.35633087158203 42.0 1.000 1.000 1.000
v -400.8884764909744 445.35633087158203 -49.0 1.000 1.000 1.000
v -673.8884764909744 412.35633087158203 -27.0 1.000 1.000 1.000
v -307.31714165210724 353.31239318847656 59.0 1.000 1.000 1.000
v -227.31714165210724 313.31239318847656 -16.0 1.000 1.000 1.000
v -217.31714165210724 317.31239318847656 66.0 1.000 1.000 1.000
v -153.31714165210724 371.31239318847656 69.0 1.000 1.000 1.000
v -308.31714165210724 387.31239318847656 62.0 1.000 1.000 1.000
v -308.31714165210724 396.31239318847656 -47.0 1.000 1.000 1.000
v -104.31714165210724 395.31239318847656 11.0 1.000 1.000 1.000
v -138.31714165210724 364.31239318847656 -54.0 1.000 1.000 1.000
v -307.31714165210724 339.31239318847656 -10.0 1.000 1.000 1.000
v -306.31714165210724 421.31239318847656 55.0 1.000 1.000 1.000
v -295.31714165210724 424.31239318847656 7.0 1.000 1.000 1.000
v -421.154296875 239.29384398460388 68.0 1.000 1.000 1.000
v -420.154296875 226.29384398460388 -19.0 1.000 1.000 1.000
v -426.154296875 365.2938439846039 -50.0 1.000 1.000 1.000
v -425.154296875 384.2938439846039 27.0 1.000 1.000 1.000
v -426.154296875 343.2938439846039 75.0 1.000 1.000 1.000
v -227.31714165210724 313.31239318847656 -16.0 1.000 1.000 1.000
v -217.31714165210724 317.31239318847656 66.0 1.000 1.000 1.000
v -138.31714165210724 364.31239318847656 -54.0 1.000 1.000 1.000
v -104.31714165210724 395.31239318847656 11.0 1.000 1.000 1.000
v -153.31714165210724 371.31239318847656 69.0 1.000 1.000 1.000
v -295.31714165210724 424.31239318847656 7.0 1.000 1.000 1.000
v -308.31714165210724 396.31239318847656 -47.0 1.000 1.000 1.000
v -307.31714165210724 339.31239318847656 -10.0 1.000 1.000 1.000
v -307.31714165210724 353.31239318847656 59.0 1.000 1.000 1.000
v -308.31714165210724 387.31239318847656 62.0 1.000 1.000 1.000
v -306.31714165210724 421.31239318847656 55.0 1.000 1.000 1.000
v -396.8884764909744 430.35633087158203 6.0 1.000 1.000 1.000
v -397.8884764909744 396.35633087158203 -46.0 1.000 1.000 1.000
v -396.8884764909744 344.35633087158203 -10.0 1.000 1.000 1.000
v -396.8884764909744 351.35633087158203 51.0 1.000 1.000 1.000
v -395.8884764909744 389.35633087158203 58.0 1.000 1.000 1.000
v -396.8884764909744 427.35633087158203 49.0 1.000 1.000 1.000
v -152.31714165210724 415.31239318847656 68.0 1.000 1.000 1.000
v -88.31714165210724 318.31239318847656 66.0 1.000 1.000 1.000
v -63.31714165210724 314.31239318847656 -45.0 1.000 1.000 1.000
v -147.31714165210724 428.31239318847656 -33.0 1.000 1.000 1.000
v -397.31714165210724 332.31239318847656 85.0 1.000 1.000 1.000
v -63.31714165210724 314.31239318847656 -45.0 1.000 1.000 1.000
v -88.31714165210724 318.31239318847656 66.0 1.000 1.000 1.000
v -401.31714165210724 433.31239318847656 89.0 1.000 1.000 1.000
v -401.31714165210724 445.31239318847656 -49.0 1.000 1.000 1.000
v -397.31714165210724 329.31239318847656 -28.0 1.000 1.000 1.000
v 358.1729278564453 -28.758028000593185 -42.720797061920166 1.000 1.000 1.000
v 334.1729278564453 17.241971999406815 -27.720797061920166 1.000 1.000 1.000
v 369.1729278564453 -32.758028000593185 56.279202938079834 1.000 1.000 1.000
v 346.1729278564453 42.241971999406815 51.279202938079834 1.000 1.000 1.000
v 248.1729278564453 3.2419719994068146 -28.720797061920166 1.000 1.000 1.000
v 247.1729278564453 26.241971999406815 12.279202938079834 1.000 1.000 1.000
v 334.1729278564453 17.241971999406815 -27.720797061920166 1.000 1.000 1.000
v 246.1729278564453 16.241971999406815 40.279202938079834 1.000 1.000 1.000
v 346.1729278564453 42.241971999406815 51.279202938079834 1.000 1.000 1.000
v 250.1729278564453 -35.758028000593185 37.279202938079834 1.000 1.000 1.000
v 369.1729278564453 -32.758028000593185 56.279202938079834 1.000 1.000 1.000
v 246.1729278564453 16.241971999406815 40.279202938079834 1.000 1.000 1.000
v 346.1729278564453 42.241971999406815 51.279202938079834 1.000 1.000 1.000
v 251.1729278564453 -32.758028000593185 5.279202938079834 1.000 1.000 1.000
v 251.1729278564453 -30.758028000593185 -23.720797061920166 1.000 1.000 1.000
v 358.1729278564453 -28.758028000593185 -42.720797061920166 1.000 1.000 1.000
v 369.1729278564453 -32.758028000593185 56.279202938079834 1.000 1.000 1.000
v 250.1729278564453 -35.758028000593185 37.279202938079834 1.000 1.000 1.000
v 251.1729278564453 -32.758028000593185 5.279202938079834 1.000 1.000 1.000
v 358.1729278564453 -28.758028000593185 -42.720797061920166 1.000 1.000 1.000
v 334.1729278564453 17.241971999406815 -27.720797061920166 1.000 1.000 1.000
v 358.1729278564453 -28.758028000593185 -42.720797061920166 1.000 1.000 1.000
v 248.1729278564453 3.2419719994068146 -28.720797061920166 1.000 1.000 1.000
v 251.1729278564453 -30.758028000593185 -23.720797061920166 1.000 1.000 1.000
v 484.2745178937912 426.18710708618164 68.09696102142334 1.000 1.000 1.000
v 483.2745178937912 378.18710708618164 80.09696102142334 1.000 1.000 1.000
v 605.2745178937912 400.18710708618164 51.09696102142334 1.000 1.000 1.000
v 485.2745178937912 432.18710708618164 10.09696102142334 1.000 1.000 1.000
v 605.2745178937912 420.18710708618164 18.09696102142334 1.000 1.000 1.000
v 607.2745178937912 401.18710708618164 -18.90303897857666 1.000 1.000 1.000
v 486.2745178937912 340.18710708618164 -7.90303897857666 1.000 1.000 1.000
v 488.2745178937912 385.18710708618164 -50.90303897857666 1.000 1.000 1.000
v 605.2745178937912 365.18710708618164 -23.90303897857666 1.000 1.000 1.000
v 607.2745178937912 358.18710708618164 50.09696102142334 1.000 1.000 1.000
v 484.2745178937912 332.18710708618164 64.09696102142334 1.000 1.000 1.000
v 606.2745178937912 351.18710708618164 18.09696102142334 1.000 1.000 1.000
v 606.2745178937912 351.18710708618164 18.09696102142334 1.000 1.000 1.000
v 607.2745178937912 358.18710708618164 50.09696102142334 1.000 1.000 1.000
v 605.2745178937912 400.18710708618164 51.09696102142334 1.000 1.000 1.000
v 605.2745178937912 420.18710708618164 18.09696102142334 1.000 1.000 1.000
v 607.2745178937912 401.18710708618164 -18.90303897857666 1.000 1.000 1.000
v 605.2745178937912 365.18710708618164 -23.90303897857666 1.000 1.000 1.000
v 251.1729278564453 -32.758028000593185 5.279202938079834 1.000 1.000 1.000
v 251.1729278564453 -30.758028000593185 -23.720797061920166 1.000 1.000 1.000
v 250.1729278564453 -35.758028000593185 37.279202938079834 1.000 1.000 1.000
v 246.1729278564453 16.241971999406815 40.279202938079834 1.000 1.000 1.000
v 247.1729278564453 26.241971999406815 12.279202938079834 1.000 1.000 1.000
v 248.1729278564453 3.2419719994068146 -28.720797061920166 1.000 1.000 1.000
v 401.2745178937912 337.18710708618164 -6.90303897857666 1.000 1.000 1.000
v 406.2745178937912 383.18710708618164 -42.90303897857666 1.000 1.000 1.000
v 404.2745178937912 418.18710708618164 7.09696102142334 1.000 1.000 1.000
v 403.2745178937912 416.18710708618164 51.09696102142334 1.000 1.000 1.000
v 402.2745178937912 378.18710708618164 60.09696102142334 1.000 1.000 1.000
v 403.2745178937912 331.18710708618164 54.09696102142334 1.000 1.000 1.000
v 486.2745178937912 340.18710708618164 -7.90303897857666 1.000 1.000 1.000
v 488.2745178937912 385.18710708618164 -50.90303897857666 1.000 1.000 1.000
v 485.2745178937912 432.18710708618164 10.09696102142334 1.000 1.000 1.000
v 484.2745178937912 426.18710708618164 68.09696102142334 1.000 1.000 1.000
v 483.2745178937912 378.18710708618164 80.09696102142334 1.000 1.000 1.000
v 484.2745178937912 332.18710708618164 64.09696102142334 1.000 1.000 1.000
v 678.2745178937912 358.18710708618164 49.09696102142334 1.000 1.000 1.000
v 405.2745178937912 421.18710708618164 91.09696102142334 1.000 1.000 1.000
v 402.2745178937912 320.18710708618164 89.09696102142334 1.000 1.000 1.000
v 404.2745178937912 315.18710708618164 -24.90303897857666 1.000 1.000 1.000
v 679.2745178937912 363.18710708618164 -16.90303897857666 1.000 1.000 1.000
v 407.2745178937912 432.18710708618164 -46.90303897857666 1.000 1.000 1.000
v 679.2745178937912 421.18710708618164 48.09696102142334 1.000 1.000 1.000
v 680.2745178937912 403.18710708618164 -19.90303897857666 1.000 1.000 1.000
v 223.9320343732834 296.86842346191406 67.0 1.000 1.000 1.000
v 234.9320343732834 291.86842346191406 -14.0 1.000 1.000 1.000
v 313.9320343732834 341.86842346191406 61.0 1.000 1.000 1.000
v 314.9320343732834 375.86842346191406 63.0 1.000 1.000 1.000
v 158.9320343732834 350.86842346191406 68.0 1.000 1.000 1.000
v 146.9320343732834 341.86842346191406 -55.0 1.000 1.000 1.000
v 108.93203437328339 370.86842346191406 8.0 1.000 1.000 1.000
v 316.9320343732834 382.86842346191406 -46.0 1.000 1.000 1.000
v 314.9320343732834 317.86842346191406 -8.0 1.000 1.000 1.000
v 312.9320343732834 409.86842346191406 55.0 1.000 1.000 1.000
v 302.9320343732834 381.86842346191406 7.0 1.000 1.000 1.000
v -96.154296875 240.29384398460388 67.0 1.000 1.000 1.000
v -98.154296875 228.29384398460388 -17.0 1.000 1.000 1.000
v -94.154296875 364.2938439846039 -49.0 1.000 1.000 1.000
v -94.154296875 387.2938439846039 26.0 1.000 1.000 1.000
v -95.154296875 344.2938439846039 75.0 1.000 1.000 1.000
v 223.9320343732834 296.86842346191406 67.0 1.000 1.000 1.000
v 234.9320343732834 291.86842346191406 -14.0 1.000 1.000 1.000
v 146.9320343732834 341.86842346191406 -55.0 1.000 1.000 1.000
v 108.93203437328339 370.86842346191406 8.0 1.000 1.000 1.000
v 158.9320343732834 350.86842346191406 68.0 1.000 1.000 1.000
v 302.9320343732834 381.86842346191406 7.0 1.000 1.000 1.000
v 316.9320343732834 382.86842346191406 -46.0 1.000 1.000 1.000
v 314.9320343732834 317.86842346191406 -8.0 1.000 1.000 1.000
v 313.9320343732834 341.86842346191406 61.0 1.000 1.000 1.000
v 314.9320343732834 375.86842346191406 63.0 1.000 1.000 1.000
v 312.9320343732834 409.86842346191406 55.0 1.000 1.000 1.000
v 406.2745178937912 383.18710708618164 -42.90303897857666 1.000 1.000 1.000
v 404.2745178937912 418.18710708618164 7.09696102142334 1.000 1.000 1.000
v 401.2745178937912 337.18710708618164 -6.90303897857666 1.000 1.000 1.000
v 403.2745178937912 331.18710708618164 54.09696102142334 1.000 1.000 1.000
v 402.2745178937912 378.18710708618164 60.09696102142334 1.000 1.000 1.000
v 403.2745178937912 416.18710708618164 51.09696102142334 1.000 1.000 1.000
v 94.93203437328339 301.86842346191406 65.0 1.000 1.000 1.000
v 71.93203437328339 295.86842346191406 -47.0 1.000 1.000 1.000
v 402.9320343732834 320.86842346191406 89.0 1.000 1.000 1.000
v 404.9320343732834 421.86842346191406 91.0 1.000 1.000 1.000
v 157.9320343732834 397.86842346191406 66.0 1.000 1.000 1.000
v 155.9320343732834 409.86842346191406 -35.0 1.000 1.000 1.000
v 406.9320343732834 431.86842346191406 -47.0 1.000 1.000 1.000
v 404.9320343732834 315.86842346191406 -25.0 1.000 1.000 1.000
v 94.93203437328339 301.86842346191406 65.0 1.000 1.000 1.000
v 71.93203437328339 295.86842346191406 -47.0 1.000 1.000 1.000
v -321.154296875 222.29384398460388 -94.0 1.000 1.000 1.000
v -318.154296875 87.29384398460388 -65.0 1.000 1.000 1.000
v -365.154296875 86.29384398460388 -55.0 1.000 1.000 1.000
v -194.154296875 222.29384398460388 -95.0 1.000 1.000 1.000
v -302.154296875 358.2938439846039 -78.0 1.000 1.000 1.000
v -420.154296875 226.29384398460388 -19.0 1.000 1.000 1.000
v -426.154296875 365.2938439846039 -50.0 1.000 1.000 1.000
v -258.154296875 90.29384398460388 -68.0 1.000 1.000 1.000
v -94.154296875 364.2938439846039 -49.0 1.000 1.000 1.000
v -214.154296875 359.2938439846039 -78.0 1.000 1.000 1.000
v -198.154296875 87.29384398460388 -68.0 1.000 1.000 1.000
v -98.154296875 228.29384398460388 -17.0 1.000 1.000 1.000
v -155.154296875 87.29384398460388 -57.0 1.000 1.000 1.000
v -311.154296875 414.2938439846039 -52.0 1.000 1.000 1.000
v -206.154296875 414.2938439846039 -52.0 1.000 1.000 1.000
v -399.154296875 83.29384398460388 20.0 1.000 1.000 1.000
v -155.154296875 87.29384398460388 -57.0 1.000 1.000 1.000
v -98.154296875 228.29384398460388 -17.0 1.000 1.000 1.000
v -110.154296875 82.29384398460388 21.0 1.000 1.000 1.000
v -206.154296875 414.2938439846039 -52.0 1.000 1.000 1.000
v -94.154296875 364.2938439846039 -49.0 1.000 1.000 1.000
v -214.154296875 359.2938439846039 -78.0 1.000 1.000 1.000
v -302.154296875 358.2938439846039 -78.0 1.000 1.000 1.000
v -321.154296875 222.29384398460388 -94.0 1.000 1.000 1.000
v -426.154296875 365.2938439846039 -50.0 1.000 1.000 1.000
v -194.154296875 222.29384398460388 -95.0 1.000 1.000 1.000
v -258.154296875 90.29384398460388 -68.0 1.000 1.000 1.000
v -94.154296875 387.2938439846039 26.0 1.000 1.000 1.000
v -206.154296875 414.2938439846039 -52.0 1.000 1.000 1.000
v -208.154296875 424.2938439846039 0.0 1.000 1.000 1.000
v -95.154296875 344.2938439846039 75.0 1.000 1.000 1.000
v -258.154296875 231.29384398460388 140.0 1.000 1.000 1.000
v -137.154296875 217.29384398460388 127.0 1.000 1.000 1.000
v -382.154296875 217.29384398460388 127.0 1.000 1.000 1.000
v -399.154296875 83.29384398460388 20.0 1.000 1.000 1.000
v -328.154296875 92.29384398460388 119.0 1.000 1.000 1.000
v -310.154296875 423.2938439846039 0.0 1.000 1.000 1.000
v -311.154296875 414.2938439846039 -52.0 1.000 1.000 1.000
v -425.154296875 384.2938439846039 27.0 1.000 1.000 1.000
v -258.154296875 92.29384398460388 131.0 1.000 1.000 1.000
v -426.154296875 365.2938439846039 -50.0 1.000 1.000 1.000
v -185.154296875 92.29384398460388 119.0 1.000 1.000 1.000
v -206.154296875 414.2938439846039 -52.0 1.000 1.000 1.000
v -94.154296875 387.2938439846039 26.0 1.000 1.000 1.000
v -94.154296875 364.2938439846039 -49.0 1.000 1.000 1.000
v -96.154296875 240.29384398460388 67.0 1.000 1.000 1.000
v -96.154296875 240.29384398460388 67.0 1.000 1.000 1.000
v -137.154296875 217.29384398460388 127.0 1.000 1.000 1.000
v -110.154296875 82.29384398460388 21.0 1.000 1.000 1.000
v -258.154296875 231.29384398460388 140.0 1.000 1.000 1.000
v -382.154296875 217.29384398460388 127.0 1.000 1.000 1.000
v -328.154296875 92.29384398460388 119.0 1.000 1.000 1.000
v -426.154296875 343.2938439846039 75.0 1.000 1.000 1.000
v -421.154296875 239.29384398460388 68.0 1.000 1.000 1.000
v -399.154296875 83.29384398460388 20.0 1.000 1.000 1.000
v -98.154296875 228.29384398460388 -17.0 1.000 1.000 1.000
v -185.154296875 92.29384398460388 119.0 1.000 1.000 1.000
v -303.154296875 360.2938439846039 74.0 1.000 1.000 1.000
v -425.154296875 384.2938439846039 27.0 1.000 1.000 1.000
v -258.154296875 304.2938439846039 97.0 1.000 1.000 1.000
v -95.154296875 344.2938439846039 75.0 1.000 1.000 1.000
v -214.154296875 360.2938439846039 74.0 1.000 1.000 1.000
v -95.154296875 344.2938439846039 75.0 1.000 1.000 1.000
v -94.154296875 387.2938439846039 26.0 1.000 1.000 1.000
v -214.154296875 360.2938439846039 74.0 1.000 1.000 1.000
v -310.154296875 423.2938439846039 0.0 1.000 1.000 1.000
v -425.154296875 384.2938439846039 27.0 1.000 1.000 1.000
v -303.154296875 360.2938439846039 74.0 1.000 1.000 1.000
v -208.154296875 424.2938439846039 0.0 1.000 1.000 1.000
v -258.154296875 304.2938439846039 97.0 1.000 1.000 1.000
v -258.154296875 231.29384398460388 140.0 1.000 1.000 1.000
v -420.154296875 226.29384398460388 -19.0 1.000 1.000 1.000
v -399.154296875 83.29384398460388 20.0 1.000 1.000 1.000
v -421.154296875 239.29384398460388 68.0 1.000 1.000 1.000
v -259.154296875 362.2938439846039 66.0 1.000 1.000 1.000
v -310.154296875 423.2938439846039 0.0 1.000 1.000 1.000
v -303.154296875 360.2938439846039 74.0 1.000 1.000 1.000
v -258.154296875 304.2938439846039 97.0 1.000 1.000 1.000
v -259.154296875 362.2938439846039 66.0 1.000 1.000 1.000
v -258.154296875 304.2938439846039 97.0 1.000 1.000 1.000
v -214.154296875 360.2938439846039 74.0 1.000 1.000 1.000
v -208.154296875 424.2938439846039 0.0 1.000 1.000 1.000
v -136.7704039812088 87.76277160644531 20.0 1.000 1.000 1.000
v -96.7704039812088 95.76277160644531 -59.0 1.000 1.000 1.000
v -46.7704039812088 96.76277160644531 -64.0 1.000 1.000 1.000
v -0.7704039812088013 96.76277160644531 -63.0 1.000 1.000 1.000
v 43.2295960187912 96.76277160644531 -64.0 1.000 1.000 1.000
v 94.2295960187912 96.76277160644531 -62.0 1.000 1.000 1.000
v 144.2295960187912 90.76277160644531 21.0 1.000 1.000 1.000
v -399.154296875 83.29384398460388 20.0 1.000 1.000 1.000
v -365.154296875 86.29384398460388 -55.0 1.000 1.000 1.000
v -318.154296875 87.29384398460388 -65.0 1.000 1.000 1.000
v -258.154296875 90.29384398460388 -68.0 1.000 1.000 1.000
v -198.154296875 87.29384398460388 -68.0 1.000 1.000 1.000
v -155.154296875 87.29384398460388 -57.0 1.000 1.000 1.000
v -110.154296875 82.29384398460388 21.0 1.000 1.000 1.000
v 144.2295960187912 90.76277160644531 21.0 1.000 1.000 1.000
v 74.2295960187912 84.76277160644531 116.0 1.000 1.000 1.000
v -0.7704039812088013 79.76277160644531 122.0 1.000 1.000 1.000
v -71.7704039812088 81.76277160644531 113.0 1.000 1.000 1.000
v -136.7704039812088 87.76277160644531 20.0 1.000 1.000 1.000
v -110.154296875 82.29384398460388 21.0 1.000 1.000 1.000
v -185.154296875 92.29384398460388 119.0 1.000 1.000 1.000
v -258.154296875 92.29384398460388 131.0 1.000 1.000 1.000
v -328.154296875 92.29384398460388 119.0 1.000 1.000 1.000
v -399.154296875 83.29384398460388 20.0 1.000 1.000 1.000
v -400.154296875 -29.706156015396118 -35.0 1.000 1.000 1.000
v -120.154296875 -28.706156015396118 -37.0 1.000 1.000 1.000
v -389.154296875 -24.706156015396118 141.0 1.000 1.000 1.000
v -123.154296875 -24.706156015396118 141.0 1.000 1.000 1.000
v -47.154296875 399.2938439846039 -70.0 1.000 1.000 1.000
v -120.154296875 -28.706156015396118 -37.0 1.000 1.000 1.000
v -400.154296875 -29.706156015396118 -35.0 1.000 1.000 1.000
v -466.154296875 397.2938439846039 -72.0 1.000 1.000 1.000
v -68.154296875 360.2938439846039 148.0 1.000 1.000 1.000
v -466.154296875 397.2938439846039 -72.0 1.000 1.000 1.000
v -446.154296875 356.2938439846039 147.0 1.000 1.000 1.000
v -68.154296875 360.2938439846039 148.0 1.000 1.000 1.000
v -389.154296875 -24.706156015396118 141.0 1.000 1.000 1.000
v -123.154296875 -24.706156015396118 141.0 1.000 1.000 1.000
v -47.154296875 399.2938439846039 -70.0 1.000 1.000 1.000
v -400.154296875 -29.706156015396118 -35.0 1.000 1.000 1.000
v -389.154296875 -24.706156015396118 141.0 1.000 1.000 1.000
v -466.154296875 397.2938439846039 -72.0 1.000 1.000 1.000
v -120.154296875 -28.706156015396118 -37.0 1.000 1.000 1.000
v -47.154296875 399.2938439846039 -70.0 1.000 1.000 1.000
v -123.154296875 -24.706156015396118 141.0 1.000 1.000 1.000
v -68.154296875 360.2938439846039 148.0 1.000 1.000 1.000
v -446.154296875 356.2938439846039 147.0 1.000 1.000 1.000
v -389.154296875 -24.706156015396118 141.0 1.000 1.000 1.000
v -466.154296875 397.2938439846039 -72.0 1.000 1.000 1.000
v -68.154296875 360.2938439846039 148.0 1.000 1.000 1.000
v -132.0 11.0 20.0 1.000 1.000 1.000
v -113.0 -59.0 -70.0 1.000 1.000 1.000
v -138.0 -36.0 13.0 1.000 1.000 1.000
v 90.0 20.0 -62.0 1.000 1.000 1.000
v 137.0 14.0 21.0 1.000 1.000 1.000
v 115.0 -60.0 -70.0 1.000 1.000 1.000
v -47.0 19.0 -62.0 1.000 1.000 1.000
v -1.0 20.0 -63.0 1.000 1.000 1.000
v -1.0 -54.0 -89.0 1.000 1.000 1.000
v -1.0 -173.0 -73.0 1.000 1.000 1.000
v -1.0 -219.0 88.0 1.000 1.000 1.000
v -21.0 -190.0 -25.0 1.000 1.000 1.000
v -1.0 -173.0 -73.0 1.000 1.000 1.000
v -1.0 -54.0 -89.0 1.000 1.000 1.000
v 34.0 -176.0 -90.0 1.000 1.000 1.000
v -113.0 -59.0 -70.0 1.000 1.000 1.000
v -1.0 -54.0 -89.0 1.000 1.000 1.000
v -36.0 -176.0 -89.0 1.000 1.000 1.000
v -1.0 -173.0 -73.0 1.000 1.000 1.000
v 22.0 -190.0 -25.0 1.000 1.000 1.000
v -1.0 -219.0 88.0 1.000 1.000 1.000
v -1.0 -173.0 -73.0 1.000 1.000 1.000
v -1.0 20.0 -63.0 1.000 1.000 1.000
v 43.0 20.0 -63.0 1.000 1.000 1.000
v -1.0 -54.0 -89.0 1.000 1.000 1.000
v 115.0 -60.0 -70.0 1.000 1.000 1.000
v 34.0 -176.0 -90.0 1.000 1.000 1.000
v 115.0 -60.0 -70.0 1.000 1.000 1.000
v 137.0 14.0 21.0 1.000 1.000 1.000
v 142.0 -36.0 13.0 1.000 1.000 1.000
v -47.0 19.0 -62.0 1.000 1.000 1.000
v -1.0 -54.0 -89.0 1.000 1.000 1.000
v -113.0 -59.0 -70.0 1.000 1.000 1.000
v -132.0 11.0 20.0 1.000 1.000 1.000
v -95.0 19.0 -59.0 1.000 1.000 1.000
v 90.0 20.0 -62.0 1.000 1.000 1.000
v 115.0 -60.0 -70.0 1.000 1.000 1.000
v 43.0 20.0 -63.0 1.000 1.000 1.000
v -1.0 -173.0 -73.0 1.000 1.000 1.000
v -21.0 -190.0 -25.0 1.000 1.000 1.000
v -36.0 -176.0 -89.0 1.000 1.000 1.000
v 34.0 -176.0 -90.0 1.000 1.000 1.000
v 22.0 -190.0 -25.0 1.000 1.000 1.000
v 91.0 -112.0 106.0 1.000 1.000 1.000
v 142.0 -36.0 13.0 1.000 1.000 1.000
v 137.0 14.0 21.0 1.000 1.000 1.000
v -42.0 -168.0 103.0 1.000 1.000 1.000
v -1.0 -219.0 88.0 1.000 1.000 1.000
v 41.0 -168.0 104.0 1.000 1.000 1.000
v -90.0 -114.0 107.0 1.000 1.000 1.000
v 41.0 -168.0 104.0 1.000 1.000 1.000
v 91.0 -112.0 106.0 1.000 1.000 1.000
v -71.0 4.0 113.0 1.000 1.000 1.000
v -90.0 -114.0 107.0 1.000 1.000 1.000
v 0.0 2.0 122.0 1.000 1.000 1.000
v -132.0 11.0 20.0 1.000 1.000 1.000
v -138.0 -36.0 13.0 1.000 1.000 1.000
v 91.0 -112.0 106.0 1.000 1.000 1.000
v 69.0 7.0 116.0 1.000 1.000 1.000
v -42.0 -168.0 103.0 1.000 1.000 1.000
v 137.0 14.0 21.0 1.000 1.000 1.000
v -132.0 11.0 20.0 1.000 1.000 1.000
v -95.0 19.0 -59.0 1.000 1.000 1.000
v -47.0 19.0 -62.0 1.000 1.000 1.000
v -1.0 20.0 -63.0 1.000 1.000 1.000
v 43.0 20.0 -63.0 1.000 1.000 1.000
v 90.0 20.0 -62.0 1.000 1.000 1.000
v 137.0 14.0 21.0 1.000 1.000 1.000
v -136.7704039812088 87.76277160644531 20.0 1.000 1.000 1.000
v -96.7704039812088 95.76277160644531 -59.0 1.000 1.000 1.000
v -46.7704039812088 96.76277160644531 -64.0 1.000 1.000 1.000
v -0.7704039812088013 96.76277160644531 -63.0 1.000 1.000 1.000
v 43.2295960187912 96.76277160644531 -64.0 1.000 1.000 1.000
v 94.2295960187912 96.76277160644531 -62.0 1.000 1.000 1.000
v 144.2295960187912 90.76277160644531 21.0 1.000 1.000 1.000
v 137.0 14.0 21.0 1.000 1.000 1.000
v 69.0 7.0 116.0 1.000 1.000 1.000
v 0.0 2.0 122.0 1.000 1.000 1.000
v -71.0 4.0 113.0 1.000 1.000 1.000
v -132.0 11.0 20.0 1.000 1.000 1.000
v 144.2295960187912 90.76277160644531 21.0 1.000 1.000 1.000
v 74.2295960187912 84.76277160644531 116.0 1.000 1.000 1.000
v -0.7704039812088013 79.76277160644531 122.0 1.000 1.000 1.000
v -71.7704039812088 81.76277160644531 113.0 1.000 1.000 1.000
v -136.7704039812088 87.76277160644531 20.0 1.000 1.000 1.000
v -172.0 -231.0 -80.0 1.000 1.000 1.000
v -142.0 40.0 -35.0 1.000 1.000 1.000
v 138.0 41.0 -37.0 1.000 1.000 1.000
v 169.0 -233.0 -80.0 1.000 1.000 1.000
v -131.0 45.0 141.0 1.000 1.000 1.000
v -155.0 -231.0 132.0 1.000 1.000 1.000
v 156.0 -231.0 143.0 1.000 1.000 1.000
v -142.0 40.0 -35.0 1.000 1.000 1.000
v -172.0 -231.0 -80.0 1.000 1.000 1.000
v 169.0 -233.0 -80.0 1.000 1.000 1.000
v 138.0 41.0 -37.0 1.000 1.000 1.000
v 156.0 -231.0 143.0 1.000 1.000 1.000
v 135.0 45.0 141.0 1.000 1.000 1.000
v 135.0 45.0 141.0 1.000 1.000 1.000
v 135.0 45.0 141.0 1.000 1.000 1.000
v 138.0 41.0 -37.0 1.000 1.000 1.000
v -142.0 40.0 -35.0 1.000 1.000 1.000
v -131.0 45.0 141.0 1.000 1.000 1.000
v 135.0 45.0 141.0 1.000 1.000 1.000
v 169.0 -233.0 -80.0 1.000 1.000 1.000
v 156.0 -231.0 143.0 1.000 1.000 1.000
v -155.0 -231.0 132.0 1.000 1.000 1.000
v -172.0 -231.0 -80.0 1.000 1.000 1.000
vt 0.0143 0.9629
vt 0.0404 0.9629
vt 0.9655 0.9727
vt 1.0026 0.9727
vt 0.9089 0.7861
vt 0.3073 0.4590
vt 0.0671 0.4258
vt 1.0163 0.7969
vt 0.0632 0.4336
vt 0.2533 0.4287
vt 0.4043 0.4316
vt 0.2005 0.4668
vt 0.3359 0.6979
vt 0.4141 0.8275
vt 0.6572 0.8281
vt 0.1543 0.6947
vt 0.4131 0.6979
vt 0.4814 0.8190
vt 0.3447 0.8223
vt 0.7422 0.6973
vt 0.9102 0.6966
vt 0.6768 0.8158
vt 0.5889 0.6986
vt 0.8096 0.8229
vt 0.4639 0.9837
vt 0.4629 0.9818
vt 0.7568 0.9772
vt 0.5645 0.9779
vt 0.7842 0.9772
vt 0.8086 0.9772
vt 0.1650 0.5462
vt 0.3643 0.5456
vt 0.6514 0.5462
vt 0.8740 0.5410
vt 0.6875 0.5501
vt 0.3086 0.5495
vt 0.2031 0.9805
vt 0.9395 0.9759
vt 0.9512 0.9805
vt 0.1191 0.9609
vt 0.6123 0.5671
vt 0.1123 0.5671
vt 0.4902 0.5697
vt 0.9326 0.5690
vt 0.0312 0.1764
vt 0.0625 0.3405
vt 0.1084 0.1921
vt 0.1602 0.3522
vt 0.5127 0.2324
vt 0.5244 0.3516
vt 0.8525 0.2695
vt 0.8623 0.3236
vt 0.7334 0.1680
vt 0.7285 0.3307
vt 0.3252 0.1660
vt 0.3555 0.3281
vt 0.7773 0.1641
vt 0.8906 0.1921
vt 0.2588 0.0358
vt 0.6914 0.1497
vt 0.5020 0.2324
vt 0.3926 0.0892
vt 0.1191 0.0124
vt 0.6582 0.1426
vt 0.1670 0.5462
vt 0.9258 0.1784
vt 0.7188 0.1777
vt 0.5713 0.1777
vt 0.1406 0.1797
vt 0.9779 0.9395
vt 0.0625 0.9658
vt 0.0339 0.9668
vt 1.0195 0.9375
vt 0.1868 0.2246
vt 0.8730 0.6758
vt 0.9837 0.6904
vt -0.0566 0.1943
vt -0.0592 0.2061
vt 0.2793 0.1895
vt 0.1439 0.1914
vt 0.0592 0.2402
vt 0.6719 0.8353
vt 0.4414 0.8366
vt 0.3594 0.7090
vt 0.5049 0.8281
vt 0.4355 0.7090
vt 0.1934 0.7070
vt 0.3760 0.8320
vt 0.6895 0.8236
vt 0.9102 0.7038
vt 0.7559 0.7057
vt 0.6064 0.7083
vt 0.8115 0.8294
vt 0.7812 0.9837
vt 0.5195 0.9889
vt 0.5156 0.9909
vt 0.5977 0.9857
vt 0.8350 0.9831
vt 0.8066 0.9831
vt 0.1963 0.5592
vt 0.3848 0.5579
vt 0.6543 0.5547
vt 0.8809 0.5501
vt 0.6846 0.5592
vt 0.3262 0.5612
vt 0.3652 0.9382
vt 1.0273 0.9609
vt 1.0176 0.9564
vt 0.4346 0.9622
vt 0.7158 0.4694
vt 0.6191 0.4720
vt 0.3203 0.4694
vt 0.9697 0.4707
vt 0.7334 0.1810
vt 0.7422 0.3418
vt 0.8545 0.2812
vt 0.8662 0.3340
vt 0.5098 0.2461
vt 0.5371 0.3646
vt 0.1279 0.2077
vt 0.1914 0.3678
vt 0.0479 0.1940
vt 0.0850 0.3568
vt 0.3350 0.1816
vt 0.3711 0.3424
vt 0.8965 0.2038
vt 0.7725 0.1764
vt 0.7041 0.1634
vt 0.2539 0.0534
vt 0.3887 0.1029
vt 0.1074 0.0306
vt 0.6641 0.1556
vt 0.1992 0.5592
vt 0.7598 0.0052
vt 0.9238 0.0059
vt 0.6436 0.0052
vt 0.3027 0.0078
vt 0.8906 0.5674
vt 0.8184 0.2051
vt 0.7422 0.3281
vt 0.4922 0.9277
vt 0.4844 0.5391
vt 0.3193 0.4902
vt 0.6348 0.4639
vt 0.0596 0.6416
vt 0.1172 0.2656
vt 0.1201 0.2871
vt 0.8145 0.2266
vt 0.7041 0.4023
vt 0.1768 0.3760
vt 0.2402 0.4395
vt -0.1953 0.8506
vt -0.0557 1.4834
vt -0.2480 1.5986
vt 0.8174 0.8408
vt 0.4492 1.4785
vt 0.7871 0.9717
vt 0.5791 1.5898
vt -0.2051 0.9863
vt 0.9590 -0.1299
vt 0.1523 -0.5674
vt -0.0166 -0.1484
vt 0.9326 -0.8115
vt 0.1123 0.4570
vt 0.7744 0.1240
vt 0.4580 0.8047
vt 0.7520 0.6836
vt 0.1641 0.9209
vt 0.1895 0.1504
vt 1.0352 0.9316
vt 0.8213 0.1426
vt 0.0908 0.8242
vt 0.5332 1.0078
vt 0.2393 1.0488
vt 0.0293 0.2334
vt 1.0166 0.2461
vt 0.8486 1.0146
vt 0.2217 1.1250
vt 0.7666 0.0615
vt 0.0762 0.4639
vt 0.7197 0.9473
vt 0.5146 0.8965
vt 0.6279 0.6888
vt 0.3057 0.7109
vt 0.5820 0.8939
vt 0.4561 0.8991
vt 0.2656 0.7135
vt 0.8174 0.8750
vt 0.5693 0.6973
vt 0.9150 0.6738
vt 0.8779 0.8770
vt 0.9219 0.8724
vt 0.8906 0.6738
vt 0.9346 0.9727
vt 0.9072 0.9668
vt 0.6855 0.9759
vt 0.5752 0.9831
vt 0.6074 0.9824
vt 0.9541 0.9674
vt 0.2793 0.5801
vt 0.5010 0.5684
vt 0.8408 0.5462
vt 0.7939 0.5475
vt 0.5459 0.5618
vt 0.3008 0.5788
vt 0.8320 0.5215
vt 0.2510 0.5189
vt 0.7764 0.9551
vt 0.7383 0.9544
vt 0.8486 0.5215
vt 0.4121 0.9518
vt 0.1787 0.5169
vt 0.5059 0.9531
vt 0.7070 0.4186
vt 0.8955 0.2780
vt 0.8613 0.2637
vt 0.4502 0.1855
vt 0.4863 0.4342
vt 0.4307 0.4388
vt 0.2500 0.1191
vt 0.4805 0.1602
vt 0.7979 0.4128
vt 0.2666 0.4447
vt 0.2334 0.4297
vt 0.9141 0.2578
vt 0.9355 0.2780
vt 0.7666 0.0638
vt 0.7568 0.0332
vt 0.7852 0.0977
vt 0.2314 0.1250
vt 0.7568 0.0339
vt 0.7676 -0.0052
vt 0.1533 0.1165
vt 0.9561 -0.1689
vt 0.8008 -0.5107
vt 0.0215 -0.2061
vt 0.0566 -0.7471
vt 0.2793 1.0889
vt 0.5820 1.0195
vt 0.1504 0.3760
vt 0.7891 0.9717
vt 0.7109 0.1309
vt 0.6689 0.0332
vt 0.9414 0.9062
vt 0.1260 0.0996
vt 0.1182 0.8730
vt 0.5928 1.1484
vt 0.8564 1.1104
vt 0.9736 0.2686
vt 0.0811 0.3037
vt 0.3076 1.1895
vt 0.1211 0.5127
vt 0.7656 0.0723
vt 0.2100 1.1055
vt 0.6670 0.8916
vt 0.2480 0.7142
vt 0.5996 0.6934
vt 0.5449 0.8932
vt 0.2041 0.7168
vt 0.3955 0.9004
vt 0.5293 0.8952
vt 0.8623 0.6816
vt 0.5352 0.7012
vt 0.7803 0.8776
vt 0.8438 0.8796
vt 0.9258 0.6771
vt 0.8906 0.8757
vt 0.8789 0.9707
vt 0.8545 0.9720
vt 0.9043 0.9701
vt 0.5225 0.9844
vt 0.4512 0.9883
vt 0.6104 0.9798
vt 0.8076 0.5456
vt 0.4736 0.5723
vt 0.2295 0.5833
vt 0.2529 0.5820
vt 0.5234 0.5658
vt 0.8574 0.5488
vt 0.2686 0.9212
vt 0.8154 0.5143
vt 0.2275 0.5059
vt 0.2109 0.5059
vt 0.3066 0.9212
vt 0.8887 0.5143
vt 0.6377 0.9251
vt 0.5420 0.9245
vt 0.9561 0.2630
vt 0.9932 0.2767
vt 0.7119 0.4212
vt 0.4678 0.4368
vt 0.5107 0.1823
vt 0.5449 0.1569
vt 0.3115 0.1100
vt 0.4062 0.4408
vt 0.8770 0.4128
vt 0.2236 0.4473
vt 0.4033 0.4199
vt 0.9932 0.2565
vt 1.0215 0.2734
vt 0.8721 0.0612
vt 0.8496 0.0247
vt 0.8936 0.0924
vt 0.3232 0.0417
vt 0.3164 0.0033
vt 0.8447 0.1406
vt 0.9238 0.1348
vt 0.7021 0.3288
vt 0.6914 0.5404
vt 0.8418 0.5430
vt 0.2920 0.3275
vt 0.6416 0.1146
vt 1.0176 0.3229
vt 1.0391 0.1048
vt 0.4971 0.5365
vt -0.0273 0.1022
vt 0.3564 0.1126
vt 0.3057 0.5397
vt -0.0146 0.3164
vt 0.1670 0.5391
vt 0.6611 0.0371
vt 0.3398 0.0365
vt 0.9502 0.5488
vt 0.0234 0.5469
vt 0.8896 0.1009
vt 0.6016 0.0723
vt 0.5967 0.0521
vt 0.8896 0.1641
vt 0.4814 0.3301
vt 0.7881 0.3509
vt 0.1709 0.3503
vt 0.1318 0.5475
vt 0.3105 0.5339
vt 0.3506 0.0527
vt 0.3496 0.0723
vt 0.0566 0.1055
vt 0.4854 0.5332
vt 0.0537 0.1341
vt 0.6699 0.5332
vt 0.8896 0.1348
vt 0.8896 0.3177
vt 0.8594 0.5482
vt 0.0537 0.1654
vt 0.0703 0.3177
vt 0.8838 0.3340
vt 0.3643 0.1211
vt 0.4785 0.2233
vt 0.5889 0.1198
vt 0.0742 0.3372
vt 0.4766 0.1377
vt 0.4785 0.2236
vt 0.5889 0.1201
vt 0.5967 0.0518
vt 0.9180 0.6497
vt 0.8086 0.6380
vt 0.6504 0.6354
vt 0.5020 0.6354
vt 0.3594 0.6341
vt 0.1953 0.6341
vt 0.0557 0.6426
vt 0.8350 0.6367
vt 0.6748 0.6465
vt 0.4863 0.6536
vt 0.3066 0.6510
vt 0.1592 0.6413
vt 0.0342 0.5703
vt 0.9307 0.5658
vt 0.0859 0.6146
vt 0.9404 0.6120
vt -0.0205 0.0749
vt 0.1680 0.6165
vt 0.8447 0.6217
vt 0.9932 0.0840
vt 0.9268 0.1608
vt 0.0068 0.1185
vt 0.0537 0.1673
vt 0.1836 0.6191
vt 0.7998 0.6178
vt 0.9746 0.1139
vt 0.1602 0.6257
vt 0.8066 0.6230
vt 0.9238 0.7708
vt 0.8623 0.8815
vt 0.9434 0.8451
vt 0.2100 0.7539
vt 0.0586 0.7637
vt 0.1299 0.8802
vt 0.6504 0.7578
vt 0.5029 0.7565
vt 0.5029 0.8724
vt 0.5117 0.9154
vt 0.5088 0.9870
vt 0.5732 0.9421
vt 0.5371 1.0117
vt 0.5361 0.8249
vt 0.4219 1.0163
vt 0.8955 0.8333
vt 0.6484 1.0163
vt 0.4365 0.9421
vt 0.3604 0.7552
vt 0.1621 0.8327
vt 0.0430 0.8418
vt 0.8047 0.7591
vt 0.6230 0.9193
vt 0.3965 0.9193
vt 0.7236 0.9336
vt 0.8486 0.8223
vt 0.8350 0.7493
vt 0.3906 0.9251
vt 0.4971 0.9993
vt 0.6016 0.9251
vt 0.2666 0.9076
vt 0.5986 0.9870
vt 0.7227 0.9036
vt 0.3096 0.7650
vt 0.2676 0.9375
vt 0.4902 0.7669
vt 0.1572 0.7539
vt 0.1436 0.8229
vt 0.6631 0.7598
vt 0.3877 0.9870
vt 0.9268 0.9642
vt 0.0996 0.9609
vt 0.1289 0.9479
vt 0.8477 0.9460
vt 0.0889 0.9479
vt 0.8789 0.9479
vn -0.390 0.755 -0.528
vn -0.843 -0.511 -0.166
vn -0.797 0.598 0.086
vn -0.462 -0.865 0.195
vn -0.577 -0.577 -0.577
vn -0.577 -0.577 -0.577
vn 0.577 0.577 0.577
vn -0.577 -0.577 -0.577
vn -0.577 -0.577 -0.577
vn -0.577 -0.577 -0.577
vn -0.577 -0.577 -0.577
vn -0.577 -0.577 -0.577
vn 0.577 0.577 0.577
vn 0.577 0.577 0.577
vn 0.577 0.577 0.577
vn 0.577 0.577 0.577
vn -0.577 -0.577 -0.577
vn 0.577 0.577 0.577
vn 0.577 0.577 0.577
vn 0.577 0.577 0.577
vn 0.577 0.577 0.577
vn 0.577 0.577 0.577
vn 0.577 0.577 0.577
vn 0.577 0.577 0.577
vn 0.577 0.577 0.577
vn 0.577 0.577 0.577
vn 0.577 0.577 0.577
vn 0.577 0.577 0.577
vn 0.577 0.577 0.577
vn 0.577 0.577 0.577
vn -0.577 -0.577 -0.577
vn -0.577 -0.577 -0.577
vn -0.577 -0.577 -0.577
vn -0.577 -0.577 -0.577
vn -0.577 -0.577 -0.577
vn 0.577 0.577 0.577
vn 0.577 0.577 0.577
vn 0.577 0.577 0.577
vn 0.577 0.577 0.577
vn 0.577 0.577 0.577
vn -0.577 -0.577 -0.577
vn 0.577 0.577 0.577
vn 0.577 0.577 0.577
vn 0.577 0.577 0.577
vn -0.577 -0.577 -0.577
vn 0.577 0.577 0.577
vn 0.577 0.577 0.577
vn 0.577 0.577 0.577
vn -0.577 -0.577 -0.577
vn -0.577 -0.577 -0.577
vn -0.577 -0.577 -0.577
vn -0.577 -0.577 -0.577
vn -0.577 -0.577 -0.577
vn 0.577 0.577 0.577
vn 0.577 0.577 0.577
vn -0.577 -0.577 -0.577
vn -0.577 -0.577 -0.577
vn -0.577 -0.577 -0.577
vn -0.577 -0.577 -0.577
vn -0.577 -0.577 -0.577
vn -0.577 -0.577 -0.577
vn -0.577 -0.577 -0.577
vn -0.577 -0.577 -0.577
vn -0.577 -0.577 -0.577
vn 0.577 0.577 0.577
vn 0.577 0.577 0.577
vn -0.577 -0.577 -0.577
vn -0.577 -0.577 -0.577
vn -0.577 -0.577 -0.577
vn -0.577 -0.577 -0.577
vn -0.577 -0.577 -0.577
vn 0.577 0.577 0.577
vn -0.577 -0.577 -0.577
vn -0.577 -0.577 -0.577
vn -0.577 -0.577 -0.577
vn 0.577 0.577 0.577
vn -0.577 -0.577 -0.577
vn 0.577 0.577 0.577
vn -0.577 -0.577 -0.577
vn -0.577 -0.577 -0.577
vn -0.577 -0.577 -0.577
vn -0.577 -0.577 -0.577
vn -0.577 -0.577 -0.577
vn -0.577 -0.577 -0.577
vn -0.577 -0.577 -0.577
vn -0.577 -0.577 -0.577
vn 0.577 0.577 0.577
vn -0.577 -0.577 -0.577
vn -0.577 -0.577 -0.577
vn 0.577 0.577 0.577
vn 0.577 0.577 0.577
vn 0.577 0.577 0.577
vn 0.577 0.577 0.577
vn -0.577 -0.577 -0.577
vn 0.577 0.577 0.577
vn -0.577 -0.577 -0.577
vn -0.577 -0.577 -0.577
vn -0.577 -0.577 -0.577
vn -0.577 -0.577 -0.577
vn -0.577 -0.577 -0.577
vn 0.577 0.577 0.577
vn 0.577 0.577 0.577
vn 0.577 0.577 0.577
vn -0.577 -0.577 -0.577
vn -0.577 -0.577 -0.577
vn -0.577 -0.577 -0.577
vn -0.577 -0.577 -0.577
vn -0.577 -0.577 -0.577
vn -0.577 -0.577 -0.577
vn 0.785 0.614 0.081
vn 0.844 -0.512 -0.161
vn 0.369 0.766 -0.527
vn 0.469 -0.861 0.197
vn -0.577 -0.577 -0.577
vn -0.577 -0.577 -0.577
vn -0.577 -0.577 -0.577
vn 0.577 0.577 0.577
vn -0.577 -0.577 -0.577
vn -0.577 -0.577 -0.577
vn -0.577 -0.577 -0.577
vn -0.577 -0.577 -0.577
vn 0.577 0.577 0.577
vn 0.577 0.577 0.577
vn -0.577 -0.577 -0.577
vn 0.577 0.577 0.577
vn -0.577 -0.577 -0.577
vn -0.577 -0.577 -0.577
vn 0.577 0.577 0.577
vn 0.577 0.577 0.577
vn 0.577 0.577 0.577
vn 0.577 0.577 0.577
vn -0.577 -0.577 -0.577
vn 0.577 0.577 0.577
vn 0.577 0.577 0.577
vn 0.577 0.577 0.577
vn 0.577 0.577 0.577
vn 0.577 0.577 0.577
vn 0.577 0.577 0.577
vn 0.577 0.577 0.577
vn -0.577 -0.577 -0.577
vn -0.577 -0.577 -0.577
vn -0.577 -0.577 -0.577
vn -0.577 -0.577 -0.577
vn 0.577 0.577 0.577
vn -0.577 -0.577 -0.577
vn -0.577 -0.577 -0.577
vn -0.577 -0.577 -0.577
vn 0.577 0.577 0.577
vn 0.577 0.577 0.577
vn -0.577 -0.577 -0.577
vn -0.577 -0.577 -0.577
vn -0.577 -0.577 -0.577
vn -0.577 -0.577 -0.577
vn -0.577 -0.577 -0.577
vn 0.577 0.577 0.577
vn 0.577 0.577 0.577
vn -0.577 -0.577 -0.577
vn -0.577 -0.577 -0.577
vn -0.577 -0.577 -0.577
vn -0.577 -0.577 -0.577
vn -0.577 -0.577 -0.577
vn -0.577 -0.577 -0.577
vn 0.577 0.577 0.577
vn 0.577 0.577 0.577
vn -0.577 -0.577 -0.577
vn -0.577 -0.577 -0.577
vn -0.577 -0.577 -0.577
vn -0.577 -0.577 -0.577
vn -0.577 -0.577 -0.577
vn 0.577 0.577 0.577
vn 0.577 0.577 0.577
vn -0.577 -0.577 -0.577
vn -0.577 -0.577 -0.577
vn -0.577 -0.577 -0.577
vn -0.577 -0.577 -0.577
vn -0.577 -0.577 -0.577
vn -0.577 -0.577 -0.577
vn -0.577 -0.577 -0.577
vn -0.577 -0.577 -0.577
vn 0.577 0.577 0.577
vn -0.577 -0.577 -0.577
vn -0.577 -0.577 -0.577
vn -0.577 -0.577 -0.577
vn -0.577 -0.577 -0.577
vn 0.577 0.577 0.577
vn -0.577 -0.577 -0.577
vn 0.577 0.577 0.577
vn -0.577 -0.577 -0.577
vn -0.577 -0.577 -0.577
vn -0.577 -0.577 -0.577
vn -0.577 -0.577 -0.577
vn -0.577 -0.577 -0.577
vn -0.577 -0.577 -0.577
vn -0.577 -0.577 -0.577
vn -0.577 -0.577 -0.577
vn 0.577 0.577 0.577
vn -0.577 -0.577 -0.577
vn -0.577 -0.577 -0.577
vn -0.577 -0.577 -0.577
vn -0.577 -0.577 -0.577
vn 0.577 0.577 0.577
vn 0.577 0.577 0.577
vn -0.577 -0.577 -0.577
vn -0.577 -0.577 -0.577
vn -0.577 -0.577 -0.577
vn -0.577 -0.577 -0.577
vn -0.577 -0.577 -0.577
vn -0.577 -0.577 -0.577
vn -0.577 -0.577 -0.577
vn 0.577 0.577 0.577
vn 0.577 0.577 0.577
vn 0.577 0.577 0.577
vn -0.577 -0.577 -0.577
vn -0.577 -0.577 -0.577
vn -0.577 -0.577 -0.577
vn -0.577 -0.577 -0.577
vn -0.577 -0.577 -0.577
vn -0.577 -0.577 -0.577
vn -0.577 -0.577 -0.577
vn -0.577 -0.577 -0.577
vn -0.577 -0.577 -0.577
vn -0.577 -0.577 -0.577
vn -0.577 -0.577 -0.577
vn -0.577 -0.577 -0.577
vn -0.577 -0.577 -0.577
vn -0.577 -0.577 -0.577
vn -0.577 -0.577 -0.577
vn -0.577 -0.577 -0.577
vn -0.577 -0.577 -0.577
vn -0.577 -0.577 -0.577
vn -0.577 -0.577 -0.577
vn -0.577 -0.577 -0.577
vn -0.577 -0.577 -0.577
vn -0.577 -0.577 -0.577
vn -0.577 -0.577 -0.577
vn -0.577 -0.577 -0.577
vn -0.577 -0.577 -0.577
vn -0.577 -0.577 -0.577
vn -0.577 -0.577 -0.577
vn -0.577 -0.577 -0.577
vn -0.577 -0.577 -0.577
vn -0.577 -0.577 -0.577
vn -0.577 -0.577 -0.577
vn -0.577 -0.577 -0.577
vn -0.577 -0.577 -0.577
vn -0.577 -0.577 -0.577
vn -0.577 -0.577 -0.577
vn -0.577 -0.577 -0.577
vn -0.577 -0.577 -0.577
vn -0.577 -0.577 -0.577
vn -0.577 -0.577 -0.577
vn -0.577 -0.577 -0.577
vn -0.577 -0.577 -0.577
vn -0.577 -0.577 -0.577
vn -0.577 -0.577 -0.577
vn -0.577 -0.577 -0.577
vn -0.577 -0.577 -0.577
vn -0.577 -0.577 -0.577
vn -0.577 -0.577 -0.577
vn -0.577 -0.577 -0.577
vn -0.577 -0.577 -0.577
vn -0.577 -0.577 -0.577
vn -0.577 -0.577 -0.577
vn -0.577 -0.577 -0.577
vn -0.577 -0.577 -0.577
vn -0.577 -0.577 -0.577
vn -0.577 -0.577 -0.577
vn -0.577 -0.577 -0.577
vn -0.577 -0.577 -0.577
vn -0.577 -0.577 -0.577
vn -0.577 -0.577 -0.577
vn -0.577 -0.577 -0.577
vn 0.577 0.577 0.577
vn -0.577 -0.577 -0.577
vn -0.577 -0.577 -0.577
vn -0.577 -0.577 -0.577
vn -0.577 -0.577 -0.577
vn -0.577 -0.577 -0.577
vn -0.577 -0.577 -0.577
vn -0.577 -0.577 -0.577
vn -0.577 -0.577 -0.577
vn -0.577 -0.577 -0.577
vn -0.577 -0.577 -0.577
vn -0.577 -0.577 -0.577
vn -0.577 -0.577 -0.577
vn -0.577 -0.577 -0.577
vn -0.577 -0.577 -0.577
vn -0.577 -0.577 -0.577
vn -0.577 -0.577 -0.577
vn -0.577 -0.577 -0.577
vn 0.577 0.577 0.577
vn -0.577 -0.577 -0.577
vn -0.577 -0.577 -0.577
vn -0.577 -0.577 -0.577
vn -0.577 -0.577 -0.577
vn -0.577 -0.577 -0.577
vn 0.577 0.577 0.577
vn -0.577 -0.577 -0.577
vn -0.577 -0.577 -0.577
vn -0.577 -0.577 -0.577
vn -0.577 -0.577 -0.577
vn -0.577 -0.577 -0.577
vn 0.577 0.577 0.577
vn 0.577 0.577 0.577
vn -0.577 -0.577 -0.577
vn 0.577 0.577 0.577
vn -0.577 -0.577 -0.577
vn 0.577 0.577 0.577
vn -0.577 -0.577 -0.577
vn 0.577 0.577 0.577
vn -0.577 -0.577 -0.577
vn -0.577 -0.577 -0.577
vn -0.577 -0.577 -0.577
vn -0.577 -0.577 -0.577
vn -0.577 -0.577 -0.577
vn -0.577 -0.577 -0.577
vn 0.577 0.577 0.577
vn -0.577 -0.577 -0.577
vn -0.577 -0.577 -0.577
vn -0.577 -0.577 -0.577
vn 0.577 0.577 0.577
vn -0.577 -0.577 -0.577
vn -0.577 -0.577 -0.577
vn -0.577 -0.577 -0.577
vn 0.577 0.577 0.577
vn -0.577 -0.577 -0.577
vn -0.577 -0.577 -0.577
vn -0.577 -0.577 -0.577
vn -0.577 -0.577 -0.577
vn -0.577 -0.577 -0.577
vn -0.577 -0.577 -0.577
vn 0.577 0.577 0.577
vn -0.577 -0.577 -0.577
vn -0.577 -0.577 -0.577
vn -0.577 -0.577 -0.577
vn -0.577 -0.577 -0.577
vn -0.577 -0.577 -0.577
vn 0.577 0.577 0.577
vn -0.577 -0.577 -0.577
vn -0.577 -0.577 -0.577
vn -0.577 -0.577 -0.577
vn -0.577 -0.577 -0.577
vn -0.577 -0.577 -0.577
vn -0.577 -0.577 -0.577
vn -0.577 -0.577 -0.577
vn -0.577 -0.577 -0.577
vn -0.577 -0.577 -0.577
vn -0.577 -0.577 -0.577
vn -0.577 -0.577 -0.577
vn -0.577 -0.577 -0.577
vn -0.577 -0.577 -0.577
vn -0.577 -0.577 -0.577
vn -0.577 -0.577 -0.577
vn -0.577 -0.577 -0.577
vn -0.577 -0.577 -0.577
vn -0.577 -0.577 -0.577
vn -0.577 -0.577 -0.577
vn -0.577 -0.577 -0.577
vn -0.577 -0.577 -0.577
vn -0.577 -0.577 -0.577
vn -0.577 -0.577 -0.577
vn -0.577 -0.577 -0.577
vn -0.577 -0.577 -0.577
vn -0.577 -0.577 -0.577
vn -0.577 -0.577 -0.577
vn -0.577 -0.577 -0.577
vn -0.577 -0.577 -0.577
vn -0.577 -0.577 -0.577
vn -0.577 -0.577 -0.577
vn -0.577 -0.577 -0.577
vn -0.577 -0.577 -0.577
vn -0.577 -0.577 -0.577
vn -0.577 -0.577 -0.577
vn -0.577 -0.577 -0.577
vn -0.577 -0.577 -0.577
vn -0.577 -0.577 -0.577
vn -0.577 -0.577 -0.577
vn -0.577 -0.577 -0.577
vn -0.577 -0.577 -0.577
vn -0.577 -0.577 -0.577
vn -0.577 -0.577 -0.577
vn 0.577 0.577 0.577
vn -0.577 -0.577 -0.577
vn -0.577 -0.577 -0.577
vn -0.577 -0.577 -0.577
vn -0.577 -0.577 -0.577
vn -0.577 -0.577 -0.577
vn -0.577 -0.577 -0.577
vn -0.577 -0.577 -0.577
vn -0.577 -0.577 -0.577
vn -0.577 -0.577 -0.577
vn -0.577 -0.577 -0.577
vn -0.577 -0.577 -0.577
vn -0.577 -0.577 -0.577
vn -0.577 -0.577 -0.577
vn -0.577 -0.577 -0.577
vn -0.577 -0.577 -0.577
vn -0.577 -0.577 -0.577
vn -0.577 -0.577 -0.577
vn 0.577 0.577 0.577
vn -0.577 -0.577 -0.577
vn -0.577 -0.577 -0.577
vn -0.577 -0.577 -0.577
vn -0.577 -0.577 -0.577
vn -0.577 -0.577 -0.577
vn 0.577 0.577 0.577
vn -0.577 -0.577 -0.577
vn -0.577 -0.577 -0.577
vn -0.577 -0.577 -0.577
vn -0.577 -0.577 -0.577
vn -0.577 -0.577 -0.577
vn 0.577 0.577 0.577
vn -0.577 -0.577 -0.577
vn -0.577 -0.577 -0.577
vn -0.577 -0.577 -0.577
vn 0.577 0.577 0.577
vn -0.577 -0.577 -0.577
vn 0.577 0.577 0.577
vn 0.577 0.577 0.577
vn -0.577 -0.577 -0.577
vn 0.577 0.577 0.577
vn -0.577 -0.577 -0.577
vn -0.577 -0.577 -0.577
vn -0.577 -0.577 -0.577
vn -0.577 -0.577 -0.577
vn -0.577 -0.577 -0.577
vn -0.577 -0.577 -0.577
vn 0.577 0.577 0.577
vn -0.577 -0.577 -0.577
vn -0.577 -0.577 -0.577
vn -0.577 -0.577 -0.577
vn 0.577 0.577 0.577
vn -0.577 -0.577 -0.577
vn -0.577 -0.577 -0.577
vn -0.577 -0.577 -0.577
vn -0.577 -0.577 -0.577
vn 0.577 0.577 0.577
vn -0.577 -0.577 -0.577
vn -0.577 -0.577 -0.577
vn -0.577 -0.577 -0.577
vn -0.577 -0.577 -0.577
vn -0.577 -0.577 -0.577
vn 0.577 0.577 0.577
vn -0.577 -0.577 -0.577
vn -0.577 -0.577 -0.577
vn -0.577 -0.577 -0.577
vn -0.577 -0.577 -0.577
vn -0.577 -0.577 -0.577
vn 0.577 0.577 0.577
vn -0.577 -0.577 -0.577
vn -0.577 -0.577 -0.577
vn -0.577 -0.577 -0.577
vn -0.577 -0.577 -0.577
vn -0.577 -0.577 -0.577
vn -0.577 -0.577 -0.577
vn -0.577 -0.577 -0.577
vn -0.577 -0.577 -0.577
vn -0.577 -0.577 -0.577
vn -0.577 -0.577 -0.577
vn -0.577 -0.577 -0.577
vn -0.577 -0.577 -0.577
vn -0.577 -0.577 -0.577
vn -0.577 -0.577 -0.577
vn -0.577 -0.577 -0.577
vn -0.577 -0.577 -0.577
vn -0.577 -0.577 -0.577
vn -0.577 -0.577 -0.577
vn 0.577 0.577 0.577
vn -0.577 -0.577 -0.577
vn -0.577 -0.577 -0.577
vn -0.577 -0.577 -0.577
vn -0.577 -0.577 -0.577
vn -0.577 -0.577 -0.577
vn 0.577 0.577 0.577
vn -0.577 -0.577 -0.577
vn -0.577 -0.577 -0.577
vn -0.577 -0.577 -0.577
vn 0.577 0.577 0.577
vn -0.577 -0.577 -0.577
vn 0.577 0.577 0.577
vn 0.577 0.577 0.577
vn -0.577 -0.577 -0.577
vn -0.577 -0.577 -0.577
vn -0.577 -0.577 -0.577
vn -0.577 -0.577 -0.577
vn -0.577 -0.577 -0.577
vn -0.577 -0.577 -0.577
vn -0.577 -0.577 -0.577
vn -0.577 -0.577 -0.577
vn -0.577 -0.577 -0.577
vn -0.577 -0.577 -0.577
vn -0.577 -0.577 -0.577
vn -0.577 -0.577 -0.577
vn -0.577 -0.577 -0.577
vn -0.577 -0.577 -0.577
vn -0.577 -0.577 -0.577
vn 0.577 0.577 0.577
vn -0.577 -0.577 -0.577
vn -0.577 -0.577 -0.577
vn -0.577 -0.577 -0.577
vn -0.577 -0.577 -0.577
vn -0.577 -0.577 -0.577
vn -0.577 -0.577 -0.577
vn -0.577 -0.577 -0.577
vn -0.577 -0.577 -0.577
vn -0.577 -0.577 -0.577
vn -0.577 -0.577 -0.577
vn -0.577 -0.577 -0.577
vn -0.577 -0.577 -0.577
vn -0.577 -0.577 -0.577
vn 0.577 0.577 0.577
vn -0.577 -0.577 -0.577
vn -0.577 -0.577 -0.577
vn -0.577 -0.577 -0.577
vn -0.577 -0.577 -0.577
vn -0.577 -0.577 -0.577
vn 0.577 0.577 0.577
vn 0.577 0.577 0.577
vn -0.577 -0.577 -0.577
vn -0.577 -0.577 -0.577
vn -0.577 -0.577 -0.577
vn -0.577 -0.577 -0.577
vn -0.577 -0.577 -0.577
vn -0.577 -0.577 -0.577
vn -0.577 -0.577 -0.577
vn -0.577 -0.577 -0.577
vn -0.577 -0.577 -0.577
vn -0.577 -0.577 -0.577
vn -0.577 -0.577 -0.577
vn -0.577 -0.577 -0.577
vn -0.577 -0.577 -0.577
vn -0.577 -0.577 -0.577
vn -0.577 -0.577 -0.577
vn 0.577 0.577 0.577
vn 0.577 0.577 0.577
vn -0.577 -0.577 -0.577
vn -0.577 -0.577 -0.577
vn -0.577 -0.577 -0.577
vn -0.577 -0.577 -0.577
vn -0.577 -0.577 -0.577
vn -0.577 -0.577 -0.577
vn -0.577 -0.577 -0.577
vn -0.577 -0.577 -0.577
vn -0.577 -0.577 -0.577
vn 0.577 0.577 0.577
vn -0.577 -0.577 -0.577
vn -0.577 -0.577 -0.577
vn -0.577 -0.577 -0.577
vn -0.577 -0.577 -0.577
vn -0.577 -0.577 -0.577
vn 0.577 0.577 0.577
vn 0.577 0.577 0.577
vn -0.577 -0.577 -0.577
vn -0.577 -0.577 -0.577
vn -0.577 -0.577 -0.577
vn -0.577 -0.577 -0.577
vn -0.577 -0.577 -0.577
vn 0.577 0.577 0.577
vn 0.577 0.577 0.577
vn -0.577 -0.577 -0.577
vn -0.577 -0.577 -0.577
vn -0.577 -0.577 -0.577
vn 0.577 0.577 0.577
vn 0.577 0.577 0.577
vn -0.577 -0.577 -0.577
vn -0.577 -0.577 -0.577
vn -0.577 -0.577 -0.577
vn 0.577 0.577 0.577
vn -0.577 -0.577 -0.577
vn -0.577 -0.577 -0.577
vn -0.577 -0.577 -0.577
vn -0.577 -0.577 -0.577
vn -0.577 -0.577 -0.577
vn -0.577 -0.577 -0.577
vn -0.577 -0.577 -0.577
vn -0.577 -0.577 -0.577
vn -0.577 -0.577 -0.577
vn -0.577 -0.577 -0.577
vn -0.577 -0.577 -0.577
vn -0.577 -0.577 -0.577
vn -0.577 -0.577 -0.577
vn -0.577 -0.577 -0.577
vn -0.577 -0.577 -0.577
vn -0.577 -0.577 -0.577
vn -0.577 -0.577 -0.577
vn -0.577 -0.577 -0.577
vn -0.577 -0.577 -0.577
vn -0.577 -0.577 -0.577
vn -0.577 -0.577 -0.577
vn -0.577 -0.577 -0.577
vn -0.577 -0.577 -0.577
vn -0.577 -0.577 -0.577
vn -0.577 -0.577 -0.577
vn -0.577 -0.577 -0.577
vn 0.577 0.577 0.577
vn -0.577 -0.577 -0.577
vn 0.577 0.577 0.577
vn -0.577 -0.577 -0.577
vn 0.577 0.577 0.577
vn -0.577 -0.577 -0.577
vn 0.577 0.577 0.577
vn 0.577 0.577 0.577
vn -0.577 -0.577 -0.577
vn -0.577 -0.577 -0.577
vn 0.577 0.577 0.577
vn -0.577 -0.577 -0.577
vn -0.577 -0.577 -0.577
vn -0.577 -0.577 -0.577
vn -0.577 -0.577 -0.577
vn -0.577 -0.577 -0.577
vn -0.577 -0.577 -0.577
vn -0.577 -0.577 -0.577
vn -0.577 -0.577 -0.577
vn -0.577 -0.577 -0.577
vn 0.577 0.577 0.577
vn -0.577 -0.577 -0.577
vn 0.577 0.577 0.577
vn 0.577 0.577 0.577
vn -0.577 -0.577 -0.577
vn -0.577 -0.577 -0.577
vn -0.577 -0.577 -0.577
vn -0.577 -0.577 -0.577
vn 0.577 0.577 0.577
vn 0.577 0.577 0.577
vn 0.577 0.577 0.577
vn -0.577 -0.577 -0.577
vn -0.577 -0.577 -0.577
vn 0.577 0.577 0.577
vn -0.577 -0.577 -0.577
vn -0.577 -0.577 -0.577
vn -0.577 -0.577 -0.577
vn 0.577 0.577 0.577
vn -0.577 -0.577 -0.577
vn -0.577 -0.577 -0.577
vn -0.577 -0.577 -0.577
vn -0.577 -0.577 -0.577
vn -0.577 -0.577 -0.577
vn -0.577 -0.577 -0.577
vn 0.577 0.577 0.577
vn 0.577 0.577 0.577
vn -0.577 -0.577 -0.577
vn 0.577 0.577 0.577
vn -0.577 -0.577 -0.577
vn -0.577 -0.577 -0.577
vn -0.577 -0.577 -0.577
vn -0.577 -0.577 -0.577
vn -0.577 -0.577 -0.577
vn -0.577 -0.577 -0.577
vn -0.577 -0.577 -0.577
vn 0.577 0.577 0.577
vn 0.577 0.577 0.577
vn -0.577 -0.577 -0.577
vn -0.577 -0.577 -0.577
vn -0.577 -0.577 -0.577
vn 0.577 0.577 0.577
vn 0.577 0.577 0.577
vn -0.577 -0.577 -0.577
vn 0.577 0.577 0.577
vn 0.577 0.577 0.577
vn 0.577 0.577 0.577
vn -0.577 -0.577 -0.577
vn 0.577 0.577 0.577
vn 0.577 0.577 0.577
vn -0.577 -0.577 -0.577
vn -0.577 -0.577 -0.577
vn -0.577 -0.577 -0.577
vn -0.577 -0.577 -0.577
vn -0.577 -0.577 -0.577
vn 0.577 0.577 0.577
vn 0.577 0.577 0.577
vn -0.577 -0.577 -0.577
vn -0.577 -0.577 -0.577
vn -0.577 -0.577 -0.577
vn 0.577 0.577 0.577
vn 0.577 0.577 0.577
vn -0.577 -0.577 -0.577
vn -0.577 -0.577 -0.577
vn -0.577 -0.577 -0.577
vn 0.577 0.577 0.577
vn 0.577 0.577 0.577
vn -0.577 -0.577 -0.577
vn -0.577 -0.577 -0.577
vn -0.577 -0.577 -0.577
vn -0.577 -0.577 -0.577
vn -0.577 -0.577 -0.577
vn -0.577 -0.577 -0.577
vn -0.577 -0.577 -0.577
vn 0.577 0.577 0.577
vn -0.577 -0.577 -0.577
vn -0.577 -0.577 -0.577
vn -0.577 -0.577 -0.577
vn -0.577 -0.577 -0.577
vn -0.577 -0.577 -0.577
vn -0.577 -0.577 -0.577
vn -0.577 -0.577 -0.577
vn -0.577 -0.577 -0.577
vn -0.577 -0.577 -0.577
vn -0.577 -0.577 -0.577
vn 0.577 0.577 0.577
vn 0.577 0.577 0.577
vn 0.577 0.577 0.577
vn 0.577 0.577 0.577
usemtl tex_1603_lit_w10
f 1/1/1 2/2/2 3/3/3
f 3/3/3 2/2/2 4/4/4
f 3/3/3 5/5/5 6/6/6
f 7/7/7 8/8/8 4/4/4
f 5/5/5 3/3/3 8/8/8
f 8/8/8 3/3/3 4/4/4
f 1/1/1 9/9/9 7/7/7
f 2/2/2 1/1/1 7/7/7
f 10/10/10 11/11/11 8/8/8
f 1/1/1 6/6/6 12/12/12
f 8/8/8 11/11/11 6/6/6
f 3/3/3 6/6/6 1/1/1
f 7/7/7 4/4/4 2/2/2
f 5/5/5 8/8/8 6/6/6
f 7/7/7 10/10/10 8/8/8
f 1/1/1 12/12/12 9/9/9
usemtl tex_1602_lit_w11
f 13/13/13 14/14/14 15/15/15
f 16/16/16 17/17/17 18/18/18
f 16/16/16 18/18/18 19/19/19
f 20/20/20 21/21/21 22/22/22
f 21/21/21 23/23/23 15/15/15
f 16/16/16 19/19/19 14/14/14
f 13/13/13 16/16/16 14/14/14
f 21/21/21 24/24/24 22/22/22
f 17/17/17 20/20/20 18/18/18
f 23/23/23 13/13/13 15/15/15
f 21/21/21 15/15/15 24/24/24
f 20/20/20 22/22/22 18/18/18
f 25/18/25 31/25/31 26/19/26
f 26/19/26 31/25/31 32/26/32
f 26/19/26 32/26/32 27/14/27
f 27/14/27 32/26/32 33/27/33
f 27/14/27 33/27/33 28/15/28
f 25/18/25 34/28/34 31/25/31
f 28/15/28 33/27/33 29/24/29
f 29/24/29 33/27/33 35/29/35
f 29/24/29 35/29/35 30/22/30
f 30/22/30 35/29/35 36/30/36
f 30/22/30 36/30/36 25/18/25
f 25/18/25 36/30/36 34/28/34
f 43/13/43 37/31/37 44/16/44
f 44/16/44 37/31/37 38/32/38
f 44/16/44 38/32/38 45/17/45
f 45/17/45 38/32/38 39/33/39
f 45/17/45 39/33/39 46/20/46
f 46/20/46 39/33/39 40/34/40
f 46/20/46 40/34/40 47/21/47
f 47/21/47 40/34/40 41/35/41
f 47/21/47 41/35/41 48/23/48
f 48/23/48 41/35/41 42/36/42
f 48/23/48 42/36/42 43/13/43
f 43/13/43 42/36/42 37/31/37
usemtl tex_1600_lit_w11
f 49/37/49 50/38/50 51/39/51
f 49/37/49 51/39/51 52/40/52
usemtl tex_1602_lit_w11
f 51/39/51 53/41/53 52/40/52
f 54/42/54 55/43/55 49/37/49
f 51/39/51 56/44/56 53/41/53
f 52/40/52 53/41/53 54/42/54
f 49/37/49 55/43/55 50/38/50
f 50/38/50 55/43/55 56/44/56
f 50/38/50 56/44/56 51/39/51
f 52/40/52 54/42/54 49/37/49
f 55/43/55 54/42/54 57/41/57
f 55/43/55 57/41/57 58/44/58
f 59/45/59 60/46/60 61/47/61
f 61/47/61 60/46/60 62/48/62
f 61/47/61 62/48/62 63/49/63
f 63/49/63 62/48/62 64/50/64
f 63/49/63 64/50/64 65/51/65
f 65/51/65 64/50/64 66/52/66
f 65/51/65 66/52/66 67/53/67
f 67/53/67 66/52/66 68/54/68
f 67/53/67 68/54/68 69/55/69
f 69/55/69 68/54/68 70/56/70
f 69/55/69 70/56/70 59/45/59
f 59/45/59 70/56/70 60/46/60
f 78/51/78 71/57/71 72/58/72
f 73/59/73 79/55/79 80/45/80
f 81/53/81 74/60/74 71/57/71
f 82/47/82 83/61/83 75/62/75
f 76/63/76 73/59/73 80/45/80
f 82/47/82 75/62/75 76/63/76
f 80/45/80 82/47/82 76/63/76
f 73/59/73 74/60/74 79/55/79
f 74/60/74 81/53/81 79/55/79
f 75/62/75 83/61/83 77/64/77
f 78/51/78 81/53/81 71/57/71
f 72/58/72 77/64/77 83/61/83
f 78/51/78 72/58/72 83/61/83
f 90/65/90 84/46/84 91/32/91
f 91/32/91 84/46/84 85/56/85
f 91/32/91 85/56/85 92/33/92
f 92/33/92 85/56/85 86/54/86
f 92/33/92 86/54/86 93/34/93
f 93/34/93 86/54/86 87/52/87
f 93/34/93 87/52/87 94/35/94
f 94/35/94 87/52/87 88/50/88
f 94/35/94 88/50/88 95/36/95
f 95/36/95 88/50/88 89/48/89
f 95/36/95 89/48/89 90/65/90
f 90/65/90 89/48/89 84/46/84
f 96/41/96 97/66/97 98/67/98
f 99/68/99 97/66/97 100/44/100
f 101/43/101 102/42/102 103/69/103
f 99/68/99 100/44/100 101/43/101
f 102/42/102 96/41/96 98/67/98
f 96/41/96 100/44/100 97/66/97
f 102/42/102 98/67/98 103/69/103
f 99/68/99 101/43/101 103/69/103
f 104/69/104 105/67/105 106/66/106
f 104/69/104 106/66/106 107/68/107
f 108/41/108 102/42/102 101/43/101
f 108/41/108 101/43/101 109/44/109
usemtl tex_1603_lit_w10
f 110/70/110 111/71/111 112/72/112
f 113/73/113 111/71/111 110/70/110
f 114/74/114 115/75/115 110/70/110
f 113/73/113 116/76/116 117/77/117
f 116/76/116 110/70/110 115/75/115
f 113/73/113 110/70/110 116/76/116
f 117/77/117 118/78/118 112/72/112
f 117/77/117 112/72/112 111/71/111
f 116/76/116 119/79/119 120/80/120
f 121/81/121 114/74/114 112/72/112
f 116/76/116 115/75/115 114/74/114
f 112/72/112 114/74/114 110/70/110
f 111/71/111 113/73/113 117/77/117
f 119/79/119 116/76/116 114/74/114
f 118/78/118 121/81/121 112/72/112
f 116/76/116 120/80/120 117/77/117
usemtl tex_1602_lit_w11
f 122/82/122 123/83/123 124/84/124
f 125/85/125 126/86/126 127/87/127
f 128/88/128 125/85/125 127/87/127
f 129/89/129 130/90/130 131/91/131
f 122/82/122 132/92/132 130/90/130
f 123/83/123 128/88/128 127/87/127
f 123/83/123 127/87/127 124/84/124
f 129/89/129 133/93/133 130/90/130
f 125/85/125 131/91/131 126/86/126
f 122/82/122 124/84/124 132/92/132
f 133/93/133 122/82/122 130/90/130
f 125/85/125 129/89/129 131/91/131
f 134/93/134 140/94/140 135/82/135
f 135/82/135 140/94/140 141/95/141
f 135/82/135 141/95/141 136/83/136
f 136/83/136 141/95/141 142/96/142
f 136/83/136 142/96/142 137/88/137
f 137/88/137 142/96/142 143/97/143
f 137/88/137 143/97/143 138/85/138
f 138/85/138 143/97/143 144/98/144
f 138/85/138 144/98/144 139/89/139
f 139/89/139 144/98/144 145/99/145
f 139/89/139 145/99/145 134/93/134
f 134/93/134 145/99/145 140/94/140
f 152/87/152 146/100/146 153/84/153
f 147/101/147 146/100/146 152/87/152
f 154/86/154 147/101/147 152/87/152
f 148/102/148 147/101/147 154/86/154
f 155/91/155 148/102/148 154/86/154
f 149/103/149 148/102/148 155/91/155
f 156/90/156 149/103/149 155/91/155
f 150/104/150 149/103/149 156/90/156
f 157/92/157 150/104/150 156/90/156
f 151/105/151 150/104/150 157/92/157
f 153/84/153 151/105/151 157/92/157
f 146/100/146 151/105/151 153/84/153
usemtl tex_1600_lit_w11
f 158/106/158 159/107/159 160/108/160
f 158/106/158 160/108/160 161/109/161
usemtl tex_1602_lit_w11
f 158/106/158 162/110/162 159/107/159
f 161/109/161 163/111/163 164/112/164
f 162/110/162 165/113/165 159/107/159
f 164/112/164 162/110/162 158/106/158
f 160/108/160 163/111/163 161/109/161
f 165/113/165 163/111/163 160/108/160
f 159/107/159 165/113/165 160/108/160
f 161/109/161 164/112/164 158/106/158
f 166/113/166 167/110/167 164/112/164
f 166/113/166 164/112/164 163/111/163
f 168/114/168 169/115/169 170/116/170
f 170/116/170 169/115/169 171/117/171
f 170/116/170 171/117/171 172/118/172
f 172/118/172 171/117/171 173/119/173
f 172/118/172 173/119/173 174/120/174
f 174/120/174 173/119/173 175/121/175
f 174/120/174 175/121/175 176/122/176
f 176/122/176 175/121/175 177/123/177
f 176/122/176 177/123/177 178/124/178
f 178/124/178 177/123/177 179/125/179
f 178/124/178 179/125/179 168/114/168
f 168/114/168 179/125/179 169/115/169
f 180/126/180 181/127/181 187/116/187
f 188/124/188 189/114/189 182/128/182
f 190/122/190 188/124/188 183/129/183
f 181/127/181 182/128/182 189/114/189
f 184/130/184 191/118/191 192/120/192
f 190/122/190 183/129/183 185/131/185
f 185/131/185 184/130/184 192/120/192
f 185/131/185 192/120/192 190/122/190
f 186/132/186 180/126/180 187/116/187
f 186/132/186 191/118/191 184/130/184
f 181/127/181 189/114/189 187/116/187
f 191/118/191 186/132/186 187/116/187
f 188/124/188 182/128/182 183/129/183
f 199/101/199 193/123/193 200/133/200
f 194/125/194 193/123/193 199/101/199
f 201/102/201 194/125/194 199/101/199
f 195/115/195 194/125/194 201/102/201
f 202/103/202 195/115/195 201/102/201
f 196/117/196 195/115/195 202/103/202
f 203/104/203 196/117/196 202/103/202
f 197/119/197 196/117/196 203/104/203
f 204/105/204 197/119/197 203/104/203
f 198/121/198 197/119/197 204/105/204
f 200/133/200 198/121/198 204/105/204
f 193/123/193 198/121/198 200/133/200
f 205/134/205 206/135/206 207/110/207
f 208/113/208 206/135/206 209/136/209
f 210/137/210 211/112/211 212/111/212
f 212/111/212 208/113/208 209/136/209
f 205/134/205 207/110/207 211/112/211
f 206/135/206 208/113/208 207/110/207
f 210/137/210 205/134/205 211/112/211
f 210/137/210 212/111/212 209/136/209
f 213/136/213 214/135/214 215/134/215
f 213/136/213 215/134/215 216/137/216
f 217/113/217 212/111/212 211/112/211
f 217/113/217 211/112/211 218/110/218
usemtl tex_2005_lit
f 219/138/219 222/139/222 223/140/223
f 220/141/220 224/142/224 225/143/225
f 220/141/220 219/138/219 226/144/226
f 221/145/221 227/146/227 228/147/228
f 229/148/229 222/139/222 219/138/219
f 219/138/219 230/149/230 226/144/226
f 220/141/220 225/143/225 221/145/221
f 221/145/221 231/150/231 227/146/227
f 221/145/221 232/151/232 231/150/231
f 219/138/219 223/140/223 230/149/230
f 220/141/220 226/144/226 224/142/224
f 225/143/225 232/151/232 221/145/221
usemtl tex_2008_lit
f 233/152/233 237/153/237 238/154/238
f 234/155/234 239/156/239 233/152/233
f 233/152/233 239/156/239 237/153/237
f 235/157/235 240/158/240 234/155/234
f 240/158/240 239/156/239 234/155/234
f 233/152/233 238/154/238 236/159/236
usemtl tex_1609_lit
f 241/160/241 242/161/242 243/162/243
f 244/163/244 242/161/242 241/160/241
usemtl tex_1613_lit_w11
f 245/164/245 246/165/246 247/166/247
f 246/165/246 248/167/248 247/166/247
f 245/164/245 247/166/247 249/168/249
usemtl tex_1619_lit_w11
f 250/169/250 251/170/251 252/171/252
f 253/172/253 251/170/251 250/169/250
usemtl tex_1622_lit_w11
f 254/173/254 255/174/255 256/175/256
f 257/176/257 258/177/258 259/173/259
f 257/176/257 259/173/259 260/175/260
usemtl tex_1616_lit_w11
f 261/178/261 262/179/262 263/180/263
f 264/181/264 262/179/262 261/178/261
usemtl tex_1599_lit_w11
f 265/182/265 266/183/266 267/184/267
f 268/185/268 269/186/269 270/187/270
f 271/188/271 272/189/272 273/190/273
f 269/186/269 265/182/265 267/184/267
f 268/185/268 270/187/270 272/189/272
f 265/182/265 274/191/274 266/183/266
f 271/188/271 268/185/268 272/189/272
f 275/192/275 276/193/276 274/191/274
f 269/186/269 267/184/267 270/187/270
f 275/192/275 271/188/271 273/190/273
f 275/192/275 273/190/273 276/193/276
f 276/193/276 266/183/266 274/191/274
f 277/192/277 283/194/283 278/188/278
f 278/188/278 283/194/283 284/195/284
f 278/188/278 284/195/284 279/185/279
f 279/185/279 284/195/284 285/196/285
f 279/185/279 285/196/285 280/186/280
f 280/186/280 285/196/285 286/197/286
f 280/186/280 286/197/286 281/182/281
f 281/182/281 286/197/286 287/198/287
f 281/182/281 287/198/287 282/191/282
f 282/191/282 287/198/287 288/199/288
f 282/191/282 288/199/288 277/192/277
f 277/192/277 288/199/288 283/194/283
f 295/187/295 289/200/289 296/189/296
f 296/189/296 289/200/289 290/201/290
f 296/189/296 290/201/290 297/190/297
f 297/190/297 290/201/290 291/202/291
f 297/190/297 291/202/291 298/193/298
f 298/193/298 291/202/291 292/203/292
f 298/193/298 292/203/292 299/183/299
f 299/183/299 292/203/292 293/204/293
f 299/183/299 293/204/293 300/184/300
f 300/184/300 293/204/293 294/205/294
f 300/184/300 294/205/294 295/187/295
f 295/187/295 294/205/294 289/200/289
f 301/206/301 302/207/302 303/208/303
f 304/209/304 305/210/305 301/206/301
f 306/211/306 302/207/302 307/212/307
f 308/213/308 307/212/307 304/209/304
f 307/212/307 305/210/305 304/209/304
f 306/211/306 303/208/303 302/207/302
f 304/209/304 301/206/301 303/208/303
f 308/213/308 306/211/306 307/212/307
f 302/207/302 301/206/301 305/210/305
f 302/207/302 305/210/305 307/212/307
f 309/214/309 310/215/310 311/216/311
f 309/214/309 312/217/312 313/218/313
f 314/219/314 315/220/315 316/221/316
f 309/214/309 311/216/311 312/217/312
f 310/215/310 314/219/314 316/221/316
f 317/222/317 314/219/314 310/215/310
f 312/217/312 315/220/315 318/223/318
f 309/214/309 317/222/317 310/215/310
f 314/219/314 319/224/319 315/220/315
f 315/220/315 319/224/319 318/223/318
f 313/218/313 312/217/312 318/223/318
f 325/215/325 320/225/320 326/216/326
f 321/226/321 320/225/320 325/215/325
f 327/221/327 321/226/321 325/215/325
f 322/227/322 321/226/321 327/221/327
f 328/220/328 322/227/322 327/221/327
f 323/228/323 322/227/322 328/220/328
f 329/217/329 323/228/323 328/220/328
f 324/229/324 323/228/323 329/217/329
f 326/216/326 324/229/324 329/217/329
f 320/225/320 324/229/324 326/216/326
f 336/200/336 330/224/330 337/201/337
f 337/201/337 330/224/330 331/219/331
f 337/201/337 331/219/331 338/202/338
f 338/202/338 331/219/331 332/222/332
f 338/202/338 332/222/332 339/203/339
f 339/203/339 332/222/332 333/214/333
f 339/203/339 333/214/333 340/204/340
f 340/204/340 333/214/333 334/218/334
f 340/204/340 334/218/334 341/205/341
f 341/205/341 334/218/334 335/223/335
f 341/205/341 335/223/335 336/200/336
f 336/200/336 335/223/335 330/224/330
f 342/230/342 343/231/343 344/232/344
f 344/232/344 345/233/345 342/230/342
f 346/206/346 347/232/347 348/231/348
f 346/206/346 342/230/342 349/207/349
f 346/206/346 348/231/348 342/230/342
f 347/232/347 350/212/350 345/233/345
f 351/210/351 350/212/350 347/232/347
f 342/230/342 345/233/345 349/207/349
f 346/206/346 351/210/351 347/232/347
f 350/212/350 349/207/349 345/233/345
f 350/212/350 351/210/351 346/206/346
f 350/212/350 346/206/346 349/207/349
usemtl tex_1609_lit
f 352/234/352 353/235/353 354/236/354
f 354/236/354 353/235/353 355/237/355
usemtl tex_1613_lit_w11
f 356/238/356 357/239/357 358/240/358
f 357/239/357 359/241/359 360/242/360
f 357/239/357 360/242/360 358/240/358
usemtl tex_1619_lit_w11
f 361/243/361 362/244/362 363/245/363
f 363/245/363 362/244/362 364/246/364
usemtl tex_1622_lit_w11
f 365/247/365 366/248/366 367/249/367
f 368/250/368 369/251/369 370/247/370
f 368/250/368 370/247/370 371/249/371
usemtl tex_1616_lit_w11
f 372/252/372 373/253/373 374/254/374
f 374/254/374 373/253/373 375/255/375
usemtl tex_1599_lit_w11
f 376/256/376 377/257/377 378/258/378
f 379/259/379 380/260/380 381/261/381
f 382/262/382 383/263/383 384/264/384
f 376/256/376 378/258/378 380/260/380
f 383/263/383 379/259/379 381/261/381
f 377/257/377 385/265/385 378/258/378
f 383/263/383 381/261/381 384/264/384
f 385/265/385 386/266/386 387/267/387
f 379/259/379 376/256/376 380/260/380
f 382/262/382 384/264/384 387/267/387
f 386/266/386 382/262/382 387/267/387
f 385/265/385 377/257/377 386/266/386
f 394/268/394 388/267/388 395/269/395
f 389/265/389 388/267/388 394/268/394
f 396/270/396 389/265/389 394/268/394
f 390/258/390 389/265/389 396/270/396
f 397/271/397 390/258/390 396/270/396
f 391/260/391 390/258/390 397/271/397
f 398/272/398 391/260/391 397/271/397
f 392/261/392 391/260/391 398/272/398
f 399/273/399 392/261/392 398/272/398
f 393/264/393 392/261/392 399/273/399
f 395/269/395 393/264/393 399/273/399
f 388/267/388 393/264/393 395/269/395
f 406/262/406 400/274/400 407/263/407
f 407/263/407 400/274/400 401/275/401
f 407/263/407 401/275/401 408/259/408
f 408/259/408 401/275/401 402/276/402
f 408/259/408 402/276/402 409/256/409
f 409/256/409 402/276/402 403/277/403
f 409/256/409 403/277/403 410/257/410
f 410/257/410 403/277/403 404/278/404
f 410/257/410 404/278/404 411/266/411
f 411/266/411 404/278/404 405/279/405
f 411/266/411 405/279/405 406/262/406
f 406/262/406 405/279/405 400/274/400
f 412/280/412 413/281/413 414/282/414
f 414/282/414 415/283/415 416/284/416
f 417/285/417 413/281/413 418/286/418
f 416/284/416 417/285/417 419/287/419
f 416/284/416 415/283/415 417/285/417
f 413/281/413 412/280/412 418/286/418
f 412/280/412 414/282/414 416/284/416
f 417/285/417 418/286/418 419/287/419
f 414/282/414 413/281/413 417/285/417
f 414/282/414 417/285/417 415/283/415
f 420/288/420 421/289/421 422/290/422
f 423/291/423 424/292/424 422/290/422
f 425/293/425 426/294/426 427/295/427
f 424/292/424 420/288/420 422/290/422
f 425/293/425 427/295/427 421/289/421
f 421/289/421 427/295/427 428/296/428
f 429/297/429 426/294/426 424/292/424
f 421/289/421 428/296/428 422/290/422
f 426/294/426 430/298/430 427/295/427
f 429/297/429 430/298/430 426/294/426
f 429/297/429 424/292/424 423/291/423
f 436/288/436 431/299/431 437/289/437
f 437/289/437 431/299/431 432/300/432
f 437/289/437 432/300/432 438/293/438
f 438/293/438 432/300/432 433/301/433
f 438/293/438 433/301/433 439/294/439
f 439/294/439 433/301/433 434/302/434
f 439/294/439 434/302/434 440/292/440
f 440/292/440 434/302/434 435/303/435
f 440/292/440 435/303/435 436/288/436
f 436/288/436 435/303/435 431/299/431
f 447/275/447 441/298/441 448/276/448
f 442/295/442 441/298/441 447/275/447
f 449/274/449 442/295/442 447/275/447
f 443/296/443 442/295/442 449/274/449
f 450/279/450 443/296/443 449/274/449
f 444/290/444 443/296/443 450/279/450
f 451/278/451 444/290/444 450/279/450
f 445/291/445 444/290/444 451/278/451
f 452/277/452 445/291/445 451/278/451
f 446/297/446 445/291/445 452/277/452
f 448/276/448 446/297/446 452/277/452
f 441/298/441 446/297/446 448/276/448
f 453/304/453 454/305/454 455/282/455
f 456/281/456 457/306/457 455/282/455
f 457/306/457 453/304/453 455/282/455
f 458/307/458 459/285/459 454/305/454
f 454/305/454 459/285/459 460/283/460
f 456/281/456 458/307/458 457/306/457
f 454/305/454 460/283/460 455/282/455
f 458/307/458 456/281/456 459/285/459
f 461/304/461 457/306/457 458/307/458
f 458/307/458 462/305/462 461/304/461
f 460/283/460 459/285/459 456/281/456
f 460/283/460 456/281/456 455/282/455
usemtl tex_1600_lit_w11
f 463/308/463 464/309/464 465/310/465
f 466/311/466 463/308/463 467/312/467
f 463/308/463 468/313/468 469/314/469
f 463/308/463 465/310/465 468/313/468
f 470/315/470 464/309/464 463/308/463
f 471/316/471 466/311/466 472/317/472
f 466/311/466 473/318/473 470/315/470
f 466/311/466 474/319/474 475/320/475
f 472/317/472 466/311/466 467/312/467
f 472/317/472 467/312/467 476/321/476
f 477/322/477 472/317/472 476/321/476
f 467/312/467 469/314/469 476/321/476
f 473/318/473 466/311/466 475/320/475
f 465/310/465 478/323/478 468/313/468
f 466/311/466 471/316/471 474/319/474
f 479/320/479 480/319/480 481/324/481
f 482/322/482 483/316/483 484/317/484
f 485/312/485 486/308/486 487/314/487
f 488/311/488 489/315/489 486/308/486
usemtl tex_1601_lit_w11
f 490/325/490 491/326/491 492/327/492
f 493/328/493 494/329/494 495/330/495
f 496/331/496 497/332/497 498/333/498
f 499/334/499 500/335/500 501/336/501
f 494/329/494 498/333/498 502/337/502
f 503/338/503 501/336/501 500/335/500
f 494/329/494 502/337/502 504/339/504
f 505/326/505 506/325/506 507/340/507
f 508/341/508 493/328/493 495/330/495
f 495/330/495 494/329/494 504/339/504
f 509/341/509 510/330/510 511/342/511
f 512/329/512 513/331/513 514/333/514
f 515/343/515 516/344/516 513/331/513
f 517/332/517 513/331/513 516/344/516
f 509/341/509 511/342/511 518/345/518
f 510/330/510 519/339/519 511/342/511
f 520/346/520 515/343/515 512/329/512
f 521/336/521 515/343/515 520/346/520
f 520/346/520 512/329/512 522/347/522
f 515/343/515 513/331/513 512/329/512
f 523/328/523 524/348/524 512/329/512
f 525/328/525 526/325/526 527/348/527
f 528/334/528 529/336/529 530/346/530
f 526/325/526 531/327/531 527/348/527
f 532/347/532 533/329/533 527/348/527
f 534/349/534 535/332/535 536/344/536
usemtl tex_2005_lit
f 537/350/537 538/334/538 539/346/539
f 537/350/537 539/346/539 540/351/540
f 541/350/541 542/351/542 543/352/543
f 544/353/544 541/350/541 543/352/543
usemtl tex_1600_lit_w11
f 545/354/545 552/323/552 546/355/546
f 546/355/546 552/323/552 553/310/553
f 546/355/546 553/310/553 547/356/547
f 547/356/547 553/310/553 554/309/554
f 547/356/547 554/309/554 548/357/548
f 548/357/548 554/309/554 555/315/555
f 548/357/548 555/315/555 549/358/549
f 549/358/549 555/315/555 556/318/556
f 549/358/549 556/318/556 550/359/550
f 550/359/550 556/318/556 557/320/557
f 550/359/550 557/320/557 551/360/551
f 551/360/551 557/320/557 558/324/558
usemtl tex_1601_lit_w11
f 559/361/559 564/342/564 560/362/560
f 560/362/560 564/342/564 565/339/565
f 560/362/560 565/339/565 561/363/561
f 561/363/561 565/339/565 566/337/566
f 561/363/561 566/337/566 562/364/562
f 562/364/562 566/337/566 567/333/567
f 562/364/562 567/333/567 563/365/563
f 563/365/563 567/333/567 568/332/568
usemtl tex_1599_lit_w11
f 569/366/569 570/367/570 571/368/571
f 570/367/570 572/369/572 571/368/571
usemtl tex_1600_lit_w11
f 573/370/573 574/371/574 575/372/575
f 576/373/576 573/370/573 575/372/575
usemtl tex_1601_lit_w11
f 577/374/577 578/375/578 579/376/579
f 580/374/580 581/377/581 582/378/582
f 578/375/578 577/374/577 583/379/583
f 584/380/584 585/377/585 586/375/586
f 587/381/587 588/379/588 589/378/589
f 590/374/590 591/376/591 592/377/592
f 585/377/585 591/376/591 593/375/593
f 594/374/594 589/378/589 588/379/588
usemtl tex_1600_lit_w11
f 595/382/595 596/383/596 597/384/597
f 598/385/598 599/386/599 600/387/600
f 601/388/601 602/389/602 603/390/603
f 604/391/604 605/392/605 606/393/606
f 607/394/607 608/395/608 609/396/609
f 610/397/610 611/395/611 612/398/612
f 611/395/611 613/394/613 612/398/612
f 614/399/614 615/392/615 616/391/616
f 617/389/617 618/400/618 619/390/619
f 611/395/611 620/401/620 621/396/621
f 622/387/622 619/390/619 618/400/618
f 622/387/622 623/386/623 624/402/624
f 625/388/625 626/390/626 627/383/627
f 627/383/627 628/382/628 629/403/629
f 629/403/629 625/388/625 627/383/627
f 630/385/630 631/387/631 632/400/632
f 633/391/633 634/393/634 635/404/635
f 636/405/636 637/399/637 633/391/633
usemtl tex_1601_lit_w11
f 638/406/638 639/407/639 640/408/640
f 641/409/641 642/410/642 643/411/643
f 644/412/644 645/413/645 646/414/646
f 647/415/647 648/416/648 649/417/649
f 650/418/650 651/419/651 648/416/648
f 652/406/652 653/420/653 649/417/649
usemtl tex_1601_lit_w11_ovl
f 649/417/649 648/416/648 652/406/652
usemtl tex_1601_lit_w11
f 650/418/650 648/416/648 647/415/647
f 644/412/644 654/421/654 645/413/645
f 653/420/653 652/406/652 655/408/655
usemtl tex_1600_lit_w11
f 656/382/656 663/354/663 657/403/657
f 657/403/657 663/354/663 664/355/664
f 657/403/657 664/355/664 658/388/658
f 658/388/658 664/355/664 665/356/665
f 658/388/658 665/356/665 659/389/659
f 659/389/659 665/356/665 666/357/666
f 659/389/659 666/357/666 660/400/660
f 660/400/660 666/357/666 667/358/667
f 660/400/660 667/358/667 661/385/661
f 661/385/661 667/358/667 668/359/668
f 661/385/661 668/359/668 662/386/662
f 662/386/662 668/359/668 669/360/669
usemtl tex_1601_lit_w11
f 670/408/670 675/361/675 671/420/671
f 671/420/671 675/361/675 676/362/676
f 671/420/671 676/362/676 672/417/672
f 672/417/672 676/362/676 677/363/677
f 672/417/672 677/363/677 673/415/673
f 673/415/673 677/363/677 678/364/678
f 673/415/673 678/364/678 674/418/674
f 674/418/674 678/364/678 679/365/679
usemtl tex_1600_lit_w11
f 680/422/680 681/372/681 682/371/682
f 680/422/680 682/371/682 683/423/683
usemtl tex_1601_lit_w11
f 684/377/684 685/424/685 686/425/686
f 685/424/685 687/380/687 688/426/688
f 685/424/685 684/377/684 687/380/687
f 689/427/689 690/381/690 691/425/691
f 691/425/691 690/381/690 692/378/692
f 693/378/693 684/377/684 686/425/686
f 687/380/687 694/378/694 695/381/695
f 696/380/696 697/377/697 698/378/698
f 699/427/699 700/425/700 701/424/701
f 699/427/699 701/424/701 702/426/702
