mtllib CborisZ.mtl
v 1054.4440841674805 -54.91805601119995 182.0 1.000 1.000 1.000
v 1054.4440841674805 -176.91805601119995 -75.0 1.000 1.000 1.000
v 1054.4440841674805 -98.91805601119995 -82.0 1.000 1.000 1.000
v 1054.4440841674805 -169.91805601119995 192.0 1.000 1.000 1.000
v 946.4440841674805 -100.91805601119995 -77.0 1.000 1.000 1.000
v 955.4440841674805 -96.91805601119995 -9.0 1.000 1.000 1.000
v 1006.4440841674805 -93.91805601119995 169.0 1.000 1.000 1.000
v 1009.4440841674805 -133.91805601119995 195.0 1.000 1.000 1.000
v 953.4440841674805 -149.91805601119995 3.0 1.000 1.000 1.000
v 944.4440841674805 -160.91805601119995 -64.0 1.000 1.000 1.000
v 640.0220260620117 -95.75992202758789 28.0 1.000 1.000 1.000
v 666.0220260620117 -93.75992202758789 -93.0 1.000 1.000 1.000
v 657.0220260620117 -59.75992202758789 -12.0 1.000 1.000 1.000
v 665.0220260620117 -135.7599220275879 -83.0 1.000 1.000 1.000
v 657.0220260620117 -175.7599220275879 -2.0 1.000 1.000 1.000
v 641.0220260620117 -138.7599220275879 41.0 1.000 1.000 1.000
v 953.4440841674805 -149.91805601119995 3.0 1.000 1.000 1.000
v 955.4440841674805 -96.91805601119995 -9.0 1.000 1.000 1.000
v 946.4440841674805 -100.91805601119995 -77.0 1.000 1.000 1.000
v 944.4440841674805 -160.91805601119995 -64.0 1.000 1.000 1.000
v 548.0220260620117 -58.75992202758789 -14.0 1.000 1.000 1.000
v 534.0220260620117 -102.75992202758789 46.0 1.000 1.000 1.000
v 547.0220260620117 -124.75992202758789 -66.0 1.000 1.000 1.000
v 548.0220260620117 -81.75992202758789 -73.0 1.000 1.000 1.000
v 541.0220260620117 -166.7599220275879 9.0 1.000 1.000 1.000
v 534.0220260620117 -128.7599220275879 51.0 1.000 1.000 1.000
v 640.0220260620117 -95.75992202758789 28.0 1.000 1.000 1.000
v 657.0220260620117 -59.75992202758789 -12.0 1.000 1.000 1.000
v 666.0220260620117 -93.75992202758789 -93.0 1.000 1.000 1.000
v 641.0220260620117 -138.7599220275879 41.0 1.000 1.000 1.000
v 665.0220260620117 -135.7599220275879 -83.0 1.000 1.000 1.000
v 657.0220260620117 -175.7599220275879 -2.0 1.000 1.000 1.000
v 977.0220260620117 -97.75992202758789 -9.0 1.000 1.000 1.000
v 450.0220260620117 -123.75992202758789 53.0 1.000 1.000 1.000
v 975.0220260620117 -150.7599220275879 3.0 1.000 1.000 1.000
v 968.0220260620117 -100.75992202758789 -77.0 1.000 1.000 1.000
v 450.0220260620117 -99.75992202758789 -67.0 1.000 1.000 1.000
v 450.0220260620117 -55.75992202758789 -5.0 1.000 1.000 1.000
v 450.0220260620117 -173.7599220275879 12.0 1.000 1.000 1.000
v 966.0220260620117 -161.7599220275879 -64.0 1.000 1.000 1.000
v 450.0220260620117 -173.7599220275879 12.0 1.000 1.000 1.000
v 450.0220260620117 -123.75992202758789 53.0 1.000 1.000 1.000
v 450.27474212646484 -177.39503479003906 -11.0 1.000 1.000 1.000
v 450.27474212646484 -186.39503479003906 -97.0 1.000 1.000 1.000
v 447.27474212646484 -122.39503479003906 -53.0 1.000 1.000 1.000
v 449.27474212646484 -133.39503479003906 -92.0 1.000 1.000 1.000
v 444.27474212646484 -95.39503479003906 -59.0 1.000 1.000 1.000
v 449.27474212646484 -55.39503479003906 -66.0 1.000 1.000 1.000
v 445.27474212646484 -53.39503479003906 1.0 1.000 1.000 1.000
v 450.27474212646484 -22.395034790039062 13.0 1.000 1.000 1.000
v 446.27474212646484 -103.39503479003906 68.0 1.000 1.000 1.000
v 449.27474212646484 -64.39503479003906 74.0 1.000 1.000 1.000
v 448.27474212646484 -144.39503479003906 53.0 1.000 1.000 1.000
v 449.27474212646484 -140.39503479003906 89.0 1.000 1.000 1.000
v 449.27474212646484 -187.39503479003906 99.0 1.000 1.000 1.000
v 448.27474212646484 -144.39503479003906 53.0 1.000 1.000 1.000
v 450.27474212646484 -177.39503479003906 -11.0 1.000 1.000 1.000
v 509.27474212646484 -173.39503479003906 12.0 1.000 1.000 1.000
v 506.27474212646484 -140.39503479003906 -34.0 1.000 1.000 1.000
v 447.27474212646484 -122.39503479003906 -53.0 1.000 1.000 1.000
v 444.27474212646484 -95.39503479003906 -59.0 1.000 1.000 1.000
v 459.27474212646484 -65.39503479003906 -46.0 1.000 1.000 1.000
v 474.27474212646484 -95.39503479003906 -58.0 1.000 1.000 1.000
v 450.27474212646484 -177.39503479003906 -11.0 1.000 1.000 1.000
v 446.27474212646484 -103.39503479003906 68.0 1.000 1.000 1.000
v 480.27474212646484 -99.39503479003906 67.0 1.000 1.000 1.000
v 459.27474212646484 -51.39503479003906 12.0 1.000 1.000 1.000
v 445.27474212646484 -53.39503479003906 1.0 1.000 1.000 1.000
v 448.27474212646484 -144.39503479003906 53.0 1.000 1.000 1.000
v 509.27474212646484 -173.39503479003906 12.0 1.000 1.000 1.000
v 68.0 -131.0 99.0 1.000 1.000 1.000
v 168.0 -86.0 25.0 1.000 1.000 1.000
v 3.0 -183.0 105.0 1.000 1.000 1.000
v 3.0 -183.0 105.0 1.000 1.000 1.000
v 0.0 -139.0 -98.0 1.000 1.000 1.000
v 48.0 -138.0 -105.0 1.000 1.000 1.000
v 0.0 -139.0 -98.0 1.000 1.000 1.000
v 93.0 -132.0 -78.0 1.000 1.000 1.000
v 449.27474212646484 -140.39503479003906 89.0 1.000 1.000 1.000
v 449.27474212646484 -64.39503479003906 74.0 1.000 1.000 1.000
v 449.27474212646484 -187.39503479003906 99.0 1.000 1.000 1.000
v 450.27474212646484 -22.395034790039062 13.0 1.000 1.000 1.000
v 450.27474212646484 -186.39503479003906 -97.0 1.000 1.000 1.000
v 449.27474212646484 -187.39503479003906 99.0 1.000 1.000 1.000
v 450.27474212646484 -186.39503479003906 -97.0 1.000 1.000 1.000
v 449.27474212646484 -133.39503479003906 -92.0 1.000 1.000 1.000
v 93.0 -132.0 -78.0 1.000 1.000 1.000
v 168.0 -86.0 25.0 1.000 1.000 1.000
v 449.27474212646484 -55.39503479003906 -66.0 1.000 1.000 1.000
v 449.27474212646484 -133.39503479003906 -92.0 1.000 1.000 1.000
v 450.27474212646484 -22.395034790039062 13.0 1.000 1.000 1.000
v 459.27474212646484 -65.39503479003906 -46.0 1.000 1.000 1.000
v 474.27474212646484 -95.39503479003906 -58.0 1.000 1.000 1.000
v 506.27474212646484 -140.39503479003906 -34.0 1.000 1.000 1.000
v 509.27474212646484 -173.39503479003906 12.0 1.000 1.000 1.000
v 480.27474212646484 -99.39503479003906 67.0 1.000 1.000 1.000
v 459.27474212646484 -51.39503479003906 12.0 1.000 1.000 1.000
v 548.0220260620117 -81.75992202758789 -73.0 1.000 1.000 1.000
v 548.0220260620117 -58.75992202758789 -14.0 1.000 1.000 1.000
v 547.0220260620117 -124.75992202758789 -66.0 1.000 1.000 1.000
v 541.0220260620117 -166.7599220275879 9.0 1.000 1.000 1.000
v 534.0220260620117 -128.7599220275879 51.0 1.000 1.000 1.000
v 534.0220260620117 -102.75992202758789 46.0 1.000 1.000 1.000
v 164.27474212646484 -143.39503479003906 108.0 1.000 1.000 1.000
v 164.27474212646484 -176.39503479003906 20.0 1.000 1.000 1.000
v 450.27474212646484 -124.39503479003906 87.0 1.000 1.000 1.000
v 450.27474212646484 -176.39503479003906 9.0 1.000 1.000 1.000
v 164.27474212646484 -114.39503479003906 -114.0 1.000 1.000 1.000
v 164.27474212646484 -18.395034790039062 27.0 1.000 1.000 1.000
v 450.27474212646484 -25.395034790039062 38.0 1.000 1.000 1.000
v 450.27474212646484 -100.39503479003906 -67.0 1.000 1.000 1.000
v 164.27474212646484 -114.39503479003906 -114.0 1.000 1.000 1.000
v 164.27474212646484 -176.39503479003906 20.0 1.000 1.000 1.000
v 164.27474212646484 -143.39503479003906 108.0 1.000 1.000 1.000
v 164.27474212646484 -18.395034790039062 27.0 1.000 1.000 1.000
v 450.27474212646484 -124.39503479003906 53.0 1.000 1.000 1.000
v -1046.5821914672852 -97.28960943222046 -80.0 1.000 1.000 1.000
v -1046.5821914672852 -176.28960943222046 -76.0 1.000 1.000 1.000
v -1046.5821914672852 -51.28960943222046 183.0 1.000 1.000 1.000
v -1046.5821914672852 -171.28960943222046 192.0 1.000 1.000 1.000
v -998.5821914672852 -89.28960943222046 169.0 1.000 1.000 1.000
v -946.5821914672852 -89.28960943222046 -9.0 1.000 1.000 1.000
v -936.5821914672852 -157.28960943222046 -65.0 1.000 1.000 1.000
v -944.5821914672852 -147.28960943222046 3.0 1.000 1.000 1.000
v -1000.5821914672852 -127.28960943222046 195.0 1.000 1.000 1.000
v -937.5821914672852 -97.28960943222046 -77.0 1.000 1.000 1.000
v -632.3899917602539 -92.21790027618408 30.0 1.000 1.000 1.000
v -649.3899917602539 -59.21790027618408 -13.0 1.000 1.000 1.000
v -659.3899917602539 -90.21790027618408 -96.0 1.000 1.000 1.000
v -657.3899917602539 -139.21790027618408 -85.0 1.000 1.000 1.000
v -649.3899917602539 -174.21790027618408 -3.0 1.000 1.000 1.000
v -632.3899917602539 -136.21790027618408 44.0 1.000 1.000 1.000
v -946.5821914672852 -89.28960943222046 -9.0 1.000 1.000 1.000
v -944.5821914672852 -147.28960943222046 3.0 1.000 1.000 1.000
v -937.5821914672852 -97.28960943222046 -77.0 1.000 1.000 1.000
v -936.5821914672852 -157.28960943222046 -65.0 1.000 1.000 1.000
v -541.3899917602539 -59.21790027618408 -14.0 1.000 1.000 1.000
v -539.3899917602539 -78.21790027618408 -73.0 1.000 1.000 1.000
v -540.3899917602539 -117.21790027618408 -66.0 1.000 1.000 1.000
v -532.3899917602539 -167.21790027618408 9.0 1.000 1.000 1.000
v -525.3899917602539 -119.21790027618408 52.0 1.000 1.000 1.000
v -526.3899917602539 -86.21790027618408 46.0 1.000 1.000 1.000
v -632.3899917602539 -92.21790027618408 30.0 1.000 1.000 1.000
v -649.3899917602539 -59.21790027618408 -13.0 1.000 1.000 1.000
v -659.3899917602539 -90.21790027618408 -96.0 1.000 1.000 1.000
v -657.3899917602539 -139.21790027618408 -85.0 1.000 1.000 1.000
v -649.3899917602539 -174.21790027618408 -3.0 1.000 1.000 1.000
v -632.3899917602539 -136.21790027618408 44.0 1.000 1.000 1.000
v -966.3899917602539 -147.21790027618408 3.0 1.000 1.000 1.000
v -441.3899917602539 -120.21790027618408 53.0 1.000 1.000 1.000
v -968.3899917602539 -89.21790027618408 -9.0 1.000 1.000 1.000
v -441.3899917602539 -73.21790027618408 53.0 1.000 1.000 1.000
v -441.3899917602539 -96.21790027618408 -67.0 1.000 1.000 1.000
v -959.3899917602539 -97.21790027618408 -77.0 1.000 1.000 1.000
v -441.3899917602539 -186.21790027618408 12.0 1.000 1.000 1.000
v -958.3899917602539 -157.21790027618408 -65.0 1.000 1.000 1.000
v -441.3899917602539 -120.21790027618408 53.0 1.000 1.000 1.000
v -441.3899917602539 -186.21790027618408 12.0 1.000 1.000 1.000
v -441.8936538696289 -189.61329650878906 99.0 1.000 1.000 1.000
v -442.8936538696289 -174.61329650878906 -11.0 1.000 1.000 1.000
v -442.8936538696289 -190.61329650878906 -97.0 1.000 1.000 1.000
v -440.8936538696289 -137.61329650878906 53.0 1.000 1.000 1.000
v -441.8936538696289 -130.61329650878906 89.0 1.000 1.000 1.000
v -438.8936538696289 -90.61329650878906 69.0 1.000 1.000 1.000
v -441.8936538696289 -72.61329650878906 76.0 1.000 1.000 1.000
v -438.8936538696289 -54.61329650878906 1.0 1.000 1.000 1.000
v -442.8936538696289 -41.61329650878906 13.0 1.000 1.000 1.000
v -439.8936538696289 -79.61329650878906 -58.0 1.000 1.000 1.000
v -442.8936538696289 -71.61329650878906 -66.0 1.000 1.000 1.000
v -441.8936538696289 -137.61329650878906 -51.0 1.000 1.000 1.000
v -442.8936538696289 -139.61329650878906 -93.0 1.000 1.000 1.000
v -500.8936538696289 -171.61329650878906 12.0 1.000 1.000 1.000
v -442.8936538696289 -174.61329650878906 -11.0 1.000 1.000 1.000
v -440.8936538696289 -137.61329650878906 53.0 1.000 1.000 1.000
v -439.8936538696289 -79.61329650878906 -58.0 1.000 1.000 1.000
v -441.8936538696289 -137.61329650878906 -51.0 1.000 1.000 1.000
v -497.8936538696289 -138.61329650878906 -34.0 1.000 1.000 1.000
v -465.8936538696289 -75.61329650878906 -57.0 1.000 1.000 1.000
v -450.8936538696289 -62.61329650878906 -46.0 1.000 1.000 1.000
v -442.8936538696289 -174.61329650878906 -11.0 1.000 1.000 1.000
v -445.8936538696289 -50.61329650878906 12.0 1.000 1.000 1.000
v -469.8936538696289 -84.61329650878906 67.0 1.000 1.000 1.000
v -438.8936538696289 -90.61329650878906 69.0 1.000 1.000 1.000
v -438.8936538696289 -54.61329650878906 1.0 1.000 1.000 1.000
v -440.8936538696289 -137.61329650878906 53.0 1.000 1.000 1.000
v -500.8936538696289 -171.61329650878906 12.0 1.000 1.000 1.000
v 3.0 -183.0 105.0 1.000 1.000 1.000
v -62.0 -135.0 95.0 1.000 1.000 1.000
v -145.0 -90.0 23.0 1.000 1.000 1.000
v 3.0 -183.0 105.0 1.000 1.000 1.000
v 0.0 -139.0 -98.0 1.000 1.000 1.000
v -90.0 -134.0 -75.0 1.000 1.000 1.000
v -48.0 -137.0 -105.0 1.000 1.000 1.000
v -441.8936538696289 -130.61329650878906 89.0 1.000 1.000 1.000
v -441.8936538696289 -189.61329650878906 99.0 1.000 1.000 1.000
v -441.8936538696289 -72.61329650878906 76.0 1.000 1.000 1.000
v -442.8936538696289 -41.61329650878906 13.0 1.000 1.000 1.000
v -441.8936538696289 -189.61329650878906 99.0 1.000 1.000 1.000
v -442.8936538696289 -190.61329650878906 -97.0 1.000 1.000 1.000
v -442.8936538696289 -71.61329650878906 -66.0 1.000 1.000 1.000
v -442.8936538696289 -139.61329650878906 -93.0 1.000 1.000 1.000
v -442.8936538696289 -41.61329650878906 13.0 1.000 1.000 1.000
v 0.0 -139.0 -98.0 1.000 1.000 1.000
v -48.0 -137.0 -105.0 1.000 1.000 1.000
v -90.0 -134.0 -75.0 1.000 1.000 1.000
v -145.0 -90.0 23.0 1.000 1.000 1.000
v -442.8936538696289 -190.61329650878906 -97.0 1.000 1.000 1.000
v -442.8936538696289 -139.61329650878906 -93.0 1.000 1.000 1.000
v -442.8936538696289 -41.61329650878906 13.0 1.000 1.000 1.000
v -450.8936538696289 -62.61329650878906 -46.0 1.000 1.000 1.000
v -465.8936538696289 -75.61329650878906 -57.0 1.000 1.000 1.000
v -497.8936538696289 -138.61329650878906 -34.0 1.000 1.000 1.000
v -500.8936538696289 -171.61329650878906 12.0 1.000 1.000 1.000
v -469.8936538696289 -84.61329650878906 67.0 1.000 1.000 1.000
v -445.8936538696289 -50.61329650878906 12.0 1.000 1.000 1.000
v -541.3899917602539 -59.21790027618408 -14.0 1.000 1.000 1.000
v -539.3899917602539 -78.21790027618408 -73.0 1.000 1.000 1.000
v -540.3899917602539 -117.21790027618408 -66.0 1.000 1.000 1.000
v -532.3899917602539 -167.21790027618408 9.0 1.000 1.000 1.000
v -525.3899917602539 -119.21790027618408 52.0 1.000 1.000 1.000
v -526.3899917602539 -86.21790027618408 46.0 1.000 1.000 1.000
v -441.8936538696289 -119.61329650878906 87.0 1.000 1.000 1.000
v -155.8936538696289 -200.61329650878906 20.0 1.000 1.000 1.000
v -155.8936538696289 -138.61329650878906 108.0 1.000 1.000 1.000
v -155.8936538696289 -109.61329650878906 -114.0 1.000 1.000 1.000
v -441.8936538696289 -200.61329650878906 13.0 1.000 1.000 1.000
v -441.8936538696289 -95.61329650878906 -67.0 1.000 1.000 1.000
v -441.8936538696289 -38.61329650878906 38.0 1.000 1.000 1.000
v -155.8936538696289 -38.61329650878906 27.0 1.000 1.000 1.000
v -155.8936538696289 -38.61329650878906 27.0 1.000 1.000 1.000
v -155.8936538696289 -138.61329650878906 108.0 1.000 1.000 1.000
v -155.8936538696289 -200.61329650878906 20.0 1.000 1.000 1.000
v -155.8936538696289 -109.61329650878906 -114.0 1.000 1.000 1.000
v -441.8936538696289 -119.61329650878906 53.0 1.000 1.000 1.000
v 7.852467060089111 537.4019470214844 125.0 1.000 1.000 1.000
v 70.85246706008911 635.4019470214844 87.0 1.000 1.000 1.000
v -1.1475329399108887 640.4019470214844 109.0 1.000 1.000 1.000
v -7.147532939910889 537.4019470214844 125.0 1.000 1.000 1.000
v -73.14753293991089 633.4019470214844 87.0 1.000 1.000 1.000
v -9.147532939910889 477.4019470214844 154.0 1.000 1.000 1.000
v -57.14753293991089 540.4019470214844 99.0 1.000 1.000 1.000
v 5.852467060089111 477.4019470214844 154.0 1.000 1.000 1.000
v 57.85246706008911 541.4019470214844 99.0 1.000 1.000 1.000
v -9.147532939910889 525.4019470214844 118.0 1.000 1.000 1.000
v -19.14753293991089 479.4019470214844 128.0 1.000 1.000 1.000
v -47.14753293991089 524.4019470214844 92.0 1.000 1.000 1.000
v -21.14753293991089 412.4019470214844 117.0 1.000 1.000 1.000
v 25.85246706008911 415.4019470214844 117.0 1.000 1.000 1.000
v 17.85246706008911 479.4019470214844 128.0 1.000 1.000 1.000
v 7.852467060089111 537.4019470214844 125.0 1.000 1.000 1.000
v 6.852467060089111 525.4019470214844 118.0 1.000 1.000 1.000
v 48.85246706008911 525.4019470214844 92.0 1.000 1.000 1.000
v 57.85246706008911 541.4019470214844 99.0 1.000 1.000 1.000
v -13.147532939910889 414.4019470214844 75.0 1.000 1.000 1.000
v -0.14753293991088867 414.4019470214844 75.0 1.000 1.000 1.000
v -2.1475329399108887 420.4019470214844 117.0 1.000 1.000 1.000
v 18.85246706008911 414.4019470214844 75.0 1.000 1.000 1.000
v 25.85246706008911 415.4019470214844 117.0 1.000 1.000 1.000
v -21.14753293991089 412.4019470214844 117.0 1.000 1.000 1.000
v 5.852467060089111 477.4019470214844 154.0 1.000 1.000 1.000
v -19.14753293991089 479.4019470214844 128.0 1.000 1.000 1.000
v -9.147532939910889 525.4019470214844 118.0 1.000 1.000 1.000
v -47.14753293991089 524.4019470214844 92.0 1.000 1.000 1.000
v -9.147532939910889 477.4019470214844 154.0 1.000 1.000 1.000
v -7.147532939910889 537.4019470214844 125.0 1.000 1.000 1.000
v 17.85246706008911 479.4019470214844 128.0 1.000 1.000 1.000
v 48.85246706008911 525.4019470214844 92.0 1.000 1.000 1.000
v 6.852467060089111 525.4019470214844 118.0 1.000 1.000 1.000
v -9.147532939910889 477.4019470214844 154.0 1.000 1.000 1.000
v -19.14753293991089 479.4019470214844 128.0 1.000 1.000 1.000
v 5.852467060089111 477.4019470214844 154.0 1.000 1.000 1.000
v -47.14753293991089 524.4019470214844 92.0 1.000 1.000 1.000
v -7.147532939910889 537.4019470214844 125.0 1.000 1.000 1.000
v -57.14753293991089 540.4019470214844 99.0 1.000 1.000 1.000
v 25.85246706008911 415.4019470214844 117.0 1.000 1.000 1.000
v -21.14753293991089 412.4019470214844 117.0 1.000 1.000 1.000
v 25.85246706008911 415.4019470214844 117.0 1.000 1.000 1.000
v 45.85246706008911 441.4019470214844 45.0 1.000 1.000 1.000
v 48.85246706008911 525.4019470214844 92.0 1.000 1.000 1.000
v 63.85246706008911 599.4019470214844 -75.0 1.000 1.000 1.000
v -2.1475329399108887 661.4019470214844 5.0 1.000 1.000 1.000
v 70.85246706008911 635.4019470214844 87.0 1.000 1.000 1.000
v 68.85246706008911 550.4019470214844 1.0 1.000 1.000 1.000
v 57.85246706008911 541.4019470214844 99.0 1.000 1.000 1.000
v 18.85246706008911 414.4019470214844 75.0 1.000 1.000 1.000
v -0.14753293991088867 414.4019470214844 75.0 1.000 1.000 1.000
v 45.85246706008911 441.4019470214844 45.0 1.000 1.000 1.000
v 25.85246706008911 415.4019470214844 117.0 1.000 1.000 1.000
v -21.14753293991089 412.4019470214844 117.0 1.000 1.000 1.000
v -2.1475329399108887 420.4019470214844 117.0 1.000 1.000 1.000
v 58.85246706008911 475.4019470214844 5.0 1.000 1.000 1.000
v 56.85246706008911 460.4019470214844 -53.0 1.000 1.000 1.000
v 48.85246706008911 525.4019470214844 92.0 1.000 1.000 1.000
v 25.85246706008911 415.4019470214844 117.0 1.000 1.000 1.000
v 27.85246706008911 459.4019470214844 -37.0 1.000 1.000 1.000
v -57.14753293991089 540.4019470214844 99.0 1.000 1.000 1.000
v -73.14753293991089 633.4019470214844 87.0 1.000 1.000 1.000
v -68.14753293991089 551.4019470214844 1.0 1.000 1.000 1.000
v -47.14753293991089 524.4019470214844 92.0 1.000 1.000 1.000
v -53.14753293991089 474.4019470214844 5.0 1.000 1.000 1.000
v -39.14753293991089 440.4019470214844 45.0 1.000 1.000 1.000
v -54.14753293991089 599.4019470214844 -75.0 1.000 1.000 1.000
v -13.147532939910889 414.4019470214844 75.0 1.000 1.000 1.000
v -0.14753293991088867 414.4019470214844 75.0 1.000 1.000 1.000
v -53.14753293991089 460.4019470214844 -53.0 1.000 1.000 1.000
v -21.14753293991089 412.4019470214844 117.0 1.000 1.000 1.000
v -36.14753293991089 460.4019470214844 -36.0 1.000 1.000 1.000
v 70.85246706008911 635.4019470214844 87.0 1.000 1.000 1.000
v -2.1475329399108887 661.4019470214844 5.0 1.000 1.000 1.000
v -1.1475329399108887 640.4019470214844 109.0 1.000 1.000 1.000
v 63.85246706008911 599.4019470214844 -75.0 1.000 1.000 1.000
v -53.14753293991089 460.4019470214844 -53.0 1.000 1.000 1.000
v -54.14753293991089 599.4019470214844 -75.0 1.000 1.000 1.000
v 56.85246706008911 460.4019470214844 -53.0 1.000 1.000 1.000
v -2.1475329399108887 661.4019470214844 5.0 1.000 1.000 1.000
v -73.14753293991089 633.4019470214844 87.0 1.000 1.000 1.000
v -1.1475329399108887 640.4019470214844 109.0 1.000 1.000 1.000
v -2.1475329399108887 661.4019470214844 5.0 1.000 1.000 1.000
v -54.14753293991089 599.4019470214844 -75.0 1.000 1.000 1.000
v -73.14753293991089 633.4019470214844 87.0 1.000 1.000 1.000
v -2.1475329399108887 661.4019470214844 5.0 1.000 1.000 1.000
v 27.85246706008911 459.4019470214844 -37.0 1.000 1.000 1.000
v -36.14753293991089 460.4019470214844 -36.0 1.000 1.000 1.000
v -24.14753293991089 530.4019470214844 136.0 1.000 1.000 1.000
v -37.14753293991089 524.4019470214844 136.0 1.000 1.000 1.000
v -43.14753293991089 508.4019470214844 136.0 1.000 1.000 1.000
v -24.14753293991089 530.4019470214844 136.0 1.000 1.000 1.000
v -43.14753293991089 508.4019470214844 136.0 1.000 1.000 1.000
v -37.14753293991089 493.4019470214844 136.0 1.000 1.000 1.000
v -24.14753293991089 487.4019470214844 136.0 1.000 1.000 1.000
v -12.147532939910889 493.4019470214844 136.0 1.000 1.000 1.000
v -5.147532939910889 508.4019470214844 136.0 1.000 1.000 1.000
v -12.147532939910889 524.4019470214844 136.0 1.000 1.000 1.000
v 23.85246706008911 530.4019470214844 136.0 1.000 1.000 1.000
v 11.852467060089111 524.4019470214844 136.0 1.000 1.000 1.000
v 4.852467060089111 508.4019470214844 136.0 1.000 1.000 1.000
v 11.852467060089111 493.4019470214844 136.0 1.000 1.000 1.000
v 23.85246706008911 487.4019470214844 136.0 1.000 1.000 1.000
v 35.85246706008911 493.4019470214844 136.0 1.000 1.000 1.000
v 42.85246706008911 508.4019470214844 136.0 1.000 1.000 1.000
v 35.85246706008911 524.4019470214844 136.0 1.000 1.000 1.000
v -0.14753293991088867 510.4019470214844 136.0 1.000 1.000 1.000
v 4.852467060089111 508.4019470214844 136.0 1.000 1.000 1.000
v 6.852467060089111 514.4019470214844 136.0 1.000 1.000 1.000
v -0.14753293991088867 516.4019470214844 136.0 1.000 1.000 1.000
v -8.147532939910889 514.4019470214844 136.0 1.000 1.000 1.000
v -5.147532939910889 508.4019470214844 136.0 1.000 1.000 1.000
v 41.85246706008911 505.4019470214844 136.0 1.000 1.000 1.000
v 63.85246706008911 520.4019470214844 18.0 1.000 1.000 1.000
v 42.85246706008911 508.4019470214844 136.0 1.000 1.000 1.000
v 67.85246706008911 512.4019470214844 18.0 1.000 1.000 1.000
v -43.14753293991089 508.4019470214844 136.0 1.000 1.000 1.000
v -65.14753293991089 511.4019470214844 18.0 1.000 1.000 1.000
v -41.14753293991089 504.4019470214844 136.0 1.000 1.000 1.000
v -61.14753293991089 519.4019470214844 18.0 1.000 1.000 1.000
v -39.14753293991089 459.4019470214844 -53.0 1.000 1.000 1.000
v 38.85246706008911 460.4019470214844 -53.0 1.000 1.000 1.000
v 39.85246706008911 411.4019470214844 125.0 1.000 1.000 1.000
v -39.14753293991089 411.4019470214844 125.0 1.000 1.000 1.000
v 62.85246706008911 633.4019470214844 120.0 1.000 1.000 1.000
v -64.14753293991089 633.4019470214844 120.0 1.000 1.000 1.000
v 39.85246706008911 411.4019470214844 125.0 1.000 1.000 1.000
v 38.85246706008911 460.4019470214844 -53.0 1.000 1.000 1.000
v 53.85246706008911 633.4019470214844 -60.0 1.000 1.000 1.000
v 62.85246706008911 633.4019470214844 120.0 1.000 1.000 1.000
v -64.14753293991089 633.4019470214844 120.0 1.000 1.000 1.000
v -54.14753293991089 633.4019470214844 -60.0 1.000 1.000 1.000
v -39.14753293991089 459.4019470214844 -53.0 1.000 1.000 1.000
v -39.14753293991089 411.4019470214844 125.0 1.000 1.000 1.000
v -64.14753293991089 633.4019470214844 120.0 1.000 1.000 1.000
v 62.85246706008911 633.4019470214844 120.0 1.000 1.000 1.000
v 53.85246706008911 633.4019470214844 -60.0 1.000 1.000 1.000
v -54.14753293991089 633.4019470214844 -60.0 1.000 1.000 1.000
v 38.85246706008911 460.4019470214844 -53.0 1.000 1.000 1.000
v -39.14753293991089 459.4019470214844 -53.0 1.000 1.000 1.000
v -54.14753293991089 633.4019470214844 -60.0 1.000 1.000 1.000
v 53.85246706008911 633.4019470214844 -60.0 1.000 1.000 1.000
v -24.14753293991089 530.4019470214844 136.0 1.000 1.000 1.000
v -37.14753293991089 524.4019470214844 136.0 1.000 1.000 1.000
v -43.14753293991089 508.4019470214844 136.0 1.000 1.000 1.000
v -37.14753293991089 493.4019470214844 136.0 1.000 1.000 1.000
v -24.14753293991089 487.4019470214844 136.0 1.000 1.000 1.000
v -12.147532939910889 493.4019470214844 136.0 1.000 1.000 1.000
v -5.147532939910889 508.4019470214844 136.0 1.000 1.000 1.000
v -12.147532939910889 524.4019470214844 136.0 1.000 1.000 1.000
v 23.85246706008911 530.4019470214844 136.0 1.000 1.000 1.000
v 11.852467060089111 524.4019470214844 136.0 1.000 1.000 1.000
v 4.852467060089111 508.4019470214844 136.0 1.000 1.000 1.000
v 11.852467060089111 493.4019470214844 136.0 1.000 1.000 1.000
v 23.85246706008911 487.4019470214844 136.0 1.000 1.000 1.000
v 35.85246706008911 493.4019470214844 136.0 1.000 1.000 1.000
v 42.85246706008911 508.4019470214844 136.0 1.000 1.000 1.000
v 35.85246706008911 524.4019470214844 136.0 1.000 1.000 1.000
v -0.14753293991088867 510.4019470214844 136.0 1.000 1.000 1.000
v 4.852467060089111 508.4019470214844 136.0 1.000 1.000 1.000
v 6.852467060089111 514.4019470214844 136.0 1.000 1.000 1.000
v -0.14753293991088867 516.4019470214844 136.0 1.000 1.000 1.000
v -8.147532939910889 514.4019470214844 136.0 1.000 1.000 1.000
v -5.147532939910889 508.4019470214844 136.0 1.000 1.000 1.000
v 41.85246706008911 505.4019470214844 136.0 1.000 1.000 1.000
v 63.85246706008911 520.4019470214844 18.0 1.000 1.000 1.000
v 42.85246706008911 508.4019470214844 136.0 1.000 1.000 1.000
v 67.85246706008911 512.4019470214844 18.0 1.000 1.000 1.000
v -43.14753293991089 508.4019470214844 136.0 1.000 1.000 1.000
v -65.14753293991089 511.4019470214844 18.0 1.000 1.000 1.000
v -41.14753293991089 504.4019470214844 136.0 1.000 1.000 1.000
v -61.14753293991089 519.4019470214844 18.0 1.000 1.000 1.000
v -229.05963134765625 354.08922004699707 70.0 1.000 1.000 1.000
v -173.05963134765625 415.08922004699707 0.0 1.000 1.000 1.000
v -279.05963134765625 415.08922004699707 0.0 1.000 1.000 1.000
v -173.05963134765625 415.08922004699707 0.0 1.000 1.000 1.000
v -201.05963134765625 392.08922004699707 -45.0 1.000 1.000 1.000
v -279.05963134765625 415.08922004699707 0.0 1.000 1.000 1.000
v -262.05963134765625 393.08922004699707 -46.0 1.000 1.000 1.000
v -0.14753293991088867 414.4019470214844 75.0 1.000 1.000 1.000
v -39.14753293991089 440.4019470214844 45.0 1.000 1.000 1.000
v 45.85246706008911 441.4019470214844 45.0 1.000 1.000 1.000
v -36.14753293991089 460.4019470214844 -36.0 1.000 1.000 1.000
v 27.85246706008911 459.4019470214844 -37.0 1.000 1.000 1.000
v 27.85246706008911 459.4019470214844 -37.0 1.000 1.000 1.000
v -36.14753293991089 460.4019470214844 -36.0 1.000 1.000 1.000
v -669.5505331754684 299.9595012664795 55.0 1.000 1.000 1.000
v -636.5505331754684 366.9595012664795 -27.0 1.000 1.000 1.000
v -658.5505331754684 306.9595012664795 -44.0 1.000 1.000 1.000
v -651.5505331754684 385.9595012664795 52.0 1.000 1.000 1.000
v -636.5505331754684 366.9595012664795 -27.0 1.000 1.000 1.000
v -564.5505331754684 365.9595012664795 42.0 1.000 1.000 1.000
v -573.5505331754684 351.9595012664795 -27.0 1.000 1.000 1.000
v -651.5505331754684 385.9595012664795 52.0 1.000 1.000 1.000
v -573.5505331754684 351.9595012664795 -27.0 1.000 1.000 1.000
v -658.5505331754684 306.9595012664795 -44.0 1.000 1.000 1.000
v -636.5505331754684 366.9595012664795 -27.0 1.000 1.000 1.000
v -572.5505331754684 318.9595012664795 -23.0 1.000 1.000 1.000
v -564.5505331754684 365.9595012664795 42.0 1.000 1.000 1.000
v -669.5505331754684 299.9595012664795 55.0 1.000 1.000 1.000
v -562.5505331754684 312.9595012664795 38.0 1.000 1.000 1.000
v -651.5505331754684 385.9595012664795 52.0 1.000 1.000 1.000
v -658.5505331754684 306.9595012664795 -44.0 1.000 1.000 1.000
v -562.5505331754684 312.9595012664795 38.0 1.000 1.000 1.000
v -669.5505331754684 299.9595012664795 55.0 1.000 1.000 1.000
v -572.5505331754684 318.9595012664795 -23.0 1.000 1.000 1.000
v -435.4909018278122 339.8702812194824 55.0 1.000 1.000 1.000
v -436.4909018278122 378.8702812194824 47.0 1.000 1.000 1.000
v -436.4909018278122 382.8702812194824 5.0 1.000 1.000 1.000
v -437.4909018278122 346.8702812194824 -36.0 1.000 1.000 1.000
v -437.4909018278122 304.8702812194824 -10.0 1.000 1.000 1.000
v -436.4909018278122 306.8702812194824 42.0 1.000 1.000 1.000
v -564.5505331754684 365.9595012664795 42.0 1.000 1.000 1.000
v -573.5505331754684 351.9595012664795 -27.0 1.000 1.000 1.000
v -572.5505331754684 318.9595012664795 -23.0 1.000 1.000 1.000
v -562.5505331754684 312.9595012664795 38.0 1.000 1.000 1.000
v -350.4909018278122 390.8702812194824 6.0 1.000 1.000 1.000
v -351.4909018278122 346.8702812194824 -33.0 1.000 1.000 1.000
v -351.4909018278122 299.8702812194824 -10.0 1.000 1.000 1.000
v -350.4909018278122 306.8702812194824 47.0 1.000 1.000 1.000
v -349.4909018278122 339.8702812194824 53.0 1.000 1.000 1.000
v -350.4909018278122 387.8702812194824 45.0 1.000 1.000 1.000
v -436.4909018278122 382.8702812194824 5.0 1.000 1.000 1.000
v -437.4909018278122 346.8702812194824 -36.0 1.000 1.000 1.000
v -437.4909018278122 304.8702812194824 -10.0 1.000 1.000 1.000
v -436.4909018278122 306.8702812194824 42.0 1.000 1.000 1.000
v -435.4909018278122 339.8702812194824 55.0 1.000 1.000 1.000
v -436.4909018278122 378.8702812194824 47.0 1.000 1.000 1.000
v -354.4909018278122 290.8702812194824 53.0 1.000 1.000 1.000
v -362.4909018278122 364.8702812194824 53.0 1.000 1.000 1.000
v -580.4909018278122 312.8702812194824 38.0 1.000 1.000 1.000
v -590.4909018278122 318.8702812194824 -23.0 1.000 1.000 1.000
v -354.4909018278122 287.8702812194824 -27.0 1.000 1.000 1.000
v -582.4909018278122 365.8702812194824 42.0 1.000 1.000 1.000
v -362.4909018278122 375.8702812194824 -33.0 1.000 1.000 1.000
v -591.4909018278122 351.8702812194824 -27.0 1.000 1.000 1.000
v -276.26484286785126 309.0061378479004 61.0 1.000 1.000 1.000
v -213.26484286785126 284.0061378479004 -16.0 1.000 1.000 1.000
v -178.26484286785126 288.0061378479004 66.0 1.000 1.000 1.000
v -127.26484286785126 342.0061378479004 69.0 1.000 1.000 1.000
v -278.26484286785126 337.0061378479004 64.0 1.000 1.000 1.000
v -270.26484286785126 359.0061378479004 -41.0 1.000 1.000 1.000
v -68.26484286785126 342.0061378479004 11.0 1.000 1.000 1.000
v -114.26484286785126 335.0061378479004 -43.0 1.000 1.000 1.000
v -291.26484286785126 295.0061378479004 -10.0 1.000 1.000 1.000
v -250.26484286785126 378.0061378479004 57.0 1.000 1.000 1.000
v -254.26484286785126 382.0061378479004 7.0 1.000 1.000 1.000
v -369.05963134765625 213.08922004699707 68.0 1.000 1.000 1.000
v -368.05963134765625 200.08922004699707 -19.0 1.000 1.000 1.000
v -366.05963134765625 355.08922004699707 -40.0 1.000 1.000 1.000
v -365.05963134765625 379.08922004699707 5.0 1.000 1.000 1.000
v -366.05963134765625 361.08922004699707 63.0 1.000 1.000 1.000
v -213.26484286785126 284.0061378479004 -16.0 1.000 1.000 1.000
v -178.26484286785126 288.0061378479004 66.0 1.000 1.000 1.000
v -114.26484286785126 335.0061378479004 -43.0 1.000 1.000 1.000
v -68.26484286785126 342.0061378479004 11.0 1.000 1.000 1.000
v -127.26484286785126 342.0061378479004 69.0 1.000 1.000 1.000
v -254.26484286785126 382.0061378479004 7.0 1.000 1.000 1.000
v -270.26484286785126 359.0061378479004 -41.0 1.000 1.000 1.000
v -291.26484286785126 295.0061378479004 -10.0 1.000 1.000 1.000
v -276.26484286785126 309.0061378479004 61.0 1.000 1.000 1.000
v -278.26484286785126 337.0061378479004 64.0 1.000 1.000 1.000
v -250.26484286785126 378.0061378479004 57.0 1.000 1.000 1.000
v -350.4909018278122 390.8702812194824 6.0 1.000 1.000 1.000
v -351.4909018278122 346.8702812194824 -33.0 1.000 1.000 1.000
v -351.4909018278122 299.8702812194824 -10.0 1.000 1.000 1.000
v -350.4909018278122 306.8702812194824 47.0 1.000 1.000 1.000
v -349.4909018278122 339.8702812194824 53.0 1.000 1.000 1.000
v -350.4909018278122 387.8702812194824 45.0 1.000 1.000 1.000
v -59.26484286785126 355.0061378479004 70.0 1.000 1.000 1.000
v -46.26484286785126 287.0061378479004 67.0 1.000 1.000 1.000
v -21.264842867851257 285.0061378479004 -44.0 1.000 1.000 1.000
v -59.26484286785126 367.0061378479004 -31.0 1.000 1.000 1.000
v -355.26484286785126 290.0061378479004 53.0 1.000 1.000 1.000
v -21.264842867851257 285.0061378479004 -44.0 1.000 1.000 1.000
v -46.26484286785126 287.0061378479004 67.0 1.000 1.000 1.000
v -362.26484286785126 365.0061378479004 53.0 1.000 1.000 1.000
v -363.26484286785126 376.0061378479004 -33.0 1.000 1.000 1.000
v -354.26484286785126 288.0061378479004 -27.0 1.000 1.000 1.000
v 311.59620666503906 -29.79280300438404 -43.499842166900635 1.000 1.000 1.000
v 286.59620666503906 38.20719699561596 -28.499842166900635 1.000 1.000 1.000
v 321.59620666503906 -34.79280300438404 56.500157833099365 1.000 1.000 1.000
v 299.59620666503906 51.20719699561596 50.500157833099365 1.000 1.000 1.000
v 225.59620666503906 15.20719699561596 -28.499842166900635 1.000 1.000 1.000
v 215.59620666503906 29.20719699561596 40.500157833099365 1.000 1.000 1.000
v 286.59620666503906 38.20719699561596 -28.499842166900635 1.000 1.000 1.000
v 299.59620666503906 51.20719699561596 50.500157833099365 1.000 1.000 1.000
v 286.59620666503906 38.20719699561596 -28.499842166900635 1.000 1.000 1.000
v 311.59620666503906 -29.79280300438404 -43.499842166900635 1.000 1.000 1.000
v 225.59620666503906 15.20719699561596 -28.499842166900635 1.000 1.000 1.000
v 224.59620666503906 -18.79280300438404 -24.499842166900635 1.000 1.000 1.000
v 213.59620666503906 -23.79280300438404 37.500157833099365 1.000 1.000 1.000
v 321.59620666503906 -34.79280300438404 56.500157833099365 1.000 1.000 1.000
v 215.59620666503906 29.20719699561596 40.500157833099365 1.000 1.000 1.000
v 299.59620666503906 51.20719699561596 50.500157833099365 1.000 1.000 1.000
v 321.59620666503906 -34.79280300438404 56.500157833099365 1.000 1.000 1.000
v 213.59620666503906 -23.79280300438404 37.500157833099365 1.000 1.000 1.000
v 311.59620666503906 -29.79280300438404 -43.499842166900635 1.000 1.000 1.000
v 224.59620666503906 -18.79280300438404 -24.499842166900635 1.000 1.000 1.000
v 448.59631741046906 381.51026916503906 49.326773166656494 1.000 1.000 1.000
v 447.59631741046906 344.51026916503906 58.326773166656494 1.000 1.000 1.000
v 448.59631741046906 303.51026916503906 47.326773166656494 1.000 1.000 1.000
v 449.59631741046906 309.51026916503906 -5.673226833343506 1.000 1.000 1.000
v 451.59631741046906 350.51026916503906 -32.673226833343506 1.000 1.000 1.000
v 449.59631741046906 385.51026916503906 8.326773166656494 1.000 1.000 1.000
v 215.59620666503906 29.20719699561596 40.500157833099365 1.000 1.000 1.000
v 213.59620666503906 -23.79280300438404 37.500157833099365 1.000 1.000 1.000
v 224.59620666503906 -18.79280300438404 -24.499842166900635 1.000 1.000 1.000
v 225.59620666503906 15.20719699561596 -28.499842166900635 1.000 1.000 1.000
v 356.59631741046906 310.51026916503906 -6.673226833343506 1.000 1.000 1.000
v 361.59631741046906 349.51026916503906 -30.673226833343506 1.000 1.000 1.000
v 359.59631741046906 389.51026916503906 7.326773166656494 1.000 1.000 1.000
v 358.59631741046906 387.51026916503906 46.326773166656494 1.000 1.000 1.000
v 357.59631741046906 344.51026916503906 55.326773166656494 1.000 1.000 1.000
v 358.59631741046906 304.51026916503906 49.326773166656494 1.000 1.000 1.000
v 449.59631741046906 309.51026916503906 -5.673226833343506 1.000 1.000 1.000
v 451.59631741046906 350.51026916503906 -32.673226833343506 1.000 1.000 1.000
v 449.59631741046906 385.51026916503906 8.326773166656494 1.000 1.000 1.000
v 448.59631741046906 381.51026916503906 49.326773166656494 1.000 1.000 1.000
v 447.59631741046906 344.51026916503906 58.326773166656494 1.000 1.000 1.000
v 448.59631741046906 303.51026916503906 47.326773166656494 1.000 1.000 1.000
v 589.596317410469 319.51026916503906 45.326773166656494 1.000 1.000 1.000
v 365.59631741046906 372.51026916503906 54.326773166656494 1.000 1.000 1.000
v 357.59631741046906 298.51026916503906 56.326773166656494 1.000 1.000 1.000
v 358.59631741046906 293.51026916503906 -21.673226833343506 1.000 1.000 1.000
v 600.596317410469 324.51026916503906 -16.673226833343506 1.000 1.000 1.000
v 366.59631741046906 382.51026916503906 -31.673226833343506 1.000 1.000 1.000
v 590.596317410469 372.51026916503906 47.326773166656494 1.000 1.000 1.000
v 600.596317410469 358.51026916503906 -21.673226833343506 1.000 1.000 1.000
v 186.10727322101593 293.19926834106445 66.0 1.000 1.000 1.000
v 223.10727322101593 287.19926834106445 -15.0 1.000 1.000 1.000
v 284.10727322101593 315.19926834106445 62.0 1.000 1.000 1.000
v 286.10727322101593 342.19926834106445 66.0 1.000 1.000 1.000
v 135.10727322101593 347.19926834106445 68.0 1.000 1.000 1.000
v 123.10727322101593 338.19926834106445 -45.0 1.000 1.000 1.000
v 72.10727322101593 360.19926834106445 8.0 1.000 1.000 1.000
v 278.10727322101593 343.19926834106445 -40.0 1.000 1.000 1.000
v 300.10727322101593 300.19926834106445 -8.0 1.000 1.000 1.000
v 254.10727322101593 381.19926834106445 57.0 1.000 1.000 1.000
v 261.10727322101593 383.19926834106445 6.0 1.000 1.000 1.000
v -62.05963134765625 236.08922004699707 67.0 1.000 1.000 1.000
v -62.05963134765625 200.08922004699707 -17.0 1.000 1.000 1.000
v -66.05963134765625 349.08922004699707 -39.0 1.000 1.000 1.000
v -66.05963134765625 377.08922004699707 3.0 1.000 1.000 1.000
v -67.05963134765625 356.08922004699707 63.0 1.000 1.000 1.000
v 186.10727322101593 293.19926834106445 66.0 1.000 1.000 1.000
v 223.10727322101593 287.19926834106445 -15.0 1.000 1.000 1.000
v 123.10727322101593 338.19926834106445 -45.0 1.000 1.000 1.000
v 72.10727322101593 360.19926834106445 8.0 1.000 1.000 1.000
v 135.10727322101593 347.19926834106445 68.0 1.000 1.000 1.000
v 261.10727322101593 383.19926834106445 6.0 1.000 1.000 1.000
v 278.10727322101593 343.19926834106445 -40.0 1.000 1.000 1.000
v 300.10727322101593 300.19926834106445 -8.0 1.000 1.000 1.000
v 284.10727322101593 315.19926834106445 62.0 1.000 1.000 1.000
v 286.10727322101593 342.19926834106445 66.0 1.000 1.000 1.000
v 254.10727322101593 381.19926834106445 57.0 1.000 1.000 1.000
v 361.59631741046906 349.51026916503906 -30.673226833343506 1.000 1.000 1.000
v 359.59631741046906 389.51026916503906 7.326773166656494 1.000 1.000 1.000
v 356.59631741046906 310.51026916503906 -6.673226833343506 1.000 1.000 1.000
v 358.59631741046906 304.51026916503906 49.326773166656494 1.000 1.000 1.000
v 357.59631741046906 344.51026916503906 55.326773166656494 1.000 1.000 1.000
v 358.59631741046906 387.51026916503906 46.326773166656494 1.000 1.000 1.000
v 49.10727322101593 294.19926834106445 67.0 1.000 1.000 1.000
v 25.10727322101593 290.19926834106445 -45.0 1.000 1.000 1.000
v 357.10727322101593 298.19926834106445 56.0 1.000 1.000 1.000
v 365.10727322101593 372.19926834106445 55.0 1.000 1.000 1.000
v 64.10727322101593 359.19926834106445 68.0 1.000 1.000 1.000
v 65.10727322101593 370.19926834106445 -33.0 1.000 1.000 1.000
v 367.10727322101593 382.19926834106445 -32.0 1.000 1.000 1.000
v 359.10727322101593 294.19926834106445 -22.0 1.000 1.000 1.000
v 49.10727322101593 294.19926834106445 67.0 1.000 1.000 1.000
v 25.10727322101593 290.19926834106445 -45.0 1.000 1.000 1.000
v -54.05963134765625 402.08922004699707 -70.0 1.000 1.000 1.000
v -60.05963134765625 -74.91077995300293 -79.0 1.000 1.000 1.000
v -369.05963134765625 -78.91077995300293 -79.0 1.000 1.000 1.000
v -375.05963134765625 400.08922004699707 -72.0 1.000 1.000 1.000
v -369.05963134765625 -78.91077995300293 -79.0 1.000 1.000 1.000
v -369.05963134765625 -73.91077995300293 119.0 1.000 1.000 1.000
v -375.05963134765625 400.08922004699707 -72.0 1.000 1.000 1.000
v -60.05963134765625 -74.91077995300293 -79.0 1.000 1.000 1.000
v -54.05963134765625 402.08922004699707 -70.0 1.000 1.000 1.000
v -60.05963134765625 -70.91077995300293 119.0 1.000 1.000 1.000
v -354.05963134765625 359.08922004699707 147.0 1.000 1.000 1.000
v -375.05963134765625 400.08922004699707 -72.0 1.000 1.000 1.000
v -73.05963134765625 361.08922004699707 148.0 1.000 1.000 1.000
v -73.05963134765625 361.08922004699707 148.0 1.000 1.000 1.000
v -375.05963134765625 400.08922004699707 -72.0 1.000 1.000 1.000
v -354.05963134765625 359.08922004699707 147.0 1.000 1.000 1.000
v -73.05963134765625 361.08922004699707 148.0 1.000 1.000 1.000
v -369.05963134765625 -73.91077995300293 119.0 1.000 1.000 1.000
v -60.05963134765625 -70.91077995300293 119.0 1.000 1.000 1.000
v -375.05963134765625 400.08922004699707 -72.0 1.000 1.000 1.000
v -73.05963134765625 361.08922004699707 148.0 1.000 1.000 1.000
v -54.05963134765625 402.08922004699707 -70.0 1.000 1.000 1.000
v -354.05963134765625 359.08922004699707 147.0 1.000 1.000 1.000
v -369.05963134765625 -78.91077995300293 -79.0 1.000 1.000 1.000
v -60.05963134765625 -74.91077995300293 -79.0 1.000 1.000 1.000
v -369.05963134765625 -73.91077995300293 119.0 1.000 1.000 1.000
v -60.05963134765625 -70.91077995300293 119.0 1.000 1.000 1.000
v -284.05963134765625 280.08922004699707 -92.0 1.000 1.000 1.000
v -276.05963134765625 33.08922004699707 -67.0 1.000 1.000 1.000
v -311.05963134765625 31.08922004699707 -55.0 1.000 1.000 1.000
v -161.05963134765625 280.08922004699707 -93.0 1.000 1.000 1.000
v -296.05963134765625 358.08922004699707 -68.0 1.000 1.000 1.000
v -368.05963134765625 200.08922004699707 -19.0 1.000 1.000 1.000
v -366.05963134765625 355.08922004699707 -40.0 1.000 1.000 1.000
v -225.05963134765625 33.08922004699707 -69.0 1.000 1.000 1.000
v -66.05963134765625 349.08922004699707 -39.0 1.000 1.000 1.000
v -145.05963134765625 359.08922004699707 -68.0 1.000 1.000 1.000
v -170.05963134765625 32.08922004699707 -70.0 1.000 1.000 1.000
v -365.05963134765625 379.08922004699707 5.0 1.000 1.000 1.000
v -262.05963134765625 393.08922004699707 -46.0 1.000 1.000 1.000
v -201.05963134765625 392.08922004699707 -45.0 1.000 1.000 1.000
v -66.05963134765625 377.08922004699707 3.0 1.000 1.000 1.000
v -135.05963134765625 33.08922004699707 -57.0 1.000 1.000 1.000
v -311.05963134765625 31.08922004699707 -55.0 1.000 1.000 1.000
v -369.05963134765625 27.08922004699707 24.0 1.000 1.000 1.000
v -368.05963134765625 200.08922004699707 -19.0 1.000 1.000 1.000
v -161.05963134765625 280.08922004699707 -93.0 1.000 1.000 1.000
v -66.05963134765625 349.08922004699707 -39.0 1.000 1.000 1.000
v -62.05963134765625 200.08922004699707 -17.0 1.000 1.000 1.000
v -135.05963134765625 33.08922004699707 -57.0 1.000 1.000 1.000
v -59.05963134765625 47.08922004699707 24.0 1.000 1.000 1.000
v -201.05963134765625 392.08922004699707 -45.0 1.000 1.000 1.000
v -145.05963134765625 359.08922004699707 -68.0 1.000 1.000 1.000
v -296.05963134765625 358.08922004699707 -68.0 1.000 1.000 1.000
v -284.05963134765625 280.08922004699707 -92.0 1.000 1.000 1.000
v -366.05963134765625 355.08922004699707 -40.0 1.000 1.000 1.000
v -225.05963134765625 33.08922004699707 -69.0 1.000 1.000 1.000
v -173.05963134765625 415.08922004699707 0.0 1.000 1.000 1.000
v -66.05963134765625 377.08922004699707 3.0 1.000 1.000 1.000
v -365.05963134765625 379.08922004699707 5.0 1.000 1.000 1.000
v -279.05963134765625 415.08922004699707 0.0 1.000 1.000 1.000
v -262.05963134765625 393.08922004699707 -46.0 1.000 1.000 1.000
v -229.05963134765625 354.08922004699707 70.0 1.000 1.000 1.000
v -124.05963134765625 350.08922004699707 85.0 1.000 1.000 1.000
v -173.05963134765625 415.08922004699707 0.0 1.000 1.000 1.000
v -66.05963134765625 377.08922004699707 3.0 1.000 1.000 1.000
v -67.05963134765625 356.08922004699707 63.0 1.000 1.000 1.000
v -228.05963134765625 228.08922004699707 145.0 1.000 1.000 1.000
v -94.05963134765625 232.08922004699707 120.0 1.000 1.000 1.000
v -343.05963134765625 233.08922004699707 120.0 1.000 1.000 1.000
v -369.05963134765625 27.08922004699707 24.0 1.000 1.000 1.000
v -287.05963134765625 24.08922004699707 137.0 1.000 1.000 1.000
v -326.05963134765625 349.08922004699707 85.0 1.000 1.000 1.000
v -279.05963134765625 415.08922004699707 0.0 1.000 1.000 1.000
v -365.05963134765625 379.08922004699707 5.0 1.000 1.000 1.000
v -228.05963134765625 228.08922004699707 145.0 1.000 1.000 1.000
v -287.05963134765625 24.08922004699707 137.0 1.000 1.000 1.000
v -225.05963134765625 22.08922004699707 151.0 1.000 1.000 1.000
v -229.05963134765625 354.08922004699707 70.0 1.000 1.000 1.000
v -279.05963134765625 415.08922004699707 0.0 1.000 1.000 1.000
v -326.05963134765625 349.08922004699707 85.0 1.000 1.000 1.000
v -155.05963134765625 24.08922004699707 137.0 1.000 1.000 1.000
v -62.05963134765625 236.08922004699707 67.0 1.000 1.000 1.000
v -67.05963134765625 356.08922004699707 63.0 1.000 1.000 1.000
v -94.05963134765625 232.08922004699707 120.0 1.000 1.000 1.000
v -62.05963134765625 200.08922004699707 -17.0 1.000 1.000 1.000
v -343.05963134765625 233.08922004699707 120.0 1.000 1.000 1.000
v -366.05963134765625 361.08922004699707 63.0 1.000 1.000 1.000
v -369.05963134765625 213.08922004699707 68.0 1.000 1.000 1.000
v -368.05963134765625 200.08922004699707 -19.0 1.000 1.000 1.000
v -369.05963134765625 27.08922004699707 24.0 1.000 1.000 1.000
v -94.05963134765625 232.08922004699707 120.0 1.000 1.000 1.000
v -155.05963134765625 24.08922004699707 137.0 1.000 1.000 1.000
v -59.05963134765625 47.08922004699707 24.0 1.000 1.000 1.000
v -326.05963134765625 349.08922004699707 85.0 1.000 1.000 1.000
v -366.05963134765625 361.08922004699707 63.0 1.000 1.000 1.000
v -228.05963134765625 228.08922004699707 145.0 1.000 1.000 1.000
v -365.05963134765625 379.08922004699707 5.0 1.000 1.000 1.000
v -62.05963134765625 200.08922004699707 -17.0 1.000 1.000 1.000
v -343.05963134765625 233.08922004699707 120.0 1.000 1.000 1.000
v -67.05963134765625 356.08922004699707 63.0 1.000 1.000 1.000
v -124.05963134765625 350.08922004699707 85.0 1.000 1.000 1.000
v -66.05963134765625 377.08922004699707 3.0 1.000 1.000 1.000
v -229.05963134765625 354.08922004699707 70.0 1.000 1.000 1.000
v -140.0 -34.0 23.0 1.000 1.000 1.000
v -83.0 -26.0 -70.0 1.000 1.000 1.000
v -33.0 -25.0 -76.0 1.000 1.000 1.000
v -7.0 -25.0 -74.0 1.000 1.000 1.000
v 38.0 -25.0 -76.0 1.000 1.000 1.000
v 98.0 -25.0 -73.0 1.000 1.000 1.000
v 168.0 -31.0 25.0 1.000 1.000 1.000
v -369.05963134765625 27.08922004699707 24.0 1.000 1.000 1.000
v -311.05963134765625 31.08922004699707 -55.0 1.000 1.000 1.000
v -276.05963134765625 33.08922004699707 -67.0 1.000 1.000 1.000
v -225.05963134765625 33.08922004699707 -69.0 1.000 1.000 1.000
v -170.05963134765625 32.08922004699707 -70.0 1.000 1.000 1.000
v -135.05963134765625 33.08922004699707 -57.0 1.000 1.000 1.000
v -59.05963134765625 47.08922004699707 24.0 1.000 1.000 1.000
v 168.0 -31.0 25.0 1.000 1.000 1.000
v -140.0 -34.0 23.0 1.000 1.000 1.000
v 74.0 -13.0 115.0 1.000 1.000 1.000
v 1.0 -18.0 121.0 1.000 1.000 1.000
v -62.0 -16.0 111.0 1.000 1.000 1.000
v -59.05963134765625 47.08922004699707 24.0 1.000 1.000 1.000
v -155.05963134765625 24.08922004699707 137.0 1.000 1.000 1.000
v -287.05963134765625 24.08922004699707 137.0 1.000 1.000 1.000
v -369.05963134765625 27.08922004699707 24.0 1.000 1.000 1.000
v -225.05963134765625 22.08922004699707 151.0 1.000 1.000 1.000
v -145.0 -90.0 23.0 1.000 1.000 1.000
v -140.0 -34.0 23.0 1.000 1.000 1.000
v -90.0 -134.0 -75.0 1.000 1.000 1.000
v -83.0 -26.0 -70.0 1.000 1.000 1.000
v -48.0 -137.0 -105.0 1.000 1.000 1.000
v -33.0 -25.0 -76.0 1.000 1.000 1.000
v 0.0 -139.0 -98.0 1.000 1.000 1.000
v -7.0 -25.0 -74.0 1.000 1.000 1.000
v 48.0 -138.0 -105.0 1.000 1.000 1.000
v 38.0 -25.0 -76.0 1.000 1.000 1.000
v 93.0 -132.0 -78.0 1.000 1.000 1.000
v 98.0 -25.0 -73.0 1.000 1.000 1.000
v 168.0 -86.0 25.0 1.000 1.000 1.000
v 168.0 -31.0 25.0 1.000 1.000 1.000
v 168.0 -86.0 25.0 1.000 1.000 1.000
v 168.0 -31.0 25.0 1.000 1.000 1.000
v 68.0 -131.0 99.0 1.000 1.000 1.000
v 74.0 -13.0 115.0 1.000 1.000 1.000
v 3.0 -183.0 105.0 1.000 1.000 1.000
v 1.0 -18.0 121.0 1.000 1.000 1.000
v -62.0 -135.0 95.0 1.000 1.000 1.000
v -62.0 -16.0 111.0 1.000 1.000 1.000
v -145.0 -90.0 23.0 1.000 1.000 1.000
v -140.0 -34.0 23.0 1.000 1.000 1.000
v -148.0 -170.0 -114.0 1.000 1.000 1.000
v -140.0 -40.0 -79.0 1.000 1.000 1.000
v 168.0 -36.0 -79.0 1.000 1.000 1.000
v 173.0 -171.0 -114.0 1.000 1.000 1.000
v -148.0 -170.0 108.0 1.000 1.000 1.000
v -140.0 -40.0 -79.0 1.000 1.000 1.000
v -148.0 -170.0 -114.0 1.000 1.000 1.000
v -140.0 -35.0 119.0 1.000 1.000 1.000
v 168.0 -36.0 -79.0 1.000 1.000 1.000
v 173.0 -169.0 108.0 1.000 1.000 1.000
v 168.0 -32.0 119.0 1.000 1.000 1.000
v -140.0 -35.0 119.0 1.000 1.000 1.000
v -148.0 -170.0 108.0 1.000 1.000 1.000
v 173.0 -169.0 108.0 1.000 1.000 1.000
v 168.0 -32.0 119.0 1.000 1.000 1.000
v -140.0 -40.0 -79.0 1.000 1.000 1.000
v 168.0 -32.0 119.0 1.000 1.000 1.000
v 168.0 -36.0 -79.0 1.000 1.000 1.000
v -140.0 -35.0 119.0 1.000 1.000 1.000
v 173.0 -171.0 -114.0 1.000 1.000 1.000
v 173.0 -169.0 108.0 1.000 1.000 1.000
v -148.0 -170.0 108.0 1.000 1.000 1.000
v -148.0 -170.0 -114.0 1.000 1.000 1.000
vt 0.9128 1.0000
vt 0.0723 0.9141
vt 0.0501 0.9121
vt 0.9460 1.0039
vt 0.0566 0.0547
vt 0.2786 0.1504
vt 0.8652 0.6162
vt 0.9505 0.6436
vt 0.3177 0.1406
vt 0.0990 0.0479
vt 0.2549 1.0000
vt 0.5117 1.0026
vt 0.5371 0.4049
vt 0.4961 0.9850
vt 0.5449 0.4544
vt 0.7119 0.4355
vt 0.2021 0.9831
vt 0.3428 0.4525
vt 0.1484 0.4375
vt 0.3301 0.4056
vt 0.7227 0.2298
vt 0.5137 0.2044
vt 0.4023 0.2292
vt 0.6123 0.2285
vt 0.2002 0.2168
vt 0.3867 0.2038
vt 0.7168 1.0104
vt 0.3867 0.0319
vt 0.2754 1.0065
vt 0.6875 0.9922
vt 0.5850 0.0319
vt 0.9551 0.0319
vt -0.0264 0.0319
vt 0.1816 0.9896
vt 0.5195 0.3418
vt 0.4961 0.5234
vt 0.6045 0.4277
vt 0.5820 0.5111
vt 0.6475 0.4408
vt 0.7109 0.4544
vt 0.7207 0.3125
vt 0.7705 0.2871
vt 0.6465 0.1725
vt 0.7100 0.1589
vt 0.5791 0.2057
vt 0.5879 0.1309
vt 0.5137 0.1113
vt 0.3174 0.0410
vt 0.1553 0.0456
vt 0.1709 0.1569
vt 0.3340 0.1517
vt 0.4229 0.0391
vt 0.5547 0.0339
vt 0.6953 0.0612
vt 0.5498 0.0892
vt 0.5156 0.0358
vt 0.5303 0.1009
vt 0.7646 0.0599
vt 0.7578 0.0352
vt 0.5234 0.1146
vt 0.6494 0.9733
vt 0.2832 0.9779
vt 0.0352 -0.0098
vt 0.8398 0.2611
vt 0.8750 0.9707
vt 0.0850 0.9818
vt 0.1953 0.2103
vt 0.8877 0.9746
vt 0.2295 0.9609
vt 0.8750 0.0964
vt 0.5859 0.0866
vt 0.8340 0.9583
vt 0.8145 0.1302
vt 0.5840 0.9635
vt 0.3779 0.1243
vt 0.2158 0.9740
vt 0.0195 0.0052
vt 0.0635 0.9805
vt 0.7734 0.0312
vt 0.9609 0.0312
vt 0.6865 0.9811
vt 0.9287 0.9811
vt 0.6104 0.0312
vt 0.0762 0.0312
vt 0.1338 0.9811
vt 0.5527 0.9811
vt 0.0247 0.9307
vt 0.0358 0.9268
vt 0.8177 0.9922
vt 0.8451 0.9941
vt 0.8021 0.5889
vt 0.2910 0.1113
vt 0.1283 0.0137
vt 0.3268 0.0977
vt 0.8789 0.6104
vt 0.0892 0.0225
vt 0.5928 0.4023
vt 0.6201 1.0065
vt 0.3457 1.0013
vt 0.7500 0.4355
vt 0.6025 0.4538
vt 0.5820 0.9896
vt 0.3721 0.4499
vt 0.2090 0.4323
vt 0.3018 0.9857
vt 0.3857 0.4017
vt 0.7441 0.2266
vt 0.6533 0.2220
vt 0.4717 0.2240
vt 0.2363 0.2070
vt 0.4609 0.1953
vt 0.6172 0.1966
vt 0.2129 0.9870
vt 0.4297 0.0462
vt 0.6699 0.9883
vt 0.9521 0.0436
vt 0.6162 0.0456
vt 0.6074 0.9727
vt 0.0264 0.0482
vt 0.1406 0.9720
vt 0.4795 0.3424
vt 0.4248 0.2103
vt 0.4170 0.1335
vt 0.3496 0.1777
vt 0.3232 0.1634
vt 0.2861 0.3210
vt 0.2666 0.2969
vt 0.3203 0.4440
vt 0.3076 0.4616
vt 0.4150 0.4290
vt 0.4141 0.5163
vt 0.2168 0.1458
vt 0.1982 0.0345
vt 0.3721 0.0312
vt 0.6455 0.0312
vt 0.3730 0.0345
vt 0.3701 0.1419
vt 0.6641 0.0814
vt 0.7256 0.0527
vt 0.7803 0.0430
vt 0.6230 0.0898
vt 0.5947 0.0299
vt 0.7617 0.0299
vt 0.9600 0.2624
vt 0.5156 0.9408
vt 0.8623 0.9414
vt 0.1826 0.9401
vt 0.5996 0.1270
vt 0.1348 0.0013
vt -0.0010 0.9408
vt 0.1875 0.9479
vt 0.8574 0.9661
vt 0.1533 0.2617
vt 0.8447 0.1641
vt 0.2070 0.9596
vt 0.4307 0.1224
vt 0.5801 0.9707
vt 0.6670 0.0905
vt 0.0410 0.9551
vt 0.8594 0.9785
vt 0.9238 0.1497
vt 0.1406 -0.0117
vt 0.5801 0.9466
vt 0.9834 0.1790
vt 0.6113 0.1829
vt 0.4375 0.1849
vt 0.9590 0.9421
vt 0.4365 0.9479
vt 0.0908 0.9518
vt 0.0088 0.1895
vt 0.5850 0.4360
vt 1.0439 0.0522
vt 0.5234 0.0366
vt 0.4775 0.4370
vt -0.0010 0.0645
vt 0.4668 0.6724
vt 0.1123 0.4282
vt 0.5762 0.6699
vt 0.9492 0.4185
vt 0.4658 0.4849
vt 0.3887 0.6631
vt 0.1846 0.4897
vt 0.3789 0.9224
vt 0.7207 0.9087
vt 0.6562 0.6616
vt 0.5830 0.4824
vt 0.8877 0.4810
vt 0.4336 0.9175
vt 0.5303 0.9170
vt 0.5146 0.8901
vt 0.6670 0.9160
vt 0.5439 0.9595
vt 0.8174 0.7842
vt 0.5957 0.5474
vt 1.2217 0.0894
vt 0.8799 -0.0298
vt 0.5645 0.1597
vt 0.9443 0.3506
vt 0.5605 0.5005
vt 0.7109 0.9160
vt 0.9609 0.6182
vt 1.1973 0.6006
vt 1.1377 0.6235
vt 0.5166 0.4141
vt 0.5273 0.0347
vt 0.1084 0.2969
vt 0.4766 0.4722
vt 0.0771 0.6074
vt 0.2256 0.7686
vt -0.1816 0.0518
vt 0.3359 0.8965
vt -0.1768 0.6191
vt 0.5127 0.9312
vt -0.1084 0.6313
vt 1.0518 0.0586
vt 0.5771 0.3652
vt 0.5059 -0.0146
vt 0.0137 0.2832
vt 0.9141 0.9531
vt 0.9053 0.2979
vt 0.0752 0.9395
vt 0.5039 0.0020
vt 0.0029 0.0566
vt -0.0176 0.2930
vt 0.7021 0.2490
vt 0.3105 -0.0098
vt 0.2959 0.9492
vt 0.7793 0.9521
vt 0.5029 -0.0820
vt 0.1650 0.0342
vt -0.0361 0.4121
vt 0.1143 0.8311
vt 0.4316 1.0215
vt 0.7695 0.9014
vt 0.9717 0.5195
vt 0.8203 0.1045
vt 0.4717 -0.0293
vt 0.7969 0.1113
vt 0.9727 0.4785
vt 0.7988 0.8486
vt 0.4756 0.9912
vt 0.1504 0.8477
vt -0.0254 0.4766
vt 0.1484 0.1104
vt 0.4834 0.0342
vt 0.6035 0.1016
vt 0.7334 -0.0947
vt 0.5361 -0.1484
vt 0.3213 -0.1055
vt 0.3359 0.0928
vt 0.0000 1.0000
vt 0.9971 0.9277
vt 0.0049 0.9775
vt 1.0000 1.0000
vt -0.9990 1.0732
vt -1.0049 1.0488
vt 0.0010 1.0732
vt 0.2949 0.7314
vt 0.7617 0.7305
vt 0.7471 0.9351
vt 0.2764 0.9336
vt 0.9648 0.0713
vt 0.2100 0.0693
vt 0.5645 0.9624
vt 1.1777 0.6235
vt 1.1738 0.0513
vt 0.5420 0.2314
vt 0.6973 0.0845
vt -0.0098 0.0215
vt -0.1543 0.6201
vt 0.4922 0.8496
vt 0.0605 -0.0039
vt 1.0000 0.0000
vt 0.2021 0.9971
vt 0.2803 0.9883
vt 0.0137 -0.0107
vt 0.4284 0.8525
vt 0.4232 0.3623
vt 0.1133 0.1670
vt 0.8392 0.3340
vt 0.7650 0.1182
vt 0.0189 0.3877
vt 0.1289 0.0088
vt 0.6224 -0.0146
vt 0.5716 0.2285
vt 0.4134 0.4805
vt 0.4935 0.6035
vt 0.8320 0.4619
vt 0.8249 0.2119
vt 0.7370 0.5869
vt 0.9131 0.3105
vt 0.1035 -0.1357
vt -0.0332 0.3379
vt 0.8486 -0.3379
vt 0.1055 0.3916
vt 0.7295 0.7588
vt 0.1816 0.8311
vt 0.7061 0.1807
vt 0.5342 1.0166
vt 0.8105 0.0811
vt 0.1553 0.5566
vt 0.9277 0.8340
vt 0.2754 0.1641
vt 0.9902 0.9619
vt 0.8027 0.1211
vt 0.1230 0.8896
vt 0.9961 0.0898
vt 0.2285 1.3545
vt 0.0967 0.0195
vt 0.7891 1.2197
vt 0.4678 0.9030
vt 0.6455 0.4121
vt 0.4238 0.4102
vt 0.5410 0.9382
vt 0.3965 0.4095
vt 0.7334 0.9395
vt 0.6045 0.4186
vt 0.8477 0.4212
vt 0.7686 0.9017
vt 0.8320 0.4186
vt 0.3721 0.0781
vt 0.6260 0.0885
vt 0.8955 0.0918
vt 0.8555 0.0885
vt 0.6670 0.0820
vt 0.3896 0.0788
vt -0.0020 0.0599
vt 0.7676 0.1022
vt 0.2588 0.8984
vt 0.3203 0.9401
vt -0.0303 0.0579
vt 0.8047 0.9147
vt 0.8848 0.1042
vt 0.6689 0.9479
vt 0.2962 0.2256
vt 0.4753 0.1211
vt 0.5703 0.2002
vt 0.6979 0.6826
vt 0.2865 0.4395
vt 0.3014 0.6172
vt 0.8600 0.7695
vt 0.7370 0.6504
vt 0.2604 0.0996
vt 0.3529 0.7900
vt 0.3405 0.8115
vt 0.5072 0.0840
vt 0.4733 0.0557
vt 0.8991 0.2559
vt 0.9648 0.2803
vt 0.9141 0.2656
vt 0.0931 0.7578
vt 0.0996 0.4170
vt 0.1126 0.0586
vt 0.1126 0.1133
vt 0.1068 0.3662
vt 0.0938 0.7344
vt 0.0781 0.9053
vt 0.0456 0.3174
vt -0.0299 0.3076
vt 0.0775 1.0107
vt 0.9668 0.1748
vt 0.9850 0.8223
vt 0.9850 0.9219
vt 0.9661 0.1504
vt 0.9463 0.6016
vt 0.8242 0.0186
vt 0.0098 0.5752
vt 0.0859 -0.1475
vt 0.2070 1.1338
vt 0.7793 1.0371
vt 0.0908 0.4805
vt 0.7090 0.1797
vt 0.0811 0.5801
vt 0.7451 0.0869
vt 0.4365 1.0537
vt 0.7871 0.8955
vt 0.5410 0.2070
vt 0.9951 0.9717
vt 0.0449 0.2588
vt 0.1260 0.9131
vt 0.0605 0.0518
vt 0.3320 1.2549
vt 0.9814 0.1260
vt 0.8867 1.1436
vt 0.8564 0.4609
vt 0.6113 0.4590
vt 0.7939 0.9245
vt 0.3369 0.4622
vt 0.3818 0.4642
vt 0.4404 0.9199
vt 0.6582 0.4661
vt 0.4795 0.9577
vt 0.7061 0.9577
vt 0.8887 0.4609
vt 0.3936 0.1139
vt 0.6621 0.1302
vt 0.9238 0.1250
vt 0.9033 0.1250
vt 0.6152 0.1230
vt 0.3486 0.1263
vt 0.1318 0.9401
vt 0.6846 0.1146
vt -0.0107 0.0853
vt -0.0371 0.0846
vt 0.1846 0.9798
vt 0.7910 0.1152
vt 0.6270 0.9434
vt 0.5010 0.9798
vt 0.5553 0.1533
vt 0.4564 0.0957
vt 0.2897 0.2559
vt 0.2956 0.4727
vt 0.7161 0.6211
vt 0.7520 0.5781
vt 0.8997 0.7803
vt 0.3249 0.5029
vt 0.2454 0.1357
vt 0.3978 0.8047
vt 0.3835 0.8281
vt 0.5599 0.1113
vt 0.4596 0.0830
vt 0.8737 0.1621
vt 0.9499 0.1846
vt 0.8926 0.1631
vt 0.1120 0.4971
vt 0.1289 0.8076
vt 0.1107 0.1807
vt 0.0996 0.1260
vt 0.1152 0.4424
vt 0.1283 0.7832
vt 0.9863 0.9336
vt 1.0371 0.9512
vt 0.0280 0.9678
vt 0.0241 0.3408
vt 0.9570 0.3838
vt 0.9349 0.2891
vt -0.0078 0.2559
vt 0.0781 0.1152
vt 0.0508 0.8021
vt 0.8369 0.7480
vt 0.8945 0.0573
vt 0.0996 0.8158
vt 0.6738 0.7715
vt 0.0566 0.1641
vt 0.1611 0.7845
vt 0.3838 0.1159
vt 0.7188 0.6230
vt 0.7314 0.1758
vt 0.9404 0.0632
vt 0.0996 0.0221
vt 0.1543 0.0807
vt 0.0947 0.7201
vt 0.9551 0.6986
vt 0.9951 0.0013
vt 0.0947 0.7272
vt 0.9551 0.7051
vt 0.7207 0.2559
vt 0.6641 0.6270
vt 0.7441 0.6296
vt 0.4434 0.2552
vt 0.7617 0.1393
vt 0.8984 0.3763
vt 0.9180 0.1439
vt 0.5479 0.6263
vt 0.2383 0.1497
vt 0.4189 0.1367
vt 0.4238 0.6263
vt 0.9189 0.1081
vt 0.6924 0.0866
vt 0.5498 0.0879
vt 0.2422 0.1087
vt 0.3447 0.6257
vt 0.8740 0.6354
vt 0.2051 0.3737
vt 0.1748 0.6035
vt 0.4912 0.0527
vt 0.7314 0.0534
vt 0.4668 0.1263
vt 0.7295 0.1309
vt 0.6045 0.0345
vt 0.8721 0.0905
vt 0.8711 0.1211
vt 0.4727 0.3132
vt 0.8076 0.3066
vt 0.1865 0.3079
vt 0.1279 0.6133
vt 0.3320 0.6185
vt 0.2256 0.1341
vt 0.3408 0.0352
vt 0.1289 0.0898
vt 0.4863 0.6211
vt 0.6621 0.6165
vt 0.8867 0.3001
vt 0.8867 0.3535
vt 0.1260 0.1172
vt 0.1221 0.3379
vt 0.1260 0.3561
vt 0.8984 0.5820
vt 0.8564 0.7865
vt 0.7275 0.7741
vt 0.6143 0.7715
vt 0.5566 0.7721
vt 0.4541 0.7708
vt 0.3184 0.7708
vt 0.1582 0.7793
vt 0.9004 0.7559
vt 0.1328 0.7637
vt 0.6660 0.7298
vt 0.4834 0.7376
vt 0.3262 0.7357
vt 0.8584 0.8698
vt 0.7256 0.9355
vt 0.6328 0.9147
vt 0.5225 0.9414
vt 0.4160 0.9147
vt 0.3125 0.9310
vt 0.1494 0.8620
vt 0.9014 0.8385
vt 0.6533 0.9062
vt 0.4951 0.9844
vt 0.3311 0.9128
vt 0.1240 0.8464
vt 0.8184 0.9368
vt 0.6436 0.9570
vt 0.6240 0.8229
vt 0.0664 0.9193
vt 0.9619 0.9010
vt 0.9619 0.9036
vt 0.0664 0.9199
vn 0.577 0.577 0.577
vn 0.577 0.577 0.577
vn 0.577 0.577 0.577
vn 0.577 0.577 0.577
vn -0.577 -0.577 -0.577
vn -0.577 -0.577 -0.577
vn -0.577 -0.577 -0.577
vn -0.577 -0.577 -0.577
vn -0.577 -0.577 -0.577
vn -0.577 -0.577 -0.577
vn -0.577 -0.577 -0.577
vn -0.577 -0.577 -0.577
vn -0.577 -0.577 -0.577
vn -0.577 -0.577 -0.577
vn -0.577 -0.577 -0.577
vn -0.577 -0.577 -0.577
vn -0.577 -0.577 -0.577
vn -0.577 -0.577 -0.577
vn -0.577 -0.577 -0.577
vn -0.577 -0.577 -0.577
vn -0.577 -0.577 -0.577
vn -0.577 -0.577 -0.577
vn -0.577 -0.577 -0.577
vn -0.577 -0.577 -0.577
vn -0.577 -0.577 -0.577
vn -0.577 -0.577 -0.577
vn -0.577 -0.577 -0.577
vn -0.577 -0.577 -0.577
vn -0.577 -0.577 -0.577
vn -0.577 -0.577 -0.577
vn -0.577 -0.577 -0.577
vn -0.577 -0.577 -0.577
vn -0.577 -0.577 -0.577
vn -0.577 -0.577 -0.577
vn -0.577 -0.577 -0.577
vn -0.577 -0.577 -0.577
vn 0.577 0.577 0.577
vn 0.577 0.577 0.577
vn -0.577 -0.577 -0.577
vn -0.577 -0.577 -0.577
vn -0.577 -0.577 -0.577
vn -0.577 -0.577 -0.577
vn 0.577 0.577 0.577
vn 0.577 0.577 0.577
vn 0.577 0.577 0.577
vn 0.577 0.577 0.577
vn 0.577 0.577 0.577
vn 0.577 0.577 0.577
vn 0.577 0.577 0.577
vn 0.577 0.577 0.577
vn 0.577 0.577 0.577
vn 0.577 0.577 0.577
vn 0.577 0.577 0.577
vn 0.577 0.577 0.577
vn 0.577 0.577 0.577
vn -0.577 -0.577 -0.577
vn -0.577 -0.577 -0.577
vn -0.577 -0.577 -0.577
vn -0.577 -0.577 -0.577
vn -0.577 -0.577 -0.577
vn -0.577 -0.577 -0.577
vn -0.577 -0.577 -0.577
vn -0.577 -0.577 -0.577
vn -0.577 -0.577 -0.577
vn -0.577 -0.577 -0.577
vn -0.577 -0.577 -0.577
vn -0.577 -0.577 -0.577
vn -0.577 -0.577 -0.577
vn -0.577 -0.577 -0.577
vn -0.577 -0.577 -0.577
vn -0.577 -0.577 -0.577
vn 0.577 0.577 0.577
vn 0.577 0.577 0.577
vn 0.577 0.577 0.577
vn 0.577 0.577 0.577
vn -0.577 -0.577 -0.577
vn 0.577 0.577 0.577
vn -0.577 -0.577 -0.577
vn 0.577 0.577 0.577
vn 0.577 0.577 0.577
vn 0.577 0.577 0.577
vn 0.577 0.577 0.577
vn 0.577 0.577 0.577
vn 0.577 0.577 0.577
vn 0.577 0.577 0.577
vn 0.577 0.577 0.577
vn -0.577 -0.577 -0.577
vn 0.577 0.577 0.577
vn 0.577 0.577 0.577
vn 0.577 0.577 0.577
vn 0.577 0.577 0.577
vn -0.577 -0.577 -0.577
vn -0.577 -0.577 -0.577
vn -0.577 -0.577 -0.577
vn -0.577 -0.577 -0.577
vn -0.577 -0.577 -0.577
vn -0.577 -0.577 -0.577
vn -0.577 -0.577 -0.577
vn -0.577 -0.577 -0.577
vn -0.577 -0.577 -0.577
vn -0.577 -0.577 -0.577
vn -0.577 -0.577 -0.577
vn -0.577 -0.577 -0.577
vn -0.577 -0.577 -0.577
vn -0.577 -0.577 -0.577
vn -0.577 -0.577 -0.577
vn 0.577 0.577 0.577
vn -0.577 -0.577 -0.577
vn 0.577 0.577 0.577
vn 0.577 0.577 0.577
vn 0.577 0.577 0.577
vn -0.577 -0.577 -0.577
vn -0.577 -0.577 -0.577
vn -0.577 -0.577 -0.577
vn -0.577 -0.577 -0.577
vn -0.577 -0.577 -0.577
vn 0.577 0.577 0.577
vn 0.577 0.577 0.577
vn 0.577 0.577 0.577
vn 0.577 0.577 0.577
vn -0.577 -0.577 -0.577
vn -0.577 -0.577 -0.577
vn -0.577 -0.577 -0.577
vn -0.577 -0.577 -0.577
vn -0.577 -0.577 -0.577
vn -0.577 -0.577 -0.577
vn -0.577 -0.577 -0.577
vn -0.577 -0.577 -0.577
vn -0.577 -0.577 -0.577
vn -0.577 -0.577 -0.577
vn -0.577 -0.577 -0.577
vn -0.577 -0.577 -0.577
vn -0.577 -0.577 -0.577
vn -0.577 -0.577 -0.577
vn -0.577 -0.577 -0.577
vn -0.577 -0.577 -0.577
vn -0.577 -0.577 -0.577
vn -0.577 -0.577 -0.577
vn -0.577 -0.577 -0.577
vn -0.577 -0.577 -0.577
vn -0.577 -0.577 -0.577
vn -0.577 -0.577 -0.577
vn -0.577 -0.577 -0.577
vn -0.577 -0.577 -0.577
vn -0.577 -0.577 -0.577
vn -0.577 -0.577 -0.577
vn -0.577 -0.577 -0.577
vn -0.577 -0.577 -0.577
vn -0.577 -0.577 -0.577
vn -0.577 -0.577 -0.577
vn -0.577 -0.577 -0.577
vn 0.577 0.577 0.577
vn 0.577 0.577 0.577
vn -0.577 -0.577 -0.577
vn -0.577 -0.577 -0.577
vn -0.577 -0.577 -0.577
vn -0.577 -0.577 -0.577
vn -0.577 -0.577 -0.577
vn 0.577 0.577 0.577
vn 0.577 0.577 0.577
vn 0.577 0.577 0.577
vn 0.577 0.577 0.577
vn 0.577 0.577 0.577
vn 0.577 0.577 0.577
vn 0.577 0.577 0.577
vn 0.577 0.577 0.577
vn 0.577 0.577 0.577
vn 0.577 0.577 0.577
vn 0.577 0.577 0.577
vn 0.577 0.577 0.577
vn 0.577 0.577 0.577
vn -0.577 -0.577 -0.577
vn -0.577 -0.577 -0.577
vn -0.577 -0.577 -0.577
vn -0.577 -0.577 -0.577
vn -0.577 -0.577 -0.577
vn -0.577 -0.577 -0.577
vn -0.577 -0.577 -0.577
vn -0.577 -0.577 -0.577
vn -0.577 -0.577 -0.577
vn -0.577 -0.577 -0.577
vn -0.577 -0.577 -0.577
vn -0.577 -0.577 -0.577
vn -0.577 -0.577 -0.577
vn -0.577 -0.577 -0.577
vn -0.577 -0.577 -0.577
vn 0.577 0.577 0.577
vn -0.577 -0.577 -0.577
vn 0.577 0.577 0.577
vn 0.577 0.577 0.577
vn 0.577 0.577 0.577
vn -0.577 -0.577 -0.577
vn -0.577 -0.577 -0.577
vn 0.577 0.577 0.577
vn 0.577 0.577 0.577
vn 0.577 0.577 0.577
vn 0.577 0.577 0.577
vn 0.577 0.577 0.577
vn 0.577 0.577 0.577
vn 0.577 0.577 0.577
vn 0.577 0.577 0.577
vn 0.577 0.577 0.577
vn 0.577 0.577 0.577
vn -0.577 -0.577 -0.577
vn -0.577 -0.577 -0.577
vn 0.577 0.577 0.577
vn 0.577 0.577 0.577
vn 0.577 0.577 0.577
vn 0.577 0.577 0.577
vn -0.577 -0.577 -0.577
vn -0.577 -0.577 -0.577
vn -0.577 -0.577 -0.577
vn -0.577 -0.577 -0.577
vn -0.577 -0.577 -0.577
vn -0.577 -0.577 -0.577
vn -0.577 -0.577 -0.577
vn -0.577 -0.577 -0.577
vn -0.577 -0.577 -0.577
vn -0.577 -0.577 -0.577
vn -0.577 -0.577 -0.577
vn -0.577 -0.577 -0.577
vn -0.577 -0.577 -0.577
vn -0.577 -0.577 -0.577
vn -0.577 -0.577 -0.577
vn -0.577 -0.577 -0.577
vn 0.577 0.577 0.577
vn 0.577 0.577 0.577
vn 0.577 0.577 0.577
vn 0.577 0.577 0.577
vn -0.577 -0.577 -0.577
vn -0.577 -0.577 -0.577
vn -0.577 -0.577 -0.577
vn -0.577 -0.577 -0.577
vn -0.577 -0.577 -0.577
vn -0.577 -0.577 -0.577
vn 0.577 0.577 0.577
vn 0.577 0.577 0.577
vn -0.577 -0.577 -0.577
vn 0.577 0.577 0.577
vn -0.577 -0.577 -0.577
vn -0.577 -0.577 -0.577
vn -0.577 -0.577 -0.577
vn -0.577 -0.577 -0.577
vn -0.577 -0.577 -0.577
vn -0.577 -0.577 -0.577
vn -0.577 -0.577 -0.577
vn -0.577 -0.577 -0.577
vn -0.577 -0.577 -0.577
vn -0.577 -0.577 -0.577
vn -0.577 -0.577 -0.577
vn -0.577 -0.577 -0.577
vn -0.577 -0.577 -0.577
vn -0.577 -0.577 -0.577
vn -0.577 -0.577 -0.577
vn -0.577 -0.577 -0.577
vn -0.577 -0.577 -0.577
vn -0.577 -0.577 -0.577
vn -0.577 -0.577 -0.577
vn -0.577 -0.577 -0.577
vn -0.577 -0.577 -0.577
vn -0.577 -0.577 -0.577
vn -0.577 -0.577 -0.577
vn -0.577 -0.577 -0.577
vn -0.577 -0.577 -0.577
vn -0.577 -0.577 -0.577
vn -0.577 -0.577 -0.577
vn -0.577 -0.577 -0.577
vn -0.577 -0.577 -0.577
vn -0.577 -0.577 -0.577
vn -0.577 -0.577 -0.577
vn -0.577 -0.577 -0.577
vn -0.577 -0.577 -0.577
vn -0.577 -0.577 -0.577
vn -0.577 -0.577 -0.577
vn -0.577 -0.577 -0.577
vn -0.577 -0.577 -0.577
vn -0.577 -0.577 -0.577
vn -0.577 -0.577 -0.577
vn -0.577 -0.577 -0.577
vn 0.577 0.577 0.577
vn 0.577 0.577 0.577
vn 0.577 0.577 0.577
vn -0.577 -0.577 -0.577
vn -0.577 -0.577 -0.577
vn -0.577 -0.577 -0.577
vn -0.577 -0.577 -0.577
vn -0.577 -0.577 -0.577
vn -0.577 -0.577 -0.577
vn -0.577 -0.577 -0.577
vn -0.577 -0.577 -0.577
vn -0.577 -0.577 -0.577
vn -0.577 -0.577 -0.577
vn -0.577 -0.577 -0.577
vn -0.577 -0.577 -0.577
vn -0.577 -0.577 -0.577
vn -0.577 -0.577 -0.577
vn 0.577 0.577 0.577
vn -0.577 -0.577 -0.577
vn -0.577 -0.577 -0.577
vn -0.577 -0.577 -0.577
vn -0.577 -0.577 -0.577
vn 0.577 0.577 0.577
vn -0.577 -0.577 -0.577
vn -0.577 -0.577 -0.577
vn -0.577 -0.577 -0.577
vn -0.577 -0.577 -0.577
vn -0.577 -0.577 -0.577
vn 0.577 0.577 0.577
vn 0.577 0.577 0.577
vn 0.577 0.577 0.577
vn 0.577 0.577 0.577
vn -0.577 -0.577 -0.577
vn 0.577 0.577 0.577
vn -0.577 -0.577 -0.577
vn 0.577 0.577 0.577
vn 0.577 0.577 0.577
vn 0.577 0.577 0.577
vn 0.577 0.577 0.577
vn 0.577 0.577 0.577
vn 0.577 0.577 0.577
vn 0.577 0.577 0.577
vn -0.577 -0.577 -0.577
vn -0.577 -0.577 -0.577
vn -0.577 -0.577 -0.577
vn -0.577 -0.577 -0.577
vn -0.577 -0.577 -0.577
vn -0.577 -0.577 -0.577
vn -0.577 -0.577 -0.577
vn -0.577 -0.577 -0.577
vn -0.577 -0.577 -0.577
vn -0.577 -0.577 -0.577
vn -0.577 -0.577 -0.577
vn -0.577 -0.577 -0.577
vn -0.577 -0.577 -0.577
vn -0.577 -0.577 -0.577
vn -0.577 -0.577 -0.577
vn -0.577 -0.577 -0.577
vn -0.577 -0.577 -0.577
vn -0.577 -0.577 -0.577
vn -0.577 -0.577 -0.577
vn -0.577 -0.577 -0.577
vn -0.577 -0.577 -0.577
vn -0.577 -0.577 -0.577
vn -0.577 -0.577 -0.577
vn -0.577 -0.577 -0.577
vn -0.577 -0.577 -0.577
vn -0.577 -0.577 -0.577
vn -0.577 -0.577 -0.577
vn -0.577 -0.577 -0.577
vn -0.577 -0.577 -0.577
vn -0.577 -0.577 -0.577
vn -0.577 -0.577 -0.577
vn -0.577 -0.577 -0.577
vn -0.577 -0.577 -0.577
vn -0.577 -0.577 -0.577
vn -0.577 -0.577 -0.577
vn -0.577 -0.577 -0.577
vn -0.577 -0.577 -0.577
vn -0.577 -0.577 -0.577
vn -0.577 -0.577 -0.577
vn -0.577 -0.577 -0.577
vn -0.577 -0.577 -0.577
vn -0.577 -0.577 -0.577
vn 0.577 0.577 0.577
vn -0.577 -0.577 -0.577
vn -0.577 -0.577 -0.577
vn 0.577 0.577 0.577
vn -0.577 -0.577 -0.577
vn -0.577 -0.577 -0.577
vn -0.577 -0.577 -0.577
vn -0.577 -0.577 -0.577
vn 0.577 0.577 0.577
vn 0.577 0.577 0.577
vn -0.577 -0.577 -0.577
vn -0.577 -0.577 -0.577
vn 0.577 0.577 0.577
vn 0.577 0.577 0.577
vn -0.577 -0.577 -0.577
vn -0.577 -0.577 -0.577
vn -0.577 -0.577 -0.577
vn -0.577 -0.577 -0.577
vn -0.577 -0.577 -0.577
vn -0.577 -0.577 -0.577
vn -0.577 -0.577 -0.577
vn -0.577 -0.577 -0.577
vn -0.577 -0.577 -0.577
vn -0.577 -0.577 -0.577
vn -0.577 -0.577 -0.577
vn -0.577 -0.577 -0.577
vn -0.577 -0.577 -0.577
vn -0.577 -0.577 -0.577
vn -0.577 -0.577 -0.577
vn -0.577 -0.577 -0.577
vn -0.577 -0.577 -0.577
vn -0.577 -0.577 -0.577
vn -0.577 -0.577 -0.577
vn -0.577 -0.577 -0.577
vn -0.577 -0.577 -0.577
vn -0.577 -0.577 -0.577
vn -0.577 -0.577 -0.577
vn -0.577 -0.577 -0.577
vn -0.577 -0.577 -0.577
vn -0.577 -0.577 -0.577
vn -0.577 -0.577 -0.577
vn -0.577 -0.577 -0.577
vn -0.577 -0.577 -0.577
vn -0.577 -0.577 -0.577
vn -0.577 -0.577 -0.577
vn -0.577 -0.577 -0.577
vn -0.577 -0.577 -0.577
vn -0.577 -0.577 -0.577
vn -0.577 -0.577 -0.577
vn -0.577 -0.577 -0.577
vn -0.577 -0.577 -0.577
vn -0.577 -0.577 -0.577
vn -0.577 -0.577 -0.577
vn -0.577 -0.577 -0.577
vn -0.577 -0.577 -0.577
vn -0.577 -0.577 -0.577
vn -0.577 -0.577 -0.577
vn -0.577 -0.577 -0.577
vn -0.577 -0.577 -0.577
vn -0.577 -0.577 -0.577
vn -0.577 -0.577 -0.577
vn -0.577 -0.577 -0.577
vn -0.577 -0.577 -0.577
vn -0.577 -0.577 -0.577
vn -0.577 -0.577 -0.577
vn -0.577 -0.577 -0.577
vn -0.577 -0.577 -0.577
vn -0.577 -0.577 -0.577
vn -0.577 -0.577 -0.577
vn -0.577 -0.577 -0.577
vn -0.577 -0.577 -0.577
vn -0.577 -0.577 -0.577
vn -0.577 -0.577 -0.577
vn -0.577 -0.577 -0.577
vn -0.577 -0.577 -0.577
vn -0.577 -0.577 -0.577
vn -0.577 -0.577 -0.577
vn -0.577 -0.577 -0.577
vn -0.577 -0.577 -0.577
vn -0.577 -0.577 -0.577
vn -0.577 -0.577 -0.577
vn -0.577 -0.577 -0.577
vn -0.577 -0.577 -0.577
vn -0.577 -0.577 -0.577
vn -0.577 -0.577 -0.577
vn -0.577 -0.577 -0.577
vn -0.577 -0.577 -0.577
vn -0.577 -0.577 -0.577
vn -0.577 -0.577 -0.577
vn -0.577 -0.577 -0.577
vn -0.577 -0.577 -0.577
vn -0.577 -0.577 -0.577
vn -0.577 -0.577 -0.577
vn -0.577 -0.577 -0.577
vn -0.577 -0.577 -0.577
vn -0.577 -0.577 -0.577
vn -0.577 -0.577 -0.577
vn -0.577 -0.577 -0.577
vn -0.577 -0.577 -0.577
vn -0.577 -0.577 -0.577
vn -0.577 -0.577 -0.577
vn -0.577 -0.577 -0.577
vn 0.577 0.577 0.577
vn 0.577 0.577 0.577
vn -0.577 -0.577 -0.577
vn 0.577 0.577 0.577
vn -0.577 -0.577 -0.577
vn 0.577 0.577 0.577
vn -0.577 -0.577 -0.577
vn 0.577 0.577 0.577
vn 0.577 0.577 0.577
vn -0.577 -0.577 -0.577
vn -0.577 -0.577 -0.577
vn -0.577 -0.577 -0.577
vn -0.577 -0.577 -0.577
vn -0.577 -0.577 -0.577
vn -0.577 -0.577 -0.577
vn -0.577 -0.577 -0.577
vn -0.577 -0.577 -0.577
vn 0.577 0.577 0.577
vn 0.577 0.577 0.577
vn -0.577 -0.577 -0.577
vn -0.577 -0.577 -0.577
vn -0.577 -0.577 -0.577
vn 0.577 0.577 0.577
vn 0.577 0.577 0.577
vn -0.577 -0.577 -0.577
vn -0.577 -0.577 -0.577
vn -0.577 -0.577 -0.577
vn -0.577 -0.577 -0.577
vn -0.577 -0.577 -0.577
vn -0.577 -0.577 -0.577
vn -0.577 -0.577 -0.577
vn -0.577 -0.577 -0.577
vn -0.577 -0.577 -0.577
vn -0.577 -0.577 -0.577
vn -0.577 -0.577 -0.577
vn -0.577 -0.577 -0.577
vn -0.577 -0.577 -0.577
vn -0.577 -0.577 -0.577
vn -0.577 -0.577 -0.577
vn -0.577 -0.577 -0.577
vn -0.577 -0.577 -0.577
vn -0.577 -0.577 -0.577
vn -0.577 -0.577 -0.577
vn -0.577 -0.577 -0.577
vn -0.577 -0.577 -0.577
vn -0.577 -0.577 -0.577
vn -0.577 -0.577 -0.577
vn -0.577 -0.577 -0.577
vn -0.577 -0.577 -0.577
vn -0.577 -0.577 -0.577
vn -0.577 -0.577 -0.577
vn -0.577 -0.577 -0.577
vn -0.577 -0.577 -0.577
vn -0.577 -0.577 -0.577
vn -0.577 -0.577 -0.577
vn -0.577 -0.577 -0.577
vn -0.577 -0.577 -0.577
vn -0.577 -0.577 -0.577
vn -0.577 -0.577 -0.577
vn -0.577 -0.577 -0.577
vn -0.577 -0.577 -0.577
vn -0.577 -0.577 -0.577
vn -0.577 -0.577 -0.577
vn -0.577 -0.577 -0.577
vn -0.577 -0.577 -0.577
vn -0.577 -0.577 -0.577
vn -0.577 -0.577 -0.577
vn -0.577 -0.577 -0.577
vn -0.577 -0.577 -0.577
vn -0.577 -0.577 -0.577
vn -0.577 -0.577 -0.577
vn -0.577 -0.577 -0.577
vn -0.577 -0.577 -0.577
vn -0.577 -0.577 -0.577
vn -0.577 -0.577 -0.577
vn -0.577 -0.577 -0.577
vn -0.577 -0.577 -0.577
vn -0.577 -0.577 -0.577
vn -0.577 -0.577 -0.577
vn -0.577 -0.577 -0.577
vn -0.577 -0.577 -0.577
vn -0.577 -0.577 -0.577
vn -0.577 -0.577 -0.577
vn -0.577 -0.577 -0.577
vn -0.577 -0.577 -0.577
vn -0.577 -0.577 -0.577
vn -0.577 -0.577 -0.577
vn -0.577 -0.577 -0.577
vn -0.577 -0.577 -0.577
vn -0.577 -0.577 -0.577
vn -0.577 -0.577 -0.577
vn 0.577 0.577 0.577
vn -0.577 -0.577 -0.577
vn -0.577 -0.577 -0.577
vn -0.577 -0.577 -0.577
vn 0.577 0.577 0.577
vn -0.577 -0.577 -0.577
vn 0.577 0.577 0.577
vn 0.577 0.577 0.577
vn 0.577 0.577 0.577
vn 0.577 0.577 0.577
vn -0.577 -0.577 -0.577
vn -0.577 -0.577 -0.577
vn -0.577 -0.577 -0.577
vn -0.577 -0.577 -0.577
vn -0.577 -0.577 -0.577
vn -0.577 -0.577 -0.577
vn -0.577 -0.577 -0.577
vn -0.577 -0.577 -0.577
vn -0.577 -0.577 -0.577
vn 0.577 0.577 0.577
vn 0.577 0.577 0.577
vn -0.577 -0.577 -0.577
vn -0.577 -0.577 -0.577
vn -0.577 -0.577 -0.577
vn 0.577 0.577 0.577
vn 0.577 0.577 0.577
vn -0.577 -0.577 -0.577
vn -0.577 -0.577 -0.577
vn -0.577 -0.577 -0.577
vn -0.577 -0.577 -0.577
vn -0.577 -0.577 -0.577
vn -0.577 -0.577 -0.577
vn -0.577 -0.577 -0.577
vn -0.577 -0.577 -0.577
vn -0.577 -0.577 -0.577
vn -0.577 -0.577 -0.577
vn -0.577 -0.577 -0.577
vn -0.577 -0.577 -0.577
vn -0.577 -0.577 -0.577
vn -0.577 -0.577 -0.577
vn -0.577 -0.577 -0.577
vn -0.577 -0.577 -0.577
vn -0.577 -0.577 -0.577
vn -0.577 -0.577 -0.577
vn -0.577 -0.577 -0.577
vn -0.577 -0.577 -0.577
vn -0.577 -0.577 -0.577
vn -0.577 -0.577 -0.577
vn -0.577 -0.577 -0.577
vn -0.577 -0.577 -0.577
vn -0.577 -0.577 -0.577
vn -0.577 -0.577 -0.577
vn -0.577 -0.577 -0.577
vn -0.577 -0.577 -0.577
vn -0.577 -0.577 -0.577
vn -0.577 -0.577 -0.577
vn -0.577 -0.577 -0.577
vn -0.577 -0.577 -0.577
vn -0.577 -0.577 -0.577
vn -0.577 -0.577 -0.577
vn -0.577 -0.577 -0.577
vn -0.577 -0.577 -0.577
vn -0.577 -0.577 -0.577
vn -0.577 -0.577 -0.577
vn -0.577 -0.577 -0.577
vn -0.577 -0.577 -0.577
vn -0.577 -0.577 -0.577
vn -0.577 -0.577 -0.577
vn -0.577 -0.577 -0.577
vn -0.577 -0.577 -0.577
vn -0.577 -0.577 -0.577
vn -0.577 -0.577 -0.577
vn -0.577 -0.577 -0.577
vn -0.577 -0.577 -0.577
vn -0.577 -0.577 -0.577
vn -0.577 -0.577 -0.577
vn -0.577 -0.577 -0.577
vn -0.577 -0.577 -0.577
vn -0.577 -0.577 -0.577
vn -0.577 -0.577 -0.577
vn -0.577 -0.577 -0.577
vn -0.577 -0.577 -0.577
vn -0.577 -0.577 -0.577
vn 0.577 0.577 0.577
vn -0.577 -0.577 -0.577
vn 0.577 0.577 0.577
vn -0.577 -0.577 -0.577
vn -0.577 -0.577 -0.577
vn -0.577 -0.577 -0.577
vn -0.577 -0.577 -0.577
vn -0.577 -0.577 -0.577
vn -0.577 -0.577 -0.577
vn -0.577 -0.577 -0.577
vn -0.577 -0.577 -0.577
vn -0.577 -0.577 -0.577
vn 0.577 0.577 0.577
vn 0.577 0.577 0.577
vn -0.577 -0.577 -0.577
vn -0.577 -0.577 -0.577
vn 0.577 0.577 0.577
vn -0.577 -0.577 -0.577
vn 0.577 0.577 0.577
vn -0.577 -0.577 -0.577
vn -0.577 -0.577 -0.577
vn -0.577 -0.577 -0.577
vn -0.577 -0.577 -0.577
vn -0.577 -0.577 -0.577
vn 0.577 0.577 0.577
vn -0.577 -0.577 -0.577
vn -0.577 -0.577 -0.577
vn -0.577 -0.577 -0.577
vn -0.577 -0.577 -0.577
vn -0.577 -0.577 -0.577
vn -0.577 -0.577 -0.577
vn -0.577 -0.577 -0.577
vn -0.577 -0.577 -0.577
vn -0.577 -0.577 -0.577
vn -0.577 -0.577 -0.577
vn -0.577 -0.577 -0.577
vn 0.577 0.577 0.577
vn 0.577 0.577 0.577
vn 0.577 0.577 0.577
vn -0.577 -0.577 -0.577
vn -0.577 -0.577 -0.577
vn -0.577 -0.577 -0.577
vn -0.577 -0.577 -0.577
vn -0.577 -0.577 -0.577
vn -0.577 -0.577 -0.577
vn -0.577 -0.577 -0.577
vn -0.577 -0.577 -0.577
vn -0.577 -0.577 -0.577
vn -0.577 -0.577 -0.577
vn -0.577 -0.577 -0.577
vn 0.577 0.577 0.577
vn -0.577 -0.577 -0.577
vn 0.577 0.577 0.577
vn 0.577 0.577 0.577
vn 0.577 0.577 0.577
vn -0.577 -0.577 -0.577
vn 0.577 0.577 0.577
vn 0.577 0.577 0.577
vn 0.577 0.577 0.577
vn 0.577 0.577 0.577
vn -0.577 -0.577 -0.577
vn 0.577 0.577 0.577
vn -0.577 -0.577 -0.577
vn -0.577 -0.577 -0.577
vn -0.577 -0.577 -0.577
vn -0.577 -0.577 -0.577
vn 0.577 0.577 0.577
vn 0.577 0.577 0.577
vn -0.577 -0.577 -0.577
vn -0.577 -0.577 -0.577
vn -0.577 -0.577 -0.577
vn -0.577 -0.577 -0.577
vn 0.577 0.577 0.577
vn -0.577 -0.577 -0.577
vn 0.577 0.577 0.577
vn 0.577 0.577 0.577
vn 0.577 0.577 0.577
vn -0.577 -0.577 -0.577
vn 0.577 0.577 0.577
vn 0.577 0.577 0.577
vn -0.577 -0.577 -0.577
vn -0.577 -0.577 -0.577
vn 0.577 0.577 0.577
vn -0.577 -0.577 -0.577
vn -0.577 -0.577 -0.577
vn 0.577 0.577 0.577
vn 0.577 0.577 0.577
vn 0.577 0.577 0.577
vn -0.577 -0.577 -0.577
vn -0.577 -0.577 -0.577
vn -0.577 -0.577 -0.577
vn 0.577 0.577 0.577
vn -0.577 -0.577 -0.577
vn -0.577 -0.577 -0.577
vn 0.577 0.577 0.577
vn -0.577 -0.577 -0.577
vn 0.577 0.577 0.577
vn 0.577 0.577 0.577
vn -0.577 -0.577 -0.577
vn -0.577 -0.577 -0.577
vn -0.577 -0.577 -0.577
vn 0.577 0.577 0.577
vn 0.577 0.577 0.577
vn 0.577 0.577 0.577
vn -0.577 -0.577 -0.577
vn 0.577 0.577 0.577
vn -0.577 -0.577 -0.577
vn -0.577 -0.577 -0.577
vn 0.577 0.577 0.577
vn 0.577 0.577 0.577
vn 0.577 0.577 0.577
vn 0.577 0.577 0.577
vn -0.577 -0.577 -0.577
vn -0.577 -0.577 -0.577
vn 0.577 0.577 0.577
vn -0.577 -0.577 -0.577
vn -0.577 -0.577 -0.577
vn -0.577 -0.577 -0.577
vn 0.577 0.577 0.577
vn 0.577 0.577 0.577
vn 0.577 0.577 0.577
vn -0.577 -0.577 -0.577
vn -0.577 -0.577 -0.577
vn 0.577 0.577 0.577
vn 0.577 0.577 0.577
vn -0.577 -0.577 -0.577
vn 0.577 0.577 0.577
vn -0.577 -0.577 -0.577
vn -0.577 -0.577 -0.577
vn 0.577 0.577 0.577
vn -0.577 -0.577 -0.577
vn -0.577 -0.577 -0.577
vn 0.577 0.577 0.577
vn 0.577 0.577 0.577
vn -0.577 -0.577 -0.577
vn -0.577 -0.577 -0.577
vn -0.577 -0.577 -0.577
vn -0.577 -0.577 -0.577
vn -0.577 -0.577 -0.577
vn 0.577 0.577 0.577
vn 0.577 0.577 0.577
vn 0.577 0.577 0.577
vn 0.577 0.577 0.577
usemtl tex_2081_lit_w11
f 1/1/1 2/2/2 3/3/3
f 4/4/4 2/2/2 1/1/1
f 5/5/5 6/6/6 7/7/7
f 5/5/5 7/7/7 1/1/1
f 4/4/4 8/8/8 9/9/9
f 4/4/4 9/9/9 10/10/10
f 8/8/8 1/1/1 7/7/7
f 4/4/4 1/1/1 8/8/8
f 10/10/10 5/5/5 3/3/3
f 10/10/10 3/3/3 2/2/2
f 2/2/2 4/4/4 10/10/10
f 8/8/8 7/7/7 6/6/6
f 3/3/3 5/5/5 1/1/1
f 9/9/9 8/8/8 6/6/6
usemtl tex_1659_lit_w01
f 17/11/17 18/12/18 11/13/11
f 19/14/19 12/15/12 13/16/13
f 19/14/19 20/17/20 14/18/14
f 20/17/20 15/19/15 14/18/14
f 17/11/17 16/20/16 15/19/15
f 18/12/18 19/14/19 13/16/13
f 18/12/18 13/16/13 11/13/11
f 20/17/20 17/11/17 15/19/15
f 19/14/19 14/18/14 12/15/12
f 17/11/17 11/13/11 16/20/16
f 21/21/21 22/22/22 27/13/27
f 21/21/21 27/13/27 28/16/28
f 21/21/21 28/16/28 29/15/29
f 27/13/27 22/22/22 30/20/30
f 23/23/23 24/24/24 29/15/29
f 31/18/31 23/23/23 29/15/29
f 25/25/25 23/23/23 31/18/31
f 32/19/32 25/25/25 31/18/31
f 26/26/26 25/25/25 32/19/32
f 30/20/30 26/26/26 32/19/32
f 22/22/22 26/26/26 30/20/30
f 24/24/24 21/21/21 29/15/29
f 33/27/33 34/28/34 35/29/35
f 36/30/36 37/31/37 38/32/38
f 34/28/34 39/33/39 35/29/35
f 38/32/38 34/28/34 33/27/33
f 40/34/40 37/31/37 36/30/36
f 39/33/39 37/31/37 40/34/40
f 35/29/35 39/33/39 40/34/40
f 36/30/36 38/32/38 33/27/33
f 33/27/33 35/29/35 40/34/40
f 33/27/33 40/34/40 36/30/36
f 41/33/41 42/28/42 38/32/38
f 41/33/41 38/32/38 37/31/37
usemtl tex_1664_lit_w11
f 43/35/43 44/36/44 45/37/45
f 45/37/45 44/36/44 46/38/46
f 45/37/45 46/38/46 47/39/47
f 47/39/47 46/38/46 48/40/48
f 47/39/47 48/40/48 49/41/49
f 49/41/49 48/40/48 50/42/50
f 49/41/49 50/42/50 51/43/51
f 51/43/51 50/42/50 52/44/52
f 51/43/51 52/44/52 53/45/53
f 53/45/53 52/44/52 54/46/54
f 53/45/53 54/46/54 55/47/55
f 53/45/53 55/47/55 43/35/43
f 43/35/43 55/47/55 44/36/44
usemtl tex_1659_lit_w01
f 56/48/56 57/49/57 58/50/58
f 59/51/59 60/52/60 61/53/61
f 62/54/62 63/55/63 61/53/61
f 64/49/64 60/52/60 59/51/59
f 65/56/65 66/57/66 67/58/67
f 62/54/62 61/53/61 68/59/68
f 68/59/68 65/56/65 67/58/67
f 68/59/68 67/58/67 62/54/62
f 63/55/63 59/51/59 61/53/61
f 69/48/69 66/57/66 65/56/65
f 64/49/64 59/51/59 70/50/70
f 66/57/66 69/48/69 70/50/70
usemtl tex_1664_lit_w11
f 71/60/71 79/61/79 80/62/80
f 72/63/72 71/60/71 80/62/80
f 79/61/79 73/64/73 81/65/81
f 71/60/71 73/64/73 79/61/79
f 72/63/72 80/62/80 82/66/82
usemtl tex_1663_lit_w11
f 74/67/74 83/68/83 84/69/84
f 75/70/75 83/68/83 74/67/74
f 76/71/76 85/72/85 77/73/77
f 76/71/76 86/74/86 85/72/85
f 76/71/76 78/75/78 86/74/86
f 87/75/87 89/76/89 90/74/90
f 89/76/89 87/75/87 88/77/88
f 89/76/89 88/77/88 91/78/91
usemtl tex_1659_lit_w01
f 98/24/98 92/54/92 99/21/99
f 93/55/93 92/54/92 98/24/98
f 100/23/100 93/55/93 98/24/98
f 94/51/94 93/55/93 100/23/100
f 101/25/101 94/51/94 100/23/100
f 95/50/95 94/51/94 101/25/101
f 102/26/102 95/50/95 101/25/101
f 96/57/96 95/50/95 102/26/102
f 103/22/103 96/57/96 102/26/102
f 97/58/97 96/57/96 103/22/103
f 99/21/99 97/58/97 103/22/103
f 92/54/92 97/58/97 99/21/99
usemtl tex_1664_lit_w11
f 104/79/104 105/80/105 106/81/106
f 107/82/107 105/80/105 108/83/108
f 109/84/109 110/85/110 111/86/111
f 111/86/111 107/82/107 108/83/108
f 104/79/104 106/81/106 110/85/110
f 105/80/105 107/82/107 106/81/106
f 109/84/109 104/79/104 110/85/110
f 109/84/109 111/86/111 108/83/108
f 112/83/112 113/80/113 114/79/114
f 112/83/112 114/79/114 115/84/115
usemtl tex_1664_lit_w11_ovl
f 107/82/107 111/86/111 110/85/110
f 107/82/107 110/85/110 116/81/116
usemtl tex_2081_lit_w11
f 117/87/117 118/88/118 119/89/119
f 119/89/119 118/88/118 120/90/120
f 119/89/119 121/91/121 122/92/122
f 123/93/123 124/94/124 125/95/125
f 123/93/123 125/95/125 120/90/120
f 121/91/121 119/89/119 125/95/125
f 125/95/125 119/89/119 120/90/120
f 117/87/117 126/96/126 123/93/123
f 118/88/118 117/87/117 123/93/123
f 123/93/123 120/90/120 118/88/118
f 122/92/122 121/91/121 125/95/125
f 119/89/119 126/96/126 117/87/117
f 122/92/122 125/95/125 124/94/124
f 119/89/119 122/92/122 126/96/126
usemtl tex_1659_lit_w01
f 127/97/127 133/98/133 134/99/134
f 128/100/128 129/101/129 135/102/135
f 128/100/128 135/102/135 133/98/133
f 130/103/130 131/104/131 136/105/136
f 131/104/131 132/106/132 134/99/134
f 130/103/130 136/105/136 135/102/135
f 127/97/127 128/100/128 133/98/133
f 131/104/131 134/99/134 136/105/136
f 129/101/129 130/103/130 135/102/135
f 132/106/132 127/97/127 134/99/134
f 143/97/143 137/107/137 144/100/144
f 144/100/144 137/107/137 138/108/138
f 144/100/144 138/108/138 145/101/145
f 145/101/145 138/108/138 139/109/139
f 145/101/145 139/109/139 146/103/146
f 146/103/146 139/109/139 140/110/140
f 146/103/146 140/110/140 147/104/147
f 147/104/147 140/110/140 141/111/141
f 147/104/147 141/111/141 148/106/148
f 148/106/148 141/111/141 142/112/142
f 148/106/148 142/112/142 143/97/143
f 143/97/143 142/112/142 137/107/137
f 149/113/149 150/114/150 151/115/151
f 152/116/152 153/117/153 154/118/154
f 149/113/149 155/119/155 150/114/150
f 151/115/151 150/114/150 152/116/152
f 154/118/154 153/117/153 156/120/156
f 156/120/156 153/117/153 155/119/155
f 156/120/156 155/119/155 149/113/149
f 151/115/151 152/116/152 154/118/154
f 154/118/154 156/120/156 149/113/149
f 154/118/154 149/113/149 151/115/151
f 153/117/153 152/116/152 157/114/157
f 153/117/153 157/114/157 158/119/158
usemtl tex_1664_lit_w11
f 159/47/159 160/121/160 161/36/161
f 162/122/162 160/121/160 159/47/159
f 163/123/163 162/122/162 159/47/159
f 164/124/164 162/122/162 163/123/163
f 165/125/165 164/124/164 163/123/163
f 166/126/166 164/124/164 165/125/165
f 167/127/167 166/126/166 165/125/165
f 168/128/168 166/126/166 167/127/167
f 169/129/169 168/128/168 167/127/167
f 170/130/170 168/128/168 169/129/169
f 171/131/171 170/130/170 169/129/169
f 160/121/160 170/130/170 171/131/171
f 161/36/161 160/121/160 171/131/171
usemtl tex_1659_lit_w01
f 172/132/172 173/133/173 174/134/174
f 175/135/175 176/136/176 177/137/177
f 175/135/175 178/138/178 179/139/179
f 177/137/177 176/136/176 180/133/180
f 181/140/181 182/141/182 183/142/183
f 184/143/184 175/135/175 179/139/179
f 181/140/181 183/142/183 184/143/184
f 179/139/179 181/140/181 184/143/184
f 175/135/175 177/137/177 178/138/178
f 183/142/183 182/141/182 185/134/185
f 186/132/186 177/137/177 180/133/180
f 186/132/186 185/134/185 182/141/182
usemtl tex_1664_lit_w11
f 187/144/187 194/145/194 195/146/195
f 196/147/196 194/145/194 188/148/188
f 196/147/196 188/148/188 189/149/189
f 196/147/196 189/149/189 197/150/197
f 187/144/187 188/148/188 194/145/194
usemtl tex_1663_lit_w11
f 198/151/198 199/152/199 190/153/190
f 190/153/190 199/152/199 191/154/191
f 200/155/200 192/156/192 201/157/201
f 192/156/192 193/158/193 201/157/201
f 192/156/192 200/155/200 202/159/202
f 207/160/207 208/157/208 203/161/203
f 208/157/208 204/158/204 203/161/203
f 205/156/205 209/159/209 206/162/206
usemtl tex_1659_lit_w01
f 216/107/216 210/139/210 217/108/217
f 217/108/217 210/139/210 211/138/211
f 217/108/217 211/138/211 218/109/218
f 218/109/218 211/138/211 212/137/212
f 218/109/218 212/137/212 219/110/219
f 219/110/219 212/137/212 213/132/213
f 219/110/219 213/132/213 220/111/220
f 220/111/220 213/132/213 214/141/214
f 220/111/220 214/141/214 221/112/221
f 221/112/221 214/141/214 215/140/215
f 221/112/221 215/140/215 216/107/216
f 216/107/216 215/140/215 210/139/210
usemtl tex_1664_lit_w11
f 222/163/222 223/164/223 224/165/224
f 225/166/225 223/164/223 226/167/226
f 227/168/227 228/169/228 229/170/229
f 225/166/225 226/167/226 227/168/227
f 228/169/228 222/163/222 224/165/224
f 222/163/222 226/167/226 223/164/223
f 228/169/228 224/165/224 229/170/229
f 225/166/225 227/168/227 229/170/229
f 230/170/230 231/165/231 232/164/232
f 230/170/230 232/164/232 233/166/233
f 234/163/234 228/169/228 227/168/227
f 234/163/234 227/168/227 226/167/226
usemtl tex_1653_lit
f 235/171/235 236/172/236 237/173/237
f 238/174/238 237/173/237 239/175/239
f 238/174/238 235/171/235 237/173/237
f 240/176/240 235/171/235 238/174/238
f 238/174/238 239/175/239 241/177/241
f 240/176/240 242/178/242 235/171/235
f 236/172/236 235/171/235 243/179/243
f 244/180/244 240/176/240 238/174/238
f 245/181/245 246/182/246 247/183/247
f 248/184/248 249/185/249 245/181/245
f 250/171/250 251/186/251 252/187/252
f 250/171/250 252/187/252 253/179/253
f 254/188/254 255/189/255 256/190/256
f 255/189/255 257/191/257 256/190/256
f 257/191/257 258/184/258 256/190/256
f 259/183/259 254/188/254 256/190/256
f 250/171/250 260/178/260 251/186/251
f 261/181/261 262/180/262 263/182/263
f 262/180/262 261/181/261 264/176/264
f 262/180/262 265/174/265 263/182/263
f 266/185/266 267/187/267 268/186/268
f 266/185/266 269/176/269 270/181/270
f 268/186/268 271/178/271 266/185/266
f 272/182/272 273/174/273 274/177/274
f 266/185/266 271/178/271 269/176/269
f 275/184/275 270/181/270 276/183/276
f 275/184/275 267/187/267 266/185/266
usemtl tex_1665_lit
f 277/192/277 278/193/278 279/194/279
f 280/195/280 281/196/281 282/197/282
f 283/198/283 282/197/282 284/199/284
f 285/200/285 286/200/286 287/193/287
f 288/184/288 289/183/289 290/190/290
f 291/201/291 292/202/292 280/195/280
f 291/201/291 280/195/280 283/198/283
f 293/194/293 291/201/291 283/198/283
f 287/193/287 291/201/291 293/194/293
f 280/195/280 282/197/282 283/198/283
f 294/192/294 285/200/285 287/193/287
f 293/194/293 283/198/283 284/199/284
f 295/203/295 292/202/292 291/201/291
f 287/193/287 295/203/295 291/201/291
usemtl tex_1661_lit
f 296/204/296 297/205/297 298/206/298
f 299/207/299 300/208/300 301/209/301
f 302/210/302 298/206/298 297/205/297
f 303/211/303 301/209/301 304/211/304
f 302/210/302 305/212/305 300/208/300
f 298/206/298 302/210/302 300/208/300
f 299/207/299 298/206/298 300/208/300
f 303/211/303 306/213/306 301/209/301
f 299/207/299 301/209/301 306/213/306
f 299/207/299 296/204/296 298/206/298
f 307/214/307 301/209/301 300/208/300
f 307/214/307 300/208/300 305/212/305
usemtl tex_1655_lit
f 308/215/308 309/216/309 310/217/310
f 311/218/311 312/219/312 313/220/313
f 311/218/311 314/221/314 312/219/312
f 313/220/313 315/222/315 311/218/311
f 316/223/316 317/217/317 318/216/318
f 319/224/319 320/225/320 321/226/321
f 322/227/322 323/228/323 312/219/312
f 322/227/322 312/219/312 314/221/314
usemtl tex_2690_lit_sec_ds
f 324/229/324 325/230/325 326/231/326
f 327/229/327 328/231/328 329/232/329
f 327/229/327 329/232/329 330/233/330
f 327/229/327 330/233/330 331/234/331
f 327/229/327 331/234/331 332/235/332
f 327/229/327 332/235/332 333/236/333
f 334/237/334 335/238/335 336/239/336
f 334/237/334 336/239/336 337/240/337
f 334/237/334 337/240/337 338/241/338
f 334/237/334 338/241/338 339/242/339
f 334/237/334 339/242/339 340/243/340
f 334/237/334 340/243/340 341/244/341
f 342/245/342 343/246/343 344/247/344
f 342/245/342 344/247/344 345/248/345
f 342/245/342 345/248/345 346/249/346
f 342/245/342 346/249/346 347/250/347
f 348/251/348 349/252/349 350/253/350
f 348/251/348 351/254/351 349/252/349
f 352/255/352 353/251/353 354/256/354
f 352/255/352 355/257/355 353/251/353
usemtl tex_1653_lit
f 356/258/356 357/259/357 358/260/358
f 356/258/356 358/260/358 359/261/359
f 359/261/359 358/260/358 360/262/360
f 359/261/359 360/262/360 361/263/361
usemtl tex_1665_lit
f 362/264/362 363/265/363 364/266/364
f 362/264/362 364/266/364 365/267/365
usemtl tex_1661_lit
f 366/268/366 367/269/367 368/270/368
f 366/268/366 368/270/368 369/271/369
usemtl tex_1655_lit
f 370/272/370 371/273/371 372/254/372
f 370/272/370 372/254/372 373/274/373
f 374/275/374 375/254/375 376/273/376
f 374/275/374 376/273/376 377/276/377
usemtl tex_2690_lit_sec_ds
f 378/229/378 379/230/379 380/231/380
f 378/229/378 380/231/380 381/232/381
f 378/229/378 381/232/381 382/233/382
f 378/229/378 382/233/382 383/234/383
f 378/229/378 383/234/383 384/235/384
f 378/229/378 384/235/384 385/236/385
f 386/237/386 387/238/387 388/239/388
f 386/237/386 388/239/388 389/240/389
f 386/237/386 389/240/389 390/241/390
f 386/237/386 390/241/390 391/242/391
f 386/237/386 391/242/391 392/243/392
f 386/237/386 392/243/392 393/244/393
f 394/245/394 395/246/395 396/247/396
f 394/245/394 396/247/396 397/248/397
f 394/245/394 397/248/397 398/249/398
f 394/245/394 398/249/398 399/250/399
f 400/251/400 401/252/401 402/253/402
f 400/251/400 403/254/403 401/252/401
f 404/255/404 405/251/405 406/256/406
f 404/255/404 407/257/407 405/251/405
usemtl tex_1657_lit_w10
f 408/277/408 415/278/415 416/279/416
f 409/280/409 417/281/417 408/277/408
f 417/281/417 415/278/415 408/277/408
f 410/282/410 408/277/408 416/279/416
f 410/282/410 416/279/416 418/283/418
f 409/280/409 419/284/419 417/281/417
usemtl tex_1658_lit_w11
f 420/285/420 411/286/411 412/287/412
f 413/288/413 421/289/421 414/290/414
f 421/289/421 412/287/412 414/290/414
f 421/289/421 420/285/420 412/287/412
usemtl tex_1609_lit
f 422/291/422 423/292/423 424/293/424
f 425/294/425 423/292/423 422/291/422
usemtl tex_1613_lit_w11
f 426/295/426 427/296/427 428/297/428
f 429/298/429 427/296/427 426/295/426
usemtl tex_1616_lit_w11
f 430/299/430 431/300/431 432/301/432
f 433/302/433 431/300/431 430/299/430
usemtl tex_1619_lit_w11
f 434/303/434 435/304/435 436/305/436
f 437/306/437 435/304/435 434/303/434
usemtl tex_1622_lit_w11
f 438/307/438 439/308/439 440/309/440
f 441/310/441 439/308/439 438/307/438
usemtl tex_1656_lit_w11
f 448/311/448 442/312/442 443/313/443
f 449/314/449 448/311/448 444/315/444
f 450/316/450 445/317/445 446/318/446
f 451/319/451 446/318/446 447/320/447
f 449/314/449 444/315/444 445/317/445
f 448/311/448 451/319/451 442/312/442
f 450/316/450 449/314/449 445/317/445
f 447/320/447 442/312/442 451/319/451
f 448/311/448 443/313/443 444/315/444
f 451/319/451 450/316/450 446/318/446
f 458/315/458 452/321/452 459/317/459
f 459/317/459 452/321/452 453/322/453
f 459/317/459 453/322/453 460/318/460
f 460/318/460 453/322/453 454/323/454
f 460/318/460 454/323/454 461/320/461
f 461/320/461 454/323/454 455/324/455
f 461/320/461 455/324/455 462/312/462
f 462/312/462 455/324/455 456/325/456
f 462/312/462 456/325/456 463/313/463
f 463/313/463 456/325/456 457/326/457
f 463/313/463 457/326/457 458/315/458
f 458/315/458 457/326/457 452/321/452
f 464/327/464 465/328/465 466/329/466
f 467/330/467 468/331/468 464/327/464
f 469/332/469 465/328/465 470/333/470
f 471/334/471 470/333/470 467/330/467
f 470/333/470 468/331/468 467/330/467
f 469/332/469 466/329/466 465/328/465
f 467/330/467 464/327/464 466/329/466
f 471/334/471 469/332/469 470/333/470
f 465/328/465 464/327/464 468/331/468
f 465/328/465 468/331/468 470/333/470
usemtl tex_1654_lit_w11
f 472/335/472 473/336/473 474/337/474
f 472/335/472 475/338/475 476/339/476
f 477/340/477 478/341/478 479/342/479
f 472/335/472 474/337/474 475/338/475
f 473/336/473 477/340/477 479/342/479
f 480/343/480 477/340/477 473/336/473
f 475/338/475 478/341/478 481/344/481
f 472/335/472 480/343/480 473/336/473
f 477/340/477 482/345/482 478/341/478
f 478/341/478 482/345/482 481/344/481
f 476/339/476 475/338/475 481/344/481
f 488/336/488 483/346/483 489/337/489
f 484/347/484 483/346/483 488/336/488
f 490/342/490 484/347/484 488/336/488
f 485/348/485 484/347/484 490/342/490
f 491/341/491 485/348/485 490/342/490
f 486/349/486 485/348/485 491/341/491
f 487/350/487 486/349/486 491/341/491
f 483/346/483 487/350/487 489/337/489
f 489/337/489 487/350/487 492/338/492
f 492/338/492 487/350/487 491/341/491
f 499/351/499 493/345/493 500/352/500
f 500/352/500 493/345/493 494/340/494
f 500/352/500 494/340/494 501/353/501
f 501/353/501 494/340/494 495/343/495
f 501/353/501 495/343/495 502/354/502
f 502/354/502 495/343/495 496/335/496
f 502/354/502 496/335/496 503/355/503
f 503/355/503 496/335/496 497/339/497
f 503/355/503 497/339/497 504/356/504
f 504/356/504 497/339/497 498/344/498
f 504/356/504 498/344/498 499/351/499
f 499/351/499 498/344/498 493/345/493
f 505/357/505 506/358/506 507/359/507
f 507/359/507 508/360/508 505/357/505
f 509/361/509 510/359/510 511/358/511
f 509/361/509 505/357/505 512/362/512
f 509/361/509 511/358/511 505/357/505
f 510/359/510 513/363/513 508/360/508
usemtl tex_1654_lit_w11_ovl
f 514/364/514 513/363/513 510/359/510
usemtl tex_1654_lit_w11
f 505/357/505 508/360/508 512/362/512
f 509/361/509 514/364/514 510/359/510
f 513/363/513 512/362/512 508/360/508
f 513/363/513 514/364/514 509/361/509
usemtl tex_1654_lit_w11_ovl
f 513/363/513 509/361/509 512/362/512
usemtl tex_1609_lit
f 515/365/515 516/366/516 517/367/517
f 517/367/517 516/366/516 518/368/518
usemtl tex_1613_lit_w11
f 519/369/519 520/370/520 521/371/521
f 521/371/521 520/370/520 522/372/522
usemtl tex_1616_lit_w11
f 523/373/523 524/374/524 525/375/525
f 525/375/525 524/374/524 526/376/526
usemtl tex_1619_lit_w11
f 527/377/527 528/378/528 529/379/529
f 529/379/529 528/378/528 530/380/530
usemtl tex_1622_lit_w11
f 531/381/531 532/382/532 533/383/533
f 533/383/533 532/382/532 534/384/534
usemtl tex_1656_lit_w11
f 535/385/535 536/386/536 541/387/541
f 537/388/537 538/389/538 542/390/542
f 538/389/538 539/391/539 543/392/543
f 535/385/535 541/387/541 544/393/544
f 539/391/539 540/394/540 544/393/544
f 536/386/536 542/390/542 541/387/541
f 539/391/539 544/393/544 543/392/543
f 542/390/542 536/386/536 537/388/537
f 540/394/540 535/385/535 544/393/544
f 538/389/538 543/392/543 542/390/542
f 551/389/551 545/395/545 552/391/552
f 552/391/552 545/395/545 546/396/546
f 552/391/552 546/396/546 553/394/553
f 553/394/553 546/396/546 547/397/547
f 553/394/553 547/397/547 554/385/554
f 554/385/554 547/397/547 548/398/548
f 554/385/554 548/398/548 555/386/555
f 555/386/555 548/398/548 549/399/549
f 555/386/555 549/399/549 556/388/556
f 556/388/556 549/399/549 550/400/550
f 556/388/556 550/400/550 551/389/551
f 551/389/551 550/400/550 545/395/545
f 557/401/557 558/402/558 559/403/559
f 559/403/559 560/404/560 561/405/561
f 562/406/562 558/402/558 563/407/563
f 561/405/561 562/406/562 564/408/564
usemtl tex_1656_lit_w11_ovl
f 561/405/561 560/404/560 562/406/562
usemtl tex_1656_lit_w11
f 558/402/558 557/401/557 563/407/563
f 557/401/557 559/403/559 561/405/561
f 562/406/562 563/407/563 564/408/564
f 559/403/559 558/402/558 562/406/562
f 559/403/559 562/406/562 560/404/560
usemtl tex_1654_lit_w11
f 565/409/565 566/410/566 567/411/567
f 568/412/568 569/413/569 567/411/567
f 570/414/570 571/415/571 572/416/572
f 569/413/569 565/409/565 567/411/567
f 570/414/570 572/416/572 566/410/566
f 566/410/566 572/416/572 573/417/573
f 574/418/574 571/415/571 569/413/569
f 566/410/566 573/417/573 567/411/567
f 571/415/571 575/419/575 572/416/572
f 574/418/574 575/419/575 571/415/571
f 574/418/574 569/413/569 568/412/568
f 581/409/581 576/420/576 582/410/582
f 582/410/582 576/420/576 577/421/577
f 582/410/582 577/421/577 583/414/583
f 583/414/583 577/421/577 578/422/578
f 583/414/583 578/422/578 584/415/584
f 584/415/584 578/422/578 579/423/579
f 584/415/584 579/423/579 580/424/580
f 581/409/581 580/424/580 576/420/576
f 585/413/585 580/424/580 581/409/581
f 584/415/584 580/424/580 585/413/585
f 592/425/592 586/419/586 593/426/593
f 587/416/587 586/419/586 592/425/592
f 594/427/594 587/416/587 592/425/592
f 588/417/588 587/416/587 594/427/594
f 595/428/595 588/417/588 594/427/594
f 589/411/589 588/417/588 595/428/595
f 596/429/596 589/411/589 595/428/595
f 590/412/590 589/411/589 596/429/596
f 597/430/597 590/412/590 596/429/596
f 591/418/591 590/412/590 597/430/597
f 593/426/593 591/418/591 597/430/597
f 586/419/586 591/418/591 593/426/593
f 598/431/598 599/432/599 600/433/600
f 601/434/601 602/435/602 600/433/600
f 602/435/602 598/431/598 600/433/600
f 603/436/603 604/437/604 599/432/599
f 599/432/599 604/437/604 605/251/605
f 601/434/601 603/436/603 602/435/602
f 599/432/599 605/251/605 600/433/600
f 603/436/603 601/434/601 604/437/604
f 606/431/606 602/435/602 603/436/603
f 603/436/603 607/432/607 606/431/606
usemtl tex_1654_lit_w11_ovl
f 605/251/605 604/437/604 601/434/601
usemtl tex_1654_lit_w11
f 605/251/605 601/434/601 600/433/600
usemtl tex_1662_lit_w11
f 608/438/608 609/439/609 610/440/610
f 611/441/611 608/438/608 610/440/610
f 612/442/612 613/443/613 614/444/614
f 615/445/615 616/446/616 617/447/617
f 613/443/613 618/448/618 619/444/619
f 620/273/620 617/447/617 616/446/616
usemtl tex_1660_lit_w11
f 621/449/621 622/450/622 623/451/623
f 624/449/624 625/452/625 626/453/626
f 627/450/627 628/449/628 629/454/629
f 624/449/624 630/451/630 625/452/625
f 631/455/631 632/456/632 633/452/633
f 632/456/632 634/453/634 633/452/633
usemtl tex_1662_lit_w11
f 635/457/635 636/458/636 637/459/637
f 638/460/638 635/457/635 639/461/639
f 635/457/635 640/462/640 641/463/641
f 635/457/635 637/459/637 640/462/640
f 642/464/642 636/458/636 635/457/635
f 643/465/643 638/460/638 644/466/644
f 638/460/638 645/467/645 642/464/642
f 641/463/641 646/468/646 647/469/647
f 644/466/644 638/460/638 639/461/639
f 644/466/644 639/461/639 647/469/647
f 648/470/648 644/466/644 647/469/647
f 639/461/639 641/463/641 647/469/647
f 648/470/648 649/471/649 643/465/643
f 645/467/645 638/460/638 650/472/650
f 651/459/651 652/473/652 653/462/653
f 654/460/654 655/465/655 656/474/656
f 657/472/657 656/474/656 658/475/658
f 659/470/659 655/465/655 660/466/660
f 661/461/661 662/457/662 663/463/663
f 654/460/654 664/464/664 662/457/662
f 654/460/654 656/474/656 657/472/657
f 665/476/665 666/471/666 659/470/659
f 667/468/667 668/477/668 669/469/669
usemtl tex_1660_lit_w11
f 670/478/670 671/479/671 672/480/672
f 673/481/673 672/480/672 671/479/671
f 674/482/674 675/483/675 676/484/676
f 677/485/677 678/486/678 679/487/679
f 680/488/680 675/483/675 671/479/671
f 681/489/681 682/490/682 680/488/680
f 683/483/683 684/487/684 685/491/685
f 686/478/686 687/489/687 688/488/688
f 683/483/683 685/491/685 689/492/689
f 690/493/690 691/482/691 692/484/692
f 692/484/692 683/483/683 689/492/689
f 693/494/693 690/493/690 692/484/692
f 683/483/683 694/485/694 684/487/684
f 695/495/695 696/496/696 694/485/694
f 697/497/697 698/486/698 694/485/694
f 696/496/696 697/497/697 694/485/694
f 699/484/699 700/492/700 701/498/701
f 702/488/702 703/495/703 704/483/704
f 705/490/705 703/495/703 702/488/702
f 699/484/699 701/498/701 706/494/706
f 703/495/703 707/485/707 704/483/704
f 708/482/708 709/479/709 704/483/704
f 708/482/708 710/481/710 709/479/709
f 702/488/702 709/479/709 711/478/711
usemtl tex_1662_lit_w11
f 712/499/712 719/473/719 713/500/713
f 713/500/713 719/473/719 720/459/720
f 713/500/713 720/459/720 714/501/714
f 714/501/714 720/459/720 721/458/721
f 714/501/714 721/458/721 715/502/715
f 715/502/715 721/458/721 722/464/722
f 715/502/715 722/464/722 716/503/716
f 716/503/716 722/464/722 723/467/723
f 716/503/716 723/467/723 717/504/717
f 717/504/717 723/467/723 724/472/724
f 717/504/717 724/472/724 718/505/718
f 718/505/718 724/472/724 725/475/725
usemtl tex_1660_lit_w11
f 726/506/726 731/498/731 732/492/732
f 727/507/727 733/487/733 734/486/734
f 728/508/728 732/492/732 729/509/729
f 729/509/729 732/492/732 735/491/735
f 729/509/729 735/491/735 730/510/730
f 730/510/730 735/491/735 733/487/733
f 730/510/730 733/487/733 727/507/727
f 726/506/726 732/492/732 728/508/728
usemtl tex_1662_lit_w11
f 736/511/736 737/499/737 738/512/738
f 738/512/738 737/499/737 739/500/739
f 738/512/738 739/500/739 740/513/740
f 740/513/740 739/500/739 741/501/741
f 740/513/740 741/501/741 742/514/742
f 742/514/742 741/501/741 743/502/743
f 742/514/742 743/502/743 744/515/744
f 744/515/744 743/502/743 745/503/745
f 744/515/744 745/503/745 746/516/746
f 746/516/746 745/503/745 747/504/747
f 746/516/746 747/504/747 748/517/748
f 748/517/748 747/504/747 749/505/749
usemtl tex_1660_lit_w11
f 750/518/750 751/506/751 752/519/752
f 752/519/752 751/506/751 753/508/753
f 752/519/752 753/508/753 754/520/754
f 754/520/754 753/508/753 755/509/755
f 754/520/754 755/509/755 756/521/756
f 756/521/756 755/509/755 757/510/757
f 756/521/756 757/510/757 758/522/758
f 758/522/758 757/510/757 759/507/759
usemtl tex_1662_lit_w11
f 760/523/760 761/440/761 762/439/762
f 760/523/760 762/439/762 763/251/763
f 764/524/764 765/442/765 766/251/766
f 764/524/764 767/443/767 765/442/765
f 763/251/763 768/445/768 769/525/769
f 769/525/769 768/445/768 770/447/770
usemtl tex_1660_lit_w11
f 771/452/771 772/526/772 773/527/773
f 774/453/774 771/452/771 773/527/773
f 775/455/775 776/453/776 777/456/777
f 775/455/775 778/452/778 776/453/776
f 779/528/779 780/527/780 781/526/781
f 779/528/779 781/526/781 782/529/782
