mtllib CcamguardZ.mtl
v -1078.8555908203125 -86.70243644714355 -74.0 1.000 1.000 1.000
v -1078.8555908203125 -168.70243644714355 -68.0 1.000 1.000 1.000
v -1078.8555908203125 -43.702436447143555 191.0 1.000 1.000 1.000
v -1078.8555908203125 -162.70243644714355 200.0 1.000 1.000 1.000
v -1036.8555908203125 -78.70243644714355 177.0 1.000 1.000 1.000
v -972.8555908203125 -90.70243644714355 -4.0 1.000 1.000 1.000
v -971.8555908203125 -148.70243644714355 -49.0 1.000 1.000 1.000
v -1038.8555908203125 -134.70243644714355 203.0 1.000 1.000 1.000
v -973.8555908203125 -103.70243644714355 -62.0 1.000 1.000 1.000
v -972.8555908203125 -139.70243644714355 20.0 1.000 1.000 1.000
v -1036.8555908203125 -78.70243644714355 177.0 1.000 1.000 1.000
v -1078.8555908203125 -43.702436447143555 191.0 1.000 1.000 1.000
v -1038.8555908203125 -134.70243644714355 203.0 1.000 1.000 1.000
v -1078.8555908203125 -162.70243644714355 200.0 1.000 1.000 1.000
v -972.8555908203125 -139.70243644714355 20.0 1.000 1.000 1.000
v -972.8555908203125 -90.70243644714355 -4.0 1.000 1.000 1.000
v -794.8883666992188 -157.47519826889038 -47.0 1.000 1.000 1.000
v -759.8883666992188 -57.47519826889038 -89.0 1.000 1.000 1.000
v -757.8883666992188 -182.47519826889038 -77.0 1.000 1.000 1.000
v -799.8883666992188 -79.47519826889038 -59.0 1.000 1.000 1.000
v -786.8883666992188 -67.47519826889038 -2.0 1.000 1.000 1.000
v -794.8883666992188 -151.47519826889038 37.0 1.000 1.000 1.000
v -761.8883666992188 -184.47519826889038 88.0 1.000 1.000 1.000
v -743.8883666992188 -21.47519826889038 68.0 1.000 1.000 1.000
v -786.8883666992188 -67.47519826889038 -2.0 1.000 1.000 1.000
v -799.8883666992188 -79.47519826889038 -59.0 1.000 1.000 1.000
v -794.8883666992188 -157.47519826889038 -47.0 1.000 1.000 1.000
v -794.8883666992188 -151.47519826889038 37.0 1.000 1.000 1.000
v -786.8883666992188 -67.47519826889038 -2.0 1.000 1.000 1.000
v -794.8883666992188 -151.47519826889038 37.0 1.000 1.000 1.000
v -973.8555908203125 -103.70243644714355 -62.0 1.000 1.000 1.000
v -972.8555908203125 -90.70243644714355 -4.0 1.000 1.000 1.000
v -971.8555908203125 -148.70243644714355 -49.0 1.000 1.000 1.000
v -972.8555908203125 -139.70243644714355 20.0 1.000 1.000 1.000
v -972.8555908203125 -90.70243644714355 -4.0 1.000 1.000 1.000
v -972.8555908203125 -139.70243644714355 20.0 1.000 1.000 1.000
v -506.88836669921875 -112.47519826889038 106.0 1.000 1.000 1.000
v -523.8883666992188 -22.47519826889038 12.0 1.000 1.000 1.000
v -519.8883666992188 -114.47519826889038 -74.0 1.000 1.000 1.000
v -512.8883666992188 -188.47519826889038 9.0 1.000 1.000 1.000
v -761.8883666992188 -184.47519826889038 88.0 1.000 1.000 1.000
v -743.8883666992188 -21.47519826889038 68.0 1.000 1.000 1.000
v -759.8883666992188 -57.47519826889038 -89.0 1.000 1.000 1.000
v -757.8883666992188 -182.47519826889038 -77.0 1.000 1.000 1.000
v -993.8883666992188 -139.47519826889038 20.0 1.000 1.000 1.000
v -527.8883666992188 -125.47519826889038 87.0 1.000 1.000 1.000
v -993.8883666992188 -90.47519826889038 -4.0 1.000 1.000 1.000
v -518.8883666992188 -27.47519826889038 38.0 1.000 1.000 1.000
v -521.8883666992188 -101.47519826889038 -67.0 1.000 1.000 1.000
v -993.8883666992188 -103.47519826889038 -62.0 1.000 1.000 1.000
v -522.8883666992188 -188.47519826889038 13.0 1.000 1.000 1.000
v -993.8883666992188 -149.47519826889038 -49.0 1.000 1.000 1.000
v -527.8883666992188 -125.47519826889038 87.0 1.000 1.000 1.000
v -522.8883666992188 -188.47519826889038 13.0 1.000 1.000 1.000
v -162.58901977539062 -37.63739013671875 1.0 1.000 1.000 1.000
v -162.58901977539062 -49.63739013671875 -67.0 1.000 1.000 1.000
v -162.58901977539062 -115.63739013671875 -65.0 1.000 1.000 1.000
v -162.58901977539062 -137.63739013671875 -102.0 1.000 1.000 1.000
v -163.58901977539062 -185.63739013671875 20.0 1.000 1.000 1.000
v -162.58901977539062 -191.63739013671875 -102.0 1.000 1.000 1.000
v -161.58901977539062 -189.63739013671875 133.0 1.000 1.000 1.000
v -162.58901977539062 -144.63739013671875 116.0 1.000 1.000 1.000
v -162.58901977539062 -70.63739013671875 89.0 1.000 1.000 1.000
v -162.58901977539062 -17.63739013671875 13.0 1.000 1.000 1.000
v -291.5890197753906 -125.63739013671875 123.0 1.000 1.000 1.000
v -163.58901977539062 -185.63739013671875 20.0 1.000 1.000 1.000
v -162.58901977539062 -144.63739013671875 116.0 1.000 1.000 1.000
v -162.58901977539062 -115.63739013671875 -65.0 1.000 1.000 1.000
v -334.5890197753906 -188.63739013671875 13.0 1.000 1.000 1.000
v -212.58901977539062 -117.63739013671875 -67.0 1.000 1.000 1.000
v -254.58901977539062 -28.63739013671875 12.0 1.000 1.000 1.000
v -162.58901977539062 -37.63739013671875 1.0 1.000 1.000 1.000
v -162.58901977539062 -115.63739013671875 -65.0 1.000 1.000 1.000
v -334.5890197753906 -188.63739013671875 13.0 1.000 1.000 1.000
v -291.5890197753906 -125.63739013671875 123.0 1.000 1.000 1.000
v -162.58901977539062 -144.63739013671875 116.0 1.000 1.000 1.000
v -163.58901977539062 -185.63739013671875 20.0 1.000 1.000 1.000
v -1.0 -94.0 -88.0 1.000 1.000 1.000
v -2.0 -113.0 143.0 1.000 1.000 1.000
v -91.0 -48.0 -70.0 1.000 1.000 1.000
v -132.0 19.0 20.0 1.000 1.000 1.000
v -1.0 -94.0 -88.0 1.000 1.000 1.000
v -2.0 -113.0 143.0 1.000 1.000 1.000
v -63.0 -65.0 133.0 1.000 1.000 1.000
v -161.58901977539062 -189.63739013671875 133.0 1.000 1.000 1.000
v -162.58901977539062 -191.63739013671875 -102.0 1.000 1.000 1.000
v -162.58901977539062 -17.63739013671875 13.0 1.000 1.000 1.000
v -162.58901977539062 -49.63739013671875 -67.0 1.000 1.000 1.000
v -162.58901977539062 -137.63739013671875 -102.0 1.000 1.000 1.000
v -162.58901977539062 -191.63739013671875 -102.0 1.000 1.000 1.000
v -161.58901977539062 -189.63739013671875 133.0 1.000 1.000 1.000
v -162.58901977539062 -70.63739013671875 89.0 1.000 1.000 1.000
v -132.0 19.0 20.0 1.000 1.000 1.000
v -63.0 -65.0 133.0 1.000 1.000 1.000
v -162.58901977539062 -70.63739013671875 89.0 1.000 1.000 1.000
v -162.58901977539062 -17.63739013671875 13.0 1.000 1.000 1.000
v -212.58901977539062 -117.63739013671875 -67.0 1.000 1.000 1.000
v -254.58901977539062 -28.63739013671875 12.0 1.000 1.000 1.000
v -334.5890197753906 -188.63739013671875 13.0 1.000 1.000 1.000
v -291.5890197753906 -125.63739013671875 123.0 1.000 1.000 1.000
v -523.8883666992188 -22.47519826889038 12.0 1.000 1.000 1.000
v -519.8883666992188 -114.47519826889038 -74.0 1.000 1.000 1.000
v -506.88836669921875 -112.47519826889038 106.0 1.000 1.000 1.000
v -512.8883666992188 -188.47519826889038 9.0 1.000 1.000 1.000
v -527.5890197753906 -125.63739013671875 87.0 1.000 1.000 1.000
v -163.58901977539062 -185.63739013671875 20.0 1.000 1.000 1.000
v -166.58901977539062 -144.63739013671875 124.0 1.000 1.000 1.000
v -162.58901977539062 -115.63739013671875 -73.0 1.000 1.000 1.000
v -522.5890197753906 -188.63739013671875 13.0 1.000 1.000 1.000
v -522.5890197753906 -101.63739013671875 -67.0 1.000 1.000 1.000
v -519.5890197753906 -27.63739013671875 38.0 1.000 1.000 1.000
v -162.58901977539062 -30.63739013671875 27.0 1.000 1.000 1.000
v -162.58901977539062 -30.63739013671875 27.0 1.000 1.000 1.000
v -166.58901977539062 -144.63739013671875 124.0 1.000 1.000 1.000
v -163.58901977539062 -185.63739013671875 20.0 1.000 1.000 1.000
v -162.58901977539062 -115.63739013671875 -73.0 1.000 1.000 1.000
v -527.5890197753906 -125.63739013671875 87.0 1.000 1.000 1.000
v -522.5890197753906 -188.63739013671875 13.0 1.000 1.000 1.000
v 1087.927879333496 -45.380823612213135 190.0 1.000 1.000 1.000
v 1087.927879333496 -171.38082361221313 -68.0 1.000 1.000 1.000
v 1087.927879333496 -89.38082361221313 -74.0 1.000 1.000 1.000
v 1087.927879333496 -164.38082361221313 200.0 1.000 1.000 1.000
v 982.9278793334961 -92.38082361221313 -4.0 1.000 1.000 1.000
v 1044.927879333496 -83.38082361221313 177.0 1.000 1.000 1.000
v 1047.927879333496 -135.38082361221313 203.0 1.000 1.000 1.000
v 980.9278793334961 -152.38082361221313 -49.0 1.000 1.000 1.000
v 981.9278793334961 -106.38082361221313 -62.0 1.000 1.000 1.000
v 981.9278793334961 -141.38082361221313 20.0 1.000 1.000 1.000
v 1047.927879333496 -135.38082361221313 203.0 1.000 1.000 1.000
v 1087.927879333496 -45.380823612213135 190.0 1.000 1.000 1.000
v 1044.927879333496 -83.38082361221313 177.0 1.000 1.000 1.000
v 1087.927879333496 -164.38082361221313 200.0 1.000 1.000 1.000
v 982.9278793334961 -92.38082361221313 -4.0 1.000 1.000 1.000
v 981.9278793334961 -141.38082361221313 20.0 1.000 1.000 1.000
v 812.3251266479492 -147.09517669677734 34.0 1.000 1.000 1.000
v 770.3251266479492 -184.09517669677734 88.0 1.000 1.000 1.000
v 767.3251266479492 -187.09517669677734 -77.0 1.000 1.000 1.000
v 813.3251266479492 -160.09517669677734 -45.0 1.000 1.000 1.000
v 796.3251266479492 -80.09517669677734 -57.0 1.000 1.000 1.000
v 768.3251266479492 -84.09517669677734 -89.0 1.000 1.000 1.000
v 751.3251266479492 -20.095176696777344 68.0 1.000 1.000 1.000
v 798.3251266479492 -77.09517669677734 -1.0 1.000 1.000 1.000
v 796.3251266479492 -80.09517669677734 -57.0 1.000 1.000 1.000
v 798.3251266479492 -77.09517669677734 -1.0 1.000 1.000 1.000
v 812.3251266479492 -147.09517669677734 34.0 1.000 1.000 1.000
v 813.3251266479492 -160.09517669677734 -45.0 1.000 1.000 1.000
v 798.3251266479492 -77.09517669677734 -1.0 1.000 1.000 1.000
v 812.3251266479492 -147.09517669677734 34.0 1.000 1.000 1.000
v 981.9278793334961 -106.38082361221313 -62.0 1.000 1.000 1.000
v 982.9278793334961 -92.38082361221313 -4.0 1.000 1.000 1.000
v 980.9278793334961 -152.38082361221313 -49.0 1.000 1.000 1.000
v 981.9278793334961 -141.38082361221313 20.0 1.000 1.000 1.000
v 982.9278793334961 -92.38082361221313 -4.0 1.000 1.000 1.000
v 981.9278793334961 -141.38082361221313 20.0 1.000 1.000 1.000
v 981.9278793334961 -141.38082361221313 20.0 1.000 1.000 1.000
v 515.3251266479492 -115.09517669677734 106.0 1.000 1.000 1.000
v 532.3251266479492 -23.095176696777344 14.0 1.000 1.000 1.000
v 528.3251266479492 -111.09517669677734 -67.0 1.000 1.000 1.000
v 522.3251266479492 -189.09517669677734 9.0 1.000 1.000 1.000
v 751.3251266479492 -20.095176696777344 68.0 1.000 1.000 1.000
v 770.3251266479492 -184.09517669677734 88.0 1.000 1.000 1.000
v 768.3251266479492 -84.09517669677734 -89.0 1.000 1.000 1.000
v 767.3251266479492 -187.09517669677734 -77.0 1.000 1.000 1.000
v 1003.3251266479492 -93.09517669677734 -4.0 1.000 1.000 1.000
v 536.3251266479492 -130.09517669677734 87.0 1.000 1.000 1.000
v 1003.3251266479492 -141.09517669677734 20.0 1.000 1.000 1.000
v 1003.3251266479492 -107.09517669677734 -62.0 1.000 1.000 1.000
v 531.3251266479492 -106.09517669677734 -67.0 1.000 1.000 1.000
v 528.3251266479492 -31.095176696777344 38.0 1.000 1.000 1.000
v 531.3251266479492 -193.09517669677734 13.0 1.000 1.000 1.000
v 1003.3251266479492 -152.09517669677734 -49.0 1.000 1.000 1.000
v 531.3251266479492 -193.09517669677734 13.0 1.000 1.000 1.000
v 536.3251266479492 -130.09517669677734 87.0 1.000 1.000 1.000
v 171.1657943725586 -65.35110473632812 88.0 1.000 1.000 1.000
v 172.1657943725586 -39.351104736328125 1.0 1.000 1.000 1.000
v 172.1657943725586 -21.351104736328125 13.0 1.000 1.000 1.000
v 172.1657943725586 -142.35110473632812 111.0 1.000 1.000 1.000
v 171.1657943725586 -198.35110473632812 133.0 1.000 1.000 1.000
v 172.1657943725586 -190.35110473632812 20.0 1.000 1.000 1.000
v 171.1657943725586 -196.35110473632812 -102.0 1.000 1.000 1.000
v 172.1657943725586 -117.35110473632812 -66.0 1.000 1.000 1.000
v 171.1657943725586 -125.35110473632812 -103.0 1.000 1.000 1.000
v 171.1657943725586 -39.351104736328125 -67.0 1.000 1.000 1.000
v 172.1657943725586 -142.35110473632812 111.0 1.000 1.000 1.000
v 172.1657943725586 -190.35110473632812 20.0 1.000 1.000 1.000
v 300.1657943725586 -128.35110473632812 123.0 1.000 1.000 1.000
v 343.1657943725586 -187.35110473632812 12.0 1.000 1.000 1.000
v 172.1657943725586 -117.35110473632812 -66.0 1.000 1.000 1.000
v 224.1657943725586 -94.35110473632812 -67.0 1.000 1.000 1.000
v 172.1657943725586 -142.35110473632812 111.0 1.000 1.000 1.000
v 300.1657943725586 -128.35110473632812 123.0 1.000 1.000 1.000
v 264.1657943725586 -33.351104736328125 12.0 1.000 1.000 1.000
v 224.1657943725586 -94.35110473632812 -67.0 1.000 1.000 1.000
v 172.1657943725586 -39.351104736328125 1.0 1.000 1.000 1.000
v 172.1657943725586 -117.35110473632812 -66.0 1.000 1.000 1.000
v 172.1657943725586 -190.35110473632812 20.0 1.000 1.000 1.000
v 343.1657943725586 -187.35110473632812 12.0 1.000 1.000 1.000
v -2.0 -113.0 143.0 1.000 1.000 1.000
v -1.0 -94.0 -88.0 1.000 1.000 1.000
v 92.0 -46.0 -73.0 1.000 1.000 1.000
v 143.0 19.0 25.0 1.000 1.000 1.000
v -1.0 -94.0 -88.0 1.000 1.000 1.000
v 143.0 19.0 25.0 1.000 1.000 1.000
v 67.0 -61.0 136.0 1.000 1.000 1.000
v 171.1657943725586 -198.35110473632812 133.0 1.000 1.000 1.000
v 171.1657943725586 -196.35110473632812 -102.0 1.000 1.000 1.000
v 171.1657943725586 -39.351104736328125 -67.0 1.000 1.000 1.000
v 171.1657943725586 -125.35110473632812 -103.0 1.000 1.000 1.000
v 172.1657943725586 -21.351104736328125 13.0 1.000 1.000 1.000
v 171.1657943725586 -196.35110473632812 -102.0 1.000 1.000 1.000
v 171.1657943725586 -65.35110473632812 88.0 1.000 1.000 1.000
v 172.1657943725586 -21.351104736328125 13.0 1.000 1.000 1.000
v 67.0 -61.0 136.0 1.000 1.000 1.000
v -2.0 -113.0 143.0 1.000 1.000 1.000
v 171.1657943725586 -198.35110473632812 133.0 1.000 1.000 1.000
v 171.1657943725586 -65.35110473632812 88.0 1.000 1.000 1.000
v 264.1657943725586 -33.351104736328125 12.0 1.000 1.000 1.000
v 224.1657943725586 -94.35110473632812 -67.0 1.000 1.000 1.000
v 343.1657943725586 -187.35110473632812 12.0 1.000 1.000 1.000
v 300.1657943725586 -128.35110473632812 123.0 1.000 1.000 1.000
v 532.3251266479492 -23.095176696777344 14.0 1.000 1.000 1.000
v 515.3251266479492 -115.09517669677734 106.0 1.000 1.000 1.000
v 528.3251266479492 -111.09517669677734 -67.0 1.000 1.000 1.000
v 522.3251266479492 -189.09517669677734 9.0 1.000 1.000 1.000
v 175.1657943725586 -148.35110473632812 124.0 1.000 1.000 1.000
v 173.1657943725586 -189.35110473632812 20.0 1.000 1.000 1.000
v 537.1657943725586 -129.35110473632812 87.0 1.000 1.000 1.000
v 531.1657943725586 -193.35110473632812 13.0 1.000 1.000 1.000
v 171.1657943725586 -119.35110473632812 -73.0 1.000 1.000 1.000
v 172.1657943725586 -35.351104736328125 27.0 1.000 1.000 1.000
v 528.1657943725586 -31.351104736328125 38.0 1.000 1.000 1.000
v 531.1657943725586 -106.35110473632812 -67.0 1.000 1.000 1.000
v 171.1657943725586 -119.35110473632812 -73.0 1.000 1.000 1.000
v 173.1657943725586 -189.35110473632812 20.0 1.000 1.000 1.000
v 175.1657943725586 -148.35110473632812 124.0 1.000 1.000 1.000
v 172.1657943725586 -35.351104736328125 27.0 1.000 1.000 1.000
v 531.1657943725586 -193.35110473632812 13.0 1.000 1.000 1.000
v 537.1657943725586 -129.35110473632812 87.0 1.000 1.000 1.000
v -254.86859130859375 376.30655002593994 70.0 1.000 1.000 1.000
v -198.86859130859375 437.30655002593994 0.0 1.000 1.000 1.000
v -226.86859130859375 413.30655002593994 -45.0 1.000 1.000 1.000
v -304.86859130859375 437.30655002593994 0.0 1.000 1.000 1.000
v -288.86859130859375 414.30655002593994 -41.0 1.000 1.000 1.000
v -6.576026916503906 442.42901611328125 73.0 1.000 1.000 1.000
v -51.576026916503906 469.42901611328125 44.0 1.000 1.000 1.000
v 27.423973083496094 480.42901611328125 -37.0 1.000 1.000 1.000
v 49.423973083496094 468.42901611328125 44.0 1.000 1.000 1.000
v -46.576026916503906 482.42901611328125 -31.0 1.000 1.000 1.000
v 370.1021728515625 -27.755651995539665 -42.76123380661011 1.000 1.000 1.000
v 339.1021728515625 37.244348004460335 -27.761233806610107 1.000 1.000 1.000
v 381.1021728515625 -31.755651995539665 56.23876619338989 1.000 1.000 1.000
v 349.1021728515625 62.244348004460335 51.23876619338989 1.000 1.000 1.000
v 266.1021728515625 11.244348004460335 -28.761233806610107 1.000 1.000 1.000
v 264.1021728515625 27.244348004460335 36.23876619338989 1.000 1.000 1.000
v 339.1021728515625 37.244348004460335 -27.761233806610107 1.000 1.000 1.000
v 349.1021728515625 62.244348004460335 51.23876619338989 1.000 1.000 1.000
v 339.1021728515625 37.244348004460335 -27.761233806610107 1.000 1.000 1.000
v 370.1021728515625 -27.755651995539665 -42.76123380661011 1.000 1.000 1.000
v 266.1021728515625 11.244348004460335 -28.761233806610107 1.000 1.000 1.000
v 264.1021728515625 -28.755651995539665 -25.761233806610107 1.000 1.000 1.000
v 263.1021728515625 -33.755651995539665 32.23876619338989 1.000 1.000 1.000
v 381.1021728515625 -31.755651995539665 56.23876619338989 1.000 1.000 1.000
v 264.1021728515625 27.244348004460335 36.23876619338989 1.000 1.000 1.000
v 349.1021728515625 62.244348004460335 51.23876619338989 1.000 1.000 1.000
v 381.1021728515625 -31.755651995539665 56.23876619338989 1.000 1.000 1.000
v 263.1021728515625 -33.755651995539665 32.23876619338989 1.000 1.000 1.000
v 370.1021728515625 -27.755651995539665 -42.76123380661011 1.000 1.000 1.000
v 264.1021728515625 -28.755651995539665 -25.761233806610107 1.000 1.000 1.000
v 489.6571079492569 393.8121757507324 52.07913017272949 1.000 1.000 1.000
v 483.6571079492569 317.8121757507324 49.07913017272949 1.000 1.000 1.000
v 484.6571079492569 313.8121757507324 -5.920869827270508 1.000 1.000 1.000
v 486.6571079492569 381.8121757507324 -42.92086982727051 1.000 1.000 1.000
v 484.6571079492569 433.8121757507324 7.079130172729492 1.000 1.000 1.000
v 263.1021728515625 -33.755651995539665 32.23876619338989 1.000 1.000 1.000
v 264.1021728515625 -28.755651995539665 -25.761233806610107 1.000 1.000 1.000
v 264.1021728515625 27.244348004460335 36.23876619338989 1.000 1.000 1.000
v 266.1021728515625 11.244348004460335 -28.761233806610107 1.000 1.000 1.000
v 411.6571079492569 415.8121757507324 7.079130172729492 1.000 1.000 1.000
v 413.6571079492569 381.8121757507324 -30.920869827270508 1.000 1.000 1.000
v 412.6571079492569 329.8121757507324 -6.920869827270508 1.000 1.000 1.000
v 410.6571079492569 337.8121757507324 53.07913017272949 1.000 1.000 1.000
v 411.6571079492569 413.8121757507324 50.07913017272949 1.000 1.000 1.000
v 486.6571079492569 381.8121757507324 -42.92086982727051 1.000 1.000 1.000
v 484.6571079492569 433.8121757507324 7.079130172729492 1.000 1.000 1.000
v 484.6571079492569 313.8121757507324 -5.920869827270508 1.000 1.000 1.000
v 483.6571079492569 317.8121757507324 49.07913017272949 1.000 1.000 1.000
v 489.6571079492569 393.8121757507324 52.07913017272949 1.000 1.000 1.000
v 692.6571079492569 349.8121757507324 41.07913017272949 1.000 1.000 1.000
v 402.6571079492569 398.8121757507324 91.07913017272949 1.000 1.000 1.000
v 396.6571079492569 297.8121757507324 89.07913017272949 1.000 1.000 1.000
v 396.6571079492569 297.8121757507324 89.07913017272949 1.000 1.000 1.000
v 398.6571079492569 292.8121757507324 -24.920869827270508 1.000 1.000 1.000
v 693.6571079492569 354.8121757507324 -17.920869827270508 1.000 1.000 1.000
v 404.6571079492569 408.8121757507324 -46.92086982727051 1.000 1.000 1.000
v 691.6571079492569 411.8121757507324 45.07913017272949 1.000 1.000 1.000
v 693.6571079492569 394.8121757507324 -20.920869827270508 1.000 1.000 1.000
v 692.6571079492569 349.8121757507324 41.07913017272949 1.000 1.000 1.000
v 396.6571079492569 297.8121757507324 89.07913017272949 1.000 1.000 1.000
v 402.6571079492569 398.8121757507324 91.07913017272949 1.000 1.000 1.000
v 404.6571079492569 408.8121757507324 -46.92086982727051 1.000 1.000 1.000
v 398.6571079492569 292.8121757507324 -24.920869827270508 1.000 1.000 1.000
v 263.85553324222565 324.87169647216797 69.0 1.000 1.000 1.000
v 274.85553324222565 319.87169647216797 -12.0 1.000 1.000 1.000
v 339.85553324222565 340.87169647216797 61.0 1.000 1.000 1.000
v 333.85553324222565 388.87169647216797 80.0 1.000 1.000 1.000
v 186.85553324222565 379.87169647216797 89.0 1.000 1.000 1.000
v 175.85553324222565 369.87169647216797 -66.0 1.000 1.000 1.000
v 140.85553324222565 403.87169647216797 10.0 1.000 1.000 1.000
v 268.85553324222565 388.87169647216797 -57.0 1.000 1.000 1.000
v 333.85553324222565 325.87169647216797 -10.0 1.000 1.000 1.000
v 274.85553324222565 439.87169647216797 17.0 1.000 1.000 1.000
v -53.86859130859375 220.30655002593994 67.0 1.000 1.000 1.000
v -55.86859130859375 210.30655002593994 -17.0 1.000 1.000 1.000
v -51.86859130859375 353.30655002593994 -49.0 1.000 1.000 1.000
v -51.86859130859375 375.30655002593994 26.0 1.000 1.000 1.000
v -52.86859130859375 335.30655002593994 75.0 1.000 1.000 1.000
v 263.85553324222565 324.87169647216797 69.0 1.000 1.000 1.000
v 274.85553324222565 319.87169647216797 -12.0 1.000 1.000 1.000
v 175.85553324222565 369.87169647216797 -66.0 1.000 1.000 1.000
v 140.85553324222565 403.87169647216797 10.0 1.000 1.000 1.000
v 186.85553324222565 379.87169647216797 89.0 1.000 1.000 1.000
v 274.85553324222565 439.87169647216797 17.0 1.000 1.000 1.000
v 268.85553324222565 388.87169647216797 -57.0 1.000 1.000 1.000
v 333.85553324222565 325.87169647216797 -10.0 1.000 1.000 1.000
v 339.85553324222565 340.87169647216797 61.0 1.000 1.000 1.000
v 333.85553324222565 388.87169647216797 80.0 1.000 1.000 1.000
v 413.6571079492569 381.8121757507324 -30.920869827270508 1.000 1.000 1.000
v 411.6571079492569 415.8121757507324 7.079130172729492 1.000 1.000 1.000
v 412.6571079492569 329.8121757507324 -6.920869827270508 1.000 1.000 1.000
v 410.6571079492569 337.8121757507324 53.07913017272949 1.000 1.000 1.000
v 411.6571079492569 413.8121757507324 50.07913017272949 1.000 1.000 1.000
v 94.85553324222565 289.87169647216797 80.0 1.000 1.000 1.000
v 64.85553324222565 283.87169647216797 -47.0 1.000 1.000 1.000
v 396.85553324222565 297.87169647216797 89.0 1.000 1.000 1.000
v 402.85553324222565 398.87169647216797 91.0 1.000 1.000 1.000
v 151.85553324222565 400.87169647216797 66.0 1.000 1.000 1.000
v 396.85553324222565 297.87169647216797 89.0 1.000 1.000 1.000
v 94.85553324222565 289.87169647216797 80.0 1.000 1.000 1.000
v 148.85553324222565 412.87169647216797 -35.0 1.000 1.000 1.000
v 404.85553324222565 408.87169647216797 -47.0 1.000 1.000 1.000
v 398.85553324222565 292.87169647216797 -25.0 1.000 1.000 1.000
v 398.85553324222565 292.87169647216797 -25.0 1.000 1.000 1.000
v 404.85553324222565 408.87169647216797 -47.0 1.000 1.000 1.000
v 402.85553324222565 398.87169647216797 91.0 1.000 1.000 1.000
v 396.85553324222565 297.87169647216797 89.0 1.000 1.000 1.000
v -785.0662807226181 361.1454210281372 55.0 1.000 1.000 1.000
v -744.0662807226181 433.1454210281372 -27.0 1.000 1.000 1.000
v -773.0662807226181 366.1454210281372 -44.0 1.000 1.000 1.000
v -756.0662807226181 457.1454210281372 52.0 1.000 1.000 1.000
v -744.0662807226181 433.1454210281372 -27.0 1.000 1.000 1.000
v -670.0662807226181 422.1454210281372 42.0 1.000 1.000 1.000
v -669.0662807226181 405.1454210281372 -27.0 1.000 1.000 1.000
v -756.0662807226181 457.1454210281372 52.0 1.000 1.000 1.000
v -669.0662807226181 405.1454210281372 -27.0 1.000 1.000 1.000
v -773.0662807226181 366.1454210281372 -44.0 1.000 1.000 1.000
v -744.0662807226181 433.1454210281372 -27.0 1.000 1.000 1.000
v -667.0662807226181 365.1454210281372 -25.0 1.000 1.000 1.000
v -670.0662807226181 422.1454210281372 42.0 1.000 1.000 1.000
v -785.0662807226181 361.1454210281372 55.0 1.000 1.000 1.000
v -667.0662807226181 358.1454210281372 42.0 1.000 1.000 1.000
v -756.0662807226181 457.1454210281372 52.0 1.000 1.000 1.000
v -773.0662807226181 366.1454210281372 -44.0 1.000 1.000 1.000
v -667.0662807226181 358.1454210281372 42.0 1.000 1.000 1.000
v -785.0662807226181 361.1454210281372 55.0 1.000 1.000 1.000
v -667.0662807226181 365.1454210281372 -25.0 1.000 1.000 1.000
v -475.19768941402435 338.83887100219727 45.0 1.000 1.000 1.000
v -481.19768941402435 401.83887100219727 50.0 1.000 1.000 1.000
v -476.19768941402435 335.83887100219727 -10.0 1.000 1.000 1.000
v -476.19768941402435 390.83887100219727 -46.0 1.000 1.000 1.000
v -475.19768941402435 441.83887100219727 5.0 1.000 1.000 1.000
v -667.0662807226181 358.1454210281372 42.0 1.000 1.000 1.000
v -667.0662807226181 365.1454210281372 -25.0 1.000 1.000 1.000
v -670.0662807226181 422.1454210281372 42.0 1.000 1.000 1.000
v -669.0662807226181 405.1454210281372 -27.0 1.000 1.000 1.000
v -403.19768941402435 424.83887100219727 6.0 1.000 1.000 1.000
v -404.19768941402435 390.83887100219727 -32.0 1.000 1.000 1.000
v -403.19768941402435 338.83887100219727 -10.0 1.000 1.000 1.000
v -403.19768941402435 345.83887100219727 51.0 1.000 1.000 1.000
v -403.19768941402435 420.83887100219727 49.0 1.000 1.000 1.000
v -475.19768941402435 441.83887100219727 5.0 1.000 1.000 1.000
v -476.19768941402435 390.83887100219727 -46.0 1.000 1.000 1.000
v -476.19768941402435 335.83887100219727 -10.0 1.000 1.000 1.000
v -475.19768941402435 338.83887100219727 45.0 1.000 1.000 1.000
v -481.19768941402435 401.83887100219727 50.0 1.000 1.000 1.000
v -391.19768941402435 313.83887100219727 85.0 1.000 1.000 1.000
v -397.19768941402435 414.83887100219727 89.0 1.000 1.000 1.000
v -685.1976894140244 358.83887100219727 42.0 1.000 1.000 1.000
v -685.1976894140244 364.83887100219727 -25.0 1.000 1.000 1.000
v -391.19768941402435 311.83887100219727 -28.0 1.000 1.000 1.000
v -391.19768941402435 313.83887100219727 85.0 1.000 1.000 1.000
v -685.1976894140244 421.83887100219727 42.0 1.000 1.000 1.000
v -397.19768941402435 427.83887100219727 -49.0 1.000 1.000 1.000
v -685.1976894140244 405.83887100219727 -27.0 1.000 1.000 1.000
v -685.1976894140244 358.83887100219727 42.0 1.000 1.000 1.000
v -397.19768941402435 414.83887100219727 89.0 1.000 1.000 1.000
v -391.19768941402435 313.83887100219727 85.0 1.000 1.000 1.000
v -391.19768941402435 311.83887100219727 -28.0 1.000 1.000 1.000
v -397.19768941402435 427.83887100219727 -49.0 1.000 1.000 1.000
v -332.2357143163681 347.22493743896484 62.0 1.000 1.000 1.000
v -267.2357143163681 327.22493743896484 -16.0 1.000 1.000 1.000
v -258.2357143163681 331.22493743896484 66.0 1.000 1.000 1.000
v -181.2357143163681 385.22493743896484 88.0 1.000 1.000 1.000
v -326.2357143163681 395.22493743896484 81.0 1.000 1.000 1.000
v -259.2357143163681 397.22493743896484 -55.0 1.000 1.000 1.000
v -133.2357143163681 412.22493743896484 11.0 1.000 1.000 1.000
v -167.2357143163681 379.22493743896484 -67.0 1.000 1.000 1.000
v -325.2357143163681 333.22493743896484 -10.0 1.000 1.000 1.000
v -267.2357143163681 447.22493743896484 21.0 1.000 1.000 1.000
v -440.86859130859375 220.30655002593994 68.0 1.000 1.000 1.000
v -439.86859130859375 208.30655002593994 -19.0 1.000 1.000 1.000
v -445.86859130859375 354.30655002593994 -50.0 1.000 1.000 1.000
v -444.86859130859375 372.30655002593994 27.0 1.000 1.000 1.000
v -445.86859130859375 334.30655002593994 75.0 1.000 1.000 1.000
v -267.2357143163681 327.22493743896484 -16.0 1.000 1.000 1.000
v -258.2357143163681 331.22493743896484 66.0 1.000 1.000 1.000
v -167.2357143163681 379.22493743896484 -67.0 1.000 1.000 1.000
v -133.2357143163681 412.22493743896484 11.0 1.000 1.000 1.000
v -181.2357143163681 385.22493743896484 88.0 1.000 1.000 1.000
v -267.2357143163681 447.22493743896484 21.0 1.000 1.000 1.000
v -259.2357143163681 397.22493743896484 -55.0 1.000 1.000 1.000
v -325.2357143163681 333.22493743896484 -10.0 1.000 1.000 1.000
v -332.2357143163681 347.22493743896484 62.0 1.000 1.000 1.000
v -326.2357143163681 395.22493743896484 81.0 1.000 1.000 1.000
v -403.19768941402435 424.83887100219727 6.0 1.000 1.000 1.000
v -404.19768941402435 390.83887100219727 -32.0 1.000 1.000 1.000
v -403.19768941402435 338.83887100219727 -10.0 1.000 1.000 1.000
v -403.19768941402435 345.83887100219727 51.0 1.000 1.000 1.000
v -403.19768941402435 420.83887100219727 49.0 1.000 1.000 1.000
v -145.2357143163681 417.22493743896484 68.0 1.000 1.000 1.000
v -89.2357143163681 306.22493743896484 81.0 1.000 1.000 1.000
v -57.2357143163681 302.22493743896484 -45.0 1.000 1.000 1.000
v -141.2357143163681 431.22493743896484 -33.0 1.000 1.000 1.000
v -391.2357143163681 314.22493743896484 85.0 1.000 1.000 1.000
v -391.2357143163681 314.22493743896484 85.0 1.000 1.000 1.000
v -145.2357143163681 417.22493743896484 68.0 1.000 1.000 1.000
v -397.2357143163681 415.22493743896484 89.0 1.000 1.000 1.000
v -89.2357143163681 306.22493743896484 81.0 1.000 1.000 1.000
v -397.2357143163681 428.22493743896484 -49.0 1.000 1.000 1.000
v -391.2357143163681 311.22493743896484 -28.0 1.000 1.000 1.000
v -397.2357143163681 428.22493743896484 -49.0 1.000 1.000 1.000
v -391.2357143163681 311.22493743896484 -28.0 1.000 1.000 1.000
v -391.2357143163681 314.22493743896484 85.0 1.000 1.000 1.000
v -397.2357143163681 415.22493743896484 89.0 1.000 1.000 1.000
v -252.86859130859375 185.30655002593994 -84.0 1.000 1.000 1.000
v -150.86859130859375 91.30655002593994 -68.0 1.000 1.000 1.000
v -360.86859130859375 90.30655002593994 -66.0 1.000 1.000 1.000
v -321.86859130859375 336.30655002593994 -96.0 1.000 1.000 1.000
v -356.86859130859375 197.30655002593994 -74.0 1.000 1.000 1.000
v -51.86859130859375 375.30655002593994 26.0 1.000 1.000 1.000
v -226.86859130859375 413.30655002593994 -45.0 1.000 1.000 1.000
v -198.86859130859375 437.30655002593994 0.0 1.000 1.000 1.000
v -161.86859130859375 196.30655002593994 -80.0 1.000 1.000 1.000
v -55.86859130859375 210.30655002593994 -17.0 1.000 1.000 1.000
v -51.86859130859375 353.30655002593994 -49.0 1.000 1.000 1.000
v -288.86859130859375 414.30655002593994 -41.0 1.000 1.000 1.000
v -444.86859130859375 372.30655002593994 27.0 1.000 1.000 1.000
v -304.86859130859375 437.30655002593994 0.0 1.000 1.000 1.000
v -445.86859130859375 354.30655002593994 -50.0 1.000 1.000 1.000
v -444.86859130859375 372.30655002593994 27.0 1.000 1.000 1.000
v -288.86859130859375 414.30655002593994 -41.0 1.000 1.000 1.000
v -170.86859130859375 336.30655002593994 -96.0 1.000 1.000 1.000
v -252.86859130859375 185.30655002593994 -84.0 1.000 1.000 1.000
v -321.86859130859375 336.30655002593994 -96.0 1.000 1.000 1.000
v -226.86859130859375 413.30655002593994 -45.0 1.000 1.000 1.000
v -51.86859130859375 375.30655002593994 26.0 1.000 1.000 1.000
v -51.86859130859375 353.30655002593994 -49.0 1.000 1.000 1.000
v -360.86859130859375 90.30655002593994 -66.0 1.000 1.000 1.000
v -394.86859130859375 86.30655002593994 20.0 1.000 1.000 1.000
v -439.86859130859375 208.30655002593994 -19.0 1.000 1.000 1.000
v -150.86859130859375 91.30655002593994 -68.0 1.000 1.000 1.000
v -55.86859130859375 210.30655002593994 -17.0 1.000 1.000 1.000
v -105.86859130859375 86.30655002593994 21.0 1.000 1.000 1.000
v -161.86859130859375 196.30655002593994 -80.0 1.000 1.000 1.000
v -356.86859130859375 197.30655002593994 -74.0 1.000 1.000 1.000
v -439.86859130859375 208.30655002593994 -19.0 1.000 1.000 1.000
v -445.86859130859375 354.30655002593994 -50.0 1.000 1.000 1.000
v -360.86859130859375 90.30655002593994 -66.0 1.000 1.000 1.000
v -321.86859130859375 336.30655002593994 -96.0 1.000 1.000 1.000
v -51.86859130859375 375.30655002593994 26.0 1.000 1.000 1.000
v -198.86859130859375 437.30655002593994 0.0 1.000 1.000 1.000
v -254.86859130859375 376.30655002593994 70.0 1.000 1.000 1.000
v -445.86859130859375 334.30655002593994 75.0 1.000 1.000 1.000
v -253.86859130859375 236.30655002593994 189.0 1.000 1.000 1.000
v -52.86859130859375 335.30655002593994 75.0 1.000 1.000 1.000
v -93.86859130859375 223.30655002593994 161.0 1.000 1.000 1.000
v -401.86859130859375 223.30655002593994 161.0 1.000 1.000 1.000
v -394.86859130859375 86.30655002593994 20.0 1.000 1.000 1.000
v -323.86859130859375 95.30655002593994 163.0 1.000 1.000 1.000
v -444.86859130859375 372.30655002593994 27.0 1.000 1.000 1.000
v -254.86859130859375 376.30655002593994 70.0 1.000 1.000 1.000
v -304.86859130859375 437.30655002593994 0.0 1.000 1.000 1.000
v -253.86859130859375 236.30655002593994 189.0 1.000 1.000 1.000
v -323.86859130859375 95.30655002593994 163.0 1.000 1.000 1.000
v -180.86859130859375 95.30655002593994 163.0 1.000 1.000 1.000
v -445.86859130859375 334.30655002593994 75.0 1.000 1.000 1.000
v -401.86859130859375 223.30655002593994 161.0 1.000 1.000 1.000
v -439.86859130859375 208.30655002593994 -19.0 1.000 1.000 1.000
v -394.86859130859375 86.30655002593994 20.0 1.000 1.000 1.000
v -440.86859130859375 220.30655002593994 68.0 1.000 1.000 1.000
v -53.86859130859375 220.30655002593994 67.0 1.000 1.000 1.000
v -52.86859130859375 335.30655002593994 75.0 1.000 1.000 1.000
v -93.86859130859375 223.30655002593994 161.0 1.000 1.000 1.000
v -105.86859130859375 86.30655002593994 21.0 1.000 1.000 1.000
v -55.86859130859375 210.30655002593994 -17.0 1.000 1.000 1.000
v -125.0 67.0 20.0 1.000 1.000 1.000
v -88.0 73.0 -59.0 1.000 1.000 1.000
v 95.0 75.0 -62.0 1.000 1.000 1.000
v 131.0 69.0 21.0 1.000 1.000 1.000
v 75.0 63.0 143.0 1.000 1.000 1.000
v -71.0 60.0 140.0 1.000 1.000 1.000
v -125.0 67.0 20.0 1.000 1.000 1.000
v 131.0 69.0 21.0 1.000 1.000 1.000
v -394.86859130859375 86.30655002593994 20.0 1.000 1.000 1.000
v -360.86859130859375 90.30655002593994 -66.0 1.000 1.000 1.000
v -150.86859130859375 91.30655002593994 -68.0 1.000 1.000 1.000
v -105.86859130859375 86.30655002593994 21.0 1.000 1.000 1.000
v -180.86859130859375 95.30655002593994 163.0 1.000 1.000 1.000
v -323.86859130859375 95.30655002593994 163.0 1.000 1.000 1.000
v -105.86859130859375 86.30655002593994 21.0 1.000 1.000 1.000
v -394.86859130859375 86.30655002593994 20.0 1.000 1.000 1.000
v -382.86859130859375 32.30655002593994 -35.0 1.000 1.000 1.000
v -373.86859130859375 37.30655002593994 141.0 1.000 1.000 1.000
v -461.86859130859375 424.30655002593994 -72.0 1.000 1.000 1.000
v -128.86859130859375 33.30655002593994 -37.0 1.000 1.000 1.000
v -42.86859130859375 427.30655002593994 -70.0 1.000 1.000 1.000
v -130.86859130859375 38.30655002593994 141.0 1.000 1.000 1.000
v -441.86859130859375 384.30655002593994 147.0 1.000 1.000 1.000
v -63.86859130859375 387.30655002593994 148.0 1.000 1.000 1.000
v -42.86859130859375 427.30655002593994 -70.0 1.000 1.000 1.000
v -128.86859130859375 33.30655002593994 -37.0 1.000 1.000 1.000
v -382.86859130859375 32.30655002593994 -35.0 1.000 1.000 1.000
v -461.86859130859375 424.30655002593994 -72.0 1.000 1.000 1.000
v -63.86859130859375 387.30655002593994 148.0 1.000 1.000 1.000
v -461.86859130859375 424.30655002593994 -72.0 1.000 1.000 1.000
v -441.86859130859375 384.30655002593994 147.0 1.000 1.000 1.000
v -63.86859130859375 387.30655002593994 148.0 1.000 1.000 1.000
v -373.86859130859375 37.30655002593994 141.0 1.000 1.000 1.000
v -130.86859130859375 38.30655002593994 141.0 1.000 1.000 1.000
v -461.86859130859375 424.30655002593994 -72.0 1.000 1.000 1.000
v -63.86859130859375 387.30655002593994 148.0 1.000 1.000 1.000
v -42.86859130859375 427.30655002593994 -70.0 1.000 1.000 1.000
v -441.86859130859375 384.30655002593994 147.0 1.000 1.000 1.000
v -382.86859130859375 32.30655002593994 -35.0 1.000 1.000 1.000
v -128.86859130859375 33.30655002593994 -37.0 1.000 1.000 1.000
v -373.86859130859375 37.30655002593994 141.0 1.000 1.000 1.000
v -130.86859130859375 38.30655002593994 141.0 1.000 1.000 1.000
v -132.0 19.0 20.0 1.000 1.000 1.000
v -125.0 67.0 20.0 1.000 1.000 1.000
v -91.0 -48.0 -70.0 1.000 1.000 1.000
v -88.0 73.0 -59.0 1.000 1.000 1.000
v -1.0 -94.0 -88.0 1.000 1.000 1.000
v 95.0 75.0 -62.0 1.000 1.000 1.000
v 92.0 -46.0 -73.0 1.000 1.000 1.000
v 143.0 19.0 25.0 1.000 1.000 1.000
v 131.0 69.0 21.0 1.000 1.000 1.000
v -71.0 60.0 140.0 1.000 1.000 1.000
v -63.0 -65.0 133.0 1.000 1.000 1.000
v -2.0 -113.0 143.0 1.000 1.000 1.000
v -132.0 19.0 20.0 1.000 1.000 1.000
v -125.0 67.0 20.0 1.000 1.000 1.000
v 143.0 19.0 25.0 1.000 1.000 1.000
v 131.0 69.0 21.0 1.000 1.000 1.000
v 75.0 63.0 143.0 1.000 1.000 1.000
v 67.0 -61.0 136.0 1.000 1.000 1.000
v -2.0 -113.0 143.0 1.000 1.000 1.000
v -71.0 60.0 140.0 1.000 1.000 1.000
v -155.0 -199.0 132.0 1.000 1.000 1.000
v -129.0 72.0 -35.0 1.000 1.000 1.000
v -191.0 -199.0 -80.0 1.000 1.000 1.000
v -119.0 77.0 141.0 1.000 1.000 1.000
v 188.0 -198.0 -80.0 1.000 1.000 1.000
v 125.0 73.0 -37.0 1.000 1.000 1.000
v 156.0 -198.0 143.0 1.000 1.000 1.000
v 123.0 78.0 141.0 1.000 1.000 1.000
v 188.0 -198.0 -80.0 1.000 1.000 1.000
v 156.0 -198.0 143.0 1.000 1.000 1.000
v -155.0 -199.0 132.0 1.000 1.000 1.000
v -191.0 -199.0 -80.0 1.000 1.000 1.000
v -191.0 -199.0 -80.0 1.000 1.000 1.000
v -129.0 72.0 -35.0 1.000 1.000 1.000
v 125.0 73.0 -37.0 1.000 1.000 1.000
v 188.0 -198.0 -80.0 1.000 1.000 1.000
v -119.0 77.0 141.0 1.000 1.000 1.000
v -155.0 -199.0 132.0 1.000 1.000 1.000
v 156.0 -198.0 143.0 1.000 1.000 1.000
v 123.0 78.0 141.0 1.000 1.000 1.000
v -129.0 72.0 -35.0 1.000 1.000 1.000
v 123.0 78.0 141.0 1.000 1.000 1.000
v 125.0 73.0 -37.0 1.000 1.000 1.000
v -119.0 77.0 141.0 1.000 1.000 1.000
vt 0.0664 0.9570
vt 0.0866 0.9570
vt 0.9395 0.9707
vt 0.9688 0.9707
vt 0.8945 0.8398
vt 0.2982 0.6348
vt 0.1471 0.6318
vt 0.9792 0.8467
vt 0.1055 0.6357
vt 0.3750 0.6377
vt 0.3379 0.8008
vt 0.1396 0.9167
vt 0.6475 0.8105
vt 0.8008 0.9258
vt 0.6768 0.6283
vt 0.4043 0.6237
vt 0.6045 1.0117
vt 0.3213 0.9720
vt 0.6934 0.9635
vt 0.3711 1.0221
vt 0.3408 1.0059
vt 0.5869 1.0130
vt 0.6982 0.9674
vt 0.2217 0.9531
vt 0.3047 0.0098
vt 0.1152 0.0547
vt 0.1569 0.0498
vt 0.4635 0.0127
vt 0.2480 0.0514
vt 0.8086 0.0592
vt 0.5898 0.6426
vt 0.3154 0.6686
vt 0.5889 0.6595
vt 0.8125 0.6471
vt 0.9512 0.9805
vt 0.6123 0.5671
vt 0.1191 0.9609
vt 0.1123 0.5671
vt 0.4902 0.5697
vt 0.2031 0.9805
vt 0.9326 0.5690
vt 0.9395 0.9759
vt 0.1533 0.3874
vt 0.1865 0.5475
vt 0.3359 0.5495
vt 0.3887 0.6374
vt 0.4893 0.3574
vt 0.5127 0.6426
vt 0.4922 0.0944
vt 0.3896 0.1309
vt 0.2236 0.1868
vt 0.1094 0.3581
vt 0.7168 0.3646
vt 0.9463 0.1973
vt 0.8262 0.1973
vt 0.7402 0.1986
vt 0.8857 0.4173
vt 0.7256 0.2637
vt 0.4453 0.3216
vt 0.5098 0.2031
vt 0.9121 0.4141
vt 0.1777 0.5677
vt 0.1523 0.8073
vt 0.8828 0.7324
vt 0.7627 0.7845
vt 0.9619 0.9577
vt 0.8428 0.6875
vt 0.8936 0.9590
vt 0.7031 0.9622
vt 0.5752 0.8522
vt 0.5850 0.9642
vt 0.4795 0.8613
vt 0.3398 0.7930
vt 0.4766 0.9434
vt 0.2031 0.9401
vt 0.1836 0.6764
vt 0.0811 0.9395
vt 0.9258 0.1784
vt 0.7188 0.1777
vt 0.5713 0.1777
vt 0.1406 0.1797
vt 0.8757 0.9727
vt 0.0807 0.9424
vt 0.0592 0.9424
vt 0.9069 0.9746
vt 0.2852 0.6318
vt 0.8385 0.8428
vt 0.9180 0.8525
vt 0.1458 0.6211
vt 0.1048 0.6240
vt 0.3587 0.6309
vt 1.8779 0.8158
vt 1.0635 0.9238
vt 1.4121 0.8066
vt 2.1279 0.9297
vt 1.4990 0.6315
vt 1.9355 0.6309
vt 0.5742 0.9622
vt 0.7070 0.9017
vt 0.7178 0.8971
vt 0.6133 0.9642
vt 0.3721 0.9388
vt 0.3975 0.8984
vt 0.2070 0.8724
vt 0.3623 0.9421
vt 0.1296 0.0479
vt 0.3079 0.0068
vt 0.1569 0.3320
vt 0.1510 0.4766
vt 0.1686 0.0439
vt 1.2959 0.0514
vt 1.6152 0.3411
vt 1.5576 0.4863
vt 0.5967 0.5306
vt 0.3027 0.5540
vt 0.5801 0.5501
vt 0.8232 0.5410
vt 0.3652 0.9382
vt 0.7158 0.4694
vt 1.0273 0.9609
vt 0.4346 0.9622
vt 0.6191 0.4720
vt 0.3203 0.4694
vt 0.9697 0.4707
vt 1.0176 0.9564
vt 0.7979 0.2135
vt 0.8652 0.4167
vt 0.9043 0.3913
vt 0.6211 0.1517
vt 0.5195 0.3587
vt 0.6924 0.5658
vt 0.6758 0.6504
vt 0.8701 0.5762
vt 0.8242 0.0319
vt 0.9717 0.0319
vt 0.7275 0.2168
vt 0.8936 0.2812
vt 0.7451 0.0306
vt 0.6543 0.1068
vt 0.4482 0.1634
vt 0.5020 0.0306
vt 0.3682 0.7891
vt 0.2432 0.9701
vt 0.4297 0.9674
vt 0.2490 0.6999
vt 0.2061 0.9727
vt 0.8145 0.6849
vt 0.6387 0.7917
vt 0.7822 0.9466
vt 0.8848 0.9505
vt 0.7598 0.0052
vt 0.9238 0.0059
vt 0.6436 0.0052
vt 0.3027 0.0078
vt 0.4775 0.6240
vt 0.4229 0.9766
vt 0.0723 1.1152
vt 0.6621 1.1738
vt 0.8721 0.9414
vt 0.6748 0.8203
vt 0.8262 1.1133
vt 0.1094 1.1777
vt 0.2080 0.8242
vt 0.9189 0.7354
vt 0.8994 0.1221
vt -0.0332 0.8135
vt 0.1758 -0.0244
vt 0.1973 1.0205
vt 0.6904 0.8721
vt 0.0771 0.4404
vt 0.6436 0.1553
vt 0.0537 0.5254
vt 0.7158 0.1777
vt 0.3145 0.9580
vt 0.7314 0.8975
vt 0.7021 0.0244
vt 0.9932 0.9492
vt 0.2070 0.1699
vt 0.1465 0.9062
vt 0.0361 0.1963
vt 0.3301 1.2891
vt 0.9785 0.2402
vt 0.8975 1.1865
vt 0.1426 0.9889
vt 0.4482 0.6719
vt 0.1230 0.6621
vt 0.1113 0.6628
vt 0.1689 0.9889
vt 0.4043 0.6641
vt 0.6270 0.6615
vt 0.4062 0.9909
vt 0.3408 0.9922
vt 0.5967 0.5384
vt 0.4502 0.5404
vt 0.2256 0.5397
vt 0.2559 0.5384
vt 0.5830 0.5384
vt 0.1123 0.8854
vt 0.3008 0.5065
vt 0.1387 0.4948
vt 1.1387 0.4948
vt 0.9424 0.4948
vt 0.9150 0.8854
vt 0.6377 0.5072
vt 0.3027 0.8913
vt 0.7617 0.8900
vt 1.1123 0.8854
vt 0.2119 0.9792
vt 1.0000 1.0000
vt 0.9668 0.2396
vt 0.0830 0.3542
vt 0.2910 0.2884
vt 0.2676 0.3040
vt 0.3115 0.4173
vt 0.5215 0.4069
vt 0.5723 0.1569
vt 0.5518 0.1335
vt 0.7158 0.0749
vt 0.5723 0.2917
vt 0.2568 0.4049
vt 0.7842 0.3047
vt 0.2607 0.2852
vt 0.2432 0.3027
vt 0.3506 0.0579
vt 0.3652 0.0208
vt 0.3359 0.0898
vt 1.1182 0.0365
vt 0.9150 0.0234
vt 0.3281 0.1517
vt 0.1182 0.0365
vt 0.5918 0.1458
vt 0.0000 1.0000
vt 0.9639 0.0534
vt 0.0840 0.2064
vt 0.9521 0.8887
vt 0.1543 0.0752
vt 0.0273 0.8330
vt 0.8926 -0.1387
vt 0.1309 0.3779
vt 0.8135 0.9062
vt 0.2402 0.9873
vt 0.7725 0.1865
vt 0.2266 0.8887
vt 0.8076 0.1104
vt 0.0566 0.4482
vt 0.6484 0.8301
vt 0.1748 0.1943
vt 0.9766 0.9775
vt 0.6943 0.0850
vt 0.0986 0.8945
vt 0.9766 0.2373
vt 0.2539 1.0918
vt 0.0596 0.2559
vt 0.8174 0.9775
vt 0.2314 0.6543
vt 0.5615 0.6660
vt 0.3105 0.9850
vt 0.3447 0.9850
vt 0.2168 0.6549
vt 0.5059 0.6576
vt 0.6436 0.9909
vt 0.7754 0.6569
vt 0.5576 0.9902
vt 0.6943 0.5319
vt 0.5156 0.5332
vt 0.2412 0.5306
vt 0.2783 0.5299
vt 0.6777 0.5319
vt 0.1611 0.4876
vt 0.3281 0.4792
vt 0.1670 0.0697
vt 0.8457 0.0697
vt 0.9258 0.4883
vt 1.1611 0.4876
vt 0.3711 0.0658
vt 0.6084 0.4792
vt 0.6377 0.0664
vt 1.1670 0.0697
vt 1.0000 0.0000
vt -0.1572 -0.2227
vt 0.2969 0.4082
vt 0.2031 0.2962
vt 0.2246 0.2799
vt 0.5195 0.1491
vt 0.5488 0.3991
vt 0.5684 0.2832
vt 0.6641 0.0671
vt 0.4863 0.1257
vt 0.2246 0.3958
vt 0.8311 0.2982
vt 0.1680 0.2773
vt 0.1592 0.2982
vt 0.2139 0.0462
vt 0.2100 0.0150
vt 0.2119 0.0814
vt 1.3486 0.8600
vt 1.1299 0.9792
vt 0.9043 0.9935
vt 0.5762 0.8665
vt 0.3486 0.8600
vt 0.1299 0.9792
vt 0.1357 -0.1921
vt 0.5254 0.4043
vt 0.3174 0.5404
vt 0.7715 0.5332
vt 0.6533 0.1888
vt 0.7490 0.3815
vt 0.0498 0.1628
vt 0.4365 0.1159
vt 0.3750 0.0898
vt 0.3271 0.3913
vt 0.0957 0.3770
vt 0.0664 0.1751
vt 0.5742 0.1133
vt 0.9180 0.1589
vt 0.6084 0.0872
vt 0.9189 0.1582
vt 0.9131 0.1328
vt 0.5713 0.0794
vt 0.3271 0.1940
vt 0.4355 0.0833
vt 0.0625 0.1445
vt 0.8457 0.5365
vt 0.9258 0.3639
vt 0.2217 0.5495
vt 0.9629 0.1445
vt 0.6260 0.0560
vt 0.4951 0.1380
vt 0.0547 0.1901
vt 0.4941 0.3288
vt 0.9600 0.1999
vt 0.8613 0.3509
vt 0.1543 0.3431
vt 0.1670 0.5299
vt 0.3311 0.5202
vt 0.0596 0.1374
vt 0.3818 0.0527
vt 0.6592 0.5234
vt 0.0674 0.3626
vt 0.0645 0.3457
vt 0.9551 0.3561
vt 0.8311 0.5384
vt 0.9492 0.3704
vt 0.8223 0.6211
vt 0.7422 0.6133
vt 0.3447 0.6191
vt 0.2666 0.6276
vt 0.6611 0.6224
vt 0.3252 0.6224
vt 0.2012 0.6120
vt 0.7891 0.6152
vt 0.0420 0.5495
vt 1.1006 0.5456
vt 0.0586 0.0156
vt 0.9951 0.5443
vt -0.0195 0.5384
vt 0.6377 0.0482
vt 0.4492 0.0286
vt 0.0381 0.0423
vt 0.0898 0.5221
vt 0.8350 0.5130
vt 0.8262 0.0345
vt 0.9854 0.0677
vt 0.1006 0.0397
vt 0.0996 0.0677
vt 0.9375 0.1016
vt 0.0996 0.5410
vt 0.9238 0.5345
vt 0.9854 0.0417
vt 0.1123 0.1126
vt 0.1025 0.5365
vt 0.9375 0.5397
vt 0.1328 0.5293
vt 0.9297 0.5339
vt 0.8174 0.6211
vt 0.7383 0.6133
vt 0.3408 0.6191
vt 0.2627 0.6276
vt 0.7930 0.6152
vt -0.0518 0.1849
vt 0.9092 0.9134
vt 0.0527 0.9245
vt 0.0830 0.9590
vt 0.8984 0.9525
vn -0.577 -0.577 -0.577
vn -0.577 -0.577 -0.577
vn -0.577 -0.577 -0.577
vn -0.577 -0.577 -0.577
vn -0.577 -0.577 -0.577
vn -0.577 -0.577 -0.577
vn -0.577 -0.577 -0.577
vn -0.577 -0.577 -0.577
vn -0.577 -0.577 -0.577
vn -0.577 -0.577 -0.577
vn -0.577 -0.577 -0.577
vn -0.577 -0.577 -0.577
vn -0.577 -0.577 -0.577
vn -0.577 -0.577 -0.577
vn -0.577 -0.577 -0.577
vn -0.577 -0.577 -0.577
vn 0.577 0.577 0.577
vn 0.577 0.577 0.577
vn 0.577 0.577 0.577
vn 0.577 0.577 0.577
vn 0.577 0.577 0.577
vn 0.577 0.577 0.577
vn 0.577 0.577 0.577
vn 0.577 0.577 0.577
vn 0.577 0.577 0.577
vn 0.577 0.577 0.577
vn 0.577 0.577 0.577
vn 0.577 0.577 0.577
vn 0.577 0.577 0.577
vn 0.577 0.577 0.577
vn -0.577 -0.577 -0.577
vn -0.577 -0.577 -0.577
vn -0.577 -0.577 -0.577
vn -0.577 -0.577 -0.577
vn -0.577 -0.577 -0.577
vn -0.577 -0.577 -0.577
vn -0.577 -0.577 -0.577
vn -0.577 -0.577 -0.577
vn -0.577 -0.577 -0.577
vn -0.577 -0.577 -0.577
vn 0.577 0.577 0.577
vn 0.577 0.577 0.577
vn 0.577 0.577 0.577
vn 0.577 0.577 0.577
vn -0.577 -0.577 -0.577
vn -0.577 -0.577 -0.577
vn -0.577 -0.577 -0.577
vn 0.577 0.577 0.577
vn -0.577 -0.577 -0.577
vn -0.577 -0.577 -0.577
vn -0.577 -0.577 -0.577
vn -0.577 -0.577 -0.577
vn -0.577 -0.577 -0.577
vn -0.577 -0.577 -0.577
vn 0.577 0.577 0.577
vn -0.577 -0.577 -0.577
vn -0.577 -0.577 -0.577
vn 0.577 0.577 0.577
vn -0.577 -0.577 -0.577
vn 0.577 0.577 0.577
vn 0.577 0.577 0.577
vn -0.577 -0.577 -0.577
vn -0.577 -0.577 -0.577
vn 0.577 0.577 0.577
vn -0.577 -0.577 -0.577
vn -0.577 -0.577 -0.577
vn -0.577 -0.577 -0.577
vn -0.577 -0.577 -0.577
vn -0.577 -0.577 -0.577
vn 0.577 0.577 0.577
vn 0.577 0.577 0.577
vn 0.577 0.577 0.577
vn -0.577 -0.577 -0.577
vn -0.577 -0.577 -0.577
vn -0.577 -0.577 -0.577
vn -0.577 -0.577 -0.577
vn -0.577 -0.577 -0.577
vn -0.577 -0.577 -0.577
vn -0.577 -0.577 -0.577
vn -0.577 -0.577 -0.577
vn -0.577 -0.577 -0.577
vn -0.577 -0.577 -0.577
vn -0.577 -0.577 -0.577
vn -0.577 -0.577 -0.577
vn 0.577 0.577 0.577
vn 0.577 0.577 0.577
vn 0.577 0.577 0.577
vn -0.577 -0.577 -0.577
vn 0.577 0.577 0.577
vn 0.577 0.577 0.577
vn 0.577 0.577 0.577
vn -0.577 -0.577 -0.577
vn -0.577 -0.577 -0.577
vn -0.577 -0.577 -0.577
vn -0.577 -0.577 -0.577
vn 0.577 0.577 0.577
vn 0.577 0.577 0.577
vn 0.577 0.577 0.577
vn -0.577 -0.577 -0.577
vn -0.577 -0.577 -0.577
vn -0.577 -0.577 -0.577
vn -0.577 -0.577 -0.577
vn -0.577 -0.577 -0.577
vn -0.577 -0.577 -0.577
vn -0.577 -0.577 -0.577
vn -0.577 -0.577 -0.577
vn -0.577 -0.577 -0.577
vn -0.577 -0.577 -0.577
vn -0.577 -0.577 -0.577
vn -0.577 -0.577 -0.577
vn 0.577 0.577 0.577
vn 0.577 0.577 0.577
vn -0.577 -0.577 -0.577
vn -0.577 -0.577 -0.577
vn -0.577 -0.577 -0.577
vn -0.577 -0.577 -0.577
vn -0.577 -0.577 -0.577
vn -0.577 -0.577 -0.577
vn -0.577 -0.577 -0.577
vn -0.577 -0.577 -0.577
vn -0.577 -0.577 -0.577
vn -0.577 -0.577 -0.577
vn -0.577 -0.577 -0.577
vn -0.577 -0.577 -0.577
vn -0.577 -0.577 -0.577
vn -0.577 -0.577 -0.577
vn -0.577 -0.577 -0.577
vn -0.577 -0.577 -0.577
vn -0.577 -0.577 -0.577
vn -0.577 -0.577 -0.577
vn -0.577 -0.577 -0.577
vn -0.577 -0.577 -0.577
vn -0.577 -0.577 -0.577
vn -0.577 -0.577 -0.577
vn 0.577 0.577 0.577
vn 0.577 0.577 0.577
vn 0.577 0.577 0.577
vn 0.577 0.577 0.577
vn 0.577 0.577 0.577
vn 0.577 0.577 0.577
vn 0.577 0.577 0.577
vn 0.577 0.577 0.577
vn 0.577 0.577 0.577
vn 0.577 0.577 0.577
vn 0.577 0.577 0.577
vn 0.577 0.577 0.577
vn 0.577 0.577 0.577
vn 0.577 0.577 0.577
vn -0.577 -0.577 -0.577
vn -0.577 -0.577 -0.577
vn -0.577 -0.577 -0.577
vn -0.577 -0.577 -0.577
vn -0.577 -0.577 -0.577
vn -0.577 -0.577 -0.577
vn -0.577 -0.577 -0.577
vn -0.577 -0.577 -0.577
vn -0.577 -0.577 -0.577
vn -0.577 -0.577 -0.577
vn -0.577 -0.577 -0.577
vn 0.577 0.577 0.577
vn 0.577 0.577 0.577
vn 0.577 0.577 0.577
vn 0.577 0.577 0.577
vn -0.577 -0.577 -0.577
vn -0.577 -0.577 -0.577
vn -0.577 -0.577 -0.577
vn -0.577 -0.577 -0.577
vn -0.577 -0.577 -0.577
vn 0.577 0.577 0.577
vn -0.577 -0.577 -0.577
vn -0.577 -0.577 -0.577
vn -0.577 -0.577 -0.577
vn -0.577 -0.577 -0.577
vn 0.577 0.577 0.577
vn 0.577 0.577 0.577
vn 0.577 0.577 0.577
vn 0.577 0.577 0.577
vn 0.577 0.577 0.577
vn -0.577 -0.577 -0.577
vn 0.577 0.577 0.577
vn 0.577 0.577 0.577
vn 0.577 0.577 0.577
vn 0.577 0.577 0.577
vn 0.577 0.577 0.577
vn -0.577 -0.577 -0.577
vn -0.577 -0.577 -0.577
vn -0.577 -0.577 -0.577
vn 0.577 0.577 0.577
vn 0.577 0.577 0.577
vn 0.577 0.577 0.577
vn -0.577 -0.577 -0.577
vn 0.577 0.577 0.577
vn 0.577 0.577 0.577
vn 0.577 0.577 0.577
vn 0.577 0.577 0.577
vn -0.577 -0.577 -0.577
vn -0.577 -0.577 -0.577
vn -0.577 -0.577 -0.577
vn -0.577 -0.577 -0.577
vn -0.577 -0.577 -0.577
vn -0.577 -0.577 -0.577
vn -0.577 -0.577 -0.577
vn -0.577 -0.577 -0.577
vn -0.577 -0.577 -0.577
vn 0.577 0.577 0.577
vn 0.577 0.577 0.577
vn 0.577 0.577 0.577
vn 0.577 0.577 0.577
vn 0.577 0.577 0.577
vn 0.577 0.577 0.577
vn 0.577 0.577 0.577
vn 0.577 0.577 0.577
vn -0.577 -0.577 -0.577
vn -0.577 -0.577 -0.577
vn 0.577 0.577 0.577
vn 0.577 0.577 0.577
vn 0.577 0.577 0.577
vn 0.577 0.577 0.577
vn -0.577 -0.577 -0.577
vn -0.577 -0.577 -0.577
vn -0.577 -0.577 -0.577
vn -0.577 -0.577 -0.577
vn -0.577 -0.577 -0.577
vn -0.577 -0.577 -0.577
vn -0.577 -0.577 -0.577
vn -0.577 -0.577 -0.577
vn -0.577 -0.577 -0.577
vn -0.577 -0.577 -0.577
vn -0.577 -0.577 -0.577
vn 0.577 0.577 0.577
vn 0.577 0.577 0.577
vn -0.577 -0.577 -0.577
vn -0.577 -0.577 -0.577
vn -0.577 -0.577 -0.577
vn -0.577 -0.577 -0.577
vn -0.577 -0.577 -0.577
vn -0.577 -0.577 -0.577
vn -0.577 -0.577 -0.577
vn -0.577 -0.577 -0.577
vn -0.577 -0.577 -0.577
vn -0.577 -0.577 -0.577
vn -0.577 -0.577 -0.577
vn -0.577 -0.577 -0.577
vn -0.577 -0.577 -0.577
vn -0.577 -0.577 -0.577
vn -0.577 -0.577 -0.577
vn -0.577 -0.577 -0.577
vn -0.577 -0.577 -0.577
vn -0.577 -0.577 -0.577
vn -0.577 -0.577 -0.577
vn -0.577 -0.577 -0.577
vn -0.577 -0.577 -0.577
vn 0.577 0.577 0.577
vn 0.577 0.577 0.577
vn -0.577 -0.577 -0.577
vn -0.577 -0.577 -0.577
vn -0.577 -0.577 -0.577
vn -0.577 -0.577 -0.577
vn 0.577 0.577 0.577
vn 0.577 0.577 0.577
vn 0.577 0.577 0.577
vn -0.577 -0.577 -0.577
vn 0.577 0.577 0.577
vn -0.577 -0.577 -0.577
vn -0.577 -0.577 -0.577
vn 0.577 0.577 0.577
vn -0.577 -0.577 -0.577
vn 0.577 0.577 0.577
vn -0.577 -0.577 -0.577
vn -0.577 -0.577 -0.577
vn -0.577 -0.577 -0.577
vn -0.577 -0.577 -0.577
vn -0.577 -0.577 -0.577
vn 0.577 0.577 0.577
vn 0.577 0.577 0.577
vn 0.577 0.577 0.577
vn 0.577 0.577 0.577
vn -0.577 -0.577 -0.577
vn -0.577 -0.577 -0.577
vn -0.577 -0.577 -0.577
vn -0.577 -0.577 -0.577
vn -0.577 -0.577 -0.577
vn -0.577 -0.577 -0.577
vn -0.577 -0.577 -0.577
vn -0.577 -0.577 -0.577
vn -0.577 -0.577 -0.577
vn -0.577 -0.577 -0.577
vn 0.577 0.577 0.577
vn -0.577 -0.577 -0.577
vn -0.577 -0.577 -0.577
vn -0.577 -0.577 -0.577
vn -0.577 -0.577 -0.577
vn 0.577 0.577 0.577
vn 0.577 0.577 0.577
vn 0.577 0.577 0.577
vn 0.577 0.577 0.577
vn 0.577 0.577 0.577
vn -0.577 -0.577 -0.577
vn -0.577 -0.577 -0.577
vn 0.577 0.577 0.577
vn -0.577 -0.577 -0.577
vn -0.577 -0.577 -0.577
vn -0.577 -0.577 -0.577
vn -0.577 -0.577 -0.577
vn -0.577 -0.577 -0.577
vn -0.577 -0.577 -0.577
vn -0.577 -0.577 -0.577
vn -0.577 -0.577 -0.577
vn -0.577 -0.577 -0.577
vn -0.577 -0.577 -0.577
vn -0.577 -0.577 -0.577
vn -0.577 -0.577 -0.577
vn -0.577 -0.577 -0.577
vn -0.577 -0.577 -0.577
vn -0.577 -0.577 -0.577
vn -0.577 -0.577 -0.577
vn -0.577 -0.577 -0.577
vn -0.577 -0.577 -0.577
vn -0.577 -0.577 -0.577
vn -0.577 -0.577 -0.577
vn -0.577 -0.577 -0.577
vn -0.577 -0.577 -0.577
vn -0.577 -0.577 -0.577
vn -0.577 -0.577 -0.577
vn -0.577 -0.577 -0.577
vn -0.577 -0.577 -0.577
vn -0.577 -0.577 -0.577
vn -0.577 -0.577 -0.577
vn -0.577 -0.577 -0.577
vn -0.577 -0.577 -0.577
vn -0.577 -0.577 -0.577
vn -0.577 -0.577 -0.577
vn 0.577 0.577 0.577
vn -0.577 -0.577 -0.577
vn -0.577 -0.577 -0.577
vn -0.577 -0.577 -0.577
vn -0.577 -0.577 -0.577
vn -0.577 -0.577 -0.577
vn 0.577 0.577 0.577
vn 0.577 0.577 0.577
vn -0.577 -0.577 -0.577
vn -0.577 -0.577 -0.577
vn 0.577 0.577 0.577
vn -0.577 -0.577 -0.577
vn -0.577 -0.577 -0.577
vn -0.577 -0.577 -0.577
vn -0.577 -0.577 -0.577
vn -0.577 -0.577 -0.577
vn -0.577 -0.577 -0.577
vn -0.577 -0.577 -0.577
vn 0.577 0.577 0.577
vn 0.577 0.577 0.577
vn -0.577 -0.577 -0.577
vn 0.577 0.577 0.577
vn -0.577 -0.577 -0.577
vn -0.577 -0.577 -0.577
vn 0.577 0.577 0.577
vn 0.577 0.577 0.577
vn -0.577 -0.577 -0.577
vn 0.577 0.577 0.577
vn -0.577 -0.577 -0.577
vn -0.577 -0.577 -0.577
vn 0.577 0.577 0.577
vn -0.577 -0.577 -0.577
vn 0.577 0.577 0.577
vn -0.577 -0.577 -0.577
vn -0.577 -0.577 -0.577
vn -0.577 -0.577 -0.577
vn -0.577 -0.577 -0.577
vn -0.577 -0.577 -0.577
vn 0.577 0.577 0.577
vn 0.577 0.577 0.577
vn 0.577 0.577 0.577
vn 0.577 0.577 0.577
vn -0.577 -0.577 -0.577
vn -0.577 -0.577 -0.577
vn -0.577 -0.577 -0.577
vn -0.577 -0.577 -0.577
vn -0.577 -0.577 -0.577
vn -0.577 -0.577 -0.577
vn -0.577 -0.577 -0.577
vn -0.577 -0.577 -0.577
vn -0.577 -0.577 -0.577
vn -0.577 -0.577 -0.577
vn -0.577 -0.577 -0.577
vn -0.577 -0.577 -0.577
vn 0.577 0.577 0.577
vn 0.577 0.577 0.577
vn -0.577 -0.577 -0.577
vn -0.577 -0.577 -0.577
vn 0.577 0.577 0.577
vn 0.577 0.577 0.577
vn 0.577 0.577 0.577
vn 0.577 0.577 0.577
vn -0.577 -0.577 -0.577
vn -0.577 -0.577 -0.577
vn -0.577 -0.577 -0.577
vn 0.577 0.577 0.577
vn -0.577 -0.577 -0.577
vn -0.577 -0.577 -0.577
vn -0.577 -0.577 -0.577
vn -0.577 -0.577 -0.577
vn -0.577 -0.577 -0.577
vn -0.577 -0.577 -0.577
vn -0.577 -0.577 -0.577
vn -0.577 -0.577 -0.577
vn -0.577 -0.577 -0.577
vn -0.577 -0.577 -0.577
vn -0.577 -0.577 -0.577
vn -0.577 -0.577 -0.577
vn -0.577 -0.577 -0.577
vn -0.577 -0.577 -0.577
vn -0.577 -0.577 -0.577
vn -0.577 -0.577 -0.577
vn -0.577 -0.577 -0.577
vn -0.577 -0.577 -0.577
vn -0.577 -0.577 -0.577
vn -0.577 -0.577 -0.577
vn -0.577 -0.577 -0.577
vn -0.577 -0.577 -0.577
vn -0.577 -0.577 -0.577
vn -0.577 -0.577 -0.577
vn -0.577 -0.577 -0.577
vn -0.577 -0.577 -0.577
vn -0.577 -0.577 -0.577
vn -0.577 -0.577 -0.577
vn -0.577 -0.577 -0.577
vn -0.577 -0.577 -0.577
vn -0.577 -0.577 -0.577
vn -0.577 -0.577 -0.577
vn 0.577 0.577 0.577
vn 0.577 0.577 0.577
vn -0.577 -0.577 -0.577
vn -0.577 -0.577 -0.577
vn -0.577 -0.577 -0.577
vn -0.577 -0.577 -0.577
vn -0.577 -0.577 -0.577
vn 0.577 0.577 0.577
vn -0.577 -0.577 -0.577
vn 0.577 0.577 0.577
vn -0.577 -0.577 -0.577
vn -0.577 -0.577 -0.577
vn -0.577 -0.577 -0.577
vn -0.577 -0.577 -0.577
vn -0.577 -0.577 -0.577
vn -0.577 -0.577 -0.577
vn -0.577 -0.577 -0.577
vn -0.577 -0.577 -0.577
vn -0.577 -0.577 -0.577
vn -0.577 -0.577 -0.577
vn -0.577 -0.577 -0.577
vn -0.577 -0.577 -0.577
vn -0.577 -0.577 -0.577
vn -0.577 -0.577 -0.577
vn -0.577 -0.577 -0.577
vn -0.577 -0.577 -0.577
vn -0.577 -0.577 -0.577
vn -0.577 -0.577 -0.577
vn -0.577 -0.577 -0.577
vn -0.577 -0.577 -0.577
vn -0.577 -0.577 -0.577
vn -0.577 -0.577 -0.577
vn -0.577 -0.577 -0.577
vn -0.577 -0.577 -0.577
vn -0.577 -0.577 -0.577
vn -0.577 -0.577 -0.577
vn -0.577 -0.577 -0.577
vn -0.577 -0.577 -0.577
vn -0.577 -0.577 -0.577
vn -0.577 -0.577 -0.577
vn -0.577 -0.577 -0.577
vn -0.577 -0.577 -0.577
vn -0.577 -0.577 -0.577
vn -0.577 -0.577 -0.577
vn -0.577 -0.577 -0.577
vn -0.577 -0.577 -0.577
vn -0.577 -0.577 -0.577
vn -0.577 -0.577 -0.577
vn -0.577 -0.577 -0.577
vn -0.577 -0.577 -0.577
vn -0.577 -0.577 -0.577
vn -0.577 -0.577 -0.577
vn -0.577 -0.577 -0.577
vn -0.577 -0.577 -0.577
vn -0.577 -0.577 -0.577
vn -0.577 -0.577 -0.577
vn -0.577 -0.577 -0.577
vn -0.577 -0.577 -0.577
vn -0.577 -0.577 -0.577
vn -0.577 -0.577 -0.577
vn -0.577 -0.577 -0.577
vn -0.577 -0.577 -0.577
vn -0.577 -0.577 -0.577
vn -0.577 -0.577 -0.577
vn -0.577 -0.577 -0.577
vn -0.577 -0.577 -0.577
vn -0.577 -0.577 -0.577
vn -0.577 -0.577 -0.577
vn -0.577 -0.577 -0.577
vn -0.577 -0.577 -0.577
vn -0.577 -0.577 -0.577
vn -0.577 -0.577 -0.577
vn -0.577 -0.577 -0.577
vn -0.577 -0.577 -0.577
vn -0.577 -0.577 -0.577
vn -0.577 -0.577 -0.577
vn -0.577 -0.577 -0.577
vn -0.577 -0.577 -0.577
vn -0.577 -0.577 -0.577
vn -0.577 -0.577 -0.577
vn -0.577 -0.577 -0.577
vn -0.577 -0.577 -0.577
vn -0.577 -0.577 -0.577
vn -0.577 -0.577 -0.577
vn -0.577 -0.577 -0.577
vn -0.577 -0.577 -0.577
vn -0.577 -0.577 -0.577
vn -0.577 -0.577 -0.577
vn -0.577 -0.577 -0.577
vn -0.577 -0.577 -0.577
vn -0.577 -0.577 -0.577
vn -0.577 -0.577 -0.577
vn -0.577 -0.577 -0.577
vn -0.577 -0.577 -0.577
vn -0.577 -0.577 -0.577
vn -0.577 -0.577 -0.577
vn -0.577 -0.577 -0.577
vn -0.577 -0.577 -0.577
vn -0.577 -0.577 -0.577
vn -0.577 -0.577 -0.577
vn -0.577 -0.577 -0.577
vn -0.577 -0.577 -0.577
vn -0.577 -0.577 -0.577
vn -0.577 -0.577 -0.577
vn -0.577 -0.577 -0.577
vn -0.577 -0.577 -0.577
vn -0.577 -0.577 -0.577
vn -0.577 -0.577 -0.577
vn -0.577 -0.577 -0.577
vn -0.577 -0.577 -0.577
vn -0.577 -0.577 -0.577
vn -0.577 -0.577 -0.577
vn -0.577 -0.577 -0.577
vn -0.577 -0.577 -0.577
vn -0.577 -0.577 -0.577
vn -0.577 -0.577 -0.577
vn -0.577 -0.577 -0.577
vn -0.577 -0.577 -0.577
vn -0.577 -0.577 -0.577
vn -0.577 -0.577 -0.577
vn -0.577 -0.577 -0.577
vn -0.577 -0.577 -0.577
vn -0.577 -0.577 -0.577
vn -0.577 -0.577 -0.577
vn -0.577 -0.577 -0.577
vn -0.577 -0.577 -0.577
vn -0.577 -0.577 -0.577
vn -0.577 -0.577 -0.577
vn -0.577 -0.577 -0.577
vn -0.577 -0.577 -0.577
vn -0.577 -0.577 -0.577
vn -0.577 -0.577 -0.577
vn -0.577 -0.577 -0.577
vn -0.577 -0.577 -0.577
vn -0.577 -0.577 -0.577
vn -0.577 -0.577 -0.577
vn -0.577 -0.577 -0.577
vn -0.577 -0.577 -0.577
vn -0.577 -0.577 -0.577
vn -0.577 -0.577 -0.577
vn -0.577 -0.577 -0.577
vn -0.577 -0.577 -0.577
vn -0.577 -0.577 -0.577
vn -0.577 -0.577 -0.577
vn -0.577 -0.577 -0.577
vn -0.577 -0.577 -0.577
vn -0.577 -0.577 -0.577
vn -0.577 -0.577 -0.577
vn -0.577 -0.577 -0.577
vn -0.577 -0.577 -0.577
vn -0.577 -0.577 -0.577
vn -0.577 -0.577 -0.577
vn -0.577 -0.577 -0.577
vn -0.577 -0.577 -0.577
vn -0.577 -0.577 -0.577
vn -0.577 -0.577 -0.577
vn -0.577 -0.577 -0.577
vn -0.577 -0.577 -0.577
vn -0.577 -0.577 -0.577
vn -0.577 -0.577 -0.577
usemtl tex_1785_lit_w10
f 1/1/1 2/2/2 3/3/3
f 3/3/3 2/2/2 4/4/4
f 3/3/3 5/5/5 6/6/6
f 7/7/7 8/8/8 4/4/4
f 1/1/1 9/9/9 7/7/7
f 2/2/2 1/1/1 7/7/7
f 7/7/7 10/10/10 8/8/8
f 1/1/1 6/6/6 9/9/9
f 3/3/3 6/6/6 1/1/1
f 7/7/7 4/4/4 2/2/2
usemtl tex_1786_lit_w01
f 11/11/11 12/12/12 13/13/13
f 13/13/13 12/12/12 14/14/14
f 13/13/13 15/15/15 16/16/16
f 11/11/11 13/13/13 16/16/16
usemtl tex_1681_lit_w11
f 17/17/17 18/18/18 19/19/19
f 17/17/17 20/20/20 18/18/18
f 20/20/20 21/21/21 18/18/18
f 22/22/22 23/23/23 24/24/24
f 21/21/21 22/22/22 24/24/24
f 23/23/23 22/22/22 19/19/19
f 18/18/18 21/21/21 24/24/24
f 22/22/22 17/17/17 19/19/19
usemtl tex_1785_lit_w10
f 25/25/25 26/26/26 31/9/31
f 25/25/25 31/9/31 32/6/32
f 27/27/27 28/28/28 33/7/33
f 26/26/26 27/27/27 31/9/31
f 27/27/27 33/7/33 31/9/31
f 28/28/28 34/10/34 33/7/33
usemtl tex_1786_lit_w01
f 29/29/29 35/16/35 36/15/36
f 30/30/30 29/29/29 36/15/36
usemtl tex_1681_lit_w11
f 41/23/41 37/31/37 42/24/42
f 38/32/38 39/33/39 43/18/43
f 41/23/41 40/34/40 37/31/37
f 42/24/42 37/31/37 38/32/38
f 43/18/43 39/33/39 44/19/44
f 44/19/44 39/33/39 40/34/40
f 44/19/44 40/34/40 41/23/41
f 42/24/42 38/32/38 43/18/43
f 45/35/45 46/36/46 47/37/47
f 48/38/48 49/39/49 50/40/50
f 45/35/45 51/41/51 46/36/46
f 47/37/47 46/36/46 48/38/48
f 50/40/50 49/39/49 52/42/52
f 52/42/52 49/39/49 51/41/51
f 52/42/52 51/41/51 45/35/45
f 47/37/47 48/38/48 50/40/50
f 50/40/50 52/42/52 45/35/45
f 50/40/50 45/35/45 47/37/47
f 49/39/49 48/38/48 53/36/53
f 49/39/49 53/36/53 54/41/54
f 55/43/55 56/44/56 57/45/57
f 57/45/57 56/44/56 58/46/58
f 57/45/57 58/46/58 59/47/59
f 59/47/59 58/46/58 60/48/60
f 59/47/59 60/48/60 61/49/61
f 62/50/62 60/48/60 61/49/61
f 63/51/63 62/50/62 61/49/61
f 55/43/55 62/50/62 63/51/63
f 64/52/64 55/43/55 63/51/63
f 56/44/56 55/43/55 64/52/64
f 65/53/65 66/54/66 67/55/67
f 68/56/68 66/54/66 69/57/69
f 70/58/70 71/59/71 72/60/72
f 73/56/73 74/57/74 70/58/70
f 71/59/71 75/53/75 76/55/76
f 75/53/75 74/57/74 77/54/77
f 71/59/71 76/55/76 72/60/72
f 73/56/73 70/58/70 72/60/72
usemtl tex_1673_lit_w01
f 78/61/78 79/62/79 85/63/85
f 78/61/78 85/63/85 86/64/86
usemtl tex_1674_lit_w11
f 80/65/80 87/66/87 81/67/81
f 88/68/88 80/65/80 89/69/89
f 80/65/80 88/68/88 87/66/87
f 80/65/80 82/70/82 89/69/89
f 82/70/82 90/71/90 89/69/89
usemtl tex_1677_lit_w11
f 83/72/83 84/73/84 91/74/91
f 84/73/84 92/75/92 91/74/91
f 95/75/95 93/76/93 96/77/96
f 95/75/95 94/73/94 93/76/93
usemtl tex_1681_lit_w11
f 101/32/101 97/58/97 102/33/102
f 101/32/101 98/59/98 97/58/97
f 103/31/103 98/59/98 101/32/101
f 102/33/102 97/58/97 99/57/99
f 102/33/102 99/57/99 104/34/104
f 104/34/104 99/57/99 100/53/100
f 104/34/104 100/53/100 103/31/103
f 103/31/103 100/53/100 98/59/98
f 105/36/105 106/78/106 107/79/107
f 108/80/108 106/78/106 109/41/109
f 110/39/110 111/38/111 112/81/112
f 108/80/108 109/41/109 110/39/110
f 111/38/111 105/36/105 107/79/107
f 105/36/105 109/41/109 106/78/106
f 111/38/111 107/79/107 112/81/112
f 108/80/108 110/39/110 112/81/112
f 113/81/113 114/79/114 115/78/115
f 113/81/113 115/78/115 116/80/116
f 117/36/117 111/38/111 110/39/110
f 117/36/117 110/39/110 118/41/118
usemtl tex_1785_lit_w10
f 119/82/119 120/83/120 121/84/121
f 122/85/122 120/83/120 119/82/119
f 123/86/123 124/87/124 119/82/119
f 122/85/122 125/88/125 126/89/126
f 126/89/126 127/90/127 121/84/121
f 126/89/126 121/84/121 120/83/120
f 125/88/125 128/91/128 126/89/126
f 127/90/127 123/86/123 121/84/121
f 121/84/121 123/86/123 119/82/119
f 120/83/120 122/85/122 126/89/126
usemtl tex_1786_lit_w01
f 129/92/129 130/93/130 131/94/131
f 132/95/132 130/93/130 129/92/129
f 129/92/129 131/94/131 133/96/133
f 134/97/134 129/92/129 133/96/133
usemtl tex_1679_lit_w11
f 135/98/135 136/99/136 137/100/137
f 138/101/138 135/98/135 137/100/137
f 139/102/139 138/101/138 137/100/137
f 139/102/139 137/100/137 140/103/140
f 139/102/139 140/103/140 141/104/141
f 142/105/142 139/102/139 141/104/141
f 135/98/135 142/105/142 141/104/141
f 136/99/136 135/98/135 141/104/141
usemtl tex_1785_lit_w10
f 149/90/149 143/106/143 144/107/144
f 150/86/150 149/90/149 144/107/144
f 145/108/145 151/89/151 152/109/152
f 145/108/145 146/110/146 151/89/151
f 149/90/149 146/110/146 143/106/143
f 149/90/149 151/89/151 146/110/146
usemtl tex_1786_lit_w01
f 153/96/153 147/111/147 148/112/148
f 148/112/148 154/113/154 153/96/153
f 155/97/155 153/96/153 148/112/148
f 153/96/153 148/112/148 154/113/154
usemtl tex_1679_lit_w11
f 160/104/160 156/114/156 161/99/161
f 157/115/157 156/114/156 160/104/160
f 162/103/162 157/115/157 160/104/160
f 158/116/158 157/115/157 162/103/162
f 163/100/163 158/116/158 162/103/162
f 159/117/159 158/116/158 163/100/163
f 161/99/161 159/117/159 163/100/163
f 156/114/156 159/117/159 161/99/161
f 164/118/164 165/119/165 166/120/166
f 167/121/167 168/122/168 169/123/169
f 165/119/165 170/124/170 166/120/166
f 169/123/169 165/119/165 164/118/164
f 171/125/171 168/122/168 167/121/167
f 170/124/170 168/122/168 171/125/171
f 166/120/166 170/124/170 171/125/171
f 167/121/167 169/123/169 164/118/164
f 164/118/164 166/120/166 171/125/171
f 164/118/164 171/125/171 167/121/167
f 172/124/172 173/119/173 169/123/169
f 172/124/172 169/123/169 168/122/168
usemtl tex_1681_lit_w11
f 174/126/174 175/127/175 176/128/176
f 177/129/177 175/127/175 174/126/174
f 178/49/178 177/129/177 174/126/174
f 179/130/179 177/129/177 178/49/178
f 180/48/180 179/130/179 178/49/178
f 181/131/181 179/130/179 180/48/180
f 182/132/182 181/131/181 180/48/180
f 175/127/175 181/131/181 182/132/182
f 183/133/183 175/127/175 182/132/182
f 176/128/176 175/127/175 183/133/183
usemtl tex_1679_lit_w11
f 184/134/184 185/135/185 186/136/186
f 187/137/187 185/135/185 188/138/188
f 189/139/189 187/137/187 188/138/188
f 190/134/190 191/136/191 192/140/192
f 192/140/192 193/139/193 194/141/194
f 193/139/193 195/138/195 194/141/194
f 194/141/194 190/134/190 192/140/192
f 196/135/196 197/137/197 191/136/191
usemtl tex_1673_lit_w01
f 205/63/205 198/62/198 199/61/199
f 205/63/205 199/61/199 206/64/206
usemtl tex_1674_lit_w11
f 200/142/200 207/143/207 208/144/208
f 207/143/207 200/142/200 201/145/201
f 207/143/207 201/145/201 209/146/209
f 202/70/202 208/144/208 210/71/210
f 202/70/202 200/142/200 208/144/208
usemtl tex_1677_lit_w11
f 203/147/203 204/148/204 211/149/211
f 203/147/203 211/149/211 212/150/212
f 213/148/213 214/72/214 215/74/215
f 213/148/213 215/74/215 216/149/216
usemtl tex_1679_lit_w11
f 221/115/221 217/140/217 222/114/222
f 218/139/218 217/140/217 221/115/221
f 223/116/223 218/139/218 221/115/221
f 219/137/219 218/139/218 223/116/223
f 224/117/224 219/137/219 223/116/223
f 220/136/220 219/137/219 224/117/224
f 222/114/222 220/136/220 224/117/224
f 217/140/217 220/136/220 222/114/222
f 225/151/225 226/152/226 227/119/227
f 228/124/228 226/152/226 229/153/229
f 230/154/230 231/123/231 232/122/232
f 232/122/232 228/124/228 229/153/229
f 225/151/225 227/119/227 231/123/231
f 226/152/226 228/124/228 227/119/227
f 230/154/230 225/151/225 231/123/231
f 230/154/230 232/122/232 229/153/229
usemtl tex_1679_lit_w11_ovl
f 233/153/233 234/152/234 235/151/235
f 233/153/233 235/151/235 236/154/236
usemtl tex_1679_lit_w11
f 237/124/237 232/122/232 231/123/231
f 237/124/237 231/123/231 238/119/238
usemtl tex_1780_lit
f 239/155/239 244/156/244 245/157/245
f 246/158/246 240/159/240 241/160/241
f 240/159/240 247/161/247 239/155/239
f 247/161/247 244/156/244 239/155/239
f 242/77/242 239/155/239 245/157/245
f 242/77/242 245/157/245 248/162/248
f 242/77/242 248/162/248 243/163/243
f 248/162/248 241/160/241 243/163/243
f 248/162/248 246/158/246 241/160/241
f 240/159/240 246/158/246 247/161/247
usemtl tex_1609_lit
f 249/164/249 250/165/250 251/166/251
f 251/166/251 250/165/250 252/167/252
usemtl tex_1613_lit_w11
f 253/168/253 254/169/254 255/170/255
f 255/170/255 254/169/254 256/171/256
usemtl tex_1616_lit_w11
f 257/172/257 258/173/258 259/174/259
f 259/174/259 258/173/258 260/175/260
usemtl tex_1619_lit_w11
f 261/176/261 262/177/262 263/178/263
f 263/178/263 262/177/262 264/179/264
usemtl tex_1622_lit_w11
f 265/180/265 266/181/266 267/182/267
f 267/182/267 266/181/266 268/183/268
usemtl tex_1673_lit_w01
f 274/184/274 269/185/269 270/186/270
f 270/186/270 271/187/271 275/188/275
f 271/187/271 272/189/272 275/188/275
f 273/190/273 269/185/269 276/191/276
f 272/189/272 273/190/273 277/192/277
f 269/185/269 274/184/274 276/191/276
f 272/189/272 277/192/277 275/188/275
f 274/184/274 270/186/270 275/188/275
f 273/190/273 276/191/276 277/192/277
f 283/189/283 278/193/278 284/190/284
f 279/194/279 278/193/278 283/189/283
f 285/187/285 279/194/279 283/189/283
f 280/195/280 279/194/279 285/187/285
f 286/186/286 280/195/280 285/187/285
f 281/196/281 280/195/280 286/186/286
f 284/190/284 282/197/282 287/185/287
f 278/193/278 282/197/282 284/190/284
f 287/185/287 281/196/281 286/186/286
f 282/197/282 281/196/281 287/185/287
f 288/198/288 289/199/289 290/200/290
f 291/201/291 292/202/292 293/203/293
f 294/204/294 289/199/289 295/205/295
f 293/203/293 294/204/294 296/206/296
f 293/203/293 292/202/292 294/204/294
f 289/199/289 288/198/288 295/205/295
f 297/207/297 291/201/291 293/203/293
f 294/204/294 295/205/295 296/206/296
f 298/208/298 299/209/299 300/210/300
f 298/208/298 300/210/300 301/211/301
f 302/212/302 303/213/303 304/214/304
f 305/215/305 306/216/306 304/214/304
f 307/217/307 308/218/308 309/219/309
f 306/216/306 302/212/302 304/214/304
f 307/217/307 309/219/309 303/213/303
f 303/213/303 309/219/309 310/220/310
f 311/221/311 308/218/308 306/216/306
f 303/213/303 310/220/310 304/214/304
f 308/218/308 311/221/311 309/219/309
f 311/221/311 306/216/306 305/215/305
f 317/212/317 312/222/312 318/213/318
f 318/213/318 312/222/312 313/223/313
f 318/213/318 313/223/313 319/217/319
f 319/217/319 313/223/313 314/224/314
f 319/217/319 314/224/314 320/218/320
f 320/218/320 314/224/314 315/225/315
f 320/218/320 315/225/315 321/216/321
f 321/216/321 315/225/315 316/226/316
f 321/216/321 316/226/316 317/212/317
f 317/212/317 316/226/316 312/222/312
f 327/194/327 322/221/322 328/193/328
f 323/219/323 322/221/322 327/194/327
f 329/195/329 323/219/323 327/194/327
f 324/220/324 323/219/323 329/195/329
f 330/196/330 324/220/324 329/195/329
f 325/214/325 324/220/324 330/196/330
f 328/193/328 322/221/322 331/197/331
f 326/215/326 325/214/325 330/196/330
f 331/197/331 326/215/326 330/196/330
f 322/221/322 326/215/326 331/197/331
f 332/227/332 333/228/333 334/201/334
f 335/199/335 336/229/336 337/200/337
f 336/229/336 338/230/338 337/200/337
f 339/231/339 340/204/340 333/228/333
f 333/228/333 340/204/340 341/202/341
f 335/199/335 339/231/339 336/229/336
f 333/228/333 341/202/341 334/201/334
f 339/231/339 335/199/335 340/204/340
f 338/230/338 336/229/336 339/231/339
f 339/231/339 333/228/333 332/227/332
f 342/232/342 343/209/343 344/233/344
f 342/232/342 344/233/344 345/234/345
usemtl tex_1609_lit
f 346/235/346 347/236/347 348/237/348
f 349/238/349 347/236/347 346/235/346
usemtl tex_1613_lit_w11
f 350/239/350 351/240/351 352/241/352
f 353/242/353 351/240/351 350/239/350
usemtl tex_1616_lit_w11
f 354/243/354 355/244/355 356/245/356
f 357/246/357 355/244/355 354/243/354
usemtl tex_1619_lit_w11
f 358/247/358 359/248/359 360/249/360
f 361/250/361 359/248/359 358/247/358
usemtl tex_1622_lit_w11
f 362/251/362 363/252/363 364/253/364
f 365/254/365 363/252/363 362/251/362
usemtl tex_1673_lit_w01
f 366/255/366 367/256/367 371/257/371
f 372/258/372 368/259/368 366/255/366
f 372/258/372 369/260/369 368/259/368
f 373/261/373 367/256/367 370/262/370
f 374/263/374 370/262/370 369/260/369
f 373/261/373 371/257/371 367/256/367
f 372/258/372 374/263/374 369/260/369
f 372/258/372 366/255/366 371/257/371
f 374/263/374 373/261/373 370/262/370
f 380/262/380 375/264/375 381/260/381
f 381/260/381 375/264/375 376/265/376
f 381/260/381 376/265/376 382/259/382
f 382/259/382 376/265/376 377/266/377
f 382/259/382 377/266/377 383/255/383
f 383/255/383 377/266/377 378/267/378
f 384/256/384 379/268/379 380/262/380
f 380/262/380 379/268/379 375/264/375
f 383/255/383 378/267/378 384/256/384
f 384/256/384 378/267/378 379/268/379
f 385/269/385 386/270/386 387/271/387
f 388/272/388 389/273/389 390/274/390
f 391/275/391 386/270/386 392/276/392
f 393/277/393 392/276/392 388/272/388
f 392/276/392 389/273/389 388/272/388
f 391/275/391 387/271/387 386/270/386
f 388/272/388 390/274/390 394/278/394
f 393/277/393 391/275/391 392/276/392
f 395/232/395 396/209/396 397/279/397
f 395/232/395 397/279/397 398/280/398
f 399/281/399 400/282/400 401/283/401
f 399/281/399 402/284/402 403/285/403
f 404/286/404 405/287/405 406/288/406
f 399/281/399 401/283/401 402/284/402
f 400/282/400 404/286/404 406/288/406
f 407/289/407 404/286/404 400/282/400
f 402/284/402 405/287/405 408/290/408
f 399/281/399 407/289/407 400/282/400
f 404/286/404 408/290/408 405/287/405
f 403/285/403 402/284/402 408/290/408
f 414/282/414 409/291/409 415/283/415
f 410/292/410 409/291/409 414/282/414
f 416/288/416 410/292/410 414/282/414
f 411/293/411 410/292/410 416/288/416
f 417/287/417 411/293/411 416/288/416
f 412/294/412 411/293/411 417/287/417
f 418/284/418 412/294/412 417/287/417
f 413/295/413 412/294/412 418/284/418
f 415/283/415 413/295/413 418/284/418
f 409/291/409 413/295/413 415/283/415
f 424/264/424 419/290/419 425/265/425
f 425/265/425 419/290/419 420/286/420
f 425/265/425 420/286/420 426/266/426
f 426/266/426 420/286/420 421/289/421
f 426/266/426 421/289/421 427/267/427
f 427/267/427 421/289/421 422/281/422
f 428/268/428 419/290/419 424/264/424
f 427/267/427 422/281/422 423/285/423
f 427/267/427 423/285/423 428/268/428
f 428/268/428 423/285/423 419/290/419
f 429/296/429 430/297/430 431/298/431
f 431/298/431 432/299/432 429/296/429
f 433/274/433 431/298/431 430/297/430
f 434/269/434 435/300/435 436/270/436
f 434/269/434 437/301/437 435/300/435
f 431/298/431 438/276/438 432/299/432
f 439/273/439 438/276/438 431/298/431
f 435/300/435 432/299/432 436/270/436
f 433/274/433 439/273/439 431/298/431
f 438/276/438 436/270/436 432/299/432
f 440/232/440 441/209/441 442/279/442
f 440/232/440 442/279/442 443/302/443
usemtl tex_1674_lit_w11
f 444/303/444 445/304/445 446/305/446
f 447/306/447 444/303/444 448/307/448
f 449/308/449 450/309/450 451/310/451
f 448/307/448 444/303/444 446/305/446
f 452/311/452 453/312/453 445/304/445
f 454/313/454 453/312/453 452/311/452
f 455/314/455 456/315/456 457/316/457
f 458/317/458 459/318/459 460/319/460
f 461/320/461 462/303/462 463/306/463
f 461/320/461 463/306/463 460/319/460
f 464/321/464 461/320/461 460/319/460
f 463/306/463 458/317/458 460/319/460
f 464/321/464 465/322/465 466/313/466
f 467/305/467 468/323/468 469/324/469
f 470/304/470 471/312/471 472/325/472
f 464/321/464 466/313/466 461/320/461
f 473/311/473 462/303/462 461/320/461
f 466/313/466 473/311/473 461/320/461
f 462/303/462 473/311/473 470/304/470
f 474/307/474 475/324/475 476/317/476
f 474/307/474 477/305/477 475/324/475
f 478/306/478 474/307/474 476/317/476
usemtl tex_1677_lit_w11
f 479/326/479 480/327/480 481/328/481
f 481/328/481 482/329/482 483/330/483
f 484/331/484 483/330/483 485/332/485
f 486/333/486 487/334/487 488/335/488
f 484/331/484 481/328/481 483/330/483
f 484/331/484 479/326/479 481/328/481
f 489/336/489 490/328/490 491/337/491
f 492/330/492 493/335/493 494/338/494
f 495/329/495 496/333/496 492/330/492
f 497/339/497 498/334/498 499/340/499
f 500/341/500 501/331/501 502/332/502
f 489/336/489 495/329/495 490/328/490
f 502/332/502 492/330/492 494/338/494
f 500/341/500 502/332/502 503/342/503
f 492/330/492 496/333/496 493/335/493
f 495/329/495 499/340/499 496/333/496
f 498/334/498 496/333/496 499/340/499
f 500/341/500 503/342/503 504/343/504
f 502/332/502 494/338/494 503/342/503
usemtl tex_1674_lit_w11
f 505/344/505 513/323/513 506/345/506
f 506/345/506 513/323/513 514/305/514
f 506/345/506 514/305/514 507/346/507
f 507/346/507 514/305/514 515/304/515
f 507/346/507 515/304/515 508/347/508
f 508/347/508 515/304/515 516/325/516
usemtl tex_1677_lit_w11
f 509/348/509 517/338/517 510/349/510
f 510/349/510 518/335/518 511/350/511
f 510/349/510 517/338/517 518/335/518
f 512/351/512 519/342/519 509/348/509
f 509/348/509 519/342/519 517/338/517
f 511/350/511 518/335/518 520/334/520
usemtl tex_1673_lit_w01
f 521/352/521 522/353/522 523/354/523
f 524/355/524 525/279/525 526/356/526
f 522/353/522 527/357/527 523/354/523
f 528/358/528 526/356/526 525/279/525
usemtl tex_1674_lit_w11
f 529/359/529 530/360/530 531/361/531
f 532/362/532 529/359/529 531/361/531
usemtl tex_1677_lit_w11
f 533/363/533 534/364/534 535/365/535
f 536/366/536 537/367/537 538/368/538
f 539/364/539 540/363/540 541/369/541
f 536/366/536 542/370/542 537/367/537
f 543/371/543 544/372/544 545/373/545
f 544/372/544 546/374/546 545/373/545
usemtl tex_1674_lit_w11
f 547/67/547 548/375/548 549/65/549
f 549/65/549 548/375/548 550/376/550
f 549/65/549 550/376/550 551/70/551
f 551/70/551 550/376/550 552/377/552
f 551/70/551 552/377/552 553/142/553
f 553/142/553 552/377/552 554/145/554
f 554/145/554 552/377/552 555/378/555
usemtl tex_1677_lit_w11
f 556/349/556 557/73/557 558/72/558
f 559/76/559 556/349/556 560/350/560
f 557/73/557 556/349/556 559/76/559
f 561/147/561 562/379/562 563/348/563
f 564/148/564 563/348/563 565/72/565
f 563/348/563 566/349/566 565/72/565
f 561/147/561 563/348/563 564/148/564
usemtl tex_1673_lit_w01
f 567/209/567 568/352/568 569/232/569
f 567/209/567 570/353/570 568/352/568
f 571/209/571 572/355/572 573/232/573
f 573/232/573 572/355/572 574/356/574
f 575/279/575 576/380/576 577/232/577
usemtl tex_1673_lit_w01_ovl
f 575/279/575 577/232/577 578/209/578
usemtl tex_1674_lit_w11
f 579/381/579 580/361/580 581/360/581
f 579/381/579 581/360/581 582/382/582
usemtl tex_1677_lit_w11
f 583/367/583 584/383/584 585/384/585
f 586/368/586 583/367/583 585/384/585
f 587/371/587 588/374/588 589/372/589
f 587/371/587 590/373/590 588/374/588
