mtllib CcheckmanZ.mtl
v -1078.8555908203125 -82.70243644714355 -44.0 1.000 1.000 1.000
v -1078.8555908203125 -164.70243644714355 -37.0 1.000 1.000 1.000
v -1078.8555908203125 -38.702436447143555 227.0 1.000 1.000 1.000
v -1078.8555908203125 -157.70243644714355 237.0 1.000 1.000 1.000
v -1035.8555908203125 -76.70243644714355 213.0 1.000 1.000 1.000
v -973.8555908203125 -85.70243644714355 33.0 1.000 1.000 1.000
v -971.8555908203125 -144.70243644714355 -18.0 1.000 1.000 1.000
v -1038.8555908203125 -128.70243644714355 239.0 1.000 1.000 1.000
v -973.8555908203125 -99.70243644714355 -31.0 1.000 1.000 1.000
v -972.8555908203125 -134.70243644714355 56.0 1.000 1.000 1.000
v -639.8883666992188 -36.47519826889038 68.0 1.000 1.000 1.000
v -989.8883666992188 -51.47519826889038 77.0 1.000 1.000 1.000
v -990.8883666992188 -152.47519826889038 103.0 1.000 1.000 1.000
v -656.8883666992188 -190.47519826889038 9.0 1.000 1.000 1.000
v -657.8883666992188 -131.47519826889038 110.0 1.000 1.000 1.000
v -655.8883666992188 -35.47519826889038 -9.0 1.000 1.000 1.000
v -654.8883666992188 -117.47519826889038 -75.0 1.000 1.000 1.000
v -991.8883666992188 -44.47519826889038 -51.0 1.000 1.000 1.000
v -989.8883666992188 -181.47519826889038 -42.0 1.000 1.000 1.000
v -639.8883666992188 -36.47519826889038 68.0 1.000 1.000 1.000
v -655.8883666992188 -35.47519826889038 -9.0 1.000 1.000 1.000
v -991.8883666992188 -44.47519826889038 -51.0 1.000 1.000 1.000
v -989.8883666992188 -51.47519826889038 77.0 1.000 1.000 1.000
v -989.8883666992188 -181.47519826889038 -42.0 1.000 1.000 1.000
v -990.8883666992188 -152.47519826889038 103.0 1.000 1.000 1.000
v -989.8883666992188 -51.47519826889038 77.0 1.000 1.000 1.000
v -991.8883666992188 -44.47519826889038 -51.0 1.000 1.000 1.000
v -971.8555908203125 -144.70243644714355 -18.0 1.000 1.000 1.000
v -972.8555908203125 -134.70243644714355 56.0 1.000 1.000 1.000
v -973.8555908203125 -85.70243644714355 33.0 1.000 1.000 1.000
v -973.8555908203125 -99.70243644714355 -31.0 1.000 1.000 1.000
v -515.8883666992188 -191.47519826889038 14.0 1.000 1.000 1.000
v -523.8883666992188 -34.47519826889038 -9.0 1.000 1.000 1.000
v -519.8883666992188 -115.47519826889038 -74.0 1.000 1.000 1.000
v -506.88836669921875 -38.47519826889038 70.0 1.000 1.000 1.000
v -509.88836669921875 -127.47519826889038 111.0 1.000 1.000 1.000
v -506.88836669921875 -38.47519826889038 70.0 1.000 1.000 1.000
v -523.8883666992188 -34.47519826889038 -9.0 1.000 1.000 1.000
v -657.8883666992188 -131.47519826889038 110.0 1.000 1.000 1.000
v -656.8883666992188 -190.47519826889038 9.0 1.000 1.000 1.000
v -655.8883666992188 -35.47519826889038 -9.0 1.000 1.000 1.000
v -639.8883666992188 -36.47519826889038 68.0 1.000 1.000 1.000
v -654.8883666992188 -117.47519826889038 -75.0 1.000 1.000 1.000
v -639.8883666992188 -36.47519826889038 68.0 1.000 1.000 1.000
v -655.8883666992188 -35.47519826889038 -9.0 1.000 1.000 1.000
v 0.0 -182.0 111.0 1.000 1.000 1.000
v -90.0 -118.0 138.0 1.000 1.000 1.000
v -36.0 -175.0 -65.0 1.000 1.000 1.000
v -92.0 -70.0 -73.0 1.000 1.000 1.000
v -142.0 -96.0 65.0 1.000 1.000 1.000
v -142.0 -96.0 65.0 1.000 1.000 1.000
v -92.0 -70.0 -73.0 1.000 1.000 1.000
v -300.5890197753906 -127.63739013671875 118.0 1.000 1.000 1.000
v -344.5890197753906 -192.63739013671875 13.0 1.000 1.000 1.000
v -224.58901977539062 -118.63739013671875 -64.0 1.000 1.000 1.000
v -259.5890197753906 -35.63739013671875 3.0 1.000 1.000 1.000
v -276.5890197753906 -42.63739013671875 69.0 1.000 1.000 1.000
v -259.5890197753906 -35.63739013671875 3.0 1.000 1.000 1.000
v -276.5890197753906 -42.63739013671875 69.0 1.000 1.000 1.000
v -259.5890197753906 -35.63739013671875 3.0 1.000 1.000 1.000
v -224.58901977539062 -118.63739013671875 -64.0 1.000 1.000 1.000
v -276.5890197753906 -42.63739013671875 69.0 1.000 1.000 1.000
v -344.5890197753906 -192.63739013671875 13.0 1.000 1.000 1.000
v -300.5890197753906 -127.63739013671875 118.0 1.000 1.000 1.000
v -276.5890197753906 -42.63739013671875 69.0 1.000 1.000 1.000
v -259.5890197753906 -35.63739013671875 3.0 1.000 1.000 1.000
v -519.8883666992188 -115.47519826889038 -74.0 1.000 1.000 1.000
v -506.88836669921875 -38.47519826889038 70.0 1.000 1.000 1.000
v -509.88836669921875 -127.47519826889038 111.0 1.000 1.000 1.000
v -515.8883666992188 -191.47519826889038 14.0 1.000 1.000 1.000
v -523.8883666992188 -34.47519826889038 -9.0 1.000 1.000 1.000
v -523.8883666992188 -34.47519826889038 -9.0 1.000 1.000 1.000
v -506.88836669921875 -38.47519826889038 70.0 1.000 1.000 1.000
v 1087.927879333496 -43.380823612213135 227.0 1.000 1.000 1.000
v 1087.927879333496 -169.38082361221313 -37.0 1.000 1.000 1.000
v 1087.927879333496 -87.38082361221313 -44.0 1.000 1.000 1.000
v 1087.927879333496 -162.38082361221313 237.0 1.000 1.000 1.000
v 982.9278793334961 -90.38082361221313 33.0 1.000 1.000 1.000
v 1044.927879333496 -81.38082361221313 213.0 1.000 1.000 1.000
v 1047.927879333496 -133.38082361221313 239.0 1.000 1.000 1.000
v 980.9278793334961 -150.38082361221313 -18.0 1.000 1.000 1.000
v 981.9278793334961 -104.38082361221313 -31.0 1.000 1.000 1.000
v 981.9278793334961 -139.38082361221313 56.0 1.000 1.000 1.000
v 998.3251266479492 -160.09517669677734 103.0 1.000 1.000 1.000
v 999.3251266479492 -56.095176696777344 74.0 1.000 1.000 1.000
v 650.3251266479492 -38.095176696777344 68.0 1.000 1.000 1.000
v 669.3251266479492 -135.09517669677734 111.0 1.000 1.000 1.000
v 666.3251266479492 -198.09517669677734 9.0 1.000 1.000 1.000
v 999.3251266479492 -50.095176696777344 -50.0 1.000 1.000 1.000
v 666.3251266479492 -125.09517669677734 -74.0 1.000 1.000 1.000
v 667.3251266479492 -38.095176696777344 -8.0 1.000 1.000 1.000
v 997.3251266479492 -187.09517669677734 -45.0 1.000 1.000 1.000
v 999.3251266479492 -50.095176696777344 -50.0 1.000 1.000 1.000
v 667.3251266479492 -38.095176696777344 -8.0 1.000 1.000 1.000
v 650.3251266479492 -38.095176696777344 68.0 1.000 1.000 1.000
v 999.3251266479492 -56.095176696777344 74.0 1.000 1.000 1.000
v 999.3251266479492 -50.095176696777344 -50.0 1.000 1.000 1.000
v 999.3251266479492 -56.095176696777344 74.0 1.000 1.000 1.000
v 998.3251266479492 -160.09517669677734 103.0 1.000 1.000 1.000
v 997.3251266479492 -187.09517669677734 -45.0 1.000 1.000 1.000
v 981.9278793334961 -104.38082361221313 -31.0 1.000 1.000 1.000
v 982.9278793334961 -90.38082361221313 33.0 1.000 1.000 1.000
v 981.9278793334961 -139.38082361221313 56.0 1.000 1.000 1.000
v 980.9278793334961 -150.38082361221313 -18.0 1.000 1.000 1.000
v 515.3251266479492 -130.09517669677734 110.0 1.000 1.000 1.000
v 522.3251266479492 -37.095176696777344 69.0 1.000 1.000 1.000
v 528.3251266479492 -123.09517669677734 -75.0 1.000 1.000 1.000
v 531.3251266479492 -38.095176696777344 -7.0 1.000 1.000 1.000
v 525.3251266479492 -197.09517669677734 14.0 1.000 1.000 1.000
v 531.3251266479492 -38.095176696777344 -7.0 1.000 1.000 1.000
v 522.3251266479492 -37.095176696777344 69.0 1.000 1.000 1.000
v 650.3251266479492 -38.095176696777344 68.0 1.000 1.000 1.000
v 669.3251266479492 -135.09517669677734 111.0 1.000 1.000 1.000
v 667.3251266479492 -38.095176696777344 -8.0 1.000 1.000 1.000
v 666.3251266479492 -125.09517669677734 -74.0 1.000 1.000 1.000
v 666.3251266479492 -198.09517669677734 9.0 1.000 1.000 1.000
v 667.3251266479492 -38.095176696777344 -8.0 1.000 1.000 1.000
v 650.3251266479492 -38.095176696777344 68.0 1.000 1.000 1.000
v 0.0 -182.0 111.0 1.000 1.000 1.000
v 34.0 -176.0 -66.0 1.000 1.000 1.000
v 98.0 -71.0 -75.0 1.000 1.000 1.000
v 91.0 -115.0 138.0 1.000 1.000 1.000
v 142.0 -96.0 64.0 1.000 1.000 1.000
v 98.0 -71.0 -75.0 1.000 1.000 1.000
v 142.0 -96.0 64.0 1.000 1.000 1.000
v 353.1657943725586 -196.35110473632812 13.0 1.000 1.000 1.000
v 234.1657943725586 -117.35110473632812 -64.0 1.000 1.000 1.000
v 268.1657943725586 -38.351104736328125 5.0 1.000 1.000 1.000
v 309.1657943725586 -132.35110473632812 118.0 1.000 1.000 1.000
v 289.1657943725586 -48.351104736328125 69.0 1.000 1.000 1.000
v 268.1657943725586 -38.351104736328125 5.0 1.000 1.000 1.000
v 289.1657943725586 -48.351104736328125 69.0 1.000 1.000 1.000
v 234.1657943725586 -117.35110473632812 -64.0 1.000 1.000 1.000
v 268.1657943725586 -38.351104736328125 5.0 1.000 1.000 1.000
v 353.1657943725586 -196.35110473632812 13.0 1.000 1.000 1.000
v 309.1657943725586 -132.35110473632812 118.0 1.000 1.000 1.000
v 289.1657943725586 -48.351104736328125 69.0 1.000 1.000 1.000
v 268.1657943725586 -38.351104736328125 5.0 1.000 1.000 1.000
v 289.1657943725586 -48.351104736328125 69.0 1.000 1.000 1.000
v 531.3251266479492 -38.095176696777344 -7.0 1.000 1.000 1.000
v 528.3251266479492 -123.09517669677734 -75.0 1.000 1.000 1.000
v 525.3251266479492 -197.09517669677734 14.0 1.000 1.000 1.000
v 515.3251266479492 -130.09517669677734 110.0 1.000 1.000 1.000
v 522.3251266479492 -37.095176696777344 69.0 1.000 1.000 1.000
v 531.3251266479492 -38.095176696777344 -7.0 1.000 1.000 1.000
v 522.3251266479492 -37.095176696777344 69.0 1.000 1.000 1.000
v -785.0662807226181 342.1454210281372 55.0 1.000 1.000 1.000
v -744.0662807226181 414.1454210281372 -27.0 1.000 1.000 1.000
v -773.0662807226181 347.1454210281372 -44.0 1.000 1.000 1.000
v -756.0662807226181 439.1454210281372 52.0 1.000 1.000 1.000
v -744.0662807226181 414.1454210281372 -27.0 1.000 1.000 1.000
v -641.0662807226181 392.1454210281372 42.0 1.000 1.000 1.000
v -651.0662807226181 380.1454210281372 -27.0 1.000 1.000 1.000
v -756.0662807226181 439.1454210281372 52.0 1.000 1.000 1.000
v -651.0662807226181 380.1454210281372 -27.0 1.000 1.000 1.000
v -773.0662807226181 347.1454210281372 -44.0 1.000 1.000 1.000
v -744.0662807226181 414.1454210281372 -27.0 1.000 1.000 1.000
v -662.0662807226181 346.1454210281372 -39.0 1.000 1.000 1.000
v -641.0662807226181 392.1454210281372 42.0 1.000 1.000 1.000
v -785.0662807226181 342.1454210281372 55.0 1.000 1.000 1.000
v -645.0662807226181 339.1454210281372 38.0 1.000 1.000 1.000
v -756.0662807226181 439.1454210281372 52.0 1.000 1.000 1.000
v -773.0662807226181 347.1454210281372 -44.0 1.000 1.000 1.000
v -645.0662807226181 339.1454210281372 38.0 1.000 1.000 1.000
v -785.0662807226181 342.1454210281372 55.0 1.000 1.000 1.000
v -662.0662807226181 346.1454210281372 -39.0 1.000 1.000 1.000
v -475.19768941402435 319.83887100219727 45.0 1.000 1.000 1.000
v -481.19768941402435 382.83887100219727 50.0 1.000 1.000 1.000
v -476.19768941402435 316.83887100219727 -10.0 1.000 1.000 1.000
v -475.19768941402435 319.83887100219727 45.0 1.000 1.000 1.000
v -476.19768941402435 371.83887100219727 -46.0 1.000 1.000 1.000
v -475.19768941402435 422.83887100219727 5.0 1.000 1.000 1.000
v -645.0662807226181 339.1454210281372 38.0 1.000 1.000 1.000
v -662.0662807226181 346.1454210281372 -39.0 1.000 1.000 1.000
v -641.0662807226181 392.1454210281372 42.0 1.000 1.000 1.000
v -651.0662807226181 380.1454210281372 -27.0 1.000 1.000 1.000
v -645.0662807226181 339.1454210281372 38.0 1.000 1.000 1.000
v -403.19768941402435 405.83887100219727 6.0 1.000 1.000 1.000
v -404.19768941402435 371.83887100219727 -32.0 1.000 1.000 1.000
v -403.19768941402435 319.83887100219727 -10.0 1.000 1.000 1.000
v -403.19768941402435 326.83887100219727 51.0 1.000 1.000 1.000
v -403.19768941402435 402.83887100219727 49.0 1.000 1.000 1.000
v -403.19768941402435 326.83887100219727 51.0 1.000 1.000 1.000
v -475.19768941402435 422.83887100219727 5.0 1.000 1.000 1.000
v -476.19768941402435 371.83887100219727 -46.0 1.000 1.000 1.000
v -476.19768941402435 316.83887100219727 -10.0 1.000 1.000 1.000
v -475.19768941402435 319.83887100219727 45.0 1.000 1.000 1.000
v -481.19768941402435 382.83887100219727 50.0 1.000 1.000 1.000
v -475.19768941402435 319.83887100219727 45.0 1.000 1.000 1.000
v -332.2357143163681 328.22493743896484 62.0 1.000 1.000 1.000
v -267.2357143163681 309.22493743896484 -16.0 1.000 1.000 1.000
v -257.2357143163681 307.22493743896484 67.0 1.000 1.000 1.000
v -332.2357143163681 328.22493743896484 62.0 1.000 1.000 1.000
v -181.2357143163681 366.22493743896484 88.0 1.000 1.000 1.000
v -326.2357143163681 376.22493743896484 81.0 1.000 1.000 1.000
v -259.2357143163681 378.22493743896484 -55.0 1.000 1.000 1.000
v -133.2357143163681 393.22493743896484 11.0 1.000 1.000 1.000
v -167.2357143163681 360.22493743896484 -67.0 1.000 1.000 1.000
v -257.2357143163681 307.22493743896484 67.0 1.000 1.000 1.000
v -325.2357143163681 305.22493743896484 -10.0 1.000 1.000 1.000
v -267.2357143163681 428.22493743896484 21.0 1.000 1.000 1.000
v -424.86859130859375 208.30655002593994 -17.0 1.000 1.000 1.000
v -423.86859130859375 219.30655002593994 68.0 1.000 1.000 1.000
v -426.86859130859375 354.30655002593994 -50.0 1.000 1.000 1.000
v -425.86859130859375 372.30655002593994 27.0 1.000 1.000 1.000
v -425.86859130859375 372.30655002593994 27.0 1.000 1.000 1.000
v -426.86859130859375 334.30655002593994 75.0 1.000 1.000 1.000
v -423.86859130859375 219.30655002593994 68.0 1.000 1.000 1.000
v -267.2357143163681 309.22493743896484 -16.0 1.000 1.000 1.000
v -257.2357143163681 307.22493743896484 67.0 1.000 1.000 1.000
v -167.2357143163681 360.22493743896484 -67.0 1.000 1.000 1.000
v -133.2357143163681 393.22493743896484 11.0 1.000 1.000 1.000
v -181.2357143163681 366.22493743896484 88.0 1.000 1.000 1.000
v -257.2357143163681 307.22493743896484 67.0 1.000 1.000 1.000
v -267.2357143163681 428.22493743896484 21.0 1.000 1.000 1.000
v -259.2357143163681 378.22493743896484 -55.0 1.000 1.000 1.000
v -325.2357143163681 305.22493743896484 -10.0 1.000 1.000 1.000
v -332.2357143163681 328.22493743896484 62.0 1.000 1.000 1.000
v -332.2357143163681 328.22493743896484 62.0 1.000 1.000 1.000
v -326.2357143163681 376.22493743896484 81.0 1.000 1.000 1.000
v -403.19768941402435 405.83887100219727 6.0 1.000 1.000 1.000
v -404.19768941402435 371.83887100219727 -32.0 1.000 1.000 1.000
v -403.19768941402435 319.83887100219727 -10.0 1.000 1.000 1.000
v -403.19768941402435 326.83887100219727 51.0 1.000 1.000 1.000
v -403.19768941402435 402.83887100219727 49.0 1.000 1.000 1.000
v -403.19768941402435 326.83887100219727 51.0 1.000 1.000 1.000
v 370.1021728515625 -42.755651995539665 -42.76123380661011 1.000 1.000 1.000
v 339.1021728515625 22.244348004460335 -27.761233806610107 1.000 1.000 1.000
v 381.1021728515625 -46.755651995539665 57.23876619338989 1.000 1.000 1.000
v 349.1021728515625 47.244348004460335 51.23876619338989 1.000 1.000 1.000
v 246.1021728515625 -10.755651995539665 -28.761233806610107 1.000 1.000 1.000
v 235.1021728515625 3.2443480044603348 40.23876619338989 1.000 1.000 1.000
v 339.1021728515625 22.244348004460335 -27.761233806610107 1.000 1.000 1.000
v 349.1021728515625 47.244348004460335 51.23876619338989 1.000 1.000 1.000
v 339.1021728515625 22.244348004460335 -27.761233806610107 1.000 1.000 1.000
v 370.1021728515625 -42.755651995539665 -42.76123380661011 1.000 1.000 1.000
v 246.1021728515625 -10.755651995539665 -28.761233806610107 1.000 1.000 1.000
v 249.1021728515625 -43.755651995539665 -23.761233806610107 1.000 1.000 1.000
v 238.1021728515625 -49.755651995539665 37.23876619338989 1.000 1.000 1.000
v 381.1021728515625 -46.755651995539665 57.23876619338989 1.000 1.000 1.000
v 235.1021728515625 3.2443480044603348 40.23876619338989 1.000 1.000 1.000
v 349.1021728515625 47.244348004460335 51.23876619338989 1.000 1.000 1.000
v 381.1021728515625 -46.755651995539665 57.23876619338989 1.000 1.000 1.000
v 238.1021728515625 -49.755651995539665 37.23876619338989 1.000 1.000 1.000
v 370.1021728515625 -42.755651995539665 -42.76123380661011 1.000 1.000 1.000
v 249.1021728515625 -43.755651995539665 -23.761233806610107 1.000 1.000 1.000
v 489.6571079492569 378.8121757507324 53.07913017272949 1.000 1.000 1.000
v 483.6571079492569 302.8121757507324 50.07913017272949 1.000 1.000 1.000
v 483.6571079492569 302.8121757507324 50.07913017272949 1.000 1.000 1.000
v 484.6571079492569 298.8121757507324 -4.920869827270508 1.000 1.000 1.000
v 486.6571079492569 366.8121757507324 -41.92086982727051 1.000 1.000 1.000
v 484.6571079492569 418.8121757507324 7.079130172729492 1.000 1.000 1.000
v 238.1021728515625 -49.755651995539665 37.23876619338989 1.000 1.000 1.000
v 249.1021728515625 -43.755651995539665 -23.761233806610107 1.000 1.000 1.000
v 235.1021728515625 3.2443480044603348 40.23876619338989 1.000 1.000 1.000
v 246.1021728515625 -10.755651995539665 -28.761233806610107 1.000 1.000 1.000
v 238.1021728515625 -49.755651995539665 37.23876619338989 1.000 1.000 1.000
v 411.6571079492569 400.8121757507324 7.079130172729492 1.000 1.000 1.000
v 413.6571079492569 366.8121757507324 -29.920869827270508 1.000 1.000 1.000
v 412.6571079492569 314.8121757507324 -6.920869827270508 1.000 1.000 1.000
v 410.6571079492569 322.8121757507324 53.07913017272949 1.000 1.000 1.000
v 411.6571079492569 398.8121757507324 50.07913017272949 1.000 1.000 1.000
v 410.6571079492569 322.8121757507324 53.07913017272949 1.000 1.000 1.000
v 486.6571079492569 366.8121757507324 -41.92086982727051 1.000 1.000 1.000
v 484.6571079492569 418.8121757507324 7.079130172729492 1.000 1.000 1.000
v 484.6571079492569 298.8121757507324 -4.920869827270508 1.000 1.000 1.000
v 483.6571079492569 302.8121757507324 50.07913017272949 1.000 1.000 1.000
v 489.6571079492569 378.8121757507324 53.07913017272949 1.000 1.000 1.000
v 483.6571079492569 302.8121757507324 50.07913017272949 1.000 1.000 1.000
v 263.85553324222565 309.87169647216797 70.0 1.000 1.000 1.000
v 274.85553324222565 304.87169647216797 -12.0 1.000 1.000 1.000
v 339.85553324222565 325.87169647216797 62.0 1.000 1.000 1.000
v 333.85553324222565 373.87169647216797 80.0 1.000 1.000 1.000
v 186.85553324222565 363.87169647216797 89.0 1.000 1.000 1.000
v 339.85553324222565 325.87169647216797 62.0 1.000 1.000 1.000
v 175.85553324222565 354.87169647216797 -66.0 1.000 1.000 1.000
v 139.85553324222565 388.87169647216797 10.0 1.000 1.000 1.000
v 268.85553324222565 372.87169647216797 -57.0 1.000 1.000 1.000
v 263.85553324222565 309.87169647216797 70.0 1.000 1.000 1.000
v 333.85553324222565 298.87169647216797 -10.0 1.000 1.000 1.000
v 274.85553324222565 424.87169647216797 18.0 1.000 1.000 1.000
v -64.86859130859375 219.30655002593994 68.0 1.000 1.000 1.000
v -67.86859130859375 209.30655002593994 -15.0 1.000 1.000 1.000
v -66.86859130859375 353.30655002593994 -49.0 1.000 1.000 1.000
v -66.86859130859375 375.30655002593994 26.0 1.000 1.000 1.000
v -67.86859130859375 335.30655002593994 75.0 1.000 1.000 1.000
v -67.86859130859375 335.30655002593994 75.0 1.000 1.000 1.000
v -64.86859130859375 219.30655002593994 68.0 1.000 1.000 1.000
v 263.85553324222565 309.87169647216797 70.0 1.000 1.000 1.000
v 274.85553324222565 304.87169647216797 -12.0 1.000 1.000 1.000
v 175.85553324222565 354.87169647216797 -66.0 1.000 1.000 1.000
v 139.85553324222565 388.87169647216797 10.0 1.000 1.000 1.000
v 186.85553324222565 363.87169647216797 89.0 1.000 1.000 1.000
v 186.85553324222565 363.87169647216797 89.0 1.000 1.000 1.000
v 263.85553324222565 309.87169647216797 70.0 1.000 1.000 1.000
v 274.85553324222565 424.87169647216797 18.0 1.000 1.000 1.000
v 268.85553324222565 372.87169647216797 -57.0 1.000 1.000 1.000
v 333.85553324222565 298.87169647216797 -10.0 1.000 1.000 1.000
v 339.85553324222565 325.87169647216797 62.0 1.000 1.000 1.000
v 333.85553324222565 373.87169647216797 80.0 1.000 1.000 1.000
v 339.85553324222565 325.87169647216797 62.0 1.000 1.000 1.000
v 413.6571079492569 366.8121757507324 -29.920869827270508 1.000 1.000 1.000
v 411.6571079492569 400.8121757507324 7.079130172729492 1.000 1.000 1.000
v 412.6571079492569 314.8121757507324 -6.920869827270508 1.000 1.000 1.000
v 410.6571079492569 322.8121757507324 53.07913017272949 1.000 1.000 1.000
v 411.6571079492569 398.8121757507324 50.07913017272949 1.000 1.000 1.000
v 410.6571079492569 322.8121757507324 53.07913017272949 1.000 1.000 1.000
v -198.86859130859375 437.30655002593994 0.0 1.000 1.000 1.000
v -226.86859130859375 413.30655002593994 -45.0 1.000 1.000 1.000
v -304.86859130859375 437.30655002593994 0.0 1.000 1.000 1.000
v -304.86859130859375 437.30655002593994 0.0 1.000 1.000 1.000
v -288.86859130859375 414.30655002593994 -41.0 1.000 1.000 1.000
v -198.86859130859375 437.30655002593994 0.0 1.000 1.000 1.000
v -254.86859130859375 376.30655002593994 70.0 1.000 1.000 1.000
v 27.423973083496094 480.42901611328125 -37.0 1.000 1.000 1.000
v -51.576026916503906 469.42901611328125 44.0 1.000 1.000 1.000
v -46.576026916503906 482.42901611328125 -31.0 1.000 1.000 1.000
v -46.576026916503906 482.42901611328125 -31.0 1.000 1.000 1.000
v 27.423973083496094 480.42901611328125 -37.0 1.000 1.000 1.000
v 49.423973083496094 468.42901611328125 44.0 1.000 1.000 1.000
v -6.576026916503906 442.42901611328125 73.0 1.000 1.000 1.000
v -51.576026916503906 469.42901611328125 44.0 1.000 1.000 1.000
v -198.86859130859375 437.30655002593994 0.0 1.000 1.000 1.000
v -254.86859130859375 376.30655002593994 70.0 1.000 1.000 1.000
v -304.86859130859375 437.30655002593994 0.0 1.000 1.000 1.000
v 49.423973083496094 468.42901611328125 44.0 1.000 1.000 1.000
v -6.576026916503906 442.42901611328125 73.0 1.000 1.000 1.000
v -51.576026916503906 469.42901611328125 44.0 1.000 1.000 1.000
v -66.86859130859375 375.30655002593994 26.0 1.000 1.000 1.000
v -198.86859130859375 437.30655002593994 0.0 1.000 1.000 1.000
v -254.86859130859375 376.30655002593994 70.0 1.000 1.000 1.000
v -426.86859130859375 334.30655002593994 75.0 1.000 1.000 1.000
v -251.86859130859375 244.30655002593994 170.0 1.000 1.000 1.000
v -67.86859130859375 335.30655002593994 75.0 1.000 1.000 1.000
v -91.86859130859375 231.30655002593994 142.0 1.000 1.000 1.000
v -399.86859130859375 231.30655002593994 142.0 1.000 1.000 1.000
v -404.86859130859375 86.30655002593994 20.0 1.000 1.000 1.000
v -327.86859130859375 104.30655002593994 144.0 1.000 1.000 1.000
v -304.86859130859375 437.30655002593994 0.0 1.000 1.000 1.000
v -425.86859130859375 372.30655002593994 27.0 1.000 1.000 1.000
v -172.86859130859375 104.30655002593994 144.0 1.000 1.000 1.000
v -424.86859130859375 208.30655002593994 -17.0 1.000 1.000 1.000
v -423.86859130859375 219.30655002593994 68.0 1.000 1.000 1.000
v -64.86859130859375 219.30655002593994 68.0 1.000 1.000 1.000
v -64.86859130859375 219.30655002593994 68.0 1.000 1.000 1.000
v -91.86859130859375 231.30655002593994 142.0 1.000 1.000 1.000
v -90.86859130859375 85.30655002593994 21.0 1.000 1.000 1.000
v -251.86859130859375 244.30655002593994 170.0 1.000 1.000 1.000
v -399.86859130859375 231.30655002593994 142.0 1.000 1.000 1.000
v -327.86859130859375 104.30655002593994 144.0 1.000 1.000 1.000
v -426.86859130859375 334.30655002593994 75.0 1.000 1.000 1.000
v -423.86859130859375 219.30655002593994 68.0 1.000 1.000 1.000
v -404.86859130859375 86.30655002593994 20.0 1.000 1.000 1.000
v -67.86859130859375 209.30655002593994 -15.0 1.000 1.000 1.000
v -172.86859130859375 104.30655002593994 144.0 1.000 1.000 1.000
v -250.86859130859375 185.30655002593994 -84.0 1.000 1.000 1.000
v -139.86859130859375 90.30655002593994 -68.0 1.000 1.000 1.000
v -367.86859130859375 89.30655002593994 -66.0 1.000 1.000 1.000
v -320.86859130859375 336.30655002593994 -96.0 1.000 1.000 1.000
v -354.86859130859375 197.30655002593994 -74.0 1.000 1.000 1.000
v -160.86859130859375 196.30655002593994 -80.0 1.000 1.000 1.000
v -67.86859130859375 209.30655002593994 -15.0 1.000 1.000 1.000
v -139.86859130859375 90.30655002593994 -68.0 1.000 1.000 1.000
v -66.86859130859375 353.30655002593994 -49.0 1.000 1.000 1.000
v -426.86859130859375 354.30655002593994 -50.0 1.000 1.000 1.000
v -425.86859130859375 372.30655002593994 27.0 1.000 1.000 1.000
v -304.86859130859375 437.30655002593994 0.0 1.000 1.000 1.000
v -169.86859130859375 336.30655002593994 -96.0 1.000 1.000 1.000
v -250.86859130859375 185.30655002593994 -84.0 1.000 1.000 1.000
v -320.86859130859375 336.30655002593994 -96.0 1.000 1.000 1.000
v -226.86859130859375 413.30655002593994 -45.0 1.000 1.000 1.000
v -312.86859130859375 386.30655002593994 -48.0 1.000 1.000 1.000
v -288.86859130859375 414.30655002593994 -41.0 1.000 1.000 1.000
v -198.86859130859375 437.30655002593994 0.0 1.000 1.000 1.000
v -183.86859130859375 387.30655002593994 -48.0 1.000 1.000 1.000
v -66.86859130859375 375.30655002593994 26.0 1.000 1.000 1.000
v -367.86859130859375 89.30655002593994 -66.0 1.000 1.000 1.000
v -404.86859130859375 86.30655002593994 20.0 1.000 1.000 1.000
v -424.86859130859375 208.30655002593994 -17.0 1.000 1.000 1.000
v -139.86859130859375 90.30655002593994 -68.0 1.000 1.000 1.000
v -67.86859130859375 209.30655002593994 -15.0 1.000 1.000 1.000
v -90.86859130859375 85.30655002593994 21.0 1.000 1.000 1.000
v -198.86859130859375 437.30655002593994 0.0 1.000 1.000 1.000
v -66.86859130859375 353.30655002593994 -49.0 1.000 1.000 1.000
v -169.86859130859375 336.30655002593994 -96.0 1.000 1.000 1.000
v -183.86859130859375 387.30655002593994 -48.0 1.000 1.000 1.000
v -160.86859130859375 196.30655002593994 -80.0 1.000 1.000 1.000
v -250.86859130859375 185.30655002593994 -84.0 1.000 1.000 1.000
v -354.86859130859375 197.30655002593994 -74.0 1.000 1.000 1.000
v -426.86859130859375 354.30655002593994 -50.0 1.000 1.000 1.000
v -320.86859130859375 336.30655002593994 -96.0 1.000 1.000 1.000
v 84.1779819726944 63.144371032714844 163.0 1.000 1.000 1.000
v -75.8220180273056 59.144371032714844 160.0 1.000 1.000 1.000
v -149.8220180273056 67.14437103271484 28.0 1.000 1.000 1.000
v 160.1779819726944 70.14437103271484 30.0 1.000 1.000 1.000
v -149.8220180273056 67.14437103271484 28.0 1.000 1.000 1.000
v -95.8220180273056 74.14437103271484 -59.0 1.000 1.000 1.000
v 106.1779819726944 75.14437103271484 -62.0 1.000 1.000 1.000
v 160.1779819726944 70.14437103271484 30.0 1.000 1.000 1.000
v -172.86859130859375 104.30655002593994 144.0 1.000 1.000 1.000
v -327.86859130859375 104.30655002593994 144.0 1.000 1.000 1.000
v -90.86859130859375 85.30655002593994 21.0 1.000 1.000 1.000
v -404.86859130859375 86.30655002593994 20.0 1.000 1.000 1.000
v -404.86859130859375 86.30655002593994 20.0 1.000 1.000 1.000
v -367.86859130859375 89.30655002593994 -66.0 1.000 1.000 1.000
v -139.86859130859375 90.30655002593994 -68.0 1.000 1.000 1.000
v -90.86859130859375 85.30655002593994 21.0 1.000 1.000 1.000
v -142.0 -96.0 65.0 1.000 1.000 1.000
v -90.0 -118.0 138.0 1.000 1.000 1.000
v -63.0 2.0 133.0 1.000 1.000 1.000
v 63.0 5.0 133.0 1.000 1.000 1.000
v 91.0 -115.0 138.0 1.000 1.000 1.000
v 142.0 -96.0 64.0 1.000 1.000 1.000
v 0.0 -173.0 -69.0 1.000 1.000 1.000
v 0.0 -182.0 111.0 1.000 1.000 1.000
v -36.0 -175.0 -65.0 1.000 1.000 1.000
v 0.0 -182.0 111.0 1.000 1.000 1.000
v 1.0 -117.0 138.0 1.000 1.000 1.000
v 0.0 -182.0 111.0 1.000 1.000 1.000
v 1.0 -117.0 138.0 1.000 1.000 1.000
v -2.0 -1.0 143.0 1.000 1.000 1.000
v -132.0 18.0 20.0 1.000 1.000 1.000
v 34.0 -176.0 -66.0 1.000 1.000 1.000
v 91.0 -115.0 138.0 1.000 1.000 1.000
v 63.0 5.0 133.0 1.000 1.000 1.000
v -2.0 -1.0 143.0 1.000 1.000 1.000
v 1.0 -117.0 138.0 1.000 1.000 1.000
v -2.0 -1.0 143.0 1.000 1.000 1.000
v -90.0 -118.0 138.0 1.000 1.000 1.000
v 1.0 -117.0 138.0 1.000 1.000 1.000
v 135.0 19.0 19.0 1.000 1.000 1.000
v 142.0 -96.0 64.0 1.000 1.000 1.000
v 92.0 20.0 -73.0 1.000 1.000 1.000
v 135.0 19.0 19.0 1.000 1.000 1.000
v 98.0 -71.0 -75.0 1.000 1.000 1.000
v 0.0 -173.0 -69.0 1.000 1.000 1.000
v 0.0 -68.0 -86.0 1.000 1.000 1.000
v 34.0 -176.0 -66.0 1.000 1.000 1.000
v -92.0 -70.0 -73.0 1.000 1.000 1.000
v 0.0 -68.0 -86.0 1.000 1.000 1.000
v -36.0 -175.0 -65.0 1.000 1.000 1.000
v 0.0 -173.0 -69.0 1.000 1.000 1.000
v 0.0 -68.0 -86.0 1.000 1.000 1.000
v 92.0 20.0 -73.0 1.000 1.000 1.000
v 98.0 -71.0 -75.0 1.000 1.000 1.000
v -1.0 14.0 -74.0 1.000 1.000 1.000
v 98.0 -71.0 -75.0 1.000 1.000 1.000
v 135.0 19.0 19.0 1.000 1.000 1.000
v 142.0 -96.0 64.0 1.000 1.000 1.000
v 34.0 -176.0 -66.0 1.000 1.000 1.000
v -85.0 7.0 -72.0 1.000 1.000 1.000
v -1.0 14.0 -74.0 1.000 1.000 1.000
v -132.0 18.0 20.0 1.000 1.000 1.000
v -92.0 -70.0 -73.0 1.000 1.000 1.000
v -142.0 -96.0 65.0 1.000 1.000 1.000
v -85.0 7.0 -72.0 1.000 1.000 1.000
v 0.0 -68.0 -86.0 1.000 1.000 1.000
v -92.0 -70.0 -73.0 1.000 1.000 1.000
v -132.0 18.0 20.0 1.000 1.000 1.000
v -85.0 7.0 -72.0 1.000 1.000 1.000
v -92.0 -70.0 -73.0 1.000 1.000 1.000
v -2.0 -1.0 143.0 1.000 1.000 1.000
v -63.0 2.0 133.0 1.000 1.000 1.000
v 135.0 19.0 19.0 1.000 1.000 1.000
v 63.0 5.0 133.0 1.000 1.000 1.000
v -132.0 18.0 20.0 1.000 1.000 1.000
v -132.0 18.0 20.0 1.000 1.000 1.000
v -1.0 14.0 -74.0 1.000 1.000 1.000
v 92.0 20.0 -73.0 1.000 1.000 1.000
v 135.0 19.0 19.0 1.000 1.000 1.000
v 84.1779819726944 63.144371032714844 163.0 1.000 1.000 1.000
v -75.8220180273056 59.144371032714844 160.0 1.000 1.000 1.000
v 160.1779819726944 70.14437103271484 30.0 1.000 1.000 1.000
v -149.8220180273056 67.14437103271484 28.0 1.000 1.000 1.000
v -149.8220180273056 67.14437103271484 28.0 1.000 1.000 1.000
v -95.8220180273056 74.14437103271484 -59.0 1.000 1.000 1.000
v 106.1779819726944 75.14437103271484 -62.0 1.000 1.000 1.000
v 135.0 19.0 19.0 1.000 1.000 1.000
v -85.0 7.0 -72.0 1.000 1.000 1.000
v -1.0 14.0 -74.0 1.000 1.000 1.000
v -132.0 18.0 20.0 1.000 1.000 1.000
v 106.1779819726944 75.14437103271484 -62.0 1.000 1.000 1.000
v 160.1779819726944 70.14437103271484 30.0 1.000 1.000 1.000
v -95.8220180273056 74.14437103271484 -59.0 1.000 1.000 1.000
vt 0.0352 1.0127
vt 0.0592 1.0107
vt 0.9596 0.9297
vt 0.9941 0.9268
vt 0.9030 0.5625
vt 0.2676 0.0723
vt 0.0938 0.0732
vt 0.9922 0.5752
vt 0.0495 0.0898
vt 0.3490 0.0557
vt 0.3701 0.6712
vt 0.3242 0.9889
vt 0.6611 1.0039
vt 0.8262 0.7077
vt 0.6494 0.7005
vt 0.3643 0.6862
vt 0.6084 0.6953
vt 0.3232 0.9902
vt 0.7783 1.0085
vt 1.1406 0.4678
vt 0.6572 0.5049
vt 0.3809 0.9717
vt 1.2627 0.9443
vt 0.4561 0.4346
vt 0.5010 0.4873
vt 0.4463 0.3359
vt 0.4639 0.2744
vt 0.3994 0.3691
vt 0.3564 0.3057
vt 0.4131 0.4531
vt 0.3555 0.4932
vt 0.8545 0.5723
vt 0.3838 0.5586
vt 0.6270 0.5664
vt 0.3984 0.5430
vt 0.6631 0.5579
vt 1.1338 0.2744
vt 0.6396 0.3125
vt 0.6982 0.3574
vt 0.9150 0.2415
vt 0.6572 0.1680
vt 0.8076 0.2305
vt 0.8857 0.4076
vt 0.6855 0.2832
vt 0.4316 0.3053
vt 0.6582 0.1217
vt 0.5049 0.1400
vt 0.4492 0.3236
vt 0.6836 -0.0723
vt 1.1006 -0.0586
vt 1.0605 -0.3369
vt 0.2324 -0.3535
vt 0.9674 0.9297
vt 0.0775 1.0029
vt 0.0540 1.0049
vt 1.0013 0.9268
vt 0.2357 0.0557
vt 0.8919 0.5576
vt 0.9818 0.5703
vt 0.0632 0.0547
vt 0.0202 0.0713
vt 0.3158 0.0391
vt 0.5859 0.9622
vt 0.2168 0.9622
vt 0.2969 0.6576
vt 0.5967 0.6764
vt 0.7979 0.6745
vt 0.2197 0.9622
vt 0.5664 0.6738
vt 0.2910 0.6745
vt 0.6992 0.9622
vt 1.5137 0.8057
vt 1.1084 -0.0244
vt 0.5186 -0.0645
vt 0.4355 0.8213
vt 0.5889 0.4482
vt 0.6455 0.4844
vt 0.6016 0.3633
vt 0.6465 0.2979
vt 0.5547 0.3330
vt 0.5352 0.2725
vt 0.5449 0.4326
vt 0.6260 0.5352
vt 0.3301 0.5410
vt 0.5996 0.5475
vt 0.3301 0.5488
vt 0.8350 0.5449
vt 1.0938 -0.3887
vt 0.5049 -0.4033
vt 0.9355 0.2285
vt 0.8291 0.2220
vt 0.8838 0.3867
vt 0.6582 0.1243
vt 0.6689 0.2773
vt 0.4102 0.3073
vt 0.6943 0.3457
vt 0.6660 0.1660
vt 0.4336 0.3268
vt 0.5127 0.1471
vt 0.9941 -1.0908
vt 1.6006 -1.6318
vt 0.5283 -1.5498
vt 0.4961 -1.0273
vt 0.8828 -0.4951
vt 0.1152 -1.0254
vt -0.0098 -0.4492
vt 0.8145 -1.3018
vt 0.0928 0.4150
vt 0.7715 0.8232
vt 0.2041 0.9111
vt 0.7100 0.1875
vt 0.5732 0.9844
vt 0.7832 0.0938
vt 0.1084 0.4932
vt 0.9141 0.8076
vt 0.0352 0.1396
vt 0.9951 0.9424
vt 0.4414 0.0869
vt 0.1582 0.9043
vt 1.0098 0.1670
vt 0.1826 1.3281
vt 0.1201 0.1094
vt 0.8955 1.1377
vt 0.1221 0.3438
vt 0.2988 0.3301
vt 0.1377 0.0586
vt 0.8428 0.0286
vt 0.9688 0.3431
vt 1.1221 0.3438
vt 0.7324 0.3385
vt 0.3223 0.0618
vt 0.4854 0.3385
vt 0.7061 0.0456
vt 1.1377 0.0586
vt 0.4785 0.4603
vt 0.7148 0.4603
vt 0.9658 0.4642
vt 1.1475 0.4648
vt 0.3555 0.4609
vt 0.1475 0.4648
vt 1.1699 0.5827
vt 0.9531 0.6927
vt 1.1426 0.7103
vt 0.1699 0.5827
vt 0.2656 0.8346
vt 0.2764 0.5905
vt 0.7002 0.7031
vt 0.4551 0.9134
vt 0.7441 0.8574
vt 0.1426 0.7103
vt 0.9717 0.5964
vt 0.4531 0.6875
vt 0.9521 0.6921
vt 1.1045 0.7064
vt 0.8730 0.9362
vt 1.0801 0.9668
vt 0.0801 0.9668
vt 0.1572 0.9023
vt 0.1445 0.7285
vt 0.9355 0.2471
vt 0.8301 -0.3896
vt 0.0479 0.2529
vt 0.1416 -0.6650
vt 0.2412 0.9590
vt 0.7930 0.9385
vt 0.0938 0.3730
vt 0.6846 0.2012
vt 0.0234 0.4814
vt 0.8164 0.1025
vt 0.4004 1.0088
vt 0.8105 0.9004
vt 0.4902 0.0283
vt 0.9824 0.9189
vt 0.0674 0.1025
vt 0.1357 0.8994
vt -0.0068 0.0684
vt 0.3066 1.1777
vt 0.9951 0.1582
vt 0.9092 1.1025
vt 0.0576 0.9368
vt 0.3672 0.6608
vt 0.0449 0.6491
vt 1.0449 0.6491
vt 0.9092 0.6504
vt 0.8105 0.9531
vt 0.7324 0.6523
vt 0.5596 0.6510
vt 0.4199 0.9310
vt 0.7119 0.9486
vt 1.0576 0.9368
vt 0.5791 0.5267
vt 0.7275 0.5286
vt 0.8848 0.5267
vt 1.0859 0.5254
vt 0.4248 0.5267
vt 0.0859 0.5254
vt 1.1104 0.2741
vt 0.8936 0.2904
vt 1.1211 0.4043
vt 0.2939 0.3945
vt 0.2656 0.1432
vt 0.1211 0.4043
vt 0.7510 0.1198
vt 0.5684 0.0618
vt 0.7188 0.2793
vt 0.1104 0.2741
vt 0.9033 0.3913
vt 0.5225 0.2930
vt 1.1035 0.2728
vt 0.8955 0.2897
vt 0.8467 0.0430
vt 0.9941 0.0059
vt 1.2656 0.1432
vt 1.1152 0.0749
vt 0.1152 0.0749
vt 0.1035 0.2728
vt 0.3105 0.3444
vt 0.0312 0.7591
vt 0.2949 0.9727
vt 0.2529 0.2975
vt 0.2764 0.1146
vt 0.3193 0.0475
vt 1.0850 0.7578
vt 1.0469 0.3340
vt 0.9170 0.9635
vt 0.9473 0.2611
vt 0.8037 0.0280
vt 0.9365 0.0846
vt 0.5088 0.9694
vt 0.4785 0.7240
vt 0.1777 0.6270
vt 0.8711 0.7480
vt 0.8389 0.6289
vt 0.1768 0.7500
vt 0.9209 0.1055
vt 0.5889 0.0029
vt 0.4951 0.1143
vt 0.0938 0.1982
vt 0.4863 0.3604
vt 0.9160 0.1816
vt 0.8516 0.3789
vt 0.1494 0.3916
vt 0.1533 0.6641
vt 0.3174 0.6299
vt 0.4170 0.0068
vt 0.0996 0.1260
vt 0.6445 0.6230
vt 0.0898 0.4355
vt 0.0859 0.4150
vt 0.9131 0.3994
vt 0.8135 0.6533
vt 0.9053 0.4180
vt 0.5117 0.4980
vt 0.7227 0.6908
vt 0.2637 0.6745
vt 0.3789 0.1960
vt 0.2852 0.4635
vt 0.7109 0.4831
vt 0.9141 0.4655
vt 0.9346 0.1836
vt 0.1484 0.1504
vt 0.1533 0.1152
vt 0.4248 -0.0013
vt 0.7090 0.2077
vt 0.5938 0.0514
vt 0.4023 0.0970
vt 0.4570 0.0443
vt 0.6562 0.0085
vt 0.6826 0.1081
vt 0.9385 0.1406
vt 0.1895 0.6777
vt 0.1348 0.4362
vt 0.8203 0.7051
vt 0.6406 0.7754
vt 0.3057 0.7861
vt 0.1836 0.7764
vt 0.7695 0.7607
vt 0.2148 0.7969
vt 0.2949 0.7865
vt 0.6963 0.8008
vt 0.7754 0.8138
vt 0.0713 0.2949
vt 0.4199 0.3340
vt 0.6152 0.0518
vt 0.6260 0.0371
vt 0.4434 0.3711
vt 0.0947 0.3174
vt 0.9570 0.2871
vt 0.9551 0.3018
vt 0.7070 0.3115
vt 1.0137 0.4629
vt 1.0273 0.3105
vt 1.0771 0.5518
vt 1.0664 0.3711
vt 1.0234 0.0439
vt 0.1533 0.0293
vt 1.1953 0.2725
vt 1.0762 0.0518
vt 0.1348 0.0029
vt 1.2012 0.3955
vt 1.0723 0.1641
vt 1.0449 0.6709
vt 1.0107 0.8223
vt 0.9873 0.3994
vt 0.7227 0.8486
vt 0.1709 0.3916
vt 0.9121 0.4102
vt 0.5977 0.8350
vt 0.8867 0.8350
vt 0.2090 0.0840
vt 0.1719 0.4521
vt 0.9834 0.0654
vt 1.5068 -0.3818
vt 0.9111 -0.7139
vt 0.6816 -0.2666
vt 0.2461 0.0811
vt 0.9189 0.0752
vt 0.9482 -0.7217
vt 0.2285 -0.0977
vt 1.1328 -0.3818
vt 0.8721 -0.4512
vt 0.3438 -0.3818
vt 0.2598 0.0830
vt 0.4570 0.8994
vt 0.3174 0.8965
vt 0.7705 0.8564
vt 0.6064 0.8848
vt 0.1611 0.8682
vt 0.1904 0.8906
vt 0.4766 0.9102
vt 0.6797 0.9076
vt 0.7734 0.9141
vt 0.2920 0.9167
vn 0.577 0.577 0.577
vn 0.577 0.577 0.577
vn -0.577 -0.577 -0.577
vn -0.577 -0.577 -0.577
vn -0.577 -0.577 -0.577
vn 0.577 0.577 0.577
vn 0.577 0.577 0.577
vn -0.577 -0.577 -0.577
vn 0.577 0.577 0.577
vn 0.577 0.577 0.577
vn -0.577 -0.577 -0.577
vn 0.577 0.577 0.577
vn 0.577 0.577 0.577
vn -0.577 -0.577 -0.577
vn -0.577 -0.577 -0.577
vn -0.577 -0.577 -0.577
vn -0.577 -0.577 -0.577
vn 0.577 0.577 0.577
vn 0.577 0.577 0.577
vn -0.577 -0.577 -0.577
vn -0.577 -0.577 -0.577
vn 0.577 0.577 0.577
vn 0.577 0.577 0.577
vn 0.577 0.577 0.577
vn 0.577 0.577 0.577
vn 0.577 0.577 0.577
vn 0.577 0.577 0.577
vn 0.577 0.577 0.577
vn 0.577 0.577 0.577
vn 0.577 0.577 0.577
vn 0.577 0.577 0.577
vn 0.577 0.577 0.577
vn -0.577 -0.577 -0.577
vn -0.577 -0.577 -0.577
vn -0.577 -0.577 -0.577
vn -0.577 -0.577 -0.577
vn -0.577 -0.577 -0.577
vn -0.577 -0.577 -0.577
vn -0.577 -0.577 -0.577
vn -0.577 -0.577 -0.577
vn -0.577 -0.577 -0.577
vn -0.577 -0.577 -0.577
vn -0.577 -0.577 -0.577
vn -0.577 -0.577 -0.577
vn -0.577 -0.577 -0.577
vn 0.577 0.577 0.577
vn -0.577 -0.577 -0.577
vn 0.577 0.577 0.577
vn -0.577 -0.577 -0.577
vn -0.577 -0.577 -0.577
vn -0.577 -0.577 -0.577
vn -0.577 -0.577 -0.577
vn -0.577 -0.577 -0.577
vn 0.577 0.577 0.577
vn -0.577 -0.577 -0.577
vn 0.577 0.577 0.577
vn 0.577 0.577 0.577
vn 0.577 0.577 0.577
vn 0.577 0.577 0.577
vn 0.577 0.577 0.577
vn -0.577 -0.577 -0.577
vn 0.577 0.577 0.577
vn 0.577 0.577 0.577
vn -0.577 -0.577 -0.577
vn 0.577 0.577 0.577
vn 0.577 0.577 0.577
vn -0.577 -0.577 -0.577
vn -0.577 -0.577 -0.577
vn -0.577 -0.577 -0.577
vn 0.577 0.577 0.577
vn -0.577 -0.577 -0.577
vn -0.577 -0.577 -0.577
vn -0.577 -0.577 -0.577
vn -0.577 -0.577 -0.577
vn 0.577 0.577 0.577
vn 0.577 0.577 0.577
vn -0.577 -0.577 -0.577
vn 0.577 0.577 0.577
vn -0.577 -0.577 -0.577
vn -0.577 -0.577 -0.577
vn 0.577 0.577 0.577
vn 0.577 0.577 0.577
vn 0.577 0.577 0.577
vn 0.577 0.577 0.577
vn 0.577 0.577 0.577
vn -0.577 -0.577 -0.577
vn -0.577 -0.577 -0.577
vn -0.577 -0.577 -0.577
vn 0.577 0.577 0.577
vn -0.577 -0.577 -0.577
vn -0.577 -0.577 -0.577
vn 0.577 0.577 0.577
vn 0.577 0.577 0.577
vn -0.577 -0.577 -0.577
vn -0.577 -0.577 -0.577
vn 0.577 0.577 0.577
vn 0.577 0.577 0.577
vn 0.577 0.577 0.577
vn 0.577 0.577 0.577
vn 0.577 0.577 0.577
vn 0.577 0.577 0.577
vn 0.577 0.577 0.577
vn 0.577 0.577 0.577
vn 0.577 0.577 0.577
vn -0.577 -0.577 -0.577
vn -0.577 -0.577 -0.577
vn -0.577 -0.577 -0.577
vn -0.577 -0.577 -0.577
vn 0.577 0.577 0.577
vn -0.577 -0.577 -0.577
vn -0.577 -0.577 -0.577
vn -0.577 -0.577 -0.577
vn -0.577 -0.577 -0.577
vn -0.577 -0.577 -0.577
vn -0.577 -0.577 -0.577
vn -0.577 -0.577 -0.577
vn -0.577 -0.577 -0.577
vn -0.577 -0.577 -0.577
vn 0.577 0.577 0.577
vn 0.577 0.577 0.577
vn -0.577 -0.577 -0.577
vn -0.577 -0.577 -0.577
vn -0.577 -0.577 -0.577
vn -0.577 -0.577 -0.577
vn -0.577 -0.577 -0.577
vn 0.577 0.577 0.577
vn -0.577 -0.577 -0.577
vn -0.577 -0.577 -0.577
vn -0.577 -0.577 -0.577
vn -0.577 -0.577 -0.577
vn -0.577 -0.577 -0.577
vn -0.577 -0.577 -0.577
vn -0.577 -0.577 -0.577
vn -0.577 -0.577 -0.577
vn 0.577 0.577 0.577
vn -0.577 -0.577 -0.577
vn -0.577 -0.577 -0.577
vn -0.577 -0.577 -0.577
vn -0.577 -0.577 -0.577
vn -0.577 -0.577 -0.577
vn -0.577 -0.577 -0.577
vn 0.577 0.577 0.577
vn -0.577 -0.577 -0.577
vn -0.577 -0.577 -0.577
vn -0.577 -0.577 -0.577
vn -0.577 -0.577 -0.577
vn -0.577 -0.577 -0.577
vn -0.577 -0.577 -0.577
vn -0.577 -0.577 -0.577
vn -0.577 -0.577 -0.577
vn -0.577 -0.577 -0.577
vn -0.577 -0.577 -0.577
vn -0.577 -0.577 -0.577
vn -0.577 -0.577 -0.577
vn -0.577 -0.577 -0.577
vn -0.577 -0.577 -0.577
vn -0.577 -0.577 -0.577
vn -0.577 -0.577 -0.577
vn -0.577 -0.577 -0.577
vn -0.577 -0.577 -0.577
vn -0.577 -0.577 -0.577
vn -0.577 -0.577 -0.577
vn -0.577 -0.577 -0.577
vn -0.577 -0.577 -0.577
vn -0.577 -0.577 -0.577
vn -0.577 -0.577 -0.577
vn -0.577 -0.577 -0.577
vn -0.577 -0.577 -0.577
vn -0.577 -0.577 -0.577
vn -0.577 -0.577 -0.577
vn -0.577 -0.577 -0.577
vn -0.577 -0.577 -0.577
vn -0.577 -0.577 -0.577
vn -0.577 -0.577 -0.577
vn -0.577 -0.577 -0.577
vn -0.577 -0.577 -0.577
vn -0.577 -0.577 -0.577
vn -0.577 -0.577 -0.577
vn -0.577 -0.577 -0.577
vn -0.577 -0.577 -0.577
vn -0.577 -0.577 -0.577
vn -0.577 -0.577 -0.577
vn -0.577 -0.577 -0.577
vn -0.577 -0.577 -0.577
vn -0.577 -0.577 -0.577
vn -0.577 -0.577 -0.577
vn -0.577 -0.577 -0.577
vn -0.577 -0.577 -0.577
vn -0.577 -0.577 -0.577
vn -0.577 -0.577 -0.577
vn -0.577 -0.577 -0.577
vn -0.577 -0.577 -0.577
vn -0.577 -0.577 -0.577
vn -0.577 -0.577 -0.577
vn -0.577 -0.577 -0.577
vn -0.577 -0.577 -0.577
vn -0.577 -0.577 -0.577
vn -0.577 -0.577 -0.577
vn -0.577 -0.577 -0.577
vn -0.577 -0.577 -0.577
vn -0.577 -0.577 -0.577
vn -0.577 -0.577 -0.577
vn -0.577 -0.577 -0.577
vn -0.577 -0.577 -0.577
vn -0.577 -0.577 -0.577
vn -0.577 -0.577 -0.577
vn -0.577 -0.577 -0.577
vn -0.577 -0.577 -0.577
vn -0.577 -0.577 -0.577
vn -0.577 -0.577 -0.577
vn -0.577 -0.577 -0.577
vn -0.577 -0.577 -0.577
vn -0.577 -0.577 -0.577
vn -0.577 -0.577 -0.577
vn -0.577 -0.577 -0.577
vn -0.577 -0.577 -0.577
vn -0.577 -0.577 -0.577
vn -0.577 -0.577 -0.577
vn -0.577 -0.577 -0.577
vn -0.577 -0.577 -0.577
vn -0.577 -0.577 -0.577
vn -0.577 -0.577 -0.577
vn -0.577 -0.577 -0.577
vn -0.577 -0.577 -0.577
vn -0.577 -0.577 -0.577
vn -0.577 -0.577 -0.577
vn -0.577 -0.577 -0.577
vn -0.577 -0.577 -0.577
vn -0.577 -0.577 -0.577
vn -0.577 -0.577 -0.577
vn -0.577 -0.577 -0.577
vn -0.577 -0.577 -0.577
vn -0.577 -0.577 -0.577
vn -0.577 -0.577 -0.577
vn -0.577 -0.577 -0.577
vn -0.577 -0.577 -0.577
vn -0.577 -0.577 -0.577
vn -0.577 -0.577 -0.577
vn -0.577 -0.577 -0.577
vn -0.577 -0.577 -0.577
vn -0.577 -0.577 -0.577
vn -0.577 -0.577 -0.577
vn -0.577 -0.577 -0.577
vn -0.577 -0.577 -0.577
vn -0.577 -0.577 -0.577
vn -0.577 -0.577 -0.577
vn -0.577 -0.577 -0.577
vn 0.577 0.577 0.577
vn 0.577 0.577 0.577
vn 0.577 0.577 0.577
vn 0.577 0.577 0.577
vn -0.577 -0.577 -0.577
vn -0.577 -0.577 -0.577
vn -0.577 -0.577 -0.577
vn -0.577 -0.577 -0.577
vn -0.577 -0.577 -0.577
vn -0.577 -0.577 -0.577
vn 0.577 0.577 0.577
vn 0.577 0.577 0.577
vn 0.577 0.577 0.577
vn 0.577 0.577 0.577
vn 0.577 0.577 0.577
vn 0.577 0.577 0.577
vn 0.577 0.577 0.577
vn -0.577 -0.577 -0.577
vn 0.577 0.577 0.577
vn 0.577 0.577 0.577
vn -0.577 -0.577 -0.577
vn 0.577 0.577 0.577
vn 0.577 0.577 0.577
vn -0.577 -0.577 -0.577
vn 0.577 0.577 0.577
vn -0.577 -0.577 -0.577
vn -0.577 -0.577 -0.577
vn 0.577 0.577 0.577
vn -0.577 -0.577 -0.577
vn -0.577 -0.577 -0.577
vn -0.577 -0.577 -0.577
vn 0.577 0.577 0.577
vn 0.577 0.577 0.577
vn -0.577 -0.577 -0.577
vn 0.577 0.577 0.577
vn -0.577 -0.577 -0.577
vn -0.577 -0.577 -0.577
vn -0.577 -0.577 -0.577
vn -0.577 -0.577 -0.577
vn -0.577 -0.577 -0.577
vn 0.577 0.577 0.577
vn 0.577 0.577 0.577
vn -0.577 -0.577 -0.577
vn -0.577 -0.577 -0.577
vn -0.577 -0.577 -0.577
vn -0.577 -0.577 -0.577
vn -0.577 -0.577 -0.577
vn 0.577 0.577 0.577
vn -0.577 -0.577 -0.577
vn -0.577 -0.577 -0.577
vn 0.577 0.577 0.577
vn 0.577 0.577 0.577
vn -0.577 -0.577 -0.577
vn 0.577 0.577 0.577
vn 0.577 0.577 0.577
vn 0.577 0.577 0.577
vn 0.577 0.577 0.577
vn 0.577 0.577 0.577
vn 0.577 0.577 0.577
vn 0.577 0.577 0.577
vn -0.577 -0.577 -0.577
vn -0.577 -0.577 -0.577
vn -0.577 -0.577 -0.577
vn -0.577 -0.577 -0.577
vn -0.577 -0.577 -0.577
vn -0.577 -0.577 -0.577
vn -0.577 -0.577 -0.577
vn -0.577 -0.577 -0.577
vn -0.577 -0.577 -0.577
vn -0.577 -0.577 -0.577
vn -0.577 -0.577 -0.577
vn -0.577 -0.577 -0.577
vn -0.577 -0.577 -0.577
vn -0.577 -0.577 -0.577
vn -0.577 -0.577 -0.577
vn -0.577 -0.577 -0.577
vn -0.577 -0.577 -0.577
vn -0.577 -0.577 -0.577
vn -0.577 -0.577 -0.577
vn -0.577 -0.577 -0.577
vn -0.577 -0.577 -0.577
vn -0.577 -0.577 -0.577
vn -0.577 -0.577 -0.577
vn -0.577 -0.577 -0.577
vn -0.577 -0.577 -0.577
vn -0.577 -0.577 -0.577
vn -0.577 -0.577 -0.577
vn -0.577 -0.577 -0.577
vn -0.577 -0.577 -0.577
vn -0.577 -0.577 -0.577
vn -0.577 -0.577 -0.577
vn -0.577 -0.577 -0.577
vn -0.577 -0.577 -0.577
vn -0.577 -0.577 -0.577
vn -0.577 -0.577 -0.577
vn -0.577 -0.577 -0.577
vn 0.577 0.577 0.577
vn 0.577 0.577 0.577
vn -0.577 -0.577 -0.577
vn 0.577 0.577 0.577
vn -0.577 -0.577 -0.577
vn -0.577 -0.577 -0.577
vn -0.577 -0.577 -0.577
vn -0.577 -0.577 -0.577
vn -0.577 -0.577 -0.577
vn -0.577 -0.577 -0.577
vn -0.577 -0.577 -0.577
vn -0.577 -0.577 -0.577
vn -0.577 -0.577 -0.577
vn 0.577 0.577 0.577
vn 0.577 0.577 0.577
vn -0.577 -0.577 -0.577
vn -0.577 -0.577 -0.577
vn -0.577 -0.577 -0.577
vn -0.577 -0.577 -0.577
vn 0.577 0.577 0.577
vn -0.577 -0.577 -0.577
vn -0.577 -0.577 -0.577
vn -0.577 -0.577 -0.577
vn -0.577 -0.577 -0.577
vn -0.577 -0.577 -0.577
vn -0.577 -0.577 -0.577
vn -0.577 -0.577 -0.577
vn -0.577 -0.577 -0.577
vn -0.577 -0.577 -0.577
vn -0.577 -0.577 -0.577
vn -0.577 -0.577 -0.577
vn -0.577 -0.577 -0.577
vn -0.577 -0.577 -0.577
vn 0.577 0.577 0.577
vn -0.577 -0.577 -0.577
vn -0.577 -0.577 -0.577
vn 0.577 0.577 0.577
vn -0.577 -0.577 -0.577
vn 0.577 0.577 0.577
vn -0.577 -0.577 -0.577
vn -0.577 -0.577 -0.577
vn -0.577 -0.577 -0.577
vn -0.577 -0.577 -0.577
vn -0.577 -0.577 -0.577
vn -0.577 -0.577 -0.577
vn -0.577 -0.577 -0.577
vn -0.577 -0.577 -0.577
vn -0.577 -0.577 -0.577
vn -0.577 -0.577 -0.577
vn -0.577 -0.577 -0.577
vn -0.577 -0.577 -0.577
vn 0.577 0.577 0.577
vn -0.577 -0.577 -0.577
vn -0.577 -0.577 -0.577
vn -0.577 -0.577 -0.577
vn 0.577 0.577 0.577
vn -0.577 -0.577 -0.577
vn -0.577 -0.577 -0.577
vn 0.577 0.577 0.577
vn -0.577 -0.577 -0.577
vn -0.577 -0.577 -0.577
vn 0.577 0.577 0.577
vn 0.577 0.577 0.577
vn 0.577 0.577 0.577
vn -0.577 -0.577 -0.577
vn -0.577 -0.577 -0.577
vn -0.577 -0.577 -0.577
vn -0.577 -0.577 -0.577
vn -0.577 -0.577 -0.577
vn -0.577 -0.577 -0.577
vn 0.577 0.577 0.577
vn 0.577 0.577 0.577
vn 0.577 0.577 0.577
vn 0.577 0.577 0.577
vn -0.577 -0.577 -0.577
vn 0.577 0.577 0.577
vn -0.577 -0.577 -0.577
vn -0.577 -0.577 -0.577
vn -0.577 -0.577 -0.577
vn 0.577 0.577 0.577
vn -0.577 -0.577 -0.577
vn -0.577 -0.577 -0.577
vn -0.577 -0.577 -0.577
vn -0.577 -0.577 -0.577
vn -0.577 -0.577 -0.577
vn -0.577 -0.577 -0.577
vn -0.577 -0.577 -0.577
vn -0.577 -0.577 -0.577
vn -0.577 -0.577 -0.577
vn 0.577 0.577 0.577
vn -0.577 -0.577 -0.577
vn -0.577 -0.577 -0.577
vn 0.577 0.577 0.577
vn -0.577 -0.577 -0.577
vn 0.577 0.577 0.577
vn -0.577 -0.577 -0.577
vn -0.577 -0.577 -0.577
vn 0.577 0.577 0.577
vn 0.577 0.577 0.577
vn -0.577 -0.577 -0.577
vn 0.577 0.577 0.577
vn -0.577 -0.577 -0.577
vn 0.577 0.577 0.577
vn -0.577 -0.577 -0.577
vn -0.577 -0.577 -0.577
vn -0.577 -0.577 -0.577
vn 0.577 0.577 0.577
vn 0.577 0.577 0.577
vn 0.577 0.577 0.577
vn -0.577 -0.577 -0.577
vn -0.577 -0.577 -0.577
vn -0.577 -0.577 -0.577
vn 0.577 0.577 0.577
vn -0.577 -0.577 -0.577
vn -0.577 -0.577 -0.577
vn -0.577 -0.577 -0.577
vn 0.577 0.577 0.577
vn -0.577 -0.577 -0.577
vn -0.577 -0.577 -0.577
vn -0.577 -0.577 -0.577
vn -0.577 -0.577 -0.577
vn -0.577 -0.577 -0.577
vn -0.577 -0.577 -0.577
vn -0.577 -0.577 -0.577
vn 0.577 0.577 0.577
vn 0.577 0.577 0.577
vn -0.577 -0.577 -0.577
vn -0.577 -0.577 -0.577
vn -0.577 -0.577 -0.577
vn 0.577 0.577 0.577
vn -0.577 -0.577 -0.577
vn -0.577 -0.577 -0.577
vn -0.577 -0.577 -0.577
vn -0.577 -0.577 -0.577
vn -0.577 -0.577 -0.577
vn 0.577 0.577 0.577
vn 0.577 0.577 0.577
vn -0.577 -0.577 -0.577
vn -0.577 -0.577 -0.577
vn 0.577 0.577 0.577
vn -0.577 -0.577 -0.577
usemtl tex_2033_lit_w10
f 1/1/1 2/2/2 3/3/3
f 3/3/3 2/2/2 4/4/4
f 3/3/3 5/5/5 6/6/6
f 7/7/7 8/8/8 4/4/4
f 5/5/5 3/3/3 8/8/8
f 8/8/8 3/3/3 4/4/4
f 1/1/1 9/9/9 7/7/7
f 2/2/2 1/1/1 7/7/7
f 7/7/7 10/10/10 8/8/8
f 1/1/1 6/6/6 9/9/9
f 6/6/6 5/5/5 8/8/8
f 3/3/3 6/6/6 1/1/1
f 7/7/7 4/4/4 2/2/2
f 6/6/6 8/8/8 10/10/10
usemtl tex_1718_lit_w11
f 11/11/11 12/12/12 13/13/13
f 14/14/14 15/15/15 13/13/13
f 16/16/16 17/17/17 18/18/18
f 17/17/17 19/19/19 18/18/18
f 15/15/15 11/11/11 13/13/13
f 17/17/17 14/14/14 19/19/19
f 14/14/14 13/13/13 19/19/19
usemtl tex_1715_lit
f 20/20/20 21/21/21 22/22/22
f 20/20/20 22/22/22 23/23/23
f 28/24/28 24/25/24 29/26/29
f 29/26/29 24/25/24 25/27/25
f 29/26/29 25/27/25 30/28/30
f 30/28/30 25/27/25 26/29/26
f 30/28/30 26/29/26 31/30/31
f 31/30/31 26/29/26 27/31/27
f 31/30/31 27/31/27 24/25/24
f 31/30/31 24/25/24 28/24/28
usemtl tex_1718_lit_w11
f 39/15/39 40/14/40 32/32/32
f 33/33/33 34/34/34 41/16/41
f 39/15/39 35/35/35 42/11/42
f 41/16/41 34/34/34 43/17/43
f 43/17/43 34/34/34 32/32/32
f 43/17/43 32/32/32 40/14/40
f 39/15/39 36/36/36 35/35/35
f 39/15/39 32/32/32 36/36/36
usemtl tex_1715_lit
f 44/20/44 37/37/37 38/38/38
f 44/20/44 38/38/38 45/21/45
usemtl tex_1718_lit_w11
f 53/39/53 46/40/46 47/41/47
f 48/42/48 46/40/46 54/43/54
f 55/44/55 56/45/56 49/46/49
f 48/42/48 54/43/54 55/44/55
f 47/41/47 50/47/50 57/48/57
f 53/39/53 54/43/54 46/40/46
f 48/42/48 55/44/55 49/46/49
f 53/39/53 47/41/47 57/48/57
usemtl tex_1715_lit
f 58/49/58 59/50/59 51/51/51
f 58/49/58 51/51/51 52/52/52
usemtl tex_1718_lit_w11
f 60/45/60 61/44/61 67/34/67
f 68/35/68 69/36/69 62/48/62
f 63/43/63 70/32/70 67/34/67
f 61/44/61 63/43/63 67/34/67
f 70/32/70 63/43/63 64/39/64
f 70/32/70 64/39/64 69/36/69
f 69/36/69 64/39/64 62/48/62
f 71/33/71 60/45/60 67/34/67
usemtl tex_1715_lit
f 65/50/65 66/49/66 72/38/72
f 72/38/72 73/37/73 65/50/65
usemtl tex_2033_lit_w10
f 74/53/74 75/54/75 76/55/76
f 77/56/77 75/54/75 74/53/74
f 78/57/78 79/58/79 74/53/74
f 77/56/77 80/59/80 81/60/81
f 80/59/80 74/53/74 79/58/79
f 77/56/77 74/53/74 80/59/80
f 81/60/81 82/61/82 76/55/76
f 81/60/81 76/55/76 75/54/75
f 80/59/80 83/62/83 81/60/81
f 82/61/82 78/57/78 76/55/76
f 80/59/80 79/58/79 78/57/78
f 76/55/76 78/57/78 74/53/74
f 75/54/75 77/56/77 81/60/81
f 83/62/83 80/59/80 78/57/78
usemtl tex_1718_lit_w11
f 84/63/84 85/64/85 86/65/86
f 84/63/84 87/66/87 88/67/88
f 89/68/89 90/69/90 91/70/91
f 89/68/89 92/71/92 90/69/90
f 84/63/84 86/65/86 87/66/87
f 92/71/92 84/63/84 88/67/88
f 92/71/92 88/67/88 90/69/90
usemtl tex_1715_lit
f 93/72/93 94/73/94 95/74/95
f 96/75/96 93/72/93 95/74/95
f 101/76/101 97/77/97 102/78/102
f 102/78/102 97/77/97 98/79/98
f 102/78/102 98/79/98 103/80/103
f 103/80/103 98/79/98 99/81/99
f 103/80/103 99/81/99 104/82/104
f 104/82/104 99/81/99 100/25/100
f 104/82/104 100/25/100 101/76/101
f 101/76/101 100/25/100 97/77/97
usemtl tex_1718_lit_w11
f 112/65/112 105/83/105 113/66/113
f 106/84/106 105/83/105 112/65/112
f 107/85/107 108/86/108 114/70/114
f 115/69/115 107/85/107 114/70/114
f 109/87/109 107/85/107 115/69/115
f 116/67/116 113/66/113 109/87/109
f 105/83/105 109/87/109 113/66/113
f 116/67/116 109/87/109 115/69/115
usemtl tex_1715_lit
f 117/73/117 110/88/110 118/74/118
f 110/88/110 111/89/111 118/74/118
usemtl tex_1718_lit_w11
f 119/90/119 120/91/120 126/92/126
f 120/91/120 121/93/121 127/94/127
f 128/95/128 127/94/127 121/93/121
f 119/90/119 126/92/126 129/96/129
f 122/97/122 119/90/119 129/96/129
f 122/97/122 130/98/130 123/99/123
f 122/97/122 129/96/129 130/98/130
f 126/92/126 120/91/120 127/94/127
usemtl tex_1715_lit
f 131/100/131 124/101/124 125/102/125
f 132/103/132 131/100/131 125/102/125
usemtl tex_1718_lit_w11
f 133/94/133 134/95/134 140/86/140
f 141/85/141 133/94/133 140/86/140
f 135/92/135 133/94/133 141/85/141
f 142/87/142 135/92/135 141/85/141
f 136/96/136 135/92/135 142/87/142
f 143/83/143 136/96/136 142/87/142
f 137/98/137 136/96/136 143/83/143
f 144/84/144 137/98/137 143/83/143
usemtl tex_1715_lit
f 145/88/145 138/100/138 139/103/139
f 146/89/146 145/88/145 139/103/139
usemtl tex_1609_lit
f 147/104/147 148/105/148 149/106/149
f 150/107/150 148/105/148 147/104/147
usemtl tex_1613_lit_w11
f 151/108/151 152/109/152 153/110/153
f 154/111/154 152/109/152 151/108/151
usemtl tex_1616_lit_w11
f 155/112/155 156/113/156 157/114/157
f 158/115/158 156/113/156 155/112/155
usemtl tex_1619_lit_w11
f 159/116/159 160/117/160 161/118/161
f 162/119/162 160/117/160 159/116/159
usemtl tex_1622_lit_w11
f 163/120/163 164/121/164 165/122/165
f 166/123/166 164/121/164 163/120/163
usemtl tex_2031_lit_w01
f 167/124/167 168/125/168 173/126/173
f 174/127/174 169/128/169 170/129/170
f 174/127/174 171/130/171 169/128/169
f 175/131/175 168/125/168 172/132/172
f 176/133/176 172/132/172 171/130/171
f 175/131/175 173/126/173 168/125/168
f 174/127/174 176/133/176 171/130/171
f 174/127/174 170/129/170 177/134/177
f 176/133/176 175/131/175 172/132/172
f 184/132/184 178/135/178 185/130/185
f 185/130/185 178/135/178 179/136/179
f 185/130/185 179/136/179 186/128/186
f 186/128/186 179/136/179 180/137/180
f 186/128/186 180/137/180 187/129/187
f 187/129/187 180/137/180 181/138/181
f 188/125/188 182/139/182 184/132/184
f 184/132/184 182/139/182 178/135/178
f 189/124/189 183/140/183 188/125/188
f 188/125/188 183/140/183 182/139/182
f 190/141/190 191/142/191 192/143/192
f 193/144/193 194/145/194 195/146/195
f 196/147/196 197/148/197 198/149/198
f 193/144/193 199/150/199 194/145/194
f 191/142/191 196/147/196 198/149/198
f 200/151/200 196/147/196 191/142/191
f 194/145/194 197/148/197 201/152/201
f 190/141/190 200/151/200 191/142/191
f 196/147/196 201/152/201 197/148/197
f 195/146/195 194/145/194 201/152/201
f 202/153/202 203/154/203 209/142/209
f 203/154/203 210/143/210 209/142/209
f 211/149/211 202/153/202 209/142/209
f 204/155/204 202/153/202 211/149/211
f 212/148/212 204/155/204 211/149/211
f 205/156/205 204/155/204 212/148/212
f 213/145/213 206/157/206 212/148/212
f 207/158/207 206/157/206 213/145/213
f 214/150/214 208/159/208 213/145/213
f 208/159/208 207/158/207 213/145/213
f 221/135/221 215/152/215 222/136/222
f 222/136/222 215/152/215 216/147/216
f 222/136/222 216/147/216 223/137/223
f 223/137/223 216/147/216 217/151/217
f 223/137/223 217/151/217 224/138/224
f 224/138/224 217/151/217 218/141/218
f 225/139/225 215/152/215 221/135/221
f 226/140/226 219/144/219 220/146/220
f 226/140/226 220/146/220 225/139/225
f 225/139/225 220/146/220 215/152/215
usemtl tex_1609_lit
f 227/160/227 228/161/228 229/162/229
f 229/162/229 228/161/228 230/163/230
usemtl tex_1613_lit_w11
f 231/164/231 232/165/232 233/166/233
f 233/166/233 232/165/232 234/167/234
usemtl tex_1616_lit_w11
f 235/168/235 236/169/236 237/170/237
f 237/170/237 236/169/236 238/171/238
usemtl tex_1619_lit_w11
f 239/172/239 240/173/240 241/174/241
f 241/174/241 240/173/240 242/175/242
usemtl tex_1622_lit_w11
f 243/176/243 244/177/244 245/178/245
f 245/178/245 244/177/244 246/179/246
usemtl tex_2031_lit_w01
f 253/180/253 247/181/247 248/182/248
f 249/183/249 250/184/250 254/185/254
f 250/184/250 251/186/251 254/185/254
f 252/187/252 247/181/247 255/188/255
f 251/186/251 252/187/252 256/189/256
f 247/181/247 253/180/253 255/188/255
f 251/186/251 256/189/256 254/185/254
f 257/190/257 249/183/249 254/185/254
f 252/187/252 255/188/255 256/189/256
f 264/186/264 258/191/258 265/187/265
f 259/192/259 258/191/258 264/186/264
f 266/184/266 259/192/259 264/186/264
f 260/193/260 259/192/259 266/184/266
f 267/183/267 260/193/260 266/184/266
f 261/194/261 260/193/260 267/183/267
f 265/187/265 262/195/262 268/181/268
f 258/191/258 262/195/262 265/187/265
f 268/181/268 263/196/263 269/182/269
f 262/195/262 263/196/263 268/181/268
f 270/197/270 271/198/271 272/199/272
f 273/200/273 274/201/274 275/202/275
f 276/203/276 277/204/277 278/205/278
f 274/201/274 279/206/279 275/202/275
f 276/203/276 278/205/278 271/198/271
f 271/198/271 278/205/278 280/207/280
f 281/208/281 277/204/277 274/201/274
f 271/198/271 280/207/280 272/199/272
f 277/204/277 281/208/281 278/205/278
f 281/208/281 274/201/274 273/200/273
f 289/197/289 282/209/282 290/198/290
f 290/198/290 282/209/282 283/210/283
f 290/198/290 283/210/283 291/203/291
f 291/203/291 283/210/283 284/211/284
f 291/203/291 284/211/284 292/204/292
f 292/204/292 284/211/284 285/212/285
f 292/204/292 285/212/285 293/213/293
f 293/213/293 285/212/285 286/214/286
f 294/201/294 287/215/287 295/206/295
f 295/206/295 287/215/287 288/216/288
f 302/192/302 296/208/296 303/191/303
f 297/205/297 296/208/296 302/192/302
f 304/193/304 297/205/297 302/192/302
f 298/207/298 297/205/297 304/193/304
f 305/194/305 298/207/298 304/193/304
f 299/199/299 298/207/298 305/194/305
f 303/191/303 296/208/296 306/195/306
f 300/200/300 301/202/301 307/196/307
f 306/195/306 300/200/300 307/196/307
f 296/208/296 300/200/300 306/195/306
usemtl tex_1836_lit_w01
f 315/217/315 308/218/308 309/219/309
f 310/220/310 316/221/316 317/222/317
f 311/223/311 318/224/318 312/225/312
f 318/224/318 309/219/309 312/225/312
f 318/224/318 315/217/315 309/219/309
f 313/226/313 319/227/319 320/228/320
usemtl tex_1837_lit_w01
f 314/229/314 321/230/321 322/231/322
f 323/232/323 326/233/326 324/229/324
f 326/233/326 327/230/327 324/229/324
f 325/234/325 324/229/324 328/231/328
usemtl tex_2032_lit
f 329/235/329 330/236/330 331/237/331
f 331/237/331 332/238/332 333/239/333
f 334/240/334 333/239/333 335/241/335
f 336/242/336 337/243/337 338/244/338
f 334/240/334 331/237/331 333/239/333
f 334/240/334 329/235/329 331/237/331
f 339/245/339 340/246/340 331/237/331
f 333/239/333 338/244/338 341/247/341
f 332/238/332 336/242/336 333/239/333
f 342/248/342 337/243/337 343/249/343
f 344/250/344 334/240/334 335/241/335
f 340/246/340 332/238/332 331/237/331
f 335/241/335 333/239/333 341/247/341
f 345/250/345 346/241/346 347/251/347
f 348/239/348 349/242/349 350/244/350
f 351/238/351 352/249/352 349/242/349
f 353/243/353 349/242/349 352/249/352
f 345/250/345 347/251/347 354/252/354
f 346/241/346 355/247/355 347/251/347
usemtl tex_2031_lit_w01
f 356/253/356 357/254/357 358/255/358
f 359/256/359 356/253/356 360/257/360
f 360/257/360 356/253/356 358/255/358
f 361/258/361 362/259/362 363/254/363
f 364/260/364 362/259/362 361/258/361
f 365/261/365 366/262/366 367/263/367
f 368/264/368 369/253/369 370/256/370
f 368/264/368 370/256/370 371/265/371
f 370/256/370 372/266/372 373/267/373
f 370/256/370 373/267/373 371/265/371
f 372/266/372 367/263/367 373/267/373
f 374/268/374 375/269/375 371/265/371
f 375/269/375 368/264/368 371/265/371
f 370/256/370 365/261/365 367/263/367
f 370/256/370 367/263/367 372/266/372
f 374/268/374 376/270/376 364/260/364
f 377/255/377 378/271/378 379/272/379
f 380/254/380 381/259/381 382/273/382
f 383/268/383 384/260/384 385/264/385
f 383/268/383 385/264/385 386/269/386
f 387/258/387 388/253/388 385/264/385
f 384/260/384 387/258/387 385/264/385
f 388/253/388 387/258/387 380/254/380
f 389/257/389 379/272/379 390/261/390
f 389/257/389 377/255/377 379/272/379
f 391/256/391 389/257/389 390/261/390
usemtl tex_2032_lit
f 392/274/392 400/247/400 393/275/393
f 393/275/393 401/244/401 394/276/394
f 393/275/393 400/247/400 401/244/401
f 395/277/395 402/251/402 392/274/392
f 392/274/392 402/251/402 400/247/400
f 394/276/394 401/244/401 403/243/403
usemtl tex_2031_lit_w01
f 396/278/396 404/271/404 397/279/397
f 397/279/397 404/271/404 405/255/405
f 397/279/397 405/255/405 398/280/398
f 398/280/398 405/255/405 406/254/406
f 398/280/398 406/254/406 399/281/399
f 399/281/399 406/254/406 407/273/407
usemtl tex_1713_lit
f 408/282/408 409/283/409 410/284/410
f 411/285/411 412/286/412 413/287/413
usemtl tex_1713_lit_ovl
f 414/288/414 415/289/415 416/290/416
usemtl tex_1713_lit
f 409/283/409 417/291/417 418/292/418
f 419/293/419 412/286/412 420/294/420
f 410/284/410 409/283/409 421/295/421
f 422/296/422 408/282/408 410/284/410
f 423/297/423 415/289/415 414/288/414
f 424/286/424 425/285/425 426/298/426
f 426/298/426 427/294/427 424/286/424
f 428/295/428 429/283/429 430/292/430
f 431/299/431 425/285/425 432/287/432
usemtl tex_1714_lit
f 433/300/433 434/301/434 435/302/435
f 436/303/436 437/304/437 438/305/438
f 439/306/439 440/307/440 441/308/441
f 440/307/440 442/309/442 441/308/441
f 443/304/443 444/310/444 445/311/445
f 443/304/443 446/312/446 444/310/444
f 447/313/447 448/314/448 449/315/449
f 443/304/443 445/311/445 450/305/450
f 451/316/451 452/317/452 440/307/440
f 453/318/453 454/319/454 455/320/455
f 456/316/456 457/307/457 458/306/458
f 459/321/459 460/322/460 461/323/461
usemtl tex_2032_lit
f 471/274/471 472/275/472 462/324/462
f 463/325/463 462/324/462 472/275/472
f 464/326/464 471/274/471 465/327/465
f 464/326/464 473/277/473 471/274/471
f 465/327/465 471/274/471 462/324/462
f 466/328/466 463/325/463 472/275/472
f 466/328/466 472/275/472 474/276/474
usemtl tex_2031_lit_w01
f 467/329/467 475/278/475 476/279/476
f 468/330/468 476/279/476 477/280/477
f 468/330/468 477/280/477 469/331/469
f 469/331/469 477/280/477 470/332/470
f 478/332/478 482/280/482 483/281/483
f 479/333/479 484/279/484 480/330/480
f 479/333/479 481/329/481 484/279/484
