mtllib CcommguardZ.mtl
v -1078.8555908203125 -86.70243644714355 -74.0 1.000 1.000 1.000
v -1078.8555908203125 -168.70243644714355 -68.0 1.000 1.000 1.000
v -1078.8555908203125 -43.702436447143555 191.0 1.000 1.000 1.000
v -1078.8555908203125 -162.70243644714355 200.0 1.000 1.000 1.000
v -1036.8555908203125 -78.70243644714355 177.0 1.000 1.000 1.000
v -972.8555908203125 -90.70243644714355 -4.0 1.000 1.000 1.000
v -971.8555908203125 -154.70243644714355 -49.0 1.000 1.000 1.000
v -1038.8555908203125 -134.70243644714355 203.0 1.000 1.000 1.000
v -973.8555908203125 -103.70243644714355 -62.0 1.000 1.000 1.000
v -972.8555908203125 -144.70243644714355 20.0 1.000 1.000 1.000
v -1036.8555908203125 -78.70243644714355 177.0 1.000 1.000 1.000
v -1078.8555908203125 -43.702436447143555 191.0 1.000 1.000 1.000
v -1038.8555908203125 -134.70243644714355 203.0 1.000 1.000 1.000
v -1078.8555908203125 -162.70243644714355 200.0 1.000 1.000 1.000
v -972.8555908203125 -144.70243644714355 20.0 1.000 1.000 1.000
v -972.8555908203125 -90.70243644714355 -4.0 1.000 1.000 1.000
v -639.8883666992188 -45.47519826889038 7.0 1.000 1.000 1.000
v -666.8883666992188 -59.47519826889038 -82.0 1.000 1.000 1.000
v -664.8883666992188 -181.47519826889038 -69.0 1.000 1.000 1.000
v -657.8883666992188 -172.47519826889038 48.0 1.000 1.000 1.000
v -639.8883666992188 -45.47519826889038 7.0 1.000 1.000 1.000
v -657.8883666992188 -172.47519826889038 48.0 1.000 1.000 1.000
v -973.8555908203125 -103.70243644714355 -62.0 1.000 1.000 1.000
v -972.8555908203125 -90.70243644714355 -4.0 1.000 1.000 1.000
v -971.8555908203125 -154.70243644714355 -49.0 1.000 1.000 1.000
v -972.8555908203125 -144.70243644714355 20.0 1.000 1.000 1.000
v -972.8555908203125 -90.70243644714355 -4.0 1.000 1.000 1.000
v -972.8555908203125 -144.70243644714355 20.0 1.000 1.000 1.000
v -512.8883666992188 -188.47519826889038 9.0 1.000 1.000 1.000
v -506.88836669921875 -112.47519826889038 106.0 1.000 1.000 1.000
v -523.8883666992188 -26.47519826889038 12.0 1.000 1.000 1.000
v -519.8883666992188 -114.47519826889038 -74.0 1.000 1.000 1.000
v -512.8883666992188 -188.47519826889038 9.0 1.000 1.000 1.000
v -664.8883666992188 -181.47519826889038 -69.0 1.000 1.000 1.000
v -657.8883666992188 -172.47519826889038 48.0 1.000 1.000 1.000
v -657.8883666992188 -172.47519826889038 48.0 1.000 1.000 1.000
v -639.8883666992188 -45.47519826889038 7.0 1.000 1.000 1.000
v -666.8883666992188 -59.47519826889038 -82.0 1.000 1.000 1.000
v -664.8883666992188 -181.47519826889038 -69.0 1.000 1.000 1.000
v -1000.8883666992188 -139.47519826889038 46.0 1.000 1.000 1.000
v -527.8883666992188 -125.47519826889038 87.0 1.000 1.000 1.000
v -999.8883666992188 -90.47519826889038 23.0 1.000 1.000 1.000
v -518.8883666992188 -27.47519826889038 38.0 1.000 1.000 1.000
v -521.8883666992188 -101.47519826889038 -67.0 1.000 1.000 1.000
v -972.8883666992188 -103.47519826889038 -62.0 1.000 1.000 1.000
v -522.8883666992188 -188.47519826889038 13.0 1.000 1.000 1.000
v -971.8883666992188 -149.47519826889038 -50.0 1.000 1.000 1.000
v -527.8883666992188 -125.47519826889038 87.0 1.000 1.000 1.000
v -522.8883666992188 -188.47519826889038 13.0 1.000 1.000 1.000
v -162.58901977539062 -37.63739013671875 1.0 1.000 1.000 1.000
v -162.58901977539062 -49.63739013671875 -67.0 1.000 1.000 1.000
v -162.58901977539062 -115.63739013671875 -65.0 1.000 1.000 1.000
v -162.58901977539062 -137.63739013671875 -102.0 1.000 1.000 1.000
v -163.58901977539062 -185.63739013671875 20.0 1.000 1.000 1.000
v -162.58901977539062 -191.63739013671875 -102.0 1.000 1.000 1.000
v -161.58901977539062 -189.63739013671875 133.0 1.000 1.000 1.000
v -162.58901977539062 -146.63739013671875 110.0 1.000 1.000 1.000
v -163.58901977539062 -185.63739013671875 20.0 1.000 1.000 1.000
v -162.58901977539062 -70.63739013671875 89.0 1.000 1.000 1.000
v -162.58901977539062 -17.63739013671875 13.0 1.000 1.000 1.000
v -291.5890197753906 -125.63739013671875 123.0 1.000 1.000 1.000
v -163.58901977539062 -185.63739013671875 20.0 1.000 1.000 1.000
v -162.58901977539062 -146.63739013671875 110.0 1.000 1.000 1.000
v -162.58901977539062 -115.63739013671875 -65.0 1.000 1.000 1.000
v -334.5890197753906 -188.63739013671875 13.0 1.000 1.000 1.000
v -212.58901977539062 -117.63739013671875 -67.0 1.000 1.000 1.000
v -255.58901977539062 -33.63739013671875 0.0 1.000 1.000 1.000
v -162.58901977539062 -37.63739013671875 1.0 1.000 1.000 1.000
v -162.58901977539062 -115.63739013671875 -65.0 1.000 1.000 1.000
v -334.5890197753906 -188.63739013671875 13.0 1.000 1.000 1.000
v -291.5890197753906 -125.63739013671875 123.0 1.000 1.000 1.000
v -162.58901977539062 -146.63739013671875 110.0 1.000 1.000 1.000
v -163.58901977539062 -185.63739013671875 20.0 1.000 1.000 1.000
v -91.0 -48.0 -70.0 1.000 1.000 1.000
v -132.0 19.0 20.0 1.000 1.000 1.000
v -1.0 -94.0 -88.0 1.000 1.000 1.000
v -2.0 -113.0 143.0 1.000 1.000 1.000
v -63.0 -65.0 133.0 1.000 1.000 1.000
v -132.0 19.0 20.0 1.000 1.000 1.000
v -1.0 -94.0 -88.0 1.000 1.000 1.000
v -162.58901977539062 -17.63739013671875 13.0 1.000 1.000 1.000
v -162.58901977539062 -49.63739013671875 -67.0 1.000 1.000 1.000
v -162.58901977539062 -137.63739013671875 -102.0 1.000 1.000 1.000
v -162.58901977539062 -191.63739013671875 -102.0 1.000 1.000 1.000
v -161.58901977539062 -189.63739013671875 133.0 1.000 1.000 1.000
v -162.58901977539062 -70.63739013671875 89.0 1.000 1.000 1.000
v -162.58901977539062 -17.63739013671875 13.0 1.000 1.000 1.000
v -162.58901977539062 -191.63739013671875 -102.0 1.000 1.000 1.000
v -212.58901977539062 -117.63739013671875 -67.0 1.000 1.000 1.000
v -255.58901977539062 -33.63739013671875 0.0 1.000 1.000 1.000
v -334.5890197753906 -188.63739013671875 13.0 1.000 1.000 1.000
v -291.5890197753906 -125.63739013671875 123.0 1.000 1.000 1.000
v -523.8883666992188 -26.47519826889038 12.0 1.000 1.000 1.000
v -519.8883666992188 -114.47519826889038 -74.0 1.000 1.000 1.000
v -506.88836669921875 -112.47519826889038 106.0 1.000 1.000 1.000
v -512.8883666992188 -188.47519826889038 9.0 1.000 1.000 1.000
v -527.5890197753906 -125.63739013671875 87.0 1.000 1.000 1.000
v -163.58901977539062 -185.63739013671875 20.0 1.000 1.000 1.000
v -166.58901977539062 -144.63739013671875 124.0 1.000 1.000 1.000
v -162.58901977539062 -115.63739013671875 -73.0 1.000 1.000 1.000
v -522.5890197753906 -188.63739013671875 13.0 1.000 1.000 1.000
v -522.5890197753906 -101.63739013671875 -67.0 1.000 1.000 1.000
v -519.5890197753906 -27.63739013671875 38.0 1.000 1.000 1.000
v -162.58901977539062 -30.63739013671875 27.0 1.000 1.000 1.000
v -162.58901977539062 -30.63739013671875 27.0 1.000 1.000 1.000
v -166.58901977539062 -144.63739013671875 124.0 1.000 1.000 1.000
v -163.58901977539062 -185.63739013671875 20.0 1.000 1.000 1.000
v -162.58901977539062 -115.63739013671875 -73.0 1.000 1.000 1.000
v -527.5890197753906 -125.63739013671875 87.0 1.000 1.000 1.000
v -522.5890197753906 -188.63739013671875 13.0 1.000 1.000 1.000
v 1087.927879333496 -45.380823612213135 190.0 1.000 1.000 1.000
v 1087.927879333496 -171.38082361221313 -68.0 1.000 1.000 1.000
v 1087.927879333496 -89.38082361221313 -74.0 1.000 1.000 1.000
v 1087.927879333496 -164.38082361221313 200.0 1.000 1.000 1.000
v 982.9278793334961 -92.38082361221313 -4.0 1.000 1.000 1.000
v 1044.927879333496 -83.38082361221313 177.0 1.000 1.000 1.000
v 1047.927879333496 -135.38082361221313 203.0 1.000 1.000 1.000
v 980.9278793334961 -151.38082361221313 -49.0 1.000 1.000 1.000
v 981.9278793334961 -106.38082361221313 -62.0 1.000 1.000 1.000
v 981.9278793334961 -141.38082361221313 20.0 1.000 1.000 1.000
v 1047.927879333496 -135.38082361221313 203.0 1.000 1.000 1.000
v 1087.927879333496 -45.380823612213135 190.0 1.000 1.000 1.000
v 1044.927879333496 -83.38082361221313 177.0 1.000 1.000 1.000
v 1087.927879333496 -164.38082361221313 200.0 1.000 1.000 1.000
v 982.9278793334961 -92.38082361221313 -4.0 1.000 1.000 1.000
v 981.9278793334961 -141.38082361221313 20.0 1.000 1.000 1.000
v 675.3251266479492 -68.09517669677734 -85.0 1.000 1.000 1.000
v 660.3251266479492 -61.095176696777344 -1.0 1.000 1.000 1.000
v 660.3251266479492 -179.09517669677734 47.0 1.000 1.000 1.000
v 674.3251266479492 -176.09517669677734 -71.0 1.000 1.000 1.000
v 660.3251266479492 -61.095176696777344 -1.0 1.000 1.000 1.000
v 660.3251266479492 -179.09517669677734 47.0 1.000 1.000 1.000
v 981.9278793334961 -106.38082361221313 -62.0 1.000 1.000 1.000
v 982.9278793334961 -92.38082361221313 -4.0 1.000 1.000 1.000
v 980.9278793334961 -151.38082361221313 -49.0 1.000 1.000 1.000
v 981.9278793334961 -141.38082361221313 20.0 1.000 1.000 1.000
v 981.9278793334961 -141.38082361221313 20.0 1.000 1.000 1.000
v 982.9278793334961 -92.38082361221313 -4.0 1.000 1.000 1.000
v 522.3251266479492 -189.09517669677734 9.0 1.000 1.000 1.000
v 515.3251266479492 -115.09517669677734 106.0 1.000 1.000 1.000
v 532.3251266479492 -23.095176696777344 14.0 1.000 1.000 1.000
v 528.3251266479492 -111.09517669677734 -67.0 1.000 1.000 1.000
v 522.3251266479492 -189.09517669677734 9.0 1.000 1.000 1.000
v 660.3251266479492 -179.09517669677734 47.0 1.000 1.000 1.000
v 674.3251266479492 -176.09517669677734 -71.0 1.000 1.000 1.000
v 660.3251266479492 -61.095176696777344 -1.0 1.000 1.000 1.000
v 660.3251266479492 -179.09517669677734 47.0 1.000 1.000 1.000
v 675.3251266479492 -68.09517669677734 -85.0 1.000 1.000 1.000
v 674.3251266479492 -176.09517669677734 -71.0 1.000 1.000 1.000
v 1009.3251266479492 -95.09517669677734 23.0 1.000 1.000 1.000
v 536.3251266479492 -130.09517669677734 87.0 1.000 1.000 1.000
v 1009.3251266479492 -144.09517669677734 46.0 1.000 1.000 1.000
v 982.3251266479492 -108.09517669677734 -62.0 1.000 1.000 1.000
v 531.3251266479492 -106.09517669677734 -67.0 1.000 1.000 1.000
v 528.3251266479492 -31.095176696777344 38.0 1.000 1.000 1.000
v 531.3251266479492 -193.09517669677734 13.0 1.000 1.000 1.000
v 981.3251266479492 -153.09517669677734 -49.0 1.000 1.000 1.000
v 531.3251266479492 -193.09517669677734 13.0 1.000 1.000 1.000
v 536.3251266479492 -130.09517669677734 87.0 1.000 1.000 1.000
v 171.1657943725586 -65.35110473632812 88.0 1.000 1.000 1.000
v 172.1657943725586 -39.351104736328125 1.0 1.000 1.000 1.000
v 172.1657943725586 -21.351104736328125 13.0 1.000 1.000 1.000
v 172.1657943725586 -142.35110473632812 111.0 1.000 1.000 1.000
v 171.1657943725586 -198.35110473632812 133.0 1.000 1.000 1.000
v 172.1657943725586 -190.35110473632812 20.0 1.000 1.000 1.000
v 171.1657943725586 -196.35110473632812 -102.0 1.000 1.000 1.000
v 172.1657943725586 -117.35110473632812 -66.0 1.000 1.000 1.000
v 171.1657943725586 -125.35110473632812 -103.0 1.000 1.000 1.000
v 171.1657943725586 -39.351104736328125 -67.0 1.000 1.000 1.000
v 172.1657943725586 -142.35110473632812 111.0 1.000 1.000 1.000
v 172.1657943725586 -190.35110473632812 20.0 1.000 1.000 1.000
v 300.1657943725586 -128.35110473632812 123.0 1.000 1.000 1.000
v 343.1657943725586 -187.35110473632812 12.0 1.000 1.000 1.000
v 172.1657943725586 -117.35110473632812 -66.0 1.000 1.000 1.000
v 224.1657943725586 -94.35110473632812 -67.0 1.000 1.000 1.000
v 172.1657943725586 -142.35110473632812 111.0 1.000 1.000 1.000
v 300.1657943725586 -128.35110473632812 123.0 1.000 1.000 1.000
v 264.1657943725586 -33.351104736328125 12.0 1.000 1.000 1.000
v 224.1657943725586 -94.35110473632812 -67.0 1.000 1.000 1.000
v 172.1657943725586 -39.351104736328125 1.0 1.000 1.000 1.000
v 224.1657943725586 -94.35110473632812 -67.0 1.000 1.000 1.000
v 172.1657943725586 -117.35110473632812 -66.0 1.000 1.000 1.000
v 172.1657943725586 -39.351104736328125 1.0 1.000 1.000 1.000
v 172.1657943725586 -190.35110473632812 20.0 1.000 1.000 1.000
v 343.1657943725586 -187.35110473632812 12.0 1.000 1.000 1.000
v 92.0 -46.0 -73.0 1.000 1.000 1.000
v 143.0 19.0 25.0 1.000 1.000 1.000
v -1.0 -94.0 -88.0 1.000 1.000 1.000
v 143.0 19.0 25.0 1.000 1.000 1.000
v 67.0 -61.0 136.0 1.000 1.000 1.000
v -2.0 -113.0 143.0 1.000 1.000 1.000
v -1.0 -94.0 -88.0 1.000 1.000 1.000
v 171.1657943725586 -39.351104736328125 -67.0 1.000 1.000 1.000
v 171.1657943725586 -125.35110473632812 -103.0 1.000 1.000 1.000
v 172.1657943725586 -21.351104736328125 13.0 1.000 1.000 1.000
v 171.1657943725586 -196.35110473632812 -102.0 1.000 1.000 1.000
v 171.1657943725586 -65.35110473632812 88.0 1.000 1.000 1.000
v 172.1657943725586 -21.351104736328125 13.0 1.000 1.000 1.000
v 171.1657943725586 -198.35110473632812 133.0 1.000 1.000 1.000
v 171.1657943725586 -196.35110473632812 -102.0 1.000 1.000 1.000
v 264.1657943725586 -33.351104736328125 12.0 1.000 1.000 1.000
v 224.1657943725586 -94.35110473632812 -67.0 1.000 1.000 1.000
v 343.1657943725586 -187.35110473632812 12.0 1.000 1.000 1.000
v 300.1657943725586 -128.35110473632812 123.0 1.000 1.000 1.000
v 532.3251266479492 -23.095176696777344 14.0 1.000 1.000 1.000
v 515.3251266479492 -115.09517669677734 106.0 1.000 1.000 1.000
v 528.3251266479492 -111.09517669677734 -67.0 1.000 1.000 1.000
v 522.3251266479492 -189.09517669677734 9.0 1.000 1.000 1.000
v 175.1657943725586 -148.35110473632812 124.0 1.000 1.000 1.000
v 173.1657943725586 -189.35110473632812 20.0 1.000 1.000 1.000
v 537.1657943725586 -129.35110473632812 87.0 1.000 1.000 1.000
v 531.1657943725586 -193.35110473632812 13.0 1.000 1.000 1.000
v 171.1657943725586 -119.35110473632812 -73.0 1.000 1.000 1.000
v 172.1657943725586 -35.351104736328125 27.0 1.000 1.000 1.000
v 528.1657943725586 -31.351104736328125 38.0 1.000 1.000 1.000
v 531.1657943725586 -106.35110473632812 -67.0 1.000 1.000 1.000
v 171.1657943725586 -119.35110473632812 -73.0 1.000 1.000 1.000
v 173.1657943725586 -189.35110473632812 20.0 1.000 1.000 1.000
v 175.1657943725586 -148.35110473632812 124.0 1.000 1.000 1.000
v 172.1657943725586 -35.351104736328125 27.0 1.000 1.000 1.000
v 531.1657943725586 -193.35110473632812 13.0 1.000 1.000 1.000
v 537.1657943725586 -129.35110473632812 87.0 1.000 1.000 1.000
v 370.1021728515625 -27.755651995539665 -42.76123380661011 1.000 1.000 1.000
v 339.1021728515625 37.244348004460335 -27.761233806610107 1.000 1.000 1.000
v 381.1021728515625 -31.755651995539665 56.23876619338989 1.000 1.000 1.000
v 349.1021728515625 62.244348004460335 51.23876619338989 1.000 1.000 1.000
v 266.1021728515625 11.244348004460335 -28.761233806610107 1.000 1.000 1.000
v 264.1021728515625 27.244348004460335 36.23876619338989 1.000 1.000 1.000
v 339.1021728515625 37.244348004460335 -27.761233806610107 1.000 1.000 1.000
v 349.1021728515625 62.244348004460335 51.23876619338989 1.000 1.000 1.000
v 339.1021728515625 37.244348004460335 -27.761233806610107 1.000 1.000 1.000
v 370.1021728515625 -27.755651995539665 -42.76123380661011 1.000 1.000 1.000
v 266.1021728515625 11.244348004460335 -28.761233806610107 1.000 1.000 1.000
v 264.1021728515625 -28.755651995539665 -25.761233806610107 1.000 1.000 1.000
v 263.1021728515625 -33.755651995539665 32.23876619338989 1.000 1.000 1.000
v 381.1021728515625 -31.755651995539665 56.23876619338989 1.000 1.000 1.000
v 264.1021728515625 27.244348004460335 36.23876619338989 1.000 1.000 1.000
v 349.1021728515625 62.244348004460335 51.23876619338989 1.000 1.000 1.000
v 381.1021728515625 -31.755651995539665 56.23876619338989 1.000 1.000 1.000
v 263.1021728515625 -33.755651995539665 32.23876619338989 1.000 1.000 1.000
v 370.1021728515625 -27.755651995539665 -42.76123380661011 1.000 1.000 1.000
v 264.1021728515625 -28.755651995539665 -25.761233806610107 1.000 1.000 1.000
v 489.6571079492569 393.8121757507324 52.07913017272949 1.000 1.000 1.000
v 483.6571079492569 317.8121757507324 49.07913017272949 1.000 1.000 1.000
v 484.6571079492569 313.8121757507324 -5.920869827270508 1.000 1.000 1.000
v 486.6571079492569 381.8121757507324 -42.92086982727051 1.000 1.000 1.000
v 484.6571079492569 433.8121757507324 7.079130172729492 1.000 1.000 1.000
v 263.1021728515625 -33.755651995539665 32.23876619338989 1.000 1.000 1.000
v 264.1021728515625 -28.755651995539665 -25.761233806610107 1.000 1.000 1.000
v 264.1021728515625 27.244348004460335 36.23876619338989 1.000 1.000 1.000
v 266.1021728515625 11.244348004460335 -28.761233806610107 1.000 1.000 1.000
v 411.6571079492569 415.8121757507324 7.079130172729492 1.000 1.000 1.000
v 413.6571079492569 381.8121757507324 -30.920869827270508 1.000 1.000 1.000
v 412.6571079492569 329.8121757507324 -6.920869827270508 1.000 1.000 1.000
v 410.6571079492569 337.8121757507324 53.07913017272949 1.000 1.000 1.000
v 411.6571079492569 413.8121757507324 50.07913017272949 1.000 1.000 1.000
v 486.6571079492569 381.8121757507324 -42.92086982727051 1.000 1.000 1.000
v 484.6571079492569 433.8121757507324 7.079130172729492 1.000 1.000 1.000
v 484.6571079492569 313.8121757507324 -5.920869827270508 1.000 1.000 1.000
v 483.6571079492569 317.8121757507324 49.07913017272949 1.000 1.000 1.000
v 489.6571079492569 393.8121757507324 52.07913017272949 1.000 1.000 1.000
v 695.6571079492569 349.8121757507324 41.07913017272949 1.000 1.000 1.000
v 402.6571079492569 398.8121757507324 91.07913017272949 1.000 1.000 1.000
v 396.6571079492569 297.8121757507324 89.07913017272949 1.000 1.000 1.000
v 398.6571079492569 292.8121757507324 -24.920869827270508 1.000 1.000 1.000
v 696.6571079492569 354.8121757507324 -17.920869827270508 1.000 1.000 1.000
v 404.6571079492569 408.8121757507324 -46.92086982727051 1.000 1.000 1.000
v 697.6571079492569 411.8121757507324 45.07913017272949 1.000 1.000 1.000
v 699.6571079492569 394.8121757507324 -20.920869827270508 1.000 1.000 1.000
v 263.85553324222565 324.87169647216797 69.0 1.000 1.000 1.000
v 274.85553324222565 319.87169647216797 -12.0 1.000 1.000 1.000
v 339.85553324222565 340.87169647216797 61.0 1.000 1.000 1.000
v 333.85553324222565 388.87169647216797 80.0 1.000 1.000 1.000
v 186.85553324222565 379.87169647216797 89.0 1.000 1.000 1.000
v 175.85553324222565 369.87169647216797 -66.0 1.000 1.000 1.000
v 140.85553324222565 403.87169647216797 10.0 1.000 1.000 1.000
v 268.85553324222565 388.87169647216797 -57.0 1.000 1.000 1.000
v 333.85553324222565 325.87169647216797 -10.0 1.000 1.000 1.000
v 274.85553324222565 439.87169647216797 17.0 1.000 1.000 1.000
v -53.86859130859375 220.30655002593994 67.0 1.000 1.000 1.000
v -55.86859130859375 210.30655002593994 -17.0 1.000 1.000 1.000
v -51.86859130859375 353.30655002593994 -49.0 1.000 1.000 1.000
v -51.86859130859375 375.30655002593994 26.0 1.000 1.000 1.000
v -52.86859130859375 335.30655002593994 75.0 1.000 1.000 1.000
v 263.85553324222565 324.87169647216797 69.0 1.000 1.000 1.000
v 274.85553324222565 319.87169647216797 -12.0 1.000 1.000 1.000
v 175.85553324222565 369.87169647216797 -66.0 1.000 1.000 1.000
v 140.85553324222565 403.87169647216797 10.0 1.000 1.000 1.000
v 186.85553324222565 379.87169647216797 89.0 1.000 1.000 1.000
v 268.85553324222565 388.87169647216797 -57.0 1.000 1.000 1.000
v 333.85553324222565 325.87169647216797 -10.0 1.000 1.000 1.000
v 339.85553324222565 340.87169647216797 61.0 1.000 1.000 1.000
v 333.85553324222565 388.87169647216797 80.0 1.000 1.000 1.000
v 274.85553324222565 439.87169647216797 17.0 1.000 1.000 1.000
v 268.85553324222565 388.87169647216797 -57.0 1.000 1.000 1.000
v 333.85553324222565 388.87169647216797 80.0 1.000 1.000 1.000
v 412.6571079492569 329.8121757507324 -6.920869827270508 1.000 1.000 1.000
v 413.6571079492569 381.8121757507324 -30.920869827270508 1.000 1.000 1.000
v 410.6571079492569 337.8121757507324 53.07913017272949 1.000 1.000 1.000
v 411.6571079492569 413.8121757507324 50.07913017272949 1.000 1.000 1.000
v 413.6571079492569 381.8121757507324 -30.920869827270508 1.000 1.000 1.000
v 411.6571079492569 415.8121757507324 7.079130172729492 1.000 1.000 1.000
v 411.6571079492569 413.8121757507324 50.07913017272949 1.000 1.000 1.000
v 94.85553324222565 289.87169647216797 80.0 1.000 1.000 1.000
v 64.85553324222565 283.87169647216797 -47.0 1.000 1.000 1.000
v 396.85553324222565 297.87169647216797 89.0 1.000 1.000 1.000
v 402.85553324222565 398.87169647216797 91.0 1.000 1.000 1.000
v 151.85553324222565 400.87169647216797 66.0 1.000 1.000 1.000
v 148.85553324222565 412.87169647216797 -35.0 1.000 1.000 1.000
v 404.85553324222565 408.87169647216797 -47.0 1.000 1.000 1.000
v 398.85553324222565 292.87169647216797 -25.0 1.000 1.000 1.000
v -785.0662807226181 361.1454210281372 55.0 1.000 1.000 1.000
v -744.0662807226181 433.1454210281372 -27.0 1.000 1.000 1.000
v -773.0662807226181 366.1454210281372 -44.0 1.000 1.000 1.000
v -756.0662807226181 457.1454210281372 52.0 1.000 1.000 1.000
v -744.0662807226181 433.1454210281372 -27.0 1.000 1.000 1.000
v -670.0662807226181 422.1454210281372 42.0 1.000 1.000 1.000
v -669.0662807226181 405.1454210281372 -27.0 1.000 1.000 1.000
v -756.0662807226181 457.1454210281372 52.0 1.000 1.000 1.000
v -669.0662807226181 405.1454210281372 -27.0 1.000 1.000 1.000
v -773.0662807226181 366.1454210281372 -44.0 1.000 1.000 1.000
v -744.0662807226181 433.1454210281372 -27.0 1.000 1.000 1.000
v -667.0662807226181 365.1454210281372 -25.0 1.000 1.000 1.000
v -670.0662807226181 422.1454210281372 42.0 1.000 1.000 1.000
v -785.0662807226181 361.1454210281372 55.0 1.000 1.000 1.000
v -667.0662807226181 358.1454210281372 42.0 1.000 1.000 1.000
v -756.0662807226181 457.1454210281372 52.0 1.000 1.000 1.000
v -773.0662807226181 366.1454210281372 -44.0 1.000 1.000 1.000
v -667.0662807226181 358.1454210281372 42.0 1.000 1.000 1.000
v -785.0662807226181 361.1454210281372 55.0 1.000 1.000 1.000
v -667.0662807226181 365.1454210281372 -25.0 1.000 1.000 1.000
v -476.19768941402435 335.83887100219727 -10.0 1.000 1.000 1.000
v -475.19768941402435 338.83887100219727 45.0 1.000 1.000 1.000
v -475.19768941402435 338.83887100219727 45.0 1.000 1.000 1.000
v -481.19768941402435 401.83887100219727 50.0 1.000 1.000 1.000
v -476.19768941402435 390.83887100219727 -46.0 1.000 1.000 1.000
v -476.19768941402435 335.83887100219727 -10.0 1.000 1.000 1.000
v -475.19768941402435 441.83887100219727 5.0 1.000 1.000 1.000
v -667.0662807226181 365.1454210281372 -25.0 1.000 1.000 1.000
v -667.0662807226181 358.1454210281372 42.0 1.000 1.000 1.000
v -667.0662807226181 358.1454210281372 42.0 1.000 1.000 1.000
v -667.0662807226181 365.1454210281372 -25.0 1.000 1.000 1.000
v -670.0662807226181 422.1454210281372 42.0 1.000 1.000 1.000
v -669.0662807226181 405.1454210281372 -27.0 1.000 1.000 1.000
v -403.19768941402435 338.83887100219727 -10.0 1.000 1.000 1.000
v -403.19768941402435 345.83887100219727 51.0 1.000 1.000 1.000
v -403.19768941402435 424.83887100219727 6.0 1.000 1.000 1.000
v -404.19768941402435 390.83887100219727 -32.0 1.000 1.000 1.000
v -403.19768941402435 338.83887100219727 -10.0 1.000 1.000 1.000
v -403.19768941402435 420.83887100219727 49.0 1.000 1.000 1.000
v -403.19768941402435 345.83887100219727 51.0 1.000 1.000 1.000
v -476.19768941402435 335.83887100219727 -10.0 1.000 1.000 1.000
v -475.19768941402435 338.83887100219727 45.0 1.000 1.000 1.000
v -475.19768941402435 441.83887100219727 5.0 1.000 1.000 1.000
v -476.19768941402435 390.83887100219727 -46.0 1.000 1.000 1.000
v -476.19768941402435 335.83887100219727 -10.0 1.000 1.000 1.000
v -481.19768941402435 401.83887100219727 50.0 1.000 1.000 1.000
v -475.19768941402435 338.83887100219727 45.0 1.000 1.000 1.000
v -391.19768941402435 313.83887100219727 85.0 1.000 1.000 1.000
v -397.19768941402435 414.83887100219727 89.0 1.000 1.000 1.000
v -688.1976894140244 358.83887100219727 42.0 1.000 1.000 1.000
v -688.1976894140244 364.83887100219727 -25.0 1.000 1.000 1.000
v -391.19768941402435 311.83887100219727 -28.0 1.000 1.000 1.000
v -690.1976894140244 421.83887100219727 42.0 1.000 1.000 1.000
v -397.19768941402435 427.83887100219727 -49.0 1.000 1.000 1.000
v -690.1976894140244 405.83887100219727 -27.0 1.000 1.000 1.000
v -332.2357143163681 347.22493743896484 62.0 1.000 1.000 1.000
v -267.2357143163681 327.22493743896484 -16.0 1.000 1.000 1.000
v -258.2357143163681 331.22493743896484 66.0 1.000 1.000 1.000
v -325.2357143163681 333.22493743896484 -10.0 1.000 1.000 1.000
v -332.2357143163681 347.22493743896484 62.0 1.000 1.000 1.000
v -181.2357143163681 385.22493743896484 88.0 1.000 1.000 1.000
v -326.2357143163681 395.22493743896484 81.0 1.000 1.000 1.000
v -259.2357143163681 397.22493743896484 -55.0 1.000 1.000 1.000
v -133.2357143163681 412.22493743896484 11.0 1.000 1.000 1.000
v -167.2357143163681 379.22493743896484 -67.0 1.000 1.000 1.000
v -258.2357143163681 331.22493743896484 66.0 1.000 1.000 1.000
v -267.2357143163681 327.22493743896484 -16.0 1.000 1.000 1.000
v -325.2357143163681 333.22493743896484 -10.0 1.000 1.000 1.000
v -267.2357143163681 447.22493743896484 21.0 1.000 1.000 1.000
v -440.86859130859375 220.30655002593994 68.0 1.000 1.000 1.000
v -439.86859130859375 208.30655002593994 -19.0 1.000 1.000 1.000
v -445.86859130859375 334.30655002593994 75.0 1.000 1.000 1.000
v -439.86859130859375 208.30655002593994 -19.0 1.000 1.000 1.000
v -445.86859130859375 354.30655002593994 -50.0 1.000 1.000 1.000
v -444.86859130859375 372.30655002593994 27.0 1.000 1.000 1.000
v -445.86859130859375 334.30655002593994 75.0 1.000 1.000 1.000
v -267.2357143163681 327.22493743896484 -16.0 1.000 1.000 1.000
v -258.2357143163681 331.22493743896484 66.0 1.000 1.000 1.000
v -167.2357143163681 379.22493743896484 -67.0 1.000 1.000 1.000
v -267.2357143163681 327.22493743896484 -16.0 1.000 1.000 1.000
v -133.2357143163681 412.22493743896484 11.0 1.000 1.000 1.000
v -181.2357143163681 385.22493743896484 88.0 1.000 1.000 1.000
v -258.2357143163681 331.22493743896484 66.0 1.000 1.000 1.000
v -325.2357143163681 333.22493743896484 -10.0 1.000 1.000 1.000
v -332.2357143163681 347.22493743896484 62.0 1.000 1.000 1.000
v -267.2357143163681 447.22493743896484 21.0 1.000 1.000 1.000
v -259.2357143163681 397.22493743896484 -55.0 1.000 1.000 1.000
v -325.2357143163681 333.22493743896484 -10.0 1.000 1.000 1.000
v -332.2357143163681 347.22493743896484 62.0 1.000 1.000 1.000
v -326.2357143163681 395.22493743896484 81.0 1.000 1.000 1.000
v -403.19768941402435 338.83887100219727 -10.0 1.000 1.000 1.000
v -403.19768941402435 345.83887100219727 51.0 1.000 1.000 1.000
v -403.19768941402435 424.83887100219727 6.0 1.000 1.000 1.000
v -404.19768941402435 390.83887100219727 -32.0 1.000 1.000 1.000
v -403.19768941402435 338.83887100219727 -10.0 1.000 1.000 1.000
v -403.19768941402435 420.83887100219727 49.0 1.000 1.000 1.000
v -403.19768941402435 345.83887100219727 51.0 1.000 1.000 1.000
v -145.2357143163681 417.22493743896484 68.0 1.000 1.000 1.000
v -89.2357143163681 306.22493743896484 81.0 1.000 1.000 1.000
v -57.2357143163681 302.22493743896484 -45.0 1.000 1.000 1.000
v -141.2357143163681 431.22493743896484 -33.0 1.000 1.000 1.000
v -391.2357143163681 314.22493743896484 85.0 1.000 1.000 1.000
v -397.2357143163681 415.22493743896484 89.0 1.000 1.000 1.000
v -397.2357143163681 428.22493743896484 -49.0 1.000 1.000 1.000
v -391.2357143163681 311.22493743896484 -28.0 1.000 1.000 1.000
v -254.86859130859375 376.30655002593994 70.0 1.000 1.000 1.000
v -198.86859130859375 437.30655002593994 0.0 1.000 1.000 1.000
v -304.86859130859375 437.30655002593994 0.0 1.000 1.000 1.000
v -198.86859130859375 437.30655002593994 0.0 1.000 1.000 1.000
v -226.86859130859375 413.30655002593994 -45.0 1.000 1.000 1.000
v -304.86859130859375 437.30655002593994 0.0 1.000 1.000 1.000
v -288.86859130859375 414.30655002593994 -41.0 1.000 1.000 1.000
v -6.576026916503906 442.42901611328125 73.0 1.000 1.000 1.000
v -51.576026916503906 469.42901611328125 44.0 1.000 1.000 1.000
v 49.423973083496094 468.42901611328125 44.0 1.000 1.000 1.000
v -46.576026916503906 482.42901611328125 -31.0 1.000 1.000 1.000
v 27.423973083496094 480.42901611328125 -37.0 1.000 1.000 1.000
v 27.423973083496094 480.42901611328125 -37.0 1.000 1.000 1.000
v -46.576026916503906 482.42901611328125 -31.0 1.000 1.000 1.000
v -252.86859130859375 185.30655002593994 -84.0 1.000 1.000 1.000
v -150.86859130859375 91.30655002593994 -68.0 1.000 1.000 1.000
v -360.86859130859375 90.30655002593994 -66.0 1.000 1.000 1.000
v -321.86859130859375 336.30655002593994 -96.0 1.000 1.000 1.000
v -356.86859130859375 197.30655002593994 -74.0 1.000 1.000 1.000
v -51.86859130859375 375.30655002593994 26.0 1.000 1.000 1.000
v -226.86859130859375 413.30655002593994 -45.0 1.000 1.000 1.000
v -198.86859130859375 437.30655002593994 0.0 1.000 1.000 1.000
v -161.86859130859375 196.30655002593994 -80.0 1.000 1.000 1.000
v -55.86859130859375 210.30655002593994 -17.0 1.000 1.000 1.000
v -51.86859130859375 353.30655002593994 -49.0 1.000 1.000 1.000
v -288.86859130859375 414.30655002593994 -41.0 1.000 1.000 1.000
v -444.86859130859375 372.30655002593994 27.0 1.000 1.000 1.000
v -304.86859130859375 437.30655002593994 0.0 1.000 1.000 1.000
v -445.86859130859375 354.30655002593994 -50.0 1.000 1.000 1.000
v -170.86859130859375 336.30655002593994 -96.0 1.000 1.000 1.000
v -360.86859130859375 90.30655002593994 -66.0 1.000 1.000 1.000
v -394.86859130859375 86.30655002593994 20.0 1.000 1.000 1.000
v -439.86859130859375 208.30655002593994 -19.0 1.000 1.000 1.000
v -150.86859130859375 91.30655002593994 -68.0 1.000 1.000 1.000
v -55.86859130859375 210.30655002593994 -17.0 1.000 1.000 1.000
v -105.86859130859375 86.30655002593994 21.0 1.000 1.000 1.000
v -226.86859130859375 413.30655002593994 -45.0 1.000 1.000 1.000
v -51.86859130859375 353.30655002593994 -49.0 1.000 1.000 1.000
v -170.86859130859375 336.30655002593994 -96.0 1.000 1.000 1.000
v -161.86859130859375 196.30655002593994 -80.0 1.000 1.000 1.000
v -252.86859130859375 185.30655002593994 -84.0 1.000 1.000 1.000
v -356.86859130859375 197.30655002593994 -74.0 1.000 1.000 1.000
v -445.86859130859375 354.30655002593994 -50.0 1.000 1.000 1.000
v -321.86859130859375 336.30655002593994 -96.0 1.000 1.000 1.000
v -51.86859130859375 375.30655002593994 26.0 1.000 1.000 1.000
v -198.86859130859375 437.30655002593994 0.0 1.000 1.000 1.000
v -254.86859130859375 376.30655002593994 70.0 1.000 1.000 1.000
v -445.86859130859375 334.30655002593994 75.0 1.000 1.000 1.000
v -253.86859130859375 236.30655002593994 189.0 1.000 1.000 1.000
v -52.86859130859375 335.30655002593994 75.0 1.000 1.000 1.000
v -93.86859130859375 223.30655002593994 161.0 1.000 1.000 1.000
v -401.86859130859375 223.30655002593994 161.0 1.000 1.000 1.000
v -394.86859130859375 86.30655002593994 20.0 1.000 1.000 1.000
v -323.86859130859375 95.30655002593994 163.0 1.000 1.000 1.000
v -444.86859130859375 372.30655002593994 27.0 1.000 1.000 1.000
v -304.86859130859375 437.30655002593994 0.0 1.000 1.000 1.000
v -180.86859130859375 95.30655002593994 163.0 1.000 1.000 1.000
v -439.86859130859375 208.30655002593994 -19.0 1.000 1.000 1.000
v -440.86859130859375 220.30655002593994 68.0 1.000 1.000 1.000
v -53.86859130859375 220.30655002593994 67.0 1.000 1.000 1.000
v -53.86859130859375 220.30655002593994 67.0 1.000 1.000 1.000
v -93.86859130859375 223.30655002593994 161.0 1.000 1.000 1.000
v -105.86859130859375 86.30655002593994 21.0 1.000 1.000 1.000
v -253.86859130859375 236.30655002593994 189.0 1.000 1.000 1.000
v -401.86859130859375 223.30655002593994 161.0 1.000 1.000 1.000
v -323.86859130859375 95.30655002593994 163.0 1.000 1.000 1.000
v -445.86859130859375 334.30655002593994 75.0 1.000 1.000 1.000
v -440.86859130859375 220.30655002593994 68.0 1.000 1.000 1.000
v -394.86859130859375 86.30655002593994 20.0 1.000 1.000 1.000
v -55.86859130859375 210.30655002593994 -17.0 1.000 1.000 1.000
v -180.86859130859375 95.30655002593994 163.0 1.000 1.000 1.000
v -125.0 67.0 20.0 1.000 1.000 1.000
v -89.0 73.0 -59.0 1.000 1.000 1.000
v 95.0 75.0 -62.0 1.000 1.000 1.000
v 131.0 69.0 21.0 1.000 1.000 1.000
v 75.0 63.0 143.0 1.000 1.000 1.000
v -71.0 60.0 140.0 1.000 1.000 1.000
v -125.0 67.0 20.0 1.000 1.000 1.000
v 131.0 69.0 21.0 1.000 1.000 1.000
v -394.86859130859375 86.30655002593994 20.0 1.000 1.000 1.000
v -360.86859130859375 90.30655002593994 -66.0 1.000 1.000 1.000
v -150.86859130859375 91.30655002593994 -68.0 1.000 1.000 1.000
v -105.86859130859375 86.30655002593994 21.0 1.000 1.000 1.000
v -180.86859130859375 95.30655002593994 163.0 1.000 1.000 1.000
v -323.86859130859375 95.30655002593994 163.0 1.000 1.000 1.000
v -105.86859130859375 86.30655002593994 21.0 1.000 1.000 1.000
v -394.86859130859375 86.30655002593994 20.0 1.000 1.000 1.000
v -42.86859130859375 427.30655002593994 -70.0 1.000 1.000 1.000
v -115.86859130859375 33.30655002593994 -37.0 1.000 1.000 1.000
v -395.86859130859375 32.30655002593994 -35.0 1.000 1.000 1.000
v -461.86859130859375 424.30655002593994 -72.0 1.000 1.000 1.000
v -63.86859130859375 387.30655002593994 148.0 1.000 1.000 1.000
v -461.86859130859375 424.30655002593994 -72.0 1.000 1.000 1.000
v -441.86859130859375 384.30655002593994 147.0 1.000 1.000 1.000
v -63.86859130859375 387.30655002593994 148.0 1.000 1.000 1.000
v -384.86859130859375 37.30655002593994 141.0 1.000 1.000 1.000
v -118.86859130859375 38.30655002593994 141.0 1.000 1.000 1.000
v -42.86859130859375 427.30655002593994 -70.0 1.000 1.000 1.000
v -395.86859130859375 32.30655002593994 -35.0 1.000 1.000 1.000
v -384.86859130859375 37.30655002593994 141.0 1.000 1.000 1.000
v -115.86859130859375 33.30655002593994 -37.0 1.000 1.000 1.000
v -42.86859130859375 427.30655002593994 -70.0 1.000 1.000 1.000
v -118.86859130859375 38.30655002593994 141.0 1.000 1.000 1.000
v -63.86859130859375 387.30655002593994 148.0 1.000 1.000 1.000
v -441.86859130859375 384.30655002593994 147.0 1.000 1.000 1.000
v -384.86859130859375 37.30655002593994 141.0 1.000 1.000 1.000
v -384.86859130859375 37.30655002593994 141.0 1.000 1.000 1.000
v -461.86859130859375 424.30655002593994 -72.0 1.000 1.000 1.000
v -63.86859130859375 387.30655002593994 148.0 1.000 1.000 1.000
v -118.86859130859375 38.30655002593994 141.0 1.000 1.000 1.000
v -42.86859130859375 427.30655002593994 -70.0 1.000 1.000 1.000
v -395.86859130859375 32.30655002593994 -35.0 1.000 1.000 1.000
v -115.86859130859375 33.30655002593994 -37.0 1.000 1.000 1.000
v -384.86859130859375 37.30655002593994 141.0 1.000 1.000 1.000
v -118.86859130859375 38.30655002593994 141.0 1.000 1.000 1.000
v -132.0 19.0 20.0 1.000 1.000 1.000
v -125.0 67.0 20.0 1.000 1.000 1.000
v -91.0 -48.0 -70.0 1.000 1.000 1.000
v -89.0 73.0 -59.0 1.000 1.000 1.000
v -1.0 -94.0 -88.0 1.000 1.000 1.000
v 95.0 75.0 -62.0 1.000 1.000 1.000
v 92.0 -46.0 -73.0 1.000 1.000 1.000
v 143.0 19.0 25.0 1.000 1.000 1.000
v 131.0 69.0 21.0 1.000 1.000 1.000
v -91.0 -48.0 -70.0 1.000 1.000 1.000
v -89.0 73.0 -59.0 1.000 1.000 1.000
v -91.0 -48.0 -70.0 1.000 1.000 1.000
v -71.0 60.0 140.0 1.000 1.000 1.000
v -63.0 -65.0 133.0 1.000 1.000 1.000
v -2.0 -113.0 143.0 1.000 1.000 1.000
v -132.0 19.0 20.0 1.000 1.000 1.000
v -71.0 60.0 140.0 1.000 1.000 1.000
v -125.0 67.0 20.0 1.000 1.000 1.000
v 92.0 -46.0 -73.0 1.000 1.000 1.000
v 95.0 75.0 -62.0 1.000 1.000 1.000
v 92.0 -46.0 -73.0 1.000 1.000 1.000
v -63.0 -65.0 133.0 1.000 1.000 1.000
v 143.0 19.0 25.0 1.000 1.000 1.000
v 131.0 69.0 21.0 1.000 1.000 1.000
v 75.0 63.0 143.0 1.000 1.000 1.000
v 67.0 -61.0 136.0 1.000 1.000 1.000
v -2.0 -113.0 143.0 1.000 1.000 1.000
v -191.0 -199.0 -80.0 1.000 1.000 1.000
v -142.0 72.0 -35.0 1.000 1.000 1.000
v 138.0 73.0 -37.0 1.000 1.000 1.000
v 188.0 -198.0 -80.0 1.000 1.000 1.000
v -131.0 77.0 141.0 1.000 1.000 1.000
v -155.0 -199.0 132.0 1.000 1.000 1.000
v 156.0 -198.0 143.0 1.000 1.000 1.000
v -142.0 72.0 -35.0 1.000 1.000 1.000
v -191.0 -199.0 -80.0 1.000 1.000 1.000
v 188.0 -198.0 -80.0 1.000 1.000 1.000
v 138.0 73.0 -37.0 1.000 1.000 1.000
v 135.0 78.0 141.0 1.000 1.000 1.000
v 135.0 78.0 141.0 1.000 1.000 1.000
v 135.0 78.0 141.0 1.000 1.000 1.000
v 138.0 73.0 -37.0 1.000 1.000 1.000
v -131.0 77.0 141.0 1.000 1.000 1.000
vt 0.1204 0.9365
vt 0.1393 0.9365
vt 0.9427 0.9492
vt 0.9707 0.9502
vt 0.8887 0.8662
vt 0.3099 0.7334
vt 0.1673 0.7305
vt 0.9694 0.8711
vt 0.1283 0.7324
vt 0.3815 0.7354
vt 0.3574 0.8366
vt 0.1582 0.9212
vt 0.6660 0.8398
vt 0.8174 0.9206
vt 0.7295 0.7096
vt 0.4268 0.7090
vt 0.2467 0.0898
vt -0.0221 0.1367
vt 0.0169 0.1338
vt 0.3802 0.1260
vt 0.2188 0.0495
vt 0.9170 0.0840
vt 0.1396 0.0482
vt 0.2715 0.2617
vt 0.3672 0.0677
vt 0.7412 0.9792
vt 0.4746 0.7663
vt 0.1650 0.9635
vt 0.0850 0.7969
vt 0.4814 0.7852
vt 0.2246 1.0000
vt 0.8223 0.7702
vt 0.7822 0.9883
vt 0.7803 0.9837
vt 0.6777 0.5755
vt 0.6172 0.9837
vt 0.3516 0.5677
vt 0.5977 0.5703
vt 0.6582 0.9603
vt 0.8867 0.5703
vt 0.8086 0.9596
vt 0.1611 0.9538
vt 0.1895 0.9538
vt 0.3389 0.9557
vt 0.3896 0.9564
vt 0.4990 0.9603
vt 0.5137 0.9583
vt 0.5098 0.9570
vt 0.4053 0.9570
vt 0.2373 0.9538
vt 0.1172 0.9525
vt 0.5439 0.4570
vt 0.8223 0.2695
vt 0.6367 0.2708
vt 0.5049 0.2728
vt 0.8291 0.5143
vt 0.5107 0.3451
vt 0.1289 0.4128
vt 0.1494 0.2793
vt 0.2334 0.7806
vt 0.0254 0.9674
vt 0.1240 0.6771
vt 0.1064 0.9681
vt 0.3320 0.9701
vt 0.4648 0.8516
vt 0.4707 0.9720
vt 0.5088 0.8717
vt 0.3682 0.8008
vt 0.2080 0.6784
vt 0.5107 0.8444
vt 0.8320 0.2604
vt 0.6973 0.2624
vt 0.6006 0.2591
vt 0.3203 0.2598
vt 0.9421 0.9590
vt 0.0807 0.9453
vt 0.0579 0.9453
vt 0.9759 0.9600
vt 0.2721 0.7627
vt 0.8893 0.8838
vt 0.9766 0.8887
vt 0.1211 0.7578
vt 0.0775 0.7588
vt 0.3516 0.7617
vt 0.4951 0.8372
vt -0.1025 0.9147
vt 0.1650 0.8301
vt 0.6533 0.9212
vt 0.2568 0.7031
vt 0.5674 0.7031
vt -0.0638 0.2148
vt 0.2155 0.1914
vt 0.3763 0.1943
vt -0.0156 0.2129
vt 0.2285 0.0436
vt 0.9775 0.0501
vt 0.6572 0.0332
vt 0.7324 0.2461
vt 0.8389 0.0124
vt 0.3613 0.9538
vt 0.5527 0.7500
vt 0.7539 0.9590
vt 0.2441 0.7702
vt 0.3867 0.9759
vt 0.5400 0.7689
vt 0.7441 0.9785
vt 0.7979 0.7630
vt 0.5244 0.9818
vt 0.6436 0.5658
vt 0.7314 0.9792
vt 0.5781 0.9577
vt 0.5420 0.5618
vt 0.2275 0.5638
vt 0.9092 0.5573
vt 0.7705 0.9538
vt 0.8125 0.9622
vt 0.8740 0.9655
vt 0.9150 0.9661
vt 0.6377 0.9616
vt 0.5293 0.9596
vt 0.6963 0.9616
vt 0.6777 0.9609
vt 0.8740 0.9629
vt 0.6699 0.2637
vt 0.8281 0.2650
vt 0.6133 0.4440
vt 0.8076 0.5085
vt 0.5850 0.2611
vt 0.5068 0.3346
vt 0.3008 0.3880
vt 0.3252 0.2585
vt 0.6543 0.1068
vt 0.7451 0.0306
vt 0.5020 0.0306
vt 0.7002 0.7826
vt 0.8740 0.9753
vt 0.6543 0.9740
vt 0.8271 0.6862
vt 0.9199 0.9785
vt 0.8350 0.6895
vt 0.6641 0.8001
vt 0.7002 0.2474
vt 0.8721 0.2428
vt 0.5781 0.2461
vt 0.2207 0.2513
vt 0.9404 0.1973
vt 0.8486 0.8975
vt 0.0400 -0.1865
vt 0.1396 0.8428
vt 0.1650 0.9502
vt 0.6514 0.8584
vt 0.1123 0.4043
vt 0.6846 0.1924
vt 0.0566 0.4736
vt 0.7939 0.1279
vt 0.2998 1.0146
vt 0.7188 0.9805
vt 0.8760 0.0107
vt 0.9277 0.9609
vt 0.3359 0.1406
vt 0.0820 0.8867
vt 0.0361 0.1963
vt 0.3301 1.2891
vt 0.9785 0.2402
vt 0.8975 1.1865
vt 0.7021 0.9902
vt 0.4785 0.6882
vt 0.7930 0.6823
vt 0.8047 0.6829
vt 0.6768 0.9902
vt 0.5225 0.6810
vt 0.3096 0.6771
vt 0.4492 0.9896
vt 0.5117 0.9915
vt 0.3652 0.5605
vt 0.5059 0.5645
vt 0.7217 0.5658
vt 0.6924 0.5645
vt 0.3789 0.5612
vt 0.8223 0.9694
vt 0.4648 0.5853
vt 0.8701 0.5729
vt 0.8818 0.5723
vt 0.7949 0.9701
vt 0.4141 0.5853
vt 0.5674 0.9759
vt 0.6338 0.9746
vt 0.7139 0.3281
vt 0.7324 0.3431
vt 0.6660 0.4492
vt 0.4668 0.4375
vt 0.4727 0.2012
vt 0.4971 0.1797
vt 0.3535 0.1230
vt 0.4434 0.3288
vt 0.7207 0.4382
vt 0.2373 0.3385
vt 0.7441 0.3255
vt 0.7568 0.3424
vt 0.7070 0.1100
vt 0.7012 0.0749
vt 0.7139 0.1406
vt 0.9336 1.0225
vt 0.2793 -0.0967
vt 0.5635 0.9990
vt 1.0049 -0.1309
vt 0.1426 0.9824
vt -0.2451 0.3545
vt 0.8281 0.1393
vt 0.8369 0.0938
vt 0.3965 0.2246
vt 0.3398 0.2194
vt 0.8955 0.7861
vt 0.1035 0.0996
vt -0.0107 0.8125
vt 0.8223 -0.1611
vt 0.0850 0.4453
vt 0.7510 0.8340
vt 0.2080 0.9951
vt 0.6885 0.1719
vt 0.3242 1.0166
vt 0.7939 0.0508
vt 0.0518 0.5684
vt 0.7686 0.8701
vt 0.2949 0.2197
vt 1.0254 0.9375
vt 0.8516 0.0967
vt 0.1211 0.8896
vt 0.9766 0.2373
vt 0.2539 1.0918
vt 0.0596 0.2559
vt 0.8174 0.9775
vt 0.6963 0.9518
vt 0.5352 0.6335
vt 0.3672 0.6322
vt 0.3164 0.9538
vt 0.7920 0.6374
vt 0.4990 0.6458
vt 0.6973 0.9596
vt 0.6660 0.9596
vt 0.5488 0.6380
vt 0.8047 0.6387
vt 0.4014 0.9622
vt 0.3105 0.6341
vt 0.4785 0.9622
vt 0.5371 0.5091
vt 0.3447 0.5085
vt 0.3926 0.5130
vt 0.5498 0.5163
vt 0.7930 0.5169
vt 0.4072 0.5130
vt 0.7607 0.5156
vt 0.8945 0.5514
vt 0.2295 0.5664
vt 0.7520 0.9609
vt 0.7080 0.9616
vt 0.9121 0.5508
vt 0.3340 0.9694
vt 0.1465 0.5671
vt 0.4424 0.9681
vt 0.3281 0.3874
vt 0.5459 0.2767
vt 0.3516 0.2604
vt 0.5342 0.3750
vt 0.7529 0.3971
vt 0.5752 0.1413
vt 0.5312 0.3854
vt 0.5225 0.2721
vt 0.4541 0.0599
vt 0.6064 0.1185
vt 0.8262 0.2721
vt 0.8447 0.2884
vt 0.8174 0.3854
vt 0.2881 0.2839
vt 0.3652 0.2578
vt 0.5479 0.2793
vt 0.3506 0.0632
vt 0.8838 0.2910
vt 0.8545 0.0443
vt 0.8604 0.0137
vt 0.8535 0.0788
vt 0.1738 0.1947
vt 0.8945 0.1042
vt 0.9160 0.0566
vt 0.0820 0.1888
vt 0.4248 0.8997
vt 0.4150 0.5358
vt 0.0449 0.3971
vt 0.9102 0.5651
vt 0.8838 0.3887
vt 0.0293 0.5788
vt 0.0947 0.3314
vt 0.7100 0.3275
vt 0.5273 0.2585
vt 0.3184 0.5833
vt 0.4727 0.7474
vt 0.9980 0.5723
vt 1.0029 0.2428
vt 0.8750 0.7337
vt 0.4551 0.3711
vt 0.7207 0.5156
vt 0.1846 0.5111
vt 0.2705 0.1413
vt 0.1885 0.3490
vt 0.9609 0.0898
vt 0.5107 0.0267
vt 0.5811 -0.0072
vt 0.6865 0.3561
vt 0.9580 0.3392
vt 0.9609 0.1224
vt 0.3506 0.0234
vt -0.0449 0.0827
vt 0.3096 -0.0104
vt -0.0469 0.1100
vt 0.6562 0.1445
vt 0.0977 0.5150
vt -0.0234 0.3314
vt 0.8359 0.5247
vt 0.9600 0.1257
vt 0.6221 0.0326
vt 0.4961 0.1178
vt 0.0605 0.1712
vt 0.5020 0.3171
vt 0.9590 0.1836
vt 0.8672 0.3411
vt 0.1660 0.3301
vt 0.1855 0.5254
vt 0.3477 0.5156
vt 0.0625 0.1159
vt 0.3799 0.0286
vt 0.6738 0.5202
vt 0.0791 0.3509
vt 0.0762 0.3333
vt 0.9600 0.3464
vt 0.8447 0.5365
vt 0.9551 0.3613
vt 0.1396 0.6061
vt 0.2324 0.5970
vt 0.7021 0.6003
vt 0.7959 0.6094
vt 0.6787 0.6237
vt 0.3447 0.6224
vt 0.2217 0.6113
vt 0.8076 0.6165
vt 1.0742 0.0651
vt 0.8213 0.5755
vt 0.2305 0.5879
vt 0.1885 0.0840
vt 0.9453 0.1107
vt -0.0244 0.0625
vt 0.0303 0.1165
vt 0.2061 0.5801
vt 0.8516 0.5788
vt 0.9912 0.0579
vt 0.1816 0.5866
vt 0.8584 0.5846
vt 0.0586 0.9316
vt 0.8613 0.9160
vt 0.1797 0.9486
vt 0.9336 0.9473
vt 0.0918 0.9492
vt 1.0117 0.9473
vn -0.577 -0.577 -0.577
vn -0.577 -0.577 -0.577
vn -0.577 -0.577 -0.577
vn -0.577 -0.577 -0.577
vn -0.577 -0.577 -0.577
vn -0.577 -0.577 -0.577
vn -0.577 -0.577 -0.577
vn -0.577 -0.577 -0.577
vn -0.577 -0.577 -0.577
vn -0.577 -0.577 -0.577
vn -0.577 -0.577 -0.577
vn -0.577 -0.577 -0.577
vn -0.577 -0.577 -0.577
vn -0.577 -0.577 -0.577
vn -0.577 -0.577 -0.577
vn -0.577 -0.577 -0.577
vn 0.577 0.577 0.577
vn 0.577 0.577 0.577
vn -0.577 -0.577 -0.577
vn -0.577 -0.577 -0.577
vn 0.577 0.577 0.577
vn -0.577 -0.577 -0.577
vn -0.577 -0.577 -0.577
vn -0.577 -0.577 -0.577
vn -0.577 -0.577 -0.577
vn -0.577 -0.577 -0.577
vn -0.577 -0.577 -0.577
vn -0.577 -0.577 -0.577
vn 0.577 0.577 0.577
vn -0.577 -0.577 -0.577
vn 0.577 0.577 0.577
vn 0.577 0.577 0.577
vn 0.577 0.577 0.577
vn -0.577 -0.577 -0.577
vn -0.577 -0.577 -0.577
vn -0.577 -0.577 -0.577
vn 0.577 0.577 0.577
vn 0.577 0.577 0.577
vn -0.577 -0.577 -0.577
vn 0.577 0.577 0.577
vn -0.577 -0.577 -0.577
vn 0.577 0.577 0.577
vn -0.577 -0.577 -0.577
vn -0.577 -0.577 -0.577
vn 0.577 0.577 0.577
vn -0.577 -0.577 -0.577
vn 0.577 0.577 0.577
vn -0.577 -0.577 -0.577
vn -0.577 -0.577 -0.577
vn 0.577 0.577 0.577
vn 0.577 0.577 0.577
vn 0.577 0.577 0.577
vn 0.577 0.577 0.577
vn 0.577 0.577 0.577
vn 0.577 0.577 0.577
vn -0.577 -0.577 -0.577
vn -0.577 -0.577 -0.577
vn 0.577 0.577 0.577
vn 0.577 0.577 0.577
vn 0.577 0.577 0.577
vn -0.577 -0.577 -0.577
vn 0.577 0.577 0.577
vn -0.577 -0.577 -0.577
vn 0.577 0.577 0.577
vn 0.577 0.577 0.577
vn 0.577 0.577 0.577
vn 0.577 0.577 0.577
vn 0.577 0.577 0.577
vn 0.577 0.577 0.577
vn 0.577 0.577 0.577
vn -0.577 -0.577 -0.577
vn -0.577 -0.577 -0.577
vn 0.577 0.577 0.577
vn -0.577 -0.577 -0.577
vn -0.577 -0.577 -0.577
vn 0.577 0.577 0.577
vn -0.577 -0.577 -0.577
vn -0.577 -0.577 -0.577
vn -0.577 -0.577 -0.577
vn 0.577 0.577 0.577
vn 0.577 0.577 0.577
vn 0.577 0.577 0.577
vn 0.577 0.577 0.577
vn 0.577 0.577 0.577
vn -0.577 -0.577 -0.577
vn 0.577 0.577 0.577
vn 0.577 0.577 0.577
vn 0.577 0.577 0.577
vn 0.577 0.577 0.577
vn 0.577 0.577 0.577
vn 0.577 0.577 0.577
vn -0.577 -0.577 -0.577
vn 0.577 0.577 0.577
vn 0.577 0.577 0.577
vn -0.577 -0.577 -0.577
vn 0.577 0.577 0.577
vn -0.577 -0.577 -0.577
vn -0.577 -0.577 -0.577
vn -0.577 -0.577 -0.577
vn -0.577 -0.577 -0.577
vn -0.577 -0.577 -0.577
vn -0.577 -0.577 -0.577
vn -0.577 -0.577 -0.577
vn 0.577 0.577 0.577
vn -0.577 -0.577 -0.577
vn -0.577 -0.577 -0.577
vn -0.577 -0.577 -0.577
vn -0.577 -0.577 -0.577
vn -0.577 -0.577 -0.577
vn -0.577 -0.577 -0.577
vn -0.577 -0.577 -0.577
vn -0.577 -0.577 -0.577
vn -0.577 -0.577 -0.577
vn -0.577 -0.577 -0.577
vn -0.577 -0.577 -0.577
vn -0.577 -0.577 -0.577
vn -0.577 -0.577 -0.577
vn -0.577 -0.577 -0.577
vn -0.577 -0.577 -0.577
vn -0.577 -0.577 -0.577
vn -0.577 -0.577 -0.577
vn -0.577 -0.577 -0.577
vn -0.577 -0.577 -0.577
vn -0.577 -0.577 -0.577
vn -0.577 -0.577 -0.577
vn -0.577 -0.577 -0.577
vn 0.577 0.577 0.577
vn 0.577 0.577 0.577
vn -0.577 -0.577 -0.577
vn 0.577 0.577 0.577
vn 0.577 0.577 0.577
vn -0.577 -0.577 -0.577
vn -0.577 -0.577 -0.577
vn -0.577 -0.577 -0.577
vn -0.577 -0.577 -0.577
vn -0.577 -0.577 -0.577
vn -0.577 -0.577 -0.577
vn -0.577 -0.577 -0.577
vn 0.577 0.577 0.577
vn -0.577 -0.577 -0.577
vn 0.577 0.577 0.577
vn 0.577 0.577 0.577
vn 0.577 0.577 0.577
vn -0.577 -0.577 -0.577
vn 0.577 0.577 0.577
vn 0.577 0.577 0.577
vn -0.577 -0.577 -0.577
vn 0.577 0.577 0.577
vn 0.577 0.577 0.577
vn 0.577 0.577 0.577
vn -0.577 -0.577 -0.577
vn 0.577 0.577 0.577
vn 0.577 0.577 0.577
vn -0.577 -0.577 -0.577
vn -0.577 -0.577 -0.577
vn -0.577 -0.577 -0.577
vn 0.577 0.577 0.577
vn -0.577 -0.577 -0.577
vn -0.577 -0.577 -0.577
vn 0.577 0.577 0.577
vn 0.577 0.577 0.577
vn 0.577 0.577 0.577
vn -0.577 -0.577 -0.577
vn -0.577 -0.577 -0.577
vn 0.577 0.577 0.577
vn 0.577 0.577 0.577
vn 0.577 0.577 0.577
vn 0.577 0.577 0.577
vn 0.577 0.577 0.577
vn -0.577 -0.577 -0.577
vn 0.577 0.577 0.577
vn -0.577 -0.577 -0.577
vn 0.577 0.577 0.577
vn 0.577 0.577 0.577
vn 0.577 0.577 0.577
vn -0.577 -0.577 -0.577
vn -0.577 -0.577 -0.577
vn 0.577 0.577 0.577
vn 0.577 0.577 0.577
vn 0.577 0.577 0.577
vn 0.577 0.577 0.577
vn 0.577 0.577 0.577
vn 0.577 0.577 0.577
vn 0.577 0.577 0.577
vn 0.577 0.577 0.577
vn -0.577 -0.577 -0.577
vn -0.577 -0.577 -0.577
vn 0.577 0.577 0.577
vn -0.577 -0.577 -0.577
vn -0.577 -0.577 -0.577
vn -0.577 -0.577 -0.577
vn 0.577 0.577 0.577
vn 0.577 0.577 0.577
vn 0.577 0.577 0.577
vn 0.577 0.577 0.577
vn 0.577 0.577 0.577
vn 0.577 0.577 0.577
vn 0.577 0.577 0.577
vn -0.577 -0.577 -0.577
vn 0.577 0.577 0.577
vn 0.577 0.577 0.577
vn 0.577 0.577 0.577
vn 0.577 0.577 0.577
vn -0.577 -0.577 -0.577
vn 0.577 0.577 0.577
vn -0.577 -0.577 -0.577
vn 0.577 0.577 0.577
vn 0.577 0.577 0.577
vn -0.577 -0.577 -0.577
vn -0.577 -0.577 -0.577
vn -0.577 -0.577 -0.577
vn -0.577 -0.577 -0.577
vn -0.577 -0.577 -0.577
vn 0.577 0.577 0.577
vn -0.577 -0.577 -0.577
vn -0.577 -0.577 -0.577
vn -0.577 -0.577 -0.577
vn -0.577 -0.577 -0.577
vn -0.577 -0.577 -0.577
vn -0.577 -0.577 -0.577
vn -0.577 -0.577 -0.577
vn -0.577 -0.577 -0.577
vn -0.577 -0.577 -0.577
vn -0.577 -0.577 -0.577
vn -0.577 -0.577 -0.577
vn -0.577 -0.577 -0.577
vn -0.577 -0.577 -0.577
vn -0.577 -0.577 -0.577
vn -0.577 -0.577 -0.577
vn -0.577 -0.577 -0.577
vn -0.577 -0.577 -0.577
vn -0.577 -0.577 -0.577
vn -0.577 -0.577 -0.577
vn 0.577 0.577 0.577
vn 0.577 0.577 0.577
vn -0.577 -0.577 -0.577
vn -0.577 -0.577 -0.577
vn -0.577 -0.577 -0.577
vn -0.577 -0.577 -0.577
vn 0.577 0.577 0.577
vn -0.577 -0.577 -0.577
vn 0.577 0.577 0.577
vn -0.577 -0.577 -0.577
vn -0.577 -0.577 -0.577
vn -0.577 -0.577 -0.577
vn -0.577 -0.577 -0.577
vn -0.577 -0.577 -0.577
vn 0.577 0.577 0.577
vn 0.577 0.577 0.577
vn -0.577 -0.577 -0.577
vn -0.577 -0.577 -0.577
vn -0.577 -0.577 -0.577
vn -0.577 -0.577 -0.577
vn -0.577 -0.577 -0.577
vn -0.577 -0.577 -0.577
vn -0.577 -0.577 -0.577
vn -0.577 -0.577 -0.577
vn -0.577 -0.577 -0.577
vn -0.577 -0.577 -0.577
vn -0.577 -0.577 -0.577
vn -0.577 -0.577 -0.577
vn 0.577 0.577 0.577
vn -0.577 -0.577 -0.577
vn 0.577 0.577 0.577
vn 0.577 0.577 0.577
vn 0.577 0.577 0.577
vn -0.577 -0.577 -0.577
vn 0.577 0.577 0.577
vn 0.577 0.577 0.577
vn -0.577 -0.577 -0.577
vn -0.577 -0.577 -0.577
vn -0.577 -0.577 -0.577
vn -0.577 -0.577 -0.577
vn -0.577 -0.577 -0.577
vn -0.577 -0.577 -0.577
vn -0.577 -0.577 -0.577
vn -0.577 -0.577 -0.577
vn -0.577 -0.577 -0.577
vn -0.577 -0.577 -0.577
vn -0.577 -0.577 -0.577
vn -0.577 -0.577 -0.577
vn -0.577 -0.577 -0.577
vn -0.577 -0.577 -0.577
vn -0.577 -0.577 -0.577
vn -0.577 -0.577 -0.577
vn -0.577 -0.577 -0.577
vn -0.577 -0.577 -0.577
vn -0.577 -0.577 -0.577
vn -0.577 -0.577 -0.577
vn -0.577 -0.577 -0.577
vn -0.577 -0.577 -0.577
vn -0.577 -0.577 -0.577
vn -0.577 -0.577 -0.577
vn -0.577 -0.577 -0.577
vn -0.577 -0.577 -0.577
vn -0.577 -0.577 -0.577
vn -0.577 -0.577 -0.577
vn -0.577 -0.577 -0.577
vn -0.577 -0.577 -0.577
vn -0.577 -0.577 -0.577
vn -0.577 -0.577 -0.577
vn -0.577 -0.577 -0.577
vn -0.577 -0.577 -0.577
vn -0.577 -0.577 -0.577
vn -0.577 -0.577 -0.577
vn 0.577 0.577 0.577
vn -0.577 -0.577 -0.577
vn -0.577 -0.577 -0.577
vn -0.577 -0.577 -0.577
vn -0.577 -0.577 -0.577
vn 0.577 0.577 0.577
vn -0.577 -0.577 -0.577
vn -0.577 -0.577 -0.577
vn -0.577 -0.577 -0.577
vn -0.577 -0.577 -0.577
vn -0.577 -0.577 -0.577
vn 0.577 0.577 0.577
vn 0.577 0.577 0.577
vn -0.577 -0.577 -0.577
vn 0.577 0.577 0.577
vn -0.577 -0.577 -0.577
vn -0.577 -0.577 -0.577
vn 0.577 0.577 0.577
vn 0.577 0.577 0.577
vn -0.577 -0.577 -0.577
vn 0.577 0.577 0.577
vn -0.577 -0.577 -0.577
vn -0.577 -0.577 -0.577
vn 0.577 0.577 0.577
vn -0.577 -0.577 -0.577
vn 0.577 0.577 0.577
vn -0.577 -0.577 -0.577
vn -0.577 -0.577 -0.577
vn -0.577 -0.577 -0.577
vn -0.577 -0.577 -0.577
vn -0.577 -0.577 -0.577
vn -0.577 -0.577 -0.577
vn -0.577 -0.577 -0.577
vn 0.577 0.577 0.577
vn 0.577 0.577 0.577
vn 0.577 0.577 0.577
vn 0.577 0.577 0.577
vn 0.577 0.577 0.577
vn 0.577 0.577 0.577
vn -0.577 -0.577 -0.577
vn -0.577 -0.577 -0.577
vn -0.577 -0.577 -0.577
vn -0.577 -0.577 -0.577
vn -0.577 -0.577 -0.577
vn -0.577 -0.577 -0.577
vn -0.577 -0.577 -0.577
vn -0.577 -0.577 -0.577
vn -0.577 -0.577 -0.577
vn -0.577 -0.577 -0.577
vn -0.577 -0.577 -0.577
vn -0.577 -0.577 -0.577
vn -0.577 -0.577 -0.577
vn -0.577 -0.577 -0.577
vn 0.577 0.577 0.577
vn -0.577 -0.577 -0.577
vn 0.577 0.577 0.577
vn 0.577 0.577 0.577
vn 0.577 0.577 0.577
vn 0.577 0.577 0.577
vn -0.577 -0.577 -0.577
vn 0.577 0.577 0.577
vn -0.577 -0.577 -0.577
vn -0.577 -0.577 -0.577
vn -0.577 -0.577 -0.577
vn -0.577 -0.577 -0.577
vn -0.577 -0.577 -0.577
vn -0.577 -0.577 -0.577
vn -0.577 -0.577 -0.577
vn -0.577 -0.577 -0.577
vn -0.577 -0.577 -0.577
vn -0.577 -0.577 -0.577
vn -0.577 -0.577 -0.577
vn -0.577 -0.577 -0.577
vn -0.577 -0.577 -0.577
vn -0.577 -0.577 -0.577
vn -0.577 -0.577 -0.577
vn -0.577 -0.577 -0.577
vn -0.577 -0.577 -0.577
vn -0.577 -0.577 -0.577
vn -0.577 -0.577 -0.577
vn -0.577 -0.577 -0.577
vn -0.577 -0.577 -0.577
vn -0.577 -0.577 -0.577
vn -0.577 -0.577 -0.577
vn -0.577 -0.577 -0.577
vn -0.577 -0.577 -0.577
vn -0.577 -0.577 -0.577
vn -0.577 -0.577 -0.577
vn -0.577 -0.577 -0.577
vn -0.577 -0.577 -0.577
vn -0.577 -0.577 -0.577
vn -0.577 -0.577 -0.577
vn -0.577 -0.577 -0.577
vn -0.577 -0.577 -0.577
vn -0.577 -0.577 -0.577
vn -0.577 -0.577 -0.577
vn -0.577 -0.577 -0.577
vn -0.577 -0.577 -0.577
vn -0.577 -0.577 -0.577
vn -0.577 -0.577 -0.577
vn -0.577 -0.577 -0.577
vn -0.577 -0.577 -0.577
vn -0.577 -0.577 -0.577
vn -0.577 -0.577 -0.577
vn -0.577 -0.577 -0.577
vn -0.577 -0.577 -0.577
vn -0.577 -0.577 -0.577
vn 0.577 0.577 0.577
vn -0.577 -0.577 -0.577
vn -0.577 -0.577 -0.577
vn 0.577 0.577 0.577
vn -0.577 -0.577 -0.577
vn -0.577 -0.577 -0.577
vn -0.577 -0.577 -0.577
vn -0.577 -0.577 -0.577
vn -0.577 -0.577 -0.577
vn -0.577 -0.577 -0.577
vn -0.577 -0.577 -0.577
vn -0.577 -0.577 -0.577
vn -0.577 -0.577 -0.577
vn -0.577 -0.577 -0.577
vn -0.577 -0.577 -0.577
vn -0.577 -0.577 -0.577
vn -0.577 -0.577 -0.577
vn -0.577 -0.577 -0.577
vn -0.577 -0.577 -0.577
vn -0.577 -0.577 -0.577
vn -0.577 -0.577 -0.577
vn -0.577 -0.577 -0.577
vn -0.577 -0.577 -0.577
vn -0.577 -0.577 -0.577
vn -0.577 -0.577 -0.577
vn -0.577 -0.577 -0.577
vn -0.577 -0.577 -0.577
vn -0.577 -0.577 -0.577
vn -0.577 -0.577 -0.577
vn -0.577 -0.577 -0.577
vn -0.577 -0.577 -0.577
vn -0.577 -0.577 -0.577
vn -0.577 -0.577 -0.577
vn -0.577 -0.577 -0.577
vn -0.577 -0.577 -0.577
vn -0.577 -0.577 -0.577
vn -0.577 -0.577 -0.577
vn -0.577 -0.577 -0.577
vn -0.577 -0.577 -0.577
vn -0.577 -0.577 -0.577
vn -0.577 -0.577 -0.577
vn -0.577 -0.577 -0.577
vn -0.577 -0.577 -0.577
vn -0.577 -0.577 -0.577
vn -0.577 -0.577 -0.577
vn -0.577 -0.577 -0.577
vn -0.577 -0.577 -0.577
vn -0.577 -0.577 -0.577
vn -0.577 -0.577 -0.577
vn -0.577 -0.577 -0.577
vn -0.577 -0.577 -0.577
vn -0.577 -0.577 -0.577
vn -0.577 -0.577 -0.577
vn -0.577 -0.577 -0.577
vn -0.577 -0.577 -0.577
vn -0.577 -0.577 -0.577
vn -0.577 -0.577 -0.577
vn -0.577 -0.577 -0.577
vn -0.577 -0.577 -0.577
vn -0.577 -0.577 -0.577
vn -0.577 -0.577 -0.577
vn -0.577 -0.577 -0.577
vn -0.577 -0.577 -0.577
vn -0.577 -0.577 -0.577
vn -0.577 -0.577 -0.577
vn -0.577 -0.577 -0.577
vn -0.577 -0.577 -0.577
vn -0.577 -0.577 -0.577
vn -0.577 -0.577 -0.577
vn -0.577 -0.577 -0.577
vn -0.577 -0.577 -0.577
vn -0.577 -0.577 -0.577
vn -0.577 -0.577 -0.577
vn -0.577 -0.577 -0.577
vn -0.577 -0.577 -0.577
vn -0.577 -0.577 -0.577
vn -0.577 -0.577 -0.577
vn -0.577 -0.577 -0.577
vn -0.577 -0.577 -0.577
vn -0.577 -0.577 -0.577
vn -0.577 -0.577 -0.577
vn -0.577 -0.577 -0.577
vn -0.577 -0.577 -0.577
vn -0.577 -0.577 -0.577
vn -0.577 -0.577 -0.577
vn -0.577 -0.577 -0.577
vn -0.577 -0.577 -0.577
vn -0.577 -0.577 -0.577
vn -0.577 -0.577 -0.577
vn -0.577 -0.577 -0.577
vn -0.577 -0.577 -0.577
vn -0.577 -0.577 -0.577
vn -0.577 -0.577 -0.577
vn -0.577 -0.577 -0.577
vn -0.577 -0.577 -0.577
vn -0.577 -0.577 -0.577
vn -0.577 -0.577 -0.577
vn -0.577 -0.577 -0.577
vn -0.577 -0.577 -0.577
vn -0.577 -0.577 -0.577
vn -0.577 -0.577 -0.577
vn -0.577 -0.577 -0.577
vn -0.577 -0.577 -0.577
vn -0.577 -0.577 -0.577
vn -0.577 -0.577 -0.577
vn -0.577 -0.577 -0.577
vn -0.577 -0.577 -0.577
vn -0.577 -0.577 -0.577
vn -0.577 -0.577 -0.577
vn -0.577 -0.577 -0.577
vn -0.577 -0.577 -0.577
vn -0.577 -0.577 -0.577
vn -0.577 -0.577 -0.577
vn -0.577 -0.577 -0.577
vn -0.577 -0.577 -0.577
vn -0.577 -0.577 -0.577
vn -0.577 -0.577 -0.577
vn -0.577 -0.577 -0.577
vn -0.577 -0.577 -0.577
vn -0.577 -0.577 -0.577
vn -0.577 -0.577 -0.577
vn -0.577 -0.577 -0.577
vn -0.577 -0.577 -0.577
vn 0.577 0.577 0.577
vn -0.577 -0.577 -0.577
vn -0.577 -0.577 -0.577
vn -0.577 -0.577 -0.577
vn -0.577 -0.577 -0.577
vn -0.577 -0.577 -0.577
vn -0.577 -0.577 -0.577
vn -0.577 -0.577 -0.577
vn -0.577 -0.577 -0.577
vn -0.577 -0.577 -0.577
vn -0.577 -0.577 -0.577
vn -0.577 -0.577 -0.577
vn -0.577 -0.577 -0.577
vn -0.577 -0.577 -0.577
vn -0.577 -0.577 -0.577
vn -0.577 -0.577 -0.577
vn -0.577 -0.577 -0.577
vn -0.577 -0.577 -0.577
vn -0.577 -0.577 -0.577
vn -0.577 -0.577 -0.577
vn -0.577 -0.577 -0.577
vn -0.577 -0.577 -0.577
vn -0.577 -0.577 -0.577
vn -0.577 -0.577 -0.577
vn -0.577 -0.577 -0.577
vn -0.577 -0.577 -0.577
vn -0.577 -0.577 -0.577
vn -0.577 -0.577 -0.577
vn -0.577 -0.577 -0.577
vn -0.577 -0.577 -0.577
vn -0.577 -0.577 -0.577
vn -0.577 -0.577 -0.577
vn -0.577 -0.577 -0.577
vn -0.577 -0.577 -0.577
vn -0.577 -0.577 -0.577
vn -0.577 -0.577 -0.577
vn -0.577 -0.577 -0.577
vn -0.577 -0.577 -0.577
vn -0.577 -0.577 -0.577
usemtl tex_1785_lit_w10
f 1/1/1 2/2/2 3/3/3
f 3/3/3 2/2/2 4/4/4
f 3/3/3 5/5/5 6/6/6
f 7/7/7 8/8/8 4/4/4
f 1/1/1 9/9/9 7/7/7
f 2/2/2 1/1/1 7/7/7
f 7/7/7 10/10/10 8/8/8
f 1/1/1 6/6/6 9/9/9
f 3/3/3 6/6/6 1/1/1
f 7/7/7 4/4/4 2/2/2
usemtl tex_1786_lit_w01
f 11/11/11 12/12/12 13/13/13
f 13/13/13 12/12/12 14/14/14
f 13/13/13 15/15/15 16/16/16
f 11/11/11 13/13/13 16/16/16
usemtl tex_1785_lit_w10
f 17/17/17 18/18/18 23/9/23
f 17/17/17 23/9/23 24/6/24
f 19/19/19 20/20/20 25/7/25
f 18/18/18 19/19/19 23/9/23
f 19/19/19 25/7/25 23/9/23
f 20/20/20 26/10/26 25/7/25
usemtl tex_1786_lit_w01
f 21/21/21 27/16/27 28/15/28
f 22/22/22 21/21/21 28/15/28
usemtl tex_1689_lit_w01
f 34/23/34 29/24/29 35/25/35
usemtl tex_1692_lit_w11
f 36/26/36 30/27/30 37/28/37
f 31/29/31 32/30/32 38/31/38
f 36/26/36 33/32/33 30/27/30
f 37/28/37 30/27/30 31/29/31
f 38/31/38 32/30/32 39/33/39
f 39/33/39 32/30/32 33/32/33
f 37/28/37 31/29/31 38/31/38
f 40/34/40 41/35/41 42/36/42
f 43/37/43 44/38/44 45/39/45
f 40/34/40 46/40/46 41/35/41
f 42/36/42 41/35/41 43/37/43
f 45/39/45 44/38/44 47/41/47
f 47/41/47 44/38/44 46/40/46
f 47/41/47 46/40/46 40/34/40
f 42/36/42 43/37/43 45/39/45
f 45/39/45 47/41/47 40/34/40
f 45/39/45 40/34/40 42/36/42
f 44/38/44 43/37/43 48/35/48
f 44/38/44 48/35/48 49/40/49
usemtl tex_1690_lit_w11
f 50/42/50 51/43/51 52/44/52
f 52/44/52 51/43/51 53/45/53
f 52/44/52 53/45/53 54/46/54
f 54/46/54 53/45/53 55/47/55
f 54/46/54 55/47/55 56/48/56
f 57/49/57 58/47/58 56/48/56
f 59/50/59 57/49/57 56/48/56
f 50/42/50 57/49/57 59/50/59
f 60/51/60 50/42/50 59/50/59
f 51/43/51 50/42/50 60/51/60
usemtl tex_1692_lit_w11
f 61/52/61 62/53/62 63/54/63
f 64/55/64 62/53/62 65/56/65
f 66/57/66 67/58/67 68/59/68
f 69/55/69 70/56/70 66/57/66
f 67/58/67 71/52/71 72/54/72
f 71/52/71 70/56/70 73/53/73
f 67/58/67 72/54/72 68/59/68
f 69/55/69 66/57/66 68/59/68
usemtl tex_1688_lit_w11
f 74/60/74 81/61/81 75/62/75
f 82/63/82 74/60/74 83/64/83
f 74/60/74 82/63/82 81/61/81
f 74/60/74 76/65/76 83/64/83
f 76/65/76 84/66/84 83/64/83
usemtl tex_1690_lit_w11
f 77/67/77 78/68/78 85/48/85
f 78/68/78 86/50/86 85/48/85
f 86/50/86 79/69/79 87/51/87
f 86/50/86 78/68/78 79/69/79
f 80/70/80 77/67/77 85/48/85
f 80/70/80 85/48/85 88/47/88
usemtl tex_1692_lit_w11
f 93/29/93 89/57/89 94/30/94
f 93/29/93 90/58/90 89/57/89
f 95/27/95 90/58/90 93/29/93
f 94/30/94 89/57/89 91/56/91
f 94/30/94 91/56/91 96/32/96
f 96/32/96 91/56/91 92/52/92
f 96/32/96 92/52/92 95/27/95
f 95/27/95 92/52/92 90/58/90
f 97/35/97 98/71/98 99/72/99
f 100/73/100 98/71/98 101/40/101
f 102/38/102 103/37/103 104/74/104
f 100/73/100 101/40/101 102/38/102
f 103/37/103 97/35/97 99/72/99
f 97/35/97 101/40/101 98/71/98
f 103/37/103 99/72/99 104/74/104
f 100/73/100 102/38/102 104/74/104
f 105/74/105 106/72/106 107/71/107
usemtl tex_1692_lit_w11_ovl
f 105/74/105 107/71/107 108/73/108
usemtl tex_1692_lit_w11
f 109/35/109 103/37/103 102/38/102
f 109/35/109 102/38/102 110/40/110
usemtl tex_1785_lit_w10
f 111/75/111 112/76/112 113/77/113
f 114/78/114 112/76/112 111/75/111
f 115/79/115 116/80/116 111/75/111
f 114/78/114 117/81/117 118/82/118
f 118/82/118 119/83/119 113/77/113
f 118/82/118 113/77/113 112/76/112
f 117/81/117 120/84/120 118/82/118
f 119/83/119 115/79/115 113/77/113
f 113/77/113 115/79/115 111/75/111
f 112/76/112 114/78/114 118/82/118
usemtl tex_1786_lit_w01
f 121/85/121 122/86/122 123/87/123
f 124/88/124 122/86/122 121/85/121
f 121/85/121 123/87/123 125/89/125
f 126/90/126 121/85/121 125/89/125
usemtl tex_1785_lit_w10
f 133/83/133 127/91/127 128/92/128
f 134/79/134 133/83/133 128/92/128
f 135/82/135 129/93/129 130/94/130
f 133/83/133 130/94/130 127/91/127
f 133/83/133 135/82/135 130/94/130
f 135/82/135 136/84/136 129/93/129
usemtl tex_1786_lit_w01
f 137/90/137 138/89/138 131/95/131
f 137/90/137 131/95/131 132/96/132
usemtl tex_1689_lit_w01
f 144/97/144 139/98/139 145/99/145
usemtl tex_1692_lit_w11
f 146/100/146 140/101/140 147/102/147
f 141/103/141 140/101/140 146/100/146
f 148/104/148 141/103/141 146/100/146
f 142/105/142 141/103/141 148/104/148
f 149/106/149 142/105/142 148/104/148
f 143/107/143 142/105/142 149/106/149
f 140/101/140 143/107/143 147/102/147
f 150/108/150 151/109/151 152/110/152
f 153/111/153 154/112/154 155/113/155
f 151/109/151 156/114/156 152/110/152
f 155/113/155 151/109/151 150/108/150
f 157/115/157 154/112/154 153/111/153
f 156/114/156 154/112/154 157/115/157
f 152/110/152 156/114/156 157/115/157
f 153/111/153 155/113/155 150/108/150
f 150/108/150 152/110/152 157/115/157
f 150/108/150 157/115/157 153/111/153
f 158/114/158 159/109/159 155/113/155
f 158/114/158 155/113/155 154/112/154
usemtl tex_1690_lit_w11
f 160/116/160 161/117/161 162/118/162
f 163/119/163 161/117/161 160/116/160
f 164/48/164 163/119/163 160/116/160
f 165/120/165 163/119/163 164/48/164
f 166/47/166 165/120/165 164/48/164
f 167/121/167 165/120/165 166/47/166
f 168/122/168 167/121/167 166/47/166
f 161/117/161 167/121/167 168/122/168
f 169/123/169 161/117/161 168/122/168
f 162/118/162 161/117/161 169/123/169
usemtl tex_1692_lit_w11
f 170/124/170 171/125/171 172/126/172
f 173/127/173 171/125/171 174/128/174
f 175/129/175 173/127/173 174/128/174
f 176/124/176 177/126/177 178/130/178
f 178/130/178 179/129/179 180/131/180
f 181/132/181 182/133/182 183/134/183
f 180/131/180 176/124/176 178/130/178
f 184/125/184 185/127/185 177/126/177
usemtl tex_1688_lit_w11
f 186/135/186 193/136/193 194/137/194
f 193/136/193 186/135/186 187/138/187
f 193/136/193 187/138/187 195/139/195
f 188/65/188 194/137/194 196/66/196
f 188/65/188 186/135/186 194/137/194
usemtl tex_1690_lit_w11
f 189/140/189 190/141/190 197/116/197
f 189/140/189 197/116/197 198/118/198
f 190/141/190 191/67/191 199/48/199
f 199/48/199 191/67/191 192/70/192
f 199/48/199 192/70/192 200/47/200
f 190/141/190 199/48/199 197/116/197
usemtl tex_1692_lit_w11
f 205/103/205 201/130/201 206/101/206
f 202/129/202 201/130/201 205/103/205
f 207/105/207 202/129/202 205/103/205
f 203/127/203 202/129/202 207/105/207
f 208/107/208 203/127/203 207/105/207
f 204/126/204 203/127/203 208/107/208
f 206/101/206 204/126/204 208/107/208
f 201/130/201 204/126/204 206/101/206
f 209/142/209 210/143/210 211/109/211
f 212/114/212 210/143/210 213/144/213
f 214/145/214 215/113/215 216/112/216
f 216/112/216 212/114/212 213/144/213
f 209/142/209 211/109/211 215/113/215
f 210/143/210 212/114/212 211/109/211
f 214/145/214 209/142/209 215/113/215
f 214/145/214 216/112/216 213/144/213
usemtl tex_1692_lit_w11_ovl
f 217/144/217 218/143/218 219/142/219
f 217/144/217 219/142/219 220/145/220
usemtl tex_1692_lit_w11
f 221/114/221 216/112/216 215/113/215
f 221/114/221 215/113/215 222/109/222
usemtl tex_1609_lit
f 223/146/223 224/147/224 225/148/225
f 225/148/225 224/147/224 226/149/226
usemtl tex_1613_lit_w11
f 227/150/227 228/151/228 229/152/229
f 229/152/229 228/151/228 230/153/230
usemtl tex_1616_lit_w11
f 231/154/231 232/155/232 233/156/233
f 233/156/233 232/155/232 234/157/234
usemtl tex_1619_lit_w11
f 235/158/235 236/159/236 237/160/237
f 237/160/237 236/159/236 238/161/238
usemtl tex_1622_lit_w11
f 239/162/239 240/163/240 241/164/241
f 241/164/241 240/163/240 242/165/242
usemtl tex_1692_lit_w11
f 248/166/248 243/167/243 244/168/244
f 244/168/244 245/169/245 249/170/249
f 245/169/245 246/171/246 249/170/249
f 247/172/247 243/167/243 250/173/250
f 246/171/246 247/172/247 251/174/251
f 243/167/243 248/166/248 250/173/250
f 246/171/246 251/174/251 249/170/249
f 248/166/248 244/168/244 249/170/249
f 247/172/247 250/173/250 251/174/251
f 257/171/257 252/175/252 258/172/258
f 253/176/253 252/175/252 257/171/257
f 259/169/259 253/176/253 257/171/257
f 254/177/254 253/176/253 259/169/259
f 260/168/260 254/177/254 259/169/259
f 255/178/255 254/177/254 260/168/260
f 258/172/258 256/179/256 261/167/261
f 252/175/252 256/179/256 258/172/258
f 261/167/261 255/178/255 260/168/260
f 256/179/256 255/178/255 261/167/261
f 262/180/262 263/181/263 264/182/264
f 264/182/264 265/183/265 266/184/266
f 267/185/267 263/181/263 268/186/268
f 266/184/266 267/185/267 269/187/269
f 266/184/266 265/183/265 267/185/267
f 263/181/263 262/180/262 268/186/268
f 262/180/262 264/182/264 266/184/266
f 267/185/267 268/186/268 269/187/269
f 264/182/264 263/181/263 267/185/267
f 264/182/264 267/185/267 265/183/265
f 270/188/270 271/189/271 272/190/272
f 273/191/273 274/192/274 272/190/272
f 275/193/275 276/194/276 277/195/277
f 274/192/274 270/188/270 272/190/272
f 275/193/275 277/195/277 271/189/271
f 271/189/271 277/195/277 278/196/278
f 279/197/279 276/194/276 274/192/274
f 271/189/271 278/196/278 272/190/272
f 276/194/276 279/197/279 277/195/277
f 279/197/279 274/192/274 273/191/273
f 285/188/285 280/198/280 286/189/286
f 286/189/286 280/198/280 281/199/281
f 286/189/286 281/199/281 287/193/287
f 287/193/287 281/199/281 282/200/282
f 287/193/287 282/200/282 288/194/288
f 288/194/288 282/200/282 283/201/283
f 288/194/288 283/201/283 289/192/289
f 289/192/289 283/201/283 284/202/284
f 289/192/289 284/202/284 285/188/285
f 285/188/285 284/202/284 280/198/280
f 297/177/297 290/195/290 298/176/298
f 291/196/291 290/195/290 297/177/297
f 299/178/299 291/196/291 297/177/297
f 292/190/292 291/196/291 299/178/299
f 293/191/293 292/190/292 299/178/299
f 300/179/300 293/191/293 299/178/299
usemtl tex_1691_lit_w11
f 301/203/301 294/204/294 302/205/302
f 295/206/295 294/204/294 301/203/301
f 302/205/302 294/204/294 303/207/303
f 294/204/294 296/208/296 303/207/303
usemtl tex_1692_lit_w11
f 304/209/304 305/210/305 306/182/306
f 307/181/307 308/211/308 306/182/306
f 308/211/308 304/209/304 306/182/306
f 309/212/309 310/185/310 305/210/305
f 305/210/305 310/185/310 311/183/311
f 307/181/307 309/212/309 308/211/308
f 305/210/305 311/183/311 306/182/306
f 309/212/309 307/181/307 310/185/310
f 304/209/304 308/211/308 309/212/309
f 309/212/309 305/210/305 304/209/304
f 311/183/311 310/185/310 307/181/307
f 311/183/311 307/181/307 306/182/306
usemtl tex_1609_lit
f 312/213/312 313/214/313 314/215/314
f 315/216/315 313/214/313 312/213/312
usemtl tex_1613_lit_w11
f 316/217/316 317/218/317 318/219/318
f 319/220/319 317/218/317 316/217/316
usemtl tex_1616_lit_w11
f 320/221/320 321/222/321 322/223/322
f 323/224/323 321/222/321 320/221/320
usemtl tex_1619_lit_w11
f 324/225/324 325/226/325 326/227/326
f 327/228/327 325/226/325 324/225/324
usemtl tex_1622_lit_w11
f 328/229/328 329/230/329 330/231/330
f 331/232/331 329/230/329 328/229/328
usemtl tex_1689_lit_w01
f 339/233/339 332/234/332 333/235/333
f 339/233/339 333/235/333 340/236/340
usemtl tex_1692_lit_w11
f 334/237/334 335/238/335 341/239/341
f 342/240/342 336/241/336 337/242/337
f 343/243/343 335/238/335 338/244/338
f 344/245/344 338/244/338 336/241/336
f 343/243/343 341/239/341 335/238/335
f 342/240/342 344/245/344 336/241/336
f 344/245/344 343/243/343 338/244/338
usemtl tex_1689_lit_w01
f 352/234/352 345/246/345 353/235/353
f 353/235/353 345/246/345 346/247/346
usemtl tex_1692_lit_w11
f 354/244/354 347/248/347 355/241/355
f 355/241/355 347/248/347 348/249/348
f 355/241/355 348/249/348 356/242/356
f 356/242/356 348/249/348 349/250/349
f 357/238/357 350/251/350 354/244/354
f 354/244/354 350/251/350 347/248/347
f 358/237/358 351/252/351 357/238/357
f 357/238/357 351/252/351 350/251/350
f 359/253/359 360/254/360 361/255/361
f 362/256/362 363/257/363 359/253/359
f 364/258/364 360/254/360 365/259/365
f 366/260/366 365/259/365 362/256/362
f 365/259/365 363/257/363 362/256/362
f 364/258/364 361/255/361 360/254/360
f 362/256/362 359/253/359 361/255/361
f 366/260/366 364/258/364 365/259/365
f 360/254/360 359/253/359 363/257/363
f 360/254/360 363/257/363 365/259/365
usemtl tex_1689_lit_w01
f 367/261/367 368/262/368 369/263/369
f 367/261/367 370/264/370 368/262/368
usemtl tex_1692_lit_w11
f 371/265/371 372/266/372 373/267/373
f 374/268/374 375/269/375 376/270/376
f 371/265/371 377/271/377 372/266/372
f 378/272/378 374/268/374 376/270/376
f 379/273/379 374/268/374 378/272/378
f 372/266/372 375/269/375 380/274/380
f 374/268/374 380/274/380 375/269/375
f 373/267/373 372/266/372 380/274/380
usemtl tex_1689_lit_w01
f 388/262/388 381/275/381 389/263/389
f 382/276/382 381/275/381 388/262/388
f 381/275/381 383/277/383 389/263/389
usemtl tex_1692_lit_w11
f 390/270/390 384/278/384 391/272/391
f 385/279/385 384/278/384 390/270/390
f 392/269/392 385/279/385 390/270/390
f 386/280/386 385/279/385 392/269/392
f 393/266/393 386/280/386 392/269/392
f 387/281/387 386/280/386 393/266/393
f 394/271/394 387/281/387 393/266/393
usemtl tex_1689_lit_w01
f 402/246/402 395/264/395 403/247/403
f 403/247/403 395/264/395 396/261/396
usemtl tex_1692_lit_w11
f 404/248/404 397/274/397 405/249/405
f 405/249/405 397/274/397 398/268/398
f 405/249/405 398/268/398 406/250/406
f 406/250/406 398/268/398 399/273/399
f 407/251/407 397/274/397 404/248/404
f 408/252/408 400/265/400 401/267/401
f 408/252/408 401/267/401 407/251/407
f 407/251/407 401/267/401 397/274/397
f 409/282/409 410/283/410 411/284/411
f 411/284/411 412/285/412 409/282/409
f 413/253/413 411/284/411 410/283/410
f 413/253/413 409/282/409 414/254/414
f 413/253/413 410/283/410 409/282/409
f 411/284/411 415/259/415 412/285/412
f 416/257/416 415/259/415 411/284/411
f 409/282/409 412/285/412 414/254/414
f 413/253/413 416/257/416 411/284/411
f 415/259/415 414/254/414 412/285/412
f 415/259/415 416/257/416 413/253/413
f 415/259/415 413/253/413 414/254/414
usemtl tex_1693_lit_w01
f 417/286/417 424/287/424 425/288/425
f 418/289/418 426/290/426 417/286/417
f 426/290/426 424/287/424 417/286/417
f 419/291/419 417/286/417 425/288/425
f 419/291/419 425/288/425 427/292/427
f 418/289/418 428/293/428 426/290/426
usemtl tex_1694_lit_w01
f 429/294/429 420/295/420 421/296/421
f 422/297/422 430/298/430 423/299/423
f 430/298/430 421/296/421 423/299/423
f 430/298/430 429/294/429 421/296/421
usemtl tex_1688_lit_w11
f 431/300/431 432/301/432 433/302/433
f 434/303/434 431/300/431 435/304/435
f 436/305/436 437/306/437 438/307/438
f 435/304/435 431/300/431 433/302/433
f 439/308/439 440/309/440 432/301/432
f 441/310/441 440/309/440 439/308/439
f 442/311/442 443/312/443 444/313/444
f 445/314/445 443/312/443 442/311/442
f 446/315/446 431/300/431 434/303/434
f 446/315/446 434/303/434 442/311/442
f 437/306/437 446/315/446 442/311/442
f 434/303/434 445/314/445 442/311/442
f 437/306/437 436/305/436 441/310/441
f 447/302/447 448/316/448 449/317/449
f 450/301/450 451/309/451 452/318/452
f 453/306/453 454/310/454 455/315/455
f 456/308/456 457/300/457 455/315/455
f 454/310/454 456/308/456 455/315/455
f 457/300/457 456/308/456 450/301/450
f 458/304/458 449/317/449 459/314/459
f 458/304/458 447/302/447 449/317/449
f 460/303/460 458/304/458 459/314/459
usemtl tex_1690_lit_w11
f 461/319/461 462/320/462 463/321/463
f 463/321/463 464/322/464 465/323/465
f 466/324/466 465/323/465 467/325/467
f 468/326/468 469/327/469 470/328/470
f 466/324/466 463/321/463 465/323/465
f 466/324/466 461/319/461 463/321/463
f 471/329/471 463/321/463 472/330/472
f 465/323/465 470/328/470 473/331/473
f 464/322/464 468/326/468 465/323/465
f 474/332/474 469/327/469 475/333/475
f 476/334/476 466/324/466 467/325/467
f 471/329/471 464/322/464 463/321/463
f 467/325/467 465/323/465 473/331/473
f 477/334/477 478/325/478 479/335/479
f 480/323/480 481/326/481 482/328/482
f 483/322/483 484/333/484 481/326/481
f 485/327/485 481/326/481 484/333/484
f 477/334/477 479/335/479 486/336/486
f 478/325/478 487/331/487 479/335/479
usemtl tex_1688_lit_w11
f 488/337/488 496/316/496 489/338/489
f 489/338/489 496/316/496 497/302/497
f 489/338/489 497/302/497 490/339/490
f 490/339/490 497/302/497 498/301/498
f 490/339/490 498/301/498 491/340/491
f 491/340/491 498/301/498 499/318/499
usemtl tex_1690_lit_w11
f 492/341/492 500/331/500 493/342/493
f 493/342/493 501/328/501 494/343/494
f 493/342/493 500/331/500 501/328/501
f 495/344/495 502/335/502 492/341/492
f 492/341/492 502/335/502 500/331/500
f 494/343/494 501/328/501 503/327/503
usemtl tex_1688_lit_w11
f 504/345/504 505/346/505 506/347/506
f 507/348/507 504/345/504 506/347/506
usemtl tex_1690_lit_w11
f 508/349/508 509/350/509 510/351/510
f 511/349/511 512/352/512 513/353/513
f 509/350/509 508/349/508 514/354/514
f 515/355/515 516/352/516 509/350/509
f 517/356/517 518/354/518 519/353/519
f 520/349/520 521/351/521 522/352/522
f 523/352/523 521/351/521 524/350/524
f 525/349/525 526/353/526 527/354/527
f 528/355/528 529/356/529 530/352/530
f 529/356/529 531/353/531 530/352/530
usemtl tex_1688_lit_w11
f 532/62/532 533/337/533 534/60/534
f 534/60/534 533/337/533 535/338/535
f 534/60/534 535/338/535 536/65/536
f 536/65/536 535/338/535 537/339/537
f 536/65/536 537/339/537 538/135/538
f 538/135/538 537/339/537 539/138/539
f 539/138/539 537/339/537 540/340/540
usemtl tex_1690_lit_w11
f 544/342/544 545/68/545 546/67/546
f 547/69/547 548/342/548 549/343/549
f 553/68/553 548/342/548 547/69/547
f 554/140/554 555/344/555 556/341/556
f 557/141/557 556/341/556 558/67/558
f 556/341/556 548/342/548 558/67/558
f 554/140/554 556/341/556 557/141/557
usemtl tex_1688_lit_w11
f 559/357/559 560/347/560 561/346/561
f 559/357/559 561/346/561 562/358/562
usemtl tex_1690_lit_w11
f 563/352/563 564/359/564 565/360/565
f 564/359/564 566/355/566 567/361/567
f 564/359/564 563/352/563 566/355/566
f 568/362/568 569/356/569 565/360/565
f 565/360/565 569/356/569 570/353/570
f 571/353/571 563/352/563 565/360/565
f 566/355/566 572/353/572 573/356/573
f 566/355/566 574/352/574 572/353/572
f 568/362/568 565/360/565 564/359/564
f 568/362/568 564/359/564 567/361/567
