mtllib CdjbondZ.mtl
v -1128.7065048217773 -89.814781665802 -78.0 1.000 1.000 1.000
v -1128.7065048217773 -175.814781665802 -72.0 1.000 1.000 1.000
v -1128.7065048217773 -44.814781665802 162.0 1.000 1.000 1.000
v -1128.7065048217773 -169.814781665802 171.0 1.000 1.000 1.000
v -1092.7065048217773 -81.814781665802 148.0 1.000 1.000 1.000
v -1036.7065048217773 -71.814781665802 -4.0 1.000 1.000 1.000
v -1031.7065048217773 -155.814781665802 -52.0 1.000 1.000 1.000
v -1094.7065048217773 -140.814781665802 175.0 1.000 1.000 1.000
v -1025.7065048217773 -107.814781665802 -65.0 1.000 1.000 1.000
v -1024.7065048217773 -150.814781665802 -17.0 1.000 1.000 1.000
v -1025.7065048217773 -144.814781665802 21.0 1.000 1.000 1.000
v -1032.7065048217773 -87.814781665802 -31.0 1.000 1.000 1.000
v -611.104606628418 -55.354562759399414 50.0 1.000 1.000 1.000
v -1038.104606628418 -67.35456275939941 44.0 1.000 1.000 1.000
v -1038.104606628418 -137.3545627593994 59.0 1.000 1.000 1.000
v -616.104606628418 -37.354562759399414 -16.0 1.000 1.000 1.000
v -628.104606628418 -88.35456275939941 -85.0 1.000 1.000 1.000
v -1025.104606628418 -87.35456275939941 -77.0 1.000 1.000 1.000
v -1030.104606628418 -48.354562759399414 -8.0 1.000 1.000 1.000
v -626.104606628418 -152.3545627593994 -72.0 1.000 1.000 1.000
v -616.104606628418 -185.3545627593994 -3.0 1.000 1.000 1.000
v -1019.104606628418 -144.3545627593994 -75.0 1.000 1.000 1.000
v -611.104606628418 -122.35456275939941 66.0 1.000 1.000 1.000
v -1029.104606628418 -189.3545627593994 6.0 1.000 1.000 1.000
v -626.104606628418 -152.3545627593994 -72.0 1.000 1.000 1.000
v -1019.104606628418 -144.3545627593994 -75.0 1.000 1.000 1.000
v -1025.104606628418 -87.35456275939941 -77.0 1.000 1.000 1.000
v -1030.104606628418 -48.354562759399414 -8.0 1.000 1.000 1.000
v -1038.104606628418 -67.35456275939941 44.0 1.000 1.000 1.000
v -1038.104606628418 -137.3545627593994 59.0 1.000 1.000 1.000
v -1029.104606628418 -189.3545627593994 6.0 1.000 1.000 1.000
v -1019.104606628418 -144.3545627593994 -75.0 1.000 1.000 1.000
v -1032.7065048217773 -87.814781665802 -31.0 1.000 1.000 1.000
v -1036.7065048217773 -71.814781665802 -4.0 1.000 1.000 1.000
v -1025.7065048217773 -144.814781665802 21.0 1.000 1.000 1.000
v -1025.7065048217773 -107.814781665802 -65.0 1.000 1.000 1.000
v -1024.7065048217773 -150.814781665802 -17.0 1.000 1.000 1.000
v -1031.7065048217773 -155.814781665802 -52.0 1.000 1.000 1.000
v -560.104606628418 -54.354562759399414 49.0 1.000 1.000 1.000
v -549.104606628418 -36.354562759399414 -9.0 1.000 1.000 1.000
v -547.104606628418 -89.35456275939941 -74.0 1.000 1.000 1.000
v -547.104606628418 -153.3545627593994 -77.0 1.000 1.000 1.000
v -547.104606628418 -153.3545627593994 -77.0 1.000 1.000 1.000
v -539.104606628418 -188.3545627593994 9.0 1.000 1.000 1.000
v -559.104606628418 -121.35456275939941 71.0 1.000 1.000 1.000
v -616.104606628418 -37.354562759399414 -16.0 1.000 1.000 1.000
v -628.104606628418 -88.35456275939941 -85.0 1.000 1.000 1.000
v -626.104606628418 -152.3545627593994 -72.0 1.000 1.000 1.000
v -626.104606628418 -152.3545627593994 -72.0 1.000 1.000 1.000
v -616.104606628418 -185.3545627593994 -3.0 1.000 1.000 1.000
v -611.104606628418 -122.35456275939941 66.0 1.000 1.000 1.000
v -611.104606628418 -55.354562759399414 50.0 1.000 1.000 1.000
v -560.104606628418 -54.354562759399414 49.0 1.000 1.000 1.000
v -514.104606628418 -50.354562759399414 50.0 1.000 1.000 1.000
v -549.104606628418 -36.354562759399414 -9.0 1.000 1.000 1.000
v -513.104606628418 -121.35456275939941 75.0 1.000 1.000 1.000
v -559.104606628418 -121.35456275939941 71.0 1.000 1.000 1.000
v -539.104606628418 -188.3545627593994 9.0 1.000 1.000 1.000
v -1041.104606628418 -174.3545627593994 65.0 1.000 1.000 1.000
v -569.104606628418 -134.3545627593994 87.0 1.000 1.000 1.000
v -1041.104606628418 -56.354562759399414 32.0 1.000 1.000 1.000
v -560.104606628418 -35.354562759399414 38.0 1.000 1.000 1.000
v -563.104606628418 -110.35456275939941 -67.0 1.000 1.000 1.000
v -1013.104606628418 -88.35456275939941 -89.0 1.000 1.000 1.000
v -563.104606628418 -197.3545627593994 13.0 1.000 1.000 1.000
v -1013.104606628418 -197.3545627593994 -71.0 1.000 1.000 1.000
v -569.104606628418 -134.3545627593994 87.0 1.000 1.000 1.000
v -563.104606628418 -197.3545627593994 13.0 1.000 1.000 1.000
v -206.6266098022461 -33.16741943359375 14.0 1.000 1.000 1.000
v -205.6266098022461 -48.16741943359375 5.0 1.000 1.000 1.000
v -205.6266098022461 -71.16741943359375 110.0 1.000 1.000 1.000
v -205.6266098022461 -100.16741943359375 103.0 1.000 1.000 1.000
v -205.6266098022461 -126.16741943359375 122.0 1.000 1.000 1.000
v -205.6266098022461 -149.16741943359375 102.0 1.000 1.000 1.000
v -205.6266098022461 -201.16741943359375 126.0 1.000 1.000 1.000
v -205.6266098022461 -196.16741943359375 70.0 1.000 1.000 1.000
v -206.6266098022461 -200.16741943359375 -98.0 1.000 1.000 1.000
v -205.6266098022461 -197.16741943359375 -41.0 1.000 1.000 1.000
v -206.6266098022461 -154.16741943359375 -91.0 1.000 1.000 1.000
v -205.6266098022461 -156.16741943359375 -68.0 1.000 1.000 1.000
v -206.6266098022461 -49.16741943359375 -78.0 1.000 1.000 1.000
v -205.6266098022461 -64.16741943359375 -75.0 1.000 1.000 1.000
v -454.6266098022461 -190.16741943359375 23.0 1.000 1.000 1.000
v -205.6266098022461 -197.16741943359375 -41.0 1.000 1.000 1.000
v -205.6266098022461 -196.16741943359375 70.0 1.000 1.000 1.000
v -205.6266098022461 -64.16741943359375 -75.0 1.000 1.000 1.000
v -205.6266098022461 -156.16741943359375 -68.0 1.000 1.000 1.000
v -406.6266098022461 -170.16741943359375 -79.0 1.000 1.000 1.000
v -405.6266098022461 -90.16741943359375 -86.0 1.000 1.000 1.000
v -435.6266098022461 -33.16741943359375 -4.0 1.000 1.000 1.000
v -406.6266098022461 -170.16741943359375 -79.0 1.000 1.000 1.000
v -205.6266098022461 -156.16741943359375 -68.0 1.000 1.000 1.000
v -453.6266098022461 -55.16741943359375 53.0 1.000 1.000 1.000
v -431.6266098022461 -122.16741943359375 83.0 1.000 1.000 1.000
v -205.6266098022461 -100.16741943359375 103.0 1.000 1.000 1.000
v -205.6266098022461 -48.16741943359375 5.0 1.000 1.000 1.000
v -205.6266098022461 -149.16741943359375 102.0 1.000 1.000 1.000
v -34.0 -80.0 -88.0 1.000 1.000 1.000
v 0.0 -81.0 -94.0 1.000 1.000 1.000
v -108.0 -46.0 -82.0 1.000 1.000 1.000
v -154.0 -28.0 20.0 1.000 1.000 1.000
v 0.0 -115.0 124.0 1.000 1.000 1.000
v -154.0 -28.0 20.0 1.000 1.000 1.000
v 0.0 -81.0 -94.0 1.000 1.000 1.000
v -81.0 -77.0 122.0 1.000 1.000 1.000
v -206.6266098022461 -154.16741943359375 -91.0 1.000 1.000 1.000
v -206.6266098022461 -200.16741943359375 -98.0 1.000 1.000 1.000
v -206.6266098022461 -49.16741943359375 -78.0 1.000 1.000 1.000
v -206.6266098022461 -33.16741943359375 14.0 1.000 1.000 1.000
v -205.6266098022461 -126.16741943359375 122.0 1.000 1.000 1.000
v -205.6266098022461 -201.16741943359375 126.0 1.000 1.000 1.000
v -205.6266098022461 -71.16741943359375 110.0 1.000 1.000 1.000
v -206.6266098022461 -33.16741943359375 14.0 1.000 1.000 1.000
v 0.0 -81.0 -94.0 1.000 1.000 1.000
v -206.6266098022461 -200.16741943359375 -98.0 1.000 1.000 1.000
v -205.6266098022461 -201.16741943359375 126.0 1.000 1.000 1.000
v -435.6266098022461 -33.16741943359375 -4.0 1.000 1.000 1.000
v -405.6266098022461 -90.16741943359375 -86.0 1.000 1.000 1.000
v -406.6266098022461 -170.16741943359375 -79.0 1.000 1.000 1.000
v -406.6266098022461 -170.16741943359375 -79.0 1.000 1.000 1.000
v -454.6266098022461 -190.16741943359375 23.0 1.000 1.000 1.000
v -431.6266098022461 -122.16741943359375 83.0 1.000 1.000 1.000
v -453.6266098022461 -55.16741943359375 53.0 1.000 1.000 1.000
v -549.104606628418 -36.354562759399414 -9.0 1.000 1.000 1.000
v -547.104606628418 -89.35456275939941 -74.0 1.000 1.000 1.000
v -547.104606628418 -153.3545627593994 -77.0 1.000 1.000 1.000
v -547.104606628418 -153.3545627593994 -77.0 1.000 1.000 1.000
v -539.104606628418 -188.3545627593994 9.0 1.000 1.000 1.000
v -513.104606628418 -121.35456275939941 75.0 1.000 1.000 1.000
v -514.104606628418 -50.354562759399414 50.0 1.000 1.000 1.000
v -568.6266098022461 -134.16741943359375 87.0 1.000 1.000 1.000
v -204.6266098022461 -194.16741943359375 20.0 1.000 1.000 1.000
v -206.6266098022461 -153.16741943359375 124.0 1.000 1.000 1.000
v -203.6266098022461 -124.16741943359375 -73.0 1.000 1.000 1.000
v -563.6266098022461 -197.16741943359375 13.0 1.000 1.000 1.000
v -562.6266098022461 -110.16741943359375 -67.0 1.000 1.000 1.000
v -559.6266098022461 -36.16741943359375 38.0 1.000 1.000 1.000
v -203.6266098022461 -39.16741943359375 27.0 1.000 1.000 1.000
v -203.6266098022461 -39.16741943359375 27.0 1.000 1.000 1.000
v -206.6266098022461 -153.16741943359375 124.0 1.000 1.000 1.000
v -204.6266098022461 -194.16741943359375 20.0 1.000 1.000 1.000
v -203.6266098022461 -124.16741943359375 -73.0 1.000 1.000 1.000
v -568.6266098022461 -134.16741943359375 87.0 1.000 1.000 1.000
v -563.6266098022461 -197.16741943359375 13.0 1.000 1.000 1.000
v 1137.0940551757812 -46.56796979904175 161.0 1.000 1.000 1.000
v 1137.0940551757812 -178.56796979904175 -71.0 1.000 1.000 1.000
v 1137.0940551757812 -92.56796979904175 -78.0 1.000 1.000 1.000
v 1137.0940551757812 -171.56796979904175 172.0 1.000 1.000 1.000
v 1046.0940551757812 -74.56796979904175 -4.0 1.000 1.000 1.000
v 1102.0940551757812 -86.56796979904175 147.0 1.000 1.000 1.000
v 1104.0940551757812 -141.56796979904175 175.0 1.000 1.000 1.000
v 1038.0940551757812 -158.56796979904175 -51.0 1.000 1.000 1.000
v 1035.0940551757812 -110.56796979904175 -65.0 1.000 1.000 1.000
v 1034.0940551757812 -147.56796979904175 21.0 1.000 1.000 1.000
v 1038.0940551757812 -152.56796979904175 -13.0 1.000 1.000 1.000
v 1040.0940551757812 -93.56796979904175 -37.0 1.000 1.000 1.000
v 1046.2488708496094 -141.09130859375 60.0 1.000 1.000 1.000
v 1047.2488708496094 -70.09130859375 44.0 1.000 1.000 1.000
v 620.2488708496094 -70.09130859375 50.0 1.000 1.000 1.000
v 1033.2488708496094 -90.09130859375 -78.0 1.000 1.000 1.000
v 637.2488708496094 -91.09130859375 -85.0 1.000 1.000 1.000
v 625.2488708496094 -43.09130859375 -16.0 1.000 1.000 1.000
v 1038.2488708496094 -43.09130859375 -8.0 1.000 1.000 1.000
v 1028.2488708496094 -147.09130859375 -76.0 1.000 1.000 1.000
v 625.2488708496094 -186.09130859375 -3.0 1.000 1.000 1.000
v 635.2488708496094 -155.09130859375 -72.0 1.000 1.000 1.000
v 620.2488708496094 -128.09130859375 66.0 1.000 1.000 1.000
v 1038.2488708496094 -184.09130859375 6.0 1.000 1.000 1.000
v 1033.2488708496094 -90.09130859375 -78.0 1.000 1.000 1.000
v 637.2488708496094 -91.09130859375 -85.0 1.000 1.000 1.000
v 1038.2488708496094 -184.09130859375 6.0 1.000 1.000 1.000
v 1046.2488708496094 -141.09130859375 60.0 1.000 1.000 1.000
v 1047.2488708496094 -70.09130859375 44.0 1.000 1.000 1.000
v 1038.2488708496094 -43.09130859375 -8.0 1.000 1.000 1.000
v 1033.2488708496094 -90.09130859375 -78.0 1.000 1.000 1.000
v 1033.2488708496094 -90.09130859375 -78.0 1.000 1.000 1.000
v 1028.2488708496094 -147.09130859375 -76.0 1.000 1.000 1.000
v 1034.0940551757812 -147.56796979904175 21.0 1.000 1.000 1.000
v 1046.0940551757812 -74.56796979904175 -4.0 1.000 1.000 1.000
v 1040.0940551757812 -93.56796979904175 -37.0 1.000 1.000 1.000
v 1035.0940551757812 -110.56796979904175 -65.0 1.000 1.000 1.000
v 1035.0940551757812 -110.56796979904175 -65.0 1.000 1.000 1.000
v 1038.0940551757812 -158.56796979904175 -51.0 1.000 1.000 1.000
v 1038.0940551757812 -152.56796979904175 -13.0 1.000 1.000 1.000
v 558.2488708496094 -41.09130859375 -9.0 1.000 1.000 1.000
v 556.2488708496094 -92.09130859375 -74.0 1.000 1.000 1.000
v 556.2488708496094 -159.09130859375 -77.0 1.000 1.000 1.000
v 556.2488708496094 -92.09130859375 -74.0 1.000 1.000 1.000
v 550.2488708496094 -190.09130859375 9.0 1.000 1.000 1.000
v 568.2488708496094 -128.09130859375 71.0 1.000 1.000 1.000
v 568.2488708496094 -65.09130859375 49.0 1.000 1.000 1.000
v 625.2488708496094 -43.09130859375 -16.0 1.000 1.000 1.000
v 620.2488708496094 -70.09130859375 50.0 1.000 1.000 1.000
v 637.2488708496094 -91.09130859375 -85.0 1.000 1.000 1.000
v 637.2488708496094 -91.09130859375 -85.0 1.000 1.000 1.000
v 635.2488708496094 -155.09130859375 -72.0 1.000 1.000 1.000
v 625.2488708496094 -186.09130859375 -3.0 1.000 1.000 1.000
v 620.2488708496094 -128.09130859375 66.0 1.000 1.000 1.000
v 568.2488708496094 -128.09130859375 71.0 1.000 1.000 1.000
v 523.2488708496094 -128.09130859375 75.0 1.000 1.000 1.000
v 550.2488708496094 -190.09130859375 9.0 1.000 1.000 1.000
v 522.2488708496094 -66.09130859375 50.0 1.000 1.000 1.000
v 568.2488708496094 -65.09130859375 49.0 1.000 1.000 1.000
v 558.2488708496094 -41.09130859375 -9.0 1.000 1.000 1.000
v 1050.2488708496094 -59.09130859375 32.0 1.000 1.000 1.000
v 578.2488708496094 -138.09130859375 87.0 1.000 1.000 1.000
v 1050.2488708496094 -180.09130859375 65.0 1.000 1.000 1.000
v 1023.2488708496094 -91.09130859375 -89.0 1.000 1.000 1.000
v 572.2488708496094 -115.09130859375 -67.0 1.000 1.000 1.000
v 569.2488708496094 -40.09130859375 38.0 1.000 1.000 1.000
v 572.2488708496094 -202.09130859375 13.0 1.000 1.000 1.000
v 1022.2488708496094 -204.09130859375 -71.0 1.000 1.000 1.000
v 572.2488708496094 -202.09130859375 13.0 1.000 1.000 1.000
v 578.2488708496094 -138.09130859375 87.0 1.000 1.000 1.000
v 215.49652099609375 -74.77922821044922 110.0 1.000 1.000 1.000
v 215.49652099609375 -103.77922821044922 103.0 1.000 1.000 1.000
v 215.49652099609375 -34.77922821044922 14.0 1.000 1.000 1.000
v 215.49652099609375 -51.77922821044922 5.0 1.000 1.000 1.000
v 215.49652099609375 -51.77922821044922 -78.0 1.000 1.000 1.000
v 215.49652099609375 -67.77922821044922 -75.0 1.000 1.000 1.000
v 215.49652099609375 -156.77922821044922 -91.0 1.000 1.000 1.000
v 215.49652099609375 -160.77922821044922 -68.0 1.000 1.000 1.000
v 215.49652099609375 -205.77922821044922 -98.0 1.000 1.000 1.000
v 215.49652099609375 -204.77922821044922 -41.0 1.000 1.000 1.000
v 214.49652099609375 -204.77922821044922 126.0 1.000 1.000 1.000
v 215.49652099609375 -200.77922821044922 70.0 1.000 1.000 1.000
v 215.49652099609375 -152.77922821044922 102.0 1.000 1.000 1.000
v 215.49652099609375 -129.77922821044922 122.0 1.000 1.000 1.000
v 215.49652099609375 -200.77922821044922 70.0 1.000 1.000 1.000
v 215.49652099609375 -204.77922821044922 -41.0 1.000 1.000 1.000
v 463.49652099609375 -193.77922821044922 23.0 1.000 1.000 1.000
v 416.49652099609375 -170.77922821044922 -79.0 1.000 1.000 1.000
v 215.49652099609375 -160.77922821044922 -68.0 1.000 1.000 1.000
v 215.49652099609375 -67.77922821044922 -75.0 1.000 1.000 1.000
v 444.49652099609375 -42.77922821044922 -4.0 1.000 1.000 1.000
v 415.49652099609375 -92.77922821044922 -86.0 1.000 1.000 1.000
v 215.49652099609375 -67.77922821044922 -75.0 1.000 1.000 1.000
v 215.49652099609375 -103.77922821044922 103.0 1.000 1.000 1.000
v 441.49652099609375 -124.77922821044922 83.0 1.000 1.000 1.000
v 463.49652099609375 -65.77922821044922 53.0 1.000 1.000 1.000
v 215.49652099609375 -51.77922821044922 5.0 1.000 1.000 1.000
v 415.49652099609375 -92.77922821044922 -86.0 1.000 1.000 1.000
v 215.49652099609375 -152.77922821044922 102.0 1.000 1.000 1.000
v 0.0 -81.0 -94.0 1.000 1.000 1.000
v 46.0 -80.0 -88.0 1.000 1.000 1.000
v 105.0 -44.0 -86.0 1.000 1.000 1.000
v 160.0 -25.0 22.0 1.000 1.000 1.000
v 0.0 -115.0 124.0 1.000 1.000 1.000
v 160.0 -25.0 22.0 1.000 1.000 1.000
v 0.0 -81.0 -94.0 1.000 1.000 1.000
v 215.49652099609375 -156.77922821044922 -91.0 1.000 1.000 1.000
v 215.49652099609375 -205.77922821044922 -98.0 1.000 1.000 1.000
v 215.49652099609375 -51.77922821044922 -78.0 1.000 1.000 1.000
v 215.49652099609375 -34.77922821044922 14.0 1.000 1.000 1.000
v 214.49652099609375 -204.77922821044922 126.0 1.000 1.000 1.000
v 215.49652099609375 -129.77922821044922 122.0 1.000 1.000 1.000
v 215.49652099609375 -34.77922821044922 14.0 1.000 1.000 1.000
v 215.49652099609375 -74.77922821044922 110.0 1.000 1.000 1.000
v 215.49652099609375 -205.77922821044922 -98.0 1.000 1.000 1.000
v 80.0 -73.0 125.0 1.000 1.000 1.000
v 160.0 -25.0 22.0 1.000 1.000 1.000
v 0.0 -115.0 124.0 1.000 1.000 1.000
v 215.49652099609375 -129.77922821044922 122.0 1.000 1.000 1.000
v 215.49652099609375 -74.77922821044922 110.0 1.000 1.000 1.000
v 214.49652099609375 -204.77922821044922 126.0 1.000 1.000 1.000
v 215.49652099609375 -205.77922821044922 -98.0 1.000 1.000 1.000
v 444.49652099609375 -42.77922821044922 -4.0 1.000 1.000 1.000
v 415.49652099609375 -92.77922821044922 -86.0 1.000 1.000 1.000
v 415.49652099609375 -92.77922821044922 -86.0 1.000 1.000 1.000
v 416.49652099609375 -170.77922821044922 -79.0 1.000 1.000 1.000
v 463.49652099609375 -193.77922821044922 23.0 1.000 1.000 1.000
v 441.49652099609375 -124.77922821044922 83.0 1.000 1.000 1.000
v 463.49652099609375 -65.77922821044922 53.0 1.000 1.000 1.000
v 556.2488708496094 -92.09130859375 -74.0 1.000 1.000 1.000
v 558.2488708496094 -41.09130859375 -9.0 1.000 1.000 1.000
v 556.2488708496094 -159.09130859375 -77.0 1.000 1.000 1.000
v 556.2488708496094 -92.09130859375 -74.0 1.000 1.000 1.000
v 550.2488708496094 -190.09130859375 9.0 1.000 1.000 1.000
v 523.2488708496094 -128.09130859375 75.0 1.000 1.000 1.000
v 522.2488708496094 -66.09130859375 50.0 1.000 1.000 1.000
v 216.49652099609375 -157.77922821044922 124.0 1.000 1.000 1.000
v 214.49652099609375 -198.77922821044922 20.0 1.000 1.000 1.000
v 577.4965209960938 -138.77922821044922 87.0 1.000 1.000 1.000
v 572.4965209960938 -201.77922821044922 13.0 1.000 1.000 1.000
v 212.49652099609375 -128.77922821044922 -73.0 1.000 1.000 1.000
v 213.49652099609375 -43.77922821044922 27.0 1.000 1.000 1.000
v 569.4965209960938 -39.77922821044922 38.0 1.000 1.000 1.000
v 572.4965209960938 -114.77922821044922 -67.0 1.000 1.000 1.000
v 212.49652099609375 -128.77922821044922 -73.0 1.000 1.000 1.000
v 214.49652099609375 -198.77922821044922 20.0 1.000 1.000 1.000
v 216.49652099609375 -157.77922821044922 124.0 1.000 1.000 1.000
v 213.49652099609375 -43.77922821044922 27.0 1.000 1.000 1.000
v 572.4965209960938 -201.77922821044922 13.0 1.000 1.000 1.000
v 577.4965209960938 -138.77922821044922 87.0 1.000 1.000 1.000
v -215.13906860351562 424.3647840023041 0.0 1.000 1.000 1.000
v -266.1390686035156 362.3647840023041 66.0 1.000 1.000 1.000
v -317.1390686035156 423.3647840023041 0.0 1.000 1.000 1.000
v 42.334922075271606 483.8643493652344 9.0 1.000 1.000 1.000
v 32.334922075271606 462.8643493652344 27.0 1.000 1.000 1.000
v -0.6650779247283936 429.8643493652344 65.0 1.000 1.000 1.000
v -20.665077924728394 440.8643493652344 51.0 1.000 1.000 1.000
v 18.334922075271606 440.8643493652344 49.0 1.000 1.000 1.000
v -44.665077924728394 483.8643493652344 9.0 1.000 1.000 1.000
v -43.665077924728394 479.8643493652344 -2.0 1.000 1.000 1.000
v 41.334922075271606 479.8643493652344 -2.0 1.000 1.000 1.000
v 27.334922075271606 450.8643493652344 40.0 1.000 1.000 1.000
v -37.665077924728394 462.8643493652344 27.0 1.000 1.000 1.000
v -29.665077924728394 450.8643493652344 40.0 1.000 1.000 1.000
v -213.13906860351562 414.3647840023041 -52.0 1.000 1.000 1.000
v -318.1390686035156 414.3647840023041 -52.0 1.000 1.000 1.000
v -317.1390686035156 423.3647840023041 0.0 1.000 1.000 1.000
v -215.13906860351562 424.3647840023041 0.0 1.000 1.000 1.000
v 24.334922075271606 468.8643493652344 -37.0 1.000 1.000 1.000
v 41.334922075271606 479.8643493652344 -2.0 1.000 1.000 1.000
v -28.665077924728394 468.8643493652344 -36.0 1.000 1.000 1.000
v -43.665077924728394 479.8643493652344 -2.0 1.000 1.000 1.000
v 261.8036346435547 9.255239009857178 -30.438599109649658 1.000 1.000 1.000
v 260.8036346435547 33.25523900985718 12.561400890350342 1.000 1.000 1.000
v 346.8036346435547 23.255239009857178 -29.438599109649658 1.000 1.000 1.000
v 259.8036346435547 23.255239009857178 42.56140089035034 1.000 1.000 1.000
v 357.8036346435547 50.25523900985718 53.56140089035034 1.000 1.000 1.000
v 346.8036346435547 23.255239009857178 -29.438599109649658 1.000 1.000 1.000
v 369.8036346435547 -24.744760990142822 -45.43859910964966 1.000 1.000 1.000
v 261.8036346435547 9.255239009857178 -30.438599109649658 1.000 1.000 1.000
v 264.8036346435547 -26.744760990142822 -25.438599109649658 1.000 1.000 1.000
v 264.8036346435547 -32.74476099014282 39.56140089035034 1.000 1.000 1.000
v 380.8036346435547 -28.744760990142822 58.56140089035034 1.000 1.000 1.000
v 259.8036346435547 23.255239009857178 42.56140089035034 1.000 1.000 1.000
v 357.8036346435547 50.25523900985718 53.56140089035034 1.000 1.000 1.000
v 264.8036346435547 -28.744760990142822 5.561400890350342 1.000 1.000 1.000
v 264.8036346435547 -26.744760990142822 -25.438599109649658 1.000 1.000 1.000
v 369.8036346435547 -24.744760990142822 -45.43859910964966 1.000 1.000 1.000
v 380.8036346435547 -28.744760990142822 58.56140089035034 1.000 1.000 1.000
v 264.8036346435547 -32.74476099014282 39.56140089035034 1.000 1.000 1.000
v 264.8036346435547 -28.744760990142822 5.561400890350342 1.000 1.000 1.000
v 369.8036346435547 -24.744760990142822 -45.43859910964966 1.000 1.000 1.000
v 369.8036346435547 -24.744760990142822 -45.43859910964966 1.000 1.000 1.000
v 346.8036346435547 23.255239009857178 -29.438599109649658 1.000 1.000 1.000
v 380.8036346435547 -28.744760990142822 58.56140089035034 1.000 1.000 1.000
v 357.8036346435547 50.25523900985718 53.56140089035034 1.000 1.000 1.000
v 512.0494202375412 434.91886138916016 55.4392204284668 1.000 1.000 1.000
v 512.0494202375412 392.91886138916016 64.4392204284668 1.000 1.000 1.000
v 693.0494202375412 417.91886138916016 66.4392204284668 1.000 1.000 1.000
v 513.0494202375412 438.91886138916016 8.439220428466797 1.000 1.000 1.000
v 693.0494202375412 444.91886138916016 22.439220428466797 1.000 1.000 1.000
v 695.0494202375412 418.91886138916016 -26.560779571533203 1.000 1.000 1.000
v 514.0494202375412 341.91886138916016 -5.560779571533203 1.000 1.000 1.000
v 515.0494202375412 398.91886138916016 -43.5607795715332 1.000 1.000 1.000
v 693.0494202375412 371.91886138916016 -33.5607795715332 1.000 1.000 1.000
v 512.0494202375412 434.91886138916016 55.4392204284668 1.000 1.000 1.000
v 693.0494202375412 417.91886138916016 66.4392204284668 1.000 1.000 1.000
v 695.0494202375412 362.91886138916016 65.4392204284668 1.000 1.000 1.000
v 512.0494202375412 346.91886138916016 52.4392204284668 1.000 1.000 1.000
v 694.0494202375412 352.91886138916016 21.439220428466797 1.000 1.000 1.000
v 694.0494202375412 352.91886138916016 21.439220428466797 1.000 1.000 1.000
v 695.0494202375412 362.91886138916016 65.4392204284668 1.000 1.000 1.000
v 693.0494202375412 417.91886138916016 66.4392204284668 1.000 1.000 1.000
v 693.0494202375412 444.91886138916016 22.439220428466797 1.000 1.000 1.000
v 695.0494202375412 418.91886138916016 -26.560779571533203 1.000 1.000 1.000
v 693.0494202375412 371.91886138916016 -33.5607795715332 1.000 1.000 1.000
v 264.8036346435547 -28.744760990142822 5.561400890350342 1.000 1.000 1.000
v 264.8036346435547 -26.744760990142822 -25.438599109649658 1.000 1.000 1.000
v 264.8036346435547 -32.74476099014282 39.56140089035034 1.000 1.000 1.000
v 259.8036346435547 23.255239009857178 42.56140089035034 1.000 1.000 1.000
v 260.8036346435547 33.25523900985718 12.561400890350342 1.000 1.000 1.000
v 261.8036346435547 9.255239009857178 -30.438599109649658 1.000 1.000 1.000
v 427.0494202375412 336.91886138916016 -6.560779571533203 1.000 1.000 1.000
v 433.0494202375412 398.91886138916016 -45.5607795715332 1.000 1.000 1.000
v 431.0494202375412 434.91886138916016 7.439220428466797 1.000 1.000 1.000
v 430.0494202375412 432.91886138916016 53.4392204284668 1.000 1.000 1.000
v 429.0494202375412 392.91886138916016 63.4392204284668 1.000 1.000 1.000
v 430.0494202375412 344.91886138916016 56.4392204284668 1.000 1.000 1.000
v 514.0494202375412 341.91886138916016 -5.560779571533203 1.000 1.000 1.000
v 515.0494202375412 398.91886138916016 -43.5607795715332 1.000 1.000 1.000
v 513.0494202375412 438.91886138916016 8.439220428466797 1.000 1.000 1.000
v 512.0494202375412 434.91886138916016 55.4392204284668 1.000 1.000 1.000
v 512.0494202375412 392.91886138916016 64.4392204284668 1.000 1.000 1.000
v 512.0494202375412 346.91886138916016 52.4392204284668 1.000 1.000 1.000
v 699.0494202375412 372.91886138916016 49.4392204284668 1.000 1.000 1.000
v 424.0494202375412 426.91886138916016 91.4392204284668 1.000 1.000 1.000
v 425.0494202375412 325.91886138916016 88.4392204284668 1.000 1.000 1.000
v 427.0494202375412 320.91886138916016 -24.560779571533203 1.000 1.000 1.000
v 700.0494202375412 378.91886138916016 -17.560779571533203 1.000 1.000 1.000
v 426.0494202375412 437.91886138916016 -46.5607795715332 1.000 1.000 1.000
v 698.0494202375412 436.91886138916016 48.4392204284668 1.000 1.000 1.000
v 700.0494202375412 418.91886138916016 -20.560779571533203 1.000 1.000 1.000
v 245.941464304924 300.12852478027344 71.0 1.000 1.000 1.000
v 257.941464304924 295.12852478027344 -15.0 1.000 1.000 1.000
v 347.941464304924 339.12852478027344 64.0 1.000 1.000 1.000
v 348.941464304924 391.12852478027344 67.0 1.000 1.000 1.000
v 182.941464304924 355.12852478027344 72.0 1.000 1.000 1.000
v 170.941464304924 345.12852478027344 -57.0 1.000 1.000 1.000
v 133.941464304924 381.12852478027344 9.0 1.000 1.000 1.000
v 351.941464304924 398.12852478027344 -48.0 1.000 1.000 1.000
v 348.941464304924 323.12852478027344 -8.0 1.000 1.000 1.000
v 346.941464304924 426.12852478027344 58.0 1.000 1.000 1.000
v 337.941464304924 428.12852478027344 7.0 1.000 1.000 1.000
v -93.13906860351562 241.36478400230408 70.0 1.000 1.000 1.000
v -96.13906860351562 230.36478400230408 -17.0 1.000 1.000 1.000
v -92.13906860351562 363.3647840023041 -51.0 1.000 1.000 1.000
v -91.13906860351562 386.3647840023041 27.0 1.000 1.000 1.000
v -92.13906860351562 343.3647840023041 79.0 1.000 1.000 1.000
v 245.941464304924 300.12852478027344 71.0 1.000 1.000 1.000
v 257.941464304924 295.12852478027344 -15.0 1.000 1.000 1.000
v 170.941464304924 345.12852478027344 -57.0 1.000 1.000 1.000
v 133.941464304924 381.12852478027344 9.0 1.000 1.000 1.000
v 182.941464304924 355.12852478027344 72.0 1.000 1.000 1.000
v 337.941464304924 428.12852478027344 7.0 1.000 1.000 1.000
v 351.941464304924 398.12852478027344 -48.0 1.000 1.000 1.000
v 348.941464304924 323.12852478027344 -8.0 1.000 1.000 1.000
v 347.941464304924 339.12852478027344 64.0 1.000 1.000 1.000
v 348.941464304924 391.12852478027344 67.0 1.000 1.000 1.000
v 346.941464304924 426.12852478027344 58.0 1.000 1.000 1.000
v 433.0494202375412 398.91886138916016 -45.5607795715332 1.000 1.000 1.000
v 431.0494202375412 434.91886138916016 7.439220428466797 1.000 1.000 1.000
v 427.0494202375412 336.91886138916016 -6.560779571533203 1.000 1.000 1.000
v 430.0494202375412 344.91886138916016 56.4392204284668 1.000 1.000 1.000
v 429.0494202375412 392.91886138916016 63.4392204284668 1.000 1.000 1.000
v 430.0494202375412 432.91886138916016 53.4392204284668 1.000 1.000 1.000
v 118.94146430492401 295.12852478027344 65.0 1.000 1.000 1.000
v 95.94146430492401 289.12852478027344 -47.0 1.000 1.000 1.000
v 424.941464304924 326.12852478027344 89.0 1.000 1.000 1.000
v 423.941464304924 427.12852478027344 91.0 1.000 1.000 1.000
v 181.941464304924 391.12852478027344 67.0 1.000 1.000 1.000
v 179.941464304924 403.12852478027344 -34.0 1.000 1.000 1.000
v 425.941464304924 437.12852478027344 -47.0 1.000 1.000 1.000
v 426.941464304924 321.12852478027344 -24.0 1.000 1.000 1.000
v 118.94146430492401 295.12852478027344 65.0 1.000 1.000 1.000
v 95.94146430492401 289.12852478027344 -47.0 1.000 1.000 1.000
v -769.3520385026932 430.3115499019623 -29.0 1.000 1.000 1.000
v -782.3520385026932 456.3115499019623 54.0 1.000 1.000 1.000
v -685.3520385026932 434.3115499019623 8.0 1.000 1.000 1.000
v -686.3520385026932 429.3115499019623 44.0 1.000 1.000 1.000
v -685.3520385026932 416.3115499019623 -29.0 1.000 1.000 1.000
v -685.3520385026932 416.3115499019623 -29.0 1.000 1.000 1.000
v -793.3520385026932 382.3115499019623 -46.0 1.000 1.000 1.000
v -769.3520385026932 430.3115499019623 -29.0 1.000 1.000 1.000
v -688.3520385026932 381.3115499019623 -24.0 1.000 1.000 1.000
v -686.3520385026932 429.3115499019623 44.0 1.000 1.000 1.000
v -805.3520385026932 376.3115499019623 58.0 1.000 1.000 1.000
v -690.3520385026932 373.3115499019623 40.0 1.000 1.000 1.000
v -782.3520385026932 456.3115499019623 54.0 1.000 1.000 1.000
v -692.3520385026932 377.3115499019623 9.0 1.000 1.000 1.000
v -690.3520385026932 373.3115499019623 40.0 1.000 1.000 1.000
v -805.3520385026932 376.3115499019623 58.0 1.000 1.000 1.000
v -793.3520385026932 382.3115499019623 -46.0 1.000 1.000 1.000
v -688.3520385026932 381.3115499019623 -24.0 1.000 1.000 1.000
v -692.3520385026932 377.3115499019623 9.0 1.000 1.000 1.000
v -805.3520385026932 376.3115499019623 58.0 1.000 1.000 1.000
v -805.3520385026932 376.3115499019623 58.0 1.000 1.000 1.000
v -769.3520385026932 430.3115499019623 -29.0 1.000 1.000 1.000
v -793.3520385026932 382.3115499019623 -46.0 1.000 1.000 1.000
v -782.3520385026932 456.3115499019623 54.0 1.000 1.000 1.000
v -686.2129698991776 440.9467658996582 50.0 1.000 1.000 1.000
v -505.21296989917755 399.9467658996582 61.0 1.000 1.000 1.000
v -505.21296989917755 441.9467658996582 52.0 1.000 1.000 1.000
v -687.2129698991776 427.9467658996582 -34.0 1.000 1.000 1.000
v -685.2129698991776 452.9467658996582 17.0 1.000 1.000 1.000
v -505.21296989917755 446.9467658996582 5.0 1.000 1.000 1.000
v -684.2129698991776 380.9467658996582 -41.0 1.000 1.000 1.000
v -507.21296989917755 407.9467658996582 -48.0 1.000 1.000 1.000
v -506.21296989917755 356.9467658996582 -10.0 1.000 1.000 1.000
v -685.2129698991776 452.9467658996582 17.0 1.000 1.000 1.000
v -688.2129698991776 369.9467658996582 57.0 1.000 1.000 1.000
v -687.2129698991776 360.9467658996582 14.0 1.000 1.000 1.000
v -505.21296989917755 359.9467658996582 48.0 1.000 1.000 1.000
v -505.21296989917755 446.9467658996582 5.0 1.000 1.000 1.000
v -687.2129698991776 360.9467658996582 14.0 1.000 1.000 1.000
v -684.2129698991776 380.9467658996582 -41.0 1.000 1.000 1.000
v -687.2129698991776 427.9467658996582 -34.0 1.000 1.000 1.000
v -685.2129698991776 452.9467658996582 17.0 1.000 1.000 1.000
v -686.2129698991776 440.9467658996582 50.0 1.000 1.000 1.000
v -688.2129698991776 369.9467658996582 57.0 1.000 1.000 1.000
v -692.3520385026932 377.3115499019623 9.0 1.000 1.000 1.000
v -688.3520385026932 381.3115499019623 -24.0 1.000 1.000 1.000
v -685.3520385026932 416.3115499019623 -29.0 1.000 1.000 1.000
v -685.3520385026932 434.3115499019623 8.0 1.000 1.000 1.000
v -686.3520385026932 429.3115499019623 44.0 1.000 1.000 1.000
v -690.3520385026932 373.3115499019623 40.0 1.000 1.000 1.000
v -423.21296989917755 442.9467658996582 6.0 1.000 1.000 1.000
v -424.21296989917755 407.9467658996582 -48.0 1.000 1.000 1.000
v -423.21296989917755 350.9467658996582 -10.0 1.000 1.000 1.000
v -422.21296989917755 357.9467658996582 53.0 1.000 1.000 1.000
v -422.21296989917755 399.9467658996582 61.0 1.000 1.000 1.000
v -423.21296989917755 439.9467658996582 51.0 1.000 1.000 1.000
v -505.21296989917755 446.9467658996582 5.0 1.000 1.000 1.000
v -507.21296989917755 407.9467658996582 -48.0 1.000 1.000 1.000
v -506.21296989917755 356.9467658996582 -10.0 1.000 1.000 1.000
v -505.21296989917755 359.9467658996582 48.0 1.000 1.000 1.000
v -505.21296989917755 399.9467658996582 61.0 1.000 1.000 1.000
v -505.21296989917755 441.9467658996582 52.0 1.000 1.000 1.000
v -420.21296989917755 331.9467658996582 85.0 1.000 1.000 1.000
v -423.21296989917755 432.9467658996582 89.0 1.000 1.000 1.000
v -695.2129698991776 369.9467658996582 42.0 1.000 1.000 1.000
v -695.2129698991776 376.9467658996582 -25.0 1.000 1.000 1.000
v -420.21296989917755 328.9467658996582 -28.0 1.000 1.000 1.000
v -696.2129698991776 432.9467658996582 42.0 1.000 1.000 1.000
v -422.21296989917755 445.9467658996582 -49.0 1.000 1.000 1.000
v -696.2129698991776 416.9467658996582 -27.0 1.000 1.000 1.000
v -340.75918877124786 352.7203826904297 62.0 1.000 1.000 1.000
v -248.75918877124786 316.7203826904297 -16.0 1.000 1.000 1.000
v -239.75918877124786 320.7203826904297 69.0 1.000 1.000 1.000
v -176.75918877124786 376.7203826904297 73.0 1.000 1.000 1.000
v -342.75918877124786 397.7203826904297 65.0 1.000 1.000 1.000
v -342.75918877124786 406.7203826904297 -49.0 1.000 1.000 1.000
v -125.75918877124786 404.7203826904297 11.0 1.000 1.000 1.000
v -161.75918877124786 369.7203826904297 -56.0 1.000 1.000 1.000
v -340.75918877124786 338.7203826904297 -11.0 1.000 1.000 1.000
v -340.75918877124786 432.7203826904297 57.0 1.000 1.000 1.000
v -329.75918877124786 436.7203826904297 7.0 1.000 1.000 1.000
v -437.1390686035156 241.36478400230408 71.0 1.000 1.000 1.000
v -436.1390686035156 228.36478400230408 -20.0 1.000 1.000 1.000
v -443.1390686035156 364.3647840023041 -53.0 1.000 1.000 1.000
v -441.1390686035156 383.3647840023041 29.0 1.000 1.000 1.000
v -443.1390686035156 343.3647840023041 79.0 1.000 1.000 1.000
v -248.75918877124786 316.7203826904297 -16.0 1.000 1.000 1.000
v -239.75918877124786 320.7203826904297 69.0 1.000 1.000 1.000
v -161.75918877124786 369.7203826904297 -56.0 1.000 1.000 1.000
v -125.75918877124786 404.7203826904297 11.0 1.000 1.000 1.000
v -176.75918877124786 376.7203826904297 73.0 1.000 1.000 1.000
v -329.75918877124786 436.7203826904297 7.0 1.000 1.000 1.000
v -342.75918877124786 406.7203826904297 -49.0 1.000 1.000 1.000
v -340.75918877124786 338.7203826904297 -11.0 1.000 1.000 1.000
v -340.75918877124786 352.7203826904297 62.0 1.000 1.000 1.000
v -342.75918877124786 397.7203826904297 65.0 1.000 1.000 1.000
v -340.75918877124786 432.7203826904297 57.0 1.000 1.000 1.000
v -423.21296989917755 442.9467658996582 6.0 1.000 1.000 1.000
v -424.21296989917755 407.9467658996582 -48.0 1.000 1.000 1.000
v -423.21296989917755 350.9467658996582 -10.0 1.000 1.000 1.000
v -422.21296989917755 357.9467658996582 53.0 1.000 1.000 1.000
v -422.21296989917755 399.9467658996582 61.0 1.000 1.000 1.000
v -423.21296989917755 439.9467658996582 51.0 1.000 1.000 1.000
v -175.75918877124786 408.7203826904297 68.0 1.000 1.000 1.000
v -112.75918877124786 312.7203826904297 66.0 1.000 1.000 1.000
v -87.75918877124786 308.7203826904297 -45.0 1.000 1.000 1.000
v -171.75918877124786 422.7203826904297 -33.0 1.000 1.000 1.000
v -420.75918877124786 331.7203826904297 85.0 1.000 1.000 1.000
v -87.75918877124786 308.7203826904297 -45.0 1.000 1.000 1.000
v -112.75918877124786 312.7203826904297 66.0 1.000 1.000 1.000
v -422.75918877124786 432.7203826904297 89.0 1.000 1.000 1.000
v -422.75918877124786 445.7203826904297 -49.0 1.000 1.000 1.000
v -419.75918877124786 328.7203826904297 -28.0 1.000 1.000 1.000
v -332.1390686035156 224.36478400230408 -99.0 1.000 1.000 1.000
v -328.1390686035156 88.36478400230408 -69.0 1.000 1.000 1.000
v -377.1390686035156 86.36478400230408 -58.0 1.000 1.000 1.000
v -198.13906860351562 224.36478400230408 -100.0 1.000 1.000 1.000
v -312.1390686035156 357.3647840023041 -81.0 1.000 1.000 1.000
v -91.13906860351562 386.3647840023041 27.0 1.000 1.000 1.000
v -213.13906860351562 414.3647840023041 -52.0 1.000 1.000 1.000
v -215.13906860351562 424.3647840023041 0.0 1.000 1.000 1.000
v -436.1390686035156 228.36478400230408 -20.0 1.000 1.000 1.000
v -443.1390686035156 364.3647840023041 -53.0 1.000 1.000 1.000
v -264.1390686035156 90.36478400230408 -71.0 1.000 1.000 1.000
v -92.13906860351562 363.3647840023041 -51.0 1.000 1.000 1.000
v -219.13906860351562 358.3647840023041 -82.0 1.000 1.000 1.000
v -202.13906860351562 87.36478400230408 -71.0 1.000 1.000 1.000
v -317.1390686035156 423.3647840023041 0.0 1.000 1.000 1.000
v -318.1390686035156 414.3647840023041 -52.0 1.000 1.000 1.000
v -441.1390686035156 383.3647840023041 29.0 1.000 1.000 1.000
v -443.1390686035156 364.3647840023041 -53.0 1.000 1.000 1.000
v -198.13906860351562 224.36478400230408 -100.0 1.000 1.000 1.000
v -96.13906860351562 230.36478400230408 -17.0 1.000 1.000 1.000
v -157.13906860351562 87.36478400230408 -60.0 1.000 1.000 1.000
v -219.13906860351562 358.3647840023041 -82.0 1.000 1.000 1.000
v -312.1390686035156 357.3647840023041 -81.0 1.000 1.000 1.000
v -213.13906860351562 414.3647840023041 -52.0 1.000 1.000 1.000
v -91.13906860351562 386.3647840023041 27.0 1.000 1.000 1.000
v -92.13906860351562 363.3647840023041 -51.0 1.000 1.000 1.000
v -202.13906860351562 87.36478400230408 -71.0 1.000 1.000 1.000
v -377.1390686035156 86.36478400230408 -58.0 1.000 1.000 1.000
v -413.1390686035156 83.36478400230408 21.0 1.000 1.000 1.000
v -436.1390686035156 228.36478400230408 -20.0 1.000 1.000 1.000
v -157.13906860351562 87.36478400230408 -60.0 1.000 1.000 1.000
v -96.13906860351562 230.36478400230408 -17.0 1.000 1.000 1.000
v -110.13906860351562 82.36478400230408 22.0 1.000 1.000 1.000
v -213.13906860351562 414.3647840023041 -52.0 1.000 1.000 1.000
v -92.13906860351562 363.3647840023041 -51.0 1.000 1.000 1.000
v -219.13906860351562 358.3647840023041 -82.0 1.000 1.000 1.000
v -312.1390686035156 357.3647840023041 -81.0 1.000 1.000 1.000
v -332.1390686035156 224.36478400230408 -99.0 1.000 1.000 1.000
v -443.1390686035156 364.3647840023041 -53.0 1.000 1.000 1.000
v -198.13906860351562 224.36478400230408 -100.0 1.000 1.000 1.000
v -264.1390686035156 90.36478400230408 -71.0 1.000 1.000 1.000
v -92.13906860351562 343.3647840023041 79.0 1.000 1.000 1.000
v -265.1390686035156 232.36478400230408 147.0 1.000 1.000 1.000
v -138.13906860351562 219.36478400230408 133.0 1.000 1.000 1.000
v -395.1390686035156 219.36478400230408 134.0 1.000 1.000 1.000
v -413.1390686035156 83.36478400230408 21.0 1.000 1.000 1.000
v -338.1390686035156 92.36478400230408 125.0 1.000 1.000 1.000
v -266.1390686035156 362.3647840023041 66.0 1.000 1.000 1.000
v -317.1390686035156 423.3647840023041 0.0 1.000 1.000 1.000
v -312.1390686035156 372.3647840023041 81.0 1.000 1.000 1.000
v -265.1390686035156 232.36478400230408 147.0 1.000 1.000 1.000
v -265.1390686035156 92.36478400230408 137.0 1.000 1.000 1.000
v -188.13906860351562 92.36478400230408 125.0 1.000 1.000 1.000
v -93.13906860351562 241.36478400230408 70.0 1.000 1.000 1.000
v -92.13906860351562 343.3647840023041 79.0 1.000 1.000 1.000
v -138.13906860351562 219.36478400230408 133.0 1.000 1.000 1.000
v -110.13906860351562 82.36478400230408 22.0 1.000 1.000 1.000
v -443.1390686035156 343.3647840023041 79.0 1.000 1.000 1.000
v -437.1390686035156 241.36478400230408 71.0 1.000 1.000 1.000
v -96.13906860351562 230.36478400230408 -17.0 1.000 1.000 1.000
v -441.1390686035156 383.3647840023041 29.0 1.000 1.000 1.000
v -443.1390686035156 343.3647840023041 79.0 1.000 1.000 1.000
v -312.1390686035156 372.3647840023041 81.0 1.000 1.000 1.000
v -266.1390686035156 362.3647840023041 66.0 1.000 1.000 1.000
v -265.1390686035156 232.36478400230408 147.0 1.000 1.000 1.000
v -395.1390686035156 219.36478400230408 134.0 1.000 1.000 1.000
v -92.13906860351562 343.3647840023041 79.0 1.000 1.000 1.000
v -219.13906860351562 373.3647840023041 81.0 1.000 1.000 1.000
v -91.13906860351562 386.3647840023041 27.0 1.000 1.000 1.000
v -317.1390686035156 423.3647840023041 0.0 1.000 1.000 1.000
v -215.13906860351562 424.3647840023041 0.0 1.000 1.000 1.000
v -436.1390686035156 228.36478400230408 -20.0 1.000 1.000 1.000
v -413.1390686035156 83.36478400230408 21.0 1.000 1.000 1.000
v -437.1390686035156 241.36478400230408 71.0 1.000 1.000 1.000
v -141.7704039812088 81.03605651855469 21.0 1.000 1.000 1.000
v -100.7704039812088 88.03605651855469 -62.0 1.000 1.000 1.000
v -51.7704039812088 90.03605651855469 -68.0 1.000 1.000 1.000
v -8.770403981208801 89.03605651855469 -67.0 1.000 1.000 1.000
v 46.2295960187912 90.03605651855469 -68.0 1.000 1.000 1.000
v 99.2295960187912 89.03605651855469 -65.0 1.000 1.000 1.000
v 150.2295960187912 84.03605651855469 23.0 1.000 1.000 1.000
v -413.1390686035156 83.36478400230408 21.0 1.000 1.000 1.000
v -377.1390686035156 86.36478400230408 -58.0 1.000 1.000 1.000
v -328.1390686035156 88.36478400230408 -69.0 1.000 1.000 1.000
v -264.1390686035156 90.36478400230408 -71.0 1.000 1.000 1.000
v -202.13906860351562 87.36478400230408 -71.0 1.000 1.000 1.000
v -157.13906860351562 87.36478400230408 -60.0 1.000 1.000 1.000
v -110.13906860351562 82.36478400230408 22.0 1.000 1.000 1.000
v 150.2295960187912 84.03605651855469 23.0 1.000 1.000 1.000
v 78.2295960187912 77.03605651855469 122.0 1.000 1.000 1.000
v -0.7704039812088013 73.03605651855469 128.0 1.000 1.000 1.000
v -75.7704039812088 74.03605651855469 119.0 1.000 1.000 1.000
v -141.7704039812088 81.03605651855469 21.0 1.000 1.000 1.000
v -110.13906860351562 82.36478400230408 22.0 1.000 1.000 1.000
v -188.13906860351562 92.36478400230408 125.0 1.000 1.000 1.000
v -265.1390686035156 92.36478400230408 137.0 1.000 1.000 1.000
v -338.1390686035156 92.36478400230408 125.0 1.000 1.000 1.000
v -413.1390686035156 83.36478400230408 21.0 1.000 1.000 1.000
v -54.139068603515625 399.3647840023041 -70.0 1.000 1.000 1.000
v -127.13906860351562 -28.635215997695923 -37.0 1.000 1.000 1.000
v -407.1390686035156 -29.635215997695923 -35.0 1.000 1.000 1.000
v -473.1390686035156 397.3647840023041 -72.0 1.000 1.000 1.000
v -75.13906860351562 360.3647840023041 148.0 1.000 1.000 1.000
v -473.1390686035156 397.3647840023041 -72.0 1.000 1.000 1.000
v -453.1390686035156 356.3647840023041 147.0 1.000 1.000 1.000
v -75.13906860351562 360.3647840023041 148.0 1.000 1.000 1.000
v -396.1390686035156 -24.635215997695923 141.0 1.000 1.000 1.000
v -130.13906860351562 -24.635215997695923 141.0 1.000 1.000 1.000
v -54.139068603515625 399.3647840023041 -70.0 1.000 1.000 1.000
v -407.1390686035156 -29.635215997695923 -35.0 1.000 1.000 1.000
v -396.1390686035156 -24.635215997695923 141.0 1.000 1.000 1.000
v -473.1390686035156 397.3647840023041 -72.0 1.000 1.000 1.000
v -127.13906860351562 -28.635215997695923 -37.0 1.000 1.000 1.000
v -54.139068603515625 399.3647840023041 -70.0 1.000 1.000 1.000
v -130.13906860351562 -24.635215997695923 141.0 1.000 1.000 1.000
v -75.13906860351562 360.3647840023041 148.0 1.000 1.000 1.000
v -453.1390686035156 356.3647840023041 147.0 1.000 1.000 1.000
v -396.1390686035156 -24.635215997695923 141.0 1.000 1.000 1.000
v -396.1390686035156 -24.635215997695923 141.0 1.000 1.000 1.000
v -473.1390686035156 397.3647840023041 -72.0 1.000 1.000 1.000
v -75.13906860351562 360.3647840023041 148.0 1.000 1.000 1.000
v -407.1390686035156 -29.635215997695923 -35.0 1.000 1.000 1.000
v -127.13906860351562 -28.635215997695923 -37.0 1.000 1.000 1.000
v -396.1390686035156 -24.635215997695923 141.0 1.000 1.000 1.000
v -130.13906860351562 -24.635215997695923 141.0 1.000 1.000 1.000
v 95.0 41.0 -65.0 1.000 1.000 1.000
v 105.0 -44.0 -86.0 1.000 1.000 1.000
v 46.0 -80.0 -88.0 1.000 1.000 1.000
v 153.0 35.0 23.0 1.000 1.000 1.000
v 160.0 -25.0 22.0 1.000 1.000 1.000
v 41.0 41.0 -68.0 1.000 1.000 1.000
v 0.0 -81.0 -94.0 1.000 1.000 1.000
v -1.0 40.0 -67.0 1.000 1.000 1.000
v -108.0 -46.0 -82.0 1.000 1.000 1.000
v -154.0 -28.0 20.0 1.000 1.000 1.000
v -148.0 31.0 21.0 1.000 1.000 1.000
v -34.0 -80.0 -88.0 1.000 1.000 1.000
v -37.0 40.0 -68.0 1.000 1.000 1.000
v -100.0 39.0 -62.0 1.000 1.000 1.000
v 72.0 28.0 122.0 1.000 1.000 1.000
v 80.0 -73.0 125.0 1.000 1.000 1.000
v 160.0 -25.0 22.0 1.000 1.000 1.000
v 0.0 23.0 128.0 1.000 1.000 1.000
v -81.0 -77.0 122.0 1.000 1.000 1.000
v 0.0 -115.0 124.0 1.000 1.000 1.000
v 153.0 35.0 23.0 1.000 1.000 1.000
v -75.0 24.0 119.0 1.000 1.000 1.000
v -148.0 31.0 21.0 1.000 1.000 1.000
v -154.0 -28.0 20.0 1.000 1.000 1.000
v -148.0 31.0 21.0 1.000 1.000 1.000
v -100.0 39.0 -62.0 1.000 1.000 1.000
v -37.0 40.0 -68.0 1.000 1.000 1.000
v -1.0 40.0 -67.0 1.000 1.000 1.000
v 41.0 41.0 -68.0 1.000 1.000 1.000
v 95.0 41.0 -65.0 1.000 1.000 1.000
v 153.0 35.0 23.0 1.000 1.000 1.000
v -141.7704039812088 81.03605651855469 21.0 1.000 1.000 1.000
v -100.7704039812088 88.03605651855469 -62.0 1.000 1.000 1.000
v -51.7704039812088 90.03605651855469 -68.0 1.000 1.000 1.000
v -8.770403981208801 89.03605651855469 -67.0 1.000 1.000 1.000
v 46.2295960187912 90.03605651855469 -68.0 1.000 1.000 1.000
v 99.2295960187912 89.03605651855469 -65.0 1.000 1.000 1.000
v 150.2295960187912 84.03605651855469 23.0 1.000 1.000 1.000
v -148.0 31.0 21.0 1.000 1.000 1.000
v 153.0 35.0 23.0 1.000 1.000 1.000
v 72.0 28.0 122.0 1.000 1.000 1.000
v 0.0 23.0 128.0 1.000 1.000 1.000
v -75.0 24.0 119.0 1.000 1.000 1.000
v -75.7704039812088 74.03605651855469 119.0 1.000 1.000 1.000
v -141.7704039812088 81.03605651855469 21.0 1.000 1.000 1.000
v 150.2295960187912 84.03605651855469 23.0 1.000 1.000 1.000
v 78.2295960187912 77.03605651855469 122.0 1.000 1.000 1.000
v -0.7704039812088013 73.03605651855469 128.0 1.000 1.000 1.000
v -191.0 -240.0 -80.0 1.000 1.000 1.000
v -142.0 31.0 -35.0 1.000 1.000 1.000
v 138.0 32.0 -37.0 1.000 1.000 1.000
v 188.0 -241.0 -80.0 1.000 1.000 1.000
v -131.0 36.0 141.0 1.000 1.000 1.000
v -155.0 -240.0 132.0 1.000 1.000 1.000
v 156.0 -240.0 143.0 1.000 1.000 1.000
v -142.0 31.0 -35.0 1.000 1.000 1.000
v -191.0 -240.0 -80.0 1.000 1.000 1.000
v 188.0 -241.0 -80.0 1.000 1.000 1.000
v 138.0 32.0 -37.0 1.000 1.000 1.000
v 156.0 -240.0 143.0 1.000 1.000 1.000
v 135.0 36.0 141.0 1.000 1.000 1.000
v 135.0 36.0 141.0 1.000 1.000 1.000
v 135.0 36.0 141.0 1.000 1.000 1.000
v 138.0 32.0 -37.0 1.000 1.000 1.000
v -142.0 31.0 -35.0 1.000 1.000 1.000
v -131.0 36.0 141.0 1.000 1.000 1.000
v 135.0 36.0 141.0 1.000 1.000 1.000
v 188.0 -241.0 -80.0 1.000 1.000 1.000
v 156.0 -240.0 143.0 1.000 1.000 1.000
v -155.0 -240.0 132.0 1.000 1.000 1.000
v -191.0 -240.0 -80.0 1.000 1.000 1.000
vt 0.0078 0.9902
vt 0.0358 0.9893
vt 1.0404 0.9551
vt 1.0807 0.9531
vt 0.9948 0.7471
vt 0.3685 0.4443
vt 0.1634 0.4160
vt 1.1107 0.7549
vt 0.1081 0.3887
vt 0.3151 0.3740
vt 0.4785 0.3711
vt 0.2546 0.4199
vt 0.6279 -0.0651
vt 0.6123 -1.2630
vt 0.4199 -1.2617
vt 0.7861 -0.0781
vt 0.9658 -0.1113
vt 0.9639 -1.2259
vt 0.7715 -1.2409
vt 0.0898 -0.1055
vt 0.2432 -0.0762
vt 0.0762 -1.2103
vt 0.4629 -0.0645
vt 0.2607 -1.2363
vt 1.0898 -0.1055
vt 1.0762 -1.2103
vt 0.4766 0.2350
vt 0.4951 0.2454
vt 0.5566 -0.1165
vt 0.5332 0.1113
vt 0.5430 0.0723
vt 0.3809 0.7591
vt 0.4238 0.7083
vt 0.4463 0.4180
vt 0.3154 1.1621
vt 0.3701 0.8066
vt 0.3691 0.7396
vt 0.3779 0.8594
vt 0.6318 0.0788
vt 0.7686 0.1094
vt 0.9619 0.1165
vt 1.0850 0.1172
vt 0.0850 0.1172
vt 0.2676 0.1374
vt 0.4678 0.0807
vt 0.6357 0.2077
vt 0.4697 0.2096
vt 0.7422 0.9453
vt 0.5771 -0.0846
vt 0.0957 0.9655
vt 0.0371 -0.0859
vt 0.4463 -0.0931
vt 0.2725 0.8997
vt 0.9248 -0.1074
vt 0.8740 0.8796
vt 0.1240 0.5560
vt 0.1562 0.5859
vt 0.2139 0.2279
vt 0.2783 0.2500
vt 0.3398 0.1855
vt 0.3906 0.2533
vt 0.5098 0.1699
vt 0.4990 0.3600
vt 0.5039 0.9303
vt 0.4961 0.7376
vt 0.3975 0.9095
vt 0.4033 0.8320
vt 0.1572 0.8652
vt 0.1904 0.8568
vt 0.2930 0.3770
vt 0.1807 1.0742
vt 0.3574 1.0742
vt 0.9141 1.0729
vt 1.0977 1.0736
vt 1.1064 0.5091
vt 0.9678 0.5117
vt 0.7578 0.4284
vt 0.1064 0.5091
vt 0.0977 1.0736
vt 0.6240 0.3770
vt 0.4717 0.4382
vt 0.5137 1.0729
vt 0.7373 1.0723
vt 0.4404 1.0736
vt 0.6406 0.9720
vt 0.5977 0.7845
vt 0.5000 0.7858
vt 0.5078 0.9727
vt 0.9434 0.9714
vt 0.8066 0.7363
vt 0.9375 0.7122
vt 0.9873 0.9707
vt 0.5010 0.8105
vt 0.2949 0.9447
vt 0.5010 0.9453
vt 0.1426 0.9440
vt 0.0762 0.6940
vt 0.0371 0.9440
vt 0.5000 0.7656
vt 0.2783 0.7591
vt 0.5000 0.9460
vt 0.9482 -0.8939
vt 0.7236 -0.8815
vt 0.5645 -0.8841
vt 0.0986 -0.8685
vt 0.9674 1.0020
vt 0.1087 0.9912
vt 0.0820 0.9912
vt 1.0065 1.0029
vt 0.3294 0.3682
vt 0.9056 0.7559
vt 1.0072 0.7744
vt 0.1510 0.3086
vt 0.0996 0.2891
vt 0.4186 0.2871
vt 0.2930 0.3125
vt 0.2057 0.3252
vt 0.5605 -1.4277
vt 0.3701 -1.4284
vt 0.3809 -0.0143
vt 0.0527 -1.3835
vt 0.0459 -0.0690
vt 0.2158 -0.0286
vt 0.2324 -1.4010
vt 0.9395 -1.3659
vt 0.7568 -0.0293
vt 0.9209 -0.0632
vt 0.5273 -0.0150
vt 0.7373 -1.3984
vt 1.0527 -1.3835
vt 1.0459 -0.0690
vt 0.6533 -1.3867
vt 0.2354 -1.4258
vt 0.0889 -1.4062
vt 0.0156 -1.3893
vt 1.0156 -1.3893
vt 0.8916 -1.3984
vt 0.8057 -1.3997
vt 0.2324 0.1927
vt 0.0498 0.1992
vt 0.9189 0.1992
vt 1.0498 0.1992
vt 0.7305 0.2188
vt 0.5264 0.1582
vt 0.3730 0.1582
vt 0.5254 0.3086
vt 0.3750 0.3099
vt 0.8467 0.9753
vt 0.4160 -0.0911
vt 0.2256 0.9668
vt 0.6787 0.9134
vt 0.5391 -0.1022
vt 0.9199 -0.1029
vt 0.0928 -0.1081
vt 0.1025 0.9017
vt 0.8096 0.2220
vt 0.7412 0.2454
vt 0.8984 0.5482
vt 0.8574 0.5788
vt 0.8555 0.8581
vt 0.8193 0.8503
vt 0.6143 0.9076
vt 0.6064 0.8301
vt 0.5068 0.7376
vt 0.5186 0.3600
vt 0.6289 0.2507
vt 0.6836 0.1823
vt 0.6406 1.3294
vt 0.8184 1.3294
vt 0.7051 0.5052
vt 0.9033 0.6628
vt 0.9062 1.3294
vt 1.0898 1.3307
vt 0.2422 0.5690
vt 0.0420 0.6673
vt 0.0898 1.3307
vt 0.4824 1.3294
vt 0.5166 0.5794
vt 0.3799 0.5078
vt 0.2617 1.3301
vt 1.0420 0.6673
vt 0.5566 1.3301
vt 0.3662 0.7852
vt 0.3691 0.9733
vt 0.1963 0.7363
vt 0.0674 0.9746
vt 0.0371 0.7109
vt 0.0166 0.9746
vt 0.7100 0.9466
vt 0.9736 0.9486
vt 0.9443 0.6940
vt 0.8633 0.9473
vt 0.7236 0.7565
vt 0.3027 -0.9049
vt 0.0928 -0.9134
vt 0.4512 -0.9108
vt 0.8857 -0.9030
vt 0.7705 0.6504
vt 0.7627 0.2715
vt 0.7100 0.4023
vt 0.5166 1.0508
vt 0.5488 0.6191
vt 0.4619 0.5557
vt 0.6377 0.5449
vt 0.3066 0.6836
vt 0.3721 0.2969
vt 0.3721 0.3203
vt 0.7588 0.2949
vt 0.6816 0.4814
vt 0.3945 0.4229
vt 0.4238 0.4961
vt 0.1826 0.8984
vt 0.3262 0.3848
vt 0.2090 0.2812
vt 0.8447 0.8848
vt 0.6562 0.3789
vt 0.8369 0.8057
vt 0.7500 0.2715
vt 0.1885 0.8135
vt 0.6729 0.7842
vt 0.3828 0.9424
vt 0.6318 0.2070
vt 0.1846 1.0498
vt 0.0693 0.4199
vt 0.1572 0.4521
vt 0.7861 0.0850
vt 0.3408 1.0225
vt 0.8027 0.8555
vt 0.6592 0.1143
vt 0.9541 0.9609
vt 0.0371 0.1875
vt 0.0127 0.9404
vt 0.6064 0.9766
vt 0.3154 0.9580
vt -0.0010 0.3613
vt 0.9629 0.3604
vt 0.9209 0.9980
vt -0.0225 0.4707
vt 0.1611 0.1797
vt 0.9229 0.4395
vt 0.9297 -0.0215
vt 1.0713 0.0703
vt 0.9580 0.0599
vt 1.0059 0.9635
vt 0.2217 0.0716
vt 0.1689 0.9642
vt 0.4766 0.9694
vt 0.7256 0.0579
vt 0.5303 0.0716
vt 0.6260 0.9473
vt 0.0713 0.0703
vt 0.0059 0.9635
vt 0.8818 0.9661
vt 0.8535 0.0560
vt 0.7852 0.9577
vt 0.3125 0.4375
vt 0.3750 0.4375
vt 0.2500 0.3438
vt 0.4375 0.5938
vt 0.4062 0.5312
vt 0.3438 0.6875
vt 0.2812 0.6250
vt 0.1875 0.5625
vt 0.2188 0.5625
vt 0.1250 0.3750
vt 0.1562 0.3750
vt 0.2188 0.2812
vt 0.2451 0.8678
vt 0.2363 0.7018
vt 0.6162 0.8659
vt 0.6367 0.7070
vt 0.8672 0.8607
vt 0.8652 0.7025
vt 0.8359 0.8613
vt 0.8438 0.7025
vt 0.5693 0.8620
vt 0.5898 0.7031
vt 0.2764 0.8665
vt 0.2803 0.7077
vt 0.1865 0.9271
vt 0.8486 0.5098
vt 0.1465 0.5117
vt 0.1270 0.5117
vt 0.2324 0.9264
vt 0.9365 0.5085
vt 0.6279 0.9251
vt 0.5137 0.9258
vt 0.0371 0.3841
vt 0.0078 0.4030
vt 0.2637 0.5508
vt 0.5947 0.5501
vt 0.4033 0.2591
vt 0.3623 0.2324
vt 0.5928 0.1608
vt 0.6523 0.5501
vt 0.1699 0.5521
vt 0.8223 0.5443
vt 0.8477 0.5234
vt 0.0010 0.3796
vt -0.0195 0.4010
vt 0.0420 0.1445
vt 0.0498 0.1003
vt 0.0332 0.1823
vt 0.2588 0.0443
vt 0.2578 0.0059
vt 0.8604 0.1406
vt 0.9561 0.1341
vt 0.1572 0.4092
vt 0.7607 0.1211
vt 0.4883 0.9463
vt 0.7568 0.8535
vt 0.2188 1.0332
vt 0.4736 1.0605
vt 0.7520 0.0723
vt 0.1211 0.4697
vt 0.9619 0.8760
vt 0.0791 0.1426
vt 0.9385 0.9297
vt 0.6084 0.0967
vt 0.1250 0.8711
vt 0.5879 1.0117
vt 0.8691 1.0576
vt 0.9453 0.3340
vt 0.0234 0.3135
vt 0.2949 1.0078
vt 0.9160 0.5615
vt 0.1650 0.2910
vt -0.0068 0.6182
vt 0.9092 0.0508
vt 0.1504 0.9531
vt 0.2598 0.1296
vt 0.1504 0.1335
vt 0.8457 0.9577
vt 1.0527 0.9492
vt 1.0205 0.1335
vt 0.6670 0.9434
vt 0.7617 0.1393
vt 0.5342 0.1348
vt 0.0527 0.9492
vt 0.3369 0.9629
vt 0.4512 0.9564
vt 0.3691 0.1322
vt 0.0205 0.1335
vt 1.3750 -0.2188
vt 1.4062 -0.2500
vt 1.3125 -0.4062
vt 1.3438 -0.3438
vt 1.4375 -0.4688
vt 1.4062 -0.4375
vt 1.5938 -0.3438
vt 1.5312 -0.3438
vt 1.6250 -0.2188
vt 1.5938 -0.2188
vt 1.5000 -0.0938
vt 1.4688 -0.1562
vt 0.1445 0.8542
vt 0.1377 0.6855
vt 0.4277 0.8548
vt 0.3955 0.6868
vt 0.7959 0.8509
vt 0.8096 0.6823
vt 0.7744 0.8496
vt 0.7559 0.6816
vt 0.4814 0.8503
vt 0.4482 0.6823
vt 0.1807 0.8535
vt 0.1611 0.6855
vt 0.8896 0.5026
vt 0.0811 0.5065
vt 0.7197 0.9245
vt 0.6670 0.9245
vt 0.9121 0.5020
vt 0.2119 0.9258
vt -0.0195 0.5059
vt 0.3438 0.9258
vt 0.7598 0.5156
vt 0.9932 0.3548
vt 0.9590 0.3353
vt 0.5264 0.2096
vt 0.4346 0.5202
vt 0.3691 0.5215
vt 0.3066 0.1087
vt 0.5713 0.1803
vt 0.8652 0.5150
vt 0.1797 0.5176
vt 0.1475 0.4967
vt 1.0225 0.3314
vt 1.0381 0.3574
vt 0.9355 0.0820
vt 0.9365 0.0430
vt 0.9414 0.1250
vt 0.1504 0.1263
vt 0.8916 0.0293
vt 0.9111 -0.0091
vt 0.0430 0.1198
vt 0.6689 0.2871
vt 0.6670 0.4727
vt 0.8076 0.4740
vt 0.2842 0.2884
vt 0.6045 0.1061
vt -0.0312 0.0684
vt 0.3174 0.0286
vt 0.3213 0.0163
vt 0.9688 0.2806
vt 0.9795 0.0951
vt 0.4834 0.4701
vt -0.0293 0.0996
vt 0.3369 0.1055
vt 0.3037 0.4740
vt 0.6162 0.0156
vt 0.6191 0.0273
vt 0.9756 0.0690
vt -0.0088 0.2812
vt 0.1738 0.4746
vt 0.9102 0.4779
vt 0.0391 0.4824
vt 0.9834 0.1296
vt 0.5029 0.2734
vt 0.8574 0.2930
vt 0.1445 0.2897
vt 0.0947 0.4681
vt 0.3008 0.4577
vt 0.5039 0.1035
vt 0.3604 0.0221
vt 0.3740 0.0885
vt 0.5029 0.4577
vt 0.7158 0.4590
vt 0.9805 0.2643
vt 0.9336 0.4733
vt 0.0127 0.1263
vt 0.0273 0.2604
vt 0.9727 0.2786
vt 0.0166 0.0729
vt 0.6338 0.0885
vt 0.9863 0.0736
vt 0.6445 0.0228
vt 0.0312 0.2773
vt 0.8975 0.5638
vt 0.7803 0.5547
vt 0.6387 0.5527
vt 0.5146 0.5540
vt 0.3584 0.5540
vt 0.2041 0.5553
vt 0.0596 0.5632
vt 0.9170 0.5508
vt 0.7188 0.5586
vt 0.5000 0.5638
vt 0.2939 0.5605
vt 0.1094 0.5508
vt -0.1045 -0.0052
vt 0.1152 0.6074
vt 0.8516 0.6107
vt 1.0000 0.0000
vt 1.0010 0.1009
vt -0.0264 0.0521
vt 0.0264 0.1035
vt 0.1641 0.5820
vt 0.8506 0.5833
vt 1.0557 0.0521
vt 0.1367 0.5885
vt 0.8584 0.5885
vt 0.2207 0.6211
vt 0.0518 0.6302
vt 0.3740 0.6211
vt 0.4951 0.6211
vt 0.9180 0.6309
vt 0.5996 0.6204
vt 0.7793 0.6217
vt 0.7021 0.6243
vt 0.5029 0.6296
vt 0.9268 0.6159
vt 0.2939 0.6263
vt 0.0918 0.6159
vt 1.0000 1.0000
vt 0.0000 1.0000
vt 0.0967 0.9284
vt 0.8994 0.9297
vt 0.0029 0.9284
vt 0.9824 0.9323
vn 0.577 0.577 0.577
vn 0.577 0.577 0.577
vn 0.577 0.577 0.577
vn 0.577 0.577 0.577
vn -0.577 -0.577 -0.577
vn 0.577 0.577 0.577
vn 0.577 0.577 0.577
vn -0.577 -0.577 -0.577
vn 0.577 0.577 0.577
vn 0.577 0.577 0.577
vn 0.577 0.577 0.577
vn 0.577 0.577 0.577
vn -0.577 -0.577 -0.577
vn 0.577 0.577 0.577
vn 0.577 0.577 0.577
vn -0.577 -0.577 -0.577
vn -0.577 -0.577 -0.577
vn 0.577 0.577 0.577
vn 0.577 0.577 0.577
vn -0.577 -0.577 -0.577
vn 0.577 0.577 0.577
vn 0.577 0.577 0.577
vn -0.577 -0.577 -0.577
vn 0.577 0.577 0.577
vn -0.577 -0.577 -0.577
vn 0.577 0.577 0.577
vn 0.577 0.577 0.577
vn 0.577 0.577 0.577
vn 0.577 0.577 0.577
vn 0.577 0.577 0.577
vn 0.577 0.577 0.577
vn 0.577 0.577 0.577
vn 0.577 0.577 0.577
vn 0.577 0.577 0.577
vn 0.577 0.577 0.577
vn 0.577 0.577 0.577
vn 0.577 0.577 0.577
vn 0.577 0.577 0.577
vn -0.577 -0.577 -0.577
vn -0.577 -0.577 -0.577
vn -0.577 -0.577 -0.577
vn -0.577 -0.577 -0.577
vn -0.577 -0.577 -0.577
vn 0.577 0.577 0.577
vn -0.577 -0.577 -0.577
vn -0.577 -0.577 -0.577
vn -0.577 -0.577 -0.577
vn -0.577 -0.577 -0.577
vn -0.577 -0.577 -0.577
vn 0.577 0.577 0.577
vn -0.577 -0.577 -0.577
vn -0.577 -0.577 -0.577
vn -0.577 -0.577 -0.577
vn -0.577 -0.577 -0.577
vn -0.577 -0.577 -0.577
vn -0.577 -0.577 -0.577
vn -0.577 -0.577 -0.577
vn 0.577 0.577 0.577
vn -0.577 -0.577 -0.577
vn -0.577 -0.577 -0.577
vn -0.577 -0.577 -0.577
vn 0.577 0.577 0.577
vn 0.577 0.577 0.577
vn -0.577 -0.577 -0.577
vn -0.577 -0.577 -0.577
vn -0.577 -0.577 -0.577
vn -0.577 -0.577 -0.577
vn -0.577 -0.577 -0.577
vn 0.577 0.577 0.577
vn 0.577 0.577 0.577
vn 0.577 0.577 0.577
vn 0.577 0.577 0.577
vn -0.577 -0.577 -0.577
vn 0.577 0.577 0.577
vn 0.577 0.577 0.577
vn 0.577 0.577 0.577
vn 0.577 0.577 0.577
vn 0.577 0.577 0.577
vn 0.577 0.577 0.577
vn 0.577 0.577 0.577
vn 0.577 0.577 0.577
vn 0.577 0.577 0.577
vn 0.577 0.577 0.577
vn 0.577 0.577 0.577
vn 0.577 0.577 0.577
vn 0.577 0.577 0.577
vn 0.577 0.577 0.577
vn 0.577 0.577 0.577
vn -0.577 -0.577 -0.577
vn -0.577 -0.577 -0.577
vn 0.577 0.577 0.577
vn 0.577 0.577 0.577
vn -0.577 -0.577 -0.577
vn -0.577 -0.577 -0.577
vn 0.577 0.577 0.577
vn 0.577 0.577 0.577
vn 0.577 0.577 0.577
vn -0.577 -0.577 -0.577
vn -0.577 -0.577 -0.577
vn 0.577 0.577 0.577
vn 0.577 0.577 0.577
vn -0.577 -0.577 -0.577
vn 0.577 0.577 0.577
vn -0.577 -0.577 -0.577
vn -0.577 -0.577 -0.577
vn 0.577 0.577 0.577
vn 0.577 0.577 0.577
vn 0.577 0.577 0.577
vn 0.577 0.577 0.577
vn -0.577 -0.577 -0.577
vn 0.577 0.577 0.577
vn 0.577 0.577 0.577
vn 0.577 0.577 0.577
vn -0.577 -0.577 -0.577
vn 0.577 0.577 0.577
vn 0.577 0.577 0.577
vn -0.577 -0.577 -0.577
vn -0.577 -0.577 -0.577
vn 0.577 0.577 0.577
vn 0.577 0.577 0.577
vn 0.577 0.577 0.577
vn -0.577 -0.577 -0.577
vn -0.577 -0.577 -0.577
vn -0.577 -0.577 -0.577
vn -0.577 -0.577 -0.577
vn -0.577 -0.577 -0.577
vn -0.577 -0.577 -0.577
vn 0.577 0.577 0.577
vn -0.577 -0.577 -0.577
vn -0.577 -0.577 -0.577
vn -0.577 -0.577 -0.577
vn -0.577 -0.577 -0.577
vn -0.577 -0.577 -0.577
vn -0.577 -0.577 -0.577
vn -0.577 -0.577 -0.577
vn 0.577 0.577 0.577
vn 0.577 0.577 0.577
vn 0.577 0.577 0.577
vn -0.577 -0.577 -0.577
vn -0.577 -0.577 -0.577
vn -0.577 -0.577 -0.577
vn -0.577 -0.577 -0.577
vn -0.577 -0.577 -0.577
vn -0.577 -0.577 -0.577
vn 0.577 0.577 0.577
vn 0.577 0.577 0.577
vn 0.577 0.577 0.577
vn 0.577 0.577 0.577
vn 0.577 0.577 0.577
vn -0.577 -0.577 -0.577
vn -0.577 -0.577 -0.577
vn 0.577 0.577 0.577
vn 0.577 0.577 0.577
vn 0.577 0.577 0.577
vn 0.577 0.577 0.577
vn 0.577 0.577 0.577
vn 0.577 0.577 0.577
vn 0.577 0.577 0.577
vn -0.577 -0.577 -0.577
vn 0.577 0.577 0.577
vn -0.577 -0.577 -0.577
vn -0.577 -0.577 -0.577
vn 0.577 0.577 0.577
vn 0.577 0.577 0.577
vn 0.577 0.577 0.577
vn -0.577 -0.577 -0.577
vn -0.577 -0.577 -0.577
vn 0.577 0.577 0.577
vn 0.577 0.577 0.577
vn -0.577 -0.577 -0.577
vn 0.577 0.577 0.577
vn 0.577 0.577 0.577
vn 0.577 0.577 0.577
vn 0.577 0.577 0.577
vn 0.577 0.577 0.577
vn 0.577 0.577 0.577
vn 0.577 0.577 0.577
vn 0.577 0.577 0.577
vn 0.577 0.577 0.577
vn 0.577 0.577 0.577
vn 0.577 0.577 0.577
vn 0.577 0.577 0.577
vn 0.577 0.577 0.577
vn 0.577 0.577 0.577
vn -0.577 -0.577 -0.577
vn -0.577 -0.577 -0.577
vn -0.577 -0.577 -0.577
vn -0.577 -0.577 -0.577
vn 0.577 0.577 0.577
vn -0.577 -0.577 -0.577
vn -0.577 -0.577 -0.577
vn -0.577 -0.577 -0.577
vn -0.577 -0.577 -0.577
vn -0.577 -0.577 -0.577
vn -0.577 -0.577 -0.577
vn -0.577 -0.577 -0.577
vn 0.577 0.577 0.577
vn -0.577 -0.577 -0.577
vn -0.577 -0.577 -0.577
vn -0.577 -0.577 -0.577
vn 0.577 0.577 0.577
vn -0.577 -0.577 -0.577
vn -0.577 -0.577 -0.577
vn -0.577 -0.577 -0.577
vn -0.577 -0.577 -0.577
vn -0.577 -0.577 -0.577
vn -0.577 -0.577 -0.577
vn -0.577 -0.577 -0.577
vn 0.577 0.577 0.577
vn 0.577 0.577 0.577
vn -0.577 -0.577 -0.577
vn -0.577 -0.577 -0.577
vn -0.577 -0.577 -0.577
vn -0.577 -0.577 -0.577
vn 0.577 0.577 0.577
vn 0.577 0.577 0.577
vn 0.577 0.577 0.577
vn 0.577 0.577 0.577
vn 0.577 0.577 0.577
vn 0.577 0.577 0.577
vn 0.577 0.577 0.577
vn 0.577 0.577 0.577
vn 0.577 0.577 0.577
vn 0.577 0.577 0.577
vn 0.577 0.577 0.577
vn 0.577 0.577 0.577
vn 0.577 0.577 0.577
vn -0.577 -0.577 -0.577
vn 0.577 0.577 0.577
vn 0.577 0.577 0.577
vn 0.577 0.577 0.577
vn 0.577 0.577 0.577
vn 0.577 0.577 0.577
vn 0.577 0.577 0.577
vn -0.577 -0.577 -0.577
vn -0.577 -0.577 -0.577
vn 0.577 0.577 0.577
vn 0.577 0.577 0.577
vn -0.577 -0.577 -0.577
vn -0.577 -0.577 -0.577
vn 0.577 0.577 0.577
vn -0.577 -0.577 -0.577
vn 0.577 0.577 0.577
vn -0.577 -0.577 -0.577
vn -0.577 -0.577 -0.577
vn 0.577 0.577 0.577
vn 0.577 0.577 0.577
vn -0.577 -0.577 -0.577
vn 0.577 0.577 0.577
vn -0.577 -0.577 -0.577
vn 0.577 0.577 0.577
vn 0.577 0.577 0.577
vn 0.577 0.577 0.577
vn 0.577 0.577 0.577
vn 0.577 0.577 0.577
vn -0.577 -0.577 -0.577
vn 0.577 0.577 0.577
vn 0.577 0.577 0.577
vn 0.577 0.577 0.577
vn -0.577 -0.577 -0.577
vn 0.577 0.577 0.577
vn -0.577 -0.577 -0.577
vn -0.577 -0.577 -0.577
vn 0.577 0.577 0.577
vn 0.577 0.577 0.577
vn 0.577 0.577 0.577
vn -0.577 -0.577 -0.577
vn -0.577 -0.577 -0.577
vn -0.577 -0.577 -0.577
vn 0.577 0.577 0.577
vn 0.577 0.577 0.577
vn -0.577 -0.577 -0.577
vn -0.577 -0.577 -0.577
vn -0.577 -0.577 -0.577
vn -0.577 -0.577 -0.577
vn -0.577 -0.577 -0.577
vn -0.577 -0.577 -0.577
vn 0.577 0.577 0.577
vn -0.577 -0.577 -0.577
vn -0.577 -0.577 -0.577
vn -0.577 -0.577 -0.577
vn -0.577 -0.577 -0.577
vn -0.577 -0.577 -0.577
vn -0.577 -0.577 -0.577
vn -0.577 -0.577 -0.577
vn 0.577 0.577 0.577
vn 0.577 0.577 0.577
vn 0.577 0.577 0.577
vn -0.577 -0.577 -0.577
vn -0.577 -0.577 -0.577
vn -0.577 -0.577 -0.577
vn -0.577 -0.577 -0.577
vn -0.577 -0.577 -0.577
vn -0.577 -0.577 -0.577
vn -0.577 -0.577 -0.577
vn -0.577 -0.577 -0.577
vn -0.577 -0.577 -0.577
vn -0.577 -0.577 -0.577
vn -0.577 -0.577 -0.577
vn -0.577 -0.577 -0.577
vn -0.577 -0.577 -0.577
vn -0.577 -0.577 -0.577
vn -0.577 -0.577 -0.577
vn -0.577 -0.577 -0.577
vn -0.577 -0.577 -0.577
vn -0.577 -0.577 -0.577
vn -0.577 -0.577 -0.577
vn -0.577 -0.577 -0.577
vn -0.577 -0.577 -0.577
vn -0.577 -0.577 -0.577
vn -0.577 -0.577 -0.577
vn -0.577 -0.577 -0.577
vn -0.577 -0.577 -0.577
vn -0.577 -0.577 -0.577
vn -0.577 -0.577 -0.577
vn -0.577 -0.577 -0.577
vn -0.577 -0.577 -0.577
vn -0.577 -0.577 -0.577
vn -0.577 -0.577 -0.577
vn -0.577 -0.577 -0.577
vn -0.577 -0.577 -0.577
vn -0.577 -0.577 -0.577
vn -0.577 -0.577 -0.577
vn -0.577 -0.577 -0.577
vn -0.577 -0.577 -0.577
vn -0.577 -0.577 -0.577
vn -0.577 -0.577 -0.577
vn -0.577 -0.577 -0.577
vn -0.577 -0.577 -0.577
vn -0.577 -0.577 -0.577
vn -0.577 -0.577 -0.577
vn -0.577 -0.577 -0.577
vn -0.577 -0.577 -0.577
vn -0.577 -0.577 -0.577
vn -0.577 -0.577 -0.577
vn -0.577 -0.577 -0.577
vn -0.577 -0.577 -0.577
vn -0.577 -0.577 -0.577
vn -0.577 -0.577 -0.577
vn -0.577 -0.577 -0.577
vn -0.577 -0.577 -0.577
vn -0.577 -0.577 -0.577
vn 0.577 0.577 0.577
vn -0.577 -0.577 -0.577
vn 0.577 0.577 0.577
vn 0.577 0.577 0.577
vn 0.577 0.577 0.577
vn -0.577 -0.577 -0.577
vn -0.577 -0.577 -0.577
vn -0.577 -0.577 -0.577
vn 0.577 0.577 0.577
vn -0.577 -0.577 -0.577
vn 0.577 0.577 0.577
vn -0.577 -0.577 -0.577
vn -0.577 -0.577 -0.577
vn -0.577 -0.577 -0.577
vn 0.577 0.577 0.577
vn 0.577 0.577 0.577
vn 0.577 0.577 0.577
vn -0.577 -0.577 -0.577
vn -0.577 -0.577 -0.577
vn -0.577 -0.577 -0.577
vn -0.577 -0.577 -0.577
vn 0.577 0.577 0.577
vn 0.577 0.577 0.577
vn 0.577 0.577 0.577
vn 0.577 0.577 0.577
vn -0.577 -0.577 -0.577
vn -0.577 -0.577 -0.577
vn -0.577 -0.577 -0.577
vn -0.577 -0.577 -0.577
vn 0.577 0.577 0.577
vn 0.577 0.577 0.577
vn -0.577 -0.577 -0.577
vn -0.577 -0.577 -0.577
vn -0.577 -0.577 -0.577
vn -0.577 -0.577 -0.577
vn 0.577 0.577 0.577
vn 0.577 0.577 0.577
vn -0.577 -0.577 -0.577
vn -0.577 -0.577 -0.577
vn -0.577 -0.577 -0.577
vn 0.577 0.577 0.577
vn -0.577 -0.577 -0.577
vn 0.577 0.577 0.577
vn 0.577 0.577 0.577
vn 0.577 0.577 0.577
vn 0.577 0.577 0.577
vn 0.577 0.577 0.577
vn -0.577 -0.577 -0.577
vn -0.577 -0.577 -0.577
vn -0.577 -0.577 -0.577
vn -0.577 -0.577 -0.577
vn -0.577 -0.577 -0.577
vn 0.577 0.577 0.577
vn -0.577 -0.577 -0.577
vn -0.577 -0.577 -0.577
vn 0.577 0.577 0.577
vn 0.577 0.577 0.577
vn -0.577 -0.577 -0.577
vn -0.577 -0.577 -0.577
vn -0.577 -0.577 -0.577
vn 0.577 0.577 0.577
vn 0.577 0.577 0.577
vn -0.577 -0.577 -0.577
vn -0.577 -0.577 -0.577
vn -0.577 -0.577 -0.577
vn -0.577 -0.577 -0.577
vn -0.577 -0.577 -0.577
vn 0.577 0.577 0.577
vn 0.577 0.577 0.577
vn -0.577 -0.577 -0.577
vn -0.577 -0.577 -0.577
vn -0.577 -0.577 -0.577
vn -0.577 -0.577 -0.577
vn 0.577 0.577 0.577
vn 0.577 0.577 0.577
vn -0.577 -0.577 -0.577
vn -0.577 -0.577 -0.577
vn -0.577 -0.577 -0.577
vn -0.577 -0.577 -0.577
vn -0.577 -0.577 -0.577
vn -0.577 -0.577 -0.577
vn -0.577 -0.577 -0.577
vn -0.577 -0.577 -0.577
vn -0.577 -0.577 -0.577
vn -0.577 -0.577 -0.577
vn -0.577 -0.577 -0.577
vn -0.577 -0.577 -0.577
vn -0.577 -0.577 -0.577
vn -0.577 -0.577 -0.577
vn -0.577 -0.577 -0.577
vn -0.577 -0.577 -0.577
vn -0.577 -0.577 -0.577
vn -0.577 -0.577 -0.577
vn -0.577 -0.577 -0.577
vn -0.577 -0.577 -0.577
vn -0.577 -0.577 -0.577
vn -0.577 -0.577 -0.577
vn -0.577 -0.577 -0.577
vn -0.577 -0.577 -0.577
vn -0.577 -0.577 -0.577
vn -0.577 -0.577 -0.577
vn -0.577 -0.577 -0.577
vn -0.577 -0.577 -0.577
vn -0.577 -0.577 -0.577
vn -0.577 -0.577 -0.577
vn -0.577 -0.577 -0.577
vn -0.577 -0.577 -0.577
vn -0.577 -0.577 -0.577
vn -0.577 -0.577 -0.577
vn -0.577 -0.577 -0.577
vn -0.577 -0.577 -0.577
vn -0.577 -0.577 -0.577
vn -0.577 -0.577 -0.577
vn -0.577 -0.577 -0.577
vn -0.577 -0.577 -0.577
vn -0.577 -0.577 -0.577
vn -0.577 -0.577 -0.577
vn -0.577 -0.577 -0.577
vn -0.577 -0.577 -0.577
vn 0.577 0.577 0.577
vn -0.577 -0.577 -0.577
vn -0.577 -0.577 -0.577
vn -0.577 -0.577 -0.577
vn 0.577 0.577 0.577
vn -0.577 -0.577 -0.577
vn -0.577 -0.577 -0.577
vn -0.577 -0.577 -0.577
vn -0.577 -0.577 -0.577
vn -0.577 -0.577 -0.577
vn -0.577 -0.577 -0.577
vn -0.577 -0.577 -0.577
vn -0.577 -0.577 -0.577
vn -0.577 -0.577 -0.577
vn -0.577 -0.577 -0.577
vn -0.577 -0.577 -0.577
vn -0.577 -0.577 -0.577
vn -0.577 -0.577 -0.577
vn -0.577 -0.577 -0.577
vn -0.577 -0.577 -0.577
vn 0.577 0.577 0.577
vn 0.577 0.577 0.577
vn -0.577 -0.577 -0.577
vn -0.577 -0.577 -0.577
vn -0.577 -0.577 -0.577
vn -0.577 -0.577 -0.577
vn 0.577 0.577 0.577
vn 0.577 0.577 0.577
vn -0.577 -0.577 -0.577
vn -0.577 -0.577 -0.577
vn -0.577 -0.577 -0.577
vn -0.577 -0.577 -0.577
vn 0.577 0.577 0.577
vn 0.577 0.577 0.577
vn -0.577 -0.577 -0.577
vn 0.577 0.577 0.577
vn -0.577 -0.577 -0.577
vn 0.577 0.577 0.577
vn 0.577 0.577 0.577
vn 0.577 0.577 0.577
vn 0.577 0.577 0.577
vn -0.577 -0.577 -0.577
vn -0.577 -0.577 -0.577
vn -0.577 -0.577 -0.577
vn -0.577 -0.577 -0.577
vn -0.577 -0.577 -0.577
vn 0.577 0.577 0.577
vn -0.577 -0.577 -0.577
vn -0.577 -0.577 -0.577
vn 0.577 0.577 0.577
vn 0.577 0.577 0.577
vn -0.577 -0.577 -0.577
vn -0.577 -0.577 -0.577
vn -0.577 -0.577 -0.577
vn 0.577 0.577 0.577
vn 0.577 0.577 0.577
vn -0.577 -0.577 -0.577
vn -0.577 -0.577 -0.577
vn -0.577 -0.577 -0.577
vn -0.577 -0.577 -0.577
vn -0.577 -0.577 -0.577
vn 0.577 0.577 0.577
vn 0.577 0.577 0.577
vn -0.577 -0.577 -0.577
vn -0.577 -0.577 -0.577
vn -0.577 -0.577 -0.577
vn -0.577 -0.577 -0.577
vn 0.577 0.577 0.577
vn 0.577 0.577 0.577
vn -0.577 -0.577 -0.577
vn -0.577 -0.577 -0.577
vn -0.577 -0.577 -0.577
vn -0.577 -0.577 -0.577
vn -0.577 -0.577 -0.577
vn -0.577 -0.577 -0.577
vn -0.577 -0.577 -0.577
vn -0.577 -0.577 -0.577
vn -0.577 -0.577 -0.577
vn -0.577 -0.577 -0.577
vn -0.577 -0.577 -0.577
vn -0.577 -0.577 -0.577
vn -0.577 -0.577 -0.577
vn -0.577 -0.577 -0.577
vn -0.577 -0.577 -0.577
vn -0.577 -0.577 -0.577
vn -0.577 -0.577 -0.577
vn -0.577 -0.577 -0.577
vn -0.577 -0.577 -0.577
vn -0.577 -0.577 -0.577
vn 0.577 0.577 0.577
vn -0.577 -0.577 -0.577
vn -0.577 -0.577 -0.577
vn -0.577 -0.577 -0.577
vn -0.577 -0.577 -0.577
vn -0.577 -0.577 -0.577
vn -0.577 -0.577 -0.577
vn -0.577 -0.577 -0.577
vn -0.577 -0.577 -0.577
vn -0.577 -0.577 -0.577
vn -0.577 -0.577 -0.577
vn 0.577 0.577 0.577
vn -0.577 -0.577 -0.577
vn -0.577 -0.577 -0.577
vn -0.577 -0.577 -0.577
vn -0.577 -0.577 -0.577
vn -0.577 -0.577 -0.577
vn -0.577 -0.577 -0.577
vn -0.577 -0.577 -0.577
vn -0.577 -0.577 -0.577
vn 0.577 0.577 0.577
vn 0.577 0.577 0.577
vn -0.577 -0.577 -0.577
vn 0.577 0.577 0.577
vn 0.577 0.577 0.577
vn -0.577 -0.577 -0.577
vn -0.577 -0.577 -0.577
vn -0.577 -0.577 -0.577
vn -0.577 -0.577 -0.577
vn -0.577 -0.577 -0.577
vn -0.577 -0.577 -0.577
vn -0.577 -0.577 -0.577
vn -0.577 -0.577 -0.577
vn -0.577 -0.577 -0.577
vn -0.577 -0.577 -0.577
vn -0.577 -0.577 -0.577
vn -0.577 -0.577 -0.577
vn 0.577 0.577 0.577
vn -0.577 -0.577 -0.577
vn -0.577 -0.577 -0.577
vn -0.577 -0.577 -0.577
vn -0.577 -0.577 -0.577
vn -0.577 -0.577 -0.577
vn -0.577 -0.577 -0.577
vn -0.577 -0.577 -0.577
vn 0.577 0.577 0.577
vn -0.577 -0.577 -0.577
vn -0.577 -0.577 -0.577
vn 0.577 0.577 0.577
vn -0.577 -0.577 -0.577
vn 0.577 0.577 0.577
vn 0.577 0.577 0.577
vn -0.577 -0.577 -0.577
vn -0.577 -0.577 -0.577
vn -0.577 -0.577 -0.577
vn -0.577 -0.577 -0.577
vn -0.577 -0.577 -0.577
vn -0.577 -0.577 -0.577
vn -0.577 -0.577 -0.577
vn -0.577 -0.577 -0.577
vn -0.577 -0.577 -0.577
vn -0.577 -0.577 -0.577
vn -0.577 -0.577 -0.577
vn 0.577 0.577 0.577
vn 0.577 0.577 0.577
vn 0.577 0.577 0.577
vn 0.577 0.577 0.577
vn -0.577 -0.577 -0.577
vn -0.577 -0.577 -0.577
vn -0.577 -0.577 -0.577
vn -0.577 -0.577 -0.577
vn -0.577 -0.577 -0.577
vn 0.577 0.577 0.577
vn 0.577 0.577 0.577
vn -0.577 -0.577 -0.577
vn -0.577 -0.577 -0.577
vn -0.577 -0.577 -0.577
vn -0.577 -0.577 -0.577
vn -0.577 -0.577 -0.577
vn 0.577 0.577 0.577
vn 0.577 0.577 0.577
vn -0.577 -0.577 -0.577
vn -0.577 -0.577 -0.577
vn -0.577 -0.577 -0.577
vn 0.577 0.577 0.577
vn 0.577 0.577 0.577
vn -0.577 -0.577 -0.577
vn -0.577 -0.577 -0.577
vn -0.577 -0.577 -0.577
vn 0.577 0.577 0.577
vn -0.577 -0.577 -0.577
vn -0.577 -0.577 -0.577
vn -0.577 -0.577 -0.577
vn -0.577 -0.577 -0.577
vn -0.577 -0.577 -0.577
vn -0.577 -0.577 -0.577
vn -0.577 -0.577 -0.577
vn -0.577 -0.577 -0.577
vn -0.577 -0.577 -0.577
vn -0.577 -0.577 -0.577
vn -0.577 -0.577 -0.577
vn -0.577 -0.577 -0.577
vn -0.577 -0.577 -0.577
vn -0.577 -0.577 -0.577
vn -0.577 -0.577 -0.577
vn -0.577 -0.577 -0.577
vn -0.577 -0.577 -0.577
vn -0.577 -0.577 -0.577
vn -0.577 -0.577 -0.577
vn -0.577 -0.577 -0.577
vn -0.577 -0.577 -0.577
vn -0.577 -0.577 -0.577
vn -0.577 -0.577 -0.577
vn -0.577 -0.577 -0.577
vn -0.577 -0.577 -0.577
vn -0.577 -0.577 -0.577
vn -0.577 -0.577 -0.577
vn -0.577 -0.577 -0.577
vn 0.577 0.577 0.577
vn -0.577 -0.577 -0.577
vn 0.577 0.577 0.577
vn 0.577 0.577 0.577
vn -0.577 -0.577 -0.577
vn -0.577 -0.577 -0.577
vn -0.577 -0.577 -0.577
vn 0.577 0.577 0.577
vn 0.577 0.577 0.577
vn 0.577 0.577 0.577
vn -0.577 -0.577 -0.577
vn -0.577 -0.577 -0.577
vn -0.577 -0.577 -0.577
vn -0.577 -0.577 -0.577
vn -0.577 -0.577 -0.577
vn 0.577 0.577 0.577
vn -0.577 -0.577 -0.577
vn -0.577 -0.577 -0.577
vn -0.577 -0.577 -0.577
vn 0.577 0.577 0.577
vn -0.577 -0.577 -0.577
vn 0.577 0.577 0.577
vn 0.577 0.577 0.577
vn 0.577 0.577 0.577
vn -0.577 -0.577 -0.577
vn -0.577 -0.577 -0.577
vn -0.577 -0.577 -0.577
vn -0.577 -0.577 -0.577
vn -0.577 -0.577 -0.577
vn 0.577 0.577 0.577
vn 0.577 0.577 0.577
vn -0.577 -0.577 -0.577
vn -0.577 -0.577 -0.577
vn -0.577 -0.577 -0.577
vn -0.577 -0.577 -0.577
vn -0.577 -0.577 -0.577
vn 0.577 0.577 0.577
vn 0.577 0.577 0.577
vn 0.577 0.577 0.577
vn -0.577 -0.577 -0.577
vn -0.577 -0.577 -0.577
vn -0.577 -0.577 -0.577
vn -0.577 -0.577 -0.577
vn 0.577 0.577 0.577
vn 0.577 0.577 0.577
vn -0.577 -0.577 -0.577
vn -0.577 -0.577 -0.577
vn 0.577 0.577 0.577
vn -0.577 -0.577 -0.577
vn -0.577 -0.577 -0.577
vn -0.577 -0.577 -0.577
vn -0.577 -0.577 -0.577
vn -0.577 -0.577 -0.577
vn -0.577 -0.577 -0.577
vn -0.577 -0.577 -0.577
vn 0.577 0.577 0.577
vn -0.577 -0.577 -0.577
vn -0.577 -0.577 -0.577
vn -0.577 -0.577 -0.577
vn -0.577 -0.577 -0.577
vn -0.577 -0.577 -0.577
vn -0.577 -0.577 -0.577
vn -0.577 -0.577 -0.577
vn -0.577 -0.577 -0.577
vn -0.577 -0.577 -0.577
vn -0.577 -0.577 -0.577
vn 0.577 0.577 0.577
vn 0.577 0.577 0.577
vn 0.577 0.577 0.577
vn 0.577 0.577 0.577
usemtl tex_1631_lit_w10
f 1/1/1 2/2/2 3/3/3
f 3/3/3 2/2/2 4/4/4
f 3/3/3 5/5/5 6/6/6
f 7/7/7 8/8/8 4/4/4
f 5/5/5 3/3/3 8/8/8
f 8/8/8 3/3/3 4/4/4
f 1/1/1 9/9/9 7/7/7
f 2/2/2 1/1/1 7/7/7
f 10/10/10 11/11/11 8/8/8
f 1/1/1 6/6/6 12/12/12
f 8/8/8 11/11/11 6/6/6
f 3/3/3 6/6/6 1/1/1
f 7/7/7 4/4/4 2/2/2
f 5/5/5 8/8/8 6/6/6
f 7/7/7 10/10/10 8/8/8
f 1/1/1 12/12/12 9/9/9
usemtl tex_1627_lit_w01
f 13/13/13 14/14/14 15/15/15
f 16/16/16 17/17/17 18/18/18
f 16/16/16 18/18/18 19/19/19
f 20/20/20 21/21/21 22/22/22
f 21/21/21 23/23/23 15/15/15
f 16/16/16 19/19/19 14/14/14
f 13/13/13 16/16/16 14/14/14
f 21/21/21 24/24/24 22/22/22
f 17/17/17 25/25/25 18/18/18
f 23/23/23 13/13/13 15/15/15
f 21/21/21 15/15/15 24/24/24
f 25/25/25 26/26/26 18/18/18
f 27/27/27 33/28/33 28/29/28
f 28/29/28 33/28/33 34/30/34
f 28/29/28 34/30/34 29/31/29
f 29/31/29 34/30/34 35/32/35
f 29/31/29 35/32/35 30/33/30
f 27/27/27 36/34/36 33/28/33
f 30/33/30 35/32/35 31/35/31
f 31/35/31 35/32/35 37/36/37
f 31/35/31 37/36/37 32/37/32
f 32/37/32 37/36/37 38/38/38
f 32/37/32 38/38/38 27/27/27
f 27/27/27 38/38/38 36/34/36
f 39/39/39 40/40/40 46/16/46
f 46/16/46 40/40/40 41/41/41
f 46/16/46 41/41/41 47/17/47
f 47/17/47 41/41/41 42/42/42
f 47/17/47 42/42/42 48/25/48
f 49/20/49 43/43/43 44/44/44
f 49/20/49 44/44/44 50/21/50
f 50/21/50 44/44/44 45/45/45
f 50/21/50 45/45/45 51/23/51
f 51/23/51 45/45/45 39/39/39
f 51/23/51 39/39/39 52/13/52
f 52/13/52 39/39/39 46/16/46
f 53/39/53 54/46/54 55/40/55
f 56/47/56 54/46/54 53/39/53
f 57/45/57 56/47/56 53/39/53
f 58/44/58 56/47/56 57/45/57
f 59/48/59 60/49/60 61/50/61
f 62/51/62 63/52/63 64/53/64
f 59/48/59 65/54/65 60/49/60
f 61/50/61 60/49/60 62/51/62
f 64/53/64 63/52/63 66/55/66
f 66/55/66 63/52/63 65/54/65
f 66/55/66 65/54/65 59/48/59
f 61/50/61 62/51/62 64/53/64
f 64/53/64 66/55/66 59/48/59
f 64/53/64 59/48/59 61/50/61
f 63/52/63 62/51/62 67/49/67
f 63/52/63 67/49/67 68/54/68
f 69/56/69 70/57/70 71/58/71
f 71/58/71 70/57/70 72/59/72
f 71/58/71 72/59/72 73/60/73
f 73/60/73 72/59/72 74/61/74
f 73/60/73 74/61/74 75/62/75
f 75/62/75 74/61/74 76/63/76
f 75/62/75 76/63/76 77/64/77
f 77/64/77 76/63/76 78/65/78
f 77/64/77 78/65/78 79/66/79
f 79/66/79 78/65/78 80/67/80
f 79/66/79 80/67/80 81/68/81
f 81/68/81 80/67/80 82/69/82
f 81/68/81 82/69/82 69/56/69
f 69/56/69 82/69/82 70/57/70
f 83/70/83 84/71/84 85/72/85
f 86/73/86 87/74/87 88/75/88
f 86/73/86 89/76/89 90/77/90
f 91/78/91 92/79/92 84/71/84
f 93/80/93 94/81/94 95/82/95
f 96/83/96 86/73/86 90/77/90
f 93/80/93 95/82/95 96/83/96
f 90/77/90 93/80/93 96/83/96
f 86/73/86 88/75/88 89/76/89
f 95/82/95 94/81/94 97/84/97
f 83/70/83 91/78/91 84/71/84
f 83/70/83 97/84/97 94/81/94
f 83/70/83 85/72/85 97/84/97
f 106/85/106 98/86/98 99/87/99
f 107/88/107 106/85/106 99/87/99
f 108/89/108 100/90/100 106/85/106
f 100/90/100 108/89/108 101/91/101
f 108/89/108 109/92/109 101/91/101
f 100/90/100 98/86/98 106/85/106
usemtl tex_2064_lit_w01
f 102/93/102 110/94/110 111/95/111
f 112/96/112 103/97/103 113/98/113
f 104/99/104 102/93/102 111/95/111
f 112/96/112 110/94/110 105/100/105
f 112/96/112 105/100/105 103/97/103
f 102/93/102 105/100/105 110/94/110
f 115/101/115 114/99/114 116/95/116
usemtl tex_1627_lit_w01
f 124/40/124 117/77/117 125/41/125
f 125/41/125 117/77/117 118/76/118
f 125/41/125 118/76/118 126/42/126
f 126/42/126 118/76/118 119/75/119
f 127/43/127 120/78/120 128/44/128
f 128/44/128 120/78/120 121/70/121
f 128/44/128 121/70/121 129/47/129
f 129/47/129 121/70/121 122/81/122
f 129/47/129 122/81/122 130/46/130
f 130/46/130 122/81/122 123/80/123
f 130/46/130 123/80/123 117/77/117
f 130/46/130 117/77/117 124/40/124
f 131/49/131 132/102/132 133/103/133
f 134/104/134 132/102/132 135/54/135
f 136/52/136 137/51/137 138/105/138
f 134/104/134 135/54/135 136/52/136
f 137/51/137 131/49/131 133/103/133
f 131/49/131 135/54/135 132/102/132
f 137/51/137 133/103/133 138/105/138
f 134/104/134 136/52/136 138/105/138
f 139/105/139 140/103/140 141/102/141
f 139/105/139 141/102/141 142/104/142
f 143/49/143 137/51/137 136/52/136
f 143/49/143 136/52/136 144/54/144
usemtl tex_1631_lit_w10
f 145/106/145 146/107/146 147/108/147
f 148/109/148 146/107/146 145/106/145
f 149/110/149 150/111/150 145/106/145
f 148/109/148 151/112/151 152/113/152
f 151/112/151 145/106/145 150/111/150
f 148/109/148 145/106/145 151/112/151
f 152/113/152 153/114/153 147/108/147
f 152/113/152 147/108/147 146/107/146
f 151/112/151 154/115/154 155/116/155
f 156/117/156 149/110/149 147/108/147
f 151/112/151 150/111/150 149/110/149
f 147/108/147 149/110/149 145/106/145
f 146/107/146 148/109/148 152/113/152
f 154/115/154 151/112/151 149/110/149
f 153/114/153 156/117/156 147/108/147
f 151/112/151 155/116/155 152/113/152
usemtl tex_1627_lit_w01
f 157/118/157 158/119/158 159/120/159
f 160/121/160 161/122/161 162/123/162
f 163/124/163 160/121/160 162/123/162
f 164/125/164 165/126/165 166/127/166
f 157/118/157 167/128/167 165/126/165
f 158/119/158 163/124/163 162/123/162
f 158/119/158 162/123/162 159/120/159
f 164/125/164 168/129/168 165/126/165
f 169/130/169 166/127/166 170/131/170
f 157/118/157 159/120/159 167/128/167
f 168/129/168 157/118/157 165/126/165
f 169/130/169 164/125/164 166/127/166
f 171/129/171 178/132/178 172/118/172
f 172/118/172 178/132/178 179/133/179
f 172/118/172 179/133/179 173/119/173
f 173/119/173 179/133/179 180/134/180
f 173/119/173 180/134/180 174/124/174
f 174/124/174 180/134/180 181/135/181
f 174/124/174 181/135/181 175/121/175
f 176/130/176 182/136/182 183/137/183
f 176/130/176 183/137/183 177/125/177
f 177/125/177 183/137/183 184/138/184
f 177/125/177 184/138/184 171/129/171
f 171/129/171 184/138/184 178/132/178
f 192/123/192 185/139/185 193/120/193
f 186/140/186 185/139/185 192/123/192
f 194/122/194 186/140/186 192/123/192
f 187/141/187 188/142/188 195/131/195
f 196/127/196 187/141/187 195/131/195
f 189/143/189 187/141/187 196/127/196
f 197/126/197 189/143/189 196/127/196
f 190/144/190 189/143/189 197/126/197
f 198/128/198 190/144/190 197/126/197
f 191/145/191 190/144/190 198/128/198
f 193/120/193 191/145/191 198/128/198
f 185/139/185 191/145/191 193/120/193
f 199/144/199 200/146/200 201/143/201
f 202/147/202 200/146/200 199/144/199
f 203/145/203 202/147/202 199/144/199
f 204/139/204 202/147/202 203/145/203
f 205/148/205 206/149/206 207/150/207
f 208/151/208 209/152/209 210/153/210
f 206/149/206 211/154/211 207/150/207
f 210/153/210 206/149/206 205/148/205
f 212/155/212 209/152/209 208/151/208
f 211/154/211 209/152/209 212/155/212
f 207/150/207 211/154/211 212/155/212
f 208/151/208 210/153/210 205/148/205
f 205/148/205 207/150/207 212/155/212
f 205/148/205 212/155/212 208/151/208
f 213/154/213 214/149/214 210/153/210
f 213/154/213 210/153/210 209/152/209
f 215/156/215 216/157/216 217/158/217
f 217/158/217 216/157/216 218/159/218
f 217/158/217 218/159/218 219/160/219
f 219/160/219 218/159/218 220/161/220
f 219/160/219 220/161/220 221/162/221
f 221/162/221 220/161/220 222/163/222
f 221/162/221 222/163/222 223/64/223
f 223/64/223 222/163/222 224/164/224
f 223/64/223 224/164/224 225/62/225
f 225/62/225 224/164/224 226/165/226
f 225/62/225 226/165/226 227/166/227
f 228/167/228 227/166/227 216/157/216
f 225/62/225 227/166/227 228/167/228
f 215/156/215 228/167/228 216/157/216
f 229/168/229 230/169/230 231/170/231
f 232/171/232 233/172/233 234/173/234
f 235/174/235 236/175/236 237/176/237
f 230/169/230 233/172/233 232/171/232
f 238/177/238 239/178/239 240/179/240
f 235/174/235 237/176/237 241/180/241
f 241/180/241 238/177/238 240/179/240
f 241/180/241 240/179/240 235/174/235
f 242/181/242 232/171/232 234/173/234
f 243/182/243 239/178/239 238/177/238
f 230/169/230 232/171/232 231/170/231
f 239/178/239 243/182/243 231/170/231
f 243/182/243 229/168/229 231/170/231
f 244/87/244 245/183/245 251/184/251
f 244/87/244 251/184/251 252/88/252
f 251/184/251 246/185/246 253/186/253
f 247/187/247 253/186/253 246/185/246
f 247/187/247 254/188/254 253/186/253
f 251/184/251 245/183/245 246/185/246
usemtl tex_2064_lit_w01
f 255/95/255 256/189/256 248/93/248
f 257/190/257 249/191/249 258/192/258
f 248/93/248 250/99/250 259/101/259
f 260/193/260 263/189/263 264/192/264
f 261/191/261 260/193/260 264/192/264
f 263/189/263 260/193/260 262/93/262
f 265/95/265 262/93/262 266/101/266
usemtl tex_1627_lit_w01
f 274/140/274 267/174/267 275/139/275
f 268/175/268 267/174/267 274/140/274
f 276/141/276 269/181/269 277/142/277
f 270/171/270 269/181/269 276/141/276
f 278/143/278 270/171/270 276/141/276
f 271/170/271 270/171/270 278/143/278
f 279/146/279 271/170/271 278/143/278
f 272/178/272 271/170/271 279/146/279
f 280/147/280 272/178/272 279/146/279
f 273/179/273 272/178/272 280/147/280
f 275/139/275 273/179/273 280/147/280
f 267/174/267 273/179/273 275/139/275
f 281/194/281 282/195/282 283/149/283
f 284/154/284 282/195/282 285/196/285
f 286/197/286 287/153/287 288/152/288
f 288/152/288 284/154/284 285/196/285
f 281/194/281 283/149/283 287/153/287
f 282/195/282 284/154/284 283/149/283
f 286/197/286 281/194/281 287/153/287
f 286/197/286 288/152/288 285/196/285
f 289/196/289 290/195/290 291/194/291
f 289/196/289 291/194/291 292/197/292
f 293/154/293 288/152/288 287/153/287
f 293/154/293 287/153/287 294/149/294
usemtl tex_1628_lit
f 295/198/295 298/199/298 299/200/299
f 296/201/296 300/202/300 301/203/301
f 296/201/296 295/198/295 302/204/302
f 297/205/297 303/206/303 304/207/304
f 305/208/305 298/199/298 295/198/295
f 295/198/295 306/209/306 302/204/302
f 296/201/296 301/203/301 297/205/297
f 297/205/297 307/210/307 303/206/303
f 297/205/297 308/211/308 307/210/307
f 295/198/295 299/200/299 306/209/306
f 296/201/296 302/204/302 300/202/300
f 301/203/301 308/211/308 297/205/297
usemtl tex_1630_lit
f 309/212/309 313/213/313 314/214/314
f 310/215/310 315/216/315 309/212/309
f 309/212/309 315/216/315 313/213/313
f 311/217/311 316/218/316 310/215/310
f 316/218/316 315/216/315 310/215/310
f 309/212/309 314/214/314 312/219/312
usemtl tex_1613_lit_w11
f 317/220/317 318/221/318 319/222/319
f 318/221/318 320/223/320 321/224/321
f 318/221/318 321/224/321 319/222/319
usemtl tex_1616_lit_w11
f 322/225/322 323/226/323 324/227/324
f 324/227/324 323/226/323 325/228/325
usemtl tex_1619_lit_w11
f 326/229/326 327/230/327 328/231/328
f 328/231/328 327/230/327 329/232/329
usemtl tex_1622_lit_w11
f 330/233/330 331/234/331 332/235/332
f 333/236/333 334/237/334 335/233/335
f 333/236/333 335/233/335 336/235/336
usemtl tex_1609_lit
f 337/238/337 338/239/338 339/240/339
f 339/240/339 338/239/338 340/241/340
usemtl tex_1595_lit_w11
f 341/242/341 342/243/342 343/244/343
f 344/245/344 345/246/345 346/247/346
f 347/248/347 348/249/348 349/250/349
f 350/251/350 351/252/351 345/246/345
f 348/249/348 344/245/344 346/247/346
f 342/243/342 352/253/352 343/244/343
f 348/249/348 346/247/346 349/250/349
f 352/253/352 353/254/353 354/255/354
f 344/245/344 350/251/350 345/246/345
f 347/248/347 349/250/349 354/255/354
f 353/254/353 347/248/347 354/255/354
f 352/253/352 342/243/342 353/254/353
usemtl tex_1604_lit
f 361/256/361 355/257/355 362/258/362
f 356/259/356 355/257/355 361/256/361
f 363/260/363 356/259/356 361/256/361
f 357/261/357 356/259/356 363/260/363
f 364/262/364 357/261/357 363/260/363
f 358/263/358 357/261/357 364/262/364
f 365/264/365 358/263/358 364/262/364
f 359/265/359 358/263/358 365/264/365
f 366/266/366 359/265/359 365/264/365
f 360/267/360 359/265/359 366/266/366
f 362/258/362 360/267/360 366/266/366
f 355/257/355 360/267/360 362/258/362
usemtl tex_1627_lit_w01
f 373/268/373 367/269/367 374/270/374
f 374/270/374 367/269/367 368/271/368
f 374/270/374 368/271/368 375/272/375
f 375/272/375 368/271/368 369/273/369
f 375/272/375 369/273/369 376/274/376
f 376/274/376 369/273/369 370/275/370
f 376/274/376 370/275/370 377/276/377
f 377/276/377 370/275/370 371/277/371
f 377/276/377 371/277/371 378/278/378
f 378/278/378 371/277/371 372/279/372
f 378/278/378 372/279/372 373/268/373
f 373/268/373 372/279/372 367/269/367
usemtl tex_1595_lit_w11
f 379/280/379 380/281/380 381/282/381
f 381/282/381 382/283/382 383/284/383
f 384/285/384 380/281/380 385/286/385
f 383/284/383 384/285/384 386/287/386
f 383/284/383 382/283/382 384/285/384
f 380/281/380 379/280/379 385/286/385
f 379/280/379 381/282/381 383/284/383
f 384/285/384 385/286/385 386/287/386
f 381/282/381 380/281/380 384/285/384
f 381/282/381 384/285/384 382/283/382
usemtl tex_1627_lit_w01
f 387/288/387 388/289/388 389/290/389
f 390/291/390 391/292/391 389/290/389
f 392/293/392 393/294/393 394/295/394
f 391/292/391 387/288/387 389/290/389
f 392/293/392 394/295/394 388/289/388
f 388/289/388 394/295/394 395/296/395
f 396/297/396 393/294/393 391/292/391
f 388/289/388 395/296/395 389/290/389
f 393/294/393 397/298/397 394/295/394
f 396/297/396 397/298/397 393/294/393
f 396/297/396 391/292/391 390/291/390
f 403/288/403 398/299/398 404/289/404
f 404/289/404 398/299/398 399/300/399
f 404/289/404 399/300/399 405/293/405
f 405/293/405 399/300/399 400/301/400
f 405/293/405 400/301/400 406/294/406
f 406/294/406 400/301/400 401/302/401
f 406/294/406 401/302/401 407/292/407
f 407/292/407 401/302/401 402/303/402
f 407/292/407 402/303/402 403/288/403
f 403/288/403 402/303/402 398/299/398
f 414/271/414 408/298/408 415/273/415
f 409/295/409 408/298/408 414/271/414
f 416/269/416 409/295/409 414/271/414
f 410/296/410 409/295/409 416/269/416
f 417/279/417 410/296/410 416/269/416
f 411/290/411 410/296/410 417/279/417
f 418/277/418 411/290/411 417/279/417
f 412/291/412 411/290/411 418/277/418
f 419/275/419 412/291/412 418/277/418
f 413/297/413 412/291/412 419/275/419
f 415/273/415 413/297/413 419/275/419
f 408/298/408 413/297/413 415/273/415
usemtl tex_1595_lit_w11
f 420/304/420 421/305/421 422/282/422
f 423/281/423 424/306/424 422/282/422
f 424/306/424 420/304/420 422/282/422
f 425/307/425 426/285/426 421/305/421
f 421/305/421 426/285/426 427/283/427
f 423/281/423 425/307/425 424/306/424
f 421/305/421 427/283/427 422/282/422
f 425/307/425 423/281/423 426/285/426
f 428/304/428 424/306/424 425/307/425
f 425/307/425 429/305/429 428/304/428
f 427/283/427 426/285/426 423/281/423
f 427/283/427 423/281/423 422/282/422
usemtl tex_1613_lit_w11
f 430/308/430 431/309/431 432/310/432
f 431/309/431 433/311/433 432/310/432
f 430/308/430 432/310/432 434/312/434
usemtl tex_1616_lit_w11
f 435/313/435 436/314/436 437/315/437
f 438/316/438 436/314/436 435/313/435
usemtl tex_1619_lit_w11
f 439/317/439 440/318/440 441/319/441
f 442/320/442 440/318/440 439/317/439
usemtl tex_1622_lit_w11
f 443/321/443 444/322/444 445/323/445
f 446/324/446 447/325/447 448/321/448
f 446/324/446 448/321/448 449/323/449
usemtl tex_1609_lit
f 450/326/450 451/327/451 452/328/452
f 453/329/453 451/327/451 450/326/450
usemtl tex_1595_lit_w11
f 454/330/454 455/331/455 456/332/456
f 457/333/457 458/334/458 459/335/459
f 460/336/460 461/337/461 462/338/462
f 463/339/463 454/330/454 456/332/456
f 457/333/457 459/335/459 461/337/461
f 454/330/454 464/340/464 455/331/455
f 460/336/460 457/333/457 461/337/461
f 465/341/465 466/342/466 464/340/464
f 463/339/463 456/332/456 467/343/467
f 465/341/465 460/336/460 462/338/462
f 465/341/465 462/338/462 466/342/466
f 466/342/466 455/331/455 464/340/464
usemtl tex_1604_lit
f 468/344/468 474/345/474 469/346/469
f 469/346/469 474/345/474 475/347/475
f 469/346/469 475/347/475 470/348/470
f 470/348/470 475/347/475 476/349/476
f 470/348/470 476/349/476 471/350/471
f 471/350/471 476/349/476 477/351/477
f 471/350/471 477/351/477 472/352/472
f 472/352/472 477/351/477 478/353/478
f 472/352/472 478/353/478 473/354/473
f 473/354/473 478/353/478 479/355/479
f 473/354/473 479/355/479 468/344/468
f 468/344/468 479/355/479 474/345/474
usemtl tex_1627_lit_w01
f 486/356/486 480/357/480 487/358/487
f 487/358/487 480/357/480 481/359/481
f 487/358/487 481/359/481 488/360/488
f 488/360/488 481/359/481 482/361/482
f 488/360/488 482/361/482 489/362/489
f 489/362/489 482/361/482 483/363/483
f 489/362/489 483/363/483 490/364/490
f 490/364/490 483/363/483 484/365/484
f 490/364/490 484/365/484 491/366/491
usemtl tex_1627_lit_w01_ovl
f 491/366/491 484/365/484 485/367/485
usemtl tex_1627_lit_w01
f 491/366/491 485/367/485 486/356/486
f 486/356/486 485/367/485 480/357/480
usemtl tex_1595_lit_w11
f 492/368/492 493/369/493 494/370/494
f 495/371/495 496/372/496 492/368/492
f 497/373/497 493/369/493 498/374/498
f 499/375/499 498/374/498 495/371/495
f 498/374/498 496/372/496 495/371/495
f 497/373/497 494/370/494 493/369/493
f 495/371/495 492/368/492 494/370/494
f 499/375/499 497/373/497 498/374/498
f 493/369/493 492/368/492 496/372/496
f 493/369/493 496/372/496 498/374/498
usemtl tex_1627_lit_w01
f 500/376/500 501/377/501 502/378/502
f 500/376/500 503/379/503 504/380/504
f 505/381/505 506/382/506 507/383/507
f 500/376/500 502/378/502 503/379/503
f 501/377/501 505/381/505 507/383/507
f 508/384/508 505/381/505 501/377/501
f 503/379/503 506/382/506 509/385/509
f 500/376/500 508/384/508 501/377/501
f 505/381/505 510/386/510 506/382/506
f 506/382/506 510/386/510 509/385/509
f 504/380/504 503/379/503 509/385/509
f 516/377/516 511/387/511 517/378/517
f 512/388/512 511/387/511 516/377/516
f 518/383/518 512/388/512 516/377/516
f 513/389/513 512/388/512 518/383/518
f 519/382/519 513/389/513 518/383/518
f 514/390/514 513/389/513 519/382/519
f 520/379/520 514/390/514 519/382/519
f 515/391/515 514/390/514 520/379/520
f 517/378/517 515/391/515 520/379/520
f 511/387/511 515/391/515 517/378/517
f 527/357/527 521/386/521 528/359/528
f 528/359/528 521/386/521 522/381/522
f 528/359/528 522/381/522 529/361/529
f 529/361/529 522/381/522 523/384/523
f 529/361/529 523/384/523 530/363/530
f 530/363/530 523/384/523 524/376/524
f 530/363/530 524/376/524 531/365/531
f 531/365/531 524/376/524 525/380/525
f 531/365/531 525/380/525 532/367/532
f 532/367/532 525/380/525 526/385/526
f 532/367/532 526/385/526 527/357/527
f 527/357/527 526/385/526 521/386/521
usemtl tex_1595_lit_w11
f 533/392/533 534/393/534 535/394/535
f 535/394/535 536/395/536 533/392/533
f 537/368/537 538/394/538 539/393/539
f 537/368/537 533/392/533 540/369/540
f 537/368/537 539/393/539 533/392/533
f 538/394/538 541/374/541 536/395/536
f 542/372/542 541/374/541 538/394/538
f 533/392/533 536/395/536 540/369/540
f 537/368/537 542/372/542 538/394/538
f 541/374/541 540/369/540 536/395/536
f 541/374/541 542/372/542 537/368/537
f 541/374/541 537/368/537 540/369/540
usemtl tex_1627_lit_w01
f 543/396/543 544/397/544 545/398/545
f 546/399/546 543/396/543 547/400/547
f 548/401/548 549/402/549 550/403/550
f 543/396/543 551/404/551 552/405/552
f 543/396/543 545/398/545 551/404/551
f 553/406/553 544/397/544 543/396/543
f 554/407/554 546/399/546 555/408/555
f 546/399/546 556/409/556 553/406/553
f 557/410/557 558/411/558 559/412/559
f 560/405/560 559/412/559 558/411/558
f 561/399/561 562/413/562 563/414/563
f 564/408/564 561/399/561 565/400/565
f 564/408/564 565/400/565 558/411/558
f 566/402/566 564/408/564 558/411/558
f 565/400/565 560/405/560 558/411/558
f 566/402/566 567/401/567 568/407/568
f 569/409/569 561/399/561 563/414/563
f 570/398/570 571/415/571 572/404/572
f 561/399/561 568/407/568 562/413/562
f 573/414/573 574/413/574 575/416/575
f 576/402/576 577/407/577 578/408/578
f 579/400/579 580/396/580 581/405/581
f 582/399/582 583/406/583 580/396/580
usemtl tex_2064_lit_w01
f 584/417/584 585/418/585 586/419/586
f 587/420/587 588/421/588 589/422/589
f 590/423/590 591/424/591 592/425/592
f 593/418/593 589/422/589 594/426/594
f 593/418/593 594/426/594 595/427/595
f 596/428/596 597/417/597 598/419/598
f 598/419/598 593/418/593 595/427/595
f 596/428/596 598/419/598 599/429/599
f 593/418/593 587/420/587 589/422/589
f 600/430/600 601/431/601 587/420/587
f 588/421/588 587/420/587 601/431/601
f 596/428/596 599/429/599 602/432/602
f 598/419/598 595/427/595 599/429/599
f 592/425/592 600/430/600 593/418/593
f 603/433/603 604/430/604 605/425/605
f 606/423/606 605/425/605 607/418/607
f 604/430/604 608/420/608 607/418/607
f 609/417/609 610/434/610 607/418/607
f 609/417/609 611/435/611 610/434/610
f 612/424/612 603/433/603 605/425/605
f 611/435/611 613/436/613 610/434/610
f 606/423/606 607/418/607 610/434/610
f 613/436/613 606/423/606 610/434/610
f 614/437/614 615/421/615 616/431/616
usemtl tex_1627_lit_w01
f 617/438/617 624/415/624 618/439/618
f 618/439/618 624/415/624 625/398/625
f 618/439/618 625/398/625 619/440/619
f 619/440/619 625/398/625 626/397/626
f 619/440/619 626/397/626 620/441/620
f 620/441/620 626/397/626 627/406/627
f 620/441/620 627/406/627 621/442/621
f 621/442/621 627/406/627 628/409/628
f 621/442/621 628/409/628 622/443/622
f 622/443/622 628/409/628 629/414/629
f 622/443/622 629/414/629 623/444/623
f 623/444/623 629/414/629 630/416/630
usemtl tex_2064_lit_w01_ovl
f 631/445/631 636/429/636 632/446/632
usemtl tex_2064_lit_w01
f 632/446/632 636/429/636 637/427/637
f 632/446/632 637/427/637 633/447/633
f 633/447/633 637/427/637 638/426/638
f 633/447/633 638/426/638 634/448/634
f 634/448/634 638/426/638 639/422/639
f 634/448/634 639/422/639 635/449/635
f 635/449/635 639/422/639 640/421/640
usemtl tex_1627_lit_w01
f 641/450/641 642/451/642 643/452/643
f 644/453/644 641/450/641 643/452/643
usemtl tex_2064_lit_w01
f 645/454/645 646/455/646 647/456/647
f 648/454/648 649/457/649 650/458/650
f 646/455/646 645/454/645 651/459/651
f 652/460/652 653/457/653 654/455/654
f 655/461/655 656/459/656 657/458/657
f 658/454/658 659/456/659 660/457/660
f 661/457/661 659/456/659 662/455/662
f 663/454/663 657/458/657 656/459/656
f 664/460/664 665/461/665 666/457/666
f 665/461/665 667/458/667 666/457/666
usemtl tex_1627_lit_w01
f 668/462/668 669/185/669 670/183/670
f 668/462/668 671/463/671 672/187/672
f 673/464/673 674/87/674 675/465/675
f 673/464/673 670/183/670 674/87/674
f 676/90/676 677/91/677 678/466/678
f 669/185/669 668/462/668 672/187/672
f 674/87/674 679/86/679 675/465/675
f 679/86/679 680/467/680 675/465/675
f 676/90/676 681/468/681 679/86/679
f 681/468/681 676/90/676 678/466/678
f 673/464/673 668/462/668 670/183/670
f 681/468/681 680/467/680 679/86/679
usemtl tex_2064_lit_w01
f 682/469/682 683/193/683 684/191/684
f 685/470/685 686/100/686 687/93/687
f 688/471/688 682/469/682 684/191/684
f 683/193/683 685/470/685 687/93/687
f 682/469/682 685/470/685 683/193/683
f 685/470/685 689/472/689 686/100/686
f 689/472/689 690/473/690 691/97/691
f 686/100/686 689/472/689 691/97/691
usemtl tex_1627_lit_w01
f 692/466/692 699/438/699 693/468/693
f 693/468/693 699/438/699 700/439/700
f 693/468/693 700/439/700 701/440/701
f 694/467/694 701/440/701 695/465/695
f 695/465/695 701/440/701 702/441/702
f 695/465/695 702/441/702 696/464/696
f 696/464/696 702/441/702 703/442/703
f 696/464/696 703/442/703 697/462/697
f 697/462/697 703/442/703 704/443/704
f 697/462/697 704/443/704 698/463/698
f 698/463/698 704/443/704 705/444/705
f 693/468/693 701/440/701 694/467/694
usemtl tex_2064_lit_w01
f 706/473/706 711/448/711 712/449/712
f 707/471/707 713/445/713 708/469/708
f 708/469/708 713/445/713 714/446/714
f 708/469/708 714/446/714 709/470/709
f 709/470/709 714/446/714 715/447/715
f 709/470/709 715/447/715 710/472/710
f 710/472/710 715/447/715 711/448/711
f 710/472/710 711/448/711 706/473/706
usemtl tex_1627_lit_w01
f 716/474/716 717/452/717 718/451/718
f 716/474/716 718/451/718 719/475/719
usemtl tex_2064_lit_w01
f 720/457/720 721/476/721 722/477/722
f 721/476/721 723/460/723 724/478/724
f 721/476/721 720/457/720 723/460/723
f 725/479/725 726/461/726 727/477/727
f 727/477/727 726/461/726 728/458/728
f 729/458/729 720/457/720 722/477/722
f 723/460/723 730/458/730 731/461/731
f 732/460/732 733/457/733 734/458/734
f 735/479/735 736/477/736 737/476/737
f 735/479/735 737/476/737 738/478/738
