mtllib CgreyguardZ.mtl
v -1078.8555908203125 -82.70243644714355 -44.0 1.000 1.000 1.000
v -1078.8555908203125 -164.70243644714355 -37.0 1.000 1.000 1.000
v -1078.8555908203125 -38.702436447143555 227.0 1.000 1.000 1.000
v -1078.8555908203125 -157.70243644714355 237.0 1.000 1.000 1.000
v -1035.8555908203125 -76.70243644714355 213.0 1.000 1.000 1.000
v -973.8555908203125 -85.70243644714355 33.0 1.000 1.000 1.000
v -971.8555908203125 -144.70243644714355 -18.0 1.000 1.000 1.000
v -1038.8555908203125 -128.70243644714355 239.0 1.000 1.000 1.000
v -973.8555908203125 -99.70243644714355 -31.0 1.000 1.000 1.000
v -972.8555908203125 -134.70243644714355 56.0 1.000 1.000 1.000
v -639.8883666992188 -52.47519826889038 68.0 1.000 1.000 1.000
v -985.8883666992188 -55.47519826889038 69.0 1.000 1.000 1.000
v -986.8883666992188 -145.47519826889038 91.0 1.000 1.000 1.000
v -639.8883666992188 -52.47519826889038 68.0 1.000 1.000 1.000
v -655.8883666992188 -51.47519826889038 -9.0 1.000 1.000 1.000
v -987.8883666992188 -55.47519826889038 -39.0 1.000 1.000 1.000
v -985.8883666992188 -55.47519826889038 69.0 1.000 1.000 1.000
v -655.8883666992188 -188.47519826889038 8.0 1.000 1.000 1.000
v -657.8883666992188 -131.47519826889038 110.0 1.000 1.000 1.000
v -655.8883666992188 -51.47519826889038 -9.0 1.000 1.000 1.000
v -654.8883666992188 -117.47519826889038 -56.0 1.000 1.000 1.000
v -987.8883666992188 -55.47519826889038 -39.0 1.000 1.000 1.000
v -985.8883666992188 -182.47519826889038 -38.0 1.000 1.000 1.000
v -985.8883666992188 -182.47519826889038 -38.0 1.000 1.000 1.000
v -986.8883666992188 -145.47519826889038 91.0 1.000 1.000 1.000
v -985.8883666992188 -55.47519826889038 69.0 1.000 1.000 1.000
v -987.8883666992188 -55.47519826889038 -39.0 1.000 1.000 1.000
v -971.8555908203125 -144.70243644714355 -18.0 1.000 1.000 1.000
v -972.8555908203125 -134.70243644714355 56.0 1.000 1.000 1.000
v -973.8555908203125 -85.70243644714355 33.0 1.000 1.000 1.000
v -973.8555908203125 -99.70243644714355 -31.0 1.000 1.000 1.000
v -512.8883666992188 -186.47519826889038 14.0 1.000 1.000 1.000
v -523.8883666992188 -42.47519826889038 -9.0 1.000 1.000 1.000
v -519.8883666992188 -115.47519826889038 -55.0 1.000 1.000 1.000
v -506.88836669921875 -46.47519826889038 70.0 1.000 1.000 1.000
v -506.88836669921875 -46.47519826889038 70.0 1.000 1.000 1.000
v -523.8883666992188 -42.47519826889038 -9.0 1.000 1.000 1.000
v -509.88836669921875 -127.47519826889038 111.0 1.000 1.000 1.000
v -657.8883666992188 -131.47519826889038 110.0 1.000 1.000 1.000
v -655.8883666992188 -188.47519826889038 8.0 1.000 1.000 1.000
v -655.8883666992188 -51.47519826889038 -9.0 1.000 1.000 1.000
v -639.8883666992188 -52.47519826889038 68.0 1.000 1.000 1.000
v -639.8883666992188 -52.47519826889038 68.0 1.000 1.000 1.000
v -654.8883666992188 -117.47519826889038 -56.0 1.000 1.000 1.000
v -655.8883666992188 -51.47519826889038 -9.0 1.000 1.000 1.000
v -993.8883666992188 -157.47519826889038 93.0 1.000 1.000 1.000
v -527.8883666992188 -125.47519826889038 111.0 1.000 1.000 1.000
v -993.8883666992188 -28.47519826889038 70.0 1.000 1.000 1.000
v -518.8883666992188 -27.47519826889038 38.0 1.000 1.000 1.000
v -521.8883666992188 -101.47519826889038 -67.0 1.000 1.000 1.000
v -993.8883666992188 -62.47519826889038 -62.0 1.000 1.000 1.000
v -522.8883666992188 -188.47519826889038 13.0 1.000 1.000 1.000
v -993.8883666992188 -183.47519826889038 -49.0 1.000 1.000 1.000
v -527.8883666992188 -125.47519826889038 111.0 1.000 1.000 1.000
v -522.8883666992188 -188.47519826889038 13.0 1.000 1.000 1.000
v -162.58901977539062 -35.63739013671875 -17.0 1.000 1.000 1.000
v -162.58901977539062 -49.63739013671875 -67.0 1.000 1.000 1.000
v -162.58901977539062 -115.63739013671875 -65.0 1.000 1.000 1.000
v -162.58901977539062 -137.63739013671875 -102.0 1.000 1.000 1.000
v -163.58901977539062 -185.63739013671875 20.0 1.000 1.000 1.000
v -162.58901977539062 -191.63739013671875 -102.0 1.000 1.000 1.000
v -161.58901977539062 -189.63739013671875 133.0 1.000 1.000 1.000
v -162.58901977539062 -144.63739013671875 110.0 1.000 1.000 1.000
v -162.58901977539062 -70.63739013671875 89.0 1.000 1.000 1.000
v -162.58901977539062 -62.63739013671875 73.0 1.000 1.000 1.000
v -162.58901977539062 -17.63739013671875 13.0 1.000 1.000 1.000
v -423.5890197753906 -127.63739013671875 109.0 1.000 1.000 1.000
v -163.58901977539062 -185.63739013671875 20.0 1.000 1.000 1.000
v -162.58901977539062 -144.63739013671875 110.0 1.000 1.000 1.000
v -162.58901977539062 -115.63739013671875 -65.0 1.000 1.000 1.000
v -466.5890197753906 -186.63739013671875 13.0 1.000 1.000 1.000
v -346.5890197753906 -118.63739013671875 -64.0 1.000 1.000 1.000
v -381.5890197753906 -35.63739013671875 3.0 1.000 1.000 1.000
v -162.58901977539062 -35.63739013671875 -17.0 1.000 1.000 1.000
v -162.58901977539062 -115.63739013671875 -65.0 1.000 1.000 1.000
v -466.5890197753906 -186.63739013671875 13.0 1.000 1.000 1.000
v -423.5890197753906 -127.63739013671875 109.0 1.000 1.000 1.000
v -162.58901977539062 -144.63739013671875 110.0 1.000 1.000 1.000
v -162.58901977539062 -62.63739013671875 73.0 1.000 1.000 1.000
v -163.58901977539062 -185.63739013671875 20.0 1.000 1.000 1.000
v -381.5890197753906 -35.63739013671875 3.0 1.000 1.000 1.000
v -399.5890197753906 -42.63739013671875 69.0 1.000 1.000 1.000
v -162.58901977539062 -62.63739013671875 73.0 1.000 1.000 1.000
v -399.5890197753906 -42.63739013671875 69.0 1.000 1.000 1.000
v -162.58901977539062 -35.63739013671875 -17.0 1.000 1.000 1.000
v -2.0 -113.0 143.0 1.000 1.000 1.000
v -63.0 -65.0 133.0 1.000 1.000 1.000
v -132.0 19.0 20.0 1.000 1.000 1.000
v -1.0 -94.0 -84.0 1.000 1.000 1.000
v -91.0 -48.0 -70.0 1.000 1.000 1.000
v -132.0 19.0 20.0 1.000 1.000 1.000
v -1.0 -94.0 -84.0 1.000 1.000 1.000
v -161.58901977539062 -189.63739013671875 133.0 1.000 1.000 1.000
v -162.58901977539062 -70.63739013671875 89.0 1.000 1.000 1.000
v -162.58901977539062 -17.63739013671875 13.0 1.000 1.000 1.000
v -162.58901977539062 -191.63739013671875 -102.0 1.000 1.000 1.000
v -162.58901977539062 -17.63739013671875 13.0 1.000 1.000 1.000
v -162.58901977539062 -49.63739013671875 -67.0 1.000 1.000 1.000
v -162.58901977539062 -137.63739013671875 -102.0 1.000 1.000 1.000
v -162.58901977539062 -191.63739013671875 -102.0 1.000 1.000 1.000
v -381.5890197753906 -35.63739013671875 3.0 1.000 1.000 1.000
v -346.5890197753906 -118.63739013671875 -64.0 1.000 1.000 1.000
v -399.5890197753906 -42.63739013671875 69.0 1.000 1.000 1.000
v -399.5890197753906 -42.63739013671875 69.0 1.000 1.000 1.000
v -381.5890197753906 -35.63739013671875 3.0 1.000 1.000 1.000
v -466.5890197753906 -186.63739013671875 13.0 1.000 1.000 1.000
v -423.5890197753906 -127.63739013671875 109.0 1.000 1.000 1.000
v -519.8883666992188 -115.47519826889038 -55.0 1.000 1.000 1.000
v -506.88836669921875 -46.47519826889038 70.0 1.000 1.000 1.000
v -509.88836669921875 -127.47519826889038 111.0 1.000 1.000 1.000
v -523.8883666992188 -42.47519826889038 -9.0 1.000 1.000 1.000
v -512.8883666992188 -186.47519826889038 14.0 1.000 1.000 1.000
v -523.8883666992188 -42.47519826889038 -9.0 1.000 1.000 1.000
v -506.88836669921875 -46.47519826889038 70.0 1.000 1.000 1.000
v -527.5890197753906 -125.63739013671875 111.0 1.000 1.000 1.000
v -163.58901977539062 -185.63739013671875 20.0 1.000 1.000 1.000
v -166.58901977539062 -144.63739013671875 124.0 1.000 1.000 1.000
v -162.58901977539062 -115.63739013671875 -73.0 1.000 1.000 1.000
v -522.5890197753906 -188.63739013671875 13.0 1.000 1.000 1.000
v -522.5890197753906 -101.63739013671875 -67.0 1.000 1.000 1.000
v -519.5890197753906 -27.63739013671875 38.0 1.000 1.000 1.000
v -162.58901977539062 -30.63739013671875 27.0 1.000 1.000 1.000
v -162.58901977539062 -30.63739013671875 27.0 1.000 1.000 1.000
v -162.58901977539062 -115.63739013671875 -73.0 1.000 1.000 1.000
v -527.5890197753906 -125.63739013671875 111.0 1.000 1.000 1.000
v -522.5890197753906 -188.63739013671875 13.0 1.000 1.000 1.000
v 1087.927879333496 -43.380823612213135 227.0 1.000 1.000 1.000
v 1087.927879333496 -169.38082361221313 -37.0 1.000 1.000 1.000
v 1087.927879333496 -87.38082361221313 -44.0 1.000 1.000 1.000
v 1087.927879333496 -162.38082361221313 237.0 1.000 1.000 1.000
v 982.9278793334961 -90.38082361221313 33.0 1.000 1.000 1.000
v 1044.927879333496 -81.38082361221313 213.0 1.000 1.000 1.000
v 1047.927879333496 -133.38082361221313 239.0 1.000 1.000 1.000
v 980.9278793334961 -150.38082361221313 -18.0 1.000 1.000 1.000
v 981.9278793334961 -104.38082361221313 -31.0 1.000 1.000 1.000
v 981.9278793334961 -139.38082361221313 56.0 1.000 1.000 1.000
v 995.3251266479492 -153.09517669677734 91.0 1.000 1.000 1.000
v 996.3251266479492 -59.095176696777344 69.0 1.000 1.000 1.000
v 650.3251266479492 -54.095176696777344 68.0 1.000 1.000 1.000
v 996.3251266479492 -60.095176696777344 -38.0 1.000 1.000 1.000
v 667.3251266479492 -54.095176696777344 -8.0 1.000 1.000 1.000
v 650.3251266479492 -54.095176696777344 68.0 1.000 1.000 1.000
v 996.3251266479492 -59.095176696777344 69.0 1.000 1.000 1.000
v 669.3251266479492 -135.09517669677734 111.0 1.000 1.000 1.000
v 667.3251266479492 -197.09517669677734 10.0 1.000 1.000 1.000
v 996.3251266479492 -60.095176696777344 -38.0 1.000 1.000 1.000
v 666.3251266479492 -125.09517669677734 -55.0 1.000 1.000 1.000
v 667.3251266479492 -54.095176696777344 -8.0 1.000 1.000 1.000
v 994.3251266479492 -184.09517669677734 -36.0 1.000 1.000 1.000
v 996.3251266479492 -60.095176696777344 -38.0 1.000 1.000 1.000
v 996.3251266479492 -59.095176696777344 69.0 1.000 1.000 1.000
v 995.3251266479492 -153.09517669677734 91.0 1.000 1.000 1.000
v 994.3251266479492 -184.09517669677734 -36.0 1.000 1.000 1.000
v 981.9278793334961 -104.38082361221313 -31.0 1.000 1.000 1.000
v 982.9278793334961 -90.38082361221313 33.0 1.000 1.000 1.000
v 981.9278793334961 -139.38082361221313 56.0 1.000 1.000 1.000
v 980.9278793334961 -150.38082361221313 -18.0 1.000 1.000 1.000
v 515.3251266479492 -130.09517669677734 110.0 1.000 1.000 1.000
v 522.3251266479492 -45.095176696777344 69.0 1.000 1.000 1.000
v 531.3251266479492 -46.095176696777344 -7.0 1.000 1.000 1.000
v 528.3251266479492 -123.09517669677734 -56.0 1.000 1.000 1.000
v 531.3251266479492 -46.095176696777344 -7.0 1.000 1.000 1.000
v 528.3251266479492 -191.09517669677734 15.0 1.000 1.000 1.000
v 522.3251266479492 -45.095176696777344 69.0 1.000 1.000 1.000
v 650.3251266479492 -54.095176696777344 68.0 1.000 1.000 1.000
v 669.3251266479492 -135.09517669677734 111.0 1.000 1.000 1.000
v 667.3251266479492 -54.095176696777344 -8.0 1.000 1.000 1.000
v 650.3251266479492 -54.095176696777344 68.0 1.000 1.000 1.000
v 667.3251266479492 -54.095176696777344 -8.0 1.000 1.000 1.000
v 666.3251266479492 -125.09517669677734 -55.0 1.000 1.000 1.000
v 667.3251266479492 -197.09517669677734 10.0 1.000 1.000 1.000
v 1003.3251266479492 -38.095176696777344 70.0 1.000 1.000 1.000
v 536.3251266479492 -130.09517669677734 111.0 1.000 1.000 1.000
v 1003.3251266479492 -155.09517669677734 94.0 1.000 1.000 1.000
v 1003.3251266479492 -73.09517669677734 -62.0 1.000 1.000 1.000
v 531.3251266479492 -106.09517669677734 -67.0 1.000 1.000 1.000
v 528.3251266479492 -31.095176696777344 38.0 1.000 1.000 1.000
v 531.3251266479492 -193.09517669677734 13.0 1.000 1.000 1.000
v 1003.3251266479492 -181.09517669677734 -49.0 1.000 1.000 1.000
v 531.3251266479492 -193.09517669677734 13.0 1.000 1.000 1.000
v 536.3251266479492 -130.09517669677734 111.0 1.000 1.000 1.000
v 172.1657943725586 -64.35110473632812 79.0 1.000 1.000 1.000
v 172.1657943725586 -39.351104736328125 -17.0 1.000 1.000 1.000
v 172.1657943725586 -21.351104736328125 13.0 1.000 1.000 1.000
v 171.1657943725586 -39.351104736328125 -67.0 1.000 1.000 1.000
v 171.1657943725586 -198.35110473632812 133.0 1.000 1.000 1.000
v 172.1657943725586 -142.35110473632812 111.0 1.000 1.000 1.000
v 171.1657943725586 -65.35110473632812 88.0 1.000 1.000 1.000
v 172.1657943725586 -190.35110473632812 20.0 1.000 1.000 1.000
v 171.1657943725586 -196.35110473632812 -102.0 1.000 1.000 1.000
v 172.1657943725586 -117.35110473632812 -66.0 1.000 1.000 1.000
v 171.1657943725586 -125.35110473632812 -103.0 1.000 1.000 1.000
v 172.1657943725586 -142.35110473632812 111.0 1.000 1.000 1.000
v 172.1657943725586 -190.35110473632812 20.0 1.000 1.000 1.000
v 431.1657943725586 -126.35110473632812 109.0 1.000 1.000 1.000
v 475.1657943725586 -190.35110473632812 12.0 1.000 1.000 1.000
v 172.1657943725586 -117.35110473632812 -66.0 1.000 1.000 1.000
v 390.1657943725586 -38.351104736328125 5.0 1.000 1.000 1.000
v 356.1657943725586 -117.35110473632812 -64.0 1.000 1.000 1.000
v 172.1657943725586 -117.35110473632812 -66.0 1.000 1.000 1.000
v 475.1657943725586 -190.35110473632812 12.0 1.000 1.000 1.000
v 172.1657943725586 -64.35110473632812 79.0 1.000 1.000 1.000
v 172.1657943725586 -142.35110473632812 111.0 1.000 1.000 1.000
v 431.1657943725586 -126.35110473632812 109.0 1.000 1.000 1.000
v 172.1657943725586 -39.351104736328125 -17.0 1.000 1.000 1.000
v 172.1657943725586 -190.35110473632812 20.0 1.000 1.000 1.000
v 172.1657943725586 -64.35110473632812 79.0 1.000 1.000 1.000
v 411.1657943725586 -42.351104736328125 75.0 1.000 1.000 1.000
v 390.1657943725586 -38.351104736328125 5.0 1.000 1.000 1.000
v 172.1657943725586 -39.351104736328125 -17.0 1.000 1.000 1.000
v 411.1657943725586 -42.351104736328125 75.0 1.000 1.000 1.000
v 143.0 19.0 25.0 1.000 1.000 1.000
v 67.0 -61.0 136.0 1.000 1.000 1.000
v -2.0 -113.0 143.0 1.000 1.000 1.000
v -1.0 -94.0 -84.0 1.000 1.000 1.000
v 92.0 -46.0 -73.0 1.000 1.000 1.000
v 92.0 -46.0 -73.0 1.000 1.000 1.000
v 143.0 19.0 25.0 1.000 1.000 1.000
v -1.0 -94.0 -84.0 1.000 1.000 1.000
v 171.1657943725586 -65.35110473632812 88.0 1.000 1.000 1.000
v 172.1657943725586 -21.351104736328125 13.0 1.000 1.000 1.000
v 171.1657943725586 -198.35110473632812 133.0 1.000 1.000 1.000
v 171.1657943725586 -196.35110473632812 -102.0 1.000 1.000 1.000
v 171.1657943725586 -39.351104736328125 -67.0 1.000 1.000 1.000
v 171.1657943725586 -125.35110473632812 -103.0 1.000 1.000 1.000
v 172.1657943725586 -21.351104736328125 13.0 1.000 1.000 1.000
v 171.1657943725586 -196.35110473632812 -102.0 1.000 1.000 1.000
v 390.1657943725586 -38.351104736328125 5.0 1.000 1.000 1.000
v 411.1657943725586 -42.351104736328125 75.0 1.000 1.000 1.000
v 356.1657943725586 -117.35110473632812 -64.0 1.000 1.000 1.000
v 390.1657943725586 -38.351104736328125 5.0 1.000 1.000 1.000
v 475.1657943725586 -190.35110473632812 12.0 1.000 1.000 1.000
v 431.1657943725586 -126.35110473632812 109.0 1.000 1.000 1.000
v 411.1657943725586 -42.351104736328125 75.0 1.000 1.000 1.000
v 531.3251266479492 -46.095176696777344 -7.0 1.000 1.000 1.000
v 531.3251266479492 -46.095176696777344 -7.0 1.000 1.000 1.000
v 528.3251266479492 -123.09517669677734 -56.0 1.000 1.000 1.000
v 528.3251266479492 -191.09517669677734 15.0 1.000 1.000 1.000
v 515.3251266479492 -130.09517669677734 110.0 1.000 1.000 1.000
v 522.3251266479492 -45.095176696777344 69.0 1.000 1.000 1.000
v 522.3251266479492 -45.095176696777344 69.0 1.000 1.000 1.000
v 175.1657943725586 -148.35110473632812 124.0 1.000 1.000 1.000
v 173.1657943725586 -189.35110473632812 20.0 1.000 1.000 1.000
v 537.1657943725586 -129.35110473632812 111.0 1.000 1.000 1.000
v 531.1657943725586 -193.35110473632812 13.0 1.000 1.000 1.000
v 171.1657943725586 -119.35110473632812 -73.0 1.000 1.000 1.000
v 172.1657943725586 -35.351104736328125 27.0 1.000 1.000 1.000
v 528.1657943725586 -31.351104736328125 38.0 1.000 1.000 1.000
v 531.1657943725586 -106.35110473632812 -67.0 1.000 1.000 1.000
v 171.1657943725586 -119.35110473632812 -73.0 1.000 1.000 1.000
v 172.1657943725586 -35.351104736328125 27.0 1.000 1.000 1.000
v 531.1657943725586 -193.35110473632812 13.0 1.000 1.000 1.000
v 537.1657943725586 -129.35110473632812 111.0 1.000 1.000 1.000
v -253.86859130859375 376.30655002593994 70.0 1.000 1.000 1.000
v -198.86859130859375 437.30655002593994 0.0 1.000 1.000 1.000
v -304.86859130859375 437.30655002593994 0.0 1.000 1.000 1.000
v -304.86859130859375 437.30655002593994 0.0 1.000 1.000 1.000
v -198.86859130859375 437.30655002593994 0.0 1.000 1.000 1.000
v -226.86859130859375 413.30655002593994 -45.0 1.000 1.000 1.000
v -288.86859130859375 414.30655002593994 -41.0 1.000 1.000 1.000
v -6.576026916503906 442.42901611328125 73.0 1.000 1.000 1.000
v -51.576026916503906 469.42901611328125 44.0 1.000 1.000 1.000
v 49.423973083496094 468.42901611328125 44.0 1.000 1.000 1.000
v -51.576026916503906 469.42901611328125 44.0 1.000 1.000 1.000
v -46.576026916503906 482.42901611328125 -31.0 1.000 1.000 1.000
v 27.423973083496094 480.42901611328125 -37.0 1.000 1.000 1.000
v 49.423973083496094 468.42901611328125 44.0 1.000 1.000 1.000
v -304.86859130859375 437.30655002593994 0.0 1.000 1.000 1.000
v -304.86859130859375 437.30655002593994 0.0 1.000 1.000 1.000
v -198.86859130859375 437.30655002593994 0.0 1.000 1.000 1.000
v -198.86859130859375 437.30655002593994 0.0 1.000 1.000 1.000
v -51.576026916503906 469.42901611328125 44.0 1.000 1.000 1.000
v 49.423973083496094 468.42901611328125 44.0 1.000 1.000 1.000
v -785.0662807226181 359.1454210281372 55.0 1.000 1.000 1.000
v -744.0662807226181 431.1454210281372 -27.0 1.000 1.000 1.000
v -773.0662807226181 364.1454210281372 -44.0 1.000 1.000 1.000
v -756.0662807226181 456.1454210281372 52.0 1.000 1.000 1.000
v -744.0662807226181 431.1454210281372 -27.0 1.000 1.000 1.000
v -641.0662807226181 409.1454210281372 42.0 1.000 1.000 1.000
v -651.0662807226181 396.1454210281372 -27.0 1.000 1.000 1.000
v -756.0662807226181 456.1454210281372 52.0 1.000 1.000 1.000
v -651.0662807226181 396.1454210281372 -27.0 1.000 1.000 1.000
v -773.0662807226181 364.1454210281372 -44.0 1.000 1.000 1.000
v -744.0662807226181 431.1454210281372 -27.0 1.000 1.000 1.000
v -654.0662807226181 363.1454210281372 -23.0 1.000 1.000 1.000
v -773.0662807226181 364.1454210281372 -44.0 1.000 1.000 1.000
v -645.0662807226181 356.1454210281372 38.0 1.000 1.000 1.000
v -785.0662807226181 359.1454210281372 55.0 1.000 1.000 1.000
v -654.0662807226181 363.1454210281372 -23.0 1.000 1.000 1.000
v -641.0662807226181 409.1454210281372 42.0 1.000 1.000 1.000
v -785.0662807226181 359.1454210281372 55.0 1.000 1.000 1.000
v -645.0662807226181 356.1454210281372 38.0 1.000 1.000 1.000
v -756.0662807226181 456.1454210281372 52.0 1.000 1.000 1.000
v -475.19768941402435 336.83887100219727 45.0 1.000 1.000 1.000
v -481.19768941402435 399.83887100219727 50.0 1.000 1.000 1.000
v -476.19768941402435 333.83887100219727 -10.0 1.000 1.000 1.000
v -476.19768941402435 388.83887100219727 -46.0 1.000 1.000 1.000
v -475.19768941402435 439.83887100219727 5.0 1.000 1.000 1.000
v -645.0662807226181 356.1454210281372 38.0 1.000 1.000 1.000
v -654.0662807226181 363.1454210281372 -23.0 1.000 1.000 1.000
v -641.0662807226181 409.1454210281372 42.0 1.000 1.000 1.000
v -651.0662807226181 396.1454210281372 -27.0 1.000 1.000 1.000
v -403.19768941402435 422.83887100219727 6.0 1.000 1.000 1.000
v -404.19768941402435 388.83887100219727 -32.0 1.000 1.000 1.000
v -403.19768941402435 336.83887100219727 -10.0 1.000 1.000 1.000
v -403.19768941402435 343.83887100219727 51.0 1.000 1.000 1.000
v -403.19768941402435 419.83887100219727 49.0 1.000 1.000 1.000
v -475.19768941402435 439.83887100219727 5.0 1.000 1.000 1.000
v -476.19768941402435 388.83887100219727 -46.0 1.000 1.000 1.000
v -476.19768941402435 333.83887100219727 -10.0 1.000 1.000 1.000
v -475.19768941402435 336.83887100219727 45.0 1.000 1.000 1.000
v -481.19768941402435 399.83887100219727 50.0 1.000 1.000 1.000
v -391.19768941402435 313.83887100219727 85.0 1.000 1.000 1.000
v -397.19768941402435 414.83887100219727 89.0 1.000 1.000 1.000
v -685.1976894140244 358.83887100219727 42.0 1.000 1.000 1.000
v -685.1976894140244 364.83887100219727 -25.0 1.000 1.000 1.000
v -391.19768941402435 311.83887100219727 -28.0 1.000 1.000 1.000
v -685.1976894140244 421.83887100219727 42.0 1.000 1.000 1.000
v -397.19768941402435 427.83887100219727 -49.0 1.000 1.000 1.000
v -685.1976894140244 405.83887100219727 -27.0 1.000 1.000 1.000
v -332.2357143163681 345.22493743896484 62.0 1.000 1.000 1.000
v -267.2357143163681 326.22493743896484 -16.0 1.000 1.000 1.000
v -258.2357143163681 330.22493743896484 66.0 1.000 1.000 1.000
v -181.2357143163681 383.22493743896484 88.0 1.000 1.000 1.000
v -326.2357143163681 393.22493743896484 81.0 1.000 1.000 1.000
v -259.2357143163681 395.22493743896484 -55.0 1.000 1.000 1.000
v -133.2357143163681 410.22493743896484 11.0 1.000 1.000 1.000
v -167.2357143163681 377.22493743896484 -67.0 1.000 1.000 1.000
v -325.2357143163681 322.22493743896484 -10.0 1.000 1.000 1.000
v -267.2357143163681 445.22493743896484 21.0 1.000 1.000 1.000
v -438.86859130859375 220.30655002593994 68.0 1.000 1.000 1.000
v -437.86859130859375 208.30655002593994 -19.0 1.000 1.000 1.000
v -443.86859130859375 354.30655002593994 -50.0 1.000 1.000 1.000
v -442.86859130859375 372.30655002593994 27.0 1.000 1.000 1.000
v -443.86859130859375 334.30655002593994 75.0 1.000 1.000 1.000
v -267.2357143163681 326.22493743896484 -16.0 1.000 1.000 1.000
v -258.2357143163681 330.22493743896484 66.0 1.000 1.000 1.000
v -167.2357143163681 377.22493743896484 -67.0 1.000 1.000 1.000
v -133.2357143163681 410.22493743896484 11.0 1.000 1.000 1.000
v -181.2357143163681 383.22493743896484 88.0 1.000 1.000 1.000
v -267.2357143163681 445.22493743896484 21.0 1.000 1.000 1.000
v -259.2357143163681 395.22493743896484 -55.0 1.000 1.000 1.000
v -325.2357143163681 322.22493743896484 -10.0 1.000 1.000 1.000
v -332.2357143163681 345.22493743896484 62.0 1.000 1.000 1.000
v -326.2357143163681 393.22493743896484 81.0 1.000 1.000 1.000
v -403.19768941402435 422.83887100219727 6.0 1.000 1.000 1.000
v -404.19768941402435 388.83887100219727 -32.0 1.000 1.000 1.000
v -403.19768941402435 336.83887100219727 -10.0 1.000 1.000 1.000
v -403.19768941402435 343.83887100219727 51.0 1.000 1.000 1.000
v -403.19768941402435 419.83887100219727 49.0 1.000 1.000 1.000
v -145.2357143163681 417.22493743896484 68.0 1.000 1.000 1.000
v -89.2357143163681 306.22493743896484 81.0 1.000 1.000 1.000
v -57.2357143163681 302.22493743896484 -45.0 1.000 1.000 1.000
v -141.2357143163681 431.22493743896484 -33.0 1.000 1.000 1.000
v -391.2357143163681 314.22493743896484 85.0 1.000 1.000 1.000
v -397.2357143163681 415.22493743896484 89.0 1.000 1.000 1.000
v -397.2357143163681 428.22493743896484 -49.0 1.000 1.000 1.000
v -391.2357143163681 311.22493743896484 -28.0 1.000 1.000 1.000
v 370.1021728515625 -25.755651995539665 -42.76123380661011 1.000 1.000 1.000
v 339.1021728515625 39.244348004460335 -27.761233806610107 1.000 1.000 1.000
v 381.1021728515625 -29.755651995539665 56.23876619338989 1.000 1.000 1.000
v 349.1021728515625 64.24434800446033 51.23876619338989 1.000 1.000 1.000
v 246.1021728515625 6.244348004460335 -28.761233806610107 1.000 1.000 1.000
v 235.1021728515625 20.244348004460335 40.23876619338989 1.000 1.000 1.000
v 339.1021728515625 39.244348004460335 -27.761233806610107 1.000 1.000 1.000
v 349.1021728515625 64.24434800446033 51.23876619338989 1.000 1.000 1.000
v 339.1021728515625 39.244348004460335 -27.761233806610107 1.000 1.000 1.000
v 370.1021728515625 -25.755651995539665 -42.76123380661011 1.000 1.000 1.000
v 246.1021728515625 6.244348004460335 -28.761233806610107 1.000 1.000 1.000
v 249.1021728515625 -26.755651995539665 -23.761233806610107 1.000 1.000 1.000
v 381.1021728515625 -29.755651995539665 56.23876619338989 1.000 1.000 1.000
v 238.1021728515625 -32.755651995539665 37.23876619338989 1.000 1.000 1.000
v 370.1021728515625 -25.755651995539665 -42.76123380661011 1.000 1.000 1.000
v 249.1021728515625 -26.755651995539665 -23.761233806610107 1.000 1.000 1.000
v 238.1021728515625 -32.755651995539665 37.23876619338989 1.000 1.000 1.000
v 381.1021728515625 -29.755651995539665 56.23876619338989 1.000 1.000 1.000
v 235.1021728515625 20.244348004460335 40.23876619338989 1.000 1.000 1.000
v 349.1021728515625 64.24434800446033 51.23876619338989 1.000 1.000 1.000
v 489.6571079492569 395.8121757507324 52.07913017272949 1.000 1.000 1.000
v 483.6571079492569 319.8121757507324 49.07913017272949 1.000 1.000 1.000
v 484.6571079492569 315.8121757507324 -5.920869827270508 1.000 1.000 1.000
v 486.6571079492569 383.8121757507324 -42.92086982727051 1.000 1.000 1.000
v 484.6571079492569 435.8121757507324 7.079130172729492 1.000 1.000 1.000
v 238.1021728515625 -32.755651995539665 37.23876619338989 1.000 1.000 1.000
v 249.1021728515625 -26.755651995539665 -23.761233806610107 1.000 1.000 1.000
v 235.1021728515625 20.244348004460335 40.23876619338989 1.000 1.000 1.000
v 246.1021728515625 6.244348004460335 -28.761233806610107 1.000 1.000 1.000
v 411.6571079492569 417.8121757507324 7.079130172729492 1.000 1.000 1.000
v 413.6571079492569 383.8121757507324 -30.920869827270508 1.000 1.000 1.000
v 412.6571079492569 331.8121757507324 -6.920869827270508 1.000 1.000 1.000
v 410.6571079492569 339.8121757507324 53.07913017272949 1.000 1.000 1.000
v 411.6571079492569 415.8121757507324 50.07913017272949 1.000 1.000 1.000
v 486.6571079492569 383.8121757507324 -42.92086982727051 1.000 1.000 1.000
v 484.6571079492569 435.8121757507324 7.079130172729492 1.000 1.000 1.000
v 484.6571079492569 315.8121757507324 -5.920869827270508 1.000 1.000 1.000
v 483.6571079492569 319.8121757507324 49.07913017272949 1.000 1.000 1.000
v 489.6571079492569 395.8121757507324 52.07913017272949 1.000 1.000 1.000
v 692.6571079492569 349.8121757507324 41.07913017272949 1.000 1.000 1.000
v 402.6571079492569 398.8121757507324 91.07913017272949 1.000 1.000 1.000
v 396.6571079492569 297.8121757507324 89.07913017272949 1.000 1.000 1.000
v 398.6571079492569 292.8121757507324 -24.920869827270508 1.000 1.000 1.000
v 693.6571079492569 354.8121757507324 -17.920869827270508 1.000 1.000 1.000
v 404.6571079492569 408.8121757507324 -46.92086982727051 1.000 1.000 1.000
v 691.6571079492569 411.8121757507324 45.07913017272949 1.000 1.000 1.000
v 693.6571079492569 394.8121757507324 -20.920869827270508 1.000 1.000 1.000
v 263.85553324222565 326.87169647216797 69.0 1.000 1.000 1.000
v 274.85553324222565 321.87169647216797 -12.0 1.000 1.000 1.000
v 339.85553324222565 342.87169647216797 61.0 1.000 1.000 1.000
v 333.85553324222565 390.87169647216797 80.0 1.000 1.000 1.000
v 186.85553324222565 380.87169647216797 89.0 1.000 1.000 1.000
v 175.85553324222565 371.87169647216797 -66.0 1.000 1.000 1.000
v 140.85553324222565 405.87169647216797 10.0 1.000 1.000 1.000
v 268.85553324222565 389.87169647216797 -57.0 1.000 1.000 1.000
v 333.85553324222565 315.87169647216797 -10.0 1.000 1.000 1.000
v 274.85553324222565 441.87169647216797 17.0 1.000 1.000 1.000
v -51.86859130859375 220.30655002593994 67.0 1.000 1.000 1.000
v -53.86859130859375 210.30655002593994 -17.0 1.000 1.000 1.000
v -49.86859130859375 353.30655002593994 -49.0 1.000 1.000 1.000
v -49.86859130859375 375.30655002593994 26.0 1.000 1.000 1.000
v -50.86859130859375 335.30655002593994 75.0 1.000 1.000 1.000
v 263.85553324222565 326.87169647216797 69.0 1.000 1.000 1.000
v 274.85553324222565 321.87169647216797 -12.0 1.000 1.000 1.000
v 175.85553324222565 371.87169647216797 -66.0 1.000 1.000 1.000
v 140.85553324222565 405.87169647216797 10.0 1.000 1.000 1.000
v 186.85553324222565 380.87169647216797 89.0 1.000 1.000 1.000
v 274.85553324222565 441.87169647216797 17.0 1.000 1.000 1.000
v 268.85553324222565 389.87169647216797 -57.0 1.000 1.000 1.000
v 333.85553324222565 315.87169647216797 -10.0 1.000 1.000 1.000
v 339.85553324222565 342.87169647216797 61.0 1.000 1.000 1.000
v 333.85553324222565 390.87169647216797 80.0 1.000 1.000 1.000
v 413.6571079492569 383.8121757507324 -30.920869827270508 1.000 1.000 1.000
v 411.6571079492569 417.8121757507324 7.079130172729492 1.000 1.000 1.000
v 412.6571079492569 331.8121757507324 -6.920869827270508 1.000 1.000 1.000
v 410.6571079492569 339.8121757507324 53.07913017272949 1.000 1.000 1.000
v 411.6571079492569 415.8121757507324 50.07913017272949 1.000 1.000 1.000
v 94.85553324222565 289.87169647216797 80.0 1.000 1.000 1.000
v 64.85553324222565 283.87169647216797 -47.0 1.000 1.000 1.000
v 396.85553324222565 297.87169647216797 89.0 1.000 1.000 1.000
v 402.85553324222565 398.87169647216797 91.0 1.000 1.000 1.000
v 151.85553324222565 400.87169647216797 66.0 1.000 1.000 1.000
v 148.85553324222565 412.87169647216797 -35.0 1.000 1.000 1.000
v 404.85553324222565 408.87169647216797 -47.0 1.000 1.000 1.000
v 398.85553324222565 292.87169647216797 -25.0 1.000 1.000 1.000
v -49.86859130859375 375.30655002593994 26.0 1.000 1.000 1.000
v -198.86859130859375 437.30655002593994 0.0 1.000 1.000 1.000
v -253.86859130859375 376.30655002593994 70.0 1.000 1.000 1.000
v -443.86859130859375 334.30655002593994 75.0 1.000 1.000 1.000
v -251.86859130859375 236.30655002593994 189.0 1.000 1.000 1.000
v -50.86859130859375 335.30655002593994 75.0 1.000 1.000 1.000
v -91.86859130859375 223.30655002593994 161.0 1.000 1.000 1.000
v -399.86859130859375 223.30655002593994 161.0 1.000 1.000 1.000
v -392.86859130859375 86.30655002593994 20.0 1.000 1.000 1.000
v -321.86859130859375 95.30655002593994 163.0 1.000 1.000 1.000
v -304.86859130859375 437.30655002593994 0.0 1.000 1.000 1.000
v -442.86859130859375 372.30655002593994 27.0 1.000 1.000 1.000
v -178.86859130859375 95.30655002593994 163.0 1.000 1.000 1.000
v -443.86859130859375 354.30655002593994 -50.0 1.000 1.000 1.000
v -49.86859130859375 353.30655002593994 -49.0 1.000 1.000 1.000
v -437.86859130859375 208.30655002593994 -19.0 1.000 1.000 1.000
v -392.86859130859375 86.30655002593994 20.0 1.000 1.000 1.000
v -438.86859130859375 220.30655002593994 68.0 1.000 1.000 1.000
v -51.86859130859375 220.30655002593994 67.0 1.000 1.000 1.000
v -50.86859130859375 335.30655002593994 75.0 1.000 1.000 1.000
v -91.86859130859375 223.30655002593994 161.0 1.000 1.000 1.000
v -442.86859130859375 372.30655002593994 27.0 1.000 1.000 1.000
v -443.86859130859375 334.30655002593994 75.0 1.000 1.000 1.000
v -253.86859130859375 376.30655002593994 70.0 1.000 1.000 1.000
v -251.86859130859375 236.30655002593994 189.0 1.000 1.000 1.000
v -178.86859130859375 95.30655002593994 163.0 1.000 1.000 1.000
v -103.86859130859375 86.30655002593994 21.0 1.000 1.000 1.000
v -399.86859130859375 223.30655002593994 161.0 1.000 1.000 1.000
v -321.86859130859375 95.30655002593994 163.0 1.000 1.000 1.000
v -53.86859130859375 210.30655002593994 -17.0 1.000 1.000 1.000
v -250.86859130859375 185.30655002593994 -84.0 1.000 1.000 1.000
v -148.86859130859375 91.30655002593994 -68.0 1.000 1.000 1.000
v -358.86859130859375 90.30655002593994 -66.0 1.000 1.000 1.000
v -320.86859130859375 336.30655002593994 -96.0 1.000 1.000 1.000
v -354.86859130859375 197.30655002593994 -74.0 1.000 1.000 1.000
v -160.86859130859375 196.30655002593994 -80.0 1.000 1.000 1.000
v -53.86859130859375 210.30655002593994 -17.0 1.000 1.000 1.000
v -49.86859130859375 353.30655002593994 -49.0 1.000 1.000 1.000
v -169.86859130859375 336.30655002593994 -96.0 1.000 1.000 1.000
v -288.86859130859375 414.30655002593994 -41.0 1.000 1.000 1.000
v -226.86859130859375 413.30655002593994 -45.0 1.000 1.000 1.000
v -198.86859130859375 437.30655002593994 0.0 1.000 1.000 1.000
v -304.86859130859375 437.30655002593994 0.0 1.000 1.000 1.000
v -443.86859130859375 354.30655002593994 -50.0 1.000 1.000 1.000
v -392.86859130859375 86.30655002593994 20.0 1.000 1.000 1.000
v -437.86859130859375 208.30655002593994 -19.0 1.000 1.000 1.000
v -148.86859130859375 91.30655002593994 -68.0 1.000 1.000 1.000
v -53.86859130859375 210.30655002593994 -17.0 1.000 1.000 1.000
v -103.86859130859375 86.30655002593994 21.0 1.000 1.000 1.000
v -198.86859130859375 437.30655002593994 0.0 1.000 1.000 1.000
v -49.86859130859375 353.30655002593994 -49.0 1.000 1.000 1.000
v -169.86859130859375 336.30655002593994 -96.0 1.000 1.000 1.000
v -160.86859130859375 196.30655002593994 -80.0 1.000 1.000 1.000
v -250.86859130859375 185.30655002593994 -84.0 1.000 1.000 1.000
v -354.86859130859375 197.30655002593994 -74.0 1.000 1.000 1.000
v -437.86859130859375 208.30655002593994 -19.0 1.000 1.000 1.000
v -443.86859130859375 354.30655002593994 -50.0 1.000 1.000 1.000
v -358.86859130859375 90.30655002593994 -66.0 1.000 1.000 1.000
v -320.86859130859375 336.30655002593994 -96.0 1.000 1.000 1.000
v -63.86859130859375 387.30655002593994 148.0 1.000 1.000 1.000
v -461.86859130859375 424.30655002593994 -72.0 1.000 1.000 1.000
v -441.86859130859375 384.30655002593994 147.0 1.000 1.000 1.000
v -63.86859130859375 387.30655002593994 148.0 1.000 1.000 1.000
v -373.86859130859375 37.30655002593994 141.0 1.000 1.000 1.000
v -130.86859130859375 38.30655002593994 141.0 1.000 1.000 1.000
v -42.86859130859375 427.30655002593994 -70.0 1.000 1.000 1.000
v -382.86859130859375 32.30655002593994 -35.0 1.000 1.000 1.000
v -373.86859130859375 37.30655002593994 141.0 1.000 1.000 1.000
v -128.86859130859375 33.30655002593994 -37.0 1.000 1.000 1.000
v -130.86859130859375 38.30655002593994 141.0 1.000 1.000 1.000
v -441.86859130859375 384.30655002593994 147.0 1.000 1.000 1.000
v -63.86859130859375 387.30655002593994 148.0 1.000 1.000 1.000
v -128.86859130859375 33.30655002593994 -37.0 1.000 1.000 1.000
v -373.86859130859375 37.30655002593994 141.0 1.000 1.000 1.000
v -130.86859130859375 38.30655002593994 141.0 1.000 1.000 1.000
v -42.86859130859375 427.30655002593994 -70.0 1.000 1.000 1.000
v -128.86859130859375 33.30655002593994 -37.0 1.000 1.000 1.000
v -382.86859130859375 32.30655002593994 -35.0 1.000 1.000 1.000
v -461.86859130859375 424.30655002593994 -72.0 1.000 1.000 1.000
v -91.0 -48.0 -70.0 1.000 1.000 1.000
v -87.0 73.0 -59.0 1.000 1.000 1.000
v -91.0 -48.0 -70.0 1.000 1.000 1.000
v -70.0 60.0 140.0 1.000 1.000 1.000
v -63.0 -65.0 133.0 1.000 1.000 1.000
v -2.0 -113.0 143.0 1.000 1.000 1.000
v -132.0 19.0 20.0 1.000 1.000 1.000
v -124.0 67.0 20.0 1.000 1.000 1.000
v 92.0 -46.0 -73.0 1.000 1.000 1.000
v 96.0 75.0 -62.0 1.000 1.000 1.000
v 92.0 -46.0 -73.0 1.000 1.000 1.000
v 143.0 19.0 25.0 1.000 1.000 1.000
v 133.0 69.0 21.0 1.000 1.000 1.000
v 76.0 63.0 143.0 1.000 1.000 1.000
v 67.0 -61.0 136.0 1.000 1.000 1.000
v -132.0 19.0 20.0 1.000 1.000 1.000
v -124.0 67.0 20.0 1.000 1.000 1.000
v -91.0 -48.0 -70.0 1.000 1.000 1.000
v -87.0 73.0 -59.0 1.000 1.000 1.000
v -1.0 -94.0 -84.0 1.000 1.000 1.000
v 96.0 75.0 -62.0 1.000 1.000 1.000
v 92.0 -46.0 -73.0 1.000 1.000 1.000
v 143.0 19.0 25.0 1.000 1.000 1.000
v 133.0 69.0 21.0 1.000 1.000 1.000
v 76.0 63.0 143.0 1.000 1.000 1.000
v -70.0 60.0 140.0 1.000 1.000 1.000
v -124.0 67.0 20.0 1.000 1.000 1.000
v 133.0 69.0 21.0 1.000 1.000 1.000
v -124.0 67.0 20.0 1.000 1.000 1.000
v -87.0 73.0 -59.0 1.000 1.000 1.000
v 96.0 75.0 -62.0 1.000 1.000 1.000
v 133.0 69.0 21.0 1.000 1.000 1.000
v -178.86859130859375 95.30655002593994 163.0 1.000 1.000 1.000
v -321.86859130859375 95.30655002593994 163.0 1.000 1.000 1.000
v -103.86859130859375 86.30655002593994 21.0 1.000 1.000 1.000
v -392.86859130859375 86.30655002593994 20.0 1.000 1.000 1.000
v -392.86859130859375 86.30655002593994 20.0 1.000 1.000 1.000
v -358.86859130859375 90.30655002593994 -66.0 1.000 1.000 1.000
v -148.86859130859375 91.30655002593994 -68.0 1.000 1.000 1.000
v -103.86859130859375 86.30655002593994 21.0 1.000 1.000 1.000
v -119.0 77.0 141.0 1.000 1.000 1.000
v -155.0 -174.0 132.0 1.000 1.000 1.000
v 156.0 -173.0 143.0 1.000 1.000 1.000
v -129.0 72.0 -35.0 1.000 1.000 1.000
v -191.0 -174.0 -80.0 1.000 1.000 1.000
v 188.0 -173.0 -80.0 1.000 1.000 1.000
v 125.0 73.0 -37.0 1.000 1.000 1.000
v 123.0 78.0 141.0 1.000 1.000 1.000
v 123.0 78.0 141.0 1.000 1.000 1.000
v 123.0 78.0 141.0 1.000 1.000 1.000
v 125.0 73.0 -37.0 1.000 1.000 1.000
v -119.0 77.0 141.0 1.000 1.000 1.000
v -191.0 -174.0 -80.0 1.000 1.000 1.000
v -129.0 72.0 -35.0 1.000 1.000 1.000
v 125.0 73.0 -37.0 1.000 1.000 1.000
v 188.0 -173.0 -80.0 1.000 1.000 1.000
vt 0.0195 1.0205
vt 0.0443 1.0195
vt 1.0007 1.0000
vt 1.0365 0.9990
vt 0.9421 0.6494
vt 0.2695 0.1465
vt 0.0853 0.1367
vt 1.0365 0.6670
vt 0.0378 0.1494
vt 0.3561 0.1357
vt 0.0811 0.6569
vt 0.1113 0.9701
vt 0.6826 0.9727
vt 0.1748 0.7272
vt 0.5439 0.7396
vt 0.8057 0.9850
vt 0.2061 0.9850
vt 0.8516 0.6745
vt 0.5605 0.6751
vt 0.0771 0.6719
vt 0.4902 0.6719
vt 0.1094 0.9714
vt 0.8359 0.9720
vt 0.3730 0.2943
vt 0.4512 0.3190
vt 0.3467 0.1764
vt 0.3779 0.0898
vt 0.2539 0.2422
vt 0.1611 0.1875
vt 0.2871 0.3405
vt 0.1729 0.3997
vt 0.8340 0.5391
vt 0.0664 0.5462
vt 0.4766 0.5443
vt 0.0859 0.5306
vt 0.1318 0.6237
vt 0.5078 0.6361
vt 0.5352 0.5352
vt 0.8350 0.9701
vt 0.6240 0.5534
vt 0.2100 0.9674
vt 0.1475 0.5436
vt 0.5078 0.5475
vt 0.3779 0.9681
vt 0.9277 0.5495
vt 0.9590 0.9707
vt 0.1797 0.7578
vt 0.2158 0.7533
vt 0.3799 0.7318
vt 0.4355 0.7246
vt 0.5537 0.7116
vt 0.5713 0.7077
vt 0.5664 0.7070
vt 0.4521 0.7233
vt 0.2686 0.7454
vt 0.2490 0.7493
vt 0.1367 0.7630
vt 0.5312 0.4531
vt 0.8154 0.2090
vt 0.6094 0.2070
vt 0.4629 0.2064
vt 0.8320 0.4948
vt 0.4844 0.3809
vt 0.0664 0.4121
vt 0.0576 0.2057
vt 0.1982 0.2057
vt 0.4121 0.5254
vt 0.1084 0.5404
vt 0.0215 0.3568
vt 0.1016 0.4290
vt 0.4473 0.3561
vt 0.4756 0.8809
vt 0.3301 0.8112
vt 0.4736 0.9668
vt 0.1865 0.9681
vt 0.1650 0.6908
vt 0.0586 0.9694
vt 0.4785 0.8529
vt 0.4775 0.9681
vt 0.2510 0.7839
vt 0.0420 0.9727
vt 0.1426 0.6823
vt 0.1221 0.9720
vt 0.3467 0.9707
vt 0.4814 0.8503
vt 0.4863 0.9701
vt 0.8682 0.2298
vt 0.6709 0.2305
vt 0.5303 0.2266
vt 0.1211 0.2253
vt 0.7917 0.9775
vt 0.0378 0.9893
vt 0.0182 0.9893
vt 0.8203 0.9775
vt 0.2643 0.1758
vt 0.7656 0.6504
vt 0.8392 0.6670
vt 0.1198 0.1650
vt 0.0820 0.1768
vt 0.3327 0.1660
vt 0.8447 0.9538
vt 0.3232 0.9603
vt 0.2227 0.6751
vt 0.8379 0.9368
vt 0.5635 0.6530
vt 0.2275 0.6452
vt 0.2939 0.9512
vt 0.6592 0.6875
vt 0.9346 0.6823
vt 0.3262 0.9596
vt 0.6143 0.6849
vt 0.2256 0.6901
vt 0.9590 0.9518
vt 0.6445 0.2402
vt 0.7627 0.2324
vt 0.6650 0.1270
vt 0.7510 0.0221
vt 0.5684 0.1139
vt 0.5225 0.0488
vt 0.5557 0.2435
vt 0.4883 0.3066
vt 0.6016 0.5547
vt 0.1865 0.5658
vt 0.5098 0.5273
vt 0.5723 0.5671
vt 0.1924 0.5729
vt 0.8799 0.5632
vt 0.1777 0.5286
vt 0.3252 0.9616
vt 0.5332 0.5911
vt 0.8652 0.9596
vt 0.4863 0.9609
vt 0.4199 0.5872
vt 0.0762 0.5866
vt 0.8213 0.5859
vt 0.9863 0.9590
vt 0.9014 0.6667
vt 0.9639 0.6589
vt 1.0078 0.6536
vt 0.9648 0.6562
vt 0.7051 0.6921
vt 0.8975 0.6654
vt 0.5879 0.7064
vt 0.7695 0.6829
vt 0.7500 0.6849
vt 0.5801 0.2591
vt 0.7920 0.2565
vt 0.5664 0.4824
vt 0.8604 0.5176
vt 0.4648 0.2598
vt 0.1631 0.4512
vt 0.5078 0.4186
vt 0.2275 0.2624
vt 0.1152 0.2637
vt 0.0107 0.2083
vt 0.1113 0.4264
vt 0.4072 0.3997
vt 0.4248 0.1966
vt 0.1855 0.4694
vt 0.8262 0.6901
vt 0.6416 0.8053
vt 0.7930 0.9661
vt 0.9004 0.9681
vt 0.7021 0.7839
vt 0.7168 0.7780
vt 0.8896 0.9668
vt 0.6689 0.9694
vt 0.8438 0.6803
vt 0.9346 0.9694
vt 0.4531 0.3053
vt 0.6396 0.3027
vt 0.3174 0.3027
vt -0.0732 0.3047
vt 0.4316 0.9844
vt 0.4424 0.5684
vt 0.1885 0.4072
vt 0.7910 0.6055
vt 0.7822 0.4033
vt 0.1680 0.6152
vt 0.7988 0.6221
vt 0.7920 0.3721
vt 0.7754 0.2832
vt 0.5244 0.6133
vt 0.5840 0.2852
vt 0.5303 0.3701
vt 0.5996 0.7871
vt 0.7607 0.7852
vt 0.9102 0.5518
vt 0.1572 0.1504
vt -0.0010 0.6191
vt 0.8848 -0.0977
vt 0.1191 0.3760
vt 0.8125 0.8896
vt 0.2285 0.9395
vt 0.7559 0.1748
vt 0.5303 1.0469
vt 0.8145 0.0391
vt 0.1260 0.5537
vt 0.8809 0.8701
vt 1.0186 0.1211
vt 0.2070 1.1494
vt 0.0371 0.0752
vt 0.8145 1.0488
vt 0.0020 0.0781
vt 0.9619 0.9482
vt 0.4043 0.0244
vt 0.1318 0.9014
vt 0.5397 0.5889
vt 0.3704 0.5781
vt 0.3145 0.8594
vt 0.2878 0.8555
vt 0.5462 0.5908
vt 0.4030 0.5752
vt 0.1380 0.8408
vt 0.2715 0.5576
vt 0.1693 0.8457
vt 0.3874 0.4561
vt 0.4740 0.4688
vt 0.6094 0.4834
vt 0.5918 0.4805
vt 0.3958 0.4570
vt 0.5156 0.0918
vt 0.5618 0.6875
vt 0.9427 0.2646
vt 0.9453 0.3037
vt 0.5143 0.0752
vt 0.9668 0.6396
vt 0.5664 0.7617
vt 0.9603 0.5420
vt 0.6562 0.3760
vt 0.7708 0.2871
vt 0.7695 0.2715
vt 0.7051 0.1426
vt 0.5391 0.3525
vt 0.5996 0.2539
vt 0.6836 0.0645
vt 0.7350 0.1250
vt 0.7233 0.3730
vt 0.4616 0.2500
vt 0.7988 0.2725
vt 0.7910 0.2910
vt 0.9167 0.0742
vt 0.9382 0.0479
vt 0.8965 0.1045
vt 0.2116 0.7764
vt 0.0911 0.1387
vt 0.0456 0.1240
vt 0.2109 0.8594
vt 0.9180 -0.3340
vt 0.7715 -1.1777
vt 0.0508 -0.6377
vt 0.0811 -1.7676
vt 0.2500 0.7588
vt 0.7383 0.7266
vt 0.1719 0.3320
vt 0.7080 0.1875
vt 0.0117 0.4551
vt 0.8096 0.1172
vt 0.3506 0.9268
vt 0.7588 0.8301
vt 0.0283 0.0693
vt 0.2900 1.0762
vt 0.9619 0.1650
vt 0.8564 1.0176
vt 0.7051 0.0439
vt 0.9648 0.9346
vt 0.2803 0.0908
vt 0.1553 0.8662
vt 0.0755 0.7715
vt 0.4570 0.5811
vt 0.1816 0.5156
vt 0.1706 0.5146
vt 0.1159 0.7783
vt 0.4225 0.5674
vt 0.6139 0.6045
vt 0.3255 0.8242
vt 0.2780 0.8154
vt 0.6322 0.5010
vt 0.5052 0.4775
vt 0.3125 0.4365
vt 0.3392 0.4414
vt 0.6204 0.4990
vt 0.9993 0.3369
vt 0.5586 0.7314
vt 0.5371 0.2012
vt 0.5365 0.1865
vt 1.0007 0.3691
vt 0.5605 0.7979
vt 1.0072 0.6611
vt 1.0052 0.5811
vt 0.4583 0.2490
vt 0.4323 0.2578
vt 0.4303 0.3555
vt 0.6146 0.3838
vt 0.7461 0.1943
vt 0.7376 0.1729
vt 0.8984 0.1553
vt 0.6986 0.3018
vt 0.3451 0.3271
vt 0.8757 0.3496
vt 0.4329 0.2412
vt 0.4115 0.2520
vt 0.5911 0.0771
vt 0.6172 0.0508
vt 0.5677 0.0996
vt 0.0684 0.3096
vt 0.0189 0.3047
vt 0.1699 0.8662
vt 0.1647 0.9414
vt 0.9834 0.1185
vt 0.6250 0.0306
vt 0.4922 0.1185
vt 0.0322 0.1810
vt 0.4932 0.3203
vt 0.9805 0.1764
vt 0.8779 0.3379
vt 0.1377 0.3398
vt 0.1514 0.5365
vt 0.3232 0.5241
vt 0.3701 0.0312
vt 0.0371 0.1250
vt 0.6670 0.5221
vt 0.0332 0.1517
vt 0.9824 0.1497
vt 0.0459 0.3626
vt 0.0430 0.3444
vt 0.9756 0.3411
vt 0.8467 0.5352
vt 0.9697 0.3561
vt 0.4795 0.3730
vt 0.7441 0.5124
vt 0.2080 0.5169
vt 0.2969 0.1478
vt 0.2129 0.3555
vt 0.7109 0.3548
vt 0.9824 0.3333
vt 0.9873 0.1178
vt 0.6826 0.1445
vt 0.3730 0.0293
vt 0.5332 0.0299
vt 0.6025 -0.0052
vt 0.3320 -0.0039
vt -0.0205 0.1217
vt 0.1211 0.5221
vt 0.0020 0.3411
vt 0.8584 0.5195
vt 0.9414 0.1113
vt 0.0166 0.0553
vt 0.0625 0.1133
vt 0.2041 0.6003
vt 0.7676 0.6022
vt 0.9912 0.0560
vt 0.1826 0.6074
vt 0.7734 0.6081
vt 1.0645 0.0352
vt 0.8076 0.6146
vt 0.0459 0.6257
vt -0.1914 0.0553
vt 0.3154 0.6315
vt 0.1865 0.6230
vt 0.8037 0.6165
vt 0.6670 0.6263
vt 0.1621 0.6113
vt 0.2539 0.6009
vt 0.7236 0.5970
vt 0.8164 0.6042
vt 0.1084 0.9525
vt 0.8320 0.9551
vt 0.0244 0.9525
vt 0.9072 0.9551
vt -0.1426 0.9883
vt 0.9951 0.9727
vn 0.577 0.577 0.577
vn 0.577 0.577 0.577
vn -0.577 -0.577 -0.577
vn -0.577 -0.577 -0.577
vn -0.577 -0.577 -0.577
vn 0.577 0.577 0.577
vn 0.577 0.577 0.577
vn -0.577 -0.577 -0.577
vn 0.577 0.577 0.577
vn 0.577 0.577 0.577
vn 0.577 0.577 0.577
vn 0.577 0.577 0.577
vn 0.577 0.577 0.577
vn 0.577 0.577 0.577
vn 0.577 0.577 0.577
vn 0.577 0.577 0.577
vn 0.577 0.577 0.577
vn 0.577 0.577 0.577
vn 0.577 0.577 0.577
vn 0.577 0.577 0.577
vn -0.577 -0.577 -0.577
vn 0.577 0.577 0.577
vn 0.577 0.577 0.577
vn 0.577 0.577 0.577
vn 0.577 0.577 0.577
vn 0.577 0.577 0.577
vn 0.577 0.577 0.577
vn 0.577 0.577 0.577
vn 0.577 0.577 0.577
vn 0.577 0.577 0.577
vn 0.577 0.577 0.577
vn 0.577 0.577 0.577
vn 0.577 0.577 0.577
vn -0.577 -0.577 -0.577
vn 0.577 0.577 0.577
vn 0.577 0.577 0.577
vn 0.577 0.577 0.577
vn -0.577 -0.577 -0.577
vn 0.577 0.577 0.577
vn 0.577 0.577 0.577
vn 0.577 0.577 0.577
vn 0.577 0.577 0.577
vn 0.577 0.577 0.577
vn -0.577 -0.577 -0.577
vn 0.577 0.577 0.577
vn 0.577 0.577 0.577
vn -0.577 -0.577 -0.577
vn 0.577 0.577 0.577
vn 0.577 0.577 0.577
vn -0.577 -0.577 -0.577
vn 0.577 0.577 0.577
vn -0.577 -0.577 -0.577
vn 0.577 0.577 0.577
vn -0.577 -0.577 -0.577
vn -0.577 -0.577 -0.577
vn 0.577 0.577 0.577
vn 0.577 0.577 0.577
vn 0.577 0.577 0.577
vn 0.577 0.577 0.577
vn 0.577 0.577 0.577
vn 0.577 0.577 0.577
vn -0.577 -0.577 -0.577
vn 0.577 0.577 0.577
vn 0.577 0.577 0.577
vn 0.577 0.577 0.577
vn 0.577 0.577 0.577
vn -0.577 -0.577 -0.577
vn 0.577 0.577 0.577
vn 0.577 0.577 0.577
vn 0.577 0.577 0.577
vn 0.577 0.577 0.577
vn 0.577 0.577 0.577
vn 0.577 0.577 0.577
vn 0.577 0.577 0.577
vn 0.577 0.577 0.577
vn 0.577 0.577 0.577
vn -0.577 -0.577 -0.577
vn 0.577 0.577 0.577
vn 0.577 0.577 0.577
vn 0.577 0.577 0.577
vn 0.577 0.577 0.577
vn 0.577 0.577 0.577
vn 0.577 0.577 0.577
vn 0.577 0.577 0.577
vn 0.577 0.577 0.577
vn -0.577 -0.577 -0.577
vn -0.577 -0.577 -0.577
vn 0.577 0.577 0.577
vn 0.577 0.577 0.577
vn 0.577 0.577 0.577
vn 0.577 0.577 0.577
vn 0.577 0.577 0.577
vn -0.577 -0.577 -0.577
vn 0.577 0.577 0.577
vn 0.577 0.577 0.577
vn 0.577 0.577 0.577
vn 0.577 0.577 0.577
vn 0.577 0.577 0.577
vn 0.577 0.577 0.577
vn 0.577 0.577 0.577
vn 0.577 0.577 0.577
vn 0.577 0.577 0.577
vn 0.577 0.577 0.577
vn 0.577 0.577 0.577
vn 0.577 0.577 0.577
vn 0.577 0.577 0.577
vn -0.577 -0.577 -0.577
vn -0.577 -0.577 -0.577
vn 0.577 0.577 0.577
vn -0.577 -0.577 -0.577
vn 0.577 0.577 0.577
vn 0.577 0.577 0.577
vn 0.577 0.577 0.577
vn 0.577 0.577 0.577
vn -0.577 -0.577 -0.577
vn 0.577 0.577 0.577
vn 0.577 0.577 0.577
vn -0.577 -0.577 -0.577
vn -0.577 -0.577 -0.577
vn -0.577 -0.577 -0.577
vn 0.577 0.577 0.577
vn 0.577 0.577 0.577
vn -0.577 -0.577 -0.577
vn -0.577 -0.577 -0.577
vn -0.577 -0.577 -0.577
vn -0.577 -0.577 -0.577
vn -0.577 -0.577 -0.577
vn 0.577 0.577 0.577
vn 0.577 0.577 0.577
vn -0.577 -0.577 -0.577
vn 0.577 0.577 0.577
vn -0.577 -0.577 -0.577
vn -0.577 -0.577 -0.577
vn 0.577 0.577 0.577
vn 0.577 0.577 0.577
vn 0.577 0.577 0.577
vn 0.577 0.577 0.577
vn 0.577 0.577 0.577
vn 0.577 0.577 0.577
vn 0.577 0.577 0.577
vn 0.577 0.577 0.577
vn 0.577 0.577 0.577
vn 0.577 0.577 0.577
vn 0.577 0.577 0.577
vn 0.577 0.577 0.577
vn 0.577 0.577 0.577
vn -0.577 -0.577 -0.577
vn 0.577 0.577 0.577
vn 0.577 0.577 0.577
vn 0.577 0.577 0.577
vn 0.577 0.577 0.577
vn 0.577 0.577 0.577
vn 0.577 0.577 0.577
vn 0.577 0.577 0.577
vn 0.577 0.577 0.577
vn 0.577 0.577 0.577
vn 0.577 0.577 0.577
vn -0.577 -0.577 -0.577
vn 0.577 0.577 0.577
vn 0.577 0.577 0.577
vn -0.577 -0.577 -0.577
vn 0.577 0.577 0.577
vn 0.577 0.577 0.577
vn 0.577 0.577 0.577
vn 0.577 0.577 0.577
vn 0.577 0.577 0.577
vn 0.577 0.577 0.577
vn 0.577 0.577 0.577
vn 0.577 0.577 0.577
vn -0.577 -0.577 -0.577
vn 0.577 0.577 0.577
vn 0.577 0.577 0.577
vn -0.577 -0.577 -0.577
vn 0.577 0.577 0.577
vn 0.577 0.577 0.577
vn -0.577 -0.577 -0.577
vn 0.577 0.577 0.577
vn -0.577 -0.577 -0.577
vn 0.577 0.577 0.577
vn -0.577 -0.577 -0.577
vn -0.577 -0.577 -0.577
vn 0.577 0.577 0.577
vn 0.577 0.577 0.577
vn 0.577 0.577 0.577
vn 0.577 0.577 0.577
vn -0.577 -0.577 -0.577
vn -0.577 -0.577 -0.577
vn 0.577 0.577 0.577
vn 0.577 0.577 0.577
vn 0.577 0.577 0.577
vn 0.577 0.577 0.577
vn 0.577 0.577 0.577
vn 0.577 0.577 0.577
vn 0.577 0.577 0.577
vn -0.577 -0.577 -0.577
vn 0.577 0.577 0.577
vn 0.577 0.577 0.577
vn 0.577 0.577 0.577
vn 0.577 0.577 0.577
vn 0.577 0.577 0.577
vn 0.577 0.577 0.577
vn 0.577 0.577 0.577
vn 0.577 0.577 0.577
vn -0.577 -0.577 -0.577
vn 0.577 0.577 0.577
vn 0.577 0.577 0.577
vn 0.577 0.577 0.577
vn 0.577 0.577 0.577
vn 0.577 0.577 0.577
vn 0.577 0.577 0.577
vn 0.577 0.577 0.577
vn 0.577 0.577 0.577
vn -0.577 -0.577 -0.577
vn -0.577 -0.577 -0.577
vn 0.577 0.577 0.577
vn 0.577 0.577 0.577
vn 0.577 0.577 0.577
vn 0.577 0.577 0.577
vn 0.577 0.577 0.577
vn 0.577 0.577 0.577
vn 0.577 0.577 0.577
vn -0.577 -0.577 -0.577
vn 0.577 0.577 0.577
vn 0.577 0.577 0.577
vn 0.577 0.577 0.577
vn 0.577 0.577 0.577
vn 0.577 0.577 0.577
vn 0.577 0.577 0.577
vn 0.577 0.577 0.577
vn 0.577 0.577 0.577
vn 0.577 0.577 0.577
vn 0.577 0.577 0.577
vn -0.577 -0.577 -0.577
vn 0.577 0.577 0.577
vn 0.577 0.577 0.577
vn 0.577 0.577 0.577
vn -0.577 -0.577 -0.577
vn 0.577 0.577 0.577
vn -0.577 -0.577 -0.577
vn 0.577 0.577 0.577
vn 0.577 0.577 0.577
vn 0.577 0.577 0.577
vn 0.577 0.577 0.577
vn -0.577 -0.577 -0.577
vn -0.577 -0.577 -0.577
vn -0.577 -0.577 -0.577
vn 0.577 0.577 0.577
vn 0.577 0.577 0.577
vn -0.577 -0.577 -0.577
vn -0.577 -0.577 -0.577
vn -0.577 -0.577 -0.577
vn -0.577 -0.577 -0.577
vn -0.577 -0.577 -0.577
vn -0.577 -0.577 -0.577
vn 0.577 0.577 0.577
vn 0.577 0.577 0.577
vn 0.577 0.577 0.577
vn 0.577 0.577 0.577
vn 0.577 0.577 0.577
vn 0.577 0.577 0.577
vn -0.577 -0.577 -0.577
vn -0.577 -0.577 -0.577
vn -0.577 -0.577 -0.577
vn -0.577 -0.577 -0.577
vn -0.577 -0.577 -0.577
vn -0.577 -0.577 -0.577
vn -0.577 -0.577 -0.577
vn 0.577 0.577 0.577
vn 0.577 0.577 0.577
vn 0.577 0.577 0.577
vn 0.577 0.577 0.577
vn -0.577 -0.577 -0.577
vn -0.577 -0.577 -0.577
vn -0.577 -0.577 -0.577
vn -0.577 -0.577 -0.577
vn -0.577 -0.577 -0.577
vn -0.577 -0.577 -0.577
vn -0.577 -0.577 -0.577
vn -0.577 -0.577 -0.577
vn 0.577 0.577 0.577
vn -0.577 -0.577 -0.577
vn 0.577 0.577 0.577
vn -0.577 -0.577 -0.577
vn -0.577 -0.577 -0.577
vn -0.577 -0.577 -0.577
vn -0.577 -0.577 -0.577
vn -0.577 -0.577 -0.577
vn -0.577 -0.577 -0.577
vn -0.577 -0.577 -0.577
vn -0.577 -0.577 -0.577
vn -0.577 -0.577 -0.577
vn -0.577 -0.577 -0.577
vn -0.577 -0.577 -0.577
vn -0.577 -0.577 -0.577
vn -0.577 -0.577 -0.577
vn -0.577 -0.577 -0.577
vn -0.577 -0.577 -0.577
vn -0.577 -0.577 -0.577
vn -0.577 -0.577 -0.577
vn -0.577 -0.577 -0.577
vn -0.577 -0.577 -0.577
vn 0.577 0.577 0.577
vn -0.577 -0.577 -0.577
vn -0.577 -0.577 -0.577
vn -0.577 -0.577 -0.577
vn -0.577 -0.577 -0.577
vn -0.577 -0.577 -0.577
vn -0.577 -0.577 -0.577
vn -0.577 -0.577 -0.577
vn -0.577 -0.577 -0.577
vn -0.577 -0.577 -0.577
vn -0.577 -0.577 -0.577
vn -0.577 -0.577 -0.577
vn -0.577 -0.577 -0.577
vn -0.577 -0.577 -0.577
vn -0.577 -0.577 -0.577
vn -0.577 -0.577 -0.577
vn -0.577 -0.577 -0.577
vn -0.577 -0.577 -0.577
vn -0.577 -0.577 -0.577
vn -0.577 -0.577 -0.577
vn 0.577 0.577 0.577
vn 0.577 0.577 0.577
vn -0.577 -0.577 -0.577
vn -0.577 -0.577 -0.577
vn -0.577 -0.577 -0.577
vn -0.577 -0.577 -0.577
vn -0.577 -0.577 -0.577
vn -0.577 -0.577 -0.577
vn -0.577 -0.577 -0.577
vn 0.577 0.577 0.577
vn 0.577 0.577 0.577
vn -0.577 -0.577 -0.577
vn -0.577 -0.577 -0.577
vn -0.577 -0.577 -0.577
vn 0.577 0.577 0.577
vn 0.577 0.577 0.577
vn -0.577 -0.577 -0.577
vn -0.577 -0.577 -0.577
vn -0.577 -0.577 -0.577
vn -0.577 -0.577 -0.577
vn -0.577 -0.577 -0.577
vn -0.577 -0.577 -0.577
vn -0.577 -0.577 -0.577
vn -0.577 -0.577 -0.577
vn -0.577 -0.577 -0.577
vn -0.577 -0.577 -0.577
vn -0.577 -0.577 -0.577
vn -0.577 -0.577 -0.577
vn -0.577 -0.577 -0.577
vn -0.577 -0.577 -0.577
vn -0.577 -0.577 -0.577
vn -0.577 -0.577 -0.577
vn -0.577 -0.577 -0.577
vn -0.577 -0.577 -0.577
vn -0.577 -0.577 -0.577
vn -0.577 -0.577 -0.577
vn -0.577 -0.577 -0.577
vn -0.577 -0.577 -0.577
vn -0.577 -0.577 -0.577
vn -0.577 -0.577 -0.577
vn -0.577 -0.577 -0.577
vn -0.577 -0.577 -0.577
vn -0.577 -0.577 -0.577
vn -0.577 -0.577 -0.577
vn -0.577 -0.577 -0.577
vn -0.577 -0.577 -0.577
vn -0.577 -0.577 -0.577
vn -0.577 -0.577 -0.577
vn 0.577 0.577 0.577
vn -0.577 -0.577 -0.577
vn -0.577 -0.577 -0.577
vn -0.577 -0.577 -0.577
vn 0.577 0.577 0.577
vn -0.577 -0.577 -0.577
vn -0.577 -0.577 -0.577
vn -0.577 -0.577 -0.577
vn -0.577 -0.577 -0.577
vn -0.577 -0.577 -0.577
vn -0.577 -0.577 -0.577
vn -0.577 -0.577 -0.577
vn -0.577 -0.577 -0.577
vn -0.577 -0.577 -0.577
vn -0.577 -0.577 -0.577
vn 0.577 0.577 0.577
vn -0.577 -0.577 -0.577
vn -0.577 -0.577 -0.577
vn -0.577 -0.577 -0.577
vn -0.577 -0.577 -0.577
vn -0.577 -0.577 -0.577
vn -0.577 -0.577 -0.577
vn -0.577 -0.577 -0.577
vn -0.577 -0.577 -0.577
vn -0.577 -0.577 -0.577
vn -0.577 -0.577 -0.577
vn -0.577 -0.577 -0.577
vn -0.577 -0.577 -0.577
vn -0.577 -0.577 -0.577
vn -0.577 -0.577 -0.577
vn -0.577 -0.577 -0.577
vn -0.577 -0.577 -0.577
vn -0.577 -0.577 -0.577
vn -0.577 -0.577 -0.577
vn -0.577 -0.577 -0.577
vn -0.577 -0.577 -0.577
vn 0.577 0.577 0.577
vn 0.577 0.577 0.577
vn -0.577 -0.577 -0.577
vn -0.577 -0.577 -0.577
vn -0.577 -0.577 -0.577
vn -0.577 -0.577 -0.577
vn -0.577 -0.577 -0.577
vn -0.577 -0.577 -0.577
vn 0.577 0.577 0.577
vn -0.577 -0.577 -0.577
vn 0.577 0.577 0.577
vn 0.577 0.577 0.577
vn -0.577 -0.577 -0.577
vn -0.577 -0.577 -0.577
vn -0.577 -0.577 -0.577
vn 0.577 0.577 0.577
vn 0.577 0.577 0.577
vn -0.577 -0.577 -0.577
vn -0.577 -0.577 -0.577
vn -0.577 -0.577 -0.577
vn -0.577 -0.577 -0.577
vn -0.577 -0.577 -0.577
vn 0.577 0.577 0.577
vn -0.577 -0.577 -0.577
vn -0.577 -0.577 -0.577
vn -0.577 -0.577 -0.577
vn -0.577 -0.577 -0.577
vn -0.577 -0.577 -0.577
vn -0.577 -0.577 -0.577
vn -0.577 -0.577 -0.577
vn -0.577 -0.577 -0.577
vn -0.577 -0.577 -0.577
vn -0.577 -0.577 -0.577
vn -0.577 -0.577 -0.577
vn -0.577 -0.577 -0.577
vn -0.577 -0.577 -0.577
vn -0.577 -0.577 -0.577
vn -0.577 -0.577 -0.577
vn -0.577 -0.577 -0.577
vn 0.577 0.577 0.577
vn -0.577 -0.577 -0.577
vn -0.577 -0.577 -0.577
vn -0.577 -0.577 -0.577
vn -0.577 -0.577 -0.577
vn -0.577 -0.577 -0.577
vn -0.577 -0.577 -0.577
vn 0.577 0.577 0.577
vn -0.577 -0.577 -0.577
vn 0.577 0.577 0.577
vn -0.577 -0.577 -0.577
vn -0.577 -0.577 -0.577
vn -0.577 -0.577 -0.577
vn -0.577 -0.577 -0.577
vn 0.577 0.577 0.577
vn 0.577 0.577 0.577
vn 0.577 0.577 0.577
vn 0.577 0.577 0.577
vn -0.577 -0.577 -0.577
vn -0.577 -0.577 -0.577
vn -0.577 -0.577 -0.577
vn -0.577 -0.577 -0.577
vn -0.577 -0.577 -0.577
vn -0.577 -0.577 -0.577
vn -0.577 -0.577 -0.577
vn 0.577 0.577 0.577
vn -0.577 -0.577 -0.577
vn -0.577 -0.577 -0.577
vn 0.577 0.577 0.577
vn -0.577 -0.577 -0.577
vn -0.577 -0.577 -0.577
vn -0.577 -0.577 -0.577
vn 0.577 0.577 0.577
vn -0.577 -0.577 -0.577
vn -0.577 -0.577 -0.577
vn 0.577 0.577 0.577
vn -0.577 -0.577 -0.577
vn 0.577 0.577 0.577
vn 0.577 0.577 0.577
vn 0.577 0.577 0.577
vn 0.577 0.577 0.577
vn 0.577 0.577 0.577
vn -0.577 -0.577 -0.577
vn 0.577 0.577 0.577
vn 0.577 0.577 0.577
vn -0.577 -0.577 -0.577
vn 0.577 0.577 0.577
vn 0.577 0.577 0.577
vn 0.577 0.577 0.577
vn -0.577 -0.577 -0.577
vn 0.577 0.577 0.577
vn -0.577 -0.577 -0.577
vn -0.577 -0.577 -0.577
vn -0.577 -0.577 -0.577
vn 0.577 0.577 0.577
vn -0.577 -0.577 -0.577
vn -0.577 -0.577 -0.577
vn 0.577 0.577 0.577
vn -0.577 -0.577 -0.577
vn -0.577 -0.577 -0.577
vn -0.577 -0.577 -0.577
vn -0.577 -0.577 -0.577
vn -0.577 -0.577 -0.577
vn -0.577 -0.577 -0.577
vn -0.577 -0.577 -0.577
vn -0.577 -0.577 -0.577
vn -0.577 -0.577 -0.577
vn -0.577 -0.577 -0.577
vn -0.577 -0.577 -0.577
vn -0.577 -0.577 -0.577
vn -0.577 -0.577 -0.577
vn -0.577 -0.577 -0.577
vn -0.577 -0.577 -0.577
vn -0.577 -0.577 -0.577
vn -0.577 -0.577 -0.577
vn -0.577 -0.577 -0.577
vn -0.577 -0.577 -0.577
vn -0.577 -0.577 -0.577
vn 0.577 0.577 0.577
vn -0.577 -0.577 -0.577
vn 0.577 0.577 0.577
vn -0.577 -0.577 -0.577
vn -0.577 -0.577 -0.577
vn -0.577 -0.577 -0.577
vn 0.577 0.577 0.577
vn 0.577 0.577 0.577
vn 0.577 0.577 0.577
vn -0.577 -0.577 -0.577
vn 0.577 0.577 0.577
vn 0.577 0.577 0.577
vn 0.577 0.577 0.577
vn -0.577 -0.577 -0.577
vn -0.577 -0.577 -0.577
vn 0.577 0.577 0.577
vn 0.577 0.577 0.577
vn 0.577 0.577 0.577
vn -0.577 -0.577 -0.577
vn 0.577 0.577 0.577
vn -0.577 -0.577 -0.577
vn 0.577 0.577 0.577
vn 0.577 0.577 0.577
vn 0.577 0.577 0.577
vn -0.577 -0.577 -0.577
vn -0.577 -0.577 -0.577
vn 0.577 0.577 0.577
vn 0.577 0.577 0.577
vn 0.577 0.577 0.577
vn -0.577 -0.577 -0.577
vn -0.577 -0.577 -0.577
vn 0.577 0.577 0.577
vn -0.577 -0.577 -0.577
vn -0.577 -0.577 -0.577
vn 0.577 0.577 0.577
vn 0.577 0.577 0.577
vn 0.577 0.577 0.577
vn -0.577 -0.577 -0.577
vn -0.577 -0.577 -0.577
vn 0.577 0.577 0.577
vn -0.577 -0.577 -0.577
vn -0.577 -0.577 -0.577
vn -0.577 -0.577 -0.577
vn -0.577 -0.577 -0.577
vn 0.577 0.577 0.577
vn 0.577 0.577 0.577
vn -0.577 -0.577 -0.577
vn -0.577 -0.577 -0.577
vn -0.577 -0.577 -0.577
vn -0.577 -0.577 -0.577
vn -0.577 -0.577 -0.577
vn -0.577 -0.577 -0.577
vn 0.577 0.577 0.577
vn -0.577 -0.577 -0.577
vn -0.577 -0.577 -0.577
vn 0.577 0.577 0.577
usemtl tex_1631_lit_w10
f 1/1/1 2/2/2 3/3/3
f 3/3/3 2/2/2 4/4/4
f 3/3/3 5/5/5 6/6/6
f 7/7/7 8/8/8 4/4/4
f 5/5/5 3/3/3 8/8/8
f 8/8/8 3/3/3 4/4/4
f 1/1/1 9/9/9 7/7/7
f 2/2/2 1/1/1 7/7/7
f 7/7/7 10/10/10 8/8/8
f 1/1/1 6/6/6 9/9/9
f 6/6/6 5/5/5 8/8/8
f 3/3/3 6/6/6 1/1/1
f 7/7/7 4/4/4 2/2/2
f 6/6/6 8/8/8 10/10/10
usemtl tex_1772_lit_w11
f 11/11/11 12/12/12 13/13/13
f 14/14/14 15/15/15 16/16/16
f 14/14/14 16/16/16 17/17/17
f 18/18/18 19/19/19 13/13/13
f 20/20/20 21/21/21 22/22/22
f 21/21/21 23/23/23 22/22/22
f 19/19/19 11/11/11 13/13/13
f 21/21/21 18/18/18 23/23/23
f 18/18/18 13/13/13 23/23/23
f 28/24/28 24/25/24 29/26/29
f 29/26/29 24/25/24 25/27/25
f 29/26/29 25/27/25 30/28/30
f 30/28/30 25/27/25 26/29/26
f 30/28/30 26/29/26 31/30/31
f 31/30/31 26/29/26 27/31/27
f 31/30/31 27/31/27 24/25/24
f 31/30/31 24/25/24 28/24/28
f 39/19/39 40/18/40 32/32/32
f 33/33/33 34/34/34 41/20/41
f 39/19/39 35/35/35 42/11/42
f 43/14/43 36/36/36 37/37/37
f 41/20/41 34/34/34 44/21/44
f 44/21/44 34/34/34 32/32/32
f 44/21/44 32/32/32 40/18/40
f 43/14/43 37/37/37 45/15/45
f 39/19/39 38/38/38 35/35/35
f 39/19/39 32/32/32 38/38/38
f 46/39/46 47/40/47 48/41/48
f 49/42/49 50/43/50 51/44/51
f 46/39/46 52/45/52 47/40/47
f 48/41/48 47/40/47 49/42/49
f 51/44/51 50/43/50 53/46/53
f 53/46/53 50/43/50 52/45/52
f 53/46/53 52/45/52 46/39/46
f 48/41/48 49/42/49 51/44/51
f 51/44/51 53/46/53 46/39/46
f 51/44/51 46/39/46 48/41/48
f 50/43/50 49/42/49 54/40/54
f 50/43/50 54/40/54 55/45/55
f 56/47/56 57/48/57 58/49/58
f 58/49/58 57/48/57 59/50/59
f 58/49/58 59/50/59 60/51/60
f 60/51/60 59/50/59 61/52/61
f 60/51/60 61/52/61 62/53/62
f 63/54/63 60/51/60 62/53/62
f 62/53/62 63/54/63 64/55/64
f 56/47/56 65/56/65 66/57/66
f 65/56/65 64/55/64 66/57/66
f 65/56/65 63/54/63 64/55/64
f 57/48/57 56/47/56 66/57/66
f 64/55/64 63/54/63 62/53/62
f 67/58/67 68/59/68 69/60/69
f 70/61/70 68/59/68 71/62/71
f 72/63/72 73/64/73 74/65/74
f 75/61/75 76/62/76 72/63/72
f 77/58/77 78/60/78 79/66/79
f 77/58/77 76/62/76 80/59/80
f 75/61/75 72/63/72 74/65/74
f 81/67/81 82/68/82 83/69/83
f 84/70/84 77/58/77 79/66/79
f 81/67/81 83/69/83 85/71/85
usemtl tex_1771_lit_w11
f 86/72/86 87/73/87 93/74/93
f 87/73/87 94/75/94 93/74/93
f 94/75/94 88/76/88 95/77/95
f 94/75/94 87/73/87 88/76/88
f 89/78/89 86/72/86 93/74/93
f 89/78/89 93/74/93 96/79/96
usemtl tex_1770_lit_w11
f 90/80/90 97/81/97 91/82/91
f 98/83/98 90/80/90 99/84/99
f 90/80/90 98/83/98 97/81/97
f 90/80/90 92/85/92 100/86/100
f 90/80/90 100/86/100 99/84/99
usemtl tex_1772_lit_w11
f 101/64/101 102/63/102 108/34/108
f 109/35/109 110/38/110 103/70/103
f 104/68/104 105/67/105 111/37/111
f 106/62/106 112/32/112 108/34/108
f 102/63/102 106/62/106 108/34/108
f 112/32/112 106/62/106 107/58/107
f 112/32/112 107/58/107 110/38/110
f 110/38/110 107/58/107 103/70/103
f 113/33/113 101/64/101 108/34/108
f 111/37/111 114/36/114 104/68/104
f 115/40/115 116/87/116 117/88/117
f 118/89/118 116/87/116 119/45/119
f 120/43/120 121/42/121 122/90/122
f 118/89/118 119/45/119 120/43/120
f 121/42/121 115/40/115 117/88/117
f 115/40/115 119/45/119 116/87/116
f 121/42/121 117/88/117 122/90/122
f 118/89/118 120/43/120 122/90/122
f 123/90/123 117/88/117 116/87/116
f 123/90/123 116/87/116 124/89/124
f 125/40/125 121/42/121 120/43/120
f 125/40/125 120/43/120 126/45/126
usemtl tex_1631_lit_w10
f 127/91/127 128/92/128 129/93/129
f 130/94/130 128/92/128 127/91/127
f 131/95/131 132/96/132 127/91/127
f 130/94/130 133/97/133 134/98/134
f 133/97/133 127/91/127 132/96/132
f 130/94/130 127/91/127 133/97/133
f 134/98/134 135/99/135 129/93/129
f 134/98/134 129/93/129 128/92/128
f 133/97/133 136/100/136 134/98/134
f 135/99/135 131/95/131 129/93/129
f 133/97/133 132/96/132 131/95/131
f 129/93/129 131/95/131 127/91/127
f 128/92/128 130/94/130 134/98/134
f 136/100/136 133/97/133 131/95/131
usemtl tex_1772_lit_w11
f 137/101/137 138/102/138 139/103/139
f 140/104/140 141/105/141 142/106/142
f 143/107/143 140/104/140 142/106/142
f 137/101/137 144/108/144 145/109/145
f 146/110/146 147/111/147 148/112/148
f 146/110/146 149/113/149 147/111/147
f 137/101/137 139/103/139 144/108/144
f 149/113/149 137/101/137 145/109/145
f 149/113/149 145/109/145 147/111/147
f 154/114/154 150/115/150 155/116/155
f 155/116/155 150/115/150 151/117/151
f 155/116/155 151/117/151 156/118/156
f 156/118/156 151/117/151 152/119/152
f 156/118/156 152/119/152 157/120/157
f 157/120/157 152/119/152 153/121/153
f 157/120/157 153/121/153 154/114/154
f 154/114/154 153/121/153 150/115/150
f 165/103/165 158/122/158 166/108/166
f 159/123/159 158/122/158 165/103/165
f 167/105/167 160/124/160 168/106/168
f 161/125/161 162/126/162 169/112/169
f 170/111/170 161/125/161 169/112/169
f 163/127/163 161/125/161 170/111/170
f 171/109/171 166/108/166 163/127/163
f 158/122/158 163/127/163 166/108/166
f 160/124/160 164/128/164 168/106/168
f 171/109/171 163/127/163 170/111/170
f 172/129/172 173/130/173 174/131/174
f 175/132/175 176/133/176 177/134/177
f 173/130/173 178/135/178 174/131/174
f 177/134/177 173/130/173 172/129/172
f 179/136/179 176/133/176 175/132/175
f 178/135/178 176/133/176 179/136/179
f 174/131/174 178/135/178 179/136/179
f 175/132/175 177/134/177 172/129/172
f 172/129/172 174/131/174 179/136/179
f 172/129/172 179/136/179 175/132/175
f 180/135/180 181/130/181 177/134/177
f 180/135/180 177/134/177 176/133/176
f 182/137/182 183/138/183 184/139/184
f 184/139/184 183/138/183 185/140/185
f 186/53/186 187/141/187 188/142/188
f 189/143/189 187/141/187 186/53/186
f 190/52/190 189/143/189 186/53/186
f 191/144/191 189/143/189 190/52/190
f 192/145/192 191/144/191 190/52/190
f 183/138/183 191/144/191 192/145/192
f 185/140/185 183/138/183 192/145/192
f 188/142/188 187/141/187 182/137/182
f 188/142/188 182/137/182 184/139/184
f 193/146/193 194/147/194 195/148/195
f 196/149/196 194/147/194 197/150/197
f 198/151/198 199/152/199 200/150/200
f 199/152/199 201/149/201 200/150/200
f 202/153/202 203/146/203 204/148/204
f 198/151/198 200/150/200 205/154/205
f 206/147/206 201/149/201 204/148/204
f 207/155/207 208/156/208 209/157/209
f 207/155/207 209/157/209 210/158/210
f 202/153/202 204/148/204 211/159/211
usemtl tex_1771_lit_w11
f 212/160/212 213/161/213 220/162/220
f 212/160/212 220/162/220 221/163/221
f 213/161/213 214/72/214 222/74/222
f 222/74/222 214/72/214 215/78/215
f 222/74/222 215/78/215 223/79/223
f 213/161/213 222/74/222 220/162/220
f 216/164/216 215/78/215 223/79/223
usemtl tex_1770_lit_w11
f 217/165/217 224/166/224 225/167/225
f 224/166/224 217/165/217 218/168/218
f 224/166/224 218/168/218 226/169/226
f 219/85/219 217/165/217 225/167/225
f 219/85/219 225/167/225 227/86/227
usemtl tex_1772_lit_w11
f 235/124/235 228/157/228 229/156/229
f 230/152/230 231/151/231 236/126/236
f 237/125/237 230/152/230 236/126/236
f 232/149/232 230/152/230 237/125/237
f 238/127/238 232/149/232 237/125/237
f 233/148/233 232/149/232 238/127/238
f 239/122/239 233/148/233 238/127/238
f 234/159/234 233/148/233 239/122/239
f 240/128/240 235/124/235 229/156/229
f 241/123/241 234/159/234 239/122/239
f 242/170/242 243/171/243 244/130/244
f 245/135/245 243/171/243 246/172/246
f 247/173/247 248/134/248 249/133/249
f 249/133/249 245/135/245 246/172/246
f 242/170/242 244/130/244 248/134/248
f 243/171/243 245/135/245 244/130/244
f 247/173/247 242/170/242 248/134/248
f 247/173/247 249/133/249 246/172/246
f 250/172/250 243/171/243 242/170/242
f 250/172/250 242/170/242 251/173/251
f 252/135/252 249/133/249 248/134/248
f 252/135/252 248/134/248 253/130/253
usemtl tex_1773_lit
f 254/174/254 261/175/261 262/176/262
f 255/177/255 263/178/263 254/174/254
f 263/178/263 261/175/261 254/174/254
f 256/179/256 254/174/254 262/176/262
f 257/180/257 264/181/264 265/182/265
f 258/183/258 266/184/266 267/185/267
usemtl tex_1774_lit
f 266/184/266 258/183/258 259/186/259
f 257/180/257 265/182/265 260/187/260
f 265/182/265 259/186/259 260/187/260
f 265/182/265 266/184/266 259/186/259
usemtl tex_1609_lit
f 274/188/274 275/189/275 276/190/276
f 277/191/277 275/189/275 274/188/274
usemtl tex_1613_lit_w11
f 278/192/278 279/193/279 280/194/280
f 281/195/281 279/193/279 278/192/278
usemtl tex_1616_lit_w11
f 282/196/282 283/197/283 284/198/284
f 285/199/285 283/197/283 282/196/282
usemtl tex_1622_lit_w11
f 286/200/286 287/201/287 288/202/288
f 289/203/289 287/201/287 286/200/286
usemtl tex_1619_lit_w11
f 290/204/290 291/205/291 292/206/292
f 293/207/293 291/205/291 290/204/290
usemtl tex_1769_lit_w11
f 294/208/294 295/209/295 299/210/299
f 300/211/300 296/212/296 294/208/294
f 300/211/300 297/213/297 296/212/296
f 301/214/301 295/209/295 298/215/298
f 302/216/302 298/215/298 297/213/297
f 301/214/301 299/210/299 295/209/295
f 300/211/300 302/216/302 297/213/297
f 300/211/300 294/208/294 299/210/299
f 302/216/302 301/214/301 298/215/298
f 308/215/308 303/217/303 309/213/309
f 309/213/309 303/217/303 304/218/304
f 309/213/309 304/218/304 310/212/310
f 310/212/310 304/218/304 305/219/305
f 310/212/310 305/219/305 311/208/311
f 311/208/311 305/219/305 306/220/306
f 312/209/312 307/221/307 308/215/308
f 308/215/308 307/221/307 303/217/303
f 311/208/311 306/220/306 312/209/312
f 312/209/312 306/220/306 307/221/307
f 313/222/313 314/223/314 315/224/315
f 316/225/316 317/226/317 313/222/313
f 318/227/318 314/223/314 319/228/319
f 320/229/320 319/228/319 316/225/316
f 319/228/319 317/226/317 316/225/316
f 318/227/318 315/224/315 314/223/314
f 316/225/316 313/222/313 315/224/315
f 320/229/320 318/227/318 319/228/319
f 314/223/314 313/222/313 317/226/317
f 314/223/314 317/226/317 319/228/319
f 321/230/321 322/231/322 323/232/323
f 321/230/321 324/233/324 325/234/325
f 326/235/326 327/236/327 328/237/328
f 321/230/321 323/232/323 324/233/324
f 322/231/322 326/235/326 328/237/328
f 329/238/329 326/235/326 322/231/322
f 324/233/324 327/236/327 330/239/330
f 321/230/321 329/238/329 322/231/322
f 326/235/326 330/239/330 327/236/327
f 325/234/325 324/233/324 330/239/330
f 336/231/336 331/240/331 337/232/337
f 332/241/332 331/240/331 336/231/336
f 338/237/338 332/241/332 336/231/336
f 333/242/333 332/241/332 338/237/338
f 339/236/339 333/242/333 338/237/338
f 334/243/334 333/242/333 339/236/339
f 340/233/340 334/243/334 339/236/339
f 335/244/335 334/243/334 340/233/340
f 337/232/337 335/244/335 340/233/340
f 331/240/331 335/244/335 337/232/337
f 346/217/346 341/239/341 347/218/347
f 347/218/347 341/239/341 342/235/342
f 347/218/347 342/235/342 348/219/348
f 348/219/348 342/235/342 343/238/343
f 348/219/348 343/238/343 349/220/349
f 349/220/349 343/238/343 344/230/344
f 350/221/350 341/239/341 346/217/346
f 349/220/349 344/230/344 345/234/345
f 349/220/349 345/234/345 350/221/350
f 350/221/350 345/234/345 341/239/341
f 351/245/351 352/246/352 353/247/353
f 353/247/353 354/248/354 351/245/351
f 355/222/355 353/247/353 352/246/352
f 355/222/355 351/245/351 356/223/356
f 355/222/355 352/246/352 351/245/351
f 353/247/353 357/228/357 354/248/354
f 358/226/358 357/228/357 353/247/353
f 351/245/351 354/248/354 356/223/356
f 355/222/355 358/226/358 353/247/353
f 357/228/357 356/223/356 354/248/354
f 357/228/357 358/226/358 355/222/355
f 357/228/357 355/222/355 356/223/356
usemtl tex_1609_lit
f 359/249/359 360/250/360 361/251/361
f 361/251/361 360/250/360 362/252/362
usemtl tex_1613_lit_w11
f 363/253/363 364/254/364 365/255/365
f 365/255/365 364/254/364 366/256/366
usemtl tex_1616_lit_w11
f 367/257/367 368/258/368 369/259/369
f 369/259/369 368/258/368 370/260/370
usemtl tex_1622_lit_w11
f 371/261/371 372/262/372 373/263/373
f 373/263/373 372/262/372 374/264/374
usemtl tex_1619_lit_w11
f 375/265/375 376/266/376 377/267/377
f 377/267/377 376/266/376 378/268/378
usemtl tex_1769_lit_w11
f 384/269/384 379/270/379 380/271/380
f 380/271/380 381/272/381 385/273/385
f 381/272/381 382/274/382 385/273/385
f 383/275/383 379/270/379 386/276/386
f 382/274/382 383/275/383 387/277/387
f 379/270/379 384/269/384 386/276/386
f 382/274/382 387/277/387 385/273/385
f 384/269/384 380/271/380 385/273/385
f 383/275/383 386/276/386 387/277/387
f 393/274/393 388/278/388 394/275/394
f 389/279/389 388/278/388 393/274/393
f 395/272/395 389/279/389 393/274/393
f 390/280/390 389/279/389 395/272/395
f 396/271/396 390/280/390 395/272/395
f 391/281/391 390/280/390 396/271/396
f 394/275/394 392/282/392 397/270/397
f 388/278/388 392/282/392 394/275/394
f 397/270/397 391/281/391 396/271/396
f 392/282/392 391/281/391 397/270/397
f 398/283/398 399/284/399 400/285/400
f 400/285/400 401/286/401 402/287/402
f 403/288/403 399/284/399 404/289/404
f 402/287/402 403/288/403 405/290/405
f 402/287/402 401/286/401 403/288/403
f 399/284/399 398/283/398 404/289/404
f 398/283/398 400/285/400 402/287/402
f 403/288/403 404/289/404 405/290/405
f 400/285/400 399/284/399 403/288/403
f 400/285/400 403/288/403 401/286/401
f 406/291/406 407/292/407 408/293/408
f 409/294/409 410/295/410 408/293/408
f 411/296/411 412/297/412 413/298/413
f 410/295/410 406/291/406 408/293/408
f 411/296/411 413/298/413 407/292/407
f 407/292/407 413/298/413 414/299/414
f 415/300/415 412/297/412 410/295/410
f 407/292/407 414/299/414 408/293/408
f 412/297/412 415/300/415 413/298/413
f 415/300/415 410/295/410 409/294/409
f 421/291/421 416/301/416 422/292/422
f 422/292/422 416/301/416 417/302/417
f 422/292/422 417/302/417 423/296/423
f 423/296/423 417/302/417 418/303/418
f 423/296/423 418/303/418 424/297/424
f 424/297/424 418/303/418 419/304/419
f 424/297/424 419/304/419 425/295/425
f 425/295/425 419/304/419 420/305/420
f 425/295/425 420/305/420 421/291/421
f 421/291/421 420/305/420 416/301/416
f 431/279/431 426/300/426 432/278/432
f 427/298/427 426/300/426 431/279/431
f 433/280/433 427/298/427 431/279/431
f 428/299/428 427/298/427 433/280/433
f 434/281/434 428/299/428 433/280/433
f 429/293/429 428/299/428 434/281/434
f 432/278/432 426/300/426 435/282/435
f 430/294/430 429/293/429 434/281/434
f 435/282/435 430/294/430 434/281/434
f 426/300/426 430/294/430 435/282/435
f 436/306/436 437/307/437 438/285/438
f 439/284/439 440/308/440 438/285/438
f 440/308/440 436/306/436 438/285/438
f 441/309/441 442/288/442 437/307/437
f 437/307/437 442/288/442 443/286/443
f 439/284/439 441/309/441 440/308/440
f 437/307/437 443/286/443 438/285/438
f 441/309/441 439/284/439 442/288/442
f 436/306/436 440/308/440 441/309/441
f 441/309/441 437/307/437 436/306/436
f 443/286/443 442/288/442 439/284/439
f 443/286/443 439/284/439 438/285/438
usemtl tex_1771_lit_w11
f 444/310/444 445/311/445 446/312/446
f 446/312/446 447/313/447 448/314/448
f 449/315/449 448/314/448 450/316/450
f 451/317/451 452/318/452 453/319/453
f 449/315/449 446/312/446 448/314/448
f 449/315/449 444/310/444 446/312/446
f 454/320/454 455/321/455 446/312/446
f 448/314/448 453/319/453 456/322/456
f 457/323/457 455/321/455 454/320/454
f 447/313/447 451/317/451 448/314/448
f 445/311/445 444/310/444 458/324/458
f 459/325/459 460/318/460 461/326/461
f 462/327/462 463/315/463 464/316/464
f 465/321/465 466/313/466 467/312/467
f 464/316/464 468/314/468 469/322/469
f 462/327/462 464/316/464 470/328/470
f 468/314/468 471/317/471 472/319/472
f 466/313/466 461/326/461 471/317/471
f 460/318/460 471/317/471 461/326/461
f 462/327/462 470/328/470 473/329/473
f 464/316/464 469/322/469 470/328/470
usemtl tex_1770_lit_w11
f 474/330/474 475/331/475 476/332/476
f 477/333/477 474/330/474 478/334/478
f 478/334/478 474/330/474 476/332/476
f 479/335/479 480/336/480 475/331/475
f 481/337/481 480/336/480 479/335/479
f 482/338/482 474/330/474 477/333/477
f 482/338/482 477/333/477 483/339/483
f 482/338/482 483/339/483 484/340/484
f 485/341/485 482/338/482 484/340/484
f 477/333/477 486/342/486 483/339/483
f 477/333/477 487/343/487 486/342/486
f 476/332/476 488/344/488 489/345/489
f 490/331/490 491/336/491 492/346/492
f 493/341/493 494/337/494 495/338/495
f 496/335/496 497/330/497 495/338/495
f 494/337/494 496/335/496 495/338/495
f 497/330/497 496/335/496 490/331/490
f 498/334/498 499/345/499 500/343/500
f 498/334/498 501/332/501 499/345/499
f 502/333/502 498/334/498 500/343/500
usemtl tex_1771_lit_w11
f 503/347/503 504/348/504 505/349/505
f 506/347/506 507/350/507 508/351/508
f 504/348/504 503/347/503 509/352/509
f 510/353/510 511/350/511 504/348/504
f 512/354/512 509/352/509 513/351/513
f 506/347/506 514/349/514 507/350/507
f 511/350/511 514/349/514 504/348/504
f 515/347/515 513/351/513 509/352/509
f 510/353/510 516/354/516 517/350/517
f 516/354/516 518/351/518 517/350/517
usemtl tex_1770_lit_w11
f 519/355/519 520/356/520 521/357/521
f 522/358/522 519/355/519 521/357/521
usemtl tex_1771_lit_w11
f 526/359/526 527/73/527 528/72/528
f 529/76/529 526/359/526 530/360/530
f 527/73/527 526/359/526 529/76/529
f 534/160/534 535/361/535 536/362/536
f 537/161/537 536/362/536 528/72/528
f 536/362/536 526/359/526 528/72/528
f 534/160/534 536/362/536 537/161/537
usemtl tex_1770_lit_w11
f 538/82/538 539/363/539 540/80/540
f 540/80/540 539/363/539 541/364/541
f 540/80/540 541/364/541 542/85/542
f 542/85/542 541/364/541 543/365/543
f 542/85/542 543/365/543 544/165/544
f 544/165/544 543/365/543 545/168/545
f 545/168/545 543/365/543 546/366/546
usemtl tex_1771_lit_w11
f 547/362/547 555/322/555 548/359/548
f 548/359/548 556/319/556 549/360/549
f 548/359/548 555/322/555 556/319/556
f 550/361/550 557/328/557 547/362/547
f 547/362/547 557/328/557 555/322/555
f 549/360/549 556/319/556 558/318/558
usemtl tex_1770_lit_w11
f 551/363/551 559/344/559 552/364/552
f 552/364/552 559/344/559 560/332/560
f 552/364/552 560/332/560 553/365/553
f 553/365/553 560/332/560 561/331/561
f 553/365/553 561/331/561 554/366/554
f 554/366/554 561/331/561 562/346/562
usemtl tex_1771_lit_w11
f 563/350/563 564/367/564 565/368/565
f 564/367/564 566/353/566 567/369/567
f 564/367/564 563/350/563 566/353/566
f 568/370/568 569/354/569 565/368/565
f 565/368/565 569/354/569 570/351/570
f 571/351/571 563/350/563 565/368/565
f 566/353/566 572/351/572 573/354/573
f 566/353/566 574/350/574 572/351/572
f 568/370/568 565/368/565 564/367/564
f 568/370/568 564/367/564 567/369/567
usemtl tex_1770_lit_w11
f 575/371/575 576/357/576 577/356/577
f 575/371/575 577/356/577 578/372/578
