mtllib CjawsZ.mtl
v -1293.6429061889648 -98.52822685241699 -52.0 1.000 1.000 1.000
v -1293.6429061889648 -197.528226852417 -44.0 1.000 1.000 1.000
v -1293.6429061889648 -45.52822685241699 272.0 1.000 1.000 1.000
v -1293.6429061889648 -188.528226852417 284.0 1.000 1.000 1.000
v -1242.6429061889648 -92.52822685241699 256.0 1.000 1.000 1.000
v -1167.6429061889648 -103.52822685241699 39.0 1.000 1.000 1.000
v -1165.6429061889648 -173.528226852417 -22.0 1.000 1.000 1.000
v -1245.6429061889648 -154.528226852417 287.0 1.000 1.000 1.000
v -1167.6429061889648 -119.52822685241699 -37.0 1.000 1.000 1.000
v -1166.6429061889648 -161.528226852417 68.0 1.000 1.000 1.000
v -795.5451889038086 -56.26076793670654 72.0 1.000 1.000 1.000
v -1164.5451889038086 -70.26076793670654 90.0 1.000 1.000 1.000
v -1165.5451889038086 -172.26076793670654 116.0 1.000 1.000 1.000
v -812.5451889038086 -55.26076793670654 -9.0 1.000 1.000 1.000
v -1166.5451889038086 -70.26076793670654 -66.0 1.000 1.000 1.000
v -811.5451889038086 -214.26076793670654 10.0 1.000 1.000 1.000
v -813.5451889038086 -154.26076793670654 125.0 1.000 1.000 1.000
v -810.5451889038086 -140.26076793670654 -76.0 1.000 1.000 1.000
v -1164.5451889038086 -199.26076793670654 -65.0 1.000 1.000 1.000
v -1164.5451889038086 -199.26076793670654 -65.0 1.000 1.000 1.000
v -1165.5451889038086 -172.26076793670654 116.0 1.000 1.000 1.000
v -1164.5451889038086 -70.26076793670654 90.0 1.000 1.000 1.000
v -1166.5451889038086 -70.26076793670654 -66.0 1.000 1.000 1.000
v -1165.6429061889648 -173.528226852417 -22.0 1.000 1.000 1.000
v -1166.6429061889648 -161.528226852417 68.0 1.000 1.000 1.000
v -1167.6429061889648 -103.52822685241699 39.0 1.000 1.000 1.000
v -1167.6429061889648 -119.52822685241699 -37.0 1.000 1.000 1.000
v -663.5451889038086 -213.26076793670654 15.0 1.000 1.000 1.000
v -674.5451889038086 -51.26076793670654 -10.0 1.000 1.000 1.000
v -670.5451889038086 -138.26076793670654 -75.0 1.000 1.000 1.000
v -656.5451889038086 -55.26076793670654 74.0 1.000 1.000 1.000
v -659.5451889038086 -150.26076793670654 132.0 1.000 1.000 1.000
v -813.5451889038086 -154.26076793670654 125.0 1.000 1.000 1.000
v -811.5451889038086 -214.26076793670654 10.0 1.000 1.000 1.000
v -812.5451889038086 -55.26076793670654 -9.0 1.000 1.000 1.000
v -795.5451889038086 -56.26076793670654 72.0 1.000 1.000 1.000
v -810.5451889038086 -140.26076793670654 -76.0 1.000 1.000 1.000
v -1165.5451889038086 -179.26076793670654 116.0 1.000 1.000 1.000
v -663.5451889038086 -164.26076793670654 119.0 1.000 1.000 1.000
v -1165.5451889038086 -73.26076793670654 116.0 1.000 1.000 1.000
v -663.5451889038086 -65.26076793670654 38.0 1.000 1.000 1.000
v -663.5451889038086 -140.26076793670654 -67.0 1.000 1.000 1.000
v -1165.5451889038086 -101.26076793670654 -62.0 1.000 1.000 1.000
v -663.5451889038086 -227.26076793670654 13.0 1.000 1.000 1.000
v -1165.5451889038086 -200.26076793670654 -51.0 1.000 1.000 1.000
v -663.5451889038086 -164.26076793670654 119.0 1.000 1.000 1.000
v -663.5451889038086 -227.26076793670654 13.0 1.000 1.000 1.000
v -554.6162338256836 -152.8632354736328 131.0 1.000 1.000 1.000
v -324.6162338256836 -221.8632354736328 24.0 1.000 1.000 1.000
v -322.6162338256836 -172.8632354736328 146.0 1.000 1.000 1.000
v -322.6162338256836 -138.8632354736328 -88.0 1.000 1.000 1.000
v -557.6162338256836 -213.8632354736328 14.0 1.000 1.000 1.000
v -415.6162338256836 -141.8632354736328 -76.0 1.000 1.000 1.000
v -457.6162338256836 -42.86323547363281 3.0 1.000 1.000 1.000
v -322.6162338256836 -42.86323547363281 -21.0 1.000 1.000 1.000
v -322.6162338256836 -68.86323547363281 88.0 1.000 1.000 1.000
v -526.6162338256836 -50.86323547363281 82.0 1.000 1.000 1.000
v -75.0 -179.0 166.0 1.000 1.000 1.000
v -180.0 -78.0 24.0 1.000 1.000 1.000
v -109.0 -160.0 -84.0 1.000 1.000 1.000
v -2.0 -263.0 175.0 1.000 1.000 1.000
v -22.0 -260.0 -109.0 1.000 1.000 1.000
v -322.6162338256836 -68.86323547363281 88.0 1.000 1.000 1.000
v -322.6162338256836 -172.8632354736328 146.0 1.000 1.000 1.000
v -322.6162338256836 -42.86323547363281 -21.0 1.000 1.000 1.000
v -322.6162338256836 -138.8632354736328 -88.0 1.000 1.000 1.000
v -324.6162338256836 -221.8632354736328 24.0 1.000 1.000 1.000
v -457.6162338256836 -42.86323547363281 3.0 1.000 1.000 1.000
v -415.6162338256836 -141.8632354736328 -76.0 1.000 1.000 1.000
v -526.6162338256836 -50.86323547363281 82.0 1.000 1.000 1.000
v -557.6162338256836 -213.8632354736328 14.0 1.000 1.000 1.000
v -554.6162338256836 -152.8632354736328 131.0 1.000 1.000 1.000
v -670.5451889038086 -138.26076793670654 -75.0 1.000 1.000 1.000
v -656.5451889038086 -55.26076793670654 74.0 1.000 1.000 1.000
v -659.5451889038086 -150.26076793670654 132.0 1.000 1.000 1.000
v -674.5451889038086 -51.26076793670654 -10.0 1.000 1.000 1.000
v -663.5451889038086 -213.26076793670654 15.0 1.000 1.000 1.000
v -663.6162338256836 -163.8632354736328 119.0 1.000 1.000 1.000
v -249.6162338256836 -221.8632354736328 20.0 1.000 1.000 1.000
v -249.6162338256836 -180.8632354736328 136.0 1.000 1.000 1.000
v -249.6162338256836 -151.8632354736328 -98.0 1.000 1.000 1.000
v -663.6162338256836 -226.8632354736328 13.0 1.000 1.000 1.000
v -663.6162338256836 -139.8632354736328 -67.0 1.000 1.000 1.000
v -663.6162338256836 -65.86323547363281 38.0 1.000 1.000 1.000
v -249.6162338256836 -66.86323547363281 27.0 1.000 1.000 1.000
v -249.6162338256836 -66.86323547363281 27.0 1.000 1.000 1.000
v -249.6162338256836 -180.8632354736328 136.0 1.000 1.000 1.000
v -249.6162338256836 -221.8632354736328 20.0 1.000 1.000 1.000
v -249.6162338256836 -151.8632354736328 -98.0 1.000 1.000 1.000
v -663.6162338256836 -163.8632354736328 119.0 1.000 1.000 1.000
v -663.6162338256836 -226.8632354736328 13.0 1.000 1.000 1.000
v 1304.122543334961 -51.54060411453247 272.0 1.000 1.000 1.000
v 1304.122543334961 -203.54060411453247 -44.0 1.000 1.000 1.000
v 1304.122543334961 -104.54060411453247 -52.0 1.000 1.000 1.000
v 1304.122543334961 -194.54060411453247 284.0 1.000 1.000 1.000
v 1178.122543334961 -108.54060411453247 39.0 1.000 1.000 1.000
v 1253.122543334961 -97.54060411453247 256.0 1.000 1.000 1.000
v 1256.122543334961 -160.54060411453247 287.0 1.000 1.000 1.000
v 1176.122543334961 -179.54060411453247 -22.0 1.000 1.000 1.000
v 1178.122543334961 -125.54060411453247 -37.0 1.000 1.000 1.000
v 1177.122543334961 -167.54060411453247 68.0 1.000 1.000 1.000
v 1175.6758270263672 -181.40211296081543 116.0 1.000 1.000 1.000
v 1176.6758270263672 -68.40211296081543 90.0 1.000 1.000 1.000
v 806.6758270263672 -57.40211296081543 72.0 1.000 1.000 1.000
v 1176.6758270263672 -68.40211296081543 -65.0 1.000 1.000 1.000
v 824.6758270263672 -57.40211296081543 -8.0 1.000 1.000 1.000
v 826.6758270263672 -158.40211296081543 126.0 1.000 1.000 1.000
v 824.6758270263672 -216.40211296081543 11.0 1.000 1.000 1.000
v 822.6758270263672 -148.40211296081543 -75.0 1.000 1.000 1.000
v 1174.6758270263672 -206.40211296081543 -63.0 1.000 1.000 1.000
v 1176.6758270263672 -68.40211296081543 -65.0 1.000 1.000 1.000
v 1176.6758270263672 -68.40211296081543 90.0 1.000 1.000 1.000
v 1175.6758270263672 -181.40211296081543 116.0 1.000 1.000 1.000
v 1174.6758270263672 -206.40211296081543 -63.0 1.000 1.000 1.000
v 1178.122543334961 -125.54060411453247 -37.0 1.000 1.000 1.000
v 1178.122543334961 -108.54060411453247 39.0 1.000 1.000 1.000
v 1177.122543334961 -167.54060411453247 68.0 1.000 1.000 1.000
v 1176.122543334961 -179.54060411453247 -22.0 1.000 1.000 1.000
v 666.6758270263672 -153.40211296081543 131.0 1.000 1.000 1.000
v 673.6758270263672 -54.40211296081543 74.0 1.000 1.000 1.000
v 683.6758270263672 -55.40211296081543 -8.0 1.000 1.000 1.000
v 680.6758270263672 -145.40211296081543 -76.0 1.000 1.000 1.000
v 680.6758270263672 -216.40211296081543 16.0 1.000 1.000 1.000
v 806.6758270263672 -57.40211296081543 72.0 1.000 1.000 1.000
v 826.6758270263672 -158.40211296081543 126.0 1.000 1.000 1.000
v 824.6758270263672 -57.40211296081543 -8.0 1.000 1.000 1.000
v 822.6758270263672 -148.40211296081543 -75.0 1.000 1.000 1.000
v 824.6758270263672 -216.40211296081543 11.0 1.000 1.000 1.000
v 1176.6758270263672 -67.40211296081543 116.0 1.000 1.000 1.000
v 673.6758270263672 -169.40211296081543 119.0 1.000 1.000 1.000
v 1176.6758270263672 -183.40211296081543 116.0 1.000 1.000 1.000
v 1176.6758270263672 -98.40211296081543 -67.0 1.000 1.000 1.000
v 673.6758270263672 -145.40211296081543 -67.0 1.000 1.000 1.000
v 673.6758270263672 -70.40211296081543 38.0 1.000 1.000 1.000
v 673.6758270263672 -232.40211296081543 13.0 1.000 1.000 1.000
v 1176.6758270263672 -206.40211296081543 -56.0 1.000 1.000 1.000
v 673.6758270263672 -232.40211296081543 13.0 1.000 1.000 1.000
v 673.6758270263672 -169.40211296081543 119.0 1.000 1.000 1.000
v 334.5017852783203 -174.1219711303711 146.0 1.000 1.000 1.000
v 333.5017852783203 -228.1219711303711 24.0 1.000 1.000 1.000
v 564.5017852783203 -152.1219711303711 131.0 1.000 1.000 1.000
v 568.5017852783203 -217.1219711303711 13.0 1.000 1.000 1.000
v 333.5017852783203 -145.1219711303711 -89.0 1.000 1.000 1.000
v 515.5017852783203 -46.121971130371094 6.0 1.000 1.000 1.000
v 427.5017852783203 -140.1219711303711 -77.0 1.000 1.000 1.000
v 334.5017852783203 -77.1219711303711 95.0 1.000 1.000 1.000
v 334.5017852783203 -47.121971130371094 -21.0 1.000 1.000 1.000
v 540.5017852783203 -51.121971130371094 91.0 1.000 1.000 1.000
v 110.0 -157.0 -88.0 1.000 1.000 1.000
v 179.0 -79.0 30.0 1.000 1.000 1.000
v 80.0 -175.0 170.0 1.000 1.000 1.000
v -2.0 -263.0 175.0 1.000 1.000 1.000
v 20.0 -260.0 -109.0 1.000 1.000 1.000
v 334.5017852783203 -47.121971130371094 -21.0 1.000 1.000 1.000
v 333.5017852783203 -145.1219711303711 -89.0 1.000 1.000 1.000
v 334.5017852783203 -77.1219711303711 95.0 1.000 1.000 1.000
v 334.5017852783203 -174.1219711303711 146.0 1.000 1.000 1.000
v 333.5017852783203 -228.1219711303711 24.0 1.000 1.000 1.000
v 515.5017852783203 -46.121971130371094 6.0 1.000 1.000 1.000
v 540.5017852783203 -51.121971130371094 91.0 1.000 1.000 1.000
v 427.5017852783203 -140.1219711303711 -77.0 1.000 1.000 1.000
v 568.5017852783203 -217.1219711303711 13.0 1.000 1.000 1.000
v 564.5017852783203 -152.1219711303711 131.0 1.000 1.000 1.000
v 683.6758270263672 -55.40211296081543 -8.0 1.000 1.000 1.000
v 680.6758270263672 -145.40211296081543 -76.0 1.000 1.000 1.000
v 680.6758270263672 -216.40211296081543 16.0 1.000 1.000 1.000
v 666.6758270263672 -153.40211296081543 131.0 1.000 1.000 1.000
v 673.6758270263672 -54.40211296081543 74.0 1.000 1.000 1.000
v 260.5017852783203 -190.1219711303711 136.0 1.000 1.000 1.000
v 260.5017852783203 -230.1219711303711 20.0 1.000 1.000 1.000
v 673.5017852783203 -169.1219711303711 119.0 1.000 1.000 1.000
v 673.5017852783203 -232.1219711303711 13.0 1.000 1.000 1.000
v 260.5017852783203 -161.1219711303711 -98.0 1.000 1.000 1.000
v 261.5017852783203 -76.1219711303711 27.0 1.000 1.000 1.000
v 673.5017852783203 -70.1219711303711 38.0 1.000 1.000 1.000
v 673.5017852783203 -145.1219711303711 -67.0 1.000 1.000 1.000
v 260.5017852783203 -161.1219711303711 -98.0 1.000 1.000 1.000
v 260.5017852783203 -230.1219711303711 20.0 1.000 1.000 1.000
v 260.5017852783203 -190.1219711303711 136.0 1.000 1.000 1.000
v 261.5017852783203 -76.1219711303711 27.0 1.000 1.000 1.000
v 673.5017852783203 -232.1219711303711 13.0 1.000 1.000 1.000
v 673.5017852783203 -169.1219711303711 119.0 1.000 1.000 1.000
v -303.189453125 450.56655299663544 84.0 1.000 1.000 1.000
v -238.189453125 520.5665529966354 0.0 1.000 1.000 1.000
v -372.189453125 520.5665529966354 0.0 1.000 1.000 1.000
v -372.189453125 520.5665529966354 0.0 1.000 1.000 1.000
v -238.189453125 520.5665529966354 0.0 1.000 1.000 1.000
v -238.189453125 520.5665529966354 0.0 1.000 1.000 1.000
v -276.189453125 490.56655299663544 -45.0 1.000 1.000 1.000
v -1.088655948638916 518.0343627929688 83.0 1.000 1.000 1.000
v -57.088655948638916 536.0343627929688 44.0 1.000 1.000 1.000
v 53.911344051361084 535.0343627929688 44.0 1.000 1.000 1.000
v -57.088655948638916 536.0343627929688 44.0 1.000 1.000 1.000
v -51.088655948638916 549.0343627929688 -31.0 1.000 1.000 1.000
v 30.911344051361084 548.0343627929688 -37.0 1.000 1.000 1.000
v 53.911344051361084 535.0343627929688 44.0 1.000 1.000 1.000
v 30.911344051361084 548.0343627929688 -37.0 1.000 1.000 1.000
v -372.189453125 520.5665529966354 0.0 1.000 1.000 1.000
v -348.189453125 491.56655299663544 -41.0 1.000 1.000 1.000
v -276.189453125 490.56655299663544 -45.0 1.000 1.000 1.000
v -51.088655948638916 549.0343627929688 -31.0 1.000 1.000 1.000
v 30.911344051361084 548.0343627929688 -37.0 1.000 1.000 1.000
v 19.911344051361084 770.0343627929688 137.0 1.000 1.000 1.000
v -59.088655948638916 788.0343627929688 83.0 1.000 1.000 1.000
v -26.088655948638916 770.0343627929688 137.0 1.000 1.000 1.000
v 55.911344051361084 787.0343627929688 84.0 1.000 1.000 1.000
v 55.911344051361084 787.0343627929688 84.0 1.000 1.000 1.000
v -2.088655948638916 790.0343627929688 -4.0 1.000 1.000 1.000
v -59.088655948638916 788.0343627929688 83.0 1.000 1.000 1.000
v -38.088655948638916 757.0343627929688 -42.0 1.000 1.000 1.000
v 60.911344051361084 678.0343627929688 -57.0 1.000 1.000 1.000
v -45.088655948638916 567.0343627929688 -33.0 1.000 1.000 1.000
v -70.08865594863892 678.0343627929688 -57.0 1.000 1.000 1.000
v 45.911344051361084 568.0343627929688 -33.0 1.000 1.000 1.000
v 33.911344051361084 757.0343627929688 -42.0 1.000 1.000 1.000
v 40.911344051361084 522.0343627929688 144.0 1.000 1.000 1.000
v 54.911344051361084 553.0343627929688 53.0 1.000 1.000 1.000
v 58.911344051361084 668.0343627929688 119.0 1.000 1.000 1.000
v 73.91134405136108 731.0343627929688 13.0 1.000 1.000 1.000
v 60.911344051361084 678.0343627929688 -57.0 1.000 1.000 1.000
v 33.911344051361084 757.0343627929688 -42.0 1.000 1.000 1.000
v 58.911344051361084 668.0343627929688 119.0 1.000 1.000 1.000
v 89.91134405136108 674.0343627929688 44.0 1.000 1.000 1.000
v 86.91134405136108 746.0343627929688 120.0 1.000 1.000 1.000
v 61.911344051361084 558.0343627929688 29.0 1.000 1.000 1.000
v 45.911344051361084 568.0343627929688 -33.0 1.000 1.000 1.000
v 54.911344051361084 553.0343627929688 53.0 1.000 1.000 1.000
v 40.911344051361084 522.0343627929688 144.0 1.000 1.000 1.000
v -1.088655948638916 518.0343627929688 83.0 1.000 1.000 1.000
v -2.088655948638916 790.0343627929688 -4.0 1.000 1.000 1.000
v 55.911344051361084 787.0343627929688 84.0 1.000 1.000 1.000
v 30.911344051361084 548.0343627929688 -37.0 1.000 1.000 1.000
v 53.911344051361084 535.0343627929688 44.0 1.000 1.000 1.000
v 58.911344051361084 668.0343627929688 119.0 1.000 1.000 1.000
v 86.91134405136108 746.0343627929688 120.0 1.000 1.000 1.000
v 26.911344051361084 712.0343627929688 145.0 1.000 1.000 1.000
v -11.088655948638916 668.0343627929688 142.0 1.000 1.000 1.000
v -11.088655948638916 615.0343627929688 166.0 1.000 1.000 1.000
v 4.911344051361084 668.0343627929688 142.0 1.000 1.000 1.000
v 5.911344051361084 615.0343627929688 166.0 1.000 1.000 1.000
v 19.911344051361084 615.0343627929688 154.0 1.000 1.000 1.000
v 40.911344051361084 522.0343627929688 144.0 1.000 1.000 1.000
v -46.088655948638916 522.0343627929688 144.0 1.000 1.000 1.000
v -1.088655948638916 518.0343627929688 132.0 1.000 1.000 1.000
v -71.08865594863892 668.0343627929688 119.0 1.000 1.000 1.000
v -26.088655948638916 615.0343627929688 154.0 1.000 1.000 1.000
v 19.911344051361084 770.0343627929688 137.0 1.000 1.000 1.000
v -0.08865594863891602 701.0343627929688 150.0 1.000 1.000 1.000
v -26.088655948638916 770.0343627929688 137.0 1.000 1.000 1.000
v -59.088655948638916 788.0343627929688 83.0 1.000 1.000 1.000
v -89.08865594863892 746.0343627929688 120.0 1.000 1.000 1.000
v 40.911344051361084 522.0343627929688 144.0 1.000 1.000 1.000
v 19.911344051361084 615.0343627929688 154.0 1.000 1.000 1.000
v -26.088655948638916 615.0343627929688 154.0 1.000 1.000 1.000
v -11.088655948638916 668.0343627929688 142.0 1.000 1.000 1.000
v 4.911344051361084 668.0343627929688 142.0 1.000 1.000 1.000
v -0.08865594863891602 701.0343627929688 150.0 1.000 1.000 1.000
v 58.911344051361084 668.0343627929688 119.0 1.000 1.000 1.000
v -1.088655948638916 518.0343627929688 83.0 1.000 1.000 1.000
v -1.088655948638916 518.0343627929688 132.0 1.000 1.000 1.000
v -46.088655948638916 522.0343627929688 144.0 1.000 1.000 1.000
v -71.08865594863892 668.0343627929688 119.0 1.000 1.000 1.000
v -33.088655948638916 712.0343627929688 142.0 1.000 1.000 1.000
v -11.088655948638916 615.0343627929688 166.0 1.000 1.000 1.000
v 86.91134405136108 746.0343627929688 120.0 1.000 1.000 1.000
v 55.911344051361084 787.0343627929688 84.0 1.000 1.000 1.000
v 19.911344051361084 770.0343627929688 137.0 1.000 1.000 1.000
v -26.088655948638916 770.0343627929688 137.0 1.000 1.000 1.000
v -0.08865594863891602 701.0343627929688 150.0 1.000 1.000 1.000
v 26.911344051361084 712.0343627929688 145.0 1.000 1.000 1.000
v -89.08865594863892 746.0343627929688 120.0 1.000 1.000 1.000
v -33.088655948638916 712.0343627929688 142.0 1.000 1.000 1.000
v 4.911344051361084 668.0343627929688 142.0 1.000 1.000 1.000
v 58.911344051361084 668.0343627929688 119.0 1.000 1.000 1.000
v -71.08865594863892 668.0343627929688 119.0 1.000 1.000 1.000
v -71.08865594863892 668.0343627929688 119.0 1.000 1.000 1.000
v -89.08865594863892 746.0343627929688 120.0 1.000 1.000 1.000
v -98.08865594863892 678.0343627929688 44.0 1.000 1.000 1.000
v -68.08865594863892 557.0343627929688 29.0 1.000 1.000 1.000
v -64.08865594863892 553.0343627929688 53.0 1.000 1.000 1.000
v -76.08865594863892 733.0343627929688 10.0 1.000 1.000 1.000
v -70.08865594863892 678.0343627929688 -57.0 1.000 1.000 1.000
v -98.08865594863892 678.0343627929688 44.0 1.000 1.000 1.000
v -45.088655948638916 567.0343627929688 -33.0 1.000 1.000 1.000
v -68.08865594863892 557.0343627929688 29.0 1.000 1.000 1.000
v -71.08865594863892 668.0343627929688 119.0 1.000 1.000 1.000
v -64.08865594863892 553.0343627929688 53.0 1.000 1.000 1.000
v -46.088655948638916 522.0343627929688 144.0 1.000 1.000 1.000
v -1.088655948638916 518.0343627929688 83.0 1.000 1.000 1.000
v -38.088655948638916 757.0343627929688 -42.0 1.000 1.000 1.000
v -89.08865594863892 746.0343627929688 120.0 1.000 1.000 1.000
v -59.088655948638916 788.0343627929688 83.0 1.000 1.000 1.000
v -57.088655948638916 536.0343627929688 44.0 1.000 1.000 1.000
v -51.088655948638916 549.0343627929688 -31.0 1.000 1.000 1.000
v -51.088655948638916 549.0343627929688 -31.0 1.000 1.000 1.000
v -45.088655948638916 567.0343627929688 -33.0 1.000 1.000 1.000
v 30.911344051361084 548.0343627929688 -37.0 1.000 1.000 1.000
v 45.911344051361084 568.0343627929688 -33.0 1.000 1.000 1.000
v -40.088655948638916 593.0343627929688 -43.0 1.000 1.000 1.000
v 38.911344051361084 594.0343627929688 -43.0 1.000 1.000 1.000
v 38.911344051361084 522.0343627929688 144.0 1.000 1.000 1.000
v -40.088655948638916 522.0343627929688 144.0 1.000 1.000 1.000
v 38.911344051361084 522.0343627929688 144.0 1.000 1.000 1.000
v 38.911344051361084 594.0343627929688 -43.0 1.000 1.000 1.000
v 52.911344051361084 754.0343627929688 -45.0 1.000 1.000 1.000
v 61.911344051361084 743.0343627929688 134.0 1.000 1.000 1.000
v -40.088655948638916 522.0343627929688 144.0 1.000 1.000 1.000
v 38.911344051361084 522.0343627929688 144.0 1.000 1.000 1.000
v 61.911344051361084 743.0343627929688 134.0 1.000 1.000 1.000
v -64.08865594863892 743.0343627929688 134.0 1.000 1.000 1.000
v -64.08865594863892 743.0343627929688 134.0 1.000 1.000 1.000
v 61.911344051361084 743.0343627929688 134.0 1.000 1.000 1.000
v 52.911344051361084 754.0343627929688 -45.0 1.000 1.000 1.000
v -54.088655948638916 754.0343627929688 -45.0 1.000 1.000 1.000
v -64.08865594863892 743.0343627929688 134.0 1.000 1.000 1.000
v -54.088655948638916 754.0343627929688 -45.0 1.000 1.000 1.000
v -40.088655948638916 593.0343627929688 -43.0 1.000 1.000 1.000
v -40.088655948638916 522.0343627929688 144.0 1.000 1.000 1.000
v 38.911344051361084 594.0343627929688 -43.0 1.000 1.000 1.000
v -40.088655948638916 593.0343627929688 -43.0 1.000 1.000 1.000
v -54.088655948638916 754.0343627929688 -45.0 1.000 1.000 1.000
v 52.911344051361084 754.0343627929688 -45.0 1.000 1.000 1.000
v -940.8224775791168 430.7893694639206 66.0 1.000 1.000 1.000
v -891.8224775791168 517.7893694639206 -33.0 1.000 1.000 1.000
v -926.8224775791168 436.7893694639206 -53.0 1.000 1.000 1.000
v -905.8224775791168 546.7893694639206 62.0 1.000 1.000 1.000
v -891.8224775791168 517.7893694639206 -33.0 1.000 1.000 1.000
v -768.8224775791168 490.7893694639206 50.0 1.000 1.000 1.000
v -780.8224775791168 475.7893694639206 -33.0 1.000 1.000 1.000
v -905.8224775791168 546.7893694639206 62.0 1.000 1.000 1.000
v -780.8224775791168 475.7893694639206 -33.0 1.000 1.000 1.000
v -926.8224775791168 436.7893694639206 -53.0 1.000 1.000 1.000
v -891.8224775791168 517.7893694639206 -33.0 1.000 1.000 1.000
v -783.8224775791168 435.7893694639206 -28.0 1.000 1.000 1.000
v -768.8224775791168 490.7893694639206 50.0 1.000 1.000 1.000
v -940.8224775791168 430.7893694639206 66.0 1.000 1.000 1.000
v -772.8224775791168 426.7893694639206 46.0 1.000 1.000 1.000
v -905.8224775791168 546.7893694639206 62.0 1.000 1.000 1.000
v -926.8224775791168 436.7893694639206 -53.0 1.000 1.000 1.000
v -772.8224775791168 426.7893694639206 46.0 1.000 1.000 1.000
v -940.8224775791168 430.7893694639206 66.0 1.000 1.000 1.000
v -783.8224775791168 435.7893694639206 -28.0 1.000 1.000 1.000
v -569.6330244541168 403.22281646728516 55.0 1.000 1.000 1.000
v -576.6330244541168 479.22281646728516 73.0 1.000 1.000 1.000
v -570.6330244541168 400.22281646728516 -12.0 1.000 1.000 1.000
v -571.6330244541168 466.22281646728516 -55.0 1.000 1.000 1.000
v -569.6330244541168 527.2228164672852 6.0 1.000 1.000 1.000
v -772.8224775791168 426.7893694639206 46.0 1.000 1.000 1.000
v -783.8224775791168 435.7893694639206 -28.0 1.000 1.000 1.000
v -768.8224775791168 490.7893694639206 50.0 1.000 1.000 1.000
v -780.8224775791168 475.7893694639206 -33.0 1.000 1.000 1.000
v -482.6330244541168 520.2228164672852 7.0 1.000 1.000 1.000
v -484.6330244541168 466.22281646728516 -39.0 1.000 1.000 1.000
v -483.6330244541168 399.22281646728516 -12.0 1.000 1.000 1.000
v -482.6330244541168 407.22281646728516 61.0 1.000 1.000 1.000
v -482.6330244541168 516.2228164672852 59.0 1.000 1.000 1.000
v -569.6330244541168 527.2228164672852 6.0 1.000 1.000 1.000
v -571.6330244541168 466.22281646728516 -55.0 1.000 1.000 1.000
v -570.6330244541168 400.22281646728516 -12.0 1.000 1.000 1.000
v -569.6330244541168 403.22281646728516 55.0 1.000 1.000 1.000
v -576.6330244541168 479.22281646728516 73.0 1.000 1.000 1.000
v -459.6330244541168 384.22281646728516 85.0 1.000 1.000 1.000
v -464.6330244541168 506.22281646728516 89.0 1.000 1.000 1.000
v -776.6330244541168 424.22281646728516 42.0 1.000 1.000 1.000
v -776.6330244541168 432.22281646728516 -25.0 1.000 1.000 1.000
v -459.6330244541168 381.22281646728516 -28.0 1.000 1.000 1.000
v -778.6330244541168 500.22281646728516 42.0 1.000 1.000 1.000
v -464.6330244541168 521.2228164672852 -49.0 1.000 1.000 1.000
v -778.6330244541168 481.22281646728516 -27.0 1.000 1.000 1.000
v -398.29162430763245 413.94470977783203 74.0 1.000 1.000 1.000
v -320.29162430763245 390.94470977783203 -19.0 1.000 1.000 1.000
v -309.29162430763245 394.94470977783203 79.0 1.000 1.000 1.000
v -217.29162430763245 459.94470977783203 106.0 1.000 1.000 1.000
v -391.29162430763245 470.94470977783203 98.0 1.000 1.000 1.000
v -310.29162430763245 473.94470977783203 -66.0 1.000 1.000 1.000
v -159.29162430763245 502.94470977783203 13.0 1.000 1.000 1.000
v -201.29162430763245 451.94470977783203 -80.0 1.000 1.000 1.000
v -389.29162430763245 386.94470977783203 -12.0 1.000 1.000 1.000
v -320.29162430763245 533.944709777832 25.0 1.000 1.000 1.000
v -526.189453125 264.56655299663544 81.0 1.000 1.000 1.000
v -524.189453125 249.56655299663544 -23.0 1.000 1.000 1.000
v -532.189453125 424.56655299663544 -61.0 1.000 1.000 1.000
v -531.189453125 459.56655299663544 16.0 1.000 1.000 1.000
v -533.189453125 400.56655299663544 90.0 1.000 1.000 1.000
v -320.29162430763245 390.94470977783203 -19.0 1.000 1.000 1.000
v -309.29162430763245 394.94470977783203 79.0 1.000 1.000 1.000
v -201.29162430763245 451.94470977783203 -80.0 1.000 1.000 1.000
v -159.29162430763245 502.94470977783203 13.0 1.000 1.000 1.000
v -217.29162430763245 459.94470977783203 106.0 1.000 1.000 1.000
v -320.29162430763245 533.944709777832 25.0 1.000 1.000 1.000
v -310.29162430763245 473.94470977783203 -66.0 1.000 1.000 1.000
v -389.29162430763245 386.94470977783203 -12.0 1.000 1.000 1.000
v -398.29162430763245 413.94470977783203 74.0 1.000 1.000 1.000
v -391.29162430763245 470.94470977783203 98.0 1.000 1.000 1.000
v -482.6330244541168 520.2228164672852 7.0 1.000 1.000 1.000
v -484.6330244541168 466.22281646728516 -39.0 1.000 1.000 1.000
v -483.6330244541168 399.22281646728516 -12.0 1.000 1.000 1.000
v -482.6330244541168 407.22281646728516 61.0 1.000 1.000 1.000
v -482.6330244541168 516.2228164672852 59.0 1.000 1.000 1.000
v -192.29162430763245 483.94470977783203 111.0 1.000 1.000 1.000
v -122.29162430763245 367.94470977783203 107.0 1.000 1.000 1.000
v -95.29162430763245 363.94470977783203 -73.0 1.000 1.000 1.000
v -187.29162430763245 499.94470977783203 -53.0 1.000 1.000 1.000
v -459.29162430763245 383.94470977783203 85.0 1.000 1.000 1.000
v -95.29162430763245 363.94470977783203 -73.0 1.000 1.000 1.000
v -122.29162430763245 367.94470977783203 107.0 1.000 1.000 1.000
v -464.29162430763245 505.94470977783203 89.0 1.000 1.000 1.000
v -464.29162430763245 520.944709777832 -49.0 1.000 1.000 1.000
v -459.29162430763245 380.94470977783203 -28.0 1.000 1.000 1.000
v 443.88250732421875 -30.7070269882679 -51.320719718933105 1.000 1.000 1.000
v 405.88250732421875 46.2929730117321 -33.320719718933105 1.000 1.000 1.000
v 456.88250732421875 -35.7070269882679 67.6792802810669 1.000 1.000 1.000
v 418.88250732421875 77.2929730117321 60.679280281066895 1.000 1.000 1.000
v 294.88250732421875 7.292973011732101 -34.320719718933105 1.000 1.000 1.000
v 281.88250732421875 24.2929730117321 47.679280281066895 1.000 1.000 1.000
v 405.88250732421875 46.2929730117321 -33.320719718933105 1.000 1.000 1.000
v 418.88250732421875 77.2929730117321 60.679280281066895 1.000 1.000 1.000
v 405.88250732421875 46.2929730117321 -33.320719718933105 1.000 1.000 1.000
v 443.88250732421875 -30.7070269882679 -51.320719718933105 1.000 1.000 1.000
v 294.88250732421875 7.292973011732101 -34.320719718933105 1.000 1.000 1.000
v 298.88250732421875 -32.7070269882679 -28.320719718933105 1.000 1.000 1.000
v 285.88250732421875 -39.7070269882679 44.679280281066895 1.000 1.000 1.000
v 456.88250732421875 -35.7070269882679 67.6792802810669 1.000 1.000 1.000
v 281.88250732421875 24.2929730117321 47.679280281066895 1.000 1.000 1.000
v 418.88250732421875 77.2929730117321 60.679280281066895 1.000 1.000 1.000
v 456.88250732421875 -35.7070269882679 67.6792802810669 1.000 1.000 1.000
v 285.88250732421875 -39.7070269882679 44.679280281066895 1.000 1.000 1.000
v 443.88250732421875 -30.7070269882679 -51.320719718933105 1.000 1.000 1.000
v 298.88250732421875 -32.7070269882679 -28.320719718933105 1.000 1.000 1.000
v 586.775865316391 475.1907958984375 76.68687725067139 1.000 1.000 1.000
v 579.775865316391 390.1907958984375 58.68687725067139 1.000 1.000 1.000
v 581.775865316391 385.1907958984375 -7.313122749328613 1.000 1.000 1.000
v 582.775865316391 460.1907958984375 -51.31312274932861 1.000 1.000 1.000
v 580.775865316391 522.1907958984375 8.686877250671387 1.000 1.000 1.000
v 285.88250732421875 -39.7070269882679 44.679280281066895 1.000 1.000 1.000
v 298.88250732421875 -32.7070269882679 -28.320719718933105 1.000 1.000 1.000
v 281.88250732421875 24.2929730117321 47.679280281066895 1.000 1.000 1.000
v 294.88250732421875 7.292973011732101 -34.320719718933105 1.000 1.000 1.000
v 493.775865316391 517.1907958984375 7.686877250671387 1.000 1.000 1.000
v 495.775865316391 460.1907958984375 -36.31312274932861 1.000 1.000 1.000
v 494.775865316391 384.1907958984375 -8.313122749328613 1.000 1.000 1.000
v 492.775865316391 394.1907958984375 63.68687725067139 1.000 1.000 1.000
v 492.775865316391 514.1907958984375 59.68687725067139 1.000 1.000 1.000
v 582.775865316391 460.1907958984375 -51.31312274932861 1.000 1.000 1.000
v 580.775865316391 522.1907958984375 8.686877250671387 1.000 1.000 1.000
v 581.775865316391 385.1907958984375 -7.313122749328613 1.000 1.000 1.000
v 579.775865316391 390.1907958984375 58.68687725067139 1.000 1.000 1.000
v 586.775865316391 475.1907958984375 76.68687725067139 1.000 1.000 1.000
v 782.775865316391 414.1907958984375 50.68687725067139 1.000 1.000 1.000
v 469.775865316391 491.1907958984375 91.68687725067139 1.000 1.000 1.000
v 466.775865316391 369.1907958984375 88.68687725067139 1.000 1.000 1.000
v 468.775865316391 364.1907958984375 -24.313122749328613 1.000 1.000 1.000
v 783.775865316391 421.1907958984375 -16.313122749328613 1.000 1.000 1.000
v 471.775865316391 503.1907958984375 -47.31312274932861 1.000 1.000 1.000
v 783.775865316391 490.1907958984375 49.68687725067139 1.000 1.000 1.000
v 785.775865316391 469.1907958984375 -19.313122749328613 1.000 1.000 1.000
v 316.42277693748474 392.52616119384766 83.0 1.000 1.000 1.000
v 329.42277693748474 385.52616119384766 -15.0 1.000 1.000 1.000
v 407.42277693748474 410.52616119384766 74.0 1.000 1.000 1.000
v 399.42277693748474 468.52616119384766 96.0 1.000 1.000 1.000
v 224.42277693748474 457.52616119384766 107.0 1.000 1.000 1.000
v 210.42277693748474 446.52616119384766 -79.0 1.000 1.000 1.000
v 168.42277693748474 498.52616119384766 12.0 1.000 1.000 1.000
v 321.42277693748474 468.52616119384766 -69.0 1.000 1.000 1.000
v 400.42277693748474 379.52616119384766 -12.0 1.000 1.000 1.000
v 329.42277693748474 529.5261611938477 21.0 1.000 1.000 1.000
v -62.189453125 264.56655299663544 80.0 1.000 1.000 1.000
v -65.189453125 251.56655299663544 -20.0 1.000 1.000 1.000
v -60.189453125 424.56655299663544 -59.0 1.000 1.000 1.000
v -60.189453125 463.56655299663544 14.0 1.000 1.000 1.000
v -61.189453125 401.56655299663544 90.0 1.000 1.000 1.000
v 316.42277693748474 392.52616119384766 83.0 1.000 1.000 1.000
v 329.42277693748474 385.52616119384766 -15.0 1.000 1.000 1.000
v 210.42277693748474 446.52616119384766 -79.0 1.000 1.000 1.000
v 168.42277693748474 498.52616119384766 12.0 1.000 1.000 1.000
v 224.42277693748474 457.52616119384766 107.0 1.000 1.000 1.000
v 329.42277693748474 529.5261611938477 21.0 1.000 1.000 1.000
v 321.42277693748474 468.52616119384766 -69.0 1.000 1.000 1.000
v 400.42277693748474 379.52616119384766 -12.0 1.000 1.000 1.000
v 407.42277693748474 410.52616119384766 74.0 1.000 1.000 1.000
v 399.42277693748474 468.52616119384766 96.0 1.000 1.000 1.000
v 495.775865316391 460.1907958984375 -36.31312274932861 1.000 1.000 1.000
v 493.775865316391 517.1907958984375 7.686877250671387 1.000 1.000 1.000
v 494.775865316391 384.1907958984375 -8.313122749328613 1.000 1.000 1.000
v 492.775865316391 394.1907958984375 63.68687725067139 1.000 1.000 1.000
v 492.775865316391 514.1907958984375 59.68687725067139 1.000 1.000 1.000
v 129.42277693748474 347.52616119384766 106.0 1.000 1.000 1.000
v 105.42277693748474 339.52616119384766 -75.0 1.000 1.000 1.000
v 466.42277693748474 369.52616119384766 89.0 1.000 1.000 1.000
v 469.42277693748474 490.52616119384766 91.0 1.000 1.000 1.000
v 198.42277693748474 463.52616119384766 108.0 1.000 1.000 1.000
v 196.42277693748474 476.52616119384766 -55.0 1.000 1.000 1.000
v 471.42277693748474 503.52616119384766 -47.0 1.000 1.000 1.000
v 468.42277693748474 363.52616119384766 -24.0 1.000 1.000 1.000
v 129.42277693748474 347.52616119384766 106.0 1.000 1.000 1.000
v 105.42277693748474 339.52616119384766 -75.0 1.000 1.000 1.000
v -60.189453125 463.56655299663544 14.0 1.000 1.000 1.000
v -238.189453125 520.5665529966354 0.0 1.000 1.000 1.000
v -303.189453125 450.56655299663544 84.0 1.000 1.000 1.000
v -533.189453125 400.56655299663544 90.0 1.000 1.000 1.000
v -302.189453125 310.56655299663544 206.0 1.000 1.000 1.000
v -61.189453125 401.56655299663544 90.0 1.000 1.000 1.000
v -111.189453125 294.56655299663544 172.0 1.000 1.000 1.000
v -479.189453125 294.56655299663544 173.0 1.000 1.000 1.000
v -495.189453125 55.56655299663544 24.0 1.000 1.000 1.000
v -385.189453125 114.56655299663544 195.0 1.000 1.000 1.000
v -531.189453125 459.56655299663544 16.0 1.000 1.000 1.000
v -372.189453125 520.5665529966354 0.0 1.000 1.000 1.000
v -214.189453125 114.56655299663544 195.0 1.000 1.000 1.000
v -524.189453125 249.56655299663544 -23.0 1.000 1.000 1.000
v -526.189453125 264.56655299663544 81.0 1.000 1.000 1.000
v -62.189453125 264.56655299663544 80.0 1.000 1.000 1.000
v -62.189453125 264.56655299663544 80.0 1.000 1.000 1.000
v -111.189453125 294.56655299663544 172.0 1.000 1.000 1.000
v -111.189453125 57.56655299663544 25.0 1.000 1.000 1.000
v -302.189453125 310.56655299663544 206.0 1.000 1.000 1.000
v -479.189453125 294.56655299663544 173.0 1.000 1.000 1.000
v -385.189453125 114.56655299663544 195.0 1.000 1.000 1.000
v -533.189453125 400.56655299663544 90.0 1.000 1.000 1.000
v -526.189453125 264.56655299663544 81.0 1.000 1.000 1.000
v -495.189453125 55.56655299663544 24.0 1.000 1.000 1.000
v -65.189453125 251.56655299663544 -20.0 1.000 1.000 1.000
v -214.189453125 114.56655299663544 195.0 1.000 1.000 1.000
v -301.189453125 221.56655299663544 -101.0 1.000 1.000 1.000
v -178.189453125 60.56655299663544 -81.0 1.000 1.000 1.000
v -430.189453125 59.56655299663544 -79.0 1.000 1.000 1.000
v -384.189453125 402.56655299663544 -115.0 1.000 1.000 1.000
v -426.189453125 237.56655299663544 -89.0 1.000 1.000 1.000
v -60.189453125 463.56655299663544 14.0 1.000 1.000 1.000
v -276.189453125 490.56655299663544 -45.0 1.000 1.000 1.000
v -238.189453125 520.5665529966354 0.0 1.000 1.000 1.000
v -426.189453125 237.56655299663544 -89.0 1.000 1.000 1.000
v -301.189453125 221.56655299663544 -101.0 1.000 1.000 1.000
v -430.189453125 59.56655299663544 -79.0 1.000 1.000 1.000
v -192.189453125 235.56655299663544 -95.0 1.000 1.000 1.000
v -65.189453125 251.56655299663544 -20.0 1.000 1.000 1.000
v -178.189453125 60.56655299663544 -81.0 1.000 1.000 1.000
v -60.189453125 424.56655299663544 -59.0 1.000 1.000 1.000
v -348.189453125 491.56655299663544 -41.0 1.000 1.000 1.000
v -531.189453125 459.56655299663544 16.0 1.000 1.000 1.000
v -372.189453125 520.5665529966354 0.0 1.000 1.000 1.000
v -532.189453125 424.56655299663544 -61.0 1.000 1.000 1.000
v -203.189453125 403.56655299663544 -116.0 1.000 1.000 1.000
v -384.189453125 402.56655299663544 -115.0 1.000 1.000 1.000
v -430.189453125 59.56655299663544 -79.0 1.000 1.000 1.000
v -495.189453125 55.56655299663544 24.0 1.000 1.000 1.000
v -524.189453125 249.56655299663544 -23.0 1.000 1.000 1.000
v -178.189453125 60.56655299663544 -81.0 1.000 1.000 1.000
v -65.189453125 251.56655299663544 -20.0 1.000 1.000 1.000
v -111.189453125 57.56655299663544 25.0 1.000 1.000 1.000
v -276.189453125 490.56655299663544 -45.0 1.000 1.000 1.000
v -60.189453125 424.56655299663544 -59.0 1.000 1.000 1.000
v -203.189453125 403.56655299663544 -116.0 1.000 1.000 1.000
v -192.189453125 235.56655299663544 -95.0 1.000 1.000 1.000
v -301.189453125 221.56655299663544 -101.0 1.000 1.000 1.000
v -426.189453125 237.56655299663544 -89.0 1.000 1.000 1.000
v -532.189453125 424.56655299663544 -61.0 1.000 1.000 1.000
v -384.189453125 402.56655299663544 -115.0 1.000 1.000 1.000
v 96.41240096092224 40.33209991455078 191.0 1.000 1.000 1.000
v 4.412400960922241 40.33209991455078 190.0 1.000 1.000 1.000
v -87.58759903907776 40.33209991455078 188.0 1.000 1.000 1.000
v -186.58759903907776 40.33209991455078 29.0 1.000 1.000 1.000
v 190.41240096092224 40.33209991455078 31.0 1.000 1.000 1.000
v -186.58759903907776 40.33209991455078 29.0 1.000 1.000 1.000
v -109.58759903907776 40.33209991455078 -85.0 1.000 1.000 1.000
v 6.412400960922241 40.33209991455078 -86.0 1.000 1.000 1.000
v 121.41240096092224 40.33209991455078 -88.0 1.000 1.000 1.000
v -214.189453125 114.56655299663544 195.0 1.000 1.000 1.000
v -385.189453125 114.56655299663544 195.0 1.000 1.000 1.000
v -111.189453125 57.56655299663544 25.0 1.000 1.000 1.000
v -495.189453125 55.56655299663544 24.0 1.000 1.000 1.000
v -495.189453125 55.56655299663544 24.0 1.000 1.000 1.000
v -430.189453125 59.56655299663544 -79.0 1.000 1.000 1.000
v -178.189453125 60.56655299663544 -81.0 1.000 1.000 1.000
v 121.41240096092224 40.33209991455078 -88.0 1.000 1.000 1.000
v 190.41240096092224 40.33209991455078 31.0 1.000 1.000 1.000
v -178.189453125 60.56655299663544 -81.0 1.000 1.000 1.000
v -111.189453125 57.56655299663544 25.0 1.000 1.000 1.000
v -77.189453125 433.56655299663544 175.0 1.000 1.000 1.000
v -555.189453125 472.56655299663544 -110.0 1.000 1.000 1.000
v -530.189453125 429.56655299663544 174.0 1.000 1.000 1.000
v -77.189453125 433.56655299663544 175.0 1.000 1.000 1.000
v -463.189453125 29.566552996635437 166.0 1.000 1.000 1.000
v -143.189453125 30.566552996635437 166.0 1.000 1.000 1.000
v -52.189453125 474.56655299663544 -108.0 1.000 1.000 1.000
v -475.189453125 24.566552996635437 -84.0 1.000 1.000 1.000
v -463.189453125 29.566552996635437 166.0 1.000 1.000 1.000
v -555.189453125 472.56655299663544 -110.0 1.000 1.000 1.000
v -140.189453125 25.566552996635437 -86.0 1.000 1.000 1.000
v -52.189453125 474.56655299663544 -108.0 1.000 1.000 1.000
v -143.189453125 30.566552996635437 166.0 1.000 1.000 1.000
v -530.189453125 429.56655299663544 174.0 1.000 1.000 1.000
v -77.189453125 433.56655299663544 175.0 1.000 1.000 1.000
v -475.189453125 24.566552996635437 -84.0 1.000 1.000 1.000
v -140.189453125 25.566552996635437 -86.0 1.000 1.000 1.000
v -463.189453125 29.566552996635437 166.0 1.000 1.000 1.000
v -143.189453125 30.566552996635437 166.0 1.000 1.000 1.000
v -52.189453125 474.56655299663544 -108.0 1.000 1.000 1.000
v -140.189453125 25.566552996635437 -86.0 1.000 1.000 1.000
v -475.189453125 24.566552996635437 -84.0 1.000 1.000 1.000
v -555.189453125 472.56655299663544 -110.0 1.000 1.000 1.000
v -180.0 -78.0 24.0 1.000 1.000 1.000
v -75.0 -179.0 166.0 1.000 1.000 1.000
v -84.0 -29.0 175.0 1.000 1.000 1.000
v 91.0 -26.0 178.0 1.000 1.000 1.000
v 80.0 -175.0 170.0 1.000 1.000 1.000
v 179.0 -79.0 30.0 1.000 1.000 1.000
v 0.0 -261.0 -111.0 1.000 1.000 1.000
v -2.0 -263.0 175.0 1.000 1.000 1.000
v -22.0 -260.0 -109.0 1.000 1.000 1.000
v 1.0 -185.0 177.0 1.000 1.000 1.000
v -2.0 -263.0 175.0 1.000 1.000 1.000
v 1.0 -185.0 177.0 1.000 1.000 1.000
v 4.0 -28.0 176.0 1.000 1.000 1.000
v -179.0 -23.0 24.0 1.000 1.000 1.000
v 20.0 -260.0 -109.0 1.000 1.000 1.000
v 0.0 -261.0 -111.0 1.000 1.000 1.000
v 80.0 -175.0 170.0 1.000 1.000 1.000
v 91.0 -26.0 178.0 1.000 1.000 1.000
v 4.0 -28.0 176.0 1.000 1.000 1.000
v 1.0 -185.0 177.0 1.000 1.000 1.000
v 4.0 -28.0 176.0 1.000 1.000 1.000
v -75.0 -179.0 166.0 1.000 1.000 1.000
v 1.0 -185.0 177.0 1.000 1.000 1.000
v 181.0 -18.0 26.0 1.000 1.000 1.000
v 179.0 -79.0 30.0 1.000 1.000 1.000
v 116.0 -12.0 -88.0 1.000 1.000 1.000
v 110.0 -157.0 -88.0 1.000 1.000 1.000
v 0.0 -261.0 -111.0 1.000 1.000 1.000
v 0.0 -117.0 -86.0 1.000 1.000 1.000
v 20.0 -260.0 -109.0 1.000 1.000 1.000
v -109.0 -160.0 -84.0 1.000 1.000 1.000
v 0.0 -117.0 -86.0 1.000 1.000 1.000
v -22.0 -260.0 -109.0 1.000 1.000 1.000
v 0.0 -261.0 -111.0 1.000 1.000 1.000
v 0.0 -117.0 -86.0 1.000 1.000 1.000
v 116.0 -12.0 -88.0 1.000 1.000 1.000
v 110.0 -157.0 -88.0 1.000 1.000 1.000
v 5.0 -13.0 -86.0 1.000 1.000 1.000
v 181.0 -18.0 26.0 1.000 1.000 1.000
v 179.0 -79.0 30.0 1.000 1.000 1.000
v 20.0 -260.0 -109.0 1.000 1.000 1.000
v -105.0 -14.0 -85.0 1.000 1.000 1.000
v 5.0 -13.0 -86.0 1.000 1.000 1.000
v -179.0 -23.0 24.0 1.000 1.000 1.000
v -180.0 -78.0 24.0 1.000 1.000 1.000
v -84.0 -29.0 175.0 1.000 1.000 1.000
v 4.0 -28.0 176.0 1.000 1.000 1.000
v -179.0 -23.0 24.0 1.000 1.000 1.000
v 181.0 -18.0 26.0 1.000 1.000 1.000
v 91.0 -26.0 178.0 1.000 1.000 1.000
v 4.0 -28.0 176.0 1.000 1.000 1.000
v -105.0 -14.0 -85.0 1.000 1.000 1.000
v 5.0 -13.0 -86.0 1.000 1.000 1.000
v -87.58759903907776 40.33209991455078 188.0 1.000 1.000 1.000
v -186.58759903907776 40.33209991455078 29.0 1.000 1.000 1.000
v 190.41240096092224 40.33209991455078 31.0 1.000 1.000 1.000
v 96.41240096092224 40.33209991455078 191.0 1.000 1.000 1.000
v 4.412400960922241 40.33209991455078 190.0 1.000 1.000 1.000
v 4.412400960922241 40.33209991455078 190.0 1.000 1.000 1.000
v -109.58759903907776 40.33209991455078 -85.0 1.000 1.000 1.000
v 5.0 -13.0 -86.0 1.000 1.000 1.000
v 5.0 -13.0 -86.0 1.000 1.000 1.000
v 116.0 -12.0 -88.0 1.000 1.000 1.000
v 181.0 -18.0 26.0 1.000 1.000 1.000
v 6.412400960922241 40.33209991455078 -86.0 1.000 1.000 1.000
v 121.41240096092224 40.33209991455078 -88.0 1.000 1.000 1.000
v -109.58759903907776 40.33209991455078 -85.0 1.000 1.000 1.000
v 6.412400960922241 40.33209991455078 -86.0 1.000 1.000 1.000
v 190.41240096092224 40.33209991455078 31.0 1.000 1.000 1.000
v -158.0 77.0 166.0 1.000 1.000 1.000
v -152.0 -262.0 145.0 1.000 1.000 1.000
v 147.0 -262.0 145.0 1.000 1.000 1.000
v -168.0 -263.0 -101.0 1.000 1.000 1.000
v -171.0 72.0 -84.0 1.000 1.000 1.000
v 165.0 73.0 -86.0 1.000 1.000 1.000
v 160.0 -264.0 -101.0 1.000 1.000 1.000
v 147.0 -262.0 145.0 1.000 1.000 1.000
v 161.0 78.0 166.0 1.000 1.000 1.000
v 161.0 78.0 166.0 1.000 1.000 1.000
v 161.0 78.0 166.0 1.000 1.000 1.000
v 165.0 73.0 -86.0 1.000 1.000 1.000
v -158.0 77.0 166.0 1.000 1.000 1.000
v 160.0 -264.0 -101.0 1.000 1.000 1.000
v 147.0 -262.0 145.0 1.000 1.000 1.000
v -152.0 -262.0 145.0 1.000 1.000 1.000
vt 0.0586 0.9834
vt 0.0775 0.9824
vt 0.7930 0.9424
vt 0.8203 0.9404
vt 0.7578 0.6338
vt 0.2669 0.2051
vt 0.1296 0.2012
vt 0.8281 0.6465
vt 0.0938 0.2139
vt 0.3320 0.1943
vt 0.1016 0.6406
vt 0.1260 0.9798
vt 0.5283 0.9824
vt 0.0967 0.6543
vt 0.1250 0.9805
vt 0.7256 0.6582
vt 0.4893 0.6589
vt 0.4326 0.6549
vt 0.6357 0.9824
vt 0.5342 0.9831
vt 0.4863 0.9831
vt 0.2539 0.9831
vt 0.3193 0.9831
vt 0.7334 0.5378
vt 0.0918 0.5423
vt 0.4346 0.5417
vt 0.1104 0.5280
vt 0.4844 0.5332
vt 0.6426 0.9616
vt 0.5703 0.5690
vt 0.1396 0.9629
vt 0.1025 0.5710
vt 0.4561 0.5697
vt 0.2744 0.9622
vt 0.8701 0.5684
vt 0.7432 0.9609
vt 0.5020 0.4486
vt 0.7949 0.2617
vt 0.6016 0.2591
vt 0.4639 0.2585
vt 0.7441 0.4525
vt 0.4678 0.3737
vt 0.0713 0.4043
vt 0.0840 0.2559
vt 0.1875 0.2565
vt 0.1016 0.4225
vt 0.5420 0.1315
vt 0.1367 0.0469
vt 0.4131 0.1146
vt 0.8252 0.2018
vt 0.8301 0.1992
vt 0.8525 0.1960
vt 0.6582 0.1966
vt 0.5205 0.1973
vt 0.1182 0.1979
vt 0.8503 0.9707
vt 0.0488 0.9756
vt 0.0280 0.9766
vt 0.8802 0.9707
vt 0.2806 0.2266
vt 0.8184 0.6680
vt 0.8971 0.6836
vt 0.1263 0.2158
vt 0.0866 0.2266
vt 0.3529 0.2188
vt 0.7402 0.9577
vt 0.2510 0.9648
vt 0.1826 0.6191
vt 0.2529 0.9648
vt 0.1836 0.6341
vt 0.6182 0.6302
vt 0.8730 0.6257
vt 0.5742 0.6283
vt 0.8477 0.9557
vt 0.4980 0.9629
vt 0.4277 0.9642
vt 0.6807 0.9596
vt 0.7344 0.9590
vt 0.5889 0.4980
vt 0.1592 0.5091
vt 0.1631 0.5169
vt 0.5557 0.5098
vt 0.8623 0.5059
vt 0.2158 0.9831
vt 0.6016 0.5397
vt 0.6650 0.9831
vt 0.3369 0.9831
vt 0.5098 0.5397
vt 0.2217 0.5397
vt 0.8457 0.5397
vt 0.7539 0.9831
vt 0.6611 0.2201
vt 0.8926 0.2168
vt 0.5762 0.4134
vt 0.8613 0.4128
vt 0.5361 0.2214
vt 0.1162 0.3783
vt 0.5225 0.3398
vt 0.2393 0.2253
vt 0.1084 0.2266
vt 0.1377 0.3984
vt 0.4395 0.0736
vt 0.1367 0.0124
vt 0.5713 0.0866
vt 0.9326 0.1556
vt 0.9268 0.1536
vt 0.6680 0.1191
vt 0.8252 0.1191
vt 0.5557 0.1198
vt 0.2285 0.1198
vt 0.5146 0.8672
vt 0.5117 0.0811
vt 0.1543 -0.0820
vt 0.9404 0.0039
vt 0.8740 -0.1680
vt 0.0771 0.1211
vt 0.1113 0.3281
vt 0.1152 0.0508
vt 0.1592 -0.1035
vt 0.9258 0.3477
vt 0.7559 -0.0752
vt 0.9297 0.0820
vt 0.2939 0.2637
vt 0.1504 0.7412
vt 0.3438 1.0547
vt 0.9297 0.7490
vt 0.8652 0.2539
vt 0.8486 1.0479
vt 0.5908 0.1372
vt 0.0908 0.0698
vt 0.2988 0.1299
vt 0.8135 0.0908
vt 0.8125 0.0938
vt 0.4688 0.0625
vt 0.0938 0.0625
vt 0.2188 0.1562
vt 0.8438 0.4375
vt 0.1875 0.7500
vt 0.0312 0.4062
vt 0.7500 0.7500
vt 0.6875 0.1875
vt 0.5986 0.9468
vt 0.8027 0.8394
vt 0.7559 0.4331
vt 1.0146 0.2119
vt 1.1143 0.4019
vt 1.1436 0.1206
vt 0.9111 0.4111
vt 0.8125 0.1567
vt 0.8555 0.8198
vt 0.9854 0.7866
vt 0.7178 0.9629
vt 1.0918 0.0049
vt 0.9160 0.0132
vt 0.9795 0.8569
vt 0.8066 0.9023
vt 0.7832 0.4565
vt 0.9209 0.2017
vt 0.6152 0.3110
vt 0.4248 0.4507
vt 0.4277 0.6260
vt 0.5068 0.4517
vt 0.5146 0.6255
vt 0.5879 0.6274
vt 0.7031 0.9331
vt 0.2559 0.9263
vt 0.4873 0.9434
vt 0.1162 0.4487
vt 0.3486 0.6245
vt 0.5752 0.1191
vt 0.4785 0.3457
vt 0.3359 0.1167
vt 0.1631 0.0557
vt 0.0117 0.1899
vt 0.4854 0.9443
vt 0.3066 0.3057
vt 0.7559 0.0659
vt 0.4111 0.4302
vt 0.3848 0.1592
vt 0.1377 0.4004
vt 0.1279 0.8179
vt 0.2158 0.8301
vt -0.0029 0.2114
vt -0.2207 0.4043
vt -0.0947 0.7852
vt 0.5518 0.9292
vt 0.3350 0.9487
vt -0.1973 0.1313
vt 0.2383 0.0181
vt 0.1914 0.8877
vt -0.0811 0.8467
vt 0.8643 0.3799
vt 0.8301 0.1982
vt 0.3096 0.4219
vt 0.2129 0.2217
vt 0.9238 0.0332
vt 0.4688 0.0713
vt 0.5000 0.5420
vt 0.8818 0.5088
vt 0.6562 0.9414
vt 1.0215 0.6890
vt 1.0840 0.1201
vt 0.7549 0.1528
vt 0.2539 0.9297
vt 0.6885 0.9287
vt 0.8193 0.1958
vt 0.1240 0.1987
vt 1.0283 0.0400
vt 0.8301 0.0469
vt 0.7842 0.5088
vt 0.9531 0.5024
vt 0.4395 0.2021
vt -0.1680 0.1855
vt -0.1221 0.6729
vt 0.5264 0.8730
vt 0.7793 0.4639
vt 0.9609 0.4531
vt 1.0361 -0.0005
vt 0.7871 0.0171
vt 0.9492 0.0420
vt 0.1191 0.8311
vt 0.0137 0.2021
vt 0.8584 0.9229
vt 0.1045 0.4102
vt 0.8477 1.0117
vt 0.2490 1.0566
vt 0.7500 0.1914
vt 0.4746 1.0186
vt 0.7705 0.0381
vt 0.0527 0.4971
vt 0.8594 0.8779
vt 0.0234 0.1338
vt 0.9854 0.9736
vt 0.4609 0.0615
vt 0.0977 0.9561
vt 0.9844 0.1924
vt 0.1934 1.1113
vt 0.0703 0.0557
vt 0.7666 1.0713
vt 0.2812 0.7122
vt 0.5986 0.7201
vt 0.3955 0.9883
vt 0.4307 1.0039
vt 0.2666 0.7135
vt 0.5439 0.7129
vt 0.6602 0.9805
vt 0.8018 0.7090
vt 0.5996 0.9980
vt 0.7646 0.5911
vt 0.5371 0.5951
vt 0.2549 0.5957
vt 0.2900 0.5944
vt 0.7480 0.5911
vt 0.1104 0.5618
vt 0.9160 0.5775
vt 0.2852 0.9648
vt 0.3379 0.9655
vt 0.0879 0.5612
vt 0.7900 0.9733
vt 1.0156 0.5788
vt 0.6592 0.9714
vt 0.3115 0.4792
vt 0.2070 0.3730
vt 0.2256 0.3581
vt 0.4912 0.2305
vt 0.5508 0.4674
vt 0.5547 0.3574
vt 0.6680 0.1517
vt 0.4561 0.2090
vt 0.1953 0.4674
vt 0.8086 0.3685
vt 0.1709 0.3555
vt 0.1650 0.3757
vt 0.1846 0.1367
vt 0.1758 0.0892
vt 0.1875 0.1699
vt 0.8506 0.2318
vt 0.1006 0.1361
vt 0.0762 0.1009
vt 0.9570 0.2272
vt 0.9717 0.2568
vt 0.8516 0.9033
vt 0.0117 -0.0068
vt 0.0889 0.9219
vt 0.1904 1.0264
vt 0.8271 0.9824
vt 0.0664 0.4512
vt 0.7627 0.2490
vt 0.0146 0.5088
vt 0.7168 0.0723
vt 0.3301 1.0645
vt 0.7090 0.9414
vt 0.5342 0.0488
vt 0.9893 0.9668
vt 0.0889 0.1055
vt 0.1104 0.9053
vt 0.0850 0.0889
vt 0.2959 1.2695
vt 1.0010 0.1484
vt 0.8594 1.1670
vt 0.3311 0.9746
vt 0.5811 0.6895
vt 0.2695 0.6725
vt 0.2578 0.6732
vt 0.3594 0.9922
vt 0.5342 0.6797
vt 0.7617 0.6816
vt 0.5654 0.9727
vt 0.5078 0.9896
vt 0.7656 0.5521
vt 0.5576 0.5501
vt 0.2773 0.5436
vt 0.3086 0.5430
vt 0.7510 0.5514
vt 0.3135 0.9909
vt 0.8896 0.5938
vt 0.0732 0.5807
vt 0.0508 0.5801
vt 0.3672 0.9915
vt 0.9912 0.5944
vt 0.8252 0.9980
vt 0.6934 0.9967
vt 0.3467 0.2806
vt 0.3252 0.2969
vt 0.3926 0.4173
vt 0.6055 0.4102
vt 0.6094 0.1471
vt 0.5840 0.1224
vt 0.7822 0.0645
vt 0.6357 0.2897
vt 0.2832 0.4017
vt 0.8545 0.3079
vt 0.3145 0.2767
vt 0.2998 0.2949
vt 0.3633 0.0384
vt 0.3750 -0.0202
vt 0.3555 0.0716
vt -0.0029 0.1452
vt -0.0293 0.1100
vt 0.7617 0.2435
vt 0.8691 0.2389
vt 0.9668 0.0990
vt 0.5977 -0.0007
vt 0.4912 0.1178
vt 0.0449 0.2090
vt 0.4922 0.3854
vt 0.9639 0.2161
vt 0.8652 0.4186
vt 0.1484 0.4121
vt 0.1143 0.7741
vt 0.3281 0.7572
vt 0.0488 0.0970
vt 0.3809 -0.0033
vt 0.6621 0.7598
vt 0.0586 0.4974
vt 0.0557 0.4694
vt 0.9609 0.4772
vt 0.8623 0.7780
vt 0.9541 0.5007
vt 0.4941 0.5827
vt 0.7197 0.7878
vt 0.2422 0.7917
vt 0.3477 0.2513
vt 0.2578 0.5547
vt 0.9668 0.1393
vt 0.5586 0.0905
vt 0.6094 0.0482
vt 0.7012 0.5566
vt 0.9443 0.5260
vt 0.9639 0.2109
vt 0.4219 0.0892
vt 0.0723 0.1484
vt 0.3984 0.0482
vt 0.0674 0.2122
vt 0.6904 0.2487
vt 0.1172 0.7988
vt 0.0713 0.5332
vt 0.8477 0.7936
vt 0.6729 0.8984
vt 0.4941 0.8965
vt 0.3145 0.8952
vt 0.1221 0.8932
vt 0.8555 0.9004
vt 0.1211 0.9134
vt 0.2676 0.9128
vt 0.4873 0.9121
vt 0.7070 0.9115
vt 0.8369 0.9115
vt 0.9766 0.1191
vt -0.0664 0.0384
vt -0.0127 0.1276
vt 0.1348 0.9603
vt 0.8320 0.9596
vt 1.0312 0.0332
vt 0.1074 0.9720
vt 0.8398 0.9694
vt -0.0254 0.0755
vt 0.1084 0.8932
vt 0.8320 0.9004
vt 1.0586 0.0879
vt 0.0762 0.3604
vt 0.5791 0.7031
vt 0.5225 0.2139
vt 0.4619 0.1963
vt 0.5117 0.6357
vt 0.0381 0.3555
vt 0.9395 0.9785
vt 0.9307 0.9863
vt 0.8398 0.9746
vt 0.9365 0.7334
vt 0.9033 0.8955
vt 0.8916 0.6650
vt 0.9336 0.2207
vt 0.0742 0.1787
vt 0.7988 0.8877
vt 0.8945 0.8877
vt 0.8828 0.2002
vt 0.0322 0.1748
vt 0.3457 0.1562
vt 0.3672 0.5840
vt 0.8965 0.4639
vt 0.4209 0.6348
vt 0.9268 0.5107
vt 0.8760 0.1562
vt 0.4219 0.1602
vt 0.9395 0.1729
vt 0.4961 -0.0146
vt 0.0322 -0.0283
vt -0.0107 0.0010
vt 0.4395 0.0000
vt 0.8818 -0.0020
vt 0.9287 -0.0020
vt 0.3936 -0.0176
vt 0.8740 -0.0020
vt 0.3184 0.0000
vt 0.9365 -0.0010
vt 0.1270 -0.0059
vt 0.1992 0.8242
vt 0.9072 0.8027
vt 0.1602 0.8262
vt 0.0986 0.0107
vt 0.8936 -0.0166
vt 0.9385 0.8076
vt 0.8848 -0.0293
vn -0.361 0.803 -0.475
vn -0.842 -0.521 -0.140
vn -0.756 0.650 0.079
vn -0.458 -0.871 0.180
vn -0.577 -0.577 -0.577
vn 0.577 0.577 0.577
vn 0.577 0.577 0.577
vn -0.577 -0.577 -0.577
vn 0.577 0.577 0.577
vn 0.577 0.577 0.577
vn -0.577 -0.577 -0.577
vn 0.577 0.577 0.577
vn 0.577 0.577 0.577
vn -0.577 -0.577 -0.577
vn 0.577 0.577 0.577
vn 0.577 0.577 0.577
vn -0.577 -0.577 -0.577
vn -0.577 -0.577 -0.577
vn 0.577 0.577 0.577
vn 0.577 0.577 0.577
vn 0.577 0.577 0.577
vn 0.577 0.577 0.577
vn 0.577 0.577 0.577
vn 0.577 0.577 0.577
vn 0.577 0.577 0.577
vn 0.577 0.577 0.577
vn 0.577 0.577 0.577
vn 0.577 0.577 0.577
vn -0.577 -0.577 -0.577
vn -0.577 -0.577 -0.577
vn -0.577 -0.577 -0.577
vn -0.577 -0.577 -0.577
vn -0.577 -0.577 -0.577
vn 0.577 0.577 0.577
vn -0.577 -0.577 -0.577
vn -0.577 -0.577 -0.577
vn -0.577 -0.577 -0.577
vn -0.577 -0.577 -0.577
vn -0.577 -0.577 -0.577
vn -0.577 -0.577 -0.577
vn 0.577 0.577 0.577
vn 0.577 0.577 0.577
vn -0.577 -0.577 -0.577
vn -0.577 -0.577 -0.577
vn -0.577 -0.577 -0.577
vn -0.577 -0.577 -0.577
vn -0.577 -0.577 -0.577
vn -0.577 -0.577 -0.577
vn 0.577 0.577 0.577
vn -0.577 -0.577 -0.577
vn -0.577 -0.577 -0.577
vn 0.577 0.577 0.577
vn -0.577 -0.577 -0.577
vn 0.577 0.577 0.577
vn 0.577 0.577 0.577
vn 0.577 0.577 0.577
vn -0.577 -0.577 -0.577
vn -0.577 -0.577 -0.577
vn -0.577 -0.577 -0.577
vn -0.577 -0.577 -0.577
vn 0.577 0.577 0.577
vn 0.577 0.577 0.577
vn 0.577 0.577 0.577
vn -0.577 -0.577 -0.577
vn 0.577 0.577 0.577
vn -0.577 -0.577 -0.577
vn 0.577 0.577 0.577
vn 0.577 0.577 0.577
vn -0.577 -0.577 -0.577
vn -0.577 -0.577 -0.577
vn 0.577 0.577 0.577
vn -0.577 -0.577 -0.577
vn -0.577 -0.577 -0.577
vn -0.577 -0.577 -0.577
vn -0.577 -0.577 -0.577
vn -0.577 -0.577 -0.577
vn 0.577 0.577 0.577
vn -0.577 -0.577 -0.577
vn -0.577 -0.577 -0.577
vn -0.577 -0.577 -0.577
vn -0.577 -0.577 -0.577
vn -0.577 -0.577 -0.577
vn 0.577 0.577 0.577
vn 0.577 0.577 0.577
vn 0.577 0.577 0.577
vn -0.577 -0.577 -0.577
vn -0.577 -0.577 -0.577
vn -0.577 -0.577 -0.577
vn -0.577 -0.577 -0.577
vn -0.577 -0.577 -0.577
vn -0.577 -0.577 -0.577
vn 0.759 0.646 0.079
vn 0.842 -0.521 -0.140
vn 0.365 0.800 -0.476
vn 0.458 -0.871 0.180
vn 0.577 0.577 0.577
vn -0.577 -0.577 -0.577
vn -0.577 -0.577 -0.577
vn 0.577 0.577 0.577
vn 0.577 0.577 0.577
vn 0.577 0.577 0.577
vn -0.577 -0.577 -0.577
vn 0.577 0.577 0.577
vn -0.577 -0.577 -0.577
vn 0.577 0.577 0.577
vn -0.577 -0.577 -0.577
vn -0.577 -0.577 -0.577
vn 0.577 0.577 0.577
vn -0.577 -0.577 -0.577
vn 0.577 0.577 0.577
vn 0.577 0.577 0.577
vn 0.577 0.577 0.577
vn -0.577 -0.577 -0.577
vn 0.577 0.577 0.577
vn 0.577 0.577 0.577
vn 0.577 0.577 0.577
vn 0.577 0.577 0.577
vn 0.577 0.577 0.577
vn -0.577 -0.577 -0.577
vn -0.577 -0.577 -0.577
vn -0.577 -0.577 -0.577
vn -0.577 -0.577 -0.577
vn 0.577 0.577 0.577
vn -0.577 -0.577 -0.577
vn -0.577 -0.577 -0.577
vn -0.577 -0.577 -0.577
vn -0.577 -0.577 -0.577
vn 0.577 0.577 0.577
vn -0.577 -0.577 -0.577
vn -0.577 -0.577 -0.577
vn -0.577 -0.577 -0.577
vn -0.577 -0.577 -0.577
vn 0.577 0.577 0.577
vn 0.577 0.577 0.577
vn -0.577 -0.577 -0.577
vn -0.577 -0.577 -0.577
vn -0.577 -0.577 -0.577
vn -0.577 -0.577 -0.577
vn -0.577 -0.577 -0.577
vn 0.577 0.577 0.577
vn -0.577 -0.577 -0.577
vn 0.577 0.577 0.577
vn -0.577 -0.577 -0.577
vn -0.577 -0.577 -0.577
vn -0.577 -0.577 -0.577
vn -0.577 -0.577 -0.577
vn 0.577 0.577 0.577
vn -0.577 -0.577 -0.577
vn -0.577 -0.577 -0.577
vn -0.577 -0.577 -0.577
vn -0.577 -0.577 -0.577
vn 0.577 0.577 0.577
vn 0.577 0.577 0.577
vn 0.577 0.577 0.577
vn -0.577 -0.577 -0.577
vn -0.577 -0.577 -0.577
vn -0.577 -0.577 -0.577
vn 0.577 0.577 0.577
vn -0.577 -0.577 -0.577
vn -0.577 -0.577 -0.577
vn -0.577 -0.577 -0.577
vn 0.577 0.577 0.577
vn -0.577 -0.577 -0.577
vn -0.577 -0.577 -0.577
vn -0.577 -0.577 -0.577
vn 0.577 0.577 0.577
vn -0.577 -0.577 -0.577
vn -0.577 -0.577 -0.577
vn -0.577 -0.577 -0.577
vn -0.577 -0.577 -0.577
vn -0.577 -0.577 -0.577
vn -0.577 -0.577 -0.577
vn -0.577 -0.577 -0.577
vn 0.577 0.577 0.577
vn 0.577 0.577 0.577
vn 0.577 0.577 0.577
vn -0.577 -0.577 -0.577
vn -0.577 -0.577 -0.577
vn -0.577 -0.577 -0.577
vn -0.577 -0.577 -0.577
vn -0.577 -0.577 -0.577
vn -0.577 -0.577 -0.577
vn -0.577 -0.577 -0.577
vn -0.577 -0.577 -0.577
vn -0.577 -0.577 -0.577
vn -0.577 -0.577 -0.577
vn -0.577 -0.577 -0.577
vn -0.577 -0.577 -0.577
vn -0.577 -0.577 -0.577
vn -0.577 -0.577 -0.577
vn -0.577 -0.577 -0.577
vn -0.577 -0.577 -0.577
vn -0.577 -0.577 -0.577
vn -0.577 -0.577 -0.577
vn -0.577 -0.577 -0.577
vn -0.577 -0.577 -0.577
vn -0.577 -0.577 -0.577
vn -0.577 -0.577 -0.577
vn -0.577 -0.577 -0.577
vn -0.577 -0.577 -0.577
vn -0.577 -0.577 -0.577
vn -0.577 -0.577 -0.577
vn -0.577 -0.577 -0.577
vn -0.577 -0.577 -0.577
vn -0.577 -0.577 -0.577
vn -0.577 -0.577 -0.577
vn -0.577 -0.577 -0.577
vn -0.577 -0.577 -0.577
vn -0.577 -0.577 -0.577
vn -0.577 -0.577 -0.577
vn -0.577 -0.577 -0.577
vn -0.577 -0.577 -0.577
vn -0.577 -0.577 -0.577
vn -0.577 -0.577 -0.577
vn -0.577 -0.577 -0.577
vn -0.577 -0.577 -0.577
vn -0.577 -0.577 -0.577
vn -0.577 -0.577 -0.577
vn -0.577 -0.577 -0.577
vn -0.577 -0.577 -0.577
vn -0.577 -0.577 -0.577
vn -0.577 -0.577 -0.577
vn -0.577 -0.577 -0.577
vn -0.577 -0.577 -0.577
vn -0.577 -0.577 -0.577
vn -0.577 -0.577 -0.577
vn -0.577 -0.577 -0.577
vn -0.577 -0.577 -0.577
vn -0.577 -0.577 -0.577
vn -0.577 -0.577 -0.577
vn -0.577 -0.577 -0.577
vn -0.577 -0.577 -0.577
vn -0.577 -0.577 -0.577
vn -0.577 -0.577 -0.577
vn -0.577 -0.577 -0.577
vn -0.577 -0.577 -0.577
vn -0.577 -0.577 -0.577
vn -0.577 -0.577 -0.577
vn -0.577 -0.577 -0.577
vn -0.577 -0.577 -0.577
vn -0.577 -0.577 -0.577
vn -0.577 -0.577 -0.577
vn -0.577 -0.577 -0.577
vn -0.577 -0.577 -0.577
vn -0.577 -0.577 -0.577
vn -0.577 -0.577 -0.577
vn -0.577 -0.577 -0.577
vn -0.577 -0.577 -0.577
vn -0.577 -0.577 -0.577
vn -0.577 -0.577 -0.577
vn -0.577 -0.577 -0.577
vn -0.577 -0.577 -0.577
vn -0.577 -0.577 -0.577
vn -0.577 -0.577 -0.577
vn -0.577 -0.577 -0.577
vn -0.577 -0.577 -0.577
vn -0.577 -0.577 -0.577
vn -0.577 -0.577 -0.577
vn -0.577 -0.577 -0.577
vn -0.577 -0.577 -0.577
vn -0.577 -0.577 -0.577
vn -0.577 -0.577 -0.577
vn -0.577 -0.577 -0.577
vn -0.577 -0.577 -0.577
vn -0.577 -0.577 -0.577
vn -0.577 -0.577 -0.577
vn -0.577 -0.577 -0.577
vn -0.577 -0.577 -0.577
vn -0.577 -0.577 -0.577
vn -0.577 -0.577 -0.577
vn -0.577 -0.577 -0.577
vn -0.577 -0.577 -0.577
vn -0.577 -0.577 -0.577
vn -0.577 -0.577 -0.577
vn -0.577 -0.577 -0.577
vn -0.577 -0.577 -0.577
vn -0.577 -0.577 -0.577
vn -0.577 -0.577 -0.577
vn -0.577 -0.577 -0.577
vn -0.577 -0.577 -0.577
vn -0.577 -0.577 -0.577
vn -0.577 -0.577 -0.577
vn -0.577 -0.577 -0.577
vn -0.577 -0.577 -0.577
vn -0.577 -0.577 -0.577
vn -0.577 -0.577 -0.577
vn -0.577 -0.577 -0.577
vn -0.577 -0.577 -0.577
vn -0.577 -0.577 -0.577
vn -0.577 -0.577 -0.577
vn -0.577 -0.577 -0.577
vn -0.577 -0.577 -0.577
vn -0.577 -0.577 -0.577
vn -0.577 -0.577 -0.577
vn -0.577 -0.577 -0.577
vn -0.577 -0.577 -0.577
vn -0.577 -0.577 -0.577
vn -0.577 -0.577 -0.577
vn -0.577 -0.577 -0.577
vn -0.577 -0.577 -0.577
vn -0.577 -0.577 -0.577
vn -0.577 -0.577 -0.577
vn -0.577 -0.577 -0.577
vn -0.577 -0.577 -0.577
vn -0.577 -0.577 -0.577
vn -0.577 -0.577 -0.577
vn -0.577 -0.577 -0.577
vn -0.577 -0.577 -0.577
vn -0.577 -0.577 -0.577
vn -0.577 -0.577 -0.577
vn -0.577 -0.577 -0.577
vn -0.577 -0.577 -0.577
vn -0.577 -0.577 -0.577
vn -0.577 -0.577 -0.577
vn -0.577 -0.577 -0.577
vn -0.577 -0.577 -0.577
vn -0.577 -0.577 -0.577
vn -0.577 -0.577 -0.577
vn -0.577 -0.577 -0.577
vn -0.577 -0.577 -0.577
vn -0.577 -0.577 -0.577
vn -0.577 -0.577 -0.577
vn -0.577 -0.577 -0.577
vn -0.577 -0.577 -0.577
vn -0.577 -0.577 -0.577
vn -0.577 -0.577 -0.577
vn -0.577 -0.577 -0.577
vn -0.577 -0.577 -0.577
vn -0.577 -0.577 -0.577
vn -0.577 -0.577 -0.577
vn -0.577 -0.577 -0.577
vn -0.577 -0.577 -0.577
vn -0.577 -0.577 -0.577
vn -0.577 -0.577 -0.577
vn -0.577 -0.577 -0.577
vn -0.577 -0.577 -0.577
vn -0.577 -0.577 -0.577
vn -0.577 -0.577 -0.577
vn -0.577 -0.577 -0.577
vn -0.577 -0.577 -0.577
vn -0.577 -0.577 -0.577
vn -0.577 -0.577 -0.577
vn -0.577 -0.577 -0.577
vn -0.577 -0.577 -0.577
vn -0.577 -0.577 -0.577
vn -0.577 -0.577 -0.577
vn -0.577 -0.577 -0.577
vn -0.577 -0.577 -0.577
vn -0.577 -0.577 -0.577
vn -0.577 -0.577 -0.577
vn -0.577 -0.577 -0.577
vn -0.577 -0.577 -0.577
vn -0.577 -0.577 -0.577
vn -0.577 -0.577 -0.577
vn -0.577 -0.577 -0.577
vn -0.577 -0.577 -0.577
vn -0.577 -0.577 -0.577
vn -0.577 -0.577 -0.577
vn -0.577 -0.577 -0.577
vn -0.577 -0.577 -0.577
vn -0.577 -0.577 -0.577
vn -0.577 -0.577 -0.577
vn -0.577 -0.577 -0.577
vn 0.577 0.577 0.577
vn 0.577 0.577 0.577
vn -0.577 -0.577 -0.577
vn 0.577 0.577 0.577
vn -0.577 -0.577 -0.577
vn 0.577 0.577 0.577
vn -0.577 -0.577 -0.577
vn -0.577 -0.577 -0.577
vn -0.577 -0.577 -0.577
vn -0.577 -0.577 -0.577
vn -0.577 -0.577 -0.577
vn -0.577 -0.577 -0.577
vn -0.577 -0.577 -0.577
vn -0.577 -0.577 -0.577
vn -0.577 -0.577 -0.577
vn -0.577 -0.577 -0.577
vn -0.577 -0.577 -0.577
vn -0.577 -0.577 -0.577
vn -0.577 -0.577 -0.577
vn -0.577 -0.577 -0.577
vn -0.577 -0.577 -0.577
vn -0.577 -0.577 -0.577
vn -0.577 -0.577 -0.577
vn -0.577 -0.577 -0.577
vn -0.577 -0.577 -0.577
vn -0.577 -0.577 -0.577
vn -0.577 -0.577 -0.577
vn -0.577 -0.577 -0.577
vn -0.577 -0.577 -0.577
vn -0.577 -0.577 -0.577
vn -0.577 -0.577 -0.577
vn -0.577 -0.577 -0.577
vn -0.577 -0.577 -0.577
vn -0.577 -0.577 -0.577
vn -0.577 -0.577 -0.577
vn -0.577 -0.577 -0.577
vn -0.577 -0.577 -0.577
vn -0.577 -0.577 -0.577
vn -0.577 -0.577 -0.577
vn -0.577 -0.577 -0.577
vn -0.577 -0.577 -0.577
vn -0.577 -0.577 -0.577
vn -0.577 -0.577 -0.577
vn -0.577 -0.577 -0.577
vn -0.577 -0.577 -0.577
vn -0.577 -0.577 -0.577
vn -0.577 -0.577 -0.577
vn -0.577 -0.577 -0.577
vn -0.577 -0.577 -0.577
vn -0.577 -0.577 -0.577
vn -0.577 -0.577 -0.577
vn -0.577 -0.577 -0.577
vn -0.577 -0.577 -0.577
vn -0.577 -0.577 -0.577
vn -0.577 -0.577 -0.577
vn -0.577 -0.577 -0.577
vn -0.577 -0.577 -0.577
vn -0.577 -0.577 -0.577
vn -0.577 -0.577 -0.577
vn -0.577 -0.577 -0.577
vn -0.577 -0.577 -0.577
vn -0.577 -0.577 -0.577
vn -0.577 -0.577 -0.577
vn -0.577 -0.577 -0.577
vn -0.577 -0.577 -0.577
vn -0.577 -0.577 -0.577
vn -0.577 -0.577 -0.577
vn -0.577 -0.577 -0.577
vn -0.577 -0.577 -0.577
vn -0.577 -0.577 -0.577
vn -0.577 -0.577 -0.577
vn -0.577 -0.577 -0.577
vn -0.577 -0.577 -0.577
vn -0.577 -0.577 -0.577
vn -0.577 -0.577 -0.577
vn -0.577 -0.577 -0.577
vn -0.577 -0.577 -0.577
vn -0.577 -0.577 -0.577
vn -0.577 -0.577 -0.577
vn -0.577 -0.577 -0.577
vn -0.577 -0.577 -0.577
vn -0.577 -0.577 -0.577
vn -0.577 -0.577 -0.577
vn -0.577 -0.577 -0.577
vn -0.577 -0.577 -0.577
vn 0.577 0.577 0.577
vn -0.577 -0.577 -0.577
vn -0.577 -0.577 -0.577
vn -0.577 -0.577 -0.577
vn 0.577 0.577 0.577
vn -0.577 -0.577 -0.577
vn 0.577 0.577 0.577
vn 0.577 0.577 0.577
vn -0.577 -0.577 -0.577
vn -0.577 -0.577 -0.577
vn -0.577 -0.577 -0.577
vn -0.577 -0.577 -0.577
vn -0.577 -0.577 -0.577
vn -0.577 -0.577 -0.577
vn -0.577 -0.577 -0.577
vn -0.577 -0.577 -0.577
vn -0.577 -0.577 -0.577
vn -0.577 -0.577 -0.577
vn -0.577 -0.577 -0.577
vn -0.577 -0.577 -0.577
vn -0.577 -0.577 -0.577
vn -0.577 -0.577 -0.577
vn -0.577 -0.577 -0.577
vn -0.577 -0.577 -0.577
vn -0.577 -0.577 -0.577
vn -0.577 -0.577 -0.577
vn -0.577 -0.577 -0.577
vn -0.577 -0.577 -0.577
vn -0.577 -0.577 -0.577
vn -0.577 -0.577 -0.577
vn -0.577 -0.577 -0.577
vn -0.577 -0.577 -0.577
vn -0.577 -0.577 -0.577
vn -0.577 -0.577 -0.577
vn -0.577 -0.577 -0.577
vn -0.577 -0.577 -0.577
vn -0.577 -0.577 -0.577
vn -0.577 -0.577 -0.577
vn -0.577 -0.577 -0.577
vn -0.577 -0.577 -0.577
vn -0.577 -0.577 -0.577
vn -0.577 -0.577 -0.577
vn -0.577 -0.577 -0.577
vn -0.577 -0.577 -0.577
vn -0.577 -0.577 -0.577
vn -0.577 -0.577 -0.577
vn -0.577 -0.577 -0.577
vn -0.577 -0.577 -0.577
vn -0.577 -0.577 -0.577
vn -0.577 -0.577 -0.577
vn -0.577 -0.577 -0.577
vn -0.577 -0.577 -0.577
vn -0.577 -0.577 -0.577
vn -0.577 -0.577 -0.577
vn -0.577 -0.577 -0.577
vn -0.577 -0.577 -0.577
vn -0.577 -0.577 -0.577
vn -0.577 -0.577 -0.577
vn -0.577 -0.577 -0.577
vn -0.577 -0.577 -0.577
vn -0.577 -0.577 -0.577
vn -0.577 -0.577 -0.577
vn -0.577 -0.577 -0.577
vn -0.577 -0.577 -0.577
vn -0.577 -0.577 -0.577
vn -0.577 -0.577 -0.577
vn -0.577 -0.577 -0.577
vn -0.577 -0.577 -0.577
vn -0.577 -0.577 -0.577
vn -0.577 -0.577 -0.577
vn -0.577 -0.577 -0.577
vn -0.577 -0.577 -0.577
vn -0.577 -0.577 -0.577
vn -0.577 -0.577 -0.577
vn -0.577 -0.577 -0.577
vn -0.577 -0.577 -0.577
vn -0.577 -0.577 -0.577
vn -0.577 -0.577 -0.577
vn -0.577 -0.577 -0.577
vn -0.577 -0.577 -0.577
vn -0.577 -0.577 -0.577
vn -0.577 -0.577 -0.577
vn -0.577 -0.577 -0.577
vn -0.577 -0.577 -0.577
vn -0.577 -0.577 -0.577
vn -0.577 -0.577 -0.577
vn -0.577 -0.577 -0.577
vn -0.577 -0.577 -0.577
vn -0.577 -0.577 -0.577
vn -0.577 -0.577 -0.577
vn -0.577 -0.577 -0.577
vn -0.577 -0.577 -0.577
vn -0.577 -0.577 -0.577
vn -0.577 -0.577 -0.577
vn -0.577 -0.577 -0.577
vn -0.577 -0.577 -0.577
vn -0.577 -0.577 -0.577
vn -0.577 -0.577 -0.577
vn -0.577 -0.577 -0.577
vn -0.577 -0.577 -0.577
vn -0.577 -0.577 -0.577
vn -0.577 -0.577 -0.577
vn -0.577 -0.577 -0.577
vn -0.577 -0.577 -0.577
vn -0.577 -0.577 -0.577
vn -0.577 -0.577 -0.577
vn -0.577 -0.577 -0.577
vn -0.577 -0.577 -0.577
vn -0.577 -0.577 -0.577
vn -0.577 -0.577 -0.577
vn -0.577 -0.577 -0.577
vn -0.577 -0.577 -0.577
vn -0.577 -0.577 -0.577
vn -0.577 -0.577 -0.577
vn -0.577 -0.577 -0.577
vn -0.577 -0.577 -0.577
vn -0.577 -0.577 -0.577
vn -0.577 -0.577 -0.577
vn -0.577 -0.577 -0.577
vn -0.577 -0.577 -0.577
vn -0.577 -0.577 -0.577
vn -0.577 -0.577 -0.577
vn -0.577 -0.577 -0.577
vn -0.577 -0.577 -0.577
vn -0.577 -0.577 -0.577
vn -0.577 -0.577 -0.577
vn -0.577 -0.577 -0.577
vn -0.577 -0.577 -0.577
vn -0.577 -0.577 -0.577
vn -0.577 -0.577 -0.577
vn -0.577 -0.577 -0.577
vn -0.577 -0.577 -0.577
vn -0.577 -0.577 -0.577
vn -0.577 -0.577 -0.577
vn -0.577 -0.577 -0.577
vn -0.577 -0.577 -0.577
vn -0.577 -0.577 -0.577
vn -0.577 -0.577 -0.577
vn -0.577 -0.577 -0.577
vn -0.577 -0.577 -0.577
vn -0.577 -0.577 -0.577
vn -0.577 -0.577 -0.577
vn -0.577 -0.577 -0.577
vn -0.577 -0.577 -0.577
vn -0.577 -0.577 -0.577
vn -0.577 -0.577 -0.577
vn -0.577 -0.577 -0.577
vn -0.577 -0.577 -0.577
vn -0.577 -0.577 -0.577
vn -0.577 -0.577 -0.577
vn -0.577 -0.577 -0.577
vn -0.577 -0.577 -0.577
vn -0.577 -0.577 -0.577
vn -0.577 -0.577 -0.577
vn -0.577 -0.577 -0.577
vn -0.577 -0.577 -0.577
vn -0.577 -0.577 -0.577
vn -0.577 -0.577 -0.577
vn -0.577 -0.577 -0.577
vn 0.577 0.577 0.577
vn 0.577 0.577 0.577
vn 0.577 0.577 0.577
vn -0.577 -0.577 -0.577
vn 0.577 0.577 0.577
vn -0.577 -0.577 -0.577
vn -0.577 -0.577 -0.577
vn -0.577 -0.577 -0.577
vn 0.577 0.577 0.577
vn 0.577 0.577 0.577
vn -0.577 -0.577 -0.577
vn -0.577 -0.577 -0.577
vn -0.577 -0.577 -0.577
vn -0.577 -0.577 -0.577
vn -0.577 -0.577 -0.577
vn -0.577 -0.577 -0.577
vn -0.577 -0.577 -0.577
vn -0.577 -0.577 -0.577
vn -0.577 -0.577 -0.577
vn -0.577 -0.577 -0.577
vn -0.577 -0.577 -0.577
vn 0.577 0.577 0.577
vn -0.577 -0.577 -0.577
vn 0.577 0.577 0.577
vn -0.577 -0.577 -0.577
vn -0.577 -0.577 -0.577
vn 0.577 0.577 0.577
vn 0.577 0.577 0.577
vn -0.577 -0.577 -0.577
vn -0.577 -0.577 -0.577
vn -0.577 -0.577 -0.577
vn -0.577 -0.577 -0.577
vn -0.577 -0.577 -0.577
vn -0.577 -0.577 -0.577
vn 0.577 0.577 0.577
vn -0.577 -0.577 -0.577
vn -0.577 -0.577 -0.577
vn -0.577 -0.577 -0.577
vn -0.577 -0.577 -0.577
vn -0.577 -0.577 -0.577
vn -0.577 -0.577 -0.577
vn -0.577 -0.577 -0.577
vn -0.577 -0.577 -0.577
vn -0.577 -0.577 -0.577
vn -0.577 -0.577 -0.577
vn -0.577 -0.577 -0.577
vn -0.577 -0.577 -0.577
vn -0.577 -0.577 -0.577
vn -0.577 -0.577 -0.577
vn -0.577 -0.577 -0.577
vn -0.577 -0.577 -0.577
vn -0.577 -0.577 -0.577
vn -0.577 -0.577 -0.577
vn -0.577 -0.577 -0.577
vn -0.577 -0.577 -0.577
vn -0.577 -0.577 -0.577
vn -0.577 -0.577 -0.577
vn -0.577 -0.577 -0.577
vn -0.577 -0.577 -0.577
vn -0.577 -0.577 -0.577
vn -0.577 -0.577 -0.577
vn -0.577 -0.577 -0.577
vn -0.577 -0.577 -0.577
vn -0.577 -0.577 -0.577
vn -0.577 -0.577 -0.577
vn -0.577 -0.577 -0.577
vn 0.577 0.577 0.577
vn -0.577 -0.577 -0.577
vn -0.577 -0.577 -0.577
vn -0.577 -0.577 -0.577
vn -0.577 -0.577 -0.577
vn -0.577 -0.577 -0.577
vn -0.577 -0.577 -0.577
vn -0.577 -0.577 -0.577
vn -0.577 -0.577 -0.577
vn -0.577 -0.577 -0.577
vn 0.577 0.577 0.577
vn 0.577 0.577 0.577
vn 0.577 0.577 0.577
usemtl tex_1631_lit_w10
f 1/1/1 2/2/2 3/3/3
f 3/3/3 2/2/2 4/4/4
f 3/3/3 5/5/5 6/6/6
f 7/7/7 8/8/8 4/4/4
f 5/5/5 3/3/3 8/8/8
f 8/8/8 3/3/3 4/4/4
f 1/1/1 9/9/9 7/7/7
f 2/2/2 1/1/1 7/7/7
f 7/7/7 10/10/10 8/8/8
f 1/1/1 6/6/6 9/9/9
f 6/6/6 5/5/5 8/8/8
f 3/3/3 6/6/6 1/1/1
f 7/7/7 4/4/4 2/2/2
f 6/6/6 8/8/8 10/10/10
usemtl tex_1808_lit_w01
f 11/11/11 12/12/12 13/13/13
f 11/11/11 14/14/14 15/15/15
f 11/11/11 15/15/15 12/12/12
f 16/16/16 17/17/17 13/13/13
f 14/14/14 18/18/18 15/15/15
f 18/18/18 19/19/19 15/15/15
f 17/17/17 11/11/11 13/13/13
f 18/18/18 16/16/16 19/19/19
f 16/16/16 13/13/13 19/19/19
f 24/20/24 20/19/20 25/21/25
f 25/21/25 20/19/20 21/13/21
f 25/21/25 21/13/21 26/22/26
f 26/22/26 21/13/21 22/12/22
f 26/22/26 22/12/22 27/23/27
f 27/23/27 22/12/22 23/15/23
f 27/23/27 23/15/23 20/19/20
f 27/23/27 20/19/20 24/20/24
f 33/17/33 34/16/34 28/24/28
f 29/25/29 30/26/30 35/14/35
f 33/17/33 31/27/31 36/11/36
f 36/11/36 31/27/31 29/25/29
f 35/14/35 30/26/30 37/18/37
f 37/18/37 30/26/30 28/24/28
f 37/18/37 28/24/28 34/16/34
f 36/11/36 29/25/29 35/14/35
f 33/17/33 32/28/32 31/27/31
f 33/17/33 28/24/28 32/28/32
f 38/29/38 39/30/39 40/31/40
f 41/32/41 42/33/42 43/34/43
f 38/29/38 44/35/44 39/30/39
f 40/31/40 39/30/39 41/32/41
f 43/34/43 42/33/42 45/36/45
f 45/36/45 42/33/42 44/35/44
f 45/36/45 44/35/44 38/29/38
f 40/31/40 41/32/41 43/34/43
f 43/34/43 45/36/45 38/29/38
f 43/34/43 38/29/38 40/31/40
f 42/33/42 41/32/41 46/30/46
f 42/33/42 46/30/46 47/35/47
f 48/37/48 49/38/49 50/39/50
f 51/40/51 49/38/49 52/41/52
f 53/42/53 54/43/54 55/44/55
f 51/40/51 52/41/52 53/42/53
f 48/37/48 50/39/50 56/45/56
f 48/37/48 52/41/52 49/38/49
f 51/40/51 53/42/53 55/44/55
f 54/43/54 57/46/57 56/45/56
f 57/46/57 48/37/48 56/45/56
f 54/43/54 56/45/56 55/44/55
f 58/47/58 63/45/63 64/39/64
f 63/45/63 59/48/59 65/44/65
f 63/45/63 58/47/58 59/48/59
f 60/49/60 65/44/65 59/48/59
f 60/49/60 66/40/66 65/44/65
f 61/50/61 64/39/64 67/38/67
f 62/51/62 67/38/67 66/40/66
f 62/51/62 61/50/61 67/38/67
f 61/50/61 58/47/58 64/39/64
f 60/49/60 62/51/62 66/40/66
f 68/43/68 69/42/69 73/26/73
f 74/27/74 75/28/75 70/46/70
f 70/46/70 68/43/68 76/25/76
f 71/41/71 77/24/77 73/26/73
f 69/42/69 71/41/71 73/26/73
f 77/24/77 71/41/71 72/37/72
f 77/24/77 72/37/72 75/28/75
f 75/28/75 72/37/72 70/46/70
f 76/25/76 68/43/68 73/26/73
f 76/25/76 74/27/74 70/46/70
f 78/30/78 79/52/79 80/53/80
f 81/54/81 79/52/79 82/35/82
f 83/33/83 84/32/84 85/55/85
f 81/54/81 82/35/82 83/33/83
f 84/32/84 78/30/78 80/53/80
f 78/30/78 82/35/82 79/52/79
f 84/32/84 80/53/80 85/55/85
f 81/54/81 83/33/83 85/55/85
f 86/55/86 87/53/87 88/52/88
f 86/55/86 88/52/88 89/54/89
f 90/30/90 84/32/84 83/33/83
f 90/30/90 83/33/83 91/35/91
usemtl tex_1631_lit_w10
f 92/56/92 93/57/93 94/58/94
f 95/59/95 93/57/93 92/56/92
f 96/60/96 97/61/97 92/56/92
f 95/59/95 98/62/98 99/63/99
f 98/62/98 92/56/92 97/61/97
f 95/59/95 92/56/92 98/62/98
f 99/63/99 100/64/100 94/58/94
f 99/63/99 94/58/94 93/57/93
f 98/62/98 101/65/101 99/63/99
f 100/64/100 96/60/96 94/58/94
f 98/62/98 97/61/97 96/60/96
f 94/58/94 96/60/96 92/56/92
f 93/57/93 95/59/95 99/63/99
f 101/65/101 98/62/98 96/60/96
usemtl tex_1808_lit_w01
f 102/66/102 103/67/103 104/68/104
f 105/69/105 106/70/106 104/68/104
f 103/67/103 105/69/105 104/68/104
f 102/66/102 107/71/107 108/72/108
f 105/69/105 109/73/109 106/70/106
f 105/69/105 110/74/110 109/73/109
f 102/66/102 104/68/104 107/71/107
f 110/74/110 102/66/102 108/72/108
f 110/74/110 108/72/108 109/73/109
f 115/75/115 111/69/111 116/76/116
f 116/76/116 111/69/111 112/67/112
f 116/76/116 112/67/112 117/77/117
f 117/77/117 112/67/112 113/66/113
f 117/77/117 113/66/113 118/78/118
f 118/78/118 113/66/113 114/74/114
f 118/78/118 114/74/114 115/75/115
f 115/75/115 114/74/114 111/69/111
f 124/68/124 119/79/119 125/71/125
f 120/80/120 119/79/119 124/68/124
f 126/70/126 121/81/121 124/68/124
f 122/82/122 121/81/121 126/70/126
f 127/73/127 122/82/122 126/70/126
f 123/83/123 122/82/122 127/73/127
f 128/72/128 125/71/125 123/83/123
f 119/79/119 123/83/123 125/71/125
f 121/81/121 120/80/120 124/68/124
f 128/72/128 123/83/123 127/73/127
f 129/84/129 130/85/130 131/86/131
f 132/87/132 133/88/133 134/89/134
f 130/85/130 135/90/135 131/86/131
f 134/89/134 130/85/130 129/84/129
f 136/91/136 133/88/133 132/87/132
f 135/90/135 133/88/133 136/91/136
f 131/86/131 135/90/135 136/91/136
f 132/87/132 134/89/134 129/84/129
f 129/84/129 131/86/131 136/91/136
f 129/84/129 136/91/136 132/87/132
f 137/90/137 138/85/138 134/89/134
f 137/90/137 134/89/134 133/88/133
f 139/92/139 140/93/140 141/94/141
f 142/95/142 140/93/140 143/96/143
f 144/97/144 145/98/145 143/96/143
f 145/98/145 142/95/142 143/96/143
f 146/99/146 139/92/139 141/94/141
f 144/97/144 143/96/143 147/100/147
f 140/93/140 142/95/142 141/94/141
f 146/99/146 148/101/148 144/97/144
f 146/99/146 144/97/144 147/100/147
f 146/99/146 141/94/141 148/101/148
f 149/102/149 154/100/154 155/96/155
f 154/100/154 149/102/149 150/103/150
f 150/103/150 151/104/151 156/99/156
f 150/103/150 156/99/156 154/100/154
f 151/104/151 152/105/152 157/92/157
f 152/105/152 153/106/153 158/93/158
f 153/106/153 149/102/149 155/96/155
f 151/104/151 157/92/157 156/99/156
f 153/106/153 155/96/155 158/93/158
f 157/92/157 152/105/152 158/93/158
f 164/81/164 159/97/159 160/101/160
f 161/98/161 159/97/159 164/81/164
f 165/82/165 161/98/161 164/81/164
f 162/95/162 161/98/161 165/82/165
f 166/83/166 162/95/162 165/82/165
f 163/94/163 162/95/162 166/83/166
f 167/79/167 163/94/163 166/83/166
f 160/101/160 163/94/163 167/79/167
f 168/80/168 164/81/164 160/101/160
f 168/80/168 160/101/160 167/79/167
f 169/107/169 170/108/170 171/85/171
f 172/90/172 170/108/170 173/109/173
f 174/110/174 175/89/175 176/88/176
f 176/88/176 172/90/172 173/109/173
f 169/107/169 171/85/171 175/89/175
f 170/108/170 172/90/172 171/85/171
f 174/110/174 169/107/169 175/89/175
f 174/110/174 176/88/176 173/109/173
f 177/109/177 178/108/178 179/107/179
f 177/109/177 179/107/179 180/110/180
f 181/90/181 176/88/176 175/89/175
f 181/90/181 175/89/175 182/85/182
usemtl tex_1809_lit_w11
f 183/111/183 190/112/190 191/113/191
f 184/114/184 192/115/192 183/111/183
f 192/115/192 190/112/190 183/111/183
f 185/116/185 183/111/183 191/113/191
f 186/117/186 193/118/193 194/119/194
f 187/120/187 195/121/195 196/122/196
usemtl tex_1810_lit_w11
f 197/123/197 188/124/188 189/125/189
f 198/126/198 201/127/201 199/128/199
f 201/127/201 200/125/200 199/128/199
f 201/127/201 202/123/202 200/125/200
usemtl tex_1803_lit
f 203/129/203 204/130/204 205/131/205
f 203/129/203 206/132/206 204/130/204
usemtl tex_1608_lit
f 207/133/207 208/134/208 209/135/209
f 210/136/210 209/135/209 208/134/208
f 211/137/211 212/138/212 213/139/213
f 211/137/211 214/140/214 212/138/212
f 210/136/210 208/134/208 215/141/215
f 213/139/213 210/136/210 215/141/215
f 213/139/213 215/141/215 211/137/211
usemtl tex_1804_lit
f 216/142/216 217/143/217 218/144/218
f 219/145/219 220/146/220 221/147/221
f 222/144/222 223/148/223 224/149/224
f 225/150/225 226/151/226 220/146/220
f 225/150/225 220/146/220 223/148/223
f 227/143/227 225/150/225 223/148/223
f 219/145/219 224/149/224 223/148/223
f 228/142/228 229/152/229 227/143/227
f 221/147/221 230/153/230 231/154/231
f 219/145/219 231/154/231 224/149/224
f 220/146/220 219/145/219 223/148/223
f 219/145/219 221/147/221 231/154/231
f 222/144/222 227/143/227 223/148/223
f 232/155/232 226/151/226 225/150/225
f 232/155/232 225/150/225 233/156/233
f 233/156/233 225/150/225 227/143/227
f 229/152/229 233/156/233 227/143/227
usemtl tex_1802_lit
f 234/157/234 235/158/235 236/159/236
f 237/160/237 238/161/238 239/162/239
f 239/162/239 240/163/240 241/164/241
f 242/165/242 243/166/243 244/167/244
f 245/168/245 243/166/243 246/169/246
f 238/161/238 240/163/240 239/162/239
f 236/159/236 247/170/247 248/171/248
f 241/164/241 240/163/240 238/161/238
f 245/168/245 237/160/237 248/171/248
f 242/165/242 246/169/246 243/166/243
f 249/172/249 250/173/250 251/174/251
f 252/165/252 253/164/253 254/169/254
f 255/160/255 256/162/256 257/171/257
f 258/157/258 256/162/256 253/164/253
f 259/175/259 252/165/252 260/167/260
f 261/166/261 259/175/259 260/167/260
f 262/168/262 254/169/254 255/160/255
f 249/172/249 263/176/263 257/171/257
f 255/160/255 254/169/254 264/161/264
f 252/165/252 258/157/258 253/164/253
f 253/164/253 264/161/264 254/169/254
f 265/158/265 266/177/266 267/170/267
f 267/170/267 268/172/268 269/171/269
f 270/159/270 265/158/265 267/170/267
f 268/172/268 271/174/271 272/176/272
f 273/162/273 274/157/274 269/171/269
f 275/168/275 269/171/269 272/176/272
f 275/168/275 272/176/272 271/174/271
f 274/157/274 270/159/270 269/171/269
usemtl tex_1805_lit
f 276/178/276 277/179/277 278/180/278
f 278/180/278 279/181/279 280/182/280
f 281/183/281 282/184/282 283/180/283
f 282/184/282 284/185/284 285/181/285
f 283/180/283 282/184/282 285/181/285
f 286/178/286 287/182/287 288/186/288
f 289/187/289 288/186/288 287/182/287
f 290/188/290 282/184/282 281/183/281
f 281/183/281 283/180/283 291/179/291
f 281/183/281 291/179/291 292/189/292
f 290/188/290 281/183/281 292/189/292
f 286/178/286 283/180/283 287/182/287
f 287/182/287 293/190/293 289/187/289
f 293/190/293 287/182/287 285/181/285
f 293/190/293 285/181/285 294/191/294
f 294/191/294 285/181/285 284/185/284
usemtl tex_1810_lit_w11
f 295/192/295 296/193/296 297/194/297
f 297/194/297 296/193/296 298/195/298
usemtl tex_1809_lit_w11
f 299/196/299 300/197/300 301/198/301
f 299/196/299 301/198/301 302/199/302
usemtl tex_1804_lit
f 303/200/303 304/201/304 305/202/305
f 303/200/303 305/202/305 306/203/306
usemtl tex_1802_lit
f 307/204/307 308/205/308 309/206/309
f 307/204/307 309/206/309 310/207/310
usemtl tex_1805_lit
f 311/208/311 312/209/312 313/210/313
f 311/208/311 313/210/313 314/211/314
f 315/212/315 316/213/316 317/214/317
f 315/212/315 317/214/317 318/215/318
f 319/216/319 320/217/320 321/218/321
f 319/216/319 321/218/321 322/219/322
usemtl tex_1609_lit
f 323/220/323 324/221/324 325/222/325
f 326/223/326 324/221/324 323/220/323
usemtl tex_1613_lit_w11
f 327/224/327 328/225/328 329/226/329
f 330/227/330 328/225/328 327/224/327
usemtl tex_1616_lit_w11
f 331/228/331 332/229/332 333/230/333
f 334/231/334 332/229/332 331/228/331
usemtl tex_1619_lit_w11
f 335/232/335 336/233/336 337/234/337
f 338/235/338 336/233/336 335/232/335
usemtl tex_1622_lit_w11
f 339/236/339 340/237/340 341/238/341
f 342/239/342 340/237/340 339/236/339
usemtl tex_1812_lit_w01
f 343/240/343 344/241/344 348/242/348
f 349/243/349 345/244/345 343/240/343
f 349/243/349 346/245/346 345/244/345
f 350/246/350 344/241/344 347/247/347
f 351/248/351 347/247/347 346/245/346
f 350/246/350 348/242/348 344/241/344
f 349/243/349 351/248/351 346/245/346
f 349/243/349 343/240/343 348/242/348
f 351/248/351 350/246/350 347/247/347
f 357/247/357 352/249/352 358/245/358
f 358/245/358 352/249/352 353/250/353
f 358/245/358 353/250/353 359/244/359
f 359/244/359 353/250/353 354/251/354
f 359/244/359 354/251/354 360/240/360
f 360/240/360 354/251/354 355/252/355
f 361/241/361 356/253/356 357/247/357
f 357/247/357 356/253/356 352/249/352
f 360/240/360 355/252/355 361/241/361
f 361/241/361 355/252/355 356/253/356
f 362/254/362 363/255/363 364/256/364
f 365/257/365 366/258/366 362/254/362
f 367/259/367 363/255/363 368/260/368
f 369/261/369 368/260/368 365/257/365
f 368/260/368 366/258/366 365/257/365
f 367/259/367 364/256/364 363/255/363
f 365/257/365 362/254/362 364/256/364
f 369/261/369 367/259/367 368/260/368
f 363/255/363 362/254/362 366/258/366
f 363/255/363 366/258/366 368/260/368
f 370/262/370 371/263/371 372/264/372
f 370/262/370 373/265/373 374/266/374
f 375/267/375 376/268/376 377/269/377
f 370/262/370 372/264/372 373/265/373
f 371/263/371 375/267/375 377/269/377
f 378/270/378 375/267/375 371/263/371
f 373/265/373 376/268/376 379/271/379
f 370/262/370 378/270/378 371/263/371
f 375/267/375 379/271/379 376/268/376
f 374/266/374 373/265/373 379/271/379
f 385/263/385 380/272/380 386/264/386
f 381/273/381 380/272/380 385/263/385
f 387/269/387 381/273/381 385/263/385
f 382/274/382 381/273/381 387/269/387
f 388/268/388 382/274/382 387/269/387
f 383/275/383 382/274/382 388/268/388
f 389/265/389 383/275/383 388/268/388
f 384/276/384 383/275/383 389/265/389
f 386/264/386 384/276/384 389/265/389
f 380/272/380 384/276/384 386/264/386
f 395/249/395 390/271/390 396/250/396
f 396/250/396 390/271/390 391/267/391
f 396/250/396 391/267/391 397/251/397
f 397/251/397 391/267/391 392/270/392
f 397/251/397 392/270/392 398/252/398
f 398/252/398 392/270/392 393/262/393
f 399/253/399 390/271/390 395/249/395
f 398/252/398 393/262/393 394/266/394
f 398/252/398 394/266/394 399/253/399
f 399/253/399 394/266/394 390/271/390
f 400/277/400 401/278/401 402/279/402
f 402/279/402 403/280/403 400/277/400
f 404/254/404 405/279/405 406/278/406
f 404/254/404 400/277/400 407/255/407
f 404/254/404 406/278/406 400/277/400
f 405/279/405 408/260/408 403/280/403
f 409/258/409 408/260/408 405/279/405
f 400/277/400 403/280/403 407/255/407
f 404/254/404 409/258/409 405/279/405
f 408/260/408 407/255/407 403/280/403
f 408/260/408 409/258/409 404/254/404
f 408/260/408 404/254/404 407/255/407
usemtl tex_1609_lit
f 410/281/410 411/282/411 412/283/412
f 412/283/412 411/282/411 413/284/413
usemtl tex_1613_lit_w11
f 414/285/414 415/286/415 416/287/416
f 416/287/416 415/286/415 417/288/417
usemtl tex_1616_lit_w11
f 418/289/418 419/290/419 420/291/420
f 420/291/420 419/290/419 421/292/421
usemtl tex_1619_lit_w11
f 422/293/422 423/294/423 424/295/424
f 424/295/424 423/294/423 425/296/425
usemtl tex_1622_lit_w11_ovl
f 426/297/426 427/298/427 428/299/428
usemtl tex_1622_lit_w11
f 428/299/428 427/298/427 429/300/429
usemtl tex_1812_lit_w01
f 435/301/435 430/302/430 431/303/431
f 431/303/431 432/304/432 436/305/436
f 432/304/432 433/306/433 436/305/436
f 434/307/434 430/302/430 437/308/437
f 433/306/433 434/307/434 438/309/438
f 430/302/430 435/301/435 437/308/437
f 433/306/433 438/309/438 436/305/436
f 435/301/435 431/303/431 436/305/436
f 434/307/434 437/308/437 438/309/438
f 444/306/444 439/310/439 445/307/445
f 440/311/440 439/310/439 444/306/444
f 446/304/446 440/311/440 444/306/444
f 441/312/441 440/311/440 446/304/446
f 447/303/447 441/312/441 446/304/446
f 442/313/442 441/312/441 447/303/447
f 445/307/445 443/314/443 448/302/448
f 439/310/439 443/314/443 445/307/445
f 448/302/448 442/313/442 447/303/447
f 443/314/443 442/313/442 448/302/448
f 449/315/449 450/316/450 451/317/451
f 451/317/451 452/318/452 453/319/453
f 454/320/454 450/316/450 455/321/455
f 453/319/453 454/320/454 456/322/456
f 453/319/453 452/318/452 454/320/454
f 450/316/450 449/315/449 455/321/455
f 449/315/449 451/317/451 453/319/453
f 454/320/454 455/321/455 456/322/456
f 451/317/451 450/316/450 454/320/454
f 451/317/451 454/320/454 452/318/452
f 457/323/457 458/324/458 459/325/459
f 460/326/460 461/327/461 459/325/459
f 462/328/462 463/329/463 464/330/464
f 461/327/461 457/323/457 459/325/459
f 462/328/462 464/330/464 458/324/458
f 458/324/458 464/330/464 465/331/465
f 466/332/466 463/329/463 461/327/461
f 458/324/458 465/331/465 459/325/459
f 463/329/463 466/332/466 464/330/464
f 466/332/466 461/327/461 460/326/460
f 472/323/472 467/333/467 473/324/473
f 473/324/473 467/333/467 468/334/468
f 473/324/473 468/334/468 474/328/474
f 474/328/474 468/334/468 469/335/469
f 474/328/474 469/335/469 475/329/475
f 475/329/475 469/335/469 470/336/470
f 475/329/475 470/336/470 476/327/476
f 476/327/476 470/336/470 471/337/471
f 476/327/476 471/337/471 472/323/472
f 472/323/472 471/337/471 467/333/467
f 482/311/482 477/332/477 483/310/483
f 478/330/478 477/332/477 482/311/482
f 484/312/484 478/330/478 482/311/482
f 479/331/479 478/330/478 484/312/484
f 485/313/485 479/331/479 484/312/484
f 480/325/480 479/331/479 485/313/485
f 483/310/483 477/332/477 486/314/486
f 481/326/481 480/325/480 485/313/485
f 486/314/486 481/326/481 485/313/485
f 477/332/477 481/326/481 486/314/486
f 487/338/487 488/339/488 489/317/489
f 490/316/490 491/340/491 489/317/489
f 491/340/491 487/338/487 489/317/489
f 492/341/492 493/320/493 488/339/488
f 488/339/488 493/320/493 494/318/494
f 490/316/490 492/341/492 491/340/491
f 488/339/488 494/318/494 489/317/489
f 492/341/492 490/316/490 493/320/493
f 495/338/495 491/340/491 492/341/492
f 492/341/492 496/339/496 495/338/495
f 494/318/494 493/320/493 490/316/490
f 494/318/494 490/316/490 489/317/489
usemtl tex_1811_lit_w01
f 497/342/497 498/343/498 499/344/499
f 499/344/499 500/345/500 501/346/501
f 502/347/502 501/346/501 503/348/503
f 504/349/504 505/350/505 506/351/506
f 502/347/502 499/344/499 501/346/501
f 502/347/502 497/342/497 499/344/499
f 507/352/507 499/344/499 508/353/508
f 501/346/501 506/351/506 509/354/509
f 500/345/500 504/349/504 501/346/501
f 510/355/510 505/350/505 511/356/511
f 512/357/512 502/347/502 503/348/503
f 507/352/507 500/345/500 499/344/499
f 503/348/503 501/346/501 509/354/509
f 513/357/513 514/348/514 515/358/515
f 516/346/516 517/349/517 518/351/518
f 519/345/519 520/356/520 517/349/517
f 521/350/521 517/349/517 520/356/520
f 513/357/513 515/358/515 522/359/522
f 514/348/514 523/354/523 515/358/515
usemtl tex_1813_lit_w01
f 524/360/524 525/361/525 526/362/526
f 527/363/527 524/360/524 528/364/528
f 529/365/529 530/366/530 531/367/531
f 532/364/532 533/360/533 534/362/534
f 535/368/535 536/369/536 537/361/537
f 538/370/538 536/369/536 535/368/535
f 539/371/539 540/372/540 541/373/541
f 542/374/542 540/372/540 539/371/539
f 543/375/543 533/360/533 544/363/544
f 543/375/543 544/363/544 539/371/539
f 530/366/530 543/375/543 539/371/539
f 544/363/544 542/374/542 539/371/539
f 530/366/530 529/365/529 538/370/538
f 545/362/545 546/376/546 547/377/547
f 548/361/548 549/369/549 550/378/550
f 551/366/551 552/370/552 553/375/553
usemtl tex_1813_lit_w01_ovl
f 554/368/554 555/360/555 553/375/553
usemtl tex_1813_lit_w01
f 552/370/552 554/368/554 553/375/553
f 555/360/555 554/368/554 548/361/548
f 556/364/556 547/377/547 557/374/557
f 556/364/556 545/362/545 547/377/547
f 558/363/558 556/364/556 557/374/557
usemtl tex_1811_lit_w01
f 559/379/559 568/354/568 560/380/560
f 568/354/568 569/351/569 560/380/560
f 561/381/561 569/351/569 562/382/562
f 561/381/561 560/380/560 569/351/569
f 563/383/563 570/358/570 559/379/559
f 559/379/559 570/358/570 568/354/568
f 562/382/562 569/351/569 571/350/571
usemtl tex_1813_lit_w01
f 564/384/564 572/376/572 565/385/565
f 565/385/565 572/376/572 573/362/573
f 565/385/565 573/362/573 566/386/566
f 573/362/573 574/361/574 566/386/566
f 567/387/567 566/386/566 574/361/574
f 575/387/575 577/361/577 576/388/576
f 576/388/576 577/361/577 578/378/578
usemtl tex_1811_lit_w01
f 579/389/579 580/390/580 581/391/581
f 582/389/582 583/392/583 584/393/584
f 580/390/580 579/389/579 585/394/585
f 586/395/586 587/392/587 588/390/588
f 589/396/589 590/394/590 591/393/591
f 582/389/582 592/391/592 583/392/583
f 587/392/587 592/391/592 580/390/580
f 593/389/593 591/393/591 590/394/590
f 594/395/594 595/396/595 596/392/596
f 595/396/595 597/393/597 596/392/596
usemtl tex_1813_lit_w01
f 598/397/598 599/398/599 600/399/600
f 601/400/601 598/397/598 600/399/600
usemtl tex_1806_lit
f 602/401/602 603/402/603 604/403/604
f 605/404/605 606/405/606 607/406/607
f 608/407/608 609/408/609 610/409/610
f 603/402/603 609/408/609 611/410/611
usemtl tex_1806_lit_ovl
f 612/411/612 606/405/606 613/412/613
usemtl tex_1806_lit
f 604/403/604 603/402/603 614/413/614
f 615/414/615 602/401/602 604/403/604
usemtl tex_1806_lit_ovl
f 616/415/616 612/411/612 617/416/617
usemtl tex_1806_lit
f 618/405/618 619/404/619 620/417/620
f 620/417/620 621/412/621 618/405/618
f 622/413/622 623/402/623 624/410/624
f 625/418/625 619/404/619 626/406/626
usemtl tex_1807_lit
f 627/419/627 625/418/625 628/420/628
f 629/416/629 630/421/630 631/415/631
f 632/422/632 633/423/633 634/409/634
f 633/423/633 635/407/635 634/409/634
f 636/421/636 637/419/637 638/420/638
f 636/421/636 639/424/639 637/419/637
f 638/420/638 640/418/640 641/406/641
f 636/421/636 638/420/638 642/415/642
f 643/425/643 644/426/644 633/423/633
f 645/414/645 632/422/632 646/401/646
f 643/425/643 633/423/633 632/422/632
f 645/414/645 643/425/643 632/422/632
usemtl tex_1806_lit
f 655/427/655 647/403/647 648/413/648
f 649/414/649 655/427/655 656/428/656
f 647/403/647 655/427/655 649/414/649
f 650/418/650 657/429/657 658/430/658
f 651/404/651 658/430/658 652/417/652
f 658/430/658 659/431/659 652/417/652
f 660/432/660 655/427/655 648/413/648
f 650/418/650 658/430/658 651/404/651
usemtl tex_1807_lit
f 649/414/649 656/428/656 653/425/653
f 653/425/653 656/428/656 661/433/661
f 653/425/653 661/433/661 654/426/654
f 662/424/662 666/434/666 667/435/667
f 663/426/663 668/433/668 669/436/669
f 662/424/662 667/435/667 664/419/664
f 664/419/664 667/435/667 665/418/665
f 665/418/665 667/435/667 670/429/670
usemtl tex_1806_lit
f 671/437/671 672/438/672 673/439/673
usemtl tex_1806_lit_ovl
f 674/440/674 675/441/675 676/442/676
usemtl tex_1806_lit
f 674/440/674 676/442/676 677/443/677
f 672/438/672 675/441/675 674/440/674
f 672/438/672 671/437/671 675/441/675
f 677/443/677 676/442/676 678/439/678
f 678/439/678 676/442/676 679/444/679
f 680/444/680 671/437/671 673/439/673
f 675/441/675 681/444/681 682/442/682
f 675/441/675 683/437/683 681/444/681
f 684/443/684 685/439/685 686/438/686
f 684/443/684 686/438/686 674/440/674
