mtllib CjeanwomanZ.mtl
v -230.91940307617188 327.08775198459625 34.0 1.000 1.000 1.000
v -178.91940307617188 360.08775198459625 8.0 1.000 1.000 1.000
v -184.91940307617188 359.08775198459625 -37.0 1.000 1.000 1.000
v -280.9194030761719 360.08775198459625 8.0 1.000 1.000 1.000
v -278.9194030761719 359.08775198459625 -40.0 1.000 1.000 1.000
v -225.91940307617188 358.08775198459625 -49.0 1.000 1.000 1.000
v -225.91940307617188 358.08775198459625 -49.0 1.000 1.000 1.000
v -5.144639015197754 382.83978271484375 42.0 1.000 1.000 1.000
v -50.144639015197754 399.83978271484375 13.0 1.000 1.000 1.000
v 29.855360984802246 387.83978271484375 -37.0 1.000 1.000 1.000
v 46.855360984802246 398.83978271484375 13.0 1.000 1.000 1.000
v -35.144639015197754 388.83978271484375 -36.0 1.000 1.000 1.000
v 339.4684295654297 -35.798519998788834 72.18532991409302 1.000 1.000 1.000
v 226.4684295654297 -21.798519998788834 50.18532991409302 1.000 1.000 1.000
v 336.4684295654297 -37.798519998788834 -24.814670085906982 1.000 1.000 1.000
v 228.4684295654297 -20.798519998788834 -12.814670085906982 1.000 1.000 1.000
v 314.4684295654297 43.201480001211166 -27.814670085906982 1.000 1.000 1.000
v 336.4684295654297 -37.798519998788834 -24.814670085906982 1.000 1.000 1.000
v 231.4684295654297 20.201480001211166 -12.814670085906982 1.000 1.000 1.000
v 228.4684295654297 -20.798519998788834 -12.814670085906982 1.000 1.000 1.000
v 226.4684295654297 -21.798519998788834 50.18532991409302 1.000 1.000 1.000
v 339.4684295654297 -35.798519998788834 72.18532991409302 1.000 1.000 1.000
v 229.4684295654297 23.201480001211166 47.18532991409302 1.000 1.000 1.000
v 317.4684295654297 44.201480001211166 69.18532991409302 1.000 1.000 1.000
v 231.4684295654297 20.201480001211166 -12.814670085906982 1.000 1.000 1.000
v 229.4684295654297 23.201480001211166 47.18532991409302 1.000 1.000 1.000
v 314.4684295654297 43.201480001211166 -27.814670085906982 1.000 1.000 1.000
v 317.4684295654297 44.201480001211166 69.18532991409302 1.000 1.000 1.000
v 336.4684295654297 -37.798519998788834 -24.814670085906982 1.000 1.000 1.000
v 314.4684295654297 43.201480001211166 -27.814670085906982 1.000 1.000 1.000
v 339.4684295654297 -35.798519998788834 72.18532991409302 1.000 1.000 1.000
v 317.4684295654297 44.201480001211166 69.18532991409302 1.000 1.000 1.000
v 422.1624616384506 279.6345748901367 52.7601900100708 1.000 1.000 1.000
v 423.1624616384506 283.6345748901367 -35.2398099899292 1.000 1.000 1.000
v 388.1624616384506 359.6345748901367 44.7601900100708 1.000 1.000 1.000
v 402.1624616384506 348.6345748901367 -37.2398099899292 1.000 1.000 1.000
v 226.4684295654297 -21.798519998788834 50.18532991409302 1.000 1.000 1.000
v 229.4684295654297 23.201480001211166 47.18532991409302 1.000 1.000 1.000
v 231.4684295654297 20.201480001211166 -12.814670085906982 1.000 1.000 1.000
v 228.4684295654297 -20.798519998788834 -12.814670085906982 1.000 1.000 1.000
v 353.1624616384506 332.6345748901367 -35.2398099899292 1.000 1.000 1.000
v 351.1624616384506 285.6345748901367 -31.2398099899292 1.000 1.000 1.000
v 314.1624616384506 354.6345748901367 -7.239809989929199 1.000 1.000 1.000
v 351.1624616384506 347.6345748901367 -33.2398099899292 1.000 1.000 1.000
v 351.1624616384506 355.6345748901367 24.7601900100708 1.000 1.000 1.000
v 348.1624616384506 328.6345748901367 43.7601900100708 1.000 1.000 1.000
v 354.1624616384506 283.6345748901367 13.7601900100708 1.000 1.000 1.000
v 349.1624616384506 281.6345748901367 48.7601900100708 1.000 1.000 1.000
v 423.1624616384506 283.6345748901367 -35.2398099899292 1.000 1.000 1.000
v 402.1624616384506 348.6345748901367 -37.2398099899292 1.000 1.000 1.000
v 388.1624616384506 359.6345748901367 44.7601900100708 1.000 1.000 1.000
v 422.1624616384506 279.6345748901367 52.7601900100708 1.000 1.000 1.000
v 155.77948129177094 249.40526580810547 -41.0 1.000 1.000 1.000
v 303.77948129177094 279.40526580810547 -28.0 1.000 1.000 1.000
v 301.77948129177094 275.40526580810547 46.0 1.000 1.000 1.000
v 157.77948129177094 243.40526580810547 48.0 1.000 1.000 1.000
v 81.77948129177094 308.40526580810547 -45.0 1.000 1.000 1.000
v 70.77948129177094 313.40526580810547 -7.0 1.000 1.000 1.000
v 114.77948129177094 329.40526580810547 49.0 1.000 1.000 1.000
v 254.77948129177094 348.40526580810547 22.0 1.000 1.000 1.000
v 75.77948129177094 317.40526580810547 21.0 1.000 1.000 1.000
v 310.77948129177094 346.40526580810547 -35.0 1.000 1.000 1.000
v -94.91940307617188 224.08775198459625 -41.0 1.000 1.000 1.000
v -102.91940307617188 224.08775198459625 49.0 1.000 1.000 1.000
v -102.91940307617188 224.08775198459625 49.0 1.000 1.000 1.000
v -91.91940307617188 293.08775198459625 50.0 1.000 1.000 1.000
v -89.91940307617188 336.08775198459625 15.0 1.000 1.000 1.000
v -90.91940307617188 332.08775198459625 -28.0 1.000 1.000 1.000
v -92.91940307617188 299.08775198459625 -55.0 1.000 1.000 1.000
v -92.91940307617188 299.08775198459625 -55.0 1.000 1.000 1.000
v 155.77948129177094 249.40526580810547 -41.0 1.000 1.000 1.000
v 155.77948129177094 249.40526580810547 -41.0 1.000 1.000 1.000
v 157.77948129177094 243.40526580810547 48.0 1.000 1.000 1.000
v 114.77948129177094 329.40526580810547 49.0 1.000 1.000 1.000
v 75.77948129177094 317.40526580810547 21.0 1.000 1.000 1.000
v 70.77948129177094 313.40526580810547 -7.0 1.000 1.000 1.000
v 81.77948129177094 308.40526580810547 -45.0 1.000 1.000 1.000
v 303.77948129177094 279.40526580810547 -28.0 1.000 1.000 1.000
v 310.77948129177094 346.40526580810547 -35.0 1.000 1.000 1.000
v 254.77948129177094 348.40526580810547 22.0 1.000 1.000 1.000
v 301.77948129177094 275.40526580810547 46.0 1.000 1.000 1.000
v 351.1624616384506 285.6345748901367 -31.2398099899292 1.000 1.000 1.000
v 354.1624616384506 283.6345748901367 13.7601900100708 1.000 1.000 1.000
v 353.1624616384506 332.6345748901367 -35.2398099899292 1.000 1.000 1.000
v 351.1624616384506 347.6345748901367 -33.2398099899292 1.000 1.000 1.000
v 314.1624616384506 354.6345748901367 -7.239809989929199 1.000 1.000 1.000
v 351.1624616384506 355.6345748901367 24.7601900100708 1.000 1.000 1.000
v 348.1624616384506 328.6345748901367 43.7601900100708 1.000 1.000 1.000
v 349.1624616384506 281.6345748901367 48.7601900100708 1.000 1.000 1.000
v -689.1761156320572 322.0952173471451 -26.0 1.000 1.000 1.000
v -579.1761156320572 328.0952173471451 51.0 1.000 1.000 1.000
v -693.1761156320572 322.0952173471451 71.0 1.000 1.000 1.000
v -579.1761156320572 328.0952173471451 -14.0 1.000 1.000 1.000
v -582.1761156320572 371.0952173471451 -14.0 1.000 1.000 1.000
v -689.1761156320572 322.0952173471451 -26.0 1.000 1.000 1.000
v -662.1761156320572 401.0952173471451 -28.0 1.000 1.000 1.000
v -579.1761156320572 328.0952173471451 -14.0 1.000 1.000 1.000
v -582.1761156320572 373.0952173471451 50.0 1.000 1.000 1.000
v -693.1761156320572 322.0952173471451 71.0 1.000 1.000 1.000
v -579.1761156320572 328.0952173471451 51.0 1.000 1.000 1.000
v -667.1761156320572 401.0952173471451 70.0 1.000 1.000 1.000
v -662.1761156320572 401.0952173471451 -28.0 1.000 1.000 1.000
v -582.1761156320572 373.0952173471451 50.0 1.000 1.000 1.000
v -582.1761156320572 371.0952173471451 -14.0 1.000 1.000 1.000
v -667.1761156320572 401.0952173471451 70.0 1.000 1.000 1.000
v -693.1761156320572 322.0952173471451 71.0 1.000 1.000 1.000
v -662.1761156320572 401.0952173471451 -28.0 1.000 1.000 1.000
v -689.1761156320572 322.0952173471451 -26.0 1.000 1.000 1.000
v -667.1761156320572 401.0952173471451 70.0 1.000 1.000 1.000
v -375.2567125558853 300.0074653625488 -40.0 1.000 1.000 1.000
v -418.2567125558853 298.0074653625488 48.0 1.000 1.000 1.000
v -382.2567125558853 376.0074653625488 41.0 1.000 1.000 1.000
v -395.2567125558853 367.0074653625488 -37.0 1.000 1.000 1.000
v -579.1761156320572 328.0952173471451 51.0 1.000 1.000 1.000
v -582.1761156320572 373.0952173471451 50.0 1.000 1.000 1.000
v -582.1761156320572 371.0952173471451 -14.0 1.000 1.000 1.000
v -579.1761156320572 328.0952173471451 -14.0 1.000 1.000 1.000
v -346.2567125558853 369.0074653625488 35.0 1.000 1.000 1.000
v -347.2567125558853 365.0074653625488 -6.0 1.000 1.000 1.000
v -346.2567125558853 349.0074653625488 -34.0 1.000 1.000 1.000
v -324.2567125558853 301.0074653625488 -29.0 1.000 1.000 1.000
v -344.2567125558853 302.0074653625488 -1.0 1.000 1.000 1.000
v -342.2567125558853 300.0074653625488 42.0 1.000 1.000 1.000
v -343.2567125558853 340.0074653625488 40.0 1.000 1.000 1.000
v -345.2567125558853 342.0074653625488 -33.0 1.000 1.000 1.000
v -382.2567125558853 376.0074653625488 41.0 1.000 1.000 1.000
v -395.2567125558853 367.0074653625488 -37.0 1.000 1.000 1.000
v -375.2567125558853 300.0074653625488 -40.0 1.000 1.000 1.000
v -418.2567125558853 298.0074653625488 48.0 1.000 1.000 1.000
v -295.1487566232681 293.2091751098633 42.0 1.000 1.000 1.000
v -297.1487566232681 297.2091751098633 -29.0 1.000 1.000 1.000
v -146.14875662326813 265.2091751098633 -39.0 1.000 1.000 1.000
v -151.14875662326813 270.2091751098633 47.0 1.000 1.000 1.000
v -68.14875662326813 333.2091751098633 -44.0 1.000 1.000 1.000
v -302.1487566232681 360.2091751098633 -36.0 1.000 1.000 1.000
v -249.14875662326813 364.2091751098633 22.0 1.000 1.000 1.000
v -116.14875662326813 346.2091751098633 49.0 1.000 1.000 1.000
v -64.14875662326813 336.2091751098633 -14.0 1.000 1.000 1.000
v -68.14875662326813 339.2091751098633 23.0 1.000 1.000 1.000
v -370.9194030761719 336.08775198459625 -29.0 1.000 1.000 1.000
v -368.9194030761719 339.08775198459625 15.0 1.000 1.000 1.000
v -365.9194030761719 300.08775198459625 52.0 1.000 1.000 1.000
v -365.9194030761719 225.08775198459625 48.0 1.000 1.000 1.000
v -359.9194030761719 229.08775198459625 -41.0 1.000 1.000 1.000
v -369.9194030761719 306.08775198459625 -57.0 1.000 1.000 1.000
v -365.9194030761719 225.08775198459625 48.0 1.000 1.000 1.000
v -359.9194030761719 229.08775198459625 -41.0 1.000 1.000 1.000
v -64.14875662326813 336.2091751098633 -14.0 1.000 1.000 1.000
v -68.14875662326813 339.2091751098633 23.0 1.000 1.000 1.000
v -116.14875662326813 346.2091751098633 49.0 1.000 1.000 1.000
v -151.14875662326813 270.2091751098633 47.0 1.000 1.000 1.000
v -146.14875662326813 265.2091751098633 -39.0 1.000 1.000 1.000
v -68.14875662326813 333.2091751098633 -44.0 1.000 1.000 1.000
v -146.14875662326813 265.2091751098633 -39.0 1.000 1.000 1.000
v -297.1487566232681 297.2091751098633 -29.0 1.000 1.000 1.000
v -302.1487566232681 360.2091751098633 -36.0 1.000 1.000 1.000
v -249.14875662326813 364.2091751098633 22.0 1.000 1.000 1.000
v -295.1487566232681 293.2091751098633 42.0 1.000 1.000 1.000
v -345.2567125558853 342.0074653625488 -33.0 1.000 1.000 1.000
v -324.2567125558853 301.0074653625488 -29.0 1.000 1.000 1.000
v -347.2567125558853 365.0074653625488 -6.0 1.000 1.000 1.000
v -346.2567125558853 349.0074653625488 -34.0 1.000 1.000 1.000
v -343.2567125558853 340.0074653625488 40.0 1.000 1.000 1.000
v -346.2567125558853 369.0074653625488 35.0 1.000 1.000 1.000
v -344.2567125558853 302.0074653625488 -1.0 1.000 1.000 1.000
v -342.2567125558853 300.0074653625488 42.0 1.000 1.000 1.000
v -308.9194030761719 121.08775198459625 108.0 1.000 1.000 1.000
v -320.9194030761719 159.08775198459625 142.0 1.000 1.000 1.000
v -368.9194030761719 171.08775198459625 78.0 1.000 1.000 1.000
v -318.9194030761719 265.08775198459625 96.0 1.000 1.000 1.000
v -230.91940307617188 185.08775198459625 119.0 1.000 1.000 1.000
v -150.91940307617188 265.08775198459625 96.0 1.000 1.000 1.000
v -87.91940307617188 171.08775198459625 78.0 1.000 1.000 1.000
v -102.91940307617188 224.08775198459625 49.0 1.000 1.000 1.000
v -112.91940307617188 186.08775198459625 123.0 1.000 1.000 1.000
v -140.91940307617188 161.08775198459625 143.0 1.000 1.000 1.000
v -230.91940307617188 185.08775198459625 119.0 1.000 1.000 1.000
v -140.91940307617188 161.08775198459625 143.0 1.000 1.000 1.000
v -320.9194030761719 159.08775198459625 142.0 1.000 1.000 1.000
v -320.9194030761719 159.08775198459625 142.0 1.000 1.000 1.000
v -140.91940307617188 161.08775198459625 143.0 1.000 1.000 1.000
v -153.91940307617188 125.08775198459625 108.0 1.000 1.000 1.000
v -280.9194030761719 360.08775198459625 8.0 1.000 1.000 1.000
v -370.9194030761719 336.08775198459625 -29.0 1.000 1.000 1.000
v -368.9194030761719 339.08775198459625 15.0 1.000 1.000 1.000
v -308.9194030761719 121.08775198459625 108.0 1.000 1.000 1.000
v -231.91940307617188 130.08775198459625 115.0 1.000 1.000 1.000
v -320.9194030761719 159.08775198459625 142.0 1.000 1.000 1.000
v -318.9194030761719 265.08775198459625 96.0 1.000 1.000 1.000
v -230.91940307617188 185.08775198459625 119.0 1.000 1.000 1.000
v -87.91940307617188 171.08775198459625 78.0 1.000 1.000 1.000
v -118.91940307617188 95.08775198459625 -10.0 1.000 1.000 1.000
v -102.91940307617188 224.08775198459625 49.0 1.000 1.000 1.000
v -360.9194030761719 185.08775198459625 123.0 1.000 1.000 1.000
v -368.9194030761719 171.08775198459625 78.0 1.000 1.000 1.000
v -278.9194030761719 359.08775198459625 -40.0 1.000 1.000 1.000
v -365.9194030761719 225.08775198459625 48.0 1.000 1.000 1.000
v -340.9194030761719 93.08775198459625 -11.0 1.000 1.000 1.000
v -87.91940307617188 171.08775198459625 78.0 1.000 1.000 1.000
v -112.91940307617188 186.08775198459625 123.0 1.000 1.000 1.000
v -140.91940307617188 161.08775198459625 143.0 1.000 1.000 1.000
v -230.91940307617188 185.08775198459625 119.0 1.000 1.000 1.000
v -150.91940307617188 265.08775198459625 96.0 1.000 1.000 1.000
v -184.91940307617188 359.08775198459625 -37.0 1.000 1.000 1.000
v -178.91940307617188 360.08775198459625 8.0 1.000 1.000 1.000
v -90.91940307617188 332.08775198459625 -28.0 1.000 1.000 1.000
v -118.91940307617188 95.08775198459625 -10.0 1.000 1.000 1.000
v -94.91940307617188 224.08775198459625 -41.0 1.000 1.000 1.000
v -102.91940307617188 224.08775198459625 49.0 1.000 1.000 1.000
v -318.9194030761719 265.08775198459625 96.0 1.000 1.000 1.000
v -230.91940307617188 327.08775198459625 34.0 1.000 1.000 1.000
v -280.9194030761719 360.08775198459625 8.0 1.000 1.000 1.000
v -368.9194030761719 171.08775198459625 78.0 1.000 1.000 1.000
v -365.9194030761719 225.08775198459625 48.0 1.000 1.000 1.000
v -340.9194030761719 93.08775198459625 -11.0 1.000 1.000 1.000
v -140.91940307617188 161.08775198459625 143.0 1.000 1.000 1.000
v -231.91940307617188 130.08775198459625 115.0 1.000 1.000 1.000
v -153.91940307617188 125.08775198459625 108.0 1.000 1.000 1.000
v -89.91940307617188 336.08775198459625 15.0 1.000 1.000 1.000
v -90.91940307617188 332.08775198459625 -28.0 1.000 1.000 1.000
v -178.91940307617188 360.08775198459625 8.0 1.000 1.000 1.000
v -365.9194030761719 300.08775198459625 52.0 1.000 1.000 1.000
v -318.9194030761719 265.08775198459625 96.0 1.000 1.000 1.000
v -230.91940307617188 185.08775198459625 119.0 1.000 1.000 1.000
v -320.9194030761719 159.08775198459625 142.0 1.000 1.000 1.000
v -360.9194030761719 185.08775198459625 123.0 1.000 1.000 1.000
v -320.9194030761719 159.08775198459625 142.0 1.000 1.000 1.000
v -318.9194030761719 265.08775198459625 96.0 1.000 1.000 1.000
v -360.9194030761719 185.08775198459625 123.0 1.000 1.000 1.000
v -320.9194030761719 159.08775198459625 142.0 1.000 1.000 1.000
v -365.9194030761719 225.08775198459625 48.0 1.000 1.000 1.000
v -150.91940307617188 265.08775198459625 96.0 1.000 1.000 1.000
v -178.91940307617188 360.08775198459625 8.0 1.000 1.000 1.000
v -230.91940307617188 327.08775198459625 34.0 1.000 1.000 1.000
v -231.91940307617188 130.08775198459625 115.0 1.000 1.000 1.000
v -230.91940307617188 185.08775198459625 119.0 1.000 1.000 1.000
v -112.91940307617188 186.08775198459625 123.0 1.000 1.000 1.000
v -140.91940307617188 161.08775198459625 143.0 1.000 1.000 1.000
v -102.91940307617188 224.08775198459625 49.0 1.000 1.000 1.000
v -365.9194030761719 300.08775198459625 52.0 1.000 1.000 1.000
v -368.9194030761719 339.08775198459625 15.0 1.000 1.000 1.000
v -87.91940307617188 171.08775198459625 78.0 1.000 1.000 1.000
v -153.91940307617188 125.08775198459625 108.0 1.000 1.000 1.000
v -118.91940307617188 95.08775198459625 -10.0 1.000 1.000 1.000
v -140.91940307617188 161.08775198459625 143.0 1.000 1.000 1.000
v -112.91940307617188 186.08775198459625 123.0 1.000 1.000 1.000
v -140.91940307617188 161.08775198459625 143.0 1.000 1.000 1.000
v -91.91940307617188 293.08775198459625 50.0 1.000 1.000 1.000
v -150.91940307617188 265.08775198459625 96.0 1.000 1.000 1.000
v -102.91940307617188 224.08775198459625 49.0 1.000 1.000 1.000
v -89.91940307617188 336.08775198459625 15.0 1.000 1.000 1.000
v -178.91940307617188 360.08775198459625 8.0 1.000 1.000 1.000
v -365.9194030761719 225.08775198459625 48.0 1.000 1.000 1.000
v -359.9194030761719 229.08775198459625 -41.0 1.000 1.000 1.000
v -340.9194030761719 93.08775198459625 -11.0 1.000 1.000 1.000
v -318.9194030761719 265.08775198459625 96.0 1.000 1.000 1.000
v -230.91940307617188 327.08775198459625 34.0 1.000 1.000 1.000
v -369.9194030761719 306.08775198459625 -57.0 1.000 1.000 1.000
v -225.91940307617188 358.08775198459625 -49.0 1.000 1.000 1.000
v -227.91940307617188 233.08775198459625 -83.0 1.000 1.000 1.000
v -342.9194030761719 233.08775198459625 -72.0 1.000 1.000 1.000
v -230.91940307617188 104.08775198459625 -59.0 1.000 1.000 1.000
v -340.9194030761719 93.08775198459625 -11.0 1.000 1.000 1.000
v -92.91940307617188 299.08775198459625 -55.0 1.000 1.000 1.000
v -370.9194030761719 336.08775198459625 -29.0 1.000 1.000 1.000
v -278.9194030761719 359.08775198459625 -40.0 1.000 1.000 1.000
v -359.9194030761719 229.08775198459625 -41.0 1.000 1.000 1.000
v -109.91940307617188 233.08775198459625 -71.0 1.000 1.000 1.000
v -94.91940307617188 224.08775198459625 -41.0 1.000 1.000 1.000
v -118.91940307617188 95.08775198459625 -10.0 1.000 1.000 1.000
v -90.91940307617188 332.08775198459625 -28.0 1.000 1.000 1.000
v -184.91940307617188 359.08775198459625 -37.0 1.000 1.000 1.000
v -85.95715200901031 91.5383071899414 29.0 1.000 1.000 1.000
v -97.95715200901031 100.5383071899414 -22.0 1.000 1.000 1.000
v -38.957152009010315 81.5383071899414 78.0 1.000 1.000 1.000
v -71.95715200901031 88.5383071899414 69.0 1.000 1.000 1.000
v 32.042847990989685 84.5383071899414 75.0 1.000 1.000 1.000
v -1.957152009010315 79.5383071899414 80.0 1.000 1.000 1.000
v 86.04284799098969 91.5383071899414 28.0 1.000 1.000 1.000
v 65.04284799098969 88.5383071899414 69.0 1.000 1.000 1.000
v 95.04284799098969 100.5383071899414 -22.0 1.000 1.000 1.000
v -340.9194030761719 93.08775198459625 -11.0 1.000 1.000 1.000
v -308.9194030761719 121.08775198459625 108.0 1.000 1.000 1.000
v -231.91940307617188 130.08775198459625 115.0 1.000 1.000 1.000
v -153.91940307617188 125.08775198459625 108.0 1.000 1.000 1.000
v -118.91940307617188 95.08775198459625 -10.0 1.000 1.000 1.000
v 29.042847990989685 106.5383071899414 -47.0 1.000 1.000 1.000
v 95.04284799098969 100.5383071899414 -22.0 1.000 1.000 1.000
v -34.957152009010315 105.5383071899414 -47.0 1.000 1.000 1.000
v -97.95715200901031 100.5383071899414 -22.0 1.000 1.000 1.000
v -118.91940307617188 95.08775198459625 -10.0 1.000 1.000 1.000
v -230.91940307617188 104.08775198459625 -59.0 1.000 1.000 1.000
v -340.9194030761719 93.08775198459625 -11.0 1.000 1.000 1.000
v -955.990852355957 -87.5441484451294 -60.0 1.000 1.000 1.000
v -955.990852355957 -144.5441484451294 -52.0 1.000 1.000 1.000
v -955.990852355957 -22.544148445129395 175.0 1.000 1.000 1.000
v -955.990852355957 -127.5441484451294 175.0 1.000 1.000 1.000
v -931.990852355957 -61.544148445129395 157.0 1.000 1.000 1.000
v -849.990852355957 -90.5441484451294 18.0 1.000 1.000 1.000
v -850.990852355957 -86.5441484451294 -33.0 1.000 1.000 1.000
v -847.990852355957 -135.5441484451294 -34.0 1.000 1.000 1.000
v -920.990852355957 -100.5441484451294 166.0 1.000 1.000 1.000
v -850.990852355957 -126.5441484451294 19.0 1.000 1.000 1.000
v -560.1337356567383 -150.91656255722046 -10.0 1.000 1.000 1.000
v -572.1337356567383 -86.91656255722046 51.0 1.000 1.000 1.000
v -581.1337356567383 -92.91656255722046 -77.0 1.000 1.000 1.000
v -559.1337356567383 -28.91656255722046 -16.0 1.000 1.000 1.000
v -572.1337356567383 -86.91656255722046 51.0 1.000 1.000 1.000
v -559.1337356567383 -28.91656255722046 -16.0 1.000 1.000 1.000
v -850.990852355957 -126.5441484451294 19.0 1.000 1.000 1.000
v -847.990852355957 -135.5441484451294 -34.0 1.000 1.000 1.000
v -849.990852355957 -90.5441484451294 18.0 1.000 1.000 1.000
v -850.990852355957 -86.5441484451294 -33.0 1.000 1.000 1.000
v -849.990852355957 -90.5441484451294 18.0 1.000 1.000 1.000
v -850.990852355957 -86.5441484451294 -33.0 1.000 1.000 1.000
v -469.1337356567383 -52.91656255722046 -36.0 1.000 1.000 1.000
v -462.1337356567383 -34.91656255722046 -8.0 1.000 1.000 1.000
v -459.1337356567383 -69.91656255722046 50.0 1.000 1.000 1.000
v -459.1337356567383 -81.91656255722046 46.0 1.000 1.000 1.000
v -460.1337356567383 -137.91656255722046 0.0 1.000 1.000 1.000
v -464.1337356567383 -130.91656255722046 -50.0 1.000 1.000 1.000
v -467.1337356567383 -83.91656255722046 -46.0 1.000 1.000 1.000
v -462.1337356567383 -34.91656255722046 -8.0 1.000 1.000 1.000
v -559.1337356567383 -28.91656255722046 -16.0 1.000 1.000 1.000
v -572.1337356567383 -86.91656255722046 51.0 1.000 1.000 1.000
v -560.1337356567383 -150.91656255722046 -10.0 1.000 1.000 1.000
v -581.1337356567383 -92.91656255722046 -77.0 1.000 1.000 1.000
v -559.1337356567383 -28.91656255722046 -16.0 1.000 1.000 1.000
v -572.1337356567383 -86.91656255722046 51.0 1.000 1.000 1.000
v -228.19693756103516 -82.9778823852539 -69.0 1.000 1.000 1.000
v -216.19693756103516 -6.977882385253906 6.0 1.000 1.000 1.000
v -154.19693756103516 -82.9778823852539 -85.0 1.000 1.000 1.000
v -155.19693756103516 -168.9778823852539 -90.0 1.000 1.000 1.000
v -228.19693756103516 -168.9778823852539 7.0 1.000 1.000 1.000
v -184.19693756103516 -169.9778823852539 83.0 1.000 1.000 1.000
v -224.19693756103516 -89.9778823852539 80.0 1.000 1.000 1.000
v -172.19693756103516 -89.9778823852539 82.0 1.000 1.000 1.000
v -154.19693756103516 -82.9778823852539 -85.0 1.000 1.000 1.000
v -216.19693756103516 -6.977882385253906 6.0 1.000 1.000 1.000
v -147.19693756103516 -4.977882385253906 6.0 1.000 1.000 1.000
v -172.19693756103516 -89.9778823852539 82.0 1.000 1.000 1.000
v -1.0 -154.0 90.0 1.000 1.000 1.000
v -79.0 -81.0 94.0 1.000 1.000 1.000
v -1.0 -81.0 -113.0 1.000 1.000 1.000
v -149.0 -49.0 -6.0 1.000 1.000 1.000
v -149.0 -49.0 -6.0 1.000 1.000 1.000
v -79.0 -81.0 94.0 1.000 1.000 1.000
v -184.19693756103516 -169.9778823852539 83.0 1.000 1.000 1.000
v -155.19693756103516 -168.9778823852539 -90.0 1.000 1.000 1.000
v -154.19693756103516 -82.9778823852539 -85.0 1.000 1.000 1.000
v -147.19693756103516 -4.977882385253906 6.0 1.000 1.000 1.000
v -172.19693756103516 -89.9778823852539 82.0 1.000 1.000 1.000
v -154.19693756103516 -82.9778823852539 -85.0 1.000 1.000 1.000
v -147.19693756103516 -4.977882385253906 6.0 1.000 1.000 1.000
v -216.19693756103516 -6.977882385253906 6.0 1.000 1.000 1.000
v -228.19693756103516 -82.9778823852539 -69.0 1.000 1.000 1.000
v -224.19693756103516 -89.9778823852539 80.0 1.000 1.000 1.000
v -228.19693756103516 -168.9778823852539 7.0 1.000 1.000 1.000
v -216.19693756103516 -6.977882385253906 6.0 1.000 1.000 1.000
v -469.1337356567383 -52.91656255722046 -36.0 1.000 1.000 1.000
v -462.1337356567383 -34.91656255722046 -8.0 1.000 1.000 1.000
v -464.1337356567383 -130.91656255722046 -50.0 1.000 1.000 1.000
v -467.1337356567383 -83.91656255722046 -46.0 1.000 1.000 1.000
v -459.1337356567383 -81.91656255722046 46.0 1.000 1.000 1.000
v -459.1337356567383 -69.91656255722046 50.0 1.000 1.000 1.000
v -460.1337356567383 -137.91656255722046 0.0 1.000 1.000 1.000
v -462.1337356567383 -34.91656255722046 -8.0 1.000 1.000 1.000
v -459.1337356567383 -69.91656255722046 50.0 1.000 1.000 1.000
v 964.2518539428711 -27.029990196228027 175.0 1.000 1.000 1.000
v 964.2518539428711 -150.02999019622803 -52.0 1.000 1.000 1.000
v 964.2518539428711 -92.02999019622803 -60.0 1.000 1.000 1.000
v 964.2518539428711 -132.02999019622803 175.0 1.000 1.000 1.000
v 929.2518539428711 -105.02999019622803 166.0 1.000 1.000 1.000
v 939.2518539428711 -66.02999019622803 157.0 1.000 1.000 1.000
v 856.2518539428711 -90.02999019622803 10.0 1.000 1.000 1.000
v 854.2518539428711 -139.02999019622803 -35.0 1.000 1.000 1.000
v 854.2518539428711 -87.02999019622803 -33.0 1.000 1.000 1.000
v 857.2518539428711 -130.02999019622803 18.0 1.000 1.000 1.000
v 591.3234176635742 -99.23597812652588 -77.0 1.000 1.000 1.000
v 566.3234176635742 -30.23597812652588 -18.0 1.000 1.000 1.000
v 580.3234176635742 -91.23597812652588 50.0 1.000 1.000 1.000
v 568.3234176635742 -155.23597812652588 -10.0 1.000 1.000 1.000
v 566.3234176635742 -30.23597812652588 -18.0 1.000 1.000 1.000
v 854.2518539428711 -87.02999019622803 -33.0 1.000 1.000 1.000
v 857.2518539428711 -130.02999019622803 18.0 1.000 1.000 1.000
v 854.2518539428711 -139.02999019622803 -35.0 1.000 1.000 1.000
v 856.2518539428711 -90.02999019622803 10.0 1.000 1.000 1.000
v 856.2518539428711 -90.02999019622803 10.0 1.000 1.000 1.000
v 854.2518539428711 -87.02999019622803 -33.0 1.000 1.000 1.000
v 473.3234176635742 -131.23597812652588 -50.0 1.000 1.000 1.000
v 472.3234176635742 -139.23597812652588 -49.0 1.000 1.000 1.000
v 470.3234176635742 -141.23597812652588 0.0 1.000 1.000 1.000
v 468.3234176635742 -88.23597812652588 45.0 1.000 1.000 1.000
v 467.3234176635742 -76.23597812652588 49.0 1.000 1.000 1.000
v 470.3234176635742 -37.23597812652588 -8.0 1.000 1.000 1.000
v 476.3234176635742 -63.23597812652588 -42.0 1.000 1.000 1.000
v 476.3234176635742 -63.23597812652588 -42.0 1.000 1.000 1.000
v 470.3234176635742 -37.23597812652588 -8.0 1.000 1.000 1.000
v 476.3234176635742 -63.23597812652588 -42.0 1.000 1.000 1.000
v 591.3234176635742 -99.23597812652588 -77.0 1.000 1.000 1.000
v 568.3234176635742 -155.23597812652588 -10.0 1.000 1.000 1.000
v 580.3234176635742 -91.23597812652588 50.0 1.000 1.000 1.000
v 566.3234176635742 -30.23597812652588 -18.0 1.000 1.000 1.000
v 566.3234176635742 -30.23597812652588 -18.0 1.000 1.000 1.000
v 180.01924896240234 -93.95386505126953 81.0 1.000 1.000 1.000
v 225.01924896240234 -8.953865051269531 7.0 1.000 1.000 1.000
v 149.01924896240234 -3.9538650512695312 7.0 1.000 1.000 1.000
v 232.01924896240234 -93.95386505126953 79.0 1.000 1.000 1.000
v 192.01924896240234 -173.95386505126953 83.0 1.000 1.000 1.000
v 236.01924896240234 -174.95386505126953 7.0 1.000 1.000 1.000
v 163.01924896240234 -174.95386505126953 -90.0 1.000 1.000 1.000
v 231.01924896240234 -96.95386505126953 -67.0 1.000 1.000 1.000
v 163.01924896240234 -86.95386505126953 -85.0 1.000 1.000 1.000
v 149.01924896240234 -3.9538650512695312 7.0 1.000 1.000 1.000
v 225.01924896240234 -8.953865051269531 7.0 1.000 1.000 1.000
v 163.01924896240234 -86.95386505126953 -85.0 1.000 1.000 1.000
v 77.0 -81.0 93.0 1.000 1.000 1.000
v -1.0 -81.0 -113.0 1.000 1.000 1.000
v -1.0 -154.0 90.0 1.000 1.000 1.000
v 147.0 -49.0 -7.0 1.000 1.000 1.000
v 147.0 -49.0 -7.0 1.000 1.000 1.000
v 192.01924896240234 -173.95386505126953 83.0 1.000 1.000 1.000
v 180.01924896240234 -93.95386505126953 81.0 1.000 1.000 1.000
v 163.01924896240234 -174.95386505126953 -90.0 1.000 1.000 1.000
v 163.01924896240234 -86.95386505126953 -85.0 1.000 1.000 1.000
v 149.01924896240234 -3.9538650512695312 7.0 1.000 1.000 1.000
v 149.01924896240234 -3.9538650512695312 7.0 1.000 1.000 1.000
v 163.01924896240234 -86.95386505126953 -85.0 1.000 1.000 1.000
v 232.01924896240234 -93.95386505126953 79.0 1.000 1.000 1.000
v 225.01924896240234 -8.953865051269531 7.0 1.000 1.000 1.000
v 231.01924896240234 -96.95386505126953 -67.0 1.000 1.000 1.000
v 236.01924896240234 -174.95386505126953 7.0 1.000 1.000 1.000
v 225.01924896240234 -8.953865051269531 7.0 1.000 1.000 1.000
v 467.3234176635742 -76.23597812652588 49.0 1.000 1.000 1.000
v 470.3234176635742 -37.23597812652588 -8.0 1.000 1.000 1.000
v 476.3234176635742 -63.23597812652588 -42.0 1.000 1.000 1.000
v 476.3234176635742 -63.23597812652588 -42.0 1.000 1.000 1.000
v 473.3234176635742 -131.23597812652588 -50.0 1.000 1.000 1.000
v 468.3234176635742 -88.23597812652588 45.0 1.000 1.000 1.000
v 472.3234176635742 -139.23597812652588 -49.0 1.000 1.000 1.000
v 470.3234176635742 -141.23597812652588 0.0 1.000 1.000 1.000
v 470.3234176635742 -37.23597812652588 -8.0 1.000 1.000 1.000
v 476.3234176635742 -63.23597812652588 -42.0 1.000 1.000 1.000
v -149.0 -49.0 -6.0 1.000 1.000 1.000
v -1.0 50.0 -70.0 1.000 1.000 1.000
v -1.0 -81.0 -113.0 1.000 1.000 1.000
v -122.0 43.0 -29.0 1.000 1.000 1.000
v -1.0 -81.0 -113.0 1.000 1.000 1.000
v 122.0 44.0 -29.0 1.000 1.000 1.000
v 147.0 -49.0 -7.0 1.000 1.000 1.000
v -1.0 50.0 -70.0 1.000 1.000 1.000
v -122.0 43.0 -29.0 1.000 1.000 1.000
v -149.0 -49.0 -6.0 1.000 1.000 1.000
v -90.0 16.0 54.0 1.000 1.000 1.000
v -79.0 -81.0 94.0 1.000 1.000 1.000
v 0.0 -24.0 93.0 1.000 1.000 1.000
v -1.0 -154.0 90.0 1.000 1.000 1.000
v -1.0 -81.0 94.0 1.000 1.000 1.000
v 147.0 -49.0 -7.0 1.000 1.000 1.000
v 122.0 44.0 -29.0 1.000 1.000 1.000
v 80.0 17.0 54.0 1.000 1.000 1.000
v 0.0 -24.0 93.0 1.000 1.000 1.000
v -1.0 -81.0 94.0 1.000 1.000 1.000
v 77.0 -81.0 93.0 1.000 1.000 1.000
v 0.0 -24.0 93.0 1.000 1.000 1.000
v -79.0 -81.0 94.0 1.000 1.000 1.000
v -1.0 -81.0 94.0 1.000 1.000 1.000
v -1.0 -154.0 90.0 1.000 1.000 1.000
v -1.0 50.0 -70.0 1.000 1.000 1.000
v 122.0 44.0 -29.0 1.000 1.000 1.000
v -122.0 43.0 -29.0 1.000 1.000 1.000
v -1.0 50.0 -70.0 1.000 1.000 1.000
v -90.0 16.0 54.0 1.000 1.000 1.000
v -122.0 43.0 -29.0 1.000 1.000 1.000
v 0.0 -24.0 93.0 1.000 1.000 1.000
v 29.042847990989685 106.5383071899414 -47.0 1.000 1.000 1.000
v -34.957152009010315 105.5383071899414 -47.0 1.000 1.000 1.000
v -97.95715200901031 100.5383071899414 -22.0 1.000 1.000 1.000
v 95.04284799098969 100.5383071899414 -22.0 1.000 1.000 1.000
v -85.95715200901031 91.5383071899414 29.0 1.000 1.000 1.000
v -97.95715200901031 100.5383071899414 -22.0 1.000 1.000 1.000
v -71.95715200901031 88.5383071899414 69.0 1.000 1.000 1.000
v -38.957152009010315 81.5383071899414 78.0 1.000 1.000 1.000
v -1.957152009010315 79.5383071899414 80.0 1.000 1.000 1.000
v 122.0 44.0 -29.0 1.000 1.000 1.000
v 80.0 17.0 54.0 1.000 1.000 1.000
v 0.0 -24.0 93.0 1.000 1.000 1.000
v 86.04284799098969 91.5383071899414 28.0 1.000 1.000 1.000
v 95.04284799098969 100.5383071899414 -22.0 1.000 1.000 1.000
v 65.04284799098969 88.5383071899414 69.0 1.000 1.000 1.000
v 32.042847990989685 84.5383071899414 75.0 1.000 1.000 1.000
v -1.957152009010315 79.5383071899414 80.0 1.000 1.000 1.000
vt 0.4746 0.5947
vt 0.4248 0.2266
vt 0.1475 0.1338
vt 0.6279 0.1787
vt 0.7559 0.3604
vt 0.7227 0.3662
vt 0.7197 0.1006
vt 0.1533 0.4033
vt 0.2422 0.2031
vt 0.1670 0.4062
vt 0.4814 0.3916
vt 0.4873 0.3916
vt 0.9346 0.9326
vt 0.7168 0.0879
vt 0.0693 0.9717
vt 0.1553 0.1484
vt 0.0459 1.0049
vt 0.9580 0.9678
vt 0.4404 0.2900
vt 0.9248 0.1611
vt 0.8389 0.1660
vt 1.0156 0.8760
vt 0.2871 0.3447
vt 0.0283 1.0127
vt 0.3281 0.0566
vt 0.9082 0.0400
vt 0.0166 0.4727
vt 0.9346 0.4824
vt 1.0264 0.9971
vt 1.0322 0.6211
vt 1.9492 0.9883
vt 1.9541 0.6172
vt 0.0977 0.1562
vt 0.1494 0.1562
vt 0.4033 0.8711
vt 0.7773 0.9036
vt 0.7666 0.9102
vt 0.7598 0.0417
vt 0.6816 0.0944
vt 0.4238 0.8796
vt 0.6660 0.7715
vt 0.3633 0.9251
vt 0.3955 0.7539
vt 0.7471 0.8919
vt 0.8066 0.6836
vt 0.7568 0.7708
vt 0.7969 0.7734
vt 0.8076 0.8633
vt 0.6367 0.7598
vt 0.3262 0.9251
vt 0.3740 0.7630
vt 0.3613 0.7526
vt 0.2422 0.2786
vt 0.3711 0.6400
vt 0.3389 0.6361
vt 0.1973 0.2852
vt 0.6094 0.1165
vt 0.6416 0.0944
vt 0.7119 0.2051
vt 0.7832 0.5417
vt 0.6592 0.1074
vt 0.7646 0.6719
vt 0.0000 1.0000
vt 0.1982 0.2689
vt 0.2490 0.1198
vt 0.2725 0.0189
vt 0.2666 0.0273
vt 0.2451 0.1048
vt 1.0234 0.8857
vt 1.7529 -0.0234
vt 1.9805 0.8984
vt 1.1201 -0.0059
vt 0.4385 0.1172
vt 0.9434 0.9180
vt 0.0957 0.8496
vt 0.9053 0.0068
vt 0.2158 0.2422
vt 0.9463 0.9287
vt 0.6709 0.0732
vt 0.0898 0.9805
vt 0.0840 0.5508
vt 0.7598 -0.0117
vt 0.1572 0.0342
vt 1.0117 0.5127
vt 0.9668 -0.0127
vt 0.0674 -0.3486
vt 0.0254 0.0146
vt 1.0078 -0.3721
vt 0.9014 0.9167
vt 0.8750 0.0332
vt 0.9580 0.2214
vt 0.4688 0.9167
vt 0.1445 0.0430
vt 0.4844 0.9193
vt 0.9004 0.9186
vt 0.2490 0.1009
vt 0.2881 0.8112
vt 0.3086 0.8112
vt 0.2686 0.8958
vt 0.3848 0.7956
vt 0.3174 0.9167
vt 0.6094 0.7122
vt 0.6172 0.7559
vt 0.6406 0.8216
vt 0.6270 0.7500
vt 0.6689 0.9141
vt 0.4277 0.7826
vt 0.4209 0.7884
vt 0.6377 0.6432
vt 0.6172 0.6497
vt 0.7109 0.2949
vt 0.6914 0.3079
vt 0.3447 0.1758
vt 0.3096 0.7083
vt 0.2666 0.5951
vt 0.2988 0.2917
vt 0.3281 0.1680
vt 0.3125 0.1790
vt 0.6426 0.0658
vt 0.6514 0.0573
vt 0.6826 0.1393
vt 0.6992 0.2897
vt 0.6641 0.1296
vt 0.7070 0.2793
vt 0.3311 0.6003
vt 0.2998 0.5182
vt 0.1758 0.4909
vt 0.3057 0.2858
vt 0.5342 0.4603
vt 0.7432 0.2871
vt 0.9092 0.4935
vt 0.8848 0.3633
vt 0.8438 0.4603
vt 0.7715 0.5137
vt 0.7354 0.5924
vt 0.4023 0.0775
vt 0.1680 0.1302
vt 0.1738 0.1230
vt 0.5342 0.5827
vt 0.8281 0.6595
vt 0.1963 0.4603
vt 0.4082 0.0788
vt 0.1758 0.3561
vt 0.2490 0.6621
vt 0.6553 0.0794
vt 0.6709 0.0781
vt 0.9004 0.1393
vt 0.9053 0.3704
vt 0.5342 0.1491
vt 0.9023 0.1315
vt 0.1816 0.2077
vt 0.8984 0.2246
vt 0.1816 0.3626
vt 0.9199 0.2077
vt 0.4873 0.0397
vt 0.5059 0.3991
vt 0.8486 0.4134
vt 0.5264 0.7676
vt 0.8555 0.8118
vt 0.0957 0.1927
vt 0.9219 0.1237
vt 0.7051 0.0814
vt 0.9189 0.4258
vt 0.1543 0.3848
vt 0.0928 0.3997
vt 0.1943 0.7799
vt 0.0859 0.0990
vt 0.2871 0.0697
vt 0.3184 0.8197
vt 0.2891 0.7975
vt 0.4434 0.8398
vt 0.3564 0.8262
vt 0.6289 0.8353
vt 0.5400 0.8464
vt 0.7695 0.8203
vt 0.7139 0.8268
vt 0.7930 0.7988
vt 0.4395 0.9557
vt 0.2412 0.9629
vt 0.6309 0.9648
vt 0.8164 0.9863
vt 0.0254 0.1133
vt 0.0273 0.1439
vt 0.0732 0.9857
vt 0.2773 0.8802
vt 0.9551 0.2435
vt 0.9326 0.0586
vt 0.9609 0.0495
vt 0.3721 0.8984
vt 0.9404 0.2520
vt 0.7256 0.6882
vt 0.5713 1.0007
vt 0.6016 0.9967
vt 0.5107 0.6973
vt 0.4521 0.9961
vt 0.5293 0.7051
vt 0.4395 0.9961
vt 0.3252 0.6771
vt 0.1699 0.6396
vt -0.2012 0.6162
vt -0.0039 0.9502
vt -0.2842 0.9453
vt 0.4277 0.5814
vt 0.3691 0.5723
vt 0.4854 0.5736
vt 0.5254 0.5742
vt 0.7061 0.5794
vt 0.6855 0.5820
vt 0.5293 0.5820
vt -0.1592 0.5068
vt 0.5889 0.3229
vt 0.3408 0.3053
vt 0.6084 0.2435
vt 0.8906 0.2520
vt 0.8682 0.3327
vt 0.8809 0.2865
vt 0.6094 0.3216
vt 0.6221 0.2656
vt -0.6006 0.1484
vt -0.0889 0.2305
vt -0.0918 0.1514
vt 0.3320 0.1885
vt 0.8906 0.2428
vt 0.6543 0.1569
vt 0.9121 0.1608
vt 0.3525 0.2298
vt 0.4355 0.1152
vt -0.1641 0.0273
vt 0.3936 0.0762
vt 0.1611 0.5107
vt 0.0322 0.9323
vt 0.0088 0.0169
vt 0.0078 -0.0169
vt 0.0322 0.9329
vt 0.3457 0.9023
vt 0.2480 0.8626
vt 0.9814 0.2891
vt 0.9990 0.1074
vt 0.9990 0.1139
vt 0.9746 0.3216
vt 0.5342 0.7090
vt 0.3008 0.6771
vt 0.4277 1.0078
vt 0.5811 1.0163
vt 0.5098 0.6986
vt 0.7393 0.6882
vt 0.6123 1.0117
vt 0.4375 1.0117
vt -0.4209 0.9570
vt 0.0283 0.9502
vt -0.0547 0.5234
vt 0.6768 0.5768
vt 0.7061 0.5768
vt 0.7148 0.5755
vt 0.5283 0.5697
vt 0.4844 0.5684
vt 0.3477 0.5671
vt 0.4365 0.5755
vt -0.1279 0.3799
vt 0.2188 0.3867
vt 0.6211 0.2422
vt 0.3086 0.2865
vt 0.3086 0.1992
vt 0.6064 0.3014
vt 0.9004 0.2630
vt 0.8926 0.3118
vt 0.9072 0.2266
vt 0.6172 0.2982
vt 0.5967 0.2207
vt -0.1992 -0.0967
vt -0.2188 0.0166
vt 0.7471 -0.0830
vt 0.6553 0.1289
vt 0.9277 0.1302
vt 0.9111 0.2174
vt 0.4131 0.0840
vt -0.0381 -0.2500
vt -0.0703 0.7383
vt 0.8203 0.2119
vt 0.7959 0.7812
vt 0.1045 0.3164
vt -0.1035 0.7480
vt 0.7549 0.3145
vt 0.9346 0.6992
vt -0.1094 0.2266
vt 0.2441 0.1260
vt 0.0781 0.3887
vt 0.4453 0.1924
vt 0.5166 0.4570
vt 1.0088 0.2773
vt 1.0107 0.6328
vt 1.0078 0.4326
vt 0.0566 0.3535
vt 0.2520 0.1035
vt 0.5352 0.1748
vt 1.0703 0.2744
vt 1.0586 0.4248
vt 0.5303 0.4365
vt 1.0020 0.2256
vt 0.5127 0.4326
vt 0.9951 0.3613
vt 1.0391 0.6191
vt 0.0977 0.0176
vt 0.6279 -0.0098
vt 0.2598 0.0498
vt 0.5635 0.0742
vt 0.4678 -0.0146
vt 0.3975 -0.0400
vt 0.5576 -0.0088
vt 0.7676 -0.0029
vt 1.0000 -0.0068
vt 0.5078 -0.0234
vt 0.4492 -0.0498
vt 0.6533 -0.0166
vt 0.8740 -0.0107
vt 1.1035 -0.0010
vn -0.577 -0.577 -0.577
vn -0.577 -0.577 -0.577
vn -0.577 -0.577 -0.577
vn -0.577 -0.577 -0.577
vn -0.577 -0.577 -0.577
vn -0.577 -0.577 -0.577
vn -0.577 -0.577 -0.577
vn -0.577 -0.577 -0.577
vn -0.577 -0.577 -0.577
vn -0.577 -0.577 -0.577
vn -0.577 -0.577 -0.577
vn -0.577 -0.577 -0.577
vn -0.577 -0.577 -0.577
vn -0.577 -0.577 -0.577
vn -0.577 -0.577 -0.577
vn -0.577 -0.577 -0.577
vn -0.577 -0.577 -0.577
vn -0.577 -0.577 -0.577
vn -0.577 -0.577 -0.577
vn -0.577 -0.577 -0.577
vn -0.577 -0.577 -0.577
vn -0.577 -0.577 -0.577
vn -0.577 -0.577 -0.577
vn -0.577 -0.577 -0.577
vn -0.577 -0.577 -0.577
vn -0.577 -0.577 -0.577
vn -0.577 -0.577 -0.577
vn -0.577 -0.577 -0.577
vn -0.577 -0.577 -0.577
vn -0.577 -0.577 -0.577
vn -0.577 -0.577 -0.577
vn -0.577 -0.577 -0.577
vn -0.577 -0.577 -0.577
vn -0.577 -0.577 -0.577
vn -0.577 -0.577 -0.577
vn -0.577 -0.577 -0.577
vn -0.577 -0.577 -0.577
vn -0.577 -0.577 -0.577
vn -0.577 -0.577 -0.577
vn -0.577 -0.577 -0.577
vn -0.577 -0.577 -0.577
vn -0.577 -0.577 -0.577
vn -0.577 -0.577 -0.577
vn -0.577 -0.577 -0.577
vn -0.577 -0.577 -0.577
vn -0.577 -0.577 -0.577
vn -0.577 -0.577 -0.577
vn -0.577 -0.577 -0.577
vn -0.577 -0.577 -0.577
vn -0.577 -0.577 -0.577
vn -0.577 -0.577 -0.577
vn -0.577 -0.577 -0.577
vn -0.577 -0.577 -0.577
vn -0.577 -0.577 -0.577
vn -0.577 -0.577 -0.577
vn -0.577 -0.577 -0.577
vn -0.577 -0.577 -0.577
vn -0.577 -0.577 -0.577
vn -0.577 -0.577 -0.577
vn -0.577 -0.577 -0.577
vn -0.577 -0.577 -0.577
vn -0.577 -0.577 -0.577
vn -0.577 -0.577 -0.577
vn -0.577 -0.577 -0.577
vn -0.577 -0.577 -0.577
vn -0.577 -0.577 -0.577
vn -0.577 -0.577 -0.577
vn -0.577 -0.577 -0.577
vn -0.577 -0.577 -0.577
vn -0.577 -0.577 -0.577
vn -0.577 -0.577 -0.577
vn -0.577 -0.577 -0.577
vn -0.577 -0.577 -0.577
vn -0.577 -0.577 -0.577
vn -0.577 -0.577 -0.577
vn -0.577 -0.577 -0.577
vn -0.577 -0.577 -0.577
vn -0.577 -0.577 -0.577
vn -0.577 -0.577 -0.577
vn -0.577 -0.577 -0.577
vn -0.577 -0.577 -0.577
vn -0.577 -0.577 -0.577
vn -0.577 -0.577 -0.577
vn -0.577 -0.577 -0.577
vn -0.577 -0.577 -0.577
vn -0.577 -0.577 -0.577
vn -0.577 -0.577 -0.577
vn -0.577 -0.577 -0.577
vn -0.577 -0.577 -0.577
vn -0.577 -0.577 -0.577
vn -0.577 -0.577 -0.577
vn -0.577 -0.577 -0.577
vn -0.577 -0.577 -0.577
vn -0.577 -0.577 -0.577
vn -0.577 -0.577 -0.577
vn -0.577 -0.577 -0.577
vn -0.577 -0.577 -0.577
vn -0.577 -0.577 -0.577
vn -0.577 -0.577 -0.577
vn -0.577 -0.577 -0.577
vn -0.577 -0.577 -0.577
vn -0.577 -0.577 -0.577
vn -0.577 -0.577 -0.577
vn -0.577 -0.577 -0.577
vn -0.577 -0.577 -0.577
vn -0.577 -0.577 -0.577
vn -0.577 -0.577 -0.577
vn -0.577 -0.577 -0.577
vn -0.577 -0.577 -0.577
vn -0.577 -0.577 -0.577
vn -0.577 -0.577 -0.577
vn -0.577 -0.577 -0.577
vn -0.577 -0.577 -0.577
vn -0.577 -0.577 -0.577
vn -0.577 -0.577 -0.577
vn -0.577 -0.577 -0.577
vn -0.577 -0.577 -0.577
vn -0.577 -0.577 -0.577
vn -0.577 -0.577 -0.577
vn -0.577 -0.577 -0.577
vn -0.577 -0.577 -0.577
vn -0.577 -0.577 -0.577
vn -0.577 -0.577 -0.577
vn -0.577 -0.577 -0.577
vn -0.577 -0.577 -0.577
vn -0.577 -0.577 -0.577
vn -0.577 -0.577 -0.577
vn -0.577 -0.577 -0.577
vn -0.577 -0.577 -0.577
vn -0.577 -0.577 -0.577
vn -0.577 -0.577 -0.577
vn -0.577 -0.577 -0.577
vn -0.577 -0.577 -0.577
vn -0.577 -0.577 -0.577
vn -0.577 -0.577 -0.577
vn -0.577 -0.577 -0.577
vn -0.577 -0.577 -0.577
vn -0.577 -0.577 -0.577
vn -0.577 -0.577 -0.577
vn -0.577 -0.577 -0.577
vn -0.577 -0.577 -0.577
vn -0.577 -0.577 -0.577
vn -0.577 -0.577 -0.577
vn -0.577 -0.577 -0.577
vn -0.577 -0.577 -0.577
vn -0.577 -0.577 -0.577
vn -0.577 -0.577 -0.577
vn -0.577 -0.577 -0.577
vn -0.577 -0.577 -0.577
vn -0.577 -0.577 -0.577
vn -0.577 -0.577 -0.577
vn -0.577 -0.577 -0.577
vn -0.577 -0.577 -0.577
vn -0.577 -0.577 -0.577
vn -0.577 -0.577 -0.577
vn -0.577 -0.577 -0.577
vn -0.577 -0.577 -0.577
vn -0.577 -0.577 -0.577
vn -0.577 -0.577 -0.577
vn -0.577 -0.577 -0.577
vn -0.577 -0.577 -0.577
vn -0.577 -0.577 -0.577
vn -0.577 -0.577 -0.577
vn -0.577 -0.577 -0.577
vn -0.577 -0.577 -0.577
vn -0.577 -0.577 -0.577
vn -0.577 -0.577 -0.577
vn -0.577 -0.577 -0.577
vn -0.577 -0.577 -0.577
vn -0.577 -0.577 -0.577
vn -0.577 -0.577 -0.577
vn -0.577 -0.577 -0.577
vn -0.577 -0.577 -0.577
vn -0.577 -0.577 -0.577
vn -0.577 -0.577 -0.577
vn -0.577 -0.577 -0.577
vn -0.577 -0.577 -0.577
vn -0.577 -0.577 -0.577
vn -0.577 -0.577 -0.577
vn -0.577 -0.577 -0.577
vn -0.577 -0.577 -0.577
vn -0.577 -0.577 -0.577
vn -0.577 -0.577 -0.577
vn -0.577 -0.577 -0.577
vn -0.577 -0.577 -0.577
vn -0.577 -0.577 -0.577
vn -0.577 -0.577 -0.577
vn -0.577 -0.577 -0.577
vn -0.577 -0.577 -0.577
vn -0.577 -0.577 -0.577
vn -0.577 -0.577 -0.577
vn -0.577 -0.577 -0.577
vn -0.577 -0.577 -0.577
vn -0.577 -0.577 -0.577
vn -0.577 -0.577 -0.577
vn -0.577 -0.577 -0.577
vn -0.577 -0.577 -0.577
vn -0.577 -0.577 -0.577
vn -0.577 -0.577 -0.577
vn -0.577 -0.577 -0.577
vn -0.577 -0.577 -0.577
vn -0.577 -0.577 -0.577
vn -0.577 -0.577 -0.577
vn -0.577 -0.577 -0.577
vn -0.577 -0.577 -0.577
vn -0.577 -0.577 -0.577
vn -0.577 -0.577 -0.577
vn -0.577 -0.577 -0.577
vn -0.577 -0.577 -0.577
vn -0.577 -0.577 -0.577
vn -0.577 -0.577 -0.577
vn -0.577 -0.577 -0.577
vn -0.577 -0.577 -0.577
vn -0.577 -0.577 -0.577
vn -0.577 -0.577 -0.577
vn -0.577 -0.577 -0.577
vn -0.577 -0.577 -0.577
vn -0.577 -0.577 -0.577
vn -0.577 -0.577 -0.577
vn -0.577 -0.577 -0.577
vn -0.577 -0.577 -0.577
vn -0.577 -0.577 -0.577
vn -0.577 -0.577 -0.577
vn -0.577 -0.577 -0.577
vn -0.577 -0.577 -0.577
vn -0.577 -0.577 -0.577
vn -0.577 -0.577 -0.577
vn -0.577 -0.577 -0.577
vn -0.577 -0.577 -0.577
vn -0.577 -0.577 -0.577
vn -0.577 -0.577 -0.577
vn -0.577 -0.577 -0.577
vn -0.577 -0.577 -0.577
vn -0.577 -0.577 -0.577
vn -0.577 -0.577 -0.577
vn -0.577 -0.577 -0.577
vn -0.577 -0.577 -0.577
vn -0.577 -0.577 -0.577
vn -0.577 -0.577 -0.577
vn -0.577 -0.577 -0.577
vn -0.577 -0.577 -0.577
vn -0.577 -0.577 -0.577
vn -0.577 -0.577 -0.577
vn -0.577 -0.577 -0.577
vn -0.577 -0.577 -0.577
vn -0.577 -0.577 -0.577
vn -0.577 -0.577 -0.577
vn -0.577 -0.577 -0.577
vn -0.577 -0.577 -0.577
vn -0.577 -0.577 -0.577
vn -0.577 -0.577 -0.577
vn -0.577 -0.577 -0.577
vn -0.577 -0.577 -0.577
vn -0.577 -0.577 -0.577
vn -0.577 -0.577 -0.577
vn -0.577 -0.577 -0.577
vn -0.577 -0.577 -0.577
vn -0.577 -0.577 -0.577
vn -0.577 -0.577 -0.577
vn -0.577 -0.577 -0.577
vn -0.577 -0.577 -0.577
vn -0.577 -0.577 -0.577
vn -0.577 -0.577 -0.577
vn -0.577 -0.577 -0.577
vn -0.577 -0.577 -0.577
vn -0.577 -0.577 -0.577
vn -0.577 -0.577 -0.577
vn -0.577 -0.577 -0.577
vn -0.577 -0.577 -0.577
vn -0.577 -0.577 -0.577
vn -0.577 -0.577 -0.577
vn -0.577 -0.577 -0.577
vn -0.577 -0.577 -0.577
vn -0.577 -0.577 -0.577
vn -0.577 -0.577 -0.577
vn -0.577 -0.577 -0.577
vn -0.577 -0.577 -0.577
vn -0.577 -0.577 -0.577
vn -0.577 -0.577 -0.577
vn -0.577 -0.577 -0.577
vn -0.577 -0.577 -0.577
vn -0.577 -0.577 -0.577
vn -0.577 -0.577 -0.577
vn -0.577 -0.577 -0.577
vn -0.577 -0.577 -0.577
vn -0.577 -0.577 -0.577
vn -0.577 -0.577 -0.577
vn -0.577 -0.577 -0.577
vn -0.577 -0.577 -0.577
vn -0.577 -0.577 -0.577
vn -0.577 -0.577 -0.577
vn -0.577 -0.577 -0.577
vn -0.577 -0.577 -0.577
vn -0.577 -0.577 -0.577
vn -0.577 -0.577 -0.577
vn -0.577 -0.577 -0.577
vn -0.577 -0.577 -0.577
vn -0.577 -0.577 -0.577
vn -0.577 -0.577 -0.577
vn -0.577 -0.577 -0.577
vn -0.577 -0.577 -0.577
vn -0.577 -0.577 -0.577
vn -0.577 -0.577 -0.577
vn 0.577 0.577 0.577
vn -0.577 -0.577 -0.577
vn -0.577 -0.577 -0.577
vn -0.577 -0.577 -0.577
vn -0.577 -0.577 -0.577
vn -0.577 -0.577 -0.577
vn -0.577 -0.577 -0.577
vn -0.577 -0.577 -0.577
vn -0.577 -0.577 -0.577
vn -0.577 -0.577 -0.577
vn -0.577 -0.577 -0.577
vn -0.577 -0.577 -0.577
vn -0.577 -0.577 -0.577
vn -0.577 -0.577 -0.577
vn -0.577 -0.577 -0.577
vn -0.577 -0.577 -0.577
vn 0.577 0.577 0.577
vn 0.577 0.577 0.577
vn -0.577 -0.577 -0.577
vn -0.577 -0.577 -0.577
vn -0.577 -0.577 -0.577
vn -0.577 -0.577 -0.577
vn 0.577 0.577 0.577
vn -0.577 -0.577 -0.577
vn -0.577 -0.577 -0.577
vn -0.577 -0.577 -0.577
vn -0.577 -0.577 -0.577
vn -0.577 -0.577 -0.577
vn -0.577 -0.577 -0.577
vn 0.577 0.577 0.577
vn 0.577 0.577 0.577
vn 0.577 0.577 0.577
vn -0.577 -0.577 -0.577
vn -0.577 -0.577 -0.577
vn -0.577 -0.577 -0.577
vn -0.577 -0.577 -0.577
vn -0.577 -0.577 -0.577
vn -0.577 -0.577 -0.577
vn 0.577 0.577 0.577
vn -0.577 -0.577 -0.577
vn 0.577 0.577 0.577
vn -0.577 -0.577 -0.577
vn -0.577 -0.577 -0.577
vn -0.577 -0.577 -0.577
vn 0.577 0.577 0.577
vn 0.577 0.577 0.577
vn -0.577 -0.577 -0.577
vn -0.577 -0.577 -0.577
vn -0.577 -0.577 -0.577
vn -0.577 -0.577 -0.577
vn -0.577 -0.577 -0.577
vn -0.577 -0.577 -0.577
vn -0.577 -0.577 -0.577
vn -0.577 -0.577 -0.577
vn 0.577 0.577 0.577
vn -0.577 -0.577 -0.577
vn -0.577 -0.577 -0.577
vn -0.577 -0.577 -0.577
vn 0.577 0.577 0.577
vn -0.577 -0.577 -0.577
vn -0.577 -0.577 -0.577
vn -0.577 -0.577 -0.577
vn 0.577 0.577 0.577
vn -0.577 -0.577 -0.577
vn -0.577 -0.577 -0.577
vn -0.577 -0.577 -0.577
vn -0.577 -0.577 -0.577
vn -0.577 -0.577 -0.577
vn -0.577 -0.577 -0.577
vn -0.577 -0.577 -0.577
vn -0.577 -0.577 -0.577
vn -0.577 -0.577 -0.577
vn -0.577 -0.577 -0.577
vn -0.577 -0.577 -0.577
vn -0.577 -0.577 -0.577
vn -0.577 -0.577 -0.577
vn -0.577 -0.577 -0.577
vn -0.577 -0.577 -0.577
vn 0.577 0.577 0.577
vn -0.577 -0.577 -0.577
vn -0.577 -0.577 -0.577
vn -0.577 -0.577 -0.577
vn -0.577 -0.577 -0.577
vn -0.577 -0.577 -0.577
vn -0.577 -0.577 -0.577
vn -0.577 -0.577 -0.577
vn 0.577 0.577 0.577
vn 0.577 0.577 0.577
vn 0.577 0.577 0.577
vn -0.577 -0.577 -0.577
vn -0.577 -0.577 -0.577
vn -0.577 -0.577 -0.577
vn -0.577 -0.577 -0.577
vn -0.577 -0.577 -0.577
vn -0.577 -0.577 -0.577
vn -0.577 -0.577 -0.577
vn -0.577 -0.577 -0.577
vn 0.577 0.577 0.577
vn -0.577 -0.577 -0.577
vn -0.577 -0.577 -0.577
vn -0.577 -0.577 -0.577
vn -0.577 -0.577 -0.577
vn -0.577 -0.577 -0.577
vn -0.577 -0.577 -0.577
vn -0.577 -0.577 -0.577
vn 0.577 0.577 0.577
vn 0.577 0.577 0.577
vn 0.577 0.577 0.577
vn -0.577 -0.577 -0.577
vn -0.577 -0.577 -0.577
vn -0.577 -0.577 -0.577
vn -0.577 -0.577 -0.577
vn -0.577 -0.577 -0.577
vn -0.577 -0.577 -0.577
vn 0.577 0.577 0.577
vn 0.577 0.577 0.577
vn -0.577 -0.577 -0.577
vn -0.577 -0.577 -0.577
vn 0.577 0.577 0.577
vn -0.577 -0.577 -0.577
vn 0.577 0.577 0.577
vn -0.577 -0.577 -0.577
vn -0.577 -0.577 -0.577
vn -0.577 -0.577 -0.577
vn -0.577 -0.577 -0.577
vn -0.577 -0.577 -0.577
vn -0.577 -0.577 -0.577
vn -0.577 -0.577 -0.577
vn 0.577 0.577 0.577
vn -0.577 -0.577 -0.577
vn -0.577 -0.577 -0.577
vn -0.577 -0.577 -0.577
vn -0.577 -0.577 -0.577
vn -0.577 -0.577 -0.577
vn 0.577 0.577 0.577
vn -0.577 -0.577 -0.577
vn 0.577 0.577 0.577
vn 0.577 0.577 0.577
vn -0.577 -0.577 -0.577
vn -0.577 -0.577 -0.577
vn -0.577 -0.577 -0.577
vn -0.577 -0.577 -0.577
vn 0.577 0.577 0.577
vn -0.577 -0.577 -0.577
vn 0.577 0.577 0.577
vn -0.577 -0.577 -0.577
vn -0.577 -0.577 -0.577
vn -0.577 -0.577 -0.577
vn -0.577 -0.577 -0.577
vn -0.577 -0.577 -0.577
vn -0.577 -0.577 -0.577
vn -0.577 -0.577 -0.577
vn -0.577 -0.577 -0.577
vn 0.577 0.577 0.577
vn 0.577 0.577 0.577
vn -0.577 -0.577 -0.577
vn -0.577 -0.577 -0.577
vn -0.577 -0.577 -0.577
vn -0.577 -0.577 -0.577
vn 0.577 0.577 0.577
vn -0.577 -0.577 -0.577
vn -0.577 -0.577 -0.577
vn -0.577 -0.577 -0.577
vn 0.577 0.577 0.577
vn 0.577 0.577 0.577
vn -0.577 -0.577 -0.577
vn -0.577 -0.577 -0.577
vn -0.577 -0.577 -0.577
vn -0.577 -0.577 -0.577
vn -0.577 -0.577 -0.577
vn -0.577 -0.577 -0.577
vn -0.577 -0.577 -0.577
vn -0.577 -0.577 -0.577
vn -0.577 -0.577 -0.577
vn -0.577 -0.577 -0.577
vn -0.577 -0.577 -0.577
vn -0.577 -0.577 -0.577
vn -0.577 -0.577 -0.577
vn -0.577 -0.577 -0.577
vn -0.577 -0.577 -0.577
vn -0.577 -0.577 -0.577
vn -0.577 -0.577 -0.577
vn -0.577 -0.577 -0.577
vn -0.577 -0.577 -0.577
vn -0.577 -0.577 -0.577
vn -0.577 -0.577 -0.577
vn -0.577 -0.577 -0.577
vn -0.577 -0.577 -0.577
vn -0.577 -0.577 -0.577
usemtl tex_1751_lit
f 1/1/1 8/2/8 9/3/9
f 10/4/10 2/5/2 3/6/3
f 2/5/2 11/7/11 1/1/1
f 11/7/11 8/2/8 1/1/1
f 4/8/4 1/1/1 9/3/9
f 4/8/4 9/3/9 12/9/12
f 4/8/4 12/9/12 5/10/5
f 12/9/12 6/11/6 5/10/5
f 12/9/12 3/6/3 7/12/7
f 12/9/12 10/4/10 6/11/6
f 10/4/10 3/6/3 6/11/6
f 2/5/2 10/4/10 11/7/11
usemtl tex_1897_lit
f 13/13/13 14/14/14 15/15/15
f 15/15/15 14/14/14 16/16/16
usemtl tex_1899_lit
f 17/17/17 18/18/18 19/19/19
f 19/19/19 18/18/18 20/20/20
usemtl tex_1900_lit
f 21/21/21 22/22/22 23/23/23
f 23/23/23 22/22/22 24/24/24
usemtl tex_1898_lit
f 25/25/25 26/26/26 27/27/27
f 27/27/27 26/26/26 28/28/28
f 29/29/29 30/30/30 31/31/31
f 31/31/31 30/30/30 32/32/32
usemtl tex_1749_lit_w11
f 33/33/33 34/34/34 37/35/37
f 33/33/33 37/35/37 38/36/38
f 38/36/38 39/37/39 35/38/35
f 36/39/36 39/37/39 40/40/40
f 35/38/35 33/33/33 38/36/38
f 34/34/34 40/40/40 37/35/37
f 39/37/39 36/39/36 35/38/35
f 34/34/34 36/39/36 40/40/40
usemtl tex_1740_lit_w11
f 41/41/41 49/42/49 42/43/42
f 50/44/50 49/42/49 41/41/41
f 43/45/43 50/44/50 44/46/44
f 45/47/45 51/48/51 50/44/50
f 46/49/46 51/48/51 45/47/45
f 52/50/52 51/48/51 46/49/46
f 47/51/47 52/50/52 48/52/48
f 49/42/49 52/50/52 47/51/47
f 48/52/48 52/50/52 46/49/46
f 45/47/45 50/44/50 43/45/43
f 44/46/44 50/44/50 41/41/41
f 42/43/42 49/42/49 47/51/47
f 53/53/53 54/54/54 55/55/55
f 56/56/56 53/53/53 55/55/55
f 57/57/57 58/58/58 59/59/59
f 57/57/57 58/58/58 59/59/59
f 57/57/57 59/59/59 60/60/60
f 56/56/56 60/60/60 59/59/59
f 58/58/58 61/61/61 59/59/59
f 56/56/56 55/55/55 60/60/60
f 53/53/53 62/62/62 54/54/54
f 62/62/62 53/53/53 57/57/57
f 62/62/62 57/57/57 60/60/60
f 63/63/63 71/63/71 64/63/64
f 65/64/65 72/53/72 73/56/73
f 74/59/74 65/64/65 73/56/73
f 66/65/66 65/64/65 74/59/74
f 75/61/75 66/65/66 74/59/74
f 67/66/67 66/65/66 75/61/75
f 76/58/76 67/66/67 75/61/75
f 68/67/68 67/66/67 76/58/76
f 77/57/77 68/67/68 76/58/76
f 69/68/69 68/67/68 77/57/77
f 72/53/72 69/68/69 77/57/77
f 70/63/70 71/63/71 63/63/63
f 82/43/82 83/51/83 78/54/78
f 84/41/84 82/43/82 78/54/78
f 85/46/85 84/41/84 79/62/79
f 86/45/86 85/46/85 79/62/79
f 87/47/87 86/45/86 80/60/80
f 88/49/88 87/47/87 80/60/80
f 89/52/89 88/49/88 81/55/81
f 83/51/83 89/52/89 81/55/81
f 81/55/81 88/49/88 80/60/80
f 79/62/79 84/41/84 78/54/78
f 78/54/78 83/51/83 81/55/81
f 80/60/80 86/45/86 79/62/79
usemtl tex_1897_lit
f 90/69/90 91/70/91 92/71/92
f 93/72/93 91/70/91 90/69/90
usemtl tex_1899_lit
f 94/73/94 95/74/95 96/75/96
f 97/76/97 95/74/95 94/73/94
usemtl tex_1900_lit
f 98/77/98 99/78/99 100/79/100
f 101/80/101 99/78/99 98/77/98
usemtl tex_1898_lit
f 102/81/102 103/82/103 104/83/104
f 105/84/105 103/82/103 102/81/102
f 106/85/106 107/86/107 108/87/108
f 109/88/109 107/86/107 106/85/106
usemtl tex_1749_lit_w11
f 114/89/114 110/90/110 111/91/111
usemtl tex_1749_lit_w11_ovl
f 115/92/115 114/89/114 111/91/111
usemtl tex_1749_lit_w11
f 112/93/112 116/94/116 115/92/115
f 117/95/117 116/94/116 113/96/113
f 115/92/115 111/91/111 112/93/112
f 114/89/114 117/95/117 110/90/110
f 112/93/112 113/96/113 116/94/116
f 117/95/117 113/96/113 110/90/110
usemtl tex_1740_lit_w11
f 118/97/118 119/98/119 126/99/126
f 119/98/119 120/100/120 127/101/127
f 121/102/121 122/103/122 128/104/128
f 122/103/122 123/105/123 129/106/129
f 124/107/124 118/97/118 126/99/126
f 123/105/123 124/107/124 129/106/129
f 120/100/120 125/108/125 127/101/127
f 125/108/125 121/102/121 128/104/128
f 129/106/129 124/107/124 126/99/126
f 128/104/128 122/103/122 129/106/129
f 127/101/127 125/108/125 128/104/128
f 126/99/126 119/98/119 127/101/127
f 130/109/130 131/110/131 132/111/132
f 130/109/130 132/111/132 133/112/133
f 134/113/134 132/111/132 135/114/135
f 136/115/136 137/116/137 138/117/138
f 136/115/136 138/117/138 134/113/134
f 131/110/131 135/114/135 132/111/132
f 137/116/137 139/118/139 138/117/138
f 136/115/136 130/109/130 133/112/133
f 137/116/137 138/117/138 134/113/134
f 137/116/137 136/115/136 133/112/133
f 135/114/135 136/115/136 134/113/134
f 140/119/140 148/117/148 141/120/141
f 141/120/141 148/117/148 149/118/149
f 141/120/141 149/118/149 142/121/142
f 142/121/142 149/118/149 150/116/150
f 142/121/142 150/116/150 143/122/143
f 143/122/143 150/116/150 151/112/151
f 143/122/143 151/112/151 152/111/152
f 145/123/145 144/124/144 153/113/153
f 144/124/144 152/111/152 153/113/153
f 145/123/145 153/113/153 140/119/140
f 140/119/140 153/113/153 148/117/148
f 146/63/146 154/63/154 147/63/147
f 159/108/159 155/110/155 160/102/160
f 156/114/156 155/110/155 159/108/159
f 161/98/161 156/114/156 162/100/162
f 157/115/157 156/114/156 161/98/161
f 163/107/163 157/115/157 164/97/164
f 158/109/158 157/115/157 163/107/163
f 165/103/165 158/109/158 166/105/166
f 155/110/155 158/109/158 165/103/165
f 166/105/166 158/109/158 163/107/163
f 160/102/160 155/110/155 165/103/165
f 162/100/162 156/114/156 159/108/159
f 164/97/164 157/115/157 161/98/161
usemtl tex_1742_lit_w11
f 167/125/167 168/126/168 169/127/169
f 170/128/170 171/129/171 172/130/172
f 173/131/173 174/132/174 175/133/175
f 173/131/173 181/134/181 182/135/182
f 183/136/183 184/137/184 185/138/185
f 186/125/186 187/139/187 188/126/188
f 189/128/189 183/136/183 185/138/185
f 189/128/189 188/126/188 190/129/190
f 191/131/191 192/140/192 193/132/193
f 188/126/188 194/141/194 195/127/195
f 183/136/183 196/142/196 184/137/184
f 194/141/194 197/143/197 195/127/195
f 186/125/186 195/127/195 198/144/198
f 199/131/199 200/133/200 201/134/201
f 202/129/202 201/134/201 203/130/203
f 204/145/204 205/146/205 206/147/206
f 207/140/207 208/148/208 209/132/209
f 210/128/210 211/149/211 212/136/212
f 213/127/213 214/143/214 215/144/215
f 216/134/216 217/139/217 218/135/218
f 219/150/219 220/147/220 221/146/221
f 222/151/222 214/143/214 223/128/223
f 217/139/217 216/134/216 224/129/224
f 228/128/228 229/141/229 230/126/230
f 228/128/228 231/143/231 229/141/229
f 232/130/232 233/146/233 234/149/234
f 230/126/230 235/139/235 236/129/236
f 237/133/237 232/130/232 238/134/238
f 237/133/237 239/132/239 232/130/232
f 240/151/240 228/128/228 241/138/241
f 242/131/242 243/135/243 244/140/244
f 248/152/248 249/130/249 250/132/250
f 248/152/248 251/150/251 249/130/249
f 251/150/251 252/146/252 249/130/249
f 253/143/253 254/153/254 255/144/255
f 256/128/256 249/130/249 257/149/257
usemtl tex_1741_lit_w11
f 258/154/258 259/155/259 260/156/260
f 261/157/261 262/158/262 263/159/263
f 260/156/260 259/155/259 264/160/264
f 258/154/258 265/161/265 259/155/259
f 265/161/265 266/162/266 259/155/259
f 267/163/267 261/157/261 263/159/263
f 268/164/268 269/165/269 270/166/270
f 268/164/268 264/160/264 269/165/269
f 267/163/267 258/154/258 261/157/261
f 260/156/260 268/164/268 262/158/262
f 260/156/260 264/160/264 268/164/268
f 261/157/261 258/154/258 260/156/260
f 262/158/262 268/164/268 270/166/270
f 262/158/262 261/157/261 260/156/260
f 259/155/259 271/167/271 264/160/264
f 259/155/259 272/168/272 271/167/271
usemtl tex_1742_lit_w11
f 273/169/273 282/144/282 274/170/274
f 283/125/283 282/144/282 273/169/273
f 275/171/275 283/125/283 276/172/276
f 284/139/284 283/125/283 275/171/275
f 277/173/277 284/139/284 278/174/278
f 285/135/285 284/139/284 277/173/277
f 279/175/279 285/135/285 280/176/280
f 286/140/286 285/135/285 279/175/279
f 281/177/281 286/140/286 279/175/279
f 276/172/276 283/125/283 273/169/273
f 280/176/280 285/135/285 277/173/277
f 278/174/278 284/139/284 275/171/275
usemtl tex_1741_lit_w11
f 287/178/287 291/166/291 288/179/288
f 292/158/292 291/166/291 287/178/287
f 289/180/289 292/158/292 287/178/287
f 293/159/293 292/158/292 289/180/289
f 290/181/290 293/159/293 289/180/289
usemtl tex_2035_lit_w11
f 294/182/294 295/183/295 296/184/296
f 296/184/296 295/183/295 297/184/297
f 296/184/296 298/185/298 299/186/299
f 296/184/296 299/186/299 300/187/300
f 295/183/295 300/187/300 301/188/301
f 296/184/296 297/184/297 302/189/302
f 303/190/303 301/188/301 300/187/300
f 303/190/303 300/187/300 299/186/299
f 295/183/295 294/182/294 300/187/300
f 296/184/296 300/187/300 294/182/294
f 297/184/297 295/183/295 301/188/301
f 303/190/303 297/184/297 301/188/301
f 303/190/303 302/189/302 297/184/297
f 298/185/298 296/184/296 302/189/302
f 302/189/302 303/190/303 299/186/299
f 302/189/302 299/186/299 298/185/298
usemtl tex_1718_lit_w11
f 304/191/304 310/192/310 311/193/311
f 305/194/305 312/195/312 310/192/310
f 306/196/306 311/193/311 313/197/313
f 306/196/306 304/191/304 311/193/311
f 304/191/304 305/194/305 310/192/310
f 307/198/307 306/196/306 313/197/313
usemtl tex_1715_lit
f 308/199/308 309/200/309 314/201/314
f 309/200/309 315/202/315 314/201/314
usemtl tex_1718_lit_w11
f 316/203/316 324/198/324 317/204/317
f 318/205/318 325/194/325 319/206/319
f 319/206/319 325/194/325 326/191/326
f 320/207/320 326/191/326 321/208/321
f 321/208/321 326/191/326 327/196/327
f 321/208/321 327/196/327 322/209/322
f 322/209/322 327/196/327 324/198/324
f 319/206/319 326/191/326 320/207/320
f 317/204/317 325/194/325 318/205/318
f 322/209/322 324/198/324 316/203/316
usemtl tex_1715_lit
f 323/210/323 328/200/328 329/199/329
usemtl tex_1718_lit_w11
f 330/211/330 331/212/331 332/213/332
f 333/214/333 330/211/330 332/213/332
f 334/215/334 330/211/330 333/214/333
f 335/216/335 334/215/334 333/214/333
f 336/217/336 334/215/334 335/216/335
f 337/218/337 336/217/336 335/216/335
f 331/212/331 336/217/336 337/218/337
usemtl tex_1715_lit
f 338/219/338 339/220/339 340/221/340
f 340/221/340 339/220/339 341/222/341
usemtl tex_1718_lit_w11
f 348/216/348 342/223/342 343/224/343
f 349/214/349 350/213/350 344/225/344
f 348/216/348 349/214/349 344/225/344
f 351/226/351 352/218/352 343/224/343
f 344/225/344 350/213/350 345/227/345
f 348/216/348 344/225/344 342/223/342
f 352/218/352 348/216/348 343/224/343
usemtl tex_1715_lit
f 353/219/353 354/221/354 346/228/346
f 346/228/346 354/221/354 347/229/347
usemtl tex_1718_lit_w11
f 355/212/355 360/203/360 361/204/361
f 356/211/356 362/208/362 363/209/363
f 355/212/355 363/209/363 360/203/360
f 357/217/357 364/206/364 358/215/358
f 356/211/356 363/209/363 355/212/355
f 358/215/358 362/208/362 356/211/356
f 357/217/357 365/205/365 364/206/364
f 358/215/358 366/207/366 362/208/362
f 358/215/358 364/206/364 366/207/366
f 357/217/357 355/212/355 365/205/365
usemtl tex_1715_lit
f 359/220/359 367/210/367 368/230/368
usemtl tex_2035_lit_w11
f 369/231/369 370/232/370 371/233/371
f 372/234/372 370/232/370 369/231/369
f 373/235/373 374/236/374 375/237/375
f 376/238/376 377/239/377 370/232/370
f 373/235/373 372/234/372 369/231/369
f 373/235/373 369/231/369 374/236/374
f 377/239/377 371/233/371 370/232/370
f 371/233/371 377/239/377 369/231/369
f 376/238/376 370/232/370 372/234/372
f 376/238/376 372/234/372 378/240/378
f 372/234/372 373/235/373 378/240/378
f 377/239/377 375/237/375 374/236/374
f 377/239/377 374/236/374 369/231/369
f 378/240/378 373/235/373 375/237/375
usemtl tex_1718_lit_w11
f 379/241/379 380/242/380 384/243/384
f 385/244/385 381/245/381 382/246/382
f 386/247/386 385/244/385 382/246/382
f 386/247/386 382/246/382 379/241/379
f 385/244/385 387/248/387 381/245/381
f 387/248/387 380/242/380 381/245/381
f 386/247/386 379/241/379 384/243/384
usemtl tex_1715_lit
f 388/249/388 389/250/389 383/251/383
usemtl tex_1718_lit_w11
f 390/252/390 400/241/400 391/253/391
f 391/253/391 400/241/400 401/246/401
f 392/254/392 401/246/401 393/255/393
f 393/255/393 401/246/401 402/245/402
f 394/256/394 402/245/402 395/257/395
f 395/257/395 402/245/402 403/242/403
f 396/258/396 403/242/403 400/241/400
f 393/255/393 402/245/402 394/256/394
f 396/258/396 400/241/400 390/252/390
f 391/253/391 401/246/401 392/254/392
usemtl tex_1715_lit
f 398/259/398 404/251/404 399/260/399
usemtl tex_1718_lit_w11
f 405/261/405 406/262/406 407/263/407
f 408/264/408 406/262/406 405/261/405
f 409/265/409 408/264/408 405/261/405
f 410/266/410 408/264/408 409/265/409
f 411/267/411 410/266/410 409/265/409
f 412/268/412 410/266/410 411/267/411
f 413/269/413 412/268/412 411/267/411
f 406/262/406 412/268/412 413/269/413
usemtl tex_1715_lit
f 414/270/414 415/271/415 416/272/416
usemtl tex_1718_lit_w11_ovl
f 422/265/422 423/261/423 417/273/417
usemtl tex_1718_lit_w11
f 418/274/418 424/267/424 422/265/422
f 418/274/418 425/269/425 424/267/424
f 417/273/417 423/261/423 426/263/426
f 419/275/419 418/274/418 422/265/422
f 417/273/417 426/263/426 420/276/420
f 420/276/420 425/269/425 418/274/418
f 419/275/419 422/265/422 417/273/417
usemtl tex_1715_lit
f 421/277/421 427/270/427 428/272/428
usemtl tex_1718_lit_w11
f 429/264/429 434/256/434 435/257/435
f 431/268/431 436/258/436 438/252/438
f 430/262/430 436/258/436 431/268/431
f 429/264/429 435/257/435 430/262/430
f 432/266/432 439/255/439 429/264/429
f 431/268/431 440/253/440 432/266/432
f 431/268/431 438/252/438 440/253/440
f 432/266/432 440/253/440 441/254/441
f 432/266/432 441/254/441 439/255/439
f 429/264/429 439/255/439 434/256/434
usemtl tex_1715_lit
f 433/271/433 442/259/442 443/260/443
usemtl tex_1714_lit
f 444/278/444 445/279/445 446/280/446
f 444/278/444 447/281/447 445/279/445
f 448/282/448 449/283/449 450/284/450
f 448/282/448 451/285/451 449/283/449
usemtl tex_1713_lit
f 452/286/452 453/287/453 454/288/454
f 453/287/453 455/289/455 454/288/454
f 454/288/454 455/289/455 456/290/456
f 455/289/455 457/291/457 458/292/458
f 459/293/459 460/294/460 461/295/461
f 462/296/462 463/297/463 464/298/464
f 465/299/465 466/300/466 467/301/467
f 468/302/468 464/298/464 463/297/463
f 464/298/464 461/295/461 462/296/462
f 464/298/464 459/293/459 461/295/461
usemtl tex_1714_lit
f 469/285/469 476/303/476 470/283/470
f 471/281/471 477/304/477 472/279/472
f 478/305/478 477/304/477 471/281/471
f 476/303/476 479/306/479 470/283/470
f 472/279/472 477/304/477 476/303/476
usemtl tex_1713_lit
f 473/288/473 480/307/480 481/308/481
f 473/288/473 481/308/481 474/286/474
f 482/309/482 480/307/480 473/288/473
f 475/290/475 483/310/483 473/288/473
f 483/310/483 482/309/482 473/288/473
f 484/311/484 483/310/483 475/290/475
f 485/294/485 488/312/488 486/295/486
f 489/313/489 488/312/488 485/294/485
f 488/312/488 490/314/490 486/295/486
f 490/314/490 491/315/491 486/295/486
f 491/315/491 492/316/492 487/296/487
f 486/295/486 491/315/491 487/296/487
