mtllib CmaydayZ.mtl
v 376.34033203125 -47.78330199420452 -38.874228954315186 1.000 1.000 1.000
v 353.34033203125 32.21669800579548 -41.874228954315186 1.000 1.000 1.000
v 379.34033203125 -44.78330199420452 65.12577104568481 1.000 1.000 1.000
v 356.34033203125 33.21669800579548 62.125771045684814 1.000 1.000 1.000
v 258.34033203125 18.21669800579548 -28.874228954315186 1.000 1.000 1.000
v 248.34033203125 18.21669800579548 44.125771045684814 1.000 1.000 1.000
v 353.34033203125 32.21669800579548 -41.874228954315186 1.000 1.000 1.000
v 356.34033203125 33.21669800579548 62.125771045684814 1.000 1.000 1.000
v 353.34033203125 32.21669800579548 -41.874228954315186 1.000 1.000 1.000
v 376.34033203125 -47.78330199420452 -38.874228954315186 1.000 1.000 1.000
v 258.34033203125 18.21669800579548 -28.874228954315186 1.000 1.000 1.000
v 259.34033203125 -41.78330199420452 -27.874228954315186 1.000 1.000 1.000
v 251.34033203125 -40.78330199420452 43.125771045684814 1.000 1.000 1.000
v 379.34033203125 -44.78330199420452 65.12577104568481 1.000 1.000 1.000
v 248.34033203125 18.21669800579548 44.125771045684814 1.000 1.000 1.000
v 356.34033203125 33.21669800579548 62.125771045684814 1.000 1.000 1.000
v 379.34033203125 -44.78330199420452 65.12577104568481 1.000 1.000 1.000
v 251.34033203125 -40.78330199420452 43.125771045684814 1.000 1.000 1.000
v 376.34033203125 -47.78330199420452 -38.874228954315186 1.000 1.000 1.000
v 259.34033203125 -41.78330199420452 -27.874228954315186 1.000 1.000 1.000
v 442.79588663578033 346.6648483276367 56.09346294403076 1.000 1.000 1.000
v 443.79588663578033 348.6648483276367 -56.90653705596924 1.000 1.000 1.000
v 428.79588663578033 434.6648483276367 48.09346294403076 1.000 1.000 1.000
v 444.79588663578033 423.6648483276367 -58.90653705596924 1.000 1.000 1.000
v 251.34033203125 -40.78330199420452 43.125771045684814 1.000 1.000 1.000
v 248.34033203125 18.21669800579548 44.125771045684814 1.000 1.000 1.000
v 258.34033203125 18.21669800579548 -28.874228954315186 1.000 1.000 1.000
v 259.34033203125 -41.78330199420452 -27.874228954315186 1.000 1.000 1.000
v 393.79588663578033 392.6648483276367 -49.90653705596924 1.000 1.000 1.000
v 389.79588663578033 356.6648483276367 -44.90653705596924 1.000 1.000 1.000
v 370.79588663578033 430.6648483276367 -14.906537055969238 1.000 1.000 1.000
v 389.79588663578033 417.6648483276367 -47.90653705596924 1.000 1.000 1.000
v 389.79588663578033 431.6648483276367 28.09346294403076 1.000 1.000 1.000
v 385.79588663578033 404.6648483276367 49.09346294403076 1.000 1.000 1.000
v 392.79588663578033 354.6648483276367 3.0934629440307617 1.000 1.000 1.000
v 387.79588663578033 352.6648483276367 40.09346294403076 1.000 1.000 1.000
v 443.79588663578033 348.6648483276367 -56.90653705596924 1.000 1.000 1.000
v 444.79588663578033 423.6648483276367 -58.90653705596924 1.000 1.000 1.000
v 428.79588663578033 434.6648483276367 48.09346294403076 1.000 1.000 1.000
v 442.79588663578033 346.6648483276367 56.09346294403076 1.000 1.000 1.000
v 644.7958866357803 374.6648483276367 56.09346294403076 1.000 1.000 1.000
v 386.79588663578033 434.6648483276367 59.09346294403076 1.000 1.000 1.000
v 380.79588663578033 353.6648483276367 58.09346294403076 1.000 1.000 1.000
v 378.79588663578033 349.6648483276367 -34.90653705596924 1.000 1.000 1.000
v 651.7958866357803 373.6648483276367 -25.90653705596924 1.000 1.000 1.000
v 385.79588663578033 442.6648483276367 -36.90653705596924 1.000 1.000 1.000
v 642.7958866357803 435.6648483276367 57.09346294403076 1.000 1.000 1.000
v 649.7958866357803 434.6648483276367 -26.90653705596924 1.000 1.000 1.000
v 175.26817667484283 347.7307357788086 -67.0 1.000 1.000 1.000
v 292.26817667484283 342.7307357788086 -59.0 1.000 1.000 1.000
v 289.26817667484283 338.7307357788086 47.0 1.000 1.000 1.000
v 186.26817667484283 339.7307357788086 46.0 1.000 1.000 1.000
v 94.26817667484283 401.7307357788086 -61.0 1.000 1.000 1.000
v 83.26817667484283 407.7307357788086 -20.0 1.000 1.000 1.000
v 111.26817667484283 425.7307357788086 40.0 1.000 1.000 1.000
v 292.26817667484283 422.7307357788086 -60.0 1.000 1.000 1.000
v 262.26817667484283 429.7307357788086 54.0 1.000 1.000 1.000
v 88.26817667484283 410.7307357788086 11.0 1.000 1.000 1.000
v -92.90675354003906 322.1222629547119 -70.0 1.000 1.000 1.000
v -95.90675354003906 325.1222629547119 49.0 1.000 1.000 1.000
v -90.90675354003906 393.1222629547119 41.0 1.000 1.000 1.000
v -89.90675354003906 439.1222629547119 4.0 1.000 1.000 1.000
v -89.90675354003906 435.1222629547119 -43.0 1.000 1.000 1.000
v -91.90675354003906 400.1222629547119 -71.0 1.000 1.000 1.000
v 186.26817667484283 339.7307357788086 46.0 1.000 1.000 1.000
v 175.26817667484283 347.7307357788086 -67.0 1.000 1.000 1.000
v 111.26817667484283 425.7307357788086 40.0 1.000 1.000 1.000
v 88.26817667484283 410.7307357788086 11.0 1.000 1.000 1.000
v 83.26817667484283 407.7307357788086 -20.0 1.000 1.000 1.000
v 94.26817667484283 401.7307357788086 -61.0 1.000 1.000 1.000
v 292.26817667484283 342.7307357788086 -59.0 1.000 1.000 1.000
v 292.26817667484283 422.7307357788086 -60.0 1.000 1.000 1.000
v 262.26817667484283 429.7307357788086 54.0 1.000 1.000 1.000
v 289.26817667484283 338.7307357788086 47.0 1.000 1.000 1.000
v 389.79588663578033 356.6648483276367 -44.90653705596924 1.000 1.000 1.000
v 392.79588663578033 354.6648483276367 3.0934629440307617 1.000 1.000 1.000
v 393.79588663578033 392.6648483276367 -49.90653705596924 1.000 1.000 1.000
v 389.79588663578033 417.6648483276367 -47.90653705596924 1.000 1.000 1.000
v 370.79588663578033 430.6648483276367 -14.906537055969238 1.000 1.000 1.000
v 389.79588663578033 431.6648483276367 28.09346294403076 1.000 1.000 1.000
v 385.79588663578033 404.6648483276367 49.09346294403076 1.000 1.000 1.000
v 387.79588663578033 352.6648483276367 40.09346294403076 1.000 1.000 1.000
v 82.26817667484283 325.7307357788086 63.0 1.000 1.000 1.000
v 56.268176674842834 329.7307357788086 -46.0 1.000 1.000 1.000
v 381.26817667484283 353.7307357788086 58.0 1.000 1.000 1.000
v 387.26817667484283 434.7307357788086 59.0 1.000 1.000 1.000
v 103.26817667484283 407.7307357788086 65.0 1.000 1.000 1.000
v 97.26817667484283 417.7307357788086 -36.0 1.000 1.000 1.000
v 385.26817667484283 442.7307357788086 -37.0 1.000 1.000 1.000
v 379.26817667484283 349.7307357788086 -35.0 1.000 1.000 1.000
v 82.26817667484283 325.7307357788086 63.0 1.000 1.000 1.000
v -757.6282008886337 388.4689083099365 64.0 1.000 1.000 1.000
v -723.6282008886337 465.4689083099365 -42.0 1.000 1.000 1.000
v -752.6282008886337 387.4689083099365 -40.0 1.000 1.000 1.000
v -728.6282008886337 465.4689083099365 63.0 1.000 1.000 1.000
v -723.6282008886337 465.4689083099365 -42.0 1.000 1.000 1.000
v -626.6282008886337 443.4689083099365 45.0 1.000 1.000 1.000
v -634.6282008886337 444.4689083099365 -28.0 1.000 1.000 1.000
v -728.6282008886337 465.4689083099365 63.0 1.000 1.000 1.000
v -634.6282008886337 444.4689083099365 -28.0 1.000 1.000 1.000
v -752.6282008886337 387.4689083099365 -40.0 1.000 1.000 1.000
v -723.6282008886337 465.4689083099365 -42.0 1.000 1.000 1.000
v -639.6282008886337 386.4689083099365 -28.0 1.000 1.000 1.000
v -626.6282008886337 443.4689083099365 45.0 1.000 1.000 1.000
v -757.6282008886337 388.4689083099365 64.0 1.000 1.000 1.000
v -628.6282008886337 384.4689083099365 44.0 1.000 1.000 1.000
v -728.6282008886337 465.4689083099365 63.0 1.000 1.000 1.000
v -752.6282008886337 387.4689083099365 -40.0 1.000 1.000 1.000
v -628.6282008886337 384.4689083099365 44.0 1.000 1.000 1.000
v -757.6282008886337 388.4689083099365 64.0 1.000 1.000 1.000
v -639.6282008886337 386.4689083099365 -28.0 1.000 1.000 1.000
v -436.72144734859467 362.3466453552246 -62.0 1.000 1.000 1.000
v -437.72144734859467 358.3466453552246 51.0 1.000 1.000 1.000
v -424.72144734859467 449.3466453552246 44.0 1.000 1.000 1.000
v -437.72144734859467 441.3466453552246 -59.0 1.000 1.000 1.000
v -628.6282008886337 384.4689083099365 44.0 1.000 1.000 1.000
v -626.6282008886337 443.4689083099365 45.0 1.000 1.000 1.000
v -634.6282008886337 444.4689083099365 -28.0 1.000 1.000 1.000
v -639.6282008886337 386.4689083099365 -28.0 1.000 1.000 1.000
v -383.72144734859467 434.3466453552246 25.0 1.000 1.000 1.000
v -364.72144734859467 443.3466453552246 -14.0 1.000 1.000 1.000
v -384.72144734859467 425.3466453552246 -51.0 1.000 1.000 1.000
v -381.72144734859467 370.3466453552246 -43.0 1.000 1.000 1.000
v -387.72144734859467 368.3466453552246 0.0 1.000 1.000 1.000
v -382.72144734859467 366.3466453552246 37.0 1.000 1.000 1.000
v -380.72144734859467 405.3466453552246 46.0 1.000 1.000 1.000
v -383.72144734859467 407.3466453552246 -47.0 1.000 1.000 1.000
v -424.72144734859467 449.3466453552246 44.0 1.000 1.000 1.000
v -437.72144734859467 441.3466453552246 -59.0 1.000 1.000 1.000
v -436.72144734859467 362.3466453552246 -62.0 1.000 1.000 1.000
v -437.72144734859467 358.3466453552246 51.0 1.000 1.000 1.000
v -384.72144734859467 359.3466453552246 63.0 1.000 1.000 1.000
v -390.72144734859467 432.3466453552246 66.0 1.000 1.000 1.000
v -641.7214473485947 385.3466453552246 48.0 1.000 1.000 1.000
v -650.7214473485947 387.3466453552246 -34.0 1.000 1.000 1.000
v -381.72144734859467 357.3466453552246 -16.0 1.000 1.000 1.000
v -635.7214473485947 445.3466453552246 50.0 1.000 1.000 1.000
v -387.72144734859467 441.3466453552246 -31.0 1.000 1.000 1.000
v -641.7214473485947 446.3466453552246 -34.0 1.000 1.000 1.000
v -285.09608113765717 355.00011444091797 44.0 1.000 1.000 1.000
v -287.09608113765717 360.00011444091797 -61.0 1.000 1.000 1.000
v -172.09608113765717 357.00011444091797 -66.0 1.000 1.000 1.000
v -186.09608113765717 359.00011444091797 45.0 1.000 1.000 1.000
v -86.09608113765717 418.00011444091797 -60.0 1.000 1.000 1.000
v -285.09608113765717 435.00011444091797 -62.0 1.000 1.000 1.000
v -257.09608113765717 441.00011444091797 54.0 1.000 1.000 1.000
v -111.09608113765717 437.00011444091797 50.0 1.000 1.000 1.000
v -86.09608113765717 424.00011444091797 13.0 1.000 1.000 1.000
v -81.09608113765717 420.00011444091797 -27.0 1.000 1.000 1.000
v -404.90675354003906 433.1222629547119 -43.0 1.000 1.000 1.000
v -402.90675354003906 436.1222629547119 4.0 1.000 1.000 1.000
v -400.90675354003906 395.1222629547119 44.0 1.000 1.000 1.000
v -402.90675354003906 322.1222629547119 49.0 1.000 1.000 1.000
v -394.90675354003906 322.1222629547119 -54.0 1.000 1.000 1.000
v -403.90675354003906 401.1222629547119 -74.0 1.000 1.000 1.000
v -81.09608113765717 420.00011444091797 -27.0 1.000 1.000 1.000
v -86.09608113765717 424.00011444091797 13.0 1.000 1.000 1.000
v -111.09608113765717 437.00011444091797 50.0 1.000 1.000 1.000
v -186.09608113765717 359.00011444091797 45.0 1.000 1.000 1.000
v -172.09608113765717 357.00011444091797 -66.0 1.000 1.000 1.000
v -86.09608113765717 418.00011444091797 -60.0 1.000 1.000 1.000
v -287.09608113765717 360.00011444091797 -61.0 1.000 1.000 1.000
v -285.09608113765717 435.00011444091797 -62.0 1.000 1.000 1.000
v -257.09608113765717 441.00011444091797 54.0 1.000 1.000 1.000
v -285.09608113765717 355.00011444091797 44.0 1.000 1.000 1.000
v -383.72144734859467 407.3466453552246 -47.0 1.000 1.000 1.000
v -381.72144734859467 370.3466453552246 -43.0 1.000 1.000 1.000
v -364.72144734859467 443.3466453552246 -14.0 1.000 1.000 1.000
v -384.72144734859467 425.3466453552246 -51.0 1.000 1.000 1.000
v -380.72144734859467 405.3466453552246 46.0 1.000 1.000 1.000
v -383.72144734859467 434.3466453552246 25.0 1.000 1.000 1.000
v -387.72144734859467 368.3466453552246 0.0 1.000 1.000 1.000
v -382.72144734859467 366.3466453552246 37.0 1.000 1.000 1.000
v -107.09608113765717 422.00011444091797 55.0 1.000 1.000 1.000
v -85.09608113765717 338.00011444091797 53.0 1.000 1.000 1.000
v -58.096081137657166 346.00011444091797 -57.0 1.000 1.000 1.000
v -99.09608113765717 434.00011444091797 -46.0 1.000 1.000 1.000
v -385.09608113765717 360.00011444091797 63.0 1.000 1.000 1.000
v -85.09608113765717 338.00011444091797 53.0 1.000 1.000 1.000
v -391.09608113765717 432.00011444091797 66.0 1.000 1.000 1.000
v -388.09608113765717 441.00011444091797 -31.0 1.000 1.000 1.000
v -382.09608113765717 358.00011444091797 -16.0 1.000 1.000 1.000
v 4.7873170375823975 536.86376953125 120.0 1.000 1.000 1.000
v 11.787317037582397 467.86376953125 124.0 1.000 1.000 1.000
v 41.7873170375824 611.86376953125 111.0 1.000 1.000 1.000
v -54.2126829624176 726.86376953125 118.0 1.000 1.000 1.000
v 61.7873170375824 727.86376953125 119.0 1.000 1.000 1.000
v 5.7873170375823975 728.86376953125 -9.0 1.000 1.000 1.000
v -47.2126829624176 480.86376953125 105.0 1.000 1.000 1.000
v -20.212682962417603 467.86376953125 124.0 1.000 1.000 1.000
v -46.2126829624176 609.86376953125 112.0 1.000 1.000 1.000
v -55.2126829624176 660.86376953125 107.0 1.000 1.000 1.000
v 40.7873170375824 481.86376953125 105.0 1.000 1.000 1.000
v 51.7873170375824 660.86376953125 107.0 1.000 1.000 1.000
v -1.2126829624176025 467.86376953125 71.0 1.000 1.000 1.000
v -6.2126829624176025 660.86376953125 116.0 1.000 1.000 1.000
v -17.212682962417603 536.86376953125 120.0 1.000 1.000 1.000
v -11.212682962417603 585.86376953125 119.0 1.000 1.000 1.000
v -16.212682962417603 539.86376953125 139.0 1.000 1.000 1.000
v 3.7873170375823975 539.86376953125 139.0 1.000 1.000 1.000
v -0.21268296241760254 586.86376953125 119.0 1.000 1.000 1.000
v -17.212682962417603 536.86376953125 120.0 1.000 1.000 1.000
v 4.7873170375823975 536.86376953125 120.0 1.000 1.000 1.000
v -6.2126829624176025 660.86376953125 116.0 1.000 1.000 1.000
v 41.7873170375824 611.86376953125 111.0 1.000 1.000 1.000
v 51.7873170375824 660.86376953125 107.0 1.000 1.000 1.000
v -46.2126829624176 609.86376953125 112.0 1.000 1.000 1.000
v -55.2126829624176 660.86376953125 107.0 1.000 1.000 1.000
v -4.2126829624176025 492.86376953125 51.0 1.000 1.000 1.000
v 54.7873170375824 539.86376953125 15.0 1.000 1.000 1.000
v 59.7873170375824 548.86376953125 10.0 1.000 1.000 1.000
v -54.2126829624176 726.86376953125 118.0 1.000 1.000 1.000
v -77.2126829624176 696.86376953125 82.0 1.000 1.000 1.000
v -55.2126829624176 660.86376953125 107.0 1.000 1.000 1.000
v 5.7873170375823975 728.86376953125 -9.0 1.000 1.000 1.000
v 6.7873170375823975 703.86376953125 -71.0 1.000 1.000 1.000
v -28.212682962417603 537.86376953125 -62.0 1.000 1.000 1.000
v -84.2126829624176 620.86376953125 0.0 1.000 1.000 1.000
v -31.212682962417603 635.86376953125 -95.0 1.000 1.000 1.000
v -72.2126829624176 548.86376953125 11.0 1.000 1.000 1.000
v -47.2126829624176 480.86376953125 105.0 1.000 1.000 1.000
v -20.212682962417603 467.86376953125 124.0 1.000 1.000 1.000
v -1.2126829624176025 467.86376953125 71.0 1.000 1.000 1.000
v -38.2126829624176 527.86376953125 -46.0 1.000 1.000 1.000
v -55.2126829624176 541.86376953125 15.0 1.000 1.000 1.000
v -4.2126829624176025 492.86376953125 51.0 1.000 1.000 1.000
v 51.7873170375824 660.86376953125 107.0 1.000 1.000 1.000
v 72.7873170375824 699.86376953125 81.0 1.000 1.000 1.000
v 61.7873170375824 727.86376953125 119.0 1.000 1.000 1.000
v 59.7873170375824 548.86376953125 10.0 1.000 1.000 1.000
v 75.7873170375824 620.86376953125 1.0 1.000 1.000 1.000
v 6.7873170375823975 703.86376953125 -71.0 1.000 1.000 1.000
v 5.7873170375823975 728.86376953125 -9.0 1.000 1.000 1.000
v 22.787317037582397 636.86376953125 -96.0 1.000 1.000 1.000
v -28.212682962417603 537.86376953125 -62.0 1.000 1.000 1.000
v 22.787317037582397 636.86376953125 -96.0 1.000 1.000 1.000
v 37.7873170375824 538.86376953125 -63.0 1.000 1.000 1.000
v 37.7873170375824 538.86376953125 -63.0 1.000 1.000 1.000
v -31.212682962417603 635.86376953125 -95.0 1.000 1.000 1.000
v 6.7873170375823975 703.86376953125 -71.0 1.000 1.000 1.000
v 40.7873170375824 481.86376953125 105.0 1.000 1.000 1.000
v -1.2126829624176025 467.86376953125 71.0 1.000 1.000 1.000
v -38.2126829624176 527.86376953125 -46.0 1.000 1.000 1.000
v -28.212682962417603 537.86376953125 -62.0 1.000 1.000 1.000
v 37.7873170375824 538.86376953125 -63.0 1.000 1.000 1.000
v 35.7873170375824 526.86376953125 -48.0 1.000 1.000 1.000
v 35.7873170375824 526.86376953125 -48.0 1.000 1.000 1.000
v 37.7873170375824 538.86376953125 -63.0 1.000 1.000 1.000
v 59.7873170375824 548.86376953125 10.0 1.000 1.000 1.000
v 54.7873170375824 539.86376953125 15.0 1.000 1.000 1.000
v -1.2126829624176025 467.86376953125 71.0 1.000 1.000 1.000
v -4.2126829624176025 492.86376953125 51.0 1.000 1.000 1.000
v -47.2126829624176 484.86376953125 117.0 1.000 1.000 1.000
v 46.7873170375824 483.86376953125 117.0 1.000 1.000 1.000
v 66.7873170375824 693.86376953125 104.0 1.000 1.000 1.000
v -68.2126829624176 693.86376953125 104.0 1.000 1.000 1.000
v -68.2126829624176 693.86376953125 104.0 1.000 1.000 1.000
v -58.2126829624176 700.86376953125 -68.0 1.000 1.000 1.000
v -47.2126829624176 547.86376953125 -64.0 1.000 1.000 1.000
v -47.2126829624176 484.86376953125 117.0 1.000 1.000 1.000
v -68.2126829624176 693.86376953125 104.0 1.000 1.000 1.000
v 66.7873170375824 693.86376953125 104.0 1.000 1.000 1.000
v 56.7873170375824 700.86376953125 -68.0 1.000 1.000 1.000
v -58.2126829624176 700.86376953125 -68.0 1.000 1.000 1.000
v 45.7873170375824 548.86376953125 -64.0 1.000 1.000 1.000
v -47.2126829624176 547.86376953125 -64.0 1.000 1.000 1.000
v -58.2126829624176 700.86376953125 -68.0 1.000 1.000 1.000
v 56.7873170375824 700.86376953125 -68.0 1.000 1.000 1.000
v 46.7873170375824 483.86376953125 117.0 1.000 1.000 1.000
v 45.7873170375824 548.86376953125 -64.0 1.000 1.000 1.000
v 56.7873170375824 700.86376953125 -68.0 1.000 1.000 1.000
v 66.7873170375824 693.86376953125 104.0 1.000 1.000 1.000
v -47.2126829624176 547.86376953125 -64.0 1.000 1.000 1.000
v 45.7873170375824 548.86376953125 -64.0 1.000 1.000 1.000
v 46.7873170375824 483.86376953125 117.0 1.000 1.000 1.000
v -47.2126829624176 484.86376953125 117.0 1.000 1.000 1.000
v -251.90675354003906 408.1222629547119 40.0 1.000 1.000 1.000
v -186.90675354003906 448.1222629547119 8.0 1.000 1.000 1.000
v -199.90675354003906 447.1222629547119 -47.0 1.000 1.000 1.000
v -314.90675354003906 448.1222629547119 8.0 1.000 1.000 1.000
v -306.90675354003906 447.1222629547119 -52.0 1.000 1.000 1.000
v -245.90675354003906 446.1222629547119 -63.0 1.000 1.000 1.000
v -4.2126829624176025 492.86376953125 51.0 1.000 1.000 1.000
v -55.2126829624176 541.86376953125 15.0 1.000 1.000 1.000
v 35.7873170375824 526.86376953125 -48.0 1.000 1.000 1.000
v 54.7873170375824 539.86376953125 15.0 1.000 1.000 1.000
v -38.2126829624176 527.86376953125 -46.0 1.000 1.000 1.000
v -342.90675354003906 163.1222629547119 98.0 1.000 1.000 1.000
v -307.90675354003906 226.1222629547119 143.0 1.000 1.000 1.000
v -393.90675354003906 256.1222629547119 71.0 1.000 1.000 1.000
v -315.90675354003906 411.1222629547119 42.0 1.000 1.000 1.000
v -242.90675354003906 252.1222629547119 121.0 1.000 1.000 1.000
v -251.90675354003906 408.1222629547119 40.0 1.000 1.000 1.000
v -120.90675354003906 256.1222629547119 72.0 1.000 1.000 1.000
v -95.90675354003906 325.1222629547119 49.0 1.000 1.000 1.000
v -138.90675354003906 270.1222629547119 141.0 1.000 1.000 1.000
v -187.90675354003906 262.1222629547119 140.0 1.000 1.000 1.000
v -196.90675354003906 226.1222629547119 144.0 1.000 1.000 1.000
v -300.90675354003906 262.1222629547119 140.0 1.000 1.000 1.000
v -166.90675354003906 164.1222629547119 98.0 1.000 1.000 1.000
v -306.90675354003906 447.1222629547119 -52.0 1.000 1.000 1.000
v -404.90675354003906 433.1222629547119 -43.0 1.000 1.000 1.000
v -402.90675354003906 436.1222629547119 4.0 1.000 1.000 1.000
v -342.90675354003906 163.1222629547119 98.0 1.000 1.000 1.000
v -256.90675354003906 166.1222629547119 106.0 1.000 1.000 1.000
v -307.90675354003906 226.1222629547119 143.0 1.000 1.000 1.000
v -315.90675354003906 411.1222629547119 42.0 1.000 1.000 1.000
v -314.90675354003906 448.1222629547119 8.0 1.000 1.000 1.000
v -402.90675354003906 436.1222629547119 4.0 1.000 1.000 1.000
v -314.90675354003906 448.1222629547119 8.0 1.000 1.000 1.000
v -306.90675354003906 447.1222629547119 -52.0 1.000 1.000 1.000
v -402.90675354003906 436.1222629547119 4.0 1.000 1.000 1.000
v -300.90675354003906 262.1222629547119 140.0 1.000 1.000 1.000
v -242.90675354003906 252.1222629547119 121.0 1.000 1.000 1.000
v -120.90675354003906 256.1222629547119 72.0 1.000 1.000 1.000
v -126.90675354003906 171.1222629547119 -23.0 1.000 1.000 1.000
v -95.90675354003906 325.1222629547119 49.0 1.000 1.000 1.000
v -366.90675354003906 270.1222629547119 141.0 1.000 1.000 1.000
v -393.90675354003906 256.1222629547119 71.0 1.000 1.000 1.000
v -366.90675354003906 270.1222629547119 141.0 1.000 1.000 1.000
v -402.90675354003906 322.1222629547119 49.0 1.000 1.000 1.000
v -393.90675354003906 256.1222629547119 71.0 1.000 1.000 1.000
v -342.90675354003906 163.1222629547119 98.0 1.000 1.000 1.000
v -374.90675354003906 173.1222629547119 -24.0 1.000 1.000 1.000
v -120.90675354003906 256.1222629547119 72.0 1.000 1.000 1.000
v -138.90675354003906 270.1222629547119 141.0 1.000 1.000 1.000
v -196.90675354003906 226.1222629547119 144.0 1.000 1.000 1.000
v -242.90675354003906 252.1222629547119 121.0 1.000 1.000 1.000
v -187.90675354003906 262.1222629547119 140.0 1.000 1.000 1.000
v -165.90675354003906 411.1222629547119 43.0 1.000 1.000 1.000
v -126.90675354003906 171.1222629547119 -23.0 1.000 1.000 1.000
v -92.90675354003906 322.1222629547119 -70.0 1.000 1.000 1.000
v -95.90675354003906 325.1222629547119 49.0 1.000 1.000 1.000
v -315.90675354003906 411.1222629547119 42.0 1.000 1.000 1.000
v -251.90675354003906 408.1222629547119 40.0 1.000 1.000 1.000
v -314.90675354003906 448.1222629547119 8.0 1.000 1.000 1.000
v -196.90675354003906 226.1222629547119 144.0 1.000 1.000 1.000
v -256.90675354003906 166.1222629547119 106.0 1.000 1.000 1.000
v -166.90675354003906 164.1222629547119 98.0 1.000 1.000 1.000
v -89.90675354003906 439.1222629547119 4.0 1.000 1.000 1.000
v -89.90675354003906 435.1222629547119 -43.0 1.000 1.000 1.000
v -199.90675354003906 447.1222629547119 -47.0 1.000 1.000 1.000
v -400.90675354003906 395.1222629547119 44.0 1.000 1.000 1.000
v -402.90675354003906 322.1222629547119 49.0 1.000 1.000 1.000
v -242.90675354003906 252.1222629547119 121.0 1.000 1.000 1.000
v -300.90675354003906 262.1222629547119 140.0 1.000 1.000 1.000
v -366.90675354003906 270.1222629547119 141.0 1.000 1.000 1.000
v -307.90675354003906 226.1222629547119 143.0 1.000 1.000 1.000
v -165.90675354003906 411.1222629547119 43.0 1.000 1.000 1.000
v -186.90675354003906 448.1222629547119 8.0 1.000 1.000 1.000
v -251.90675354003906 408.1222629547119 40.0 1.000 1.000 1.000
v -242.90675354003906 252.1222629547119 121.0 1.000 1.000 1.000
v -307.90675354003906 226.1222629547119 143.0 1.000 1.000 1.000
v -256.90675354003906 166.1222629547119 106.0 1.000 1.000 1.000
v -138.90675354003906 270.1222629547119 141.0 1.000 1.000 1.000
v -95.90675354003906 325.1222629547119 49.0 1.000 1.000 1.000
v -400.90675354003906 395.1222629547119 44.0 1.000 1.000 1.000
v -315.90675354003906 411.1222629547119 42.0 1.000 1.000 1.000
v -402.90675354003906 436.1222629547119 4.0 1.000 1.000 1.000
v -120.90675354003906 256.1222629547119 72.0 1.000 1.000 1.000
v -166.90675354003906 164.1222629547119 98.0 1.000 1.000 1.000
v -126.90675354003906 171.1222629547119 -23.0 1.000 1.000 1.000
v -196.90675354003906 226.1222629547119 144.0 1.000 1.000 1.000
v -187.90675354003906 262.1222629547119 140.0 1.000 1.000 1.000
v -90.90675354003906 393.1222629547119 41.0 1.000 1.000 1.000
v -165.90675354003906 411.1222629547119 43.0 1.000 1.000 1.000
v -95.90675354003906 325.1222629547119 49.0 1.000 1.000 1.000
v -89.90675354003906 439.1222629547119 4.0 1.000 1.000 1.000
v -186.90675354003906 448.1222629547119 8.0 1.000 1.000 1.000
v -89.90675354003906 439.1222629547119 4.0 1.000 1.000 1.000
v -199.90675354003906 447.1222629547119 -47.0 1.000 1.000 1.000
v -186.90675354003906 448.1222629547119 8.0 1.000 1.000 1.000
v -187.90675354003906 262.1222629547119 140.0 1.000 1.000 1.000
v -138.90675354003906 270.1222629547119 141.0 1.000 1.000 1.000
v -393.90675354003906 256.1222629547119 71.0 1.000 1.000 1.000
v -402.90675354003906 322.1222629547119 49.0 1.000 1.000 1.000
v -374.90675354003906 173.1222629547119 -24.0 1.000 1.000 1.000
v -394.90675354003906 322.1222629547119 -54.0 1.000 1.000 1.000
v -368.90675354003906 322.1222629547119 -90.0 1.000 1.000 1.000
v -403.90675354003906 401.1222629547119 -74.0 1.000 1.000 1.000
v -245.90675354003906 446.1222629547119 -63.0 1.000 1.000 1.000
v -249.90675354003906 184.1222629547119 -75.0 1.000 1.000 1.000
v -374.90675354003906 173.1222629547119 -24.0 1.000 1.000 1.000
v -246.90675354003906 322.1222629547119 -101.0 1.000 1.000 1.000
v -108.90675354003906 328.1222629547119 -89.0 1.000 1.000 1.000
v -404.90675354003906 433.1222629547119 -43.0 1.000 1.000 1.000
v -394.90675354003906 322.1222629547119 -54.0 1.000 1.000 1.000
v -92.90675354003906 322.1222629547119 -70.0 1.000 1.000 1.000
v -126.90675354003906 171.1222629547119 -23.0 1.000 1.000 1.000
v -91.90675354003906 400.1222629547119 -71.0 1.000 1.000 1.000
v -306.90675354003906 447.1222629547119 -52.0 1.000 1.000 1.000
v -245.90675354003906 446.1222629547119 -63.0 1.000 1.000 1.000
v -404.90675354003906 433.1222629547119 -43.0 1.000 1.000 1.000
v -245.90675354003906 446.1222629547119 -63.0 1.000 1.000 1.000
v -199.90675354003906 447.1222629547119 -47.0 1.000 1.000 1.000
v -89.90675354003906 435.1222629547119 -43.0 1.000 1.000 1.000
v -246.90675354003906 322.1222629547119 -101.0 1.000 1.000 1.000
v -108.90675354003906 328.1222629547119 -89.0 1.000 1.000 1.000
v -249.90675354003906 184.1222629547119 -75.0 1.000 1.000 1.000
v -245.90675354003906 446.1222629547119 -63.0 1.000 1.000 1.000
v -91.90675354003906 400.1222629547119 -71.0 1.000 1.000 1.000
v -368.90675354003906 322.1222629547119 -90.0 1.000 1.000 1.000
v -126.90675354003906 171.1222629547119 -23.0 1.000 1.000 1.000
v -89.90675354003906 435.1222629547119 -43.0 1.000 1.000 1.000
v -83.8220180273056 127.14437103271484 19.0 1.000 1.000 1.000
v -94.8220180273056 138.14437103271484 -36.0 1.000 1.000 1.000
v -36.8220180273056 117.14437103271484 71.0 1.000 1.000 1.000
v -69.8220180273056 124.14437103271484 62.0 1.000 1.000 1.000
v 32.1779819726944 120.14437103271484 69.0 1.000 1.000 1.000
v -0.822018027305603 114.14437103271484 74.0 1.000 1.000 1.000
v 85.1779819726944 127.14437103271484 18.0 1.000 1.000 1.000
v 64.1779819726944 124.14437103271484 62.0 1.000 1.000 1.000
v 93.1779819726944 138.14437103271484 -36.0 1.000 1.000 1.000
v -374.90675354003906 173.1222629547119 -24.0 1.000 1.000 1.000
v -342.90675354003906 163.1222629547119 98.0 1.000 1.000 1.000
v -256.90675354003906 166.1222629547119 106.0 1.000 1.000 1.000
v -166.90675354003906 164.1222629547119 98.0 1.000 1.000 1.000
v -126.90675354003906 171.1222629547119 -23.0 1.000 1.000 1.000
v 29.177981972694397 143.14437103271484 -53.0 1.000 1.000 1.000
v 93.1779819726944 138.14437103271484 -36.0 1.000 1.000 1.000
v -33.8220180273056 143.14437103271484 -53.0 1.000 1.000 1.000
v -94.8220180273056 138.14437103271484 -36.0 1.000 1.000 1.000
v -126.90675354003906 171.1222629547119 -23.0 1.000 1.000 1.000
v -249.90675354003906 184.1222629547119 -75.0 1.000 1.000 1.000
v -374.90675354003906 173.1222629547119 -24.0 1.000 1.000 1.000
v -116.90675354003906 393.1222629547119 133.0 1.000 1.000 1.000
v -394.90675354003906 422.1222629547119 -96.0 1.000 1.000 1.000
v -380.90675354003906 390.1222629547119 133.0 1.000 1.000 1.000
v -337.90675354003906 85.12226295471191 96.0 1.000 1.000 1.000
v -158.90675354003906 85.12226295471191 96.0 1.000 1.000 1.000
v -101.90675354003906 424.1222629547119 -94.0 1.000 1.000 1.000
v -344.90675354003906 81.12226295471191 -60.0 1.000 1.000 1.000
v -337.90675354003906 85.12226295471191 96.0 1.000 1.000 1.000
v -156.90675354003906 82.12226295471191 -60.0 1.000 1.000 1.000
v -158.90675354003906 85.12226295471191 96.0 1.000 1.000 1.000
v -380.90675354003906 390.1222629547119 133.0 1.000 1.000 1.000
v -156.90675354003906 82.12226295471191 -60.0 1.000 1.000 1.000
v -337.90675354003906 85.12226295471191 96.0 1.000 1.000 1.000
v -158.90675354003906 85.12226295471191 96.0 1.000 1.000 1.000
v -101.90675354003906 424.1222629547119 -94.0 1.000 1.000 1.000
v -156.90675354003906 82.12226295471191 -60.0 1.000 1.000 1.000
v -344.90675354003906 81.12226295471191 -60.0 1.000 1.000 1.000
v -394.90675354003906 422.1222629547119 -96.0 1.000 1.000 1.000
v -1074.8555908203125 -111.70243644714355 -77.0 1.000 1.000 1.000
v -1074.8555908203125 -168.70243644714355 -68.0 1.000 1.000 1.000
v -1074.8555908203125 -48.702436447143555 198.0 1.000 1.000 1.000
v -1074.8555908203125 -150.70243644714355 198.0 1.000 1.000 1.000
v -981.8555908203125 -93.70243644714355 13.0 1.000 1.000 1.000
v -963.8555908203125 -97.70243644714355 -54.0 1.000 1.000 1.000
v -1048.8555908203125 -86.70243644714355 178.0 1.000 1.000 1.000
v -955.8555908203125 -156.70243644714355 -55.0 1.000 1.000 1.000
v -1037.8555908203125 -125.70243644714355 188.0 1.000 1.000 1.000
v -973.8555908203125 -145.70243644714355 14.0 1.000 1.000 1.000
v -621.8883666992188 -175.47519826889038 -23.0 1.000 1.000 1.000
v -635.8883666992188 -111.47519826889038 42.0 1.000 1.000 1.000
v -621.8883666992188 -45.47519826889038 -29.0 1.000 1.000 1.000
v -644.8883666992188 -117.47519826889038 -93.0 1.000 1.000 1.000
v -973.8555908203125 -145.70243644714355 14.0 1.000 1.000 1.000
v -955.8555908203125 -156.70243644714355 -55.0 1.000 1.000 1.000
v -981.8555908203125 -93.70243644714355 13.0 1.000 1.000 1.000
v -963.8555908203125 -97.70243644714355 -54.0 1.000 1.000 1.000
v -524.8883666992188 -78.47519826889038 -51.0 1.000 1.000 1.000
v -516.8883666992188 -60.47519826889038 -21.0 1.000 1.000 1.000
v -513.8883666992188 -95.47519826889038 41.0 1.000 1.000 1.000
v -513.8883666992188 -116.47519826889038 33.0 1.000 1.000 1.000
v -514.8883666992188 -160.47519826889038 -12.0 1.000 1.000 1.000
v -517.8883666992188 -163.47519826889038 -65.0 1.000 1.000 1.000
v -520.8883666992188 -140.47519826889038 -68.0 1.000 1.000 1.000
v -522.8883666992188 -108.47519826889038 -61.0 1.000 1.000 1.000
v -621.8883666992188 -45.47519826889038 -29.0 1.000 1.000 1.000
v -635.8883666992188 -111.47519826889038 42.0 1.000 1.000 1.000
v -621.8883666992188 -175.47519826889038 -23.0 1.000 1.000 1.000
v -644.8883666992188 -117.47519826889038 -93.0 1.000 1.000 1.000
v -1009.8883666992188 -149.47519826889038 11.0 1.000 1.000 1.000
v -518.8883666992188 -121.47519826889038 40.0 1.000 1.000 1.000
v -1018.8883666992188 -95.47519826889038 7.0 1.000 1.000 1.000
v -509.88836669921875 -52.47519826889038 14.0 1.000 1.000 1.000
v -512.8883666992188 -104.47519826889038 -68.0 1.000 1.000 1.000
v -1001.8883666992188 -98.47519826889038 -57.0 1.000 1.000 1.000
v -513.8883666992188 -165.47519826889038 -11.0 1.000 1.000 1.000
v -992.8883666992188 -158.47519826889038 -58.0 1.000 1.000 1.000
v -518.8883666992188 -121.47519826889038 40.0 1.000 1.000 1.000
v -513.8883666992188 -165.47519826889038 -11.0 1.000 1.000 1.000
v 0.0 -120.0 56.0 1.000 1.000 1.000
v -43.0 -112.0 -105.0 1.000 1.000 1.000
v -76.0 -41.0 66.0 1.000 1.000 1.000
v -149.0 -7.0 -95.0 1.000 1.000 1.000
v -222.58901977539062 -113.63739013671875 74.0 1.000 1.000 1.000
v -227.58901977539062 -181.63739013671875 -4.0 1.000 1.000 1.000
v -186.58901977539062 -107.63739013671875 -113.0 1.000 1.000 1.000
v -196.58901977539062 -25.63739013671875 -6.0 1.000 1.000 1.000
v -196.58901977539062 -25.63739013671875 -6.0 1.000 1.000 1.000
v -186.58901977539062 -107.63739013671875 -113.0 1.000 1.000 1.000
v -222.58901977539062 -113.63739013671875 74.0 1.000 1.000 1.000
v -227.58901977539062 -181.63739013671875 -4.0 1.000 1.000 1.000
v -524.8883666992188 -78.47519826889038 -51.0 1.000 1.000 1.000
v -516.8883666992188 -60.47519826889038 -21.0 1.000 1.000 1.000
v -513.8883666992188 -95.47519826889038 41.0 1.000 1.000 1.000
v -520.8883666992188 -140.47519826889038 -68.0 1.000 1.000 1.000
v -522.8883666992188 -108.47519826889038 -61.0 1.000 1.000 1.000
v -513.8883666992188 -116.47519826889038 33.0 1.000 1.000 1.000
v -517.8883666992188 -163.47519826889038 -65.0 1.000 1.000 1.000
v -514.8883666992188 -160.47519826889038 -12.0 1.000 1.000 1.000
v -518.5890197753906 -120.63739013671875 40.0 1.000 1.000 1.000
v -101.58901977539062 -192.63739013671875 -24.0 1.000 1.000 1.000
v -101.58901977539062 -145.63739013671875 70.0 1.000 1.000 1.000
v -101.58901977539062 -121.63739013671875 -104.0 1.000 1.000 1.000
v -513.5890197753906 -165.63739013671875 -11.0 1.000 1.000 1.000
v -512.5890197753906 -104.63739013671875 -68.0 1.000 1.000 1.000
v -510.5890197753906 -52.63739013671875 14.0 1.000 1.000 1.000
v -100.58901977539062 -30.63739013671875 -3.0 1.000 1.000 1.000
v -100.58901977539062 -30.63739013671875 -3.0 1.000 1.000 1.000
v -101.58901977539062 -145.63739013671875 70.0 1.000 1.000 1.000
v -101.58901977539062 -192.63739013671875 -24.0 1.000 1.000 1.000
v -101.58901977539062 -121.63739013671875 -104.0 1.000 1.000 1.000
v -518.5890197753906 -120.63739013671875 40.0 1.000 1.000 1.000
v -513.5890197753906 -165.63739013671875 -11.0 1.000 1.000 1.000
v 1083.927879333496 -52.380823612213135 198.0 1.000 1.000 1.000
v 1083.927879333496 -172.38082361221313 -68.0 1.000 1.000 1.000
v 1083.927879333496 -116.38082361221313 -77.0 1.000 1.000 1.000
v 1083.927879333496 -154.38082361221313 198.0 1.000 1.000 1.000
v 970.9278793334961 -102.38082361221313 -57.0 1.000 1.000 1.000
v 993.9278793334961 -95.38082361221313 4.0 1.000 1.000 1.000
v 1057.927879333496 -90.38082361221313 178.0 1.000 1.000 1.000
v 961.9278793334961 -165.38082361221313 -61.0 1.000 1.000 1.000
v 1045.927879333496 -128.38082361221313 188.0 1.000 1.000 1.000
v 985.9278793334961 -149.38082361221313 12.0 1.000 1.000 1.000
v 656.3251266479492 -123.09517669677734 -92.0 1.000 1.000 1.000
v 629.3251266479492 -40.095176696777344 -31.0 1.000 1.000 1.000
v 644.3251266479492 -115.09517669677734 41.0 1.000 1.000 1.000
v 631.3251266479492 -177.09517669677734 -23.0 1.000 1.000 1.000
v 644.3251266479492 -115.09517669677734 41.0 1.000 1.000 1.000
v 970.9278793334961 -102.38082361221313 -57.0 1.000 1.000 1.000
v 985.9278793334961 -149.38082361221313 12.0 1.000 1.000 1.000
v 961.9278793334961 -165.38082361221313 -61.0 1.000 1.000 1.000
v 993.9278793334961 -95.38082361221313 4.0 1.000 1.000 1.000
v 985.9278793334961 -149.38082361221313 12.0 1.000 1.000 1.000
v 993.9278793334961 -95.38082361221313 4.0 1.000 1.000 1.000
v 530.3251266479492 -142.09517669677734 -68.0 1.000 1.000 1.000
v 528.3251266479492 -164.09517669677734 -65.0 1.000 1.000 1.000
v 526.3251266479492 -166.09517669677734 -12.0 1.000 1.000 1.000
v 524.3251266479492 -120.09517669677734 32.0 1.000 1.000 1.000
v 523.3251266479492 -100.09517669677734 41.0 1.000 1.000 1.000
v 525.3251266479492 -62.095176696777344 -21.0 1.000 1.000 1.000
v 533.3251266479492 -75.09517669677734 -51.0 1.000 1.000 1.000
v 531.3251266479492 -96.09517669677734 -61.0 1.000 1.000 1.000
v 656.3251266479492 -123.09517669677734 -92.0 1.000 1.000 1.000
v 631.3251266479492 -177.09517669677734 -23.0 1.000 1.000 1.000
v 644.3251266479492 -115.09517669677734 41.0 1.000 1.000 1.000
v 629.3251266479492 -40.095176696777344 -31.0 1.000 1.000 1.000
v 1029.3251266479492 -95.09517669677734 9.0 1.000 1.000 1.000
v 527.3251266479492 -125.09517669677734 44.0 1.000 1.000 1.000
v 1019.3251266479492 -152.09517669677734 10.0 1.000 1.000 1.000
v 1010.3251266479492 -98.09517669677734 -59.0 1.000 1.000 1.000
v 527.3251266479492 -109.09517669677734 -79.0 1.000 1.000 1.000
v 527.3251266479492 -56.095176696777344 5.0 1.000 1.000 1.000
v 527.3251266479492 -170.09517669677734 -11.0 1.000 1.000 1.000
v 1001.3251266479492 -163.09517669677734 -63.0 1.000 1.000 1.000
v 527.3251266479492 -170.09517669677734 -11.0 1.000 1.000 1.000
v 527.3251266479492 -125.09517669677734 44.0 1.000 1.000 1.000
v 0.0 -120.0 56.0 1.000 1.000 1.000
v 40.0 -112.0 -106.0 1.000 1.000 1.000
v 76.0 -42.0 66.0 1.000 1.000 1.000
v 152.0 -6.0 -94.0 1.000 1.000 1.000
v 236.1657943725586 -185.35110473632812 -4.0 1.000 1.000 1.000
v 231.1657943725586 -93.35110473632812 73.0 1.000 1.000 1.000
v 197.1657943725586 -93.35110473632812 -112.0 1.000 1.000 1.000
v 206.1657943725586 -24.351104736328125 -5.0 1.000 1.000 1.000
v 231.1657943725586 -93.35110473632812 73.0 1.000 1.000 1.000
v 206.1657943725586 -24.351104736328125 -5.0 1.000 1.000 1.000
v 197.1657943725586 -93.35110473632812 -112.0 1.000 1.000 1.000
v 236.1657943725586 -185.35110473632812 -4.0 1.000 1.000 1.000
v 523.3251266479492 -100.09517669677734 41.0 1.000 1.000 1.000
v 525.3251266479492 -62.095176696777344 -21.0 1.000 1.000 1.000
v 533.3251266479492 -75.09517669677734 -51.0 1.000 1.000 1.000
v 531.3251266479492 -96.09517669677734 -61.0 1.000 1.000 1.000
v 530.3251266479492 -142.09517669677734 -68.0 1.000 1.000 1.000
v 524.3251266479492 -120.09517669677734 32.0 1.000 1.000 1.000
v 528.3251266479492 -164.09517669677734 -65.0 1.000 1.000 1.000
v 526.3251266479492 -166.09517669677734 -12.0 1.000 1.000 1.000
v 110.1657943725586 -149.35110473632812 60.0 1.000 1.000 1.000
v 110.1657943725586 -196.35110473632812 -24.0 1.000 1.000 1.000
v 528.1657943725586 -125.35110473632812 44.0 1.000 1.000 1.000
v 528.1657943725586 -169.35110473632812 -11.0 1.000 1.000 1.000
v 111.1657943725586 -126.35110473632812 -104.0 1.000 1.000 1.000
v 111.1657943725586 -39.351104736328125 -3.0 1.000 1.000 1.000
v 528.1657943725586 -56.351104736328125 5.0 1.000 1.000 1.000
v 528.1657943725586 -108.35110473632812 -79.0 1.000 1.000 1.000
v 111.1657943725586 -126.35110473632812 -104.0 1.000 1.000 1.000
v 110.1657943725586 -196.35110473632812 -24.0 1.000 1.000 1.000
v 110.1657943725586 -149.35110473632812 60.0 1.000 1.000 1.000
v 111.1657943725586 -39.351104736328125 -3.0 1.000 1.000 1.000
v 528.1657943725586 -169.35110473632812 -11.0 1.000 1.000 1.000
v 528.1657943725586 -125.35110473632812 44.0 1.000 1.000 1.000
v -118.0 92.0 -43.0 1.000 1.000 1.000
v -149.0 -7.0 -95.0 1.000 1.000 1.000
v -87.0 63.0 46.0 1.000 1.000 1.000
v 0.0 99.0 -76.0 1.000 1.000 1.000
v 120.0 93.0 -43.0 1.000 1.000 1.000
v 152.0 -6.0 -94.0 1.000 1.000 1.000
v 78.0 64.0 46.0 1.000 1.000 1.000
v -2.0 -112.0 -106.0 1.000 1.000 1.000
v 0.0 -120.0 56.0 1.000 1.000 1.000
v -43.0 -112.0 -105.0 1.000 1.000 1.000
v -1.0 -8.0 -129.0 1.000 1.000 1.000
v 40.0 -112.0 -106.0 1.000 1.000 1.000
v -76.0 -41.0 66.0 1.000 1.000 1.000
v 76.0 -42.0 66.0 1.000 1.000 1.000
v 0.0 47.0 78.0 1.000 1.000 1.000
v -87.0 63.0 46.0 1.000 1.000 1.000
v -118.0 92.0 -43.0 1.000 1.000 1.000
v 120.0 93.0 -43.0 1.000 1.000 1.000
v 78.0 64.0 46.0 1.000 1.000 1.000
v 0.0 47.0 78.0 1.000 1.000 1.000
v -94.8220180273056 138.14437103271484 -36.0 1.000 1.000 1.000
v 85.1779819726944 127.14437103271484 18.0 1.000 1.000 1.000
v 93.1779819726944 138.14437103271484 -36.0 1.000 1.000 1.000
v 64.1779819726944 124.14437103271484 62.0 1.000 1.000 1.000
v 32.1779819726944 120.14437103271484 69.0 1.000 1.000 1.000
v -0.822018027305603 114.14437103271484 74.0 1.000 1.000 1.000
v -36.8220180273056 117.14437103271484 71.0 1.000 1.000 1.000
v -69.8220180273056 124.14437103271484 62.0 1.000 1.000 1.000
v -83.8220180273056 127.14437103271484 19.0 1.000 1.000 1.000
v 0.0 99.0 -76.0 1.000 1.000 1.000
v 120.0 93.0 -43.0 1.000 1.000 1.000
v -118.0 92.0 -43.0 1.000 1.000 1.000
v 29.177981972694397 143.14437103271484 -53.0 1.000 1.000 1.000
v -33.8220180273056 143.14437103271484 -53.0 1.000 1.000 1.000
v -94.8220180273056 138.14437103271484 -36.0 1.000 1.000 1.000
v 93.1779819726944 138.14437103271484 -36.0 1.000 1.000 1.000
v -88.0 126.0 96.0 1.000 1.000 1.000
v -137.0 -112.0 60.0 1.000 1.000 1.000
v 138.0 -111.0 60.0 1.000 1.000 1.000
v -169.0 -112.0 -104.0 1.000 1.000 1.000
v -95.0 121.0 -60.0 1.000 1.000 1.000
v 93.0 121.0 -60.0 1.000 1.000 1.000
v 166.0 -113.0 -104.0 1.000 1.000 1.000
v 138.0 -111.0 60.0 1.000 1.000 1.000
v 91.0 127.0 96.0 1.000 1.000 1.000
v 91.0 127.0 96.0 1.000 1.000 1.000
v 91.0 127.0 96.0 1.000 1.000 1.000
v 93.0 121.0 -60.0 1.000 1.000 1.000
v -88.0 126.0 96.0 1.000 1.000 1.000
v 166.0 -113.0 -104.0 1.000 1.000 1.000
v 138.0 -111.0 60.0 1.000 1.000 1.000
v -137.0 -112.0 60.0 1.000 1.000 1.000
vt 1.0010 0.0205
vt 0.9785 1.0117
vt 0.0254 0.0176
vt 0.0029 0.9971
vt 0.2686 0.9463
vt 0.7920 1.0039
vt 0.0859 0.2939
vt 0.8174 0.2588
vt -0.1113 0.4180
vt 0.7285 0.0693
vt 0.3711 1.0186
vt 1.0576 0.8604
vt 1.0000 -0.0137
vt 1.0068 0.9180
vt 0.2314 0.1221
vt 0.0029 0.9502
vt 0.9980 0.3086
vt 0.8486 0.9736
vt 0.0566 0.4023
vt 0.1982 0.9834
vt 0.3711 0.6489
vt 0.3945 0.6465
vt 0.5176 0.9458
vt 0.8613 0.9253
vt 0.8652 0.9390
vt 0.8848 0.6021
vt 0.8281 0.6274
vt 0.5215 0.9580
vt 0.6484 0.5537
vt 0.4473 0.5571
vt 0.8711 0.5073
vt 0.7930 0.5415
vt 0.8672 0.5386
vt 0.7129 0.5410
vt 0.4277 0.5654
vt 0.4141 0.5591
vt 0.4453 1.0103
vt 0.9590 0.5361
vt 0.4648 0.5430
vt 0.4531 0.5371
vt 0.4473 1.0190
vt 1.0234 0.5278
vt 0.8184 0.9927
vt 0.8203 1.0029
vt 0.4062 0.2139
vt 0.3691 0.4043
vt 0.3379 0.4038
vt 0.3477 0.2378
vt 0.7227 0.0693
vt 0.7520 0.0513
vt 0.8477 0.0928
vt 0.8301 0.3823
vt 0.8594 0.3359
vt 0.7695 0.0591
vt 0.3672 0.2139
vt 0.3457 0.2100
vt 0.3789 0.0996
vt 0.3906 0.0254
vt 0.3867 0.0322
vt 0.3750 0.0889
vt 0.4629 0.0156
vt 0.5176 -0.0352
vt 0.9570 0.0352
vt 1.0332 0.0186
vt 0.0049 0.0176
vt 1.0029 1.0049
vt 1.0088 0.0059
vt -0.0010 1.0059
vt 0.8213 0.2344
vt 0.2529 1.1201
vt 0.7988 0.8867
vt 0.0264 0.4512
vt 0.2920 1.0186
vt 0.8281 -0.0322
vt 0.1074 0.3887
vt 0.8340 0.8291
vt 0.1660 0.1650
vt 1.0020 0.9756
vt 0.9121 0.0371
vt 0.0078 0.9541
vt 1.0186 0.3262
vt 0.1934 1.0342
vt 0.0947 0.3350
vt 0.8379 0.9482
vt 0.5039 0.9194
vt 0.4336 0.6182
vt 0.4121 0.6211
vt 0.8066 0.9150
vt 0.8809 0.5977
vt 0.8125 0.9287
vt 0.5137 0.9375
vt 0.8340 0.6191
vt 0.8125 0.5342
vt 0.8594 0.5034
vt 0.7637 0.5366
vt 0.4844 0.5327
vt 0.4707 0.5425
vt 0.4629 0.5342
vt 0.6641 0.5298
vt 0.6719 0.5342
vt 0.4375 0.5298
vt 0.9590 0.5513
vt 0.5781 0.9673
vt 0.5957 0.9829
vt 0.4238 0.5244
vt 1.0117 0.9658
vt 1.0234 0.5474
vt 1.0215 0.9761
vt 0.4277 0.3813
vt 0.4492 0.3838
vt 0.4551 0.2036
vt 0.4629 0.2246
vt 0.7852 0.0669
vt 0.8340 0.3784
vt 0.8711 0.3350
vt 0.8789 0.1055
vt 0.8164 0.0659
vt 0.8008 0.0591
vt 0.4766 0.0210
vt 0.4668 0.0156
vt 0.4434 0.0811
vt 0.4414 0.1948
vt 0.4004 0.1958
vt 0.4609 0.0713
vt 0.9277 0.0698
vt 0.3262 0.0210
vt 0.3906 -0.0239
vt 1.0137 0.0586
vt 0.6836 0.7246
vt 0.7637 0.9761
vt 0.8799 0.4399
vt 0.2012 0.0303
vt 0.9434 0.0063
vt 0.5879 0.0127
vt 0.3789 0.9390
vt 0.5566 0.9824
vt 0.3193 0.4619
vt 0.2334 0.2734
vt 0.9404 0.9214
vt 0.9189 0.2573
vt 0.6826 0.9800
vt 0.5469 0.2661
vt 0.5439 0.7266
vt 0.5537 0.5435
vt 0.5498 0.7139
vt 0.6738 0.7119
vt 0.6211 0.5400
vt 0.3682 0.8945
vt 0.9570 0.3955
vt 1.0186 0.3096
vt 0.5879 0.0425
vt 0.4375 0.1460
vt 0.5254 0.2778
vt 0.0918 0.0122
vt -0.1543 0.0908
vt -0.1709 0.6919
vt 0.0977 0.4033
vt -0.2715 0.3335
vt 0.1172 0.6670
vt 0.4648 0.9272
vt 0.5352 0.9775
vt 0.3262 0.9683
vt -0.1094 0.7324
vt 0.1309 0.6914
vt 0.2578 0.8735
vt 0.3789 0.2925
vt 0.2383 0.1465
vt 0.3682 0.0518
vt 0.0791 0.6748
vt -0.0244 0.4131
vt -0.3955 0.0967
vt -0.1641 0.0205
vt -0.4395 0.3345
vt 0.9492 0.6460
vt 0.7441 0.2183
vt 0.6328 0.6421
vt -0.2139 0.6968
vt 1.0020 0.2236
vt 0.8457 -0.0728
vt 0.5312 0.9385
vt 0.4014 0.9814
vt 0.9951 0.6909
vt 0.6387 0.6938
vt -0.1416 0.7437
vt 0.1055 0.7075
vt 0.2988 0.8857
vt 0.3701 0.9341
vt 0.9629 0.9136
vt 0.9766 0.1196
vt 0.1221 0.1504
vt 0.4727 0.1392
vt -0.0615 0.1201
vt -0.0547 0.7075
vt 0.5020 0.9482
vt 1.0234 0.2168
vt -0.0527 0.1885
vt 0.0254 0.1963
vt 0.9404 0.2207
vt 0.6504 0.7090
vt 0.9619 0.6899
vt 0.9932 0.0239
vt 0.6094 0.0513
vt 1.5156 0.8809
vt 0.8281 0.7158
vt 0.6992 0.2153
vt 1.3145 0.1904
vt 0.2588 0.6201
vt 0.6826 0.6152
vt 0.6904 0.7979
vt 0.2637 0.7998
vt 0.5254 1.1006
vt 0.5156 0.4541
vt 0.1602 0.1025
vt 0.7949 0.1934
vt 0.9775 0.7812
vt 0.8926 0.7891
vt 0.9287 0.0859
vt 0.0850 0.8125
vt 0.2744 0.2061
vt 0.1436 0.8154
vt 0.5674 0.8115
vt 0.2285 0.6528
vt 0.3301 0.5186
vt 0.0732 0.4526
vt 0.2959 0.1196
vt 0.5225 0.4609
vt 0.5107 0.0928
vt 0.8867 0.4541
vt 0.9541 0.3047
vt 0.8291 0.4355
vt 0.6855 0.4844
vt 0.6621 0.5186
vt 0.3486 0.4834
vt 0.7549 0.6514
vt 0.5029 -0.0010
vt 0.0234 0.0815
vt 0.0283 0.0742
vt 0.4844 0.6475
vt 0.4014 0.0552
vt 0.0322 0.0659
vt 0.3975 0.0635
vt 0.8740 0.6367
vt 0.1504 0.4370
vt 0.0410 0.3110
vt 0.1328 0.6323
vt 0.7402 0.1196
vt 0.9648 0.3105
vt 0.9668 0.0698
vt 0.9648 0.0781
vt 0.5059 0.0000
vt 0.0439 0.1548
vt 0.6230 0.0552
vt 0.9648 0.1587
vt 0.9668 0.0605
vt 0.6230 0.0645
vt 0.0654 0.3120
vt 0.8633 0.3457
vt 0.9756 0.1582
vt 0.4834 0.0371
vt 0.4873 0.6758
vt 0.8770 0.7041
vt 0.4834 0.3457
vt 0.0518 0.3311
vt 0.9824 0.0820
vt 0.9443 0.3477
vt 0.0000 0.3457
vt 0.0986 0.7080
vt 0.0010 0.1602
vt 0.5020 0.0049
vt 0.5078 0.0527
vt 1.0068 0.0977
vt 0.4404 0.0508
vt 0.4375 0.0029
vt -0.0469 0.0723
vt -0.0029 0.0762
vt 0.2627 0.8164
vt 0.2285 0.7935
vt 0.4014 0.8374
vt 0.3037 0.8232
vt 0.6074 0.8320
vt 0.5088 0.8442
vt 0.7637 0.8164
vt 0.7021 0.8232
vt 0.7891 0.7939
vt 0.3926 0.8691
vt 0.1895 0.8828
vt 0.5889 0.8711
vt 0.7783 0.8828
vt 0.9150 0.1333
vt 0.0254 0.0469
vt 0.0713 0.1216
vt 0.2090 0.8276
vt 0.7793 0.8398
vt 0.9619 0.0630
vt 0.1865 0.8364
vt 0.7861 0.8477
vt 0.9619 0.0635
vt 0.1865 0.8369
vt -0.0286 0.9619
vt -0.0033 0.9609
vt 0.7559 0.9541
vt 0.2767 0.3574
vt 0.0918 0.2451
vt 0.7122 0.7861
vt 0.0938 0.1895
vt 0.7461 0.7109
vt 0.2826 0.3037
vt 0.8652 0.5684
vt 0.6250 0.9902
vt 0.6934 0.9688
vt 0.4707 0.5835
vt 0.3027 0.9990
vt 0.0664 0.5649
vt 0.3320 0.9780
vt 0.5039 0.5947
vt 0.2871 0.4497
vt 0.1777 0.4395
vt 0.3926 0.4370
vt 0.5254 0.4375
vt 0.7949 0.4399
vt 0.8125 0.4429
vt 0.6719 0.4468
vt 0.4707 0.4478
vt 0.7656 1.0049
vt 0.5625 0.4697
vt 0.4609 1.0137
vt 0.1719 0.4585
vt 0.4668 0.4629
vt 0.4766 0.9941
vt 0.8145 0.4648
vt 0.8145 0.9863
vt 0.2930 0.9771
vt 0.4746 0.9922
vt 0.5098 0.6465
vt 0.2783 0.8726
vt 0.3945 0.6240
vt 0.3076 0.4185
vt 0.0547 0.9033
vt 0.1133 0.3203
vt 0.0176 0.0547
vt 0.5273 0.0439
vt 0.5586 0.0874
vt 0.9707 0.0957
vt 0.9316 0.0171
vt 0.6660 0.0156
vt 0.5312 0.0156
vt 0.0156 0.0132
vt 0.7669 0.9961
vt 0.0430 1.0068
vt 0.0189 1.0068
vt 0.7676 0.9961
vt 0.1406 0.2061
vt 0.2956 0.3633
vt 0.7285 0.8125
vt 0.1354 0.1445
vt 0.7630 0.7295
vt 0.3203 0.3066
vt 0.6465 0.5962
vt 0.1777 0.5649
vt 0.5527 0.9731
vt 0.8223 0.9907
vt 0.6035 0.5830
vt 0.9531 0.5669
vt 0.9121 0.9629
vt 0.5176 1.0005
vt 0.8145 0.9883
vt 0.5098 0.9976
vt 0.5957 0.5806
vt 0.7461 0.4463
vt 0.8750 0.4438
vt 0.8867 0.4409
vt 0.6250 0.4385
vt 0.5098 0.4375
vt 0.2969 0.4409
vt 0.3691 0.4502
vt 0.4863 0.4478
vt 0.3672 1.0322
vt 0.5820 0.4761
vt 0.7441 1.0195
vt 0.3887 1.0117
vt 0.4707 0.4766
vt 0.1250 0.4790
vt 0.8730 0.4741
vt 0.8145 0.9990
vt 0.5332 0.9893
vt 0.7842 0.9756
vt 0.6191 0.6245
vt 0.7852 0.8750
vt 0.7188 0.4194
vt 0.9697 0.9028
vt 0.9248 0.3154
vt 0.4492 0.0889
vt 0.0605 0.0591
vt 0.4473 0.0474
vt 0.9766 0.0942
vt 0.7539 0.0127
vt 1.0645 0.0107
vt 0.5996 0.0142
vt 0.0215 0.0181
vt 0.2002 0.0327
vt 0.2832 0.1162
vt 0.5195 0.0112
vt 0.8438 0.0273
vt 0.7305 0.1138
vt 0.5059 0.6235
vt 0.5117 0.3232
vt 0.5186 0.1616
vt 0.2549 0.9541
vt 0.1602 0.8916
vt 0.8701 0.8896
vt 0.7480 0.9536
vt 0.5166 0.9883
vt 0.4824 0.9756
vt 0.1055 0.9893
vt 0.8506 0.9932
vt 0.2676 0.0449
vt 0.1416 0.6714
vt 0.8350 0.6621
vt 0.0605 0.6733
vt 0.2500 0.0596
vt 0.7256 0.0527
vt 0.9072 0.6650
vt 0.7207 0.0381
vn -0.577 -0.577 -0.577
vn -0.577 -0.577 -0.577
vn -0.577 -0.577 -0.577
vn -0.577 -0.577 -0.577
vn -0.577 -0.577 -0.577
vn -0.577 -0.577 -0.577
vn -0.577 -0.577 -0.577
vn -0.577 -0.577 -0.577
vn -0.577 -0.577 -0.577
vn -0.577 -0.577 -0.577
vn -0.577 -0.577 -0.577
vn -0.577 -0.577 -0.577
vn -0.577 -0.577 -0.577
vn -0.577 -0.577 -0.577
vn -0.577 -0.577 -0.577
vn -0.577 -0.577 -0.577
vn -0.577 -0.577 -0.577
vn -0.577 -0.577 -0.577
vn -0.577 -0.577 -0.577
vn -0.577 -0.577 -0.577
vn -0.577 -0.577 -0.577
vn -0.577 -0.577 -0.577
vn -0.577 -0.577 -0.577
vn -0.577 -0.577 -0.577
vn -0.577 -0.577 -0.577
vn -0.577 -0.577 -0.577
vn -0.577 -0.577 -0.577
vn -0.577 -0.577 -0.577
vn -0.577 -0.577 -0.577
vn -0.577 -0.577 -0.577
vn -0.577 -0.577 -0.577
vn -0.577 -0.577 -0.577
vn -0.577 -0.577 -0.577
vn -0.577 -0.577 -0.577
vn -0.577 -0.577 -0.577
vn -0.577 -0.577 -0.577
vn -0.577 -0.577 -0.577
vn -0.577 -0.577 -0.577
vn -0.577 -0.577 -0.577
vn -0.577 -0.577 -0.577
vn 0.577 0.577 0.577
vn -0.577 -0.577 -0.577
vn -0.577 -0.577 -0.577
vn -0.577 -0.577 -0.577
vn 0.577 0.577 0.577
vn -0.577 -0.577 -0.577
vn 0.577 0.577 0.577
vn 0.577 0.577 0.577
vn -0.577 -0.577 -0.577
vn -0.577 -0.577 -0.577
vn -0.577 -0.577 -0.577
vn -0.577 -0.577 -0.577
vn -0.577 -0.577 -0.577
vn -0.577 -0.577 -0.577
vn -0.577 -0.577 -0.577
vn -0.577 -0.577 -0.577
vn -0.577 -0.577 -0.577
vn -0.577 -0.577 -0.577
vn -0.577 -0.577 -0.577
vn -0.577 -0.577 -0.577
vn -0.577 -0.577 -0.577
vn -0.577 -0.577 -0.577
vn -0.577 -0.577 -0.577
vn -0.577 -0.577 -0.577
vn -0.577 -0.577 -0.577
vn -0.577 -0.577 -0.577
vn -0.577 -0.577 -0.577
vn -0.577 -0.577 -0.577
vn -0.577 -0.577 -0.577
vn -0.577 -0.577 -0.577
vn -0.577 -0.577 -0.577
vn -0.577 -0.577 -0.577
vn -0.577 -0.577 -0.577
vn -0.577 -0.577 -0.577
vn -0.577 -0.577 -0.577
vn -0.577 -0.577 -0.577
vn -0.577 -0.577 -0.577
vn -0.577 -0.577 -0.577
vn -0.577 -0.577 -0.577
vn -0.577 -0.577 -0.577
vn -0.577 -0.577 -0.577
vn -0.577 -0.577 -0.577
vn -0.577 -0.577 -0.577
vn -0.577 -0.577 -0.577
vn -0.577 -0.577 -0.577
vn -0.577 -0.577 -0.577
vn -0.577 -0.577 -0.577
vn -0.577 -0.577 -0.577
vn -0.577 -0.577 -0.577
vn -0.577 -0.577 -0.577
vn -0.577 -0.577 -0.577
vn -0.577 -0.577 -0.577
vn -0.577 -0.577 -0.577
vn -0.577 -0.577 -0.577
vn -0.577 -0.577 -0.577
vn -0.577 -0.577 -0.577
vn -0.577 -0.577 -0.577
vn -0.577 -0.577 -0.577
vn -0.577 -0.577 -0.577
vn -0.577 -0.577 -0.577
vn -0.577 -0.577 -0.577
vn -0.577 -0.577 -0.577
vn -0.577 -0.577 -0.577
vn -0.577 -0.577 -0.577
vn -0.577 -0.577 -0.577
vn -0.577 -0.577 -0.577
vn -0.577 -0.577 -0.577
vn -0.577 -0.577 -0.577
vn -0.577 -0.577 -0.577
vn -0.577 -0.577 -0.577
vn -0.577 -0.577 -0.577
vn -0.577 -0.577 -0.577
vn -0.577 -0.577 -0.577
vn -0.577 -0.577 -0.577
vn -0.577 -0.577 -0.577
vn -0.577 -0.577 -0.577
vn -0.577 -0.577 -0.577
vn -0.577 -0.577 -0.577
vn -0.577 -0.577 -0.577
vn -0.577 -0.577 -0.577
vn -0.577 -0.577 -0.577
vn -0.577 -0.577 -0.577
vn -0.577 -0.577 -0.577
vn -0.577 -0.577 -0.577
vn -0.577 -0.577 -0.577
vn -0.577 -0.577 -0.577
vn -0.577 -0.577 -0.577
vn -0.577 -0.577 -0.577
vn -0.577 -0.577 -0.577
vn -0.577 -0.577 -0.577
vn -0.577 -0.577 -0.577
vn -0.577 -0.577 -0.577
vn -0.577 -0.577 -0.577
vn 0.577 0.577 0.577
vn 0.577 0.577 0.577
vn -0.577 -0.577 -0.577
vn 0.577 0.577 0.577
vn -0.577 -0.577 -0.577
vn 0.577 0.577 0.577
vn -0.577 -0.577 -0.577
vn -0.577 -0.577 -0.577
vn -0.577 -0.577 -0.577
vn -0.577 -0.577 -0.577
vn -0.577 -0.577 -0.577
vn -0.577 -0.577 -0.577
vn -0.577 -0.577 -0.577
vn -0.577 -0.577 -0.577
vn -0.577 -0.577 -0.577
vn -0.577 -0.577 -0.577
vn -0.577 -0.577 -0.577
vn -0.577 -0.577 -0.577
vn -0.577 -0.577 -0.577
vn -0.577 -0.577 -0.577
vn -0.577 -0.577 -0.577
vn -0.577 -0.577 -0.577
vn -0.577 -0.577 -0.577
vn -0.577 -0.577 -0.577
vn -0.577 -0.577 -0.577
vn -0.577 -0.577 -0.577
vn -0.577 -0.577 -0.577
vn -0.577 -0.577 -0.577
vn -0.577 -0.577 -0.577
vn -0.577 -0.577 -0.577
vn -0.577 -0.577 -0.577
vn -0.577 -0.577 -0.577
vn -0.577 -0.577 -0.577
vn -0.577 -0.577 -0.577
vn -0.577 -0.577 -0.577
vn -0.577 -0.577 -0.577
vn -0.577 -0.577 -0.577
vn -0.577 -0.577 -0.577
vn -0.577 -0.577 -0.577
vn -0.577 -0.577 -0.577
vn -0.577 -0.577 -0.577
vn -0.577 -0.577 -0.577
vn -0.577 -0.577 -0.577
vn -0.577 -0.577 -0.577
vn -0.577 -0.577 -0.577
vn -0.577 -0.577 -0.577
vn -0.577 -0.577 -0.577
vn -0.577 -0.577 -0.577
vn -0.577 -0.577 -0.577
vn -0.577 -0.577 -0.577
vn -0.577 -0.577 -0.577
vn -0.577 -0.577 -0.577
vn -0.577 -0.577 -0.577
vn -0.577 -0.577 -0.577
vn -0.577 -0.577 -0.577
vn -0.577 -0.577 -0.577
vn -0.577 -0.577 -0.577
vn -0.577 -0.577 -0.577
vn -0.577 -0.577 -0.577
vn -0.577 -0.577 -0.577
vn -0.577 -0.577 -0.577
vn -0.577 -0.577 -0.577
vn -0.577 -0.577 -0.577
vn -0.577 -0.577 -0.577
vn -0.577 -0.577 -0.577
vn -0.577 -0.577 -0.577
vn -0.577 -0.577 -0.577
vn -0.577 -0.577 -0.577
vn -0.577 -0.577 -0.577
vn -0.577 -0.577 -0.577
vn -0.577 -0.577 -0.577
vn -0.577 -0.577 -0.577
vn -0.577 -0.577 -0.577
vn -0.577 -0.577 -0.577
vn -0.577 -0.577 -0.577
vn -0.577 -0.577 -0.577
vn -0.577 -0.577 -0.577
vn -0.577 -0.577 -0.577
vn -0.577 -0.577 -0.577
vn -0.577 -0.577 -0.577
vn -0.577 -0.577 -0.577
vn -0.577 -0.577 -0.577
vn -0.577 -0.577 -0.577
vn -0.577 -0.577 -0.577
vn -0.577 -0.577 -0.577
vn -0.577 -0.577 -0.577
vn 0.577 0.577 0.577
vn -0.577 -0.577 -0.577
vn -0.577 -0.577 -0.577
vn -0.577 -0.577 -0.577
vn -0.577 -0.577 -0.577
vn -0.577 -0.577 -0.577
vn -0.577 -0.577 -0.577
vn -0.577 -0.577 -0.577
vn -0.577 -0.577 -0.577
vn -0.577 -0.577 -0.577
vn -0.577 -0.577 -0.577
vn -0.577 -0.577 -0.577
vn -0.577 -0.577 -0.577
vn -0.577 -0.577 -0.577
vn -0.577 -0.577 -0.577
vn -0.577 -0.577 -0.577
vn -0.577 -0.577 -0.577
vn -0.577 -0.577 -0.577
vn -0.577 -0.577 -0.577
vn -0.577 -0.577 -0.577
vn -0.577 -0.577 -0.577
vn -0.577 -0.577 -0.577
vn -0.577 -0.577 -0.577
vn -0.577 -0.577 -0.577
vn -0.577 -0.577 -0.577
vn -0.577 -0.577 -0.577
vn -0.577 -0.577 -0.577
vn -0.577 -0.577 -0.577
vn -0.577 -0.577 -0.577
vn -0.577 -0.577 -0.577
vn -0.577 -0.577 -0.577
vn -0.577 -0.577 -0.577
vn -0.577 -0.577 -0.577
vn -0.577 -0.577 -0.577
vn -0.577 -0.577 -0.577
vn -0.577 -0.577 -0.577
vn -0.577 -0.577 -0.577
vn -0.577 -0.577 -0.577
vn -0.577 -0.577 -0.577
vn -0.577 -0.577 -0.577
vn -0.577 -0.577 -0.577
vn -0.577 -0.577 -0.577
vn -0.577 -0.577 -0.577
vn -0.577 -0.577 -0.577
vn -0.577 -0.577 -0.577
vn -0.577 -0.577 -0.577
vn -0.577 -0.577 -0.577
vn -0.577 -0.577 -0.577
vn -0.577 -0.577 -0.577
vn -0.577 -0.577 -0.577
vn -0.577 -0.577 -0.577
vn -0.577 -0.577 -0.577
vn -0.577 -0.577 -0.577
vn -0.577 -0.577 -0.577
vn -0.577 -0.577 -0.577
vn -0.577 -0.577 -0.577
vn -0.577 -0.577 -0.577
vn 0.577 0.577 0.577
vn 0.577 0.577 0.577
vn 0.577 0.577 0.577
vn -0.577 -0.577 -0.577
vn 0.577 0.577 0.577
vn 0.577 0.577 0.577
vn 0.577 0.577 0.577
vn 0.577 0.577 0.577
vn 0.577 0.577 0.577
vn 0.577 0.577 0.577
vn 0.577 0.577 0.577
vn -0.577 -0.577 -0.577
vn 0.577 0.577 0.577
vn -0.577 -0.577 -0.577
vn -0.577 -0.577 -0.577
vn -0.577 -0.577 -0.577
vn 0.577 0.577 0.577
vn -0.577 -0.577 -0.577
vn -0.577 -0.577 -0.577
vn -0.577 -0.577 -0.577
vn -0.577 -0.577 -0.577
vn 0.577 0.577 0.577
vn -0.577 -0.577 -0.577
vn -0.577 -0.577 -0.577
vn 0.577 0.577 0.577
vn -0.577 -0.577 -0.577
vn -0.577 -0.577 -0.577
vn -0.577 -0.577 -0.577
vn -0.577 -0.577 -0.577
vn 0.577 0.577 0.577
vn -0.577 -0.577 -0.577
vn -0.577 -0.577 -0.577
vn -0.577 -0.577 -0.577
vn -0.577 -0.577 -0.577
vn 0.577 0.577 0.577
vn -0.577 -0.577 -0.577
vn -0.577 -0.577 -0.577
vn -0.577 -0.577 -0.577
vn -0.577 -0.577 -0.577
vn 0.577 0.577 0.577
vn -0.577 -0.577 -0.577
vn -0.577 -0.577 -0.577
vn -0.577 -0.577 -0.577
vn -0.577 -0.577 -0.577
vn -0.577 -0.577 -0.577
vn -0.577 -0.577 -0.577
vn -0.577 -0.577 -0.577
vn 0.577 0.577 0.577
vn -0.577 -0.577 -0.577
vn -0.577 -0.577 -0.577
vn 0.577 0.577 0.577
vn -0.577 -0.577 -0.577
vn -0.577 -0.577 -0.577
vn -0.577 -0.577 -0.577
vn 0.577 0.577 0.577
vn -0.577 -0.577 -0.577
vn -0.577 -0.577 -0.577
vn -0.577 -0.577 -0.577
vn 0.577 0.577 0.577
vn -0.577 -0.577 -0.577
vn 0.577 0.577 0.577
vn -0.577 -0.577 -0.577
vn -0.577 -0.577 -0.577
vn -0.577 -0.577 -0.577
vn -0.577 -0.577 -0.577
vn 0.577 0.577 0.577
vn -0.577 -0.577 -0.577
vn -0.577 -0.577 -0.577
vn -0.577 -0.577 -0.577
vn -0.577 -0.577 -0.577
vn -0.577 -0.577 -0.577
vn 0.577 0.577 0.577
vn -0.577 -0.577 -0.577
vn 0.577 0.577 0.577
vn 0.577 0.577 0.577
vn -0.577 -0.577 -0.577
vn 0.577 0.577 0.577
vn -0.577 -0.577 -0.577
vn -0.577 -0.577 -0.577
vn -0.577 -0.577 -0.577
vn -0.577 -0.577 -0.577
vn -0.577 -0.577 -0.577
vn -0.577 -0.577 -0.577
vn -0.577 -0.577 -0.577
vn -0.577 -0.577 -0.577
vn 0.577 0.577 0.577
vn 0.577 0.577 0.577
vn -0.577 -0.577 -0.577
vn -0.577 -0.577 -0.577
vn -0.577 -0.577 -0.577
vn -0.577 -0.577 -0.577
vn -0.577 -0.577 -0.577
vn 0.577 0.577 0.577
vn -0.577 -0.577 -0.577
vn 0.577 0.577 0.577
vn 0.577 0.577 0.577
vn -0.577 -0.577 -0.577
vn -0.577 -0.577 -0.577
vn -0.577 -0.577 -0.577
vn -0.577 -0.577 -0.577
vn 0.577 0.577 0.577
vn -0.577 -0.577 -0.577
vn -0.577 -0.577 -0.577
vn -0.577 -0.577 -0.577
vn 0.577 0.577 0.577
vn -0.577 -0.577 -0.577
vn 0.577 0.577 0.577
vn -0.577 -0.577 -0.577
vn -0.577 -0.577 -0.577
vn -0.577 -0.577 -0.577
vn -0.577 -0.577 -0.577
vn -0.577 -0.577 -0.577
vn 0.577 0.577 0.577
vn -0.577 -0.577 -0.577
vn 0.577 0.577 0.577
vn 0.577 0.577 0.577
vn -0.577 -0.577 -0.577
vn 0.577 0.577 0.577
vn 0.577 0.577 0.577
vn -0.577 -0.577 -0.577
vn -0.577 -0.577 -0.577
vn -0.577 -0.577 -0.577
vn -0.577 -0.577 -0.577
vn 0.577 0.577 0.577
vn -0.577 -0.577 -0.577
vn -0.577 -0.577 -0.577
vn 0.577 0.577 0.577
vn -0.577 -0.577 -0.577
vn 0.577 0.577 0.577
vn 0.577 0.577 0.577
vn -0.577 -0.577 -0.577
vn -0.577 -0.577 -0.577
vn -0.577 -0.577 -0.577
vn -0.577 -0.577 -0.577
vn 0.577 0.577 0.577
vn -0.577 -0.577 -0.577
vn 0.577 0.577 0.577
vn 0.577 0.577 0.577
vn -0.577 -0.577 -0.577
vn -0.577 -0.577 -0.577
vn -0.577 -0.577 -0.577
vn 0.577 0.577 0.577
vn -0.577 -0.577 -0.577
vn 0.577 0.577 0.577
vn -0.577 -0.577 -0.577
vn 0.577 0.577 0.577
vn 0.577 0.577 0.577
vn -0.577 -0.577 -0.577
vn 0.577 0.577 0.577
vn -0.577 -0.577 -0.577
vn -0.577 -0.577 -0.577
vn -0.577 -0.577 -0.577
vn -0.577 -0.577 -0.577
vn -0.577 -0.577 -0.577
vn -0.577 -0.577 -0.577
vn -0.577 -0.577 -0.577
vn -0.577 -0.577 -0.577
vn -0.577 -0.577 -0.577
vn -0.577 -0.577 -0.577
vn -0.577 -0.577 -0.577
vn -0.577 -0.577 -0.577
vn -0.577 -0.577 -0.577
vn -0.577 -0.577 -0.577
vn -0.577 -0.577 -0.577
vn -0.577 -0.577 -0.577
vn -0.577 -0.577 -0.577
vn -0.577 -0.577 -0.577
vn -0.469 0.805 -0.363
vn -0.744 -0.631 -0.220
vn -0.691 0.723 0.004
vn -0.359 -0.910 0.209
vn -0.577 -0.577 -0.577
vn -0.577 -0.577 -0.577
vn 0.863 0.370 0.344
vn -0.577 -0.577 -0.577
vn -0.577 -0.577 -0.577
vn -0.577 -0.577 -0.577
vn -0.577 -0.577 -0.577
vn -0.577 -0.577 -0.577
vn -0.577 -0.577 -0.577
vn -0.577 -0.577 -0.577
vn -0.577 -0.577 -0.577
vn -0.577 -0.577 -0.577
vn -0.577 -0.577 -0.577
vn -0.577 -0.577 -0.577
vn -0.577 -0.577 -0.577
vn -0.577 -0.577 -0.577
vn -0.577 -0.577 -0.577
vn -0.577 -0.577 -0.577
vn 0.577 0.577 0.577
vn 0.577 0.577 0.577
vn -0.577 -0.577 -0.577
vn -0.577 -0.577 -0.577
vn -0.577 -0.577 -0.577
vn -0.577 -0.577 -0.577
vn -0.577 -0.577 -0.577
vn -0.577 -0.577 -0.577
vn -0.577 -0.577 -0.577
vn -0.577 -0.577 -0.577
vn -0.577 -0.577 -0.577
vn 0.577 0.577 0.577
vn -0.577 -0.577 -0.577
vn -0.577 -0.577 -0.577
vn -0.577 -0.577 -0.577
vn -0.577 -0.577 -0.577
vn -0.577 -0.577 -0.577
vn -0.577 -0.577 -0.577
vn 0.577 0.577 0.577
vn -0.577 -0.577 -0.577
vn -0.577 -0.577 -0.577
vn -0.577 -0.577 -0.577
vn -0.577 -0.577 -0.577
vn 0.577 0.577 0.577
vn -0.577 -0.577 -0.577
vn -0.577 -0.577 -0.577
vn -0.577 -0.577 -0.577
vn -0.577 -0.577 -0.577
vn -0.577 -0.577 -0.577
vn 0.577 0.577 0.577
vn -0.577 -0.577 -0.577
vn -0.577 -0.577 -0.577
vn -0.577 -0.577 -0.577
vn -0.577 -0.577 -0.577
vn -0.577 -0.577 -0.577
vn -0.577 -0.577 -0.577
vn 0.577 0.577 0.577
vn 0.577 0.577 0.577
vn -0.577 -0.577 -0.577
vn -0.577 -0.577 -0.577
vn -0.577 -0.577 -0.577
vn -0.577 -0.577 -0.577
vn -0.577 -0.577 -0.577
vn -0.577 -0.577 -0.577
vn 0.577 0.577 0.577
vn 0.577 0.577 0.577
vn -0.577 -0.577 -0.577
vn -0.577 -0.577 -0.577
vn -0.577 -0.577 -0.577
vn -0.577 -0.577 -0.577
vn -0.577 -0.577 -0.577
vn -0.577 -0.577 -0.577
vn 0.696 0.718 0.003
vn 0.750 -0.622 -0.224
vn 0.465 0.807 -0.364
vn 0.384 -0.899 0.211
vn -0.577 -0.577 -0.577
vn -0.577 -0.577 -0.577
vn -0.858 0.413 0.306
vn -0.577 -0.577 -0.577
vn -0.577 -0.577 -0.577
vn -0.577 -0.577 -0.577
vn -0.577 -0.577 -0.577
vn -0.577 -0.577 -0.577
vn -0.577 -0.577 -0.577
vn -0.577 -0.577 -0.577
vn -0.577 -0.577 -0.577
vn -0.577 -0.577 -0.577
vn -0.577 -0.577 -0.577
vn -0.577 -0.577 -0.577
vn -0.577 -0.577 -0.577
vn -0.577 -0.577 -0.577
vn -0.577 -0.577 -0.577
vn -0.577 -0.577 -0.577
vn 0.577 0.577 0.577
vn 0.577 0.577 0.577
vn -0.577 -0.577 -0.577
vn -0.577 -0.577 -0.577
vn -0.577 -0.577 -0.577
vn -0.577 -0.577 -0.577
vn -0.577 -0.577 -0.577
vn -0.577 -0.577 -0.577
vn -0.577 -0.577 -0.577
vn -0.577 -0.577 -0.577
vn -0.577 -0.577 -0.577
vn -0.577 -0.577 -0.577
vn -0.577 -0.577 -0.577
vn -0.577 -0.577 -0.577
vn -0.577 -0.577 -0.577
vn -0.577 -0.577 -0.577
vn 0.577 0.577 0.577
vn -0.577 -0.577 -0.577
vn -0.577 -0.577 -0.577
vn -0.577 -0.577 -0.577
vn -0.577 -0.577 -0.577
vn 0.577 0.577 0.577
vn -0.577 -0.577 -0.577
vn -0.577 -0.577 -0.577
vn -0.577 -0.577 -0.577
vn 0.577 0.577 0.577
vn -0.577 -0.577 -0.577
vn -0.577 -0.577 -0.577
vn -0.577 -0.577 -0.577
vn -0.577 -0.577 -0.577
vn -0.577 -0.577 -0.577
vn -0.577 -0.577 -0.577
vn 0.577 0.577 0.577
vn -0.577 -0.577 -0.577
vn -0.577 -0.577 -0.577
vn -0.577 -0.577 -0.577
vn -0.577 -0.577 -0.577
vn -0.577 -0.577 -0.577
vn -0.577 -0.577 -0.577
vn 0.577 0.577 0.577
vn 0.577 0.577 0.577
vn -0.577 -0.577 -0.577
vn -0.577 -0.577 -0.577
vn -0.577 -0.577 -0.577
vn -0.577 -0.577 -0.577
vn -0.577 -0.577 -0.577
vn 0.577 0.577 0.577
vn 0.577 0.577 0.577
vn -0.577 -0.577 -0.577
vn -0.577 -0.577 -0.577
vn -0.577 -0.577 -0.577
vn -0.577 -0.577 -0.577
vn -0.577 -0.577 -0.577
vn -0.577 -0.577 -0.577
vn -0.577 -0.577 -0.577
vn 0.577 0.577 0.577
vn -0.577 -0.577 -0.577
vn -0.577 -0.577 -0.577
vn -0.577 -0.577 -0.577
vn 0.577 0.577 0.577
vn -0.577 -0.577 -0.577
vn -0.577 -0.577 -0.577
vn 0.577 0.577 0.577
vn 0.577 0.577 0.577
vn -0.577 -0.577 -0.577
vn -0.577 -0.577 -0.577
vn -0.577 -0.577 -0.577
vn -0.577 -0.577 -0.577
vn -0.577 -0.577 -0.577
vn -0.577 -0.577 -0.577
vn -0.577 -0.577 -0.577
vn 0.577 0.577 0.577
vn 0.577 0.577 0.577
vn -0.577 -0.577 -0.577
vn -0.577 -0.577 -0.577
vn 0.577 0.577 0.577
vn 0.577 0.577 0.577
vn 0.577 0.577 0.577
vn -0.577 -0.577 -0.577
vn -0.577 -0.577 -0.577
vn -0.577 -0.577 -0.577
vn -0.577 -0.577 -0.577
vn -0.577 -0.577 -0.577
vn 0.577 0.577 0.577
vn -0.577 -0.577 -0.577
vn 0.577 0.577 0.577
vn 0.577 0.577 0.577
vn -0.577 -0.577 -0.577
vn -0.577 -0.577 -0.577
vn 0.577 0.577 0.577
vn 0.577 0.577 0.577
vn -0.577 -0.577 -0.577
vn -0.577 -0.577 -0.577
vn -0.577 -0.577 -0.577
vn 0.577 0.577 0.577
vn -0.577 -0.577 -0.577
vn -0.577 -0.577 -0.577
vn -0.577 -0.577 -0.577
vn -0.577 -0.577 -0.577
vn -0.577 -0.577 -0.577
vn -0.577 -0.577 -0.577
vn -0.577 -0.577 -0.577
vn -0.577 -0.577 -0.577
vn -0.577 -0.577 -0.577
vn 0.577 0.577 0.577
vn 0.577 0.577 0.577
vn 0.577 0.577 0.577
usemtl tex_1610_lit
f 1/1/1 2/2/2 3/3/3
f 3/3/3 2/2/2 4/4/4
usemtl tex_1614_lit
f 5/5/5 6/6/6 7/7/7
f 7/7/7 6/6/6 8/8/8
usemtl tex_1617_lit
f 9/9/9 10/10/10 11/11/11
f 11/11/11 10/10/10 12/12/12
usemtl tex_1620_lit
f 13/13/13 14/14/14 15/15/15
f 15/15/15 14/14/14 16/16/16
usemtl tex_1623_lit
f 17/17/17 18/18/18 19/19/19
f 19/19/19 18/18/18 20/20/20
usemtl tex_1860_lit
f 21/21/21 22/22/22 25/23/25
f 21/21/21 25/23/25 26/24/26
f 26/24/26 27/25/27 23/26/23
f 24/27/24 27/25/27 28/28/28
f 23/26/23 21/21/21 26/24/26
f 22/22/22 28/28/28 25/23/25
f 27/25/27 24/27/24 23/26/23
f 22/22/22 24/27/24 28/28/28
f 29/29/29 37/22/37 30/30/30
f 38/27/38 37/22/37 29/29/29
f 31/31/31 38/27/38 32/32/32
f 33/33/33 39/26/39 38/27/38
f 34/34/34 39/26/39 33/33/33
f 40/21/40 39/26/39 34/34/34
f 35/35/35 40/21/40 36/36/36
f 37/22/37 40/21/40 35/35/35
f 36/36/36 40/21/40 34/34/34
f 33/33/33 38/27/38 31/31/31
f 32/32/32 38/27/38 29/29/29
f 30/30/30 37/22/37 35/35/35
f 41/37/41 42/38/42 43/39/43
f 43/39/43 44/40/44 45/41/45
f 46/42/46 42/38/42 47/43/47
f 45/41/45 46/42/46 48/44/48
f 45/41/45 44/40/44 46/42/46
f 42/38/42 41/37/41 47/43/47
f 41/37/41 43/39/43 45/41/45
f 46/42/46 47/43/47 48/44/48
f 43/39/43 42/38/42 46/42/46
f 43/39/43 46/42/46 44/40/44
f 49/45/49 50/46/50 51/47/51
f 52/48/52 49/45/49 51/47/51
f 53/49/53 54/50/54 55/51/55
f 56/52/56 53/49/53 54/50/54
f 56/52/56 54/50/54 55/51/55
f 52/48/52 57/53/57 55/51/55
f 56/52/56 55/51/55 57/53/57
f 52/48/52 51/47/51 57/53/57
f 49/45/49 56/52/56 50/46/50
f 56/52/56 49/45/49 53/49/53
f 54/50/54 58/54/58 55/51/55
f 65/48/65 59/55/59 66/45/66
f 60/56/60 59/55/59 65/48/65
f 67/51/67 60/56/60 65/48/65
f 61/57/61 60/56/60 67/51/67
f 68/54/68 61/57/61 67/51/67
f 62/58/62 61/57/61 68/54/68
f 69/50/69 62/58/62 68/54/68
f 63/59/63 62/58/62 69/50/69
f 70/49/70 63/59/63 69/50/69
f 64/60/64 63/59/63 70/49/70
f 66/45/66 64/60/64 70/49/70
f 59/55/59 64/60/64 66/45/66
f 75/30/75 76/35/76 71/46/71
f 77/29/77 75/30/75 71/46/71
f 78/32/78 77/29/77 72/52/72
f 79/31/79 78/32/78 72/52/72
f 80/33/80 79/31/79 73/53/73
f 81/34/81 80/33/80 73/53/73
f 82/36/82 81/34/81 74/47/74
f 76/35/76 82/36/82 74/47/74
f 74/47/74 81/34/81 73/53/73
f 72/52/72 77/29/77 71/46/71
f 71/46/71 76/35/76 74/47/74
f 73/53/73 79/31/79 72/52/72
f 83/61/83 84/62/84 85/39/85
f 86/38/86 87/63/87 85/39/85
f 87/63/87 83/61/83 85/39/85
f 88/64/88 89/42/89 84/62/84
f 84/62/84 89/42/89 90/40/90
f 86/38/86 88/64/88 87/63/87
f 84/62/84 90/40/90 85/39/85
f 88/64/88 86/38/86 89/42/89
f 91/61/91 87/63/87 88/64/88
f 88/64/88 84/62/84 91/61/91
f 90/40/90 89/42/89 86/38/86
f 90/40/90 86/38/86 85/39/85
usemtl tex_1610_lit
f 92/65/92 93/66/93 94/67/94
f 95/68/95 93/66/93 92/65/92
usemtl tex_1614_lit
f 96/69/96 97/70/97 98/71/98
f 99/72/99 97/70/97 96/69/96
usemtl tex_1617_lit
f 100/73/100 101/74/101 102/75/102
f 103/76/103 101/74/101 100/73/100
usemtl tex_1620_lit
f 104/77/104 105/78/105 106/79/106
f 107/80/107 105/78/105 104/77/104
usemtl tex_1623_lit
f 108/81/108 109/82/109 110/83/110
f 111/84/111 109/82/109 108/81/108
usemtl tex_1860_lit
f 116/85/116 112/86/112 113/87/113
f 117/88/117 116/85/116 113/87/113
f 114/89/114 118/90/118 117/88/117
f 119/91/119 118/90/118 115/92/115
f 117/88/117 113/87/113 114/89/114
f 116/85/116 119/91/119 112/86/112
f 114/89/114 115/92/115 118/90/118
f 119/91/119 115/92/115 112/86/112
f 120/93/120 121/94/121 128/89/128
f 121/94/121 122/95/122 129/92/129
f 123/96/123 124/97/124 130/86/130
f 124/97/124 125/98/125 131/87/131
f 126/99/126 120/93/120 128/89/128
f 125/98/125 126/99/126 131/87/131
f 122/95/122 127/100/127 129/92/129
f 127/100/127 123/96/123 130/86/130
f 131/87/131 126/99/126 128/89/128
f 130/86/130 124/97/124 131/87/131
f 129/92/129 127/100/127 130/86/130
f 128/89/128 121/94/121 129/92/129
f 132/101/132 133/102/133 134/103/134
f 135/104/135 136/105/136 132/101/132
f 137/106/137 133/102/133 138/107/138
f 139/108/139 138/107/138 135/104/135
f 138/107/138 136/105/136 135/104/135
f 137/106/137 134/103/134 133/102/133
f 135/104/135 132/101/132 134/103/134
f 139/108/139 137/106/137 138/107/138
f 133/102/133 132/101/132 136/105/136
f 133/102/133 136/105/136 138/107/138
f 140/109/140 141/110/141 142/111/142
usemtl tex_1860_lit_ovl
f 140/109/140 142/111/142 143/112/143
usemtl tex_1860_lit
f 144/113/144 142/111/142 145/114/145
f 145/114/145 146/115/146 147/116/147
f 141/110/141 145/114/145 142/111/142
f 147/116/147 148/117/148 149/118/149
f 146/115/146 140/109/140 143/112/143
f 147/116/147 149/118/149 144/113/144
f 147/116/147 146/115/146 143/112/143
f 145/114/145 147/116/147 149/118/149
f 145/114/145 149/118/149 144/113/144
f 150/119/150 156/118/156 151/120/151
f 151/120/151 156/118/156 157/117/157
f 151/120/151 157/117/157 152/121/152
f 152/121/152 157/117/157 158/116/158
f 152/121/152 158/116/158 153/122/153
f 153/122/153 158/116/158 159/112/159
f 153/122/153 159/112/159 154/123/154
f 154/123/154 159/112/159 160/111/160
f 154/123/154 160/111/160 155/124/155
f 155/124/155 160/111/160 161/113/161
f 155/124/155 161/113/161 150/119/150
f 150/119/150 161/113/161 156/118/156
f 166/100/166 162/110/162 167/96/167
f 163/114/163 162/110/162 166/100/166
f 168/94/168 163/114/163 169/95/169
f 164/115/164 163/114/163 168/94/168
f 170/99/170 164/115/164 171/93/171
f 165/109/165 164/115/164 170/99/170
f 172/97/172 165/109/165 173/98/173
f 162/110/162 165/109/165 172/97/172
f 173/98/173 165/109/165 170/99/170
f 167/96/167 162/110/162 172/97/172
f 169/95/169 163/114/163 166/100/166
f 171/93/171 164/115/164 168/94/168
f 174/125/174 175/126/175 176/127/176
f 176/127/176 177/128/177 174/125/174
f 178/101/178 176/127/176 179/126/179
f 178/101/178 174/125/174 180/102/180
f 178/101/178 179/126/179 174/125/174
f 176/127/176 181/107/181 177/128/177
f 182/105/182 181/107/181 176/127/176
f 174/125/174 177/128/177 180/102/180
f 178/101/178 182/105/182 176/127/176
f 181/107/181 180/102/180 177/128/177
f 181/107/181 182/105/182 178/101/178
f 181/107/181 178/101/178 180/102/180
usemtl tex_1857_lit
f 183/129/183 184/130/184 185/131/185
f 186/132/186 187/133/187 188/134/188
f 189/135/189 190/136/190 191/137/191
f 189/135/189 191/137/191 192/138/192
f 185/131/185 184/130/184 193/139/193
f 185/131/185 193/139/193 194/140/194
f 190/136/190 195/141/195 184/130/184
f 193/139/193 184/130/184 195/141/195
f 186/132/186 192/138/192 196/142/196
f 191/137/191 190/136/190 197/143/197
f 197/143/197 190/136/190 184/130/184
f 197/143/197 184/130/184 183/129/183
f 196/142/196 194/140/194 187/133/187
f 186/132/186 196/142/196 187/133/187
f 198/144/198 199/145/199 200/146/200
f 198/144/198 200/146/200 201/147/201
f 202/143/202 203/129/203 200/146/200
f 198/144/198 201/147/201 204/142/204
f 205/131/205 206/140/206 204/142/204
f 207/137/207 198/144/198 204/142/204
f 208/138/208 207/137/207 204/142/204
f 201/147/201 205/131/205 204/142/204
f 200/146/200 203/129/203 201/147/201
f 201/147/201 203/129/203 205/131/205
f 199/145/199 202/143/202 200/146/200
f 207/137/207 202/143/202 198/144/198
f 198/144/198 202/143/202 199/145/199
usemtl tex_1614_lit
f 209/148/209 210/149/210 211/150/211
usemtl tex_1859_lit
f 212/151/212 213/152/213 214/153/214
f 213/152/213 215/154/215 216/155/216
f 217/156/217 218/157/218 219/158/219
f 220/159/220 221/160/221 214/153/214
f 218/157/218 220/159/220 214/153/214
f 222/161/222 221/160/221 223/162/223
f 218/157/218 214/153/214 213/152/213
f 212/151/212 215/154/215 213/152/213
f 218/157/218 213/152/213 216/155/216
f 218/157/218 216/155/216 219/158/219
f 218/157/218 217/156/217 220/159/220
f 220/159/220 223/162/223 221/160/221
f 224/163/224 225/164/225 220/159/220
f 217/156/217 224/163/224 220/159/220
f 220/159/220 225/164/225 223/162/223
f 225/164/225 226/165/226 223/162/223
usemtl tex_1858_lit
f 227/166/227 228/167/228 229/168/229
f 227/166/227 230/169/230 231/170/231
f 232/171/232 233/172/233 228/167/228
f 234/173/234 232/171/232 231/170/231
f 235/174/235 236/175/236 237/176/237
f 234/173/234 231/170/231 238/177/238
f 227/166/227 231/170/231 228/167/228
f 236/175/236 239/178/239 240/179/240
f 235/174/235 239/178/239 236/175/236
f 241/180/241 242/181/242 230/169/230
f 228/167/228 233/172/233 229/168/229
f 232/171/232 228/167/228 231/170/231
f 238/177/238 231/170/231 230/169/230
f 241/180/241 230/169/230 227/166/227
f 243/182/243 244/174/244 245/176/245
f 245/176/245 246/183/246 243/182/243
f 247/184/247 248/177/248 249/169/249
f 249/169/249 250/185/250 247/184/247
f 251/181/251 252/186/252 249/169/249
usemtl tex_1858_lit_ovl
f 252/186/252 249/169/249 250/185/250
usemtl tex_1857_lit
f 253/187/253 254/188/254 255/189/255
f 253/187/253 255/189/255 256/190/256
usemtl tex_1859_lit
f 257/191/257 258/192/258 259/193/259
f 257/191/257 259/193/259 260/194/260
usemtl tex_1858_lit
f 261/195/261 262/196/262 263/197/263
f 261/195/261 263/197/263 264/198/264
f 265/199/265 266/200/266 267/201/267
f 265/199/265 267/201/267 268/202/268
f 269/203/269 270/204/270 271/205/271
f 269/203/269 271/205/271 272/206/272
usemtl tex_1863_lit
f 273/207/273 274/208/274 275/209/275
f 273/207/273 275/209/275 276/210/276
f 277/211/277 283/212/283 284/213/284
f 285/214/285 278/215/278 279/216/279
f 278/215/278 286/217/286 277/211/277
f 286/217/286 283/212/283 277/211/277
f 280/218/280 277/211/277 284/213/284
f 280/218/280 284/213/284 287/219/287
f 280/218/280 287/219/287 281/220/281
f 287/219/287 282/221/282 281/220/281
f 287/219/287 279/216/279 282/221/282
f 287/219/287 285/214/285 282/221/282
f 285/214/285 279/216/279 282/221/282
f 278/215/278 285/214/285 286/217/286
usemtl tex_1865_lit
f 288/222/288 289/223/289 290/224/290
f 291/225/291 292/226/292 293/227/293
f 294/228/294 295/229/295 296/230/296
f 297/231/297 292/226/292 298/232/298
f 299/233/299 289/223/289 292/226/292
f 294/228/294 298/232/298 300/234/300
f 301/235/301 302/236/302 303/237/303
f 304/222/304 305/238/305 306/223/306
f 307/225/307 308/239/308 309/240/309
f 310/241/310 311/235/311 312/237/312
f 307/225/307 313/233/313 314/226/314
f 315/228/315 316/242/316 317/229/317
f 306/223/306 318/243/318 319/224/319
f 320/243/320 321/244/321 322/224/322
f 323/222/323 322/224/322 324/245/324
f 325/228/325 326/230/326 327/232/327
f 328/226/328 329/231/329 330/246/330
f 331/242/331 332/247/332 333/229/333
f 334/225/334 335/227/335 336/239/336
f 337/232/337 338/238/338 339/234/339
f 340/248/340 341/249/341 342/250/342
f 343/251/343 344/244/344 334/225/334
f 338/238/338 337/232/337 345/226/345
f 346/233/346 347/243/347 348/223/348
f 334/225/334 347/243/347 346/233/346
f 334/225/334 344/244/344 347/243/347
f 349/246/349 350/252/350 351/227/351
f 352/226/352 349/246/349 351/227/351
f 353/223/353 354/238/354 352/226/352
f 355/230/355 356/229/356 349/246/349
f 357/251/357 358/225/358 359/240/359
f 360/228/360 361/234/361 362/242/362
f 363/232/363 355/230/355 364/231/364
f 365/253/365 366/246/366 367/229/367
f 365/253/365 368/254/368 366/246/366
f 368/254/368 369/252/369 366/246/366
f 370/248/370 371/250/371 372/255/372
f 373/231/373 374/230/374 366/246/366
f 375/224/375 376/244/376 377/245/377
f 376/244/376 378/256/378 377/245/377
usemtl tex_1866_lit
f 379/257/379 380/258/380 381/259/381
f 379/257/379 382/260/382 383/261/383
f 384/262/384 381/259/381 385/263/385
f 380/258/380 386/264/386 381/259/381
f 387/265/387 379/257/379 383/261/383
f 385/263/385 388/266/388 389/267/389
f 385/263/385 390/268/390 388/266/388
f 391/269/391 392/270/392 393/271/393
f 387/265/387 380/258/380 379/257/379
f 394/272/394 395/273/395 396/274/396
f 397/262/397 398/263/398 399/260/399
f 398/263/398 400/259/400 401/268/401
f 402/257/402 400/259/400 397/262/397
f 399/260/399 398/263/398 403/267/403
f 399/260/399 402/257/402 397/262/397
f 400/259/400 404/275/404 401/268/401
usemtl tex_1865_lit
f 405/276/405 414/245/414 406/277/406
f 415/222/415 414/245/414 405/276/405
f 407/278/407 415/222/415 408/279/408
f 416/238/416 415/222/415 407/278/407
f 409/280/409 416/238/416 410/281/410
f 417/234/417 416/238/416 409/280/409
f 411/282/411 417/234/417 412/283/412
f 418/242/418 417/234/417 411/282/411
f 413/284/413 418/242/418 411/282/411
f 408/279/408 415/222/415 405/276/405
f 412/283/412 417/234/417 409/280/409
f 410/281/410 416/238/416 407/278/407
usemtl tex_1866_lit
f 419/285/419 423/267/423 420/286/420
f 424/260/424 423/267/423 419/285/419
f 421/287/421 424/260/424 419/285/419
f 425/261/425 424/260/424 421/287/421
f 422/288/422 425/261/425 421/287/421
usemtl tex_1865_lit
f 426/289/426 427/290/427 428/291/428
f 426/289/426 429/292/429 430/293/430
f 427/290/427 426/289/426 431/294/431
f 432/295/432 433/292/433 427/290/427
f 434/296/434 431/294/431 435/293/435
f 426/289/426 436/291/436 429/292/429
f 433/292/433 436/291/436 427/290/427
f 426/289/426 435/293/435 431/294/431
f 432/295/432 437/296/437 438/292/438
f 437/296/437 439/293/439 438/292/438
usemtl tex_1866_lit
f 440/297/440 441/296/441 442/298/442
f 443/290/443 440/297/440 442/298/442
usemtl tex_1864_lit_w10
f 444/299/444 445/300/445 446/301/446
f 446/301/446 445/300/445 447/301/447
f 446/301/446 448/302/448 449/303/449
f 446/301/446 450/304/450 448/302/448
f 445/300/445 449/303/449 451/305/451
f 446/301/446 447/301/447 452/306/452
f 448/302/448 452/306/452 453/307/453
f 445/300/445 444/299/444 449/303/449
f 446/301/446 449/303/449 444/299/444
f 447/301/447 445/300/445 451/305/451
f 453/307/453 452/306/452 447/301/447
f 453/307/453 447/301/447 451/305/451
f 450/304/450 452/306/452 448/302/448
f 450/304/450 446/301/446 452/306/452
usemtl tex_1862_lit
f 454/308/454 458/309/458 459/310/459
f 455/311/455 460/312/460 458/309/458
f 455/311/455 456/313/456 460/312/460
f 456/313/456 461/314/461 460/312/460
f 457/315/457 459/310/459 461/314/461
f 457/315/457 454/308/454 459/310/459
f 454/308/454 455/311/455 458/309/458
f 456/313/456 457/315/457 461/314/461
f 462/316/462 470/313/470 463/317/463
f 463/317/463 470/313/470 471/311/471
f 464/318/464 471/311/471 465/319/465
f 465/319/465 471/311/471 472/308/472
f 466/320/466 472/308/472 467/321/467
f 467/321/467 472/308/472 473/315/473
f 468/322/468 473/315/473 469/323/469
f 469/323/469 473/315/473 470/313/470
f 467/321/467 473/315/473 468/322/468
f 465/319/465 472/308/472 466/320/466
f 463/317/463 471/311/471 464/318/464
f 469/323/469 470/313/470 462/316/462
f 474/324/474 475/325/475 476/326/476
f 477/327/477 478/328/478 479/329/479
f 474/324/474 480/330/480 475/325/475
f 476/326/476 475/325/475 477/327/477
f 479/329/479 478/328/478 481/331/481
f 481/331/481 478/328/478 480/330/480
f 481/331/481 480/330/480 474/324/474
f 476/326/476 477/327/477 479/329/479
f 479/329/479 481/331/481 474/324/474
f 479/329/479 474/324/474 476/326/476
f 478/328/478 477/327/477 482/325/482
f 478/328/478 482/325/482 483/330/483
usemtl tex_1861_lit
f 488/332/488 489/333/489 484/334/484
f 489/333/489 490/335/490 485/336/485
f 488/332/488 484/334/484 486/337/486
f 490/335/490 491/338/491 487/339/487
f 491/338/491 488/332/488 486/337/486
f 487/339/487 491/338/491 486/337/486
f 485/336/485 490/335/490 487/339/487
f 489/333/489 485/336/485 484/334/484
usemtl tex_1862_lit
f 492/340/492 496/316/496 497/317/497
f 492/340/492 497/317/497 498/318/498
f 493/341/493 499/322/499 500/323/500
f 492/340/492 500/323/500 496/316/496
f 494/342/494 501/319/501 495/343/495
f 493/341/493 500/323/500 492/340/492
f 495/343/495 502/321/502 493/341/493
f 494/342/494 498/318/498 501/319/501
f 495/343/495 503/320/503 502/321/502
f 493/341/493 502/321/502 499/322/499
f 495/343/495 501/319/501 503/320/503
f 494/342/494 492/340/492 498/318/498
f 504/325/504 505/344/505 506/345/506
f 507/346/507 505/344/505 508/330/508
f 509/328/509 510/327/510 511/347/511
f 507/346/507 508/330/508 509/328/509
f 510/327/510 504/325/504 506/345/506
f 504/325/504 508/330/508 505/344/505
f 510/327/510 506/345/506 511/347/511
f 507/346/507 509/328/509 511/347/511
f 512/347/512 513/345/513 514/344/514
f 512/347/512 514/344/514 515/346/515
f 516/325/516 510/327/510 509/328/509
f 516/325/516 509/328/509 517/330/517
usemtl tex_1864_lit_w10
f 518/348/518 519/349/519 520/350/520
f 521/351/521 519/349/519 518/348/518
f 522/352/522 523/353/523 524/354/524
f 522/352/522 524/354/524 518/348/518
f 525/355/525 522/352/522 519/349/519
f 526/356/526 521/351/521 518/348/518
f 527/357/527 526/356/526 523/353/523
f 522/352/522 520/350/520 519/349/519
f 520/350/520 522/352/522 518/348/518
f 525/355/525 519/349/519 521/351/521
f 525/355/525 521/351/521 526/356/526
f 525/355/525 526/356/526 527/357/527
f 523/353/523 526/356/526 524/354/524
f 526/356/526 518/348/518 524/354/524
usemtl tex_1862_lit
f 528/358/528 529/359/529 533/360/533
f 534/361/534 530/362/530 531/363/531
f 535/364/535 534/361/534 531/363/531
f 535/364/535 531/363/531 528/358/528
f 536/365/536 533/360/533 529/359/529
f 537/366/537 538/367/538 532/368/532
f 536/365/536 529/359/529 530/362/530
f 535/364/535 528/358/528 533/360/533
f 539/369/539 547/358/547 540/370/540
f 540/370/540 547/358/547 548/363/548
f 541/371/541 548/363/548 542/372/542
f 542/372/542 548/363/548 549/362/549
f 543/373/543 549/362/549 544/374/544
f 544/374/544 549/362/549 550/359/550
f 545/375/545 550/359/550 546/376/546
f 546/376/546 550/359/550 547/358/547
f 542/372/542 549/362/549 543/373/543
f 544/374/544 550/359/550 545/375/545
f 546/376/546 547/358/547 539/369/539
f 540/370/540 548/363/548 541/371/541
f 551/377/551 552/378/552 553/379/553
f 554/380/554 555/381/555 556/382/556
f 552/378/552 557/383/557 553/379/553
f 556/382/556 552/378/552 551/377/551
f 558/384/558 555/381/555 554/380/554
f 557/383/557 555/381/555 558/384/558
f 553/379/553 557/383/557 558/384/558
f 554/380/554 556/382/556 551/377/551
f 551/377/551 553/379/553 558/384/558
f 551/377/551 558/384/558 554/380/554
f 559/383/559 560/378/560 556/382/556
f 559/383/559 556/382/556 555/381/555
usemtl tex_1861_lit
f 561/334/561 565/385/565 566/386/566
f 562/387/562 567/388/567 565/385/565
f 563/389/563 566/386/566 568/390/568
f 561/334/561 566/386/566 563/389/563
f 564/391/564 568/390/568 567/388/567
f 563/389/563 568/390/568 564/391/564
f 564/391/564 567/388/567 562/387/562
f 561/334/561 562/387/562 565/385/565
usemtl tex_1862_lit
f 569/392/569 573/373/573 574/374/574
f 570/393/570 574/374/574 575/375/575
f 570/393/570 575/375/575 576/376/576
f 571/394/571 576/376/576 577/369/577
f 570/393/570 576/376/576 571/394/571
f 569/392/569 574/374/574 570/393/570
f 572/395/572 578/372/578 569/392/569
f 571/394/571 579/370/579 572/395/572
f 571/394/571 577/369/577 579/370/579
f 572/395/572 579/370/579 580/371/580
f 572/395/572 580/371/580 578/372/578
f 569/392/569 578/372/578 573/373/573
f 581/396/581 582/397/582 583/378/583
f 584/383/584 582/397/582 585/398/585
f 586/399/586 587/382/587 588/381/588
f 588/381/588 584/383/584 585/398/585
f 581/396/581 583/378/583 587/382/587
f 582/397/582 584/383/584 583/378/583
f 586/399/586 581/396/581 587/382/587
f 586/399/586 588/381/588 585/398/585
f 589/398/589 590/397/590 591/396/591
f 589/398/589 591/396/591 592/399/592
f 593/383/593 588/381/588 587/382/587
f 593/383/593 587/382/587 594/378/594
usemtl tex_1861_lit
f 595/400/595 596/339/596 597/401/597
f 598/402/598 599/403/599 600/391/600
f 596/339/596 595/400/595 598/402/598
f 600/391/600 599/403/599 601/404/601
f 602/405/602 603/334/603 604/336/604
f 602/405/602 605/406/605 606/387/606
f 607/337/607 603/334/603 608/389/608
f 596/339/596 605/406/605 604/336/604
f 605/406/605 602/405/602 604/336/604
f 596/339/596 607/337/607 597/401/597
f 597/401/597 607/337/607 609/407/609
f 608/389/608 600/391/600 601/404/601
f 606/387/606 603/334/603 602/405/602
f 608/389/608 601/404/601 609/407/609
f 605/406/605 598/402/598 600/391/600
f 596/339/596 598/402/598 605/406/605
f 605/406/605 600/391/600 606/387/606
f 609/407/609 607/337/607 608/389/608
usemtl tex_1865_lit
f 610/408/610 615/277/615 611/409/611
f 612/410/612 616/282/616 613/411/613
f 617/284/617 616/282/616 612/410/612
f 616/282/616 618/283/618 613/411/613
f 618/283/618 619/280/619 613/411/613
f 619/280/619 620/281/620 614/412/614
f 620/281/620 621/278/621 614/412/614
f 621/278/621 622/279/622 610/408/610
f 622/279/622 623/276/623 610/408/610
f 610/408/610 623/276/623 615/277/615
f 613/411/613 619/280/619 614/412/614
f 614/412/614 621/278/621 610/408/610
usemtl tex_1866_lit
f 624/413/624 627/285/627 625/414/625
f 626/415/626 628/287/628 624/413/624
f 628/287/628 627/285/627 624/413/624
f 629/288/629 628/287/628 626/415/626
f 627/285/627 630/286/630 625/414/625
usemtl tex_1861_lit
f 631/416/631 632/417/632 633/418/633
f 634/419/634 635/420/635 636/421/636
f 634/419/634 636/421/636 637/422/637
f 632/417/632 635/420/635 634/419/634
f 632/417/632 631/416/631 635/420/635
f 637/422/637 636/421/636 638/418/638
f 638/418/638 636/421/636 639/423/639
f 640/423/640 631/416/631 633/418/633
f 635/420/635 641/423/641 642/421/642
f 635/420/635 643/416/643 641/423/641
f 644/422/644 645/418/645 646/417/646
f 644/422/644 646/417/646 634/419/634
