mtllib CmoonguardZ.mtl
v 1087.927879333496 -45.380823612213135 190.0 1.000 1.000 1.000
v 1087.927879333496 -171.38082361221313 -68.0 1.000 1.000 1.000
v 1087.927879333496 -89.38082361221313 -74.0 1.000 1.000 1.000
v 1087.927879333496 -164.38082361221313 200.0 1.000 1.000 1.000
v 983.9278793334961 -92.38082361221313 4.0 1.000 1.000 1.000
v 1038.927879333496 -83.38082361221313 177.0 1.000 1.000 1.000
v 1028.927879333496 -135.38082361221313 203.0 1.000 1.000 1.000
v 979.9278793334961 -165.38082361221313 -34.0 1.000 1.000 1.000
v 983.9278793334961 -106.38082361221313 -62.0 1.000 1.000 1.000
v 980.9278793334961 -157.38082361221313 22.0 1.000 1.000 1.000
v 805.3251266479492 -61.095176696777344 -90.0 1.000 1.000 1.000
v 846.3251266479492 -87.09517669677734 -69.0 1.000 1.000 1.000
v 797.3251266479492 -184.09517669677734 -77.0 1.000 1.000 1.000
v 844.3251266479492 -165.09517669677734 -46.0 1.000 1.000 1.000
v 797.3251266479492 -184.09517669677734 -77.0 1.000 1.000 1.000
v 797.3251266479492 -187.09517669677734 88.0 1.000 1.000 1.000
v 856.3251266479492 -162.09517669677734 36.0 1.000 1.000 1.000
v 791.3251266479492 -29.095176696777344 79.0 1.000 1.000 1.000
v 852.3251266479492 -74.09517669677734 25.0 1.000 1.000 1.000
v 852.3251266479492 -74.09517669677734 25.0 1.000 1.000 1.000
v 846.3251266479492 -87.09517669677734 -69.0 1.000 1.000 1.000
v 805.3251266479492 -61.095176696777344 -90.0 1.000 1.000 1.000
v 791.3251266479492 -29.095176696777344 79.0 1.000 1.000 1.000
v 852.3251266479492 -74.09517669677734 25.0 1.000 1.000 1.000
v 846.3251266479492 -87.09517669677734 -69.0 1.000 1.000 1.000
v 856.3251266479492 -162.09517669677734 36.0 1.000 1.000 1.000
v 844.3251266479492 -165.09517669677734 -46.0 1.000 1.000 1.000
v 980.9278793334961 -157.38082361221313 22.0 1.000 1.000 1.000
v 983.9278793334961 -92.38082361221313 4.0 1.000 1.000 1.000
v 983.9278793334961 -106.38082361221313 -62.0 1.000 1.000 1.000
v 979.9278793334961 -165.38082361221313 -34.0 1.000 1.000 1.000
v 515.3251266479492 -115.09517669677734 106.0 1.000 1.000 1.000
v 532.3251266479492 -23.095176696777344 14.0 1.000 1.000 1.000
v 515.3251266479492 -115.09517669677734 106.0 1.000 1.000 1.000
v 528.3251266479492 -111.09517669677734 -67.0 1.000 1.000 1.000
v 528.3251266479492 -111.09517669677734 -67.0 1.000 1.000 1.000
v 522.3251266479492 -189.09517669677734 9.0 1.000 1.000 1.000
v 791.3251266479492 -29.095176696777344 79.0 1.000 1.000 1.000
v 797.3251266479492 -187.09517669677734 88.0 1.000 1.000 1.000
v 791.3251266479492 -29.095176696777344 79.0 1.000 1.000 1.000
v 805.3251266479492 -61.095176696777344 -90.0 1.000 1.000 1.000
v 797.3251266479492 -184.09517669677734 -77.0 1.000 1.000 1.000
v 805.3251266479492 -61.095176696777344 -90.0 1.000 1.000 1.000
v 1009.3251266479492 -95.09517669677734 23.0 1.000 1.000 1.000
v 536.3251266479492 -130.09517669677734 87.0 1.000 1.000 1.000
v 1009.3251266479492 -144.09517669677734 46.0 1.000 1.000 1.000
v 1010.3251266479492 -108.09517669677734 -62.0 1.000 1.000 1.000
v 531.3251266479492 -106.09517669677734 -67.0 1.000 1.000 1.000
v 528.3251266479492 -31.095176696777344 38.0 1.000 1.000 1.000
v 531.3251266479492 -193.09517669677734 13.0 1.000 1.000 1.000
v 536.3251266479492 -130.09517669677734 87.0 1.000 1.000 1.000
v 1009.3251266479492 -95.09517669677734 23.0 1.000 1.000 1.000
v 1008.3251266479492 -153.09517669677734 -49.0 1.000 1.000 1.000
v 531.3251266479492 -106.09517669677734 -67.0 1.000 1.000 1.000
v 1010.3251266479492 -108.09517669677734 -62.0 1.000 1.000 1.000
v 1009.3251266479492 -144.09517669677734 46.0 1.000 1.000 1.000
v 1008.3251266479492 -153.09517669677734 -49.0 1.000 1.000 1.000
v 531.3251266479492 -193.09517669677734 13.0 1.000 1.000 1.000
v 536.3251266479492 -130.09517669677734 87.0 1.000 1.000 1.000
v 528.3251266479492 -31.095176696777344 38.0 1.000 1.000 1.000
v 531.3251266479492 -106.09517669677734 -67.0 1.000 1.000 1.000
v 72.0 -83.0 122.0 1.000 1.000 1.000
v 1.0 -149.0 47.0 1.000 1.000 1.000
v 34.0 -143.0 -90.0 1.000 1.000 1.000
v 145.0 -53.0 -12.0 1.000 1.000 1.000
v 72.0 -83.0 122.0 1.000 1.000 1.000
v 145.0 -53.0 -12.0 1.000 1.000 1.000
v 231.1657943725586 -128.35110473632812 133.0 1.000 1.000 1.000
v 343.1657943725586 -187.35110473632812 12.0 1.000 1.000 1.000
v 225.1657943725586 -89.35110473632812 -91.0 1.000 1.000 1.000
v 231.1657943725586 -128.35110473632812 133.0 1.000 1.000 1.000
v 259.1657943725586 -20.351104736328125 21.0 1.000 1.000 1.000
v 225.1657943725586 -89.35110473632812 -91.0 1.000 1.000 1.000
v 259.1657943725586 -20.351104736328125 21.0 1.000 1.000 1.000
v 225.1657943725586 -89.35110473632812 -91.0 1.000 1.000 1.000
v 343.1657943725586 -187.35110473632812 12.0 1.000 1.000 1.000
v 225.1657943725586 -89.35110473632812 -91.0 1.000 1.000 1.000
v 231.1657943725586 -128.35110473632812 133.0 1.000 1.000 1.000
v 231.1657943725586 -128.35110473632812 133.0 1.000 1.000 1.000
v 532.3251266479492 -23.095176696777344 14.0 1.000 1.000 1.000
v 515.3251266479492 -115.09517669677734 106.0 1.000 1.000 1.000
v 528.3251266479492 -111.09517669677734 -67.0 1.000 1.000 1.000
v 528.3251266479492 -111.09517669677734 -67.0 1.000 1.000 1.000
v 522.3251266479492 -189.09517669677734 9.0 1.000 1.000 1.000
v 515.3251266479492 -115.09517669677734 106.0 1.000 1.000 1.000
v 196.1657943725586 -148.35110473632812 124.0 1.000 1.000 1.000
v 196.1657943725586 -189.35110473632812 20.0 1.000 1.000 1.000
v 537.1657943725586 -129.35110473632812 87.0 1.000 1.000 1.000
v 531.1657943725586 -193.35110473632812 13.0 1.000 1.000 1.000
v 196.1657943725586 -189.35110473632812 20.0 1.000 1.000 1.000
v 196.1657943725586 -119.35110473632812 -73.0 1.000 1.000 1.000
v 196.1657943725586 -35.351104736328125 27.0 1.000 1.000 1.000
v 528.1657943725586 -31.351104736328125 38.0 1.000 1.000 1.000
v 531.1657943725586 -106.35110473632812 -67.0 1.000 1.000 1.000
v 531.1657943725586 -106.35110473632812 -67.0 1.000 1.000 1.000
v 537.1657943725586 -129.35110473632812 87.0 1.000 1.000 1.000
v 196.1657943725586 -119.35110473632812 -73.0 1.000 1.000 1.000
v 196.1657943725586 -119.35110473632812 -73.0 1.000 1.000 1.000
v 196.1657943725586 -189.35110473632812 20.0 1.000 1.000 1.000
v 196.1657943725586 -148.35110473632812 124.0 1.000 1.000 1.000
v 196.1657943725586 -35.351104736328125 27.0 1.000 1.000 1.000
v 531.1657943725586 -193.35110473632812 13.0 1.000 1.000 1.000
v 531.1657943725586 -106.35110473632812 -67.0 1.000 1.000 1.000
v 528.1657943725586 -31.351104736328125 38.0 1.000 1.000 1.000
v 537.1657943725586 -129.35110473632812 87.0 1.000 1.000 1.000
v -1078.8555908203125 -86.70243644714355 -74.0 1.000 1.000 1.000
v -1078.8555908203125 -168.70243644714355 -68.0 1.000 1.000 1.000
v -1078.8555908203125 -43.702436447143555 191.0 1.000 1.000 1.000
v -1078.8555908203125 -162.70243644714355 200.0 1.000 1.000 1.000
v -1029.8555908203125 -78.70243644714355 177.0 1.000 1.000 1.000
v -973.8555908203125 -90.70243644714355 4.0 1.000 1.000 1.000
v -971.8555908203125 -161.70243644714355 -35.0 1.000 1.000 1.000
v -1019.8555908203125 -134.70243644714355 203.0 1.000 1.000 1.000
v -975.8555908203125 -103.70243644714355 -62.0 1.000 1.000 1.000
v -971.8555908203125 -154.70243644714355 21.0 1.000 1.000 1.000
v -780.8883666992188 -26.47519826889038 79.0 1.000 1.000 1.000
v -837.8883666992188 -68.47519826889038 28.0 1.000 1.000 1.000
v -788.8883666992188 -184.47519826889038 88.0 1.000 1.000 1.000
v -845.8883666992188 -159.47519826889038 37.0 1.000 1.000 1.000
v -836.8883666992188 -163.47519826889038 -47.0 1.000 1.000 1.000
v -788.8883666992188 -182.47519826889038 -77.0 1.000 1.000 1.000
v -796.8883666992188 -51.47519826889038 -90.0 1.000 1.000 1.000
v -836.8883666992188 -75.47519826889038 -68.0 1.000 1.000 1.000
v -837.8883666992188 -68.47519826889038 28.0 1.000 1.000 1.000
v -780.8883666992188 -26.47519826889038 79.0 1.000 1.000 1.000
v -796.8883666992188 -51.47519826889038 -90.0 1.000 1.000 1.000
v -836.8883666992188 -75.47519826889038 -68.0 1.000 1.000 1.000
v -837.8883666992188 -68.47519826889038 28.0 1.000 1.000 1.000
v -836.8883666992188 -75.47519826889038 -68.0 1.000 1.000 1.000
v -836.8883666992188 -163.47519826889038 -47.0 1.000 1.000 1.000
v -845.8883666992188 -159.47519826889038 37.0 1.000 1.000 1.000
v -973.8555908203125 -90.70243644714355 4.0 1.000 1.000 1.000
v -971.8555908203125 -154.70243644714355 21.0 1.000 1.000 1.000
v -975.8555908203125 -103.70243644714355 -62.0 1.000 1.000 1.000
v -971.8555908203125 -161.70243644714355 -35.0 1.000 1.000 1.000
v -506.88836669921875 -112.47519826889038 106.0 1.000 1.000 1.000
v -523.8883666992188 -22.47519826889038 12.0 1.000 1.000 1.000
v -519.8883666992188 -114.47519826889038 -74.0 1.000 1.000 1.000
v -512.8883666992188 -188.47519826889038 9.0 1.000 1.000 1.000
v -506.88836669921875 -112.47519826889038 106.0 1.000 1.000 1.000
v -519.8883666992188 -114.47519826889038 -74.0 1.000 1.000 1.000
v -788.8883666992188 -184.47519826889038 88.0 1.000 1.000 1.000
v -780.8883666992188 -26.47519826889038 79.0 1.000 1.000 1.000
v -796.8883666992188 -51.47519826889038 -90.0 1.000 1.000 1.000
v -780.8883666992188 -26.47519826889038 79.0 1.000 1.000 1.000
v -796.8883666992188 -51.47519826889038 -90.0 1.000 1.000 1.000
v -788.8883666992188 -182.47519826889038 -77.0 1.000 1.000 1.000
v -1000.8883666992188 -139.47519826889038 46.0 1.000 1.000 1.000
v -527.8883666992188 -125.47519826889038 87.0 1.000 1.000 1.000
v -999.8883666992188 -90.47519826889038 23.0 1.000 1.000 1.000
v -518.8883666992188 -27.47519826889038 38.0 1.000 1.000 1.000
v -521.8883666992188 -101.47519826889038 -67.0 1.000 1.000 1.000
v -999.8883666992188 -103.47519826889038 -62.0 1.000 1.000 1.000
v -1000.8883666992188 -139.47519826889038 46.0 1.000 1.000 1.000
v -522.8883666992188 -188.47519826889038 13.0 1.000 1.000 1.000
v -527.8883666992188 -125.47519826889038 87.0 1.000 1.000 1.000
v -999.8883666992188 -103.47519826889038 -62.0 1.000 1.000 1.000
v -521.8883666992188 -101.47519826889038 -67.0 1.000 1.000 1.000
v -999.8883666992188 -149.47519826889038 -50.0 1.000 1.000 1.000
v -999.8883666992188 -149.47519826889038 -50.0 1.000 1.000 1.000
v -518.8883666992188 -27.47519826889038 38.0 1.000 1.000 1.000
v -527.8883666992188 -125.47519826889038 87.0 1.000 1.000 1.000
v -522.8883666992188 -188.47519826889038 13.0 1.000 1.000 1.000
v 1.0 -149.0 47.0 1.000 1.000 1.000
v -75.0 -81.0 123.0 1.000 1.000 1.000
v -36.0 -143.0 -89.0 1.000 1.000 1.000
v -145.0 -37.0 -22.0 1.000 1.000 1.000
v -75.0 -81.0 123.0 1.000 1.000 1.000
v -145.0 -37.0 -22.0 1.000 1.000 1.000
v -223.58901977539062 -125.63739013671875 133.0 1.000 1.000 1.000
v -334.5890197753906 -188.63739013671875 13.0 1.000 1.000 1.000
v -211.58901977539062 -116.63739013671875 -84.0 1.000 1.000 1.000
v -249.58901977539062 -15.63739013671875 21.0 1.000 1.000 1.000
v -211.58901977539062 -116.63739013671875 -84.0 1.000 1.000 1.000
v -223.58901977539062 -125.63739013671875 133.0 1.000 1.000 1.000
v -211.58901977539062 -116.63739013671875 -84.0 1.000 1.000 1.000
v -249.58901977539062 -15.63739013671875 21.0 1.000 1.000 1.000
v -211.58901977539062 -116.63739013671875 -84.0 1.000 1.000 1.000
v -334.5890197753906 -188.63739013671875 13.0 1.000 1.000 1.000
v -223.58901977539062 -125.63739013671875 133.0 1.000 1.000 1.000
v -223.58901977539062 -125.63739013671875 133.0 1.000 1.000 1.000
v -523.8883666992188 -22.47519826889038 12.0 1.000 1.000 1.000
v -519.8883666992188 -114.47519826889038 -74.0 1.000 1.000 1.000
v -506.88836669921875 -112.47519826889038 106.0 1.000 1.000 1.000
v -519.8883666992188 -114.47519826889038 -74.0 1.000 1.000 1.000
v -512.8883666992188 -188.47519826889038 9.0 1.000 1.000 1.000
v -506.88836669921875 -112.47519826889038 106.0 1.000 1.000 1.000
v -527.5890197753906 -125.63739013671875 87.0 1.000 1.000 1.000
v -187.58901977539062 -185.63739013671875 20.0 1.000 1.000 1.000
v -187.58901977539062 -144.63739013671875 124.0 1.000 1.000 1.000
v -187.58901977539062 -115.63739013671875 -73.0 1.000 1.000 1.000
v -522.5890197753906 -188.63739013671875 13.0 1.000 1.000 1.000
v -522.5890197753906 -101.63739013671875 -67.0 1.000 1.000 1.000
v -519.5890197753906 -27.63739013671875 38.0 1.000 1.000 1.000
v -187.58901977539062 -30.63739013671875 27.0 1.000 1.000 1.000
v -522.5890197753906 -101.63739013671875 -67.0 1.000 1.000 1.000
v -527.5890197753906 -125.63739013671875 87.0 1.000 1.000 1.000
v -187.58901977539062 -144.63739013671875 124.0 1.000 1.000 1.000
v -187.58901977539062 -115.63739013671875 -73.0 1.000 1.000 1.000
v -187.58901977539062 -30.63739013671875 27.0 1.000 1.000 1.000
v -187.58901977539062 -144.63739013671875 124.0 1.000 1.000 1.000
v -187.58901977539062 -185.63739013671875 20.0 1.000 1.000 1.000
v -187.58901977539062 -115.63739013671875 -73.0 1.000 1.000 1.000
v -527.5890197753906 -125.63739013671875 87.0 1.000 1.000 1.000
v -519.5890197753906 -27.63739013671875 38.0 1.000 1.000 1.000
v -522.5890197753906 -101.63739013671875 -67.0 1.000 1.000 1.000
v -522.5890197753906 -188.63739013671875 13.0 1.000 1.000 1.000
v -254.86859130859375 376.30655002593994 70.0 1.000 1.000 1.000
v -198.86859130859375 437.30655002593994 0.0 1.000 1.000 1.000
v -226.86859130859375 413.30655002593994 -45.0 1.000 1.000 1.000
v -304.86859130859375 437.30655002593994 0.0 1.000 1.000 1.000
v -288.86859130859375 414.30655002593994 -41.0 1.000 1.000 1.000
v -226.86859130859375 413.30655002593994 -45.0 1.000 1.000 1.000
v -288.86859130859375 414.30655002593994 -41.0 1.000 1.000 1.000
v -6.576026916503906 442.42901611328125 73.0 1.000 1.000 1.000
v -51.576026916503906 469.42901611328125 44.0 1.000 1.000 1.000
v 27.423973083496094 480.42901611328125 -37.0 1.000 1.000 1.000
v 49.423973083496094 468.42901611328125 44.0 1.000 1.000 1.000
v -46.576026916503906 482.42901611328125 -31.0 1.000 1.000 1.000
v -46.576026916503906 482.42901611328125 -31.0 1.000 1.000 1.000
v 27.423973083496094 480.42901611328125 -37.0 1.000 1.000 1.000
v 370.1021728515625 -27.755651995539665 -42.76123380661011 1.000 1.000 1.000
v 339.1021728515625 37.244348004460335 -27.761233806610107 1.000 1.000 1.000
v 381.1021728515625 -31.755651995539665 56.23876619338989 1.000 1.000 1.000
v 349.1021728515625 62.244348004460335 51.23876619338989 1.000 1.000 1.000
v 262.1021728515625 17.244348004460335 -34.76123380661011 1.000 1.000 1.000
v 260.1021728515625 31.244348004460335 44.23876619338989 1.000 1.000 1.000
v 339.1021728515625 37.244348004460335 -27.761233806610107 1.000 1.000 1.000
v 349.1021728515625 62.244348004460335 51.23876619338989 1.000 1.000 1.000
v 339.1021728515625 37.244348004460335 -27.761233806610107 1.000 1.000 1.000
v 370.1021728515625 -27.755651995539665 -42.76123380661011 1.000 1.000 1.000
v 262.1021728515625 17.244348004460335 -34.76123380661011 1.000 1.000 1.000
v 258.1021728515625 -26.755651995539665 -22.761233806610107 1.000 1.000 1.000
v 256.1021728515625 -22.755651995539665 37.23876619338989 1.000 1.000 1.000
v 381.1021728515625 -31.755651995539665 56.23876619338989 1.000 1.000 1.000
v 260.1021728515625 31.244348004460335 44.23876619338989 1.000 1.000 1.000
v 349.1021728515625 62.244348004460335 51.23876619338989 1.000 1.000 1.000
v 381.1021728515625 -31.755651995539665 56.23876619338989 1.000 1.000 1.000
v 256.1021728515625 -22.755651995539665 37.23876619338989 1.000 1.000 1.000
v 370.1021728515625 -27.755651995539665 -42.76123380661011 1.000 1.000 1.000
v 258.1021728515625 -26.755651995539665 -22.761233806610107 1.000 1.000 1.000
v 488.6571079492569 394.8121757507324 71.07913017272949 1.000 1.000 1.000
v 482.6571079492569 323.8121757507324 68.07913017272949 1.000 1.000 1.000
v 484.6571079492569 319.8121757507324 -5.920869827270508 1.000 1.000 1.000
v 486.6571079492569 381.8121757507324 -42.92086982727051 1.000 1.000 1.000
v 484.6571079492569 444.8121757507324 7.079130172729492 1.000 1.000 1.000
v 488.6571079492569 394.8121757507324 71.07913017272949 1.000 1.000 1.000
v 486.6571079492569 381.8121757507324 -42.92086982727051 1.000 1.000 1.000
v 256.1021728515625 -22.755651995539665 37.23876619338989 1.000 1.000 1.000
v 258.1021728515625 -26.755651995539665 -22.761233806610107 1.000 1.000 1.000
v 260.1021728515625 31.244348004460335 44.23876619338989 1.000 1.000 1.000
v 262.1021728515625 17.244348004460335 -34.76123380661011 1.000 1.000 1.000
v 262.1021728515625 17.244348004460335 -34.76123380661011 1.000 1.000 1.000
v 260.1021728515625 31.244348004460335 44.23876619338989 1.000 1.000 1.000
v 407.6571079492569 433.8121757507324 6.079130172729492 1.000 1.000 1.000
v 413.6571079492569 381.8121757507324 -38.92086982727051 1.000 1.000 1.000
v 413.6571079492569 381.8121757507324 -38.92086982727051 1.000 1.000 1.000
v 412.6571079492569 329.8121757507324 -6.920869827270508 1.000 1.000 1.000
v 413.6571079492569 338.8121757507324 66.07913017272949 1.000 1.000 1.000
v 408.6571079492569 430.8121757507324 65.07913017272949 1.000 1.000 1.000
v 408.6571079492569 430.8121757507324 65.07913017272949 1.000 1.000 1.000
v 486.6571079492569 381.8121757507324 -42.92086982727051 1.000 1.000 1.000
v 484.6571079492569 444.8121757507324 7.079130172729492 1.000 1.000 1.000
v 484.6571079492569 319.8121757507324 -5.920869827270508 1.000 1.000 1.000
v 486.6571079492569 381.8121757507324 -42.92086982727051 1.000 1.000 1.000
v 482.6571079492569 323.8121757507324 68.07913017272949 1.000 1.000 1.000
v 488.6571079492569 394.8121757507324 71.07913017272949 1.000 1.000 1.000
v 488.6571079492569 394.8121757507324 71.07913017272949 1.000 1.000 1.000
v 687.6571079492569 359.8121757507324 49.07913017272949 1.000 1.000 1.000
v 402.6571079492569 398.8121757507324 91.07913017272949 1.000 1.000 1.000
v 396.6571079492569 297.8121757507324 89.07913017272949 1.000 1.000 1.000
v 398.6571079492569 292.8121757507324 -24.920869827270508 1.000 1.000 1.000
v 689.6571079492569 365.8121757507324 -16.920869827270508 1.000 1.000 1.000
v 404.6571079492569 408.8121757507324 -46.92086982727051 1.000 1.000 1.000
v 686.6571079492569 420.8121757507324 53.07913017272949 1.000 1.000 1.000
v 691.6571079492569 405.8121757507324 -19.920869827270508 1.000 1.000 1.000
v 398.6571079492569 292.8121757507324 -24.920869827270508 1.000 1.000 1.000
v 263.85553324222565 324.87169647216797 69.0 1.000 1.000 1.000
v 274.85553324222565 319.87169647216797 -12.0 1.000 1.000 1.000
v 339.85553324222565 329.87169647216797 62.0 1.000 1.000 1.000
v 333.85553324222565 388.87169647216797 80.0 1.000 1.000 1.000
v 186.85553324222565 379.87169647216797 89.0 1.000 1.000 1.000
v 175.85553324222565 369.87169647216797 -66.0 1.000 1.000 1.000
v 140.85553324222565 403.87169647216797 10.0 1.000 1.000 1.000
v 268.85553324222565 388.87169647216797 -57.0 1.000 1.000 1.000
v 175.85553324222565 369.87169647216797 -66.0 1.000 1.000 1.000
v 268.85553324222565 388.87169647216797 -57.0 1.000 1.000 1.000
v 333.85553324222565 315.87169647216797 -10.0 1.000 1.000 1.000
v 274.85553324222565 439.87169647216797 17.0 1.000 1.000 1.000
v 186.85553324222565 379.87169647216797 89.0 1.000 1.000 1.000
v 333.85553324222565 388.87169647216797 80.0 1.000 1.000 1.000
v -53.86859130859375 220.30655002593994 67.0 1.000 1.000 1.000
v -55.86859130859375 210.30655002593994 -17.0 1.000 1.000 1.000
v -55.86859130859375 210.30655002593994 -17.0 1.000 1.000 1.000
v -51.86859130859375 353.30655002593994 -49.0 1.000 1.000 1.000
v -51.86859130859375 353.30655002593994 -49.0 1.000 1.000 1.000
v -51.86859130859375 375.30655002593994 26.0 1.000 1.000 1.000
v -52.86859130859375 335.30655002593994 75.0 1.000 1.000 1.000
v -52.86859130859375 335.30655002593994 75.0 1.000 1.000 1.000
v 263.85553324222565 324.87169647216797 69.0 1.000 1.000 1.000
v 274.85553324222565 319.87169647216797 -12.0 1.000 1.000 1.000
v 175.85553324222565 369.87169647216797 -66.0 1.000 1.000 1.000
v 175.85553324222565 369.87169647216797 -66.0 1.000 1.000 1.000
v 175.85553324222565 369.87169647216797 -66.0 1.000 1.000 1.000
v 140.85553324222565 403.87169647216797 10.0 1.000 1.000 1.000
v 186.85553324222565 379.87169647216797 89.0 1.000 1.000 1.000
v 186.85553324222565 379.87169647216797 89.0 1.000 1.000 1.000
v 274.85553324222565 439.87169647216797 17.0 1.000 1.000 1.000
v 268.85553324222565 388.87169647216797 -57.0 1.000 1.000 1.000
v 268.85553324222565 388.87169647216797 -57.0 1.000 1.000 1.000
v 333.85553324222565 315.87169647216797 -10.0 1.000 1.000 1.000
v 339.85553324222565 329.87169647216797 62.0 1.000 1.000 1.000
v 333.85553324222565 388.87169647216797 80.0 1.000 1.000 1.000
v 333.85553324222565 388.87169647216797 80.0 1.000 1.000 1.000
v 413.6571079492569 381.8121757507324 -38.92086982727051 1.000 1.000 1.000
v 407.6571079492569 433.8121757507324 6.079130172729492 1.000 1.000 1.000
v 412.6571079492569 329.8121757507324 -6.920869827270508 1.000 1.000 1.000
v 413.6571079492569 381.8121757507324 -38.92086982727051 1.000 1.000 1.000
v 413.6571079492569 338.8121757507324 66.07913017272949 1.000 1.000 1.000
v 408.6571079492569 430.8121757507324 65.07913017272949 1.000 1.000 1.000
v 408.6571079492569 430.8121757507324 65.07913017272949 1.000 1.000 1.000
v 94.85553324222565 289.87169647216797 80.0 1.000 1.000 1.000
v 64.85553324222565 283.87169647216797 -47.0 1.000 1.000 1.000
v 396.85553324222565 297.87169647216797 89.0 1.000 1.000 1.000
v 402.85553324222565 398.87169647216797 91.0 1.000 1.000 1.000
v 151.85553324222565 400.87169647216797 66.0 1.000 1.000 1.000
v 148.85553324222565 412.87169647216797 -35.0 1.000 1.000 1.000
v 404.85553324222565 408.87169647216797 -47.0 1.000 1.000 1.000
v 398.85553324222565 292.87169647216797 -25.0 1.000 1.000 1.000
v 398.85553324222565 292.87169647216797 -25.0 1.000 1.000 1.000
v -785.0662807226181 361.1454210281372 55.0 1.000 1.000 1.000
v -744.0662807226181 433.1454210281372 -27.0 1.000 1.000 1.000
v -773.0662807226181 366.1454210281372 -44.0 1.000 1.000 1.000
v -756.0662807226181 457.1454210281372 52.0 1.000 1.000 1.000
v -744.0662807226181 433.1454210281372 -27.0 1.000 1.000 1.000
v -665.0662807226181 421.1454210281372 38.0 1.000 1.000 1.000
v -666.0662807226181 412.1454210281372 -20.0 1.000 1.000 1.000
v -756.0662807226181 457.1454210281372 52.0 1.000 1.000 1.000
v -666.0662807226181 412.1454210281372 -20.0 1.000 1.000 1.000
v -773.0662807226181 366.1454210281372 -44.0 1.000 1.000 1.000
v -744.0662807226181 433.1454210281372 -27.0 1.000 1.000 1.000
v -665.0662807226181 365.1454210281372 -25.0 1.000 1.000 1.000
v -665.0662807226181 421.1454210281372 38.0 1.000 1.000 1.000
v -785.0662807226181 361.1454210281372 55.0 1.000 1.000 1.000
v -666.0662807226181 358.1454210281372 40.0 1.000 1.000 1.000
v -756.0662807226181 457.1454210281372 52.0 1.000 1.000 1.000
v -773.0662807226181 366.1454210281372 -44.0 1.000 1.000 1.000
v -666.0662807226181 358.1454210281372 40.0 1.000 1.000 1.000
v -785.0662807226181 361.1454210281372 55.0 1.000 1.000 1.000
v -665.0662807226181 365.1454210281372 -25.0 1.000 1.000 1.000
v -475.19768941402435 338.83887100219727 64.0 1.000 1.000 1.000
v -481.19768941402435 401.83887100219727 68.0 1.000 1.000 1.000
v -476.19768941402435 335.83887100219727 -10.0 1.000 1.000 1.000
v -476.19768941402435 390.83887100219727 -46.0 1.000 1.000 1.000
v -481.19768941402435 401.83887100219727 68.0 1.000 1.000 1.000
v -475.19768941402435 452.83887100219727 5.0 1.000 1.000 1.000
v -476.19768941402435 390.83887100219727 -46.0 1.000 1.000 1.000
v -666.0662807226181 358.1454210281372 40.0 1.000 1.000 1.000
v -665.0662807226181 365.1454210281372 -25.0 1.000 1.000 1.000
v -665.0662807226181 421.1454210281372 38.0 1.000 1.000 1.000
v -666.0662807226181 412.1454210281372 -20.0 1.000 1.000 1.000
v -666.0662807226181 412.1454210281372 -20.0 1.000 1.000 1.000
v -665.0662807226181 421.1454210281372 38.0 1.000 1.000 1.000
v -398.19768941402435 440.83887100219727 6.0 1.000 1.000 1.000
v -404.19768941402435 390.83887100219727 -40.0 1.000 1.000 1.000
v -404.19768941402435 390.83887100219727 -40.0 1.000 1.000 1.000
v -403.19768941402435 338.83887100219727 -10.0 1.000 1.000 1.000
v -405.19768941402435 345.83887100219727 64.0 1.000 1.000 1.000
v -401.19768941402435 437.83887100219727 64.0 1.000 1.000 1.000
v -401.19768941402435 437.83887100219727 64.0 1.000 1.000 1.000
v -475.19768941402435 452.83887100219727 5.0 1.000 1.000 1.000
v -476.19768941402435 390.83887100219727 -46.0 1.000 1.000 1.000
v -476.19768941402435 390.83887100219727 -46.0 1.000 1.000 1.000
v -476.19768941402435 335.83887100219727 -10.0 1.000 1.000 1.000
v -475.19768941402435 338.83887100219727 64.0 1.000 1.000 1.000
v -481.19768941402435 401.83887100219727 68.0 1.000 1.000 1.000
v -481.19768941402435 401.83887100219727 68.0 1.000 1.000 1.000
v -391.19768941402435 313.83887100219727 85.0 1.000 1.000 1.000
v -397.19768941402435 414.83887100219727 89.0 1.000 1.000 1.000
v -681.1976894140244 357.83887100219727 42.0 1.000 1.000 1.000
v -681.1976894140244 363.83887100219727 -25.0 1.000 1.000 1.000
v -391.19768941402435 311.83887100219727 -28.0 1.000 1.000 1.000
v -683.1976894140244 420.83887100219727 42.0 1.000 1.000 1.000
v -397.19768941402435 427.83887100219727 -49.0 1.000 1.000 1.000
v -683.1976894140244 404.83887100219727 -27.0 1.000 1.000 1.000
v -391.19768941402435 311.83887100219727 -28.0 1.000 1.000 1.000
v -332.2357143163681 337.22493743896484 62.0 1.000 1.000 1.000
v -267.2357143163681 327.22493743896484 -16.0 1.000 1.000 1.000
v -258.2357143163681 331.22493743896484 66.0 1.000 1.000 1.000
v -181.2357143163681 385.22493743896484 88.0 1.000 1.000 1.000
v -326.2357143163681 395.22493743896484 81.0 1.000 1.000 1.000
v -259.2357143163681 397.22493743896484 -55.0 1.000 1.000 1.000
v -133.2357143163681 412.22493743896484 11.0 1.000 1.000 1.000
v -167.2357143163681 379.22493743896484 -67.0 1.000 1.000 1.000
v -259.2357143163681 397.22493743896484 -55.0 1.000 1.000 1.000
v -167.2357143163681 379.22493743896484 -67.0 1.000 1.000 1.000
v -325.2357143163681 323.22493743896484 -10.0 1.000 1.000 1.000
v -181.2357143163681 385.22493743896484 88.0 1.000 1.000 1.000
v -267.2357143163681 447.22493743896484 21.0 1.000 1.000 1.000
v -326.2357143163681 395.22493743896484 81.0 1.000 1.000 1.000
v -440.86859130859375 220.30655002593994 68.0 1.000 1.000 1.000
v -439.86859130859375 208.30655002593994 -19.0 1.000 1.000 1.000
v -445.86859130859375 354.30655002593994 -50.0 1.000 1.000 1.000
v -445.86859130859375 354.30655002593994 -50.0 1.000 1.000 1.000
v -444.86859130859375 372.30655002593994 27.0 1.000 1.000 1.000
v -445.86859130859375 334.30655002593994 75.0 1.000 1.000 1.000
v -445.86859130859375 334.30655002593994 75.0 1.000 1.000 1.000
v -267.2357143163681 327.22493743896484 -16.0 1.000 1.000 1.000
v -258.2357143163681 331.22493743896484 66.0 1.000 1.000 1.000
v -167.2357143163681 379.22493743896484 -67.0 1.000 1.000 1.000
v -133.2357143163681 412.22493743896484 11.0 1.000 1.000 1.000
v -167.2357143163681 379.22493743896484 -67.0 1.000 1.000 1.000
v -181.2357143163681 385.22493743896484 88.0 1.000 1.000 1.000
v -181.2357143163681 385.22493743896484 88.0 1.000 1.000 1.000
v -267.2357143163681 447.22493743896484 21.0 1.000 1.000 1.000
v -259.2357143163681 397.22493743896484 -55.0 1.000 1.000 1.000
v -259.2357143163681 397.22493743896484 -55.0 1.000 1.000 1.000
v -325.2357143163681 323.22493743896484 -10.0 1.000 1.000 1.000
v -332.2357143163681 337.22493743896484 62.0 1.000 1.000 1.000
v -326.2357143163681 395.22493743896484 81.0 1.000 1.000 1.000
v -326.2357143163681 395.22493743896484 81.0 1.000 1.000 1.000
v -398.19768941402435 440.83887100219727 6.0 1.000 1.000 1.000
v -404.19768941402435 390.83887100219727 -40.0 1.000 1.000 1.000
v -404.19768941402435 390.83887100219727 -40.0 1.000 1.000 1.000
v -403.19768941402435 338.83887100219727 -10.0 1.000 1.000 1.000
v -405.19768941402435 345.83887100219727 64.0 1.000 1.000 1.000
v -401.19768941402435 437.83887100219727 64.0 1.000 1.000 1.000
v -401.19768941402435 437.83887100219727 64.0 1.000 1.000 1.000
v -145.2357143163681 417.22493743896484 68.0 1.000 1.000 1.000
v -89.2357143163681 306.22493743896484 81.0 1.000 1.000 1.000
v -57.2357143163681 302.22493743896484 -45.0 1.000 1.000 1.000
v -141.2357143163681 431.22493743896484 -33.0 1.000 1.000 1.000
v -391.2357143163681 314.22493743896484 85.0 1.000 1.000 1.000
v -397.2357143163681 415.22493743896484 89.0 1.000 1.000 1.000
v -397.2357143163681 428.22493743896484 -49.0 1.000 1.000 1.000
v -391.2357143163681 311.22493743896484 -28.0 1.000 1.000 1.000
v -391.2357143163681 311.22493743896484 -28.0 1.000 1.000 1.000
v -51.86859130859375 375.30655002593994 26.0 1.000 1.000 1.000
v -198.86859130859375 437.30655002593994 0.0 1.000 1.000 1.000
v -254.86859130859375 376.30655002593994 70.0 1.000 1.000 1.000
v -445.86859130859375 334.30655002593994 75.0 1.000 1.000 1.000
v -253.86859130859375 257.30655002593994 181.0 1.000 1.000 1.000
v -52.86859130859375 335.30655002593994 75.0 1.000 1.000 1.000
v -93.86859130859375 244.30655002593994 153.0 1.000 1.000 1.000
v -401.86859130859375 244.30655002593994 153.0 1.000 1.000 1.000
v -408.86859130859375 91.30655002593994 21.0 1.000 1.000 1.000
v -323.86859130859375 95.30655002593994 163.0 1.000 1.000 1.000
v -444.86859130859375 372.30655002593994 27.0 1.000 1.000 1.000
v -304.86859130859375 437.30655002593994 0.0 1.000 1.000 1.000
v -180.86859130859375 95.30655002593994 163.0 1.000 1.000 1.000
v -439.86859130859375 208.30655002593994 -19.0 1.000 1.000 1.000
v -440.86859130859375 220.30655002593994 68.0 1.000 1.000 1.000
v -53.86859130859375 220.30655002593994 67.0 1.000 1.000 1.000
v -53.86859130859375 220.30655002593994 67.0 1.000 1.000 1.000
v -93.86859130859375 244.30655002593994 153.0 1.000 1.000 1.000
v -90.86859130859375 91.30655002593994 22.0 1.000 1.000 1.000
v -253.86859130859375 257.30655002593994 181.0 1.000 1.000 1.000
v -401.86859130859375 244.30655002593994 153.0 1.000 1.000 1.000
v -323.86859130859375 95.30655002593994 163.0 1.000 1.000 1.000
v -445.86859130859375 334.30655002593994 75.0 1.000 1.000 1.000
v -440.86859130859375 220.30655002593994 68.0 1.000 1.000 1.000
v -408.86859130859375 91.30655002593994 21.0 1.000 1.000 1.000
v -55.86859130859375 210.30655002593994 -17.0 1.000 1.000 1.000
v -180.86859130859375 95.30655002593994 163.0 1.000 1.000 1.000
v -252.86859130859375 207.30655002593994 -94.0 1.000 1.000 1.000
v -150.86859130859375 91.30655002593994 -68.0 1.000 1.000 1.000
v -360.86859130859375 90.30655002593994 -66.0 1.000 1.000 1.000
v -321.86859130859375 336.30655002593994 -96.0 1.000 1.000 1.000
v -356.86859130859375 197.30655002593994 -74.0 1.000 1.000 1.000
v -51.86859130859375 375.30655002593994 26.0 1.000 1.000 1.000
v -226.86859130859375 413.30655002593994 -45.0 1.000 1.000 1.000
v -198.86859130859375 437.30655002593994 0.0 1.000 1.000 1.000
v -356.86859130859375 197.30655002593994 -74.0 1.000 1.000 1.000
v -252.86859130859375 207.30655002593994 -94.0 1.000 1.000 1.000
v -360.86859130859375 90.30655002593994 -66.0 1.000 1.000 1.000
v -161.86859130859375 196.30655002593994 -80.0 1.000 1.000 1.000
v -55.86859130859375 210.30655002593994 -17.0 1.000 1.000 1.000
v -150.86859130859375 91.30655002593994 -68.0 1.000 1.000 1.000
v -51.86859130859375 353.30655002593994 -49.0 1.000 1.000 1.000
v -288.86859130859375 414.30655002593994 -41.0 1.000 1.000 1.000
v -444.86859130859375 372.30655002593994 27.0 1.000 1.000 1.000
v -304.86859130859375 437.30655002593994 0.0 1.000 1.000 1.000
v -445.86859130859375 354.30655002593994 -50.0 1.000 1.000 1.000
v -170.86859130859375 336.30655002593994 -96.0 1.000 1.000 1.000
v -321.86859130859375 336.30655002593994 -96.0 1.000 1.000 1.000
v -360.86859130859375 90.30655002593994 -66.0 1.000 1.000 1.000
v -408.86859130859375 91.30655002593994 21.0 1.000 1.000 1.000
v -439.86859130859375 208.30655002593994 -19.0 1.000 1.000 1.000
v -150.86859130859375 91.30655002593994 -68.0 1.000 1.000 1.000
v -55.86859130859375 210.30655002593994 -17.0 1.000 1.000 1.000
v -90.86859130859375 91.30655002593994 22.0 1.000 1.000 1.000
v -226.86859130859375 413.30655002593994 -45.0 1.000 1.000 1.000
v -51.86859130859375 353.30655002593994 -49.0 1.000 1.000 1.000
v -170.86859130859375 336.30655002593994 -96.0 1.000 1.000 1.000
v -161.86859130859375 196.30655002593994 -80.0 1.000 1.000 1.000
v -252.86859130859375 207.30655002593994 -94.0 1.000 1.000 1.000
v -356.86859130859375 197.30655002593994 -74.0 1.000 1.000 1.000
v -445.86859130859375 354.30655002593994 -50.0 1.000 1.000 1.000
v -321.86859130859375 336.30655002593994 -96.0 1.000 1.000 1.000
v 74.1779819726944 52.144371032714844 164.0 1.000 1.000 1.000
v -71.8220180273056 49.144371032714844 161.0 1.000 1.000 1.000
v -154.8220180273056 50.144371032714844 20.0 1.000 1.000 1.000
v 161.1779819726944 53.144371032714844 21.0 1.000 1.000 1.000
v -88.8220180273056 62.144371032714844 -81.0 1.000 1.000 1.000
v 94.1779819726944 63.144371032714844 -84.0 1.000 1.000 1.000
v -180.86859130859375 95.30655002593994 163.0 1.000 1.000 1.000
v -323.86859130859375 95.30655002593994 163.0 1.000 1.000 1.000
v -90.86859130859375 91.30655002593994 22.0 1.000 1.000 1.000
v -408.86859130859375 91.30655002593994 21.0 1.000 1.000 1.000
v -360.86859130859375 90.30655002593994 -66.0 1.000 1.000 1.000
v -150.86859130859375 91.30655002593994 -68.0 1.000 1.000 1.000
v -63.86859130859375 387.30655002593994 148.0 1.000 1.000 1.000
v -461.86859130859375 424.30655002593994 -72.0 1.000 1.000 1.000
v -441.86859130859375 384.30655002593994 147.0 1.000 1.000 1.000
v -63.86859130859375 387.30655002593994 148.0 1.000 1.000 1.000
v -405.86859130859375 37.30655002593994 141.0 1.000 1.000 1.000
v -97.86859130859375 38.30655002593994 141.0 1.000 1.000 1.000
v -42.86859130859375 427.30655002593994 -70.0 1.000 1.000 1.000
v -441.86859130859375 384.30655002593994 147.0 1.000 1.000 1.000
v -417.86859130859375 32.30655002593994 -35.0 1.000 1.000 1.000
v -94.86859130859375 33.30655002593994 -37.0 1.000 1.000 1.000
v -405.86859130859375 37.30655002593994 141.0 1.000 1.000 1.000
v -97.86859130859375 38.30655002593994 141.0 1.000 1.000 1.000
v -42.86859130859375 427.30655002593994 -70.0 1.000 1.000 1.000
v -94.86859130859375 33.30655002593994 -37.0 1.000 1.000 1.000
v -417.86859130859375 32.30655002593994 -35.0 1.000 1.000 1.000
v -461.86859130859375 424.30655002593994 -72.0 1.000 1.000 1.000
v -417.86859130859375 32.30655002593994 -35.0 1.000 1.000 1.000
v -405.86859130859375 37.30655002593994 141.0 1.000 1.000 1.000
v -461.86859130859375 424.30655002593994 -72.0 1.000 1.000 1.000
v -94.86859130859375 33.30655002593994 -37.0 1.000 1.000 1.000
v -42.86859130859375 427.30655002593994 -70.0 1.000 1.000 1.000
v -97.86859130859375 38.30655002593994 141.0 1.000 1.000 1.000
v -441.86859130859375 384.30655002593994 147.0 1.000 1.000 1.000
v -63.86859130859375 387.30655002593994 148.0 1.000 1.000 1.000
v 139.0 22.0 21.0 1.000 1.000 1.000
v 69.0 16.0 135.0 1.000 1.000 1.000
v 72.0 -83.0 122.0 1.000 1.000 1.000
v -75.0 -81.0 123.0 1.000 1.000 1.000
v 1.0 -149.0 47.0 1.000 1.000 1.000
v -145.0 -37.0 -22.0 1.000 1.000 1.000
v -134.0 19.0 20.0 1.000 1.000 1.000
v -71.0 13.0 113.0 1.000 1.000 1.000
v 145.0 -53.0 -12.0 1.000 1.000 1.000
v -95.0 26.0 -59.0 1.000 1.000 1.000
v 90.0 28.0 -62.0 1.000 1.000 1.000
v -1.0 -79.0 -101.0 1.000 1.000 1.000
v -1.0 -150.0 -73.0 1.000 1.000 1.000
v -36.0 -143.0 -89.0 1.000 1.000 1.000
v 34.0 -143.0 -90.0 1.000 1.000 1.000
v 69.0 16.0 135.0 1.000 1.000 1.000
v -71.0 13.0 113.0 1.000 1.000 1.000
v -134.0 19.0 20.0 1.000 1.000 1.000
v 139.0 22.0 21.0 1.000 1.000 1.000
v -95.0 26.0 -59.0 1.000 1.000 1.000
v 90.0 28.0 -62.0 1.000 1.000 1.000
v 74.1779819726944 52.144371032714844 164.0 1.000 1.000 1.000
v -71.8220180273056 49.144371032714844 161.0 1.000 1.000 1.000
v -154.8220180273056 50.144371032714844 20.0 1.000 1.000 1.000
v 161.1779819726944 53.144371032714844 21.0 1.000 1.000 1.000
v -88.8220180273056 62.144371032714844 -81.0 1.000 1.000 1.000
v 94.1779819726944 63.144371032714844 -84.0 1.000 1.000 1.000
v -131.0 77.0 141.0 1.000 1.000 1.000
v -147.0 -199.0 132.0 1.000 1.000 1.000
v 147.0 -198.0 143.0 1.000 1.000 1.000
v 135.0 78.0 141.0 1.000 1.000 1.000
v -142.0 72.0 -35.0 1.000 1.000 1.000
v 135.0 78.0 141.0 1.000 1.000 1.000
v 138.0 73.0 -37.0 1.000 1.000 1.000
v -131.0 77.0 141.0 1.000 1.000 1.000
v 178.0 -198.0 -80.0 1.000 1.000 1.000
v 147.0 -198.0 143.0 1.000 1.000 1.000
v -147.0 -199.0 132.0 1.000 1.000 1.000
v -181.0 -199.0 -80.0 1.000 1.000 1.000
v -181.0 -199.0 -80.0 1.000 1.000 1.000
v -142.0 72.0 -35.0 1.000 1.000 1.000
v 138.0 73.0 -37.0 1.000 1.000 1.000
v 178.0 -198.0 -80.0 1.000 1.000 1.000
v -147.0 -199.0 132.0 1.000 1.000 1.000
v -142.0 72.0 -35.0 1.000 1.000 1.000
v -181.0 -199.0 -80.0 1.000 1.000 1.000
v -131.0 77.0 141.0 1.000 1.000 1.000
v 178.0 -198.0 -80.0 1.000 1.000 1.000
v 138.0 73.0 -37.0 1.000 1.000 1.000
v 147.0 -198.0 143.0 1.000 1.000 1.000
v 135.0 78.0 141.0 1.000 1.000 1.000
vt 0.9401 0.9717
vt 0.0775 0.9053
vt 0.0540 0.9033
vt 0.9740 0.9746
vt 0.3490 0.2793
vt 0.9121 0.6621
vt 1.0020 0.6064
vt 0.2227 0.2441
vt 0.1289 0.2607
vt 0.4095 0.2607
vt 0.7529 0.8900
vt 0.6338 0.9434
vt 0.2188 0.8913
vt 0.2949 0.9479
vt 0.2168 0.8913
vt 0.2051 0.8913
vt 0.3057 0.9622
vt 0.8936 0.8698
vt 0.6904 0.9499
vt -0.0518 0.9531
vt 0.3682 0.9408
vt 0.4707 0.8900
vt -0.2793 0.8815
vt 0.1035 0.9167
vt 0.2363 0.9368
vt 0.1846 0.2031
vt 0.7383 0.9342
vt 0.9072 0.1654
vt 0.5303 0.9141
vt 0.0947 0.2240
vt 0.7285 0.1562
vt 0.5625 0.5352
vt 0.0713 0.5664
vt -0.3340 0.5508
vt 0.4307 0.5586
vt 0.5762 0.5514
vt 0.2393 0.5495
vt 0.8301 0.9883
vt 0.8545 0.2585
vt 0.7031 0.9948
vt 0.3281 0.9297
vt 0.3926 0.4518
vt -0.0410 0.4421
vt 0.6924 0.2578
vt -0.2441 0.4486
vt -0.0234 0.9525
vt 0.6855 0.9518
vt 0.9170 0.2467
vt 0.8027 0.9492
vt -0.1191 0.9518
vt 0.2764 0.9277
vt 1.1094 0.2337
vt 0.5859 -0.0039
vt 0.2676 0.0846
vt 0.5479 0.1842
vt 0.2715 0.3281
vt 0.4131 0.0742
vt 0.7207 0.1725
vt 0.9121 -0.0469
vt -0.3057 0.0273
vt -0.3877 0.2103
vt 0.1016 0.2370
vt 0.2969 -0.0143
vt 0.6084 0.1914
vt -0.3613 0.0632
vt 0.0654 0.0671
vt 0.7881 -0.3001
vt 0.9688 -0.3105
vt 0.0391 0.0658
vt 0.4482 0.0710
vt 0.0319 0.9395
vt 0.0547 0.9404
vt 0.9863 0.9795
vt 1.0189 0.9805
vt 0.9310 0.6133
vt 0.2988 0.1768
vt 0.1595 0.1514
vt 1.0221 0.5400
vt 0.0612 0.1758
vt 0.3607 0.1621
vt 0.2871 0.8848
vt 0.3857 0.9551
vt 0.6865 0.8965
vt 0.6152 0.9655
vt 0.6270 0.9551
vt 0.6836 0.8965
vt 0.3477 0.9043
vt 0.4043 0.9538
vt 0.2393 0.9284
vt 0.4746 0.8633
vt -0.3232 0.8861
vt -0.2158 0.9303
vt 1.3672 0.1458
vt 1.1133 0.9414
vt 1.2324 0.9238
vt 0.4141 0.1816
vt 0.4531 0.9772
vt 0.5527 0.1771
vt 1.3809 0.1901
vt 0.6758 0.9460
vt 0.5400 0.5534
vt 0.1221 0.5820
vt -0.2822 0.5807
vt 0.7334 0.5625
vt 0.5654 0.5605
vt 0.5420 0.5697
vt -0.1240 0.9577
vt -0.2305 0.4492
vt -0.0244 0.9577
vt -0.0176 0.4408
vt 0.4336 0.4447
vt 0.3438 0.9290
vt 0.8018 1.0039
vt 0.5645 0.4219
vt 0.8438 0.4212
vt 0.9590 0.9655
vt 0.9492 0.4108
vt 0.7568 0.9707
vt 0.2900 0.9284
vt 1.2773 0.3984
vt 0.6094 0.2109
vt 0.7920 0.1081
vt 0.6084 0.0241
vt 0.6982 0.0996
vt 0.7559 0.3464
vt -0.3682 0.2409
vt 0.1318 0.2799
vt -0.1035 0.0345
vt 0.5879 0.1960
vt 0.6553 0.2474
vt 0.5879 0.0781
vt 0.4346 -0.0299
vt 0.5645 -0.0195
vt 0.7451 -0.0215
vt 0.8730 -0.0299
vt 0.0830 0.0579
vt -0.3350 0.0605
vt 0.5098 0.0586
vt 0.1104 0.0592
vt 0.5088 0.9961
vt 0.4873 0.4564
vt 0.1201 0.2415
vt 0.7695 0.1549
vt 0.9736 0.5124
vt 0.7451 0.6966
vt 0.9414 0.2493
vt 0.1113 0.5111
vt 0.1670 0.1452
vt 0.2363 0.6888
vt -0.1758 0.1387
vt 0.4023 0.6895
vt -0.1055 0.6816
vt 0.4268 0.1478
vt 0.9668 0.0820
vt 0.8301 0.7812
vt 0.0166 0.0361
vt 0.0693 0.9805
vt 0.1514 1.0049
vt 0.7949 0.9453
vt 0.1436 0.4082
vt 0.7773 0.2344
vt 0.0781 0.4785
vt 0.8086 0.0684
vt 0.2275 1.0293
vt 0.7637 0.9678
vt 0.4746 -0.0225
vt 1.0166 0.9971
vt 0.0283 0.1357
vt 0.0996 0.9404
vt 0.0820 0.1846
vt 0.3271 1.1592
vt 0.9600 0.2188
vt 0.8525 1.1123
vt -0.0658 0.8330
vt 0.2767 0.5947
vt 0.2773 0.8477
vt 0.2754 0.8574
vt -0.0677 0.8447
vt 0.2839 0.6309
vt 0.2663 1.0303
vt 0.2630 1.4492
vt -0.0566 1.3662
vt 0.2585 0.6934
vt -0.0671 0.8359
vt -0.0684 0.6875
vt -0.0645 0.6416
vt 0.3997 1.0107
vt 0.3848 0.7070
vt 0.4199 0.5820
vt 0.4134 0.7715
vt 0.4108 0.7471
vt 0.4017 1.3975
vt 0.4329 0.4072
vt 0.9798 0.6777
vt 0.5846 0.3516
vt 0.5755 0.3887
vt 0.5664 1.3555
vt 0.9746 1.2461
vt 0.5742 1.5283
vt 0.9844 0.6768
vt 0.9785 1.2637
vt 0.6895 0.6953
vt 0.6712 0.7158
vt 0.5482 0.7275
vt 0.5684 0.5107
vt 0.8424 0.4473
vt 0.7956 0.4775
vt 0.8639 0.9814
vt 0.6354 0.5547
vt 0.8672 0.4619
vt 0.6953 0.4580
vt 0.5599 0.7705
vt 0.6309 1.0586
vt 0.7897 1.5127
vt 0.5345 1.4805
vt 0.6921 0.7207
vt 0.6719 0.7363
vt 0.8346 0.4346
vt 0.6393 0.7090
vt 0.9102 0.5977
vt 0.8750 0.5674
vt 0.9212 1.0596
vt 0.8568 1.4004
vt 0.9076 0.6396
vt 0.1289 0.5107
vt 0.0723 1.5967
vt 0.2116 0.6025
vt 0.1973 1.4648
vt 1.0000 0.0088
vt 0.0996 0.8926
vt 0.0010 0.2666
vt 0.8838 0.9111
vt 0.0801 0.4189
vt 0.8398 1.0215
vt 0.3340 1.0957
vt 0.7383 0.1719
vt 0.2871 1.0518
vt 0.8086 0.0918
vt 0.0605 0.4707
vt 0.8018 0.9609
vt 0.0479 0.1250
vt 0.9688 0.9736
vt 0.5293 0.0176
vt 0.1201 0.9199
vt 0.9346 0.3291
vt 0.2412 1.0225
vt 0.0361 0.2607
vt 0.8330 1.0195
vt 0.6608 0.2295
vt 0.6706 0.4424
vt 0.9766 0.1641
vt 0.9759 0.1865
vt 0.6621 0.2188
vt 0.6628 0.4082
vt -0.0605 0.8965
vt 0.2572 0.6416
vt 0.2695 1.1348
vt -0.0612 1.3564
vt 0.2682 1.5342
vt 0.9766 0.3486
vt 0.9746 0.3799
vt 0.4023 1.1211
vt 0.3939 1.4844
vt 0.5430 0.4590
vt 0.5423 0.2793
vt 0.5456 0.3027
vt 0.3965 0.6650
vt 0.5371 0.6240
vt 0.5586 0.5400
vt 0.5684 0.5703
vt 0.9941 0.2061
vt 0.9928 -0.2861
vt 0.5560 -0.2959
vt 0.9987 0.2061
vt 0.5658 -0.4473
vt 0.9967 -0.3027
vt 0.4245 0.3242
vt 0.3164 0.3379
vt 0.3014 0.3584
vt 0.1732 0.5996
vt 0.4141 0.5293
vt 0.6458 1.5830
vt 0.8620 1.0537
vt 0.8047 1.6660
vt 0.3021 0.5830
vt 0.1510 0.5859
vt 0.4128 0.2842
vt 0.7767 0.4482
vt 0.6302 0.9902
vt 0.5254 0.5186
vt 0.2988 0.3223
vt 0.3190 0.3086
vt 0.0768 0.4346
vt 0.8828 1.5332
vt 0.9121 0.9180
vt 0.8444 0.5479
vt 0.1100 0.4209
vt 0.1706 0.4307
vt 0.0807 0.5273
vt 0.0286 -0.4023
vt 0.1621 -0.3145
vt 0.9805 0.1068
vt 0.6152 0.0156
vt 0.4775 0.1074
vt 0.0059 0.1712
vt 0.4805 0.2839
vt 0.9785 0.1667
vt 0.8760 0.3021
vt 0.1172 0.3047
vt 0.1006 0.5319
vt 0.3105 0.5260
vt 0.0088 0.1139
vt 0.3535 0.0163
vt 0.6631 0.5247
vt 0.0234 0.3594
vt 0.0195 0.3405
vt 0.9766 0.3372
vt 0.8848 0.5306
vt 0.9707 0.3529
vt 0.4844 0.3581
vt 0.7373 0.5312
vt 0.2188 0.5345
vt 0.3115 0.1673
vt 0.2266 0.3737
vt 0.5469 0.0508
vt 0.7080 0.3737
vt 0.9795 0.1387
vt 0.3926 0.0495
vt 0.0059 0.1413
vt 0.6846 0.1647
vt 0.6670 0.6484
vt 0.3057 0.6536
vt 0.0996 0.6530
vt 0.8818 0.6465
vt 0.2627 0.6348
vt 0.7168 0.6322
vt 0.9619 0.1204
vt -0.0332 0.0684
vt 0.0186 0.1257
vt 0.1455 0.6094
vt 0.8438 0.6087
vt 1.0137 0.0651
vt 0.1182 0.6165
vt 0.8516 0.6152
vt -0.0762 0.0495
vt 0.0986 0.6048
vt 0.8379 0.6198
vt 0.9805 0.0716
vt 0.3662 0.6172
vt 0.8828 0.6087
vt 0.1924 0.0716
vt 0.6973 0.6068
vt 0.7900 0.0736
vt 0.2188 0.6029
vt 0.8428 0.1270
vt 0.2031 0.1315
vt 0.8262 0.6927
vt 0.6533 0.7031
vt 0.6611 0.8496
vt 0.2988 0.8477
vt 0.4873 0.9492
vt 0.1260 0.7832
vt 0.1523 0.6986
vt 0.3066 0.7083
vt 0.8418 0.8047
vt 0.2480 0.6882
vt 0.7061 0.6842
vt 0.4805 0.8444
vt 0.4805 0.9499
vt 0.3945 0.9395
vt 0.5693 0.9395
vt 0.1914 0.6094
vt 0.1045 0.9948
vt 0.8809 0.9941
vt 0.7959 0.6087
vt 0.1680 0.6165
vt 0.8027 0.6152
vt 0.9619 0.9941
vt 0.0137 0.9954
vt 0.9512 1.0020
vt 0.7881 0.6191
vt 0.1475 0.6061
vt -0.0059 0.9837
vt 0.8760 1.0091
vt 0.3760 0.6113
vt 0.2441 1.0176
vt 0.8916 0.6035
vt 0.8174 0.9551
vt 0.6963 0.6113
vt 0.2148 0.9629
vt 0.2178 0.6068
vn -0.577 -0.577 -0.577
vn 0.577 0.577 0.577
vn 0.577 0.577 0.577
vn -0.577 -0.577 -0.577
vn 0.577 0.577 0.577
vn -0.577 -0.577 -0.577
vn -0.577 -0.577 -0.577
vn 0.577 0.577 0.577
vn 0.577 0.577 0.577
vn 0.577 0.577 0.577
vn 0.577 0.577 0.577
vn 0.577 0.577 0.577
vn 0.577 0.577 0.577
vn 0.577 0.577 0.577
vn 0.577 0.577 0.577
vn 0.577 0.577 0.577
vn 0.577 0.577 0.577
vn 0.577 0.577 0.577
vn 0.577 0.577 0.577
vn 0.577 0.577 0.577
vn 0.577 0.577 0.577
vn 0.577 0.577 0.577
vn 0.577 0.577 0.577
vn 0.577 0.577 0.577
vn 0.577 0.577 0.577
vn 0.577 0.577 0.577
vn 0.577 0.577 0.577
vn 0.577 0.577 0.577
vn 0.577 0.577 0.577
vn 0.577 0.577 0.577
vn 0.577 0.577 0.577
vn -0.577 -0.577 -0.577
vn -0.577 -0.577 -0.577
vn -0.577 -0.577 -0.577
vn -0.577 -0.577 -0.577
vn -0.577 -0.577 -0.577
vn 0.577 0.577 0.577
vn 0.577 0.577 0.577
vn 0.577 0.577 0.577
vn 0.577 0.577 0.577
vn 0.577 0.577 0.577
vn 0.577 0.577 0.577
vn 0.577 0.577 0.577
vn -0.577 -0.577 -0.577
vn -0.577 -0.577 -0.577
vn -0.577 -0.577 -0.577
vn -0.577 -0.577 -0.577
vn -0.577 -0.577 -0.577
vn 0.577 0.577 0.577
vn -0.577 -0.577 -0.577
vn -0.577 -0.577 -0.577
vn -0.577 -0.577 -0.577
vn -0.577 -0.577 -0.577
vn -0.577 -0.577 -0.577
vn -0.577 -0.577 -0.577
vn -0.577 -0.577 -0.577
vn -0.577 -0.577 -0.577
vn -0.577 -0.577 -0.577
vn -0.577 -0.577 -0.577
vn 0.577 0.577 0.577
vn -0.577 -0.577 -0.577
vn -0.577 -0.577 -0.577
vn 0.577 0.577 0.577
vn -0.577 -0.577 -0.577
vn -0.577 -0.577 -0.577
vn -0.577 -0.577 -0.577
vn -0.577 -0.577 -0.577
vn -0.577 -0.577 -0.577
vn 0.577 0.577 0.577
vn -0.577 -0.577 -0.577
vn -0.577 -0.577 -0.577
vn 0.577 0.577 0.577
vn -0.577 -0.577 -0.577
vn 0.577 0.577 0.577
vn -0.577 -0.577 -0.577
vn 0.577 0.577 0.577
vn -0.577 -0.577 -0.577
vn -0.577 -0.577 -0.577
vn -0.577 -0.577 -0.577
vn -0.577 -0.577 -0.577
vn -0.577 -0.577 -0.577
vn -0.577 -0.577 -0.577
vn -0.577 -0.577 -0.577
vn 0.577 0.577 0.577
vn -0.577 -0.577 -0.577
vn -0.577 -0.577 -0.577
vn -0.577 -0.577 -0.577
vn -0.577 -0.577 -0.577
vn -0.577 -0.577 -0.577
vn -0.577 -0.577 -0.577
vn -0.577 -0.577 -0.577
vn 0.577 0.577 0.577
vn 0.577 0.577 0.577
vn -0.577 -0.577 -0.577
vn -0.577 -0.577 -0.577
vn -0.577 -0.577 -0.577
vn -0.577 -0.577 -0.577
vn -0.577 -0.577 -0.577
vn -0.577 -0.577 -0.577
vn -0.577 -0.577 -0.577
vn -0.577 -0.577 -0.577
vn -0.577 -0.577 -0.577
vn -0.577 -0.577 -0.577
vn 0.577 0.577 0.577
vn -0.577 -0.577 -0.577
vn 0.577 0.577 0.577
vn 0.577 0.577 0.577
vn -0.577 -0.577 -0.577
vn -0.577 -0.577 -0.577
vn -0.577 -0.577 -0.577
vn 0.577 0.577 0.577
vn 0.577 0.577 0.577
vn -0.577 -0.577 -0.577
vn 0.577 0.577 0.577
vn 0.577 0.577 0.577
vn 0.577 0.577 0.577
vn 0.577 0.577 0.577
vn 0.577 0.577 0.577
vn 0.577 0.577 0.577
vn 0.577 0.577 0.577
vn 0.577 0.577 0.577
vn 0.577 0.577 0.577
vn 0.577 0.577 0.577
vn 0.577 0.577 0.577
vn 0.577 0.577 0.577
vn 0.577 0.577 0.577
vn 0.577 0.577 0.577
vn 0.577 0.577 0.577
vn 0.577 0.577 0.577
vn 0.577 0.577 0.577
vn 0.577 0.577 0.577
vn 0.577 0.577 0.577
vn 0.577 0.577 0.577
vn 0.577 0.577 0.577
vn 0.577 0.577 0.577
vn -0.577 -0.577 -0.577
vn -0.577 -0.577 -0.577
vn -0.577 -0.577 -0.577
vn 0.577 0.577 0.577
vn -0.577 -0.577 -0.577
vn -0.577 -0.577 -0.577
vn 0.577 0.577 0.577
vn 0.577 0.577 0.577
vn 0.577 0.577 0.577
vn 0.577 0.577 0.577
vn 0.577 0.577 0.577
vn 0.577 0.577 0.577
vn -0.577 -0.577 -0.577
vn -0.577 -0.577 -0.577
vn -0.577 -0.577 -0.577
vn 0.577 0.577 0.577
vn -0.577 -0.577 -0.577
vn -0.577 -0.577 -0.577
vn -0.577 -0.577 -0.577
vn -0.577 -0.577 -0.577
vn -0.577 -0.577 -0.577
vn -0.577 -0.577 -0.577
vn -0.577 -0.577 -0.577
vn -0.577 -0.577 -0.577
vn -0.577 -0.577 -0.577
vn 0.577 0.577 0.577
vn -0.577 -0.577 -0.577
vn -0.577 -0.577 -0.577
vn 0.577 0.577 0.577
vn -0.577 -0.577 -0.577
vn -0.577 -0.577 -0.577
vn -0.577 -0.577 -0.577
vn -0.577 -0.577 -0.577
vn -0.577 -0.577 -0.577
vn -0.577 -0.577 -0.577
vn 0.577 0.577 0.577
vn -0.577 -0.577 -0.577
vn 0.577 0.577 0.577
vn -0.577 -0.577 -0.577
vn -0.577 -0.577 -0.577
vn -0.577 -0.577 -0.577
vn 0.577 0.577 0.577
vn -0.577 -0.577 -0.577
vn 0.577 0.577 0.577
vn -0.577 -0.577 -0.577
vn -0.577 -0.577 -0.577
vn -0.577 -0.577 -0.577
vn -0.577 -0.577 -0.577
vn -0.577 -0.577 -0.577
vn -0.577 -0.577 -0.577
vn 0.577 0.577 0.577
vn -0.577 -0.577 -0.577
vn -0.577 -0.577 -0.577
vn -0.577 -0.577 -0.577
vn -0.577 -0.577 -0.577
vn -0.577 -0.577 -0.577
vn -0.577 -0.577 -0.577
vn -0.577 -0.577 -0.577
vn 0.577 0.577 0.577
vn 0.577 0.577 0.577
vn -0.577 -0.577 -0.577
vn -0.577 -0.577 -0.577
vn -0.577 -0.577 -0.577
vn -0.577 -0.577 -0.577
vn -0.577 -0.577 -0.577
vn -0.577 -0.577 -0.577
vn -0.577 -0.577 -0.577
vn -0.577 -0.577 -0.577
vn -0.577 -0.577 -0.577
vn 0.577 0.577 0.577
vn -0.577 -0.577 -0.577
vn -0.577 -0.577 -0.577
vn -0.577 -0.577 -0.577
vn -0.577 -0.577 -0.577
vn -0.577 -0.577 -0.577
vn -0.577 -0.577 -0.577
vn -0.577 -0.577 -0.577
vn -0.577 -0.577 -0.577
vn -0.577 -0.577 -0.577
vn -0.577 -0.577 -0.577
vn -0.577 -0.577 -0.577
vn -0.577 -0.577 -0.577
vn -0.577 -0.577 -0.577
vn -0.577 -0.577 -0.577
vn -0.577 -0.577 -0.577
vn -0.577 -0.577 -0.577
vn -0.577 -0.577 -0.577
vn -0.577 -0.577 -0.577
vn -0.577 -0.577 -0.577
vn -0.577 -0.577 -0.577
vn -0.577 -0.577 -0.577
vn -0.577 -0.577 -0.577
vn -0.577 -0.577 -0.577
vn -0.577 -0.577 -0.577
vn -0.577 -0.577 -0.577
vn -0.577 -0.577 -0.577
vn -0.577 -0.577 -0.577
vn -0.577 -0.577 -0.577
vn -0.577 -0.577 -0.577
vn -0.577 -0.577 -0.577
vn -0.577 -0.577 -0.577
vn -0.577 -0.577 -0.577
vn -0.577 -0.577 -0.577
vn -0.577 -0.577 -0.577
vn -0.577 -0.577 -0.577
vn -0.577 -0.577 -0.577
vn -0.577 -0.577 -0.577
vn -0.577 -0.577 -0.577
vn -0.577 -0.577 -0.577
vn -0.577 -0.577 -0.577
vn -0.577 -0.577 -0.577
vn -0.577 -0.577 -0.577
vn -0.577 -0.577 -0.577
vn -0.577 -0.577 -0.577
vn -0.577 -0.577 -0.577
vn -0.577 -0.577 -0.577
vn -0.577 -0.577 -0.577
vn -0.577 -0.577 -0.577
vn -0.577 -0.577 -0.577
vn -0.577 -0.577 -0.577
vn -0.577 -0.577 -0.577
vn -0.577 -0.577 -0.577
vn -0.577 -0.577 -0.577
vn -0.577 -0.577 -0.577
vn -0.577 -0.577 -0.577
vn -0.577 -0.577 -0.577
vn -0.577 -0.577 -0.577
vn -0.577 -0.577 -0.577
vn -0.577 -0.577 -0.577
vn -0.577 -0.577 -0.577
vn -0.577 -0.577 -0.577
vn -0.577 -0.577 -0.577
vn -0.577 -0.577 -0.577
vn 0.577 0.577 0.577
vn -0.577 -0.577 -0.577
vn -0.577 -0.577 -0.577
vn -0.577 -0.577 -0.577
vn -0.577 -0.577 -0.577
vn -0.577 -0.577 -0.577
vn 0.577 0.577 0.577
vn 0.577 0.577 0.577
vn -0.577 -0.577 -0.577
vn -0.577 -0.577 -0.577
vn -0.577 -0.577 -0.577
vn -0.577 -0.577 -0.577
vn -0.577 -0.577 -0.577
vn -0.577 -0.577 -0.577
vn -0.577 -0.577 -0.577
vn -0.577 -0.577 -0.577
vn -0.577 -0.577 -0.577
vn -0.577 -0.577 -0.577
vn -0.577 -0.577 -0.577
vn -0.577 -0.577 -0.577
vn -0.577 -0.577 -0.577
vn -0.577 -0.577 -0.577
vn -0.577 -0.577 -0.577
vn -0.577 -0.577 -0.577
vn -0.577 -0.577 -0.577
vn -0.577 -0.577 -0.577
vn -0.577 -0.577 -0.577
vn -0.577 -0.577 -0.577
vn -0.577 -0.577 -0.577
vn -0.577 -0.577 -0.577
vn -0.577 -0.577 -0.577
vn -0.577 -0.577 -0.577
vn -0.577 -0.577 -0.577
vn -0.577 -0.577 -0.577
vn -0.577 -0.577 -0.577
vn -0.577 -0.577 -0.577
vn -0.577 -0.577 -0.577
vn -0.577 -0.577 -0.577
vn -0.577 -0.577 -0.577
vn -0.577 -0.577 -0.577
vn -0.577 -0.577 -0.577
vn -0.577 -0.577 -0.577
vn -0.577 -0.577 -0.577
vn -0.577 -0.577 -0.577
vn -0.577 -0.577 -0.577
vn -0.577 -0.577 -0.577
vn -0.577 -0.577 -0.577
vn -0.577 -0.577 -0.577
vn -0.577 -0.577 -0.577
vn -0.577 -0.577 -0.577
vn -0.577 -0.577 -0.577
vn -0.577 -0.577 -0.577
vn -0.577 -0.577 -0.577
vn -0.577 -0.577 -0.577
vn -0.577 -0.577 -0.577
vn -0.577 -0.577 -0.577
vn -0.577 -0.577 -0.577
vn -0.577 -0.577 -0.577
vn -0.577 -0.577 -0.577
vn -0.577 -0.577 -0.577
vn -0.577 -0.577 -0.577
vn -0.577 -0.577 -0.577
vn -0.577 -0.577 -0.577
vn -0.577 -0.577 -0.577
vn -0.577 -0.577 -0.577
vn -0.577 -0.577 -0.577
vn -0.577 -0.577 -0.577
vn -0.577 -0.577 -0.577
vn -0.577 -0.577 -0.577
vn -0.577 -0.577 -0.577
vn -0.577 -0.577 -0.577
vn -0.577 -0.577 -0.577
vn -0.577 -0.577 -0.577
vn -0.577 -0.577 -0.577
vn -0.577 -0.577 -0.577
vn -0.577 -0.577 -0.577
vn -0.577 -0.577 -0.577
vn -0.577 -0.577 -0.577
vn -0.577 -0.577 -0.577
vn -0.577 -0.577 -0.577
vn -0.577 -0.577 -0.577
vn -0.577 -0.577 -0.577
vn -0.577 -0.577 -0.577
vn -0.577 -0.577 -0.577
vn -0.577 -0.577 -0.577
vn -0.577 -0.577 -0.577
vn -0.577 -0.577 -0.577
vn -0.577 -0.577 -0.577
vn -0.577 -0.577 -0.577
vn -0.577 -0.577 -0.577
vn -0.577 -0.577 -0.577
vn -0.577 -0.577 -0.577
vn -0.577 -0.577 -0.577
vn -0.577 -0.577 -0.577
vn -0.577 -0.577 -0.577
vn -0.577 -0.577 -0.577
vn -0.577 -0.577 -0.577
vn -0.577 -0.577 -0.577
vn -0.577 -0.577 -0.577
vn -0.577 -0.577 -0.577
vn -0.577 -0.577 -0.577
vn -0.577 -0.577 -0.577
vn -0.577 -0.577 -0.577
vn -0.577 -0.577 -0.577
vn -0.577 -0.577 -0.577
vn -0.577 -0.577 -0.577
vn -0.577 -0.577 -0.577
vn -0.577 -0.577 -0.577
vn -0.577 -0.577 -0.577
vn -0.577 -0.577 -0.577
vn -0.577 -0.577 -0.577
vn 0.577 0.577 0.577
vn -0.577 -0.577 -0.577
vn -0.577 -0.577 -0.577
vn 0.577 0.577 0.577
vn -0.577 -0.577 -0.577
vn -0.577 -0.577 -0.577
vn -0.577 -0.577 -0.577
vn -0.577 -0.577 -0.577
vn -0.577 -0.577 -0.577
vn -0.577 -0.577 -0.577
vn -0.577 -0.577 -0.577
vn -0.577 -0.577 -0.577
vn -0.577 -0.577 -0.577
vn -0.577 -0.577 -0.577
vn -0.577 -0.577 -0.577
vn -0.577 -0.577 -0.577
vn -0.577 -0.577 -0.577
vn -0.577 -0.577 -0.577
vn -0.577 -0.577 -0.577
vn -0.577 -0.577 -0.577
vn -0.577 -0.577 -0.577
vn -0.577 -0.577 -0.577
vn -0.577 -0.577 -0.577
vn -0.577 -0.577 -0.577
vn -0.577 -0.577 -0.577
vn -0.577 -0.577 -0.577
vn -0.577 -0.577 -0.577
vn -0.577 -0.577 -0.577
vn -0.577 -0.577 -0.577
vn -0.577 -0.577 -0.577
vn -0.577 -0.577 -0.577
vn -0.577 -0.577 -0.577
vn -0.577 -0.577 -0.577
vn -0.577 -0.577 -0.577
vn -0.577 -0.577 -0.577
vn -0.577 -0.577 -0.577
vn -0.577 -0.577 -0.577
vn -0.577 -0.577 -0.577
vn -0.577 -0.577 -0.577
vn -0.577 -0.577 -0.577
vn -0.577 -0.577 -0.577
vn -0.577 -0.577 -0.577
vn -0.577 -0.577 -0.577
vn -0.577 -0.577 -0.577
vn -0.577 -0.577 -0.577
vn -0.577 -0.577 -0.577
vn -0.577 -0.577 -0.577
vn -0.577 -0.577 -0.577
vn -0.577 -0.577 -0.577
vn -0.577 -0.577 -0.577
vn -0.577 -0.577 -0.577
vn -0.577 -0.577 -0.577
vn -0.577 -0.577 -0.577
vn -0.577 -0.577 -0.577
vn -0.577 -0.577 -0.577
vn -0.577 -0.577 -0.577
vn -0.577 -0.577 -0.577
vn -0.577 -0.577 -0.577
vn -0.577 -0.577 -0.577
vn -0.577 -0.577 -0.577
vn -0.577 -0.577 -0.577
vn -0.577 -0.577 -0.577
vn -0.577 -0.577 -0.577
vn -0.577 -0.577 -0.577
vn -0.577 -0.577 -0.577
vn -0.577 -0.577 -0.577
vn -0.577 -0.577 -0.577
vn -0.577 -0.577 -0.577
vn -0.577 -0.577 -0.577
vn -0.577 -0.577 -0.577
vn -0.577 -0.577 -0.577
vn -0.577 -0.577 -0.577
vn -0.577 -0.577 -0.577
vn -0.577 -0.577 -0.577
vn -0.577 -0.577 -0.577
vn -0.577 -0.577 -0.577
vn -0.577 -0.577 -0.577
vn -0.577 -0.577 -0.577
vn -0.577 -0.577 -0.577
vn -0.577 -0.577 -0.577
vn -0.577 -0.577 -0.577
vn -0.577 -0.577 -0.577
vn -0.577 -0.577 -0.577
vn -0.577 -0.577 -0.577
vn -0.577 -0.577 -0.577
vn -0.577 -0.577 -0.577
vn -0.577 -0.577 -0.577
vn -0.577 -0.577 -0.577
vn -0.577 -0.577 -0.577
vn -0.577 -0.577 -0.577
vn -0.577 -0.577 -0.577
vn -0.577 -0.577 -0.577
vn -0.577 -0.577 -0.577
vn -0.577 -0.577 -0.577
vn -0.577 -0.577 -0.577
vn -0.577 -0.577 -0.577
vn -0.577 -0.577 -0.577
vn -0.577 -0.577 -0.577
vn -0.577 -0.577 -0.577
vn -0.577 -0.577 -0.577
vn -0.577 -0.577 -0.577
vn -0.577 -0.577 -0.577
vn -0.577 -0.577 -0.577
vn -0.577 -0.577 -0.577
vn -0.577 -0.577 -0.577
vn -0.577 -0.577 -0.577
vn -0.577 -0.577 -0.577
vn -0.577 -0.577 -0.577
vn -0.577 -0.577 -0.577
vn -0.577 -0.577 -0.577
vn -0.577 -0.577 -0.577
vn -0.577 -0.577 -0.577
vn -0.577 -0.577 -0.577
vn -0.577 -0.577 -0.577
vn -0.577 -0.577 -0.577
vn -0.577 -0.577 -0.577
vn -0.577 -0.577 -0.577
vn -0.577 -0.577 -0.577
vn -0.577 -0.577 -0.577
vn -0.577 -0.577 -0.577
vn -0.577 -0.577 -0.577
vn -0.577 -0.577 -0.577
vn -0.577 -0.577 -0.577
vn -0.577 -0.577 -0.577
vn -0.577 -0.577 -0.577
vn -0.577 -0.577 -0.577
vn -0.577 -0.577 -0.577
vn -0.577 -0.577 -0.577
vn -0.577 -0.577 -0.577
vn -0.577 -0.577 -0.577
vn -0.577 -0.577 -0.577
vn -0.577 -0.577 -0.577
vn -0.577 -0.577 -0.577
vn -0.577 -0.577 -0.577
vn -0.577 -0.577 -0.577
vn -0.577 -0.577 -0.577
vn -0.577 -0.577 -0.577
vn -0.577 -0.577 -0.577
vn -0.577 -0.577 -0.577
vn -0.577 -0.577 -0.577
vn -0.577 -0.577 -0.577
vn -0.577 -0.577 -0.577
vn -0.577 -0.577 -0.577
vn -0.577 -0.577 -0.577
vn -0.577 -0.577 -0.577
vn -0.577 -0.577 -0.577
vn -0.577 -0.577 -0.577
vn -0.577 -0.577 -0.577
vn -0.577 -0.577 -0.577
vn -0.577 -0.577 -0.577
vn -0.577 -0.577 -0.577
vn -0.577 -0.577 -0.577
vn -0.577 -0.577 -0.577
vn -0.577 -0.577 -0.577
vn -0.577 -0.577 -0.577
vn -0.577 -0.577 -0.577
vn -0.577 -0.577 -0.577
vn -0.577 -0.577 -0.577
vn -0.577 -0.577 -0.577
vn -0.577 -0.577 -0.577
vn 0.577 0.577 0.577
vn -0.577 -0.577 -0.577
vn -0.577 -0.577 -0.577
vn -0.577 -0.577 -0.577
vn -0.577 -0.577 -0.577
vn -0.577 -0.577 -0.577
vn -0.577 -0.577 -0.577
vn -0.577 -0.577 -0.577
vn 0.577 0.577 0.577
vn -0.577 -0.577 -0.577
vn -0.577 -0.577 -0.577
vn -0.577 -0.577 -0.577
vn -0.577 -0.577 -0.577
vn -0.577 -0.577 -0.577
vn -0.577 -0.577 -0.577
vn -0.577 -0.577 -0.577
vn -0.577 -0.577 -0.577
vn -0.577 -0.577 -0.577
vn -0.577 -0.577 -0.577
vn -0.577 -0.577 -0.577
vn -0.577 -0.577 -0.577
vn -0.577 -0.577 -0.577
vn -0.577 -0.577 -0.577
vn -0.577 -0.577 -0.577
vn -0.577 -0.577 -0.577
vn -0.577 -0.577 -0.577
vn -0.577 -0.577 -0.577
vn -0.577 -0.577 -0.577
vn -0.577 -0.577 -0.577
vn -0.577 -0.577 -0.577
vn -0.577 -0.577 -0.577
vn -0.577 -0.577 -0.577
vn -0.577 -0.577 -0.577
vn -0.577 -0.577 -0.577
vn -0.577 -0.577 -0.577
vn -0.577 -0.577 -0.577
vn -0.577 -0.577 -0.577
vn -0.577 -0.577 -0.577
vn -0.577 -0.577 -0.577
vn -0.577 -0.577 -0.577
vn -0.577 -0.577 -0.577
vn -0.577 -0.577 -0.577
vn -0.577 -0.577 -0.577
vn -0.577 -0.577 -0.577
vn -0.577 -0.577 -0.577
vn -0.577 -0.577 -0.577
vn -0.577 -0.577 -0.577
usemtl tex_1882_lit_w10
f 1/1/1 2/2/2 3/3/3
f 4/4/4 2/2/2 1/1/1
f 5/5/5 6/6/6 1/1/1
f 4/4/4 7/7/7 8/8/8
f 7/7/7 1/1/1 6/6/6
f 4/4/4 1/1/1 7/7/7
f 8/8/8 9/9/9 3/3/3
f 8/8/8 3/3/3 2/2/2
f 7/7/7 10/10/10 8/8/8
f 9/9/9 5/5/5 3/3/3
f 7/7/7 6/6/6 5/5/5
f 3/3/3 5/5/5 1/1/1
f 2/2/2 4/4/4 8/8/8
f 10/10/10 7/7/7 5/5/5
usemtl tex_1879_lit_w01
f 11/11/11 12/12/12 13/13/13
f 12/12/12 14/14/14 15/15/15
f 15/15/15 14/14/14 16/16/16
f 14/14/14 17/17/17 16/16/16
f 17/17/17 18/18/18 16/16/16
f 17/17/17 19/19/19 18/18/18
f 20/20/20 21/21/21 22/22/22
f 20/20/20 22/22/22 23/23/23
usemtl tex_1880_lit_w01
f 28/24/28 29/25/29 24/26/24
f 30/27/30 25/28/25 24/26/24
f 29/25/29 30/27/30 24/26/24
f 31/29/31 26/30/26 27/31/27
f 30/27/30 27/31/27 25/28/25
f 30/27/30 31/29/31 27/31/27
f 28/24/28 24/26/24 26/30/26
f 31/29/31 28/24/28 26/30/26
usemtl tex_1879_lit_w01
f 38/18/38 32/32/32 39/16/39
f 33/33/33 34/34/34 40/23/40
f 41/22/41 33/33/33 40/23/40
f 35/35/35 33/33/33 41/22/41
f 42/15/42 36/36/36 43/11/43
f 37/37/37 36/36/36 42/15/42
f 39/16/39 37/37/37 42/15/42
f 32/32/32 37/37/37 39/16/39
f 44/38/44 45/39/45 46/40/46
f 47/41/47 48/42/48 49/43/49
f 45/39/45 50/44/50 46/40/46
f 49/43/49 51/45/51 52/46/52
usemtl tex_1879_lit_w01_ovl
f 53/47/53 54/48/54 55/49/55
usemtl tex_1879_lit_w01
f 50/44/50 54/48/54 53/47/53
f 46/40/46 50/44/50 53/47/53
f 47/41/47 49/43/49 52/46/52
f 52/46/52 56/50/56 57/51/57
f 52/46/52 57/51/57 47/41/47
f 58/44/58 59/39/59 60/52/60
f 58/44/58 60/52/60 61/48/61
f 62/53/62 63/54/63 68/55/68
f 69/56/69 63/54/63 64/57/64
f 70/58/70 64/57/64 65/59/65
f 70/58/70 69/56/69 64/57/64
f 66/60/66 71/61/71 72/62/72
f 63/54/63 69/56/69 68/55/68
f 67/63/67 66/60/66 72/62/72
f 72/62/72 73/64/73 67/63/67
f 80/33/80 74/62/74 81/34/81
f 75/64/75 74/62/74 80/33/80
f 82/35/82 75/64/75 80/33/80
f 76/56/76 77/58/77 83/36/83
f 84/37/84 76/56/76 83/36/83
f 78/55/78 76/56/76 84/37/84
f 85/32/85 78/55/78 84/37/84
f 74/62/74 79/61/79 81/34/81
f 86/65/86 87/66/87 88/45/88
f 89/44/89 90/67/90 91/68/91
f 92/69/92 93/43/93 94/42/94
f 95/48/95 89/44/89 91/68/91
f 86/65/86 88/45/88 93/43/93
f 90/67/90 89/44/89 96/39/96
f 92/69/92 86/65/86 93/43/93
f 92/69/92 94/42/94 97/70/97
f 98/70/98 99/66/99 100/65/100
f 98/70/98 100/65/100 101/69/101
f 102/44/102 103/48/103 104/52/104
f 102/44/102 104/52/104 105/39/105
usemtl tex_1882_lit_w10
f 106/71/106 107/72/107 108/73/108
f 108/73/108 107/72/107 109/74/109
f 108/73/108 110/75/110 111/76/111
f 112/77/112 113/78/113 109/74/109
f 110/75/110 108/73/108 113/78/113
f 113/78/113 108/73/108 109/74/109
f 106/71/106 114/79/114 112/77/112
f 107/72/107 106/71/106 112/77/112
f 112/77/112 115/80/115 113/78/113
f 106/71/106 111/76/111 114/79/114
f 113/78/113 115/80/115 111/76/111
f 108/73/108 111/76/111 106/71/106
f 112/77/112 109/74/109 107/72/107
f 110/75/110 113/78/113 111/76/111
usemtl tex_1879_lit_w01
f 116/81/116 117/82/117 118/83/118
f 118/83/118 117/82/117 119/84/119
f 118/83/118 119/84/119 120/85/120
f 120/85/120 121/86/121 118/83/118
f 121/86/121 120/85/120 122/87/122
f 122/87/122 120/85/120 123/88/123
f 124/89/124 125/90/125 126/91/126
f 126/91/126 127/92/127 124/89/124
usemtl tex_1880_lit_w01
f 128/93/128 132/94/132 133/95/133
f 128/93/128 129/96/129 134/97/134
f 128/93/128 134/97/134 132/94/132
f 130/98/130 131/99/131 135/100/135
f 129/96/129 130/98/130 134/97/134
f 130/98/130 135/100/135 134/97/134
f 131/99/131 128/93/128 133/95/133
f 131/99/131 133/95/133 135/100/135
usemtl tex_1879_lit_w01
f 142/83/142 136/101/136 143/81/143
f 137/102/137 138/103/138 144/91/144
f 142/83/142 139/104/139 136/101/136
f 145/90/145 140/105/140 137/102/137
f 146/87/146 141/106/141 147/86/147
f 147/86/147 141/106/141 139/104/139
f 147/86/147 139/104/139 142/83/142
f 145/90/145 137/102/137 144/91/144
f 148/107/148 149/108/149 150/109/150
f 151/110/151 152/111/152 153/112/153
f 154/113/154 155/114/155 156/115/156
f 150/109/150 149/108/149 151/110/151
f 157/116/157 158/117/158 159/118/159
f 159/118/159 158/117/158 155/114/155
f 159/118/159 155/114/155 154/113/154
f 150/109/150 151/110/151 153/112/153
f 153/112/153 160/119/160 148/107/148
f 153/112/153 148/107/148 150/109/150
f 158/117/158 161/120/161 162/115/162
f 158/117/158 162/115/162 163/114/163
f 170/121/170 164/122/164 165/123/165
f 166/124/166 164/122/164 171/125/171
f 172/126/172 173/127/173 167/128/167
f 166/124/166 171/125/171 174/129/174
f 173/127/173 175/130/175 168/131/168
f 170/121/170 171/125/171 164/122/164
f 173/127/173 168/131/168 167/128/167
f 166/124/166 174/129/174 169/132/169
f 182/102/182 176/126/176 183/103/183
f 182/102/182 177/127/177 176/126/176
f 184/105/184 177/127/177 182/102/182
f 185/106/185 178/129/178 179/125/179
f 185/106/185 179/125/179 186/104/186
f 186/104/186 179/125/179 180/121/180
f 186/104/186 180/121/180 187/101/187
f 184/105/184 181/130/181 177/127/177
f 188/115/188 189/133/189 190/134/190
f 191/135/191 189/133/189 192/114/192
f 193/111/193 194/110/194 195/136/195
f 191/135/191 192/114/192 196/117/196
f 194/110/194 197/108/197 198/137/198
f 188/115/188 192/114/192 189/133/189
f 194/110/194 198/137/198 195/136/195
f 199/138/199 193/111/193 195/136/195
f 200/136/200 201/137/201 202/139/202
f 200/136/200 202/139/202 203/138/203
f 204/115/204 205/120/205 206/117/206
f 204/115/204 206/117/206 207/114/207
usemtl tex_1881_lit_w01
f 208/140/208 215/141/215 216/142/216
f 217/143/217 209/144/209 210/145/210
f 209/144/209 218/146/218 208/140/208
f 218/146/218 215/141/215 208/140/208
f 211/147/211 208/140/208 216/142/216
f 211/147/211 216/142/216 219/148/219
f 211/147/211 219/148/219 212/149/212
f 220/150/220 213/151/213 214/152/214
f 220/150/220 221/153/221 213/151/213
f 209/144/209 217/143/217 218/146/218
usemtl tex_1609_lit
f 222/154/222 223/155/223 224/156/224
f 224/156/224 223/155/223 225/157/225
usemtl tex_1613_lit_w11
f 226/158/226 227/159/227 228/160/228
f 228/160/228 227/159/227 229/161/229
usemtl tex_1616_lit_w11
f 230/162/230 231/163/231 232/164/232
f 232/164/232 231/163/231 233/165/233
usemtl tex_1619_lit_w11
f 234/166/234 235/167/235 236/168/236
f 236/168/236 235/167/235 237/169/237
usemtl tex_1622_lit_w11
f 238/170/238 239/171/239 240/172/240
f 240/172/240 239/171/239 241/173/241
usemtl tex_1871_lit_w10
f 249/174/249 242/175/242 243/176/243
f 243/176/243 244/177/244 250/178/250
f 244/177/244 245/179/245 250/178/250
f 246/180/246 247/181/247 251/182/251
f 248/183/248 246/180/246 252/184/252
f 245/179/245 253/185/253 250/178/250
f 249/174/249 243/176/243 250/178/250
f 246/180/246 251/182/251 252/184/252
f 242/175/242 249/174/249 254/186/254
f 262/183/262 255/187/255 263/180/263
f 256/188/256 255/187/255 262/183/262
f 264/177/264 257/189/257 265/179/265
f 258/190/258 257/189/257 264/177/264
f 266/176/266 258/190/258 264/177/264
f 259/191/259 258/190/258 266/176/266
f 263/180/263 260/192/260 267/181/267
f 255/187/255 260/192/260 263/180/263
f 268/175/268 259/191/259 266/176/266
f 261/193/261 259/191/259 268/175/268
f 269/194/269 270/195/270 271/196/271
f 271/196/271 272/197/272 273/198/273
f 274/199/274 270/195/270 275/200/275
f 273/198/273 274/199/274 276/201/276
f 273/198/273 272/197/272 274/199/274
f 270/195/270 269/194/269 275/200/275
f 269/194/269 271/196/271 273/198/273
f 274/199/274 275/200/275 276/201/276
f 271/196/271 270/195/270 274/199/274
f 271/196/271 274/199/274 277/197/277
f 278/202/278 279/203/279 280/204/280
f 281/205/281 282/206/282 280/204/280
f 283/207/283 284/208/284 285/209/285
f 282/206/282 278/202/278 280/204/280
f 286/210/286 287/211/287 279/203/279
f 279/203/279 287/211/287 288/212/288
f 289/213/289 284/208/284 290/214/290
f 279/203/279 288/212/288 280/204/280
f 284/208/284 289/213/289 285/209/285
f 289/213/289 290/214/290 291/215/291
f 300/202/300 292/216/292 301/203/301
f 301/203/301 292/216/292 293/217/293
f 301/203/301 293/217/293 302/210/302
f 303/218/303 294/219/294 295/220/295
f 304/207/304 296/221/296 305/208/305
f 305/208/305 296/221/296 297/222/297
f 305/208/305 297/222/297 306/214/306
f 306/214/306 297/222/297 298/223/298
f 307/206/307 299/224/299 300/202/300
f 300/202/300 299/224/299 292/216/292
f 315/188/315 308/213/308 316/187/316
f 309/209/309 308/213/308 315/188/315
f 317/190/317 310/211/310 318/189/318
f 311/212/311 310/211/310 317/190/317
f 319/191/319 311/212/311 317/190/317
f 312/204/312 311/212/311 319/191/319
f 316/187/316 308/213/308 320/192/320
f 313/205/313 312/204/312 319/191/319
f 321/193/321 313/205/313 319/191/319
f 308/213/308 314/215/314 320/192/320
f 322/225/322 323/226/323 324/196/324
f 325/195/325 326/227/326 324/196/324
f 326/227/326 322/225/322 324/196/324
f 327/228/327 328/199/328 323/226/323
f 323/226/323 328/199/328 329/197/329
f 325/195/325 327/228/327 326/227/326
f 323/226/323 329/197/329 324/196/324
f 327/228/327 325/195/325 328/199/328
f 322/225/322 326/227/326 327/228/327
f 327/228/327 323/226/323 322/225/322
f 330/197/330 328/199/328 325/195/325
f 330/197/330 325/195/325 324/196/324
usemtl tex_1609_lit
f 331/229/331 332/230/332 333/231/333
f 334/232/334 332/230/332 331/229/331
usemtl tex_1613_lit_w11
f 335/233/335 336/234/336 337/235/337
f 338/236/338 336/234/336 335/233/335
usemtl tex_1616_lit_w11
f 339/237/339 340/238/340 341/239/341
f 342/240/342 340/238/340 339/237/339
usemtl tex_1619_lit_w11
f 343/241/343 344/242/344 345/243/345
f 346/244/346 344/242/344 343/241/343
usemtl tex_1622_lit_w11
f 347/245/347 348/246/348 349/247/349
f 350/248/350 348/246/348 347/245/347
usemtl tex_1871_lit_w10
f 351/249/351 352/250/352 358/251/358
f 359/252/359 353/253/353 351/249/351
f 359/252/359 354/254/354 353/253/353
f 360/255/360 355/256/355 356/257/356
f 361/258/361 356/257/356 357/259/357
f 359/252/359 362/260/362 354/254/354
f 359/252/359 351/249/351 358/251/358
f 361/258/361 360/255/360 356/257/356
f 363/261/363 358/251/358 352/250/352
f 371/257/371 364/262/364 372/259/372
f 372/259/372 364/262/364 365/263/365
f 373/254/373 366/264/366 374/253/374
f 374/253/374 366/264/366 367/265/367
f 374/253/374 367/265/367 375/249/375
f 375/249/375 367/265/367 368/266/368
f 376/256/376 369/267/369 371/257/371
f 371/257/371 369/267/369 364/262/364
f 375/249/375 368/266/368 377/250/377
f 377/250/377 368/266/368 370/268/370
f 378/269/378 379/270/379 380/271/380
f 381/272/381 382/273/382 378/269/378
f 383/274/383 379/270/379 384/275/384
f 385/276/385 384/275/384 381/272/381
f 384/275/384 382/273/382 381/272/381
f 383/274/383 380/271/380 379/270/379
f 381/272/381 378/269/378 380/271/380
f 385/276/385 383/274/383 384/275/384
f 379/270/379 378/269/378 386/273/386
f 379/270/379 386/273/386 384/275/384
f 387/277/387 388/278/388 389/279/389
f 387/277/387 390/280/390 391/281/391
f 392/282/392 393/283/393 394/284/394
f 387/277/387 389/279/389 390/280/390
f 388/278/388 395/285/395 396/286/396
f 397/287/397 395/285/395 388/278/388
f 398/288/398 393/283/393 399/289/399
f 387/277/387 397/287/397 388/278/388
f 392/282/392 399/289/399 393/283/393
f 400/290/400 398/288/398 399/289/399
f 408/278/408 401/291/401 409/279/409
f 402/292/402 401/291/401 408/278/408
f 410/286/410 402/292/402 408/278/408
f 403/293/403 402/292/402 410/286/410
f 411/283/411 404/294/404 412/284/412
f 405/295/405 404/294/404 411/283/411
f 413/288/413 405/295/405 411/283/411
f 406/296/406 405/295/405 413/288/413
f 409/279/409 407/297/407 414/280/414
f 401/291/401 407/297/407 409/279/409
f 422/262/422 415/289/415 423/263/423
f 423/263/423 415/289/415 416/282/416
f 424/264/424 417/285/417 425/265/425
f 425/265/425 417/285/417 418/287/418
f 425/265/425 418/287/418 426/266/426
f 426/266/426 418/287/418 419/277/419
f 427/267/427 415/289/415 422/262/422
f 426/266/426 419/277/419 420/281/420
f 426/266/426 420/281/420 428/268/428
f 427/267/427 421/290/421 415/289/415
f 429/298/429 430/299/430 431/300/431
f 431/300/431 432/301/432 429/298/429
f 433/269/433 431/300/431 430/299/430
f 433/269/433 429/298/429 434/270/434
f 433/269/433 430/299/430 429/298/429
f 431/300/431 435/275/435 432/301/432
f 436/273/436 435/275/435 431/300/431
f 429/298/429 432/301/432 434/270/434
f 433/269/433 436/273/436 431/300/431
f 435/275/435 434/270/434 432/301/432
f 435/275/435 437/273/437 433/269/433
f 435/275/435 433/269/433 434/270/434
usemtl tex_1877_lit_w01
f 438/302/438 439/303/439 440/304/440
f 440/304/440 441/305/441 442/306/442
f 443/307/443 442/306/442 444/308/444
f 445/309/445 446/310/446 447/311/447
f 443/307/443 440/304/440 442/306/442
f 443/307/443 438/302/438 440/304/440
f 448/312/448 440/304/440 449/313/449
f 442/306/442 447/311/447 450/314/450
f 441/305/441 445/309/445 442/306/442
f 451/315/451 446/310/446 452/316/452
f 453/317/453 443/307/443 444/308/444
f 448/312/448 441/305/441 440/304/440
f 444/308/444 442/306/442 450/314/450
f 454/317/454 455/308/455 456/318/456
f 457/306/457 458/309/458 459/311/459
f 460/305/460 461/316/461 458/309/458
f 462/310/462 458/309/458 461/316/461
f 454/317/454 456/318/456 463/319/463
f 455/308/455 464/314/464 456/318/456
usemtl tex_1876_lit_w01
f 465/320/465 466/321/466 467/322/467
f 468/323/468 465/320/465 469/324/469
f 470/302/470 471/325/471 472/303/472
f 473/324/473 474/320/474 475/322/475
f 476/326/476 477/319/477 478/321/478
f 479/327/479 477/319/477 476/326/476
f 480/328/480 481/312/481 482/313/482
f 483/329/483 481/312/481 480/328/480
f 484/330/484 474/320/474 485/323/485
f 484/330/484 485/323/485 480/328/480
f 471/325/471 484/330/484 480/328/480
f 485/323/485 483/329/483 480/328/480
f 471/325/471 470/302/470 479/327/479
f 486/322/486 487/310/487 488/315/488
f 489/321/489 490/319/490 491/318/491
f 492/325/492 493/327/493 494/330/494
f 495/326/495 496/320/496 494/330/494
f 493/327/493 495/326/495 494/330/494
f 496/320/496 495/326/495 489/321/489
f 497/324/497 488/315/488 498/329/498
f 497/324/497 486/322/486 488/315/488
f 499/323/499 497/324/497 498/329/498
usemtl tex_1877_lit_w01
f 500/331/500 506/314/506 501/332/501
f 501/332/501 507/311/507 502/333/502
f 501/332/501 506/314/506 507/311/507
f 503/334/503 508/318/508 500/331/500
f 500/331/500 508/318/508 506/314/506
f 502/333/502 507/311/507 509/310/509
usemtl tex_1876_lit_w01
f 502/333/502 509/310/509 504/335/504
f 504/335/504 509/310/509 510/322/510
f 504/335/504 510/322/510 505/336/505
f 505/336/505 510/322/510 511/321/511
f 505/336/505 511/321/511 503/334/503
f 503/334/503 511/321/511 508/318/508
usemtl tex_1877_lit_w01
f 512/337/512 513/338/513 514/339/514
f 515/337/515 516/340/516 517/341/517
f 513/338/513 512/337/512 518/342/518
f 515/337/515 519/339/519 516/340/516
f 520/343/520 521/344/521 522/340/522
f 521/344/521 523/341/523 522/340/522
usemtl tex_1876_lit_w01
f 524/345/524 525/346/525 526/347/526
f 527/348/527 524/345/524 526/347/526
f 528/349/528 529/350/529 530/351/530
f 531/352/531 532/353/532 533/354/533
f 529/350/529 534/355/534 530/351/530
f 535/356/535 533/354/533 532/353/532
usemtl tex_1877_lit_w01
f 536/357/536 537/358/537 538/359/538
f 539/360/539 540/361/540 538/359/538
f 541/362/541 539/360/539 542/363/542
f 542/363/542 539/360/539 543/364/543
f 543/364/543 539/360/539 538/359/538
f 538/359/538 537/358/537 543/364/543
f 544/365/544 536/357/536 538/359/538
usemtl tex_1876_lit_w01
f 545/366/545 541/362/541 542/363/542
f 546/367/546 536/357/536 544/365/544
f 545/366/545 546/367/546 547/368/547
f 548/369/548 540/361/540 549/370/549
f 548/369/548 547/368/547 550/371/550
f 541/362/541 547/368/547 549/370/549
f 547/368/547 548/369/548 549/370/549
f 550/371/550 540/361/540 548/369/548
f 547/368/547 546/367/546 544/365/544
f 547/368/547 544/365/544 550/371/550
f 541/362/541 545/366/545 547/368/547
usemtl tex_1877_lit_w01
f 551/358/551 557/331/557 552/364/552
f 552/364/552 557/331/557 558/332/558
f 552/364/552 558/332/558 553/363/553
f 553/363/553 558/332/558 559/333/559
f 554/357/554 560/334/560 551/358/551
f 551/358/551 560/334/560 557/331/557
usemtl tex_1876_lit_w01
f 553/363/553 559/333/559 555/366/555
f 555/366/555 559/333/559 561/335/561
f 555/366/555 561/335/561 556/367/556
f 556/367/556 561/335/561 562/336/562
f 556/367/556 562/336/562 554/357/554
f 554/357/554 562/336/562 560/334/560
usemtl tex_1877_lit_w01
f 563/372/563 564/373/564 565/374/565
f 566/375/566 563/372/563 565/374/565
f 567/376/567 568/375/568 569/377/569
f 567/376/567 570/372/570 568/375/568
f 571/378/571 572/374/572 573/373/573
f 571/378/571 573/373/573 574/379/574
usemtl tex_1876_lit_w01
f 575/380/575 576/381/576 577/382/577
f 575/380/575 577/382/577 578/383/578
f 579/384/579 580/385/580 581/386/581
f 579/384/579 582/387/582 580/385/580
f 583/388/583 584/389/584 585/390/585
f 585/390/585 584/389/584 586/391/586
