mtllib CmoonfemaleZ.mtl
v -230.91940307617188 327.08775198459625 34.0 1.000 1.000 1.000
v -178.91940307617188 360.08775198459625 8.0 1.000 1.000 1.000
v -184.91940307617188 359.08775198459625 -37.0 1.000 1.000 1.000
v -280.9194030761719 360.08775198459625 8.0 1.000 1.000 1.000
v -280.9194030761719 360.08775198459625 8.0 1.000 1.000 1.000
v -280.9194030761719 360.08775198459625 8.0 1.000 1.000 1.000
v -278.9194030761719 359.08775198459625 -40.0 1.000 1.000 1.000
v -225.91940307617188 358.08775198459625 -49.0 1.000 1.000 1.000
v -5.144639015197754 382.83978271484375 42.0 1.000 1.000 1.000
v -50.144639015197754 399.83978271484375 13.0 1.000 1.000 1.000
v 29.855360984802246 387.83978271484375 -37.0 1.000 1.000 1.000
v 46.855360984802246 398.83978271484375 13.0 1.000 1.000 1.000
v -35.144639015197754 388.83978271484375 -36.0 1.000 1.000 1.000
v 339.4684295654297 -35.798519998788834 72.18532991409302 1.000 1.000 1.000
v 226.4684295654297 -21.798519998788834 50.18532991409302 1.000 1.000 1.000
v 336.4684295654297 -37.798519998788834 -24.814670085906982 1.000 1.000 1.000
v 228.4684295654297 -20.798519998788834 -12.814670085906982 1.000 1.000 1.000
v 336.4684295654297 -37.798519998788834 -24.814670085906982 1.000 1.000 1.000
v 314.4684295654297 43.201480001211166 -27.814670085906982 1.000 1.000 1.000
v 339.4684295654297 -35.798519998788834 72.18532991409302 1.000 1.000 1.000
v 317.4684295654297 44.201480001211166 69.18532991409302 1.000 1.000 1.000
v 226.4684295654297 -21.798519998788834 50.18532991409302 1.000 1.000 1.000
v 339.4684295654297 -35.798519998788834 72.18532991409302 1.000 1.000 1.000
v 229.4684295654297 23.201480001211166 47.18532991409302 1.000 1.000 1.000
v 231.4684295654297 20.201480001211166 -12.814670085906982 1.000 1.000 1.000
v 229.4684295654297 23.201480001211166 47.18532991409302 1.000 1.000 1.000
v 314.4684295654297 43.201480001211166 -27.814670085906982 1.000 1.000 1.000
v 317.4684295654297 44.201480001211166 69.18532991409302 1.000 1.000 1.000
v 314.4684295654297 43.201480001211166 -27.814670085906982 1.000 1.000 1.000
v 336.4684295654297 -37.798519998788834 -24.814670085906982 1.000 1.000 1.000
v 231.4684295654297 20.201480001211166 -12.814670085906982 1.000 1.000 1.000
v 228.4684295654297 -20.798519998788834 -12.814670085906982 1.000 1.000 1.000
v 229.4684295654297 23.201480001211166 47.18532991409302 1.000 1.000 1.000
v 339.4684295654297 -35.798519998788834 72.18532991409302 1.000 1.000 1.000
v 317.4684295654297 44.201480001211166 69.18532991409302 1.000 1.000 1.000
v 422.1624616384506 279.6345748901367 52.7601900100708 1.000 1.000 1.000
v 423.1624616384506 283.6345748901367 -35.2398099899292 1.000 1.000 1.000
v 383.1624616384506 363.6345748901367 56.7601900100708 1.000 1.000 1.000
v 402.1624616384506 348.6345748901367 -37.2398099899292 1.000 1.000 1.000
v 383.1624616384506 363.6345748901367 56.7601900100708 1.000 1.000 1.000
v 402.1624616384506 348.6345748901367 -37.2398099899292 1.000 1.000 1.000
v 226.4684295654297 -21.798519998788834 50.18532991409302 1.000 1.000 1.000
v 229.4684295654297 23.201480001211166 47.18532991409302 1.000 1.000 1.000
v 229.4684295654297 23.201480001211166 47.18532991409302 1.000 1.000 1.000
v 231.4684295654297 20.201480001211166 -12.814670085906982 1.000 1.000 1.000
v 228.4684295654297 -20.798519998788834 -12.814670085906982 1.000 1.000 1.000
v 228.4684295654297 -20.798519998788834 -12.814670085906982 1.000 1.000 1.000
v 353.1624616384506 332.6345748901367 -35.2398099899292 1.000 1.000 1.000
v 351.1624616384506 278.6345748901367 -31.2398099899292 1.000 1.000 1.000
v 314.1624616384506 354.6345748901367 -7.239809989929199 1.000 1.000 1.000
v 351.1624616384506 347.6345748901367 -33.2398099899292 1.000 1.000 1.000
v 351.1624616384506 355.6345748901367 24.7601900100708 1.000 1.000 1.000
v 348.1624616384506 328.6345748901367 43.7601900100708 1.000 1.000 1.000
v 348.1624616384506 328.6345748901367 43.7601900100708 1.000 1.000 1.000
v 354.1624616384506 275.6345748901367 13.7601900100708 1.000 1.000 1.000
v 349.1624616384506 273.6345748901367 48.7601900100708 1.000 1.000 1.000
v 353.1624616384506 332.6345748901367 -35.2398099899292 1.000 1.000 1.000
v 423.1624616384506 283.6345748901367 -35.2398099899292 1.000 1.000 1.000
v 402.1624616384506 348.6345748901367 -37.2398099899292 1.000 1.000 1.000
v 402.1624616384506 348.6345748901367 -37.2398099899292 1.000 1.000 1.000
v 383.1624616384506 363.6345748901367 56.7601900100708 1.000 1.000 1.000
v 422.1624616384506 279.6345748901367 52.7601900100708 1.000 1.000 1.000
v 383.1624616384506 363.6345748901367 56.7601900100708 1.000 1.000 1.000
v 155.77948129177094 249.40526580810547 -49.0 1.000 1.000 1.000
v 282.77948129177094 271.40526580810547 -38.0 1.000 1.000 1.000
v 294.77948129177094 267.40526580810547 54.0 1.000 1.000 1.000
v 157.77948129177094 243.40526580810547 48.0 1.000 1.000 1.000
v 81.77948129177094 308.40526580810547 -45.0 1.000 1.000 1.000
v 70.77948129177094 313.40526580810547 -7.0 1.000 1.000 1.000
v 114.77948129177094 332.40526580810547 29.0 1.000 1.000 1.000
v 254.77948129177094 348.40526580810547 22.0 1.000 1.000 1.000
v 254.77948129177094 348.40526580810547 22.0 1.000 1.000 1.000
v 114.77948129177094 332.40526580810547 29.0 1.000 1.000 1.000
v 75.77948129177094 317.40526580810547 21.0 1.000 1.000 1.000
v 289.77948129177094 346.40526580810547 -46.0 1.000 1.000 1.000
v 81.77948129177094 308.40526580810547 -45.0 1.000 1.000 1.000
v 289.77948129177094 346.40526580810547 -46.0 1.000 1.000 1.000
v -94.91940307617188 224.08775198459625 -50.0 1.000 1.000 1.000
v -102.91940307617188 224.08775198459625 49.0 1.000 1.000 1.000
v -91.91940307617188 293.08775198459625 50.0 1.000 1.000 1.000
v -89.91940307617188 336.08775198459625 15.0 1.000 1.000 1.000
v -89.91940307617188 336.08775198459625 15.0 1.000 1.000 1.000
v -90.91940307617188 332.08775198459625 -28.0 1.000 1.000 1.000
v -92.91940307617188 299.08775198459625 -55.0 1.000 1.000 1.000
v -90.91940307617188 332.08775198459625 -28.0 1.000 1.000 1.000
v 155.77948129177094 249.40526580810547 -49.0 1.000 1.000 1.000
v 157.77948129177094 243.40526580810547 48.0 1.000 1.000 1.000
v 114.77948129177094 332.40526580810547 29.0 1.000 1.000 1.000
v 75.77948129177094 317.40526580810547 21.0 1.000 1.000 1.000
v 70.77948129177094 313.40526580810547 -7.0 1.000 1.000 1.000
v 75.77948129177094 317.40526580810547 21.0 1.000 1.000 1.000
v 81.77948129177094 308.40526580810547 -45.0 1.000 1.000 1.000
v 81.77948129177094 308.40526580810547 -45.0 1.000 1.000 1.000
v 282.77948129177094 271.40526580810547 -38.0 1.000 1.000 1.000
v 289.77948129177094 346.40526580810547 -46.0 1.000 1.000 1.000
v 254.77948129177094 348.40526580810547 22.0 1.000 1.000 1.000
v 294.77948129177094 267.40526580810547 54.0 1.000 1.000 1.000
v 254.77948129177094 348.40526580810547 22.0 1.000 1.000 1.000
v 289.77948129177094 346.40526580810547 -46.0 1.000 1.000 1.000
v 351.1624616384506 278.6345748901367 -31.2398099899292 1.000 1.000 1.000
v 354.1624616384506 275.6345748901367 13.7601900100708 1.000 1.000 1.000
v 353.1624616384506 332.6345748901367 -35.2398099899292 1.000 1.000 1.000
v 351.1624616384506 347.6345748901367 -33.2398099899292 1.000 1.000 1.000
v 353.1624616384506 332.6345748901367 -35.2398099899292 1.000 1.000 1.000
v 314.1624616384506 354.6345748901367 -7.239809989929199 1.000 1.000 1.000
v 351.1624616384506 355.6345748901367 24.7601900100708 1.000 1.000 1.000
v 348.1624616384506 328.6345748901367 43.7601900100708 1.000 1.000 1.000
v 349.1624616384506 273.6345748901367 48.7601900100708 1.000 1.000 1.000
v 348.1624616384506 328.6345748901367 43.7601900100708 1.000 1.000 1.000
v -689.1761156320572 322.0952173471451 -26.0 1.000 1.000 1.000
v -579.1761156320572 328.0952173471451 51.0 1.000 1.000 1.000
v -693.1761156320572 322.0952173471451 71.0 1.000 1.000 1.000
v -579.1761156320572 328.0952173471451 -14.0 1.000 1.000 1.000
v -693.1761156320572 322.0952173471451 71.0 1.000 1.000 1.000
v -662.1761156320572 401.0952173471451 -28.0 1.000 1.000 1.000
v -689.1761156320572 322.0952173471451 -26.0 1.000 1.000 1.000
v -667.1761156320572 401.0952173471451 70.0 1.000 1.000 1.000
v -662.1761156320572 401.0952173471451 -28.0 1.000 1.000 1.000
v -582.1761156320572 373.0952173471451 50.0 1.000 1.000 1.000
v -582.1761156320572 371.0952173471451 -14.0 1.000 1.000 1.000
v -667.1761156320572 401.0952173471451 70.0 1.000 1.000 1.000
v -582.1761156320572 371.0952173471451 -14.0 1.000 1.000 1.000
v -689.1761156320572 322.0952173471451 -26.0 1.000 1.000 1.000
v -662.1761156320572 401.0952173471451 -28.0 1.000 1.000 1.000
v -579.1761156320572 328.0952173471451 -14.0 1.000 1.000 1.000
v -582.1761156320572 373.0952173471451 50.0 1.000 1.000 1.000
v -693.1761156320572 322.0952173471451 71.0 1.000 1.000 1.000
v -579.1761156320572 328.0952173471451 51.0 1.000 1.000 1.000
v -667.1761156320572 401.0952173471451 70.0 1.000 1.000 1.000
v -375.2567125558853 295.0074653625488 -40.0 1.000 1.000 1.000
v -418.2567125558853 298.0074653625488 48.0 1.000 1.000 1.000
v -378.2567125558853 379.0074653625488 54.0 1.000 1.000 1.000
v -395.2567125558853 367.0074653625488 -37.0 1.000 1.000 1.000
v -378.2567125558853 379.0074653625488 54.0 1.000 1.000 1.000
v -395.2567125558853 367.0074653625488 -37.0 1.000 1.000 1.000
v -579.1761156320572 328.0952173471451 51.0 1.000 1.000 1.000
v -582.1761156320572 373.0952173471451 50.0 1.000 1.000 1.000
v -582.1761156320572 371.0952173471451 -14.0 1.000 1.000 1.000
v -582.1761156320572 373.0952173471451 50.0 1.000 1.000 1.000
v -579.1761156320572 328.0952173471451 -14.0 1.000 1.000 1.000
v -582.1761156320572 371.0952173471451 -14.0 1.000 1.000 1.000
v -346.2567125558853 369.0074653625488 35.0 1.000 1.000 1.000
v -347.2567125558853 365.0074653625488 -6.0 1.000 1.000 1.000
v -346.2567125558853 349.0074653625488 -34.0 1.000 1.000 1.000
v -324.2567125558853 296.0074653625488 -29.0 1.000 1.000 1.000
v -344.2567125558853 297.0074653625488 -1.0 1.000 1.000 1.000
v -342.2567125558853 295.0074653625488 42.0 1.000 1.000 1.000
v -343.2567125558853 340.0074653625488 40.0 1.000 1.000 1.000
v -346.2567125558853 369.0074653625488 35.0 1.000 1.000 1.000
v -345.2567125558853 342.0074653625488 -33.0 1.000 1.000 1.000
v -345.2567125558853 342.0074653625488 -33.0 1.000 1.000 1.000
v -378.2567125558853 379.0074653625488 54.0 1.000 1.000 1.000
v -395.2567125558853 367.0074653625488 -37.0 1.000 1.000 1.000
v -375.2567125558853 295.0074653625488 -40.0 1.000 1.000 1.000
v -418.2567125558853 298.0074653625488 48.0 1.000 1.000 1.000
v -378.2567125558853 379.0074653625488 54.0 1.000 1.000 1.000
v -395.2567125558853 367.0074653625488 -37.0 1.000 1.000 1.000
v -289.1487566232681 288.2091751098633 51.0 1.000 1.000 1.000
v -276.1487566232681 292.2091751098633 -39.0 1.000 1.000 1.000
v -146.14875662326813 265.2091751098633 -48.0 1.000 1.000 1.000
v -151.14875662326813 270.2091751098633 47.0 1.000 1.000 1.000
v -68.14875662326813 333.2091751098633 -44.0 1.000 1.000 1.000
v -281.1487566232681 360.2091751098633 -46.0 1.000 1.000 1.000
v -249.14875662326813 364.2091751098633 22.0 1.000 1.000 1.000
v -116.14875662326813 353.2091751098633 29.0 1.000 1.000 1.000
v -64.14875662326813 336.2091751098633 -14.0 1.000 1.000 1.000
v -68.14875662326813 333.2091751098633 -44.0 1.000 1.000 1.000
v -68.14875662326813 339.2091751098633 23.0 1.000 1.000 1.000
v -249.14875662326813 364.2091751098633 22.0 1.000 1.000 1.000
v -116.14875662326813 353.2091751098633 29.0 1.000 1.000 1.000
v -281.1487566232681 360.2091751098633 -46.0 1.000 1.000 1.000
v -370.9194030761719 336.08775198459625 -29.0 1.000 1.000 1.000
v -368.9194030761719 339.08775198459625 15.0 1.000 1.000 1.000
v -368.9194030761719 339.08775198459625 15.0 1.000 1.000 1.000
v -365.9194030761719 300.08775198459625 52.0 1.000 1.000 1.000
v -365.9194030761719 225.08775198459625 48.0 1.000 1.000 1.000
v -359.9194030761719 229.08775198459625 -49.0 1.000 1.000 1.000
v -369.9194030761719 306.08775198459625 -57.0 1.000 1.000 1.000
v -370.9194030761719 336.08775198459625 -29.0 1.000 1.000 1.000
v -64.14875662326813 336.2091751098633 -14.0 1.000 1.000 1.000
v -68.14875662326813 339.2091751098633 23.0 1.000 1.000 1.000
v -68.14875662326813 339.2091751098633 23.0 1.000 1.000 1.000
v -116.14875662326813 353.2091751098633 29.0 1.000 1.000 1.000
v -151.14875662326813 270.2091751098633 47.0 1.000 1.000 1.000
v -146.14875662326813 265.2091751098633 -48.0 1.000 1.000 1.000
v -68.14875662326813 333.2091751098633 -44.0 1.000 1.000 1.000
v -68.14875662326813 333.2091751098633 -44.0 1.000 1.000 1.000
v -276.1487566232681 292.2091751098633 -39.0 1.000 1.000 1.000
v -281.1487566232681 360.2091751098633 -46.0 1.000 1.000 1.000
v -281.1487566232681 360.2091751098633 -46.0 1.000 1.000 1.000
v -249.14875662326813 364.2091751098633 22.0 1.000 1.000 1.000
v -249.14875662326813 364.2091751098633 22.0 1.000 1.000 1.000
v -289.1487566232681 288.2091751098633 51.0 1.000 1.000 1.000
v -345.2567125558853 342.0074653625488 -33.0 1.000 1.000 1.000
v -324.2567125558853 296.0074653625488 -29.0 1.000 1.000 1.000
v -347.2567125558853 365.0074653625488 -6.0 1.000 1.000 1.000
v -346.2567125558853 349.0074653625488 -34.0 1.000 1.000 1.000
v -343.2567125558853 340.0074653625488 40.0 1.000 1.000 1.000
v -346.2567125558853 369.0074653625488 35.0 1.000 1.000 1.000
v -344.2567125558853 297.0074653625488 -1.0 1.000 1.000 1.000
v -342.2567125558853 295.0074653625488 42.0 1.000 1.000 1.000
v -345.2567125558853 342.0074653625488 -33.0 1.000 1.000 1.000
v -346.2567125558853 369.0074653625488 35.0 1.000 1.000 1.000
v -308.9194030761719 121.08775198459625 108.0 1.000 1.000 1.000
v -320.9194030761719 159.08775198459625 142.0 1.000 1.000 1.000
v -368.9194030761719 171.08775198459625 78.0 1.000 1.000 1.000
v -318.9194030761719 265.08775198459625 96.0 1.000 1.000 1.000
v -230.91940307617188 185.08775198459625 119.0 1.000 1.000 1.000
v -150.91940307617188 265.08775198459625 96.0 1.000 1.000 1.000
v -87.91940307617188 171.08775198459625 78.0 1.000 1.000 1.000
v -102.91940307617188 224.08775198459625 49.0 1.000 1.000 1.000
v -112.91940307617188 186.08775198459625 123.0 1.000 1.000 1.000
v -140.91940307617188 161.08775198459625 143.0 1.000 1.000 1.000
v -140.91940307617188 161.08775198459625 143.0 1.000 1.000 1.000
v -370.9194030761719 336.08775198459625 -29.0 1.000 1.000 1.000
v -278.9194030761719 359.08775198459625 -40.0 1.000 1.000 1.000
v -225.91940307617188 358.08775198459625 -49.0 1.000 1.000 1.000
v -153.91940307617188 125.08775198459625 108.0 1.000 1.000 1.000
v -280.9194030761719 360.08775198459625 8.0 1.000 1.000 1.000
v -370.9194030761719 336.08775198459625 -29.0 1.000 1.000 1.000
v -368.9194030761719 339.08775198459625 15.0 1.000 1.000 1.000
v -308.9194030761719 121.08775198459625 108.0 1.000 1.000 1.000
v -231.91940307617188 130.08775198459625 115.0 1.000 1.000 1.000
v -320.9194030761719 159.08775198459625 142.0 1.000 1.000 1.000
v -318.9194030761719 265.08775198459625 96.0 1.000 1.000 1.000
v -230.91940307617188 185.08775198459625 119.0 1.000 1.000 1.000
v -87.91940307617188 171.08775198459625 78.0 1.000 1.000 1.000
v -107.91940307617188 82.08775198459625 -10.0 1.000 1.000 1.000
v -102.91940307617188 224.08775198459625 49.0 1.000 1.000 1.000
v -360.9194030761719 185.08775198459625 123.0 1.000 1.000 1.000
v -368.9194030761719 171.08775198459625 78.0 1.000 1.000 1.000
v -278.9194030761719 359.08775198459625 -40.0 1.000 1.000 1.000
v -365.9194030761719 225.08775198459625 48.0 1.000 1.000 1.000
v -351.9194030761719 81.08775198459625 -11.0 1.000 1.000 1.000
v -87.91940307617188 171.08775198459625 78.0 1.000 1.000 1.000
v -112.91940307617188 186.08775198459625 123.0 1.000 1.000 1.000
v -140.91940307617188 161.08775198459625 143.0 1.000 1.000 1.000
v -230.91940307617188 185.08775198459625 119.0 1.000 1.000 1.000
v -150.91940307617188 265.08775198459625 96.0 1.000 1.000 1.000
v -184.91940307617188 359.08775198459625 -37.0 1.000 1.000 1.000
v -178.91940307617188 360.08775198459625 8.0 1.000 1.000 1.000
v -90.91940307617188 332.08775198459625 -28.0 1.000 1.000 1.000
v -107.91940307617188 82.08775198459625 -10.0 1.000 1.000 1.000
v -94.91940307617188 224.08775198459625 -50.0 1.000 1.000 1.000
v -102.91940307617188 224.08775198459625 49.0 1.000 1.000 1.000
v -318.9194030761719 265.08775198459625 96.0 1.000 1.000 1.000
v -230.91940307617188 327.08775198459625 34.0 1.000 1.000 1.000
v -280.9194030761719 360.08775198459625 8.0 1.000 1.000 1.000
v -368.9194030761719 171.08775198459625 78.0 1.000 1.000 1.000
v -365.9194030761719 225.08775198459625 48.0 1.000 1.000 1.000
v -351.9194030761719 81.08775198459625 -11.0 1.000 1.000 1.000
v -140.91940307617188 161.08775198459625 143.0 1.000 1.000 1.000
v -231.91940307617188 130.08775198459625 115.0 1.000 1.000 1.000
v -153.91940307617188 125.08775198459625 108.0 1.000 1.000 1.000
v -89.91940307617188 336.08775198459625 15.0 1.000 1.000 1.000
v -90.91940307617188 332.08775198459625 -28.0 1.000 1.000 1.000
v -178.91940307617188 360.08775198459625 8.0 1.000 1.000 1.000
v -365.9194030761719 300.08775198459625 52.0 1.000 1.000 1.000
v -318.9194030761719 265.08775198459625 96.0 1.000 1.000 1.000
v -230.91940307617188 185.08775198459625 119.0 1.000 1.000 1.000
v -320.9194030761719 159.08775198459625 142.0 1.000 1.000 1.000
v -360.9194030761719 185.08775198459625 123.0 1.000 1.000 1.000
v -320.9194030761719 159.08775198459625 142.0 1.000 1.000 1.000
v -150.91940307617188 265.08775198459625 96.0 1.000 1.000 1.000
v -178.91940307617188 360.08775198459625 8.0 1.000 1.000 1.000
v -230.91940307617188 327.08775198459625 34.0 1.000 1.000 1.000
v -320.9194030761719 159.08775198459625 142.0 1.000 1.000 1.000
v -231.91940307617188 130.08775198459625 115.0 1.000 1.000 1.000
v -230.91940307617188 185.08775198459625 119.0 1.000 1.000 1.000
v -112.91940307617188 186.08775198459625 123.0 1.000 1.000 1.000
v -140.91940307617188 161.08775198459625 143.0 1.000 1.000 1.000
v -102.91940307617188 224.08775198459625 49.0 1.000 1.000 1.000
v -365.9194030761719 300.08775198459625 52.0 1.000 1.000 1.000
v -318.9194030761719 265.08775198459625 96.0 1.000 1.000 1.000
v -368.9194030761719 339.08775198459625 15.0 1.000 1.000 1.000
v -87.91940307617188 171.08775198459625 78.0 1.000 1.000 1.000
v -153.91940307617188 125.08775198459625 108.0 1.000 1.000 1.000
v -107.91940307617188 82.08775198459625 -10.0 1.000 1.000 1.000
v -91.91940307617188 293.08775198459625 50.0 1.000 1.000 1.000
v -91.91940307617188 293.08775198459625 50.0 1.000 1.000 1.000
v -89.91940307617188 336.08775198459625 15.0 1.000 1.000 1.000
v -150.91940307617188 265.08775198459625 96.0 1.000 1.000 1.000
v -178.91940307617188 360.08775198459625 8.0 1.000 1.000 1.000
v -365.9194030761719 225.08775198459625 48.0 1.000 1.000 1.000
v -359.9194030761719 229.08775198459625 -49.0 1.000 1.000 1.000
v -351.9194030761719 81.08775198459625 -11.0 1.000 1.000 1.000
v -225.91940307617188 358.08775198459625 -49.0 1.000 1.000 1.000
v -184.91940307617188 359.08775198459625 -37.0 1.000 1.000 1.000
v -90.91940307617188 332.08775198459625 -28.0 1.000 1.000 1.000
v -318.9194030761719 265.08775198459625 96.0 1.000 1.000 1.000
v -230.91940307617188 327.08775198459625 34.0 1.000 1.000 1.000
v -369.9194030761719 306.08775198459625 -57.0 1.000 1.000 1.000
v -227.91940307617188 233.08775198459625 -83.0 1.000 1.000 1.000
v -342.9194030761719 233.08775198459625 -72.0 1.000 1.000 1.000
v -230.91940307617188 94.08775198459625 -71.0 1.000 1.000 1.000
v -227.91940307617188 233.08775198459625 -83.0 1.000 1.000 1.000
v -225.91940307617188 358.08775198459625 -49.0 1.000 1.000 1.000
v -92.91940307617188 299.08775198459625 -55.0 1.000 1.000 1.000
v -369.9194030761719 306.08775198459625 -57.0 1.000 1.000 1.000
v -370.9194030761719 336.08775198459625 -29.0 1.000 1.000 1.000
v -359.9194030761719 229.08775198459625 -49.0 1.000 1.000 1.000
v -342.9194030761719 233.08775198459625 -72.0 1.000 1.000 1.000
v -351.9194030761719 81.08775198459625 -11.0 1.000 1.000 1.000
v -109.91940307617188 233.08775198459625 -71.0 1.000 1.000 1.000
v -94.91940307617188 224.08775198459625 -50.0 1.000 1.000 1.000
v -107.91940307617188 82.08775198459625 -10.0 1.000 1.000 1.000
v -230.91940307617188 94.08775198459625 -71.0 1.000 1.000 1.000
v -90.91940307617188 332.08775198459625 -28.0 1.000 1.000 1.000
v -85.95715200901031 91.5383071899414 29.0 1.000 1.000 1.000
v -97.95715200901031 100.5383071899414 -22.0 1.000 1.000 1.000
v -38.957152009010315 81.5383071899414 78.0 1.000 1.000 1.000
v -71.95715200901031 88.5383071899414 69.0 1.000 1.000 1.000
v 32.042847990989685 84.5383071899414 75.0 1.000 1.000 1.000
v -1.957152009010315 83.5383071899414 94.0 1.000 1.000 1.000
v 86.04284799098969 91.5383071899414 28.0 1.000 1.000 1.000
v 65.04284799098969 88.5383071899414 69.0 1.000 1.000 1.000
v 95.04284799098969 100.5383071899414 -22.0 1.000 1.000 1.000
v 29.042847990989685 106.5383071899414 -47.0 1.000 1.000 1.000
v -351.9194030761719 81.08775198459625 -11.0 1.000 1.000 1.000
v -308.9194030761719 121.08775198459625 108.0 1.000 1.000 1.000
v -231.91940307617188 130.08775198459625 115.0 1.000 1.000 1.000
v -153.91940307617188 125.08775198459625 108.0 1.000 1.000 1.000
v -107.91940307617188 82.08775198459625 -10.0 1.000 1.000 1.000
v -230.91940307617188 94.08775198459625 -71.0 1.000 1.000 1.000
v -34.957152009010315 105.5383071899414 -47.0 1.000 1.000 1.000
v 29.042847990989685 106.5383071899414 -47.0 1.000 1.000 1.000
v -97.95715200901031 100.5383071899414 -22.0 1.000 1.000 1.000
v -230.91940307617188 94.08775198459625 -71.0 1.000 1.000 1.000
v -351.9194030761719 81.08775198459625 -11.0 1.000 1.000 1.000
v -955.990852355957 -87.5441484451294 -60.0 1.000 1.000 1.000
v -955.990852355957 -144.5441484451294 -52.0 1.000 1.000 1.000
v -955.990852355957 -22.544148445129395 175.0 1.000 1.000 1.000
v -955.990852355957 -127.5441484451294 175.0 1.000 1.000 1.000
v -931.990852355957 -61.544148445129395 157.0 1.000 1.000 1.000
v -850.990852355957 -86.5441484451294 -53.0 1.000 1.000 1.000
v -849.990852355957 -90.5441484451294 18.0 1.000 1.000 1.000
v -847.990852355957 -135.5441484451294 -54.0 1.000 1.000 1.000
v -920.990852355957 -100.5441484451294 166.0 1.000 1.000 1.000
v -850.990852355957 -126.5441484451294 19.0 1.000 1.000 1.000
v -744.1337356567383 -150.91656255722046 -10.0 1.000 1.000 1.000
v -796.1337356567383 -127.91656255722046 19.0 1.000 1.000 1.000
v -792.1337356567383 -139.91656255722046 -54.0 1.000 1.000 1.000
v -756.1337356567383 -86.91656255722046 51.0 1.000 1.000 1.000
v -794.1337356567383 -77.91656255722046 18.0 1.000 1.000 1.000
v -756.1337356567383 -86.91656255722046 51.0 1.000 1.000 1.000
v -743.1337356567383 -20.91656255722046 -16.0 1.000 1.000 1.000
v -794.1337356567383 -77.91656255722046 18.0 1.000 1.000 1.000
v -795.1337356567383 -71.91656255722046 -53.0 1.000 1.000 1.000
v -765.1337356567383 -92.91656255722046 -91.0 1.000 1.000 1.000
v -795.1337356567383 -71.91656255722046 -53.0 1.000 1.000 1.000
v -765.1337356567383 -92.91656255722046 -91.0 1.000 1.000 1.000
v -795.1337356567383 -71.91656255722046 -53.0 1.000 1.000 1.000
v -794.1337356567383 -77.91656255722046 18.0 1.000 1.000 1.000
v -796.1337356567383 -127.91656255722046 19.0 1.000 1.000 1.000
v -792.1337356567383 -139.91656255722046 -54.0 1.000 1.000 1.000
v -850.990852355957 -86.5441484451294 -53.0 1.000 1.000 1.000
v -849.990852355957 -90.5441484451294 18.0 1.000 1.000 1.000
v -850.990852355957 -126.5441484451294 19.0 1.000 1.000 1.000
v -847.990852355957 -135.5441484451294 -54.0 1.000 1.000 1.000
v -469.1337356567383 -52.91656255722046 -51.0 1.000 1.000 1.000
v -462.1337356567383 -24.91656255722046 -8.0 1.000 1.000 1.000
v -459.1337356567383 -69.91656255722046 70.0 1.000 1.000 1.000
v -459.1337356567383 -81.91656255722046 66.0 1.000 1.000 1.000
v -459.1337356567383 -81.91656255722046 66.0 1.000 1.000 1.000
v -460.1337356567383 -146.91656255722046 0.0 1.000 1.000 1.000
v -464.1337356567383 -140.91656255722046 -65.0 1.000 1.000 1.000
v -467.1337356567383 -83.91656255722046 -60.0 1.000 1.000 1.000
v -467.1337356567383 -83.91656255722046 -60.0 1.000 1.000 1.000
v -743.1337356567383 -20.91656255722046 -16.0 1.000 1.000 1.000
v -756.1337356567383 -86.91656255722046 51.0 1.000 1.000 1.000
v -756.1337356567383 -86.91656255722046 51.0 1.000 1.000 1.000
v -756.1337356567383 -86.91656255722046 51.0 1.000 1.000 1.000
v -744.1337356567383 -150.91656255722046 -10.0 1.000 1.000 1.000
v -765.1337356567383 -92.91656255722046 -91.0 1.000 1.000 1.000
v -765.1337356567383 -92.91656255722046 -91.0 1.000 1.000 1.000
v -462.1337356567383 -24.91656255722046 -8.0 1.000 1.000 1.000
v -459.1337356567383 -69.91656255722046 70.0 1.000 1.000 1.000
v -467.1337356567383 -83.91656255722046 -60.0 1.000 1.000 1.000
v -469.1337356567383 -52.91656255722046 -51.0 1.000 1.000 1.000
v -756.1337356567383 -86.91656255722046 51.0 1.000 1.000 1.000
v -743.1337356567383 -20.91656255722046 -16.0 1.000 1.000 1.000
v -154.19693756103516 -82.9778823852539 -85.0 1.000 1.000 1.000
v -216.19693756103516 -6.977882385253906 6.0 1.000 1.000 1.000
v -147.19693756103516 -4.977882385253906 6.0 1.000 1.000 1.000
v -228.19693756103516 -82.9778823852539 -69.0 1.000 1.000 1.000
v -155.19693756103516 -168.9778823852539 -90.0 1.000 1.000 1.000
v -228.19693756103516 -82.9778823852539 -69.0 1.000 1.000 1.000
v -154.19693756103516 -82.9778823852539 -85.0 1.000 1.000 1.000
v -228.19693756103516 -168.9778823852539 7.0 1.000 1.000 1.000
v -184.19693756103516 -169.9778823852539 83.0 1.000 1.000 1.000
v -224.19693756103516 -89.9778823852539 80.0 1.000 1.000 1.000
v -172.19693756103516 -89.9778823852539 82.0 1.000 1.000 1.000
v -224.19693756103516 -89.9778823852539 80.0 1.000 1.000 1.000
v -172.19693756103516 -89.9778823852539 82.0 1.000 1.000 1.000
v -1.0 -81.0 -113.0 1.000 1.000 1.000
v -149.0 -49.0 -6.0 1.000 1.000 1.000
v -1.0 -154.0 90.0 1.000 1.000 1.000
v -79.0 -81.0 94.0 1.000 1.000 1.000
v -1.0 -81.0 -113.0 1.000 1.000 1.000
v -149.0 -49.0 -6.0 1.000 1.000 1.000
v -79.0 -81.0 94.0 1.000 1.000 1.000
v -155.19693756103516 -168.9778823852539 -90.0 1.000 1.000 1.000
v -154.19693756103516 -82.9778823852539 -85.0 1.000 1.000 1.000
v -184.19693756103516 -169.9778823852539 83.0 1.000 1.000 1.000
v -155.19693756103516 -168.9778823852539 -90.0 1.000 1.000 1.000
v -154.19693756103516 -82.9778823852539 -85.0 1.000 1.000 1.000
v -147.19693756103516 -4.977882385253906 6.0 1.000 1.000 1.000
v -172.19693756103516 -89.9778823852539 82.0 1.000 1.000 1.000
v -172.19693756103516 -89.9778823852539 82.0 1.000 1.000 1.000
v -216.19693756103516 -6.977882385253906 6.0 1.000 1.000 1.000
v -228.19693756103516 -82.9778823852539 -69.0 1.000 1.000 1.000
v -224.19693756103516 -89.9778823852539 80.0 1.000 1.000 1.000
v -228.19693756103516 -168.9778823852539 7.0 1.000 1.000 1.000
v -228.19693756103516 -82.9778823852539 -69.0 1.000 1.000 1.000
v -224.19693756103516 -89.9778823852539 80.0 1.000 1.000 1.000
v -469.1337356567383 -52.91656255722046 -51.0 1.000 1.000 1.000
v -462.1337356567383 -24.91656255722046 -8.0 1.000 1.000 1.000
v -459.1337356567383 -69.91656255722046 70.0 1.000 1.000 1.000
v -464.1337356567383 -140.91656255722046 -65.0 1.000 1.000 1.000
v -467.1337356567383 -83.91656255722046 -60.0 1.000 1.000 1.000
v -467.1337356567383 -83.91656255722046 -60.0 1.000 1.000 1.000
v -459.1337356567383 -81.91656255722046 66.0 1.000 1.000 1.000
v -459.1337356567383 -69.91656255722046 70.0 1.000 1.000 1.000
v -459.1337356567383 -81.91656255722046 66.0 1.000 1.000 1.000
v -460.1337356567383 -146.91656255722046 0.0 1.000 1.000 1.000
v -224.19693756103516 -89.9778823852539 80.0 1.000 1.000 1.000
v -216.19693756103516 -6.977882385253906 6.0 1.000 1.000 1.000
v -459.1337356567383 -69.91656255722046 70.0 1.000 1.000 1.000
v 964.2518539428711 -27.029990196228027 175.0 1.000 1.000 1.000
v 964.2518539428711 -150.02999019622803 -52.0 1.000 1.000 1.000
v 964.2518539428711 -92.02999019622803 -60.0 1.000 1.000 1.000
v 964.2518539428711 -132.02999019622803 175.0 1.000 1.000 1.000
v 929.2518539428711 -105.02999019622803 166.0 1.000 1.000 1.000
v 939.2518539428711 -66.02999019622803 157.0 1.000 1.000 1.000
v 856.2518539428711 -90.02999019622803 10.0 1.000 1.000 1.000
v 855.2518539428711 -139.02999019622803 -54.0 1.000 1.000 1.000
v 859.2518539428711 -90.02999019622803 -53.0 1.000 1.000 1.000
v 859.2518539428711 -131.02999019622803 19.0 1.000 1.000 1.000
v 774.3234176635742 -99.23597812652588 -91.0 1.000 1.000 1.000
v 750.3234176635742 -24.23597812652588 -18.0 1.000 1.000 1.000
v 803.3234176635742 -76.23597812652588 -53.0 1.000 1.000 1.000
v 803.3234176635742 -132.23597812652588 19.0 1.000 1.000 1.000
v 764.3234176635742 -91.23597812652588 50.0 1.000 1.000 1.000
v 751.3234176635742 -155.23597812652588 -10.0 1.000 1.000 1.000
v 800.3234176635742 -144.23597812652588 -54.0 1.000 1.000 1.000
v 774.3234176635742 -99.23597812652588 -91.0 1.000 1.000 1.000
v 802.3234176635742 -81.23597812652588 18.0 1.000 1.000 1.000
v 802.3234176635742 -81.23597812652588 18.0 1.000 1.000 1.000
v 764.3234176635742 -91.23597812652588 50.0 1.000 1.000 1.000
v 803.3234176635742 -76.23597812652588 -53.0 1.000 1.000 1.000
v 802.3234176635742 -81.23597812652588 18.0 1.000 1.000 1.000
v 803.3234176635742 -76.23597812652588 -53.0 1.000 1.000 1.000
v 803.3234176635742 -132.23597812652588 19.0 1.000 1.000 1.000
v 800.3234176635742 -144.23597812652588 -54.0 1.000 1.000 1.000
v 859.2518539428711 -90.02999019622803 -53.0 1.000 1.000 1.000
v 856.2518539428711 -90.02999019622803 10.0 1.000 1.000 1.000
v 859.2518539428711 -131.02999019622803 19.0 1.000 1.000 1.000
v 855.2518539428711 -139.02999019622803 -54.0 1.000 1.000 1.000
v 473.3234176635742 -131.23597812652588 -65.0 1.000 1.000 1.000
v 472.3234176635742 -147.23597812652588 -64.0 1.000 1.000 1.000
v 470.3234176635742 -149.23597812652588 0.0 1.000 1.000 1.000
v 468.3234176635742 -88.23597812652588 65.0 1.000 1.000 1.000
v 467.3234176635742 -76.23597812652588 69.0 1.000 1.000 1.000
v 470.3234176635742 -31.23597812652588 -8.0 1.000 1.000 1.000
v 476.3234176635742 -63.23597812652588 -56.0 1.000 1.000 1.000
v 476.3234176635742 -63.23597812652588 -56.0 1.000 1.000 1.000
v 468.3234176635742 -88.23597812652588 65.0 1.000 1.000 1.000
v 476.3234176635742 -63.23597812652588 -56.0 1.000 1.000 1.000
v 774.3234176635742 -99.23597812652588 -91.0 1.000 1.000 1.000
v 751.3234176635742 -155.23597812652588 -10.0 1.000 1.000 1.000
v 764.3234176635742 -91.23597812652588 50.0 1.000 1.000 1.000
v 764.3234176635742 -91.23597812652588 50.0 1.000 1.000 1.000
v 750.3234176635742 -24.23597812652588 -18.0 1.000 1.000 1.000
v 774.3234176635742 -99.23597812652588 -91.0 1.000 1.000 1.000
v 180.01924896240234 -93.95386505126953 81.0 1.000 1.000 1.000
v 225.01924896240234 -8.953865051269531 7.0 1.000 1.000 1.000
v 149.01924896240234 -3.9538650512695312 7.0 1.000 1.000 1.000
v 232.01924896240234 -93.95386505126953 79.0 1.000 1.000 1.000
v 192.01924896240234 -173.95386505126953 83.0 1.000 1.000 1.000
v 232.01924896240234 -93.95386505126953 79.0 1.000 1.000 1.000
v 180.01924896240234 -93.95386505126953 81.0 1.000 1.000 1.000
v 236.01924896240234 -174.95386505126953 7.0 1.000 1.000 1.000
v 163.01924896240234 -174.95386505126953 -90.0 1.000 1.000 1.000
v 231.01924896240234 -96.95386505126953 -67.0 1.000 1.000 1.000
v 163.01924896240234 -86.95386505126953 -85.0 1.000 1.000 1.000
v 231.01924896240234 -96.95386505126953 -67.0 1.000 1.000 1.000
v 163.01924896240234 -86.95386505126953 -85.0 1.000 1.000 1.000
v -1.0 -81.0 -113.0 1.000 1.000 1.000
v 147.0 -49.0 -7.0 1.000 1.000 1.000
v 77.0 -81.0 93.0 1.000 1.000 1.000
v -1.0 -81.0 -113.0 1.000 1.000 1.000
v 77.0 -81.0 93.0 1.000 1.000 1.000
v -1.0 -154.0 90.0 1.000 1.000 1.000
v 147.0 -49.0 -7.0 1.000 1.000 1.000
v 163.01924896240234 -86.95386505126953 -85.0 1.000 1.000 1.000
v 163.01924896240234 -174.95386505126953 -90.0 1.000 1.000 1.000
v 192.01924896240234 -173.95386505126953 83.0 1.000 1.000 1.000
v 180.01924896240234 -93.95386505126953 81.0 1.000 1.000 1.000
v 163.01924896240234 -174.95386505126953 -90.0 1.000 1.000 1.000
v 180.01924896240234 -93.95386505126953 81.0 1.000 1.000 1.000
v 149.01924896240234 -3.9538650512695312 7.0 1.000 1.000 1.000
v 163.01924896240234 -86.95386505126953 -85.0 1.000 1.000 1.000
v 232.01924896240234 -93.95386505126953 79.0 1.000 1.000 1.000
v 225.01924896240234 -8.953865051269531 7.0 1.000 1.000 1.000
v 231.01924896240234 -96.95386505126953 -67.0 1.000 1.000 1.000
v 231.01924896240234 -96.95386505126953 -67.0 1.000 1.000 1.000
v 236.01924896240234 -174.95386505126953 7.0 1.000 1.000 1.000
v 232.01924896240234 -93.95386505126953 79.0 1.000 1.000 1.000
v 467.3234176635742 -76.23597812652588 69.0 1.000 1.000 1.000
v 470.3234176635742 -31.23597812652588 -8.0 1.000 1.000 1.000
v 476.3234176635742 -63.23597812652588 -56.0 1.000 1.000 1.000
v 476.3234176635742 -63.23597812652588 -56.0 1.000 1.000 1.000
v 473.3234176635742 -131.23597812652588 -65.0 1.000 1.000 1.000
v 468.3234176635742 -88.23597812652588 65.0 1.000 1.000 1.000
v 472.3234176635742 -147.23597812652588 -64.0 1.000 1.000 1.000
v 470.3234176635742 -149.23597812652588 0.0 1.000 1.000 1.000
v 468.3234176635742 -88.23597812652588 65.0 1.000 1.000 1.000
v -122.0 43.0 -29.0 1.000 1.000 1.000
v -149.0 -49.0 -6.0 1.000 1.000 1.000
v -90.0 16.0 54.0 1.000 1.000 1.000
v -79.0 -81.0 94.0 1.000 1.000 1.000
v 0.0 -24.0 93.0 1.000 1.000 1.000
v -1.0 -154.0 90.0 1.000 1.000 1.000
v -1.0 -81.0 94.0 1.000 1.000 1.000
v 147.0 -49.0 -7.0 1.000 1.000 1.000
v 122.0 44.0 -29.0 1.000 1.000 1.000
v 80.0 17.0 54.0 1.000 1.000 1.000
v 77.0 -81.0 93.0 1.000 1.000 1.000
v -1.0 50.0 -70.0 1.000 1.000 1.000
v -1.0 -81.0 -113.0 1.000 1.000 1.000
v -90.0 16.0 54.0 1.000 1.000 1.000
v -122.0 43.0 -29.0 1.000 1.000 1.000
v 0.0 -24.0 93.0 1.000 1.000 1.000
v 122.0 44.0 -29.0 1.000 1.000 1.000
v 80.0 17.0 54.0 1.000 1.000 1.000
v -1.0 50.0 -70.0 1.000 1.000 1.000
v -85.95715200901031 91.5383071899414 29.0 1.000 1.000 1.000
v -97.95715200901031 100.5383071899414 -22.0 1.000 1.000 1.000
v -71.95715200901031 88.5383071899414 69.0 1.000 1.000 1.000
v -38.957152009010315 81.5383071899414 78.0 1.000 1.000 1.000
v -1.957152009010315 83.5383071899414 94.0 1.000 1.000 1.000
v 86.04284799098969 91.5383071899414 28.0 1.000 1.000 1.000
v 95.04284799098969 100.5383071899414 -22.0 1.000 1.000 1.000
v 65.04284799098969 88.5383071899414 69.0 1.000 1.000 1.000
v 32.042847990989685 84.5383071899414 75.0 1.000 1.000 1.000
v 29.042847990989685 106.5383071899414 -47.0 1.000 1.000 1.000
v -122.0 43.0 -29.0 1.000 1.000 1.000
v -1.0 50.0 -70.0 1.000 1.000 1.000
v 122.0 44.0 -29.0 1.000 1.000 1.000
v -34.957152009010315 105.5383071899414 -47.0 1.000 1.000 1.000
v -97.95715200901031 100.5383071899414 -22.0 1.000 1.000 1.000
v 29.042847990989685 106.5383071899414 -47.0 1.000 1.000 1.000
v 95.04284799098969 100.5383071899414 -22.0 1.000 1.000 1.000
vt 0.5068 0.7446
vt 0.5039 0.2656
vt 0.1221 0.1162
vt 0.8057 0.2266
vt 0.9551 0.4746
vt 0.9062 0.4780
vt 0.9512 0.1357
vt 0.0791 0.4634
vt 0.2441 0.2148
vt 0.0986 0.4683
vt 0.5527 0.4810
vt 0.9346 0.9326
vt 0.7168 0.0879
vt 0.0693 0.9717
vt 0.1553 0.1484
vt 1.0264 0.9971
vt 1.0322 0.6211
vt 1.9492 0.9883
vt 1.9541 0.6172
vt 0.8389 0.1660
vt 1.0156 0.8760
vt 0.2871 0.3447
vt 0.3281 0.0566
vt 0.9082 0.0400
vt 0.0166 0.4727
vt 0.9346 0.4824
vt 0.0459 1.0049
vt 0.9580 0.9678
vt 0.4404 0.2900
vt 0.9248 0.1611
vt 0.0283 1.0127
vt 0.6979 0.8652
vt 0.6960 0.8203
vt 0.9889 0.7578
vt 0.9915 0.4424
vt 0.9857 1.3271
vt 0.9883 0.7705
vt 0.6289 1.4658
vt 0.6602 0.5918
vt 0.9831 0.7646
vt 0.6204 0.2402
vt 0.9922 0.7412
vt 0.6536 0.3486
vt 0.5658 0.4258
vt 0.5651 0.8047
vt 0.5052 0.9199
vt 0.5710 0.6543
vt 0.5716 1.1895
vt 0.5664 1.3652
vt 0.5579 0.4590
vt 0.5729 0.8311
vt 0.5658 0.8457
vt 0.5742 0.6406
vt 0.2109 0.8545
vt 0.4414 0.7979
vt 0.4661 0.8467
vt 0.2181 0.9102
vt 0.0964 0.6992
vt 0.0788 1.0566
vt 0.1576 1.3623
vt 0.4023 1.2227
vt 0.3861 0.2441
vt 0.1335 0.2451
vt 0.0879 1.3164
vt 0.4473 0.2734
vt 0.0710 0.3809
vt 0.4616 0.5801
vt 0.2155 0.8965
vt 0.2161 0.9541
vt 0.0898 0.8184
vt 0.0618 0.3184
vt 0.0124 0.7734
vt 0.0352 1.2480
vt 0.0417 0.8486
vt 0.0788 0.8203
vt 0.0189 0.7812
vt 1.0234 0.8857
vt 1.7529 -0.0234
vt 1.9805 0.8984
vt 1.1201 -0.0059
vt 0.9668 -0.0127
vt 0.0674 -0.3486
vt 0.0254 0.0146
vt 1.0078 -0.3721
vt 0.0840 0.5508
vt 0.7598 -0.0117
vt 0.1572 0.0342
vt 1.0117 0.5127
vt 0.4385 0.1172
vt 0.9434 0.9180
vt 0.0957 0.8496
vt 0.9053 0.0068
vt 0.2158 0.2422
vt 0.9463 0.9287
vt 0.6709 0.0732
vt 0.0898 0.9805
vt 0.9889 0.3369
vt 0.6204 0.2627
vt 0.6979 0.2480
vt 0.9967 0.6650
vt 0.6335 0.5293
vt 0.9922 1.3027
vt 1.0000 0.6396
vt 0.9896 0.3379
vt 0.9974 0.6533
vt 0.6608 0.7773
vt 0.6309 0.8848
vt 0.6517 1.4805
vt 0.5736 0.7100
vt 0.5703 1.1406
vt 0.5638 1.4375
vt 0.5299 0.3193
vt 0.5658 0.3037
vt 0.5618 0.2900
vt 0.5658 0.6240
vt 0.5736 0.8320
vt 0.5625 1.4229
vt 0.5703 0.6338
vt 0.4661 0.2881
vt 0.4434 0.3320
vt 0.2083 0.2412
vt 0.2168 0.2705
vt 0.0729 0.8057
vt 0.4557 0.8271
vt 0.3965 0.8135
vt 0.1595 0.6973
vt 0.0592 1.1250
vt 0.0632 1.4473
vt 0.0710 0.7412
vt 0.3984 0.8848
vt 0.1602 0.9102
vt 0.4453 1.5371
vt 0.0150 1.2773
vt 0.0150 0.8115
vt 0.0124 0.3545
vt 0.0716 0.8535
vt 0.0814 0.2998
vt 0.2168 0.2324
vt 0.0716 0.3291
vt 0.2090 0.1943
vt 0.0182 0.3662
vt 0.2344 0.4102
vt 0.1934 0.3491
vt 0.0332 0.3281
vt 0.2002 0.1758
vt 0.4961 0.3062
vt 0.7656 0.1777
vt 0.9805 0.3320
vt 0.9277 0.2437
vt 0.8965 0.3071
vt 0.0234 0.0591
vt 0.3330 0.0215
vt 0.5127 0.0234
vt 0.8027 0.3472
vt 0.7568 0.4053
vt 0.3252 0.0205
vt 0.0293 0.0542
vt 0.4961 0.3979
vt 0.9131 0.4761
vt 0.0605 0.3057
vt 0.0430 0.2402
vt 0.0908 0.4766
vt 0.6523 0.0225
vt 0.6719 0.0220
vt 0.9688 0.0679
vt 0.9551 0.2437
vt 0.4961 0.0747
vt 0.9717 0.0620
vt 0.0400 0.1172
vt 0.9658 0.1313
vt 0.0615 0.2339
vt 0.0293 0.1079
vt 0.5068 0.2290
vt 0.1191 0.2275
vt 0.5000 0.4561
vt 0.9629 0.1216
vt 0.9043 0.2300
vt 0.2188 0.5737
vt 0.1797 0.5576
vt 0.3799 0.5894
vt 0.2666 0.5786
vt 0.6191 0.5859
vt 0.5039 0.5869
vt 0.8008 0.5757
vt 0.7285 0.5801
vt 0.8311 0.5596
vt 0.6064 0.5503
vt 0.3896 0.5503
vt 0.0905 0.9404
vt 0.1224 0.9424
vt 0.9974 0.9873
vt 0.9180 0.7861
vt 0.0833 0.0830
vt 0.3548 0.0850
vt 0.0781 0.0557
vt 0.9499 0.6992
vt 0.3620 0.0996
vt 1.3145 0.9538
vt 1.4238 1.0299
vt 1.3652 1.0241
vt 1.6309 0.9759
vt 1.6748 1.0299
vt 0.3926 0.9368
vt 0.0303 0.9154
vt 0.2188 0.9857
vt -0.1641 0.9831
vt 1.6016 0.9883
vt 1.7012 1.0326
vt -0.3760 0.9395
vt 0.0156 0.3424
vt 0.2197 0.9616
vt 0.0908 0.3268
vt 0.2734 0.9453
vt 0.8027 0.3496
vt 0.7881 0.9674
vt 0.9707 0.3105
vt 0.9102 0.9277
vt -0.1895 0.5417
vt 0.0410 0.5345
vt 1.6553 0.5456
vt 1.5547 0.9694
vt 1.5947 0.5449
vt 1.6709 0.5508
vt 1.3516 0.5482
vt 1.3828 0.5540
vt 1.6641 0.5618
vt -0.2412 0.5384
vt 0.4629 0.5365
vt -0.4141 0.1133
vt 0.0889 0.2038
vt 0.0811 0.1094
vt -0.3164 0.2142
vt 1.2568 0.1107
vt 1.6797 0.2194
vt 1.6846 0.1146
vt 1.2559 0.2155
vt 1.2539 0.1523
vt 1.6484 0.2135
vt 1.6514 0.1393
vt 0.4883 0.2181
vt 0.4961 0.1484
vt 0.4902 0.9600
vt 0.2061 0.9590
vt 0.4941 0.8462
vt 0.0088 0.8027
vt 1.2568 0.0951
vt 1.6475 -0.0052
vt 1.2627 -0.0098
vt 0.0020 -0.0371
vt 0.5479 0.0124
vt 1.5723 0.2070
vt 0.9987 0.9736
vt 0.1048 0.9668
vt 0.0723 0.9668
vt 0.9993 0.9736
vt 0.9661 0.6875
vt 0.9284 0.7754
vt 0.3620 0.0918
vt 0.1087 0.0840
vt 0.1126 0.1113
vt 0.3971 0.1152
vt 0.5293 0.9408
vt 0.1338 0.9082
vt 0.3203 0.9766
vt 0.5137 1.0169
vt 0.6475 0.9609
vt 0.4404 0.9505
vt 0.4746 1.0130
vt 0.6211 0.9753
vt -0.0605 0.9740
vt 0.6768 1.0098
vt -0.2314 0.9251
vt 0.6943 1.0111
vt 0.9141 0.3079
vt 0.8076 0.9753
vt 0.9902 0.3262
vt 0.8135 0.9453
vt 0.1982 0.3197
vt 0.2344 0.9720
vt 0.0283 0.2754
vt 0.1104 0.9277
vt 0.5283 0.5801
vt 0.4766 0.5807
vt 0.4688 0.5775
vt 0.6660 0.5690
vt -0.3193 0.5462
vt 0.0996 0.5501
vt 0.3594 0.5586
vt -0.2939 0.5462
vt 0.7480 0.5775
vt -0.3672 0.1784
vt 0.0332 0.2376
vt 0.0381 0.1400
vt -0.3564 0.2448
vt 0.3984 0.2129
vt 0.6572 0.2578
vt 0.6572 0.1888
vt 0.3936 0.2715
vt 0.3984 0.1745
vt 0.6465 0.2565
vt 0.6826 0.1667
vt 0.4346 0.2461
vt 0.5352 0.1602
vt 0.7812 0.9604
vt 0.9824 0.8022
vt 0.6523 0.0566
vt 0.4014 0.0638
vt -0.4248 0.0501
vt 0.3994 0.1602
vt 0.1172 0.0098
vt 0.0977 0.6514
vt 0.0098 0.8022
vt 0.2070 0.6958
vt 0.2451 0.8550
vt 0.5088 0.7637
vt 0.5098 0.9761
vt 0.5088 0.8564
vt 1.0068 0.8047
vt 0.9219 0.6523
vt 0.7793 0.6973
vt 0.7715 0.8579
vt 0.5059 0.6421
vt 0.5078 0.8564
vn -0.577 -0.577 -0.577
vn -0.577 -0.577 -0.577
vn -0.577 -0.577 -0.577
vn -0.577 -0.577 -0.577
vn -0.577 -0.577 -0.577
vn -0.577 -0.577 -0.577
vn -0.577 -0.577 -0.577
vn -0.577 -0.577 -0.577
vn -0.577 -0.577 -0.577
vn -0.577 -0.577 -0.577
vn -0.577 -0.577 -0.577
vn -0.577 -0.577 -0.577
vn -0.577 -0.577 -0.577
vn -0.577 -0.577 -0.577
vn -0.577 -0.577 -0.577
vn -0.577 -0.577 -0.577
vn -0.577 -0.577 -0.577
vn -0.577 -0.577 -0.577
vn -0.577 -0.577 -0.577
vn -0.577 -0.577 -0.577
vn -0.577 -0.577 -0.577
vn -0.577 -0.577 -0.577
vn -0.577 -0.577 -0.577
vn -0.577 -0.577 -0.577
vn -0.577 -0.577 -0.577
vn -0.577 -0.577 -0.577
vn -0.577 -0.577 -0.577
vn -0.577 -0.577 -0.577
vn -0.577 -0.577 -0.577
vn -0.577 -0.577 -0.577
vn -0.577 -0.577 -0.577
vn -0.577 -0.577 -0.577
vn -0.577 -0.577 -0.577
vn -0.577 -0.577 -0.577
vn -0.577 -0.577 -0.577
vn -0.577 -0.577 -0.577
vn -0.577 -0.577 -0.577
vn -0.577 -0.577 -0.577
vn -0.577 -0.577 -0.577
vn -0.577 -0.577 -0.577
vn -0.577 -0.577 -0.577
vn -0.577 -0.577 -0.577
vn -0.577 -0.577 -0.577
vn -0.577 -0.577 -0.577
vn -0.577 -0.577 -0.577
vn -0.577 -0.577 -0.577
vn -0.577 -0.577 -0.577
vn -0.577 -0.577 -0.577
vn -0.577 -0.577 -0.577
vn -0.577 -0.577 -0.577
vn -0.577 -0.577 -0.577
vn -0.577 -0.577 -0.577
vn -0.577 -0.577 -0.577
vn -0.577 -0.577 -0.577
vn -0.577 -0.577 -0.577
vn -0.577 -0.577 -0.577
vn -0.577 -0.577 -0.577
vn -0.577 -0.577 -0.577
vn -0.577 -0.577 -0.577
vn -0.577 -0.577 -0.577
vn -0.577 -0.577 -0.577
vn -0.577 -0.577 -0.577
vn -0.577 -0.577 -0.577
vn -0.577 -0.577 -0.577
vn -0.577 -0.577 -0.577
vn -0.577 -0.577 -0.577
vn 0.577 0.577 0.577
vn -0.577 -0.577 -0.577
vn -0.577 -0.577 -0.577
vn -0.577 -0.577 -0.577
vn -0.577 -0.577 -0.577
vn -0.577 -0.577 -0.577
vn -0.577 -0.577 -0.577
vn -0.577 -0.577 -0.577
vn -0.577 -0.577 -0.577
vn -0.577 -0.577 -0.577
vn -0.577 -0.577 -0.577
vn -0.577 -0.577 -0.577
vn 0.577 0.577 0.577
vn -0.577 -0.577 -0.577
vn -0.577 -0.577 -0.577
vn -0.577 -0.577 -0.577
vn -0.577 -0.577 -0.577
vn -0.577 -0.577 -0.577
vn -0.577 -0.577 -0.577
vn -0.577 -0.577 -0.577
vn 0.577 0.577 0.577
vn -0.577 -0.577 -0.577
vn -0.577 -0.577 -0.577
vn -0.577 -0.577 -0.577
vn -0.577 -0.577 -0.577
vn -0.577 -0.577 -0.577
vn -0.577 -0.577 -0.577
vn -0.577 -0.577 -0.577
vn -0.577 -0.577 -0.577
vn -0.577 -0.577 -0.577
vn -0.577 -0.577 -0.577
vn -0.577 -0.577 -0.577
vn -0.577 -0.577 -0.577
vn -0.577 -0.577 -0.577
vn -0.577 -0.577 -0.577
vn -0.577 -0.577 -0.577
vn -0.577 -0.577 -0.577
vn -0.577 -0.577 -0.577
vn -0.577 -0.577 -0.577
vn -0.577 -0.577 -0.577
vn -0.577 -0.577 -0.577
vn -0.577 -0.577 -0.577
vn -0.577 -0.577 -0.577
vn -0.577 -0.577 -0.577
vn -0.577 -0.577 -0.577
vn -0.577 -0.577 -0.577
vn -0.577 -0.577 -0.577
vn -0.577 -0.577 -0.577
vn -0.577 -0.577 -0.577
vn -0.577 -0.577 -0.577
vn -0.577 -0.577 -0.577
vn -0.577 -0.577 -0.577
vn -0.577 -0.577 -0.577
vn -0.577 -0.577 -0.577
vn -0.577 -0.577 -0.577
vn -0.577 -0.577 -0.577
vn -0.577 -0.577 -0.577
vn -0.577 -0.577 -0.577
vn -0.577 -0.577 -0.577
vn -0.577 -0.577 -0.577
vn -0.577 -0.577 -0.577
vn -0.577 -0.577 -0.577
vn -0.577 -0.577 -0.577
vn -0.577 -0.577 -0.577
vn -0.577 -0.577 -0.577
vn -0.577 -0.577 -0.577
vn -0.577 -0.577 -0.577
vn -0.577 -0.577 -0.577
vn -0.577 -0.577 -0.577
vn -0.577 -0.577 -0.577
vn -0.577 -0.577 -0.577
vn -0.577 -0.577 -0.577
vn -0.577 -0.577 -0.577
vn -0.577 -0.577 -0.577
vn -0.577 -0.577 -0.577
vn -0.577 -0.577 -0.577
vn -0.577 -0.577 -0.577
vn -0.577 -0.577 -0.577
vn -0.577 -0.577 -0.577
vn -0.577 -0.577 -0.577
vn -0.577 -0.577 -0.577
vn -0.577 -0.577 -0.577
vn -0.577 -0.577 -0.577
vn -0.577 -0.577 -0.577
vn -0.577 -0.577 -0.577
vn -0.577 -0.577 -0.577
vn -0.577 -0.577 -0.577
vn -0.577 -0.577 -0.577
vn -0.577 -0.577 -0.577
vn -0.577 -0.577 -0.577
vn -0.577 -0.577 -0.577
vn -0.577 -0.577 -0.577
vn -0.577 -0.577 -0.577
vn -0.577 -0.577 -0.577
vn 0.577 0.577 0.577
vn -0.577 -0.577 -0.577
vn -0.577 -0.577 -0.577
vn -0.577 -0.577 -0.577
vn -0.577 -0.577 -0.577
vn -0.577 -0.577 -0.577
vn -0.577 -0.577 -0.577
vn -0.577 -0.577 -0.577
vn -0.577 -0.577 -0.577
vn -0.577 -0.577 -0.577
vn -0.577 -0.577 -0.577
vn -0.577 -0.577 -0.577
vn -0.577 -0.577 -0.577
vn -0.577 -0.577 -0.577
vn -0.577 -0.577 -0.577
vn 0.577 0.577 0.577
vn -0.577 -0.577 -0.577
vn -0.577 -0.577 -0.577
vn -0.577 -0.577 -0.577
vn -0.577 -0.577 -0.577
vn -0.577 -0.577 -0.577
vn -0.577 -0.577 -0.577
vn -0.577 -0.577 -0.577
vn 0.577 0.577 0.577
vn -0.577 -0.577 -0.577
vn -0.577 -0.577 -0.577
vn -0.577 -0.577 -0.577
vn -0.577 -0.577 -0.577
vn -0.577 -0.577 -0.577
vn -0.577 -0.577 -0.577
vn -0.577 -0.577 -0.577
vn -0.577 -0.577 -0.577
vn -0.577 -0.577 -0.577
vn -0.577 -0.577 -0.577
vn -0.577 -0.577 -0.577
vn -0.577 -0.577 -0.577
vn -0.577 -0.577 -0.577
vn -0.577 -0.577 -0.577
vn -0.577 -0.577 -0.577
vn -0.577 -0.577 -0.577
vn -0.577 -0.577 -0.577
vn -0.577 -0.577 -0.577
vn -0.577 -0.577 -0.577
vn -0.577 -0.577 -0.577
vn -0.577 -0.577 -0.577
vn -0.577 -0.577 -0.577
vn -0.577 -0.577 -0.577
vn -0.577 -0.577 -0.577
vn -0.577 -0.577 -0.577
vn -0.577 -0.577 -0.577
vn 0.577 0.577 0.577
vn -0.577 -0.577 -0.577
vn -0.577 -0.577 -0.577
vn -0.577 -0.577 -0.577
vn -0.577 -0.577 -0.577
vn -0.577 -0.577 -0.577
vn -0.577 -0.577 -0.577
vn -0.577 -0.577 -0.577
vn -0.577 -0.577 -0.577
vn -0.577 -0.577 -0.577
vn -0.577 -0.577 -0.577
vn -0.577 -0.577 -0.577
vn -0.577 -0.577 -0.577
vn -0.577 -0.577 -0.577
vn -0.577 -0.577 -0.577
vn -0.577 -0.577 -0.577
vn -0.577 -0.577 -0.577
vn 0.577 0.577 0.577
vn 0.577 0.577 0.577
vn -0.577 -0.577 -0.577
vn -0.577 -0.577 -0.577
vn -0.577 -0.577 -0.577
vn 0.577 0.577 0.577
vn 0.577 0.577 0.577
vn -0.577 -0.577 -0.577
vn -0.577 -0.577 -0.577
vn -0.577 -0.577 -0.577
vn -0.577 -0.577 -0.577
vn -0.577 -0.577 -0.577
vn -0.577 -0.577 -0.577
vn -0.577 -0.577 -0.577
vn -0.577 -0.577 -0.577
vn 0.577 0.577 0.577
vn -0.577 -0.577 -0.577
vn 0.577 0.577 0.577
vn -0.577 -0.577 -0.577
vn -0.577 -0.577 -0.577
vn -0.577 -0.577 -0.577
vn -0.577 -0.577 -0.577
vn 0.577 0.577 0.577
vn 0.577 0.577 0.577
vn -0.577 -0.577 -0.577
vn -0.577 -0.577 -0.577
vn -0.577 -0.577 -0.577
vn -0.577 -0.577 -0.577
vn -0.577 -0.577 -0.577
vn -0.577 -0.577 -0.577
vn -0.577 -0.577 -0.577
vn -0.577 -0.577 -0.577
vn -0.577 -0.577 -0.577
vn -0.577 -0.577 -0.577
vn -0.577 -0.577 -0.577
vn -0.577 -0.577 -0.577
vn -0.577 -0.577 -0.577
vn -0.577 -0.577 -0.577
vn -0.577 -0.577 -0.577
vn -0.577 -0.577 -0.577
vn -0.577 -0.577 -0.577
vn -0.577 -0.577 -0.577
vn -0.577 -0.577 -0.577
vn -0.577 -0.577 -0.577
vn 0.577 0.577 0.577
vn -0.577 -0.577 -0.577
vn -0.577 -0.577 -0.577
vn -0.577 -0.577 -0.577
vn -0.577 -0.577 -0.577
vn -0.577 -0.577 -0.577
vn 0.577 0.577 0.577
vn -0.577 -0.577 -0.577
vn -0.577 -0.577 -0.577
vn -0.577 -0.577 -0.577
vn -0.577 -0.577 -0.577
vn -0.577 -0.577 -0.577
vn 0.577 0.577 0.577
vn -0.577 -0.577 -0.577
vn 0.577 0.577 0.577
vn -0.577 -0.577 -0.577
vn -0.577 -0.577 -0.577
vn -0.577 -0.577 -0.577
vn -0.577 -0.577 -0.577
vn -0.577 -0.577 -0.577
vn -0.577 -0.577 -0.577
vn -0.577 -0.577 -0.577
vn -0.577 -0.577 -0.577
vn -0.577 -0.577 -0.577
vn -0.577 -0.577 -0.577
vn -0.577 -0.577 -0.577
vn -0.577 -0.577 -0.577
vn -0.577 -0.577 -0.577
vn -0.577 -0.577 -0.577
vn -0.577 -0.577 -0.577
vn -0.577 -0.577 -0.577
vn 0.577 0.577 0.577
vn -0.577 -0.577 -0.577
vn -0.577 -0.577 -0.577
vn 0.577 0.577 0.577
vn -0.577 -0.577 -0.577
vn -0.577 -0.577 -0.577
vn -0.577 -0.577 -0.577
vn 0.577 0.577 0.577
vn -0.577 -0.577 -0.577
vn -0.577 -0.577 -0.577
vn -0.577 -0.577 -0.577
vn -0.577 -0.577 -0.577
vn -0.577 -0.577 -0.577
vn -0.577 -0.577 -0.577
vn 0.577 0.577 0.577
vn -0.577 -0.577 -0.577
vn 0.577 0.577 0.577
vn -0.577 -0.577 -0.577
vn -0.577 -0.577 -0.577
vn -0.577 -0.577 -0.577
vn 0.577 0.577 0.577
vn -0.577 -0.577 -0.577
vn -0.577 -0.577 -0.577
vn -0.577 -0.577 -0.577
vn 0.577 0.577 0.577
vn -0.577 -0.577 -0.577
vn 0.577 0.577 0.577
vn 0.577 0.577 0.577
vn 0.577 0.577 0.577
vn -0.577 -0.577 -0.577
vn -0.577 -0.577 -0.577
vn -0.577 -0.577 -0.577
vn 0.577 0.577 0.577
vn 0.577 0.577 0.577
vn 0.577 0.577 0.577
vn -0.577 -0.577 -0.577
vn 0.577 0.577 0.577
vn 0.577 0.577 0.577
vn 0.577 0.577 0.577
vn 0.577 0.577 0.577
vn 0.577 0.577 0.577
vn 0.577 0.577 0.577
vn 0.577 0.577 0.577
vn 0.577 0.577 0.577
vn 0.577 0.577 0.577
vn 0.577 0.577 0.577
vn 0.577 0.577 0.577
vn 0.577 0.577 0.577
vn 0.577 0.577 0.577
vn 0.577 0.577 0.577
vn 0.577 0.577 0.577
vn 0.577 0.577 0.577
vn 0.577 0.577 0.577
vn 0.577 0.577 0.577
vn 0.577 0.577 0.577
vn 0.577 0.577 0.577
vn 0.577 0.577 0.577
vn -0.577 -0.577 -0.577
vn -0.577 -0.577 -0.577
vn -0.577 -0.577 -0.577
vn -0.577 -0.577 -0.577
vn -0.577 -0.577 -0.577
vn 0.577 0.577 0.577
vn -0.577 -0.577 -0.577
vn -0.577 -0.577 -0.577
vn -0.577 -0.577 -0.577
vn 0.577 0.577 0.577
vn 0.577 0.577 0.577
vn 0.577 0.577 0.577
vn 0.577 0.577 0.577
vn 0.577 0.577 0.577
vn 0.577 0.577 0.577
vn 0.577 0.577 0.577
vn -0.577 -0.577 -0.577
vn -0.577 -0.577 -0.577
vn -0.577 -0.577 -0.577
vn -0.577 -0.577 -0.577
vn 0.577 0.577 0.577
vn 0.577 0.577 0.577
vn -0.577 -0.577 -0.577
vn -0.577 -0.577 -0.577
vn -0.577 -0.577 -0.577
vn -0.577 -0.577 -0.577
vn -0.577 -0.577 -0.577
vn -0.577 -0.577 -0.577
vn -0.577 -0.577 -0.577
vn 0.577 0.577 0.577
vn 0.577 0.577 0.577
vn -0.577 -0.577 -0.577
vn -0.577 -0.577 -0.577
vn -0.577 -0.577 -0.577
vn -0.577 -0.577 -0.577
vn -0.577 -0.577 -0.577
vn -0.577 -0.577 -0.577
vn 0.577 0.577 0.577
vn -0.577 -0.577 -0.577
vn -0.577 -0.577 -0.577
vn -0.577 -0.577 -0.577
vn -0.577 -0.577 -0.577
vn -0.577 -0.577 -0.577
vn -0.577 -0.577 -0.577
vn 0.577 0.577 0.577
vn -0.577 -0.577 -0.577
vn -0.577 -0.577 -0.577
vn -0.577 -0.577 -0.577
vn -0.577 -0.577 -0.577
vn -0.577 -0.577 -0.577
vn -0.577 -0.577 -0.577
vn -0.577 -0.577 -0.577
vn -0.577 -0.577 -0.577
vn 0.577 0.577 0.577
vn -0.577 -0.577 -0.577
vn -0.577 -0.577 -0.577
vn -0.577 -0.577 -0.577
vn -0.577 -0.577 -0.577
vn -0.577 -0.577 -0.577
vn -0.577 -0.577 -0.577
vn -0.577 -0.577 -0.577
vn -0.577 -0.577 -0.577
vn -0.577 -0.577 -0.577
vn -0.577 -0.577 -0.577
vn -0.577 -0.577 -0.577
vn 0.577 0.577 0.577
vn -0.577 -0.577 -0.577
vn -0.577 -0.577 -0.577
vn -0.577 -0.577 -0.577
vn -0.577 -0.577 -0.577
vn 0.577 0.577 0.577
vn 0.577 0.577 0.577
vn -0.577 -0.577 -0.577
vn -0.577 -0.577 -0.577
vn -0.577 -0.577 -0.577
vn 0.577 0.577 0.577
vn 0.577 0.577 0.577
vn 0.577 0.577 0.577
vn 0.577 0.577 0.577
vn 0.577 0.577 0.577
vn 0.577 0.577 0.577
vn 0.577 0.577 0.577
vn 0.577 0.577 0.577
vn 0.577 0.577 0.577
vn 0.577 0.577 0.577
vn 0.577 0.577 0.577
vn 0.577 0.577 0.577
vn 0.577 0.577 0.577
vn 0.577 0.577 0.577
vn 0.577 0.577 0.577
vn 0.577 0.577 0.577
vn 0.577 0.577 0.577
vn 0.577 0.577 0.577
vn 0.577 0.577 0.577
vn 0.577 0.577 0.577
vn 0.577 0.577 0.577
vn 0.577 0.577 0.577
vn 0.577 0.577 0.577
vn 0.577 0.577 0.577
vn -0.577 -0.577 -0.577
vn -0.577 -0.577 -0.577
vn 0.577 0.577 0.577
vn -0.577 -0.577 -0.577
vn -0.577 -0.577 -0.577
vn -0.577 -0.577 -0.577
vn -0.577 -0.577 -0.577
vn -0.577 -0.577 -0.577
vn -0.577 -0.577 -0.577
vn -0.577 -0.577 -0.577
vn 0.577 0.577 0.577
vn 0.577 0.577 0.577
vn 0.577 0.577 0.577
vn 0.577 0.577 0.577
vn 0.577 0.577 0.577
vn 0.577 0.577 0.577
vn -0.577 -0.577 -0.577
vn -0.577 -0.577 -0.577
vn -0.577 -0.577 -0.577
vn -0.577 -0.577 -0.577
vn 0.577 0.577 0.577
vn -0.577 -0.577 -0.577
vn -0.577 -0.577 -0.577
vn 0.577 0.577 0.577
vn -0.577 -0.577 -0.577
vn -0.577 -0.577 -0.577
vn -0.577 -0.577 -0.577
vn -0.577 -0.577 -0.577
vn -0.577 -0.577 -0.577
vn -0.577 -0.577 -0.577
vn -0.577 -0.577 -0.577
vn -0.577 -0.577 -0.577
vn -0.577 -0.577 -0.577
vn -0.577 -0.577 -0.577
vn 0.577 0.577 0.577
vn -0.577 -0.577 -0.577
vn -0.577 -0.577 -0.577
vn -0.577 -0.577 -0.577
vn 0.577 0.577 0.577
vn -0.577 -0.577 -0.577
vn -0.577 -0.577 -0.577
vn -0.577 -0.577 -0.577
vn -0.577 -0.577 -0.577
vn -0.577 -0.577 -0.577
vn -0.577 -0.577 -0.577
vn -0.577 -0.577 -0.577
vn -0.577 -0.577 -0.577
vn -0.577 -0.577 -0.577
vn 0.577 0.577 0.577
vn -0.577 -0.577 -0.577
vn -0.577 -0.577 -0.577
vn -0.577 -0.577 -0.577
vn -0.577 -0.577 -0.577
vn -0.577 -0.577 -0.577
vn -0.577 -0.577 -0.577
vn -0.577 -0.577 -0.577
vn -0.577 -0.577 -0.577
vn 0.577 0.577 0.577
vn -0.577 -0.577 -0.577
vn 0.577 0.577 0.577
vn -0.577 -0.577 -0.577
vn -0.577 -0.577 -0.577
vn -0.577 -0.577 -0.577
vn -0.577 -0.577 -0.577
vn 0.577 0.577 0.577
vn -0.577 -0.577 -0.577
vn -0.577 -0.577 -0.577
vn 0.577 0.577 0.577
vn -0.577 -0.577 -0.577
vn -0.577 -0.577 -0.577
vn -0.577 -0.577 -0.577
vn -0.577 -0.577 -0.577
vn -0.577 -0.577 -0.577
vn 0.577 0.577 0.577
vn -0.577 -0.577 -0.577
vn 0.577 0.577 0.577
vn -0.577 -0.577 -0.577
vn -0.577 -0.577 -0.577
vn -0.577 -0.577 -0.577
vn 0.577 0.577 0.577
vn -0.577 -0.577 -0.577
vn -0.577 -0.577 -0.577
vn -0.577 -0.577 -0.577
vn -0.577 -0.577 -0.577
vn 0.577 0.577 0.577
vn -0.577 -0.577 -0.577
vn -0.577 -0.577 -0.577
vn -0.577 -0.577 -0.577
vn 0.577 0.577 0.577
vn -0.577 -0.577 -0.577
vn 0.577 0.577 0.577
vn -0.577 -0.577 -0.577
vn 0.577 0.577 0.577
vn -0.577 -0.577 -0.577
vn 0.577 0.577 0.577
usemtl tex_1873_lit
f 1/1/1 9/2/9 10/3/10
f 11/4/11 2/5/2 3/6/3
f 2/5/2 12/7/12 1/1/1
f 12/7/12 9/2/9 1/1/1
f 4/8/4 1/1/1 10/3/10
f 4/8/4 10/3/10 13/9/13
f 4/8/4 13/9/13 7/10/7
f 13/9/13 8/11/8 7/10/7
f 13/9/13 11/4/11 8/11/8
f 11/4/11 3/6/3 8/11/8
f 2/5/2 11/4/11 12/7/12
usemtl tex_1897_lit
f 14/12/14 15/13/15 16/14/16
f 16/14/16 15/13/15 17/15/17
f 18/16/18 19/17/19 20/18/20
f 20/18/20 19/17/19 21/19/21
usemtl tex_1899_lit
f 22/20/22 23/21/23 24/22/24
f 25/23/25 26/24/26 27/25/27
f 27/25/27 26/24/26 28/26/28
f 29/27/29 30/28/30 31/29/31
f 31/29/31 30/28/30 32/30/32
usemtl tex_1900_lit
f 33/22/33 34/21/34 35/31/35
usemtl tex_1871_lit_w10
f 36/32/36 37/33/37 42/34/42
f 36/32/36 42/34/42 43/35/43
f 44/36/44 45/37/45 38/38/38
f 39/39/39 45/37/45 46/40/46
f 40/41/40 36/32/36 43/35/43
f 37/33/37 47/42/47 42/34/42
f 45/37/45 39/39/39 38/38/38
f 37/33/37 41/43/41 47/42/47
f 48/44/48 58/33/58 49/45/49
f 59/43/59 58/33/58 48/44/48
f 50/46/50 60/39/60 51/47/51
f 52/48/52 61/38/61 60/39/60
f 53/49/53 61/38/61 52/48/52
f 62/32/62 63/41/63 54/50/54
f 55/51/55 62/32/62 56/52/56
f 58/33/58 62/32/62 55/51/55
f 56/52/56 62/32/62 54/50/54
f 52/48/52 60/39/60 50/46/50
f 51/47/51 60/39/60 57/53/57
f 49/45/49 58/33/58 55/51/55
f 64/54/64 65/55/65 66/56/66
f 67/57/67 64/54/64 66/56/66
f 68/58/68 69/59/69 70/60/70
f 68/58/68 69/59/69 70/60/70
f 68/58/68 70/60/70 71/61/71
f 67/57/67 72/62/72 73/63/73
f 69/59/69 74/64/74 70/60/70
f 67/57/67 66/56/66 72/62/72
f 64/54/64 75/65/75 65/55/65
f 75/65/75 64/54/64 76/66/76
f 77/67/77 68/58/68 71/61/71
f 78/68/78 86/54/86 79/69/79
f 79/69/79 86/54/86 87/57/87
f 88/63/88 79/69/79 87/57/87
f 80/70/80 79/69/79 88/63/88
f 89/71/89 80/70/80 88/63/88
f 81/72/81 80/70/80 89/71/89
f 90/59/90 82/73/82 91/64/91
f 83/74/83 82/73/82 90/59/90
f 92/58/92 83/74/83 90/59/90
f 84/75/84 85/76/85 93/66/93
f 86/54/86 84/75/84 93/66/93
f 84/75/84 86/54/86 78/68/78
f 100/45/100 101/51/101 94/55/94
f 102/44/102 100/45/100 94/55/94
f 103/47/103 104/53/104 95/67/95
f 105/46/105 103/47/103 95/67/95
f 106/48/106 105/46/105 96/61/96
f 107/49/107 106/48/106 96/61/96
f 108/52/108 109/50/109 97/56/97
f 101/51/101 108/52/108 97/56/97
f 97/56/97 109/50/109 98/62/98
f 99/65/99 102/44/102 94/55/94
f 94/55/94 101/51/101 97/56/97
f 96/61/96 105/46/105 95/67/95
usemtl tex_1897_lit
f 110/77/110 111/78/111 112/79/112
f 113/80/113 111/78/111 110/77/110
f 114/81/114 115/82/115 116/83/116
f 117/84/117 115/82/115 114/81/114
usemtl tex_1899_lit
f 118/85/118 119/86/119 120/87/120
f 121/88/121 119/86/119 118/85/118
f 122/89/122 123/90/123 124/91/124
f 125/92/125 123/90/123 122/89/122
usemtl tex_1900_lit
f 126/93/126 127/94/127 128/95/128
f 129/96/129 127/94/127 126/93/126
usemtl tex_1871_lit_w10
f 136/97/136 130/98/130 131/99/131
f 137/100/137 136/97/136 131/99/131
f 132/101/132 138/102/138 139/103/139
f 140/104/140 141/105/141 133/106/133
f 137/100/137 131/99/131 134/107/134
f 136/97/136 140/104/140 130/98/130
f 132/101/132 135/108/135 138/102/138
f 140/104/140 133/106/133 130/98/130
f 142/109/142 143/110/143 152/101/152
f 143/110/143 144/111/144 153/108/153
f 145/112/145 146/113/146 154/98/154
f 146/113/146 147/114/147 155/99/155
f 148/115/148 149/116/149 156/107/156
f 147/114/147 148/115/148 155/99/155
f 144/111/144 150/117/150 153/108/153
f 151/118/151 145/112/145 154/98/154
f 155/99/155 148/115/148 156/107/156
f 154/98/154 146/113/146 155/99/155
f 157/106/157 151/118/151 154/98/154
f 152/101/152 143/110/143 153/108/153
f 158/119/158 159/120/159 160/121/160
f 158/119/158 160/121/160 161/122/161
f 162/123/162 160/121/160 163/124/163
f 164/125/164 165/126/165 166/127/166
f 164/125/164 166/127/166 167/128/167
f 159/120/159 163/124/163 160/121/160
f 165/126/165 168/129/168 166/127/166
f 169/130/169 158/119/158 161/122/161
f 165/126/165 166/127/166 167/128/167
f 170/131/170 169/130/169 161/122/161
f 171/132/171 164/125/164 167/128/167
f 172/133/172 180/127/180 173/134/173
f 173/134/173 180/127/180 181/129/181
f 174/135/174 182/136/182 175/137/175
f 175/137/175 182/136/182 183/131/183
f 175/137/175 183/131/183 176/138/176
f 176/138/176 183/131/183 184/122/184
f 176/138/176 184/122/184 185/121/185
f 178/139/178 177/140/177 186/123/186
f 177/140/177 185/121/185 186/123/186
f 178/139/178 186/123/186 179/141/179
f 172/133/172 187/128/187 180/127/180
f 176/138/176 185/121/185 177/140/177
f 194/118/194 188/120/188 195/112/195
f 189/124/189 188/120/188 194/118/194
f 196/110/196 190/132/190 197/111/197
f 191/125/191 190/132/190 196/110/196
f 198/115/198 192/130/192 199/116/199
f 193/119/193 192/130/192 198/115/198
f 200/113/200 193/119/193 201/114/201
f 188/120/188 193/119/193 200/113/200
f 201/114/201 193/119/193 198/115/198
f 195/112/195 188/120/188 200/113/200
f 197/111/197 190/132/190 202/117/202
f 203/109/203 191/125/191 196/110/196
usemtl tex_1878_lit
f 204/142/204 205/143/205 206/144/206
f 207/145/207 208/146/208 209/147/209
f 210/148/210 211/149/211 212/150/212
f 215/151/215 216/152/216 217/153/217
f 210/148/210 213/154/213 218/155/218
f 219/156/219 220/151/220 221/157/221
f 222/142/222 223/158/223 224/143/224
f 225/145/225 219/156/219 221/157/221
f 225/145/225 224/143/224 226/146/226
f 227/148/227 228/159/228 229/149/229
f 224/143/224 230/160/230 231/144/231
f 219/156/219 232/152/232 220/151/220
f 230/160/230 233/161/233 231/144/231
f 222/142/222 231/144/231 234/162/234
f 235/148/235 236/150/236 237/154/237
f 238/146/238 237/154/237 239/147/239
f 240/163/240 241/164/241 242/165/242
f 243/159/243 244/166/244 245/149/245
f 246/145/246 247/167/247 248/156/248
f 249/144/249 250/161/250 251/162/251
f 252/154/252 253/158/253 254/155/254
f 255/168/255 256/165/256 257/164/257
f 258/169/258 250/161/250 259/145/259
f 253/158/253 252/154/252 260/146/260
f 259/145/259 262/160/262 261/143/261
f 259/145/259 250/161/250 262/160/262
f 264/147/264 265/164/265 266/167/266
f 267/143/267 268/158/268 269/146/269
f 270/150/270 264/147/264 271/154/271
f 270/150/270 272/149/272 264/147/264
f 273/169/273 274/145/274 275/157/275
f 276/148/276 277/155/277 278/159/278
f 279/170/279 264/147/264 272/149/272
f 280/170/280 281/168/281 282/147/282
f 281/168/281 283/164/283 282/147/282
f 284/161/284 285/171/285 286/162/286
f 287/153/287 288/163/288 289/165/289
f 290/145/290 282/147/282 291/167/291
usemtl tex_1872_lit
f 292/172/292 287/153/287 293/173/293
f 294/174/294 295/175/295 286/162/286
f 296/173/296 297/153/297 298/176/298
f 299/172/299 300/151/300 297/153/297
f 301/171/301 302/174/302 303/162/303
f 304/177/304 305/166/305 306/159/306
f 304/177/304 298/176/298 305/166/305
f 301/171/301 299/172/299 302/174/302
f 296/173/296 304/177/304 307/175/307
f 296/173/296 298/176/298 304/177/304
f 302/174/302 299/172/299 296/173/296
f 307/175/307 304/177/304 306/159/306
f 307/175/307 302/174/302 296/173/296
f 297/153/297 308/165/308 298/176/298
usemtl tex_1878_lit
f 309/178/309 319/162/319 310/179/310
f 320/142/320 319/162/319 309/178/309
f 311/180/311 320/142/320 312/181/312
f 321/158/321 320/142/320 311/180/311
f 313/182/313 321/158/321 314/183/314
f 322/155/322 321/158/321 313/182/313
f 315/184/315 322/155/322 316/185/316
f 323/159/323 322/155/322 315/184/315
f 317/186/317 323/159/323 315/184/315
f 312/181/312 320/142/320 309/178/309
f 316/185/316 322/155/322 313/182/313
f 314/183/314 321/158/321 311/180/311
usemtl tex_1872_lit
f 318/187/318 323/159/323 317/186/317
f 324/175/324 323/159/323 318/187/318
f 325/188/325 328/175/328 326/187/326
f 329/162/329 328/175/328 325/188/325
f 327/179/327 329/162/329 325/188/325
usemtl tex_1882_lit_w10
f 330/189/330 331/190/331 332/191/332
f 332/191/332 331/190/331 333/191/333
f 332/191/332 334/192/334 335/193/335
f 334/192/334 336/194/336 335/193/335
f 331/190/331 335/193/335 337/195/337
f 332/191/332 333/191/333 338/196/338
f 338/196/338 336/194/336 334/192/334
f 331/190/331 330/189/330 335/193/335
f 332/191/332 335/193/335 330/189/330
f 333/191/333 331/190/331 337/195/337
f 339/197/339 333/191/333 337/195/337
f 339/197/339 338/196/338 333/191/333
f 334/192/334 332/191/332 338/196/338
f 338/196/338 339/197/339 336/194/336
usemtl tex_1879_lit_w01
f 340/198/340 341/199/341 342/200/342
f 343/201/343 344/202/344 341/199/341
f 345/203/345 346/204/346 347/205/347
f 346/204/346 348/206/348 347/205/347
f 349/207/349 342/200/342 350/208/350
f 349/207/349 340/198/340 342/200/342
f 340/198/340 343/201/343 341/199/341
f 346/204/346 351/209/351 348/206/348
usemtl tex_1880_lit_w01
f 352/210/352 356/211/356 353/212/353
f 353/212/353 356/211/356 357/213/357
f 353/212/353 357/213/357 354/214/354
f 354/214/354 357/213/357 358/215/358
f 354/214/354 358/215/358 355/216/355
f 355/216/355 358/215/358 359/217/359
f 355/216/355 359/217/359 352/210/352
f 352/210/352 359/217/359 356/211/356
usemtl tex_1879_lit_w01
f 360/218/360 369/204/369 361/219/361
f 361/219/361 369/204/369 370/203/370
f 362/220/362 371/221/371 363/222/363
f 364/223/364 372/201/372 373/198/373
f 365/224/365 373/198/373 366/225/366
f 366/225/366 373/198/373 374/207/374
f 366/225/366 374/207/374 367/226/367
f 368/227/368 375/209/375 369/204/369
f 364/223/364 373/198/373 365/224/365
f 376/219/376 380/203/380 377/228/377
f 378/227/378 381/204/381 379/218/379
f 382/229/382 383/230/383 384/231/384
f 385/232/385 383/230/383 382/229/382
f 386/233/386 387/234/387 388/235/388
f 389/236/389 387/234/387 386/233/386
f 390/237/390 389/236/389 386/233/386
f 391/238/391 389/236/389 390/237/390
f 392/239/392 391/238/391 390/237/390
f 383/230/383 393/240/393 394/241/394
f 384/231/384 383/230/383 394/241/394
usemtl tex_1872_lit
f 402/242/402 403/243/403 395/244/395
f 395/244/395 403/243/403 396/245/396
usemtl tex_1879_lit_w01
f 404/237/404 397/246/397 398/247/398
f 404/237/404 405/233/405 399/248/399
f 406/229/406 407/231/407 400/249/400
f 407/231/407 408/241/408 401/250/401
f 400/249/400 407/231/407 401/250/401
f 404/237/404 399/248/399 397/246/397
f 409/239/409 404/237/404 398/247/398
f 410/230/410 416/218/416 417/219/417
f 410/230/410 417/219/417 418/228/418
f 411/234/411 419/225/419 420/226/420
f 410/230/410 421/227/421 416/218/416
f 412/238/412 422/223/422 413/236/413
f 414/232/414 421/227/421 410/230/410
f 413/236/413 419/225/419 411/234/411
f 415/251/415 423/220/423 424/222/424
f 413/236/413 425/224/425 419/225/419
f 413/236/413 422/223/422 425/224/425
f 426/240/426 427/230/427 428/228/428
usemtl tex_1882_lit_w10
f 429/252/429 430/253/430 431/254/431
f 432/255/432 430/253/430 429/252/429
f 433/256/433 434/257/434 435/258/435
f 436/259/436 437/260/437 430/253/430
f 433/256/433 432/255/432 429/252/429
f 433/256/433 429/252/429 434/257/434
f 437/260/437 431/254/431 430/253/430
f 431/254/431 437/260/437 429/252/429
f 436/259/436 430/253/430 432/255/432
f 436/259/436 432/255/432 438/261/438
f 432/255/432 433/256/433 438/261/438
f 437/260/437 434/257/434 429/252/429
f 437/260/437 435/258/435 434/257/434
f 438/261/438 433/256/433 435/258/435
usemtl tex_1879_lit_w01
f 439/262/439 440/263/440 441/264/441
f 442/265/442 443/266/443 444/267/444
f 445/268/445 442/265/442 444/267/444
f 445/268/445 444/267/444 446/269/446
f 447/270/447 441/264/441 440/263/440
f 442/265/442 448/271/448 443/266/443
f 447/270/447 440/263/440 449/272/449
f 445/268/445 446/269/446 450/273/450
usemtl tex_1880_lit_w01
f 451/274/451 455/275/455 452/276/452
f 456/277/456 455/275/455 451/274/451
f 453/278/453 456/277/456 451/274/451
f 457/279/457 456/277/456 453/278/453
f 454/280/454 457/279/457 453/278/453
f 458/281/458 457/279/457 454/280/454
f 452/276/452 458/281/458 454/280/454
f 455/275/455 458/281/458 452/276/452
usemtl tex_1879_lit_w01
f 459/282/459 469/269/469 460/283/460
f 460/283/460 469/269/469 470/267/470
f 461/284/461 470/267/470 462/285/462
f 462/285/462 470/267/470 471/266/471
f 463/286/463 472/272/472 464/287/464
f 464/287/464 472/272/472 473/263/473
f 465/288/465 473/263/473 474/262/474
f 467/289/467 472/272/472 463/286/463
f 464/287/464 473/263/473 465/288/465
f 468/290/468 469/269/469 459/282/459
f 460/283/460 470/267/470 461/284/461
f 475/291/475 476/292/476 477/293/477
f 478/294/478 476/292/476 475/291/475
f 479/295/479 480/296/480 481/297/481
f 482/298/482 480/296/480 479/295/479
f 483/299/483 482/298/482 479/295/479
f 484/300/484 482/298/482 483/299/483
f 485/301/485 484/300/484 483/299/483
f 476/292/476 486/302/486 487/303/487
f 477/293/477 476/292/476 487/303/487
usemtl tex_1872_lit
f 488/244/488 495/304/495 496/242/496
f 489/305/489 495/304/495 488/244/488
usemtl tex_1879_lit_w01
f 497/295/497 498/297/498 490/306/490
f 491/307/491 499/299/499 497/295/497
f 492/308/492 500/291/500 501/293/501
f 493/309/493 491/307/491 497/295/497
f 494/310/494 501/293/501 502/303/502
f 492/308/492 501/293/501 494/310/494
f 493/309/493 497/295/497 490/306/490
f 503/294/503 509/286/509 510/287/510
f 504/292/504 510/287/510 511/288/511
f 505/300/505 512/290/512 513/282/513
f 504/292/504 511/288/511 506/302/506
f 503/294/503 510/287/510 504/292/504
f 507/298/507 514/285/514 508/296/508
f 505/300/505 515/283/515 507/298/507
f 505/300/505 513/282/513 515/283/515
f 507/298/507 515/283/515 516/284/516
f 507/298/507 516/284/516 514/285/514
f 503/294/503 517/289/517 509/286/509
usemtl tex_1878_lit
f 518/311/518 519/312/519 520/313/520
f 519/312/519 521/314/521 520/313/520
f 520/313/520 521/314/521 522/315/522
f 521/314/521 523/316/523 524/317/524
f 525/318/525 526/319/526 527/320/527
f 522/315/522 524/317/524 528/321/528
f 522/315/522 521/314/521 524/317/524
f 523/316/523 528/321/528 524/317/524
f 528/321/528 527/320/527 522/315/522
f 528/321/528 525/318/525 527/320/527
usemtl tex_1872_lit
f 519/312/519 529/322/529 530/323/530
f 519/312/519 518/311/518 529/322/529
f 530/323/530 526/319/526 525/318/525
f 530/323/530 529/322/529 526/319/526
usemtl tex_1878_lit
f 531/313/531 537/178/537 538/179/538
f 531/313/531 538/179/538 532/311/532
f 539/181/539 537/178/537 531/313/531
f 533/315/533 540/180/540 531/313/531
f 540/180/540 539/181/539 531/313/531
f 541/183/541 540/180/540 533/315/533
f 534/319/534 542/184/542 535/320/535
f 543/186/543 542/184/542 534/319/534
f 542/184/542 544/185/544 535/320/535
f 544/185/544 545/182/545 535/320/535
f 545/182/545 541/183/541 533/315/533
f 535/320/535 545/182/545 533/315/533
usemtl tex_1872_lit
f 536/322/536 546/187/546 534/319/534
f 547/311/547 550/188/550 548/322/548
f 551/179/551 550/188/550 547/311/547
f 552/187/552 553/186/553 549/319/549
f 548/322/548 550/188/550 552/187/552
