mtllib ColiveguardZ.mtl
v 1087.927879333496 -45.380823612213135 190.0 1.000 1.000 1.000
v 1087.927879333496 -171.38082361221313 -68.0 1.000 1.000 1.000
v 1087.927879333496 -89.38082361221313 -74.0 1.000 1.000 1.000
v 1087.927879333496 -164.38082361221313 200.0 1.000 1.000 1.000
v 982.9278793334961 -92.38082361221313 -4.0 1.000 1.000 1.000
v 1044.927879333496 -83.38082361221313 177.0 1.000 1.000 1.000
v 1047.927879333496 -135.38082361221313 203.0 1.000 1.000 1.000
v 980.9278793334961 -151.38082361221313 -49.0 1.000 1.000 1.000
v 981.9278793334961 -106.38082361221313 -62.0 1.000 1.000 1.000
v 981.9278793334961 -141.38082361221313 20.0 1.000 1.000 1.000
v 1047.927879333496 -135.38082361221313 203.0 1.000 1.000 1.000
v 1087.927879333496 -45.380823612213135 190.0 1.000 1.000 1.000
v 1044.927879333496 -83.38082361221313 177.0 1.000 1.000 1.000
v 1087.927879333496 -164.38082361221313 200.0 1.000 1.000 1.000
v 982.9278793334961 -92.38082361221313 -4.0 1.000 1.000 1.000
v 981.9278793334961 -141.38082361221313 20.0 1.000 1.000 1.000
v 675.3251266479492 -68.09517669677734 -85.0 1.000 1.000 1.000
v 660.3251266479492 -61.095176696777344 -1.0 1.000 1.000 1.000
v 660.3251266479492 -179.09517669677734 47.0 1.000 1.000 1.000
v 674.3251266479492 -176.09517669677734 -71.0 1.000 1.000 1.000
v 660.3251266479492 -61.095176696777344 -1.0 1.000 1.000 1.000
v 660.3251266479492 -179.09517669677734 47.0 1.000 1.000 1.000
v 981.9278793334961 -106.38082361221313 -62.0 1.000 1.000 1.000
v 982.9278793334961 -92.38082361221313 -4.0 1.000 1.000 1.000
v 980.9278793334961 -151.38082361221313 -49.0 1.000 1.000 1.000
v 981.9278793334961 -141.38082361221313 20.0 1.000 1.000 1.000
v 981.9278793334961 -141.38082361221313 20.0 1.000 1.000 1.000
v 982.9278793334961 -92.38082361221313 -4.0 1.000 1.000 1.000
v 515.3251266479492 -115.09517669677734 106.0 1.000 1.000 1.000
v 532.3251266479492 -23.095176696777344 14.0 1.000 1.000 1.000
v 528.3251266479492 -111.09517669677734 -67.0 1.000 1.000 1.000
v 522.3251266479492 -189.09517669677734 9.0 1.000 1.000 1.000
v 660.3251266479492 -61.095176696777344 -1.0 1.000 1.000 1.000
v 660.3251266479492 -179.09517669677734 47.0 1.000 1.000 1.000
v 675.3251266479492 -68.09517669677734 -85.0 1.000 1.000 1.000
v 674.3251266479492 -176.09517669677734 -71.0 1.000 1.000 1.000
v 1009.3251266479492 -95.09517669677734 23.0 1.000 1.000 1.000
v 1009.3251266479492 -144.09517669677734 46.0 1.000 1.000 1.000
v 1008.3251266479492 -153.09517669677734 -49.0 1.000 1.000 1.000
v 1010.3251266479492 -108.09517669677734 -62.0 1.000 1.000 1.000
v 1009.3251266479492 -95.09517669677734 23.0 1.000 1.000 1.000
v 536.3251266479492 -130.09517669677734 87.0 1.000 1.000 1.000
v 1009.3251266479492 -144.09517669677734 46.0 1.000 1.000 1.000
v 1010.3251266479492 -108.09517669677734 -62.0 1.000 1.000 1.000
v 531.3251266479492 -106.09517669677734 -67.0 1.000 1.000 1.000
v 528.3251266479492 -31.095176696777344 38.0 1.000 1.000 1.000
v 531.3251266479492 -193.09517669677734 13.0 1.000 1.000 1.000
v 1008.3251266479492 -153.09517669677734 -49.0 1.000 1.000 1.000
v 531.3251266479492 -193.09517669677734 13.0 1.000 1.000 1.000
v 536.3251266479492 -130.09517669677734 87.0 1.000 1.000 1.000
v 171.1657943725586 -65.35110473632812 88.0 1.000 1.000 1.000
v 172.1657943725586 -39.351104736328125 1.0 1.000 1.000 1.000
v 172.1657943725586 -21.351104736328125 13.0 1.000 1.000 1.000
v 172.1657943725586 -142.35110473632812 111.0 1.000 1.000 1.000
v 171.1657943725586 -198.35110473632812 133.0 1.000 1.000 1.000
v 172.1657943725586 -190.35110473632812 20.0 1.000 1.000 1.000
v 171.1657943725586 -196.35110473632812 -102.0 1.000 1.000 1.000
v 172.1657943725586 -117.35110473632812 -66.0 1.000 1.000 1.000
v 171.1657943725586 -125.35110473632812 -103.0 1.000 1.000 1.000
v 171.1657943725586 -39.351104736328125 -67.0 1.000 1.000 1.000
v 172.1657943725586 -142.35110473632812 111.0 1.000 1.000 1.000
v 172.1657943725586 -190.35110473632812 20.0 1.000 1.000 1.000
v 300.1657943725586 -128.35110473632812 123.0 1.000 1.000 1.000
v 343.1657943725586 -187.35110473632812 12.0 1.000 1.000 1.000
v 172.1657943725586 -117.35110473632812 -66.0 1.000 1.000 1.000
v 224.1657943725586 -94.35110473632812 -66.0 1.000 1.000 1.000
v 172.1657943725586 -142.35110473632812 111.0 1.000 1.000 1.000
v 300.1657943725586 -128.35110473632812 123.0 1.000 1.000 1.000
v 264.1657943725586 -33.351104736328125 12.0 1.000 1.000 1.000
v 224.1657943725586 -94.35110473632812 -66.0 1.000 1.000 1.000
v 172.1657943725586 -39.351104736328125 1.0 1.000 1.000 1.000
v 172.1657943725586 -117.35110473632812 -66.0 1.000 1.000 1.000
v 172.1657943725586 -190.35110473632812 20.0 1.000 1.000 1.000
v 343.1657943725586 -187.35110473632812 12.0 1.000 1.000 1.000
v 92.0 -46.0 -73.0 1.000 1.000 1.000
v 143.0 19.0 25.0 1.000 1.000 1.000
v -1.0 -94.0 -88.0 1.000 1.000 1.000
v 143.0 19.0 25.0 1.000 1.000 1.000
v 67.0 -61.0 136.0 1.000 1.000 1.000
v -2.0 -113.0 143.0 1.000 1.000 1.000
v -1.0 -94.0 -88.0 1.000 1.000 1.000
v 92.0 -46.0 -73.0 1.000 1.000 1.000
v 171.1657943725586 -39.351104736328125 -67.0 1.000 1.000 1.000
v 171.1657943725586 -125.35110473632812 -103.0 1.000 1.000 1.000
v 172.1657943725586 -21.351104736328125 13.0 1.000 1.000 1.000
v 171.1657943725586 -196.35110473632812 -102.0 1.000 1.000 1.000
v 171.1657943725586 -65.35110473632812 88.0 1.000 1.000 1.000
v 172.1657943725586 -21.351104736328125 13.0 1.000 1.000 1.000
v 171.1657943725586 -198.35110473632812 133.0 1.000 1.000 1.000
v 171.1657943725586 -196.35110473632812 -102.0 1.000 1.000 1.000
v 264.1657943725586 -33.351104736328125 12.0 1.000 1.000 1.000
v 224.1657943725586 -94.35110473632812 -66.0 1.000 1.000 1.000
v 343.1657943725586 -187.35110473632812 12.0 1.000 1.000 1.000
v 300.1657943725586 -128.35110473632812 123.0 1.000 1.000 1.000
v 532.3251266479492 -23.095176696777344 14.0 1.000 1.000 1.000
v 515.3251266479492 -115.09517669677734 106.0 1.000 1.000 1.000
v 528.3251266479492 -111.09517669677734 -67.0 1.000 1.000 1.000
v 522.3251266479492 -189.09517669677734 9.0 1.000 1.000 1.000
v 196.1657943725586 -119.35110473632812 -73.0 1.000 1.000 1.000
v 196.1657943725586 -189.35110473632812 20.0 1.000 1.000 1.000
v 196.1657943725586 -148.35110473632812 124.0 1.000 1.000 1.000
v 196.1657943725586 -35.351104736328125 27.0 1.000 1.000 1.000
v 196.1657943725586 -148.35110473632812 124.0 1.000 1.000 1.000
v 196.1657943725586 -189.35110473632812 20.0 1.000 1.000 1.000
v 537.1657943725586 -129.35110473632812 87.0 1.000 1.000 1.000
v 531.1657943725586 -193.35110473632812 13.0 1.000 1.000 1.000
v 196.1657943725586 -119.35110473632812 -73.0 1.000 1.000 1.000
v 196.1657943725586 -35.351104736328125 27.0 1.000 1.000 1.000
v 528.1657943725586 -31.351104736328125 38.0 1.000 1.000 1.000
v 531.1657943725586 -106.35110473632812 -67.0 1.000 1.000 1.000
v 531.1657943725586 -193.35110473632812 13.0 1.000 1.000 1.000
v 537.1657943725586 -129.35110473632812 87.0 1.000 1.000 1.000
v -1078.8555908203125 -86.70243644714355 -74.0 1.000 1.000 1.000
v -1078.8555908203125 -168.70243644714355 -68.0 1.000 1.000 1.000
v -1078.8555908203125 -43.702436447143555 191.0 1.000 1.000 1.000
v -1078.8555908203125 -162.70243644714355 200.0 1.000 1.000 1.000
v -1036.8555908203125 -78.70243644714355 177.0 1.000 1.000 1.000
v -972.8555908203125 -90.70243644714355 -4.0 1.000 1.000 1.000
v -971.8555908203125 -154.70243644714355 -49.0 1.000 1.000 1.000
v -1038.8555908203125 -134.70243644714355 203.0 1.000 1.000 1.000
v -973.8555908203125 -103.70243644714355 -62.0 1.000 1.000 1.000
v -972.8555908203125 -144.70243644714355 20.0 1.000 1.000 1.000
v -1036.8555908203125 -78.70243644714355 177.0 1.000 1.000 1.000
v -1078.8555908203125 -43.702436447143555 191.0 1.000 1.000 1.000
v -1038.8555908203125 -134.70243644714355 203.0 1.000 1.000 1.000
v -1078.8555908203125 -162.70243644714355 200.0 1.000 1.000 1.000
v -972.8555908203125 -144.70243644714355 20.0 1.000 1.000 1.000
v -972.8555908203125 -90.70243644714355 -4.0 1.000 1.000 1.000
v -639.8883666992188 -45.47519826889038 7.0 1.000 1.000 1.000
v -666.8883666992188 -59.47519826889038 -82.0 1.000 1.000 1.000
v -664.8883666992188 -181.47519826889038 -69.0 1.000 1.000 1.000
v -657.8883666992188 -172.47519826889038 48.0 1.000 1.000 1.000
v -639.8883666992188 -45.47519826889038 7.0 1.000 1.000 1.000
v -657.8883666992188 -172.47519826889038 48.0 1.000 1.000 1.000
v -973.8555908203125 -103.70243644714355 -62.0 1.000 1.000 1.000
v -972.8555908203125 -90.70243644714355 -4.0 1.000 1.000 1.000
v -971.8555908203125 -154.70243644714355 -49.0 1.000 1.000 1.000
v -972.8555908203125 -144.70243644714355 20.0 1.000 1.000 1.000
v -972.8555908203125 -90.70243644714355 -4.0 1.000 1.000 1.000
v -972.8555908203125 -144.70243644714355 20.0 1.000 1.000 1.000
v -506.88836669921875 -112.47519826889038 106.0 1.000 1.000 1.000
v -523.8883666992188 -26.47519826889038 12.0 1.000 1.000 1.000
v -519.8883666992188 -114.47519826889038 -74.0 1.000 1.000 1.000
v -512.8883666992188 -188.47519826889038 9.0 1.000 1.000 1.000
v -657.8883666992188 -172.47519826889038 48.0 1.000 1.000 1.000
v -639.8883666992188 -45.47519826889038 7.0 1.000 1.000 1.000
v -666.8883666992188 -59.47519826889038 -82.0 1.000 1.000 1.000
v -664.8883666992188 -181.47519826889038 -69.0 1.000 1.000 1.000
v -1000.8883666992188 -103.47519826889038 -62.0 1.000 1.000 1.000
v -999.8883666992188 -149.47519826889038 -50.0 1.000 1.000 1.000
v -1000.8883666992188 -139.47519826889038 46.0 1.000 1.000 1.000
v -999.8883666992188 -90.47519826889038 23.0 1.000 1.000 1.000
v -1000.8883666992188 -139.47519826889038 46.0 1.000 1.000 1.000
v -527.8883666992188 -125.47519826889038 87.0 1.000 1.000 1.000
v -999.8883666992188 -90.47519826889038 23.0 1.000 1.000 1.000
v -518.8883666992188 -27.47519826889038 38.0 1.000 1.000 1.000
v -521.8883666992188 -101.47519826889038 -67.0 1.000 1.000 1.000
v -1000.8883666992188 -103.47519826889038 -62.0 1.000 1.000 1.000
v -522.8883666992188 -188.47519826889038 13.0 1.000 1.000 1.000
v -999.8883666992188 -149.47519826889038 -50.0 1.000 1.000 1.000
v -527.8883666992188 -125.47519826889038 87.0 1.000 1.000 1.000
v -522.8883666992188 -188.47519826889038 13.0 1.000 1.000 1.000
v -162.58901977539062 -37.63739013671875 1.0 1.000 1.000 1.000
v -162.58901977539062 -49.63739013671875 -67.0 1.000 1.000 1.000
v -162.58901977539062 -115.63739013671875 -65.0 1.000 1.000 1.000
v -162.58901977539062 -137.63739013671875 -102.0 1.000 1.000 1.000
v -163.58901977539062 -185.63739013671875 20.0 1.000 1.000 1.000
v -162.58901977539062 -191.63739013671875 -102.0 1.000 1.000 1.000
v -161.58901977539062 -189.63739013671875 133.0 1.000 1.000 1.000
v -162.58901977539062 -144.63739013671875 116.0 1.000 1.000 1.000
v -162.58901977539062 -70.63739013671875 89.0 1.000 1.000 1.000
v -162.58901977539062 -17.63739013671875 13.0 1.000 1.000 1.000
v -291.5890197753906 -125.63739013671875 123.0 1.000 1.000 1.000
v -163.58901977539062 -185.63739013671875 20.0 1.000 1.000 1.000
v -162.58901977539062 -144.63739013671875 116.0 1.000 1.000 1.000
v -162.58901977539062 -115.63739013671875 -65.0 1.000 1.000 1.000
v -334.5890197753906 -188.63739013671875 13.0 1.000 1.000 1.000
v -212.58901977539062 -117.63739013671875 -67.0 1.000 1.000 1.000
v -254.58901977539062 -28.63739013671875 12.0 1.000 1.000 1.000
v -162.58901977539062 -37.63739013671875 1.0 1.000 1.000 1.000
v -162.58901977539062 -115.63739013671875 -65.0 1.000 1.000 1.000
v -334.5890197753906 -188.63739013671875 13.0 1.000 1.000 1.000
v -291.5890197753906 -125.63739013671875 123.0 1.000 1.000 1.000
v -162.58901977539062 -144.63739013671875 116.0 1.000 1.000 1.000
v -163.58901977539062 -185.63739013671875 20.0 1.000 1.000 1.000
v -91.0 -48.0 -70.0 1.000 1.000 1.000
v -132.0 19.0 20.0 1.000 1.000 1.000
v -1.0 -94.0 -88.0 1.000 1.000 1.000
v -2.0 -113.0 143.0 1.000 1.000 1.000
v -63.0 -65.0 133.0 1.000 1.000 1.000
v -132.0 19.0 20.0 1.000 1.000 1.000
v -1.0 -94.0 -88.0 1.000 1.000 1.000
v -162.58901977539062 -17.63739013671875 13.0 1.000 1.000 1.000
v -162.58901977539062 -49.63739013671875 -67.0 1.000 1.000 1.000
v -162.58901977539062 -137.63739013671875 -102.0 1.000 1.000 1.000
v -162.58901977539062 -191.63739013671875 -102.0 1.000 1.000 1.000
v -161.58901977539062 -189.63739013671875 133.0 1.000 1.000 1.000
v -162.58901977539062 -70.63739013671875 89.0 1.000 1.000 1.000
v -162.58901977539062 -17.63739013671875 13.0 1.000 1.000 1.000
v -162.58901977539062 -191.63739013671875 -102.0 1.000 1.000 1.000
v -212.58901977539062 -117.63739013671875 -67.0 1.000 1.000 1.000
v -254.58901977539062 -28.63739013671875 12.0 1.000 1.000 1.000
v -334.5890197753906 -188.63739013671875 13.0 1.000 1.000 1.000
v -291.5890197753906 -125.63739013671875 123.0 1.000 1.000 1.000
v -523.8883666992188 -26.47519826889038 12.0 1.000 1.000 1.000
v -519.8883666992188 -114.47519826889038 -74.0 1.000 1.000 1.000
v -506.88836669921875 -112.47519826889038 106.0 1.000 1.000 1.000
v -512.8883666992188 -188.47519826889038 9.0 1.000 1.000 1.000
v -187.58901977539062 -30.63739013671875 27.0 1.000 1.000 1.000
v -187.58901977539062 -144.63739013671875 124.0 1.000 1.000 1.000
v -187.58901977539062 -185.63739013671875 20.0 1.000 1.000 1.000
v -187.58901977539062 -115.63739013671875 -73.0 1.000 1.000 1.000
v -527.5890197753906 -125.63739013671875 87.0 1.000 1.000 1.000
v -187.58901977539062 -185.63739013671875 20.0 1.000 1.000 1.000
v -187.58901977539062 -144.63739013671875 124.0 1.000 1.000 1.000
v -187.58901977539062 -115.63739013671875 -73.0 1.000 1.000 1.000
v -522.5890197753906 -188.63739013671875 13.0 1.000 1.000 1.000
v -522.5890197753906 -101.63739013671875 -67.0 1.000 1.000 1.000
v -519.5890197753906 -27.63739013671875 38.0 1.000 1.000 1.000
v -187.58901977539062 -30.63739013671875 27.0 1.000 1.000 1.000
v -527.5890197753906 -125.63739013671875 87.0 1.000 1.000 1.000
v -522.5890197753906 -188.63739013671875 13.0 1.000 1.000 1.000
v -254.86859130859375 376.30655002593994 70.0 1.000 1.000 1.000
v -198.86859130859375 395.30655002593994 1.0 1.000 1.000 1.000
v -304.86859130859375 394.30655002593994 0.0 1.000 1.000 1.000
v -198.86859130859375 395.30655002593994 1.0 1.000 1.000 1.000
v -226.86859130859375 428.30655002593994 -47.0 1.000 1.000 1.000
v -304.86859130859375 394.30655002593994 0.0 1.000 1.000 1.000
v -288.86859130859375 429.30655002593994 -43.0 1.000 1.000 1.000
v -6.576026916503906 442.42901611328125 73.0 1.000 1.000 1.000
v -51.576026916503906 469.42901611328125 44.0 1.000 1.000 1.000
v 49.423973083496094 468.42901611328125 44.0 1.000 1.000 1.000
v 27.423973083496094 480.42901611328125 -37.0 1.000 1.000 1.000
v -51.576026916503906 469.42901611328125 44.0 1.000 1.000 1.000
v -46.576026916503906 482.42901611328125 -31.0 1.000 1.000 1.000
v 49.423973083496094 468.42901611328125 44.0 1.000 1.000 1.000
v -785.0662807226181 361.1454210281372 55.0 1.000 1.000 1.000
v -744.0662807226181 433.1454210281372 -27.0 1.000 1.000 1.000
v -773.0662807226181 366.1454210281372 -44.0 1.000 1.000 1.000
v -756.0662807226181 457.1454210281372 52.0 1.000 1.000 1.000
v -744.0662807226181 433.1454210281372 -27.0 1.000 1.000 1.000
v -669.0662807226181 421.1454210281372 40.0 1.000 1.000 1.000
v -671.0662807226181 406.1454210281372 -27.0 1.000 1.000 1.000
v -756.0662807226181 457.1454210281372 52.0 1.000 1.000 1.000
v -669.0662807226181 421.1454210281372 40.0 1.000 1.000 1.000
v -785.0662807226181 361.1454210281372 55.0 1.000 1.000 1.000
v -668.0662807226181 358.1454210281372 40.0 1.000 1.000 1.000
v -756.0662807226181 457.1454210281372 52.0 1.000 1.000 1.000
v -671.0662807226181 406.1454210281372 -27.0 1.000 1.000 1.000
v -773.0662807226181 366.1454210281372 -44.0 1.000 1.000 1.000
v -744.0662807226181 433.1454210281372 -27.0 1.000 1.000 1.000
v -667.0662807226181 365.1454210281372 -25.0 1.000 1.000 1.000
v -773.0662807226181 366.1454210281372 -44.0 1.000 1.000 1.000
v -668.0662807226181 358.1454210281372 40.0 1.000 1.000 1.000
v -785.0662807226181 361.1454210281372 55.0 1.000 1.000 1.000
v -667.0662807226181 365.1454210281372 -25.0 1.000 1.000 1.000
v -475.19768941402435 338.83887100219727 45.0 1.000 1.000 1.000
v -481.19768941402435 401.83887100219727 50.0 1.000 1.000 1.000
v -476.19768941402435 335.83887100219727 -10.0 1.000 1.000 1.000
v -476.19768941402435 390.83887100219727 -46.0 1.000 1.000 1.000
v -475.19768941402435 441.83887100219727 5.0 1.000 1.000 1.000
v -668.0662807226181 358.1454210281372 40.0 1.000 1.000 1.000
v -667.0662807226181 365.1454210281372 -25.0 1.000 1.000 1.000
v -669.0662807226181 421.1454210281372 40.0 1.000 1.000 1.000
v -671.0662807226181 406.1454210281372 -27.0 1.000 1.000 1.000
v -403.19768941402435 424.83887100219727 6.0 1.000 1.000 1.000
v -404.19768941402435 390.83887100219727 -32.0 1.000 1.000 1.000
v -403.19768941402435 338.83887100219727 -10.0 1.000 1.000 1.000
v -403.19768941402435 345.83887100219727 51.0 1.000 1.000 1.000
v -403.19768941402435 420.83887100219727 49.0 1.000 1.000 1.000
v -475.19768941402435 441.83887100219727 5.0 1.000 1.000 1.000
v -476.19768941402435 390.83887100219727 -46.0 1.000 1.000 1.000
v -476.19768941402435 335.83887100219727 -10.0 1.000 1.000 1.000
v -475.19768941402435 338.83887100219727 45.0 1.000 1.000 1.000
v -481.19768941402435 401.83887100219727 50.0 1.000 1.000 1.000
v -391.19768941402435 313.83887100219727 85.0 1.000 1.000 1.000
v -397.19768941402435 414.83887100219727 89.0 1.000 1.000 1.000
v -680.1976894140244 358.83887100219727 42.0 1.000 1.000 1.000
v -680.1976894140244 365.83887100219727 -25.0 1.000 1.000 1.000
v -391.19768941402435 311.83887100219727 -28.0 1.000 1.000 1.000
v -391.19768941402435 313.83887100219727 85.0 1.000 1.000 1.000
v -683.1976894140244 421.83887100219727 42.0 1.000 1.000 1.000
v -397.19768941402435 427.83887100219727 -49.0 1.000 1.000 1.000
v -682.1976894140244 405.83887100219727 -27.0 1.000 1.000 1.000
v -680.1976894140244 358.83887100219727 42.0 1.000 1.000 1.000
v -397.19768941402435 414.83887100219727 89.0 1.000 1.000 1.000
v -391.19768941402435 313.83887100219727 85.0 1.000 1.000 1.000
v -391.19768941402435 311.83887100219727 -28.0 1.000 1.000 1.000
v -397.19768941402435 427.83887100219727 -49.0 1.000 1.000 1.000
v -332.2357143163681 347.22493743896484 62.0 1.000 1.000 1.000
v -267.2357143163681 327.22493743896484 -16.0 1.000 1.000 1.000
v -258.2357143163681 331.22493743896484 66.0 1.000 1.000 1.000
v -181.2357143163681 385.22493743896484 88.0 1.000 1.000 1.000
v -326.2357143163681 395.22493743896484 81.0 1.000 1.000 1.000
v -259.2357143163681 397.22493743896484 -55.0 1.000 1.000 1.000
v -133.2357143163681 412.22493743896484 11.0 1.000 1.000 1.000
v -167.2357143163681 379.22493743896484 -67.0 1.000 1.000 1.000
v -325.2357143163681 333.22493743896484 -10.0 1.000 1.000 1.000
v -267.2357143163681 447.22493743896484 21.0 1.000 1.000 1.000
v -440.86859130859375 220.30655002593994 68.0 1.000 1.000 1.000
v -439.86859130859375 208.30655002593994 -19.0 1.000 1.000 1.000
v -445.86859130859375 354.30655002593994 -50.0 1.000 1.000 1.000
v -444.86859130859375 372.30655002593994 27.0 1.000 1.000 1.000
v -445.86859130859375 334.30655002593994 75.0 1.000 1.000 1.000
v -267.2357143163681 327.22493743896484 -16.0 1.000 1.000 1.000
v -258.2357143163681 331.22493743896484 66.0 1.000 1.000 1.000
v -167.2357143163681 379.22493743896484 -67.0 1.000 1.000 1.000
v -133.2357143163681 412.22493743896484 11.0 1.000 1.000 1.000
v -181.2357143163681 385.22493743896484 88.0 1.000 1.000 1.000
v -267.2357143163681 447.22493743896484 21.0 1.000 1.000 1.000
v -259.2357143163681 397.22493743896484 -55.0 1.000 1.000 1.000
v -325.2357143163681 333.22493743896484 -10.0 1.000 1.000 1.000
v -332.2357143163681 347.22493743896484 62.0 1.000 1.000 1.000
v -326.2357143163681 395.22493743896484 81.0 1.000 1.000 1.000
v -403.19768941402435 424.83887100219727 6.0 1.000 1.000 1.000
v -404.19768941402435 390.83887100219727 -32.0 1.000 1.000 1.000
v -403.19768941402435 338.83887100219727 -10.0 1.000 1.000 1.000
v -403.19768941402435 345.83887100219727 51.0 1.000 1.000 1.000
v -403.19768941402435 420.83887100219727 49.0 1.000 1.000 1.000
v -145.2357143163681 417.22493743896484 68.0 1.000 1.000 1.000
v -89.2357143163681 306.22493743896484 81.0 1.000 1.000 1.000
v -57.2357143163681 302.22493743896484 -45.0 1.000 1.000 1.000
v -141.2357143163681 431.22493743896484 -33.0 1.000 1.000 1.000
v -391.2357143163681 314.22493743896484 85.0 1.000 1.000 1.000
v -391.2357143163681 314.22493743896484 85.0 1.000 1.000 1.000
v -145.2357143163681 417.22493743896484 68.0 1.000 1.000 1.000
v -397.2357143163681 415.22493743896484 89.0 1.000 1.000 1.000
v -89.2357143163681 306.22493743896484 81.0 1.000 1.000 1.000
v -397.2357143163681 428.22493743896484 -49.0 1.000 1.000 1.000
v -391.2357143163681 311.22493743896484 -28.0 1.000 1.000 1.000
v -397.2357143163681 428.22493743896484 -49.0 1.000 1.000 1.000
v -391.2357143163681 311.22493743896484 -28.0 1.000 1.000 1.000
v -391.2357143163681 314.22493743896484 85.0 1.000 1.000 1.000
v -397.2357143163681 415.22493743896484 89.0 1.000 1.000 1.000
v 370.1021728515625 -27.755651995539665 -42.76123380661011 1.000 1.000 1.000
v 339.1021728515625 37.244348004460335 -27.761233806610107 1.000 1.000 1.000
v 381.1021728515625 -31.755651995539665 56.23876619338989 1.000 1.000 1.000
v 349.1021728515625 62.244348004460335 51.23876619338989 1.000 1.000 1.000
v 269.1021728515625 13.244348004460335 -28.761233806610107 1.000 1.000 1.000
v 263.1021728515625 28.244348004460335 40.23876619338989 1.000 1.000 1.000
v 339.1021728515625 37.244348004460335 -27.761233806610107 1.000 1.000 1.000
v 349.1021728515625 62.244348004460335 51.23876619338989 1.000 1.000 1.000
v 263.1021728515625 -33.755651995539665 41.23876619338989 1.000 1.000 1.000
v 381.1021728515625 -31.755651995539665 56.23876619338989 1.000 1.000 1.000
v 263.1021728515625 28.244348004460335 40.23876619338989 1.000 1.000 1.000
v 349.1021728515625 62.244348004460335 51.23876619338989 1.000 1.000 1.000
v 339.1021728515625 37.244348004460335 -27.761233806610107 1.000 1.000 1.000
v 370.1021728515625 -27.755651995539665 -42.76123380661011 1.000 1.000 1.000
v 269.1021728515625 13.244348004460335 -28.761233806610107 1.000 1.000 1.000
v 263.1021728515625 -28.755651995539665 -25.761233806610107 1.000 1.000 1.000
v 381.1021728515625 -31.755651995539665 56.23876619338989 1.000 1.000 1.000
v 263.1021728515625 -33.755651995539665 41.23876619338989 1.000 1.000 1.000
v 370.1021728515625 -27.755651995539665 -42.76123380661011 1.000 1.000 1.000
v 263.1021728515625 -28.755651995539665 -25.761233806610107 1.000 1.000 1.000
v 489.6571079492569 393.8121757507324 52.07913017272949 1.000 1.000 1.000
v 483.6571079492569 317.8121757507324 49.07913017272949 1.000 1.000 1.000
v 484.6571079492569 313.8121757507324 -5.920869827270508 1.000 1.000 1.000
v 486.6571079492569 381.8121757507324 -42.92086982727051 1.000 1.000 1.000
v 484.6571079492569 433.8121757507324 7.079130172729492 1.000 1.000 1.000
v 263.1021728515625 -33.755651995539665 41.23876619338989 1.000 1.000 1.000
v 263.1021728515625 -28.755651995539665 -25.761233806610107 1.000 1.000 1.000
v 263.1021728515625 28.244348004460335 40.23876619338989 1.000 1.000 1.000
v 269.1021728515625 13.244348004460335 -28.761233806610107 1.000 1.000 1.000
v 411.6571079492569 415.8121757507324 7.079130172729492 1.000 1.000 1.000
v 413.6571079492569 381.8121757507324 -30.920869827270508 1.000 1.000 1.000
v 412.6571079492569 329.8121757507324 -6.920869827270508 1.000 1.000 1.000
v 410.6571079492569 337.8121757507324 53.07913017272949 1.000 1.000 1.000
v 411.6571079492569 413.8121757507324 50.07913017272949 1.000 1.000 1.000
v 486.6571079492569 381.8121757507324 -42.92086982727051 1.000 1.000 1.000
v 484.6571079492569 433.8121757507324 7.079130172729492 1.000 1.000 1.000
v 484.6571079492569 313.8121757507324 -5.920869827270508 1.000 1.000 1.000
v 483.6571079492569 317.8121757507324 49.07913017272949 1.000 1.000 1.000
v 489.6571079492569 393.8121757507324 52.07913017272949 1.000 1.000 1.000
v 689.6571079492569 349.8121757507324 50.07913017272949 1.000 1.000 1.000
v 402.6571079492569 398.8121757507324 91.07913017272949 1.000 1.000 1.000
v 396.6571079492569 297.8121757507324 89.07913017272949 1.000 1.000 1.000
v 396.6571079492569 297.8121757507324 89.07913017272949 1.000 1.000 1.000
v 398.6571079492569 292.8121757507324 -24.920869827270508 1.000 1.000 1.000
v 690.6571079492569 355.8121757507324 -16.920869827270508 1.000 1.000 1.000
v 404.6571079492569 408.8121757507324 -46.92086982727051 1.000 1.000 1.000
v 692.6571079492569 412.8121757507324 48.07913017272949 1.000 1.000 1.000
v 692.6571079492569 395.8121757507324 -19.920869827270508 1.000 1.000 1.000
v 689.6571079492569 349.8121757507324 50.07913017272949 1.000 1.000 1.000
v 396.6571079492569 297.8121757507324 89.07913017272949 1.000 1.000 1.000
v 402.6571079492569 398.8121757507324 91.07913017272949 1.000 1.000 1.000
v 404.6571079492569 408.8121757507324 -46.92086982727051 1.000 1.000 1.000
v 398.6571079492569 292.8121757507324 -24.920869827270508 1.000 1.000 1.000
v 263.85553324222565 324.87169647216797 69.0 1.000 1.000 1.000
v 274.85553324222565 319.87169647216797 -12.0 1.000 1.000 1.000
v 339.85553324222565 340.87169647216797 61.0 1.000 1.000 1.000
v 333.85553324222565 388.87169647216797 80.0 1.000 1.000 1.000
v 186.85553324222565 379.87169647216797 89.0 1.000 1.000 1.000
v 175.85553324222565 369.87169647216797 -66.0 1.000 1.000 1.000
v 140.85553324222565 403.87169647216797 10.0 1.000 1.000 1.000
v 268.85553324222565 388.87169647216797 -57.0 1.000 1.000 1.000
v 333.85553324222565 325.87169647216797 -10.0 1.000 1.000 1.000
v 274.85553324222565 439.87169647216797 17.0 1.000 1.000 1.000
v -53.86859130859375 220.30655002593994 67.0 1.000 1.000 1.000
v -55.86859130859375 210.30655002593994 -17.0 1.000 1.000 1.000
v -51.86859130859375 353.30655002593994 -49.0 1.000 1.000 1.000
v -51.86859130859375 375.30655002593994 26.0 1.000 1.000 1.000
v -52.86859130859375 335.30655002593994 75.0 1.000 1.000 1.000
v 263.85553324222565 324.87169647216797 69.0 1.000 1.000 1.000
v 274.85553324222565 319.87169647216797 -12.0 1.000 1.000 1.000
v 175.85553324222565 369.87169647216797 -66.0 1.000 1.000 1.000
v 140.85553324222565 403.87169647216797 10.0 1.000 1.000 1.000
v 186.85553324222565 379.87169647216797 89.0 1.000 1.000 1.000
v 268.85553324222565 388.87169647216797 -57.0 1.000 1.000 1.000
v 333.85553324222565 325.87169647216797 -10.0 1.000 1.000 1.000
v 339.85553324222565 340.87169647216797 61.0 1.000 1.000 1.000
v 333.85553324222565 388.87169647216797 80.0 1.000 1.000 1.000
v 274.85553324222565 439.87169647216797 17.0 1.000 1.000 1.000
v 268.85553324222565 388.87169647216797 -57.0 1.000 1.000 1.000
v 333.85553324222565 388.87169647216797 80.0 1.000 1.000 1.000
v 412.6571079492569 329.8121757507324 -6.920869827270508 1.000 1.000 1.000
v 413.6571079492569 381.8121757507324 -30.920869827270508 1.000 1.000 1.000
v 410.6571079492569 337.8121757507324 53.07913017272949 1.000 1.000 1.000
v 411.6571079492569 413.8121757507324 50.07913017272949 1.000 1.000 1.000
v 413.6571079492569 381.8121757507324 -30.920869827270508 1.000 1.000 1.000
v 411.6571079492569 415.8121757507324 7.079130172729492 1.000 1.000 1.000
v 411.6571079492569 413.8121757507324 50.07913017272949 1.000 1.000 1.000
v 94.85553324222565 289.87169647216797 80.0 1.000 1.000 1.000
v 64.85553324222565 283.87169647216797 -47.0 1.000 1.000 1.000
v 396.85553324222565 297.87169647216797 89.0 1.000 1.000 1.000
v 402.85553324222565 398.87169647216797 91.0 1.000 1.000 1.000
v 151.85553324222565 400.87169647216797 66.0 1.000 1.000 1.000
v 396.85553324222565 297.87169647216797 89.0 1.000 1.000 1.000
v 94.85553324222565 289.87169647216797 80.0 1.000 1.000 1.000
v 148.85553324222565 412.87169647216797 -35.0 1.000 1.000 1.000
v 404.85553324222565 408.87169647216797 -47.0 1.000 1.000 1.000
v 398.85553324222565 292.87169647216797 -25.0 1.000 1.000 1.000
v 398.85553324222565 292.87169647216797 -25.0 1.000 1.000 1.000
v 404.85553324222565 408.87169647216797 -47.0 1.000 1.000 1.000
v 402.85553324222565 398.87169647216797 91.0 1.000 1.000 1.000
v 396.85553324222565 297.87169647216797 89.0 1.000 1.000 1.000
v -252.86859130859375 185.30655002593994 -84.0 1.000 1.000 1.000
v -150.86859130859375 91.30655002593994 -68.0 1.000 1.000 1.000
v -360.86859130859375 90.30655002593994 -66.0 1.000 1.000 1.000
v -321.86859130859375 336.30655002593994 -96.0 1.000 1.000 1.000
v -356.86859130859375 197.30655002593994 -74.0 1.000 1.000 1.000
v -161.86859130859375 196.30655002593994 -80.0 1.000 1.000 1.000
v -55.86859130859375 210.30655002593994 -17.0 1.000 1.000 1.000
v -51.86859130859375 353.30655002593994 -49.0 1.000 1.000 1.000
v -170.86859130859375 336.30655002593994 -96.0 1.000 1.000 1.000
v -288.86859130859375 429.30655002593994 -43.0 1.000 1.000 1.000
v -226.86859130859375 428.30655002593994 -47.0 1.000 1.000 1.000
v -445.86859130859375 354.30655002593994 -50.0 1.000 1.000 1.000
v -394.86859130859375 86.30655002593994 20.0 1.000 1.000 1.000
v -439.86859130859375 208.30655002593994 -19.0 1.000 1.000 1.000
v -105.86859130859375 86.30655002593994 21.0 1.000 1.000 1.000
v -51.86859130859375 375.30655002593994 26.0 1.000 1.000 1.000
v -226.86859130859375 428.30655002593994 -47.0 1.000 1.000 1.000
v -198.86859130859375 395.30655002593994 1.0 1.000 1.000 1.000
v -288.86859130859375 429.30655002593994 -43.0 1.000 1.000 1.000
v -444.86859130859375 372.30655002593994 27.0 1.000 1.000 1.000
v -304.86859130859375 394.30655002593994 0.0 1.000 1.000 1.000
v -445.86859130859375 354.30655002593994 -50.0 1.000 1.000 1.000
v -51.86859130859375 353.30655002593994 -49.0 1.000 1.000 1.000
v -51.86859130859375 375.30655002593994 26.0 1.000 1.000 1.000
v -198.86859130859375 395.30655002593994 1.0 1.000 1.000 1.000
v -254.86859130859375 376.30655002593994 70.0 1.000 1.000 1.000
v -445.86859130859375 334.30655002593994 75.0 1.000 1.000 1.000
v -253.86859130859375 236.30655002593994 189.0 1.000 1.000 1.000
v -52.86859130859375 335.30655002593994 75.0 1.000 1.000 1.000
v -93.86859130859375 223.30655002593994 161.0 1.000 1.000 1.000
v -401.86859130859375 223.30655002593994 161.0 1.000 1.000 1.000
v -394.86859130859375 86.30655002593994 20.0 1.000 1.000 1.000
v -323.86859130859375 95.30655002593994 163.0 1.000 1.000 1.000
v -52.86859130859375 335.30655002593994 75.0 1.000 1.000 1.000
v -254.86859130859375 376.30655002593994 70.0 1.000 1.000 1.000
v -253.86859130859375 236.30655002593994 189.0 1.000 1.000 1.000
v -51.86859130859375 375.30655002593994 26.0 1.000 1.000 1.000
v -444.86859130859375 372.30655002593994 27.0 1.000 1.000 1.000
v -304.86859130859375 394.30655002593994 0.0 1.000 1.000 1.000
v -180.86859130859375 95.30655002593994 163.0 1.000 1.000 1.000
v -445.86859130859375 334.30655002593994 75.0 1.000 1.000 1.000
v -439.86859130859375 208.30655002593994 -19.0 1.000 1.000 1.000
v -440.86859130859375 220.30655002593994 68.0 1.000 1.000 1.000
v -53.86859130859375 220.30655002593994 67.0 1.000 1.000 1.000
v -93.86859130859375 223.30655002593994 161.0 1.000 1.000 1.000
v -105.86859130859375 86.30655002593994 21.0 1.000 1.000 1.000
v -53.86859130859375 220.30655002593994 67.0 1.000 1.000 1.000
v -105.86859130859375 86.30655002593994 21.0 1.000 1.000 1.000
v -55.86859130859375 210.30655002593994 -17.0 1.000 1.000 1.000
v -93.86859130859375 223.30655002593994 161.0 1.000 1.000 1.000
v -180.86859130859375 95.30655002593994 163.0 1.000 1.000 1.000
v -125.0 67.0 20.0 1.000 1.000 1.000
v -89.0 73.0 -59.0 1.000 1.000 1.000
v 95.0 75.0 -62.0 1.000 1.000 1.000
v 131.0 69.0 21.0 1.000 1.000 1.000
v 75.0 63.0 143.0 1.000 1.000 1.000
v -71.0 60.0 140.0 1.000 1.000 1.000
v -125.0 67.0 20.0 1.000 1.000 1.000
v 131.0 69.0 21.0 1.000 1.000 1.000
v -394.86859130859375 86.30655002593994 20.0 1.000 1.000 1.000
v -360.86859130859375 90.30655002593994 -66.0 1.000 1.000 1.000
v -150.86859130859375 91.30655002593994 -68.0 1.000 1.000 1.000
v -105.86859130859375 86.30655002593994 21.0 1.000 1.000 1.000
v -180.86859130859375 95.30655002593994 163.0 1.000 1.000 1.000
v -323.86859130859375 95.30655002593994 163.0 1.000 1.000 1.000
v -105.86859130859375 86.30655002593994 21.0 1.000 1.000 1.000
v -394.86859130859375 86.30655002593994 20.0 1.000 1.000 1.000
v -382.86859130859375 32.30655002593994 -35.0 1.000 1.000 1.000
v -128.86859130859375 33.30655002593994 -37.0 1.000 1.000 1.000
v -373.86859130859375 37.30655002593994 141.0 1.000 1.000 1.000
v -130.86859130859375 38.30655002593994 141.0 1.000 1.000 1.000
v -42.86859130859375 427.30655002593994 -70.0 1.000 1.000 1.000
v -128.86859130859375 33.30655002593994 -37.0 1.000 1.000 1.000
v -382.86859130859375 32.30655002593994 -35.0 1.000 1.000 1.000
v -461.86859130859375 424.30655002593994 -72.0 1.000 1.000 1.000
v -63.86859130859375 387.30655002593994 148.0 1.000 1.000 1.000
v -461.86859130859375 424.30655002593994 -72.0 1.000 1.000 1.000
v -441.86859130859375 384.30655002593994 147.0 1.000 1.000 1.000
v -63.86859130859375 387.30655002593994 148.0 1.000 1.000 1.000
v -373.86859130859375 37.30655002593994 141.0 1.000 1.000 1.000
v -130.86859130859375 38.30655002593994 141.0 1.000 1.000 1.000
v -42.86859130859375 427.30655002593994 -70.0 1.000 1.000 1.000
v -382.86859130859375 32.30655002593994 -35.0 1.000 1.000 1.000
v -373.86859130859375 37.30655002593994 141.0 1.000 1.000 1.000
v -461.86859130859375 424.30655002593994 -72.0 1.000 1.000 1.000
v -128.86859130859375 33.30655002593994 -37.0 1.000 1.000 1.000
v -42.86859130859375 427.30655002593994 -70.0 1.000 1.000 1.000
v -130.86859130859375 38.30655002593994 141.0 1.000 1.000 1.000
v -63.86859130859375 387.30655002593994 148.0 1.000 1.000 1.000
v -441.86859130859375 384.30655002593994 147.0 1.000 1.000 1.000
v -373.86859130859375 37.30655002593994 141.0 1.000 1.000 1.000
v -63.86859130859375 387.30655002593994 148.0 1.000 1.000 1.000
v -132.0 19.0 20.0 1.000 1.000 1.000
v -125.0 67.0 20.0 1.000 1.000 1.000
v -91.0 -48.0 -70.0 1.000 1.000 1.000
v -89.0 73.0 -59.0 1.000 1.000 1.000
v -1.0 -94.0 -88.0 1.000 1.000 1.000
v 95.0 75.0 -62.0 1.000 1.000 1.000
v 92.0 -46.0 -73.0 1.000 1.000 1.000
v 143.0 19.0 25.0 1.000 1.000 1.000
v 131.0 69.0 21.0 1.000 1.000 1.000
v -71.0 60.0 140.0 1.000 1.000 1.000
v -63.0 -65.0 133.0 1.000 1.000 1.000
v -2.0 -113.0 143.0 1.000 1.000 1.000
v -132.0 19.0 20.0 1.000 1.000 1.000
v -125.0 67.0 20.0 1.000 1.000 1.000
v 92.0 -46.0 -73.0 1.000 1.000 1.000
v 95.0 75.0 -62.0 1.000 1.000 1.000
v 92.0 -46.0 -73.0 1.000 1.000 1.000
v -63.0 -65.0 133.0 1.000 1.000 1.000
v -71.0 60.0 140.0 1.000 1.000 1.000
v -132.0 19.0 20.0 1.000 1.000 1.000
v 143.0 19.0 25.0 1.000 1.000 1.000
v 131.0 69.0 21.0 1.000 1.000 1.000
v 75.0 63.0 143.0 1.000 1.000 1.000
v 67.0 -61.0 136.0 1.000 1.000 1.000
v -2.0 -113.0 143.0 1.000 1.000 1.000
v -129.0 72.0 -35.0 1.000 1.000 1.000
v 123.0 78.0 141.0 1.000 1.000 1.000
v 125.0 73.0 -37.0 1.000 1.000 1.000
v -119.0 77.0 141.0 1.000 1.000 1.000
v 188.0 -198.0 -80.0 1.000 1.000 1.000
v 156.0 -198.0 143.0 1.000 1.000 1.000
v -155.0 -199.0 132.0 1.000 1.000 1.000
v -191.0 -199.0 -80.0 1.000 1.000 1.000
v -191.0 -199.0 -80.0 1.000 1.000 1.000
v -129.0 72.0 -35.0 1.000 1.000 1.000
v 125.0 73.0 -37.0 1.000 1.000 1.000
v 188.0 -198.0 -80.0 1.000 1.000 1.000
v -119.0 77.0 141.0 1.000 1.000 1.000
v -155.0 -199.0 132.0 1.000 1.000 1.000
v 156.0 -198.0 143.0 1.000 1.000 1.000
v -155.0 -199.0 132.0 1.000 1.000 1.000
v -129.0 72.0 -35.0 1.000 1.000 1.000
v -191.0 -199.0 -80.0 1.000 1.000 1.000
v -119.0 77.0 141.0 1.000 1.000 1.000
v 188.0 -198.0 -80.0 1.000 1.000 1.000
v 125.0 73.0 -37.0 1.000 1.000 1.000
v 156.0 -198.0 143.0 1.000 1.000 1.000
v 123.0 78.0 141.0 1.000 1.000 1.000
v 123.0 78.0 141.0 1.000 1.000 1.000
v 156.0 -198.0 143.0 1.000 1.000 1.000
vt 0.9512 0.9600
vt 0.0827 0.9434
vt 0.0592 0.9424
vt 0.9850 0.9609
vt 0.2988 0.7168
vt 0.9076 0.8662
vt 0.9948 0.8730
vt 0.1465 0.7100
vt 0.1022 0.7129
vt 0.3789 0.7158
vt 0.6084 0.8216
vt 0.1416 0.9036
vt 0.3477 0.8151
vt 0.7373 0.9082
vt 0.4131 0.6823
vt 0.6572 0.6823
vt 0.1172 0.0410
vt 0.3112 0.0107
vt 0.4733 0.0137
vt 0.1602 0.0381
vt 0.3525 -0.0026
vt 0.9434 0.0026
vt 0.2510 0.9388
vt 0.5010 0.7285
vt 0.7275 0.9551
vt 0.1250 0.7415
vt 0.2793 0.9635
vt 0.4844 0.7487
vt 0.7139 0.9759
vt 0.7979 0.7487
vt 0.3652 0.9590
vt 1.0273 0.9740
vt 1.0176 0.9707
vt 0.4346 0.9746
vt 0.3652 0.9382
vt 0.7158 0.4694
vt 1.0273 0.9609
vt 0.4346 0.9622
vt 0.6191 0.4720
vt 0.3203 0.4694
vt 0.9697 0.4707
vt 1.0176 0.9564
vt 0.8203 0.1133
vt 0.8789 0.2669
vt 0.9131 0.2409
vt 0.6641 0.0879
vt 0.5508 0.0599
vt 0.5732 0.2689
vt 0.5664 0.4980
vt 0.7246 0.4115
vt 0.7109 0.4818
vt 0.8818 0.3945
vt 0.6885 0.2161
vt 0.8799 0.2214
vt 0.6025 0.4056
vt 0.8330 0.4798
vt 0.5859 0.2116
vt 0.4844 0.2871
vt 0.2285 0.3385
vt 0.2695 0.2018
vt 0.6963 0.7767
vt 0.8574 0.9603
vt 0.6572 0.9648
vt 0.8105 0.6790
vt 0.8975 0.9616
vt 0.4854 0.8509
vt 0.4912 0.9681
vt 0.7812 0.6868
vt 0.6162 0.7982
vt 0.7578 0.9544
vt 0.8555 0.9564
vt 0.4668 0.8704
vt 0.4668 0.9544
vt 0.4688 0.8438
vt 0.4707 0.9551
vt 0.6709 0.7773
vt 0.4805 0.2878
vt 0.6436 0.3372
vt 0.9238 0.3372
vt 0.7598 0.3366
vt 0.3027 0.3385
vt 0.7598 0.0052
vt 0.9238 0.0059
vt 0.6436 0.0052
vt 0.3027 0.0078
vt 0.1107 0.9512
vt 0.1289 0.9512
vt 0.8835 0.9639
vt 0.9095 0.9648
vt 0.8405 0.8691
vt 0.3079 0.7197
vt 0.1738 0.7168
vt 0.9154 0.8750
vt 0.1374 0.7197
vt 0.3757 0.7217
vt 0.3486 0.8327
vt 0.1514 0.9160
vt 0.6416 0.8366
vt 0.7783 0.9160
vt 0.7148 0.7090
vt 0.4277 0.7077
vt 0.2878 0.0107
vt 0.1211 0.0430
vt 0.1582 0.0391
vt 0.4284 0.0137
vt 0.3633 0.0814
vt 0.9688 0.0820
vt 0.6777 0.9759
vt 0.4863 0.7376
vt 0.1748 0.9271
vt 0.1377 0.7480
vt 0.4883 0.7578
vt 0.2197 0.9694
vt 0.7900 0.7604
vt 0.7119 0.9876
vt 0.2031 0.9870
vt 0.9395 0.9844
vt 0.9512 0.9870
vt 0.1191 0.9740
vt 0.9512 0.9805
vt 0.6123 0.5671
vt 0.1191 0.9609
vt 0.1123 0.5671
vt 0.4902 0.5697
vt 0.2031 0.9805
vt 0.9326 0.5690
vt 0.9395 0.9759
vt 0.2500 0.3431
vt 0.2783 0.4674
vt 0.4102 0.4479
vt 0.4570 0.5111
vt 0.5469 0.2721
vt 0.4590 0.1035
vt 0.3125 0.1719
vt 0.2109 0.3262
vt 0.6084 0.4167
vt 0.8896 0.2344
vt 0.7266 0.2259
vt 0.6104 0.2201
vt 0.8467 0.4922
vt 0.6016 0.2962
vt 0.2314 0.3438
vt 0.2969 0.2077
vt 0.2744 0.7884
vt 0.0889 0.9766
vt 0.1738 0.6901
vt 0.1611 0.9746
vt 0.3652 0.9707
vt 0.3320 0.8034
vt 0.2061 0.9551
vt 0.1797 0.6855
vt 0.0898 0.9557
vt 0.1406 0.4531
vt 0.7188 0.4518
vt 0.9258 0.4525
vt 0.5713 0.4518
vt 0.9258 0.1784
vt 0.7188 0.1777
vt 0.5713 0.1777
vt 0.1406 0.1797
vt 0.4697 0.8457
vt 0.4775 0.3086
vt 0.0840 0.1068
vt 0.9854 0.6823
vt 0.9932 0.0885
vt 0.0332 0.7109
vt 0.1279 0.0781
vt -0.0488 0.7090
vt 0.2109 0.5280
vt 1.1758 0.7415
vt 1.0986 0.0534
vt 0.9883 0.0794
vt 0.9355 0.5312
vt -0.0713 0.0326
vt 0.9785 0.8652
vt 0.1357 0.2305
vt -0.0039 0.8213
vt 0.9219 0.0635
vt 0.1123 0.4023
vt 0.8271 0.9688
vt 0.2471 1.0342
vt 0.7783 0.1982
vt 0.0283 0.1758
vt 0.9365 0.9658
vt 0.4951 0.0732
vt 0.0947 0.8906
vt 0.2979 1.0674
vt 0.7617 0.0420
vt 0.0352 0.5449
vt 0.7383 0.9600
vt 0.9463 0.2002
vt 0.2520 1.2354
vt 0.0693 0.2539
vt 0.7910 1.0811
vt 0.7480 0.6536
vt 0.4062 0.6706
vt 0.6377 0.9811
vt 0.6025 0.9798
vt 0.7637 0.6543
vt 0.4648 0.6615
vt 0.2979 0.9896
vt 0.1875 0.6647
vt 0.3799 0.9909
vt 0.2822 0.5410
vt 0.4658 0.5397
vt 0.7490 0.5332
vt 0.7109 0.5326
vt 0.2988 0.5410
vt 0.1611 0.4876
vt 0.3281 0.4792
vt 0.1670 0.0697
vt 0.8457 0.0697
vt 0.9258 0.4883
vt 1.1611 0.4876
vt 0.3711 0.0658
vt 0.6084 0.4792
vt 0.6377 0.0664
vt 1.1670 0.0697
vt 0.0000 1.0000
vt 1.0000 1.0000
vt 1.0000 0.0000
vt -0.1572 -0.2227
vt 0.7021 0.4141
vt 0.8086 0.3027
vt 0.7871 0.2871
vt 0.4941 0.1634
vt 0.4434 0.4089
vt 0.4326 0.2956
vt 0.3525 0.0853
vt 0.5303 0.1400
vt 0.7764 0.4004
vt 0.1602 0.3145
vt 0.8457 0.2832
vt 0.8525 0.3040
vt 0.8184 0.0579
vt 0.8252 0.0273
vt 0.8174 0.0924
vt 1.3486 0.8600
vt 1.1299 0.9792
vt 0.9043 0.9935
vt 0.5762 0.8665
vt 0.3486 0.8600
vt 0.1299 0.9792
vt 0.1357 -0.1921
vt 0.9434 0.8203
vt 0.8447 0.0518
vt 0.0117 0.8447
vt 0.1104 -0.1865
vt 0.2666 1.0098
vt 0.8350 0.9580
vt 0.1191 0.3965
vt 0.7344 0.1777
vt 0.6475 0.1660
vt 1.0010 0.9297
vt 0.1123 0.2783
vt 0.0928 0.8906
vt 0.1377 0.4316
vt 0.8145 0.1641
vt 0.1543 0.9014
vt 0.5117 0.9268
vt 0.0459 0.2520
vt 0.2979 1.4355
vt 0.9277 0.1982
vt 0.8320 1.2598
vt 0.5303 0.9694
vt 0.3359 0.6751
vt 0.7461 0.6771
vt 0.7607 0.6784
vt 0.4951 0.9674
vt 0.3955 0.6693
vt 0.1201 0.6595
vt 0.1943 0.9609
vt 0.2705 0.9707
vt 0.2314 0.5508
vt 0.4121 0.5573
vt 0.6924 0.5645
vt 0.6553 0.5625
vt 0.2480 0.5508
vt 0.1123 0.8854
vt 0.3008 0.5065
vt 0.1387 0.4948
vt 1.1387 0.4948
vt 0.9424 0.4948
vt 0.9150 0.8854
vt 0.6377 0.5072
vt 0.3027 0.8913
vt 0.7617 0.8900
vt 1.1123 0.8854
vt 0.2119 0.9792
vt 0.9668 0.2396
vt 0.0830 0.3542
vt 0.7607 0.3372
vt 0.7793 0.3522
vt 0.6572 0.4518
vt 0.4023 0.4355
vt 0.4883 0.2103
vt 0.5273 0.1901
vt 0.3594 0.1322
vt 0.4082 0.3307
vt 0.7334 0.4427
vt 0.1367 0.3353
vt 0.7998 0.3359
vt 0.8115 0.3522
vt 0.8232 0.1296
vt 0.8262 0.0957
vt 0.8213 0.1582
vt 0.9023 1.0000
vt 0.3633 -0.0420
vt 0.5205 0.9795
vt 1.1221 -0.0771
vt 0.0840 0.9658
vt -0.2412 0.3818
vt 1.1182 0.0365
vt 0.9150 0.0234
vt 0.3281 0.1517
vt 0.1182 0.0365
vt 0.5918 0.1458
vt 0.9639 0.0534
vt 0.0840 0.2064
vt 0.4697 0.3822
vt 0.7119 0.5156
vt 0.2266 0.5267
vt 0.2998 0.1634
vt 0.2275 0.3678
vt 0.6787 0.3613
vt 0.9248 0.3366
vt 0.9248 0.1250
vt 0.6494 0.1556
vt 0.3711 0.0462
vt 0.5156 0.0449
vt 0.0117 0.1419
vt 0.1475 0.5332
vt 0.0361 0.3568
vt 0.8164 0.5208
vt 1.2812 0.3438
vt -0.6875 0.0938
vt -0.5312 0.7188
vt -1.6562 0.2188
vt -4.6250 0.8438
vt -2.0938 0.8438
vt -4.1562 -0.1250
vt 1.7188 -0.6250
vt 0.9072 0.1335
vt 0.5830 0.0475
vt 0.4609 0.1328
vt 0.0430 0.1914
vt 0.4648 0.3275
vt 0.9062 0.1901
vt 0.8164 0.3457
vt 0.1426 0.3457
vt 0.1602 0.5365
vt 0.3154 0.5247
vt 0.0459 0.1374
vt 0.3525 0.0488
vt 0.6279 0.5241
vt 0.0596 0.3672
vt 0.0566 0.3503
vt 0.9053 0.3496
vt 0.7920 0.5371
vt 0.9004 0.3639
vt 0.1865 0.6204
vt 0.2695 0.6087
vt 0.6953 0.5990
vt 0.7793 0.6048
vt 0.6318 0.6250
vt 0.3115 0.6289
vt 0.1934 0.6198
vt 0.7549 0.6159
vt 0.2051 0.6182
vt 0.7598 0.6201
vt 0.2246 0.6113
vt 0.7539 0.6133
vt -0.0117 0.1068
vt 0.1904 0.6250
vt 0.7871 0.6172
vt 0.9717 0.0951
vt 0.8965 0.1296
vt 0.0264 0.0736
vt 0.0723 0.1309
vt 0.7529 0.6139
vt 0.9414 0.0755
vt 0.2041 0.6185
vt 0.7588 0.6198
vt 0.1875 0.6204
vt 0.2715 0.6087
vt 0.6973 0.5990
vt 0.7842 0.6048
vt 0.3125 0.6289
vt 0.1943 0.6198
vt 0.7588 0.6159
vt 0.6328 0.6250
vt 0.8984 0.9971
vt 0.8281 0.9961
vt 0.1504 0.9932
vt 0.0703 0.9932
vt 0.9355 0.9740
vt 0.0439 0.9863
vt 0.1494 0.9935
vt 0.8291 0.9967
vt 0.0713 0.9935
vt 0.8994 0.9967
vn -0.577 -0.577 -0.577
vn -0.577 -0.577 -0.577
vn -0.577 -0.577 -0.577
vn -0.577 -0.577 -0.577
vn 0.577 0.577 0.577
vn -0.577 -0.577 -0.577
vn -0.577 -0.577 -0.577
vn 0.577 0.577 0.577
vn -0.577 -0.577 -0.577
vn -0.577 -0.577 -0.577
vn -0.577 -0.577 -0.577
vn -0.577 -0.577 -0.577
vn -0.577 -0.577 -0.577
vn -0.577 -0.577 -0.577
vn 0.577 0.577 0.577
vn -0.577 -0.577 -0.577
vn -0.577 -0.577 -0.577
vn -0.577 -0.577 -0.577
vn 0.577 0.577 0.577
vn 0.577 0.577 0.577
vn -0.577 -0.577 -0.577
vn 0.577 0.577 0.577
vn -0.577 -0.577 -0.577
vn 0.577 0.577 0.577
vn 0.577 0.577 0.577
vn -0.577 -0.577 -0.577
vn -0.577 -0.577 -0.577
vn 0.577 0.577 0.577
vn -0.577 -0.577 -0.577
vn 0.577 0.577 0.577
vn -0.577 -0.577 -0.577
vn 0.577 0.577 0.577
vn -0.577 -0.577 -0.577
vn 0.577 0.577 0.577
vn -0.577 -0.577 -0.577
vn 0.577 0.577 0.577
vn 0.577 0.577 0.577
vn 0.577 0.577 0.577
vn 0.577 0.577 0.577
vn 0.577 0.577 0.577
vn 0.577 0.577 0.577
vn -0.577 -0.577 -0.577
vn 0.577 0.577 0.577
vn 0.577 0.577 0.577
vn -0.577 -0.577 -0.577
vn 0.577 0.577 0.577
vn -0.577 -0.577 -0.577
vn 0.577 0.577 0.577
vn -0.577 -0.577 -0.577
vn -0.577 -0.577 -0.577
vn 0.577 0.577 0.577
vn 0.577 0.577 0.577
vn 0.577 0.577 0.577
vn 0.577 0.577 0.577
vn -0.577 -0.577 -0.577
vn 0.577 0.577 0.577
vn 0.577 0.577 0.577
vn 0.577 0.577 0.577
vn 0.577 0.577 0.577
vn 0.577 0.577 0.577
vn 0.577 0.577 0.577
vn 0.577 0.577 0.577
vn -0.577 -0.577 -0.577
vn 0.577 0.577 0.577
vn 0.577 0.577 0.577
vn 0.577 0.577 0.577
vn 0.577 0.577 0.577
vn -0.577 -0.577 -0.577
vn 0.577 0.577 0.577
vn 0.577 0.577 0.577
vn 0.577 0.577 0.577
vn 0.577 0.577 0.577
vn 0.577 0.577 0.577
vn 0.577 0.577 0.577
vn -0.577 -0.577 -0.577
vn 0.577 0.577 0.577
vn 0.577 0.577 0.577
vn 0.577 0.577 0.577
vn -0.577 -0.577 -0.577
vn -0.577 -0.577 -0.577
vn 0.577 0.577 0.577
vn -0.577 -0.577 -0.577
vn 0.577 0.577 0.577
vn 0.577 0.577 0.577
vn 0.577 0.577 0.577
vn 0.577 0.577 0.577
vn 0.577 0.577 0.577
vn 0.577 0.577 0.577
vn -0.577 -0.577 -0.577
vn 0.577 0.577 0.577
vn 0.577 0.577 0.577
vn 0.577 0.577 0.577
vn 0.577 0.577 0.577
vn -0.577 -0.577 -0.577
vn 0.577 0.577 0.577
vn -0.577 -0.577 -0.577
vn -0.577 -0.577 -0.577
vn 0.577 0.577 0.577
vn -0.577 -0.577 -0.577
vn -0.577 -0.577 -0.577
vn -0.577 -0.577 -0.577
vn -0.577 -0.577 -0.577
vn -0.577 -0.577 -0.577
vn -0.577 -0.577 -0.577
vn -0.577 -0.577 -0.577
vn -0.577 -0.577 -0.577
vn -0.577 -0.577 -0.577
vn 0.577 0.577 0.577
vn 0.577 0.577 0.577
vn -0.577 -0.577 -0.577
vn -0.577 -0.577 -0.577
vn -0.577 -0.577 -0.577
vn -0.577 -0.577 -0.577
vn -0.577 -0.577 -0.577
vn -0.577 -0.577 -0.577
vn -0.577 -0.577 -0.577
vn -0.577 -0.577 -0.577
vn 0.577 0.577 0.577
vn 0.577 0.577 0.577
vn -0.577 -0.577 -0.577
vn -0.577 -0.577 -0.577
vn -0.577 -0.577 -0.577
vn -0.577 -0.577 -0.577
vn -0.577 -0.577 -0.577
vn -0.577 -0.577 -0.577
vn -0.577 -0.577 -0.577
vn -0.577 -0.577 -0.577
vn 0.577 0.577 0.577
vn 0.577 0.577 0.577
vn 0.577 0.577 0.577
vn 0.577 0.577 0.577
vn 0.577 0.577 0.577
vn 0.577 0.577 0.577
vn 0.577 0.577 0.577
vn -0.577 -0.577 -0.577
vn 0.577 0.577 0.577
vn 0.577 0.577 0.577
vn -0.577 -0.577 -0.577
vn 0.577 0.577 0.577
vn -0.577 -0.577 -0.577
vn -0.577 -0.577 -0.577
vn 0.577 0.577 0.577
vn -0.577 -0.577 -0.577
vn 0.577 0.577 0.577
vn 0.577 0.577 0.577
vn 0.577 0.577 0.577
vn 0.577 0.577 0.577
vn 0.577 0.577 0.577
vn 0.577 0.577 0.577
vn 0.577 0.577 0.577
vn 0.577 0.577 0.577
vn 0.577 0.577 0.577
vn 0.577 0.577 0.577
vn -0.577 -0.577 -0.577
vn 0.577 0.577 0.577
vn 0.577 0.577 0.577
vn -0.577 -0.577 -0.577
vn 0.577 0.577 0.577
vn -0.577 -0.577 -0.577
vn 0.577 0.577 0.577
vn -0.577 -0.577 -0.577
vn -0.577 -0.577 -0.577
vn 0.577 0.577 0.577
vn 0.577 0.577 0.577
vn 0.577 0.577 0.577
vn 0.577 0.577 0.577
vn 0.577 0.577 0.577
vn 0.577 0.577 0.577
vn -0.577 -0.577 -0.577
vn -0.577 -0.577 -0.577
vn -0.577 -0.577 -0.577
vn 0.577 0.577 0.577
vn -0.577 -0.577 -0.577
vn 0.577 0.577 0.577
vn -0.577 -0.577 -0.577
vn 0.577 0.577 0.577
vn 0.577 0.577 0.577
vn 0.577 0.577 0.577
vn 0.577 0.577 0.577
vn 0.577 0.577 0.577
vn 0.577 0.577 0.577
vn 0.577 0.577 0.577
vn -0.577 -0.577 -0.577
vn -0.577 -0.577 -0.577
vn 0.577 0.577 0.577
vn -0.577 -0.577 -0.577
vn 0.577 0.577 0.577
vn 0.577 0.577 0.577
vn -0.577 -0.577 -0.577
vn -0.577 -0.577 -0.577
vn 0.577 0.577 0.577
vn 0.577 0.577 0.577
vn 0.577 0.577 0.577
vn 0.577 0.577 0.577
vn 0.577 0.577 0.577
vn 0.577 0.577 0.577
vn -0.577 -0.577 -0.577
vn -0.577 -0.577 -0.577
vn 0.577 0.577 0.577
vn 0.577 0.577 0.577
vn 0.577 0.577 0.577
vn 0.577 0.577 0.577
vn 0.577 0.577 0.577
vn -0.577 -0.577 -0.577
vn 0.577 0.577 0.577
vn -0.577 -0.577 -0.577
vn -0.577 -0.577 -0.577
vn 0.577 0.577 0.577
vn -0.577 -0.577 -0.577
vn -0.577 -0.577 -0.577
vn -0.577 -0.577 -0.577
vn -0.577 -0.577 -0.577
vn -0.577 -0.577 -0.577
vn -0.577 -0.577 -0.577
vn -0.577 -0.577 -0.577
vn -0.577 -0.577 -0.577
vn -0.577 -0.577 -0.577
vn -0.577 -0.577 -0.577
vn 0.577 0.577 0.577
vn 0.577 0.577 0.577
vn -0.577 -0.577 -0.577
vn -0.577 -0.577 -0.577
vn -0.577 -0.577 -0.577
vn -0.577 -0.577 -0.577
vn -0.577 -0.577 -0.577
vn -0.577 -0.577 -0.577
vn -0.577 -0.577 -0.577
vn -0.577 -0.577 -0.577
vn -0.577 -0.577 -0.577
vn -0.577 -0.577 -0.577
vn -0.577 -0.577 -0.577
vn -0.577 -0.577 -0.577
vn -0.577 -0.577 -0.577
vn -0.577 -0.577 -0.577
vn -0.577 -0.577 -0.577
vn -0.577 -0.577 -0.577
vn -0.577 -0.577 -0.577
vn -0.577 -0.577 -0.577
vn -0.577 -0.577 -0.577
vn -0.577 -0.577 -0.577
vn -0.577 -0.577 -0.577
vn 0.577 0.577 0.577
vn 0.577 0.577 0.577
vn -0.577 -0.577 -0.577
vn 0.577 0.577 0.577
vn -0.577 -0.577 -0.577
vn 0.577 0.577 0.577
vn -0.577 -0.577 -0.577
vn 0.577 0.577 0.577
vn -0.577 -0.577 -0.577
vn -0.577 -0.577 -0.577
vn 0.577 0.577 0.577
vn -0.577 -0.577 -0.577
vn 0.577 0.577 0.577
vn -0.577 -0.577 -0.577
vn 0.577 0.577 0.577
vn 0.577 0.577 0.577
vn -0.577 -0.577 -0.577
vn 0.577 0.577 0.577
vn -0.577 -0.577 -0.577
vn 0.577 0.577 0.577
vn 0.577 0.577 0.577
vn 0.577 0.577 0.577
vn 0.577 0.577 0.577
vn 0.577 0.577 0.577
vn 0.577 0.577 0.577
vn -0.577 -0.577 -0.577
vn 0.577 0.577 0.577
vn -0.577 -0.577 -0.577
vn 0.577 0.577 0.577
vn 0.577 0.577 0.577
vn -0.577 -0.577 -0.577
vn 0.577 0.577 0.577
vn 0.577 0.577 0.577
vn -0.577 -0.577 -0.577
vn -0.577 -0.577 -0.577
vn 0.577 0.577 0.577
vn 0.577 0.577 0.577
vn 0.577 0.577 0.577
vn -0.577 -0.577 -0.577
vn -0.577 -0.577 -0.577
vn 0.577 0.577 0.577
vn 0.577 0.577 0.577
vn 0.577 0.577 0.577
vn 0.577 0.577 0.577
vn 0.577 0.577 0.577
vn -0.577 -0.577 -0.577
vn -0.577 -0.577 -0.577
vn 0.577 0.577 0.577
vn -0.577 -0.577 -0.577
vn 0.577 0.577 0.577
vn -0.577 -0.577 -0.577
vn -0.577 -0.577 -0.577
vn -0.577 -0.577 -0.577
vn -0.577 -0.577 -0.577
vn 0.577 0.577 0.577
vn -0.577 -0.577 -0.577
vn 0.577 0.577 0.577
vn 0.577 0.577 0.577
vn 0.577 0.577 0.577
vn 0.577 0.577 0.577
vn -0.577 -0.577 -0.577
vn -0.577 -0.577 -0.577
vn -0.577 -0.577 -0.577
vn 0.577 0.577 0.577
vn -0.577 -0.577 -0.577
vn -0.577 -0.577 -0.577
vn 0.577 0.577 0.577
vn -0.577 -0.577 -0.577
vn 0.577 0.577 0.577
vn -0.577 -0.577 -0.577
vn 0.577 0.577 0.577
vn -0.577 -0.577 -0.577
vn -0.577 -0.577 -0.577
vn 0.577 0.577 0.577
vn -0.577 -0.577 -0.577
vn 0.577 0.577 0.577
vn -0.577 -0.577 -0.577
vn 0.577 0.577 0.577
vn -0.577 -0.577 -0.577
vn -0.577 -0.577 -0.577
vn 0.577 0.577 0.577
vn 0.577 0.577 0.577
vn -0.577 -0.577 -0.577
vn -0.577 -0.577 -0.577
vn -0.577 -0.577 -0.577
vn 0.577 0.577 0.577
vn -0.577 -0.577 -0.577
vn 0.577 0.577 0.577
vn -0.577 -0.577 -0.577
vn 0.577 0.577 0.577
vn -0.577 -0.577 -0.577
vn -0.577 -0.577 -0.577
vn 0.577 0.577 0.577
vn -0.577 -0.577 -0.577
vn -0.577 -0.577 -0.577
vn -0.577 -0.577 -0.577
vn -0.577 -0.577 -0.577
vn 0.577 0.577 0.577
vn 0.577 0.577 0.577
vn -0.577 -0.577 -0.577
vn -0.577 -0.577 -0.577
vn 0.577 0.577 0.577
vn -0.577 -0.577 -0.577
vn 0.577 0.577 0.577
vn -0.577 -0.577 -0.577
vn -0.577 -0.577 -0.577
vn -0.577 -0.577 -0.577
vn 0.577 0.577 0.577
vn 0.577 0.577 0.577
vn -0.577 -0.577 -0.577
vn 0.577 0.577 0.577
vn -0.577 -0.577 -0.577
vn 0.577 0.577 0.577
vn -0.577 -0.577 -0.577
vn 0.577 0.577 0.577
vn 0.577 0.577 0.577
vn -0.577 -0.577 -0.577
vn 0.577 0.577 0.577
vn 0.577 0.577 0.577
vn 0.577 0.577 0.577
vn 0.577 0.577 0.577
vn 0.577 0.577 0.577
vn 0.577 0.577 0.577
vn -0.577 -0.577 -0.577
vn 0.577 0.577 0.577
vn -0.577 -0.577 -0.577
vn 0.577 0.577 0.577
vn -0.577 -0.577 -0.577
vn 0.577 0.577 0.577
vn 0.577 0.577 0.577
vn 0.577 0.577 0.577
vn -0.577 -0.577 -0.577
vn 0.577 0.577 0.577
vn 0.577 0.577 0.577
vn -0.577 -0.577 -0.577
vn -0.577 -0.577 -0.577
vn -0.577 -0.577 -0.577
vn 0.577 0.577 0.577
vn 0.577 0.577 0.577
vn 0.577 0.577 0.577
vn 0.577 0.577 0.577
vn 0.577 0.577 0.577
vn -0.577 -0.577 -0.577
vn 0.577 0.577 0.577
vn 0.577 0.577 0.577
vn -0.577 -0.577 -0.577
vn 0.577 0.577 0.577
vn 0.577 0.577 0.577
vn -0.577 -0.577 -0.577
vn -0.577 -0.577 -0.577
vn -0.577 -0.577 -0.577
vn -0.577 -0.577 -0.577
vn 0.577 0.577 0.577
vn -0.577 -0.577 -0.577
vn 0.577 0.577 0.577
vn 0.577 0.577 0.577
vn 0.577 0.577 0.577
vn 0.577 0.577 0.577
vn -0.577 -0.577 -0.577
vn -0.577 -0.577 -0.577
vn -0.577 -0.577 -0.577
vn 0.577 0.577 0.577
vn 0.577 0.577 0.577
vn -0.577 -0.577 -0.577
vn 0.577 0.577 0.577
vn -0.577 -0.577 -0.577
vn -0.577 -0.577 -0.577
vn 0.577 0.577 0.577
vn -0.577 -0.577 -0.577
vn -0.577 -0.577 -0.577
vn 0.577 0.577 0.577
vn -0.577 -0.577 -0.577
vn -0.577 -0.577 -0.577
vn 0.577 0.577 0.577
vn -0.577 -0.577 -0.577
vn -0.577 -0.577 -0.577
vn 0.577 0.577 0.577
vn -0.577 -0.577 -0.577
vn 0.577 0.577 0.577
vn 0.577 0.577 0.577
vn -0.577 -0.577 -0.577
vn 0.577 0.577 0.577
vn -0.577 -0.577 -0.577
vn 0.577 0.577 0.577
vn -0.577 -0.577 -0.577
vn -0.577 -0.577 -0.577
vn -0.577 -0.577 -0.577
vn 0.577 0.577 0.577
vn 0.577 0.577 0.577
vn -0.577 -0.577 -0.577
vn -0.577 -0.577 -0.577
vn 0.577 0.577 0.577
vn 0.577 0.577 0.577
vn -0.577 -0.577 -0.577
vn -0.577 -0.577 -0.577
vn -0.577 -0.577 -0.577
vn -0.577 -0.577 -0.577
vn -0.577 -0.577 -0.577
vn -0.577 -0.577 -0.577
vn -0.577 -0.577 -0.577
vn 0.577 0.577 0.577
vn -0.577 -0.577 -0.577
vn -0.577 -0.577 -0.577
vn -0.577 -0.577 -0.577
vn -0.577 -0.577 -0.577
vn -0.577 -0.577 -0.577
vn 0.577 0.577 0.577
vn 0.577 0.577 0.577
vn 0.577 0.577 0.577
vn -0.577 -0.577 -0.577
vn -0.577 -0.577 -0.577
vn -0.577 -0.577 -0.577
vn -0.577 -0.577 -0.577
vn -0.577 -0.577 -0.577
vn -0.577 -0.577 -0.577
vn -0.577 -0.577 -0.577
vn -0.577 -0.577 -0.577
vn -0.577 -0.577 -0.577
vn -0.577 -0.577 -0.577
vn -0.577 -0.577 -0.577
vn -0.577 -0.577 -0.577
vn -0.577 -0.577 -0.577
vn -0.577 -0.577 -0.577
vn -0.577 -0.577 -0.577
vn 0.577 0.577 0.577
vn 0.577 0.577 0.577
vn -0.577 -0.577 -0.577
vn -0.577 -0.577 -0.577
vn -0.577 -0.577 -0.577
vn -0.577 -0.577 -0.577
vn -0.577 -0.577 -0.577
vn -0.577 -0.577 -0.577
vn -0.577 -0.577 -0.577
vn -0.577 -0.577 -0.577
vn -0.577 -0.577 -0.577
vn 0.577 0.577 0.577
vn 0.577 0.577 0.577
vn 0.577 0.577 0.577
vn -0.577 -0.577 -0.577
vn 0.577 0.577 0.577
vn 0.577 0.577 0.577
vn 0.577 0.577 0.577
vn 0.577 0.577 0.577
vn -0.577 -0.577 -0.577
vn -0.577 -0.577 -0.577
vn 0.577 0.577 0.577
vn -0.577 -0.577 -0.577
vn -0.577 -0.577 -0.577
vn 0.577 0.577 0.577
vn -0.577 -0.577 -0.577
vn -0.577 -0.577 -0.577
vn 0.577 0.577 0.577
vn 0.577 0.577 0.577
vn 0.577 0.577 0.577
vn -0.577 -0.577 -0.577
vn -0.577 -0.577 -0.577
vn 0.577 0.577 0.577
vn -0.577 -0.577 -0.577
vn -0.577 -0.577 -0.577
vn 0.577 0.577 0.577
vn 0.577 0.577 0.577
vn -0.577 -0.577 -0.577
vn -0.577 -0.577 -0.577
vn -0.577 -0.577 -0.577
vn -0.577 -0.577 -0.577
vn -0.577 -0.577 -0.577
vn -0.577 -0.577 -0.577
vn -0.577 -0.577 -0.577
vn -0.577 -0.577 -0.577
vn -0.577 -0.577 -0.577
vn -0.577 -0.577 -0.577
vn -0.577 -0.577 -0.577
vn -0.577 -0.577 -0.577
vn -0.577 -0.577 -0.577
vn -0.577 -0.577 -0.577
vn -0.577 -0.577 -0.577
vn -0.577 -0.577 -0.577
vn -0.577 -0.577 -0.577
vn -0.577 -0.577 -0.577
vn -0.577 -0.577 -0.577
vn -0.577 -0.577 -0.577
vn -0.577 -0.577 -0.577
vn -0.577 -0.577 -0.577
vn -0.577 -0.577 -0.577
vn -0.577 -0.577 -0.577
vn -0.577 -0.577 -0.577
vn 0.577 0.577 0.577
vn 0.577 0.577 0.577
vn -0.577 -0.577 -0.577
vn -0.577 -0.577 -0.577
vn 0.577 0.577 0.577
vn -0.577 -0.577 -0.577
vn -0.577 -0.577 -0.577
vn 0.577 0.577 0.577
vn 0.577 0.577 0.577
vn -0.577 -0.577 -0.577
vn -0.577 -0.577 -0.577
vn -0.577 -0.577 -0.577
vn 0.577 0.577 0.577
vn 0.577 0.577 0.577
vn -0.577 -0.577 -0.577
vn -0.577 -0.577 -0.577
vn -0.577 -0.577 -0.577
vn -0.577 -0.577 -0.577
vn -0.577 -0.577 -0.577
vn 0.577 0.577 0.577
vn 0.577 0.577 0.577
vn 0.577 0.577 0.577
vn -0.577 -0.577 -0.577
vn -0.577 -0.577 -0.577
vn -0.577 -0.577 -0.577
vn -0.577 -0.577 -0.577
vn -0.577 -0.577 -0.577
vn -0.577 -0.577 -0.577
vn -0.577 -0.577 -0.577
vn 0.577 0.577 0.577
vn -0.577 -0.577 -0.577
vn -0.577 -0.577 -0.577
vn 0.577 0.577 0.577
vn 0.577 0.577 0.577
vn -0.577 -0.577 -0.577
vn -0.577 -0.577 -0.577
vn 0.577 0.577 0.577
vn -0.577 -0.577 -0.577
vn -0.577 -0.577 -0.577
vn -0.577 -0.577 -0.577
vn -0.577 -0.577 -0.577
vn -0.577 -0.577 -0.577
vn 0.577 0.577 0.577
vn -0.577 -0.577 -0.577
vn 0.577 0.577 0.577
vn -0.577 -0.577 -0.577
vn -0.577 -0.577 -0.577
vn -0.577 -0.577 -0.577
vn -0.577 -0.577 -0.577
vn -0.577 -0.577 -0.577
usemtl tex_1968_lit_w10
f 1/1/1 2/2/2 3/3/3
f 4/4/4 2/2/2 1/1/1
f 5/5/5 6/6/6 1/1/1
f 4/4/4 7/7/7 8/8/8
f 8/8/8 9/9/9 3/3/3
f 8/8/8 3/3/3 2/2/2
f 7/7/7 10/10/10 8/8/8
f 9/9/9 5/5/5 3/3/3
f 3/3/3 5/5/5 1/1/1
f 2/2/2 4/4/4 8/8/8
usemtl tex_1969_lit_w01
f 11/11/11 12/12/12 13/13/13
f 14/14/14 12/12/12 11/11/11
f 11/11/11 13/13/13 15/15/15
f 16/16/16 11/11/11 15/15/15
usemtl tex_1968_lit_w10
f 23/9/23 17/17/17 18/18/18
f 24/5/24 23/9/23 18/18/18
f 25/8/25 19/19/19 20/20/20
f 23/9/23 20/20/20 17/17/17
f 23/9/23 25/8/25 20/20/20
f 25/8/25 26/10/26 19/19/19
usemtl tex_1969_lit_w01
f 27/16/27 28/15/28 21/21/21
f 27/16/27 21/21/21 22/22/22
usemtl tex_1916_lit_w11
f 33/23/33 29/24/29 34/25/34
f 30/26/30 29/24/29 33/23/33
f 35/27/35 30/26/30 33/23/33
f 31/28/31 30/26/30 35/27/35
f 36/29/36 31/28/31 35/27/35
f 32/30/32 31/28/31 36/29/36
f 34/25/34 32/30/32 36/29/36
f 29/24/29 32/30/32 34/25/34
f 37/31/37 38/32/38 39/33/39
f 37/31/37 39/33/39 40/34/40
f 41/35/41 42/36/42 43/37/43
f 44/38/44 45/39/45 46/40/46
f 42/36/42 47/41/47 43/37/43
f 46/40/46 42/36/42 41/35/41
f 48/42/48 45/39/45 44/38/44
f 47/41/47 45/39/45 48/42/48
f 43/37/43 47/41/47 48/42/48
f 44/38/44 46/40/46 41/35/41
f 49/41/49 50/36/50 46/40/46
f 49/41/49 46/40/46 45/39/45
f 51/43/51 52/44/52 53/45/53
f 54/46/54 52/44/52 51/43/51
f 55/47/55 54/46/54 51/43/51
f 56/48/56 54/46/54 55/47/55
f 57/49/57 56/48/56 55/47/55
f 58/50/58 56/48/56 57/49/57
f 59/51/59 58/50/58 57/49/57
f 52/44/52 58/50/58 59/51/59
f 60/52/60 52/44/52 59/51/59
f 53/45/53 52/44/52 60/52/60
f 61/53/61 62/54/62 63/55/63
f 64/56/64 62/54/62 65/57/65
f 66/58/66 64/56/64 65/57/65
f 67/53/67 68/55/68 69/59/69
f 69/59/69 70/58/70 71/60/71
f 70/58/70 72/57/72 71/60/71
f 71/60/71 67/53/67 69/59/69
f 73/54/73 74/56/74 68/55/68
usemtl tex_1914_lit_w11
f 75/61/75 83/62/83 84/63/84
f 83/62/83 75/61/75 76/64/76
f 83/62/83 76/64/76 85/65/85
f 77/66/77 84/63/84 86/67/86
f 77/66/77 75/61/75 84/63/84
usemtl tex_1915_lit_w11
f 78/68/78 79/69/79 87/70/87
f 78/68/78 87/70/87 88/71/88
f 79/69/79 80/72/80 89/73/89
f 89/73/89 80/72/80 81/74/81
f 89/73/89 81/74/81 90/75/90
f 79/69/79 89/73/89 87/70/87
f 82/76/82 81/74/81 90/75/90
usemtl tex_1916_lit_w11
f 95/26/95 91/59/91 96/24/96
f 92/77/92 91/59/91 95/26/95
f 97/28/97 92/77/92 95/26/95
f 93/56/93 92/77/92 97/28/97
f 98/30/98 93/56/93 97/28/97
f 94/55/94 93/56/93 98/30/98
f 96/24/96 94/55/94 98/30/98
f 91/59/91 94/55/94 96/24/96
f 99/78/99 100/79/100 101/80/101
f 99/78/99 101/80/101 102/81/102
f 103/82/103 104/83/104 105/36/105
f 106/41/106 104/83/104 107/84/107
f 108/85/108 109/40/109 110/39/110
f 110/39/110 106/41/106 107/84/107
f 103/82/103 105/36/105 109/40/109
f 104/83/104 106/41/106 105/36/105
f 108/85/108 103/82/103 109/40/109
f 108/85/108 110/39/110 107/84/107
f 111/41/111 110/39/110 109/40/109
f 111/41/111 109/40/109 112/36/112
usemtl tex_1968_lit_w10
f 113/86/113 114/87/114 115/88/115
f 115/88/115 114/87/114 116/89/116
f 115/88/115 117/90/117 118/91/118
f 119/92/119 120/93/120 116/89/116
f 113/86/113 121/94/121 119/92/119
f 114/87/114 113/86/113 119/92/119
f 119/92/119 122/95/122 120/93/120
f 113/86/113 118/91/118 121/94/121
f 115/88/115 118/91/118 113/86/113
f 119/92/119 116/89/116 114/87/114
usemtl tex_1969_lit_w01
f 123/96/123 124/97/124 125/98/125
f 125/98/125 124/97/124 126/99/126
f 125/98/125 127/100/127 128/101/128
f 123/96/123 125/98/125 128/101/128
usemtl tex_1968_lit_w10
f 129/102/129 130/103/130 135/94/135
f 129/102/129 135/94/135 136/91/136
f 131/104/131 132/105/132 137/92/137
f 130/103/130 131/104/131 135/94/135
f 131/104/131 137/92/137 135/94/135
f 132/105/132 138/95/138 137/92/137
usemtl tex_1969_lit_w01
f 133/106/133 139/101/139 140/100/140
f 134/107/134 133/106/133 140/100/140
usemtl tex_1916_lit_w11
f 145/108/145 141/109/141 146/110/146
f 142/111/142 143/112/143 147/113/147
f 145/108/145 144/114/144 141/109/141
f 146/110/146 141/109/141 142/111/142
f 147/113/147 143/112/143 148/115/148
f 148/115/148 143/112/143 144/114/144
f 148/115/148 144/114/144 145/108/145
f 146/110/146 142/111/142 147/113/147
f 149/116/149 150/117/150 151/118/151
f 149/116/149 151/118/151 152/119/152
f 153/120/153 154/121/154 155/122/155
f 156/123/156 157/124/157 158/125/158
f 153/120/153 159/126/159 154/121/154
f 155/122/155 154/121/154 156/123/156
f 158/125/158 157/124/157 160/127/160
f 160/127/160 157/124/157 159/126/159
f 160/127/160 159/126/159 153/120/153
f 155/122/155 156/123/156 158/125/158
f 157/124/157 156/123/156 161/121/161
f 157/124/157 161/121/161 162/126/162
f 163/128/163 164/129/164 165/130/165
f 165/130/165 164/129/164 166/131/166
f 165/130/165 166/131/166 167/132/167
f 167/132/167 166/131/166 168/49/168
f 167/132/167 168/49/168 169/47/169
f 170/133/170 168/49/168 169/47/169
f 171/134/171 170/133/170 169/47/169
f 163/128/163 170/133/170 171/134/171
f 172/135/172 163/128/163 171/134/171
f 164/129/164 163/128/163 172/135/172
f 173/136/173 174/137/174 175/138/175
f 176/139/176 174/137/174 177/140/177
f 178/141/178 179/142/179 180/143/180
f 181/139/181 182/140/182 178/141/178
f 179/142/179 183/136/183 184/138/184
f 183/136/183 182/140/182 185/137/185
f 179/142/179 184/138/184 180/143/180
f 181/139/181 178/141/178 180/143/180
usemtl tex_1914_lit_w11
f 186/144/186 193/145/193 187/146/187
f 194/147/194 186/144/186 195/148/195
f 186/144/186 194/147/194 193/145/193
f 186/144/186 188/66/188 195/148/195
f 188/66/188 196/67/196 195/148/195
usemtl tex_1915_lit_w11
f 189/72/189 190/149/190 197/73/197
f 190/149/190 198/150/198 197/73/197
f 198/150/198 191/151/191 199/152/199
f 198/150/198 190/149/190 191/151/191
f 192/74/192 189/72/189 197/73/197
f 192/74/192 197/73/197 200/75/200
usemtl tex_1916_lit_w11
f 205/111/205 201/141/201 206/112/206
f 205/111/205 202/142/202 201/141/201
f 207/109/207 202/142/202 205/111/205
f 206/112/206 201/141/201 203/140/203
f 206/112/206 203/140/203 208/114/208
f 208/114/208 203/140/203 204/136/204
f 208/114/208 204/136/204 207/109/207
f 207/109/207 204/136/204 202/142/202
f 209/153/209 210/154/210 211/155/211
f 209/153/209 211/155/211 212/156/212
f 213/121/213 214/157/214 215/158/215
f 216/159/216 214/157/214 217/126/217
f 218/124/218 219/123/219 220/160/220
f 216/159/216 217/126/217 218/124/218
f 219/123/219 213/121/213 215/158/215
f 213/121/213 217/126/217 214/157/214
f 219/123/219 215/158/215 220/160/220
f 216/159/216 218/124/218 220/160/220
f 221/121/221 219/123/219 218/124/218
f 221/121/221 218/124/218 222/126/222
usemtl tex_1967_lit_w11
f 223/161/223 230/162/230 231/163/231
f 224/164/224 232/165/232 223/161/223
f 232/165/232 230/162/230 223/161/223
f 225/166/225 223/161/223 231/163/231
usemtl tex_1966_lit_w01
f 233/167/233 226/168/226 227/169/227
f 228/170/228 234/171/234 235/172/235
f 228/170/228 235/172/235 229/173/229
f 235/172/235 227/169/227 229/173/229
f 235/172/235 233/167/233 227/169/227
f 226/168/226 233/167/233 236/174/236
usemtl tex_1609_lit
f 237/175/237 238/176/238 239/177/239
f 240/178/240 238/176/238 237/175/237
usemtl tex_1613_lit_w11
f 241/179/241 242/180/242 243/181/243
f 244/182/244 242/180/242 241/179/241
usemtl tex_1619_lit_w11
f 245/183/245 246/184/246 247/185/247
f 248/186/248 246/184/246 245/183/245
usemtl tex_1616_lit_w11
f 249/187/249 250/188/250 251/189/251
f 252/190/252 250/188/250 249/187/249
usemtl tex_1622_lit_w11
f 253/191/253 254/192/254 255/193/255
f 256/194/256 254/192/254 253/191/253
usemtl tex_1916_lit_w11
f 257/195/257 258/196/258 262/197/262
f 263/198/263 259/199/259 257/195/257
f 263/198/263 260/200/260 259/199/259
f 264/201/264 258/196/258 261/202/261
f 265/203/265 261/202/261 260/200/260
f 264/201/264 262/197/262 258/196/258
f 263/198/263 265/203/265 260/200/260
f 263/198/263 257/195/257 262/197/262
f 265/203/265 264/201/264 261/202/261
f 271/202/271 266/204/266 272/200/272
f 272/200/272 266/204/266 267/205/267
f 272/200/272 267/205/267 273/199/273
f 273/199/273 267/205/267 268/206/268
f 273/199/273 268/206/268 274/195/274
f 274/195/274 268/206/268 269/207/269
f 275/196/275 270/208/270 271/202/271
f 271/202/271 270/208/270 266/204/266
f 274/195/274 269/207/269 275/196/275
f 275/196/275 269/207/269 270/208/270
f 276/209/276 277/210/277 278/211/278
f 279/212/279 280/213/280 281/214/281
f 282/215/282 277/210/277 283/216/283
f 284/217/284 283/216/283 279/212/279
f 283/216/283 280/213/280 279/212/279
f 282/215/282 278/211/278 277/210/277
f 279/212/279 281/214/281 285/218/285
f 284/217/284 282/215/282 283/216/283
f 286/219/286 287/220/287 288/221/288
f 286/219/286 288/221/288 289/222/289
f 290/223/290 291/224/291 292/225/292
f 290/223/290 293/226/293 294/227/294
f 295/228/295 296/229/296 297/230/297
f 290/223/290 292/225/292 293/226/293
f 291/224/291 295/228/295 297/230/297
f 298/231/298 295/228/295 291/224/291
f 293/226/293 296/229/296 299/232/299
f 290/223/290 298/231/298 291/224/291
f 295/228/295 299/232/299 296/229/296
f 294/227/294 293/226/293 299/232/299
f 305/224/305 300/233/300 306/225/306
f 301/234/301 300/233/300 305/224/305
f 307/230/307 301/234/301 305/224/305
f 302/235/302 301/234/301 307/230/307
f 308/229/308 302/235/302 307/230/307
f 303/236/303 302/235/302 308/229/308
f 309/226/309 303/236/303 308/229/308
f 304/237/304 303/236/303 309/226/309
f 306/225/306 304/237/304 309/226/309
f 300/233/300 304/237/304 306/225/306
f 315/204/315 310/232/310 316/205/316
f 316/205/316 310/232/310 311/228/311
f 316/205/316 311/228/311 317/206/317
f 317/206/317 311/228/311 312/231/312
f 317/206/317 312/231/312 318/207/318
f 318/207/318 312/231/312 313/223/313
f 319/208/319 310/232/310 315/204/315
f 318/207/318 313/223/313 314/227/314
f 318/207/318 314/227/314 319/208/319
f 319/208/319 314/227/314 310/232/310
f 320/238/320 321/239/321 322/240/322
f 322/240/322 323/241/323 320/238/320
f 324/214/324 322/240/322 321/239/321
f 325/209/325 326/242/326 327/210/327
f 325/209/325 328/243/328 326/242/326
f 322/240/322 329/216/329 323/241/323
f 330/213/330 329/216/329 322/240/322
f 326/242/326 323/241/323 327/210/327
f 324/214/324 330/213/330 322/240/322
f 329/216/329 327/210/327 323/241/323
f 331/219/331 332/220/332 333/221/333
f 331/219/331 333/221/333 334/244/334
usemtl tex_1609_lit
f 335/245/335 336/246/336 337/247/337
f 337/247/337 336/246/336 338/248/338
usemtl tex_1613_lit_w11
f 339/249/339 340/250/340 341/251/341
f 341/251/341 340/250/340 342/252/342
usemtl tex_1619_lit_w11
f 343/253/343 344/254/344 345/255/345
f 345/255/345 344/254/344 346/256/346
usemtl tex_1616_lit_w11
f 347/257/347 348/258/348 349/259/349
f 349/259/349 348/258/348 350/260/350
usemtl tex_1622_lit_w11
f 351/261/351 352/262/352 353/263/353
f 353/263/353 352/262/352 354/264/354
usemtl tex_1916_lit_w11
f 360/265/360 355/266/355 356/267/356
f 356/267/356 357/268/357 361/269/361
f 357/268/357 358/270/358 361/269/361
f 359/271/359 355/266/355 362/272/362
f 358/270/358 359/271/359 363/273/363
f 355/266/355 360/265/360 362/272/362
f 358/270/358 363/273/363 361/269/361
f 360/265/360 356/267/356 361/269/361
f 359/271/359 362/272/362 363/273/363
f 369/270/369 364/274/364 370/271/370
f 365/275/365 364/274/364 369/270/369
f 371/268/371 365/275/365 369/270/369
f 366/276/366 365/275/365 371/268/371
f 372/267/372 366/276/366 371/268/371
f 367/277/367 366/276/366 372/267/372
f 370/271/370 368/278/368 373/266/373
f 364/274/364 368/278/368 370/271/370
f 373/266/373 367/277/367 372/267/372
f 368/278/368 367/277/367 373/266/373
f 374/279/374 375/280/375 376/281/376
f 377/282/377 378/283/378 379/284/379
f 380/285/380 375/280/375 381/286/381
f 379/284/379 380/285/380 382/287/382
f 379/284/379 378/283/378 380/285/380
f 375/280/375 374/279/374 381/286/381
f 383/288/383 377/282/377 379/284/379
f 380/285/380 381/286/381 382/287/382
f 384/289/384 385/220/385 386/290/386
f 384/289/384 386/290/386 387/291/387
f 388/292/388 389/293/389 390/294/390
f 391/295/391 392/296/392 390/294/390
f 393/297/393 394/298/394 395/299/395
f 392/296/392 388/292/388 390/294/390
f 393/297/393 395/299/395 389/293/389
f 389/293/389 395/299/395 396/300/396
f 397/301/397 394/298/394 392/296/392
f 389/293/389 396/300/396 390/294/390
f 394/298/394 397/301/397 395/299/395
f 397/301/397 392/296/392 391/295/391
f 403/292/403 398/302/398 404/293/404
f 404/293/404 398/302/398 399/303/399
f 404/293/404 399/303/399 405/297/405
f 405/297/405 399/303/399 400/304/400
f 405/297/405 400/304/400 406/298/406
f 406/298/406 400/304/400 401/305/401
f 406/298/406 401/305/401 407/296/407
f 407/296/407 401/305/401 402/306/402
f 407/296/407 402/306/402 403/292/403
f 403/292/403 402/306/402 398/302/398
f 415/276/415 408/299/408 416/275/416
f 409/300/409 408/299/408 415/276/415
f 417/277/417 409/300/409 415/276/415
f 410/294/410 409/300/409 417/277/417
f 411/295/411 410/294/410 417/277/417
f 418/278/418 411/295/411 417/277/417
usemtl tex_1912_lit_w11
f 419/307/419 412/308/412 420/309/420
f 413/310/413 412/308/412 419/307/419
f 420/309/420 412/308/412 421/311/421
f 412/308/412 414/312/414 421/311/421
usemtl tex_1916_lit_w11
f 422/313/422 423/314/423 424/282/424
f 425/280/425 426/315/426 427/281/427
f 426/315/426 428/316/428 427/281/427
f 429/317/429 430/285/430 423/314/423
f 423/314/423 430/285/430 431/283/431
f 425/280/425 429/317/429 426/315/426
f 423/314/423 431/283/431 424/282/424
f 429/317/429 425/280/425 430/285/430
f 428/316/428 426/315/426 429/317/429
f 429/317/429 423/314/423 422/313/422
f 432/219/432 433/220/433 434/318/434
f 432/219/432 434/318/434 435/319/435
usemtl tex_1914_lit_w11
f 436/320/436 437/321/437 438/322/438
f 439/323/439 436/320/436 440/324/440
f 440/324/440 436/320/436 438/322/438
f 441/325/441 442/326/442 437/321/437
f 443/327/443 442/326/442 441/325/441
f 444/328/444 436/320/436 439/323/439
f 444/328/444 439/323/439 445/329/445
f 446/330/446 444/328/444 445/329/445
f 439/323/439 447/331/447 445/329/445
f 438/322/438 448/332/448 449/333/449
f 437/321/437 442/326/442 450/334/450
f 446/330/446 443/327/443 444/328/444
f 441/325/441 436/320/436 444/328/444
f 443/327/443 441/325/441 444/328/444
f 436/320/436 441/325/441 437/321/437
f 440/324/440 449/333/449 447/331/447
f 440/324/440 438/322/438 449/333/449
f 439/323/439 440/324/440 447/331/447
usemtl tex_1917_lit
f 451/335/451 452/336/452 453/337/453
f 454/338/454 455/339/455 456/340/456
f 457/341/457 455/339/455 454/338/454
f 452/336/452 451/335/451 458/342/458
usemtl tex_1915_lit_w11
f 459/343/459 460/344/460 461/345/461
f 461/345/461 462/346/462 463/347/463
f 464/348/464 463/347/463 465/349/465
f 466/350/466 467/351/467 468/352/468
f 469/348/469 470/345/470 471/347/471
f 469/348/469 472/343/472 470/345/470
f 473/353/473 470/345/470 474/354/474
f 471/347/471 468/352/468 475/355/475
f 476/346/476 466/350/466 471/347/471
f 477/356/477 467/351/467 478/357/478
f 479/358/479 469/348/469 480/349/480
f 473/353/473 476/346/476 470/345/470
f 480/349/480 471/347/471 475/355/475
f 479/358/479 480/349/480 481/359/481
f 471/347/471 466/350/466 468/352/468
f 476/346/476 478/357/478 466/350/466
f 467/351/467 466/350/466 478/357/478
f 482/358/482 483/359/483 484/360/484
f 485/349/485 486/355/486 483/359/483
usemtl tex_1914_lit_w11
f 487/361/487 495/332/495 488/362/488
f 488/362/488 495/332/495 496/322/496
f 488/362/488 496/322/496 489/363/489
f 489/363/489 496/322/496 497/321/497
f 489/363/489 497/321/497 490/364/490
f 490/364/490 497/321/497 498/334/498
usemtl tex_1915_lit_w11
f 491/365/491 499/355/499 492/366/492
f 492/366/492 500/352/500 493/367/493
f 492/366/492 499/355/499 500/352/500
f 494/368/494 501/359/501 491/365/491
f 491/365/491 501/359/501 499/355/499
f 493/367/493 500/352/500 502/351/502
usemtl tex_1995_lit
f 503/369/503 504/370/504 505/371/505
f 504/370/504 506/372/506 505/371/505
usemtl tex_1914_lit_w11
f 507/373/507 508/374/508 509/375/509
f 510/376/510 507/373/507 509/375/509
usemtl tex_1915_lit_w11
f 511/377/511 512/378/512 513/379/513
f 514/377/514 515/371/515 516/380/516
f 512/378/512 511/377/511 517/381/517
f 518/382/518 519/371/519 520/378/520
f 521/383/521 522/381/522 523/380/523
f 524/377/524 525/379/525 526/371/526
f 519/371/519 525/379/525 520/378/520
f 527/377/527 523/380/523 522/381/522
usemtl tex_1914_lit_w11
f 528/146/528 529/384/529 530/144/530
f 530/144/530 529/384/529 531/385/531
f 530/144/530 531/385/531 532/66/532
f 532/66/532 531/385/531 533/386/533
f 532/66/532 533/386/533 534/61/534
f 534/61/534 533/386/533 535/64/535
f 535/64/535 533/386/533 536/387/536
usemtl tex_1915_lit_w11
f 537/388/537 538/149/538 539/72/539
f 540/151/540 537/388/537 541/389/541
f 545/149/545 546/388/546 547/151/547
f 548/68/548 549/390/549 550/391/550
f 551/69/551 550/391/550 552/72/552
f 550/391/550 546/388/546 552/72/552
f 548/68/548 550/391/550 551/69/551
usemtl tex_1995_lit
f 553/369/553 554/372/554 555/370/555
f 553/369/553 556/371/556 554/372/554
f 557/392/557 558/393/558 559/394/559
f 557/392/557 559/394/559 560/395/560
usemtl tex_1914_lit_w11
f 561/396/561 562/375/562 563/374/563
f 561/396/561 563/374/563 564/397/564
usemtl tex_1915_lit_w11
f 565/371/565 566/398/566 567/399/567
f 568/398/568 569/382/569 570/400/570
f 568/398/568 571/371/571 569/382/569
f 572/401/572 573/383/573 574/399/574
f 574/399/574 573/383/573 575/380/575
f 576/380/576 571/371/571 577/399/577
