mtllib CpilotZ.mtl
v 1087.927879333496 -45.380823612213135 190.0 1.000 1.000 1.000
v 1087.927879333496 -171.38082361221313 -68.0 1.000 1.000 1.000
v 1087.927879333496 -89.38082361221313 -74.0 1.000 1.000 1.000
v 1087.927879333496 -164.38082361221313 200.0 1.000 1.000 1.000
v 961.9278793334961 -92.38082361221313 -4.0 1.000 1.000 1.000
v 1038.927879333496 -83.38082361221313 177.0 1.000 1.000 1.000
v 1028.927879333496 -135.38082361221313 203.0 1.000 1.000 1.000
v 957.9278793334961 -165.38082361221313 -34.0 1.000 1.000 1.000
v 961.9278793334961 -106.38082361221313 -62.0 1.000 1.000 1.000
v 958.9278793334961 -157.38082361221313 14.0 1.000 1.000 1.000
v 799.3251266479492 -85.09517669677734 -89.0 1.000 1.000 1.000
v 802.3251266479492 -87.09517669677734 -69.0 1.000 1.000 1.000
v 797.3251266479492 -171.09517669677734 -77.0 1.000 1.000 1.000
v 800.3251266479492 -165.09517669677734 -46.0 1.000 1.000 1.000
v 797.3251266479492 -172.09517669677734 -77.0 1.000 1.000 1.000
v 797.3251266479492 -173.09517669677734 88.0 1.000 1.000 1.000
v 801.3251266479492 -162.09517669677734 55.0 1.000 1.000 1.000
v 791.3251266479492 -48.095176696777344 79.0 1.000 1.000 1.000
v 797.3251266479492 -74.09517669677734 43.0 1.000 1.000 1.000
v 797.3251266479492 -74.09517669677734 43.0 1.000 1.000 1.000
v 801.3251266479492 -162.09517669677734 55.0 1.000 1.000 1.000
v 802.3251266479492 -87.09517669677734 -69.0 1.000 1.000 1.000
v 797.3251266479492 -74.09517669677734 43.0 1.000 1.000 1.000
v 801.3251266479492 -162.09517669677734 55.0 1.000 1.000 1.000
v 800.3251266479492 -165.09517669677734 -46.0 1.000 1.000 1.000
v 958.9278793334961 -157.38082361221313 14.0 1.000 1.000 1.000
v 961.9278793334961 -92.38082361221313 -4.0 1.000 1.000 1.000
v 961.9278793334961 -106.38082361221313 -62.0 1.000 1.000 1.000
v 961.9278793334961 -92.38082361221313 -4.0 1.000 1.000 1.000
v 957.9278793334961 -165.38082361221313 -34.0 1.000 1.000 1.000
v 958.9278793334961 -157.38082361221313 14.0 1.000 1.000 1.000
v 515.3251266479492 -115.09517669677734 106.0 1.000 1.000 1.000
v 532.3251266479492 -23.095176696777344 14.0 1.000 1.000 1.000
v 528.3251266479492 -111.09517669677734 -67.0 1.000 1.000 1.000
v 522.3251266479492 -189.09517669677734 9.0 1.000 1.000 1.000
v 791.3251266479492 -48.095176696777344 79.0 1.000 1.000 1.000
v 797.3251266479492 -173.09517669677734 88.0 1.000 1.000 1.000
v 799.3251266479492 -85.09517669677734 -89.0 1.000 1.000 1.000
v 797.3251266479492 -172.09517669677734 -77.0 1.000 1.000 1.000
v 1009.3251266479492 -95.09517669677734 23.0 1.000 1.000 1.000
v 536.3251266479492 -130.09517669677734 87.0 1.000 1.000 1.000
v 1009.3251266479492 -144.09517669677734 46.0 1.000 1.000 1.000
v 982.3251266479492 -108.09517669677734 -62.0 1.000 1.000 1.000
v 531.3251266479492 -106.09517669677734 -67.0 1.000 1.000 1.000
v 528.3251266479492 -31.095176696777344 38.0 1.000 1.000 1.000
v 531.3251266479492 -193.09517669677734 13.0 1.000 1.000 1.000
v 981.3251266479492 -153.09517669677734 -49.0 1.000 1.000 1.000
v 531.3251266479492 -193.09517669677734 13.0 1.000 1.000 1.000
v 536.3251266479492 -130.09517669677734 87.0 1.000 1.000 1.000
v 72.0 -83.0 122.0 1.000 1.000 1.000
v 1.0 -149.0 47.0 1.000 1.000 1.000
v 145.0 -53.0 -12.0 1.000 1.000 1.000
v 1.0 -149.0 47.0 1.000 1.000 1.000
v 34.0 -143.0 -90.0 1.000 1.000 1.000
v 145.0 -53.0 -12.0 1.000 1.000 1.000
v 231.1657943725586 -128.35110473632812 133.0 1.000 1.000 1.000
v 259.1657943725586 -20.351104736328125 21.0 1.000 1.000 1.000
v 343.1657943725586 -187.35110473632812 12.0 1.000 1.000 1.000
v 343.1657943725586 -187.35110473632812 12.0 1.000 1.000 1.000
v 225.1657943725586 -89.35110473632812 -91.0 1.000 1.000 1.000
v 259.1657943725586 -20.351104736328125 21.0 1.000 1.000 1.000
v 259.1657943725586 -20.351104736328125 21.0 1.000 1.000 1.000
v 225.1657943725586 -89.35110473632812 -91.0 1.000 1.000 1.000
v 343.1657943725586 -187.35110473632812 12.0 1.000 1.000 1.000
v 231.1657943725586 -128.35110473632812 133.0 1.000 1.000 1.000
v 532.3251266479492 -23.095176696777344 14.0 1.000 1.000 1.000
v 515.3251266479492 -115.09517669677734 106.0 1.000 1.000 1.000
v 528.3251266479492 -111.09517669677734 -67.0 1.000 1.000 1.000
v 522.3251266479492 -189.09517669677734 9.0 1.000 1.000 1.000
v 196.1657943725586 -148.35110473632812 124.0 1.000 1.000 1.000
v 196.1657943725586 -189.35110473632812 20.0 1.000 1.000 1.000
v 537.1657943725586 -129.35110473632812 87.0 1.000 1.000 1.000
v 531.1657943725586 -193.35110473632812 13.0 1.000 1.000 1.000
v 196.1657943725586 -119.35110473632812 -73.0 1.000 1.000 1.000
v 196.1657943725586 -35.351104736328125 27.0 1.000 1.000 1.000
v 528.1657943725586 -31.351104736328125 38.0 1.000 1.000 1.000
v 531.1657943725586 -106.35110473632812 -67.0 1.000 1.000 1.000
v 196.1657943725586 -119.35110473632812 -73.0 1.000 1.000 1.000
v 196.1657943725586 -189.35110473632812 20.0 1.000 1.000 1.000
v 196.1657943725586 -148.35110473632812 124.0 1.000 1.000 1.000
v 196.1657943725586 -35.351104736328125 27.0 1.000 1.000 1.000
v 531.1657943725586 -193.35110473632812 13.0 1.000 1.000 1.000
v 537.1657943725586 -129.35110473632812 87.0 1.000 1.000 1.000
v -1078.8555908203125 -86.70243644714355 -74.0 1.000 1.000 1.000
v -1078.8555908203125 -168.70243644714355 -68.0 1.000 1.000 1.000
v -1078.8555908203125 -43.702436447143555 191.0 1.000 1.000 1.000
v -1078.8555908203125 -162.70243644714355 200.0 1.000 1.000 1.000
v -1029.8555908203125 -78.70243644714355 177.0 1.000 1.000 1.000
v -951.8555908203125 -90.70243644714355 -4.0 1.000 1.000 1.000
v -949.8555908203125 -161.70243644714355 -35.0 1.000 1.000 1.000
v -1019.8555908203125 -134.70243644714355 203.0 1.000 1.000 1.000
v -953.8555908203125 -103.70243644714355 -62.0 1.000 1.000 1.000
v -949.8555908203125 -154.70243644714355 14.0 1.000 1.000 1.000
v -780.8883666992188 -45.47519826889038 79.0 1.000 1.000 1.000
v -782.8883666992188 -68.47519826889038 46.0 1.000 1.000 1.000
v -788.8883666992188 -172.47519826889038 88.0 1.000 1.000 1.000
v -789.8883666992188 -159.47519826889038 55.0 1.000 1.000 1.000
v -792.8883666992188 -163.47519826889038 -47.0 1.000 1.000 1.000
v -788.8883666992188 -174.47519826889038 -77.0 1.000 1.000 1.000
v -790.8883666992188 -76.47519826889038 -89.0 1.000 1.000 1.000
v -792.8883666992188 -75.47519826889038 -68.0 1.000 1.000 1.000
v -782.8883666992188 -68.47519826889038 46.0 1.000 1.000 1.000
v -789.8883666992188 -159.47519826889038 55.0 1.000 1.000 1.000
v -782.8883666992188 -68.47519826889038 46.0 1.000 1.000 1.000
v -792.8883666992188 -75.47519826889038 -68.0 1.000 1.000 1.000
v -792.8883666992188 -163.47519826889038 -47.0 1.000 1.000 1.000
v -789.8883666992188 -159.47519826889038 55.0 1.000 1.000 1.000
v -792.8883666992188 -163.47519826889038 -47.0 1.000 1.000 1.000
v -951.8555908203125 -90.70243644714355 -4.0 1.000 1.000 1.000
v -949.8555908203125 -154.70243644714355 14.0 1.000 1.000 1.000
v -953.8555908203125 -103.70243644714355 -62.0 1.000 1.000 1.000
v -951.8555908203125 -90.70243644714355 -4.0 1.000 1.000 1.000
v -949.8555908203125 -161.70243644714355 -35.0 1.000 1.000 1.000
v -949.8555908203125 -161.70243644714355 -35.0 1.000 1.000 1.000
v -949.8555908203125 -154.70243644714355 14.0 1.000 1.000 1.000
v -506.88836669921875 -112.47519826889038 106.0 1.000 1.000 1.000
v -523.8883666992188 -22.47519826889038 12.0 1.000 1.000 1.000
v -519.8883666992188 -114.47519826889038 -74.0 1.000 1.000 1.000
v -512.8883666992188 -188.47519826889038 9.0 1.000 1.000 1.000
v -788.8883666992188 -172.47519826889038 88.0 1.000 1.000 1.000
v -780.8883666992188 -45.47519826889038 79.0 1.000 1.000 1.000
v -790.8883666992188 -76.47519826889038 -89.0 1.000 1.000 1.000
v -788.8883666992188 -174.47519826889038 -77.0 1.000 1.000 1.000
v -1000.8883666992188 -139.47519826889038 46.0 1.000 1.000 1.000
v -527.8883666992188 -125.47519826889038 87.0 1.000 1.000 1.000
v -999.8883666992188 -90.47519826889038 23.0 1.000 1.000 1.000
v -518.8883666992188 -27.47519826889038 38.0 1.000 1.000 1.000
v -521.8883666992188 -101.47519826889038 -67.0 1.000 1.000 1.000
v -972.8883666992188 -103.47519826889038 -62.0 1.000 1.000 1.000
v -522.8883666992188 -188.47519826889038 13.0 1.000 1.000 1.000
v -971.8883666992188 -149.47519826889038 -50.0 1.000 1.000 1.000
v -527.8883666992188 -125.47519826889038 87.0 1.000 1.000 1.000
v -522.8883666992188 -188.47519826889038 13.0 1.000 1.000 1.000
v 1.0 -149.0 47.0 1.000 1.000 1.000
v -75.0 -81.0 123.0 1.000 1.000 1.000
v -145.0 -37.0 -22.0 1.000 1.000 1.000
v -36.0 -143.0 -89.0 1.000 1.000 1.000
v 1.0 -149.0 47.0 1.000 1.000 1.000
v -145.0 -37.0 -22.0 1.000 1.000 1.000
v -223.58901977539062 -125.63739013671875 133.0 1.000 1.000 1.000
v -249.58901977539062 -15.63739013671875 21.0 1.000 1.000 1.000
v -334.5890197753906 -188.63739013671875 13.0 1.000 1.000 1.000
v -334.5890197753906 -188.63739013671875 13.0 1.000 1.000 1.000
v -211.58901977539062 -116.63739013671875 -84.0 1.000 1.000 1.000
v -249.58901977539062 -15.63739013671875 21.0 1.000 1.000 1.000
v -211.58901977539062 -116.63739013671875 -84.0 1.000 1.000 1.000
v -249.58901977539062 -15.63739013671875 21.0 1.000 1.000 1.000
v -334.5890197753906 -188.63739013671875 13.0 1.000 1.000 1.000
v -223.58901977539062 -125.63739013671875 133.0 1.000 1.000 1.000
v -523.8883666992188 -22.47519826889038 12.0 1.000 1.000 1.000
v -519.8883666992188 -114.47519826889038 -74.0 1.000 1.000 1.000
v -506.88836669921875 -112.47519826889038 106.0 1.000 1.000 1.000
v -512.8883666992188 -188.47519826889038 9.0 1.000 1.000 1.000
v -527.5890197753906 -125.63739013671875 87.0 1.000 1.000 1.000
v -187.58901977539062 -185.63739013671875 20.0 1.000 1.000 1.000
v -187.58901977539062 -144.63739013671875 124.0 1.000 1.000 1.000
v -187.58901977539062 -115.63739013671875 -73.0 1.000 1.000 1.000
v -522.5890197753906 -188.63739013671875 13.0 1.000 1.000 1.000
v -522.5890197753906 -101.63739013671875 -67.0 1.000 1.000 1.000
v -519.5890197753906 -27.63739013671875 38.0 1.000 1.000 1.000
v -187.58901977539062 -30.63739013671875 27.0 1.000 1.000 1.000
v -187.58901977539062 -30.63739013671875 27.0 1.000 1.000 1.000
v -187.58901977539062 -144.63739013671875 124.0 1.000 1.000 1.000
v -187.58901977539062 -185.63739013671875 20.0 1.000 1.000 1.000
v -187.58901977539062 -115.63739013671875 -73.0 1.000 1.000 1.000
v -527.5890197753906 -125.63739013671875 87.0 1.000 1.000 1.000
v -522.5890197753906 -188.63739013671875 13.0 1.000 1.000 1.000
v -106.5760269165039 578.4290161132812 -20.0 1.000 1.000 1.000
v -79.5760269165039 632.4290161132812 -60.0 1.000 1.000 1.000
v -74.5760269165039 566.4290161132812 -76.0 1.000 1.000 1.000
v -97.5760269165039 551.4290161132812 -32.0 1.000 1.000 1.000
v -0.5760269165039062 579.4290161132812 -118.0 1.000 1.000 1.000
v -0.5760269165039062 655.4290161132812 -99.0 1.000 1.000 1.000
v 73.4239730834961 566.4290161132812 -76.0 1.000 1.000 1.000
v 72.4239730834961 632.4290161132812 -60.0 1.000 1.000 1.000
v -103.5760269165039 593.4290161132812 13.0 1.000 1.000 1.000
v -72.5760269165039 671.4290161132812 -27.0 1.000 1.000 1.000
v -0.5760269165039062 692.4290161132812 -41.0 1.000 1.000 1.000
v 71.4239730834961 671.4290161132812 -27.0 1.000 1.000 1.000
v -102.5760269165039 598.4290161132812 40.0 1.000 1.000 1.000
v -73.5760269165039 681.4290161132812 21.0 1.000 1.000 1.000
v -1.5760269165039062 705.4290161132812 19.0 1.000 1.000 1.000
v 71.4239730834961 681.4290161132812 21.0 1.000 1.000 1.000
v 97.4239730834961 599.4290161132812 39.0 1.000 1.000 1.000
v 71.4239730834961 681.4290161132812 21.0 1.000 1.000 1.000
v 71.4239730834961 672.4290161132812 65.0 1.000 1.000 1.000
v 97.4239730834961 597.4290161132812 57.0 1.000 1.000 1.000
v -102.5760269165039 599.4290161132812 57.0 1.000 1.000 1.000
v -73.5760269165039 672.4290161132812 65.0 1.000 1.000 1.000
v -73.5760269165039 681.4290161132812 21.0 1.000 1.000 1.000
v -102.5760269165039 598.4290161132812 40.0 1.000 1.000 1.000
v -1.5760269165039062 705.4290161132812 19.0 1.000 1.000 1.000
v -1.5760269165039062 694.4290161132812 75.0 1.000 1.000 1.000
v -102.5760269165039 587.4290161132812 74.0 1.000 1.000 1.000
v -81.5760269165039 644.4290161132812 92.0 1.000 1.000 1.000
v -1.5760269165039062 677.4290161132812 119.0 1.000 1.000 1.000
v 79.4239730834961 644.4290161132812 92.0 1.000 1.000 1.000
v -109.5760269165039 560.4290161132812 109.0 1.000 1.000 1.000
v -79.5760269165039 622.4290161132812 118.0 1.000 1.000 1.000
v -1.5760269165039062 640.4290161132812 150.0 1.000 1.000 1.000
v -1.5760269165039062 677.4290161132812 119.0 1.000 1.000 1.000
v -79.5760269165039 622.4290161132812 118.0 1.000 1.000 1.000
v 79.4239730834961 644.4290161132812 92.0 1.000 1.000 1.000
v 77.4239730834961 622.4290161132812 118.0 1.000 1.000 1.000
v -82.5760269165039 594.4290161132812 134.0 1.000 1.000 1.000
v -79.5760269165039 622.4290161132812 118.0 1.000 1.000 1.000
v -109.5760269165039 560.4290161132812 109.0 1.000 1.000 1.000
v -1.5760269165039062 601.4290161132812 161.0 1.000 1.000 1.000
v 80.4239730834961 594.4290161132812 134.0 1.000 1.000 1.000
v 71.4239730834961 681.4290161132812 21.0 1.000 1.000 1.000
v 97.4239730834961 599.4290161132812 39.0 1.000 1.000 1.000
v 97.4239730834961 592.4290161132812 13.0 1.000 1.000 1.000
v 71.4239730834961 671.4290161132812 -27.0 1.000 1.000 1.000
v 98.4239730834961 577.4290161132812 -19.0 1.000 1.000 1.000
v 72.4239730834961 632.4290161132812 -60.0 1.000 1.000 1.000
v 72.4239730834961 632.4290161132812 -60.0 1.000 1.000 1.000
v 98.4239730834961 577.4290161132812 -19.0 1.000 1.000 1.000
v 94.4239730834961 552.4290161132812 -31.0 1.000 1.000 1.000
v 73.4239730834961 566.4290161132812 -76.0 1.000 1.000 1.000
v 79.4239730834961 644.4290161132812 92.0 1.000 1.000 1.000
v 97.4239730834961 587.4290161132812 73.0 1.000 1.000 1.000
v 97.4239730834961 597.4290161132812 57.0 1.000 1.000 1.000
v 71.4239730834961 672.4290161132812 65.0 1.000 1.000 1.000
v 77.4239730834961 622.4290161132812 118.0 1.000 1.000 1.000
v 103.4239730834961 559.4290161132812 108.0 1.000 1.000 1.000
v 80.4239730834961 594.4290161132812 134.0 1.000 1.000 1.000
v 1.4239730834960938 572.4290161132812 118.0 1.000 1.000 1.000
v 71.4239730834961 658.4290161132812 88.0 1.000 1.000 1.000
v 1.4239730834960938 663.4290161132812 108.0 1.000 1.000 1.000
v -9.576026916503906 572.4290161132812 118.0 1.000 1.000 1.000
v -9.576026916503906 520.4290161132812 131.0 1.000 1.000 1.000
v 29.423973083496094 451.42901611328125 111.0 1.000 1.000 1.000
v -32.576026916503906 448.42901611328125 111.0 1.000 1.000 1.000
v -2.5760269165039062 441.42901611328125 111.0 1.000 1.000 1.000
v -59.576026916503906 574.4290161132812 87.0 1.000 1.000 1.000
v -16.576026916503906 514.4290161132812 119.0 1.000 1.000 1.000
v -9.576026916503906 520.4290161132812 131.0 1.000 1.000 1.000
v 7.423973083496094 520.4290161132812 131.0 1.000 1.000 1.000
v 1.4239730834960938 572.4290161132812 118.0 1.000 1.000 1.000
v 53.423973083496094 574.4290161132812 87.0 1.000 1.000 1.000
v 71.4239730834961 658.4290161132812 88.0 1.000 1.000 1.000
v 15.423973083496094 514.4290161132812 119.0 1.000 1.000 1.000
v -66.5760269165039 656.4290161132812 88.0 1.000 1.000 1.000
v -9.576026916503906 572.4290161132812 118.0 1.000 1.000 1.000
v 1.4239730834960938 663.4290161132812 108.0 1.000 1.000 1.000
v -6.576026916503906 442.42901611328125 73.0 1.000 1.000 1.000
v 29.423973083496094 451.42901611328125 111.0 1.000 1.000 1.000
v 49.423973083496094 468.42901611328125 44.0 1.000 1.000 1.000
v 53.423973083496094 574.4290161132812 87.0 1.000 1.000 1.000
v -59.576026916503906 574.4290161132812 87.0 1.000 1.000 1.000
v -66.5760269165039 656.4290161132812 88.0 1.000 1.000 1.000
v -81.5760269165039 578.4290161132812 16.0 1.000 1.000 1.000
v -75.5760269165039 513.4290161132812 1.0 1.000 1.000 1.000
v -51.576026916503906 469.42901611328125 44.0 1.000 1.000 1.000
v -59.576026916503906 630.4290161132812 -69.0 1.000 1.000 1.000
v 83.4239730834961 574.4290161132812 16.0 1.000 1.000 1.000
v 71.4239730834961 658.4290161132812 88.0 1.000 1.000 1.000
v 72.4239730834961 513.4290161132812 1.0 1.000 1.000 1.000
v 51.423973083496094 492.42901611328125 -57.0 1.000 1.000 1.000
v 58.423973083496094 630.4290161132812 -69.0 1.000 1.000 1.000
v -59.576026916503906 492.42901611328125 -57.0 1.000 1.000 1.000
v -32.576026916503906 448.42901611328125 111.0 1.000 1.000 1.000
v -6.576026916503906 442.42901611328125 73.0 1.000 1.000 1.000
v -32.576026916503906 448.42901611328125 111.0 1.000 1.000 1.000
v -51.576026916503906 469.42901611328125 44.0 1.000 1.000 1.000
v 49.423973083496094 468.42901611328125 44.0 1.000 1.000 1.000
v 72.4239730834961 513.4290161132812 1.0 1.000 1.000 1.000
v 53.423973083496094 574.4290161132812 87.0 1.000 1.000 1.000
v 58.423973083496094 630.4290161132812 -69.0 1.000 1.000 1.000
v 71.4239730834961 658.4290161132812 88.0 1.000 1.000 1.000
v 83.4239730834961 574.4290161132812 16.0 1.000 1.000 1.000
v 29.423973083496094 451.42901611328125 111.0 1.000 1.000 1.000
v -6.576026916503906 442.42901611328125 73.0 1.000 1.000 1.000
v -18.576026916503906 537.4290161132812 150.0 1.000 1.000 1.000
v -11.576026916503906 543.4290161132812 164.0 1.000 1.000 1.000
v -66.5760269165039 532.4290161132812 142.0 1.000 1.000 1.000
v -70.5760269165039 527.4290161132812 128.0 1.000 1.000 1.000
v -8.576026916503906 555.4290161132812 167.0 1.000 1.000 1.000
v 6.423973083496094 555.4290161132812 167.0 1.000 1.000 1.000
v -1.5760269165039062 590.4290161132812 173.0 1.000 1.000 1.000
v 69.4239730834961 586.4290161132812 156.0 1.000 1.000 1.000
v 64.4239730834961 532.4290161132812 142.0 1.000 1.000 1.000
v 68.4239730834961 527.4290161132812 128.0 1.000 1.000 1.000
v 80.4239730834961 594.4290161132812 134.0 1.000 1.000 1.000
v -1.5760269165039062 601.4290161132812 161.0 1.000 1.000 1.000
v -82.5760269165039 594.4290161132812 134.0 1.000 1.000 1.000
v -70.5760269165039 527.4290161132812 128.0 1.000 1.000 1.000
v -66.5760269165039 532.4290161132812 142.0 1.000 1.000 1.000
v -71.5760269165039 586.4290161132812 157.0 1.000 1.000 1.000
v 10.423973083496094 542.4290161132812 162.0 1.000 1.000 1.000
v 16.423973083496094 537.4290161132812 150.0 1.000 1.000 1.000
v -11.576026916503906 543.4290161132812 164.0 1.000 1.000 1.000
v -97.5760269165039 551.4290161132812 -32.0 1.000 1.000 1.000
v -74.5760269165039 566.4290161132812 -76.0 1.000 1.000 1.000
v -69.5760269165039 471.42901611328125 -58.0 1.000 1.000 1.000
v -0.5760269165039062 474.42901611328125 -98.0 1.000 1.000 1.000
v -0.5760269165039062 579.4290161132812 -118.0 1.000 1.000 1.000
v 69.4239730834961 471.42901611328125 -58.0 1.000 1.000 1.000
v 73.4239730834961 566.4290161132812 -76.0 1.000 1.000 1.000
v 95.4239730834961 510.42901611328125 -29.0 1.000 1.000 1.000
v 94.4239730834961 552.4290161132812 -31.0 1.000 1.000 1.000
v 98.4239730834961 577.4290161132812 -19.0 1.000 1.000 1.000
v 124.4239730834961 548.4290161132812 47.0 1.000 1.000 1.000
v 94.4239730834961 552.4290161132812 -31.0 1.000 1.000 1.000
v 76.4239730834961 465.42901611328125 57.0 1.000 1.000 1.000
v 95.4239730834961 510.42901611328125 -29.0 1.000 1.000 1.000
v -69.5760269165039 471.42901611328125 -58.0 1.000 1.000 1.000
v -71.5760269165039 465.42901611328125 57.0 1.000 1.000 1.000
v -125.5760269165039 548.4290161132812 46.0 1.000 1.000 1.000
v 97.4239730834961 587.4290161132812 73.0 1.000 1.000 1.000
v 124.4239730834961 548.4290161132812 47.0 1.000 1.000 1.000
v 97.4239730834961 597.4290161132812 57.0 1.000 1.000 1.000
v 103.4239730834961 559.4290161132812 108.0 1.000 1.000 1.000
v 68.4239730834961 527.4290161132812 128.0 1.000 1.000 1.000
v -70.5760269165039 527.4290161132812 128.0 1.000 1.000 1.000
v -96.5760269165039 519.4290161132812 90.0 1.000 1.000 1.000
v -82.5760269165039 594.4290161132812 134.0 1.000 1.000 1.000
v -109.5760269165039 560.4290161132812 109.0 1.000 1.000 1.000
v 97.4239730834961 592.4290161132812 13.0 1.000 1.000 1.000
v 98.4239730834961 577.4290161132812 -19.0 1.000 1.000 1.000
v 97.4239730834961 599.4290161132812 39.0 1.000 1.000 1.000
v 95.4239730834961 510.42901611328125 -29.0 1.000 1.000 1.000
v 94.4239730834961 552.4290161132812 -31.0 1.000 1.000 1.000
v 124.4239730834961 548.4290161132812 47.0 1.000 1.000 1.000
v 80.4239730834961 594.4290161132812 134.0 1.000 1.000 1.000
v 68.4239730834961 527.4290161132812 128.0 1.000 1.000 1.000
v 103.4239730834961 559.4290161132812 108.0 1.000 1.000 1.000
v 76.4239730834961 465.42901611328125 57.0 1.000 1.000 1.000
v 69.4239730834961 471.42901611328125 -58.0 1.000 1.000 1.000
v -102.5760269165039 599.4290161132812 57.0 1.000 1.000 1.000
v -102.5760269165039 598.4290161132812 40.0 1.000 1.000 1.000
v -125.5760269165039 548.4290161132812 46.0 1.000 1.000 1.000
v -103.5760269165039 593.4290161132812 13.0 1.000 1.000 1.000
v -102.5760269165039 587.4290161132812 74.0 1.000 1.000 1.000
v -109.5760269165039 560.4290161132812 109.0 1.000 1.000 1.000
v -97.5760269165039 551.4290161132812 -32.0 1.000 1.000 1.000
v -69.5760269165039 471.42901611328125 -58.0 1.000 1.000 1.000
v -103.5760269165039 593.4290161132812 13.0 1.000 1.000 1.000
v -106.5760269165039 578.4290161132812 -20.0 1.000 1.000 1.000
v -125.5760269165039 548.4290161132812 46.0 1.000 1.000 1.000
v -96.5760269165039 519.4290161132812 90.0 1.000 1.000 1.000
v -109.5760269165039 560.4290161132812 109.0 1.000 1.000 1.000
v -97.5760269165039 551.4290161132812 -32.0 1.000 1.000 1.000
v -70.5760269165039 527.4290161132812 128.0 1.000 1.000 1.000
v -71.5760269165039 465.42901611328125 57.0 1.000 1.000 1.000
v -59.576026916503906 492.42901611328125 -57.0 1.000 1.000 1.000
v -46.576026916503906 482.42901611328125 -31.0 1.000 1.000 1.000
v -51.576026916503906 469.42901611328125 44.0 1.000 1.000 1.000
v -59.576026916503906 492.42901611328125 -57.0 1.000 1.000 1.000
v 27.423973083496094 480.42901611328125 -37.0 1.000 1.000 1.000
v -46.576026916503906 482.42901611328125 -31.0 1.000 1.000 1.000
v 49.423973083496094 468.42901611328125 44.0 1.000 1.000 1.000
v 27.423973083496094 480.42901611328125 -37.0 1.000 1.000 1.000
v 51.423973083496094 492.42901611328125 -57.0 1.000 1.000 1.000
v 51.423973083496094 492.42901611328125 -57.0 1.000 1.000 1.000
v 27.423973083496094 480.42901611328125 -37.0 1.000 1.000 1.000
v -59.576026916503906 492.42901611328125 -57.0 1.000 1.000 1.000
v 72.4239730834961 513.4290161132812 1.0 1.000 1.000 1.000
v 58.423973083496094 630.4290161132812 -69.0 1.000 1.000 1.000
v 1.4239730834960938 673.4290161132812 -20.0 1.000 1.000 1.000
v 71.4239730834961 658.4290161132812 88.0 1.000 1.000 1.000
v 1.4239730834960938 663.4290161132812 108.0 1.000 1.000 1.000
v 58.423973083496094 630.4290161132812 -69.0 1.000 1.000 1.000
v -59.576026916503906 492.42901611328125 -57.0 1.000 1.000 1.000
v -59.576026916503906 630.4290161132812 -69.0 1.000 1.000 1.000
v 51.423973083496094 492.42901611328125 -57.0 1.000 1.000 1.000
v -59.576026916503906 630.4290161132812 -69.0 1.000 1.000 1.000
v -66.5760269165039 656.4290161132812 88.0 1.000 1.000 1.000
v 1.4239730834960938 663.4290161132812 108.0 1.000 1.000 1.000
v 1.4239730834960938 673.4290161132812 -20.0 1.000 1.000 1.000
v -59.576026916503906 630.4290161132812 -69.0 1.000 1.000 1.000
v -75.5760269165039 513.4290161132812 1.0 1.000 1.000 1.000
v -59.576026916503906 492.42901611328125 -57.0 1.000 1.000 1.000
v -51.576026916503906 469.42901611328125 44.0 1.000 1.000 1.000
v -63.576026916503906 552.4290161132812 178.0 1.000 1.000 1.000
v 63.423973083496094 551.4290161132812 178.0 1.000 1.000 1.000
v 79.4239730834961 696.4290161132812 119.0 1.000 1.000 1.000
v -77.5760269165039 696.4290161132812 119.0 1.000 1.000 1.000
v -107.5760269165039 456.42901611328125 -83.0 1.000 1.000 1.000
v 106.4239730834961 456.42901611328125 -83.0 1.000 1.000 1.000
v 73.4239730834961 657.4290161132812 -111.0 1.000 1.000 1.000
v -86.5760269165039 657.4290161132812 -111.0 1.000 1.000 1.000
v -44.576026916503906 503.42901611328125 -55.0 1.000 1.000 1.000
v 43.423973083496094 504.42901611328125 -55.0 1.000 1.000 1.000
v 37.423973083496094 448.42901611328125 117.0 1.000 1.000 1.000
v -37.576026916503906 449.42901611328125 117.0 1.000 1.000 1.000
v -37.576026916503906 449.42901611328125 117.0 1.000 1.000 1.000
v 37.423973083496094 448.42901611328125 117.0 1.000 1.000 1.000
v 72.4239730834961 656.4290161132812 94.0 1.000 1.000 1.000
v -70.5760269165039 660.4290161132812 94.0 1.000 1.000 1.000
v -70.5760269165039 660.4290161132812 94.0 1.000 1.000 1.000
v -72.5760269165039 655.4290161132812 -68.0 1.000 1.000 1.000
v -44.576026916503906 503.42901611328125 -55.0 1.000 1.000 1.000
v -37.576026916503906 449.42901611328125 117.0 1.000 1.000 1.000
v 37.423973083496094 448.42901611328125 117.0 1.000 1.000 1.000
v 43.423973083496094 504.42901611328125 -55.0 1.000 1.000 1.000
v 60.423973083496094 655.4290161132812 -68.0 1.000 1.000 1.000
v 72.4239730834961 656.4290161132812 94.0 1.000 1.000 1.000
v -70.5760269165039 660.4290161132812 94.0 1.000 1.000 1.000
v 72.4239730834961 656.4290161132812 94.0 1.000 1.000 1.000
v 60.423973083496094 655.4290161132812 -68.0 1.000 1.000 1.000
v -72.5760269165039 655.4290161132812 -68.0 1.000 1.000 1.000
v 43.423973083496094 504.42901611328125 -55.0 1.000 1.000 1.000
v -44.576026916503906 503.42901611328125 -55.0 1.000 1.000 1.000
v -72.5760269165039 655.4290161132812 -68.0 1.000 1.000 1.000
v 60.423973083496094 655.4290161132812 -68.0 1.000 1.000 1.000
v -254.86859130859375 376.30655002593994 70.0 1.000 1.000 1.000
v -198.86859130859375 437.30655002593994 0.0 1.000 1.000 1.000
v -226.86859130859375 413.30655002593994 -45.0 1.000 1.000 1.000
v -304.86859130859375 437.30655002593994 0.0 1.000 1.000 1.000
v -288.86859130859375 414.30655002593994 -41.0 1.000 1.000 1.000
v -226.86859130859375 413.30655002593994 -45.0 1.000 1.000 1.000
v -288.86859130859375 414.30655002593994 -41.0 1.000 1.000 1.000
v -6.576026916503906 442.42901611328125 73.0 1.000 1.000 1.000
v -51.576026916503906 469.42901611328125 44.0 1.000 1.000 1.000
v 27.423973083496094 480.42901611328125 -37.0 1.000 1.000 1.000
v 49.423973083496094 468.42901611328125 44.0 1.000 1.000 1.000
v -46.576026916503906 482.42901611328125 -31.0 1.000 1.000 1.000
v -46.576026916503906 482.42901611328125 -31.0 1.000 1.000 1.000
v 27.423973083496094 480.42901611328125 -37.0 1.000 1.000 1.000
v 370.1021728515625 -27.755651995539665 -42.76123380661011 1.000 1.000 1.000
v 339.1021728515625 37.244348004460335 -27.761233806610107 1.000 1.000 1.000
v 381.1021728515625 -31.755651995539665 56.23876619338989 1.000 1.000 1.000
v 349.1021728515625 62.244348004460335 51.23876619338989 1.000 1.000 1.000
v 262.1021728515625 17.244348004460335 -34.76123380661011 1.000 1.000 1.000
v 260.1021728515625 31.244348004460335 44.23876619338989 1.000 1.000 1.000
v 339.1021728515625 37.244348004460335 -27.761233806610107 1.000 1.000 1.000
v 349.1021728515625 62.244348004460335 51.23876619338989 1.000 1.000 1.000
v 339.1021728515625 37.244348004460335 -27.761233806610107 1.000 1.000 1.000
v 370.1021728515625 -27.755651995539665 -42.76123380661011 1.000 1.000 1.000
v 262.1021728515625 17.244348004460335 -34.76123380661011 1.000 1.000 1.000
v 258.1021728515625 -26.755651995539665 -22.761233806610107 1.000 1.000 1.000
v 256.1021728515625 -22.755651995539665 37.23876619338989 1.000 1.000 1.000
v 381.1021728515625 -31.755651995539665 56.23876619338989 1.000 1.000 1.000
v 260.1021728515625 31.244348004460335 44.23876619338989 1.000 1.000 1.000
v 349.1021728515625 62.244348004460335 51.23876619338989 1.000 1.000 1.000
v 381.1021728515625 -31.755651995539665 56.23876619338989 1.000 1.000 1.000
v 256.1021728515625 -22.755651995539665 37.23876619338989 1.000 1.000 1.000
v 370.1021728515625 -27.755651995539665 -42.76123380661011 1.000 1.000 1.000
v 258.1021728515625 -26.755651995539665 -22.761233806610107 1.000 1.000 1.000
v 489.6571079492569 393.8121757507324 52.07913017272949 1.000 1.000 1.000
v 483.6571079492569 317.8121757507324 49.07913017272949 1.000 1.000 1.000
v 484.6571079492569 313.8121757507324 -5.920869827270508 1.000 1.000 1.000
v 486.6571079492569 381.8121757507324 -42.92086982727051 1.000 1.000 1.000
v 484.6571079492569 433.8121757507324 7.079130172729492 1.000 1.000 1.000
v 256.1021728515625 -22.755651995539665 37.23876619338989 1.000 1.000 1.000
v 258.1021728515625 -26.755651995539665 -22.761233806610107 1.000 1.000 1.000
v 260.1021728515625 31.244348004460335 44.23876619338989 1.000 1.000 1.000
v 262.1021728515625 17.244348004460335 -34.76123380661011 1.000 1.000 1.000
v 411.6571079492569 415.8121757507324 7.079130172729492 1.000 1.000 1.000
v 413.6571079492569 381.8121757507324 -30.920869827270508 1.000 1.000 1.000
v 412.6571079492569 329.8121757507324 -6.920869827270508 1.000 1.000 1.000
v 410.6571079492569 337.8121757507324 53.07913017272949 1.000 1.000 1.000
v 411.6571079492569 413.8121757507324 50.07913017272949 1.000 1.000 1.000
v 486.6571079492569 381.8121757507324 -42.92086982727051 1.000 1.000 1.000
v 484.6571079492569 433.8121757507324 7.079130172729492 1.000 1.000 1.000
v 484.6571079492569 313.8121757507324 -5.920869827270508 1.000 1.000 1.000
v 483.6571079492569 317.8121757507324 49.07913017272949 1.000 1.000 1.000
v 489.6571079492569 393.8121757507324 52.07913017272949 1.000 1.000 1.000
v 680.6571079492569 360.8121757507324 49.07913017272949 1.000 1.000 1.000
v 402.6571079492569 398.8121757507324 91.07913017272949 1.000 1.000 1.000
v 396.6571079492569 297.8121757507324 89.07913017272949 1.000 1.000 1.000
v 398.6571079492569 292.8121757507324 -24.920869827270508 1.000 1.000 1.000
v 682.6571079492569 365.8121757507324 -17.920869827270508 1.000 1.000 1.000
v 404.6571079492569 408.8121757507324 -46.92086982727051 1.000 1.000 1.000
v 683.6571079492569 423.8121757507324 48.07913017272949 1.000 1.000 1.000
v 684.6571079492569 406.8121757507324 -19.920869827270508 1.000 1.000 1.000
v 396.6571079492569 297.8121757507324 89.07913017272949 1.000 1.000 1.000
v 398.6571079492569 292.8121757507324 -24.920869827270508 1.000 1.000 1.000
v 274.85553324222565 439.87169647216797 17.0 1.000 1.000 1.000
v 140.85553324222565 403.87169647216797 10.0 1.000 1.000 1.000
v 186.85553324222565 379.87169647216797 89.0 1.000 1.000 1.000
v 268.85553324222565 388.87169647216797 -57.0 1.000 1.000 1.000
v 333.85553324222565 388.87169647216797 80.0 1.000 1.000 1.000
v 263.85553324222565 324.87169647216797 69.0 1.000 1.000 1.000
v 274.85553324222565 319.87169647216797 -12.0 1.000 1.000 1.000
v 339.85553324222565 340.87169647216797 61.0 1.000 1.000 1.000
v 333.85553324222565 388.87169647216797 80.0 1.000 1.000 1.000
v 186.85553324222565 379.87169647216797 89.0 1.000 1.000 1.000
v 175.85553324222565 369.87169647216797 -66.0 1.000 1.000 1.000
v 140.85553324222565 403.87169647216797 10.0 1.000 1.000 1.000
v 268.85553324222565 388.87169647216797 -57.0 1.000 1.000 1.000
v 333.85553324222565 325.87169647216797 -10.0 1.000 1.000 1.000
v -53.86859130859375 220.30655002593994 67.0 1.000 1.000 1.000
v -55.86859130859375 210.30655002593994 -17.0 1.000 1.000 1.000
v -51.86859130859375 353.30655002593994 -49.0 1.000 1.000 1.000
v -51.86859130859375 375.30655002593994 26.0 1.000 1.000 1.000
v -52.86859130859375 335.30655002593994 75.0 1.000 1.000 1.000
v 263.85553324222565 324.87169647216797 69.0 1.000 1.000 1.000
v 274.85553324222565 319.87169647216797 -12.0 1.000 1.000 1.000
v 175.85553324222565 369.87169647216797 -66.0 1.000 1.000 1.000
v 140.85553324222565 403.87169647216797 10.0 1.000 1.000 1.000
v 186.85553324222565 379.87169647216797 89.0 1.000 1.000 1.000
v 274.85553324222565 439.87169647216797 17.0 1.000 1.000 1.000
v 268.85553324222565 388.87169647216797 -57.0 1.000 1.000 1.000
v 333.85553324222565 388.87169647216797 80.0 1.000 1.000 1.000
v 268.85553324222565 388.87169647216797 -57.0 1.000 1.000 1.000
v 333.85553324222565 325.87169647216797 -10.0 1.000 1.000 1.000
v 339.85553324222565 340.87169647216797 61.0 1.000 1.000 1.000
v 333.85553324222565 388.87169647216797 80.0 1.000 1.000 1.000
v 413.6571079492569 381.8121757507324 -30.920869827270508 1.000 1.000 1.000
v 411.6571079492569 415.8121757507324 7.079130172729492 1.000 1.000 1.000
v 411.6571079492569 413.8121757507324 50.07913017272949 1.000 1.000 1.000
v 412.6571079492569 329.8121757507324 -6.920869827270508 1.000 1.000 1.000
v 413.6571079492569 381.8121757507324 -30.920869827270508 1.000 1.000 1.000
v 410.6571079492569 337.8121757507324 53.07913017272949 1.000 1.000 1.000
v 411.6571079492569 413.8121757507324 50.07913017272949 1.000 1.000 1.000
v 94.85553324222565 289.87169647216797 80.0 1.000 1.000 1.000
v 64.85553324222565 283.87169647216797 -47.0 1.000 1.000 1.000
v 396.85553324222565 297.87169647216797 89.0 1.000 1.000 1.000
v 402.85553324222565 398.87169647216797 91.0 1.000 1.000 1.000
v 151.85553324222565 400.87169647216797 66.0 1.000 1.000 1.000
v 148.85553324222565 412.87169647216797 -35.0 1.000 1.000 1.000
v 404.85553324222565 408.87169647216797 -47.0 1.000 1.000 1.000
v 398.85553324222565 292.87169647216797 -25.0 1.000 1.000 1.000
v 398.85553324222565 292.87169647216797 -25.0 1.000 1.000 1.000
v 396.85553324222565 297.87169647216797 89.0 1.000 1.000 1.000
v -785.0662807226181 361.1454210281372 55.0 1.000 1.000 1.000
v -744.0662807226181 433.1454210281372 -27.0 1.000 1.000 1.000
v -773.0662807226181 366.1454210281372 -44.0 1.000 1.000 1.000
v -756.0662807226181 457.1454210281372 52.0 1.000 1.000 1.000
v -744.0662807226181 433.1454210281372 -27.0 1.000 1.000 1.000
v -665.0662807226181 421.1454210281372 38.0 1.000 1.000 1.000
v -666.0662807226181 412.1454210281372 -20.0 1.000 1.000 1.000
v -756.0662807226181 457.1454210281372 52.0 1.000 1.000 1.000
v -666.0662807226181 412.1454210281372 -20.0 1.000 1.000 1.000
v -773.0662807226181 366.1454210281372 -44.0 1.000 1.000 1.000
v -744.0662807226181 433.1454210281372 -27.0 1.000 1.000 1.000
v -665.0662807226181 365.1454210281372 -25.0 1.000 1.000 1.000
v -665.0662807226181 421.1454210281372 38.0 1.000 1.000 1.000
v -785.0662807226181 361.1454210281372 55.0 1.000 1.000 1.000
v -666.0662807226181 358.1454210281372 40.0 1.000 1.000 1.000
v -756.0662807226181 457.1454210281372 52.0 1.000 1.000 1.000
v -773.0662807226181 366.1454210281372 -44.0 1.000 1.000 1.000
v -666.0662807226181 358.1454210281372 40.0 1.000 1.000 1.000
v -785.0662807226181 361.1454210281372 55.0 1.000 1.000 1.000
v -665.0662807226181 365.1454210281372 -25.0 1.000 1.000 1.000
v -475.19768941402435 338.83887100219727 45.0 1.000 1.000 1.000
v -481.19768941402435 401.83887100219727 50.0 1.000 1.000 1.000
v -476.19768941402435 335.83887100219727 -10.0 1.000 1.000 1.000
v -476.19768941402435 390.83887100219727 -46.0 1.000 1.000 1.000
v -475.19768941402435 441.83887100219727 5.0 1.000 1.000 1.000
v -666.0662807226181 358.1454210281372 40.0 1.000 1.000 1.000
v -665.0662807226181 365.1454210281372 -25.0 1.000 1.000 1.000
v -665.0662807226181 421.1454210281372 38.0 1.000 1.000 1.000
v -666.0662807226181 412.1454210281372 -20.0 1.000 1.000 1.000
v -403.19768941402435 424.83887100219727 6.0 1.000 1.000 1.000
v -404.19768941402435 390.83887100219727 -32.0 1.000 1.000 1.000
v -403.19768941402435 338.83887100219727 -10.0 1.000 1.000 1.000
v -403.19768941402435 345.83887100219727 51.0 1.000 1.000 1.000
v -403.19768941402435 420.83887100219727 49.0 1.000 1.000 1.000
v -475.19768941402435 441.83887100219727 5.0 1.000 1.000 1.000
v -476.19768941402435 390.83887100219727 -46.0 1.000 1.000 1.000
v -476.19768941402435 335.83887100219727 -10.0 1.000 1.000 1.000
v -475.19768941402435 338.83887100219727 45.0 1.000 1.000 1.000
v -481.19768941402435 401.83887100219727 50.0 1.000 1.000 1.000
v -391.19768941402435 313.83887100219727 85.0 1.000 1.000 1.000
v -397.19768941402435 414.83887100219727 89.0 1.000 1.000 1.000
v -682.1976894140244 358.83887100219727 42.0 1.000 1.000 1.000
v -682.1976894140244 365.83887100219727 -25.0 1.000 1.000 1.000
v -391.19768941402435 311.83887100219727 -28.0 1.000 1.000 1.000
v -685.1976894140244 421.83887100219727 42.0 1.000 1.000 1.000
v -397.19768941402435 427.83887100219727 -49.0 1.000 1.000 1.000
v -685.1976894140244 405.83887100219727 -27.0 1.000 1.000 1.000
v -391.19768941402435 313.83887100219727 85.0 1.000 1.000 1.000
v -391.19768941402435 311.83887100219727 -28.0 1.000 1.000 1.000
v -332.2357143163681 347.22493743896484 62.0 1.000 1.000 1.000
v -267.2357143163681 327.22493743896484 -16.0 1.000 1.000 1.000
v -258.2357143163681 331.22493743896484 66.0 1.000 1.000 1.000
v -181.2357143163681 385.22493743896484 88.0 1.000 1.000 1.000
v -326.2357143163681 395.22493743896484 81.0 1.000 1.000 1.000
v -259.2357143163681 397.22493743896484 -55.0 1.000 1.000 1.000
v -133.2357143163681 412.22493743896484 11.0 1.000 1.000 1.000
v -167.2357143163681 379.22493743896484 -67.0 1.000 1.000 1.000
v -325.2357143163681 333.22493743896484 -10.0 1.000 1.000 1.000
v -267.2357143163681 447.22493743896484 21.0 1.000 1.000 1.000
v -440.86859130859375 220.30655002593994 68.0 1.000 1.000 1.000
v -439.86859130859375 208.30655002593994 -19.0 1.000 1.000 1.000
v -445.86859130859375 354.30655002593994 -50.0 1.000 1.000 1.000
v -444.86859130859375 372.30655002593994 27.0 1.000 1.000 1.000
v -445.86859130859375 334.30655002593994 75.0 1.000 1.000 1.000
v -267.2357143163681 327.22493743896484 -16.0 1.000 1.000 1.000
v -258.2357143163681 331.22493743896484 66.0 1.000 1.000 1.000
v -167.2357143163681 379.22493743896484 -67.0 1.000 1.000 1.000
v -133.2357143163681 412.22493743896484 11.0 1.000 1.000 1.000
v -181.2357143163681 385.22493743896484 88.0 1.000 1.000 1.000
v -267.2357143163681 447.22493743896484 21.0 1.000 1.000 1.000
v -259.2357143163681 397.22493743896484 -55.0 1.000 1.000 1.000
v -325.2357143163681 333.22493743896484 -10.0 1.000 1.000 1.000
v -332.2357143163681 347.22493743896484 62.0 1.000 1.000 1.000
v -326.2357143163681 395.22493743896484 81.0 1.000 1.000 1.000
v -403.19768941402435 424.83887100219727 6.0 1.000 1.000 1.000
v -404.19768941402435 390.83887100219727 -32.0 1.000 1.000 1.000
v -403.19768941402435 338.83887100219727 -10.0 1.000 1.000 1.000
v -403.19768941402435 345.83887100219727 51.0 1.000 1.000 1.000
v -403.19768941402435 420.83887100219727 49.0 1.000 1.000 1.000
v -145.2357143163681 417.22493743896484 68.0 1.000 1.000 1.000
v -89.2357143163681 306.22493743896484 81.0 1.000 1.000 1.000
v -57.2357143163681 302.22493743896484 -45.0 1.000 1.000 1.000
v -141.2357143163681 431.22493743896484 -33.0 1.000 1.000 1.000
v -391.2357143163681 314.22493743896484 85.0 1.000 1.000 1.000
v -397.2357143163681 415.22493743896484 89.0 1.000 1.000 1.000
v -397.2357143163681 428.22493743896484 -49.0 1.000 1.000 1.000
v -391.2357143163681 311.22493743896484 -28.0 1.000 1.000 1.000
v -391.2357143163681 311.22493743896484 -28.0 1.000 1.000 1.000
v -391.2357143163681 314.22493743896484 85.0 1.000 1.000 1.000
v -51.86859130859375 375.30655002593994 26.0 1.000 1.000 1.000
v -198.86859130859375 437.30655002593994 0.0 1.000 1.000 1.000
v -254.86859130859375 376.30655002593994 70.0 1.000 1.000 1.000
v -445.86859130859375 334.30655002593994 75.0 1.000 1.000 1.000
v -253.86859130859375 236.30655002593994 189.0 1.000 1.000 1.000
v -52.86859130859375 335.30655002593994 75.0 1.000 1.000 1.000
v -93.86859130859375 223.30655002593994 161.0 1.000 1.000 1.000
v -401.86859130859375 223.30655002593994 161.0 1.000 1.000 1.000
v -408.86859130859375 86.30655002593994 29.0 1.000 1.000 1.000
v -330.86859130859375 95.30655002593994 186.0 1.000 1.000 1.000
v -444.86859130859375 372.30655002593994 27.0 1.000 1.000 1.000
v -304.86859130859375 437.30655002593994 0.0 1.000 1.000 1.000
v -173.86859130859375 95.30655002593994 186.0 1.000 1.000 1.000
v -439.86859130859375 208.30655002593994 -19.0 1.000 1.000 1.000
v -440.86859130859375 220.30655002593994 68.0 1.000 1.000 1.000
v -53.86859130859375 220.30655002593994 67.0 1.000 1.000 1.000
v -53.86859130859375 220.30655002593994 67.0 1.000 1.000 1.000
v -93.86859130859375 223.30655002593994 161.0 1.000 1.000 1.000
v -90.86859130859375 86.30655002593994 30.0 1.000 1.000 1.000
v -253.86859130859375 236.30655002593994 189.0 1.000 1.000 1.000
v -401.86859130859375 223.30655002593994 161.0 1.000 1.000 1.000
v -330.86859130859375 95.30655002593994 186.0 1.000 1.000 1.000
v -445.86859130859375 334.30655002593994 75.0 1.000 1.000 1.000
v -440.86859130859375 220.30655002593994 68.0 1.000 1.000 1.000
v -408.86859130859375 86.30655002593994 29.0 1.000 1.000 1.000
v -55.86859130859375 210.30655002593994 -17.0 1.000 1.000 1.000
v -173.86859130859375 95.30655002593994 186.0 1.000 1.000 1.000
v -252.86859130859375 185.30655002593994 -84.0 1.000 1.000 1.000
v -138.86859130859375 88.30655002593994 -92.0 1.000 1.000 1.000
v -369.86859130859375 87.30655002593994 -90.0 1.000 1.000 1.000
v -321.86859130859375 336.30655002593994 -96.0 1.000 1.000 1.000
v -351.86859130859375 194.30655002593994 -100.0 1.000 1.000 1.000
v -156.86859130859375 193.30655002593994 -105.0 1.000 1.000 1.000
v -55.86859130859375 210.30655002593994 -17.0 1.000 1.000 1.000
v -138.86859130859375 88.30655002593994 -92.0 1.000 1.000 1.000
v -51.86859130859375 353.30655002593994 -49.0 1.000 1.000 1.000
v -170.86859130859375 336.30655002593994 -96.0 1.000 1.000 1.000
v -252.86859130859375 185.30655002593994 -84.0 1.000 1.000 1.000
v -321.86859130859375 336.30655002593994 -96.0 1.000 1.000 1.000
v -288.86859130859375 414.30655002593994 -41.0 1.000 1.000 1.000
v -226.86859130859375 413.30655002593994 -45.0 1.000 1.000 1.000
v -445.86859130859375 354.30655002593994 -50.0 1.000 1.000 1.000
v -369.86859130859375 87.30655002593994 -90.0 1.000 1.000 1.000
v -408.86859130859375 86.30655002593994 29.0 1.000 1.000 1.000
v -439.86859130859375 208.30655002593994 -19.0 1.000 1.000 1.000
v -90.86859130859375 86.30655002593994 30.0 1.000 1.000 1.000
v -351.86859130859375 194.30655002593994 -100.0 1.000 1.000 1.000
v -51.86859130859375 375.30655002593994 26.0 1.000 1.000 1.000
v -226.86859130859375 413.30655002593994 -45.0 1.000 1.000 1.000
v -198.86859130859375 437.30655002593994 0.0 1.000 1.000 1.000
v -288.86859130859375 414.30655002593994 -41.0 1.000 1.000 1.000
v -444.86859130859375 372.30655002593994 27.0 1.000 1.000 1.000
v -304.86859130859375 437.30655002593994 0.0 1.000 1.000 1.000
v -445.86859130859375 354.30655002593994 -50.0 1.000 1.000 1.000
v -51.86859130859375 353.30655002593994 -49.0 1.000 1.000 1.000
v 81.1779819726944 63.144371032714844 164.0 1.000 1.000 1.000
v -78.8220180273056 60.144371032714844 161.0 1.000 1.000 1.000
v -137.8220180273056 67.14437103271484 28.0 1.000 1.000 1.000
v 143.1779819726944 69.14437103271484 30.0 1.000 1.000 1.000
v -137.8220180273056 67.14437103271484 28.0 1.000 1.000 1.000
v -97.8220180273056 73.14437103271484 -59.0 1.000 1.000 1.000
v 104.1779819726944 74.14437103271484 -62.0 1.000 1.000 1.000
v 143.1779819726944 69.14437103271484 30.0 1.000 1.000 1.000
v -173.86859130859375 95.30655002593994 186.0 1.000 1.000 1.000
v -330.86859130859375 95.30655002593994 186.0 1.000 1.000 1.000
v -90.86859130859375 86.30655002593994 30.0 1.000 1.000 1.000
v -408.86859130859375 86.30655002593994 29.0 1.000 1.000 1.000
v -408.86859130859375 86.30655002593994 29.0 1.000 1.000 1.000
v -369.86859130859375 87.30655002593994 -90.0 1.000 1.000 1.000
v -138.86859130859375 88.30655002593994 -92.0 1.000 1.000 1.000
v -90.86859130859375 86.30655002593994 30.0 1.000 1.000 1.000
v -63.86859130859375 387.30655002593994 148.0 1.000 1.000 1.000
v -461.86859130859375 424.30655002593994 -72.0 1.000 1.000 1.000
v -441.86859130859375 384.30655002593994 147.0 1.000 1.000 1.000
v -63.86859130859375 387.30655002593994 148.0 1.000 1.000 1.000
v -405.86859130859375 37.30655002593994 141.0 1.000 1.000 1.000
v -97.86859130859375 38.30655002593994 141.0 1.000 1.000 1.000
v -42.86859130859375 427.30655002593994 -70.0 1.000 1.000 1.000
v -441.86859130859375 384.30655002593994 147.0 1.000 1.000 1.000
v -417.86859130859375 32.30655002593994 -35.0 1.000 1.000 1.000
v -94.86859130859375 33.30655002593994 -37.0 1.000 1.000 1.000
v -405.86859130859375 37.30655002593994 141.0 1.000 1.000 1.000
v -97.86859130859375 38.30655002593994 141.0 1.000 1.000 1.000
v -42.86859130859375 427.30655002593994 -70.0 1.000 1.000 1.000
v -94.86859130859375 33.30655002593994 -37.0 1.000 1.000 1.000
v -417.86859130859375 32.30655002593994 -35.0 1.000 1.000 1.000
v -461.86859130859375 424.30655002593994 -72.0 1.000 1.000 1.000
v -417.86859130859375 32.30655002593994 -35.0 1.000 1.000 1.000
v -405.86859130859375 37.30655002593994 141.0 1.000 1.000 1.000
v -461.86859130859375 424.30655002593994 -72.0 1.000 1.000 1.000
v -94.86859130859375 33.30655002593994 -37.0 1.000 1.000 1.000
v -42.86859130859375 427.30655002593994 -70.0 1.000 1.000 1.000
v -97.86859130859375 38.30655002593994 141.0 1.000 1.000 1.000
v -441.86859130859375 384.30655002593994 147.0 1.000 1.000 1.000
v -63.86859130859375 387.30655002593994 148.0 1.000 1.000 1.000
v 139.0 22.0 21.0 1.000 1.000 1.000
v 69.0 16.0 135.0 1.000 1.000 1.000
v 72.0 -83.0 122.0 1.000 1.000 1.000
v -75.0 -81.0 123.0 1.000 1.000 1.000
v 1.0 -149.0 47.0 1.000 1.000 1.000
v -145.0 -37.0 -22.0 1.000 1.000 1.000
v -134.0 19.0 20.0 1.000 1.000 1.000
v -71.0 13.0 113.0 1.000 1.000 1.000
v 145.0 -53.0 -12.0 1.000 1.000 1.000
v -95.0 26.0 -59.0 1.000 1.000 1.000
v -145.0 -37.0 -22.0 1.000 1.000 1.000
v -134.0 19.0 20.0 1.000 1.000 1.000
v 90.0 28.0 -62.0 1.000 1.000 1.000
v 139.0 22.0 21.0 1.000 1.000 1.000
v 145.0 -53.0 -12.0 1.000 1.000 1.000
v -1.0 -79.0 -101.0 1.000 1.000 1.000
v -1.0 -150.0 -73.0 1.000 1.000 1.000
v 1.0 -149.0 47.0 1.000 1.000 1.000
v -36.0 -143.0 -89.0 1.000 1.000 1.000
v -1.0 -79.0 -101.0 1.000 1.000 1.000
v 34.0 -143.0 -90.0 1.000 1.000 1.000
v -145.0 -37.0 -22.0 1.000 1.000 1.000
v 90.0 28.0 -62.0 1.000 1.000 1.000
v 145.0 -53.0 -12.0 1.000 1.000 1.000
v -95.0 26.0 -59.0 1.000 1.000 1.000
v 69.0 16.0 135.0 1.000 1.000 1.000
v -71.0 13.0 113.0 1.000 1.000 1.000
v -134.0 19.0 20.0 1.000 1.000 1.000
v 139.0 22.0 21.0 1.000 1.000 1.000
v -134.0 19.0 20.0 1.000 1.000 1.000
v -95.0 26.0 -59.0 1.000 1.000 1.000
v 90.0 28.0 -62.0 1.000 1.000 1.000
v 139.0 22.0 21.0 1.000 1.000 1.000
v 81.1779819726944 63.144371032714844 164.0 1.000 1.000 1.000
v -78.8220180273056 60.144371032714844 161.0 1.000 1.000 1.000
v -137.8220180273056 67.14437103271484 28.0 1.000 1.000 1.000
v 143.1779819726944 69.14437103271484 30.0 1.000 1.000 1.000
v -137.8220180273056 67.14437103271484 28.0 1.000 1.000 1.000
v -97.8220180273056 73.14437103271484 -59.0 1.000 1.000 1.000
v 104.1779819726944 74.14437103271484 -62.0 1.000 1.000 1.000
v 143.1779819726944 69.14437103271484 30.0 1.000 1.000 1.000
v -131.0 77.0 141.0 1.000 1.000 1.000
v -147.0 -199.0 132.0 1.000 1.000 1.000
v 147.0 -198.0 143.0 1.000 1.000 1.000
v 135.0 78.0 141.0 1.000 1.000 1.000
v -142.0 72.0 -35.0 1.000 1.000 1.000
v 135.0 78.0 141.0 1.000 1.000 1.000
v 138.0 73.0 -37.0 1.000 1.000 1.000
v -131.0 77.0 141.0 1.000 1.000 1.000
v 178.0 -198.0 -80.0 1.000 1.000 1.000
v 147.0 -198.0 143.0 1.000 1.000 1.000
v -147.0 -199.0 132.0 1.000 1.000 1.000
v -181.0 -199.0 -80.0 1.000 1.000 1.000
v -181.0 -199.0 -80.0 1.000 1.000 1.000
v -142.0 72.0 -35.0 1.000 1.000 1.000
v 138.0 73.0 -37.0 1.000 1.000 1.000
v 178.0 -198.0 -80.0 1.000 1.000 1.000
v -147.0 -199.0 132.0 1.000 1.000 1.000
v -142.0 72.0 -35.0 1.000 1.000 1.000
v -181.0 -199.0 -80.0 1.000 1.000 1.000
v -131.0 77.0 141.0 1.000 1.000 1.000
v 178.0 -198.0 -80.0 1.000 1.000 1.000
v 138.0 73.0 -37.0 1.000 1.000 1.000
v 147.0 -198.0 143.0 1.000 1.000 1.000
v 135.0 78.0 141.0 1.000 1.000 1.000
vt 0.9658 0.1816
vt 0.9287 0.9049
vt 0.9277 0.9245
vt 0.9678 0.1536
vt 0.0918 0.7096
vt 0.6318 0.2122
vt 0.5684 0.1387
vt 0.0605 0.7956
vt 0.0820 0.8737
vt 0.0693 0.6595
vt 0.0000 1.0000
vt -0.0078 1.0065
vt 0.9688 1.0026
vt 1.0771 0.1999
vt -0.3633 0.2266
vt 0.4463 0.9486
vt 0.4062 0.2012
vt 0.1240 0.1491
vt 0.2666 0.9486
vt 0.6309 0.9375
vt 0.9189 0.1536
vt 0.6152 0.2044
vt 0.8203 0.9382
vt 0.9258 1.9173
vt 0.8164 1.4342
vt 0.6855 1.9258
vt 0.9922 1.4655
vt 0.8545 1.9310
vt 0.8223 1.4577
vt 0.6865 1.9264
vt 0.6748 1.4440
vt 0.7158 0.9831
vt 0.6133 0.2591
vt 0.5420 0.9831
vt 0.6699 0.9421
vt 0.6982 0.2500
vt 0.9629 0.2467
vt 0.3896 0.2500
vt 0.5088 0.9395
vt 0.6885 0.7956
vt 0.5195 0.8893
vt 0.6787 1.0046
vt 0.9355 1.0397
vt 0.5361 1.1615
vt 0.8643 0.7526
vt 0.5273 1.1576
vt 0.5068 0.8802
vt 0.5830 0.8698
vt 0.7529 0.9850
vt 0.8379 0.7376
vt 0.9111 1.0293
vt 1.0146 0.9870
vt 0.8857 0.9264
vt 0.6885 1.1322
vt 0.8096 0.9375
vt 0.5625 -0.2637
vt 0.4180 -0.2637
vt 0.6650 -0.2630
vt 0.9658 -0.2624
vt 0.9355 0.9701
vt 0.9355 0.9518
vt 0.9639 0.1706
vt 0.9648 0.1432
vt 0.6250 0.2266
vt 0.0713 0.7962
vt 0.0498 0.8913
vt 0.5557 0.1517
vt 0.0742 0.9727
vt 0.0576 0.7441
vt -0.1455 0.1966
vt 0.0674 0.9967
vt 0.8545 0.9954
vt 1.0781 0.2090
vt 0.6133 0.9694
vt 0.9131 0.9049
vt 0.9395 0.0905
vt 0.7646 0.0996
vt 0.1338 0.8828
vt 0.4023 0.9382
vt 0.1230 0.0879
vt 1.1338 0.8828
vt 1.1230 0.0879
vt 0.3252 0.0892
vt 0.4844 2.2904
vt 0.3223 1.7103
vt 0.0977 2.3086
vt 0.0469 1.7708
vt 0.3262 1.7376
vt 0.1914 2.3216
vt 0.5537 1.7031
vt 0.4883 2.2910
vt 0.5508 0.9792
vt 0.4980 0.3197
vt 0.3135 0.9772
vt 0.0215 0.3047
vt 0.3818 0.3112
vt 0.3779 0.9395
vt 0.8037 0.3145
vt 0.5986 0.9401
vt 0.3574 1.0091
vt 0.3389 0.7962
vt 0.0957 1.0482
vt 0.5068 1.1621
vt 0.1719 0.7370
vt 0.4209 0.8730
vt 0.4990 1.1582
vt 0.3311 0.9883
vt 0.0996 1.0469
vt 0.1689 0.7292
vt 0.3574 1.0840
vt 0.0488 1.1921
vt 0.5664 1.3255
vt 0.3828 1.1068
vt 0.7979 -0.1530
vt 0.5996 -0.1543
vt 0.4600 -0.1549
vt 0.0488 -0.1576
vt 0.0072 1.1514
vt 0.1296 0.6865
vt 0.1556 1.2490
vt 0.0508 1.3818
vt 0.5013 1.1367
vt 0.4974 0.4746
vt 0.8483 1.2354
vt 0.8385 0.6719
vt 0.0195 1.0254
vt 0.1589 0.3428
vt 0.4961 0.1533
vt 0.8346 0.3291
vt 0.0234 0.9785
vt 0.1569 0.2559
vt 0.4922 0.0391
vt 0.8301 0.2422
vt 0.9564 0.9541
vt 0.8320 0.3174
vt 0.9564 0.9668
vt 0.0228 0.9736
vt 0.1556 0.3311
vt 0.4928 0.1338
vt 0.0247 1.0742
vt 0.1185 0.5820
vt 0.4935 0.2861
vt 0.8717 0.5664
vt -0.0085 1.3105
vt 0.1283 0.7646
vt 0.4954 0.6094
vt 0.8639 0.7490
vt 0.1159 1.0137
vt 0.1374 0.9502
vt -0.0085 0.6895
vt 0.4974 0.9395
vt 0.8789 0.9980
vt 0.9590 1.0078
vt 0.9635 1.1396
vt 0.9473 1.3584
vt 0.9583 1.0566
vt 0.9870 1.2930
vt 0.5205 0.3711
vt 0.8730 0.0947
vt 0.4932 0.0845
vt 0.4619 0.3716
vt 0.4756 0.5342
vt 0.7090 0.7480
vt 0.3779 0.7612
vt 0.5400 0.7788
vt 0.1895 0.3696
vt 0.4385 0.5547
vt 0.5713 0.5327
vt 0.8037 0.3604
vt 0.6133 0.5518
vt 0.1240 0.1108
vt 0.5420 0.7783
vt 0.2100 0.8042
vt 0.4873 0.7275
vt 0.2588 0.3799
vt 0.2627 0.3784
vt 0.2285 0.0972
vt 0.5596 0.3457
vt 0.6436 0.5625
vt 0.4805 0.7202
vt 0.8916 0.1470
vt 0.5674 0.3613
vt 0.2217 0.0933
vt 0.6543 0.5669
vt 0.9131 0.6226
vt 0.9072 0.1533
vt 0.8936 0.6162
vt 0.2129 0.8110
vt 0.4570 0.8169
vt 0.4639 0.8203
vt 0.3854 0.7764
vt 0.4219 0.7041
vt 0.1452 0.8418
vt 0.1211 0.8936
vt 0.4453 0.5752
vt 0.5195 0.5723
vt 0.5020 0.1885
vt 0.8477 0.2119
vt 0.7943 0.8086
vt 0.8132 0.8584
vt 0.9102 0.1201
vt 0.5085 0.0566
vt 0.0983 0.1621
vt 0.1517 0.2461
vt 0.5326 0.7100
vt 0.5605 0.7676
vt 0.9069 0.2529
vt 0.8040 0.1377
vt 0.7865 0.8643
vt 0.4701 0.8398
vt 0.4655 0.0439
vt 0.1543 0.8604
vt 0.1283 0.1338
vt 0.0306 0.5615
vt 0.0339 0.2432
vt 0.7461 0.3281
vt 0.4551 0.5010
vt 0.8135 0.4570
vt 0.4531 0.9395
vt 0.8242 0.6777
vt 0.8604 0.8506
vt 0.2588 0.8564
vt 0.4023 0.4746
vt 0.3135 0.3066
vt 0.3828 0.2471
vt 0.1660 0.4600
vt 0.0918 0.6338
vt -0.0410 0.5557
vt 0.1465 0.6025
vt -0.0020 0.2480
vt 0.0898 0.4092
vt 0.5879 0.2588
vt 0.4629 0.2344
vt 0.0293 0.2891
vt 0.9834 0.8740
vt 0.3994 0.2383
vt 0.4893 0.2432
vt 0.6201 0.2734
vt 0.3008 0.2891
vt 0.8076 0.4717
vt 0.7725 0.3457
vt 0.1816 0.7153
vt 0.2471 0.7803
vt 0.5674 0.9316
vt 0.9043 5.5156
vt 0.3750 5.6592
vt 0.8213 5.7065
vt 0.3320 0.9136
vt 0.4541 0.7744
vt 0.4355 0.7285
vt 0.2344 5.5156
vt 0.1992 0.7861
vt 0.2139 0.0415
vt 0.3936 0.1172
vt 0.1572 0.2808
vt 0.3828 0.3120
vt 0.1191 0.1006
vt 0.8682 0.7856
vt 0.8281 0.1235
vt 0.2012 0.7637
vt 0.5986 0.0435
vt 0.6064 0.2822
vt 0.6348 0.7769
vt 0.0534 0.8223
vt 0.9479 0.8242
vt 1.0111 -0.0303
vt 0.0046 -0.0303
vt -0.1914 1.3926
vt 1.1862 1.3887
vt 0.9264 0.1992
vt -0.0111 0.1992
vt 0.7129 0.2826
vt 0.8975 0.2747
vt 0.9492 0.0039
vt 0.7939 0.0111
vt 0.2920 0.7598
vt 0.7080 0.7588
vt 0.9072 0.1382
vt 0.1123 0.1289
vt 0.2764 0.0688
vt 0.8770 0.1543
vt 0.9062 0.7080
vt 0.2930 0.8374
vt 0.2305 0.8242
vt 0.8125 0.7007
vt 0.8730 0.1567
vt 0.3350 0.0693
vt 0.1582 0.4019
vt 0.0791 0.2109
vt 0.6963 0.0679
vt 0.7695 0.2456
vt 0.2842 0.7949
vt 0.7324 0.7964
vt 0.8818 0.1235
vt 0.2100 0.1255
vt 0.5088 0.9961
vt 0.4873 0.4564
vt 0.1201 0.2415
vt 0.7695 0.1549
vt 0.9736 0.5124
vt 0.7451 0.6966
vt 0.9414 0.2493
vt 0.1113 0.5111
vt 0.1670 0.1452
vt 0.2363 0.6888
vt -0.1758 0.1387
vt 0.4023 0.6895
vt -0.1055 0.6816
vt 0.4268 0.1478
vt 0.9307 0.2188
vt 0.7773 0.8105
vt 0.0430 -0.0488
vt 0.0576 0.8066
vt 0.2139 0.8789
vt 0.8174 0.7822
vt 0.1621 0.3877
vt 0.7471 0.1963
vt 0.1836 0.4248
vt 0.6885 0.1162
vt 0.3809 0.9541
vt 0.7881 0.9521
vt 0.7236 0.0127
vt 1.0479 0.9600
vt 0.2354 0.1631
vt 0.1104 0.9248
vt 0.0459 0.2373
vt 0.3760 1.2803
vt 0.9824 0.1826
vt 0.9355 1.1211
vt -0.0579 0.7432
vt 0.2754 0.4619
vt 0.2943 0.8857
vt 0.2936 0.9014
vt -0.0592 0.7607
vt 0.2852 0.5205
vt 0.2826 0.2324
vt -0.0703 0.4463
vt -0.0710 0.5166
vt 0.4206 0.2900
vt 0.4212 0.4805
vt 0.4284 0.7725
vt 0.4284 0.7324
vt 0.4206 0.3076
vt 0.9915 0.8271
vt 0.5540 0.2842
vt 0.5358 0.9238
vt 0.5352 0.9414
vt 0.9915 0.7852
vt 0.5553 0.2051
vt 1.0013 0.4258
vt 0.9993 0.5303
vt 0.5146 0.3529
vt 0.6934 -0.3763
vt -0.1875 -0.1367
vt 1.3350 0.3294
vt -0.1943 0.6602
vt 0.7057 0.7256
vt 0.6888 0.7529
vt 0.5618 0.6787
vt 0.5684 0.4072
vt 0.8444 0.3799
vt 0.8711 0.4102
vt 0.9316 0.2070
vt 0.6947 0.3594
vt 0.5768 0.7520
vt 0.7096 0.7656
vt 0.6908 0.7852
vt 0.9603 0.6826
vt 1.0007 0.6689
vt 0.9245 0.6963
vt 0.9453 1.1133
vt 0.5381 1.0970
vt 0.0713 1.0859
vt 0.0397 0.8809
vt -0.0130 0.8965
vt 0.1413 0.1943
vt 0.1354 0.1055
vt 0.9941 0.7900
vt 0.0957 0.1621
vt -0.0234 0.7451
vt 0.9199 -0.0186
vt 0.0918 0.3965
vt 0.7803 0.9688
vt 0.2617 1.0420
vt 0.7783 0.1641
vt 0.3223 1.0107
vt 0.7930 0.0889
vt 0.1709 0.3936
vt 0.7432 0.9756
vt 0.0498 0.1924
vt 0.9854 0.9561
vt 0.5459 0.0889
vt 0.1123 0.9189
vt 0.9844 0.2686
vt 0.2900 1.1738
vt 0.0361 0.2285
vt 0.8662 1.0850
vt 0.6569 0.1865
vt 0.6719 0.4932
vt 0.9850 0.1416
vt 0.9850 0.1748
vt 0.6576 0.1719
vt 0.6628 0.4434
vt 0.9883 0.4512
vt 0.6647 0.6973
vt 0.9896 0.4053
vt 0.5391 0.6660
vt 0.5384 0.4980
vt 0.5339 0.2402
vt 0.5332 0.2754
vt 0.5391 0.6504
vt 0.5378 0.1426
vt 0.5410 0.8906
vt 0.9772 0.3779
vt 0.9772 0.4268
vt 0.5378 0.1221
vt 0.9779 0.8467
vt 0.5397 0.9834
vt 0.9785 0.7256
vt 0.4121 0.3369
vt 0.2995 0.2891
vt 0.2839 0.3164
vt 0.1556 0.6406
vt 0.4056 0.5771
vt 0.2904 0.6377
vt 0.0755 0.8066
vt 0.1322 0.6182
vt 0.3991 0.2744
vt 0.3073 0.8799
vt 0.2799 0.2637
vt 0.3014 0.2471
vt 0.0508 0.3896
vt 0.0195 0.3975
vt 0.0853 0.3760
vt 0.1387 0.8838
vt 0.0553 0.0596
vt 0.0052 0.0273
vt 0.1309 0.9863
vt 1.0049 0.1029
vt 0.6543 0.0208
vt 0.5205 0.1068
vt 0.0635 0.1693
vt 0.5205 0.3001
vt 1.0029 0.1589
vt 0.9023 0.3145
vt 0.1699 0.3216
vt 0.1504 0.5111
vt 0.3369 0.4974
vt 0.0674 0.1159
vt 0.4014 0.0234
vt 0.7119 0.4935
vt 0.0791 0.3438
vt 0.0752 0.3268
vt 1.0000 0.3177
vt 0.9082 0.5046
vt 0.9932 0.3320
vt 0.5029 0.3522
vt 0.7676 0.4837
vt 0.2354 0.4967
vt 0.3408 0.1432
vt 0.2754 0.3444
vt 0.7246 0.3359
vt 0.9561 0.3073
vt 0.9639 0.1042
vt 0.6885 0.1341
vt 0.4160 0.0299
vt 0.5596 0.0280
vt 0.0557 0.1237
vt 0.1445 0.4993
vt 0.0723 0.3294
vt 0.8760 0.4837
vt -0.0479 0.0150
vt 0.9600 1.0150
vt 0.1621 0.8945
vt 0.3027 1.0592
vt 1.0000 0.0000
vt 1.0000 1.0000
vt -0.1309 0.0026
vt 0.7139 0.5931
vt 0.3301 0.6009
vt 0.1895 0.5938
vt 0.8623 0.5833
vt 0.1836 0.5827
vt 0.2754 0.5710
vt 0.7412 0.5592
vt 0.8330 0.5645
vt 0.9619 0.1204
vt -0.0332 0.0684
vt 0.0186 0.1257
vt 0.1455 0.6094
vt 0.8438 0.6087
vt 1.0137 0.0651
vt 0.1182 0.6165
vt 0.8516 0.6152
vt 0.0195 0.0378
vt 0.1426 0.5104
vt 0.8867 0.5098
vt 0.9854 0.0378
vt 0.9268 0.5046
vt 0.6074 0.4870
vt 1.0273 0.0111
vt 0.7891 0.5306
vt 1.0107 0.0527
vt 0.0605 0.5371
vt 0.6250 0.0488
vt 0.1074 0.1139
vt 0.8496 0.6484
vt 0.6826 0.6595
vt 0.1992 0.6589
vt 0.3477 0.6667
vt 0.2832 0.6374
vt 0.1943 0.6491
vt 0.7100 0.6257
vt 0.8223 0.6315
vt 0.5010 0.7812
vt 0.5010 0.8809
vt 0.1914 0.6094
vt 0.1045 0.9948
vt 0.8809 0.9941
vt 0.7959 0.6087
vt 0.1680 0.6165
vt 0.8027 0.6152
vt 0.9619 0.9941
vt 0.0137 0.9954
vt 0.9287 0.8490
vt 0.8359 0.5098
vt 0.1924 0.5104
vt 0.1025 0.8509
vt 0.6025 0.8372
vt 0.9248 0.5026
vt 0.9893 0.8522
vt 0.6055 0.4850
vt 0.9121 0.8587
vt 0.7881 0.5299
vt -0.0049 0.8724
vt 0.0596 0.5365
vn -0.577 -0.577 -0.577
vn 0.577 0.577 0.577
vn 0.577 0.577 0.577
vn -0.577 -0.577 -0.577
vn 0.577 0.577 0.577
vn -0.577 -0.577 -0.577
vn -0.577 -0.577 -0.577
vn 0.577 0.577 0.577
vn 0.577 0.577 0.577
vn 0.577 0.577 0.577
vn 0.577 0.577 0.577
vn 0.577 0.577 0.577
vn 0.577 0.577 0.577
vn 0.577 0.577 0.577
vn 0.577 0.577 0.577
vn 0.577 0.577 0.577
vn 0.577 0.577 0.577
vn 0.577 0.577 0.577
vn 0.577 0.577 0.577
vn 0.577 0.577 0.577
vn 0.577 0.577 0.577
vn 0.577 0.577 0.577
vn 0.577 0.577 0.577
vn 0.577 0.577 0.577
vn 0.577 0.577 0.577
vn 0.577 0.577 0.577
vn 0.577 0.577 0.577
vn 0.577 0.577 0.577
vn 0.577 0.577 0.577
vn 0.577 0.577 0.577
vn 0.577 0.577 0.577
vn -0.577 -0.577 -0.577
vn -0.577 -0.577 -0.577
vn -0.577 -0.577 -0.577
vn 0.577 0.577 0.577
vn 0.577 0.577 0.577
vn 0.577 0.577 0.577
vn 0.577 0.577 0.577
vn 0.577 0.577 0.577
vn 0.577 0.577 0.577
vn -0.577 -0.577 -0.577
vn 0.577 0.577 0.577
vn 0.577 0.577 0.577
vn -0.577 -0.577 -0.577
vn 0.577 0.577 0.577
vn -0.577 -0.577 -0.577
vn 0.577 0.577 0.577
vn -0.577 -0.577 -0.577
vn -0.577 -0.577 -0.577
vn -0.577 -0.577 -0.577
vn 0.577 0.577 0.577
vn 0.577 0.577 0.577
vn 0.577 0.577 0.577
vn -0.577 -0.577 -0.577
vn 0.577 0.577 0.577
vn -0.577 -0.577 -0.577
vn 0.577 0.577 0.577
vn 0.577 0.577 0.577
vn 0.577 0.577 0.577
vn -0.577 -0.577 -0.577
vn 0.577 0.577 0.577
vn 0.577 0.577 0.577
vn -0.577 -0.577 -0.577
vn 0.577 0.577 0.577
vn -0.577 -0.577 -0.577
vn -0.577 -0.577 -0.577
vn -0.577 -0.577 -0.577
vn -0.577 -0.577 -0.577
vn 0.577 0.577 0.577
vn -0.577 -0.577 -0.577
vn -0.577 -0.577 -0.577
vn -0.577 -0.577 -0.577
vn -0.577 -0.577 -0.577
vn -0.577 -0.577 -0.577
vn 0.577 0.577 0.577
vn 0.577 0.577 0.577
vn -0.577 -0.577 -0.577
vn -0.577 -0.577 -0.577
vn -0.577 -0.577 -0.577
vn -0.577 -0.577 -0.577
vn -0.577 -0.577 -0.577
vn -0.577 -0.577 -0.577
vn -0.577 -0.577 -0.577
vn 0.577 0.577 0.577
vn 0.577 0.577 0.577
vn -0.577 -0.577 -0.577
vn -0.577 -0.577 -0.577
vn -0.577 -0.577 -0.577
vn 0.577 0.577 0.577
vn 0.577 0.577 0.577
vn -0.577 -0.577 -0.577
vn 0.577 0.577 0.577
vn 0.577 0.577 0.577
vn 0.577 0.577 0.577
vn 0.577 0.577 0.577
vn 0.577 0.577 0.577
vn 0.577 0.577 0.577
vn 0.577 0.577 0.577
vn 0.577 0.577 0.577
vn 0.577 0.577 0.577
vn 0.577 0.577 0.577
vn 0.577 0.577 0.577
vn 0.577 0.577 0.577
vn 0.577 0.577 0.577
vn 0.577 0.577 0.577
vn 0.577 0.577 0.577
vn 0.577 0.577 0.577
vn 0.577 0.577 0.577
vn 0.577 0.577 0.577
vn 0.577 0.577 0.577
vn 0.577 0.577 0.577
vn 0.577 0.577 0.577
vn 0.577 0.577 0.577
vn 0.577 0.577 0.577
vn 0.577 0.577 0.577
vn -0.577 -0.577 -0.577
vn -0.577 -0.577 -0.577
vn -0.577 -0.577 -0.577
vn 0.577 0.577 0.577
vn 0.577 0.577 0.577
vn 0.577 0.577 0.577
vn 0.577 0.577 0.577
vn 0.577 0.577 0.577
vn 0.577 0.577 0.577
vn -0.577 -0.577 -0.577
vn 0.577 0.577 0.577
vn 0.577 0.577 0.577
vn -0.577 -0.577 -0.577
vn 0.577 0.577 0.577
vn -0.577 -0.577 -0.577
vn 0.577 0.577 0.577
vn -0.577 -0.577 -0.577
vn -0.577 -0.577 -0.577
vn 0.577 0.577 0.577
vn -0.577 -0.577 -0.577
vn 0.577 0.577 0.577
vn -0.577 -0.577 -0.577
vn 0.577 0.577 0.577
vn 0.577 0.577 0.577
vn -0.577 -0.577 -0.577
vn 0.577 0.577 0.577
vn 0.577 0.577 0.577
vn 0.577 0.577 0.577
vn -0.577 -0.577 -0.577
vn 0.577 0.577 0.577
vn -0.577 -0.577 -0.577
vn 0.577 0.577 0.577
vn 0.577 0.577 0.577
vn -0.577 -0.577 -0.577
vn -0.577 -0.577 -0.577
vn -0.577 -0.577 -0.577
vn -0.577 -0.577 -0.577
vn 0.577 0.577 0.577
vn -0.577 -0.577 -0.577
vn -0.577 -0.577 -0.577
vn -0.577 -0.577 -0.577
vn -0.577 -0.577 -0.577
vn -0.577 -0.577 -0.577
vn -0.577 -0.577 -0.577
vn 0.577 0.577 0.577
vn 0.577 0.577 0.577
vn -0.577 -0.577 -0.577
vn -0.577 -0.577 -0.577
vn -0.577 -0.577 -0.577
vn -0.577 -0.577 -0.577
vn -0.577 -0.577 -0.577
vn -0.577 -0.577 -0.577
vn -0.577 -0.577 -0.577
vn -0.577 -0.577 -0.577
vn -0.577 -0.577 -0.577
vn -0.577 -0.577 -0.577
vn -0.577 -0.577 -0.577
vn -0.577 -0.577 -0.577
vn -0.577 -0.577 -0.577
vn -0.577 -0.577 -0.577
vn -0.577 -0.577 -0.577
vn -0.577 -0.577 -0.577
vn -0.577 -0.577 -0.577
vn -0.577 -0.577 -0.577
vn -0.577 -0.577 -0.577
vn -0.577 -0.577 -0.577
vn -0.577 -0.577 -0.577
vn -0.577 -0.577 -0.577
vn -0.577 -0.577 -0.577
vn -0.577 -0.577 -0.577
vn -0.577 -0.577 -0.577
vn -0.577 -0.577 -0.577
vn -0.577 -0.577 -0.577
vn -0.577 -0.577 -0.577
vn -0.577 -0.577 -0.577
vn -0.577 -0.577 -0.577
vn -0.577 -0.577 -0.577
vn -0.577 -0.577 -0.577
vn -0.577 -0.577 -0.577
vn -0.577 -0.577 -0.577
vn -0.577 -0.577 -0.577
vn -0.577 -0.577 -0.577
vn -0.577 -0.577 -0.577
vn -0.577 -0.577 -0.577
vn -0.577 -0.577 -0.577
vn -0.577 -0.577 -0.577
vn -0.577 -0.577 -0.577
vn -0.577 -0.577 -0.577
vn -0.577 -0.577 -0.577
vn -0.577 -0.577 -0.577
vn -0.577 -0.577 -0.577
vn -0.577 -0.577 -0.577
vn -0.577 -0.577 -0.577
vn -0.577 -0.577 -0.577
vn -0.577 -0.577 -0.577
vn -0.577 -0.577 -0.577
vn -0.577 -0.577 -0.577
vn -0.577 -0.577 -0.577
vn -0.577 -0.577 -0.577
vn -0.577 -0.577 -0.577
vn -0.577 -0.577 -0.577
vn -0.577 -0.577 -0.577
vn -0.577 -0.577 -0.577
vn -0.577 -0.577 -0.577
vn -0.577 -0.577 -0.577
vn -0.577 -0.577 -0.577
vn -0.577 -0.577 -0.577
vn -0.577 -0.577 -0.577
vn -0.577 -0.577 -0.577
vn -0.577 -0.577 -0.577
vn -0.577 -0.577 -0.577
vn -0.577 -0.577 -0.577
vn -0.577 -0.577 -0.577
vn -0.577 -0.577 -0.577
vn -0.577 -0.577 -0.577
vn -0.577 -0.577 -0.577
vn -0.577 -0.577 -0.577
vn -0.577 -0.577 -0.577
vn -0.577 -0.577 -0.577
vn -0.577 -0.577 -0.577
vn -0.577 -0.577 -0.577
vn -0.577 -0.577 -0.577
vn -0.577 -0.577 -0.577
vn -0.577 -0.577 -0.577
vn -0.577 -0.577 -0.577
vn -0.577 -0.577 -0.577
vn -0.577 -0.577 -0.577
vn -0.577 -0.577 -0.577
vn -0.577 -0.577 -0.577
vn -0.577 -0.577 -0.577
vn -0.577 -0.577 -0.577
vn -0.577 -0.577 -0.577
vn -0.577 -0.577 -0.577
vn -0.577 -0.577 -0.577
vn -0.577 -0.577 -0.577
vn -0.577 -0.577 -0.577
vn -0.577 -0.577 -0.577
vn -0.577 -0.577 -0.577
vn -0.577 -0.577 -0.577
vn -0.577 -0.577 -0.577
vn -0.577 -0.577 -0.577
vn -0.577 -0.577 -0.577
vn -0.577 -0.577 -0.577
vn -0.577 -0.577 -0.577
vn -0.577 -0.577 -0.577
vn -0.577 -0.577 -0.577
vn -0.577 -0.577 -0.577
vn -0.577 -0.577 -0.577
vn -0.577 -0.577 -0.577
vn -0.577 -0.577 -0.577
vn -0.577 -0.577 -0.577
vn -0.577 -0.577 -0.577
vn -0.577 -0.577 -0.577
vn -0.577 -0.577 -0.577
vn -0.577 -0.577 -0.577
vn -0.577 -0.577 -0.577
vn -0.577 -0.577 -0.577
vn -0.577 -0.577 -0.577
vn -0.577 -0.577 -0.577
vn -0.577 -0.577 -0.577
vn -0.577 -0.577 -0.577
vn -0.577 -0.577 -0.577
vn -0.577 -0.577 -0.577
vn -0.577 -0.577 -0.577
vn -0.577 -0.577 -0.577
vn -0.577 -0.577 -0.577
vn -0.577 -0.577 -0.577
vn -0.577 -0.577 -0.577
vn -0.577 -0.577 -0.577
vn -0.577 -0.577 -0.577
vn -0.577 -0.577 -0.577
vn -0.577 -0.577 -0.577
vn -0.577 -0.577 -0.577
vn -0.577 -0.577 -0.577
vn -0.577 -0.577 -0.577
vn -0.577 -0.577 -0.577
vn -0.577 -0.577 -0.577
vn -0.577 -0.577 -0.577
vn -0.577 -0.577 -0.577
vn -0.577 -0.577 -0.577
vn -0.577 -0.577 -0.577
vn -0.577 -0.577 -0.577
vn -0.577 -0.577 -0.577
vn -0.577 -0.577 -0.577
vn -0.577 -0.577 -0.577
vn -0.577 -0.577 -0.577
vn -0.577 -0.577 -0.577
vn -0.577 -0.577 -0.577
vn -0.577 -0.577 -0.577
vn -0.577 -0.577 -0.577
vn -0.577 -0.577 -0.577
vn -0.577 -0.577 -0.577
vn -0.577 -0.577 -0.577
vn -0.577 -0.577 -0.577
vn -0.577 -0.577 -0.577
vn -0.577 -0.577 -0.577
vn -0.577 -0.577 -0.577
vn -0.577 -0.577 -0.577
vn -0.577 -0.577 -0.577
vn -0.577 -0.577 -0.577
vn -0.577 -0.577 -0.577
vn -0.577 -0.577 -0.577
vn -0.577 -0.577 -0.577
vn -0.577 -0.577 -0.577
vn -0.577 -0.577 -0.577
vn -0.577 -0.577 -0.577
vn -0.577 -0.577 -0.577
vn -0.577 -0.577 -0.577
vn -0.577 -0.577 -0.577
vn -0.577 -0.577 -0.577
vn -0.577 -0.577 -0.577
vn -0.577 -0.577 -0.577
vn -0.577 -0.577 -0.577
vn -0.577 -0.577 -0.577
vn -0.577 -0.577 -0.577
vn -0.577 -0.577 -0.577
vn -0.577 -0.577 -0.577
vn -0.577 -0.577 -0.577
vn -0.577 -0.577 -0.577
vn -0.577 -0.577 -0.577
vn -0.577 -0.577 -0.577
vn -0.577 -0.577 -0.577
vn -0.577 -0.577 -0.577
vn -0.577 -0.577 -0.577
vn -0.577 -0.577 -0.577
vn -0.577 -0.577 -0.577
vn -0.577 -0.577 -0.577
vn -0.577 -0.577 -0.577
vn -0.577 -0.577 -0.577
vn -0.577 -0.577 -0.577
vn -0.577 -0.577 -0.577
vn -0.577 -0.577 -0.577
vn -0.577 -0.577 -0.577
vn -0.577 -0.577 -0.577
vn -0.577 -0.577 -0.577
vn -0.577 -0.577 -0.577
vn -0.577 -0.577 -0.577
vn -0.577 -0.577 -0.577
vn -0.577 -0.577 -0.577
vn -0.577 -0.577 -0.577
vn -0.577 -0.577 -0.577
vn -0.577 -0.577 -0.577
vn -0.577 -0.577 -0.577
vn -0.577 -0.577 -0.577
vn -0.577 -0.577 -0.577
vn -0.577 -0.577 -0.577
vn -0.577 -0.577 -0.577
vn -0.577 -0.577 -0.577
vn -0.577 -0.577 -0.577
vn -0.577 -0.577 -0.577
vn -0.577 -0.577 -0.577
vn -0.577 -0.577 -0.577
vn -0.577 -0.577 -0.577
vn -0.577 -0.577 -0.577
vn -0.577 -0.577 -0.577
vn -0.577 -0.577 -0.577
vn -0.577 -0.577 -0.577
vn -0.577 -0.577 -0.577
vn -0.577 -0.577 -0.577
vn -0.577 -0.577 -0.577
vn -0.577 -0.577 -0.577
vn -0.577 -0.577 -0.577
vn -0.577 -0.577 -0.577
vn -0.577 -0.577 -0.577
vn -0.577 -0.577 -0.577
vn -0.577 -0.577 -0.577
vn -0.577 -0.577 -0.577
vn -0.577 -0.577 -0.577
vn -0.577 -0.577 -0.577
vn -0.577 -0.577 -0.577
vn -0.577 -0.577 -0.577
vn -0.577 -0.577 -0.577
vn -0.577 -0.577 -0.577
vn -0.577 -0.577 -0.577
vn -0.577 -0.577 -0.577
vn -0.577 -0.577 -0.577
vn -0.577 -0.577 -0.577
vn -0.577 -0.577 -0.577
vn -0.577 -0.577 -0.577
vn -0.577 -0.577 -0.577
vn -0.577 -0.577 -0.577
vn -0.577 -0.577 -0.577
vn -0.577 -0.577 -0.577
vn -0.577 -0.577 -0.577
vn -0.577 -0.577 -0.577
vn -0.577 -0.577 -0.577
vn -0.577 -0.577 -0.577
vn -0.577 -0.577 -0.577
vn -0.577 -0.577 -0.577
vn -0.577 -0.577 -0.577
vn -0.577 -0.577 -0.577
vn -0.577 -0.577 -0.577
vn -0.577 -0.577 -0.577
vn -0.577 -0.577 -0.577
vn -0.577 -0.577 -0.577
vn -0.577 -0.577 -0.577
vn -0.577 -0.577 -0.577
vn -0.577 -0.577 -0.577
vn -0.577 -0.577 -0.577
vn -0.577 -0.577 -0.577
vn -0.577 -0.577 -0.577
vn -0.577 -0.577 -0.577
vn -0.577 -0.577 -0.577
vn -0.577 -0.577 -0.577
vn -0.577 -0.577 -0.577
vn -0.577 -0.577 -0.577
vn -0.577 -0.577 -0.577
vn -0.577 -0.577 -0.577
vn -0.577 -0.577 -0.577
vn -0.577 -0.577 -0.577
vn -0.577 -0.577 -0.577
vn -0.577 -0.577 -0.577
vn -0.577 -0.577 -0.577
vn -0.577 -0.577 -0.577
vn -0.577 -0.577 -0.577
vn -0.577 -0.577 -0.577
vn -0.577 -0.577 -0.577
vn -0.577 -0.577 -0.577
vn -0.577 -0.577 -0.577
vn -0.577 -0.577 -0.577
vn -0.577 -0.577 -0.577
vn -0.577 -0.577 -0.577
vn -0.577 -0.577 -0.577
vn -0.577 -0.577 -0.577
vn -0.577 -0.577 -0.577
vn -0.577 -0.577 -0.577
vn -0.577 -0.577 -0.577
vn -0.577 -0.577 -0.577
vn -0.577 -0.577 -0.577
vn -0.577 -0.577 -0.577
vn -0.577 -0.577 -0.577
vn -0.577 -0.577 -0.577
vn -0.577 -0.577 -0.577
vn -0.577 -0.577 -0.577
vn -0.577 -0.577 -0.577
vn -0.577 -0.577 -0.577
vn -0.577 -0.577 -0.577
vn -0.577 -0.577 -0.577
vn -0.577 -0.577 -0.577
vn -0.577 -0.577 -0.577
vn -0.577 -0.577 -0.577
vn -0.577 -0.577 -0.577
vn -0.577 -0.577 -0.577
vn -0.577 -0.577 -0.577
vn 0.577 0.577 0.577
vn -0.577 -0.577 -0.577
vn -0.577 -0.577 -0.577
vn -0.577 -0.577 -0.577
vn 0.577 0.577 0.577
vn 0.577 0.577 0.577
vn 0.577 0.577 0.577
vn 0.577 0.577 0.577
vn -0.577 -0.577 -0.577
vn -0.577 -0.577 -0.577
vn -0.577 -0.577 -0.577
vn -0.577 -0.577 -0.577
vn -0.577 -0.577 -0.577
vn -0.577 -0.577 -0.577
vn -0.577 -0.577 -0.577
vn 0.577 0.577 0.577
vn 0.577 0.577 0.577
vn -0.577 -0.577 -0.577
vn -0.577 -0.577 -0.577
vn -0.577 -0.577 -0.577
vn -0.577 -0.577 -0.577
vn -0.577 -0.577 -0.577
vn -0.577 -0.577 -0.577
vn -0.577 -0.577 -0.577
vn 0.577 0.577 0.577
vn 0.577 0.577 0.577
vn -0.577 -0.577 -0.577
vn -0.577 -0.577 -0.577
vn -0.577 -0.577 -0.577
vn 0.577 0.577 0.577
vn 0.577 0.577 0.577
vn -0.577 -0.577 -0.577
vn -0.577 -0.577 -0.577
vn -0.577 -0.577 -0.577
vn -0.577 -0.577 -0.577
vn -0.577 -0.577 -0.577
vn -0.577 -0.577 -0.577
vn -0.577 -0.577 -0.577
vn -0.577 -0.577 -0.577
vn -0.577 -0.577 -0.577
vn -0.577 -0.577 -0.577
vn -0.577 -0.577 -0.577
vn -0.577 -0.577 -0.577
vn -0.577 -0.577 -0.577
vn -0.577 -0.577 -0.577
vn -0.577 -0.577 -0.577
vn -0.577 -0.577 -0.577
vn -0.577 -0.577 -0.577
vn -0.577 -0.577 -0.577
vn -0.577 -0.577 -0.577
vn -0.577 -0.577 -0.577
vn -0.577 -0.577 -0.577
vn -0.577 -0.577 -0.577
vn -0.577 -0.577 -0.577
vn 0.577 0.577 0.577
vn -0.577 -0.577 -0.577
vn -0.577 -0.577 -0.577
vn -0.577 -0.577 -0.577
vn -0.577 -0.577 -0.577
vn -0.577 -0.577 -0.577
vn -0.577 -0.577 -0.577
vn -0.577 -0.577 -0.577
vn -0.577 -0.577 -0.577
vn 0.577 0.577 0.577
vn 0.577 0.577 0.577
vn -0.577 -0.577 -0.577
vn 0.577 0.577 0.577
vn -0.577 -0.577 -0.577
vn -0.577 -0.577 -0.577
vn 0.577 0.577 0.577
vn 0.577 0.577 0.577
vn -0.577 -0.577 -0.577
vn 0.577 0.577 0.577
vn -0.577 -0.577 -0.577
vn -0.577 -0.577 -0.577
vn 0.577 0.577 0.577
vn -0.577 -0.577 -0.577
vn 0.577 0.577 0.577
vn -0.577 -0.577 -0.577
vn -0.577 -0.577 -0.577
vn -0.577 -0.577 -0.577
vn -0.577 -0.577 -0.577
vn -0.577 -0.577 -0.577
vn 0.577 0.577 0.577
vn 0.577 0.577 0.577
vn 0.577 0.577 0.577
vn 0.577 0.577 0.577
vn -0.577 -0.577 -0.577
vn -0.577 -0.577 -0.577
vn -0.577 -0.577 -0.577
vn -0.577 -0.577 -0.577
vn -0.577 -0.577 -0.577
vn -0.577 -0.577 -0.577
vn -0.577 -0.577 -0.577
vn -0.577 -0.577 -0.577
vn -0.577 -0.577 -0.577
vn -0.577 -0.577 -0.577
vn -0.577 -0.577 -0.577
vn -0.577 -0.577 -0.577
vn 0.577 0.577 0.577
vn 0.577 0.577 0.577
vn -0.577 -0.577 -0.577
vn 0.577 0.577 0.577
vn 0.577 0.577 0.577
vn 0.577 0.577 0.577
vn -0.577 -0.577 -0.577
vn -0.577 -0.577 -0.577
vn -0.577 -0.577 -0.577
vn 0.577 0.577 0.577
vn 0.577 0.577 0.577
vn -0.577 -0.577 -0.577
vn -0.577 -0.577 -0.577
vn -0.577 -0.577 -0.577
vn -0.577 -0.577 -0.577
vn 0.577 0.577 0.577
vn -0.577 -0.577 -0.577
vn -0.577 -0.577 -0.577
vn 0.577 0.577 0.577
vn 0.577 0.577 0.577
vn 0.577 0.577 0.577
vn -0.577 -0.577 -0.577
vn -0.577 -0.577 -0.577
vn 0.577 0.577 0.577
vn 0.577 0.577 0.577
vn 0.577 0.577 0.577
vn -0.577 -0.577 -0.577
vn -0.577 -0.577 -0.577
vn -0.577 -0.577 -0.577
vn -0.577 -0.577 -0.577
vn -0.577 -0.577 -0.577
vn -0.577 -0.577 -0.577
vn -0.577 -0.577 -0.577
vn -0.577 -0.577 -0.577
vn -0.577 -0.577 -0.577
vn -0.577 -0.577 -0.577
vn -0.577 -0.577 -0.577
vn -0.577 -0.577 -0.577
vn -0.577 -0.577 -0.577
vn -0.577 -0.577 -0.577
vn -0.577 -0.577 -0.577
vn -0.577 -0.577 -0.577
vn -0.577 -0.577 -0.577
vn -0.577 -0.577 -0.577
vn 0.577 0.577 0.577
vn -0.577 -0.577 -0.577
vn -0.577 -0.577 -0.577
vn -0.577 -0.577 -0.577
vn -0.577 -0.577 -0.577
vn -0.577 -0.577 -0.577
vn -0.577 -0.577 -0.577
vn -0.577 -0.577 -0.577
vn -0.577 -0.577 -0.577
vn -0.577 -0.577 -0.577
vn -0.577 -0.577 -0.577
vn -0.577 -0.577 -0.577
vn 0.577 0.577 0.577
vn -0.577 -0.577 -0.577
vn -0.577 -0.577 -0.577
vn -0.577 -0.577 -0.577
vn -0.577 -0.577 -0.577
vn 0.577 0.577 0.577
vn 0.577 0.577 0.577
vn 0.577 0.577 0.577
vn 0.577 0.577 0.577
vn -0.577 -0.577 -0.577
vn 0.577 0.577 0.577
vn -0.577 -0.577 -0.577
vn -0.577 -0.577 -0.577
vn -0.577 -0.577 -0.577
vn -0.577 -0.577 -0.577
vn 0.577 0.577 0.577
vn 0.577 0.577 0.577
vn 0.577 0.577 0.577
vn -0.577 -0.577 -0.577
vn -0.577 -0.577 -0.577
vn -0.577 -0.577 -0.577
vn -0.577 -0.577 -0.577
vn -0.577 -0.577 -0.577
vn -0.577 -0.577 -0.577
vn -0.577 -0.577 -0.577
vn 0.577 0.577 0.577
vn -0.577 -0.577 -0.577
vn -0.577 -0.577 -0.577
vn -0.577 -0.577 -0.577
vn -0.577 -0.577 -0.577
vn -0.577 -0.577 -0.577
vn -0.577 -0.577 -0.577
vn -0.577 -0.577 -0.577
vn 0.577 0.577 0.577
vn -0.577 -0.577 -0.577
vn 0.577 0.577 0.577
vn 0.577 0.577 0.577
vn 0.577 0.577 0.577
vn -0.577 -0.577 -0.577
vn -0.577 -0.577 -0.577
vn -0.577 -0.577 -0.577
vn -0.577 -0.577 -0.577
vn -0.577 -0.577 -0.577
vn -0.577 -0.577 -0.577
vn -0.577 -0.577 -0.577
vn 0.577 0.577 0.577
vn -0.577 -0.577 -0.577
vn -0.577 -0.577 -0.577
vn -0.577 -0.577 -0.577
vn 0.577 0.577 0.577
vn 0.577 0.577 0.577
vn 0.577 0.577 0.577
vn -0.577 -0.577 -0.577
vn -0.577 -0.577 -0.577
vn 0.577 0.577 0.577
vn -0.577 -0.577 -0.577
vn -0.577 -0.577 -0.577
vn 0.577 0.577 0.577
vn 0.577 0.577 0.577
vn 0.577 0.577 0.577
vn -0.577 -0.577 -0.577
vn -0.577 -0.577 -0.577
vn 0.577 0.577 0.577
vn -0.577 -0.577 -0.577
vn -0.577 -0.577 -0.577
vn -0.577 -0.577 -0.577
vn -0.577 -0.577 -0.577
vn -0.577 -0.577 -0.577
vn -0.577 -0.577 -0.577
vn -0.577 -0.577 -0.577
vn -0.577 -0.577 -0.577
vn -0.577 -0.577 -0.577
vn -0.577 -0.577 -0.577
vn -0.577 -0.577 -0.577
vn -0.577 -0.577 -0.577
vn -0.577 -0.577 -0.577
vn -0.577 -0.577 -0.577
vn -0.577 -0.577 -0.577
vn -0.577 -0.577 -0.577
vn -0.577 -0.577 -0.577
vn -0.577 -0.577 -0.577
vn -0.577 -0.577 -0.577
vn -0.577 -0.577 -0.577
vn -0.577 -0.577 -0.577
vn -0.577 -0.577 -0.577
vn -0.577 -0.577 -0.577
vn -0.577 -0.577 -0.577
vn 0.577 0.577 0.577
vn -0.577 -0.577 -0.577
vn -0.577 -0.577 -0.577
vn -0.577 -0.577 -0.577
vn 0.577 0.577 0.577
vn 0.577 0.577 0.577
vn 0.577 0.577 0.577
vn -0.577 -0.577 -0.577
vn 0.577 0.577 0.577
vn -0.577 -0.577 -0.577
vn 0.577 0.577 0.577
vn 0.577 0.577 0.577
vn -0.577 -0.577 -0.577
vn 0.577 0.577 0.577
vn 0.577 0.577 0.577
vn -0.577 -0.577 -0.577
vn 0.577 0.577 0.577
vn 0.577 0.577 0.577
vn -0.577 -0.577 -0.577
vn -0.577 -0.577 -0.577
vn -0.577 -0.577 -0.577
vn 0.577 0.577 0.577
vn -0.577 -0.577 -0.577
vn 0.577 0.577 0.577
vn -0.577 -0.577 -0.577
vn -0.577 -0.577 -0.577
vn -0.577 -0.577 -0.577
vn 0.577 0.577 0.577
vn 0.577 0.577 0.577
vn 0.577 0.577 0.577
vn -0.577 -0.577 -0.577
vn -0.577 -0.577 -0.577
vn 0.577 0.577 0.577
vn -0.577 -0.577 -0.577
vn -0.577 -0.577 -0.577
vn 0.577 0.577 0.577
vn 0.577 0.577 0.577
vn 0.577 0.577 0.577
vn -0.577 -0.577 -0.577
vn -0.577 -0.577 -0.577
vn 0.577 0.577 0.577
vn -0.577 -0.577 -0.577
vn -0.577 -0.577 -0.577
vn -0.577 -0.577 -0.577
vn -0.577 -0.577 -0.577
vn -0.577 -0.577 -0.577
vn -0.577 -0.577 -0.577
vn -0.577 -0.577 -0.577
vn -0.577 -0.577 -0.577
vn -0.577 -0.577 -0.577
vn -0.577 -0.577 -0.577
vn -0.577 -0.577 -0.577
vn -0.577 -0.577 -0.577
vn -0.577 -0.577 -0.577
vn -0.577 -0.577 -0.577
vn -0.577 -0.577 -0.577
vn -0.577 -0.577 -0.577
vn -0.577 -0.577 -0.577
vn -0.577 -0.577 -0.577
vn -0.577 -0.577 -0.577
vn -0.577 -0.577 -0.577
vn -0.577 -0.577 -0.577
vn -0.577 -0.577 -0.577
vn -0.577 -0.577 -0.577
vn -0.577 -0.577 -0.577
usemtl tex_2020_lit_w01
f 1/1/1 2/2/2 3/3/3
f 4/4/4 2/2/2 1/1/1
f 5/5/5 6/6/6 1/1/1
f 4/4/4 7/7/7 8/8/8
f 7/7/7 1/1/1 6/6/6
f 4/4/4 1/1/1 7/7/7
f 8/8/8 9/9/9 3/3/3
f 8/8/8 3/3/3 2/2/2
f 7/7/7 10/10/10 8/8/8
f 9/9/9 5/5/5 3/3/3
f 7/7/7 6/6/6 5/5/5
f 3/3/3 5/5/5 1/1/1
f 2/2/2 4/4/4 8/8/8
f 10/10/10 7/7/7 5/5/5
usemtl tex_2011_lit_w01
f 11/11/11 12/11/12 13/11/13
f 12/11/12 14/11/14 15/11/15
f 15/11/15 14/11/14 16/11/16
f 14/11/14 17/11/17 16/11/16
f 17/11/17 18/11/18 16/11/16
f 17/11/17 19/11/19 18/11/18
f 19/11/19 12/11/12 11/11/11
f 19/11/19 11/11/11 18/11/18
usemtl tex_2021_lit_w11
f 26/12/26 27/13/27 20/14/20
f 26/12/26 20/14/20 21/15/21
usemtl tex_2022_lit_w01
f 28/16/28 22/17/22 23/18/23
f 29/19/29 28/16/28 23/18/23
f 30/20/30 24/21/24 25/22/25
f 28/16/28 25/22/25 22/17/22
f 28/16/28 30/20/30 25/22/25
f 30/20/30 31/23/31 24/21/24
usemtl tex_1953_lit_w01
f 36/24/36 32/25/32 37/26/37
f 33/27/33 32/25/32 36/24/36
f 38/28/38 33/27/33 36/24/36
f 34/29/34 33/27/33 38/28/38
f 39/30/39 34/29/34 38/28/38
f 35/31/35 34/29/34 39/30/39
f 37/26/37 35/31/35 39/30/39
f 32/25/32 35/31/35 37/26/37
f 40/32/40 41/33/41 42/34/42
f 43/35/43 44/36/44 45/37/45
f 41/33/41 46/38/46 42/34/42
f 45/37/45 41/33/41 40/32/40
f 47/39/47 44/36/44 43/35/43
f 46/38/46 44/36/44 47/39/47
f 42/34/42 46/38/46 47/39/47
f 43/35/43 45/37/45 40/32/40
f 40/32/40 42/34/42 47/39/47
f 40/32/40 47/39/47 43/35/43
f 48/38/48 49/33/49 45/37/45
f 48/38/48 45/37/45 44/36/44
usemtl tex_1954_lit_w01
f 50/40/50 51/41/51 56/42/56
f 50/40/50 56/42/56 57/43/57
f 51/41/51 58/44/58 56/42/56
f 52/45/52 50/40/50 57/43/57
usemtl tex_1952_lit_w01
f 59/46/59 53/47/53 54/48/54
f 60/49/60 54/48/54 55/50/55
f 60/49/60 59/46/59 54/48/54
f 61/51/61 60/49/60 55/50/55
usemtl tex_1953_lit_w01
f 66/27/66 62/52/62 67/25/67
f 63/53/63 62/52/62 66/27/66
f 68/29/68 63/53/63 66/27/66
f 64/54/64 63/53/63 68/29/68
f 69/31/69 64/54/64 68/29/68
f 65/55/65 64/54/64 69/31/69
f 67/25/67 65/55/65 69/31/69
f 62/52/62 65/55/65 67/25/67
f 70/56/70 71/57/71 72/33/72
f 73/38/73 71/57/71 74/58/74
f 75/59/75 76/37/76 77/36/77
f 77/36/77 73/38/73 74/58/74
f 70/56/70 72/33/72 76/37/76
f 71/57/71 73/38/73 72/33/72
f 75/59/75 70/56/70 76/37/76
f 75/59/75 77/36/77 74/58/74
f 78/58/78 79/57/79 80/56/80
f 78/58/78 80/56/80 81/59/81
f 82/38/82 77/36/77 76/37/76
f 82/38/82 76/37/76 83/33/83
usemtl tex_2020_lit_w01
f 84/60/84 85/61/85 86/62/86
f 86/62/86 85/61/85 87/63/87
f 86/62/86 88/64/88 89/65/89
f 90/66/90 91/67/91 87/63/87
f 88/64/88 86/62/86 91/67/91
f 91/67/91 86/62/86 87/63/87
f 84/60/84 92/68/92 90/66/90
f 85/61/85 84/60/84 90/66/90
f 90/66/90 93/69/93 91/67/91
f 84/60/84 89/65/89 92/68/92
f 91/67/91 93/69/93 89/65/89
f 86/62/86 89/65/89 84/60/84
f 90/66/90 87/63/87 85/61/85
f 88/64/88 91/67/91 89/65/89
usemtl tex_2011_lit_w01
f 94/11/94 95/11/95 96/11/96
f 96/11/96 95/11/95 97/11/97
f 96/11/96 97/11/97 98/11/98
f 98/11/98 99/11/99 96/11/96
f 99/11/99 98/11/98 100/11/100
f 100/11/100 98/11/98 101/11/101
f 95/11/95 94/11/94 100/11/100
f 100/11/100 101/11/101 95/11/95
usemtl tex_2021_lit_w11
f 102/70/102 109/71/109 110/72/110
f 103/73/103 102/70/102 110/72/110
usemtl tex_2022_lit_w01
f 104/74/104 105/75/105 111/76/111
f 104/74/104 111/76/111 112/77/112
f 106/78/106 107/79/107 113/80/113
f 105/75/105 108/81/108 111/76/111
f 108/81/108 114/82/114 111/76/111
f 107/79/107 115/83/115 113/80/113
usemtl tex_1953_lit_w01
f 120/84/120 116/85/116 121/86/121
f 117/87/117 118/88/118 122/89/122
f 120/84/120 119/90/119 116/85/116
f 121/86/121 116/85/116 117/87/117
f 122/89/122 118/88/118 123/91/123
f 123/91/123 118/88/118 119/90/119
f 123/91/123 119/90/119 120/84/120
f 121/86/121 117/87/117 122/89/122
f 124/92/124 125/93/125 126/94/126
f 127/95/127 128/96/128 129/97/129
f 124/92/124 130/98/130 125/93/125
f 126/94/126 125/93/125 127/95/127
f 129/97/129 128/96/128 131/99/131
f 131/99/131 128/96/128 130/98/130
f 131/99/131 130/98/130 124/92/124
f 126/94/126 127/95/127 129/97/129
f 129/97/129 131/99/131 124/92/124
f 129/97/129 124/92/124 126/94/126
f 128/96/128 127/95/127 132/93/132
f 128/96/128 132/93/132 133/98/133
usemtl tex_1954_lit_w01
f 140/100/140 134/41/134 135/101/135
f 141/102/141 140/100/140 135/101/135
f 140/100/140 142/103/142 134/41/134
f 141/102/141 135/101/135 136/104/136
usemtl tex_1952_lit_w01
f 137/105/137 138/47/138 143/106/143
f 144/107/144 145/108/145 139/109/139
f 137/105/137 143/106/143 144/107/144
f 137/105/137 144/107/144 139/109/139
usemtl tex_1953_lit_w01
f 150/87/150 146/110/146 151/88/151
f 150/87/150 147/111/147 146/110/146
f 152/85/152 147/111/147 150/87/150
f 151/88/151 146/110/146 148/112/148
f 151/88/151 148/112/148 153/90/153
f 153/90/153 148/112/148 149/113/149
f 153/90/153 149/113/149 152/85/152
f 152/85/152 149/113/149 147/111/147
f 154/93/154 155/114/155 156/115/156
f 157/116/157 155/114/155 158/98/158
f 159/96/159 160/95/160 161/117/161
f 157/116/157 158/98/158 159/96/159
f 160/95/160 154/93/154 156/115/156
f 154/93/154 158/98/158 155/114/155
f 160/95/160 156/115/156 161/117/161
f 157/116/157 159/96/159 161/117/161
f 162/117/162 163/115/163 164/114/164
f 162/117/162 164/114/164 165/116/165
f 166/93/166 160/95/160 159/96/159
f 166/93/166 159/96/159 167/98/167
usemtl tex_1946_lit_ds_w10
f 168/118/168 169/119/169 170/120/170
f 168/118/168 170/120/170 171/121/171
f 169/119/169 172/122/172 170/120/170
f 173/123/173 172/122/172 169/119/169
f 173/123/173 174/124/174 172/122/172
f 175/125/175 174/124/174 173/123/173
f 176/126/176 177/127/177 169/119/169
f 176/126/176 169/119/169 168/118/168
f 177/127/177 173/123/173 169/119/169
f 178/128/178 173/123/173 177/127/177
f 178/128/178 175/125/175 173/123/173
f 179/129/179 175/125/175 178/128/178
f 180/130/180 181/131/181 177/127/177
f 180/130/180 177/127/177 176/126/176
f 181/131/181 178/128/178 177/127/177
f 182/132/182 178/128/178 181/131/181
f 182/132/182 179/129/179 178/128/178
f 183/133/183 179/129/179 182/132/182
f 184/134/184 185/133/185 186/135/186
f 184/134/184 186/135/186 187/136/187
f 188/137/188 189/138/189 190/131/190
f 188/137/188 190/131/190 191/130/191
f 189/138/189 192/132/192 190/131/190
f 193/139/193 192/132/192 189/138/189
f 193/139/193 185/133/185 192/132/192
f 186/135/186 185/133/185 193/139/193
f 194/140/194 195/141/195 189/138/189
f 194/140/194 189/138/189 188/137/188
f 195/141/195 193/139/193 189/138/189
f 196/142/196 193/139/193 195/141/195
f 196/142/196 186/135/186 193/139/193
f 197/143/197 186/135/186 196/142/196
f 198/144/198 199/145/199 195/141/195
f 198/144/198 195/141/195 194/140/194
f 199/145/199 196/142/196 195/141/195
f 200/146/200 201/142/201 202/145/202
f 200/146/200 203/143/203 201/142/201
f 204/147/204 203/143/203 200/146/200
f 205/148/205 206/149/206 207/150/207
f 205/148/205 200/146/200 202/145/202
f 208/151/208 200/146/200 205/148/205
f 208/151/208 204/147/204 200/146/200
f 209/152/209 204/147/204 208/151/208
f 210/133/210 211/134/211 212/153/212
f 210/133/210 212/153/212 213/129/213
f 212/153/212 214/154/214 215/125/215
f 212/153/212 215/125/215 213/129/213
f 216/125/216 217/154/217 218/155/218
f 216/125/216 218/155/218 219/124/219
f 220/143/220 221/156/221 222/136/222
f 220/143/220 222/136/222 223/135/223
f 224/147/224 225/157/225 221/156/221
f 224/147/224 221/156/221 220/143/220
f 226/152/226 225/157/225 224/147/224
usemtl tex_1549_lit
f 227/158/227 228/159/228 229/160/229
f 230/161/230 231/162/231 227/158/227
f 232/163/232 233/164/233 234/165/234
f 235/166/235 233/164/233 236/167/236
f 237/162/237 238/168/238 239/158/239
f 240/169/240 241/159/241 239/158/239
f 232/163/232 240/169/240 242/170/242
f 242/170/242 238/168/238 237/162/237
f 243/171/243 235/166/235 244/161/244
f 232/163/232 236/167/236 233/164/233
f 232/163/232 242/170/242 236/167/236
f 244/161/244 239/158/239 245/160/245
f 244/161/244 245/160/245 243/171/243
f 240/169/240 239/158/239 242/170/242
f 246/172/246 232/163/232 234/165/234
f 233/164/233 246/172/246 234/165/234
f 235/166/235 236/167/236 244/161/244
f 242/170/242 237/162/237 236/167/236
f 244/161/244 236/167/236 237/162/237
f 239/158/239 238/168/238 242/170/242
usemtl tex_1551_lit
f 247/173/247 248/174/248 249/175/249
f 250/176/250 251/177/251 252/178/252
f 250/176/250 253/179/253 254/180/254
f 255/181/255 252/178/252 251/177/251
f 249/175/249 256/182/256 257/183/257
f 258/184/258 259/185/259 260/186/260
f 255/181/255 261/187/261 253/179/253
f 252/178/252 255/181/255 253/179/253
f 258/184/258 260/186/260 256/182/256
f 250/176/250 254/180/254 262/188/262
f 250/176/250 252/178/252 253/179/253
f 249/175/249 258/184/258 256/182/256
f 263/189/263 264/188/264 265/180/265
f 266/174/266 267/184/267 268/175/268
f 269/186/269 270/183/270 271/182/271
f 272/173/272 273/190/273 266/174/266
usemtl tex_1950_lit_ds_w10
f 274/191/274 275/192/275 276/193/276
f 274/191/274 276/193/276 277/194/277
f 278/195/278 279/196/279 280/197/280
f 281/198/281 282/199/282 283/200/283
f 281/198/281 283/200/283 284/201/284
f 285/202/285 281/198/281 284/201/284
f 285/202/285 280/197/280 281/198/281
f 286/203/286 287/194/287 288/193/288
f 286/203/286 288/193/288 289/204/289
f 286/203/286 289/204/289 285/202/285
f 289/204/289 280/197/280 285/202/285
f 283/200/283 282/199/282 290/205/290
f 283/200/283 290/205/290 291/206/291
f 290/205/290 282/199/282 281/198/281
f 278/195/278 280/197/280 289/204/289
f 279/196/279 281/198/281 280/197/280
f 292/192/292 278/195/278 289/204/289
f 288/193/288 292/192/292 289/204/289
f 279/196/279 290/205/290 281/198/281
usemtl tex_1947_lit_ds_w10
f 293/207/293 294/208/294 295/209/295
f 294/208/294 296/210/296 295/209/295
f 297/211/297 296/210/296 294/208/294
f 297/211/297 298/212/298 296/210/296
f 299/213/299 298/212/298 297/211/297
f 300/214/300 299/213/299 301/215/301
f 299/213/299 300/214/300 298/212/298
usemtl tex_1875_lit_ds
f 302/216/302 303/217/303 304/218/304
f 305/219/305 306/220/306 303/217/303
f 307/221/307 308/222/308 309/223/309
f 310/224/310 311/217/311 312/225/312
f 313/226/313 311/217/311 310/224/310
f 314/227/314 311/217/311 313/226/313
f 308/222/308 315/228/315 316/229/316
f 315/228/315 317/230/317 318/231/318
f 319/232/319 311/217/311 320/216/320
f 321/233/321 311/217/311 319/232/319
f 321/233/321 312/225/312 311/217/311
f 322/220/322 323/218/323 324/217/324
f 325/234/325 326/227/326 327/226/327
f 326/227/326 328/219/328 324/217/324
f 328/219/328 329/235/329 322/220/322
f 330/236/330 331/237/331 332/223/332
f 331/237/331 333/238/333 332/223/332
f 334/239/334 330/236/330 332/223/332
f 335/231/335 334/239/334 332/223/332
f 336/240/336 337/221/337 332/223/332
f 338/238/338 339/241/339 340/223/340
f 341/229/341 342/231/342 340/223/340
f 339/241/339 343/240/343 340/223/340
f 341/229/341 344/228/344 342/231/342
f 345/222/345 341/229/341 340/223/340
usemtl tex_1550_lit
f 346/242/346 347/243/347 348/244/348
f 349/245/349 350/246/350 351/247/351
f 352/248/352 353/249/353 354/250/354
f 355/251/355 356/246/356 357/245/357
f 354/250/354 358/252/358 352/248/352
f 359/253/359 360/254/360 361/255/361
f 361/255/361 360/254/360 362/256/362
f 363/257/363 364/258/364 365/259/365
f 363/257/363 366/260/366 364/258/364
f 367/261/367 360/254/360 359/253/359
f 368/262/368 369/256/369 370/254/370
f 371/261/371 368/262/368 370/254/370
f 372/263/372 373/242/373 374/244/374
usemtl tex_1946_lit_w10
f 375/264/375 376/265/376 377/266/377
f 375/264/375 377/266/377 378/267/378
f 379/268/379 380/269/380 376/265/376
f 379/268/379 376/265/376 375/264/375
f 378/267/378 377/266/377 381/270/381
f 378/267/378 381/270/381 382/271/382
f 378/267/378 382/271/382 379/268/379
f 378/267/378 379/268/379 375/264/375
f 380/269/380 379/268/379 382/271/382
f 380/269/380 382/271/382 381/270/381
f 376/265/376 380/269/380 381/270/381
f 376/265/376 381/270/381 377/266/377
usemtl tex_2014_lit_w01
f 383/272/383 384/273/384 385/274/385
f 383/272/383 385/274/385 386/275/386
usemtl tex_1549_lit
f 387/276/387 388/277/388 389/278/389
f 387/276/387 389/278/389 390/279/390
usemtl tex_1551_lit
f 391/280/391 392/281/392 393/282/393
f 391/280/391 393/282/393 394/283/394
f 395/284/395 396/285/396 397/286/397
f 395/284/395 397/286/397 398/287/398
usemtl tex_1550_lit
f 399/288/399 400/289/400 401/290/401
f 399/288/399 401/290/401 402/291/402
f 403/292/403 404/293/404 405/294/405
f 403/292/403 405/294/405 406/295/406
usemtl tex_2014_lit_w01
f 407/296/407 414/297/414 415/298/415
f 416/299/416 408/300/408 409/301/409
f 408/300/408 417/302/417 407/296/407
f 417/302/417 414/297/414 407/296/407
f 410/303/410 407/296/407 415/298/415
f 410/303/410 415/298/415 418/304/418
f 410/303/410 418/304/418 411/305/411
f 419/306/419 412/307/412 413/308/413
f 419/306/419 420/309/420 412/307/412
f 408/300/408 416/299/416 417/302/417
usemtl tex_1609_lit
f 421/310/421 422/311/422 423/312/423
f 423/312/423 422/311/422 424/313/424
usemtl tex_1613_lit_w11
f 425/314/425 426/315/426 427/316/427
f 427/316/427 426/315/426 428/317/428
usemtl tex_1616_lit_w11
f 429/318/429 430/319/430 431/320/431
f 431/320/431 430/319/430 432/321/432
usemtl tex_1619_lit_w11
f 433/322/433 434/323/434 435/324/435
f 435/324/435 434/323/434 436/325/436
usemtl tex_1622_lit_w11
f 437/326/437 438/327/438 439/328/439
f 439/328/439 438/327/438 440/329/440
usemtl tex_1951_lit_w10
f 446/330/446 441/331/441 442/332/442
f 442/332/442 443/333/443 447/334/447
f 443/333/443 444/335/444 447/334/447
f 445/336/445 441/331/441 448/337/448
f 444/335/444 445/336/445 449/338/449
f 444/335/444 449/338/449 447/334/447
f 446/330/446 442/332/442 447/334/447
f 445/336/445 448/337/448 449/338/449
f 441/331/441 446/330/446 448/337/448
f 455/335/455 450/339/450 456/336/456
f 451/340/451 450/339/450 455/335/455
f 457/333/457 451/340/451 455/335/455
f 452/341/452 451/340/451 457/333/457
f 458/332/458 452/341/452 457/333/457
f 453/342/453 452/341/452 458/332/458
f 456/336/456 454/343/454 459/331/459
f 450/339/450 454/343/454 456/336/456
f 459/331/459 453/342/453 458/332/458
f 454/343/454 453/342/453 459/331/459
f 460/344/460 461/345/461 462/346/462
f 462/346/462 463/347/463 464/348/464
f 465/349/465 461/345/461 466/350/466
f 464/348/464 465/349/465 467/351/467
f 464/348/464 463/347/463 465/349/465
f 461/345/461 460/344/460 466/350/466
f 460/344/460 462/346/462 464/348/464
f 465/349/465 466/350/466 467/351/467
f 468/346/468 461/345/461 465/349/465
f 468/346/468 465/349/465 469/347/469
usemtl tex_1948_lit_w11
f 470/352/470 471/353/471 472/354/472
f 471/353/471 470/352/470 473/355/473
f 470/352/470 472/354/472 474/356/474
usemtl tex_1951_lit_w10
f 475/357/475 476/358/476 477/359/477
f 478/360/478 479/361/479 477/359/477
f 480/362/480 481/363/481 482/364/482
f 479/361/479 475/357/475 477/359/477
f 480/362/480 482/364/482 476/358/476
f 476/358/476 482/364/482 483/365/483
f 476/358/476 483/365/483 477/359/477
f 489/357/489 484/366/484 490/358/490
f 490/358/490 484/366/484 485/367/485
f 490/358/490 485/367/485 491/362/491
f 491/362/491 485/367/485 486/368/486
f 491/362/491 486/368/486 492/363/492
f 492/363/492 486/368/486 487/369/487
f 492/363/492 487/369/487 493/361/493
f 493/361/493 487/369/487 488/370/488
f 493/361/493 488/370/488 489/357/489
f 489/357/489 488/370/488 484/366/484
usemtl tex_1948_lit_w11
f 501/371/501 494/352/494 502/372/502
f 495/355/495 494/352/494 501/371/501
f 502/372/502 494/352/494 503/373/503
f 494/352/494 496/356/496 503/373/503
usemtl tex_1951_lit_w10_ovl
f 504/341/504 497/364/497 505/340/505
usemtl tex_1951_lit_w10
f 498/365/498 497/364/497 504/341/504
f 506/342/506 498/365/498 504/341/504
f 499/359/499 498/365/498 506/342/506
f 500/360/500 499/359/499 506/342/506
f 507/343/507 500/360/500 506/342/506
f 508/374/508 509/375/509 510/346/510
f 511/345/511 512/376/512 510/346/510
f 512/376/512 508/374/508 510/346/510
f 513/377/513 514/349/514 509/375/509
f 509/375/509 514/349/514 515/347/515
f 511/345/511 513/377/513 512/376/512
f 509/375/509 515/347/515 510/346/510
f 513/377/513 511/345/511 514/349/514
f 508/374/508 512/376/512 513/377/513
f 513/377/513 509/375/509 508/374/508
f 516/347/516 514/349/514 511/345/511
f 516/347/516 511/345/511 517/346/517
usemtl tex_1609_lit
f 518/378/518 519/379/519 520/380/520
f 521/381/521 519/379/519 518/378/518
usemtl tex_1613_lit_w11
f 522/382/522 523/383/523 524/384/524
f 525/385/525 523/383/523 522/382/522
usemtl tex_1616_lit_w11
f 526/386/526 527/387/527 528/388/528
f 529/389/529 527/387/527 526/386/526
usemtl tex_1619_lit_w11
f 530/390/530 531/391/531 532/392/532
f 533/393/533 531/391/531 530/390/530
usemtl tex_1622_lit_w11
f 534/394/534 535/395/535 536/396/536
f 537/397/537 535/395/535 534/394/534
usemtl tex_1951_lit_w10
f 538/398/538 539/399/539 543/400/543
f 544/401/544 540/402/540 538/398/538
f 544/401/544 541/403/541 540/402/540
f 545/404/545 539/399/539 542/405/542
f 546/406/546 542/405/542 541/403/541
f 544/401/544 546/406/546 541/403/541
f 544/401/544 538/398/538 543/400/543
f 546/406/546 545/404/545 542/405/542
f 545/404/545 543/400/543 539/399/539
f 552/405/552 547/407/547 553/403/553
f 553/403/553 547/407/547 548/408/548
f 553/403/553 548/408/548 554/402/554
f 554/402/554 548/408/548 549/409/549
f 554/402/554 549/409/549 555/398/555
f 555/398/555 549/409/549 550/410/550
f 556/399/556 551/411/551 552/405/552
f 552/405/552 551/411/551 547/407/547
f 555/398/555 550/410/550 556/399/556
f 556/399/556 550/410/550 551/411/551
f 557/412/557 558/413/558 559/414/559
f 560/415/560 561/416/561 557/412/557
f 562/417/562 558/413/558 563/418/563
f 564/419/564 563/418/563 560/415/560
f 563/418/563 561/416/561 560/415/560
f 562/417/562 559/414/559 558/413/558
f 560/415/560 557/412/557 559/414/559
f 564/419/564 562/417/562 563/418/563
f 558/413/558 565/412/565 566/416/566
f 558/413/558 566/416/566 563/418/563
f 567/420/567 568/421/568 569/422/569
f 567/420/567 570/423/570 571/424/571
f 572/425/572 573/426/573 574/427/574
f 567/420/567 569/422/569 570/423/570
f 568/421/568 572/425/572 574/427/574
f 575/428/575 572/425/572 568/421/568
f 570/423/570 573/426/573 576/429/576
f 567/420/567 575/428/575 568/421/568
f 572/425/572 576/429/576 573/426/573
f 571/424/571 570/423/570 576/429/576
f 582/421/582 577/430/577 583/422/583
f 578/431/578 577/430/577 582/421/582
f 584/427/584 578/431/578 582/421/582
f 579/432/579 578/431/578 584/427/584
f 585/426/585 579/432/579 584/427/584
f 580/433/580 579/432/579 585/426/585
f 586/423/586 580/433/580 585/426/585
f 581/434/581 580/433/580 586/423/586
f 583/422/583 581/434/581 586/423/586
f 577/430/577 581/434/581 583/422/583
f 592/407/592 587/429/587 593/408/593
f 593/408/593 587/429/587 588/425/588
f 593/408/593 588/425/588 594/409/594
f 594/409/594 588/425/588 589/428/589
f 594/409/594 589/428/589 595/410/595
f 595/410/595 589/428/589 590/420/590
f 596/411/596 587/429/587 592/407/592
f 595/410/595 590/420/590 591/424/591
f 595/410/595 591/424/591 596/411/596
f 596/411/596 591/424/591 587/429/587
f 597/435/597 598/436/598 599/437/599
f 599/437/599 600/438/600 597/435/597
f 601/412/601 599/437/599 598/436/598
f 601/412/601 597/435/597 602/413/602
f 601/412/601 598/436/598 597/435/597
f 599/437/599 603/418/603 600/438/600
f 604/416/604 603/418/603 599/437/599
f 597/435/597 600/438/600 602/413/602
f 601/412/601 604/416/604 599/437/599
f 603/418/603 602/413/602 600/438/600
f 603/418/603 605/416/605 606/412/606
f 603/418/603 606/412/606 602/413/602
usemtl tex_1954_lit_w01
f 607/439/607 608/440/608 609/441/609
f 609/441/609 610/442/610 611/443/611
f 612/444/612 611/443/611 613/445/613
f 614/446/614 615/447/615 616/448/616
f 612/444/612 609/441/609 611/443/611
f 612/444/612 607/439/607 609/441/609
f 617/449/617 609/441/609 618/450/618
f 611/443/611 616/448/616 619/451/619
f 610/442/610 614/446/614 611/443/611
f 620/452/620 615/447/615 621/453/621
f 622/454/622 612/444/612 613/445/613
f 617/449/617 610/442/610 609/441/609
f 613/445/613 611/443/611 619/451/619
f 623/454/623 624/445/624 625/455/625
f 626/443/626 627/446/627 628/448/628
f 629/442/629 630/453/630 627/446/627
f 631/447/631 627/446/627 630/453/630
f 623/454/623 625/455/625 632/456/632
f 624/445/624 633/451/633 625/455/625
usemtl tex_1952_lit_w01
f 634/457/634 635/458/635 636/459/636
f 637/460/637 634/457/634 638/461/638
f 638/461/638 634/457/634 636/459/636
f 639/462/639 640/463/640 641/458/641
f 642/464/642 640/463/640 639/462/639
f 643/465/643 644/457/644 645/460/645
f 643/465/643 645/460/645 646/466/646
f 647/467/647 643/465/643 646/466/646
f 645/460/645 648/468/648 646/466/646
f 649/459/649 650/469/650 651/470/651
f 641/458/641 640/463/640 652/471/652
f 647/467/647 642/464/642 643/465/643
f 639/462/639 644/457/644 643/465/643
f 642/464/642 639/462/639 643/465/643
f 644/457/644 639/462/639 641/458/641
f 653/461/653 651/470/651 648/468/648
f 653/461/653 649/459/649 651/470/651
f 645/460/645 653/461/653 648/468/648
usemtl tex_1949_lit_w11
f 654/472/654 655/473/655 656/474/656
f 657/475/657 658/476/658 659/477/659
f 660/478/660 658/476/658 657/475/657
f 655/473/655 654/472/654 661/476/661
usemtl tex_1954_lit_w01
f 662/479/662 670/451/670 663/480/663
f 663/480/663 671/448/671 664/481/664
f 663/480/663 670/451/670 671/448/671
f 665/482/665 672/455/672 662/479/662
f 662/479/662 672/455/672 670/451/670
f 664/481/664 671/448/671 673/447/673
usemtl tex_1952_lit_w01
f 666/483/666 674/469/674 667/484/667
f 667/484/667 674/469/674 675/459/675
f 667/484/667 675/459/675 668/485/668
f 668/485/668 675/459/675 676/458/676
f 668/485/668 676/458/676 669/486/669
f 669/486/669 676/458/676 677/471/677
usemtl tex_1954_lit_w01
f 678/487/678 679/488/679 680/489/680
f 681/487/681 682/490/682 683/491/683
f 679/488/679 678/487/678 684/492/684
f 681/487/681 685/489/685 682/490/682
f 686/493/686 687/494/687 688/490/688
f 687/494/687 689/491/689 688/490/688
usemtl tex_1952_lit_w01
f 690/495/690 691/496/691 692/497/692
f 693/498/693 690/495/690 692/497/692
f 694/499/694 695/500/695 696/501/696
f 697/502/697 698/503/698 699/504/699
f 695/500/695 700/505/700 696/501/696
f 701/506/701 699/504/699 698/503/698
usemtl tex_1954_lit_w01
f 702/507/702 703/508/703 704/40/704
f 705/101/705 706/41/706 704/40/704
f 707/104/707 705/101/705 708/509/708
f 708/509/708 705/101/705 709/510/709
f 709/510/709 705/101/705 704/40/704
f 704/40/704 703/508/703 709/510/709
f 710/45/710 702/507/702 704/40/704
usemtl tex_1952_lit_w01
f 711/511/711 712/109/712 713/512/713
f 714/513/714 715/514/715 716/50/716
f 711/511/711 714/513/714 717/515/717
f 718/516/718 719/47/719 720/105/720
f 718/516/718 721/515/721 722/48/722
f 723/109/723 721/515/721 720/105/720
f 721/515/721 718/516/718 720/105/720
f 722/48/722 719/47/719 718/516/718
f 721/515/721 724/513/724 725/50/725
f 721/515/721 725/50/725 722/48/722
f 723/109/723 726/511/726 721/515/721
usemtl tex_1954_lit_w01
f 727/508/727 735/479/735 728/510/728
f 728/510/728 735/479/735 736/480/736
f 728/510/728 736/480/736 729/509/729
f 729/509/729 736/480/736 737/481/737
f 730/507/730 738/482/738 727/508/727
f 727/508/727 738/482/738 735/479/735
usemtl tex_1952_lit_w01
f 731/512/731 739/483/739 732/511/732
f 732/511/732 739/483/739 740/484/740
f 732/511/732 740/484/740 733/513/733
f 733/513/733 740/484/740 741/485/741
f 733/513/733 741/485/741 734/514/734
f 734/514/734 741/485/741 742/486/742
usemtl tex_1954_lit_w01
f 743/517/743 744/518/744 745/519/745
f 746/520/746 743/517/743 745/519/745
f 747/521/747 748/520/748 749/522/749
f 747/521/747 750/517/750 748/520/748
f 751/523/751 752/519/752 753/518/753
f 751/523/751 753/518/753 754/524/754
usemtl tex_1952_lit_w01
f 755/525/755 756/526/756 757/527/757
f 755/525/755 757/527/757 758/528/758
f 759/529/759 760/530/760 761/531/761
f 759/529/759 762/532/762 760/530/760
f 763/533/763 764/534/764 765/535/765
f 765/535/765 764/534/764 766/536/766
