mtllib CredmanZ.mtl
v -1078.8555908203125 -82.70243644714355 -44.0 1.000 1.000 1.000
v -1078.8555908203125 -164.70243644714355 -37.0 1.000 1.000 1.000
v -1078.8555908203125 -38.702436447143555 227.0 1.000 1.000 1.000
v -1078.8555908203125 -157.70243644714355 237.0 1.000 1.000 1.000
v -1035.8555908203125 -76.70243644714355 213.0 1.000 1.000 1.000
v -973.8555908203125 -85.70243644714355 33.0 1.000 1.000 1.000
v -971.8555908203125 -144.70243644714355 -18.0 1.000 1.000 1.000
v -1038.8555908203125 -128.70243644714355 239.0 1.000 1.000 1.000
v -973.8555908203125 -99.70243644714355 -31.0 1.000 1.000 1.000
v -972.8555908203125 -134.70243644714355 56.0 1.000 1.000 1.000
v -639.8883666992188 -36.47519826889038 68.0 1.000 1.000 1.000
v -989.8883666992188 -51.47519826889038 77.0 1.000 1.000 1.000
v -990.8883666992188 -152.47519826889038 103.0 1.000 1.000 1.000
v -656.8883666992188 -190.47519826889038 9.0 1.000 1.000 1.000
v -657.8883666992188 -131.47519826889038 110.0 1.000 1.000 1.000
v -655.8883666992188 -35.47519826889038 -9.0 1.000 1.000 1.000
v -654.8883666992188 -117.47519826889038 -75.0 1.000 1.000 1.000
v -991.8883666992188 -44.47519826889038 -51.0 1.000 1.000 1.000
v -989.8883666992188 -181.47519826889038 -42.0 1.000 1.000 1.000
v -639.8883666992188 -36.47519826889038 68.0 1.000 1.000 1.000
v -655.8883666992188 -35.47519826889038 -9.0 1.000 1.000 1.000
v -991.8883666992188 -44.47519826889038 -51.0 1.000 1.000 1.000
v -989.8883666992188 -51.47519826889038 77.0 1.000 1.000 1.000
v -989.8883666992188 -181.47519826889038 -42.0 1.000 1.000 1.000
v -990.8883666992188 -152.47519826889038 103.0 1.000 1.000 1.000
v -989.8883666992188 -51.47519826889038 77.0 1.000 1.000 1.000
v -991.8883666992188 -44.47519826889038 -51.0 1.000 1.000 1.000
v -971.8555908203125 -144.70243644714355 -18.0 1.000 1.000 1.000
v -972.8555908203125 -134.70243644714355 56.0 1.000 1.000 1.000
v -973.8555908203125 -85.70243644714355 33.0 1.000 1.000 1.000
v -973.8555908203125 -99.70243644714355 -31.0 1.000 1.000 1.000
v -515.8883666992188 -191.47519826889038 14.0 1.000 1.000 1.000
v -523.8883666992188 -34.47519826889038 -9.0 1.000 1.000 1.000
v -519.8883666992188 -115.47519826889038 -74.0 1.000 1.000 1.000
v -506.88836669921875 -38.47519826889038 70.0 1.000 1.000 1.000
v -509.88836669921875 -127.47519826889038 111.0 1.000 1.000 1.000
v -506.88836669921875 -38.47519826889038 70.0 1.000 1.000 1.000
v -523.8883666992188 -34.47519826889038 -9.0 1.000 1.000 1.000
v -657.8883666992188 -131.47519826889038 110.0 1.000 1.000 1.000
v -656.8883666992188 -190.47519826889038 9.0 1.000 1.000 1.000
v -655.8883666992188 -35.47519826889038 -9.0 1.000 1.000 1.000
v -639.8883666992188 -36.47519826889038 68.0 1.000 1.000 1.000
v -654.8883666992188 -117.47519826889038 -75.0 1.000 1.000 1.000
v -639.8883666992188 -36.47519826889038 68.0 1.000 1.000 1.000
v -655.8883666992188 -35.47519826889038 -9.0 1.000 1.000 1.000
v -986.8883666992188 -161.47519826889038 101.0 1.000 1.000 1.000
v -527.8883666992188 -132.47519826889038 87.0 1.000 1.000 1.000
v -985.8883666992188 -54.47519826889038 78.0 1.000 1.000 1.000
v -518.8883666992188 -43.47519826889038 38.0 1.000 1.000 1.000
v -521.8883666992188 -110.47519826889038 -67.0 1.000 1.000 1.000
v -972.8883666992188 -83.47519826889038 -62.0 1.000 1.000 1.000
v -522.8883666992188 -189.47519826889038 13.0 1.000 1.000 1.000
v -971.8883666992188 -183.47519826889038 -50.0 1.000 1.000 1.000
v -527.8883666992188 -132.47519826889038 87.0 1.000 1.000 1.000
v -522.8883666992188 -189.47519826889038 13.0 1.000 1.000 1.000
v 0.0 -182.0 111.0 1.000 1.000 1.000
v -90.0 -118.0 138.0 1.000 1.000 1.000
v -36.0 -175.0 -65.0 1.000 1.000 1.000
v -92.0 -70.0 -73.0 1.000 1.000 1.000
v -142.0 -96.0 65.0 1.000 1.000 1.000
v -142.0 -96.0 65.0 1.000 1.000 1.000
v -92.0 -70.0 -73.0 1.000 1.000 1.000
v -300.5890197753906 -127.63739013671875 118.0 1.000 1.000 1.000
v -344.5890197753906 -192.63739013671875 13.0 1.000 1.000 1.000
v -224.58901977539062 -118.63739013671875 -64.0 1.000 1.000 1.000
v -259.5890197753906 -35.63739013671875 3.0 1.000 1.000 1.000
v -276.5890197753906 -42.63739013671875 69.0 1.000 1.000 1.000
v -259.5890197753906 -35.63739013671875 3.0 1.000 1.000 1.000
v -276.5890197753906 -42.63739013671875 69.0 1.000 1.000 1.000
v -259.5890197753906 -35.63739013671875 3.0 1.000 1.000 1.000
v -224.58901977539062 -118.63739013671875 -64.0 1.000 1.000 1.000
v -276.5890197753906 -42.63739013671875 69.0 1.000 1.000 1.000
v -344.5890197753906 -192.63739013671875 13.0 1.000 1.000 1.000
v -300.5890197753906 -127.63739013671875 118.0 1.000 1.000 1.000
v -276.5890197753906 -42.63739013671875 69.0 1.000 1.000 1.000
v -259.5890197753906 -35.63739013671875 3.0 1.000 1.000 1.000
v -519.8883666992188 -115.47519826889038 -74.0 1.000 1.000 1.000
v -506.88836669921875 -38.47519826889038 70.0 1.000 1.000 1.000
v -509.88836669921875 -127.47519826889038 111.0 1.000 1.000 1.000
v -515.8883666992188 -191.47519826889038 14.0 1.000 1.000 1.000
v -523.8883666992188 -34.47519826889038 -9.0 1.000 1.000 1.000
v -523.8883666992188 -34.47519826889038 -9.0 1.000 1.000 1.000
v -506.88836669921875 -38.47519826889038 70.0 1.000 1.000 1.000
v -527.5890197753906 -132.63739013671875 87.0 1.000 1.000 1.000
v -186.58901977539062 -185.63739013671875 20.0 1.000 1.000 1.000
v -186.58901977539062 -149.63739013671875 124.0 1.000 1.000 1.000
v -187.58901977539062 -123.63739013671875 -73.0 1.000 1.000 1.000
v -522.5890197753906 -188.63739013671875 13.0 1.000 1.000 1.000
v -522.5890197753906 -110.63739013671875 -67.0 1.000 1.000 1.000
v -519.5890197753906 -43.63739013671875 38.0 1.000 1.000 1.000
v -187.58901977539062 -46.63739013671875 27.0 1.000 1.000 1.000
v -187.58901977539062 -46.63739013671875 27.0 1.000 1.000 1.000
v -186.58901977539062 -149.63739013671875 124.0 1.000 1.000 1.000
v -186.58901977539062 -185.63739013671875 20.0 1.000 1.000 1.000
v -187.58901977539062 -123.63739013671875 -73.0 1.000 1.000 1.000
v -527.5890197753906 -132.63739013671875 87.0 1.000 1.000 1.000
v -522.5890197753906 -188.63739013671875 13.0 1.000 1.000 1.000
v 1087.927879333496 -43.380823612213135 227.0 1.000 1.000 1.000
v 1087.927879333496 -169.38082361221313 -37.0 1.000 1.000 1.000
v 1087.927879333496 -87.38082361221313 -44.0 1.000 1.000 1.000
v 1087.927879333496 -162.38082361221313 237.0 1.000 1.000 1.000
v 982.9278793334961 -90.38082361221313 33.0 1.000 1.000 1.000
v 1044.927879333496 -81.38082361221313 213.0 1.000 1.000 1.000
v 1047.927879333496 -133.38082361221313 239.0 1.000 1.000 1.000
v 980.9278793334961 -150.38082361221313 -18.0 1.000 1.000 1.000
v 981.9278793334961 -104.38082361221313 -31.0 1.000 1.000 1.000
v 981.9278793334961 -139.38082361221313 56.0 1.000 1.000 1.000
v 998.3251266479492 -160.09517669677734 103.0 1.000 1.000 1.000
v 999.3251266479492 -56.095176696777344 74.0 1.000 1.000 1.000
v 650.3251266479492 -38.095176696777344 68.0 1.000 1.000 1.000
v 669.3251266479492 -135.09517669677734 111.0 1.000 1.000 1.000
v 666.3251266479492 -198.09517669677734 9.0 1.000 1.000 1.000
v 999.3251266479492 -50.095176696777344 -50.0 1.000 1.000 1.000
v 666.3251266479492 -125.09517669677734 -74.0 1.000 1.000 1.000
v 667.3251266479492 -38.095176696777344 -8.0 1.000 1.000 1.000
v 997.3251266479492 -187.09517669677734 -45.0 1.000 1.000 1.000
v 999.3251266479492 -50.095176696777344 -50.0 1.000 1.000 1.000
v 667.3251266479492 -38.095176696777344 -8.0 1.000 1.000 1.000
v 650.3251266479492 -38.095176696777344 68.0 1.000 1.000 1.000
v 999.3251266479492 -56.095176696777344 74.0 1.000 1.000 1.000
v 999.3251266479492 -50.095176696777344 -50.0 1.000 1.000 1.000
v 999.3251266479492 -56.095176696777344 74.0 1.000 1.000 1.000
v 998.3251266479492 -160.09517669677734 103.0 1.000 1.000 1.000
v 997.3251266479492 -187.09517669677734 -45.0 1.000 1.000 1.000
v 981.9278793334961 -104.38082361221313 -31.0 1.000 1.000 1.000
v 982.9278793334961 -90.38082361221313 33.0 1.000 1.000 1.000
v 981.9278793334961 -139.38082361221313 56.0 1.000 1.000 1.000
v 980.9278793334961 -150.38082361221313 -18.0 1.000 1.000 1.000
v 515.3251266479492 -130.09517669677734 110.0 1.000 1.000 1.000
v 522.3251266479492 -37.095176696777344 69.0 1.000 1.000 1.000
v 528.3251266479492 -123.09517669677734 -75.0 1.000 1.000 1.000
v 531.3251266479492 -38.095176696777344 -7.0 1.000 1.000 1.000
v 525.3251266479492 -197.09517669677734 14.0 1.000 1.000 1.000
v 531.3251266479492 -38.095176696777344 -7.0 1.000 1.000 1.000
v 522.3251266479492 -37.095176696777344 69.0 1.000 1.000 1.000
v 650.3251266479492 -38.095176696777344 68.0 1.000 1.000 1.000
v 669.3251266479492 -135.09517669677734 111.0 1.000 1.000 1.000
v 667.3251266479492 -38.095176696777344 -8.0 1.000 1.000 1.000
v 666.3251266479492 -125.09517669677734 -74.0 1.000 1.000 1.000
v 666.3251266479492 -198.09517669677734 9.0 1.000 1.000 1.000
v 667.3251266479492 -38.095176696777344 -8.0 1.000 1.000 1.000
v 650.3251266479492 -38.095176696777344 68.0 1.000 1.000 1.000
v 995.3251266479492 -58.095176696777344 78.0 1.000 1.000 1.000
v 536.3251266479492 -136.09517669677734 87.0 1.000 1.000 1.000
v 995.3251266479492 -166.09517669677734 101.0 1.000 1.000 1.000
v 982.3251266479492 -87.09517669677734 -62.0 1.000 1.000 1.000
v 531.3251266479492 -115.09517669677734 -67.0 1.000 1.000 1.000
v 528.3251266479492 -48.095176696777344 38.0 1.000 1.000 1.000
v 531.3251266479492 -193.09517669677734 13.0 1.000 1.000 1.000
v 981.3251266479492 -187.09517669677734 -49.0 1.000 1.000 1.000
v 531.3251266479492 -193.09517669677734 13.0 1.000 1.000 1.000
v 536.3251266479492 -136.09517669677734 87.0 1.000 1.000 1.000
v 0.0 -182.0 111.0 1.000 1.000 1.000
v 34.0 -176.0 -66.0 1.000 1.000 1.000
v 98.0 -71.0 -75.0 1.000 1.000 1.000
v 91.0 -115.0 138.0 1.000 1.000 1.000
v 142.0 -96.0 64.0 1.000 1.000 1.000
v 98.0 -71.0 -75.0 1.000 1.000 1.000
v 142.0 -96.0 64.0 1.000 1.000 1.000
v 353.1657943725586 -196.35110473632812 13.0 1.000 1.000 1.000
v 234.1657943725586 -117.35110473632812 -64.0 1.000 1.000 1.000
v 268.1657943725586 -38.351104736328125 5.0 1.000 1.000 1.000
v 309.1657943725586 -132.35110473632812 118.0 1.000 1.000 1.000
v 289.1657943725586 -48.351104736328125 69.0 1.000 1.000 1.000
v 268.1657943725586 -38.351104736328125 5.0 1.000 1.000 1.000
v 289.1657943725586 -48.351104736328125 69.0 1.000 1.000 1.000
v 234.1657943725586 -117.35110473632812 -64.0 1.000 1.000 1.000
v 268.1657943725586 -38.351104736328125 5.0 1.000 1.000 1.000
v 353.1657943725586 -196.35110473632812 13.0 1.000 1.000 1.000
v 309.1657943725586 -132.35110473632812 118.0 1.000 1.000 1.000
v 289.1657943725586 -48.351104736328125 69.0 1.000 1.000 1.000
v 268.1657943725586 -38.351104736328125 5.0 1.000 1.000 1.000
v 289.1657943725586 -48.351104736328125 69.0 1.000 1.000 1.000
v 531.3251266479492 -38.095176696777344 -7.0 1.000 1.000 1.000
v 528.3251266479492 -123.09517669677734 -75.0 1.000 1.000 1.000
v 525.3251266479492 -197.09517669677734 14.0 1.000 1.000 1.000
v 515.3251266479492 -130.09517669677734 110.0 1.000 1.000 1.000
v 522.3251266479492 -37.095176696777344 69.0 1.000 1.000 1.000
v 531.3251266479492 -38.095176696777344 -7.0 1.000 1.000 1.000
v 522.3251266479492 -37.095176696777344 69.0 1.000 1.000 1.000
v 195.1657943725586 -153.35110473632812 124.0 1.000 1.000 1.000
v 196.1657943725586 -190.35110473632812 20.0 1.000 1.000 1.000
v 537.1657943725586 -136.35110473632812 87.0 1.000 1.000 1.000
v 531.1657943725586 -193.35110473632812 13.0 1.000 1.000 1.000
v 196.1657943725586 -119.35110473632812 -73.0 1.000 1.000 1.000
v 196.1657943725586 -51.351104736328125 27.0 1.000 1.000 1.000
v 528.1657943725586 -48.351104736328125 38.0 1.000 1.000 1.000
v 531.1657943725586 -115.35110473632812 -67.0 1.000 1.000 1.000
v 196.1657943725586 -119.35110473632812 -73.0 1.000 1.000 1.000
v 196.1657943725586 -190.35110473632812 20.0 1.000 1.000 1.000
v 195.1657943725586 -153.35110473632812 124.0 1.000 1.000 1.000
v 196.1657943725586 -51.351104736328125 27.0 1.000 1.000 1.000
v 531.1657943725586 -193.35110473632812 13.0 1.000 1.000 1.000
v 537.1657943725586 -136.35110473632812 87.0 1.000 1.000 1.000
v -785.0662807226181 342.1454210281372 55.0 1.000 1.000 1.000
v -744.0662807226181 414.1454210281372 -27.0 1.000 1.000 1.000
v -773.0662807226181 347.1454210281372 -44.0 1.000 1.000 1.000
v -756.0662807226181 439.1454210281372 52.0 1.000 1.000 1.000
v -744.0662807226181 414.1454210281372 -27.0 1.000 1.000 1.000
v -641.0662807226181 392.1454210281372 42.0 1.000 1.000 1.000
v -651.0662807226181 380.1454210281372 -27.0 1.000 1.000 1.000
v -756.0662807226181 439.1454210281372 52.0 1.000 1.000 1.000
v -651.0662807226181 380.1454210281372 -27.0 1.000 1.000 1.000
v -773.0662807226181 347.1454210281372 -44.0 1.000 1.000 1.000
v -744.0662807226181 414.1454210281372 -27.0 1.000 1.000 1.000
v -662.0662807226181 346.1454210281372 -39.0 1.000 1.000 1.000
v -641.0662807226181 392.1454210281372 42.0 1.000 1.000 1.000
v -785.0662807226181 342.1454210281372 55.0 1.000 1.000 1.000
v -645.0662807226181 339.1454210281372 38.0 1.000 1.000 1.000
v -756.0662807226181 439.1454210281372 52.0 1.000 1.000 1.000
v -773.0662807226181 347.1454210281372 -44.0 1.000 1.000 1.000
v -645.0662807226181 339.1454210281372 38.0 1.000 1.000 1.000
v -785.0662807226181 342.1454210281372 55.0 1.000 1.000 1.000
v -662.0662807226181 346.1454210281372 -39.0 1.000 1.000 1.000
v -475.19768941402435 319.83887100219727 45.0 1.000 1.000 1.000
v -481.19768941402435 382.83887100219727 50.0 1.000 1.000 1.000
v -476.19768941402435 316.83887100219727 -10.0 1.000 1.000 1.000
v -476.19768941402435 371.83887100219727 -46.0 1.000 1.000 1.000
v -475.19768941402435 422.83887100219727 5.0 1.000 1.000 1.000
v -645.0662807226181 339.1454210281372 38.0 1.000 1.000 1.000
v -662.0662807226181 346.1454210281372 -39.0 1.000 1.000 1.000
v -641.0662807226181 392.1454210281372 42.0 1.000 1.000 1.000
v -651.0662807226181 380.1454210281372 -27.0 1.000 1.000 1.000
v -403.19768941402435 405.83887100219727 6.0 1.000 1.000 1.000
v -404.19768941402435 371.83887100219727 -32.0 1.000 1.000 1.000
v -403.19768941402435 319.83887100219727 -10.0 1.000 1.000 1.000
v -403.19768941402435 326.83887100219727 51.0 1.000 1.000 1.000
v -403.19768941402435 402.83887100219727 49.0 1.000 1.000 1.000
v -475.19768941402435 422.83887100219727 5.0 1.000 1.000 1.000
v -476.19768941402435 371.83887100219727 -46.0 1.000 1.000 1.000
v -476.19768941402435 316.83887100219727 -10.0 1.000 1.000 1.000
v -475.19768941402435 319.83887100219727 45.0 1.000 1.000 1.000
v -481.19768941402435 382.83887100219727 50.0 1.000 1.000 1.000
v -391.19768941402435 313.83887100219727 85.0 1.000 1.000 1.000
v -397.19768941402435 414.83887100219727 89.0 1.000 1.000 1.000
v -667.1976894140244 342.83887100219727 42.0 1.000 1.000 1.000
v -667.1976894140244 349.83887100219727 -25.0 1.000 1.000 1.000
v -391.19768941402435 311.83887100219727 -28.0 1.000 1.000 1.000
v -670.1976894140244 405.83887100219727 42.0 1.000 1.000 1.000
v -397.19768941402435 427.83887100219727 -49.0 1.000 1.000 1.000
v -669.1976894140244 389.83887100219727 -27.0 1.000 1.000 1.000
v -391.19768941402435 313.83887100219727 85.0 1.000 1.000 1.000
v -391.19768941402435 311.83887100219727 -28.0 1.000 1.000 1.000
v -332.2357143163681 328.22493743896484 62.0 1.000 1.000 1.000
v -267.2357143163681 309.22493743896484 -16.0 1.000 1.000 1.000
v -257.2357143163681 307.22493743896484 67.0 1.000 1.000 1.000
v -181.2357143163681 366.22493743896484 88.0 1.000 1.000 1.000
v -326.2357143163681 376.22493743896484 81.0 1.000 1.000 1.000
v -259.2357143163681 378.22493743896484 -55.0 1.000 1.000 1.000
v -133.2357143163681 393.22493743896484 11.0 1.000 1.000 1.000
v -167.2357143163681 360.22493743896484 -67.0 1.000 1.000 1.000
v -325.2357143163681 305.22493743896484 -10.0 1.000 1.000 1.000
v -267.2357143163681 428.22493743896484 21.0 1.000 1.000 1.000
v -424.86859130859375 208.30655002593994 -17.0 1.000 1.000 1.000
v -423.86859130859375 221.30655002593994 68.0 1.000 1.000 1.000
v -426.86859130859375 354.30655002593994 -50.0 1.000 1.000 1.000
v -425.86859130859375 372.30655002593994 27.0 1.000 1.000 1.000
v -426.86859130859375 334.30655002593994 75.0 1.000 1.000 1.000
v -423.86859130859375 221.30655002593994 68.0 1.000 1.000 1.000
v -267.2357143163681 309.22493743896484 -16.0 1.000 1.000 1.000
v -257.2357143163681 307.22493743896484 67.0 1.000 1.000 1.000
v -167.2357143163681 360.22493743896484 -67.0 1.000 1.000 1.000
v -133.2357143163681 393.22493743896484 11.0 1.000 1.000 1.000
v -181.2357143163681 366.22493743896484 88.0 1.000 1.000 1.000
v -267.2357143163681 428.22493743896484 21.0 1.000 1.000 1.000
v -259.2357143163681 378.22493743896484 -55.0 1.000 1.000 1.000
v -325.2357143163681 305.22493743896484 -10.0 1.000 1.000 1.000
v -332.2357143163681 328.22493743896484 62.0 1.000 1.000 1.000
v -326.2357143163681 376.22493743896484 81.0 1.000 1.000 1.000
v -403.19768941402435 405.83887100219727 6.0 1.000 1.000 1.000
v -404.19768941402435 371.83887100219727 -32.0 1.000 1.000 1.000
v -403.19768941402435 319.83887100219727 -10.0 1.000 1.000 1.000
v -403.19768941402435 326.83887100219727 51.0 1.000 1.000 1.000
v -403.19768941402435 402.83887100219727 49.0 1.000 1.000 1.000
v -145.2357143163681 417.22493743896484 68.0 1.000 1.000 1.000
v -89.2357143163681 306.22493743896484 81.0 1.000 1.000 1.000
v -57.2357143163681 302.22493743896484 -45.0 1.000 1.000 1.000
v -141.2357143163681 431.22493743896484 -33.0 1.000 1.000 1.000
v -391.2357143163681 314.22493743896484 85.0 1.000 1.000 1.000
v -397.2357143163681 415.22493743896484 89.0 1.000 1.000 1.000
v -397.2357143163681 428.22493743896484 -49.0 1.000 1.000 1.000
v -391.2357143163681 311.22493743896484 -28.0 1.000 1.000 1.000
v -391.2357143163681 311.22493743896484 -28.0 1.000 1.000 1.000
v -391.2357143163681 314.22493743896484 85.0 1.000 1.000 1.000
v 370.1021728515625 -42.755651995539665 -42.76123380661011 1.000 1.000 1.000
v 339.1021728515625 22.244348004460335 -27.761233806610107 1.000 1.000 1.000
v 381.1021728515625 -46.755651995539665 57.23876619338989 1.000 1.000 1.000
v 349.1021728515625 47.244348004460335 51.23876619338989 1.000 1.000 1.000
v 246.1021728515625 -10.755651995539665 -28.761233806610107 1.000 1.000 1.000
v 235.1021728515625 3.2443480044603348 40.23876619338989 1.000 1.000 1.000
v 339.1021728515625 22.244348004460335 -27.761233806610107 1.000 1.000 1.000
v 349.1021728515625 47.244348004460335 51.23876619338989 1.000 1.000 1.000
v 339.1021728515625 22.244348004460335 -27.761233806610107 1.000 1.000 1.000
v 370.1021728515625 -42.755651995539665 -42.76123380661011 1.000 1.000 1.000
v 246.1021728515625 -10.755651995539665 -28.761233806610107 1.000 1.000 1.000
v 249.1021728515625 -43.755651995539665 -23.761233806610107 1.000 1.000 1.000
v 238.1021728515625 -49.755651995539665 37.23876619338989 1.000 1.000 1.000
v 381.1021728515625 -46.755651995539665 57.23876619338989 1.000 1.000 1.000
v 235.1021728515625 3.2443480044603348 40.23876619338989 1.000 1.000 1.000
v 349.1021728515625 47.244348004460335 51.23876619338989 1.000 1.000 1.000
v 381.1021728515625 -46.755651995539665 57.23876619338989 1.000 1.000 1.000
v 238.1021728515625 -49.755651995539665 37.23876619338989 1.000 1.000 1.000
v 370.1021728515625 -42.755651995539665 -42.76123380661011 1.000 1.000 1.000
v 249.1021728515625 -43.755651995539665 -23.761233806610107 1.000 1.000 1.000
v 489.6571079492569 378.8121757507324 53.07913017272949 1.000 1.000 1.000
v 483.6571079492569 302.8121757507324 50.07913017272949 1.000 1.000 1.000
v 484.6571079492569 298.8121757507324 -4.920869827270508 1.000 1.000 1.000
v 486.6571079492569 366.8121757507324 -41.92086982727051 1.000 1.000 1.000
v 484.6571079492569 418.8121757507324 7.079130172729492 1.000 1.000 1.000
v 238.1021728515625 -49.755651995539665 37.23876619338989 1.000 1.000 1.000
v 249.1021728515625 -43.755651995539665 -23.761233806610107 1.000 1.000 1.000
v 235.1021728515625 3.2443480044603348 40.23876619338989 1.000 1.000 1.000
v 246.1021728515625 -10.755651995539665 -28.761233806610107 1.000 1.000 1.000
v 411.6571079492569 400.8121757507324 7.079130172729492 1.000 1.000 1.000
v 413.6571079492569 366.8121757507324 -29.920869827270508 1.000 1.000 1.000
v 412.6571079492569 314.8121757507324 -6.920869827270508 1.000 1.000 1.000
v 410.6571079492569 322.8121757507324 53.07913017272949 1.000 1.000 1.000
v 411.6571079492569 398.8121757507324 50.07913017272949 1.000 1.000 1.000
v 486.6571079492569 366.8121757507324 -41.92086982727051 1.000 1.000 1.000
v 484.6571079492569 418.8121757507324 7.079130172729492 1.000 1.000 1.000
v 484.6571079492569 298.8121757507324 -4.920869827270508 1.000 1.000 1.000
v 483.6571079492569 302.8121757507324 50.07913017272949 1.000 1.000 1.000
v 489.6571079492569 378.8121757507324 53.07913017272949 1.000 1.000 1.000
v 673.6571079492569 325.8121757507324 50.07913017272949 1.000 1.000 1.000
v 402.6571079492569 398.8121757507324 91.07913017272949 1.000 1.000 1.000
v 396.6571079492569 297.8121757507324 89.07913017272949 1.000 1.000 1.000
v 398.6571079492569 292.8121757507324 -24.920869827270508 1.000 1.000 1.000
v 674.6571079492569 330.8121757507324 -16.920869827270508 1.000 1.000 1.000
v 404.6571079492569 408.8121757507324 -46.92086982727051 1.000 1.000 1.000
v 676.6571079492569 388.8121757507324 49.07913017272949 1.000 1.000 1.000
v 676.6571079492569 370.8121757507324 -19.920869827270508 1.000 1.000 1.000
v 396.6571079492569 297.8121757507324 89.07913017272949 1.000 1.000 1.000
v 398.6571079492569 292.8121757507324 -24.920869827270508 1.000 1.000 1.000
v 263.85553324222565 309.87169647216797 70.0 1.000 1.000 1.000
v 274.85553324222565 304.87169647216797 -12.0 1.000 1.000 1.000
v 339.85553324222565 325.87169647216797 62.0 1.000 1.000 1.000
v 333.85553324222565 373.87169647216797 80.0 1.000 1.000 1.000
v 186.85553324222565 363.87169647216797 89.0 1.000 1.000 1.000
v 175.85553324222565 354.87169647216797 -66.0 1.000 1.000 1.000
v 139.85553324222565 388.87169647216797 10.0 1.000 1.000 1.000
v 268.85553324222565 372.87169647216797 -57.0 1.000 1.000 1.000
v 333.85553324222565 298.87169647216797 -10.0 1.000 1.000 1.000
v 274.85553324222565 424.87169647216797 18.0 1.000 1.000 1.000
v -64.86859130859375 219.30655002593994 68.0 1.000 1.000 1.000
v -67.86859130859375 209.30655002593994 -15.0 1.000 1.000 1.000
v -66.86859130859375 353.30655002593994 -49.0 1.000 1.000 1.000
v -66.86859130859375 375.30655002593994 26.0 1.000 1.000 1.000
v -67.86859130859375 335.30655002593994 75.0 1.000 1.000 1.000
v 263.85553324222565 309.87169647216797 70.0 1.000 1.000 1.000
v 274.85553324222565 304.87169647216797 -12.0 1.000 1.000 1.000
v 175.85553324222565 354.87169647216797 -66.0 1.000 1.000 1.000
v 139.85553324222565 388.87169647216797 10.0 1.000 1.000 1.000
v 186.85553324222565 363.87169647216797 89.0 1.000 1.000 1.000
v 274.85553324222565 424.87169647216797 18.0 1.000 1.000 1.000
v 268.85553324222565 372.87169647216797 -57.0 1.000 1.000 1.000
v 333.85553324222565 298.87169647216797 -10.0 1.000 1.000 1.000
v 339.85553324222565 325.87169647216797 62.0 1.000 1.000 1.000
v 333.85553324222565 373.87169647216797 80.0 1.000 1.000 1.000
v 413.6571079492569 366.8121757507324 -29.920869827270508 1.000 1.000 1.000
v 411.6571079492569 400.8121757507324 7.079130172729492 1.000 1.000 1.000
v 412.6571079492569 314.8121757507324 -6.920869827270508 1.000 1.000 1.000
v 410.6571079492569 322.8121757507324 53.07913017272949 1.000 1.000 1.000
v 411.6571079492569 398.8121757507324 50.07913017272949 1.000 1.000 1.000
v 94.85553324222565 289.87169647216797 80.0 1.000 1.000 1.000
v 64.85553324222565 283.87169647216797 -47.0 1.000 1.000 1.000
v 396.85553324222565 297.87169647216797 89.0 1.000 1.000 1.000
v 402.85553324222565 398.87169647216797 91.0 1.000 1.000 1.000
v 151.85553324222565 400.87169647216797 66.0 1.000 1.000 1.000
v 148.85553324222565 412.87169647216797 -35.0 1.000 1.000 1.000
v 404.85553324222565 408.87169647216797 -47.0 1.000 1.000 1.000
v 398.85553324222565 292.87169647216797 -25.0 1.000 1.000 1.000
v 398.85553324222565 292.87169647216797 -25.0 1.000 1.000 1.000
v 396.85553324222565 297.87169647216797 89.0 1.000 1.000 1.000
v -254.86859130859375 376.30655002593994 70.0 1.000 1.000 1.000
v -198.86859130859375 437.30655002593994 0.0 1.000 1.000 1.000
v -304.86859130859375 437.30655002593994 0.0 1.000 1.000 1.000
v -198.86859130859375 437.30655002593994 0.0 1.000 1.000 1.000
v -226.86859130859375 413.30655002593994 -45.0 1.000 1.000 1.000
v -304.86859130859375 437.30655002593994 0.0 1.000 1.000 1.000
v -304.86859130859375 437.30655002593994 0.0 1.000 1.000 1.000
v -288.86859130859375 414.30655002593994 -41.0 1.000 1.000 1.000
v -6.576026916503906 442.42901611328125 73.0 1.000 1.000 1.000
v -51.576026916503906 469.42901611328125 44.0 1.000 1.000 1.000
v 49.423973083496094 468.42901611328125 44.0 1.000 1.000 1.000
v 27.423973083496094 480.42901611328125 -37.0 1.000 1.000 1.000
v -51.576026916503906 469.42901611328125 44.0 1.000 1.000 1.000
v -46.576026916503906 482.42901611328125 -31.0 1.000 1.000 1.000
v -46.576026916503906 482.42901611328125 -31.0 1.000 1.000 1.000
v -198.86859130859375 437.30655002593994 0.0 1.000 1.000 1.000
v 27.423973083496094 480.42901611328125 -37.0 1.000 1.000 1.000
v 49.423973083496094 468.42901611328125 44.0 1.000 1.000 1.000
v -66.86859130859375 375.30655002593994 26.0 1.000 1.000 1.000
v -198.86859130859375 437.30655002593994 0.0 1.000 1.000 1.000
v -254.86859130859375 376.30655002593994 70.0 1.000 1.000 1.000
v -426.86859130859375 334.30655002593994 75.0 1.000 1.000 1.000
v -251.86859130859375 244.30655002593994 170.0 1.000 1.000 1.000
v -67.86859130859375 335.30655002593994 75.0 1.000 1.000 1.000
v -91.86859130859375 231.30655002593994 142.0 1.000 1.000 1.000
v -399.86859130859375 231.30655002593994 142.0 1.000 1.000 1.000
v -404.86859130859375 86.30655002593994 20.0 1.000 1.000 1.000
v -327.86859130859375 104.30655002593994 144.0 1.000 1.000 1.000
v -304.86859130859375 437.30655002593994 0.0 1.000 1.000 1.000
v -425.86859130859375 372.30655002593994 27.0 1.000 1.000 1.000
v -172.86859130859375 104.30655002593994 144.0 1.000 1.000 1.000
v -424.86859130859375 208.30655002593994 -17.0 1.000 1.000 1.000
v -423.86859130859375 221.30655002593994 68.0 1.000 1.000 1.000
v -64.86859130859375 219.30655002593994 68.0 1.000 1.000 1.000
v -64.86859130859375 219.30655002593994 68.0 1.000 1.000 1.000
v -91.86859130859375 231.30655002593994 142.0 1.000 1.000 1.000
v -90.86859130859375 85.30655002593994 21.0 1.000 1.000 1.000
v -251.86859130859375 244.30655002593994 170.0 1.000 1.000 1.000
v -399.86859130859375 231.30655002593994 142.0 1.000 1.000 1.000
v -327.86859130859375 104.30655002593994 144.0 1.000 1.000 1.000
v -426.86859130859375 334.30655002593994 75.0 1.000 1.000 1.000
v -423.86859130859375 221.30655002593994 68.0 1.000 1.000 1.000
v -404.86859130859375 86.30655002593994 20.0 1.000 1.000 1.000
v -67.86859130859375 209.30655002593994 -15.0 1.000 1.000 1.000
v -172.86859130859375 104.30655002593994 144.0 1.000 1.000 1.000
v -250.86859130859375 185.30655002593994 -84.0 1.000 1.000 1.000
v -139.86859130859375 90.30655002593994 -68.0 1.000 1.000 1.000
v -367.86859130859375 89.30655002593994 -66.0 1.000 1.000 1.000
v -320.86859130859375 336.30655002593994 -96.0 1.000 1.000 1.000
v -354.86859130859375 197.30655002593994 -74.0 1.000 1.000 1.000
v -160.86859130859375 196.30655002593994 -80.0 1.000 1.000 1.000
v -67.86859130859375 209.30655002593994 -15.0 1.000 1.000 1.000
v -139.86859130859375 90.30655002593994 -68.0 1.000 1.000 1.000
v -66.86859130859375 353.30655002593994 -49.0 1.000 1.000 1.000
v -426.86859130859375 354.30655002593994 -50.0 1.000 1.000 1.000
v -425.86859130859375 372.30655002593994 27.0 1.000 1.000 1.000
v -304.86859130859375 437.30655002593994 0.0 1.000 1.000 1.000
v -169.86859130859375 336.30655002593994 -96.0 1.000 1.000 1.000
v -250.86859130859375 185.30655002593994 -84.0 1.000 1.000 1.000
v -320.86859130859375 336.30655002593994 -96.0 1.000 1.000 1.000
v -226.86859130859375 413.30655002593994 -45.0 1.000 1.000 1.000
v -312.86859130859375 386.30655002593994 -48.0 1.000 1.000 1.000
v -288.86859130859375 414.30655002593994 -41.0 1.000 1.000 1.000
v -198.86859130859375 437.30655002593994 0.0 1.000 1.000 1.000
v -183.86859130859375 387.30655002593994 -48.0 1.000 1.000 1.000
v -66.86859130859375 375.30655002593994 26.0 1.000 1.000 1.000
v -367.86859130859375 89.30655002593994 -66.0 1.000 1.000 1.000
v -404.86859130859375 86.30655002593994 20.0 1.000 1.000 1.000
v -424.86859130859375 208.30655002593994 -17.0 1.000 1.000 1.000
v -139.86859130859375 90.30655002593994 -68.0 1.000 1.000 1.000
v -67.86859130859375 209.30655002593994 -15.0 1.000 1.000 1.000
v -90.86859130859375 85.30655002593994 21.0 1.000 1.000 1.000
v -198.86859130859375 437.30655002593994 0.0 1.000 1.000 1.000
v -66.86859130859375 353.30655002593994 -49.0 1.000 1.000 1.000
v -169.86859130859375 336.30655002593994 -96.0 1.000 1.000 1.000
v -183.86859130859375 387.30655002593994 -48.0 1.000 1.000 1.000
v -160.86859130859375 196.30655002593994 -80.0 1.000 1.000 1.000
v -250.86859130859375 185.30655002593994 -84.0 1.000 1.000 1.000
v -354.86859130859375 197.30655002593994 -74.0 1.000 1.000 1.000
v -426.86859130859375 354.30655002593994 -50.0 1.000 1.000 1.000
v -320.86859130859375 336.30655002593994 -96.0 1.000 1.000 1.000
v 84.1779819726944 63.144371032714844 163.0 1.000 1.000 1.000
v -75.8220180273056 59.144371032714844 160.0 1.000 1.000 1.000
v -149.8220180273056 67.14437103271484 28.0 1.000 1.000 1.000
v 160.1779819726944 70.14437103271484 30.0 1.000 1.000 1.000
v -149.8220180273056 67.14437103271484 28.0 1.000 1.000 1.000
v -95.8220180273056 74.14437103271484 -59.0 1.000 1.000 1.000
v 106.1779819726944 75.14437103271484 -62.0 1.000 1.000 1.000
v 160.1779819726944 70.14437103271484 30.0 1.000 1.000 1.000
v -172.86859130859375 104.30655002593994 144.0 1.000 1.000 1.000
v -327.86859130859375 104.30655002593994 144.0 1.000 1.000 1.000
v -90.86859130859375 85.30655002593994 21.0 1.000 1.000 1.000
v -404.86859130859375 86.30655002593994 20.0 1.000 1.000 1.000
v -404.86859130859375 86.30655002593994 20.0 1.000 1.000 1.000
v -367.86859130859375 89.30655002593994 -66.0 1.000 1.000 1.000
v -139.86859130859375 90.30655002593994 -68.0 1.000 1.000 1.000
v -90.86859130859375 85.30655002593994 21.0 1.000 1.000 1.000
v -63.86859130859375 387.30655002593994 148.0 1.000 1.000 1.000
v -461.86859130859375 424.30655002593994 -72.0 1.000 1.000 1.000
v -441.86859130859375 384.30655002593994 147.0 1.000 1.000 1.000
v -63.86859130859375 387.30655002593994 148.0 1.000 1.000 1.000
v -402.86859130859375 -15.693449974060059 128.0 1.000 1.000 1.000
v -104.86859130859375 -14.693449974060059 128.0 1.000 1.000 1.000
v -42.86859130859375 427.30655002593994 -70.0 1.000 1.000 1.000
v -402.86859130859375 -20.69344997406006 -21.0 1.000 1.000 1.000
v -402.86859130859375 -15.693449974060059 128.0 1.000 1.000 1.000
v -461.86859130859375 424.30655002593994 -72.0 1.000 1.000 1.000
v -104.86859130859375 -18.69344997406006 -21.0 1.000 1.000 1.000
v -42.86859130859375 427.30655002593994 -70.0 1.000 1.000 1.000
v -104.86859130859375 -14.693449974060059 128.0 1.000 1.000 1.000
v -441.86859130859375 384.30655002593994 147.0 1.000 1.000 1.000
v -63.86859130859375 387.30655002593994 148.0 1.000 1.000 1.000
v -402.86859130859375 -20.69344997406006 -21.0 1.000 1.000 1.000
v -104.86859130859375 -18.69344997406006 -21.0 1.000 1.000 1.000
v -402.86859130859375 -15.693449974060059 128.0 1.000 1.000 1.000
v -104.86859130859375 -14.693449974060059 128.0 1.000 1.000 1.000
v -42.86859130859375 427.30655002593994 -70.0 1.000 1.000 1.000
v -104.86859130859375 -18.69344997406006 -21.0 1.000 1.000 1.000
v -402.86859130859375 -20.69344997406006 -21.0 1.000 1.000 1.000
v -461.86859130859375 424.30655002593994 -72.0 1.000 1.000 1.000
v -142.0 -96.0 65.0 1.000 1.000 1.000
v -90.0 -118.0 138.0 1.000 1.000 1.000
v -63.0 2.0 133.0 1.000 1.000 1.000
v 92.0 20.0 -73.0 1.000 1.000 1.000
v 135.0 19.0 19.0 1.000 1.000 1.000
v 98.0 -71.0 -75.0 1.000 1.000 1.000
v 63.0 5.0 133.0 1.000 1.000 1.000
v 91.0 -115.0 138.0 1.000 1.000 1.000
v 142.0 -96.0 64.0 1.000 1.000 1.000
v 0.0 -173.0 -69.0 1.000 1.000 1.000
v 0.0 -182.0 111.0 1.000 1.000 1.000
v -36.0 -175.0 -65.0 1.000 1.000 1.000
v 0.0 -173.0 -69.0 1.000 1.000 1.000
v 0.0 -68.0 -86.0 1.000 1.000 1.000
v 34.0 -176.0 -66.0 1.000 1.000 1.000
v -90.0 -118.0 138.0 1.000 1.000 1.000
v 0.0 -182.0 111.0 1.000 1.000 1.000
v 1.0 -117.0 138.0 1.000 1.000 1.000
v 0.0 -182.0 111.0 1.000 1.000 1.000
v 91.0 -115.0 138.0 1.000 1.000 1.000
v 1.0 -117.0 138.0 1.000 1.000 1.000
v -92.0 -70.0 -73.0 1.000 1.000 1.000
v 0.0 -68.0 -86.0 1.000 1.000 1.000
v -36.0 -175.0 -65.0 1.000 1.000 1.000
v 0.0 -173.0 -69.0 1.000 1.000 1.000
v 0.0 -68.0 -86.0 1.000 1.000 1.000
v 92.0 20.0 -73.0 1.000 1.000 1.000
v 98.0 -71.0 -75.0 1.000 1.000 1.000
v -63.0 2.0 133.0 1.000 1.000 1.000
v -2.0 -1.0 143.0 1.000 1.000 1.000
v -132.0 18.0 20.0 1.000 1.000 1.000
v -142.0 -96.0 65.0 1.000 1.000 1.000
v -63.0 2.0 133.0 1.000 1.000 1.000
v 34.0 -176.0 -66.0 1.000 1.000 1.000
v 0.0 -182.0 111.0 1.000 1.000 1.000
v 0.0 -173.0 -69.0 1.000 1.000 1.000
v 91.0 -115.0 138.0 1.000 1.000 1.000
v 63.0 5.0 133.0 1.000 1.000 1.000
v -2.0 -1.0 143.0 1.000 1.000 1.000
v 0.0 -68.0 -86.0 1.000 1.000 1.000
v -1.0 14.0 -74.0 1.000 1.000 1.000
v 92.0 20.0 -73.0 1.000 1.000 1.000
v 98.0 -71.0 -75.0 1.000 1.000 1.000
v 135.0 19.0 19.0 1.000 1.000 1.000
v 142.0 -96.0 64.0 1.000 1.000 1.000
v 0.0 -68.0 -86.0 1.000 1.000 1.000
v 98.0 -71.0 -75.0 1.000 1.000 1.000
v 34.0 -176.0 -66.0 1.000 1.000 1.000
v -2.0 -1.0 143.0 1.000 1.000 1.000
v 1.0 -117.0 138.0 1.000 1.000 1.000
v 91.0 -115.0 138.0 1.000 1.000 1.000
v -2.0 -1.0 143.0 1.000 1.000 1.000
v -90.0 -118.0 138.0 1.000 1.000 1.000
v 1.0 -117.0 138.0 1.000 1.000 1.000
v 135.0 19.0 19.0 1.000 1.000 1.000
v 63.0 5.0 133.0 1.000 1.000 1.000
v 142.0 -96.0 64.0 1.000 1.000 1.000
v -85.0 7.0 -72.0 1.000 1.000 1.000
v -1.0 14.0 -74.0 1.000 1.000 1.000
v 0.0 -68.0 -86.0 1.000 1.000 1.000
v -132.0 18.0 20.0 1.000 1.000 1.000
v -92.0 -70.0 -73.0 1.000 1.000 1.000
v -142.0 -96.0 65.0 1.000 1.000 1.000
v -85.0 7.0 -72.0 1.000 1.000 1.000
v 0.0 -68.0 -86.0 1.000 1.000 1.000
v -92.0 -70.0 -73.0 1.000 1.000 1.000
v -132.0 18.0 20.0 1.000 1.000 1.000
v -2.0 -1.0 143.0 1.000 1.000 1.000
v -63.0 2.0 133.0 1.000 1.000 1.000
v 135.0 19.0 19.0 1.000 1.000 1.000
v 63.0 5.0 133.0 1.000 1.000 1.000
v -132.0 18.0 20.0 1.000 1.000 1.000
v -132.0 18.0 20.0 1.000 1.000 1.000
v -1.0 14.0 -74.0 1.000 1.000 1.000
v 92.0 20.0 -73.0 1.000 1.000 1.000
v 135.0 19.0 19.0 1.000 1.000 1.000
v 84.1779819726944 63.144371032714844 163.0 1.000 1.000 1.000
v -75.8220180273056 59.144371032714844 160.0 1.000 1.000 1.000
v 160.1779819726944 70.14437103271484 30.0 1.000 1.000 1.000
v -149.8220180273056 67.14437103271484 28.0 1.000 1.000 1.000
v -149.8220180273056 67.14437103271484 28.0 1.000 1.000 1.000
v -95.8220180273056 74.14437103271484 -59.0 1.000 1.000 1.000
v 106.1779819726944 75.14437103271484 -62.0 1.000 1.000 1.000
v 135.0 19.0 19.0 1.000 1.000 1.000
v -85.0 7.0 -72.0 1.000 1.000 1.000
v -1.0 14.0 -74.0 1.000 1.000 1.000
v -132.0 18.0 20.0 1.000 1.000 1.000
v 106.1779819726944 75.14437103271484 -62.0 1.000 1.000 1.000
v 160.1779819726944 70.14437103271484 30.0 1.000 1.000 1.000
v -95.8220180273056 74.14437103271484 -59.0 1.000 1.000 1.000
v -131.0 25.0 141.0 1.000 1.000 1.000
v -147.0 -199.0 132.0 1.000 1.000 1.000
v 147.0 -198.0 143.0 1.000 1.000 1.000
v -145.0 -199.0 -80.0 1.000 1.000 1.000
v -142.0 20.0 -35.0 1.000 1.000 1.000
v 138.0 21.0 -37.0 1.000 1.000 1.000
v 142.0 -198.0 -80.0 1.000 1.000 1.000
v 147.0 -198.0 143.0 1.000 1.000 1.000
v 135.0 25.0 141.0 1.000 1.000 1.000
v 135.0 25.0 141.0 1.000 1.000 1.000
v -142.0 20.0 -35.0 1.000 1.000 1.000
v 135.0 25.0 141.0 1.000 1.000 1.000
v 138.0 21.0 -37.0 1.000 1.000 1.000
v -131.0 25.0 141.0 1.000 1.000 1.000
v -147.0 -199.0 132.0 1.000 1.000 1.000
vt 0.0352 1.0127
vt 0.0592 1.0107
vt 0.9596 0.9297
vt 0.9941 0.9268
vt 0.9030 0.5625
vt 0.2676 0.0723
vt 0.0938 0.0732
vt 0.9922 0.5752
vt 0.0495 0.0898
vt 0.3490 0.0557
vt 0.3701 0.6712
vt 0.3242 0.9889
vt 0.6611 1.0039
vt 0.8262 0.7077
vt 0.6494 0.7005
vt 0.3643 0.6862
vt 0.6084 0.6953
vt 0.3232 0.9902
vt 0.7783 1.0085
vt 0.8809 -0.6680
vt 0.6680 -0.6914
vt 0.5342 -1.5137
vt 0.8838 -1.5381
vt 0.4561 0.4346
vt 0.5010 0.4873
vt 0.4463 0.3359
vt 0.4639 0.2744
vt 0.3994 0.3691
vt 0.3564 0.3057
vt 0.4131 0.4531
vt 0.3555 0.4932
vt 0.8545 0.5723
vt 0.3838 0.5586
vt 0.6270 0.5664
vt 0.3984 0.5430
vt 0.6631 0.5579
vt 0.8916 -0.3369
vt 0.6748 -0.3623
vt 0.6338 0.9863
vt 0.4863 0.5553
vt 0.4102 0.9857
vt 0.0352 0.5456
vt 0.3760 0.5495
vt 0.4648 0.9609
vt 0.7734 0.5514
vt 0.6738 0.9609
vt 0.6982 0.3574
vt 0.9150 0.2415
vt 0.6572 0.1680
vt 0.8076 0.2305
vt 0.8857 0.4076
vt 0.6855 0.2832
vt 0.4316 0.3053
vt 0.6582 0.1217
vt 0.5049 0.1400
vt 0.4492 0.3236
vt 0.7227 0.2910
vt 0.9014 0.2324
vt 0.9033 0.7109
vt 0.5273 0.8037
vt 0.6943 0.2240
vt 0.5078 0.2259
vt 0.3750 0.2220
vt -0.0127 0.2207
vt 0.9674 0.9297
vt 0.0775 1.0029
vt 0.0540 1.0049
vt 1.0013 0.9268
vt 0.2357 0.0557
vt 0.8919 0.5576
vt 0.9818 0.5703
vt 0.0632 0.0547
vt 0.0202 0.0713
vt 0.3158 0.0391
vt 0.5859 0.9622
vt 0.2168 0.9622
vt 0.2969 0.6576
vt 0.5967 0.6764
vt 0.7979 0.6745
vt 0.2197 0.9622
vt 0.5664 0.6738
vt 0.2910 0.6745
vt 0.6992 0.9622
vt 0.3262 -1.2520
vt 0.4707 -0.4688
vt 0.6982 -0.4229
vt 0.6934 -1.2461
vt 0.5889 0.4482
vt 0.6455 0.4844
vt 0.6016 0.3633
vt 0.6465 0.2979
vt 0.5547 0.3330
vt 0.5352 0.2725
vt 0.5449 0.4326
vt 0.6260 0.5352
vt 0.3301 0.5410
vt 0.5996 0.5475
vt 0.3301 0.5488
vt 0.8350 0.5449
vt 0.4834 -0.1475
vt 0.7100 -0.1230
vt 0.4941 1.0130
vt 0.2949 0.5944
vt 0.2080 1.0150
vt 0.4170 0.9902
vt 0.4346 0.5885
vt 0.8691 0.5840
vt -0.0732 0.5918
vt 0.1523 0.9902
vt 0.9355 0.2285
vt 0.8291 0.2220
vt 0.8838 0.3867
vt 0.6582 0.1243
vt 0.6689 0.2773
vt 0.4102 0.3073
vt 0.6943 0.3457
vt 0.6660 0.1660
vt 0.4336 0.3268
vt 0.5127 0.1471
vt 0.5352 0.4736
vt 0.3135 0.9414
vt 0.7227 0.8887
vt 0.7246 0.4277
vt 0.1895 0.2741
vt -0.0488 0.2728
vt 0.3594 0.2695
vt 0.8535 0.2676
vt 0.8828 -0.4951
vt 0.1152 -1.0254
vt -0.0098 -0.4492
vt 0.8145 -1.3018
vt 0.0928 0.4150
vt 0.7715 0.8232
vt 0.2041 0.9111
vt 0.7100 0.1875
vt 0.5732 0.9844
vt 0.7832 0.0938
vt 0.1084 0.4932
vt 0.9141 0.8076
vt 0.0352 0.1396
vt 0.9951 0.9424
vt 0.4414 0.0869
vt 0.1582 0.9043
vt 1.0098 0.1670
vt 0.1826 1.3281
vt 0.1201 0.1094
vt 0.8955 1.1377
vt 0.1680 0.6790
vt 0.6025 0.6758
vt 0.3203 0.9661
vt 0.3711 0.9948
vt 0.1494 0.6803
vt 0.5283 0.6699
vt 0.6826 0.9486
vt 0.8809 0.6569
vt 0.5996 0.9688
vt 0.7539 0.5365
vt 0.5215 0.5456
vt 0.1611 0.5553
vt 0.2090 0.5527
vt 0.7324 0.5371
vt 0.9189 0.5625
vt 1.4385 0.5684
vt 0.7139 0.9824
vt 0.7480 0.9824
vt 0.9043 0.5625
vt 1.0400 0.9844
vt 1.5039 0.5677
vt 0.9551 0.9844
vt 0.2139 0.4316
vt 0.0732 0.3236
vt 0.0586 0.3066
vt 0.4639 0.1634
vt 0.5430 0.4108
vt 0.5498 0.2949
vt 0.6406 0.0755
vt 0.4170 0.1413
vt 0.0557 0.4238
vt 0.8965 0.2975
vt 0.0449 0.3262
vt 0.0557 0.3105
vt 0.0469 0.0749
vt 0.0371 0.0436
vt 0.0508 0.1094
vt 0.0576 0.2852
vt 1.7715 0.1842
vt 1.2666 0.1016
vt 1.2861 0.0540
vt 1.8496 0.1777
vt 0.9355 0.2471
vt 0.8301 -0.3896
vt 0.0479 0.2529
vt 0.1416 -0.6650
vt 0.2412 0.9590
vt 0.7930 0.9385
vt 0.0938 0.3730
vt 0.6846 0.2012
vt 0.0234 0.4814
vt 0.8164 0.1025
vt 0.4004 1.0088
vt 0.8105 0.9004
vt 0.4902 0.0283
vt 0.9824 0.9189
vt 0.0674 0.1025
vt 0.1357 0.8994
vt -0.0068 0.0684
vt 0.3066 1.1777
vt 0.9951 0.1582
vt 0.9092 1.1025
vt 0.3486 0.9805
vt 0.6611 0.6953
vt 0.0889 0.6823
vt 0.0684 0.6829
vt 0.4014 0.9974
vt 0.5791 0.6868
vt 0.9629 0.6868
vt 0.7422 0.9759
vt 0.6523 0.9935
vt 0.8223 0.5579
vt 0.5684 0.5586
vt 0.1768 0.5553
vt 0.2295 0.5547
vt 0.7988 0.5573
vt 0.3359 0.9902
vt 0.8125 0.5638
vt 0.1475 0.5618
vt 0.1299 0.5612
vt 0.3789 0.9896
vt 0.8955 0.5632
vt 0.7529 0.9902
vt 0.6445 0.9909
vt 0.1094 0.2936
vt 0.0811 0.3105
vt 0.2393 0.4284
vt 0.5967 0.4199
vt 0.5039 0.1595
vt 0.4521 0.1354
vt 0.6934 0.0755
vt 0.6016 0.3001
vt 0.0498 0.4147
vt 0.9795 0.3164
vt 0.0791 0.2917
vt 0.0586 0.3092
vt 0.0469 0.0540
vt 0.0459 0.0156
vt 0.0449 0.0879
vt 0.0977 0.0911
vt 0.0713 0.0417
vt 0.8262 0.1712
vt 0.9170 0.1641
vt 0.4326 1.0892
vt 0.3887 0.5794
vt -0.0068 0.3828
vt 0.9043 0.6230
vt 0.8613 0.3757
vt -0.0059 0.6380
vt 0.2432 0.3366
vt -0.0127 0.7493
vt 0.2666 0.9629
vt 0.2529 0.2975
vt 0.2764 0.1146
vt 0.3193 0.0475
vt 1.0518 0.7487
vt 0.9873 0.3262
vt 0.8945 0.9538
vt 0.9473 0.2611
vt 0.8037 0.0280
vt 0.9365 0.0846
vt 0.9209 0.1055
vt 0.5889 0.0026
vt 0.4951 0.1146
vt 0.0938 0.1986
vt 0.4863 0.3607
vt 0.9160 0.1823
vt 0.8516 0.3783
vt 0.1494 0.3913
vt 0.1533 0.6641
vt 0.3174 0.6302
vt 0.4170 0.0072
vt 0.0996 0.1257
vt 0.6445 0.6237
vt 0.0898 0.4355
vt 0.0859 0.4147
vt 0.9131 0.3997
vt 0.8135 0.6536
vt 0.9053 0.4186
vt 0.5117 0.4980
vt 0.7227 0.6908
vt 0.2637 0.6745
vt 0.3789 0.1960
vt 0.2852 0.4635
vt 0.7109 0.4831
vt 0.9141 0.4655
vt 0.9346 0.1836
vt 0.1484 0.1504
vt 0.1533 0.1152
vt 0.4248 -0.0013
vt 0.7090 0.2077
vt 0.5938 0.0514
vt 0.4023 0.0970
vt 0.4570 0.0443
vt 0.6562 0.0085
vt 0.6826 0.1081
vt 0.9385 0.1406
vt 0.1895 0.6777
vt 0.1348 0.4362
vt 0.8203 0.7051
vt 0.6406 0.7754
vt 0.3057 0.7865
vt 0.1836 0.7767
vt 0.7695 0.7611
vt 0.2148 0.7969
vt 0.2949 0.7865
vt 0.6963 0.8008
vt 0.7754 0.8138
vt 0.9668 0.1478
vt -0.0205 0.0664
vt 0.0303 0.1504
vt 0.1279 0.9727
vt 0.8672 0.9746
vt 1.0176 0.0671
vt 0.1289 0.9818
vt 0.8672 0.9837
vt 0.0000 0.0391
vt 0.1855 0.9701
vt 0.9033 0.9707
vt 1.0098 0.0417
vt 0.5938 0.4238
vt 0.3740 0.5518
vt 0.2656 -0.1396
vt 0.4395 -0.1934
vt 0.5869 -0.1836
vt 0.4473 0.2734
vt 0.6943 -0.0703
vt 0.5850 0.3174
vt 0.3867 0.2705
vt 0.9531 0.5410
vt 0.9541 0.5703
vt 0.8105 0.5449
vt 0.0938 0.7939
vt 0.1123 0.2529
vt 0.2119 0.8105
vt -0.0029 0.9219
vt -0.0039 0.5430
vt 0.9443 0.5000
vt 0.9404 0.2939
vt 0.5898 0.1982
vt 0.8818 0.2041
vt 0.7422 0.6152
vt 0.8555 0.6113
vt 0.0107 -0.1260
vt 0.5547 -0.2344
vt 1.1953 0.2725
vt 0.9551 0.3018
vt 0.9570 0.2871
vt 0.9502 -0.0713
vt 0.1211 -0.1729
vt 0.9893 0.3721
vt 0.6865 -0.2305
vt 0.5361 0.5078
vt 0.4141 -0.0908
vt 0.6309 -0.1006
vt 0.8965 -0.1162
vt 0.8193 -0.2529
vt 0.5068 0.3242
vt 0.9766 0.4805
vt 0.4854 -0.1504
vt 0.4570 0.8991
vt 0.3174 0.8971
vt 0.7705 0.8568
vt 0.6064 0.8848
vt 0.1611 0.8685
vt 0.1904 0.8906
vt 0.4766 0.9102
vt 0.6797 0.9076
vt 0.7734 0.9141
vt 0.2920 0.9167
vt 0.1240 -0.0527
vt 0.0566 0.8242
vt 0.9502 0.8213
vt 0.0625 0.8262
vt 0.0918 -0.0322
vt 0.9414 -0.0391
vt 0.9346 0.8213
vt 0.9326 -0.0566
vn 0.577 0.577 0.577
vn 0.577 0.577 0.577
vn -0.577 -0.577 -0.577
vn -0.577 -0.577 -0.577
vn -0.577 -0.577 -0.577
vn 0.577 0.577 0.577
vn 0.577 0.577 0.577
vn -0.577 -0.577 -0.577
vn 0.577 0.577 0.577
vn 0.577 0.577 0.577
vn 0.577 0.577 0.577
vn 0.577 0.577 0.577
vn 0.577 0.577 0.577
vn 0.577 0.577 0.577
vn -0.577 -0.577 -0.577
vn 0.577 0.577 0.577
vn 0.019 -0.091 -0.996
vn 0.577 0.577 0.577
vn 0.577 0.577 0.577
vn 0.577 0.577 0.577
vn 0.577 0.577 0.577
vn 0.577 0.577 0.577
vn 0.577 0.577 0.577
vn 0.577 0.577 0.577
vn 0.577 0.577 0.577
vn 0.577 0.577 0.577
vn 0.577 0.577 0.577
vn 0.577 0.577 0.577
vn 0.577 0.577 0.577
vn 0.577 0.577 0.577
vn 0.577 0.577 0.577
vn 0.577 0.577 0.577
vn 0.577 0.577 0.577
vn -0.577 -0.577 -0.577
vn 0.577 0.577 0.577
vn -0.577 -0.577 -0.577
vn 0.577 0.577 0.577
vn 0.577 0.577 0.577
vn -0.577 -0.577 -0.577
vn 0.577 0.577 0.577
vn 0.577 0.577 0.577
vn 0.577 0.577 0.577
vn 0.014 -0.424 -0.905
vn 0.577 0.577 0.577
vn 0.577 0.577 0.577
vn -0.577 -0.577 -0.577
vn -0.577 -0.577 -0.577
vn -0.577 -0.577 -0.577
vn 0.577 0.577 0.577
vn -0.577 -0.577 -0.577
vn -0.577 -0.577 -0.577
vn -0.577 -0.577 -0.577
vn -0.577 -0.577 -0.577
vn -0.577 -0.577 -0.577
vn -0.577 -0.577 -0.577
vn 0.577 0.577 0.577
vn -0.577 -0.577 -0.577
vn 0.577 0.577 0.577
vn -0.577 -0.577 -0.577
vn -0.577 -0.577 -0.577
vn -0.577 -0.577 -0.577
vn -0.577 -0.577 -0.577
vn -0.577 -0.577 -0.577
vn 0.577 0.577 0.577
vn -0.175 -0.144 -0.974
vn -0.253 0.541 -0.802
vn 0.066 0.758 0.649
vn 0.331 0.908 0.256
vn 0.367 0.911 0.191
vn 0.035 0.632 -0.774
vn 0.033 -0.081 -0.996
vn -0.008 0.460 0.888
vn 0.577 0.577 0.577
vn -0.577 -0.577 -0.577
vn 0.009 0.997 0.076
vn -0.000 0.994 0.105
vn -0.577 -0.577 -0.577
vn 0.577 0.577 0.577
vn -0.577 -0.577 -0.577
vn 0.577 0.577 0.577
vn 0.577 0.577 0.577
vn 0.577 0.577 0.577
vn 0.577 0.577 0.577
vn -0.577 -0.577 -0.577
vn -0.577 -0.577 -0.577
vn -0.577 -0.577 -0.577
vn -0.577 -0.577 -0.577
vn -0.577 -0.577 -0.577
vn -0.577 -0.577 -0.577
vn 0.577 0.577 0.577
vn 0.577 0.577 0.577
vn -0.577 -0.577 -0.577
vn -0.577 -0.577 -0.577
vn -0.577 -0.577 -0.577
vn -0.577 -0.577 -0.577
vn -0.577 -0.577 -0.577
vn -0.577 -0.577 -0.577
vn 0.577 0.577 0.577
vn 0.577 0.577 0.577
vn 0.577 0.577 0.577
vn -0.577 -0.577 -0.577
vn 0.577 0.577 0.577
vn -0.837 0.419 0.352
vn -0.577 -0.577 -0.577
vn 0.577 0.577 0.577
vn 0.577 0.577 0.577
vn 0.577 0.577 0.577
vn 0.577 0.577 0.577
vn 0.577 0.577 0.577
vn 0.577 0.577 0.577
vn -0.577 -0.577 -0.577
vn 0.577 0.577 0.577
vn 0.577 0.577 0.577
vn -0.023 -0.073 -0.997
vn 0.577 0.577 0.577
vn 0.577 0.577 0.577
vn 0.577 0.577 0.577
vn 0.577 0.577 0.577
vn 0.577 0.577 0.577
vn 0.577 0.577 0.577
vn 0.577 0.577 0.577
vn 0.577 0.577 0.577
vn 0.577 0.577 0.577
vn 0.577 0.577 0.577
vn 0.577 0.577 0.577
vn 0.577 0.577 0.577
vn 0.577 0.577 0.577
vn 0.577 0.577 0.577
vn -0.577 -0.577 -0.577
vn -0.577 -0.577 -0.577
vn -0.577 -0.577 -0.577
vn -0.006 0.625 -0.781
vn 0.577 0.577 0.577
vn 0.004 1.000 -0.006
vn -0.577 -0.577 -0.577
vn 0.577 0.577 0.577
vn -0.577 -0.577 -0.577
vn 0.577 0.577 0.577
vn -0.009 -0.416 -0.909
vn 0.577 0.577 0.577
vn 0.577 0.577 0.577
vn 0.577 0.577 0.577
vn -0.577 -0.577 -0.577
vn -0.577 -0.577 -0.577
vn -0.577 -0.577 -0.577
vn -0.577 -0.577 -0.577
vn -0.577 -0.577 -0.577
vn 0.577 0.577 0.577
vn -0.577 -0.577 -0.577
vn -0.577 -0.577 -0.577
vn -0.577 -0.577 -0.577
vn -0.577 -0.577 -0.577
vn 0.577 0.577 0.577
vn 0.577 0.577 0.577
vn -0.577 -0.577 -0.577
vn -0.577 -0.577 -0.577
vn -0.577 -0.577 -0.577
vn -0.577 -0.577 -0.577
vn -0.577 -0.577 -0.577
vn 0.577 0.577 0.577
vn 0.176 -0.150 -0.973
vn 0.577 0.577 0.577
vn -0.577 -0.577 -0.577
vn 0.577 0.577 0.577
vn 0.577 0.577 0.577
vn 0.577 0.577 0.577
vn -0.040 0.209 -0.977
vn 0.577 0.577 0.577
vn 0.577 0.577 0.577
vn -0.577 -0.577 -0.577
vn 0.577 0.577 0.577
vn 0.577 0.577 0.577
vn 0.577 0.577 0.577
vn -0.025 0.644 -0.764
vn -0.577 -0.577 -0.577
vn 0.577 0.577 0.577
vn -0.577 -0.577 -0.577
vn -0.577 -0.577 -0.577
vn -0.022 0.998 0.066
vn -0.577 -0.577 -0.577
vn -0.577 -0.577 -0.577
vn -0.577 -0.577 -0.577
vn -0.577 -0.577 -0.577
vn -0.577 -0.577 -0.577
vn -0.577 -0.577 -0.577
vn 0.577 0.577 0.577
vn 0.577 0.577 0.577
vn -0.577 -0.577 -0.577
vn -0.577 -0.577 -0.577
vn -0.577 -0.577 -0.577
vn -0.577 -0.577 -0.577
vn -0.577 -0.577 -0.577
vn -0.577 -0.577 -0.577
vn -0.577 -0.577 -0.577
vn -0.577 -0.577 -0.577
vn -0.577 -0.577 -0.577
vn -0.577 -0.577 -0.577
vn -0.577 -0.577 -0.577
vn -0.577 -0.577 -0.577
vn -0.577 -0.577 -0.577
vn -0.577 -0.577 -0.577
vn -0.577 -0.577 -0.577
vn -0.577 -0.577 -0.577
vn -0.577 -0.577 -0.577
vn -0.577 -0.577 -0.577
vn -0.577 -0.577 -0.577
vn -0.577 -0.577 -0.577
vn -0.577 -0.577 -0.577
vn -0.577 -0.577 -0.577
vn -0.577 -0.577 -0.577
vn -0.577 -0.577 -0.577
vn -0.577 -0.577 -0.577
vn -0.577 -0.577 -0.577
vn -0.577 -0.577 -0.577
vn 0.577 0.577 0.577
vn -0.577 -0.577 -0.577
vn 0.577 0.577 0.577
vn -0.577 -0.577 -0.577
vn -0.577 -0.577 -0.577
vn -0.577 -0.577 -0.577
vn -0.577 -0.577 -0.577
vn -0.577 -0.577 -0.577
vn -0.577 -0.577 -0.577
vn -0.577 -0.577 -0.577
vn -0.577 -0.577 -0.577
vn 0.577 0.577 0.577
vn 0.577 0.577 0.577
vn -0.577 -0.577 -0.577
vn -0.577 -0.577 -0.577
vn -0.577 -0.577 -0.577
vn 0.577 0.577 0.577
vn 0.577 0.577 0.577
vn -0.577 -0.577 -0.577
vn -0.577 -0.577 -0.577
vn -0.577 -0.577 -0.577
vn 0.577 0.577 0.577
vn 0.577 0.577 0.577
vn -0.577 -0.577 -0.577
vn 0.577 0.577 0.577
vn -0.577 -0.577 -0.577
vn 0.577 0.577 0.577
vn -0.577 -0.577 -0.577
vn -0.577 -0.577 -0.577
vn 0.577 0.577 0.577
vn 0.577 0.577 0.577
vn 0.577 0.577 0.577
vn -0.577 -0.577 -0.577
vn -0.577 -0.577 -0.577
vn -0.577 -0.577 -0.577
vn -0.577 -0.577 -0.577
vn -0.577 -0.577 -0.577
vn 0.577 0.577 0.577
vn -0.577 -0.577 -0.577
vn 0.577 0.577 0.577
vn 0.577 0.577 0.577
vn -0.577 -0.577 -0.577
vn -0.577 -0.577 -0.577
vn -0.577 -0.577 -0.577
vn 0.577 0.577 0.577
vn 0.577 0.577 0.577
vn 0.577 0.577 0.577
vn -0.577 -0.577 -0.577
vn -0.577 -0.577 -0.577
vn -0.577 -0.577 -0.577
vn -0.577 -0.577 -0.577
vn -0.577 -0.577 -0.577
vn 0.577 0.577 0.577
vn 0.577 0.577 0.577
vn -0.577 -0.577 -0.577
vn -0.577 -0.577 -0.577
vn -0.577 -0.577 -0.577
vn 0.577 0.577 0.577
vn 0.577 0.577 0.577
vn -0.577 -0.577 -0.577
vn -0.577 -0.577 -0.577
vn -0.577 -0.577 -0.577
vn -0.577 -0.577 -0.577
vn -0.577 -0.577 -0.577
vn -0.577 -0.577 -0.577
vn -0.577 -0.577 -0.577
vn -0.577 -0.577 -0.577
vn -0.577 -0.577 -0.577
vn -0.577 -0.577 -0.577
vn -0.577 -0.577 -0.577
vn -0.577 -0.577 -0.577
vn -0.577 -0.577 -0.577
vn -0.577 -0.577 -0.577
vn -0.577 -0.577 -0.577
vn -0.577 -0.577 -0.577
vn -0.577 -0.577 -0.577
vn -0.577 -0.577 -0.577
vn -0.577 -0.577 -0.577
vn -0.577 -0.577 -0.577
vn -0.577 -0.577 -0.577
vn -0.577 -0.577 -0.577
vn -0.577 -0.577 -0.577
vn -0.577 -0.577 -0.577
vn -0.577 -0.577 -0.577
vn -0.577 -0.577 -0.577
vn -0.577 -0.577 -0.577
vn -0.577 -0.577 -0.577
vn -0.577 -0.577 -0.577
vn -0.577 -0.577 -0.577
vn -0.577 -0.577 -0.577
vn -0.577 -0.577 -0.577
vn 0.577 0.577 0.577
vn 0.577 0.577 0.577
vn -0.577 -0.577 -0.577
vn -0.577 -0.577 -0.577
vn -0.577 -0.577 -0.577
vn -0.577 -0.577 -0.577
vn -0.577 -0.577 -0.577
vn -0.577 -0.577 -0.577
vn -0.577 -0.577 -0.577
vn -0.577 -0.577 -0.577
vn 0.577 0.577 0.577
vn 0.577 0.577 0.577
vn -0.577 -0.577 -0.577
vn -0.577 -0.577 -0.577
vn -0.577 -0.577 -0.577
vn 0.577 0.577 0.577
vn 0.577 0.577 0.577
vn -0.577 -0.577 -0.577
vn 0.577 0.577 0.577
vn -0.577 -0.577 -0.577
vn -0.577 -0.577 -0.577
vn -0.577 -0.577 -0.577
vn 0.577 0.577 0.577
vn -0.577 -0.577 -0.577
vn 0.577 0.577 0.577
vn 0.577 0.577 0.577
vn -0.577 -0.577 -0.577
vn -0.577 -0.577 -0.577
vn 0.577 0.577 0.577
vn 0.577 0.577 0.577
vn 0.577 0.577 0.577
vn -0.577 -0.577 -0.577
vn -0.577 -0.577 -0.577
vn -0.577 -0.577 -0.577
vn -0.577 -0.577 -0.577
vn -0.577 -0.577 -0.577
vn 0.577 0.577 0.577
vn -0.577 -0.577 -0.577
vn 0.577 0.577 0.577
vn 0.577 0.577 0.577
vn -0.577 -0.577 -0.577
vn -0.577 -0.577 -0.577
vn -0.577 -0.577 -0.577
vn 0.577 0.577 0.577
vn 0.577 0.577 0.577
vn -0.577 -0.577 -0.577
vn -0.577 -0.577 -0.577
vn -0.577 -0.577 -0.577
vn -0.577 -0.577 -0.577
vn -0.577 -0.577 -0.577
vn 0.577 0.577 0.577
vn 0.577 0.577 0.577
vn -0.577 -0.577 -0.577
vn -0.577 -0.577 -0.577
vn -0.577 -0.577 -0.577
vn 0.577 0.577 0.577
vn 0.577 0.577 0.577
vn -0.577 -0.577 -0.577
vn -0.577 -0.577 -0.577
vn -0.577 -0.577 -0.577
vn -0.577 -0.577 -0.577
vn -0.577 -0.577 -0.577
vn -0.577 -0.577 -0.577
vn -0.577 -0.577 -0.577
vn -0.577 -0.577 -0.577
vn -0.577 -0.577 -0.577
vn -0.577 -0.577 -0.577
vn -0.577 -0.577 -0.577
vn -0.577 -0.577 -0.577
vn -0.577 -0.577 -0.577
vn -0.577 -0.577 -0.577
vn -0.577 -0.577 -0.577
vn -0.577 -0.577 -0.577
vn -0.577 -0.577 -0.577
vn -0.577 -0.577 -0.577
vn -0.577 -0.577 -0.577
vn -0.577 -0.577 -0.577
vn -0.577 -0.577 -0.577
vn -0.577 -0.577 -0.577
vn -0.577 -0.577 -0.577
vn -0.577 -0.577 -0.577
vn -0.577 -0.577 -0.577
vn -0.577 -0.577 -0.577
vn -0.577 -0.577 -0.577
vn -0.577 -0.577 -0.577
vn -0.577 -0.577 -0.577
vn -0.577 -0.577 -0.577
vn -0.577 -0.577 -0.577
vn -0.577 -0.577 -0.577
vn -0.577 -0.577 -0.577
vn -0.577 -0.577 -0.577
vn -0.577 -0.577 -0.577
vn -0.577 -0.577 -0.577
vn -0.577 -0.577 -0.577
vn 0.577 0.577 0.577
vn -0.577 -0.577 -0.577
vn -0.577 -0.577 -0.577
vn -0.577 -0.577 -0.577
vn -0.577 -0.577 -0.577
vn 0.577 0.577 0.577
vn 0.577 0.577 0.577
vn 0.577 0.577 0.577
vn 0.577 0.577 0.577
vn -0.577 -0.577 -0.577
vn 0.577 0.577 0.577
vn -0.577 -0.577 -0.577
vn -0.577 -0.577 -0.577
vn -0.577 -0.577 -0.577
vn -0.577 -0.577 -0.577
vn 0.577 0.577 0.577
vn 0.577 0.577 0.577
vn 0.577 0.577 0.577
vn -0.577 -0.577 -0.577
vn -0.577 -0.577 -0.577
vn -0.577 -0.577 -0.577
vn -0.577 -0.577 -0.577
vn -0.577 -0.577 -0.577
vn -0.577 -0.577 -0.577
vn -0.577 -0.577 -0.577
vn 0.577 0.577 0.577
vn -0.577 -0.577 -0.577
vn -0.577 -0.577 -0.577
vn -0.577 -0.577 -0.577
vn -0.577 -0.577 -0.577
vn -0.577 -0.577 -0.577
vn -0.577 -0.577 -0.577
vn -0.577 -0.577 -0.577
vn -0.577 -0.577 -0.577
vn -0.577 -0.577 -0.577
vn -0.577 -0.577 -0.577
vn -0.577 -0.577 -0.577
vn -0.577 -0.577 -0.577
vn -0.577 -0.577 -0.577
vn -0.577 -0.577 -0.577
vn -0.577 -0.577 -0.577
vn 0.577 0.577 0.577
vn 0.577 0.577 0.577
vn -0.577 -0.577 -0.577
vn 0.577 0.577 0.577
vn 0.577 0.577 0.577
vn -0.577 -0.577 -0.577
vn -0.577 -0.577 -0.577
vn -0.577 -0.577 -0.577
vn -0.577 -0.577 -0.577
vn -0.577 -0.577 -0.577
vn -0.577 -0.577 -0.577
vn -0.577 -0.577 -0.577
vn -0.577 -0.577 -0.577
vn -0.577 -0.577 -0.577
vn -0.577 -0.577 -0.577
vn -0.577 -0.577 -0.577
vn 0.577 0.577 0.577
vn 0.577 0.577 0.577
vn 0.577 0.577 0.577
vn -0.577 -0.577 -0.577
vn -0.577 -0.577 -0.577
vn 0.577 0.577 0.577
vn -0.577 -0.577 -0.577
vn -0.577 -0.577 -0.577
vn 0.577 0.577 0.577
vn 0.577 0.577 0.577
vn 0.577 0.577 0.577
vn -0.577 -0.577 -0.577
vn -0.577 -0.577 -0.577
vn 0.577 0.577 0.577
vn -0.577 -0.577 -0.577
vn -0.577 -0.577 -0.577
vn -0.577 -0.577 -0.577
vn -0.577 -0.577 -0.577
vn -0.577 -0.577 -0.577
vn -0.577 -0.577 -0.577
vn -0.577 -0.577 -0.577
vn -0.577 -0.577 -0.577
vn -0.577 -0.577 -0.577
vn -0.577 -0.577 -0.577
vn -0.577 -0.577 -0.577
vn -0.577 -0.577 -0.577
vn -0.577 -0.577 -0.577
vn -0.577 -0.577 -0.577
vn -0.577 -0.577 -0.577
vn -0.577 -0.577 -0.577
vn -0.577 -0.577 -0.577
vn -0.577 -0.577 -0.577
vn -0.577 -0.577 -0.577
vn -0.577 -0.577 -0.577
vn -0.577 -0.577 -0.577
vn -0.577 -0.577 -0.577
vn -0.577 -0.577 -0.577
vn -0.577 -0.577 -0.577
vn -0.577 -0.577 -0.577
vn 0.577 0.577 0.577
vn 0.904 0.069 -0.422
vn 0.577 0.577 0.577
vn -0.577 -0.577 -0.577
vn -0.577 -0.577 -0.577
vn -0.577 -0.577 -0.577
vn -0.577 -0.577 -0.577
vn 0.577 0.577 0.577
vn 0.577 0.577 0.577
vn 0.577 0.577 0.577
vn 0.577 0.577 0.577
vn -0.577 -0.577 -0.577
vn 0.577 0.577 0.577
vn -0.577 -0.577 -0.577
vn 0.577 0.577 0.577
vn -0.577 -0.577 -0.577
vn 0.577 0.577 0.577
vn -0.577 -0.577 -0.577
vn -0.577 -0.577 -0.577
vn -0.577 -0.577 -0.577
vn -0.577 -0.577 -0.577
vn 0.577 0.577 0.577
vn 0.577 0.577 0.577
vn -0.577 -0.577 -0.577
vn 0.112 0.029 -0.993
vn -0.577 -0.577 -0.577
vn 0.577 0.577 0.577
vn -0.577 -0.577 -0.577
vn 0.577 0.577 0.577
vn -0.577 -0.577 -0.577
vn 0.577 0.577 0.577
vn 0.577 0.577 0.577
vn 0.577 0.577 0.577
vn 0.577 0.577 0.577
vn -0.577 -0.577 -0.577
vn -0.577 -0.577 -0.577
vn -0.577 -0.577 -0.577
vn -0.577 -0.577 -0.577
vn 0.001 0.145 -0.989
vn 0.001 0.145 -0.989
vn -0.577 -0.577 -0.577
vn 0.577 0.577 0.577
vn -0.577 -0.577 -0.577
vn -0.577 -0.577 -0.577
vn -0.577 -0.577 -0.577
vn 0.577 0.577 0.577
vn -0.577 -0.577 -0.577
vn -0.577 -0.577 -0.577
vn -0.577 -0.577 -0.577
vn -0.577 -0.577 -0.577
vn -0.577 -0.577 -0.577
vn -0.577 -0.577 -0.577
vn 0.577 0.577 0.577
vn -0.577 -0.577 -0.577
vn -0.577 -0.577 -0.577
vn 0.577 0.577 0.577
vn -0.036 0.144 -0.989
vn -0.577 -0.577 -0.577
vn 0.577 0.577 0.577
vn -0.577 -0.577 -0.577
vn -0.577 -0.577 -0.577
vn 0.577 0.577 0.577
vn -0.577 -0.577 -0.577
vn -0.577 -0.577 -0.577
vn 0.577 0.577 0.577
vn -0.577 -0.577 -0.577
vn 0.577 0.577 0.577
vn 0.577 0.577 0.577
vn -0.577 -0.577 -0.577
vn 0.577 0.577 0.577
vn 0.577 0.577 0.577
vn -0.012 0.212 -0.977
vn 0.564 0.020 -0.826
vn 0.577 0.577 0.577
vn -0.577 -0.577 -0.577
vn -0.577 -0.577 -0.577
vn 0.577 0.577 0.577
vn 0.577 0.577 0.577
vn 0.577 0.577 0.577
vn -0.577 -0.577 -0.577
vn -0.577 -0.577 -0.577
vn 0.577 0.577 0.577
vn 0.577 0.577 0.577
vn -0.039 0.184 -0.982
vn 0.577 0.577 0.577
vn -0.577 -0.577 -0.577
vn 0.577 0.577 0.577
vn -0.577 -0.577 -0.577
vn -0.577 -0.577 -0.577
vn -0.577 -0.577 -0.577
vn -0.577 -0.577 -0.577
vn 0.577 0.577 0.577
vn -0.577 -0.577 -0.577
vn -0.577 -0.577 -0.577
vn 0.577 0.577 0.577
vn -0.577 -0.577 -0.577
vn -0.577 -0.577 -0.577
vn -0.577 -0.577 -0.577
vn -0.577 -0.577 -0.577
vn -0.577 -0.577 -0.577
vn -0.577 -0.577 -0.577
vn -0.577 -0.577 -0.577
vn -0.577 -0.577 -0.577
usemtl tex_2033_lit_w10
f 1/1/1 2/2/2 3/3/3
f 3/3/3 2/2/2 4/4/4
f 3/3/3 5/5/5 6/6/6
f 7/7/7 8/8/8 4/4/4
f 5/5/5 3/3/3 8/8/8
f 8/8/8 3/3/3 4/4/4
f 1/1/1 9/9/9 7/7/7
f 2/2/2 1/1/1 7/7/7
f 7/7/7 10/10/10 8/8/8
f 1/1/1 6/6/6 9/9/9
f 6/6/6 5/5/5 8/8/8
f 3/3/3 6/6/6 1/1/1
f 7/7/7 4/4/4 2/2/2
f 6/6/6 8/8/8 10/10/10
usemtl tex_2059_lit_w01
f 11/11/11 12/12/12 13/13/13
f 14/14/14 15/15/15 13/13/13
f 16/16/16 17/17/17 18/18/18
f 17/17/17 19/19/19 18/18/18
f 15/15/15 11/11/11 13/13/13
f 17/17/17 14/14/14 19/19/19
f 14/14/14 13/13/13 19/19/19
usemtl tex_2060_lit
f 20/20/20 21/21/21 22/22/22
f 20/20/20 22/22/22 23/23/23
f 28/24/28 24/25/24 29/26/29
f 29/26/29 24/25/24 25/27/25
f 29/26/29 25/27/25 30/28/30
f 30/28/30 25/27/25 26/29/26
f 30/28/30 26/29/26 31/30/31
f 31/30/31 26/29/26 27/31/27
f 31/30/31 27/31/27 24/25/24
f 31/30/31 24/25/24 28/24/28
usemtl tex_2059_lit_w01
f 39/15/39 40/14/40 32/32/32
f 33/33/33 34/34/34 41/16/41
f 39/15/39 35/35/35 42/11/42
f 41/16/41 34/34/34 43/17/43
f 43/17/43 34/34/34 32/32/32
f 43/17/43 32/32/32 40/14/40
f 39/15/39 36/36/36 35/35/35
f 39/15/39 32/32/32 36/36/36
usemtl tex_2060_lit
f 44/20/44 37/37/37 38/38/38
f 44/20/44 38/38/38 45/21/45
usemtl tex_2059_lit_w01
f 46/39/46 47/40/47 48/41/48
f 49/42/49 50/43/50 51/44/51
f 46/39/46 52/45/52 47/40/47
f 48/41/48 47/40/47 49/42/49
f 51/44/51 50/43/50 53/46/53
f 53/46/53 50/43/50 52/45/52
f 53/46/53 52/45/52 46/39/46
f 48/41/48 49/42/49 51/44/51
f 51/44/51 53/46/53 46/39/46
f 51/44/51 46/39/46 48/41/48
f 50/43/50 49/42/49 54/40/54
f 50/43/50 54/40/54 55/45/55
f 63/47/63 56/48/56 57/49/57
f 58/50/58 56/48/56 64/51/64
f 65/52/65 66/53/66 59/54/59
f 58/50/58 64/51/64 65/52/65
f 57/49/57 60/55/60 67/56/67
f 63/47/63 64/51/64 56/48/56
f 58/50/58 65/52/65 59/54/59
f 63/47/63 57/49/57 67/56/67
usemtl tex_2060_lit
f 68/57/68 69/58/69 61/59/61
f 68/57/68 61/59/61 62/60/62
usemtl tex_2059_lit_w01
f 70/53/70 71/52/71 77/34/77
f 78/35/78 79/36/79 72/56/72
f 73/51/73 80/32/80 77/34/77
f 71/52/71 73/51/73 77/34/77
f 80/32/80 73/51/73 74/47/74
f 80/32/80 74/47/74 79/36/79
f 79/36/79 74/47/74 72/56/72
f 81/33/81 70/53/70 77/34/77
usemtl tex_2060_lit
f 75/58/75 76/57/76 82/38/82
f 82/38/82 83/37/83 75/58/75
usemtl tex_2059_lit_w01
f 84/40/84 85/61/85 86/62/86
f 87/63/87 85/61/85 88/45/88
f 89/43/89 90/42/90 91/64/91
f 87/63/87 88/45/88 89/43/89
f 90/42/90 84/40/84 86/62/86
f 84/40/84 88/45/88 85/61/85
f 90/42/90 86/62/86 91/64/91
f 87/63/87 89/43/89 91/64/91
f 92/64/92 93/62/93 94/61/94
f 92/64/92 94/61/94 95/63/95
f 96/40/96 90/42/90 89/43/89
f 96/40/96 89/43/89 97/45/97
usemtl tex_2033_lit_w10
f 98/65/98 99/66/99 100/67/100
f 101/68/101 99/66/99 98/65/98
f 102/69/102 103/70/103 98/65/98
f 101/68/101 104/71/104 105/72/105
f 104/71/104 98/65/98 103/70/103
f 101/68/101 98/65/98 104/71/104
f 105/72/105 106/73/106 100/67/100
f 105/72/105 100/67/100 99/66/99
f 104/71/104 107/74/107 105/72/105
f 106/73/106 102/69/102 100/67/100
f 104/71/104 103/70/103 102/69/102
f 100/67/100 102/69/102 98/65/98
f 99/66/99 101/68/101 105/72/105
f 107/74/107 104/71/104 102/69/102
usemtl tex_2059_lit_w01
f 108/75/108 109/76/109 110/77/110
f 108/75/108 111/78/111 112/79/112
f 113/80/113 114/81/114 115/82/115
f 113/80/113 116/83/116 114/81/114
f 108/75/108 110/77/110 111/78/111
f 116/83/116 108/75/108 112/79/112
f 116/83/116 112/79/112 114/81/114
usemtl tex_2060_lit
f 117/84/117 118/85/118 119/86/119
f 120/87/120 117/84/117 119/86/119
f 125/88/125 121/89/121 126/90/126
f 126/90/126 121/89/121 122/91/122
f 126/90/126 122/91/122 127/92/127
f 127/92/127 122/91/122 123/93/123
f 127/92/127 123/93/123 128/94/128
f 128/94/128 123/93/123 124/25/124
f 128/94/128 124/25/124 125/88/125
f 125/88/125 124/25/124 121/89/121
usemtl tex_2059_lit_w01
f 136/77/136 129/95/129 137/78/137
f 130/96/130 129/95/129 136/77/136
f 131/97/131 132/98/132 138/82/138
f 139/81/139 131/97/131 138/82/138
f 133/99/133 131/97/131 139/81/139
f 140/79/140 137/78/137 133/99/133
f 129/95/129 133/99/133 137/78/137
f 140/79/140 133/99/133 139/81/139
usemtl tex_2060_lit
f 141/85/141 134/100/134 142/86/142
f 134/100/134 135/101/135 142/86/142
usemtl tex_2059_lit_w01
f 143/102/143 144/103/144 145/104/145
f 146/105/146 147/106/147 148/107/148
f 144/103/144 149/108/149 145/104/145
f 148/107/148 144/103/144 143/102/143
f 150/109/150 147/106/147 146/105/146
f 149/108/149 147/106/147 150/109/150
f 145/104/145 149/108/149 150/109/150
f 146/105/146 148/107/148 143/102/143
f 143/102/143 145/104/145 150/109/150
f 143/102/143 150/109/150 146/105/146
f 151/108/151 152/103/152 148/107/148
f 151/108/151 148/107/148 147/106/147
f 153/110/153 154/111/154 160/112/160
f 154/111/154 155/113/155 161/114/161
f 162/115/162 161/114/161 155/113/155
f 153/110/153 160/112/160 163/116/163
f 156/117/156 153/110/153 163/116/163
f 156/117/156 164/118/164 157/119/157
f 156/117/156 163/116/163 164/118/164
f 160/112/160 154/111/154 161/114/161
usemtl tex_2060_lit
f 165/120/165 158/121/158 159/122/159
f 166/123/166 165/120/165 159/122/159
usemtl tex_2059_lit_w01
f 167/114/167 168/115/168 174/98/174
f 175/97/175 167/114/167 174/98/174
f 169/112/169 167/114/167 175/97/175
f 176/99/176 169/112/169 175/97/175
f 170/116/170 169/112/169 176/99/176
f 177/95/177 170/116/170 176/99/176
f 171/118/171 170/116/170 177/95/177
f 178/96/178 171/118/171 177/95/177
usemtl tex_2060_lit
f 179/100/179 172/120/172 173/123/173
f 180/101/180 179/100/179 173/123/173
usemtl tex_2059_lit_w01
f 181/124/181 182/125/182 183/103/183
f 184/108/184 182/125/182 185/126/185
f 186/127/186 187/107/187 188/106/188
f 188/106/188 184/108/184 185/126/185
f 181/124/181 183/103/183 187/107/187
f 182/125/182 184/108/184 183/103/183
f 186/127/186 181/124/181 187/107/187
f 186/127/186 188/106/188 185/126/185
f 189/126/189 190/125/190 191/124/191
f 189/126/189 191/124/191 192/127/192
f 193/108/193 188/106/188 187/107/187
f 193/108/193 187/107/187 194/103/194
usemtl tex_1609_lit
f 195/128/195 196/129/196 197/130/197
f 198/131/198 196/129/196 195/128/195
usemtl tex_1613_lit_w11
f 199/132/199 200/133/200 201/134/201
f 202/135/202 200/133/200 199/132/199
usemtl tex_1616_lit_w11
f 203/136/203 204/137/204 205/138/205
f 206/139/206 204/137/204 203/136/203
usemtl tex_1619_lit_w11
f 207/140/207 208/141/208 209/142/209
f 210/143/210 208/141/208 207/140/207
usemtl tex_1622_lit_w11
f 211/144/211 212/145/212 213/146/213
f 214/147/214 212/145/212 211/144/211
usemtl tex_1955_lit_w01
f 215/148/215 216/149/216 220/150/220
f 221/151/221 217/152/217 215/148/215
f 221/151/221 218/153/218 217/152/217
f 222/154/222 216/149/216 219/155/219
f 223/156/223 219/155/219 218/153/218
f 222/154/222 220/150/220 216/149/216
f 221/151/221 223/156/223 218/153/218
f 221/151/221 215/148/215 220/150/220
f 223/156/223 222/154/222 219/155/219
f 229/155/229 224/157/224 230/153/230
f 230/153/230 224/157/224 225/158/225
f 230/153/230 225/158/225 231/152/231
f 231/152/231 225/158/225 226/159/226
f 231/152/231 226/159/226 232/148/232
f 232/148/232 226/159/226 227/160/227
f 233/149/233 228/161/228 229/155/229
f 229/155/229 228/161/228 224/157/224
f 232/148/232 227/160/227 233/149/233
f 233/149/233 227/160/227 228/161/228
f 234/162/234 235/163/235 236/164/236
f 237/165/237 238/166/238 234/162/234
f 239/167/239 235/163/235 240/168/240
f 241/169/241 240/168/240 237/165/237
f 240/168/240 238/166/238 237/165/237
f 239/167/239 236/164/236 235/163/235
f 237/165/237 234/162/234 236/164/236
f 241/169/241 239/167/239 240/168/240
f 235/163/235 242/162/242 243/166/243
f 235/163/235 243/166/243 240/168/240
f 244/170/244 245/171/245 246/172/246
f 244/170/244 247/173/247 248/174/248
f 249/175/249 250/176/250 251/177/251
f 244/170/244 246/172/246 247/173/247
f 245/171/245 249/175/249 251/177/251
f 252/178/252 249/175/249 245/171/245
f 247/173/247 250/176/250 253/179/253
f 244/170/244 252/178/252 245/171/245
f 249/175/249 253/179/253 250/176/250
f 248/174/248 247/173/247 253/179/253
f 254/180/254 255/181/255 260/171/260
f 255/181/255 261/172/261 260/171/260
f 262/177/262 254/180/254 260/171/260
f 256/182/256 254/180/254 262/177/262
f 263/176/263 256/182/256 262/177/262
f 257/183/257 256/182/256 263/176/263
f 264/173/264 257/183/257 263/176/263
f 258/184/258 257/183/257 264/173/264
f 261/172/261 259/185/259 264/173/264
f 259/185/259 258/184/258 264/173/264
f 270/157/270 265/179/265 271/158/271
f 271/158/271 265/179/265 266/175/266
f 271/158/271 266/175/266 272/159/272
f 272/159/272 266/175/266 267/178/267
f 272/159/272 267/178/267 273/160/273
f 273/160/273 267/178/267 268/170/268
f 274/161/274 265/179/265 270/157/270
f 273/160/273 268/170/268 269/174/269
f 273/160/273 269/174/269 274/161/274
f 274/161/274 269/174/269 265/179/265
f 275/186/275 276/187/276 277/188/277
f 277/188/277 278/189/278 275/186/275
f 279/162/279 277/188/277 276/187/276
f 279/162/279 275/186/275 280/163/280
f 279/162/279 276/187/276 275/186/275
f 277/188/277 281/168/281 278/189/278
f 282/166/282 281/168/281 277/188/277
f 275/186/275 278/189/278 280/163/280
f 279/162/279 282/166/282 277/188/277
f 281/168/281 280/163/280 278/189/278
f 281/168/281 283/166/283 284/162/284
f 281/168/281 284/162/284 280/163/280
usemtl tex_1609_lit
f 285/190/285 286/191/286 287/192/287
f 287/192/287 286/191/286 288/193/288
usemtl tex_1613_lit_w11
f 289/194/289 290/195/290 291/196/291
f 291/196/291 290/195/290 292/197/292
usemtl tex_1616_lit_w11
f 293/198/293 294/199/294 295/200/295
f 295/200/295 294/199/294 296/201/296
usemtl tex_1619_lit_w11
f 297/202/297 298/203/298 299/204/299
f 299/204/299 298/203/298 300/205/300
usemtl tex_1622_lit_w11
f 301/206/301 302/207/302 303/208/303
f 303/208/303 302/207/302 304/209/304
usemtl tex_1955_lit_w01
f 310/210/310 305/211/305 306/212/306
f 306/212/306 307/213/307 311/214/311
f 307/213/307 308/215/308 311/214/311
f 309/216/309 305/211/305 312/217/312
f 308/215/308 309/216/309 313/218/313
f 305/211/305 310/210/310 312/217/312
f 308/215/308 313/218/313 311/214/311
f 310/210/310 306/212/306 311/214/311
f 309/216/309 312/217/312 313/218/313
f 319/215/319 314/219/314 320/216/320
f 315/220/315 314/219/314 319/215/319
f 321/213/321 315/220/315 319/215/319
f 316/221/316 315/220/315 321/213/321
f 322/212/322 316/221/316 321/213/321
f 317/222/317 316/221/316 322/212/322
f 320/216/320 318/223/318 323/211/323
f 314/219/314 318/223/318 320/216/320
f 323/211/323 317/222/317 322/212/322
f 318/223/318 317/222/317 323/211/323
f 324/224/324 325/225/325 326/226/326
f 326/226/326 327/227/327 328/228/328
f 329/229/329 325/225/325 330/230/330
f 328/228/328 329/229/329 331/231/331
f 328/228/328 327/227/327 329/229/329
f 325/225/325 324/224/324 330/230/330
f 324/224/324 326/226/326 328/228/328
f 329/229/329 330/230/330 331/231/331
f 332/226/332 325/225/325 329/229/329
f 332/226/332 329/229/329 333/227/333
f 334/232/334 335/233/335 336/234/336
f 337/235/337 338/236/338 336/234/336
f 339/237/339 340/238/340 341/239/341
f 338/236/338 334/232/334 336/234/336
f 339/237/339 341/239/341 335/233/335
f 335/233/335 341/239/341 342/240/342
f 343/241/343 340/238/340 338/236/338
f 335/233/335 342/240/342 336/234/336
f 340/238/340 343/241/343 341/239/341
f 343/241/343 338/236/338 337/235/337
f 349/232/349 344/242/344 350/233/350
f 350/233/350 344/242/344 345/243/345
f 350/233/350 345/243/345 351/237/351
f 351/237/351 345/243/345 346/244/346
f 351/237/351 346/244/346 352/238/352
f 352/238/352 346/244/346 347/245/347
f 352/238/352 347/245/347 353/236/353
f 353/236/353 347/245/347 348/246/348
f 353/236/353 348/246/348 349/232/349
f 349/232/349 348/246/348 344/242/344
f 359/220/359 354/241/354 360/219/360
f 355/239/355 354/241/354 359/220/359
f 361/221/361 355/239/355 359/220/359
f 356/240/356 355/239/355 361/221/361
f 362/222/362 356/240/356 361/221/361
f 357/234/357 356/240/356 362/222/362
f 360/219/360 354/241/354 363/223/363
f 358/235/358 357/234/357 362/222/362
f 363/223/363 358/235/358 362/222/362
f 354/241/354 358/235/358 363/223/363
f 364/247/364 365/248/365 366/226/366
f 367/225/367 368/249/368 366/226/366
f 368/249/368 364/247/364 366/226/366
f 369/250/369 370/229/370 365/248/365
f 365/248/365 370/229/370 371/227/371
f 367/225/367 369/250/369 368/249/368
f 365/248/365 371/227/371 366/226/366
f 369/250/369 367/225/367 370/229/370
f 364/247/364 368/249/368 369/250/369
f 369/250/369 365/248/365 364/247/364
f 372/227/372 370/229/370 367/225/367
f 372/227/372 367/225/367 373/226/373
usemtl tex_1839_lit_w01
f 374/251/374 382/252/382 383/253/383
f 375/254/375 384/255/384 374/251/374
f 384/255/384 382/252/382 374/251/374
f 376/256/376 374/251/374 383/253/383
usemtl tex_1838_lit_w01
f 385/257/385 377/258/377 378/259/378
f 379/260/379 386/261/386 387/262/387
f 380/263/380 388/264/388 381/265/381
f 388/264/388 378/259/378 381/265/381
f 388/264/388 385/257/385 378/259/378
f 389/266/389 390/267/390 391/268/391
usemtl tex_1957_lit_w01
f 392/269/392 393/270/393 394/271/394
f 394/271/394 395/272/395 396/273/396
f 397/274/397 396/273/396 398/275/398
f 399/276/399 400/277/400 401/278/401
f 397/274/397 394/271/394 396/273/396
f 397/274/397 392/269/392 394/271/394
f 402/279/402 403/280/403 394/271/394
f 396/273/396 401/278/401 404/281/404
f 395/272/395 399/276/399 396/273/396
f 405/282/405 400/277/400 406/283/406
f 407/284/407 397/274/397 398/275/398
f 403/280/403 395/272/395 394/271/394
f 398/275/398 396/273/396 404/281/404
f 408/284/408 409/275/409 410/285/410
f 411/273/411 412/276/412 413/278/413
f 414/272/414 415/283/415 412/276/412
f 416/277/416 412/276/412 415/283/415
f 408/284/408 410/285/410 417/286/417
f 409/275/409 418/281/418 410/285/410
usemtl tex_1956_lit_w01
f 419/287/419 420/288/420 421/289/421
f 422/290/422 419/287/419 423/291/423
f 423/291/423 419/287/419 421/289/421
f 424/292/424 425/293/425 426/288/426
f 427/294/427 425/293/425 424/292/424
f 428/295/428 429/296/429 430/297/430
f 431/298/431 432/287/432 433/290/433
f 431/298/431 433/290/433 434/299/434
f 433/290/433 435/300/435 436/301/436
f 433/290/433 436/301/436 434/299/434
f 435/300/435 430/297/430 436/301/436
f 437/302/437 438/303/438 434/299/434
f 438/303/438 431/298/431 434/299/434
f 433/290/433 428/295/428 430/297/430
f 433/290/433 430/297/430 435/300/435
f 437/302/437 439/304/439 427/294/427
f 440/289/440 441/305/441 442/306/442
f 443/288/443 444/293/444 445/307/445
f 446/302/446 447/294/447 448/298/448
f 446/302/446 448/298/448 449/303/449
f 450/292/450 451/287/451 448/298/448
f 447/294/447 450/292/450 448/298/448
usemtl tex_1956_lit_w01_ovl
f 451/287/451 450/292/450 443/288/443
usemtl tex_1956_lit_w01
f 452/291/452 442/306/442 453/295/453
f 452/291/452 440/289/440 442/306/442
f 454/290/454 452/291/452 453/295/453
usemtl tex_1957_lit_w01
f 455/308/455 463/281/463 456/309/456
f 456/309/456 464/278/464 457/310/457
f 456/309/456 463/281/463 464/278/464
f 458/311/458 465/285/465 455/308/455
f 455/308/455 465/285/465 463/281/463
f 457/310/457 464/278/464 466/277/466
usemtl tex_1956_lit_w01
f 459/312/459 467/305/467 460/313/460
f 460/313/460 467/305/467 468/289/468
f 460/313/460 468/289/468 461/314/461
f 461/314/461 468/289/468 469/288/469
f 461/314/461 469/288/469 462/315/462
f 462/315/462 469/288/469 470/307/470
usemtl tex_1957_lit_w01
f 471/316/471 472/317/472 473/318/473
f 474/316/474 475/319/475 476/320/476
f 472/317/472 471/316/471 477/321/477
f 478/322/478 479/319/479 480/317/480
f 481/323/481 482/321/482 483/320/483
f 474/316/474 484/318/484 475/319/475
f 479/319/479 484/318/484 472/317/472
f 485/316/485 483/320/483 482/321/482
f 486/322/486 487/323/487 488/319/488
f 487/323/487 489/320/489 488/319/488
usemtl tex_1956_lit_w01
f 490/324/490 491/325/491 492/326/492
f 493/327/493 490/324/490 492/326/492
usemtl tex_2058_lit
f 494/328/494 495/329/495 496/330/496
f 497/331/497 498/332/498 499/333/499
f 500/334/500 501/335/501 502/336/502
usemtl tex_2058_lit_ovl
f 503/337/503 504/338/504 505/339/505
usemtl tex_2058_lit
f 506/340/506 507/341/507 508/342/508
f 509/329/509 510/343/510 511/344/511
f 512/345/512 513/335/513 514/346/514
f 515/347/515 516/348/516 517/349/517
f 516/348/516 518/350/518 517/349/517
f 519/341/519 520/331/520 521/333/521
f 522/330/522 509/329/509 523/351/523
f 524/352/524 525/328/525 526/330/526
f 527/353/527 528/354/528 529/355/529
f 530/335/530 531/334/531 532/356/532
f 533/341/533 534/357/534 535/331/535
f 536/358/536 537/359/537 538/360/538
f 539/341/539 540/333/540 541/342/541
f 542/356/542 543/346/543 544/335/544
f 545/351/545 546/329/546 547/344/547
f 548/361/548 549/334/549 550/336/550
f 551/362/551 552/363/552 553/348/553
f 554/364/554 555/365/555 556/366/556
f 557/362/557 558/348/558 559/347/559
f 560/367/560 557/362/557 559/347/559
usemtl tex_1957_lit_w01
f 570/308/570 571/309/571 561/368/561
f 562/369/562 561/368/561 571/309/571
f 563/370/563 570/308/570 564/371/564
f 563/370/563 572/311/572 570/308/570
f 564/371/564 570/308/570 561/368/561
f 565/372/565 562/369/562 571/309/571
f 565/372/565 571/309/571 573/310/573
usemtl tex_1956_lit_w01
f 566/373/566 574/312/574 575/313/575
f 567/374/567 575/313/575 576/314/576
f 567/374/567 576/314/576 568/375/568
f 568/375/568 576/314/576 569/376/569
f 577/376/577 581/314/581 582/315/582
f 578/377/578 583/313/583 579/374/579
f 578/377/578 580/373/580 583/313/583
usemtl tex_2060_lit
f 584/378/584 585/379/585 586/380/586
f 587/381/587 588/382/588 589/383/589
f 587/381/587 589/383/589 590/384/590
f 585/379/585 588/382/588 587/381/587
f 585/379/585 584/378/584 588/382/588
f 590/384/590 589/383/589 591/380/591
f 591/380/591 589/383/589 592/385/592
f 593/385/593 584/378/584 586/380/586
f 594/382/594 595/385/595 596/383/596
f 594/382/594 597/378/597 595/385/595
f 590/384/590 586/380/586 598/379/598
f 590/384/590 598/379/598 587/381/587
