mtllib CrusguardZ.mtl
v -1078.8555908203125 -86.70243644714355 -74.0 1.000 1.000 1.000
v -1078.8555908203125 -168.70243644714355 -68.0 1.000 1.000 1.000
v -1078.8555908203125 -43.702436447143555 191.0 1.000 1.000 1.000
v -1078.8555908203125 -162.70243644714355 200.0 1.000 1.000 1.000
v -1036.8555908203125 -78.70243644714355 177.0 1.000 1.000 1.000
v -972.8555908203125 -90.70243644714355 -4.0 1.000 1.000 1.000
v -971.8555908203125 -154.70243644714355 -49.0 1.000 1.000 1.000
v -1038.8555908203125 -134.70243644714355 203.0 1.000 1.000 1.000
v -973.8555908203125 -103.70243644714355 -62.0 1.000 1.000 1.000
v -972.8555908203125 -144.70243644714355 20.0 1.000 1.000 1.000
v -1036.8555908203125 -78.70243644714355 177.0 1.000 1.000 1.000
v -1078.8555908203125 -43.702436447143555 191.0 1.000 1.000 1.000
v -1038.8555908203125 -134.70243644714355 203.0 1.000 1.000 1.000
v -1078.8555908203125 -162.70243644714355 200.0 1.000 1.000 1.000
v -972.8555908203125 -144.70243644714355 20.0 1.000 1.000 1.000
v -972.8555908203125 -90.70243644714355 -4.0 1.000 1.000 1.000
v -650.8883666992188 -59.47519826889038 -1.0 1.000 1.000 1.000
v -666.8883666992188 -68.47519826889038 -80.0 1.000 1.000 1.000
v -664.8883666992188 -168.47519826889038 -62.0 1.000 1.000 1.000
v -650.8883666992188 -174.47519826889038 47.0 1.000 1.000 1.000
v -650.8883666992188 -59.47519826889038 -1.0 1.000 1.000 1.000
v -650.8883666992188 -174.47519826889038 47.0 1.000 1.000 1.000
v -973.8555908203125 -103.70243644714355 -62.0 1.000 1.000 1.000
v -972.8555908203125 -90.70243644714355 -4.0 1.000 1.000 1.000
v -971.8555908203125 -154.70243644714355 -49.0 1.000 1.000 1.000
v -972.8555908203125 -144.70243644714355 20.0 1.000 1.000 1.000
v -972.8555908203125 -90.70243644714355 -4.0 1.000 1.000 1.000
v -972.8555908203125 -144.70243644714355 20.0 1.000 1.000 1.000
v -506.88836669921875 -112.47519826889038 106.0 1.000 1.000 1.000
v -523.8883666992188 -26.47519826889038 12.0 1.000 1.000 1.000
v -519.8883666992188 -114.47519826889038 -74.0 1.000 1.000 1.000
v -512.8883666992188 -188.47519826889038 9.0 1.000 1.000 1.000
v -650.8883666992188 -174.47519826889038 47.0 1.000 1.000 1.000
v -650.8883666992188 -59.47519826889038 -1.0 1.000 1.000 1.000
v -666.8883666992188 -68.47519826889038 -80.0 1.000 1.000 1.000
v -664.8883666992188 -168.47519826889038 -62.0 1.000 1.000 1.000
v -162.58901977539062 -37.63739013671875 1.0 1.000 1.000 1.000
v -162.58901977539062 -49.63739013671875 -67.0 1.000 1.000 1.000
v -162.58901977539062 -115.63739013671875 -65.0 1.000 1.000 1.000
v -162.58901977539062 -137.63739013671875 -102.0 1.000 1.000 1.000
v -163.58901977539062 -185.63739013671875 20.0 1.000 1.000 1.000
v -162.58901977539062 -191.63739013671875 -102.0 1.000 1.000 1.000
v -161.58901977539062 -189.63739013671875 133.0 1.000 1.000 1.000
v -162.58901977539062 -144.63739013671875 108.0 1.000 1.000 1.000
v -163.58901977539062 -185.63739013671875 20.0 1.000 1.000 1.000
v -162.58901977539062 -70.63739013671875 89.0 1.000 1.000 1.000
v -162.58901977539062 -17.63739013671875 13.0 1.000 1.000 1.000
v -291.5890197753906 -125.63739013671875 123.0 1.000 1.000 1.000
v -163.58901977539062 -185.63739013671875 20.0 1.000 1.000 1.000
v -162.58901977539062 -144.63739013671875 108.0 1.000 1.000 1.000
v -162.58901977539062 -115.63739013671875 -65.0 1.000 1.000 1.000
v -334.5890197753906 -188.63739013671875 13.0 1.000 1.000 1.000
v -212.58901977539062 -117.63739013671875 -67.0 1.000 1.000 1.000
v -254.58901977539062 -28.63739013671875 12.0 1.000 1.000 1.000
v -162.58901977539062 -37.63739013671875 1.0 1.000 1.000 1.000
v -162.58901977539062 -115.63739013671875 -65.0 1.000 1.000 1.000
v -334.5890197753906 -188.63739013671875 13.0 1.000 1.000 1.000
v -291.5890197753906 -125.63739013671875 123.0 1.000 1.000 1.000
v -162.58901977539062 -144.63739013671875 108.0 1.000 1.000 1.000
v -163.58901977539062 -185.63739013671875 20.0 1.000 1.000 1.000
v -2.0 -113.0 143.0 1.000 1.000 1.000
v -63.0 -65.0 133.0 1.000 1.000 1.000
v -132.0 19.0 20.0 1.000 1.000 1.000
v -1.0 -94.0 -88.0 1.000 1.000 1.000
v -91.0 -48.0 -70.0 1.000 1.000 1.000
v -132.0 19.0 20.0 1.000 1.000 1.000
v -1.0 -94.0 -88.0 1.000 1.000 1.000
v -161.58901977539062 -189.63739013671875 133.0 1.000 1.000 1.000
v -162.58901977539062 -70.63739013671875 89.0 1.000 1.000 1.000
v -162.58901977539062 -17.63739013671875 13.0 1.000 1.000 1.000
v -162.58901977539062 -191.63739013671875 -102.0 1.000 1.000 1.000
v -162.58901977539062 -17.63739013671875 13.0 1.000 1.000 1.000
v -162.58901977539062 -49.63739013671875 -67.0 1.000 1.000 1.000
v -162.58901977539062 -137.63739013671875 -102.0 1.000 1.000 1.000
v -162.58901977539062 -191.63739013671875 -102.0 1.000 1.000 1.000
v -212.58901977539062 -117.63739013671875 -67.0 1.000 1.000 1.000
v -254.58901977539062 -28.63739013671875 12.0 1.000 1.000 1.000
v -334.5890197753906 -188.63739013671875 13.0 1.000 1.000 1.000
v -291.5890197753906 -125.63739013671875 123.0 1.000 1.000 1.000
v -523.8883666992188 -26.47519826889038 12.0 1.000 1.000 1.000
v -519.8883666992188 -114.47519826889038 -74.0 1.000 1.000 1.000
v -506.88836669921875 -112.47519826889038 106.0 1.000 1.000 1.000
v -512.8883666992188 -188.47519826889038 9.0 1.000 1.000 1.000
v 1087.927879333496 -45.380823612213135 190.0 1.000 1.000 1.000
v 1087.927879333496 -171.38082361221313 -68.0 1.000 1.000 1.000
v 1087.927879333496 -89.38082361221313 -74.0 1.000 1.000 1.000
v 1087.927879333496 -164.38082361221313 200.0 1.000 1.000 1.000
v 982.9278793334961 -92.38082361221313 -4.0 1.000 1.000 1.000
v 1044.927879333496 -83.38082361221313 177.0 1.000 1.000 1.000
v 1047.927879333496 -135.38082361221313 203.0 1.000 1.000 1.000
v 980.9278793334961 -151.38082361221313 -49.0 1.000 1.000 1.000
v 981.9278793334961 -106.38082361221313 -62.0 1.000 1.000 1.000
v 981.9278793334961 -141.38082361221313 20.0 1.000 1.000 1.000
v 1047.927879333496 -135.38082361221313 203.0 1.000 1.000 1.000
v 1087.927879333496 -45.380823612213135 190.0 1.000 1.000 1.000
v 1044.927879333496 -83.38082361221313 177.0 1.000 1.000 1.000
v 1087.927879333496 -164.38082361221313 200.0 1.000 1.000 1.000
v 982.9278793334961 -92.38082361221313 -4.0 1.000 1.000 1.000
v 981.9278793334961 -141.38082361221313 20.0 1.000 1.000 1.000
v 675.3251266479492 -79.09517669677734 -78.0 1.000 1.000 1.000
v 660.3251266479492 -61.095176696777344 -1.0 1.000 1.000 1.000
v 660.3251266479492 -179.09517669677734 47.0 1.000 1.000 1.000
v 674.3251266479492 -175.09517669677734 -58.0 1.000 1.000 1.000
v 660.3251266479492 -61.095176696777344 -1.0 1.000 1.000 1.000
v 660.3251266479492 -179.09517669677734 47.0 1.000 1.000 1.000
v 981.9278793334961 -106.38082361221313 -62.0 1.000 1.000 1.000
v 982.9278793334961 -92.38082361221313 -4.0 1.000 1.000 1.000
v 980.9278793334961 -151.38082361221313 -49.0 1.000 1.000 1.000
v 981.9278793334961 -141.38082361221313 20.0 1.000 1.000 1.000
v 981.9278793334961 -141.38082361221313 20.0 1.000 1.000 1.000
v 982.9278793334961 -92.38082361221313 -4.0 1.000 1.000 1.000
v 515.3251266479492 -115.09517669677734 106.0 1.000 1.000 1.000
v 532.3251266479492 -23.095176696777344 14.0 1.000 1.000 1.000
v 528.3251266479492 -111.09517669677734 -67.0 1.000 1.000 1.000
v 522.3251266479492 -189.09517669677734 9.0 1.000 1.000 1.000
v 660.3251266479492 -61.095176696777344 -1.0 1.000 1.000 1.000
v 660.3251266479492 -179.09517669677734 47.0 1.000 1.000 1.000
v 675.3251266479492 -79.09517669677734 -78.0 1.000 1.000 1.000
v 674.3251266479492 -175.09517669677734 -58.0 1.000 1.000 1.000
v 171.1657943725586 -65.35110473632812 88.0 1.000 1.000 1.000
v 172.1657943725586 -39.351104736328125 1.0 1.000 1.000 1.000
v 172.1657943725586 -21.351104736328125 13.0 1.000 1.000 1.000
v 172.1657943725586 -142.35110473632812 105.0 1.000 1.000 1.000
v 171.1657943725586 -198.35110473632812 133.0 1.000 1.000 1.000
v 172.1657943725586 -190.35110473632812 20.0 1.000 1.000 1.000
v 171.1657943725586 -196.35110473632812 -102.0 1.000 1.000 1.000
v 172.1657943725586 -117.35110473632812 -66.0 1.000 1.000 1.000
v 171.1657943725586 -125.35110473632812 -103.0 1.000 1.000 1.000
v 171.1657943725586 -39.351104736328125 -67.0 1.000 1.000 1.000
v 172.1657943725586 -142.35110473632812 105.0 1.000 1.000 1.000
v 172.1657943725586 -190.35110473632812 20.0 1.000 1.000 1.000
v 300.1657943725586 -128.35110473632812 123.0 1.000 1.000 1.000
v 343.1657943725586 -187.35110473632812 12.0 1.000 1.000 1.000
v 172.1657943725586 -117.35110473632812 -66.0 1.000 1.000 1.000
v 229.1657943725586 -89.35110473632812 -90.0 1.000 1.000 1.000
v 172.1657943725586 -142.35110473632812 105.0 1.000 1.000 1.000
v 300.1657943725586 -128.35110473632812 123.0 1.000 1.000 1.000
v 259.1657943725586 -20.351104736328125 21.0 1.000 1.000 1.000
v 229.1657943725586 -89.35110473632812 -90.0 1.000 1.000 1.000
v 172.1657943725586 -39.351104736328125 1.0 1.000 1.000 1.000
v 172.1657943725586 -117.35110473632812 -66.0 1.000 1.000 1.000
v 172.1657943725586 -190.35110473632812 20.0 1.000 1.000 1.000
v 343.1657943725586 -187.35110473632812 12.0 1.000 1.000 1.000
v 143.0 19.0 25.0 1.000 1.000 1.000
v 67.0 -61.0 136.0 1.000 1.000 1.000
v -2.0 -113.0 143.0 1.000 1.000 1.000
v -1.0 -94.0 -88.0 1.000 1.000 1.000
v 92.0 -46.0 -73.0 1.000 1.000 1.000
v 92.0 -46.0 -73.0 1.000 1.000 1.000
v 143.0 19.0 25.0 1.000 1.000 1.000
v -1.0 -94.0 -88.0 1.000 1.000 1.000
v 171.1657943725586 -65.35110473632812 88.0 1.000 1.000 1.000
v 172.1657943725586 -21.351104736328125 13.0 1.000 1.000 1.000
v 171.1657943725586 -198.35110473632812 133.0 1.000 1.000 1.000
v 171.1657943725586 -196.35110473632812 -102.0 1.000 1.000 1.000
v 171.1657943725586 -39.351104736328125 -67.0 1.000 1.000 1.000
v 171.1657943725586 -125.35110473632812 -103.0 1.000 1.000 1.000
v 172.1657943725586 -21.351104736328125 13.0 1.000 1.000 1.000
v 171.1657943725586 -196.35110473632812 -102.0 1.000 1.000 1.000
v 259.1657943725586 -20.351104736328125 21.0 1.000 1.000 1.000
v 229.1657943725586 -89.35110473632812 -90.0 1.000 1.000 1.000
v 343.1657943725586 -187.35110473632812 12.0 1.000 1.000 1.000
v 300.1657943725586 -128.35110473632812 123.0 1.000 1.000 1.000
v 532.3251266479492 -23.095176696777344 14.0 1.000 1.000 1.000
v 515.3251266479492 -115.09517669677734 106.0 1.000 1.000 1.000
v 528.3251266479492 -111.09517669677734 -67.0 1.000 1.000 1.000
v 522.3251266479492 -189.09517669677734 9.0 1.000 1.000 1.000
v -254.86859130859375 376.30655002593994 70.0 1.000 1.000 1.000
v -198.86859130859375 437.30655002593994 0.0 1.000 1.000 1.000
v -304.86859130859375 437.30655002593994 0.0 1.000 1.000 1.000
v -198.86859130859375 437.30655002593994 0.0 1.000 1.000 1.000
v -226.86859130859375 413.30655002593994 -45.0 1.000 1.000 1.000
v -304.86859130859375 437.30655002593994 0.0 1.000 1.000 1.000
v -288.86859130859375 414.30655002593994 -41.0 1.000 1.000 1.000
v -6.576026916503906 442.42901611328125 73.0 1.000 1.000 1.000
v -51.576026916503906 469.42901611328125 44.0 1.000 1.000 1.000
v 49.423973083496094 468.42901611328125 44.0 1.000 1.000 1.000
v -46.576026916503906 482.42901611328125 -31.0 1.000 1.000 1.000
v 27.423973083496094 480.42901611328125 -37.0 1.000 1.000 1.000
v 27.423973083496094 480.42901611328125 -37.0 1.000 1.000 1.000
v -46.576026916503906 482.42901611328125 -31.0 1.000 1.000 1.000
v 370.1021728515625 -27.755651995539665 -42.76123380661011 1.000 1.000 1.000
v 339.1021728515625 37.244348004460335 -27.761233806610107 1.000 1.000 1.000
v 381.1021728515625 -31.755651995539665 56.23876619338989 1.000 1.000 1.000
v 349.1021728515625 62.244348004460335 51.23876619338989 1.000 1.000 1.000
v 266.1021728515625 11.244348004460335 -28.761233806610107 1.000 1.000 1.000
v 265.1021728515625 29.244348004460335 42.23876619338989 1.000 1.000 1.000
v 339.1021728515625 37.244348004460335 -27.761233806610107 1.000 1.000 1.000
v 349.1021728515625 62.244348004460335 51.23876619338989 1.000 1.000 1.000
v 261.1021728515625 -33.755651995539665 37.23876619338989 1.000 1.000 1.000
v 381.1021728515625 -31.755651995539665 56.23876619338989 1.000 1.000 1.000
v 265.1021728515625 29.244348004460335 42.23876619338989 1.000 1.000 1.000
v 349.1021728515625 62.244348004460335 51.23876619338989 1.000 1.000 1.000
v 339.1021728515625 37.244348004460335 -27.761233806610107 1.000 1.000 1.000
v 370.1021728515625 -27.755651995539665 -42.76123380661011 1.000 1.000 1.000
v 266.1021728515625 11.244348004460335 -28.761233806610107 1.000 1.000 1.000
v 263.1021728515625 -28.755651995539665 -26.761233806610107 1.000 1.000 1.000
v 381.1021728515625 -31.755651995539665 56.23876619338989 1.000 1.000 1.000
v 261.1021728515625 -33.755651995539665 37.23876619338989 1.000 1.000 1.000
v 370.1021728515625 -27.755651995539665 -42.76123380661011 1.000 1.000 1.000
v 263.1021728515625 -28.755651995539665 -26.761233806610107 1.000 1.000 1.000
v 489.6571079492569 393.8121757507324 52.07913017272949 1.000 1.000 1.000
v 483.6571079492569 317.8121757507324 49.07913017272949 1.000 1.000 1.000
v 484.6571079492569 313.8121757507324 -5.920869827270508 1.000 1.000 1.000
v 486.6571079492569 381.8121757507324 -42.92086982727051 1.000 1.000 1.000
v 484.6571079492569 433.8121757507324 7.079130172729492 1.000 1.000 1.000
v 261.1021728515625 -33.755651995539665 37.23876619338989 1.000 1.000 1.000
v 263.1021728515625 -28.755651995539665 -26.761233806610107 1.000 1.000 1.000
v 265.1021728515625 29.244348004460335 42.23876619338989 1.000 1.000 1.000
v 266.1021728515625 11.244348004460335 -28.761233806610107 1.000 1.000 1.000
v 411.6571079492569 415.8121757507324 7.079130172729492 1.000 1.000 1.000
v 413.6571079492569 381.8121757507324 -30.920869827270508 1.000 1.000 1.000
v 412.6571079492569 329.8121757507324 -6.920869827270508 1.000 1.000 1.000
v 410.6571079492569 337.8121757507324 53.07913017272949 1.000 1.000 1.000
v 411.6571079492569 413.8121757507324 50.07913017272949 1.000 1.000 1.000
v 486.6571079492569 381.8121757507324 -42.92086982727051 1.000 1.000 1.000
v 484.6571079492569 433.8121757507324 7.079130172729492 1.000 1.000 1.000
v 484.6571079492569 313.8121757507324 -5.920869827270508 1.000 1.000 1.000
v 483.6571079492569 317.8121757507324 49.07913017272949 1.000 1.000 1.000
v 489.6571079492569 393.8121757507324 52.07913017272949 1.000 1.000 1.000
v 263.85553324222565 324.87169647216797 69.0 1.000 1.000 1.000
v 274.85553324222565 319.87169647216797 -12.0 1.000 1.000 1.000
v 339.85553324222565 340.87169647216797 61.0 1.000 1.000 1.000
v 333.85553324222565 388.87169647216797 80.0 1.000 1.000 1.000
v 186.85553324222565 379.87169647216797 89.0 1.000 1.000 1.000
v 175.85553324222565 369.87169647216797 -66.0 1.000 1.000 1.000
v 140.85553324222565 403.87169647216797 10.0 1.000 1.000 1.000
v 268.85553324222565 388.87169647216797 -57.0 1.000 1.000 1.000
v 333.85553324222565 325.87169647216797 -10.0 1.000 1.000 1.000
v 274.85553324222565 439.87169647216797 17.0 1.000 1.000 1.000
v -53.86859130859375 220.30655002593994 67.0 1.000 1.000 1.000
v -55.86859130859375 210.30655002593994 -17.0 1.000 1.000 1.000
v -51.86859130859375 353.30655002593994 -49.0 1.000 1.000 1.000
v -51.86859130859375 375.30655002593994 26.0 1.000 1.000 1.000
v -52.86859130859375 335.30655002593994 75.0 1.000 1.000 1.000
v 263.85553324222565 324.87169647216797 69.0 1.000 1.000 1.000
v 274.85553324222565 319.87169647216797 -12.0 1.000 1.000 1.000
v 175.85553324222565 369.87169647216797 -66.0 1.000 1.000 1.000
v 140.85553324222565 403.87169647216797 10.0 1.000 1.000 1.000
v 186.85553324222565 379.87169647216797 89.0 1.000 1.000 1.000
v 274.85553324222565 439.87169647216797 17.0 1.000 1.000 1.000
v 268.85553324222565 388.87169647216797 -57.0 1.000 1.000 1.000
v 333.85553324222565 325.87169647216797 -10.0 1.000 1.000 1.000
v 339.85553324222565 340.87169647216797 61.0 1.000 1.000 1.000
v 333.85553324222565 388.87169647216797 80.0 1.000 1.000 1.000
v 413.6571079492569 381.8121757507324 -30.920869827270508 1.000 1.000 1.000
v 411.6571079492569 415.8121757507324 7.079130172729492 1.000 1.000 1.000
v 412.6571079492569 329.8121757507324 -6.920869827270508 1.000 1.000 1.000
v 410.6571079492569 337.8121757507324 53.07913017272949 1.000 1.000 1.000
v 411.6571079492569 413.8121757507324 50.07913017272949 1.000 1.000 1.000
v -785.0662807226181 361.1454210281372 55.0 1.000 1.000 1.000
v -744.0662807226181 433.1454210281372 -27.0 1.000 1.000 1.000
v -773.0662807226181 366.1454210281372 -44.0 1.000 1.000 1.000
v -756.0662807226181 457.1454210281372 52.0 1.000 1.000 1.000
v -744.0662807226181 433.1454210281372 -27.0 1.000 1.000 1.000
v -671.0662807226181 422.1454210281372 41.0 1.000 1.000 1.000
v -671.0662807226181 406.1454210281372 -27.0 1.000 1.000 1.000
v -756.0662807226181 457.1454210281372 52.0 1.000 1.000 1.000
v -671.0662807226181 422.1454210281372 41.0 1.000 1.000 1.000
v -785.0662807226181 361.1454210281372 55.0 1.000 1.000 1.000
v -669.0662807226181 358.1454210281372 46.0 1.000 1.000 1.000
v -756.0662807226181 457.1454210281372 52.0 1.000 1.000 1.000
v -671.0662807226181 406.1454210281372 -27.0 1.000 1.000 1.000
v -773.0662807226181 366.1454210281372 -44.0 1.000 1.000 1.000
v -744.0662807226181 433.1454210281372 -27.0 1.000 1.000 1.000
v -667.0662807226181 365.1454210281372 -25.0 1.000 1.000 1.000
v -773.0662807226181 366.1454210281372 -44.0 1.000 1.000 1.000
v -669.0662807226181 358.1454210281372 46.0 1.000 1.000 1.000
v -785.0662807226181 361.1454210281372 55.0 1.000 1.000 1.000
v -667.0662807226181 365.1454210281372 -25.0 1.000 1.000 1.000
v -475.19768941402435 338.83887100219727 45.0 1.000 1.000 1.000
v -481.19768941402435 401.83887100219727 50.0 1.000 1.000 1.000
v -476.19768941402435 335.83887100219727 -10.0 1.000 1.000 1.000
v -476.19768941402435 390.83887100219727 -46.0 1.000 1.000 1.000
v -475.19768941402435 441.83887100219727 5.0 1.000 1.000 1.000
v -669.0662807226181 358.1454210281372 46.0 1.000 1.000 1.000
v -667.0662807226181 365.1454210281372 -25.0 1.000 1.000 1.000
v -671.0662807226181 422.1454210281372 41.0 1.000 1.000 1.000
v -671.0662807226181 406.1454210281372 -27.0 1.000 1.000 1.000
v -403.19768941402435 424.83887100219727 6.0 1.000 1.000 1.000
v -404.19768941402435 390.83887100219727 -32.0 1.000 1.000 1.000
v -403.19768941402435 338.83887100219727 -10.0 1.000 1.000 1.000
v -403.19768941402435 345.83887100219727 51.0 1.000 1.000 1.000
v -403.19768941402435 420.83887100219727 49.0 1.000 1.000 1.000
v -475.19768941402435 441.83887100219727 5.0 1.000 1.000 1.000
v -476.19768941402435 390.83887100219727 -46.0 1.000 1.000 1.000
v -476.19768941402435 335.83887100219727 -10.0 1.000 1.000 1.000
v -475.19768941402435 338.83887100219727 45.0 1.000 1.000 1.000
v -481.19768941402435 401.83887100219727 50.0 1.000 1.000 1.000
v -332.2357143163681 347.22493743896484 62.0 1.000 1.000 1.000
v -267.2357143163681 327.22493743896484 -16.0 1.000 1.000 1.000
v -258.2357143163681 331.22493743896484 66.0 1.000 1.000 1.000
v -181.2357143163681 385.22493743896484 88.0 1.000 1.000 1.000
v -326.2357143163681 395.22493743896484 81.0 1.000 1.000 1.000
v -259.2357143163681 397.22493743896484 -55.0 1.000 1.000 1.000
v -133.2357143163681 412.22493743896484 11.0 1.000 1.000 1.000
v -167.2357143163681 379.22493743896484 -67.0 1.000 1.000 1.000
v -325.2357143163681 333.22493743896484 -10.0 1.000 1.000 1.000
v -267.2357143163681 447.22493743896484 21.0 1.000 1.000 1.000
v -440.86859130859375 220.30655002593994 68.0 1.000 1.000 1.000
v -439.86859130859375 208.30655002593994 -19.0 1.000 1.000 1.000
v -445.86859130859375 354.30655002593994 -50.0 1.000 1.000 1.000
v -444.86859130859375 372.30655002593994 27.0 1.000 1.000 1.000
v -445.86859130859375 334.30655002593994 75.0 1.000 1.000 1.000
v -267.2357143163681 327.22493743896484 -16.0 1.000 1.000 1.000
v -258.2357143163681 331.22493743896484 66.0 1.000 1.000 1.000
v -167.2357143163681 379.22493743896484 -67.0 1.000 1.000 1.000
v -133.2357143163681 412.22493743896484 11.0 1.000 1.000 1.000
v -181.2357143163681 385.22493743896484 88.0 1.000 1.000 1.000
v -267.2357143163681 447.22493743896484 21.0 1.000 1.000 1.000
v -259.2357143163681 397.22493743896484 -55.0 1.000 1.000 1.000
v -325.2357143163681 333.22493743896484 -10.0 1.000 1.000 1.000
v -332.2357143163681 347.22493743896484 62.0 1.000 1.000 1.000
v -326.2357143163681 395.22493743896484 81.0 1.000 1.000 1.000
v -403.19768941402435 424.83887100219727 6.0 1.000 1.000 1.000
v -404.19768941402435 390.83887100219727 -32.0 1.000 1.000 1.000
v -403.19768941402435 338.83887100219727 -10.0 1.000 1.000 1.000
v -403.19768941402435 345.83887100219727 51.0 1.000 1.000 1.000
v -403.19768941402435 420.83887100219727 49.0 1.000 1.000 1.000
v -51.86859130859375 375.30655002593994 26.0 1.000 1.000 1.000
v -198.86859130859375 437.30655002593994 0.0 1.000 1.000 1.000
v -254.86859130859375 376.30655002593994 70.0 1.000 1.000 1.000
v -226.86859130859375 413.30655002593994 -45.0 1.000 1.000 1.000
v -445.86859130859375 334.30655002593994 75.0 1.000 1.000 1.000
v -253.86859130859375 236.30655002593994 189.0 1.000 1.000 1.000
v -52.86859130859375 335.30655002593994 75.0 1.000 1.000 1.000
v -93.86859130859375 223.30655002593994 161.0 1.000 1.000 1.000
v -401.86859130859375 223.30655002593994 161.0 1.000 1.000 1.000
v -394.86859130859375 86.30655002593994 20.0 1.000 1.000 1.000
v -323.86859130859375 95.30655002593994 163.0 1.000 1.000 1.000
v -288.86859130859375 414.30655002593994 -41.0 1.000 1.000 1.000
v -444.86859130859375 372.30655002593994 27.0 1.000 1.000 1.000
v -304.86859130859375 437.30655002593994 0.0 1.000 1.000 1.000
v -180.86859130859375 95.30655002593994 163.0 1.000 1.000 1.000
v -445.86859130859375 354.30655002593994 -50.0 1.000 1.000 1.000
v -226.86859130859375 413.30655002593994 -45.0 1.000 1.000 1.000
v -51.86859130859375 375.30655002593994 26.0 1.000 1.000 1.000
v -51.86859130859375 353.30655002593994 -49.0 1.000 1.000 1.000
v -439.86859130859375 208.30655002593994 -19.0 1.000 1.000 1.000
v -394.86859130859375 86.30655002593994 20.0 1.000 1.000 1.000
v -440.86859130859375 220.30655002593994 68.0 1.000 1.000 1.000
v -53.86859130859375 220.30655002593994 67.0 1.000 1.000 1.000
v -52.86859130859375 335.30655002593994 75.0 1.000 1.000 1.000
v -93.86859130859375 223.30655002593994 161.0 1.000 1.000 1.000
v -444.86859130859375 372.30655002593994 27.0 1.000 1.000 1.000
v -445.86859130859375 334.30655002593994 75.0 1.000 1.000 1.000
v -254.86859130859375 376.30655002593994 70.0 1.000 1.000 1.000
v -253.86859130859375 236.30655002593994 189.0 1.000 1.000 1.000
v -180.86859130859375 95.30655002593994 163.0 1.000 1.000 1.000
v -105.86859130859375 86.30655002593994 21.0 1.000 1.000 1.000
v -253.86859130859375 236.30655002593994 189.0 1.000 1.000 1.000
v -401.86859130859375 223.30655002593994 161.0 1.000 1.000 1.000
v -323.86859130859375 95.30655002593994 163.0 1.000 1.000 1.000
v -445.86859130859375 334.30655002593994 75.0 1.000 1.000 1.000
v -440.86859130859375 220.30655002593994 68.0 1.000 1.000 1.000
v -394.86859130859375 86.30655002593994 20.0 1.000 1.000 1.000
v -53.86859130859375 220.30655002593994 67.0 1.000 1.000 1.000
v -105.86859130859375 86.30655002593994 21.0 1.000 1.000 1.000
v -55.86859130859375 210.30655002593994 -17.0 1.000 1.000 1.000
v -93.86859130859375 223.30655002593994 161.0 1.000 1.000 1.000
v -180.86859130859375 95.30655002593994 163.0 1.000 1.000 1.000
v -252.86859130859375 185.30655002593994 -84.0 1.000 1.000 1.000
v -150.86859130859375 91.30655002593994 -68.0 1.000 1.000 1.000
v -360.86859130859375 90.30655002593994 -66.0 1.000 1.000 1.000
v -321.86859130859375 336.30655002593994 -96.0 1.000 1.000 1.000
v -356.86859130859375 197.30655002593994 -74.0 1.000 1.000 1.000
v -161.86859130859375 196.30655002593994 -80.0 1.000 1.000 1.000
v -55.86859130859375 210.30655002593994 -17.0 1.000 1.000 1.000
v -150.86859130859375 91.30655002593994 -68.0 1.000 1.000 1.000
v -51.86859130859375 353.30655002593994 -49.0 1.000 1.000 1.000
v -170.86859130859375 336.30655002593994 -96.0 1.000 1.000 1.000
v -252.86859130859375 185.30655002593994 -84.0 1.000 1.000 1.000
v -321.86859130859375 336.30655002593994 -96.0 1.000 1.000 1.000
v -288.86859130859375 414.30655002593994 -41.0 1.000 1.000 1.000
v -226.86859130859375 413.30655002593994 -45.0 1.000 1.000 1.000
v -445.86859130859375 354.30655002593994 -50.0 1.000 1.000 1.000
v -360.86859130859375 90.30655002593994 -66.0 1.000 1.000 1.000
v -394.86859130859375 86.30655002593994 20.0 1.000 1.000 1.000
v -439.86859130859375 208.30655002593994 -19.0 1.000 1.000 1.000
v -105.86859130859375 86.30655002593994 21.0 1.000 1.000 1.000
v -356.86859130859375 197.30655002593994 -74.0 1.000 1.000 1.000
v 75.0 63.0 143.0 1.000 1.000 1.000
v -71.0 60.0 140.0 1.000 1.000 1.000
v -125.0 67.0 20.0 1.000 1.000 1.000
v 131.0 69.0 21.0 1.000 1.000 1.000
v -125.0 67.0 20.0 1.000 1.000 1.000
v -89.0 73.0 -59.0 1.000 1.000 1.000
v 95.0 75.0 -62.0 1.000 1.000 1.000
v 131.0 69.0 21.0 1.000 1.000 1.000
v -180.86859130859375 95.30655002593994 163.0 1.000 1.000 1.000
v -323.86859130859375 95.30655002593994 163.0 1.000 1.000 1.000
v -105.86859130859375 86.30655002593994 21.0 1.000 1.000 1.000
v -394.86859130859375 86.30655002593994 20.0 1.000 1.000 1.000
v -394.86859130859375 86.30655002593994 20.0 1.000 1.000 1.000
v -360.86859130859375 90.30655002593994 -66.0 1.000 1.000 1.000
v -150.86859130859375 91.30655002593994 -68.0 1.000 1.000 1.000
v -105.86859130859375 86.30655002593994 21.0 1.000 1.000 1.000
v -91.0 -48.0 -70.0 1.000 1.000 1.000
v -89.0 73.0 -59.0 1.000 1.000 1.000
v -91.0 -48.0 -70.0 1.000 1.000 1.000
v -71.0 60.0 140.0 1.000 1.000 1.000
v -63.0 -65.0 133.0 1.000 1.000 1.000
v -2.0 -113.0 143.0 1.000 1.000 1.000
v -132.0 19.0 20.0 1.000 1.000 1.000
v -125.0 67.0 20.0 1.000 1.000 1.000
v 92.0 -46.0 -73.0 1.000 1.000 1.000
v 95.0 75.0 -62.0 1.000 1.000 1.000
v 92.0 -46.0 -73.0 1.000 1.000 1.000
v 143.0 19.0 25.0 1.000 1.000 1.000
v 131.0 69.0 21.0 1.000 1.000 1.000
v 75.0 63.0 143.0 1.000 1.000 1.000
v 67.0 -61.0 136.0 1.000 1.000 1.000
v -132.0 19.0 20.0 1.000 1.000 1.000
v -125.0 67.0 20.0 1.000 1.000 1.000
v -91.0 -48.0 -70.0 1.000 1.000 1.000
v -89.0 73.0 -59.0 1.000 1.000 1.000
v -1.0 -94.0 -88.0 1.000 1.000 1.000
v 95.0 75.0 -62.0 1.000 1.000 1.000
v 92.0 -46.0 -73.0 1.000 1.000 1.000
v 143.0 19.0 25.0 1.000 1.000 1.000
v 131.0 69.0 21.0 1.000 1.000 1.000
vt 0.1107 0.9512
vt 0.1289 0.9512
vt 0.8835 0.9639
vt 0.9095 0.9648
vt 0.8405 0.8691
vt 0.3079 0.7197
vt 0.1738 0.7168
vt 0.9154 0.8750
vt 0.1374 0.7197
vt 0.3757 0.7217
vt 0.3486 0.8327
vt 0.1514 0.9160
vt 0.6416 0.8366
vt 0.7783 0.9160
vt 0.7148 0.7090
vt 0.4277 0.7077
vt 0.2878 0.0107
vt 0.1211 0.0430
vt 0.1582 0.0391
vt 0.4284 0.0137
vt 0.3633 0.0814
vt 0.9688 0.0820
vt 0.5742 0.8392
vt 0.3984 0.6771
vt 0.2441 0.8411
vt 0.1533 0.6979
vt 0.4033 0.6921
vt 0.2695 0.8587
vt 0.6182 0.6829
vt 0.5557 0.8548
vt -0.2764 0.8118
vt -0.2598 0.8874
vt -0.1484 0.8783
vt -0.1133 0.9173
vt -0.0264 0.7747
vt -0.0215 0.9115
vt -0.0127 0.6471
vt -0.0908 0.6719
vt -0.2158 0.7103
vt -0.3086 0.8008
vt 0.4424 0.4342
vt 0.6172 0.2891
vt 0.5000 0.2891
vt 0.4160 0.2891
vt 0.6221 0.4818
vt 0.4209 0.3457
vt 0.1641 0.3945
vt 0.1924 0.2910
vt 0.5098 0.8613
vt 0.3682 0.7949
vt 0.5146 0.9453
vt 0.2451 0.9479
vt 0.2041 0.6784
vt 0.1250 0.9499
vt 0.5107 0.8346
vt 0.5195 0.9466
vt 0.2793 0.7682
vt 0.0889 0.9518
vt 0.1768 0.6699
vt 0.1641 0.9512
vt 0.3730 0.9505
vt 0.4961 0.8340
vt 0.5029 0.9499
vt 0.9512 0.9600
vt 0.0827 0.9434
vt 0.0592 0.9424
vt 0.9850 0.9609
vt 0.2988 0.7168
vt 0.9076 0.8662
vt 0.9948 0.8730
vt 0.1465 0.7100
vt 0.1022 0.7129
vt 0.3789 0.7158
vt 0.6084 0.8216
vt 0.1416 0.9036
vt 0.3477 0.8151
vt 0.7373 0.9082
vt 0.4131 0.6823
vt 0.6572 0.6823
vt 0.1172 0.0410
vt 0.3112 0.0107
vt 0.4733 0.0137
vt 0.1602 0.0381
vt 0.3525 -0.0026
vt 0.9434 0.0026
vt 0.3652 0.8743
vt 0.4609 0.6934
vt 0.7295 0.8965
vt 0.1846 0.6986
vt 0.4297 0.8984
vt 0.4570 0.7109
vt 0.7266 0.9141
vt 0.6914 0.7161
vt 0.2090 0.6842
vt 0.2500 0.7786
vt 0.2803 0.7637
vt 0.0801 0.6660
vt -0.0039 0.7734
vt 0.1152 0.8626
vt 0.0996 0.9043
vt 0.2461 0.8555
vt 0.3779 0.2461
vt 0.5234 0.2539
vt 0.3965 0.4115
vt 0.6006 0.4798
vt 0.2988 0.2402
vt 0.2412 0.3112
vt 0.0439 0.3366
vt 0.0576 0.2259
vt 0.8262 0.6745
vt 0.6611 0.7871
vt 0.8154 0.9434
vt 0.9170 0.9447
vt 0.7168 0.7663
vt 0.7139 0.7637
vt 0.8779 0.9479
vt 0.6729 0.9499
vt 0.8301 0.6693
vt 0.9199 0.9505
vt 0.5479 0.9798
vt 0.4844 0.3587
vt 0.1094 0.1283
vt 0.9629 0.4010
vt 0.9111 0.0990
vt 0.1211 0.4395
vt 0.1475 0.0156
vt 0.7354 -0.0020
vt 0.1523 0.0736
vt -0.1152 0.4069
vt 0.2207 0.5833
vt 1.1133 0.4186
vt 1.0107 0.0736
vt 0.9463 0.5833
vt 0.9180 0.1572
vt 0.7842 0.8154
vt 0.0088 0.0088
vt 0.0557 0.9238
vt 0.1162 0.9824
vt 0.7188 0.9629
vt 0.1221 0.4082
vt 0.7920 0.2891
vt 0.6895 0.0283
vt 0.9756 0.9756
vt 0.1846 0.1670
vt 0.1309 0.8818
vt 0.1865 0.4326
vt 0.7461 0.1543
vt 0.3428 0.9561
vt 0.6758 0.9619
vt 0.0459 0.2520
vt 0.2979 1.4355
vt 0.9277 0.1982
vt 0.8320 1.2598
vt 0.5498 0.9655
vt 0.3516 0.6543
vt 0.6758 0.6426
vt 0.6875 0.6432
vt 0.5215 0.9668
vt 0.3975 0.6465
vt 0.1787 0.6452
vt 0.2783 0.9740
vt 0.3496 0.9733
vt 0.2490 0.5221
vt 0.3936 0.5234
vt 0.6162 0.5215
vt 0.5859 0.5202
vt 0.2627 0.5221
vt 0.6348 0.2721
vt 0.6523 0.2878
vt 0.5713 0.4004
vt 0.3672 0.3913
vt 0.4004 0.1432
vt 0.4277 0.1198
vt 0.2852 0.0625
vt 0.3545 0.2773
vt 0.6289 0.3874
vt 0.1416 0.2917
vt 0.6650 0.2689
vt 0.6768 0.2865
vt 0.6523 0.0430
vt 0.6494 0.0065
vt 0.6553 0.0749
vt 0.6992 0.1338
vt 0.0967 -0.1982
vt 0.0049 0.1699
vt 0.6387 -0.3799
vt 0.1914 0.4658
vt 0.6709 0.7920
vt 0.2461 0.7920
vt 0.6621 0.3828
vt 0.2695 0.2979
vt 0.9824 0.8262
vt 0.6797 0.2705
vt 0.1787 0.7881
vt 0.5254 0.9014
vt 0.7041 0.2510
vt 0.2100 0.5820
vt 0.7803 0.7881
vt 0.9463 0.2002
vt 0.2520 1.2354
vt 0.0693 0.2539
vt 0.7910 1.0811
vt 0.7695 0.6022
vt 0.4443 0.6354
vt 0.7510 0.9193
vt 0.7148 0.9186
vt 0.7842 0.6022
vt 0.4990 0.6237
vt 0.4209 0.9460
vt 0.2314 0.6406
vt 0.5039 0.9401
vt 0.2910 0.5189
vt 0.4668 0.5078
vt 0.7383 0.4876
vt 0.7012 0.4889
vt 0.3076 0.5176
vt 0.6621 0.3770
vt 0.7354 0.2656
vt 0.7100 0.2526
vt 0.3955 0.1497
vt 0.4111 0.3854
vt 0.3711 0.2780
vt 0.2383 0.0827
vt 0.4248 0.1250
vt 0.7305 0.3600
vt 0.1143 0.3092
vt 0.7656 0.2461
vt 0.7783 0.2650
vt 0.6807 0.0332
vt 0.6787 0.0039
vt 0.6885 0.0658
vt 0.9277 0.1178
vt 0.5879 0.0339
vt 0.4668 0.1204
vt 0.5273 0.0671
vt 0.0371 0.1829
vt 0.4805 0.3164
vt 0.9287 0.1745
vt 0.8438 0.3314
vt 0.1484 0.3372
vt 0.1758 0.5280
vt 0.3359 0.5150
vt 0.3857 0.0671
vt 0.0371 0.1289
vt 0.3477 0.0358
vt 0.6592 0.5124
vt 0.0361 0.1543
vt 0.9287 0.1484
vt 0.0635 0.3594
vt 0.0596 0.3418
vt 0.9365 0.3346
vt 0.8291 0.5241
vt 0.9316 0.3496
vt 0.4814 0.3691
vt 0.7305 0.5052
vt 0.2305 0.5085
vt 0.3066 0.1497
vt 0.2324 0.3516
vt 0.6963 0.3516
vt 0.9482 0.3314
vt 0.9482 0.1217
vt 0.6650 0.1471
vt 0.3799 0.0345
vt 0.5283 0.0358
vt 0.0107 0.1243
vt 0.1494 0.5137
vt 0.0352 0.3372
vt 0.8369 0.5124
vt 0.6689 0.6133
vt 0.3379 0.6198
vt 0.2158 0.6120
vt 0.7959 0.6035
vt 0.1904 0.6009
vt 0.2764 0.5905
vt 0.7139 0.5879
vt 0.7998 0.5951
vn -0.577 -0.577 -0.577
vn -0.577 -0.577 -0.577
vn -0.577 -0.577 -0.577
vn -0.577 -0.577 -0.577
vn -0.577 -0.577 -0.577
vn -0.577 -0.577 -0.577
vn -0.577 -0.577 -0.577
vn -0.577 -0.577 -0.577
vn -0.577 -0.577 -0.577
vn -0.577 -0.577 -0.577
vn -0.577 -0.577 -0.577
vn -0.577 -0.577 -0.577
vn -0.577 -0.577 -0.577
vn -0.577 -0.577 -0.577
vn -0.577 -0.577 -0.577
vn -0.577 -0.577 -0.577
vn 0.577 0.577 0.577
vn 0.577 0.577 0.577
vn 0.577 0.577 0.577
vn -0.577 -0.577 -0.577
vn 0.577 0.577 0.577
vn -0.577 -0.577 -0.577
vn -0.577 -0.577 -0.577
vn -0.577 -0.577 -0.577
vn -0.577 -0.577 -0.577
vn -0.577 -0.577 -0.577
vn -0.577 -0.577 -0.577
vn -0.577 -0.577 -0.577
vn -0.577 -0.577 -0.577
vn 0.577 0.577 0.577
vn -0.577 -0.577 -0.577
vn -0.577 -0.577 -0.577
vn -0.577 -0.577 -0.577
vn 0.577 0.577 0.577
vn 0.577 0.577 0.577
vn 0.577 0.577 0.577
vn -0.577 -0.577 -0.577
vn -0.577 -0.577 -0.577
vn 0.577 0.577 0.577
vn 0.577 0.577 0.577
vn 0.577 0.577 0.577
vn 0.577 0.577 0.577
vn -0.577 -0.577 -0.577
vn -0.577 -0.577 -0.577
vn 0.577 0.577 0.577
vn -0.577 -0.577 -0.577
vn -0.577 -0.577 -0.577
vn -0.577 -0.577 -0.577
vn 0.577 0.577 0.577
vn -0.577 -0.577 -0.577
vn 0.577 0.577 0.577
vn -0.577 -0.577 -0.577
vn 0.577 0.577 0.577
vn -0.577 -0.577 -0.577
vn -0.577 -0.577 -0.577
vn 0.577 0.577 0.577
vn -0.577 -0.577 -0.577
vn -0.577 -0.577 -0.577
vn -0.577 -0.577 -0.577
vn 0.577 0.577 0.577
vn -0.577 -0.577 -0.577
vn -0.577 -0.577 -0.577
vn -0.577 -0.577 -0.577
vn 0.577 0.577 0.577
vn -0.577 -0.577 -0.577
vn -0.577 -0.577 -0.577
vn 0.577 0.577 0.577
vn -0.577 -0.577 -0.577
vn -0.577 -0.577 -0.577
vn -0.577 -0.577 -0.577
vn 0.577 0.577 0.577
vn -0.577 -0.577 -0.577
vn -0.577 -0.577 -0.577
vn 0.577 0.577 0.577
vn 0.577 0.577 0.577
vn 0.577 0.577 0.577
vn -0.577 -0.577 -0.577
vn -0.577 -0.577 -0.577
vn -0.577 -0.577 -0.577
vn 0.577 0.577 0.577
vn -0.577 -0.577 -0.577
vn -0.577 -0.577 -0.577
vn -0.577 -0.577 -0.577
vn -0.577 -0.577 -0.577
vn -0.577 -0.577 -0.577
vn -0.577 -0.577 -0.577
vn -0.577 -0.577 -0.577
vn -0.577 -0.577 -0.577
vn -0.577 -0.577 -0.577
vn -0.577 -0.577 -0.577
vn -0.577 -0.577 -0.577
vn -0.577 -0.577 -0.577
vn -0.577 -0.577 -0.577
vn -0.577 -0.577 -0.577
vn -0.577 -0.577 -0.577
vn -0.577 -0.577 -0.577
vn -0.577 -0.577 -0.577
vn -0.577 -0.577 -0.577
vn -0.577 -0.577 -0.577
vn -0.577 -0.577 -0.577
vn -0.577 -0.577 -0.577
vn -0.577 -0.577 -0.577
vn -0.577 -0.577 -0.577
vn -0.577 -0.577 -0.577
vn -0.577 -0.577 -0.577
vn -0.577 -0.577 -0.577
vn -0.577 -0.577 -0.577
vn -0.577 -0.577 -0.577
vn -0.577 -0.577 -0.577
vn -0.577 -0.577 -0.577
vn -0.577 -0.577 -0.577
vn -0.577 -0.577 -0.577
vn -0.577 -0.577 -0.577
vn -0.577 -0.577 -0.577
vn -0.577 -0.577 -0.577
vn -0.577 -0.577 -0.577
vn -0.577 -0.577 -0.577
vn -0.577 -0.577 -0.577
vn -0.577 -0.577 -0.577
vn -0.577 -0.577 -0.577
vn 0.577 0.577 0.577
vn 0.577 0.577 0.577
vn -0.577 -0.577 -0.577
vn -0.577 -0.577 -0.577
vn 0.577 0.577 0.577
vn 0.577 0.577 0.577
vn 0.577 0.577 0.577
vn 0.577 0.577 0.577
vn 0.577 0.577 0.577
vn -0.577 -0.577 -0.577
vn 0.577 0.577 0.577
vn -0.577 -0.577 -0.577
vn -0.577 -0.577 -0.577
vn 0.577 0.577 0.577
vn 0.577 0.577 0.577
vn -0.577 -0.577 -0.577
vn -0.577 -0.577 -0.577
vn 0.577 0.577 0.577
vn 0.577 0.577 0.577
vn 0.577 0.577 0.577
vn 0.577 0.577 0.577
vn 0.577 0.577 0.577
vn -0.577 -0.577 -0.577
vn -0.577 -0.577 -0.577
vn -0.577 -0.577 -0.577
vn -0.577 -0.577 -0.577
vn 0.577 0.577 0.577
vn -0.577 -0.577 -0.577
vn -0.577 -0.577 -0.577
vn -0.577 -0.577 -0.577
vn 0.577 0.577 0.577
vn -0.577 -0.577 -0.577
vn 0.577 0.577 0.577
vn -0.577 -0.577 -0.577
vn 0.577 0.577 0.577
vn 0.577 0.577 0.577
vn 0.577 0.577 0.577
vn 0.577 0.577 0.577
vn 0.577 0.577 0.577
vn 0.577 0.577 0.577
vn 0.577 0.577 0.577
vn -0.577 -0.577 -0.577
vn -0.577 -0.577 -0.577
vn -0.577 -0.577 -0.577
vn -0.577 -0.577 -0.577
vn -0.577 -0.577 -0.577
vn -0.577 -0.577 -0.577
vn -0.577 -0.577 -0.577
vn -0.577 -0.577 -0.577
vn -0.577 -0.577 -0.577
vn -0.577 -0.577 -0.577
vn -0.577 -0.577 -0.577
vn -0.577 -0.577 -0.577
vn -0.577 -0.577 -0.577
vn -0.577 -0.577 -0.577
vn -0.577 -0.577 -0.577
vn -0.577 -0.577 -0.577
vn -0.577 -0.577 -0.577
vn -0.577 -0.577 -0.577
vn -0.577 -0.577 -0.577
vn -0.577 -0.577 -0.577
vn 0.577 0.577 0.577
vn 0.577 0.577 0.577
vn 0.577 0.577 0.577
vn 0.577 0.577 0.577
vn 0.577 0.577 0.577
vn 0.577 0.577 0.577
vn 0.577 0.577 0.577
vn 0.577 0.577 0.577
vn 0.577 0.577 0.577
vn 0.577 0.577 0.577
vn 0.577 0.577 0.577
vn 0.577 0.577 0.577
vn 0.577 0.577 0.577
vn 0.577 0.577 0.577
vn 0.577 0.577 0.577
vn 0.577 0.577 0.577
vn 0.577 0.577 0.577
vn 0.577 0.577 0.577
vn 0.577 0.577 0.577
vn 0.577 0.577 0.577
vn -0.577 -0.577 -0.577
vn -0.577 -0.577 -0.577
vn -0.577 -0.577 -0.577
vn -0.577 -0.577 -0.577
vn -0.577 -0.577 -0.577
vn 0.577 0.577 0.577
vn 0.577 0.577 0.577
vn 0.577 0.577 0.577
vn 0.577 0.577 0.577
vn -0.577 -0.577 -0.577
vn -0.577 -0.577 -0.577
vn -0.577 -0.577 -0.577
vn -0.577 -0.577 -0.577
vn -0.577 -0.577 -0.577
vn -0.577 -0.577 -0.577
vn -0.577 -0.577 -0.577
vn -0.577 -0.577 -0.577
vn -0.577 -0.577 -0.577
vn -0.577 -0.577 -0.577
vn -0.577 -0.577 -0.577
vn -0.577 -0.577 -0.577
vn -0.577 -0.577 -0.577
vn -0.577 -0.577 -0.577
vn -0.577 -0.577 -0.577
vn -0.577 -0.577 -0.577
vn -0.577 -0.577 -0.577
vn -0.577 -0.577 -0.577
vn -0.577 -0.577 -0.577
vn -0.577 -0.577 -0.577
vn -0.577 -0.577 -0.577
vn -0.577 -0.577 -0.577
vn -0.577 -0.577 -0.577
vn -0.577 -0.577 -0.577
vn -0.577 -0.577 -0.577
vn -0.577 -0.577 -0.577
vn -0.577 -0.577 -0.577
vn -0.577 -0.577 -0.577
vn -0.577 -0.577 -0.577
vn -0.577 -0.577 -0.577
vn -0.577 -0.577 -0.577
vn -0.577 -0.577 -0.577
vn -0.577 -0.577 -0.577
vn -0.577 -0.577 -0.577
vn -0.577 -0.577 -0.577
vn -0.577 -0.577 -0.577
vn -0.577 -0.577 -0.577
vn -0.577 -0.577 -0.577
vn -0.577 -0.577 -0.577
vn -0.577 -0.577 -0.577
vn -0.577 -0.577 -0.577
vn -0.577 -0.577 -0.577
vn -0.577 -0.577 -0.577
vn -0.577 -0.577 -0.577
vn -0.577 -0.577 -0.577
vn -0.577 -0.577 -0.577
vn -0.577 -0.577 -0.577
vn -0.577 -0.577 -0.577
vn -0.577 -0.577 -0.577
vn -0.577 -0.577 -0.577
vn -0.577 -0.577 -0.577
vn -0.577 -0.577 -0.577
vn -0.577 -0.577 -0.577
vn -0.577 -0.577 -0.577
vn -0.577 -0.577 -0.577
vn -0.577 -0.577 -0.577
vn -0.577 -0.577 -0.577
vn -0.577 -0.577 -0.577
vn -0.577 -0.577 -0.577
vn -0.577 -0.577 -0.577
vn -0.577 -0.577 -0.577
vn -0.577 -0.577 -0.577
vn -0.577 -0.577 -0.577
vn -0.577 -0.577 -0.577
vn -0.577 -0.577 -0.577
vn -0.577 -0.577 -0.577
vn -0.577 -0.577 -0.577
vn -0.577 -0.577 -0.577
vn -0.577 -0.577 -0.577
vn -0.577 -0.577 -0.577
vn -0.577 -0.577 -0.577
vn -0.577 -0.577 -0.577
vn -0.577 -0.577 -0.577
vn -0.577 -0.577 -0.577
vn -0.577 -0.577 -0.577
vn -0.577 -0.577 -0.577
vn -0.577 -0.577 -0.577
vn -0.577 -0.577 -0.577
vn -0.577 -0.577 -0.577
vn -0.577 -0.577 -0.577
vn -0.577 -0.577 -0.577
vn -0.577 -0.577 -0.577
vn -0.577 -0.577 -0.577
vn -0.577 -0.577 -0.577
vn -0.577 -0.577 -0.577
vn -0.577 -0.577 -0.577
vn -0.577 -0.577 -0.577
vn -0.577 -0.577 -0.577
vn -0.577 -0.577 -0.577
vn -0.577 -0.577 -0.577
vn -0.577 -0.577 -0.577
vn -0.577 -0.577 -0.577
vn -0.577 -0.577 -0.577
vn -0.577 -0.577 -0.577
vn -0.577 -0.577 -0.577
vn -0.577 -0.577 -0.577
vn -0.577 -0.577 -0.577
vn -0.577 -0.577 -0.577
vn -0.577 -0.577 -0.577
vn -0.577 -0.577 -0.577
vn -0.577 -0.577 -0.577
vn -0.577 -0.577 -0.577
vn -0.577 -0.577 -0.577
vn -0.577 -0.577 -0.577
vn -0.577 -0.577 -0.577
vn -0.577 -0.577 -0.577
vn -0.577 -0.577 -0.577
vn -0.577 -0.577 -0.577
vn -0.577 -0.577 -0.577
vn -0.577 -0.577 -0.577
vn -0.577 -0.577 -0.577
vn -0.577 -0.577 -0.577
vn -0.577 -0.577 -0.577
vn -0.577 -0.577 -0.577
vn -0.577 -0.577 -0.577
vn -0.577 -0.577 -0.577
vn -0.577 -0.577 -0.577
vn -0.577 -0.577 -0.577
vn -0.577 -0.577 -0.577
vn -0.577 -0.577 -0.577
vn -0.577 -0.577 -0.577
vn -0.577 -0.577 -0.577
vn -0.577 -0.577 -0.577
vn -0.577 -0.577 -0.577
vn -0.577 -0.577 -0.577
vn -0.577 -0.577 -0.577
vn -0.577 -0.577 -0.577
vn -0.577 -0.577 -0.577
vn -0.577 -0.577 -0.577
vn -0.577 -0.577 -0.577
vn -0.577 -0.577 -0.577
vn -0.577 -0.577 -0.577
vn -0.577 -0.577 -0.577
vn -0.577 -0.577 -0.577
vn -0.577 -0.577 -0.577
vn -0.577 -0.577 -0.577
vn -0.577 -0.577 -0.577
vn -0.577 -0.577 -0.577
vn -0.577 -0.577 -0.577
vn -0.577 -0.577 -0.577
vn -0.577 -0.577 -0.577
vn -0.577 -0.577 -0.577
vn -0.577 -0.577 -0.577
vn -0.577 -0.577 -0.577
vn -0.577 -0.577 -0.577
vn -0.577 -0.577 -0.577
vn -0.577 -0.577 -0.577
vn -0.577 -0.577 -0.577
vn -0.577 -0.577 -0.577
vn -0.577 -0.577 -0.577
vn -0.577 -0.577 -0.577
vn -0.577 -0.577 -0.577
vn -0.577 -0.577 -0.577
vn -0.577 -0.577 -0.577
vn -0.577 -0.577 -0.577
vn -0.577 -0.577 -0.577
vn -0.577 -0.577 -0.577
vn -0.577 -0.577 -0.577
vn -0.577 -0.577 -0.577
vn -0.577 -0.577 -0.577
vn -0.577 -0.577 -0.577
vn -0.577 -0.577 -0.577
vn -0.577 -0.577 -0.577
vn -0.577 -0.577 -0.577
vn -0.577 -0.577 -0.577
vn -0.577 -0.577 -0.577
vn -0.577 -0.577 -0.577
vn -0.577 -0.577 -0.577
vn -0.577 -0.577 -0.577
vn -0.577 -0.577 -0.577
vn -0.577 -0.577 -0.577
vn -0.577 -0.577 -0.577
vn -0.577 -0.577 -0.577
vn -0.577 -0.577 -0.577
vn -0.577 -0.577 -0.577
vn -0.577 -0.577 -0.577
vn -0.577 -0.577 -0.577
vn -0.577 -0.577 -0.577
vn -0.577 -0.577 -0.577
vn -0.577 -0.577 -0.577
vn -0.577 -0.577 -0.577
vn -0.577 -0.577 -0.577
vn -0.577 -0.577 -0.577
vn -0.577 -0.577 -0.577
vn -0.577 -0.577 -0.577
vn -0.577 -0.577 -0.577
vn -0.577 -0.577 -0.577
vn -0.577 -0.577 -0.577
vn -0.577 -0.577 -0.577
vn -0.577 -0.577 -0.577
vn -0.577 -0.577 -0.577
vn -0.577 -0.577 -0.577
vn -0.577 -0.577 -0.577
vn -0.577 -0.577 -0.577
vn -0.577 -0.577 -0.577
vn -0.577 -0.577 -0.577
vn -0.577 -0.577 -0.577
vn -0.577 -0.577 -0.577
vn -0.577 -0.577 -0.577
vn -0.577 -0.577 -0.577
vn -0.577 -0.577 -0.577
vn -0.577 -0.577 -0.577
vn -0.577 -0.577 -0.577
vn -0.577 -0.577 -0.577
vn -0.577 -0.577 -0.577
vn -0.577 -0.577 -0.577
vn 0.577 0.577 0.577
vn -0.577 -0.577 -0.577
vn -0.577 -0.577 -0.577
vn -0.577 -0.577 -0.577
vn -0.577 -0.577 -0.577
usemtl tex_1785_lit_w10
f 1/1/1 2/2/2 3/3/3
f 3/3/3 2/2/2 4/4/4
f 3/3/3 5/5/5 6/6/6
f 7/7/7 8/8/8 4/4/4
f 1/1/1 9/9/9 7/7/7
f 2/2/2 1/1/1 7/7/7
f 7/7/7 10/10/10 8/8/8
f 1/1/1 6/6/6 9/9/9
f 3/3/3 6/6/6 1/1/1
f 7/7/7 4/4/4 2/2/2
usemtl tex_1786_lit_w01
f 11/11/11 12/12/12 13/13/13
f 13/13/13 12/12/12 14/14/14
f 13/13/13 15/15/15 16/16/16
f 11/11/11 13/13/13 16/16/16
usemtl tex_1785_lit_w10
f 17/17/17 18/18/18 23/9/23
f 17/17/17 23/9/23 24/6/24
f 19/19/19 20/20/20 25/7/25
f 18/18/18 19/19/19 23/9/23
f 19/19/19 25/7/25 23/9/23
f 20/20/20 26/10/26 25/7/25
usemtl tex_1786_lit_w01
f 21/21/21 27/16/27 28/15/28
f 22/22/22 21/21/21 28/15/28
usemtl tex_1965_lit_w11
f 33/23/33 29/24/29 34/25/34
f 30/26/30 31/27/31 35/28/35
f 33/23/33 32/29/32 29/24/29
f 34/25/34 29/24/29 30/26/30
f 35/28/35 31/27/31 36/30/36
f 36/30/36 31/27/31 32/29/32
f 36/30/36 32/29/32 33/23/33
usemtl tex_1965_lit_w11_ovl
f 34/25/34 30/26/30 35/28/35
usemtl tex_1964_lit_w11
f 37/31/37 38/32/38 39/33/39
f 39/33/39 38/32/38 40/34/40
f 39/33/39 40/34/40 41/35/41
f 41/35/41 40/34/40 42/36/42
f 41/35/41 42/36/42 43/37/43
f 44/38/44 45/36/45 43/37/43
f 46/39/46 44/38/44 43/37/43
f 37/31/37 44/38/44 46/39/46
f 47/40/47 37/31/37 46/39/46
f 38/32/38 37/31/37 47/40/47
usemtl tex_1965_lit_w11
f 48/41/48 49/42/49 50/43/50
f 51/44/51 49/42/49 52/45/52
f 53/46/53 54/47/54 55/48/55
f 56/44/56 57/45/57 53/46/53
f 54/47/54 58/41/58 59/43/59
f 58/41/58 57/45/57 60/42/60
f 54/47/54 59/43/59 55/48/55
f 56/44/56 53/46/53 55/48/55
usemtl tex_1963_lit_w11
f 61/49/61 62/50/62 68/51/68
f 62/50/62 69/52/69 68/51/68
f 69/52/69 63/53/63 70/54/70
f 69/52/69 62/50/62 63/53/63
f 64/55/64 61/49/61 68/51/68
f 64/55/64 68/51/68 71/56/71
usemtl tex_1964_lit_w11
f 65/57/65 72/58/72 66/59/66
f 73/60/73 65/57/65 74/61/74
f 65/57/65 73/60/73 72/58/72
f 65/57/65 67/62/67 74/61/74
f 67/62/67 75/63/75 74/61/74
usemtl tex_1965_lit_w11
f 80/26/80 76/46/76 81/27/81
f 80/26/80 77/47/77 76/46/76
f 82/24/82 77/47/77 80/26/80
f 81/27/81 76/46/76 78/45/78
f 81/27/81 78/45/78 83/29/83
f 83/29/83 78/45/78 79/41/79
f 83/29/83 79/41/79 82/24/82
f 82/24/82 79/41/79 77/47/77
usemtl tex_1785_lit_w10
f 84/64/84 85/65/85 86/66/86
f 87/67/87 85/65/85 84/64/84
f 88/68/88 89/69/89 84/64/84
f 87/67/87 90/70/90 91/71/91
f 91/71/91 92/72/92 86/66/86
f 91/71/91 86/66/86 85/65/85
f 90/70/90 93/73/93 91/71/91
f 92/72/92 88/68/88 86/66/86
f 86/66/86 88/68/88 84/64/84
f 85/65/85 87/67/87 91/71/91
usemtl tex_1786_lit_w01
f 94/74/94 95/75/95 96/76/96
f 97/77/97 95/75/95 94/74/94
f 94/74/94 96/76/96 98/78/98
f 99/79/99 94/74/94 98/78/98
usemtl tex_1785_lit_w10
f 106/72/106 100/80/100 101/81/101
f 107/68/107 106/72/106 101/81/101
f 108/71/108 102/82/102 103/83/103
f 106/72/106 103/83/103 100/80/100
f 106/72/106 108/71/108 103/83/103
f 108/71/108 109/73/109 102/82/102
usemtl tex_1786_lit_w01
f 110/79/110 111/78/111 104/84/104
f 110/79/110 104/84/104 105/85/105
usemtl tex_1965_lit_w11
f 116/86/116 112/87/112 117/88/117
f 113/89/113 112/87/112 116/86/116
f 118/90/118 113/89/113 116/86/116
f 114/91/114 113/89/113 118/90/118
f 119/92/119 114/91/114 118/90/118
f 115/93/115 114/91/114 119/92/119
f 117/88/117 115/93/115 119/92/119
f 112/87/112 115/93/115 117/88/117
usemtl tex_1964_lit_w11
f 120/94/120 121/95/121 122/96/122
f 123/97/123 121/95/121 120/94/120
f 124/37/124 123/97/123 120/94/120
f 125/98/125 123/97/123 124/37/124
f 126/36/126 125/98/125 124/37/124
f 127/99/127 125/98/125 126/36/126
f 128/100/128 127/99/127 126/36/126
f 121/95/121 127/99/127 128/100/128
f 129/101/129 121/95/121 128/100/128
f 122/96/122 121/95/121 129/101/129
usemtl tex_1965_lit_w11
f 130/102/130 131/103/131 132/104/132
f 133/105/133 131/103/131 134/106/134
f 135/107/135 133/105/133 134/106/134
f 136/102/136 137/104/137 138/108/138
f 138/108/138 139/107/139 140/109/140
f 139/107/139 141/106/141 140/109/140
f 140/109/140 136/102/136 138/108/138
f 142/103/142 143/105/143 137/104/137
usemtl tex_1963_lit_w11
f 144/110/144 145/111/145 152/112/152
f 144/110/144 152/112/152 153/113/153
f 145/111/145 146/49/146 154/51/154
f 154/51/154 146/49/146 147/55/147
f 154/51/154 147/55/147 155/56/155
f 145/111/145 154/51/154 152/112/152
f 148/114/148 147/55/147 155/56/155
usemtl tex_1964_lit_w11
f 149/115/149 156/116/156 157/117/157
f 156/116/156 149/115/149 150/118/150
f 156/116/156 150/118/150 158/119/158
f 151/62/151 157/117/157 159/63/159
f 151/62/151 149/115/149 157/117/157
usemtl tex_1965_lit_w11
f 164/89/164 160/108/160 165/87/165
f 161/107/161 160/108/160 164/89/164
f 166/91/166 161/107/161 164/89/164
f 162/105/162 161/107/161 166/91/166
f 167/93/167 162/105/162 166/91/166
f 163/104/163 162/105/162 167/93/167
f 165/87/165 163/104/163 167/93/167
f 160/108/160 163/104/163 165/87/165
usemtl tex_2046_lit_w01
f 168/120/168 175/121/175 176/122/176
f 169/123/169 177/124/177 168/120/168
f 177/124/177 175/121/175 168/120/168
f 170/125/170 168/120/168 176/122/176
f 170/125/170 176/122/176 178/126/178
f 169/123/169 179/127/179 177/124/177
usemtl tex_2045_lit_w01
f 180/128/180 171/129/171 172/130/172
f 173/131/173 181/132/181 174/133/174
f 181/132/181 172/130/172 174/133/174
f 181/132/181 180/128/180 172/130/172
usemtl tex_1609_lit
f 182/134/182 183/135/183 184/136/184
f 184/136/184 183/135/183 185/137/185
usemtl tex_1613_lit_w11
f 186/138/186 187/139/187 188/140/188
f 188/140/188 187/139/187 189/141/189
usemtl tex_1619_lit_w11
f 190/142/190 191/143/191 192/144/192
f 192/144/192 191/143/191 193/145/193
usemtl tex_1616_lit_w11
f 194/146/194 195/147/195 196/148/196
f 196/148/196 195/147/195 197/149/197
usemtl tex_1622_lit_w11
f 198/150/198 199/151/199 200/152/200
f 200/152/200 199/151/199 201/153/201
usemtl tex_1965_lit_w11
f 207/154/207 202/155/202 203/156/203
f 203/156/203 204/157/204 208/158/208
f 204/157/204 205/159/205 208/158/208
f 206/160/206 202/155/202 209/161/209
f 205/159/205 206/160/206 210/162/210
f 202/155/202 207/154/207 209/161/209
f 205/159/205 210/162/210 208/158/208
f 207/154/207 203/156/203 208/158/208
f 206/160/206 209/161/209 210/162/210
f 216/159/216 211/163/211 217/160/217
f 212/164/212 211/163/211 216/159/216
f 218/157/218 212/164/212 216/159/216
f 213/165/213 212/164/212 218/157/218
f 219/156/219 213/165/213 218/157/218
f 214/166/214 213/165/213 219/156/219
f 217/160/217 215/167/215 220/155/220
f 211/163/211 215/167/215 217/160/217
f 220/155/220 214/166/214 219/156/219
f 215/167/215 214/166/214 220/155/220
f 221/168/221 222/169/222 223/170/223
f 224/171/224 225/172/225 223/170/223
f 226/173/226 227/174/227 228/175/228
f 225/172/225 221/168/221 223/170/223
f 226/173/226 228/175/228 222/169/222
f 222/169/222 228/175/228 229/176/229
f 230/177/230 227/174/227 225/172/225
f 222/169/222 229/176/229 223/170/223
f 227/174/227 230/177/230 228/175/228
f 230/177/230 225/172/225 224/171/224
f 236/168/236 231/178/231 237/169/237
f 237/169/237 231/178/231 232/179/232
f 237/169/237 232/179/232 238/173/238
f 238/173/238 232/179/232 233/180/233
f 238/173/238 233/180/233 239/174/239
f 239/174/239 233/180/233 234/181/234
f 239/174/239 234/181/234 240/172/240
f 240/172/240 234/181/234 235/182/235
f 240/172/240 235/182/235 236/168/236
f 236/168/236 235/182/235 231/178/231
f 246/164/246 241/177/241 247/163/247
f 242/175/242 241/177/241 246/164/246
f 248/165/248 242/175/242 246/164/246
f 243/176/243 242/175/242 248/165/248
f 249/166/249 243/176/243 248/165/248
f 244/170/244 243/176/243 249/166/249
f 247/163/247 241/177/241 250/167/250
f 245/171/245 244/170/244 249/166/249
f 250/167/250 245/171/245 249/166/249
f 241/177/241 245/171/245 250/167/250
usemtl tex_1609_lit
f 251/183/251 252/184/252 253/185/253
f 254/186/254 252/184/252 251/183/251
usemtl tex_1613_lit_w11
f 255/187/255 256/188/256 257/189/257
f 258/190/258 256/188/256 255/187/255
usemtl tex_1619_lit_w11
f 259/191/259 260/192/260 261/193/261
f 262/194/262 260/192/260 259/191/259
usemtl tex_1616_lit_w11
f 263/195/263 264/196/264 265/197/265
f 266/198/266 264/196/264 263/195/263
usemtl tex_1622_lit_w11
f 267/199/267 268/200/268 269/201/269
f 270/202/270 268/200/268 267/199/267
usemtl tex_1965_lit_w11
f 271/203/271 272/204/272 276/205/276
f 277/206/277 273/207/273 271/203/271
f 277/206/277 274/208/274 273/207/273
f 278/209/278 272/204/272 275/210/275
f 279/211/279 275/210/275 274/208/274
f 278/209/278 276/205/276 272/204/272
f 277/206/277 279/211/279 274/208/274
f 277/206/277 271/203/271 276/205/276
f 279/211/279 278/209/278 275/210/275
f 285/210/285 280/212/280 286/208/286
f 286/208/286 280/212/280 281/213/281
f 286/208/286 281/213/281 287/207/287
f 287/207/287 281/213/281 282/214/282
f 287/207/287 282/214/282 288/203/288
f 288/203/288 282/214/282 283/215/283
f 289/204/289 284/216/284 285/210/285
f 285/210/285 284/216/284 280/212/280
f 288/203/288 283/215/283 289/204/289
f 289/204/289 283/215/283 284/216/284
f 290/217/290 291/218/291 292/219/292
f 290/217/290 293/220/293 294/221/294
f 295/222/295 296/223/296 297/224/297
f 290/217/290 292/219/292 293/220/293
f 291/218/291 295/222/295 297/224/297
f 298/225/298 295/222/295 291/218/291
f 293/220/293 296/223/296 299/226/299
f 290/217/290 298/225/298 291/218/291
f 295/222/295 299/226/299 296/223/296
f 294/221/294 293/220/293 299/226/299
f 305/218/305 300/227/300 306/219/306
f 301/228/301 300/227/300 305/218/305
f 307/224/307 301/228/301 305/218/305
f 302/229/302 301/228/301 307/224/307
f 308/223/308 302/229/302 307/224/307
f 303/230/303 302/229/302 308/223/308
f 309/220/309 303/230/303 308/223/308
f 304/231/304 303/230/303 309/220/309
f 306/219/306 304/231/304 309/220/309
f 300/227/300 304/231/304 306/219/306
f 315/212/315 310/226/310 316/213/316
f 316/213/316 310/226/310 311/222/311
f 316/213/316 311/222/311 317/214/317
f 317/214/317 311/222/311 312/225/312
f 317/214/317 312/225/312 318/215/318
f 318/215/318 312/225/312 313/217/313
f 319/216/319 310/226/310 315/212/315
f 318/215/318 313/217/313 314/221/314
f 318/215/318 314/221/314 319/216/319
f 319/216/319 314/221/314 310/226/310
usemtl tex_1963_lit_w11
f 320/232/320 321/233/321 322/234/322
f 320/232/320 323/235/323 321/233/321
f 322/234/322 324/236/324 325/237/325
f 326/238/326 325/237/325 327/239/327
f 328/240/328 329/241/329 330/242/330
f 326/238/326 322/234/322 325/237/325
f 326/238/326 320/232/320 322/234/322
f 331/243/331 332/244/332 333/245/333
f 332/244/332 322/234/322 333/245/333
f 325/237/325 330/242/330 334/246/334
f 335/247/335 332/244/332 331/243/331
f 324/236/324 328/240/328 325/237/325
f 336/235/336 337/232/337 338/248/338
f 339/249/339 340/241/340 341/250/341
f 342/251/342 343/238/343 344/239/344
f 345/244/345 346/236/346 347/234/347
f 344/239/344 348/237/348 349/246/349
f 342/251/342 344/239/344 350/252/350
f 351/237/351 352/240/352 353/242/353
f 354/236/354 355/250/355 352/240/352
f 356/241/356 352/240/352 355/250/355
f 357/251/357 358/252/358 359/253/359
f 360/239/360 361/246/361 358/252/358
usemtl tex_1964_lit_w11
f 362/254/362 363/255/363 364/256/364
f 365/257/365 362/254/362 366/258/366
f 366/258/366 362/254/362 364/256/364
f 367/259/367 368/260/368 369/255/369
f 370/261/370 368/260/368 367/259/367
f 371/262/371 372/254/372 373/257/373
f 371/262/371 373/257/373 374/263/374
f 375/264/375 371/262/371 374/263/374
f 373/257/373 376/265/376 374/263/374
f 377/256/377 378/266/378 379/267/379
f 369/255/369 368/260/368 380/268/380
f 375/264/375 370/261/370 371/262/371
f 367/259/367 372/254/372 371/262/371
f 370/261/370 367/259/367 371/262/371
f 372/254/372 367/259/367 369/255/369
f 381/258/381 379/267/379 376/265/376
f 381/258/381 377/256/377 379/267/379
f 373/257/373 381/258/381 376/265/376
usemtl tex_1963_lit_w11
f 382/269/382 390/246/390 383/270/383
f 383/270/383 391/242/391 384/271/384
f 383/270/383 390/246/390 391/242/391
f 385/272/385 392/252/392 382/269/382
f 382/269/382 392/252/392 390/246/390
f 384/271/384 391/242/391 393/241/393
usemtl tex_1964_lit_w11
f 386/273/386 394/266/394 387/274/387
f 387/274/387 394/266/394 395/256/395
f 387/274/387 395/256/395 388/275/388
f 388/275/388 395/256/395 396/255/396
f 388/275/388 396/255/396 389/276/389
f 389/276/389 396/255/396 397/268/397
usemtl tex_1963_lit_w11
f 401/270/401 402/50/402 403/49/403
f 404/53/404 401/270/401 405/271/405
f 402/50/402 401/270/401 404/53/404
f 409/110/409 410/272/410 411/269/411
f 412/111/412 411/269/411 403/49/403
f 411/269/411 401/270/401 403/49/403
f 409/110/409 411/269/411 412/111/412
usemtl tex_1964_lit_w11
f 413/59/413 414/273/414 415/57/415
f 415/57/415 414/273/414 416/274/416
f 415/57/415 416/274/416 417/62/417
f 417/62/417 416/274/416 418/275/418
f 417/62/417 418/275/418 419/115/419
f 419/115/419 418/275/418 420/118/420
f 420/118/420 418/275/418 421/276/421
