mtllib CsnowguardZ.mtl
v -1078.8555908203125 -87.70243644714355 -74.0 1.000 1.000 1.000
v -1078.8555908203125 -170.70243644714355 -68.0 1.000 1.000 1.000
v -1078.8555908203125 -45.702436447143555 191.0 1.000 1.000 1.000
v -1078.8555908203125 -164.70243644714355 200.0 1.000 1.000 1.000
v -1036.8555908203125 -80.70243644714355 177.0 1.000 1.000 1.000
v -972.8555908203125 -85.70243644714355 -4.0 1.000 1.000 1.000
v -973.8555908203125 -159.70243644714355 -67.0 1.000 1.000 1.000
v -1038.8555908203125 -136.70243644714355 203.0 1.000 1.000 1.000
v -973.8555908203125 -98.70243644714355 -62.0 1.000 1.000 1.000
v -973.8555908203125 -149.70243644714355 20.0 1.000 1.000 1.000
v -734.8883666992188 -171.47519826889038 -69.0 1.000 1.000 1.000
v -672.8883666992188 -182.47519826889038 -103.0 1.000 1.000 1.000
v -733.8883666992188 -166.47519826889038 47.0 1.000 1.000 1.000
v -691.8883666992188 -182.47519826889038 101.0 1.000 1.000 1.000
v -736.8883666992188 -64.47519826889038 50.0 1.000 1.000 1.000
v -688.8883666992188 -40.47519826889038 89.0 1.000 1.000 1.000
v -688.8883666992188 -40.47519826889038 89.0 1.000 1.000 1.000
v -736.8883666992188 -67.47519826889038 -68.0 1.000 1.000 1.000
v -672.8883666992188 -64.47519826889038 -104.0 1.000 1.000 1.000
v -736.8883666992188 -64.47519826889038 50.0 1.000 1.000 1.000
v -733.8883666992188 -166.47519826889038 47.0 1.000 1.000 1.000
v -736.8883666992188 -64.47519826889038 50.0 1.000 1.000 1.000
v -736.8883666992188 -67.47519826889038 -68.0 1.000 1.000 1.000
v -734.8883666992188 -171.47519826889038 -69.0 1.000 1.000 1.000
v -733.8883666992188 -166.47519826889038 47.0 1.000 1.000 1.000
v -972.8555908203125 -85.70243644714355 -4.0 1.000 1.000 1.000
v -973.8555908203125 -149.70243644714355 20.0 1.000 1.000 1.000
v -973.8555908203125 -98.70243644714355 -62.0 1.000 1.000 1.000
v -972.8555908203125 -85.70243644714355 -4.0 1.000 1.000 1.000
v -973.8555908203125 -159.70243644714355 -67.0 1.000 1.000 1.000
v -973.8555908203125 -149.70243644714355 20.0 1.000 1.000 1.000
v -529.8883666992188 -114.47519826889038 113.0 1.000 1.000 1.000
v -523.8883666992188 -23.47519826889038 12.0 1.000 1.000 1.000
v -516.8883666992188 -115.47519826889038 -95.0 1.000 1.000 1.000
v -512.8883666992188 -186.47519826889038 16.0 1.000 1.000 1.000
v -691.8883666992188 -182.47519826889038 101.0 1.000 1.000 1.000
v -688.8883666992188 -40.47519826889038 89.0 1.000 1.000 1.000
v -672.8883666992188 -64.47519826889038 -104.0 1.000 1.000 1.000
v -672.8883666992188 -182.47519826889038 -103.0 1.000 1.000 1.000
v -1000.8883666992188 -139.47519826889038 46.0 1.000 1.000 1.000
v -527.8883666992188 -125.47519826889038 87.0 1.000 1.000 1.000
v -999.8883666992188 -90.47519826889038 23.0 1.000 1.000 1.000
v -518.8883666992188 -27.47519826889038 38.0 1.000 1.000 1.000
v -521.8883666992188 -101.47519826889038 -67.0 1.000 1.000 1.000
v -972.8883666992188 -103.47519826889038 -62.0 1.000 1.000 1.000
v -522.8883666992188 -188.47519826889038 13.0 1.000 1.000 1.000
v -971.8883666992188 -149.47519826889038 -50.0 1.000 1.000 1.000
v -274.5890197753906 -24.63739013671875 6.0 1.000 1.000 1.000
v -275.5890197753906 -49.63739013671875 -67.0 1.000 1.000 1.000
v -275.5890197753906 -115.63739013671875 -106.0 1.000 1.000 1.000
v -274.5890197753906 -137.63739013671875 -129.0 1.000 1.000 1.000
v -275.5890197753906 -191.63739013671875 19.0 1.000 1.000 1.000
v -274.5890197753906 -191.63739013671875 -129.0 1.000 1.000 1.000
v -275.5890197753906 -7.63739013671875 13.0 1.000 1.000 1.000
v -275.5890197753906 -144.63739013671875 116.0 1.000 1.000 1.000
v -276.5890197753906 -189.63739013671875 162.0 1.000 1.000 1.000
v -274.5890197753906 -70.63739013671875 89.0 1.000 1.000 1.000
v -423.5890197753906 -127.63739013671875 116.0 1.000 1.000 1.000
v -275.5890197753906 -191.63739013671875 19.0 1.000 1.000 1.000
v -275.5890197753906 -144.63739013671875 116.0 1.000 1.000 1.000
v -275.5890197753906 -115.63739013671875 -106.0 1.000 1.000 1.000
v -427.5890197753906 -186.63739013671875 13.0 1.000 1.000 1.000
v -424.5890197753906 -118.63739013671875 -99.0 1.000 1.000 1.000
v -381.5890197753906 -24.63739013671875 21.0 1.000 1.000 1.000
v -274.5890197753906 -24.63739013671875 6.0 1.000 1.000 1.000
v -275.5890197753906 -115.63739013671875 -106.0 1.000 1.000 1.000
v -427.5890197753906 -186.63739013671875 13.0 1.000 1.000 1.000
v -423.5890197753906 -127.63739013671875 116.0 1.000 1.000 1.000
v -275.5890197753906 -144.63739013671875 116.0 1.000 1.000 1.000
v -275.5890197753906 -191.63739013671875 19.0 1.000 1.000 1.000
v -63.0 -128.0 156.0 1.000 1.000 1.000
v -178.0 -36.0 20.0 1.000 1.000 1.000
v -1.0 -147.0 -121.0 1.000 1.000 1.000
v -2.0 -177.0 166.0 1.000 1.000 1.000
v -91.0 -71.0 -122.0 1.000 1.000 1.000
v -178.0 -36.0 20.0 1.000 1.000 1.000
v -1.0 -147.0 -121.0 1.000 1.000 1.000
v -274.5890197753906 -70.63739013671875 89.0 1.000 1.000 1.000
v -276.5890197753906 -189.63739013671875 162.0 1.000 1.000 1.000
v -275.5890197753906 -7.63739013671875 13.0 1.000 1.000 1.000
v -274.5890197753906 -191.63739013671875 -129.0 1.000 1.000 1.000
v -275.5890197753906 -7.63739013671875 13.0 1.000 1.000 1.000
v -275.5890197753906 -49.63739013671875 -67.0 1.000 1.000 1.000
v -274.5890197753906 -137.63739013671875 -129.0 1.000 1.000 1.000
v -274.5890197753906 -191.63739013671875 -129.0 1.000 1.000 1.000
v -424.5890197753906 -118.63739013671875 -99.0 1.000 1.000 1.000
v -381.5890197753906 -24.63739013671875 21.0 1.000 1.000 1.000
v -427.5890197753906 -186.63739013671875 13.0 1.000 1.000 1.000
v -423.5890197753906 -127.63739013671875 116.0 1.000 1.000 1.000
v -523.8883666992188 -23.47519826889038 12.0 1.000 1.000 1.000
v -516.8883666992188 -115.47519826889038 -95.0 1.000 1.000 1.000
v -529.8883666992188 -114.47519826889038 113.0 1.000 1.000 1.000
v -512.8883666992188 -186.47519826889038 16.0 1.000 1.000 1.000
v -527.5890197753906 -125.63739013671875 87.0 1.000 1.000 1.000
v -225.58901977539062 -185.63739013671875 20.0 1.000 1.000 1.000
v -225.58901977539062 -144.63739013671875 124.0 1.000 1.000 1.000
v -225.58901977539062 -115.63739013671875 -73.0 1.000 1.000 1.000
v -522.5890197753906 -188.63739013671875 13.0 1.000 1.000 1.000
v -522.5890197753906 -101.63739013671875 -67.0 1.000 1.000 1.000
v -519.5890197753906 -27.63739013671875 38.0 1.000 1.000 1.000
v -225.58901977539062 -30.63739013671875 27.0 1.000 1.000 1.000
v 1087.927879333496 -50.380823612213135 191.0 1.000 1.000 1.000
v 1087.927879333496 -174.38082361221313 -68.0 1.000 1.000 1.000
v 1087.927879333496 -92.38082361221313 -74.0 1.000 1.000 1.000
v 1087.927879333496 -169.38082361221313 200.0 1.000 1.000 1.000
v 980.9278793334961 -89.38082361221313 -4.0 1.000 1.000 1.000
v 1044.927879333496 -85.38082361221313 177.0 1.000 1.000 1.000
v 1046.927879333496 -141.38082361221313 203.0 1.000 1.000 1.000
v 981.9278793334961 -164.38082361221313 -67.0 1.000 1.000 1.000
v 982.9278793334961 -102.38082361221313 -62.0 1.000 1.000 1.000
v 982.9278793334961 -154.38082361221313 20.0 1.000 1.000 1.000
v 743.3251266479492 -170.09517669677734 47.0 1.000 1.000 1.000
v 681.3251266479492 -186.09517669677734 -103.0 1.000 1.000 1.000
v 743.3251266479492 -175.09517669677734 -69.0 1.000 1.000 1.000
v 700.3251266479492 -186.09517669677734 101.0 1.000 1.000 1.000
v 745.3251266479492 -68.09517669677734 50.0 1.000 1.000 1.000
v 698.3251266479492 -44.095176696777344 89.0 1.000 1.000 1.000
v 745.3251266479492 -72.09517669677734 -68.0 1.000 1.000 1.000
v 698.3251266479492 -45.095176696777344 89.0 1.000 1.000 1.000
v 681.3251266479492 -59.095176696777344 -104.0 1.000 1.000 1.000
v 983.3251266479492 -154.09517669677734 20.0 1.000 1.000 1.000
v 981.3251266479492 -89.09517669677734 -4.0 1.000 1.000 1.000
v 745.3251266479492 -68.09517669677734 50.0 1.000 1.000 1.000
v 743.3251266479492 -170.09517669677734 47.0 1.000 1.000 1.000
v 982.3251266479492 -103.09517669677734 -62.0 1.000 1.000 1.000
v 745.3251266479492 -72.09517669677734 -68.0 1.000 1.000 1.000
v 745.3251266479492 -68.09517669677734 50.0 1.000 1.000 1.000
v 981.3251266479492 -89.09517669677734 -4.0 1.000 1.000 1.000
v 982.3251266479492 -103.09517669677734 -62.0 1.000 1.000 1.000
v 745.3251266479492 -68.09517669677734 50.0 1.000 1.000 1.000
v 982.3251266479492 -164.09517669677734 -67.0 1.000 1.000 1.000
v 743.3251266479492 -170.09517669677734 47.0 1.000 1.000 1.000
v 743.3251266479492 -175.09517669677734 -69.0 1.000 1.000 1.000
v 745.3251266479492 -72.09517669677734 -68.0 1.000 1.000 1.000
v 983.3251266479492 -154.09517669677734 20.0 1.000 1.000 1.000
v 538.3251266479492 -118.09517669677734 113.0 1.000 1.000 1.000
v 525.3251266479492 -120.09517669677734 -95.0 1.000 1.000 1.000
v 532.3251266479492 -28.095176696777344 12.0 1.000 1.000 1.000
v 522.3251266479492 -190.09517669677734 16.0 1.000 1.000 1.000
v 698.3251266479492 -45.095176696777344 89.0 1.000 1.000 1.000
v 700.3251266479492 -186.09517669677734 101.0 1.000 1.000 1.000
v 681.3251266479492 -59.095176696777344 -104.0 1.000 1.000 1.000
v 681.3251266479492 -186.09517669677734 -103.0 1.000 1.000 1.000
v 1009.3251266479492 -95.09517669677734 23.0 1.000 1.000 1.000
v 536.3251266479492 -130.09517669677734 87.0 1.000 1.000 1.000
v 1009.3251266479492 -144.09517669677734 46.0 1.000 1.000 1.000
v 982.3251266479492 -108.09517669677734 -62.0 1.000 1.000 1.000
v 531.3251266479492 -106.09517669677734 -67.0 1.000 1.000 1.000
v 528.3251266479492 -31.095176696777344 38.0 1.000 1.000 1.000
v 531.3251266479492 -193.09517669677734 13.0 1.000 1.000 1.000
v 981.3251266479492 -153.09517669677734 -49.0 1.000 1.000 1.000
v 283.1657943725586 -65.35110473632812 88.0 1.000 1.000 1.000
v 285.1657943725586 -32.351104736328125 5.0 1.000 1.000 1.000
v 285.1657943725586 -8.351104736328125 5.0 1.000 1.000 1.000
v 284.1657943725586 -148.35110473632812 116.0 1.000 1.000 1.000
v 286.1657943725586 -198.35110473632812 162.0 1.000 1.000 1.000
v 284.1657943725586 -196.35110473632812 19.0 1.000 1.000 1.000
v 284.1657943725586 -196.35110473632812 -129.0 1.000 1.000 1.000
v 284.1657943725586 -119.35110473632812 -106.0 1.000 1.000 1.000
v 284.1657943725586 -121.35110473632812 -123.0 1.000 1.000 1.000
v 283.1657943725586 -39.351104736328125 -67.0 1.000 1.000 1.000
v 284.1657943725586 -148.35110473632812 116.0 1.000 1.000 1.000
v 284.1657943725586 -196.35110473632812 19.0 1.000 1.000 1.000
v 432.1657943725586 -131.35110473632812 116.0 1.000 1.000 1.000
v 436.1657943725586 -190.35110473632812 13.0 1.000 1.000 1.000
v 284.1657943725586 -119.35110473632812 -106.0 1.000 1.000 1.000
v 285.1657943725586 -32.351104736328125 5.0 1.000 1.000 1.000
v 390.1657943725586 -28.351104736328125 21.0 1.000 1.000 1.000
v 433.1657943725586 -123.35110473632812 -99.0 1.000 1.000 1.000
v 436.1657943725586 -190.35110473632812 13.0 1.000 1.000 1.000
v 284.1657943725586 -119.35110473632812 -106.0 1.000 1.000 1.000
v 284.1657943725586 -148.35110473632812 116.0 1.000 1.000 1.000
v 432.1657943725586 -131.35110473632812 116.0 1.000 1.000 1.000
v 284.1657943725586 -196.35110473632812 19.0 1.000 1.000 1.000
v 177.0 -37.0 25.0 1.000 1.000 1.000
v 67.0 -125.0 159.0 1.000 1.000 1.000
v -2.0 -177.0 166.0 1.000 1.000 1.000
v -1.0 -147.0 -121.0 1.000 1.000 1.000
v 92.0 -69.0 -126.0 1.000 1.000 1.000
v 177.0 -37.0 25.0 1.000 1.000 1.000
v -1.0 -147.0 -121.0 1.000 1.000 1.000
v 283.1657943725586 -65.35110473632812 88.0 1.000 1.000 1.000
v 285.1657943725586 -8.351104736328125 5.0 1.000 1.000 1.000
v 286.1657943725586 -198.35110473632812 162.0 1.000 1.000 1.000
v 284.1657943725586 -196.35110473632812 -129.0 1.000 1.000 1.000
v 283.1657943725586 -39.351104736328125 -67.0 1.000 1.000 1.000
v 284.1657943725586 -121.35110473632812 -123.0 1.000 1.000 1.000
v 285.1657943725586 -8.351104736328125 5.0 1.000 1.000 1.000
v 284.1657943725586 -196.35110473632812 -129.0 1.000 1.000 1.000
v 433.1657943725586 -123.35110473632812 -99.0 1.000 1.000 1.000
v 390.1657943725586 -28.351104736328125 21.0 1.000 1.000 1.000
v 436.1657943725586 -190.35110473632812 13.0 1.000 1.000 1.000
v 432.1657943725586 -131.35110473632812 116.0 1.000 1.000 1.000
v 525.3251266479492 -120.09517669677734 -95.0 1.000 1.000 1.000
v 532.3251266479492 -28.095176696777344 12.0 1.000 1.000 1.000
v 538.3251266479492 -118.09517669677734 113.0 1.000 1.000 1.000
v 522.3251266479492 -190.09517669677734 16.0 1.000 1.000 1.000
v 234.1657943725586 -148.35110473632812 124.0 1.000 1.000 1.000
v 234.1657943725586 -189.35110473632812 20.0 1.000 1.000 1.000
v 537.1657943725586 -129.35110473632812 87.0 1.000 1.000 1.000
v 531.1657943725586 -193.35110473632812 13.0 1.000 1.000 1.000
v 234.1657943725586 -119.35110473632812 -73.0 1.000 1.000 1.000
v 234.1657943725586 -35.351104736328125 27.0 1.000 1.000 1.000
v 528.1657943725586 -31.351104736328125 38.0 1.000 1.000 1.000
v 531.1657943725586 -106.35110473632812 -67.0 1.000 1.000 1.000
v -254.86859130859375 385.30655002593994 77.0 1.000 1.000 1.000
v -160.86859130859375 437.30655002593994 0.0 1.000 1.000 1.000
v -201.86859130859375 441.30655002593994 -66.0 1.000 1.000 1.000
v -335.86859130859375 437.30655002593994 0.0 1.000 1.000 1.000
v -299.86859130859375 442.30655002593994 -62.0 1.000 1.000 1.000
v -6.576026916503906 442.42901611328125 73.0 1.000 1.000 1.000
v -51.576026916503906 469.42901611328125 44.0 1.000 1.000 1.000
v 63.423973083496094 455.42901611328125 -106.0 1.000 1.000 1.000
v 78.4239730834961 470.42901611328125 29.0 1.000 1.000 1.000
v 49.423973083496094 468.42901611328125 44.0 1.000 1.000 1.000
v -74.5760269165039 470.42901611328125 31.0 1.000 1.000 1.000
v -59.576026916503906 456.42901611328125 -104.0 1.000 1.000 1.000
v -43.576026916503906 592.4290161132812 165.0 1.000 1.000 1.000
v -0.5760269165039062 601.4290161132812 178.0 1.000 1.000 1.000
v 0.42397308349609375 614.4290161132812 131.0 1.000 1.000 1.000
v 45.423973083496094 592.4290161132812 165.0 1.000 1.000 1.000
v 48.423973083496094 593.4290161132812 108.0 1.000 1.000 1.000
v -56.576026916503906 593.4290161132812 108.0 1.000 1.000 1.000
v -51.576026916503906 469.42901611328125 44.0 1.000 1.000 1.000
v -62.576026916503906 528.4290161132812 63.0 1.000 1.000 1.000
v -74.5760269165039 470.42901611328125 31.0 1.000 1.000 1.000
v 94.4239730834961 619.4290161132812 23.0 1.000 1.000 1.000
v 68.4239730834961 574.4290161132812 80.0 1.000 1.000 1.000
v 78.4239730834961 470.42901611328125 29.0 1.000 1.000 1.000
v 1.4239730834960938 513.4290161132812 -120.0 1.000 1.000 1.000
v 63.423973083496094 455.42901611328125 -106.0 1.000 1.000 1.000
v -59.576026916503906 456.42901611328125 -104.0 1.000 1.000 1.000
v 1.4239730834960938 609.4290161132812 -98.0 1.000 1.000 1.000
v -79.5760269165039 524.4290161132812 -99.0 1.000 1.000 1.000
v -73.5760269165039 653.4290161132812 -77.0 1.000 1.000 1.000
v 82.4239730834961 523.4290161132812 -100.0 1.000 1.000 1.000
v 62.423973083496094 526.4290161132812 62.0 1.000 1.000 1.000
v 49.423973083496094 468.42901611328125 44.0 1.000 1.000 1.000
v 75.4239730834961 625.4290161132812 -76.0 1.000 1.000 1.000
v 1.4239730834960938 669.4290161132812 120.0 1.000 1.000 1.000
v 48.423973083496094 593.4290161132812 108.0 1.000 1.000 1.000
v 66.4239730834961 681.4290161132812 45.0 1.000 1.000 1.000
v 1.4239730834960938 707.4290161132812 -21.0 1.000 1.000 1.000
v -73.5760269165039 653.4290161132812 -77.0 1.000 1.000 1.000
v -64.5760269165039 666.4290161132812 -11.0 1.000 1.000 1.000
v -64.5760269165039 681.4290161132812 43.0 1.000 1.000 1.000
v -91.5760269165039 619.4290161132812 23.0 1.000 1.000 1.000
v 94.4239730834961 619.4290161132812 23.0 1.000 1.000 1.000
v 75.4239730834961 625.4290161132812 -76.0 1.000 1.000 1.000
v 1.4239730834960938 670.4290161132812 -81.0 1.000 1.000 1.000
v 1.4239730834960938 702.4290161132812 78.0 1.000 1.000 1.000
v -56.576026916503906 593.4290161132812 108.0 1.000 1.000 1.000
v -79.5760269165039 524.4290161132812 -99.0 1.000 1.000 1.000
v -74.5760269165039 470.42901611328125 31.0 1.000 1.000 1.000
v 75.4239730834961 625.4290161132812 -76.0 1.000 1.000 1.000
v 82.4239730834961 523.4290161132812 -100.0 1.000 1.000 1.000
v 1.4239730834960938 609.4290161132812 -98.0 1.000 1.000 1.000
v 1.4239730834960938 513.4290161132812 -120.0 1.000 1.000 1.000
v -70.5760269165039 574.4290161132812 80.0 1.000 1.000 1.000
v -91.5760269165039 619.4290161132812 23.0 1.000 1.000 1.000
v -74.5760269165039 470.42901611328125 31.0 1.000 1.000 1.000
v 1.4239730834960938 670.4290161132812 -81.0 1.000 1.000 1.000
v 66.4239730834961 681.4290161132812 45.0 1.000 1.000 1.000
v 94.4239730834961 619.4290161132812 23.0 1.000 1.000 1.000
v 70.4239730834961 666.4290161132812 -16.0 1.000 1.000 1.000
v 1.4239730834960938 707.4290161132812 -21.0 1.000 1.000 1.000
v -73.5760269165039 653.4290161132812 -77.0 1.000 1.000 1.000
v 0.42397308349609375 614.4290161132812 131.0 1.000 1.000 1.000
v 48.423973083496094 593.4290161132812 108.0 1.000 1.000 1.000
v 1.4239730834960938 669.4290161132812 120.0 1.000 1.000 1.000
v 0.42397308349609375 614.4290161132812 131.0 1.000 1.000 1.000
v 1.4239730834960938 669.4290161132812 120.0 1.000 1.000 1.000
v -56.576026916503906 593.4290161132812 108.0 1.000 1.000 1.000
v 75.4239730834961 625.4290161132812 -76.0 1.000 1.000 1.000
v 70.4239730834961 666.4290161132812 -16.0 1.000 1.000 1.000
v 94.4239730834961 619.4290161132812 23.0 1.000 1.000 1.000
v -79.5760269165039 524.4290161132812 -99.0 1.000 1.000 1.000
v -91.5760269165039 619.4290161132812 23.0 1.000 1.000 1.000
v -73.5760269165039 653.4290161132812 -77.0 1.000 1.000 1.000
v -56.576026916503906 593.4290161132812 108.0 1.000 1.000 1.000
v 48.423973083496094 593.4290161132812 108.0 1.000 1.000 1.000
v 0.42397308349609375 614.4290161132812 131.0 1.000 1.000 1.000
v -74.5760269165039 470.42901611328125 31.0 1.000 1.000 1.000
v -62.576026916503906 528.4290161132812 63.0 1.000 1.000 1.000
v -70.5760269165039 574.4290161132812 80.0 1.000 1.000 1.000
v 68.4239730834961 574.4290161132812 80.0 1.000 1.000 1.000
v 62.423973083496094 526.4290161132812 62.0 1.000 1.000 1.000
v 78.4239730834961 470.42901611328125 29.0 1.000 1.000 1.000
v 48.423973083496094 593.4290161132812 108.0 1.000 1.000 1.000
v 94.4239730834961 619.4290161132812 23.0 1.000 1.000 1.000
v -91.5760269165039 619.4290161132812 23.0 1.000 1.000 1.000
v -70.5760269165039 574.4290161132812 80.0 1.000 1.000 1.000
v -56.576026916503906 593.4290161132812 108.0 1.000 1.000 1.000
v -0.5760269165039062 580.4290161132812 138.0 1.000 1.000 1.000
v 61.423973083496094 579.4290161132812 101.0 1.000 1.000 1.000
v 48.423973083496094 593.4290161132812 108.0 1.000 1.000 1.000
v -65.5760269165039 579.4290161132812 110.0 1.000 1.000 1.000
v -6.576026916503906 580.4290161132812 138.0 1.000 1.000 1.000
v -56.576026916503906 593.4290161132812 108.0 1.000 1.000 1.000
v -4.576026916503906 593.4290161132812 108.0 1.000 1.000 1.000
v -6.576026916503906 580.4290161132812 138.0 1.000 1.000 1.000
v -0.5760269165039062 580.4290161132812 138.0 1.000 1.000 1.000
v -4.576026916503906 593.4290161132812 108.0 1.000 1.000 1.000
v 48.423973083496094 593.4290161132812 108.0 1.000 1.000 1.000
v 52.423973083496094 520.4290161132812 113.0 1.000 1.000 1.000
v 68.4239730834961 574.4290161132812 80.0 1.000 1.000 1.000
v 61.423973083496094 579.4290161132812 101.0 1.000 1.000 1.000
v -65.5760269165039 579.4290161132812 110.0 1.000 1.000 1.000
v -56.576026916503906 593.4290161132812 108.0 1.000 1.000 1.000
v -70.5760269165039 574.4290161132812 80.0 1.000 1.000 1.000
v -62.576026916503906 528.4290161132812 63.0 1.000 1.000 1.000
v -55.576026916503906 520.4290161132812 114.0 1.000 1.000 1.000
v -53.576026916503906 508.42901611328125 109.0 1.000 1.000 1.000
v 5.423973083496094 545.4290161132812 144.0 1.000 1.000 1.000
v 6.423973083496094 534.4290161132812 145.0 1.000 1.000 1.000
v 49.423973083496094 508.42901611328125 108.0 1.000 1.000 1.000
v 49.423973083496094 508.42901611328125 108.0 1.000 1.000 1.000
v 62.423973083496094 526.4290161132812 62.0 1.000 1.000 1.000
v 52.423973083496094 520.4290161132812 113.0 1.000 1.000 1.000
v 68.4239730834961 574.4290161132812 80.0 1.000 1.000 1.000
v -11.576026916503906 545.4290161132812 144.0 1.000 1.000 1.000
v -12.576026916503906 533.4290161132812 145.0 1.000 1.000 1.000
v 6.423973083496094 534.4290161132812 145.0 1.000 1.000 1.000
v 5.423973083496094 545.4290161132812 144.0 1.000 1.000 1.000
v -6.576026916503906 580.4290161132812 138.0 1.000 1.000 1.000
v 5.423973083496094 545.4290161132812 144.0 1.000 1.000 1.000
v -0.5760269165039062 580.4290161132812 138.0 1.000 1.000 1.000
v -6.576026916503906 580.4290161132812 138.0 1.000 1.000 1.000
v -65.5760269165039 579.4290161132812 110.0 1.000 1.000 1.000
v -55.576026916503906 520.4290161132812 114.0 1.000 1.000 1.000
v 61.423973083496094 579.4290161132812 101.0 1.000 1.000 1.000
v -53.576026916503906 508.42901611328125 109.0 1.000 1.000 1.000
v 35.423973083496094 423.42901611328125 127.0 1.000 1.000 1.000
v -1.5760269165039062 405.42901611328125 107.0 1.000 1.000 1.000
v 49.423973083496094 468.42901611328125 44.0 1.000 1.000 1.000
v -39.576026916503906 425.42901611328125 127.0 1.000 1.000 1.000
v 18.423973083496094 486.42901611328125 153.0 1.000 1.000 1.000
v 49.423973083496094 508.42901611328125 108.0 1.000 1.000 1.000
v 6.423973083496094 534.4290161132812 145.0 1.000 1.000 1.000
v -53.576026916503906 508.42901611328125 109.0 1.000 1.000 1.000
v -62.576026916503906 528.4290161132812 63.0 1.000 1.000 1.000
v -51.576026916503906 469.42901611328125 44.0 1.000 1.000 1.000
v 62.423973083496094 526.4290161132812 62.0 1.000 1.000 1.000
v -24.576026916503906 487.42901611328125 154.0 1.000 1.000 1.000
v -12.576026916503906 533.4290161132812 145.0 1.000 1.000 1.000
v -6.576026916503906 442.42901611328125 73.0 1.000 1.000 1.000
v -49.576026916503906 481.42901611328125 -54.0 1.000 1.000 1.000
v 48.423973083496094 482.42901611328125 -54.0 1.000 1.000 1.000
v 41.423973083496094 417.42901611328125 137.0 1.000 1.000 1.000
v -41.576026916503906 417.42901611328125 137.0 1.000 1.000 1.000
v -86.5760269165039 666.4290161132812 111.0 1.000 1.000 1.000
v 88.4239730834961 661.4290161132812 112.0 1.000 1.000 1.000
v 66.4239730834961 659.4290161132812 -68.0 1.000 1.000 1.000
v -80.5760269165039 659.4290161132812 -68.0 1.000 1.000 1.000
v -41.576026916503906 417.42901611328125 137.0 1.000 1.000 1.000
v 41.423973083496094 417.42901611328125 137.0 1.000 1.000 1.000
v 88.4239730834961 661.4290161132812 112.0 1.000 1.000 1.000
v -86.5760269165039 666.4290161132812 111.0 1.000 1.000 1.000
v -787.0662807226181 371.1454210281372 55.0 1.000 1.000 1.000
v -744.0662807226181 441.1454210281372 -27.0 1.000 1.000 1.000
v -775.0662807226181 377.1454210281372 -44.0 1.000 1.000 1.000
v -756.0662807226181 465.1454210281372 52.0 1.000 1.000 1.000
v -744.0662807226181 441.1454210281372 -27.0 1.000 1.000 1.000
v -641.0662807226181 434.1454210281372 42.0 1.000 1.000 1.000
v -651.0662807226181 422.1454210281372 -27.0 1.000 1.000 1.000
v -756.0662807226181 465.1454210281372 52.0 1.000 1.000 1.000
v -651.0662807226181 422.1454210281372 -27.0 1.000 1.000 1.000
v -775.0662807226181 377.1454210281372 -44.0 1.000 1.000 1.000
v -744.0662807226181 441.1454210281372 -27.0 1.000 1.000 1.000
v -654.0662807226181 375.1454210281372 -23.0 1.000 1.000 1.000
v -775.0662807226181 377.1454210281372 -44.0 1.000 1.000 1.000
v -645.0662807226181 368.1454210281372 38.0 1.000 1.000 1.000
v -787.0662807226181 371.1454210281372 55.0 1.000 1.000 1.000
v -654.0662807226181 375.1454210281372 -23.0 1.000 1.000 1.000
v -641.0662807226181 434.1454210281372 42.0 1.000 1.000 1.000
v -787.0662807226181 371.1454210281372 55.0 1.000 1.000 1.000
v -645.0662807226181 368.1454210281372 38.0 1.000 1.000 1.000
v -756.0662807226181 465.1454210281372 52.0 1.000 1.000 1.000
v -594.1976894140244 354.83887100219727 57.0 1.000 1.000 1.000
v -584.1976894140244 412.83887100219727 61.0 1.000 1.000 1.000
v -594.1976894140244 351.83887100219727 -11.0 1.000 1.000 1.000
v -584.1976894140244 401.83887100219727 -46.0 1.000 1.000 1.000
v -584.1976894140244 453.83887100219727 4.0 1.000 1.000 1.000
v -645.0662807226181 368.1454210281372 38.0 1.000 1.000 1.000
v -654.0662807226181 375.1454210281372 -23.0 1.000 1.000 1.000
v -641.0662807226181 434.1454210281372 42.0 1.000 1.000 1.000
v -651.0662807226181 422.1454210281372 -27.0 1.000 1.000 1.000
v -405.19768941402435 449.83887100219727 5.0 1.000 1.000 1.000
v -406.19768941402435 401.83887100219727 -62.0 1.000 1.000 1.000
v -409.19768941402435 338.83887100219727 -11.0 1.000 1.000 1.000
v -414.19768941402435 338.83887100219727 70.0 1.000 1.000 1.000
v -405.19768941402435 446.83887100219727 59.0 1.000 1.000 1.000
v -584.1976894140244 453.83887100219727 4.0 1.000 1.000 1.000
v -584.1976894140244 401.83887100219727 -46.0 1.000 1.000 1.000
v -594.1976894140244 351.83887100219727 -11.0 1.000 1.000 1.000
v -594.1976894140244 354.83887100219727 57.0 1.000 1.000 1.000
v -584.1976894140244 412.83887100219727 61.0 1.000 1.000 1.000
v -391.19768941402435 313.83887100219727 85.0 1.000 1.000 1.000
v -397.19768941402435 414.83887100219727 89.0 1.000 1.000 1.000
v -667.1976894140244 368.83887100219727 42.0 1.000 1.000 1.000
v -667.1976894140244 375.83887100219727 -25.0 1.000 1.000 1.000
v -391.19768941402435 311.83887100219727 -28.0 1.000 1.000 1.000
v -670.1976894140244 431.83887100219727 42.0 1.000 1.000 1.000
v -397.19768941402435 427.83887100219727 -49.0 1.000 1.000 1.000
v -670.1976894140244 415.83887100219727 -27.0 1.000 1.000 1.000
v -391.19768941402435 311.83887100219727 -28.0 1.000 1.000 1.000
v -331.2357143163681 344.22493743896484 72.0 1.000 1.000 1.000
v -267.2357143163681 340.22493743896484 -14.0 1.000 1.000 1.000
v -258.2357143163681 344.22493743896484 68.0 1.000 1.000 1.000
v -169.2357143163681 397.22493743896484 91.0 1.000 1.000 1.000
v -308.2357143163681 442.22493743896484 82.0 1.000 1.000 1.000
v -270.2357143163681 409.22493743896484 -73.0 1.000 1.000 1.000
v -122.2357143163681 439.22493743896484 13.0 1.000 1.000 1.000
v -155.2357143163681 391.22493743896484 -65.0 1.000 1.000 1.000
v -326.2357143163681 334.22493743896484 -13.0 1.000 1.000 1.000
v -268.2357143163681 459.22493743896484 18.0 1.000 1.000 1.000
v -459.86859130859375 219.30655002593994 68.0 1.000 1.000 1.000
v -456.86859130859375 209.30655002593994 -15.0 1.000 1.000 1.000
v -457.86859130859375 366.30655002593994 -49.0 1.000 1.000 1.000
v -457.86859130859375 396.30655002593994 26.0 1.000 1.000 1.000
v -457.86859130859375 347.30655002593994 75.0 1.000 1.000 1.000
v -267.2357143163681 340.22493743896484 -14.0 1.000 1.000 1.000
v -258.2357143163681 344.22493743896484 68.0 1.000 1.000 1.000
v -155.2357143163681 391.22493743896484 -65.0 1.000 1.000 1.000
v -122.2357143163681 439.22493743896484 13.0 1.000 1.000 1.000
v -169.2357143163681 397.22493743896484 91.0 1.000 1.000 1.000
v -268.2357143163681 459.22493743896484 18.0 1.000 1.000 1.000
v -270.2357143163681 409.22493743896484 -73.0 1.000 1.000 1.000
v -326.2357143163681 334.22493743896484 -13.0 1.000 1.000 1.000
v -331.2357143163681 344.22493743896484 72.0 1.000 1.000 1.000
v -308.2357143163681 442.22493743896484 82.0 1.000 1.000 1.000
v -405.19768941402435 449.83887100219727 5.0 1.000 1.000 1.000
v -406.19768941402435 401.83887100219727 -62.0 1.000 1.000 1.000
v -409.19768941402435 338.83887100219727 -11.0 1.000 1.000 1.000
v -414.19768941402435 338.83887100219727 70.0 1.000 1.000 1.000
v -405.19768941402435 446.83887100219727 59.0 1.000 1.000 1.000
v -145.2357143163681 417.22493743896484 68.0 1.000 1.000 1.000
v -89.2357143163681 306.22493743896484 81.0 1.000 1.000 1.000
v -57.2357143163681 302.22493743896484 -45.0 1.000 1.000 1.000
v -141.2357143163681 431.22493743896484 -33.0 1.000 1.000 1.000
v -391.2357143163681 314.22493743896484 85.0 1.000 1.000 1.000
v -397.2357143163681 415.22493743896484 89.0 1.000 1.000 1.000
v -397.2357143163681 428.22493743896484 -49.0 1.000 1.000 1.000
v -391.2357143163681 311.22493743896484 -28.0 1.000 1.000 1.000
v -391.2357143163681 311.22493743896484 -28.0 1.000 1.000 1.000
v 370.1021728515625 -25.755651995539665 -42.76123380661011 1.000 1.000 1.000
v 339.1021728515625 39.244348004460335 -27.761233806610107 1.000 1.000 1.000
v 381.1021728515625 -29.755651995539665 56.23876619338989 1.000 1.000 1.000
v 349.1021728515625 64.24434800446033 51.23876619338989 1.000 1.000 1.000
v 246.1021728515625 20.244348004460335 -28.761233806610107 1.000 1.000 1.000
v 235.1021728515625 33.244348004460335 39.23876619338989 1.000 1.000 1.000
v 339.1021728515625 39.244348004460335 -27.761233806610107 1.000 1.000 1.000
v 349.1021728515625 64.24434800446033 51.23876619338989 1.000 1.000 1.000
v 339.1021728515625 39.244348004460335 -27.761233806610107 1.000 1.000 1.000
v 370.1021728515625 -25.755651995539665 -42.76123380661011 1.000 1.000 1.000
v 246.1021728515625 20.244348004460335 -28.761233806610107 1.000 1.000 1.000
v 249.1021728515625 -26.755651995539665 -23.761233806610107 1.000 1.000 1.000
v 381.1021728515625 -29.755651995539665 56.23876619338989 1.000 1.000 1.000
v 238.1021728515625 -32.755651995539665 37.23876619338989 1.000 1.000 1.000
v 370.1021728515625 -25.755651995539665 -42.76123380661011 1.000 1.000 1.000
v 249.1021728515625 -26.755651995539665 -23.761233806610107 1.000 1.000 1.000
v 238.1021728515625 -32.755651995539665 37.23876619338989 1.000 1.000 1.000
v 381.1021728515625 -29.755651995539665 56.23876619338989 1.000 1.000 1.000
v 235.1021728515625 33.244348004460335 39.23876619338989 1.000 1.000 1.000
v 349.1021728515625 64.24434800446033 51.23876619338989 1.000 1.000 1.000
v 590.6571079492569 395.8121757507324 67.07913017272949 1.000 1.000 1.000
v 600.6571079492569 337.8121757507324 63.07913017272949 1.000 1.000 1.000
v 601.6571079492569 333.8121757507324 -3.920869827270508 1.000 1.000 1.000
v 592.6571079492569 383.8121757507324 -40.92086982727051 1.000 1.000 1.000
v 591.6571079492569 435.8121757507324 9.079130172729492 1.000 1.000 1.000
v 238.1021728515625 -32.755651995539665 37.23876619338989 1.000 1.000 1.000
v 249.1021728515625 -26.755651995539665 -23.761233806610107 1.000 1.000 1.000
v 235.1021728515625 33.244348004460335 39.23876619338989 1.000 1.000 1.000
v 246.1021728515625 20.244348004460335 -28.761233806610107 1.000 1.000 1.000
v 411.6571079492569 432.8121757507324 6.079130172729492 1.000 1.000 1.000
v 414.6571079492569 382.8121757507324 -58.92086982727051 1.000 1.000 1.000
v 416.6571079492569 319.8121757507324 -6.920869827270508 1.000 1.000 1.000
v 420.6571079492569 321.8121757507324 73.07913017272949 1.000 1.000 1.000
v 410.6571079492569 429.8121757507324 61.07913017272949 1.000 1.000 1.000
v 592.6571079492569 383.8121757507324 -40.92086982727051 1.000 1.000 1.000
v 591.6571079492569 435.8121757507324 9.079130172729492 1.000 1.000 1.000
v 601.6571079492569 333.8121757507324 -3.920869827270508 1.000 1.000 1.000
v 600.6571079492569 337.8121757507324 63.07913017272949 1.000 1.000 1.000
v 590.6571079492569 395.8121757507324 67.07913017272949 1.000 1.000 1.000
v 674.6571079492569 358.8121757507324 49.07913017272949 1.000 1.000 1.000
v 402.6571079492569 398.8121757507324 91.07913017272949 1.000 1.000 1.000
v 396.6571079492569 297.8121757507324 89.07913017272949 1.000 1.000 1.000
v 398.6571079492569 292.8121757507324 -24.920869827270508 1.000 1.000 1.000
v 675.6571079492569 363.8121757507324 -17.920869827270508 1.000 1.000 1.000
v 404.6571079492569 408.8121757507324 -46.92086982727051 1.000 1.000 1.000
v 677.6571079492569 421.8121757507324 48.07913017272949 1.000 1.000 1.000
v 678.6571079492569 403.8121757507324 -20.920869827270508 1.000 1.000 1.000
v 396.6571079492569 297.8121757507324 89.07913017272949 1.000 1.000 1.000
v 398.6571079492569 292.8121757507324 -24.920869827270508 1.000 1.000 1.000
v 263.85553324222565 326.87169647216797 69.0 1.000 1.000 1.000
v 274.85553324222565 321.87169647216797 -12.0 1.000 1.000 1.000
v 336.85553324222565 327.87169647216797 74.0 1.000 1.000 1.000
v 313.85553324222565 425.87169647216797 82.0 1.000 1.000 1.000
v 174.85553324222565 380.87169647216797 89.0 1.000 1.000 1.000
v 163.85553324222565 371.87169647216797 -66.0 1.000 1.000 1.000
v 129.85553324222565 421.87169647216797 10.0 1.000 1.000 1.000
v 278.85553324222565 389.87169647216797 -73.0 1.000 1.000 1.000
v 333.85553324222565 315.87169647216797 -10.0 1.000 1.000 1.000
v 274.85553324222565 441.87169647216797 17.0 1.000 1.000 1.000
v -47.86859130859375 219.30655002593994 68.0 1.000 1.000 1.000
v -50.86859130859375 209.30655002593994 -15.0 1.000 1.000 1.000
v -49.86859130859375 366.30655002593994 -49.0 1.000 1.000 1.000
v -49.86859130859375 396.30655002593994 26.0 1.000 1.000 1.000
v -50.86859130859375 347.30655002593994 75.0 1.000 1.000 1.000
v 263.85553324222565 326.87169647216797 69.0 1.000 1.000 1.000
v 274.85553324222565 321.87169647216797 -12.0 1.000 1.000 1.000
v 163.85553324222565 371.87169647216797 -66.0 1.000 1.000 1.000
v 129.85553324222565 421.87169647216797 10.0 1.000 1.000 1.000
v 174.85553324222565 380.87169647216797 89.0 1.000 1.000 1.000
v 274.85553324222565 441.87169647216797 17.0 1.000 1.000 1.000
v 278.85553324222565 389.87169647216797 -73.0 1.000 1.000 1.000
v 333.85553324222565 315.87169647216797 -10.0 1.000 1.000 1.000
v 336.85553324222565 327.87169647216797 74.0 1.000 1.000 1.000
v 313.85553324222565 425.87169647216797 82.0 1.000 1.000 1.000
v 414.6571079492569 382.8121757507324 -58.92086982727051 1.000 1.000 1.000
v 411.6571079492569 432.8121757507324 6.079130172729492 1.000 1.000 1.000
v 416.6571079492569 319.8121757507324 -6.920869827270508 1.000 1.000 1.000
v 420.6571079492569 321.8121757507324 73.07913017272949 1.000 1.000 1.000
v 410.6571079492569 429.8121757507324 61.07913017272949 1.000 1.000 1.000
v 94.85553324222565 289.87169647216797 80.0 1.000 1.000 1.000
v 64.85553324222565 283.87169647216797 -47.0 1.000 1.000 1.000
v 396.85553324222565 297.87169647216797 89.0 1.000 1.000 1.000
v 402.85553324222565 398.87169647216797 91.0 1.000 1.000 1.000
v 151.85553324222565 400.87169647216797 66.0 1.000 1.000 1.000
v 148.85553324222565 412.87169647216797 -35.0 1.000 1.000 1.000
v 404.85553324222565 408.87169647216797 -47.0 1.000 1.000 1.000
v 398.85553324222565 292.87169647216797 -25.0 1.000 1.000 1.000
v 398.85553324222565 292.87169647216797 -25.0 1.000 1.000 1.000
v 396.85553324222565 297.87169647216797 89.0 1.000 1.000 1.000
v -49.86859130859375 396.30655002593994 26.0 1.000 1.000 1.000
v -160.86859130859375 437.30655002593994 0.0 1.000 1.000 1.000
v -254.86859130859375 385.30655002593994 77.0 1.000 1.000 1.000
v -457.86859130859375 347.30655002593994 75.0 1.000 1.000 1.000
v -251.86859130859375 271.30655002593994 155.0 1.000 1.000 1.000
v -50.86859130859375 347.30655002593994 75.0 1.000 1.000 1.000
v -91.86859130859375 258.30655002593994 127.0 1.000 1.000 1.000
v -399.86859130859375 258.30655002593994 127.0 1.000 1.000 1.000
v -428.86859130859375 80.30655002593994 4.0 1.000 1.000 1.000
v -370.86859130859375 90.30655002593994 161.0 1.000 1.000 1.000
v -335.86859130859375 437.30655002593994 0.0 1.000 1.000 1.000
v -457.86859130859375 396.30655002593994 26.0 1.000 1.000 1.000
v -124.86859130859375 90.30655002593994 161.0 1.000 1.000 1.000
v -457.86859130859375 366.30655002593994 -49.0 1.000 1.000 1.000
v -343.86859130859375 387.30655002593994 -64.0 1.000 1.000 1.000
v -299.86859130859375 442.30655002593994 -62.0 1.000 1.000 1.000
v -160.86859130859375 437.30655002593994 0.0 1.000 1.000 1.000
v -148.86859130859375 387.30655002593994 -64.0 1.000 1.000 1.000
v -201.86859130859375 441.30655002593994 -66.0 1.000 1.000 1.000
v -457.86859130859375 366.30655002593994 -49.0 1.000 1.000 1.000
v -335.86859130859375 437.30655002593994 0.0 1.000 1.000 1.000
v -343.86859130859375 387.30655002593994 -64.0 1.000 1.000 1.000
v -49.86859130859375 396.30655002593994 26.0 1.000 1.000 1.000
v -49.86859130859375 366.30655002593994 -49.0 1.000 1.000 1.000
v -456.86859130859375 209.30655002593994 -15.0 1.000 1.000 1.000
v -428.86859130859375 80.30655002593994 4.0 1.000 1.000 1.000
v -459.86859130859375 219.30655002593994 68.0 1.000 1.000 1.000
v -47.86859130859375 219.30655002593994 68.0 1.000 1.000 1.000
v -50.86859130859375 347.30655002593994 75.0 1.000 1.000 1.000
v -91.86859130859375 258.30655002593994 127.0 1.000 1.000 1.000
v -457.86859130859375 396.30655002593994 26.0 1.000 1.000 1.000
v -457.86859130859375 347.30655002593994 75.0 1.000 1.000 1.000
v -254.86859130859375 385.30655002593994 77.0 1.000 1.000 1.000
v -160.86859130859375 437.30655002593994 0.0 1.000 1.000 1.000
v -49.86859130859375 366.30655002593994 -49.0 1.000 1.000 1.000
v -148.86859130859375 387.30655002593994 -64.0 1.000 1.000 1.000
v -91.86859130859375 258.30655002593994 127.0 1.000 1.000 1.000
v -251.86859130859375 271.30655002593994 155.0 1.000 1.000 1.000
v -124.86859130859375 90.30655002593994 161.0 1.000 1.000 1.000
v -47.86859130859375 219.30655002593994 68.0 1.000 1.000 1.000
v -73.86859130859375 79.30655002593994 5.0 1.000 1.000 1.000
v -399.86859130859375 258.30655002593994 127.0 1.000 1.000 1.000
v -370.86859130859375 90.30655002593994 161.0 1.000 1.000 1.000
v -459.86859130859375 219.30655002593994 68.0 1.000 1.000 1.000
v -428.86859130859375 80.30655002593994 4.0 1.000 1.000 1.000
v -50.86859130859375 209.30655002593994 -15.0 1.000 1.000 1.000
v -250.86859130859375 182.30655002593994 -99.0 1.000 1.000 1.000
v -138.86859130859375 73.30655002593994 -91.0 1.000 1.000 1.000
v -369.86859130859375 72.30655002593994 -89.0 1.000 1.000 1.000
v -320.86859130859375 318.30655002593994 -121.0 1.000 1.000 1.000
v -354.86859130859375 195.30655002593994 -89.0 1.000 1.000 1.000
v -160.86859130859375 194.30655002593994 -94.0 1.000 1.000 1.000
v -50.86859130859375 209.30655002593994 -15.0 1.000 1.000 1.000
v -49.86859130859375 366.30655002593994 -49.0 1.000 1.000 1.000
v -169.86859130859375 319.30655002593994 -121.0 1.000 1.000 1.000
v -299.86859130859375 442.30655002593994 -62.0 1.000 1.000 1.000
v -201.86859130859375 441.30655002593994 -66.0 1.000 1.000 1.000
v -343.86859130859375 387.30655002593994 -64.0 1.000 1.000 1.000
v -148.86859130859375 387.30655002593994 -64.0 1.000 1.000 1.000
v -457.86859130859375 366.30655002593994 -49.0 1.000 1.000 1.000
v -428.86859130859375 80.30655002593994 4.0 1.000 1.000 1.000
v -456.86859130859375 209.30655002593994 -15.0 1.000 1.000 1.000
v -138.86859130859375 73.30655002593994 -91.0 1.000 1.000 1.000
v -50.86859130859375 209.30655002593994 -15.0 1.000 1.000 1.000
v -73.86859130859375 79.30655002593994 5.0 1.000 1.000 1.000
v -49.86859130859375 366.30655002593994 -49.0 1.000 1.000 1.000
v -169.86859130859375 319.30655002593994 -121.0 1.000 1.000 1.000
v -148.86859130859375 387.30655002593994 -64.0 1.000 1.000 1.000
v -160.86859130859375 194.30655002593994 -94.0 1.000 1.000 1.000
v -250.86859130859375 182.30655002593994 -99.0 1.000 1.000 1.000
v -354.86859130859375 195.30655002593994 -89.0 1.000 1.000 1.000
v -456.86859130859375 209.30655002593994 -15.0 1.000 1.000 1.000
v -457.86859130859375 366.30655002593994 -49.0 1.000 1.000 1.000
v -369.86859130859375 72.30655002593994 -89.0 1.000 1.000 1.000
v -320.86859130859375 318.30655002593994 -121.0 1.000 1.000 1.000
v 92.0 15.0 172.0 1.000 1.000 1.000
v -85.0 12.0 168.0 1.000 1.000 1.000
v -192.0 19.0 12.0 1.000 1.000 1.000
v 194.0 22.0 14.0 1.000 1.000 1.000
v -192.0 19.0 12.0 1.000 1.000 1.000
v -106.0 26.0 -106.0 1.000 1.000 1.000
v 116.0 26.0 -106.0 1.000 1.000 1.000
v 194.0 22.0 14.0 1.000 1.000 1.000
v -124.86859130859375 90.30655002593994 161.0 1.000 1.000 1.000
v -370.86859130859375 90.30655002593994 161.0 1.000 1.000 1.000
v -73.86859130859375 79.30655002593994 5.0 1.000 1.000 1.000
v -428.86859130859375 80.30655002593994 4.0 1.000 1.000 1.000
v -428.86859130859375 80.30655002593994 4.0 1.000 1.000 1.000
v -369.86859130859375 72.30655002593994 -89.0 1.000 1.000 1.000
v -138.86859130859375 73.30655002593994 -91.0 1.000 1.000 1.000
v -73.86859130859375 79.30655002593994 5.0 1.000 1.000 1.000
v -63.86859130859375 387.30655002593994 148.0 1.000 1.000 1.000
v -461.86859130859375 424.30655002593994 -72.0 1.000 1.000 1.000
v -441.86859130859375 384.30655002593994 147.0 1.000 1.000 1.000
v -63.86859130859375 387.30655002593994 148.0 1.000 1.000 1.000
v -397.86859130859375 37.30655002593994 141.0 1.000 1.000 1.000
v -105.86859130859375 38.30655002593994 141.0 1.000 1.000 1.000
v -42.86859130859375 427.30655002593994 -70.0 1.000 1.000 1.000
v -441.86859130859375 384.30655002593994 147.0 1.000 1.000 1.000
v -42.86859130859375 427.30655002593994 -70.0 1.000 1.000 1.000
v -102.86859130859375 33.30655002593994 -37.0 1.000 1.000 1.000
v -409.86859130859375 32.30655002593994 -35.0 1.000 1.000 1.000
v -461.86859130859375 424.30655002593994 -72.0 1.000 1.000 1.000
v -409.86859130859375 32.30655002593994 -35.0 1.000 1.000 1.000
v -397.86859130859375 37.30655002593994 141.0 1.000 1.000 1.000
v -461.86859130859375 424.30655002593994 -72.0 1.000 1.000 1.000
v -102.86859130859375 33.30655002593994 -37.0 1.000 1.000 1.000
v -42.86859130859375 427.30655002593994 -70.0 1.000 1.000 1.000
v -105.86859130859375 38.30655002593994 141.0 1.000 1.000 1.000
v -397.86859130859375 37.30655002593994 141.0 1.000 1.000 1.000
v -441.86859130859375 384.30655002593994 147.0 1.000 1.000 1.000
v -461.86859130859375 424.30655002593994 -72.0 1.000 1.000 1.000
v -63.86859130859375 387.30655002593994 148.0 1.000 1.000 1.000
v -409.86859130859375 32.30655002593994 -35.0 1.000 1.000 1.000
v -102.86859130859375 33.30655002593994 -37.0 1.000 1.000 1.000
v -397.86859130859375 37.30655002593994 141.0 1.000 1.000 1.000
v -105.86859130859375 38.30655002593994 141.0 1.000 1.000 1.000
v 92.0 15.0 172.0 1.000 1.000 1.000
v -85.0 12.0 168.0 1.000 1.000 1.000
v -2.0 -177.0 166.0 1.000 1.000 1.000
v -63.0 -128.0 156.0 1.000 1.000 1.000
v -178.0 -36.0 20.0 1.000 1.000 1.000
v -192.0 19.0 12.0 1.000 1.000 1.000
v 177.0 -37.0 25.0 1.000 1.000 1.000
v 67.0 -125.0 159.0 1.000 1.000 1.000
v 194.0 22.0 14.0 1.000 1.000 1.000
v -178.0 -36.0 20.0 1.000 1.000 1.000
v -192.0 19.0 12.0 1.000 1.000 1.000
v -91.0 -71.0 -122.0 1.000 1.000 1.000
v -106.0 26.0 -106.0 1.000 1.000 1.000
v -1.0 -147.0 -121.0 1.000 1.000 1.000
v 116.0 26.0 -106.0 1.000 1.000 1.000
v 92.0 -69.0 -126.0 1.000 1.000 1.000
v 92.0 -69.0 -126.0 1.000 1.000 1.000
v 116.0 26.0 -106.0 1.000 1.000 1.000
v 177.0 -37.0 25.0 1.000 1.000 1.000
v 194.0 22.0 14.0 1.000 1.000 1.000
v -144.0 77.0 141.0 1.000 1.000 1.000
v -155.0 -237.0 132.0 1.000 1.000 1.000
v 156.0 -236.0 143.0 1.000 1.000 1.000
v 148.0 78.0 141.0 1.000 1.000 1.000
v -155.0 72.0 -35.0 1.000 1.000 1.000
v 148.0 78.0 141.0 1.000 1.000 1.000
v 151.0 73.0 -37.0 1.000 1.000 1.000
v -191.0 -237.0 -80.0 1.000 1.000 1.000
v -155.0 72.0 -35.0 1.000 1.000 1.000
v 151.0 73.0 -37.0 1.000 1.000 1.000
v 188.0 -236.0 -80.0 1.000 1.000 1.000
v -155.0 -237.0 132.0 1.000 1.000 1.000
v -155.0 72.0 -35.0 1.000 1.000 1.000
v -191.0 -237.0 -80.0 1.000 1.000 1.000
v -144.0 77.0 141.0 1.000 1.000 1.000
v 188.0 -236.0 -80.0 1.000 1.000 1.000
v 151.0 73.0 -37.0 1.000 1.000 1.000
v 156.0 -236.0 143.0 1.000 1.000 1.000
v 148.0 78.0 141.0 1.000 1.000 1.000
v -155.0 72.0 -35.0 1.000 1.000 1.000
v -144.0 77.0 141.0 1.000 1.000 1.000
v 148.0 78.0 141.0 1.000 1.000 1.000
v 188.0 -236.0 -80.0 1.000 1.000 1.000
v 156.0 -236.0 143.0 1.000 1.000 1.000
v -155.0 -237.0 132.0 1.000 1.000 1.000
v -191.0 -237.0 -80.0 1.000 1.000 1.000
vt 0.0352 0.9492
vt 0.0566 0.9492
vt 0.9609 0.9521
vt 0.9932 0.9521
vt 0.9385 0.6133
vt 0.3438 0.1016
vt 0.1221 0.1094
vt 1.0283 0.6279
vt 0.1387 0.1113
vt 0.4248 0.1152
vt 0.7598 0.5938
vt 0.8105 0.5195
vt 0.7383 0.5938
vt 0.8105 0.5417
vt 0.2803 0.6087
vt 0.1738 0.5560
vt 0.1758 0.5560
vt 0.2959 0.6081
vt 0.2832 0.5339
vt 0.0830 0.1120
vt 0.2871 0.9857
vt 0.8281 0.9954
vt 0.9355 0.1081
vt 0.0830 0.1123
vt 0.1123 0.1123
vt 0.3975 0.9912
vt 0.2871 0.9854
vt 0.9766 0.1113
vt 0.9355 0.1084
vt 0.9092 0.9941
vt 0.8281 0.9951
vt 0.5127 0.3600
vt 0.1074 0.3633
vt 0.5205 0.3444
vt 0.8350 0.3314
vt 0.7295 0.9733
vt 0.6016 0.4212
vt 0.5068 0.9740
vt 0.1533 0.4128
vt 0.4922 0.4147
vt 0.5625 0.9414
vt 0.8877 0.4134
vt 0.7705 0.9401
vt 0.2773 0.0794
vt 0.3027 0.2031
vt 0.3848 0.2656
vt 0.4111 0.3014
vt 0.4951 0.0462
vt 0.4814 0.2982
vt 0.2568 0.0690
vt 0.4434 -0.1172
vt 0.5068 -0.1992
vt 0.3457 -0.0651
vt 0.5752 0.2331
vt 0.8682 0.0521
vt 0.6572 0.0573
vt 0.5273 0.0605
vt 0.8389 0.2311
vt 0.5352 0.2350
vt 0.1152 0.1960
vt 0.1191 0.0703
vt 0.3672 0.7148
vt 0.2432 0.8919
vt 0.4932 0.8952
vt 0.1260 0.6100
vt 0.1113 0.8919
vt 0.4971 0.7363
vt 0.4951 0.7695
vt 0.4971 0.8926
vt 0.3213 0.6465
vt 0.1152 0.9082
vt 0.1592 0.6094
vt 0.1953 0.9056
vt 0.3623 0.9010
vt 0.4824 0.7324
vt 0.4658 0.8984
vt 0.8320 0.0664
vt 0.6465 0.0671
vt 0.5146 0.0684
vt 0.1299 0.0703
vt 0.9521 0.9531
vt 0.0557 0.9609
vt 0.0342 0.9619
vt 0.9824 0.9531
vt 0.2598 0.0488
vt 0.8975 0.5908
vt 0.9863 0.6045
vt 0.0400 0.0596
vt 0.0566 0.0615
vt 0.3398 0.0625
vt 0.2422 0.5859
vt 0.1621 0.5150
vt 0.2197 0.5872
vt 0.1641 0.5371
vt 0.7031 0.5840
vt 0.8057 0.5267
vt 0.6875 0.5840
vt 0.8027 0.5267
vt 0.7363 0.5085
vt 0.8574 0.9668
vt 0.2939 0.9577
vt 0.0469 0.0957
vt 0.9336 0.0911
vt 0.4092 0.9629
vt 0.0771 0.0957
vt 0.2939 0.9580
vt 0.9414 0.9648
vt 0.9336 0.0908
vt 0.9766 0.0938
vt 0.4473 0.3431
vt 0.4375 0.3275
vt 0.8535 0.3307
vt 0.1201 0.3275
vt 0.5410 0.9661
vt 0.6250 0.4062
vt 0.7217 0.9668
vt 0.5869 0.9349
vt 0.5371 0.3991
vt 0.2617 0.3952
vt 0.8574 0.4004
vt 0.7549 0.9336
vt 0.6719 -0.0807
vt 0.7070 0.0566
vt 0.7383 0.0553
vt 0.5664 -0.1237
vt 0.4961 0.0449
vt 0.5840 0.2546
vt 0.5801 0.2819
vt 0.6924 0.1816
vt 0.2734 0.0449
vt 0.0586 0.0482
vt 0.3721 0.2181
vt 0.1064 0.2266
vt 0.4043 0.0436
vt 0.7979 0.0397
vt 0.8301 0.1634
vt 0.4121 0.2188
vt 0.8711 0.6133
vt 0.6387 0.7116
vt 0.7725 0.8932
vt 0.8936 0.8952
vt 0.6680 0.6348
vt 0.7656 0.8893
vt 0.6084 0.8945
vt 0.8340 0.5924
vt 0.8242 0.8900
vt 0.6660 0.0475
vt 0.8164 0.0482
vt 0.5586 0.0475
vt 0.2461 0.0462
vt 0.4814 0.9746
vt 0.4629 0.8193
vt 0.2588 0.7471
vt 0.7725 0.7861
vt 0.9014 0.8369
vt 0.7188 0.8271
vt 0.8398 0.7441
vt 0.7090 0.7500
vt 0.1221 0.8379
vt 0.1562 0.7461
vt 0.2266 0.7822
vt 0.2822 0.8252
vt 0.7090 0.4365
vt 0.4941 0.4014
vt 0.4902 0.3545
vt 0.2598 0.4287
vt 0.2490 0.4248
vt 0.7793 0.4326
vt 0.7334 0.8633
vt 0.7969 0.6602
vt 0.8506 0.8633
vt 0.0205 0.3301
vt 0.1436 0.4863
vt 0.0762 0.8486
vt 0.4746 0.7051
vt 0.1494 0.9043
vt 0.7686 0.9092
vt 0.4893 0.3711
vt 0.8799 0.6758
vt 0.8721 0.2266
vt 0.0654 0.6631
vt 0.1670 0.6543
vt 0.2236 0.8584
vt 0.1152 0.3076
vt 0.4980 0.1611
vt 0.1680 0.1162
vt 0.5039 0.0293
vt 0.8301 0.1777
vt 0.8320 0.1279
vt 0.9600 0.3467
vt 0.4980 0.1592
vt 0.5029 0.0488
vt 0.8467 0.4990
vt 0.1494 0.1660
vt 0.9365 0.1699
vt 0.1973 0.2041
vt 0.3594 0.0410
vt 0.1914 0.2041
vt 0.9072 0.1670
vt 0.2939 0.0195
vt 0.9336 0.0020
vt 1.0137 0.1680
vt 0.9912 0.0146
vt 0.2920 0.8926
vt 0.1084 0.2637
vt 0.1250 0.2578
vt 0.2246 0.8311
vt 0.3018 0.9297
vt 0.3301 1.0723
vt 0.8633 0.5781
vt 0.8438 0.7119
vt 0.3271 1.0332
vt 0.1719 0.8213
vt 0.8418 0.5986
vt 0.8281 0.7461
vt 1.0635 0.7334
vt 1.0479 0.5928
vt 0.7314 0.7705
vt 0.4893 0.8779
vt 0.8184 0.4990
vt 0.2461 0.7588
vt 0.6211 0.3906
vt 0.8145 0.2627
vt 0.5391 0.1055
vt 0.1504 0.2549
vt 0.0928 0.1367
vt 0.1631 0.4893
vt 0.9004 0.1514
vt 0.3389 0.3867
vt 0.4141 0.1074
vt 0.4600 0.6533
vt 0.7139 0.8486
vt 0.2236 0.8545
vt 0.2637 1.1318
vt 0.6758 1.1221
vt 0.8906 0.0635
vt 0.0146 0.1016
vt 0.1240 0.1064
vt 0.8594 0.0928
vt 0.2568 0.2373
vt 0.8320 0.2461
vt 0.9658 1.3086
vt -0.2607 1.3096
vt 0.9883 0.0303
vt 0.1191 0.7432
vt 0.0215 0.1328
vt 0.9004 0.8906
vt 0.7070 0.2139
vt 0.2432 0.9551
vt 0.7969 0.6494
vt 0.0459 0.4492
vt 0.3291 0.9453
vt 0.7441 0.0928
vt 0.2480 0.3506
vt 0.6523 0.8965
vt 0.9404 0.2920
vt 0.2461 1.0029
vt -0.0020 0.2383
vt 0.8213 0.9453
vt 0.1621 0.1152
vt 1.0371 0.8447
vt 0.8486 -0.0156
vt 0.0205 0.8701
vt 0.8672 0.3613
vt 0.8828 0.2949
vt 0.7998 0.7070
vt 0.5137 0.7676
vt 0.5469 0.3574
vt 0.3721 0.2891
vt 0.8164 0.6826
vt 0.6133 0.2910
vt 0.4922 0.7480
vt 0.2988 0.9271
vt 0.3018 0.6107
vt 0.5576 0.9134
vt 0.5439 0.6003
vt 0.8105 0.9173
vt 0.8662 0.5892
vt 0.7969 0.9186
vt 0.8662 0.5983
vt 0.5029 0.9167
vt 0.3184 0.6094
vt 0.8154 0.5352
vt 0.2119 0.5508
vt 0.6523 0.9668
vt 0.6123 0.9674
vt 0.8320 0.5345
vt 0.2734 0.9753
vt 0.1367 0.5514
vt 0.3711 0.9740
vt 0.8311 0.4525
vt 0.8486 0.3398
vt 0.8281 0.3242
vt 0.5498 0.1823
vt 0.3350 0.4382
vt 0.4990 0.3633
vt 0.3359 0.1113
vt 0.5820 0.1562
vt 0.8799 0.4421
vt 0.2461 0.3724
vt 0.8477 0.3216
vt 0.8633 0.3385
vt 0.8467 0.0638
vt 0.8428 0.0111
vt 0.8506 0.0970
vt 0.1934 0.1595
vt 0.8535 0.0638
vt 0.8770 0.0143
vt 0.1104 0.1536
vt 0.4844 0.9023
vt 0.2178 0.6016
vt 0.2207 0.9141
vt 0.4658 0.5924
vt 0.7441 0.9076
vt 0.7959 0.5833
vt 0.7305 0.9082
vt 0.7959 0.5924
vt 0.2344 0.6009
vt 0.4287 0.9043
vt 0.4883 0.9967
vt 0.8438 0.5156
vt 0.3350 0.5078
vt 0.3213 0.5072
vt 0.5215 0.9961
vt 0.9072 0.5156
vt 0.8066 1.0000
vt 0.7246 1.0000
vt 0.7520 0.3216
vt 0.7734 0.3366
vt 0.7578 0.4486
vt 0.2480 0.4316
vt 0.4639 0.1797
vt 0.4971 0.1543
vt 0.2432 0.1094
vt 0.4150 0.3587
vt 0.8066 0.4382
vt 0.1562 0.3665
vt 0.7725 0.3190
vt 0.7881 0.3353
vt 0.7666 0.0645
vt 0.7617 0.0124
vt 0.7715 0.0970
vt 0.2861 -0.0280
vt 0.2656 -0.0840
vt 0.8457 0.0697
vt 0.9150 0.0618
vt 0.9307 0.0794
vt 0.6982 0.0326
vt 0.5000 0.0905
vt 0.0752 0.1322
vt 0.5049 0.2188
vt 0.9287 0.1348
vt 0.8408 0.2344
vt 0.1963 0.2324
vt 0.1338 0.4329
vt 0.2549 0.4232
vt 0.3311 0.0312
vt 0.0732 0.0775
vt 0.7725 0.4238
vt 0.0742 0.1113
vt 0.3125 0.0872
vt 0.4062 0.0260
vt 0.7227 0.0885
vt 0.6123 0.0280
vt 0.9297 0.1133
vt 0.0752 0.2871
vt 0.0693 0.2760
vt 0.9326 0.2786
vt 0.8789 0.4362
vt 0.9268 0.2897
vt 0.5361 0.2910
vt 0.7354 0.4154
vt 0.2969 0.4284
vt 0.4209 0.1322
vt 0.3398 0.2812
vt 0.7090 0.2728
vt 0.9189 0.2480
vt 0.9404 0.0618
vt 0.7080 0.1237
vt 0.4756 -0.0163
vt 0.6621 -0.0202
vt 0.3848 0.0514
vt 0.7559 0.0410
vt 0.1650 0.0827
vt 0.1855 0.4219
vt 0.1484 0.2689
vt 0.8594 0.4049
vt 0.6924 0.5540
vt 0.3213 0.5566
vt 0.0977 0.5475
vt 0.9072 0.5469
vt 0.1406 0.5443
vt 0.3037 0.5312
vt 0.7256 0.5202
vt 0.8740 0.5208
vt 0.9912 0.0885
vt -0.0088 0.0423
vt 0.0430 0.0977
vt 0.1484 0.5677
vt 0.8828 0.5651
vt 1.0439 0.0352
vt -0.0615 0.0547
vt 0.0840 0.5749
vt 0.8799 0.5807
vt 1.0254 0.0638
vt 0.3096 0.5632
vt 0.8682 0.5410
vt 0.1299 0.0423
vt 0.6895 0.5410
vt 0.8799 -0.0020
vt 0.1562 0.5352
vt 0.8320 0.0781
vt 0.2139 0.0534
vt 0.1201 0.5752
vt 0.8916 0.5713
vt 0.1484 0.5674
vt 0.8828 0.5645
vt 0.1182 0.9948
vt 0.9004 0.9915
vt 0.1201 0.5749
vt 0.8916 0.5710
vt 0.9658 0.9896
vt -0.0186 0.9831
vt 0.8789 0.9531
vt 0.2012 0.9681
vt 0.7695 0.9551
vt 0.0918 0.9596
vt 0.9814 0.9912
vt 0.9004 0.9922
vt 0.1182 0.9951
vt 0.0273 0.9961
vn 0.577 0.577 0.577
vn 0.577 0.577 0.577
vn 0.577 0.577 0.577
vn 0.577 0.577 0.577
vn 0.577 0.577 0.577
vn -0.577 -0.577 -0.577
vn -0.577 -0.577 -0.577
vn -0.577 -0.577 -0.577
vn 0.577 0.577 0.577
vn -0.577 -0.577 -0.577
vn 0.577 0.577 0.577
vn 0.577 0.577 0.577
vn 0.577 0.577 0.577
vn -0.577 -0.577 -0.577
vn 0.577 0.577 0.577
vn 0.577 0.577 0.577
vn 0.577 0.577 0.577
vn 0.577 0.577 0.577
vn 0.577 0.577 0.577
vn 0.577 0.577 0.577
vn 0.577 0.577 0.577
vn 0.577 0.577 0.577
vn 0.577 0.577 0.577
vn 0.577 0.577 0.577
vn 0.577 0.577 0.577
vn -0.577 -0.577 -0.577
vn -0.577 -0.577 -0.577
vn -0.577 -0.577 -0.577
vn -0.577 -0.577 -0.577
vn -0.577 -0.577 -0.577
vn -0.577 -0.577 -0.577
vn -0.577 -0.577 -0.577
vn 0.577 0.577 0.577
vn 0.577 0.577 0.577
vn -0.577 -0.577 -0.577
vn -0.577 -0.577 -0.577
vn 0.577 0.577 0.577
vn 0.577 0.577 0.577
vn 0.577 0.577 0.577
vn 0.577 0.577 0.577
vn 0.577 0.577 0.577
vn 0.577 0.577 0.577
vn 0.577 0.577 0.577
vn 0.577 0.577 0.577
vn 0.577 0.577 0.577
vn 0.577 0.577 0.577
vn 0.577 0.577 0.577
vn 0.577 0.577 0.577
vn 0.577 0.577 0.577
vn 0.577 0.577 0.577
vn 0.577 0.577 0.577
vn 0.577 0.577 0.577
vn 0.577 0.577 0.577
vn 0.577 0.577 0.577
vn 0.577 0.577 0.577
vn 0.577 0.577 0.577
vn 0.577 0.577 0.577
vn -0.577 -0.577 -0.577
vn 0.577 0.577 0.577
vn 0.577 0.577 0.577
vn 0.577 0.577 0.577
vn 0.577 0.577 0.577
vn 0.577 0.577 0.577
vn 0.577 0.577 0.577
vn 0.577 0.577 0.577
vn 0.577 0.577 0.577
vn 0.577 0.577 0.577
vn -0.577 -0.577 -0.577
vn 0.577 0.577 0.577
vn 0.577 0.577 0.577
vn -0.577 -0.577 -0.577
vn 0.577 0.577 0.577
vn 0.577 0.577 0.577
vn -0.577 -0.577 -0.577
vn 0.577 0.577 0.577
vn 0.577 0.577 0.577
vn 0.577 0.577 0.577
vn 0.577 0.577 0.577
vn 0.577 0.577 0.577
vn 0.577 0.577 0.577
vn 0.577 0.577 0.577
vn 0.577 0.577 0.577
vn 0.577 0.577 0.577
vn 0.577 0.577 0.577
vn 0.577 0.577 0.577
vn 0.577 0.577 0.577
vn 0.577 0.577 0.577
vn 0.577 0.577 0.577
vn -0.577 -0.577 -0.577
vn 0.577 0.577 0.577
vn 0.577 0.577 0.577
vn -0.577 -0.577 -0.577
vn -0.577 -0.577 -0.577
vn 0.577 0.577 0.577
vn 0.577 0.577 0.577
vn 0.577 0.577 0.577
vn 0.577 0.577 0.577
vn 0.577 0.577 0.577
vn 0.577 0.577 0.577
vn 0.577 0.577 0.577
vn 0.577 0.577 0.577
vn 0.577 0.577 0.577
vn 0.577 0.577 0.577
vn 0.577 0.577 0.577
vn 0.577 0.577 0.577
vn -0.577 -0.577 -0.577
vn -0.577 -0.577 -0.577
vn -0.577 -0.577 -0.577
vn -0.577 -0.577 -0.577
vn 0.577 0.577 0.577
vn -0.577 -0.577 -0.577
vn 0.577 0.577 0.577
vn 0.577 0.577 0.577
vn 0.577 0.577 0.577
vn -0.577 -0.577 -0.577
vn 0.577 0.577 0.577
vn 0.577 0.577 0.577
vn 0.577 0.577 0.577
vn 0.577 0.577 0.577
vn 0.577 0.577 0.577
vn -0.577 -0.577 -0.577
vn -0.577 -0.577 -0.577
vn 0.577 0.577 0.577
vn 0.577 0.577 0.577
vn -0.577 -0.577 -0.577
vn 0.577 0.577 0.577
vn 0.577 0.577 0.577
vn -0.577 -0.577 -0.577
vn -0.577 -0.577 -0.577
vn 0.577 0.577 0.577
vn -0.577 -0.577 -0.577
vn 0.577 0.577 0.577
vn 0.577 0.577 0.577
vn 0.577 0.577 0.577
vn -0.577 -0.577 -0.577
vn -0.577 -0.577 -0.577
vn 0.577 0.577 0.577
vn 0.577 0.577 0.577
vn -0.577 -0.577 -0.577
vn 0.577 0.577 0.577
vn -0.577 -0.577 -0.577
vn 0.577 0.577 0.577
vn 0.577 0.577 0.577
vn 0.577 0.577 0.577
vn 0.577 0.577 0.577
vn 0.577 0.577 0.577
vn 0.577 0.577 0.577
vn 0.577 0.577 0.577
vn 0.577 0.577 0.577
vn 0.577 0.577 0.577
vn 0.577 0.577 0.577
vn 0.577 0.577 0.577
vn 0.577 0.577 0.577
vn 0.577 0.577 0.577
vn 0.577 0.577 0.577
vn 0.577 0.577 0.577
vn 0.577 0.577 0.577
vn 0.577 0.577 0.577
vn 0.577 0.577 0.577
vn 0.577 0.577 0.577
vn 0.577 0.577 0.577
vn 0.577 0.577 0.577
vn 0.577 0.577 0.577
vn -0.577 -0.577 -0.577
vn 0.577 0.577 0.577
vn 0.577 0.577 0.577
vn 0.577 0.577 0.577
vn 0.577 0.577 0.577
vn 0.577 0.577 0.577
vn 0.577 0.577 0.577
vn 0.577 0.577 0.577
vn 0.577 0.577 0.577
vn -0.577 -0.577 -0.577
vn 0.577 0.577 0.577
vn 0.577 0.577 0.577
vn -0.577 -0.577 -0.577
vn -0.577 -0.577 -0.577
vn 0.577 0.577 0.577
vn 0.577 0.577 0.577
vn 0.577 0.577 0.577
vn 0.577 0.577 0.577
vn 0.577 0.577 0.577
vn 0.577 0.577 0.577
vn 0.577 0.577 0.577
vn 0.577 0.577 0.577
vn 0.577 0.577 0.577
vn 0.577 0.577 0.577
vn 0.577 0.577 0.577
vn 0.577 0.577 0.577
vn 0.577 0.577 0.577
vn 0.577 0.577 0.577
vn 0.577 0.577 0.577
vn -0.577 -0.577 -0.577
vn 0.577 0.577 0.577
vn 0.577 0.577 0.577
vn -0.577 -0.577 -0.577
vn -0.577 -0.577 -0.577
vn 0.577 0.577 0.577
vn 0.577 0.577 0.577
vn 0.577 0.577 0.577
vn 0.577 0.577 0.577
vn 0.577 0.577 0.577
vn 0.577 0.577 0.577
vn 0.577 0.577 0.577
vn 0.577 0.577 0.577
vn -0.577 -0.577 -0.577
vn 0.577 0.577 0.577
vn 0.577 0.577 0.577
vn 0.577 0.577 0.577
vn 0.577 0.577 0.577
vn 0.577 0.577 0.577
vn 0.577 0.577 0.577
vn 0.577 0.577 0.577
vn 0.577 0.577 0.577
vn 0.577 0.577 0.577
vn 0.577 0.577 0.577
vn 0.577 0.577 0.577
vn -0.577 -0.577 -0.577
vn -0.577 -0.577 -0.577
vn 0.577 0.577 0.577
vn -0.577 -0.577 -0.577
vn -0.577 -0.577 -0.577
vn -0.577 -0.577 -0.577
vn 0.577 0.577 0.577
vn -0.577 -0.577 -0.577
vn 0.577 0.577 0.577
vn -0.577 -0.577 -0.577
vn -0.577 -0.577 -0.577
vn 0.577 0.577 0.577
vn 0.577 0.577 0.577
vn 0.577 0.577 0.577
vn 0.577 0.577 0.577
vn -0.577 -0.577 -0.577
vn -0.577 -0.577 -0.577
vn -0.577 -0.577 -0.577
vn -0.577 -0.577 -0.577
vn -0.577 -0.577 -0.577
vn 0.577 0.577 0.577
vn -0.577 -0.577 -0.577
vn -0.577 -0.577 -0.577
vn -0.577 -0.577 -0.577
vn -0.577 -0.577 -0.577
vn 0.577 0.577 0.577
vn -0.577 -0.577 -0.577
vn -0.577 -0.577 -0.577
vn -0.577 -0.577 -0.577
vn -0.577 -0.577 -0.577
vn -0.577 -0.577 -0.577
vn -0.577 -0.577 -0.577
vn -0.577 -0.577 -0.577
vn -0.577 -0.577 -0.577
vn -0.577 -0.577 -0.577
vn -0.577 -0.577 -0.577
vn 0.577 0.577 0.577
vn -0.577 -0.577 -0.577
vn -0.577 -0.577 -0.577
vn -0.577 -0.577 -0.577
vn 0.577 0.577 0.577
vn -0.577 -0.577 -0.577
vn -0.577 -0.577 -0.577
vn 0.577 0.577 0.577
vn -0.577 -0.577 -0.577
vn -0.577 -0.577 -0.577
vn -0.577 -0.577 -0.577
vn -0.577 -0.577 -0.577
vn 0.577 0.577 0.577
vn -0.577 -0.577 -0.577
vn 0.577 0.577 0.577
vn -0.577 -0.577 -0.577
vn -0.577 -0.577 -0.577
vn 0.577 0.577 0.577
vn -0.577 -0.577 -0.577
vn -0.577 -0.577 -0.577
vn -0.577 -0.577 -0.577
vn -0.577 -0.577 -0.577
vn -0.577 -0.577 -0.577
vn -0.577 -0.577 -0.577
vn -0.577 -0.577 -0.577
vn -0.577 -0.577 -0.577
vn 0.577 0.577 0.577
vn 0.577 0.577 0.577
vn 0.577 0.577 0.577
vn 0.577 0.577 0.577
vn -0.577 -0.577 -0.577
vn -0.577 -0.577 -0.577
vn -0.577 -0.577 -0.577
vn -0.577 -0.577 -0.577
vn 0.577 0.577 0.577
vn -0.577 -0.577 -0.577
vn -0.577 -0.577 -0.577
vn -0.577 -0.577 -0.577
vn -0.577 -0.577 -0.577
vn -0.577 -0.577 -0.577
vn -0.577 -0.577 -0.577
vn -0.577 -0.577 -0.577
vn 0.577 0.577 0.577
vn -0.577 -0.577 -0.577
vn -0.577 -0.577 -0.577
vn 0.577 0.577 0.577
vn 0.577 0.577 0.577
vn -0.577 -0.577 -0.577
vn -0.577 -0.577 -0.577
vn 0.577 0.577 0.577
vn 0.577 0.577 0.577
vn -0.577 -0.577 -0.577
vn 0.577 0.577 0.577
vn -0.577 -0.577 -0.577
vn -0.577 -0.577 -0.577
vn 0.577 0.577 0.577
vn 0.577 0.577 0.577
vn -0.577 -0.577 -0.577
vn -0.577 -0.577 -0.577
vn -0.577 -0.577 -0.577
vn -0.577 -0.577 -0.577
vn 0.577 0.577 0.577
vn -0.577 -0.577 -0.577
vn -0.577 -0.577 -0.577
vn -0.577 -0.577 -0.577
vn -0.577 -0.577 -0.577
vn 0.577 0.577 0.577
vn -0.577 -0.577 -0.577
vn 0.577 0.577 0.577
vn 0.577 0.577 0.577
vn -0.577 -0.577 -0.577
vn -0.577 -0.577 -0.577
vn -0.577 -0.577 -0.577
vn -0.577 -0.577 -0.577
vn -0.577 -0.577 -0.577
vn -0.577 -0.577 -0.577
vn -0.577 -0.577 -0.577
vn -0.577 -0.577 -0.577
vn -0.577 -0.577 -0.577
vn -0.577 -0.577 -0.577
vn 0.577 0.577 0.577
vn 0.577 0.577 0.577
vn -0.577 -0.577 -0.577
vn -0.577 -0.577 -0.577
vn -0.577 -0.577 -0.577
vn 0.577 0.577 0.577
vn -0.577 -0.577 -0.577
vn 0.577 0.577 0.577
vn 0.577 0.577 0.577
vn 0.577 0.577 0.577
vn -0.577 -0.577 -0.577
vn 0.577 0.577 0.577
vn 0.577 0.577 0.577
vn 0.577 0.577 0.577
vn 0.577 0.577 0.577
vn -0.577 -0.577 -0.577
vn -0.577 -0.577 -0.577
vn -0.577 -0.577 -0.577
vn -0.577 -0.577 -0.577
vn -0.577 -0.577 -0.577
vn -0.577 -0.577 -0.577
vn -0.577 -0.577 -0.577
vn -0.577 -0.577 -0.577
vn -0.577 -0.577 -0.577
vn -0.577 -0.577 -0.577
vn -0.577 -0.577 -0.577
vn -0.577 -0.577 -0.577
vn 0.577 0.577 0.577
vn -0.577 -0.577 -0.577
vn -0.577 -0.577 -0.577
vn 0.577 0.577 0.577
vn 0.577 0.577 0.577
vn -0.577 -0.577 -0.577
vn 0.577 0.577 0.577
vn 0.577 0.577 0.577
vn -0.577 -0.577 -0.577
vn 0.577 0.577 0.577
vn 0.577 0.577 0.577
vn 0.577 0.577 0.577
vn -0.577 -0.577 -0.577
vn 0.577 0.577 0.577
vn 0.577 0.577 0.577
vn -0.577 -0.577 -0.577
vn 0.577 0.577 0.577
vn -0.577 -0.577 -0.577
vn -0.577 -0.577 -0.577
vn -0.577 -0.577 -0.577
vn -0.577 -0.577 -0.577
vn -0.577 -0.577 -0.577
vn -0.577 -0.577 -0.577
vn 0.577 0.577 0.577
vn 0.577 0.577 0.577
vn 0.577 0.577 0.577
vn 0.577 0.577 0.577
vn 0.577 0.577 0.577
vn -0.577 -0.577 -0.577
vn 0.577 0.577 0.577
vn -0.577 -0.577 -0.577
vn 0.577 0.577 0.577
vn 0.577 0.577 0.577
vn 0.577 0.577 0.577
vn 0.577 0.577 0.577
vn 0.577 0.577 0.577
vn -0.577 -0.577 -0.577
vn -0.577 -0.577 -0.577
vn -0.577 -0.577 -0.577
vn 0.577 0.577 0.577
vn 0.577 0.577 0.577
vn -0.577 -0.577 -0.577
vn 0.577 0.577 0.577
vn 0.577 0.577 0.577
vn 0.577 0.577 0.577
vn -0.577 -0.577 -0.577
vn 0.577 0.577 0.577
vn 0.577 0.577 0.577
vn 0.577 0.577 0.577
vn -0.577 -0.577 -0.577
vn 0.577 0.577 0.577
vn -0.577 -0.577 -0.577
vn 0.577 0.577 0.577
vn -0.577 -0.577 -0.577
vn 0.577 0.577 0.577
vn 0.577 0.577 0.577
vn 0.577 0.577 0.577
vn 0.577 0.577 0.577
vn -0.577 -0.577 -0.577
vn 0.577 0.577 0.577
vn -0.577 -0.577 -0.577
vn 0.577 0.577 0.577
vn 0.577 0.577 0.577
vn -0.577 -0.577 -0.577
vn 0.577 0.577 0.577
vn -0.577 -0.577 -0.577
vn 0.577 0.577 0.577
vn -0.577 -0.577 -0.577
vn 0.577 0.577 0.577
vn 0.577 0.577 0.577
vn 0.577 0.577 0.577
vn 0.577 0.577 0.577
vn -0.577 -0.577 -0.577
vn 0.577 0.577 0.577
vn -0.577 -0.577 -0.577
vn 0.577 0.577 0.577
vn -0.577 -0.577 -0.577
vn -0.577 -0.577 -0.577
vn 0.577 0.577 0.577
vn -0.577 -0.577 -0.577
vn -0.577 -0.577 -0.577
vn -0.577 -0.577 -0.577
vn 0.577 0.577 0.577
vn -0.577 -0.577 -0.577
vn -0.577 -0.577 -0.577
vn 0.577 0.577 0.577
vn -0.577 -0.577 -0.577
vn -0.577 -0.577 -0.577
vn -0.577 -0.577 -0.577
vn 0.577 0.577 0.577
vn 0.577 0.577 0.577
vn -0.577 -0.577 -0.577
vn -0.577 -0.577 -0.577
vn -0.577 -0.577 -0.577
vn 0.577 0.577 0.577
vn 0.577 0.577 0.577
vn 0.577 0.577 0.577
vn -0.577 -0.577 -0.577
vn 0.577 0.577 0.577
vn 0.577 0.577 0.577
vn 0.577 0.577 0.577
vn 0.577 0.577 0.577
vn -0.577 -0.577 -0.577
vn 0.577 0.577 0.577
vn -0.577 -0.577 -0.577
vn -0.577 -0.577 -0.577
vn -0.577 -0.577 -0.577
vn -0.577 -0.577 -0.577
vn -0.577 -0.577 -0.577
vn -0.577 -0.577 -0.577
vn 0.577 0.577 0.577
vn 0.577 0.577 0.577
vn 0.577 0.577 0.577
vn 0.577 0.577 0.577
vn 0.577 0.577 0.577
vn -0.577 -0.577 -0.577
vn 0.577 0.577 0.577
vn -0.577 -0.577 -0.577
vn 0.577 0.577 0.577
vn 0.577 0.577 0.577
vn 0.577 0.577 0.577
vn 0.577 0.577 0.577
vn 0.577 0.577 0.577
vn -0.577 -0.577 -0.577
vn 0.577 0.577 0.577
vn -0.577 -0.577 -0.577
vn -0.577 -0.577 -0.577
vn -0.577 -0.577 -0.577
vn 0.577 0.577 0.577
vn 0.577 0.577 0.577
vn 0.577 0.577 0.577
vn 0.577 0.577 0.577
vn -0.577 -0.577 -0.577
vn -0.577 -0.577 -0.577
vn 0.577 0.577 0.577
vn 0.577 0.577 0.577
vn 0.577 0.577 0.577
vn 0.577 0.577 0.577
vn -0.577 -0.577 -0.577
vn -0.577 -0.577 -0.577
vn 0.577 0.577 0.577
vn -0.577 -0.577 -0.577
vn 0.577 0.577 0.577
vn 0.577 0.577 0.577
vn 0.577 0.577 0.577
vn 0.577 0.577 0.577
vn -0.577 -0.577 -0.577
vn 0.577 0.577 0.577
vn -0.577 -0.577 -0.577
vn 0.577 0.577 0.577
vn 0.577 0.577 0.577
vn -0.577 -0.577 -0.577
vn 0.577 0.577 0.577
vn -0.577 -0.577 -0.577
vn 0.577 0.577 0.577
vn -0.577 -0.577 -0.577
vn 0.577 0.577 0.577
vn 0.577 0.577 0.577
vn 0.577 0.577 0.577
vn -0.577 -0.577 -0.577
vn 0.577 0.577 0.577
vn 0.577 0.577 0.577
vn -0.577 -0.577 -0.577
vn 0.577 0.577 0.577
vn -0.577 -0.577 -0.577
vn 0.577 0.577 0.577
vn -0.577 -0.577 -0.577
vn -0.577 -0.577 -0.577
vn -0.577 -0.577 -0.577
vn -0.577 -0.577 -0.577
vn 0.577 0.577 0.577
vn -0.577 -0.577 -0.577
vn -0.577 -0.577 -0.577
vn -0.577 -0.577 -0.577
vn 0.577 0.577 0.577
vn 0.577 0.577 0.577
vn -0.577 -0.577 -0.577
vn -0.577 -0.577 -0.577
vn -0.577 -0.577 -0.577
vn -0.577 -0.577 -0.577
vn -0.577 -0.577 -0.577
vn -0.577 -0.577 -0.577
vn 0.577 0.577 0.577
vn -0.577 -0.577 -0.577
vn 0.577 0.577 0.577
vn 0.577 0.577 0.577
vn -0.577 -0.577 -0.577
vn -0.577 -0.577 -0.577
vn 0.577 0.577 0.577
vn 0.577 0.577 0.577
vn 0.577 0.577 0.577
vn 0.577 0.577 0.577
vn 0.577 0.577 0.577
vn -0.577 -0.577 -0.577
vn 0.577 0.577 0.577
vn 0.577 0.577 0.577
vn 0.577 0.577 0.577
vn -0.577 -0.577 -0.577
vn 0.577 0.577 0.577
vn 0.577 0.577 0.577
vn 0.577 0.577 0.577
vn 0.577 0.577 0.577
vn -0.577 -0.577 -0.577
vn -0.577 -0.577 -0.577
vn 0.577 0.577 0.577
vn -0.577 -0.577 -0.577
vn -0.577 -0.577 -0.577
vn 0.577 0.577 0.577
vn -0.577 -0.577 -0.577
vn 0.577 0.577 0.577
vn -0.577 -0.577 -0.577
vn -0.577 -0.577 -0.577
vn -0.577 -0.577 -0.577
vn 0.577 0.577 0.577
vn 0.577 0.577 0.577
vn -0.577 -0.577 -0.577
vn -0.577 -0.577 -0.577
vn 0.577 0.577 0.577
vn 0.577 0.577 0.577
vn 0.577 0.577 0.577
vn 0.577 0.577 0.577
vn -0.577 -0.577 -0.577
vn -0.577 -0.577 -0.577
vn 0.577 0.577 0.577
vn -0.577 -0.577 -0.577
vn -0.577 -0.577 -0.577
vn 0.577 0.577 0.577
vn -0.577 -0.577 -0.577
vn 0.577 0.577 0.577
vn 0.577 0.577 0.577
vn 0.577 0.577 0.577
vn 0.577 0.577 0.577
vn 0.577 0.577 0.577
vn -0.577 -0.577 -0.577
vn 0.577 0.577 0.577
vn 0.577 0.577 0.577
vn -0.577 -0.577 -0.577
vn 0.577 0.577 0.577
vn 0.577 0.577 0.577
vn -0.577 -0.577 -0.577
vn 0.577 0.577 0.577
vn 0.577 0.577 0.577
vn -0.577 -0.577 -0.577
vn 0.577 0.577 0.577
vn -0.577 -0.577 -0.577
vn 0.577 0.577 0.577
vn -0.577 -0.577 -0.577
vn -0.577 -0.577 -0.577
vn 0.577 0.577 0.577
vn 0.577 0.577 0.577
vn 0.577 0.577 0.577
vn 0.577 0.577 0.577
vn 0.577 0.577 0.577
vn 0.577 0.577 0.577
vn 0.577 0.577 0.577
vn 0.577 0.577 0.577
vn 0.577 0.577 0.577
vn -0.577 -0.577 -0.577
vn -0.577 -0.577 -0.577
vn 0.577 0.577 0.577
vn 0.577 0.577 0.577
vn 0.577 0.577 0.577
vn -0.577 -0.577 -0.577
vn -0.577 -0.577 -0.577
vn 0.577 0.577 0.577
vn -0.577 -0.577 -0.577
vn 0.577 0.577 0.577
vn -0.577 -0.577 -0.577
vn -0.577 -0.577 -0.577
vn -0.577 -0.577 -0.577
vn -0.577 -0.577 -0.577
vn 0.577 0.577 0.577
vn -0.577 -0.577 -0.577
vn 0.577 0.577 0.577
vn 0.577 0.577 0.577
vn 0.577 0.577 0.577
vn 0.577 0.577 0.577
vn 0.577 0.577 0.577
vn -0.577 -0.577 -0.577
vn 0.577 0.577 0.577
vn 0.577 0.577 0.577
vn 0.577 0.577 0.577
vn -0.577 -0.577 -0.577
vn -0.577 -0.577 -0.577
vn -0.577 -0.577 -0.577
vn 0.577 0.577 0.577
vn -0.577 -0.577 -0.577
vn 0.577 0.577 0.577
vn 0.577 0.577 0.577
vn -0.577 -0.577 -0.577
vn -0.577 -0.577 -0.577
vn 0.577 0.577 0.577
vn 0.577 0.577 0.577
vn -0.577 -0.577 -0.577
vn -0.577 -0.577 -0.577
vn 0.577 0.577 0.577
vn 0.577 0.577 0.577
vn 0.577 0.577 0.577
vn -0.577 -0.577 -0.577
vn 0.577 0.577 0.577
vn 0.577 0.577 0.577
vn 0.577 0.577 0.577
vn 0.577 0.577 0.577
vn 0.577 0.577 0.577
vn 0.577 0.577 0.577
vn 0.577 0.577 0.577
vn 0.577 0.577 0.577
vn 0.577 0.577 0.577
vn 0.577 0.577 0.577
vn 0.577 0.577 0.577
vn 0.577 0.577 0.577
vn -0.577 -0.577 -0.577
vn 0.577 0.577 0.577
vn 0.577 0.577 0.577
vn -0.577 -0.577 -0.577
vn 0.577 0.577 0.577
vn -0.577 -0.577 -0.577
vn 0.577 0.577 0.577
vn 0.577 0.577 0.577
vn 0.577 0.577 0.577
vn 0.577 0.577 0.577
vn 0.577 0.577 0.577
vn 0.577 0.577 0.577
vn 0.577 0.577 0.577
vn 0.577 0.577 0.577
vn -0.577 -0.577 -0.577
vn 0.577 0.577 0.577
vn 0.577 0.577 0.577
vn 0.577 0.577 0.577
vn -0.577 -0.577 -0.577
vn 0.577 0.577 0.577
vn -0.577 -0.577 -0.577
vn -0.577 -0.577 -0.577
vn 0.577 0.577 0.577
vn 0.577 0.577 0.577
vn 0.577 0.577 0.577
vn 0.577 0.577 0.577
usemtl tex_1787_lit
f 1/1/1 2/2/2 3/3/3
f 3/3/3 2/2/2 4/4/4
f 3/3/3 5/5/5 6/6/6
f 7/7/7 8/8/8 4/4/4
f 5/5/5 3/3/3 8/8/8
f 8/8/8 3/3/3 4/4/4
f 1/1/1 9/9/9 7/7/7
f 2/2/2 1/1/1 7/7/7
f 7/7/7 10/10/10 8/8/8
f 1/1/1 6/6/6 9/9/9
f 8/8/8 10/10/10 6/6/6
f 3/3/3 6/6/6 1/1/1
f 7/7/7 4/4/4 2/2/2
f 5/5/5 8/8/8 6/6/6
usemtl tex_1633_lit_w01
f 11/11/11 12/12/12 13/13/13
f 13/13/13 12/12/12 14/14/14
f 13/13/13 14/14/14 15/15/15
f 15/15/15 14/14/14 16/16/16
f 15/15/15 17/17/17 18/18/18
f 18/18/18 17/17/17 19/19/19
f 18/18/18 19/19/19 11/11/11
f 11/11/11 19/19/19 12/12/12
usemtl tex_1985_lit_w11
f 20/20/20 26/21/26 27/22/27
f 21/23/21 20/20/20 27/22/27
usemtl tex_1984_lit
f 22/24/22 23/25/23 28/26/28
f 22/24/22 28/26/28 29/27/29
f 24/28/24 25/29/25 30/30/30
f 23/25/23 24/28/24 28/26/28
f 24/28/24 30/30/30 28/26/28
f 25/29/25 31/31/31 30/30/30
usemtl tex_1633_lit_w01
f 36/14/36 32/32/32 37/17/37
f 33/33/33 34/34/34 38/19/38
f 36/14/36 35/35/35 32/32/32
f 37/17/37 32/32/32 33/33/33
f 38/19/38 34/34/34 39/12/39
f 39/12/39 34/34/34 35/35/35
f 39/12/39 35/35/35 36/14/36
f 37/17/37 33/33/33 38/19/38
f 40/36/40 41/37/41 42/38/42
f 43/39/43 44/40/44 45/41/45
f 40/36/40 46/42/46 41/37/41
f 42/38/42 41/37/41 43/39/43
f 45/41/45 44/40/44 47/43/47
f 47/43/47 44/40/44 46/42/46
f 47/43/47 46/42/46 40/36/40
f 42/38/42 43/39/43 45/41/45
f 45/41/45 47/43/47 40/36/40
f 45/41/45 40/36/40 42/38/42
f 44/40/44 43/39/43 41/37/41
f 44/40/44 41/37/41 46/42/46
usemtl tex_1989_lit_w01
f 48/44/48 49/45/49 50/46/50
f 50/46/50 49/45/49 51/47/51
f 50/46/50 51/47/51 52/48/52
f 52/48/52 51/47/51 53/49/53
f 49/45/49 48/44/48 54/50/54
f 55/51/55 52/48/52 56/52/56
f 57/53/57 55/51/55 56/52/56
f 48/44/48 55/51/55 57/53/57
f 54/50/54 48/44/48 57/53/57
usemtl tex_1633_lit_w01
f 58/54/58 59/55/59 60/56/60
f 61/57/61 59/55/59 62/58/62
f 63/59/63 64/60/64 65/61/65
f 66/57/66 67/58/67 63/59/63
f 64/60/64 68/54/68 69/56/69
f 68/54/68 67/58/67 70/55/70
f 64/60/64 69/56/69 65/61/65
f 66/57/66 63/59/63 65/61/65
usemtl tex_1988_lit_w01
f 71/62/71 78/63/78 79/64/79
f 78/63/78 72/65/72 80/66/80
f 78/63/78 71/62/71 72/65/72
f 73/67/73 74/68/74 79/64/79
f 73/67/73 79/64/79 81/69/81
f 74/68/74 71/62/71 79/64/79
usemtl tex_1989_lit_w01
f 75/70/75 82/71/82 76/72/76
f 83/73/83 75/70/75 84/74/84
f 75/70/75 83/73/83 82/71/82
f 75/70/75 77/75/77 84/74/84
f 77/75/77 85/76/85 84/74/84
usemtl tex_1633_lit_w01
f 90/33/90 86/59/86 91/34/91
f 90/33/90 87/60/87 86/59/86
f 92/32/92 87/60/87 90/33/90
f 88/58/88 93/35/93 91/34/91
f 92/32/92 89/54/89 87/60/87
f 93/35/93 88/58/88 89/54/89
f 93/35/93 89/54/89 92/32/92
f 86/59/86 88/58/88 91/34/91
f 94/37/94 95/77/95 96/78/96
f 97/79/97 95/77/95 98/42/98
f 99/40/99 100/39/100 101/80/101
f 97/79/97 98/42/98 99/40/99
f 100/39/100 94/37/94 96/78/96
f 94/37/94 98/42/98 95/77/95
f 100/39/100 96/78/96 101/80/101
f 97/79/97 99/40/99 101/80/101
f 101/80/101 96/78/96 95/77/95
f 101/80/101 95/77/95 97/79/97
f 94/37/94 100/39/100 99/40/99
f 94/37/94 99/40/99 98/42/98
usemtl tex_1787_lit
f 102/81/102 103/82/103 104/83/104
f 105/84/105 103/82/103 102/81/102
f 106/85/106 107/86/107 102/81/102
f 105/84/105 108/87/108 109/88/109
f 108/87/108 102/81/102 107/86/107
f 105/84/105 102/81/102 108/87/108
f 109/88/109 110/89/110 104/83/104
f 109/88/109 104/83/104 103/82/103
f 108/87/108 111/90/111 109/88/109
f 110/89/110 106/85/106 104/83/104
f 106/85/106 111/90/111 108/87/108
f 104/83/104 106/85/106 102/81/102
f 103/82/103 105/84/105 109/88/109
f 106/85/106 108/87/108 107/86/107
usemtl tex_1633_lit_w01
f 112/91/112 113/92/113 114/93/114
f 115/94/115 113/92/113 112/91/112
f 116/95/116 115/94/115 112/91/112
f 117/96/117 115/94/115 116/95/116
f 118/97/118 119/98/119 116/95/116
f 120/99/120 119/98/119 118/97/118
f 114/93/114 120/99/120 118/97/118
f 113/92/113 120/99/120 114/93/114
usemtl tex_1985_lit_w11
f 121/100/121 122/101/122 123/102/123
f 121/100/121 123/102/123 124/103/124
usemtl tex_1984_lit
f 125/104/125 126/105/126 127/102/127
f 128/106/128 129/104/129 130/102/130
f 131/107/131 132/108/132 133/109/133
f 129/104/129 133/109/133 134/105/134
f 129/104/129 131/107/131 133/109/133
f 131/107/131 135/100/135 132/108/132
usemtl tex_1633_lit_w01
f 140/98/140 136/110/136 141/94/141
f 142/99/142 137/111/137 138/112/138
f 136/110/136 139/113/139 141/94/141
f 138/112/138 136/110/136 140/98/140
f 143/92/143 137/111/137 142/99/142
f 139/113/139 137/111/137 143/92/143
f 141/94/141 139/113/139 143/92/143
f 142/99/142 138/112/138 140/98/140
f 144/114/144 145/115/145 146/116/146
f 147/117/147 148/118/148 149/119/149
f 145/115/145 150/120/150 146/116/146
f 149/119/149 145/115/145 144/114/144
f 151/121/151 148/118/148 147/117/147
f 150/120/150 148/118/148 151/121/151
f 146/116/146 150/120/150 151/121/151
f 147/117/147 149/119/149 144/114/144
f 144/114/144 146/116/146 151/121/151
f 144/114/144 151/121/151 147/117/147
f 150/120/150 145/115/145 149/119/149
f 150/120/150 149/119/149 148/118/148
usemtl tex_1989_lit_w01
f 152/122/152 153/123/153 154/124/154
f 155/125/155 153/123/153 152/122/152
f 156/52/156 155/125/155 152/122/152
f 157/126/157 155/125/155 156/52/156
f 158/49/158 157/126/157 156/52/156
f 159/127/159 157/126/157 158/49/158
f 160/128/160 159/127/159 158/49/158
f 153/123/153 159/127/159 160/128/160
f 161/129/161 153/123/153 160/128/160
f 161/129/161 154/124/154 153/123/153
usemtl tex_1633_lit_w01
f 162/130/162 163/131/163 164/132/164
f 165/133/165 163/131/163 166/134/166
f 167/135/167 168/136/168 169/137/169
f 169/137/169 170/133/170 171/134/171
f 172/130/172 173/132/173 168/136/168
f 174/131/174 170/133/170 173/132/173
f 167/135/167 172/130/172 168/136/168
f 167/135/167 169/137/169 171/134/171
usemtl tex_1988_lit_w01
f 175/138/175 176/139/176 182/140/182
f 175/138/175 182/140/182 183/141/183
f 176/139/176 177/68/177 184/64/184
f 184/64/184 177/68/177 178/67/178
f 184/64/184 178/67/178 185/69/185
f 176/139/176 184/64/184 182/140/182
usemtl tex_1989_lit_w01
f 179/142/179 186/143/186 187/144/187
f 186/143/186 179/142/179 180/145/180
f 186/143/186 180/145/180 188/146/188
f 181/75/181 187/144/187 189/76/189
f 181/75/181 179/142/179 187/144/187
usemtl tex_1633_lit_w01
f 194/111/194 190/137/190 195/112/195
f 190/137/190 191/136/191 195/112/195
f 195/112/195 191/136/191 196/110/196
f 194/111/194 197/113/197 192/133/192
f 191/136/191 193/132/193 196/110/196
f 193/132/193 192/133/192 197/113/197
f 196/110/196 193/132/193 197/113/197
f 194/111/194 192/133/192 190/137/190
f 198/147/198 199/148/199 200/115/200
f 201/120/201 199/148/199 202/149/202
f 203/150/203 204/119/204 205/118/205
f 205/118/205 201/120/201 202/149/202
f 198/147/198 200/115/200 204/119/204
f 199/148/199 201/120/201 200/115/200
f 203/150/203 198/147/198 204/119/204
f 203/150/203 205/118/205 202/149/202
f 202/149/202 199/148/199 198/147/198
f 202/149/202 198/147/198 203/150/203
f 201/120/201 205/118/205 204/119/204
f 201/120/201 204/119/204 200/115/200
usemtl tex_1987_lit
f 206/151/206 211/152/211 212/153/212
f 213/154/213 207/155/207 208/156/208
f 207/155/207 214/157/214 206/151/206
f 215/158/215 211/152/211 206/151/206
f 209/159/209 206/151/206 216/160/216
f 207/155/207 213/154/213 214/157/214
f 209/159/209 216/160/216 217/161/217
f 209/159/209 217/161/217 210/162/210
f 217/161/217 208/156/208 210/162/210
f 217/161/217 213/154/213 208/156/208
f 206/151/206 214/157/214 215/158/215
f 212/153/212 216/160/216 206/151/206
usemtl tex_1987_lit_ds
f 218/163/218 219/164/219 220/165/220
f 219/164/219 221/166/221 220/165/220
usemtl tex_1987_lit
f 219/164/219 221/166/221 220/165/220
f 219/164/219 220/165/220 218/163/218
usemtl tex_1987_lit_ds
f 220/165/220 221/166/221 222/167/222
f 218/163/218 220/165/220 223/168/223
usemtl tex_1987_lit
f 224/169/224 225/170/225 226/171/226
f 227/172/227 228/173/228 229/174/229
f 230/175/230 231/176/231 232/177/232
f 233/178/233 230/175/230 234/179/234
f 233/178/233 234/179/234 235/180/235
f 230/175/230 236/181/236 231/176/231
f 237/182/237 238/183/238 229/174/229
f 234/179/234 232/177/232 226/171/226
f 227/172/227 229/174/229 236/181/236
f 229/174/229 231/176/231 236/181/236
f 239/184/239 227/172/227 236/181/236
f 230/175/230 232/177/232 234/179/234
f 240/185/240 241/167/241 242/186/242
f 243/187/243 244/180/244 245/188/245
f 246/189/246 245/188/245 247/190/247
f 241/167/241 248/172/248 242/186/242
f 249/184/249 250/191/250 243/187/243
f 246/189/246 243/187/243 245/188/245
f 240/185/240 251/192/251 246/189/246
f 240/185/240 242/186/242 251/192/251
f 252/168/252 246/189/246 247/190/247
f 251/192/251 242/186/242 243/187/243
f 251/192/251 243/187/243 246/189/246
f 240/185/240 246/189/246 252/168/252
f 243/187/243 250/191/250 244/180/244
f 245/188/245 244/180/244 247/190/247
f 253/179/253 254/171/254 247/190/247
f 255/184/255 256/181/256 257/178/257
f 257/178/257 256/181/256 258/175/258
f 259/193/259 260/190/260 261/171/261
f 255/184/255 257/178/257 262/191/262
f 263/186/263 264/172/264 265/194/265
f 265/194/265 255/184/255 266/187/266
f 263/186/263 265/194/265 266/187/266
f 262/191/262 257/178/257 267/180/267
f 268/165/268 269/167/269 270/185/270
f 271/165/271 272/185/272 273/168/273
f 274/184/274 275/194/275 276/172/276
f 277/179/277 278/190/278 279/180/279
f 280/168/280 281/167/281 282/165/282
f 283/171/283 284/170/284 285/193/285
f 286/173/286 287/182/287 288/174/288
f 289/167/289 286/173/286 290/172/290
f 291/190/291 292/193/292 293/168/293
usemtl tex_2341_lit
f 294/195/294 295/196/295 296/197/296
f 297/198/297 298/199/298 299/200/299
f 298/199/298 300/201/300 299/200/299
f 301/202/301 302/195/302 303/203/303
f 302/195/302 304/197/304 303/203/303
f 305/204/305 306/205/306 307/196/307
f 306/205/306 304/197/304 307/196/307
f 308/198/308 309/200/309 310/206/310
f 308/198/308 310/206/310 311/207/311
f 308/198/308 311/207/311 312/208/312
f 312/208/312 311/207/311 313/209/313
f 314/210/314 315/211/315 305/204/305
f 315/211/315 316/212/316 305/204/305
f 317/212/317 318/213/318 319/204/319
f 318/213/318 320/205/320 319/204/319
f 321/214/321 322/215/322 323/216/323
f 321/214/321 323/216/323 324/217/324
f 321/214/321 324/217/324 325/199/325
f 326/210/326 327/195/327 328/202/328
f 329/198/329 330/208/330 321/214/321
f 329/198/329 321/214/321 325/199/325
f 326/210/326 319/204/319 331/196/331
f 326/210/326 331/196/331 327/195/327
f 330/208/330 332/209/332 321/214/321
f 332/209/332 322/215/322 321/214/321
usemtl tex_2340_lit
f 333/218/333 334/219/334 335/220/335
f 336/221/336 334/219/334 333/218/333
f 337/222/337 338/223/338 339/224/339
f 337/222/337 333/218/333 338/223/338
f 340/225/340 341/226/341 342/227/342
f 335/220/335 343/228/343 338/223/338
f 344/229/344 336/221/336 333/218/333
f 340/225/340 342/227/342 336/221/336
f 344/229/344 340/225/340 336/221/336
f 344/229/344 345/230/345 340/225/340
f 333/218/333 335/220/335 338/223/338
f 342/227/342 334/219/334 336/221/336
usemtl tex_2340_lit_ovl
f 344/229/344 337/222/337 339/224/339
usemtl tex_2340_lit
f 345/230/345 344/229/344 339/224/339
f 344/229/344 333/218/333 337/222/337
f 342/227/342 346/231/346 334/219/334
f 335/220/335 334/219/334 346/231/346
usemtl tex_1987_lit
f 347/232/347 348/233/348 349/234/349
f 347/232/347 349/234/349 350/235/350
f 351/236/351 352/237/352 353/238/353
f 351/236/351 353/238/353 354/239/354
f 351/236/351 354/239/354 347/232/347
f 351/236/351 347/232/347 350/235/350
f 348/233/348 347/232/347 354/239/354
f 348/233/348 354/239/354 353/238/353
f 349/234/349 348/233/348 353/238/353
f 349/234/349 353/238/353 352/237/352
usemtl tex_2341_lit
f 355/240/355 356/241/356 357/242/357
f 355/240/355 357/242/357 358/243/358
usemtl tex_1990_lit
f 359/244/359 360/245/360 361/246/361
f 362/247/362 360/245/360 359/244/359
usemtl tex_1991_lit
f 363/248/363 364/249/364 365/250/365
f 366/251/366 364/249/364 363/248/363
usemtl tex_1992_lit
f 367/252/367 368/253/368 369/254/369
f 370/255/370 368/253/368 367/252/367
usemtl tex_1993_lit
f 371/256/371 372/257/372 373/258/373
f 374/259/374 372/257/372 371/256/371
usemtl tex_1994_lit
f 375/260/375 376/261/376 377/262/377
f 378/263/378 376/261/376 375/260/375
usemtl tex_1986_lit
f 379/264/379 380/265/380 384/266/384
f 385/267/385 381/268/381 379/264/379
f 385/267/385 382/269/382 381/268/381
f 386/270/386 380/265/380 383/271/383
f 387/272/387 383/271/383 382/269/382
f 386/270/386 384/266/384 380/265/380
f 385/267/385 387/272/387 382/269/382
f 385/267/385 379/264/379 384/266/384
f 387/272/387 386/270/386 383/271/383
usemtl tex_1632_lit_w01
f 393/273/393 388/274/388 394/275/394
f 394/275/394 388/274/388 389/276/389
f 394/275/394 389/276/389 395/277/395
f 395/277/395 389/276/389 390/278/390
f 395/277/395 390/278/390 396/279/396
f 396/279/396 390/278/390 391/280/391
f 397/281/397 392/282/392 393/273/393
f 393/273/393 392/282/392 388/274/388
f 396/279/396 391/280/391 397/281/397
f 397/281/397 391/280/391 392/282/392
f 398/283/398 399/284/399 400/285/400
f 401/286/401 402/287/402 398/283/398
f 403/288/403 399/284/399 404/289/404
f 405/290/405 404/289/404 401/286/401
f 404/289/404 402/287/402 401/286/401
f 403/288/403 400/285/400 399/284/399
f 401/286/401 398/283/398 400/285/400
f 405/290/405 403/288/403 404/289/404
f 399/284/399 398/283/398 406/287/406
f 399/284/399 406/287/406 404/289/404
f 407/291/407 408/292/408 409/293/409
f 407/291/407 410/294/410 411/295/411
f 412/296/412 413/297/413 414/298/414
f 407/291/407 409/293/409 410/294/410
f 408/292/408 412/296/412 414/298/414
f 415/299/415 412/296/412 408/292/408
f 410/294/410 413/297/413 416/300/416
f 407/291/407 415/299/415 408/292/408
f 412/296/412 416/300/416 413/297/413
f 411/295/411 410/294/410 416/300/416
f 422/292/422 417/301/417 423/293/423
f 418/302/418 417/301/417 422/292/422
f 419/303/419 418/302/418 424/298/424
f 425/297/425 419/303/419 424/298/424
f 420/304/420 419/303/419 425/297/425
f 426/294/426 420/304/420 425/297/425
f 421/305/421 420/304/420 426/294/426
f 423/293/423 421/305/421 426/294/426
f 417/301/417 421/305/421 423/293/423
f 424/298/424 418/302/418 422/292/422
f 432/274/432 427/300/427 433/276/433
f 433/276/433 427/300/427 428/296/428
f 433/276/433 428/296/428 434/278/434
f 434/278/434 428/296/428 429/299/429
f 434/278/434 429/299/429 435/280/435
f 435/280/435 429/299/429 430/291/430
f 436/282/436 427/300/427 432/274/432
f 435/280/435 430/291/430 431/295/431
f 435/280/435 431/295/431 436/282/436
f 436/282/436 431/295/431 427/300/427
f 437/306/437 438/307/438 439/308/439
f 439/308/439 440/309/440 437/306/437
f 441/283/441 439/308/439 438/307/438
f 441/283/441 437/306/437 442/284/442
f 441/283/441 438/307/438 437/306/437
f 439/308/439 443/289/443 440/309/440
f 444/287/444 443/289/443 439/308/439
f 437/306/437 440/309/440 442/284/442
f 441/283/441 444/287/444 439/308/439
f 443/289/443 442/284/442 440/309/440
f 443/289/443 445/287/445 441/283/441
f 443/289/443 441/283/441 442/284/442
usemtl tex_1990_lit
f 446/246/446 447/245/447 448/244/448
f 448/244/448 447/245/447 449/247/449
usemtl tex_1991_lit
f 450/250/450 451/249/451 452/248/452
f 452/248/452 451/249/451 453/251/453
usemtl tex_1992_lit
f 454/254/454 455/253/455 456/252/456
f 456/252/456 455/253/455 457/255/457
usemtl tex_1993_lit
f 458/258/458 459/257/459 460/256/460
f 460/256/460 459/257/459 461/259/461
usemtl tex_1994_lit
f 462/262/462 463/261/463 464/260/464
f 464/260/464 463/261/463 465/263/465
usemtl tex_1986_lit
f 471/266/471 466/265/466 467/264/467
f 467/264/467 468/268/468 472/267/472
f 468/268/468 469/269/469 472/267/472
f 470/271/470 466/265/466 473/270/473
f 469/269/469 470/271/470 474/272/474
f 466/265/466 471/266/471 473/270/473
f 469/269/469 474/272/474 472/267/472
f 471/266/471 467/264/467 472/267/472
f 470/271/470 473/270/473 474/272/474
usemtl tex_1632_lit_w01
f 480/310/480 475/311/475 481/312/481
f 476/313/476 475/311/475 480/310/480
f 482/314/482 476/313/476 480/310/480
f 477/315/477 476/313/476 482/314/482
f 483/316/483 477/315/477 482/314/482
f 478/317/478 477/315/477 483/316/483
f 481/312/481 479/318/479 484/319/484
f 475/311/475 479/318/479 481/312/481
f 484/319/484 478/317/478 483/316/483
f 479/318/479 478/317/478 484/319/484
f 485/320/485 486/321/486 487/322/487
f 487/322/487 488/323/488 489/324/489
f 490/325/490 486/321/486 491/326/491
f 489/324/489 490/325/490 492/327/492
f 489/324/489 488/323/488 490/325/490
f 486/321/486 485/320/485 491/326/491
f 485/320/485 487/322/487 489/324/489
f 490/325/490 491/326/491 492/327/492
f 493/322/493 486/321/486 490/325/490
f 493/322/493 490/325/490 494/323/494
f 495/328/495 496/329/496 497/330/497
f 498/331/498 499/332/499 497/330/497
f 500/333/500 501/334/501 502/335/502
f 499/332/499 495/328/495 497/330/497
f 500/333/500 502/335/502 496/329/496
f 496/329/496 502/335/502 503/336/503
f 504/337/504 501/334/501 499/332/499
f 496/329/496 503/336/503 497/330/497
f 501/334/501 504/337/504 502/335/502
f 504/337/504 499/332/499 498/331/498
f 510/328/510 505/338/505 511/329/511
f 511/329/511 505/338/505 506/339/506
f 511/329/511 506/339/506 512/333/512
f 512/333/512 506/339/506 507/340/507
f 512/333/512 507/340/507 513/334/513
f 513/334/513 507/340/507 508/341/508
f 513/334/513 508/341/508 514/332/514
f 514/332/514 508/341/508 509/342/509
f 514/332/514 509/342/509 510/328/510
f 510/328/510 509/342/509 505/338/505
f 520/313/520 515/337/515 521/311/521
f 516/335/516 515/337/515 520/313/520
f 522/315/522 516/335/516 520/313/520
f 517/336/517 516/335/516 522/315/522
f 523/317/523 517/336/517 522/315/522
f 518/330/518 517/336/517 523/317/523
f 521/311/521 515/337/515 524/318/524
f 519/331/519 518/330/518 523/317/523
f 524/318/524 519/331/519 523/317/523
f 515/337/515 519/331/519 524/318/524
f 525/343/525 526/344/526 527/322/527
f 528/321/528 529/345/529 527/322/527
f 529/345/529 525/343/525 527/322/527
f 530/346/530 531/325/531 526/344/526
f 526/344/526 531/325/531 532/323/532
f 528/321/528 530/346/530 529/345/529
f 526/344/526 532/323/532 527/322/527
f 530/346/530 528/321/528 531/325/531
f 525/343/525 529/345/529 530/346/530
f 530/346/530 526/344/526 525/343/525
f 533/323/533 531/325/531 528/321/528
f 533/323/533 528/321/528 534/322/534
usemtl tex_1988_lit_w01
f 535/347/535 536/348/536 537/349/537
f 537/349/537 538/350/538 539/351/539
f 540/352/540 539/351/539 541/353/541
f 542/354/542 543/355/543 544/356/544
f 540/352/540 537/349/537 539/351/539
f 540/352/540 535/347/535 537/349/537
f 545/357/545 546/358/546 537/349/537
f 539/351/539 544/356/544 547/359/547
f 548/360/548 546/358/546 545/357/545
f 538/350/538 542/354/542 539/351/539
f 549/361/549 545/357/545 550/362/550
f 551/348/551 552/363/552 553/364/553
f 554/360/554 555/357/555 556/361/556
f 551/348/551 557/347/557 558/365/558
f 559/366/559 560/355/560 561/367/561
f 562/368/562 563/352/563 564/353/564
f 565/358/565 566/350/566 567/349/567
f 568/348/568 569/365/569 570/363/570
f 571/353/571 572/351/572 573/359/573
f 574/368/574 571/353/571 575/369/575
f 572/351/572 576/354/576 577/356/577
f 566/350/566 578/367/578 576/354/576
f 579/355/579 576/354/576 578/367/578
f 574/368/574 575/369/575 580/370/580
f 571/353/571 573/359/573 575/369/575
usemtl tex_1989_lit_w01
f 581/371/581 582/372/582 583/373/583
f 584/374/584 581/371/581 585/375/585
f 585/375/585 581/371/581 583/373/583
f 586/376/586 587/377/587 582/372/582
f 588/378/588 587/377/587 586/376/586
f 589/379/589 581/371/581 584/374/584
f 589/379/589 590/380/590 591/381/591
f 589/379/589 584/374/584 590/380/590
f 584/374/584 592/382/592 590/380/590
f 593/383/593 589/379/589 591/381/591
f 584/374/584 594/384/594 592/382/592
f 583/373/583 595/385/595 596/386/596
f 597/372/597 598/377/598 599/387/599
f 600/378/600 601/379/601 602/383/602
f 603/376/603 604/371/604 601/379/601
f 600/378/600 603/376/603 601/379/601
f 604/371/604 603/376/603 597/372/597
f 605/375/605 606/386/606 607/384/607
f 605/375/605 608/373/608 606/386/606
f 609/374/609 605/375/605 607/384/607
usemtl tex_1988_lit_w01
f 610/388/610 618/359/618 611/389/611
f 611/389/611 619/356/619 612/390/612
f 611/389/611 618/359/618 619/356/619
f 613/391/613 620/369/620 618/359/618
f 612/390/612 619/356/619 621/355/621
f 613/391/613 618/359/618 610/388/610
usemtl tex_1989_lit_w01
f 614/392/614 622/385/622 615/393/615
f 615/393/615 622/385/622 623/373/623
f 615/393/615 623/373/623 616/394/616
f 616/394/616 623/373/623 624/372/624
f 617/395/617 624/372/624 625/387/625
f 616/394/616 624/372/624 617/395/617
usemtl tex_1988_lit_w01
f 626/396/626 627/397/627 628/398/628
f 629/396/629 630/399/630 631/400/631
f 627/397/627 626/396/626 632/401/632
f 629/396/629 633/398/633 630/399/630
usemtl tex_1989_lit_w01
f 634/402/634 635/403/635 636/404/636
f 637/405/637 634/402/634 636/404/636
f 638/406/638 639/407/639 640/408/640
f 641/409/641 642/410/642 643/411/643
f 644/407/644 645/412/645 646/408/646
f 647/413/647 643/411/643 642/410/642
usemtl tex_2341_lit
f 648/414/648 649/415/649 650/416/650
f 649/415/649 651/417/651 650/416/650
usemtl tex_1988_lit_w01
f 652/388/652 653/389/653 654/68/654
f 653/389/653 655/62/655 654/68/654
f 656/65/656 653/389/653 657/390/657
f 658/138/658 652/388/652 659/139/659
f 655/62/655 653/389/653 656/65/656
f 658/138/658 660/391/660 652/388/652
f 659/139/659 652/388/652 654/68/654
usemtl tex_1989_lit_w01
f 661/72/661 662/392/662 663/70/663
f 663/70/663 662/392/662 664/393/664
f 663/70/663 664/393/664 665/75/665
f 665/75/665 664/393/664 666/394/666
f 665/75/665 666/394/666 667/142/667
f 668/142/668 669/394/669 670/145/670
f 670/145/670 669/394/669 671/395/671
usemtl tex_1988_lit_w01
f 672/399/672 673/418/673 674/419/674
f 675/400/675 672/399/672 674/419/674
f 676/420/676 677/400/677 678/421/678
usemtl tex_1989_lit_w01
f 679/422/679 680/404/680 681/403/681
f 679/422/679 681/403/681 682/423/682
f 683/424/683 684/406/684 685/425/685
f 683/424/683 686/407/686 684/406/684
f 687/426/687 688/409/688 689/427/689
f 689/427/689 688/409/688 690/411/690
usemtl tex_2341_lit_ovl
f 691/414/691 692/416/692 693/417/693
usemtl tex_2341_lit
f 694/428/694 695/429/695 696/430/696
f 694/428/694 696/430/696 697/431/697
