mtllib CsuitbondZ.mtl
v -1135.8401794433594 -93.529869556427 -78.0 1.000 1.000 1.000
v -1135.8401794433594 -179.529869556427 -72.0 1.000 1.000 1.000
v -1135.8401794433594 -49.529869556427 162.0 1.000 1.000 1.000
v -1135.8401794433594 -174.529869556427 171.0 1.000 1.000 1.000
v -1099.8401794433594 -86.529869556427 148.0 1.000 1.000 1.000
v -1044.8401794433594 -76.529869556427 -4.0 1.000 1.000 1.000
v -1031.8401794433594 -159.529869556427 -52.0 1.000 1.000 1.000
v -1101.8401794433594 -144.529869556427 175.0 1.000 1.000 1.000
v -1033.8401794433594 -111.529869556427 -65.0 1.000 1.000 1.000
v -1031.8401794433594 -154.529869556427 -17.0 1.000 1.000 1.000
v -1032.8401794433594 -149.529869556427 21.0 1.000 1.000 1.000
v -1039.8401794433594 -91.529869556427 -31.0 1.000 1.000 1.000
v -618.3520202636719 -60.037062644958496 50.0 1.000 1.000 1.000
v -1045.3520202636719 -72.0370626449585 44.0 1.000 1.000 1.000
v -1045.3520202636719 -142.0370626449585 59.0 1.000 1.000 1.000
v -623.3520202636719 -42.037062644958496 -16.0 1.000 1.000 1.000
v -635.3520202636719 -92.0370626449585 -85.0 1.000 1.000 1.000
v -1032.3520202636719 -92.0370626449585 -77.0 1.000 1.000 1.000
v -1037.3520202636719 -52.037062644958496 -8.0 1.000 1.000 1.000
v -633.3520202636719 -157.0370626449585 -72.0 1.000 1.000 1.000
v -623.3520202636719 -189.0370626449585 -3.0 1.000 1.000 1.000
v -1026.3520202636719 -148.0370626449585 -75.0 1.000 1.000 1.000
v -618.3520202636719 -127.0370626449585 66.0 1.000 1.000 1.000
v -1036.3520202636719 -193.0370626449585 6.0 1.000 1.000 1.000
v -1032.3520202636719 -92.0370626449585 -77.0 1.000 1.000 1.000
v -1037.3520202636719 -52.037062644958496 -8.0 1.000 1.000 1.000
v -1045.3520202636719 -72.0370626449585 44.0 1.000 1.000 1.000
v -1045.3520202636719 -142.0370626449585 59.0 1.000 1.000 1.000
v -1036.3520202636719 -193.0370626449585 6.0 1.000 1.000 1.000
v -1026.3520202636719 -148.0370626449585 -75.0 1.000 1.000 1.000
v -1039.8401794433594 -91.529869556427 -31.0 1.000 1.000 1.000
v -1044.8401794433594 -76.529869556427 -4.0 1.000 1.000 1.000
v -1032.8401794433594 -149.529869556427 21.0 1.000 1.000 1.000
v -1033.8401794433594 -111.529869556427 -65.0 1.000 1.000 1.000
v -1031.8401794433594 -154.529869556427 -17.0 1.000 1.000 1.000
v -1031.8401794433594 -159.529869556427 -52.0 1.000 1.000 1.000
v -567.3520202636719 -58.037062644958496 49.0 1.000 1.000 1.000
v -556.3520202636719 -40.037062644958496 -9.0 1.000 1.000 1.000
v -554.3520202636719 -93.0370626449585 -74.0 1.000 1.000 1.000
v -554.3520202636719 -157.0370626449585 -77.0 1.000 1.000 1.000
v -546.3520202636719 -192.0370626449585 9.0 1.000 1.000 1.000
v -567.3520202636719 -126.0370626449585 71.0 1.000 1.000 1.000
v -623.3520202636719 -42.037062644958496 -16.0 1.000 1.000 1.000
v -635.3520202636719 -92.0370626449585 -85.0 1.000 1.000 1.000
v -633.3520202636719 -157.0370626449585 -72.0 1.000 1.000 1.000
v -623.3520202636719 -189.0370626449585 -3.0 1.000 1.000 1.000
v -618.3520202636719 -127.0370626449585 66.0 1.000 1.000 1.000
v -618.3520202636719 -60.037062644958496 50.0 1.000 1.000 1.000
v -567.3520202636719 -58.037062644958496 49.0 1.000 1.000 1.000
v -521.3520202636719 -54.037062644958496 50.0 1.000 1.000 1.000
v -556.3520202636719 -40.037062644958496 -9.0 1.000 1.000 1.000
v -520.3520202636719 -126.0370626449585 75.0 1.000 1.000 1.000
v -567.3520202636719 -126.0370626449585 71.0 1.000 1.000 1.000
v -546.3520202636719 -192.0370626449585 9.0 1.000 1.000 1.000
v -1046.3520202636719 -178.0370626449585 65.0 1.000 1.000 1.000
v -573.3520202636719 -138.0370626449585 87.0 1.000 1.000 1.000
v -1046.3520202636719 -61.037062644958496 32.0 1.000 1.000 1.000
v -565.3520202636719 -40.037062644958496 38.0 1.000 1.000 1.000
v -568.3520202636719 -114.0370626449585 -67.0 1.000 1.000 1.000
v -1018.3520202636719 -92.0370626449585 -89.0 1.000 1.000 1.000
v -568.3520202636719 -201.0370626449585 13.0 1.000 1.000 1.000
v -1018.3520202636719 -202.0370626449585 -71.0 1.000 1.000 1.000
v -573.3520202636719 -138.0370626449585 87.0 1.000 1.000 1.000
v -568.3520202636719 -201.0370626449585 13.0 1.000 1.000 1.000
v -461.1913757324219 -193.80105590820312 23.0 1.000 1.000 1.000
v -242.19137573242188 -204.80105590820312 -41.0 1.000 1.000 1.000
v -242.19137573242188 -200.80105590820312 70.0 1.000 1.000 1.000
v -242.19137573242188 -67.80105590820312 -68.0 1.000 1.000 1.000
v -242.19137573242188 -160.80105590820312 -62.0 1.000 1.000 1.000
v -414.1913757324219 -173.80105590820312 -79.0 1.000 1.000 1.000
v -413.1913757324219 -94.80105590820312 -86.0 1.000 1.000 1.000
v -442.1913757324219 -36.801055908203125 -4.0 1.000 1.000 1.000
v -461.1913757324219 -58.801055908203125 53.0 1.000 1.000 1.000
v -439.1913757324219 -126.80105590820312 83.0 1.000 1.000 1.000
v -242.19137573242188 -103.80105590820312 103.0 1.000 1.000 1.000
v -242.19137573242188 -51.801055908203125 5.0 1.000 1.000 1.000
v -242.19137573242188 -152.80105590820312 102.0 1.000 1.000 1.000
v -243.19137573242188 -37.801055908203125 14.0 1.000 1.000 1.000
v -242.19137573242188 -51.801055908203125 5.0 1.000 1.000 1.000
v -242.19137573242188 -75.80105590820312 110.0 1.000 1.000 1.000
v -242.19137573242188 -75.80105590820312 110.0 1.000 1.000 1.000
v -242.19137573242188 -51.801055908203125 5.0 1.000 1.000 1.000
v -242.19137573242188 -103.80105590820312 103.0 1.000 1.000 1.000
v -242.19137573242188 -130.80105590820312 122.0 1.000 1.000 1.000
v -242.19137573242188 -152.80105590820312 102.0 1.000 1.000 1.000
v -242.19137573242188 -205.80105590820312 126.0 1.000 1.000 1.000
v -242.19137573242188 -200.80105590820312 70.0 1.000 1.000 1.000
v -242.19137573242188 -204.80105590820312 -98.0 1.000 1.000 1.000
v -242.19137573242188 -204.80105590820312 -41.0 1.000 1.000 1.000
v -242.19137573242188 -158.80105590820312 -91.0 1.000 1.000 1.000
v -242.19137573242188 -160.80105590820312 -62.0 1.000 1.000 1.000
v -242.19137573242188 -52.801055908203125 -71.0 1.000 1.000 1.000
v -242.19137573242188 -67.80105590820312 -68.0 1.000 1.000 1.000
v -243.19137573242188 -37.801055908203125 14.0 1.000 1.000 1.000
v 3.0 -122.0 124.0 1.000 1.000 1.000
v -157.0 -113.0 20.0 1.000 1.000 1.000
v 3.0 -88.0 -94.0 1.000 1.000 1.000
v -78.0 -120.0 122.0 1.000 1.000 1.000
v -31.0 -88.0 -88.0 1.000 1.000 1.000
v 3.0 -88.0 -94.0 1.000 1.000 1.000
v -105.0 -89.0 -82.0 1.000 1.000 1.000
v -157.0 -113.0 20.0 1.000 1.000 1.000
v -242.19137573242188 -130.80105590820312 122.0 1.000 1.000 1.000
v -242.19137573242188 -205.80105590820312 126.0 1.000 1.000 1.000
v -242.19137573242188 -75.80105590820312 110.0 1.000 1.000 1.000
v -243.19137573242188 -37.801055908203125 14.0 1.000 1.000 1.000
v -242.19137573242188 -204.80105590820312 -98.0 1.000 1.000 1.000
v -242.19137573242188 -158.80105590820312 -91.0 1.000 1.000 1.000
v -242.19137573242188 -204.80105590820312 -98.0 1.000 1.000 1.000
v -242.19137573242188 -52.801055908203125 -71.0 1.000 1.000 1.000
v -157.0 -113.0 20.0 1.000 1.000 1.000
v -105.0 -89.0 -82.0 1.000 1.000 1.000
v -31.0 -88.0 -88.0 1.000 1.000 1.000
v -242.19137573242188 -52.801055908203125 -71.0 1.000 1.000 1.000
v -243.19137573242188 -37.801055908203125 14.0 1.000 1.000 1.000
v -242.19137573242188 -158.80105590820312 -91.0 1.000 1.000 1.000
v -442.1913757324219 -36.801055908203125 -4.0 1.000 1.000 1.000
v -413.1913757324219 -94.80105590820312 -86.0 1.000 1.000 1.000
v -414.1913757324219 -173.80105590820312 -79.0 1.000 1.000 1.000
v -461.1913757324219 -193.80105590820312 23.0 1.000 1.000 1.000
v -439.1913757324219 -126.80105590820312 83.0 1.000 1.000 1.000
v -461.1913757324219 -58.801055908203125 53.0 1.000 1.000 1.000
v -556.3520202636719 -40.037062644958496 -9.0 1.000 1.000 1.000
v -554.3520202636719 -93.0370626449585 -74.0 1.000 1.000 1.000
v -554.3520202636719 -157.0370626449585 -77.0 1.000 1.000 1.000
v -546.3520202636719 -192.0370626449585 9.0 1.000 1.000 1.000
v -520.3520202636719 -126.0370626449585 75.0 1.000 1.000 1.000
v -521.3520202636719 -54.037062644958496 50.0 1.000 1.000 1.000
v -574.1913757324219 -137.80105590820312 87.0 1.000 1.000 1.000
v -210.19137573242188 -197.80105590820312 20.0 1.000 1.000 1.000
v -212.19137573242188 -156.80105590820312 124.0 1.000 1.000 1.000
v -208.19137573242188 -127.80105590820312 -73.0 1.000 1.000 1.000
v -568.1913757324219 -201.80105590820312 13.0 1.000 1.000 1.000
v -568.1913757324219 -114.80105590820312 -67.0 1.000 1.000 1.000
v -565.1913757324219 -39.801055908203125 38.0 1.000 1.000 1.000
v -209.19137573242188 -43.801055908203125 27.0 1.000 1.000 1.000
v -209.19137573242188 -43.801055908203125 27.0 1.000 1.000 1.000
v -212.19137573242188 -156.80105590820312 124.0 1.000 1.000 1.000
v -210.19137573242188 -197.80105590820312 20.0 1.000 1.000 1.000
v -208.19137573242188 -127.80105590820312 -73.0 1.000 1.000 1.000
v -574.1913757324219 -137.80105590820312 87.0 1.000 1.000 1.000
v -568.1913757324219 -201.80105590820312 13.0 1.000 1.000 1.000
v 1145.2718048095703 -44.29352378845215 161.0 1.000 1.000 1.000
v 1145.2718048095703 -177.29352378845215 -71.0 1.000 1.000 1.000
v 1145.2718048095703 -91.29352378845215 -78.0 1.000 1.000 1.000
v 1145.2718048095703 -169.29352378845215 172.0 1.000 1.000 1.000
v 1053.2718048095703 -73.29352378845215 -4.0 1.000 1.000 1.000
v 1109.2718048095703 -85.29352378845215 147.0 1.000 1.000 1.000
v 1111.2718048095703 -139.29352378845215 175.0 1.000 1.000 1.000
v 1041.2718048095703 -156.29352378845215 -51.0 1.000 1.000 1.000
v 1042.2718048095703 -109.29352378845215 -65.0 1.000 1.000 1.000
v 1041.2718048095703 -146.29352378845215 21.0 1.000 1.000 1.000
v 1041.2718048095703 -151.29352378845215 -13.0 1.000 1.000 1.000
v 1047.2718048095703 -92.29352378845215 -37.0 1.000 1.000 1.000
v 1054.455337524414 -138.79014492034912 60.0 1.000 1.000 1.000
v 1054.455337524414 -67.79014492034912 44.0 1.000 1.000 1.000
v 627.4553375244141 -67.79014492034912 50.0 1.000 1.000 1.000
v 1040.455337524414 -87.79014492034912 -78.0 1.000 1.000 1.000
v 644.4553375244141 -88.79014492034912 -85.0 1.000 1.000 1.000
v 632.4553375244141 -40.79014492034912 -16.0 1.000 1.000 1.000
v 1046.455337524414 -41.79014492034912 -8.0 1.000 1.000 1.000
v 1035.455337524414 -145.79014492034912 -76.0 1.000 1.000 1.000
v 632.4553375244141 -183.79014492034912 -3.0 1.000 1.000 1.000
v 642.4553375244141 -153.79014492034912 -72.0 1.000 1.000 1.000
v 628.4553375244141 -125.79014492034912 66.0 1.000 1.000 1.000
v 1045.455337524414 -181.79014492034912 6.0 1.000 1.000 1.000
v 1045.455337524414 -181.79014492034912 6.0 1.000 1.000 1.000
v 1054.455337524414 -138.79014492034912 60.0 1.000 1.000 1.000
v 1054.455337524414 -67.79014492034912 44.0 1.000 1.000 1.000
v 1046.455337524414 -41.79014492034912 -8.0 1.000 1.000 1.000
v 1040.455337524414 -87.79014492034912 -78.0 1.000 1.000 1.000
v 1035.455337524414 -145.79014492034912 -76.0 1.000 1.000 1.000
v 1041.2718048095703 -146.29352378845215 21.0 1.000 1.000 1.000
v 1053.2718048095703 -73.29352378845215 -4.0 1.000 1.000 1.000
v 1047.2718048095703 -92.29352378845215 -37.0 1.000 1.000 1.000
v 1042.2718048095703 -109.29352378845215 -65.0 1.000 1.000 1.000
v 1041.2718048095703 -156.29352378845215 -51.0 1.000 1.000 1.000
v 1041.2718048095703 -151.29352378845215 -13.0 1.000 1.000 1.000
v 565.4553375244141 -38.79014492034912 -9.0 1.000 1.000 1.000
v 563.4553375244141 -89.79014492034912 -74.0 1.000 1.000 1.000
v 563.4553375244141 -156.79014492034912 -77.0 1.000 1.000 1.000
v 557.4553375244141 -187.79014492034912 9.0 1.000 1.000 1.000
v 575.4553375244141 -126.79014492034912 71.0 1.000 1.000 1.000
v 575.4553375244141 -63.79014492034912 49.0 1.000 1.000 1.000
v 632.4553375244141 -40.79014492034912 -16.0 1.000 1.000 1.000
v 627.4553375244141 -67.79014492034912 50.0 1.000 1.000 1.000
v 644.4553375244141 -88.79014492034912 -85.0 1.000 1.000 1.000
v 642.4553375244141 -153.79014492034912 -72.0 1.000 1.000 1.000
v 632.4553375244141 -183.79014492034912 -3.0 1.000 1.000 1.000
v 628.4553375244141 -125.79014492034912 66.0 1.000 1.000 1.000
v 575.4553375244141 -126.79014492034912 71.0 1.000 1.000 1.000
v 530.4553375244141 -126.79014492034912 75.0 1.000 1.000 1.000
v 557.4553375244141 -187.79014492034912 9.0 1.000 1.000 1.000
v 530.4553375244141 -63.79014492034912 50.0 1.000 1.000 1.000
v 575.4553375244141 -63.79014492034912 49.0 1.000 1.000 1.000
v 565.4553375244141 -38.79014492034912 -9.0 1.000 1.000 1.000
v 1055.455337524414 -57.79014492034912 32.0 1.000 1.000 1.000
v 583.4553375244141 -136.79014492034912 87.0 1.000 1.000 1.000
v 1055.455337524414 -178.79014492034912 65.0 1.000 1.000 1.000
v 1028.455337524414 -89.79014492034912 -89.0 1.000 1.000 1.000
v 577.4553375244141 -112.79014492034912 -67.0 1.000 1.000 1.000
v 574.4553375244141 -38.79014492034912 38.0 1.000 1.000 1.000
v 577.4553375244141 -199.79014492034912 13.0 1.000 1.000 1.000
v 1027.455337524414 -201.79014492034912 -71.0 1.000 1.000 1.000
v 577.4553375244141 -199.79014492034912 13.0 1.000 1.000 1.000
v 583.4553375244141 -136.79014492034912 87.0 1.000 1.000 1.000
v 251.10227966308594 -199.39861297607422 70.0 1.000 1.000 1.000
v 251.10227966308594 -203.39861297607422 -41.0 1.000 1.000 1.000
v 471.10227966308594 -192.39861297607422 23.0 1.000 1.000 1.000
v 424.10227966308594 -169.39861297607422 -79.0 1.000 1.000 1.000
v 251.10227966308594 -159.39861297607422 -62.0 1.000 1.000 1.000
v 251.10227966308594 -66.39861297607422 -68.0 1.000 1.000 1.000
v 452.10227966308594 -40.39861297607422 -4.0 1.000 1.000 1.000
v 422.10227966308594 -90.39861297607422 -86.0 1.000 1.000 1.000
v 251.10227966308594 -102.39861297607422 103.0 1.000 1.000 1.000
v 449.10227966308594 -122.39861297607422 83.0 1.000 1.000 1.000
v 470.10227966308594 -64.39861297607422 53.0 1.000 1.000 1.000
v 251.10227966308594 -50.39861297607422 5.0 1.000 1.000 1.000
v 251.10227966308594 -151.39861297607422 102.0 1.000 1.000 1.000
v 251.10227966308594 -72.39861297607422 110.0 1.000 1.000 1.000
v 251.10227966308594 -102.39861297607422 103.0 1.000 1.000 1.000
v 252.10227966308594 -35.39861297607422 14.0 1.000 1.000 1.000
v 252.10227966308594 -35.39861297607422 14.0 1.000 1.000 1.000
v 251.10227966308594 -102.39861297607422 103.0 1.000 1.000 1.000
v 251.10227966308594 -50.39861297607422 5.0 1.000 1.000 1.000
v 252.10227966308594 -50.39861297607422 -71.0 1.000 1.000 1.000
v 251.10227966308594 -66.39861297607422 -68.0 1.000 1.000 1.000
v 252.10227966308594 -155.39861297607422 -91.0 1.000 1.000 1.000
v 251.10227966308594 -159.39861297607422 -62.0 1.000 1.000 1.000
v 252.10227966308594 -203.39861297607422 -98.0 1.000 1.000 1.000
v 251.10227966308594 -203.39861297607422 -41.0 1.000 1.000 1.000
v 251.10227966308594 -203.39861297607422 126.0 1.000 1.000 1.000
v 251.10227966308594 -199.39861297607422 70.0 1.000 1.000 1.000
v 251.10227966308594 -127.39861297607422 122.0 1.000 1.000 1.000
v 251.10227966308594 -151.39861297607422 102.0 1.000 1.000 1.000
v 251.10227966308594 -72.39861297607422 110.0 1.000 1.000 1.000
v 3.0 -122.0 124.0 1.000 1.000 1.000
v 167.0 -109.0 22.0 1.000 1.000 1.000
v 3.0 -88.0 -94.0 1.000 1.000 1.000
v 83.0 -117.0 125.0 1.000 1.000 1.000
v 3.0 -88.0 -94.0 1.000 1.000 1.000
v 49.0 -87.0 -88.0 1.000 1.000 1.000
v 108.0 -87.0 -86.0 1.000 1.000 1.000
v 167.0 -109.0 22.0 1.000 1.000 1.000
v 251.10227966308594 -203.39861297607422 126.0 1.000 1.000 1.000
v 251.10227966308594 -127.39861297607422 122.0 1.000 1.000 1.000
v 252.10227966308594 -35.39861297607422 14.0 1.000 1.000 1.000
v 251.10227966308594 -72.39861297607422 110.0 1.000 1.000 1.000
v 252.10227966308594 -203.39861297607422 -98.0 1.000 1.000 1.000
v 252.10227966308594 -155.39861297607422 -91.0 1.000 1.000 1.000
v 252.10227966308594 -203.39861297607422 -98.0 1.000 1.000 1.000
v 252.10227966308594 -50.39861297607422 -71.0 1.000 1.000 1.000
v 167.0 -109.0 22.0 1.000 1.000 1.000
v 49.0 -87.0 -88.0 1.000 1.000 1.000
v 108.0 -87.0 -86.0 1.000 1.000 1.000
v 252.10227966308594 -35.39861297607422 14.0 1.000 1.000 1.000
v 252.10227966308594 -50.39861297607422 -71.0 1.000 1.000 1.000
v 252.10227966308594 -155.39861297607422 -91.0 1.000 1.000 1.000
v 452.10227966308594 -40.39861297607422 -4.0 1.000 1.000 1.000
v 422.10227966308594 -90.39861297607422 -86.0 1.000 1.000 1.000
v 424.10227966308594 -169.39861297607422 -79.0 1.000 1.000 1.000
v 471.10227966308594 -192.39861297607422 23.0 1.000 1.000 1.000
v 449.10227966308594 -122.39861297607422 83.0 1.000 1.000 1.000
v 470.10227966308594 -64.39861297607422 53.0 1.000 1.000 1.000
v 563.4553375244141 -89.79014492034912 -74.0 1.000 1.000 1.000
v 565.4553375244141 -38.79014492034912 -9.0 1.000 1.000 1.000
v 563.4553375244141 -156.79014492034912 -77.0 1.000 1.000 1.000
v 557.4553375244141 -187.79014492034912 9.0 1.000 1.000 1.000
v 530.4553375244141 -126.79014492034912 75.0 1.000 1.000 1.000
v 530.4553375244141 -63.79014492034912 50.0 1.000 1.000 1.000
v 221.10227966308594 -155.39861297607422 124.0 1.000 1.000 1.000
v 219.10227966308594 -196.39861297607422 20.0 1.000 1.000 1.000
v 583.1022796630859 -137.39861297607422 87.0 1.000 1.000 1.000
v 578.1022796630859 -200.39861297607422 13.0 1.000 1.000 1.000
v 218.10227966308594 -126.39861297607422 -73.0 1.000 1.000 1.000
v 218.10227966308594 -42.39861297607422 27.0 1.000 1.000 1.000
v 574.1022796630859 -38.39861297607422 38.0 1.000 1.000 1.000
v 577.1022796630859 -113.39861297607422 -67.0 1.000 1.000 1.000
v 218.10227966308594 -126.39861297607422 -73.0 1.000 1.000 1.000
v 219.10227966308594 -196.39861297607422 20.0 1.000 1.000 1.000
v 221.10227966308594 -155.39861297607422 124.0 1.000 1.000 1.000
v 218.10227966308594 -42.39861297607422 27.0 1.000 1.000 1.000
v 578.1022796630859 -200.39861297607422 13.0 1.000 1.000 1.000
v 583.1022796630859 -137.39861297607422 87.0 1.000 1.000 1.000
v -186.6515655517578 424.17874705791473 0.0 1.000 1.000 1.000
v -237.6515655517578 362.17874705791473 66.0 1.000 1.000 1.000
v -288.6515655517578 423.17874705791473 0.0 1.000 1.000 1.000
v -288.6515655517578 423.17874705791473 0.0 1.000 1.000 1.000
v 42.334922075271606 483.8643493652344 9.0 1.000 1.000 1.000
v 32.334922075271606 462.8643493652344 27.0 1.000 1.000 1.000
v -0.6650779247283936 429.8643493652344 65.0 1.000 1.000 1.000
v -20.665077924728394 440.8643493652344 51.0 1.000 1.000 1.000
v 18.334922075271606 440.8643493652344 49.0 1.000 1.000 1.000
v 27.334922075271606 450.8643493652344 40.0 1.000 1.000 1.000
v -37.665077924728394 462.8643493652344 27.0 1.000 1.000 1.000
v -44.665077924728394 483.8643493652344 9.0 1.000 1.000 1.000
v -29.665077924728394 450.8643493652344 40.0 1.000 1.000 1.000
v -44.665077924728394 483.8643493652344 9.0 1.000 1.000 1.000
v -43.665077924728394 479.8643493652344 -2.0 1.000 1.000 1.000
v -184.6515655517578 414.17874705791473 -52.0 1.000 1.000 1.000
v -289.6515655517578 414.17874705791473 -52.0 1.000 1.000 1.000
v -186.6515655517578 424.17874705791473 0.0 1.000 1.000 1.000
v -288.6515655517578 423.17874705791473 0.0 1.000 1.000 1.000
v 24.334922075271606 468.8643493652344 -37.0 1.000 1.000 1.000
v 41.334922075271606 479.8643493652344 -2.0 1.000 1.000 1.000
v -28.665077924728394 468.8643493652344 -36.0 1.000 1.000 1.000
v 42.334922075271606 483.8643493652344 9.0 1.000 1.000 1.000
v -43.665077924728394 479.8643493652344 -2.0 1.000 1.000 1.000
v -726.4680905342102 357.5415552854538 58.0 1.000 1.000 1.000
v -690.4680905342102 411.5415552854538 -29.0 1.000 1.000 1.000
v -713.4680905342102 363.5415552854538 -46.0 1.000 1.000 1.000
v -703.4680905342102 437.5415552854538 54.0 1.000 1.000 1.000
v -690.4680905342102 411.5415552854538 -29.0 1.000 1.000 1.000
v -703.4680905342102 437.5415552854538 54.0 1.000 1.000 1.000
v -605.4680905342102 415.5415552854538 8.0 1.000 1.000 1.000
v -606.4680905342102 410.5415552854538 44.0 1.000 1.000 1.000
v -605.4680905342102 397.5415552854538 -29.0 1.000 1.000 1.000
v -606.4680905342102 410.5415552854538 44.0 1.000 1.000 1.000
v -726.4680905342102 357.5415552854538 58.0 1.000 1.000 1.000
v -610.4680905342102 354.5415552854538 40.0 1.000 1.000 1.000
v -703.4680905342102 437.5415552854538 54.0 1.000 1.000 1.000
v -613.4680905342102 358.5415552854538 9.0 1.000 1.000 1.000
v -610.4680905342102 354.5415552854538 40.0 1.000 1.000 1.000
v -726.4680905342102 357.5415552854538 58.0 1.000 1.000 1.000
v -713.4680905342102 363.5415552854538 -46.0 1.000 1.000 1.000
v -608.4680905342102 362.5415552854538 -24.0 1.000 1.000 1.000
v -613.4680905342102 358.5415552854538 9.0 1.000 1.000 1.000
v -726.4680905342102 357.5415552854538 58.0 1.000 1.000 1.000
v -605.4680905342102 397.5415552854538 -29.0 1.000 1.000 1.000
v -713.4680905342102 363.5415552854538 -46.0 1.000 1.000 1.000
v -690.4680905342102 411.5415552854538 -29.0 1.000 1.000 1.000
v -608.4680905342102 362.5415552854538 -24.0 1.000 1.000 1.000
v -606.8165249824524 422.36280822753906 50.0 1.000 1.000 1.000
v -439.8165249824524 381.36280822753906 61.0 1.000 1.000 1.000
v -440.8165249824524 423.36280822753906 52.0 1.000 1.000 1.000
v -607.8165249824524 409.36280822753906 -34.0 1.000 1.000 1.000
v -605.8165249824524 433.36280822753906 17.0 1.000 1.000 1.000
v -440.8165249824524 428.36280822753906 5.0 1.000 1.000 1.000
v -604.8165249824524 362.36280822753906 -41.0 1.000 1.000 1.000
v -441.8165249824524 389.36280822753906 -48.0 1.000 1.000 1.000
v -440.8165249824524 338.36280822753906 -10.0 1.000 1.000 1.000
v -608.8165249824524 351.36280822753906 57.0 1.000 1.000 1.000
v -607.8165249824524 342.36280822753906 14.0 1.000 1.000 1.000
v -440.8165249824524 341.36280822753906 48.0 1.000 1.000 1.000
v -607.8165249824524 342.36280822753906 14.0 1.000 1.000 1.000
v -604.8165249824524 362.36280822753906 -41.0 1.000 1.000 1.000
v -607.8165249824524 409.36280822753906 -34.0 1.000 1.000 1.000
v -605.8165249824524 433.36280822753906 17.0 1.000 1.000 1.000
v -606.8165249824524 422.36280822753906 50.0 1.000 1.000 1.000
v -608.8165249824524 351.36280822753906 57.0 1.000 1.000 1.000
v -613.4680905342102 358.5415552854538 9.0 1.000 1.000 1.000
v -608.4680905342102 362.5415552854538 -24.0 1.000 1.000 1.000
v -605.4680905342102 397.5415552854538 -29.0 1.000 1.000 1.000
v -605.4680905342102 415.5415552854538 8.0 1.000 1.000 1.000
v -606.4680905342102 410.5415552854538 44.0 1.000 1.000 1.000
v -610.4680905342102 354.5415552854538 40.0 1.000 1.000 1.000
v -371.8165249824524 424.36280822753906 6.0 1.000 1.000 1.000
v -372.8165249824524 389.36280822753906 -48.0 1.000 1.000 1.000
v -372.8165249824524 334.36280822753906 -10.0 1.000 1.000 1.000
v -371.8165249824524 341.36280822753906 53.0 1.000 1.000 1.000
v -370.8165249824524 381.36280822753906 61.0 1.000 1.000 1.000
v -371.8165249824524 421.36280822753906 51.0 1.000 1.000 1.000
v -440.8165249824524 428.36280822753906 5.0 1.000 1.000 1.000
v -441.8165249824524 389.36280822753906 -48.0 1.000 1.000 1.000
v -440.8165249824524 338.36280822753906 -10.0 1.000 1.000 1.000
v -440.8165249824524 341.36280822753906 48.0 1.000 1.000 1.000
v -439.8165249824524 381.36280822753906 61.0 1.000 1.000 1.000
v -440.8165249824524 423.36280822753906 52.0 1.000 1.000 1.000
v -381.8165249824524 327.36280822753906 85.0 1.000 1.000 1.000
v -387.8165249824524 428.36280822753906 89.0 1.000 1.000 1.000
v -657.8165249824524 356.36280822753906 42.0 1.000 1.000 1.000
v -657.8165249824524 362.36280822753906 -25.0 1.000 1.000 1.000
v -380.8165249824524 324.36280822753906 -28.0 1.000 1.000 1.000
v -659.8165249824524 419.36280822753906 42.0 1.000 1.000 1.000
v -387.8165249824524 441.36280822753906 -49.0 1.000 1.000 1.000
v -659.8165249824524 403.36280822753906 -27.0 1.000 1.000 1.000
v -290.35447359085083 343.48233795166016 62.0 1.000 1.000 1.000
v -212.35447359085083 322.48233795166016 -16.0 1.000 1.000 1.000
v -202.35447359085083 327.48233795166016 69.0 1.000 1.000 1.000
v -139.35447359085083 383.48233795166016 73.0 1.000 1.000 1.000
v -291.35447359085083 379.48233795166016 65.0 1.000 1.000 1.000
v -291.35447359085083 388.48233795166016 -49.0 1.000 1.000 1.000
v -88.35447359085083 411.48233795166016 11.0 1.000 1.000 1.000
v -124.35447359085083 376.48233795166016 -56.0 1.000 1.000 1.000
v -290.35447359085083 328.48233795166016 -11.0 1.000 1.000 1.000
v -289.35447359085083 414.48233795166016 57.0 1.000 1.000 1.000
v -279.35447359085083 418.48233795166016 7.0 1.000 1.000 1.000
v -407.6515655517578 238.17874705791473 71.0 1.000 1.000 1.000
v -406.6515655517578 226.17874705791473 -20.0 1.000 1.000 1.000
v -413.6515655517578 362.17874705791473 -53.0 1.000 1.000 1.000
v -411.6515655517578 381.17874705791473 29.0 1.000 1.000 1.000
v -413.6515655517578 340.17874705791473 79.0 1.000 1.000 1.000
v -212.35447359085083 322.48233795166016 -16.0 1.000 1.000 1.000
v -202.35447359085083 327.48233795166016 69.0 1.000 1.000 1.000
v -124.35447359085083 376.48233795166016 -56.0 1.000 1.000 1.000
v -88.35447359085083 411.48233795166016 11.0 1.000 1.000 1.000
v -139.35447359085083 383.48233795166016 73.0 1.000 1.000 1.000
v -279.35447359085083 418.48233795166016 7.0 1.000 1.000 1.000
v -291.35447359085083 388.48233795166016 -49.0 1.000 1.000 1.000
v -290.35447359085083 328.48233795166016 -11.0 1.000 1.000 1.000
v -290.35447359085083 343.48233795166016 62.0 1.000 1.000 1.000
v -291.35447359085083 379.48233795166016 65.0 1.000 1.000 1.000
v -289.35447359085083 414.48233795166016 57.0 1.000 1.000 1.000
v -371.8165249824524 424.36280822753906 6.0 1.000 1.000 1.000
v -372.8165249824524 389.36280822753906 -48.0 1.000 1.000 1.000
v -372.8165249824524 334.36280822753906 -10.0 1.000 1.000 1.000
v -371.8165249824524 341.36280822753906 53.0 1.000 1.000 1.000
v -370.8165249824524 381.36280822753906 61.0 1.000 1.000 1.000
v -371.8165249824524 421.36280822753906 51.0 1.000 1.000 1.000
v -136.35447359085083 416.48233795166016 68.0 1.000 1.000 1.000
v -73.35447359085083 319.48233795166016 66.0 1.000 1.000 1.000
v -47.35447359085083 315.48233795166016 -45.0 1.000 1.000 1.000
v -132.35447359085083 429.48233795166016 -33.0 1.000 1.000 1.000
v -381.35447359085083 327.48233795166016 85.0 1.000 1.000 1.000
v -47.35447359085083 315.48233795166016 -45.0 1.000 1.000 1.000
v -73.35447359085083 319.48233795166016 66.0 1.000 1.000 1.000
v -387.35447359085083 428.48233795166016 89.0 1.000 1.000 1.000
v -387.35447359085083 441.48233795166016 -49.0 1.000 1.000 1.000
v -381.35447359085083 324.48233795166016 -28.0 1.000 1.000 1.000
v 342.7559509277344 -24.7795539945364 -45.345776081085205 1.000 1.000 1.000
v 318.7559509277344 23.2204460054636 -28.345776081085205 1.000 1.000 1.000
v 352.7559509277344 -28.7795539945364 59.654223918914795 1.000 1.000 1.000
v 329.7559509277344 50.2204460054636 53.654223918914795 1.000 1.000 1.000
v 233.75595092773438 9.2204460054636 -30.345776081085205 1.000 1.000 1.000
v 232.75595092773438 33.2204460054636 12.654223918914795 1.000 1.000 1.000
v 318.7559509277344 23.2204460054636 -28.345776081085205 1.000 1.000 1.000
v 232.75595092773438 23.2204460054636 42.654223918914795 1.000 1.000 1.000
v 329.7559509277344 50.2204460054636 53.654223918914795 1.000 1.000 1.000
v 236.75595092773438 -31.7795539945364 39.654223918914795 1.000 1.000 1.000
v 352.7559509277344 -28.7795539945364 59.654223918914795 1.000 1.000 1.000
v 232.75595092773438 23.2204460054636 42.654223918914795 1.000 1.000 1.000
v 329.7559509277344 50.2204460054636 53.654223918914795 1.000 1.000 1.000
v 236.75595092773438 -28.7795539945364 5.654223918914795 1.000 1.000 1.000
v 236.75595092773438 -25.7795539945364 -25.345776081085205 1.000 1.000 1.000
v 342.7559509277344 -24.7795539945364 -45.345776081085205 1.000 1.000 1.000
v 352.7559509277344 -28.7795539945364 59.654223918914795 1.000 1.000 1.000
v 236.75595092773438 -31.7795539945364 39.654223918914795 1.000 1.000 1.000
v 236.75595092773438 -28.7795539945364 5.654223918914795 1.000 1.000 1.000
v 342.7559509277344 -24.7795539945364 -45.345776081085205 1.000 1.000 1.000
v 318.7559509277344 23.2204460054636 -28.345776081085205 1.000 1.000 1.000
v 342.7559509277344 -24.7795539945364 -45.345776081085205 1.000 1.000 1.000
v 233.75595092773438 9.2204460054636 -30.345776081085205 1.000 1.000 1.000
v 236.75595092773438 -25.7795539945364 -25.345776081085205 1.000 1.000 1.000
v 446.6772036552429 409.1795539855957 55.39629793167114 1.000 1.000 1.000
v 445.6772036552429 368.1795539855957 64.39629793167114 1.000 1.000 1.000
v 612.6772036552429 393.1795539855957 66.39629793167114 1.000 1.000 1.000
v 447.6772036552429 413.1795539855957 8.396297931671143 1.000 1.000 1.000
v 612.6772036552429 419.1795539855957 22.396297931671143 1.000 1.000 1.000
v 615.6772036552429 394.1795539855957 -27.603702068328857 1.000 1.000 1.000
v 447.6772036552429 331.1795539855957 -5.603702068328857 1.000 1.000 1.000
v 449.6772036552429 373.1795539855957 -44.60370206832886 1.000 1.000 1.000
v 612.6772036552429 347.1795539855957 -34.60370206832886 1.000 1.000 1.000
v 614.6772036552429 337.1795539855957 64.39629793167114 1.000 1.000 1.000
v 446.6772036552429 325.1795539855957 52.39629793167114 1.000 1.000 1.000
v 614.6772036552429 328.1795539855957 21.396297931671143 1.000 1.000 1.000
v 614.6772036552429 328.1795539855957 21.396297931671143 1.000 1.000 1.000
v 614.6772036552429 337.1795539855957 64.39629793167114 1.000 1.000 1.000
v 612.6772036552429 393.1795539855957 66.39629793167114 1.000 1.000 1.000
v 612.6772036552429 419.1795539855957 22.396297931671143 1.000 1.000 1.000
v 615.6772036552429 394.1795539855957 -27.603702068328857 1.000 1.000 1.000
v 612.6772036552429 347.1795539855957 -34.60370206832886 1.000 1.000 1.000
v 236.75595092773438 -28.7795539945364 5.654223918914795 1.000 1.000 1.000
v 236.75595092773438 -25.7795539945364 -25.345776081085205 1.000 1.000 1.000
v 236.75595092773438 -31.7795539945364 39.654223918914795 1.000 1.000 1.000
v 232.75595092773438 23.2204460054636 42.654223918914795 1.000 1.000 1.000
v 232.75595092773438 33.2204460054636 12.654223918914795 1.000 1.000 1.000
v 233.75595092773438 9.2204460054636 -30.345776081085205 1.000 1.000 1.000
v 375.6772036552429 325.1795539855957 -6.603702068328857 1.000 1.000 1.000
v 381.6772036552429 373.1795539855957 -45.60370206832886 1.000 1.000 1.000
v 378.6772036552429 410.1795539855957 7.396297931671143 1.000 1.000 1.000
v 378.6772036552429 407.1795539855957 53.39629793167114 1.000 1.000 1.000
v 377.6772036552429 368.1795539855957 63.39629793167114 1.000 1.000 1.000
v 377.6772036552429 319.1795539855957 56.39629793167114 1.000 1.000 1.000
v 447.6772036552429 331.1795539855957 -5.603702068328857 1.000 1.000 1.000
v 449.6772036552429 373.1795539855957 -44.60370206832886 1.000 1.000 1.000
v 447.6772036552429 413.1795539855957 8.396297931671143 1.000 1.000 1.000
v 446.6772036552429 409.1795539855957 55.39629793167114 1.000 1.000 1.000
v 445.6772036552429 368.1795539855957 64.39629793167114 1.000 1.000 1.000
v 446.6772036552429 325.1795539855957 52.39629793167114 1.000 1.000 1.000
v 663.6772036552429 346.1795539855957 49.39629793167114 1.000 1.000 1.000
v 392.6772036552429 419.1795539855957 91.39629793167114 1.000 1.000 1.000
v 386.6772036552429 318.1795539855957 88.39629793167114 1.000 1.000 1.000
v 388.6772036552429 313.1795539855957 -24.603702068328857 1.000 1.000 1.000
v 664.6772036552429 351.1795539855957 -17.603702068328857 1.000 1.000 1.000
v 394.6772036552429 429.1795539855957 -47.60370206832886 1.000 1.000 1.000
v 666.6772036552429 409.1795539855957 48.39629793167114 1.000 1.000 1.000
v 666.6772036552429 391.1795539855957 -19.603702068328857 1.000 1.000 1.000
v 208.08998441696167 313.49356842041016 70.0 1.000 1.000 1.000
v 219.08998441696167 308.49356842041016 -16.0 1.000 1.000 1.000
v 296.08998441696167 329.49356842041016 64.0 1.000 1.000 1.000
v 298.08998441696167 365.49356842041016 67.0 1.000 1.000 1.000
v 145.08998441696167 370.49356842041016 71.0 1.000 1.000 1.000
v 133.08998441696167 361.49356842041016 -58.0 1.000 1.000 1.000
v 96.08998441696167 396.49356842041016 8.0 1.000 1.000 1.000
v 300.08998441696167 372.49356842041016 -48.0 1.000 1.000 1.000
v 297.08998441696167 313.49356842041016 -9.0 1.000 1.000 1.000
v 296.08998441696167 400.49356842041016 58.0 1.000 1.000 1.000
v 286.08998441696167 403.49356842041016 7.0 1.000 1.000 1.000
v -66.65156555175781 239.17874705791473 70.0 1.000 1.000 1.000
v -68.65156555175781 228.17874705791473 -17.0 1.000 1.000 1.000
v -64.65156555175781 361.17874705791473 -51.0 1.000 1.000 1.000
v -64.65156555175781 384.17874705791473 27.0 1.000 1.000 1.000
v -65.65156555175781 341.17874705791473 79.0 1.000 1.000 1.000
v 208.08998441696167 313.49356842041016 70.0 1.000 1.000 1.000
v 219.08998441696167 308.49356842041016 -16.0 1.000 1.000 1.000
v 133.08998441696167 361.49356842041016 -58.0 1.000 1.000 1.000
v 96.08998441696167 396.49356842041016 8.0 1.000 1.000 1.000
v 145.08998441696167 370.49356842041016 71.0 1.000 1.000 1.000
v 286.08998441696167 403.49356842041016 7.0 1.000 1.000 1.000
v 300.08998441696167 372.49356842041016 -48.0 1.000 1.000 1.000
v 297.08998441696167 313.49356842041016 -9.0 1.000 1.000 1.000
v 296.08998441696167 329.49356842041016 64.0 1.000 1.000 1.000
v 298.08998441696167 365.49356842041016 67.0 1.000 1.000 1.000
v 296.08998441696167 400.49356842041016 58.0 1.000 1.000 1.000
v 381.6772036552429 373.1795539855957 -45.60370206832886 1.000 1.000 1.000
v 378.6772036552429 410.1795539855957 7.396297931671143 1.000 1.000 1.000
v 375.6772036552429 325.1795539855957 -6.603702068328857 1.000 1.000 1.000
v 377.6772036552429 319.1795539855957 56.39629793167114 1.000 1.000 1.000
v 377.6772036552429 368.1795539855957 63.39629793167114 1.000 1.000 1.000
v 378.6772036552429 407.1795539855957 53.39629793167114 1.000 1.000 1.000
v 78.08998441696167 310.49356842041016 64.0 1.000 1.000 1.000
v 55.08998441696167 304.49356842041016 -47.0 1.000 1.000 1.000
v 387.08998441696167 318.49356842041016 89.0 1.000 1.000 1.000
v 393.08998441696167 419.49356842041016 91.0 1.000 1.000 1.000
v 142.08998441696167 406.49356842041016 66.0 1.000 1.000 1.000
v 139.08998441696167 417.49356842041016 -35.0 1.000 1.000 1.000
v 395.08998441696167 429.49356842041016 -47.0 1.000 1.000 1.000
v 388.08998441696167 313.49356842041016 -25.0 1.000 1.000 1.000
v 78.08998441696167 310.49356842041016 64.0 1.000 1.000 1.000
v 55.08998441696167 304.49356842041016 -47.0 1.000 1.000 1.000
v -65.65156555175781 341.17874705791473 79.0 1.000 1.000 1.000
v -236.6515655517578 230.17874705791473 147.0 1.000 1.000 1.000
v -109.65156555175781 217.17874705791473 133.0 1.000 1.000 1.000
v -366.6515655517578 217.17874705791473 134.0 1.000 1.000 1.000
v -384.6515655517578 81.17874705791473 21.0 1.000 1.000 1.000
v -309.6515655517578 90.17874705791473 125.0 1.000 1.000 1.000
v -237.6515655517578 362.17874705791473 66.0 1.000 1.000 1.000
v -288.6515655517578 423.17874705791473 0.0 1.000 1.000 1.000
v -283.6515655517578 370.17874705791473 81.0 1.000 1.000 1.000
v -236.6515655517578 90.17874705791473 137.0 1.000 1.000 1.000
v -159.6515655517578 90.17874705791473 125.0 1.000 1.000 1.000
v -66.65156555175781 239.17874705791473 70.0 1.000 1.000 1.000
v -81.65156555175781 80.17874705791473 22.0 1.000 1.000 1.000
v -413.6515655517578 340.17874705791473 79.0 1.000 1.000 1.000
v -407.6515655517578 238.17874705791473 71.0 1.000 1.000 1.000
v -68.65156555175781 228.17874705791473 -17.0 1.000 1.000 1.000
v -411.6515655517578 381.17874705791473 29.0 1.000 1.000 1.000
v -413.6515655517578 340.17874705791473 79.0 1.000 1.000 1.000
v -283.6515655517578 370.17874705791473 81.0 1.000 1.000 1.000
v -237.6515655517578 362.17874705791473 66.0 1.000 1.000 1.000
v -236.6515655517578 230.17874705791473 147.0 1.000 1.000 1.000
v -366.6515655517578 217.17874705791473 134.0 1.000 1.000 1.000
v -65.65156555175781 341.17874705791473 79.0 1.000 1.000 1.000
v -190.6515655517578 371.17874705791473 81.0 1.000 1.000 1.000
v -64.65156555175781 384.17874705791473 27.0 1.000 1.000 1.000
v -288.6515655517578 423.17874705791473 0.0 1.000 1.000 1.000
v -186.6515655517578 424.17874705791473 0.0 1.000 1.000 1.000
v -406.6515655517578 226.17874705791473 -20.0 1.000 1.000 1.000
v -384.6515655517578 81.17874705791473 21.0 1.000 1.000 1.000
v -407.6515655517578 238.17874705791473 71.0 1.000 1.000 1.000
v -303.6515655517578 221.17874705791473 -99.0 1.000 1.000 1.000
v -299.6515655517578 85.17874705791473 -69.0 1.000 1.000 1.000
v -348.6515655517578 84.17874705791473 -58.0 1.000 1.000 1.000
v -169.6515655517578 221.17874705791473 -100.0 1.000 1.000 1.000
v -283.6515655517578 355.17874705791473 -81.0 1.000 1.000 1.000
v -64.65156555175781 384.17874705791473 27.0 1.000 1.000 1.000
v -184.6515655517578 414.17874705791473 -52.0 1.000 1.000 1.000
v -186.6515655517578 424.17874705791473 0.0 1.000 1.000 1.000
v -406.6515655517578 226.17874705791473 -20.0 1.000 1.000 1.000
v -413.6515655517578 362.17874705791473 -53.0 1.000 1.000 1.000
v -235.6515655517578 88.17874705791473 -71.0 1.000 1.000 1.000
v -64.65156555175781 361.17874705791473 -51.0 1.000 1.000 1.000
v -190.6515655517578 356.17874705791473 -82.0 1.000 1.000 1.000
v -173.6515655517578 85.17874705791473 -71.0 1.000 1.000 1.000
v -288.6515655517578 423.17874705791473 0.0 1.000 1.000 1.000
v -289.6515655517578 414.17874705791473 -52.0 1.000 1.000 1.000
v -411.6515655517578 381.17874705791473 29.0 1.000 1.000 1.000
v -413.6515655517578 362.17874705791473 -53.0 1.000 1.000 1.000
v -169.6515655517578 221.17874705791473 -100.0 1.000 1.000 1.000
v -68.65156555175781 228.17874705791473 -17.0 1.000 1.000 1.000
v -128.6515655517578 85.17874705791473 -60.0 1.000 1.000 1.000
v -190.6515655517578 356.17874705791473 -82.0 1.000 1.000 1.000
v -283.6515655517578 355.17874705791473 -81.0 1.000 1.000 1.000
v -184.6515655517578 414.17874705791473 -52.0 1.000 1.000 1.000
v -64.65156555175781 384.17874705791473 27.0 1.000 1.000 1.000
v -64.65156555175781 361.17874705791473 -51.0 1.000 1.000 1.000
v -173.6515655517578 85.17874705791473 -71.0 1.000 1.000 1.000
v -348.6515655517578 84.17874705791473 -58.0 1.000 1.000 1.000
v -384.6515655517578 81.17874705791473 21.0 1.000 1.000 1.000
v -406.6515655517578 226.17874705791473 -20.0 1.000 1.000 1.000
v -128.6515655517578 85.17874705791473 -60.0 1.000 1.000 1.000
v -68.65156555175781 228.17874705791473 -17.0 1.000 1.000 1.000
v -81.65156555175781 80.17874705791473 22.0 1.000 1.000 1.000
v -184.6515655517578 414.17874705791473 -52.0 1.000 1.000 1.000
v -64.65156555175781 361.17874705791473 -51.0 1.000 1.000 1.000
v -190.6515655517578 356.17874705791473 -82.0 1.000 1.000 1.000
v -283.6515655517578 355.17874705791473 -81.0 1.000 1.000 1.000
v -303.6515655517578 221.17874705791473 -99.0 1.000 1.000 1.000
v -413.6515655517578 362.17874705791473 -53.0 1.000 1.000 1.000
v -169.6515655517578 221.17874705791473 -100.0 1.000 1.000 1.000
v -235.6515655517578 88.17874705791473 -71.0 1.000 1.000 1.000
v 157.13081693649292 76.87335968017578 23.0 1.000 1.000 1.000
v 81.13081693649292 69.87335968017578 122.0 1.000 1.000 1.000
v 2.13081693649292 64.87335968017578 128.0 1.000 1.000 1.000
v -72.86918306350708 66.87335968017578 119.0 1.000 1.000 1.000
v -143.86918306350708 73.87335968017578 21.0 1.000 1.000 1.000
v -143.86918306350708 73.87335968017578 21.0 1.000 1.000 1.000
v -97.86918306350708 80.87335968017578 -62.0 1.000 1.000 1.000
v -27.86918306350708 81.87335968017578 -68.0 1.000 1.000 1.000
v -81.65156555175781 80.17874705791473 22.0 1.000 1.000 1.000
v -159.6515655517578 90.17874705791473 125.0 1.000 1.000 1.000
v -236.6515655517578 90.17874705791473 137.0 1.000 1.000 1.000
v -309.6515655517578 90.17874705791473 125.0 1.000 1.000 1.000
v -384.6515655517578 81.17874705791473 21.0 1.000 1.000 1.000
v -384.6515655517578 81.17874705791473 21.0 1.000 1.000 1.000
v -348.6515655517578 84.17874705791473 -58.0 1.000 1.000 1.000
v -299.6515655517578 85.17874705791473 -69.0 1.000 1.000 1.000
v -27.86918306350708 81.87335968017578 -68.0 1.000 1.000 1.000
v 4.13081693649292 81.87335968017578 -67.0 1.000 1.000 1.000
v 49.13081693649292 81.87335968017578 -68.0 1.000 1.000 1.000
v 102.13081693649292 81.87335968017578 -65.0 1.000 1.000 1.000
v 157.13081693649292 76.87335968017578 23.0 1.000 1.000 1.000
v -299.6515655517578 85.17874705791473 -69.0 1.000 1.000 1.000
v -235.6515655517578 88.17874705791473 -71.0 1.000 1.000 1.000
v -173.6515655517578 85.17874705791473 -71.0 1.000 1.000 1.000
v -128.6515655517578 85.17874705791473 -60.0 1.000 1.000 1.000
v -81.65156555175781 80.17874705791473 22.0 1.000 1.000 1.000
v -46.65156555175781 360.17874705791473 148.0 1.000 1.000 1.000
v -444.6515655517578 397.17874705791473 -72.0 1.000 1.000 1.000
v -424.6515655517578 356.17874705791473 147.0 1.000 1.000 1.000
v -46.65156555175781 360.17874705791473 148.0 1.000 1.000 1.000
v -367.6515655517578 -24.821252942085266 141.0 1.000 1.000 1.000
v -101.65156555175781 -24.821252942085266 141.0 1.000 1.000 1.000
v -25.651565551757812 399.17874705791473 -70.0 1.000 1.000 1.000
v -378.6515655517578 -29.821252942085266 -35.0 1.000 1.000 1.000
v -367.6515655517578 -24.821252942085266 141.0 1.000 1.000 1.000
v -444.6515655517578 397.17874705791473 -72.0 1.000 1.000 1.000
v -98.65156555175781 -28.821252942085266 -37.0 1.000 1.000 1.000
v -25.651565551757812 399.17874705791473 -70.0 1.000 1.000 1.000
v -101.65156555175781 -24.821252942085266 141.0 1.000 1.000 1.000
v -424.6515655517578 356.17874705791473 147.0 1.000 1.000 1.000
v -46.65156555175781 360.17874705791473 148.0 1.000 1.000 1.000
v -378.6515655517578 -29.821252942085266 -35.0 1.000 1.000 1.000
v -98.65156555175781 -28.821252942085266 -37.0 1.000 1.000 1.000
v -367.6515655517578 -24.821252942085266 141.0 1.000 1.000 1.000
v -101.65156555175781 -24.821252942085266 141.0 1.000 1.000 1.000
v -25.651565551757812 399.17874705791473 -70.0 1.000 1.000 1.000
v -98.65156555175781 -28.821252942085266 -37.0 1.000 1.000 1.000
v -378.6515655517578 -29.821252942085266 -35.0 1.000 1.000 1.000
v -444.6515655517578 397.17874705791473 -72.0 1.000 1.000 1.000
v 75.0 20.0 122.0 1.000 1.000 1.000
v 83.0 -117.0 125.0 1.000 1.000 1.000
v 167.0 -109.0 22.0 1.000 1.000 1.000
v 3.0 15.0 128.0 1.000 1.000 1.000
v -78.0 -120.0 122.0 1.000 1.000 1.000
v 3.0 -122.0 124.0 1.000 1.000 1.000
v 156.0 27.0 23.0 1.000 1.000 1.000
v -72.0 17.0 119.0 1.000 1.000 1.000
v -145.0 24.0 21.0 1.000 1.000 1.000
v -157.0 -113.0 20.0 1.000 1.000 1.000
v 98.0 33.0 -65.0 1.000 1.000 1.000
v 108.0 -87.0 -86.0 1.000 1.000 1.000
v 49.0 -87.0 -88.0 1.000 1.000 1.000
v 156.0 27.0 23.0 1.000 1.000 1.000
v 167.0 -109.0 22.0 1.000 1.000 1.000
v 44.0 33.0 -68.0 1.000 1.000 1.000
v 3.0 -88.0 -94.0 1.000 1.000 1.000
v 2.0 32.0 -67.0 1.000 1.000 1.000
v 49.0 -87.0 -88.0 1.000 1.000 1.000
v -105.0 -89.0 -82.0 1.000 1.000 1.000
v -157.0 -113.0 20.0 1.000 1.000 1.000
v -145.0 24.0 21.0 1.000 1.000 1.000
v 108.0 -87.0 -86.0 1.000 1.000 1.000
v 98.0 33.0 -65.0 1.000 1.000 1.000
v 167.0 -109.0 22.0 1.000 1.000 1.000
v -31.0 -88.0 -88.0 1.000 1.000 1.000
v -30.0 33.0 -68.0 1.000 1.000 1.000
v -97.0 31.0 -62.0 1.000 1.000 1.000
v 156.0 27.0 23.0 1.000 1.000 1.000
v 75.0 20.0 122.0 1.000 1.000 1.000
v 3.0 15.0 128.0 1.000 1.000 1.000
v -72.0 17.0 119.0 1.000 1.000 1.000
v -145.0 24.0 21.0 1.000 1.000 1.000
v -145.0 24.0 21.0 1.000 1.000 1.000
v -97.0 31.0 -62.0 1.000 1.000 1.000
v -30.0 33.0 -68.0 1.000 1.000 1.000
v 157.13081693649292 76.87335968017578 23.0 1.000 1.000 1.000
v 81.13081693649292 69.87335968017578 122.0 1.000 1.000 1.000
v 2.13081693649292 64.87335968017578 128.0 1.000 1.000 1.000
v -72.86918306350708 66.87335968017578 119.0 1.000 1.000 1.000
v -143.86918306350708 73.87335968017578 21.0 1.000 1.000 1.000
v -143.86918306350708 73.87335968017578 21.0 1.000 1.000 1.000
v -97.86918306350708 80.87335968017578 -62.0 1.000 1.000 1.000
v -27.86918306350708 81.87335968017578 -68.0 1.000 1.000 1.000
v -30.0 33.0 -68.0 1.000 1.000 1.000
v 2.0 32.0 -67.0 1.000 1.000 1.000
v 44.0 33.0 -68.0 1.000 1.000 1.000
v 98.0 33.0 -65.0 1.000 1.000 1.000
v 156.0 27.0 23.0 1.000 1.000 1.000
v -27.86918306350708 81.87335968017578 -68.0 1.000 1.000 1.000
v 4.13081693649292 81.87335968017578 -67.0 1.000 1.000 1.000
v 49.13081693649292 81.87335968017578 -68.0 1.000 1.000 1.000
v 102.13081693649292 81.87335968017578 -65.0 1.000 1.000 1.000
v 157.13081693649292 76.87335968017578 23.0 1.000 1.000 1.000
v -128.0 31.0 141.0 1.000 1.000 1.000
v -152.0 -245.0 132.0 1.000 1.000 1.000
v 159.0 -245.0 143.0 1.000 1.000 1.000
v -139.0 26.0 -35.0 1.000 1.000 1.000
v -188.0 -245.0 -80.0 1.000 1.000 1.000
v 191.0 -247.0 -80.0 1.000 1.000 1.000
v 141.0 27.0 -37.0 1.000 1.000 1.000
v 159.0 -245.0 143.0 1.000 1.000 1.000
v 138.0 31.0 141.0 1.000 1.000 1.000
v 138.0 31.0 141.0 1.000 1.000 1.000
v -139.0 26.0 -35.0 1.000 1.000 1.000
v 138.0 31.0 141.0 1.000 1.000 1.000
v 141.0 27.0 -37.0 1.000 1.000 1.000
v -128.0 31.0 141.0 1.000 1.000 1.000
v 191.0 -247.0 -80.0 1.000 1.000 1.000
v 159.0 -245.0 143.0 1.000 1.000 1.000
v -152.0 -245.0 132.0 1.000 1.000 1.000
v -188.0 -245.0 -80.0 1.000 1.000 1.000
v -188.0 -245.0 -80.0 1.000 1.000 1.000
v -139.0 26.0 -35.0 1.000 1.000 1.000
v 141.0 27.0 -37.0 1.000 1.000 1.000
v 191.0 -247.0 -80.0 1.000 1.000 1.000
vt 0.0130 1.0117
vt 0.0378 1.0098
vt 0.9193 0.9229
vt 0.9551 0.9189
vt 0.8997 0.7041
vt 0.3809 0.4131
vt 0.2109 0.3516
vt 1.0000 0.7061
vt 0.1589 0.3662
vt 0.3411 0.3408
vt 0.4844 0.3291
vt 0.2839 0.3926
vt 0.1562 0.5951
vt 0.2451 0.9857
vt 0.6582 0.9870
vt 0.0508 0.5990
vt 0.3496 0.6113
vt 0.3623 0.9740
vt 0.1299 0.9779
vt 0.7275 0.6107
vt 0.9209 0.6022
vt 0.6943 0.9701
vt 0.5508 0.5970
vt 0.9600 0.9798
vt 0.2979 0.9805
vt 0.2969 0.9883
vt 0.1318 0.9863
vt 0.2324 0.9935
vt 0.2139 0.9948
vt 0.5381 0.9798
vt 0.5068 0.9928
vt 0.3809 0.9811
vt 0.7109 0.9831
vt 0.5605 0.9792
vt 0.5332 0.9733
vt 0.5811 0.9785
vt 0.1445 0.5482
vt 0.0391 0.5378
vt 0.3516 0.5371
vt 0.7266 0.5384
vt 0.9346 0.5326
vt 0.5439 0.5495
vt 0.1182 0.5065
vt 0.5420 0.5072
vt 0.9512 0.9805
vt 0.6123 0.5671
vt 0.1191 0.9609
vt 0.1123 0.5671
vt 0.4902 0.5697
vt 0.2031 0.9805
vt 0.9326 0.5690
vt 0.9395 0.9759
vt 0.9404 0.4544
vt 0.9951 0.2539
vt 0.9717 0.2539
vt 0.1885 0.2513
vt 0.7354 0.2533
vt 0.8232 0.4108
vt 0.3535 0.4082
vt 0.0137 0.4342
vt 0.1455 0.4512
vt 0.5430 0.4329
vt 0.4004 0.2520
vt 0.0947 0.2513
vt 0.6895 0.2533
vt 0.1055 0.1432
vt 0.1650 0.1426
vt 0.2646 0.1419
vt 0.3828 0.1413
vt 0.4951 0.1413
vt 0.5879 0.1406
vt 0.8076 0.1393
vt 0.7881 0.1393
vt 0.8066 0.1400
vt 0.8047 0.1393
vt 0.6113 0.1406
vt 0.6211 0.1406
vt 0.1709 0.1432
vt 0.2314 0.1419
vt 0.4883 0.7721
vt 0.2832 0.9362
vt 0.4814 0.9368
vt 0.1367 0.9362
vt 0.0625 0.7585
vt 0.0361 0.9362
vt 0.4805 0.9375
vt 0.4893 0.7298
vt 0.2734 0.7689
vt 0.6641 0.9512
vt 0.6270 0.7298
vt 0.5420 0.7298
vt 0.5488 0.9499
vt 0.9258 0.9544
vt 0.8096 0.7344
vt 0.9424 0.7663
vt 0.9648 0.9551
vt 0.9258 0.1784
vt 0.7188 0.1777
vt 0.5713 0.1777
vt 0.1406 0.1797
vt 0.8913 0.9209
vt 0.0573 0.9746
vt 0.0312 0.9756
vt 0.9284 0.9189
vt 0.2487 0.4658
vt 0.8223 0.7314
vt 0.9212 0.7383
vt 0.0710 0.4082
vt 0.0228 0.4199
vt 0.3320 0.3955
vt 0.2090 0.4014
vt 0.1270 0.4414
vt 0.7070 0.9707
vt 0.3311 0.9720
vt 0.2402 0.5592
vt 0.4355 0.9583
vt 0.3564 0.5749
vt 0.0986 0.5638
vt 0.1875 0.9642
vt 0.7373 0.9531
vt 0.8574 0.5625
vt 0.6963 0.5729
vt 0.5479 0.5586
vt 0.9346 0.9622
vt 0.8477 0.9694
vt 0.7021 0.9661
vt 0.6758 0.9785
vt 0.4121 0.9785
vt 0.3926 0.9792
vt 0.4893 0.9720
vt 0.2861 0.9707
vt 0.5557 0.9668
vt 0.4727 0.9655
vt 0.7451 0.9648
vt 0.7002 0.9596
vt 0.7227 0.9655
vt 0.0742 0.4993
vt 0.3447 0.4967
vt 0.6992 0.4961
vt 0.8613 0.4902
vt 0.5391 0.5085
vt 0.2061 0.5091
vt 0.5293 0.4642
vt 0.1982 0.4648
vt 0.3652 0.9382
vt 0.7158 0.4694
vt 1.0273 0.9609
vt 0.4346 0.9622
vt 0.6191 0.4720
vt 0.3203 0.4694
vt 0.9697 0.4707
vt 1.0176 0.9564
vt 0.8555 0.1940
vt 0.8770 0.1940
vt 0.8652 0.4062
vt 0.7324 0.3607
vt 0.6445 0.1940
vt 0.1514 0.1947
vt 0.0576 0.3893
vt 0.3174 0.3600
vt 0.3418 0.1947
vt 0.4932 0.3854
vt 0.1865 0.4069
vt 0.0674 0.1947
vt 0.6025 0.1940
vt 0.3750 0.1758
vt 0.4922 0.1751
vt 0.2236 0.1764
vt 0.2861 0.1758
vt 0.2861 0.1764
vt 0.3496 0.1751
vt 0.7051 0.1758
vt 0.7197 0.1751
vt 0.8955 0.1751
vt 0.8955 0.1745
vt 0.8945 0.1745
vt 0.8789 0.1745
vt 0.5947 0.1751
vt 0.6885 0.1751
vt 0.6826 0.9382
vt 0.9307 0.9395
vt 0.9268 0.7578
vt 0.8291 0.9388
vt 0.7021 0.7663
vt 0.4258 0.7272
vt 0.4287 0.9486
vt 0.2803 0.7253
vt 0.1660 0.9460
vt 0.1328 0.7533
vt 0.1279 0.9460
vt 0.7598 0.0052
vt 0.9238 0.0059
vt 0.6436 0.0052
vt 0.3027 0.0078
vt 0.7861 0.6338
vt 0.7520 0.1865
vt 0.6885 0.3262
vt 0.4707 1.0244
vt 0.4863 0.5527
vt 0.3662 0.4736
vt 0.6016 0.4785
vt 0.6562 0.4121
vt 0.1650 0.6279
vt 0.2666 0.3203
vt 0.2285 0.1787
vt 0.3105 0.4043
vt 0.8721 0.6846
vt 0.8838 0.0117
vt 0.8789 0.0508
vt 0.2803 0.8262
vt 0.4902 0.1709
vt 0.4033 0.0547
vt 0.8633 0.8184
vt 0.7803 0.1680
vt 0.4033 0.0176
vt 0.3027 0.6855
vt 0.9336 0.5742
vt 0.1328 0.2549
vt -0.0479 0.6445
vt 0.9238 -0.0342
vt 0.1475 0.3994
vt 0.7959 0.2080
vt 0.5205 0.9668
vt 0.8096 0.9160
vt 0.2305 1.0117
vt 0.1445 0.1875
vt 0.9688 0.9805
vt 0.7383 0.1338
vt 0.0771 0.9326
vt 0.5615 1.1689
vt 0.2705 1.2295
vt -0.0029 0.0020
vt 0.9863 0.0225
vt 0.8779 1.1797
vt 0.3955 0.9912
vt 0.8164 0.0801
vt 0.1729 0.4033
vt 0.8730 0.8584
vt 0.4385 0.9108
vt 0.5459 0.6100
vt 0.3887 0.6152
vt 0.4883 0.9115
vt 0.3955 0.9108
vt 0.3701 0.6159
vt 0.6641 0.9017
vt 0.5176 0.6139
vt 0.7090 0.6081
vt 0.7070 0.9082
vt 0.7402 0.9049
vt 0.6982 0.6068
vt 1.6562 -0.1250
vt 1.5312 -0.0938
vt 1.5000 0.2188
vt 1.5000 0.1250
vt 1.1562 0.1875
vt 1.2500 0.1562
vt 1.0000 -0.0938
vt 1.1250 -0.0625
vt 1.0625 -0.3125
vt 1.1562 -0.2812
vt 1.5938 -0.3750
vt 1.5625 -0.2812
vt 0.2871 0.6979
vt 0.2812 0.5755
vt 0.4346 0.6966
vt 0.4160 0.5742
vt 0.6260 0.6901
vt 0.6221 0.5677
vt 0.6143 0.6895
vt 0.5938 0.5671
vt 0.4619 0.6921
vt 0.4434 0.5697
vt 0.3057 0.6973
vt 0.2939 0.5755
vt 0.9551 0.1712
vt 0.0645 0.1751
vt 0.7637 0.9512
vt 0.7051 0.9505
vt 0.9795 0.1712
vt 0.2051 0.9512
vt -0.0459 0.1738
vt 0.3496 0.9525
vt 0.5645 0.4219
vt 0.6201 0.2806
vt 0.6016 0.2637
vt 0.3711 0.1576
vt 0.4297 0.4284
vt 0.3965 0.4297
vt 0.2529 0.0703
vt 0.3926 0.1309
vt 0.6191 0.4206
vt 0.2979 0.4277
vt 0.2803 0.4095
vt 0.6348 0.2598
vt 0.6436 0.2826
vt 0.5801 0.0417
vt 0.5801 0.0072
vt 0.5850 0.0794
vt 0.1162 -0.5378
vt 0.9551 -0.7044
vt 0.9844 -0.7754
vt -0.0010 -0.5514
vt 0.9531 0.1670
vt 0.7920 -0.3408
vt 0.0664 0.1484
vt 0.0781 -0.6660
vt 0.2109 1.0107
vt 0.5527 0.9199
vt 0.1074 0.3945
vt 0.7871 0.8574
vt 0.7471 0.1240
vt 0.5547 0.0664
vt 0.9209 0.8906
vt 0.0303 0.1523
vt 0.1104 0.8926
vt 0.6426 1.4131
vt 0.9307 1.3955
vt 0.9766 -0.0107
vt -0.0117 -0.1094
vt 0.3301 1.4326
vt 0.0654 0.4814
vt 0.8076 0.1670
vt 0.2881 1.0459
vt 0.8330 0.9141
vt 0.3945 0.6068
vt 0.5527 0.6087
vt 0.4229 0.8991
vt 0.3760 0.6061
vt 0.3184 0.8952
vt 0.4121 0.9010
vt 0.6895 0.6146
vt 0.5244 0.6120
vt 0.5908 0.8997
vt 0.6318 0.9082
vt 0.7158 0.6139
vt 0.6660 0.9069
vt 4.5312 -0.2188
vt 4.3750 -0.2500
vt 4.5625 -0.0312
vt 4.4375 -0.5312
vt 4.5000 -0.4375
vt 4.8438 -0.5625
vt 4.8750 -0.4688
vt 5.0312 -0.3125
vt 4.9375 -0.2812
vt 4.8750 0.0000
vt 4.7812 -0.0312
vt 4.5312 0.0625
vt 0.6787 0.6960
vt 0.7188 0.5697
vt 0.5137 0.6934
vt 0.5293 0.5736
vt 0.3662 0.6875
vt 0.3945 0.5684
vt 0.3848 0.6882
vt 0.4072 0.5684
vt 0.5430 0.6901
vt 0.5586 0.5703
vt 0.7061 0.6953
vt 0.7441 0.5762
vt 0.4805 0.9316
vt 0.9561 0.1354
vt 0.1709 0.1094
vt 0.1494 0.1081
vt 0.5322 0.9323
vt 1.0537 0.1361
vt 0.9727 0.9453
vt 0.8457 0.9434
vt 0.8018 0.2793
vt 0.8154 0.2969
vt 0.7217 0.4323
vt 0.5850 0.4316
vt 0.5996 0.1641
vt 0.6289 0.1393
vt 0.5059 0.0736
vt 0.5498 0.4310
vt 0.7764 0.4336
vt 0.4502 0.4245
vt 0.4395 0.4056
vt 0.8242 0.2754
vt 0.8320 0.2949
vt 0.8447 0.0612
vt 0.8486 0.0215
vt 0.8428 0.0957
vt 0.0127 -0.8092
vt -0.0264 -0.8841
vt 0.7812 -0.6133
vt 0.8818 -0.6250
vt 0.9727 0.1224
vt 0.5107 0.2598
vt 0.8496 0.2780
vt 0.1650 0.2754
vt 0.1094 0.4460
vt 0.3086 0.4355
vt 0.5166 0.0983
vt 0.3818 0.0260
vt 0.3926 0.0840
vt 0.5029 0.4355
vt 0.7080 0.4368
vt 0.9648 0.2507
vt 0.9170 0.4499
vt 0.0469 0.1198
vt 0.0557 0.2474
vt 0.9570 0.2643
vt 0.0527 0.0690
vt 0.6426 0.0833
vt 0.9775 0.0690
vt 0.6553 0.0267
vt 0.0596 0.2637
vt 0.6914 0.2461
vt 0.6885 0.4264
vt 0.8105 0.4297
vt 0.3574 0.2422
vt 0.6367 0.0684
vt 0.0898 0.0234
vt 0.3887 0.0013
vt 0.3916 -0.0163
vt 0.9482 0.2435
vt 0.9600 0.0625
vt 0.5303 0.4219
vt 0.0918 0.0540
vt 0.4043 0.0645
vt 0.3740 0.4232
vt 0.6484 -0.0130
vt 0.6504 0.0046
vt 0.9561 0.0371
vt 0.1074 0.2311
vt 0.2607 0.4219
vt 0.8994 0.4349
vt 0.1445 0.4277
vt 0.9111 0.5241
vt 0.7070 0.5319
vt 0.4961 0.5371
vt 0.2979 0.5339
vt 0.1084 0.5247
vt 0.9004 0.5189
vt 0.7871 0.5078
vt 0.6123 0.5039
vt 0.5322 0.5039
vt 0.4199 0.5020
vt 0.2871 0.5007
vt 0.1484 0.5065
vt 1.0322 0.0443
vt -0.0713 -0.0020
vt -0.0156 0.0527
vt 0.1338 0.5599
vt 0.8730 0.5573
vt 1.0908 -0.0085
vt 0.1055 0.5671
vt 0.8809 0.5632
vt 0.0342 0.5703
vt 0.9307 0.5658
vt 0.0859 0.6146
vt 0.9404 0.6120
vt -0.0430 0.0638
vt 0.1396 0.6523
vt 0.8770 0.6172
vt 1.0625 0.0130
vt 0.6885 0.5944
vt 0.4961 0.5996
vt 0.9053 0.5866
vt 0.2959 0.5970
vt 0.1006 0.5872
vt 0.2998 0.5658
vt 0.1543 0.5723
vt 0.4336 0.5671
vt 0.5381 0.5697
vt 0.9072 0.5846
vt 0.6182 0.5697
vt 0.7852 0.5736
vt 0.1025 0.5872
vt 0.9062 0.5846
vt 0.5400 0.5697
vt 0.0625 0.9284
vt 0.9258 0.9258
vt -0.0371 0.9297
vt 1.0156 0.9277
vt 1.0000 1.0000
vt 0.0000 1.0000
vn 0.577 0.577 0.577
vn 0.577 0.577 0.577
vn -0.577 -0.577 -0.577
vn -0.577 -0.577 -0.577
vn -0.577 -0.577 -0.577
vn 0.577 0.577 0.577
vn 0.577 0.577 0.577
vn -0.577 -0.577 -0.577
vn 0.577 0.577 0.577
vn 0.577 0.577 0.577
vn 0.577 0.577 0.577
vn 0.577 0.577 0.577
vn -0.577 -0.577 -0.577
vn 0.577 0.577 0.577
vn 0.577 0.577 0.577
vn 0.577 0.577 0.577
vn -0.577 -0.577 -0.577
vn 0.577 0.577 0.577
vn 0.577 0.577 0.577
vn -0.577 -0.577 -0.577
vn 0.577 0.577 0.577
vn 0.577 0.577 0.577
vn -0.577 -0.577 -0.577
vn 0.577 0.577 0.577
vn 0.577 0.577 0.577
vn 0.577 0.577 0.577
vn 0.577 0.577 0.577
vn 0.577 0.577 0.577
vn 0.577 0.577 0.577
vn 0.577 0.577 0.577
vn 0.577 0.577 0.577
vn 0.577 0.577 0.577
vn 0.577 0.577 0.577
vn 0.577 0.577 0.577
vn 0.577 0.577 0.577
vn 0.577 0.577 0.577
vn -0.577 -0.577 -0.577
vn 0.577 0.577 0.577
vn -0.577 -0.577 -0.577
vn -0.577 -0.577 -0.577
vn 0.577 0.577 0.577
vn -0.577 -0.577 -0.577
vn 0.577 0.577 0.577
vn -0.577 -0.577 -0.577
vn -0.577 -0.577 -0.577
vn 0.577 0.577 0.577
vn -0.577 -0.577 -0.577
vn -0.577 -0.577 -0.577
vn -0.577 -0.577 -0.577
vn -0.577 -0.577 -0.577
vn 0.577 0.577 0.577
vn -0.577 -0.577 -0.577
vn -0.577 -0.577 -0.577
vn 0.577 0.577 0.577
vn -0.577 -0.577 -0.577
vn -0.577 -0.577 -0.577
vn -0.577 -0.577 -0.577
vn 0.577 0.577 0.577
vn 0.577 0.577 0.577
vn -0.577 -0.577 -0.577
vn -0.577 -0.577 -0.577
vn -0.577 -0.577 -0.577
vn -0.577 -0.577 -0.577
vn -0.577 -0.577 -0.577
vn 0.577 0.577 0.577
vn 0.577 0.577 0.577
vn 0.577 0.577 0.577
vn 0.577 0.577 0.577
vn 0.577 0.577 0.577
vn -0.577 -0.577 -0.577
vn -0.577 -0.577 -0.577
vn 0.577 0.577 0.577
vn -0.577 -0.577 -0.577
vn -0.577 -0.577 -0.577
vn -0.577 -0.577 -0.577
vn 0.577 0.577 0.577
vn 0.577 0.577 0.577
vn 0.577 0.577 0.577
vn 0.577 0.577 0.577
vn -0.577 -0.577 -0.577
vn -0.577 -0.577 -0.577
vn 0.577 0.577 0.577
vn -0.577 -0.577 -0.577
vn 0.577 0.577 0.577
vn 0.577 0.577 0.577
vn 0.577 0.577 0.577
vn 0.577 0.577 0.577
vn 0.577 0.577 0.577
vn 0.577 0.577 0.577
vn 0.577 0.577 0.577
vn 0.577 0.577 0.577
vn 0.577 0.577 0.577
vn 0.577 0.577 0.577
vn 0.577 0.577 0.577
vn -0.577 -0.577 -0.577
vn 0.577 0.577 0.577
vn -0.577 -0.577 -0.577
vn -0.577 -0.577 -0.577
vn -0.577 -0.577 -0.577
vn -0.577 -0.577 -0.577
vn -0.577 -0.577 -0.577
vn 0.577 0.577 0.577
vn 0.577 0.577 0.577
vn 0.577 0.577 0.577
vn -0.577 -0.577 -0.577
vn 0.577 0.577 0.577
vn 0.577 0.577 0.577
vn 0.577 0.577 0.577
vn 0.577 0.577 0.577
vn 0.577 0.577 0.577
vn 0.577 0.577 0.577
vn -0.577 -0.577 -0.577
vn -0.577 -0.577 -0.577
vn 0.577 0.577 0.577
vn 0.577 0.577 0.577
vn 0.577 0.577 0.577
vn 0.577 0.577 0.577
vn -0.577 -0.577 -0.577
vn -0.577 -0.577 -0.577
vn 0.577 0.577 0.577
vn -0.577 -0.577 -0.577
vn -0.577 -0.577 -0.577
vn 0.577 0.577 0.577
vn -0.577 -0.577 -0.577
vn -0.577 -0.577 -0.577
vn 0.577 0.577 0.577
vn -0.577 -0.577 -0.577
vn -0.577 -0.577 -0.577
vn -0.577 -0.577 -0.577
vn -0.577 -0.577 -0.577
vn -0.577 -0.577 -0.577
vn -0.577 -0.577 -0.577
vn -0.577 -0.577 -0.577
vn 0.577 0.577 0.577
vn 0.577 0.577 0.577
vn 0.577 0.577 0.577
vn -0.577 -0.577 -0.577
vn -0.577 -0.577 -0.577
vn -0.577 -0.577 -0.577
vn -0.577 -0.577 -0.577
vn -0.577 -0.577 -0.577
vn -0.577 -0.577 -0.577
vn -0.577 -0.577 -0.577
vn 0.577 0.577 0.577
vn 0.577 0.577 0.577
vn -0.577 -0.577 -0.577
vn 0.577 0.577 0.577
vn -0.577 -0.577 -0.577
vn -0.577 -0.577 -0.577
vn 0.577 0.577 0.577
vn 0.577 0.577 0.577
vn 0.577 0.577 0.577
vn 0.577 0.577 0.577
vn 0.577 0.577 0.577
vn 0.577 0.577 0.577
vn 0.577 0.577 0.577
vn -0.577 -0.577 -0.577
vn 0.577 0.577 0.577
vn -0.577 -0.577 -0.577
vn 0.577 0.577 0.577
vn 0.577 0.577 0.577
vn 0.577 0.577 0.577
vn 0.577 0.577 0.577
vn -0.577 -0.577 -0.577
vn -0.577 -0.577 -0.577
vn 0.577 0.577 0.577
vn 0.577 0.577 0.577
vn 0.577 0.577 0.577
vn 0.577 0.577 0.577
vn 0.577 0.577 0.577
vn 0.577 0.577 0.577
vn 0.577 0.577 0.577
vn 0.577 0.577 0.577
vn 0.577 0.577 0.577
vn 0.577 0.577 0.577
vn 0.577 0.577 0.577
vn 0.577 0.577 0.577
vn 0.577 0.577 0.577
vn 0.577 0.577 0.577
vn -0.577 -0.577 -0.577
vn -0.577 -0.577 -0.577
vn 0.577 0.577 0.577
vn -0.577 -0.577 -0.577
vn -0.577 -0.577 -0.577
vn 0.577 0.577 0.577
vn -0.577 -0.577 -0.577
vn -0.577 -0.577 -0.577
vn -0.577 -0.577 -0.577
vn 0.577 0.577 0.577
vn -0.577 -0.577 -0.577
vn -0.577 -0.577 -0.577
vn -0.577 -0.577 -0.577
vn 0.577 0.577 0.577
vn -0.577 -0.577 -0.577
vn -0.577 -0.577 -0.577
vn 0.577 0.577 0.577
vn -0.577 -0.577 -0.577
vn -0.577 -0.577 -0.577
vn -0.577 -0.577 -0.577
vn -0.577 -0.577 -0.577
vn 0.577 0.577 0.577
vn 0.577 0.577 0.577
vn -0.577 -0.577 -0.577
vn -0.577 -0.577 -0.577
vn -0.577 -0.577 -0.577
vn -0.577 -0.577 -0.577
vn 0.577 0.577 0.577
vn 0.577 0.577 0.577
vn 0.577 0.577 0.577
vn -0.577 -0.577 -0.577
vn 0.577 0.577 0.577
vn 0.577 0.577 0.577
vn 0.577 0.577 0.577
vn -0.577 -0.577 -0.577
vn 0.577 0.577 0.577
vn -0.577 -0.577 -0.577
vn -0.577 -0.577 -0.577
vn 0.577 0.577 0.577
vn 0.577 0.577 0.577
vn 0.577 0.577 0.577
vn 0.577 0.577 0.577
vn 0.577 0.577 0.577
vn 0.577 0.577 0.577
vn 0.577 0.577 0.577
vn 0.577 0.577 0.577
vn 0.577 0.577 0.577
vn 0.577 0.577 0.577
vn 0.577 0.577 0.577
vn 0.577 0.577 0.577
vn 0.577 0.577 0.577
vn 0.577 0.577 0.577
vn 0.577 0.577 0.577
vn 0.577 0.577 0.577
vn 0.577 0.577 0.577
vn 0.577 0.577 0.577
vn 0.577 0.577 0.577
vn -0.577 -0.577 -0.577
vn 0.577 0.577 0.577
vn -0.577 -0.577 -0.577
vn -0.577 -0.577 -0.577
vn -0.577 -0.577 -0.577
vn -0.577 -0.577 -0.577
vn -0.577 -0.577 -0.577
vn 0.577 0.577 0.577
vn 0.577 0.577 0.577
vn 0.577 0.577 0.577
vn 0.577 0.577 0.577
vn 0.577 0.577 0.577
vn 0.577 0.577 0.577
vn 0.577 0.577 0.577
vn 0.577 0.577 0.577
vn 0.577 0.577 0.577
vn 0.577 0.577 0.577
vn -0.577 -0.577 -0.577
vn -0.577 -0.577 -0.577
vn 0.577 0.577 0.577
vn 0.577 0.577 0.577
vn 0.577 0.577 0.577
vn 0.577 0.577 0.577
vn -0.577 -0.577 -0.577
vn -0.577 -0.577 -0.577
vn 0.577 0.577 0.577
vn -0.577 -0.577 -0.577
vn -0.577 -0.577 -0.577
vn -0.577 -0.577 -0.577
vn 0.577 0.577 0.577
vn -0.577 -0.577 -0.577
vn 0.577 0.577 0.577
vn -0.577 -0.577 -0.577
vn -0.577 -0.577 -0.577
vn -0.577 -0.577 -0.577
vn -0.577 -0.577 -0.577
vn -0.577 -0.577 -0.577
vn -0.577 -0.577 -0.577
vn -0.577 -0.577 -0.577
vn 0.577 0.577 0.577
vn 0.577 0.577 0.577
vn 0.577 0.577 0.577
vn -0.577 -0.577 -0.577
vn -0.577 -0.577 -0.577
vn -0.577 -0.577 -0.577
vn -0.577 -0.577 -0.577
vn -0.577 -0.577 -0.577
vn -0.577 -0.577 -0.577
vn -0.577 -0.577 -0.577
vn -0.577 -0.577 -0.577
vn -0.577 -0.577 -0.577
vn -0.577 -0.577 -0.577
vn -0.577 -0.577 -0.577
vn -0.577 -0.577 -0.577
vn -0.577 -0.577 -0.577
vn -0.577 -0.577 -0.577
vn -0.577 -0.577 -0.577
vn -0.577 -0.577 -0.577
vn -0.577 -0.577 -0.577
vn -0.577 -0.577 -0.577
vn -0.577 -0.577 -0.577
vn -0.577 -0.577 -0.577
vn -0.577 -0.577 -0.577
vn -0.577 -0.577 -0.577
vn -0.577 -0.577 -0.577
vn -0.577 -0.577 -0.577
vn -0.577 -0.577 -0.577
vn -0.577 -0.577 -0.577
vn -0.577 -0.577 -0.577
vn -0.577 -0.577 -0.577
vn -0.577 -0.577 -0.577
vn -0.577 -0.577 -0.577
vn -0.577 -0.577 -0.577
vn -0.577 -0.577 -0.577
vn -0.577 -0.577 -0.577
vn -0.577 -0.577 -0.577
vn -0.577 -0.577 -0.577
vn -0.577 -0.577 -0.577
vn -0.577 -0.577 -0.577
vn -0.577 -0.577 -0.577
vn -0.577 -0.577 -0.577
vn -0.577 -0.577 -0.577
vn -0.577 -0.577 -0.577
vn -0.577 -0.577 -0.577
vn -0.577 -0.577 -0.577
vn -0.577 -0.577 -0.577
vn -0.577 -0.577 -0.577
vn -0.577 -0.577 -0.577
vn -0.577 -0.577 -0.577
vn -0.577 -0.577 -0.577
vn -0.577 -0.577 -0.577
vn -0.577 -0.577 -0.577
vn -0.577 -0.577 -0.577
vn -0.577 -0.577 -0.577
vn -0.577 -0.577 -0.577
vn -0.577 -0.577 -0.577
vn -0.577 -0.577 -0.577
vn -0.577 -0.577 -0.577
vn -0.577 -0.577 -0.577
vn -0.577 -0.577 -0.577
vn -0.577 -0.577 -0.577
vn -0.577 -0.577 -0.577
vn -0.577 -0.577 -0.577
vn -0.577 -0.577 -0.577
vn 0.577 0.577 0.577
vn -0.577 -0.577 -0.577
vn -0.577 -0.577 -0.577
vn -0.577 -0.577 -0.577
vn -0.577 -0.577 -0.577
vn -0.577 -0.577 -0.577
vn -0.577 -0.577 -0.577
vn -0.577 -0.577 -0.577
vn -0.577 -0.577 -0.577
vn -0.577 -0.577 -0.577
vn -0.577 -0.577 -0.577
vn -0.577 -0.577 -0.577
vn -0.577 -0.577 -0.577
vn -0.577 -0.577 -0.577
vn -0.577 -0.577 -0.577
vn -0.577 -0.577 -0.577
vn -0.577 -0.577 -0.577
vn -0.577 -0.577 -0.577
vn 0.577 0.577 0.577
vn -0.577 -0.577 -0.577
vn -0.577 -0.577 -0.577
vn -0.577 -0.577 -0.577
vn -0.577 -0.577 -0.577
vn -0.577 -0.577 -0.577
vn 0.577 0.577 0.577
vn -0.577 -0.577 -0.577
vn -0.577 -0.577 -0.577
vn -0.577 -0.577 -0.577
vn -0.577 -0.577 -0.577
vn -0.577 -0.577 -0.577
vn 0.577 0.577 0.577
vn 0.577 0.577 0.577
vn -0.577 -0.577 -0.577
vn 0.577 0.577 0.577
vn -0.577 -0.577 -0.577
vn 0.577 0.577 0.577
vn -0.577 -0.577 -0.577
vn 0.577 0.577 0.577
vn 0.577 0.577 0.577
vn -0.577 -0.577 -0.577
vn -0.577 -0.577 -0.577
vn -0.577 -0.577 -0.577
vn -0.577 -0.577 -0.577
vn -0.577 -0.577 -0.577
vn 0.577 0.577 0.577
vn -0.577 -0.577 -0.577
vn -0.577 -0.577 -0.577
vn 0.577 0.577 0.577
vn 0.577 0.577 0.577
vn -0.577 -0.577 -0.577
vn -0.577 -0.577 -0.577
vn -0.577 -0.577 -0.577
vn 0.577 0.577 0.577
vn 0.577 0.577 0.577
vn -0.577 -0.577 -0.577
vn -0.577 -0.577 -0.577
vn -0.577 -0.577 -0.577
vn -0.577 -0.577 -0.577
vn -0.577 -0.577 -0.577
vn 0.577 0.577 0.577
vn -0.577 -0.577 -0.577
vn -0.577 -0.577 -0.577
vn -0.577 -0.577 -0.577
vn -0.577 -0.577 -0.577
vn -0.577 -0.577 -0.577
vn 0.577 0.577 0.577
vn -0.577 -0.577 -0.577
vn -0.577 -0.577 -0.577
vn -0.577 -0.577 -0.577
vn -0.577 -0.577 -0.577
vn -0.577 -0.577 -0.577
vn -0.577 -0.577 -0.577
vn -0.577 -0.577 -0.577
vn -0.577 -0.577 -0.577
vn -0.577 -0.577 -0.577
vn -0.577 -0.577 -0.577
vn -0.577 -0.577 -0.577
vn -0.577 -0.577 -0.577
vn -0.577 -0.577 -0.577
vn -0.577 -0.577 -0.577
vn -0.577 -0.577 -0.577
vn -0.577 -0.577 -0.577
vn -0.577 -0.577 -0.577
vn -0.577 -0.577 -0.577
vn -0.577 -0.577 -0.577
vn -0.577 -0.577 -0.577
vn -0.577 -0.577 -0.577
vn -0.577 -0.577 -0.577
vn -0.577 -0.577 -0.577
vn -0.577 -0.577 -0.577
vn -0.577 -0.577 -0.577
vn -0.577 -0.577 -0.577
vn -0.577 -0.577 -0.577
vn -0.577 -0.577 -0.577
vn -0.577 -0.577 -0.577
vn -0.577 -0.577 -0.577
vn -0.577 -0.577 -0.577
vn -0.577 -0.577 -0.577
vn -0.577 -0.577 -0.577
vn -0.577 -0.577 -0.577
vn -0.577 -0.577 -0.577
vn -0.577 -0.577 -0.577
vn -0.577 -0.577 -0.577
vn -0.577 -0.577 -0.577
vn -0.577 -0.577 -0.577
vn -0.577 -0.577 -0.577
vn -0.577 -0.577 -0.577
vn -0.577 -0.577 -0.577
vn -0.577 -0.577 -0.577
vn 0.577 0.577 0.577
vn -0.577 -0.577 -0.577
vn -0.577 -0.577 -0.577
vn -0.577 -0.577 -0.577
vn -0.577 -0.577 -0.577
vn -0.577 -0.577 -0.577
vn -0.577 -0.577 -0.577
vn -0.577 -0.577 -0.577
vn -0.577 -0.577 -0.577
vn -0.577 -0.577 -0.577
vn -0.577 -0.577 -0.577
vn -0.577 -0.577 -0.577
vn -0.577 -0.577 -0.577
vn -0.577 -0.577 -0.577
vn -0.577 -0.577 -0.577
vn -0.577 -0.577 -0.577
vn -0.577 -0.577 -0.577
vn -0.577 -0.577 -0.577
vn 0.577 0.577 0.577
vn -0.577 -0.577 -0.577
vn -0.577 -0.577 -0.577
vn -0.577 -0.577 -0.577
vn -0.577 -0.577 -0.577
vn -0.577 -0.577 -0.577
vn 0.577 0.577 0.577
vn -0.577 -0.577 -0.577
vn -0.577 -0.577 -0.577
vn -0.577 -0.577 -0.577
vn -0.577 -0.577 -0.577
vn -0.577 -0.577 -0.577
vn 0.577 0.577 0.577
vn -0.577 -0.577 -0.577
vn -0.577 -0.577 -0.577
vn -0.577 -0.577 -0.577
vn 0.577 0.577 0.577
vn -0.577 -0.577 -0.577
vn 0.577 0.577 0.577
vn 0.577 0.577 0.577
vn 0.577 0.577 0.577
vn 0.577 0.577 0.577
vn -0.577 -0.577 -0.577
vn -0.577 -0.577 -0.577
vn -0.577 -0.577 -0.577
vn -0.577 -0.577 -0.577
vn -0.577 -0.577 -0.577
vn -0.577 -0.577 -0.577
vn 0.577 0.577 0.577
vn -0.577 -0.577 -0.577
vn -0.577 -0.577 -0.577
vn 0.577 0.577 0.577
vn 0.577 0.577 0.577
vn -0.577 -0.577 -0.577
vn -0.577 -0.577 -0.577
vn -0.577 -0.577 -0.577
vn 0.577 0.577 0.577
vn 0.577 0.577 0.577
vn -0.577 -0.577 -0.577
vn -0.577 -0.577 -0.577
vn -0.577 -0.577 -0.577
vn -0.577 -0.577 -0.577
vn -0.577 -0.577 -0.577
vn 0.577 0.577 0.577
vn -0.577 -0.577 -0.577
vn -0.577 -0.577 -0.577
vn -0.577 -0.577 -0.577
vn -0.577 -0.577 -0.577
vn -0.577 -0.577 -0.577
vn 0.577 0.577 0.577
vn -0.577 -0.577 -0.577
vn -0.577 -0.577 -0.577
vn -0.577 -0.577 -0.577
vn -0.577 -0.577 -0.577
vn -0.577 -0.577 -0.577
vn -0.577 -0.577 -0.577
vn -0.577 -0.577 -0.577
vn -0.577 -0.577 -0.577
vn -0.577 -0.577 -0.577
vn -0.577 -0.577 -0.577
vn -0.577 -0.577 -0.577
vn -0.577 -0.577 -0.577
vn -0.577 -0.577 -0.577
vn -0.577 -0.577 -0.577
vn -0.577 -0.577 -0.577
vn -0.577 -0.577 -0.577
vn -0.577 -0.577 -0.577
vn 0.577 0.577 0.577
vn -0.577 -0.577 -0.577
vn -0.577 -0.577 -0.577
vn -0.577 -0.577 -0.577
vn -0.577 -0.577 -0.577
vn -0.577 -0.577 -0.577
vn -0.577 -0.577 -0.577
vn 0.577 0.577 0.577
vn 0.577 0.577 0.577
vn -0.577 -0.577 -0.577
vn 0.577 0.577 0.577
vn 0.577 0.577 0.577
vn -0.577 -0.577 -0.577
vn -0.577 -0.577 -0.577
vn -0.577 -0.577 -0.577
vn -0.577 -0.577 -0.577
vn -0.577 -0.577 -0.577
vn -0.577 -0.577 -0.577
vn -0.577 -0.577 -0.577
vn -0.577 -0.577 -0.577
vn -0.577 -0.577 -0.577
vn -0.577 -0.577 -0.577
vn -0.577 -0.577 -0.577
vn 0.577 0.577 0.577
vn 0.577 0.577 0.577
vn 0.577 0.577 0.577
vn -0.577 -0.577 -0.577
vn -0.577 -0.577 -0.577
vn -0.577 -0.577 -0.577
vn -0.577 -0.577 -0.577
vn -0.577 -0.577 -0.577
vn -0.577 -0.577 -0.577
vn -0.577 -0.577 -0.577
vn -0.577 -0.577 -0.577
vn 0.577 0.577 0.577
vn -0.577 -0.577 -0.577
vn -0.577 -0.577 -0.577
vn -0.577 -0.577 -0.577
vn -0.577 -0.577 -0.577
vn -0.577 -0.577 -0.577
vn -0.577 -0.577 -0.577
vn -0.577 -0.577 -0.577
vn -0.577 -0.577 -0.577
vn -0.577 -0.577 -0.577
vn -0.577 -0.577 -0.577
vn 0.577 0.577 0.577
vn -0.577 -0.577 -0.577
vn -0.577 -0.577 -0.577
vn -0.577 -0.577 -0.577
vn -0.577 -0.577 -0.577
vn -0.577 -0.577 -0.577
vn -0.577 -0.577 -0.577
vn -0.577 -0.577 -0.577
vn -0.577 -0.577 -0.577
vn 0.577 0.577 0.577
vn 0.577 0.577 0.577
vn -0.577 -0.577 -0.577
vn 0.577 0.577 0.577
vn 0.577 0.577 0.577
vn -0.577 -0.577 -0.577
vn -0.577 -0.577 -0.577
vn -0.577 -0.577 -0.577
vn -0.577 -0.577 -0.577
vn -0.577 -0.577 -0.577
vn -0.577 -0.577 -0.577
vn -0.577 -0.577 -0.577
vn -0.577 -0.577 -0.577
vn 0.577 0.577 0.577
vn -0.577 -0.577 -0.577
vn -0.577 -0.577 -0.577
vn -0.577 -0.577 -0.577
vn 0.577 0.577 0.577
vn 0.577 0.577 0.577
vn -0.577 -0.577 -0.577
vn -0.577 -0.577 -0.577
vn 0.577 0.577 0.577
vn -0.577 -0.577 -0.577
vn -0.577 -0.577 -0.577
vn -0.577 -0.577 -0.577
vn 0.577 0.577 0.577
vn 0.577 0.577 0.577
vn -0.577 -0.577 -0.577
vn -0.577 -0.577 -0.577
vn -0.577 -0.577 -0.577
vn -0.577 -0.577 -0.577
vn -0.577 -0.577 -0.577
vn -0.577 -0.577 -0.577
vn 0.577 0.577 0.577
vn -0.577 -0.577 -0.577
vn -0.577 -0.577 -0.577
vn -0.577 -0.577 -0.577
vn -0.577 -0.577 -0.577
vn 0.577 0.577 0.577
vn -0.577 -0.577 -0.577
vn -0.577 -0.577 -0.577
vn -0.577 -0.577 -0.577
vn -0.577 -0.577 -0.577
vn -0.577 -0.577 -0.577
vn -0.577 -0.577 -0.577
vn -0.577 -0.577 -0.577
vn -0.577 -0.577 -0.577
vn -0.577 -0.577 -0.577
vn -0.577 -0.577 -0.577
vn -0.577 -0.577 -0.577
vn -0.577 -0.577 -0.577
vn -0.577 -0.577 -0.577
vn -0.577 -0.577 -0.577
vn -0.577 -0.577 -0.577
vn -0.577 -0.577 -0.577
vn -0.577 -0.577 -0.577
vn -0.577 -0.577 -0.577
vn -0.577 -0.577 -0.577
vn -0.577 -0.577 -0.577
vn -0.577 -0.577 -0.577
vn -0.577 -0.577 -0.577
vn -0.577 -0.577 -0.577
vn -0.577 -0.577 -0.577
vn -0.577 -0.577 -0.577
vn 0.577 0.577 0.577
vn -0.577 -0.577 -0.577
vn -0.577 -0.577 -0.577
vn -0.577 -0.577 -0.577
vn 0.577 0.577 0.577
vn -0.577 -0.577 -0.577
vn 0.577 0.577 0.577
vn 0.577 0.577 0.577
vn -0.577 -0.577 -0.577
vn -0.577 -0.577 -0.577
vn -0.577 -0.577 -0.577
vn 0.577 0.577 0.577
vn 0.577 0.577 0.577
vn 0.577 0.577 0.577
vn -0.577 -0.577 -0.577
vn 0.577 0.577 0.577
vn -0.577 -0.577 -0.577
vn -0.577 -0.577 -0.577
vn 0.577 0.577 0.577
vn 0.577 0.577 0.577
vn -0.577 -0.577 -0.577
vn -0.577 -0.577 -0.577
vn 0.577 0.577 0.577
vn -0.577 -0.577 -0.577
vn 0.577 0.577 0.577
vn -0.577 -0.577 -0.577
vn 0.577 0.577 0.577
vn -0.577 -0.577 -0.577
vn -0.577 -0.577 -0.577
vn -0.577 -0.577 -0.577
vn 0.577 0.577 0.577
vn 0.577 0.577 0.577
vn -0.577 -0.577 -0.577
vn 0.577 0.577 0.577
vn 0.577 0.577 0.577
vn -0.577 -0.577 -0.577
vn -0.577 -0.577 -0.577
vn -0.577 -0.577 -0.577
vn 0.577 0.577 0.577
vn 0.577 0.577 0.577
vn -0.577 -0.577 -0.577
vn -0.577 -0.577 -0.577
vn 0.577 0.577 0.577
vn 0.577 0.577 0.577
vn 0.577 0.577 0.577
vn -0.577 -0.577 -0.577
vn 0.577 0.577 0.577
vn -0.577 -0.577 -0.577
vn -0.577 -0.577 -0.577
vn -0.577 -0.577 -0.577
vn -0.577 -0.577 -0.577
vn 0.577 0.577 0.577
vn -0.577 -0.577 -0.577
vn -0.577 -0.577 -0.577
vn -0.577 -0.577 -0.577
vn -0.577 -0.577 -0.577
vn 0.577 0.577 0.577
vn -0.577 -0.577 -0.577
vn -0.577 -0.577 -0.577
vn -0.577 -0.577 -0.577
vn -0.577 -0.577 -0.577
vn -0.577 -0.577 -0.577
vn -0.577 -0.577 -0.577
vn -0.577 -0.577 -0.577
vn -0.577 -0.577 -0.577
vn -0.577 -0.577 -0.577
vn 0.577 0.577 0.577
vn 0.577 0.577 0.577
vn 0.577 0.577 0.577
vn 0.577 0.577 0.577
vn 0.577 0.577 0.577
vn -0.577 -0.577 -0.577
vn -0.577 -0.577 -0.577
vn -0.577 -0.577 -0.577
usemtl tex_1631_lit_w10
f 1/1/1 2/2/2 3/3/3
f 3/3/3 2/2/2 4/4/4
f 3/3/3 5/5/5 6/6/6
f 7/7/7 8/8/8 4/4/4
f 5/5/5 3/3/3 8/8/8
f 8/8/8 3/3/3 4/4/4
f 1/1/1 9/9/9 7/7/7
f 2/2/2 1/1/1 7/7/7
f 10/10/10 11/11/11 8/8/8
f 1/1/1 6/6/6 12/12/12
f 8/8/8 11/11/11 6/6/6
f 3/3/3 6/6/6 1/1/1
f 7/7/7 4/4/4 2/2/2
f 5/5/5 8/8/8 6/6/6
f 7/7/7 10/10/10 8/8/8
f 1/1/1 12/12/12 9/9/9
usemtl tex_1643_lit_w11
f 13/13/13 14/14/14 15/15/15
f 16/16/16 17/17/17 18/18/18
f 16/16/16 18/18/18 19/19/19
f 20/20/20 21/21/21 22/22/22
f 21/21/21 23/23/23 15/15/15
f 16/16/16 19/19/19 14/14/14
f 13/13/13 16/16/16 14/14/14
f 21/21/21 24/24/24 22/22/22
f 17/17/17 20/20/20 18/18/18
f 23/23/23 13/13/13 15/15/15
f 21/21/21 15/15/15 24/24/24
f 20/20/20 22/22/22 18/18/18
f 25/25/25 31/26/31 26/27/26
f 26/27/26 31/26/31 32/28/32
f 26/27/26 32/28/32 27/29/27
f 27/29/27 32/28/32 33/30/33
f 27/29/27 33/30/33 28/31/28
f 25/25/25 34/32/34 31/26/31
f 28/31/28 33/30/33 29/33/29
f 29/33/29 33/30/33 35/34/35
f 29/33/29 35/34/35 30/35/30
f 30/35/30 35/34/35 36/36/36
f 30/35/30 36/36/36 25/25/25
f 25/25/25 36/36/36 34/32/34
f 37/37/37 38/38/38 43/16/43
f 43/16/43 38/38/38 39/39/39
f 43/16/43 39/39/39 44/17/44
f 44/17/44 39/39/39 40/40/40
f 44/17/44 40/40/40 45/20/45
f 45/20/45 40/40/40 41/41/41
f 45/20/45 41/41/41 46/21/46
f 46/21/46 41/41/41 42/42/42
f 46/21/46 42/42/42 47/23/47
f 47/23/47 42/42/42 37/37/37
f 47/23/47 37/37/37 48/13/48
f 48/13/48 37/37/37 43/16/43
f 49/37/49 50/43/50 51/38/51
f 52/44/52 50/43/50 49/37/49
f 53/42/53 52/44/52 49/37/49
f 54/41/54 52/44/52 53/42/53
f 55/45/55 56/46/56 57/47/57
f 58/48/58 59/49/59 60/50/60
f 55/45/55 61/51/61 56/46/56
f 57/47/57 56/46/56 58/48/58
f 60/50/60 59/49/59 62/52/62
f 62/52/62 59/49/59 61/51/61
f 62/52/62 61/51/61 55/45/55
f 57/47/57 58/48/58 60/50/60
f 60/50/60 62/52/62 55/45/55
f 60/50/60 55/45/55 57/47/57
f 59/49/59 58/48/58 63/46/63
f 59/49/59 63/46/63 64/51/64
f 65/53/65 66/54/66 67/55/67
f 68/56/68 69/57/69 70/58/70
f 68/56/68 71/59/71 72/60/72
f 70/58/70 69/57/69 66/54/66
f 73/61/73 74/62/74 75/63/75
f 76/64/76 68/56/68 72/60/72
f 73/61/73 75/63/75 76/64/76
f 72/60/72 73/61/73 76/64/76
f 68/56/68 70/58/70 71/59/71
f 75/63/75 74/62/74 77/65/77
f 65/53/65 70/58/70 66/54/66
f 65/53/65 77/65/77 74/62/74
f 65/53/65 67/55/67 77/65/77
f 78/66/78 79/67/79 80/68/80
f 81/68/81 82/67/82 83/69/83
f 81/68/81 83/69/83 84/70/84
f 84/70/84 83/69/83 85/71/85
f 84/70/84 85/71/85 86/72/86
f 86/72/86 85/71/85 87/73/87
f 86/72/86 87/73/87 88/74/88
f 88/74/88 87/73/87 89/75/89
f 88/74/88 89/75/89 90/76/90
f 90/76/90 89/75/89 91/77/91
f 90/76/90 91/77/91 92/78/92
f 92/78/92 91/77/91 93/79/93
f 92/78/92 93/79/93 94/66/94
f 94/66/94 93/79/93 82/67/82
usemtl tex_1642_lit_w11
f 95/80/95 103/81/103 104/82/104
f 105/83/105 96/84/96 106/85/106
f 107/86/107 95/80/95 104/82/104
f 107/86/107 97/87/97 95/80/95
f 105/83/105 103/81/103 98/88/98
f 105/83/105 98/88/98 96/84/96
f 95/80/95 98/88/98 103/81/103
usemtl tex_1641_lit_w11
f 108/89/108 99/90/99 100/91/100
f 109/92/109 108/89/108 100/91/100
f 110/93/110 101/94/101 108/89/108
f 101/94/101 110/93/110 102/95/102
f 114/93/114 115/96/115 111/95/111
f 112/94/112 113/90/113 116/89/116
usemtl tex_1643_lit_w11
f 123/38/123 117/60/117 124/39/124
f 124/39/124 117/60/117 118/59/118
f 124/39/124 118/59/118 125/40/125
f 125/40/125 118/59/118 119/58/119
f 125/40/125 119/58/119 126/41/126
f 126/41/126 119/58/119 120/53/120
f 126/41/126 120/53/120 127/44/127
f 127/44/127 120/53/120 121/62/121
f 127/44/127 121/62/121 128/43/128
f 128/43/128 121/62/121 122/61/122
f 128/43/128 122/61/122 117/60/117
f 128/43/128 117/60/117 123/38/123
f 129/46/129 130/97/130 131/98/131
f 132/99/132 130/97/130 133/51/133
f 134/49/134 135/48/135 136/100/136
f 132/99/132 133/51/133 134/49/134
f 135/48/135 129/46/129 131/98/131
f 129/46/129 133/51/133 130/97/130
f 135/48/135 131/98/131 136/100/136
f 132/99/132 134/49/134 136/100/136
f 137/100/137 138/98/138 139/97/139
f 137/100/137 139/97/139 140/99/140
f 141/46/141 135/48/135 134/49/134
f 141/46/141 134/49/134 142/51/142
usemtl tex_1631_lit_w10
f 143/101/143 144/102/144 145/103/145
f 146/104/146 144/102/144 143/101/143
f 147/105/147 148/106/148 143/101/143
f 146/104/146 149/107/149 150/108/150
f 149/107/149 143/101/143 148/106/148
f 146/104/146 143/101/143 149/107/149
f 150/108/150 151/109/151 145/103/145
f 150/108/150 145/103/145 144/102/144
f 149/107/149 152/110/152 153/111/153
f 154/112/154 147/105/147 145/103/145
f 149/107/149 148/106/148 147/105/147
f 145/103/145 147/105/147 143/101/143
f 144/102/144 146/104/146 150/108/150
f 152/110/152 149/107/149 147/105/147
f 151/109/151 154/112/154 145/103/145
f 149/107/149 153/111/153 150/108/150
usemtl tex_1643_lit_w11
f 155/113/155 156/114/156 157/115/157
f 158/116/158 159/117/159 160/118/160
f 161/119/161 158/116/158 160/118/160
f 162/120/162 163/121/163 164/122/164
f 155/113/155 165/123/165 163/121/163
f 156/114/156 161/119/161 160/118/160
f 156/114/156 160/118/160 157/115/157
f 162/120/162 166/124/166 163/121/163
f 158/116/158 164/122/164 159/117/159
f 155/113/155 157/115/157 165/123/165
f 166/124/166 155/113/155 163/121/163
f 158/116/158 162/120/162 164/122/164
f 167/125/167 173/126/173 168/127/168
f 168/127/168 173/126/173 174/128/174
f 168/127/168 174/128/174 169/129/169
f 169/129/169 174/128/174 175/130/175
f 169/129/169 175/130/175 170/131/170
f 170/131/170 175/130/175 176/132/176
f 170/131/170 176/132/176 171/133/171
f 171/133/171 176/132/176 177/134/177
f 171/133/171 177/134/177 172/135/172
f 172/135/172 177/134/177 178/136/178
f 172/135/172 178/136/178 167/125/167
f 167/125/167 178/136/178 173/126/173
f 185/118/185 179/137/179 186/115/186
f 180/138/180 179/137/179 185/118/185
f 187/117/187 180/138/180 185/118/185
f 181/139/181 180/138/180 187/117/187
f 188/122/188 181/139/181 187/117/187
f 182/140/182 181/139/181 188/122/188
f 189/121/189 182/140/182 188/122/188
f 183/141/183 182/140/182 189/121/189
f 190/123/190 183/141/183 189/121/189
f 184/142/184 183/141/183 190/123/190
f 186/115/186 184/142/184 190/123/190
f 179/137/179 184/142/184 186/115/186
f 191/141/191 192/143/192 193/140/193
f 194/144/194 192/143/192 191/141/191
f 195/142/195 194/144/194 191/141/191
f 196/137/196 194/144/194 195/142/195
f 197/145/197 198/146/198 199/147/199
f 200/148/200 201/149/201 202/150/202
f 198/146/198 203/151/203 199/147/199
f 202/150/202 198/146/198 197/145/197
f 204/152/204 201/149/201 200/148/200
f 203/151/203 201/149/201 204/152/204
f 199/147/199 203/151/203 204/152/204
f 200/148/200 202/150/202 197/145/197
f 197/145/197 199/147/199 204/152/204
f 197/145/197 204/152/204 200/148/200
f 205/151/205 206/146/206 202/150/202
f 205/151/205 202/150/202 201/149/201
f 207/153/207 208/154/208 209/155/209
f 210/156/210 211/157/211 212/158/212
f 213/159/213 214/160/214 212/158/212
f 208/154/208 211/157/211 210/156/210
f 215/161/215 216/162/216 217/163/217
f 213/159/213 212/158/212 218/164/218
f 218/164/218 215/161/215 217/163/217
f 218/164/218 217/163/217 213/159/213
f 214/160/214 210/156/210 212/158/212
f 219/165/219 216/162/216 215/161/215
f 208/154/208 210/156/210 209/155/209
f 216/162/216 219/165/219 209/155/209
f 219/165/219 207/153/207 209/155/209
f 220/166/220 221/167/221 222/168/222
f 223/168/223 224/167/224 225/169/225
f 223/168/223 225/169/225 226/170/226
f 226/170/226 225/169/225 227/171/227
f 226/170/226 227/171/227 228/172/228
f 228/172/228 227/171/227 229/173/229
f 228/172/228 229/173/229 230/174/230
f 230/174/230 229/173/229 231/175/231
f 230/174/230 231/175/231 232/176/232
f 232/176/232 231/175/231 233/177/233
f 232/176/232 233/177/233 234/178/234
f 234/178/234 233/177/233 235/179/235
f 234/178/234 235/179/235 236/166/236
f 236/166/236 235/179/235 224/167/224
usemtl tex_1642_lit_w11
f 245/82/245 246/180/246 237/80/237
f 247/181/247 238/182/238 248/183/248
f 245/82/245 237/80/237 249/86/249
f 237/80/237 239/87/239 249/86/249
f 240/184/240 246/180/246 248/183/248
f 238/182/238 240/184/240 248/183/248
f 246/180/246 240/184/240 237/80/237
usemtl tex_1641_lit_w11
f 241/91/241 242/185/242 250/186/250
f 241/91/241 250/186/250 251/92/251
f 250/186/250 243/187/243 252/188/252
f 244/189/244 252/188/252 243/187/243
f 253/189/253 256/190/256 257/188/257
f 258/186/258 254/185/254 255/187/255
usemtl tex_1643_lit_w11
f 265/138/265 259/159/259 266/137/266
f 260/160/260 259/159/259 265/138/265
f 267/139/267 260/160/260 265/138/265
f 261/156/261 260/160/260 267/139/267
f 268/140/268 261/156/261 267/139/267
f 262/155/262 261/156/261 268/140/268
f 269/143/269 262/155/262 268/140/268
f 263/162/263 262/155/262 269/143/269
f 270/144/270 263/162/263 269/143/269
f 264/163/264 263/162/263 270/144/270
f 266/137/266 264/163/264 270/144/270
f 259/159/259 264/163/264 266/137/266
f 271/191/271 272/192/272 273/146/273
f 274/151/274 272/192/272 275/193/275
f 276/194/276 277/150/277 278/149/278
f 278/149/278 274/151/274 275/193/275
f 271/191/271 273/146/273 277/150/277
f 272/192/272 274/151/274 273/146/273
f 276/194/276 271/191/271 277/150/277
f 276/194/276 278/149/278 275/193/275
f 279/193/279 280/192/280 281/191/281
f 279/193/279 281/191/281 282/194/282
f 283/151/283 278/149/278 277/150/277
f 283/151/283 277/150/277 284/146/284
usemtl tex_1555_lit
f 285/195/285 289/196/289 290/197/290
f 286/198/286 291/199/291 292/200/292
f 286/198/286 285/195/285 293/201/293
f 285/195/285 294/202/294 293/201/293
f 286/198/286 292/200/292 287/203/287
f 287/203/287 295/204/295 296/205/296
f 287/203/287 297/206/297 295/204/295
f 285/195/285 290/197/290 294/202/294
f 286/198/286 293/201/293 291/199/291
f 292/200/292 297/206/297 287/203/287
usemtl tex_2007_lit
f 288/207/288 298/208/298 299/209/299
f 300/210/300 304/211/304 305/212/305
f 301/213/301 306/214/306 300/210/300
f 300/210/300 306/214/306 304/211/304
f 305/212/305 307/215/307 302/216/302
f 303/207/303 308/209/308 301/213/301
f 308/209/308 306/214/306 301/213/301
f 300/210/300 305/212/305 302/216/302
usemtl tex_1609_lit
f 309/217/309 310/218/310 311/219/311
f 312/220/312 310/218/310 309/217/309
usemtl tex_1613_lit_w11
f 313/221/313 314/222/314 315/223/315
f 314/222/314 316/224/316 315/223/315
f 313/221/313 315/223/315 317/225/317
usemtl tex_1619_lit_w11
f 318/226/318 319/227/319 320/228/320
f 321/229/321 319/227/319 318/226/318
usemtl tex_1622_lit_w11
f 322/230/322 323/231/323 324/232/324
f 325/233/325 326/234/326 327/230/327
f 325/233/325 327/230/327 328/232/328
usemtl tex_1616_lit_w11
f 329/235/329 330/236/330 331/237/331
f 332/238/332 330/236/330 329/235/329
usemtl tex_1640_lit_w11
f 333/239/333 334/240/334 335/241/335
f 336/242/336 337/243/337 338/244/338
f 339/245/339 340/246/340 341/247/341
f 337/243/337 333/239/333 335/241/335
f 336/242/336 338/244/338 340/246/340
usemtl tex_1640_lit_w11_ovl
f 333/239/333 342/248/342 334/240/334
usemtl tex_1640_lit_w11
f 339/245/339 336/242/336 340/246/340
f 343/249/343 344/250/344 342/248/342
f 337/243/337 335/241/335 338/244/338
f 343/249/343 339/245/339 341/247/341
f 343/249/343 341/247/341 344/250/344
f 344/250/344 334/240/334 342/248/342
usemtl tex_1604_lit
f 345/251/345 351/252/351 346/253/346
f 346/253/346 351/252/351 352/254/352
f 346/253/346 352/254/352 347/255/347
f 347/255/347 352/254/352 353/256/353
f 347/255/347 353/256/353 348/257/348
f 348/257/348 353/256/353 354/258/354
f 348/257/348 354/258/354 349/259/349
f 349/259/349 354/258/354 355/260/355
f 349/259/349 355/260/355 350/261/350
f 350/261/350 355/260/355 356/262/356
f 350/261/350 356/262/356 345/251/345
f 345/251/345 356/262/356 351/252/351
usemtl tex_1640_lit_w11
f 363/263/363 357/264/357 364/265/364
f 364/265/364 357/264/357 358/266/358
f 364/265/364 358/266/358 365/267/365
f 365/267/365 358/266/358 359/268/359
f 365/267/365 359/268/359 366/269/366
f 366/269/366 359/268/359 360/270/360
f 366/269/366 360/270/360 367/271/367
f 367/271/367 360/270/360 361/272/361
f 367/271/367 361/272/361 368/273/368
f 368/273/368 361/272/361 362/274/362
f 368/273/368 362/274/362 363/263/363
f 363/263/363 362/274/362 357/264/357
f 369/275/369 370/276/370 371/277/371
f 372/278/372 373/279/373 369/275/369
f 374/280/374 370/276/370 375/281/375
f 376/282/376 375/281/375 372/278/372
f 375/281/375 373/279/373 372/278/372
f 374/280/374 371/277/371 370/276/370
f 372/278/372 369/275/369 371/277/371
f 376/282/376 374/280/374 375/281/375
f 370/276/370 369/275/369 373/279/373
f 370/276/370 373/279/373 375/281/375
f 377/283/377 378/284/378 379/285/379
f 377/283/377 380/286/380 381/287/381
f 382/288/382 383/289/383 384/290/384
f 377/283/377 379/285/379 380/286/380
f 378/284/378 382/288/382 384/290/384
f 385/291/385 382/288/382 378/284/378
f 380/286/380 383/289/383 386/292/386
f 377/283/377 385/291/385 378/284/378
f 382/288/382 387/293/387 383/289/383
f 383/289/383 387/293/387 386/292/386
f 381/287/381 380/286/380 386/292/386
f 393/284/393 388/294/388 394/285/394
f 389/295/389 388/294/388 393/284/393
f 395/290/395 389/295/389 393/284/393
f 390/296/390 389/295/389 395/290/395
f 396/289/396 390/296/390 395/290/395
f 391/297/391 390/296/390 396/289/396
f 397/286/397 391/297/391 396/289/396
f 392/298/392 391/297/391 397/286/397
f 394/285/394 392/298/392 397/286/397
f 388/294/388 392/298/392 394/285/394
f 404/264/404 398/293/398 405/266/405
f 405/266/405 398/293/398 399/288/399
f 405/266/405 399/288/399 406/268/406
f 406/268/406 399/288/399 400/291/400
f 406/268/406 400/291/400 407/270/407
f 407/270/407 400/291/400 401/283/401
f 407/270/407 401/283/401 408/272/408
f 408/272/408 401/283/401 402/287/402
f 408/272/408 402/287/402 409/274/409
f 409/274/409 402/287/402 403/292/403
f 409/274/409 403/292/403 404/264/404
f 404/264/404 403/292/403 398/293/398
f 410/299/410 411/300/411 412/301/412
f 412/301/412 413/302/413 410/299/410
f 414/275/414 415/301/415 416/300/416
f 414/275/414 410/299/410 417/276/417
f 414/275/414 416/300/416 410/299/410
f 415/301/415 418/281/418 413/302/413
f 419/279/419 418/281/418 415/301/415
f 410/299/410 413/302/413 417/276/417
f 414/275/414 419/279/419 415/301/415
f 418/281/418 417/276/417 413/302/413
f 418/281/418 419/279/419 414/275/414
f 418/281/418 414/275/414 417/276/417
usemtl tex_1609_lit
f 420/303/420 421/304/421 422/305/422
f 422/305/422 421/304/421 423/306/423
usemtl tex_1613_lit_w11
f 424/307/424 425/308/425 426/309/426
f 425/308/425 427/310/427 428/311/428
f 425/308/425 428/311/428 426/309/426
usemtl tex_1619_lit_w11
f 429/312/429 430/313/430 431/314/431
f 431/314/431 430/313/430 432/315/432
usemtl tex_1622_lit_w11
f 433/316/433 434/317/434 435/318/435
f 436/319/436 437/320/437 438/316/438
f 436/319/436 438/316/438 439/318/439
usemtl tex_1616_lit_w11
f 440/321/440 441/322/441 442/323/442
f 442/323/442 441/322/441 443/324/443
usemtl tex_1640_lit_w11
f 444/325/444 445/326/445 446/327/446
f 447/328/447 448/329/448 449/330/449
f 450/331/450 451/332/451 452/333/452
f 444/325/444 446/327/446 448/329/448
f 451/332/451 447/328/447 449/330/449
f 445/326/445 453/334/453 446/327/446
f 451/332/451 449/330/449 452/333/452
f 453/334/453 454/335/454 455/336/455
f 447/328/447 444/325/444 448/329/448
f 450/331/450 452/333/452 455/336/455
usemtl tex_1640_lit_w11_ovl
f 454/335/454 450/331/450 455/336/455
usemtl tex_1640_lit_w11
f 453/334/453 445/326/445 454/335/454
usemtl tex_1604_lit
f 462/337/462 456/338/456 463/339/463
f 457/340/457 456/338/456 462/337/462
f 464/341/464 457/340/457 462/337/462
f 458/342/458 457/340/457 464/341/464
f 465/343/465 458/342/458 464/341/464
f 459/344/459 458/342/458 465/343/465
f 466/345/466 459/344/459 465/343/465
f 460/346/460 459/344/459 466/345/466
f 467/347/467 460/346/460 466/345/466
f 461/348/461 460/346/460 467/347/467
f 463/339/463 461/348/461 467/347/467
f 456/338/456 461/348/461 463/339/463
usemtl tex_1640_lit_w11
f 474/349/474 468/350/468 475/351/475
f 475/351/475 468/350/468 469/352/469
f 475/351/475 469/352/469 476/353/476
f 476/353/476 469/352/469 470/354/470
f 476/353/476 470/354/470 477/355/477
f 477/355/477 470/354/470 471/356/471
f 477/355/477 471/356/471 478/357/478
f 478/357/478 471/356/471 472/358/472
f 478/357/478 472/358/472 479/359/479
f 479/359/479 472/358/472 473/360/473
f 479/359/479 473/360/473 474/349/474
f 474/349/474 473/360/473 468/350/468
f 480/361/480 481/362/481 482/363/482
f 482/363/482 483/364/483 484/365/484
f 485/366/485 481/362/481 486/367/486
f 484/365/484 485/366/485 487/368/487
f 484/365/484 483/364/483 485/366/485
f 481/362/481 480/361/480 486/367/486
f 480/361/480 482/363/482 484/365/484
f 485/366/485 486/367/486 487/368/487
f 482/363/482 481/362/481 485/366/485
f 482/363/482 485/366/485 483/364/483
f 488/369/488 489/370/489 490/371/490
f 491/372/491 492/373/492 490/371/490
f 493/374/493 494/375/494 495/376/495
f 492/373/492 488/369/488 490/371/490
f 493/374/493 495/376/495 489/370/489
f 489/370/489 495/376/495 496/377/496
f 497/378/497 494/375/494 492/373/492
f 489/370/489 496/377/496 490/371/490
f 494/375/494 498/379/498 495/376/495
f 497/378/497 498/379/498 494/375/494
f 497/378/497 492/373/492 491/372/491
f 504/369/504 499/380/499 505/370/505
f 505/370/505 499/380/499 500/381/500
f 505/370/505 500/381/500 506/374/506
f 506/374/506 500/381/500 501/382/501
f 506/374/506 501/382/501 507/375/507
f 507/375/507 501/382/501 502/383/502
f 507/375/507 502/383/502 508/373/508
f 508/373/508 502/383/502 503/384/503
f 508/373/508 503/384/503 504/369/504
f 504/369/504 503/384/503 499/380/499
f 515/352/515 509/379/509 516/354/516
f 510/376/510 509/379/509 515/352/515
f 517/350/517 510/376/510 515/352/515
f 511/377/511 510/376/510 517/350/517
f 518/360/518 511/377/511 517/350/517
f 512/371/512 511/377/511 518/360/518
f 519/358/519 512/371/512 518/360/518
f 513/372/513 512/371/512 519/358/519
f 520/356/520 513/372/513 519/358/519
f 514/378/514 513/372/513 520/356/520
f 516/354/516 514/378/514 520/356/520
f 509/379/509 514/378/514 516/354/516
f 521/385/521 522/386/522 523/363/523
f 524/362/524 525/387/525 523/363/523
f 525/387/525 521/385/521 523/363/523
f 526/388/526 527/366/527 522/386/522
f 522/386/522 527/366/527 528/364/528
f 524/362/524 526/388/526 525/387/525
f 522/386/522 528/364/528 523/363/523
f 526/388/526 524/362/524 527/366/527
f 529/385/529 525/387/525 526/388/526
f 526/388/526 530/386/530 529/385/529
f 528/364/528 527/366/527 524/362/524
f 528/364/528 524/362/524 523/363/523
usemtl tex_1642_lit_w11
f 531/389/531 532/390/532 533/391/533
f 534/392/534 535/393/535 536/394/536
f 537/395/537 538/396/538 539/397/539
f 532/390/532 536/394/536 540/398/540
f 532/390/532 540/398/540 541/399/541
f 542/400/542 531/389/531 533/391/533
f 533/391/533 532/390/532 541/399/541
f 542/400/542 533/391/533 543/401/543
f 532/390/532 534/392/534 536/394/536
f 544/402/544 545/403/545 534/392/534
f 535/393/535 534/392/534 545/403/545
f 542/400/542 543/401/543 546/404/546
f 533/391/533 541/399/541 543/401/543
f 539/397/539 544/402/544 532/390/532
f 547/405/547 548/402/548 549/397/549
f 550/395/550 549/397/549 551/390/551
f 548/402/548 552/392/552 551/390/551
f 553/389/553 554/406/554 551/390/551
f 553/389/553 555/407/555 554/406/554
f 556/396/556 547/405/547 549/397/549
f 555/407/555 557/408/557 554/406/554
f 550/395/550 551/390/551 554/406/554
f 557/408/557 550/395/550 554/406/554
f 558/409/558 559/393/559 560/403/560
usemtl tex_1641_lit_w11
f 561/410/561 562/411/562 563/412/563
f 564/413/564 561/410/561 565/414/565
f 566/415/566 567/416/567 568/417/568
f 561/410/561 569/418/569 570/419/570
f 561/410/561 563/412/563 569/418/569
f 571/420/571 562/411/562 561/410/561
f 572/421/572 564/413/564 573/422/573
f 564/413/564 574/423/574 571/420/571
f 575/424/575 576/425/576 577/426/577
f 578/419/578 577/426/577 576/425/576
f 579/413/579 580/427/580 581/428/581
f 582/422/582 579/413/579 583/414/583
f 582/422/582 583/414/583 576/425/576
f 584/416/584 582/422/582 576/425/576
f 583/414/583 578/419/578 576/425/576
f 584/416/584 585/415/585 586/421/586
f 587/423/587 579/413/579 581/428/581
f 588/412/588 589/429/589 590/418/590
f 579/413/579 586/421/586 580/427/580
f 591/428/591 592/427/592 593/430/593
f 594/416/594 595/421/595 596/422/596
f 597/414/597 598/410/598 599/419/599
f 600/413/600 601/420/601 598/410/598
usemtl tex_1642_lit_w11
f 602/431/602 610/401/610 603/432/603
f 603/432/603 610/401/610 611/399/611
f 603/432/603 611/399/611 604/433/604
f 604/433/604 611/399/611 612/398/612
f 604/433/604 612/398/612 605/434/605
f 605/434/605 612/398/612 613/394/613
f 605/434/605 613/394/613 606/435/606
f 606/435/606 613/394/613 614/393/614
usemtl tex_1641_lit_w11
f 607/436/607 615/429/615 608/437/608
f 608/437/608 615/429/615 616/412/616
f 608/437/608 616/412/616 609/438/609
f 609/438/609 616/412/616 617/411/617
f 618/438/618 623/411/623 619/439/619
f 619/439/619 623/411/623 624/420/624
f 619/439/619 624/420/624 620/440/620
f 620/440/620 624/420/624 625/423/625
f 620/440/620 625/423/625 621/441/621
f 621/441/621 625/423/625 626/428/626
f 621/441/621 626/428/626 622/442/622
f 622/442/622 626/428/626 627/430/627
usemtl tex_1642_lit_w11
f 628/443/628 629/444/629 630/445/630
f 631/443/631 632/446/632 633/447/633
f 629/444/629 628/443/628 634/448/634
f 635/449/635 636/446/636 637/444/637
f 638/450/638 639/448/639 640/447/640
f 631/443/631 641/445/641 632/446/632
f 636/446/636 641/445/641 629/444/629
f 642/443/642 640/447/640 639/448/639
f 643/451/643 644/452/644 645/453/645
f 644/452/644 646/454/646 645/453/645
usemtl tex_1641_lit_w11
f 647/455/647 648/456/648 649/457/649
f 650/458/650 647/455/647 649/457/649
usemtl tex_1642_lit_w11
f 651/459/651 652/184/652 653/182/653
f 654/460/654 655/88/655 656/80/656
f 657/461/657 651/459/651 653/182/653
f 652/184/652 654/460/654 656/80/656
f 651/459/651 654/460/654 652/184/652
f 654/460/654 658/462/658 655/88/655
f 658/462/658 659/463/659 660/84/660
f 655/88/655 658/462/658 660/84/660
usemtl tex_1641_lit_w11
f 661/464/661 662/187/662 663/185/663
f 661/464/661 664/465/664 665/189/665
f 666/466/666 667/91/667 668/467/668
f 666/466/666 669/185/669 667/91/667
f 670/94/670 671/95/671 672/468/672
f 673/187/673 674/464/674 675/189/675
f 667/91/667 676/90/676 668/467/668
f 676/90/676 677/469/677 668/467/668
f 670/94/670 678/470/678 676/90/676
f 678/470/678 670/94/670 672/468/672
f 666/466/666 674/464/674 669/185/669
f 678/470/678 677/469/677 676/90/676
usemtl tex_1642_lit_w11
f 679/461/679 687/431/687 680/459/680
f 680/459/680 687/431/687 688/432/688
f 680/459/680 688/432/688 681/460/681
f 681/460/681 688/432/688 689/433/689
f 681/460/681 689/433/689 682/462/682
f 682/462/682 689/433/689 690/434/690
f 682/462/682 690/434/690 683/471/683
f 683/471/683 690/434/690 691/435/691
usemtl tex_1641_lit_w11
f 684/472/684 692/436/692 685/470/685
f 685/470/685 692/436/692 693/437/693
f 685/470/685 693/437/693 686/469/686
f 686/469/686 693/437/693 694/438/694
f 695/469/695 700/438/700 696/473/696
f 696/473/696 700/438/700 701/439/701
f 696/473/696 701/439/701 697/466/697
f 697/466/697 701/439/701 702/440/702
f 697/466/697 702/440/702 698/464/698
f 698/464/698 702/440/702 703/441/703
f 698/464/698 703/441/703 699/465/699
f 699/465/699 703/441/703 704/442/704
usemtl tex_1642_lit_w11
f 705/446/705 706/474/706 707/475/707
f 706/474/706 708/449/708 709/476/709
f 706/474/706 705/446/705 708/449/708
f 710/477/710 711/450/711 712/475/712
f 712/475/712 711/450/711 713/447/713
f 714/447/714 705/446/705 707/475/707
f 715/451/715 716/454/716 717/452/717
f 715/451/715 718/453/718 716/454/716
f 719/477/719 720/475/720 721/474/721
f 719/477/719 721/474/721 722/476/722
usemtl tex_1641_lit_w11
f 723/478/723 724/457/724 725/456/725
f 723/478/723 725/456/725 726/479/726
