mtllib CtechwomanZ.mtl
v -237.64505004882812 354.05796098709106 34.0 1.000 1.000 1.000
v -185.64505004882812 387.05796098709106 8.0 1.000 1.000 1.000
v -191.64505004882812 386.05796098709106 -37.0 1.000 1.000 1.000
v -288.6450500488281 387.05796098709106 8.0 1.000 1.000 1.000
v -285.6450500488281 386.05796098709106 -40.0 1.000 1.000 1.000
v -232.64505004882812 385.05796098709106 -49.0 1.000 1.000 1.000
v -232.64505004882812 385.05796098709106 -49.0 1.000 1.000 1.000
v -5.180775880813599 409.7913818359375 42.0 1.000 1.000 1.000
v -50.1807758808136 426.7913818359375 13.0 1.000 1.000 1.000
v 29.8192241191864 414.7913818359375 -37.0 1.000 1.000 1.000
v 46.8192241191864 425.7913818359375 13.0 1.000 1.000 1.000
v -35.1807758808136 415.7913818359375 -36.0 1.000 1.000 1.000
v 357.8535461425781 -40.800405994057655 74.43481492996216 1.000 1.000 1.000
v 241.85354614257812 -27.800405994057655 50.43481492996216 1.000 1.000 1.000
v 354.8535461425781 -42.800405994057655 -26.565185070037842 1.000 1.000 1.000
v 244.85354614257812 -26.800405994057655 -14.565185070037842 1.000 1.000 1.000
v 331.8535461425781 33.199594005942345 -29.565185070037842 1.000 1.000 1.000
v 354.8535461425781 -42.800405994057655 -26.565185070037842 1.000 1.000 1.000
v 247.85354614257812 12.199594005942345 -14.565185070037842 1.000 1.000 1.000
v 244.85354614257812 -26.800405994057655 -14.565185070037842 1.000 1.000 1.000
v 241.85354614257812 -27.800405994057655 50.43481492996216 1.000 1.000 1.000
v 357.8535461425781 -40.800405994057655 74.43481492996216 1.000 1.000 1.000
v 244.85354614257812 14.199594005942345 48.43481492996216 1.000 1.000 1.000
v 334.8535461425781 34.199594005942345 71.43481492996216 1.000 1.000 1.000
v 247.85354614257812 12.199594005942345 -14.565185070037842 1.000 1.000 1.000
v 244.85354614257812 14.199594005942345 48.43481492996216 1.000 1.000 1.000
v 331.8535461425781 33.199594005942345 -29.565185070037842 1.000 1.000 1.000
v 334.8535461425781 34.199594005942345 71.43481492996216 1.000 1.000 1.000
v 354.8535461425781 -42.800405994057655 -26.565185070037842 1.000 1.000 1.000
v 331.8535461425781 33.199594005942345 -29.565185070037842 1.000 1.000 1.000
v 357.8535461425781 -40.800405994057655 74.43481492996216 1.000 1.000 1.000
v 334.8535461425781 34.199594005942345 71.43481492996216 1.000 1.000 1.000
v 451.1281793117523 308.613338470459 53.13340711593628 1.000 1.000 1.000
v 452.1281793117523 312.613338470459 -36.86659288406372 1.000 1.000 1.000
v 415.1281793117523 384.613338470459 45.13340711593628 1.000 1.000 1.000
v 430.1281793117523 373.613338470459 -38.86659288406372 1.000 1.000 1.000
v 241.85354614257812 -27.800405994057655 50.43481492996216 1.000 1.000 1.000
v 244.85354614257812 14.199594005942345 48.43481492996216 1.000 1.000 1.000
v 247.85354614257812 12.199594005942345 -14.565185070037842 1.000 1.000 1.000
v 244.85354614257812 -26.800405994057655 -14.565185070037842 1.000 1.000 1.000
v 379.1281793117523 358.613338470459 -36.86659288406372 1.000 1.000 1.000
v 377.1281793117523 314.613338470459 -32.86659288406372 1.000 1.000 1.000
v 338.1281793117523 379.613338470459 -7.866592884063721 1.000 1.000 1.000
v 377.1281793117523 372.613338470459 -35.86659288406372 1.000 1.000 1.000
v 377.1281793117523 380.613338470459 25.13340711593628 1.000 1.000 1.000
v 373.1281793117523 354.613338470459 45.13340711593628 1.000 1.000 1.000
v 380.1281793117523 312.613338470459 14.13340711593628 1.000 1.000 1.000
v 375.1281793117523 310.613338470459 50.13340711593628 1.000 1.000 1.000
v 452.1281793117523 312.613338470459 -36.86659288406372 1.000 1.000 1.000
v 430.1281793117523 373.613338470459 -38.86659288406372 1.000 1.000 1.000
v 415.1281793117523 384.613338470459 45.13340711593628 1.000 1.000 1.000
v 451.1281793117523 308.613338470459 53.13340711593628 1.000 1.000 1.000
v 175.19435667991638 286.83526611328125 -43.0 1.000 1.000 1.000
v 328.1943566799164 308.83526611328125 -29.0 1.000 1.000 1.000
v 325.1943566799164 304.83526611328125 47.0 1.000 1.000 1.000
v 176.19435667991638 274.83526611328125 48.0 1.000 1.000 1.000
v 97.19435667991638 335.83526611328125 -48.0 1.000 1.000 1.000
v 87.19435667991638 340.83526611328125 -8.0 1.000 1.000 1.000
v 132.19435667991638 355.83526611328125 50.0 1.000 1.000 1.000
v 277.1943566799164 372.83526611328125 22.0 1.000 1.000 1.000
v 91.19435667991638 344.83526611328125 22.0 1.000 1.000 1.000
v 335.1943566799164 371.83526611328125 -37.0 1.000 1.000 1.000
v -115.64505004882812 247.05796098709106 49.0 1.000 1.000 1.000
v -104.64505004882812 250.05796098709106 -44.0 1.000 1.000 1.000
v -106.64505004882812 319.05796098709106 50.0 1.000 1.000 1.000
v -104.64505004882812 363.05796098709106 14.0 1.000 1.000 1.000
v -105.64505004882812 359.05796098709106 -31.0 1.000 1.000 1.000
v -107.64505004882812 325.05796098709106 -58.0 1.000 1.000 1.000
v -104.64505004882812 250.05796098709106 -44.0 1.000 1.000 1.000
v 176.19435667991638 274.83526611328125 48.0 1.000 1.000 1.000
v 132.19435667991638 355.83526611328125 50.0 1.000 1.000 1.000
v 91.19435667991638 344.83526611328125 22.0 1.000 1.000 1.000
v 87.19435667991638 340.83526611328125 -8.0 1.000 1.000 1.000
v 97.19435667991638 335.83526611328125 -48.0 1.000 1.000 1.000
v 175.19435667991638 286.83526611328125 -43.0 1.000 1.000 1.000
v 176.19435667991638 274.83526611328125 48.0 1.000 1.000 1.000
v 175.19435667991638 286.83526611328125 -43.0 1.000 1.000 1.000
v 328.1943566799164 308.83526611328125 -29.0 1.000 1.000 1.000
v 335.1943566799164 371.83526611328125 -37.0 1.000 1.000 1.000
v 277.1943566799164 372.83526611328125 22.0 1.000 1.000 1.000
v 325.1943566799164 304.83526611328125 47.0 1.000 1.000 1.000
v 377.1281793117523 314.613338470459 -32.86659288406372 1.000 1.000 1.000
v 380.1281793117523 312.613338470459 14.13340711593628 1.000 1.000 1.000
v 379.1281793117523 358.613338470459 -36.86659288406372 1.000 1.000 1.000
v 377.1281793117523 372.613338470459 -35.86659288406372 1.000 1.000 1.000
v 338.1281793117523 379.613338470459 -7.866592884063721 1.000 1.000 1.000
v 377.1281793117523 380.613338470459 25.13340711593628 1.000 1.000 1.000
v 373.1281793117523 354.613338470459 45.13340711593628 1.000 1.000 1.000
v 375.1281793117523 310.613338470459 50.13340711593628 1.000 1.000 1.000
v -708.1426336765289 349.30131578445435 -29.0 1.000 1.000 1.000
v -596.1426336765289 355.30131578445435 51.0 1.000 1.000 1.000
v -713.1426336765289 350.30131578445435 72.0 1.000 1.000 1.000
v -596.1426336765289 356.30131578445435 -16.0 1.000 1.000 1.000
v -599.1426336765289 396.30131578445435 -15.0 1.000 1.000 1.000
v -708.1426336765289 349.30131578445435 -29.0 1.000 1.000 1.000
v -681.1426336765289 424.30131578445435 -30.0 1.000 1.000 1.000
v -596.1426336765289 356.30131578445435 -16.0 1.000 1.000 1.000
v -598.1426336765289 398.30131578445435 50.0 1.000 1.000 1.000
v -713.1426336765289 350.30131578445435 72.0 1.000 1.000 1.000
v -596.1426336765289 355.30131578445435 51.0 1.000 1.000 1.000
v -685.1426336765289 424.30131578445435 71.0 1.000 1.000 1.000
v -681.1426336765289 424.30131578445435 -30.0 1.000 1.000 1.000
v -598.1426336765289 398.30131578445435 50.0 1.000 1.000 1.000
v -599.1426336765289 396.30131578445435 -15.0 1.000 1.000 1.000
v -685.1426336765289 424.30131578445435 71.0 1.000 1.000 1.000
v -713.1426336765289 350.30131578445435 72.0 1.000 1.000 1.000
v -681.1426336765289 424.30131578445435 -30.0 1.000 1.000 1.000
v -708.1426336765289 349.30131578445435 -29.0 1.000 1.000 1.000
v -685.1426336765289 424.30131578445435 71.0 1.000 1.000 1.000
v -402.4975836277008 328.2433547973633 -43.0 1.000 1.000 1.000
v -446.4975836277008 327.2433547973633 48.0 1.000 1.000 1.000
v -409.4975836277008 400.2433547973633 42.0 1.000 1.000 1.000
v -422.4975836277008 392.2433547973633 -39.0 1.000 1.000 1.000
v -596.1426336765289 355.30131578445435 51.0 1.000 1.000 1.000
v -598.1426336765289 398.30131578445435 50.0 1.000 1.000 1.000
v -599.1426336765289 396.30131578445435 -15.0 1.000 1.000 1.000
v -596.1426336765289 356.30131578445435 -16.0 1.000 1.000 1.000
v -372.4975836277008 394.2433547973633 35.0 1.000 1.000 1.000
v -373.4975836277008 390.2433547973633 -7.0 1.000 1.000 1.000
v -372.4975836277008 375.2433547973633 -37.0 1.000 1.000 1.000
v -349.4975836277008 330.2433547973633 -31.0 1.000 1.000 1.000
v -370.4975836277008 330.2433547973633 -3.0 1.000 1.000 1.000
v -368.4975836277008 328.2433547973633 42.0 1.000 1.000 1.000
v -369.4975836277008 367.2433547973633 41.0 1.000 1.000 1.000
v -371.4975836277008 368.2433547973633 -35.0 1.000 1.000 1.000
v -409.4975836277008 400.2433547973633 42.0 1.000 1.000 1.000
v -422.4975836277008 392.2433547973633 -39.0 1.000 1.000 1.000
v -402.4975836277008 328.2433547973633 -43.0 1.000 1.000 1.000
v -446.4975836277008 327.2433547973633 48.0 1.000 1.000 1.000
v -319.72538208961487 322.7815246582031 43.0 1.000 1.000 1.000
v -321.72538208961487 326.7815246582031 -31.0 1.000 1.000 1.000
v -165.72538208961487 296.7815246582031 -41.0 1.000 1.000 1.000
v -169.72538208961487 300.7815246582031 47.0 1.000 1.000 1.000
v -84.72538208961487 360.7815246582031 -47.0 1.000 1.000 1.000
v -326.72538208961487 385.7815246582031 -39.0 1.000 1.000 1.000
v -271.72538208961487 389.7815246582031 22.0 1.000 1.000 1.000
v -134.72538208961487 372.7815246582031 49.0 1.000 1.000 1.000
v -79.72538208961487 362.7815246582031 -15.0 1.000 1.000 1.000
v -83.72538208961487 366.7815246582031 23.0 1.000 1.000 1.000
v -369.6450500488281 363.05796098709106 -31.0 1.000 1.000 1.000
v -367.6450500488281 366.05796098709106 15.0 1.000 1.000 1.000
v -364.6450500488281 326.05796098709106 53.0 1.000 1.000 1.000
v -367.6450500488281 256.05796098709106 49.0 1.000 1.000 1.000
v -357.6450500488281 259.05796098709106 -42.0 1.000 1.000 1.000
v -368.6450500488281 332.05796098709106 -61.0 1.000 1.000 1.000
v -367.6450500488281 256.05796098709106 49.0 1.000 1.000 1.000
v -357.6450500488281 259.05796098709106 -42.0 1.000 1.000 1.000
v -79.72538208961487 362.7815246582031 -15.0 1.000 1.000 1.000
v -83.72538208961487 366.7815246582031 23.0 1.000 1.000 1.000
v -134.72538208961487 372.7815246582031 49.0 1.000 1.000 1.000
v -169.72538208961487 300.7815246582031 47.0 1.000 1.000 1.000
v -165.72538208961487 296.7815246582031 -41.0 1.000 1.000 1.000
v -84.72538208961487 360.7815246582031 -47.0 1.000 1.000 1.000
v -165.72538208961487 296.7815246582031 -41.0 1.000 1.000 1.000
v -321.72538208961487 326.7815246582031 -31.0 1.000 1.000 1.000
v -326.72538208961487 385.7815246582031 -39.0 1.000 1.000 1.000
v -271.72538208961487 389.7815246582031 22.0 1.000 1.000 1.000
v -319.72538208961487 322.7815246582031 43.0 1.000 1.000 1.000
v -371.4975836277008 368.2433547973633 -35.0 1.000 1.000 1.000
v -349.4975836277008 330.2433547973633 -31.0 1.000 1.000 1.000
v -373.4975836277008 390.2433547973633 -7.0 1.000 1.000 1.000
v -372.4975836277008 375.2433547973633 -37.0 1.000 1.000 1.000
v -369.4975836277008 367.2433547973633 41.0 1.000 1.000 1.000
v -372.4975836277008 394.2433547973633 35.0 1.000 1.000 1.000
v -370.4975836277008 330.2433547973633 -3.0 1.000 1.000 1.000
v -368.4975836277008 328.2433547973633 42.0 1.000 1.000 1.000
v -296.6450500488281 141.05796098709106 105.0 1.000 1.000 1.000
v -307.6450500488281 180.05796098709106 140.0 1.000 1.000 1.000
v -367.6450500488281 192.05796098709106 79.0 1.000 1.000 1.000
v -320.6450500488281 289.05796098709106 98.0 1.000 1.000 1.000
v -237.64505004882812 207.05796098709106 116.0 1.000 1.000 1.000
v -162.64505004882812 289.05796098709106 98.0 1.000 1.000 1.000
v -102.64505004882812 192.05796098709106 80.0 1.000 1.000 1.000
v -115.64505004882812 247.05796098709106 49.0 1.000 1.000 1.000
v -126.64505004882812 208.05796098709106 120.0 1.000 1.000 1.000
v -167.64505004882812 181.05796098709106 141.0 1.000 1.000 1.000
v -167.64505004882812 181.05796098709106 141.0 1.000 1.000 1.000
v -164.64505004882812 142.05796098709106 105.0 1.000 1.000 1.000
v -288.6450500488281 387.05796098709106 8.0 1.000 1.000 1.000
v -369.6450500488281 363.05796098709106 -31.0 1.000 1.000 1.000
v -367.6450500488281 366.05796098709106 15.0 1.000 1.000 1.000
v -238.64505004882812 149.05796098709106 112.0 1.000 1.000 1.000
v -102.64505004882812 192.05796098709106 80.0 1.000 1.000 1.000
v -132.64505004882812 113.05796098709106 -12.0 1.000 1.000 1.000
v -115.64505004882812 247.05796098709106 49.0 1.000 1.000 1.000
v -307.6450500488281 180.05796098709106 140.0 1.000 1.000 1.000
v -359.6450500488281 207.05796098709106 120.0 1.000 1.000 1.000
v -367.6450500488281 192.05796098709106 79.0 1.000 1.000 1.000
v -288.6450500488281 387.05796098709106 8.0 1.000 1.000 1.000
v -285.6450500488281 386.05796098709106 -40.0 1.000 1.000 1.000
v -369.6450500488281 363.05796098709106 -31.0 1.000 1.000 1.000
v -232.64505004882812 385.05796098709106 -49.0 1.000 1.000 1.000
v -367.6450500488281 256.05796098709106 49.0 1.000 1.000 1.000
v -296.6450500488281 141.05796098709106 105.0 1.000 1.000 1.000
v -340.6450500488281 112.05796098709106 -12.0 1.000 1.000 1.000
v -126.64505004882812 208.05796098709106 120.0 1.000 1.000 1.000
v -167.64505004882812 181.05796098709106 141.0 1.000 1.000 1.000
v -237.64505004882812 207.05796098709106 116.0 1.000 1.000 1.000
v -167.64505004882812 181.05796098709106 141.0 1.000 1.000 1.000
v -162.64505004882812 289.05796098709106 98.0 1.000 1.000 1.000
v -232.64505004882812 385.05796098709106 -49.0 1.000 1.000 1.000
v -191.64505004882812 386.05796098709106 -37.0 1.000 1.000 1.000
v -105.64505004882812 359.05796098709106 -31.0 1.000 1.000 1.000
v -185.64505004882812 387.05796098709106 8.0 1.000 1.000 1.000
v -132.64505004882812 113.05796098709106 -12.0 1.000 1.000 1.000
v -104.64505004882812 250.05796098709106 -44.0 1.000 1.000 1.000
v -115.64505004882812 247.05796098709106 49.0 1.000 1.000 1.000
v -320.6450500488281 289.05796098709106 98.0 1.000 1.000 1.000
v -237.64505004882812 354.05796098709106 34.0 1.000 1.000 1.000
v -288.6450500488281 387.05796098709106 8.0 1.000 1.000 1.000
v -367.6450500488281 192.05796098709106 79.0 1.000 1.000 1.000
v -367.6450500488281 256.05796098709106 49.0 1.000 1.000 1.000
v -340.6450500488281 112.05796098709106 -12.0 1.000 1.000 1.000
v -167.64505004882812 181.05796098709106 141.0 1.000 1.000 1.000
v -238.64505004882812 149.05796098709106 112.0 1.000 1.000 1.000
v -164.64505004882812 142.05796098709106 105.0 1.000 1.000 1.000
v -104.64505004882812 363.05796098709106 14.0 1.000 1.000 1.000
v -105.64505004882812 359.05796098709106 -31.0 1.000 1.000 1.000
v -185.64505004882812 387.05796098709106 8.0 1.000 1.000 1.000
v -364.6450500488281 326.05796098709106 53.0 1.000 1.000 1.000
v -367.6450500488281 256.05796098709106 49.0 1.000 1.000 1.000
v -320.6450500488281 289.05796098709106 98.0 1.000 1.000 1.000
v -237.64505004882812 207.05796098709106 116.0 1.000 1.000 1.000
v -307.6450500488281 180.05796098709106 140.0 1.000 1.000 1.000
v -359.6450500488281 207.05796098709106 120.0 1.000 1.000 1.000
v -307.6450500488281 180.05796098709106 140.0 1.000 1.000 1.000
v -162.64505004882812 289.05796098709106 98.0 1.000 1.000 1.000
v -237.64505004882812 354.05796098709106 34.0 1.000 1.000 1.000
v -126.64505004882812 208.05796098709106 120.0 1.000 1.000 1.000
v -126.64505004882812 208.05796098709106 120.0 1.000 1.000 1.000
v -115.64505004882812 247.05796098709106 49.0 1.000 1.000 1.000
v -162.64505004882812 289.05796098709106 98.0 1.000 1.000 1.000
v -364.6450500488281 326.05796098709106 53.0 1.000 1.000 1.000
v -320.6450500488281 289.05796098709106 98.0 1.000 1.000 1.000
v -367.6450500488281 366.05796098709106 15.0 1.000 1.000 1.000
v -102.64505004882812 192.05796098709106 80.0 1.000 1.000 1.000
v -164.64505004882812 142.05796098709106 105.0 1.000 1.000 1.000
v -132.64505004882812 113.05796098709106 -12.0 1.000 1.000 1.000
v -167.64505004882812 181.05796098709106 141.0 1.000 1.000 1.000
v -167.64505004882812 181.05796098709106 141.0 1.000 1.000 1.000
v -106.64505004882812 319.05796098709106 50.0 1.000 1.000 1.000
v -104.64505004882812 363.05796098709106 14.0 1.000 1.000 1.000
v -185.64505004882812 387.05796098709106 8.0 1.000 1.000 1.000
v -367.6450500488281 256.05796098709106 49.0 1.000 1.000 1.000
v -357.6450500488281 259.05796098709106 -42.0 1.000 1.000 1.000
v -340.6450500488281 112.05796098709106 -12.0 1.000 1.000 1.000
v -320.6450500488281 289.05796098709106 98.0 1.000 1.000 1.000
v -162.64505004882812 289.05796098709106 98.0 1.000 1.000 1.000
v -237.64505004882812 354.05796098709106 34.0 1.000 1.000 1.000
v -368.6450500488281 332.05796098709106 -61.0 1.000 1.000 1.000
v -232.64505004882812 385.05796098709106 -49.0 1.000 1.000 1.000
v -234.64505004882812 256.05796098709106 -87.0 1.000 1.000 1.000
v -343.6450500488281 256.05796098709106 -76.0 1.000 1.000 1.000
v -237.64505004882812 123.05796098709106 -62.0 1.000 1.000 1.000
v -340.6450500488281 112.05796098709106 -12.0 1.000 1.000 1.000
v -107.64505004882812 325.05796098709106 -58.0 1.000 1.000 1.000
v -369.6450500488281 363.05796098709106 -31.0 1.000 1.000 1.000
v -357.6450500488281 259.05796098709106 -42.0 1.000 1.000 1.000
v -123.64505004882812 256.05796098709106 -75.0 1.000 1.000 1.000
v -104.64505004882812 250.05796098709106 -44.0 1.000 1.000 1.000
v -132.64505004882812 113.05796098709106 -12.0 1.000 1.000 1.000
v -107.64505004882812 325.05796098709106 -58.0 1.000 1.000 1.000
v -357.6450500488281 259.05796098709106 -42.0 1.000 1.000 1.000
v -368.6450500488281 332.05796098709106 -61.0 1.000 1.000 1.000
v -343.6450500488281 256.05796098709106 -76.0 1.000 1.000 1.000
v -234.64505004882812 256.05796098709106 -87.0 1.000 1.000 1.000
v -237.64505004882812 123.05796098709106 -62.0 1.000 1.000 1.000
v -232.64505004882812 385.05796098709106 -49.0 1.000 1.000 1.000
v -105.64505004882812 359.05796098709106 -31.0 1.000 1.000 1.000
v -80.92101502418518 94.29730224609375 29.0 1.000 1.000 1.000
v -91.92101502418518 105.29730224609375 -24.0 1.000 1.000 1.000
v -36.92101502418518 85.29730224609375 79.0 1.000 1.000 1.000
v -67.92101502418518 91.29730224609375 70.0 1.000 1.000 1.000
v 30.07898497581482 87.29730224609375 77.0 1.000 1.000 1.000
v -1.9210150241851807 82.29730224609375 82.0 1.000 1.000 1.000
v 81.07898497581482 94.29730224609375 28.0 1.000 1.000 1.000
v 61.07898497581482 91.29730224609375 70.0 1.000 1.000 1.000
v 90.07898497581482 105.29730224609375 -24.0 1.000 1.000 1.000
v -340.6450500488281 112.05796098709106 -12.0 1.000 1.000 1.000
v -296.6450500488281 141.05796098709106 105.0 1.000 1.000 1.000
v -238.64505004882812 149.05796098709106 112.0 1.000 1.000 1.000
v -164.64505004882812 142.05796098709106 105.0 1.000 1.000 1.000
v -132.64505004882812 113.05796098709106 -12.0 1.000 1.000 1.000
v 27.07898497581482 110.29730224609375 -50.0 1.000 1.000 1.000
v 90.07898497581482 105.29730224609375 -24.0 1.000 1.000 1.000
v -33.92101502418518 110.29730224609375 -50.0 1.000 1.000 1.000
v -91.92101502418518 105.29730224609375 -24.0 1.000 1.000 1.000
v -132.64505004882812 113.05796098709106 -12.0 1.000 1.000 1.000
v -237.64505004882812 123.05796098709106 -62.0 1.000 1.000 1.000
v -340.6450500488281 112.05796098709106 -12.0 1.000 1.000 1.000
v -990.1724243164062 -98.06284713745117 -64.0 1.000 1.000 1.000
v -882.1724243164062 -97.06284713745117 -35.0 1.000 1.000 1.000
v -878.1724243164062 -143.06284713745117 -36.0 1.000 1.000 1.000
v -990.1724243164062 -152.06284713745117 -55.0 1.000 1.000 1.000
v -990.1724243164062 -37.06284713745117 180.0 1.000 1.000 1.000
v -990.1724243164062 -135.06284713745117 180.0 1.000 1.000 1.000
v -965.1724243164062 -74.06284713745117 161.0 1.000 1.000 1.000
v -880.1724243164062 -101.06284713745117 17.0 1.000 1.000 1.000
v -954.1724243164062 -111.06284713745117 171.0 1.000 1.000 1.000
v -882.1724243164062 -135.06284713745117 19.0 1.000 1.000 1.000
v -580.1129455566406 -158.27490615844727 -12.0 1.000 1.000 1.000
v -593.1129455566406 -97.27490615844727 51.0 1.000 1.000 1.000
v -579.1129455566406 -42.274906158447266 -18.0 1.000 1.000 1.000
v -602.1129455566406 -102.27490615844727 -81.0 1.000 1.000 1.000
v -593.1129455566406 -97.27490615844727 51.0 1.000 1.000 1.000
v -602.1129455566406 -102.27490615844727 -81.0 1.000 1.000 1.000
v -593.1129455566406 -97.27490615844727 51.0 1.000 1.000 1.000
v -602.1129455566406 -102.27490615844727 -81.0 1.000 1.000 1.000
v -882.1724243164062 -135.06284713745117 19.0 1.000 1.000 1.000
v -878.1724243164062 -143.06284713745117 -36.0 1.000 1.000 1.000
v -880.1724243164062 -101.06284713745117 17.0 1.000 1.000 1.000
v -882.1724243164062 -97.06284713745117 -35.0 1.000 1.000 1.000
v -880.1724243164062 -101.06284713745117 17.0 1.000 1.000 1.000
v -882.1724243164062 -135.06284713745117 19.0 1.000 1.000 1.000
v -878.1724243164062 -143.06284713745117 -36.0 1.000 1.000 1.000
v -882.1724243164062 -97.06284713745117 -35.0 1.000 1.000 1.000
v -486.1129455566406 -65.27490615844727 -39.0 1.000 1.000 1.000
v -478.1129455566406 -48.274906158447266 -9.0 1.000 1.000 1.000
v -477.1129455566406 -145.27490615844727 -1.0 1.000 1.000 1.000
v -481.1129455566406 -139.27490615844727 -53.0 1.000 1.000 1.000
v -476.1129455566406 -93.27490615844727 46.0 1.000 1.000 1.000
v -476.1129455566406 -81.27490615844727 50.0 1.000 1.000 1.000
v -476.1129455566406 -93.27490615844727 46.0 1.000 1.000 1.000
v -481.1129455566406 -139.27490615844727 -53.0 1.000 1.000 1.000
v -484.1129455566406 -94.27490615844727 -49.0 1.000 1.000 1.000
v -579.1129455566406 -42.274906158447266 -18.0 1.000 1.000 1.000
v -593.1129455566406 -97.27490615844727 51.0 1.000 1.000 1.000
v -580.1129455566406 -158.27490615844727 -12.0 1.000 1.000 1.000
v -593.1129455566406 -97.27490615844727 51.0 1.000 1.000 1.000
v -580.1129455566406 -158.27490615844727 -12.0 1.000 1.000 1.000
v -602.1129455566406 -102.27490615844727 -81.0 1.000 1.000 1.000
v -579.1129455566406 -42.274906158447266 -18.0 1.000 1.000 1.000
v -478.1129455566406 -48.274906158447266 -9.0 1.000 1.000 1.000
v -476.1129455566406 -81.27490615844727 50.0 1.000 1.000 1.000
v -484.1129455566406 -94.27490615844727 -49.0 1.000 1.000 1.000
v -486.1129455566406 -65.27490615844727 -39.0 1.000 1.000 1.000
v -593.1129455566406 -97.27490615844727 51.0 1.000 1.000 1.000
v -579.1129455566406 -42.274906158447266 -18.0 1.000 1.000 1.000
v -335.9759216308594 -94.09578704833984 -114.0 1.000 1.000 1.000
v -331.9759216308594 -31.095787048339844 3.0 1.000 1.000 1.000
v -331.9759216308594 -14.095787048339844 5.0 1.000 1.000 1.000
v -330.9759216308594 -94.09578704833984 -73.0 1.000 1.000 1.000
v -336.9759216308594 -175.09578704833984 -119.0 1.000 1.000 1.000
v -343.9759216308594 -173.09578704833984 6.0 1.000 1.000 1.000
v -343.9759216308594 -175.09578704833984 105.0 1.000 1.000 1.000
v -340.9759216308594 -100.09578704833984 88.0 1.000 1.000 1.000
v -341.9759216308594 -100.09578704833984 96.0 1.000 1.000 1.000
v -1.0 -159.0 101.0 1.000 1.000 1.000
v -74.0 -83.0 96.0 1.000 1.000 1.000
v -1.0 -84.0 -118.0 1.000 1.000 1.000
v -140.0 -50.0 -8.0 1.000 1.000 1.000
v -1.0 -84.0 -118.0 1.000 1.000 1.000
v -140.0 -50.0 -8.0 1.000 1.000 1.000
v -343.9759216308594 -175.09578704833984 105.0 1.000 1.000 1.000
v -336.9759216308594 -175.09578704833984 -119.0 1.000 1.000 1.000
v -331.9759216308594 -14.095787048339844 5.0 1.000 1.000 1.000
v -341.9759216308594 -100.09578704833984 96.0 1.000 1.000 1.000
v -336.9759216308594 -175.09578704833984 -119.0 1.000 1.000 1.000
v -335.9759216308594 -94.09578704833984 -114.0 1.000 1.000 1.000
v -331.9759216308594 -14.095787048339844 5.0 1.000 1.000 1.000
v -331.9759216308594 -31.095787048339844 3.0 1.000 1.000 1.000
v -343.9759216308594 -173.09578704833984 6.0 1.000 1.000 1.000
v -330.9759216308594 -94.09578704833984 -73.0 1.000 1.000 1.000
v -331.9759216308594 -31.095787048339844 3.0 1.000 1.000 1.000
v -340.9759216308594 -100.09578704833984 88.0 1.000 1.000 1.000
v -343.9759216308594 -173.09578704833984 6.0 1.000 1.000 1.000
v -486.1129455566406 -65.27490615844727 -39.0 1.000 1.000 1.000
v -478.1129455566406 -48.274906158447266 -9.0 1.000 1.000 1.000
v -476.1129455566406 -81.27490615844727 50.0 1.000 1.000 1.000
v -477.1129455566406 -145.27490615844727 -1.0 1.000 1.000 1.000
v -481.1129455566406 -139.27490615844727 -53.0 1.000 1.000 1.000
v -476.1129455566406 -93.27490615844727 46.0 1.000 1.000 1.000
v -481.1129455566406 -139.27490615844727 -53.0 1.000 1.000 1.000
v -484.1129455566406 -94.27490615844727 -49.0 1.000 1.000 1.000
v -486.1129455566406 -65.27490615844727 -39.0 1.000 1.000 1.000
v -476.1129455566406 -93.27490615844727 46.0 1.000 1.000 1.000
v -340.9759216308594 -100.09578704833984 88.0 1.000 1.000 1.000
v -330.9759216308594 -94.09578704833984 -73.0 1.000 1.000 1.000
v -331.9759216308594 -31.095787048339844 3.0 1.000 1.000 1.000
v -476.1129455566406 -81.27490615844727 50.0 1.000 1.000 1.000
v -476.1129455566406 -93.27490615844727 46.0 1.000 1.000 1.000
v -481.1129455566406 -139.27490615844727 -53.0 1.000 1.000 1.000
v -481.1129455566406 -139.27490615844727 -53.0 1.000 1.000 1.000
v 998.6503448486328 -41.60018277168274 180.0 1.000 1.000 1.000
v 998.6503448486328 -157.60018277168274 -55.0 1.000 1.000 1.000
v 998.6503448486328 -102.60018277168274 -64.0 1.000 1.000 1.000
v 998.6503448486328 -140.60018277168274 180.0 1.000 1.000 1.000
v 962.6503448486328 -115.60018277168274 171.0 1.000 1.000 1.000
v 973.6503448486328 -78.60018277168274 161.0 1.000 1.000 1.000
v 887.6503448486328 -100.60018277168274 10.0 1.000 1.000 1.000
v 884.6503448486328 -147.60018277168274 -37.0 1.000 1.000 1.000
v 884.6503448486328 -98.60018277168274 -36.0 1.000 1.000 1.000
v 887.6503448486328 -139.60018277168274 18.0 1.000 1.000 1.000
v 612.1012725830078 -109.67470073699951 -81.0 1.000 1.000 1.000
v 587.1012725830078 -45.67470073699951 -20.0 1.000 1.000 1.000
v 602.1012725830078 -101.67470073699951 50.0 1.000 1.000 1.000
v 589.1012725830078 -162.6747007369995 -12.0 1.000 1.000 1.000
v 612.1012725830078 -109.67470073699951 -81.0 1.000 1.000 1.000
v 602.1012725830078 -101.67470073699951 50.0 1.000 1.000 1.000
v 587.1012725830078 -45.67470073699951 -20.0 1.000 1.000 1.000
v 612.1012725830078 -109.67470073699951 -81.0 1.000 1.000 1.000
v 884.6503448486328 -98.60018277168274 -36.0 1.000 1.000 1.000
v 887.6503448486328 -139.60018277168274 18.0 1.000 1.000 1.000
v 884.6503448486328 -147.60018277168274 -37.0 1.000 1.000 1.000
v 887.6503448486328 -100.60018277168274 10.0 1.000 1.000 1.000
v 887.6503448486328 -139.60018277168274 18.0 1.000 1.000 1.000
v 887.6503448486328 -100.60018277168274 10.0 1.000 1.000 1.000
v 884.6503448486328 -147.60018277168274 -37.0 1.000 1.000 1.000
v 884.6503448486328 -98.60018277168274 -36.0 1.000 1.000 1.000
v 487.1012725830078 -149.6747007369995 -1.0 1.000 1.000 1.000
v 484.1012725830078 -99.67470073699951 45.0 1.000 1.000 1.000
v 487.1012725830078 -51.67470073699951 -10.0 1.000 1.000 1.000
v 493.1012725830078 -75.67470073699951 -45.0 1.000 1.000 1.000
v 489.1012725830078 -147.6747007369995 -52.0 1.000 1.000 1.000
v 490.1012725830078 -139.6747007369995 -53.0 1.000 1.000 1.000
v 489.1012725830078 -147.6747007369995 -52.0 1.000 1.000 1.000
v 484.1012725830078 -99.67470073699951 45.0 1.000 1.000 1.000
v 484.1012725830078 -87.67470073699951 50.0 1.000 1.000 1.000
v 487.1012725830078 -51.67470073699951 -10.0 1.000 1.000 1.000
v 589.1012725830078 -162.6747007369995 -12.0 1.000 1.000 1.000
v 602.1012725830078 -101.67470073699951 50.0 1.000 1.000 1.000
v 587.1012725830078 -45.67470073699951 -20.0 1.000 1.000 1.000
v 612.1012725830078 -109.67470073699951 -81.0 1.000 1.000 1.000
v 589.1012725830078 -162.6747007369995 -12.0 1.000 1.000 1.000
v 602.1012725830078 -101.67470073699951 50.0 1.000 1.000 1.000
v 493.1012725830078 -75.67470073699951 -45.0 1.000 1.000 1.000
v 493.1012725830078 -75.67470073699951 -45.0 1.000 1.000 1.000
v 484.1012725830078 -99.67470073699951 45.0 1.000 1.000 1.000
v 484.1012725830078 -87.67470073699951 50.0 1.000 1.000 1.000
v 490.1012725830078 -139.6747007369995 -53.0 1.000 1.000 1.000
v 587.1012725830078 -45.67470073699951 -20.0 1.000 1.000 1.000
v 612.1012725830078 -109.67470073699951 -81.0 1.000 1.000 1.000
v 602.1012725830078 -101.67470073699951 50.0 1.000 1.000 1.000
v 352.99998474121094 -183.00164031982422 6.0 1.000 1.000 1.000
v 348.99998474121094 -105.00164031982422 80.0 1.000 1.000 1.000
v 351.99998474121094 -181.00164031982422 105.0 1.000 1.000 1.000
v 344.99998474121094 -181.00164031982422 -119.0 1.000 1.000 1.000
v 346.99998474121094 -108.00164031982422 -71.0 1.000 1.000 1.000
v 344.99998474121094 -100.00164031982422 -113.0 1.000 1.000 1.000
v 340.99998474121094 -24.00164031982422 6.0 1.000 1.000 1.000
v 348.99998474121094 -105.00164031982422 87.0 1.000 1.000 1.000
v 340.99998474121094 -16.00164031982422 6.0 1.000 1.000 1.000
v 72.0 -84.0 95.0 1.000 1.000 1.000
v -1.0 -84.0 -118.0 1.000 1.000 1.000
v -1.0 -159.0 101.0 1.000 1.000 1.000
v 139.0 -50.0 -7.0 1.000 1.000 1.000
v 139.0 -50.0 -7.0 1.000 1.000 1.000
v -1.0 -84.0 -118.0 1.000 1.000 1.000
v 351.99998474121094 -181.00164031982422 105.0 1.000 1.000 1.000
v 348.99998474121094 -105.00164031982422 87.0 1.000 1.000 1.000
v 344.99998474121094 -181.00164031982422 -119.0 1.000 1.000 1.000
v 344.99998474121094 -181.00164031982422 -119.0 1.000 1.000 1.000
v 340.99998474121094 -16.00164031982422 6.0 1.000 1.000 1.000
v 344.99998474121094 -100.00164031982422 -113.0 1.000 1.000 1.000
v 344.99998474121094 -181.00164031982422 -119.0 1.000 1.000 1.000
v 340.99998474121094 -16.00164031982422 6.0 1.000 1.000 1.000
v 340.99998474121094 -24.00164031982422 6.0 1.000 1.000 1.000
v 348.99998474121094 -105.00164031982422 80.0 1.000 1.000 1.000
v 352.99998474121094 -183.00164031982422 6.0 1.000 1.000 1.000
v 348.99998474121094 -105.00164031982422 80.0 1.000 1.000 1.000
v 340.99998474121094 -16.00164031982422 6.0 1.000 1.000 1.000
v 346.99998474121094 -108.00164031982422 -71.0 1.000 1.000 1.000
v 487.1012725830078 -51.67470073699951 -10.0 1.000 1.000 1.000
v 493.1012725830078 -75.67470073699951 -45.0 1.000 1.000 1.000
v 489.1012725830078 -147.6747007369995 -52.0 1.000 1.000 1.000
v 487.1012725830078 -149.6747007369995 -1.0 1.000 1.000 1.000
v 484.1012725830078 -99.67470073699951 45.0 1.000 1.000 1.000
v 484.1012725830078 -87.67470073699951 50.0 1.000 1.000 1.000
v 487.1012725830078 -51.67470073699951 -10.0 1.000 1.000 1.000
v 493.1012725830078 -75.67470073699951 -45.0 1.000 1.000 1.000
v 493.1012725830078 -75.67470073699951 -45.0 1.000 1.000 1.000
v 490.1012725830078 -139.6747007369995 -53.0 1.000 1.000 1.000
v 340.99998474121094 -24.00164031982422 6.0 1.000 1.000 1.000
v 346.99998474121094 -108.00164031982422 -71.0 1.000 1.000 1.000
v 352.99998474121094 -183.00164031982422 6.0 1.000 1.000 1.000
v 348.99998474121094 -105.00164031982422 80.0 1.000 1.000 1.000
v 493.1012725830078 -75.67470073699951 -45.0 1.000 1.000 1.000
v 484.1012725830078 -99.67470073699951 45.0 1.000 1.000 1.000
v 489.1012725830078 -147.6747007369995 -52.0 1.000 1.000 1.000
v 490.1012725830078 -139.6747007369995 -53.0 1.000 1.000 1.000
v 484.1012725830078 -87.67470073699951 50.0 1.000 1.000 1.000
v -115.0 45.0 -31.0 1.000 1.000 1.000
v -140.0 -50.0 -8.0 1.000 1.000 1.000
v -85.0 17.0 54.0 1.000 1.000 1.000
v 139.0 -50.0 -7.0 1.000 1.000 1.000
v 115.0 46.0 -31.0 1.000 1.000 1.000
v 75.0 18.0 55.0 1.000 1.000 1.000
v -1.0 -25.0 95.0 1.000 1.000 1.000
v -74.0 -83.0 96.0 1.000 1.000 1.000
v 72.0 -84.0 95.0 1.000 1.000 1.000
v -1.0 -159.0 101.0 1.000 1.000 1.000
v -1.0 52.0 -74.0 1.000 1.000 1.000
v 115.0 46.0 -31.0 1.000 1.000 1.000
v 139.0 -50.0 -7.0 1.000 1.000 1.000
v -140.0 -50.0 -8.0 1.000 1.000 1.000
v -115.0 45.0 -31.0 1.000 1.000 1.000
v -1.0 -84.0 -118.0 1.000 1.000 1.000
v -85.0 17.0 54.0 1.000 1.000 1.000
v -115.0 45.0 -31.0 1.000 1.000 1.000
v 115.0 46.0 -31.0 1.000 1.000 1.000
v 75.0 18.0 55.0 1.000 1.000 1.000
v -1.0 -25.0 95.0 1.000 1.000 1.000
v -91.92101502418518 105.29730224609375 -24.0 1.000 1.000 1.000
v 81.07898497581482 94.29730224609375 28.0 1.000 1.000 1.000
v 90.07898497581482 105.29730224609375 -24.0 1.000 1.000 1.000
v 61.07898497581482 91.29730224609375 70.0 1.000 1.000 1.000
v 30.07898497581482 87.29730224609375 77.0 1.000 1.000 1.000
v -1.9210150241851807 82.29730224609375 82.0 1.000 1.000 1.000
v -36.92101502418518 85.29730224609375 79.0 1.000 1.000 1.000
v -67.92101502418518 91.29730224609375 70.0 1.000 1.000 1.000
v -80.92101502418518 94.29730224609375 29.0 1.000 1.000 1.000
v -1.0 52.0 -74.0 1.000 1.000 1.000
v 115.0 46.0 -31.0 1.000 1.000 1.000
v -115.0 45.0 -31.0 1.000 1.000 1.000
v 27.07898497581482 110.29730224609375 -50.0 1.000 1.000 1.000
v -33.92101502418518 110.29730224609375 -50.0 1.000 1.000 1.000
v -91.92101502418518 105.29730224609375 -24.0 1.000 1.000 1.000
v 90.07898497581482 105.29730224609375 -24.0 1.000 1.000 1.000
vt 0.4746 0.5947
vt 0.4248 0.2266
vt 0.1475 0.1338
vt 0.6279 0.1787
vt 0.7559 0.3604
vt 0.7227 0.3662
vt 0.7197 0.1006
vt 0.1533 0.4033
vt 0.2422 0.2031
vt 0.1670 0.4062
vt 0.4814 0.3916
vt 0.4873 0.3916
vt 0.9346 0.9326
vt 0.7168 0.0879
vt 0.0693 0.9717
vt 0.1553 0.1484
vt 0.0459 1.0049
vt 0.9580 0.9678
vt 0.4404 0.2900
vt 0.9248 0.1611
vt 0.8389 0.1660
vt 1.0156 0.8760
vt 0.2871 0.3447
vt 0.0283 1.0127
vt 0.3281 0.0566
vt 0.9082 0.0400
vt 0.0166 0.4727
vt 0.9346 0.4824
vt 1.0264 0.9971
vt 1.0322 0.6211
vt 1.9492 0.9883
vt 1.9541 0.6172
vt 0.1855 0.7018
vt 0.2432 0.7018
vt 0.3438 0.9714
vt 0.7520 0.9824
vt 0.7383 0.9850
vt 0.9551 0.6484
vt 0.8535 0.6712
vt 0.3643 0.9746
vt 0.7520 0.5801
vt 0.3311 0.5703
vt 0.9922 0.5111
vt 0.8945 0.5788
vt 0.9580 0.5801
vt 0.7090 0.5716
vt 0.2959 0.5775
vt 0.2773 0.5697
vt 0.1934 0.2090
vt 0.3174 0.4831
vt 0.2686 0.4805
vt 0.1211 0.2142
vt 0.8057 0.0801
vt 0.8604 0.0625
vt 0.9473 0.1465
vt 0.9863 0.4030
vt 0.8848 0.0723
vt 0.9277 0.5033
vt 0.1260 0.2018
vt 0.2383 0.0872
vt 0.2959 0.0098
vt 0.2852 0.0163
vt 0.2354 0.0755
vt 0.3086 0.1842
vt 0.0000 1.0000
vt 1.0234 0.8857
vt 1.7529 -0.0234
vt 1.9805 0.8984
vt 1.1201 -0.0059
vt 0.4385 0.1172
vt 0.9434 0.9180
vt 0.0957 0.8496
vt 0.9053 0.0068
vt 0.2158 0.2422
vt 0.9463 0.9287
vt 0.6709 0.0732
vt 0.0898 0.9805
vt 0.0840 0.5508
vt 0.7598 -0.0117
vt 0.1572 0.0342
vt 1.0117 0.5127
vt 0.9668 -0.0127
vt 0.0674 -0.3486
vt 0.0254 0.0146
vt 1.0078 -0.3721
vt 0.3652 0.9629
vt 0.2598 0.6237
vt 0.2021 0.7012
vt 0.7930 0.9694
vt 0.9844 0.6387
vt 0.7773 0.9701
vt 0.3662 0.9642
vt 0.8877 0.6608
vt 0.9492 0.5729
vt 0.9092 0.5755
vt 0.7617 0.5723
vt 0.3242 0.5332
vt 0.3076 0.5684
vt 0.2900 0.5651
vt 0.6777 0.5671
vt 0.6904 0.5710
vt 0.2705 0.4811
vt 0.3115 0.4837
vt 0.1396 0.2116
vt 0.1777 0.2201
vt 0.8594 0.0723
vt 0.9111 0.4935
vt 0.9990 0.3978
vt 0.9453 0.1595
vt 0.8926 0.0645
vt 0.9219 0.0716
vt 0.2803 0.0208
vt 0.2646 0.0150
vt 0.2012 0.0846
vt 0.1631 0.2064
vt 0.1885 0.1432
vt 0.2383 0.0742
vt 0.3271 0.3242
vt 0.2969 0.2780
vt 0.1309 0.2624
vt 0.2646 0.1471
vt 0.4912 0.2454
vt 0.7041 0.1484
vt 0.8672 0.2650
vt 0.8447 0.1914
vt 0.8018 0.2461
vt 0.6865 0.2773
vt 0.6943 0.3242
vt 0.4062 0.0195
vt 0.1299 0.0592
vt 0.1348 0.0553
vt 0.4893 0.3145
vt 0.7832 0.3581
vt 0.1523 0.2454
vt 0.4580 0.0254
vt 0.5098 0.0319
vt 0.1338 0.1868
vt 0.2021 0.3587
vt 0.5537 0.0260
vt 0.8643 0.0658
vt 0.5967 0.0202
vt 0.8652 0.1960
vt 0.5039 0.0820
vt 0.8662 0.0612
vt 0.1416 0.1029
vt 0.8604 0.1139
vt 0.1387 0.1901
vt 0.8145 0.0885
vt 0.5244 0.0260
vt 0.5244 0.1810
vt 0.7578 0.1790
vt 0.5244 0.3392
vt 0.7480 0.3509
vt 0.2510 0.1009
vt 0.8184 0.0521
vt 0.8047 0.1829
vt 0.2842 0.1823
vt 0.2422 0.1901
vt 0.2979 0.3522
vt 0.2480 0.0605
vt 0.2695 0.4473
vt 0.2402 0.4349
vt 0.3936 0.4590
vt 0.3066 0.4512
vt 0.5801 0.4564
vt 0.4902 0.4629
vt 0.7217 0.4486
vt 0.6660 0.4518
vt 0.7451 0.4368
vt 0.4580 0.4225
vt 0.3232 0.4303
vt 0.5889 0.4225
vt 0.7148 0.4271
vt 0.0254 0.0358
vt 1.0078 0.0163
vt 1.0391 0.0085
vt 0.0254 0.0671
vt 0.0176 0.9212
vt 0.2451 0.8229
vt 1.0205 0.2044
vt 0.3457 0.8457
vt 1.0039 0.2129
vt 1.0010 0.4404
vt 0.4336 0.9805
vt 1.0967 0.9844
vt 1.5195 0.4990
vt 0.7969 0.4688
vt 1.2666 0.9209
vt 0.7217 0.9160
vt 1.8115 0.4951
vt 0.2344 0.4521
vt 0.1475 0.4932
vt 0.5586 0.5952
vt 0.6348 0.9941
vt 0.3975 0.9966
vt 0.5244 0.6079
vt 0.3398 0.9917
vt 0.6611 0.9961
vt 0.5459 0.3271
vt 0.8486 0.3193
vt 0.9414 0.2529
vt 1.5615 0.2705
vt 0.3721 0.2412
vt 0.6279 0.4326
vt 0.5488 0.4326
vt 0.1367 0.5771
vt 0.2314 0.4395
vt 0.5420 0.4438
vt 0.9336 0.5767
vt 0.8604 0.4360
vt 0.7422 0.4468
vt 0.6035 0.8496
vt 0.5049 0.6224
vt 0.4717 0.6211
vt 0.6123 0.7656
vt 0.7617 0.8477
vt 0.7852 0.5951
vt 0.8105 0.3945
vt 0.6592 0.4414
vt 0.6602 0.4251
vt 0.4805 0.9831
vt 0.4854 0.7507
vt 0.2832 0.6595
vt 0.4795 0.9740
vt 0.4873 0.6608
vt 0.0303 0.9674
vt 0.2695 0.9792
vt 0.1016 0.6198
vt 0.5039 0.9655
vt 0.6787 0.9635
vt 0.5127 0.6530
vt 0.8525 0.9577
vt 0.8135 0.6113
vt 0.9297 0.1045
vt 1.4697 0.3242
vt 0.9336 0.0117
vt 0.4922 0.2319
vt 0.9287 0.2329
vt 0.4541 0.2446
vt -0.0527 0.2505
vt 0.0293 1.0234
vt 0.0029 -0.0046
vt 0.0020 -0.0423
vt 0.0293 1.0241
vt 0.3271 0.9811
vt 0.2344 0.9388
vt 0.9287 0.2754
vt 0.9453 0.0703
vt 0.9453 0.0781
vt 0.9229 0.3118
vt 1.3789 0.5605
vt 0.9287 0.5176
vt 1.0068 0.9648
vt 1.1855 1.0225
vt 1.3389 0.4854
vt 0.8516 0.4619
vt 0.7539 1.0166
vt 0.3232 0.5088
vt 0.6719 0.9648
vt 0.7881 1.0005
vt 0.5410 0.9980
vt 0.5488 0.6128
vt 0.1826 0.5918
vt 0.8408 0.9961
vt 0.5967 0.6274
vt 0.5244 0.9946
vt 0.8984 0.2715
vt 1.2578 0.2666
vt 0.8691 0.3652
vt 0.4102 0.5332
vt 1.1279 0.3779
vt 0.5039 0.2773
vt 0.7900 0.4634
vt 0.8408 0.4624
vt 0.9385 0.5972
vt 0.5322 0.4551
vt 0.4561 0.4541
vt 0.2227 0.4565
vt 0.3779 0.4658
vt 0.6426 0.5482
vt 0.7236 0.3835
vt 0.5664 0.3223
vt 0.7471 0.8346
vt 0.8398 0.7279
vt 0.8877 0.8242
vt 0.9277 0.5553
vt 0.7178 0.3678
vt 0.9434 0.5553
vt 0.6914 0.9792
vt 0.6914 0.6615
vt 0.9395 0.9707
vt 0.8779 0.6211
vt 0.2119 0.6146
vt 0.3291 0.9661
vt 0.1475 0.9635
vt 0.7725 0.1465
vt 0.2246 0.1514
vt 0.9131 0.0205
vt 0.5664 0.2720
vt 0.5859 0.2695
vt 0.0488 0.2598
vt 1.0684 0.2793
vt 0.1738 0.5059
vt 0.2568 0.5397
vt 0.8135 0.5065
vt 0.7021 0.5404
vt 0.4902 0.5905
vt 0.5176 0.4915
vt 0.2666 0.5000
vt 0.7637 0.4980
vn -0.577 -0.577 -0.577
vn -0.577 -0.577 -0.577
vn -0.577 -0.577 -0.577
vn -0.577 -0.577 -0.577
vn -0.577 -0.577 -0.577
vn -0.577 -0.577 -0.577
vn -0.577 -0.577 -0.577
vn -0.577 -0.577 -0.577
vn -0.577 -0.577 -0.577
vn -0.577 -0.577 -0.577
vn -0.577 -0.577 -0.577
vn -0.577 -0.577 -0.577
vn 0.577 0.577 0.577
vn -0.577 -0.577 -0.577
vn 0.577 0.577 0.577
vn -0.577 -0.577 -0.577
vn 0.577 0.577 0.577
vn 0.577 0.577 0.577
vn -0.577 -0.577 -0.577
vn -0.577 -0.577 -0.577
vn -0.577 -0.577 -0.577
vn 0.577 0.577 0.577
vn -0.577 -0.577 -0.577
vn 0.577 0.577 0.577
vn -0.577 -0.577 -0.577
vn -0.577 -0.577 -0.577
vn 0.577 0.577 0.577
vn 0.577 0.577 0.577
vn 0.577 0.577 0.577
vn 0.577 0.577 0.577
vn 0.577 0.577 0.577
vn 0.577 0.577 0.577
vn -0.577 -0.577 -0.577
vn -0.577 -0.577 -0.577
vn -0.577 -0.577 -0.577
vn -0.577 -0.577 -0.577
vn -0.577 -0.577 -0.577
vn -0.577 -0.577 -0.577
vn -0.577 -0.577 -0.577
vn -0.577 -0.577 -0.577
vn -0.577 -0.577 -0.577
vn -0.577 -0.577 -0.577
vn -0.577 -0.577 -0.577
vn -0.577 -0.577 -0.577
vn -0.577 -0.577 -0.577
vn -0.577 -0.577 -0.577
vn -0.577 -0.577 -0.577
vn -0.577 -0.577 -0.577
vn -0.577 -0.577 -0.577
vn -0.577 -0.577 -0.577
vn -0.577 -0.577 -0.577
vn -0.577 -0.577 -0.577
vn -0.577 -0.577 -0.577
vn -0.577 -0.577 -0.577
vn -0.577 -0.577 -0.577
vn -0.577 -0.577 -0.577
vn -0.577 -0.577 -0.577
vn -0.577 -0.577 -0.577
vn -0.577 -0.577 -0.577
vn -0.577 -0.577 -0.577
vn -0.577 -0.577 -0.577
vn -0.577 -0.577 -0.577
vn -0.577 -0.577 -0.577
vn -0.577 -0.577 -0.577
vn -0.577 -0.577 -0.577
vn -0.577 -0.577 -0.577
vn -0.577 -0.577 -0.577
vn -0.577 -0.577 -0.577
vn -0.577 -0.577 -0.577
vn -0.577 -0.577 -0.577
vn -0.577 -0.577 -0.577
vn -0.577 -0.577 -0.577
vn -0.577 -0.577 -0.577
vn -0.577 -0.577 -0.577
vn -0.577 -0.577 -0.577
vn -0.577 -0.577 -0.577
vn -0.577 -0.577 -0.577
vn -0.577 -0.577 -0.577
vn -0.577 -0.577 -0.577
vn -0.577 -0.577 -0.577
vn -0.577 -0.577 -0.577
vn -0.577 -0.577 -0.577
vn -0.577 -0.577 -0.577
vn -0.577 -0.577 -0.577
vn -0.577 -0.577 -0.577
vn -0.577 -0.577 -0.577
vn -0.577 -0.577 -0.577
vn -0.577 -0.577 -0.577
vn -0.577 -0.577 -0.577
vn 0.577 0.577 0.577
vn -0.577 -0.577 -0.577
vn -0.577 -0.577 -0.577
vn -0.577 -0.577 -0.577
vn -0.577 -0.577 -0.577
vn 0.577 0.577 0.577
vn -0.577 -0.577 -0.577
vn -0.577 -0.577 -0.577
vn -0.577 -0.577 -0.577
vn -0.577 -0.577 -0.577
vn -0.577 -0.577 -0.577
vn -0.577 -0.577 -0.577
vn -0.577 -0.577 -0.577
vn -0.577 -0.577 -0.577
vn -0.577 -0.577 -0.577
vn -0.577 -0.577 -0.577
vn -0.577 -0.577 -0.577
vn -0.577 -0.577 -0.577
vn 0.577 0.577 0.577
vn -0.577 -0.577 -0.577
vn -0.577 -0.577 -0.577
vn -0.577 -0.577 -0.577
vn -0.577 -0.577 -0.577
vn -0.577 -0.577 -0.577
vn -0.577 -0.577 -0.577
vn -0.577 -0.577 -0.577
vn -0.577 -0.577 -0.577
vn -0.577 -0.577 -0.577
vn -0.577 -0.577 -0.577
vn -0.577 -0.577 -0.577
vn -0.577 -0.577 -0.577
vn -0.577 -0.577 -0.577
vn -0.577 -0.577 -0.577
vn -0.577 -0.577 -0.577
vn -0.577 -0.577 -0.577
vn -0.577 -0.577 -0.577
vn -0.577 -0.577 -0.577
vn -0.577 -0.577 -0.577
vn -0.577 -0.577 -0.577
vn -0.577 -0.577 -0.577
vn -0.577 -0.577 -0.577
vn -0.577 -0.577 -0.577
vn -0.577 -0.577 -0.577
vn -0.577 -0.577 -0.577
vn -0.577 -0.577 -0.577
vn -0.577 -0.577 -0.577
vn -0.577 -0.577 -0.577
vn -0.577 -0.577 -0.577
vn -0.577 -0.577 -0.577
vn -0.577 -0.577 -0.577
vn -0.577 -0.577 -0.577
vn -0.577 -0.577 -0.577
vn -0.577 -0.577 -0.577
vn -0.577 -0.577 -0.577
vn -0.577 -0.577 -0.577
vn -0.577 -0.577 -0.577
vn -0.577 -0.577 -0.577
vn -0.577 -0.577 -0.577
vn -0.577 -0.577 -0.577
vn -0.577 -0.577 -0.577
vn -0.577 -0.577 -0.577
vn -0.577 -0.577 -0.577
vn -0.577 -0.577 -0.577
vn -0.577 -0.577 -0.577
vn -0.577 -0.577 -0.577
vn -0.577 -0.577 -0.577
vn -0.577 -0.577 -0.577
vn -0.577 -0.577 -0.577
vn -0.577 -0.577 -0.577
vn -0.577 -0.577 -0.577
vn -0.577 -0.577 -0.577
vn -0.577 -0.577 -0.577
vn -0.577 -0.577 -0.577
vn -0.577 -0.577 -0.577
vn -0.577 -0.577 -0.577
vn -0.577 -0.577 -0.577
vn -0.577 -0.577 -0.577
vn -0.577 -0.577 -0.577
vn -0.577 -0.577 -0.577
vn -0.577 -0.577 -0.577
vn -0.577 -0.577 -0.577
vn -0.577 -0.577 -0.577
vn -0.577 -0.577 -0.577
vn -0.577 -0.577 -0.577
vn -0.577 -0.577 -0.577
vn -0.577 -0.577 -0.577
vn -0.577 -0.577 -0.577
vn -0.577 -0.577 -0.577
vn -0.577 -0.577 -0.577
vn -0.577 -0.577 -0.577
vn -0.577 -0.577 -0.577
vn -0.577 -0.577 -0.577
vn -0.577 -0.577 -0.577
vn -0.577 -0.577 -0.577
vn -0.577 -0.577 -0.577
vn -0.577 -0.577 -0.577
vn -0.577 -0.577 -0.577
vn -0.577 -0.577 -0.577
vn -0.577 -0.577 -0.577
vn -0.577 -0.577 -0.577
vn -0.577 -0.577 -0.577
vn -0.577 -0.577 -0.577
vn -0.577 -0.577 -0.577
vn -0.577 -0.577 -0.577
vn -0.577 -0.577 -0.577
vn -0.577 -0.577 -0.577
vn -0.577 -0.577 -0.577
vn -0.577 -0.577 -0.577
vn -0.577 -0.577 -0.577
vn -0.577 -0.577 -0.577
vn -0.577 -0.577 -0.577
vn -0.577 -0.577 -0.577
vn -0.577 -0.577 -0.577
vn -0.577 -0.577 -0.577
vn -0.577 -0.577 -0.577
vn -0.577 -0.577 -0.577
vn -0.577 -0.577 -0.577
vn -0.577 -0.577 -0.577
vn -0.577 -0.577 -0.577
vn -0.577 -0.577 -0.577
vn -0.577 -0.577 -0.577
vn -0.577 -0.577 -0.577
vn -0.577 -0.577 -0.577
vn -0.577 -0.577 -0.577
vn -0.577 -0.577 -0.577
vn -0.577 -0.577 -0.577
vn -0.577 -0.577 -0.577
vn -0.577 -0.577 -0.577
vn -0.577 -0.577 -0.577
vn -0.577 -0.577 -0.577
vn -0.577 -0.577 -0.577
vn -0.577 -0.577 -0.577
vn -0.577 -0.577 -0.577
vn -0.577 -0.577 -0.577
vn -0.577 -0.577 -0.577
vn -0.577 -0.577 -0.577
vn -0.577 -0.577 -0.577
vn -0.577 -0.577 -0.577
vn -0.577 -0.577 -0.577
vn -0.577 -0.577 -0.577
vn -0.577 -0.577 -0.577
vn -0.577 -0.577 -0.577
vn -0.577 -0.577 -0.577
vn -0.577 -0.577 -0.577
vn -0.577 -0.577 -0.577
vn -0.577 -0.577 -0.577
vn -0.577 -0.577 -0.577
vn -0.577 -0.577 -0.577
vn -0.577 -0.577 -0.577
vn -0.577 -0.577 -0.577
vn -0.577 -0.577 -0.577
vn -0.577 -0.577 -0.577
vn -0.577 -0.577 -0.577
vn -0.577 -0.577 -0.577
vn -0.577 -0.577 -0.577
vn -0.577 -0.577 -0.577
vn -0.577 -0.577 -0.577
vn -0.577 -0.577 -0.577
vn -0.577 -0.577 -0.577
vn -0.577 -0.577 -0.577
vn -0.577 -0.577 -0.577
vn -0.577 -0.577 -0.577
vn -0.577 -0.577 -0.577
vn -0.577 -0.577 -0.577
vn -0.577 -0.577 -0.577
vn -0.577 -0.577 -0.577
vn -0.577 -0.577 -0.577
vn -0.577 -0.577 -0.577
vn -0.577 -0.577 -0.577
vn -0.577 -0.577 -0.577
vn -0.577 -0.577 -0.577
vn -0.577 -0.577 -0.577
vn -0.577 -0.577 -0.577
vn -0.577 -0.577 -0.577
vn -0.577 -0.577 -0.577
vn -0.577 -0.577 -0.577
vn -0.577 -0.577 -0.577
vn -0.577 -0.577 -0.577
vn -0.577 -0.577 -0.577
vn -0.577 -0.577 -0.577
vn -0.577 -0.577 -0.577
vn -0.577 -0.577 -0.577
vn -0.577 -0.577 -0.577
vn -0.577 -0.577 -0.577
vn -0.577 -0.577 -0.577
vn -0.577 -0.577 -0.577
vn -0.577 -0.577 -0.577
vn -0.577 -0.577 -0.577
vn -0.577 -0.577 -0.577
vn -0.577 -0.577 -0.577
vn -0.577 -0.577 -0.577
vn -0.577 -0.577 -0.577
vn -0.577 -0.577 -0.577
vn -0.577 -0.577 -0.577
vn -0.577 -0.577 -0.577
vn -0.577 -0.577 -0.577
vn -0.577 -0.577 -0.577
vn -0.577 -0.577 -0.577
vn -0.577 -0.577 -0.577
vn -0.577 -0.577 -0.577
vn -0.577 -0.577 -0.577
vn -0.577 -0.577 -0.577
vn -0.577 -0.577 -0.577
vn -0.577 -0.577 -0.577
vn -0.577 -0.577 -0.577
vn -0.577 -0.577 -0.577
vn -0.577 -0.577 -0.577
vn -0.577 -0.577 -0.577
vn -0.577 -0.577 -0.577
vn -0.577 -0.577 -0.577
vn -0.577 -0.577 -0.577
vn -0.577 -0.577 -0.577
vn -0.577 -0.577 -0.577
vn -0.577 -0.577 -0.577
vn -0.577 -0.577 -0.577
vn -0.577 -0.577 -0.577
vn -0.577 -0.577 -0.577
vn -0.577 -0.577 -0.577
vn -0.577 -0.577 -0.577
vn -0.577 -0.577 -0.577
vn -0.577 -0.577 -0.577
vn -0.577 -0.577 -0.577
vn -0.577 -0.577 -0.577
vn -0.577 -0.577 -0.577
vn -0.577 -0.577 -0.577
vn -0.577 -0.577 -0.577
vn -0.577 -0.577 -0.577
vn 0.577 0.577 0.577
vn 0.577 0.577 0.577
vn 0.577 0.577 0.577
vn 0.577 0.577 0.577
vn 0.577 0.577 0.577
vn 0.577 0.577 0.577
vn 0.577 0.577 0.577
vn 0.577 0.577 0.577
vn 0.577 0.577 0.577
vn -0.577 -0.577 -0.577
vn -0.577 -0.577 -0.577
vn -0.577 -0.577 -0.577
vn -0.577 -0.577 -0.577
vn -0.577 -0.577 -0.577
vn -0.577 -0.577 -0.577
vn -0.577 -0.577 -0.577
vn 0.577 0.577 0.577
vn 0.577 0.577 0.577
vn 0.577 0.577 0.577
vn 0.577 0.577 0.577
vn -0.577 -0.577 -0.577
vn -0.577 -0.577 -0.577
vn 0.577 0.577 0.577
vn 0.577 0.577 0.577
vn 0.577 0.577 0.577
vn 0.577 0.577 0.577
vn 0.577 0.577 0.577
vn 0.577 0.577 0.577
vn 0.577 0.577 0.577
vn 0.577 0.577 0.577
vn 0.577 0.577 0.577
vn -0.577 -0.577 -0.577
vn -0.577 -0.577 -0.577
vn -0.577 -0.577 -0.577
vn -0.577 -0.577 -0.577
vn -0.577 -0.577 -0.577
vn -0.577 -0.577 -0.577
vn 0.577 0.577 0.577
vn 0.577 0.577 0.577
vn 0.577 0.577 0.577
vn 0.577 0.577 0.577
vn 0.577 0.577 0.577
vn 0.577 0.577 0.577
vn 0.577 0.577 0.577
vn 0.577 0.577 0.577
vn 0.577 0.577 0.577
vn 0.577 0.577 0.577
vn 0.577 0.577 0.577
vn 0.577 0.577 0.577
vn 0.577 0.577 0.577
vn 0.577 0.577 0.577
vn 0.577 0.577 0.577
vn 0.577 0.577 0.577
vn 0.577 0.577 0.577
vn 0.577 0.577 0.577
vn 0.577 0.577 0.577
vn 0.577 0.577 0.577
vn 0.577 0.577 0.577
vn 0.577 0.577 0.577
vn 0.577 0.577 0.577
vn 0.577 0.577 0.577
vn 0.577 0.577 0.577
vn 0.577 0.577 0.577
vn 0.577 0.577 0.577
vn 0.577 0.577 0.577
vn 0.577 0.577 0.577
vn 0.577 0.577 0.577
vn -0.577 -0.577 -0.577
vn -0.577 -0.577 -0.577
vn -0.577 -0.577 -0.577
vn -0.577 -0.577 -0.577
vn -0.577 -0.577 -0.577
vn -0.577 -0.577 -0.577
vn -0.577 -0.577 -0.577
vn -0.577 -0.577 -0.577
vn -0.577 -0.577 -0.577
vn -0.577 -0.577 -0.577
vn -0.577 -0.577 -0.577
vn -0.577 -0.577 -0.577
vn -0.577 -0.577 -0.577
vn -0.577 -0.577 -0.577
vn -0.577 -0.577 -0.577
vn -0.577 -0.577 -0.577
vn -0.577 -0.577 -0.577
vn -0.577 -0.577 -0.577
vn -0.577 -0.577 -0.577
vn -0.577 -0.577 -0.577
vn -0.577 -0.577 -0.577
vn -0.577 -0.577 -0.577
vn -0.577 -0.577 -0.577
vn -0.577 -0.577 -0.577
vn -0.577 -0.577 -0.577
vn -0.577 -0.577 -0.577
vn 0.577 0.577 0.577
vn 0.577 0.577 0.577
vn 0.577 0.577 0.577
vn 0.577 0.577 0.577
vn 0.577 0.577 0.577
vn 0.577 0.577 0.577
vn 0.577 0.577 0.577
vn 0.577 0.577 0.577
vn 0.577 0.577 0.577
vn 0.577 0.577 0.577
vn -0.577 -0.577 -0.577
vn -0.577 -0.577 -0.577
vn -0.577 -0.577 -0.577
vn -0.577 -0.577 -0.577
vn -0.577 -0.577 -0.577
vn -0.577 -0.577 -0.577
vn 0.577 0.577 0.577
vn 0.577 0.577 0.577
vn 0.577 0.577 0.577
vn 0.577 0.577 0.577
vn 0.577 0.577 0.577
vn -0.577 -0.577 -0.577
vn -0.577 -0.577 -0.577
vn -0.577 -0.577 -0.577
vn 0.577 0.577 0.577
vn 0.577 0.577 0.577
vn 0.577 0.577 0.577
vn 0.577 0.577 0.577
vn 0.577 0.577 0.577
vn 0.577 0.577 0.577
vn 0.577 0.577 0.577
vn 0.577 0.577 0.577
vn 0.577 0.577 0.577
vn -0.577 -0.577 -0.577
vn -0.577 -0.577 -0.577
vn -0.577 -0.577 -0.577
vn -0.577 -0.577 -0.577
vn -0.577 -0.577 -0.577
vn -0.577 -0.577 -0.577
vn 0.577 0.577 0.577
vn 0.577 0.577 0.577
vn 0.577 0.577 0.577
vn 0.577 0.577 0.577
vn 0.577 0.577 0.577
vn 0.577 0.577 0.577
vn 0.577 0.577 0.577
vn 0.577 0.577 0.577
vn 0.577 0.577 0.577
vn 0.577 0.577 0.577
vn 0.577 0.577 0.577
vn 0.577 0.577 0.577
vn 0.577 0.577 0.577
vn 0.577 0.577 0.577
vn 0.577 0.577 0.577
vn 0.577 0.577 0.577
vn 0.577 0.577 0.577
vn 0.577 0.577 0.577
vn 0.577 0.577 0.577
vn 0.577 0.577 0.577
vn 0.577 0.577 0.577
vn 0.577 0.577 0.577
vn 0.577 0.577 0.577
vn 0.577 0.577 0.577
vn 0.577 0.577 0.577
vn 0.577 0.577 0.577
vn 0.577 0.577 0.577
vn 0.577 0.577 0.577
vn 0.577 0.577 0.577
vn 0.577 0.577 0.577
vn 0.577 0.577 0.577
vn 0.577 0.577 0.577
vn 0.577 0.577 0.577
vn -0.577 -0.577 -0.577
vn -0.577 -0.577 -0.577
vn -0.577 -0.577 -0.577
vn -0.577 -0.577 -0.577
vn -0.577 -0.577 -0.577
vn -0.577 -0.577 -0.577
vn -0.577 -0.577 -0.577
vn -0.577 -0.577 -0.577
vn -0.577 -0.577 -0.577
vn -0.577 -0.577 -0.577
vn -0.577 -0.577 -0.577
vn -0.577 -0.577 -0.577
vn -0.577 -0.577 -0.577
vn -0.577 -0.577 -0.577
vn -0.577 -0.577 -0.577
vn -0.577 -0.577 -0.577
vn -0.577 -0.577 -0.577
vn -0.577 -0.577 -0.577
vn -0.577 -0.577 -0.577
vn -0.577 -0.577 -0.577
vn -0.577 -0.577 -0.577
vn -0.577 -0.577 -0.577
vn -0.577 -0.577 -0.577
vn -0.577 -0.577 -0.577
vn -0.577 -0.577 -0.577
vn -0.577 -0.577 -0.577
vn -0.577 -0.577 -0.577
vn -0.577 -0.577 -0.577
vn -0.577 -0.577 -0.577
vn -0.577 -0.577 -0.577
vn -0.577 -0.577 -0.577
vn -0.577 -0.577 -0.577
vn -0.577 -0.577 -0.577
vn -0.577 -0.577 -0.577
vn -0.577 -0.577 -0.577
vn -0.577 -0.577 -0.577
vn -0.577 -0.577 -0.577
usemtl tex_1903_lit
f 1/1/1 8/2/8 9/3/9
f 10/4/10 2/5/2 3/6/3
f 2/5/2 11/7/11 1/1/1
f 11/7/11 8/2/8 1/1/1
f 4/8/4 1/1/1 9/3/9
f 4/8/4 9/3/9 12/9/12
f 4/8/4 12/9/12 5/10/5
f 12/9/12 6/11/6 5/10/5
f 12/9/12 3/6/3 7/12/7
f 12/9/12 10/4/10 6/11/6
f 10/4/10 3/6/3 6/11/6
f 2/5/2 10/4/10 11/7/11
usemtl tex_1897_lit
f 13/13/13 14/14/14 15/15/15
f 15/15/15 14/14/14 16/16/16
usemtl tex_1899_lit
f 17/17/17 18/18/18 19/19/19
f 19/19/19 18/18/18 20/20/20
usemtl tex_1900_lit
f 21/21/21 22/22/22 23/23/23
f 23/23/23 22/22/22 24/24/24
usemtl tex_1898_lit
f 25/25/25 26/26/26 27/27/27
f 27/27/27 26/26/26 28/28/28
f 29/29/29 30/30/30 31/31/31
f 31/31/31 30/30/30 32/32/32
usemtl tex_1743_lit_w11
f 33/33/33 34/34/34 37/35/37
f 33/33/33 37/35/37 38/36/38
f 38/36/38 39/37/39 35/38/35
f 36/39/36 39/37/39 40/40/40
f 35/38/35 33/33/33 38/36/38
f 34/34/34 40/40/40 37/35/37
f 39/37/39 36/39/36 35/38/35
f 34/34/34 36/39/36 40/40/40
f 41/41/41 49/34/49 42/42/42
f 50/39/50 49/34/49 41/41/41
f 43/43/43 50/39/50 44/44/44
f 45/45/45 51/38/51 50/39/50
f 46/46/46 51/38/51 45/45/45
f 52/33/52 51/38/51 46/46/46
f 47/47/47 52/33/52 48/48/48
f 49/34/49 52/33/52 47/47/47
f 48/48/48 52/33/52 46/46/46
f 45/45/45 50/39/50 43/43/43
f 44/44/44 50/39/50 41/41/41
f 42/42/42 49/34/49 47/47/47
f 53/49/53 54/50/54 55/51/55
f 56/52/56 53/49/53 55/51/55
f 57/53/57 58/54/58 59/55/59
f 57/53/57 58/54/58 59/55/59
f 57/53/57 59/55/59 60/56/60
f 56/52/56 60/56/60 59/55/59
f 58/54/58 61/57/61 59/55/59
f 56/52/56 55/51/55 60/56/60
f 53/49/53 62/58/62 54/50/54
f 62/58/62 53/49/53 57/53/57
f 62/58/62 57/53/57 60/56/60
f 63/59/63 64/49/64 70/52/70
f 71/55/71 63/59/63 70/52/70
f 65/60/65 63/59/63 71/55/71
f 72/57/72 65/60/65 71/55/71
f 66/61/66 65/60/65 72/57/72
f 73/54/73 66/61/66 72/57/72
f 67/62/67 66/61/66 73/54/73
f 74/53/74 67/62/67 73/54/73
f 68/63/68 67/62/67 74/53/74
f 64/49/64 74/53/74 75/64/75
f 64/49/64 68/63/68 74/53/74
f 76/65/76 69/65/69 77/65/77
f 82/42/82 83/47/83 78/50/78
f 84/41/84 82/42/82 78/50/78
f 85/44/85 84/41/84 79/58/79
f 86/43/86 85/44/85 79/58/79
f 87/45/87 86/43/86 80/56/80
f 88/46/88 87/45/87 80/56/80
f 89/48/89 88/46/88 81/51/81
f 83/47/83 89/48/89 81/51/81
f 81/51/81 88/46/88 80/56/80
f 79/58/79 84/41/84 78/50/78
f 78/50/78 83/47/83 81/51/81
f 80/56/80 86/43/86 79/58/79
usemtl tex_1897_lit
f 90/66/90 91/67/91 92/68/92
f 93/69/93 91/67/91 90/66/90
usemtl tex_1899_lit
f 94/70/94 95/71/95 96/72/96
f 97/73/97 95/71/95 94/70/94
usemtl tex_1900_lit
f 98/74/98 99/75/99 100/76/100
f 101/77/101 99/75/99 98/74/98
usemtl tex_1898_lit
f 102/78/102 103/79/103 104/80/104
f 105/81/105 103/79/103 102/78/102
f 106/82/106 107/83/107 108/84/108
f 109/85/109 107/83/107 106/82/106
usemtl tex_1743_lit_w11
f 114/86/114 110/87/110 111/88/111
f 115/89/115 114/86/114 111/88/111
f 112/90/112 116/91/116 115/89/115
f 117/92/117 116/91/116 113/93/113
f 115/89/115 111/88/111 112/90/112
f 114/86/114 117/92/117 110/87/110
f 112/90/112 113/93/113 116/91/116
f 117/92/117 113/93/113 110/87/110
f 118/94/118 119/95/119 126/90/126
f 119/95/119 120/96/120 127/93/127
f 121/97/121 122/98/122 128/87/128
f 122/98/122 123/99/123 129/88/129
f 124/100/124 118/94/118 126/90/126
f 123/99/123 124/100/124 129/88/129
f 120/96/120 125/101/125 127/93/127
f 125/101/125 121/97/121 128/87/128
f 129/88/129 124/100/124 126/90/126
f 128/87/128 122/98/122 129/88/129
f 127/93/127 125/101/125 128/87/128
f 126/90/126 119/95/119 127/93/127
f 130/102/130 131/103/131 132/104/132
f 130/102/130 132/104/132 133/105/133
f 134/106/134 132/104/132 135/107/135
f 136/108/136 137/109/137 138/110/138
f 136/108/136 138/110/138 134/106/134
f 131/103/131 135/107/135 132/104/132
f 137/109/137 139/111/139 138/110/138
f 136/108/136 130/102/130 133/105/133
f 137/109/137 138/110/138 134/106/134
f 137/109/137 136/108/136 133/105/133
f 135/107/135 136/108/136 134/106/134
f 140/112/140 148/110/148 141/113/141
f 141/113/141 148/110/148 149/111/149
f 141/113/141 149/111/149 142/114/142
f 142/114/142 149/111/149 150/109/150
f 142/114/142 150/109/150 143/115/143
f 143/115/143 150/109/150 151/105/151
f 143/115/143 151/105/151 152/104/152
f 152/104/152 144/116/144 145/117/145
f 152/104/152 145/117/145 144/116/144
f 145/117/145 152/104/152 153/106/153
f 145/117/145 153/106/153 140/112/140
f 140/112/140 153/106/153 148/110/148
f 146/65/146 154/65/154 147/65/147
f 159/101/159 155/103/155 160/97/160
f 156/107/156 155/103/155 159/101/159
f 161/95/161 156/107/156 162/96/162
f 157/108/157 156/107/156 161/95/161
f 163/100/163 157/108/157 164/94/164
f 158/102/158 157/108/157 163/100/163
f 165/98/165 158/102/158 166/99/166
f 155/103/155 158/102/158 165/98/165
f 166/99/166 158/102/158 163/100/163
f 160/97/160 155/103/155 165/98/165
f 162/96/162 156/107/156 159/101/159
f 164/94/164 157/108/157 161/95/161
usemtl tex_1745_lit_w11
f 167/118/167 168/119/168 169/120/169
f 170/121/170 171/122/171 172/123/172
f 173/124/173 174/125/174 175/126/175
f 173/124/173 176/127/176 178/128/178
f 179/129/179 180/130/180 181/131/181
f 167/118/167 182/132/182 168/119/168
f 170/121/170 179/129/179 181/131/181
f 170/121/170 168/119/168 171/122/171
f 183/124/183 184/133/184 185/125/185
f 186/119/186 187/134/187 188/120/188
f 189/129/189 190/135/190 191/130/191
f 190/135/190 192/136/192 191/130/191
f 187/134/187 193/137/193 188/120/188
f 194/118/194 188/120/188 195/138/195
f 183/124/183 196/126/196 197/127/197
f 198/122/198 199/127/199 200/123/200
f 201/136/201 202/139/202 203/140/203
f 202/139/202 204/141/204 203/140/203
f 205/133/205 206/142/206 207/125/207
f 208/121/208 209/143/209 210/129/210
f 211/120/211 212/137/212 213/138/213
f 214/127/214 215/132/215 216/128/216
f 217/144/217 218/140/218 219/141/219
f 220/145/220 221/137/221 222/121/222
f 215/132/215 214/127/214 223/122/223
f 222/121/222 225/134/225 224/119/224
f 222/121/222 221/137/221 225/134/225
f 227/123/227 219/141/219 228/143/228
f 224/119/224 215/132/215 223/122/223
f 229/126/229 227/123/227 214/127/214
f 230/126/230 231/125/231 232/123/232
f 233/145/233 234/121/234 235/131/235
f 236/124/236 237/128/237 238/133/238
f 241/146/241 232/123/232 231/125/231
f 241/146/241 242/144/242 232/123/232
f 242/144/242 243/141/243 232/123/232
f 244/137/244 245/147/245 246/138/246
f 247/121/247 248/123/248 249/143/249
usemtl tex_1744_lit_w11
f 250/148/250 251/149/251 252/150/252
f 253/151/253 254/152/254 255/153/255
f 252/150/252 251/149/251 256/154/256
f 250/148/250 257/155/257 251/149/251
f 258/156/258 253/151/253 255/153/255
f 259/157/259 260/158/260 261/159/261
f 259/157/259 262/154/262 260/158/260
f 263/156/263 264/148/264 265/151/265
f 266/150/266 259/157/259 267/152/267
f 266/150/266 262/154/262 259/157/259
f 265/151/265 264/148/264 266/150/266
f 267/152/267 259/157/259 261/159/261
f 267/152/267 265/151/265 266/150/266
f 268/149/268 269/160/269 262/154/262
usemtl tex_1745_lit_w11
f 270/161/270 279/138/279 271/162/271
f 280/118/280 279/138/279 270/161/270
f 272/163/272 280/118/280 273/164/273
f 281/132/281 280/118/280 272/163/272
f 274/165/274 281/132/281 275/166/275
f 282/128/282 281/132/281 274/165/274
f 276/167/276 282/128/282 277/168/277
f 283/133/283 282/128/282 276/167/276
f 278/169/278 283/133/283 276/167/276
f 273/164/273 280/118/280 270/161/270
f 277/168/277 282/128/282 274/165/274
f 275/166/275 281/132/281 272/163/272
usemtl tex_1744_lit_w11
f 284/170/284 288/159/288 285/171/285
f 289/152/289 288/159/288 284/170/284
f 286/172/286 289/152/289 284/170/284
f 290/153/290 289/152/289 286/172/286
f 287/173/287 290/153/290 286/172/286
usemtl tex_2035_lit_w11
f 291/174/291 292/175/292 293/176/293
f 294/177/294 291/174/291 293/176/293
f 291/174/291 294/177/294 295/178/295
f 295/178/295 294/177/294 296/178/296
f 295/178/295 297/179/297 298/180/298
f 295/178/295 298/180/298 292/175/292
f 295/178/295 296/178/296 299/181/299
f 295/178/295 292/175/292 291/174/291
f 296/178/296 294/177/294 293/176/293
f 300/182/300 296/178/296 293/176/293
f 300/182/300 299/181/299 296/178/296
f 297/179/297 295/178/295 299/181/299
f 299/181/299 300/182/300 298/180/298
f 299/181/299 298/180/298 297/179/297
usemtl tex_1716_lit
f 301/183/301 309/184/309 310/185/310
f 302/186/302 303/187/303 311/188/311
f 303/187/303 312/189/312 311/188/311
f 304/190/304 301/183/301 310/185/310
f 301/183/301 305/191/305 309/184/309
f 303/187/303 306/192/306 312/189/312
usemtl tex_1717_lit_w11
f 307/193/307 313/194/313 314/195/314
f 308/196/308 315/197/315 316/198/316
usemtl tex_1716_lit
f 317/199/317 326/187/326 318/200/318
f 318/200/318 326/187/326 327/186/327
f 319/201/319 328/183/328 320/202/320
f 321/203/321 328/183/328 319/201/319
usemtl tex_1717_lit_w11
f 322/204/322 329/193/329 323/205/323
f 323/205/323 329/193/329 330/206/330
f 324/207/324 330/206/330 331/196/331
f 324/207/324 331/196/331 325/208/325
f 325/208/325 331/196/331 332/209/332
f 333/210/333 337/193/337 334/204/334
f 335/208/335 338/209/338 336/211/336
usemtl tex_1745_lit_w11
f 339/212/339 340/213/340 341/214/341
f 342/215/342 340/213/340 339/212/339
f 343/216/343 342/215/342 339/212/339
f 344/217/344 342/215/342 343/216/343
f 345/218/345 344/217/344 343/216/343
f 346/219/346 344/217/344 345/218/345
f 347/220/347 346/219/346 345/218/345
f 340/213/340 346/219/346 347/220/347
f 341/214/341 340/213/340 347/220/347
f 354/221/354 348/222/348 349/223/349
f 354/221/354 355/224/355 350/225/350
f 356/226/356 357/227/357 349/223/349
f 351/228/351 356/226/356 349/223/349
f 354/221/354 350/225/350 348/222/348
f 357/227/357 354/221/354 349/223/349
usemtl tex_1744_lit_w11
f 358/229/358 359/230/359 352/231/352
f 359/230/359 360/232/360 353/233/353
f 352/231/352 359/230/359 353/233/353
usemtl tex_1716_lit
f 361/234/361 367/199/367 368/200/368
f 361/234/361 368/200/368 369/235/369
f 362/236/362 370/201/370 371/202/371
f 362/236/362 372/203/372 370/201/370
usemtl tex_1717_lit_w11
f 363/237/363 373/207/373 374/208/374
f 364/238/364 374/208/374 375/211/375
f 365/239/365 376/205/376 366/240/366
f 363/237/363 374/208/374 364/238/364
f 366/240/366 373/207/373 363/237/363
f 377/239/377 380/204/380 381/205/381
f 377/239/377 379/238/379 380/204/380
usemtl tex_2035_lit_w11
f 384/241/384 385/242/385 386/243/386
f 387/244/387 385/242/385 384/241/384
f 388/245/388 389/246/389 390/247/390
f 391/248/391 392/249/392 385/242/385
f 388/245/388 387/244/387 384/241/384
f 388/245/388 384/241/384 389/246/389
f 392/249/392 386/243/386 385/242/385
f 386/243/386 392/249/392 384/241/384
f 391/248/391 385/242/385 387/244/387
f 391/248/391 387/244/387 393/250/393
f 387/244/387 388/245/388 393/250/393
f 392/249/392 390/247/390 389/246/389
f 392/249/392 389/246/389 384/241/384
f 393/250/393 388/245/388 390/247/390
usemtl tex_1716_lit
f 394/251/394 395/252/395 402/253/402
f 403/254/403 396/255/396 397/256/397
f 404/257/404 403/254/403 397/256/397
f 404/257/404 397/256/397 398/258/398
f 405/259/405 402/253/402 395/252/395
usemtl tex_1717_lit_w11
f 406/260/406 407/261/407 399/262/399
f 407/261/407 400/263/400 399/262/399
f 408/264/408 401/265/401 409/266/409
usemtl tex_1716_lit
f 410/267/410 420/256/420 411/268/411
f 412/269/412 421/270/421 422/252/422
f 412/269/412 422/252/422 413/271/413
f 414/272/414 420/256/420 410/267/410
usemtl tex_1717_lit_w11
f 415/273/415 423/265/423 416/274/416
f 416/274/416 423/265/423 424/275/424
f 417/276/417 424/275/424 425/262/425
f 418/277/418 425/262/425 419/278/419
f 426/279/426 431/263/431 432/265/432
f 428/276/428 433/262/433 429/277/429
f 426/279/426 432/265/432 430/273/430
usemtl tex_1745_lit_w11
f 434/280/434 435/281/435 436/282/436
f 437/283/437 434/280/434 436/282/436
f 438/284/438 434/280/434 437/283/437
f 439/285/439 438/284/438 437/283/437
f 440/286/440 438/284/438 439/285/439
f 441/287/441 440/286/440 442/288/442
f 442/288/442 440/286/440 439/285/439
f 436/282/436 435/281/435 441/287/441
f 441/287/441 435/281/435 440/286/440
f 449/221/449 450/289/450 443/290/443
f 444/225/444 452/224/452 449/221/449
f 443/290/443 450/289/450 453/291/453
f 445/222/445 444/225/444 449/221/449
f 443/290/443 453/291/453 446/292/446
f 445/222/445 449/221/449 443/290/443
usemtl tex_1744_lit_w11
f 447/293/447 454/294/454 455/229/455
f 447/293/447 456/295/456 454/294/454
f 447/293/447 455/229/455 448/231/448
usemtl tex_1716_lit
f 457/296/457 463/269/463 464/271/464
f 458/297/458 463/269/463 457/296/457
f 459/298/459 465/272/465 466/267/466
f 459/298/459 466/267/466 467/268/467
usemtl tex_1717_lit_w11
f 460/299/460 468/277/468 469/278/469
f 462/300/462 470/279/470 472/273/472
f 473/301/473 477/279/477 474/300/474
f 475/302/475 478/276/478 476/299/476
f 474/300/474 479/274/479 475/302/475
f 474/300/474 480/273/480 479/274/479
f 476/299/476 478/276/478 481/277/481
usemtl tex_1745_lit_w11
f 482/303/482 483/228/483 484/304/484
f 485/292/485 486/305/486 487/306/487
f 488/307/488 489/223/489 490/290/490
f 489/223/489 491/222/491 490/290/490
f 490/290/490 487/306/487 488/307/488
f 483/228/483 489/223/489 484/304/484
f 484/304/484 489/223/489 488/307/488
f 490/290/490 485/292/485 487/306/487
usemtl tex_1744_lit_w11
f 492/308/492 493/309/493 494/293/494
f 495/233/495 496/310/496 492/308/492
f 495/233/495 492/308/492 497/231/497
f 497/231/497 492/308/492 494/293/494
usemtl tex_1745_lit_w11
f 498/304/498 503/162/503 499/303/499
f 500/305/500 504/167/504 501/306/501
f 505/169/505 504/167/504 500/305/500
f 504/167/504 506/168/506 501/306/501
f 506/168/506 507/165/507 501/306/501
f 507/165/507 508/166/508 502/307/502
f 508/166/508 509/163/509 502/307/502
f 509/163/509 510/164/510 498/304/498
f 510/164/510 511/161/511 498/304/498
f 498/304/498 511/161/511 503/162/503
f 501/306/501 507/165/507 502/307/502
f 502/307/502 509/163/509 498/304/498
usemtl tex_1744_lit_w11
f 512/308/512 515/170/515 513/309/513
f 514/310/514 516/172/516 512/308/512
f 517/173/517 516/172/516 514/310/514
f 516/172/516 515/170/515 512/308/512
f 515/170/515 518/171/518 513/309/513
