mtllib CtechmanZ.mtl
v -1078.8555908203125 -82.70243644714355 -44.0 1.000 1.000 1.000
v -1078.8555908203125 -164.70243644714355 -37.0 1.000 1.000 1.000
v -1078.8555908203125 -38.702436447143555 227.0 1.000 1.000 1.000
v -1078.8555908203125 -157.70243644714355 237.0 1.000 1.000 1.000
v -1035.8555908203125 -76.70243644714355 213.0 1.000 1.000 1.000
v -973.8555908203125 -85.70243644714355 33.0 1.000 1.000 1.000
v -971.8555908203125 -144.70243644714355 -18.0 1.000 1.000 1.000
v -1038.8555908203125 -128.70243644714355 239.0 1.000 1.000 1.000
v -972.8555908203125 -99.70243644714355 -31.0 1.000 1.000 1.000
v -972.8555908203125 -134.70243644714355 56.0 1.000 1.000 1.000
v -639.8883666992188 -36.47519826889038 68.0 1.000 1.000 1.000
v -988.8883666992188 -59.47519826889038 81.0 1.000 1.000 1.000
v -989.8883666992188 -153.47519826889038 103.0 1.000 1.000 1.000
v -655.8883666992188 -35.47519826889038 -9.0 1.000 1.000 1.000
v -990.8883666992188 -49.47519826889038 -47.0 1.000 1.000 1.000
v -656.8883666992188 -184.47519826889038 9.0 1.000 1.000 1.000
v -657.8883666992188 -131.47519826889038 110.0 1.000 1.000 1.000
v -654.8883666992188 -117.47519826889038 -75.0 1.000 1.000 1.000
v -988.8883666992188 -176.47519826889038 -45.0 1.000 1.000 1.000
v -988.8883666992188 -176.47519826889038 -45.0 1.000 1.000 1.000
v -989.8883666992188 -153.47519826889038 103.0 1.000 1.000 1.000
v -988.8883666992188 -59.47519826889038 81.0 1.000 1.000 1.000
v -990.8883666992188 -49.47519826889038 -47.0 1.000 1.000 1.000
v -971.8555908203125 -144.70243644714355 -18.0 1.000 1.000 1.000
v -972.8555908203125 -134.70243644714355 56.0 1.000 1.000 1.000
v -973.8555908203125 -85.70243644714355 33.0 1.000 1.000 1.000
v -972.8555908203125 -99.70243644714355 -31.0 1.000 1.000 1.000
v -515.8883666992188 -185.47519826889038 14.0 1.000 1.000 1.000
v -523.8883666992188 -34.47519826889038 -9.0 1.000 1.000 1.000
v -519.8883666992188 -115.47519826889038 -74.0 1.000 1.000 1.000
v -506.88836669921875 -38.47519826889038 70.0 1.000 1.000 1.000
v -509.88836669921875 -127.47519826889038 111.0 1.000 1.000 1.000
v -657.8883666992188 -131.47519826889038 110.0 1.000 1.000 1.000
v -656.8883666992188 -184.47519826889038 9.0 1.000 1.000 1.000
v -655.8883666992188 -35.47519826889038 -9.0 1.000 1.000 1.000
v -639.8883666992188 -36.47519826889038 68.0 1.000 1.000 1.000
v -654.8883666992188 -117.47519826889038 -75.0 1.000 1.000 1.000
v -992.8883666992188 -159.47519826889038 103.0 1.000 1.000 1.000
v -527.8883666992188 -125.47519826889038 104.0 1.000 1.000 1.000
v -992.8883666992188 -57.47519826889038 80.0 1.000 1.000 1.000
v -518.8883666992188 -43.47519826889038 38.0 1.000 1.000 1.000
v -521.8883666992188 -101.47519826889038 -67.0 1.000 1.000 1.000
v -992.8883666992188 -84.47519826889038 -62.0 1.000 1.000 1.000
v -522.8883666992188 -188.47519826889038 13.0 1.000 1.000 1.000
v -992.8883666992188 -180.47519826889038 -50.0 1.000 1.000 1.000
v -527.8883666992188 -125.47519826889038 104.0 1.000 1.000 1.000
v -522.8883666992188 -188.47519826889038 13.0 1.000 1.000 1.000
v -447.5890197753906 -127.63739013671875 109.0 1.000 1.000 1.000
v -338.5890197753906 -191.63739013671875 20.0 1.000 1.000 1.000
v -338.5890197753906 -144.63739013671875 116.0 1.000 1.000 1.000
v -338.5890197753906 -115.63739013671875 -65.0 1.000 1.000 1.000
v -490.5890197753906 -186.63739013671875 13.0 1.000 1.000 1.000
v -371.5890197753906 -118.63739013671875 -64.0 1.000 1.000 1.000
v -405.5890197753906 -35.63739013671875 3.0 1.000 1.000 1.000
v -338.5890197753906 -35.63739013671875 -17.0 1.000 1.000 1.000
v -338.5890197753906 -63.63739013671875 81.0 1.000 1.000 1.000
v -423.5890197753906 -42.63739013671875 69.0 1.000 1.000 1.000
v -338.5890197753906 -35.63739013671875 -17.0 1.000 1.000 1.000
v -338.5890197753906 -49.63739013671875 -67.0 1.000 1.000 1.000
v -338.5890197753906 -115.63739013671875 -65.0 1.000 1.000 1.000
v -338.5890197753906 -137.63739013671875 -102.0 1.000 1.000 1.000
v -338.5890197753906 -191.63739013671875 20.0 1.000 1.000 1.000
v -338.5890197753906 -191.63739013671875 -102.0 1.000 1.000 1.000
v -337.5890197753906 -189.63739013671875 133.0 1.000 1.000 1.000
v -338.5890197753906 -191.63739013671875 -102.0 1.000 1.000 1.000
v -338.5890197753906 -191.63739013671875 20.0 1.000 1.000 1.000
v -338.5890197753906 -144.63739013671875 116.0 1.000 1.000 1.000
v -338.5890197753906 -63.63739013671875 81.0 1.000 1.000 1.000
v -338.5890197753906 -35.63739013671875 -17.0 1.000 1.000 1.000
v -338.5890197753906 -13.63739013671875 13.0 1.000 1.000 1.000
v -338.5890197753906 -49.63739013671875 -67.0 1.000 1.000 1.000
v -2.0 -113.0 143.0 1.000 1.000 1.000
v -63.0 -65.0 133.0 1.000 1.000 1.000
v -154.0 19.0 20.0 1.000 1.000 1.000
v -1.0 -94.0 -74.0 1.000 1.000 1.000
v -91.0 -48.0 -70.0 1.000 1.000 1.000
v -154.0 19.0 20.0 1.000 1.000 1.000
v -1.0 -94.0 -74.0 1.000 1.000 1.000
v -338.5890197753906 -63.63739013671875 81.0 1.000 1.000 1.000
v -337.5890197753906 -189.63739013671875 133.0 1.000 1.000 1.000
v -338.5890197753906 -13.63739013671875 13.0 1.000 1.000 1.000
v -338.5890197753906 -191.63739013671875 -102.0 1.000 1.000 1.000
v -338.5890197753906 -13.63739013671875 13.0 1.000 1.000 1.000
v -338.5890197753906 -49.63739013671875 -67.0 1.000 1.000 1.000
v -338.5890197753906 -137.63739013671875 -102.0 1.000 1.000 1.000
v -338.5890197753906 -191.63739013671875 -102.0 1.000 1.000 1.000
v -405.5890197753906 -35.63739013671875 3.0 1.000 1.000 1.000
v -371.5890197753906 -118.63739013671875 -64.0 1.000 1.000 1.000
v -423.5890197753906 -42.63739013671875 69.0 1.000 1.000 1.000
v -490.5890197753906 -186.63739013671875 13.0 1.000 1.000 1.000
v -447.5890197753906 -127.63739013671875 109.0 1.000 1.000 1.000
v -519.8883666992188 -115.47519826889038 -74.0 1.000 1.000 1.000
v -506.88836669921875 -38.47519826889038 70.0 1.000 1.000 1.000
v -509.88836669921875 -127.47519826889038 111.0 1.000 1.000 1.000
v -523.8883666992188 -34.47519826889038 -9.0 1.000 1.000 1.000
v -515.8883666992188 -185.47519826889038 14.0 1.000 1.000 1.000
v -527.5890197753906 -125.63739013671875 104.0 1.000 1.000 1.000
v -339.5890197753906 -191.63739013671875 20.0 1.000 1.000 1.000
v -338.5890197753906 -142.63739013671875 124.0 1.000 1.000 1.000
v -339.5890197753906 -111.63739013671875 -72.0 1.000 1.000 1.000
v -522.5890197753906 -188.63739013671875 13.0 1.000 1.000 1.000
v -522.5890197753906 -101.63739013671875 -67.0 1.000 1.000 1.000
v -519.5890197753906 -43.63739013671875 38.0 1.000 1.000 1.000
v -339.5890197753906 -39.63739013671875 27.0 1.000 1.000 1.000
v -339.5890197753906 -39.63739013671875 27.0 1.000 1.000 1.000
v -338.5890197753906 -142.63739013671875 124.0 1.000 1.000 1.000
v -339.5890197753906 -191.63739013671875 20.0 1.000 1.000 1.000
v -339.5890197753906 -111.63739013671875 -72.0 1.000 1.000 1.000
v -527.5890197753906 -125.63739013671875 104.0 1.000 1.000 1.000
v -522.5890197753906 -188.63739013671875 13.0 1.000 1.000 1.000
v 1087.927879333496 -43.380823612213135 227.0 1.000 1.000 1.000
v 1087.927879333496 -169.38082361221313 -37.0 1.000 1.000 1.000
v 1087.927879333496 -87.38082361221313 -44.0 1.000 1.000 1.000
v 1087.927879333496 -162.38082361221313 237.0 1.000 1.000 1.000
v 981.9278793334961 -90.38082361221313 33.0 1.000 1.000 1.000
v 1044.927879333496 -81.38082361221313 213.0 1.000 1.000 1.000
v 1047.927879333496 -133.38082361221313 239.0 1.000 1.000 1.000
v 980.9278793334961 -150.38082361221313 -18.0 1.000 1.000 1.000
v 981.9278793334961 -104.38082361221313 -31.0 1.000 1.000 1.000
v 980.9278793334961 -139.38082361221313 56.0 1.000 1.000 1.000
v 998.3251266479492 -160.09517669677734 103.0 1.000 1.000 1.000
v 999.3251266479492 -60.095176696777344 81.0 1.000 1.000 1.000
v 650.3251266479492 -38.095176696777344 68.0 1.000 1.000 1.000
v 999.3251266479492 -48.095176696777344 -46.0 1.000 1.000 1.000
v 667.3251266479492 -38.095176696777344 -8.0 1.000 1.000 1.000
v 669.3251266479492 -135.09517669677734 111.0 1.000 1.000 1.000
v 666.3251266479492 -191.09517669677734 9.0 1.000 1.000 1.000
v 666.3251266479492 -125.09517669677734 -74.0 1.000 1.000 1.000
v 997.3251266479492 -183.09517669677734 -45.0 1.000 1.000 1.000
v 999.3251266479492 -48.095176696777344 -46.0 1.000 1.000 1.000
v 999.3251266479492 -60.095176696777344 81.0 1.000 1.000 1.000
v 998.3251266479492 -160.09517669677734 103.0 1.000 1.000 1.000
v 997.3251266479492 -183.09517669677734 -45.0 1.000 1.000 1.000
v 981.9278793334961 -104.38082361221313 -31.0 1.000 1.000 1.000
v 981.9278793334961 -90.38082361221313 33.0 1.000 1.000 1.000
v 980.9278793334961 -139.38082361221313 56.0 1.000 1.000 1.000
v 980.9278793334961 -150.38082361221313 -18.0 1.000 1.000 1.000
v 515.3251266479492 -130.09517669677734 110.0 1.000 1.000 1.000
v 522.3251266479492 -37.095176696777344 69.0 1.000 1.000 1.000
v 531.3251266479492 -38.095176696777344 -7.0 1.000 1.000 1.000
v 528.3251266479492 -123.09517669677734 -75.0 1.000 1.000 1.000
v 525.3251266479492 -190.09517669677734 14.0 1.000 1.000 1.000
v 650.3251266479492 -38.095176696777344 68.0 1.000 1.000 1.000
v 669.3251266479492 -135.09517669677734 111.0 1.000 1.000 1.000
v 667.3251266479492 -38.095176696777344 -8.0 1.000 1.000 1.000
v 666.3251266479492 -125.09517669677734 -74.0 1.000 1.000 1.000
v 666.3251266479492 -191.09517669677734 9.0 1.000 1.000 1.000
v 1001.3251266479492 -67.09517669677734 80.0 1.000 1.000 1.000
v 536.3251266479492 -130.09517669677734 104.0 1.000 1.000 1.000
v 1002.3251266479492 -160.09517669677734 103.0 1.000 1.000 1.000
v 1001.3251266479492 -92.09517669677734 -62.0 1.000 1.000 1.000
v 531.3251266479492 -106.09517669677734 -67.0 1.000 1.000 1.000
v 528.3251266479492 -48.095176696777344 38.0 1.000 1.000 1.000
v 531.3251266479492 -193.09517669677734 13.0 1.000 1.000 1.000
v 1001.3251266479492 -179.09517669677734 -49.0 1.000 1.000 1.000
v 531.3251266479492 -193.09517669677734 13.0 1.000 1.000 1.000
v 536.3251266479492 -130.09517669677734 104.0 1.000 1.000 1.000
v 348.1657943725586 -143.35110473632812 113.0 1.000 1.000 1.000
v 348.1657943725586 -196.35110473632812 20.0 1.000 1.000 1.000
v 456.1657943725586 -126.35110473632812 109.0 1.000 1.000 1.000
v 499.1657943725586 -189.35110473632812 13.0 1.000 1.000 1.000
v 347.1657943725586 -119.35110473632812 -66.0 1.000 1.000 1.000
v 414.1657943725586 -38.351104736328125 5.0 1.000 1.000 1.000
v 381.1657943725586 -117.35110473632812 -64.0 1.000 1.000 1.000
v 347.1657943725586 -65.35110473632812 83.0 1.000 1.000 1.000
v 348.1657943725586 -39.351104736328125 -17.0 1.000 1.000 1.000
v 435.1657943725586 -42.351104736328125 75.0 1.000 1.000 1.000
v 347.1657943725586 -65.35110473632812 83.0 1.000 1.000 1.000
v 348.1657943725586 -39.351104736328125 -17.0 1.000 1.000 1.000
v 348.1657943725586 -14.351104736328125 13.0 1.000 1.000 1.000
v 346.1657943725586 -39.351104736328125 -67.0 1.000 1.000 1.000
v 346.1657943725586 -198.35110473632812 133.0 1.000 1.000 1.000
v 348.1657943725586 -143.35110473632812 113.0 1.000 1.000 1.000
v 348.1657943725586 -196.35110473632812 20.0 1.000 1.000 1.000
v 348.1657943725586 -143.35110473632812 113.0 1.000 1.000 1.000
v 346.1657943725586 -198.35110473632812 133.0 1.000 1.000 1.000
v 347.1657943725586 -196.35110473632812 -102.0 1.000 1.000 1.000
v 347.1657943725586 -119.35110473632812 -66.0 1.000 1.000 1.000
v 347.1657943725586 -125.35110473632812 -103.0 1.000 1.000 1.000
v 348.1657943725586 -39.351104736328125 -17.0 1.000 1.000 1.000
v 346.1657943725586 -39.351104736328125 -67.0 1.000 1.000 1.000
v 347.1657943725586 -65.35110473632812 83.0 1.000 1.000 1.000
v 347.1657943725586 -65.35110473632812 83.0 1.000 1.000 1.000
v 348.1657943725586 -14.351104736328125 13.0 1.000 1.000 1.000
v 147.0 19.0 25.0 1.000 1.000 1.000
v 67.0 -61.0 136.0 1.000 1.000 1.000
v -2.0 -113.0 143.0 1.000 1.000 1.000
v -1.0 -94.0 -74.0 1.000 1.000 1.000
v 92.0 -46.0 -73.0 1.000 1.000 1.000
v 92.0 -46.0 -73.0 1.000 1.000 1.000
v 147.0 19.0 25.0 1.000 1.000 1.000
v -1.0 -94.0 -74.0 1.000 1.000 1.000
v 347.1657943725586 -65.35110473632812 83.0 1.000 1.000 1.000
v 348.1657943725586 -14.351104736328125 13.0 1.000 1.000 1.000
v 346.1657943725586 -198.35110473632812 133.0 1.000 1.000 1.000
v 347.1657943725586 -196.35110473632812 -102.0 1.000 1.000 1.000
v 346.1657943725586 -39.351104736328125 -67.0 1.000 1.000 1.000
v 347.1657943725586 -125.35110473632812 -103.0 1.000 1.000 1.000
v 348.1657943725586 -14.351104736328125 13.0 1.000 1.000 1.000
v 347.1657943725586 -196.35110473632812 -102.0 1.000 1.000 1.000
v 414.1657943725586 -38.351104736328125 5.0 1.000 1.000 1.000
v 435.1657943725586 -42.351104736328125 75.0 1.000 1.000 1.000
v 381.1657943725586 -117.35110473632812 -64.0 1.000 1.000 1.000
v 499.1657943725586 -189.35110473632812 13.0 1.000 1.000 1.000
v 456.1657943725586 -126.35110473632812 109.0 1.000 1.000 1.000
v 531.3251266479492 -38.095176696777344 -7.0 1.000 1.000 1.000
v 528.3251266479492 -123.09517669677734 -75.0 1.000 1.000 1.000
v 525.3251266479492 -190.09517669677734 14.0 1.000 1.000 1.000
v 515.3251266479492 -130.09517669677734 110.0 1.000 1.000 1.000
v 522.3251266479492 -37.095176696777344 69.0 1.000 1.000 1.000
v 348.1657943725586 -146.35110473632812 124.0 1.000 1.000 1.000
v 348.1657943725586 -195.35110473632812 20.0 1.000 1.000 1.000
v 537.1657943725586 -129.35110473632812 104.0 1.000 1.000 1.000
v 531.1657943725586 -193.35110473632812 13.0 1.000 1.000 1.000
v 348.1657943725586 -115.35110473632812 -72.0 1.000 1.000 1.000
v 348.1657943725586 -43.351104736328125 27.0 1.000 1.000 1.000
v 528.1657943725586 -48.351104736328125 38.0 1.000 1.000 1.000
v 531.1657943725586 -106.35110473632812 -67.0 1.000 1.000 1.000
v 348.1657943725586 -115.35110473632812 -72.0 1.000 1.000 1.000
v 348.1657943725586 -195.35110473632812 20.0 1.000 1.000 1.000
v 348.1657943725586 -146.35110473632812 124.0 1.000 1.000 1.000
v 348.1657943725586 -43.351104736328125 27.0 1.000 1.000 1.000
v 531.1657943725586 -193.35110473632812 13.0 1.000 1.000 1.000
v 537.1657943725586 -129.35110473632812 104.0 1.000 1.000 1.000
v -304.86859130859375 437.22406101226807 0.0 1.000 1.000 1.000
v -304.86859130859375 437.22406101226807 0.0 1.000 1.000 1.000
v -198.86859130859375 437.22406101226807 0.0 1.000 1.000 1.000
v -198.86859130859375 437.22406101226807 0.0 1.000 1.000 1.000
v -254.86859130859375 376.22406101226807 70.0 1.000 1.000 1.000
v -198.86859130859375 437.22406101226807 0.0 1.000 1.000 1.000
v -226.86859130859375 413.22406101226807 -45.0 1.000 1.000 1.000
v -198.86859130859375 437.22406101226807 0.0 1.000 1.000 1.000
v -304.86859130859375 437.22406101226807 0.0 1.000 1.000 1.000
v -51.41338896751404 469.42901611328125 44.0 1.000 1.000 1.000
v 49.58661103248596 468.42901611328125 44.0 1.000 1.000 1.000
v -6.413388967514038 442.42901611328125 73.0 1.000 1.000 1.000
v -51.41338896751404 469.42901611328125 44.0 1.000 1.000 1.000
v 27.586611032485962 480.42901611328125 -37.0 1.000 1.000 1.000
v 49.58661103248596 468.42901611328125 44.0 1.000 1.000 1.000
v -304.86859130859375 437.22406101226807 0.0 1.000 1.000 1.000
v -288.86859130859375 414.22406101226807 -41.0 1.000 1.000 1.000
v -226.86859130859375 413.22406101226807 -45.0 1.000 1.000 1.000
v -198.86859130859375 437.22406101226807 0.0 1.000 1.000 1.000
v -51.41338896751404 469.42901611328125 44.0 1.000 1.000 1.000
v -46.41338896751404 482.42901611328125 -31.0 1.000 1.000 1.000
v 27.586611032485962 480.42901611328125 -37.0 1.000 1.000 1.000
v 49.58661103248596 468.42901611328125 44.0 1.000 1.000 1.000
v -772.9182399511337 342.36233615875244 55.0 1.000 1.000 1.000
v -731.9182399511337 407.36233615875244 -27.0 1.000 1.000 1.000
v -760.9182399511337 347.36233615875244 -44.0 1.000 1.000 1.000
v -743.9182399511337 429.36233615875244 52.0 1.000 1.000 1.000
v -731.9182399511337 407.36233615875244 -27.0 1.000 1.000 1.000
v -651.9182399511337 418.36233615875244 41.0 1.000 1.000 1.000
v -652.9182399511337 412.36233615875244 -26.0 1.000 1.000 1.000
v -743.9182399511337 429.36233615875244 52.0 1.000 1.000 1.000
v -652.9182399511337 412.36233615875244 -26.0 1.000 1.000 1.000
v -760.9182399511337 347.36233615875244 -44.0 1.000 1.000 1.000
v -731.9182399511337 407.36233615875244 -27.0 1.000 1.000 1.000
v -649.9182399511337 349.36233615875244 -32.0 1.000 1.000 1.000
v -760.9182399511337 347.36233615875244 -44.0 1.000 1.000 1.000
v -650.9182399511337 357.36233615875244 47.0 1.000 1.000 1.000
v -772.9182399511337 342.36233615875244 55.0 1.000 1.000 1.000
v -649.9182399511337 349.36233615875244 -32.0 1.000 1.000 1.000
v -651.9182399511337 418.36233615875244 41.0 1.000 1.000 1.000
v -772.9182399511337 342.36233615875244 55.0 1.000 1.000 1.000
v -650.9182399511337 357.36233615875244 47.0 1.000 1.000 1.000
v -743.9182399511337 429.36233615875244 52.0 1.000 1.000 1.000
v -463.04964864254 341.1382751464844 45.0 1.000 1.000 1.000
v -469.04964864254 424.1382751464844 58.0 1.000 1.000 1.000
v -464.04964864254 339.1382751464844 -10.0 1.000 1.000 1.000
v -464.04964864254 394.1382751464844 -46.0 1.000 1.000 1.000
v -463.04964864254 445.1382751464844 5.0 1.000 1.000 1.000
v -650.9182399511337 357.36233615875244 47.0 1.000 1.000 1.000
v -649.9182399511337 349.36233615875244 -32.0 1.000 1.000 1.000
v -651.9182399511337 418.36233615875244 41.0 1.000 1.000 1.000
v -652.9182399511337 412.36233615875244 -26.0 1.000 1.000 1.000
v -391.04964864254 447.1382751464844 6.0 1.000 1.000 1.000
v -389.04964864254 411.1382751464844 -46.0 1.000 1.000 1.000
v -391.04964864254 329.1382751464844 -10.0 1.000 1.000 1.000
v -391.04964864254 348.1382751464844 51.0 1.000 1.000 1.000
v -399.04964864254 426.1382751464844 71.0 1.000 1.000 1.000
v -463.04964864254 445.1382751464844 5.0 1.000 1.000 1.000
v -464.04964864254 394.1382751464844 -46.0 1.000 1.000 1.000
v -469.04964864254 424.1382751464844 58.0 1.000 1.000 1.000
v -464.04964864254 339.1382751464844 -10.0 1.000 1.000 1.000
v -463.04964864254 341.1382751464844 45.0 1.000 1.000 1.000
v -379.04964864254 326.1382751464844 85.0 1.000 1.000 1.000
v -385.04964864254 427.1382751464844 89.0 1.000 1.000 1.000
v -655.04964864254 355.1382751464844 42.0 1.000 1.000 1.000
v -655.04964864254 361.1382751464844 -25.0 1.000 1.000 1.000
v -379.04964864254 323.1382751464844 -28.0 1.000 1.000 1.000
v -658.04964864254 418.1382751464844 42.0 1.000 1.000 1.000
v -385.04964864254 440.1382751464844 -49.0 1.000 1.000 1.000
v -657.04964864254 402.1382751464844 -27.0 1.000 1.000 1.000
v -379.04964864254 326.1382751464844 85.0 1.000 1.000 1.000
v -379.04964864254 323.1382751464844 -28.0 1.000 1.000 1.000
v -320.0876735448837 350.22493743896484 62.0 1.000 1.000 1.000
v -255.08767354488373 330.22493743896484 -16.0 1.000 1.000 1.000
v -246.08767354488373 334.22493743896484 66.0 1.000 1.000 1.000
v -169.08767354488373 388.22493743896484 88.0 1.000 1.000 1.000
v -314.0876735448837 421.22493743896484 81.0 1.000 1.000 1.000
v -247.08767354488373 400.22493743896484 -55.0 1.000 1.000 1.000
v -121.08767354488373 415.22493743896484 11.0 1.000 1.000 1.000
v -155.08767354488373 382.22493743896484 -67.0 1.000 1.000 1.000
v -313.0876735448837 327.22493743896484 -10.0 1.000 1.000 1.000
v -255.08767354488373 450.22493743896484 21.0 1.000 1.000 1.000
v -431.86859130859375 220.22406101226807 68.0 1.000 1.000 1.000
v -429.86859130859375 208.22406101226807 -19.0 1.000 1.000 1.000
v -436.86859130859375 354.22406101226807 -50.0 1.000 1.000 1.000
v -435.86859130859375 372.22406101226807 27.0 1.000 1.000 1.000
v -436.86859130859375 334.22406101226807 75.0 1.000 1.000 1.000
v -255.08767354488373 330.22493743896484 -16.0 1.000 1.000 1.000
v -246.08767354488373 334.22493743896484 66.0 1.000 1.000 1.000
v -155.08767354488373 382.22493743896484 -67.0 1.000 1.000 1.000
v -121.08767354488373 415.22493743896484 11.0 1.000 1.000 1.000
v -169.08767354488373 388.22493743896484 88.0 1.000 1.000 1.000
v -255.08767354488373 450.22493743896484 21.0 1.000 1.000 1.000
v -247.08767354488373 400.22493743896484 -55.0 1.000 1.000 1.000
v -313.0876735448837 327.22493743896484 -10.0 1.000 1.000 1.000
v -320.0876735448837 350.22493743896484 62.0 1.000 1.000 1.000
v -314.0876735448837 421.22493743896484 81.0 1.000 1.000 1.000
v -391.04964864254 447.1382751464844 6.0 1.000 1.000 1.000
v -389.04964864254 411.1382751464844 -46.0 1.000 1.000 1.000
v -391.04964864254 329.1382751464844 -10.0 1.000 1.000 1.000
v -391.04964864254 348.1382751464844 51.0 1.000 1.000 1.000
v -399.04964864254 426.1382751464844 71.0 1.000 1.000 1.000
v -133.08767354488373 429.22493743896484 68.0 1.000 1.000 1.000
v -77.08767354488373 318.22493743896484 81.0 1.000 1.000 1.000
v -45.08767354488373 315.22493743896484 -45.0 1.000 1.000 1.000
v -129.08767354488373 443.22493743896484 -33.0 1.000 1.000 1.000
v -379.0876735448837 326.22493743896484 85.0 1.000 1.000 1.000
v -385.0876735448837 427.22493743896484 89.0 1.000 1.000 1.000
v -385.0876735448837 440.22493743896484 -49.0 1.000 1.000 1.000
v -379.0876735448837 323.22493743896484 -28.0 1.000 1.000 1.000
v -379.0876735448837 323.22493743896484 -28.0 1.000 1.000 1.000
v -379.0876735448837 326.22493743896484 85.0 1.000 1.000 1.000
v 370.1021728515625 -48.76764699816704 -42.76102304458618 1.000 1.000 1.000
v 339.1021728515625 9.232353001832962 -26.76102304458618 1.000 1.000 1.000
v 381.1021728515625 -51.76764699816704 57.23897695541382 1.000 1.000 1.000
v 349.1021728515625 33.23235300183296 51.23897695541382 1.000 1.000 1.000
v 262.1021728515625 18.232353001832962 -27.76102304458618 1.000 1.000 1.000
v 260.1021728515625 18.232353001832962 38.23897695541382 1.000 1.000 1.000
v 339.1021728515625 9.232353001832962 -26.76102304458618 1.000 1.000 1.000
v 349.1021728515625 33.23235300183296 51.23897695541382 1.000 1.000 1.000
v 339.1021728515625 9.232353001832962 -26.76102304458618 1.000 1.000 1.000
v 370.1021728515625 -48.76764699816704 -42.76102304458618 1.000 1.000 1.000
v 262.1021728515625 18.232353001832962 -27.76102304458618 1.000 1.000 1.000
v 259.1021728515625 -48.76764699816704 -31.76102304458618 1.000 1.000 1.000
v 381.1021728515625 -51.76764699816704 57.23897695541382 1.000 1.000 1.000
v 259.1021728515625 -34.76764699816704 44.23897695541382 1.000 1.000 1.000
v 370.1021728515625 -48.76764699816704 -42.76102304458618 1.000 1.000 1.000
v 259.1021728515625 -48.76764699816704 -31.76102304458618 1.000 1.000 1.000
v 259.1021728515625 -34.76764699816704 44.23897695541382 1.000 1.000 1.000
v 381.1021728515625 -51.76764699816704 57.23897695541382 1.000 1.000 1.000
v 260.1021728515625 18.232353001832962 38.23897695541382 1.000 1.000 1.000
v 349.1021728515625 33.23235300183296 51.23897695541382 1.000 1.000 1.000
v 476.85980570316315 402.78150177001953 63.150086402893066 1.000 1.000 1.000
v 470.85980570316315 326.78150177001953 49.150086402893066 1.000 1.000 1.000
v 472.85980570316315 313.78150177001953 -5.849913597106934 1.000 1.000 1.000
v 473.85980570316315 376.78150177001953 -43.849913597106934 1.000 1.000 1.000
v 471.85980570316315 428.78150177001953 7.150086402893066 1.000 1.000 1.000
v 259.1021728515625 -34.76764699816704 44.23897695541382 1.000 1.000 1.000
v 259.1021728515625 -48.76764699816704 -31.76102304458618 1.000 1.000 1.000
v 260.1021728515625 18.232353001832962 38.23897695541382 1.000 1.000 1.000
v 262.1021728515625 18.232353001832962 -27.76102304458618 1.000 1.000 1.000
v 398.85980570316315 431.78150177001953 7.150086402893066 1.000 1.000 1.000
v 400.85980570316315 392.78150177001953 -46.849913597106934 1.000 1.000 1.000
v 399.85980570316315 303.78150177001953 -6.849913597106934 1.000 1.000 1.000
v 397.85980570316315 337.78150177001953 53.150086402893066 1.000 1.000 1.000
v 404.85980570316315 411.78150177001953 76.15008640289307 1.000 1.000 1.000
v 473.85980570316315 376.78150177001953 -43.849913597106934 1.000 1.000 1.000
v 471.85980570316315 428.78150177001953 7.150086402893066 1.000 1.000 1.000
v 472.85980570316315 313.78150177001953 -5.849913597106934 1.000 1.000 1.000
v 470.85980570316315 326.78150177001953 49.150086402893066 1.000 1.000 1.000
v 476.85980570316315 402.78150177001953 63.150086402893066 1.000 1.000 1.000
v 660.8598057031631 337.78150177001953 49.150086402893066 1.000 1.000 1.000
v 389.85980570316315 411.78150177001953 91.15008640289307 1.000 1.000 1.000
v 383.85980570316315 310.78150177001953 88.15008640289307 1.000 1.000 1.000
v 385.85980570316315 305.78150177001953 -24.849913597106934 1.000 1.000 1.000
v 661.8598057031631 343.78150177001953 -16.849913597106934 1.000 1.000 1.000
v 391.85980570316315 421.78150177001953 -46.849913597106934 1.000 1.000 1.000
v 663.8598057031631 401.78150177001953 48.150086402893066 1.000 1.000 1.000
v 663.8598057031631 383.78150177001953 -19.849913597106934 1.000 1.000 1.000
v 383.85980570316315 310.78150177001953 88.15008640289307 1.000 1.000 1.000
v 385.85980570316315 305.78150177001953 -24.849913597106934 1.000 1.000 1.000
v 251.05946695804596 320.87169647216797 69.0 1.000 1.000 1.000
v 262.05946695804596 316.87169647216797 -12.0 1.000 1.000 1.000
v 327.05946695804596 338.87169647216797 61.0 1.000 1.000 1.000
v 321.05946695804596 403.87169647216797 80.0 1.000 1.000 1.000
v 174.05946695804596 376.87169647216797 89.0 1.000 1.000 1.000
v 163.05946695804596 366.87169647216797 -66.0 1.000 1.000 1.000
v 128.05946695804596 401.87169647216797 10.0 1.000 1.000 1.000
v 256.05946695804596 381.87169647216797 -57.0 1.000 1.000 1.000
v 321.05946695804596 311.87169647216797 -10.0 1.000 1.000 1.000
v 262.05946695804596 432.87169647216797 17.0 1.000 1.000 1.000
v -65.86859130859375 219.22406101226807 68.0 1.000 1.000 1.000
v -68.86859130859375 211.22406101226807 -16.0 1.000 1.000 1.000
v -66.86859130859375 353.22406101226807 -49.0 1.000 1.000 1.000
v -66.86859130859375 375.22406101226807 26.0 1.000 1.000 1.000
v -67.86859130859375 335.22406101226807 75.0 1.000 1.000 1.000
v 251.05946695804596 320.87169647216797 69.0 1.000 1.000 1.000
v 262.05946695804596 316.87169647216797 -12.0 1.000 1.000 1.000
v 163.05946695804596 366.87169647216797 -66.0 1.000 1.000 1.000
v 128.05946695804596 401.87169647216797 10.0 1.000 1.000 1.000
v 174.05946695804596 376.87169647216797 89.0 1.000 1.000 1.000
v 262.05946695804596 432.87169647216797 17.0 1.000 1.000 1.000
v 256.05946695804596 381.87169647216797 -57.0 1.000 1.000 1.000
v 321.05946695804596 311.87169647216797 -10.0 1.000 1.000 1.000
v 327.05946695804596 338.87169647216797 61.0 1.000 1.000 1.000
v 321.05946695804596 403.87169647216797 80.0 1.000 1.000 1.000
v 400.85980570316315 392.78150177001953 -46.849913597106934 1.000 1.000 1.000
v 398.85980570316315 431.78150177001953 7.150086402893066 1.000 1.000 1.000
v 399.85980570316315 303.78150177001953 -6.849913597106934 1.000 1.000 1.000
v 397.85980570316315 337.78150177001953 53.150086402893066 1.000 1.000 1.000
v 404.85980570316315 411.78150177001953 76.15008640289307 1.000 1.000 1.000
v 82.05946695804596 302.87169647216797 79.0 1.000 1.000 1.000
v 52.05946695804596 296.87169647216797 -47.0 1.000 1.000 1.000
v 384.05946695804596 310.87169647216797 89.0 1.000 1.000 1.000
v 390.05946695804596 411.87169647216797 91.0 1.000 1.000 1.000
v 139.05946695804596 412.87169647216797 66.0 1.000 1.000 1.000
v 136.05946695804596 424.87169647216797 -36.0 1.000 1.000 1.000
v 392.05946695804596 421.87169647216797 -47.0 1.000 1.000 1.000
v 386.05946695804596 305.87169647216797 -25.0 1.000 1.000 1.000
v 386.05946695804596 305.87169647216797 -25.0 1.000 1.000 1.000
v 384.05946695804596 310.87169647216797 89.0 1.000 1.000 1.000
v -66.86859130859375 375.22406101226807 26.0 1.000 1.000 1.000
v -198.86859130859375 437.22406101226807 0.0 1.000 1.000 1.000
v -254.86859130859375 376.22406101226807 70.0 1.000 1.000 1.000
v -436.86859130859375 334.22406101226807 75.0 1.000 1.000 1.000
v -251.86859130859375 236.22406101226807 189.0 1.000 1.000 1.000
v -67.86859130859375 335.22406101226807 75.0 1.000 1.000 1.000
v -91.86859130859375 223.22406101226807 161.0 1.000 1.000 1.000
v -399.86859130859375 223.22406101226807 161.0 1.000 1.000 1.000
v -414.86859130859375 86.22406101226807 20.0 1.000 1.000 1.000
v -321.86859130859375 95.22406101226807 163.0 1.000 1.000 1.000
v -304.86859130859375 437.22406101226807 0.0 1.000 1.000 1.000
v -435.86859130859375 372.22406101226807 27.0 1.000 1.000 1.000
v -178.86859130859375 95.22406101226807 163.0 1.000 1.000 1.000
v -436.86859130859375 354.22406101226807 -50.0 1.000 1.000 1.000
v -66.86859130859375 353.22406101226807 -49.0 1.000 1.000 1.000
v -429.86859130859375 208.22406101226807 -19.0 1.000 1.000 1.000
v -414.86859130859375 86.22406101226807 20.0 1.000 1.000 1.000
v -431.86859130859375 220.22406101226807 68.0 1.000 1.000 1.000
v -65.86859130859375 219.22406101226807 68.0 1.000 1.000 1.000
v -67.86859130859375 335.22406101226807 75.0 1.000 1.000 1.000
v -91.86859130859375 223.22406101226807 161.0 1.000 1.000 1.000
v -435.86859130859375 372.22406101226807 27.0 1.000 1.000 1.000
v -436.86859130859375 334.22406101226807 75.0 1.000 1.000 1.000
v -254.86859130859375 376.22406101226807 70.0 1.000 1.000 1.000
v -251.86859130859375 236.22406101226807 189.0 1.000 1.000 1.000
v -178.86859130859375 95.22406101226807 163.0 1.000 1.000 1.000
v -98.86859130859375 86.22406101226807 21.0 1.000 1.000 1.000
v -399.86859130859375 223.22406101226807 161.0 1.000 1.000 1.000
v -321.86859130859375 95.22406101226807 163.0 1.000 1.000 1.000
v -68.86859130859375 211.22406101226807 -16.0 1.000 1.000 1.000
v -250.86859130859375 185.22406101226807 -84.0 1.000 1.000 1.000
v -148.86859130859375 91.22406101226807 -68.0 1.000 1.000 1.000
v -358.86859130859375 90.22406101226807 -66.0 1.000 1.000 1.000
v -320.86859130859375 336.22406101226807 -96.0 1.000 1.000 1.000
v -354.86859130859375 197.22406101226807 -74.0 1.000 1.000 1.000
v -160.86859130859375 196.22406101226807 -80.0 1.000 1.000 1.000
v -68.86859130859375 211.22406101226807 -16.0 1.000 1.000 1.000
v -66.86859130859375 353.22406101226807 -49.0 1.000 1.000 1.000
v -169.86859130859375 336.22406101226807 -96.0 1.000 1.000 1.000
v -288.86859130859375 414.22406101226807 -41.0 1.000 1.000 1.000
v -226.86859130859375 413.22406101226807 -45.0 1.000 1.000 1.000
v -304.86859130859375 437.22406101226807 0.0 1.000 1.000 1.000
v -198.86859130859375 437.22406101226807 0.0 1.000 1.000 1.000
v -436.86859130859375 354.22406101226807 -50.0 1.000 1.000 1.000
v -414.86859130859375 86.22406101226807 20.0 1.000 1.000 1.000
v -429.86859130859375 208.22406101226807 -19.0 1.000 1.000 1.000
v -148.86859130859375 91.22406101226807 -68.0 1.000 1.000 1.000
v -68.86859130859375 211.22406101226807 -16.0 1.000 1.000 1.000
v -98.86859130859375 86.22406101226807 21.0 1.000 1.000 1.000
v -198.86859130859375 437.22406101226807 0.0 1.000 1.000 1.000
v -66.86859130859375 353.22406101226807 -49.0 1.000 1.000 1.000
v -169.86859130859375 336.22406101226807 -96.0 1.000 1.000 1.000
v -160.86859130859375 196.22406101226807 -80.0 1.000 1.000 1.000
v -250.86859130859375 185.22406101226807 -84.0 1.000 1.000 1.000
v -354.86859130859375 197.22406101226807 -74.0 1.000 1.000 1.000
v -429.86859130859375 208.22406101226807 -19.0 1.000 1.000 1.000
v -436.86859130859375 354.22406101226807 -50.0 1.000 1.000 1.000
v -358.86859130859375 90.22406101226807 -66.0 1.000 1.000 1.000
v -320.86859130859375 336.22406101226807 -96.0 1.000 1.000 1.000
v 76.0 63.0 143.0 1.000 1.000 1.000
v -70.0 60.0 140.0 1.000 1.000 1.000
v -146.0 67.0 20.0 1.000 1.000 1.000
v 137.0 69.0 21.0 1.000 1.000 1.000
v -146.0 67.0 20.0 1.000 1.000 1.000
v -87.0 73.0 -59.0 1.000 1.000 1.000
v 96.0 75.0 -62.0 1.000 1.000 1.000
v 137.0 69.0 21.0 1.000 1.000 1.000
v -178.86859130859375 95.22406101226807 163.0 1.000 1.000 1.000
v -321.86859130859375 95.22406101226807 163.0 1.000 1.000 1.000
v -98.86859130859375 86.22406101226807 21.0 1.000 1.000 1.000
v -414.86859130859375 86.22406101226807 20.0 1.000 1.000 1.000
v -414.86859130859375 86.22406101226807 20.0 1.000 1.000 1.000
v -358.86859130859375 90.22406101226807 -66.0 1.000 1.000 1.000
v -148.86859130859375 91.22406101226807 -68.0 1.000 1.000 1.000
v -98.86859130859375 86.22406101226807 21.0 1.000 1.000 1.000
v -63.86859130859375 387.22406101226807 148.0 1.000 1.000 1.000
v -461.86859130859375 435.22406101226807 -61.0 1.000 1.000 1.000
v -441.86859130859375 384.22406101226807 147.0 1.000 1.000 1.000
v -63.86859130859375 387.22406101226807 148.0 1.000 1.000 1.000
v -400.86859130859375 -15.775938987731934 147.0 1.000 1.000 1.000
v -104.86859130859375 -14.775938987731934 146.0 1.000 1.000 1.000
v -42.86859130859375 431.22406101226807 -61.0 1.000 1.000 1.000
v -441.86859130859375 384.22406101226807 147.0 1.000 1.000 1.000
v -406.86859130859375 -20.775938987731934 -39.0 1.000 1.000 1.000
v -103.86859130859375 -18.775938987731934 -40.0 1.000 1.000 1.000
v -400.86859130859375 -15.775938987731934 147.0 1.000 1.000 1.000
v -104.86859130859375 -14.775938987731934 146.0 1.000 1.000 1.000
v -42.86859130859375 431.22406101226807 -61.0 1.000 1.000 1.000
v -103.86859130859375 -18.775938987731934 -40.0 1.000 1.000 1.000
v -406.86859130859375 -20.775938987731934 -39.0 1.000 1.000 1.000
v -461.86859130859375 435.22406101226807 -61.0 1.000 1.000 1.000
v -406.86859130859375 -20.775938987731934 -39.0 1.000 1.000 1.000
v -400.86859130859375 -15.775938987731934 147.0 1.000 1.000 1.000
v -461.86859130859375 435.22406101226807 -61.0 1.000 1.000 1.000
v -103.86859130859375 -18.775938987731934 -40.0 1.000 1.000 1.000
v -42.86859130859375 431.22406101226807 -61.0 1.000 1.000 1.000
v -104.86859130859375 -14.775938987731934 146.0 1.000 1.000 1.000
v -441.86859130859375 384.22406101226807 147.0 1.000 1.000 1.000
v -63.86859130859375 387.22406101226807 148.0 1.000 1.000 1.000
v -91.0 -48.0 -70.0 1.000 1.000 1.000
v -87.0 73.0 -59.0 1.000 1.000 1.000
v -91.0 -48.0 -70.0 1.000 1.000 1.000
v -70.0 60.0 140.0 1.000 1.000 1.000
v -63.0 -65.0 133.0 1.000 1.000 1.000
v -2.0 -113.0 143.0 1.000 1.000 1.000
v -154.0 19.0 20.0 1.000 1.000 1.000
v -146.0 67.0 20.0 1.000 1.000 1.000
v 92.0 -46.0 -73.0 1.000 1.000 1.000
v 96.0 75.0 -62.0 1.000 1.000 1.000
v 92.0 -46.0 -73.0 1.000 1.000 1.000
v 147.0 19.0 25.0 1.000 1.000 1.000
v 137.0 69.0 21.0 1.000 1.000 1.000
v 76.0 63.0 143.0 1.000 1.000 1.000
v 67.0 -61.0 136.0 1.000 1.000 1.000
v -154.0 19.0 20.0 1.000 1.000 1.000
v -146.0 67.0 20.0 1.000 1.000 1.000
v -91.0 -48.0 -70.0 1.000 1.000 1.000
v -87.0 73.0 -59.0 1.000 1.000 1.000
v -1.0 -94.0 -74.0 1.000 1.000 1.000
v 96.0 75.0 -62.0 1.000 1.000 1.000
v 92.0 -46.0 -73.0 1.000 1.000 1.000
v 147.0 19.0 25.0 1.000 1.000 1.000
v 137.0 69.0 21.0 1.000 1.000 1.000
v -147.0 24.0 147.0 1.000 1.000 1.000
v -166.0 -351.0 132.0 1.000 1.000 1.000
v 172.0 -351.0 143.0 1.000 1.000 1.000
v 149.0 25.0 146.0 1.000 1.000 1.000
v -153.0 19.0 -39.0 1.000 1.000 1.000
v 149.0 25.0 146.0 1.000 1.000 1.000
v 151.0 21.0 -40.0 1.000 1.000 1.000
v -147.0 24.0 147.0 1.000 1.000 1.000
v 166.0 -350.0 -80.0 1.000 1.000 1.000
v -164.0 -351.0 -80.0 1.000 1.000 1.000
v -164.0 -351.0 -80.0 1.000 1.000 1.000
v -153.0 19.0 -39.0 1.000 1.000 1.000
v 151.0 21.0 -40.0 1.000 1.000 1.000
v 166.0 -350.0 -80.0 1.000 1.000 1.000
v -166.0 -351.0 132.0 1.000 1.000 1.000
v -153.0 19.0 -39.0 1.000 1.000 1.000
v -164.0 -351.0 -80.0 1.000 1.000 1.000
v -147.0 24.0 147.0 1.000 1.000 1.000
v 166.0 -350.0 -80.0 1.000 1.000 1.000
v 151.0 21.0 -40.0 1.000 1.000 1.000
v 172.0 -351.0 143.0 1.000 1.000 1.000
v 149.0 25.0 146.0 1.000 1.000 1.000
vt 0.9111 0.9590
vt 0.9121 0.9362
vt 0.9482 0.0560
vt 0.9502 0.0221
vt 0.5742 0.1341
vt 0.0010 0.7897
vt -0.0205 0.9609
vt 0.5977 0.0456
vt -0.0098 1.0033
vt -0.0049 0.7109
vt 0.2646 0.5918
vt 0.2021 0.9603
vt 0.6094 0.9564
vt 0.2578 0.6100
vt 0.2002 0.9616
vt 0.8154 0.6048
vt 0.6025 0.6081
vt 0.5527 0.6048
vt 0.7500 0.9544
vt 0.5791 0.9570
vt 0.5420 0.9583
vt 0.3652 0.9616
vt 0.4150 0.9609
vt 0.8525 0.4479
vt 0.2842 0.4622
vt 0.5781 0.4551
vt 0.3027 0.4434
vt 0.6221 0.4434
vt 0.6553 0.9870
vt 0.5996 0.3320
vt 0.3945 0.9889
vt 0.0762 0.3249
vt 0.4727 0.3249
vt 0.4658 0.9505
vt 0.9355 0.3210
vt 0.7090 0.9473
vt 0.6357 0.3737
vt 0.8945 0.2507
vt 0.7227 0.2513
vt 0.6182 0.2526
vt 0.8613 0.4193
vt 0.6221 0.2891
vt 0.3145 0.3307
vt 0.3291 0.2559
vt 0.4326 0.2546
vt 0.3350 0.3503
vt 0.1670 0.5182
vt 0.2021 0.6302
vt 0.3320 0.6120
vt 0.3818 0.6921
vt 0.4697 0.3991
vt 0.4893 0.6810
vt 0.4473 0.1387
vt 0.3604 0.1882
vt 0.2070 0.2858
vt 0.1182 0.4525
vt 0.4746 0.7168
vt 0.3232 0.6628
vt 0.1777 0.9824
vt 0.4736 0.9805
vt 0.0967 0.5703
vt 0.0342 0.9837
vt 0.4775 0.6953
vt 0.4785 0.9811
vt 0.7139 0.6452
vt 0.8936 0.9993
vt 0.8545 0.5671
vt 0.8145 0.9987
vt 0.6230 0.9961
vt 0.5166 0.6966
vt 0.5049 0.9948
vt 0.9590 0.0671
vt 0.6963 0.0690
vt 0.5342 0.0710
vt 0.1504 0.0742
vt 0.9072 0.0762
vt 0.9131 0.8535
vt 0.9131 0.8737
vt 0.9072 0.0462
vt 0.1318 0.6986
vt 0.5918 0.1354
vt 0.6084 0.0573
vt 0.1201 0.8490
vt 0.1309 0.8874
vt 0.1230 0.6289
vt 0.8311 0.9785
vt 0.4736 0.9759
vt 0.4775 0.5794
vt 0.4766 0.9753
vt 0.4756 0.6009
vt 0.7715 0.6061
vt 0.9658 0.6042
vt 0.7422 0.6016
vt 0.9404 0.9792
vt 0.6592 0.9792
vt 0.6172 0.9785
vt 0.7676 0.9792
vt 0.7988 0.9785
vt 0.7656 0.4219
vt 0.4805 0.4271
vt 0.4824 0.4375
vt 0.7432 0.4375
vt 0.9707 0.4362
vt 0.5713 0.9733
vt 0.6660 0.3281
vt 0.8311 0.9753
vt 0.6357 0.9375
vt 0.5381 0.3197
vt 0.1416 0.3138
vt 1.0000 0.3216
vt 0.8770 0.9368
vt 0.8184 0.2227
vt 0.9805 0.2240
vt 0.7588 0.3503
vt 0.9697 0.4049
vt 0.7441 0.2207
vt 0.4922 0.2982
vt 0.7354 0.2604
vt 0.5771 0.2188
vt 0.4971 0.2188
vt 0.5029 0.3236
vt 0.7188 0.2272
vt 0.7861 0.4518
vt 0.8311 0.3776
vt 0.7949 0.5671
vt 0.5586 0.1745
vt 0.6357 0.5814
vt 0.6309 0.6673
vt 0.8457 0.5671
vt 0.6445 0.6576
vt 0.8037 0.9785
vt 0.9326 0.9798
vt 0.7070 0.6406
vt 0.3174 0.6387
vt 0.1621 0.9909
vt 0.3496 0.9935
vt 0.1992 0.5612
vt 0.1074 0.9922
vt 0.7158 0.0697
vt 0.9775 0.0710
vt 0.5537 0.0697
vt 0.1719 0.0677
vt 0.4600 0.9707
vt 0.4219 0.4551
vt 0.1289 0.2507
vt 0.5869 0.1849
vt 0.5127 0.4824
vt 0.5996 0.6367
vt 0.8018 0.5078
vt 0.7676 0.2565
vt 0.1318 0.5085
vt 0.8389 0.4844
vt 0.8340 0.2591
vt 0.8154 0.1790
vt 0.7930 0.6322
vt 0.5225 0.2637
vt 0.8711 0.2461
vt 0.1582 -0.1064
vt 0.0303 0.2646
vt 0.8223 -0.2773
vt 0.6533 0.1738
vt 0.2852 1.2217
vt 0.7188 0.9521
vt 0.1299 0.3613
vt 0.3164 1.0781
vt 0.7666 0.0742
vt 0.1650 0.5176
vt 0.8652 0.9023
vt 0.9463 0.1592
vt 0.2197 1.0977
vt 0.1182 0.0137
vt 0.8750 1.1367
vt 0.0908 0.0703
vt 0.9619 0.9688
vt 0.5537 -0.0322
vt 0.1104 0.8838
vt 0.1621 0.6602
vt 0.7803 0.6725
vt 0.2783 0.9857
vt 0.2188 0.9837
vt 0.1465 0.6615
vt 0.5508 0.6634
vt 0.7305 0.9889
vt 0.9336 0.6628
vt 0.6904 0.9902
vt 0.9502 0.5378
vt 0.6816 0.5339
vt 0.0723 0.5358
vt 0.2158 0.5352
vt 0.7930 0.5521
vt 0.9658 0.1439
vt 0.1670 0.1361
vt 0.7920 0.9616
vt 0.7393 0.9596
vt 0.9883 0.1439
vt 0.2910 0.9538
vt 0.0674 0.1328
vt 0.4199 0.9570
vt 0.2305 0.4134
vt 0.0547 0.3014
vt 0.0713 0.2826
vt 0.5195 0.1523
vt 0.7588 0.4043
vt 0.6025 0.2878
vt 0.7168 0.0703
vt 0.4707 0.1289
vt 0.0596 0.4004
vt 0.9766 0.3021
vt 0.7705 0.2865
vt 0.7988 0.2728
vt 0.7695 0.2721
vt 0.7910 0.2917
vt 0.7354 0.1243
vt 0.9170 0.0742
vt 0.6836 0.0645
vt 0.9375 0.0482
vt 0.7051 0.1426
vt 0.8965 0.1042
vt 0.1035 -0.6165
vt 0.9697 -0.7578
vt 0.9961 -0.8509
vt -0.0068 -0.6328
vt 0.8975 0.0859
vt 0.8457 -0.2861
vt -0.0205 0.0332
vt 0.1611 -0.4883
vt 0.2021 0.9854
vt 0.6650 0.9014
vt 0.1211 0.3799
vt 0.6641 0.1758
vt 0.0879 0.4512
vt 0.7998 0.1963
vt 0.1855 0.8955
vt 0.8818 0.8438
vt 0.0371 0.2100
vt 0.2109 1.1328
vt 0.9570 0.2568
vt 0.9141 1.1045
vt 0.7148 0.0859
vt 1.0117 0.9863
vt 0.2539 0.1660
vt 0.0996 0.8867
vt 0.2588 0.9948
vt 0.7129 0.6784
vt 0.1475 0.6680
vt 0.0566 0.6699
vt 0.1631 0.9935
vt 0.5322 0.6706
vt 0.9131 0.6680
vt 0.6523 0.9961
vt 0.6650 0.9980
vt 0.9434 0.5423
vt 0.6602 0.5449
vt -0.0068 0.5436
vt 0.2363 0.5423
vt 0.7861 0.5540
vt 0.1484 0.9551
vt 0.8428 0.0944
vt -0.0293 0.0794
vt -0.0537 0.0788
vt 0.2051 0.9551
vt 0.9512 0.0938
vt 0.6953 0.9616
vt 0.5537 0.9609
vt 0.1318 0.2878
vt 0.0889 0.2995
vt 0.2520 0.4186
vt 0.7393 0.4082
vt 0.5547 0.1536
vt 0.4980 0.1302
vt 0.7559 0.0710
vt 0.6006 0.2917
vt 0.0654 0.4062
vt 0.9678 0.3047
vt 0.1084 0.2858
vt 0.1133 0.3034
vt 0.1182 0.0527
vt 0.1230 0.0150
vt 0.1113 0.0853
vt -0.0205 -0.8796
vt -0.0469 -0.9798
vt 0.9229 -0.7044
vt 1.0439 -0.7181
vt 0.9443 0.1224
vt 0.5781 0.0599
vt 0.4814 0.1243
vt 0.0244 0.1738
vt 0.4834 0.2806
vt 0.9424 0.1673
vt 0.8809 0.2930
vt 0.1182 0.2969
vt 0.0801 0.4505
vt 0.3115 0.4395
vt 0.3926 0.0612
vt 0.0283 0.1309
vt 0.6660 0.4375
vt 0.0254 0.1510
vt 0.9434 0.1465
vt 0.0420 0.3151
vt 0.0381 0.3008
vt 0.9395 0.2956
vt 0.8643 0.4466
vt 0.9336 0.3073
vt 0.5215 0.3236
vt 0.2959 0.4310
vt 0.7520 0.4368
vt 0.6787 0.1484
vt 0.7480 0.3105
vt 0.3252 0.3079
vt 0.1260 0.2878
vt 0.1289 0.1217
vt 0.3506 0.1439
vt 0.6143 0.0553
vt 0.4775 0.0547
vt 0.6494 0.0293
vt 0.4189 0.0273
vt 0.9316 0.1296
vt 0.8730 0.4421
vt 0.9209 0.2995
vt 0.1875 0.4355
vt 0.6689 0.5182
vt 0.3057 0.5234
vt 0.1172 0.5169
vt 0.8203 0.5104
vt 0.8379 0.5117
vt 0.7119 0.5026
vt 0.3125 0.4967
vt 0.2227 0.5020
vt 0.9189 0.0892
vt 0.0059 0.0462
vt 0.0537 0.0905
vt 0.1572 0.5182
vt 0.8350 0.5189
vt 0.9658 0.0469
vt 0.1445 0.5228
vt 0.8398 0.5241
vt -0.0518 0.0365
vt 0.1406 0.5221
vt 0.9131 0.5176
vt 1.0146 0.0306
vt 0.8213 0.5098
vt 0.9678 0.5059
vt 0.8291 -0.0039
vt 0.2363 0.5254
vt 0.3320 0.0384
vt 0.1182 0.5189
vt 0.9990 0.0456
vt 0.1846 0.0807
vt 0.1240 0.9193
vt 0.8984 0.9212
vt 0.8848 0.9212
vt 0.1289 0.9193
vt 0.9736 0.9219
vt 0.1338 0.9277
vt 0.9248 0.9303
vt 0.7578 0.9303
vt 0.2031 0.9245
vt 0.0605 0.9212
vn 0.577 0.577 0.577
vn 0.577 0.577 0.577
vn -0.577 -0.577 -0.577
vn -0.577 -0.577 -0.577
vn -0.577 -0.577 -0.577
vn 0.577 0.577 0.577
vn 0.577 0.577 0.577
vn -0.577 -0.577 -0.577
vn 0.577 0.577 0.577
vn 0.577 0.577 0.577
vn -0.577 -0.577 -0.577
vn 0.577 0.577 0.577
vn 0.577 0.577 0.577
vn -0.577 -0.577 -0.577
vn 0.577 0.577 0.577
vn -0.577 -0.577 -0.577
vn -0.577 -0.577 -0.577
vn -0.577 -0.577 -0.577
vn 0.577 0.577 0.577
vn 0.577 0.577 0.577
vn 0.577 0.577 0.577
vn 0.577 0.577 0.577
vn 0.577 0.577 0.577
vn 0.577 0.577 0.577
vn 0.577 0.577 0.577
vn 0.577 0.577 0.577
vn 0.577 0.577 0.577
vn -0.577 -0.577 -0.577
vn -0.577 -0.577 -0.577
vn -0.577 -0.577 -0.577
vn -0.577 -0.577 -0.577
vn -0.577 -0.577 -0.577
vn -0.577 -0.577 -0.577
vn -0.577 -0.577 -0.577
vn -0.577 -0.577 -0.577
vn -0.577 -0.577 -0.577
vn -0.577 -0.577 -0.577
vn 0.577 0.577 0.577
vn -0.577 -0.577 -0.577
vn 0.577 0.577 0.577
vn 0.577 0.577 0.577
vn -0.577 -0.577 -0.577
vn 0.577 0.577 0.577
vn -0.577 -0.577 -0.577
vn 0.577 0.577 0.577
vn -0.577 -0.577 -0.577
vn -0.577 -0.577 -0.577
vn -0.577 -0.577 -0.577
vn 0.577 0.577 0.577
vn -0.577 -0.577 -0.577
vn 0.577 0.577 0.577
vn -0.577 -0.577 -0.577
vn 0.577 0.577 0.577
vn 0.577 0.577 0.577
vn -0.577 -0.577 -0.577
vn -0.577 -0.577 -0.577
vn -0.577 -0.577 -0.577
vn -0.577 -0.577 -0.577
vn 0.577 0.577 0.577
vn 0.577 0.577 0.577
vn 0.577 0.577 0.577
vn 0.577 0.577 0.577
vn 0.577 0.577 0.577
vn -0.577 -0.577 -0.577
vn 0.577 0.577 0.577
vn 0.577 0.577 0.577
vn -0.577 -0.577 -0.577
vn -0.577 -0.577 -0.577
vn -0.577 -0.577 -0.577
vn 0.577 0.577 0.577
vn 0.577 0.577 0.577
vn -0.577 -0.577 -0.577
vn -0.577 -0.577 -0.577
vn -0.577 -0.577 -0.577
vn -0.577 -0.577 -0.577
vn -0.577 -0.577 -0.577
vn -0.577 -0.577 -0.577
vn -0.577 -0.577 -0.577
vn -0.577 -0.577 -0.577
vn -0.577 -0.577 -0.577
vn 0.577 0.577 0.577
vn 0.577 0.577 0.577
vn 0.577 0.577 0.577
vn 0.577 0.577 0.577
vn 0.577 0.577 0.577
vn 0.577 0.577 0.577
vn 0.577 0.577 0.577
vn 0.577 0.577 0.577
vn -0.577 -0.577 -0.577
vn -0.577 -0.577 -0.577
vn -0.577 -0.577 -0.577
vn -0.577 -0.577 -0.577
vn -0.577 -0.577 -0.577
vn -0.577 -0.577 -0.577
vn -0.577 -0.577 -0.577
vn -0.577 -0.577 -0.577
vn -0.577 -0.577 -0.577
vn -0.577 -0.577 -0.577
vn -0.577 -0.577 -0.577
vn -0.577 -0.577 -0.577
vn -0.577 -0.577 -0.577
vn -0.577 -0.577 -0.577
vn 0.577 0.577 0.577
vn 0.577 0.577 0.577
vn -0.577 -0.577 -0.577
vn -0.577 -0.577 -0.577
vn -0.577 -0.577 -0.577
vn -0.577 -0.577 -0.577
vn -0.577 -0.577 -0.577
vn -0.577 -0.577 -0.577
vn -0.577 -0.577 -0.577
vn 0.577 0.577 0.577
vn 0.577 0.577 0.577
vn -0.577 -0.577 -0.577
vn 0.577 0.577 0.577
vn -0.577 -0.577 -0.577
vn -0.577 -0.577 -0.577
vn 0.577 0.577 0.577
vn 0.577 0.577 0.577
vn 0.577 0.577 0.577
vn 0.577 0.577 0.577
vn 0.577 0.577 0.577
vn -0.577 -0.577 -0.577
vn 0.577 0.577 0.577
vn -0.577 -0.577 -0.577
vn -0.577 -0.577 -0.577
vn -0.577 -0.577 -0.577
vn -0.577 -0.577 -0.577
vn 0.577 0.577 0.577
vn 0.577 0.577 0.577
vn 0.577 0.577 0.577
vn 0.577 0.577 0.577
vn 0.577 0.577 0.577
vn 0.577 0.577 0.577
vn 0.577 0.577 0.577
vn 0.577 0.577 0.577
vn 0.577 0.577 0.577
vn -0.577 -0.577 -0.577
vn -0.577 -0.577 -0.577
vn -0.577 -0.577 -0.577
vn -0.577 -0.577 -0.577
vn -0.577 -0.577 -0.577
vn -0.577 -0.577 -0.577
vn -0.577 -0.577 -0.577
vn -0.577 -0.577 -0.577
vn -0.577 -0.577 -0.577
vn -0.577 -0.577 -0.577
vn 0.577 0.577 0.577
vn -0.577 -0.577 -0.577
vn 0.577 0.577 0.577
vn 0.577 0.577 0.577
vn -0.577 -0.577 -0.577
vn 0.577 0.577 0.577
vn -0.577 -0.577 -0.577
vn 0.577 0.577 0.577
vn -0.577 -0.577 -0.577
vn -0.577 -0.577 -0.577
vn -0.577 -0.577 -0.577
vn 0.577 0.577 0.577
vn -0.577 -0.577 -0.577
vn -0.577 -0.577 -0.577
vn 0.577 0.577 0.577
vn -0.577 -0.577 -0.577
vn 0.577 0.577 0.577
vn -0.577 -0.577 -0.577
vn 0.577 0.577 0.577
vn -0.577 -0.577 -0.577
vn -0.577 -0.577 -0.577
vn 0.577 0.577 0.577
vn -0.577 -0.577 -0.577
vn 0.577 0.577 0.577
vn -0.577 -0.577 -0.577
vn -0.577 -0.577 -0.577
vn 0.577 0.577 0.577
vn -0.577 -0.577 -0.577
vn -0.577 -0.577 -0.577
vn 0.577 0.577 0.577
vn 0.577 0.577 0.577
vn 0.577 0.577 0.577
vn 0.577 0.577 0.577
vn 0.577 0.577 0.577
vn -0.577 -0.577 -0.577
vn -0.577 -0.577 -0.577
vn -0.577 -0.577 -0.577
vn -0.577 -0.577 -0.577
vn -0.577 -0.577 -0.577
vn -0.577 -0.577 -0.577
vn -0.577 -0.577 -0.577
vn -0.577 -0.577 -0.577
vn -0.577 -0.577 -0.577
vn -0.577 -0.577 -0.577
vn -0.577 -0.577 -0.577
vn -0.577 -0.577 -0.577
vn -0.577 -0.577 -0.577
vn -0.577 -0.577 -0.577
vn 0.577 0.577 0.577
vn 0.577 0.577 0.577
vn 0.577 0.577 0.577
vn -0.577 -0.577 -0.577
vn 0.577 0.577 0.577
vn -0.577 -0.577 -0.577
vn -0.577 -0.577 -0.577
vn 0.577 0.577 0.577
vn -0.577 -0.577 -0.577
vn -0.577 -0.577 -0.577
vn -0.577 -0.577 -0.577
vn -0.577 -0.577 -0.577
vn -0.577 -0.577 -0.577
vn -0.577 -0.577 -0.577
vn -0.577 -0.577 -0.577
vn -0.577 -0.577 -0.577
vn -0.577 -0.577 -0.577
vn -0.577 -0.577 -0.577
vn -0.577 -0.577 -0.577
vn -0.577 -0.577 -0.577
vn 0.577 0.577 0.577
vn 0.577 0.577 0.577
vn -0.577 -0.577 -0.577
vn -0.577 -0.577 -0.577
vn -0.577 -0.577 -0.577
vn -0.577 -0.577 -0.577
vn -0.577 -0.577 -0.577
vn -0.577 -0.577 -0.577
vn -0.577 -0.577 -0.577
vn -0.577 -0.577 -0.577
vn -0.577 -0.577 -0.577
vn -0.577 -0.577 -0.577
vn -0.577 -0.577 -0.577
vn -0.577 -0.577 -0.577
vn -0.577 -0.577 -0.577
vn -0.577 -0.577 -0.577
vn -0.577 -0.577 -0.577
vn -0.577 -0.577 -0.577
vn -0.577 -0.577 -0.577
vn -0.577 -0.577 -0.577
vn -0.577 -0.577 -0.577
vn -0.577 -0.577 -0.577
vn -0.577 -0.577 -0.577
vn -0.577 -0.577 -0.577
vn -0.577 -0.577 -0.577
vn -0.577 -0.577 -0.577
vn -0.577 -0.577 -0.577
vn -0.577 -0.577 -0.577
vn -0.577 -0.577 -0.577
vn -0.577 -0.577 -0.577
vn -0.577 -0.577 -0.577
vn -0.577 -0.577 -0.577
vn -0.577 -0.577 -0.577
vn 0.577 0.577 0.577
vn -0.577 -0.577 -0.577
vn -0.577 -0.577 -0.577
vn 0.577 0.577 0.577
vn -0.577 -0.577 -0.577
vn -0.577 -0.577 -0.577
vn -0.577 -0.577 -0.577
vn -0.577 -0.577 -0.577
vn -0.577 -0.577 -0.577
vn 0.577 0.577 0.577
vn -0.577 -0.577 -0.577
vn -0.577 -0.577 -0.577
vn -0.577 -0.577 -0.577
vn -0.577 -0.577 -0.577
vn -0.577 -0.577 -0.577
vn -0.577 -0.577 -0.577
vn -0.577 -0.577 -0.577
vn -0.577 -0.577 -0.577
vn -0.577 -0.577 -0.577
vn -0.577 -0.577 -0.577
vn -0.577 -0.577 -0.577
vn -0.577 -0.577 -0.577
vn -0.577 -0.577 -0.577
vn -0.577 -0.577 -0.577
vn -0.577 -0.577 -0.577
vn -0.577 -0.577 -0.577
vn -0.577 -0.577 -0.577
vn -0.577 -0.577 -0.577
vn -0.577 -0.577 -0.577
vn -0.577 -0.577 -0.577
vn -0.577 -0.577 -0.577
vn -0.577 -0.577 -0.577
vn -0.577 -0.577 -0.577
vn -0.577 -0.577 -0.577
vn -0.577 -0.577 -0.577
vn -0.577 -0.577 -0.577
vn -0.577 -0.577 -0.577
vn -0.577 -0.577 -0.577
vn -0.577 -0.577 -0.577
vn -0.577 -0.577 -0.577
vn 0.577 0.577 0.577
vn 0.577 0.577 0.577
vn -0.577 -0.577 -0.577
vn 0.577 0.577 0.577
vn 0.577 0.577 0.577
vn 0.577 0.577 0.577
vn -0.577 -0.577 -0.577
vn -0.577 -0.577 -0.577
vn 0.577 0.577 0.577
vn 0.577 0.577 0.577
vn 0.577 0.577 0.577
vn -0.577 -0.577 -0.577
vn -0.577 -0.577 -0.577
vn -0.577 -0.577 -0.577
vn -0.577 -0.577 -0.577
vn -0.577 -0.577 -0.577
vn 0.577 0.577 0.577
vn -0.577 -0.577 -0.577
vn 0.577 0.577 0.577
vn 0.577 0.577 0.577
vn -0.577 -0.577 -0.577
vn -0.577 -0.577 -0.577
vn -0.577 -0.577 -0.577
vn 0.577 0.577 0.577
vn 0.577 0.577 0.577
vn -0.577 -0.577 -0.577
vn -0.577 -0.577 -0.577
vn -0.577 -0.577 -0.577
vn -0.577 -0.577 -0.577
vn -0.577 -0.577 -0.577
vn 0.577 0.577 0.577
vn 0.577 0.577 0.577
vn -0.577 -0.577 -0.577
vn -0.577 -0.577 -0.577
vn -0.577 -0.577 -0.577
vn -0.577 -0.577 -0.577
vn -0.577 -0.577 -0.577
vn -0.577 -0.577 -0.577
vn -0.577 -0.577 -0.577
vn -0.577 -0.577 -0.577
vn -0.577 -0.577 -0.577
vn -0.577 -0.577 -0.577
vn -0.577 -0.577 -0.577
vn -0.577 -0.577 -0.577
vn 0.577 0.577 0.577
vn -0.577 -0.577 -0.577
vn -0.577 -0.577 -0.577
vn -0.577 -0.577 -0.577
vn -0.577 -0.577 -0.577
vn 0.577 0.577 0.577
vn -0.577 -0.577 -0.577
vn 0.577 0.577 0.577
vn -0.577 -0.577 -0.577
vn -0.577 -0.577 -0.577
vn 0.577 0.577 0.577
vn 0.577 0.577 0.577
vn 0.577 0.577 0.577
vn -0.577 -0.577 -0.577
vn -0.577 -0.577 -0.577
vn -0.577 -0.577 -0.577
vn -0.577 -0.577 -0.577
vn -0.577 -0.577 -0.577
vn -0.577 -0.577 -0.577
vn -0.577 -0.577 -0.577
vn -0.577 -0.577 -0.577
vn -0.577 -0.577 -0.577
vn -0.577 -0.577 -0.577
vn 0.577 0.577 0.577
vn -0.577 -0.577 -0.577
vn -0.577 -0.577 -0.577
vn -0.577 -0.577 -0.577
vn -0.577 -0.577 -0.577
vn -0.577 -0.577 -0.577
vn -0.577 -0.577 -0.577
vn -0.577 -0.577 -0.577
vn -0.577 -0.577 -0.577
vn -0.577 -0.577 -0.577
vn -0.577 -0.577 -0.577
vn -0.577 -0.577 -0.577
vn -0.577 -0.577 -0.577
vn -0.577 -0.577 -0.577
vn -0.577 -0.577 -0.577
vn -0.577 -0.577 -0.577
vn -0.577 -0.577 -0.577
vn -0.577 -0.577 -0.577
vn -0.577 -0.577 -0.577
vn -0.577 -0.577 -0.577
vn 0.577 0.577 0.577
vn -0.577 -0.577 -0.577
vn -0.577 -0.577 -0.577
vn -0.577 -0.577 -0.577
vn 0.577 0.577 0.577
vn 0.577 0.577 0.577
vn 0.577 0.577 0.577
vn 0.577 0.577 0.577
vn -0.577 -0.577 -0.577
vn -0.577 -0.577 -0.577
vn -0.577 -0.577 -0.577
vn -0.577 -0.577 -0.577
vn -0.577 -0.577 -0.577
vn -0.577 -0.577 -0.577
vn -0.577 -0.577 -0.577
vn -0.577 -0.577 -0.577
vn -0.577 -0.577 -0.577
vn -0.577 -0.577 -0.577
vn -0.577 -0.577 -0.577
vn -0.577 -0.577 -0.577
vn -0.577 -0.577 -0.577
vn -0.577 -0.577 -0.577
vn -0.577 -0.577 -0.577
vn -0.577 -0.577 -0.577
vn -0.577 -0.577 -0.577
vn -0.577 -0.577 -0.577
vn -0.577 -0.577 -0.577
vn -0.577 -0.577 -0.577
vn -0.577 -0.577 -0.577
vn -0.577 -0.577 -0.577
vn -0.577 -0.577 -0.577
vn -0.577 -0.577 -0.577
vn -0.577 -0.577 -0.577
vn -0.577 -0.577 -0.577
vn -0.577 -0.577 -0.577
vn -0.577 -0.577 -0.577
vn -0.577 -0.577 -0.577
vn -0.577 -0.577 -0.577
vn -0.577 -0.577 -0.577
vn -0.577 -0.577 -0.577
vn -0.577 -0.577 -0.577
vn -0.577 -0.577 -0.577
vn -0.577 -0.577 -0.577
vn -0.577 -0.577 -0.577
vn -0.577 -0.577 -0.577
vn -0.577 -0.577 -0.577
vn 0.577 0.577 0.577
vn -0.577 -0.577 -0.577
vn -0.577 -0.577 -0.577
vn -0.577 -0.577 -0.577
vn -0.577 -0.577 -0.577
vn -0.577 -0.577 -0.577
vn -0.577 -0.577 -0.577
vn -0.577 -0.577 -0.577
vn -0.577 -0.577 -0.577
vn -0.577 -0.577 -0.577
vn -0.577 -0.577 -0.577
vn -0.577 -0.577 -0.577
vn -0.577 -0.577 -0.577
vn -0.577 -0.577 -0.577
vn -0.577 -0.577 -0.577
vn -0.577 -0.577 -0.577
vn -0.577 -0.577 -0.577
vn -0.577 -0.577 -0.577
vn -0.577 -0.577 -0.577
vn 0.577 0.577 0.577
vn -0.577 -0.577 -0.577
vn 0.577 0.577 0.577
vn -0.577 -0.577 -0.577
vn -0.577 -0.577 -0.577
vn -0.577 -0.577 -0.577
vn -0.577 -0.577 -0.577
vn -0.577 -0.577 -0.577
vn -0.577 -0.577 -0.577
vn -0.577 -0.577 -0.577
vn -0.577 -0.577 -0.577
vn -0.577 -0.577 -0.577
vn -0.577 -0.577 -0.577
vn -0.577 -0.577 -0.577
vn -0.577 -0.577 -0.577
vn -0.577 -0.577 -0.577
vn -0.577 -0.577 -0.577
vn -0.577 -0.577 -0.577
vn -0.577 -0.577 -0.577
vn -0.577 -0.577 -0.577
vn -0.577 -0.577 -0.577
vn -0.577 -0.577 -0.577
vn -0.577 -0.577 -0.577
vn -0.577 -0.577 -0.577
vn -0.577 -0.577 -0.577
vn -0.577 -0.577 -0.577
vn -0.577 -0.577 -0.577
vn -0.577 -0.577 -0.577
vn -0.577 -0.577 -0.577
vn -0.577 -0.577 -0.577
vn 0.577 0.577 0.577
vn -0.577 -0.577 -0.577
vn -0.577 -0.577 -0.577
vn -0.577 -0.577 -0.577
vn -0.577 -0.577 -0.577
vn -0.577 -0.577 -0.577
vn -0.577 -0.577 -0.577
vn -0.577 -0.577 -0.577
vn -0.577 -0.577 -0.577
vn -0.577 -0.577 -0.577
vn 0.577 0.577 0.577
vn -0.577 -0.577 -0.577
vn -0.577 -0.577 -0.577
vn -0.577 -0.577 -0.577
vn -0.577 -0.577 -0.577
vn -0.577 -0.577 -0.577
vn -0.577 -0.577 -0.577
vn -0.577 -0.577 -0.577
vn -0.577 -0.577 -0.577
vn -0.577 -0.577 -0.577
vn -0.577 -0.577 -0.577
vn -0.577 -0.577 -0.577
vn -0.577 -0.577 -0.577
vn -0.577 -0.577 -0.577
vn -0.577 -0.577 -0.577
vn -0.577 -0.577 -0.577
vn -0.577 -0.577 -0.577
vn -0.577 -0.577 -0.577
vn -0.577 -0.577 -0.577
vn -0.577 -0.577 -0.577
vn -0.577 -0.577 -0.577
vn -0.577 -0.577 -0.577
vn -0.577 -0.577 -0.577
vn -0.577 -0.577 -0.577
vn -0.577 -0.577 -0.577
vn -0.577 -0.577 -0.577
vn -0.577 -0.577 -0.577
vn -0.577 -0.577 -0.577
vn -0.577 -0.577 -0.577
vn -0.577 -0.577 -0.577
vn -0.577 -0.577 -0.577
vn -0.577 -0.577 -0.577
vn -0.577 -0.577 -0.577
vn -0.577 -0.577 -0.577
vn -0.577 -0.577 -0.577
vn -0.577 -0.577 -0.577
vn -0.577 -0.577 -0.577
vn -0.577 -0.577 -0.577
vn -0.577 -0.577 -0.577
vn -0.577 -0.577 -0.577
vn -0.577 -0.577 -0.577
vn -0.577 -0.577 -0.577
vn -0.577 -0.577 -0.577
vn -0.577 -0.577 -0.577
vn -0.577 -0.577 -0.577
vn -0.577 -0.577 -0.577
vn -0.577 -0.577 -0.577
vn -0.577 -0.577 -0.577
vn -0.577 -0.577 -0.577
vn -0.577 -0.577 -0.577
vn -0.577 -0.577 -0.577
vn -0.577 -0.577 -0.577
vn -0.577 -0.577 -0.577
vn -0.577 -0.577 -0.577
vn -0.577 -0.577 -0.577
vn -0.577 -0.577 -0.577
vn -0.577 -0.577 -0.577
vn -0.577 -0.577 -0.577
vn -0.577 -0.577 -0.577
vn -0.577 -0.577 -0.577
vn -0.577 -0.577 -0.577
vn -0.577 -0.577 -0.577
vn -0.577 -0.577 -0.577
vn -0.577 -0.577 -0.577
vn -0.577 -0.577 -0.577
vn -0.577 -0.577 -0.577
vn -0.577 -0.577 -0.577
vn -0.577 -0.577 -0.577
vn -0.577 -0.577 -0.577
vn -0.577 -0.577 -0.577
vn -0.577 -0.577 -0.577
vn -0.577 -0.577 -0.577
vn -0.577 -0.577 -0.577
vn -0.577 -0.577 -0.577
vn -0.577 -0.577 -0.577
vn -0.577 -0.577 -0.577
vn 0.577 0.577 0.577
vn 0.577 0.577 0.577
vn 0.577 0.577 0.577
vn -0.577 -0.577 -0.577
vn -0.577 -0.577 -0.577
vn 0.577 0.577 0.577
vn -0.577 -0.577 -0.577
vn -0.577 -0.577 -0.577
vn 0.577 0.577 0.577
vn -0.577 -0.577 -0.577
vn 0.577 0.577 0.577
vn -0.577 -0.577 -0.577
vn -0.577 -0.577 -0.577
vn -0.577 -0.577 -0.577
usemtl tex_2020_lit_w01
f 1/1/1 2/2/2 3/3/3
f 3/3/3 2/2/2 4/4/4
f 3/3/3 5/5/5 6/6/6
f 7/7/7 8/8/8 4/4/4
f 5/5/5 3/3/3 8/8/8
f 8/8/8 3/3/3 4/4/4
f 1/1/1 9/9/9 7/7/7
f 2/2/2 1/1/1 7/7/7
f 7/7/7 10/10/10 8/8/8
f 1/1/1 6/6/6 9/9/9
f 6/6/6 5/5/5 8/8/8
f 3/3/3 6/6/6 1/1/1
f 7/7/7 4/4/4 2/2/2
f 6/6/6 8/8/8 10/10/10
usemtl tex_1712_lit_w11
f 11/11/11 12/12/12 13/13/13
f 11/11/11 14/14/14 15/15/15
f 11/11/11 15/15/15 12/12/12
f 16/16/16 17/17/17 13/13/13
f 14/14/14 18/18/18 15/15/15
f 18/18/18 19/19/19 15/15/15
f 17/17/17 11/11/11 13/13/13
f 18/18/18 16/16/16 19/19/19
f 16/16/16 13/13/13 19/19/19
f 24/20/24 20/19/20 25/21/25
f 25/21/25 20/19/20 21/13/21
f 25/21/25 21/13/21 26/22/26
f 26/22/26 21/13/21 22/12/22
f 26/22/26 22/12/22 27/23/27
f 27/23/27 22/12/22 23/15/23
f 27/23/27 23/15/23 20/19/20
f 27/23/27 20/19/20 24/20/24
f 33/17/33 34/16/34 28/24/28
f 29/25/29 30/26/30 35/14/35
f 33/17/33 31/27/31 36/11/36
f 36/11/36 31/27/31 29/25/29
f 35/14/35 30/26/30 37/18/37
f 37/18/37 30/26/30 28/24/28
f 37/18/37 28/24/28 34/16/34
f 36/11/36 29/25/29 35/14/35
f 33/17/33 32/28/32 31/27/31
f 33/17/33 28/24/28 32/28/32
f 38/29/38 39/30/39 40/31/40
f 41/32/41 42/33/42 43/34/43
f 38/29/38 44/35/44 39/30/39
f 40/31/40 39/30/39 41/32/41
f 43/34/43 42/33/42 45/36/45
f 45/36/45 42/33/42 44/35/44
f 45/36/45 44/35/44 38/29/38
f 40/31/40 41/32/41 43/34/43
f 43/34/43 45/36/45 38/29/38
f 43/34/43 38/29/38 40/31/40
f 42/33/42 41/32/41 46/30/46
f 42/33/42 46/30/46 47/35/47
f 48/37/48 49/38/49 50/39/50
f 51/40/51 49/38/49 52/41/52
f 53/42/53 54/43/54 55/44/55
f 51/40/51 52/41/52 53/42/53
f 48/37/48 50/39/50 56/45/56
f 48/37/48 52/41/52 49/38/49
f 51/40/51 53/42/53 55/44/55
f 54/43/54 57/46/57 56/45/56
f 57/46/57 48/37/48 56/45/56
f 54/43/54 56/45/56 55/44/55
usemtl tex_1831_lit_w11
f 58/47/58 59/48/59 60/49/60
f 60/49/60 59/48/59 61/50/61
f 60/49/60 61/50/61 62/51/62
f 62/51/62 61/50/61 63/52/63
f 64/53/64 65/52/65 66/51/66
f 67/54/67 65/52/65 64/53/64
f 68/55/68 67/54/67 64/53/64
f 69/47/69 68/55/68 67/54/67
f 69/47/69 67/54/67 68/55/68
f 69/47/69 68/55/68 70/56/70
f 71/48/71 69/47/69 70/56/70
usemtl tex_1832_lit_w11
f 72/57/72 73/58/73 79/59/79
f 72/57/72 79/59/79 80/60/80
f 79/59/79 74/61/74 81/62/81
f 79/59/79 73/58/73 74/61/74
f 75/63/75 72/57/72 80/60/80
f 75/63/75 80/60/80 82/64/82
usemtl tex_1831_lit_w11
f 76/65/76 83/66/83 77/67/77
f 84/68/84 76/65/76 85/69/85
f 76/65/76 84/68/84 83/66/83
f 76/65/76 78/70/78 86/71/86
f 76/65/76 86/71/86 85/69/85
usemtl tex_1712_lit_w11
f 87/43/87 88/42/88 92/26/92
f 93/27/93 94/28/94 89/46/89
f 89/46/89 87/43/87 95/25/95
f 90/41/90 96/24/96 92/26/92
f 88/42/88 90/41/90 92/26/92
f 96/24/96 90/41/90 91/37/91
f 96/24/96 91/37/91 94/28/94
f 94/28/94 91/37/91 89/46/89
f 95/25/95 87/43/87 92/26/92
f 95/25/95 93/27/93 89/46/89
f 97/30/97 98/72/98 99/73/99
f 100/74/100 98/72/98 101/35/101
f 102/33/102 103/32/103 104/75/104
f 100/74/100 101/35/101 102/33/102
f 103/32/103 97/30/97 99/73/99
f 97/30/97 101/35/101 98/72/98
f 103/32/103 99/73/99 104/75/104
f 100/74/100 102/33/102 104/75/104
f 105/75/105 106/73/106 107/72/107
f 105/75/105 107/72/107 108/74/108
f 109/30/109 103/32/103 102/33/102
f 109/30/109 102/33/102 110/35/110
usemtl tex_2020_lit_w01
f 111/76/111 112/77/112 113/78/113
f 114/79/114 112/77/112 111/76/111
f 115/80/115 116/81/116 111/76/111
f 114/79/114 117/82/117 118/83/118
f 117/82/117 111/76/111 116/81/116
f 114/79/114 111/76/111 117/82/117
f 118/83/118 119/84/119 113/78/113
f 118/83/118 113/78/113 112/77/112
f 117/82/117 120/85/120 118/83/118
f 119/84/119 115/80/115 113/78/113
f 117/82/117 116/81/116 115/80/115
f 113/78/113 115/80/115 111/76/111
f 112/77/112 114/79/114 118/83/118
f 120/85/120 117/82/117 115/80/115
usemtl tex_1712_lit_w11
f 121/86/121 122/87/122 123/88/123
f 124/89/124 125/90/125 123/88/123
f 122/87/122 124/89/124 123/88/123
f 121/86/121 126/91/126 127/92/127
f 124/89/124 128/93/128 125/90/125
f 124/89/124 129/94/129 128/93/128
f 121/86/121 123/88/123 126/91/126
f 129/94/129 121/86/121 127/92/127
f 129/94/129 127/92/127 128/93/128
f 134/95/134 130/89/130 135/96/135
f 135/96/135 130/89/130 131/87/131
f 135/96/135 131/87/131 136/97/136
f 136/97/136 131/87/131 132/86/132
f 136/97/136 132/86/132 137/98/137
f 137/98/137 132/86/132 133/94/133
f 137/98/137 133/94/133 134/95/134
f 134/95/134 133/94/133 130/89/130
f 143/88/143 138/99/138 144/91/144
f 139/100/139 138/99/138 143/88/143
f 145/90/145 140/101/140 143/88/143
f 141/102/141 140/101/140 145/90/145
f 146/93/146 141/102/141 145/90/145
f 142/103/142 141/102/141 146/93/146
f 147/92/147 144/91/144 142/103/142
f 138/99/138 142/103/142 144/91/144
f 140/101/140 139/100/139 143/88/143
f 147/92/147 142/103/142 146/93/146
f 148/104/148 149/105/149 150/106/150
f 151/107/151 152/108/152 153/109/153
f 149/105/149 154/110/154 150/106/150
f 153/109/153 149/105/149 148/104/148
f 155/111/155 152/108/152 151/107/151
f 154/110/154 152/108/152 155/111/155
f 150/106/150 154/110/154 155/111/155
f 151/107/151 153/109/153 148/104/148
f 148/104/148 150/106/150 155/111/155
f 148/104/148 155/111/155 151/107/151
f 156/110/156 157/105/157 153/109/153
f 156/110/156 153/109/153 152/108/152
f 158/112/158 159/113/159 160/114/160
f 161/115/161 159/113/159 162/116/162
f 163/117/163 164/118/164 162/116/162
f 164/118/164 161/115/161 162/116/162
f 165/119/165 158/112/158 160/114/160
f 163/117/163 162/116/162 166/120/166
f 159/113/159 161/115/161 160/114/160
f 165/119/165 167/121/167 163/117/163
f 165/119/165 163/117/163 166/120/166
f 165/119/165 160/114/160 167/121/167
usemtl tex_1831_lit_w11
f 168/122/168 169/123/169 170/124/170
f 170/124/170 169/123/169 171/125/171
f 172/53/172 173/126/173 168/122/168
f 174/51/174 175/126/175 176/53/176
f 177/52/177 174/51/174 176/53/176
f 178/127/178 174/51/174 177/52/177
f 179/128/179 178/127/178 177/52/177
f 180/123/180 178/127/178 179/128/179
f 181/125/181 180/123/180 179/128/179
usemtl tex_1832_lit_w11
f 185/129/185 186/130/186 193/131/193
f 185/129/185 193/131/193 194/132/194
f 186/130/186 187/57/187 195/60/195
f 195/60/195 187/57/187 188/63/188
f 195/60/195 188/63/188 196/64/196
f 186/130/186 195/60/195 193/131/193
f 189/133/189 188/63/188 196/64/196
usemtl tex_1831_lit_w11
f 190/134/190 197/135/197 198/136/198
f 197/135/197 190/134/190 191/137/191
f 197/135/197 191/137/191 199/138/199
f 192/70/192 190/134/190 198/136/198
f 192/70/192 198/136/198 200/71/200
usemtl tex_1712_lit_w11
f 206/101/206 201/117/201 202/121/202
f 203/118/203 201/117/201 206/101/206
f 207/102/207 203/118/203 206/101/206
f 204/115/204 203/118/203 207/102/207
f 208/103/208 204/115/204 207/102/207
f 205/114/205 204/115/204 208/103/208
f 209/99/209 205/114/205 208/103/208
f 202/121/202 205/114/205 209/99/209
f 210/100/210 206/101/206 202/121/202
f 210/100/210 202/121/202 209/99/209
f 211/139/211 212/140/212 213/105/213
f 214/110/214 212/140/212 215/141/215
f 216/142/216 217/109/217 218/108/218
f 218/108/218 214/110/214 215/141/215
f 211/139/211 213/105/213 217/109/217
f 212/140/212 214/110/214 213/105/213
f 216/142/216 211/139/211 217/109/217
f 216/142/216 218/108/218 215/141/215
usemtl tex_1712_lit_w11_ovl
f 219/141/219 220/140/220 221/139/221
f 219/141/219 221/139/221 222/142/222
usemtl tex_1712_lit_w11
f 223/110/223 218/108/218 217/109/217
f 223/110/223 217/109/217 224/105/224
usemtl tex_2034_lit_w11
f 229/143/229 236/144/236 237/145/237
f 238/146/238 230/147/230 231/148/231
f 232/149/232 239/150/239 229/143/229
f 239/150/239 236/144/236 229/143/229
f 233/151/233 229/143/229 237/145/237
f 240/152/240 244/153/244 245/154/245
f 240/152/240 245/154/245 241/155/241
f 245/154/245 242/148/242 241/155/241
f 245/154/245 246/146/246 242/148/242
f 243/147/243 246/146/246 247/156/247
usemtl tex_1609_lit
f 248/157/248 249/158/249 250/159/250
f 251/160/251 249/158/249 248/157/248
usemtl tex_1613_lit_w11
f 252/161/252 253/162/253 254/163/254
f 255/164/255 253/162/253 252/161/252
usemtl tex_1616_lit_w11
f 256/165/256 257/166/257 258/167/258
f 259/168/259 257/166/257 256/165/256
usemtl tex_1622_lit_w11
f 260/169/260 261/170/261 262/171/262
f 263/172/263 261/170/261 260/169/260
usemtl tex_1619_lit_w11
f 264/173/264 265/174/265 266/175/266
f 267/176/267 265/174/265 264/173/264
usemtl tex_1830_lit_w11
f 268/177/268 269/178/269 273/179/273
f 274/180/274 270/181/270 268/177/268
f 274/180/274 271/182/271 270/181/270
f 275/183/275 269/178/269 272/184/272
f 276/185/276 272/184/272 271/182/271
f 275/183/275 273/179/273 269/178/269
f 274/180/274 276/185/276 271/182/271
f 274/180/274 268/177/268 273/179/273
f 276/185/276 275/183/275 272/184/272
f 282/184/282 277/186/277 283/182/283
f 283/182/283 277/186/277 278/187/278
f 283/182/283 278/187/278 279/188/279
f 284/178/284 280/189/280 281/190/281
f 285/181/285 279/188/279 286/177/286
f 286/177/286 279/188/279 280/189/280
f 284/178/284 281/190/281 282/184/282
f 282/184/282 281/190/281 277/186/277
f 286/177/286 280/189/280 284/178/284
f 283/182/283 279/188/279 285/181/285
f 287/191/287 288/192/288 289/193/289
f 290/194/290 291/195/291 287/191/287
f 292/196/292 288/192/288 293/197/293
f 294/198/294 293/197/293 290/194/290
f 293/197/293 291/195/291 290/194/290
f 292/196/292 289/193/289 288/192/288
f 290/194/290 287/191/287 289/193/289
f 294/198/294 292/196/292 293/197/293
f 288/192/288 295/191/295 296/195/296
f 288/192/288 296/195/296 293/197/293
f 297/199/297 298/200/298 299/201/299
f 297/199/297 300/202/300 301/203/301
f 302/204/302 303/205/303 304/206/304
f 297/199/297 299/201/299 300/202/300
f 298/200/298 302/204/302 304/206/304
f 305/207/305 302/204/302 298/200/298
f 300/202/300 303/205/303 306/208/306
f 297/199/297 305/207/305 298/200/298
f 302/204/302 306/208/306 303/205/303
f 301/203/301 300/202/300 306/208/306
f 312/209/312 307/210/307 313/211/313
f 308/212/308 307/210/307 312/209/312
f 314/213/314 308/212/308 312/209/312
f 309/214/309 308/212/308 314/213/314
f 315/215/315 309/214/309 314/213/314
f 310/216/310 309/214/309 315/215/315
f 316/217/316 310/216/310 315/215/315
f 311/218/311 310/216/310 316/217/316
f 313/211/313 311/218/311 316/217/316
f 307/210/307 311/218/311 313/211/313
f 322/186/322 317/208/317 323/187/323
f 323/187/323 317/208/317 318/204/318
f 323/187/323 318/204/318 324/188/324
f 324/188/324 318/204/318 319/207/319
f 324/188/324 319/207/319 325/189/325
f 325/189/325 319/207/319 320/199/320
f 326/190/326 317/208/317 322/186/322
f 325/189/325 320/199/320 321/203/321
f 325/189/325 321/203/321 326/190/326
f 326/190/326 321/203/321 317/208/317
f 327/219/327 328/220/328 329/221/329
f 329/221/329 330/222/330 327/219/327
f 331/191/331 329/221/329 328/220/328
f 331/191/331 327/219/327 332/192/332
f 331/191/331 328/220/328 327/219/327
f 329/221/329 333/197/333 330/222/330
f 334/195/334 333/197/333 329/221/329
f 327/219/327 330/222/330 332/192/332
f 331/191/331 334/195/334 329/221/329
f 333/197/333 332/192/332 330/222/330
f 333/197/333 335/195/335 336/191/336
f 333/197/333 336/191/336 332/192/332
usemtl tex_1609_lit
f 337/223/337 338/224/338 339/225/339
f 339/225/339 338/224/338 340/226/340
usemtl tex_1613_lit_w11
f 341/227/341 342/228/342 343/229/343
f 343/229/343 342/228/342 344/230/344
usemtl tex_1616_lit_w11
f 345/231/345 346/232/346 347/233/347
f 347/233/347 346/232/346 348/234/348
usemtl tex_1622_lit_w11
f 349/235/349 350/236/350 351/237/351
f 351/237/351 350/236/350 352/238/352
usemtl tex_1619_lit_w11
f 353/239/353 354/240/354 355/241/355
f 355/241/355 354/240/354 356/242/356
usemtl tex_1830_lit_w11
f 362/243/362 357/244/357 358/245/358
f 358/245/358 359/246/359 363/247/363
f 359/246/359 360/248/360 363/247/363
f 361/249/361 357/244/357 364/250/364
f 360/248/360 361/249/361 365/251/365
f 357/244/357 362/243/362 364/250/364
f 360/248/360 365/251/365 363/247/363
f 362/243/362 358/245/358 363/247/363
f 361/249/361 364/250/364 365/251/365
f 371/248/371 366/252/366 372/249/372
f 367/253/367 366/252/366 371/248/371
f 373/246/373 367/253/367 371/248/371
f 368/254/368 367/253/367 373/246/373
f 374/245/374 368/254/368 373/246/373
f 369/255/369 368/254/368 374/245/374
f 372/249/372 370/256/370 375/244/375
f 366/252/366 370/256/370 372/249/372
f 375/244/375 369/255/369 374/245/374
f 370/256/370 369/255/369 375/244/375
f 376/257/376 377/258/377 378/259/378
f 378/259/378 379/260/379 380/261/380
f 381/262/381 377/258/377 382/263/382
f 380/261/380 381/262/381 383/264/383
f 380/261/380 379/260/379 381/262/381
f 377/258/377 376/257/376 382/263/382
f 376/257/376 378/259/378 380/261/380
f 381/262/381 382/263/382 383/264/383
f 384/259/384 377/258/377 381/262/381
f 384/259/384 381/262/381 385/260/385
f 386/265/386 387/266/387 388/267/388
f 389/268/389 390/269/390 388/267/388
f 391/270/391 392/271/392 393/272/393
f 390/269/390 386/265/386 388/267/388
f 391/270/391 393/272/393 387/266/387
f 387/266/387 393/272/393 394/273/394
f 395/274/395 392/271/392 390/269/390
f 387/266/387 394/273/394 388/267/388
f 392/271/392 395/274/395 393/272/393
f 395/274/395 390/269/390 389/268/389
f 401/265/401 396/275/396 402/276/402
f 402/276/402 396/275/396 397/266/397
f 402/276/402 397/266/397 403/270/403
f 403/270/403 397/266/397 398/277/398
f 403/270/403 398/277/398 404/271/404
f 404/271/404 398/277/398 399/278/399
f 404/271/404 399/278/399 405/269/405
f 405/269/405 399/278/399 400/279/400
f 405/269/405 400/279/400 401/265/401
f 401/265/401 400/279/400 396/275/396
f 411/253/411 406/274/406 412/252/412
f 407/272/407 406/274/406 411/253/411
f 413/254/413 407/272/407 411/253/411
f 408/273/408 407/272/407 413/254/413
f 414/255/414 408/273/408 413/254/413
f 409/267/409 408/273/408 414/255/414
f 412/252/412 406/274/406 415/256/415
f 410/268/410 409/267/409 414/255/414
f 415/256/415 410/268/410 414/255/414
f 406/274/406 410/268/410 415/256/415
f 416/280/416 417/281/417 418/259/418
f 419/258/419 420/282/420 418/259/418
f 420/282/420 416/280/416 418/259/418
f 421/283/421 422/262/422 417/281/417
f 417/281/417 422/262/422 423/260/423
f 419/258/419 421/283/421 420/282/420
f 417/281/417 423/260/423 418/259/418
f 421/283/421 419/258/419 422/262/422
f 416/280/416 420/282/420 421/283/421
f 421/283/421 417/281/417 416/280/416
f 424/260/424 422/262/422 419/258/419
f 424/260/424 419/258/419 425/259/425
usemtl tex_1832_lit_w11
f 426/284/426 427/285/427 428/286/428
f 428/286/428 429/287/429 430/288/430
f 431/289/431 430/288/430 432/290/432
f 433/291/433 434/292/434 435/293/435
f 431/289/431 428/286/428 430/288/430
f 431/289/431 426/284/426 428/286/428
f 436/294/436 437/295/437 428/286/428
f 430/288/430 435/293/435 438/296/438
f 439/297/439 437/295/437 436/294/436
f 429/287/429 433/291/433 430/288/430
f 427/285/427 426/284/426 440/298/440
f 441/299/441 442/292/442 443/300/443
f 444/301/444 445/289/445 446/290/446
f 447/295/447 448/287/448 449/286/449
f 446/290/446 450/288/450 451/296/451
f 444/301/444 446/290/446 452/302/452
f 450/288/450 453/291/453 454/293/454
f 448/287/448 443/300/443 453/291/453
f 442/292/442 453/291/453 443/300/443
f 444/301/444 452/302/452 455/303/455
f 446/290/446 451/296/451 452/302/452
usemtl tex_1831_lit_w11
f 456/304/456 457/305/457 458/306/458
f 459/307/459 456/304/456 460/308/460
f 460/308/460 456/304/456 458/306/458
f 461/309/461 462/310/462 457/305/457
f 463/311/463 462/310/462 461/309/461
f 464/312/464 456/304/456 459/307/459
f 464/312/464 465/313/465 466/314/466
f 464/312/464 459/307/459 465/313/465
f 459/307/459 467/315/467 465/313/465
f 468/316/468 464/312/464 466/314/466
f 459/307/459 469/317/469 467/315/467
f 458/306/458 470/318/470 471/319/471
f 472/305/472 473/310/473 474/320/474
f 475/316/475 476/311/476 477/312/477
f 478/309/478 479/304/479 477/312/477
f 476/311/476 478/309/478 477/312/477
f 479/304/479 478/309/478 472/305/472
f 480/308/480 481/319/481 482/317/482
f 480/308/480 483/306/483 481/319/481
f 484/307/484 480/308/480 482/317/482
usemtl tex_1832_lit_w11
f 485/321/485 493/296/493 486/322/486
f 486/322/486 494/293/494 487/323/487
f 486/322/486 493/296/493 494/293/494
f 488/324/488 495/302/495 485/321/485
f 485/321/485 495/302/495 493/296/493
f 487/323/487 494/293/494 496/292/496
usemtl tex_1831_lit_w11
f 489/325/489 497/318/497 490/326/490
f 490/326/490 497/318/497 498/306/498
f 490/326/490 498/306/498 491/327/491
f 491/327/491 498/306/498 499/305/499
f 491/327/491 499/305/499 492/328/492
f 492/328/492 499/305/499 500/320/500
usemtl tex_1832_lit_w11
f 501/329/501 502/330/502 503/331/503
f 504/329/504 505/332/505 506/333/506
f 502/330/502 501/329/501 507/334/507
f 504/329/504 508/331/508 505/332/505
f 509/335/509 510/336/510 511/332/511
f 510/336/510 512/333/512 511/332/511
usemtl tex_1831_lit_w11
f 513/337/513 514/338/514 515/339/515
f 516/340/516 513/337/513 515/339/515
f 517/341/517 518/342/518 519/343/519
f 520/344/520 521/345/521 522/346/522
f 518/342/518 523/347/523 519/343/519
f 524/348/524 522/346/522 521/345/521
usemtl tex_1832_lit_w11
f 528/322/528 529/58/529 530/57/530
f 531/61/531 528/322/528 532/323/532
f 529/58/529 528/322/528 531/61/531
f 536/129/536 537/324/537 538/321/538
f 539/130/539 538/321/538 530/57/530
f 538/321/538 528/322/528 530/57/530
f 536/129/536 538/321/538 539/130/539
usemtl tex_1831_lit_w11
f 540/67/540 541/325/541 542/65/542
f 542/65/542 541/325/541 543/326/543
f 542/65/542 543/326/543 544/70/544
f 544/70/544 543/326/543 545/327/545
f 544/70/544 545/327/545 546/134/546
f 546/134/546 545/327/545 547/137/547
f 547/137/547 545/327/545 548/328/548
usemtl tex_1832_lit_w11
f 549/332/549 550/349/550 551/350/551
f 552/333/552 549/332/549 551/350/551
f 553/335/553 554/333/554 555/336/555
f 553/335/553 556/332/556 554/333/554
f 557/351/557 551/350/551 550/349/550
f 557/351/557 550/349/550 558/352/558
usemtl tex_1831_lit_w11
f 559/353/559 560/339/560 561/338/561
f 559/353/559 561/338/561 562/354/562
f 563/355/563 564/341/564 565/356/565
f 563/355/563 566/342/566 564/341/564
f 567/357/567 568/344/568 569/358/569
f 569/358/569 568/344/568 570/346/570
