mtllib CtimberbondZ.mtl
v -1124.9631042480469 -89.728111743927 -78.0 1.000 1.000 1.000
v -1124.9631042480469 -175.728111743927 -72.0 1.000 1.000 1.000
v -1124.9631042480469 -44.728111743927 162.0 1.000 1.000 1.000
v -1124.9631042480469 -169.728111743927 171.0 1.000 1.000 1.000
v -1088.9631042480469 -81.728111743927 148.0 1.000 1.000 1.000
v -1025.9631042480469 -87.728111743927 -4.0 1.000 1.000 1.000
v -1019.9631042480469 -155.728111743927 -64.0 1.000 1.000 1.000
v -1090.9631042480469 -140.728111743927 175.0 1.000 1.000 1.000
v -1020.9631042480469 -107.728111743927 -65.0 1.000 1.000 1.000
v -1019.9631042480469 -150.728111743927 -17.0 1.000 1.000 1.000
v -1019.9631042480469 -144.728111743927 21.0 1.000 1.000 1.000
v -1027.9631042480469 -87.728111743927 -31.0 1.000 1.000 1.000
v -819.7110290527344 -73.27184295654297 55.0 1.000 1.000 1.000
v -868.7110290527344 -83.27184295654297 34.0 1.000 1.000 1.000
v -868.7110290527344 -131.27184295654297 45.0 1.000 1.000 1.000
v -816.7110290527344 -37.27184295654297 -16.0 1.000 1.000 1.000
v -819.7110290527344 -88.27184295654297 -85.0 1.000 1.000 1.000
v -859.7110290527344 -97.27184295654297 -63.0 1.000 1.000 1.000
v -862.7110290527344 -70.27184295654297 -1.0 1.000 1.000 1.000
v -817.7110290527344 -152.27184295654297 -72.0 1.000 1.000 1.000
v -816.7110290527344 -185.27184295654297 -3.0 1.000 1.000 1.000
v -855.7110290527344 -135.27184295654297 -62.0 1.000 1.000 1.000
v -819.7110290527344 -122.27184295654297 72.0 1.000 1.000 1.000
v -862.7110290527344 -161.27184295654297 -2.0 1.000 1.000 1.000
v -859.7110290527344 -97.27184295654297 -63.0 1.000 1.000 1.000
v -862.7110290527344 -70.27184295654297 -1.0 1.000 1.000 1.000
v -1025.7110290527344 -87.27184295654297 -4.0 1.000 1.000 1.000
v -868.7110290527344 -83.27184295654297 34.0 1.000 1.000 1.000
v -1020.7110290527344 -145.27184295654297 21.0 1.000 1.000 1.000
v -868.7110290527344 -131.27184295654297 45.0 1.000 1.000 1.000
v -1021.7110290527344 -107.27184295654297 -65.0 1.000 1.000 1.000
v -862.7110290527344 -161.27184295654297 -2.0 1.000 1.000 1.000
v -855.7110290527344 -135.27184295654297 -62.0 1.000 1.000 1.000
v -1019.7110290527344 -155.27184295654297 -64.0 1.000 1.000 1.000
v -1027.9631042480469 -87.728111743927 -31.0 1.000 1.000 1.000
v -1019.9631042480469 -150.728111743927 -17.0 1.000 1.000 1.000
v -581.7110290527344 -45.27184295654297 -7.0 1.000 1.000 1.000
v -580.7110290527344 -84.27184295654297 -72.0 1.000 1.000 1.000
v -580.7110290527344 -140.27184295654297 -65.0 1.000 1.000 1.000
v -573.7110290527344 -184.27184295654297 9.0 1.000 1.000 1.000
v -583.7110290527344 -147.27184295654297 90.0 1.000 1.000 1.000
v -584.7110290527344 -73.27184295654297 85.0 1.000 1.000 1.000
v -819.7110290527344 -73.27184295654297 55.0 1.000 1.000 1.000
v -816.7110290527344 -37.27184295654297 -16.0 1.000 1.000 1.000
v -819.7110290527344 -88.27184295654297 -85.0 1.000 1.000 1.000
v -817.7110290527344 -152.27184295654297 -72.0 1.000 1.000 1.000
v -816.7110290527344 -185.27184295654297 -3.0 1.000 1.000 1.000
v -819.7110290527344 -122.27184295654297 72.0 1.000 1.000 1.000
v -1020.7110290527344 -145.27184295654297 21.0 1.000 1.000 1.000
v -561.7110290527344 -134.27184295654297 87.0 1.000 1.000 1.000
v -1025.7110290527344 -87.27184295654297 -4.0 1.000 1.000 1.000
v -552.7110290527344 -35.27184295654297 38.0 1.000 1.000 1.000
v -555.7110290527344 -110.27184295654297 -67.0 1.000 1.000 1.000
v -1021.7110290527344 -107.27184295654297 -65.0 1.000 1.000 1.000
v -555.7110290527344 -197.27184295654297 13.0 1.000 1.000 1.000
v -1019.7110290527344 -155.27184295654297 -64.0 1.000 1.000 1.000
v -561.7110290527344 -134.27184295654297 87.0 1.000 1.000 1.000
v -555.7110290527344 -197.27184295654297 13.0 1.000 1.000 1.000
v -204.55816650390625 -32.09062194824219 -4.0 1.000 1.000 1.000
v -371.55816650390625 -32.09062194824219 -21.0 1.000 1.000 1.000
v -219.55816650390625 -47.09062194824219 53.0 1.000 1.000 1.000
v -383.55816650390625 -51.09062194824219 72.0 1.000 1.000 1.000
v -259.55816650390625 -123.09062194824219 105.0 1.000 1.000 1.000
v -381.55816650390625 -122.09062194824219 103.0 1.000 1.000 1.000
v -297.55816650390625 -189.0906219482422 23.0 1.000 1.000 1.000
v -352.55816650390625 -189.0906219482422 23.0 1.000 1.000 1.000
v -245.55816650390625 -167.0906219482422 -86.0 1.000 1.000 1.000
v -359.55816650390625 -163.0906219482422 -68.0 1.000 1.000 1.000
v -192.55816650390625 -90.09062194824219 -86.0 1.000 1.000 1.000
v -358.55816650390625 -90.09062194824219 -86.0 1.000 1.000 1.000
v -22.0 -201.0 -26.0 1.000 1.000 1.000
v -1.0 -230.0 92.0 1.000 1.000 1.000
v -132.0 -71.0 -73.0 1.000 1.000 1.000
v -94.0 -126.0 112.0 1.000 1.000 1.000
v -145.0 -48.0 14.0 1.000 1.000 1.000
v -34.0 -198.0 -85.0 1.000 1.000 1.000
v -44.0 -180.0 108.0 1.000 1.000 1.000
v -297.55816650390625 -189.0906219482422 23.0 1.000 1.000 1.000
v -192.55816650390625 -90.09062194824219 -86.0 1.000 1.000 1.000
v -204.55816650390625 -32.09062194824219 -4.0 1.000 1.000 1.000
v -219.55816650390625 -47.09062194824219 53.0 1.000 1.000 1.000
v -259.55816650390625 -123.09062194824219 105.0 1.000 1.000 1.000
v -245.55816650390625 -167.0906219482422 -86.0 1.000 1.000 1.000
v -371.55816650390625 -32.09062194824219 -21.0 1.000 1.000 1.000
v -358.55816650390625 -90.09062194824219 -86.0 1.000 1.000 1.000
v -359.55816650390625 -163.0906219482422 -68.0 1.000 1.000 1.000
v -352.55816650390625 -189.0906219482422 23.0 1.000 1.000 1.000
v -381.55816650390625 -122.09062194824219 103.0 1.000 1.000 1.000
v -383.55816650390625 -51.09062194824219 72.0 1.000 1.000 1.000
v -581.7110290527344 -45.27184295654297 -7.0 1.000 1.000 1.000
v -580.7110290527344 -84.27184295654297 -72.0 1.000 1.000 1.000
v -580.7110290527344 -140.27184295654297 -65.0 1.000 1.000 1.000
v -573.7110290527344 -184.27184295654297 9.0 1.000 1.000 1.000
v -583.7110290527344 -147.27184295654297 90.0 1.000 1.000 1.000
v -584.7110290527344 -73.27184295654297 85.0 1.000 1.000 1.000
v -561.5581665039062 -134.0906219482422 87.0 1.000 1.000 1.000
v -221.55816650390625 -194.0906219482422 20.0 1.000 1.000 1.000
v -221.55816650390625 -153.0906219482422 124.0 1.000 1.000 1.000
v -221.55816650390625 -124.09062194824219 -73.0 1.000 1.000 1.000
v -555.5581665039062 -197.0906219482422 13.0 1.000 1.000 1.000
v -555.5581665039062 -110.09062194824219 -67.0 1.000 1.000 1.000
v -552.5581665039062 -36.09062194824219 38.0 1.000 1.000 1.000
v -221.55816650390625 -39.09062194824219 27.0 1.000 1.000 1.000
v -221.55816650390625 -39.09062194824219 27.0 1.000 1.000 1.000
v -221.55816650390625 -153.0906219482422 124.0 1.000 1.000 1.000
v -221.55816650390625 -194.0906219482422 20.0 1.000 1.000 1.000
v -221.55816650390625 -124.09062194824219 -73.0 1.000 1.000 1.000
v -561.5581665039062 -134.0906219482422 87.0 1.000 1.000 1.000
v -555.5581665039062 -197.0906219482422 13.0 1.000 1.000 1.000
v 1133.3452835083008 -45.48002910614014 161.0 1.000 1.000 1.000
v 1133.3452835083008 -178.48002910614014 -71.0 1.000 1.000 1.000
v 1133.3452835083008 -92.48002910614014 -78.0 1.000 1.000 1.000
v 1133.3452835083008 -171.48002910614014 172.0 1.000 1.000 1.000
v 1033.3452835083008 -94.48002910614014 -4.0 1.000 1.000 1.000
v 1097.3452835083008 -86.48002910614014 147.0 1.000 1.000 1.000
v 1100.3452835083008 -141.48002910614014 175.0 1.000 1.000 1.000
v 1028.3452835083008 -158.48002910614014 -64.0 1.000 1.000 1.000
v 1030.3452835083008 -110.48002910614014 -65.0 1.000 1.000 1.000
v 1029.3452835083008 -147.48002910614014 21.0 1.000 1.000 1.000
v 1029.3452835083008 -152.48002910614014 -13.0 1.000 1.000 1.000
v 1035.3452835083008 -93.48002910614014 -37.0 1.000 1.000 1.000
v 876.860237121582 -132.00660610198975 44.0 1.000 1.000 1.000
v 876.860237121582 -86.00660610198975 34.0 1.000 1.000 1.000
v 828.860237121582 -75.00660610198975 55.0 1.000 1.000 1.000
v 867.860237121582 -99.00660610198975 -61.0 1.000 1.000 1.000
v 828.860237121582 -91.00660610198975 -85.0 1.000 1.000 1.000
v 825.860237121582 -43.006606101989746 -16.0 1.000 1.000 1.000
v 870.860237121582 -73.00660610198975 0.0 1.000 1.000 1.000
v 863.860237121582 -136.00660610198975 -60.0 1.000 1.000 1.000
v 825.860237121582 -186.00660610198975 -3.0 1.000 1.000 1.000
v 826.860237121582 -155.00660610198975 -72.0 1.000 1.000 1.000
v 828.860237121582 -125.00660610198975 72.0 1.000 1.000 1.000
v 870.860237121582 -160.00660610198975 -1.0 1.000 1.000 1.000
v 870.860237121582 -160.00660610198975 -1.0 1.000 1.000 1.000
v 1029.860237121582 -147.00660610198975 21.0 1.000 1.000 1.000
v 876.860237121582 -132.00660610198975 44.0 1.000 1.000 1.000
v 1033.860237121582 -95.00660610198975 -4.0 1.000 1.000 1.000
v 876.860237121582 -86.00660610198975 34.0 1.000 1.000 1.000
v 870.860237121582 -73.00660610198975 0.0 1.000 1.000 1.000
v 1030.860237121582 -110.00660610198975 -65.0 1.000 1.000 1.000
v 867.860237121582 -99.00660610198975 -61.0 1.000 1.000 1.000
v 1028.860237121582 -158.00660610198975 -64.0 1.000 1.000 1.000
v 863.860237121582 -136.00660610198975 -60.0 1.000 1.000 1.000
v 1035.3452835083008 -93.48002910614014 -37.0 1.000 1.000 1.000
v 1029.3452835083008 -152.48002910614014 -13.0 1.000 1.000 1.000
v 589.860237121582 -50.006606101989746 -7.0 1.000 1.000 1.000
v 588.860237121582 -88.00660610198975 -71.0 1.000 1.000 1.000
v 587.860237121582 -142.00660610198975 -64.0 1.000 1.000 1.000
v 583.860237121582 -187.00660610198975 9.0 1.000 1.000 1.000
v 591.860237121582 -147.00660610198975 88.0 1.000 1.000 1.000
v 592.860237121582 -76.00660610198975 84.0 1.000 1.000 1.000
v 825.860237121582 -43.006606101989746 -16.0 1.000 1.000 1.000
v 828.860237121582 -75.00660610198975 55.0 1.000 1.000 1.000
v 828.860237121582 -91.00660610198975 -85.0 1.000 1.000 1.000
v 826.860237121582 -155.00660610198975 -72.0 1.000 1.000 1.000
v 825.860237121582 -186.00660610198975 -3.0 1.000 1.000 1.000
v 828.860237121582 -125.00660610198975 72.0 1.000 1.000 1.000
v 1033.860237121582 -95.00660610198975 -4.0 1.000 1.000 1.000
v 570.860237121582 -138.00660610198975 87.0 1.000 1.000 1.000
v 1029.860237121582 -147.00660610198975 21.0 1.000 1.000 1.000
v 1030.860237121582 -110.00660610198975 -65.0 1.000 1.000 1.000
v 564.860237121582 -115.00660610198975 -67.0 1.000 1.000 1.000
v 561.860237121582 -40.006606101989746 38.0 1.000 1.000 1.000
v 564.860237121582 -202.00660610198975 13.0 1.000 1.000 1.000
v 1028.860237121582 -158.00660610198975 -64.0 1.000 1.000 1.000
v 564.860237121582 -202.00660610198975 13.0 1.000 1.000 1.000
v 570.860237121582 -138.00660610198975 87.0 1.000 1.000 1.000
v 254.42310333251953 -170.70415496826172 -87.0 1.000 1.000 1.000
v 369.42310333251953 -168.70415496826172 -68.0 1.000 1.000 1.000
v 306.42310333251953 -193.70415496826172 23.0 1.000 1.000 1.000
v 361.42310333251953 -193.70415496826172 23.0 1.000 1.000 1.000
v 269.42310333251953 -126.70415496826172 105.0 1.000 1.000 1.000
v 391.42310333251953 -126.70415496826172 103.0 1.000 1.000 1.000
v 227.42310333251953 -51.70415496826172 53.0 1.000 1.000 1.000
v 393.42310333251953 -57.70415496826172 72.0 1.000 1.000 1.000
v 213.42310333251953 -36.70415496826172 -4.0 1.000 1.000 1.000
v 381.42310333251953 -36.70415496826172 -21.0 1.000 1.000 1.000
v 202.42310333251953 -94.70415496826172 -86.0 1.000 1.000 1.000
v 367.42310333251953 -94.70415496826172 -86.0 1.000 1.000 1.000
v -1.0 -230.0 92.0 1.000 1.000 1.000
v 23.0 -201.0 -26.0 1.000 1.000 1.000
v 33.0 -196.0 -86.0 1.000 1.000 1.000
v 33.0 -196.0 -86.0 1.000 1.000 1.000
v 134.0 -72.0 -73.0 1.000 1.000 1.000
v 96.0 -123.0 112.0 1.000 1.000 1.000
v 149.0 -48.0 13.0 1.000 1.000 1.000
v 43.0 -179.0 109.0 1.000 1.000 1.000
v -1.0 -230.0 92.0 1.000 1.000 1.000
v 306.42310333251953 -193.70415496826172 23.0 1.000 1.000 1.000
v 202.42310333251953 -94.70415496826172 -86.0 1.000 1.000 1.000
v 213.42310333251953 -36.70415496826172 -4.0 1.000 1.000 1.000
v 269.42310333251953 -126.70415496826172 105.0 1.000 1.000 1.000
v 227.42310333251953 -51.70415496826172 53.0 1.000 1.000 1.000
v 269.42310333251953 -126.70415496826172 105.0 1.000 1.000 1.000
v 254.42310333251953 -170.70415496826172 -87.0 1.000 1.000 1.000
v 381.42310333251953 -36.70415496826172 -21.0 1.000 1.000 1.000
v 367.42310333251953 -94.70415496826172 -86.0 1.000 1.000 1.000
v 369.42310333251953 -168.70415496826172 -68.0 1.000 1.000 1.000
v 361.42310333251953 -193.70415496826172 23.0 1.000 1.000 1.000
v 391.42310333251953 -126.70415496826172 103.0 1.000 1.000 1.000
v 393.42310333251953 -57.70415496826172 72.0 1.000 1.000 1.000
v 588.860237121582 -88.00660610198975 -71.0 1.000 1.000 1.000
v 589.860237121582 -50.006606101989746 -7.0 1.000 1.000 1.000
v 587.860237121582 -142.00660610198975 -64.0 1.000 1.000 1.000
v 583.860237121582 -187.00660610198975 9.0 1.000 1.000 1.000
v 591.860237121582 -147.00660610198975 88.0 1.000 1.000 1.000
v 592.860237121582 -76.00660610198975 84.0 1.000 1.000 1.000
v 230.42310333251953 -157.70415496826172 124.0 1.000 1.000 1.000
v 230.42310333251953 -198.70415496826172 20.0 1.000 1.000 1.000
v 570.4231033325195 -138.70415496826172 87.0 1.000 1.000 1.000
v 565.4231033325195 -201.70415496826172 13.0 1.000 1.000 1.000
v 231.42310333251953 -128.70415496826172 -73.0 1.000 1.000 1.000
v 231.42310333251953 -43.70415496826172 27.0 1.000 1.000 1.000
v 561.4231033325195 -39.70415496826172 38.0 1.000 1.000 1.000
v 564.4231033325195 -114.70415496826172 -67.0 1.000 1.000 1.000
v 231.42310333251953 -128.70415496826172 -73.0 1.000 1.000 1.000
v 230.42310333251953 -198.70415496826172 20.0 1.000 1.000 1.000
v 230.42310333251953 -157.70415496826172 124.0 1.000 1.000 1.000
v 231.42310333251953 -43.70415496826172 27.0 1.000 1.000 1.000
v 565.4231033325195 -201.70415496826172 13.0 1.000 1.000 1.000
v 570.4231033325195 -138.70415496826172 87.0 1.000 1.000 1.000
v -199.3606719970703 424.35171604156494 0.0 1.000 1.000 1.000
v -250.3606719970703 362.35171604156494 66.0 1.000 1.000 1.000
v -301.3606719970703 423.35171604156494 0.0 1.000 1.000 1.000
v 42.334922075271606 483.8643493652344 9.0 1.000 1.000 1.000
v 32.334922075271606 462.8643493652344 27.0 1.000 1.000 1.000
v -0.6650779247283936 429.8643493652344 65.0 1.000 1.000 1.000
v -20.665077924728394 440.8643493652344 51.0 1.000 1.000 1.000
v 18.334922075271606 440.8643493652344 49.0 1.000 1.000 1.000
v -44.665077924728394 483.8643493652344 9.0 1.000 1.000 1.000
v -43.665077924728394 479.8643493652344 -2.0 1.000 1.000 1.000
v 41.334922075271606 479.8643493652344 -2.0 1.000 1.000 1.000
v 27.334922075271606 450.8643493652344 40.0 1.000 1.000 1.000
v -37.665077924728394 462.8643493652344 27.0 1.000 1.000 1.000
v -29.665077924728394 450.8643493652344 40.0 1.000 1.000 1.000
v -197.3606719970703 414.35171604156494 -52.0 1.000 1.000 1.000
v -302.3606719970703 414.35171604156494 -52.0 1.000 1.000 1.000
v -301.3606719970703 423.35171604156494 0.0 1.000 1.000 1.000
v -199.3606719970703 424.35171604156494 0.0 1.000 1.000 1.000
v 24.334922075271606 468.8643493652344 -37.0 1.000 1.000 1.000
v 41.334922075271606 479.8643493652344 -2.0 1.000 1.000 1.000
v -28.665077924728394 468.8643493652344 -36.0 1.000 1.000 1.000
v -43.665077924728394 479.8643493652344 -2.0 1.000 1.000 1.000
v -772.3618193864822 382.4284257888794 58.0 1.000 1.000 1.000
v -736.3618193864822 436.4284257888794 -29.0 1.000 1.000 1.000
v -759.3618193864822 388.4284257888794 -46.0 1.000 1.000 1.000
v -749.3618193864822 462.4284257888794 54.0 1.000 1.000 1.000
v -736.3618193864822 436.4284257888794 -29.0 1.000 1.000 1.000
v -749.3618193864822 462.4284257888794 54.0 1.000 1.000 1.000
v -650.3618193864822 440.4284257888794 8.0 1.000 1.000 1.000
v -651.3618193864822 435.4284257888794 44.0 1.000 1.000 1.000
v -650.3618193864822 422.4284257888794 -29.0 1.000 1.000 1.000
v -651.3618193864822 435.4284257888794 44.0 1.000 1.000 1.000
v -772.3618193864822 382.4284257888794 58.0 1.000 1.000 1.000
v -655.3618193864822 379.4284257888794 40.0 1.000 1.000 1.000
v -749.3618193864822 462.4284257888794 54.0 1.000 1.000 1.000
v -658.3618193864822 383.4284257888794 9.0 1.000 1.000 1.000
v -655.3618193864822 379.4284257888794 40.0 1.000 1.000 1.000
v -772.3618193864822 382.4284257888794 58.0 1.000 1.000 1.000
v -759.3618193864822 388.4284257888794 -46.0 1.000 1.000 1.000
v -653.3618193864822 387.4284257888794 -24.0 1.000 1.000 1.000
v -658.3618193864822 383.4284257888794 9.0 1.000 1.000 1.000
v -772.3618193864822 382.4284257888794 58.0 1.000 1.000 1.000
v -650.3618193864822 422.4284257888794 -29.0 1.000 1.000 1.000
v -759.3618193864822 388.4284257888794 -46.0 1.000 1.000 1.000
v -736.3618193864822 436.4284257888794 -29.0 1.000 1.000 1.000
v -653.3618193864822 387.4284257888794 -24.0 1.000 1.000 1.000
v -513.0011473894119 442.07670974731445 42.0 1.000 1.000 1.000
v -479.0011473894119 405.07670974731445 80.0 1.000 1.000 1.000
v -480.0011473894119 460.07670974731445 69.0 1.000 1.000 1.000
v -513.0011473894119 431.07670974731445 -27.0 1.000 1.000 1.000
v -512.0011473894119 451.07670974731445 14.0 1.000 1.000 1.000
v -480.0011473894119 467.07670974731445 7.0 1.000 1.000 1.000
v -511.0011473894119 393.07670974731445 -33.0 1.000 1.000 1.000
v -482.0011473894119 415.07670974731445 -56.0 1.000 1.000 1.000
v -481.0011473894119 348.07670974731445 -14.0 1.000 1.000 1.000
v -514.0011473894119 383.07670974731445 48.0 1.000 1.000 1.000
v -513.0011473894119 376.07670974731445 12.0 1.000 1.000 1.000
v -480.0011473894119 352.07670974731445 63.0 1.000 1.000 1.000
v -513.0011473894119 376.07670974731445 12.0 1.000 1.000 1.000
v -511.0011473894119 393.07670974731445 -33.0 1.000 1.000 1.000
v -513.0011473894119 431.07670974731445 -27.0 1.000 1.000 1.000
v -512.0011473894119 451.07670974731445 14.0 1.000 1.000 1.000
v -513.0011473894119 442.07670974731445 42.0 1.000 1.000 1.000
v -514.0011473894119 383.07670974731445 48.0 1.000 1.000 1.000
v -658.3618193864822 383.4284257888794 9.0 1.000 1.000 1.000
v -653.3618193864822 387.4284257888794 -24.0 1.000 1.000 1.000
v -650.3618193864822 422.4284257888794 -29.0 1.000 1.000 1.000
v -650.3618193864822 440.4284257888794 8.0 1.000 1.000 1.000
v -651.3618193864822 435.4284257888794 44.0 1.000 1.000 1.000
v -655.3618193864822 379.4284257888794 40.0 1.000 1.000 1.000
v -399.0011473894119 449.07670974731445 6.0 1.000 1.000 1.000
v -400.0011473894119 414.07670974731445 -48.0 1.000 1.000 1.000
v -400.0011473894119 359.07670974731445 -10.0 1.000 1.000 1.000
v -399.0011473894119 366.07670974731445 53.0 1.000 1.000 1.000
v -398.0011473894119 406.07670974731445 61.0 1.000 1.000 1.000
v -399.0011473894119 446.07670974731445 51.0 1.000 1.000 1.000
v -480.0011473894119 467.07670974731445 7.0 1.000 1.000 1.000
v -482.0011473894119 415.07670974731445 -56.0 1.000 1.000 1.000
v -481.0011473894119 348.07670974731445 -14.0 1.000 1.000 1.000
v -480.0011473894119 352.07670974731445 63.0 1.000 1.000 1.000
v -479.0011473894119 405.07670974731445 80.0 1.000 1.000 1.000
v -480.0011473894119 460.07670974731445 69.0 1.000 1.000 1.000
v -420.0011473894119 342.07670974731445 85.0 1.000 1.000 1.000
v -422.0011473894119 443.07670974731445 89.0 1.000 1.000 1.000
v -674.0011473894119 380.07670974731445 42.0 1.000 1.000 1.000
v -674.0011473894119 386.07670974731445 -25.0 1.000 1.000 1.000
v -420.0011473894119 339.07670974731445 -28.0 1.000 1.000 1.000
v -674.0011473894119 443.07670974731445 42.0 1.000 1.000 1.000
v -422.0011473894119 455.07670974731445 -49.0 1.000 1.000 1.000
v -674.0011473894119 427.07670974731445 -27.0 1.000 1.000 1.000
v -343.8356810808182 368.4365463256836 62.0 1.000 1.000 1.000
v -264.8356810808182 333.4365463256836 -20.0 1.000 1.000 1.000
v -257.8356810808182 336.4365463256836 71.0 1.000 1.000 1.000
v -190.83568108081818 387.4365463256836 73.0 1.000 1.000 1.000
v -344.8356810808182 404.4365463256836 65.0 1.000 1.000 1.000
v -344.8356810808182 413.4365463256836 -49.0 1.000 1.000 1.000
v -142.83568108081818 412.4365463256836 11.0 1.000 1.000 1.000
v -176.83568108081818 380.4365463256836 -56.0 1.000 1.000 1.000
v -343.8356810808182 353.4365463256836 -11.0 1.000 1.000 1.000
v -342.8356810808182 439.4365463256836 57.0 1.000 1.000 1.000
v -331.8356810808182 443.4365463256836 7.0 1.000 1.000 1.000
v -422.3606719970703 213.35171604156494 -18.0 1.000 1.000 1.000
v -424.3606719970703 224.35171604156494 70.0 1.000 1.000 1.000
v -422.3606719970703 213.35171604156494 -18.0 1.000 1.000 1.000
v -426.3606719970703 349.35171604156494 -53.0 1.000 1.000 1.000
v -424.3606719970703 369.35171604156494 29.0 1.000 1.000 1.000
v -426.3606719970703 328.35171604156494 79.0 1.000 1.000 1.000
v -424.3606719970703 224.35171604156494 70.0 1.000 1.000 1.000
v -264.8356810808182 333.4365463256836 -20.0 1.000 1.000 1.000
v -176.83568108081818 380.4365463256836 -56.0 1.000 1.000 1.000
v -264.8356810808182 333.4365463256836 -20.0 1.000 1.000 1.000
v -142.83568108081818 412.4365463256836 11.0 1.000 1.000 1.000
v -190.83568108081818 387.4365463256836 73.0 1.000 1.000 1.000
v -257.8356810808182 336.4365463256836 71.0 1.000 1.000 1.000
v -257.8356810808182 336.4365463256836 71.0 1.000 1.000 1.000
v -331.8356810808182 443.4365463256836 7.0 1.000 1.000 1.000
v -344.8356810808182 413.4365463256836 -49.0 1.000 1.000 1.000
v -343.8356810808182 353.4365463256836 -11.0 1.000 1.000 1.000
v -343.8356810808182 368.4365463256836 62.0 1.000 1.000 1.000
v -344.8356810808182 404.4365463256836 65.0 1.000 1.000 1.000
v -342.8356810808182 439.4365463256836 57.0 1.000 1.000 1.000
v -399.0011473894119 449.07670974731445 6.0 1.000 1.000 1.000
v -400.0011473894119 414.07670974731445 -48.0 1.000 1.000 1.000
v -400.0011473894119 359.07670974731445 -10.0 1.000 1.000 1.000
v -399.0011473894119 366.07670974731445 53.0 1.000 1.000 1.000
v -398.0011473894119 406.07670974731445 61.0 1.000 1.000 1.000
v -399.0011473894119 446.07670974731445 51.0 1.000 1.000 1.000
v -174.83568108081818 419.4365463256836 68.0 1.000 1.000 1.000
v -111.83568108081818 323.4365463256836 66.0 1.000 1.000 1.000
v -86.83568108081818 319.4365463256836 -45.0 1.000 1.000 1.000
v -170.83568108081818 432.4365463256836 -33.0 1.000 1.000 1.000
v -419.8356810808182 341.4365463256836 85.0 1.000 1.000 1.000
v -86.83568108081818 319.4365463256836 -45.0 1.000 1.000 1.000
v -111.83568108081818 323.4365463256836 66.0 1.000 1.000 1.000
v -422.8356810808182 442.4365463256836 89.0 1.000 1.000 1.000
v -421.8356810808182 455.4365463256836 -49.0 1.000 1.000 1.000
v -419.8356810808182 338.4365463256836 -28.0 1.000 1.000 1.000
v 349.8190460205078 -28.74720498919487 -45.728713035583496 1.000 1.000 1.000
v 325.8190460205078 19.25279501080513 -28.728713035583496 1.000 1.000 1.000
v 360.8190460205078 -33.74720498919487 59.271286964416504 1.000 1.000 1.000
v 337.8190460205078 46.25279501080513 53.271286964416504 1.000 1.000 1.000
v 240.8190460205078 5.25279501080513 -30.728713035583496 1.000 1.000 1.000
v 239.8190460205078 28.25279501080513 12.271286964416504 1.000 1.000 1.000
v 325.8190460205078 19.25279501080513 -28.728713035583496 1.000 1.000 1.000
v 238.8190460205078 19.25279501080513 42.271286964416504 1.000 1.000 1.000
v 337.8190460205078 46.25279501080513 53.271286964416504 1.000 1.000 1.000
v 242.8190460205078 -36.74720498919487 39.271286964416504 1.000 1.000 1.000
v 360.8190460205078 -33.74720498919487 59.271286964416504 1.000 1.000 1.000
v 238.8190460205078 19.25279501080513 42.271286964416504 1.000 1.000 1.000
v 337.8190460205078 46.25279501080513 53.271286964416504 1.000 1.000 1.000
v 242.8190460205078 -33.74720498919487 5.271286964416504 1.000 1.000 1.000
v 243.8190460205078 -30.74720498919487 -25.728713035583496 1.000 1.000 1.000
v 349.8190460205078 -28.74720498919487 -45.728713035583496 1.000 1.000 1.000
v 360.8190460205078 -33.74720498919487 59.271286964416504 1.000 1.000 1.000
v 242.8190460205078 -36.74720498919487 39.271286964416504 1.000 1.000 1.000
v 242.8190460205078 -33.74720498919487 5.271286964416504 1.000 1.000 1.000
v 349.8190460205078 -28.74720498919487 -45.728713035583496 1.000 1.000 1.000
v 325.8190460205078 19.25279501080513 -28.728713035583496 1.000 1.000 1.000
v 349.8190460205078 -28.74720498919487 -45.728713035583496 1.000 1.000 1.000
v 240.8190460205078 5.25279501080513 -30.728713035583496 1.000 1.000 1.000
v 243.8190460205078 -30.74720498919487 -25.728713035583496 1.000 1.000 1.000
v 486.9887207746506 448.32958221435547 71.16905689239502 1.000 1.000 1.000
v 485.9887207746506 394.32958221435547 83.16905689239502 1.000 1.000 1.000
v 516.9887207746506 418.32958221435547 52.16905689239502 1.000 1.000 1.000
v 487.9887207746506 454.32958221435547 10.16905689239502 1.000 1.000 1.000
v 516.9887207746506 439.32958221435547 17.16905689239502 1.000 1.000 1.000
v 518.9887207746506 419.32958221435547 -21.83094310760498 1.000 1.000 1.000
v 488.9887207746506 346.32958221435547 -8.83094310760498 1.000 1.000 1.000
v 490.9887207746506 402.32958221435547 -53.83094310760498 1.000 1.000 1.000
v 516.9887207746506 381.32958221435547 -26.83094310760498 1.000 1.000 1.000
v 518.9887207746506 374.32958221435547 51.16905689239502 1.000 1.000 1.000
v 486.9887207746506 338.32958221435547 67.16905689239502 1.000 1.000 1.000
v 517.9887207746506 366.32958221435547 16.16905689239502 1.000 1.000 1.000
v 517.9887207746506 366.32958221435547 16.16905689239502 1.000 1.000 1.000
v 518.9887207746506 374.32958221435547 51.16905689239502 1.000 1.000 1.000
v 516.9887207746506 418.32958221435547 52.16905689239502 1.000 1.000 1.000
v 518.9887207746506 374.32958221435547 51.16905689239502 1.000 1.000 1.000
v 516.9887207746506 439.32958221435547 17.16905689239502 1.000 1.000 1.000
v 516.9887207746506 418.32958221435547 52.16905689239502 1.000 1.000 1.000
v 518.9887207746506 419.32958221435547 -21.83094310760498 1.000 1.000 1.000
v 242.8190460205078 -33.74720498919487 5.271286964416504 1.000 1.000 1.000
v 243.8190460205078 -30.74720498919487 -25.728713035583496 1.000 1.000 1.000
v 242.8190460205078 -36.74720498919487 39.271286964416504 1.000 1.000 1.000
v 242.8190460205078 -36.74720498919487 39.271286964416504 1.000 1.000 1.000
v 238.8190460205078 19.25279501080513 42.271286964416504 1.000 1.000 1.000
v 238.8190460205078 19.25279501080513 42.271286964416504 1.000 1.000 1.000
v 239.8190460205078 28.25279501080513 12.271286964416504 1.000 1.000 1.000
v 240.8190460205078 5.25279501080513 -30.728713035583496 1.000 1.000 1.000
v 516.9887207746506 381.32958221435547 -26.83094310760498 1.000 1.000 1.000
v 518.9887207746506 419.32958221435547 -21.83094310760498 1.000 1.000 1.000
v 517.9887207746506 366.32958221435547 16.16905689239502 1.000 1.000 1.000
v 516.9887207746506 381.32958221435547 -26.83094310760498 1.000 1.000 1.000
v 240.8190460205078 5.25279501080513 -30.728713035583496 1.000 1.000 1.000
v 243.8190460205078 -30.74720498919487 -25.728713035583496 1.000 1.000 1.000
v 243.8190460205078 -30.74720498919487 -25.728713035583496 1.000 1.000 1.000
v 403.9887207746506 352.32958221435547 -6.8309431076049805 1.000 1.000 1.000
v 409.9887207746506 400.32958221435547 -45.83094310760498 1.000 1.000 1.000
v 406.9887207746506 437.32958221435547 7.1690568923950195 1.000 1.000 1.000
v 406.9887207746506 434.32958221435547 53.16905689239502 1.000 1.000 1.000
v 405.9887207746506 395.32958221435547 63.16905689239502 1.000 1.000 1.000
v 405.9887207746506 346.32958221435547 56.16905689239502 1.000 1.000 1.000
v 488.9887207746506 346.32958221435547 -8.83094310760498 1.000 1.000 1.000
v 490.9887207746506 402.32958221435547 -53.83094310760498 1.000 1.000 1.000
v 487.9887207746506 454.32958221435547 10.16905689239502 1.000 1.000 1.000
v 486.9887207746506 448.32958221435547 71.16905689239502 1.000 1.000 1.000
v 485.9887207746506 394.32958221435547 83.16905689239502 1.000 1.000 1.000
v 486.9887207746506 338.32958221435547 67.16905689239502 1.000 1.000 1.000
v 672.9887207746506 372.32958221435547 49.16905689239502 1.000 1.000 1.000
v 429.9887207746506 431.32958221435547 91.16905689239502 1.000 1.000 1.000
v 428.9887207746506 330.32958221435547 89.16905689239502 1.000 1.000 1.000
v 430.9887207746506 325.32958221435547 -23.83094310760498 1.000 1.000 1.000
v 673.9887207746506 377.32958221435547 -17.83094310760498 1.000 1.000 1.000
v 431.9887207746506 441.32958221435547 -46.83094310760498 1.000 1.000 1.000
v 672.9887207746506 435.32958221435547 48.16905689239502 1.000 1.000 1.000
v 674.9887207746506 418.32958221435547 -20.83094310760498 1.000 1.000 1.000
v 265.9135254621506 320.1787338256836 72.0 1.000 1.000 1.000
v 275.9135254621506 311.1787338256836 -20.0 1.000 1.000 1.000
v 350.9135254621506 357.1787338256836 64.0 1.000 1.000 1.000
v 351.9135254621506 392.1787338256836 67.0 1.000 1.000 1.000
v 197.91352546215057 366.1787338256836 72.0 1.000 1.000 1.000
v 185.91352546215057 357.1787338256836 -57.0 1.000 1.000 1.000
v 147.91352546215057 388.1787338256836 9.0 1.000 1.000 1.000
v 353.9135254621506 399.1787338256836 -48.0 1.000 1.000 1.000
v 351.9135254621506 331.1787338256836 -8.0 1.000 1.000 1.000
v 349.9135254621506 428.1787338256836 58.0 1.000 1.000 1.000
v 339.9135254621506 399.1787338256836 8.0 1.000 1.000 1.000
v -79.36067199707031 214.35171604156494 -17.0 1.000 1.000 1.000
v -77.36067199707031 349.35171604156494 -51.0 1.000 1.000 1.000
v -77.36067199707031 372.35171604156494 27.0 1.000 1.000 1.000
v -78.36067199707031 329.35171604156494 79.0 1.000 1.000 1.000
v -76.36067199707031 224.35171604156494 70.0 1.000 1.000 1.000
v -76.36067199707031 224.35171604156494 70.0 1.000 1.000 1.000
v -79.36067199707031 214.35171604156494 -17.0 1.000 1.000 1.000
v 185.91352546215057 357.1787338256836 -57.0 1.000 1.000 1.000
v 275.9135254621506 311.1787338256836 -20.0 1.000 1.000 1.000
v 147.91352546215057 388.1787338256836 9.0 1.000 1.000 1.000
v 197.91352546215057 366.1787338256836 72.0 1.000 1.000 1.000
v 265.9135254621506 320.1787338256836 72.0 1.000 1.000 1.000
v 265.9135254621506 320.1787338256836 72.0 1.000 1.000 1.000
v 275.9135254621506 311.1787338256836 -20.0 1.000 1.000 1.000
v 339.9135254621506 399.1787338256836 8.0 1.000 1.000 1.000
v 353.9135254621506 399.1787338256836 -48.0 1.000 1.000 1.000
v 351.9135254621506 331.1787338256836 -8.0 1.000 1.000 1.000
v 350.9135254621506 357.1787338256836 64.0 1.000 1.000 1.000
v 351.9135254621506 392.1787338256836 67.0 1.000 1.000 1.000
v 349.9135254621506 428.1787338256836 58.0 1.000 1.000 1.000
v 409.9887207746506 400.32958221435547 -45.83094310760498 1.000 1.000 1.000
v 406.9887207746506 437.32958221435547 7.1690568923950195 1.000 1.000 1.000
v 403.9887207746506 352.32958221435547 -6.8309431076049805 1.000 1.000 1.000
v 405.9887207746506 346.32958221435547 56.16905689239502 1.000 1.000 1.000
v 405.9887207746506 395.32958221435547 63.16905689239502 1.000 1.000 1.000
v 406.9887207746506 434.32958221435547 53.16905689239502 1.000 1.000 1.000
v 118.91352546215057 306.1787338256836 65.0 1.000 1.000 1.000
v 94.91352546215057 300.1787338256836 -47.0 1.000 1.000 1.000
v 428.9135254621506 330.1787338256836 89.0 1.000 1.000 1.000
v 429.9135254621506 431.1787338256836 91.0 1.000 1.000 1.000
v 181.91352546215057 402.1787338256836 67.0 1.000 1.000 1.000
v 178.91352546215057 414.1787338256836 -34.0 1.000 1.000 1.000
v 431.9135254621506 441.1787338256836 -47.0 1.000 1.000 1.000
v 430.9135254621506 325.1787338256836 -24.0 1.000 1.000 1.000
v 118.91352546215057 306.1787338256836 65.0 1.000 1.000 1.000
v 94.91352546215057 300.1787338256836 -47.0 1.000 1.000 1.000
v -77.36067199707031 372.35171604156494 27.0 1.000 1.000 1.000
v -197.3606719970703 414.35171604156494 -52.0 1.000 1.000 1.000
v -199.3606719970703 424.35171604156494 0.0 1.000 1.000 1.000
v -78.36067199707031 329.35171604156494 79.0 1.000 1.000 1.000
v -249.3606719970703 217.35171604156494 147.0 1.000 1.000 1.000
v -122.36067199707031 203.35171604156494 133.0 1.000 1.000 1.000
v -379.3606719970703 203.35171604156494 134.0 1.000 1.000 1.000
v -397.3606719970703 70.35171604156494 21.0 1.000 1.000 1.000
v -322.3606719970703 79.35171604156494 125.0 1.000 1.000 1.000
v -250.3606719970703 362.35171604156494 66.0 1.000 1.000 1.000
v -301.3606719970703 423.35171604156494 0.0 1.000 1.000 1.000
v -296.3606719970703 358.35171604156494 81.0 1.000 1.000 1.000
v -302.3606719970703 414.35171604156494 -52.0 1.000 1.000 1.000
v -424.3606719970703 369.35171604156494 29.0 1.000 1.000 1.000
v -249.3606719970703 79.35171604156494 137.0 1.000 1.000 1.000
v -426.3606719970703 349.35171604156494 -53.0 1.000 1.000 1.000
v -249.3606719970703 217.35171604156494 147.0 1.000 1.000 1.000
v -249.3606719970703 79.35171604156494 137.0 1.000 1.000 1.000
v -172.3606719970703 79.35171604156494 125.0 1.000 1.000 1.000
v -197.3606719970703 414.35171604156494 -52.0 1.000 1.000 1.000
v -77.36067199707031 372.35171604156494 27.0 1.000 1.000 1.000
v -77.36067199707031 349.35171604156494 -51.0 1.000 1.000 1.000
v -76.36067199707031 224.35171604156494 70.0 1.000 1.000 1.000
v -78.36067199707031 329.35171604156494 79.0 1.000 1.000 1.000
v -122.36067199707031 203.35171604156494 133.0 1.000 1.000 1.000
v -94.36067199707031 69.35171604156494 22.0 1.000 1.000 1.000
v -379.3606719970703 203.35171604156494 134.0 1.000 1.000 1.000
v -322.3606719970703 79.35171604156494 125.0 1.000 1.000 1.000
v -426.3606719970703 328.35171604156494 79.0 1.000 1.000 1.000
v -424.3606719970703 224.35171604156494 70.0 1.000 1.000 1.000
v -397.3606719970703 70.35171604156494 21.0 1.000 1.000 1.000
v -296.3606719970703 358.35171604156494 81.0 1.000 1.000 1.000
v -424.3606719970703 369.35171604156494 29.0 1.000 1.000 1.000
v -426.3606719970703 328.35171604156494 79.0 1.000 1.000 1.000
v -296.3606719970703 358.35171604156494 81.0 1.000 1.000 1.000
v -250.3606719970703 362.35171604156494 66.0 1.000 1.000 1.000
v -249.3606719970703 217.35171604156494 147.0 1.000 1.000 1.000
v -379.3606719970703 203.35171604156494 134.0 1.000 1.000 1.000
v -78.36067199707031 329.35171604156494 79.0 1.000 1.000 1.000
v -203.3606719970703 359.35171604156494 81.0 1.000 1.000 1.000
v -77.36067199707031 372.35171604156494 27.0 1.000 1.000 1.000
v -301.3606719970703 423.35171604156494 0.0 1.000 1.000 1.000
v -199.3606719970703 424.35171604156494 0.0 1.000 1.000 1.000
v -422.3606719970703 213.35171604156494 -18.0 1.000 1.000 1.000
v -397.3606719970703 70.35171604156494 21.0 1.000 1.000 1.000
v -424.3606719970703 224.35171604156494 70.0 1.000 1.000 1.000
v -316.3606719970703 208.35171604156494 -99.0 1.000 1.000 1.000
v -312.3606719970703 74.35171604156494 -69.0 1.000 1.000 1.000
v -361.3606719970703 73.35171604156494 -58.0 1.000 1.000 1.000
v -182.3606719970703 208.35171604156494 -100.0 1.000 1.000 1.000
v -296.3606719970703 342.35171604156494 -81.0 1.000 1.000 1.000
v -422.3606719970703 213.35171604156494 -18.0 1.000 1.000 1.000
v -426.3606719970703 349.35171604156494 -53.0 1.000 1.000 1.000
v -248.3606719970703 77.35171604156494 -71.0 1.000 1.000 1.000
v -77.36067199707031 349.35171604156494 -51.0 1.000 1.000 1.000
v -203.3606719970703 343.35171604156494 -82.0 1.000 1.000 1.000
v -186.3606719970703 74.35171604156494 -71.0 1.000 1.000 1.000
v -79.36067199707031 214.35171604156494 -17.0 1.000 1.000 1.000
v -141.3606719970703 74.35171604156494 -60.0 1.000 1.000 1.000
v -302.3606719970703 414.35171604156494 -52.0 1.000 1.000 1.000
v -197.3606719970703 414.35171604156494 -52.0 1.000 1.000 1.000
v -397.3606719970703 70.35171604156494 21.0 1.000 1.000 1.000
v -141.3606719970703 74.35171604156494 -60.0 1.000 1.000 1.000
v -79.36067199707031 214.35171604156494 -17.0 1.000 1.000 1.000
v -94.36067199707031 69.35171604156494 22.0 1.000 1.000 1.000
v -197.3606719970703 414.35171604156494 -52.0 1.000 1.000 1.000
v -77.36067199707031 349.35171604156494 -51.0 1.000 1.000 1.000
v -203.3606719970703 343.35171604156494 -82.0 1.000 1.000 1.000
v -76.36067199707031 224.35171604156494 70.0 1.000 1.000 1.000
v -296.3606719970703 342.35171604156494 -81.0 1.000 1.000 1.000
v -316.3606719970703 208.35171604156494 -99.0 1.000 1.000 1.000
v -426.3606719970703 349.35171604156494 -53.0 1.000 1.000 1.000
v -182.3606719970703 208.35171604156494 -100.0 1.000 1.000 1.000
v -248.3606719970703 77.35171604156494 -71.0 1.000 1.000 1.000
v 145.2295960187912 77.4203109741211 23.0 1.000 1.000 1.000
v 78.2295960187912 70.4203109741211 122.0 1.000 1.000 1.000
v -0.7704039812088013 66.4203109741211 128.0 1.000 1.000 1.000
v -75.7704039812088 67.4203109741211 119.0 1.000 1.000 1.000
v -136.7704039812088 74.4203109741211 21.0 1.000 1.000 1.000
v -136.7704039812088 74.4203109741211 21.0 1.000 1.000 1.000
v -100.7704039812088 81.4203109741211 -62.0 1.000 1.000 1.000
v -49.7704039812088 83.4203109741211 -68.0 1.000 1.000 1.000
v -94.36067199707031 69.35171604156494 22.0 1.000 1.000 1.000
v -172.3606719970703 79.35171604156494 125.0 1.000 1.000 1.000
v -249.3606719970703 79.35171604156494 137.0 1.000 1.000 1.000
v -322.3606719970703 79.35171604156494 125.0 1.000 1.000 1.000
v -397.3606719970703 70.35171604156494 21.0 1.000 1.000 1.000
v -397.3606719970703 70.35171604156494 21.0 1.000 1.000 1.000
v -361.3606719970703 73.35171604156494 -58.0 1.000 1.000 1.000
v -312.3606719970703 74.35171604156494 -69.0 1.000 1.000 1.000
v -49.7704039812088 83.4203109741211 -68.0 1.000 1.000 1.000
v -0.7704039812088013 82.4203109741211 -67.0 1.000 1.000 1.000
v 46.2295960187912 83.4203109741211 -68.0 1.000 1.000 1.000
v 99.2295960187912 83.4203109741211 -65.0 1.000 1.000 1.000
v 145.2295960187912 77.4203109741211 23.0 1.000 1.000 1.000
v -312.3606719970703 74.35171604156494 -69.0 1.000 1.000 1.000
v -248.3606719970703 77.35171604156494 -71.0 1.000 1.000 1.000
v -186.3606719970703 74.35171604156494 -71.0 1.000 1.000 1.000
v -141.3606719970703 74.35171604156494 -60.0 1.000 1.000 1.000
v -94.36067199707031 69.35171604156494 22.0 1.000 1.000 1.000
v -59.36067199707031 360.35171604156494 148.0 1.000 1.000 1.000
v -457.3606719970703 397.35171604156494 -72.0 1.000 1.000 1.000
v -437.3606719970703 356.35171604156494 147.0 1.000 1.000 1.000
v -59.36067199707031 360.35171604156494 148.0 1.000 1.000 1.000
v -380.3606719970703 -24.64828395843506 141.0 1.000 1.000 1.000
v -114.36067199707031 -24.64828395843506 141.0 1.000 1.000 1.000
v -38.36067199707031 399.35171604156494 -70.0 1.000 1.000 1.000
v -391.3606719970703 -29.64828395843506 -35.0 1.000 1.000 1.000
v -380.3606719970703 -24.64828395843506 141.0 1.000 1.000 1.000
v -111.36067199707031 -28.64828395843506 -37.0 1.000 1.000 1.000
v -38.36067199707031 399.35171604156494 -70.0 1.000 1.000 1.000
v -114.36067199707031 -24.64828395843506 141.0 1.000 1.000 1.000
v -437.3606719970703 356.35171604156494 147.0 1.000 1.000 1.000
v -59.36067199707031 360.35171604156494 148.0 1.000 1.000 1.000
v -111.36067199707031 -28.64828395843506 -37.0 1.000 1.000 1.000
v -380.3606719970703 -24.64828395843506 141.0 1.000 1.000 1.000
v -111.36067199707031 -28.64828395843506 -37.0 1.000 1.000 1.000
v -114.36067199707031 -24.64828395843506 141.0 1.000 1.000 1.000
v -380.3606719970703 -24.64828395843506 141.0 1.000 1.000 1.000
v -38.36067199707031 399.35171604156494 -70.0 1.000 1.000 1.000
v -111.36067199707031 -28.64828395843506 -37.0 1.000 1.000 1.000
v -391.3606719970703 -29.64828395843506 -35.0 1.000 1.000 1.000
v -457.3606719970703 397.35171604156494 -72.0 1.000 1.000 1.000
v 96.0 -123.0 112.0 1.000 1.000 1.000
v 149.0 -48.0 13.0 1.000 1.000 1.000
v 144.0 1.0 23.0 1.000 1.000 1.000
v -44.0 -180.0 108.0 1.000 1.000 1.000
v -1.0 -230.0 92.0 1.000 1.000 1.000
v 0.0 -179.0 108.0 1.000 1.000 1.000
v -1.0 -230.0 92.0 1.000 1.000 1.000
v 43.0 -179.0 109.0 1.000 1.000 1.000
v 0.0 -179.0 108.0 1.000 1.000 1.000
v -94.0 -126.0 112.0 1.000 1.000 1.000
v 1.0 -124.0 112.0 1.000 1.000 1.000
v 1.0 -124.0 112.0 1.000 1.000 1.000
v -75.0 -9.0 119.0 1.000 1.000 1.000
v 0.0 -11.0 128.0 1.000 1.000 1.000
v -139.0 -2.0 21.0 1.000 1.000 1.000
v -145.0 -48.0 14.0 1.000 1.000 1.000
v 96.0 -123.0 112.0 1.000 1.000 1.000
v 72.0 -6.0 122.0 1.000 1.000 1.000
v 0.0 -11.0 128.0 1.000 1.000 1.000
v 1.0 -124.0 112.0 1.000 1.000 1.000
v 0.0 -11.0 128.0 1.000 1.000 1.000
v -94.0 -126.0 112.0 1.000 1.000 1.000
v 1.0 -124.0 112.0 1.000 1.000 1.000
v -139.0 -2.0 21.0 1.000 1.000 1.000
v -75.0 -9.0 119.0 1.000 1.000 1.000
v -44.0 -180.0 108.0 1.000 1.000 1.000
v 0.0 -179.0 108.0 1.000 1.000 1.000
v 144.0 1.0 23.0 1.000 1.000 1.000
v -139.0 -2.0 21.0 1.000 1.000 1.000
v -132.0 -71.0 -73.0 1.000 1.000 1.000
v -145.0 -48.0 14.0 1.000 1.000 1.000
v 95.0 8.0 -65.0 1.000 1.000 1.000
v 144.0 1.0 23.0 1.000 1.000 1.000
v 134.0 -72.0 -73.0 1.000 1.000 1.000
v -49.0 6.0 -65.0 1.000 1.000 1.000
v -1.0 7.0 -67.0 1.000 1.000 1.000
v -1.0 -66.0 -93.0 1.000 1.000 1.000
v -1.0 -184.0 -77.0 1.000 1.000 1.000
v -1.0 -230.0 92.0 1.000 1.000 1.000
v -22.0 -201.0 -26.0 1.000 1.000 1.000
v -1.0 -184.0 -77.0 1.000 1.000 1.000
v -1.0 -66.0 -93.0 1.000 1.000 1.000
v 33.0 -196.0 -86.0 1.000 1.000 1.000
v -132.0 -71.0 -73.0 1.000 1.000 1.000
v -34.0 -198.0 -85.0 1.000 1.000 1.000
v 23.0 -201.0 -26.0 1.000 1.000 1.000
v -1.0 -230.0 92.0 1.000 1.000 1.000
v -1.0 7.0 -67.0 1.000 1.000 1.000
v 45.0 7.0 -66.0 1.000 1.000 1.000
v -1.0 -66.0 -93.0 1.000 1.000 1.000
v 134.0 -72.0 -73.0 1.000 1.000 1.000
v 33.0 -196.0 -86.0 1.000 1.000 1.000
v 144.0 1.0 23.0 1.000 1.000 1.000
v 149.0 -48.0 13.0 1.000 1.000 1.000
v -49.0 6.0 -65.0 1.000 1.000 1.000
v -1.0 -66.0 -93.0 1.000 1.000 1.000
v -132.0 -71.0 -73.0 1.000 1.000 1.000
v -139.0 -2.0 21.0 1.000 1.000 1.000
v -100.0 6.0 -62.0 1.000 1.000 1.000
v 95.0 8.0 -65.0 1.000 1.000 1.000
v -1.0 -184.0 -77.0 1.000 1.000 1.000
v -22.0 -201.0 -26.0 1.000 1.000 1.000
v -34.0 -198.0 -85.0 1.000 1.000 1.000
v 33.0 -196.0 -86.0 1.000 1.000 1.000
v 23.0 -201.0 -26.0 1.000 1.000 1.000
v -1.0 -184.0 -77.0 1.000 1.000 1.000
v 144.0 1.0 23.0 1.000 1.000 1.000
v 72.0 -6.0 122.0 1.000 1.000 1.000
v 0.0 -11.0 128.0 1.000 1.000 1.000
v -75.0 -9.0 119.0 1.000 1.000 1.000
v -139.0 -2.0 21.0 1.000 1.000 1.000
v -139.0 -2.0 21.0 1.000 1.000 1.000
v -100.0 6.0 -62.0 1.000 1.000 1.000
v -49.0 6.0 -65.0 1.000 1.000 1.000
v 145.2295960187912 77.4203109741211 23.0 1.000 1.000 1.000
v 78.2295960187912 70.4203109741211 122.0 1.000 1.000 1.000
v -0.7704039812088013 66.4203109741211 128.0 1.000 1.000 1.000
v -75.7704039812088 67.4203109741211 119.0 1.000 1.000 1.000
v -136.7704039812088 74.4203109741211 21.0 1.000 1.000 1.000
v -136.7704039812088 74.4203109741211 21.0 1.000 1.000 1.000
v -100.7704039812088 81.4203109741211 -62.0 1.000 1.000 1.000
v -49.7704039812088 83.4203109741211 -68.0 1.000 1.000 1.000
v -49.0 6.0 -65.0 1.000 1.000 1.000
v -1.0 7.0 -67.0 1.000 1.000 1.000
v 45.0 7.0 -66.0 1.000 1.000 1.000
v 95.0 8.0 -65.0 1.000 1.000 1.000
v 144.0 1.0 23.0 1.000 1.000 1.000
v -49.7704039812088 83.4203109741211 -68.0 1.000 1.000 1.000
v -0.7704039812088013 82.4203109741211 -67.0 1.000 1.000 1.000
v 46.2295960187912 83.4203109741211 -68.0 1.000 1.000 1.000
v 99.2295960187912 83.4203109741211 -65.0 1.000 1.000 1.000
v 145.2295960187912 77.4203109741211 23.0 1.000 1.000 1.000
v -131.0 43.0 141.0 1.000 1.000 1.000
v -140.0 -232.0 120.0 1.000 1.000 1.000
v 137.0 -233.0 120.0 1.000 1.000 1.000
v -172.0 -233.0 -70.0 1.000 1.000 1.000
v -142.0 38.0 -35.0 1.000 1.000 1.000
v 138.0 39.0 -37.0 1.000 1.000 1.000
v 169.0 -234.0 -70.0 1.000 1.000 1.000
v 137.0 -233.0 120.0 1.000 1.000 1.000
v 135.0 44.0 141.0 1.000 1.000 1.000
v 135.0 44.0 141.0 1.000 1.000 1.000
v 135.0 44.0 141.0 1.000 1.000 1.000
v 138.0 39.0 -37.0 1.000 1.000 1.000
v -131.0 43.0 141.0 1.000 1.000 1.000
v 169.0 -234.0 -70.0 1.000 1.000 1.000
v -140.0 -232.0 120.0 1.000 1.000 1.000
vt 0.0690 0.9551
vt 0.0892 0.9551
vt 0.8118 0.9775
vt 0.8405 0.9785
vt 0.7708 0.7588
vt 0.3079 0.3662
vt 0.1204 0.3242
vt 0.8548 0.7725
vt 0.1178 0.3340
vt 0.2663 0.3311
vt 0.3841 0.3359
vt 0.2240 0.3750
vt 0.2920 0.8014
vt 0.3330 0.8483
vt 0.5371 0.8483
vt 0.1406 0.7988
vt 0.3574 0.8014
vt 0.3916 0.8398
vt 0.2764 0.8431
vt 0.6338 0.7995
vt 0.7754 0.7988
vt 0.5566 0.8359
vt 0.5049 0.8014
vt 0.6670 0.8424
vt 0.3359 1.0020
vt 0.3359 1.0000
vt 0.5840 0.9948
vt 0.4219 0.9954
vt 0.6064 0.9948
vt 0.6279 0.9941
vt 0.1963 0.5710
vt 0.3623 0.5703
vt 0.6035 0.5703
vt 0.7920 0.5645
vt 0.6328 0.5742
vt 0.3145 0.5742
vt 0.7188 1.0371
vt 0.5850 0.5299
vt 0.4736 1.0469
vt 0.1631 0.5273
vt 0.4814 0.5254
vt 0.5586 1.0410
vt 0.8535 0.5195
vt 0.7617 1.0358
vt 0.1758 0.2077
vt 0.1602 0.3691
vt 0.2363 0.2227
vt 0.2393 0.3809
vt 0.5605 0.2611
vt 0.5449 0.3789
vt 0.8418 0.2975
vt 0.8369 0.3503
vt 0.7549 0.1901
vt 0.7227 0.3574
vt 0.4248 0.1966
vt 0.4092 0.3561
vt 0.8057 0.1934
vt 0.8936 0.2207
vt 0.3447 0.0684
vt 0.5010 0.1204
vt 0.2900 0.0456
vt 0.7100 0.1725
vt 0.7715 0.1230
vt 0.5977 0.1289
vt 0.4736 0.1263
vt 0.1113 0.1328
vt 0.8893 0.9463
vt 0.1576 0.9316
vt 0.1348 0.9307
vt 0.9225 0.9473
vt 0.3145 0.3838
vt 0.8262 0.7461
vt 0.9134 0.7607
vt 0.1224 0.3525
vt 0.1191 0.3613
vt 0.3906 0.3613
vt 0.2826 0.3574
vt 0.2116 0.3916
vt 0.6055 0.8529
vt 0.4053 0.8535
vt 0.3594 0.8073
vt 0.4629 0.8451
vt 0.4248 0.8073
vt 0.2158 0.8053
vt 0.3486 0.8483
vt 0.6240 0.8411
vt 0.8389 0.8034
vt 0.7041 0.8047
vt 0.5742 0.8073
vt 0.7275 0.8470
vt 0.6719 1.0007
vt 0.4434 1.0052
vt 0.4395 1.0072
vt 0.5117 1.0020
vt 0.7188 1.0000
vt 0.6943 1.0007
vt 0.2480 0.5775
vt 0.4111 0.5762
vt 0.6455 0.5742
vt 0.8438 0.5703
vt 0.6709 0.5781
vt 0.3594 0.5794
vt 0.7451 1.0130
vt 0.5176 0.5716
vt 0.4863 1.0163
vt 0.6680 1.0117
vt 0.6357 0.5625
vt 1.0020 0.5495
vt 0.2070 0.5749
vt 0.4336 1.0169
vt 0.7764 0.1934
vt 0.7637 0.3626
vt 0.8730 0.3021
vt 0.8730 0.3548
vt 0.5811 0.2663
vt 0.5811 0.3841
vt 0.2568 0.2272
vt 0.2803 0.3867
vt 0.1895 0.2135
vt 0.1904 0.3757
vt 0.4414 0.2018
vt 0.4414 0.3620
vt 0.9258 0.2253
vt 0.8223 0.1979
vt 0.3379 0.0742
vt 0.5039 0.1230
vt 0.2734 0.0508
vt 0.7324 0.1771
vt 0.4150 0.2246
vt 0.2139 0.2279
vt 0.5576 0.2168
vt 0.9746 0.2057
vt 0.8906 0.5674
vt 0.8184 0.2051
vt 0.7422 0.3281
vt 0.4922 0.9277
vt 0.4844 0.5391
vt 0.3193 0.4902
vt 0.6348 0.4639
vt 0.0596 0.6416
vt 0.1172 0.2656
vt 0.1201 0.2871
vt 0.8145 0.2266
vt 0.7041 0.4023
vt 0.1768 0.3760
vt 0.2402 0.4395
vt -0.1953 0.8506
vt -0.0557 1.4834
vt -0.2480 1.5986
vt 0.8174 0.8408
vt 0.4492 1.4785
vt 0.7871 0.9717
vt 0.5791 1.5898
vt -0.2051 0.9863
vt 0.9590 -0.1299
vt 0.1523 -0.5674
vt -0.0166 -0.1484
vt 0.9326 -0.8115
vt 0.1123 0.4570
vt 0.7744 0.1240
vt 0.4580 0.8047
vt 0.7520 0.6836
vt 0.1641 0.9209
vt 0.1895 0.1504
vt 1.0352 0.9316
vt 0.8213 0.1426
vt 0.0908 0.8242
vt 0.5332 1.0078
vt 0.2393 1.0488
vt 0.0293 0.2334
vt 1.0166 0.2461
vt 0.8486 1.0146
vt 0.2217 1.1250
vt 0.7666 0.0615
vt 0.0762 0.4639
vt 0.7197 0.9473
vt 0.3154 0.6393
vt 0.5234 0.5931
vt 0.1836 0.5957
vt 0.3818 0.6406
vt 0.2568 0.6387
vt 0.1436 0.5957
vt 0.6182 0.6367
vt 0.4639 0.5970
vt 0.8799 0.5944
vt 0.6758 0.6413
vt 0.7207 0.6393
vt 0.8555 0.5938
vt 0.9186 0.0342
vt 0.2285 0.0537
vt 0.9277 0.1172
vt 0.2487 0.0723
vt 0.9134 0.3105
vt 0.2598 0.2510
vt 0.9180 0.4121
vt 0.2572 0.3408
vt 0.9160 0.3652
vt 0.2533 0.3154
vt 0.9128 0.0713
vt 0.2402 0.0361
vt 0.2070 0.4844
vt 0.4277 0.4857
vt 0.7666 0.4837
vt 0.7207 0.4831
vt 0.4727 0.4824
vt 0.2275 0.4844
vt 0.8936 0.5449
vt 0.1318 0.5449
vt 0.7461 0.9818
vt 0.6963 0.9811
vt 0.9141 0.5449
vt 0.2686 0.9805
vt 0.0371 0.5443
vt 0.3916 0.9818
vt 0.6660 0.3698
vt 0.8848 0.2611
vt 0.8828 0.2461
vt 0.4697 0.1615
vt 0.4453 0.3724
vt 0.3896 0.3730
vt 0.2891 0.0957
vt 0.5049 0.1413
vt 0.7559 0.3698
vt 0.2275 0.3704
vt 0.1982 0.3555
vt 2.6494 -2.8385
vt 2.6445 -1.3464
vt 2.7871 -2.8724
vt 0.9043 0.2617
vt 0.8096 0.0749
vt 0.8066 0.0482
vt 0.8193 0.1042
vt 0.6768 0.2038
vt 2.7930 -1.3294
vt 0.1787 0.1510
vt 0.8750 0.0540
vt 0.8926 0.0143
vt 0.0781 0.1439
vt 0.9561 -0.1689
vt 0.8008 -0.5107
vt 0.0215 -0.2061
vt 0.0566 -0.7471
vt 0.2793 1.0889
vt 0.5820 1.0195
vt 0.1504 0.3760
vt 0.7891 0.9717
vt 0.7109 0.1309
vt 0.6689 0.0332
vt 0.9414 0.9062
vt 0.1260 0.0996
vt 0.1182 0.8730
vt 0.5625 0.9717
vt 0.8252 0.9336
vt 0.9424 0.0918
vt 0.0498 0.1279
vt 0.2764 1.0137
vt 0.1211 0.5127
vt 0.7656 0.0723
vt 0.2100 1.1055
vt 0.6670 0.8916
vt 0.2705 0.6009
vt 0.5225 0.5938
vt 0.4297 0.6387
vt 0.2402 0.6016
vt 0.3291 0.6400
vt 0.4199 0.6400
vt 0.7422 0.5911
vt 0.4795 0.5983
vt 0.5908 0.6328
vt 0.6338 0.6367
vt 0.7852 0.5885
vt 0.6650 0.6341
vt 0.0768 -0.4268
vt 0.9023 -0.3555
vt 0.0820 0.0273
vt 0.8919 -0.8613
vt 0.0716 -0.9199
vt 0.7767 0.1494
vt 0.7832 0.3232
vt 0.0931 0.2783
vt 0.0931 0.0576
vt 0.7181 0.4805
vt 0.7266 0.1484
vt 0.0957 0.1055
vt 0.0853 0.3916
vt 0.6986 0.8633
vt 0.0697 0.8096
vt 1.0065 0.2178
vt 0.9759 0.4902
vt 0.0996 0.3047
vt 0.0957 0.0400
vt 0.9212 0.2852
vt 0.6670 0.4740
vt 0.4404 0.4863
vt 0.2744 0.4883
vt 0.2891 0.4876
vt 0.4736 0.4824
vt 0.7012 0.4779
vt 0.2930 0.9642
vt 0.8203 0.5833
vt 0.1162 0.5749
vt 0.0977 0.5749
vt 0.3389 0.9642
vt 0.9082 0.5827
vt 0.7344 0.9674
vt 0.6201 0.9674
vt 0.7871 0.2337
vt 0.8076 0.2480
vt 0.6045 0.3646
vt 0.4385 0.3704
vt 0.4727 0.1543
vt 0.4971 0.1335
vt 0.3389 0.0859
vt 0.3965 0.3717
vt 0.7168 0.3620
vt 0.2725 0.3711
vt 0.3955 0.3535
vt 0.7705 0.2344
vt 0.7207 0.0612
vt 0.7061 0.0293
vt 0.7344 0.0885
vt 0.7568 0.2266
vt 1.6396 0.1022
vt 0.3164 0.3392
vt 1.6582 0.1868
vt 0.2559 0.4121
vt 0.1191 0.0404
vt 0.1055 -0.0026
vt 0.7568 0.1549
vt 0.8506 0.1491
vt 0.9688 0.1686
vt 0.6504 0.1348
vt 0.6465 0.1094
vt 0.9648 0.2474
vt 0.5078 0.4551
vt 0.8457 0.4792
vt 0.1641 0.4824
vt 0.1133 0.7266
vt 0.3115 0.7090
vt 0.5107 0.2161
vt 0.3740 0.1120
vt 0.3867 0.1966
vt 0.3721 0.1361
vt 0.0479 0.1790
vt 0.5049 0.7070
vt 0.0439 0.2142
vt 0.7090 0.7064
vt 0.9668 0.2109
vt 0.9668 0.4395
vt 0.9170 0.7240
vt 0.0430 0.2533
vt 0.0439 0.4434
vt 0.6348 0.1934
vt 0.0508 0.4648
vt 0.6846 0.3216
vt 0.6689 0.5339
vt 0.7988 0.5391
vt 0.3291 0.3118
vt 0.6367 0.1055
vt 0.9658 0.3210
vt 0.9814 0.1035
vt 0.5010 0.5254
vt 0.0586 0.0794
vt 0.3906 0.0970
vt 0.3350 0.5247
vt 0.0586 0.2949
vt 0.2148 0.5215
vt 0.6562 0.0280
vt 0.3779 0.0208
vt 0.8936 0.5475
vt 0.0898 0.5267
vt 0.0498 0.2780
vt 0.8867 0.8340
vt 0.7100 0.8470
vt 0.5010 0.8568
vt 0.3027 0.8542
vt 0.1406 0.8424
vt 0.8623 0.6478
vt 0.7686 0.6335
vt 0.6309 0.6276
vt 0.5029 0.6250
vt 0.3789 0.6204
vt 0.2373 0.6172
vt 0.1162 0.6224
vt 0.9600 0.1960
vt 0.0107 0.1068
vt 0.0566 0.1921
vt 0.1660 0.9837
vt 0.8018 0.9915
vt 1.0117 0.1146
vt 0.1406 0.9948
vt 0.8086 1.0013
vt 0.0918 -0.0013
vt 0.2832 0.7741
vt 0.8535 0.7839
vt 0.9463 0.0150
vt 0.6025 0.2783
vt 0.3906 0.1084
vt 0.4072 -0.0068
vt 0.6992 0.4102
vt 0.9023 0.5254
vt 0.8936 0.4062
vt 0.9883 0.5156
vt 0.8125 0.4033
vt 0.9844 0.3994
vt 0.4688 0.2852
vt 0.8867 0.2754
vt 0.9756 0.2705
vt 0.5283 0.0059
vt 0.8594 0.0039
vt 0.2471 -0.0059
vt 0.2285 0.1055
vt 0.6885 0.0020
vt 0.9707 0.0059
vt 0.3594 0.0146
vt 0.3945 0.1611
vt 0.3340 0.1123
vt 0.5596 -0.0098
vt 0.3389 0.0000
vt 0.3613 0.1611
vt 0.7637 0.0000
vt 0.9824 0.0000
vt 0.9873 0.1533
vt 0.9941 0.4014
vt 1.0010 0.4961
vt 0.9033 0.4365
vt 0.9316 0.4180
vt 0.9648 0.1592
vt 0.7734 0.4414
vt 0.8496 0.4287
vt 0.8193 0.4531
vt 0.9160 0.5166
vt 0.9854 0.0000
vt 0.7773 -0.0049
vt 0.3018 0.1074
vt 0.5352 0.0000
vt 0.8828 0.9733
vt 0.6924 0.9876
vt 0.5010 0.9974
vt 0.3018 0.9948
vt 0.1338 0.9824
vt 0.8643 0.7695
vt 0.7617 0.7552
vt 0.6279 0.7507
vt 0.5000 0.7461
vt 0.3770 0.7422
vt 0.2461 0.7376
vt 0.1152 0.7441
vt 0.2578 0.0000
vt 0.2324 0.9727
vt 1.7070 0.9648
vt 0.0596 0.9756
vt 0.2031 0.0195
vt 1.6914 0.0049
vt 1.8779 0.9678
vt 1.6748 -0.0107
vn -0.577 -0.577 -0.577
vn -0.577 -0.577 -0.577
vn -0.577 -0.577 -0.577
vn -0.577 -0.577 -0.577
vn -0.577 -0.577 -0.577
vn -0.577 -0.577 -0.577
vn -0.577 -0.577 -0.577
vn -0.577 -0.577 -0.577
vn -0.577 -0.577 -0.577
vn -0.577 -0.577 -0.577
vn -0.577 -0.577 -0.577
vn -0.577 -0.577 -0.577
vn 0.577 0.577 0.577
vn 0.577 0.577 0.577
vn 0.577 0.577 0.577
vn 0.577 0.577 0.577
vn 0.577 0.577 0.577
vn 0.577 0.577 0.577
vn 0.577 0.577 0.577
vn 0.577 0.577 0.577
vn 0.577 0.577 0.577
vn 0.577 0.577 0.577
vn 0.577 0.577 0.577
vn 0.577 0.577 0.577
vn 0.577 0.577 0.577
vn 0.577 0.577 0.577
vn -0.577 -0.577 -0.577
vn 0.577 0.577 0.577
vn -0.577 -0.577 -0.577
vn 0.577 0.577 0.577
vn -0.577 -0.577 -0.577
vn 0.577 0.577 0.577
vn 0.577 0.577 0.577
vn -0.577 -0.577 -0.577
vn -0.577 -0.577 -0.577
vn -0.577 -0.577 -0.577
vn 0.577 0.577 0.577
vn -0.577 -0.577 -0.577
vn 0.577 0.577 0.577
vn 0.577 0.577 0.577
vn -0.577 -0.577 -0.577
vn -0.577 -0.577 -0.577
vn 0.577 0.577 0.577
vn 0.577 0.577 0.577
vn 0.577 0.577 0.577
vn 0.577 0.577 0.577
vn 0.577 0.577 0.577
vn 0.577 0.577 0.577
vn -0.577 -0.577 -0.577
vn -0.577 -0.577 -0.577
vn -0.577 -0.577 -0.577
vn 0.577 0.577 0.577
vn 0.577 0.577 0.577
vn -0.577 -0.577 -0.577
vn -0.577 -0.577 -0.577
vn -0.577 -0.577 -0.577
vn -0.577 -0.577 -0.577
vn -0.577 -0.577 -0.577
vn 0.577 0.577 0.577
vn 0.577 0.577 0.577
vn 0.577 0.577 0.577
vn 0.577 0.577 0.577
vn -0.577 -0.577 -0.577
vn -0.577 -0.577 -0.577
vn 0.577 0.577 0.577
vn 0.577 0.577 0.577
vn 0.577 0.577 0.577
vn 0.577 0.577 0.577
vn -0.577 -0.577 -0.577
vn 0.577 0.577 0.577
vn 0.577 0.577 0.577
vn 0.577 0.577 0.577
vn -0.577 -0.577 -0.577
vn -0.577 -0.577 -0.577
vn 0.577 0.577 0.577
vn 0.577 0.577 0.577
vn 0.577 0.577 0.577
vn 0.577 0.577 0.577
vn -0.577 -0.577 -0.577
vn 0.577 0.577 0.577
vn 0.577 0.577 0.577
vn -0.577 -0.577 -0.577
vn 0.577 0.577 0.577
vn 0.577 0.577 0.577
vn 0.577 0.577 0.577
vn 0.577 0.577 0.577
vn 0.577 0.577 0.577
vn -0.577 -0.577 -0.577
vn 0.577 0.577 0.577
vn 0.577 0.577 0.577
vn -0.577 -0.577 -0.577
vn 0.577 0.577 0.577
vn 0.577 0.577 0.577
vn -0.577 -0.577 -0.577
vn -0.577 -0.577 -0.577
vn -0.577 -0.577 -0.577
vn -0.577 -0.577 -0.577
vn -0.577 -0.577 -0.577
vn -0.577 -0.577 -0.577
vn -0.577 -0.577 -0.577
vn 0.577 0.577 0.577
vn 0.577 0.577 0.577
vn 0.577 0.577 0.577
vn -0.577 -0.577 -0.577
vn -0.577 -0.577 -0.577
vn -0.577 -0.577 -0.577
vn -0.577 -0.577 -0.577
vn -0.577 -0.577 -0.577
vn -0.577 -0.577 -0.577
vn -0.577 -0.577 -0.577
vn -0.577 -0.577 -0.577
vn -0.577 -0.577 -0.577
vn -0.577 -0.577 -0.577
vn -0.577 -0.577 -0.577
vn -0.577 -0.577 -0.577
vn -0.577 -0.577 -0.577
vn -0.577 -0.577 -0.577
vn -0.577 -0.577 -0.577
vn -0.577 -0.577 -0.577
vn -0.577 -0.577 -0.577
vn -0.577 -0.577 -0.577
vn 0.577 0.577 0.577
vn 0.577 0.577 0.577
vn 0.577 0.577 0.577
vn 0.577 0.577 0.577
vn 0.577 0.577 0.577
vn 0.577 0.577 0.577
vn 0.577 0.577 0.577
vn 0.577 0.577 0.577
vn 0.577 0.577 0.577
vn 0.577 0.577 0.577
vn 0.577 0.577 0.577
vn 0.577 0.577 0.577
vn 0.577 0.577 0.577
vn -0.577 -0.577 -0.577
vn 0.577 0.577 0.577
vn -0.577 -0.577 -0.577
vn 0.577 0.577 0.577
vn 0.577 0.577 0.577
vn -0.577 -0.577 -0.577
vn 0.577 0.577 0.577
vn -0.577 -0.577 -0.577
vn 0.577 0.577 0.577
vn -0.577 -0.577 -0.577
vn -0.577 -0.577 -0.577
vn -0.577 -0.577 -0.577
vn -0.577 -0.577 -0.577
vn 0.577 0.577 0.577
vn 0.577 0.577 0.577
vn -0.577 -0.577 -0.577
vn -0.577 -0.577 -0.577
vn 0.577 0.577 0.577
vn 0.577 0.577 0.577
vn 0.577 0.577 0.577
vn 0.577 0.577 0.577
vn 0.577 0.577 0.577
vn 0.577 0.577 0.577
vn -0.577 -0.577 -0.577
vn -0.577 -0.577 -0.577
vn -0.577 -0.577 -0.577
vn -0.577 -0.577 -0.577
vn 0.577 0.577 0.577
vn 0.577 0.577 0.577
vn -0.577 -0.577 -0.577
vn -0.577 -0.577 -0.577
vn -0.577 -0.577 -0.577
vn -0.577 -0.577 -0.577
vn 0.577 0.577 0.577
vn 0.577 0.577 0.577
vn 0.577 0.577 0.577
vn 0.577 0.577 0.577
vn -0.577 -0.577 -0.577
vn -0.577 -0.577 -0.577
vn -0.577 -0.577 -0.577
vn -0.577 -0.577 -0.577
vn 0.577 0.577 0.577
vn -0.577 -0.577 -0.577
vn -0.577 -0.577 -0.577
vn 0.577 0.577 0.577
vn 0.577 0.577 0.577
vn 0.577 0.577 0.577
vn 0.577 0.577 0.577
vn 0.577 0.577 0.577
vn -0.577 -0.577 -0.577
vn -0.577 -0.577 -0.577
vn 0.577 0.577 0.577
vn 0.577 0.577 0.577
vn 0.577 0.577 0.577
vn 0.577 0.577 0.577
vn -0.577 -0.577 -0.577
vn 0.577 0.577 0.577
vn -0.577 -0.577 -0.577
vn -0.577 -0.577 -0.577
vn -0.577 -0.577 -0.577
vn 0.577 0.577 0.577
vn -0.577 -0.577 -0.577
vn 0.577 0.577 0.577
vn 0.577 0.577 0.577
vn 0.577 0.577 0.577
vn -0.577 -0.577 -0.577
vn -0.577 -0.577 -0.577
vn -0.577 -0.577 -0.577
vn -0.577 -0.577 -0.577
vn 0.577 0.577 0.577
vn 0.577 0.577 0.577
vn -0.577 -0.577 -0.577
vn -0.577 -0.577 -0.577
vn -0.577 -0.577 -0.577
vn -0.577 -0.577 -0.577
vn -0.577 -0.577 -0.577
vn -0.577 -0.577 -0.577
vn -0.577 -0.577 -0.577
vn 0.577 0.577 0.577
vn 0.577 0.577 0.577
vn 0.577 0.577 0.577
vn -0.577 -0.577 -0.577
vn -0.577 -0.577 -0.577
vn -0.577 -0.577 -0.577
vn -0.577 -0.577 -0.577
vn -0.577 -0.577 -0.577
vn -0.577 -0.577 -0.577
vn -0.577 -0.577 -0.577
vn -0.577 -0.577 -0.577
vn -0.577 -0.577 -0.577
vn -0.577 -0.577 -0.577
vn -0.577 -0.577 -0.577
vn -0.577 -0.577 -0.577
vn -0.577 -0.577 -0.577
vn -0.577 -0.577 -0.577
vn -0.577 -0.577 -0.577
vn -0.577 -0.577 -0.577
vn -0.577 -0.577 -0.577
vn -0.577 -0.577 -0.577
vn -0.577 -0.577 -0.577
vn -0.577 -0.577 -0.577
vn -0.577 -0.577 -0.577
vn -0.577 -0.577 -0.577
vn -0.577 -0.577 -0.577
vn -0.577 -0.577 -0.577
vn -0.577 -0.577 -0.577
vn -0.577 -0.577 -0.577
vn -0.577 -0.577 -0.577
vn -0.577 -0.577 -0.577
vn -0.577 -0.577 -0.577
vn -0.577 -0.577 -0.577
vn -0.577 -0.577 -0.577
vn -0.577 -0.577 -0.577
vn -0.577 -0.577 -0.577
vn -0.577 -0.577 -0.577
vn -0.577 -0.577 -0.577
vn -0.577 -0.577 -0.577
vn -0.577 -0.577 -0.577
vn -0.577 -0.577 -0.577
vn -0.577 -0.577 -0.577
vn -0.577 -0.577 -0.577
vn -0.577 -0.577 -0.577
vn -0.577 -0.577 -0.577
vn -0.577 -0.577 -0.577
vn -0.577 -0.577 -0.577
vn -0.577 -0.577 -0.577
vn -0.577 -0.577 -0.577
vn -0.577 -0.577 -0.577
vn -0.577 -0.577 -0.577
vn -0.577 -0.577 -0.577
vn -0.577 -0.577 -0.577
vn -0.577 -0.577 -0.577
vn -0.577 -0.577 -0.577
vn -0.577 -0.577 -0.577
vn -0.577 -0.577 -0.577
vn -0.577 -0.577 -0.577
vn -0.577 -0.577 -0.577
vn -0.577 -0.577 -0.577
vn -0.577 -0.577 -0.577
vn -0.577 -0.577 -0.577
vn -0.577 -0.577 -0.577
vn 0.577 0.577 0.577
vn 0.577 0.577 0.577
vn 0.577 0.577 0.577
vn 0.577 0.577 0.577
vn -0.577 -0.577 -0.577
vn -0.577 -0.577 -0.577
vn -0.577 -0.577 -0.577
vn -0.577 -0.577 -0.577
vn -0.577 -0.577 -0.577
vn -0.577 -0.577 -0.577
vn -0.577 -0.577 -0.577
vn -0.577 -0.577 -0.577
vn -0.577 -0.577 -0.577
vn -0.577 -0.577 -0.577
vn -0.577 -0.577 -0.577
vn -0.577 -0.577 -0.577
vn -0.577 -0.577 -0.577
vn -0.577 -0.577 -0.577
vn 0.577 0.577 0.577
vn 0.577 0.577 0.577
vn -0.577 -0.577 -0.577
vn -0.577 -0.577 -0.577
vn -0.577 -0.577 -0.577
vn -0.577 -0.577 -0.577
vn 0.577 0.577 0.577
vn 0.577 0.577 0.577
vn -0.577 -0.577 -0.577
vn -0.577 -0.577 -0.577
vn -0.577 -0.577 -0.577
vn -0.577 -0.577 -0.577
vn -0.577 -0.577 -0.577
vn -0.577 -0.577 -0.577
vn -0.577 -0.577 -0.577
vn -0.577 -0.577 -0.577
vn -0.577 -0.577 -0.577
vn -0.577 -0.577 -0.577
vn -0.577 -0.577 -0.577
vn 0.577 0.577 0.577
vn 0.577 0.577 0.577
vn -0.577 -0.577 -0.577
vn -0.577 -0.577 -0.577
vn -0.577 -0.577 -0.577
vn -0.577 -0.577 -0.577
vn -0.577 -0.577 -0.577
vn 0.577 0.577 0.577
vn -0.577 -0.577 -0.577
vn -0.577 -0.577 -0.577
vn 0.577 0.577 0.577
vn 0.577 0.577 0.577
vn 0.577 0.577 0.577
vn -0.577 -0.577 -0.577
vn -0.577 -0.577 -0.577
vn -0.577 -0.577 -0.577
vn 0.577 0.577 0.577
vn 0.577 0.577 0.577
vn -0.577 -0.577 -0.577
vn 0.577 0.577 0.577
vn -0.577 -0.577 -0.577
vn -0.577 -0.577 -0.577
vn 0.577 0.577 0.577
vn 0.577 0.577 0.577
vn -0.577 -0.577 -0.577
vn -0.577 -0.577 -0.577
vn 0.577 0.577 0.577
vn -0.577 -0.577 -0.577
vn -0.577 -0.577 -0.577
vn -0.577 -0.577 -0.577
vn -0.577 -0.577 -0.577
vn -0.577 -0.577 -0.577
vn 0.577 0.577 0.577
vn 0.577 0.577 0.577
vn -0.577 -0.577 -0.577
vn -0.577 -0.577 -0.577
vn -0.577 -0.577 -0.577
vn -0.577 -0.577 -0.577
vn -0.577 -0.577 -0.577
vn -0.577 -0.577 -0.577
vn -0.577 -0.577 -0.577
vn -0.577 -0.577 -0.577
vn -0.577 -0.577 -0.577
vn -0.577 -0.577 -0.577
vn -0.577 -0.577 -0.577
vn -0.577 -0.577 -0.577
vn -0.577 -0.577 -0.577
vn -0.577 -0.577 -0.577
vn -0.577 -0.577 -0.577
vn -0.577 -0.577 -0.577
vn -0.577 -0.577 -0.577
vn -0.577 -0.577 -0.577
vn -0.577 -0.577 -0.577
vn -0.577 -0.577 -0.577
vn -0.577 -0.577 -0.577
vn -0.577 -0.577 -0.577
vn -0.577 -0.577 -0.577
vn -0.577 -0.577 -0.577
vn -0.577 -0.577 -0.577
vn -0.577 -0.577 -0.577
vn -0.577 -0.577 -0.577
vn -0.577 -0.577 -0.577
vn -0.577 -0.577 -0.577
vn -0.577 -0.577 -0.577
vn -0.577 -0.577 -0.577
vn -0.577 -0.577 -0.577
vn -0.577 -0.577 -0.577
vn -0.577 -0.577 -0.577
vn -0.577 -0.577 -0.577
vn -0.577 -0.577 -0.577
vn -0.577 -0.577 -0.577
vn -0.577 -0.577 -0.577
vn -0.577 -0.577 -0.577
vn -0.577 -0.577 -0.577
vn -0.577 -0.577 -0.577
vn -0.577 -0.577 -0.577
vn -0.577 -0.577 -0.577
vn -0.577 -0.577 -0.577
vn 0.577 0.577 0.577
vn -0.577 -0.577 -0.577
vn -0.577 -0.577 -0.577
vn 0.577 0.577 0.577
vn -0.577 -0.577 -0.577
vn -0.577 -0.577 -0.577
vn -0.577 -0.577 -0.577
vn -0.577 -0.577 -0.577
vn -0.577 -0.577 -0.577
vn -0.577 -0.577 -0.577
vn -0.577 -0.577 -0.577
vn -0.577 -0.577 -0.577
vn -0.577 -0.577 -0.577
vn -0.577 -0.577 -0.577
vn -0.577 -0.577 -0.577
vn -0.577 -0.577 -0.577
vn -0.577 -0.577 -0.577
vn -0.577 -0.577 -0.577
vn -0.577 -0.577 -0.577
vn -0.577 -0.577 -0.577
vn -0.577 -0.577 -0.577
vn -0.577 -0.577 -0.577
vn -0.577 -0.577 -0.577
vn -0.577 -0.577 -0.577
vn -0.577 -0.577 -0.577
vn -0.577 -0.577 -0.577
vn 0.577 0.577 0.577
vn -0.577 -0.577 -0.577
vn -0.577 -0.577 -0.577
vn -0.577 -0.577 -0.577
vn -0.577 -0.577 -0.577
vn 0.577 0.577 0.577
vn -0.577 -0.577 -0.577
vn -0.577 -0.577 -0.577
vn -0.577 -0.577 -0.577
vn -0.577 -0.577 -0.577
vn -0.577 -0.577 -0.577
vn -0.577 -0.577 -0.577
vn -0.577 -0.577 -0.577
vn -0.577 -0.577 -0.577
vn -0.577 -0.577 -0.577
vn -0.577 -0.577 -0.577
vn -0.577 -0.577 -0.577
vn -0.577 -0.577 -0.577
vn -0.577 -0.577 -0.577
vn -0.577 -0.577 -0.577
vn 0.577 0.577 0.577
vn 0.577 0.577 0.577
vn -0.577 -0.577 -0.577
vn -0.577 -0.577 -0.577
vn -0.577 -0.577 -0.577
vn -0.577 -0.577 -0.577
vn -0.577 -0.577 -0.577
vn -0.577 -0.577 -0.577
vn 0.577 0.577 0.577
vn -0.577 -0.577 -0.577
vn -0.577 -0.577 -0.577
vn 0.577 0.577 0.577
vn -0.577 -0.577 -0.577
vn -0.577 -0.577 -0.577
vn -0.577 -0.577 -0.577
vn 0.577 0.577 0.577
vn 0.577 0.577 0.577
vn 0.577 0.577 0.577
vn -0.577 -0.577 -0.577
vn 0.577 0.577 0.577
vn -0.577 -0.577 -0.577
vn -0.577 -0.577 -0.577
vn 0.577 0.577 0.577
vn 0.577 0.577 0.577
vn 0.577 0.577 0.577
vn -0.577 -0.577 -0.577
vn -0.577 -0.577 -0.577
vn 0.577 0.577 0.577
vn -0.577 -0.577 -0.577
vn -0.577 -0.577 -0.577
vn -0.577 -0.577 -0.577
vn -0.577 -0.577 -0.577
vn -0.577 -0.577 -0.577
vn 0.577 0.577 0.577
vn 0.577 0.577 0.577
vn -0.577 -0.577 -0.577
vn -0.577 -0.577 -0.577
vn -0.577 -0.577 -0.577
vn -0.577 -0.577 -0.577
vn -0.577 -0.577 -0.577
vn -0.577 -0.577 -0.577
vn -0.577 -0.577 -0.577
vn -0.577 -0.577 -0.577
vn -0.577 -0.577 -0.577
vn -0.577 -0.577 -0.577
vn -0.577 -0.577 -0.577
vn -0.577 -0.577 -0.577
vn -0.577 -0.577 -0.577
vn -0.577 -0.577 -0.577
vn -0.577 -0.577 -0.577
vn -0.577 -0.577 -0.577
vn -0.577 -0.577 -0.577
vn -0.577 -0.577 -0.577
vn -0.577 -0.577 -0.577
vn 0.577 0.577 0.577
vn -0.577 -0.577 -0.577
vn -0.577 -0.577 -0.577
vn -0.577 -0.577 -0.577
vn -0.577 -0.577 -0.577
vn -0.577 -0.577 -0.577
vn -0.577 -0.577 -0.577
vn -0.577 -0.577 -0.577
vn -0.577 -0.577 -0.577
vn -0.577 -0.577 -0.577
vn -0.577 -0.577 -0.577
vn -0.577 -0.577 -0.577
vn -0.577 -0.577 -0.577
vn -0.577 -0.577 -0.577
vn -0.577 -0.577 -0.577
vn 0.577 0.577 0.577
vn -0.577 -0.577 -0.577
vn -0.577 -0.577 -0.577
vn 0.577 0.577 0.577
vn -0.577 -0.577 -0.577
vn -0.577 -0.577 -0.577
vn -0.577 -0.577 -0.577
vn 0.577 0.577 0.577
vn 0.577 0.577 0.577
vn -0.577 -0.577 -0.577
vn -0.577 -0.577 -0.577
vn -0.577 -0.577 -0.577
vn -0.577 -0.577 -0.577
vn -0.577 -0.577 -0.577
vn -0.577 -0.577 -0.577
vn -0.577 -0.577 -0.577
vn -0.577 -0.577 -0.577
vn -0.577 -0.577 -0.577
vn -0.577 -0.577 -0.577
vn -0.577 -0.577 -0.577
vn -0.577 -0.577 -0.577
vn 0.577 0.577 0.577
vn 0.577 0.577 0.577
vn 0.577 0.577 0.577
vn -0.577 -0.577 -0.577
vn -0.577 -0.577 -0.577
vn -0.577 -0.577 -0.577
vn -0.577 -0.577 -0.577
vn -0.577 -0.577 -0.577
vn 0.577 0.577 0.577
vn -0.577 -0.577 -0.577
vn -0.577 -0.577 -0.577
vn -0.577 -0.577 -0.577
vn -0.577 -0.577 -0.577
vn -0.577 -0.577 -0.577
vn 0.577 0.577 0.577
vn -0.577 -0.577 -0.577
vn -0.577 -0.577 -0.577
vn -0.577 -0.577 -0.577
vn 0.577 0.577 0.577
vn -0.577 -0.577 -0.577
vn 0.577 0.577 0.577
vn 0.577 0.577 0.577
vn -0.577 -0.577 -0.577
vn -0.577 -0.577 -0.577
vn -0.577 -0.577 -0.577
vn 0.577 0.577 0.577
vn -0.577 -0.577 -0.577
vn -0.577 -0.577 -0.577
vn -0.577 -0.577 -0.577
vn -0.577 -0.577 -0.577
vn -0.577 -0.577 -0.577
vn 0.577 0.577 0.577
vn 0.577 0.577 0.577
vn -0.577 -0.577 -0.577
vn 0.577 0.577 0.577
vn 0.577 0.577 0.577
vn 0.577 0.577 0.577
vn -0.577 -0.577 -0.577
vn -0.577 -0.577 -0.577
vn 0.577 0.577 0.577
vn -0.577 -0.577 -0.577
vn -0.577 -0.577 -0.577
vn -0.577 -0.577 -0.577
vn 0.577 0.577 0.577
vn 0.577 0.577 0.577
vn -0.577 -0.577 -0.577
vn -0.577 -0.577 -0.577
vn -0.577 -0.577 -0.577
vn -0.577 -0.577 -0.577
vn -0.577 -0.577 -0.577
vn -0.577 -0.577 -0.577
vn 0.577 0.577 0.577
vn -0.577 -0.577 -0.577
vn -0.577 -0.577 -0.577
vn -0.577 -0.577 -0.577
vn -0.577 -0.577 -0.577
vn 0.577 0.577 0.577
vn -0.577 -0.577 -0.577
vn -0.577 -0.577 -0.577
vn -0.577 -0.577 -0.577
vn -0.577 -0.577 -0.577
vn -0.577 -0.577 -0.577
vn -0.577 -0.577 -0.577
vn -0.577 -0.577 -0.577
vn -0.577 -0.577 -0.577
vn -0.577 -0.577 -0.577
vn -0.577 -0.577 -0.577
vn -0.577 -0.577 -0.577
vn -0.577 -0.577 -0.577
vn -0.577 -0.577 -0.577
vn -0.577 -0.577 -0.577
vn -0.577 -0.577 -0.577
vn -0.577 -0.577 -0.577
vn -0.577 -0.577 -0.577
vn -0.577 -0.577 -0.577
vn -0.577 -0.577 -0.577
vn -0.577 -0.577 -0.577
vn -0.577 -0.577 -0.577
vn -0.577 -0.577 -0.577
vn -0.577 -0.577 -0.577
vn -0.577 -0.577 -0.577
vn 0.577 0.577 0.577
vn 0.577 0.577 0.577
vn 0.577 0.577 0.577
vn 0.577 0.577 0.577
vn 0.577 0.577 0.577
vn 0.577 0.577 0.577
vn 0.577 0.577 0.577
vn 0.577 0.577 0.577
vn -0.577 -0.577 -0.577
vn -0.577 -0.577 -0.577
vn -0.577 -0.577 -0.577
vn 0.577 0.577 0.577
vn -0.577 -0.577 -0.577
vn 0.577 0.577 0.577
vn 0.577 0.577 0.577
vn -0.577 -0.577 -0.577
vn 0.577 0.577 0.577
vn -0.577 -0.577 -0.577
vn -0.577 -0.577 -0.577
vn -0.577 -0.577 -0.577
vn -0.577 -0.577 -0.577
vn -0.577 -0.577 -0.577
vn 0.577 0.577 0.577
vn 0.577 0.577 0.577
vn 0.577 0.577 0.577
vn 0.577 0.577 0.577
vn 0.577 0.577 0.577
vn 0.577 0.577 0.577
vn -0.577 -0.577 -0.577
vn 0.577 0.577 0.577
vn -0.577 -0.577 -0.577
vn 0.577 0.577 0.577
vn -0.577 -0.577 -0.577
vn 0.577 0.577 0.577
vn 0.577 0.577 0.577
vn 0.577 0.577 0.577
vn 0.577 0.577 0.577
vn 0.577 0.577 0.577
vn 0.577 0.577 0.577
vn 0.577 0.577 0.577
vn 0.577 0.577 0.577
vn 0.577 0.577 0.577
vn -0.577 -0.577 -0.577
vn 0.577 0.577 0.577
vn 0.577 0.577 0.577
vn 0.577 0.577 0.577
vn 0.577 0.577 0.577
vn 0.577 0.577 0.577
vn 0.577 0.577 0.577
vn -0.577 -0.577 -0.577
vn 0.577 0.577 0.577
vn 0.577 0.577 0.577
vn 0.577 0.577 0.577
vn 0.577 0.577 0.577
vn 0.577 0.577 0.577
vn -0.577 -0.577 -0.577
vn 0.577 0.577 0.577
vn 0.577 0.577 0.577
vn -0.577 -0.577 -0.577
vn 0.577 0.577 0.577
vn 0.577 0.577 0.577
vn 0.577 0.577 0.577
vn 0.577 0.577 0.577
vn 0.577 0.577 0.577
vn 0.577 0.577 0.577
vn 0.577 0.577 0.577
vn 0.577 0.577 0.577
vn -0.577 -0.577 -0.577
vn 0.577 0.577 0.577
vn 0.577 0.577 0.577
vn 0.577 0.577 0.577
vn 0.577 0.577 0.577
vn 0.577 0.577 0.577
vn 0.577 0.577 0.577
vn 0.577 0.577 0.577
vn -0.577 -0.577 -0.577
vn 0.577 0.577 0.577
vn 0.577 0.577 0.577
vn 0.577 0.577 0.577
vn -0.577 -0.577 -0.577
vn -0.577 -0.577 -0.577
vn 0.577 0.577 0.577
vn 0.577 0.577 0.577
vn 0.577 0.577 0.577
vn -0.577 -0.577 -0.577
vn 0.577 0.577 0.577
vn -0.577 -0.577 -0.577
vn -0.577 -0.577 -0.577
vn -0.577 -0.577 -0.577
vn -0.577 -0.577 -0.577
vn 0.577 0.577 0.577
vn -0.577 -0.577 -0.577
vn -0.577 -0.577 -0.577
vn -0.577 -0.577 -0.577
vn 0.577 0.577 0.577
vn -0.577 -0.577 -0.577
vn -0.577 -0.577 -0.577
vn -0.577 -0.577 -0.577
vn -0.577 -0.577 -0.577
vn -0.577 -0.577 -0.577
vn -0.577 -0.577 -0.577
vn -0.577 -0.577 -0.577
vn -0.577 -0.577 -0.577
vn -0.577 -0.577 -0.577
vn 0.577 0.577 0.577
vn -0.577 -0.577 -0.577
usemtl tex_1650_lit_w11
f 1/1/1 2/2/2 3/3/3
f 3/3/3 2/2/2 4/4/4
f 3/3/3 5/5/5 6/6/6
f 7/7/7 8/8/8 4/4/4
f 5/5/5 3/3/3 8/8/8
f 8/8/8 3/3/3 4/4/4
f 1/1/1 9/9/9 7/7/7
f 2/2/2 1/1/1 7/7/7
f 10/10/10 11/11/11 8/8/8
f 1/1/1 6/6/6 12/12/12
f 8/8/8 11/11/11 6/6/6
f 3/3/3 6/6/6 1/1/1
f 7/7/7 4/4/4 2/2/2
f 5/5/5 8/8/8 6/6/6
f 7/7/7 10/10/10 8/8/8
f 1/1/1 12/12/12 9/9/9
usemtl tex_1649_lit_w11
f 13/13/13 14/14/14 15/15/15
f 16/16/16 17/17/17 18/18/18
f 16/16/16 18/18/18 19/19/19
f 20/20/20 21/21/21 22/22/22
f 21/21/21 23/23/23 15/15/15
f 16/16/16 19/19/19 14/14/14
f 13/13/13 16/16/16 14/14/14
f 21/21/21 24/24/24 22/22/22
f 17/17/17 20/20/20 18/18/18
f 23/23/23 13/13/13 15/15/15
f 21/21/21 15/15/15 24/24/24
f 20/20/20 22/22/22 18/18/18
f 25/18/25 35/25/35 26/19/26
f 26/19/26 35/25/35 27/26/27
f 26/19/26 27/26/27 28/14/28
f 28/14/28 27/26/27 29/27/29
f 28/14/28 29/27/29 30/15/30
f 25/18/25 31/28/31 35/25/35
f 30/15/30 29/27/29 32/24/32
f 32/24/32 29/27/29 36/29/36
f 32/24/32 36/29/36 33/22/33
f 33/22/33 36/29/36 34/30/34
f 33/22/33 34/30/34 25/18/25
f 25/18/25 34/30/34 31/28/31
f 43/13/43 37/31/37 44/16/44
f 44/16/44 37/31/37 38/32/38
f 44/16/44 38/32/38 45/17/45
f 45/17/45 38/32/38 39/33/39
f 45/17/45 39/33/39 46/20/46
f 46/20/46 39/33/39 40/34/40
f 46/20/46 40/34/40 47/21/47
f 47/21/47 40/34/40 41/35/41
f 47/21/47 41/35/41 48/23/48
f 48/23/48 41/35/41 42/36/42
f 48/23/48 42/36/42 43/13/43
f 43/13/43 42/36/42 37/31/37
f 49/37/49 50/38/50 51/39/51
f 52/40/52 53/41/53 54/42/54
f 49/37/49 55/43/55 50/38/50
f 51/39/51 50/38/50 52/40/52
f 54/42/54 53/41/53 56/44/56
f 56/44/56 53/41/53 55/43/55
f 56/44/56 55/43/55 49/37/49
f 51/39/51 52/40/52 54/42/54
f 54/42/54 56/44/56 49/37/49
f 54/42/54 49/37/49 51/39/51
f 53/41/53 52/40/52 57/38/57
f 53/41/53 57/38/57 58/43/58
f 59/45/59 60/46/60 61/47/61
f 61/47/61 60/46/60 62/48/62
f 61/47/61 62/48/62 63/49/63
f 63/49/63 62/48/62 64/50/64
f 63/49/63 64/50/64 65/51/65
f 65/51/65 64/50/64 66/52/66
f 65/51/65 66/52/66 67/53/67
f 67/53/67 66/52/66 68/54/68
f 67/53/67 68/54/68 69/55/69
f 69/55/69 68/54/68 70/56/70
f 69/55/69 70/56/70 59/45/59
f 59/45/59 70/56/70 60/46/60
f 78/51/78 71/57/71 72/58/72
f 73/59/73 79/55/79 80/45/80
f 81/47/81 82/49/82 74/60/74
f 75/61/75 73/59/73 80/45/80
f 81/47/81 74/60/74 75/61/75
f 80/45/80 81/47/81 75/61/75
f 73/59/73 76/53/76 79/55/79
f 74/60/74 82/49/82 77/62/77
f 78/51/78 76/53/76 71/57/71
f 72/58/72 77/62/77 82/49/82
f 78/51/78 72/58/72 82/49/82
f 79/55/79 76/53/76 83/53/83
f 76/53/76 78/51/78 83/53/83
f 90/31/90 84/46/84 91/32/91
f 91/32/91 84/46/84 85/56/85
f 91/32/91 85/56/85 92/33/92
f 92/33/92 85/56/85 86/54/86
f 92/33/92 86/54/86 93/34/93
f 93/34/93 86/54/86 87/52/87
f 93/34/93 87/52/87 94/35/94
f 94/35/94 87/52/87 88/50/88
f 94/35/94 88/50/88 95/36/95
f 95/36/95 88/50/88 89/48/89
f 95/36/95 89/48/89 90/31/90
f 90/31/90 89/48/89 84/46/84
f 96/38/96 97/63/97 98/64/98
f 99/65/99 97/63/97 100/43/100
f 101/41/101 102/40/102 103/66/103
f 99/65/99 100/43/100 101/41/101
f 102/40/102 96/38/96 98/64/98
f 96/38/96 100/43/100 97/63/97
f 102/40/102 98/64/98 103/66/103
f 99/65/99 101/41/101 103/66/103
f 104/66/104 105/64/105 106/63/106
f 104/66/104 106/63/106 107/65/107
f 108/38/108 102/40/102 101/41/101
f 108/38/108 101/41/101 109/43/109
usemtl tex_1650_lit_w11
f 110/67/110 111/68/111 112/69/112
f 113/70/113 111/68/111 110/67/110
f 114/71/114 115/72/115 110/67/110
f 113/70/113 116/73/116 117/74/117
f 116/73/116 110/67/110 115/72/115
f 113/70/113 110/67/110 116/73/116
f 117/74/117 118/75/118 112/69/112
f 117/74/117 112/69/112 111/68/111
f 116/73/116 119/76/119 120/77/120
f 121/78/121 114/71/114 112/69/112
f 116/73/116 115/72/115 114/71/114
f 112/69/112 114/71/114 110/67/110
f 111/68/111 113/70/113 117/74/117
f 119/76/119 116/73/116 114/71/114
f 118/75/118 121/78/121 112/69/112
f 116/73/116 120/77/120 117/74/117
usemtl tex_1649_lit_w11
f 122/79/122 123/80/123 124/81/124
f 125/82/125 126/83/126 127/84/127
f 128/85/128 125/82/125 127/84/127
f 129/86/129 130/87/130 131/88/131
f 122/79/122 132/89/132 130/87/130
f 123/80/123 128/85/128 127/84/127
f 123/80/123 127/84/127 124/81/124
f 129/86/129 133/90/133 130/87/130
f 125/82/125 131/88/131 126/83/126
f 122/79/122 124/81/124 132/89/132
f 133/90/133 122/79/122 130/87/130
f 125/82/125 129/86/129 131/88/131
f 134/90/134 135/91/135 136/79/136
f 136/79/136 135/91/135 137/92/137
f 136/79/136 137/92/137 138/80/138
f 138/80/138 137/92/137 144/93/144
f 138/80/138 144/93/144 139/85/139
f 139/85/139 144/93/144 140/94/140
f 139/85/139 140/94/140 141/82/141
f 141/82/141 140/94/140 142/95/142
f 141/82/141 142/95/142 143/86/143
f 143/86/143 142/95/142 145/96/145
f 143/86/143 145/96/145 134/90/134
f 134/90/134 145/96/145 135/91/135
f 152/84/152 146/97/146 153/81/153
f 147/98/147 146/97/146 152/84/152
f 154/83/154 147/98/147 152/84/152
f 148/99/148 147/98/147 154/83/154
f 155/88/155 148/99/148 154/83/154
f 149/100/149 148/99/148 155/88/155
f 156/87/156 149/100/149 155/88/155
f 150/101/150 149/100/149 156/87/156
f 157/89/157 150/101/150 156/87/156
f 151/102/151 150/101/150 157/89/157
f 153/81/153 151/102/151 157/89/157
f 146/97/146 151/102/151 153/81/153
f 158/103/158 159/104/159 160/105/160
f 161/106/161 162/107/162 163/108/163
f 159/104/159 164/109/164 160/105/160
f 163/108/163 159/104/159 158/103/158
f 165/110/165 162/107/162 161/106/161
f 164/109/164 162/107/162 165/110/165
f 160/105/160 164/109/164 165/110/165
f 161/106/161 163/108/163 158/103/158
f 158/103/158 160/105/160 165/110/165
f 158/103/158 165/110/165 161/106/161
f 166/109/166 167/104/167 163/108/163
f 166/109/166 163/108/163 162/107/162
f 168/111/168 169/112/169 170/113/170
f 170/113/170 169/112/169 171/114/171
f 170/113/170 171/114/171 172/115/172
f 172/115/172 171/114/171 173/116/173
f 172/115/172 173/116/173 174/117/174
f 174/117/174 173/116/173 175/118/175
f 174/117/174 175/118/175 176/119/176
f 176/119/176 175/118/175 177/120/177
f 176/119/176 177/120/177 178/121/178
f 178/121/178 177/120/177 179/122/179
f 178/121/178 179/122/179 168/111/168
f 168/111/168 179/122/179 169/112/169
f 180/123/180 181/124/181 189/113/189
f 191/119/191 190/121/190 184/125/184
f 185/126/185 192/115/192 193/117/193
f 191/119/191 184/125/184 186/127/186
f 186/127/186 185/126/185 193/117/193
f 186/127/186 193/117/193 191/119/191
f 187/128/187 180/123/180 194/113/194
f 187/128/187 192/115/192 185/126/185
f 181/124/181 182/111/182 189/113/189
f 192/115/192 188/128/188 189/113/189
f 190/121/190 182/111/182 184/125/184
f 189/113/189 182/111/182 195/111/195
f 182/111/182 190/121/190 195/111/195
f 202/98/202 196/120/196 203/97/203
f 197/122/197 196/120/196 202/98/202
f 204/99/204 197/122/197 202/98/202
f 198/112/198 197/122/197 204/99/204
f 205/100/205 198/112/198 204/99/204
f 199/114/199 198/112/198 205/100/205
f 206/101/206 199/114/199 205/100/205
f 200/116/200 199/114/199 206/101/206
f 207/102/207 200/116/200 206/101/206
f 201/118/201 200/116/200 207/102/207
f 203/97/203 201/118/201 207/102/207
f 196/120/196 201/118/201 203/97/203
f 208/129/208 209/130/209 210/104/210
f 211/109/211 209/130/209 212/131/212
f 213/132/213 214/108/214 215/107/215
f 215/107/215 211/109/211 212/131/212
f 208/129/208 210/104/210 214/108/214
f 209/130/209 211/109/211 210/104/210
f 213/132/213 208/129/208 214/108/214
f 213/132/213 215/107/215 212/131/212
f 216/131/216 217/130/217 218/129/218
f 216/131/216 218/129/218 219/132/219
f 220/109/220 215/107/215 214/108/214
f 220/109/220 214/108/214 221/104/221
usemtl tex_2005_lit
f 222/133/222 225/134/225 226/135/226
f 223/136/223 227/137/227 228/138/228
f 223/136/223 222/133/222 229/139/229
f 224/140/224 230/141/230 231/142/231
f 232/143/232 225/134/225 222/133/222
f 222/133/222 233/144/233 229/139/229
f 223/136/223 228/138/228 224/140/224
f 224/140/224 234/145/234 230/141/230
f 224/140/224 235/146/235 234/145/234
f 222/133/222 226/135/226 233/144/233
f 223/136/223 229/139/229 227/137/227
f 228/138/228 235/146/235 224/140/224
usemtl tex_2006_lit
f 236/147/236 240/148/240 241/149/241
f 237/150/237 242/151/242 236/147/236
f 236/147/236 242/151/242 240/148/240
f 238/152/238 243/153/243 237/150/237
f 243/153/243 242/151/242 237/150/237
f 236/147/236 241/149/241 239/154/239
usemtl tex_1609_lit
f 244/155/244 245/156/245 246/157/246
f 247/158/247 245/156/245 244/155/244
usemtl tex_1613_lit_w11
f 248/159/248 249/160/249 250/161/250
f 249/160/249 251/162/251 250/161/250
f 248/159/248 250/161/250 252/163/252
usemtl tex_1619_lit_w11
f 253/164/253 254/165/254 255/166/255
f 256/167/256 254/165/254 253/164/253
usemtl tex_1622_lit_w11
f 257/168/257 258/169/258 259/170/259
f 260/171/260 261/172/261 262/168/262
f 260/171/260 262/168/262 263/170/263
usemtl tex_1616_lit_w11
f 264/173/264 265/174/265 266/175/266
f 267/176/267 265/174/265 264/173/264
usemtl tex_1644_lit_w11
f 268/177/268 269/178/269 270/179/270
f 271/180/271 272/181/272 273/182/273
f 274/183/274 275/184/275 276/185/276
f 272/181/272 268/177/268 270/179/270
f 271/180/271 273/182/273 275/184/275
f 268/177/268 277/186/277 269/178/269
f 274/183/274 271/180/271 275/184/275
f 278/187/278 279/188/279 277/186/277
f 272/181/272 270/179/270 273/182/273
f 278/187/278 274/183/274 276/185/276
f 278/187/278 276/185/276 279/188/279
f 279/188/279 269/178/269 277/186/277
usemtl tex_1596_lit_w10
f 280/189/280 286/190/286 281/191/281
f 281/191/281 286/190/286 287/192/287
f 281/191/281 287/192/287 282/193/282
f 282/193/282 287/192/287 288/194/288
f 282/193/282 288/194/288 283/195/283
f 283/195/283 288/194/288 289/196/289
f 283/195/283 289/196/289 284/197/284
f 284/197/284 289/196/289 290/198/290
f 284/197/284 290/198/290 285/199/285
f 285/199/285 290/198/290 291/200/291
f 285/199/285 291/200/291 280/189/280
f 280/189/280 291/200/291 286/190/286
usemtl tex_1644_lit_w11
f 298/182/298 292/201/292 299/184/299
f 299/184/299 292/201/292 293/202/293
f 299/184/299 293/202/293 300/185/300
f 300/185/300 293/202/293 294/203/294
f 300/185/300 294/203/294 301/188/301
f 301/188/301 294/203/294 295/204/295
f 301/188/301 295/204/295 302/178/302
f 302/178/302 295/204/295 296/205/296
f 302/178/302 296/205/296 303/179/303
f 303/179/303 296/205/296 297/206/297
f 303/179/303 297/206/297 298/182/298
f 298/182/298 297/206/297 292/201/292
f 304/207/304 305/208/305 306/209/306
f 307/210/307 308/211/308 304/207/304
f 309/212/309 305/208/305 310/213/310
f 311/214/311 310/213/310 307/210/307
f 310/213/310 308/211/308 307/210/307
f 309/212/309 306/209/306 305/208/305
f 307/210/307 304/207/304 306/209/306
f 311/214/311 309/212/309 310/213/310
f 305/208/305 304/207/304 308/211/308
f 305/208/305 308/211/308 310/213/310
f 312/215/312 313/216/313 314/217/314
f 312/215/312 315/218/315 316/219/316
f 317/220/317 318/221/318 319/222/319
f 312/215/312 314/217/314 315/218/315
usemtl tex_1644_lit_w11_ovl
f 313/216/313 317/220/317 319/222/319
usemtl tex_1644_lit_w11
f 320/223/320 317/220/317 313/216/313
f 315/218/315 318/221/318 321/224/321
f 312/215/312 320/223/320 313/216/313
f 317/220/317 322/225/322 318/221/318
f 318/221/318 322/225/322 321/224/321
f 316/219/316 315/218/315 321/224/321
f 323/226/323 324/227/324 330/228/330
f 331/222/331 325/229/325 332/216/332
f 326/230/326 325/229/325 331/222/331
f 333/221/333 326/230/326 331/222/331
f 327/231/327 326/230/326 333/221/333
f 334/218/334 327/231/327 333/221/333
f 328/232/328 327/231/327 334/218/334
f 329/217/329 328/232/328 334/218/334
f 329/217/329 334/218/334 335/233/335
f 330/228/330 324/227/324 336/234/336
f 343/201/343 337/225/337 344/202/344
f 344/202/344 337/225/337 338/220/338
f 344/202/344 338/220/338 345/203/345
f 345/203/345 338/220/338 339/223/339
f 345/203/345 339/223/339 346/204/346
f 346/204/346 339/223/339 340/215/340
f 346/204/346 340/215/340 347/205/347
f 347/205/347 340/215/340 341/219/341
f 347/205/347 341/219/341 348/206/348
f 348/206/348 341/219/341 342/224/342
f 348/206/348 342/224/342 343/201/343
f 343/201/343 342/224/342 337/225/337
f 349/235/349 350/236/350 351/237/351
f 351/237/351 352/238/352 349/235/349
f 353/207/353 354/237/354 355/236/355
f 353/207/353 349/235/349 356/208/356
f 353/207/353 355/236/355 349/235/349
f 354/237/354 357/213/357 352/238/352
f 358/211/358 357/213/357 354/237/354
f 349/235/349 352/238/352 356/208/356
f 353/207/353 358/211/358 354/237/354
f 357/213/357 356/208/356 352/238/352
f 357/213/357 358/211/358 353/207/353
f 357/213/357 353/207/353 356/208/356
usemtl tex_1609_lit
f 359/239/359 360/240/360 361/241/361
f 361/241/361 360/240/360 362/242/362
usemtl tex_1613_lit_w11
f 363/243/363 364/244/364 365/245/365
f 364/244/364 366/246/366 367/247/367
f 364/244/364 367/247/367 365/245/365
usemtl tex_1619_lit_w11
f 368/248/368 369/249/369 370/250/370
f 370/250/370 369/249/369 371/251/371
usemtl tex_1622_lit_w11
f 372/252/372 373/253/373 374/254/374
f 375/255/375 376/256/376 377/252/377
f 375/255/375 377/252/377 378/254/378
usemtl tex_1616_lit_w11
f 379/257/379 380/258/380 381/259/381
f 381/259/381 380/258/380 382/260/382
usemtl tex_1644_lit_w11
f 383/261/383 384/262/384 385/263/385
f 386/264/386 387/265/387 388/266/388
f 389/267/389 390/268/390 391/269/391
f 383/261/383 385/263/385 387/265/387
f 390/268/390 386/264/386 388/266/388
f 384/262/384 392/270/392 385/263/385
f 390/268/390 388/266/388 391/269/391
f 392/270/392 393/271/393 394/272/394
f 386/264/386 383/261/383 387/265/387
f 389/267/389 391/269/391 394/272/394
f 393/271/393 389/267/389 394/272/394
f 392/270/392 384/262/384 393/271/393
usemtl tex_1596_lit_w10
f 402/273/402 395/274/395 403/275/403
f 396/276/396 395/274/395 402/273/402
f 404/277/404 396/276/396 402/273/402
f 397/278/397 398/279/398 405/280/405
f 406/281/406 397/278/397 405/280/405
f 399/282/399 400/283/400 407/284/407
f 408/285/408 399/282/399 407/284/407
f 401/286/401 399/282/399 408/285/408
f 409/287/409 401/286/401 408/285/408
f 410/288/410 411/289/411 414/290/414
f 415/291/415 410/288/410 414/290/414
f 412/274/412 413/292/413 416/275/416
usemtl tex_1644_lit_w11
f 423/267/423 417/293/417 424/268/424
f 424/268/424 417/293/417 418/294/418
f 424/268/424 418/294/418 425/264/425
f 425/264/425 418/294/418 419/295/419
f 425/264/425 419/295/419 426/261/426
f 426/261/426 419/295/419 420/296/420
f 426/261/426 420/296/420 427/262/427
f 427/262/427 420/296/420 421/297/421
f 427/262/427 421/297/421 428/271/428
f 428/271/428 421/297/421 422/298/422
f 428/271/428 422/298/422 423/267/423
f 423/267/423 422/298/422 417/293/417
f 429/299/429 430/300/430 431/301/431
f 431/301/431 432/302/432 433/303/433
f 434/304/434 430/300/430 435/305/435
f 433/303/433 434/304/434 436/306/436
f 433/303/433 432/302/432 434/304/434
f 430/300/430 429/299/429 435/305/435
f 429/299/429 431/301/431 433/303/433
f 434/304/434 435/305/435 436/306/436
f 431/301/431 430/300/430 434/304/434
f 431/301/431 434/304/434 432/302/432
f 437/307/437 438/308/438 439/309/439
f 440/310/440 441/311/441 439/309/439
f 442/312/442 443/313/443 444/314/444
f 441/311/441 437/307/437 439/309/439
f 442/312/442 444/314/444 438/308/438
f 438/308/438 444/314/444 445/315/445
f 446/316/446 443/313/443 441/311/441
f 438/308/438 445/315/445 439/309/439
f 443/313/443 447/317/447 444/314/444
f 446/316/446 447/317/447 443/313/443
f 446/316/446 441/311/441 440/310/440
f 455/312/455 456/318/456 448/308/448
f 455/312/455 448/308/448 449/319/449
f 455/312/455 449/319/449 457/313/457
f 457/313/457 449/319/449 450/320/450
f 457/313/457 450/320/450 458/311/458
f 458/311/458 450/320/450 451/321/451
f 458/311/458 451/321/451 452/307/452
f 458/311/458 452/307/452 459/322/459
f 453/323/453 454/324/454 460/325/460
f 454/324/454 461/326/461 460/325/460
f 468/294/468 462/317/462 469/295/469
f 463/314/463 462/317/462 468/294/468
f 470/293/470 463/314/463 468/294/468
f 464/315/464 463/314/463 470/293/470
f 471/298/471 464/315/464 470/293/470
f 465/309/465 464/315/464 471/298/471
f 472/297/472 465/309/465 471/298/471
f 466/310/466 465/309/465 472/297/472
f 473/296/473 466/310/466 472/297/472
f 467/316/467 466/310/466 473/296/473
f 469/295/469 467/316/467 473/296/473
f 462/317/462 467/316/467 469/295/469
f 474/327/474 475/328/475 476/301/476
f 477/300/477 478/329/478 476/301/476
f 478/329/478 474/327/474 476/301/476
f 479/330/479 480/304/480 475/328/475
f 475/328/475 480/304/480 481/302/481
f 477/300/477 479/330/479 478/329/478
f 475/328/475 481/302/481 476/301/476
f 479/330/479 477/300/477 480/304/480
f 482/327/482 478/329/478 479/330/479
f 479/330/479 483/328/483 482/327/482
f 481/302/481 480/304/480 477/300/477
f 481/302/481 477/300/477 476/301/476
usemtl tex_1648_lit_w11
f 484/331/484 485/332/485 486/333/486
f 487/334/487 488/335/488 489/336/489
f 490/337/490 491/338/491 492/339/492
f 493/340/493 494/341/494 495/342/495
f 494/341/494 496/343/496 497/344/497
f 488/335/488 492/339/492 498/345/498
f 499/346/499 497/344/497 496/343/496
f 500/335/500 501/345/501 502/347/502
f 503/332/503 504/331/504 505/348/505
f 506/349/506 507/334/507 508/336/508
f 508/336/508 500/335/500 502/347/502
f 506/349/506 508/336/508 509/350/509
f 500/335/500 510/337/510 511/339/511
f 512/351/512 513/352/513 510/337/510
f 514/338/514 510/337/510 513/352/513
f 508/336/508 502/347/502 509/350/509
f 515/342/515 512/351/512 500/335/500
f 516/344/516 517/351/517 518/342/518
f 519/340/519 518/342/518 520/335/520
f 517/351/517 521/337/521 520/335/520
f 522/334/522 523/353/523 520/335/520
f 522/334/522 524/331/524 523/353/523
f 525/341/525 516/344/516 518/342/518
f 524/331/524 526/333/526 523/353/523
f 519/340/519 520/335/520 523/353/523
f 526/333/526 519/340/519 523/353/523
f 527/354/527 528/338/528 529/352/529
usemtl tex_1647_lit_w11
f 530/355/530 531/356/531 532/357/532
f 533/358/533 530/355/530 534/359/534
f 530/355/530 535/360/535 536/361/536
f 530/355/530 532/357/532 535/360/535
f 537/362/537 531/356/531 530/355/530
f 538/363/538 533/358/533 539/364/539
f 533/358/533 540/365/540 537/362/537
f 533/358/533 541/366/541 542/367/542
f 539/364/539 533/358/533 534/359/534
f 539/364/539 534/359/534 543/368/543
f 544/369/544 539/364/539 543/368/543
f 534/359/534 536/361/536 543/368/543
f 540/365/540 533/358/533 542/367/542
f 532/357/532 545/370/545 535/360/535
f 533/358/533 538/363/538 541/366/541
f 546/367/546 547/366/547 548/371/548
f 549/369/549 550/363/550 551/364/551
f 552/372/552 548/371/548 547/366/547
f 553/359/553 554/355/554 555/361/555
f 556/358/556 557/362/557 554/355/554
usemtl tex_1648_lit_w11
f 558/373/558 566/350/566 559/374/559
f 559/374/559 566/350/566 567/347/567
f 559/374/559 567/347/567 560/375/560
f 560/375/560 567/347/567 568/345/568
f 560/375/560 568/345/568 561/376/561
f 561/376/561 568/345/568 569/339/569
f 561/376/561 569/339/569 562/377/562
f 562/377/562 569/339/569 570/338/570
usemtl tex_1647_lit_w11
f 563/378/563 571/370/571 564/379/564
f 564/379/564 571/370/571 572/357/572
f 564/379/564 572/357/572 565/380/565
f 565/380/565 572/357/572 573/356/573
f 574/380/574 579/356/579 575/381/575
f 575/381/575 579/356/579 580/362/580
f 575/381/575 580/362/580 576/382/576
f 576/382/576 580/362/580 581/365/581
f 576/382/576 581/365/581 577/383/577
f 577/383/577 581/365/581 582/367/582
f 577/383/577 582/367/582 578/384/578
f 578/384/578 582/367/582 583/371/583
usemtl tex_1648_lit_w11
f 584/385/584 585/386/585 586/387/586
f 587/385/587 588/388/588 589/389/589
f 585/386/585 584/385/584 590/390/590
f 591/391/591 592/388/592 585/386/585
f 593/392/593 594/390/594 595/389/595
f 587/385/587 596/387/596 588/388/588
f 592/388/592 596/387/596 585/386/585
f 597/385/597 595/389/595 594/390/594
f 591/391/591 598/392/598 599/388/599
f 600/392/600 601/389/601 602/388/602
usemtl tex_1647_lit_w11
f 603/393/603 604/394/604 605/395/605
f 606/396/606 603/393/603 605/395/605
usemtl tex_1646_lit
f 607/397/607 608/398/608 609/399/609
f 610/400/610 611/401/611 612/402/612
f 613/403/613 614/404/614 615/405/615
f 616/406/616 612/402/612 617/407/617
f 615/405/615 607/397/607 618/408/618
f 615/405/615 614/404/614 607/397/607
f 619/409/619 616/406/616 620/410/620
f 621/411/621 622/412/622 616/406/616
f 623/397/623 624/413/624 625/414/625
f 625/414/625 626/408/626 623/397/623
f 627/410/627 628/406/628 629/407/629
f 630/411/630 628/406/628 631/409/631
f 628/406/628 632/400/632 633/402/633
f 624/413/624 623/397/623 634/399/634
usemtl tex_1645_lit
f 635/415/635 636/416/636 637/417/637
f 638/418/638 639/419/639 640/420/640
f 641/421/641 642/422/642 643/423/643
f 644/424/644 645/425/645 646/426/646
f 647/427/647 648/428/648 649/429/649
f 650/416/650 643/423/643 651/430/651
f 643/423/643 644/424/644 651/430/651
f 652/431/652 653/432/653 647/427/647
f 654/433/654 655/434/655 656/428/656
f 656/428/656 657/420/657 658/429/658
f 657/420/657 656/428/656 655/434/655
f 657/420/657 659/419/659 660/435/660
f 661/421/661 662/423/662 663/416/663
f 663/416/663 664/415/664 665/436/665
f 665/436/665 661/421/661 663/416/663
f 666/418/666 657/420/657 655/434/655
f 667/424/667 668/426/668 669/430/669
f 670/429/670 671/431/671 672/427/672
usemtl tex_1648_lit_w11
f 673/437/673 681/373/681 674/438/674
f 674/438/674 681/373/681 682/374/682
f 674/438/674 682/374/682 675/439/675
f 675/439/675 682/374/682 683/375/683
usemtl tex_1648_lit_w11_ovl
f 675/439/675 683/375/683 676/440/676
f 676/440/676 683/375/683 684/376/684
usemtl tex_1648_lit_w11
f 676/440/676 684/376/684 677/441/677
f 677/441/677 684/376/684 685/377/685
usemtl tex_1647_lit_w11
f 678/442/678 686/378/686 679/443/679
f 679/443/679 686/378/686 687/379/687
f 679/443/679 687/379/687 680/444/680
f 680/444/680 687/379/687 688/380/688
f 689/444/689 694/380/694 690/445/690
f 690/445/690 694/380/694 695/381/695
f 690/445/690 695/381/695 691/446/691
f 691/446/691 695/381/695 696/382/696
f 691/446/691 696/382/696 692/447/692
f 692/447/692 696/382/696 697/383/697
f 692/447/692 697/383/697 693/448/693
f 693/448/693 697/383/697 698/384/698
usemtl tex_1645_lit
f 699/449/699 700/450/700 701/451/701
f 702/452/702 703/453/703 704/454/704
f 702/452/702 704/454/704 705/455/705
f 700/450/700 703/453/703 702/452/702
f 700/450/700 699/449/699 703/453/703
f 705/455/705 704/454/704 706/451/706
f 706/451/706 704/454/704 707/456/707
f 708/456/708 699/449/699 701/451/701
f 703/453/703 709/456/709 710/454/710
f 703/453/703 711/449/711 709/456/709
f 712/455/712 701/451/701 713/450/713
f 712/455/712 713/450/713 702/452/702
