mtllib CtrevguardZ.mtl
v 1087.927879333496 -45.380823612213135 190.0 1.000 1.000 1.000
v 1087.927879333496 -171.38082361221313 -68.0 1.000 1.000 1.000
v 1087.927879333496 -89.38082361221313 -74.0 1.000 1.000 1.000
v 1087.927879333496 -164.38082361221313 200.0 1.000 1.000 1.000
v 961.9278793334961 -92.38082361221313 -4.0 1.000 1.000 1.000
v 1038.927879333496 -83.38082361221313 177.0 1.000 1.000 1.000
v 1028.927879333496 -135.38082361221313 203.0 1.000 1.000 1.000
v 957.9278793334961 -165.38082361221313 -34.0 1.000 1.000 1.000
v 961.9278793334961 -106.38082361221313 -62.0 1.000 1.000 1.000
v 958.9278793334961 -157.38082361221313 14.0 1.000 1.000 1.000
v 799.3251266479492 -85.09517669677734 -89.0 1.000 1.000 1.000
v 802.3251266479492 -87.09517669677734 -69.0 1.000 1.000 1.000
v 797.3251266479492 -171.09517669677734 -77.0 1.000 1.000 1.000
v 800.3251266479492 -165.09517669677734 -46.0 1.000 1.000 1.000
v 797.3251266479492 -172.09517669677734 -77.0 1.000 1.000 1.000
v 797.3251266479492 -173.09517669677734 88.0 1.000 1.000 1.000
v 801.3251266479492 -162.09517669677734 55.0 1.000 1.000 1.000
v 791.3251266479492 -48.095176696777344 79.0 1.000 1.000 1.000
v 797.3251266479492 -74.09517669677734 43.0 1.000 1.000 1.000
v 797.3251266479492 -74.09517669677734 43.0 1.000 1.000 1.000
v 801.3251266479492 -162.09517669677734 55.0 1.000 1.000 1.000
v 802.3251266479492 -87.09517669677734 -69.0 1.000 1.000 1.000
v 797.3251266479492 -74.09517669677734 43.0 1.000 1.000 1.000
v 801.3251266479492 -162.09517669677734 55.0 1.000 1.000 1.000
v 800.3251266479492 -165.09517669677734 -46.0 1.000 1.000 1.000
v 958.9278793334961 -157.38082361221313 14.0 1.000 1.000 1.000
v 961.9278793334961 -92.38082361221313 -4.0 1.000 1.000 1.000
v 961.9278793334961 -106.38082361221313 -62.0 1.000 1.000 1.000
v 961.9278793334961 -92.38082361221313 -4.0 1.000 1.000 1.000
v 957.9278793334961 -165.38082361221313 -34.0 1.000 1.000 1.000
v 958.9278793334961 -157.38082361221313 14.0 1.000 1.000 1.000
v 515.3251266479492 -115.09517669677734 106.0 1.000 1.000 1.000
v 532.3251266479492 -23.095176696777344 14.0 1.000 1.000 1.000
v 528.3251266479492 -111.09517669677734 -67.0 1.000 1.000 1.000
v 522.3251266479492 -189.09517669677734 9.0 1.000 1.000 1.000
v 522.3251266479492 -189.09517669677734 9.0 1.000 1.000 1.000
v 791.3251266479492 -48.095176696777344 79.0 1.000 1.000 1.000
v 797.3251266479492 -173.09517669677734 88.0 1.000 1.000 1.000
v 799.3251266479492 -85.09517669677734 -89.0 1.000 1.000 1.000
v 797.3251266479492 -172.09517669677734 -77.0 1.000 1.000 1.000
v 797.3251266479492 -173.09517669677734 88.0 1.000 1.000 1.000
v 1009.3251266479492 -95.09517669677734 23.0 1.000 1.000 1.000
v 536.3251266479492 -130.09517669677734 87.0 1.000 1.000 1.000
v 1009.3251266479492 -144.09517669677734 46.0 1.000 1.000 1.000
v 982.3251266479492 -108.09517669677734 -62.0 1.000 1.000 1.000
v 531.3251266479492 -106.09517669677734 -67.0 1.000 1.000 1.000
v 528.3251266479492 -31.095176696777344 38.0 1.000 1.000 1.000
v 531.3251266479492 -193.09517669677734 13.0 1.000 1.000 1.000
v 981.3251266479492 -153.09517669677734 -49.0 1.000 1.000 1.000
v 531.3251266479492 -193.09517669677734 13.0 1.000 1.000 1.000
v 536.3251266479492 -130.09517669677734 87.0 1.000 1.000 1.000
v 72.0 -83.0 122.0 1.000 1.000 1.000
v 1.0 -149.0 47.0 1.000 1.000 1.000
v 1.0 -149.0 47.0 1.000 1.000 1.000
v 34.0 -143.0 -90.0 1.000 1.000 1.000
v 145.0 -53.0 -12.0 1.000 1.000 1.000
v 231.1657943725586 -128.35110473632812 133.0 1.000 1.000 1.000
v 343.1657943725586 -187.35110473632812 12.0 1.000 1.000 1.000
v 225.1657943725586 -89.35110473632812 -91.0 1.000 1.000 1.000
v 259.1657943725586 -20.351104736328125 21.0 1.000 1.000 1.000
v 343.1657943725586 -187.35110473632812 12.0 1.000 1.000 1.000
v 343.1657943725586 -187.35110473632812 12.0 1.000 1.000 1.000
v 225.1657943725586 -89.35110473632812 -91.0 1.000 1.000 1.000
v 231.1657943725586 -128.35110473632812 133.0 1.000 1.000 1.000
v 343.1657943725586 -187.35110473632812 12.0 1.000 1.000 1.000
v 259.1657943725586 -20.351104736328125 21.0 1.000 1.000 1.000
v 225.1657943725586 -89.35110473632812 -91.0 1.000 1.000 1.000
v 231.1657943725586 -128.35110473632812 133.0 1.000 1.000 1.000
v 528.3251266479492 -111.09517669677734 -67.0 1.000 1.000 1.000
v 522.3251266479492 -189.09517669677734 9.0 1.000 1.000 1.000
v 522.3251266479492 -189.09517669677734 9.0 1.000 1.000 1.000
v 515.3251266479492 -115.09517669677734 106.0 1.000 1.000 1.000
v 532.3251266479492 -23.095176696777344 14.0 1.000 1.000 1.000
v 515.3251266479492 -115.09517669677734 106.0 1.000 1.000 1.000
v 528.3251266479492 -111.09517669677734 -67.0 1.000 1.000 1.000
v 196.1657943725586 -148.35110473632812 124.0 1.000 1.000 1.000
v 196.1657943725586 -189.35110473632812 20.0 1.000 1.000 1.000
v 537.1657943725586 -129.35110473632812 87.0 1.000 1.000 1.000
v 531.1657943725586 -193.35110473632812 13.0 1.000 1.000 1.000
v 196.1657943725586 -119.35110473632812 -73.0 1.000 1.000 1.000
v 196.1657943725586 -35.351104736328125 27.0 1.000 1.000 1.000
v 528.1657943725586 -31.351104736328125 38.0 1.000 1.000 1.000
v 531.1657943725586 -106.35110473632812 -67.0 1.000 1.000 1.000
v 196.1657943725586 -119.35110473632812 -73.0 1.000 1.000 1.000
v 196.1657943725586 -189.35110473632812 20.0 1.000 1.000 1.000
v 196.1657943725586 -148.35110473632812 124.0 1.000 1.000 1.000
v 196.1657943725586 -35.351104736328125 27.0 1.000 1.000 1.000
v 531.1657943725586 -193.35110473632812 13.0 1.000 1.000 1.000
v 537.1657943725586 -129.35110473632812 87.0 1.000 1.000 1.000
v -1078.8555908203125 -86.70243644714355 -74.0 1.000 1.000 1.000
v -1078.8555908203125 -168.70243644714355 -68.0 1.000 1.000 1.000
v -1078.8555908203125 -43.702436447143555 191.0 1.000 1.000 1.000
v -1078.8555908203125 -162.70243644714355 200.0 1.000 1.000 1.000
v -1029.8555908203125 -78.70243644714355 177.0 1.000 1.000 1.000
v -951.8555908203125 -90.70243644714355 -4.0 1.000 1.000 1.000
v -949.8555908203125 -161.70243644714355 -35.0 1.000 1.000 1.000
v -1019.8555908203125 -134.70243644714355 203.0 1.000 1.000 1.000
v -953.8555908203125 -103.70243644714355 -62.0 1.000 1.000 1.000
v -949.8555908203125 -154.70243644714355 14.0 1.000 1.000 1.000
v -780.8883666992188 -45.47519826889038 79.0 1.000 1.000 1.000
v -782.8883666992188 -68.47519826889038 46.0 1.000 1.000 1.000
v -788.8883666992188 -172.47519826889038 88.0 1.000 1.000 1.000
v -789.8883666992188 -159.47519826889038 55.0 1.000 1.000 1.000
v -792.8883666992188 -163.47519826889038 -47.0 1.000 1.000 1.000
v -788.8883666992188 -174.47519826889038 -77.0 1.000 1.000 1.000
v -790.8883666992188 -76.47519826889038 -89.0 1.000 1.000 1.000
v -792.8883666992188 -75.47519826889038 -68.0 1.000 1.000 1.000
v -782.8883666992188 -68.47519826889038 46.0 1.000 1.000 1.000
v -789.8883666992188 -159.47519826889038 55.0 1.000 1.000 1.000
v -782.8883666992188 -68.47519826889038 46.0 1.000 1.000 1.000
v -792.8883666992188 -75.47519826889038 -68.0 1.000 1.000 1.000
v -792.8883666992188 -163.47519826889038 -47.0 1.000 1.000 1.000
v -789.8883666992188 -159.47519826889038 55.0 1.000 1.000 1.000
v -792.8883666992188 -163.47519826889038 -47.0 1.000 1.000 1.000
v -951.8555908203125 -90.70243644714355 -4.0 1.000 1.000 1.000
v -949.8555908203125 -154.70243644714355 14.0 1.000 1.000 1.000
v -953.8555908203125 -103.70243644714355 -62.0 1.000 1.000 1.000
v -951.8555908203125 -90.70243644714355 -4.0 1.000 1.000 1.000
v -949.8555908203125 -161.70243644714355 -35.0 1.000 1.000 1.000
v -949.8555908203125 -161.70243644714355 -35.0 1.000 1.000 1.000
v -949.8555908203125 -154.70243644714355 14.0 1.000 1.000 1.000
v -506.88836669921875 -112.47519826889038 106.0 1.000 1.000 1.000
v -523.8883666992188 -22.47519826889038 12.0 1.000 1.000 1.000
v -519.8883666992188 -114.47519826889038 -74.0 1.000 1.000 1.000
v -512.8883666992188 -188.47519826889038 9.0 1.000 1.000 1.000
v -512.8883666992188 -188.47519826889038 9.0 1.000 1.000 1.000
v -788.8883666992188 -172.47519826889038 88.0 1.000 1.000 1.000
v -780.8883666992188 -45.47519826889038 79.0 1.000 1.000 1.000
v -790.8883666992188 -76.47519826889038 -89.0 1.000 1.000 1.000
v -788.8883666992188 -174.47519826889038 -77.0 1.000 1.000 1.000
v -788.8883666992188 -172.47519826889038 88.0 1.000 1.000 1.000
v -1000.8883666992188 -139.47519826889038 46.0 1.000 1.000 1.000
v -527.8883666992188 -125.47519826889038 87.0 1.000 1.000 1.000
v -999.8883666992188 -90.47519826889038 23.0 1.000 1.000 1.000
v -518.8883666992188 -27.47519826889038 38.0 1.000 1.000 1.000
v -521.8883666992188 -101.47519826889038 -67.0 1.000 1.000 1.000
v -972.8883666992188 -103.47519826889038 -62.0 1.000 1.000 1.000
v -522.8883666992188 -188.47519826889038 13.0 1.000 1.000 1.000
v -971.8883666992188 -149.47519826889038 -50.0 1.000 1.000 1.000
v -527.8883666992188 -125.47519826889038 87.0 1.000 1.000 1.000
v -522.8883666992188 -188.47519826889038 13.0 1.000 1.000 1.000
v 1.0 -149.0 47.0 1.000 1.000 1.000
v -75.0 -81.0 123.0 1.000 1.000 1.000
v -36.0 -143.0 -89.0 1.000 1.000 1.000
v 1.0 -149.0 47.0 1.000 1.000 1.000
v -145.0 -37.0 -22.0 1.000 1.000 1.000
v -36.0 -143.0 -89.0 1.000 1.000 1.000
v -145.0 -37.0 -22.0 1.000 1.000 1.000
v -223.58901977539062 -125.63739013671875 133.0 1.000 1.000 1.000
v -334.5890197753906 -188.63739013671875 13.0 1.000 1.000 1.000
v -211.58901977539062 -116.63739013671875 -84.0 1.000 1.000 1.000
v -249.58901977539062 -15.63739013671875 21.0 1.000 1.000 1.000
v -223.58901977539062 -125.63739013671875 133.0 1.000 1.000 1.000
v -211.58901977539062 -116.63739013671875 -84.0 1.000 1.000 1.000
v -211.58901977539062 -116.63739013671875 -84.0 1.000 1.000 1.000
v -334.5890197753906 -188.63739013671875 13.0 1.000 1.000 1.000
v -223.58901977539062 -125.63739013671875 133.0 1.000 1.000 1.000
v -223.58901977539062 -125.63739013671875 133.0 1.000 1.000 1.000
v -211.58901977539062 -116.63739013671875 -84.0 1.000 1.000 1.000
v -249.58901977539062 -15.63739013671875 21.0 1.000 1.000 1.000
v -223.58901977539062 -125.63739013671875 133.0 1.000 1.000 1.000
v -519.8883666992188 -114.47519826889038 -74.0 1.000 1.000 1.000
v -512.8883666992188 -188.47519826889038 9.0 1.000 1.000 1.000
v -512.8883666992188 -188.47519826889038 9.0 1.000 1.000 1.000
v -506.88836669921875 -112.47519826889038 106.0 1.000 1.000 1.000
v -523.8883666992188 -22.47519826889038 12.0 1.000 1.000 1.000
v -519.8883666992188 -114.47519826889038 -74.0 1.000 1.000 1.000
v -506.88836669921875 -112.47519826889038 106.0 1.000 1.000 1.000
v -527.5890197753906 -125.63739013671875 87.0 1.000 1.000 1.000
v -187.58901977539062 -185.63739013671875 20.0 1.000 1.000 1.000
v -187.58901977539062 -144.63739013671875 124.0 1.000 1.000 1.000
v -187.58901977539062 -115.63739013671875 -73.0 1.000 1.000 1.000
v -522.5890197753906 -188.63739013671875 13.0 1.000 1.000 1.000
v -522.5890197753906 -101.63739013671875 -67.0 1.000 1.000 1.000
v -519.5890197753906 -27.63739013671875 38.0 1.000 1.000 1.000
v -187.58901977539062 -30.63739013671875 27.0 1.000 1.000 1.000
v -187.58901977539062 -30.63739013671875 27.0 1.000 1.000 1.000
v -187.58901977539062 -144.63739013671875 124.0 1.000 1.000 1.000
v -187.58901977539062 -185.63739013671875 20.0 1.000 1.000 1.000
v -187.58901977539062 -115.63739013671875 -73.0 1.000 1.000 1.000
v -527.5890197753906 -125.63739013671875 87.0 1.000 1.000 1.000
v -522.5890197753906 -188.63739013671875 13.0 1.000 1.000 1.000
v -254.86859130859375 376.30655002593994 70.0 1.000 1.000 1.000
v -198.86859130859375 437.30655002593994 0.0 1.000 1.000 1.000
v -226.86859130859375 413.30655002593994 -45.0 1.000 1.000 1.000
v -304.86859130859375 437.30655002593994 0.0 1.000 1.000 1.000
v -288.86859130859375 414.30655002593994 -41.0 1.000 1.000 1.000
v -6.576026916503906 442.42901611328125 73.0 1.000 1.000 1.000
v -51.576026916503906 469.42901611328125 44.0 1.000 1.000 1.000
v 27.423973083496094 480.42901611328125 -37.0 1.000 1.000 1.000
v 49.423973083496094 468.42901611328125 44.0 1.000 1.000 1.000
v -46.576026916503906 482.42901611328125 -31.0 1.000 1.000 1.000
v 370.1021728515625 -27.755651995539665 -42.76123380661011 1.000 1.000 1.000
v 339.1021728515625 37.244348004460335 -27.761233806610107 1.000 1.000 1.000
v 381.1021728515625 -31.755651995539665 56.23876619338989 1.000 1.000 1.000
v 349.1021728515625 62.244348004460335 51.23876619338989 1.000 1.000 1.000
v 262.1021728515625 17.244348004460335 -34.76123380661011 1.000 1.000 1.000
v 260.1021728515625 31.244348004460335 44.23876619338989 1.000 1.000 1.000
v 339.1021728515625 37.244348004460335 -27.761233806610107 1.000 1.000 1.000
v 349.1021728515625 62.244348004460335 51.23876619338989 1.000 1.000 1.000
v 339.1021728515625 37.244348004460335 -27.761233806610107 1.000 1.000 1.000
v 370.1021728515625 -27.755651995539665 -42.76123380661011 1.000 1.000 1.000
v 262.1021728515625 17.244348004460335 -34.76123380661011 1.000 1.000 1.000
v 258.1021728515625 -26.755651995539665 -22.761233806610107 1.000 1.000 1.000
v 256.1021728515625 -22.755651995539665 37.23876619338989 1.000 1.000 1.000
v 381.1021728515625 -31.755651995539665 56.23876619338989 1.000 1.000 1.000
v 260.1021728515625 31.244348004460335 44.23876619338989 1.000 1.000 1.000
v 349.1021728515625 62.244348004460335 51.23876619338989 1.000 1.000 1.000
v 381.1021728515625 -31.755651995539665 56.23876619338989 1.000 1.000 1.000
v 256.1021728515625 -22.755651995539665 37.23876619338989 1.000 1.000 1.000
v 370.1021728515625 -27.755651995539665 -42.76123380661011 1.000 1.000 1.000
v 258.1021728515625 -26.755651995539665 -22.761233806610107 1.000 1.000 1.000
v 489.6571079492569 393.8121757507324 52.07913017272949 1.000 1.000 1.000
v 483.6571079492569 317.8121757507324 49.07913017272949 1.000 1.000 1.000
v 484.6571079492569 313.8121757507324 -5.920869827270508 1.000 1.000 1.000
v 486.6571079492569 381.8121757507324 -42.92086982727051 1.000 1.000 1.000
v 484.6571079492569 433.8121757507324 7.079130172729492 1.000 1.000 1.000
v 489.6571079492569 393.8121757507324 52.07913017272949 1.000 1.000 1.000
v 256.1021728515625 -22.755651995539665 37.23876619338989 1.000 1.000 1.000
v 258.1021728515625 -26.755651995539665 -22.761233806610107 1.000 1.000 1.000
v 260.1021728515625 31.244348004460335 44.23876619338989 1.000 1.000 1.000
v 262.1021728515625 17.244348004460335 -34.76123380661011 1.000 1.000 1.000
v 260.1021728515625 31.244348004460335 44.23876619338989 1.000 1.000 1.000
v 411.6571079492569 415.8121757507324 7.079130172729492 1.000 1.000 1.000
v 413.6571079492569 381.8121757507324 -30.920869827270508 1.000 1.000 1.000
v 412.6571079492569 329.8121757507324 -6.920869827270508 1.000 1.000 1.000
v 410.6571079492569 337.8121757507324 53.07913017272949 1.000 1.000 1.000
v 411.6571079492569 413.8121757507324 50.07913017272949 1.000 1.000 1.000
v 411.6571079492569 413.8121757507324 50.07913017272949 1.000 1.000 1.000
v 486.6571079492569 381.8121757507324 -42.92086982727051 1.000 1.000 1.000
v 484.6571079492569 433.8121757507324 7.079130172729492 1.000 1.000 1.000
v 484.6571079492569 313.8121757507324 -5.920869827270508 1.000 1.000 1.000
v 483.6571079492569 317.8121757507324 49.07913017272949 1.000 1.000 1.000
v 489.6571079492569 393.8121757507324 52.07913017272949 1.000 1.000 1.000
v 489.6571079492569 393.8121757507324 52.07913017272949 1.000 1.000 1.000
v 677.6571079492569 360.8121757507324 49.07913017272949 1.000 1.000 1.000
v 402.6571079492569 398.8121757507324 91.07913017272949 1.000 1.000 1.000
v 396.6571079492569 297.8121757507324 89.07913017272949 1.000 1.000 1.000
v 396.6571079492569 297.8121757507324 89.07913017272949 1.000 1.000 1.000
v 398.6571079492569 292.8121757507324 -24.920869827270508 1.000 1.000 1.000
v 678.6571079492569 366.8121757507324 -17.920869827270508 1.000 1.000 1.000
v 404.6571079492569 408.8121757507324 -46.92086982727051 1.000 1.000 1.000
v 680.6571079492569 423.8121757507324 48.07913017272949 1.000 1.000 1.000
v 681.6571079492569 406.8121757507324 -19.920869827270508 1.000 1.000 1.000
v 677.6571079492569 360.8121757507324 49.07913017272949 1.000 1.000 1.000
v 396.6571079492569 297.8121757507324 89.07913017272949 1.000 1.000 1.000
v 402.6571079492569 398.8121757507324 91.07913017272949 1.000 1.000 1.000
v 404.6571079492569 408.8121757507324 -46.92086982727051 1.000 1.000 1.000
v 398.6571079492569 292.8121757507324 -24.920869827270508 1.000 1.000 1.000
v 274.85553324222565 439.87169647216797 17.0 1.000 1.000 1.000
v 140.85553324222565 403.87169647216797 10.0 1.000 1.000 1.000
v 186.85553324222565 379.87169647216797 89.0 1.000 1.000 1.000
v 268.85553324222565 388.87169647216797 -57.0 1.000 1.000 1.000
v 333.85553324222565 388.87169647216797 80.0 1.000 1.000 1.000
v 263.85553324222565 324.87169647216797 69.0 1.000 1.000 1.000
v 274.85553324222565 319.87169647216797 -12.0 1.000 1.000 1.000
v 339.85553324222565 340.87169647216797 61.0 1.000 1.000 1.000
v 333.85553324222565 388.87169647216797 80.0 1.000 1.000 1.000
v 186.85553324222565 379.87169647216797 89.0 1.000 1.000 1.000
v 175.85553324222565 369.87169647216797 -66.0 1.000 1.000 1.000
v 140.85553324222565 403.87169647216797 10.0 1.000 1.000 1.000
v 268.85553324222565 388.87169647216797 -57.0 1.000 1.000 1.000
v 175.85553324222565 369.87169647216797 -66.0 1.000 1.000 1.000
v 268.85553324222565 388.87169647216797 -57.0 1.000 1.000 1.000
v 333.85553324222565 325.87169647216797 -10.0 1.000 1.000 1.000
v -53.86859130859375 220.30655002593994 67.0 1.000 1.000 1.000
v -55.86859130859375 210.30655002593994 -17.0 1.000 1.000 1.000
v -51.86859130859375 353.30655002593994 -49.0 1.000 1.000 1.000
v -51.86859130859375 375.30655002593994 26.0 1.000 1.000 1.000
v -52.86859130859375 335.30655002593994 75.0 1.000 1.000 1.000
v 263.85553324222565 324.87169647216797 69.0 1.000 1.000 1.000
v 274.85553324222565 319.87169647216797 -12.0 1.000 1.000 1.000
v 175.85553324222565 369.87169647216797 -66.0 1.000 1.000 1.000
v 140.85553324222565 403.87169647216797 10.0 1.000 1.000 1.000
v 140.85553324222565 403.87169647216797 10.0 1.000 1.000 1.000
v 186.85553324222565 379.87169647216797 89.0 1.000 1.000 1.000
v 274.85553324222565 439.87169647216797 17.0 1.000 1.000 1.000
v 268.85553324222565 388.87169647216797 -57.0 1.000 1.000 1.000
v 333.85553324222565 388.87169647216797 80.0 1.000 1.000 1.000
v 268.85553324222565 388.87169647216797 -57.0 1.000 1.000 1.000
v 333.85553324222565 325.87169647216797 -10.0 1.000 1.000 1.000
v 339.85553324222565 340.87169647216797 61.0 1.000 1.000 1.000
v 333.85553324222565 388.87169647216797 80.0 1.000 1.000 1.000
v 413.6571079492569 381.8121757507324 -30.920869827270508 1.000 1.000 1.000
v 411.6571079492569 415.8121757507324 7.079130172729492 1.000 1.000 1.000
v 411.6571079492569 413.8121757507324 50.07913017272949 1.000 1.000 1.000
v 412.6571079492569 329.8121757507324 -6.920869827270508 1.000 1.000 1.000
v 413.6571079492569 381.8121757507324 -30.920869827270508 1.000 1.000 1.000
v 410.6571079492569 337.8121757507324 53.07913017272949 1.000 1.000 1.000
v 411.6571079492569 413.8121757507324 50.07913017272949 1.000 1.000 1.000
v 94.85553324222565 289.87169647216797 80.0 1.000 1.000 1.000
v 64.85553324222565 283.87169647216797 -47.0 1.000 1.000 1.000
v 396.85553324222565 297.87169647216797 89.0 1.000 1.000 1.000
v 402.85553324222565 398.87169647216797 91.0 1.000 1.000 1.000
v 151.85553324222565 400.87169647216797 66.0 1.000 1.000 1.000
v 396.85553324222565 297.87169647216797 89.0 1.000 1.000 1.000
v 94.85553324222565 289.87169647216797 80.0 1.000 1.000 1.000
v 148.85553324222565 412.87169647216797 -35.0 1.000 1.000 1.000
v 404.85553324222565 408.87169647216797 -47.0 1.000 1.000 1.000
v 398.85553324222565 292.87169647216797 -25.0 1.000 1.000 1.000
v 398.85553324222565 292.87169647216797 -25.0 1.000 1.000 1.000
v 404.85553324222565 408.87169647216797 -47.0 1.000 1.000 1.000
v 402.85553324222565 398.87169647216797 91.0 1.000 1.000 1.000
v 396.85553324222565 297.87169647216797 89.0 1.000 1.000 1.000
v -785.0662807226181 361.1454210281372 55.0 1.000 1.000 1.000
v -744.0662807226181 433.1454210281372 -27.0 1.000 1.000 1.000
v -773.0662807226181 366.1454210281372 -44.0 1.000 1.000 1.000
v -756.0662807226181 457.1454210281372 52.0 1.000 1.000 1.000
v -744.0662807226181 433.1454210281372 -27.0 1.000 1.000 1.000
v -665.0662807226181 421.1454210281372 38.0 1.000 1.000 1.000
v -666.0662807226181 412.1454210281372 -20.0 1.000 1.000 1.000
v -756.0662807226181 457.1454210281372 52.0 1.000 1.000 1.000
v -666.0662807226181 412.1454210281372 -20.0 1.000 1.000 1.000
v -773.0662807226181 366.1454210281372 -44.0 1.000 1.000 1.000
v -744.0662807226181 433.1454210281372 -27.0 1.000 1.000 1.000
v -665.0662807226181 365.1454210281372 -25.0 1.000 1.000 1.000
v -665.0662807226181 421.1454210281372 38.0 1.000 1.000 1.000
v -785.0662807226181 361.1454210281372 55.0 1.000 1.000 1.000
v -666.0662807226181 358.1454210281372 40.0 1.000 1.000 1.000
v -756.0662807226181 457.1454210281372 52.0 1.000 1.000 1.000
v -773.0662807226181 366.1454210281372 -44.0 1.000 1.000 1.000
v -666.0662807226181 358.1454210281372 40.0 1.000 1.000 1.000
v -785.0662807226181 361.1454210281372 55.0 1.000 1.000 1.000
v -665.0662807226181 365.1454210281372 -25.0 1.000 1.000 1.000
v -475.19768941402435 338.83887100219727 45.0 1.000 1.000 1.000
v -481.19768941402435 401.83887100219727 50.0 1.000 1.000 1.000
v -476.19768941402435 335.83887100219727 -10.0 1.000 1.000 1.000
v -475.19768941402435 338.83887100219727 45.0 1.000 1.000 1.000
v -476.19768941402435 390.83887100219727 -46.0 1.000 1.000 1.000
v -475.19768941402435 441.83887100219727 5.0 1.000 1.000 1.000
v -666.0662807226181 358.1454210281372 40.0 1.000 1.000 1.000
v -665.0662807226181 365.1454210281372 -25.0 1.000 1.000 1.000
v -665.0662807226181 421.1454210281372 38.0 1.000 1.000 1.000
v -666.0662807226181 412.1454210281372 -20.0 1.000 1.000 1.000
v -666.0662807226181 358.1454210281372 40.0 1.000 1.000 1.000
v -403.19768941402435 424.83887100219727 6.0 1.000 1.000 1.000
v -404.19768941402435 390.83887100219727 -32.0 1.000 1.000 1.000
v -403.19768941402435 338.83887100219727 -10.0 1.000 1.000 1.000
v -403.19768941402435 345.83887100219727 51.0 1.000 1.000 1.000
v -403.19768941402435 420.83887100219727 49.0 1.000 1.000 1.000
v -403.19768941402435 345.83887100219727 51.0 1.000 1.000 1.000
v -475.19768941402435 441.83887100219727 5.0 1.000 1.000 1.000
v -476.19768941402435 390.83887100219727 -46.0 1.000 1.000 1.000
v -476.19768941402435 335.83887100219727 -10.0 1.000 1.000 1.000
v -475.19768941402435 338.83887100219727 45.0 1.000 1.000 1.000
v -481.19768941402435 401.83887100219727 50.0 1.000 1.000 1.000
v -475.19768941402435 338.83887100219727 45.0 1.000 1.000 1.000
v -391.19768941402435 313.83887100219727 85.0 1.000 1.000 1.000
v -397.19768941402435 414.83887100219727 89.0 1.000 1.000 1.000
v -691.1976894140244 357.83887100219727 42.0 1.000 1.000 1.000
v -691.1976894140244 363.83887100219727 -25.0 1.000 1.000 1.000
v -391.19768941402435 311.83887100219727 -28.0 1.000 1.000 1.000
v -694.1976894140244 420.83887100219727 42.0 1.000 1.000 1.000
v -397.19768941402435 427.83887100219727 -49.0 1.000 1.000 1.000
v -694.1976894140244 404.83887100219727 -27.0 1.000 1.000 1.000
v -391.19768941402435 313.83887100219727 85.0 1.000 1.000 1.000
v -391.19768941402435 311.83887100219727 -28.0 1.000 1.000 1.000
v -332.2357143163681 347.22493743896484 62.0 1.000 1.000 1.000
v -267.2357143163681 327.22493743896484 -16.0 1.000 1.000 1.000
v -258.2357143163681 331.22493743896484 66.0 1.000 1.000 1.000
v -181.2357143163681 385.22493743896484 88.0 1.000 1.000 1.000
v -326.2357143163681 395.22493743896484 81.0 1.000 1.000 1.000
v -259.2357143163681 397.22493743896484 -55.0 1.000 1.000 1.000
v -133.2357143163681 412.22493743896484 11.0 1.000 1.000 1.000
v -167.2357143163681 379.22493743896484 -67.0 1.000 1.000 1.000
v -267.2357143163681 327.22493743896484 -16.0 1.000 1.000 1.000
v -325.2357143163681 333.22493743896484 -10.0 1.000 1.000 1.000
v -267.2357143163681 447.22493743896484 21.0 1.000 1.000 1.000
v -325.2357143163681 333.22493743896484 -10.0 1.000 1.000 1.000
v -440.86859130859375 220.30655002593994 68.0 1.000 1.000 1.000
v -439.86859130859375 208.30655002593994 -19.0 1.000 1.000 1.000
v -445.86859130859375 354.30655002593994 -50.0 1.000 1.000 1.000
v -445.86859130859375 354.30655002593994 -50.0 1.000 1.000 1.000
v -444.86859130859375 372.30655002593994 27.0 1.000 1.000 1.000
v -445.86859130859375 334.30655002593994 75.0 1.000 1.000 1.000
v -267.2357143163681 327.22493743896484 -16.0 1.000 1.000 1.000
v -258.2357143163681 331.22493743896484 66.0 1.000 1.000 1.000
v -167.2357143163681 379.22493743896484 -67.0 1.000 1.000 1.000
v -133.2357143163681 412.22493743896484 11.0 1.000 1.000 1.000
v -167.2357143163681 379.22493743896484 -67.0 1.000 1.000 1.000
v -181.2357143163681 385.22493743896484 88.0 1.000 1.000 1.000
v -267.2357143163681 447.22493743896484 21.0 1.000 1.000 1.000
v -259.2357143163681 397.22493743896484 -55.0 1.000 1.000 1.000
v -325.2357143163681 333.22493743896484 -10.0 1.000 1.000 1.000
v -325.2357143163681 333.22493743896484 -10.0 1.000 1.000 1.000
v -332.2357143163681 347.22493743896484 62.0 1.000 1.000 1.000
v -326.2357143163681 395.22493743896484 81.0 1.000 1.000 1.000
v -403.19768941402435 424.83887100219727 6.0 1.000 1.000 1.000
v -404.19768941402435 390.83887100219727 -32.0 1.000 1.000 1.000
v -403.19768941402435 338.83887100219727 -10.0 1.000 1.000 1.000
v -403.19768941402435 338.83887100219727 -10.0 1.000 1.000 1.000
v -403.19768941402435 345.83887100219727 51.0 1.000 1.000 1.000
v -403.19768941402435 420.83887100219727 49.0 1.000 1.000 1.000
v -145.2357143163681 417.22493743896484 68.0 1.000 1.000 1.000
v -89.2357143163681 306.22493743896484 81.0 1.000 1.000 1.000
v -57.2357143163681 302.22493743896484 -45.0 1.000 1.000 1.000
v -141.2357143163681 431.22493743896484 -33.0 1.000 1.000 1.000
v -391.2357143163681 314.22493743896484 85.0 1.000 1.000 1.000
v -397.2357143163681 415.22493743896484 89.0 1.000 1.000 1.000
v -397.2357143163681 428.22493743896484 -49.0 1.000 1.000 1.000
v -391.2357143163681 311.22493743896484 -28.0 1.000 1.000 1.000
v -391.2357143163681 311.22493743896484 -28.0 1.000 1.000 1.000
v -391.2357143163681 314.22493743896484 85.0 1.000 1.000 1.000
v -51.86859130859375 375.30655002593994 26.0 1.000 1.000 1.000
v -198.86859130859375 437.30655002593994 0.0 1.000 1.000 1.000
v -254.86859130859375 376.30655002593994 70.0 1.000 1.000 1.000
v -226.86859130859375 413.30655002593994 -45.0 1.000 1.000 1.000
v -445.86859130859375 334.30655002593994 75.0 1.000 1.000 1.000
v -253.86859130859375 236.30655002593994 189.0 1.000 1.000 1.000
v -52.86859130859375 335.30655002593994 75.0 1.000 1.000 1.000
v -93.86859130859375 223.30655002593994 161.0 1.000 1.000 1.000
v -401.86859130859375 223.30655002593994 161.0 1.000 1.000 1.000
v -394.86859130859375 86.30655002593994 20.0 1.000 1.000 1.000
v -323.86859130859375 95.30655002593994 163.0 1.000 1.000 1.000
v -288.86859130859375 414.30655002593994 -41.0 1.000 1.000 1.000
v -444.86859130859375 372.30655002593994 27.0 1.000 1.000 1.000
v -304.86859130859375 437.30655002593994 0.0 1.000 1.000 1.000
v -180.86859130859375 95.30655002593994 163.0 1.000 1.000 1.000
v -53.86859130859375 220.30655002593994 67.0 1.000 1.000 1.000
v -53.86859130859375 220.30655002593994 67.0 1.000 1.000 1.000
v -93.86859130859375 223.30655002593994 161.0 1.000 1.000 1.000
v -105.86859130859375 86.30655002593994 21.0 1.000 1.000 1.000
v -253.86859130859375 236.30655002593994 189.0 1.000 1.000 1.000
v -401.86859130859375 223.30655002593994 161.0 1.000 1.000 1.000
v -323.86859130859375 95.30655002593994 163.0 1.000 1.000 1.000
v -445.86859130859375 334.30655002593994 75.0 1.000 1.000 1.000
v -440.86859130859375 220.30655002593994 68.0 1.000 1.000 1.000
v -394.86859130859375 86.30655002593994 20.0 1.000 1.000 1.000
v -180.86859130859375 95.30655002593994 163.0 1.000 1.000 1.000
v -252.86859130859375 185.30655002593994 -84.0 1.000 1.000 1.000
v -150.86859130859375 91.30655002593994 -68.0 1.000 1.000 1.000
v -360.86859130859375 90.30655002593994 -66.0 1.000 1.000 1.000
v -321.86859130859375 336.30655002593994 -96.0 1.000 1.000 1.000
v -356.86859130859375 197.30655002593994 -74.0 1.000 1.000 1.000
v -161.86859130859375 196.30655002593994 -80.0 1.000 1.000 1.000
v -55.86859130859375 210.30655002593994 -17.0 1.000 1.000 1.000
v -150.86859130859375 91.30655002593994 -68.0 1.000 1.000 1.000
v -51.86859130859375 353.30655002593994 -49.0 1.000 1.000 1.000
v -445.86859130859375 354.30655002593994 -50.0 1.000 1.000 1.000
v -444.86859130859375 372.30655002593994 27.0 1.000 1.000 1.000
v -288.86859130859375 414.30655002593994 -41.0 1.000 1.000 1.000
v -170.86859130859375 336.30655002593994 -96.0 1.000 1.000 1.000
v -252.86859130859375 185.30655002593994 -84.0 1.000 1.000 1.000
v -321.86859130859375 336.30655002593994 -96.0 1.000 1.000 1.000
v -226.86859130859375 413.30655002593994 -45.0 1.000 1.000 1.000
v -51.86859130859375 375.30655002593994 26.0 1.000 1.000 1.000
v -439.86859130859375 208.30655002593994 -19.0 1.000 1.000 1.000
v -394.86859130859375 86.30655002593994 20.0 1.000 1.000 1.000
v -440.86859130859375 220.30655002593994 68.0 1.000 1.000 1.000
v -360.86859130859375 90.30655002593994 -66.0 1.000 1.000 1.000
v -150.86859130859375 91.30655002593994 -68.0 1.000 1.000 1.000
v -55.86859130859375 210.30655002593994 -17.0 1.000 1.000 1.000
v -105.86859130859375 86.30655002593994 21.0 1.000 1.000 1.000
v -226.86859130859375 413.30655002593994 -45.0 1.000 1.000 1.000
v -51.86859130859375 353.30655002593994 -49.0 1.000 1.000 1.000
v -170.86859130859375 336.30655002593994 -96.0 1.000 1.000 1.000
v -53.86859130859375 220.30655002593994 67.0 1.000 1.000 1.000
v -161.86859130859375 196.30655002593994 -80.0 1.000 1.000 1.000
v -252.86859130859375 185.30655002593994 -84.0 1.000 1.000 1.000
v -356.86859130859375 197.30655002593994 -74.0 1.000 1.000 1.000
v -439.86859130859375 208.30655002593994 -19.0 1.000 1.000 1.000
v -445.86859130859375 354.30655002593994 -50.0 1.000 1.000 1.000
v -360.86859130859375 90.30655002593994 -66.0 1.000 1.000 1.000
v -321.86859130859375 336.30655002593994 -96.0 1.000 1.000 1.000
v 74.1779819726944 63.144371032714844 143.0 1.000 1.000 1.000
v -71.8220180273056 60.144371032714844 140.0 1.000 1.000 1.000
v -125.8220180273056 67.14437103271484 20.0 1.000 1.000 1.000
v 131.1779819726944 69.14437103271484 21.0 1.000 1.000 1.000
v -125.8220180273056 67.14437103271484 20.0 1.000 1.000 1.000
v -88.8220180273056 73.14437103271484 -59.0 1.000 1.000 1.000
v 94.1779819726944 74.14437103271484 -62.0 1.000 1.000 1.000
v 131.1779819726944 69.14437103271484 21.0 1.000 1.000 1.000
v -180.86859130859375 95.30655002593994 163.0 1.000 1.000 1.000
v -323.86859130859375 95.30655002593994 163.0 1.000 1.000 1.000
v -105.86859130859375 86.30655002593994 21.0 1.000 1.000 1.000
v -394.86859130859375 86.30655002593994 20.0 1.000 1.000 1.000
v -394.86859130859375 86.30655002593994 20.0 1.000 1.000 1.000
v -360.86859130859375 90.30655002593994 -66.0 1.000 1.000 1.000
v -150.86859130859375 91.30655002593994 -68.0 1.000 1.000 1.000
v -105.86859130859375 86.30655002593994 21.0 1.000 1.000 1.000
v -63.86859130859375 387.30655002593994 148.0 1.000 1.000 1.000
v -461.86859130859375 424.30655002593994 -72.0 1.000 1.000 1.000
v -441.86859130859375 384.30655002593994 147.0 1.000 1.000 1.000
v -63.86859130859375 387.30655002593994 148.0 1.000 1.000 1.000
v -405.86859130859375 37.30655002593994 141.0 1.000 1.000 1.000
v -97.86859130859375 38.30655002593994 141.0 1.000 1.000 1.000
v -42.86859130859375 427.30655002593994 -70.0 1.000 1.000 1.000
v -441.86859130859375 384.30655002593994 147.0 1.000 1.000 1.000
v -417.86859130859375 32.30655002593994 -35.0 1.000 1.000 1.000
v -94.86859130859375 33.30655002593994 -37.0 1.000 1.000 1.000
v -42.86859130859375 427.30655002593994 -70.0 1.000 1.000 1.000
v -94.86859130859375 33.30655002593994 -37.0 1.000 1.000 1.000
v -417.86859130859375 32.30655002593994 -35.0 1.000 1.000 1.000
v -461.86859130859375 424.30655002593994 -72.0 1.000 1.000 1.000
v -417.86859130859375 32.30655002593994 -35.0 1.000 1.000 1.000
v -405.86859130859375 37.30655002593994 141.0 1.000 1.000 1.000
v -461.86859130859375 424.30655002593994 -72.0 1.000 1.000 1.000
v -94.86859130859375 33.30655002593994 -37.0 1.000 1.000 1.000
v -42.86859130859375 427.30655002593994 -70.0 1.000 1.000 1.000
v -97.86859130859375 38.30655002593994 141.0 1.000 1.000 1.000
v -441.86859130859375 384.30655002593994 147.0 1.000 1.000 1.000
v -63.86859130859375 387.30655002593994 148.0 1.000 1.000 1.000
v -95.0 26.0 -59.0 1.000 1.000 1.000
v -145.0 -37.0 -22.0 1.000 1.000 1.000
v -134.0 19.0 20.0 1.000 1.000 1.000
v 90.0 28.0 -62.0 1.000 1.000 1.000
v 139.0 22.0 21.0 1.000 1.000 1.000
v 145.0 -53.0 -12.0 1.000 1.000 1.000
v -1.0 -79.0 -101.0 1.000 1.000 1.000
v 69.0 16.0 135.0 1.000 1.000 1.000
v 72.0 -83.0 122.0 1.000 1.000 1.000
v -1.0 -150.0 -73.0 1.000 1.000 1.000
v 1.0 -149.0 47.0 1.000 1.000 1.000
v -36.0 -143.0 -89.0 1.000 1.000 1.000
v 34.0 -143.0 -90.0 1.000 1.000 1.000
v -75.0 -81.0 123.0 1.000 1.000 1.000
v 72.0 -83.0 122.0 1.000 1.000 1.000
v -71.0 13.0 113.0 1.000 1.000 1.000
v 34.0 -143.0 -90.0 1.000 1.000 1.000
v 1.0 -149.0 47.0 1.000 1.000 1.000
v -1.0 -150.0 -73.0 1.000 1.000 1.000
v 72.0 -83.0 122.0 1.000 1.000 1.000
v 69.0 16.0 135.0 1.000 1.000 1.000
v -71.0 13.0 113.0 1.000 1.000 1.000
v -1.0 -79.0 -101.0 1.000 1.000 1.000
v 90.0 28.0 -62.0 1.000 1.000 1.000
v 145.0 -53.0 -12.0 1.000 1.000 1.000
v 139.0 22.0 21.0 1.000 1.000 1.000
v 72.0 -83.0 122.0 1.000 1.000 1.000
v 34.0 -143.0 -90.0 1.000 1.000 1.000
v -145.0 -37.0 -22.0 1.000 1.000 1.000
v -1.0 -79.0 -101.0 1.000 1.000 1.000
v -36.0 -143.0 -89.0 1.000 1.000 1.000
v -95.0 26.0 -59.0 1.000 1.000 1.000
v 69.0 16.0 135.0 1.000 1.000 1.000
v -71.0 13.0 113.0 1.000 1.000 1.000
v -134.0 19.0 20.0 1.000 1.000 1.000
v 139.0 22.0 21.0 1.000 1.000 1.000
v -134.0 19.0 20.0 1.000 1.000 1.000
v -95.0 26.0 -59.0 1.000 1.000 1.000
v 90.0 28.0 -62.0 1.000 1.000 1.000
v 139.0 22.0 21.0 1.000 1.000 1.000
v 74.1779819726944 63.144371032714844 143.0 1.000 1.000 1.000
v -71.8220180273056 60.144371032714844 140.0 1.000 1.000 1.000
v -125.8220180273056 67.14437103271484 20.0 1.000 1.000 1.000
v 131.1779819726944 69.14437103271484 21.0 1.000 1.000 1.000
v -125.8220180273056 67.14437103271484 20.0 1.000 1.000 1.000
v -88.8220180273056 73.14437103271484 -59.0 1.000 1.000 1.000
v 94.1779819726944 74.14437103271484 -62.0 1.000 1.000 1.000
v 131.1779819726944 69.14437103271484 21.0 1.000 1.000 1.000
v -131.0 77.0 141.0 1.000 1.000 1.000
v -147.0 -199.0 132.0 1.000 1.000 1.000
v 147.0 -198.0 143.0 1.000 1.000 1.000
v 135.0 78.0 141.0 1.000 1.000 1.000
v -142.0 72.0 -35.0 1.000 1.000 1.000
v 135.0 78.0 141.0 1.000 1.000 1.000
v 138.0 73.0 -37.0 1.000 1.000 1.000
v -131.0 77.0 141.0 1.000 1.000 1.000
v 178.0 -198.0 -80.0 1.000 1.000 1.000
v -181.0 -199.0 -80.0 1.000 1.000 1.000
v -181.0 -199.0 -80.0 1.000 1.000 1.000
v -142.0 72.0 -35.0 1.000 1.000 1.000
v 138.0 73.0 -37.0 1.000 1.000 1.000
v 178.0 -198.0 -80.0 1.000 1.000 1.000
v -147.0 -199.0 132.0 1.000 1.000 1.000
v -142.0 72.0 -35.0 1.000 1.000 1.000
v -181.0 -199.0 -80.0 1.000 1.000 1.000
v -131.0 77.0 141.0 1.000 1.000 1.000
v 178.0 -198.0 -80.0 1.000 1.000 1.000
v 138.0 73.0 -37.0 1.000 1.000 1.000
v 147.0 -198.0 143.0 1.000 1.000 1.000
v 135.0 78.0 141.0 1.000 1.000 1.000
vt 0.9658 0.1816
vt 0.9287 0.9049
vt 0.9277 0.9245
vt 0.9678 0.1536
vt 0.0918 0.7096
vt 0.6318 0.2122
vt 0.5684 0.1387
vt 0.0605 0.7956
vt 0.0820 0.8737
vt 0.0693 0.6595
vt 0.0000 1.0000
vt -0.0078 1.0065
vt 0.9688 1.0026
vt 1.0771 0.1999
vt -0.3633 0.2266
vt 0.4463 0.9486
vt 0.4062 0.2012
vt 0.1240 0.1491
vt 0.2666 0.9486
vt 0.6309 0.9375
vt 0.9189 0.1536
vt 0.6152 0.2044
vt 0.8203 0.9382
vt 0.3545 0.8626
vt 0.2324 0.0547
vt 0.1504 0.8887
vt 0.4727 0.0983
vt 0.7080 0.8887
vt 0.7686 0.0938
vt 0.8594 0.8893
vt 1.0156 0.0788
vt 1.1504 0.8887
vt 0.0156 0.0788
vt 0.3652 0.9382
vt 0.7158 0.4694
vt 1.0273 0.9609
vt 0.4346 0.9622
vt 0.6191 0.4720
vt 0.3203 0.4694
vt 0.9697 0.4707
vt 1.0176 0.9564
vt 0.2100 -1.2259
vt 0.0703 -1.0247
vt 0.2129 -0.7806
vt 1.0225 -0.4466
vt 1.0703 -1.0247
vt 0.8525 -1.0462
vt 0.7363 -0.8027
vt 0.5439 -1.3177
vt 0.4570 -0.7077
vt 0.0225 -0.4466
vt 0.5869 0.8932
vt 0.4697 0.2266
vt 1.0283 0.8490
vt -0.0986 0.1484
vt 0.1895 0.8887
vt 1.0010 0.1556
vt 0.7598 0.0052
vt 0.9238 0.0059
vt 0.6436 0.0052
vt 0.3027 0.0078
vt 0.9355 0.9701
vt 0.9355 0.9518
vt 0.9639 0.1706
vt 0.9648 0.1432
vt 0.6250 0.2266
vt 0.0713 0.7962
vt 0.0498 0.8913
vt 0.5557 0.1517
vt 0.0742 0.9727
vt 0.0576 0.7441
vt -0.1455 0.1966
vt 0.0674 0.9967
vt 0.8545 0.9954
vt 1.0781 0.2090
vt 0.6133 0.9694
vt 0.9131 0.9049
vt 0.9395 0.0905
vt 0.7646 0.0996
vt 0.1338 0.8828
vt 0.4023 0.9382
vt 0.1230 0.0879
vt 1.1338 0.8828
vt 1.1230 0.0879
vt 0.3252 0.0892
vt 1.0977 0.9043
vt 0.9980 0.1165
vt 0.8896 0.8854
vt 0.7705 0.1660
vt 0.4990 0.1543
vt 0.5586 0.9128
vt 1.2324 0.1328
vt 0.3906 0.9049
vt 0.2324 0.1328
vt 0.0977 0.9043
vt 0.9512 0.9805
vt 0.6123 0.5671
vt 0.1191 0.9609
vt 0.1123 0.5671
vt 0.4902 0.5697
vt 0.2031 0.9805
vt 0.9326 0.5690
vt 0.9395 0.9759
vt 1.0107 -0.6764
vt 1.1611 -0.9173
vt 0.9990 -1.1068
vt 0.4355 -0.9349
vt 0.1611 -0.9173
vt 0.2217 -0.3665
vt 0.5000 -0.7096
vt 0.7832 -0.6003
vt 0.7012 -1.2279
vt 0.0107 -0.6764
vt 0.3389 0.9609
vt 0.6045 1.2604
vt 0.8857 0.5781
vt 0.5576 0.9245
vt 0.0430 0.1660
vt 0.1416 0.9212
vt 0.5576 0.2526
vt 1.0127 0.8776
vt 1.0957 0.1823
vt 0.9258 0.1784
vt 0.7188 0.1777
vt 0.5713 0.1777
vt 0.1406 0.1797
vt 0.5088 0.9961
vt 0.4873 0.4564
vt 0.1201 0.2415
vt 0.7695 0.1549
vt 0.9736 0.5124
vt 0.7451 0.6966
vt 0.9414 0.2493
vt 0.1113 0.5111
vt 0.1670 0.1452
vt 0.2363 0.6888
vt -0.0293 0.1748
vt 0.0928 0.5000
vt 0.7119 0.1484
vt 0.6816 0.6230
vt 0.1807 0.8037
vt 0.6240 0.7939
vt 0.1689 0.4150
vt 0.6719 0.3047
vt 0.2217 0.5625
vt 0.7441 0.2412
vt 0.3906 0.9375
vt 0.6514 0.8359
vt 0.8037 0.2783
vt 0.9316 0.8086
vt 0.4062 0.3184
vt 0.1934 0.7900
vt 0.0459 0.2373
vt 0.3760 1.2803
vt 0.9824 0.1826
vt 0.9355 1.1211
vt 0.9141 0.9329
vt 1.0625 0.2917
vt 0.8574 0.2624
vt 0.7217 0.2643
vt 0.5762 0.9310
vt 0.4678 0.2741
vt 0.2383 0.2747
vt 0.0625 0.2917
vt 0.1045 0.9434
vt 0.4033 0.9453
vt 1.1045 0.9434
vt 0.2334 0.0163
vt 0.4463 0.0169
vt 0.7090 0.0091
vt 0.9053 0.0078
vt 0.1152 0.0156
vt 1.1152 0.0156
vt 0.1123 0.8854
vt 0.3008 0.5065
vt 0.1387 0.4948
vt 1.1387 0.4948
vt 0.9424 0.4948
vt 0.9150 0.8854
vt 0.6377 0.5072
vt 0.3027 0.8913
vt 0.7617 0.8900
vt 1.1123 0.8854
vt 0.2119 0.9792
vt 1.0000 1.0000
vt 0.9668 0.2396
vt 0.0830 0.3542
vt 0.5098 0.5339
vt 0.5332 -0.1107
vt -0.1943 0.1042
vt 1.2236 0.5098
vt -0.0547 0.8073
vt 0.5879 0.5443
vt 0.7949 0.5176
vt 0.5713 0.3184
vt 0.4619 0.3314
vt 0.4746 0.7676
vt 0.0205 0.8086
vt 0.2969 0.9069
vt 0.0615 0.5312
vt 1.0205 0.8086
vt 1.0615 0.5312
vt 0.7959 0.3411
vt 0.6006 0.5508
vt 0.7988 0.5202
vt 0.8848 0.9466
vt 1.2969 0.9069
vt 0.6621 1.0111
vt 0.5850 0.8906
vt 1.0264 1.2031
vt 0.6670 1.1908
vt 0.2559 1.1829
vt 0.7900 0.1061
vt 1.0527 0.0990
vt 0.5947 0.1074
vt 0.3857 0.0990
vt 1.1182 0.0365
vt 0.9150 0.0234
vt 0.3281 0.1517
vt 0.1182 0.0365
vt 0.5918 0.1458
vt 0.9639 0.0534
vt 0.0840 0.2064
vt 0.9941 0.7900
vt 0.0957 0.1621
vt -0.0234 0.7451
vt 0.9199 -0.0186
vt 0.0918 0.3965
vt 0.7803 0.9688
vt 0.2617 1.0420
vt 0.7783 0.1641
vt 0.3223 1.0107
vt 0.7930 0.0889
vt 0.1709 0.3936
vt 0.7432 0.9756
vt 0.0498 0.1924
vt 0.9854 0.9561
vt 0.5459 0.0889
vt 0.1123 0.9189
vt 0.9844 0.2686
vt 0.2900 1.1738
vt 0.0361 0.2285
vt 0.8662 1.0850
vt 1.1279 0.2956
vt 0.9502 0.3145
vt 1.0762 0.9453
vt 0.4316 0.9421
vt 0.2812 0.2982
vt 0.1279 0.2956
vt 0.5186 0.2982
vt 0.8906 0.9460
vt 0.7646 0.2917
vt 0.6104 0.9499
vt 0.0762 0.9453
vt 0.7725 0.0423
vt 0.5215 0.0482
vt 0.2822 0.0475
vt 0.1084 0.0449
vt 0.9014 0.0423
vt 1.1084 0.0449
vt 0.9277 0.5195
vt 0.1016 0.5221
vt 0.7363 0.9629
vt 0.6826 0.9629
vt 0.9502 0.5195
vt 0.2178 0.9629
vt -0.0010 0.5208
vt 0.3525 0.9635
vt 0.4053 0.2559
vt 0.2109 0.4609
vt 0.3848 0.4909
vt 0.4893 0.7376
vt 0.5107 0.2773
vt 0.9805 0.4909
vt 0.6709 0.8913
vt 1.0303 0.7806
vt 1.2109 0.4609
vt 1.2217 0.2780
vt 0.6943 0.4688
vt 0.2217 0.2780
vt 0.3730 0.4954
vt 0.2080 0.4564
vt 0.0303 0.7806
vt 0.1465 0.9212
vt 1.1465 0.9212
vt 0.3105 0.9792
vt 0.3848 0.8568
vt 0.7266 0.0358
vt 0.9863 0.0299
vt 1.2188 0.0293
vt 0.2188 0.0293
vt 0.3887 0.0319
vt 0.5957 0.0352
vt 0.0459 0.1159
vt 0.9443 0.0326
vt 0.9717 -0.0182
vt -0.0674 0.1081
vt 1.0381 0.1406
vt 0.5391 0.0898
vt 0.4863 0.1393
vt 0.5918 0.0404
vt -0.0312 0.2122
vt 0.4902 0.3815
vt 1.0361 0.2109
vt 0.9248 0.4043
vt 0.0918 0.4043
vt 0.1123 0.6413
vt 0.3047 0.6263
vt 0.3887 0.0417
vt -0.0283 0.1452
vt 0.4375 0.0905
vt 0.6924 0.6263
vt 1.0352 0.4089
vt 0.8945 0.6426
vt -0.0156 0.4095
vt 0.5098 0.4798
vt 0.2725 0.6276
vt 0.7656 0.6315
vt 0.6689 0.2415
vt 0.7549 0.4603
vt 0.2969 0.4603
vt 0.0459 0.4382
vt 0.0332 0.2103
vt 0.9590 0.2135
vt 0.9561 0.1849
vt 0.5918 0.0885
vt 0.3145 0.2383
vt 0.4160 0.0866
vt 0.0312 0.1764
vt 0.9482 0.4453
vt 0.8457 0.6367
vt 0.9512 0.4258
vt 0.1670 0.6348
vt 0.0400 0.4212
vt 0.6953 0.7513
vt 0.2988 0.7565
vt 0.1533 0.7448
vt 0.8486 0.7402
vt 0.8125 0.7318
vt 0.7266 0.7207
vt 0.2949 0.7168
vt 0.2100 0.7246
vt 0.9619 0.1204
vt -0.0332 0.0684
vt 0.0186 0.1257
vt 0.1455 0.6094
vt 0.8438 0.6087
vt 1.0137 0.0651
vt 0.1182 0.6165
vt 0.8516 0.6152
vt -0.0566 0.0547
vt 0.0723 0.6094
vt 0.9277 0.6081
vt 1.0547 0.0534
vt 0.3896 0.6016
vt 0.9355 0.5951
vt 0.3086 0.0814
vt 0.3135 0.6250
vt 0.1172 0.0781
vt 0.8984 0.6003
vt 0.9834 0.1367
vt 0.8447 0.1126
vt 0.6611 0.1888
vt 0.7256 0.4499
vt 0.7734 0.2161
vt 0.3467 0.1908
vt 0.2256 0.2174
vt 0.2627 0.5312
vt 0.5039 0.6309
vt 0.0752 0.2415
vt 0.0830 0.6504
vt 0.5078 0.9251
vt 0.9961 0.9238
vt 0.5654 0.8939
vt 0.4453 0.8991
vt 0.9111 0.6361
vt 1.0830 0.6504
vt 0.9102 0.2467
vt 1.4453 0.8991
vt 1.0752 0.2415
vt 0.1064 0.7220
vt 0.5703 0.3392
vt 0.6807 0.8333
vt 0.3008 0.8385
vt 0.1318 0.8268
vt 0.8711 0.8223
vt 0.8330 0.8066
vt 0.7422 0.7949
vt 0.3066 0.7904
vt 0.1914 0.7988
vt 0.1914 0.6094
vt 0.1045 0.9948
vt 0.8809 0.9941
vt 0.7959 0.6087
vt 0.1680 0.6165
vt 0.8027 0.6152
vt 0.9619 0.9941
vt 0.0137 0.9954
vt 0.9678 0.9902
vt 0.8701 0.6081
vt 0.1289 0.6094
vt 0.0176 0.9928
vt 0.8799 0.9570
vt 0.3945 0.6042
vt 0.2197 0.9544
vt 0.9404 0.5977
vt 0.2246 0.9993
vt 0.3154 0.6289
vt 0.9629 0.9811
vt 0.9014 0.6042
vn 0.577 0.577 0.577
vn 0.577 0.577 0.577
vn 0.577 0.577 0.577
vn -0.577 -0.577 -0.577
vn 0.577 0.577 0.577
vn 0.577 0.577 0.577
vn -0.577 -0.577 -0.577
vn 0.577 0.577 0.577
vn 0.577 0.577 0.577
vn -0.577 -0.577 -0.577
vn 0.577 0.577 0.577
vn 0.577 0.577 0.577
vn 0.577 0.577 0.577
vn 0.577 0.577 0.577
vn 0.577 0.577 0.577
vn 0.577 0.577 0.577
vn 0.577 0.577 0.577
vn 0.577 0.577 0.577
vn 0.577 0.577 0.577
vn 0.577 0.577 0.577
vn 0.577 0.577 0.577
vn 0.577 0.577 0.577
vn 0.577 0.577 0.577
vn 0.577 0.577 0.577
vn 0.577 0.577 0.577
vn -0.577 -0.577 -0.577
vn 0.577 0.577 0.577
vn 0.577 0.577 0.577
vn 0.577 0.577 0.577
vn 0.577 0.577 0.577
vn -0.577 -0.577 -0.577
vn -0.577 -0.577 -0.577
vn -0.577 -0.577 -0.577
vn -0.577 -0.577 -0.577
vn 0.577 0.577 0.577
vn 0.577 0.577 0.577
vn 0.577 0.577 0.577
vn 0.577 0.577 0.577
vn 0.577 0.577 0.577
vn 0.577 0.577 0.577
vn 0.577 0.577 0.577
vn 0.577 0.577 0.577
vn -0.577 -0.577 -0.577
vn 0.577 0.577 0.577
vn 0.577 0.577 0.577
vn -0.577 -0.577 -0.577
vn 0.577 0.577 0.577
vn -0.577 -0.577 -0.577
vn 0.577 0.577 0.577
vn -0.577 -0.577 -0.577
vn -0.577 -0.577 -0.577
vn -0.577 -0.577 -0.577
vn 0.577 0.577 0.577
vn 0.577 0.577 0.577
vn -0.577 -0.577 -0.577
vn 0.577 0.577 0.577
vn -0.577 -0.577 -0.577
vn 0.577 0.577 0.577
vn -0.577 -0.577 -0.577
vn -0.577 -0.577 -0.577
vn 0.577 0.577 0.577
vn 0.577 0.577 0.577
vn -0.577 -0.577 -0.577
vn -0.577 -0.577 -0.577
vn 0.577 0.577 0.577
vn -0.577 -0.577 -0.577
vn -0.577 -0.577 -0.577
vn -0.577 -0.577 -0.577
vn -0.577 -0.577 -0.577
vn 0.577 0.577 0.577
vn 0.577 0.577 0.577
vn -0.577 -0.577 -0.577
vn -0.577 -0.577 -0.577
vn -0.577 -0.577 -0.577
vn -0.577 -0.577 -0.577
vn -0.577 -0.577 -0.577
vn -0.577 -0.577 -0.577
vn -0.577 -0.577 -0.577
vn -0.577 -0.577 -0.577
vn -0.577 -0.577 -0.577
vn 0.577 0.577 0.577
vn 0.577 0.577 0.577
vn -0.577 -0.577 -0.577
vn -0.577 -0.577 -0.577
vn -0.577 -0.577 -0.577
vn -0.577 -0.577 -0.577
vn -0.577 -0.577 -0.577
vn -0.577 -0.577 -0.577
vn -0.577 -0.577 -0.577
vn -0.577 -0.577 -0.577
vn 0.577 0.577 0.577
vn -0.577 -0.577 -0.577
vn -0.577 -0.577 -0.577
vn -0.577 -0.577 -0.577
vn 0.577 0.577 0.577
vn 0.577 0.577 0.577
vn -0.577 -0.577 -0.577
vn 0.577 0.577 0.577
vn -0.577 -0.577 -0.577
vn 0.577 0.577 0.577
vn 0.577 0.577 0.577
vn 0.577 0.577 0.577
vn 0.577 0.577 0.577
vn 0.577 0.577 0.577
vn 0.577 0.577 0.577
vn 0.577 0.577 0.577
vn 0.577 0.577 0.577
vn 0.577 0.577 0.577
vn 0.577 0.577 0.577
vn 0.577 0.577 0.577
vn 0.577 0.577 0.577
vn 0.577 0.577 0.577
vn 0.577 0.577 0.577
vn 0.577 0.577 0.577
vn 0.577 0.577 0.577
vn -0.577 -0.577 -0.577
vn 0.577 0.577 0.577
vn 0.577 0.577 0.577
vn 0.577 0.577 0.577
vn 0.577 0.577 0.577
vn -0.577 -0.577 -0.577
vn -0.577 -0.577 -0.577
vn -0.577 -0.577 -0.577
vn -0.577 -0.577 -0.577
vn 0.577 0.577 0.577
vn 0.577 0.577 0.577
vn 0.577 0.577 0.577
vn 0.577 0.577 0.577
vn 0.577 0.577 0.577
vn 0.577 0.577 0.577
vn 0.577 0.577 0.577
vn 0.577 0.577 0.577
vn -0.577 -0.577 -0.577
vn 0.577 0.577 0.577
vn 0.577 0.577 0.577
vn -0.577 -0.577 -0.577
vn 0.577 0.577 0.577
vn -0.577 -0.577 -0.577
vn 0.577 0.577 0.577
vn -0.577 -0.577 -0.577
vn -0.577 -0.577 -0.577
vn 0.577 0.577 0.577
vn -0.577 -0.577 -0.577
vn -0.577 -0.577 -0.577
vn 0.577 0.577 0.577
vn 0.577 0.577 0.577
vn -0.577 -0.577 -0.577
vn 0.577 0.577 0.577
vn -0.577 -0.577 -0.577
vn 0.577 0.577 0.577
vn -0.577 -0.577 -0.577
vn -0.577 -0.577 -0.577
vn -0.577 -0.577 -0.577
vn -0.577 -0.577 -0.577
vn -0.577 -0.577 -0.577
vn 0.577 0.577 0.577
vn -0.577 -0.577 -0.577
vn -0.577 -0.577 -0.577
vn -0.577 -0.577 -0.577
vn -0.577 -0.577 -0.577
vn -0.577 -0.577 -0.577
vn -0.577 -0.577 -0.577
vn 0.577 0.577 0.577
vn 0.577 0.577 0.577
vn -0.577 -0.577 -0.577
vn -0.577 -0.577 -0.577
vn -0.577 -0.577 -0.577
vn -0.577 -0.577 -0.577
vn -0.577 -0.577 -0.577
vn -0.577 -0.577 -0.577
vn -0.577 -0.577 -0.577
vn -0.577 -0.577 -0.577
vn -0.577 -0.577 -0.577
vn -0.577 -0.577 -0.577
vn 0.577 0.577 0.577
vn 0.577 0.577 0.577
vn -0.577 -0.577 -0.577
vn -0.577 -0.577 -0.577
vn -0.577 -0.577 -0.577
vn -0.577 -0.577 -0.577
vn -0.577 -0.577 -0.577
vn -0.577 -0.577 -0.577
vn -0.577 -0.577 -0.577
vn -0.577 -0.577 -0.577
vn -0.577 -0.577 -0.577
vn -0.577 -0.577 -0.577
vn -0.577 -0.577 -0.577
vn -0.577 -0.577 -0.577
vn -0.577 -0.577 -0.577
vn -0.577 -0.577 -0.577
vn -0.577 -0.577 -0.577
vn -0.577 -0.577 -0.577
vn -0.577 -0.577 -0.577
vn -0.577 -0.577 -0.577
vn -0.577 -0.577 -0.577
vn -0.577 -0.577 -0.577
vn -0.577 -0.577 -0.577
vn -0.577 -0.577 -0.577
vn -0.577 -0.577 -0.577
vn -0.577 -0.577 -0.577
vn -0.577 -0.577 -0.577
vn -0.577 -0.577 -0.577
vn -0.577 -0.577 -0.577
vn -0.577 -0.577 -0.577
vn -0.577 -0.577 -0.577
vn -0.577 -0.577 -0.577
vn -0.577 -0.577 -0.577
vn -0.577 -0.577 -0.577
vn -0.577 -0.577 -0.577
vn -0.577 -0.577 -0.577
vn -0.577 -0.577 -0.577
vn -0.577 -0.577 -0.577
vn -0.577 -0.577 -0.577
vn -0.577 -0.577 -0.577
vn -0.577 -0.577 -0.577
vn -0.577 -0.577 -0.577
vn -0.577 -0.577 -0.577
vn -0.577 -0.577 -0.577
vn -0.577 -0.577 -0.577
vn -0.577 -0.577 -0.577
vn -0.577 -0.577 -0.577
vn -0.577 -0.577 -0.577
vn -0.577 -0.577 -0.577
vn -0.577 -0.577 -0.577
vn -0.577 -0.577 -0.577
vn -0.577 -0.577 -0.577
vn -0.577 -0.577 -0.577
vn -0.577 -0.577 -0.577
vn -0.577 -0.577 -0.577
vn -0.577 -0.577 -0.577
vn -0.577 -0.577 -0.577
vn -0.577 -0.577 -0.577
vn -0.577 -0.577 -0.577
vn -0.577 -0.577 -0.577
vn -0.577 -0.577 -0.577
vn 0.577 0.577 0.577
vn -0.577 -0.577 -0.577
vn -0.577 -0.577 -0.577
vn -0.577 -0.577 -0.577
vn -0.577 -0.577 -0.577
vn 0.577 0.577 0.577
vn 0.577 0.577 0.577
vn 0.577 0.577 0.577
vn 0.577 0.577 0.577
vn 0.577 0.577 0.577
vn -0.577 -0.577 -0.577
vn -0.577 -0.577 -0.577
vn 0.577 0.577 0.577
vn -0.577 -0.577 -0.577
vn -0.577 -0.577 -0.577
vn -0.577 -0.577 -0.577
vn -0.577 -0.577 -0.577
vn -0.577 -0.577 -0.577
vn -0.577 -0.577 -0.577
vn 0.577 0.577 0.577
vn 0.577 0.577 0.577
vn -0.577 -0.577 -0.577
vn -0.577 -0.577 -0.577
vn -0.577 -0.577 -0.577
vn -0.577 -0.577 -0.577
vn -0.577 -0.577 -0.577
vn -0.577 -0.577 -0.577
vn -0.577 -0.577 -0.577
vn -0.577 -0.577 -0.577
vn -0.577 -0.577 -0.577
vn 0.577 0.577 0.577
vn 0.577 0.577 0.577
vn -0.577 -0.577 -0.577
vn -0.577 -0.577 -0.577
vn -0.577 -0.577 -0.577
vn 0.577 0.577 0.577
vn 0.577 0.577 0.577
vn -0.577 -0.577 -0.577
vn -0.577 -0.577 -0.577
vn -0.577 -0.577 -0.577
vn -0.577 -0.577 -0.577
vn -0.577 -0.577 -0.577
vn -0.577 -0.577 -0.577
vn -0.577 -0.577 -0.577
vn -0.577 -0.577 -0.577
vn -0.577 -0.577 -0.577
vn -0.577 -0.577 -0.577
vn -0.577 -0.577 -0.577
vn -0.577 -0.577 -0.577
vn -0.577 -0.577 -0.577
vn -0.577 -0.577 -0.577
vn -0.577 -0.577 -0.577
vn -0.577 -0.577 -0.577
vn -0.577 -0.577 -0.577
vn -0.577 -0.577 -0.577
vn -0.577 -0.577 -0.577
vn -0.577 -0.577 -0.577
vn -0.577 -0.577 -0.577
vn -0.577 -0.577 -0.577
vn -0.577 -0.577 -0.577
vn -0.577 -0.577 -0.577
vn -0.577 -0.577 -0.577
vn -0.577 -0.577 -0.577
vn 0.577 0.577 0.577
vn -0.577 -0.577 -0.577
vn -0.577 -0.577 -0.577
vn 0.577 0.577 0.577
vn -0.577 -0.577 -0.577
vn -0.577 -0.577 -0.577
vn -0.577 -0.577 -0.577
vn -0.577 -0.577 -0.577
vn -0.577 -0.577 -0.577
vn -0.577 -0.577 -0.577
vn -0.577 -0.577 -0.577
vn -0.577 -0.577 -0.577
vn -0.577 -0.577 -0.577
vn -0.577 -0.577 -0.577
vn -0.577 -0.577 -0.577
vn -0.577 -0.577 -0.577
vn -0.577 -0.577 -0.577
vn -0.577 -0.577 -0.577
vn -0.577 -0.577 -0.577
vn -0.577 -0.577 -0.577
vn -0.577 -0.577 -0.577
vn -0.577 -0.577 -0.577
vn -0.577 -0.577 -0.577
vn -0.577 -0.577 -0.577
vn -0.577 -0.577 -0.577
vn -0.577 -0.577 -0.577
vn -0.577 -0.577 -0.577
vn -0.577 -0.577 -0.577
vn -0.577 -0.577 -0.577
vn -0.577 -0.577 -0.577
vn -0.577 -0.577 -0.577
vn -0.577 -0.577 -0.577
vn -0.577 -0.577 -0.577
vn -0.577 -0.577 -0.577
vn -0.577 -0.577 -0.577
vn -0.577 -0.577 -0.577
vn -0.577 -0.577 -0.577
vn -0.577 -0.577 -0.577
vn -0.577 -0.577 -0.577
vn -0.577 -0.577 -0.577
vn -0.577 -0.577 -0.577
vn -0.577 -0.577 -0.577
vn -0.577 -0.577 -0.577
vn -0.577 -0.577 -0.577
vn -0.577 -0.577 -0.577
vn -0.577 -0.577 -0.577
vn -0.577 -0.577 -0.577
vn -0.577 -0.577 -0.577
vn -0.577 -0.577 -0.577
vn -0.577 -0.577 -0.577
vn -0.577 -0.577 -0.577
vn 0.577 0.577 0.577
vn 0.577 0.577 0.577
vn -0.577 -0.577 -0.577
vn 0.577 0.577 0.577
vn 0.577 0.577 0.577
vn 0.577 0.577 0.577
vn -0.577 -0.577 -0.577
vn -0.577 -0.577 -0.577
vn -0.577 -0.577 -0.577
vn 0.577 0.577 0.577
vn 0.577 0.577 0.577
vn -0.577 -0.577 -0.577
vn -0.577 -0.577 -0.577
vn -0.577 -0.577 -0.577
vn -0.577 -0.577 -0.577
vn -0.577 -0.577 -0.577
vn 0.577 0.577 0.577
vn -0.577 -0.577 -0.577
vn -0.577 -0.577 -0.577
vn -0.577 -0.577 -0.577
vn 0.577 0.577 0.577
vn 0.577 0.577 0.577
vn -0.577 -0.577 -0.577
vn -0.577 -0.577 -0.577
vn -0.577 -0.577 -0.577
vn -0.577 -0.577 -0.577
vn 0.577 0.577 0.577
vn 0.577 0.577 0.577
vn -0.577 -0.577 -0.577
vn -0.577 -0.577 -0.577
vn -0.577 -0.577 -0.577
vn -0.577 -0.577 -0.577
vn -0.577 -0.577 -0.577
vn -0.577 -0.577 -0.577
vn -0.577 -0.577 -0.577
vn -0.577 -0.577 -0.577
vn -0.577 -0.577 -0.577
vn -0.577 -0.577 -0.577
vn -0.577 -0.577 -0.577
vn -0.577 -0.577 -0.577
vn -0.577 -0.577 -0.577
vn -0.577 -0.577 -0.577
vn -0.577 -0.577 -0.577
vn -0.577 -0.577 -0.577
vn -0.577 -0.577 -0.577
vn -0.577 -0.577 -0.577
vn -0.577 -0.577 -0.577
vn -0.577 -0.577 -0.577
vn -0.577 -0.577 -0.577
vn -0.577 -0.577 -0.577
vn 0.577 0.577 0.577
vn -0.577 -0.577 -0.577
vn -0.577 -0.577 -0.577
vn -0.577 -0.577 -0.577
vn -0.577 -0.577 -0.577
vn -0.577 -0.577 -0.577
vn -0.577 -0.577 -0.577
vn -0.577 -0.577 -0.577
vn -0.577 -0.577 -0.577
vn -0.577 -0.577 -0.577
vn -0.577 -0.577 -0.577
vn -0.577 -0.577 -0.577
vn -0.577 -0.577 -0.577
vn 0.577 0.577 0.577
vn -0.577 -0.577 -0.577
vn -0.577 -0.577 -0.577
vn -0.577 -0.577 -0.577
vn -0.577 -0.577 -0.577
vn -0.577 -0.577 -0.577
vn 0.577 0.577 0.577
vn 0.577 0.577 0.577
vn -0.577 -0.577 -0.577
vn 0.577 0.577 0.577
vn -0.577 -0.577 -0.577
vn -0.577 -0.577 -0.577
vn -0.577 -0.577 -0.577
vn -0.577 -0.577 -0.577
vn 0.577 0.577 0.577
vn 0.577 0.577 0.577
vn -0.577 -0.577 -0.577
vn -0.577 -0.577 -0.577
vn -0.577 -0.577 -0.577
vn -0.577 -0.577 -0.577
vn -0.577 -0.577 -0.577
vn -0.577 -0.577 -0.577
vn -0.577 -0.577 -0.577
vn 0.577 0.577 0.577
vn -0.577 -0.577 -0.577
vn -0.577 -0.577 -0.577
vn -0.577 -0.577 -0.577
vn -0.577 -0.577 -0.577
vn -0.577 -0.577 -0.577
vn -0.577 -0.577 -0.577
vn -0.577 -0.577 -0.577
vn -0.577 -0.577 -0.577
vn -0.577 -0.577 -0.577
vn -0.577 -0.577 -0.577
vn 0.577 0.577 0.577
vn 0.577 0.577 0.577
vn 0.577 0.577 0.577
vn -0.577 -0.577 -0.577
vn -0.577 -0.577 -0.577
vn 0.577 0.577 0.577
vn 0.577 0.577 0.577
vn -0.577 -0.577 -0.577
vn -0.577 -0.577 -0.577
vn -0.577 -0.577 -0.577
vn 0.577 0.577 0.577
vn -0.577 -0.577 -0.577
vn -0.577 -0.577 -0.577
vn -0.577 -0.577 -0.577
vn 0.577 0.577 0.577
vn -0.577 -0.577 -0.577
vn -0.577 -0.577 -0.577
vn -0.577 -0.577 -0.577
vn -0.577 -0.577 -0.577
vn -0.577 -0.577 -0.577
vn 0.577 0.577 0.577
vn 0.577 0.577 0.577
vn 0.577 0.577 0.577
vn -0.577 -0.577 -0.577
vn -0.577 -0.577 -0.577
vn 0.577 0.577 0.577
vn -0.577 -0.577 -0.577
vn -0.577 -0.577 -0.577
vn 0.577 0.577 0.577
vn 0.577 0.577 0.577
vn 0.577 0.577 0.577
vn -0.577 -0.577 -0.577
vn -0.577 -0.577 -0.577
vn 0.577 0.577 0.577
vn -0.577 -0.577 -0.577
vn -0.577 -0.577 -0.577
vn -0.577 -0.577 -0.577
vn -0.577 -0.577 -0.577
vn -0.577 -0.577 -0.577
vn -0.577 -0.577 -0.577
vn -0.577 -0.577 -0.577
vn -0.577 -0.577 -0.577
vn -0.577 -0.577 -0.577
vn -0.577 -0.577 -0.577
vn -0.577 -0.577 -0.577
vn -0.577 -0.577 -0.577
vn -0.577 -0.577 -0.577
vn -0.577 -0.577 -0.577
vn -0.577 -0.577 -0.577
vn -0.577 -0.577 -0.577
vn -0.577 -0.577 -0.577
vn -0.577 -0.577 -0.577
vn -0.577 -0.577 -0.577
vn -0.577 -0.577 -0.577
vn -0.577 -0.577 -0.577
vn -0.577 -0.577 -0.577
vn -0.577 -0.577 -0.577
vn 0.577 0.577 0.577
vn 0.577 0.577 0.577
vn -0.577 -0.577 -0.577
vn 0.577 0.577 0.577
vn 0.577 0.577 0.577
vn -0.577 -0.577 -0.577
vn -0.577 -0.577 -0.577
vn -0.577 -0.577 -0.577
vn 0.577 0.577 0.577
vn 0.577 0.577 0.577
vn -0.577 -0.577 -0.577
vn -0.577 -0.577 -0.577
vn -0.577 -0.577 -0.577
vn -0.577 -0.577 -0.577
vn -0.577 -0.577 -0.577
vn -0.577 -0.577 -0.577
vn 0.577 0.577 0.577
vn 0.577 0.577 0.577
vn -0.577 -0.577 -0.577
vn -0.577 -0.577 -0.577
vn -0.577 -0.577 -0.577
vn -0.577 -0.577 -0.577
vn -0.577 -0.577 -0.577
vn 0.577 0.577 0.577
vn 0.577 0.577 0.577
vn -0.577 -0.577 -0.577
vn -0.577 -0.577 -0.577
vn 0.577 0.577 0.577
vn -0.577 -0.577 -0.577
vn -0.577 -0.577 -0.577
vn -0.577 -0.577 -0.577
vn -0.577 -0.577 -0.577
vn -0.577 -0.577 -0.577
vn 0.577 0.577 0.577
vn 0.577 0.577 0.577
vn 0.577 0.577 0.577
vn -0.577 -0.577 -0.577
vn -0.577 -0.577 -0.577
vn 0.577 0.577 0.577
vn -0.577 -0.577 -0.577
vn -0.577 -0.577 -0.577
vn 0.577 0.577 0.577
vn 0.577 0.577 0.577
vn 0.577 0.577 0.577
vn -0.577 -0.577 -0.577
vn -0.577 -0.577 -0.577
vn 0.577 0.577 0.577
vn -0.577 -0.577 -0.577
vn -0.577 -0.577 -0.577
vn -0.577 -0.577 -0.577
vn -0.577 -0.577 -0.577
vn -0.577 -0.577 -0.577
vn -0.577 -0.577 -0.577
vn -0.577 -0.577 -0.577
vn -0.577 -0.577 -0.577
vn 0.577 0.577 0.577
vn 0.577 0.577 0.577
vn 0.577 0.577 0.577
vn -0.577 -0.577 -0.577
vn -0.577 -0.577 -0.577
vn 0.577 0.577 0.577
vn -0.577 -0.577 -0.577
vn -0.577 -0.577 -0.577
vn 0.577 0.577 0.577
vn -0.577 -0.577 -0.577
vn 0.577 0.577 0.577
vn -0.577 -0.577 -0.577
vn -0.577 -0.577 -0.577
vn -0.577 -0.577 -0.577
usemtl tex_2020_lit_w01
f 1/1/1 2/2/2 3/3/3
f 4/4/4 2/2/2 1/1/1
f 5/5/5 6/6/6 1/1/1
f 4/4/4 7/7/7 8/8/8
f 7/7/7 1/1/1 6/6/6
f 4/4/4 1/1/1 7/7/7
f 8/8/8 9/9/9 3/3/3
f 8/8/8 3/3/3 2/2/2
f 7/7/7 10/10/10 8/8/8
f 9/9/9 5/5/5 3/3/3
f 7/7/7 6/6/6 5/5/5
f 3/3/3 5/5/5 1/1/1
f 2/2/2 4/4/4 8/8/8
f 10/10/10 7/7/7 5/5/5
usemtl tex_2011_lit_w01
f 11/11/11 12/11/12 13/11/13
f 12/11/12 14/11/14 15/11/15
f 15/11/15 14/11/14 16/11/16
f 14/11/14 17/11/17 16/11/16
f 17/11/17 18/11/18 16/11/16
f 17/11/17 19/11/19 18/11/18
f 19/11/19 12/11/12 11/11/11
f 19/11/19 11/11/11 18/11/18
usemtl tex_2021_lit_w11
f 26/12/26 27/13/27 20/14/20
f 26/12/26 20/14/20 21/15/21
usemtl tex_2022_lit_w01
f 28/16/28 22/17/22 23/18/23
f 29/19/29 28/16/28 23/18/23
f 30/20/30 24/21/24 25/22/25
f 28/16/28 25/22/25 22/17/22
f 28/16/28 30/20/30 25/22/25
f 30/20/30 31/23/31 24/21/24
usemtl tex_2011_lit_w01
f 37/24/37 32/25/32 38/26/38
f 33/27/33 32/25/32 37/24/37
f 39/28/39 33/27/33 37/24/37
f 34/29/34 33/27/33 39/28/39
f 40/30/40 34/29/34 39/28/39
f 35/31/35 34/29/34 40/30/40
f 41/32/41 35/31/35 40/30/40
f 32/25/32 36/33/36 38/26/38
usemtl tex_2012_lit_w01
f 42/34/42 43/35/43 44/36/44
f 45/37/45 46/38/46 47/39/47
f 43/35/43 48/40/48 44/36/44
f 47/39/47 43/35/43 42/34/42
f 49/41/49 46/38/46 45/37/45
f 48/40/48 46/38/46 49/41/49
f 44/36/44 48/40/48 49/41/49
f 45/37/45 47/39/47 42/34/42
f 42/34/42 44/36/44 49/41/49
f 42/34/42 49/41/49 45/37/45
f 50/40/50 51/35/51 47/39/47
f 50/40/50 47/39/47 46/38/46
usemtl tex_2011_lit_w01
f 52/42/52 53/43/53 57/44/57
f 58/45/58 54/46/54 55/47/55
f 59/48/59 55/47/55 56/49/56
f 59/48/59 58/45/58 55/47/55
f 52/42/52 57/44/57 60/50/60
f 53/43/53 61/51/61 57/44/57
f 56/49/56 52/42/52 60/50/60
f 60/50/60 59/48/59 56/49/56
f 62/45/62 63/48/63 69/29/69
f 70/31/70 62/45/62 69/29/69
f 64/44/64 65/51/65 71/33/71
f 72/25/72 64/44/64 71/33/71
usemtl tex_2017_lit_w11
f 73/52/73 66/53/66 74/54/74
f 67/55/67 66/53/66 73/52/73
f 75/56/75 67/55/67 73/52/73
f 66/53/66 68/57/68 74/54/74
usemtl tex_2012_lit_w01
f 76/58/76 77/59/77 78/35/78
f 79/40/79 77/59/77 80/60/80
f 81/61/81 82/39/82 83/38/83
f 83/38/83 79/40/79 80/60/80
f 76/58/76 78/35/78 82/39/82
f 77/59/77 79/40/79 78/35/78
f 81/61/81 76/58/76 82/39/82
f 81/61/81 83/38/83 80/60/80
f 84/60/84 85/59/85 86/58/86
f 84/60/84 86/58/86 87/61/87
f 88/40/88 83/38/83 82/39/82
f 88/40/88 82/39/82 89/35/89
usemtl tex_2020_lit_w01
f 90/62/90 91/63/91 92/64/92
f 92/64/92 91/63/91 93/65/93
f 92/64/92 94/66/94 95/67/95
f 96/68/96 97/69/97 93/65/93
f 94/66/94 92/64/92 97/69/97
f 97/69/97 92/64/92 93/65/93
f 90/62/90 98/70/98 96/68/96
f 91/63/91 90/62/90 96/68/96
f 96/68/96 99/71/99 97/69/97
f 90/62/90 95/67/95 98/70/98
f 97/69/97 99/71/99 95/67/95
f 92/64/92 95/67/95 90/62/90
f 96/68/96 93/65/93 91/63/91
f 94/66/94 97/69/97 95/67/95
usemtl tex_2011_lit_w01
f 100/11/100 101/11/101 102/11/102
f 102/11/102 101/11/101 103/11/103
f 102/11/102 103/11/103 104/11/104
f 104/11/104 105/11/105 102/11/102
f 105/11/105 104/11/104 106/11/106
f 106/11/106 104/11/104 107/11/107
f 101/11/101 100/11/100 106/11/106
f 106/11/106 107/11/107 101/11/101
usemtl tex_2021_lit_w11
f 108/72/108 115/73/115 116/74/116
f 109/75/109 108/72/108 116/74/116
usemtl tex_2022_lit_w01
f 110/76/110 111/77/111 117/78/117
f 110/76/110 117/78/117 118/79/118
f 112/80/112 113/81/113 119/82/119
f 111/77/111 114/83/114 117/78/117
f 114/83/114 120/84/120 117/78/117
f 113/81/113 121/85/121 119/82/119
usemtl tex_2011_lit_w01
f 127/86/127 122/87/122 128/88/128
f 123/89/123 124/90/124 129/91/129
f 127/86/127 125/92/125 122/87/122
f 128/88/128 122/87/122 123/89/123
f 129/91/129 124/90/124 130/93/130
f 130/93/130 124/90/124 126/94/126
f 130/93/130 126/94/126 131/95/131
f 128/88/128 123/89/123 129/91/129
usemtl tex_2012_lit_w01
f 132/96/132 133/97/133 134/98/134
f 135/99/135 136/100/136 137/101/137
f 132/96/132 138/102/138 133/97/133
f 134/98/134 133/97/133 135/99/135
f 137/101/137 136/100/136 139/103/139
f 139/103/139 136/100/136 138/102/138
f 139/103/139 138/102/138 132/96/132
f 134/98/134 135/99/135 137/101/137
f 137/101/137 139/103/139 132/96/132
f 137/101/137 132/96/132 134/98/134
f 136/100/136 135/99/135 140/97/140
f 136/100/136 140/97/140 141/102/141
usemtl tex_2011_lit_w01
f 149/104/149 142/105/142 143/106/143
f 144/107/144 145/108/145 150/109/150
f 151/110/151 152/111/152 146/112/146
f 144/107/144 150/109/150 151/110/151
f 152/111/152 149/104/149 143/106/143
f 153/113/153 150/109/150 145/108/145
f 152/111/152 143/106/143 146/112/146
usemtl tex_2018_lit_w11
f 147/114/147 154/115/154 148/116/148
usemtl tex_2011_lit_w01
f 162/90/162 155/110/155 156/109/156
f 162/90/162 156/109/156 163/94/163
f 163/94/163 156/109/156 157/113/157
f 164/92/164 158/104/158 165/87/165
usemtl tex_2017_lit_w11
f 166/117/166 159/118/159 167/119/167
f 166/117/166 160/120/160 159/118/159
f 168/121/168 160/120/160 166/117/166
f 168/121/168 161/122/161 160/120/160
usemtl tex_2012_lit_w01
f 169/97/169 170/123/170 171/124/171
f 172/125/172 170/123/170 173/102/173
f 174/100/174 175/99/175 176/126/176
f 172/125/172 173/102/173 174/100/174
f 175/99/175 169/97/169 171/124/171
f 169/97/169 173/102/173 170/123/170
f 175/99/175 171/124/171 176/126/176
f 172/125/172 174/100/174 176/126/176
f 177/126/177 178/124/178 179/123/179
f 177/126/177 179/123/179 180/125/180
f 181/97/181 175/99/175 174/100/174
f 181/97/181 174/100/174 182/102/182
usemtl tex_2016_lit_w01
f 183/127/183 188/128/188 189/129/189
f 190/130/190 184/131/184 185/132/185
f 184/131/184 191/133/191 183/127/183
f 191/133/191 188/128/188 183/127/183
f 186/134/186 183/127/183 189/129/189
f 186/134/186 189/129/189 192/135/192
f 186/134/186 192/135/192 187/136/187
f 192/135/192 185/132/185 187/136/187
f 192/135/192 190/130/190 185/132/185
f 184/131/184 190/130/190 191/133/191
usemtl tex_1609_lit
f 193/137/193 194/138/194 195/139/195
f 195/139/195 194/138/194 196/140/196
usemtl tex_1613_lit_w11
f 197/141/197 198/142/198 199/143/199
f 199/143/199 198/142/198 200/144/200
usemtl tex_1616_lit_w11
f 201/145/201 202/146/202 203/147/203
f 203/147/203 202/146/202 204/148/204
usemtl tex_1619_lit_w11
f 205/149/205 206/150/206 207/151/207
f 207/151/207 206/150/206 208/152/208
usemtl tex_1622_lit_w11
f 209/153/209 210/154/210 211/155/211
f 211/155/211 210/154/210 212/156/212
usemtl tex_2013_lit_w11
f 219/157/219 213/158/213 214/159/214
f 214/159/214 215/160/215 220/161/220
f 215/160/215 216/162/216 220/161/220
f 217/163/217 218/164/218 221/165/221
f 216/162/216 217/163/217 222/166/222
f 216/162/216 222/166/222 220/161/220
f 219/157/219 214/159/214 220/161/220
f 217/163/217 221/165/221 222/166/222
f 213/158/213 219/157/219 223/167/223
f 230/162/230 224/168/224 231/163/231
f 225/169/225 224/168/224 230/162/230
f 232/160/232 225/169/225 230/162/230
f 226/170/226 225/169/225 232/160/232
f 233/159/233 226/170/226 232/160/232
f 227/171/227 226/170/226 233/159/233
f 231/163/231 228/172/228 234/164/234
f 224/168/224 228/172/228 231/163/231
f 235/158/235 227/171/227 233/159/233
f 229/173/229 227/171/227 235/158/235
f 236/174/236 237/175/237 238/176/238
f 239/177/239 240/178/240 241/179/241
f 242/180/242 237/175/237 243/181/243
f 241/179/241 242/180/242 244/182/244
f 241/179/241 240/178/240 242/180/242
f 237/175/237 236/174/236 243/181/243
f 245/183/245 239/177/239 241/179/241
f 242/180/242 243/181/243 244/182/244
f 246/184/246 247/185/247 248/186/248
f 246/184/246 248/186/248 249/187/249
usemtl tex_2019_lit_w11
f 250/188/250 251/189/251 252/190/252
f 251/189/251 250/188/250 253/191/253
f 250/188/250 252/190/252 254/192/254
usemtl tex_2012_lit_w01
f 255/193/255 256/194/256 257/195/257
f 258/196/258 259/197/259 257/195/257
f 260/198/260 261/199/261 262/200/262
f 259/197/259 255/193/255 257/195/257
f 263/201/263 264/202/264 256/194/256
f 256/194/256 264/202/264 265/203/265
f 256/194/256 265/203/265 257/195/257
f 271/193/271 266/204/266 272/194/272
f 272/194/272 266/204/266 267/205/267
f 272/194/272 267/205/267 273/201/273
f 273/201/273 267/205/267 268/206/268
f 273/201/273 268/206/268 274/207/274
f 274/207/274 268/206/268 269/208/269
f 275/199/275 269/208/269 276/197/276
f 276/197/276 269/208/269 270/209/270
f 276/197/276 270/209/270 271/193/271
f 271/193/271 270/209/270 266/204/266
usemtl tex_2019_lit_w11
f 284/210/284 277/188/277 285/211/285
f 278/191/278 277/188/277 284/210/284
f 285/211/285 277/188/277 286/212/286
f 277/188/277 279/192/279 286/212/286
usemtl tex_2012_lit_w01
f 287/213/287 280/202/280 288/214/288
f 281/203/281 280/202/280 287/213/287
f 289/215/289 281/203/281 287/213/287
f 282/195/282 281/203/281 289/215/289
f 283/196/283 282/195/282 289/215/289
f 290/216/290 283/196/283 289/215/289
usemtl tex_2013_lit_w11
f 291/217/291 292/218/292 293/177/293
f 294/175/294 295/219/295 296/176/296
f 295/219/295 297/220/297 296/176/296
f 298/221/298 299/180/299 292/218/292
f 292/218/292 299/180/299 300/178/300
f 294/175/294 298/221/298 295/219/295
f 292/218/292 300/178/300 293/177/293
f 298/221/298 294/175/294 299/180/299
f 297/220/297 295/219/295 298/221/298
f 298/221/298 292/218/292 291/217/291
f 301/11/301 302/185/302 303/222/303
f 301/11/301 303/222/303 304/223/304
usemtl tex_1609_lit
f 305/224/305 306/225/306 307/226/307
f 308/227/308 306/225/306 305/224/305
usemtl tex_1613_lit_w11
f 309/228/309 310/229/310 311/230/311
f 312/231/312 310/229/310 309/228/309
usemtl tex_1616_lit_w11
f 313/232/313 314/233/314 315/234/315
f 316/235/316 314/233/314 313/232/313
usemtl tex_1619_lit_w11
f 317/236/317 318/237/318 319/238/319
f 320/239/320 318/237/318 317/236/317
usemtl tex_1622_lit_w11
f 321/240/321 322/241/322 323/242/323
f 324/243/324 322/241/322 321/240/321
usemtl tex_2013_lit_w11
f 325/244/325 326/245/326 331/246/331
f 332/247/332 327/248/327 328/249/328
f 332/247/332 329/250/329 327/248/327
f 333/251/333 326/245/326 330/252/330
f 334/253/334 330/252/330 329/250/329
f 332/247/332 334/253/334 329/250/329
f 332/247/332 328/249/328 335/254/335
f 334/253/334 333/251/333 330/252/330
f 333/251/333 331/246/331 326/245/326
f 342/252/342 336/255/336 343/250/343
f 343/250/343 336/255/336 337/256/337
f 343/250/343 337/256/337 344/248/344
f 344/248/344 337/256/337 338/257/338
f 344/248/344 338/257/338 345/249/345
f 345/249/345 338/257/338 339/258/339
f 346/245/346 340/259/340 342/252/342
f 342/252/342 340/259/340 336/255/336
f 347/244/347 341/260/341 346/245/346
f 346/245/346 341/260/341 340/259/340
f 348/261/348 349/262/349 350/263/350
f 351/264/351 352/265/352 348/261/348
f 353/266/353 349/262/349 354/267/354
f 355/268/355 354/267/354 351/264/351
f 354/267/354 352/265/352 351/264/351
f 353/266/353 350/263/350 349/262/349
f 351/264/351 348/261/348 350/263/350
f 355/268/355 353/266/353 354/267/354
f 349/262/349 356/261/356 357/265/357
f 349/262/349 357/265/357 354/267/354
usemtl tex_2012_lit_w01
f 358/269/358 359/270/359 360/271/360
f 358/269/358 361/272/361 362/273/362
f 363/274/363 364/275/364 365/276/365
f 358/269/358 360/271/360 361/272/361
f 366/277/366 363/274/363 365/276/365
f 367/278/367 363/274/363 366/277/366
f 361/272/361 364/275/364 368/279/368
f 358/269/358 369/280/369 359/270/359
f 363/274/363 368/279/368 364/275/364
f 362/273/362 361/272/361 368/279/368
f 376/270/376 370/281/370 377/271/377
f 371/282/371 370/281/370 376/270/376
f 378/283/378 371/282/371 376/270/376
f 372/284/372 371/282/371 378/283/378
f 379/275/379 373/285/373 380/276/380
f 374/286/374 373/285/373 379/275/379
f 381/272/381 374/286/374 379/275/379
f 375/287/375 374/286/374 381/272/381
f 377/271/377 375/287/375 381/272/381
f 370/281/370 375/287/375 377/271/377
f 388/288/388 382/279/382 389/289/389
f 389/289/389 382/279/382 383/274/383
f 389/289/389 383/274/383 390/290/390
f 390/290/390 383/274/383 384/278/384
f 391/291/391 385/280/385 392/292/392
f 392/292/392 385/280/385 386/269/386
f 393/293/393 382/279/382 388/288/388
f 392/292/392 386/269/386 387/273/387
f 392/292/392 387/273/387 393/293/393
f 393/293/393 387/273/387 382/279/382
usemtl tex_2013_lit_w11
f 394/294/394 395/295/395 396/296/396
f 396/296/396 397/297/397 394/294/394
f 398/261/398 396/296/396 395/295/395
f 398/261/398 394/294/394 399/262/399
f 398/261/398 395/295/395 394/294/394
f 396/296/396 400/267/400 397/297/397
f 401/265/401 400/267/400 396/296/396
f 394/294/394 397/297/397 399/262/399
f 398/261/398 401/265/401 396/296/396
f 400/267/400 399/262/399 397/297/397
f 400/267/400 402/265/402 403/261/403
f 400/267/400 403/261/403 399/262/399
usemtl tex_2023_lit_w11
f 404/298/404 405/299/405 406/300/406
f 404/298/404 407/301/407 405/299/405
f 406/300/406 408/302/408 409/303/409
f 410/304/410 409/303/409 411/305/411
f 412/306/412 413/307/413 414/308/414
f 410/304/410 406/300/406 409/303/409
f 410/304/410 404/298/404 406/300/406
f 415/309/415 416/310/416 417/311/417
f 416/310/416 406/300/406 417/311/417
f 409/303/409 414/308/414 418/312/418
f 408/302/408 412/306/412 409/303/409
f 419/313/419 410/304/410 411/305/411
f 416/310/416 408/302/408 406/300/406
f 411/305/411 409/303/409 418/312/418
f 420/313/420 421/305/421 422/314/422
f 423/303/423 424/306/424 425/308/425
f 426/302/426 427/315/427 424/306/424
f 428/307/428 424/306/424 427/315/427
f 421/305/421 429/312/429 422/314/422
usemtl tex_2024_lit_w11
f 430/316/430 431/317/431 432/318/432
f 433/319/433 430/316/430 434/320/434
f 434/320/434 430/316/430 432/318/432
f 435/321/435 436/322/436 437/317/437
f 438/323/438 436/322/436 435/321/435
f 439/324/439 440/325/440 441/326/441
f 442/327/442 443/316/443 444/319/444
f 442/327/442 444/319/444 441/326/441
f 445/328/445 442/327/442 441/326/441
f 444/319/444 439/324/439 441/326/441
f 445/328/445 446/329/446 438/323/438
f 447/330/447 448/331/448 449/332/449
f 450/318/450 448/331/448 447/330/447
f 451/317/451 452/322/452 453/333/453
f 454/328/454 455/323/455 456/327/456
f 457/334/457 453/333/453 452/322/452
f 458/321/458 459/316/459 456/327/456
f 455/323/455 458/321/458 456/327/456
f 459/316/459 458/321/458 451/317/451
f 460/320/460 461/330/461 462/324/462
f 460/320/460 463/318/463 461/330/461
f 464/319/464 460/320/460 462/324/462
usemtl tex_2023_lit_w11
f 465/335/465 473/312/473 466/336/466
f 466/336/466 474/308/474 467/337/467
f 466/336/466 473/312/473 474/308/474
f 468/338/468 475/314/475 465/335/465
f 465/335/465 475/314/475 473/312/473
f 467/337/467 474/308/474 476/307/476
usemtl tex_2024_lit_w11
f 469/339/469 477/331/477 470/340/470
f 470/340/470 477/331/477 478/318/478
f 470/340/470 478/318/478 471/341/471
f 471/341/471 478/318/478 479/317/479
f 471/341/471 479/317/479 472/342/472
f 472/342/472 479/317/479 480/333/480
usemtl tex_2023_lit_w11
f 481/343/481 482/344/482 483/345/483
f 484/343/484 485/346/485 486/347/486
f 482/344/482 481/343/481 487/348/487
f 484/343/484 488/345/488 485/346/485
f 489/349/489 490/350/490 485/346/485
f 490/350/490 486/347/486 485/346/485
usemtl tex_2024_lit_w11
f 491/351/491 492/352/492 493/353/493
f 494/354/494 491/351/491 493/353/493
f 495/355/495 496/356/496 497/357/497
f 498/358/498 499/359/499 500/360/500
f 496/356/496 501/361/501 497/357/497
f 502/362/502 500/360/500 499/359/499
usemtl tex_2011_lit_w01
f 503/363/503 504/364/504 505/365/505
f 506/366/506 507/367/507 508/368/508
f 503/363/503 506/366/506 509/369/509
f 507/367/507 510/370/510 511/371/511
f 512/372/512 513/373/513 514/374/514
f 512/372/512 509/369/509 515/375/515
f 516/376/516 513/373/513 517/377/517
f 509/369/509 512/372/512 514/374/514
f 504/364/504 516/376/516 505/365/505
f 505/365/505 516/376/516 518/378/518
f 518/378/518 516/376/516 517/377/517
f 519/379/519 520/373/520 521/372/521
f 522/377/522 523/380/523 524/378/524
f 525/369/525 526/366/526 527/368/527
f 527/368/527 528/367/528 529/371/529
f 525/369/525 527/368/527 530/375/530
usemtl tex_2018_lit_w11
f 531/116/531 532/381/532 533/114/533
f 531/116/531 534/382/534 532/381/532
usemtl tex_2023_lit_w11
f 535/383/535 543/335/543 536/384/536
f 536/384/536 543/335/543 544/336/544
f 536/384/536 544/336/544 537/385/537
f 537/385/537 544/336/544 545/337/545
f 538/386/538 546/338/546 535/383/535
f 535/383/535 546/338/546 543/335/543
usemtl tex_2024_lit_w11
f 539/387/539 547/339/547 540/388/540
f 540/388/540 547/339/547 548/340/548
f 540/388/540 548/340/548 541/389/541
f 541/389/541 548/340/548 549/341/549
f 541/389/541 549/341/549 542/390/542
f 542/390/542 549/341/549 550/342/550
usemtl tex_2023_lit_w11
f 551/391/551 552/392/552 553/393/553
f 554/394/554 551/391/551 553/393/553
f 555/395/555 556/394/556 557/396/557
f 555/395/555 558/391/558 556/394/556
f 559/397/559 553/393/553 552/392/552
f 559/397/559 552/392/552 560/398/560
usemtl tex_2024_lit_w11
f 561/399/561 562/400/562 563/401/563
f 561/399/561 563/401/563 564/402/564
f 565/403/565 566/404/566 567/405/567
f 565/403/565 568/406/568 566/404/566
f 569/407/569 570/408/570 571/409/571
f 571/409/571 570/408/570 572/410/572
