mtllib CvalentinZ.mtl
v -1029.3098754882812 -64.97167778015137 -93.0 1.000 1.000 1.000
v -1029.3098754882812 -162.97167778015137 -87.0 1.000 1.000 1.000
v -1029.3098754882812 -21.971677780151367 191.0 1.000 1.000 1.000
v -1029.3098754882812 -156.97167778015137 200.0 1.000 1.000 1.000
v -981.3098754882812 -42.97167778015137 177.0 1.000 1.000 1.000
v -929.3098754882812 -59.97167778015137 -1.0 1.000 1.000 1.000
v -904.3098754882812 -67.97167778015137 -88.0 1.000 1.000 1.000
v -902.3098754882812 -142.97167778015137 -76.0 1.000 1.000 1.000
v -927.3098754882812 -133.97167778015137 11.0 1.000 1.000 1.000
v -983.3098754882812 -112.97167778015137 203.0 1.000 1.000 1.000
v -607.6355895996094 -36.888587951660156 118.0 1.000 1.000 1.000
v -931.6355895996094 -6.888587951660156 100.0 1.000 1.000 1.000
v -931.6355895996094 -181.88858795166016 100.0 1.000 1.000 1.000
v -612.6355895996094 7.111412048339844 21.0 1.000 1.000 1.000
v -623.6355895996094 -45.888587951660156 -73.0 1.000 1.000 1.000
v -931.6355895996094 -5.888587951660156 -95.0 1.000 1.000 1.000
v -621.6355895996094 -145.88858795166016 -69.0 1.000 1.000 1.000
v -612.6355895996094 -195.88858795166016 20.0 1.000 1.000 1.000
v -933.6355895996094 -180.88858795166016 -96.0 1.000 1.000 1.000
v -608.6355895996094 -168.88858795166016 117.0 1.000 1.000 1.000
v -931.6355895996094 -5.888587951660156 -95.0 1.000 1.000 1.000
v -931.6355895996094 -6.888587951660156 100.0 1.000 1.000 1.000
v -931.6355895996094 -181.88858795166016 100.0 1.000 1.000 1.000
v -933.6355895996094 -180.88858795166016 -96.0 1.000 1.000 1.000
v -904.3098754882812 -67.97167778015137 -88.0 1.000 1.000 1.000
v -929.3098754882812 -59.97167778015137 -1.0 1.000 1.000 1.000
v -927.3098754882812 -133.97167778015137 11.0 1.000 1.000 1.000
v -902.3098754882812 -142.97167778015137 -76.0 1.000 1.000 1.000
v -514.6355895996094 8.111412048339844 20.0 1.000 1.000 1.000
v -527.6355895996094 -37.888587951660156 -53.0 1.000 1.000 1.000
v -528.6355895996094 -143.88858795166016 -64.0 1.000 1.000 1.000
v -520.6355895996094 -195.88858795166016 19.0 1.000 1.000 1.000
v -514.6355895996094 -167.88858795166016 117.0 1.000 1.000 1.000
v -514.6355895996094 -30.888587951660156 113.0 1.000 1.000 1.000
v -607.6355895996094 -36.888587951660156 118.0 1.000 1.000 1.000
v -612.6355895996094 7.111412048339844 21.0 1.000 1.000 1.000
v -623.6355895996094 -45.888587951660156 -73.0 1.000 1.000 1.000
v -621.6355895996094 -145.88858795166016 -69.0 1.000 1.000 1.000
v -612.6355895996094 -195.88858795166016 20.0 1.000 1.000 1.000
v -608.6355895996094 -168.88858795166016 117.0 1.000 1.000 1.000
v -929.6355895996094 -155.88858795166016 100.0 1.000 1.000 1.000
v -525.6355895996094 -117.88858795166016 117.0 1.000 1.000 1.000
v -936.6355895996094 -1.8885879516601562 90.0 1.000 1.000 1.000
v -516.6355895996094 5.111412048339844 58.0 1.000 1.000 1.000
v -519.6355895996094 -87.88858795166016 -68.0 1.000 1.000 1.000
v -935.6355895996094 -42.888587951660156 -99.0 1.000 1.000 1.000
v -520.6355895996094 -196.88858795166016 29.0 1.000 1.000 1.000
v -931.6355895996094 -186.88858795166016 -71.0 1.000 1.000 1.000
v -525.6355895996094 -117.88858795166016 117.0 1.000 1.000 1.000
v -520.6355895996094 -196.88858795166016 29.0 1.000 1.000 1.000
v -289.42108154296875 -169.7675018310547 119.0 1.000 1.000 1.000
v -291.42108154296875 -196.7675018310547 21.0 1.000 1.000 1.000
v -291.42108154296875 -194.7675018310547 264.0 1.000 1.000 1.000
v -291.42108154296875 -138.7675018310547 247.0 1.000 1.000 1.000
v -289.42108154296875 -26.767501831054688 130.0 1.000 1.000 1.000
v -291.42108154296875 -16.767501831054688 140.0 1.000 1.000 1.000
v -288.42108154296875 2.2324981689453125 22.0 1.000 1.000 1.000
v -291.42108154296875 46.23249816894531 13.0 1.000 1.000 1.000
v -288.42108154296875 -39.76750183105469 -63.0 1.000 1.000 1.000
v -291.42108154296875 10.232498168945312 -64.0 1.000 1.000 1.000
v -291.42108154296875 -146.7675018310547 -62.0 1.000 1.000 1.000
v -291.42108154296875 -135.7675018310547 -120.0 1.000 1.000 1.000
v -291.42108154296875 -194.7675018310547 -126.0 1.000 1.000 1.000
v -466.42108154296875 -197.7675018310547 20.0 1.000 1.000 1.000
v -291.42108154296875 -196.7675018310547 21.0 1.000 1.000 1.000
v -289.42108154296875 -169.7675018310547 119.0 1.000 1.000 1.000
v -288.42108154296875 -39.76750183105469 -63.0 1.000 1.000 1.000
v -291.42108154296875 -146.7675018310547 -62.0 1.000 1.000 1.000
v -463.42108154296875 -147.7675018310547 -66.0 1.000 1.000 1.000
v -408.42108154296875 -46.76750183105469 -67.0 1.000 1.000 1.000
v -416.42108154296875 8.232498168945312 19.0 1.000 1.000 1.000
v -291.42108154296875 -196.7675018310547 21.0 1.000 1.000 1.000
v -411.42108154296875 -35.76750183105469 119.0 1.000 1.000 1.000
v -436.42108154296875 -169.7675018310547 119.0 1.000 1.000 1.000
v -289.42108154296875 -26.767501831054688 130.0 1.000 1.000 1.000
v -288.42108154296875 2.2324981689453125 22.0 1.000 1.000 1.000
v -289.42108154296875 -169.7675018310547 119.0 1.000 1.000 1.000
v -466.42108154296875 -197.7675018310547 20.0 1.000 1.000 1.000
v -6.0 -146.0 264.0 1.000 1.000 1.000
v -5.0 -121.0 -108.0 1.000 1.000 1.000
v -153.0 -75.0 -104.0 1.000 1.000 1.000
v -111.0 -103.0 -110.0 1.000 1.000 1.000
v -5.0 -121.0 -108.0 1.000 1.000 1.000
v -236.0 -5.0 23.0 1.000 1.000 1.000
v -6.0 -146.0 264.0 1.000 1.000 1.000
v -291.42108154296875 -194.7675018310547 -126.0 1.000 1.000 1.000
v -291.42108154296875 -194.7675018310547 264.0 1.000 1.000 1.000
v -291.42108154296875 10.232498168945312 -64.0 1.000 1.000 1.000
v -291.42108154296875 -135.7675018310547 -120.0 1.000 1.000 1.000
v -291.42108154296875 46.23249816894531 13.0 1.000 1.000 1.000
v -291.42108154296875 -194.7675018310547 -126.0 1.000 1.000 1.000
v -291.42108154296875 -138.7675018310547 247.0 1.000 1.000 1.000
v -291.42108154296875 -194.7675018310547 264.0 1.000 1.000 1.000
v -126.0 -91.0 181.0 1.000 1.000 1.000
v -236.0 -5.0 23.0 1.000 1.000 1.000
v -6.0 -146.0 264.0 1.000 1.000 1.000
v -291.42108154296875 -16.767501831054688 140.0 1.000 1.000 1.000
v -291.42108154296875 -138.7675018310547 247.0 1.000 1.000 1.000
v -291.42108154296875 46.23249816894531 13.0 1.000 1.000 1.000
v -416.42108154296875 8.232498168945312 19.0 1.000 1.000 1.000
v -408.42108154296875 -46.76750183105469 -67.0 1.000 1.000 1.000
v -463.42108154296875 -147.7675018310547 -66.0 1.000 1.000 1.000
v -466.42108154296875 -197.7675018310547 20.0 1.000 1.000 1.000
v -436.42108154296875 -169.7675018310547 119.0 1.000 1.000 1.000
v -411.42108154296875 -35.76750183105469 119.0 1.000 1.000 1.000
v -514.6355895996094 8.111412048339844 20.0 1.000 1.000 1.000
v -527.6355895996094 -37.888587951660156 -53.0 1.000 1.000 1.000
v -528.6355895996094 -143.88858795166016 -64.0 1.000 1.000 1.000
v -520.6355895996094 -195.88858795166016 19.0 1.000 1.000 1.000
v -514.6355895996094 -167.88858795166016 117.0 1.000 1.000 1.000
v -514.6355895996094 -30.888587951660156 113.0 1.000 1.000 1.000
v -525.4210815429688 -117.76750183105469 117.0 1.000 1.000 1.000
v -292.42108154296875 -191.7675018310547 37.0 1.000 1.000 1.000
v -294.42108154296875 -140.7675018310547 132.0 1.000 1.000 1.000
v -290.42108154296875 -104.76750183105469 -74.0 1.000 1.000 1.000
v -520.4210815429688 -196.7675018310547 29.0 1.000 1.000 1.000
v -519.4210815429688 -87.76750183105469 -68.0 1.000 1.000 1.000
v -517.4210815429688 5.2324981689453125 58.0 1.000 1.000 1.000
v -291.42108154296875 1.2324981689453125 45.0 1.000 1.000 1.000
v -291.42108154296875 1.2324981689453125 45.0 1.000 1.000 1.000
v -294.42108154296875 -140.7675018310547 132.0 1.000 1.000 1.000
v -292.42108154296875 -191.7675018310547 37.0 1.000 1.000 1.000
v -290.42108154296875 -104.76750183105469 -74.0 1.000 1.000 1.000
v -525.4210815429688 -117.76750183105469 117.0 1.000 1.000 1.000
v -520.4210815429688 -196.7675018310547 29.0 1.000 1.000 1.000
v 1039.4254989624023 -33.45373010635376 190.0 1.000 1.000 1.000
v 1039.4254989624023 -179.45373010635376 -87.0 1.000 1.000 1.000
v 1039.4254989624023 -78.45373010635376 -93.0 1.000 1.000 1.000
v 1039.4254989624023 -172.45373010635376 200.0 1.000 1.000 1.000
v 912.4254989624023 -68.45373010635376 -82.0 1.000 1.000 1.000
v 943.4254989624023 -79.45373010635376 19.0 1.000 1.000 1.000
v 991.4254989624023 -72.45373010635376 177.0 1.000 1.000 1.000
v 993.4254989624023 -132.45373010635376 203.0 1.000 1.000 1.000
v 944.4254989624023 -149.45373010635376 36.0 1.000 1.000 1.000
v 911.4254989624023 -160.45373010635376 -75.0 1.000 1.000 1.000
v 942.0373153686523 -192.46639728546143 101.0 1.000 1.000 1.000
v 942.0373153686523 -20.466397285461426 100.0 1.000 1.000 1.000
v 618.0373153686523 -53.466397285461426 118.0 1.000 1.000 1.000
v 943.0373153686523 -20.466397285461426 -95.0 1.000 1.000 1.000
v 634.0373153686523 -61.466397285461426 -77.0 1.000 1.000 1.000
v 622.0373153686523 1.5336027145385742 19.0 1.000 1.000 1.000
v 942.0373153686523 -193.46639728546143 -96.0 1.000 1.000 1.000
v 632.0373153686523 -162.46639728546143 -76.0 1.000 1.000 1.000
v 622.0373153686523 -203.46639728546143 21.0 1.000 1.000 1.000
v 618.0373153686523 -182.46639728546143 117.0 1.000 1.000 1.000
v 942.0373153686523 -20.466397285461426 100.0 1.000 1.000 1.000
v 943.0373153686523 -20.466397285461426 -95.0 1.000 1.000 1.000
v 942.0373153686523 -193.46639728546143 -96.0 1.000 1.000 1.000
v 942.0373153686523 -192.46639728546143 101.0 1.000 1.000 1.000
v 912.4254989624023 -68.45373010635376 -82.0 1.000 1.000 1.000
v 911.4254989624023 -160.45373010635376 -75.0 1.000 1.000 1.000
v 944.4254989624023 -149.45373010635376 36.0 1.000 1.000 1.000
v 943.4254989624023 -79.45373010635376 19.0 1.000 1.000 1.000
v 538.0373153686523 2.533602714538574 20.0 1.000 1.000 1.000
v 524.0373153686523 -54.466397285461426 119.0 1.000 1.000 1.000
v 537.0373153686523 -161.46639728546143 -64.0 1.000 1.000 1.000
v 537.0373153686523 -61.466397285461426 -67.0 1.000 1.000 1.000
v 530.0373153686523 -209.46639728546143 19.0 1.000 1.000 1.000
v 524.0373153686523 -180.46639728546143 113.0 1.000 1.000 1.000
v 618.0373153686523 -53.466397285461426 118.0 1.000 1.000 1.000
v 622.0373153686523 1.5336027145385742 19.0 1.000 1.000 1.000
v 634.0373153686523 -61.466397285461426 -77.0 1.000 1.000 1.000
v 618.0373153686523 -182.46639728546143 117.0 1.000 1.000 1.000
v 632.0373153686523 -162.46639728546143 -76.0 1.000 1.000 1.000
v 622.0373153686523 -203.46639728546143 21.0 1.000 1.000 1.000
v 947.0373153686523 -1.4663972854614258 91.0 1.000 1.000 1.000
v 535.0373153686523 -127.46639728546143 118.0 1.000 1.000 1.000
v 940.0373153686523 -162.46639728546143 100.0 1.000 1.000 1.000
v 946.0373153686523 -44.466397285461426 -98.0 1.000 1.000 1.000
v 530.0373153686523 -99.46639728546143 -68.0 1.000 1.000 1.000
v 527.0373153686523 -9.466397285461426 59.0 1.000 1.000 1.000
v 530.0373153686523 -203.46639728546143 29.0 1.000 1.000 1.000
v 941.0373153686523 -193.46639728546143 -71.0 1.000 1.000 1.000
v 530.0373153686523 -203.46639728546143 29.0 1.000 1.000 1.000
v 535.0373153686523 -127.46639728546143 118.0 1.000 1.000 1.000
v 301.07466888427734 -208.63574981689453 21.0 1.000 1.000 1.000
v 301.07466888427734 -210.63574981689453 -126.0 1.000 1.000 1.000
v 298.07466888427734 -161.63574981689453 -63.0 1.000 1.000 1.000
v 297.07466888427734 -121.63574981689453 -119.0 1.000 1.000 1.000
v 296.07466888427734 -53.63574981689453 -65.0 1.000 1.000 1.000
v 297.07466888427734 5.364250183105469 -69.0 1.000 1.000 1.000
v 297.07466888427734 0.36425018310546875 20.0 1.000 1.000 1.000
v 297.07466888427734 54.36425018310547 13.0 1.000 1.000 1.000
v 297.07466888427734 -52.63574981689453 123.0 1.000 1.000 1.000
v 297.07466888427734 -20.63574981689453 139.0 1.000 1.000 1.000
v 299.07466888427734 -182.63574981689453 122.0 1.000 1.000 1.000
v 297.07466888427734 -155.63574981689453 247.0 1.000 1.000 1.000
v 301.07466888427734 -211.63574981689453 264.0 1.000 1.000 1.000
v 299.07466888427734 -182.63574981689453 122.0 1.000 1.000 1.000
v 301.07466888427734 -208.63574981689453 21.0 1.000 1.000 1.000
v 476.07466888427734 -208.63574981689453 20.0 1.000 1.000 1.000
v 474.07466888427734 -162.63574981689453 -67.0 1.000 1.000 1.000
v 298.07466888427734 -161.63574981689453 -63.0 1.000 1.000 1.000
v 296.07466888427734 -53.63574981689453 -65.0 1.000 1.000 1.000
v 427.07466888427734 6.364250183105469 20.0 1.000 1.000 1.000
v 419.07466888427734 -62.63574981689453 -69.0 1.000 1.000 1.000
v 301.07466888427734 -208.63574981689453 21.0 1.000 1.000 1.000
v 297.07466888427734 -52.63574981689453 123.0 1.000 1.000 1.000
v 446.07466888427734 -182.63574981689453 119.0 1.000 1.000 1.000
v 421.07466888427734 -51.63574981689453 119.0 1.000 1.000 1.000
v 297.07466888427734 0.36425018310546875 20.0 1.000 1.000 1.000
v 299.07466888427734 -182.63574981689453 122.0 1.000 1.000 1.000
v 476.07466888427734 -208.63574981689453 20.0 1.000 1.000 1.000
v -6.0 -146.0 264.0 1.000 1.000 1.000
v -5.0 -121.0 -108.0 1.000 1.000 1.000
v 139.0 -73.0 -107.0 1.000 1.000 1.000
v 240.0 -4.0 25.0 1.000 1.000 1.000
v 94.0 -103.0 -110.0 1.000 1.000 1.000
v -5.0 -121.0 -108.0 1.000 1.000 1.000
v 114.0 -88.0 184.0 1.000 1.000 1.000
v 240.0 -4.0 25.0 1.000 1.000 1.000
v 301.07466888427734 -210.63574981689453 -126.0 1.000 1.000 1.000
v 301.07466888427734 -211.63574981689453 264.0 1.000 1.000 1.000
v 297.07466888427734 5.364250183105469 -69.0 1.000 1.000 1.000
v 297.07466888427734 -121.63574981689453 -119.0 1.000 1.000 1.000
v 301.07466888427734 -210.63574981689453 -126.0 1.000 1.000 1.000
v 297.07466888427734 54.36425018310547 13.0 1.000 1.000 1.000
v 297.07466888427734 -155.63574981689453 247.0 1.000 1.000 1.000
v 297.07466888427734 -20.63574981689453 139.0 1.000 1.000 1.000
v -6.0 -146.0 264.0 1.000 1.000 1.000
v 114.0 -88.0 184.0 1.000 1.000 1.000
v 240.0 -4.0 25.0 1.000 1.000 1.000
v 297.07466888427734 -155.63574981689453 247.0 1.000 1.000 1.000
v 301.07466888427734 -211.63574981689453 264.0 1.000 1.000 1.000
v 297.07466888427734 -20.63574981689453 139.0 1.000 1.000 1.000
v 297.07466888427734 54.36425018310547 13.0 1.000 1.000 1.000
v 427.07466888427734 6.364250183105469 20.0 1.000 1.000 1.000
v 419.07466888427734 -62.63574981689453 -69.0 1.000 1.000 1.000
v 474.07466888427734 -162.63574981689453 -67.0 1.000 1.000 1.000
v 476.07466888427734 -208.63574981689453 20.0 1.000 1.000 1.000
v 446.07466888427734 -182.63574981689453 119.0 1.000 1.000 1.000
v 421.07466888427734 -51.63574981689453 119.0 1.000 1.000 1.000
v 537.0373153686523 -61.466397285461426 -67.0 1.000 1.000 1.000
v 538.0373153686523 2.533602714538574 20.0 1.000 1.000 1.000
v 537.0373153686523 -161.46639728546143 -64.0 1.000 1.000 1.000
v 530.0373153686523 -209.46639728546143 19.0 1.000 1.000 1.000
v 524.0373153686523 -180.46639728546143 113.0 1.000 1.000 1.000
v 524.0373153686523 -54.466397285461426 119.0 1.000 1.000 1.000
v 304.07466888427734 -150.63574981689453 132.0 1.000 1.000 1.000
v 302.07466888427734 -199.63574981689453 37.0 1.000 1.000 1.000
v 535.0746688842773 -127.63574981689453 118.0 1.000 1.000 1.000
v 530.0746688842773 -203.63574981689453 29.0 1.000 1.000 1.000
v 301.07466888427734 -115.63574981689453 -74.0 1.000 1.000 1.000
v 301.07466888427734 -13.635749816894531 45.0 1.000 1.000 1.000
v 527.0746688842773 -9.635749816894531 59.0 1.000 1.000 1.000
v 530.0746688842773 -98.63574981689453 -68.0 1.000 1.000 1.000
v 301.07466888427734 -115.63574981689453 -74.0 1.000 1.000 1.000
v 302.07466888427734 -199.63574981689453 37.0 1.000 1.000 1.000
v 304.07466888427734 -150.63574981689453 132.0 1.000 1.000 1.000
v 301.07466888427734 -13.635749816894531 45.0 1.000 1.000 1.000
v 530.0746688842773 -203.63574981689453 29.0 1.000 1.000 1.000
v 535.0746688842773 -127.63574981689453 118.0 1.000 1.000 1.000
v -295.89227294921875 380.50817000865936 115.0 1.000 1.000 1.000
v -216.89227294921875 423.50817000865936 0.0 1.000 1.000 1.000
v -295.89227294921875 380.50817000865936 115.0 1.000 1.000 1.000
v -369.89227294921875 424.50817000865936 0.0 1.000 1.000 1.000
v -369.89227294921875 424.50817000865936 0.0 1.000 1.000 1.000
v -365.89227294921875 387.50817000865936 -41.0 1.000 1.000 1.000
v -223.89227294921875 387.50817000865936 -39.0 1.000 1.000 1.000
v -216.89227294921875 423.50817000865936 0.0 1.000 1.000 1.000
v -2.9735469818115234 411.9051818847656 101.0 1.000 1.000 1.000
v -65.97354698181152 437.9051818847656 54.0 1.000 1.000 1.000
v 64.02645301818848 436.9051818847656 54.0 1.000 1.000 1.000
v 64.02645301818848 436.9051818847656 54.0 1.000 1.000 1.000
v -65.97354698181152 437.9051818847656 54.0 1.000 1.000 1.000
v -65.97354698181152 437.9051818847656 54.0 1.000 1.000 1.000
v -45.97354698181152 453.9051818847656 -32.0 1.000 1.000 1.000
v 43.02645301818848 452.9051818847656 -33.0 1.000 1.000 1.000
v -216.89227294921875 423.50817000865936 0.0 1.000 1.000 1.000
v 43.02645301818848 452.9051818847656 -33.0 1.000 1.000 1.000
v 64.02645301818848 436.9051818847656 54.0 1.000 1.000 1.000
v -5.973546981811523 534.9051818847656 146.0 1.000 1.000 1.000
v 72.02645301818848 633.9051818847656 112.0 1.000 1.000 1.000
v -6.973546981811523 610.9051818847656 132.0 1.000 1.000 1.000
v -77.97354698181152 631.9051818847656 112.0 1.000 1.000 1.000
v -60.97354698181152 530.9051818847656 118.0 1.000 1.000 1.000
v -16.973546981811523 483.9051818847656 169.0 1.000 1.000 1.000
v 7.026453018188477 483.9051818847656 169.0 1.000 1.000 1.000
v -5.973546981811523 656.9051818847656 56.0 1.000 1.000 1.000
v 25.026453018188477 413.9051818847656 140.0 1.000 1.000 1.000
v -31.973546981811523 410.9051818847656 140.0 1.000 1.000 1.000
v -5.973546981811523 404.9051818847656 140.0 1.000 1.000 1.000
v 52.02645301818848 528.9051818847656 120.0 1.000 1.000 1.000
v -57.97354698181152 591.9051818847656 -73.0 1.000 1.000 1.000
v 53.02645301818848 591.9051818847656 -73.0 1.000 1.000 1.000
v -25.973546981811523 483.9051818847656 151.0 1.000 1.000 1.000
v 17.026453018188477 483.9051818847656 151.0 1.000 1.000 1.000
v -22.973546981811523 411.9051818847656 101.0 1.000 1.000 1.000
v -2.9735469818115234 411.9051818847656 101.0 1.000 1.000 1.000
v -5.973546981811523 404.9051818847656 140.0 1.000 1.000 1.000
v 16.026453018188477 411.9051818847656 101.0 1.000 1.000 1.000
v 25.026453018188477 413.9051818847656 140.0 1.000 1.000 1.000
v -31.973546981811523 410.9051818847656 140.0 1.000 1.000 1.000
v -25.973546981811523 483.9051818847656 151.0 1.000 1.000 1.000
v -5.973546981811523 534.9051818847656 146.0 1.000 1.000 1.000
v -60.97354698181152 530.9051818847656 118.0 1.000 1.000 1.000
v -16.973546981811523 483.9051818847656 169.0 1.000 1.000 1.000
v 17.026453018188477 483.9051818847656 151.0 1.000 1.000 1.000
v 52.02645301818848 528.9051818847656 120.0 1.000 1.000 1.000
v 7.026453018188477 483.9051818847656 169.0 1.000 1.000 1.000
v 25.026453018188477 413.9051818847656 140.0 1.000 1.000 1.000
v 64.02645301818848 436.9051818847656 54.0 1.000 1.000 1.000
v 52.02645301818848 528.9051818847656 120.0 1.000 1.000 1.000
v 53.02645301818848 591.9051818847656 -73.0 1.000 1.000 1.000
v -5.973546981811523 656.9051818847656 56.0 1.000 1.000 1.000
v 72.02645301818848 633.9051818847656 112.0 1.000 1.000 1.000
v 90.02645301818848 526.9051818847656 31.0 1.000 1.000 1.000
v 52.02645301818848 528.9051818847656 120.0 1.000 1.000 1.000
v 76.02645301818848 460.9051818847656 27.0 1.000 1.000 1.000
v 45.02645301818848 451.9051818847656 -46.0 1.000 1.000 1.000
v 64.02645301818848 436.9051818847656 54.0 1.000 1.000 1.000
v 25.026453018188477 413.9051818847656 140.0 1.000 1.000 1.000
v 16.026453018188477 411.9051818847656 101.0 1.000 1.000 1.000
v -2.9735469818115234 411.9051818847656 101.0 1.000 1.000 1.000
v -60.97354698181152 530.9051818847656 118.0 1.000 1.000 1.000
v -77.97354698181152 631.9051818847656 112.0 1.000 1.000 1.000
v -93.97354698181152 529.9051818847656 31.0 1.000 1.000 1.000
v -81.97354698181152 459.9051818847656 27.0 1.000 1.000 1.000
v -65.97354698181152 437.9051818847656 54.0 1.000 1.000 1.000
v -57.97354698181152 591.9051818847656 -73.0 1.000 1.000 1.000
v -93.97354698181152 529.9051818847656 31.0 1.000 1.000 1.000
v -77.97354698181152 631.9051818847656 112.0 1.000 1.000 1.000
v -81.97354698181152 459.9051818847656 27.0 1.000 1.000 1.000
v -60.97354698181152 530.9051818847656 118.0 1.000 1.000 1.000
v -22.973546981811523 411.9051818847656 101.0 1.000 1.000 1.000
v -31.973546981811523 410.9051818847656 140.0 1.000 1.000 1.000
v -65.97354698181152 437.9051818847656 54.0 1.000 1.000 1.000
v -5.973546981811523 656.9051818847656 56.0 1.000 1.000 1.000
v -45.97354698181152 453.9051818847656 -32.0 1.000 1.000 1.000
v -2.9735469818115234 411.9051818847656 101.0 1.000 1.000 1.000
v -57.97354698181152 591.9051818847656 -73.0 1.000 1.000 1.000
v -57.97354698181152 451.9051818847656 -53.0 1.000 1.000 1.000
v -81.97354698181152 459.9051818847656 27.0 1.000 1.000 1.000
v 53.02645301818848 591.9051818847656 -73.0 1.000 1.000 1.000
v -57.97354698181152 451.9051818847656 -53.0 1.000 1.000 1.000
v -57.97354698181152 591.9051818847656 -73.0 1.000 1.000 1.000
v 45.02645301818848 451.9051818847656 -46.0 1.000 1.000 1.000
v -45.97354698181152 453.9051818847656 -32.0 1.000 1.000 1.000
v -81.97354698181152 459.9051818847656 27.0 1.000 1.000 1.000
v -57.97354698181152 451.9051818847656 -53.0 1.000 1.000 1.000
v -45.97354698181152 453.9051818847656 -32.0 1.000 1.000 1.000
v 43.02645301818848 452.9051818847656 -33.0 1.000 1.000 1.000
v 64.02645301818848 436.9051818847656 54.0 1.000 1.000 1.000
v 43.02645301818848 452.9051818847656 -33.0 1.000 1.000 1.000
v 45.02645301818848 451.9051818847656 -46.0 1.000 1.000 1.000
v -49.97354698181152 452.9051818847656 -54.0 1.000 1.000 1.000
v 49.02645301818848 452.9051818847656 -54.0 1.000 1.000 1.000
v 41.02645301818848 407.9051818847656 141.0 1.000 1.000 1.000
v -40.97354698181152 407.9051818847656 141.0 1.000 1.000 1.000
v -40.97354698181152 407.9051818847656 141.0 1.000 1.000 1.000
v 41.02645301818848 407.9051818847656 141.0 1.000 1.000 1.000
v 70.02645301818848 627.9051818847656 111.0 1.000 1.000 1.000
v -69.97354698181152 632.9051818847656 111.0 1.000 1.000 1.000
v 41.02645301818848 407.9051818847656 141.0 1.000 1.000 1.000
v 49.02645301818848 452.9051818847656 -54.0 1.000 1.000 1.000
v 53.02645301818848 613.9051818847656 -67.0 1.000 1.000 1.000
v 70.02645301818848 627.9051818847656 111.0 1.000 1.000 1.000
v -69.97354698181152 632.9051818847656 111.0 1.000 1.000 1.000
v 70.02645301818848 627.9051818847656 111.0 1.000 1.000 1.000
v 53.02645301818848 613.9051818847656 -67.0 1.000 1.000 1.000
v -64.97354698181152 613.9051818847656 -67.0 1.000 1.000 1.000
v -69.97354698181152 632.9051818847656 111.0 1.000 1.000 1.000
v -64.97354698181152 613.9051818847656 -67.0 1.000 1.000 1.000
v -49.97354698181152 452.9051818847656 -54.0 1.000 1.000 1.000
v -40.97354698181152 407.9051818847656 141.0 1.000 1.000 1.000
v 49.02645301818848 452.9051818847656 -54.0 1.000 1.000 1.000
v -49.97354698181152 452.9051818847656 -54.0 1.000 1.000 1.000
v -64.97354698181152 613.9051818847656 -67.0 1.000 1.000 1.000
v 53.02645301818848 613.9051818847656 -67.0 1.000 1.000 1.000
v -869.454526424408 444.8510502576828 74.0 1.000 1.000 1.000
v -836.454526424408 520.8510502576828 -27.0 1.000 1.000 1.000
v -858.454526424408 451.8510502576828 -44.0 1.000 1.000 1.000
v -851.454526424408 543.8510502576828 71.0 1.000 1.000 1.000
v -836.454526424408 520.8510502576828 -27.0 1.000 1.000 1.000
v -756.454526424408 518.8510502576828 79.0 1.000 1.000 1.000
v -761.454526424408 499.8510502576828 -33.0 1.000 1.000 1.000
v -851.454526424408 543.8510502576828 71.0 1.000 1.000 1.000
v -756.454526424408 518.8510502576828 79.0 1.000 1.000 1.000
v -869.454526424408 444.8510502576828 74.0 1.000 1.000 1.000
v -754.454526424408 438.8510502576828 82.0 1.000 1.000 1.000
v -851.454526424408 543.8510502576828 71.0 1.000 1.000 1.000
v -858.454526424408 451.8510502576828 -44.0 1.000 1.000 1.000
v -754.454526424408 438.8510502576828 82.0 1.000 1.000 1.000
v -869.454526424408 444.8510502576828 74.0 1.000 1.000 1.000
v -760.454526424408 453.8510502576828 -23.0 1.000 1.000 1.000
v -761.454526424408 499.8510502576828 -33.0 1.000 1.000 1.000
v -858.454526424408 451.8510502576828 -44.0 1.000 1.000 1.000
v -836.454526424408 520.8510502576828 -27.0 1.000 1.000 1.000
v -760.454526424408 453.8510502576828 -23.0 1.000 1.000 1.000
v -569.5622534751892 486.34288024902344 86.0 1.000 1.000 1.000
v -570.5622534751892 540.3428802490234 78.0 1.000 1.000 1.000
v -570.5622534751892 545.3428802490234 5.0 1.000 1.000 1.000
v -571.5622534751892 494.34288024902344 -46.0 1.000 1.000 1.000
v -571.5622534751892 416.34288024902344 -10.0 1.000 1.000 1.000
v -570.5622534751892 419.34288024902344 74.0 1.000 1.000 1.000
v -756.454526424408 518.8510502576828 79.0 1.000 1.000 1.000
v -761.454526424408 499.8510502576828 -33.0 1.000 1.000 1.000
v -760.454526424408 453.8510502576828 -23.0 1.000 1.000 1.000
v -754.454526424408 438.8510502576828 82.0 1.000 1.000 1.000
v -485.5622534751892 545.3428802490234 6.0 1.000 1.000 1.000
v -487.5622534751892 494.34288024902344 -46.0 1.000 1.000 1.000
v -486.5622534751892 420.34288024902344 -10.0 1.000 1.000 1.000
v -485.5622534751892 427.34288024902344 83.0 1.000 1.000 1.000
v -485.5622534751892 486.34288024902344 89.0 1.000 1.000 1.000
v -485.5622534751892 542.3428802490234 81.0 1.000 1.000 1.000
v -570.5622534751892 545.3428802490234 5.0 1.000 1.000 1.000
v -571.5622534751892 494.34288024902344 -46.0 1.000 1.000 1.000
v -571.5622534751892 416.34288024902344 -10.0 1.000 1.000 1.000
v -570.5622534751892 419.34288024902344 74.0 1.000 1.000 1.000
v -569.5622534751892 486.34288024902344 86.0 1.000 1.000 1.000
v -570.5622534751892 540.3428802490234 78.0 1.000 1.000 1.000
v -481.5622534751892 435.34288024902344 85.0 1.000 1.000 1.000
v -487.5622534751892 536.3428802490234 89.0 1.000 1.000 1.000
v -771.5622534751892 444.34288024902344 76.0 1.000 1.000 1.000
v -771.5622534751892 451.34288024902344 -25.0 1.000 1.000 1.000
v -481.5622534751892 432.34288024902344 -28.0 1.000 1.000 1.000
v -774.5622534751892 520.3428802490234 76.0 1.000 1.000 1.000
v -487.5622534751892 548.3428802490234 -49.0 1.000 1.000 1.000
v -773.5622534751892 501.34288024902344 -27.0 1.000 1.000 1.000
v -771.5622534751892 451.34288024902344 -25.0 1.000 1.000 1.000
v -481.5622534751892 435.34288024902344 85.0 1.000 1.000 1.000
v -481.5622534751892 432.34288024902344 -28.0 1.000 1.000 1.000
v -394.7351508140564 429.68394470214844 90.0 1.000 1.000 1.000
v -363.7351508140564 394.68394470214844 -17.0 1.000 1.000 1.000
v -352.7351508140564 393.68394470214844 102.0 1.000 1.000 1.000
v -260.7351508140564 466.68394470214844 103.0 1.000 1.000 1.000
v -395.7351508140564 484.68394470214844 94.0 1.000 1.000 1.000
v -374.7351508140564 508.68394470214844 -51.0 1.000 1.000 1.000
v -190.7351508140564 477.68394470214844 11.0 1.000 1.000 1.000
v -235.7351508140564 460.68394470214844 -54.0 1.000 1.000 1.000
v -394.7351508140564 415.68394470214844 -10.0 1.000 1.000 1.000
v -320.7351508140564 515.6839447021484 86.0 1.000 1.000 1.000
v -310.7351508140564 518.6839447021484 7.0 1.000 1.000 1.000
v -504.89227294921875 377.50817000865936 -50.0 1.000 1.000 1.000
v -507.89227294921875 186.50817000865936 -25.0 1.000 1.000 1.000
v -502.89227294921875 401.50817000865936 5.0 1.000 1.000 1.000
v -504.89227294921875 357.50817000865936 112.0 1.000 1.000 1.000
v -507.89227294921875 198.50817000865936 107.0 1.000 1.000 1.000
v -507.89227294921875 198.50817000865936 107.0 1.000 1.000 1.000
v -507.89227294921875 186.50817000865936 -25.0 1.000 1.000 1.000
v -363.7351508140564 394.68394470214844 -17.0 1.000 1.000 1.000
v -235.7351508140564 460.68394470214844 -54.0 1.000 1.000 1.000
v -190.7351508140564 477.68394470214844 11.0 1.000 1.000 1.000
v -352.7351508140564 393.68394470214844 102.0 1.000 1.000 1.000
v -260.7351508140564 466.68394470214844 103.0 1.000 1.000 1.000
v -363.7351508140564 394.68394470214844 -17.0 1.000 1.000 1.000
v -352.7351508140564 393.68394470214844 102.0 1.000 1.000 1.000
v -310.7351508140564 518.6839447021484 7.0 1.000 1.000 1.000
v -374.7351508140564 508.68394470214844 -51.0 1.000 1.000 1.000
v -394.7351508140564 415.68394470214844 -10.0 1.000 1.000 1.000
v -394.7351508140564 429.68394470214844 90.0 1.000 1.000 1.000
v -395.7351508140564 484.68394470214844 94.0 1.000 1.000 1.000
v -320.7351508140564 515.6839447021484 86.0 1.000 1.000 1.000
v -485.5622534751892 545.3428802490234 6.0 1.000 1.000 1.000
v -487.5622534751892 494.34288024902344 -46.0 1.000 1.000 1.000
v -486.5622534751892 420.34288024902344 -10.0 1.000 1.000 1.000
v -485.5622534751892 427.34288024902344 83.0 1.000 1.000 1.000
v -485.5622534751892 486.34288024902344 89.0 1.000 1.000 1.000
v -485.5622534751892 542.3428802490234 81.0 1.000 1.000 1.000
v -204.7351508140564 485.68394470214844 99.0 1.000 1.000 1.000
v -179.7351508140564 408.68394470214844 115.0 1.000 1.000 1.000
v -147.7351508140564 404.68394470214844 -45.0 1.000 1.000 1.000
v -204.7351508140564 497.68394470214844 -33.0 1.000 1.000 1.000
v -481.7351508140564 434.68394470214844 85.0 1.000 1.000 1.000
v -487.7351508140564 535.6839447021484 89.0 1.000 1.000 1.000
v -487.7351508140564 548.6839447021484 -49.0 1.000 1.000 1.000
v -481.7351508140564 431.68394470214844 -28.0 1.000 1.000 1.000
v -481.7351508140564 431.68394470214844 -28.0 1.000 1.000 1.000
v -481.7351508140564 434.68394470214844 85.0 1.000 1.000 1.000
v 396.1556701660156 -20.717945009469986 -43.64411926269531 1.000 1.000 1.000
v 371.1556701660156 47.282054990530014 -28.644119262695312 1.000 1.000 1.000
v 406.1556701660156 -25.717945009469986 70.35588073730469 1.000 1.000 1.000
v 384.1556701660156 71.28205499053001 64.35588073730469 1.000 1.000 1.000
v 296.1556701660156 37.282054990530014 -16.644119262695312 1.000 1.000 1.000
v 285.1556701660156 54.282054990530014 81.35588073730469 1.000 1.000 1.000
v 371.1556701660156 47.282054990530014 -28.644119262695312 1.000 1.000 1.000
v 384.1556701660156 71.28205499053001 64.35588073730469 1.000 1.000 1.000
v 285.1556701660156 -33.717945009469986 81.35588073730469 1.000 1.000 1.000
v 406.1556701660156 -25.717945009469986 70.35588073730469 1.000 1.000 1.000
v 285.1556701660156 54.282054990530014 81.35588073730469 1.000 1.000 1.000
v 384.1556701660156 71.28205499053001 64.35588073730469 1.000 1.000 1.000
v 406.1556701660156 -25.717945009469986 70.35588073730469 1.000 1.000 1.000
v 285.1556701660156 -33.717945009469986 81.35588073730469 1.000 1.000 1.000
v 396.1556701660156 -20.717945009469986 -43.64411926269531 1.000 1.000 1.000
v 294.1556701660156 -19.717945009469986 -24.644119262695312 1.000 1.000 1.000
v 371.1556701660156 47.282054990530014 -28.644119262695312 1.000 1.000 1.000
v 396.1556701660156 -20.717945009469986 -43.64411926269531 1.000 1.000 1.000
v 296.1556701660156 37.282054990530014 -16.644119262695312 1.000 1.000 1.000
v 294.1556701660156 -19.717945009469986 -24.644119262695312 1.000 1.000 1.000
v 578.3492302894592 525.31201171875 81.32594299316406 1.000 1.000 1.000
v 577.3492302894592 485.31201171875 90.32594299316406 1.000 1.000 1.000
v 578.3492302894592 404.31201171875 79.32594299316406 1.000 1.000 1.000
v 575.3492302894592 409.31201171875 -4.6740570068359375 1.000 1.000 1.000
v 576.3492302894592 476.31201171875 -41.67405700683594 1.000 1.000 1.000
v 574.3492302894592 529.31201171875 8.325942993164062 1.000 1.000 1.000
v 285.1556701660156 54.282054990530014 81.35588073730469 1.000 1.000 1.000
v 285.1556701660156 -33.717945009469986 81.35588073730469 1.000 1.000 1.000
v 294.1556701660156 -19.717945009469986 -24.644119262695312 1.000 1.000 1.000
v 296.1556701660156 37.282054990530014 -16.644119262695312 1.000 1.000 1.000
v 494.34923028945923 412.31201171875 -5.6740570068359375 1.000 1.000 1.000
v 499.34923028945923 476.31201171875 -42.67405700683594 1.000 1.000 1.000
v 497.34923028945923 524.31201171875 7.3259429931640625 1.000 1.000 1.000
v 492.34923028945923 522.31201171875 84.32594299316406 1.000 1.000 1.000
v 491.34923028945923 485.31201171875 93.32594299316406 1.000 1.000 1.000
v 492.34923028945923 407.31201171875 88.32594299316406 1.000 1.000 1.000
v 575.3492302894592 409.31201171875 -4.6740570068359375 1.000 1.000 1.000
v 576.3492302894592 476.31201171875 -41.67405700683594 1.000 1.000 1.000
v 574.3492302894592 529.31201171875 8.325942993164062 1.000 1.000 1.000
v 578.3492302894592 525.31201171875 81.32594299316406 1.000 1.000 1.000
v 577.3492302894592 485.31201171875 90.32594299316406 1.000 1.000 1.000
v 578.3492302894592 404.31201171875 79.32594299316406 1.000 1.000 1.000
v 787.3492302894592 431.31201171875 85.32594299316406 1.000 1.000 1.000
v 494.34923028945923 528.31201171875 91.32594299316406 1.000 1.000 1.000
v 488.34923028945923 427.31201171875 88.32594299316406 1.000 1.000 1.000
v 490.34923028945923 422.31201171875 -24.674057006835938 1.000 1.000 1.000
v 788.3492302894592 436.31201171875 -14.674057006835938 1.000 1.000 1.000
v 496.34923028945923 538.31201171875 -46.67405700683594 1.000 1.000 1.000
v 790.3492302894592 515.31201171875 83.32594299316406 1.000 1.000 1.000
v 788.3492302894592 436.31201171875 -14.674057006835938 1.000 1.000 1.000
v 791.3492302894592 494.31201171875 -19.674057006835938 1.000 1.000 1.000
v 488.34923028945923 427.31201171875 88.32594299316406 1.000 1.000 1.000
v 490.34923028945923 422.31201171875 -24.674057006835938 1.000 1.000 1.000
v 365.32457208633423 392.5045623779297 81.0 1.000 1.000 1.000
v 376.32457208633423 380.5045623779297 -14.0 1.000 1.000 1.000
v 401.32457208633423 430.5045623779297 92.0 1.000 1.000 1.000
v 402.32457208633423 483.5045623779297 95.0 1.000 1.000 1.000
v 259.32457208633423 454.5045623779297 103.0 1.000 1.000 1.000
v 248.32457208633423 445.5045623779297 -54.0 1.000 1.000 1.000
v 196.32457208633423 472.5045623779297 8.0 1.000 1.000 1.000
v 384.32457208633423 495.5045623779297 -51.0 1.000 1.000 1.000
v 406.32457208633423 401.5045623779297 -7.0 1.000 1.000 1.000
v 321.32457208633423 504.5045623779297 67.0 1.000 1.000 1.000
v 322.32457208633423 506.5045623779297 6.0 1.000 1.000 1.000
v -66.89227294921875 187.50817000865936 -20.0 1.000 1.000 1.000
v -65.89227294921875 197.50817000865936 117.0 1.000 1.000 1.000
v -65.89227294921875 197.50817000865936 117.0 1.000 1.000 1.000
v -66.89227294921875 187.50817000865936 -20.0 1.000 1.000 1.000
v -79.89227294921875 374.50817000865936 -49.0 1.000 1.000 1.000
v -79.89227294921875 402.50817000865936 3.0 1.000 1.000 1.000
v -79.89227294921875 356.50817000865936 113.0 1.000 1.000 1.000
v 376.32457208633423 380.5045623779297 -14.0 1.000 1.000 1.000
v 365.32457208633423 392.5045623779297 81.0 1.000 1.000 1.000
v 376.32457208633423 380.5045623779297 -14.0 1.000 1.000 1.000
v 248.32457208633423 445.5045623779297 -54.0 1.000 1.000 1.000
v 196.32457208633423 472.5045623779297 8.0 1.000 1.000 1.000
v 259.32457208633423 454.5045623779297 103.0 1.000 1.000 1.000
v 322.32457208633423 506.5045623779297 6.0 1.000 1.000 1.000
v 384.32457208633423 495.5045623779297 -51.0 1.000 1.000 1.000
v 406.32457208633423 401.5045623779297 -7.0 1.000 1.000 1.000
v 401.32457208633423 430.5045623779297 92.0 1.000 1.000 1.000
v 402.32457208633423 483.5045623779297 95.0 1.000 1.000 1.000
v 321.32457208633423 504.5045623779297 67.0 1.000 1.000 1.000
v 499.34923028945923 476.31201171875 -42.67405700683594 1.000 1.000 1.000
v 497.34923028945923 524.31201171875 7.3259429931640625 1.000 1.000 1.000
v 494.34923028945923 412.31201171875 -5.6740570068359375 1.000 1.000 1.000
v 492.34923028945923 407.31201171875 88.32594299316406 1.000 1.000 1.000
v 491.34923028945923 485.31201171875 93.32594299316406 1.000 1.000 1.000
v 492.34923028945923 522.31201171875 84.32594299316406 1.000 1.000 1.000
v 186.32457208633423 373.5045623779297 107.0 1.000 1.000 1.000
v 157.32457208633423 366.5045623779297 -46.0 1.000 1.000 1.000
v 488.32457208633423 427.5045623779297 89.0 1.000 1.000 1.000
v 494.32457208633423 528.5045623779297 91.0 1.000 1.000 1.000
v 212.32457208633423 450.5045623779297 91.0 1.000 1.000 1.000
v 214.32457208633423 460.5045623779297 -55.0 1.000 1.000 1.000
v 496.32457208633423 538.5045623779297 -47.0 1.000 1.000 1.000
v 490.32457208633423 422.5045623779297 -25.0 1.000 1.000 1.000
v 490.32457208633423 422.5045623779297 -25.0 1.000 1.000 1.000
v 488.32457208633423 427.5045623779297 89.0 1.000 1.000 1.000
v -384.89227294921875 262.50817000865936 -102.0 1.000 1.000 1.000
v -404.89227294921875 46.50817000865936 -90.0 1.000 1.000 1.000
v -446.89227294921875 45.50817000865936 -77.0 1.000 1.000 1.000
v -194.89227294921875 262.50817000865936 -103.0 1.000 1.000 1.000
v -365.89227294921875 340.50817000865936 -78.0 1.000 1.000 1.000
v -507.89227294921875 186.50817000865936 -25.0 1.000 1.000 1.000
v -504.89227294921875 377.50817000865936 -50.0 1.000 1.000 1.000
v -294.89227294921875 46.50817000865936 -92.0 1.000 1.000 1.000
v -79.89227294921875 374.50817000865936 -49.0 1.000 1.000 1.000
v -223.89227294921875 341.50817000865936 -78.0 1.000 1.000 1.000
v -188.89227294921875 46.50817000865936 -93.0 1.000 1.000 1.000
v -365.89227294921875 387.50817000865936 -41.0 1.000 1.000 1.000
v -223.89227294921875 387.50817000865936 -39.0 1.000 1.000 1.000
v -369.89227294921875 424.50817000865936 0.0 1.000 1.000 1.000
v -158.89227294921875 46.50817000865936 -79.0 1.000 1.000 1.000
v -528.8922729492188 58.50817000865936 24.0 1.000 1.000 1.000
v -194.89227294921875 262.50817000865936 -103.0 1.000 1.000 1.000
v -79.89227294921875 374.50817000865936 -49.0 1.000 1.000 1.000
v -66.89227294921875 187.50817000865936 -20.0 1.000 1.000 1.000
v -158.89227294921875 46.50817000865936 -79.0 1.000 1.000 1.000
v -52.89227294921875 57.50817000865936 24.0 1.000 1.000 1.000
v -216.89227294921875 423.50817000865936 0.0 1.000 1.000 1.000
v -223.89227294921875 387.50817000865936 -39.0 1.000 1.000 1.000
v -223.89227294921875 341.50817000865936 -78.0 1.000 1.000 1.000
v -365.89227294921875 340.50817000865936 -78.0 1.000 1.000 1.000
v -384.89227294921875 262.50817000865936 -102.0 1.000 1.000 1.000
v -504.89227294921875 377.50817000865936 -50.0 1.000 1.000 1.000
v -294.89227294921875 46.50817000865936 -92.0 1.000 1.000 1.000
v -79.89227294921875 402.50817000865936 3.0 1.000 1.000 1.000
v -223.89227294921875 407.50817000865936 57.0 1.000 1.000 1.000
v -223.89227294921875 381.50817000865936 115.0 1.000 1.000 1.000
v -216.89227294921875 423.50817000865936 0.0 1.000 1.000 1.000
v -79.89227294921875 356.50817000865936 113.0 1.000 1.000 1.000
v -297.89227294921875 233.50817000865936 202.0 1.000 1.000 1.000
v -75.89227294921875 195.50817000865936 190.0 1.000 1.000 1.000
v -508.89227294921875 197.50817000865936 190.0 1.000 1.000 1.000
v -528.8922729492188 58.50817000865936 24.0 1.000 1.000 1.000
v -415.89227294921875 68.50817000865936 238.0 1.000 1.000 1.000
v -366.89227294921875 380.50817000865936 116.0 1.000 1.000 1.000
v -223.89227294921875 381.50817000865936 115.0 1.000 1.000 1.000
v -295.89227294921875 380.50817000865936 115.0 1.000 1.000 1.000
v -369.89227294921875 424.50817000865936 0.0 1.000 1.000 1.000
v -502.89227294921875 401.50817000865936 5.0 1.000 1.000 1.000
v -366.89227294921875 407.50817000865936 56.0 1.000 1.000 1.000
v -294.89227294921875 66.50817000865936 252.0 1.000 1.000 1.000
v -504.89227294921875 377.50817000865936 -50.0 1.000 1.000 1.000
v -295.89227294921875 380.50817000865936 115.0 1.000 1.000 1.000
v -173.89227294921875 68.50817000865936 238.0 1.000 1.000 1.000
v -216.89227294921875 423.50817000865936 0.0 1.000 1.000 1.000
v -79.89227294921875 402.50817000865936 3.0 1.000 1.000 1.000
v -79.89227294921875 374.50817000865936 -49.0 1.000 1.000 1.000
v -65.89227294921875 197.50817000865936 117.0 1.000 1.000 1.000
v -79.89227294921875 356.50817000865936 113.0 1.000 1.000 1.000
v -75.89227294921875 195.50817000865936 190.0 1.000 1.000 1.000
v -297.89227294921875 233.50817000865936 202.0 1.000 1.000 1.000
v -173.89227294921875 68.50817000865936 238.0 1.000 1.000 1.000
v -52.89227294921875 57.50817000865936 24.0 1.000 1.000 1.000
v -508.89227294921875 197.50817000865936 190.0 1.000 1.000 1.000
v -415.89227294921875 68.50817000865936 238.0 1.000 1.000 1.000
v -504.89227294921875 357.50817000865936 112.0 1.000 1.000 1.000
v -507.89227294921875 198.50817000865936 107.0 1.000 1.000 1.000
v -528.8922729492188 58.50817000865936 24.0 1.000 1.000 1.000
v -366.89227294921875 380.50817000865936 116.0 1.000 1.000 1.000
v -295.89227294921875 380.50817000865936 115.0 1.000 1.000 1.000
v -223.89227294921875 381.50817000865936 115.0 1.000 1.000 1.000
v -223.89227294921875 407.50817000865936 57.0 1.000 1.000 1.000
v -295.89227294921875 380.50817000865936 115.0 1.000 1.000 1.000
v -75.89227294921875 195.50817000865936 190.0 1.000 1.000 1.000
v -173.89227294921875 68.50817000865936 238.0 1.000 1.000 1.000
v -52.89227294921875 57.50817000865936 24.0 1.000 1.000 1.000
v -504.89227294921875 357.50817000865936 112.0 1.000 1.000 1.000
v -297.89227294921875 233.50817000865936 202.0 1.000 1.000 1.000
v -502.89227294921875 401.50817000865936 5.0 1.000 1.000 1.000
v -507.89227294921875 186.50817000865936 -25.0 1.000 1.000 1.000
v -528.8922729492188 58.50817000865936 24.0 1.000 1.000 1.000
v -507.89227294921875 198.50817000865936 107.0 1.000 1.000 1.000
v -508.89227294921875 197.50817000865936 190.0 1.000 1.000 1.000
v -79.89227294921875 356.50817000865936 113.0 1.000 1.000 1.000
v -79.89227294921875 356.50817000865936 113.0 1.000 1.000 1.000
v -79.89227294921875 402.50817000865936 3.0 1.000 1.000 1.000
v -223.89227294921875 381.50817000865936 115.0 1.000 1.000 1.000
v -65.89227294921875 197.50817000865936 117.0 1.000 1.000 1.000
v -52.89227294921875 57.50817000865936 24.0 1.000 1.000 1.000
v -66.89227294921875 187.50817000865936 -20.0 1.000 1.000 1.000
v -295.89227294921875 380.50817000865936 115.0 1.000 1.000 1.000
v -223.89227294921875 381.50817000865936 115.0 1.000 1.000 1.000
v -223.89227294921875 407.50817000865936 57.0 1.000 1.000 1.000
v -295.89227294921875 380.50817000865936 115.0 1.000 1.000 1.000
v -223.89227294921875 407.50817000865936 57.0 1.000 1.000 1.000
v -216.89227294921875 423.50817000865936 0.0 1.000 1.000 1.000
v -235.0 60.0 23.0 1.000 1.000 1.000
v -159.0 50.0 -83.0 1.000 1.000 1.000
v -68.0 43.0 -88.0 1.000 1.000 1.000
v -12.0 42.0 -87.0 1.000 1.000 1.000
v 33.0 43.0 -88.0 1.000 1.000 1.000
v 123.0 43.0 -86.0 1.000 1.000 1.000
v 240.0 54.0 25.0 1.000 1.000 1.000
v -528.8922729492188 58.50817000865936 24.0 1.000 1.000 1.000
v -446.89227294921875 45.50817000865936 -77.0 1.000 1.000 1.000
v -404.89227294921875 46.50817000865936 -90.0 1.000 1.000 1.000
v -294.89227294921875 46.50817000865936 -92.0 1.000 1.000 1.000
v -188.89227294921875 46.50817000865936 -93.0 1.000 1.000 1.000
v -158.89227294921875 46.50817000865936 -79.0 1.000 1.000 1.000
v -52.89227294921875 57.50817000865936 24.0 1.000 1.000 1.000
v -126.0 40.0 191.0 1.000 1.000 1.000
v -4.0 41.0 265.0 1.000 1.000 1.000
v 240.0 54.0 25.0 1.000 1.000 1.000
v 120.0 44.0 195.0 1.000 1.000 1.000
v -235.0 60.0 23.0 1.000 1.000 1.000
v -415.89227294921875 68.50817000865936 238.0 1.000 1.000 1.000
v -52.89227294921875 57.50817000865936 24.0 1.000 1.000 1.000
v -173.89227294921875 68.50817000865936 238.0 1.000 1.000 1.000
v -294.89227294921875 66.50817000865936 252.0 1.000 1.000 1.000
v -528.8922729492188 58.50817000865936 24.0 1.000 1.000 1.000
v -62.89227294921875 423.50817000865936 -72.0 1.000 1.000 1.000
v -73.89227294921875 -9.491829991340637 -69.0 1.000 1.000 1.000
v -520.8922729492188 -10.491829991340637 -67.0 1.000 1.000 1.000
v -523.8922729492188 420.50817000865936 -74.0 1.000 1.000 1.000
v -85.89227294921875 380.50817000865936 102.0 1.000 1.000 1.000
v -523.8922729492188 420.50817000865936 -74.0 1.000 1.000 1.000
v -500.89227294921875 375.50817000865936 102.0 1.000 1.000 1.000
v -85.89227294921875 380.50817000865936 102.0 1.000 1.000 1.000
v -504.89227294921875 -5.491829991340637 166.0 1.000 1.000 1.000
v -78.89227294921875 -4.491829991340637 166.0 1.000 1.000 1.000
v -62.89227294921875 423.50817000865936 -72.0 1.000 1.000 1.000
v -520.8922729492188 -10.491829991340637 -67.0 1.000 1.000 1.000
v -504.89227294921875 -5.491829991340637 166.0 1.000 1.000 1.000
v -523.8922729492188 420.50817000865936 -74.0 1.000 1.000 1.000
v -73.89227294921875 -9.491829991340637 -69.0 1.000 1.000 1.000
v -62.89227294921875 423.50817000865936 -72.0 1.000 1.000 1.000
v -78.89227294921875 -4.491829991340637 166.0 1.000 1.000 1.000
v -85.89227294921875 380.50817000865936 102.0 1.000 1.000 1.000
v -500.89227294921875 375.50817000865936 102.0 1.000 1.000 1.000
v -504.89227294921875 -5.491829991340637 166.0 1.000 1.000 1.000
v -504.89227294921875 -5.491829991340637 166.0 1.000 1.000 1.000
v -500.89227294921875 375.50817000865936 102.0 1.000 1.000 1.000
v -523.8922729492188 420.50817000865936 -74.0 1.000 1.000 1.000
v -85.89227294921875 380.50817000865936 102.0 1.000 1.000 1.000
v -520.8922729492188 -10.491829991340637 -67.0 1.000 1.000 1.000
v -73.89227294921875 -9.491829991340637 -69.0 1.000 1.000 1.000
v -504.89227294921875 -5.491829991340637 166.0 1.000 1.000 1.000
v -78.89227294921875 -4.491829991340637 166.0 1.000 1.000 1.000
v -236.0 -5.0 23.0 1.000 1.000 1.000
v -235.0 60.0 23.0 1.000 1.000 1.000
v -153.0 -75.0 -104.0 1.000 1.000 1.000
v -159.0 50.0 -83.0 1.000 1.000 1.000
v -111.0 -103.0 -110.0 1.000 1.000 1.000
v -68.0 43.0 -88.0 1.000 1.000 1.000
v -5.0 -121.0 -108.0 1.000 1.000 1.000
v -12.0 42.0 -87.0 1.000 1.000 1.000
v 94.0 -103.0 -110.0 1.000 1.000 1.000
v 33.0 43.0 -88.0 1.000 1.000 1.000
v 139.0 -73.0 -107.0 1.000 1.000 1.000
v 123.0 43.0 -86.0 1.000 1.000 1.000
v 240.0 54.0 25.0 1.000 1.000 1.000
v 240.0 -4.0 25.0 1.000 1.000 1.000
v -126.0 -91.0 181.0 1.000 1.000 1.000
v -126.0 40.0 191.0 1.000 1.000 1.000
v -235.0 60.0 23.0 1.000 1.000 1.000
v -236.0 -5.0 23.0 1.000 1.000 1.000
v 240.0 -4.0 25.0 1.000 1.000 1.000
v 240.0 54.0 25.0 1.000 1.000 1.000
v 114.0 -88.0 184.0 1.000 1.000 1.000
v 120.0 44.0 195.0 1.000 1.000 1.000
v -6.0 -146.0 264.0 1.000 1.000 1.000
v -4.0 41.0 265.0 1.000 1.000 1.000
v -254.0 -282.0 -80.0 1.000 1.000 1.000
v -228.0 54.0 -67.0 1.000 1.000 1.000
v 219.0 55.0 -69.0 1.000 1.000 1.000
v 247.0 -281.0 -80.0 1.000 1.000 1.000
v -212.0 58.0 166.0 1.000 1.000 1.000
v -206.0 -281.0 168.0 1.000 1.000 1.000
v 205.0 -281.0 180.0 1.000 1.000 1.000
v -206.0 -281.0 168.0 1.000 1.000 1.000
v -228.0 54.0 -67.0 1.000 1.000 1.000
v -254.0 -282.0 -80.0 1.000 1.000 1.000
v -212.0 58.0 166.0 1.000 1.000 1.000
v 247.0 -281.0 -80.0 1.000 1.000 1.000
v 219.0 55.0 -69.0 1.000 1.000 1.000
v 205.0 -281.0 180.0 1.000 1.000 1.000
v 214.0 59.0 166.0 1.000 1.000 1.000
v 214.0 59.0 166.0 1.000 1.000 1.000
v -228.0 54.0 -67.0 1.000 1.000 1.000
v 214.0 59.0 166.0 1.000 1.000 1.000
v 219.0 55.0 -69.0 1.000 1.000 1.000
v -212.0 58.0 166.0 1.000 1.000 1.000
v 247.0 -281.0 -80.0 1.000 1.000 1.000
v 205.0 -281.0 180.0 1.000 1.000 1.000
v -206.0 -281.0 168.0 1.000 1.000 1.000
v -254.0 -282.0 -80.0 1.000 1.000 1.000
vt 0.8848 0.8698
vt 0.8857 0.8529
vt 0.9297 0.1055
vt 0.9307 0.0814
vt 0.5664 0.1510
vt 0.1484 0.6400
vt -0.0576 0.8802
vt -0.0664 0.8464
vt 0.1357 0.6094
vt 0.5840 0.0814
vt 0.4238 0.5026
vt 0.2832 0.9505
vt 0.8730 0.9479
vt 0.2744 0.5091
vt 0.4541 0.5241
vt 0.2822 0.9505
vt 0.7891 0.5195
vt 0.9590 0.5052
vt 0.8701 0.9499
vt 0.8672 0.5000
vt 0.3584 0.1986
vt 0.4053 0.2057
vt 0.3516 0.4681
vt 0.3965 0.3268
vt 0.4863 0.4622
vt 0.4531 0.3405
vt 0.4932 0.1921
vt 0.4639 0.2214
vt 0.2852 0.3743
vt 0.4355 0.3906
vt 0.7939 0.3913
vt 0.9697 0.3789
vt 0.8750 0.3698
vt 0.4141 0.3730
vt 0.7490 0.9323
vt 0.6807 0.3724
vt 0.2588 0.9408
vt 0.2920 0.3685
vt 0.5869 0.3665
vt 0.3945 0.9023
vt 0.9316 0.3613
vt 0.8496 0.8939
vt 0.5869 0.4329
vt 0.5996 0.5814
vt 0.6475 0.2148
vt 0.5781 0.2396
vt 0.4189 0.4134
vt 0.4092 0.3984
vt 0.3613 0.5762
vt 0.3066 0.5885
vt 0.3936 0.7044
vt 0.3340 0.7057
vt 0.5215 0.7044
vt 0.4961 0.7923
vt 0.5654 0.8021
vt 0.9814 0.3034
vt 1.0000 0.0618
vt 0.9082 0.0592
vt 0.4717 0.0605
vt 0.8301 0.0618
vt 0.8135 0.3008
vt 0.4805 0.2259
vt 0.2949 0.2383
vt 0.4424 0.2305
vt 0.8896 0.2624
vt 0.4277 0.0618
vt 0.3311 0.0599
vt 0.3926 0.0931
vt 0.7393 0.5020
vt 0.8359 0.0599
vt 0.2949 0.4616
vt 0.8936 0.9375
vt 0.7920 0.6927
vt 0.6455 0.9368
vt 0.7217 0.7253
vt 0.9551 0.9375
vt 0.5449 0.9368
vt 0.5400 0.7467
vt 0.9316 0.6100
vt 0.4844 0.7747
vt 0.3838 0.9258
vt 0.4873 0.9258
vt 0.1562 0.9251
vt 0.2598 0.7116
vt 0.0508 0.6133
vt 0.0371 0.9251
vt 0.9482 0.0618
vt 0.7861 0.0677
vt 0.6719 0.0651
vt 0.3359 0.0716
vt 0.9619 0.1289
vt 0.9248 0.9889
vt 0.9238 1.0104
vt 0.9639 0.0977
vt -0.0439 1.0273
vt 0.2236 0.6719
vt 0.5908 0.1823
vt 0.6123 0.1009
vt 0.2109 0.6348
vt -0.0527 0.9870
vt 0.8574 0.9421
vt 0.2676 0.9694
vt 0.3877 0.4980
vt 0.2686 0.9714
vt 0.4150 0.5195
vt 0.1963 0.5137
vt 0.8555 0.9414
vt 0.7607 0.5007
vt 0.9023 0.4798
vt 0.8311 0.4772
vt 0.6436 0.4557
vt 0.6123 0.2064
vt 0.6504 0.1862
vt 0.5176 0.1914
vt 0.5420 0.2188
vt 0.5107 0.4616
vt 0.5469 0.3711
vt 0.6006 0.3464
vt 0.1943 0.3932
vt 0.3906 0.3639
vt 0.7588 0.3652
vt 0.4160 0.3815
vt 0.9258 0.3477
vt 0.8252 0.3424
vt 0.2070 0.9421
vt 0.6162 0.3392
vt 0.7520 0.9460
vt 0.3525 0.9056
vt 0.5186 0.3301
vt 0.2148 0.3242
vt 0.8730 0.3327
vt 0.8584 0.9062
vt 0.6377 0.7077
vt 0.6738 0.7930
vt 0.7666 0.7135
vt 0.8369 0.7201
vt 0.8496 0.5859
vt 0.9131 0.5977
vt 0.8086 0.4303
vt 0.8496 0.4069
vt 0.6523 0.4290
vt 0.7109 0.2415
vt 0.8320 0.0202
vt 0.9238 0.0189
vt 0.9199 0.2702
vt 0.7617 0.2734
vt 0.7607 0.0221
vt 0.3896 0.0358
vt 0.1816 0.2337
vt 0.4199 0.2109
vt 0.3848 0.0384
vt 0.8330 0.2305
vt 0.3799 0.2168
vt 0.2041 0.0462
vt 0.2949 0.6901
vt 0.1758 0.9310
vt 0.3916 0.9316
vt 0.1201 0.6081
vt 0.3711 0.7259
vt 0.0918 0.9316
vt 0.7070 0.7096
vt 0.5918 0.9219
vt 0.8457 0.9232
vt 0.9424 0.6159
vt 0.9854 0.9245
vt 0.6826 0.0124
vt 0.8486 0.0098
vt 0.5635 0.0065
vt 0.2188 0.0046
vt 0.4062 0.7822
vt 0.4932 0.3809
vt 0.1631 0.0781
vt 0.9160 0.6758
vt 0.7910 0.2930
vt 0.4365 0.6807
vt 0.9854 0.0605
vt -0.0225 0.7080
vt 0.2363 0.3018
vt 0.9385 0.2480
vt 0.9346 0.1035
vt 0.9785 0.6875
vt 0.9531 0.9229
vt 0.7158 0.9219
vt 0.7852 0.1143
vt 0.6973 0.7012
vt 0.7705 0.2568
vt 0.4805 0.4214
vt 0.8623 0.0522
vt 0.4395 0.1396
vt 0.0332 0.0674
vt 0.1777 0.4390
vt 0.4453 0.6094
vt 0.5791 0.6079
vt 0.4180 -0.0308
vt 0.7129 0.8657
vt 0.3955 0.8784
vt 0.5469 0.8979
vt 0.8037 0.4395
vt 0.1611 0.2129
vt 0.7773 0.2065
vt 0.3945 0.6113
vt 0.6328 0.6089
vt 0.4463 0.8740
vt 0.5557 0.8730
vt 0.6641 0.8721
vt 0.6377 0.8755
vt 0.9209 0.7212
vt 0.6582 0.4375
vt 1.2871 0.0522
vt 0.8193 -0.0840
vt 0.6406 0.0474
vt 0.9629 0.3740
vt 1.0029 0.6113
vt 1.2539 0.5859
vt 0.7725 0.8501
vt 1.5137 0.4170
vt 1.5029 0.0215
vt 2.0010 0.3911
vt 2.0537 0.6611
vt 1.9160 0.7559
vt 2.5479 0.1133
vt 1.6660 0.8735
vt 1.4482 0.8906
vt 1.7988 -0.0967
vt 2.3818 0.6636
vt -0.2109 0.1377
vt -0.1396 1.0444
vt 0.6826 1.0771
vt 0.0762 0.1616
vt 0.9990 0.9058
vt 1.0215 0.1816
vt 0.1221 0.8853
vt 0.6484 1.5820
vt 0.9961 1.7222
vt 0.5215 1.5356
vt 0.9023 0.8911
vt 0.1396 0.8813
vt 0.1045 0.8013
vt 0.7627 0.8086
vt 0.8730 0.7334
vt 0.9238 0.0332
vt 0.4688 0.0710
vt 0.5000 0.5417
vt 0.8818 0.5091
vt 0.3438 0.8838
vt 0.7842 0.8770
vt 0.9199 0.0757
vt -0.0186 0.0762
vt 0.6543 0.8467
vt 1.2188 0.5781
vt 1.1963 0.0093
vt 0.6553 0.0435
vt 0.4365 0.0278
vt -0.0381 0.0654
vt 0.0273 0.7319
vt 0.4248 0.7007
vt 0.5674 0.0620
vt 1.3906 0.0762
vt 1.3223 0.6465
vt 0.4170 0.8604
vt 0.0381 0.7480
vt 0.3525 0.7349
vt 0.4600 0.0137
vt -0.0117 0.0381
vt 0.8896 0.6377
vt 0.1338 0.1045
vt -0.0264 0.6836
vt 0.9062 -0.1650
vt 0.1221 0.3887
vt 0.9033 0.7686
vt 0.1309 0.8594
vt 0.7842 0.2217
vt 0.0576 0.2695
vt 0.9121 0.9365
vt 0.7148 0.1914
vt 0.0635 0.9199
vt 0.9131 0.1416
vt 0.1621 1.2129
vt 0.0938 0.1338
vt 0.8760 1.0977
vt 0.2246 1.0635
vt 0.8047 0.0723
vt 0.0762 0.4336
vt 0.6895 0.9375
vt 0.9362 0.2402
vt 0.6452 0.3945
vt 0.6471 0.0820
vt 0.9440 0.3564
vt 0.6471 0.0547
vt 0.9401 0.6211
vt 0.6484 0.3535
vt 0.6458 0.8018
vt 0.9310 0.7080
vt 0.6445 0.7861
vt 0.5352 0.0410
vt 0.5358 0.3398
vt 0.5332 0.7666
vt 0.5326 0.7256
vt 0.5326 0.3809
vt 0.5345 0.0596
vt 0.5293 0.7354
vt 0.5326 0.1240
vt 0.9564 0.7285
vt 0.9564 0.6885
vt 0.5293 0.7520
vt 0.9564 0.2676
vt 0.5319 0.0479
vt 0.9570 0.3867
vt 0.3906 0.6982
vt 0.2708 0.8223
vt 0.2539 0.8242
vt 0.1829 0.4551
vt 0.3932 0.3779
vt 0.3600 0.2305
vt 0.0742 0.3789
vt 0.1445 0.4893
vt 0.3900 0.7793
vt 0.2773 0.1836
vt 0.2617 0.1611
vt 0.0443 0.9092
vt 0.2194 0.8418
vt 0.0072 0.9111
vt 0.0755 0.9111
vt 0.1647 0.8682
vt 0.0000 1.0000
vt 0.1608 -0.0332
vt 0.0827 0.6074
vt 0.0365 0.6133
vt 0.1536 -0.1201
vt 0.9062 0.4160
vt 0.8428 -0.0137
vt -0.0078 0.4355
vt 0.1221 -0.1777
vt 0.1924 0.9414
vt 0.8086 0.7461
vt 0.1064 0.4775
vt 0.6914 0.1787
vt 0.8164 0.2158
vt 0.9746 0.9531
vt 0.0664 0.2725
vt 0.1182 0.9033
vt 0.1201 0.1543
vt 0.2002 1.2988
vt 0.8906 0.1436
vt 0.8975 1.1533
vt 0.0752 0.5225
vt 0.6807 0.1006
vt 0.3955 1.0322
vt 0.9648 0.8027
vt 0.6510 0.1318
vt 0.6491 0.3457
vt 0.9375 0.2227
vt 0.6497 0.7803
vt 0.6419 0.7422
vt 0.9362 0.6963
vt 0.6439 0.3799
vt 0.9473 0.6123
vt 0.9505 0.4570
vt 0.6426 0.1055
vt 0.5345 0.7100
vt 0.5423 0.3623
vt 0.5410 0.1113
vt 0.5358 0.1279
vt 0.5345 0.3271
vt 0.5345 0.7451
vt 0.9661 0.7686
vt 0.5339 0.4072
vt 0.5273 0.9482
vt 0.5273 0.9629
vt 0.9661 0.7334
vt 0.5339 0.3398
vt 0.9688 0.3164
vt 0.9688 0.4219
vt 0.2611 0.7256
vt 0.2754 0.7812
vt 0.3919 0.5967
vt 0.3945 0.3145
vt 0.1706 0.4287
vt 0.1491 0.4609
vt 0.0703 0.3066
vt 0.3613 0.2324
vt 0.3965 0.7412
vt 0.2676 0.1777
vt 0.2676 0.1592
vt 0.2572 0.8232
vt 0.2461 0.7920
vt 0.0488 0.8643
vt 0.0059 0.8555
vt 0.0781 0.8721
vt 0.0827 0.8965
vt 0.0358 0.9082
vt 0.1634 0.3193
vt 0.1569 0.2432
vt 0.6787 0.2135
vt 0.7178 0.4694
vt 0.7900 0.4714
vt 0.3555 0.2135
vt 0.6455 0.1211
vt 0.9160 0.2500
vt 0.8799 0.0768
vt 0.5293 0.4694
vt 0.1562 0.0801
vt 0.4023 0.1198
vt 0.3496 0.4694
vt 0.6445 0.0651
vt 0.5234 0.0645
vt 0.6436 0.0098
vt 0.2988 0.4694
vt 0.9287 0.4557
vt 0.1211 0.2520
vt 0.1172 0.4557
vt 0.4014 0.0111
vt 0.4014 0.0651
vt 0.8838 0.0827
vt 0.6133 0.0755
vt 0.6143 0.1048
vt 0.6133 0.0462
vt 0.8828 0.1348
vt 0.4775 0.2708
vt 0.8936 0.2943
vt 0.0840 0.2891
vt 0.0488 0.4668
vt 0.2607 0.4564
vt 0.3457 0.1048
vt 0.4795 0.1048
vt 0.3457 0.0436
vt 0.0908 0.0794
vt 0.3457 0.0742
vt 0.4863 0.4596
vt 0.0889 0.1068
vt 0.4795 0.0755
vt 0.7139 0.4577
vt 0.8838 0.1133
vt 0.9131 0.2637
vt 0.9404 0.4714
vt 0.0889 0.1296
vt 0.0566 0.2585
vt 0.0557 0.2708
vt 0.9297 0.2773
vt 0.4658 0.1042
vt 0.6123 0.1035
vt 0.6123 0.0723
vt 0.4570 0.1641
vt 0.5908 0.0768
vt 0.6328 -0.0091
vt 0.9277 0.5332
vt 0.7988 0.5443
vt 0.6436 0.5527
vt 0.5498 0.5534
vt 0.4717 0.5527
vt 0.3184 0.5527
vt 0.1201 0.5397
vt 0.2559 0.5625
vt 0.4844 0.5632
vt 0.9404 0.5508
vt 0.7168 0.5612
vt 0.0518 0.5404
vt 0.0381 0.0423
vt 0.0898 0.5221
vt 0.8350 0.5130
vt 0.8262 0.0345
vt 0.9854 0.0677
vt 0.1006 0.0397
vt 0.0996 0.0677
vt 0.9375 0.1016
vt 0.0996 0.5410
vt 0.9238 0.5345
vt 0.9854 0.0417
vt 0.1455 0.5208
vt 0.1768 0.5137
vt 0.1865 -0.0072
vt 0.9580 0.5260
vt 1.0234 -0.0033
vt 0.9502 0.5202
vt 0.1123 0.1126
vt 0.2227 0.0482
vt 0.9775 0.0495
vt 0.1025 0.5365
vt 0.9375 0.5397
vt 0.1328 0.5293
vt 0.9297 0.5339
vt 0.9092 0.9134
vt 0.0527 0.9245
vt 0.0830 0.9590
vt 0.8984 0.9525
vt 1.0000 1.0000
vt 0.0420 0.5495
vt 1.1006 0.5456
vt 0.9951 0.5443
vt -0.0195 0.5384
vt 0.8994 0.8678
vt 0.9668 0.0924
vt 0.3906 0.0391
vt 0.2041 0.7585
vn -0.510 0.666 -0.544
vn -0.838 -0.520 -0.163
vn -0.773 0.631 0.060
vn -0.395 -0.893 0.217
vn 0.577 0.577 0.577
vn 0.577 0.577 0.577
vn 0.577 0.577 0.577
vn 0.577 0.577 0.577
vn 0.577 0.577 0.577
vn 0.577 0.577 0.577
vn -0.577 -0.577 -0.577
vn 0.577 0.577 0.577
vn 0.577 0.577 0.577
vn 0.577 0.577 0.577
vn -0.577 -0.577 -0.577
vn 0.577 0.577 0.577
vn 0.577 0.577 0.577
vn 0.577 0.577 0.577
vn 0.577 0.577 0.577
vn 0.577 0.577 0.577
vn 0.577 0.577 0.577
vn 0.577 0.577 0.577
vn 0.577 0.577 0.577
vn 0.577 0.577 0.577
vn 0.577 0.577 0.577
vn 0.577 0.577 0.577
vn 0.577 0.577 0.577
vn 0.577 0.577 0.577
vn 0.577 0.577 0.577
vn 0.577 0.577 0.577
vn 0.577 0.577 0.577
vn 0.016 -0.964 -0.266
vn 0.577 0.577 0.577
vn -0.577 -0.577 -0.577
vn -0.577 -0.577 -0.577
vn 0.577 0.577 0.577
vn -0.577 -0.577 -0.577
vn 0.577 0.577 0.577
vn 0.577 0.577 0.577
vn 0.577 0.577 0.577
vn -0.577 -0.577 -0.577
vn -0.577 -0.577 -0.577
vn -0.577 -0.577 -0.577
vn 0.577 0.577 0.577
vn -0.577 -0.577 -0.577
vn -0.577 -0.577 -0.577
vn -0.577 -0.577 -0.577
vn -0.577 -0.577 -0.577
vn -0.577 -0.577 -0.577
vn -0.577 -0.577 -0.577
vn 0.577 0.577 0.577
vn -1.000 0.029 -0.000
vn -0.577 -0.577 -0.577
vn -0.577 -0.577 -0.577
vn 0.577 0.577 0.577
vn 0.577 0.577 0.577
vn 0.577 0.577 0.577
vn 0.577 0.577 0.577
vn -0.577 -0.577 -0.577
vn 0.577 0.577 0.577
vn 0.577 0.577 0.577
vn 0.577 0.577 0.577
vn 0.577 0.577 0.577
vn 0.004 -0.964 0.266
vn 0.004 -0.964 0.266
vn 0.577 0.577 0.577
vn -0.577 -0.577 -0.577
vn 0.577 0.577 0.577
vn 0.577 0.577 0.577
vn -0.577 -0.577 -0.577
vn 0.577 0.577 0.577
vn 0.012 -0.861 -0.509
vn -0.577 -0.577 -0.577
vn 0.577 0.577 0.577
vn 0.577 0.577 0.577
vn 0.577 0.577 0.577
vn 0.577 0.577 0.577
vn 0.005 -0.988 -0.155
vn -0.577 -0.577 -0.577
vn -0.577 -0.577 -0.577
vn -0.577 -0.577 -0.577
vn -0.577 -0.577 -0.577
vn -0.577 -0.577 -0.577
vn 0.577 0.577 0.577
vn -0.577 -0.577 -0.577
vn 0.577 0.577 0.577
vn -0.577 -0.577 -0.577
vn 0.577 0.577 0.577
vn 0.577 0.577 0.577
vn 0.577 0.577 0.577
vn 0.577 0.577 0.577
vn -0.577 -0.577 -0.577
vn -0.577 -0.577 -0.577
vn -0.577 -0.577 -0.577
vn 0.577 0.577 0.577
vn -0.577 -0.577 -0.577
vn 0.577 0.577 0.577
vn -0.577 -0.577 -0.577
vn 0.577 0.577 0.577
vn 0.577 0.577 0.577
vn -0.577 -0.577 -0.577
vn 0.577 0.577 0.577
vn -0.032 -0.998 0.060
vn 0.577 0.577 0.577
vn -0.577 -0.577 -0.577
vn 0.577 0.577 0.577
vn 0.577 0.577 0.577
vn 0.577 0.577 0.577
vn -0.047 -0.958 -0.283
vn 0.577 0.577 0.577
vn -0.577 -0.577 -0.577
vn -0.577 -0.577 -0.577
vn -0.577 -0.577 -0.577
vn -0.577 -0.577 -0.577
vn -0.577 -0.577 -0.577
vn -0.577 -0.577 -0.577
vn -0.577 -0.577 -0.577
vn 0.577 0.577 0.577
vn 0.577 0.577 0.577
vn -0.577 -0.577 -0.577
vn -0.577 -0.577 -0.577
vn -0.577 -0.577 -0.577
vn -0.577 -0.577 -0.577
vn -0.577 -0.577 -0.577
vn -0.577 -0.577 -0.577
vn 0.758 0.645 0.101
vn 0.845 -0.510 -0.164
vn 0.532 0.634 -0.561
vn 0.434 -0.876 0.211
vn 0.577 0.577 0.577
vn 0.577 0.577 0.577
vn 0.577 0.577 0.577
vn 0.577 0.577 0.577
vn 0.577 0.577 0.577
vn 0.577 0.577 0.577
vn 0.577 0.577 0.577
vn 0.577 0.577 0.577
vn -0.577 -0.577 -0.577
vn 0.577 0.577 0.577
vn -0.577 -0.577 -0.577
vn 0.577 0.577 0.577
vn 0.577 0.577 0.577
vn 0.577 0.577 0.577
vn 0.577 0.577 0.577
vn 0.577 0.577 0.577
vn 0.577 0.577 0.577
vn 0.577 0.577 0.577
vn 0.577 0.577 0.577
vn 0.577 0.577 0.577
vn 0.577 0.577 0.577
vn 0.577 0.577 0.577
vn 0.577 0.577 0.577
vn 0.577 0.577 0.577
vn 0.577 0.577 0.577
vn -0.577 -0.577 -0.577
vn 0.577 0.577 0.577
vn 0.577 0.577 0.577
vn 0.020 -0.977 -0.214
vn 0.577 0.577 0.577
vn -0.577 -0.577 -0.577
vn 0.577 0.577 0.577
vn -0.577 -0.577 -0.577
vn 0.577 0.577 0.577
vn 0.577 0.577 0.577
vn 0.577 0.577 0.577
vn -0.577 -0.577 -0.577
vn -0.577 -0.577 -0.577
vn -0.577 -0.577 -0.577
vn -0.577 -0.577 -0.577
vn -0.577 -0.577 -0.577
vn 0.577 0.577 0.577
vn -0.577 -0.577 -0.577
vn -0.577 -0.577 -0.577
vn -0.577 -0.577 -0.577
vn -0.577 -0.577 -0.577
vn 0.998 0.068 0.000
vn 0.577 0.577 0.577
vn 0.577 0.577 0.577
vn 0.577 0.577 0.577
vn -0.577 -0.577 -0.577
vn 0.577 0.577 0.577
vn 0.577 0.577 0.577
vn 0.577 0.577 0.577
vn 0.577 0.577 0.577
vn -0.577 -0.577 -0.577
vn 0.577 0.577 0.577
vn -0.577 -0.577 -0.577
vn -0.577 -0.577 -0.577
vn 0.577 0.577 0.577
vn 0.001 -0.968 0.249
vn 0.001 -0.968 0.249
vn 0.577 0.577 0.577
vn 0.577 0.577 0.577
vn -0.577 -0.577 -0.577
vn 0.577 0.577 0.577
vn -0.577 -0.577 -0.577
vn -0.009 -0.879 -0.478
vn 0.577 0.577 0.577
vn 0.577 0.577 0.577
vn -0.577 -0.577 -0.577
vn 0.577 0.577 0.577
vn 0.577 0.577 0.577
vn 0.001 -0.990 -0.141
vn -0.577 -0.577 -0.577
vn -0.577 -0.577 -0.577
vn -0.577 -0.577 -0.577
vn 0.577 0.577 0.577
vn -0.577 -0.577 -0.577
vn -0.577 -0.577 -0.577
vn -0.577 -0.577 -0.577
vn 0.577 0.577 0.577
vn 0.577 0.577 0.577
vn -0.577 -0.577 -0.577
vn 0.577 0.577 0.577
vn 0.577 0.577 0.577
vn 0.577 0.577 0.577
vn 0.577 0.577 0.577
vn -0.577 -0.577 -0.577
vn -0.577 -0.577 -0.577
vn -0.577 -0.577 -0.577
vn -0.577 -0.577 -0.577
vn 0.577 0.577 0.577
vn -0.577 -0.577 -0.577
vn -0.577 -0.577 -0.577
vn -0.577 -0.577 -0.577
vn 0.577 0.577 0.577
vn 0.577 0.577 0.577
vn -0.577 -0.577 -0.577
vn 0.577 0.577 0.577
vn 0.012 -0.998 0.068
vn 0.577 0.577 0.577
vn -0.577 -0.577 -0.577
vn 0.577 0.577 0.577
vn 0.577 0.577 0.577
vn 0.577 0.577 0.577
vn 0.005 -0.967 -0.254
vn 0.577 0.577 0.577
vn -0.577 -0.577 -0.577
vn -0.577 -0.577 -0.577
vn -0.577 -0.577 -0.577
vn -0.577 -0.577 -0.577
vn -0.577 -0.577 -0.577
vn -0.577 -0.577 -0.577
vn 0.577 0.577 0.577
vn 0.577 0.577 0.577
vn -0.577 -0.577 -0.577
vn -0.577 -0.577 -0.577
vn -0.577 -0.577 -0.577
vn -0.577 -0.577 -0.577
vn -0.577 -0.577 -0.577
vn -0.577 -0.577 -0.577
vn -0.577 -0.577 -0.577
vn -0.577 -0.577 -0.577
vn 0.577 0.577 0.577
vn -0.577 -0.577 -0.577
vn 0.577 0.577 0.577
vn 0.577 0.577 0.577
vn 0.577 0.577 0.577
vn 0.577 0.577 0.577
vn 0.577 0.577 0.577
vn -0.577 -0.577 -0.577
vn -0.577 -0.577 -0.577
vn -0.577 -0.577 -0.577
vn -0.577 -0.577 -0.577
vn -0.577 -0.577 -0.577
vn -0.577 -0.577 -0.577
vn -0.577 -0.577 -0.577
vn -0.577 -0.577 -0.577
vn 0.577 0.577 0.577
vn -0.577 -0.577 -0.577
vn -0.577 -0.577 -0.577
vn -0.577 -0.577 -0.577
vn -0.577 -0.577 -0.577
vn -0.577 -0.577 -0.577
vn -0.577 -0.577 -0.577
vn -0.577 -0.577 -0.577
vn -0.577 -0.577 -0.577
vn -0.577 -0.577 -0.577
vn -0.577 -0.577 -0.577
vn -0.577 -0.577 -0.577
vn -0.577 -0.577 -0.577
vn -0.577 -0.577 -0.577
vn -0.577 -0.577 -0.577
vn -0.577 -0.577 -0.577
vn -0.577 -0.577 -0.577
vn -0.577 -0.577 -0.577
vn -0.577 -0.577 -0.577
vn -0.577 -0.577 -0.577
vn -0.577 -0.577 -0.577
vn -0.577 -0.577 -0.577
vn -0.577 -0.577 -0.577
vn -0.577 -0.577 -0.577
vn -0.577 -0.577 -0.577
vn -0.577 -0.577 -0.577
vn -0.577 -0.577 -0.577
vn -0.577 -0.577 -0.577
vn -0.577 -0.577 -0.577
vn -0.577 -0.577 -0.577
vn -0.577 -0.577 -0.577
vn -0.577 -0.577 -0.577
vn -0.577 -0.577 -0.577
vn -0.577 -0.577 -0.577
vn -0.577 -0.577 -0.577
vn -0.577 -0.577 -0.577
vn -0.577 -0.577 -0.577
vn -0.577 -0.577 -0.577
vn -0.577 -0.577 -0.577
vn -0.577 -0.577 -0.577
vn -0.577 -0.577 -0.577
vn -0.577 -0.577 -0.577
vn -0.577 -0.577 -0.577
vn -0.577 -0.577 -0.577
vn -0.577 -0.577 -0.577
vn -0.577 -0.577 -0.577
vn -0.577 -0.577 -0.577
vn -0.577 -0.577 -0.577
vn -0.577 -0.577 -0.577
vn -0.577 -0.577 -0.577
vn -0.577 -0.577 -0.577
vn -0.577 -0.577 -0.577
vn -0.577 -0.577 -0.577
vn -0.577 -0.577 -0.577
vn -0.577 -0.577 -0.577
vn -0.577 -0.577 -0.577
vn -0.577 -0.577 -0.577
vn -0.577 -0.577 -0.577
vn -0.577 -0.577 -0.577
vn -0.577 -0.577 -0.577
vn -0.577 -0.577 -0.577
vn -0.577 -0.577 -0.577
vn -0.577 -0.577 -0.577
vn -0.577 -0.577 -0.577
vn -0.577 -0.577 -0.577
vn -0.577 -0.577 -0.577
vn -0.577 -0.577 -0.577
vn -0.577 -0.577 -0.577
vn -0.577 -0.577 -0.577
vn -0.577 -0.577 -0.577
vn -0.577 -0.577 -0.577
vn -0.577 -0.577 -0.577
vn -0.577 -0.577 -0.577
vn -0.577 -0.577 -0.577
vn -0.577 -0.577 -0.577
vn -0.577 -0.577 -0.577
vn -0.577 -0.577 -0.577
vn -0.577 -0.577 -0.577
vn -0.577 -0.577 -0.577
vn -0.577 -0.577 -0.577
vn -0.577 -0.577 -0.577
vn -0.577 -0.577 -0.577
vn -0.577 -0.577 -0.577
vn -0.577 -0.577 -0.577
vn -0.577 -0.577 -0.577
vn -0.577 -0.577 -0.577
vn -0.577 -0.577 -0.577
vn -0.577 -0.577 -0.577
vn -0.577 -0.577 -0.577
vn -0.577 -0.577 -0.577
vn -0.577 -0.577 -0.577
vn -0.577 -0.577 -0.577
vn -0.577 -0.577 -0.577
vn -0.577 -0.577 -0.577
vn -0.577 -0.577 -0.577
vn -0.577 -0.577 -0.577
vn -0.577 -0.577 -0.577
vn -0.577 -0.577 -0.577
vn -0.577 -0.577 -0.577
vn -0.577 -0.577 -0.577
vn -0.577 -0.577 -0.577
vn -0.577 -0.577 -0.577
vn -0.577 -0.577 -0.577
vn -0.577 -0.577 -0.577
vn -0.577 -0.577 -0.577
vn -0.577 -0.577 -0.577
vn -0.577 -0.577 -0.577
vn -0.577 -0.577 -0.577
vn -0.577 -0.577 -0.577
vn -0.577 -0.577 -0.577
vn -0.577 -0.577 -0.577
vn -0.577 -0.577 -0.577
vn -0.577 -0.577 -0.577
vn -0.577 -0.577 -0.577
vn -0.577 -0.577 -0.577
vn -0.577 -0.577 -0.577
vn -0.577 -0.577 -0.577
vn -0.577 -0.577 -0.577
vn -0.577 -0.577 -0.577
vn -0.577 -0.577 -0.577
vn -0.577 -0.577 -0.577
vn -0.577 -0.577 -0.577
vn -0.577 -0.577 -0.577
vn -0.577 -0.577 -0.577
vn -0.577 -0.577 -0.577
vn 0.577 0.577 0.577
vn 0.577 0.577 0.577
vn -0.577 -0.577 -0.577
vn 0.577 0.577 0.577
vn 0.577 0.577 0.577
vn -0.577 -0.577 -0.577
vn -0.577 -0.577 -0.577
vn -0.577 -0.577 -0.577
vn 0.577 0.577 0.577
vn 0.577 0.577 0.577
vn -0.577 -0.577 -0.577
vn -0.577 -0.577 -0.577
vn -0.577 -0.577 -0.577
vn -0.577 -0.577 -0.577
vn 0.577 0.577 0.577
vn 0.577 0.577 0.577
vn -0.577 -0.577 -0.577
vn -0.577 -0.577 -0.577
vn -0.577 -0.577 -0.577
vn -0.577 -0.577 -0.577
vn 0.577 0.577 0.577
vn 0.577 0.577 0.577
vn -0.577 -0.577 -0.577
vn 0.577 0.577 0.577
vn -0.577 -0.577 -0.577
vn 0.577 0.577 0.577
vn -0.577 -0.577 -0.577
vn -0.577 -0.577 -0.577
vn -0.577 -0.577 -0.577
vn 0.577 0.577 0.577
vn 0.577 0.577 0.577
vn 0.577 0.577 0.577
vn -0.577 -0.577 -0.577
vn -0.577 -0.577 -0.577
vn -0.577 -0.577 -0.577
vn -0.577 -0.577 -0.577
vn -0.577 -0.577 -0.577
vn 0.577 0.577 0.577
vn -0.577 -0.577 -0.577
vn -0.577 -0.577 -0.577
vn -0.577 -0.577 -0.577
vn 0.577 0.577 0.577
vn 0.577 0.577 0.577
vn -0.577 -0.577 -0.577
vn 0.577 0.577 0.577
vn 0.577 0.577 0.577
vn 0.577 0.577 0.577
vn 0.577 0.577 0.577
vn -0.577 -0.577 -0.577
vn -0.577 -0.577 -0.577
vn 0.577 0.577 0.577
vn -0.577 -0.577 -0.577
vn 0.577 0.577 0.577
vn 0.577 0.577 0.577
vn -0.577 -0.577 -0.577
vn -0.577 -0.577 -0.577
vn 0.577 0.577 0.577
vn 0.577 0.577 0.577
vn -0.577 -0.577 -0.577
vn -0.577 -0.577 -0.577
vn -0.577 -0.577 -0.577
vn -0.577 -0.577 -0.577
vn 0.577 0.577 0.577
vn 0.577 0.577 0.577
vn -0.577 -0.577 -0.577
vn -0.577 -0.577 -0.577
vn -0.577 -0.577 -0.577
vn -0.577 -0.577 -0.577
vn -0.577 -0.577 -0.577
vn -0.577 -0.577 -0.577
vn -0.577 -0.577 -0.577
vn -0.577 -0.577 -0.577
vn -0.577 -0.577 -0.577
vn -0.577 -0.577 -0.577
vn -0.577 -0.577 -0.577
vn -0.577 -0.577 -0.577
vn -0.577 -0.577 -0.577
vn -0.577 -0.577 -0.577
vn -0.577 -0.577 -0.577
vn -0.577 -0.577 -0.577
vn -0.577 -0.577 -0.577
vn -0.577 -0.577 -0.577
vn -0.577 -0.577 -0.577
vn -0.577 -0.577 -0.577
vn -0.577 -0.577 -0.577
vn -0.577 -0.577 -0.577
vn -0.577 -0.577 -0.577
vn -0.577 -0.577 -0.577
vn -0.577 -0.577 -0.577
vn -0.577 -0.577 -0.577
vn -0.577 -0.577 -0.577
vn -0.577 -0.577 -0.577
vn -0.577 -0.577 -0.577
vn -0.577 -0.577 -0.577
vn -0.577 -0.577 -0.577
vn -0.577 -0.577 -0.577
vn -0.577 -0.577 -0.577
vn -0.577 -0.577 -0.577
vn 0.577 0.577 0.577
vn 0.577 0.577 0.577
vn -0.577 -0.577 -0.577
vn -0.577 -0.577 -0.577
vn -0.577 -0.577 -0.577
vn -0.577 -0.577 -0.577
vn -0.577 -0.577 -0.577
vn -0.577 -0.577 -0.577
vn -0.577 -0.577 -0.577
vn -0.577 -0.577 -0.577
vn -0.577 -0.577 -0.577
vn -0.577 -0.577 -0.577
vn -0.577 -0.577 -0.577
vn -0.577 -0.577 -0.577
vn 0.577 0.577 0.577
vn -0.577 -0.577 -0.577
vn -0.577 -0.577 -0.577
vn -0.577 -0.577 -0.577
vn -0.577 -0.577 -0.577
vn 0.577 0.577 0.577
vn 0.577 0.577 0.577
vn -0.577 -0.577 -0.577
vn -0.577 -0.577 -0.577
vn -0.577 -0.577 -0.577
vn 0.577 0.577 0.577
vn -0.577 -0.577 -0.577
vn 0.577 0.577 0.577
vn -0.577 -0.577 -0.577
vn 0.577 0.577 0.577
vn -0.577 -0.577 -0.577
vn -0.577 -0.577 -0.577
vn 0.577 0.577 0.577
vn 0.577 0.577 0.577
vn -0.577 -0.577 -0.577
vn -0.577 -0.577 -0.577
vn -0.577 -0.577 -0.577
vn -0.577 -0.577 -0.577
vn -0.577 -0.577 -0.577
vn -0.577 -0.577 -0.577
vn 0.577 0.577 0.577
vn -0.577 -0.577 -0.577
vn -0.577 -0.577 -0.577
vn 0.577 0.577 0.577
vn 0.577 0.577 0.577
vn 0.577 0.577 0.577
vn 0.577 0.577 0.577
vn -0.577 -0.577 -0.577
vn 0.577 0.577 0.577
vn -0.577 -0.577 -0.577
vn 0.577 0.577 0.577
vn 0.577 0.577 0.577
vn 0.577 0.577 0.577
vn -0.577 -0.577 -0.577
vn -0.577 -0.577 -0.577
vn -0.577 -0.577 -0.577
vn -0.577 -0.577 -0.577
vn -0.577 -0.577 -0.577
vn 0.577 0.577 0.577
vn -0.577 -0.577 -0.577
vn -0.577 -0.577 -0.577
vn -0.577 -0.577 -0.577
vn -0.577 -0.577 -0.577
vn -0.577 -0.577 -0.577
vn -0.577 -0.577 -0.577
vn -0.577 -0.577 -0.577
vn -0.577 -0.577 -0.577
vn -0.577 -0.577 -0.577
vn -0.577 -0.577 -0.577
vn -0.577 -0.577 -0.577
vn -0.577 -0.577 -0.577
vn -0.577 -0.577 -0.577
vn -0.577 -0.577 -0.577
vn -0.577 -0.577 -0.577
vn -0.577 -0.577 -0.577
vn -0.577 -0.577 -0.577
vn -0.577 -0.577 -0.577
vn -0.577 -0.577 -0.577
vn -0.577 -0.577 -0.577
vn -0.577 -0.577 -0.577
vn -0.577 -0.577 -0.577
vn -0.577 -0.577 -0.577
vn -0.577 -0.577 -0.577
vn 0.577 0.577 0.577
vn -0.577 -0.577 -0.577
vn -0.577 -0.577 -0.577
vn -0.577 -0.577 -0.577
vn -0.577 -0.577 -0.577
vn -0.577 -0.577 -0.577
vn 0.577 0.577 0.577
vn 0.577 0.577 0.577
vn 0.577 0.577 0.577
vn -0.577 -0.577 -0.577
vn 0.577 0.577 0.577
vn -0.577 -0.577 -0.577
vn -0.577 -0.577 -0.577
vn 0.577 0.577 0.577
vn -0.577 -0.577 -0.577
vn 0.577 0.577 0.577
vn 0.577 0.577 0.577
vn 0.577 0.577 0.577
vn -0.577 -0.577 -0.577
vn -0.577 -0.577 -0.577
vn -0.577 -0.577 -0.577
vn -0.577 -0.577 -0.577
vn -0.577 -0.577 -0.577
vn 0.577 0.577 0.577
vn -0.577 -0.577 -0.577
vn -0.577 -0.577 -0.577
vn 0.577 0.577 0.577
vn -0.577 -0.577 -0.577
vn -0.577 -0.577 -0.577
vn 0.577 0.577 0.577
vn 0.577 0.577 0.577
vn 0.577 0.577 0.577
vn -0.577 -0.577 -0.577
vn -0.577 -0.577 -0.577
vn -0.577 -0.577 -0.577
vn -0.577 -0.577 -0.577
vn 0.577 0.577 0.577
vn 0.577 0.577 0.577
vn -0.577 -0.577 -0.577
vn -0.577 -0.577 -0.577
vn -0.577 -0.577 -0.577
vn -0.577 -0.577 -0.577
vn -0.577 -0.577 -0.577
vn 0.577 0.577 0.577
vn 0.577 0.577 0.577
vn -0.577 -0.577 -0.577
vn 0.577 0.577 0.577
vn -0.577 -0.577 -0.577
vn 0.577 0.577 0.577
vn -0.577 -0.577 -0.577
vn -0.577 -0.577 -0.577
vn 0.577 0.577 0.577
vn 0.577 0.577 0.577
vn -0.577 -0.577 -0.577
vn -0.577 -0.577 -0.577
vn 0.577 0.577 0.577
vn 0.577 0.577 0.577
vn -0.577 -0.577 -0.577
vn -0.577 -0.577 -0.577
vn -0.577 -0.577 -0.577
vn -0.577 -0.577 -0.577
vn -0.577 -0.577 -0.577
vn 0.577 0.577 0.577
vn -0.577 -0.577 -0.577
vn 0.577 0.577 0.577
vn -0.577 -0.577 -0.577
vn -0.577 -0.577 -0.577
vn 0.577 0.577 0.577
vn 0.577 0.577 0.577
vn 0.577 0.577 0.577
vn 0.577 0.577 0.577
vn 0.577 0.577 0.577
vn -0.577 -0.577 -0.577
vn -0.577 -0.577 -0.577
vn 0.577 0.577 0.577
vn -0.577 -0.577 -0.577
vn 0.577 0.577 0.577
vn 0.577 0.577 0.577
vn 0.577 0.577 0.577
vn -0.577 -0.577 -0.577
vn -0.577 -0.577 -0.577
vn -0.577 -0.577 -0.577
vn -0.577 -0.577 -0.577
vn -0.577 -0.577 -0.577
vn 0.577 0.577 0.577
vn 0.577 0.577 0.577
vn -0.577 -0.577 -0.577
vn 0.577 0.577 0.577
vn 0.577 0.577 0.577
vn 0.577 0.577 0.577
vn -0.577 -0.577 -0.577
vn 0.577 0.577 0.577
vn 0.577 0.577 0.577
vn -0.577 -0.577 -0.577
vn -0.577 -0.577 -0.577
vn -0.577 -0.577 -0.577
vn -0.577 -0.577 -0.577
vn -0.577 -0.577 -0.577
vn 0.577 0.577 0.577
vn -0.577 -0.577 -0.577
vn -0.577 -0.577 -0.577
vn 0.577 0.577 0.577
vn -0.577 -0.577 -0.577
vn 0.577 0.577 0.577
vn -0.577 -0.577 -0.577
vn 0.577 0.577 0.577
vn -0.577 -0.577 -0.577
vn -0.577 -0.577 -0.577
vn 0.577 0.577 0.577
vn -0.577 -0.577 -0.577
vn -0.577 -0.577 -0.577
vn -0.577 -0.577 -0.577
vn -0.577 -0.577 -0.577
vn -0.577 -0.577 -0.577
vn -0.577 -0.577 -0.577
vn -0.577 -0.577 -0.577
vn -0.577 -0.577 -0.577
vn -0.577 -0.577 -0.577
vn -0.577 -0.577 -0.577
vn -0.577 -0.577 -0.577
vn -0.577 -0.577 -0.577
vn -0.577 -0.577 -0.577
vn -0.577 -0.577 -0.577
vn -0.577 -0.577 -0.577
vn -0.577 -0.577 -0.577
vn -0.577 -0.577 -0.577
vn -0.577 -0.577 -0.577
vn -0.577 -0.577 -0.577
vn -0.577 -0.577 -0.577
vn -0.577 -0.577 -0.577
vn -0.577 -0.577 -0.577
vn -0.577 -0.577 -0.577
vn -0.577 -0.577 -0.577
vn -0.577 -0.577 -0.577
vn -0.577 -0.577 -0.577
vn -0.577 -0.577 -0.577
vn -0.577 -0.577 -0.577
vn 0.577 0.577 0.577
vn 0.577 0.577 0.577
vn -0.577 -0.577 -0.577
vn -0.577 -0.577 -0.577
vn -0.577 -0.577 -0.577
vn 0.577 0.577 0.577
vn -0.577 -0.577 -0.577
vn 0.577 0.577 0.577
vn -0.577 -0.577 -0.577
vn 0.577 0.577 0.577
vn -0.577 -0.577 -0.577
vn -0.577 -0.577 -0.577
vn 0.577 0.577 0.577
vn 0.577 0.577 0.577
vn -0.577 -0.577 -0.577
vn -0.577 -0.577 -0.577
vn 0.577 0.577 0.577
vn 0.577 0.577 0.577
vn 0.577 0.577 0.577
vn 0.577 0.577 0.577
vn -0.577 -0.577 -0.577
vn -0.577 -0.577 -0.577
vn -0.577 -0.577 -0.577
vn -0.577 -0.577 -0.577
vn -0.577 -0.577 -0.577
vn -0.577 -0.577 -0.577
vn -0.577 -0.577 -0.577
vn -0.577 -0.577 -0.577
vn -0.577 -0.577 -0.577
vn -0.577 -0.577 -0.577
vn -0.577 -0.577 -0.577
vn -0.577 -0.577 -0.577
vn -0.577 -0.577 -0.577
vn -0.577 -0.577 -0.577
vn -0.577 -0.577 -0.577
vn -0.577 -0.577 -0.577
vn -0.577 -0.577 -0.577
vn -0.577 -0.577 -0.577
vn -0.577 -0.577 -0.577
vn -0.577 -0.577 -0.577
vn -0.577 -0.577 -0.577
vn -0.577 -0.577 -0.577
vn -0.577 -0.577 -0.577
vn -0.577 -0.577 -0.577
vn -0.577 -0.577 -0.577
vn -0.577 -0.577 -0.577
vn -0.577 -0.577 -0.577
vn -0.577 -0.577 -0.577
usemtl tex_2020_lit_w01
f 1/1/1 2/2/2 3/3/3
f 3/3/3 2/2/2 4/4/4
f 3/3/3 5/5/5 6/6/6
f 3/3/3 6/6/6 7/7/7
f 8/8/8 9/9/9 10/10/10
f 8/8/8 10/10/10 4/4/4
f 5/5/5 3/3/3 10/10/10
f 10/10/10 3/3/3 4/4/4
f 1/1/1 7/7/7 8/8/8
f 2/2/2 1/1/1 8/8/8
f 8/8/8 4/4/4 2/2/2
f 6/6/6 5/5/5 10/10/10
f 3/3/3 7/7/7 1/1/1
f 6/6/6 10/10/10 9/9/9
usemtl tex_2052_lit_w11
f 11/11/11 12/12/12 13/13/13
f 14/14/14 15/15/15 16/16/16
f 14/14/14 16/16/16 12/12/12
f 17/17/17 18/18/18 19/19/19
f 18/18/18 20/20/20 13/13/13
f 17/17/17 19/19/19 16/16/16
f 11/11/11 14/14/14 12/12/12
f 18/18/18 13/13/13 19/19/19
f 15/15/15 17/17/17 16/16/16
f 20/20/20 11/11/11 13/13/13
usemtl tex_2048_lit_w11
f 21/21/21 25/22/25 22/23/22
f 26/24/26 22/23/22 25/22/25
f 23/25/23 22/23/22 26/24/26
f 23/25/23 26/24/26 27/26/27
f 23/25/23 27/26/27 24/27/24
f 28/28/28 24/27/24 27/26/27
f 24/27/24 28/28/28 25/22/25
f 25/22/25 21/21/21 24/27/24
usemtl tex_2052_lit_w11
f 35/11/35 29/29/29 36/14/36
f 36/14/36 29/29/29 30/30/30
f 36/14/36 30/30/30 37/15/37
f 37/15/37 30/30/30 31/31/31
f 37/15/37 31/31/31 38/17/38
f 38/17/38 31/31/31 32/32/32
f 38/17/38 32/32/32 39/18/39
f 39/18/39 32/32/32 33/33/33
f 39/18/39 33/33/33 40/20/40
f 40/20/40 33/33/33 34/34/34
f 40/20/40 34/34/34 35/11/35
f 35/11/35 34/34/34 29/29/29
f 41/35/41 42/36/42 43/37/43
f 44/38/44 45/39/45 46/40/46
f 41/35/41 47/41/47 42/36/42
f 43/37/43 42/36/42 44/38/44
f 46/40/46 45/39/45 48/42/48
f 48/42/48 45/39/45 47/41/47
f 48/42/48 47/41/47 41/35/41
f 43/37/43 44/38/44 46/40/46
f 46/40/46 48/42/48 41/35/41
f 46/40/46 41/35/41 43/37/43
f 45/39/45 44/38/44 49/36/49
f 45/39/45 49/36/49 50/41/50
usemtl tex_2048_lit_w11
f 51/43/51 52/44/52 53/45/53
f 54/46/54 51/43/51 53/45/53
f 55/47/55 51/43/51 54/46/54
f 56/48/56 55/47/55 54/46/54
f 57/49/57 55/47/55 56/48/56
f 58/50/58 57/49/57 56/48/56
f 59/51/59 57/49/57 58/50/58
f 60/52/60 59/51/59 58/50/58
f 61/53/61 59/51/59 60/52/60
f 62/54/62 61/53/61 60/52/60
f 52/44/52 61/53/61 62/54/62
f 63/55/63 52/44/52 62/54/62
usemtl tex_2052_lit_w11
f 64/56/64 65/57/65 66/58/66
f 67/59/67 68/60/68 69/61/69
f 67/59/67 70/62/70 71/63/71
f 69/61/69 68/60/68 72/57/72
f 73/64/73 74/65/74 75/66/75
f 76/67/76 67/59/67 71/63/71
f 73/64/73 75/66/75 76/67/76
f 71/63/71 73/64/73 76/67/76
f 67/59/67 69/61/69 70/62/70
f 75/66/75 74/65/74 77/58/77
f 78/56/78 69/61/69 72/57/72
f 78/56/78 77/58/77 74/65/74
usemtl tex_2048_lit_w11
f 79/68/79 86/69/86 80/70/80
f 87/71/87 86/69/86 79/68/79
f 88/72/88 81/73/81 89/74/89
f 81/73/81 82/75/82 89/74/89
f 81/73/81 88/72/88 90/76/90
f 91/77/91 89/74/89 83/78/83
f 89/74/89 82/75/82 83/78/83
f 81/73/81 90/76/90 84/79/84
usemtl tex_2051_lit_w11
f 85/80/85 92/81/92 93/82/93
f 97/83/97 98/81/98 94/84/94
f 97/83/97 94/84/94 95/85/95
f 97/83/97 95/85/95 99/86/99
f 96/80/96 94/84/94 98/81/98
usemtl tex_2052_lit_w11
f 106/29/106 100/63/100 107/30/107
f 107/30/107 100/63/100 101/62/101
f 107/30/107 101/62/101 108/31/108
f 108/31/108 101/62/101 102/61/102
f 108/31/108 102/61/102 109/32/109
f 109/32/109 102/61/102 103/56/103
f 109/32/109 103/56/103 110/33/110
f 110/33/110 103/56/103 104/65/104
f 110/33/110 104/65/104 105/64/105
f 106/29/106 105/64/105 100/63/100
f 111/34/111 105/64/105 106/29/106
f 110/33/110 105/64/105 111/34/111
f 112/36/112 113/87/113 114/88/114
f 115/89/115 113/87/113 116/41/116
f 117/39/117 118/38/118 119/90/119
f 115/89/115 116/41/116 117/39/117
f 118/38/118 112/36/112 114/88/114
f 112/36/112 116/41/116 113/87/113
f 118/38/118 114/88/114 119/90/119
f 115/89/115 117/39/117 119/90/119
f 120/90/120 121/88/121 122/87/122
usemtl tex_2052_lit_w11_ovl
f 120/90/120 122/87/122 123/89/123
usemtl tex_2052_lit_w11
f 124/36/124 118/38/118 117/39/117
f 124/36/124 117/39/117 125/41/125
usemtl tex_2020_lit_w01
f 126/91/126 127/92/127 128/93/128
f 129/94/129 127/92/127 126/91/126
f 130/95/130 131/96/131 126/91/126
f 131/96/131 132/97/132 126/91/126
f 129/94/129 133/98/133 134/99/134
f 129/94/129 134/99/134 135/100/135
f 133/98/133 126/91/126 132/97/132
f 129/94/129 126/91/126 133/98/133
f 135/100/135 130/95/130 128/93/128
f 135/100/135 128/93/128 127/92/127
f 127/92/127 129/94/129 135/100/135
f 133/98/133 132/97/132 131/96/131
f 128/93/128 130/95/130 126/91/126
f 134/99/134 133/98/133 131/96/131
usemtl tex_2052_lit_w11
f 136/101/136 137/102/137 138/103/138
f 139/104/139 140/105/140 141/106/141
f 139/104/139 142/107/142 143/108/143
f 142/107/142 144/109/144 143/108/143
f 136/101/136 145/110/145 144/109/144
f 137/102/137 139/104/139 141/106/141
f 137/102/137 141/106/141 138/103/138
f 142/107/142 136/101/136 144/109/144
f 139/104/139 143/108/143 140/105/140
f 136/101/136 138/103/138 145/110/145
usemtl tex_2048_lit_w11
f 146/111/146 150/112/150 147/113/147
f 147/113/147 150/112/150 148/114/148
f 150/112/150 151/115/151 148/114/148
f 149/116/149 148/114/148 151/115/151
f 149/116/149 151/115/151 152/117/152
f 146/111/146 149/116/149 152/117/152
f 153/118/153 146/111/146 152/117/152
f 146/111/146 153/118/153 150/112/150
usemtl tex_2052_lit_w11
f 154/119/154 155/120/155 160/103/160
f 154/119/154 160/103/160 161/106/161
f 154/119/154 161/106/161 162/105/162
f 160/103/160 155/120/155 163/110/163
f 156/121/156 157/122/157 162/105/162
f 164/108/164 156/121/156 162/105/162
f 158/123/158 156/121/156 164/108/164
f 165/109/165 158/123/158 164/108/164
f 159/124/159 158/123/158 165/109/165
f 163/110/163 159/124/159 165/109/165
f 155/120/155 159/124/159 163/110/163
f 157/122/157 154/119/154 162/105/162
f 166/125/166 167/126/167 168/127/168
f 169/128/169 170/129/170 171/130/171
f 167/126/167 172/131/172 168/127/168
f 171/130/171 167/126/167 166/125/166
f 173/132/173 170/129/170 169/128/169
f 172/131/172 170/129/170 173/132/173
f 168/127/168 172/131/172 173/132/173
f 169/128/169 171/130/171 166/125/166
f 166/125/166 168/127/168 173/132/173
f 166/125/166 173/132/173 169/128/169
f 174/131/174 175/126/175 171/130/171
f 174/131/174 171/130/171 170/129/170
usemtl tex_2048_lit_w11
f 176/44/176 177/55/177 178/133/178
f 178/133/178 177/55/177 179/134/179
f 178/133/178 179/134/179 180/135/180
f 180/135/180 179/134/179 181/136/181
f 180/135/180 181/136/181 182/137/182
f 182/137/182 181/136/181 183/138/183
f 182/137/182 183/138/183 184/139/184
f 184/139/184 183/138/183 185/140/185
f 184/139/184 185/140/185 186/141/186
f 186/141/186 185/140/185 187/142/187
f 186/141/186 187/142/187 188/45/188
f 186/141/186 188/45/188 176/44/176
usemtl tex_2052_lit_w11
f 189/143/189 190/144/190 191/145/191
f 192/146/192 193/147/193 194/148/194
f 195/149/195 196/150/196 194/148/194
f 197/144/197 193/147/193 192/146/192
f 198/151/198 199/152/199 200/153/200
f 195/149/195 194/148/194 201/154/201
f 201/154/201 198/151/198 200/153/200
f 201/154/201 200/153/200 195/149/195
f 196/150/196 192/146/192 194/148/194
f 202/143/202 199/152/199 198/151/198
f 197/144/197 192/146/192 203/145/203
f 199/152/199 202/143/202 203/145/203
usemtl tex_2048_lit_w11
f 204/68/204 212/69/212 213/71/213
f 205/70/205 212/69/212 204/68/204
f 206/155/206 214/156/214 215/157/215
f 214/156/214 206/155/206 207/158/207
f 208/159/208 216/77/216 209/78/209
f 214/156/214 207/158/207 217/160/217
f 208/159/208 206/155/206 215/157/215
f 208/159/208 215/157/215 216/77/216
usemtl tex_2051_lit_w11
f 210/161/210 218/162/218 219/163/219
f 211/164/211 210/161/210 219/163/219
f 223/162/223 220/80/220 224/82/224
f 221/161/221 220/80/220 223/162/223
f 222/164/222 225/163/225 226/165/226
usemtl tex_2052_lit_w11
f 233/122/233 227/149/227 234/119/234
f 228/150/228 227/149/227 233/122/233
f 235/121/235 228/150/228 233/122/233
f 229/146/229 228/150/228 235/121/235
f 236/123/236 229/146/229 235/121/235
f 230/145/230 229/146/229 236/123/236
f 237/124/237 230/145/230 236/123/236
f 231/152/231 230/145/230 237/124/237
f 238/120/238 231/152/231 237/124/237
f 232/153/232 231/152/231 238/120/238
f 234/119/234 232/153/232 238/120/238
f 227/149/227 232/153/232 234/119/234
f 239/166/239 240/167/240 241/126/241
f 242/131/242 240/167/240 243/168/243
f 244/169/244 245/130/245 246/129/246
f 246/129/246 242/131/242 243/168/243
f 239/166/239 241/126/241 245/130/245
f 240/167/240 242/131/242 241/126/241
f 244/169/244 239/166/239 245/130/245
f 244/169/244 246/129/246 243/168/243
f 247/168/247 248/167/248 249/166/249
f 247/168/247 249/166/249 250/169/250
f 251/131/251 246/129/246 245/130/245
f 251/131/251 245/130/245 252/126/252
usemtl tex_2055_lit
f 253/170/253 261/171/261 262/172/262
f 254/173/254 263/174/263 255/175/255
f 264/176/264 261/171/261 253/170/253
f 256/177/256 255/175/255 265/178/265
f 266/179/266 267/180/267 257/181/257
f 267/180/267 258/182/258 257/181/257
f 267/180/267 259/183/259 258/182/258
usemtl tex_2055_lit_ovl
f 267/180/267 268/184/268 259/183/259
usemtl tex_2055_lit
f 259/183/259 268/184/268 260/185/260
f 270/184/270 271/186/271 269/185/269
usemtl tex_2047_lit
f 272/187/272 273/188/273 274/189/274
f 272/187/272 274/189/274 275/190/275
f 272/187/272 275/190/275 276/191/276
f 277/192/277 278/193/278 272/187/272
f 273/188/273 279/194/279 274/189/274
f 280/195/280 281/196/281 282/197/282
f 273/188/273 272/187/272 283/198/283
f 284/199/284 279/194/279 285/200/285
f 286/201/286 276/191/276 281/196/281
f 275/190/275 274/189/274 279/194/279
f 280/195/280 287/202/287 286/201/286
f 288/203/288 289/204/289 290/197/290
f 289/204/289 291/205/291 290/197/290
f 291/205/291 292/195/292 290/197/290
f 293/196/293 288/203/288 290/197/290
f 294/201/294 295/187/295 296/191/296
f 295/187/295 294/201/294 297/192/297
f 298/202/298 299/198/299 295/187/295
f 298/202/298 297/192/297 294/201/294
f 295/187/295 300/193/300 298/202/298
f 298/202/298 300/193/300 297/192/297
f 292/195/292 294/201/294 293/196/293
f 292/195/292 299/198/299 298/202/298
usemtl tex_2054_lit
f 301/206/301 302/207/302 303/208/303
f 304/209/304 305/210/305 306/211/306
f 307/212/307 306/211/306 308/208/308
f 309/213/309 310/214/310 304/209/304
f 309/213/309 304/209/304 307/212/307
f 308/208/308 309/213/309 307/212/307
f 311/207/311 309/213/309 308/208/308
f 304/209/304 306/211/306 307/212/307
f 312/206/312 313/215/313 311/207/311
f 309/213/309 311/207/311 310/214/310
f 311/207/311 313/215/313 314/215/314
usemtl tex_2053_lit
f 315/216/315 316/217/316 317/218/317
f 315/216/315 318/219/318 319/220/319
f 320/221/320 321/218/321 322/217/322
f 321/218/321 320/221/320 323/219/323
f 324/216/324 321/218/321 323/219/323
f 325/222/325 326/223/326 327/220/327
f 324/216/324 327/220/327 326/223/326
f 320/221/320 322/217/322 328/224/328
f 329/225/329 327/220/327 323/219/323
f 330/222/330 325/222/325 327/220/327
usemtl tex_2050_lit
f 331/226/331 332/227/332 333/228/333
f 334/229/334 335/230/335 336/231/336
f 334/229/334 337/232/337 335/230/335
f 338/233/338 339/234/339 340/235/340
f 341/236/341 335/230/335 337/232/337
f 341/236/341 337/232/337 342/237/342
f 343/238/343 344/239/344 345/240/345
usemtl tex_2052_lit_w11
f 346/241/346 347/242/347 348/243/348
f 346/241/346 348/243/348 349/244/349
usemtl tex_2047_lit
f 350/245/350 351/246/351 352/247/352
f 350/245/350 352/247/352 353/248/353
usemtl tex_2054_lit
f 354/249/354 355/250/355 356/251/356
f 354/249/354 356/251/356 357/252/357
usemtl tex_2053_lit
f 358/253/358 359/254/359 360/255/360
f 358/253/358 360/255/360 361/256/361
f 362/257/362 363/258/363 364/259/364
f 362/257/362 364/259/364 365/260/365
f 366/261/366 367/262/367 368/263/368
f 366/261/366 368/263/368 369/264/369
usemtl tex_1609_lit
f 370/265/370 371/266/371 372/267/372
f 373/268/373 371/266/371 370/265/370
usemtl tex_1613_lit_w11
f 374/269/374 375/270/375 376/271/376
f 377/272/377 375/270/375 374/269/374
usemtl tex_1619_lit_w11
f 378/273/378 379/274/379 380/275/380
f 381/276/381 379/274/379 378/273/378
usemtl tex_1622_lit_w11
f 382/277/382 383/278/383 384/279/384
f 385/280/385 383/278/383 382/277/382
usemtl tex_1616_lit_w11
f 386/281/386 387/282/387 388/283/388
f 389/284/389 387/282/387 386/281/386
usemtl tex_2049_lit_w11
f 396/285/396 390/286/390 391/287/391
f 397/288/397 396/285/396 392/289/392
f 398/290/398 393/291/393 394/292/394
f 399/293/399 394/292/394 395/294/395
f 397/288/397 392/289/392 393/291/393
f 396/285/396 399/293/399 390/286/390
f 398/290/398 397/288/397 393/291/393
f 395/294/395 390/286/390 399/293/399
f 396/285/396 391/287/391 392/289/392
f 399/293/399 398/290/398 394/292/394
f 406/289/406 400/295/400 407/291/407
f 407/291/407 400/295/400 401/296/401
f 407/291/407 401/296/401 408/292/408
f 408/292/408 401/296/401 402/297/402
f 408/292/408 402/297/402 409/294/409
f 409/294/409 402/297/402 403/298/403
f 409/294/409 403/298/403 410/286/410
f 410/286/410 403/298/403 404/299/404
f 410/286/410 404/299/404 411/287/411
f 411/287/411 404/299/404 405/300/405
f 411/287/411 405/300/405 406/289/406
f 406/289/406 405/300/405 400/295/400
f 412/301/412 413/302/413 414/303/414
f 415/304/415 416/305/416 412/301/412
f 417/306/417 413/302/413 418/307/418
f 419/308/419 418/307/418 420/304/420
f 418/307/418 416/305/416 420/304/420
f 417/306/417 414/303/414 413/302/413
f 415/304/415 412/301/412 414/303/414
f 419/308/419 417/306/417 418/307/418
f 413/302/413 421/301/421 422/305/422
f 413/302/413 422/305/422 418/307/418
f 423/309/423 424/310/424 425/311/425
f 423/309/423 426/312/426 427/313/427
f 428/314/428 429/315/429 430/316/430
f 423/309/423 425/311/425 426/312/426
f 424/310/424 428/314/428 430/316/430
f 431/317/431 428/314/428 424/310/424
f 426/312/426 429/315/429 432/318/432
f 423/309/423 431/317/431 424/310/424
f 428/314/428 433/319/433 429/315/429
f 429/315/429 433/319/433 432/318/432
f 427/313/427 426/312/426 432/318/432
f 434/320/434 435/321/435 441/310/441
f 434/320/434 441/310/441 442/316/442
f 443/315/443 434/320/434 442/316/442
f 436/322/436 434/320/434 443/315/443
f 437/323/437 436/322/436 443/315/443
f 444/311/444 438/324/438 437/323/437
f 444/311/444 438/324/438 437/323/437
f 444/311/444 437/323/437 445/312/445
f 444/311/444 438/324/438 437/323/437
f 445/312/445 437/323/437 443/315/443
f 446/325/446 439/325/439 447/325/447
f 446/325/446 440/325/440 439/325/439
f 454/295/454 448/319/448 455/296/455
f 455/296/455 448/319/448 449/314/449
f 455/296/455 449/314/449 456/297/456
f 456/297/456 449/314/449 450/317/450
f 456/297/456 450/317/450 457/298/457
f 457/298/457 450/317/450 451/309/451
f 457/298/457 451/309/451 458/299/458
f 458/299/458 451/309/451 452/313/452
f 458/299/458 452/313/452 459/300/459
f 459/300/459 452/313/452 453/318/453
f 459/300/459 453/318/453 454/295/454
f 454/295/454 453/318/453 448/319/448
f 460/326/460 461/327/461 462/328/462
f 462/328/462 463/329/463 460/326/460
f 464/301/464 462/328/462 461/327/461
f 464/301/464 460/326/460 465/302/465
f 464/301/464 461/327/461 460/326/460
f 462/328/462 466/307/466 463/329/463
f 467/305/467 466/307/466 462/328/462
f 460/326/460 463/329/463 465/302/465
f 464/301/464 467/305/467 462/328/462
f 466/307/466 465/302/465 463/329/463
f 466/307/466 468/305/468 469/301/469
f 466/307/466 469/301/469 465/302/465
usemtl tex_1609_lit
f 470/330/470 471/331/471 472/332/472
f 472/332/472 471/331/471 473/333/473
usemtl tex_1613_lit_w11
f 474/334/474 475/335/475 476/336/476
f 476/336/476 475/335/475 477/337/477
usemtl tex_1619_lit_w11
f 478/338/478 479/339/479 480/340/480
f 480/340/480 479/339/479 481/341/481
usemtl tex_1622_lit_w11
f 482/342/482 483/343/483 484/344/484
f 484/344/484 483/343/483 485/345/485
usemtl tex_1616_lit_w11
f 486/346/486 487/347/487 488/348/488
f 488/348/488 487/347/487 489/349/489
usemtl tex_2049_lit_w11
f 490/350/490 491/351/491 496/352/496
f 492/353/492 493/354/493 497/355/497
f 493/354/493 494/356/494 498/357/498
f 490/350/490 496/352/496 499/358/499
f 494/356/494 495/359/495 499/358/499
f 491/351/491 497/355/497 496/352/496
f 494/356/494 499/358/499 498/357/498
f 497/355/497 491/351/491 492/353/492
f 495/359/495 490/350/490 499/358/499
f 493/354/493 498/357/498 497/355/497
f 506/354/506 500/360/500 507/356/507
f 507/356/507 500/360/500 501/361/501
f 507/356/507 501/361/501 508/359/508
f 508/359/508 501/361/501 502/362/502
f 508/359/508 502/362/502 509/350/509
f 509/350/509 502/362/502 503/363/503
f 509/350/509 503/363/503 510/351/510
f 510/351/510 503/363/503 504/364/504
f 510/351/510 504/364/504 511/353/511
f 511/353/511 504/364/504 505/365/505
f 511/353/511 505/365/505 506/354/506
f 506/354/506 505/365/505 500/360/500
f 512/366/512 513/367/513 514/368/514
f 514/368/514 515/369/515 516/370/516
f 517/371/517 513/367/513 518/372/518
f 519/370/519 517/371/517 520/373/520
f 519/370/519 515/369/515 517/371/517
f 513/367/513 512/366/512 518/372/518
f 512/366/512 514/368/514 516/370/516
f 517/371/517 518/372/518 520/373/520
f 521/368/521 513/367/513 517/371/517
f 521/368/521 517/371/517 522/369/522
f 523/374/523 524/375/524 525/376/525
f 526/377/526 527/378/527 525/376/525
f 528/379/528 529/380/529 530/381/530
f 527/378/527 523/374/523 525/376/525
f 528/379/528 530/381/530 524/375/524
f 524/375/524 530/381/530 531/382/531
f 532/383/532 529/380/529 527/378/527
f 524/375/524 531/382/531 525/376/525
f 529/380/529 533/384/533 530/381/530
f 532/383/532 533/384/533 529/380/529
f 532/383/532 527/378/527 526/377/526
f 534/325/534 541/325/541 535/325/535
f 542/374/542 536/385/536 543/375/543
f 544/379/544 537/386/537 538/387/538
f 544/379/544 543/375/543 537/386/537
f 544/379/544 538/387/538 545/380/545
f 545/380/545 538/387/538 539/388/539
f 545/380/545 539/388/539 540/389/540
f 542/374/542 540/389/540 536/385/536
f 546/378/546 540/389/540 542/374/542
f 545/380/545 540/389/540 546/378/546
f 553/361/553 547/384/547 554/362/554
f 548/381/548 547/384/547 553/361/553
f 555/360/555 548/381/548 553/361/553
f 549/382/549 548/381/548 555/360/555
f 556/365/556 549/382/549 555/360/555
f 550/376/550 549/382/549 556/365/556
f 557/364/557 550/376/550 556/365/556
f 551/377/551 550/376/550 557/364/557
f 558/363/558 551/377/551 557/364/557
f 552/383/552 551/377/551 558/363/558
f 554/362/554 552/383/552 558/363/558
f 547/384/547 552/383/552 554/362/554
f 559/390/559 560/391/560 561/368/561
f 562/367/562 563/392/563 561/368/561
f 563/392/563 559/390/559 561/368/561
f 564/393/564 565/371/565 560/391/560
f 560/391/560 565/371/565 566/369/566
f 562/367/562 564/393/564 563/392/563
f 560/391/560 566/369/566 561/368/561
f 564/393/564 562/367/562 565/371/565
f 559/390/559 563/392/563 564/393/564
f 564/393/564 560/391/560 559/390/559
f 567/369/567 565/371/565 562/367/562
f 567/369/567 562/367/562 568/368/568
usemtl tex_2048_lit_w11
f 569/394/569 570/395/570 571/396/571
f 572/397/572 569/394/569 573/398/573
f 569/394/569 574/399/574 575/400/575
f 569/394/569 571/396/571 574/399/574
f 576/401/576 570/395/570 569/394/569
f 577/402/577 572/397/572 578/403/578
f 572/397/572 579/404/579 576/401/576
f 578/403/578 572/397/572 573/398/573
f 578/403/578 573/398/573 580/405/580
f 578/403/578 580/405/580 581/406/581
f 573/398/573 575/400/575 580/405/580
f 575/400/575 582/407/582 580/405/580
f 579/404/579 572/397/572 583/408/583
f 571/396/571 584/409/584 574/399/574
f 585/397/585 586/402/586 587/410/587
f 588/408/588 587/410/587 589/411/589
f 590/412/590 586/402/586 591/413/591
f 586/402/586 592/403/592 591/413/591
f 593/398/593 594/394/594 595/400/595
f 585/397/585 596/401/596 594/394/594
f 585/397/585 587/410/587 588/408/588
usemtl tex_2051_lit_w11
f 597/414/597 598/415/598 599/416/599
f 597/414/597 600/417/600 598/415/598
f 601/418/601 602/419/602 603/420/603
f 604/421/604 605/422/605 606/423/606
f 607/424/607 602/419/602 608/416/608
f 607/424/607 608/416/608 609/425/609
f 610/426/610 611/427/611 612/428/612
f 611/427/611 607/424/607 612/428/612
f 602/419/602 606/423/606 613/429/613
f 614/430/614 611/427/611 610/426/610
f 610/426/610 612/428/612 615/431/615
f 612/428/612 607/424/607 615/431/615
f 602/419/602 613/429/613 616/432/616
f 617/417/617 618/414/618 619/433/619
f 620/434/620 621/418/621 622/420/622
f 622/420/622 623/419/623 624/432/624
f 620/434/620 622/420/622 625/435/625
f 623/419/623 626/421/626 627/423/627
f 628/436/628 629/437/629 626/421/626
f 630/422/630 626/421/626 629/437/629
f 631/424/631 632/425/632 633/416/633
f 631/424/631 633/416/633 634/415/634
f 631/424/631 634/415/634 635/431/635
f 636/420/636 637/432/637 638/435/638
f 631/424/631 639/436/639 640/419/640
f 641/427/641 639/436/639 631/424/631
f 642/438/642 643/422/643 644/437/644
f 639/436/639 645/421/645 640/419/640
f 646/418/646 633/416/633 640/419/640
f 647/418/647 648/414/648 649/416/649
f 650/434/650 651/435/651 652/439/652
f 653/440/653 654/441/654 655/442/655
f 656/443/656 657/444/657 658/445/658
usemtl tex_2048_lit_w11
f 659/446/659 666/409/666 660/447/660
f 660/447/660 666/409/666 667/396/667
f 660/447/660 667/396/667 661/448/661
f 661/448/661 667/396/667 668/395/668
f 661/448/661 668/395/668 662/449/662
f 662/449/662 668/395/668 669/401/669
f 662/449/662 669/401/669 663/450/663
f 663/450/663 669/401/669 670/404/670
usemtl tex_2048_lit_w11_ovl
f 663/450/663 670/404/670 664/451/664
usemtl tex_2048_lit_w11
f 664/451/664 670/404/670 671/408/671
f 664/451/664 671/408/671 672/411/672
f 664/451/664 672/411/672 665/452/665
usemtl tex_2051_lit_w11
f 678/423/678 673/453/673 674/454/674
f 675/455/675 679/435/679 676/456/676
f 676/456/676 679/435/679 680/432/680
f 680/432/680 681/429/681 674/454/674
f 673/453/673 678/423/678 677/457/677
f 677/457/677 678/423/678 682/422/682
f 681/429/681 678/423/678 674/454/674
f 676/456/676 680/432/680 674/454/674
usemtl tex_2048_lit_w11
f 683/458/683 684/459/684 685/460/685
f 686/461/686 683/458/683 685/460/685
usemtl tex_2051_lit_w11
f 687/462/687 688/463/688 689/464/689
f 690/465/690 691/466/691 692/467/692
f 688/463/688 687/462/687 693/468/693
f 694/469/694 695/470/695 696/471/696
f 697/472/697 698/473/698 699/474/699
f 700/465/700 701/475/701 702/466/702
f 703/470/703 704/476/704 705/471/705
f 706/477/706 699/474/699 698/473/698
f 707/478/707 708/479/708 709/480/709
f 708/479/708 710/481/710 709/480/709
usemtl tex_2048_lit_w11
f 711/79/711 712/446/712 713/73/713
f 713/73/713 712/446/712 714/447/714
f 713/73/713 714/447/714 715/75/715
f 715/75/715 714/447/714 716/448/716
f 715/75/715 716/448/716 717/78/717
f 717/78/717 716/448/716 718/449/718
f 717/78/717 718/449/718 719/159/719
f 719/159/719 718/449/718 720/450/720
f 719/159/719 720/450/720 721/155/721
f 721/155/721 720/450/720 722/451/722
f 721/155/721 722/451/722 723/452/723
f 721/155/721 723/452/723 724/158/724
usemtl tex_2051_lit_w11
f 725/84/725 726/453/726 727/457/727
f 725/84/725 727/457/727 728/85/728
f 729/164/729 730/455/730 731/161/731
f 731/161/731 730/455/730 732/456/732
f 731/161/731 732/456/732 733/80/733
f 733/80/733 732/456/732 734/454/734
f 733/80/733 734/454/734 726/453/726
f 733/80/733 726/453/726 725/84/725
usemtl tex_2048_lit_w11
f 735/482/735 736/460/736 737/459/737
f 735/482/735 737/459/737 738/483/738
usemtl tex_2051_lit_w11
f 739/466/739 740/484/740 741/485/741
f 742/486/742 743/487/743 744/325/744
f 742/486/742 745/488/745 743/487/743
f 746/486/746 747/489/747 748/325/748
f 748/325/748 747/489/747 749/490/749
f 750/467/750 739/466/739 741/485/741
f 751/478/751 752/481/752 753/479/753
f 751/478/751 754/480/754 752/481/752
usemtl tex_2052_lit_w11
f 755/491/755 756/492/756 757/493/757
f 755/491/755 757/493/757 758/494/758
