mtllib GautoshotZ.mtl
v 99.99995599999966 35.74662399291992 555.3243865966797 0.996 0.996 0.996
v -4.400000034365803e-05 35.74662399291992 555.3243865966797 0.996 0.996 0.996
v -4.400000034365803e-05 135.74662399291992 555.3243865966797 0.996 0.996 0.996
v 99.99995599999966 135.74662399291992 555.3243865966797 0.996 0.996 0.996
v -4.400000034365803e-05 135.74662399291992 555.3243865966797 0.996 0.996 0.996
v -4.400000034365803e-05 35.74662399291992 555.3243865966797 0.996 0.996 0.996
v -100.00004400000034 35.74662399291992 555.3243865966797 0.996 0.996 0.996
v -100.00004400000034 135.74662399291992 555.3243865966797 0.996 0.996 0.996
v -4.400000034365803e-05 -64.25337600708008 555.3243865966797 0.996 0.996 0.996
v -4.400000034365803e-05 35.74662399291992 555.3243865966797 0.996 0.996 0.996
v 99.99995599999966 35.74662399291992 555.3243865966797 0.996 0.996 0.996
v 99.99995599999966 -64.25337600708008 555.3243865966797 0.996 0.996 0.996
v -4.400000034365803e-05 -64.25337600708008 555.3243865966797 0.996 0.996 0.996
v -100.00004400000034 -64.25337600708008 555.3243865966797 0.996 0.996 0.996
v -100.00004400000034 35.74662399291992 555.3243865966797 0.996 0.996 0.996
v -4.400000034365803e-05 35.74662399291992 555.3243865966797 0.996 0.996 0.996
v 99.99995599999966 77.9359359741211 648.5172119140625 0.996 0.996 0.996
v -4.400000034365803e-05 77.9359359741211 648.5172119140625 0.996 0.996 0.996
v -4.400000034365803e-05 177.9359359741211 648.5172119140625 0.996 0.996 0.996
v 99.99995599999966 177.9359359741211 648.5172119140625 0.996 0.996 0.996
v -4.400000034365803e-05 177.9359359741211 648.5172119140625 0.996 0.996 0.996
v -4.400000034365803e-05 77.9359359741211 648.5172119140625 0.996 0.996 0.996
v -100.00004400000034 77.9359359741211 648.5172119140625 0.996 0.996 0.996
v -100.00004400000034 177.9359359741211 648.5172119140625 0.996 0.996 0.996
v -4.400000034365803e-05 -22.064064025878906 648.5172119140625 0.996 0.996 0.996
v -4.400000034365803e-05 77.9359359741211 648.5172119140625 0.996 0.996 0.996
v 99.99995599999966 77.9359359741211 648.5172119140625 0.996 0.996 0.996
v 99.99995599999966 -22.064064025878906 648.5172119140625 0.996 0.996 0.996
v -4.400000034365803e-05 -22.064064025878906 648.5172119140625 0.996 0.996 0.996
v -100.00004400000034 -22.064064025878906 648.5172119140625 0.996 0.996 0.996
v -100.00004400000034 77.9359359741211 648.5172119140625 0.996 0.996 0.996
v -4.400000034365803e-05 77.9359359741211 648.5172119140625 0.996 0.996 0.996
v 18.0 60.0 310.0 1.000 1.000 1.000
v 18.0 6.0 310.0 1.000 1.000 1.000
v 18.0 6.0 60.0 1.000 1.000 1.000
v 18.0 60.0 60.0 1.000 1.000 1.000
v -18.0 60.0 60.0 1.000 1.000 1.000
v -18.0 6.0 60.0 1.000 1.000 1.000
v -18.0 6.0 310.0 1.000 1.000 1.000
v -18.0 60.0 310.0 1.000 1.000 1.000
v 18.0 60.0 561.0 1.000 1.000 1.000
v 18.0 6.0 561.0 1.000 1.000 1.000
v -18.0 6.0 561.0 1.000 1.000 1.000
v -18.0 60.0 561.0 1.000 1.000 1.000
v -18.0 6.0 310.0 1.000 1.000 1.000
v -18.0 6.0 60.0 1.000 1.000 1.000
v 18.0 6.0 60.0 1.000 1.000 1.000
v 18.0 6.0 310.0 1.000 1.000 1.000
v -18.0 6.0 60.0 1.000 1.000 1.000
v 18.0 6.0 310.0 1.000 1.000 1.000
v -18.0 6.0 310.0 1.000 1.000 1.000
v 18.0 6.0 310.0 1.000 1.000 1.000
v 18.0 6.0 561.0 1.000 1.000 1.000
v -18.0 6.0 561.0 1.000 1.000 1.000
v -18.0 6.0 310.0 1.000 1.000 1.000
v 18.0 6.0 561.0 1.000 1.000 1.000
v 27.0 24.0 552.0 1.000 1.000 1.000
v 27.0 42.0 552.0 1.000 1.000 1.000
v 18.0 60.0 561.0 1.000 1.000 1.000
v 27.0 42.0 319.0 1.000 1.000 1.000
v 18.0 60.0 310.0 1.000 1.000 1.000
v 27.0 24.0 319.0 1.000 1.000 1.000
v 18.0 6.0 310.0 1.000 1.000 1.000
v -18.0 60.0 561.0 1.000 1.000 1.000
v -27.0 42.0 552.0 1.000 1.000 1.000
v -27.0 24.0 552.0 1.000 1.000 1.000
v -18.0 6.0 561.0 1.000 1.000 1.000
v -18.0 60.0 310.0 1.000 1.000 1.000
v -27.0 42.0 319.0 1.000 1.000 1.000
v -27.0 24.0 319.0 1.000 1.000 1.000
v -18.0 6.0 310.0 1.000 1.000 1.000
v -18.0 6.0 310.0 1.000 1.000 1.000
v 18.0 6.0 310.0 1.000 1.000 1.000
v 9.0 -2.0 319.0 1.000 1.000 1.000
v -9.0 -2.0 319.0 1.000 1.000 1.000
v -18.0 6.0 561.0 1.000 1.000 1.000
v -9.0 -2.0 552.0 1.000 1.000 1.000
v 9.0 -2.0 552.0 1.000 1.000 1.000
v 18.0 6.0 561.0 1.000 1.000 1.000
v -18.0 60.0 561.0 1.000 1.000 1.000
v -18.0 6.0 561.0 1.000 1.000 1.000
v -18.0 15.0 605.0 1.000 1.000 1.000
v -18.0 60.0 605.0 1.000 1.000 1.000
v -9.0 6.0 596.0 1.000 1.000 1.000
v 18.0 6.0 561.0 1.000 1.000 1.000
v 9.0 6.0 596.0 1.000 1.000 1.000
v 18.0 6.0 561.0 1.000 1.000 1.000
v 18.0 15.0 605.0 1.000 1.000 1.000
v 18.0 60.0 561.0 1.000 1.000 1.000
v 18.0 60.0 605.0 1.000 1.000 1.000
v -9.0 6.0 596.0 1.000 1.000 1.000
v 9.0 6.0 596.0 1.000 1.000 1.000
v 18.0 15.0 605.0 1.000 1.000 1.000
v -18.0 15.0 605.0 1.000 1.000 1.000
v 18.0 60.0 605.0 1.000 1.000 1.000
v -5.0 65.0 632.0 1.000 1.000 1.000
v -13.0 72.0 632.0 1.000 1.000 1.000
v -13.0 72.0 605.0 1.000 1.000 1.000
v -5.0 65.0 605.0 1.000 1.000 1.000
v -13.0 84.0 632.0 1.000 1.000 1.000
v -13.0 84.0 605.0 1.000 1.000 1.000
v -5.0 91.0 632.0 1.000 1.000 1.000
v -5.0 91.0 605.0 1.000 1.000 1.000
v -13.0 84.0 605.0 1.000 1.000 1.000
v -13.0 84.0 632.0 1.000 1.000 1.000
v 5.0 91.0 632.0 1.000 1.000 1.000
v 5.0 91.0 605.0 1.000 1.000 1.000
v 13.0 84.0 632.0 1.000 1.000 1.000
v 13.0 84.0 605.0 1.000 1.000 1.000
v 5.0 91.0 632.0 1.000 1.000 1.000
v 13.0 72.0 632.0 1.000 1.000 1.000
v 13.0 72.0 605.0 1.000 1.000 1.000
v 13.0 84.0 605.0 1.000 1.000 1.000
v 13.0 84.0 632.0 1.000 1.000 1.000
v 5.0 65.0 632.0 1.000 1.000 1.000
v 5.0 65.0 605.0 1.000 1.000 1.000
v 5.0 65.0 632.0 1.000 1.000 1.000
v -5.0 65.0 632.0 1.000 1.000 1.000
v -5.0 65.0 605.0 1.000 1.000 1.000
v 5.0 65.0 605.0 1.000 1.000 1.000
v -18.0 91.0 364.0 1.000 1.000 1.000
v -18.0 96.0 310.0 1.000 1.000 1.000
v -18.0 60.0 310.0 1.000 1.000 1.000
v -18.0 60.0 561.0 1.000 1.000 1.000
v -18.0 91.0 605.0 1.000 1.000 1.000
v -18.0 60.0 605.0 1.000 1.000 1.000
v 18.0 60.0 561.0 1.000 1.000 1.000
v 18.0 60.0 310.0 1.000 1.000 1.000
v 18.0 91.0 364.0 1.000 1.000 1.000
v 18.0 91.0 605.0 1.000 1.000 1.000
v 18.0 60.0 605.0 1.000 1.000 1.000
v 18.0 96.0 310.0 1.000 1.000 1.000
v -13.0 84.0 605.0 1.000 1.000 1.000
v -18.0 91.0 605.0 1.000 1.000 1.000
v -13.0 72.0 605.0 1.000 1.000 1.000
v -18.0 60.0 605.0 1.000 1.000 1.000
v -5.0 65.0 605.0 1.000 1.000 1.000
v -13.0 72.0 605.0 1.000 1.000 1.000
v -18.0 60.0 605.0 1.000 1.000 1.000
v 5.0 65.0 605.0 1.000 1.000 1.000
v 18.0 60.0 605.0 1.000 1.000 1.000
v 13.0 72.0 605.0 1.000 1.000 1.000
v 13.0 84.0 605.0 1.000 1.000 1.000
v 18.0 91.0 605.0 1.000 1.000 1.000
v -5.0 91.0 605.0 1.000 1.000 1.000
v -18.0 91.0 605.0 1.000 1.000 1.000
v -13.0 84.0 605.0 1.000 1.000 1.000
v -9.0 98.0 605.0 1.000 1.000 1.000
v 5.0 91.0 605.0 1.000 1.000 1.000
v 9.0 98.0 605.0 1.000 1.000 1.000
v 0.0 100.0 605.0 1.000 1.000 1.000
v -9.0 98.0 364.0 1.000 1.000 1.000
v -18.0 91.0 364.0 1.000 1.000 1.000
v -18.0 91.0 605.0 1.000 1.000 1.000
v -9.0 98.0 605.0 1.000 1.000 1.000
v -9.0 105.0 310.0 1.000 1.000 1.000
v 9.0 98.0 364.0 1.000 1.000 1.000
v 18.0 91.0 364.0 1.000 1.000 1.000
v 9.0 105.0 310.0 1.000 1.000 1.000
v -18.0 96.0 310.0 1.000 1.000 1.000
v 18.0 96.0 310.0 1.000 1.000 1.000
v 9.0 98.0 605.0 1.000 1.000 1.000
v 18.0 91.0 605.0 1.000 1.000 1.000
v -9.0 98.0 364.0 1.000 1.000 1.000
v 0.0 100.0 364.0 1.000 1.000 1.000
v 0.0 107.0 310.0 1.000 1.000 1.000
v -9.0 105.0 310.0 1.000 1.000 1.000
v 0.0 100.0 364.0 1.000 1.000 1.000
v 9.0 98.0 364.0 1.000 1.000 1.000
v 9.0 105.0 310.0 1.000 1.000 1.000
v 0.0 107.0 310.0 1.000 1.000 1.000
v 0.0 100.0 605.0 1.000 1.000 1.000
v 9.0 98.0 605.0 1.000 1.000 1.000
v -9.0 98.0 364.0 1.000 1.000 1.000
v -9.0 98.0 605.0 1.000 1.000 1.000
v 18.0 60.0 60.0 1.000 1.000 1.000
v 18.0 96.0 60.0 1.000 1.000 1.000
v 18.0 96.0 310.0 1.000 1.000 1.000
v 18.0 60.0 310.0 1.000 1.000 1.000
v -18.0 60.0 310.0 1.000 1.000 1.000
v -18.0 96.0 310.0 1.000 1.000 1.000
v -18.0 96.0 60.0 1.000 1.000 1.000
v -18.0 60.0 60.0 1.000 1.000 1.000
v 18.0 96.0 60.0 1.000 1.000 1.000
v 9.0 105.0 60.0 1.000 1.000 1.000
v 9.0 105.0 310.0 1.000 1.000 1.000
v 18.0 96.0 310.0 1.000 1.000 1.000
v -18.0 96.0 310.0 1.000 1.000 1.000
v -9.0 105.0 310.0 1.000 1.000 1.000
v -9.0 105.0 60.0 1.000 1.000 1.000
v -18.0 96.0 60.0 1.000 1.000 1.000
v 0.0 107.0 310.0 1.000 1.000 1.000
v 9.0 105.0 310.0 1.000 1.000 1.000
v 9.0 105.0 60.0 1.000 1.000 1.000
v 0.0 107.0 60.0 1.000 1.000 1.000
v -9.0 105.0 310.0 1.000 1.000 1.000
v -9.0 105.0 60.0 1.000 1.000 1.000
v 18.0 60.0 60.0 1.000 1.000 1.000
v 18.0 92.0 2.0 1.000 1.000 1.000
v 18.0 96.0 60.0 1.000 1.000 1.000
v 18.0 79.0 -15.0 1.000 1.000 1.000
v 18.0 92.0 2.0 1.000 1.000 1.000
v 18.0 61.0 -15.0 1.000 1.000 1.000
v 18.0 79.0 -15.0 1.000 1.000 1.000
v -18.0 79.0 -15.0 1.000 1.000 1.000
v -18.0 61.0 -15.0 1.000 1.000 1.000
v -18.0 60.0 60.0 1.000 1.000 1.000
v -18.0 92.0 2.0 1.000 1.000 1.000
v -18.0 79.0 -15.0 1.000 1.000 1.000
v -18.0 96.0 60.0 1.000 1.000 1.000
v -18.0 92.0 2.0 1.000 1.000 1.000
v -9.0 42.0 -20.0 1.000 1.000 1.000
v -18.0 61.0 -15.0 1.000 1.000 1.000
v -9.0 78.0 -20.0 1.000 1.000 1.000
v 0.0 60.0 -20.0 1.000 1.000 1.000
v 9.0 42.0 -20.0 1.000 1.000 1.000
v 9.0 78.0 -20.0 1.000 1.000 1.000
v 18.0 61.0 -15.0 1.000 1.000 1.000
v 9.0 105.0 60.0 1.000 1.000 1.000
v 18.0 96.0 60.0 1.000 1.000 1.000
v 18.0 92.0 2.0 1.000 1.000 1.000
v -9.0 105.0 60.0 1.000 1.000 1.000
v -18.0 92.0 2.0 1.000 1.000 1.000
v -18.0 96.0 60.0 1.000 1.000 1.000
v 9.0 96.0 -2.0 1.000 1.000 1.000
v -9.0 96.0 -2.0 1.000 1.000 1.000
v 9.0 96.0 -2.0 1.000 1.000 1.000
v 18.0 92.0 2.0 1.000 1.000 1.000
v 18.0 79.0 -15.0 1.000 1.000 1.000
v 9.0 78.0 -20.0 1.000 1.000 1.000
v -18.0 92.0 2.0 1.000 1.000 1.000
v -9.0 96.0 -2.0 1.000 1.000 1.000
v -9.0 78.0 -20.0 1.000 1.000 1.000
v -18.0 79.0 -15.0 1.000 1.000 1.000
v 18.0 61.0 -15.0 1.000 1.000 1.000
v 0.0 80.0 -20.0 1.000 1.000 1.000
v 0.0 60.0 -20.0 1.000 1.000 1.000
v -18.0 61.0 -15.0 1.000 1.000 1.000
v 0.0 107.0 60.0 1.000 1.000 1.000
v 9.0 105.0 60.0 1.000 1.000 1.000
v 9.0 96.0 -2.0 1.000 1.000 1.000
v 0.0 98.0 -2.0 1.000 1.000 1.000
v -9.0 105.0 60.0 1.000 1.000 1.000
v 0.0 107.0 60.0 1.000 1.000 1.000
v 0.0 98.0 -2.0 1.000 1.000 1.000
v -9.0 96.0 -2.0 1.000 1.000 1.000
v 0.0 98.0 -2.0 1.000 1.000 1.000
v 9.0 96.0 -2.0 1.000 1.000 1.000
v 9.0 78.0 -20.0 1.000 1.000 1.000
v 0.0 80.0 -20.0 1.000 1.000 1.000
v -9.0 96.0 -2.0 1.000 1.000 1.000
v -9.0 78.0 -20.0 1.000 1.000 1.000
v 9.0 33.0 33.0 1.000 1.000 1.000
v 9.0 15.0 33.0 1.000 1.000 1.000
v 9.0 42.0 -20.0 1.000 1.000 1.000
v -9.0 42.0 -20.0 1.000 1.000 1.000
v -9.0 15.0 33.0 1.000 1.000 1.000
v -9.0 33.0 33.0 1.000 1.000 1.000
v -18.0 6.0 60.0 1.000 1.000 1.000
v -18.0 60.0 60.0 1.000 1.000 1.000
v -9.0 33.0 33.0 1.000 1.000 1.000
v -9.0 15.0 33.0 1.000 1.000 1.000
v 18.0 61.0 -15.0 1.000 1.000 1.000
v 18.0 60.0 60.0 1.000 1.000 1.000
v 9.0 33.0 33.0 1.000 1.000 1.000
v 9.0 42.0 -20.0 1.000 1.000 1.000
v 9.0 15.0 33.0 1.000 1.000 1.000
v 9.0 33.0 33.0 1.000 1.000 1.000
v 18.0 60.0 60.0 1.000 1.000 1.000
v 18.0 6.0 60.0 1.000 1.000 1.000
v -9.0 42.0 -20.0 1.000 1.000 1.000
v -9.0 33.0 33.0 1.000 1.000 1.000
v -18.0 60.0 60.0 1.000 1.000 1.000
v -18.0 61.0 -15.0 1.000 1.000 1.000
v -9.0 42.0 -20.0 1.000 1.000 1.000
v 0.0 60.0 -20.0 1.000 1.000 1.000
v 9.0 42.0 -20.0 1.000 1.000 1.000
v 18.0 6.0 60.0 1.000 1.000 1.000
v -18.0 6.0 60.0 1.000 1.000 1.000
v -9.0 15.0 33.0 1.000 1.000 1.000
v 9.0 15.0 33.0 1.000 1.000 1.000
v -9.0 -56.0 -65.0 1.000 1.000 1.000
v -9.0 -83.0 -11.0 1.000 1.000 1.000
v -9.0 15.0 33.0 1.000 1.000 1.000
v -9.0 42.0 -20.0 1.000 1.000 1.000
v 9.0 -56.0 -65.0 1.000 1.000 1.000
v 9.0 42.0 -20.0 1.000 1.000 1.000
v 9.0 15.0 33.0 1.000 1.000 1.000
v 9.0 -83.0 -11.0 1.000 1.000 1.000
v -9.0 42.0 -20.0 1.000 1.000 1.000
v 9.0 42.0 -20.0 1.000 1.000 1.000
v 9.0 -56.0 -65.0 1.000 1.000 1.000
v -9.0 -56.0 -65.0 1.000 1.000 1.000
v 9.0 15.0 33.0 1.000 1.000 1.000
v -9.0 15.0 33.0 1.000 1.000 1.000
v 9.0 -83.0 -11.0 1.000 1.000 1.000
v -9.0 -56.0 -65.0 1.000 1.000 1.000
v 9.0 -56.0 -65.0 1.000 1.000 1.000
v 9.0 -83.0 -11.0 1.000 1.000 1.000
v -9.0 -83.0 -11.0 1.000 1.000 1.000
v -63.0 64.0 190.0 1.000 1.000 1.000
v -29.0 94.0 190.0 1.000 1.000 1.000
v -34.0 100.0 203.0 1.000 1.000 1.000
v -68.0 70.0 203.0 1.000 1.000 1.000
v -68.0 70.0 177.0 1.000 1.000 1.000
v -34.0 100.0 177.0 1.000 1.000 1.000
v -29.0 94.0 190.0 1.000 1.000 1.000
v -63.0 64.0 190.0 1.000 1.000 1.000
v -78.0 82.0 177.0 1.000 1.000 1.000
v -45.0 111.0 177.0 1.000 1.000 1.000
v -34.0 100.0 177.0 1.000 1.000 1.000
v -68.0 70.0 177.0 1.000 1.000 1.000
v -83.0 88.0 190.0 1.000 1.000 1.000
v -50.0 117.0 190.0 1.000 1.000 1.000
v -45.0 111.0 177.0 1.000 1.000 1.000
v -78.0 82.0 177.0 1.000 1.000 1.000
v -78.0 82.0 203.0 1.000 1.000 1.000
v -45.0 111.0 203.0 1.000 1.000 1.000
v -50.0 117.0 190.0 1.000 1.000 1.000
v -83.0 88.0 190.0 1.000 1.000 1.000
v -68.0 70.0 203.0 1.000 1.000 1.000
v -34.0 100.0 203.0 1.000 1.000 1.000
v -78.0 82.0 203.0 1.000 1.000 1.000
v -34.0 100.0 203.0 1.000 1.000 1.000
v -7.0 123.0 203.0 1.000 1.000 1.000
v -2.0 117.0 190.0 1.000 1.000 1.000
v -29.0 94.0 190.0 1.000 1.000 1.000
v -7.0 123.0 176.0 1.000 1.000 1.000
v -34.0 100.0 176.0 1.000 1.000 1.000
v -50.0 117.0 190.0 1.000 1.000 1.000
v -23.0 141.0 190.0 1.000 1.000 1.000
v -18.0 135.0 203.0 1.000 1.000 1.000
v -45.0 111.0 203.0 1.000 1.000 1.000
v -45.0 111.0 176.0 1.000 1.000 1.000
v -18.0 135.0 177.0 1.000 1.000 1.000
v -53.0 121.0 177.0 1.000 1.000 1.000
v -53.0 121.0 203.0 1.000 1.000 1.000
v -26.0 144.0 203.0 1.000 1.000 1.000
v -26.0 144.0 177.0 1.000 1.000 1.000
v -26.0 90.0 203.0 1.000 1.000 1.000
v -26.0 90.0 177.0 1.000 1.000 1.000
v 1.0 113.0 177.0 1.000 1.000 1.000
v 1.0 113.0 203.0 1.000 1.000 1.000
v -26.0 144.0 203.0 1.000 1.000 1.000
v -18.0 135.0 203.0 1.000 1.000 1.000
v -23.0 141.0 190.0 1.000 1.000 1.000
v -18.0 135.0 177.0 1.000 1.000 1.000
v -26.0 144.0 177.0 1.000 1.000 1.000
v -2.0 117.0 190.0 1.000 1.000 1.000
v -7.0 123.0 203.0 1.000 1.000 1.000
v 1.0 113.0 203.0 1.000 1.000 1.000
v 1.0 113.0 177.0 1.000 1.000 1.000
v -7.0 123.0 176.0 1.000 1.000 1.000
v -45.0 111.0 177.0 1.000 1.000 1.000
v -18.0 135.0 177.0 1.000 1.000 1.000
v -7.0 123.0 177.0 1.000 1.000 1.000
v -34.0 100.0 177.0 1.000 1.000 1.000
v -2.0 117.0 190.0 1.000 1.000 1.000
v 4.0 123.0 190.0 1.000 1.000 1.000
v -1.0 129.0 203.0 1.000 1.000 1.000
v -7.0 123.0 203.0 1.000 1.000 1.000
v -7.0 123.0 177.0 1.000 1.000 1.000
v -1.0 129.0 177.0 1.000 1.000 1.000
v 4.0 123.0 190.0 1.000 1.000 1.000
v -2.0 117.0 190.0 1.000 1.000 1.000
v -11.0 141.0 177.0 1.000 1.000 1.000
v -1.0 129.0 177.0 1.000 1.000 1.000
v -23.0 141.0 190.0 1.000 1.000 1.000
v -16.0 147.0 190.0 1.000 1.000 1.000
v -11.0 141.0 177.0 1.000 1.000 1.000
v -18.0 135.0 177.0 1.000 1.000 1.000
v -18.0 135.0 203.0 1.000 1.000 1.000
v -11.0 141.0 203.0 1.000 1.000 1.000
v -16.0 147.0 190.0 1.000 1.000 1.000
v -23.0 141.0 190.0 1.000 1.000 1.000
v -7.0 123.0 203.0 1.000 1.000 1.000
v -1.0 129.0 203.0 1.000 1.000 1.000
v -11.0 141.0 203.0 1.000 1.000 1.000
v -1.0 129.0 203.0 1.000 1.000 1.000
v -6.0 135.0 190.0 1.000 1.000 1.000
v 4.0 123.0 190.0 1.000 1.000 1.000
v -1.0 129.0 177.0 1.000 1.000 1.000
v -11.0 141.0 177.0 1.000 1.000 1.000
v -11.0 141.0 177.0 1.000 1.000 1.000
v -16.0 147.0 190.0 1.000 1.000 1.000
v -6.0 135.0 190.0 1.000 1.000 1.000
v -11.0 141.0 203.0 1.000 1.000 1.000
v -68.0 70.0 230.0 1.000 1.000 1.000
v -34.0 100.0 230.0 1.000 1.000 1.000
v -45.0 111.0 230.0 1.000 1.000 1.000
v -78.0 82.0 230.0 1.000 1.000 1.000
v -78.0 82.0 230.0 1.000 1.000 1.000
v -45.0 111.0 230.0 1.000 1.000 1.000
v -50.0 117.0 217.0 1.000 1.000 1.000
v -83.0 88.0 217.0 1.000 1.000 1.000
v -83.0 88.0 217.0 1.000 1.000 1.000
v -50.0 117.0 217.0 1.000 1.000 1.000
v -45.0 111.0 203.0 1.000 1.000 1.000
v -78.0 82.0 203.0 1.000 1.000 1.000
v -78.0 82.0 203.0 1.000 1.000 1.000
v -45.0 111.0 203.0 1.000 1.000 1.000
v -34.0 100.0 203.0 1.000 1.000 1.000
v -68.0 70.0 203.0 1.000 1.000 1.000
v -68.0 70.0 203.0 1.000 1.000 1.000
v -34.0 100.0 203.0 1.000 1.000 1.000
v -29.0 94.0 217.0 1.000 1.000 1.000
v -63.0 64.0 217.0 1.000 1.000 1.000
v -63.0 64.0 217.0 1.000 1.000 1.000
v -29.0 94.0 217.0 1.000 1.000 1.000
v -34.0 100.0 230.0 1.000 1.000 1.000
v -68.0 70.0 230.0 1.000 1.000 1.000
v -34.0 100.0 230.0 1.000 1.000 1.000
v -7.0 123.0 230.0 1.000 1.000 1.000
v -2.0 117.0 217.0 1.000 1.000 1.000
v -29.0 94.0 217.0 1.000 1.000 1.000
v -7.0 123.0 203.0 1.000 1.000 1.000
v -34.0 100.0 203.0 1.000 1.000 1.000
v -50.0 117.0 217.0 1.000 1.000 1.000
v -23.0 141.0 217.0 1.000 1.000 1.000
v -18.0 135.0 230.0 1.000 1.000 1.000
v -45.0 111.0 230.0 1.000 1.000 1.000
v -45.0 111.0 203.0 1.000 1.000 1.000
v -18.0 135.0 203.0 1.000 1.000 1.000
v -53.0 121.0 203.0 1.000 1.000 1.000
v -53.0 121.0 230.0 1.000 1.000 1.000
v -26.0 144.0 230.0 1.000 1.000 1.000
v -26.0 144.0 203.0 1.000 1.000 1.000
v -26.0 90.0 230.0 1.000 1.000 1.000
v -26.0 90.0 203.0 1.000 1.000 1.000
v 1.0 113.0 203.0 1.000 1.000 1.000
v 1.0 113.0 230.0 1.000 1.000 1.000
v -26.0 144.0 230.0 1.000 1.000 1.000
v -18.0 135.0 230.0 1.000 1.000 1.000
v -23.0 141.0 217.0 1.000 1.000 1.000
v -18.0 135.0 203.0 1.000 1.000 1.000
v -26.0 144.0 203.0 1.000 1.000 1.000
v -2.0 117.0 217.0 1.000 1.000 1.000
v -7.0 123.0 230.0 1.000 1.000 1.000
v 1.0 113.0 230.0 1.000 1.000 1.000
v 1.0 113.0 203.0 1.000 1.000 1.000
v -7.0 123.0 203.0 1.000 1.000 1.000
v -45.0 111.0 203.0 1.000 1.000 1.000
v -18.0 135.0 203.0 1.000 1.000 1.000
v -7.0 123.0 203.0 1.000 1.000 1.000
v -34.0 100.0 203.0 1.000 1.000 1.000
v -2.0 117.0 217.0 1.000 1.000 1.000
v 4.0 123.0 217.0 1.000 1.000 1.000
v -1.0 129.0 230.0 1.000 1.000 1.000
v -7.0 123.0 230.0 1.000 1.000 1.000
v -7.0 123.0 203.0 1.000 1.000 1.000
v -1.0 129.0 203.0 1.000 1.000 1.000
v 4.0 123.0 217.0 1.000 1.000 1.000
v -2.0 117.0 217.0 1.000 1.000 1.000
v -11.0 141.0 203.0 1.000 1.000 1.000
v -1.0 129.0 203.0 1.000 1.000 1.000
v -23.0 141.0 217.0 1.000 1.000 1.000
v -16.0 147.0 217.0 1.000 1.000 1.000
v -11.0 141.0 203.0 1.000 1.000 1.000
v -18.0 135.0 203.0 1.000 1.000 1.000
v -18.0 135.0 230.0 1.000 1.000 1.000
v -11.0 141.0 230.0 1.000 1.000 1.000
v -16.0 147.0 217.0 1.000 1.000 1.000
v -23.0 141.0 217.0 1.000 1.000 1.000
v -7.0 123.0 230.0 1.000 1.000 1.000
v -1.0 129.0 230.0 1.000 1.000 1.000
v -11.0 141.0 230.0 1.000 1.000 1.000
v -18.0 135.0 230.0 1.000 1.000 1.000
v -1.0 129.0 230.0 1.000 1.000 1.000
v 4.0 123.0 217.0 1.000 1.000 1.000
v -6.0 135.0 217.0 1.000 1.000 1.000
v -1.0 129.0 203.0 1.000 1.000 1.000
v -11.0 141.0 230.0 1.000 1.000 1.000
v -1.0 129.0 230.0 1.000 1.000 1.000
v -6.0 135.0 217.0 1.000 1.000 1.000
v -1.0 129.0 203.0 1.000 1.000 1.000
v -11.0 141.0 203.0 1.000 1.000 1.000
v -16.0 147.0 217.0 1.000 1.000 1.000
v -68.0 70.0 284.0 1.000 1.000 1.000
v -34.0 100.0 284.0 1.000 1.000 1.000
v -45.0 111.0 284.0 1.000 1.000 1.000
v -78.0 82.0 284.0 1.000 1.000 1.000
v -78.0 82.0 284.0 1.000 1.000 1.000
v -45.0 111.0 284.0 1.000 1.000 1.000
v -50.0 117.0 270.0 1.000 1.000 1.000
v -83.0 88.0 270.0 1.000 1.000 1.000
v -83.0 88.0 270.0 1.000 1.000 1.000
v -50.0 117.0 270.0 1.000 1.000 1.000
v -45.0 111.0 257.0 1.000 1.000 1.000
v -78.0 82.0 257.0 1.000 1.000 1.000
v -78.0 82.0 257.0 1.000 1.000 1.000
v -45.0 111.0 257.0 1.000 1.000 1.000
v -34.0 100.0 257.0 1.000 1.000 1.000
v -68.0 70.0 257.0 1.000 1.000 1.000
v -68.0 70.0 257.0 1.000 1.000 1.000
v -34.0 100.0 257.0 1.000 1.000 1.000
v -29.0 94.0 270.0 1.000 1.000 1.000
v -63.0 64.0 270.0 1.000 1.000 1.000
v -63.0 64.0 270.0 1.000 1.000 1.000
v -29.0 94.0 270.0 1.000 1.000 1.000
v -34.0 100.0 284.0 1.000 1.000 1.000
v -68.0 70.0 284.0 1.000 1.000 1.000
v -34.0 100.0 284.0 1.000 1.000 1.000
v -7.0 123.0 284.0 1.000 1.000 1.000
v -2.0 117.0 270.0 1.000 1.000 1.000
v -29.0 94.0 270.0 1.000 1.000 1.000
v -7.0 123.0 257.0 1.000 1.000 1.000
v -34.0 100.0 257.0 1.000 1.000 1.000
v -45.0 111.0 257.0 1.000 1.000 1.000
v -18.0 135.0 257.0 1.000 1.000 1.000
v -23.0 141.0 270.0 1.000 1.000 1.000
v -50.0 117.0 270.0 1.000 1.000 1.000
v -18.0 135.0 284.0 1.000 1.000 1.000
v -45.0 111.0 284.0 1.000 1.000 1.000
v -45.0 111.0 284.0 1.000 1.000 1.000
v -18.0 135.0 284.0 1.000 1.000 1.000
v -7.0 123.0 284.0 1.000 1.000 1.000
v -34.0 100.0 284.0 1.000 1.000 1.000
v 1.0 113.0 277.0 1.000 1.000 1.000
v -2.0 117.0 270.0 1.000 1.000 1.000
v -7.0 123.0 284.0 1.000 1.000 1.000
v -4.0 119.0 288.0 1.000 1.000 1.000
v -4.0 119.0 288.0 1.000 1.000 1.000
v -7.0 123.0 284.0 1.000 1.000 1.000
v -21.0 139.0 288.0 1.000 1.000 1.000
v -18.0 135.0 284.0 1.000 1.000 1.000
v -21.0 139.0 288.0 1.000 1.000 1.000
v -18.0 135.0 284.0 1.000 1.000 1.000
v -26.0 144.0 277.0 1.000 1.000 1.000
v -23.0 141.0 270.0 1.000 1.000 1.000
v 1.0 113.0 277.0 1.000 1.000 1.000
v -4.0 119.0 288.0 1.000 1.000 1.000
v -31.0 95.0 288.0 1.000 1.000 1.000
v -26.0 90.0 277.0 1.000 1.000 1.000
v -31.0 95.0 288.0 1.000 1.000 1.000
v -4.0 119.0 288.0 1.000 1.000 1.000
v -21.0 139.0 288.0 1.000 1.000 1.000
v -48.0 116.0 288.0 1.000 1.000 1.000
v -26.0 144.0 277.0 1.000 1.000 1.000
v -53.0 121.0 277.0 1.000 1.000 1.000
v -53.0 121.0 257.0 1.000 1.000 1.000
v -53.0 121.0 277.0 1.000 1.000 1.000
v -26.0 144.0 277.0 1.000 1.000 1.000
v -26.0 144.0 257.0 1.000 1.000 1.000
v -26.0 90.0 277.0 1.000 1.000 1.000
v -26.0 90.0 257.0 1.000 1.000 1.000
v 1.0 113.0 257.0 1.000 1.000 1.000
v 1.0 113.0 277.0 1.000 1.000 1.000
v -23.0 141.0 270.0 1.000 1.000 1.000
v -18.0 135.0 257.0 1.000 1.000 1.000
v -18.0 135.0 257.0 1.000 1.000 1.000
v -26.0 144.0 257.0 1.000 1.000 1.000
v -26.0 144.0 277.0 1.000 1.000 1.000
v -7.0 123.0 257.0 1.000 1.000 1.000
v -2.0 117.0 270.0 1.000 1.000 1.000
v 1.0 113.0 277.0 1.000 1.000 1.000
v 1.0 113.0 257.0 1.000 1.000 1.000
v -45.0 111.0 257.0 1.000 1.000 1.000
v -18.0 135.0 257.0 1.000 1.000 1.000
v -7.0 123.0 257.0 1.000 1.000 1.000
v -34.0 100.0 257.0 1.000 1.000 1.000
v -2.0 117.0 270.0 1.000 1.000 1.000
v 4.0 123.0 270.0 1.000 1.000 1.000
v -1.0 129.0 284.0 1.000 1.000 1.000
v -7.0 123.0 284.0 1.000 1.000 1.000
v -7.0 123.0 257.0 1.000 1.000 1.000
v -1.0 129.0 257.0 1.000 1.000 1.000
v 4.0 123.0 270.0 1.000 1.000 1.000
v -2.0 117.0 270.0 1.000 1.000 1.000
v -11.0 141.0 257.0 1.000 1.000 1.000
v -1.0 129.0 257.0 1.000 1.000 1.000
v -23.0 141.0 270.0 1.000 1.000 1.000
v -16.0 147.0 270.0 1.000 1.000 1.000
v -11.0 141.0 257.0 1.000 1.000 1.000
v -18.0 135.0 257.0 1.000 1.000 1.000
v -18.0 135.0 284.0 1.000 1.000 1.000
v -11.0 141.0 284.0 1.000 1.000 1.000
v -16.0 147.0 270.0 1.000 1.000 1.000
v -23.0 141.0 270.0 1.000 1.000 1.000
v -7.0 123.0 284.0 1.000 1.000 1.000
v -1.0 129.0 284.0 1.000 1.000 1.000
v -11.0 141.0 284.0 1.000 1.000 1.000
v -18.0 135.0 284.0 1.000 1.000 1.000
v -11.0 141.0 284.0 1.000 1.000 1.000
v -1.0 129.0 284.0 1.000 1.000 1.000
v -6.0 135.0 270.0 1.000 1.000 1.000
v 4.0 123.0 270.0 1.000 1.000 1.000
v 4.0 123.0 270.0 1.000 1.000 1.000
v -1.0 129.0 257.0 1.000 1.000 1.000
v -6.0 135.0 270.0 1.000 1.000 1.000
v -11.0 141.0 257.0 1.000 1.000 1.000
v -16.0 147.0 270.0 1.000 1.000 1.000
v -11.0 141.0 284.0 1.000 1.000 1.000
v -68.0 70.0 257.0 1.000 1.000 1.000
v -34.0 100.0 257.0 1.000 1.000 1.000
v -45.0 111.0 257.0 1.000 1.000 1.000
v -78.0 82.0 257.0 1.000 1.000 1.000
v -78.0 82.0 257.0 1.000 1.000 1.000
v -45.0 111.0 257.0 1.000 1.000 1.000
v -50.0 117.0 244.0 1.000 1.000 1.000
v -83.0 88.0 244.0 1.000 1.000 1.000
v -83.0 88.0 244.0 1.000 1.000 1.000
v -50.0 117.0 244.0 1.000 1.000 1.000
v -45.0 111.0 230.0 1.000 1.000 1.000
v -78.0 82.0 230.0 1.000 1.000 1.000
v -78.0 82.0 230.0 1.000 1.000 1.000
v -45.0 111.0 230.0 1.000 1.000 1.000
v -34.0 100.0 230.0 1.000 1.000 1.000
v -68.0 70.0 230.0 1.000 1.000 1.000
v -68.0 70.0 230.0 1.000 1.000 1.000
v -34.0 100.0 230.0 1.000 1.000 1.000
v -29.0 94.0 244.0 1.000 1.000 1.000
v -63.0 64.0 244.0 1.000 1.000 1.000
v -63.0 64.0 244.0 1.000 1.000 1.000
v -29.0 94.0 244.0 1.000 1.000 1.000
v -34.0 100.0 257.0 1.000 1.000 1.000
v -68.0 70.0 257.0 1.000 1.000 1.000
v -34.0 100.0 257.0 1.000 1.000 1.000
v -7.0 123.0 257.0 1.000 1.000 1.000
v -2.0 117.0 244.0 1.000 1.000 1.000
v -29.0 94.0 244.0 1.000 1.000 1.000
v -7.0 123.0 230.0 1.000 1.000 1.000
v -34.0 100.0 230.0 1.000 1.000 1.000
v -50.0 117.0 244.0 1.000 1.000 1.000
v -23.0 141.0 244.0 1.000 1.000 1.000
v -18.0 135.0 257.0 1.000 1.000 1.000
v -45.0 111.0 257.0 1.000 1.000 1.000
v -45.0 111.0 230.0 1.000 1.000 1.000
v -18.0 135.0 230.0 1.000 1.000 1.000
v -53.0 121.0 230.0 1.000 1.000 1.000
v -53.0 121.0 257.0 1.000 1.000 1.000
v -26.0 144.0 257.0 1.000 1.000 1.000
v -26.0 144.0 230.0 1.000 1.000 1.000
v -26.0 90.0 257.0 1.000 1.000 1.000
v -26.0 90.0 230.0 1.000 1.000 1.000
v 1.0 113.0 230.0 1.000 1.000 1.000
v 1.0 113.0 257.0 1.000 1.000 1.000
v -26.0 144.0 257.0 1.000 1.000 1.000
v -18.0 135.0 257.0 1.000 1.000 1.000
v -23.0 141.0 244.0 1.000 1.000 1.000
v -18.0 135.0 230.0 1.000 1.000 1.000
v -26.0 144.0 230.0 1.000 1.000 1.000
v -2.0 117.0 244.0 1.000 1.000 1.000
v -7.0 123.0 257.0 1.000 1.000 1.000
v 1.0 113.0 257.0 1.000 1.000 1.000
v 1.0 113.0 230.0 1.000 1.000 1.000
v -7.0 123.0 230.0 1.000 1.000 1.000
v -45.0 111.0 230.0 1.000 1.000 1.000
v -18.0 135.0 230.0 1.000 1.000 1.000
v -7.0 123.0 230.0 1.000 1.000 1.000
v -34.0 100.0 230.0 1.000 1.000 1.000
v -2.0 117.0 244.0 1.000 1.000 1.000
v 4.0 123.0 244.0 1.000 1.000 1.000
v -1.0 129.0 257.0 1.000 1.000 1.000
v -7.0 123.0 257.0 1.000 1.000 1.000
v -7.0 123.0 230.0 1.000 1.000 1.000
v -1.0 129.0 230.0 1.000 1.000 1.000
v 4.0 123.0 244.0 1.000 1.000 1.000
v -2.0 117.0 244.0 1.000 1.000 1.000
v -11.0 141.0 230.0 1.000 1.000 1.000
v -1.0 129.0 230.0 1.000 1.000 1.000
v -23.0 141.0 244.0 1.000 1.000 1.000
v -16.0 147.0 244.0 1.000 1.000 1.000
v -11.0 141.0 230.0 1.000 1.000 1.000
v -18.0 135.0 230.0 1.000 1.000 1.000
v -18.0 135.0 257.0 1.000 1.000 1.000
v -11.0 141.0 257.0 1.000 1.000 1.000
v -16.0 147.0 244.0 1.000 1.000 1.000
v -23.0 141.0 244.0 1.000 1.000 1.000
v -7.0 123.0 257.0 1.000 1.000 1.000
v -1.0 129.0 257.0 1.000 1.000 1.000
v -11.0 141.0 257.0 1.000 1.000 1.000
v -18.0 135.0 257.0 1.000 1.000 1.000
v -11.0 141.0 257.0 1.000 1.000 1.000
v -1.0 129.0 257.0 1.000 1.000 1.000
v -6.0 135.0 244.0 1.000 1.000 1.000
v 4.0 123.0 244.0 1.000 1.000 1.000
v 4.0 123.0 244.0 1.000 1.000 1.000
v -1.0 129.0 230.0 1.000 1.000 1.000
v -6.0 135.0 244.0 1.000 1.000 1.000
v -11.0 141.0 230.0 1.000 1.000 1.000
v -16.0 147.0 244.0 1.000 1.000 1.000
v -11.0 141.0 257.0 1.000 1.000 1.000
v -68.0 70.0 177.0 1.000 1.000 1.000
v -34.0 100.0 177.0 1.000 1.000 1.000
v -45.0 111.0 177.0 1.000 1.000 1.000
v -78.0 82.0 177.0 1.000 1.000 1.000
v -78.0 82.0 177.0 1.000 1.000 1.000
v -45.0 111.0 177.0 1.000 1.000 1.000
v -50.0 117.0 163.0 1.000 1.000 1.000
v -83.0 88.0 163.0 1.000 1.000 1.000
v -83.0 88.0 163.0 1.000 1.000 1.000
v -50.0 117.0 163.0 1.000 1.000 1.000
v -45.0 111.0 150.0 1.000 1.000 1.000
v -78.0 82.0 150.0 1.000 1.000 1.000
v -78.0 82.0 150.0 1.000 1.000 1.000
v -45.0 111.0 150.0 1.000 1.000 1.000
v -34.0 100.0 150.0 1.000 1.000 1.000
v -68.0 70.0 150.0 1.000 1.000 1.000
v -68.0 70.0 150.0 1.000 1.000 1.000
v -34.0 100.0 150.0 1.000 1.000 1.000
v -29.0 94.0 163.0 1.000 1.000 1.000
v -63.0 64.0 163.0 1.000 1.000 1.000
v -63.0 64.0 163.0 1.000 1.000 1.000
v -29.0 94.0 163.0 1.000 1.000 1.000
v -34.0 100.0 177.0 1.000 1.000 1.000
v -68.0 70.0 177.0 1.000 1.000 1.000
v -50.0 117.0 163.0 1.000 1.000 1.000
v -23.0 141.0 163.0 1.000 1.000 1.000
v -18.0 135.0 177.0 1.000 1.000 1.000
v -45.0 111.0 176.0 1.000 1.000 1.000
v -45.0 111.0 150.0 1.000 1.000 1.000
v -18.0 135.0 150.0 1.000 1.000 1.000
v -34.0 100.0 150.0 1.000 1.000 1.000
v -7.0 123.0 150.0 1.000 1.000 1.000
v -18.0 135.0 150.0 1.000 1.000 1.000
v -45.0 111.0 150.0 1.000 1.000 1.000
v -29.0 94.0 163.0 1.000 1.000 1.000
v -2.0 117.0 163.0 1.000 1.000 1.000
v -7.0 123.0 150.0 1.000 1.000 1.000
v -34.0 100.0 150.0 1.000 1.000 1.000
v -34.0 100.0 176.0 1.000 1.000 1.000
v -7.0 123.0 176.0 1.000 1.000 1.000
v -7.0 123.0 150.0 1.000 1.000 1.000
v -2.0 117.0 163.0 1.000 1.000 1.000
v 1.0 113.0 156.0 1.000 1.000 1.000
v -26.0 144.0 156.0 1.000 1.000 1.000
v -23.0 141.0 163.0 1.000 1.000 1.000
v -18.0 135.0 150.0 1.000 1.000 1.000
v -21.0 139.0 145.0 1.000 1.000 1.000
v -21.0 139.0 145.0 1.000 1.000 1.000
v -18.0 135.0 150.0 1.000 1.000 1.000
v -7.0 123.0 150.0 1.000 1.000 1.000
v -4.0 119.0 145.0 1.000 1.000 1.000
v -4.0 119.0 145.0 1.000 1.000 1.000
v -53.0 121.0 156.0 1.000 1.000 1.000
v -26.0 144.0 156.0 1.000 1.000 1.000
v -21.0 139.0 145.0 1.000 1.000 1.000
v -48.0 116.0 145.0 1.000 1.000 1.000
v -48.0 116.0 145.0 1.000 1.000 1.000
v -21.0 139.0 145.0 1.000 1.000 1.000
v -4.0 119.0 145.0 1.000 1.000 1.000
v -31.0 95.0 145.0 1.000 1.000 1.000
v 1.0 113.0 156.0 1.000 1.000 1.000
v -26.0 90.0 156.0 1.000 1.000 1.000
v -26.0 144.0 156.0 1.000 1.000 1.000
v -53.0 121.0 156.0 1.000 1.000 1.000
v -53.0 121.0 177.0 1.000 1.000 1.000
v -26.0 144.0 177.0 1.000 1.000 1.000
v -26.0 90.0 177.0 1.000 1.000 1.000
v 1.0 113.0 156.0 1.000 1.000 1.000
v 1.0 113.0 177.0 1.000 1.000 1.000
v -18.0 135.0 177.0 1.000 1.000 1.000
v -23.0 141.0 163.0 1.000 1.000 1.000
v -26.0 144.0 156.0 1.000 1.000 1.000
v -18.0 135.0 177.0 1.000 1.000 1.000
v -26.0 144.0 156.0 1.000 1.000 1.000
v -26.0 144.0 177.0 1.000 1.000 1.000
v 1.0 113.0 156.0 1.000 1.000 1.000
v -2.0 117.0 163.0 1.000 1.000 1.000
v -7.0 123.0 176.0 1.000 1.000 1.000
v 1.0 113.0 177.0 1.000 1.000 1.000
v -2.0 117.0 163.0 1.000 1.000 1.000
v 4.0 123.0 163.0 1.000 1.000 1.000
v -1.0 129.0 177.0 1.000 1.000 1.000
v -7.0 123.0 177.0 1.000 1.000 1.000
v -7.0 123.0 150.0 1.000 1.000 1.000
v -1.0 129.0 150.0 1.000 1.000 1.000
v 4.0 123.0 163.0 1.000 1.000 1.000
v -2.0 117.0 163.0 1.000 1.000 1.000
v -18.0 135.0 150.0 1.000 1.000 1.000
v -11.0 141.0 150.0 1.000 1.000 1.000
v -23.0 141.0 163.0 1.000 1.000 1.000
v -16.0 147.0 163.0 1.000 1.000 1.000
v -11.0 141.0 150.0 1.000 1.000 1.000
v -18.0 135.0 150.0 1.000 1.000 1.000
v -18.0 135.0 177.0 1.000 1.000 1.000
v -11.0 141.0 177.0 1.000 1.000 1.000
v -16.0 147.0 163.0 1.000 1.000 1.000
v -23.0 141.0 163.0 1.000 1.000 1.000
v -7.0 123.0 177.0 1.000 1.000 1.000
v -1.0 129.0 177.0 1.000 1.000 1.000
v -11.0 141.0 177.0 1.000 1.000 1.000
v -18.0 135.0 177.0 1.000 1.000 1.000
v -11.0 141.0 177.0 1.000 1.000 1.000
v -1.0 129.0 177.0 1.000 1.000 1.000
v -6.0 135.0 163.0 1.000 1.000 1.000
v 4.0 123.0 163.0 1.000 1.000 1.000
v -1.0 129.0 150.0 1.000 1.000 1.000
v -11.0 141.0 150.0 1.000 1.000 1.000
v -16.0 147.0 163.0 1.000 1.000 1.000
vt 0.0000 1.0000
vt 0.9688 1.0000
vt 0.9688 0.0312
vt 0.0000 0.0312
vt 2.8008 0.0137
vt 2.8008 1.0000
vt 5.4492 1.0000
vt 5.4492 0.0137
vt -0.2061 -0.0059
vt -0.2061 1.0000
vt 2.8135 1.0000
vt 2.8135 -0.0059
vt 0.1523 0.0137
vt 0.1523 1.0000
vt 5.8340 1.0000
vt 5.8340 -0.0059
vt 3.4189 1.0000
vt 3.4189 0.0000
vt 0.0000 0.0000
vt 3.5215 0.0039
vt 0.0000 0.0039
vt 3.5215 1.0000
vt 0.1436 0.7031
vt 0.1436 0.4072
vt 0.0000 0.1104
vt 3.8672 0.4072
vt 4.0098 0.1104
vt 3.8672 0.7031
vt 4.0098 1.0000
vt 4.0146 0.1025
vt 3.8711 0.4023
vt 3.8711 0.7012
vt 4.0146 1.0000
vt 0.0000 0.1025
vt 0.1436 0.4023
vt 0.1436 0.7012
vt 4.0010 1.0000
vt 4.0010 0.0049
vt 3.8584 0.2539
vt 3.8584 0.7510
vt 0.1426 0.7510
vt 0.1426 0.2539
vt 0.0000 0.0049
vt 1.0000 0.0000
vt 1.0000 1.0000
vt 0.0000 0.8330
vt 0.2002 1.0000
vt 0.2500 0.9941
vt 0.7500 0.9941
vt 1.0000 0.8281
vt 0.0000 0.8281
vt 0.0000 0.2773
vt 0.0000 0.7012
vt 0.9990 0.7012
vt 0.9990 0.2773
vt 0.0000 1.0459
vt 0.9990 1.0459
vt 0.0000 0.3154
vt 1.0000 0.3154
vt 1.0000 0.0195
vt 0.0000 0.0195
vt 0.0000 0.7188
vt 1.0000 0.7188
vt 0.0000 1.0146
vt 1.0000 1.0146
vt 0.0000 0.5322
vt 1.0000 0.5322
vt 0.0000 -0.0215
vt 0.9990 -0.0215
vt -0.0635 0.1396
vt -3.9648 1.0000
vt -4.8516 0.1396
vt -4.8516 1.0000
vt 0.1504 0.5234
vt 0.0000 0.3828
vt 0.1504 0.7578
vt 0.3506 0.9102
vt 0.6494 0.9102
vt 0.8496 0.7578
vt 0.8496 0.5234
vt 1.0000 0.3828
vt 0.3584 0.3721
vt 0.2500 0.2285
vt 0.6416 0.3721
vt 0.7500 0.2285
vt 0.5000 0.1924
vt -0.9258 0.2500
vt -0.9258 0.0000
vt -5.0928 0.0000
vt -5.0928 0.2500
vt 0.0000 0.2500
vt -0.9258 0.7500
vt -0.9258 1.0000
vt 0.0000 0.7500
vt -5.0928 0.7500
vt -5.0928 1.0000
vt -0.8125 0.2500
vt -0.8135 0.5000
vt 0.0020 0.5000
vt 0.0029 0.2500
vt -0.8145 0.7500
vt 0.0010 0.7500
vt -4.4834 0.5000
vt -4.4844 0.7500
vt -4.4824 0.2500
vt 3.0127 1.0000
vt 3.0127 -0.0068
vt 0.0000 -0.0068
vt 4.3213 1.0000
vt 4.3203 0.7500
vt 4.3203 0.2500
vt 4.3203 0.0000
vt 3.8076 0.7500
vt 3.8086 0.5000
vt 3.8096 0.2500
vt 0.7832 0.0283
vt -0.0117 -0.0029
vt 0.9297 0.0264
vt 0.4512 0.0254
vt 0.0029 0.0244
vt -0.5820 0.0234
vt -1.0381 0.2500
vt 0.9619 0.2500
vt -0.0381 0.5000
vt -1.0410 0.7510
vt 0.9619 0.7500
vt 5.3350 1.0000
vt 5.3350 0.0000
vt 5.4014 0.7500
vt 5.4014 0.2500
vt 1.9619 0.7500
vt 1.7559 1.0000
vt 1.7559 0.0000
vt 1.9619 0.2500
vt 1.0615 0.5000
vt 4.7588 0.7500
vt 4.7598 0.5000
vt 4.7607 0.2500
vt 2.0615 0.5000
vt -0.2393 0.8916
vt -0.0322 0.1191
vt 2.0859 0.1348
vt 2.0869 1.0000
vt 2.3955 0.8936
vt 0.6045 1.0000
vt 0.6084 -0.0107
vt 1.0010 0.6631
vt 0.3838 0.0293
vt 0.0771 0.8945
vt 0.6211 0.6611
vt 0.7217 0.0254
vt -1.0381 0.7500
vt 3.7852 0.7500
vt 3.7852 0.2500
vt 0.0000 0.1348
vt 1.5547 0.1191
vt 1.5879 1.0000
vt 1.8623 0.1758
vt 1.8633 0.1123
vt 0.0049 0.1104
vt 0.0039 0.1738
vt -1.0000 7.0420
vt 0.0000 7.0420
vt -1.0000 1.0000
vt 0.0000 -2.3545
vt -1.0000 -2.3545
vt 1.0146 0.0098
vt 1.0146 0.5049
vt 0.5625 0.5049
vt 0.5625 0.0098
vt 0.7568 0.0146
vt 0.7568 0.5068
vt 0.2471 0.5068
vt 0.2471 0.0146
vt -0.5439 0.0117
vt -0.5439 0.5059
vt 0.0000 0.5059
vt 0.0000 0.0117
vt 0.4170 0.0117
vt 0.4170 0.5059
vt 0.0000 0.5020
vt 0.5586 0.5020
vt 0.5586 0.0049
vt 0.5176 0.0029
vt 0.5176 0.5020
vt 0.0000 0.0029
vt 0.7480 1.0000
vt 0.7520 0.0000
vt 0.5000 0.0000
vt 0.5000 1.0000
vt 0.2480 0.0000
vt 0.2480 1.0000
vt 1.5000 1.0000
vt 1.5000 0.0000
vt 1.2480 0.0000
vt 1.2480 1.0000
vt 1.7520 1.0000
vt 1.7520 0.0000
vt 0.5034 1.0000
vt 1.1719 1.0000
vt 1.1724 0.1299
vt 0.5029 0.1299
vt 1.5991 0.5234
vt 1.6436 0.1035
vt 1.1968 0.2930
vt 0.7471 0.1045
vt 0.6025 0.5234
vt 1.7646 0.2910
vt 1.5063 0.1416
vt 1.5332 0.4854
vt 2.1094 0.4854
vt 2.0254 0.1406
vt -0.5439 0.9014
vt 0.0000 0.9014
vt 1.0146 0.9014
vt 1.0146 1.0000
vt 0.5625 1.0000
vt 0.5625 0.9014
vt 0.7568 0.9014
vt 0.7568 1.0000
vt 0.2471 1.0000
vt 0.2471 0.9014
vt -0.5439 1.0000
vt 0.4170 0.9014
vt 0.4170 1.0000
vt 0.0000 0.9004
vt 0.5586 1.0000
vt 0.5586 0.9004
vt 0.5176 0.9004
vt 0.5176 1.0000
vt 0.7500 0.9297
vt 1.0034 0.4941
vt 0.5000 0.4932
vt 0.7534 0.0576
vt 0.2534 0.0576
vt 0.0000 0.4932
vt 0.2466 0.9277
vt 1.0156 0.0088
vt 1.0156 0.5049
vt 0.4697 0.5049
vt 0.4697 0.0088
vt 1.0049 0.0117
vt 1.0049 0.5059
vt 0.4541 0.5059
vt 0.4541 0.0117
vt 0.4961 0.0127
vt 0.4961 0.5059
vt 0.0000 0.0127
vt -0.5879 0.0059
vt -0.5879 0.5029
vt 0.0000 0.5029
vt 0.0000 0.0059
vt 0.7148 0.0088
vt 0.7148 0.5039
vt 0.2324 0.5039
vt 0.2324 0.0088
vt 0.1660 0.0137
vt 0.1660 0.5068
vt -0.3867 0.5068
vt -0.3867 0.0137
vt 1.2520 1.0000
vt 1.2520 0.0000
vt 0.7480 0.0000
vt 1.8394 1.0000
vt 1.8398 0.1299
vt 2.5923 0.5234
vt 2.5322 0.1025
vt 2.0908 0.2930
vt 1.2476 0.2910
vt 0.9897 0.1416
vt 0.9590 0.4854
vt -0.5879 0.9004
vt 0.1660 0.9014
vt 0.1660 1.0000
vt -0.3867 1.0000
vt -0.3867 0.9014
vt 0.7148 0.9004
vt 0.7148 1.0000
vt 0.2324 1.0000
vt 0.2324 0.9004
vt -0.5879 1.0000
vt 0.4961 0.9014
vt 0.4961 1.0000
vt 1.0049 0.9014
vt 1.0049 1.0000
vt 0.4541 1.0000
vt 0.4541 0.9014
vt 1.0156 0.9014
vt 1.0156 1.0000
vt 0.4697 1.0000
vt 0.4697 0.9014
vt 1.0034 0.5000
vt 0.7534 0.0635
vt 0.5000 0.4980
vt 0.2534 0.0635
vt 0.7500 0.9355
vt 0.0000 0.4980
vt 0.2466 0.9336
vt 0.5752 0.0020
vt 0.5752 0.5010
vt 0.0000 0.5010
vt 0.0000 0.0020
vt 1.0166 0.0039
vt 1.0166 0.5020
vt 0.4619 0.5020
vt 0.4619 0.0039
vt 0.4775 0.0107
vt 0.4775 0.5049
vt 0.0029 0.5049
vt 0.0000 0.0107
vt 0.6025 0.0078
vt 0.6035 0.5039
vt 0.0000 0.5039
vt -0.0010 0.0078
vt 0.5957 0.0059
vt 0.5918 0.5029
vt 0.9961 0.0068
vt 0.9961 0.5029
vt 0.4775 0.5029
vt 0.4775 0.0068
vt 2.2520 1.0000
vt 2.2520 0.0000
vt 2.0000 0.0000
vt 2.0000 1.0000
vt 1.7480 0.0000
vt -0.2520 0.0000
vt -0.2520 1.0000
vt 0.6348 0.4746
vt 0.6572 0.1602
vt 0.1123 0.2432
vt 0.1650 0.4805
vt 0.9722 0.5088
vt 0.7031 0.2949
vt -0.0029 0.5010
vt 0.2515 0.2910
vt 0.8569 0.5303
vt 0.8877 0.3027
vt 0.4766 0.5264
vt 0.4155 0.2383
vt 0.0000 0.1250
vt 0.1763 0.1250
vt 0.1763 1.0000
vt 0.8408 0.1250
vt 0.8408 1.0000
vt 1.0000 0.1250
vt 2.5054 1.0000
vt 3.0029 1.0000
vt 3.0029 0.1299
vt 2.5073 0.1299
vt 3.8784 0.2930
vt 3.4336 0.1025
vt 3.5854 0.5234
vt 4.3232 0.5234
vt 0.4722 0.1416
vt 0.2139 0.2910
vt -0.0425 0.4854
vt 0.3843 0.4854
vt 0.6035 0.9004
vt 0.9961 0.9004
vt 0.9961 1.0000
vt 0.4775 1.0000
vt 0.4775 0.9004
vt 0.5957 0.9004
vt 0.5918 1.0000
vt 0.6035 1.0000
vt 0.4775 0.9014
vt 0.0039 0.9014
vt 1.0166 0.9004
vt 1.0166 1.0000
vt 0.4619 1.0000
vt 0.4619 0.9004
vt 0.5752 0.9004
vt 0.5752 1.0000
vt 0.7500 0.9219
vt 1.0000 0.4883
vt 0.5000 0.4883
vt 0.7500 0.0557
vt 0.0000 0.4883
vt 0.2500 0.9219
vt 0.5078 0.0107
vt 0.5078 0.5049
vt 0.0000 0.5049
vt 0.9990 0.0059
vt 0.9990 0.5020
vt 0.4951 0.5029
vt 0.4912 0.0059
vt 0.5332 0.0088
vt 0.5332 0.5039
vt 0.0039 0.5039
vt 0.0000 0.0088
vt 0.5518 0.0039
vt 0.5518 0.5020
vt 0.5410 0.0098
vt 0.5410 0.5049
vt -0.0029 0.5049
vt -0.0059 0.0107
vt 0.9980 0.0088
vt 0.9980 0.5049
vt 0.4902 0.5049
vt 0.4873 0.0088
vt 0.2520 0.0000
vt 0.2520 1.0000
vt 2.9844 0.2930
vt 2.5356 0.1035
vt 0.7310 0.2910
vt 0.5518 0.9004
vt 0.9980 0.9014
vt 0.9980 1.0000
vt 0.4873 1.0000
vt 0.4873 0.9014
vt 0.5459 0.9004
vt 0.5469 1.0000
vt -0.0010 0.9014
vt 0.5518 1.0000
vt 0.5332 0.9004
vt 0.5332 1.0000
vt 1.0059 0.8994
vt 1.0068 0.9990
vt 0.4990 1.0000
vt 0.4980 0.9004
vt 0.5078 0.9014
vt 0.5078 1.0000
vt 0.7466 0.9248
vt 1.0000 0.4893
vt 0.5000 0.4893
vt 0.7534 0.0547
vt 0.2534 0.0547
vt 0.0000 0.4893
vt 0.2466 0.9248
vt 0.4785 0.0029
vt 0.4785 0.5010
vt 1.0010 0.5000
vt 0.5400 0.5000
vt 0.5391 0.0000
vt 0.5039 0.0000
vt 0.5039 0.5000
vt 1.0000 0.5000
vt 0.4551 0.0000
vt 0.4551 0.5000
vt 0.5059 0.5000
vt 0.5059 0.0000
vt 0.0000 0.0078
vt 0.4990 0.5039
vt 0.4990 0.0078
vt 0.5601 0.1807
vt 0.2764 0.0918
vt 0.3228 0.5625
vt 0.8071 0.5947
vt 0.8696 0.0557
vt 0.3682 0.1260
vt 0.4009 0.5615
vt 1.0234 0.5078
vt 0.7388 0.2373
vt 0.2603 0.2441
vt -0.0098 0.5215
vt 0.5601 0.5410
vt 0.0000 0.1299
vt 0.3032 0.2930
vt -0.1460 0.5234
vt 2.5425 0.4854
vt 2.2817 0.2910
vt 0.4990 0.9004
vt 1.0000 0.9004
vt 0.5059 1.0000
vt 0.5059 0.9004
vt 0.4551 0.9004
vt 0.4551 1.0000
vt 0.5039 0.9004
vt 0.5039 1.0000
vt 1.0010 0.9004
vt 1.0010 1.0000
vt 0.5410 1.0000
vt 0.5400 0.9004
vt 0.4785 0.9004
vt 0.4785 1.0000
vt 0.7500 0.9277
vt 1.0000 0.4951
vt 0.5000 0.4951
vt 0.7500 0.0615
vt 0.2500 0.0615
vt 0.0000 0.4951
vt 0.2500 0.9277
vn 0.000 0.000 -1.000
vn 0.000 0.000 -1.000
vn 0.000 0.000 -1.000
vn 0.000 0.000 -1.000
vn 0.000 0.000 -1.000
vn 0.000 0.000 -1.000
vn 0.000 0.000 -1.000
vn 0.000 0.000 -1.000
vn 0.000 0.000 -1.000
vn 0.000 0.000 -1.000
vn 0.000 0.000 -1.000
vn 0.000 0.000 -1.000
vn 0.000 0.000 -1.000
vn 0.000 0.000 -1.000
vn 0.000 0.000 -1.000
vn 0.000 0.000 -1.000
vn 0.000 0.000 -1.000
vn 0.000 0.000 -1.000
vn 0.000 0.000 -1.000
vn 0.000 0.000 -1.000
vn 0.000 0.000 -1.000
vn 0.000 0.000 -1.000
vn 0.000 0.000 -1.000
vn 0.000 0.000 -1.000
vn 0.000 0.000 -1.000
vn 0.000 0.000 -1.000
vn 0.000 0.000 -1.000
vn 0.000 0.000 -1.000
vn 0.000 0.000 -1.000
vn 0.000 0.000 -1.000
vn 0.000 0.000 -1.000
vn 0.000 0.000 -1.000
vn -0.577 -0.577 -0.577
vn 0.577 0.577 0.577
vn -0.577 -0.577 -0.577
vn -0.577 -0.577 -0.577
vn -0.577 -0.577 -0.577
vn -0.577 -0.577 -0.577
vn 0.577 0.577 0.577
vn -0.577 -0.577 -0.577
vn 0.577 0.577 0.577
vn 0.577 0.577 0.577
vn -1.000 0.000 0.000
vn -1.000 0.000 0.000
vn -1.000 0.000 0.000
vn 0.000 -1.000 0.000
vn 0.000 -1.000 0.000
vn 0.000 -1.000 0.000
vn 0.000 -1.000 0.000
vn 0.000 -1.000 0.000
vn 0.000 -1.000 0.000
vn 0.000 -1.000 0.000
vn 0.000 -1.000 0.000
vn 0.000 -1.000 0.000
vn 0.000 -1.000 0.000
vn 0.577 0.577 0.577
vn -0.577 -0.577 -0.577
vn -0.577 -0.577 -0.577
vn -0.577 -0.577 -0.577
vn -0.577 -0.577 -0.577
vn -0.577 -0.577 -0.577
vn -0.577 -0.577 -0.577
vn 0.577 0.577 0.577
vn -0.577 -0.577 -0.577
vn -0.577 -0.577 -0.577
vn -0.577 -0.577 -0.577
vn 0.577 0.577 0.577
vn -0.577 -0.577 -0.577
vn -0.577 -0.577 -0.577
vn -0.577 -0.577 -0.577
vn 0.577 0.577 0.577
vn 0.577 0.577 0.577
vn 0.577 0.577 0.577
vn -0.577 -0.577 -0.577
vn -0.577 -0.577 -0.577
vn 0.577 0.577 0.577
vn -0.577 -0.577 -0.577
vn -0.577 -0.577 -0.577
vn 0.577 0.577 0.577
vn -1.000 0.000 0.000
vn -0.851 -0.524 0.026
vn -0.577 -0.577 -0.577
vn -0.774 0.000 0.633
vn -0.577 -0.577 -0.577
vn 0.000 -1.000 0.000
vn -0.577 -0.577 -0.577
vn 0.577 0.577 0.577
vn -0.577 -0.577 -0.577
vn 0.577 0.577 0.577
vn -0.577 -0.577 -0.577
vn -0.577 -0.577 -0.577
vn -0.577 -0.577 -0.577
vn -0.577 -0.577 -0.577
vn -0.577 -0.577 -0.577
vn 0.000 0.000 1.000
vn -0.659 -0.753 0.000
vn -0.922 -0.388 0.000
vn -0.922 -0.388 0.000
vn -0.659 -0.753 0.000
vn -1.000 0.000 0.000
vn -0.577 -0.577 -0.577
vn -0.577 -0.577 -0.577
vn -0.577 -0.577 -0.577
vn -0.577 -0.577 -0.577
vn -0.577 -0.577 -0.577
vn -0.577 -0.577 -0.577
vn -0.577 -0.577 -0.577
vn -0.577 -0.577 -0.577
vn -0.577 -0.577 -0.577
vn -0.577 -0.577 -0.577
vn -0.577 -0.577 -0.577
vn -0.577 -0.577 -0.577
vn -0.577 -0.577 -0.577
vn -0.577 -0.577 -0.577
vn -0.577 -0.577 -0.577
vn -0.577 -0.577 -0.577
vn 0.000 -1.000 0.000
vn 0.000 -1.000 0.000
vn 0.000 -1.000 0.000
vn 0.000 -1.000 0.000
vn -0.577 -0.577 -0.577
vn -0.577 -0.577 -0.577
vn -0.577 -0.577 -0.577
vn -1.000 0.000 0.000
vn -0.577 -0.577 -0.577
vn -1.000 0.000 0.000
vn 0.577 0.577 0.577
vn -0.577 -0.577 -0.577
vn -0.577 -0.577 -0.577
vn -0.577 -0.577 -0.577
vn -0.577 -0.577 -0.577
vn -0.577 -0.577 -0.577
vn -0.577 -0.577 -0.577
vn -0.577 -0.577 -0.577
vn 0.000 0.000 1.000
vn 0.000 0.000 1.000
vn 0.000 0.000 1.000
vn 0.000 0.000 1.000
vn 0.000 0.000 1.000
vn 0.000 0.000 1.000
vn 0.000 0.000 1.000
vn 0.000 0.000 1.000
vn -0.577 -0.577 -0.577
vn -0.577 -0.577 -0.577
vn -0.577 -0.577 -0.577
vn -0.577 -0.577 -0.577
vn -0.577 -0.577 -0.577
vn -0.577 -0.577 -0.577
vn -0.577 -0.577 -0.577
vn -0.577 -0.577 -0.577
vn -0.577 -0.577 -0.577
vn -0.577 -0.577 -0.577
vn -0.577 -0.577 -0.577
vn -0.577 -0.577 -0.577
vn -0.577 -0.577 -0.577
vn -0.577 -0.577 -0.577
vn -0.577 -0.577 -0.577
vn -0.577 -0.577 -0.577
vn -0.577 -0.577 -0.577
vn -0.577 -0.577 -0.577
vn -0.577 -0.577 -0.577
vn -0.577 -0.577 -0.577
vn -0.577 -0.577 -0.577
vn -0.577 -0.577 -0.577
vn -0.577 -0.577 -0.577
vn -0.577 -0.577 -0.577
vn -0.577 -0.577 -0.577
vn -0.577 -0.577 -0.577
vn -0.577 -0.577 -0.577
vn -0.577 -0.577 -0.577
vn -0.577 -0.577 -0.577
vn -0.577 -0.577 -0.577
vn -0.577 -0.577 -0.577
vn -0.577 -0.577 -0.577
vn -0.577 -0.577 -0.577
vn -0.577 -0.577 -0.577
vn -0.577 -0.577 -0.577
vn -0.577 -0.577 -0.577
vn -0.577 -0.577 -0.577
vn -0.577 -0.577 -0.577
vn -0.577 -0.577 -0.577
vn -0.577 -0.577 -0.577
vn -0.577 -0.577 -0.577
vn -0.577 -0.577 -0.577
vn -0.577 -0.577 -0.577
vn -0.577 -0.577 -0.577
vn -0.577 -0.577 -0.577
vn -0.577 -0.577 -0.577
vn -0.577 -0.577 -0.577
vn -0.577 -0.577 -0.577
vn -0.577 -0.577 -0.577
vn -0.577 -0.577 -0.577
vn -0.577 -0.577 -0.577
vn -0.577 -0.577 -0.577
vn -0.577 -0.577 -0.577
vn -0.577 -0.577 -0.577
vn -0.577 -0.577 -0.577
vn -0.577 -0.577 -0.577
vn -0.577 -0.577 -0.577
vn -0.577 -0.577 -0.577
vn -0.577 -0.577 -0.577
vn -0.577 -0.577 -0.577
vn -0.577 -0.577 -0.577
vn -0.577 -0.577 -0.577
vn -0.577 -0.577 -0.577
vn -0.577 -0.577 -0.577
vn -0.577 -0.577 -0.577
vn -0.577 -0.577 -0.577
vn -0.577 -0.577 -0.577
vn -0.577 -0.577 -0.577
vn -0.577 -0.577 -0.577
vn -0.577 -0.577 -0.577
vn -0.577 -0.577 -0.577
vn -0.577 -0.577 -0.577
vn -0.577 -0.577 -0.577
vn -0.577 -0.577 -0.577
vn -0.577 -0.577 -0.577
vn -0.577 -0.577 -0.577
vn -0.577 -0.577 -0.577
vn -0.577 -0.577 -0.577
vn -0.577 -0.577 -0.577
vn -0.577 -0.577 -0.577
vn -0.577 -0.577 -0.577
vn -0.577 -0.577 -0.577
vn -0.577 -0.577 -0.577
vn -0.577 -0.577 -0.577
vn -0.577 -0.577 -0.577
vn -0.577 -0.577 -0.577
vn -0.577 -0.577 -0.577
vn -0.577 -0.577 -0.577
vn -0.577 -0.577 -0.577
vn -0.577 -0.577 -0.577
vn -0.577 -0.577 -0.577
vn -0.577 -0.577 -0.577
vn -0.577 -0.577 -0.577
vn -0.577 -0.577 -0.577
vn -0.577 -0.577 -0.577
vn -0.577 -0.577 -0.577
vn -0.577 -0.577 -0.577
vn -0.577 -0.577 -0.577
vn -0.577 -0.577 -0.577
vn -0.577 -0.577 -0.577
vn -0.577 -0.577 -0.577
vn -0.577 -0.577 -0.577
vn -0.577 -0.577 -0.577
vn -0.577 -0.577 -0.577
vn -0.577 -0.577 -0.577
vn -0.577 -0.577 -0.577
vn -0.577 -0.577 -0.577
vn -0.577 -0.577 -0.577
vn -0.577 -0.577 -0.577
vn -0.577 -0.577 -0.577
vn -0.577 -0.577 -0.577
vn 1.000 0.000 0.000
vn -0.577 -0.577 -0.577
vn -1.000 0.000 0.000
vn -1.000 0.000 0.000
vn 0.577 0.577 0.577
vn -0.577 -0.577 -0.577
vn -0.577 -0.577 -0.577
vn -0.577 -0.577 -0.577
vn -0.949 0.000 -0.316
vn -0.577 -0.577 -0.577
vn -0.577 -0.577 -0.577
vn -0.577 -0.577 -0.577
vn -0.577 -0.577 -0.577
vn 0.949 0.000 -0.316
vn -0.577 -0.577 -0.577
vn -0.577 -0.577 -0.577
vn -0.577 -0.577 -0.577
vn -0.577 -0.577 -0.577
vn -0.577 -0.577 -0.577
vn -0.577 -0.577 -0.577
vn -0.577 -0.577 -0.577
vn -0.577 -0.577 -0.577
vn -0.577 -0.577 -0.577
vn -0.577 -0.577 -0.577
vn 0.000 -0.949 -0.316
vn 0.000 -0.949 -0.316
vn 0.000 -0.949 -0.316
vn 0.000 -0.949 -0.316
vn -1.000 0.000 0.000
vn -0.859 -0.210 0.468
vn -1.000 0.000 0.000
vn -1.000 0.000 0.000
vn -0.577 -0.577 -0.577
vn -0.577 -0.577 -0.577
vn 1.000 0.000 0.000
vn -0.577 -0.577 -0.577
vn -0.577 -0.577 -0.577
vn -0.577 -0.577 -0.577
vn 0.000 0.417 -0.909
vn 0.000 0.417 -0.909
vn 0.000 -0.410 0.912
vn 0.000 -0.410 0.912
vn 0.000 -0.410 0.912
vn 0.000 -0.894 -0.447
vn 0.000 -0.894 -0.447
vn 0.000 -0.894 -0.447
vn 0.000 -0.894 -0.447
vn -0.577 -0.577 -0.577
vn -0.577 -0.577 -0.577
vn 0.577 0.577 0.577
vn 0.577 0.577 0.577
vn 0.577 0.577 0.577
vn 0.577 0.577 0.577
vn -0.577 -0.577 -0.577
vn -0.577 -0.577 -0.577
vn -0.577 -0.577 -0.577
vn -0.577 -0.577 -0.577
vn 0.577 0.577 0.577
vn 0.577 0.577 0.577
vn -0.577 -0.577 -0.577
vn -0.577 -0.577 -0.577
vn -0.577 -0.577 -0.577
vn -0.577 -0.577 -0.577
vn -0.577 -0.577 -0.577
vn -0.577 -0.577 -0.577
vn -0.577 -0.577 -0.577
vn -0.577 -0.577 -0.577
vn 0.577 0.577 0.577
vn 0.577 0.577 0.577
vn -0.577 -0.577 -0.577
vn -0.577 -0.577 -0.577
vn -0.577 -0.577 -0.577
vn -0.577 -0.577 -0.577
vn -0.577 -0.577 -0.577
vn -0.577 -0.577 -0.577
vn -0.577 -0.577 -0.577
vn 0.577 0.577 0.577
vn 0.577 0.577 0.577
vn -0.577 -0.577 -0.577
vn -0.577 -0.577 -0.577
vn -0.577 -0.577 -0.577
vn -0.577 -0.577 -0.577
vn -0.577 -0.577 -0.577
vn -0.577 -0.577 -0.577
vn -0.577 -0.577 -0.577
vn -0.577 -0.577 -0.577
vn 0.577 0.577 0.577
vn 0.577 0.577 0.577
vn 0.577 0.577 0.577
vn 0.577 0.577 0.577
vn -0.577 -0.577 -0.577
vn -0.577 -0.577 -0.577
vn 0.577 0.577 0.577
vn -0.577 -0.577 -0.577
vn -0.577 -0.577 -0.577
vn -0.577 -0.577 -0.577
vn -0.577 -0.577 -0.577
vn 0.577 0.577 0.577
vn 0.577 0.577 0.577
vn -0.577 -0.577 -0.577
vn -0.577 -0.577 -0.577
vn -0.577 -0.577 -0.577
vn 0.577 0.577 0.577
vn 0.577 0.577 0.577
vn 0.577 0.577 0.577
vn -0.577 -0.577 -0.577
vn -0.577 -0.577 -0.577
vn 0.577 0.577 0.577
vn 0.577 0.577 0.577
vn -0.577 -0.577 -0.577
vn -0.577 -0.577 -0.577
vn 0.577 0.577 0.577
vn -0.577 -0.577 -0.577
vn -0.577 -0.577 -0.577
vn -0.577 -0.577 -0.577
vn -0.577 -0.577 -0.577
vn -0.577 -0.577 -0.577
vn -0.577 -0.577 -0.577
vn -0.577 -0.577 -0.577
vn -0.577 -0.577 -0.577
vn -0.577 -0.577 -0.577
vn -0.577 -0.577 -0.577
vn 0.577 0.577 0.577
vn -0.577 -0.577 -0.577
vn -0.577 -0.577 -0.577
vn -0.304 -0.304 -0.903
vn -0.577 -0.577 -0.577
vn -0.304 -0.304 -0.903
vn -0.577 -0.577 -0.577
vn -0.304 -0.304 -0.903
vn -0.304 -0.304 -0.903
vn -0.304 -0.304 -0.903
vn -0.577 -0.577 -0.577
vn -0.577 -0.577 -0.577
vn 0.577 0.577 0.577
vn 0.577 0.577 0.577
vn -0.577 -0.577 -0.577
vn -0.577 -0.577 -0.577
vn -0.577 -0.577 -0.577
vn -0.577 -0.577 -0.577
vn -0.577 -0.577 -0.577
vn -0.577 -0.577 -0.577
vn -0.577 -0.577 -0.577
vn -0.577 -0.577 -0.577
vn -0.577 -0.577 -0.577
vn -0.577 -0.577 -0.577
vn -0.577 -0.577 -0.577
vn -0.577 -0.577 -0.577
vn 0.577 0.577 0.577
vn 0.577 0.577 0.577
vn 0.577 0.577 0.577
vn 0.577 0.577 0.577
vn -0.577 -0.577 -0.577
vn -0.577 -0.577 -0.577
vn -0.577 -0.577 -0.577
vn -0.577 -0.577 -0.577
vn 0.577 0.577 0.577
vn 0.577 0.577 0.577
vn -0.577 -0.577 -0.577
vn -0.577 -0.577 -0.577
vn -0.577 -0.577 -0.577
vn -0.577 -0.577 -0.577
vn -0.577 -0.577 -0.577
vn -0.577 -0.577 -0.577
vn 0.577 0.577 0.577
vn 0.577 0.577 0.577
vn -0.577 -0.577 -0.577
vn -0.577 -0.577 -0.577
vn -0.577 -0.577 -0.577
vn -0.577 -0.577 -0.577
vn -0.577 -0.577 -0.577
vn -0.577 -0.577 -0.577
vn -0.577 -0.577 -0.577
vn -0.577 -0.577 -0.577
vn 0.577 0.577 0.577
vn 0.577 0.577 0.577
vn 0.577 0.577 0.577
vn 0.577 0.577 0.577
vn -0.577 -0.577 -0.577
vn -0.577 -0.577 -0.577
vn 0.577 0.577 0.577
vn -0.577 -0.577 -0.577
vn -0.577 -0.577 -0.577
vn -0.577 -0.577 -0.577
vn -0.577 -0.577 -0.577
vn 0.577 0.577 0.577
vn 0.577 0.577 0.577
vn -0.577 -0.577 -0.577
vn -0.577 -0.577 -0.577
vn -0.577 -0.577 -0.577
vn 0.577 0.577 0.577
vn 0.577 0.577 0.577
vn 0.577 0.577 0.577
vn -0.577 -0.577 -0.577
vn -0.577 -0.577 -0.577
vn 0.577 0.577 0.577
vn 0.577 0.577 0.577
vn -0.577 -0.577 -0.577
vn -0.577 -0.577 -0.577
vn 0.577 0.577 0.577
vn -0.577 -0.577 -0.577
vn -0.577 -0.577 -0.577
vn -0.577 -0.577 -0.577
vn -0.577 -0.577 -0.577
vn -0.577 -0.577 -0.577
vn -0.577 -0.577 -0.577
vn -0.577 -0.577 -0.577
vn -0.577 -0.577 -0.577
vn -0.577 -0.577 -0.577
vn -0.577 -0.577 -0.577
vn 0.577 0.577 0.577
vn -0.577 -0.577 -0.577
vn -0.577 -0.577 -0.577
vn -0.577 -0.577 -0.577
vn -0.304 -0.304 -0.903
vn -0.304 -0.304 -0.903
vn -0.577 -0.577 -0.577
vn -0.577 -0.577 -0.577
vn -0.577 -0.577 -0.577
vn -0.304 -0.304 -0.903
vn -0.577 -0.577 -0.577
vn -0.577 -0.577 -0.577
vn -0.304 -0.304 -0.903
vn -0.304 -0.304 -0.903
vn -0.577 -0.577 -0.577
vn -0.577 -0.577 -0.577
vn -0.577 -0.577 -0.577
vn -0.577 -0.577 -0.577
vn -0.577 -0.577 -0.577
vn -0.577 -0.577 -0.577
vn -0.577 -0.577 -0.577
vn -0.577 -0.577 -0.577
vn -0.577 -0.577 -0.577
vn -0.577 -0.577 -0.577
vn -0.577 -0.577 -0.577
vn -0.577 -0.577 -0.577
vn -0.577 -0.577 -0.577
vn -0.577 -0.577 -0.577
vn 0.577 0.577 0.577
vn 0.577 0.577 0.577
vn 0.577 0.577 0.577
vn 0.577 0.577 0.577
vn -0.577 -0.577 -0.577
vn -0.577 -0.577 -0.577
vn -0.577 -0.577 -0.577
vn -0.577 -0.577 -0.577
vn -0.577 -0.577 -0.577
vn -0.577 -0.577 -0.577
vn -0.577 -0.577 -0.577
vn -0.577 -0.577 -0.577
vn -0.577 -0.577 -0.577
vn -0.577 -0.577 -0.577
vn -0.577 -0.577 -0.577
vn -0.577 -0.577 -0.577
vn -0.577 -0.577 -0.577
vn -0.577 -0.577 -0.577
vn 0.577 0.577 0.577
vn 0.577 0.577 0.577
vn 0.577 0.577 0.577
vn 0.577 0.577 0.577
vn 0.577 0.577 0.577
vn 0.577 0.577 0.577
vn -0.577 -0.577 -0.577
vn -0.577 -0.577 -0.577
vn 0.577 0.577 0.577
vn -0.577 -0.577 -0.577
vn -0.577 -0.577 -0.577
vn -0.577 -0.577 -0.577
vn -0.577 -0.577 -0.577
vn -0.577 -0.577 -0.577
vn -0.577 -0.577 -0.577
vn 0.577 0.577 0.577
vn -0.577 -0.577 -0.577
vn 0.577 0.577 0.577
vn -0.577 -0.577 -0.577
vn 0.577 0.577 0.577
vn 0.577 0.577 0.577
vn -0.577 -0.577 -0.577
vn -0.577 -0.577 -0.577
vn 0.577 0.577 0.577
vn -0.577 -0.577 -0.577
vn -0.577 -0.577 -0.577
vn -0.577 -0.577 -0.577
vn -0.577 -0.577 -0.577
vn -0.577 -0.577 -0.577
vn -0.577 -0.577 -0.577
vn -0.577 -0.577 -0.577
vn -0.577 -0.577 -0.577
vn -0.577 -0.577 -0.577
vn -0.577 -0.577 -0.577
vn 0.577 0.577 0.577
vn 0.577 0.577 0.577
vn 0.577 0.577 0.577
vn 0.577 0.577 0.577
vn 0.577 0.577 0.577
vn -0.577 -0.577 -0.577
vn -0.577 -0.577 -0.577
vn -0.577 -0.577 -0.577
vn -0.577 -0.577 -0.577
vn -0.577 -0.577 -0.577
vn -0.577 -0.577 -0.577
vn 0.577 0.577 0.577
vn 0.577 0.577 0.577
vn -0.577 -0.577 -0.577
vn -0.577 -0.577 -0.577
vn 0.577 0.577 0.577
vn 0.577 0.577 0.577
vn 0.577 0.577 0.577
vn -0.577 -0.577 -0.577
vn -0.577 -0.577 -0.577
vn -0.577 -0.577 -0.577
vn 0.577 0.577 0.577
vn -0.577 -0.577 -0.577
vn -0.577 -0.577 -0.577
vn 0.577 0.577 0.577
vn -0.577 -0.577 -0.577
vn -0.577 -0.577 -0.577
vn -0.577 -0.577 -0.577
vn -0.577 -0.577 -0.577
vn -0.577 -0.577 -0.577
vn -0.577 -0.577 -0.577
vn -0.577 -0.577 -0.577
vn -0.577 -0.577 -0.577
vn -0.577 -0.577 -0.577
vn -0.577 -0.577 -0.577
vn -0.577 -0.577 -0.577
vn -0.577 -0.577 -0.577
vn -0.577 -0.577 -0.577
vn -0.577 -0.577 -0.577
vn -0.577 -0.577 -0.577
vn -0.304 -0.304 -0.903
vn -0.577 -0.577 -0.577
vn -0.304 -0.304 -0.903
vn -0.304 -0.304 -0.903
vn -0.577 -0.577 -0.577
vn -0.577 -0.577 -0.577
vn -0.304 -0.304 -0.903
vn -0.304 -0.304 -0.903
vn -0.577 -0.577 -0.577
vn 0.577 0.577 0.577
vn 0.577 0.577 0.577
vn -0.577 -0.577 -0.577
vn -0.577 -0.577 -0.577
vn -0.577 -0.577 -0.577
vn -0.577 -0.577 -0.577
vn -0.577 -0.577 -0.577
vn -0.577 -0.577 -0.577
vn -0.577 -0.577 -0.577
vn -0.577 -0.577 -0.577
vn -0.577 -0.577 -0.577
vn -0.577 -0.577 -0.577
vn -0.577 -0.577 -0.577
vn -0.577 -0.577 -0.577
vn 0.577 0.577 0.577
vn 0.577 0.577 0.577
vn 0.577 0.577 0.577
vn 0.577 0.577 0.577
vn -0.577 -0.577 -0.577
vn -0.577 -0.577 -0.577
vn -0.577 -0.577 -0.577
vn -0.577 -0.577 -0.577
vn 0.577 0.577 0.577
vn 0.577 0.577 0.577
vn -0.577 -0.577 -0.577
vn -0.577 -0.577 -0.577
vn -0.577 -0.577 -0.577
vn -0.577 -0.577 -0.577
vn -0.577 -0.577 -0.577
vn -0.577 -0.577 -0.577
vn 0.577 0.577 0.577
vn 0.577 0.577 0.577
vn -0.577 -0.577 -0.577
vn -0.577 -0.577 -0.577
vn -0.577 -0.577 -0.577
vn -0.577 -0.577 -0.577
vn -0.577 -0.577 -0.577
vn -0.577 -0.577 -0.577
vn -0.577 -0.577 -0.577
vn -0.577 -0.577 -0.577
vn 0.577 0.577 0.577
vn 0.577 0.577 0.577
vn 0.577 0.577 0.577
vn 0.577 0.577 0.577
vn -0.577 -0.577 -0.577
vn -0.577 -0.577 -0.577
vn 0.577 0.577 0.577
vn 0.577 0.577 0.577
vn -0.577 -0.577 -0.577
vn -0.577 -0.577 -0.577
vn -0.577 -0.577 -0.577
vn 0.577 0.577 0.577
vn 0.577 0.577 0.577
vn -0.577 -0.577 -0.577
vn -0.577 -0.577 -0.577
vn -0.577 -0.577 -0.577
vn 0.577 0.577 0.577
vn 0.577 0.577 0.577
vn 0.577 0.577 0.577
vn -0.577 -0.577 -0.577
vn -0.577 -0.577 -0.577
vn 0.577 0.577 0.577
vn 0.577 0.577 0.577
vn -0.577 -0.577 -0.577
vn -0.577 -0.577 -0.577
vn 0.577 0.577 0.577
vn -0.577 -0.577 -0.577
vn -0.577 -0.577 -0.577
vn -0.577 -0.577 -0.577
vn -0.577 -0.577 -0.577
vn -0.577 -0.577 -0.577
vn -0.577 -0.577 -0.577
vn -0.577 -0.577 -0.577
vn -0.577 -0.577 -0.577
vn -0.577 -0.577 -0.577
vn -0.577 -0.577 -0.577
vn 0.577 0.577 0.577
vn -0.577 -0.577 -0.577
vn -0.577 -0.577 -0.577
vn -0.577 -0.577 -0.577
vn -0.577 -0.577 -0.577
vn -0.304 -0.304 -0.903
vn -0.577 -0.577 -0.577
vn -0.304 -0.304 -0.903
vn -0.304 -0.304 -0.903
vn -0.577 -0.577 -0.577
vn -0.577 -0.577 -0.577
vn -0.304 -0.304 -0.903
vn -0.304 -0.304 -0.903
vn -0.577 -0.577 -0.577
vn 0.577 0.577 0.577
vn 0.577 0.577 0.577
vn -0.577 -0.577 -0.577
vn -0.577 -0.577 -0.577
vn -0.577 -0.577 -0.577
vn -0.577 -0.577 -0.577
vn -0.577 -0.577 -0.577
vn -0.577 -0.577 -0.577
vn -0.577 -0.577 -0.577
vn -0.577 -0.577 -0.577
vn -0.577 -0.577 -0.577
vn -0.577 -0.577 -0.577
vn -0.577 -0.577 -0.577
vn -0.577 -0.577 -0.577
vn 0.577 0.577 0.577
vn 0.577 0.577 0.577
vn 0.577 0.577 0.577
vn 0.577 0.577 0.577
vn -0.577 -0.577 -0.577
vn -0.577 -0.577 -0.577
vn -0.577 -0.577 -0.577
vn -0.577 -0.577 -0.577
vn 0.577 0.577 0.577
vn 0.577 0.577 0.577
vn 0.577 0.577 0.577
vn 0.577 0.577 0.577
vn -0.577 -0.577 -0.577
vn -0.577 -0.577 -0.577
vn 0.577 0.577 0.577
vn 0.577 0.577 0.577
vn -0.577 -0.577 -0.577
vn -0.577 -0.577 -0.577
vn 0.577 0.577 0.577
vn 0.577 0.577 0.577
vn -0.577 -0.577 -0.577
vn -0.577 -0.577 -0.577
vn -0.577 -0.577 -0.577
vn -0.577 -0.577 -0.577
vn -0.577 -0.577 -0.577
vn -0.577 -0.577 -0.577
vn -0.577 -0.577 -0.577
vn -0.577 -0.577 -0.577
vn 0.577 0.577 0.577
vn -0.577 -0.577 -0.577
vn 0.577 0.577 0.577
vn 0.577 0.577 0.577
vn -0.577 -0.577 -0.577
vn -0.577 -0.577 -0.577
vn 0.577 0.577 0.577
vn -0.577 -0.577 -0.577
vn -0.577 -0.577 -0.577
vn -0.577 -0.577 -0.577
vn -0.577 -0.577 -0.577
vn -0.577 -0.577 -0.577
vn -0.577 -0.577 -0.577
vn -0.577 -0.577 -0.577
vn -0.577 -0.577 -0.577
vn -0.577 -0.577 -0.577
vn -0.577 -0.577 -0.577
vn 0.577 0.577 0.577
vn 0.577 0.577 0.577
vn 0.577 0.577 0.577
vn -0.577 -0.577 -0.577
vn -0.577 -0.577 -0.577
vn -0.577 -0.577 -0.577
vn -0.577 -0.577 -0.577
vn 0.577 0.577 0.577
vn 0.577 0.577 0.577
vn 0.577 0.577 0.577
vn -0.577 -0.577 -0.577
vn 0.577 0.577 0.577
vn -0.577 -0.577 -0.577
vn -0.577 -0.577 -0.577
vn -0.577 -0.577 -0.577
vn -0.577 -0.577 -0.577
vn 0.577 0.577 0.577
vn -0.577 -0.577 -0.577
vn -0.577 -0.577 -0.577
vn 0.577 0.577 0.577
vn 0.577 0.577 0.577
vn -0.577 -0.577 -0.577
vn -0.577 -0.577 -0.577
vn 0.577 0.577 0.577
vn 0.577 0.577 0.577
vn -0.577 -0.577 -0.577
vn -0.577 -0.577 -0.577
vn 0.577 0.577 0.577
vn -0.577 -0.577 -0.577
vn -0.577 -0.577 -0.577
vn -0.577 -0.577 -0.577
vn -0.577 -0.577 -0.577
vn -0.577 -0.577 -0.577
vn -0.577 -0.577 -0.577
vn -0.577 -0.577 -0.577
vn -0.577 -0.577 -0.577
vn -0.577 -0.577 -0.577
vn -0.577 -0.577 -0.577
vn 0.577 0.577 0.577
vn -0.577 -0.577 -0.577
vn -0.577 -0.577 -0.577
vn -0.577 -0.577 -0.577
vn -0.577 -0.577 -0.577
vn -0.304 -0.304 -0.903
vn -0.577 -0.577 -0.577
vn -0.304 -0.304 -0.903
vn -0.577 -0.577 -0.577
vn -0.304 -0.304 -0.903
vn -0.304 -0.304 -0.903
usemtl tex_2141_fl0_ds_w11
f 1/1/1 2/2/2 3/3/3
f 1/1/1 3/3/3 4/4/4
usemtl tex_2142_fl0_ds_w11_ovl
f 5/4/5 6/1/6 7/2/7
f 5/4/5 7/2/7 8/3/8
usemtl tex_2143_fl0_ds_w11_ovl
f 9/2/9 10/3/10 11/4/11
f 9/2/9 11/4/11 12/1/12
usemtl tex_2144_fl0_ds_w11_ovl
f 13/1/13 14/2/14 15/3/15
f 13/1/13 15/3/15 16/4/16
usemtl tex_2141_fl1_ds_w11
f 17/1/17 18/2/18 19/3/19
f 17/1/17 19/3/19 20/4/20
usemtl tex_2142_fl1_ds_w11_ovl
f 21/4/21 22/1/22 23/2/23
f 21/4/21 23/2/23 24/3/24
usemtl tex_2143_fl1_ds_w11_ovl
f 25/2/25 26/3/26 27/4/27
f 25/2/25 27/4/27 28/1/28
usemtl tex_2144_fl1_ds_w11_ovl
f 29/1/29 30/2/30 31/3/31
f 29/1/29 31/3/31 32/4/32
usemtl tex_75_lit
f 33/5/33 34/6/34 35/7/35
f 33/5/33 35/7/35 36/8/36
f 37/9/37 38/10/38 39/11/39
f 37/9/37 39/11/39 40/12/40
f 33/5/33 41/13/41 42/14/42
f 33/5/33 42/14/42 34/6/34
f 43/15/43 44/16/44 40/12/40
f 43/15/43 40/12/40 45/11/45
usemtl tex_76_lit_w01
f 46/17/46 47/18/47 48/19/48
f 49/17/49 50/19/50 51/1/51
f 52/20/52 53/21/53 54/1/54
f 52/20/52 54/1/54 55/22/55
usemtl tex_78_lit_w01
f 56/1/56 57/23/57 58/24/58
f 56/1/56 58/24/58 59/25/59
f 58/24/58 60/26/60 61/27/61
f 58/24/58 61/27/61 59/25/59
f 57/23/57 62/28/62 60/26/60
f 57/23/57 60/26/60 58/24/58
f 56/1/56 63/29/63 62/28/62
f 56/1/56 62/28/62 57/23/57
f 63/29/63 61/27/61 60/26/60
f 63/29/63 60/26/60 62/28/62
f 64/30/64 65/31/65 66/32/66
f 64/30/64 66/32/66 67/33/67
f 64/30/64 68/34/68 69/35/69
f 64/30/64 69/35/69 65/31/65
f 66/32/66 70/36/70 71/1/71
f 66/32/66 71/1/71 67/33/67
f 66/32/66 65/31/65 69/35/69
f 66/32/66 69/35/69 70/36/70
f 68/34/68 71/1/71 70/36/70
f 68/34/68 70/36/70 69/35/69
usemtl tex_79_lit
f 72/37/72 73/38/73 74/39/74
f 72/37/72 74/39/74 75/40/75
f 76/1/76 72/37/72 75/40/75
f 76/1/76 75/40/75 77/41/77
f 77/41/77 75/40/75 74/39/74
f 77/41/77 74/39/74 78/42/78
f 78/42/78 74/39/74 73/38/73
f 78/42/78 73/38/73 79/43/79
f 76/1/76 77/41/77 78/42/78
f 76/1/76 78/42/78 79/43/79
usemtl tex_77_lit_ovl
f 80/44/80 81/45/81 82/46/82
f 80/44/80 82/46/82 83/19/83
usemtl tex_77_lit
f 82/46/82 81/45/81 84/47/84
usemtl tex_77_lit_ovl
f 84/47/84 81/45/81 85/45/85
f 84/47/84 85/45/85 86/47/86
usemtl tex_77_lit
f 86/47/86 87/45/87 88/46/88
usemtl tex_77_lit_ovl
f 88/46/88 87/45/87 89/44/89
f 88/46/88 89/44/89 90/19/90
usemtl tex_77_lit
f 91/48/91 92/49/92 93/50/93
f 91/48/91 93/50/93 94/51/94
f 94/51/94 93/50/93 95/44/95
f 94/51/94 95/44/95 83/19/83
usemtl tex_84_lit
f 96/52/96 97/53/97 98/54/98
f 96/52/96 98/54/98 99/55/99
f 100/56/100 101/57/101 98/54/98
f 100/56/100 98/54/98 97/53/97
f 102/58/102 103/59/103 104/60/104
f 102/58/102 104/60/104 105/61/105
f 103/59/103 102/58/102 106/62/106
f 103/59/103 106/62/106 107/63/107
f 108/64/108 109/65/109 107/63/107
f 108/64/108 107/63/107 110/62/110
f 111/66/111 112/67/112 113/44/113
f 111/66/111 113/44/113 114/19/114
f 115/1/115 116/45/116 112/67/112
f 115/1/115 112/67/112 111/66/111
f 117/68/117 118/52/118 119/55/119
f 117/68/117 119/55/119 120/69/120
usemtl tex_74_lit_w01_ovl
f 121/70/121 122/44/122 123/45/123
f 121/70/121 123/45/123 124/71/124
f 125/72/125 121/70/121 124/71/124
f 126/73/126 125/72/125 124/71/124
f 127/71/127 128/45/128 129/70/129
f 127/71/127 129/70/129 130/72/130
f 131/73/131 127/71/127 130/72/130
f 128/45/128 132/44/132 129/70/129
usemtl tex_80_lit_w01_ovl
f 133/74/133 134/75/134 135/76/135
f 135/76/135 134/75/134 136/1/136
f 137/77/137 138/76/138 139/1/139
f 137/77/137 139/1/139 140/78/140
f 140/78/140 139/1/139 141/45/141
f 142/79/142 140/78/140 141/45/141
f 142/79/142 141/45/141 143/80/143
f 143/80/143 141/45/141 144/81/144
f 145/82/145 146/75/146 147/74/147
f 145/82/145 148/83/148 146/75/146
f 149/84/149 144/81/144 150/85/150
f 149/84/149 143/80/143 144/81/144
f 145/82/145 151/86/151 148/83/148
f 145/82/145 149/84/149 151/86/151
f 149/84/149 150/85/150 151/86/151
usemtl tex_82_lit
f 152/87/152 153/88/153 154/89/154
f 152/87/152 154/89/154 155/90/155
f 153/88/153 152/87/152 156/91/156
f 157/92/157 158/93/158 159/94/159
f 153/88/153 156/91/156 160/19/160
f 161/1/161 159/94/159 158/93/158
f 158/93/158 157/92/157 162/95/162
f 158/93/158 162/95/162 163/96/163
usemtl tex_84_lit
f 164/97/164 165/98/165 166/99/166
f 164/97/164 166/99/166 167/100/167
f 168/98/168 169/101/169 170/102/170
f 168/98/168 170/102/170 171/99/171
f 169/101/169 168/98/168 172/103/172
f 169/101/169 172/103/172 173/104/173
f 168/98/168 174/97/174 175/105/175
f 168/98/168 175/105/175 172/103/172
usemtl tex_80_lit_w01_ovl
f 176/106/176 177/107/177 178/108/178
f 176/106/176 178/108/178 179/1/179
f 180/1/180 181/108/181 182/107/182
f 180/1/180 182/107/182 183/106/183
usemtl tex_82_lit
f 184/109/184 185/110/185 186/94/186
f 184/109/184 186/94/186 187/1/187
f 188/19/188 189/91/189 190/111/190
f 188/19/188 190/111/190 191/112/191
usemtl tex_84_lit
f 192/99/192 193/102/193 194/113/194
f 192/99/192 194/113/194 195/114/195
f 196/100/196 192/99/192 195/114/195
f 196/100/196 195/114/195 197/115/197
usemtl tex_80_lit_w01_ovl
f 198/1/198 199/116/199 200/117/200
f 198/1/198 201/118/201 202/119/202
f 198/1/198 203/120/203 204/121/204
f 205/121/205 206/120/206 207/1/207
f 208/119/208 209/118/209 207/1/207
f 210/117/210 211/116/211 207/1/207
usemtl tex_82_lit
f 212/122/212 213/19/213 214/123/214
f 212/122/212 214/123/214 215/124/215
f 216/125/216 215/124/215 217/126/217
f 216/125/216 217/126/217 218/1/218
f 219/110/219 220/109/220 221/127/221
f 222/111/222 223/128/223 224/112/224
f 219/110/219 221/127/221 225/129/225
f 222/111/222 226/130/226 223/128/223
f 227/131/227 228/132/228 229/45/229
f 227/131/227 229/45/229 230/126/230
f 231/133/231 232/134/232 233/123/233
f 231/133/231 233/123/233 234/44/234
f 230/126/230 229/45/229 235/1/235
f 236/135/236 230/126/230 237/124/237
f 233/123/233 236/135/236 237/124/237
f 234/44/234 233/123/233 238/19/238
usemtl tex_84_lit
f 239/114/239 240/113/240 241/136/241
f 239/114/239 241/136/241 242/137/242
f 243/115/243 244/114/244 245/137/245
f 243/115/243 245/137/245 246/138/246
f 247/139/247 248/131/248 249/126/249
f 247/139/247 249/126/249 250/135/250
f 251/134/251 247/139/247 250/135/250
f 251/134/251 250/135/250 252/123/252
usemtl tex_78_lit_w01
f 253/140/253 254/1/254 255/141/255
f 256/142/256 257/143/257 258/144/258
usemtl tex_80_lit_w01
f 259/145/259 260/146/260 261/147/261
f 259/145/259 261/147/261 262/45/262
f 263/148/263 264/149/264 265/150/265
f 263/148/263 265/150/265 266/151/266
f 267/45/267 268/147/268 269/146/269
f 267/45/267 269/146/269 270/145/270
f 271/151/271 272/150/272 273/149/273
f 271/151/271 273/149/273 274/148/274
usemtl tex_82_lit
f 275/122/275 276/124/276 277/152/277
usemtl tex_76_lit_w01
f 278/18/278 279/17/279 280/153/280
f 278/18/278 280/153/280 281/154/281
usemtl tex_78_lit_w01
f 282/155/282 283/1/283 284/143/284
f 282/155/282 284/143/284 285/142/285
f 286/156/286 287/141/287 288/1/288
f 286/156/286 288/1/288 289/157/289
f 290/158/290 291/159/291 292/160/292
f 290/158/290 292/160/292 293/161/293
usemtl tex_79_lit
f 294/162/294 295/163/295 283/1/283
f 294/162/294 283/1/283 296/164/296
f 297/164/297 298/1/298 299/165/299
f 297/164/297 299/165/299 300/166/300
usemtl tex_1217_sw1_0_lit_w11
f 301/167/301 302/168/302 303/169/303
f 301/167/301 303/169/303 304/170/304
f 305/171/305 306/172/306 307/173/307
f 305/171/305 307/173/307 308/174/308
f 309/175/309 310/176/310 311/177/311
f 309/175/309 311/177/311 312/178/312
f 313/179/313 314/180/314 315/177/315
f 313/179/313 315/177/315 316/178/316
f 317/43/317 318/181/318 319/182/319
f 317/43/317 319/182/319 320/183/320
f 321/184/321 322/185/322 318/181/318
f 321/184/321 318/181/318 323/186/323
usemtl tex_75_lit
f 324/187/324 325/188/325 326/189/326
f 324/187/324 326/189/326 327/190/327
f 327/190/327 326/189/326 328/191/328
f 327/190/327 328/191/328 329/192/329
usemtl tex_75_lit_ovl
f 330/193/330 331/194/331 332/195/332
f 330/193/330 332/195/332 333/196/333
usemtl tex_75_lit
f 334/197/334 335/198/335 331/194/331
f 334/197/334 331/194/331 330/193/330
usemtl tex_77_lit
f 336/199/336 337/200/337 338/201/338
f 336/199/336 338/201/338 339/202/339
f 340/200/340 341/199/341 342/202/342
f 340/200/340 342/202/342 343/201/343
usemtl tex_83_lit
f 344/203/344 345/204/345 346/205/346
f 346/205/346 347/206/347 348/207/348
f 346/205/346 348/207/348 344/203/344
f 349/208/349 350/209/350 351/210/351
f 349/208/349 351/210/351 352/211/352
f 349/208/349 352/211/352 353/212/353
usemtl tex_1217_sw2_0_lit_w11
f 354/176/354 355/213/355 356/214/356
f 354/176/354 356/214/356 357/177/357
f 358/215/358 359/216/359 360/217/360
f 358/215/358 360/217/360 361/218/361
f 362/219/362 363/220/363 364/221/364
f 362/219/362 364/221/364 365/222/365
f 355/213/355 366/223/366 367/1/367
f 355/213/355 367/1/367 356/214/356
usemtl tex_1217_sw2_0_lit_w11_ovl
f 368/224/368 369/225/369 370/1/370
f 368/224/368 370/1/370 371/214/371
usemtl tex_1217_sw2_0_lit_w11
f 372/226/372 373/1/373 374/227/374
f 372/226/372 374/227/374 375/228/375
f 376/229/376 377/230/377 373/1/373
f 376/229/376 373/1/373 372/226/372
usemtl tex_232_sw2_0_lit_sec
f 378/231/378 379/232/379 380/233/380
f 379/232/379 381/234/381 380/233/380
f 381/234/381 382/235/382 380/233/380
f 382/235/382 383/236/383 380/233/380
f 384/236/384 385/237/385 386/233/386
f 385/237/385 387/231/387 386/233/386
usemtl tex_1217_sw4_0_lit_w11
f 388/238/388 389/239/389 390/240/390
f 388/238/388 390/240/390 391/241/391
f 392/242/392 393/243/393 394/244/394
f 392/242/392 394/244/394 395/245/395
f 396/246/396 397/247/397 398/177/398
f 396/246/396 398/177/398 399/248/399
f 400/249/400 401/250/401 402/251/402
f 400/249/400 402/251/402 403/252/403
f 404/253/404 405/254/405 406/255/406
f 404/253/404 406/255/406 407/256/407
f 408/257/408 409/258/409 410/259/410
f 408/257/408 410/259/410 411/260/411
usemtl tex_75_lit
f 412/261/412 413/262/413 414/44/414
f 412/261/412 414/44/414 415/45/415
f 415/45/415 414/44/414 416/263/416
f 415/45/415 416/263/416 417/187/417
usemtl tex_75_lit_ovl
f 418/45/418 419/44/419 420/188/420
f 418/45/418 420/188/420 421/187/421
f 422/261/422 423/195/423 419/44/419
f 422/261/422 419/44/419 418/45/418
usemtl tex_77_lit
f 424/200/424 425/264/425 426/265/426
f 424/200/424 426/265/426 427/201/427
f 428/264/428 429/200/429 430/201/430
f 428/264/428 430/201/430 431/265/431
usemtl tex_83_lit_ovl
f 432/266/432 433/267/433 434/268/434
usemtl tex_83_lit
f 434/268/434 435/204/435 436/203/436
f 434/268/434 436/203/436 432/266/432
f 437/269/437 438/270/438 439/271/439
f 437/269/437 439/271/439 440/210/440
f 437/269/437 440/210/440 441/209/441
usemtl tex_1217_sw5_0_lit_w11
f 442/250/442 443/272/443 444/226/444
f 442/250/442 444/226/444 445/251/445
f 446/273/446 447/274/447 448/275/448
f 446/273/446 448/275/448 449/276/449
f 450/277/450 451/278/451 452/279/452
f 450/277/450 452/279/452 453/280/453
f 443/272/443 454/281/454 455/1/455
f 443/272/443 455/1/455 444/226/444
f 456/282/456 457/283/457 458/1/458
f 456/282/456 458/1/458 459/214/459
f 460/284/460 461/285/461 462/286/462
f 460/284/460 462/286/462 463/287/463
f 464/288/464 465/289/465 466/290/466
f 464/288/464 466/290/466 467/291/467
usemtl tex_232_sw5_0_lit_sec
f 468/292/468 469/293/469 470/294/470
f 469/293/469 471/295/471 470/294/470
f 472/296/472 473/292/473 474/294/474
f 475/295/475 476/297/476 474/294/474
f 476/297/476 477/298/477 474/294/474
f 477/298/477 472/296/472 474/294/474
usemtl tex_1217_sw7_0_lit_w11
f 478/299/478 479/300/479 480/301/480
f 478/299/478 480/301/480 481/302/481
f 482/303/482 483/304/483 484/305/484
f 482/303/482 484/305/484 485/306/485
f 486/307/486 487/308/487 488/309/488
f 486/307/486 488/309/488 489/310/489
f 490/311/490 491/312/491 492/313/492
f 490/311/490 492/313/492 493/314/493
f 494/315/494 495/316/495 496/251/496
f 494/315/494 496/251/496 497/252/497
f 498/317/498 499/318/499 500/319/500
f 498/317/498 500/319/500 501/320/501
usemtl tex_75_lit_ovl
f 502/321/502 503/322/503 504/323/504
f 502/321/502 504/323/504 505/324/505
usemtl tex_75_lit
f 505/324/505 504/323/504 506/325/506
f 505/324/505 506/325/506 507/197/507
f 508/192/508 509/191/509 510/19/510
f 508/192/508 510/19/510 511/1/511
usemtl tex_75_lit_ovl
f 511/1/511 510/19/510 512/326/512
f 511/1/511 512/326/512 513/327/513
f 514/45/514 515/44/515 516/19/516
f 514/45/514 516/19/516 517/1/517
usemtl tex_83_lit
f 518/328/518 519/329/519 520/330/520
f 518/328/518 520/330/520 521/331/521
f 522/332/522 523/333/523 524/334/524
f 524/334/524 523/333/523 525/335/525
f 526/336/526 527/337/527 528/338/528
f 528/338/528 527/337/527 529/339/529
usemtl tex_77_lit
f 530/340/530 531/341/531 532/342/532
f 530/340/530 532/342/532 533/1/533
f 534/342/534 535/341/535 536/343/536
f 534/342/534 536/343/536 537/344/537
f 537/344/537 536/343/536 538/345/538
f 537/344/537 538/345/538 539/45/539
f 540/346/540 541/347/541 542/348/542
f 540/346/540 542/348/542 543/349/543
f 544/347/544 545/346/545 546/349/546
f 544/347/544 546/349/546 547/348/547
usemtl tex_83_lit
f 548/350/548 549/351/549 551/352/551
f 548/350/548 551/352/551 552/353/552
f 553/354/553 554/355/554 555/356/555
f 553/354/553 555/356/555 556/357/556
usemtl tex_1217_sw8_0_lit_w11
f 557/312/557 558/358/558 559/226/559
f 557/312/557 559/226/559 560/313/560
f 561/359/561 562/360/562 563/361/563
f 561/359/561 563/361/563 564/362/564
f 565/363/565 566/364/566 567/1/567
f 565/363/565 567/1/567 568/226/568
f 558/358/558 569/365/569 570/1/570
f 558/358/558 570/1/570 559/226/559
usemtl tex_1217_sw8_0_lit_w11_ovl
f 571/366/571 572/361/572 573/1/573
f 571/366/571 573/1/573 574/367/574
usemtl tex_1217_sw8_0_lit_w11
f 575/368/575 576/369/576 577/370/577
f 575/368/575 577/370/577 578/371/578
f 579/372/579 580/373/580 581/1/581
f 579/372/579 581/1/581 582/226/582
usemtl tex_232_sw8_0_lit_sec
f 583/374/583 584/375/584 585/376/585
f 584/375/584 586/377/586 585/376/585
f 587/377/587 588/235/588 589/376/589
f 588/235/588 590/378/590 589/376/589
f 590/378/590 591/379/591 589/376/589
f 591/379/591 592/374/592 589/376/589
usemtl tex_1217_sw10_0_lit_w11
f 593/380/593 594/381/594 595/382/595
f 593/380/593 595/382/595 596/310/596
f 597/383/597 598/384/598 599/385/599
f 597/383/597 599/385/599 600/386/600
f 601/387/601 602/388/602 603/389/603
f 601/387/601 603/389/603 604/390/604
f 605/391/605 606/392/606 607/181/607
f 605/391/605 607/181/607 608/21/608
f 609/393/609 610/394/610 611/395/611
f 609/393/609 611/395/611 612/396/612
f 613/397/613 614/398/614 615/399/615
f 613/397/613 615/399/615 616/400/616
usemtl tex_75_lit
f 617/197/617 618/198/618 619/194/619
f 617/197/617 619/194/619 620/193/620
f 620/193/620 619/194/619 621/195/621
f 620/193/620 621/195/621 622/261/622
usemtl tex_75_lit_ovl
f 623/190/623 624/189/624 625/401/625
f 623/190/623 625/401/625 626/402/626
f 627/187/627 628/263/628 624/189/624
f 627/187/627 624/189/624 623/190/623
usemtl tex_77_lit
f 629/264/629 630/346/630 631/349/631
f 629/264/629 631/349/631 632/265/632
f 633/346/633 634/264/634 635/265/635
f 633/346/633 635/265/635 636/349/636
usemtl tex_83_lit_ovl
f 637/352/637 638/351/638 639/403/639
usemtl tex_83_lit
f 639/403/639 640/404/640 641/266/641
f 639/403/639 641/266/641 637/352/637
f 642/405/642 643/354/643 644/357/644
f 642/405/642 644/357/644 645/271/645
f 642/405/642 645/271/645 646/270/646
usemtl tex_1217_sw11_0_lit_w11
f 647/392/647 648/406/648 649/226/649
f 647/392/647 649/226/649 650/181/650
f 651/407/651 652/408/652 653/409/653
f 651/407/651 653/409/653 654/410/654
f 655/411/655 656/412/656 657/1/657
f 655/411/655 657/1/657 658/413/658
f 648/406/648 659/414/659 660/1/660
f 648/406/648 660/1/660 649/226/649
f 661/415/661 662/416/662 663/1/663
f 661/415/661 663/1/663 664/226/664
f 665/417/665 666/418/666 667/419/667
f 665/417/665 667/419/667 668/420/668
f 669/421/669 670/422/670 671/1/671
f 669/421/669 671/1/671 672/214/672
usemtl tex_232_sw11_0_lit_sec
f 673/423/673 674/424/674 675/425/675
f 674/424/674 676/426/676 675/425/675
f 677/426/677 678/427/678 679/425/679
f 678/427/678 680/428/680 679/425/679
f 680/428/680 681/429/681 679/425/679
f 681/429/681 682/423/682 679/425/679
usemtl tex_1217_sw13_0_lit_w11
f 683/430/683 684/431/684 685/301/685
f 683/430/683 685/301/685 686/186/686
usemtl tex_1217_sw13_0_lit_w11_ovl
f 687/44/687 688/432/688 689/433/689
f 687/44/687 689/433/689 690/434/690
usemtl tex_1217_sw13_0_lit_w11
f 691/435/691 692/436/692 693/437/693
f 691/435/691 693/437/693 694/44/694
f 695/438/695 696/439/696 697/437/697
f 695/438/695 697/437/697 698/44/698
f 699/44/699 700/437/700 701/440/701
f 699/44/699 701/440/701 702/441/702
f 703/442/703 704/313/704 705/443/705
f 703/442/703 705/443/705 706/444/706
usemtl tex_75_lit
f 707/324/707 708/323/708 709/325/709
f 707/324/707 709/325/709 710/197/710
usemtl tex_75_lit_ovl
f 711/321/711 712/322/712 708/323/708
f 711/321/711 708/323/708 707/324/707
f 713/45/713 714/44/714 715/19/715
f 713/45/713 715/19/715 716/1/716
usemtl tex_75_lit
f 717/1/717 718/19/718 719/326/719
f 717/1/717 719/326/719 720/327/720
f 721/192/721 722/401/722 718/19/718
f 721/192/721 718/19/718 717/1/717
usemtl tex_83_lit
f 723/445/723 724/446/724 725/447/725
f 726/448/726 727/449/727 728/450/728
f 729/451/729 726/448/726 728/450/728
f 730/452/730 731/453/731 732/454/732
f 730/452/730 732/454/732 733/455/733
f 734/456/734 723/445/723 725/447/725
usemtl tex_77_lit
f 735/45/735 736/345/736 737/343/737
f 735/45/735 737/343/737 738/344/738
f 739/344/739 740/343/740 741/341/741
f 739/344/739 741/341/741 742/342/742
f 742/342/742 741/341/741 743/340/743
f 742/342/742 743/340/743 744/1/744
f 745/457/745 746/1/746 747/199/747
f 745/457/745 747/199/747 748/202/748
f 749/199/749 744/1/744 750/457/750
f 749/199/749 750/457/750 751/202/751
usemtl tex_83_lit
f 752/206/752 753/458/753 754/459/754
f 755/206/755 756/459/756 757/207/757
f 758/460/758 759/461/759 760/212/760
f 758/460/758 760/212/760 761/211/761
usemtl tex_1217_sw14_0_lit_w11
f 762/226/762 763/1/763 764/419/764
f 762/226/762 764/419/764 765/462/765
f 766/463/766 767/45/767 768/464/768
f 766/463/766 768/464/768 769/465/769
f 770/466/770 771/467/771 767/45/767
f 770/466/770 767/45/767 766/463/766
f 772/468/772 773/469/773 774/45/774
f 772/468/772 774/45/774 775/463/775
f 776/470/776 777/471/777 778/472/778
f 776/470/776 778/472/778 779/473/779
f 780/474/780 781/475/781 782/1/782
f 780/474/780 782/1/782 783/226/783
usemtl tex_232_sw14_0_lit_sec
f 784/476/784 785/477/785 786/478/786
f 785/477/785 787/479/787 786/478/786
f 787/479/787 788/480/788 786/478/786
f 788/480/788 789/481/789 786/478/786
f 789/481/789 790/482/790 786/478/786
f 790/482/790 784/476/784 786/478/786
