mtllib GextinguisherZ.mtl
v 57.0 -10.0 14.0 1.000 1.000 1.000
v 61.0 -14.0 16.0 1.000 1.000 1.000
v 63.0 -12.0 19.0 1.000 1.000 1.000
v 58.0 -7.0 17.0 1.000 1.000 1.000
v 48.0 -7.0 13.0 1.000 1.000 1.000
v 48.0 -4.0 16.0 1.000 1.000 1.000
v 69.0 -17.0 23.0 1.000 1.000 1.000
v 65.0 -18.0 21.0 1.000 1.000 1.000
v 65.0 -61.0 37.0 1.000 1.000 1.000
v 69.0 -60.0 38.0 1.000 1.000 1.000
v 66.0 -9.0 20.0 1.000 1.000 1.000
v 60.0 -4.0 18.0 1.000 1.000 1.000
v 48.0 0.0 17.0 1.000 1.000 1.000
v 73.0 -16.0 21.0 1.000 1.000 1.000
v 73.0 -61.0 37.0 1.000 1.000 1.000
v 69.0 -8.0 18.0 1.000 1.000 1.000
v 60.0 -4.0 18.0 1.000 1.000 1.000
v 69.0 -8.0 18.0 1.000 1.000 1.000
v 62.0 -1.0 15.0 1.000 1.000 1.000
v 48.0 0.0 17.0 1.000 1.000 1.000
v 48.0 3.0 14.0 1.000 1.000 1.000
v 70.0 -8.0 14.0 1.000 1.000 1.000
v 63.0 -1.0 11.0 1.000 1.000 1.000
v 48.0 3.0 10.0 1.000 1.000 1.000
v 69.0 -10.0 11.0 1.000 1.000 1.000
v 62.0 -4.0 8.0 1.000 1.000 1.000
v 48.0 0.0 7.0 1.000 1.000 1.000
v 69.0 -64.0 28.0 1.000 1.000 1.000
v 69.0 -20.0 13.0 1.000 1.000 1.000
v 73.0 -19.0 14.0 1.000 1.000 1.000
v 73.0 -64.0 30.0 1.000 1.000 1.000
v 66.0 -13.0 10.0 1.000 1.000 1.000
v 62.0 -4.0 8.0 1.000 1.000 1.000
v 66.0 -13.0 10.0 1.000 1.000 1.000
v 60.0 -7.0 8.0 1.000 1.000 1.000
v 48.0 0.0 7.0 1.000 1.000 1.000
v 48.0 -4.0 7.0 1.000 1.000 1.000
v 65.0 -64.0 30.0 1.000 1.000 1.000
v 65.0 -20.0 14.0 1.000 1.000 1.000
v 69.0 -20.0 13.0 1.000 1.000 1.000
v 69.0 -64.0 28.0 1.000 1.000 1.000
v 63.0 -15.0 12.0 1.000 1.000 1.000
v 58.0 -10.0 10.0 1.000 1.000 1.000
v 48.0 -7.0 9.0 1.000 1.000 1.000
v 61.0 -14.0 16.0 1.000 1.000 1.000
v 57.0 -10.0 14.0 1.000 1.000 1.000
v 48.0 -7.0 13.0 1.000 1.000 1.000
v 5.0 -7.0 13.0 1.000 1.000 1.000
v 48.0 -7.0 13.0 1.000 1.000 1.000
v 48.0 -4.0 16.0 1.000 1.000 1.000
v 5.0 -4.0 16.0 1.000 1.000 1.000
v 48.0 0.0 17.0 1.000 1.000 1.000
v 5.0 0.0 17.0 1.000 1.000 1.000
v 48.0 3.0 14.0 1.000 1.000 1.000
v 5.0 3.0 14.0 1.000 1.000 1.000
v 48.0 3.0 10.0 1.000 1.000 1.000
v 5.0 3.0 10.0 1.000 1.000 1.000
v 48.0 0.0 7.0 1.000 1.000 1.000
v 5.0 0.0 7.0 1.000 1.000 1.000
v 48.0 -4.0 7.0 1.000 1.000 1.000
v 5.0 -4.0 7.0 1.000 1.000 1.000
v 48.0 -7.0 9.0 1.000 1.000 1.000
v 5.0 -7.0 9.0 1.000 1.000 1.000
v 64.0 -19.0 18.0 1.000 1.000 1.000
v 64.0 -62.0 33.0 1.000 1.000 1.000
v 65.0 -61.0 37.0 1.000 1.000 1.000
v 65.0 -18.0 21.0 1.000 1.000 1.000
v 73.0 -16.0 21.0 1.000 1.000 1.000
v 73.0 -61.0 37.0 1.000 1.000 1.000
v 75.0 -62.0 33.0 1.000 1.000 1.000
v 74.0 -17.0 17.0 1.000 1.000 1.000
v 73.0 -64.0 30.0 1.000 1.000 1.000
v 73.0 -19.0 14.0 1.000 1.000 1.000
v 65.0 -20.0 14.0 1.000 1.000 1.000
v 65.0 -64.0 30.0 1.000 1.000 1.000
v 63.0 -15.0 12.0 1.000 1.000 1.000
v 61.0 -14.0 16.0 1.000 1.000 1.000
v 66.0 -13.0 10.0 1.000 1.000 1.000
v 69.0 -20.0 13.0 1.000 1.000 1.000
v 69.0 -10.0 11.0 1.000 1.000 1.000
v 69.0 -20.0 13.0 1.000 1.000 1.000
v 66.0 -13.0 10.0 1.000 1.000 1.000
v 73.0 -19.0 14.0 1.000 1.000 1.000
v 70.0 -8.0 14.0 1.000 1.000 1.000
v 74.0 -17.0 17.0 1.000 1.000 1.000
v 69.0 -8.0 18.0 1.000 1.000 1.000
v 73.0 -16.0 21.0 1.000 1.000 1.000
v 66.0 -9.0 20.0 1.000 1.000 1.000
v 69.0 -17.0 23.0 1.000 1.000 1.000
v 63.0 -12.0 19.0 1.000 1.000 1.000
v 65.0 -18.0 21.0 1.000 1.000 1.000
v 61.0 -14.0 16.0 1.000 1.000 1.000
v 64.0 -19.0 18.0 1.000 1.000 1.000
v 32.0 -61.0 12.0 1.000 1.000 1.000
v 32.0 -231.0 12.0 1.000 1.000 1.000
v 23.0 -231.0 -11.0 1.000 1.000 1.000
v 23.0 -61.0 -11.0 1.000 1.000 1.000
v 0.0 -231.0 -20.0 1.000 1.000 1.000
v 0.0 -61.0 -20.0 1.000 1.000 1.000
v -23.0 -231.0 -11.0 1.000 1.000 1.000
v -23.0 -61.0 -11.0 1.000 1.000 1.000
v -32.0 -61.0 12.0 1.000 1.000 1.000
v -32.0 -231.0 12.0 1.000 1.000 1.000
v -23.0 -231.0 34.0 1.000 1.000 1.000
v -23.0 -61.0 34.0 1.000 1.000 1.000
v 0.0 -231.0 44.0 1.000 1.000 1.000
v 0.0 -61.0 44.0 1.000 1.000 1.000
v 23.0 -231.0 34.0 1.000 1.000 1.000
v 23.0 -61.0 34.0 1.000 1.000 1.000
v 32.0 -61.0 12.0 1.000 1.000 1.000
v 23.0 -61.0 -11.0 1.000 1.000 1.000
v 21.0 -49.0 -9.0 1.000 1.000 1.000
v 30.0 -49.0 12.0 1.000 1.000 1.000
v 0.0 -61.0 -20.0 1.000 1.000 1.000
v 0.0 -49.0 -18.0 1.000 1.000 1.000
v -23.0 -61.0 -11.0 1.000 1.000 1.000
v -21.0 -49.0 -9.0 1.000 1.000 1.000
v -32.0 -61.0 12.0 1.000 1.000 1.000
v -30.0 -49.0 12.0 1.000 1.000 1.000
v -23.0 -61.0 34.0 1.000 1.000 1.000
v -21.0 -49.0 33.0 1.000 1.000 1.000
v 0.0 -61.0 44.0 1.000 1.000 1.000
v 0.0 -49.0 41.0 1.000 1.000 1.000
v 23.0 -61.0 34.0 1.000 1.000 1.000
v 21.0 -49.0 33.0 1.000 1.000 1.000
v 23.0 -38.0 12.0 1.000 1.000 1.000
v 30.0 -49.0 12.0 1.000 1.000 1.000
v 21.0 -49.0 -9.0 1.000 1.000 1.000
v 16.0 -38.0 -4.0 1.000 1.000 1.000
v 0.0 -49.0 -18.0 1.000 1.000 1.000
v 0.0 -38.0 -11.0 1.000 1.000 1.000
v -21.0 -49.0 -9.0 1.000 1.000 1.000
v -16.0 -38.0 -4.0 1.000 1.000 1.000
v -30.0 -49.0 12.0 1.000 1.000 1.000
v -23.0 -38.0 12.0 1.000 1.000 1.000
v -21.0 -49.0 33.0 1.000 1.000 1.000
v -16.0 -38.0 28.0 1.000 1.000 1.000
v 0.0 -49.0 41.0 1.000 1.000 1.000
v 0.0 -38.0 34.0 1.000 1.000 1.000
v 21.0 -49.0 33.0 1.000 1.000 1.000
v 16.0 -38.0 28.0 1.000 1.000 1.000
v 23.0 -38.0 12.0 1.000 1.000 1.000
v 16.0 -38.0 -4.0 1.000 1.000 1.000
v 10.0 -32.0 2.0 1.000 1.000 1.000
v 14.0 -32.0 12.0 1.000 1.000 1.000
v 0.0 -38.0 -11.0 1.000 1.000 1.000
v 0.0 -32.0 -2.0 1.000 1.000 1.000
v -16.0 -38.0 -4.0 1.000 1.000 1.000
v -10.0 -32.0 2.0 1.000 1.000 1.000
v -23.0 -38.0 12.0 1.000 1.000 1.000
v -14.0 -32.0 12.0 1.000 1.000 1.000
v -16.0 -38.0 28.0 1.000 1.000 1.000
v -10.0 -32.0 21.0 1.000 1.000 1.000
v 0.0 -38.0 34.0 1.000 1.000 1.000
v 0.0 -32.0 25.0 1.000 1.000 1.000
v 16.0 -38.0 28.0 1.000 1.000 1.000
v 10.0 -32.0 21.0 1.000 1.000 1.000
v 10.0 -32.0 21.0 1.000 1.000 1.000
v 14.0 -32.0 12.0 1.000 1.000 1.000
v 8.0 -16.0 12.0 1.000 1.000 1.000
v 5.0 -16.0 18.0 1.000 1.000 1.000
v -10.0 -32.0 21.0 1.000 1.000 1.000
v 0.0 -32.0 25.0 1.000 1.000 1.000
v 0.0 -16.0 20.0 1.000 1.000 1.000
v -5.0 -16.0 18.0 1.000 1.000 1.000
v -14.0 -32.0 12.0 1.000 1.000 1.000
v -8.0 -16.0 12.0 1.000 1.000 1.000
v -5.0 -16.0 6.0 1.000 1.000 1.000
v -10.0 -32.0 2.0 1.000 1.000 1.000
v 10.0 -32.0 2.0 1.000 1.000 1.000
v 5.0 -16.0 6.0 1.000 1.000 1.000
v 0.0 -16.0 3.0 1.000 1.000 1.000
v 0.0 -32.0 -2.0 1.000 1.000 1.000
v 5.0 -16.0 22.0 1.000 1.000 1.000
v 5.0 -16.0 1.0 1.000 1.000 1.000
v 6.0 14.0 1.0 1.000 1.000 1.000
v 5.0 19.0 22.0 1.000 1.000 1.000
v 5.0 -16.0 22.0 1.000 1.000 1.000
v -5.0 19.0 22.0 1.000 1.000 1.000
v -5.0 -16.0 22.0 1.000 1.000 1.000
v -5.0 -16.0 1.0 1.000 1.000 1.000
v -5.0 -16.0 22.0 1.000 1.000 1.000
v 6.0 14.0 1.0 1.000 1.000 1.000
v 5.0 -16.0 1.0 1.000 1.000 1.000
v -5.0 -16.0 1.0 1.000 1.000 1.000
v -4.0 14.0 1.0 1.000 1.000 1.000
v -5.0 -16.0 22.0 1.000 1.000 1.000
v -5.0 19.0 22.0 1.000 1.000 1.000
v -4.0 14.0 1.0 1.000 1.000 1.000
v -5.0 -16.0 22.0 1.000 1.000 1.000
v -4.0 14.0 1.0 1.000 1.000 1.000
v -5.0 -16.0 1.0 1.000 1.000 1.000
v -5.0 -16.0 6.0 1.000 1.000 1.000
v -8.0 -16.0 12.0 1.000 1.000 1.000
v -5.0 -16.0 18.0 1.000 1.000 1.000
v 5.0 -16.0 6.0 1.000 1.000 1.000
v 5.0 -16.0 18.0 1.000 1.000 1.000
v 8.0 -16.0 12.0 1.000 1.000 1.000
v 0.0 -16.0 20.0 1.000 1.000 1.000
v 0.0 -16.0 3.0 1.000 1.000 1.000
v -9.0 14.0 -79.0 1.000 1.000 1.000
v -9.0 8.0 -89.0 1.000 1.000 1.000
v 0.0 2.0 -88.0 1.000 1.000 1.000
v 8.0 14.0 -79.0 1.000 1.000 1.000
v 8.0 8.0 -89.0 1.000 1.000 1.000
v 8.0 8.0 -89.0 1.000 1.000 1.000
v 13.0 22.0 -82.0 1.000 1.000 1.000
v 8.0 14.0 -79.0 1.000 1.000 1.000
v 13.0 28.0 1.0 1.000 1.000 1.000
v 8.0 16.0 1.0 1.000 1.000 1.000
v -9.0 16.0 1.0 1.000 1.000 1.000
v -9.0 14.0 -79.0 1.000 1.000 1.000
v -9.0 8.0 -89.0 1.000 1.000 1.000
v -13.0 22.0 -82.0 1.000 1.000 1.000
v -13.0 28.0 1.0 1.000 1.000 1.000
v -13.0 37.0 8.0 1.000 1.000 1.000
v -11.0 60.0 -34.0 1.000 1.000 1.000
v -13.0 56.0 -37.0 1.000 1.000 1.000
v 13.0 56.0 -37.0 1.000 1.000 1.000
v 11.0 60.0 -34.0 1.000 1.000 1.000
v 13.0 37.0 8.0 1.000 1.000 1.000
v -13.0 28.0 1.0 1.000 1.000 1.000
v -11.0 14.0 1.0 1.000 1.000 1.000
v -11.0 19.0 22.0 1.000 1.000 1.000
v -13.0 28.0 18.0 1.000 1.000 1.000
v -13.0 37.0 8.0 1.000 1.000 1.000
v -13.0 56.0 -37.0 1.000 1.000 1.000
v 11.0 19.0 22.0 1.000 1.000 1.000
v 11.0 14.0 1.0 1.000 1.000 1.000
v 13.0 28.0 1.0 1.000 1.000 1.000
v 13.0 37.0 8.0 1.000 1.000 1.000
v 13.0 56.0 -37.0 1.000 1.000 1.000
v 13.0 28.0 18.0 1.000 1.000 1.000
v 11.0 60.0 -34.0 1.000 1.000 1.000
v 11.0 57.0 -87.0 1.000 1.000 1.000
v -11.0 60.0 -34.0 1.000 1.000 1.000
v -11.0 57.0 -87.0 1.000 1.000 1.000
v 0.0 42.0 10.0 1.000 1.000 1.000
v -13.0 28.0 18.0 1.000 1.000 1.000
v 13.0 28.0 18.0 1.000 1.000 1.000
v -13.0 37.0 8.0 1.000 1.000 1.000
v 11.0 60.0 -34.0 1.000 1.000 1.000
v 13.0 37.0 8.0 1.000 1.000 1.000
v 0.0 65.0 -34.0 1.000 1.000 1.000
v -11.0 60.0 -34.0 1.000 1.000 1.000
v 8.0 51.0 -108.0 1.000 1.000 1.000
v 0.0 62.0 -86.0 1.000 1.000 1.000
v 11.0 57.0 -87.0 1.000 1.000 1.000
v 0.0 53.0 -105.0 1.000 1.000 1.000
v -11.0 57.0 -87.0 1.000 1.000 1.000
v -8.0 51.0 -108.0 1.000 1.000 1.000
v 0.0 46.0 -111.0 1.000 1.000 1.000
v -11.0 19.0 22.0 1.000 1.000 1.000
v 11.0 19.0 22.0 1.000 1.000 1.000
v 13.0 28.0 18.0 1.000 1.000 1.000
v -13.0 28.0 18.0 1.000 1.000 1.000
v -11.0 14.0 1.0 1.000 1.000 1.000
v 11.0 14.0 1.0 1.000 1.000 1.000
v 0.0 42.0 10.0 1.000 1.000 1.000
v 13.0 37.0 8.0 1.000 1.000 1.000
v 69.0 -75.0 22.0 1.000 1.000 1.000
v 69.0 -211.0 61.0 1.000 1.000 1.000
v 52.0 -208.0 68.0 1.000 1.000 1.000
v 58.0 -73.0 26.0 1.000 1.000 1.000
v 44.0 -202.0 84.0 1.000 1.000 1.000
v 54.0 -70.0 36.0 1.000 1.000 1.000
v 52.0 -196.0 101.0 1.000 1.000 1.000
v 58.0 -66.0 47.0 1.000 1.000 1.000
v 69.0 -194.0 108.0 1.000 1.000 1.000
v 69.0 -64.0 51.0 1.000 1.000 1.000
v 87.0 -196.0 101.0 1.000 1.000 1.000
v 80.0 -66.0 47.0 1.000 1.000 1.000
v 94.0 -202.0 84.0 1.000 1.000 1.000
v 85.0 -70.0 36.0 1.000 1.000 1.000
v 87.0 -208.0 68.0 1.000 1.000 1.000
v 80.0 -73.0 26.0 1.000 1.000 1.000
v 69.0 -64.0 28.0 1.000 1.000 1.000
v 69.0 -75.0 22.0 1.000 1.000 1.000
v 58.0 -73.0 26.0 1.000 1.000 1.000
v 65.0 -64.0 30.0 1.000 1.000 1.000
v 54.0 -70.0 36.0 1.000 1.000 1.000
v 64.0 -62.0 33.0 1.000 1.000 1.000
v 58.0 -66.0 47.0 1.000 1.000 1.000
v 65.0 -61.0 37.0 1.000 1.000 1.000
v 69.0 -64.0 51.0 1.000 1.000 1.000
v 69.0 -60.0 38.0 1.000 1.000 1.000
v 80.0 -66.0 47.0 1.000 1.000 1.000
v 73.0 -61.0 37.0 1.000 1.000 1.000
v 85.0 -70.0 36.0 1.000 1.000 1.000
v 75.0 -62.0 33.0 1.000 1.000 1.000
v 80.0 -73.0 26.0 1.000 1.000 1.000
v 73.0 -64.0 30.0 1.000 1.000 1.000
vt 0.2777 0.9367
vt 0.1036 0.7973
vt 0.3496 0.4565
vt 0.4172 0.5000
vt 0.4445 0.9681
vt 0.4841 0.5119
vt 0.3299 0.3813
vt 0.1037 0.1988
vt 0.6183 0.1057
vt 0.9879 0.3969
vt 0.8639 0.1599
vt 0.9332 0.2576
vt 0.7604 0.0857
vt 0.5711 0.0297
vt 0.5000 0.4088
vt 0.2621 0.6983
vt 0.3377 0.7969
vt 0.4285 0.7899
vt 0.4762 0.8411
vt 0.4842 0.8669
vt 0.4960 0.4565
vt 0.5198 0.0237
vt 0.5711 0.8872
vt 0.0048 0.5673
vt 0.9977 0.4526
vt 1.0000 0.5000
vt 0.8536 0.5000
vt 0.8520 0.4525
vt 0.5000 0.5000
vt 0.5000 0.4526
vt 0.1464 0.5000
vt 0.1480 0.4525
vt 0.0023 0.4526
vt 0.0000 0.5000
vt 0.8267 0.3088
vt 0.9626 0.3102
vt 0.5000 0.3102
vt 0.1733 0.3088
vt 0.0374 0.3102
vt 0.8575 0.1504
vt 0.7535 0.1515
vt 0.5000 0.1504
vt 0.2465 0.1515
vt 0.1425 0.1504
vt 0.7806 0.1957
vt 0.9129 0.2221
vt 0.5000 0.1950
vt 0.2222 0.1944
vt 0.0734 0.2393
vt 0.2334 0.2215
vt 0.5000 0.1994
vt 0.8170 0.2226
vt 0.9673 0.3337
vt 0.8171 0.3335
vt 0.4287 0.3376
vt 0.1266 0.3371
vt 0.0257 0.3419
vt 0.1319 0.3377
vt 0.8691 0.3413
vt 0.5000 0.3383
vt 0.7220 0.9480
vt 0.8476 0.8594
vt 0.9999 0.5040
vt 0.7173 0.4960
vt 0.5000 1.0000
vt 0.0004 0.5000
vt 0.0001 0.4960
vt 0.1524 0.1406
vt 0.3455 0.0245
vt 0.5000 0.0000
vt 0.3738 0.9613
vt 0.0255 0.6384
vt 0.5594 0.8684
vt 0.8408 0.8369
vt 0.7652 0.8563
vt 0.8495 0.8097
vt 0.9816 0.6342
vt 0.9079 0.7653
vt 0.2660 0.9006
vt 0.0249 0.5713
vt 0.0078 0.5834
vt 0.1239 0.1833
vt 0.2304 0.0837
vt 0.0078 0.4286
vt 0.9216 0.2335
vt 0.7666 0.0862
vt 0.8744 0.2052
vt 0.1529 0.5789
vt 0.2824 0.2350
vt 0.6346 0.9275
vt 0.7692 0.3100
vt 0.7218 0.0564
vt 0.2513 0.0698
vt 0.5477 0.0902
vt 0.4842 0.0210
vt 0.5754 0.0833
vt 0.5595 0.0201
vt 0.4921 0.1005
vt 0.5000 0.1464
vt 0.5000 0.2019
vt 0.0000 1.7188
vt 0.0000 2.1562
vt 0.8125 1.8125
vt 0.5312 1.5312
vt 1.1562 1.0000
vt 0.7188 1.0000
vt 0.8125 0.1875
vt 0.5312 0.4688
vt 0.0000 -0.1562
vt 0.0000 0.2812
vt -0.8125 0.1875
vt -0.5312 0.4688
vt -1.1562 1.0000
vt -0.7188 1.0000
vt -0.8125 1.8125
vt -0.5312 1.5312
vt 0.0000 1.2500
vt 0.1875 1.1875
vt 0.2500 1.0000
vt 0.1875 0.8125
vt 0.0000 0.7500
vt -0.1875 0.8125
vt -0.2500 1.0000
vt -0.1875 1.1875
vn -0.445 -0.873 0.199
vn -0.793 -0.595 0.135
vn -0.301 0.087 0.950
vn -0.166 0.000 0.986
vn -0.111 -0.936 0.333
vn -0.032 -0.024 0.999
vn -0.340 0.237 0.910
vn -0.340 0.237 0.910
vn -0.793 0.602 0.095
vn 0.237 0.789 0.568
vn -0.301 0.087 0.950
vn -0.166 0.000 0.986
vn -0.032 -0.024 0.999
vn 0.976 0.206 0.071
vn 0.728 0.680 0.087
vn 0.866 0.485 -0.119
vn -0.166 0.000 0.986
vn 0.866 0.485 -0.119
vn 0.521 0.829 -0.205
vn -0.032 -0.024 0.999
vn 0.142 0.941 -0.308
vn 0.866 0.485 -0.119
vn 0.521 0.829 -0.205
vn 0.142 0.941 -0.308
vn 0.866 0.485 -0.119
vn 0.521 0.829 -0.205
vn 0.142 0.941 -0.308
vn 0.000 0.182 -0.983
vn -0.476 -0.397 -0.785
vn 0.976 0.206 0.071
vn 0.000 0.182 -0.983
vn -0.325 -0.594 -0.736
vn 0.521 0.829 -0.205
vn -0.325 -0.594 -0.736
vn -0.143 -0.580 -0.802
vn 0.142 0.941 -0.308
vn -0.048 -0.682 -0.730
vn 0.000 0.182 -0.983
vn -0.476 -0.397 -0.785
vn -0.476 -0.397 -0.785
vn 0.000 0.182 -0.983
vn -0.325 -0.594 -0.736
vn -0.143 -0.580 -0.802
vn -0.048 -0.682 -0.730
vn -0.793 -0.595 0.135
vn -0.445 -0.873 0.199
vn -0.111 -0.936 0.333
vn -0.032 -0.734 0.679
vn -0.111 -0.936 0.333
vn -0.032 -0.024 0.999
vn -0.008 0.087 0.996
vn -0.032 -0.024 0.999
vn -0.008 0.087 0.996
vn 0.142 0.941 -0.308
vn 0.040 0.953 -0.302
vn 0.142 0.941 -0.308
vn 0.040 0.953 -0.302
vn 0.142 0.941 -0.308
vn 0.040 0.953 -0.302
vn -0.048 -0.682 -0.730
vn 0.142 -0.774 -0.616
vn -0.048 -0.682 -0.730
vn 0.142 -0.774 -0.616
vn -0.990 -0.135 0.032
vn -0.793 0.602 0.095
vn -0.793 0.602 0.095
vn -0.340 0.237 0.910
vn 0.976 0.206 0.071
vn 0.728 0.680 0.087
vn 0.728 0.680 0.087
vn 0.976 0.206 0.071
vn 0.000 0.182 -0.983
vn 0.976 0.206 0.071
vn -0.476 -0.397 -0.785
vn 0.000 0.182 -0.983
vn -0.325 -0.594 -0.736
vn -0.793 -0.595 0.135
vn -0.325 -0.594 -0.736
vn -0.476 -0.397 -0.785
vn 0.866 0.485 -0.119
vn -0.476 -0.397 -0.785
vn -0.325 -0.594 -0.736
vn 0.976 0.206 0.071
vn 0.866 0.485 -0.119
vn 0.976 0.206 0.071
vn 0.866 0.485 -0.119
vn 0.976 0.206 0.071
vn -0.301 0.087 0.950
vn -0.340 0.237 0.910
vn -0.301 0.087 0.950
vn -0.340 0.237 0.910
vn -0.793 -0.595 0.135
vn -0.990 -0.135 0.032
vn 0.995 0.095 0.000
vn 1.000 0.000 0.000
vn 0.707 0.000 -0.707
vn 0.704 0.095 -0.704
vn 0.000 0.000 -1.000
vn 0.000 0.095 -0.995
vn -0.707 0.000 -0.707
vn -0.704 0.095 -0.704
vn -0.995 0.095 0.000
vn -1.000 0.000 0.000
vn -0.707 0.000 0.707
vn -0.704 0.095 0.704
vn 0.000 0.000 1.000
vn 0.000 0.095 0.995
vn 0.707 0.000 0.707
vn 0.704 0.095 0.704
vn 0.995 0.095 0.000
vn 0.704 0.095 -0.704
vn 0.653 0.382 -0.653
vn 0.925 0.380 0.000
vn 0.000 0.095 -0.995
vn 0.000 0.380 -0.925
vn -0.704 0.095 -0.704
vn -0.653 0.382 -0.653
vn -0.995 0.095 0.000
vn -0.925 0.380 0.000
vn -0.704 0.095 0.704
vn -0.653 0.382 0.653
vn 0.000 0.095 0.995
vn 0.000 0.380 0.925
vn 0.704 0.095 0.704
vn 0.653 0.382 0.653
vn 0.715 0.699 0.000
vn 0.925 0.380 0.000
vn 0.653 0.382 -0.653
vn 0.507 0.697 -0.507
vn 0.000 0.380 -0.925
vn 0.000 0.699 -0.715
vn -0.653 0.382 -0.653
vn -0.507 0.697 -0.507
vn -0.925 0.380 0.000
vn -0.715 0.699 0.000
vn -0.653 0.382 0.653
vn -0.507 0.697 0.507
vn 0.000 0.380 0.925
vn 0.000 0.699 0.715
vn 0.653 0.382 0.653
vn 0.507 0.697 0.507
vn 0.715 0.699 0.000
vn 0.507 0.697 -0.507
vn 0.561 0.609 -0.561
vn 0.826 0.556 -0.095
vn 0.000 0.699 -0.715
vn 0.000 0.610 -0.792
vn -0.507 0.697 -0.507
vn -0.556 0.611 -0.564
vn -0.715 0.699 0.000
vn -0.853 0.521 0.000
vn -0.507 0.697 0.507
vn -0.533 0.557 0.637
vn 0.000 0.699 0.715
vn 0.000 0.601 0.799
vn 0.507 0.697 0.507
vn 0.634 0.555 0.539
vn 0.634 0.555 0.539
vn 0.826 0.556 -0.095
vn 0.935 0.333 0.127
vn 0.634 0.333 0.698
vn -0.533 0.557 0.637
vn 0.000 0.601 0.799
vn -0.143 0.325 0.935
vn -0.747 0.326 0.580
vn -0.853 0.521 0.000
vn -0.949 0.316 0.000
vn -0.736 0.325 -0.594
vn -0.556 0.611 -0.564
vn 0.561 0.609 -0.561
vn 0.738 0.317 -0.595
vn 0.000 0.323 -0.946
vn 0.000 0.610 -0.792
vn 0.444 -0.896 0.000
vn 0.695 -0.719 0.000
vn 1.000 -0.008 0.016
vn 0.435 0.008 0.901
vn 0.435 0.008 0.901
vn 0.435 0.008 0.901
vn 0.435 0.008 0.901
vn 0.000 -1.000 0.000
vn 0.444 -0.896 0.000
vn 0.000 0.000 -1.000
vn 0.000 0.000 -1.000
vn 0.000 0.000 -1.000
vn 0.000 0.000 -1.000
vn -0.999 0.000 -0.040
vn -0.999 0.000 -0.040
vn -1.000 0.008 -0.016
vn -0.695 0.719 0.000
vn -1.000 0.008 -0.016
vn -0.309 0.951 0.000
vn -0.309 0.951 0.000
vn 0.000 1.000 0.000
vn 0.000 1.000 0.000
vn 0.000 1.000 0.000
vn 0.000 1.000 0.000
vn 0.000 1.000 0.000
vn -0.695 0.719 0.000
vn -0.309 0.951 0.000
vn -0.252 -0.923 0.292
vn -0.949 -0.277 0.150
vn 0.119 -0.737 0.666
vn 0.682 -0.674 0.285
vn 0.530 -0.713 0.459
vn 0.530 -0.713 0.459
vn 0.699 -0.619 0.357
vn 0.682 -0.674 0.285
vn 0.963 -0.268 0.008
vn 0.816 -0.531 -0.230
vn -0.468 -0.801 0.373
vn -0.252 -0.923 0.292
vn -0.949 -0.277 0.150
vn -0.950 -0.143 0.277
vn -0.984 -0.167 -0.056
vn -0.752 0.633 0.182
vn -0.539 0.833 0.127
vn -0.984 0.143 0.103
vn 0.843 0.533 0.072
vn 0.533 0.828 0.175
vn 0.749 0.590 0.303
vn -0.984 -0.167 -0.056
vn -0.468 -0.801 0.373
vn -0.694 -0.158 0.702
vn -0.435 0.530 0.728
vn -0.752 0.633 0.182
vn -0.984 0.143 0.103
vn 0.269 -0.855 0.443
vn 0.816 -0.531 -0.230
vn 0.963 -0.268 0.008
vn 0.749 0.590 0.303
vn 0.843 0.533 0.072
vn 0.538 0.380 0.752
vn 0.533 0.828 0.175
vn 0.444 0.887 -0.127
vn -0.539 0.833 0.127
vn -0.497 0.860 -0.111
vn 0.095 0.820 0.565
vn -0.435 0.530 0.728
vn 0.538 0.380 0.752
vn -0.752 0.633 0.182
vn 0.533 0.828 0.175
vn 0.749 0.590 0.303
vn -0.032 0.958 0.285
vn -0.539 0.833 0.127
vn 0.151 0.833 -0.532
vn 0.119 0.960 -0.254
vn 0.444 0.887 -0.127
vn -0.016 0.799 -0.601
vn -0.497 0.860 -0.111
vn 0.000 0.707 -0.707
vn 0.000 0.596 -0.803
vn -0.694 -0.158 0.702
vn 0.269 -0.855 0.443
vn 0.538 0.380 0.752
vn -0.435 0.530 0.728
vn -0.468 -0.801 0.373
vn 0.816 -0.531 -0.230
vn 0.095 0.820 0.565
vn 0.749 0.590 0.303
vn -0.190 -0.272 -0.943
vn 0.095 -0.275 -0.957
vn -0.627 -0.205 -0.752
vn -0.810 -0.139 -0.570
vn -0.994 0.034 -0.105
vn -0.978 0.129 0.162
vn -0.785 0.271 0.557
vn -0.589 0.334 0.736
vn -0.096 0.399 0.912
vn 0.177 0.395 0.901
vn 0.635 0.325 0.701
vn 0.828 0.251 0.501
vn 0.992 0.097 0.078
vn 0.982 0.001 -0.187
vn 0.758 -0.159 -0.632
vn 0.550 -0.221 -0.805
vn -0.119 0.509 -0.853
vn 0.056 0.503 -0.863
vn -0.415 0.590 -0.693
vn -0.558 0.633 -0.536
vn -0.635 0.718 -0.284
vn -0.643 0.751 -0.153
vn -0.494 0.865 0.090
vn -0.348 0.911 0.220
vn -0.043 0.956 0.290
vn 0.156 0.946 0.285
vn 0.427 0.891 0.152
vn 0.549 0.833 0.061
vn 0.635 0.748 -0.194
vn 0.608 0.681 -0.408
vn 0.432 0.590 -0.682
vn 0.291 0.528 -0.798
usemtl tex_621_lit_env
f 1/1/1 2/2/2 3/3/3
f 1/1/1 3/3/3 4/4/4
f 5/5/5 1/1/1 4/4/4
f 5/5/5 4/4/4 6/6/6
f 7/7/7 8/7/8 9/8/9
f 7/7/7 9/8/9 10/9/10
f 4/4/4 3/3/3 11/3/11
f 4/4/4 11/3/11 12/4/12
f 6/6/6 4/4/4 12/4/12
f 6/6/6 12/4/12 13/6/13
f 14/10/14 7/7/7 10/9/10
f 14/10/14 10/9/10 15/11/15
f 12/4/12 11/3/11 16/12/16
f 17/4/17 18/12/18 19/13/19
f 20/6/20 17/4/17 19/13/19
f 20/6/20 19/13/19 21/14/21
f 19/13/19 18/12/18 22/12/22
f 19/13/19 22/12/22 23/13/23
f 19/13/19 23/13/23 24/14/24
f 21/14/21 19/13/19 24/14/24
f 23/13/23 22/12/22 25/12/25
f 23/13/23 25/12/25 26/13/26
f 24/14/24 23/13/23 26/13/26
f 24/14/24 26/13/26 27/14/27
f 28/15/28 29/16/29 30/10/30
f 28/15/28 30/10/30 31/15/31
f 26/13/26 25/12/25 32/17/32
f 33/13/33 34/17/34 35/18/35
f 36/14/36 33/13/33 35/18/35
f 36/14/36 35/18/35 37/19/37
f 38/15/38 39/16/39 40/16/40
f 38/15/38 40/16/40 41/15/41
f 34/17/34 42/17/42 43/18/43
f 35/18/35 34/17/34 43/18/43
f 37/19/37 35/18/35 43/18/43
f 37/19/37 43/18/43 44/19/44
f 42/17/42 45/2/45 46/1/46
f 43/18/43 42/17/42 46/1/46
f 44/19/44 43/18/43 46/1/46
f 44/19/44 46/1/46 47/5/47
f 48/20/48 49/5/49 50/6/50
f 48/20/48 50/6/50 51/21/51
f 51/21/51 50/6/50 52/6/52
f 51/21/51 52/6/52 53/21/53
f 53/21/53 52/6/52 54/14/54
f 53/21/53 54/14/54 55/22/55
f 55/22/55 54/14/54 56/14/56
f 55/22/55 56/14/56 57/22/57
f 57/22/57 56/14/56 58/14/58
f 57/22/57 58/14/58 59/22/59
f 59/22/59 58/14/58 60/19/60
f 59/22/59 60/19/60 61/23/61
f 61/23/61 60/19/60 62/19/62
f 61/23/61 62/19/62 63/23/63
f 63/23/63 62/19/62 49/5/49
f 63/23/63 49/5/49 48/20/48
f 64/24/64 65/8/65 66/8/66
f 64/24/64 66/8/66 67/7/67
f 68/10/68 69/11/69 70/11/70
f 68/10/68 70/11/70 71/10/71
f 71/10/71 70/11/70 72/15/72
f 71/10/71 72/15/72 73/10/73
f 74/16/74 75/15/75 65/8/65
f 74/16/74 65/8/65 64/24/64
f 76/17/76 74/16/74 77/2/77
f 74/16/74 64/24/64 77/2/77
f 78/17/78 79/16/79 76/17/76
f 79/16/79 74/16/74 76/17/76
f 80/12/80 81/16/81 82/17/82
f 80/12/80 83/10/83 81/16/81
f 84/12/84 83/10/83 80/12/80
f 84/12/84 85/10/85 83/10/83
f 86/12/86 85/10/85 84/12/84
f 86/12/86 87/10/87 85/10/85
f 88/3/88 87/10/87 86/12/86
f 88/3/88 89/7/89 87/10/87
f 90/3/90 89/7/89 88/3/88
f 90/3/90 91/7/91 89/7/89
f 92/2/92 91/7/91 90/3/90
f 92/2/92 93/24/93 91/7/91
f 94/25/94 95/26/95 96/27/96
f 94/25/94 96/27/96 97/28/97
f 97/28/97 96/27/96 98/29/98
f 97/28/97 98/29/98 99/30/99
f 99/30/99 98/29/98 100/31/100
f 99/30/99 100/31/100 101/32/101
f 102/33/102 103/34/103 104/31/104
f 102/33/102 104/31/104 105/32/105
f 105/32/105 104/31/104 106/29/106
f 105/32/105 106/29/106 107/30/107
f 107/30/107 106/29/106 108/27/108
f 107/30/107 108/27/108 109/28/109
f 109/28/109 108/27/108 95/26/95
f 109/28/109 95/26/95 94/25/94
f 101/32/101 100/31/100 103/34/103
f 101/32/101 103/34/103 102/33/102
f 110/25/110 111/28/111 112/35/112
f 110/25/110 112/35/112 113/36/113
f 111/28/111 114/30/114 115/37/115
f 111/28/111 115/37/115 112/35/112
f 115/37/115 114/30/114 116/32/116
f 115/37/115 116/32/116 117/38/117
f 117/38/117 116/32/116 118/33/118
f 117/38/117 118/33/118 119/39/119
f 119/39/119 118/33/118 120/32/120
f 119/39/119 120/32/120 121/38/121
f 120/32/120 122/30/122 123/37/123
f 120/32/120 123/37/123 121/38/121
f 123/37/123 122/30/122 124/28/124
f 123/37/123 124/28/124 125/35/125
f 125/35/125 124/28/124 110/25/110
f 125/35/125 110/25/110 113/36/113
f 126/40/126 127/36/127 128/35/128
f 126/40/126 128/35/128 129/41/129
f 129/41/129 128/35/128 130/37/130
f 129/41/129 130/37/130 131/42/131
f 131/42/131 130/37/130 132/38/132
f 131/42/131 132/38/132 133/43/133
f 133/43/133 132/38/132 134/39/134
f 133/43/133 134/39/134 135/44/135
f 135/44/135 134/39/134 136/38/136
f 135/44/135 136/38/136 137/43/137
f 136/38/136 138/37/138 139/42/139
f 136/38/136 139/42/139 137/43/137
f 139/42/139 138/37/138 140/35/140
f 139/42/139 140/35/140 141/41/141
f 141/41/141 140/35/140 127/36/127
f 141/41/141 127/36/127 126/40/126
f 142/40/142 143/41/143 144/45/144
f 142/40/142 144/45/144 145/46/145
f 144/45/144 143/41/143 146/42/146
f 144/45/144 146/42/146 147/47/147
f 147/47/147 146/42/146 148/43/148
f 147/47/147 148/43/148 149/48/149
f 149/48/149 148/43/148 150/44/150
f 149/48/149 150/44/150 151/49/151
f 151/49/151 150/44/150 152/43/152
f 151/49/151 152/43/152 153/50/153
f 153/50/153 152/43/152 154/42/154
f 153/50/153 154/42/154 155/51/155
f 155/51/155 154/42/154 156/41/156
f 155/51/155 156/41/156 157/52/157
f 157/52/157 156/41/156 142/40/142
f 157/52/157 142/40/142 145/46/145
f 158/52/158 159/46/159 160/53/160
f 158/52/158 160/53/160 161/54/161
f 162/50/162 163/51/163 164/55/164
f 162/50/162 164/55/164 165/56/165
f 166/49/166 162/50/162 165/56/165
f 166/49/166 165/56/165 167/57/167
f 166/49/166 167/57/167 168/58/168
f 169/48/169 166/49/166 168/58/168
f 159/46/159 170/45/170 171/59/171
f 159/46/159 171/59/171 160/53/160
f 172/60/172 171/59/171 170/45/170
f 172/60/172 170/45/170 173/47/173
f 168/58/168 172/60/172 173/47/173
f 168/58/168 173/47/173 169/48/169
f 161/54/161 164/55/164 163/51/163
f 161/54/161 163/51/163 158/52/158
usemtl tex_661_lit_env
f 174/61/174 175/62/175 176/63/176
f 176/63/176 177/64/177 178/64/178
f 177/64/177 179/64/179 180/64/180
f 177/64/177 180/64/180 178/64/178
f 181/65/181 175/62/175 174/61/174
f 181/65/181 174/61/174 182/61/182
f 183/29/183 184/29/184 185/29/185
f 183/29/183 185/29/185 186/29/186
f 187/66/187 188/66/188 189/67/189
f 190/68/190 191/67/191 192/69/192
f 193/69/193 194/70/194 195/70/195
f 196/70/196 197/70/197 198/70/198
f 195/70/195 199/68/199 197/70/197
f 196/70/196 200/69/200 193/69/193
usemtl tex_622_lit_env_ds
f 201/71/201 202/72/202 203/73/203
f 201/71/201 203/73/203 204/74/204
f 204/74/204 203/73/203 205/75/205
f 206/75/206 207/76/207 208/74/208
f 208/74/208 207/76/207 209/77/209
f 208/74/208 209/77/209 210/78/210
f 210/78/210 211/79/211 212/71/212
f 210/78/210 212/71/212 208/74/208
f 213/72/213 212/71/212 214/80/214
f 211/79/211 215/81/215 214/80/214
f 214/80/214 212/71/212 211/79/211
f 216/82/216 217/83/217 218/84/218
f 219/85/219 220/86/220 221/87/221
f 222/81/222 223/79/223 224/88/224
f 222/81/222 224/88/224 225/89/225
f 222/81/222 225/89/225 226/82/226
f 226/82/226 227/84/227 222/81/222
f 228/90/228 229/78/229 230/77/230
f 231/87/231 230/77/230 232/85/232
f 230/77/230 231/87/231 233/91/233
f 234/86/234 232/85/232 235/92/235
f 227/84/227 236/83/236 237/93/237
f 233/91/233 228/90/228 230/77/230
f 224/88/224 223/79/223 228/90/228
f 238/94/238 239/89/239 240/91/240
f 241/82/241 239/89/239 238/94/238
f 242/86/242 238/94/238 243/87/243
f 244/95/244 238/94/238 242/86/242
f 244/95/244 241/82/241 238/94/238
f 245/83/245 241/82/241 244/95/244
f 246/96/246 247/97/247 248/92/248
f 249/98/249 247/97/247 246/96/246
f 249/98/249 250/93/250 247/97/247
f 251/99/251 250/93/250 249/98/249
f 252/100/252 249/98/249 246/96/246
f 252/100/252 251/99/251 249/98/249
f 247/97/247 250/93/250 245/83/245
f 247/97/247 245/83/245 244/95/244
f 248/92/248 247/97/247 244/95/244
f 248/92/248 244/95/244 242/86/242
f 253/88/253 254/90/254 255/91/255
f 253/88/253 255/91/255 256/89/256
f 254/90/254 257/79/257 258/78/258
f 259/94/259 255/91/255 260/87/260
usemtl tex_1608_lit_ds
f 261/101/261 262/102/262 263/103/263
f 261/101/261 263/103/263 264/104/264
f 264/104/264 263/103/263 265/105/265
f 264/104/264 265/105/265 266/106/266
f 266/106/266 265/105/265 267/107/267
f 266/106/266 267/107/267 268/108/268
f 268/108/268 267/107/267 269/109/269
f 268/108/268 269/109/269 270/110/270
f 270/110/270 269/109/269 271/111/271
f 270/110/270 271/111/271 272/112/272
f 272/112/272 271/111/271 273/113/273
f 272/112/272 273/113/273 274/114/274
f 274/114/274 273/113/273 275/115/275
f 274/114/274 275/115/275 276/116/276
f 276/116/276 275/115/275 262/102/262
usemtl tex_1608_lit_ds_ovl
f 276/116/276 262/102/262 261/101/261
usemtl tex_1608_lit_ds
f 277/117/277 278/101/278 279/104/279
f 277/117/277 279/104/279 280/118/280
f 280/118/280 279/104/279 281/106/281
f 280/118/280 281/106/281 282/119/282
f 282/119/282 281/106/281 283/108/283
f 282/119/282 283/108/283 284/120/284
f 284/120/284 283/108/283 285/110/285
f 284/120/284 285/110/285 286/121/286
f 286/121/286 285/110/285 287/112/287
f 286/121/286 287/112/287 288/122/288
f 288/122/288 287/112/287 289/114/289
f 288/122/288 289/114/289 290/123/290
f 290/123/290 289/114/289 291/116/291
f 290/123/290 291/116/291 292/124/292
f 292/124/292 291/116/291 278/101/278
f 292/124/292 278/101/278 277/117/277
