mtllib GfistZ.mtl
v -23.0 -26.0 208.0 1.000 1.000 1.000
v -16.0 -25.0 200.0 1.000 1.000 1.000
v -18.0 -23.0 200.0 1.000 1.000 1.000
v -17.0 -37.0 201.0 1.000 1.000 1.000
v -24.0 -34.0 209.0 1.000 1.000 1.000
v -20.0 -39.0 202.0 1.000 1.000 1.000
v -14.0 -31.0 201.0 1.000 1.000 1.000
v -20.0 -43.0 181.0 1.000 1.000 1.000
v -13.0 -39.0 181.0 1.000 1.000 1.000
v -10.0 -34.0 181.0 1.000 1.000 1.000
v -12.0 -28.0 180.0 1.000 1.000 1.000
v -17.0 -25.0 180.0 1.000 1.000 1.000
v -10.0 -42.0 163.0 1.000 1.000 1.000
v -15.0 -45.0 164.0 1.000 1.000 1.000
v -7.0 -35.0 162.0 1.000 1.000 1.000
v -11.0 -28.0 161.0 1.000 1.000 1.000
v -16.0 -25.0 162.0 1.000 1.000 1.000
v -12.0 -28.0 180.0 1.000 1.000 1.000
v -11.0 -28.0 161.0 1.000 1.000 1.000
v -17.0 -25.0 180.0 1.000 1.000 1.000
v -9.0 -45.0 134.0 1.000 1.000 1.000
v -15.0 -45.0 164.0 1.000 1.000 1.000
v -15.0 -50.0 135.0 1.000 1.000 1.000
v -10.0 -42.0 163.0 1.000 1.000 1.000
v -7.0 -38.0 133.0 1.000 1.000 1.000
v -7.0 -35.0 162.0 1.000 1.000 1.000
v -10.0 -32.0 133.0 1.000 1.000 1.000
v -18.0 -27.0 135.0 1.000 1.000 1.000
v -23.0 -33.0 136.0 1.000 1.000 1.000
v -16.0 -25.0 162.0 1.000 1.000 1.000
v -18.0 -27.0 135.0 1.000 1.000 1.000
v -23.0 -28.0 162.0 1.000 1.000 1.000
v -16.0 -25.0 162.0 1.000 1.000 1.000
v -23.0 -33.0 136.0 1.000 1.000 1.000
v -28.0 -40.0 139.0 1.000 1.000 1.000
v -26.0 -36.0 163.0 1.000 1.000 1.000
v -22.0 -46.0 137.0 1.000 1.000 1.000
v -22.0 -43.0 164.0 1.000 1.000 1.000
v -15.0 -50.0 135.0 1.000 1.000 1.000
v -15.0 -45.0 164.0 1.000 1.000 1.000
v -23.0 -28.0 162.0 1.000 1.000 1.000
v -17.0 -25.0 180.0 1.000 1.000 1.000
v -16.0 -25.0 162.0 1.000 1.000 1.000
v -23.0 -27.0 183.0 1.000 1.000 1.000
v -26.0 -36.0 163.0 1.000 1.000 1.000
v -25.0 -32.0 183.0 1.000 1.000 1.000
v -22.0 -43.0 164.0 1.000 1.000 1.000
v -24.0 -38.0 178.0 1.000 1.000 1.000
v -25.0 -32.0 183.0 1.000 1.000 1.000
v -22.0 -43.0 164.0 1.000 1.000 1.000
v -15.0 -45.0 164.0 1.000 1.000 1.000
v -20.0 -43.0 181.0 1.000 1.000 1.000
v -24.0 -25.0 200.0 1.000 1.000 1.000
v -24.0 -34.0 209.0 1.000 1.000 1.000
v -23.0 -26.0 208.0 1.000 1.000 1.000
v -25.0 -30.0 200.0 1.000 1.000 1.000
v -25.0 -36.0 201.0 1.000 1.000 1.000
v -18.0 -23.0 200.0 1.000 1.000 1.000
v -20.0 -39.0 202.0 1.000 1.000 1.000
v -17.0 -25.0 180.0 1.000 1.000 1.000
v -23.0 -27.0 183.0 1.000 1.000 1.000
v -25.0 -32.0 183.0 1.000 1.000 1.000
v -24.0 -38.0 178.0 1.000 1.000 1.000
v -20.0 -39.0 202.0 1.000 1.000 1.000
v -24.0 -38.0 178.0 1.000 1.000 1.000
v -20.0 -43.0 181.0 1.000 1.000 1.000
v -23.0 11.0 243.0 1.000 1.000 1.000
v -17.0 13.0 236.0 1.000 1.000 1.000
v -20.0 16.0 236.0 1.000 1.000 1.000
v -18.0 0.0 235.0 1.000 1.000 1.000
v -23.0 2.0 242.0 1.000 1.000 1.000
v -21.0 -2.0 235.0 1.000 1.000 1.000
v -15.0 7.0 235.0 1.000 1.000 1.000
v -23.0 -2.0 212.0 1.000 1.000 1.000
v -16.0 2.0 213.0 1.000 1.000 1.000
v -13.0 10.0 214.0 1.000 1.000 1.000
v -16.0 15.0 214.0 1.000 1.000 1.000
v -22.0 18.0 214.0 1.000 1.000 1.000
v -15.0 3.0 178.0 1.000 1.000 1.000
v -23.0 -1.0 178.0 1.000 1.000 1.000
v -12.0 10.0 180.0 1.000 1.000 1.000
v -16.0 18.0 180.0 1.000 1.000 1.000
v -24.0 22.0 179.0 1.000 1.000 1.000
v -16.0 15.0 214.0 1.000 1.000 1.000
v -16.0 18.0 180.0 1.000 1.000 1.000
v -22.0 18.0 214.0 1.000 1.000 1.000
v -16.0 4.0 149.0 1.000 1.000 1.000
v -23.0 -1.0 178.0 1.000 1.000 1.000
v -24.0 -2.0 148.0 1.000 1.000 1.000
v -15.0 3.0 178.0 1.000 1.000 1.000
v -13.0 12.0 149.0 1.000 1.000 1.000
v -12.0 10.0 180.0 1.000 1.000 1.000
v -17.0 19.0 149.0 1.000 1.000 1.000
v -24.0 25.0 148.0 1.000 1.000 1.000
v -34.0 18.0 150.0 1.000 1.000 1.000
v -24.0 22.0 179.0 1.000 1.000 1.000
v -24.0 25.0 148.0 1.000 1.000 1.000
v -32.0 18.0 179.0 1.000 1.000 1.000
v -39.0 11.0 151.0 1.000 1.000 1.000
v -32.0 18.0 179.0 1.000 1.000 1.000
v -34.0 18.0 150.0 1.000 1.000 1.000
v -35.0 10.0 178.0 1.000 1.000 1.000
v -33.0 4.0 150.0 1.000 1.000 1.000
v -31.0 2.0 178.0 1.000 1.000 1.000
v -24.0 -2.0 148.0 1.000 1.000 1.000
v -23.0 -1.0 178.0 1.000 1.000 1.000
v -32.0 18.0 179.0 1.000 1.000 1.000
v -22.0 18.0 214.0 1.000 1.000 1.000
v -24.0 22.0 179.0 1.000 1.000 1.000
v -29.0 15.0 213.0 1.000 1.000 1.000
v -35.0 10.0 178.0 1.000 1.000 1.000
v -30.0 9.0 212.0 1.000 1.000 1.000
v -31.0 2.0 178.0 1.000 1.000 1.000
v -29.0 2.0 212.0 1.000 1.000 1.000
v -23.0 -1.0 178.0 1.000 1.000 1.000
v -29.0 2.0 212.0 1.000 1.000 1.000
v -31.0 2.0 178.0 1.000 1.000 1.000
v -23.0 -2.0 212.0 1.000 1.000 1.000
v -27.0 13.0 236.0 1.000 1.000 1.000
v -23.0 2.0 242.0 1.000 1.000 1.000
v -23.0 11.0 243.0 1.000 1.000 1.000
v -28.0 7.0 236.0 1.000 1.000 1.000
v -27.0 1.0 235.0 1.000 1.000 1.000
v -20.0 16.0 236.0 1.000 1.000 1.000
v -21.0 -2.0 235.0 1.000 1.000 1.000
v -22.0 18.0 214.0 1.000 1.000 1.000
v -29.0 15.0 213.0 1.000 1.000 1.000
v -30.0 9.0 212.0 1.000 1.000 1.000
v -29.0 2.0 212.0 1.000 1.000 1.000
v -23.0 -2.0 212.0 1.000 1.000 1.000
v -26.0 30.0 236.0 1.000 1.000 1.000
v -19.0 33.0 229.0 1.000 1.000 1.000
v -22.0 36.0 229.0 1.000 1.000 1.000
v -18.0 21.0 227.0 1.000 1.000 1.000
v -26.0 21.0 235.0 1.000 1.000 1.000
v -21.0 18.0 227.0 1.000 1.000 1.000
v -16.0 27.0 228.0 1.000 1.000 1.000
v -22.0 20.0 204.0 1.000 1.000 1.000
v -17.0 24.0 204.0 1.000 1.000 1.000
v -14.0 30.0 205.0 1.000 1.000 1.000
v -17.0 37.0 206.0 1.000 1.000 1.000
v -23.0 39.0 207.0 1.000 1.000 1.000
v -16.0 25.0 175.0 1.000 1.000 1.000
v -24.0 22.0 174.0 1.000 1.000 1.000
v -12.0 33.0 176.0 1.000 1.000 1.000
v -16.0 41.0 177.0 1.000 1.000 1.000
v -24.0 45.0 178.0 1.000 1.000 1.000
v -17.0 37.0 206.0 1.000 1.000 1.000
v -16.0 41.0 177.0 1.000 1.000 1.000
v -23.0 39.0 207.0 1.000 1.000 1.000
v -14.0 32.0 149.0 1.000 1.000 1.000
v -24.0 22.0 174.0 1.000 1.000 1.000
v -24.0 25.0 148.0 1.000 1.000 1.000
v -16.0 25.0 175.0 1.000 1.000 1.000
v -11.0 39.0 150.0 1.000 1.000 1.000
v -12.0 33.0 176.0 1.000 1.000 1.000
v -14.0 46.0 150.0 1.000 1.000 1.000
v -21.0 49.0 150.0 1.000 1.000 1.000
v -28.0 47.0 149.0 1.000 1.000 1.000
v -24.0 45.0 178.0 1.000 1.000 1.000
v -21.0 49.0 150.0 1.000 1.000 1.000
v -32.0 42.0 178.0 1.000 1.000 1.000
v -34.0 40.0 148.0 1.000 1.000 1.000
v -32.0 42.0 178.0 1.000 1.000 1.000
v -28.0 47.0 149.0 1.000 1.000 1.000
v -34.0 34.0 176.0 1.000 1.000 1.000
v -29.0 32.0 148.0 1.000 1.000 1.000
v -32.0 26.0 175.0 1.000 1.000 1.000
v -24.0 25.0 148.0 1.000 1.000 1.000
v -24.0 22.0 174.0 1.000 1.000 1.000
v -32.0 42.0 178.0 1.000 1.000 1.000
v -23.0 39.0 207.0 1.000 1.000 1.000
v -24.0 45.0 178.0 1.000 1.000 1.000
v -29.0 36.0 206.0 1.000 1.000 1.000
v -34.0 34.0 176.0 1.000 1.000 1.000
v -29.0 30.0 206.0 1.000 1.000 1.000
v -32.0 26.0 175.0 1.000 1.000 1.000
v -28.0 23.0 204.0 1.000 1.000 1.000
v -24.0 22.0 174.0 1.000 1.000 1.000
v -28.0 23.0 204.0 1.000 1.000 1.000
v -32.0 26.0 175.0 1.000 1.000 1.000
v -22.0 20.0 204.0 1.000 1.000 1.000
v -28.0 33.0 229.0 1.000 1.000 1.000
v -26.0 21.0 235.0 1.000 1.000 1.000
v -26.0 30.0 236.0 1.000 1.000 1.000
v -28.0 27.0 228.0 1.000 1.000 1.000
v -27.0 20.0 227.0 1.000 1.000 1.000
v -22.0 36.0 229.0 1.000 1.000 1.000
v -21.0 18.0 227.0 1.000 1.000 1.000
v -23.0 39.0 207.0 1.000 1.000 1.000
v -29.0 36.0 206.0 1.000 1.000 1.000
v -29.0 30.0 206.0 1.000 1.000 1.000
v -28.0 23.0 204.0 1.000 1.000 1.000
v -22.0 20.0 204.0 1.000 1.000 1.000
v -24.0 -7.0 230.0 1.000 1.000 1.000
v -17.0 -6.0 222.0 1.000 1.000 1.000
v -20.0 -3.0 223.0 1.000 1.000 1.000
v -18.0 -19.0 222.0 1.000 1.000 1.000
v -25.0 -17.0 230.0 1.000 1.000 1.000
v -21.0 -21.0 222.0 1.000 1.000 1.000
v -15.0 -12.0 222.0 1.000 1.000 1.000
v -22.0 -22.0 198.0 1.000 1.000 1.000
v -15.0 -19.0 197.0 1.000 1.000 1.000
v -12.0 -12.0 197.0 1.000 1.000 1.000
v -14.0 -6.0 197.0 1.000 1.000 1.000
v -21.0 -3.0 198.0 1.000 1.000 1.000
v -14.0 -21.0 172.0 1.000 1.000 1.000
v -22.0 -24.0 173.0 1.000 1.000 1.000
v -11.0 -12.0 172.0 1.000 1.000 1.000
v -14.0 -4.0 172.0 1.000 1.000 1.000
v -23.0 -1.0 173.0 1.000 1.000 1.000
v -14.0 -6.0 197.0 1.000 1.000 1.000
v -14.0 -4.0 172.0 1.000 1.000 1.000
v -21.0 -3.0 198.0 1.000 1.000 1.000
v -16.0 -23.0 147.0 1.000 1.000 1.000
v -22.0 -24.0 173.0 1.000 1.000 1.000
v -20.0 -26.0 149.0 1.000 1.000 1.000
v -14.0 -21.0 173.0 1.000 1.000 1.000
v -13.0 -15.0 146.0 1.000 1.000 1.000
v -11.0 -12.0 172.0 1.000 1.000 1.000
v -17.0 -8.0 146.0 1.000 1.000 1.000
v -24.0 -2.0 148.0 1.000 1.000 1.000
v -28.0 -9.0 151.0 1.000 1.000 1.000
v -23.0 -1.0 173.0 1.000 1.000 1.000
v -24.0 -2.0 148.0 1.000 1.000 1.000
v -31.0 -5.0 173.0 1.000 1.000 1.000
v -32.0 -16.0 153.0 1.000 1.000 1.000
v -31.0 -5.0 173.0 1.000 1.000 1.000
v -28.0 -9.0 151.0 1.000 1.000 1.000
v -33.0 -13.0 174.0 1.000 1.000 1.000
v -27.0 -23.0 151.0 1.000 1.000 1.000
v -30.0 -21.0 173.0 1.000 1.000 1.000
v -20.0 -26.0 149.0 1.000 1.000 1.000
v -22.0 -24.0 173.0 1.000 1.000 1.000
v -31.0 -5.0 173.0 1.000 1.000 1.000
v -21.0 -3.0 198.0 1.000 1.000 1.000
v -23.0 -1.0 173.0 1.000 1.000 1.000
v -27.0 -5.0 198.0 1.000 1.000 1.000
v -33.0 -13.0 174.0 1.000 1.000 1.000
v -29.0 -11.0 198.0 1.000 1.000 1.000
v -30.0 -21.0 173.0 1.000 1.000 1.000
v -28.0 -18.0 198.0 1.000 1.000 1.000
v -22.0 -24.0 173.0 1.000 1.000 1.000
v -28.0 -18.0 198.0 1.000 1.000 1.000
v -30.0 -21.0 173.0 1.000 1.000 1.000
v -22.0 -22.0 198.0 1.000 1.000 1.000
v -26.0 -5.0 223.0 1.000 1.000 1.000
v -25.0 -17.0 230.0 1.000 1.000 1.000
v -24.0 -7.0 230.0 1.000 1.000 1.000
v -27.0 -12.0 223.0 1.000 1.000 1.000
v -27.0 -18.0 223.0 1.000 1.000 1.000
v -20.0 -3.0 223.0 1.000 1.000 1.000
v -21.0 -21.0 222.0 1.000 1.000 1.000
v -21.0 -3.0 198.0 1.000 1.000 1.000
v -27.0 -5.0 198.0 1.000 1.000 1.000
v -29.0 -11.0 198.0 1.000 1.000 1.000
v -28.0 -18.0 198.0 1.000 1.000 1.000
v -22.0 -22.0 198.0 1.000 1.000 1.000
v -15.0 -50.0 135.0 1.000 1.000 1.000
v -20.0 -53.0 120.0 1.000 1.000 1.000
v -12.0 -49.0 125.0 1.000 1.000 1.000
v -9.0 -45.0 134.0 1.000 1.000 1.000
v -8.0 -41.0 129.0 1.000 1.000 1.000
v -7.0 -38.0 133.0 1.000 1.000 1.000
v -9.0 -29.0 125.0 1.000 1.000 1.000
v -10.0 -32.0 133.0 1.000 1.000 1.000
v -18.0 -27.0 135.0 1.000 1.000 1.000
v -11.0 -18.0 139.0 1.000 1.000 1.000
v -13.0 -15.0 146.0 1.000 1.000 1.000
v -16.0 -23.0 147.0 1.000 1.000 1.000
v -17.0 -8.0 146.0 1.000 1.000 1.000
v -13.0 -1.0 137.0 1.000 1.000 1.000
v -24.0 -2.0 148.0 1.000 1.000 1.000
v -16.0 4.0 149.0 1.000 1.000 1.000
v -13.0 12.0 149.0 1.000 1.000 1.000
v -16.0 4.0 149.0 1.000 1.000 1.000
v -13.0 -1.0 137.0 1.000 1.000 1.000
v -11.0 10.0 142.0 1.000 1.000 1.000
v -10.0 27.0 144.0 1.000 1.000 1.000
v -17.0 19.0 149.0 1.000 1.000 1.000
v -24.0 25.0 148.0 1.000 1.000 1.000
v -14.0 32.0 149.0 1.000 1.000 1.000
v -14.0 45.0 135.0 1.000 1.000 1.000
v -11.0 39.0 150.0 1.000 1.000 1.000
v -14.0 46.0 150.0 1.000 1.000 1.000
v -14.0 45.0 135.0 1.000 1.000 1.000
v -14.0 46.0 150.0 1.000 1.000 1.000
v -21.0 49.0 150.0 1.000 1.000 1.000
v -18.0 -27.0 135.0 1.000 1.000 1.000
v -11.0 -18.0 139.0 1.000 1.000 1.000
v -16.0 -23.0 147.0 1.000 1.000 1.000
v -20.0 -26.0 149.0 1.000 1.000 1.000
v -14.0 45.0 135.0 1.000 1.000 1.000
v -8.0 12.0 94.0 1.000 1.000 1.000
v -12.0 45.0 111.0 1.000 1.000 1.000
v 11.0 -22.0 74.0 1.000 1.000 1.000
v 4.0 -9.0 71.0 1.000 1.000 1.000
v -9.0 -17.0 90.0 1.000 1.000 1.000
v -6.0 -29.0 90.0 1.000 1.000 1.000
v -12.0 45.0 111.0 1.000 1.000 1.000
v -8.0 12.0 94.0 1.000 1.000 1.000
v -4.0 39.0 116.0 1.000 1.000 1.000
v -31.0 -28.0 123.0 1.000 1.000 1.000
v -23.0 -33.0 136.0 1.000 1.000 1.000
v -18.0 -27.0 135.0 1.000 1.000 1.000
v -35.0 -40.0 127.0 1.000 1.000 1.000
v -28.0 -40.0 139.0 1.000 1.000 1.000
v -30.0 -28.0 88.0 1.000 1.000 1.000
v -39.0 -16.0 138.0 1.000 1.000 1.000
v -34.0 -4.0 131.0 1.000 1.000 1.000
v -32.0 -4.0 88.0 1.000 1.000 1.000
v -32.0 -16.0 153.0 1.000 1.000 1.000
v -28.0 -9.0 151.0 1.000 1.000 1.000
v -24.0 -2.0 148.0 1.000 1.000 1.000
v -34.0 18.0 150.0 1.000 1.000 1.000
v -24.0 25.0 149.0 1.000 1.000 1.000
v -32.0 28.0 131.0 1.000 1.000 1.000
v -31.0 28.0 88.0 1.000 1.000 1.000
v -41.0 13.0 138.0 1.000 1.000 1.000
v -32.0 28.0 131.0 1.000 1.000 1.000
v 4.0 -9.0 71.0 1.000 1.000 1.000
v -8.0 12.0 94.0 1.000 1.000 1.000
v -4.0 2.0 92.0 1.000 1.000 1.000
v -8.0 12.0 94.0 1.000 1.000 1.000
v -14.0 45.0 135.0 1.000 1.000 1.000
v -10.0 27.0 144.0 1.000 1.000 1.000
v -11.0 10.0 142.0 1.000 1.000 1.000
v -8.0 -1.0 90.0 1.000 1.000 1.000
v -13.0 -1.0 137.0 1.000 1.000 1.000
v -11.0 -18.0 139.0 1.000 1.000 1.000
v -4.0 2.0 92.0 1.000 1.000 1.000
v -9.0 -17.0 90.0 1.000 1.000 1.000
v -6.0 -29.0 90.0 1.000 1.000 1.000
v -9.0 -17.0 90.0 1.000 1.000 1.000
v -9.0 -29.0 125.0 1.000 1.000 1.000
v -11.0 -18.0 139.0 1.000 1.000 1.000
v -28.0 -4.0 71.0 1.000 1.000 1.000
v -23.0 -7.0 47.0 1.000 1.000 1.000
v -25.0 -28.0 71.0 1.000 1.000 1.000
v -26.0 28.0 71.0 1.000 1.000 1.000
v -14.0 39.0 49.0 1.000 1.000 1.000
v -19.0 28.0 47.0 1.000 1.000 1.000
v -21.0 48.0 71.0 1.000 1.000 1.000
v -12.0 51.0 72.0 1.000 1.000 1.000
v -4.0 39.0 49.0 1.000 1.000 1.000
v -1.0 51.0 72.0 1.000 1.000 1.000
v -4.0 39.0 49.0 1.000 1.000 1.000
v -12.0 51.0 72.0 1.000 1.000 1.000
v -4.0 39.0 49.0 1.000 1.000 1.000
v -1.0 51.0 72.0 1.000 1.000 1.000
v 10.0 44.0 62.0 1.000 1.000 1.000
v 18.0 32.0 50.0 1.000 1.000 1.000
v 18.0 32.0 50.0 1.000 1.000 1.000
v 22.0 26.0 63.0 1.000 1.000 1.000
v 24.0 6.0 50.0 1.000 1.000 1.000
v 10.0 44.0 62.0 1.000 1.000 1.000
v 4.0 -9.0 71.0 1.000 1.000 1.000
v 21.0 -16.0 48.0 1.000 1.000 1.000
v 11.0 -22.0 74.0 1.000 1.000 1.000
v 4.0 -38.0 72.0 1.000 1.000 1.000
v 5.0 -39.0 49.0 1.000 1.000 1.000
v -6.0 -46.0 73.0 1.000 1.000 1.000
v -4.0 -41.0 49.0 1.000 1.000 1.000
v -14.0 -46.0 72.0 1.000 1.000 1.000
v -14.0 -46.0 72.0 1.000 1.000 1.000
v -16.0 -39.0 47.0 1.000 1.000 1.000
v -4.0 -41.0 49.0 1.000 1.000 1.000
v -14.0 -46.0 72.0 1.000 1.000 1.000
v -22.0 -46.0 71.0 1.000 1.000 1.000
v -16.0 -39.0 47.0 1.000 1.000 1.000
v -20.0 -28.0 47.0 1.000 1.000 1.000
v -25.0 -28.0 71.0 1.000 1.000 1.000
v -23.0 -7.0 47.0 1.000 1.000 1.000
v -19.0 28.0 47.0 1.000 1.000 1.000
v -22.0 10.0 47.0 1.000 1.000 1.000
v -26.0 28.0 71.0 1.000 1.000 1.000
v -28.0 -4.0 71.0 1.000 1.000 1.000
v -14.0 45.0 135.0 1.000 1.000 1.000
v -21.0 49.0 150.0 1.000 1.000 1.000
v -14.0 46.0 150.0 1.000 1.000 1.000
v -14.0 45.0 135.0 1.000 1.000 1.000
v -12.0 45.0 111.0 1.000 1.000 1.000
v -21.0 49.0 150.0 1.000 1.000 1.000
v -12.0 45.0 111.0 1.000 1.000 1.000
v -27.0 52.0 131.0 1.000 1.000 1.000
v -21.0 49.0 150.0 1.000 1.000 1.000
v -20.0 -53.0 120.0 1.000 1.000 1.000
v -15.0 -50.0 135.0 1.000 1.000 1.000
v -22.0 -46.0 137.0 1.000 1.000 1.000
v -28.0 -48.0 123.0 1.000 1.000 1.000
v -35.0 -40.0 127.0 1.000 1.000 1.000
v -28.0 -40.0 139.0 1.000 1.000 1.000
v -31.0 -28.0 123.0 1.000 1.000 1.000
v -18.0 -27.0 135.0 1.000 1.000 1.000
v -20.0 -26.0 149.0 1.000 1.000 1.000
v -27.0 -23.0 151.0 1.000 1.000 1.000
v -39.0 -16.0 138.0 1.000 1.000 1.000
v -31.0 -28.0 123.0 1.000 1.000 1.000
v -27.0 -23.0 151.0 1.000 1.000 1.000
v -32.0 -16.0 153.0 1.000 1.000 1.000
v -24.0 -2.0 148.0 1.000 1.000 1.000
v -33.0 4.0 150.0 1.000 1.000 1.000
v -34.0 -4.0 131.0 1.000 1.000 1.000
v -24.0 25.0 149.0 1.000 1.000 1.000
v -24.0 25.0 149.0 1.000 1.000 1.000
v -24.0 25.0 149.0 1.000 1.000 1.000
v -32.0 28.0 131.0 1.000 1.000 1.000
v -41.0 13.0 138.0 1.000 1.000 1.000
v -39.0 11.0 151.0 1.000 1.000 1.000
v -34.0 18.0 150.0 1.000 1.000 1.000
v -29.0 32.0 148.0 1.000 1.000 1.000
v -27.0 52.0 131.0 1.000 1.000 1.000
v -28.0 47.0 149.0 1.000 1.000 1.000
v -21.0 49.0 150.0 1.000 1.000 1.000
v -35.0 44.0 139.0 1.000 1.000 1.000
v -32.0 28.0 131.0 1.000 1.000 1.000
v -29.0 32.0 148.0 1.000 1.000 1.000
v -34.0 40.0 148.0 1.000 1.000 1.000
v -31.0 28.0 88.0 1.000 1.000 1.000
v -26.0 28.0 71.0 1.000 1.000 1.000
v -36.0 12.0 87.0 1.000 1.000 1.000
v -30.0 44.0 88.0 1.000 1.000 1.000
v -9.0 -17.0 90.0 1.000 1.000 1.000
v 4.0 -9.0 71.0 1.000 1.000 1.000
v -8.0 -1.0 90.0 1.000 1.000 1.000
v -4.0 2.0 92.0 1.000 1.000 1.000
v 4.0 -9.0 71.0 1.000 1.000 1.000
v 12.0 23.0 92.0 1.000 1.000 1.000
v -8.0 12.0 94.0 1.000 1.000 1.000
v 22.0 26.0 63.0 1.000 1.000 1.000
v 17.0 42.0 93.0 1.000 1.000 1.000
v 8.0 55.0 87.0 1.000 1.000 1.000
v 10.0 44.0 62.0 1.000 1.000 1.000
v 8.0 55.0 87.0 1.000 1.000 1.000
v 10.0 44.0 62.0 1.000 1.000 1.000
v -1.0 57.0 87.0 1.000 1.000 1.000
v -16.0 53.0 95.0 1.000 1.000 1.000
v -1.0 51.0 72.0 1.000 1.000 1.000
v -12.0 51.0 72.0 1.000 1.000 1.000
v -21.0 55.0 89.0 1.000 1.000 1.000
v -20.0 -53.0 120.0 1.000 1.000 1.000
v -19.0 -48.0 89.0 1.000 1.000 1.000
v -11.0 -48.0 89.0 1.000 1.000 1.000
v -12.0 -49.0 125.0 1.000 1.000 1.000
v -7.0 -41.0 90.0 1.000 1.000 1.000
v -8.0 -41.0 129.0 1.000 1.000 1.000
v -6.0 -29.0 90.0 1.000 1.000 1.000
v -9.0 -29.0 125.0 1.000 1.000 1.000
v -19.0 -48.0 89.0 1.000 1.000 1.000
v -14.0 -46.0 72.0 1.000 1.000 1.000
v -6.0 -46.0 73.0 1.000 1.000 1.000
v -11.0 -48.0 89.0 1.000 1.000 1.000
v 4.0 -38.0 72.0 1.000 1.000 1.000
v -7.0 -41.0 90.0 1.000 1.000 1.000
v -6.0 -29.0 90.0 1.000 1.000 1.000
v 11.0 -22.0 74.0 1.000 1.000 1.000
v -18.0 55.0 97.0 1.000 1.000 1.000
v -12.0 45.0 111.0 1.000 1.000 1.000
v -16.0 53.0 95.0 1.000 1.000 1.000
v -21.0 55.0 89.0 1.000 1.000 1.000
v -27.0 52.0 131.0 1.000 1.000 1.000
v -18.0 55.0 97.0 1.000 1.000 1.000
v -21.0 55.0 89.0 1.000 1.000 1.000
v -12.0 45.0 111.0 1.000 1.000 1.000
v -18.0 55.0 97.0 1.000 1.000 1.000
v -35.0 44.0 139.0 1.000 1.000 1.000
v -21.0 55.0 89.0 1.000 1.000 1.000
v -30.0 44.0 88.0 1.000 1.000 1.000
v -31.0 28.0 88.0 1.000 1.000 1.000
v -32.0 28.0 131.0 1.000 1.000 1.000
v -36.0 12.0 87.0 1.000 1.000 1.000
v -41.0 13.0 138.0 1.000 1.000 1.000
v -36.0 12.0 87.0 1.000 1.000 1.000
v -34.0 -4.0 131.0 1.000 1.000 1.000
v -41.0 13.0 138.0 1.000 1.000 1.000
v -32.0 -4.0 88.0 1.000 1.000 1.000
v -33.0 -16.0 87.0 1.000 1.000 1.000
v -39.0 -16.0 138.0 1.000 1.000 1.000
v -31.0 -28.0 123.0 1.000 1.000 1.000
v -30.0 -28.0 88.0 1.000 1.000 1.000
v -31.0 -40.0 88.0 1.000 1.000 1.000
v -35.0 -40.0 127.0 1.000 1.000 1.000
v -28.0 -48.0 123.0 1.000 1.000 1.000
v -27.0 -48.0 88.0 1.000 1.000 1.000
v -20.0 -53.0 120.0 1.000 1.000 1.000
v -19.0 -48.0 89.0 1.000 1.000 1.000
v -14.0 -46.0 72.0 1.000 1.000 1.000
v -22.0 -46.0 71.0 1.000 1.000 1.000
v -31.0 -40.0 88.0 1.000 1.000 1.000
v -25.0 -28.0 71.0 1.000 1.000 1.000
v -22.0 -46.0 71.0 1.000 1.000 1.000
v -30.0 -28.0 88.0 1.000 1.000 1.000
v -33.0 -16.0 87.0 1.000 1.000 1.000
v -32.0 -4.0 88.0 1.000 1.000 1.000
v -28.0 -4.0 71.0 1.000 1.000 1.000
v -36.0 12.0 87.0 1.000 1.000 1.000
v -26.0 28.0 71.0 1.000 1.000 1.000
v -31.0 28.0 88.0 1.000 1.000 1.000
v -30.0 44.0 88.0 1.000 1.000 1.000
v -21.0 55.0 89.0 1.000 1.000 1.000
v -21.0 48.0 71.0 1.000 1.000 1.000
v -12.0 45.0 111.0 1.000 1.000 1.000
v -21.0 55.0 89.0 1.000 1.000 1.000
v -12.0 51.0 72.0 1.000 1.000 1.000
v -4.0 62.0 96.0 1.000 1.000 1.000
v 8.0 55.0 87.0 1.000 1.000 1.000
v -1.0 57.0 87.0 1.000 1.000 1.000
v -11.0 61.0 105.0 1.000 1.000 1.000
v -16.0 53.0 95.0 1.000 1.000 1.000
v -12.0 45.0 111.0 1.000 1.000 1.000
v 4.0 57.0 96.0 1.000 1.000 1.000
v 17.0 42.0 93.0 1.000 1.000 1.000
v 8.0 55.0 87.0 1.000 1.000 1.000
v 4.0 57.0 96.0 1.000 1.000 1.000
v 12.0 47.0 107.0 1.000 1.000 1.000
v 13.0 40.0 110.0 1.000 1.000 1.000
v 12.0 23.0 92.0 1.000 1.000 1.000
v 4.0 37.0 115.0 1.000 1.000 1.000
v -8.0 12.0 94.0 1.000 1.000 1.000
v -4.0 39.0 116.0 1.000 1.000 1.000
v -4.0 39.0 116.0 1.000 1.000 1.000
v -12.0 45.0 111.0 1.000 1.000 1.000
v -12.0 45.0 111.0 1.000 1.000 1.000
v -16.0 53.0 95.0 1.000 1.000 1.000
v -12.0 45.0 111.0 1.000 1.000 1.000
v -12.0 45.0 111.0 1.000 1.000 1.000
v -10.0 64.0 119.0 1.000 1.000 1.000
v -4.0 62.0 96.0 1.000 1.000 1.000
v -13.0 61.0 117.0 1.000 1.000 1.000
v -11.0 61.0 105.0 1.000 1.000 1.000
v -14.0 51.0 122.0 1.000 1.000 1.000
v -6.0 43.0 122.0 1.000 1.000 1.000
v -4.0 39.0 116.0 1.000 1.000 1.000
v -6.0 43.0 122.0 1.000 1.000 1.000
v -4.0 39.0 116.0 1.000 1.000 1.000
v -3.0 40.0 124.0 1.000 1.000 1.000
v -3.0 40.0 124.0 1.000 1.000 1.000
v -4.0 39.0 116.0 1.000 1.000 1.000
v 4.0 37.0 115.0 1.000 1.000 1.000
v 7.0 48.0 124.0 1.000 1.000 1.000
v 13.0 40.0 110.0 1.000 1.000 1.000
v 8.0 55.0 122.0 1.000 1.000 1.000
v 12.0 47.0 107.0 1.000 1.000 1.000
v -2.0 62.0 118.0 1.000 1.000 1.000
v 4.0 57.0 96.0 1.000 1.000 1.000
v -2.0 62.0 118.0 1.000 1.000 1.000
v 4.0 57.0 96.0 1.000 1.000 1.000
v -10.0 64.0 119.0 1.000 1.000 1.000
v -4.0 62.0 96.0 1.000 1.000 1.000
v 7.0 53.0 127.0 1.000 1.000 1.000
v 4.0 57.0 130.0 1.000 1.000 1.000
v -2.0 62.0 118.0 1.000 1.000 1.000
v 1.0 60.0 131.0 1.000 1.000 1.000
v 4.0 57.0 130.0 1.000 1.000 1.000
v -8.0 62.0 132.0 1.000 1.000 1.000
v -10.0 64.0 119.0 1.000 1.000 1.000
v 7.0 48.0 124.0 1.000 1.000 1.000
v 8.0 55.0 122.0 1.000 1.000 1.000
v 7.0 53.0 127.0 1.000 1.000 1.000
v 5.0 48.0 126.0 1.000 1.000 1.000
v -3.0 40.0 124.0 1.000 1.000 1.000
v -14.0 57.0 129.0 1.000 1.000 1.000
v -14.0 51.0 122.0 1.000 1.000 1.000
v -13.0 61.0 117.0 1.000 1.000 1.000
v -5.0 41.0 129.0 1.000 1.000 1.000
v -11.0 45.0 129.0 1.000 1.000 1.000
v -14.0 51.0 122.0 1.000 1.000 1.000
v -14.0 51.0 122.0 1.000 1.000 1.000
v -6.0 43.0 122.0 1.000 1.000 1.000
v -5.0 41.0 129.0 1.000 1.000 1.000
v -6.0 43.0 122.0 1.000 1.000 1.000
v -3.0 40.0 124.0 1.000 1.000 1.000
v -5.0 41.0 129.0 1.000 1.000 1.000
v -5.0 41.0 129.0 1.000 1.000 1.000
v -3.0 40.0 124.0 1.000 1.000 1.000
v 5.0 48.0 126.0 1.000 1.000 1.000
v -14.0 57.0 129.0 1.000 1.000 1.000
v -11.0 45.0 129.0 1.000 1.000 1.000
v 3.0 43.0 156.0 1.000 1.000 1.000
v 7.0 53.0 127.0 1.000 1.000 1.000
v 1.0 50.0 160.0 1.000 1.000 1.000
v 4.0 57.0 130.0 1.000 1.000 1.000
v -5.0 52.0 160.0 1.000 1.000 1.000
v -5.0 52.0 160.0 1.000 1.000 1.000
v 4.0 57.0 130.0 1.000 1.000 1.000
v 1.0 60.0 131.0 1.000 1.000 1.000
v -12.0 53.0 160.0 1.000 1.000 1.000
v -8.0 62.0 132.0 1.000 1.000 1.000
v -16.0 50.0 154.0 1.000 1.000 1.000
v -14.0 57.0 129.0 1.000 1.000 1.000
v -14.0 47.0 148.0 1.000 1.000 1.000
v -11.0 45.0 129.0 1.000 1.000 1.000
v -7.0 40.0 139.0 1.000 1.000 1.000
v -5.0 41.0 129.0 1.000 1.000 1.000
v -5.0 41.0 151.0 1.000 1.000 1.000
v 5.0 48.0 126.0 1.000 1.000 1.000
v 3.0 43.0 156.0 1.000 1.000 1.000
v 7.0 53.0 127.0 1.000 1.000 1.000
v 1.0 50.0 160.0 1.000 1.000 1.000
v -11.0 49.0 163.0 1.000 1.000 1.000
v -2.0 46.0 164.0 1.000 1.000 1.000
v -5.0 52.0 160.0 1.000 1.000 1.000
v -12.0 53.0 160.0 1.000 1.000 1.000
v 3.0 43.0 156.0 1.000 1.000 1.000
v -5.0 41.0 151.0 1.000 1.000 1.000
v -16.0 50.0 154.0 1.000 1.000 1.000
v -14.0 47.0 148.0 1.000 1.000 1.000
v -5.0 41.0 151.0 1.000 1.000 1.000
v -14.0 47.0 148.0 1.000 1.000 1.000
v -7.0 40.0 139.0 1.000 1.000 1.000
v -14.0 39.0 49.0 1.000 1.000 1.000
v -1.0 34.0 27.0 1.000 1.000 1.000
v -13.0 25.0 25.0 1.000 1.000 1.000
v -19.0 28.0 47.0 1.000 1.000 1.000
v -22.0 10.0 47.0 1.000 1.000 1.000
v -19.0 2.0 25.0 1.000 1.000 1.000
v -23.0 -7.0 47.0 1.000 1.000 1.000
v -13.0 -20.0 25.0 1.000 1.000 1.000
v -20.0 -28.0 47.0 1.000 1.000 1.000
v -16.0 -39.0 47.0 1.000 1.000 1.000
v -13.0 -20.0 25.0 1.000 1.000 1.000
v -1.0 -30.0 27.0 1.000 1.000 1.000
v -4.0 -41.0 49.0 1.000 1.000 1.000
v 5.0 -39.0 49.0 1.000 1.000 1.000
v -4.0 -41.0 49.0 1.000 1.000 1.000
v -1.0 -30.0 27.0 1.000 1.000 1.000
v 5.0 -39.0 49.0 1.000 1.000 1.000
v -1.0 -30.0 27.0 1.000 1.000 1.000
v 12.0 -20.0 28.0 1.000 1.000 1.000
v 21.0 -16.0 48.0 1.000 1.000 1.000
v 21.0 2.0 20.0 1.000 1.000 1.000
v 24.0 6.0 50.0 1.000 1.000 1.000
v 12.0 25.0 28.0 1.000 1.000 1.000
v 18.0 32.0 50.0 1.000 1.000 1.000
v 18.0 32.0 50.0 1.000 1.000 1.000
v 12.0 25.0 28.0 1.000 1.000 1.000
v -4.0 39.0 49.0 1.000 1.000 1.000
v -4.0 39.0 49.0 1.000 1.000 1.000
v -1.0 34.0 27.0 1.000 1.000 1.000
v -14.0 39.0 49.0 1.000 1.000 1.000
v -4.0 39.0 49.0 1.000 1.000 1.000
v -1.0 34.0 27.0 1.000 1.000 1.000
v -16.0 -39.0 47.0 1.000 1.000 1.000
v -13.0 -20.0 25.0 1.000 1.000 1.000
v -4.0 -41.0 49.0 1.000 1.000 1.000
v 28.0 33.0 -90.0 1.000 1.000 1.000
v 21.0 2.0 20.0 1.000 1.000 1.000
v 36.0 2.0 -89.0 1.000 1.000 1.000
v 12.0 25.0 28.0 1.000 1.000 1.000
v 9.0 37.0 -91.0 1.000 1.000 1.000
v 12.0 25.0 28.0 1.000 1.000 1.000
v 28.0 33.0 -90.0 1.000 1.000 1.000
v -1.0 34.0 27.0 1.000 1.000 1.000
v -9.0 33.0 -92.0 1.000 1.000 1.000
v -13.0 25.0 25.0 1.000 1.000 1.000
v -26.0 2.0 -93.0 1.000 1.000 1.000
v -19.0 2.0 25.0 1.000 1.000 1.000
v -9.0 -29.0 -92.0 1.000 1.000 1.000
v 9.0 -42.0 -91.0 1.000 1.000 1.000
v -13.0 -20.0 25.0 1.000 1.000 1.000
v -9.0 -29.0 -92.0 1.000 1.000 1.000
v -1.0 -30.0 27.0 1.000 1.000 1.000
v 28.0 -29.0 -90.0 1.000 1.000 1.000
v -1.0 -30.0 27.0 1.000 1.000 1.000
v 9.0 -42.0 -91.0 1.000 1.000 1.000
v 12.0 -20.0 28.0 1.000 1.000 1.000
v 36.0 2.0 -89.0 1.000 1.000 1.000
v 21.0 2.0 20.0 1.000 1.000 1.000
v 38.0 1.0 -18.0 1.000 1.000 1.000
v 39.0 3.0 -192.0 1.000 1.000 1.000
v 31.0 35.0 -18.0 1.000 1.000 1.000
v 31.0 36.0 -192.0 1.000 1.000 1.000
v 17.0 42.0 -19.0 1.000 1.000 1.000
v 3.0 43.0 -20.0 1.000 1.000 1.000
v 3.0 43.0 -20.0 1.000 1.000 1.000
v 31.0 36.0 -192.0 1.000 1.000 1.000
v 4.0 51.0 -192.0 1.000 1.000 1.000
v -12.0 42.0 -20.0 1.000 1.000 1.000
v -26.0 35.0 -21.0 1.000 1.000 1.000
v -12.0 36.0 -192.0 1.000 1.000 1.000
v -33.0 1.0 -22.0 1.000 1.000 1.000
v -33.0 3.0 -192.0 1.000 1.000 1.000
v -26.0 -33.0 -21.0 1.000 1.000 1.000
v -12.0 -31.0 -192.0 1.000 1.000 1.000
v 3.0 -47.0 -20.0 1.000 1.000 1.000
v 4.0 -45.0 -192.0 1.000 1.000 1.000
v 20.0 -33.0 -18.0 1.000 1.000 1.000
v 31.0 -31.0 -192.0 1.000 1.000 1.000
v 38.0 1.0 -18.0 1.000 1.000 1.000
v 39.0 3.0 -192.0 1.000 1.000 1.000
v 40.0 0.0 -39.0 1.000 1.000 1.000
v 41.0 4.0 -192.0 1.000 1.000 1.000
v 32.0 38.0 -40.0 1.000 1.000 1.000
v 33.0 38.0 -192.0 1.000 1.000 1.000
v 32.0 38.0 -40.0 1.000 1.000 1.000
v 33.0 38.0 -192.0 1.000 1.000 1.000
v 18.0 45.0 -40.0 1.000 1.000 1.000
v 3.0 48.0 -41.0 1.000 1.000 1.000
v 2.0 55.0 -192.0 1.000 1.000 1.000
v 3.0 48.0 -41.0 1.000 1.000 1.000
v 2.0 55.0 -192.0 1.000 1.000 1.000
v -13.0 45.0 -42.0 1.000 1.000 1.000
v -28.0 38.0 -43.0 1.000 1.000 1.000
v -16.0 39.0 -192.0 1.000 1.000 1.000
v -36.0 0.0 -43.0 1.000 1.000 1.000
v -36.0 2.0 -192.0 1.000 1.000 1.000
v -36.0 0.0 -43.0 1.000 1.000 1.000
v -36.0 2.0 -192.0 1.000 1.000 1.000
v -28.0 -37.0 -43.0 1.000 1.000 1.000
v -16.0 -35.0 -192.0 1.000 1.000 1.000
v -28.0 -37.0 -43.0 1.000 1.000 1.000
v -16.0 -35.0 -192.0 1.000 1.000 1.000
v 3.0 -52.0 -41.0 1.000 1.000 1.000
v 2.0 -51.0 -192.0 1.000 1.000 1.000
v 3.0 -52.0 -41.0 1.000 1.000 1.000
v 2.0 -51.0 -192.0 1.000 1.000 1.000
v 32.0 -37.0 -40.0 1.000 1.000 1.000
v 31.0 -35.0 -192.0 1.000 1.000 1.000
v 32.0 -37.0 -40.0 1.000 1.000 1.000
v 31.0 -35.0 -192.0 1.000 1.000 1.000
v 40.0 0.0 -39.0 1.000 1.000 1.000
v 41.0 4.0 -192.0 1.000 1.000 1.000
vt 0.2422 0.3789
vt 0.2666 0.4287
vt 0.2832 0.4277
vt 0.1602 0.4463
vt 0.1670 0.3906
vt 0.1318 0.4531
vt 0.2178 0.4346
vt 0.1104 0.6230
vt 0.1523 0.6016
vt 0.2100 0.5908
vt 0.2588 0.5840
vt 0.2705 0.5869
vt 0.1436 0.7412
vt 0.0908 0.7500
vt 0.2168 0.7295
vt 0.2686 0.7227
vt 0.2686 0.7236
vt 0.1113 0.9707
vt 0.0488 0.9766
vt 0.1777 0.9609
vt 0.2246 0.9541
vt 0.2217 0.9473
vt 0.7100 0.7998
vt 0.7988 0.7324
vt 0.6982 0.7793
vt 0.7910 0.7764
vt 0.6973 0.8184
vt 0.7109 0.8682
vt 0.8008 0.8320
vt 0.7070 0.9160
vt 0.8018 0.8857
vt 0.6992 0.9346
vt 0.7920 0.9062
vt 0.3682 0.8545
vt 0.6973 0.8438
vt 0.3740 0.8271
vt 0.6924 0.8662
vt 0.3652 0.9043
vt 0.6904 0.9053
vt 0.3643 0.9502
vt 0.6895 0.9424
vt 0.3701 0.9619
vt 0.6934 0.9521
vt 0.3271 0.7129
vt 0.3818 0.7783
vt 0.3701 0.7031
vt 0.3350 0.7646
vt 0.3438 0.8193
vt 0.3252 0.6982
vt 0.3477 0.8486
vt 0.2178 0.7725
vt 0.2207 0.7871
vt 0.2295 0.8379
vt 0.2363 0.8936
vt 0.2402 0.9229
vt 1.2891 0.0557
vt 1.2549 0.1230
vt 1.1943 0.1250
vt 1.5332 0.1094
vt 1.4863 0.0469
vt 1.5889 0.1055
vt 1.3955 0.1162
vt 1.5957 0.3145
vt 1.5420 0.3125
vt 1.3516 0.3193
vt 1.2627 0.3252
vt 1.2012 0.3330
vt 1.5859 0.6318
vt 1.6650 0.6289
vt 1.4277 0.6289
vt 1.2559 0.6416
vt 1.1719 0.6523
vt 1.6006 0.9014
vt 1.7412 0.8955
vt 1.4424 0.9121
vt 1.2881 0.9229
vt 1.1523 0.9395
vt 0.7227 0.4229
vt 0.8428 0.3770
vt 0.7119 0.3701
vt 0.8516 0.4043
vt 0.7314 0.4785
vt 0.8584 0.4658
vt 0.7295 0.5332
vt 0.8594 0.5264
vt 0.7227 0.5791
vt 0.8535 0.5508
vt 0.4873 0.4287
vt 0.7686 0.4229
vt 0.4941 0.4160
vt 0.7637 0.4336
vt 0.4766 0.4893
vt 0.7539 0.4834
vt 0.4648 0.5557
vt 0.7451 0.5361
vt 0.4619 0.5957
vt 0.7422 0.5684
vt 0.2959 0.4043
vt 0.3389 0.5117
vt 0.3340 0.4258
vt 0.2988 0.4639
vt 0.3027 0.5254
vt 0.2949 0.3896
vt 0.3037 0.5605
vt 0.1709 0.3975
vt 0.1719 0.4121
vt 0.1758 0.4707
vt 0.1777 0.5332
vt 0.1797 0.5674
vt 0.5752 0.2158
vt 0.6543 0.2764
vt 0.7305 0.2764
vt 0.2783 0.2754
vt 0.3096 0.2148
vt 0.1982 0.2754
vt 0.4688 0.2754
vt 0.2539 0.4619
vt 0.3369 0.4639
vt 0.5273 0.4648
vt 0.7129 0.4639
vt 0.7852 0.4629
vt 0.3330 0.7002
vt 0.2393 0.6982
vt 0.5664 0.7002
vt 0.8018 0.6992
vt 0.9023 0.6973
vt 0.4727 0.9102
vt 0.2812 0.9102
vt 0.6807 0.9131
vt 0.8955 0.9189
vt 0.9912 0.9258
vt 0.6992 0.2061
vt 0.8154 0.1602
vt 0.6973 0.1855
vt 0.8174 0.1836
vt 0.7031 0.2598
vt 0.8223 0.2441
vt 0.7070 0.3164
vt 0.8262 0.3066
vt 0.8281 0.3340
vt 0.4404 0.1611
vt 0.6367 0.1914
vt 0.4668 0.1406
vt 0.6162 0.2080
vt 0.4229 0.2197
vt 0.6025 0.2559
vt 0.4141 0.2812
vt 0.5957 0.3047
vt 0.4307 0.3096
vt 0.6084 0.3281
vt 0.1758 0.1934
vt 0.2246 0.3027
vt 0.2275 0.2158
vt 0.1738 0.2529
vt 0.1719 0.3154
vt 0.1777 0.1758
vt 0.1709 0.3496
vt 0.0215 0.1699
vt 0.0205 0.1865
vt 0.0195 0.2461
vt 0.0156 0.3086
vt 0.0156 0.3428
vt 1.6631 0.1504
vt 1.7061 0.2217
vt 1.7891 0.2168
vt 1.3320 0.2373
vt 1.3984 0.1621
vt 1.2607 0.2393
vt 1.5146 0.2305
vt 1.2588 0.4668
vt 1.3262 0.4688
vt 1.5088 0.4648
vt 1.7002 0.4551
vt 1.7910 0.4463
vt 1.2627 0.6992
vt 1.1553 0.6982
vt 1.5000 0.6914
vt 1.7305 0.6816
vt 1.8164 0.6758
vt 1.1943 0.9365
vt 1.0986 0.9248
vt 1.2627 0.6982
vt 1.4072 0.9346
vt 1.6133 0.9316
vt 1.7842 0.9053
vt 0.7363 0.6270
vt 0.8242 0.5605
vt 0.8408 0.5869
vt 0.7510 0.6826
vt 0.8525 0.6475
vt 0.7471 0.7363
vt 0.8525 0.7080
vt 0.7363 0.7588
vt 0.8408 0.7324
vt 0.4648 0.6348
vt 0.7139 0.6357
vt 0.4707 0.6250
vt 0.7090 0.6445
vt 0.4551 0.6855
vt 0.7012 0.6855
vt 0.4463 0.7402
vt 0.6943 0.7285
vt 0.4453 0.7725
vt 0.6924 0.7549
vt 0.3408 0.5547
vt 0.4053 0.6484
vt 0.4014 0.5586
vt 0.3428 0.6172
vt 0.3457 0.6816
vt 0.3389 0.5381
vt 0.3467 0.7158
vt 0.1582 0.5898
vt 0.1592 0.6074
vt 0.1641 0.6689
vt 0.1641 0.7334
vt 0.1650 0.7686
vt 0.1602 0.4775
vt 0.1494 0.5508
vt 0.1641 0.5312
vt 0.1846 0.4854
vt 0.2070 0.5098
vt 0.2227 0.4893
vt 0.2803 0.5283
vt 0.2627 0.4883
vt 0.2822 0.4795
vt 0.3486 0.4551
vt 0.3662 0.4160
vt 0.3242 0.4131
vt 0.4121 0.4150
vt 0.4531 0.4609
vt 0.4521 0.3994
vt 0.4854 0.3994
vt 0.5264 0.3984
vt 0.5117 0.4336
vt 0.6152 0.4209
vt 0.5723 0.3945
vt 0.6162 0.3916
vt 0.6475 0.3906
vt 0.7285 0.4600
vt 0.6875 0.3867
vt 0.7334 0.3828
vt 0.0000 1.0000
vt 0.3076 0.4043
vt 0.5557 0.6699
vt 0.7285 0.5732
vt 0.6895 0.6631
vt 0.6934 0.5547
vt 0.4180 0.6240
vt 0.4160 0.6895
vt 0.3398 0.2549
vt 0.4062 0.4326
vt 0.3311 0.3232
vt 0.6484 0.7852
vt 0.6846 0.7959
vt 0.6699 0.8730
vt 0.6055 0.7910
vt 0.6992 0.6836
vt 0.6650 0.5986
vt 0.5928 0.6084
vt 0.6475 0.3564
vt 0.5752 0.3662
vt 0.6846 0.4707
vt 0.4238 0.4756
vt 0.4463 0.6934
vt 0.4590 0.6836
vt 0.3516 0.6973
vt 0.2764 0.7002
vt 0.3770 0.6377
vt 0.2207 0.6875
vt 0.3896 0.8203
vt 0.3594 0.3955
vt 0.1953 0.3320
vt 0.2012 0.4170
vt 0.3486 0.2471
vt 0.3477 0.2197
vt 0.1953 0.3359
vt 0.6611 0.6670
vt 0.5488 0.9102
vt 0.8076 0.6719
vt 0.4990 0.6611
vt 0.4404 0.9082
vt 0.8994 0.3818
vt 0.6973 0.4316
vt 0.8955 0.4805
vt 0.7012 0.3193
vt 0.8896 0.6406
vt 0.6865 0.7471
vt 0.8867 0.7344
vt 0.6855 0.7871
vt 0.8857 0.7637
vt 0.6846 0.8057
vt 0.8857 0.7607
vt 0.4004 0.9766
vt 0.3984 0.9434
vt 0.2373 0.9209
vt 0.2305 0.8252
vt 0.2109 0.5518
vt 0.6338 0.2012
vt 0.7617 0.1846
vt 0.7617 0.2090
vt 0.6494 0.1621
vt 0.5898 0.1562
vt 0.6348 0.1777
vt 0.6475 0.9736
vt 0.6592 0.9385
vt 0.6680 0.2305
vt 0.5840 0.4854
vt 0.5674 0.2461
vt 0.4209 0.5381
vt 0.4248 0.4268
vt 0.4414 0.3154
vt 0.4570 0.2539
vt 0.4541 0.3516
vt 0.6836 0.3613
vt 0.8193 0.3164
vt 0.9990 0.3447
vt 0.1484 0.7041
vt 0.1631 0.7041
vt 0.2051 0.7021
vt 0.4111 0.8135
vt 0.4121 0.7949
vt 0.4141 0.7529
vt 1.0225 0.3018
vt 0.9561 0.2334
vt 0.5605 0.1602
vt 0.5625 0.1875
vt 0.5986 0.6992
vt 0.6123 0.8818
vt 0.6162 0.9443
vt 0.6191 0.9775
vt 0.5205 0.2949
vt 0.6084 0.2471
vt 0.5811 0.2256
vt 0.4209 0.2969
vt 0.4141 0.2422
vt 0.3750 0.2881
vt 0.3525 0.3193
vt 0.3350 0.3340
vt 0.5518 0.1680
vt 0.6104 0.1523
vt 0.6113 0.1318
vt 0.5557 0.1182
vt 0.2617 0.2529
vt 0.2646 0.2627
vt 0.2812 0.2500
vt 0.3008 0.2217
vt 0.3125 0.1953
vt 0.4707 0.1689
vt 0.2598 0.2139
vt 0.2529 0.1816
vt 0.5322 0.0918
vt 0.5967 0.0967
vt 0.2666 0.2363
vt 0.6201 0.1084
vt 0.5889 0.1201
vt 0.5254 0.1016
vt 0.3574 0.2705
vt 0.3594 0.2793
vt 0.3467 0.2656
vt 0.2500 0.2480
vt 0.9609 0.1338
vt 0.8496 0.0137
vt 0.9482 0.1426
vt 0.8369 0.0225
vt 0.8984 0.1787
vt 0.7891 0.0605
vt 0.8467 0.2168
vt 0.7354 0.0967
vt 0.8174 0.2383
vt 0.7061 0.1182
vt 0.8340 0.2266
vt 0.7188 0.1094
vt 0.8818 0.1914
vt 0.8008 0.1025
vt 0.9355 0.1523
vt 0.8203 0.0352
vt 0.8965 0.2480
vt 0.9688 0.1953
vt 0.1123 0.3838
vt 0.1172 0.4541
vt 0.1289 0.6260
vt 0.1416 0.7969
vt 0.4570 0.7080
vt 0.4648 0.7627
vt 0.5498 0.8008
vt 0.8779 0.7344
vt 0.8770 0.7637
vt 0.9873 0.7207
vt 0.9893 0.6709
vt 0.8809 0.6406
vt 0.9932 0.5498
vt 0.8867 0.4805
vt 0.9971 0.4287
vt 0.8896 0.3818
vt 0.5068 0.8848
vt 0.5488 0.9111
vt 0.7139 0.8633
vt 0.5469 0.7979
vt 0.9844 0.3916
vt 0.8467 0.5195
vt 0.9863 0.5430
vt 0.8457 0.3984
vt 0.0527 0.3857
vt 0.4473 0.4375
vt 0.0625 0.4619
vt 0.4395 0.3828
vt 0.0537 0.4639
vt 0.4395 0.4395
vt 0.0635 0.6484
vt 0.4473 0.5732
vt 0.0771 0.8330
vt 0.0869 0.9092
vt 0.9873 0.6943
vt 0.8486 0.6914
vt 0.9883 0.7568
vt 0.8477 0.6406
vt 0.0771 -0.4453
vt 0.0430 0.9180
vt 0.2227 -0.4453
vt 0.1885 0.9180
vt 0.3975 -0.4443
vt 0.5732 -0.4443
vt 0.5400 0.9180
vt 0.7490 -0.4443
vt 0.9248 -0.4443
vt 0.8916 0.9180
vt 1.0703 -0.4443
vt 1.0371 0.9189
vt 0.0000 0.0098
vt 1.0000 0.9902
vt 1.0000 0.0000
vt 0.0293 -0.0166
vt 0.0293 0.9141
vt 0.5146 -0.0166
vt 1.0000 -0.0156
vt 1.0000 0.9141
vt 1.0000 1.0000
vt 0.5000 1.0000
vt 0.0000 0.0000
vt -0.0098 1.0176
vt -0.0098 0.0176
vt 0.0156 0.0010
vt 0.9844 0.9990
vn -0.577 -0.577 -0.577
vn -0.577 -0.577 -0.577
vn -0.577 -0.577 -0.577
vn -0.577 -0.577 -0.577
vn -0.577 -0.577 -0.577
vn -0.577 -0.577 -0.577
vn -0.577 -0.577 -0.577
vn -0.577 -0.577 -0.577
vn -0.577 -0.577 -0.577
vn -0.577 -0.577 -0.577
vn -0.577 -0.577 -0.577
vn -0.577 -0.577 -0.577
vn -0.577 -0.577 -0.577
vn -0.577 -0.577 -0.577
vn -0.577 -0.577 -0.577
vn -0.577 -0.577 -0.577
vn -0.577 -0.577 -0.577
vn -0.577 -0.577 -0.577
vn -0.577 -0.577 -0.577
vn -0.577 -0.577 -0.577
vn -0.577 -0.577 -0.577
vn -0.577 -0.577 -0.577
vn -0.577 -0.577 -0.577
vn -0.577 -0.577 -0.577
vn -0.577 -0.577 -0.577
vn -0.577 -0.577 -0.577
vn -0.577 -0.577 -0.577
vn -0.577 -0.577 -0.577
vn -0.577 -0.577 -0.577
vn -0.577 -0.577 -0.577
vn -0.577 -0.577 -0.577
vn -0.577 -0.577 -0.577
vn -0.577 -0.577 -0.577
vn -0.577 -0.577 -0.577
vn -0.577 -0.577 -0.577
vn -0.577 -0.577 -0.577
vn -0.577 -0.577 -0.577
vn -0.577 -0.577 -0.577
vn -0.577 -0.577 -0.577
vn -0.577 -0.577 -0.577
vn -0.577 -0.577 -0.577
vn -0.577 -0.577 -0.577
vn -0.577 -0.577 -0.577
vn -0.577 -0.577 -0.577
vn -0.577 -0.577 -0.577
vn -0.577 -0.577 -0.577
vn -0.577 -0.577 -0.577
vn -0.577 -0.577 -0.577
vn -0.577 -0.577 -0.577
vn -0.577 -0.577 -0.577
vn -0.577 -0.577 -0.577
vn -0.577 -0.577 -0.577
vn -0.577 -0.577 -0.577
vn -0.577 -0.577 -0.577
vn -0.577 -0.577 -0.577
vn -0.577 -0.577 -0.577
vn -0.577 -0.577 -0.577
vn -0.577 -0.577 -0.577
vn -0.577 -0.577 -0.577
vn -0.577 -0.577 -0.577
vn -0.577 -0.577 -0.577
vn -0.577 -0.577 -0.577
vn -0.577 -0.577 -0.577
vn -0.577 -0.577 -0.577
vn -0.577 -0.577 -0.577
vn -0.577 -0.577 -0.577
vn -0.577 -0.577 -0.577
vn -0.577 -0.577 -0.577
vn -0.577 -0.577 -0.577
vn -0.577 -0.577 -0.577
vn -0.577 -0.577 -0.577
vn -0.577 -0.577 -0.577
vn -0.577 -0.577 -0.577
vn 0.577 0.577 0.577
vn -0.577 -0.577 -0.577
vn -0.577 -0.577 -0.577
vn -0.577 -0.577 -0.577
vn 0.577 0.577 0.577
vn -0.577 -0.577 -0.577
vn 0.577 0.577 0.577
vn -0.577 -0.577 -0.577
vn -0.577 -0.577 -0.577
vn 0.577 0.577 0.577
vn -0.577 -0.577 -0.577
vn -0.577 -0.577 -0.577
vn 0.577 0.577 0.577
vn -0.577 -0.577 -0.577
vn 0.577 0.577 0.577
vn 0.577 0.577 0.577
vn -0.577 -0.577 -0.577
vn -0.577 -0.577 -0.577
vn -0.577 -0.577 -0.577
vn -0.577 -0.577 -0.577
vn -0.577 -0.577 -0.577
vn -0.577 -0.577 -0.577
vn 0.577 0.577 0.577
vn -0.577 -0.577 -0.577
vn -0.577 -0.577 -0.577
vn -0.577 -0.577 -0.577
vn -0.577 -0.577 -0.577
vn -0.577 -0.577 -0.577
vn -0.577 -0.577 -0.577
vn -0.577 -0.577 -0.577
vn -0.577 -0.577 -0.577
vn 0.577 0.577 0.577
vn 0.577 0.577 0.577
vn -0.577 -0.577 -0.577
vn 0.577 0.577 0.577
vn 0.577 0.577 0.577
vn -0.577 -0.577 -0.577
vn -0.577 -0.577 -0.577
vn -0.577 -0.577 -0.577
vn -0.577 -0.577 -0.577
vn -0.577 -0.577 -0.577
vn 0.577 0.577 0.577
vn -0.577 -0.577 -0.577
vn -0.577 -0.577 -0.577
vn 0.577 0.577 0.577
vn -0.577 -0.577 -0.577
vn -0.577 -0.577 -0.577
vn -0.577 -0.577 -0.577
vn -0.577 -0.577 -0.577
vn -0.577 -0.577 -0.577
vn -0.577 -0.577 -0.577
vn -0.577 -0.577 -0.577
vn 0.577 0.577 0.577
vn -0.577 -0.577 -0.577
vn -0.577 -0.577 -0.577
vn -0.577 -0.577 -0.577
vn 0.577 0.577 0.577
vn -0.577 -0.577 -0.577
vn -0.577 -0.577 -0.577
vn -0.577 -0.577 -0.577
vn -0.577 -0.577 -0.577
vn -0.577 -0.577 -0.577
vn 0.577 0.577 0.577
vn -0.577 -0.577 -0.577
vn 0.577 0.577 0.577
vn -0.577 -0.577 -0.577
vn -0.577 -0.577 -0.577
vn -0.577 -0.577 -0.577
vn -0.577 -0.577 -0.577
vn -0.577 -0.577 -0.577
vn 0.577 0.577 0.577
vn -0.577 -0.577 -0.577
vn -0.577 -0.577 -0.577
vn -0.577 -0.577 -0.577
vn -0.577 -0.577 -0.577
vn -0.577 -0.577 -0.577
vn -0.577 -0.577 -0.577
vn -0.577 -0.577 -0.577
vn 0.577 0.577 0.577
vn -0.577 -0.577 -0.577
vn -0.577 -0.577 -0.577
vn -0.577 -0.577 -0.577
vn -0.577 -0.577 -0.577
vn -0.577 -0.577 -0.577
vn -0.577 -0.577 -0.577
vn -0.577 -0.577 -0.577
vn -0.577 -0.577 -0.577
vn -0.577 -0.577 -0.577
vn -0.577 -0.577 -0.577
vn -0.577 -0.577 -0.577
vn -0.577 -0.577 -0.577
vn -0.577 -0.577 -0.577
vn -0.577 -0.577 -0.577
vn -0.577 -0.577 -0.577
vn -0.577 -0.577 -0.577
vn -0.577 -0.577 -0.577
vn 0.577 0.577 0.577
vn -0.577 -0.577 -0.577
vn -0.577 -0.577 -0.577
vn -0.577 -0.577 -0.577
vn -0.577 -0.577 -0.577
vn -0.577 -0.577 -0.577
vn -0.577 -0.577 -0.577
vn -0.577 -0.577 -0.577
vn -0.577 -0.577 -0.577
vn 0.577 0.577 0.577
vn -0.577 -0.577 -0.577
vn -0.577 -0.577 -0.577
vn 0.577 0.577 0.577
vn -0.577 -0.577 -0.577
vn -0.577 -0.577 -0.577
vn -0.577 -0.577 -0.577
vn -0.577 -0.577 -0.577
vn -0.577 -0.577 -0.577
vn -0.577 -0.577 -0.577
vn 0.577 0.577 0.577
vn -0.577 -0.577 -0.577
vn -0.577 -0.577 -0.577
vn -0.577 -0.577 -0.577
vn -0.577 -0.577 -0.577
vn 0.577 0.577 0.577
vn -0.577 -0.577 -0.577
vn -0.577 -0.577 -0.577
vn 0.577 0.577 0.577
vn -0.577 -0.577 -0.577
vn -0.577 -0.577 -0.577
vn -0.577 -0.577 -0.577
vn -0.577 -0.577 -0.577
vn -0.577 -0.577 -0.577
vn -0.577 -0.577 -0.577
vn -0.577 -0.577 -0.577
vn -0.577 -0.577 -0.577
vn 0.577 0.577 0.577
vn -0.577 -0.577 -0.577
vn -0.577 -0.577 -0.577
vn -0.577 -0.577 -0.577
vn -0.577 -0.577 -0.577
vn 0.577 0.577 0.577
vn -0.577 -0.577 -0.577
vn -0.577 -0.577 -0.577
vn 0.577 0.577 0.577
vn -0.577 -0.577 -0.577
vn -0.577 -0.577 -0.577
vn -0.577 -0.577 -0.577
vn -0.577 -0.577 -0.577
vn -0.577 -0.577 -0.577
vn -0.577 -0.577 -0.577
vn -0.577 -0.577 -0.577
vn 0.577 0.577 0.577
vn -0.577 -0.577 -0.577
vn 0.577 0.577 0.577
vn 0.577 0.577 0.577
vn -0.577 -0.577 -0.577
vn -0.577 -0.577 -0.577
vn -0.577 -0.577 -0.577
vn -0.577 -0.577 -0.577
vn -0.577 -0.577 -0.577
vn -0.577 -0.577 -0.577
vn -0.577 -0.577 -0.577
vn -0.577 -0.577 -0.577
vn -0.577 -0.577 -0.577
vn -0.577 -0.577 -0.577
vn 0.577 0.577 0.577
vn 0.577 0.577 0.577
vn -0.577 -0.577 -0.577
vn -0.577 -0.577 -0.577
vn -0.577 -0.577 -0.577
vn -0.577 -0.577 -0.577
vn -0.577 -0.577 -0.577
vn -0.577 -0.577 -0.577
vn -0.577 -0.577 -0.577
vn -0.577 -0.577 -0.577
vn -0.577 -0.577 -0.577
vn 0.577 0.577 0.577
vn -0.577 -0.577 -0.577
vn -0.577 -0.577 -0.577
vn -0.577 -0.577 -0.577
vn -0.577 -0.577 -0.577
vn 0.577 0.577 0.577
vn -0.577 -0.577 -0.577
vn 0.577 0.577 0.577
vn -0.577 -0.577 -0.577
vn -0.577 -0.577 -0.577
vn -0.577 -0.577 -0.577
vn -0.577 -0.577 -0.577
vn -0.577 -0.577 -0.577
vn -0.577 -0.577 -0.577
vn -0.577 -0.577 -0.577
vn -0.577 -0.577 -0.577
vn -0.577 -0.577 -0.577
vn -0.577 -0.577 -0.577
vn -0.577 -0.577 -0.577
vn -0.577 -0.577 -0.577
vn -0.577 -0.577 -0.577
vn -0.577 -0.577 -0.577
vn -0.577 -0.577 -0.577
vn -0.577 -0.577 -0.577
vn -0.577 -0.577 -0.577
vn -0.577 -0.577 -0.577
vn 0.577 0.577 0.577
vn -0.577 -0.577 -0.577
vn -0.577 -0.577 -0.577
vn -0.577 -0.577 -0.577
vn -0.577 -0.577 -0.577
vn -0.577 -0.577 -0.577
vn -0.577 -0.577 -0.577
vn -0.577 -0.577 -0.577
vn -0.577 -0.577 -0.577
vn -0.577 -0.577 -0.577
vn -0.577 -0.577 -0.577
vn -0.577 -0.577 -0.577
vn -0.577 -0.577 -0.577
vn -0.577 -0.577 -0.577
vn -0.577 -0.577 -0.577
vn -0.577 -0.577 -0.577
vn -0.577 -0.577 -0.577
vn -0.577 -0.577 -0.577
vn -0.577 -0.577 -0.577
vn -0.577 -0.577 -0.577
vn -0.577 -0.577 -0.577
vn -0.577 -0.577 -0.577
vn -0.577 -0.577 -0.577
vn -0.577 -0.577 -0.577
vn -0.577 -0.577 -0.577
vn -0.577 -0.577 -0.577
vn -0.577 -0.577 -0.577
vn -0.577 -0.577 -0.577
vn -0.577 -0.577 -0.577
vn -0.577 -0.577 -0.577
vn -0.577 -0.577 -0.577
vn -0.577 -0.577 -0.577
vn -0.577 -0.577 -0.577
vn -0.577 -0.577 -0.577
vn -0.577 -0.577 -0.577
vn -0.577 -0.577 -0.577
vn -0.577 -0.577 -0.577
vn -0.577 -0.577 -0.577
vn -0.577 -0.577 -0.577
vn -0.577 -0.577 -0.577
vn -0.577 -0.577 -0.577
vn 0.577 0.577 0.577
vn -0.577 -0.577 -0.577
vn -0.577 -0.577 -0.577
vn -0.577 -0.577 -0.577
vn -0.577 -0.577 -0.577
vn -0.577 -0.577 -0.577
vn -0.577 -0.577 -0.577
vn -0.577 -0.577 -0.577
vn -0.577 -0.577 -0.577
vn -0.577 -0.577 -0.577
vn -0.577 -0.577 -0.577
vn -0.577 -0.577 -0.577
vn -0.577 -0.577 -0.577
vn -0.577 -0.577 -0.577
vn -0.577 -0.577 -0.577
vn -0.577 -0.577 -0.577
vn -0.577 -0.577 -0.577
vn -0.577 -0.577 -0.577
vn -0.577 -0.577 -0.577
vn -0.577 -0.577 -0.577
vn -0.577 -0.577 -0.577
vn -0.577 -0.577 -0.577
vn -0.577 -0.577 -0.577
vn -0.577 -0.577 -0.577
vn -0.577 -0.577 -0.577
vn -0.577 -0.577 -0.577
vn -0.577 -0.577 -0.577
vn -0.577 -0.577 -0.577
vn -0.577 -0.577 -0.577
vn -0.577 -0.577 -0.577
vn -0.577 -0.577 -0.577
vn -0.577 -0.577 -0.577
vn -0.577 -0.577 -0.577
vn -0.577 -0.577 -0.577
vn -0.577 -0.577 -0.577
vn -0.577 -0.577 -0.577
vn -0.577 -0.577 -0.577
vn -0.577 -0.577 -0.577
vn -0.577 -0.577 -0.577
vn -0.577 -0.577 -0.577
vn -0.577 -0.577 -0.577
vn -0.577 -0.577 -0.577
vn -0.577 -0.577 -0.577
vn -0.577 -0.577 -0.577
vn -0.577 -0.577 -0.577
vn -0.577 -0.577 -0.577
vn -0.577 -0.577 -0.577
vn -0.577 -0.577 -0.577
vn -0.577 -0.577 -0.577
vn -0.577 -0.577 -0.577
vn -0.577 -0.577 -0.577
vn -0.577 -0.577 -0.577
vn -0.577 -0.577 -0.577
vn -0.577 -0.577 -0.577
vn -0.577 -0.577 -0.577
vn -0.577 -0.577 -0.577
vn -0.577 -0.577 -0.577
vn -0.577 -0.577 -0.577
vn -0.577 -0.577 -0.577
vn -0.577 -0.577 -0.577
vn -0.577 -0.577 -0.577
vn -0.577 -0.577 -0.577
vn -0.577 -0.577 -0.577
vn -0.577 -0.577 -0.577
vn -0.577 -0.577 -0.577
vn -0.577 -0.577 -0.577
vn -0.577 -0.577 -0.577
vn -0.577 -0.577 -0.577
vn -0.577 -0.577 -0.577
vn -0.577 -0.577 -0.577
vn -0.577 -0.577 -0.577
vn -0.577 -0.577 -0.577
vn -0.577 -0.577 -0.577
vn -0.577 -0.577 -0.577
vn -0.577 -0.577 -0.577
vn -0.577 -0.577 -0.577
vn -0.577 -0.577 -0.577
vn -0.577 -0.577 -0.577
vn -0.577 -0.577 -0.577
vn -0.577 -0.577 -0.577
vn -0.577 -0.577 -0.577
vn -0.577 -0.577 -0.577
vn -0.577 -0.577 -0.577
vn -0.577 -0.577 -0.577
vn -0.577 -0.577 -0.577
vn -0.577 -0.577 -0.577
vn -0.577 -0.577 -0.577
vn 0.577 0.577 0.577
vn -0.577 -0.577 -0.577
vn -0.577 -0.577 -0.577
vn -0.577 -0.577 -0.577
vn -0.577 -0.577 -0.577
vn -0.577 -0.577 -0.577
vn -0.577 -0.577 -0.577
vn -0.577 -0.577 -0.577
vn -0.577 -0.577 -0.577
vn -0.577 -0.577 -0.577
vn -0.577 -0.577 -0.577
vn -0.577 -0.577 -0.577
vn -0.577 -0.577 -0.577
vn -0.577 -0.577 -0.577
vn -0.577 -0.577 -0.577
vn -0.577 -0.577 -0.577
vn -0.577 -0.577 -0.577
vn -0.577 -0.577 -0.577
vn -0.577 -0.577 -0.577
vn -0.577 -0.577 -0.577
vn -0.577 -0.577 -0.577
vn -0.577 -0.577 -0.577
vn -0.577 -0.577 -0.577
vn -0.577 -0.577 -0.577
vn -0.577 -0.577 -0.577
vn -0.577 -0.577 -0.577
vn -0.577 -0.577 -0.577
vn -0.577 -0.577 -0.577
vn -0.577 -0.577 -0.577
vn -0.577 -0.577 -0.577
vn -0.577 -0.577 -0.577
vn -0.577 -0.577 -0.577
vn -0.577 -0.577 -0.577
vn -0.577 -0.577 -0.577
vn -0.577 -0.577 -0.577
vn -0.577 -0.577 -0.577
vn -0.577 -0.577 -0.577
vn -0.577 -0.577 -0.577
vn -0.577 -0.577 -0.577
vn -0.577 -0.577 -0.577
vn -0.577 -0.577 -0.577
vn -0.577 -0.577 -0.577
vn -0.577 -0.577 -0.577
vn -0.577 -0.577 -0.577
vn -0.577 -0.577 -0.577
vn -0.577 -0.577 -0.577
vn -0.577 -0.577 -0.577
vn -0.577 -0.577 -0.577
vn -0.577 -0.577 -0.577
vn -0.577 -0.577 -0.577
vn -0.577 -0.577 -0.577
vn -0.577 -0.577 -0.577
vn -0.577 -0.577 -0.577
vn -0.577 -0.577 -0.577
vn -0.577 -0.577 -0.577
vn -0.577 -0.577 -0.577
vn -0.577 -0.577 -0.577
vn -0.577 -0.577 -0.577
vn -0.577 -0.577 -0.577
vn -0.577 -0.577 -0.577
vn -0.577 -0.577 -0.577
vn -0.577 -0.577 -0.577
vn -0.577 -0.577 -0.577
vn -0.577 -0.577 -0.577
vn -0.577 -0.577 -0.577
vn -0.577 -0.577 -0.577
vn -0.577 -0.577 -0.577
vn -0.577 -0.577 -0.577
vn -0.577 -0.577 -0.577
vn -0.577 -0.577 -0.577
vn -0.577 -0.577 -0.577
vn -0.577 -0.577 -0.577
vn -0.577 -0.577 -0.577
vn -0.577 -0.577 -0.577
vn -0.577 -0.577 -0.577
vn -0.577 -0.577 -0.577
vn -0.577 -0.577 -0.577
vn -0.577 -0.577 -0.577
vn -0.577 -0.577 -0.577
vn -0.577 -0.577 -0.577
vn -0.577 -0.577 -0.577
vn -0.577 -0.577 -0.577
vn -0.577 -0.577 -0.577
vn -0.577 -0.577 -0.577
vn -0.577 -0.577 -0.577
vn -0.577 -0.577 -0.577
vn -0.577 -0.577 -0.577
vn -0.577 -0.577 -0.577
vn -0.577 -0.577 -0.577
vn -0.577 -0.577 -0.577
vn -0.577 -0.577 -0.577
vn -0.577 -0.577 -0.577
vn -0.577 -0.577 -0.577
vn -0.577 -0.577 -0.577
vn -0.577 -0.577 -0.577
vn -0.577 -0.577 -0.577
vn -0.577 -0.577 -0.577
vn -0.577 -0.577 -0.577
vn -0.577 -0.577 -0.577
vn -0.577 -0.577 -0.577
vn -0.577 -0.577 -0.577
vn -0.577 -0.577 -0.577
vn -0.577 -0.577 -0.577
vn -0.577 -0.577 -0.577
vn -0.577 -0.577 -0.577
vn -0.577 -0.577 -0.577
vn -0.577 -0.577 -0.577
vn -0.577 -0.577 -0.577
vn -0.577 -0.577 -0.577
vn -0.577 -0.577 -0.577
vn -0.577 -0.577 -0.577
vn -0.577 -0.577 -0.577
vn -0.577 -0.577 -0.577
vn -0.577 -0.577 -0.577
vn -0.577 -0.577 -0.577
vn -0.577 -0.577 -0.577
vn -0.577 -0.577 -0.577
vn -0.577 -0.577 -0.577
vn -0.577 -0.577 -0.577
vn -0.577 -0.577 -0.577
vn -0.577 -0.577 -0.577
vn -0.577 -0.577 -0.577
vn -0.577 -0.577 -0.577
vn -0.577 -0.577 -0.577
vn -0.577 -0.577 -0.577
vn -0.577 -0.577 -0.577
vn -0.577 -0.577 -0.577
vn -0.577 -0.577 -0.577
vn -0.577 -0.577 -0.577
vn -0.577 -0.577 -0.577
vn -0.577 -0.577 -0.577
vn -0.577 -0.577 -0.577
vn -0.577 -0.577 -0.577
vn -0.577 -0.577 -0.577
vn -0.577 -0.577 -0.577
vn -0.577 -0.577 -0.577
vn -0.577 -0.577 -0.577
vn -0.577 -0.577 -0.577
vn -0.577 -0.577 -0.577
vn -0.577 -0.577 -0.577
vn -0.577 -0.577 -0.577
vn -0.577 -0.577 -0.577
vn -0.577 -0.577 -0.577
vn -0.577 -0.577 -0.577
vn -0.577 -0.577 -0.577
vn -0.577 -0.577 -0.577
vn -0.577 -0.577 -0.577
vn -0.577 -0.577 -0.577
vn -0.577 -0.577 -0.577
vn -0.577 -0.577 -0.577
vn -0.577 -0.577 -0.577
vn -0.577 -0.577 -0.577
vn -0.577 -0.577 -0.577
vn -0.577 -0.577 -0.577
vn -0.577 -0.577 -0.577
vn -0.577 -0.577 -0.577
vn -0.577 -0.577 -0.577
vn -0.577 -0.577 -0.577
vn -0.577 -0.577 -0.577
vn -0.577 -0.577 -0.577
vn -0.577 -0.577 -0.577
vn -0.577 -0.577 -0.577
vn -0.577 -0.577 -0.577
vn -0.577 -0.577 -0.577
vn -0.577 -0.577 -0.577
vn -0.577 -0.577 -0.577
vn -0.577 -0.577 -0.577
vn -0.577 -0.577 -0.577
vn -0.577 -0.577 -0.577
vn -0.577 -0.577 -0.577
vn -0.577 -0.577 -0.577
vn -0.577 -0.577 -0.577
vn -0.577 -0.577 -0.577
vn -0.577 -0.577 -0.577
vn -0.577 -0.577 -0.577
vn -0.577 -0.577 -0.577
vn -0.577 -0.577 -0.577
vn -0.577 -0.577 -0.577
vn -0.577 -0.577 -0.577
vn -0.577 -0.577 -0.577
vn -0.577 -0.577 -0.577
vn -0.577 -0.577 -0.577
vn -0.577 -0.577 -0.577
vn -0.577 -0.577 -0.577
vn -0.577 -0.577 -0.577
vn -0.577 -0.577 -0.577
vn -0.577 -0.577 -0.577
vn -0.577 -0.577 -0.577
vn -0.577 -0.577 -0.577
vn -0.577 -0.577 -0.577
vn -0.577 -0.577 -0.577
vn -0.577 -0.577 -0.577
vn -0.577 -0.577 -0.577
vn -0.577 -0.577 -0.577
vn -0.577 -0.577 -0.577
vn -0.577 -0.577 -0.577
vn -0.577 -0.577 -0.577
vn -0.577 -0.577 -0.577
vn -0.577 -0.577 -0.577
vn -0.577 -0.577 -0.577
vn -0.577 -0.577 -0.577
vn -0.577 -0.577 -0.577
vn -0.577 -0.577 -0.577
vn -0.577 -0.577 -0.577
vn -0.577 -0.577 -0.577
vn -0.577 -0.577 -0.577
vn -0.577 -0.577 -0.577
vn -0.577 -0.577 -0.577
vn -0.577 -0.577 -0.577
vn -0.577 -0.577 -0.577
vn -0.577 -0.577 -0.577
vn -0.577 -0.577 -0.577
vn -0.577 -0.577 -0.577
vn -0.577 -0.577 -0.577
vn -0.577 -0.577 -0.577
vn -0.577 -0.577 -0.577
vn -0.577 -0.577 -0.577
vn -0.577 -0.577 -0.577
vn -0.577 -0.577 -0.577
vn -0.577 -0.577 -0.577
vn -0.577 -0.577 -0.577
vn -0.577 -0.577 -0.577
vn -0.577 -0.577 -0.577
vn -0.577 -0.577 -0.577
vn -0.577 -0.577 -0.577
vn -0.577 -0.577 -0.577
vn -0.577 -0.577 -0.577
vn -0.577 -0.577 -0.577
vn -0.577 -0.577 -0.577
vn -0.577 -0.577 -0.577
vn -0.577 -0.577 -0.577
vn -0.577 -0.577 -0.577
vn -0.577 -0.577 -0.577
vn -0.577 -0.577 -0.577
vn -0.577 -0.577 -0.577
vn -0.577 -0.577 -0.577
vn -0.577 -0.577 -0.577
vn -0.577 -0.577 -0.577
vn -0.577 -0.577 -0.577
vn -0.577 -0.577 -0.577
vn -0.577 -0.577 -0.577
vn -0.577 -0.577 -0.577
vn -0.577 -0.577 -0.577
vn -0.577 -0.577 -0.577
vn -0.577 -0.577 -0.577
vn -0.577 -0.577 -0.577
vn -0.577 -0.577 -0.577
vn -0.577 -0.577 -0.577
vn -0.577 -0.577 -0.577
vn -0.577 -0.577 -0.577
vn -0.577 -0.577 -0.577
vn -0.577 -0.577 -0.577
vn -0.577 -0.577 -0.577
vn -0.577 -0.577 -0.577
vn -0.577 -0.577 -0.577
vn -0.577 -0.577 -0.577
vn -0.577 -0.577 -0.577
vn -0.577 -0.577 -0.577
vn -0.577 -0.577 -0.577
vn -0.577 -0.577 -0.577
vn -0.577 -0.577 -0.577
vn -0.577 -0.577 -0.577
vn -0.577 -0.577 -0.577
vn -0.577 -0.577 -0.577
vn -0.577 -0.577 -0.577
vn -0.577 -0.577 -0.577
vn -0.577 -0.577 -0.577
vn -0.577 -0.577 -0.577
vn -0.577 -0.577 -0.577
vn -0.577 -0.577 -0.577
vn -0.577 -0.577 -0.577
vn -0.577 -0.577 -0.577
vn -0.577 -0.577 -0.577
vn -0.577 -0.577 -0.577
vn -0.577 -0.577 -0.577
vn -0.577 -0.577 -0.577
vn -0.577 -0.577 -0.577
vn -0.577 -0.577 -0.577
vn -0.577 -0.577 -0.577
vn -0.577 -0.577 -0.577
vn -0.577 -0.577 -0.577
vn -0.577 -0.577 -0.577
vn -0.577 -0.577 -0.577
vn -0.577 -0.577 -0.577
vn -0.577 -0.577 -0.577
vn -0.577 -0.577 -0.577
vn -0.577 -0.577 -0.577
vn -0.577 -0.577 -0.577
vn -0.577 -0.577 -0.577
vn -0.577 -0.577 -0.577
vn -0.577 -0.577 -0.577
vn -0.577 -0.577 -0.577
vn -0.577 -0.577 -0.577
vn -0.577 -0.577 -0.577
vn -0.577 -0.577 -0.577
vn -0.577 -0.577 -0.577
vn -0.577 -0.577 -0.577
vn -0.577 -0.577 -0.577
vn -0.577 -0.577 -0.577
vn -0.577 -0.577 -0.577
vn -0.577 -0.577 -0.577
vn -0.577 -0.577 -0.577
vn -0.577 -0.577 -0.577
vn -0.577 -0.577 -0.577
vn -0.577 -0.577 -0.577
vn -0.577 -0.577 -0.577
vn -0.577 -0.577 -0.577
vn -0.577 -0.577 -0.577
vn -0.577 -0.577 -0.577
vn -0.577 -0.577 -0.577
vn -0.577 -0.577 -0.577
vn -0.577 -0.577 -0.577
vn -0.577 -0.577 -0.577
vn -0.577 -0.577 -0.577
vn -0.577 -0.577 -0.577
vn -0.577 -0.577 -0.577
vn -0.577 -0.577 -0.577
vn -0.577 -0.577 -0.577
vn -0.577 -0.577 -0.577
vn -0.577 -0.577 -0.577
vn -0.577 -0.577 -0.577
vn -0.577 -0.577 -0.577
usemtl tex_1788_lit
f 1/1/1 2/2/2 3/3/3
f 4/4/4 5/5/5 6/6/6
f 7/7/7 5/5/5 4/4/4
f 1/1/1 5/5/5 7/7/7
f 1/1/1 7/7/7 2/2/2
f 6/6/6 8/8/8 4/4/4
f 4/4/4 8/8/8 9/9/9
f 4/4/4 9/9/9 7/7/7
f 7/7/7 9/9/9 10/10/10
f 7/7/7 10/10/10 2/2/2
f 2/2/2 10/10/10 11/11/11
f 2/2/2 11/11/11 3/3/3
f 3/3/3 11/11/11 12/12/12
f 13/13/13 8/8/8 14/14/14
f 9/9/9 8/8/8 13/13/13
f 15/15/15 9/9/9 13/13/13
f 10/10/10 9/9/9 15/15/15
f 16/16/16 10/10/10 15/15/15
f 11/11/11 10/10/10 16/16/16
f 17/17/17 18/11/18 19/16/19
f 20/12/20 18/11/18 17/17/17
f 21/18/21 22/14/22 23/19/23
f 24/13/24 22/14/22 21/18/21
f 25/20/25 24/13/24 21/18/21
f 26/15/26 24/13/24 25/20/25
f 27/21/27 26/15/26 25/20/25
f 19/16/19 26/15/26 27/21/27
f 28/22/28 19/16/19 27/21/27
f 17/17/17 19/16/19 28/22/28
usemtl tex_1794_lit_w11
f 29/23/29 30/24/30 31/25/31
f 32/26/32 33/24/33 34/27/34
f 35/28/35 32/26/32 34/27/34
f 36/29/36 32/26/32 35/28/35
f 37/30/37 36/29/36 35/28/35
f 38/31/38 36/29/36 37/30/37
f 39/32/39 38/31/38 37/30/37
f 40/33/40 38/31/38 39/32/39
usemtl tex_1795_lit_w11
f 41/34/41 42/35/42 43/36/43
f 44/37/44 42/35/42 41/34/41
f 45/38/45 44/37/44 41/34/41
f 46/39/46 44/37/44 45/38/45
f 47/40/47 46/39/46 45/38/45
f 48/41/48 49/39/49 50/40/50
f 51/42/51 48/41/48 50/40/50
f 52/43/52 48/41/48 51/42/51
usemtl tex_1796_lit_w11
f 53/44/53 54/45/54 55/46/55
f 56/47/56 54/45/54 53/44/53
f 57/48/57 54/45/54 56/47/56
f 53/44/53 55/46/55 58/49/58
f 54/45/54 57/48/57 59/50/59
f 58/49/58 60/51/60 53/44/53
f 53/44/53 60/51/60 61/52/61
f 53/44/53 61/52/61 56/47/56
f 56/47/56 61/52/61 62/53/62
f 56/47/56 62/53/62 57/48/57
f 57/48/57 62/53/62 63/54/63
f 57/48/57 63/54/63 59/50/59
f 64/50/64 65/54/65 66/55/66
usemtl tex_1790_lit
f 67/56/67 68/57/68 69/58/69
f 70/59/70 71/60/71 72/61/72
f 73/62/73 71/60/71 70/59/70
f 67/56/67 71/60/71 73/62/73
f 67/56/67 73/62/73 68/57/68
f 72/61/72 74/63/74 70/59/70
f 70/59/70 74/63/74 75/64/75
f 70/59/70 75/64/75 73/62/73
f 73/62/73 75/64/75 76/65/76
f 73/62/73 76/65/76 68/57/68
f 68/57/68 76/65/76 77/66/77
f 68/57/68 77/66/77 69/58/69
f 69/58/69 77/66/77 78/67/78
f 79/68/79 74/63/74 80/69/80
f 75/64/75 74/63/74 79/68/79
f 81/70/81 75/64/75 79/68/79
f 76/65/76 75/64/75 81/70/81
f 82/71/82 76/65/76 81/70/81
f 77/66/77 76/65/76 82/71/82
f 83/72/83 84/66/84 85/71/85
f 86/67/86 84/66/84 83/72/83
f 87/73/87 88/69/88 89/74/89
f 90/68/90 88/69/88 87/73/87
f 91/75/91 90/68/90 87/73/87
f 92/70/92 90/68/90 91/75/91
f 93/76/93 92/70/92 91/75/91
f 85/71/85 92/70/92 93/76/93
f 94/77/94 85/71/85 93/76/93
f 83/72/83 85/71/85 94/77/94
usemtl tex_1794_lit_w11
f 95/78/95 96/79/96 97/80/97
f 98/81/98 96/79/96 95/78/95
f 99/82/99 100/81/100 101/78/101
f 102/83/102 100/81/100 99/82/99
f 103/84/103 102/83/102 99/82/99
f 104/85/104 102/83/102 103/84/103
f 105/86/105 104/85/104 103/84/103
f 106/87/106 104/85/104 105/86/105
usemtl tex_1795_lit_w11
f 107/88/107 108/89/108 109/90/109
f 110/91/110 108/89/108 107/88/107
f 111/92/111 110/91/110 107/88/107
f 112/93/112 110/91/110 111/92/111
f 113/94/113 112/93/112 111/92/111
f 114/95/114 112/93/112 113/94/113
f 115/96/115 116/95/116 117/94/117
f 118/97/118 116/95/116 115/96/115
usemtl tex_1796_lit_w11
f 119/98/119 120/99/120 121/100/121
f 122/101/122 120/99/120 119/98/119
f 123/102/123 120/99/120 122/101/122
f 119/98/119 121/100/121 124/103/124
f 120/99/120 123/102/123 125/104/125
usemtl tex_1796_lit_w11_ovl
f 124/103/124 126/105/126 119/98/119
f 119/98/119 126/105/126 127/106/127
usemtl tex_1796_lit_w11
f 119/98/119 127/106/127 122/101/122
f 122/101/122 127/106/127 128/107/128
f 122/101/122 128/107/128 123/102/123
f 123/102/123 128/107/128 129/108/129
f 123/102/123 129/108/129 125/104/125
f 125/104/125 129/108/129 130/109/130
usemtl tex_1791_lit
f 131/110/131 132/111/132 133/112/133
f 134/113/134 135/114/135 136/115/136
f 137/116/137 135/114/135 134/113/134
f 131/110/131 135/114/135 137/116/137
f 131/110/131 137/116/137 132/111/132
f 136/115/136 138/117/138 134/113/134
f 134/113/134 138/117/138 139/118/139
f 134/113/134 139/118/139 137/116/137
f 137/116/137 139/118/139 140/119/140
f 137/116/137 140/119/140 132/111/132
f 132/111/132 140/119/140 141/120/141
f 132/111/132 141/120/141 133/112/133
f 133/112/133 141/120/141 142/121/142
f 143/122/143 138/117/138 144/123/144
f 139/118/139 138/117/138 143/122/143
f 145/124/145 139/118/139 143/122/143
f 140/119/140 139/118/139 145/124/145
f 146/125/146 140/119/140 145/124/145
f 141/120/141 140/119/140 146/125/146
f 147/126/147 148/120/148 149/125/149
f 150/121/150 148/120/148 147/126/147
f 151/127/151 152/123/152 153/128/153
f 154/122/154 152/123/152 151/127/151
f 155/129/155 154/122/154 151/127/151
f 156/124/156 154/122/154 155/129/155
f 157/130/157 156/124/156 155/129/155
f 149/125/149 156/124/156 157/130/157
f 158/131/158 149/125/149 157/130/157
f 147/126/147 149/125/149 158/131/158
usemtl tex_1794_lit_w11
f 159/132/159 160/133/160 161/134/161
f 162/135/162 160/133/160 159/132/159
f 163/136/163 164/135/164 165/132/165
f 166/137/166 164/135/164 163/136/163
f 167/138/167 166/137/166 163/136/163
f 168/139/168 166/137/166 167/138/167
f 169/80/169 168/139/168 167/138/167
f 170/140/170 168/139/168 169/80/169
usemtl tex_1795_lit_w11
f 171/141/171 172/142/172 173/143/173
f 174/144/174 172/142/172 171/141/171
f 175/145/175 174/144/174 171/141/171
f 176/146/176 174/144/174 175/145/175
f 177/147/177 176/146/176 175/145/175
f 178/148/178 176/146/176 177/147/177
f 179/149/179 180/148/180 181/147/181
f 182/150/182 180/148/180 179/149/179
usemtl tex_1796_lit_w11
f 183/151/183 184/152/184 185/153/185
f 186/154/186 184/152/184 183/151/183
f 187/155/187 184/152/184 186/154/186
f 183/151/183 185/153/185 188/156/188
f 184/152/184 187/155/187 189/157/189
f 188/156/188 190/158/190 183/151/183
f 183/151/183 190/158/190 191/159/191
f 183/151/183 191/159/191 186/154/186
f 186/154/186 191/159/191 192/160/192
f 186/154/186 192/160/192 187/155/187
f 187/155/187 192/160/192 193/161/193
f 187/155/187 193/161/193 189/157/189
f 189/157/189 193/161/193 194/162/194
usemtl tex_1789_lit
f 195/163/195 196/164/196 197/165/197
f 198/166/198 199/167/199 200/168/200
f 201/169/201 199/167/199 198/166/198
f 195/163/195 199/167/199 201/169/201
f 195/163/195 201/169/201 196/164/196
f 200/168/200 202/170/202 198/166/198
f 198/166/198 202/170/202 203/171/203
f 198/166/198 203/171/203 201/169/201
f 201/169/201 203/171/203 204/172/204
f 201/169/201 204/172/204 196/164/196
f 196/164/196 204/172/204 205/173/205
f 196/164/196 205/173/205 197/165/197
f 197/165/197 205/173/205 206/174/206
f 207/175/207 202/170/202 208/176/208
f 203/171/203 202/170/202 207/175/207
f 209/177/209 203/171/203 207/175/207
f 204/172/204 203/171/203 209/177/209
f 210/178/210 204/172/204 209/177/209
f 205/173/205 204/172/204 210/178/210
f 211/179/211 212/173/212 213/178/213
f 214/174/214 212/173/212 211/179/211
f 215/180/215 216/176/216 217/181/217
f 218/182/218 216/176/216 215/180/215
f 219/183/219 218/182/218 215/180/215
f 220/177/220 218/182/218 219/183/219
f 221/184/221 220/177/220 219/183/219
f 213/178/213 220/177/220 221/184/221
f 222/185/222 213/178/213 221/184/221
f 211/179/211 213/178/213 222/185/222
usemtl tex_1794_lit_w11
f 223/186/223 224/187/224 225/86/225
f 226/188/226 224/187/224 223/186/223
f 227/189/227 228/188/228 229/186/229
f 230/190/230 228/188/228 227/189/227
f 231/191/231 230/190/230 227/189/227
f 232/192/232 230/190/230 231/191/231
f 233/193/233 232/192/232 231/191/231
f 234/194/234 232/192/232 233/193/233
usemtl tex_1795_lit_w11
f 235/195/235 236/196/236 237/197/237
f 238/198/238 236/196/236 235/195/235
f 239/199/239 238/198/238 235/195/235
f 240/200/240 238/198/238 239/199/239
f 241/201/241 240/200/240 239/199/239
f 242/202/242 240/200/240 241/201/241
f 243/203/243 244/202/244 245/201/245
f 246/204/246 244/202/244 243/203/243
usemtl tex_1796_lit_w11
f 247/205/247 248/206/248 249/207/249
f 250/208/250 248/206/248 247/205/247
f 251/209/251 248/206/248 250/208/250
f 247/205/247 249/207/249 252/210/252
f 248/206/248 251/209/251 253/211/253
f 252/210/252 254/212/254 247/205/247
f 247/205/247 254/212/254 255/213/255
f 247/205/247 255/213/255 250/208/250
f 250/208/250 255/213/255 256/214/256
f 250/208/250 256/214/256 251/209/251
f 251/209/251 256/214/256 257/215/257
f 251/209/251 257/215/257 253/211/253
f 253/211/253 257/215/257 258/216/258
usemtl tex_1792_lit
f 259/217/259 260/218/260 261/219/261
f 259/217/259 261/219/261 262/220/262
f 262/220/262 261/219/261 263/221/263
f 262/220/262 263/221/263 264/222/264
f 265/223/265 264/222/264 263/221/263
f 265/223/265 266/224/266 264/222/264
f 266/224/266 265/223/265 267/225/267
f 268/226/268 267/225/267 265/223/265
f 269/227/269 270/228/270 268/226/268
f 271/229/271 269/227/269 268/226/268
f 268/226/268 272/230/272 271/229/271
f 273/231/273 271/229/271 272/230/272
f 274/232/274 273/231/273 272/230/272
f 275/233/275 276/232/276 277/230/277
f 277/230/277 278/234/278 275/233/275
f 279/235/279 275/233/275 278/234/278
f 279/235/279 280/236/280 275/233/275
f 279/235/279 281/237/281 280/236/280
f 279/235/279 282/238/282 281/237/281
f 279/235/279 283/239/283 282/238/282
f 284/240/284 282/238/282 283/239/283
f 283/239/283 285/241/285 284/240/284
usemtl tex_1514_lit
f 286/242/286 287/242/287 288/242/288
usemtl tex_1792_lit
f 289/225/289 290/226/290 291/228/291
f 289/225/289 291/228/291 292/243/292
f 293/239/293 294/244/294 295/245/295
usemtl tex_1797_lit_w11
f 296/246/296 297/247/297 298/248/298
f 296/246/296 298/248/298 299/249/299
f 300/250/300 301/251/301 302/252/302
usemtl tex_1794_lit_w11
f 303/253/303 304/27/304 305/254/305
f 306/255/306 304/27/304 303/253/303
f 306/255/306 307/28/307 304/27/304
f 308/256/308 306/255/306 303/253/303
f 309/257/309 310/258/310 311/259/311
f 312/189/312 313/186/313 309/257/309
f 313/186/313 314/86/314 310/258/310
f 309/257/309 313/186/313 310/258/310
f 315/78/315 316/80/316 317/260/317
f 318/261/318 319/262/319 320/260/320
usemtl tex_1797_lit_w11
f 321/247/321 322/251/322 323/263/323
usemtl tex_1792_lit
f 324/244/324 325/239/325 326/235/326
f 324/244/324 326/235/326 327/234/327
f 328/264/328 327/234/327 329/230/329
f 330/226/330 328/264/328 329/230/329
f 331/265/331 324/244/324 327/234/327
f 331/265/331 327/234/327 328/264/328
f 332/266/332 328/264/328 330/226/330
f 333/267/333 334/266/334 335/223/335
f 334/266/334 336/226/336 335/223/335
usemtl tex_1794_lit_w11
f 337/268/337 338/269/338 339/270/339
f 340/271/340 341/272/341 342/273/342
f 340/271/340 343/274/343 341/272/341
f 343/274/343 344/275/344 341/272/341
f 344/275/344 345/276/345 341/272/341
usemtl tex_1798_lit_w11_ovl
f 346/277/346 347/278/347 348/279/348
usemtl tex_1798_lit_w11
f 349/278/349 350/277/350 351/280/351
f 349/278/349 351/280/351 352/281/352
usemtl tex_1797_lit_w11
f 353/282/353 354/283/354 355/284/355
f 354/283/354 353/282/353 356/285/356
f 354/283/354 357/247/357 355/284/355
f 355/284/355 357/247/357 358/286/358
f 358/286/358 357/247/357 359/246/359
f 359/246/359 360/287/360 358/286/358
f 358/286/358 360/287/360 361/288/361
f 360/287/360 362/289/362 361/288/361
f 362/289/362 363/290/363 361/288/361
f 362/289/362 364/291/364 363/290/363
f 365/291/365 366/292/366 367/290/367
usemtl tex_1794_lit_w11
f 368/293/368 369/294/369 370/295/370
f 370/295/370 369/294/369 371/296/371
f 369/294/369 372/270/372 371/296/371
f 372/270/372 373/269/373 371/296/371
f 374/273/374 375/297/375 376/271/376
f 377/268/377 375/297/375 373/269/373
f 377/268/377 376/271/376 375/297/375
usemtl tex_1794_lit_w11_ovl
f 378/298/378 379/299/379 380/300/380
usemtl tex_1794_lit_w11
f 381/298/381 382/301/382 383/299/383
f 384/302/384 385/303/385 386/134/386
f 387/304/387 388/32/388 389/30/389
f 387/304/387 389/30/389 390/305/390
f 389/30/389 391/255/391 390/305/390
f 389/30/389 392/28/392 391/255/391
f 393/253/393 394/254/394 395/193/395
f 393/253/393 395/193/395 396/191/396
f 397/257/397 398/253/398 399/191/399
f 397/257/397 399/191/399 400/189/400
f 401/86/401 402/84/402 403/258/403
f 402/84/402 408/262/408 403/258/403
f 409/82/409 408/262/408 402/84/402
f 409/82/409 410/78/410 408/262/408
f 410/78/410 407/260/407 408/262/408
f 411/138/411 407/260/407 404/80/404
f 412/303/412 413/132/413 414/134/414
f 412/303/412 415/306/415 413/132/413
f 416/260/416 417/138/417 418/136/418
f 418/136/418 415/306/415 416/260/416
f 413/132/413 415/306/415 418/136/418
f 419/261/419 420/271/420 421/307/421
f 422/308/422 416/260/416 415/306/415
usemtl tex_1797_lit_w11
f 423/248/423 424/247/424 425/309/425
f 424/247/424 426/263/426 425/309/425
f 427/247/427 428/310/428 429/251/429
f 430/283/430 428/310/428 427/247/427
f 431/311/431 428/310/428 430/283/430
f 430/283/430 432/312/432 431/311/431
f 430/283/430 433/285/433 432/312/432
usemtl tex_1798_lit_w11
f 434/313/434 435/280/435 436/314/436
f 436/314/436 435/280/435 437/315/437
f 437/315/437 435/280/435 438/277/438
f 438/277/438 439/279/439 437/315/437
f 439/279/439 440/316/440 437/315/437
usemtl tex_1792_lit
f 441/218/441 442/317/442 443/318/443
f 441/218/441 443/318/443 444/219/444
f 443/318/443 445/319/445 444/219/444
f 445/319/445 446/221/446 444/219/444
f 447/267/447 446/221/446 445/319/445
f 447/267/447 448/223/448 446/221/446
usemtl tex_1797_lit_w11
f 449/320/449 450/291/450 451/289/451
f 451/289/451 452/321/452 449/320/449
f 451/289/451 453/287/453 452/321/452
f 452/321/452 453/287/453 454/322/454
f 453/287/453 455/249/455 454/322/454
f 453/287/453 456/246/456 455/249/455
usemtl tex_1798_lit_w11
f 457/323/457 458/324/458 459/315/459
f 460/316/460 457/323/457 459/315/459
usemtl tex_1794_lit_w11
f 461/303/461 462/302/462 463/325/463
usemtl tex_1794_lit_w11_ovl
f 461/303/461 464/326/464 465/325/465
usemtl tex_1794_lit_w11
f 466/306/466 461/303/461 467/326/467
f 466/306/466 467/326/467 468/308/468
f 468/308/468 469/261/469 470/260/470
f 469/261/469 471/307/471 472/262/472
f 473/307/473 474/258/474 475/262/475
f 473/307/473 476/259/476 474/258/474
f 477/327/477 478/257/478 476/259/476
f 479/253/479 478/257/478 477/327/477
f 479/253/479 477/327/477 480/256/480
f 480/256/480 481/328/481 482/255/482
f 481/328/481 483/305/483 482/255/482
f 484/329/484 483/305/483 481/328/481
f 484/329/484 485/304/485 483/305/483
usemtl tex_1794_lit_w11_ovl
f 486/330/486 485/304/485 484/329/484
f 486/330/486 484/329/484 487/293/487
f 484/329/484 488/294/488 487/293/487
usemtl tex_1794_lit_w11
f 488/294/488 484/329/484 481/328/481
f 489/328/489 490/270/490 491/294/491
f 492/256/492 490/270/490 489/328/489
f 492/256/492 493/327/493 490/270/490
f 490/270/490 493/327/493 494/259/494
f 495/268/495 490/270/490 494/259/494
f 495/268/495 494/259/494 496/307/496
f 497/271/497 495/268/495 496/307/496
f 498/261/498 499/308/499 497/271/497
f 499/308/499 500/326/500 497/271/497
f 497/271/497 500/326/500 501/274/501
f 502/326/502 503/325/503 504/275/504
f 504/275/504 501/274/501 500/326/500
usemtl tex_1798_lit_w11
f 505/331/505 506/313/506 507/314/507
f 508/332/508 505/331/505 507/314/507
f 508/332/508 507/314/507 509/315/509
f 510/333/510 508/332/508 509/315/509
f 506/313/506 505/331/505 511/334/511
usemtl tex_1797_lit_w11
f 512/311/512 513/312/513 514/335/514
f 512/311/512 514/335/514 515/336/515
f 512/311/512 515/336/515 516/337/516
f 516/337/516 517/310/517 512/311/512
f 516/337/516 518/338/518 517/310/517
f 517/310/517 518/338/518 519/251/519
f 520/252/520 519/251/519 518/338/518
usemtl tex_1798_lit_w11
f 527/339/527 528/331/528 529/340/529
f 529/340/529 528/331/528 530/332/530
f 529/340/529 530/332/530 531/341/531
f 531/341/531 530/332/530 526/333/526
f 531/341/531 526/333/526 532/342/532
f 532/342/532 526/333/526 533/333/533
usemtl tex_1797_lit_w11
f 534/343/534 535/252/535 536/344/536
f 537/344/537 538/252/538 539/338/539
f 537/344/537 539/338/539 540/345/540
f 540/345/540 539/338/539 541/337/541
f 540/345/540 541/337/541 542/346/542
f 542/346/542 541/337/541 543/336/543
f 542/346/542 543/336/543 544/347/544
f 544/347/544 543/336/543 545/335/545
usemtl tex_1798_lit_w11
f 546/348/546 547/334/547 548/339/548
f 548/339/548 547/334/547 549/331/549
usemtl tex_1797_lit_w11
f 550/349/550 542/346/542 544/347/544
f 544/347/544 551/350/551 550/349/550
usemtl tex_1798_lit_w11
f 552/348/552 553/351/553 554/348/554
f 555/352/555 553/351/553 552/348/552
f 555/352/555 552/348/552 556/339/556
usemtl tex_1797_lit_w11
f 557/345/557 558/346/558 559/349/559
f 557/345/557 559/349/559 560/353/560
f 561/344/561 557/345/557 560/353/560
usemtl tex_1798_lit_w11
f 555/352/555 556/339/556 562/354/562
f 563/355/563 562/354/562 564/340/564
f 562/354/562 556/339/556 564/340/564
f 565/356/565 566/355/566 567/341/567
f 568/341/568 569/342/569 570/356/570
usemtl tex_1797_lit_w11
f 571/357/571 572/358/572 573/359/573
f 574/360/574 575/344/575 576/353/576
usemtl tex_1798_lit_w11
f 577/340/577 568/341/568 578/355/578
usemtl tex_1795_lit_w11
f 579/361/579 580/362/580 581/363/581
f 581/363/581 580/362/580 582/364/582
f 581/363/581 582/364/582 583/365/583
f 584/365/584 585/364/585 586/366/586
f 584/365/584 586/366/586 587/367/587
f 587/367/587 586/366/586 588/368/588
f 587/367/587 588/368/588 589/369/589
f 589/369/589 588/368/588 590/370/590
f 589/369/589 590/370/590 591/371/591
f 591/371/591 590/370/590 592/372/592
f 591/371/591 592/372/592 593/373/593
f 593/373/593 592/372/592 594/374/594
f 593/373/593 594/374/594 595/375/595
f 595/375/595 594/374/594 596/376/596
f 595/375/595 596/376/596 597/361/597
usemtl tex_1795_lit_w11_ovl
f 597/361/597 596/376/596 598/362/598
usemtl tex_1795_lit_w11
f 599/363/599 600/377/600 601/378/601
f 602/365/602 600/377/600 599/363/599
f 603/367/603 600/377/600 602/365/602
f 599/363/599 601/378/601 604/361/604
f 601/378/601 605/375/605 604/361/604
f 600/377/600 603/367/603 606/369/606
f 607/371/607 600/377/600 606/369/606
f 608/373/608 600/377/600 607/371/607
f 601/378/601 600/377/600 608/373/608
f 609/378/609 610/373/610 605/375/605
usemtl tex_1794_lit_w11
f 611/272/611 612/379/612 613/380/613
f 613/380/613 614/273/614 611/272/611
f 614/273/614 613/380/613 615/297/615
f 615/297/615 613/380/613 616/381/616
f 617/269/617 615/297/615 616/381/616
f 617/269/617 616/381/616 618/382/618
f 619/296/619 617/269/617 618/382/618
f 619/296/619 618/382/618 620/295/620
usemtl tex_1793_lit_w11
f 621/383/621 622/384/622 623/385/623
usemtl tex_1797_lit_w11
f 624/386/624 625/387/625 626/388/626
f 627/386/627 628/388/628 629/389/629
f 630/390/630 627/386/627 629/389/629
f 630/390/630 629/389/629 631/391/631
f 632/392/632 630/390/630 631/391/631
f 632/392/632 631/391/631 633/393/633
f 634/394/634 632/392/632 633/393/633
usemtl tex_1798_lit_w11
f 635/281/635 636/395/636 637/278/637
f 638/396/638 636/395/636 639/397/639
usemtl tex_1794_lit_w11
f 640/272/640 641/276/641 642/379/642
usemtl tex_1793_lit_w11
f 643/398/643 644/383/644 645/385/645
usemtl tex_1796_lit_w11
f 646/399/646 647/400/647 648/401/648
f 649/402/649 647/400/647 646/399/646
usemtl tex_1793_lit_w11
f 650/403/650 651/404/651 652/405/652
f 653/406/653 651/404/651 650/403/650
f 654/407/654 653/406/653 650/403/650
f 655/408/655 653/406/653 654/407/654
f 656/409/656 655/408/655 654/407/654
f 657/410/657 655/408/655 656/409/656
f 658/411/658 657/410/657 656/409/656
f 644/383/644 657/410/657 658/411/658
usemtl tex_1793_lit_w11_ovl
f 659/412/659 660/383/660 661/411/661
usemtl tex_1793_lit_w11
f 662/384/662 660/383/660 659/412/659
usemtl tex_1796_lit_w11_ovl
f 663/413/663 664/414/664 665/415/665
usemtl tex_1796_lit_w11
f 666/416/666 664/414/664 663/413/663
f 667/401/667 666/416/666 663/413/663
f 668/400/668 666/416/666 667/401/667
usemtl tex_1605_lit_w11
f 669/417/669 670/418/670 671/419/671
f 671/419/671 670/418/670 672/420/672
f 671/419/671 672/420/672 673/421/673
f 672/420/672 674/422/674 673/421/673
f 675/422/675 676/420/676 677/423/677
f 675/422/675 677/423/677 678/424/678
f 677/423/677 679/425/679 678/424/678
f 679/425/679 677/423/677 680/426/680
f 679/425/679 680/426/680 681/427/681
f 681/427/681 680/426/680 682/428/682
f 681/427/681 682/428/682 683/425/683
f 683/425/683 682/428/682 684/426/684
f 683/425/683 684/426/684 685/422/685
f 685/422/685 684/426/684 686/423/686
f 685/422/685 686/423/686 687/419/687
f 687/419/687 686/423/686 688/420/688
f 687/419/687 688/420/688 689/417/689
f 689/417/689 688/420/688 690/418/690
usemtl tex_1638_lit_w11
f 691/242/691 692/429/692 693/430/693
f 693/430/693 692/429/692 694/431/694
f 695/432/695 696/433/696 697/434/697
f 696/433/696 698/435/698 697/434/697
f 698/435/698 696/433/696 699/436/699
f 700/437/700 701/431/701 702/438/702
f 701/431/701 703/242/703 702/438/702
f 703/242/703 701/431/701 704/439/704
f 703/242/703 704/439/704 705/437/705
f 705/437/705 704/439/704 706/431/706
f 707/440/707 708/441/708 709/437/709
f 709/437/709 708/441/708 710/431/710
f 711/242/711 712/442/712 713/443/713
f 713/443/713 712/442/712 714/431/714
f 715/242/715 716/439/716 717/437/717
f 717/437/717 716/439/716 718/431/718
f 719/242/719 720/439/720 721/437/721
f 721/437/721 720/439/720 722/431/722
