mtllib GgoldengunZ.mtl
v -29.969461000135198 25.885658264160156 182.86971855163574 1.000 1.000 1.000
v 0.030538999864802463 25.885658264160156 182.86971855163574 1.000 1.000 1.000
v 0.030538999864802463 -4.114341735839844 182.86971855163574 1.000 1.000 1.000
v -29.969461000135198 -4.114341735839844 182.86971855163574 1.000 1.000 1.000
v 0.030538999864802463 25.885658264160156 182.86971855163574 1.000 1.000 1.000
v 30.030538999864802 25.885658264160156 182.86971855163574 1.000 1.000 1.000
v 30.030538999864802 -4.114341735839844 182.86971855163574 1.000 1.000 1.000
v 0.030538999864802463 -4.114341735839844 182.86971855163574 1.000 1.000 1.000
v -29.969461000135198 -4.114341735839844 182.86971855163574 1.000 1.000 1.000
v 0.030538999864802463 -4.114341735839844 182.86971855163574 1.000 1.000 1.000
v 0.030538999864802463 -34.114341735839844 182.86971855163574 1.000 1.000 1.000
v -29.969461000135198 -34.114341735839844 182.86971855163574 1.000 1.000 1.000
v 0.030538999864802463 -4.114341735839844 182.86971855163574 1.000 1.000 1.000
v 30.030538999864802 -4.114341735839844 182.86971855163574 1.000 1.000 1.000
v 30.030538999864802 -34.114341735839844 182.86971855163574 1.000 1.000 1.000
v 0.030538999864802463 -34.114341735839844 182.86971855163574 1.000 1.000 1.000
v -29.969471000134945 94.54345703125 319.0467224121094 1.000 1.000 1.000
v 0.030528999865055084 94.54345703125 319.0467224121094 1.000 1.000 1.000
v 0.030528999865055084 64.54345703125 319.0467224121094 1.000 1.000 1.000
v -29.969471000134945 64.54345703125 319.0467224121094 1.000 1.000 1.000
v 0.030528999865055084 94.54345703125 319.0467224121094 1.000 1.000 1.000
v 30.030528999865055 94.54345703125 319.0467224121094 1.000 1.000 1.000
v 30.030528999865055 64.54345703125 319.0467224121094 1.000 1.000 1.000
v 0.030528999865055084 64.54345703125 319.0467224121094 1.000 1.000 1.000
v -29.969471000134945 64.54345703125 319.0467224121094 1.000 1.000 1.000
v 0.030528999865055084 64.54345703125 319.0467224121094 1.000 1.000 1.000
v 0.030528999865055084 34.54345703125 319.0467224121094 1.000 1.000 1.000
v -29.969471000134945 34.54345703125 319.0467224121094 1.000 1.000 1.000
v 0.030528999865055084 64.54345703125 319.0467224121094 1.000 1.000 1.000
v 30.030528999865055 64.54345703125 319.0467224121094 1.000 1.000 1.000
v 30.030528999865055 34.54345703125 319.0467224121094 1.000 1.000 1.000
v 0.030528999865055084 34.54345703125 319.0467224121094 1.000 1.000 1.000
v -30.910846710205078 22.089168548583984 81.40367126464844 1.000 1.000 1.000
v 1.0891532897949219 22.089168548583984 91.40367126464844 1.000 1.000 1.000
v -26.910846710205078 25.089168548583984 74.40367126464844 1.000 1.000 1.000
v -1.9108467102050781 20.089168548583984 97.40367126464844 1.000 1.000 1.000
v -31.910846710205078 14.089168548583984 82.40367126464844 1.000 1.000 1.000
v -2.910846710205078 13.089168548583984 98.40367126464844 1.000 1.000 1.000
v -31.910846710205078 6.089168548583984 81.40367126464844 1.000 1.000 1.000
v -2.910846710205078 7.089168548583984 97.40367126464844 1.000 1.000 1.000
v -20.910846710205078 14.089168548583984 64.40367126464844 1.000 1.000 1.000
v 4.089153289794922 6.089168548583984 86.40367126464844 1.000 1.000 1.000
v -22.910846710205078 6.089168548583984 67.40367126464844 1.000 1.000 1.000
v 6.089153289794922 13.089168548583984 83.40367126464844 1.000 1.000 1.000
v -22.910846710205078 22.089168548583984 67.40367126464844 1.000 1.000 1.000
v 4.089153289794922 19.089168548583984 86.40367126464844 1.000 1.000 1.000
v 7.089153289794922 22.089168548583984 89.40367126464844 1.000 1.000 1.000
v 12.089153289794922 19.089168548583984 93.40367126464844 1.000 1.000 1.000
v 12.089153289794922 19.089168548583984 93.40367126464844 1.000 1.000 1.000
v -1.9108467102050781 20.089168548583984 97.40367126464844 1.000 1.000 1.000
v 12.089153289794922 12.089168548583984 93.40367126464844 1.000 1.000 1.000
v -2.910846710205078 13.089168548583984 98.40367126464844 1.000 1.000 1.000
v 11.089153289794922 6.089168548583984 93.40367126464844 1.000 1.000 1.000
v -2.910846710205078 7.089168548583984 97.40367126464844 1.000 1.000 1.000
v 0.08915328979492188 4.089168548583984 91.40367126464844 1.000 1.000 1.000
v 7.089153289794922 3.0891685485839844 89.40367126464844 1.000 1.000 1.000
v 1.0891532897949219 22.089168548583984 91.40367126464844 1.000 1.000 1.000
v 7.089153289794922 22.089168548583984 89.40367126464844 1.000 1.000 1.000
v 4.089153289794922 19.089168548583984 86.40367126464844 1.000 1.000 1.000
v 21.089153289794922 21.089168548583984 71.40367126464844 1.000 1.000 1.000
v 7.089153289794922 22.089168548583984 89.40367126464844 1.000 1.000 1.000
v 25.089153289794922 18.089168548583984 75.40367126464844 1.000 1.000 1.000
v 12.089153289794922 19.089168548583984 93.40367126464844 1.000 1.000 1.000
v 26.089153289794922 12.089168548583984 75.40367126464844 1.000 1.000 1.000
v 26.089153289794922 12.089168548583984 75.40367126464844 1.000 1.000 1.000
v 12.089153289794922 19.089168548583984 93.40367126464844 1.000 1.000 1.000
v 12.089153289794922 12.089168548583984 93.40367126464844 1.000 1.000 1.000
v 25.089153289794922 6.089168548583984 75.40367126464844 1.000 1.000 1.000
v 11.089153289794922 6.089168548583984 93.40367126464844 1.000 1.000 1.000
v 20.089153289794922 3.0891685485839844 71.40367126464844 1.000 1.000 1.000
v 7.089153289794922 3.0891685485839844 89.40367126464844 1.000 1.000 1.000
v 18.089153289794922 6.089168548583984 69.40367126464844 1.000 1.000 1.000
v 2.089153289794922 6.089168548583984 86.40367126464844 1.000 1.000 1.000
v 16.089153289794922 12.089168548583984 68.40367126464844 1.000 1.000 1.000
v 0.08915328979492188 13.089168548583984 84.40367126464844 1.000 1.000 1.000
v 18.089153289794922 19.089168548583984 69.40367126464844 1.000 1.000 1.000
v 2.089153289794922 19.089168548583984 86.40367126464844 1.000 1.000 1.000
v 21.089153289794922 21.089168548583984 71.40367126464844 1.000 1.000 1.000
v 7.089153289794922 22.089168548583984 89.40367126464844 1.000 1.000 1.000
v 25.089153289794922 18.089168548583984 75.40367126464844 1.000 1.000 1.000
v 28.089153289794922 7.089168548583984 67.40367126464844 1.000 1.000 1.000
v 29.089153289794922 16.089168548583984 67.40367126464844 1.000 1.000 1.000
v 26.089153289794922 12.089168548583984 75.40367126464844 1.000 1.000 1.000
v 25.089153289794922 6.089168548583984 75.40367126464844 1.000 1.000 1.000
v 21.089153289794922 21.089168548583984 71.40367126464844 1.000 1.000 1.000
v 18.089153289794922 19.089168548583984 69.40367126464844 1.000 1.000 1.000
v 20.089153289794922 3.0891685485839844 71.40367126464844 1.000 1.000 1.000
v 18.089153289794922 6.089168548583984 69.40367126464844 1.000 1.000 1.000
v 16.089153289794922 12.089168548583984 68.40367126464844 1.000 1.000 1.000
v -39.0 -42.0 40.0 1.000 1.000 1.000
v -35.0 -34.0 37.0 1.000 1.000 1.000
v -46.0 -41.0 25.0 1.000 1.000 1.000
v -42.0 -29.0 17.0 1.000 1.000 1.000
v -31.0 -28.0 35.0 1.000 1.000 1.000
v -29.0 -6.0 72.0 1.000 1.000 1.000
v -20.0 -9.0 71.0 1.000 1.000 1.000
v -32.0 0.0 36.0 1.000 1.000 1.000
v -41.0 -7.0 37.0 1.000 1.000 1.000
v -32.0 0.0 36.0 1.000 1.000 1.000
v -40.0 3.0 18.0 1.000 1.000 1.000
v -36.0 -10.0 73.0 1.000 1.000 1.000
v -46.0 -15.0 38.0 1.000 1.000 1.000
v -48.0 -13.0 25.0 1.000 1.000 1.000
v -27.0 -7.0 35.0 1.000 1.000 1.000
v -17.0 -17.0 70.0 1.000 1.000 1.000
v -27.0 -7.0 35.0 1.000 1.000 1.000
v -17.0 -17.0 70.0 1.000 1.000 1.000
v -24.0 -14.0 34.0 1.000 1.000 1.000
v -39.0 -18.0 74.0 1.000 1.000 1.000
v -36.0 -10.0 73.0 1.000 1.000 1.000
v -46.0 -15.0 38.0 1.000 1.000 1.000
v -41.0 -7.0 37.0 1.000 1.000 1.000
v 15.0 -6.0 66.0 1.000 1.000 1.000
v 16.0 -9.0 59.0 1.000 1.000 1.000
v -23.0 -6.0 77.0 1.000 1.000 1.000
v -22.0 -9.0 69.0 1.000 1.000 1.000
v 17.0 -15.0 56.0 1.000 1.000 1.000
v 15.0 -9.0 72.0 1.000 1.000 1.000
v -24.0 -9.0 85.0 1.000 1.000 1.000
v -39.0 22.0 68.0 1.000 1.000 1.000
v -31.0 22.0 81.0 1.000 1.000 1.000
v -31.0 26.0 69.0 1.000 1.000 1.000
v -32.0 14.0 83.0 1.000 1.000 1.000
v -43.0 14.0 68.0 1.000 1.000 1.000
v -40.0 6.0 68.0 1.000 1.000 1.000
v -32.0 6.0 81.0 1.000 1.000 1.000
v -27.0 26.0 75.0 1.000 1.000 1.000
v -23.0 22.0 69.0 1.000 1.000 1.000
v -36.0 24.0 35.0 1.000 1.000 1.000
v -31.0 26.0 69.0 1.000 1.000 1.000
v -28.0 26.0 36.0 1.000 1.000 1.000
v -39.0 22.0 68.0 1.000 1.000 1.000
v -41.0 15.0 35.0 1.000 1.000 1.000
v -43.0 14.0 68.0 1.000 1.000 1.000
v -36.0 7.0 35.0 1.000 1.000 1.000
v -40.0 6.0 68.0 1.000 1.000 1.000
v -43.0 14.0 68.0 1.000 1.000 1.000
v -36.0 7.0 35.0 1.000 1.000 1.000
v -18.0 14.0 37.0 1.000 1.000 1.000
v -23.0 6.0 69.0 1.000 1.000 1.000
v -22.0 7.0 36.0 1.000 1.000 1.000
v -20.0 14.0 70.0 1.000 1.000 1.000
v -21.0 23.0 36.0 1.000 1.000 1.000
v -23.0 22.0 69.0 1.000 1.000 1.000
v -28.0 26.0 36.0 1.000 1.000 1.000
v -31.0 26.0 69.0 1.000 1.000 1.000
v -34.0 27.0 18.0 1.000 1.000 1.000
v -42.0 19.0 25.0 1.000 1.000 1.000
v -36.0 24.0 35.0 1.000 1.000 1.000
v -25.0 30.0 7.0 1.000 1.000 1.000
v -18.0 26.0 19.0 1.000 1.000 1.000
v -21.0 23.0 36.0 1.000 1.000 1.000
v -18.0 14.0 37.0 1.000 1.000 1.000
v 17.0 13.0 24.0 1.000 1.000 1.000
v -28.0 26.0 36.0 1.000 1.000 1.000
v -25.0 30.0 7.0 1.000 1.000 1.000
v -36.0 24.0 35.0 1.000 1.000 1.000
v -42.0 19.0 25.0 1.000 1.000 1.000
v -41.0 15.0 35.0 1.000 1.000 1.000
v -40.0 3.0 18.0 1.000 1.000 1.000
v -36.0 7.0 35.0 1.000 1.000 1.000
v -32.0 0.0 36.0 1.000 1.000 1.000
v 7.0 -58.0 59.0 1.000 1.000 1.000
v 7.0 31.0 59.0 1.000 1.000 1.000
v -7.0 31.0 59.0 1.000 1.000 1.000
v -7.0 -58.0 59.0 1.000 1.000 1.000
v -7.0 31.0 14.0 1.000 1.000 1.000
v 7.0 31.0 14.0 1.000 1.000 1.000
v 7.0 -58.0 14.0 1.000 1.000 1.000
v -7.0 -58.0 14.0 1.000 1.000 1.000
v 15.0 -6.0 66.0 1.000 1.000 1.000
v 20.0 -7.0 61.0 1.000 1.000 1.000
v 16.0 -9.0 59.0 1.000 1.000 1.000
v 27.0 -9.0 62.0 1.000 1.000 1.000
v 15.0 -9.0 72.0 1.000 1.000 1.000
v 19.0 -7.0 39.0 1.000 1.000 1.000
v 25.0 -9.0 39.0 1.000 1.000 1.000
v 26.0 -16.0 39.0 1.000 1.000 1.000
v 28.0 -16.0 62.0 1.000 1.000 1.000
v 25.0 -22.0 39.0 1.000 1.000 1.000
v 27.0 -22.0 62.0 1.000 1.000 1.000
v 19.0 -25.0 39.0 1.000 1.000 1.000
v 21.0 -25.0 62.0 1.000 1.000 1.000
v 16.0 -23.0 39.0 1.000 1.000 1.000
v 14.0 -22.0 61.0 1.000 1.000 1.000
v 13.0 -16.0 39.0 1.000 1.000 1.000
v 13.0 -16.0 39.0 1.000 1.000 1.000
v 14.0 -22.0 61.0 1.000 1.000 1.000
v 11.0 -14.0 61.0 1.000 1.000 1.000
v 15.0 -10.0 39.0 1.000 1.000 1.000
v 14.0 -10.0 61.0 1.000 1.000 1.000
v 19.0 -7.0 39.0 1.000 1.000 1.000
v 20.0 -7.0 61.0 1.000 1.000 1.000
v 25.0 -9.0 39.0 1.000 1.000 1.000
v 21.0 -21.0 32.0 1.000 1.000 1.000
v 21.0 -12.0 32.0 1.000 1.000 1.000
v 26.0 -16.0 39.0 1.000 1.000 1.000
v 25.0 -22.0 39.0 1.000 1.000 1.000
v 19.0 -25.0 39.0 1.000 1.000 1.000
v 16.0 -23.0 39.0 1.000 1.000 1.000
v 19.0 -26.0 64.0 1.000 1.000 1.000
v 21.0 -23.0 53.0 1.000 1.000 1.000
v 18.0 -24.0 57.0 1.000 1.000 1.000
v 27.0 -26.0 52.0 1.000 1.000 1.000
v 20.0 -32.0 65.0 1.000 1.000 1.000
v 28.0 -32.0 51.0 1.000 1.000 1.000
v 28.0 -38.0 51.0 1.000 1.000 1.000
v 20.0 -39.0 65.0 1.000 1.000 1.000
v 22.0 -42.0 52.0 1.000 1.000 1.000
v 20.0 -42.0 58.0 1.000 1.000 1.000
v 16.0 -26.0 54.0 1.000 1.000 1.000
v 17.0 -22.0 31.0 1.000 1.000 1.000
v 21.0 -23.0 53.0 1.000 1.000 1.000
v 23.0 -24.0 29.0 1.000 1.000 1.000
v 27.0 -26.0 52.0 1.000 1.000 1.000
v 24.0 -31.0 29.0 1.000 1.000 1.000
v 24.0 -31.0 29.0 1.000 1.000 1.000
v 27.0 -26.0 52.0 1.000 1.000 1.000
v 28.0 -32.0 51.0 1.000 1.000 1.000
v 24.0 -37.0 29.0 1.000 1.000 1.000
v 28.0 -38.0 51.0 1.000 1.000 1.000
v 18.0 -40.0 30.0 1.000 1.000 1.000
v 22.0 -42.0 52.0 1.000 1.000 1.000
v 22.0 -42.0 52.0 1.000 1.000 1.000
v 15.0 -38.0 30.0 1.000 1.000 1.000
v 16.0 -39.0 53.0 1.000 1.000 1.000
v 12.0 -32.0 31.0 1.000 1.000 1.000
v 14.0 -33.0 54.0 1.000 1.000 1.000
v 14.0 -25.0 31.0 1.000 1.000 1.000
v 16.0 -26.0 54.0 1.000 1.000 1.000
v 17.0 -22.0 31.0 1.000 1.000 1.000
v 21.0 -23.0 53.0 1.000 1.000 1.000
v 23.0 -24.0 29.0 1.000 1.000 1.000
v 20.0 -35.0 22.0 1.000 1.000 1.000
v 20.0 -26.0 22.0 1.000 1.000 1.000
v 24.0 -31.0 29.0 1.000 1.000 1.000
v 24.0 -37.0 29.0 1.000 1.000 1.000
v 17.0 -22.0 31.0 1.000 1.000 1.000
v 14.0 -25.0 31.0 1.000 1.000 1.000
v 18.0 -40.0 30.0 1.000 1.000 1.000
v 15.0 -38.0 30.0 1.000 1.000 1.000
v 12.0 -32.0 31.0 1.000 1.000 1.000
v 16.0 -45.0 62.0 1.000 1.000 1.000
v 20.0 -43.0 51.0 1.000 1.000 1.000
v 18.0 -43.0 56.0 1.000 1.000 1.000
v 26.0 -45.0 52.0 1.000 1.000 1.000
v 17.0 -51.0 63.0 1.000 1.000 1.000
v 28.0 -50.0 51.0 1.000 1.000 1.000
v 17.0 -57.0 62.0 1.000 1.000 1.000
v 28.0 -56.0 51.0 1.000 1.000 1.000
v 20.0 -60.0 57.0 1.000 1.000 1.000
v 21.0 -59.0 50.0 1.000 1.000 1.000
v 15.0 -46.0 52.0 1.000 1.000 1.000
v 16.0 -41.0 31.0 1.000 1.000 1.000
v 21.0 -43.0 30.0 1.000 1.000 1.000
v 22.0 -48.0 29.0 1.000 1.000 1.000
v 22.0 -54.0 29.0 1.000 1.000 1.000
v 17.0 -57.0 29.0 1.000 1.000 1.000
v 17.0 -57.0 29.0 1.000 1.000 1.000
v 21.0 -59.0 50.0 1.000 1.000 1.000
v 15.0 -55.0 30.0 1.000 1.000 1.000
v 16.0 -57.0 51.0 1.000 1.000 1.000
v 12.0 -49.0 31.0 1.000 1.000 1.000
v 13.0 -52.0 52.0 1.000 1.000 1.000
v 14.0 -43.0 32.0 1.000 1.000 1.000
v 15.0 -46.0 52.0 1.000 1.000 1.000
v 16.0 -41.0 31.0 1.000 1.000 1.000
v 20.0 -43.0 51.0 1.000 1.000 1.000
v 21.0 -43.0 30.0 1.000 1.000 1.000
v 19.0 -52.0 22.0 1.000 1.000 1.000
v 18.0 -44.0 23.0 1.000 1.000 1.000
v 22.0 -48.0 29.0 1.000 1.000 1.000
v 22.0 -54.0 29.0 1.000 1.000 1.000
v 21.0 -43.0 30.0 1.000 1.000 1.000
v 18.0 -44.0 23.0 1.000 1.000 1.000
v 16.0 -41.0 31.0 1.000 1.000 1.000
v 14.0 -43.0 32.0 1.000 1.000 1.000
v 16.0 -41.0 31.0 1.000 1.000 1.000
v 19.0 -52.0 22.0 1.000 1.000 1.000
v 22.0 -54.0 29.0 1.000 1.000 1.000
v 17.0 -57.0 29.0 1.000 1.000 1.000
v 15.0 -55.0 30.0 1.000 1.000 1.000
v 12.0 -49.0 31.0 1.000 1.000 1.000
v 19.0 -52.0 22.0 1.000 1.000 1.000
v -17.0 -42.0 0.0 1.000 1.000 1.000
v -19.0 -38.0 27.0 1.000 1.000 1.000
v -18.0 -54.0 11.0 1.000 1.000 1.000
v -16.0 -26.0 0.0 1.000 1.000 1.000
v -25.0 -26.0 19.0 1.000 1.000 1.000
v -21.0 -14.0 27.0 1.000 1.000 1.000
v -11.0 -24.0 2.0 1.000 1.000 1.000
v -7.0 -7.0 4.0 1.000 1.000 1.000
v -20.0 2.0 19.0 1.000 1.000 1.000
v -42.0 -65.0 13.0 1.000 1.000 1.000
v -35.0 -65.0 26.0 1.000 1.000 1.000
v -31.0 -58.0 23.0 1.000 1.000 1.000
v -38.0 -53.0 10.0 1.000 1.000 1.000
v -25.0 -55.0 21.0 1.000 1.000 1.000
v -46.0 -41.0 25.0 1.000 1.000 1.000
v -42.0 -29.0 17.0 1.000 1.000 1.000
v -40.0 -29.0 -2.0 1.000 1.000 1.000
v -41.0 -41.0 -3.0 1.000 1.000 1.000
v -38.0 -53.0 10.0 1.000 1.000 1.000
v -37.0 -53.0 -2.0 1.000 1.000 1.000
v -42.0 -65.0 13.0 1.000 1.000 1.000
v -38.0 -65.0 -2.0 1.000 1.000 1.000
v -36.0 -73.0 10.0 1.000 1.000 1.000
v -34.0 -73.0 -2.0 1.000 1.000 1.000
v -27.0 -78.0 7.0 1.000 1.000 1.000
v -35.0 -29.0 -19.0 1.000 1.000 1.000
v -31.0 -33.0 -43.0 1.000 1.000 1.000
v -32.0 -53.0 -19.0 1.000 1.000 1.000
v 4.0 -47.0 -16.0 1.000 1.000 1.000
v -1.0 -63.0 -16.0 1.000 1.000 1.000
v 23.0 -41.0 -38.0 1.000 1.000 1.000
v 12.0 -59.0 -40.0 1.000 1.000 1.000
v -13.0 -70.0 -17.0 1.000 1.000 1.000
v -1.0 -64.0 -41.0 1.000 1.000 1.000
v -22.0 -74.0 -18.0 1.000 1.000 1.000
v -9.0 -64.0 -41.0 1.000 1.000 1.000
v -22.0 -74.0 -18.0 1.000 1.000 1.000
v -29.0 -69.0 -19.0 1.000 1.000 1.000
v -9.0 -64.0 -41.0 1.000 1.000 1.000
v -28.0 -51.0 -43.0 1.000 1.000 1.000
v -32.0 -53.0 -19.0 1.000 1.000 1.000
v -31.0 -33.0 -43.0 1.000 1.000 1.000
v -35.0 -29.0 -19.0 1.000 1.000 1.000
v -30.0 -15.0 -43.0 1.000 1.000 1.000
v -35.0 -29.0 -19.0 1.000 1.000 1.000
v -33.0 3.0 -19.0 1.000 1.000 1.000
v -30.0 -15.0 -43.0 1.000 1.000 1.000
v -38.0 3.0 -2.0 1.000 1.000 1.000
v -43.0 -13.0 -3.0 1.000 1.000 1.000
v 4.0 -47.0 -16.0 1.000 1.000 1.000
v -3.0 -35.0 -19.0 1.000 1.000 1.000
v -17.0 -42.0 0.0 1.000 1.000 1.000
v -16.0 -26.0 0.0 1.000 1.000 1.000
v -11.0 -24.0 2.0 1.000 1.000 1.000
v -27.0 -78.0 7.0 1.000 1.000 1.000
v -27.0 -78.0 -1.0 1.000 1.000 1.000
v -19.0 -74.0 -1.0 1.000 1.000 1.000
v -20.0 -74.0 11.0 1.000 1.000 1.000
v -14.0 -67.0 0.0 1.000 1.000 1.000
v -16.0 -67.0 16.0 1.000 1.000 1.000
v -13.0 -55.0 0.0 1.000 1.000 1.000
v -16.0 -67.0 16.0 1.000 1.000 1.000
v -14.0 -67.0 0.0 1.000 1.000 1.000
v -18.0 -54.0 11.0 1.000 1.000 1.000
v -17.0 -42.0 0.0 1.000 1.000 1.000
v -7.0 -7.0 4.0 1.000 1.000 1.000
v -16.0 13.0 28.0 1.000 1.000 1.000
v -20.0 2.0 19.0 1.000 1.000 1.000
v -27.0 -78.0 -1.0 1.000 1.000 1.000
v -22.0 -74.0 -18.0 1.000 1.000 1.000
v -13.0 -70.0 -17.0 1.000 1.000 1.000
v -19.0 -74.0 -1.0 1.000 1.000 1.000
v -1.0 -63.0 -16.0 1.000 1.000 1.000
v 4.0 -47.0 -16.0 1.000 1.000 1.000
v -37.0 19.0 -2.0 1.000 1.000 1.000
v -38.0 3.0 -2.0 1.000 1.000 1.000
v -40.0 3.0 18.0 1.000 1.000 1.000
v -48.0 -13.0 25.0 1.000 1.000 1.000
v -43.0 -13.0 -3.0 1.000 1.000 1.000
v -42.0 -29.0 17.0 1.000 1.000 1.000
v -40.0 -29.0 -2.0 1.000 1.000 1.000
v -38.0 -53.0 10.0 1.000 1.000 1.000
v -41.0 -41.0 -3.0 1.000 1.000 1.000
v -37.0 -53.0 -2.0 1.000 1.000 1.000
v -27.0 -78.0 -1.0 1.000 1.000 1.000
v -27.0 -78.0 7.0 1.000 1.000 1.000
v -34.0 -73.0 -2.0 1.000 1.000 1.000
v -22.0 -74.0 -18.0 1.000 1.000 1.000
v -29.0 -69.0 -19.0 1.000 1.000 1.000
v -38.0 -65.0 -2.0 1.000 1.000 1.000
v -38.0 -65.0 -2.0 1.000 1.000 1.000
v -32.0 -53.0 -19.0 1.000 1.000 1.000
v -29.0 -69.0 -19.0 1.000 1.000 1.000
v -37.0 -53.0 -2.0 1.000 1.000 1.000
v -41.0 -41.0 -3.0 1.000 1.000 1.000
v -40.0 -29.0 -2.0 1.000 1.000 1.000
v -35.0 -29.0 -19.0 1.000 1.000 1.000
v -43.0 -13.0 -3.0 1.000 1.000 1.000
v -33.0 3.0 -19.0 1.000 1.000 1.000
v -38.0 3.0 -2.0 1.000 1.000 1.000
v -37.0 19.0 -2.0 1.000 1.000 1.000
v -40.0 3.0 18.0 1.000 1.000 1.000
v -42.0 19.0 25.0 1.000 1.000 1.000
v -33.0 27.0 -2.0 1.000 1.000 1.000
v -34.0 27.0 18.0 1.000 1.000 1.000
v 10.0 31.0 -12.0 1.000 1.000 1.000
v -18.0 26.0 19.0 1.000 1.000 1.000
v 13.0 18.0 21.0 1.000 1.000 1.000
v 17.0 13.0 24.0 1.000 1.000 1.000
v 13.0 18.0 21.0 1.000 1.000 1.000
v -18.0 26.0 19.0 1.000 1.000 1.000
v -25.0 30.0 7.0 1.000 1.000 1.000
v -20.0 26.0 -18.0 1.000 1.000 1.000
v -10.0 31.0 -12.0 1.000 1.000 1.000
v -24.0 30.0 -1.0 1.000 1.000 1.000
v 36.0 15.0 1.0 1.000 1.000 1.000
v 36.0 20.0 8.0 1.000 1.000 1.000
v 35.0 14.0 13.0 1.000 1.000 1.000
v 25.0 -1.0 -3.0 1.000 1.000 1.000
v 25.0 11.0 16.0 1.000 1.000 1.000
v -7.0 -7.0 4.0 1.000 1.000 1.000
v 17.0 13.0 24.0 1.000 1.000 1.000
v -7.0 -7.0 4.0 1.000 1.000 1.000
v 25.0 11.0 16.0 1.000 1.000 1.000
v -18.0 26.0 19.0 1.000 1.000 1.000
v -20.0 26.0 -18.0 1.000 1.000 1.000
v -28.0 23.0 -19.0 1.000 1.000 1.000
v -33.0 27.0 -2.0 1.000 1.000 1.000
v -24.0 30.0 -1.0 1.000 1.000 1.000
v -33.0 3.0 -19.0 1.000 1.000 1.000
v -37.0 19.0 -2.0 1.000 1.000 1.000
v -34.0 27.0 18.0 1.000 1.000 1.000
v -25.0 30.0 7.0 1.000 1.000 1.000
v -8.0 22.0 -18.0 1.000 1.000 1.000
v -20.0 26.0 -18.0 1.000 1.000 1.000
v 10.0 31.0 -12.0 1.000 1.000 1.000
v 4.0 26.0 -23.0 1.000 1.000 1.000
v 13.0 30.0 -12.0 1.000 1.000 1.000
v 4.0 26.0 -23.0 1.000 1.000 1.000
v 10.0 31.0 -12.0 1.000 1.000 1.000
v 23.0 27.0 -10.0 1.000 1.000 1.000
v 27.0 1.0 -28.0 1.000 1.000 1.000
v 4.0 26.0 -23.0 1.000 1.000 1.000
v 23.0 27.0 -10.0 1.000 1.000 1.000
v 36.0 15.0 1.0 1.000 1.000 1.000
v 25.0 -1.0 -3.0 1.000 1.000 1.000
v -3.0 -35.0 -19.0 1.000 1.000 1.000
v -7.0 -7.0 4.0 1.000 1.000 1.000
v -11.0 -24.0 2.0 1.000 1.000 1.000
v -26.0 3.0 -44.0 1.000 1.000 1.000
v -30.0 -15.0 -43.0 1.000 1.000 1.000
v -33.0 3.0 -19.0 1.000 1.000 1.000
v 23.0 -41.0 -38.0 1.000 1.000 1.000
v -3.0 -35.0 -19.0 1.000 1.000 1.000
v 4.0 -47.0 -16.0 1.000 1.000 1.000
v 25.0 -19.0 -40.0 1.000 1.000 1.000
v 27.0 1.0 -28.0 1.000 1.000 1.000
v 18.0 3.0 -34.0 1.000 1.000 1.000
v 4.0 26.0 -23.0 1.000 1.000 1.000
v 11.0 7.0 -40.0 1.000 1.000 1.000
v -12.0 14.0 -41.0 1.000 1.000 1.000
v 4.0 26.0 -23.0 1.000 1.000 1.000
v 0.0 12.0 -40.0 1.000 1.000 1.000
v 11.0 7.0 -40.0 1.000 1.000 1.000
v -8.0 22.0 -18.0 1.000 1.000 1.000
v -20.0 26.0 -18.0 1.000 1.000 1.000
v -20.0 26.0 -18.0 1.000 1.000 1.000
v -12.0 14.0 -41.0 1.000 1.000 1.000
v -21.0 14.0 -41.0 1.000 1.000 1.000
v -28.0 23.0 -19.0 1.000 1.000 1.000
v -33.0 3.0 -19.0 1.000 1.000 1.000
v -26.0 3.0 -44.0 1.000 1.000 1.000
v -8.0 9.0 -65.0 1.000 1.000 1.000
v -21.0 -1.0 -66.0 1.000 1.000 1.000
v -30.0 -15.0 -43.0 1.000 1.000 1.000
v -26.0 -23.0 -67.0 1.000 1.000 1.000
v -31.0 -33.0 -43.0 1.000 1.000 1.000
v -21.0 -46.0 -66.0 1.000 1.000 1.000
v -28.0 -51.0 -43.0 1.000 1.000 1.000
v -9.0 -64.0 -41.0 1.000 1.000 1.000
v -21.0 -46.0 -66.0 1.000 1.000 1.000
v -8.0 -55.0 -65.0 1.000 1.000 1.000
v -1.0 -64.0 -41.0 1.000 1.000 1.000
v 12.0 -59.0 -40.0 1.000 1.000 1.000
v -1.0 -64.0 -41.0 1.000 1.000 1.000
v -8.0 -55.0 -65.0 1.000 1.000 1.000
v 5.0 -46.0 -64.0 1.000 1.000 1.000
v 23.0 -41.0 -38.0 1.000 1.000 1.000
v 14.0 -23.0 -72.0 1.000 1.000 1.000
v 25.0 -19.0 -40.0 1.000 1.000 1.000
v 5.0 -1.0 -64.0 1.000 1.000 1.000
v 11.0 7.0 -40.0 1.000 1.000 1.000
v 11.0 7.0 -40.0 1.000 1.000 1.000
v 5.0 -1.0 -64.0 1.000 1.000 1.000
v 0.0 12.0 -40.0 1.000 1.000 1.000
v -12.0 14.0 -41.0 1.000 1.000 1.000
v -12.0 14.0 -41.0 1.000 1.000 1.000
v 5.0 -1.0 -64.0 1.000 1.000 1.000
v -8.0 9.0 -65.0 1.000 1.000 1.000
v -21.0 14.0 -41.0 1.000 1.000 1.000
v -12.0 14.0 -41.0 1.000 1.000 1.000
v -8.0 9.0 -65.0 1.000 1.000 1.000
v -9.0 -64.0 -41.0 1.000 1.000 1.000
v -21.0 -46.0 -66.0 1.000 1.000 1.000
v -1.0 -64.0 -41.0 1.000 1.000 1.000
v 21.0 -16.0 -180.0 1.000 1.000 1.000
v 14.0 -23.0 -72.0 1.000 1.000 1.000
v 28.0 -47.0 -179.0 1.000 1.000 1.000
v 5.0 -1.0 -64.0 1.000 1.000 1.000
v 2.0 -13.0 -181.0 1.000 1.000 1.000
v 5.0 -1.0 -64.0 1.000 1.000 1.000
v 21.0 -16.0 -180.0 1.000 1.000 1.000
v -8.0 9.0 -65.0 1.000 1.000 1.000
v 5.0 -1.0 -64.0 1.000 1.000 1.000
v 2.0 -13.0 -181.0 1.000 1.000 1.000
v -16.0 -16.0 -182.0 1.000 1.000 1.000
v -21.0 -1.0 -66.0 1.000 1.000 1.000
v -34.0 -47.0 -183.0 1.000 1.000 1.000
v -26.0 -23.0 -67.0 1.000 1.000 1.000
v -16.0 -78.0 -182.0 1.000 1.000 1.000
v -21.0 -46.0 -66.0 1.000 1.000 1.000
v 2.0 -91.0 -181.0 1.000 1.000 1.000
v -8.0 -55.0 -65.0 1.000 1.000 1.000
v 21.0 -78.0 -180.0 1.000 1.000 1.000
v -8.0 -55.0 -65.0 1.000 1.000 1.000
v 2.0 -91.0 -181.0 1.000 1.000 1.000
v 5.0 -46.0 -64.0 1.000 1.000 1.000
v 28.0 -47.0 -179.0 1.000 1.000 1.000
v 14.0 -23.0 -72.0 1.000 1.000 1.000
v 5.0 -46.0 -64.0 1.000 1.000 1.000
v 28.0 -47.0 -179.0 1.000 1.000 1.000
v 32.0 33.0 67.0 1.000 1.000 1.000
v 19.0 32.0 68.0 1.000 1.000 1.000
v 28.0 30.0 69.0 1.000 1.000 1.000
v 26.0 35.0 67.0 1.000 1.000 1.000
v 21.0 37.0 66.0 1.000 1.000 1.000
v 32.0 27.0 65.0 1.000 1.000 1.000
v 29.0 25.0 64.0 1.000 1.000 1.000
v 17.0 33.0 64.0 1.000 1.000 1.000
v 15.0 28.0 58.0 1.000 1.000 1.000
v 23.0 24.0 59.0 1.000 1.000 1.000
v 35.0 31.0 41.0 1.000 1.000 1.000
v 35.0 39.0 42.0 1.000 1.000 1.000
v 30.0 42.0 43.0 1.000 1.000 1.000
v 22.0 44.0 42.0 1.000 1.000 1.000
v 18.0 39.0 38.0 1.000 1.000 1.000
v 15.0 31.0 41.0 1.000 1.000 1.000
v 23.0 24.0 59.0 1.000 1.000 1.000
v 15.0 31.0 41.0 1.000 1.000 1.000
v 25.0 22.0 43.0 1.000 1.000 1.000
v 29.0 25.0 64.0 1.000 1.000 1.000
v 31.0 26.0 38.0 1.000 1.000 1.000
v 32.0 27.0 65.0 1.000 1.000 1.000
v 35.0 31.0 41.0 1.000 1.000 1.000
v 24.0 40.0 30.0 1.000 1.000 1.000
v 21.0 39.0 7.0 1.000 1.000 1.000
v 16.0 36.0 32.0 1.000 1.000 1.000
v 14.0 36.0 16.0 1.000 1.000 1.000
v 15.0 30.0 36.0 1.000 1.000 1.000
v 13.0 18.0 21.0 1.000 1.000 1.000
v 21.0 22.0 35.0 1.000 1.000 1.000
v 17.0 13.0 24.0 1.000 1.000 1.000
v 31.0 37.0 30.0 1.000 1.000 1.000
v 32.0 35.0 7.0 1.000 1.000 1.000
v 24.0 40.0 30.0 1.000 1.000 1.000
v 21.0 39.0 7.0 1.000 1.000 1.000
v 30.0 42.0 43.0 1.000 1.000 1.000
v 35.0 39.0 42.0 1.000 1.000 1.000
v 22.0 44.0 42.0 1.000 1.000 1.000
v 18.0 39.0 38.0 1.000 1.000 1.000
v 15.0 31.0 41.0 1.000 1.000 1.000
v 16.0 36.0 32.0 1.000 1.000 1.000
v 25.0 22.0 43.0 1.000 1.000 1.000
v 15.0 30.0 36.0 1.000 1.000 1.000
v 21.0 22.0 35.0 1.000 1.000 1.000
v 23.0 27.0 -10.0 1.000 1.000 1.000
v 13.0 30.0 -12.0 1.000 1.000 1.000
v 13.0 32.0 -4.0 1.000 1.000 1.000
v 13.0 32.0 -4.0 1.000 1.000 1.000
v 13.0 30.0 -12.0 1.000 1.000 1.000
v 10.0 31.0 -12.0 1.000 1.000 1.000
v 21.0 39.0 7.0 1.000 1.000 1.000
v 23.0 27.0 -10.0 1.000 1.000 1.000
v 32.0 35.0 7.0 1.000 1.000 1.000
v 14.0 36.0 16.0 1.000 1.000 1.000
v 13.0 18.0 21.0 1.000 1.000 1.000
v 13.0 32.0 -4.0 1.000 1.000 1.000
v 21.0 22.0 35.0 1.000 1.000 1.000
v 17.0 13.0 24.0 1.000 1.000 1.000
v 28.0 20.0 35.0 1.000 1.000 1.000
v 25.0 11.0 16.0 1.000 1.000 1.000
v 34.0 23.0 32.0 1.000 1.000 1.000
v 35.0 14.0 13.0 1.000 1.000 1.000
v 35.0 30.0 32.0 1.000 1.000 1.000
v 35.0 30.0 32.0 1.000 1.000 1.000
v 35.0 14.0 13.0 1.000 1.000 1.000
v 36.0 20.0 8.0 1.000 1.000 1.000
v 31.0 37.0 30.0 1.000 1.000 1.000
v 32.0 35.0 7.0 1.000 1.000 1.000
v 35.0 31.0 41.0 1.000 1.000 1.000
v 35.0 39.0 42.0 1.000 1.000 1.000
v 34.0 23.0 32.0 1.000 1.000 1.000
v 31.0 26.0 38.0 1.000 1.000 1.000
v 28.0 20.0 35.0 1.000 1.000 1.000
v 21.0 22.0 35.0 1.000 1.000 1.000
v 28.0 20.0 35.0 1.000 1.000 1.000
v 25.0 22.0 43.0 1.000 1.000 1.000
v 25.0 22.0 43.0 1.000 1.000 1.000
v 36.0 15.0 1.0 1.000 1.000 1.000
v 23.0 27.0 -10.0 1.000 1.000 1.000
v 10.0 31.0 -12.0 1.000 1.000 1.000
v 10.0 31.0 104.0 1.000 1.000 1.000
v -10.0 31.0 104.0 1.000 1.000 1.000
v -10.0 31.0 -12.0 1.000 1.000 1.000
v -10.0 76.0 104.0 1.000 1.000 1.000
v 10.0 76.0 104.0 1.000 1.000 1.000
v 10.0 76.0 -12.0 1.000 1.000 1.000
v -10.0 76.0 -12.0 1.000 1.000 1.000
v -14.0 38.0 94.0 1.000 1.000 1.000
v -14.0 69.0 94.0 1.000 1.000 1.000
v -14.0 69.0 -3.0 1.000 1.000 1.000
v -14.0 38.0 -3.0 1.000 1.000 1.000
v 0.0 53.0 -12.0 1.000 1.000 1.000
v 14.0 69.0 -3.0 1.000 1.000 1.000
v 14.0 69.0 94.0 1.000 1.000 1.000
v 14.0 38.0 94.0 1.000 1.000 1.000
v 14.0 38.0 94.0 1.000 1.000 1.000
v 14.0 38.0 -3.0 1.000 1.000 1.000
v 14.0 69.0 -3.0 1.000 1.000 1.000
v -14.0 69.0 94.0 1.000 1.000 1.000
v -10.0 76.0 104.0 1.000 1.000 1.000
v -14.0 69.0 -3.0 1.000 1.000 1.000
v -10.0 31.0 104.0 1.000 1.000 1.000
v -14.0 38.0 94.0 1.000 1.000 1.000
v -14.0 38.0 -3.0 1.000 1.000 1.000
v -10.0 31.0 -12.0 1.000 1.000 1.000
v -10.0 32.0 103.0 1.000 1.000 1.000
v -10.0 76.0 -12.0 1.000 1.000 1.000
v 10.0 76.0 104.0 1.000 1.000 1.000
v 14.0 69.0 94.0 1.000 1.000 1.000
v 10.0 76.0 -12.0 1.000 1.000 1.000
v 10.0 31.0 -12.0 1.000 1.000 1.000
v 10.0 31.0 -12.0 1.000 1.000 1.000
v 14.0 38.0 -3.0 1.000 1.000 1.000
v 10.0 31.0 104.0 1.000 1.000 1.000
v 14.0 38.0 94.0 1.000 1.000 1.000
v 14.0 69.0 94.0 1.000 1.000 1.000
v 10.0 76.0 104.0 1.000 1.000 1.000
v -10.0 76.0 -12.0 1.000 1.000 1.000
v -14.0 69.0 -3.0 1.000 1.000 1.000
v -10.0 76.0 104.0 1.000 1.000 1.000
v 8.0 72.0 246.0 1.000 1.000 1.000
v 11.0 65.0 246.0 1.000 1.000 1.000
v 5.0 70.0 246.0 1.000 1.000 1.000
v 7.0 65.0 246.0 1.000 1.000 1.000
v 8.0 57.0 246.0 1.000 1.000 1.000
v 5.0 59.0 246.0 1.000 1.000 1.000
v 0.0 53.0 246.0 1.000 1.000 1.000
v 0.0 57.0 246.0 1.000 1.000 1.000
v -8.0 57.0 246.0 1.000 1.000 1.000
v -5.0 59.0 246.0 1.000 1.000 1.000
v -11.0 65.0 246.0 1.000 1.000 1.000
v -7.0 65.0 246.0 1.000 1.000 1.000
v -8.0 72.0 246.0 1.000 1.000 1.000
v -5.0 70.0 246.0 1.000 1.000 1.000
v 0.0 76.0 246.0 1.000 1.000 1.000
v 0.0 72.0 246.0 1.000 1.000 1.000
v 5.0 70.0 238.0 1.000 1.000 1.000
v 7.0 65.0 246.0 1.000 1.000 1.000
v 7.0 65.0 238.0 1.000 1.000 1.000
v 5.0 70.0 246.0 1.000 1.000 1.000
v 0.0 72.0 238.0 1.000 1.000 1.000
v 0.0 72.0 246.0 1.000 1.000 1.000
v -5.0 70.0 238.0 1.000 1.000 1.000
v -5.0 70.0 246.0 1.000 1.000 1.000
v -7.0 65.0 238.0 1.000 1.000 1.000
v -7.0 65.0 246.0 1.000 1.000 1.000
v -5.0 59.0 238.0 1.000 1.000 1.000
v -5.0 59.0 246.0 1.000 1.000 1.000
v 0.0 57.0 238.0 1.000 1.000 1.000
v 0.0 57.0 246.0 1.000 1.000 1.000
v 5.0 59.0 238.0 1.000 1.000 1.000
v 5.0 59.0 246.0 1.000 1.000 1.000
v 8.0 72.0 246.0 1.000 1.000 1.000
v 11.0 65.0 305.0 1.000 1.000 1.000
v 11.0 65.0 246.0 1.000 1.000 1.000
v 8.0 72.0 305.0 1.000 1.000 1.000
v 0.0 76.0 246.0 1.000 1.000 1.000
v 0.0 76.0 305.0 1.000 1.000 1.000
v -8.0 72.0 246.0 1.000 1.000 1.000
v -8.0 72.0 305.0 1.000 1.000 1.000
v -11.0 65.0 246.0 1.000 1.000 1.000
v -11.0 65.0 305.0 1.000 1.000 1.000
v -8.0 57.0 246.0 1.000 1.000 1.000
v -8.0 57.0 305.0 1.000 1.000 1.000
v 0.0 53.0 246.0 1.000 1.000 1.000
v 0.0 53.0 305.0 1.000 1.000 1.000
v 8.0 57.0 246.0 1.000 1.000 1.000
v 8.0 57.0 305.0 1.000 1.000 1.000
v -3.0 75.0 303.0 1.000 1.000 1.000
v -3.0 81.0 296.0 1.000 1.000 1.000
v -3.0 75.0 290.0 1.000 1.000 1.000
v -3.0 81.0 251.0 1.000 1.000 1.000
v 3.0 75.0 290.0 1.000 1.000 1.000
v 3.0 81.0 296.0 1.000 1.000 1.000
v 3.0 75.0 303.0 1.000 1.000 1.000
v 3.0 81.0 251.0 1.000 1.000 1.000
v 3.0 81.0 296.0 1.000 1.000 1.000
v -3.0 75.0 303.0 1.000 1.000 1.000
v 3.0 75.0 303.0 1.000 1.000 1.000
v -3.0 81.0 296.0 1.000 1.000 1.000
v -3.0 81.0 251.0 1.000 1.000 1.000
v 3.0 81.0 251.0 1.000 1.000 1.000
v -3.0 75.0 290.0 1.000 1.000 1.000
v -3.0 81.0 251.0 1.000 1.000 1.000
v 3.0 81.0 251.0 1.000 1.000 1.000
v 3.0 75.0 290.0 1.000 1.000 1.000
v 8.0 72.0 104.0 1.000 1.000 1.000
v 11.0 65.0 238.0 1.000 1.000 1.000
v 11.0 65.0 104.0 1.000 1.000 1.000
v 8.0 72.0 238.0 1.000 1.000 1.000
v 0.0 76.0 104.0 1.000 1.000 1.000
v 0.0 76.0 238.0 1.000 1.000 1.000
v -8.0 72.0 104.0 1.000 1.000 1.000
v -8.0 72.0 238.0 1.000 1.000 1.000
v -11.0 65.0 104.0 1.000 1.000 1.000
v -11.0 65.0 238.0 1.000 1.000 1.000
v -8.0 57.0 104.0 1.000 1.000 1.000
v -8.0 57.0 238.0 1.000 1.000 1.000
v 0.0 53.0 104.0 1.000 1.000 1.000
v 0.0 53.0 238.0 1.000 1.000 1.000
v 8.0 57.0 104.0 1.000 1.000 1.000
v 8.0 57.0 238.0 1.000 1.000 1.000
vt 0.0000 0.0312
vt 0.9688 0.0312
vt 0.9688 1.0000
vt 0.0000 1.0000
vt 0.4404 0.1611
vt 0.6367 0.1914
vt 0.4668 0.1406
vt 0.6162 0.2080
vt 0.4229 0.2197
vt 0.6025 0.2559
vt 0.4141 0.2812
vt 0.5957 0.3047
vt 0.4785 0.2314
vt 0.6289 0.3115
vt 0.4570 0.2891
vt 0.6465 0.2646
vt 0.4824 0.1689
vt 0.6494 0.2148
vt 0.6709 0.2002
vt 0.6963 0.2266
vt 0.6914 0.2754
vt 0.6758 0.3223
vt 0.6084 0.3281
vt 0.6426 0.3359
vt 0.1777 0.1758
vt 0.0215 0.1699
vt 0.1758 0.1934
vt 0.0205 0.1865
vt 0.1738 0.2529
vt 0.0195 0.2461
vt 0.1719 0.3154
vt 0.0156 0.3086
vt 0.1709 0.3496
vt 0.0156 0.3428
vt 0.1729 0.3281
vt 0.0166 0.3252
vt 0.1748 0.2705
vt 0.0195 0.2676
vt 0.1768 0.2061
vt 0.0215 0.2031
vt 0.2246 0.3027
vt 0.2275 0.2158
vt 0.7510 0.6826
vt 0.7363 0.6270
vt 0.6992 0.6836
vt 0.6650 0.5986
vt 0.7227 0.5791
vt 0.8428 0.3770
vt 0.8379 0.4014
vt 0.7119 0.3701
vt 0.7227 0.4229
vt 0.6475 0.3564
vt 0.8516 0.4043
vt 0.7314 0.4785
vt 0.6846 0.4707
vt 0.7100 0.4199
vt 0.8379 0.4619
vt 0.7109 0.4746
vt 0.8584 0.4658
vt 0.7686 0.4229
vt 0.7656 0.4561
vt 0.4941 0.4160
vt 0.4902 0.4561
vt 0.7568 0.5117
vt 0.7637 0.4336
vt 0.4873 0.4287
vt 0.3867 0.1523
vt 0.4395 0.1367
vt 0.3545 0.2080
vt 0.3613 0.2715
vt 0.4824 0.1709
vt 0.6992 0.2061
vt 0.8154 0.1602
vt 0.6973 0.1855
vt 0.8174 0.1836
vt 0.7031 0.2598
vt 0.8223 0.2441
vt 0.7070 0.3164
vt 0.8262 0.3066
vt 0.7031 0.2656
vt 0.8262 0.3105
vt 0.7070 0.3203
vt 0.8213 0.2500
vt 0.6992 0.2100
vt 0.8174 0.1885
vt 0.6348 0.1777
vt 0.6680 0.2305
vt 0.5898 0.1562
vt 0.6338 0.2012
vt 0.7617 0.2090
vt 0.7617 0.1846
vt 0.6494 0.1621
vt 0.8536 0.5000
vt 0.2780 0.5000
vt 0.0520 0.5000
vt 0.1464 0.5000
vt 0.9480 0.5000
vt 0.7220 0.5000
vt 0.1465 0.4033
vt 0.1709 0.3975
vt 0.1826 0.4238
vt 0.1719 0.4121
vt 0.1133 0.4336
vt 0.2949 0.3896
vt 0.2959 0.4043
vt 0.2988 0.4639
vt 0.1758 0.4707
vt 0.3027 0.5254
vt 0.1777 0.5332
vt 0.3037 0.5605
vt 0.1797 0.5674
vt 0.3027 0.5400
vt 0.1787 0.5527
vt 0.2998 0.4844
vt 0.1758 0.4971
vt 0.2969 0.4199
vt 0.1729 0.4326
vt 0.3389 0.5117
vt 0.3340 0.4258
vt 0.7090 0.6445
vt 0.7402 0.6396
vt 0.7139 0.6357
vt 0.7812 0.6562
vt 0.7012 0.6855
vt 0.7812 0.6992
vt 0.7666 0.7422
vt 0.6943 0.7285
vt 0.7197 0.7598
vt 0.6924 0.7549
vt 0.6943 0.6572
vt 0.3389 0.5381
vt 0.1582 0.5898
vt 0.3408 0.5547
vt 0.1592 0.6074
vt 0.3428 0.6172
vt 0.1641 0.6689
vt 0.3457 0.6816
vt 0.1641 0.7334
vt 0.3467 0.7158
vt 0.1650 0.7686
vt 0.3447 0.6943
vt 0.1641 0.7510
vt 0.3428 0.6348
vt 0.1611 0.6914
vt 0.3398 0.5684
vt 0.1592 0.6250
vt 0.4053 0.6484
vt 0.4014 0.5586
vt 0.1699 0.8252
vt 0.2178 0.7725
vt 0.1992 0.7881
vt 0.2207 0.7871
vt 0.1680 0.8828
vt 0.2295 0.8379
vt 0.1777 0.9365
vt 0.2363 0.8936
vt 0.2100 0.9453
vt 0.2402 0.9229
vt 0.2217 0.8018
vt 0.3252 0.6982
vt 0.3271 0.7129
vt 0.3350 0.7646
vt 0.3438 0.8193
vt 0.3477 0.8486
vt 0.3447 0.8301
vt 0.2373 0.9082
vt 0.3369 0.7803
vt 0.2305 0.8574
vt 0.3281 0.7236
vt 0.3818 0.7783
vt 0.3701 0.7031
vt 0.4180 0.6240
vt 0.2920 0.5957
vt 0.3613 0.6855
vt 0.4209 0.5381
vt 0.3311 0.5312
vt 0.2969 0.4668
vt 0.4238 0.4756
vt 0.4062 0.4326
vt 0.3359 0.3828
vt 0.6699 0.8730
vt 0.7109 0.8682
vt 0.6973 0.8184
vt 0.6484 0.7852
vt 0.6846 0.7959
vt 0.5928 0.6084
vt 0.5986 0.6992
vt 0.6055 0.7910
vt 0.6123 0.8818
vt 0.6592 0.9385
vt 0.6162 0.9443
vt 0.6475 0.9736
vt 0.3770 0.6377
vt 0.2207 0.6875
vt 0.3896 0.8203
vt 0.6895 0.6631
vt 0.6865 0.7471
vt 0.8896 0.6406
vt 0.8867 0.7344
vt 0.6855 0.7871
vt 0.8857 0.7637
vt 0.6846 0.8057
vt 0.8857 0.7607
vt 0.4004 0.9766
vt 0.3984 0.9434
vt 0.2373 0.9209
vt 0.2305 0.8252
vt 0.2109 0.5518
vt 0.3594 0.3955
vt 0.5752 0.3662
vt 0.5840 0.4854
vt 0.6934 0.5547
vt 0.3750 0.8115
vt 0.4111 0.8135
vt 0.4121 0.7949
vt 0.3574 0.7920
vt 0.4141 0.7529
vt 0.3408 0.7500
vt 0.4160 0.6895
vt 0.3018 0.3184
vt 0.5674 0.2461
vt 0.6191 0.9775
vt 0.5625 0.1875
vt 0.8193 0.3164
vt 0.9561 0.2334
vt 0.5811 0.2256
vt 0.4658 0.2803
vt 0.5098 0.2891
vt 0.8555 0.2588
vt 1.0225 0.3018
vt 0.8076 0.6719
vt 0.9092 0.3311
vt 0.9990 0.3447
vt 0.4414 0.3154
vt 0.3750 0.2881
vt 0.3525 0.3193
vt 0.4248 0.4268
vt 0.3350 0.3340
vt 0.3311 0.3232
vt 0.3398 0.2549
vt 0.3477 0.2197
vt 0.3486 0.2471
vt 0.5605 0.1602
vt 0.6611 0.6670
vt 0.4990 0.6611
vt 0.6299 0.4482
vt 0.4541 0.3516
vt 0.6973 0.4316
vt 0.7012 0.3193
vt 0.4570 0.2539
vt 0.2012 0.4170
vt 0.8955 0.4805
vt 0.7988 0.3994
vt 0.8994 0.3818
vt 0.5488 0.9102
vt 0.4951 0.9092
vt 0.4404 0.9082
vt 0.1953 0.3359
vt 0.1953 0.3320
vt 0.1123 0.3838
vt 0.1172 0.4541
vt 0.1289 0.6260
vt 0.1416 0.7969
vt 0.4570 0.7080
vt 0.4648 0.7627
vt 0.5498 0.8008
vt 0.8779 0.7344
vt 0.8770 0.7637
vt 0.9873 0.7207
vt 0.9893 0.6709
vt 0.8809 0.6406
vt 0.9932 0.5498
vt 0.8867 0.4805
vt 0.9971 0.4287
vt 0.8896 0.3818
vt 0.5068 0.8848
vt 0.5488 0.9111
vt 0.7139 0.8633
vt 0.5469 0.7979
vt 0.9844 0.3916
vt 0.8467 0.5195
vt 0.9863 0.5430
vt 0.8457 0.3984
vt 0.0527 0.3857
vt 0.4473 0.4375
vt 0.0625 0.4619
vt 0.4395 0.3828
vt 0.0537 0.4639
vt 0.4395 0.4395
vt 0.0635 0.6484
vt 0.4473 0.5732
vt 0.0771 0.8330
vt 0.0869 0.9092
vt 0.9873 0.6943
vt 0.8486 0.6914
vt 0.9883 0.7568
vt 0.8477 0.6406
vt 0.9482 0.1426
vt 0.8965 0.2480
vt 0.9688 0.1953
vt 0.8984 0.1787
vt 0.8467 0.2168
vt 0.9609 0.1338
vt 0.9355 0.1523
vt 0.8174 0.2383
vt 0.8340 0.2266
vt 0.8818 0.1914
vt 0.8496 0.0137
vt 0.8369 0.0225
vt 0.7891 0.0605
vt 0.7354 0.0967
vt 0.7061 0.1182
vt 0.7188 0.1094
vt 0.8008 0.1025
vt 0.8203 0.0352
vt 0.5518 0.1680
vt 0.5205 0.2949
vt 0.6104 0.1523
vt 0.6084 0.2471
vt 0.6113 0.1318
vt 0.5557 0.1182
vt 0.4707 0.1689
vt 0.4209 0.2969
vt 0.5322 0.0918
vt 0.5967 0.0967
vt 0.6201 0.1084
vt 0.5889 0.1201
vt 0.5254 0.1016
vt 0.6836 0.3613
vt 0.7139 0.2812
vt 0.2617 0.2529
vt 0.2646 0.2627
vt 0.2812 0.2500
vt 0.3008 0.2217
vt 0.3125 0.1953
vt 0.4141 0.2422
vt 0.2598 0.2139
vt 0.2529 0.1816
vt 0.2666 0.2363
vt 0.3574 0.2705
vt 0.3594 0.2793
vt 0.3467 0.2656
vt 0.2500 0.2480
vt 0.7857 0.7738
vt 0.8575 0.7066
vt 0.1478 0.8047
vt 0.1829 0.6823
vt 0.2234 0.1721
vt 0.8242 0.2193
vt 0.7780 0.1743
vt 0.2382 0.2739
vt 0.0072 0.5670
vt 0.0163 0.4326
vt 0.0141 0.4091
vt 0.0230 0.6391
vt 0.5000 0.5000
vt 0.9893 0.4448
vt 0.9803 0.3889
vt 0.9928 0.5670
vt 0.9774 0.6381
vt 0.8995 0.1994
vt 0.9954 0.4326
vt 0.9954 0.5674
vt 0.8006 0.1005
vt 0.5674 0.0046
vt 0.4326 0.0046
vt 0.1994 0.1005
vt 0.1005 0.1994
vt 0.0046 0.4326
vt 0.0046 0.5674
vt 0.1005 0.8006
vt 0.1994 0.8995
vt 0.4326 0.9954
vt 0.5674 0.9954
vt 0.8006 0.8995
vt 0.8995 0.8006
vt 0.0000 0.5000
vt 1.0000 0.5000
vt 0.5000 0.0374
vt 0.5000 0.1464
vt 0.5000 0.0000
vt 0.5000 0.9937
vn 0.000 0.000 -1.000
vn 0.000 0.000 -1.000
vn 0.000 0.000 -1.000
vn 0.000 0.000 -1.000
vn 0.000 0.000 -1.000
vn 0.000 0.000 -1.000
vn 0.000 0.000 -1.000
vn 0.000 0.000 -1.000
vn 0.000 0.000 -1.000
vn 0.000 0.000 -1.000
vn 0.000 0.000 -1.000
vn 0.000 0.000 -1.000
vn 0.000 0.000 -1.000
vn 0.000 0.000 -1.000
vn 0.000 0.000 -1.000
vn 0.000 0.000 -1.000
vn 0.000 0.000 -1.000
vn 0.000 0.000 -1.000
vn 0.000 0.000 -1.000
vn 0.000 0.000 -1.000
vn 0.000 0.000 -1.000
vn 0.000 0.000 -1.000
vn 0.000 0.000 -1.000
vn 0.000 0.000 -1.000
vn 0.000 0.000 -1.000
vn 0.000 0.000 -1.000
vn 0.000 0.000 -1.000
vn 0.000 0.000 -1.000
vn 0.000 0.000 -1.000
vn 0.000 0.000 -1.000
vn 0.000 0.000 -1.000
vn 0.000 0.000 -1.000
vn -0.577 -0.577 -0.577
vn -0.577 -0.577 -0.577
vn -0.577 -0.577 -0.577
vn -0.577 -0.577 -0.577
vn -0.577 -0.577 -0.577
vn -0.577 -0.577 -0.577
vn -0.577 -0.577 -0.577
vn -0.577 -0.577 -0.577
vn -0.577 -0.577 -0.577
vn -0.577 -0.577 -0.577
vn -0.577 -0.577 -0.577
vn -0.577 -0.577 -0.577
vn -0.577 -0.577 -0.577
vn -0.577 -0.577 -0.577
vn -0.577 -0.577 -0.577
vn -0.577 -0.577 -0.577
vn -0.577 -0.577 -0.577
vn -0.577 -0.577 -0.577
vn -0.577 -0.577 -0.577
vn -0.577 -0.577 -0.577
vn -0.577 -0.577 -0.577
vn -0.577 -0.577 -0.577
vn -0.577 -0.577 -0.577
vn -0.577 -0.577 -0.577
vn -0.577 -0.577 -0.577
vn -0.577 -0.577 -0.577
vn -0.577 -0.577 -0.577
vn -0.577 -0.577 -0.577
vn -0.577 -0.577 -0.577
vn -0.577 -0.577 -0.577
vn -0.577 -0.577 -0.577
vn -0.577 -0.577 -0.577
vn -0.577 -0.577 -0.577
vn -0.577 -0.577 -0.577
vn -0.577 -0.577 -0.577
vn -0.577 -0.577 -0.577
vn -0.577 -0.577 -0.577
vn -0.577 -0.577 -0.577
vn -0.577 -0.577 -0.577
vn -0.577 -0.577 -0.577
vn -0.577 -0.577 -0.577
vn -0.577 -0.577 -0.577
vn -0.577 -0.577 -0.577
vn -0.577 -0.577 -0.577
vn -0.577 -0.577 -0.577
vn -0.577 -0.577 -0.577
vn -0.577 -0.577 -0.577
vn -0.577 -0.577 -0.577
vn -0.577 -0.577 -0.577
vn -0.577 -0.577 -0.577
vn -0.577 -0.577 -0.577
vn -0.577 -0.577 -0.577
vn -0.577 -0.577 -0.577
vn -0.577 -0.577 -0.577
vn -0.577 -0.577 -0.577
vn -0.577 -0.577 -0.577
vn -0.577 -0.577 -0.577
vn -0.577 -0.577 -0.577
vn -0.577 -0.577 -0.577
vn -0.577 -0.577 -0.577
vn -0.577 -0.577 -0.577
vn -0.577 -0.577 -0.577
vn -0.577 -0.577 -0.577
vn -0.577 -0.577 -0.577
vn -0.577 -0.577 -0.577
vn -0.577 -0.577 -0.577
vn -0.577 -0.577 -0.577
vn -0.577 -0.577 -0.577
vn -0.577 -0.577 -0.577
vn -0.577 -0.577 -0.577
vn -0.577 -0.577 -0.577
vn -0.577 -0.577 -0.577
vn -0.577 -0.577 -0.577
vn -0.577 -0.577 -0.577
vn -0.577 -0.577 -0.577
vn -0.577 -0.577 -0.577
vn -0.577 -0.577 -0.577
vn -0.577 -0.577 -0.577
vn -0.577 -0.577 -0.577
vn -0.577 -0.577 -0.577
vn -0.577 -0.577 -0.577
vn -0.577 -0.577 -0.577
vn -0.577 -0.577 -0.577
vn -0.577 -0.577 -0.577
vn -0.577 -0.577 -0.577
vn -0.577 -0.577 -0.577
vn -0.577 -0.577 -0.577
vn -0.577 -0.577 -0.577
vn -0.577 -0.577 -0.577
vn -0.577 -0.577 -0.577
vn -0.577 -0.577 -0.577
vn -0.577 -0.577 -0.577
vn -0.577 -0.577 -0.577
vn -0.577 -0.577 -0.577
vn -0.577 -0.577 -0.577
vn -0.577 -0.577 -0.577
vn -0.577 -0.577 -0.577
vn -0.577 -0.577 -0.577
vn -0.577 -0.577 -0.577
vn -0.577 -0.577 -0.577
vn -0.577 -0.577 -0.577
vn -0.577 -0.577 -0.577
vn -0.577 -0.577 -0.577
vn -0.577 -0.577 -0.577
vn -0.577 -0.577 -0.577
vn -0.577 -0.577 -0.577
vn -0.577 -0.577 -0.577
vn -0.577 -0.577 -0.577
vn -0.577 -0.577 -0.577
vn -0.577 -0.577 -0.577
vn -0.577 -0.577 -0.577
vn -0.577 -0.577 -0.577
vn -0.577 -0.577 -0.577
vn -0.577 -0.577 -0.577
vn -0.577 -0.577 -0.577
vn -0.577 -0.577 -0.577
vn -0.577 -0.577 -0.577
vn -0.577 -0.577 -0.577
vn -0.577 -0.577 -0.577
vn -0.577 -0.577 -0.577
vn -0.577 -0.577 -0.577
vn -0.577 -0.577 -0.577
vn -0.577 -0.577 -0.577
vn -0.577 -0.577 -0.577
vn -0.577 -0.577 -0.577
vn -0.577 -0.577 -0.577
vn -0.577 -0.577 -0.577
vn -0.577 -0.577 -0.577
vn -0.577 -0.577 -0.577
vn -0.577 -0.577 -0.577
vn 0.707 0.000 0.707
vn 0.707 0.000 0.707
vn -0.444 0.000 0.896
vn -0.896 0.000 0.444
vn -0.707 0.000 -0.707
vn 0.896 0.000 -0.444
vn 0.444 0.000 -0.896
vn -0.707 0.000 -0.707
vn -0.577 -0.577 -0.577
vn -0.577 -0.577 -0.577
vn -0.577 -0.577 -0.577
vn -0.577 -0.577 -0.577
vn -0.577 -0.577 -0.577
vn -0.577 -0.577 -0.577
vn -0.577 -0.577 -0.577
vn -0.577 -0.577 -0.577
vn -0.577 -0.577 -0.577
vn -0.577 -0.577 -0.577
vn -0.577 -0.577 -0.577
vn -0.577 -0.577 -0.577
vn -0.577 -0.577 -0.577
vn -0.577 -0.577 -0.577
vn -0.577 -0.577 -0.577
vn -0.577 -0.577 -0.577
vn -0.577 -0.577 -0.577
vn -0.577 -0.577 -0.577
vn -0.577 -0.577 -0.577
vn -0.577 -0.577 -0.577
vn -0.577 -0.577 -0.577
vn -0.577 -0.577 -0.577
vn -0.577 -0.577 -0.577
vn -0.577 -0.577 -0.577
vn -0.577 -0.577 -0.577
vn -0.577 -0.577 -0.577
vn -0.577 -0.577 -0.577
vn -0.577 -0.577 -0.577
vn -0.577 -0.577 -0.577
vn -0.577 -0.577 -0.577
vn -0.577 -0.577 -0.577
vn -0.577 -0.577 -0.577
vn -0.577 -0.577 -0.577
vn -0.577 -0.577 -0.577
vn -0.577 -0.577 -0.577
vn -0.577 -0.577 -0.577
vn -0.577 -0.577 -0.577
vn -0.577 -0.577 -0.577
vn -0.577 -0.577 -0.577
vn -0.577 -0.577 -0.577
vn -0.577 -0.577 -0.577
vn -0.577 -0.577 -0.577
vn -0.577 -0.577 -0.577
vn -0.577 -0.577 -0.577
vn -0.577 -0.577 -0.577
vn -0.577 -0.577 -0.577
vn -0.577 -0.577 -0.577
vn -0.577 -0.577 -0.577
vn -0.577 -0.577 -0.577
vn -0.577 -0.577 -0.577
vn -0.577 -0.577 -0.577
vn -0.577 -0.577 -0.577
vn -0.577 -0.577 -0.577
vn -0.577 -0.577 -0.577
vn -0.577 -0.577 -0.577
vn -0.577 -0.577 -0.577
vn -0.577 -0.577 -0.577
vn -0.577 -0.577 -0.577
vn -0.577 -0.577 -0.577
vn -0.577 -0.577 -0.577
vn -0.577 -0.577 -0.577
vn -0.577 -0.577 -0.577
vn -0.577 -0.577 -0.577
vn -0.577 -0.577 -0.577
vn -0.577 -0.577 -0.577
vn -0.577 -0.577 -0.577
vn -0.577 -0.577 -0.577
vn -0.577 -0.577 -0.577
vn -0.577 -0.577 -0.577
vn -0.577 -0.577 -0.577
vn -0.577 -0.577 -0.577
vn -0.577 -0.577 -0.577
vn -0.577 -0.577 -0.577
vn -0.577 -0.577 -0.577
vn -0.577 -0.577 -0.577
vn -0.577 -0.577 -0.577
vn -0.577 -0.577 -0.577
vn -0.577 -0.577 -0.577
vn -0.577 -0.577 -0.577
vn -0.577 -0.577 -0.577
vn -0.577 -0.577 -0.577
vn -0.577 -0.577 -0.577
vn -0.577 -0.577 -0.577
vn -0.577 -0.577 -0.577
vn -0.577 -0.577 -0.577
vn -0.577 -0.577 -0.577
vn -0.577 -0.577 -0.577
vn -0.577 -0.577 -0.577
vn -0.577 -0.577 -0.577
vn -0.577 -0.577 -0.577
vn -0.577 -0.577 -0.577
vn -0.577 -0.577 -0.577
vn -0.577 -0.577 -0.577
vn -0.577 -0.577 -0.577
vn -0.577 -0.577 -0.577
vn -0.577 -0.577 -0.577
vn -0.577 -0.577 -0.577
vn -0.577 -0.577 -0.577
vn -0.577 -0.577 -0.577
vn -0.577 -0.577 -0.577
vn -0.577 -0.577 -0.577
vn -0.577 -0.577 -0.577
vn -0.577 -0.577 -0.577
vn -0.577 -0.577 -0.577
vn -0.577 -0.577 -0.577
vn -0.577 -0.577 -0.577
vn -0.577 -0.577 -0.577
vn -0.577 -0.577 -0.577
vn -0.577 -0.577 -0.577
vn -0.577 -0.577 -0.577
vn -0.577 -0.577 -0.577
vn -0.577 -0.577 -0.577
vn -0.577 -0.577 -0.577
vn -0.577 -0.577 -0.577
vn -0.577 -0.577 -0.577
vn -0.577 -0.577 -0.577
vn -0.577 -0.577 -0.577
vn -0.577 -0.577 -0.577
vn -0.577 -0.577 -0.577
vn -0.577 -0.577 -0.577
vn -0.577 -0.577 -0.577
vn -0.577 -0.577 -0.577
vn -0.577 -0.577 -0.577
vn -0.577 -0.577 -0.577
vn -0.577 -0.577 -0.577
vn -0.577 -0.577 -0.577
vn -0.577 -0.577 -0.577
vn -0.577 -0.577 -0.577
vn -0.577 -0.577 -0.577
vn -0.577 -0.577 -0.577
vn -0.577 -0.577 -0.577
vn -0.577 -0.577 -0.577
vn -0.577 -0.577 -0.577
vn -0.577 -0.577 -0.577
vn -0.577 -0.577 -0.577
vn -0.577 -0.577 -0.577
vn -0.577 -0.577 -0.577
vn -0.577 -0.577 -0.577
vn -0.577 -0.577 -0.577
vn -0.577 -0.577 -0.577
vn -0.577 -0.577 -0.577
vn -0.577 -0.577 -0.577
vn -0.577 -0.577 -0.577
vn -0.577 -0.577 -0.577
vn -0.577 -0.577 -0.577
vn -0.577 -0.577 -0.577
vn -0.577 -0.577 -0.577
vn -0.577 -0.577 -0.577
vn -0.577 -0.577 -0.577
vn -0.577 -0.577 -0.577
vn -0.577 -0.577 -0.577
vn -0.577 -0.577 -0.577
vn -0.577 -0.577 -0.577
vn -0.577 -0.577 -0.577
vn -0.577 -0.577 -0.577
vn -0.577 -0.577 -0.577
vn -0.577 -0.577 -0.577
vn -0.577 -0.577 -0.577
vn -0.577 -0.577 -0.577
vn -0.577 -0.577 -0.577
vn -0.577 -0.577 -0.577
vn -0.577 -0.577 -0.577
vn -0.577 -0.577 -0.577
vn -0.577 -0.577 -0.577
vn -0.577 -0.577 -0.577
vn -0.577 -0.577 -0.577
vn -0.577 -0.577 -0.577
vn -0.577 -0.577 -0.577
vn -0.577 -0.577 -0.577
vn -0.577 -0.577 -0.577
vn -0.577 -0.577 -0.577
vn -0.577 -0.577 -0.577
vn -0.577 -0.577 -0.577
vn -0.577 -0.577 -0.577
vn -0.577 -0.577 -0.577
vn -0.577 -0.577 -0.577
vn -0.577 -0.577 -0.577
vn -0.577 -0.577 -0.577
vn -0.577 -0.577 -0.577
vn -0.577 -0.577 -0.577
vn -0.577 -0.577 -0.577
vn -0.577 -0.577 -0.577
vn -0.577 -0.577 -0.577
vn -0.577 -0.577 -0.577
vn -0.577 -0.577 -0.577
vn -0.577 -0.577 -0.577
vn -0.577 -0.577 -0.577
vn -0.577 -0.577 -0.577
vn -0.577 -0.577 -0.577
vn -0.577 -0.577 -0.577
vn -0.577 -0.577 -0.577
vn -0.577 -0.577 -0.577
vn -0.577 -0.577 -0.577
vn -0.577 -0.577 -0.577
vn -0.577 -0.577 -0.577
vn -0.577 -0.577 -0.577
vn -0.577 -0.577 -0.577
vn -0.577 -0.577 -0.577
vn -0.577 -0.577 -0.577
vn -0.577 -0.577 -0.577
vn -0.577 -0.577 -0.577
vn -0.577 -0.577 -0.577
vn -0.577 -0.577 -0.577
vn -0.577 -0.577 -0.577
vn -0.577 -0.577 -0.577
vn -0.577 -0.577 -0.577
vn -0.577 -0.577 -0.577
vn -0.577 -0.577 -0.577
vn -0.577 -0.577 -0.577
vn -0.577 -0.577 -0.577
vn -0.577 -0.577 -0.577
vn -0.577 -0.577 -0.577
vn -0.577 -0.577 -0.577
vn -0.577 -0.577 -0.577
vn -0.577 -0.577 -0.577
vn -0.577 -0.577 -0.577
vn -0.577 -0.577 -0.577
vn -0.577 -0.577 -0.577
vn -0.577 -0.577 -0.577
vn -0.577 -0.577 -0.577
vn -0.577 -0.577 -0.577
vn -0.577 -0.577 -0.577
vn -0.577 -0.577 -0.577
vn -0.577 -0.577 -0.577
vn -0.577 -0.577 -0.577
vn -0.577 -0.577 -0.577
vn -0.577 -0.577 -0.577
vn -0.577 -0.577 -0.577
vn -0.577 -0.577 -0.577
vn -0.577 -0.577 -0.577
vn -0.577 -0.577 -0.577
vn -0.577 -0.577 -0.577
vn -0.577 -0.577 -0.577
vn -0.577 -0.577 -0.577
vn -0.577 -0.577 -0.577
vn -0.577 -0.577 -0.577
vn -0.577 -0.577 -0.577
vn -0.577 -0.577 -0.577
vn -0.577 -0.577 -0.577
vn -0.577 -0.577 -0.577
vn -0.577 -0.577 -0.577
vn -0.577 -0.577 -0.577
vn -0.577 -0.577 -0.577
vn -0.577 -0.577 -0.577
vn -0.577 -0.577 -0.577
vn -0.577 -0.577 -0.577
vn -0.577 -0.577 -0.577
vn -0.577 -0.577 -0.577
vn -0.577 -0.577 -0.577
vn -0.577 -0.577 -0.577
vn -0.577 -0.577 -0.577
vn -0.577 -0.577 -0.577
vn -0.577 -0.577 -0.577
vn -0.577 -0.577 -0.577
vn -0.577 -0.577 -0.577
vn -0.577 -0.577 -0.577
vn -0.577 -0.577 -0.577
vn -0.577 -0.577 -0.577
vn -0.577 -0.577 -0.577
vn -0.577 -0.577 -0.577
vn -0.577 -0.577 -0.577
vn -0.577 -0.577 -0.577
vn -0.577 -0.577 -0.577
vn -0.577 -0.577 -0.577
vn -0.577 -0.577 -0.577
vn -0.577 -0.577 -0.577
vn -0.577 -0.577 -0.577
vn -0.577 -0.577 -0.577
vn -0.577 -0.577 -0.577
vn -0.577 -0.577 -0.577
vn -0.577 -0.577 -0.577
vn -0.577 -0.577 -0.577
vn -0.577 -0.577 -0.577
vn -0.577 -0.577 -0.577
vn -0.577 -0.577 -0.577
vn -0.577 -0.577 -0.577
vn -0.577 -0.577 -0.577
vn -0.577 -0.577 -0.577
vn -0.577 -0.577 -0.577
vn -0.577 -0.577 -0.577
vn -0.577 -0.577 -0.577
vn -0.577 -0.577 -0.577
vn -0.577 -0.577 -0.577
vn -0.577 -0.577 -0.577
vn -0.577 -0.577 -0.577
vn -0.577 -0.577 -0.577
vn -0.577 -0.577 -0.577
vn -0.577 -0.577 -0.577
vn -0.577 -0.577 -0.577
vn -0.577 -0.577 -0.577
vn -0.577 -0.577 -0.577
vn -0.577 -0.577 -0.577
vn -0.577 -0.577 -0.577
vn -0.577 -0.577 -0.577
vn -0.577 -0.577 -0.577
vn -0.577 -0.577 -0.577
vn -0.577 -0.577 -0.577
vn -0.577 -0.577 -0.577
vn -0.577 -0.577 -0.577
vn -0.577 -0.577 -0.577
vn -0.577 -0.577 -0.577
vn -0.577 -0.577 -0.577
vn -0.577 -0.577 -0.577
vn -0.577 -0.577 -0.577
vn -0.577 -0.577 -0.577
vn -0.577 -0.577 -0.577
vn -0.577 -0.577 -0.577
vn -0.577 -0.577 -0.577
vn -0.577 -0.577 -0.577
vn -0.577 -0.577 -0.577
vn -0.577 -0.577 -0.577
vn -0.577 -0.577 -0.577
vn -0.577 -0.577 -0.577
vn -0.577 -0.577 -0.577
vn -0.577 -0.577 -0.577
vn -0.577 -0.577 -0.577
vn -0.577 -0.577 -0.577
vn -0.577 -0.577 -0.577
vn -0.577 -0.577 -0.577
vn -0.577 -0.577 -0.577
vn -0.577 -0.577 -0.577
vn -0.577 -0.577 -0.577
vn -0.577 -0.577 -0.577
vn -0.577 -0.577 -0.577
vn -0.577 -0.577 -0.577
vn -0.577 -0.577 -0.577
vn -0.577 -0.577 -0.577
vn -0.577 -0.577 -0.577
vn -0.577 -0.577 -0.577
vn -0.577 -0.577 -0.577
vn -0.577 -0.577 -0.577
vn -0.577 -0.577 -0.577
vn -0.577 -0.577 -0.577
vn -0.577 -0.577 -0.577
vn -0.577 -0.577 -0.577
vn -0.577 -0.577 -0.577
vn -0.577 -0.577 -0.577
vn -0.577 -0.577 -0.577
vn -0.577 -0.577 -0.577
vn -0.577 -0.577 -0.577
vn -0.577 -0.577 -0.577
vn -0.577 -0.577 -0.577
vn -0.577 -0.577 -0.577
vn -0.577 -0.577 -0.577
vn -0.577 -0.577 -0.577
vn -0.577 -0.577 -0.577
vn -0.577 -0.577 -0.577
vn -0.577 -0.577 -0.577
vn -0.577 -0.577 -0.577
vn -0.577 -0.577 -0.577
vn -0.577 -0.577 -0.577
vn -0.577 -0.577 -0.577
vn -0.577 -0.577 -0.577
vn -0.577 -0.577 -0.577
vn -0.577 -0.577 -0.577
vn -0.577 -0.577 -0.577
vn -0.577 -0.577 -0.577
vn -0.577 -0.577 -0.577
vn -0.577 -0.577 -0.577
vn -0.577 -0.577 -0.577
vn -0.577 -0.577 -0.577
vn -0.577 -0.577 -0.577
vn -0.577 -0.577 -0.577
vn -0.577 -0.577 -0.577
vn -0.577 -0.577 -0.577
vn -0.577 -0.577 -0.577
vn -0.577 -0.577 -0.577
vn -0.577 -0.577 -0.577
vn -0.577 -0.577 -0.577
vn -0.577 -0.577 -0.577
vn -0.577 -0.577 -0.577
vn -0.577 -0.577 -0.577
vn -0.577 -0.577 -0.577
vn -0.577 -0.577 -0.577
vn -0.577 -0.577 -0.577
vn -0.577 -0.577 -0.577
vn -0.577 -0.577 -0.577
vn -0.577 -0.577 -0.577
vn -0.577 -0.577 -0.577
vn -0.577 -0.577 -0.577
vn -0.577 -0.577 -0.577
vn -0.577 -0.577 -0.577
vn -0.577 -0.577 -0.577
vn -0.577 -0.577 -0.577
vn -0.577 -0.577 -0.577
vn -0.577 -0.577 -0.577
vn -0.577 -0.577 -0.577
vn -0.577 -0.577 -0.577
vn -0.577 -0.577 -0.577
vn -0.577 -0.577 -0.577
vn -0.577 -0.577 -0.577
vn -0.577 -0.577 -0.577
vn -0.577 -0.577 -0.577
vn -0.577 -0.577 -0.577
vn -0.577 -0.577 -0.577
vn -0.577 -0.577 -0.577
vn -0.577 -0.577 -0.577
vn -0.577 -0.577 -0.577
vn -0.577 -0.577 -0.577
vn -0.577 -0.577 -0.577
vn -0.577 -0.577 -0.577
vn -0.577 -0.577 -0.577
vn -0.577 -0.577 -0.577
vn -0.577 -0.577 -0.577
vn -0.577 -0.577 -0.577
vn -0.577 -0.577 -0.577
vn -0.577 -0.577 -0.577
vn -0.577 -0.577 -0.577
vn -0.577 -0.577 -0.577
vn -0.577 -0.577 -0.577
vn -0.577 -0.577 -0.577
vn -0.577 -0.577 -0.577
vn -0.577 -0.577 -0.577
vn -0.577 -0.577 -0.577
vn -0.577 -0.577 -0.577
vn -0.577 -0.577 -0.577
vn -0.577 -0.577 -0.577
vn -0.577 -0.577 -0.577
vn -0.577 -0.577 -0.577
vn -0.577 -0.577 -0.577
vn -0.577 -0.577 -0.577
vn -0.577 -0.577 -0.577
vn -0.577 -0.577 -0.577
vn -0.577 -0.577 -0.577
vn 0.571 -0.548 -0.611
vn 0.715 -0.413 0.564
vn -0.704 -0.609 0.364
vn -0.634 -0.365 -0.682
vn -0.553 0.656 0.514
vn 0.648 0.561 0.514
vn 0.556 0.651 -0.516
vn -0.524 0.452 -0.722
vn -0.986 -0.134 0.103
vn -0.967 0.135 0.214
vn -0.972 0.182 -0.150
vn -0.954 -0.278 -0.111
vn 0.000 0.000 -1.000
vn 0.979 0.110 -0.174
vn 0.961 0.222 0.167
vn 0.986 -0.134 0.103
vn 0.986 -0.134 0.103
vn 0.955 -0.276 -0.110
vn 0.979 0.110 -0.174
vn -0.967 0.135 0.214
vn -0.553 0.656 0.514
vn -0.972 0.182 -0.150
vn -0.704 -0.609 0.364
vn -0.986 -0.134 0.103
vn -0.954 -0.278 -0.111
vn -0.634 -0.365 -0.682
vn -0.704 -0.609 0.364
vn -0.524 0.452 -0.722
vn 0.648 0.561 0.514
vn 0.961 0.222 0.167
vn 0.556 0.651 -0.516
vn 0.571 -0.548 -0.611
vn 0.571 -0.548 -0.611
vn 0.955 -0.276 -0.110
vn 0.715 -0.413 0.564
vn 0.986 -0.134 0.103
vn 0.961 0.222 0.167
vn 0.648 0.561 0.514
vn -0.524 0.452 -0.722
vn -0.972 0.182 -0.150
vn -0.553 0.656 0.514
vn 0.000 0.000 -1.000
vn 0.000 0.000 -1.000
vn 0.000 0.000 -1.000
vn 0.000 0.000 -1.000
vn 0.000 0.000 -1.000
vn 0.000 0.000 -1.000
vn 0.000 0.000 -1.000
vn 0.000 0.000 -1.000
vn 0.000 0.000 -1.000
vn 0.000 0.000 -1.000
vn 0.000 0.000 -1.000
vn 0.000 0.000 -1.000
vn 0.000 0.000 -1.000
vn 0.000 0.000 -1.000
vn 0.000 0.000 -1.000
vn 0.000 0.000 -1.000
vn 0.799 0.601 0.000
vn 0.991 0.135 0.000
vn 0.991 -0.135 0.000
vn 0.601 0.799 0.000
vn 0.135 0.991 0.000
vn -0.135 0.991 0.000
vn -0.601 0.799 0.000
vn -0.799 0.601 0.000
vn -0.991 0.135 0.000
vn -0.991 -0.135 0.000
vn -0.799 -0.601 0.000
vn -0.601 -0.799 0.000
vn -0.135 -0.991 0.000
vn 0.135 -0.991 0.000
vn 0.601 -0.799 0.000
vn 0.799 -0.601 0.000
vn 0.799 0.601 0.000
vn 0.991 0.135 0.000
vn 0.991 -0.135 0.000
vn 0.601 0.799 0.000
vn 0.135 0.991 0.000
vn -0.135 0.991 0.000
vn -0.601 0.799 0.000
vn -0.799 0.601 0.000
vn -0.991 0.135 0.000
vn -0.991 -0.135 0.000
vn -0.799 -0.601 0.000
vn -0.601 -0.799 0.000
vn -0.135 -0.991 0.000
vn 0.135 -0.991 0.000
vn 0.601 -0.799 0.000
vn 0.799 -0.601 0.000
vn -1.000 0.000 0.000
vn -1.000 0.000 0.000
vn -1.000 0.000 0.000
vn -1.000 0.000 0.000
vn 1.000 0.000 0.000
vn 1.000 0.000 0.000
vn 1.000 0.000 0.000
vn 1.000 0.000 0.000
vn 0.000 0.925 0.380
vn 0.000 0.707 0.707
vn 0.000 0.707 0.707
vn 0.000 0.925 0.380
vn 0.000 1.000 0.000
vn 0.000 1.000 0.000
vn 0.000 -0.987 -0.158
vn 0.000 -0.987 -0.158
vn 0.000 -0.987 -0.158
vn 0.000 -0.987 -0.158
vn 0.799 0.601 0.000
vn 0.991 0.135 0.000
vn 0.991 -0.135 0.000
vn 0.601 0.799 0.000
vn 0.135 0.991 0.000
vn -0.135 0.991 0.000
vn -0.601 0.799 0.000
vn -0.799 0.601 0.000
vn -0.991 0.135 0.000
vn -0.991 -0.135 0.000
vn -0.799 -0.601 0.000
vn -0.601 -0.799 0.000
vn -0.135 -0.991 0.000
vn 0.135 -0.991 0.000
vn 0.601 -0.799 0.000
vn 0.799 -0.601 0.000
usemtl tex_2157_fl0_ds_w11
f 1/1/1 2/2/2 3/3/3
f 1/1/1 3/3/3 4/4/4
usemtl tex_2158_fl0_ds_w11_ovl
f 5/1/5 6/2/6 7/3/7
f 5/1/5 7/3/7 8/4/8
usemtl tex_2159_fl0_ds_w11_ovl
f 9/1/9 10/2/10 11/3/11
f 9/1/9 11/3/11 12/4/12
usemtl tex_2160_fl0_ds_w11_ovl
f 13/1/13 14/2/14 15/3/15
f 13/1/13 15/3/15 16/4/16
usemtl tex_2157_fl1_ds_w11
f 17/1/17 18/2/18 19/3/19
f 17/1/17 19/3/19 20/4/20
usemtl tex_2158_fl1_ds_w11_ovl
f 21/1/21 22/2/22 23/3/23
f 21/1/21 23/3/23 24/4/24
usemtl tex_2159_fl1_ds_w11_ovl
f 25/1/25 26/2/26 27/3/27
f 25/1/25 27/3/27 28/4/28
usemtl tex_2160_fl1_ds_w11_ovl
f 29/1/29 30/2/30 31/3/31
f 29/1/29 31/3/31 32/4/32
usemtl tex_1795_sw1_0_lit_ds_w11
f 33/5/33 34/6/34 35/7/35
f 36/8/36 34/6/34 33/5/33
f 37/9/37 36/8/36 33/5/33
f 38/10/38 36/8/36 37/9/37
f 39/11/39 38/10/38 37/9/37
f 40/12/40 38/10/38 39/11/39
f 41/13/41 42/14/42 43/15/43
f 44/16/44 42/14/42 41/13/41
f 45/17/45 44/16/44 41/13/41
f 46/18/46 44/16/44 45/17/45
f 35/7/35 46/18/46 45/17/45
f 34/6/34 46/18/46 35/7/35
f 47/19/47 34/6/34 48/20/48
f 34/6/34 36/8/36 48/20/48
f 49/20/49 50/8/50 51/21/51
f 51/21/51 50/8/50 52/10/52
f 53/22/53 51/21/51 52/10/52
f 53/22/53 52/10/52 54/12/54
f 54/12/54 55/23/55 53/22/53
f 55/23/55 56/24/56 53/22/53
f 57/6/57 58/19/58 59/18/59
usemtl tex_1796_sw1_0_lit_ds_w11
f 60/25/60 61/26/61 62/27/62
f 62/27/62 61/26/61 63/28/63
f 62/27/62 63/28/63 64/29/64
f 65/29/65 66/28/66 67/30/67
f 65/29/65 67/30/67 68/31/68
f 68/31/68 67/30/67 69/32/69
f 68/31/68 69/32/69 70/33/70
f 70/33/70 69/32/69 71/34/71
f 70/33/70 71/34/71 72/35/72
f 72/35/72 71/34/71 73/36/73
f 72/35/72 73/36/73 74/37/74
f 74/37/74 73/36/73 75/38/75
f 74/37/74 75/38/75 76/39/76
f 76/39/76 75/38/75 77/40/77
f 76/39/76 77/40/77 78/25/78
f 78/25/78 77/40/77 79/26/79
f 80/27/80 81/41/81 82/42/82
f 83/29/83 81/41/81 80/27/80
f 84/31/84 81/41/81 83/29/83
f 80/27/80 82/42/82 85/25/85
f 82/42/82 86/39/86 85/25/85
f 81/41/81 84/31/84 87/33/87
f 88/35/88 81/41/81 87/33/87
f 89/37/89 81/41/81 88/35/88
f 82/42/82 81/41/81 89/37/89
f 82/42/82 89/37/89 86/39/86
usemtl tex_1794_sw2_0_lit_ds_w11
f 90/43/90 91/44/91 92/45/92
f 92/45/92 91/44/91 93/46/93
f 91/44/91 94/47/94 93/46/93
f 95/48/95 96/49/96 97/50/97
f 98/51/98 99/50/99 100/52/100
f 101/53/101 95/48/95 98/51/98
f 98/51/98 95/48/95 99/50/99
f 102/54/102 98/51/98 103/55/103
f 98/51/98 100/52/100 103/55/103
f 97/50/97 96/49/96 104/56/104
f 96/49/96 105/57/105 104/56/104
f 106/56/106 107/57/107 108/58/108
f 109/59/109 110/53/110 111/54/111
f 111/54/111 110/53/110 112/51/112
usemtl tex_1795_sw2_0_lit_ds_w11
f 113/60/113 114/61/114 115/62/115
f 115/62/115 114/61/114 116/63/116
f 114/61/114 117/64/117 116/63/116
f 118/65/118 113/60/113 119/66/119
f 119/66/119 113/60/113 115/62/115
f 120/67/120 121/5/121 122/68/122
f 123/9/123 121/5/121 120/67/120
f 123/9/123 120/67/120 124/69/124
f 125/70/125 123/9/123 124/69/124
f 126/11/126 123/9/123 125/70/125
f 122/68/122 121/5/121 127/7/127
f 127/7/127 128/71/128 122/68/122
usemtl tex_1794_sw2_0_lit_ds_w11
f 129/72/129 130/73/130 131/74/131
f 132/75/132 130/73/130 129/72/129
f 133/76/133 132/75/132 129/72/129
f 134/77/134 132/75/132 133/76/133
f 135/78/135 134/77/134 133/76/133
f 136/79/136 137/77/137 138/78/138
f 139/80/139 140/81/140 141/82/141
f 142/83/142 140/81/140 139/80/139
f 143/84/143 142/83/142 139/80/139
f 144/85/144 142/83/142 143/84/143
f 145/74/145 144/85/144 143/84/143
f 146/73/146 144/85/144 145/74/145
f 147/86/147 148/87/148 149/72/149
f 150/88/150 147/86/147 145/74/145
f 147/86/147 149/72/149 145/74/145
f 151/89/151 152/90/152 153/80/153
f 154/90/154 151/89/151 153/80/153
f 151/89/151 155/91/155 152/90/152
f 151/89/151 156/92/156 155/91/155
f 157/72/157 158/87/158 159/76/159
f 159/76/159 158/87/158 160/52/160
f 160/52/160 161/78/161 159/76/159
f 161/78/161 160/52/160 162/50/162
usemtl tex_661_lit_env_ds
f 163/93/163 164/93/164 165/94/165
f 165/94/165 166/95/166 163/93/163
f 167/96/167 168/97/168 169/98/169
f 169/98/169 170/96/170 167/96/167
f 163/93/163 169/98/169 168/97/168
f 168/97/168 164/93/164 163/93/163
f 167/96/167 170/96/170 166/95/166
f 166/95/166 165/94/165 167/96/167
usemtl tex_1796_sw4_0_lit_ds_w11
f 171/99/171 172/100/172 173/101/173
f 174/102/174 172/100/172 175/103/175
f 175/103/175 172/100/172 171/99/171
f 176/104/176 172/100/172 177/105/177
f 177/105/177 172/100/172 174/102/174
f 177/105/177 174/102/174 178/106/178
f 178/106/178 174/102/174 179/107/179
f 178/106/178 179/107/179 180/108/180
f 180/108/180 179/107/179 181/109/181
f 180/108/180 181/109/181 182/110/182
f 182/110/182 181/109/181 183/111/183
f 182/110/182 183/111/183 184/112/184
f 184/112/184 183/111/183 185/113/185
f 184/112/184 185/113/185 186/114/186
f 187/114/187 188/113/188 189/115/189
f 187/114/187 189/115/189 190/116/190
f 190/116/190 189/115/189 191/117/191
f 190/116/190 191/117/191 192/104/192
f 192/104/192 191/117/191 193/100/193
f 194/105/194 195/118/195 196/119/196
f 197/106/197 195/118/195 194/105/194
f 198/108/198 195/118/195 197/106/197
f 194/105/194 196/119/196 192/104/192
f 196/119/196 190/116/190 192/104/192
f 195/118/195 198/108/198 199/110/199
f 200/112/200 195/118/195 199/110/199
f 187/114/187 195/118/195 200/112/200
f 196/119/196 195/118/195 187/114/187
f 196/119/196 187/114/187 190/116/190
usemtl tex_1795_sw4_1_lit_ds_w11
f 201/120/201 202/121/202 203/122/203
f 204/123/204 202/121/202 201/120/201
f 204/123/204 201/120/201 205/124/205
f 206/125/206 204/123/204 205/124/205
f 206/125/206 205/124/205 207/126/207
f 207/126/207 205/124/205 208/127/208
f 209/128/209 207/126/207 208/127/208
f 209/128/209 208/127/208 210/129/210
f 203/122/203 202/121/202 211/130/211
usemtl tex_1796_sw4_1_lit_ds_w11
f 212/131/212 213/132/213 214/133/214
f 214/133/214 213/132/213 215/134/215
f 214/133/214 215/134/215 216/135/216
f 217/135/217 218/134/218 219/136/219
f 217/135/217 219/136/219 220/137/220
f 220/137/220 219/136/219 221/138/221
f 220/137/220 221/138/221 222/139/222
f 222/139/222 221/138/221 223/140/223
f 222/139/222 224/140/224 225/141/225
f 225/141/225 223/140/223 226/142/226
f 225/141/225 226/142/226 227/143/227
f 227/143/227 226/142/226 228/144/228
f 227/143/227 228/144/228 229/145/229
f 229/145/229 228/144/228 230/146/230
f 229/145/229 230/146/230 231/131/231
f 231/131/231 230/146/230 232/132/232
f 233/133/233 234/147/234 235/148/235
f 236/135/236 234/147/234 233/133/233
f 237/137/237 234/147/234 236/135/236
f 233/133/233 235/148/235 238/131/238
f 235/148/235 239/145/239 238/131/238
f 234/147/234 237/137/237 240/139/240
f 241/141/241 234/147/234 240/139/240
f 242/143/242 234/147/234 241/141/241
f 235/148/235 234/147/234 242/143/242
f 235/148/235 242/143/242 239/145/239
f 243/149/243 244/150/244 245/151/245
f 246/152/246 244/150/244 243/149/243
f 246/152/246 243/149/243 247/153/247
f 248/154/248 246/152/246 247/153/247
f 248/154/248 247/153/247 249/155/249
f 250/156/250 248/154/248 249/155/249
f 250/156/250 249/155/249 251/157/251
f 252/158/252 250/156/250 251/157/251
f 245/151/245 244/150/244 253/159/253
f 254/160/254 244/150/244 255/161/255
f 255/161/255 244/150/244 246/152/246
f 255/161/255 246/152/246 256/162/256
f 256/162/256 246/152/246 248/154/248
f 256/162/256 248/154/248 257/163/257
f 257/163/257 248/154/248 250/156/250
f 257/163/257 250/156/250 258/164/258
f 258/164/258 250/156/250 252/158/252
f 259/164/259 260/158/260 261/165/261
f 261/165/261 260/158/260 262/166/262
f 261/165/261 262/166/262 263/167/263
f 263/167/263 262/166/262 264/168/264
f 263/167/263 264/168/264 265/169/265
f 265/169/265 264/168/264 266/159/266
f 265/169/265 266/159/266 267/160/267
f 267/160/267 266/159/266 268/150/268
f 269/161/269 270/170/270 271/171/271
f 272/162/272 270/170/270 269/161/269
f 273/163/273 270/170/270 272/162/272
f 274/161/274 275/171/275 276/160/276
f 275/171/275 277/169/277 278/160/278
f 279/170/279 280/163/280 281/164/281
f 282/165/282 279/170/279 281/164/281
f 283/167/283 284/170/284 282/165/282
f 275/171/275 284/170/284 283/167/283
f 275/171/275 283/167/283 277/169/277
usemtl tex_1797_sw4_1_lit_ds_w11
f 285/172/285 286/173/286 287/174/287
f 285/172/285 288/175/288 286/173/286
f 286/173/286 288/175/288 289/176/289
f 288/175/288 290/177/290 289/176/289
f 291/178/291 290/177/290 288/175/288
f 291/178/291 292/179/292 290/177/290
f 292/179/292 293/180/293 290/177/290
usemtl tex_1794_sw4_1_lit_ds_w11
f 294/181/294 295/182/295 296/183/296
f 294/181/294 296/183/296 297/184/297
f 297/184/297 296/183/296 298/185/298
f 299/45/299 300/46/300 301/186/301
f 302/187/302 299/45/299 301/186/301
f 303/184/303 299/45/299 302/187/302
f 304/188/304 305/181/305 303/184/303
f 304/188/304 306/189/306 305/181/305
f 306/189/306 307/190/307 305/181/305
f 308/191/308 307/190/307 306/189/306
f 308/191/308 309/192/309 307/190/307
f 310/193/310 311/194/311 312/195/312
usemtl tex_1797_sw4_1_lit_ds_w11
f 313/196/313 314/197/314 315/198/315
f 315/198/315 314/197/314 316/199/316
f 314/197/314 317/200/317 316/199/316
f 317/200/317 318/201/318 316/199/316
f 317/200/317 319/202/319 318/201/318
f 319/202/319 320/203/320 318/201/318
usemtl tex_1794_sw4_1_lit_ds_w11
f 321/204/321 322/205/322 323/206/323
f 323/206/323 322/205/322 324/207/324
f 322/205/322 325/195/325 324/207/324
f 325/195/325 326/194/326 324/207/324
f 327/193/327 328/208/328 326/194/326
f 329/193/329 330/209/330 331/208/331
f 332/210/332 330/209/330 333/211/333
usemtl tex_1797_sw4_1_lit_ds_w11
f 334/196/334 335/212/335 336/172/336
f 336/172/336 335/212/335 337/175/337
f 335/212/335 338/178/338 337/175/337
f 339/213/339 340/214/340 341/215/341
f 339/213/339 341/215/341 342/216/342
f 341/215/341 343/217/343 342/216/342
f 343/217/343 344/218/344 342/216/342
f 345/219/345 346/218/346 347/217/347
f 345/219/345 348/174/348 346/218/346
f 345/219/345 349/172/349 348/174/348
f 350/179/350 351/220/351 352/180/352
f 353/214/353 354/202/354 355/200/355
f 355/200/355 356/215/356 353/214/353
f 355/200/355 357/197/357 356/215/356
f 356/215/356 357/197/357 347/217/347
f 357/197/357 345/219/345 347/217/347
f 357/197/357 358/196/358 345/219/345
f 358/196/358 349/172/349 345/219/345
usemtl tex_1794_sw4_1_lit_ds_w11
f 359/221/359 360/210/360 361/52/361
f 360/210/360 362/55/362 361/52/361
f 360/210/360 363/211/363 362/55/362
f 363/211/363 364/46/364 362/55/362
f 363/211/363 365/186/365 364/46/364
f 366/184/366 367/187/367 368/188/368
f 369/222/369 370/192/370 371/191/371
f 369/222/369 371/191/371 372/204/372
f 371/191/371 373/205/373 372/204/372
f 373/205/373 371/191/371 374/189/374
f 375/189/375 376/195/376 377/205/377
f 378/188/378 376/195/376 375/189/375
f 378/188/378 379/187/379 376/195/376
f 376/195/376 379/187/379 380/186/380
f 381/193/381 376/195/376 380/186/380
f 381/193/381 380/186/380 382/211/382
f 383/209/383 381/193/381 382/211/382
f 384/210/384 385/221/385 383/209/383
f 385/221/385 386/52/386 387/87/387
f 387/87/387 388/223/388 385/221/385
f 387/87/387 389/86/389 388/223/388
usemtl tex_1798_sw4_1_lit_ds_w11
f 390/224/390 391/225/391 392/226/392
f 393/227/393 394/228/394 395/229/395
f 396/230/396 391/225/391 390/224/390
f 397/231/397 398/232/398 390/224/390
f 397/231/397 399/233/399 398/232/398
f 399/233/399 396/230/396 398/232/398
f 396/230/396 390/224/390 398/232/398
usemtl tex_1797_sw4_1_lit_ds_w11
f 400/234/400 401/235/401 402/236/402
f 402/236/402 403/237/403 400/234/400
f 402/236/402 404/238/404 403/237/403
f 403/237/403 404/238/404 405/179/405
f 406/239/406 407/179/407 408/238/408
f 409/240/409 407/179/407 406/239/406
usemtl tex_1794_sw4_1_lit_ds_w11_ovl
f 410/241/410 411/242/411 412/223/412
usemtl tex_1794_sw4_1_lit_ds_w11
f 412/223/412 413/243/413 410/241/410
f 414/209/414 412/223/412 411/242/411
f 415/221/415 412/223/412 414/209/414
f 413/243/413 412/223/412 416/86/416
f 416/86/416 417/88/417 413/243/413
usemtl tex_1798_sw4_1_lit_ds_w11
f 418/244/418 419/231/419 420/224/420
f 420/224/420 421/245/421 418/244/418
f 422/246/422 423/245/423 424/224/424
f 425/247/425 423/245/423 422/246/422
usemtl tex_1797_sw4_1_lit_ds_w11
f 426/248/426 427/249/427 428/250/428
f 426/248/426 428/250/428 429/234/429
f 429/234/429 430/237/430 426/248/426
f 426/248/426 430/237/430 431/212/431
f 431/212/431 430/237/430 432/179/432
f 431/212/431 432/179/432 433/178/433
usemtl tex_1794_sw4_1_lit_ds_w11
f 434/251/434 435/208/435 436/209/436
usemtl tex_1797_sw4_1_lit_ds_w11
f 437/198/437 438/212/438 439/196/439
f 440/252/440 438/212/438 437/198/437
f 441/248/441 438/212/438 440/252/440
f 441/248/441 442/253/442 443/249/443
f 441/248/441 440/252/440 442/253/442
f 444/254/444 442/253/442 440/252/440
f 444/254/444 443/249/443 442/253/442
usemtl tex_1798_sw4_1_lit_ds_w11
f 445/255/445 446/245/446 447/256/447
f 446/245/446 448/257/448 447/256/447
f 445/255/445 449/244/449 446/245/446
f 449/244/449 445/255/445 450/231/450
usemtl tex_1794_sw4_1_lit_ds_w11
f 451/241/451 452/258/452 453/259/453
f 454/242/454 451/241/451 453/259/453
f 455/209/455 454/242/454 453/259/453
f 455/209/455 453/259/453 456/251/456
f 453/259/453 457/260/457 458/261/458
f 458/261/458 456/251/456 453/259/453
f 456/251/456 458/261/458 459/208/459
f 459/208/459 458/261/458 460/262/460
f 461/194/461 459/208/459 460/262/460
f 461/194/461 460/262/460 462/263/462
f 463/207/463 461/194/461 462/263/462
f 463/207/463 462/263/462 464/206/464
usemtl tex_1793_sw4_1_lit_ds_w11
f 465/264/465 466/265/466 467/266/467
usemtl tex_1797_sw4_1_lit_ds_w11
f 468/267/468 469/268/469 470/269/470
f 468/267/468 470/269/470 471/270/471
f 472/271/472 468/267/468 471/270/471
f 472/271/472 471/270/471 473/272/473
f 474/273/474 472/271/472 473/272/473
f 474/273/474 473/272/473 475/274/475
f 476/275/476 474/273/474 475/274/475
usemtl tex_1798_sw4_1_lit_ds_w11
f 477/257/477 478/276/478 479/256/479
f 478/276/478 480/255/480 479/256/479
f 481/277/481 482/276/482 483/278/483
usemtl tex_1794_sw4_1_lit_ds_w11
f 484/259/484 485/258/485 486/260/486
usemtl tex_1793_sw4_1_lit_ds_w11
f 487/279/487 488/264/488 489/266/489
usemtl tex_1796_sw4_1_lit_ds_w11
f 490/280/490 491/281/491 492/282/492
f 493/283/493 491/281/491 490/280/490
usemtl tex_1793_sw4_1_lit_ds_w11
f 494/284/494 495/285/495 496/286/496
f 497/287/497 498/285/498 499/284/499
f 500/288/500 497/287/497 499/284/499
f 501/289/501 497/287/497 500/288/500
f 502/290/502 501/289/501 500/288/500
f 503/291/503 501/289/501 502/290/502
f 504/292/504 503/291/503 502/290/502
f 505/264/505 503/291/503 504/292/504
f 506/293/506 505/264/505 504/292/504
f 507/265/507 505/264/505 506/293/506
usemtl tex_1796_sw4_1_lit_ds_w11
f 508/294/508 509/295/509 510/296/510
f 511/297/511 509/295/509 508/294/508
f 512/282/512 511/297/511 508/294/508
f 513/281/513 514/297/514 515/282/515
usemtl tex_1795_sw5_0_lit_ds_w11
f 516/298/516 517/299/517 518/300/518
f 519/301/519 517/299/517 516/298/516
f 520/302/520 517/299/517 519/301/519
f 516/298/516 518/300/518 521/303/521
f 518/300/518 522/304/522 521/303/521
f 517/299/517 520/302/520 523/305/523
f 524/306/524 517/299/517 523/305/523
f 525/307/525 517/299/517 524/306/524
f 518/300/518 517/299/517 525/307/525
f 518/300/518 525/307/525 522/304/522
f 521/303/521 526/308/526 516/298/516
f 516/298/516 526/308/526 527/309/527
f 516/298/516 527/309/527 519/301/519
f 519/301/519 527/309/527 528/310/528
f 519/301/519 528/310/528 520/302/520
f 520/302/520 528/310/528 529/311/529
f 520/302/520 529/311/529 523/305/523
f 523/305/523 529/311/529 530/312/530
f 523/305/523 530/312/530 524/306/524
f 524/306/524 530/312/530 531/313/531
f 524/306/524 531/313/531 525/307/525
f 532/307/532 533/313/533 534/314/534
f 532/307/532 534/314/534 535/304/535
f 535/304/535 534/314/534 536/315/536
f 535/304/535 536/315/536 537/303/537
f 537/303/537 536/315/536 538/308/538
usemtl tex_1798_sw5_0_lit_ds_w11
f 539/316/539 540/317/540 541/318/541
f 541/318/541 540/317/540 542/319/542
f 541/318/541 542/319/542 543/320/543
f 543/320/543 542/319/542 544/226/544
f 543/320/543 544/226/544 545/321/545
f 545/321/545 544/226/544 546/226/546
f 547/322/547 548/323/548 549/316/549
f 549/316/549 548/323/548 550/317/550
f 547/322/547 551/324/551 552/322/552
f 553/325/553 551/324/551 547/322/547
f 553/325/553 547/322/547 549/316/549
f 553/325/553 549/316/549 554/326/554
f 555/327/555 554/326/554 556/318/556
f 554/326/554 549/316/549 556/318/556
f 557/328/557 555/327/555 558/320/558
f 558/320/558 559/321/559 557/328/557
f 556/318/556 558/320/558 555/327/555
f 560/247/560 561/246/561 562/329/562
f 563/329/563 564/246/564 565/224/565
f 566/317/566 567/247/567 563/329/563
f 567/247/567 566/317/566 568/323/568
f 569/319/569 566/317/566 563/329/563
f 570/226/570 569/319/569 571/330/571
f 570/226/570 571/330/571 565/224/565
usemtl tex_1797_sw5_0_lit_ds_w11
f 572/331/572 573/239/573 574/332/574
f 574/332/574 573/239/573 575/238/575
f 574/332/574 575/238/575 576/333/576
f 576/333/576 575/238/575 577/236/577
f 576/333/576 577/236/577 578/334/578
f 579/334/579 580/236/580 581/235/581
f 579/334/579 581/235/581 582/335/582
f 582/335/582 581/235/581 583/336/583
f 584/337/584 579/334/579 582/335/582
f 582/335/582 585/338/585 584/337/584
f 586/333/586 579/334/579 584/337/584
f 586/333/586 584/337/584 587/339/587
f 588/332/588 586/333/586 587/339/587
f 589/340/589 590/341/590 591/342/591
f 592/343/592 588/332/588 587/339/587
f 593/234/593 583/336/583 581/235/581
f 593/234/593 594/250/594 583/336/583
usemtl tex_661_lit_env_ds
f 595/344/595 596/345/596 597/346/597
f 597/346/597 598/347/598 595/344/595
f 599/348/599 600/349/600 601/350/601
f 601/350/601 602/351/602 599/348/599
f 596/345/596 600/349/600 599/348/599
f 599/348/599 597/346/597 596/345/596
f 603/352/603 604/353/604 605/354/605
f 605/354/605 606/355/606 603/352/603
f 602/351/602 601/350/601 607/356/607
f 601/350/601 595/344/595 607/356/607
f 595/344/595 598/347/598 607/356/607
f 598/347/598 602/351/602 607/356/607
f 608/357/608 609/358/609 610/359/610
f 611/359/611 612/360/612 613/357/613
f 614/353/614 615/348/615 616/354/616
f 617/346/617 615/348/615 614/353/614
f 614/353/614 618/352/618 617/346/617
f 619/355/619 617/346/617 618/352/618
f 619/355/619 620/347/620 621/346/621
f 620/347/620 616/354/616 622/351/622
f 616/354/616 620/347/620 619/355/619
f 623/349/623 624/358/624 625/350/625
f 624/358/624 613/357/613 625/350/625
f 625/350/625 613/357/613 626/344/626
f 613/357/613 612/360/612 626/344/626
f 627/344/627 628/360/628 629/345/629
f 628/360/628 630/359/630 629/345/629
f 629/345/629 631/358/631 632/349/632
f 629/345/629 630/359/630 631/358/631
f 633/351/633 634/354/634 635/348/635
f 636/356/636 637/356/637 638/356/638
f 637/356/637 639/356/639 638/356/638
f 637/356/637 640/356/640 639/356/639
f 639/356/639 640/356/640 641/356/641
f 640/356/640 642/356/642 641/356/641
f 642/356/642 643/356/643 641/356/641
f 642/356/642 644/356/644 643/356/643
f 645/356/645 643/356/643 644/356/644
f 646/356/646 645/356/645 644/356/644
f 646/356/646 647/356/647 645/356/645
f 648/356/648 647/356/647 646/356/646
f 648/356/648 649/356/649 647/356/647
f 648/356/648 650/356/650 649/356/649
f 650/356/650 651/356/651 649/356/649
f 636/356/636 638/356/638 651/356/651
f 636/356/636 651/356/651 650/356/650
f 652/361/652 653/362/653 654/363/654
f 655/364/655 653/362/653 652/361/652
f 656/365/656 655/364/655 652/361/652
f 657/366/657 655/364/655 656/365/656
f 658/367/658 657/366/657 656/365/656
f 659/368/659 657/366/657 658/367/658
f 660/369/660 659/368/659 658/367/658
f 661/370/661 659/368/659 660/369/660
f 662/371/662 661/370/661 660/369/660
f 663/372/663 661/370/661 662/371/662
f 664/373/664 663/372/663 662/371/662
f 665/374/665 663/372/663 664/373/664
f 666/375/666 665/374/665 664/373/664
f 667/376/667 665/374/665 666/375/666
f 654/363/654 667/376/667 666/375/666
f 653/362/653 667/376/667 654/363/654
f 668/361/668 669/362/669 670/363/670
f 671/364/671 669/362/669 668/361/668
f 672/365/672 671/364/671 668/361/668
f 673/366/673 671/364/671 672/365/672
f 674/367/674 673/366/673 672/365/672
f 675/368/675 673/366/673 674/367/674
f 676/369/676 675/368/675 674/367/674
f 677/370/677 675/368/675 676/369/676
f 678/371/678 677/370/677 676/369/676
f 679/372/679 677/370/677 678/371/678
f 680/373/680 679/372/679 678/371/678
f 681/374/681 679/372/679 680/373/680
f 682/375/682 681/374/681 680/373/680
f 683/376/683 681/374/681 682/375/682
f 670/363/670 683/376/683 682/375/682
f 669/362/669 683/376/683 670/363/670
f 684/377/684 685/377/685 686/377/686
f 685/377/685 687/377/687 686/377/686
f 688/378/688 689/378/689 690/378/690
f 688/378/688 691/378/691 689/378/689
f 692/379/692 693/380/693 694/380/694
f 695/379/695 693/380/693 692/379/692
f 695/379/695 692/379/692 696/381/696
f 692/379/692 697/381/697 696/381/696
f 698/382/698 699/382/699 700/382/700
f 700/382/700 701/382/701 698/382/698
f 702/361/702 703/362/703 704/363/704
f 705/364/705 703/362/703 702/361/702
f 706/365/706 705/364/705 702/361/702
f 707/366/707 705/364/705 706/365/706
f 708/367/708 707/366/707 706/365/706
f 709/368/709 707/366/707 708/367/708
f 710/369/710 709/368/709 708/367/708
f 711/370/711 709/368/709 710/369/710
f 712/371/712 711/370/711 710/369/710
f 713/372/713 711/370/711 712/371/712
f 714/373/714 713/372/713 712/371/712
f 715/374/715 713/372/713 714/373/714
f 716/375/716 715/374/715 714/373/714
f 717/376/717 715/374/715 716/375/716
f 704/363/704 717/376/717 716/375/716
f 703/362/703 717/376/717 704/363/704
