mtllib GgrenadelaunchZ.mtl
v 0.0 64.0 377.55183029174805 1.000 1.000 1.000
v 64.0 64.0 377.55183029174805 1.000 1.000 1.000
v 64.0 0.0 377.55183029174805 1.000 1.000 1.000
v 0.0 0.0 377.55183029174805 1.000 1.000 1.000
v -64.0 64.0 377.55183029174805 1.000 1.000 1.000
v 0.0 64.0 377.55183029174805 1.000 1.000 1.000
v 0.0 0.0 377.55183029174805 1.000 1.000 1.000
v -64.0 0.0 377.55183029174805 1.000 1.000 1.000
v 0.0 0.0 377.55183029174805 1.000 1.000 1.000
v 64.0 0.0 377.55183029174805 1.000 1.000 1.000
v 64.0 -64.0 377.55183029174805 1.000 1.000 1.000
v 0.0 -64.0 377.55183029174805 1.000 1.000 1.000
v -64.0 0.0 377.55183029174805 1.000 1.000 1.000
v 0.0 0.0 377.55183029174805 1.000 1.000 1.000
v 0.0 -64.0 377.55183029174805 1.000 1.000 1.000
v -64.0 -64.0 377.55183029174805 1.000 1.000 1.000
v 0.0 117.25 639.0 1.000 1.000 1.000
v 64.0 117.25 639.0 1.000 1.000 1.000
v 64.0 53.25 639.0 1.000 1.000 1.000
v 0.0 53.25 639.0 1.000 1.000 1.000
v -64.0 117.25 639.0 1.000 1.000 1.000
v 0.0 117.25 639.0 1.000 1.000 1.000
v 0.0 53.25 639.0 1.000 1.000 1.000
v -64.0 53.25 639.0 1.000 1.000 1.000
v 0.0 53.25 639.0 1.000 1.000 1.000
v 64.0 53.25 639.0 1.000 1.000 1.000
v 64.0 -10.75 639.0 1.000 1.000 1.000
v 0.0 -10.75 639.0 1.000 1.000 1.000
v -64.0 53.25 639.0 1.000 1.000 1.000
v 0.0 53.25 639.0 1.000 1.000 1.000
v 0.0 -10.75 639.0 1.000 1.000 1.000
v -64.0 -10.75 639.0 1.000 1.000 1.000
v 25.985802000388503 48.48861598968506 160.07205200195312 1.000 1.000 1.000
v 25.985802000388503 48.48861598968506 270.0720520019531 1.000 1.000 1.000
v 17.985802000388503 30.48861598968506 270.0720520019531 1.000 1.000 1.000
v 17.985802000388503 30.48861598968506 160.07205200195312 1.000 1.000 1.000
v 17.985802000388503 66.48861598968506 160.07205200195312 1.000 1.000 1.000
v 17.985802000388503 66.48861598968506 270.0720520019531 1.000 1.000 1.000
v -0.014197999611496925 74.48861598968506 160.07205200195312 1.000 1.000 1.000
v -0.014197999611496925 74.48861598968506 270.0720520019531 1.000 1.000 1.000
v 17.985802000388503 66.48861598968506 270.0720520019531 1.000 1.000 1.000
v 17.985802000388503 66.48861598968506 160.07205200195312 1.000 1.000 1.000
v -18.014197999611497 66.48861598968506 160.07205200195312 1.000 1.000 1.000
v -18.014197999611497 66.48861598968506 270.0720520019531 1.000 1.000 1.000
v -26.014197999611497 48.48861598968506 160.07205200195312 1.000 1.000 1.000
v -26.014197999611497 48.48861598968506 270.0720520019531 1.000 1.000 1.000
v -18.014197999611497 30.48861598968506 160.07205200195312 1.000 1.000 1.000
v -18.014197999611497 30.48861598968506 270.0720520019531 1.000 1.000 1.000
v -26.014197999611497 48.48861598968506 270.0720520019531 1.000 1.000 1.000
v -26.014197999611497 48.48861598968506 160.07205200195312 1.000 1.000 1.000
v -0.014197999611496925 22.48861598968506 160.07205200195312 1.000 1.000 1.000
v -0.014197999611496925 22.48861598968506 270.0720520019531 1.000 1.000 1.000
v -18.014197999611497 30.48861598968506 270.0720520019531 1.000 1.000 1.000
v -18.014197999611497 30.48861598968506 160.07205200195312 1.000 1.000 1.000
v 17.985802000388503 30.48861598968506 160.07205200195312 1.000 1.000 1.000
v 17.985802000388503 30.48861598968506 270.0720520019531 1.000 1.000 1.000
v -0.014197999611496925 22.48861598968506 270.0720520019531 1.000 1.000 1.000
v -0.014197999611496925 22.48861598968506 160.07205200195312 1.000 1.000 1.000
v 17.985802000388503 30.48861598968506 270.0720520019531 1.000 1.000 1.000
v 25.985802000388503 48.48861598968506 270.0720520019531 1.000 1.000 1.000
v 17.985802000388503 66.48861598968506 270.0720520019531 1.000 1.000 1.000
v -0.014197999611496925 74.48861598968506 270.0720520019531 1.000 1.000 1.000
v -0.014197999611496925 74.48861598968506 270.0720520019531 1.000 1.000 1.000
v -18.014197999611497 66.48861598968506 270.0720520019531 1.000 1.000 1.000
v -0.014197999611496925 22.48861598968506 270.0720520019531 1.000 1.000 1.000
v 17.985802000388503 30.48861598968506 270.0720520019531 1.000 1.000 1.000
v -26.014197999611497 48.48861598968506 270.0720520019531 1.000 1.000 1.000
v -18.014197999611497 30.48861598968506 270.0720520019531 1.000 1.000 1.000
v -0.014197999611496925 74.48861598968506 160.07205200195312 1.000 1.000 1.000
v 17.985802000388503 66.48861598968506 160.07205200195312 1.000 1.000 1.000
v 25.985802000388503 48.48861598968506 160.07205200195312 1.000 1.000 1.000
v 17.985802000388503 30.48861598968506 160.07205200195312 1.000 1.000 1.000
v -0.014197999611496925 22.48861598968506 160.07205200195312 1.000 1.000 1.000
v -18.014197999611497 66.48861598968506 160.07205200195312 1.000 1.000 1.000
v -18.014197999611497 30.48861598968506 160.07205200195312 1.000 1.000 1.000
v -26.014197999611497 48.48861598968506 160.07205200195312 1.000 1.000 1.000
v 56.9858020003885 0.4886159896850586 160.07205200195312 1.000 1.000 1.000
v 56.9858020003885 0.4886159896850586 270.0720520019531 1.000 1.000 1.000
v 36.9858020003885 -2.5113840103149414 270.0720520019531 1.000 1.000 1.000
v 36.9858020003885 -2.5113840103149414 160.07205200195312 1.000 1.000 1.000
v 36.9858020003885 -2.5113840103149414 160.07205200195312 1.000 1.000 1.000
v 36.9858020003885 -2.5113840103149414 270.0720520019531 1.000 1.000 1.000
v 21.985802000388503 9.488615989685059 270.0720520019531 1.000 1.000 1.000
v 21.985802000388503 9.488615989685059 160.07205200195312 1.000 1.000 1.000
v 21.985802000388503 9.488615989685059 160.07205200195312 1.000 1.000 1.000
v 21.985802000388503 9.488615989685059 270.0720520019531 1.000 1.000 1.000
v 18.985802000388503 29.48861598968506 270.0720520019531 1.000 1.000 1.000
v 18.985802000388503 29.48861598968506 160.07205200195312 1.000 1.000 1.000
v 18.985802000388503 29.48861598968506 160.07205200195312 1.000 1.000 1.000
v 18.985802000388503 29.48861598968506 270.0720520019531 1.000 1.000 1.000
v 30.985802000388503 45.48861598968506 270.0720520019531 1.000 1.000 1.000
v 30.985802000388503 45.48861598968506 160.07205200195312 1.000 1.000 1.000
v 30.985802000388503 45.48861598968506 160.07205200195312 1.000 1.000 1.000
v 30.985802000388503 45.48861598968506 270.0720520019531 1.000 1.000 1.000
v 50.9858020003885 47.48861598968506 270.0720520019531 1.000 1.000 1.000
v 50.9858020003885 47.48861598968506 160.07205200195312 1.000 1.000 1.000
v 65.9858020003885 35.48861598968506 270.0720520019531 1.000 1.000 1.000
v 65.9858020003885 35.48861598968506 160.07205200195312 1.000 1.000 1.000
v 65.9858020003885 35.48861598968506 160.07205200195312 1.000 1.000 1.000
v 65.9858020003885 35.48861598968506 270.0720520019531 1.000 1.000 1.000
v 68.9858020003885 16.48861598968506 270.0720520019531 1.000 1.000 1.000
v 68.9858020003885 16.48861598968506 160.07205200195312 1.000 1.000 1.000
v 56.9858020003885 0.4886159896850586 270.0720520019531 1.000 1.000 1.000
v 56.9858020003885 0.4886159896850586 160.07205200195312 1.000 1.000 1.000
v 30.985802000388503 45.48861598968506 270.0720520019531 1.000 1.000 1.000
v 18.985802000388503 29.48861598968506 270.0720520019531 1.000 1.000 1.000
v 21.985802000388503 9.488615989685059 270.0720520019531 1.000 1.000 1.000
v 36.9858020003885 -2.5113840103149414 270.0720520019531 1.000 1.000 1.000
v 50.9858020003885 47.48861598968506 270.0720520019531 1.000 1.000 1.000
v 30.985802000388503 45.48861598968506 270.0720520019531 1.000 1.000 1.000
v 36.9858020003885 -2.5113840103149414 270.0720520019531 1.000 1.000 1.000
v 56.9858020003885 0.4886159896850586 270.0720520019531 1.000 1.000 1.000
v 68.9858020003885 16.48861598968506 270.0720520019531 1.000 1.000 1.000
v 65.9858020003885 35.48861598968506 270.0720520019531 1.000 1.000 1.000
v 36.9858020003885 -2.5113840103149414 160.07205200195312 1.000 1.000 1.000
v 21.985802000388503 9.488615989685059 160.07205200195312 1.000 1.000 1.000
v 18.985802000388503 29.48861598968506 160.07205200195312 1.000 1.000 1.000
v 30.985802000388503 45.48861598968506 160.07205200195312 1.000 1.000 1.000
v 56.9858020003885 0.4886159896850586 160.07205200195312 1.000 1.000 1.000
v 50.9858020003885 47.48861598968506 160.07205200195312 1.000 1.000 1.000
v 65.9858020003885 35.48861598968506 160.07205200195312 1.000 1.000 1.000
v 68.9858020003885 16.48861598968506 160.07205200195312 1.000 1.000 1.000
v 68.9858020003885 -21.51138401031494 160.07205200195312 1.000 1.000 1.000
v 68.9858020003885 -21.51138401031494 270.0720520019531 1.000 1.000 1.000
v 65.9858020003885 -40.51138401031494 270.0720520019531 1.000 1.000 1.000
v 65.9858020003885 -40.51138401031494 160.07205200195312 1.000 1.000 1.000
v 56.9858020003885 -5.511384010314941 160.07205200195312 1.000 1.000 1.000
v 56.9858020003885 -5.511384010314941 270.0720520019531 1.000 1.000 1.000
v 36.9858020003885 -2.5113840103149414 160.07205200195312 1.000 1.000 1.000
v 36.9858020003885 -2.5113840103149414 270.0720520019531 1.000 1.000 1.000
v 56.9858020003885 -5.511384010314941 270.0720520019531 1.000 1.000 1.000
v 56.9858020003885 -5.511384010314941 160.07205200195312 1.000 1.000 1.000
v 21.985802000388503 -14.511384010314941 160.07205200195312 1.000 1.000 1.000
v 21.985802000388503 -14.511384010314941 270.0720520019531 1.000 1.000 1.000
v 18.985802000388503 -34.51138401031494 160.07205200195312 1.000 1.000 1.000
v 18.985802000388503 -34.51138401031494 270.0720520019531 1.000 1.000 1.000
v 30.985802000388503 -50.51138401031494 160.07205200195312 1.000 1.000 1.000
v 30.985802000388503 -50.51138401031494 270.0720520019531 1.000 1.000 1.000
v 18.985802000388503 -34.51138401031494 270.0720520019531 1.000 1.000 1.000
v 18.985802000388503 -34.51138401031494 160.07205200195312 1.000 1.000 1.000
v 50.9858020003885 -52.51138401031494 160.07205200195312 1.000 1.000 1.000
v 50.9858020003885 -52.51138401031494 270.0720520019531 1.000 1.000 1.000
v 30.985802000388503 -50.51138401031494 270.0720520019531 1.000 1.000 1.000
v 30.985802000388503 -50.51138401031494 160.07205200195312 1.000 1.000 1.000
v 65.9858020003885 -40.51138401031494 160.07205200195312 1.000 1.000 1.000
v 65.9858020003885 -40.51138401031494 270.0720520019531 1.000 1.000 1.000
v 50.9858020003885 -52.51138401031494 270.0720520019531 1.000 1.000 1.000
v 50.9858020003885 -52.51138401031494 160.07205200195312 1.000 1.000 1.000
v 65.9858020003885 -40.51138401031494 270.0720520019531 1.000 1.000 1.000
v 68.9858020003885 -21.51138401031494 270.0720520019531 1.000 1.000 1.000
v 56.9858020003885 -5.511384010314941 270.0720520019531 1.000 1.000 1.000
v 36.9858020003885 -2.5113840103149414 270.0720520019531 1.000 1.000 1.000
v 36.9858020003885 -2.5113840103149414 270.0720520019531 1.000 1.000 1.000
v 21.985802000388503 -14.511384010314941 270.0720520019531 1.000 1.000 1.000
v 50.9858020003885 -52.51138401031494 270.0720520019531 1.000 1.000 1.000
v 65.9858020003885 -40.51138401031494 270.0720520019531 1.000 1.000 1.000
v 18.985802000388503 -34.51138401031494 270.0720520019531 1.000 1.000 1.000
v 30.985802000388503 -50.51138401031494 270.0720520019531 1.000 1.000 1.000
v 36.9858020003885 -2.5113840103149414 160.07205200195312 1.000 1.000 1.000
v 56.9858020003885 -5.511384010314941 160.07205200195312 1.000 1.000 1.000
v 68.9858020003885 -21.51138401031494 160.07205200195312 1.000 1.000 1.000
v 65.9858020003885 -40.51138401031494 160.07205200195312 1.000 1.000 1.000
v 50.9858020003885 -52.51138401031494 160.07205200195312 1.000 1.000 1.000
v 21.985802000388503 -14.511384010314941 160.07205200195312 1.000 1.000 1.000
v 30.985802000388503 -50.51138401031494 160.07205200195312 1.000 1.000 1.000
v 18.985802000388503 -34.51138401031494 160.07205200195312 1.000 1.000 1.000
v -19.014197999611497 29.48861598968506 160.07205200195312 1.000 1.000 1.000
v -19.014197999611497 29.48861598968506 270.0720520019531 1.000 1.000 1.000
v -22.014197999611497 9.488615989685059 270.0720520019531 1.000 1.000 1.000
v -22.014197999611497 9.488615989685059 160.07205200195312 1.000 1.000 1.000
v -31.014197999611497 45.48861598968506 160.07205200195312 1.000 1.000 1.000
v -31.014197999611497 45.48861598968506 270.0720520019531 1.000 1.000 1.000
v -51.0141979996115 47.48861598968506 160.07205200195312 1.000 1.000 1.000
v -51.0141979996115 47.48861598968506 270.0720520019531 1.000 1.000 1.000
v -31.014197999611497 45.48861598968506 270.0720520019531 1.000 1.000 1.000
v -31.014197999611497 45.48861598968506 160.07205200195312 1.000 1.000 1.000
v -66.0141979996115 35.48861598968506 160.07205200195312 1.000 1.000 1.000
v -66.0141979996115 35.48861598968506 270.0720520019531 1.000 1.000 1.000
v -69.0141979996115 16.48861598968506 160.07205200195312 1.000 1.000 1.000
v -69.0141979996115 16.48861598968506 270.0720520019531 1.000 1.000 1.000
v -57.0141979996115 0.4886159896850586 160.07205200195312 1.000 1.000 1.000
v -57.0141979996115 0.4886159896850586 270.0720520019531 1.000 1.000 1.000
v -69.0141979996115 16.48861598968506 270.0720520019531 1.000 1.000 1.000
v -69.0141979996115 16.48861598968506 160.07205200195312 1.000 1.000 1.000
v -37.0141979996115 -2.5113840103149414 160.07205200195312 1.000 1.000 1.000
v -37.0141979996115 -2.5113840103149414 270.0720520019531 1.000 1.000 1.000
v -57.0141979996115 0.4886159896850586 270.0720520019531 1.000 1.000 1.000
v -57.0141979996115 0.4886159896850586 160.07205200195312 1.000 1.000 1.000
v -22.014197999611497 9.488615989685059 160.07205200195312 1.000 1.000 1.000
v -22.014197999611497 9.488615989685059 270.0720520019531 1.000 1.000 1.000
v -37.0141979996115 -2.5113840103149414 270.0720520019531 1.000 1.000 1.000
v -37.0141979996115 -2.5113840103149414 160.07205200195312 1.000 1.000 1.000
v -22.014197999611497 9.488615989685059 270.0720520019531 1.000 1.000 1.000
v -19.014197999611497 29.48861598968506 270.0720520019531 1.000 1.000 1.000
v -31.014197999611497 45.48861598968506 270.0720520019531 1.000 1.000 1.000
v -51.0141979996115 47.48861598968506 270.0720520019531 1.000 1.000 1.000
v -51.0141979996115 47.48861598968506 270.0720520019531 1.000 1.000 1.000
v -66.0141979996115 35.48861598968506 270.0720520019531 1.000 1.000 1.000
v -37.0141979996115 -2.5113840103149414 270.0720520019531 1.000 1.000 1.000
v -22.014197999611497 9.488615989685059 270.0720520019531 1.000 1.000 1.000
v -69.0141979996115 16.48861598968506 270.0720520019531 1.000 1.000 1.000
v -57.0141979996115 0.4886159896850586 270.0720520019531 1.000 1.000 1.000
v -51.0141979996115 47.48861598968506 160.07205200195312 1.000 1.000 1.000
v -31.014197999611497 45.48861598968506 160.07205200195312 1.000 1.000 1.000
v -19.014197999611497 29.48861598968506 160.07205200195312 1.000 1.000 1.000
v -22.014197999611497 9.488615989685059 160.07205200195312 1.000 1.000 1.000
v -37.0141979996115 -2.5113840103149414 160.07205200195312 1.000 1.000 1.000
v -66.0141979996115 35.48861598968506 160.07205200195312 1.000 1.000 1.000
v -57.0141979996115 0.4886159896850586 160.07205200195312 1.000 1.000 1.000
v -69.0141979996115 16.48861598968506 160.07205200195312 1.000 1.000 1.000
v -19.014197999611497 -34.51138401031494 160.07205200195312 1.000 1.000 1.000
v -19.014197999611497 -34.51138401031494 270.0720520019531 1.000 1.000 1.000
v -31.014197999611497 -50.51138401031494 270.0720520019531 1.000 1.000 1.000
v -31.014197999611497 -50.51138401031494 160.07205200195312 1.000 1.000 1.000
v -31.014197999611497 -50.51138401031494 160.07205200195312 1.000 1.000 1.000
v -31.014197999611497 -50.51138401031494 270.0720520019531 1.000 1.000 1.000
v -51.0141979996115 -52.51138401031494 270.0720520019531 1.000 1.000 1.000
v -51.0141979996115 -52.51138401031494 160.07205200195312 1.000 1.000 1.000
v -51.0141979996115 -52.51138401031494 160.07205200195312 1.000 1.000 1.000
v -51.0141979996115 -52.51138401031494 270.0720520019531 1.000 1.000 1.000
v -66.0141979996115 -40.51138401031494 270.0720520019531 1.000 1.000 1.000
v -66.0141979996115 -40.51138401031494 160.07205200195312 1.000 1.000 1.000
v -66.0141979996115 -40.51138401031494 160.07205200195312 1.000 1.000 1.000
v -66.0141979996115 -40.51138401031494 270.0720520019531 1.000 1.000 1.000
v -69.0141979996115 -21.51138401031494 270.0720520019531 1.000 1.000 1.000
v -69.0141979996115 -21.51138401031494 160.07205200195312 1.000 1.000 1.000
v -69.0141979996115 -21.51138401031494 160.07205200195312 1.000 1.000 1.000
v -69.0141979996115 -21.51138401031494 270.0720520019531 1.000 1.000 1.000
v -57.0141979996115 -5.511384010314941 270.0720520019531 1.000 1.000 1.000
v -57.0141979996115 -5.511384010314941 160.07205200195312 1.000 1.000 1.000
v -37.0141979996115 -2.5113840103149414 270.0720520019531 1.000 1.000 1.000
v -37.0141979996115 -2.5113840103149414 160.07205200195312 1.000 1.000 1.000
v -37.0141979996115 -2.5113840103149414 160.07205200195312 1.000 1.000 1.000
v -37.0141979996115 -2.5113840103149414 270.0720520019531 1.000 1.000 1.000
v -22.014197999611497 -14.511384010314941 270.0720520019531 1.000 1.000 1.000
v -22.014197999611497 -14.511384010314941 160.07205200195312 1.000 1.000 1.000
v -19.014197999611497 -34.51138401031494 270.0720520019531 1.000 1.000 1.000
v -19.014197999611497 -34.51138401031494 160.07205200195312 1.000 1.000 1.000
v -69.0141979996115 -21.51138401031494 270.0720520019531 1.000 1.000 1.000
v -66.0141979996115 -40.51138401031494 270.0720520019531 1.000 1.000 1.000
v -51.0141979996115 -52.51138401031494 270.0720520019531 1.000 1.000 1.000
v -31.014197999611497 -50.51138401031494 270.0720520019531 1.000 1.000 1.000
v -57.0141979996115 -5.511384010314941 270.0720520019531 1.000 1.000 1.000
v -69.0141979996115 -21.51138401031494 270.0720520019531 1.000 1.000 1.000
v -31.014197999611497 -50.51138401031494 270.0720520019531 1.000 1.000 1.000
v -19.014197999611497 -34.51138401031494 270.0720520019531 1.000 1.000 1.000
v -22.014197999611497 -14.511384010314941 270.0720520019531 1.000 1.000 1.000
v -37.0141979996115 -2.5113840103149414 270.0720520019531 1.000 1.000 1.000
v -31.014197999611497 -50.51138401031494 160.07205200195312 1.000 1.000 1.000
v -51.0141979996115 -52.51138401031494 160.07205200195312 1.000 1.000 1.000
v -66.0141979996115 -40.51138401031494 160.07205200195312 1.000 1.000 1.000
v -69.0141979996115 -21.51138401031494 160.07205200195312 1.000 1.000 1.000
v -19.014197999611497 -34.51138401031494 160.07205200195312 1.000 1.000 1.000
v -57.0141979996115 -5.511384010314941 160.07205200195312 1.000 1.000 1.000
v -37.0141979996115 -2.5113840103149414 160.07205200195312 1.000 1.000 1.000
v -22.014197999611497 -14.511384010314941 160.07205200195312 1.000 1.000 1.000
v 17.985802000388503 -71.51138401031494 160.07205200195312 1.000 1.000 1.000
v 17.985802000388503 -71.51138401031494 270.0720520019531 1.000 1.000 1.000
v -0.014197999611496925 -79.51138401031494 270.0720520019531 1.000 1.000 1.000
v -0.014197999611496925 -79.51138401031494 160.07205200195312 1.000 1.000 1.000
v -0.014197999611496925 -79.51138401031494 160.07205200195312 1.000 1.000 1.000
v -0.014197999611496925 -79.51138401031494 270.0720520019531 1.000 1.000 1.000
v -18.014197999611497 -71.51138401031494 270.0720520019531 1.000 1.000 1.000
v -18.014197999611497 -71.51138401031494 160.07205200195312 1.000 1.000 1.000
v -18.014197999611497 -71.51138401031494 160.07205200195312 1.000 1.000 1.000
v -18.014197999611497 -71.51138401031494 270.0720520019531 1.000 1.000 1.000
v -26.014197999611497 -53.51138401031494 270.0720520019531 1.000 1.000 1.000
v -26.014197999611497 -53.51138401031494 160.07205200195312 1.000 1.000 1.000
v -26.014197999611497 -53.51138401031494 160.07205200195312 1.000 1.000 1.000
v -26.014197999611497 -53.51138401031494 270.0720520019531 1.000 1.000 1.000
v -18.014197999611497 -35.51138401031494 270.0720520019531 1.000 1.000 1.000
v -18.014197999611497 -35.51138401031494 160.07205200195312 1.000 1.000 1.000
v -18.014197999611497 -35.51138401031494 160.07205200195312 1.000 1.000 1.000
v -18.014197999611497 -35.51138401031494 270.0720520019531 1.000 1.000 1.000
v -0.014197999611496925 -27.51138401031494 270.0720520019531 1.000 1.000 1.000
v -0.014197999611496925 -27.51138401031494 160.07205200195312 1.000 1.000 1.000
v 17.985802000388503 -35.51138401031494 270.0720520019531 1.000 1.000 1.000
v 17.985802000388503 -35.51138401031494 160.07205200195312 1.000 1.000 1.000
v 17.985802000388503 -35.51138401031494 160.07205200195312 1.000 1.000 1.000
v 17.985802000388503 -35.51138401031494 270.0720520019531 1.000 1.000 1.000
v 25.985802000388503 -53.51138401031494 270.0720520019531 1.000 1.000 1.000
v 25.985802000388503 -53.51138401031494 160.07205200195312 1.000 1.000 1.000
v 17.985802000388503 -71.51138401031494 270.0720520019531 1.000 1.000 1.000
v 17.985802000388503 -71.51138401031494 160.07205200195312 1.000 1.000 1.000
v -18.014197999611497 -35.51138401031494 270.0720520019531 1.000 1.000 1.000
v -26.014197999611497 -53.51138401031494 270.0720520019531 1.000 1.000 1.000
v -18.014197999611497 -71.51138401031494 270.0720520019531 1.000 1.000 1.000
v -0.014197999611496925 -79.51138401031494 270.0720520019531 1.000 1.000 1.000
v -0.014197999611496925 -27.51138401031494 270.0720520019531 1.000 1.000 1.000
v -18.014197999611497 -35.51138401031494 270.0720520019531 1.000 1.000 1.000
v -0.014197999611496925 -79.51138401031494 270.0720520019531 1.000 1.000 1.000
v 17.985802000388503 -71.51138401031494 270.0720520019531 1.000 1.000 1.000
v 25.985802000388503 -53.51138401031494 270.0720520019531 1.000 1.000 1.000
v 17.985802000388503 -35.51138401031494 270.0720520019531 1.000 1.000 1.000
v -0.014197999611496925 -79.51138401031494 160.07205200195312 1.000 1.000 1.000
v -18.014197999611497 -71.51138401031494 160.07205200195312 1.000 1.000 1.000
v -26.014197999611497 -53.51138401031494 160.07205200195312 1.000 1.000 1.000
v -18.014197999611497 -35.51138401031494 160.07205200195312 1.000 1.000 1.000
v 17.985802000388503 -71.51138401031494 160.07205200195312 1.000 1.000 1.000
v -0.014197999611496925 -27.51138401031494 160.07205200195312 1.000 1.000 1.000
v 17.985802000388503 -35.51138401031494 160.07205200195312 1.000 1.000 1.000
v 25.985802000388503 -53.51138401031494 160.07205200195312 1.000 1.000 1.000
v 28.0 76.0 52.0 1.000 1.000 1.000
v -28.0 76.0 52.0 1.000 1.000 1.000
v -28.0 48.0 144.0 1.000 1.000 1.000
v 28.0 48.0 144.0 1.000 1.000 1.000
v -28.0 48.0 160.0 1.000 1.000 1.000
v -28.0 48.0 144.0 1.000 1.000 1.000
v -28.0 -4.0 107.0 1.000 1.000 1.000
v -28.0 -4.0 160.0 1.000 1.000 1.000
v 28.0 -4.0 160.0 1.000 1.000 1.000
v 28.0 -4.0 107.0 1.000 1.000 1.000
v 28.0 48.0 144.0 1.000 1.000 1.000
v 28.0 48.0 160.0 1.000 1.000 1.000
v 28.0 7.0 77.0 1.000 1.000 1.000
v 28.0 76.0 52.0 1.000 1.000 1.000
v -28.0 76.0 52.0 1.000 1.000 1.000
v -28.0 7.0 77.0 1.000 1.000 1.000
v 28.0 -4.0 107.0 1.000 1.000 1.000
v -28.0 -4.0 107.0 1.000 1.000 1.000
v -28.0 7.0 77.0 1.000 1.000 1.000
v 28.0 7.0 77.0 1.000 1.000 1.000
v 18.0 67.0 82.0 1.000 1.000 1.000
v 18.0 67.0 160.0 1.000 1.000 1.000
v 28.0 48.0 160.0 1.000 1.000 1.000
v 28.0 48.0 144.0 1.000 1.000 1.000
v 0.0 74.0 57.0 1.000 1.000 1.000
v 0.0 74.0 160.0 1.000 1.000 1.000
v -18.0 67.0 82.0 1.000 1.000 1.000
v -18.0 67.0 160.0 1.000 1.000 1.000
v -28.0 48.0 144.0 1.000 1.000 1.000
v -28.0 48.0 160.0 1.000 1.000 1.000
v 0.0 -16.0 54.0 1.000 1.000 1.000
v 0.0 -16.0 12.0 1.000 1.000 1.000
v 0.0 7.0 19.0 1.000 1.000 1.000
v 0.0 7.0 54.0 1.000 1.000 1.000
v 9.0 7.0 19.0 1.000 1.000 1.000
v -9.0 7.0 19.0 1.000 1.000 1.000
v -9.0 -6.0 17.0 1.000 1.000 1.000
v 9.0 -6.0 17.0 1.000 1.000 1.000
v -9.0 -76.0 -11.0 1.000 1.000 1.000
v 9.0 -76.0 -11.0 1.000 1.000 1.000
v 9.0 -71.0 -41.0 1.000 1.000 1.000
v -9.0 -71.0 -41.0 1.000 1.000 1.000
v -9.0 -64.0 -43.0 1.000 1.000 1.000
v 9.0 -64.0 -43.0 1.000 1.000 1.000
v -9.0 -6.0 -18.0 1.000 1.000 1.000
v 9.0 -6.0 -18.0 1.000 1.000 1.000
v -9.0 7.0 -25.0 1.000 1.000 1.000
v 9.0 7.0 -25.0 1.000 1.000 1.000
v -9.0 -76.0 -11.0 1.000 1.000 1.000
v -9.0 -64.0 -43.0 1.000 1.000 1.000
v -9.0 -71.0 -41.0 1.000 1.000 1.000
v -9.0 -6.0 -18.0 1.000 1.000 1.000
v -9.0 -6.0 17.0 1.000 1.000 1.000
v -9.0 7.0 -25.0 1.000 1.000 1.000
v -9.0 7.0 19.0 1.000 1.000 1.000
v 9.0 -71.0 -41.0 1.000 1.000 1.000
v 9.0 -64.0 -43.0 1.000 1.000 1.000
v 9.0 -76.0 -11.0 1.000 1.000 1.000
v 9.0 -6.0 17.0 1.000 1.000 1.000
v 9.0 -6.0 -18.0 1.000 1.000 1.000
v 9.0 7.0 19.0 1.000 1.000 1.000
v 9.0 7.0 -25.0 1.000 1.000 1.000
v 9.0 -76.0 -11.0 1.000 1.000 1.000
v -9.0 -76.0 -11.0 1.000 1.000 1.000
v -9.0 -71.0 -41.0 1.000 1.000 1.000
v 9.0 -71.0 -41.0 1.000 1.000 1.000
v 28.0 69.0 -48.0 1.000 1.000 1.000
v -28.0 69.0 -48.0 1.000 1.000 1.000
v -28.0 76.0 -41.0 1.000 1.000 1.000
v 28.0 76.0 -41.0 1.000 1.000 1.000
v 28.0 76.0 -41.0 1.000 1.000 1.000
v -28.0 76.0 -41.0 1.000 1.000 1.000
v -28.0 76.0 52.0 1.000 1.000 1.000
v 28.0 76.0 52.0 1.000 1.000 1.000
v 28.0 69.0 -48.0 1.000 1.000 1.000
v 28.0 76.0 -41.0 1.000 1.000 1.000
v 28.0 76.0 52.0 1.000 1.000 1.000
v 28.0 7.0 77.0 1.000 1.000 1.000
v 28.0 7.0 -48.0 1.000 1.000 1.000
v -28.0 7.0 77.0 1.000 1.000 1.000
v -28.0 76.0 52.0 1.000 1.000 1.000
v -28.0 76.0 -41.0 1.000 1.000 1.000
v -28.0 7.0 77.0 1.000 1.000 1.000
v -28.0 76.0 -41.0 1.000 1.000 1.000
v -28.0 69.0 -48.0 1.000 1.000 1.000
v -28.0 7.0 -48.0 1.000 1.000 1.000
v 28.0 7.0 -48.0 1.000 1.000 1.000
v -28.0 7.0 -48.0 1.000 1.000 1.000
v -28.0 69.0 -48.0 1.000 1.000 1.000
v 28.0 69.0 -48.0 1.000 1.000 1.000
v 26.0 48.0 543.0 1.000 1.000 1.000
v 26.0 48.0 605.0 1.000 1.000 1.000
v 18.0 30.0 605.0 1.000 1.000 1.000
v 18.0 30.0 543.0 1.000 1.000 1.000
v 0.0 22.0 605.0 1.000 1.000 1.000
v 0.0 22.0 543.0 1.000 1.000 1.000
v -18.0 30.0 605.0 1.000 1.000 1.000
v -18.0 30.0 543.0 1.000 1.000 1.000
v -18.0 30.0 543.0 1.000 1.000 1.000
v -18.0 30.0 605.0 1.000 1.000 1.000
v -26.0 48.0 605.0 1.000 1.000 1.000
v -26.0 48.0 543.0 1.000 1.000 1.000
v -18.0 67.0 605.0 1.000 1.000 1.000
v -18.0 67.0 543.0 1.000 1.000 1.000
v -18.0 67.0 543.0 1.000 1.000 1.000
v -18.0 67.0 605.0 1.000 1.000 1.000
v 0.0 74.0 605.0 1.000 1.000 1.000
v 0.0 74.0 543.0 1.000 1.000 1.000
v 18.0 67.0 605.0 1.000 1.000 1.000
v 18.0 67.0 543.0 1.000 1.000 1.000
v 26.0 48.0 605.0 1.000 1.000 1.000
v 26.0 48.0 543.0 1.000 1.000 1.000
v 26.0 48.0 395.0 1.000 1.000 1.000
v 26.0 48.0 543.0 1.000 1.000 1.000
v 18.0 30.0 543.0 1.000 1.000 1.000
v 18.0 30.0 395.0 1.000 1.000 1.000
v 0.0 22.0 543.0 1.000 1.000 1.000
v 0.0 22.0 395.0 1.000 1.000 1.000
v 0.0 22.0 395.0 1.000 1.000 1.000
v 0.0 22.0 543.0 1.000 1.000 1.000
v -18.0 30.0 543.0 1.000 1.000 1.000
v -18.0 30.0 395.0 1.000 1.000 1.000
v -26.0 48.0 543.0 1.000 1.000 1.000
v -26.0 48.0 395.0 1.000 1.000 1.000
v -18.0 67.0 543.0 1.000 1.000 1.000
v -18.0 67.0 395.0 1.000 1.000 1.000
v 0.0 74.0 543.0 1.000 1.000 1.000
v 0.0 74.0 395.0 1.000 1.000 1.000
v 0.0 74.0 395.0 1.000 1.000 1.000
v 0.0 74.0 543.0 1.000 1.000 1.000
v 18.0 67.0 543.0 1.000 1.000 1.000
v 18.0 67.0 395.0 1.000 1.000 1.000
v 26.0 48.0 543.0 1.000 1.000 1.000
v 26.0 48.0 395.0 1.000 1.000 1.000
v 12.0 15.0 395.0 1.000 1.000 1.000
v 12.0 15.0 480.0 1.000 1.000 1.000
v 18.0 2.0 480.0 1.000 1.000 1.000
v 18.0 2.0 395.0 1.000 1.000 1.000
v 0.0 20.0 395.0 1.000 1.000 1.000
v 0.0 20.0 480.0 1.000 1.000 1.000
v -12.0 15.0 395.0 1.000 1.000 1.000
v -12.0 15.0 480.0 1.000 1.000 1.000
v 0.0 20.0 480.0 1.000 1.000 1.000
v 0.0 20.0 395.0 1.000 1.000 1.000
v -18.0 2.0 395.0 1.000 1.000 1.000
v -18.0 2.0 480.0 1.000 1.000 1.000
v -12.0 -10.0 395.0 1.000 1.000 1.000
v -12.0 -10.0 480.0 1.000 1.000 1.000
v -18.0 2.0 480.0 1.000 1.000 1.000
v -18.0 2.0 395.0 1.000 1.000 1.000
v 0.0 -16.0 395.0 1.000 1.000 1.000
v 0.0 -16.0 480.0 1.000 1.000 1.000
v -12.0 -10.0 480.0 1.000 1.000 1.000
v -12.0 -10.0 395.0 1.000 1.000 1.000
v 12.0 -10.0 395.0 1.000 1.000 1.000
v 12.0 -10.0 480.0 1.000 1.000 1.000
v 0.0 -16.0 480.0 1.000 1.000 1.000
v 0.0 -16.0 395.0 1.000 1.000 1.000
v 18.0 2.0 395.0 1.000 1.000 1.000
v 18.0 2.0 480.0 1.000 1.000 1.000
v 12.0 -10.0 480.0 1.000 1.000 1.000
v 12.0 -10.0 395.0 1.000 1.000 1.000
v 30.0 48.0 287.0 1.000 1.000 1.000
v 30.0 48.0 271.0 1.000 1.000 1.000
v 18.0 67.0 271.0 1.000 1.000 1.000
v 18.0 67.0 322.0 1.000 1.000 1.000
v 0.0 74.0 271.0 1.000 1.000 1.000
v 0.0 74.0 338.0 1.000 1.000 1.000
v -18.0 67.0 271.0 1.000 1.000 1.000
v -18.0 67.0 322.0 1.000 1.000 1.000
v -30.0 48.0 271.0 1.000 1.000 1.000
v -30.0 48.0 287.0 1.000 1.000 1.000
v -30.0 62.0 395.0 1.000 1.000 1.000
v 30.0 62.0 395.0 1.000 1.000 1.000
v 18.0 76.0 395.0 1.000 1.000 1.000
v -18.0 76.0 395.0 1.000 1.000 1.000
v -22.0 -16.0 395.0 1.000 1.000 1.000
v 22.0 -16.0 395.0 1.000 1.000 1.000
v -30.0 -30.0 375.0 1.000 1.000 1.000
v 30.0 -30.0 375.0 1.000 1.000 1.000
v 18.0 76.0 340.0 1.000 1.000 1.000
v 30.0 62.0 340.0 1.000 1.000 1.000
v 30.0 48.0 287.0 1.000 1.000 1.000
v 18.0 76.0 395.0 1.000 1.000 1.000
v 30.0 62.0 395.0 1.000 1.000 1.000
v -30.0 48.0 287.0 1.000 1.000 1.000
v -30.0 62.0 340.0 1.000 1.000 1.000
v -18.0 76.0 340.0 1.000 1.000 1.000
v -30.0 62.0 395.0 1.000 1.000 1.000
v -18.0 76.0 395.0 1.000 1.000 1.000
v -18.0 76.0 340.0 1.000 1.000 1.000
v -30.0 62.0 340.0 1.000 1.000 1.000
v 18.0 76.0 395.0 1.000 1.000 1.000
v 18.0 76.0 340.0 1.000 1.000 1.000
v -18.0 76.0 340.0 1.000 1.000 1.000
v 30.0 48.0 287.0 1.000 1.000 1.000
v -30.0 48.0 287.0 1.000 1.000 1.000
v -30.0 -30.0 271.0 1.000 1.000 1.000
v -30.0 48.0 271.0 1.000 1.000 1.000
v 30.0 48.0 271.0 1.000 1.000 1.000
v 30.0 -30.0 271.0 1.000 1.000 1.000
v -18.0 67.0 271.0 1.000 1.000 1.000
v 0.0 74.0 271.0 1.000 1.000 1.000
v 18.0 67.0 271.0 1.000 1.000 1.000
v -30.0 32.0 287.0 1.000 1.000 1.000
v -30.0 -30.0 271.0 1.000 1.000 1.000
v -30.0 -30.0 287.0 1.000 1.000 1.000
v -30.0 48.0 287.0 1.000 1.000 1.000
v -30.0 48.0 271.0 1.000 1.000 1.000
v 30.0 -30.0 287.0 1.000 1.000 1.000
v 30.0 -30.0 271.0 1.000 1.000 1.000
v 30.0 32.0 287.0 1.000 1.000 1.000
v 30.0 48.0 271.0 1.000 1.000 1.000
v 30.0 48.0 287.0 1.000 1.000 1.000
v 30.0 62.0 340.0 1.000 1.000 1.000
v 30.0 32.0 375.0 1.000 1.000 1.000
v 30.0 62.0 395.0 1.000 1.000 1.000
v 22.0 -16.0 395.0 1.000 1.000 1.000
v 30.0 -30.0 375.0 1.000 1.000 1.000
v -30.0 32.0 375.0 1.000 1.000 1.000
v -30.0 48.0 287.0 1.000 1.000 1.000
v -30.0 32.0 375.0 1.000 1.000 1.000
v -30.0 62.0 340.0 1.000 1.000 1.000
v -30.0 62.0 395.0 1.000 1.000 1.000
v -30.0 -30.0 375.0 1.000 1.000 1.000
v -22.0 -16.0 395.0 1.000 1.000 1.000
v 30.0 32.0 375.0 1.000 1.000 1.000
v 30.0 -30.0 375.0 1.000 1.000 1.000
v 30.0 -30.0 287.0 1.000 1.000 1.000
v 30.0 32.0 287.0 1.000 1.000 1.000
v -30.0 32.0 287.0 1.000 1.000 1.000
v -30.0 -30.0 287.0 1.000 1.000 1.000
v -30.0 -30.0 375.0 1.000 1.000 1.000
v -30.0 32.0 375.0 1.000 1.000 1.000
vt 0.9688 0.0312
vt 0.0000 0.0312
vt 0.0000 1.0000
vt 0.9688 1.0000
vt -0.5435 0.5664
vt 1.0000 0.5684
vt 1.0000 0.3066
vt -0.5435 0.3047
vt -0.5435 0.7520
vt 1.0000 0.7529
vt -0.5488 0.5957
vt 1.0000 0.5947
vt 1.0000 0.7812
vt -0.5488 0.7832
vt -0.5488 0.3301
vt 1.0000 0.3291
vt -0.5488 0.1436
vt 1.0000 0.1416
vt -0.5381 0.4404
vt 1.0005 0.4424
vt 1.0005 0.1523
vt -0.5381 0.1504
vt -0.5386 0.7090
vt 1.0000 0.7100
vt 1.0000 0.4199
vt -0.5386 0.4189
vt -0.5439 0.3828
vt 1.0000 0.3838
vt 1.0000 0.1992
vt -0.5439 0.1973
vt 0.6851 0.9609
vt 0.9551 0.6953
vt 0.9551 0.3184
vt 0.6855 0.0508
vt 0.3042 0.0508
vt 0.3037 0.9609
vt 0.0342 0.3174
vt 0.0342 0.6943
vt 0.3125 0.0303
vt 0.0391 0.3096
vt 0.0391 0.7002
vt 0.3125 0.9736
vt 0.6987 0.9697
vt 0.6987 0.0264
vt 0.9717 0.6904
vt 0.9717 0.2998
vt 0.0000 1.7588
vt 0.6328 1.7900
vt 0.6328 0.9688
vt 1.0049 0.2012
vt 0.9258 0.2012
vt 0.7520 1.2256
vt 1.0088 1.2256
vt -0.9863 1.2227
vt -0.4785 1.2227
vt -0.8330 0.2109
vt -0.9873 0.2109
vt -0.1914 1.0000
vt 0.0488 -0.3232
vt 0.4756 -0.3398
vt 0.6045 1.0000
vt 1.6304 0.2715
vt 2.7158 0.2715
vt 2.7148 0.1768
vt 2.4902 0.1768
vt 1.2876 0.5000
vt 2.7178 0.5000
vt 1.6348 0.7285
vt 2.7202 0.7285
vt 2.4966 0.8232
vt 2.7212 0.8232
vt 0.0039 1.0000
vt 1.0039 1.0000
vt 1.0000 -0.0371
vt 0.0000 -0.0371
vt 1.0000 -20.1191
vt 0.0000 -20.1191
vt 0.0000 -16.8379
vt 1.0000 -16.8379
vt 1.0000 1.0000
vt 0.0000 3.9746
vt 1.5625 3.9746
vt 1.5625 1.0000
vt 1.5625 -18.0430
vt 0.0000 -18.0430
vt 1.5625 -24.2910
vt 0.0000 -24.2910
vt 9.1904 -4.4512
vt 9.6777 0.7949
vt 10.4922 0.0254
vt -2.2432 -3.8193
vt -1.4795 2.8613
vt -4.3213 -3.2432
vt 8.4141 11.6279
vt 8.8389 10.5674
vt 3.6846 12.0703
vt 5.4072 1.3203
vt -0.2324 -1.1846
vt 6.6172 -0.7783
vt 0.0000 -0.2520
vt 0.2285 -0.2520
vt 0.2285 1.0000
vt -0.6328 1.0000
vt -0.6328 1.7588
vt 0.9980 -0.1904
vt 0.9316 -0.3232
vt 0.0273 -0.3398
vt -0.0059 -0.2051
vt 1.0000 -0.0005
vt 0.7070 1.0000
vt 0.7070 -0.0005
vt 0.2930 1.0000
vt 0.2930 -0.0005
vt 0.0000 -0.0005
vt 0.5000 1.0000
vt 0.5000 -0.0005
vt 1.0000 -0.0010
vt 0.7070 -0.0010
vt 0.2930 -0.0010
vt 0.0000 -0.0010
vt 3.5312 0.5000
vt -0.0312 0.5000
vt 0.0000 0.8535
vt 3.5312 0.8535
vt 3.5312 1.0000
vt 0.0312 0.0000
vt 2.2500 0.0000
vt 2.2500 0.1465
vt 0.0312 0.1465
vt 2.2188 0.5000
vt 0.0312 0.5000
vt 2.2188 0.8535
vt 2.1875 1.0000
vt 3.5000 0.0000
vt -0.0312 0.0000
vt -0.0312 0.1465
vt 3.5000 0.1465
vt 0.2930 -0.6436
vt 0.7070 -0.6436
vt 0.0000 -0.6436
vt 0.5000 -0.6396
vt 1.0000 -0.6396
vt 0.0000 -0.6396
vt 0.5000 -0.6367
vt 1.0000 -0.6367
vt 0.0000 -0.6367
vt 0.0000 -0.6377
vt 0.5000 -0.6377
vt 1.0000 -0.6436
vt 4.4785 0.1768
vt 4.2544 0.1768
vt 4.2554 0.2715
vt 4.9688 0.2715
vt 4.2573 0.5000
vt 5.1875 0.5000
vt 4.2598 0.7285
vt 4.9736 0.7285
vt 4.2607 0.8232
vt 4.4849 0.8232
vt 0.0000 0.0674
vt -0.2227 0.2471
vt -0.2227 0.8203
vt 1.0000 0.0674
vt 1.3330 1.0000
vt 1.3330 0.0674
vt 0.0000 0.1855
vt 0.0000 -0.0078
vt -0.9580 -0.0078
vt 1.0000 0.1855
vt 1.0000 -0.0078
vt -0.9580 1.0000
vt 0.0000 0.8057
vt 1.0000 0.8057
vt 1.0283 1.0342
vt 1.0283 0.6719
vt -0.0576 0.6602
vt -0.0576 1.0225
vt 0.8164 0.5850
vt 0.4854 0.5459
vt 0.1543 0.5781
vt 0.1289 0.1533
vt 0.1289 1.0000
vt 0.1289 -0.1045
vt 0.0000 -0.1045
vt 0.8662 1.0000
vt 0.8662 0.1553
vt 1.0000 -0.1016
vt 0.8662 -0.1016
vt 0.4277 -0.3223
vt 0.1416 0.1553
vt -0.0303 -0.3223
vt -0.0303 0.6699
vt 0.1416 1.0000
vt 0.8291 0.1533
vt 0.5527 -0.3262
vt 0.9941 -0.3262
vt 0.8291 1.0000
vt 0.9941 0.6689
vt 0.0000 48.4375
vt 4.8965 48.4375
vt 4.8965 1.0000
vt 0.0000 -0.6562
vt 5.1211 1.0000
vt 5.1211 -0.6562
vn 0.000 0.000 -1.000
vn 0.000 0.000 -1.000
vn 0.000 0.000 -1.000
vn 0.000 0.000 -1.000
vn 0.000 0.000 -1.000
vn 0.000 0.000 -1.000
vn 0.000 0.000 -1.000
vn 0.000 0.000 -1.000
vn 0.000 0.000 -1.000
vn 0.000 0.000 -1.000
vn 0.000 0.000 -1.000
vn 0.000 0.000 -1.000
vn 0.000 0.000 -1.000
vn 0.000 0.000 -1.000
vn 0.000 0.000 -1.000
vn 0.000 0.000 -1.000
vn 0.000 0.000 -1.000
vn 0.000 0.000 -1.000
vn 0.000 0.000 -1.000
vn 0.000 0.000 -1.000
vn 0.000 0.000 -1.000
vn 0.000 0.000 -1.000
vn 0.000 0.000 -1.000
vn 0.000 0.000 -1.000
vn 0.000 0.000 -1.000
vn 0.000 0.000 -1.000
vn 0.000 0.000 -1.000
vn 0.000 0.000 -1.000
vn 0.000 0.000 -1.000
vn 0.000 0.000 -1.000
vn 0.000 0.000 -1.000
vn 0.000 0.000 -1.000
vn -0.577 -0.577 -0.577
vn -0.577 -0.577 -0.577
vn 0.577 0.577 0.577
vn 0.577 0.577 0.577
vn -0.577 -0.577 -0.577
vn -0.577 -0.577 -0.577
vn -0.577 -0.577 -0.577
vn -0.577 -0.577 -0.577
vn -0.577 -0.577 -0.577
vn -0.577 -0.577 -0.577
vn -0.577 -0.577 -0.577
vn -0.577 -0.577 -0.577
vn 0.577 0.577 0.577
vn 0.577 0.577 0.577
vn 0.577 0.577 0.577
vn 0.577 0.577 0.577
vn 0.577 0.577 0.577
vn 0.577 0.577 0.577
vn 0.577 0.577 0.577
vn 0.577 0.577 0.577
vn 0.577 0.577 0.577
vn 0.577 0.577 0.577
vn 0.577 0.577 0.577
vn 0.577 0.577 0.577
vn 0.577 0.577 0.577
vn 0.577 0.577 0.577
vn -0.577 -0.577 -0.577
vn -0.577 -0.577 -0.577
vn -0.577 -0.577 -0.577
vn -0.577 -0.577 -0.577
vn -0.577 -0.577 -0.577
vn -0.577 -0.577 -0.577
vn -0.577 -0.577 -0.577
vn -0.577 -0.577 -0.577
vn -0.577 -0.577 -0.577
vn -0.577 -0.577 -0.577
vn -0.577 -0.577 -0.577
vn -0.393 -0.393 -0.831
vn -0.393 -0.393 -0.831
vn -0.393 -0.393 -0.831
vn -0.577 -0.577 -0.577
vn -0.393 -0.393 -0.831
vn -0.393 -0.393 -0.831
vn -0.393 -0.393 -0.831
vn 0.577 0.577 0.577
vn 0.577 0.577 0.577
vn 0.577 0.577 0.577
vn 0.577 0.577 0.577
vn 0.577 0.577 0.577
vn 0.577 0.577 0.577
vn 0.577 0.577 0.577
vn 0.577 0.577 0.577
vn 0.577 0.577 0.577
vn 0.577 0.577 0.577
vn 0.577 0.577 0.577
vn 0.577 0.577 0.577
vn 0.577 0.577 0.577
vn 0.577 0.577 0.577
vn -0.577 -0.577 -0.577
vn -0.577 -0.577 -0.577
vn -0.577 -0.577 -0.577
vn -0.577 -0.577 -0.577
vn -0.577 -0.577 -0.577
vn -0.577 -0.577 -0.577
vn -0.577 -0.577 -0.577
vn -0.577 -0.577 -0.577
vn -0.577 -0.577 -0.577
vn -0.577 -0.577 -0.577
vn -0.577 -0.577 -0.577
vn -0.577 -0.577 -0.577
vn 0.577 0.577 0.577
vn 0.577 0.577 0.577
vn -0.577 -0.577 -0.577
vn -0.577 -0.577 -0.577
vn -0.577 -0.577 -0.577
vn -0.577 -0.577 -0.577
vn -0.577 -0.577 -0.577
vn -0.577 -0.577 -0.577
vn -0.577 -0.577 -0.577
vn -0.577 -0.577 -0.577
vn -0.577 -0.577 -0.577
vn -0.577 -0.577 -0.577
vn -0.577 -0.577 -0.577
vn -0.393 -0.393 -0.831
vn -0.393 -0.393 -0.831
vn -0.393 -0.393 -0.831
vn -0.393 -0.393 -0.831
vn -0.577 -0.577 -0.577
vn -0.393 -0.393 -0.831
vn -0.393 -0.393 -0.831
vn -0.577 -0.577 -0.577
vn -0.577 -0.577 -0.577
vn 0.577 0.577 0.577
vn 0.577 0.577 0.577
vn -0.577 -0.577 -0.577
vn -0.577 -0.577 -0.577
vn -0.577 -0.577 -0.577
vn -0.577 -0.577 -0.577
vn -0.577 -0.577 -0.577
vn -0.577 -0.577 -0.577
vn -0.577 -0.577 -0.577
vn -0.577 -0.577 -0.577
vn 0.577 0.577 0.577
vn 0.577 0.577 0.577
vn 0.577 0.577 0.577
vn 0.577 0.577 0.577
vn 0.577 0.577 0.577
vn 0.577 0.577 0.577
vn 0.577 0.577 0.577
vn 0.577 0.577 0.577
vn 0.577 0.577 0.577
vn 0.577 0.577 0.577
vn 0.577 0.577 0.577
vn 0.577 0.577 0.577
vn 0.577 0.577 0.577
vn 0.577 0.577 0.577
vn -0.577 -0.577 -0.577
vn -0.577 -0.577 -0.577
vn -0.577 -0.577 -0.577
vn -0.577 -0.577 -0.577
vn -0.577 -0.577 -0.577
vn -0.577 -0.577 -0.577
vn -0.577 -0.577 -0.577
vn -0.577 -0.577 -0.577
vn -0.577 -0.577 -0.577
vn -0.577 -0.577 -0.577
vn -0.577 -0.577 -0.577
vn -0.393 -0.393 -0.831
vn -0.393 -0.393 -0.831
vn -0.393 -0.393 -0.831
vn -0.577 -0.577 -0.577
vn -0.393 -0.393 -0.831
vn -0.393 -0.393 -0.831
vn -0.393 -0.393 -0.831
vn -0.577 -0.577 -0.577
vn -0.577 -0.577 -0.577
vn 0.577 0.577 0.577
vn 0.577 0.577 0.577
vn -0.577 -0.577 -0.577
vn -0.577 -0.577 -0.577
vn -0.577 -0.577 -0.577
vn -0.577 -0.577 -0.577
vn -0.577 -0.577 -0.577
vn -0.577 -0.577 -0.577
vn -0.577 -0.577 -0.577
vn -0.577 -0.577 -0.577
vn 0.577 0.577 0.577
vn 0.577 0.577 0.577
vn 0.577 0.577 0.577
vn 0.577 0.577 0.577
vn 0.577 0.577 0.577
vn 0.577 0.577 0.577
vn 0.577 0.577 0.577
vn 0.577 0.577 0.577
vn 0.577 0.577 0.577
vn 0.577 0.577 0.577
vn 0.577 0.577 0.577
vn 0.577 0.577 0.577
vn 0.577 0.577 0.577
vn 0.577 0.577 0.577
vn -0.577 -0.577 -0.577
vn -0.577 -0.577 -0.577
vn -0.577 -0.577 -0.577
vn -0.577 -0.577 -0.577
vn -0.577 -0.577 -0.577
vn -0.577 -0.577 -0.577
vn -0.577 -0.577 -0.577
vn -0.577 -0.577 -0.577
vn -0.577 -0.577 -0.577
vn -0.577 -0.577 -0.577
vn -0.577 -0.577 -0.577
vn -0.393 -0.393 -0.831
vn -0.393 -0.393 -0.831
vn -0.393 -0.393 -0.831
vn -0.577 -0.577 -0.577
vn -0.393 -0.393 -0.831
vn -0.393 -0.393 -0.831
vn -0.393 -0.393 -0.831
vn 0.577 0.577 0.577
vn 0.577 0.577 0.577
vn 0.577 0.577 0.577
vn 0.577 0.577 0.577
vn 0.577 0.577 0.577
vn 0.577 0.577 0.577
vn 0.577 0.577 0.577
vn 0.577 0.577 0.577
vn 0.577 0.577 0.577
vn 0.577 0.577 0.577
vn 0.577 0.577 0.577
vn 0.577 0.577 0.577
vn 0.577 0.577 0.577
vn 0.577 0.577 0.577
vn -0.577 -0.577 -0.577
vn -0.577 -0.577 -0.577
vn -0.577 -0.577 -0.577
vn -0.577 -0.577 -0.577
vn -0.577 -0.577 -0.577
vn -0.577 -0.577 -0.577
vn -0.577 -0.577 -0.577
vn -0.577 -0.577 -0.577
vn -0.577 -0.577 -0.577
vn -0.577 -0.577 -0.577
vn -0.577 -0.577 -0.577
vn -0.577 -0.577 -0.577
vn 0.577 0.577 0.577
vn 0.577 0.577 0.577
vn -0.577 -0.577 -0.577
vn -0.577 -0.577 -0.577
vn -0.577 -0.577 -0.577
vn -0.577 -0.577 -0.577
vn -0.577 -0.577 -0.577
vn -0.577 -0.577 -0.577
vn -0.577 -0.577 -0.577
vn -0.577 -0.577 -0.577
vn -0.577 -0.577 -0.577
vn -0.577 -0.577 -0.577
vn -0.577 -0.577 -0.577
vn -0.393 -0.393 -0.831
vn -0.393 -0.393 -0.831
vn -0.393 -0.393 -0.831
vn -0.393 -0.393 -0.831
vn -0.577 -0.577 -0.577
vn -0.393 -0.393 -0.831
vn -0.393 -0.393 -0.831
vn 0.577 0.577 0.577
vn 0.577 0.577 0.577
vn 0.577 0.577 0.577
vn 0.577 0.577 0.577
vn 0.577 0.577 0.577
vn 0.577 0.577 0.577
vn 0.577 0.577 0.577
vn 0.577 0.577 0.577
vn 0.577 0.577 0.577
vn 0.577 0.577 0.577
vn 0.577 0.577 0.577
vn 0.577 0.577 0.577
vn 0.577 0.577 0.577
vn 0.577 0.577 0.577
vn -0.577 -0.577 -0.577
vn -0.577 -0.577 -0.577
vn -0.577 -0.577 -0.577
vn -0.577 -0.577 -0.577
vn -0.577 -0.577 -0.577
vn -0.577 -0.577 -0.577
vn -0.577 -0.577 -0.577
vn -0.577 -0.577 -0.577
vn -0.577 -0.577 -0.577
vn -0.577 -0.577 -0.577
vn -0.577 -0.577 -0.577
vn -0.577 -0.577 -0.577
vn 0.577 0.577 0.577
vn 0.577 0.577 0.577
vn -0.577 -0.577 -0.577
vn -0.577 -0.577 -0.577
vn -0.577 -0.577 -0.577
vn -0.577 -0.577 -0.577
vn -0.577 -0.577 -0.577
vn -0.577 -0.577 -0.577
vn -0.577 -0.577 -0.577
vn -0.577 -0.577 -0.577
vn -0.577 -0.577 -0.577
vn -0.577 -0.577 -0.577
vn -0.577 -0.577 -0.577
vn -0.393 -0.393 -0.831
vn -0.393 -0.393 -0.831
vn -0.393 -0.393 -0.831
vn -0.393 -0.393 -0.831
vn -0.577 -0.577 -0.577
vn -0.393 -0.393 -0.831
vn -0.393 -0.393 -0.831
vn -0.577 -0.577 -0.577
vn -0.577 -0.577 -0.577
vn -0.577 -0.577 -0.577
vn -0.577 -0.577 -0.577
vn -1.000 0.000 0.000
vn -1.000 0.000 0.000
vn -0.577 -0.577 -0.577
vn -0.577 -0.577 -0.577
vn -0.577 -0.577 -0.577
vn -0.577 -0.577 -0.577
vn -0.577 -0.577 -0.577
vn -0.577 -0.577 -0.577
vn -0.577 -0.577 -0.577
vn 1.000 0.000 0.000
vn -1.000 0.000 0.000
vn -0.577 -0.577 -0.577
vn 0.000 -0.939 -0.344
vn 0.000 -0.939 -0.344
vn 0.000 -0.939 -0.344
vn 0.000 -0.939 -0.344
vn -0.577 -0.577 -0.577
vn -0.577 -0.577 -0.577
vn 0.577 0.577 0.577
vn -0.577 -0.577 -0.577
vn -0.577 -0.577 -0.577
vn -0.577 -0.577 -0.577
vn -0.577 -0.577 -0.577
vn -0.577 -0.577 -0.577
vn -0.577 -0.577 -0.577
vn 0.577 0.577 0.577
vn -0.577 -0.577 -0.577
vn -0.577 -0.577 -0.577
vn -0.577 -0.577 -0.577
vn -0.577 -0.577 -0.577
vn 0.522 0.675 0.522
vn 0.522 0.675 0.522
vn 0.522 0.675 0.522
vn 0.522 0.675 0.522
vn 0.522 0.675 0.522
vn 0.522 0.675 0.522
vn 0.522 0.675 0.522
vn 0.522 0.675 0.522
vn 0.522 0.675 0.522
vn 0.522 0.675 0.522
vn 0.522 0.675 0.522
vn 0.522 0.675 0.522
vn 0.522 0.675 0.522
vn 0.522 0.675 0.522
vn 0.522 0.675 0.522
vn 0.522 0.675 0.522
vn 0.522 0.675 0.522
vn 0.522 0.675 0.522
vn 0.522 0.675 0.522
vn 0.522 0.675 0.522
vn 0.522 0.675 0.522
vn 0.522 0.675 0.522
vn 0.522 0.675 0.522
vn 0.522 0.675 0.522
vn 0.522 0.675 0.522
vn 0.522 0.675 0.522
vn 0.522 0.675 0.522
vn 0.522 0.675 0.522
vn 0.522 0.675 0.522
vn 0.522 0.675 0.522
vn 0.522 0.675 0.522
vn 0.522 0.675 0.522
vn 0.000 0.707 -0.707
vn 0.000 0.707 -0.707
vn -0.577 -0.577 -0.577
vn -0.577 -0.577 -0.577
vn -0.577 -0.577 -0.577
vn -0.577 -0.577 -0.577
vn -0.577 -0.577 -0.577
vn -0.577 -0.577 -0.577
vn 1.000 0.000 0.000
vn 1.000 0.000 0.000
vn 1.000 0.000 0.000
vn -0.577 -0.577 -0.577
vn -0.577 -0.577 -0.577
vn -0.577 -0.577 -0.577
vn -1.000 0.000 0.000
vn -1.000 0.000 0.000
vn -0.577 -0.577 -0.577
vn -1.000 0.000 0.000
vn -1.000 0.000 0.000
vn -0.577 -0.577 -0.577
vn 0.000 0.000 -1.000
vn 0.000 0.000 -1.000
vn 0.000 0.000 -1.000
vn 0.000 0.000 -1.000
vn -0.577 -0.577 -0.577
vn -0.577 -0.577 -0.577
vn 0.577 0.577 0.577
vn 0.577 0.577 0.577
vn 0.577 0.577 0.577
vn 0.577 0.577 0.577
vn 0.577 0.577 0.577
vn 0.577 0.577 0.577
vn 0.577 0.577 0.577
vn 0.577 0.577 0.577
vn 0.577 0.577 0.577
vn 0.577 0.577 0.577
vn -0.577 -0.577 -0.577
vn -0.577 -0.577 -0.577
vn -0.577 -0.577 -0.577
vn -0.577 -0.577 -0.577
vn -0.577 -0.577 -0.577
vn -0.577 -0.577 -0.577
vn -0.577 -0.577 -0.577
vn -0.577 -0.577 -0.577
vn -0.577 -0.577 -0.577
vn -0.577 -0.577 -0.577
vn -0.577 -0.577 -0.577
vn -0.577 -0.577 -0.577
vn 0.577 0.577 0.577
vn 0.577 0.577 0.577
vn 0.577 0.577 0.577
vn 0.577 0.577 0.577
vn 0.577 0.577 0.577
vn 0.577 0.577 0.577
vn 0.577 0.577 0.577
vn 0.577 0.577 0.577
vn 0.577 0.577 0.577
vn 0.577 0.577 0.577
vn -0.577 -0.577 -0.577
vn -0.577 -0.577 -0.577
vn -0.577 -0.577 -0.577
vn -0.577 -0.577 -0.577
vn -0.577 -0.577 -0.577
vn -0.577 -0.577 -0.577
vn -0.577 -0.577 -0.577
vn -0.577 -0.577 -0.577
vn -0.577 -0.577 -0.577
vn -0.577 -0.577 -0.577
vn -0.577 -0.577 -0.577
vn -0.577 -0.577 -0.577
vn -0.577 -0.577 -0.577
vn -0.577 -0.577 -0.577
vn -0.577 -0.577 -0.577
vn -0.577 -0.577 -0.577
vn -0.577 -0.577 -0.577
vn -0.577 -0.577 -0.577
vn -0.577 -0.577 -0.577
vn -0.577 -0.577 -0.577
vn 0.577 0.577 0.577
vn 0.577 0.577 0.577
vn 0.577 0.577 0.577
vn 0.577 0.577 0.577
vn 0.577 0.577 0.577
vn 0.577 0.577 0.577
vn 0.577 0.577 0.577
vn 0.577 0.577 0.577
vn 0.577 0.577 0.577
vn 0.577 0.577 0.577
vn 0.577 0.577 0.577
vn 0.577 0.577 0.577
vn 0.577 0.577 0.577
vn 0.577 0.577 0.577
vn -0.577 -0.577 -0.577
vn -0.577 -0.577 -0.577
vn 0.577 0.577 0.577
vn 0.577 0.577 0.577
vn -0.577 -0.577 -0.577
vn 0.577 0.577 0.577
vn -0.577 -0.577 -0.577
vn -0.577 -0.577 -0.577
vn -0.577 -0.577 -0.577
vn -0.577 -0.577 -0.577
vn -0.577 -0.577 -0.577
vn -0.577 -0.577 -0.577
vn 0.577 0.577 0.577
vn -0.577 -0.577 -0.577
vn -0.577 -0.577 -0.577
vn -0.577 -0.577 -0.577
vn -0.577 -0.577 -0.577
vn -0.577 -0.577 -0.577
vn 0.577 0.577 0.577
vn 0.577 0.577 0.577
vn 0.577 0.577 0.577
vn 0.577 0.577 0.577
vn -0.577 -0.577 -0.577
vn -0.577 -0.577 -0.577
vn -0.577 -0.577 -0.577
vn -0.577 -0.577 -0.577
vn -0.577 -0.577 -0.577
vn 0.577 0.577 0.577
vn 0.577 0.577 0.577
vn -0.577 -0.577 -0.577
vn 0.577 0.577 0.577
vn -0.577 -0.577 -0.577
vn -0.577 -0.577 -0.577
vn 0.577 0.577 0.577
vn -0.577 -0.577 -0.577
vn -0.577 -0.577 -0.577
vn -0.577 -0.577 -0.577
vn -0.577 -0.577 -0.577
vn -0.577 -0.577 -0.577
vn 0.577 0.577 0.577
vn 0.577 0.577 0.577
vn 0.577 0.577 0.577
vn 0.577 0.577 0.577
vn 0.577 0.577 0.577
vn 0.577 0.577 0.577
vn 0.577 0.577 0.577
vn 0.577 0.577 0.577
vn 0.577 0.577 0.577
vn 0.577 0.577 0.577
vn -1.000 0.000 0.000
vn -1.000 0.000 0.000
vn -0.577 -0.577 -0.577
vn -0.577 -0.577 -0.577
vn -0.577 -0.577 -0.577
vn 1.000 0.000 0.000
vn 1.000 0.000 0.000
vn 1.000 0.000 0.000
vn -0.577 -0.577 -0.577
vn 0.996 -0.050 0.074
vn -0.577 -0.577 -0.577
vn -0.577 -0.577 -0.577
vn 0.577 0.577 0.577
vn -1.000 0.000 0.000
vn 0.577 0.577 0.577
vn -1.000 0.000 0.000
vn -0.986 -0.035 0.163
vn 0.577 0.577 0.577
vn 0.577 0.577 0.577
vn 1.000 0.000 0.000
vn -0.577 -0.577 -0.577
vn -0.577 -0.577 -0.577
vn 1.000 0.000 0.000
vn -1.000 0.000 0.000
vn -0.577 -0.577 -0.577
vn -0.577 -0.577 -0.577
vn -1.000 0.000 0.000
usemtl tex_2157_fl0_ds_w11
f 1/1/1 2/2/2 3/3/3
f 1/1/1 3/3/3 4/4/4
usemtl tex_2158_fl0_ds_w11_ovl
f 5/1/5 6/2/6 7/3/7
f 5/1/5 7/3/7 8/4/8
usemtl tex_2159_fl0_ds_w11_ovl
f 9/1/9 10/2/10 11/3/11
f 9/1/9 11/3/11 12/4/12
usemtl tex_2160_fl0_ds_w11_ovl
f 13/1/13 14/2/14 15/3/15
f 13/1/13 15/3/15 16/4/16
usemtl tex_2157_fl1_ds_w11
f 17/1/17 18/2/18 19/3/19
f 17/1/17 19/3/19 20/4/20
usemtl tex_2158_fl1_ds_w11_ovl
f 21/1/21 22/2/22 23/3/23
f 21/1/21 23/3/23 24/4/24
usemtl tex_2159_fl1_ds_w11_ovl
f 25/1/25 26/2/26 27/3/27
f 25/1/25 27/3/27 28/4/28
usemtl tex_2160_fl1_ds_w11_ovl
f 29/1/29 30/2/30 31/3/31
f 29/1/29 31/3/31 32/4/32
usemtl tex_765_lit
f 33/5/33 34/6/34 35/7/35
f 33/5/33 35/7/35 36/8/36
f 37/9/37 38/10/38 34/6/34
f 37/9/37 34/6/34 33/5/33
f 39/11/39 40/12/40 41/13/41
f 39/11/39 41/13/41 42/14/42
f 43/15/43 44/16/44 40/12/40
f 43/15/43 40/12/40 39/11/39
f 45/17/45 46/18/46 44/16/44
f 45/17/45 44/16/44 43/15/43
f 47/19/47 48/20/48 49/21/49
f 47/19/47 49/21/49 50/22/50
f 51/23/51 52/24/52 53/25/53
f 51/23/51 53/25/53 54/26/54
f 55/27/55 56/28/56 57/29/57
f 55/27/55 57/29/57 58/30/58
usemtl tex_767_lit_sec
f 59/31/59 60/32/60 61/33/61
f 59/31/59 61/33/61 62/34/62
f 63/34/63 64/35/64 65/36/65
f 63/34/63 65/36/65 66/31/66
f 64/35/64 67/37/67 68/38/68
f 64/35/64 68/38/68 65/36/65
usemtl tex_230_lit_sec
f 69/39/69 70/40/70 71/41/71
f 69/39/69 71/41/71 72/42/72
f 72/42/72 73/43/73 74/44/74
f 72/42/72 74/44/74 69/39/69
f 73/43/73 75/45/75 76/46/76
f 73/43/73 76/46/76 74/44/74
usemtl tex_765_lit
f 77/27/77 78/28/78 79/29/79
f 77/27/77 79/29/79 80/30/80
f 81/23/81 82/24/82 83/25/83
f 81/23/81 83/25/83 84/26/84
f 85/19/85 86/20/86 87/21/87
f 85/19/85 87/21/87 88/22/88
f 89/17/89 90/18/90 91/16/91
f 89/17/89 91/16/91 92/15/92
f 93/15/93 94/16/94 95/12/95
f 93/15/93 95/12/95 96/11/96
f 96/11/96 95/12/95 97/13/97
f 96/11/96 97/13/97 98/14/98
f 99/9/99 100/10/100 101/6/101
f 99/9/99 101/6/101 102/5/102
f 102/5/102 101/6/101 103/7/103
f 102/5/102 103/7/103 104/8/104
usemtl tex_767_lit_sec
f 105/35/105 106/37/106 107/38/107
f 105/35/105 107/38/107 108/36/108
f 109/34/109 110/35/110 111/36/111
f 109/34/109 111/36/111 112/31/112
f 112/31/112 113/32/113 114/33/114
f 112/31/112 114/33/114 109/34/109
usemtl tex_230_lit_sec
f 115/43/115 116/45/116 117/46/117
f 115/43/115 117/46/117 118/44/118
f 119/42/119 115/43/115 118/44/118
f 119/42/119 118/44/118 120/39/120
f 120/39/120 121/40/121 122/41/122
f 120/39/120 122/41/122 119/42/119
usemtl tex_765_lit
f 123/5/123 124/6/124 125/7/125
f 123/5/123 125/7/125 126/8/126
f 127/9/127 128/10/128 124/6/124
f 127/9/127 124/6/124 123/5/123
f 129/11/129 130/12/130 131/13/131
f 129/11/129 131/13/131 132/14/132
f 133/15/133 134/16/134 130/12/130
f 133/15/133 130/12/130 129/11/129
f 135/17/135 136/18/136 134/16/134
f 135/17/135 134/16/134 133/15/133
f 137/19/137 138/20/138 139/21/139
f 137/19/137 139/21/139 140/22/140
f 141/23/141 142/24/142 143/25/143
f 141/23/141 143/25/143 144/26/144
f 145/27/145 146/28/146 147/29/147
f 145/27/145 147/29/147 148/30/148
usemtl tex_767_lit_sec
f 149/31/149 150/32/150 151/33/151
f 149/31/149 151/33/151 152/34/152
f 153/34/153 154/35/154 155/36/155
f 153/34/153 155/36/155 156/31/156
f 154/35/154 157/37/157 158/38/158
f 154/35/154 158/38/158 155/36/155
usemtl tex_230_lit_sec
f 159/39/159 160/40/160 161/41/161
f 159/39/159 161/41/161 162/42/162
f 162/42/162 163/43/163 164/44/164
f 162/42/162 164/44/164 159/39/159
f 163/43/163 165/45/165 166/46/166
f 163/43/163 166/46/166 164/44/164
usemtl tex_765_lit
f 167/5/167 168/6/168 169/7/169
f 167/5/167 169/7/169 170/8/170
f 171/9/171 172/10/172 168/6/168
f 171/9/171 168/6/168 167/5/167
f 173/11/173 174/12/174 175/13/175
f 173/11/173 175/13/175 176/14/176
f 177/15/177 178/16/178 174/12/174
f 177/15/177 174/12/174 173/11/173
f 179/17/179 180/18/180 178/16/178
f 179/17/179 178/16/178 177/15/177
f 181/19/181 182/20/182 183/21/183
f 181/19/181 183/21/183 184/22/184
f 185/23/185 186/24/186 187/25/187
f 185/23/185 187/25/187 188/26/188
f 189/27/189 190/28/190 191/29/191
f 189/27/189 191/29/191 192/30/192
usemtl tex_767_lit_sec
f 193/31/193 194/32/194 195/33/195
f 193/31/193 195/33/195 196/34/196
f 197/34/197 198/35/198 199/36/199
f 197/34/197 199/36/199 200/31/200
f 198/35/198 201/37/201 202/38/202
f 198/35/198 202/38/202 199/36/199
usemtl tex_230_lit_sec
f 203/39/203 204/40/204 205/41/205
f 203/39/203 205/41/205 206/42/206
f 206/42/206 207/43/207 208/44/208
f 206/42/206 208/44/208 203/39/203
f 207/43/207 209/45/209 210/46/210
f 207/43/207 210/46/210 208/44/208
usemtl tex_765_lit
f 211/27/211 212/28/212 213/29/213
f 211/27/211 213/29/213 214/30/214
f 215/23/215 216/24/216 217/25/217
f 215/23/215 217/25/217 218/26/218
f 219/19/219 220/20/220 221/21/221
f 219/19/219 221/21/221 222/22/222
f 223/17/223 224/18/224 225/16/225
f 223/17/223 225/16/225 226/15/226
f 227/15/227 228/16/228 229/12/229
f 227/15/227 229/12/229 230/11/230
f 230/11/230 229/12/229 231/13/231
f 230/11/230 231/13/231 232/14/232
f 233/9/233 234/10/234 235/6/235
f 233/9/233 235/6/235 236/5/236
f 236/5/236 235/6/235 237/7/237
f 236/5/236 237/7/237 238/8/238
usemtl tex_767_lit_sec
f 239/35/239 240/37/240 241/38/241
f 239/35/239 241/38/241 242/36/242
f 243/34/243 244/35/244 245/36/245
f 243/34/243 245/36/245 246/31/246
f 246/31/246 247/32/247 248/33/248
f 246/31/246 248/33/248 243/34/243
usemtl tex_230_lit_sec
f 249/43/249 250/45/250 251/46/251
f 249/43/249 251/46/251 252/44/252
f 253/42/253 249/43/249 252/44/252
f 253/42/253 252/44/252 254/39/254
f 254/39/254 255/40/255 256/41/256
f 254/39/254 256/41/256 253/42/253
usemtl tex_765_lit
f 257/27/257 258/28/258 259/29/259
f 257/27/257 259/29/259 260/30/260
f 261/23/261 262/24/262 263/25/263
f 261/23/261 263/25/263 264/26/264
f 265/19/265 266/20/266 267/21/267
f 265/19/265 267/21/267 268/22/268
f 269/17/269 270/18/270 271/16/271
f 269/17/269 271/16/271 272/15/272
f 273/15/273 274/16/274 275/12/275
f 273/15/273 275/12/275 276/11/276
f 276/11/276 275/12/275 277/13/277
f 276/11/276 277/13/277 278/14/278
f 279/9/279 280/10/280 281/6/281
f 279/9/279 281/6/281 282/5/282
f 282/5/282 281/6/281 283/7/283
f 282/5/282 283/7/283 284/8/284
usemtl tex_767_lit_sec
f 285/35/285 286/37/286 287/38/287
f 285/35/285 287/38/287 288/36/288
f 289/34/289 290/35/290 291/36/291
f 289/34/289 291/36/291 292/31/292
f 292/31/292 293/32/293 294/33/294
f 292/31/292 294/33/294 289/34/289
usemtl tex_230_lit_sec
f 295/43/295 296/45/296 297/46/297
f 295/43/295 297/46/297 298/44/298
f 299/42/299 295/43/295 298/44/298
f 299/42/299 298/44/298 300/39/300
f 300/39/300 301/40/301 302/41/302
f 300/39/300 302/41/302 299/42/299
usemtl tex_26_lit
f 303/3/303 304/47/304 305/48/305
f 303/3/303 305/48/305 306/49/306
usemtl tex_27_lit
f 307/50/307 308/51/308 309/52/309
f 307/50/307 309/52/309 310/53/310
f 311/54/311 312/55/312 313/56/313
f 311/54/311 313/56/313 314/57/314
f 312/55/312 315/58/315 316/59/316
f 312/55/312 316/59/316 313/56/313
f 308/51/308 317/60/317 318/61/318
f 308/51/308 318/61/318 309/52/309
usemtl tex_1514_lit
f 319/3/319 320/3/320 321/3/321
f 319/3/319 321/3/321 322/3/322
usemtl tex_765_lit
f 323/62/323 324/63/324 325/64/325
f 323/62/323 325/64/325 326/65/326
f 327/66/327 328/67/328 324/63/324
f 327/66/327 324/63/324 323/62/323
f 329/68/329 330/69/330 328/67/328
f 329/68/329 328/67/328 327/66/327
f 331/70/331 332/71/332 330/69/330
f 331/70/331 330/69/330 329/68/329
usemtl tex_887_lit_sec_ds_w11
f 333/72/333 334/73/334 335/74/335
f 333/72/333 335/74/335 336/75/336
usemtl tex_881_lit
f 337/76/337 338/77/338 339/78/339
f 337/76/337 339/78/339 340/79/340
f 340/79/340 339/78/339 341/3/341
f 340/79/340 341/3/341 342/80/342
f 343/81/343 344/82/344 345/83/345
f 343/81/343 345/83/345 346/3/346
f 346/3/346 345/83/345 347/84/347
f 346/3/346 347/84/347 348/85/348
f 348/85/348 347/84/347 349/86/349
f 348/85/348 349/86/349 350/87/350
usemtl tex_227_lit
f 351/88/351 352/89/352 353/90/353
f 354/3/354 352/89/352 351/88/351
f 354/3/354 351/88/351 355/91/355
f 356/92/356 354/3/354 355/91/355
f 356/92/356 355/91/355 357/93/357
f 358/94/358 359/95/359 360/96/360
f 361/3/361 360/96/360 359/95/359
f 361/3/361 359/95/359 362/97/362
f 363/98/363 361/3/361 362/97/362
f 363/98/363 362/97/362 364/99/364
usemtl tex_1514_lit
f 365/3/365 366/3/366 367/3/367
f 365/3/365 367/3/367 368/3/368
usemtl tex_26_lit
f 369/3/369 370/100/370 371/101/371
f 369/3/369 371/101/371 372/102/372
f 373/103/373 374/104/374 375/47/375
f 373/103/373 375/47/375 376/3/376
usemtl tex_27_lit
f 377/105/377 378/106/378 379/59/379
f 377/105/377 379/59/379 380/58/380
f 380/58/380 381/80/381 377/105/377
f 382/61/382 383/60/383 384/107/384
f 385/61/385 386/107/386 387/108/387
f 387/108/387 388/3/388 385/61/385
usemtl tex_1514_lit
f 389/3/389 390/3/390 391/3/391
f 389/3/389 391/3/391 392/3/392
usemtl tex_48_lit_ovl
f 393/109/393 394/80/394 395/110/395
f 393/109/393 395/110/395 396/111/396
usemtl tex_48_lit
f 396/111/396 395/110/395 397/112/397
f 396/111/396 397/112/397 398/113/398
f 398/113/398 397/112/397 399/3/399
f 398/113/398 399/3/399 400/114/400
usemtl tex_48_lit_ovl
f 401/109/401 402/80/402 403/115/403
f 401/109/401 403/115/403 404/116/404
f 404/116/404 403/115/403 405/3/405
f 404/116/404 405/3/405 406/114/406
f 407/117/407 408/80/408 409/110/409
f 407/117/407 409/110/409 410/118/410
f 410/118/410 409/110/409 411/112/411
f 410/118/410 411/112/411 412/119/412
f 412/119/412 411/112/411 413/3/413
f 412/119/412 413/3/413 414/120/414
usemtl tex_881_lit_ovl
f 415/121/415 416/122/416 417/123/417
f 415/121/415 417/123/417 418/124/418
f 418/124/418 417/123/417 419/3/419
f 418/124/418 419/3/419 420/125/420
f 421/126/421 422/127/422 423/128/423
f 421/126/421 423/128/423 424/129/424
f 424/129/424 423/128/423 425/130/425
f 424/129/424 425/130/425 426/131/426
f 426/131/426 425/130/425 427/132/427
f 426/131/426 427/132/427 428/123/428
f 428/123/428 427/132/427 429/133/429
f 428/123/428 429/133/429 430/3/430
f 431/134/431 432/135/432 433/136/433
f 431/134/431 433/136/433 434/137/434
f 434/137/434 433/136/433 435/122/435
f 434/137/434 435/122/435 436/121/436
usemtl tex_48_lit
f 437/138/437 438/112/438 439/110/439
f 437/138/437 439/110/439 440/139/440
f 441/140/441 442/3/442 438/112/438
f 441/140/441 438/112/438 437/138/437
f 443/141/443 444/115/444 445/80/445
f 443/141/443 445/80/445 446/142/446
f 447/143/447 448/3/448 444/115/444
f 447/143/447 444/115/444 443/141/443
f 449/144/449 450/115/450 451/80/451
f 449/144/449 451/80/451 452/145/452
f 453/146/453 454/3/454 455/115/455
f 453/146/453 455/115/455 456/144/456
f 457/147/457 458/3/458 459/115/459
f 457/147/457 459/115/459 460/148/460
f 461/139/461 462/110/462 463/80/463
f 461/139/461 463/80/463 464/149/464
usemtl tex_765_lit
f 465/150/465 466/151/466 467/152/467
f 465/150/465 467/152/467 468/153/468
f 468/153/468 467/152/467 469/154/469
f 468/153/468 469/154/469 470/155/470
f 470/155/470 469/154/469 471/156/471
f 470/155/470 471/156/471 472/157/472
f 472/157/472 471/156/471 473/158/473
f 472/157/472 473/158/473 474/159/474
usemtl tex_26_lit
f 475/3/475 476/160/476 477/161/477
f 475/3/475 477/161/477 478/162/478
f 479/80/479 480/163/480 476/160/476
f 479/80/479 476/160/476 475/3/475
f 481/164/481 482/165/482 480/163/480
f 481/164/481 480/163/480 479/80/479
f 483/166/483 484/167/484 485/168/485
f 486/169/486 487/170/487 484/167/484
f 486/169/486 484/167/484 483/166/483
f 488/171/488 489/3/489 490/172/490
f 491/80/491 492/173/492 493/172/493
f 491/80/491 493/172/493 494/3/494
f 492/173/492 495/169/495 496/166/496
f 492/173/492 496/166/496 493/172/493
f 497/172/497 496/166/496 498/168/498
f 497/172/497 498/168/498 499/171/499
f 500/174/500 501/175/501 502/176/502
f 500/174/500 502/176/502 503/177/503
f 501/175/501 504/178/504 505/179/505
f 501/175/501 505/179/505 506/180/506
f 501/175/501 506/180/506 502/176/502
usemtl tex_27_lit
f 507/181/507 508/3/508 509/182/509
f 510/183/510 511/184/511 508/3/508
f 510/183/510 508/3/508 507/181/507
f 512/185/512 513/80/513 514/186/514
f 514/186/514 513/80/513 515/187/515
f 514/186/514 515/187/515 516/188/516
f 517/189/517 518/190/518 514/186/514
f 517/189/517 514/186/514 516/188/516
f 519/191/519 518/190/518 517/189/517
f 520/192/520 521/193/521 518/190/518
f 520/192/520 518/190/518 519/191/519
f 510/183/510 507/181/507 522/194/522
f 523/183/523 524/194/524 525/195/525
f 525/195/525 524/194/524 526/196/526
f 526/196/526 524/194/524 527/197/527
f 526/196/526 527/197/527 528/198/528
usemtl tex_880_lit_ovl
f 529/3/529 530/199/530 531/200/531
f 529/3/529 531/200/531 532/201/532
f 533/202/533 534/3/534 535/203/535
f 533/202/533 535/203/535 536/204/536
