mtllib GkeyboltZ.mtl
v -721.0 -9.0 72.0 1.000 1.000 1.000
v -721.0 9.0 72.0 1.000 1.000 1.000
v -712.0 9.0 36.0 1.000 1.000 1.000
v -712.0 -9.0 36.0 1.000 1.000 1.000
v -721.0 -9.0 162.0 1.000 1.000 1.000
v -721.0 9.0 162.0 1.000 1.000 1.000
v -676.0 -9.0 162.0 1.000 1.000 1.000
v -676.0 9.0 162.0 1.000 1.000 1.000
v -721.0 9.0 162.0 1.000 1.000 1.000
v -721.0 -9.0 162.0 1.000 1.000 1.000
v -676.0 -9.0 180.0 1.000 1.000 1.000
v -676.0 9.0 180.0 1.000 1.000 1.000
v -676.0 9.0 162.0 1.000 1.000 1.000
v -676.0 -9.0 162.0 1.000 1.000 1.000
v -640.0 -9.0 180.0 1.000 1.000 1.000
v -640.0 9.0 180.0 1.000 1.000 1.000
v -676.0 9.0 180.0 1.000 1.000 1.000
v -676.0 -9.0 180.0 1.000 1.000 1.000
v -640.0 -9.0 117.0 1.000 1.000 1.000
v -640.0 9.0 117.0 1.000 1.000 1.000
v -640.0 9.0 180.0 1.000 1.000 1.000
v -640.0 -9.0 180.0 1.000 1.000 1.000
v -640.0 -9.0 117.0 1.000 1.000 1.000
v -586.0 -9.0 117.0 1.000 1.000 1.000
v -586.0 9.0 117.0 1.000 1.000 1.000
v -640.0 9.0 117.0 1.000 1.000 1.000
v -586.0 -9.0 117.0 1.000 1.000 1.000
v -586.0 -9.0 162.0 1.000 1.000 1.000
v -586.0 9.0 162.0 1.000 1.000 1.000
v -586.0 9.0 117.0 1.000 1.000 1.000
v -568.0 9.0 162.0 1.000 1.000 1.000
v -586.0 9.0 162.0 1.000 1.000 1.000
v -586.0 -9.0 162.0 1.000 1.000 1.000
v -568.0 -9.0 162.0 1.000 1.000 1.000
v -568.0 -9.0 162.0 1.000 1.000 1.000
v -568.0 -9.0 117.0 1.000 1.000 1.000
v -568.0 9.0 117.0 1.000 1.000 1.000
v -568.0 9.0 162.0 1.000 1.000 1.000
v -523.0 9.0 117.0 1.000 1.000 1.000
v -568.0 9.0 117.0 1.000 1.000 1.000
v -568.0 -9.0 117.0 1.000 1.000 1.000
v -523.0 -9.0 117.0 1.000 1.000 1.000
v -523.0 -9.0 117.0 1.000 1.000 1.000
v -523.0 -9.0 180.0 1.000 1.000 1.000
v -523.0 9.0 180.0 1.000 1.000 1.000
v -523.0 9.0 117.0 1.000 1.000 1.000
v -505.0 9.0 180.0 1.000 1.000 1.000
v -523.0 9.0 180.0 1.000 1.000 1.000
v -523.0 -9.0 180.0 1.000 1.000 1.000
v -505.0 -9.0 180.0 1.000 1.000 1.000
v -505.0 9.0 162.0 1.000 1.000 1.000
v -505.0 9.0 180.0 1.000 1.000 1.000
v -505.0 -9.0 180.0 1.000 1.000 1.000
v -505.0 -9.0 162.0 1.000 1.000 1.000
v -496.0 9.0 162.0 1.000 1.000 1.000
v -505.0 9.0 162.0 1.000 1.000 1.000
v -505.0 -9.0 162.0 1.000 1.000 1.000
v -496.0 -9.0 162.0 1.000 1.000 1.000
v -496.0 9.0 72.0 1.000 1.000 1.000
v -496.0 9.0 162.0 1.000 1.000 1.000
v -496.0 -9.0 162.0 1.000 1.000 1.000
v -496.0 -9.0 72.0 1.000 1.000 1.000
v -496.0 -9.0 72.0 1.000 1.000 1.000
v -505.0 -9.0 36.0 1.000 1.000 1.000
v -505.0 9.0 36.0 1.000 1.000 1.000
v -496.0 9.0 72.0 1.000 1.000 1.000
v -721.0 9.0 72.0 1.000 1.000 1.000
v -496.0 9.0 72.0 1.000 1.000 1.000
v -505.0 9.0 36.0 1.000 1.000 1.000
v -712.0 9.0 36.0 1.000 1.000 1.000
v -505.0 9.0 72.0 1.000 1.000 1.000
v -505.0 9.0 162.0 1.000 1.000 1.000
v -496.0 9.0 162.0 1.000 1.000 1.000
v -523.0 9.0 72.0 1.000 1.000 1.000
v -523.0 9.0 180.0 1.000 1.000 1.000
v -505.0 9.0 180.0 1.000 1.000 1.000
v -568.0 9.0 72.0 1.000 1.000 1.000
v -568.0 9.0 117.0 1.000 1.000 1.000
v -523.0 9.0 117.0 1.000 1.000 1.000
v -523.0 9.0 72.0 1.000 1.000 1.000
v -586.0 9.0 72.0 1.000 1.000 1.000
v -586.0 9.0 162.0 1.000 1.000 1.000
v -568.0 9.0 162.0 1.000 1.000 1.000
v -640.0 9.0 72.0 1.000 1.000 1.000
v -640.0 9.0 117.0 1.000 1.000 1.000
v -586.0 9.0 117.0 1.000 1.000 1.000
v -676.0 9.0 72.0 1.000 1.000 1.000
v -676.0 9.0 180.0 1.000 1.000 1.000
v -640.0 9.0 180.0 1.000 1.000 1.000
v -721.0 9.0 72.0 1.000 1.000 1.000
v -721.0 9.0 162.0 1.000 1.000 1.000
v -676.0 9.0 162.0 1.000 1.000 1.000
v -712.0 -9.0 36.0 1.000 1.000 1.000
v -505.0 -9.0 36.0 1.000 1.000 1.000
v -496.0 -9.0 72.0 1.000 1.000 1.000
v -721.0 -9.0 72.0 1.000 1.000 1.000
v -496.0 -9.0 162.0 1.000 1.000 1.000
v -505.0 -9.0 162.0 1.000 1.000 1.000
v -505.0 -9.0 72.0 1.000 1.000 1.000
v -505.0 -9.0 180.0 1.000 1.000 1.000
v -523.0 -9.0 180.0 1.000 1.000 1.000
v -523.0 -9.0 72.0 1.000 1.000 1.000
v -523.0 -9.0 117.0 1.000 1.000 1.000
v -568.0 -9.0 117.0 1.000 1.000 1.000
v -568.0 -9.0 72.0 1.000 1.000 1.000
v -568.0 -9.0 162.0 1.000 1.000 1.000
v -586.0 -9.0 162.0 1.000 1.000 1.000
v -586.0 -9.0 72.0 1.000 1.000 1.000
v -586.0 -9.0 72.0 1.000 1.000 1.000
v -586.0 -9.0 117.0 1.000 1.000 1.000
v -640.0 -9.0 117.0 1.000 1.000 1.000
v -640.0 -9.0 72.0 1.000 1.000 1.000
v -640.0 -9.0 180.0 1.000 1.000 1.000
v -676.0 -9.0 180.0 1.000 1.000 1.000
v -676.0 -9.0 72.0 1.000 1.000 1.000
v -676.0 -9.0 162.0 1.000 1.000 1.000
v -721.0 -9.0 162.0 1.000 1.000 1.000
v -721.0 -9.0 72.0 1.000 1.000 1.000
v -739.0 0.0 0.0 1.000 1.000 1.000
v -725.0 12.0 -36.0 1.000 1.000 1.000
v -725.0 -12.0 -36.0 1.000 1.000 1.000
v -725.0 30.0 -22.0 1.000 1.000 1.000
v -739.0 0.0 0.0 1.000 1.000 1.000
v -725.0 37.0 0.0 1.000 1.000 1.000
v -725.0 30.0 22.0 1.000 1.000 1.000
v -725.0 37.0 0.0 1.000 1.000 1.000
v -739.0 0.0 0.0 1.000 1.000 1.000
v -739.0 0.0 0.0 1.000 1.000 1.000
v -725.0 12.0 36.0 1.000 1.000 1.000
v -725.0 -12.0 36.0 1.000 1.000 1.000
v -739.0 0.0 0.0 1.000 1.000 1.000
v -725.0 -30.0 22.0 1.000 1.000 1.000
v -725.0 -37.0 0.0 1.000 1.000 1.000
v -725.0 -30.0 -22.0 1.000 1.000 1.000
v -725.0 -12.0 -36.0 1.000 1.000 1.000
v -739.0 0.0 0.0 1.000 1.000 1.000
v -478.0 12.0 -36.0 1.000 1.000 1.000
v -478.0 16.0 -49.0 1.000 1.000 1.000
v -478.0 -16.0 -49.0 1.000 1.000 1.000
v -478.0 -12.0 -36.0 1.000 1.000 1.000
v -478.0 30.0 -22.0 1.000 1.000 1.000
v -478.0 41.0 -30.0 1.000 1.000 1.000
v -478.0 16.0 -49.0 1.000 1.000 1.000
v -478.0 12.0 -36.0 1.000 1.000 1.000
v -478.0 37.0 0.0 1.000 1.000 1.000
v -478.0 51.0 0.0 1.000 1.000 1.000
v -478.0 30.0 22.0 1.000 1.000 1.000
v -478.0 41.0 30.0 1.000 1.000 1.000
v -478.0 12.0 36.0 1.000 1.000 1.000
v -478.0 16.0 49.0 1.000 1.000 1.000
v -478.0 -12.0 36.0 1.000 1.000 1.000
v -478.0 -16.0 49.0 1.000 1.000 1.000
v -478.0 -30.0 22.0 1.000 1.000 1.000
v -478.0 -41.0 30.0 1.000 1.000 1.000
v -478.0 -37.0 0.0 1.000 1.000 1.000
v -478.0 -51.0 0.0 1.000 1.000 1.000
v -478.0 -30.0 -22.0 1.000 1.000 1.000
v -478.0 -41.0 -30.0 1.000 1.000 1.000
v -478.0 -51.0 0.0 1.000 1.000 1.000
v -478.0 -37.0 0.0 1.000 1.000 1.000
v -478.0 -12.0 -36.0 1.000 1.000 1.000
v -478.0 -16.0 -49.0 1.000 1.000 1.000
v -369.0 -30.0 -22.0 1.000 1.000 1.000
v 379.0 -30.0 -22.0 1.000 1.000 1.000
v 379.0 -37.0 0.0 1.000 1.000 1.000
v -369.0 -37.0 0.0 1.000 1.000 1.000
v -369.0 -12.0 -36.0 1.000 1.000 1.000
v 379.0 -12.0 -36.0 1.000 1.000 1.000
v -369.0 12.0 -36.0 1.000 1.000 1.000
v 379.0 12.0 -36.0 1.000 1.000 1.000
v -369.0 30.0 -22.0 1.000 1.000 1.000
v 379.0 30.0 -22.0 1.000 1.000 1.000
v -369.0 37.0 0.0 1.000 1.000 1.000
v 379.0 37.0 0.0 1.000 1.000 1.000
v 379.0 30.0 -22.0 1.000 1.000 1.000
v -369.0 30.0 -22.0 1.000 1.000 1.000
v -369.0 30.0 22.0 1.000 1.000 1.000
v 379.0 30.0 22.0 1.000 1.000 1.000
v -369.0 12.0 36.0 1.000 1.000 1.000
v 379.0 12.0 36.0 1.000 1.000 1.000
v -369.0 -12.0 36.0 1.000 1.000 1.000
v 379.0 -12.0 36.0 1.000 1.000 1.000
v -369.0 -30.0 22.0 1.000 1.000 1.000
v 379.0 -30.0 22.0 1.000 1.000 1.000
v -369.0 -37.0 0.0 1.000 1.000 1.000
v 379.0 -37.0 0.0 1.000 1.000 1.000
v -725.0 -30.0 -22.0 1.000 1.000 1.000
v -478.0 -30.0 -22.0 1.000 1.000 1.000
v -478.0 -37.0 0.0 1.000 1.000 1.000
v -725.0 -37.0 0.0 1.000 1.000 1.000
v -725.0 -12.0 -36.0 1.000 1.000 1.000
v -478.0 -12.0 -36.0 1.000 1.000 1.000
v -725.0 12.0 -36.0 1.000 1.000 1.000
v -478.0 12.0 -36.0 1.000 1.000 1.000
v -725.0 30.0 -22.0 1.000 1.000 1.000
v -478.0 30.0 -22.0 1.000 1.000 1.000
v -725.0 37.0 0.0 1.000 1.000 1.000
v -478.0 37.0 0.0 1.000 1.000 1.000
v -725.0 30.0 22.0 1.000 1.000 1.000
v -478.0 30.0 22.0 1.000 1.000 1.000
v -725.0 12.0 36.0 1.000 1.000 1.000
v -478.0 12.0 36.0 1.000 1.000 1.000
v -725.0 -12.0 36.0 1.000 1.000 1.000
v -478.0 -12.0 36.0 1.000 1.000 1.000
v -478.0 12.0 36.0 1.000 1.000 1.000
v -725.0 12.0 36.0 1.000 1.000 1.000
v -725.0 -30.0 22.0 1.000 1.000 1.000
v -478.0 -30.0 22.0 1.000 1.000 1.000
v -725.0 -37.0 0.0 1.000 1.000 1.000
v -478.0 -37.0 0.0 1.000 1.000 1.000
v -478.0 -41.0 -30.0 1.000 1.000 1.000
v -370.0 -30.0 -22.0 1.000 1.000 1.000
v -370.0 -37.0 0.0 1.000 1.000 1.000
v -478.0 -51.0 0.0 1.000 1.000 1.000
v -478.0 -16.0 -49.0 1.000 1.000 1.000
v -370.0 -12.0 -36.0 1.000 1.000 1.000
v -478.0 16.0 -49.0 1.000 1.000 1.000
v -370.0 12.0 -36.0 1.000 1.000 1.000
v -478.0 41.0 -30.0 1.000 1.000 1.000
v -370.0 30.0 -22.0 1.000 1.000 1.000
v -370.0 12.0 -36.0 1.000 1.000 1.000
v -478.0 16.0 -49.0 1.000 1.000 1.000
v -478.0 51.0 0.0 1.000 1.000 1.000
v -370.0 37.0 0.0 1.000 1.000 1.000
v -478.0 41.0 30.0 1.000 1.000 1.000
v -370.0 30.0 22.0 1.000 1.000 1.000
v -478.0 16.0 49.0 1.000 1.000 1.000
v -370.0 12.0 36.0 1.000 1.000 1.000
v -478.0 -16.0 49.0 1.000 1.000 1.000
v -370.0 -12.0 36.0 1.000 1.000 1.000
v -478.0 -41.0 30.0 1.000 1.000 1.000
v -370.0 -30.0 22.0 1.000 1.000 1.000
v -478.0 -51.0 0.0 1.000 1.000 1.000
v -370.0 -37.0 0.0 1.000 1.000 1.000
v 739.0 18.0 -171.0 1.000 1.000 1.000
v 739.0 -18.0 -171.0 1.000 1.000 1.000
v 676.0 -21.0 -235.0 1.000 1.000 1.000
v 676.0 21.0 -235.0 1.000 1.000 1.000
v 739.0 18.0 171.0 1.000 1.000 1.000
v 739.0 -18.0 171.0 1.000 1.000 1.000
v 739.0 -18.0 -171.0 1.000 1.000 1.000
v 739.0 18.0 -171.0 1.000 1.000 1.000
v 442.0 33.0 -235.0 1.000 1.000 1.000
v 676.0 21.0 -235.0 1.000 1.000 1.000
v 676.0 -21.0 -235.0 1.000 1.000 1.000
v 442.0 -33.0 -235.0 1.000 1.000 1.000
v 442.0 -33.0 -235.0 1.000 1.000 1.000
v 379.0 -36.0 -171.0 1.000 1.000 1.000
v 379.0 36.0 -171.0 1.000 1.000 1.000
v 442.0 33.0 -235.0 1.000 1.000 1.000
v 379.0 -36.0 -171.0 1.000 1.000 1.000
v 379.0 -36.0 171.0 1.000 1.000 1.000
v 379.0 36.0 171.0 1.000 1.000 1.000
v 379.0 36.0 -171.0 1.000 1.000 1.000
v 379.0 -36.0 171.0 1.000 1.000 1.000
v 442.0 -33.0 235.0 1.000 1.000 1.000
v 442.0 33.0 235.0 1.000 1.000 1.000
v 379.0 36.0 171.0 1.000 1.000 1.000
v 442.0 -33.0 235.0 1.000 1.000 1.000
v 676.0 -21.0 235.0 1.000 1.000 1.000
v 676.0 21.0 235.0 1.000 1.000 1.000
v 442.0 33.0 235.0 1.000 1.000 1.000
v 676.0 21.0 235.0 1.000 1.000 1.000
v 676.0 -21.0 235.0 1.000 1.000 1.000
v 739.0 -18.0 171.0 1.000 1.000 1.000
v 739.0 18.0 171.0 1.000 1.000 1.000
v 578.0 35.0 54.0 1.000 1.000 1.000
v 578.0 -35.0 54.0 1.000 1.000 1.000
v 578.0 -35.0 -54.0 1.000 1.000 1.000
v 578.0 35.0 -54.0 1.000 1.000 1.000
v 578.0 -35.0 -54.0 1.000 1.000 1.000
v 659.0 -31.0 -54.0 1.000 1.000 1.000
v 659.0 31.0 -54.0 1.000 1.000 1.000
v 578.0 35.0 -54.0 1.000 1.000 1.000
v 659.0 -31.0 -54.0 1.000 1.000 1.000
v 659.0 -31.0 54.0 1.000 1.000 1.000
v 659.0 31.0 54.0 1.000 1.000 1.000
v 659.0 31.0 -54.0 1.000 1.000 1.000
v 659.0 31.0 54.0 1.000 1.000 1.000
v 659.0 -31.0 54.0 1.000 1.000 1.000
v 578.0 -35.0 54.0 1.000 1.000 1.000
v 578.0 35.0 54.0 1.000 1.000 1.000
v 668.0 39.0 216.0 1.000 1.000 1.000
v 722.0 37.0 162.0 1.000 1.000 1.000
v 722.0 37.0 -162.0 1.000 1.000 1.000
v 668.0 39.0 -216.0 1.000 1.000 1.000
v 668.0 39.0 63.0 1.000 1.000 1.000
v 569.0 45.0 63.0 1.000 1.000 1.000
v 452.0 50.0 216.0 1.000 1.000 1.000
v 569.0 45.0 -63.0 1.000 1.000 1.000
v 452.0 50.0 -216.0 1.000 1.000 1.000
v 668.0 39.0 -63.0 1.000 1.000 1.000
v 398.0 53.0 -162.0 1.000 1.000 1.000
v 398.0 53.0 162.0 1.000 1.000 1.000
v 668.0 39.0 -216.0 1.000 1.000 1.000
v 676.0 21.0 -235.0 1.000 1.000 1.000
v 442.0 33.0 -235.0 1.000 1.000 1.000
v 452.0 50.0 -216.0 1.000 1.000 1.000
v 722.0 37.0 -162.0 1.000 1.000 1.000
v 739.0 18.0 -171.0 1.000 1.000 1.000
v 676.0 21.0 -235.0 1.000 1.000 1.000
v 668.0 39.0 -216.0 1.000 1.000 1.000
v 722.0 37.0 162.0 1.000 1.000 1.000
v 739.0 18.0 171.0 1.000 1.000 1.000
v 739.0 18.0 -171.0 1.000 1.000 1.000
v 722.0 37.0 -162.0 1.000 1.000 1.000
v 668.0 39.0 216.0 1.000 1.000 1.000
v 676.0 21.0 235.0 1.000 1.000 1.000
v 739.0 18.0 171.0 1.000 1.000 1.000
v 722.0 37.0 162.0 1.000 1.000 1.000
v 452.0 50.0 216.0 1.000 1.000 1.000
v 442.0 33.0 235.0 1.000 1.000 1.000
v 676.0 21.0 235.0 1.000 1.000 1.000
v 668.0 39.0 216.0 1.000 1.000 1.000
v 398.0 53.0 162.0 1.000 1.000 1.000
v 379.0 36.0 171.0 1.000 1.000 1.000
v 442.0 33.0 235.0 1.000 1.000 1.000
v 452.0 50.0 216.0 1.000 1.000 1.000
v 398.0 53.0 -162.0 1.000 1.000 1.000
v 379.0 36.0 -171.0 1.000 1.000 1.000
v 379.0 36.0 171.0 1.000 1.000 1.000
v 398.0 53.0 162.0 1.000 1.000 1.000
v 452.0 50.0 -216.0 1.000 1.000 1.000
v 442.0 33.0 -235.0 1.000 1.000 1.000
v 379.0 36.0 -171.0 1.000 1.000 1.000
v 398.0 53.0 -162.0 1.000 1.000 1.000
v 578.0 35.0 -54.0 1.000 1.000 1.000
v 659.0 31.0 -54.0 1.000 1.000 1.000
v 668.0 39.0 -63.0 1.000 1.000 1.000
v 569.0 45.0 -63.0 1.000 1.000 1.000
v 659.0 31.0 54.0 1.000 1.000 1.000
v 668.0 39.0 63.0 1.000 1.000 1.000
v 668.0 39.0 -63.0 1.000 1.000 1.000
v 659.0 31.0 -54.0 1.000 1.000 1.000
v 578.0 35.0 54.0 1.000 1.000 1.000
v 569.0 45.0 63.0 1.000 1.000 1.000
v 668.0 39.0 63.0 1.000 1.000 1.000
v 659.0 31.0 54.0 1.000 1.000 1.000
v 578.0 35.0 -54.0 1.000 1.000 1.000
v 569.0 45.0 -63.0 1.000 1.000 1.000
v 569.0 45.0 63.0 1.000 1.000 1.000
v 578.0 35.0 54.0 1.000 1.000 1.000
v 569.0 -45.0 -63.0 1.000 1.000 1.000
v 668.0 -39.0 -63.0 1.000 1.000 1.000
v 659.0 -31.0 -54.0 1.000 1.000 1.000
v 578.0 -35.0 -54.0 1.000 1.000 1.000
v 659.0 -31.0 -54.0 1.000 1.000 1.000
v 668.0 -39.0 -63.0 1.000 1.000 1.000
v 668.0 -39.0 63.0 1.000 1.000 1.000
v 659.0 -31.0 54.0 1.000 1.000 1.000
v 659.0 -31.0 54.0 1.000 1.000 1.000
v 668.0 -39.0 63.0 1.000 1.000 1.000
v 569.0 -45.0 63.0 1.000 1.000 1.000
v 578.0 -35.0 54.0 1.000 1.000 1.000
v 578.0 -35.0 54.0 1.000 1.000 1.000
v 569.0 -45.0 63.0 1.000 1.000 1.000
v 569.0 -45.0 -63.0 1.000 1.000 1.000
v 578.0 -35.0 -54.0 1.000 1.000 1.000
v 452.0 -50.0 -216.0 1.000 1.000 1.000
v 442.0 -33.0 -235.0 1.000 1.000 1.000
v 676.0 -21.0 -235.0 1.000 1.000 1.000
v 668.0 -39.0 -216.0 1.000 1.000 1.000
v 668.0 -39.0 -216.0 1.000 1.000 1.000
v 676.0 -21.0 -235.0 1.000 1.000 1.000
v 739.0 -18.0 -171.0 1.000 1.000 1.000
v 722.0 -37.0 -162.0 1.000 1.000 1.000
v 722.0 -37.0 -162.0 1.000 1.000 1.000
v 739.0 -18.0 -171.0 1.000 1.000 1.000
v 739.0 -18.0 171.0 1.000 1.000 1.000
v 722.0 -37.0 162.0 1.000 1.000 1.000
v 722.0 -37.0 162.0 1.000 1.000 1.000
v 739.0 -18.0 171.0 1.000 1.000 1.000
v 676.0 -21.0 235.0 1.000 1.000 1.000
v 668.0 -39.0 216.0 1.000 1.000 1.000
v 668.0 -39.0 216.0 1.000 1.000 1.000
v 676.0 -21.0 235.0 1.000 1.000 1.000
v 442.0 -33.0 235.0 1.000 1.000 1.000
v 452.0 -50.0 216.0 1.000 1.000 1.000
v 452.0 -50.0 216.0 1.000 1.000 1.000
v 442.0 -33.0 235.0 1.000 1.000 1.000
v 379.0 -36.0 171.0 1.000 1.000 1.000
v 398.0 -53.0 162.0 1.000 1.000 1.000
v 398.0 -53.0 162.0 1.000 1.000 1.000
v 379.0 -36.0 171.0 1.000 1.000 1.000
v 379.0 -36.0 -171.0 1.000 1.000 1.000
v 398.0 -53.0 -162.0 1.000 1.000 1.000
v 398.0 -53.0 -162.0 1.000 1.000 1.000
v 379.0 -36.0 -171.0 1.000 1.000 1.000
v 442.0 -33.0 -235.0 1.000 1.000 1.000
v 452.0 -50.0 -216.0 1.000 1.000 1.000
v 668.0 -39.0 -216.0 1.000 1.000 1.000
v 722.0 -37.0 -162.0 1.000 1.000 1.000
v 722.0 -37.0 162.0 1.000 1.000 1.000
v 668.0 -39.0 216.0 1.000 1.000 1.000
v 668.0 -39.0 216.0 1.000 1.000 1.000
v 452.0 -50.0 216.0 1.000 1.000 1.000
v 569.0 -45.0 63.0 1.000 1.000 1.000
v 668.0 -39.0 63.0 1.000 1.000 1.000
v 452.0 -50.0 -216.0 1.000 1.000 1.000
v 569.0 -45.0 -63.0 1.000 1.000 1.000
v 668.0 -39.0 -216.0 1.000 1.000 1.000
v 668.0 -39.0 -63.0 1.000 1.000 1.000
v 398.0 -53.0 162.0 1.000 1.000 1.000
v 398.0 -53.0 -162.0 1.000 1.000 1.000
vt 0.0008 0.5000
vt 0.0063 0.5000
vt 0.0010 0.5000
vt 0.3102 0.5000
vt 0.2973 0.5000
vt 0.0016 0.5000
vt 0.0013 0.5000
vt 0.3218 0.5000
vt 0.9965 0.5039
vt 0.9965 0.4961
vt 0.9893 0.4961
vt 0.9893 0.5039
vt 0.3136 0.5000
vt 0.3301 0.5000
vt 0.0006 0.5000
vt 0.3419 0.5000
vt 0.3371 0.5000
vt 0.9937 0.5039
vt 0.9973 0.5039
vt 0.9973 0.4961
vt 0.9937 0.4961
vt 0.3502 0.5000
vt 0.0019 0.5000
vt 0.3658 0.5000
vt 0.3574 0.5000
vt 0.9943 0.4960
vt 0.9924 0.4961
vt 0.9924 0.5039
vt 0.9943 0.5040
vt 0.3611 0.5000
vt 0.9959 0.4960
vt 0.9959 0.5040
vt 0.9702 0.5040
vt 0.9702 0.4960
vt 0.2812 0.0506
vt 0.3538 0.0220
vt 0.3502 0.0230
vt 0.2827 0.0497
vt 0.3491 0.0235
vt 0.3497 0.0255
vt 0.3533 0.0244
vt 0.3419 0.0258
vt 0.3452 0.0278
vt 0.3500 0.0263
vt 0.3301 0.0299
vt 0.3292 0.0312
vt 0.3422 0.0266
vt 0.3219 0.0330
vt 0.3226 0.0349
vt 0.3296 0.0323
vt 0.3055 0.0395
vt 0.3057 0.0401
vt 0.3222 0.0338
vt 0.2941 0.0445
vt 0.2936 0.0475
vt 0.3065 0.0418
vt 0.2820 0.0521
vt 0.2948 0.0461
vt 0.2827 0.9503
vt 0.3502 0.9770
vt 0.3538 0.9780
vt 0.2812 0.9494
vt 0.3533 0.9756
vt 0.3497 0.9745
vt 0.3491 0.9765
vt 0.3500 0.9737
vt 0.3452 0.9722
vt 0.3419 0.9742
vt 0.3422 0.9734
vt 0.3292 0.9688
vt 0.3301 0.9701
vt 0.3296 0.9677
vt 0.3226 0.9651
vt 0.3219 0.9670
vt 0.3222 0.9662
vt 0.3057 0.9599
vt 0.3055 0.9605
vt 0.3065 0.9582
vt 0.2936 0.9525
vt 0.2941 0.9555
vt 0.2948 0.9539
vt 0.2820 0.9479
vt 0.0166 0.5357
vt 0.0202 0.4603
vt 0.0202 0.5397
vt 0.0192 0.3936
vt 0.0135 0.3932
vt 0.0174 0.3695
vt 0.0163 0.3929
vt 0.0129 0.4644
vt 0.0160 0.4603
vt 0.0160 0.5397
vt 0.0122 0.6071
vt 0.0163 0.6071
vt 0.0174 0.6305
vt 0.0192 0.6064
vt 0.0004 0.5000
vt 0.0006 0.4960
vt 0.0006 0.5040
vt 0.0003 0.4921
vt 0.0004 0.4881
vt 0.0001 0.4921
vt 0.0003 0.4841
vt 0.0001 0.4881
vt 0.0000 0.5000
vt 0.0000 0.4960
vt 0.0000 0.5040
vt 0.0001 0.5079
vt 0.0001 0.5119
vt 0.0003 0.5159
vt 0.0003 0.5079
vt 0.0004 0.5119
vt 0.4013 0.8907
vt 0.6750 0.8738
vt 0.6781 0.9671
vt 0.4012 0.9900
vt 0.4047 0.6469
vt 0.6743 0.6387
vt 0.4047 0.3531
vt 0.6743 0.3613
vt 0.4013 0.1093
vt 0.6750 0.1262
vt 0.4012 0.0100
vt 0.6781 0.0329
vt 0.4014 0.0977
vt 0.6783 0.1156
vt 0.3969 0.3453
vt 0.6782 0.3535
vt 0.3969 0.6547
vt 0.6782 0.6465
vt 0.4014 0.9023
vt 0.6783 0.8844
vt 0.2863 0.8602
vt 0.3652 0.8847
vt 0.3611 0.9802
vt 0.2828 0.9503
vt 0.2862 0.6346
vt 0.3652 0.6427
vt 0.2862 0.3654
vt 0.3652 0.3573
vt 0.2863 0.1398
vt 0.3652 0.1153
vt 0.2828 0.0497
vt 0.3611 0.0198
vt 0.2819 0.1312
vt 0.3616 0.1045
vt 0.2778 0.3572
vt 0.3575 0.3496
vt 0.2778 0.6428
vt 0.3575 0.6504
vt 0.2819 0.8688
vt 0.3616 0.8955
vt 0.4205 0.8935
vt 0.4603 0.8968
vt 0.4605 0.9983
vt 0.4210 0.9936
vt 0.4208 0.6466
vt 0.4604 0.6505
vt 0.4208 0.3534
vt 0.4604 0.3495
vt 0.4205 0.1065
vt 0.4603 0.1032
vt 0.4210 0.0064
vt 0.4605 0.0017
vt 0.4167 0.0954
vt 0.4603 0.0915
vt 0.4167 0.3453
vt 0.4606 0.3424
vt 0.4167 0.6547
vt 0.4606 0.6576
vt 0.4167 0.9046
vt 0.4603 0.9085
vt 0.9238 0.4960
vt 0.9238 0.5040
vt 0.9111 0.5040
vt 0.9111 0.4960
vt 0.9990 0.4960
vt 0.9990 0.5040
vt 0.9977 0.5040
vt 0.9977 0.4960
vt 0.6699 0.4921
vt 0.7299 0.4960
vt 0.7299 0.5040
vt 0.6699 0.5079
vt 0.3611 0.5119
vt 0.3301 0.5119
vt 0.3301 0.4881
vt 0.3611 0.4881
vt 0.0167 0.5198
vt 0.0081 0.5198
vt 0.0081 0.4802
vt 0.0167 0.4802
vt 0.3219 0.5158
vt 0.3538 0.5119
vt 0.3538 0.4881
vt 0.3219 0.4842
vt 0.6781 0.5079
vt 0.7378 0.5040
vt 0.7378 0.4960
vt 0.6781 0.4921
vt 0.9190 0.4960
vt 0.9190 0.5040
vt 0.9312 0.5040
vt 0.9312 0.4960
vt 0.9999 0.4921
vt 0.9999 0.5079
vt 0.9995 0.5079
vt 0.9995 0.4921
vt 0.7531 0.5119
vt 0.7773 0.5079
vt 0.7773 0.4921
vt 0.7531 0.4881
vt 0.0087 0.5317
vt 0.0014 0.5317
vt 0.0014 0.4683
vt 0.0087 0.4683
vt 0.7653 0.4921
vt 0.7653 0.5079
vt 0.7454 0.5119
vt 0.7454 0.4881
vt 0.7727 0.0851
vt 0.7856 0.0915
vt 0.7844 0.0931
vt 0.7701 0.0868
vt 0.7727 0.0810
vt 0.7485 0.0662
vt 0.7138 0.0525
vt 0.7497 0.0680
vt 0.7141 0.0559
vt 0.7724 0.0816
vt 0.6976 0.0456
vt 0.6986 0.0432
vt 0.7464 0.2258
vt 0.7461 0.2301
vt 0.6858 0.2115
vt 0.6905 0.2064
vt 0.8872 0.2629
vt 0.8901 0.2691
vt 0.8771 0.2658
vt 0.8756 0.2588
vt 0.9471 0.2784
vt 0.9507 0.2865
vt 0.9487 0.2856
vt 0.9460 0.2790
vt 0.8810 0.2539
vt 0.8843 0.2623
vt 0.8968 0.2659
vt 0.8923 0.2583
vt 0.6952 0.1972
vt 0.6940 0.2030
vt 0.7537 0.2265
vt 0.7498 0.2185
vt 0.4801 0.0989
vt 0.4723 0.1044
vt 0.5000 0.1162
vt 0.5000 0.1092
vt 0.3457 0.0332
vt 0.3341 0.0379
vt 0.3339 0.0332
vt 0.3418 0.0294
vt 0.5000 0.1218
vt 0.5000 0.1272
vt 0.4723 0.1168
vt 0.4802 0.1110
vt 0.7570 0.1758
vt 0.7776 0.1868
vt 0.7815 0.1868
vt 0.7539 0.1707
vt 0.4644 0.0013
vt 0.4723 0.0010
vt 0.4724 0.0030
vt 0.4684 0.0029
vt 0.7491 0.1837
vt 0.7490 0.1799
vt 0.7738 0.1944
vt 0.7726 0.1958
vt 0.9395 0.2624
vt 0.9377 0.2595
vt 0.9381 0.2592
vt 0.9398 0.2622
vt 0.7539 0.8293
vt 0.7815 0.8132
vt 0.7776 0.8132
vt 0.7570 0.8242
vt 0.4684 0.9971
vt 0.4724 0.9970
vt 0.4723 0.9990
vt 0.4644 0.9987
vt 0.7726 0.8042
vt 0.7738 0.8056
vt 0.7490 0.8201
vt 0.7491 0.8163
vt 0.9398 0.7378
vt 0.9381 0.7408
vt 0.9377 0.7405
vt 0.9395 0.7376
vt 0.6905 0.7936
vt 0.6858 0.7885
vt 0.7461 0.7699
vt 0.7464 0.7742
vt 0.8756 0.7412
vt 0.8771 0.7342
vt 0.8901 0.7309
vt 0.8872 0.7371
vt 0.9460 0.7210
vt 0.9487 0.7144
vt 0.9507 0.7135
vt 0.9471 0.7216
vt 0.8923 0.7417
vt 0.8968 0.7341
vt 0.8843 0.7377
vt 0.8810 0.7461
vt 0.7498 0.7815
vt 0.7537 0.7735
vt 0.6940 0.7970
vt 0.6952 0.8028
vt 0.5000 0.8908
vt 0.5000 0.8838
vt 0.4723 0.8956
vt 0.4801 0.9011
vt 0.3418 0.9706
vt 0.3339 0.9668
vt 0.3341 0.9621
vt 0.3457 0.9668
vt 0.4802 0.8890
vt 0.4723 0.8832
vt 0.5000 0.8728
vt 0.5000 0.8782
vt 0.7701 0.9132
vt 0.7844 0.9069
vt 0.7856 0.9085
vt 0.7727 0.9149
vt 0.7138 0.9475
vt 0.7485 0.9338
vt 0.7727 0.9190
vt 0.7141 0.9441
vt 0.7497 0.9320
vt 0.7724 0.9184
vt 0.6986 0.9568
vt 0.6976 0.9544
vn -0.998 0.000 -0.055
vn -0.998 0.000 -0.055
vn -0.987 0.000 -0.158
vn -0.987 0.000 -0.158
vn -0.998 0.000 0.063
vn -0.998 0.000 0.063
vn -0.380 0.000 0.925
vn -0.380 0.000 0.925
vn -0.405 0.000 0.914
vn -0.405 0.000 0.914
vn -0.997 0.000 0.079
vn -0.997 0.000 0.079
vn -0.997 0.000 0.071
vn -0.997 0.000 0.071
vn -0.356 0.000 0.934
vn -0.356 0.000 0.934
vn -0.380 0.000 0.925
vn -0.380 0.000 0.925
vn 0.993 -0.008 0.118
vn 0.993 0.008 0.118
vn 0.979 0.008 0.205
vn 0.979 -0.008 0.205
vn -0.373 0.000 0.928
vn -0.340 0.000 0.940
vn -0.340 0.000 0.940
vn -0.373 0.000 0.928
vn -0.999 0.000 0.048
vn -0.997 0.000 0.071
vn -0.997 0.000 0.071
vn -0.999 0.000 0.048
vn -0.316 0.000 0.949
vn -0.326 0.000 0.945
vn -0.326 0.000 0.945
vn -0.316 0.000 0.949
vn 0.987 -0.008 0.158
vn 0.995 -0.008 0.103
vn 0.995 0.008 0.103
vn 0.987 0.008 0.158
vn -0.300 0.000 0.954
vn -0.326 0.000 0.945
vn -0.326 0.000 0.945
vn -0.300 0.000 0.954
vn -0.999 0.000 0.048
vn -0.996 0.000 0.087
vn -0.996 0.000 0.087
vn -0.999 0.000 0.048
vn -0.268 0.000 0.963
vn -0.285 0.000 0.958
vn -0.285 0.000 0.958
vn -0.268 0.000 0.963
vn 0.989 0.008 0.150
vn 0.985 0.008 0.173
vn 0.985 -0.008 0.173
vn 0.989 -0.008 0.150
vn -0.268 0.000 0.963
vn -0.278 0.000 0.961
vn -0.278 0.000 0.961
vn -0.268 0.000 0.963
vn 0.992 0.008 -0.127
vn 0.989 0.008 0.150
vn 0.989 -0.008 0.150
vn 0.992 -0.008 -0.127
vn 0.992 -0.008 -0.127
vn 0.940 -0.008 -0.340
vn 0.940 0.008 -0.340
vn 0.992 0.008 -0.127
vn -0.438 0.899 0.024
vn -0.292 0.956 0.024
vn -0.300 0.954 0.000
vn -0.435 0.901 0.000
vn -0.302 0.953 0.024
vn -0.301 0.949 0.095
vn -0.293 0.951 0.095
vn -0.316 0.948 0.024
vn -0.310 0.944 0.111
vn -0.300 0.947 0.111
vn -0.340 0.940 0.024
vn -0.342 0.938 0.064
vn -0.316 0.947 0.063
vn -0.316 0.948 0.024
vn -0.356 0.934 0.024
vn -0.355 0.930 0.095
vn -0.341 0.935 0.095
vn -0.389 0.921 0.024
vn -0.389 0.920 0.056
vn -0.356 0.932 0.063
vn -0.412 0.911 0.024
vn -0.413 0.905 0.103
vn -0.387 0.916 0.103
vn -0.438 0.899 0.024
vn -0.436 0.896 0.087
vn -0.410 0.908 0.087
vn -0.435 -0.901 0.000
vn -0.300 -0.954 0.000
vn -0.292 -0.956 0.024
vn -0.438 -0.899 0.024
vn -0.293 -0.951 0.095
vn -0.301 -0.949 0.095
vn -0.302 -0.953 0.024
vn -0.300 -0.947 0.111
vn -0.310 -0.944 0.111
vn -0.316 -0.948 0.024
vn -0.316 -0.947 0.063
vn -0.342 -0.938 0.064
vn -0.340 -0.940 0.024
vn -0.341 -0.935 0.095
vn -0.355 -0.930 0.095
vn -0.356 -0.934 0.024
vn -0.356 -0.934 0.024
vn -0.356 -0.932 0.063
vn -0.389 -0.920 0.056
vn -0.389 -0.921 0.024
vn -0.387 -0.916 0.103
vn -0.413 -0.905 0.103
vn -0.412 -0.911 0.024
vn -0.410 -0.908 0.087
vn -0.436 -0.896 0.087
vn -0.438 -0.899 0.024
vn -0.967 -0.071 -0.246
vn -0.960 0.079 -0.270
vn -0.960 -0.079 -0.270
vn -0.962 0.213 -0.173
vn -0.973 0.214 -0.087
vn -0.965 0.261 -0.016
vn -0.967 0.214 0.135
vn -0.965 0.261 -0.016
vn -0.973 0.214 -0.087
vn -0.974 0.071 0.214
vn -0.968 0.079 0.238
vn -0.968 -0.079 0.238
vn -0.976 -0.214 0.048
vn -0.967 -0.214 0.135
vn -0.965 -0.261 -0.016
vn -0.962 -0.213 -0.173
vn -0.960 -0.079 -0.270
vn -0.967 -0.071 -0.246
vn -0.999 0.000 -0.040
vn -0.999 0.008 -0.048
vn -0.999 -0.008 -0.048
vn -0.999 0.000 -0.040
vn -0.999 0.016 -0.032
vn -0.999 0.024 -0.032
vn -0.999 0.008 -0.048
vn -0.999 0.000 -0.040
vn -1.000 0.016 -0.016
vn -0.999 0.032 -0.016
vn -1.000 0.016 0.000
vn -1.000 0.024 0.000
vn -1.000 0.000 0.000
vn -1.000 0.008 0.008
vn -1.000 0.000 0.000
vn -1.000 -0.008 0.008
vn -1.000 -0.016 0.000
vn -1.000 -0.024 0.000
vn -1.000 -0.016 -0.016
vn -0.999 -0.032 -0.016
vn -0.999 -0.016 -0.032
vn -0.999 -0.024 -0.032
vn -0.999 -0.032 -0.016
vn -1.000 -0.016 -0.016
vn -0.999 0.000 -0.040
vn -0.999 -0.008 -0.048
vn -0.197 -0.781 -0.592
vn 0.350 -0.748 -0.565
vn 0.356 -0.934 -0.016
vn -0.198 -0.980 -0.024
vn -0.191 -0.294 -0.937
vn 0.349 -0.277 -0.895
vn -0.191 0.294 -0.937
vn 0.349 0.277 -0.895
vn -0.197 0.781 -0.592
vn 0.350 0.748 -0.565
vn -0.198 0.980 -0.024
vn 0.356 0.934 -0.016
vn 0.350 0.748 -0.565
vn -0.197 0.781 -0.592
vn -0.197 0.805 0.560
vn 0.357 0.769 0.531
vn -0.206 0.309 0.928
vn 0.356 0.293 0.887
vn -0.206 -0.309 0.928
vn 0.356 -0.293 0.887
vn -0.197 -0.805 0.560
vn 0.357 -0.769 0.531
vn -0.198 -0.980 -0.024
vn 0.356 -0.934 -0.016
vn -0.427 -0.720 -0.546
vn -0.270 -0.769 -0.579
vn -0.278 -0.960 -0.024
vn -0.434 -0.901 -0.016
vn -0.428 -0.269 -0.863
vn -0.270 -0.285 -0.920
vn -0.428 0.269 -0.863
vn -0.270 0.285 -0.920
vn -0.427 0.720 -0.546
vn -0.270 0.769 -0.579
vn -0.434 0.901 -0.016
vn -0.278 0.960 -0.024
vn -0.436 0.738 0.515
vn -0.277 0.791 0.546
vn -0.444 0.286 0.849
vn -0.285 0.301 0.910
vn -0.444 -0.286 0.849
vn -0.285 -0.301 0.910
vn -0.285 0.301 0.910
vn -0.444 0.286 0.849
vn -0.436 -0.738 0.515
vn -0.277 -0.791 0.546
vn -0.434 -0.901 -0.016
vn -0.278 -0.960 -0.024
vn -0.159 -0.787 -0.596
vn -0.079 -0.794 -0.603
vn -0.079 -0.997 -0.024
vn -0.158 -0.987 -0.024
vn -0.158 -0.293 -0.943
vn -0.079 -0.301 -0.950
vn -0.158 0.293 -0.943
vn -0.079 0.301 -0.950
vn -0.159 0.787 -0.596
vn -0.079 0.794 -0.603
vn -0.079 0.301 -0.950
vn -0.158 0.293 -0.943
vn -0.158 0.987 -0.024
vn -0.079 0.997 -0.024
vn -0.167 0.809 0.563
vn -0.079 0.817 0.571
vn -0.167 0.309 0.936
vn -0.079 0.315 0.946
vn -0.167 -0.309 0.936
vn -0.079 -0.315 0.946
vn -0.167 -0.809 0.563
vn -0.079 -0.817 0.571
vn -0.158 -0.987 -0.024
vn -0.079 -0.997 -0.024
vn 0.848 0.008 -0.531
vn 0.848 -0.008 -0.531
vn 0.822 -0.008 -0.569
vn 0.822 0.008 -0.569
vn 0.998 0.008 0.063
vn 0.998 -0.008 0.063
vn 0.995 -0.008 -0.095
vn 0.995 0.008 -0.095
vn 0.340 0.016 -0.940
vn 0.460 0.008 -0.888
vn 0.460 -0.008 -0.888
vn 0.340 -0.016 -0.940
vn -0.278 -0.024 -0.960
vn -0.340 -0.024 -0.940
vn -0.340 0.024 -0.940
vn -0.278 0.024 -0.960
vn -0.967 -0.040 -0.254
vn -0.984 -0.040 0.175
vn -0.984 0.040 0.175
vn -0.967 0.040 -0.254
vn -0.356 -0.032 0.934
vn -0.292 -0.024 0.956
vn -0.292 0.024 0.956
vn -0.356 0.032 0.934
vn 0.356 -0.016 0.934
vn 0.476 -0.008 0.880
vn 0.476 0.008 0.880
vn 0.356 0.016 0.934
vn 0.838 0.008 0.546
vn 0.838 -0.008 0.546
vn 0.862 -0.008 0.506
vn 0.862 0.008 0.506
vn 1.000 0.016 0.008
vn 1.000 -0.016 0.008
vn 0.999 -0.016 -0.040
vn 0.999 0.016 -0.040
vn 0.506 -0.024 0.862
vn 0.555 -0.016 0.832
vn 0.555 0.016 0.832
vn 0.506 0.024 0.862
vn -0.983 -0.063 -0.174
vn -0.997 -0.063 0.040
vn -0.997 0.063 0.040
vn -0.983 0.063 -0.174
vn 0.531 0.016 -0.847
vn 0.531 -0.016 -0.847
vn 0.491 -0.024 -0.871
vn 0.491 0.024 -0.871
vn 0.545 0.830 0.119
vn 0.571 0.817 0.079
vn 0.569 0.814 -0.119
vn 0.540 0.826 -0.159
vn 0.545 0.838 0.016
vn 0.497 0.868 0.016
vn 0.428 0.895 0.127
vn 0.499 0.864 -0.063
vn 0.428 0.888 -0.167
vn 0.545 0.837 -0.055
vn 0.395 0.909 -0.134
vn 0.397 0.914 0.087
vn 0.493 0.548 -0.676
vn 0.492 0.540 -0.683
vn 0.372 0.577 -0.727
vn 0.381 0.587 -0.714
vn 0.774 0.474 -0.419
vn 0.780 0.462 -0.422
vn 0.754 0.468 -0.460
vn 0.751 0.482 -0.451
vn 0.894 0.443 0.063
vn 0.901 0.427 0.071
vn 0.897 0.429 -0.103
vn 0.892 0.442 -0.095
vn 0.762 0.492 0.421
vn 0.769 0.475 0.428
vn 0.794 0.468 0.389
vn 0.785 0.483 0.388
vn 0.390 0.606 0.693
vn 0.388 0.594 0.705
vn 0.507 0.547 0.666
vn 0.500 0.563 0.658
vn -0.040 0.802 0.596
vn -0.055 0.791 0.609
vn 0.000 0.768 0.641
vn 0.000 0.782 0.624
vn -0.309 0.934 -0.182
vn -0.332 0.924 -0.190
vn -0.332 0.934 0.134
vn -0.316 0.941 0.119
vn 0.000 0.756 -0.654
vn 0.000 0.746 -0.666
vn -0.055 0.766 -0.640
vn -0.040 0.778 -0.627
vn 0.514 0.648 0.561
vn 0.555 0.626 0.547
vn 0.563 0.626 0.539
vn 0.508 0.659 0.555
vn -0.071 0.997 0.016
vn -0.055 0.998 0.032
vn -0.055 0.994 -0.095
vn -0.063 0.994 -0.087
vn 0.498 0.633 -0.593
vn 0.498 0.640 -0.585
vn 0.548 0.611 -0.571
vn 0.545 0.608 -0.577
vn 0.879 0.475 -0.040
vn 0.875 0.481 -0.047
vn 0.876 0.482 0.016
vn 0.880 0.476 0.008
vn 0.508 -0.659 0.555
vn 0.563 -0.626 0.539
vn 0.555 -0.626 0.547
vn 0.514 -0.648 0.561
vn -0.063 -0.994 -0.087
vn -0.055 -0.994 -0.095
vn -0.055 -0.998 0.032
vn -0.071 -0.997 0.016
vn 0.545 -0.608 -0.577
vn 0.548 -0.611 -0.571
vn 0.498 -0.640 -0.585
vn 0.498 -0.633 -0.593
vn 0.880 -0.476 0.008
vn 0.876 -0.482 0.016
vn 0.875 -0.481 -0.047
vn 0.879 -0.475 -0.040
vn 0.381 -0.587 -0.714
vn 0.372 -0.577 -0.727
vn 0.492 -0.540 -0.683
vn 0.493 -0.548 -0.676
vn 0.751 -0.482 -0.451
vn 0.754 -0.468 -0.460
vn 0.780 -0.462 -0.422
vn 0.774 -0.474 -0.419
vn 0.892 -0.442 -0.095
vn 0.897 -0.429 -0.103
vn 0.901 -0.427 0.071
vn 0.894 -0.443 0.063
vn 0.785 -0.483 0.388
vn 0.794 -0.468 0.389
vn 0.769 -0.475 0.428
vn 0.762 -0.492 0.421
vn 0.500 -0.563 0.658
vn 0.507 -0.547 0.666
vn 0.388 -0.594 0.705
vn 0.390 -0.606 0.693
vn 0.000 -0.782 0.624
vn 0.000 -0.768 0.641
vn -0.055 -0.791 0.609
vn -0.040 -0.802 0.596
vn -0.316 -0.941 0.119
vn -0.332 -0.934 0.134
vn -0.332 -0.924 -0.190
vn -0.309 -0.934 -0.182
vn -0.040 -0.778 -0.627
vn -0.055 -0.766 -0.640
vn 0.000 -0.746 -0.666
vn 0.000 -0.756 -0.654
vn 0.540 -0.826 -0.159
vn 0.569 -0.814 -0.119
vn 0.571 -0.817 0.079
vn 0.545 -0.830 0.119
vn 0.545 -0.830 0.119
vn 0.428 -0.895 0.127
vn 0.497 -0.868 0.016
vn 0.545 -0.838 0.016
vn 0.428 -0.888 -0.167
vn 0.499 -0.864 -0.063
vn 0.540 -0.826 -0.159
vn 0.545 -0.837 -0.055
vn 0.397 -0.914 0.087
vn 0.395 -0.909 -0.134
usemtl tex_661_lit_env
f 1/1/1 2/1/2 3/2/3
f 1/1/1 3/2/3 4/2/4
f 5/3/5 6/3/6 2/1/2
f 5/3/5 2/1/2 1/1/1
f 7/4/7 8/4/8 9/5/9
f 7/4/7 9/5/9 10/5/10
f 11/6/11 12/6/12 13/7/13
f 11/6/11 13/7/13 14/7/14
f 15/8/15 16/8/16 17/4/17
f 15/8/15 17/4/17 18/4/18
f 19/9/19 20/10/20 21/11/21
f 19/9/19 21/11/21 22/12/22
f 23/13/23 24/14/24 25/14/25
f 23/13/23 25/14/25 26/13/26
f 27/15/27 28/7/28 29/7/29
f 27/15/27 29/7/29 30/15/30
f 31/16/31 32/17/32 33/17/33
f 31/16/31 33/17/33 34/16/34
f 35/18/35 36/19/36 37/20/37
f 35/18/35 37/20/37 38/21/38
f 39/22/39 40/17/40 41/17/41
f 39/22/39 41/17/41 42/22/42
f 43/15/43 44/23/44 45/23/45
f 43/15/43 45/23/45 46/15/46
f 47/24/47 48/25/48 49/25/49
f 47/24/47 49/25/49 50/24/50
f 51/26/51 52/27/52 53/28/53
f 51/26/51 53/28/53 54/29/54
f 55/24/55 56/30/56 57/30/57
f 55/24/55 57/30/57 58/24/58
f 59/31/59 60/26/60 61/29/61
f 59/31/59 61/29/61 62/32/62
f 63/32/63 64/33/64 65/34/65
f 63/32/63 65/34/65 66/31/66
f 67/35/67 68/36/68 69/37/69
f 67/35/67 69/37/69 70/38/70
f 71/39/71 72/40/72 73/41/73
f 71/39/71 73/41/73 68/36/68
f 74/42/74 75/43/75 76/44/76
f 74/42/74 76/44/76 71/39/71
f 77/45/77 78/46/78 79/47/79
f 77/45/77 79/47/79 80/42/80
f 81/48/81 82/49/82 83/50/83
f 81/48/81 83/50/83 77/45/77
f 84/51/84 85/52/85 86/53/86
f 84/51/84 86/53/86 81/48/81
f 87/54/87 88/55/88 89/56/89
f 87/54/87 89/56/89 84/51/84
f 90/35/90 91/57/91 92/58/92
f 90/35/90 92/58/92 87/54/87
f 93/59/93 94/60/94 95/61/95
f 93/59/93 95/61/95 96/62/96
f 95/61/95 97/63/97 98/64/98
f 95/61/95 98/64/98 99/65/99
f 99/65/99 100/66/100 101/67/101
f 99/65/99 101/67/101 102/68/102
f 102/68/102 103/69/103 104/70/104
f 102/68/102 104/70/104 105/71/105
f 105/71/105 106/72/106 107/73/107
f 105/71/105 107/73/107 108/74/108
f 109/74/109 110/75/110 111/76/111
f 109/74/109 111/76/111 112/77/112
f 112/77/112 113/78/113 114/79/114
f 112/77/112 114/79/114 115/80/115
f 115/80/115 116/81/116 117/82/117
f 115/80/115 117/82/117 118/62/118
f 119/83/119 120/84/120 121/85/121
f 122/86/122 120/84/120 123/87/123
f 123/87/123 124/88/124 122/86/122
f 125/89/125 126/88/126 127/87/127
f 128/90/128 129/91/129 125/89/125
f 130/92/130 129/91/129 128/90/128
f 131/93/131 132/94/132 130/92/130
f 133/95/133 132/94/132 131/93/131
f 131/93/131 134/96/134 133/95/133
f 135/85/135 134/96/134 136/83/136
f 137/97/137 138/98/138 139/99/139
f 137/97/137 139/99/139 140/97/140
f 141/100/141 142/101/142 143/98/143
f 141/100/141 143/98/143 144/97/144
f 145/102/145 146/103/146 142/101/142
f 145/102/145 142/101/142 141/100/141
f 147/102/147 148/104/148 146/103/146
f 147/102/147 146/103/146 145/102/145
f 149/105/149 150/106/150 148/104/148
f 149/105/149 148/104/148 147/102/147
f 151/105/151 152/107/152 150/106/150
f 151/105/151 150/106/150 149/105/149
f 153/108/153 154/109/154 152/107/152
f 153/108/153 152/107/152 151/105/151
f 155/108/155 156/110/156 154/109/154
f 155/108/155 154/109/154 153/108/153
f 157/111/157 158/112/158 159/110/159
f 157/111/157 159/110/159 160/108/160
f 161/97/161 162/99/162 158/112/158
f 161/97/161 158/112/158 157/111/157
f 163/113/163 164/114/164 165/115/165
f 163/113/163 165/115/165 166/116/166
f 167/117/167 168/118/168 164/114/164
f 167/117/167 164/114/164 163/113/163
f 169/119/169 170/120/170 168/118/168
f 169/119/169 168/118/168 167/117/167
f 171/121/171 172/122/172 170/120/170
f 171/121/171 170/120/170 169/119/169
f 173/123/173 174/124/174 175/122/175
f 173/123/173 175/122/175 176/121/176
f 177/125/177 178/126/178 174/124/174
f 177/125/177 174/124/174 173/123/173
f 179/127/179 180/128/180 178/126/178
f 179/127/179 178/126/178 177/125/177
f 181/129/181 182/130/182 180/128/180
f 181/129/181 180/128/180 179/127/179
f 183/131/183 184/132/184 182/130/182
f 183/131/183 182/130/182 181/129/181
f 185/116/185 186/115/186 184/132/184
f 185/116/185 184/132/184 183/131/183
f 187/133/187 188/134/188 189/135/189
f 187/133/187 189/135/189 190/136/190
f 191/137/191 192/138/192 188/134/188
f 191/137/191 188/134/188 187/133/187
f 193/139/193 194/140/194 192/138/192
f 193/139/193 192/138/192 191/137/191
f 195/141/195 196/142/196 194/140/194
f 195/141/195 194/140/194 193/139/193
f 197/143/197 198/144/198 196/142/196
f 197/143/197 196/142/196 195/141/195
f 199/145/199 200/146/200 198/144/198
f 199/145/199 198/144/198 197/143/197
f 201/147/201 202/148/202 200/146/200
f 201/147/201 200/146/200 199/145/199
f 203/149/203 204/150/204 205/148/205
f 203/149/203 205/148/205 206/147/206
f 207/151/207 208/152/208 204/150/204
f 207/151/207 204/150/204 203/149/203
f 209/136/209 210/135/210 208/152/208
f 209/136/209 208/152/208 207/151/207
f 211/153/211 212/154/212 213/155/213
f 211/153/211 213/155/213 214/156/214
f 215/157/215 216/158/216 212/154/212
f 215/157/215 212/154/212 211/153/211
f 217/159/217 218/160/218 216/158/216
f 217/159/217 216/158/216 215/157/215
f 219/161/219 220/162/220 221/160/221
f 219/161/219 221/160/221 222/159/222
f 223/163/223 224/164/224 220/162/220
f 223/163/223 220/162/220 219/161/219
f 225/165/225 226/166/226 224/164/224
f 225/165/225 224/164/224 223/163/223
f 227/167/227 228/168/228 226/166/226
f 227/167/227 226/166/226 225/165/225
f 229/169/229 230/170/230 228/168/228
f 229/169/229 228/168/228 227/167/227
f 231/171/231 232/172/232 230/170/230
f 231/171/231 230/170/230 229/169/229
f 233/156/233 234/155/234 232/172/232
f 233/156/233 232/172/232 231/171/231
f 235/173/235 236/174/236 237/175/237
f 235/173/235 237/175/237 238/176/238
f 239/177/239 240/178/240 241/179/241
f 239/177/239 241/179/241 242/180/242
f 243/181/243 244/182/244 245/183/245
f 243/181/243 245/183/245 246/184/246
f 247/185/247 248/186/248 249/187/249
f 247/185/247 249/187/249 250/188/250
f 251/189/251 252/190/252 253/191/253
f 251/189/251 253/191/253 254/192/254
f 255/193/255 256/194/256 257/195/257
f 255/193/255 257/195/257 258/196/258
f 259/197/259 260/198/260 261/199/261
f 259/197/259 261/199/261 262/200/262
f 263/201/263 264/202/264 265/203/265
f 263/201/263 265/203/265 266/204/266
f 267/205/267 268/206/268 269/207/269
f 267/205/267 269/207/269 270/208/270
f 271/209/271 272/210/272 273/211/273
f 271/209/271 273/211/273 274/212/274
f 275/213/275 276/214/276 277/215/277
f 275/213/275 277/215/277 278/216/278
f 279/217/279 280/218/280 281/219/281
f 279/217/279 281/219/281 282/220/282
f 283/221/283 284/222/284 285/223/285
f 283/221/283 285/223/285 286/224/286
f 287/225/287 288/226/288 289/227/289
f 287/225/287 289/227/289 283/221/283
f 290/228/290 291/229/291 289/227/289
f 290/228/290 289/227/289 288/226/288
f 292/230/292 286/224/286 291/229/291
f 292/230/292 291/229/291 290/228/290
f 293/231/293 294/232/294 289/227/289
f 293/231/293 289/227/289 291/229/291
f 295/233/295 296/234/296 297/235/297
f 295/233/295 297/235/297 298/236/298
f 299/237/299 300/238/300 301/239/301
f 299/237/299 301/239/301 302/240/302
f 303/241/303 304/242/304 305/243/305
f 303/241/303 305/243/305 306/244/306
f 307/245/307 308/246/308 309/247/309
f 307/245/307 309/247/309 310/248/310
f 311/249/311 312/250/312 313/251/313
f 311/249/311 313/251/313 314/252/314
f 315/253/315 316/254/316 317/255/317
f 315/253/315 317/255/317 318/256/318
f 319/257/319 320/258/320 321/259/321
f 319/257/319 321/259/321 322/260/322
f 323/261/323 324/262/324 325/263/325
f 323/261/323 325/263/325 326/264/326
f 327/265/327 328/266/328 329/267/329
f 327/265/327 329/267/329 330/268/330
f 331/269/331 332/270/332 333/271/333
f 331/269/331 333/271/333 334/272/334
f 335/273/335 336/274/336 337/275/337
f 335/273/335 337/275/337 338/276/338
f 339/277/339 340/278/340 341/279/341
f 339/277/339 341/279/341 342/280/342
f 343/281/343 344/282/344 345/283/345
f 343/281/343 345/283/345 346/284/346
f 347/285/347 348/286/348 349/287/349
f 347/285/347 349/287/349 350/288/350
f 351/289/351 352/290/352 353/291/353
f 351/289/351 353/291/353 354/292/354
f 355/293/355 356/294/356 357/295/357
f 355/293/355 357/295/357 358/296/358
f 359/297/359 360/298/360 361/299/361
f 359/297/359 361/299/361 362/300/362
f 363/301/363 364/302/364 365/303/365
f 363/301/363 365/303/365 366/304/366
f 367/305/367 368/306/368 369/307/369
f 367/305/367 369/307/369 370/308/370
f 371/309/371 372/310/372 373/311/373
f 371/309/371 373/311/373 374/312/374
f 375/313/375 376/314/376 377/315/377
f 375/313/375 377/315/377 378/316/378
f 379/317/379 380/318/380 381/319/381
f 379/317/379 381/319/381 382/320/382
f 383/321/383 384/322/384 385/323/385
f 383/321/383 385/323/385 386/324/386
f 387/325/387 388/326/388 389/327/389
f 387/325/387 389/327/389 390/328/390
f 391/329/391 392/330/392 393/331/393
f 391/329/391 393/331/393 394/332/394
f 395/332/395 396/333/396 397/334/397
f 395/332/395 397/334/397 398/335/398
f 397/334/397 396/333/396 399/336/399
f 397/334/397 399/336/399 400/337/400
f 400/337/400 399/336/399 401/329/401
f 400/337/400 401/329/401 402/338/402
f 399/336/399 396/333/396 403/339/403
f 399/336/399 403/339/403 404/340/404
