mtllib GkeyyaleZ.mtl
v 5.0 13.0 40.0 1.000 1.000 1.000
v 5.0 -13.0 40.0 1.000 1.000 1.000
v 77.0 -13.0 40.0 1.000 1.000 1.000
v 77.0 13.0 40.0 1.000 1.000 1.000
v -10.0 -13.0 23.0 1.000 1.000 1.000
v 5.0 -13.0 40.0 1.000 1.000 1.000
v 5.0 13.0 40.0 1.000 1.000 1.000
v -10.0 13.0 23.0 1.000 1.000 1.000
v -10.0 13.0 23.0 1.000 1.000 1.000
v -66.0 13.0 23.0 1.000 1.000 1.000
v -66.0 -13.0 23.0 1.000 1.000 1.000
v -10.0 -13.0 23.0 1.000 1.000 1.000
v -71.0 13.0 29.0 1.000 1.000 1.000
v -71.0 -13.0 29.0 1.000 1.000 1.000
v -66.0 -13.0 23.0 1.000 1.000 1.000
v -66.0 13.0 23.0 1.000 1.000 1.000
v -102.0 13.0 29.0 1.000 1.000 1.000
v -102.0 -13.0 29.0 1.000 1.000 1.000
v -71.0 -13.0 29.0 1.000 1.000 1.000
v -71.0 13.0 29.0 1.000 1.000 1.000
v -107.0 13.0 34.0 1.000 1.000 1.000
v -107.0 -13.0 34.0 1.000 1.000 1.000
v -102.0 -13.0 29.0 1.000 1.000 1.000
v -102.0 13.0 29.0 1.000 1.000 1.000
v -138.0 13.0 34.0 1.000 1.000 1.000
v -138.0 -13.0 34.0 1.000 1.000 1.000
v -107.0 -13.0 34.0 1.000 1.000 1.000
v -107.0 13.0 34.0 1.000 1.000 1.000
v -148.0 13.0 23.0 1.000 1.000 1.000
v -148.0 -13.0 23.0 1.000 1.000 1.000
v -138.0 -13.0 34.0 1.000 1.000 1.000
v -138.0 13.0 34.0 1.000 1.000 1.000
v -225.0 13.0 23.0 1.000 1.000 1.000
v -225.0 -13.0 23.0 1.000 1.000 1.000
v -148.0 -13.0 23.0 1.000 1.000 1.000
v -148.0 13.0 23.0 1.000 1.000 1.000
v -235.0 13.0 34.0 1.000 1.000 1.000
v -235.0 -13.0 34.0 1.000 1.000 1.000
v -225.0 -13.0 23.0 1.000 1.000 1.000
v -225.0 13.0 23.0 1.000 1.000 1.000
v -306.0 13.0 34.0 1.000 1.000 1.000
v -306.0 -13.0 34.0 1.000 1.000 1.000
v -235.0 -13.0 34.0 1.000 1.000 1.000
v -235.0 13.0 34.0 1.000 1.000 1.000
v -322.0 13.0 18.0 1.000 1.000 1.000
v -322.0 -13.0 18.0 1.000 1.000 1.000
v -306.0 -13.0 34.0 1.000 1.000 1.000
v -306.0 13.0 34.0 1.000 1.000 1.000
v -388.0 13.0 18.0 1.000 1.000 1.000
v -388.0 -13.0 18.0 1.000 1.000 1.000
v -322.0 -13.0 18.0 1.000 1.000 1.000
v -322.0 13.0 18.0 1.000 1.000 1.000
v -403.0 13.0 1.0 1.000 1.000 1.000
v -403.0 -13.0 1.0 1.000 1.000 1.000
v -388.0 -13.0 18.0 1.000 1.000 1.000
v -388.0 13.0 18.0 1.000 1.000 1.000
v -414.0 4.0 -10.0 1.000 1.000 1.000
v -414.0 -4.0 -10.0 1.000 1.000 1.000
v -414.0 4.0 -21.0 1.000 1.000 1.000
v -414.0 -4.0 -21.0 1.000 1.000 1.000
v -414.0 -4.0 -10.0 1.000 1.000 1.000
v -414.0 4.0 -10.0 1.000 1.000 1.000
v -403.0 -13.0 -32.0 1.000 1.000 1.000
v -414.0 -4.0 -21.0 1.000 1.000 1.000
v -414.0 4.0 -21.0 1.000 1.000 1.000
v -403.0 13.0 -32.0 1.000 1.000 1.000
v -393.0 13.0 -43.0 1.000 1.000 1.000
v -393.0 -13.0 -43.0 1.000 1.000 1.000
v 77.0 13.0 -43.0 1.000 1.000 1.000
v 77.0 -13.0 -43.0 1.000 1.000 1.000
v -393.0 -13.0 -43.0 1.000 1.000 1.000
v -393.0 13.0 -43.0 1.000 1.000 1.000
v 72.0 13.0 1.0 1.000 1.000 1.000
v -30.0 13.0 1.0 1.000 1.000 1.000
v 5.0 13.0 40.0 1.000 1.000 1.000
v 77.0 13.0 40.0 1.000 1.000 1.000
v -46.0 13.0 1.0 1.000 1.000 1.000
v -66.0 13.0 23.0 1.000 1.000 1.000
v -10.0 13.0 23.0 1.000 1.000 1.000
v -30.0 13.0 1.0 1.000 1.000 1.000
v -76.0 13.0 1.0 1.000 1.000 1.000
v -102.0 13.0 29.0 1.000 1.000 1.000
v -71.0 13.0 29.0 1.000 1.000 1.000
v -168.0 13.0 1.0 1.000 1.000 1.000
v -138.0 13.0 34.0 1.000 1.000 1.000
v -107.0 13.0 34.0 1.000 1.000 1.000
v -204.0 13.0 1.0 1.000 1.000 1.000
v -225.0 13.0 23.0 1.000 1.000 1.000
v -148.0 13.0 23.0 1.000 1.000 1.000
v -337.0 13.0 1.0 1.000 1.000 1.000
v -306.0 13.0 34.0 1.000 1.000 1.000
v -235.0 13.0 34.0 1.000 1.000 1.000
v -403.0 13.0 1.0 1.000 1.000 1.000
v -388.0 13.0 18.0 1.000 1.000 1.000
v -322.0 13.0 18.0 1.000 1.000 1.000
v -337.0 13.0 1.0 1.000 1.000 1.000
v 77.0 4.0 -10.0 1.000 1.000 1.000
v -414.0 4.0 -10.0 1.000 1.000 1.000
v -403.0 13.0 1.0 1.000 1.000 1.000
v 72.0 13.0 1.0 1.000 1.000 1.000
v 77.0 4.0 -21.0 1.000 1.000 1.000
v -414.0 4.0 -21.0 1.000 1.000 1.000
v -414.0 4.0 -10.0 1.000 1.000 1.000
v 77.0 4.0 -10.0 1.000 1.000 1.000
v 77.0 13.0 -32.0 1.000 1.000 1.000
v -403.0 13.0 -32.0 1.000 1.000 1.000
v -414.0 4.0 -21.0 1.000 1.000 1.000
v 77.0 4.0 -21.0 1.000 1.000 1.000
v 77.0 13.0 -43.0 1.000 1.000 1.000
v -393.0 13.0 -43.0 1.000 1.000 1.000
v -403.0 13.0 -32.0 1.000 1.000 1.000
v 77.0 13.0 -32.0 1.000 1.000 1.000
v 77.0 -13.0 40.0 1.000 1.000 1.000
v 5.0 -13.0 40.0 1.000 1.000 1.000
v -30.0 -13.0 1.0 1.000 1.000 1.000
v 72.0 -13.0 1.0 1.000 1.000 1.000
v -10.0 -13.0 23.0 1.000 1.000 1.000
v -66.0 -13.0 23.0 1.000 1.000 1.000
v -46.0 -13.0 1.0 1.000 1.000 1.000
v -71.0 -13.0 29.0 1.000 1.000 1.000
v -102.0 -13.0 29.0 1.000 1.000 1.000
v -76.0 -13.0 1.0 1.000 1.000 1.000
v -107.0 -13.0 34.0 1.000 1.000 1.000
v -138.0 -13.0 34.0 1.000 1.000 1.000
v -76.0 -13.0 1.0 1.000 1.000 1.000
v -138.0 -13.0 34.0 1.000 1.000 1.000
v -168.0 -13.0 1.0 1.000 1.000 1.000
v -148.0 -13.0 23.0 1.000 1.000 1.000
v -225.0 -13.0 23.0 1.000 1.000 1.000
v -204.0 -13.0 1.0 1.000 1.000 1.000
v -235.0 -13.0 34.0 1.000 1.000 1.000
v -306.0 -13.0 34.0 1.000 1.000 1.000
v -337.0 -13.0 1.0 1.000 1.000 1.000
v -322.0 -13.0 18.0 1.000 1.000 1.000
v -388.0 -13.0 18.0 1.000 1.000 1.000
v -403.0 -13.0 1.0 1.000 1.000 1.000
v 72.0 -13.0 1.0 1.000 1.000 1.000
v -403.0 -13.0 1.0 1.000 1.000 1.000
v -414.0 -4.0 -10.0 1.000 1.000 1.000
v 77.0 -4.0 -10.0 1.000 1.000 1.000
v 77.0 -4.0 -10.0 1.000 1.000 1.000
v -414.0 -4.0 -10.0 1.000 1.000 1.000
v -414.0 -4.0 -21.0 1.000 1.000 1.000
v 77.0 -4.0 -21.0 1.000 1.000 1.000
v 77.0 -4.0 -21.0 1.000 1.000 1.000
v -414.0 -4.0 -21.0 1.000 1.000 1.000
v -403.0 -13.0 -32.0 1.000 1.000 1.000
v 77.0 -13.0 -32.0 1.000 1.000 1.000
v 77.0 -13.0 -32.0 1.000 1.000 1.000
v -403.0 -13.0 -32.0 1.000 1.000 1.000
v -393.0 -13.0 -43.0 1.000 1.000 1.000
v 77.0 -13.0 -43.0 1.000 1.000 1.000
v 371.0 13.0 30.0 1.000 1.000 1.000
v 388.0 13.0 0.0 1.000 1.000 1.000
v 383.0 13.0 -37.0 1.000 1.000 1.000
v 371.0 13.0 -30.0 1.000 1.000 1.000
v 383.0 13.0 37.0 1.000 1.000 1.000
v 388.0 13.0 0.0 1.000 1.000 1.000
v 371.0 13.0 30.0 1.000 1.000 1.000
v 369.0 13.0 72.0 1.000 1.000 1.000
v 333.0 13.0 30.0 1.000 1.000 1.000
v 369.0 13.0 -72.0 1.000 1.000 1.000
v 333.0 13.0 -30.0 1.000 1.000 1.000
v 371.0 13.0 -30.0 1.000 1.000 1.000
v 383.0 13.0 -37.0 1.000 1.000 1.000
v 346.0 13.0 -102.0 1.000 1.000 1.000
v 316.0 13.0 -125.0 1.000 1.000 1.000
v 316.0 13.0 125.0 1.000 1.000 1.000
v 346.0 13.0 102.0 1.000 1.000 1.000
v 281.0 13.0 -140.0 1.000 1.000 1.000
v 281.0 13.0 140.0 1.000 1.000 1.000
v 243.0 13.0 -145.0 1.000 1.000 1.000
v 243.0 13.0 145.0 1.000 1.000 1.000
v 281.0 13.0 140.0 1.000 1.000 1.000
v 281.0 13.0 -140.0 1.000 1.000 1.000
v 206.0 13.0 -140.0 1.000 1.000 1.000
v 206.0 13.0 140.0 1.000 1.000 1.000
v 171.0 13.0 -125.0 1.000 1.000 1.000
v 171.0 13.0 125.0 1.000 1.000 1.000
v 141.0 13.0 -102.0 1.000 1.000 1.000
v 141.0 13.0 102.0 1.000 1.000 1.000
v 118.0 13.0 -72.0 1.000 1.000 1.000
v 118.0 13.0 72.0 1.000 1.000 1.000
v 103.0 13.0 -37.0 1.000 1.000 1.000
v 103.0 13.0 37.0 1.000 1.000 1.000
v 98.0 13.0 0.0 1.000 1.000 1.000
v 243.0 17.0 -166.0 1.000 1.000 1.000
v 200.0 17.0 -160.0 1.000 1.000 1.000
v 206.0 13.0 -140.0 1.000 1.000 1.000
v 243.0 13.0 -145.0 1.000 1.000 1.000
v 160.0 17.0 -144.0 1.000 1.000 1.000
v 171.0 13.0 -125.0 1.000 1.000 1.000
v 126.0 17.0 -117.0 1.000 1.000 1.000
v 141.0 13.0 -102.0 1.000 1.000 1.000
v 99.0 17.0 -83.0 1.000 1.000 1.000
v 118.0 13.0 -72.0 1.000 1.000 1.000
v 83.0 17.0 -43.0 1.000 1.000 1.000
v 103.0 13.0 -37.0 1.000 1.000 1.000
v 77.0 17.0 0.0 1.000 1.000 1.000
v 98.0 13.0 0.0 1.000 1.000 1.000
v 83.0 17.0 43.0 1.000 1.000 1.000
v 103.0 13.0 37.0 1.000 1.000 1.000
v 83.0 17.0 43.0 1.000 1.000 1.000
v 99.0 17.0 83.0 1.000 1.000 1.000
v 118.0 13.0 72.0 1.000 1.000 1.000
v 103.0 13.0 37.0 1.000 1.000 1.000
v 126.0 17.0 117.0 1.000 1.000 1.000
v 141.0 13.0 102.0 1.000 1.000 1.000
v 160.0 17.0 144.0 1.000 1.000 1.000
v 171.0 13.0 125.0 1.000 1.000 1.000
v 200.0 17.0 160.0 1.000 1.000 1.000
v 206.0 13.0 140.0 1.000 1.000 1.000
v 243.0 17.0 166.0 1.000 1.000 1.000
v 243.0 13.0 145.0 1.000 1.000 1.000
v 286.0 17.0 160.0 1.000 1.000 1.000
v 281.0 13.0 140.0 1.000 1.000 1.000
v 326.0 17.0 144.0 1.000 1.000 1.000
v 316.0 13.0 125.0 1.000 1.000 1.000
v 326.0 17.0 144.0 1.000 1.000 1.000
v 361.0 17.0 117.0 1.000 1.000 1.000
v 346.0 13.0 102.0 1.000 1.000 1.000
v 316.0 13.0 125.0 1.000 1.000 1.000
v 387.0 17.0 83.0 1.000 1.000 1.000
v 369.0 13.0 72.0 1.000 1.000 1.000
v 404.0 17.0 43.0 1.000 1.000 1.000
v 383.0 13.0 37.0 1.000 1.000 1.000
v 409.0 17.0 0.0 1.000 1.000 1.000
v 388.0 13.0 0.0 1.000 1.000 1.000
v 404.0 17.0 -43.0 1.000 1.000 1.000
v 383.0 13.0 -37.0 1.000 1.000 1.000
v 387.0 17.0 -83.0 1.000 1.000 1.000
v 369.0 13.0 -72.0 1.000 1.000 1.000
v 361.0 17.0 -117.0 1.000 1.000 1.000
v 346.0 13.0 -102.0 1.000 1.000 1.000
v 361.0 17.0 -117.0 1.000 1.000 1.000
v 326.0 17.0 -144.0 1.000 1.000 1.000
v 316.0 13.0 -125.0 1.000 1.000 1.000
v 346.0 13.0 -102.0 1.000 1.000 1.000
v 286.0 17.0 -160.0 1.000 1.000 1.000
v 281.0 13.0 -140.0 1.000 1.000 1.000
v 243.0 17.0 -166.0 1.000 1.000 1.000
v 243.0 13.0 -145.0 1.000 1.000 1.000
v 243.0 13.0 -170.0 1.000 1.000 1.000
v 199.0 13.0 -165.0 1.000 1.000 1.000
v 200.0 17.0 -160.0 1.000 1.000 1.000
v 243.0 17.0 -166.0 1.000 1.000 1.000
v 158.0 13.0 -148.0 1.000 1.000 1.000
v 160.0 17.0 -144.0 1.000 1.000 1.000
v 123.0 13.0 -120.0 1.000 1.000 1.000
v 126.0 17.0 -117.0 1.000 1.000 1.000
v 123.0 13.0 -120.0 1.000 1.000 1.000
v 96.0 13.0 -85.0 1.000 1.000 1.000
v 99.0 17.0 -83.0 1.000 1.000 1.000
v 126.0 17.0 -117.0 1.000 1.000 1.000
v 79.0 13.0 -44.0 1.000 1.000 1.000
v 83.0 17.0 -43.0 1.000 1.000 1.000
v 73.0 13.0 0.0 1.000 1.000 1.000
v 77.0 17.0 0.0 1.000 1.000 1.000
v 79.0 13.0 44.0 1.000 1.000 1.000
v 83.0 17.0 43.0 1.000 1.000 1.000
v 96.0 13.0 85.0 1.000 1.000 1.000
v 99.0 17.0 83.0 1.000 1.000 1.000
v 123.0 13.0 120.0 1.000 1.000 1.000
v 126.0 17.0 117.0 1.000 1.000 1.000
v 158.0 13.0 148.0 1.000 1.000 1.000
v 160.0 17.0 144.0 1.000 1.000 1.000
v 158.0 13.0 148.0 1.000 1.000 1.000
v 199.0 13.0 165.0 1.000 1.000 1.000
v 200.0 17.0 160.0 1.000 1.000 1.000
v 160.0 17.0 144.0 1.000 1.000 1.000
v 243.0 13.0 170.0 1.000 1.000 1.000
v 243.0 17.0 166.0 1.000 1.000 1.000
v 287.0 13.0 165.0 1.000 1.000 1.000
v 286.0 17.0 160.0 1.000 1.000 1.000
v 328.0 13.0 148.0 1.000 1.000 1.000
v 326.0 17.0 144.0 1.000 1.000 1.000
v 364.0 13.0 120.0 1.000 1.000 1.000
v 361.0 17.0 117.0 1.000 1.000 1.000
v 391.0 13.0 85.0 1.000 1.000 1.000
v 387.0 17.0 83.0 1.000 1.000 1.000
v 408.0 13.0 44.0 1.000 1.000 1.000
v 404.0 17.0 43.0 1.000 1.000 1.000
v 408.0 13.0 44.0 1.000 1.000 1.000
v 414.0 13.0 0.0 1.000 1.000 1.000
v 409.0 17.0 0.0 1.000 1.000 1.000
v 404.0 17.0 43.0 1.000 1.000 1.000
v 408.0 13.0 -44.0 1.000 1.000 1.000
v 404.0 17.0 -43.0 1.000 1.000 1.000
v 391.0 13.0 -85.0 1.000 1.000 1.000
v 387.0 17.0 -83.0 1.000 1.000 1.000
v 364.0 13.0 -120.0 1.000 1.000 1.000
v 361.0 17.0 -117.0 1.000 1.000 1.000
v 328.0 13.0 -148.0 1.000 1.000 1.000
v 326.0 17.0 -144.0 1.000 1.000 1.000
v 287.0 13.0 -165.0 1.000 1.000 1.000
v 286.0 17.0 -160.0 1.000 1.000 1.000
v 243.0 13.0 -170.0 1.000 1.000 1.000
v 243.0 17.0 -166.0 1.000 1.000 1.000
v 96.0 -13.0 85.0 1.000 1.000 1.000
v 123.0 -13.0 120.0 1.000 1.000 1.000
v 123.0 13.0 120.0 1.000 1.000 1.000
v 96.0 13.0 85.0 1.000 1.000 1.000
v 158.0 -13.0 148.0 1.000 1.000 1.000
v 158.0 13.0 148.0 1.000 1.000 1.000
v 199.0 -13.0 165.0 1.000 1.000 1.000
v 199.0 13.0 165.0 1.000 1.000 1.000
v 243.0 -13.0 170.0 1.000 1.000 1.000
v 243.0 13.0 170.0 1.000 1.000 1.000
v 287.0 -13.0 165.0 1.000 1.000 1.000
v 287.0 13.0 165.0 1.000 1.000 1.000
v 328.0 -13.0 148.0 1.000 1.000 1.000
v 328.0 13.0 148.0 1.000 1.000 1.000
v 364.0 -13.0 120.0 1.000 1.000 1.000
v 364.0 13.0 120.0 1.000 1.000 1.000
v 364.0 -13.0 120.0 1.000 1.000 1.000
v 391.0 -13.0 85.0 1.000 1.000 1.000
v 391.0 13.0 85.0 1.000 1.000 1.000
v 364.0 13.0 120.0 1.000 1.000 1.000
v 408.0 -13.0 44.0 1.000 1.000 1.000
v 408.0 13.0 44.0 1.000 1.000 1.000
v 414.0 -13.0 0.0 1.000 1.000 1.000
v 414.0 13.0 0.0 1.000 1.000 1.000
v 408.0 -13.0 -44.0 1.000 1.000 1.000
v 408.0 13.0 -44.0 1.000 1.000 1.000
v 391.0 -13.0 -85.0 1.000 1.000 1.000
v 391.0 13.0 -85.0 1.000 1.000 1.000
v 364.0 -13.0 -120.0 1.000 1.000 1.000
v 364.0 13.0 -120.0 1.000 1.000 1.000
v 328.0 -13.0 -148.0 1.000 1.000 1.000
v 328.0 13.0 -148.0 1.000 1.000 1.000
v 328.0 -13.0 -148.0 1.000 1.000 1.000
v 287.0 -13.0 -165.0 1.000 1.000 1.000
v 287.0 13.0 -165.0 1.000 1.000 1.000
v 328.0 13.0 -148.0 1.000 1.000 1.000
v 243.0 -13.0 -170.0 1.000 1.000 1.000
v 243.0 13.0 -170.0 1.000 1.000 1.000
v 199.0 -13.0 -165.0 1.000 1.000 1.000
v 199.0 13.0 -165.0 1.000 1.000 1.000
v 158.0 -13.0 -148.0 1.000 1.000 1.000
v 158.0 13.0 -148.0 1.000 1.000 1.000
v 123.0 -13.0 -120.0 1.000 1.000 1.000
v 123.0 13.0 -120.0 1.000 1.000 1.000
v 96.0 -13.0 -85.0 1.000 1.000 1.000
v 96.0 13.0 -85.0 1.000 1.000 1.000
v 79.0 -13.0 -44.0 1.000 1.000 1.000
v 79.0 13.0 -44.0 1.000 1.000 1.000
v 79.0 -13.0 -44.0 1.000 1.000 1.000
v 73.0 -13.0 0.0 1.000 1.000 1.000
v 73.0 13.0 0.0 1.000 1.000 1.000
v 79.0 13.0 -44.0 1.000 1.000 1.000
v 367.0 9.0 26.0 1.000 1.000 1.000
v 371.0 13.0 30.0 1.000 1.000 1.000
v 371.0 13.0 -30.0 1.000 1.000 1.000
v 367.0 9.0 -26.0 1.000 1.000 1.000
v 337.0 9.0 26.0 1.000 1.000 1.000
v 333.0 13.0 30.0 1.000 1.000 1.000
v 371.0 13.0 30.0 1.000 1.000 1.000
v 367.0 9.0 26.0 1.000 1.000 1.000
v 337.0 9.0 -26.0 1.000 1.000 1.000
v 333.0 13.0 -30.0 1.000 1.000 1.000
v 333.0 13.0 30.0 1.000 1.000 1.000
v 337.0 9.0 26.0 1.000 1.000 1.000
v 367.0 9.0 -26.0 1.000 1.000 1.000
v 371.0 13.0 -30.0 1.000 1.000 1.000
v 333.0 13.0 -30.0 1.000 1.000 1.000
v 337.0 9.0 -26.0 1.000 1.000 1.000
v 371.0 -13.0 -30.0 1.000 1.000 1.000
v 388.0 -13.0 0.0 1.000 1.000 1.000
v 383.0 -13.0 37.0 1.000 1.000 1.000
v 371.0 -13.0 30.0 1.000 1.000 1.000
v 383.0 -13.0 -37.0 1.000 1.000 1.000
v 369.0 -13.0 -72.0 1.000 1.000 1.000
v 333.0 -13.0 -30.0 1.000 1.000 1.000
v 369.0 -13.0 72.0 1.000 1.000 1.000
v 333.0 -13.0 30.0 1.000 1.000 1.000
v 346.0 -13.0 102.0 1.000 1.000 1.000
v 316.0 -13.0 125.0 1.000 1.000 1.000
v 316.0 -13.0 -125.0 1.000 1.000 1.000
v 346.0 -13.0 -102.0 1.000 1.000 1.000
v 369.0 -13.0 -72.0 1.000 1.000 1.000
v 333.0 -13.0 -30.0 1.000 1.000 1.000
v 333.0 -13.0 30.0 1.000 1.000 1.000
v 316.0 -13.0 125.0 1.000 1.000 1.000
v 281.0 -13.0 140.0 1.000 1.000 1.000
v 281.0 -13.0 -140.0 1.000 1.000 1.000
v 243.0 -13.0 145.0 1.000 1.000 1.000
v 243.0 -13.0 -145.0 1.000 1.000 1.000
v 206.0 -13.0 140.0 1.000 1.000 1.000
v 206.0 -13.0 -140.0 1.000 1.000 1.000
v 171.0 -13.0 125.0 1.000 1.000 1.000
v 171.0 -13.0 -125.0 1.000 1.000 1.000
v 141.0 -13.0 102.0 1.000 1.000 1.000
v 141.0 -13.0 -102.0 1.000 1.000 1.000
v 118.0 -13.0 72.0 1.000 1.000 1.000
v 118.0 -13.0 -72.0 1.000 1.000 1.000
v 141.0 -13.0 -102.0 1.000 1.000 1.000
v 141.0 -13.0 102.0 1.000 1.000 1.000
v 103.0 -13.0 37.0 1.000 1.000 1.000
v 103.0 -13.0 -37.0 1.000 1.000 1.000
v 98.0 -13.0 0.0 1.000 1.000 1.000
v 243.0 -17.0 166.0 1.000 1.000 1.000
v 200.0 -17.0 160.0 1.000 1.000 1.000
v 206.0 -13.0 140.0 1.000 1.000 1.000
v 243.0 -13.0 145.0 1.000 1.000 1.000
v 160.0 -17.0 144.0 1.000 1.000 1.000
v 171.0 -13.0 125.0 1.000 1.000 1.000
v 126.0 -17.0 117.0 1.000 1.000 1.000
v 141.0 -13.0 102.0 1.000 1.000 1.000
v 126.0 -17.0 117.0 1.000 1.000 1.000
v 99.0 -17.0 83.0 1.000 1.000 1.000
v 118.0 -13.0 72.0 1.000 1.000 1.000
v 141.0 -13.0 102.0 1.000 1.000 1.000
v 83.0 -17.0 43.0 1.000 1.000 1.000
v 103.0 -13.0 37.0 1.000 1.000 1.000
v 77.0 -17.0 0.0 1.000 1.000 1.000
v 98.0 -13.0 0.0 1.000 1.000 1.000
v 83.0 -17.0 -43.0 1.000 1.000 1.000
v 103.0 -13.0 -37.0 1.000 1.000 1.000
v 99.0 -17.0 -83.0 1.000 1.000 1.000
v 118.0 -13.0 -72.0 1.000 1.000 1.000
v 126.0 -17.0 -117.0 1.000 1.000 1.000
v 141.0 -13.0 -102.0 1.000 1.000 1.000
v 160.0 -17.0 -144.0 1.000 1.000 1.000
v 171.0 -13.0 -125.0 1.000 1.000 1.000
v 160.0 -17.0 -144.0 1.000 1.000 1.000
v 200.0 -17.0 -160.0 1.000 1.000 1.000
v 206.0 -13.0 -140.0 1.000 1.000 1.000
v 171.0 -13.0 -125.0 1.000 1.000 1.000
v 243.0 -17.0 -166.0 1.000 1.000 1.000
v 243.0 -13.0 -145.0 1.000 1.000 1.000
v 286.0 -17.0 -160.0 1.000 1.000 1.000
v 281.0 -13.0 -140.0 1.000 1.000 1.000
v 326.0 -17.0 -144.0 1.000 1.000 1.000
v 316.0 -13.0 -125.0 1.000 1.000 1.000
v 361.0 -17.0 -117.0 1.000 1.000 1.000
v 346.0 -13.0 -102.0 1.000 1.000 1.000
v 387.0 -17.0 -83.0 1.000 1.000 1.000
v 369.0 -13.0 -72.0 1.000 1.000 1.000
v 404.0 -17.0 -43.0 1.000 1.000 1.000
v 383.0 -13.0 -37.0 1.000 1.000 1.000
v 404.0 -17.0 -43.0 1.000 1.000 1.000
v 409.0 -17.0 0.0 1.000 1.000 1.000
v 388.0 -13.0 0.0 1.000 1.000 1.000
v 383.0 -13.0 -37.0 1.000 1.000 1.000
v 404.0 -17.0 43.0 1.000 1.000 1.000
v 383.0 -13.0 37.0 1.000 1.000 1.000
v 387.0 -17.0 83.0 1.000 1.000 1.000
v 369.0 -13.0 72.0 1.000 1.000 1.000
v 361.0 -17.0 117.0 1.000 1.000 1.000
v 346.0 -13.0 102.0 1.000 1.000 1.000
v 326.0 -17.0 144.0 1.000 1.000 1.000
v 316.0 -13.0 125.0 1.000 1.000 1.000
v 286.0 -17.0 160.0 1.000 1.000 1.000
v 281.0 -13.0 140.0 1.000 1.000 1.000
v 243.0 -17.0 166.0 1.000 1.000 1.000
v 243.0 -13.0 145.0 1.000 1.000 1.000
v 243.0 -13.0 170.0 1.000 1.000 1.000
v 199.0 -13.0 165.0 1.000 1.000 1.000
v 200.0 -17.0 160.0 1.000 1.000 1.000
v 243.0 -17.0 166.0 1.000 1.000 1.000
v 158.0 -13.0 148.0 1.000 1.000 1.000
v 160.0 -17.0 144.0 1.000 1.000 1.000
v 123.0 -13.0 120.0 1.000 1.000 1.000
v 126.0 -17.0 117.0 1.000 1.000 1.000
v 96.0 -13.0 85.0 1.000 1.000 1.000
v 99.0 -17.0 83.0 1.000 1.000 1.000
v 79.0 -13.0 44.0 1.000 1.000 1.000
v 83.0 -17.0 43.0 1.000 1.000 1.000
v 73.0 -13.0 0.0 1.000 1.000 1.000
v 77.0 -17.0 0.0 1.000 1.000 1.000
v 79.0 -13.0 -44.0 1.000 1.000 1.000
v 83.0 -17.0 -43.0 1.000 1.000 1.000
v 79.0 -13.0 -44.0 1.000 1.000 1.000
v 96.0 -13.0 -85.0 1.000 1.000 1.000
v 99.0 -17.0 -83.0 1.000 1.000 1.000
v 83.0 -17.0 -43.0 1.000 1.000 1.000
v 123.0 -13.0 -120.0 1.000 1.000 1.000
v 126.0 -17.0 -117.0 1.000 1.000 1.000
v 158.0 -13.0 -148.0 1.000 1.000 1.000
v 160.0 -17.0 -144.0 1.000 1.000 1.000
v 199.0 -13.0 -165.0 1.000 1.000 1.000
v 200.0 -17.0 -160.0 1.000 1.000 1.000
v 243.0 -13.0 -170.0 1.000 1.000 1.000
v 243.0 -17.0 -166.0 1.000 1.000 1.000
v 287.0 -13.0 -165.0 1.000 1.000 1.000
v 286.0 -17.0 -160.0 1.000 1.000 1.000
v 328.0 -13.0 -148.0 1.000 1.000 1.000
v 326.0 -17.0 -144.0 1.000 1.000 1.000
v 328.0 -13.0 -148.0 1.000 1.000 1.000
v 364.0 -13.0 -120.0 1.000 1.000 1.000
v 361.0 -17.0 -117.0 1.000 1.000 1.000
v 326.0 -17.0 -144.0 1.000 1.000 1.000
v 391.0 -13.0 -85.0 1.000 1.000 1.000
v 387.0 -17.0 -83.0 1.000 1.000 1.000
v 408.0 -13.0 -44.0 1.000 1.000 1.000
v 404.0 -17.0 -43.0 1.000 1.000 1.000
v 414.0 -13.0 0.0 1.000 1.000 1.000
v 409.0 -17.0 0.0 1.000 1.000 1.000
v 408.0 -13.0 44.0 1.000 1.000 1.000
v 404.0 -17.0 43.0 1.000 1.000 1.000
v 391.0 -13.0 85.0 1.000 1.000 1.000
v 387.0 -17.0 83.0 1.000 1.000 1.000
v 364.0 -13.0 120.0 1.000 1.000 1.000
v 361.0 -17.0 117.0 1.000 1.000 1.000
v 364.0 -13.0 120.0 1.000 1.000 1.000
v 328.0 -13.0 148.0 1.000 1.000 1.000
v 326.0 -17.0 144.0 1.000 1.000 1.000
v 361.0 -17.0 117.0 1.000 1.000 1.000
v 287.0 -13.0 165.0 1.000 1.000 1.000
v 286.0 -17.0 160.0 1.000 1.000 1.000
v 243.0 -13.0 170.0 1.000 1.000 1.000
v 243.0 -17.0 166.0 1.000 1.000 1.000
v 79.0 13.0 44.0 1.000 1.000 1.000
v 73.0 13.0 0.0 1.000 1.000 1.000
v 73.0 -13.0 0.0 1.000 1.000 1.000
v 79.0 -13.0 44.0 1.000 1.000 1.000
v 96.0 13.0 85.0 1.000 1.000 1.000
v 96.0 -13.0 85.0 1.000 1.000 1.000
v 367.0 -9.0 -26.0 1.000 1.000 1.000
v 371.0 -13.0 -30.0 1.000 1.000 1.000
v 371.0 -13.0 30.0 1.000 1.000 1.000
v 367.0 -9.0 26.0 1.000 1.000 1.000
v 337.0 -9.0 -26.0 1.000 1.000 1.000
v 333.0 -13.0 -30.0 1.000 1.000 1.000
v 371.0 -13.0 -30.0 1.000 1.000 1.000
v 367.0 -9.0 -26.0 1.000 1.000 1.000
v 337.0 -9.0 26.0 1.000 1.000 1.000
v 333.0 -13.0 30.0 1.000 1.000 1.000
v 333.0 -13.0 -30.0 1.000 1.000 1.000
v 337.0 -9.0 -26.0 1.000 1.000 1.000
v 367.0 -9.0 26.0 1.000 1.000 1.000
v 371.0 -13.0 30.0 1.000 1.000 1.000
v 333.0 -13.0 30.0 1.000 1.000 1.000
v 337.0 -9.0 26.0 1.000 1.000 1.000
v 367.0 9.0 26.0 1.000 1.000 1.000
v 367.0 9.0 -26.0 1.000 1.000 1.000
v 367.0 -9.0 -26.0 1.000 1.000 1.000
v 367.0 -9.0 26.0 1.000 1.000 1.000
v 367.0 9.0 -26.0 1.000 1.000 1.000
v 337.0 9.0 -26.0 1.000 1.000 1.000
v 337.0 -9.0 -26.0 1.000 1.000 1.000
v 367.0 -9.0 -26.0 1.000 1.000 1.000
v 367.0 -9.0 26.0 1.000 1.000 1.000
v 337.0 -9.0 26.0 1.000 1.000 1.000
v 337.0 9.0 26.0 1.000 1.000 1.000
v 367.0 9.0 26.0 1.000 1.000 1.000
v 337.0 -9.0 26.0 1.000 1.000 1.000
v 337.0 -9.0 -26.0 1.000 1.000 1.000
v 337.0 9.0 -26.0 1.000 1.000 1.000
v 337.0 9.0 26.0 1.000 1.000 1.000
vt 0.4050 0.4960
vt 0.4050 0.5040
vt 0.4409 0.5039
vt 0.4409 0.4961
vt 0.1162 0.5040
vt 0.1235 0.5040
vt 0.1235 0.4960
vt 0.1162 0.4960
vt 0.3974 0.4961
vt 0.3694 0.4960
vt 0.3694 0.5040
vt 0.3974 0.5039
vt 0.7252 0.4921
vt 0.7252 0.5079
vt 0.7299 0.5079
vt 0.7299 0.4921
vt 0.3538 0.4960
vt 0.3538 0.5040
vt 0.7027 0.4921
vt 0.7027 0.5079
vt 0.7093 0.5079
vt 0.7093 0.4921
vt 0.3383 0.4961
vt 0.3383 0.5039
vt 0.0939 0.4961
vt 0.0939 0.5039
vt 0.0972 0.5039
vt 0.0972 0.4961
vt 0.3021 0.4960
vt 0.3021 0.5040
vt 0.3336 0.5040
vt 0.3336 0.4960
vt 0.6268 0.4921
vt 0.6268 0.5079
vt 0.6342 0.5079
vt 0.6342 0.4921
vt 0.2701 0.4960
vt 0.2701 0.5040
vt 0.2988 0.5039
vt 0.2988 0.4961
vt 0.0716 0.4960
vt 0.0716 0.5040
vt 0.0762 0.5040
vt 0.0762 0.4960
vt 0.2393 0.4960
vt 0.2393 0.5040
vt 0.2622 0.5040
vt 0.2622 0.4960
vt 0.0618 0.4961
vt 0.0618 0.5039
vt 0.0644 0.5040
vt 0.0644 0.4960
vt 0.0576 0.5000
vt 0.0001 0.5000
vt 0.0000 0.5000
vt 0.0671 0.5040
vt 0.0644 0.5000
vt 0.0671 0.4960
vt 0.0688 0.4960
vt 0.0688 0.5040
vt 0.2468 0.5040
vt 0.2468 0.4960
vt 0.4210 0.0063
vt 0.3538 0.0219
vt 0.3770 0.0159
vt 0.4211 0.0068
vt 0.3455 0.0245
vt 0.3336 0.0286
vt 0.3695 0.0175
vt 0.3301 0.0298
vt 0.3137 0.0363
vt 0.3302 0.0300
vt 0.2780 0.0520
vt 0.2942 0.0448
vt 0.3104 0.0378
vt 0.2622 0.0601
vt 0.2546 0.0645
vt 0.2908 0.0460
vt 0.2083 0.0939
vt 0.2182 0.0873
vt 0.2499 0.0673
vt 0.1838 0.1127
vt 0.1906 0.1073
vt 0.2154 0.0890
vt 0.4329 0.2002
vt 0.2105 0.2541
vt 0.2113 0.2469
vt 0.4285 0.1943
vt 0.4210 0.0065
vt 0.1796 0.1163
vt 0.1795 0.1162
vt 0.4287 0.1832
vt 0.2055 0.2413
vt 0.2032 0.2467
vt 0.4323 0.1896
vt 0.4211 0.0070
vt 0.1885 0.1096
vt 0.1864 0.1109
vt 0.4211 0.0067
vt 0.4211 0.9932
vt 0.3770 0.9841
vt 0.3538 0.9781
vt 0.4210 0.9937
vt 0.3695 0.9825
vt 0.3336 0.9714
vt 0.3455 0.9755
vt 0.3302 0.9700
vt 0.3137 0.9637
vt 0.3301 0.9702
vt 0.3104 0.9622
vt 0.2942 0.9552
vt 0.2780 0.9480
vt 0.2908 0.9540
vt 0.2546 0.9355
vt 0.2622 0.9399
vt 0.2499 0.9327
vt 0.2182 0.9127
vt 0.2083 0.9061
vt 0.2154 0.9110
vt 0.1906 0.8927
vt 0.1838 0.8873
vt 0.4285 0.8057
vt 0.2113 0.7531
vt 0.2105 0.7459
vt 0.4329 0.7998
vt 0.1795 0.8838
vt 0.1796 0.8837
vt 0.4210 0.9935
vt 0.4323 0.8104
vt 0.2032 0.7533
vt 0.2055 0.7587
vt 0.4287 0.8168
vt 0.4211 0.9933
vt 0.1864 0.8891
vt 0.1885 0.8904
vt 0.4211 0.9930
vt 0.6268 0.0166
vt 0.5912 0.0084
vt 0.5912 0.0085
vt 0.6268 0.0167
vt 0.5872 0.0082
vt 0.6026 0.0109
vt 0.6025 0.0110
vt 0.5673 0.0051
vt 0.5714 0.0078
vt 0.5715 0.0074
vt 0.5673 0.0049
vt 0.5554 0.0054
vt 0.5554 0.0050
vt 0.5436 0.0042
vt 0.5315 0.0032
vt 0.5198 0.0023
vt 0.5198 0.0020
vt 0.5079 0.0013
vt 0.5079 0.0011
vt 0.5000 0.0006
vt 0.5000 0.0001
vt 0.5119 0.0001
vt 0.5435 0.0021
vt 0.5395 0.0018
vt 0.5435 0.0019
vt 0.5356 0.0014
vt 0.5317 0.0011
vt 0.5277 0.0008
vt 0.5317 0.0010
vt 0.5395 0.0017
vt 0.5435 0.0020
vt 0.5474 0.0024
vt 0.5513 0.0028
vt 0.5474 0.0023
vt 0.5552 0.0031
vt 0.5591 0.0035
vt 0.5591 0.0036
vt 0.5552 0.0032
vt 0.5474 0.0025
vt 0.5356 0.1957
vt 0.4366 0.1911
vt 0.4370 0.1887
vt 0.5358 0.1938
vt 0.3371 0.1862
vt 0.3379 0.1838
vt 0.2498 0.1822
vt 0.2499 0.1784
vt 0.1791 0.1791
vt 0.1821 0.1741
vt 0.1354 0.1750
vt 0.1198 0.1753
vt 0.1235 0.1710
vt 0.1373 0.1728
vt 0.1781 0.1781
vt 0.4366 0.1868
vt 0.6382 0.1998
vt 0.6391 0.1980
vt 0.7300 0.2065
vt 0.7301 0.2024
vt 0.8054 0.2065
vt 0.8636 0.2115
vt 0.8601 0.2072
vt 0.8997 0.2150
vt 0.8965 0.2106
vt 0.9111 0.2154
vt 0.9079 0.2109
vt 0.8983 0.2132
vt 0.8055 0.2104
vt 0.6389 0.2024
vt 0.1668 0.5040
vt 0.1668 0.4960
vt 0.2827 0.5040
vt 0.2827 0.4960
vt 0.4088 0.5040
vt 0.4088 0.4960
vt 0.5356 0.5040
vt 0.5356 0.4960
vt 0.6629 0.5040
vt 0.6629 0.4960
vt 0.7773 0.5040
vt 0.7773 0.4960
vt 0.8708 0.5039
vt 0.8708 0.4961
vt 0.9424 0.5039
vt 0.9424 0.4961
vt 0.9857 0.5039
vt 0.9857 0.4961
vt 1.0000 0.5040
vt 1.0000 0.4960
vt 0.6617 0.5039
vt 0.6617 0.4961
vt 0.0197 0.5040
vt 0.0197 0.4960
vt 0.0000 0.5040
vt 0.0000 0.4960
vt 0.2395 0.0737
vt 0.2424 0.0719
vt 0.2425 0.0721
vt 0.6109 0.1436
vt 0.6065 0.1410
vt 0.6308 0.1433
vt 0.6272 0.1464
vt 0.8961 0.1950
vt 0.8925 0.1907
vt 0.6071 0.1392
vt 0.6268 0.9833
vt 0.5912 0.9916
vt 0.5912 0.9915
vt 0.6268 0.9834
vt 0.5872 0.9918
vt 0.6025 0.9890
vt 0.6026 0.9891
vt 0.5673 0.9951
vt 0.5715 0.9926
vt 0.5714 0.9922
vt 0.5673 0.9949
vt 0.5554 0.9950
vt 0.5554 0.9946
vt 0.5436 0.9958
vt 0.5315 0.9968
vt 0.5198 0.9980
vt 0.5198 0.9977
vt 0.5079 0.9989
vt 0.5079 0.9987
vt 0.5000 0.9994
vt 0.5000 0.9999
vt 0.5119 0.9999
vt 0.5435 0.9980
vt 0.5395 0.9983
vt 0.5435 0.9981
vt 0.5356 0.9986
vt 0.5317 0.9989
vt 0.5317 0.9990
vt 0.5277 0.9992
vt 0.5395 0.9982
vt 0.5435 0.9979
vt 0.5474 0.9975
vt 0.5513 0.9972
vt 0.5474 0.9977
vt 0.5552 0.9968
vt 0.5591 0.9964
vt 0.5591 0.9965
vt 0.5552 0.9969
vt 0.5474 0.9976
vt 0.5356 0.8043
vt 0.4366 0.8089
vt 0.4366 0.8132
vt 0.5358 0.8062
vt 0.3371 0.8138
vt 0.3379 0.8162
vt 0.2498 0.8178
vt 0.2499 0.8216
vt 0.1781 0.8219
vt 0.1821 0.8259
vt 0.1354 0.8250
vt 0.1373 0.8272
vt 0.1198 0.8247
vt 0.1235 0.8290
vt 0.1791 0.8209
vt 0.4370 0.8113
vt 0.6389 0.7976
vt 0.6391 0.8020
vt 0.7300 0.7935
vt 0.7301 0.7976
vt 0.8055 0.7896
vt 0.8054 0.7935
vt 0.8636 0.7885
vt 0.8601 0.7928
vt 0.8983 0.7868
vt 0.8965 0.7894
vt 0.9111 0.7846
vt 0.9079 0.7891
vt 0.8997 0.7850
vt 0.6382 0.8002
vt 0.2395 0.9263
vt 0.2425 0.9279
vt 0.2424 0.9281
vt 0.6109 0.8564
vt 0.6071 0.8608
vt 0.6308 0.8567
vt 0.6272 0.8536
vt 0.8961 0.8050
vt 0.8925 0.8093
vt 0.6065 0.8590
vt 0.0005 0.4921
vt 0.0006 0.4921
vt 0.0006 0.5079
vt 0.0005 0.5079
vt 0.6306 0.4960
vt 0.6110 0.4960
vt 0.6110 0.5040
vt 0.6306 0.5040
vt 0.9998 0.5040
vt 0.9998 0.4960
vn -0.190 0.008 0.982
vn -0.190 -0.008 0.982
vn -0.118 -0.008 0.993
vn -0.118 0.008 0.993
vn -0.768 -0.008 0.641
vn -0.753 -0.008 0.658
vn -0.753 0.008 0.658
vn -0.768 0.008 0.641
vn -0.205 0.008 0.979
vn -0.261 0.008 0.965
vn -0.261 -0.008 0.965
vn -0.205 -0.008 0.979
vn 0.450 0.016 0.893
vn 0.450 -0.016 0.893
vn 0.460 -0.016 0.888
vn 0.460 0.016 0.888
vn -0.292 0.008 0.956
vn -0.292 -0.008 0.956
vn -0.261 -0.008 0.965
vn -0.261 0.008 0.965
vn 0.405 0.016 0.914
vn 0.405 -0.016 0.914
vn 0.419 -0.016 0.908
vn 0.419 0.016 0.908
vn -0.323 0.008 0.946
vn -0.323 -0.008 0.946
vn -0.292 -0.008 0.956
vn -0.292 0.008 0.956
vn -0.812 0.008 0.583
vn -0.812 -0.008 0.583
vn -0.806 -0.008 0.592
vn -0.806 0.008 0.592
vn -0.396 0.008 0.918
vn -0.396 -0.008 0.918
vn -0.333 -0.008 0.943
vn -0.333 0.008 0.943
vn 0.254 0.016 0.967
vn 0.254 -0.016 0.967
vn 0.268 -0.016 0.963
vn 0.268 0.016 0.963
vn -0.460 0.008 0.888
vn -0.460 -0.008 0.888
vn -0.402 -0.008 0.915
vn -0.402 0.008 0.915
vn -0.857 0.008 0.516
vn -0.857 -0.008 0.516
vn -0.848 -0.008 0.531
vn -0.848 0.008 0.531
vn -0.521 0.008 0.853
vn -0.521 -0.008 0.853
vn -0.476 -0.008 0.880
vn -0.476 0.008 0.880
vn -0.876 0.008 0.482
vn -0.876 -0.008 0.482
vn -0.871 -0.008 0.491
vn -0.871 0.008 0.491
vn -0.885 0.000 0.466
vn -0.885 0.000 0.466
vn -1.000 0.000 -0.016
vn -1.000 0.000 -0.016
vn -1.000 0.000 -0.008
vn -1.000 0.000 -0.008
vn -0.866 -0.008 -0.500
vn -0.871 0.000 -0.491
vn -0.871 0.000 -0.491
vn -0.866 0.008 -0.500
vn -0.862 0.008 -0.506
vn -0.862 -0.008 -0.506
vn -0.118 0.008 -0.993
vn -0.118 -0.008 -0.993
vn -0.506 -0.008 -0.862
vn -0.506 0.008 -0.862
vn -0.158 0.987 0.000
vn -0.292 0.956 0.000
vn -0.246 0.968 0.048
vn -0.158 0.986 0.047
vn -0.309 0.951 0.000
vn -0.333 0.943 0.024
vn -0.261 0.965 0.024
vn -0.292 0.956 0.000
vn -0.340 0.940 0.000
vn -0.373 0.927 0.032
vn -0.340 0.940 0.032
vn -0.444 0.896 0.000
vn -0.412 0.910 0.040
vn -0.379 0.924 0.040
vn -0.476 0.880 0.000
vn -0.491 0.871 0.024
vn -0.418 0.908 0.024
vn -0.583 0.812 0.000
vn -0.564 0.825 0.032
vn -0.500 0.865 0.032
vn -0.632 0.775 0.000
vn -0.619 0.785 0.016
vn -0.569 0.822 0.016
vn -0.583 0.812 0.000
vn -0.134 0.600 -0.789
vn -0.579 0.492 -0.650
vn -0.577 0.506 -0.641
vn -0.143 0.611 -0.778
vn -0.158 0.987 -0.032
vn -0.641 0.767 -0.024
vn -0.641 0.768 -0.008
vn -0.158 0.987 -0.016
vn -0.143 0.634 0.760
vn -0.589 0.517 0.621
vn -0.594 0.507 0.625
vn -0.135 0.621 0.772
vn -0.158 0.986 -0.055
vn -0.623 0.781 -0.047
vn -0.627 0.778 -0.032
vn -0.158 0.987 -0.039
vn -0.158 -0.986 0.047
vn -0.246 -0.968 0.048
vn -0.292 -0.956 0.000
vn -0.158 -0.987 0.000
vn -0.261 -0.965 0.024
vn -0.333 -0.943 0.024
vn -0.309 -0.951 0.000
vn -0.340 -0.940 0.032
vn -0.373 -0.927 0.032
vn -0.340 -0.940 0.000
vn -0.379 -0.924 0.040
vn -0.412 -0.910 0.040
vn -0.340 -0.940 0.000
vn -0.412 -0.910 0.040
vn -0.444 -0.896 0.000
vn -0.418 -0.908 0.024
vn -0.491 -0.871 0.024
vn -0.476 -0.880 0.000
vn -0.500 -0.865 0.032
vn -0.564 -0.825 0.032
vn -0.583 -0.812 0.000
vn -0.569 -0.822 0.016
vn -0.619 -0.785 0.016
vn -0.632 -0.775 0.000
vn -0.143 -0.611 -0.778
vn -0.577 -0.506 -0.641
vn -0.579 -0.492 -0.650
vn -0.134 -0.600 -0.789
vn -0.158 -0.987 -0.016
vn -0.641 -0.768 -0.008
vn -0.641 -0.767 -0.024
vn -0.158 -0.987 -0.032
vn -0.135 -0.621 0.772
vn -0.594 -0.507 0.625
vn -0.589 -0.517 0.621
vn -0.143 -0.634 0.760
vn -0.158 -0.987 -0.039
vn -0.627 -0.778 -0.032
vn -0.623 -0.781 -0.047
vn -0.158 -0.986 -0.055
vn 0.254 0.967 0.032
vn 0.182 0.983 0.000
vn 0.182 0.983 -0.024
vn 0.254 0.967 -0.040
vn 0.182 0.983 0.024
vn 0.182 0.983 0.000
vn 0.254 0.967 0.032
vn 0.174 0.984 0.048
vn 0.205 0.978 0.032
vn 0.174 0.984 -0.048
vn 0.205 0.978 -0.039
vn 0.254 0.967 -0.040
vn 0.182 0.983 -0.024
vn 0.135 0.990 -0.048
vn 0.143 0.984 -0.103
vn 0.143 0.985 0.095
vn 0.135 0.990 0.040
vn 0.111 0.989 -0.095
vn 0.111 0.990 0.087
vn 0.087 0.992 -0.095
vn 0.087 0.992 0.095
vn 0.111 0.990 0.087
vn 0.111 0.989 -0.095
vn 0.063 0.994 -0.095
vn 0.063 0.994 0.095
vn 0.040 0.995 -0.087
vn 0.040 0.996 0.079
vn 0.016 0.997 -0.071
vn 0.016 0.998 0.063
vn 0.000 0.999 -0.048
vn 0.000 0.999 0.048
vn 0.000 1.000 -0.024
vn 0.000 1.000 0.024
vn 0.024 1.000 0.000
vn 0.087 0.996 -0.032
vn 0.079 0.996 -0.032
vn 0.087 0.996 0.000
vn 0.087 0.996 0.000
vn 0.071 0.997 -0.024
vn 0.087 0.996 0.000
vn 0.063 0.998 -0.024
vn 0.087 0.996 0.000
vn 0.063 0.998 -0.016
vn 0.087 0.996 0.000
vn 0.055 0.998 -0.008
vn 0.087 0.996 0.000
vn 0.055 0.998 0.000
vn 0.087 0.996 0.000
vn 0.055 0.998 0.000
vn 0.087 0.996 0.000
vn 0.055 0.998 0.000
vn 0.063 0.998 0.008
vn 0.087 0.996 0.000
vn 0.087 0.996 0.000
vn 0.063 0.998 0.016
vn 0.087 0.996 0.000
vn 0.071 0.997 0.024
vn 0.087 0.996 0.000
vn 0.079 0.997 0.024
vn 0.087 0.996 0.000
vn 0.087 0.996 0.024
vn 0.087 0.996 0.000
vn 0.095 0.995 0.024
vn 0.087 0.996 0.000
vn 0.103 0.994 0.024
vn 0.095 0.995 0.000
vn 0.103 0.994 0.024
vn 0.110 0.994 0.016
vn 0.095 0.995 0.000
vn 0.095 0.995 0.000
vn 0.118 0.993 0.008
vn 0.095 0.995 0.000
vn 0.118 0.993 0.000
vn 0.095 0.995 0.000
vn 0.118 0.993 0.000
vn 0.095 0.995 0.000
vn 0.118 0.993 -0.008
vn 0.095 0.995 0.000
vn 0.118 0.993 -0.016
vn 0.095 0.995 0.000
vn 0.110 0.994 -0.024
vn 0.095 0.995 0.000
vn 0.110 0.994 -0.024
vn 0.103 0.994 -0.024
vn 0.095 0.995 0.000
vn 0.095 0.995 0.000
vn 0.095 0.995 -0.032
vn 0.087 0.996 0.000
vn 0.087 0.996 -0.032
vn 0.087 0.996 0.000
vn 0.071 0.609 -0.790
vn -0.127 0.618 -0.776
vn -0.126 0.623 -0.772
vn 0.072 0.612 -0.787
vn -0.326 0.628 -0.707
vn -0.324 0.632 -0.704
vn -0.500 0.636 -0.588
vn -0.500 0.643 -0.580
vn -0.500 0.636 -0.588
vn -0.642 0.642 -0.420
vn -0.636 0.652 -0.413
vn -0.500 0.643 -0.580
vn -0.729 0.650 -0.214
vn -0.729 0.650 -0.214
vn -0.760 0.649 0.000
vn -0.753 0.658 0.000
vn -0.729 0.650 0.214
vn -0.725 0.654 0.213
vn -0.644 0.644 0.413
vn -0.636 0.652 0.413
vn -0.500 0.636 0.588
vn -0.500 0.643 0.580
vn -0.326 0.628 0.707
vn -0.324 0.632 0.704
vn -0.326 0.628 0.707
vn -0.127 0.618 0.776
vn -0.127 0.626 0.769
vn -0.324 0.632 0.704
vn 0.071 0.609 0.790
vn 0.072 0.612 0.787
vn 0.276 0.600 0.750
vn 0.278 0.604 0.747
vn 0.460 0.587 0.666
vn 0.460 0.595 0.659
vn 0.611 0.587 0.531
vn 0.611 0.587 0.531
vn 0.727 0.577 0.372
vn 0.720 0.586 0.372
vn 0.799 0.570 0.190
vn 0.793 0.579 0.190
vn 0.799 0.570 0.190
vn 0.822 0.569 0.000
vn 0.816 0.578 0.000
vn 0.793 0.579 0.190
vn 0.797 0.574 -0.191
vn 0.793 0.579 -0.190
vn 0.727 0.577 -0.372
vn 0.720 0.586 -0.372
vn 0.611 0.579 -0.540
vn 0.611 0.587 -0.531
vn 0.460 0.587 -0.666
vn 0.460 0.595 -0.659
vn 0.278 0.595 -0.754
vn 0.278 0.604 -0.747
vn 0.071 0.609 -0.790
vn 0.072 0.612 -0.787
vn -0.848 -0.008 0.531
vn -0.666 -0.008 0.746
vn -0.666 0.008 0.746
vn -0.848 0.008 0.531
vn -0.435 -0.008 0.901
vn -0.435 0.008 0.901
vn -0.182 -0.008 0.983
vn -0.182 0.008 0.983
vn 0.071 -0.008 0.997
vn 0.071 0.008 0.997
vn 0.326 -0.008 0.945
vn 0.326 0.008 0.945
vn 0.555 -0.008 0.832
vn 0.555 0.008 0.832
vn 0.742 -0.008 0.671
vn 0.742 0.008 0.671
vn 0.742 -0.008 0.671
vn 0.885 -0.008 0.466
vn 0.885 0.008 0.466
vn 0.742 0.008 0.671
vn 0.971 -0.008 0.237
vn 0.971 0.008 0.237
vn 1.000 -0.008 0.000
vn 1.000 0.008 0.000
vn 0.971 -0.008 -0.237
vn 0.971 0.008 -0.237
vn 0.885 -0.008 -0.466
vn 0.885 0.008 -0.466
vn 0.742 -0.008 -0.671
vn 0.742 0.008 -0.671
vn 0.555 -0.008 -0.832
vn 0.555 0.008 -0.832
vn 0.555 -0.008 -0.832
vn 0.323 -0.008 -0.946
vn 0.323 0.008 -0.946
vn 0.555 0.008 -0.832
vn 0.071 -0.008 -0.997
vn 0.071 0.008 -0.997
vn -0.182 -0.008 -0.983
vn -0.182 0.008 -0.983
vn -0.435 -0.008 -0.901
vn -0.435 0.008 -0.901
vn -0.666 -0.008 -0.746
vn -0.666 0.008 -0.746
vn -0.848 -0.008 -0.531
vn -0.848 0.008 -0.531
vn -0.961 -0.008 -0.278
vn -0.961 0.008 -0.278
vn -0.961 -0.008 -0.278
vn -1.000 -0.008 0.000
vn -1.000 0.008 0.000
vn -0.961 0.008 -0.278
vn -0.521 0.853 0.039
vn -0.515 0.856 0.040
vn -0.515 0.856 -0.048
vn -0.521 0.853 -0.039
vn 0.222 0.713 -0.665
vn 0.213 0.718 -0.663
vn 0.262 0.713 -0.650
vn 0.254 0.707 -0.660
vn 0.792 0.610 -0.024
vn 0.785 0.619 -0.032
vn 0.785 0.619 0.032
vn 0.792 0.610 0.024
vn 0.254 0.707 0.660
vn 0.262 0.713 0.650
vn 0.214 0.722 0.658
vn 0.222 0.713 0.665
vn 0.254 -0.967 -0.040
vn 0.182 -0.983 0.000
vn 0.182 -0.983 0.024
vn 0.254 -0.967 0.032
vn 0.182 -0.983 -0.024
vn 0.174 -0.984 -0.048
vn 0.205 -0.978 -0.039
vn 0.174 -0.984 0.048
vn 0.205 -0.978 0.032
vn 0.135 -0.990 0.040
vn 0.143 -0.985 0.095
vn 0.143 -0.984 -0.103
vn 0.135 -0.990 -0.048
vn 0.174 -0.984 -0.048
vn 0.205 -0.978 -0.039
vn 0.205 -0.978 0.032
vn 0.143 -0.985 0.095
vn 0.111 -0.990 0.087
vn 0.111 -0.989 -0.095
vn 0.087 -0.992 0.095
vn 0.087 -0.992 -0.095
vn 0.063 -0.994 0.095
vn 0.063 -0.994 -0.095
vn 0.040 -0.996 0.079
vn 0.040 -0.995 -0.087
vn 0.016 -0.998 0.063
vn 0.016 -0.997 -0.071
vn 0.000 -0.999 0.048
vn 0.000 -0.999 -0.048
vn 0.016 -0.997 -0.071
vn 0.016 -0.998 0.063
vn 0.000 -1.000 0.024
vn 0.000 -1.000 -0.024
vn 0.024 -1.000 0.000
vn 0.087 -0.996 0.024
vn 0.079 -0.997 0.024
vn 0.087 -0.996 0.000
vn 0.087 -0.996 0.000
vn 0.071 -0.997 0.024
vn 0.087 -0.996 0.000
vn 0.063 -0.998 0.016
vn 0.087 -0.996 0.000
vn 0.063 -0.998 0.016
vn 0.063 -0.998 0.008
vn 0.087 -0.996 0.000
vn 0.087 -0.996 0.000
vn 0.055 -0.998 0.000
vn 0.087 -0.996 0.000
vn 0.055 -0.998 0.000
vn 0.087 -0.996 0.000
vn 0.055 -0.998 -0.008
vn 0.087 -0.996 0.000
vn 0.063 -0.998 -0.016
vn 0.087 -0.996 0.000
vn 0.063 -0.998 -0.024
vn 0.087 -0.996 0.000
vn 0.071 -0.997 -0.024
vn 0.087 -0.996 0.000
vn 0.071 -0.997 -0.024
vn 0.079 -0.996 -0.032
vn 0.087 -0.996 0.000
vn 0.087 -0.996 0.000
vn 0.087 -0.996 -0.032
vn 0.087 -0.996 0.000
vn 0.095 -0.995 -0.032
vn 0.087 -0.996 0.000
vn 0.103 -0.994 -0.024
vn 0.095 -0.995 0.000
vn 0.110 -0.994 -0.024
vn 0.095 -0.995 0.000
vn 0.118 -0.993 -0.016
vn 0.095 -0.995 0.000
vn 0.118 -0.993 -0.008
vn 0.095 -0.995 0.000
vn 0.118 -0.993 -0.008
vn 0.118 -0.993 0.000
vn 0.095 -0.995 0.000
vn 0.095 -0.995 0.000
vn 0.118 -0.993 0.000
vn 0.095 -0.995 0.000
vn 0.118 -0.993 0.008
vn 0.095 -0.995 0.000
vn 0.110 -0.994 0.016
vn 0.095 -0.995 0.000
vn 0.103 -0.994 0.024
vn 0.095 -0.995 0.000
vn 0.095 -0.995 0.024
vn 0.087 -0.996 0.000
vn 0.087 -0.996 0.024
vn 0.087 -0.996 0.000
vn 0.071 -0.609 0.790
vn -0.127 -0.618 0.776
vn -0.127 -0.626 0.769
vn 0.072 -0.612 0.787
vn -0.326 -0.628 0.707
vn -0.324 -0.632 0.704
vn -0.500 -0.636 0.588
vn -0.500 -0.643 0.580
vn -0.644 -0.644 0.413
vn -0.636 -0.652 0.413
vn -0.729 -0.650 0.214
vn -0.725 -0.654 0.213
vn -0.760 -0.649 0.000
vn -0.753 -0.658 0.000
vn -0.729 -0.650 -0.214
vn -0.729 -0.650 -0.214
vn -0.729 -0.650 -0.214
vn -0.642 -0.642 -0.420
vn -0.636 -0.652 -0.413
vn -0.729 -0.650 -0.214
vn -0.500 -0.636 -0.588
vn -0.500 -0.643 -0.580
vn -0.326 -0.628 -0.707
vn -0.324 -0.632 -0.704
vn -0.127 -0.618 -0.776
vn -0.126 -0.623 -0.772
vn 0.071 -0.609 -0.790
vn 0.072 -0.612 -0.787
vn 0.278 -0.595 -0.754
vn 0.278 -0.604 -0.747
vn 0.460 -0.587 -0.666
vn 0.460 -0.595 -0.659
vn 0.460 -0.587 -0.666
vn 0.611 -0.579 -0.540
vn 0.611 -0.587 -0.531
vn 0.460 -0.595 -0.659
vn 0.727 -0.577 -0.372
vn 0.720 -0.586 -0.372
vn 0.797 -0.574 -0.191
vn 0.793 -0.579 -0.190
vn 0.822 -0.569 0.000
vn 0.816 -0.578 0.000
vn 0.799 -0.570 0.190
vn 0.793 -0.579 0.190
vn 0.727 -0.577 0.372
vn 0.720 -0.586 0.372
vn 0.611 -0.587 0.531
vn 0.611 -0.587 0.531
vn 0.611 -0.587 0.531
vn 0.460 -0.587 0.666
vn 0.460 -0.595 0.659
vn 0.611 -0.587 0.531
vn 0.276 -0.600 0.750
vn 0.278 -0.604 0.747
vn 0.071 -0.609 0.790
vn 0.072 -0.612 0.787
vn -0.961 0.008 0.278
vn -1.000 0.008 0.000
vn -1.000 -0.008 0.000
vn -0.961 -0.008 0.278
vn -0.848 0.008 0.531
vn -0.848 -0.008 0.531
vn -0.521 -0.853 -0.039
vn -0.515 -0.856 -0.048
vn -0.515 -0.856 0.040
vn -0.521 -0.853 0.039
vn 0.222 -0.713 0.665
vn 0.214 -0.722 0.658
vn 0.262 -0.713 0.650
vn 0.254 -0.707 0.660
vn 0.792 -0.610 0.024
vn 0.785 -0.619 0.032
vn 0.785 -0.619 -0.032
vn 0.792 -0.610 -0.024
vn 0.254 -0.707 -0.660
vn 0.262 -0.713 -0.650
vn 0.213 -0.718 -0.663
vn 0.222 -0.713 -0.665
vn -0.999 0.016 0.040
vn -0.999 0.016 -0.048
vn -0.999 -0.016 -0.048
vn -0.999 -0.016 0.040
vn 0.261 0.008 0.965
vn 0.222 0.008 0.975
vn 0.222 -0.008 0.975
vn 0.261 -0.008 0.965
vn 0.261 -0.008 -0.965
vn 0.222 -0.008 -0.975
vn 0.222 0.008 -0.975
vn 0.261 0.008 -0.965
vn 1.000 -0.008 0.024
vn 1.000 -0.008 -0.024
vn 1.000 0.008 -0.024
vn 1.000 0.008 0.024
usemtl tex_661_lit_env
f 1/1/1 2/2/2 3/3/3
f 1/1/1 3/3/3 4/4/4
f 5/5/5 6/6/6 7/7/7
f 5/5/5 7/7/7 8/8/8
f 9/9/9 10/10/10 11/11/11
f 9/9/9 11/11/11 12/12/12
f 13/13/13 14/14/14 15/15/15
f 13/13/13 15/15/15 16/16/16
f 17/17/17 18/18/18 19/11/19
f 17/17/17 19/11/19 20/10/20
f 21/19/21 22/20/22 23/21/23
f 21/19/21 23/21/23 24/22/24
f 25/23/25 26/24/26 27/18/27
f 25/23/25 27/18/27 28/17/28
f 29/25/29 30/26/30 31/27/31
f 29/25/29 31/27/31 32/28/32
f 33/29/33 34/30/34 35/31/35
f 33/29/33 35/31/35 36/32/36
f 37/33/37 38/34/38 39/35/39
f 37/33/37 39/35/39 40/36/40
f 41/37/41 42/38/42 43/39/43
f 41/37/41 43/39/43 44/40/44
f 45/41/45 46/42/46 47/43/47
f 45/41/45 47/43/47 48/44/48
f 49/45/49 50/46/50 51/47/51
f 49/45/49 51/47/51 52/48/52
f 53/49/53 54/50/54 55/51/55
f 53/49/53 55/51/55 56/52/56
f 57/53/57 58/53/58 54/50/54
f 57/53/57 54/50/54 53/49/53
f 59/54/59 60/54/60 61/55/61
f 59/54/59 61/55/61 62/55/62
f 63/56/63 64/57/64 65/57/65
f 63/56/63 65/57/65 66/58/66
f 67/59/67 68/60/68 63/56/63
f 67/59/67 63/56/63 66/58/66
f 69/4/69 70/3/70 71/61/71
f 69/4/69 71/61/71 72/62/72
f 73/63/73 74/64/74 75/65/75
f 73/63/73 75/65/75 76/66/76
f 77/67/77 78/68/78 79/69/79
f 77/67/77 79/69/79 80/64/80
f 81/70/81 82/71/82 83/72/83
f 81/70/81 83/72/83 77/67/77
f 84/73/84 85/74/85 86/75/86
f 84/73/84 86/75/86 81/70/81
f 87/76/87 88/77/88 89/78/89
f 87/76/87 89/78/89 84/73/84
f 90/79/90 91/80/91 92/81/92
f 90/79/90 92/81/92 87/76/87
f 93/82/93 94/83/94 95/84/95
f 93/82/93 95/84/95 96/79/96
f 97/85/97 98/86/98 99/87/99
f 97/85/97 99/87/99 100/88/100
f 101/89/101 102/90/102 103/91/103
f 101/89/101 103/91/103 104/63/104
f 105/92/105 106/93/106 107/94/107
f 105/92/105 107/94/107 108/95/108
f 109/96/109 110/97/110 111/98/111
f 109/96/109 111/98/111 112/99/112
f 113/100/113 114/101/114 115/102/115
f 113/100/113 115/102/115 116/103/116
f 115/102/115 117/104/117 118/105/118
f 115/102/115 118/105/118 119/106/119
f 119/106/119 120/107/120 121/108/121
f 119/106/119 121/108/121 122/109/122
f 122/109/122 123/110/123 124/111/124
f 125/109/125 126/111/126 127/112/127
f 127/112/127 128/113/128 129/114/129
f 127/112/127 129/114/129 130/115/130
f 130/115/130 131/116/131 132/117/132
f 130/115/130 132/117/132 133/118/133
f 133/118/133 134/119/134 135/120/135
f 133/118/133 135/120/135 136/121/136
f 137/122/137 138/123/138 139/124/139
f 137/122/137 139/124/139 140/125/140
f 141/103/141 142/126/142 143/127/143
f 141/103/141 143/127/143 144/128/144
f 145/129/145 146/130/146 147/131/147
f 145/129/145 147/131/147 148/132/148
f 149/133/149 150/134/150 151/135/151
f 149/133/149 151/135/151 152/136/152
f 153/137/153 154/138/154 155/139/155
f 153/137/153 155/139/155 156/140/156
f 157/139/157 158/138/158 159/137/159
f 160/141/160 157/139/157 159/137/159
f 160/141/160 159/137/159 161/142/161
f 162/141/162 163/143/163 164/140/164
f 162/141/162 164/140/164 165/139/165
f 166/144/166 167/145/167 163/143/163
f 166/144/166 163/143/163 162/141/162
f 168/146/168 169/147/169 160/141/160
f 168/146/168 160/141/160 161/142/161
f 168/146/168 161/142/161 163/143/163
f 168/146/168 163/143/163 167/145/167
f 170/148/170 171/149/171 168/146/168
f 170/148/170 168/146/168 167/145/167
f 172/150/172 173/150/173 174/149/174
f 172/150/172 174/149/174 175/148/175
f 176/151/176 177/151/177 173/150/173
f 176/151/176 173/150/173 172/150/172
f 178/152/178 179/153/179 177/151/177
f 178/152/178 177/151/177 176/151/176
f 180/154/180 181/155/181 179/153/179
f 180/154/180 179/153/179 178/152/178
f 182/156/182 183/156/183 181/155/181
f 182/156/182 181/155/181 180/154/180
f 184/157/184 185/157/185 183/156/183
f 184/157/184 183/156/183 182/156/182
f 186/158/186 185/157/185 184/157/184
f 187/159/187 188/160/188 189/161/189
f 187/159/187 189/161/189 190/161/190
f 188/160/188 191/162/191 192/161/192
f 188/160/188 192/161/192 189/161/189
f 191/162/191 193/163/193 194/161/194
f 191/162/191 194/161/194 192/161/192
f 193/163/193 195/163/195 196/161/196
f 193/163/193 196/161/196 194/161/194
f 195/163/195 197/164/197 198/161/198
f 195/163/195 198/161/198 196/161/196
f 197/164/197 199/164/199 200/161/200
f 197/164/197 200/161/200 198/161/198
f 199/164/199 201/164/201 202/161/202
f 199/164/199 202/161/202 200/161/200
f 203/164/203 204/165/204 205/161/205
f 203/164/203 205/161/205 206/161/206
f 204/165/204 207/163/207 208/161/208
f 204/165/204 208/161/208 205/161/205
f 207/163/207 209/162/209 210/161/210
f 207/163/207 210/161/210 208/161/208
f 209/162/209 211/166/211 212/161/212
f 209/162/209 212/161/212 210/161/210
f 211/166/211 213/167/213 214/161/214
f 211/166/211 214/161/214 212/161/212
f 213/167/213 215/168/215 216/161/216
f 213/167/213 216/161/216 214/161/214
f 215/168/215 217/169/217 218/170/218
f 215/168/215 218/170/218 216/161/216
f 219/169/219 220/171/220 221/170/221
f 219/169/219 221/170/221 222/170/222
f 220/171/220 223/172/223 224/170/224
f 220/171/220 224/170/224 221/170/221
f 223/172/223 225/172/225 226/170/226
f 223/172/223 226/170/226 224/170/224
f 225/172/225 227/172/227 228/170/228
f 225/172/225 228/170/228 226/170/226
f 227/172/227 229/172/229 230/170/230
f 227/172/227 230/170/230 228/170/228
f 229/172/229 231/173/231 232/170/232
f 229/172/229 232/170/232 230/170/230
f 231/173/231 233/174/233 234/170/234
f 231/173/231 234/170/234 232/170/232
f 235/174/235 236/169/236 237/170/237
f 235/174/235 237/170/237 238/170/238
f 236/169/236 239/175/239 240/161/240
f 236/169/236 240/161/240 237/170/237
f 239/175/239 241/159/241 242/161/242
f 239/175/239 242/161/242 240/161/240
f 243/176/243 244/177/244 245/178/245
f 243/176/243 245/178/245 246/179/246
f 244/177/244 247/180/247 248/181/248
f 244/177/244 248/181/248 245/178/245
f 247/180/247 249/182/249 250/183/250
f 247/180/247 250/183/250 248/181/248
f 251/182/251 252/184/252 253/185/253
f 251/182/251 253/185/253 254/183/254
f 252/184/252 255/186/255 256/186/256
f 252/184/252 256/186/256 253/185/253
f 255/186/255 257/187/257 258/188/258
f 255/186/255 258/188/258 256/186/256
f 257/187/257 259/186/259 260/189/260
f 257/187/257 260/189/260 258/188/258
f 259/186/259 261/190/261 262/185/262
f 259/186/259 262/185/262 260/189/260
f 261/190/261 263/182/263 264/183/264
f 261/190/261 264/183/264 262/185/262
f 263/182/263 265/180/265 266/181/266
f 263/182/263 266/181/266 264/183/264
f 267/180/267 268/177/268 269/191/269
f 267/180/267 269/191/269 270/181/270
f 268/177/268 271/176/271 272/179/272
f 268/177/268 272/179/272 269/191/269
f 271/176/271 273/192/273 274/193/274
f 271/176/271 274/193/274 272/179/272
f 273/192/273 275/194/275 276/195/276
f 273/192/273 276/195/276 274/193/274
f 275/194/275 277/196/277 278/196/278
f 275/194/275 278/196/278 276/195/276
f 277/196/277 279/197/279 280/198/280
f 277/196/277 280/198/280 278/196/278
f 279/197/279 281/199/281 282/200/282
f 279/197/279 282/200/282 280/198/280
f 283/199/283 284/201/284 285/202/285
f 283/199/283 285/202/285 286/200/286
f 284/201/284 287/203/287 288/200/288
f 284/201/284 288/200/288 285/202/285
f 287/203/287 289/197/289 290/198/290
f 287/203/287 290/198/290 288/200/288
f 289/197/289 291/204/291 292/196/292
f 289/197/289 292/196/292 290/198/290
f 291/204/291 293/194/293 294/195/294
f 291/204/291 294/195/294 292/196/292
f 293/194/293 295/205/295 296/193/296
f 293/194/293 296/193/296 294/195/294
f 295/205/295 297/176/297 298/179/298
f 295/205/295 298/179/298 296/193/296
f 299/43/299 300/206/300 301/207/301
f 299/43/299 301/207/301 302/44/302
f 300/206/300 303/208/303 304/209/304
f 300/206/300 304/209/304 301/207/301
f 303/208/303 305/210/305 306/211/306
f 303/208/303 306/211/306 304/209/304
f 305/210/305 307/212/307 308/213/308
f 305/210/305 308/213/308 306/211/306
f 307/212/307 309/214/309 310/215/310
f 307/212/307 310/215/310 308/213/308
f 309/214/309 311/216/311 312/217/312
f 309/214/309 312/217/312 310/215/310
f 311/216/311 313/218/313 314/219/314
f 311/216/311 314/219/314 312/217/312
f 315/218/315 316/220/316 317/221/317
f 315/218/315 317/221/317 318/219/318
f 316/220/316 319/222/319 320/223/320
f 316/220/316 320/223/320 317/221/317
f 319/222/319 321/224/321 322/225/322
f 319/222/319 322/225/322 320/223/320
f 321/224/321 323/222/323 324/223/324
f 321/224/321 324/223/324 322/225/322
f 323/222/323 325/220/325 326/221/326
f 323/222/323 326/221/326 324/223/324
f 325/220/325 327/218/327 328/219/328
f 325/220/325 328/219/328 326/221/326
f 327/218/327 329/216/329 330/217/330
f 327/218/327 330/217/330 328/219/328
f 331/216/331 332/226/332 333/227/333
f 331/216/331 333/227/333 334/217/334
f 332/226/332 335/212/335 336/213/336
f 332/226/332 336/213/336 333/227/333
f 335/212/335 337/210/337 338/211/338
f 335/212/335 338/211/338 336/213/336
f 337/210/337 339/208/339 340/209/340
f 337/210/337 340/209/340 338/211/338
f 339/208/339 341/206/341 342/207/342
f 339/208/339 342/207/342 340/209/340
f 341/206/341 343/43/343 344/44/344
f 341/206/341 344/44/344 342/207/342
f 343/43/343 345/228/345 346/229/346
f 343/43/343 346/229/346 344/44/344
f 347/228/347 348/230/348 349/231/349
f 347/228/347 349/231/349 350/229/350
f 351/232/351 352/233/352 353/234/353
f 351/232/351 353/234/353 354/232/354
f 355/235/355 356/236/356 357/237/357
f 355/235/355 357/237/357 358/238/358
f 359/239/359 360/240/360 361/240/361
f 359/239/359 361/240/361 362/239/362
f 363/238/363 364/237/364 365/241/365
f 363/238/363 365/241/365 366/235/366
f 367/242/367 368/243/368 369/244/369
f 367/242/367 369/244/369 370/245/370
f 371/244/371 368/243/368 367/242/367
f 372/246/372 371/244/371 367/242/367
f 372/246/372 367/242/367 373/247/373
f 374/246/374 375/248/375 370/245/370
f 374/246/374 370/245/370 369/244/369
f 376/249/376 377/250/377 375/248/375
f 376/249/376 375/248/375 374/246/374
f 378/251/378 379/252/379 380/246/380
f 378/251/378 380/246/380 381/247/381
f 378/251/378 381/247/381 382/248/382
f 378/251/378 382/248/382 383/250/383
f 384/253/384 385/254/385 378/251/378
f 384/253/384 378/251/378 383/250/383
f 386/255/386 387/255/387 385/254/385
f 386/255/386 385/254/385 384/253/384
f 388/256/388 389/256/389 387/255/387
f 388/256/388 387/255/387 386/255/386
f 390/257/390 391/258/391 389/256/389
f 390/257/390 389/256/389 388/256/388
f 392/259/392 393/260/393 391/258/391
f 392/259/392 391/258/391 390/257/390
f 394/261/394 395/261/395 396/260/396
f 394/261/394 396/260/396 397/259/397
f 398/262/398 399/262/399 395/261/395
f 398/262/398 395/261/395 394/261/394
f 400/263/400 399/262/399 398/262/398
f 401/264/401 402/265/402 403/266/403
f 401/264/401 403/266/403 404/266/404
f 402/265/402 405/267/405 406/266/406
f 402/265/402 406/266/406 403/266/403
f 405/267/405 407/268/407 408/266/408
f 405/267/405 408/266/408 406/266/406
f 409/268/409 410/269/410 411/266/411
f 409/268/409 411/266/411 412/266/412
f 410/269/410 413/270/413 414/266/414
f 410/269/410 414/266/414 411/266/411
f 413/270/413 415/270/415 416/266/416
f 413/270/413 416/266/416 414/266/414
f 415/270/415 417/270/417 418/266/418
f 415/270/415 418/266/418 416/266/416
f 417/270/417 419/268/419 420/266/420
f 417/270/417 420/266/420 418/266/418
f 419/268/419 421/268/421 422/266/422
f 419/268/419 422/266/422 420/266/420
f 421/268/421 423/267/423 424/266/424
f 421/268/421 424/266/424 422/266/422
f 425/267/425 426/271/426 427/266/427
f 425/267/425 427/266/427 428/266/428
f 426/271/426 429/272/429 430/266/430
f 426/271/426 430/266/430 427/266/427
f 429/272/429 431/273/431 432/266/432
f 429/272/429 432/266/432 430/266/430
f 431/273/431 433/274/433 434/275/434
f 431/273/431 434/275/434 432/266/432
f 433/274/433 435/276/435 436/275/436
f 433/274/433 436/275/436 434/275/434
f 435/276/435 437/277/437 438/275/438
f 435/276/435 438/275/438 436/275/436
f 437/277/437 439/278/439 440/275/440
f 437/277/437 440/275/440 438/275/438
f 441/278/441 442/278/442 443/275/443
f 441/278/441 443/275/443 444/275/444
f 442/278/442 445/278/445 446/275/446
f 442/278/442 446/275/446 443/275/443
f 445/278/445 447/278/447 448/275/448
f 445/278/445 448/275/448 446/275/446
f 447/278/447 449/279/449 450/275/450
f 447/278/447 450/275/450 448/275/448
f 449/279/449 451/274/451 452/275/452
f 449/279/449 452/275/452 450/275/450
f 451/274/451 453/280/453 454/266/454
f 451/274/451 454/266/454 452/275/452
f 453/280/453 455/264/455 456/266/456
f 453/280/453 456/266/456 454/266/454
f 457/281/457 458/282/458 459/283/459
f 457/281/457 459/283/459 460/284/460
f 458/282/458 461/285/461 462/286/462
f 458/282/458 462/286/462 459/283/459
f 461/285/461 463/287/463 464/288/464
f 461/285/461 464/288/464 462/286/462
f 463/287/463 465/289/465 466/290/466
f 463/287/463 466/290/466 464/288/464
f 465/289/465 467/291/467 468/292/468
f 465/289/465 468/292/468 466/290/466
f 467/291/467 469/293/469 470/294/470
f 467/291/467 470/294/470 468/292/468
f 469/293/469 471/291/471 472/291/472
f 469/293/469 472/291/472 470/294/470
f 473/291/473 474/295/474 475/290/475
f 473/291/473 475/290/475 476/291/476
f 474/295/474 477/287/477 478/288/478
f 474/295/474 478/288/478 475/290/475
f 477/287/477 479/285/479 480/286/480
f 477/287/477 480/286/480 478/288/478
f 479/285/479 481/282/481 482/296/482
f 479/285/479 482/296/482 480/286/480
f 481/282/481 483/281/483 484/284/484
f 481/282/481 484/284/484 482/296/482
f 483/281/483 485/297/485 486/298/486
f 483/281/483 486/298/486 484/284/484
f 485/297/485 487/299/487 488/300/488
f 485/297/485 488/300/488 486/298/486
f 489/299/489 490/301/490 491/302/491
f 489/299/489 491/302/491 492/300/492
f 490/301/490 493/303/493 494/304/494
f 490/301/490 494/304/494 491/302/491
f 493/303/493 495/305/495 496/306/496
f 493/303/493 496/306/496 494/304/494
f 495/305/495 497/307/497 498/308/498
f 495/305/495 498/308/498 496/306/496
f 497/307/497 499/309/499 500/306/500
f 497/307/497 500/306/500 498/308/498
f 499/309/499 501/303/501 502/304/502
f 499/309/499 502/304/502 500/306/500
f 501/303/501 503/302/503 504/302/504
f 501/303/501 504/302/504 502/304/502
f 505/302/505 506/299/506 507/300/507
f 505/302/505 507/300/507 508/302/508
f 506/299/506 509/310/509 510/298/510
f 506/299/506 510/298/510 507/300/507
f 509/310/509 511/281/511 512/284/512
f 509/310/509 512/284/512 510/298/510
f 513/229/513 514/231/514 515/230/515
f 513/229/513 515/230/515 516/228/516
f 517/44/517 513/229/513 516/228/516
f 517/44/517 516/228/516 518/43/518
f 519/311/519 520/312/520 521/313/521
f 519/311/519 521/313/521 522/311/522
f 523/314/523 524/315/524 525/316/525
f 523/314/523 525/316/525 526/317/526
f 527/318/527 528/319/528 529/319/529
f 527/318/527 529/319/529 530/318/530
f 531/317/531 532/316/532 533/320/533
f 531/317/531 533/320/533 534/314/534
f 535/321/535 536/322/536 537/323/537
f 535/321/535 537/323/537 538/324/538
f 539/325/539 540/326/540 541/327/541
f 539/325/539 541/327/541 542/328/542
f 543/328/543 544/327/544 545/326/545
f 543/328/543 545/326/545 546/325/546
f 547/329/547 548/329/548 549/330/549
f 547/329/547 549/330/549 550/330/550
