mtllib GknifeZ.mtl
v -1.0 191.0 150.0 1.000 1.000 1.000
v 4.0 218.0 102.0 1.000 1.000 1.000
v -1.0 210.0 155.0 1.000 1.000 1.000
v 4.0 227.0 110.0 1.000 1.000 1.000
v 3.0 244.0 123.0 1.000 1.000 1.000
v -1.0 230.0 160.0 1.000 1.000 1.000
v 3.0 266.0 133.0 1.000 1.000 1.000
v -1.0 254.0 166.0 1.000 1.000 1.000
v 3.0 276.0 139.0 1.000 1.000 1.000
v -1.0 265.0 167.0 1.000 1.000 1.000
v -1.0 210.0 155.0 1.000 1.000 1.000
v -5.0 227.0 110.0 1.000 1.000 1.000
v -5.0 218.0 102.0 1.000 1.000 1.000
v -1.0 200.0 153.0 1.000 1.000 1.000
v -1.0 230.0 160.0 1.000 1.000 1.000
v -4.0 244.0 123.0 1.000 1.000 1.000
v -1.0 254.0 166.0 1.000 1.000 1.000
v -4.0 266.0 133.0 1.000 1.000 1.000
v -4.0 244.0 123.0 1.000 1.000 1.000
v -1.0 230.0 160.0 1.000 1.000 1.000
v -1.0 265.0 167.0 1.000 1.000 1.000
v -4.0 276.0 139.0 1.000 1.000 1.000
v 3.0 276.0 139.0 1.000 1.000 1.000
v 3.0 316.0 154.0 1.000 1.000 1.000
v -1.0 311.0 171.0 1.000 1.000 1.000
v -1.0 265.0 167.0 1.000 1.000 1.000
v 3.0 318.0 154.0 1.000 1.000 1.000
v 3.0 316.0 154.0 1.000 1.000 1.000
v -1.0 311.0 171.0 1.000 1.000 1.000
v -1.0 311.0 171.0 1.000 1.000 1.000
v -1.0 338.0 167.0 1.000 1.000 1.000
v -1.0 311.0 171.0 1.000 1.000 1.000
v -4.0 316.0 154.0 1.000 1.000 1.000
v -4.0 276.0 139.0 1.000 1.000 1.000
v -1.0 265.0 167.0 1.000 1.000 1.000
v -4.0 318.0 154.0 1.000 1.000 1.000
v -1.0 311.0 171.0 1.000 1.000 1.000
v -1.0 311.0 171.0 1.000 1.000 1.000
v -4.0 316.0 154.0 1.000 1.000 1.000
v -1.0 338.0 167.0 1.000 1.000 1.000
v -1.0 191.0 150.0 1.000 1.000 1.000
v 5.0 215.0 98.0 1.000 1.000 1.000
v 4.0 218.0 102.0 1.000 1.000 1.000
v 5.0 211.0 95.0 1.000 1.000 1.000
v 5.0 100.0 55.0 1.000 1.000 1.000
v -1.0 148.0 136.0 1.000 1.000 1.000
v -6.0 211.0 95.0 1.000 1.000 1.000
v -1.0 200.0 153.0 1.000 1.000 1.000
v -5.0 218.0 102.0 1.000 1.000 1.000
v -1.0 196.0 152.0 1.000 1.000 1.000
v -1.0 191.0 150.0 1.000 1.000 1.000
v -6.0 201.0 92.0 1.000 1.000 1.000
v -1.0 148.0 136.0 1.000 1.000 1.000
v -1.0 70.0 107.0 1.000 1.000 1.000
v 5.0 100.0 55.0 1.000 1.000 1.000
v -1.0 148.0 136.0 1.000 1.000 1.000
v -1.0 70.0 107.0 1.000 1.000 1.000
v -1.0 67.0 106.0 1.000 1.000 1.000
v -6.0 87.0 50.0 1.000 1.000 1.000
v 5.0 81.0 50.0 1.000 1.000 1.000
v 1.0 53.0 85.0 1.000 1.000 1.000
v 3.0 63.0 57.0 1.000 1.000 1.000
v 5.0 81.0 50.0 1.000 1.000 1.000
v 0.0 58.0 96.0 1.000 1.000 1.000
v 1.0 53.0 85.0 1.000 1.000 1.000
v 0.0 62.0 102.0 1.000 1.000 1.000
v -1.0 66.0 105.0 1.000 1.000 1.000
v -1.0 67.0 106.0 1.000 1.000 1.000
v 5.0 86.0 50.0 1.000 1.000 1.000
v 5.0 100.0 55.0 1.000 1.000 1.000
v 5.0 87.0 50.0 1.000 1.000 1.000
v -1.0 70.0 107.0 1.000 1.000 1.000
v -1.0 67.0 106.0 1.000 1.000 1.000
v -4.0 63.0 57.0 1.000 1.000 1.000
v -2.0 53.0 85.0 1.000 1.000 1.000
v -5.0 74.0 52.0 1.000 1.000 1.000
v -6.0 81.0 50.0 1.000 1.000 1.000
v -6.0 87.0 50.0 1.000 1.000 1.000
v -1.0 56.0 91.0 1.000 1.000 1.000
v 0.0 58.0 96.0 1.000 1.000 1.000
v -1.0 58.0 96.0 1.000 1.000 1.000
v 0.0 56.0 91.0 1.000 1.000 1.000
v 1.0 53.0 85.0 1.000 1.000 1.000
v -2.0 53.0 85.0 1.000 1.000 1.000
v 0.0 60.0 100.0 1.000 1.000 1.000
v -1.0 60.0 100.0 1.000 1.000 1.000
v 0.0 62.0 102.0 1.000 1.000 1.000
v -1.0 62.0 102.0 1.000 1.000 1.000
v 0.0 64.0 104.0 1.000 1.000 1.000
v -1.0 62.0 102.0 1.000 1.000 1.000
v 0.0 62.0 102.0 1.000 1.000 1.000
v -1.0 64.0 104.0 1.000 1.000 1.000
v -1.0 66.0 105.0 1.000 1.000 1.000
v -1.0 64.0 104.0 1.000 1.000 1.000
v 0.0 64.0 104.0 1.000 1.000 1.000
v -1.0 68.0 106.0 1.000 1.000 1.000
v -1.0 67.0 106.0 1.000 1.000 1.000
v -1.0 62.0 102.0 1.000 1.000 1.000
v -1.0 66.0 105.0 1.000 1.000 1.000
v -1.0 58.0 96.0 1.000 1.000 1.000
v -2.0 53.0 85.0 1.000 1.000 1.000
v -1.0 191.0 150.0 1.000 1.000 1.000
v -1.0 200.0 153.0 1.000 1.000 1.000
v -1.0 196.0 152.0 1.000 1.000 1.000
v -1.0 210.0 155.0 1.000 1.000 1.000
v 5.0 81.0 50.0 1.000 1.000 1.000
v 3.0 63.0 57.0 1.000 1.000 1.000
v 4.0 74.0 52.0 1.000 1.000 1.000
v -6.0 201.0 92.0 1.000 1.000 1.000
v -6.0 100.0 55.0 1.000 1.000 1.000
v -6.0 87.0 50.0 1.000 1.000 1.000
v -6.0 211.0 95.0 1.000 1.000 1.000
v -5.0 218.0 102.0 1.000 1.000 1.000
v -6.0 215.0 98.0 1.000 1.000 1.000
v 5.0 100.0 55.0 1.000 1.000 1.000
v 5.0 201.0 92.0 1.000 1.000 1.000
v 5.0 211.0 95.0 1.000 1.000 1.000
v -5.0 70.0 54.0 1.000 1.000 1.000
v -5.0 74.0 52.0 1.000 1.000 1.000
v 4.0 74.0 52.0 1.000 1.000 1.000
v 4.0 70.0 54.0 1.000 1.000 1.000
v 3.0 63.0 57.0 1.000 1.000 1.000
v -4.0 63.0 57.0 1.000 1.000 1.000
v -5.0 78.0 51.0 1.000 1.000 1.000
v 4.0 74.0 52.0 1.000 1.000 1.000
v -5.0 78.0 51.0 1.000 1.000 1.000
v 4.0 78.0 51.0 1.000 1.000 1.000
v -6.0 81.0 50.0 1.000 1.000 1.000
v 5.0 81.0 50.0 1.000 1.000 1.000
v -6.0 84.0 50.0 1.000 1.000 1.000
v 5.0 84.0 50.0 1.000 1.000 1.000
v -6.0 87.0 50.0 1.000 1.000 1.000
v 5.0 87.0 50.0 1.000 1.000 1.000
v 5.0 211.0 95.0 1.000 1.000 1.000
v -6.0 211.0 95.0 1.000 1.000 1.000
v -6.0 213.0 97.0 1.000 1.000 1.000
v 5.0 213.0 97.0 1.000 1.000 1.000
v -6.0 215.0 98.0 1.000 1.000 1.000
v 5.0 215.0 98.0 1.000 1.000 1.000
v -6.0 217.0 100.0 1.000 1.000 1.000
v 5.0 215.0 98.0 1.000 1.000 1.000
v -6.0 217.0 100.0 1.000 1.000 1.000
v -5.0 218.0 102.0 1.000 1.000 1.000
v 4.0 218.0 102.0 1.000 1.000 1.000
v -5.0 222.0 106.0 1.000 1.000 1.000
v 4.0 222.0 106.0 1.000 1.000 1.000
v -5.0 227.0 110.0 1.000 1.000 1.000
v 4.0 227.0 110.0 1.000 1.000 1.000
v -5.0 234.0 116.0 1.000 1.000 1.000
v 4.0 234.0 116.0 1.000 1.000 1.000
v -4.0 244.0 123.0 1.000 1.000 1.000
v 3.0 244.0 123.0 1.000 1.000 1.000
v -4.0 258.0 130.0 1.000 1.000 1.000
v 3.0 258.0 130.0 1.000 1.000 1.000
v -4.0 276.0 139.0 1.000 1.000 1.000
v 3.0 276.0 139.0 1.000 1.000 1.000
v 3.0 276.0 139.0 1.000 1.000 1.000
v -4.0 276.0 139.0 1.000 1.000 1.000
v -4.0 297.0 147.0 1.000 1.000 1.000
v -4.0 318.0 154.0 1.000 1.000 1.000
v 3.0 318.0 154.0 1.000 1.000 1.000
v -1.0 338.0 167.0 1.000 1.000 1.000
v -6.0 211.0 95.0 1.000 1.000 1.000
v 5.0 211.0 95.0 1.000 1.000 1.000
v 5.0 87.0 50.0 1.000 1.000 1.000
v -6.0 87.0 50.0 1.000 1.000 1.000
v 2.0 73.0 29.0 1.000 1.000 1.000
v -1.0 74.0 29.0 1.000 1.000 1.000
v -3.0 73.0 29.0 1.000 1.000 1.000
v -6.0 73.0 30.0 1.000 1.000 1.000
v -9.0 73.0 31.0 1.000 1.000 1.000
v -11.0 72.0 33.0 1.000 1.000 1.000
v -13.0 71.0 35.0 1.000 1.000 1.000
v -14.0 70.0 38.0 1.000 1.000 1.000
v -15.0 69.0 40.0 1.000 1.000 1.000
v -15.0 68.0 43.0 1.000 1.000 1.000
v -15.0 48.0 99.0 1.000 1.000 1.000
v -15.0 47.0 102.0 1.000 1.000 1.000
v -14.0 46.0 104.0 1.000 1.000 1.000
v -13.0 45.0 107.0 1.000 1.000 1.000
v -11.0 44.0 109.0 1.000 1.000 1.000
v -9.0 44.0 111.0 1.000 1.000 1.000
v 2.0 73.0 29.0 1.000 1.000 1.000
v -9.0 44.0 111.0 1.000 1.000 1.000
v -6.0 43.0 112.0 1.000 1.000 1.000
v -3.0 43.0 113.0 1.000 1.000 1.000
v -1.0 43.0 113.0 1.000 1.000 1.000
v 2.0 43.0 113.0 1.000 1.000 1.000
v 5.0 43.0 112.0 1.000 1.000 1.000
v 8.0 44.0 111.0 1.000 1.000 1.000
v 10.0 44.0 109.0 1.000 1.000 1.000
v 12.0 45.0 107.0 1.000 1.000 1.000
v 13.0 46.0 105.0 1.000 1.000 1.000
v 14.0 47.0 103.0 1.000 1.000 1.000
v 14.0 47.0 101.0 1.000 1.000 1.000
v 14.0 48.0 99.0 1.000 1.000 1.000
v 14.0 68.0 43.0 1.000 1.000 1.000
v 14.0 69.0 41.0 1.000 1.000 1.000
v 2.0 73.0 29.0 1.000 1.000 1.000
v 14.0 69.0 41.0 1.000 1.000 1.000
v 14.0 70.0 39.0 1.000 1.000 1.000
v 13.0 70.0 37.0 1.000 1.000 1.000
v 12.0 71.0 35.0 1.000 1.000 1.000
v 10.0 72.0 33.0 1.000 1.000 1.000
v 8.0 73.0 31.0 1.000 1.000 1.000
v 5.0 73.0 30.0 1.000 1.000 1.000
v -3.0 66.0 27.0 1.000 1.000 1.000
v -1.0 67.0 27.0 1.000 1.000 1.000
v 2.0 66.0 27.0 1.000 1.000 1.000
v 5.0 66.0 28.0 1.000 1.000 1.000
v 8.0 66.0 29.0 1.000 1.000 1.000
v 10.0 65.0 31.0 1.000 1.000 1.000
v 12.0 64.0 33.0 1.000 1.000 1.000
v 13.0 63.0 35.0 1.000 1.000 1.000
v -3.0 66.0 27.0 1.000 1.000 1.000
v 13.0 63.0 35.0 1.000 1.000 1.000
v 14.0 63.0 37.0 1.000 1.000 1.000
v 14.0 62.0 38.0 1.000 1.000 1.000
v 14.0 61.0 41.0 1.000 1.000 1.000
v 14.0 41.0 96.0 1.000 1.000 1.000
v 14.0 40.0 99.0 1.000 1.000 1.000
v 14.0 40.0 100.0 1.000 1.000 1.000
v 13.0 39.0 102.0 1.000 1.000 1.000
v 12.0 38.0 104.0 1.000 1.000 1.000
v 10.0 37.0 106.0 1.000 1.000 1.000
v 8.0 37.0 108.0 1.000 1.000 1.000
v 5.0 36.0 110.0 1.000 1.000 1.000
v 2.0 36.0 110.0 1.000 1.000 1.000
v -1.0 36.0 111.0 1.000 1.000 1.000
v -3.0 36.0 110.0 1.000 1.000 1.000
v -3.0 66.0 27.0 1.000 1.000 1.000
v -3.0 36.0 110.0 1.000 1.000 1.000
v -6.0 36.0 110.0 1.000 1.000 1.000
v -9.0 37.0 108.0 1.000 1.000 1.000
v -11.0 37.0 106.0 1.000 1.000 1.000
v -13.0 38.0 104.0 1.000 1.000 1.000
v -14.0 39.0 102.0 1.000 1.000 1.000
v -15.0 40.0 99.0 1.000 1.000 1.000
v -15.0 41.0 97.0 1.000 1.000 1.000
v -15.0 61.0 41.0 1.000 1.000 1.000
v -15.0 62.0 38.0 1.000 1.000 1.000
v -14.0 63.0 35.0 1.000 1.000 1.000
v -13.0 64.0 33.0 1.000 1.000 1.000
v -11.0 65.0 31.0 1.000 1.000 1.000
v -9.0 66.0 29.0 1.000 1.000 1.000
v -6.0 66.0 28.0 1.000 1.000 1.000
v 14.0 40.0 99.0 1.000 1.000 1.000
v 14.0 47.0 101.0 1.000 1.000 1.000
v 13.0 39.0 102.0 1.000 1.000 1.000
v 13.0 46.0 105.0 1.000 1.000 1.000
v 10.0 37.0 106.0 1.000 1.000 1.000
v 10.0 44.0 109.0 1.000 1.000 1.000
v 5.0 36.0 110.0 1.000 1.000 1.000
v 5.0 43.0 112.0 1.000 1.000 1.000
v -1.0 36.0 111.0 1.000 1.000 1.000
v -1.0 43.0 113.0 1.000 1.000 1.000
v -6.0 36.0 110.0 1.000 1.000 1.000
v -6.0 43.0 112.0 1.000 1.000 1.000
v -11.0 37.0 106.0 1.000 1.000 1.000
v -11.0 44.0 109.0 1.000 1.000 1.000
v -14.0 39.0 102.0 1.000 1.000 1.000
v -14.0 46.0 104.0 1.000 1.000 1.000
v -14.0 39.0 102.0 1.000 1.000 1.000
v -14.0 46.0 104.0 1.000 1.000 1.000
v -15.0 41.0 97.0 1.000 1.000 1.000
v -15.0 48.0 99.0 1.000 1.000 1.000
v -15.0 61.0 41.0 1.000 1.000 1.000
v -15.0 68.0 43.0 1.000 1.000 1.000
v -14.0 63.0 35.0 1.000 1.000 1.000
v -14.0 70.0 38.0 1.000 1.000 1.000
v -11.0 65.0 31.0 1.000 1.000 1.000
v -11.0 72.0 33.0 1.000 1.000 1.000
v -6.0 66.0 28.0 1.000 1.000 1.000
v -6.0 73.0 30.0 1.000 1.000 1.000
v -1.0 67.0 27.0 1.000 1.000 1.000
v -1.0 74.0 29.0 1.000 1.000 1.000
v 5.0 66.0 28.0 1.000 1.000 1.000
v 5.0 73.0 30.0 1.000 1.000 1.000
v 5.0 66.0 28.0 1.000 1.000 1.000
v 5.0 73.0 30.0 1.000 1.000 1.000
v 10.0 65.0 31.0 1.000 1.000 1.000
v 10.0 72.0 33.0 1.000 1.000 1.000
v 13.0 63.0 35.0 1.000 1.000 1.000
v 13.0 70.0 37.0 1.000 1.000 1.000
v 14.0 62.0 38.0 1.000 1.000 1.000
v 14.0 69.0 41.0 1.000 1.000 1.000
v 14.0 58.0 50.0 1.000 1.000 1.000
v 14.0 65.0 52.0 1.000 1.000 1.000
v 14.0 44.0 88.0 1.000 1.000 1.000
v 14.0 51.0 90.0 1.000 1.000 1.000
v 14.0 40.0 99.0 1.000 1.000 1.000
v 14.0 47.0 101.0 1.000 1.000 1.000
v -21.0 23.0 -28.0 1.000 1.000 1.000
v -12.0 22.0 -27.0 1.000 1.000 1.000
v -8.0 17.0 -52.0 1.000 1.000 1.000
v -28.0 -42.0 -30.0 1.000 1.000 1.000
v -21.0 -37.0 -53.0 1.000 1.000 1.000
v -9.0 -55.0 -28.0 1.000 1.000 1.000
v -31.0 -24.0 -30.0 1.000 1.000 1.000
v -26.0 -14.0 -54.0 1.000 1.000 1.000
v -30.0 -6.0 -30.0 1.000 1.000 1.000
v -21.0 8.0 -53.0 1.000 1.000 1.000
v -29.0 11.0 -30.0 1.000 1.000 1.000
v -35.0 -20.0 -6.0 1.000 1.000 1.000
v -32.0 -45.0 -6.0 1.000 1.000 1.000
v -33.0 11.0 -6.0 1.000 1.000 1.000
v -28.0 31.0 -5.0 1.000 1.000 1.000
v -20.0 35.0 -4.0 1.000 1.000 1.000
v -22.0 -65.0 -5.0 1.000 1.000 1.000
v -29.0 -61.0 -5.0 1.000 1.000 1.000
v -9.0 -55.0 -28.0 1.000 1.000 1.000
v -28.0 -42.0 -30.0 1.000 1.000 1.000
v -32.0 -45.0 -6.0 1.000 1.000 1.000
v -31.0 -24.0 -30.0 1.000 1.000 1.000
v -29.0 11.0 -30.0 1.000 1.000 1.000
v -30.0 -6.0 -30.0 1.000 1.000 1.000
v -33.0 11.0 -6.0 1.000 1.000 1.000
v -35.0 -20.0 -6.0 1.000 1.000 1.000
v -38.0 11.0 11.0 1.000 1.000 1.000
v -43.0 -4.0 11.0 1.000 1.000 1.000
v -37.0 27.0 11.0 1.000 1.000 1.000
v -40.0 11.0 31.0 1.000 1.000 1.000
v -42.0 28.0 39.0 1.000 1.000 1.000
v -34.0 35.0 31.0 1.000 1.000 1.000
v -25.0 39.0 20.0 1.000 1.000 1.000
v -24.0 39.0 12.0 1.000 1.000 1.000
v -33.0 35.0 12.0 1.000 1.000 1.000
v -42.0 28.0 39.0 1.000 1.000 1.000
v -37.0 27.0 11.0 1.000 1.000 1.000
v -38.0 11.0 11.0 1.000 1.000 1.000
v -40.0 11.0 31.0 1.000 1.000 1.000
v -48.0 -4.0 38.0 1.000 1.000 1.000
v -43.0 -4.0 11.0 1.000 1.000 1.000
v -42.0 -20.0 31.0 1.000 1.000 1.000
v -40.0 -20.0 11.0 1.000 1.000 1.000
v -38.0 -45.0 23.0 1.000 1.000 1.000
v -41.0 -32.0 11.0 1.000 1.000 1.000
v -37.0 -45.0 11.0 1.000 1.000 1.000
v -34.0 -65.0 11.0 1.000 1.000 1.000
v -29.0 -61.0 -5.0 1.000 1.000 1.000
v -22.0 -65.0 -5.0 1.000 1.000 1.000
v -38.0 -57.0 11.0 1.000 1.000 1.000
v -32.0 -45.0 -6.0 1.000 1.000 1.000
v -37.0 -45.0 11.0 1.000 1.000 1.000
v -41.0 -32.0 11.0 1.000 1.000 1.000
v -40.0 -20.0 11.0 1.000 1.000 1.000
v -35.0 -20.0 -6.0 1.000 1.000 1.000
v -43.0 -4.0 11.0 1.000 1.000 1.000
v -33.0 11.0 -6.0 1.000 1.000 1.000
v -38.0 11.0 11.0 1.000 1.000 1.000
v -37.0 27.0 11.0 1.000 1.000 1.000
v -33.0 35.0 12.0 1.000 1.000 1.000
v -28.0 31.0 -5.0 1.000 1.000 1.000
v -33.0 35.0 12.0 1.000 1.000 1.000
v -24.0 39.0 12.0 1.000 1.000 1.000
v -20.0 35.0 -4.0 1.000 1.000 1.000
v -28.0 31.0 -5.0 1.000 1.000 1.000
v -18.0 34.0 33.0 1.000 1.000 1.000
v -28.0 33.0 49.0 1.000 1.000 1.000
v -21.0 30.0 50.0 1.000 1.000 1.000
v -25.0 39.0 20.0 1.000 1.000 1.000
v -25.0 39.0 20.0 1.000 1.000 1.000
v -34.0 35.0 31.0 1.000 1.000 1.000
v -28.0 33.0 49.0 1.000 1.000 1.000
v -36.0 30.0 49.0 1.000 1.000 1.000
v -42.0 28.0 39.0 1.000 1.000 1.000
v -40.0 11.0 31.0 1.000 1.000 1.000
v -36.0 16.0 49.0 1.000 1.000 1.000
v -41.0 23.0 48.0 1.000 1.000 1.000
v -18.0 34.0 33.0 1.000 1.000 1.000
v -21.0 30.0 50.0 1.000 1.000 1.000
v 13.0 27.0 34.0 1.000 1.000 1.000
v -12.0 22.0 -27.0 1.000 1.000 1.000
v 5.0 8.0 -51.0 1.000 1.000 1.000
v -8.0 17.0 -52.0 1.000 1.000 1.000
v 11.0 16.0 -26.0 1.000 1.000 1.000
v -12.0 22.0 -27.0 1.000 1.000 1.000
v -8.0 35.0 -5.0 1.000 1.000 1.000
v -20.0 35.0 -4.0 1.000 1.000 1.000
v 14.0 27.0 -18.0 1.000 1.000 1.000
v 23.0 35.0 11.0 1.000 1.000 1.000
v 4.0 40.0 9.0 1.000 1.000 1.000
v -7.0 36.0 18.0 1.000 1.000 1.000
v -24.0 39.0 12.0 1.000 1.000 1.000
v -25.0 39.0 20.0 1.000 1.000 1.000
v -18.0 34.0 33.0 1.000 1.000 1.000
v -7.0 36.0 18.0 1.000 1.000 1.000
v -24.0 39.0 12.0 1.000 1.000 1.000
v 13.0 27.0 34.0 1.000 1.000 1.000
v 23.0 35.0 11.0 1.000 1.000 1.000
v 21.0 42.0 21.0 1.000 1.000 1.000
v 29.0 37.0 21.0 1.000 1.000 1.000
v 14.0 44.0 30.0 1.000 1.000 1.000
v 4.0 40.0 9.0 1.000 1.000 1.000
v 14.0 -14.0 -59.0 1.000 1.000 1.000
v 5.0 -37.0 -51.0 1.000 1.000 1.000
v 28.0 -14.0 -166.0 1.000 1.000 1.000
v 21.0 -46.0 -166.0 1.000 1.000 1.000
v -8.0 -46.0 -52.0 1.000 1.000 1.000
v 2.0 -58.0 -168.0 1.000 1.000 1.000
v 5.0 8.0 -51.0 1.000 1.000 1.000
v 14.0 -14.0 -59.0 1.000 1.000 1.000
v 21.0 17.0 -166.0 1.000 1.000 1.000
v 28.0 -14.0 -166.0 1.000 1.000 1.000
v 11.0 16.0 -26.0 1.000 1.000 1.000
v 25.0 -10.0 -27.0 1.000 1.000 1.000
v 5.0 8.0 -51.0 1.000 1.000 1.000
v 14.0 -14.0 -59.0 1.000 1.000 1.000
v 23.0 -32.0 -24.0 1.000 1.000 1.000
v 5.0 -37.0 -51.0 1.000 1.000 1.000
v 7.0 -50.0 -27.0 1.000 1.000 1.000
v -8.0 -46.0 -52.0 1.000 1.000 1.000
v -1.0 -55.0 -27.0 1.000 1.000 1.000
v 11.0 16.0 -26.0 1.000 1.000 1.000
v 14.0 27.0 -18.0 1.000 1.000 1.000
v 25.0 -10.0 -27.0 1.000 1.000 1.000
v 27.0 9.0 -15.0 1.000 1.000 1.000
v 25.0 -10.0 -27.0 1.000 1.000 1.000
v 14.0 27.0 -18.0 1.000 1.000 1.000
v -3.0 -26.0 -6.0 1.000 1.000 1.000
v 23.0 -32.0 -24.0 1.000 1.000 1.000
v 4.0 -38.0 -2.0 1.000 1.000 1.000
v -1.0 -54.0 -3.0 1.000 1.000 1.000
v 7.0 -50.0 -27.0 1.000 1.000 1.000
v -13.0 -62.0 -4.0 1.000 1.000 1.000
v -1.0 -55.0 -27.0 1.000 1.000 1.000
v -22.0 -65.0 -5.0 1.000 1.000 1.000
v -9.0 -55.0 -28.0 1.000 1.000 1.000
v -17.0 -34.0 13.0 1.000 1.000 1.000
v -16.0 -18.0 13.0 1.000 1.000 1.000
v -7.0 2.0 18.0 1.000 1.000 1.000
v -11.0 -15.0 15.0 1.000 1.000 1.000
v -3.0 -26.0 -6.0 1.000 1.000 1.000
v 25.0 3.0 17.0 1.000 1.000 1.000
v -7.0 2.0 18.0 1.000 1.000 1.000
v 27.0 9.0 -15.0 1.000 1.000 1.000
v 33.0 24.0 14.0 1.000 1.000 1.000
v 23.0 35.0 11.0 1.000 1.000 1.000
v 14.0 27.0 -18.0 1.000 1.000 1.000
v -16.0 22.0 41.0 1.000 1.000 1.000
v -20.0 10.0 33.0 1.000 1.000 1.000
v 29.0 37.0 21.0 1.000 1.000 1.000
v -8.0 -46.0 -52.0 1.000 1.000 1.000
v -21.0 -37.0 -53.0 1.000 1.000 1.000
v 2.0 -58.0 -168.0 1.000 1.000 1.000
v -16.0 -46.0 -169.0 1.000 1.000 1.000
v -26.0 -14.0 -54.0 1.000 1.000 1.000
v -34.0 -14.0 -170.0 1.000 1.000 1.000
v -26.0 -14.0 -54.0 1.000 1.000 1.000
v -21.0 8.0 -53.0 1.000 1.000 1.000
v -34.0 -14.0 -170.0 1.000 1.000 1.000
v -16.0 17.0 -169.0 1.000 1.000 1.000
v -8.0 17.0 -52.0 1.000 1.000 1.000
v 2.0 20.0 -168.0 1.000 1.000 1.000
v 5.0 8.0 -51.0 1.000 1.000 1.000
v 21.0 17.0 -166.0 1.000 1.000 1.000
v -9.0 -55.0 -28.0 1.000 1.000 1.000
v -21.0 -37.0 -53.0 1.000 1.000 1.000
v -1.0 -55.0 -27.0 1.000 1.000 1.000
v -8.0 -46.0 -52.0 1.000 1.000 1.000
v 19.0 -17.0 77.0 1.000 1.000 1.000
v 21.0 -15.0 67.0 1.000 1.000 1.000
v 18.0 -15.0 71.0 1.000 1.000 1.000
v 27.0 -17.0 65.0 1.000 1.000 1.000
v 20.0 -24.0 79.0 1.000 1.000 1.000
v 28.0 -23.0 65.0 1.000 1.000 1.000
v 28.0 -30.0 65.0 1.000 1.000 1.000
v 20.0 -30.0 78.0 1.000 1.000 1.000
v 22.0 -33.0 66.0 1.000 1.000 1.000
v 20.0 -33.0 72.0 1.000 1.000 1.000
v 16.0 -18.0 68.0 1.000 1.000 1.000
v 17.0 -13.0 44.0 1.000 1.000 1.000
v 21.0 -15.0 67.0 1.000 1.000 1.000
v 23.0 -16.0 43.0 1.000 1.000 1.000
v 27.0 -17.0 65.0 1.000 1.000 1.000
v 24.0 -22.0 42.0 1.000 1.000 1.000
v 24.0 -22.0 42.0 1.000 1.000 1.000
v 27.0 -17.0 65.0 1.000 1.000 1.000
v 28.0 -23.0 65.0 1.000 1.000 1.000
v 24.0 -29.0 42.0 1.000 1.000 1.000
v 28.0 -30.0 65.0 1.000 1.000 1.000
v 18.0 -32.0 43.0 1.000 1.000 1.000
v 22.0 -33.0 66.0 1.000 1.000 1.000
v 15.0 -29.0 44.0 1.000 1.000 1.000
v 16.0 -31.0 67.0 1.000 1.000 1.000
v 12.0 -23.0 45.0 1.000 1.000 1.000
v 14.0 -24.0 68.0 1.000 1.000 1.000
v 14.0 -16.0 45.0 1.000 1.000 1.000
v 16.0 -18.0 68.0 1.000 1.000 1.000
v 17.0 -13.0 44.0 1.000 1.000 1.000
v 21.0 -15.0 67.0 1.000 1.000 1.000
v 23.0 -16.0 43.0 1.000 1.000 1.000
v 20.0 -27.0 35.0 1.000 1.000 1.000
v 20.0 -17.0 36.0 1.000 1.000 1.000
v 24.0 -22.0 42.0 1.000 1.000 1.000
v 24.0 -29.0 42.0 1.000 1.000 1.000
v 17.0 -13.0 44.0 1.000 1.000 1.000
v 14.0 -16.0 45.0 1.000 1.000 1.000
v 18.0 -32.0 43.0 1.000 1.000 1.000
v 15.0 -29.0 44.0 1.000 1.000 1.000
v 12.0 -23.0 45.0 1.000 1.000 1.000
v 26.0 -7.0 52.0 1.000 1.000 1.000
v 27.0 0.0 75.0 1.000 1.000 1.000
v 28.0 -7.0 75.0 1.000 1.000 1.000
v 25.0 -1.0 52.0 1.000 1.000 1.000
v 21.0 -3.0 45.0 1.000 1.000 1.000
v 13.0 -8.0 53.0 1.000 1.000 1.000
v 15.0 -1.0 52.0 1.000 1.000 1.000
v 21.0 -12.0 45.0 1.000 1.000 1.000
v 16.0 -14.0 53.0 1.000 1.000 1.000
v 19.0 2.0 52.0 1.000 1.000 1.000
v 25.0 -14.0 52.0 1.000 1.000 1.000
v 14.0 -1.0 74.0 1.000 1.000 1.000
v 20.0 2.0 75.0 1.000 1.000 1.000
v 11.0 -5.0 74.0 1.000 1.000 1.000
v 14.0 -14.0 75.0 1.000 1.000 1.000
v 19.0 -17.0 52.0 1.000 1.000 1.000
v 27.0 -13.0 76.0 1.000 1.000 1.000
v 21.0 -16.0 75.0 1.000 1.000 1.000
v 16.0 -14.0 53.0 1.000 1.000 1.000
v 14.0 -14.0 75.0 1.000 1.000 1.000
v 21.0 -12.0 45.0 1.000 1.000 1.000
v 25.0 -14.0 52.0 1.000 1.000 1.000
v 28.0 -7.0 75.0 1.000 1.000 1.000
v 18.0 -35.0 36.0 1.000 1.000 1.000
v 12.0 -41.0 45.0 1.000 1.000 1.000
v 14.0 -35.0 45.0 1.000 1.000 1.000
v 19.0 -43.0 35.0 1.000 1.000 1.000
v 15.0 -46.0 44.0 1.000 1.000 1.000
v 17.0 -48.0 43.0 1.000 1.000 1.000
v 22.0 -45.0 42.0 1.000 1.000 1.000
v 16.0 -32.0 45.0 1.000 1.000 1.000
v 21.0 -34.0 43.0 1.000 1.000 1.000
v 22.0 -40.0 43.0 1.000 1.000 1.000
v 15.0 -37.0 66.0 1.000 1.000 1.000
v 20.0 -34.0 65.0 1.000 1.000 1.000
v 13.0 -43.0 65.0 1.000 1.000 1.000
v 16.0 -48.0 64.0 1.000 1.000 1.000
v 21.0 -50.0 63.0 1.000 1.000 1.000
v 28.0 -47.0 64.0 1.000 1.000 1.000
v 22.0 -45.0 42.0 1.000 1.000 1.000
v 28.0 -42.0 64.0 1.000 1.000 1.000
v 28.0 -47.0 64.0 1.000 1.000 1.000
v 22.0 -40.0 43.0 1.000 1.000 1.000
v 26.0 -36.0 65.0 1.000 1.000 1.000
v 21.0 -34.0 43.0 1.000 1.000 1.000
v 20.0 -34.0 65.0 1.000 1.000 1.000
v 18.0 -34.0 69.0 1.000 1.000 1.000
v 15.0 -37.0 66.0 1.000 1.000 1.000
v 21.0 -50.0 63.0 1.000 1.000 1.000
v 20.0 -51.0 70.0 1.000 1.000 1.000
v 17.0 -48.0 75.0 1.000 1.000 1.000
v 17.0 -42.0 76.0 1.000 1.000 1.000
v 16.0 -37.0 75.0 1.000 1.000 1.000
v 16.0 -32.0 45.0 1.000 1.000 1.000
v 27.0 30.0 49.0 1.000 1.000 1.000
v 28.0 30.0 72.0 1.000 1.000 1.000
v 33.0 27.0 49.0 1.000 1.000 1.000
v 34.0 28.0 72.0 1.000 1.000 1.000
v 33.0 21.0 49.0 1.000 1.000 1.000
v 35.0 21.0 71.0 1.000 1.000 1.000
v 32.0 14.0 49.0 1.000 1.000 1.000
v 34.0 15.0 72.0 1.000 1.000 1.000
v 26.0 12.0 49.0 1.000 1.000 1.000
v 28.0 12.0 72.0 1.000 1.000 1.000
v 24.0 15.0 49.0 1.000 1.000 1.000
v 22.0 15.0 72.0 1.000 1.000 1.000
v 21.0 21.0 49.0 1.000 1.000 1.000
v 20.0 22.0 72.0 1.000 1.000 1.000
v 24.0 27.0 49.0 1.000 1.000 1.000
v 22.0 28.0 72.0 1.000 1.000 1.000
v 33.0 27.0 49.0 1.000 1.000 1.000
v 30.0 16.0 41.0 1.000 1.000 1.000
v 31.0 25.0 41.0 1.000 1.000 1.000
v 33.0 21.0 49.0 1.000 1.000 1.000
v 32.0 14.0 49.0 1.000 1.000 1.000
v 27.0 30.0 49.0 1.000 1.000 1.000
v 24.0 27.0 49.0 1.000 1.000 1.000
v 26.0 12.0 49.0 1.000 1.000 1.000
v 24.0 15.0 49.0 1.000 1.000 1.000
v 21.0 21.0 49.0 1.000 1.000 1.000
v 32.0 36.0 72.0 1.000 1.000 1.000
v 31.0 36.0 52.0 1.000 1.000 1.000
v 35.0 40.0 54.0 1.000 1.000 1.000
v 32.0 41.0 74.0 1.000 1.000 1.000
v 19.0 41.0 76.0 1.000 1.000 1.000
v 28.0 38.0 77.0 1.000 1.000 1.000
v 26.0 44.0 74.0 1.000 1.000 1.000
v 21.0 45.0 74.0 1.000 1.000 1.000
v 29.0 34.0 71.0 1.000 1.000 1.000
v 17.0 41.0 72.0 1.000 1.000 1.000
v 15.0 37.0 66.0 1.000 1.000 1.000
v 23.0 33.0 66.0 1.000 1.000 1.000
v 35.0 46.0 56.0 1.000 1.000 1.000
v 30.0 49.0 56.0 1.000 1.000 1.000
v 22.0 50.0 55.0 1.000 1.000 1.000
v 18.0 46.0 51.0 1.000 1.000 1.000
v 15.0 37.0 66.0 1.000 1.000 1.000
v 18.0 46.0 51.0 1.000 1.000 1.000
v 15.0 40.0 54.0 1.000 1.000 1.000
v 23.0 33.0 66.0 1.000 1.000 1.000
v 25.0 33.0 57.0 1.000 1.000 1.000
v 29.0 34.0 71.0 1.000 1.000 1.000
v 31.0 36.0 52.0 1.000 1.000 1.000
v 32.0 36.0 72.0 1.000 1.000 1.000
v 15.0 39.0 49.0 1.000 1.000 1.000
v 21.0 33.0 49.0 1.000 1.000 1.000
v 25.0 33.0 57.0 1.000 1.000 1.000
v 15.0 40.0 54.0 1.000 1.000 1.000
v 18.0 46.0 51.0 1.000 1.000 1.000
v 16.0 44.0 45.0 1.000 1.000 1.000
v 21.0 33.0 49.0 1.000 1.000 1.000
v 28.0 32.0 49.0 1.000 1.000 1.000
v 25.0 33.0 57.0 1.000 1.000 1.000
v 25.0 33.0 57.0 1.000 1.000 1.000
v 28.0 32.0 49.0 1.000 1.000 1.000
v 31.0 36.0 52.0 1.000 1.000 1.000
v 17.0 21.0 37.0 1.000 1.000 1.000
v 13.0 27.0 34.0 1.000 1.000 1.000
v -18.0 34.0 33.0 1.000 1.000 1.000
v 31.0 45.0 44.0 1.000 1.000 1.000
v 30.0 49.0 56.0 1.000 1.000 1.000
v 35.0 46.0 56.0 1.000 1.000 1.000
v 22.0 50.0 55.0 1.000 1.000 1.000
v 24.0 47.0 44.0 1.000 1.000 1.000
v 18.0 46.0 51.0 1.000 1.000 1.000
v 16.0 44.0 45.0 1.000 1.000 1.000
v 21.0 42.0 21.0 1.000 1.000 1.000
v 14.0 44.0 30.0 1.000 1.000 1.000
v 15.0 39.0 49.0 1.000 1.000 1.000
v 13.0 27.0 34.0 1.000 1.000 1.000
v 21.0 33.0 49.0 1.000 1.000 1.000
v 17.0 21.0 37.0 1.000 1.000 1.000
v 31.0 45.0 44.0 1.000 1.000 1.000
v 29.0 37.0 21.0 1.000 1.000 1.000
v 24.0 47.0 44.0 1.000 1.000 1.000
v 21.0 42.0 21.0 1.000 1.000 1.000
v 25.0 3.0 17.0 1.000 1.000 1.000
v 25.0 19.0 37.0 1.000 1.000 1.000
v -7.0 2.0 18.0 1.000 1.000 1.000
v 17.0 21.0 37.0 1.000 1.000 1.000
v -18.0 34.0 33.0 1.000 1.000 1.000
v 35.0 40.0 54.0 1.000 1.000 1.000
v 35.0 39.0 45.0 1.000 1.000 1.000
v 31.0 45.0 44.0 1.000 1.000 1.000
v 35.0 46.0 56.0 1.000 1.000 1.000
v 34.0 34.0 49.0 1.000 1.000 1.000
v 31.0 36.0 52.0 1.000 1.000 1.000
v 28.0 32.0 49.0 1.000 1.000 1.000
v 21.0 33.0 49.0 1.000 1.000 1.000
v 17.0 21.0 37.0 1.000 1.000 1.000
v 28.0 32.0 49.0 1.000 1.000 1.000
v 25.0 19.0 37.0 1.000 1.000 1.000
v 34.0 34.0 49.0 1.000 1.000 1.000
v 31.0 22.0 34.0 1.000 1.000 1.000
v 35.0 39.0 45.0 1.000 1.000 1.000
v 32.0 28.0 29.0 1.000 1.000 1.000
v 31.0 45.0 44.0 1.000 1.000 1.000
v 29.0 37.0 21.0 1.000 1.000 1.000
v 33.0 24.0 14.0 1.000 1.000 1.000
v 25.0 3.0 17.0 1.000 1.000 1.000
v 25.0 31.0 77.0 1.000 1.000 1.000
v 28.0 30.0 72.0 1.000 1.000 1.000
v 24.0 28.0 71.0 1.000 1.000 1.000
v 24.0 13.0 77.0 1.000 1.000 1.000
v 28.0 12.0 72.0 1.000 1.000 1.000
v 34.0 15.0 72.0 1.000 1.000 1.000
v 25.0 15.0 84.0 1.000 1.000 1.000
v 26.0 22.0 85.0 1.000 1.000 1.000
v 35.0 21.0 71.0 1.000 1.000 1.000
v 26.0 28.0 84.0 1.000 1.000 1.000
v 34.0 28.0 72.0 1.000 1.000 1.000
v -8.0 34.0 82.0 1.000 1.000 1.000
v -8.0 31.0 74.0 1.000 1.000 1.000
v 23.0 22.0 68.0 1.000 1.000 1.000
v -8.0 23.0 71.0 1.000 1.000 1.000
v 23.0 15.0 71.0 1.000 1.000 1.000
v -8.0 23.0 71.0 1.000 1.000 1.000
v 23.0 15.0 71.0 1.000 1.000 1.000
v -8.0 15.0 74.0 1.000 1.000 1.000
v 25.0 15.0 84.0 1.000 1.000 1.000
v 26.0 22.0 85.0 1.000 1.000 1.000
v -8.0 15.0 90.0 1.000 1.000 1.000
v -8.0 23.0 92.0 1.000 1.000 1.000
v 26.0 28.0 84.0 1.000 1.000 1.000
v -8.0 31.0 90.0 1.000 1.000 1.000
v 25.0 31.0 77.0 1.000 1.000 1.000
v -8.0 34.0 82.0 1.000 1.000 1.000
v -24.0 0.0 98.0 1.000 1.000 1.000
v 15.0 2.0 79.0 1.000 1.000 1.000
v -23.0 3.0 90.0 1.000 1.000 1.000
v 15.0 -1.0 85.0 1.000 1.000 1.000
v 16.0 0.0 73.0 1.000 1.000 1.000
v 17.0 -7.0 70.0 1.000 1.000 1.000
v -22.0 0.0 82.0 1.000 1.000 1.000
v 15.0 2.0 79.0 1.000 1.000 1.000
v 20.0 2.0 75.0 1.000 1.000 1.000
v 16.0 0.0 73.0 1.000 1.000 1.000
v 27.0 0.0 75.0 1.000 1.000 1.000
v 15.0 -1.0 85.0 1.000 1.000 1.000
v 14.0 51.0 69.0 1.000 1.000 1.000
v 14.0 -14.0 29.0 1.000 1.000 1.000
v 10.0 55.0 59.0 1.000 1.000 1.000
v 20.0 -19.0 43.0 1.000 1.000 1.000
v 10.0 -85.0 8.0 1.000 1.000 1.000
v 14.0 -89.0 18.0 1.000 1.000 1.000
v -1.0 -12.0 24.0 1.000 1.000 1.000
v -1.0 56.0 55.0 1.000 1.000 1.000
v -1.0 -84.0 4.0 1.000 1.000 1.000
v -15.0 -14.0 29.0 1.000 1.000 1.000
v -11.0 55.0 59.0 1.000 1.000 1.000
v -11.0 -85.0 8.0 1.000 1.000 1.000
v -21.0 -19.0 43.0 1.000 1.000 1.000
v -15.0 51.0 69.0 1.000 1.000 1.000
v -15.0 -89.0 18.0 1.000 1.000 1.000
v -21.0 -19.0 43.0 1.000 1.000 1.000
v -15.0 -24.0 57.0 1.000 1.000 1.000
v -11.0 48.0 78.0 1.000 1.000 1.000
v -15.0 51.0 69.0 1.000 1.000 1.000
v -11.0 -92.0 27.0 1.000 1.000 1.000
v -15.0 -89.0 18.0 1.000 1.000 1.000
v -1.0 -26.0 62.0 1.000 1.000 1.000
v -1.0 46.0 83.0 1.000 1.000 1.000
v -1.0 -94.0 32.0 1.000 1.000 1.000
v 14.0 -24.0 57.0 1.000 1.000 1.000
v 10.0 48.0 78.0 1.000 1.000 1.000
v 10.0 -92.0 27.0 1.000 1.000 1.000
v 20.0 -19.0 43.0 1.000 1.000 1.000
v 14.0 51.0 69.0 1.000 1.000 1.000
v 13.0 -24.0 57.0 1.000 1.000 1.000
v 14.0 -89.0 18.0 1.000 1.000 1.000
v -1.0 -94.0 32.0 1.000 1.000 1.000
v -1.0 -101.0 29.0 1.000 1.000 1.000
v 10.0 -99.0 25.0 1.000 1.000 1.000
v 10.0 -92.0 27.0 1.000 1.000 1.000
v 14.0 -96.0 15.0 1.000 1.000 1.000
v 14.0 -89.0 18.0 1.000 1.000 1.000
v 10.0 -92.0 5.0 1.000 1.000 1.000
v 10.0 -85.0 8.0 1.000 1.000 1.000
v -1.0 -91.0 1.0 1.000 1.000 1.000
v -1.0 -84.0 4.0 1.000 1.000 1.000
v -11.0 -92.0 5.0 1.000 1.000 1.000
v -11.0 -85.0 8.0 1.000 1.000 1.000
v -15.0 -96.0 15.0 1.000 1.000 1.000
v -15.0 -89.0 18.0 1.000 1.000 1.000
v -11.0 -99.0 25.0 1.000 1.000 1.000
v -11.0 -92.0 27.0 1.000 1.000 1.000
v -1.0 -91.0 1.0 1.000 1.000 1.000
v 10.0 -92.0 5.0 1.000 1.000 1.000
v 14.0 -96.0 15.0 1.000 1.000 1.000
v -11.0 -92.0 5.0 1.000 1.000 1.000
v 10.0 -99.0 25.0 1.000 1.000 1.000
v -15.0 -96.0 15.0 1.000 1.000 1.000
v -1.0 -101.0 29.0 1.000 1.000 1.000
v -11.0 -99.0 25.0 1.000 1.000 1.000
v -36.0 16.0 49.0 1.000 1.000 1.000
v -40.0 11.0 31.0 1.000 1.000 1.000
v -32.0 9.0 49.0 1.000 1.000 1.000
v -35.0 -25.0 51.0 1.000 1.000 1.000
v -31.0 -19.0 48.0 1.000 1.000 1.000
v -42.0 -20.0 31.0 1.000 1.000 1.000
v -46.0 -32.0 38.0 1.000 1.000 1.000
v -39.0 -33.0 53.0 1.000 1.000 1.000
v -38.0 -45.0 23.0 1.000 1.000 1.000
v -31.0 -50.0 36.0 1.000 1.000 1.000
v -25.0 -47.0 34.0 1.000 1.000 1.000
v -42.0 -56.0 27.0 1.000 1.000 1.000
v -35.0 -57.0 39.0 1.000 1.000 1.000
v -27.0 -69.0 12.0 1.000 1.000 1.000
v -34.0 -65.0 11.0 1.000 1.000 1.000
v -22.0 -65.0 -5.0 1.000 1.000 1.000
v -27.0 -69.0 12.0 1.000 1.000 1.000
v -27.0 -69.0 20.0 1.000 1.000 1.000
v -34.0 -65.0 11.0 1.000 1.000 1.000
v -36.0 -65.0 23.0 1.000 1.000 1.000
v -38.0 -57.0 11.0 1.000 1.000 1.000
v -42.0 -56.0 27.0 1.000 1.000 1.000
v -37.0 -45.0 11.0 1.000 1.000 1.000
v -38.0 -45.0 23.0 1.000 1.000 1.000
v -46.0 -32.0 38.0 1.000 1.000 1.000
v -41.0 -32.0 11.0 1.000 1.000 1.000
v -40.0 -20.0 11.0 1.000 1.000 1.000
v -42.0 -20.0 31.0 1.000 1.000 1.000
v -29.0 3.0 86.0 1.000 1.000 1.000
v -20.0 0.0 84.0 1.000 1.000 1.000
v -32.0 9.0 49.0 1.000 1.000 1.000
v -27.0 2.0 48.0 1.000 1.000 1.000
v -20.0 0.0 84.0 1.000 1.000 1.000
v -17.0 -8.0 84.0 1.000 1.000 1.000
v -27.0 2.0 48.0 1.000 1.000 1.000
v -24.0 -5.0 48.0 1.000 1.000 1.000
v -39.0 -9.0 87.0 1.000 1.000 1.000
v -36.0 -1.0 87.0 1.000 1.000 1.000
v -46.0 -6.0 51.0 1.000 1.000 1.000
v -41.0 2.0 50.0 1.000 1.000 1.000
v -29.0 3.0 86.0 1.000 1.000 1.000
v -32.0 9.0 49.0 1.000 1.000 1.000
v -48.0 -4.0 38.0 1.000 1.000 1.000
v -40.0 11.0 31.0 1.000 1.000 1.000
v -36.0 30.0 49.0 1.000 1.000 1.000
v -14.0 34.0 79.0 1.000 1.000 1.000
v -28.0 33.0 49.0 1.000 1.000 1.000
v -21.0 31.0 82.0 1.000 1.000 1.000
v -41.0 23.0 48.0 1.000 1.000 1.000
v -21.0 31.0 82.0 1.000 1.000 1.000
v -36.0 30.0 49.0 1.000 1.000 1.000
v -25.0 23.0 84.0 1.000 1.000 1.000
v -36.0 16.0 49.0 1.000 1.000 1.000
v -22.0 15.0 83.0 1.000 1.000 1.000
v -18.0 22.0 50.0 1.000 1.000 1.000
v -7.0 14.0 76.0 1.000 1.000 1.000
v -22.0 15.0 50.0 1.000 1.000 1.000
v -4.0 22.0 74.0 1.000 1.000 1.000
v -21.0 30.0 50.0 1.000 1.000 1.000
v -7.0 31.0 75.0 1.000 1.000 1.000
v -28.0 33.0 49.0 1.000 1.000 1.000
v -14.0 34.0 79.0 1.000 1.000 1.000
v -21.0 31.0 82.0 1.000 1.000 1.000
v -8.0 31.0 90.0 1.000 1.000 1.000
v -14.0 34.0 79.0 1.000 1.000 1.000
v -8.0 23.0 92.0 1.000 1.000 1.000
v -25.0 23.0 84.0 1.000 1.000 1.000
v -22.0 15.0 83.0 1.000 1.000 1.000
v -8.0 15.0 90.0 1.000 1.000 1.000
v -8.0 34.0 82.0 1.000 1.000 1.000
v -7.0 31.0 75.0 1.000 1.000 1.000
v 4.0 -38.0 -2.0 1.000 1.000 1.000
v -17.0 -34.0 13.0 1.000 1.000 1.000
v -13.0 -46.0 13.0 1.000 1.000 1.000
v -1.0 -54.0 -3.0 1.000 1.000 1.000
v -14.0 -58.0 13.0 1.000 1.000 1.000
v -19.0 -66.0 13.0 1.000 1.000 1.000
v -13.0 -62.0 -4.0 1.000 1.000 1.000
v -13.0 -62.0 -4.0 1.000 1.000 1.000
v -19.0 -66.0 13.0 1.000 1.000 1.000
v -27.0 -69.0 12.0 1.000 1.000 1.000
v -22.0 -65.0 -5.0 1.000 1.000 1.000
v -7.0 2.0 18.0 1.000 1.000 1.000
v -20.0 10.0 33.0 1.000 1.000 1.000
v -21.0 -6.0 41.0 1.000 1.000 1.000
v -11.0 -15.0 15.0 1.000 1.000 1.000
v -16.0 -18.0 13.0 1.000 1.000 1.000
v -25.0 -17.0 32.0 1.000 1.000 1.000
v -19.0 -30.0 41.0 1.000 1.000 1.000
v -17.0 -34.0 13.0 1.000 1.000 1.000
v -18.0 -46.0 25.0 1.000 1.000 1.000
v -13.0 -46.0 13.0 1.000 1.000 1.000
v -16.0 -58.0 29.0 1.000 1.000 1.000
v -14.0 -58.0 13.0 1.000 1.000 1.000
v -14.0 -58.0 13.0 1.000 1.000 1.000
v -16.0 -58.0 29.0 1.000 1.000 1.000
v -20.0 -66.0 25.0 1.000 1.000 1.000
v -19.0 -66.0 13.0 1.000 1.000 1.000
v -27.0 -69.0 20.0 1.000 1.000 1.000
v -27.0 -69.0 12.0 1.000 1.000 1.000
vt 0.9930 0.4566
vt 0.9939 0.4249
vt 0.9870 0.4327
vt 0.9913 0.4128
vt 0.9843 0.3888
vt 0.9783 0.4051
vt 0.9735 0.3580
vt 0.9687 0.3729
vt 0.9673 0.3495
vt 0.9624 0.3577
vt 0.0140 0.4368
vt 0.0087 0.4128
vt 0.0061 0.4249
vt 0.0115 0.4523
vt 0.0217 0.4051
vt 0.0157 0.3888
vt 0.0313 0.3729
vt 0.0265 0.3580
vt 0.0367 0.3575
vt 0.0327 0.3495
vt 0.9391 0.3022
vt 0.9356 0.3060
vt 0.9381 0.3026
vt 0.9051 0.2538
vt 0.0644 0.3060
vt 0.0609 0.3022
vt 0.0619 0.3026
vt 0.0935 0.2553
vt 0.9948 0.4288
vt 0.9959 0.4365
vt 0.9878 0.5991
vt 0.9947 0.5277
vt 0.0041 0.4365
vt 0.0110 0.4566
vt 0.0096 0.4644
vt 0.0027 0.4487
vt 0.0059 0.5277
vt 0.0213 0.6424
vt 0.9787 0.6424
vt 0.0224 0.6460
vt 0.0166 0.6149
vt 0.9807 0.6261
vt 0.9715 0.6664
vt 0.9749 0.6504
vt 0.9743 0.6581
vt 0.9753 0.6545
vt 0.9765 0.6496
vt 0.9776 0.6460
vt 0.9825 0.6187
vt 0.9834 0.6149
vt 0.0251 0.6504
vt 0.0285 0.6664
vt 0.0212 0.6345
vt 0.0193 0.6261
vt 0.5000 0.9803
vt 0.5000 0.9672
vt 0.5000 0.9827
vt 0.5000 0.9659
vt 0.5000 0.9640
vt 0.5000 0.9160
vt 0.5000 0.9190
vt 0.5000 0.8247
vt 0.5000 0.8653
vt 0.0247 0.6545
vt 0.0235 0.6496
vt 0.0257 0.6581
vt 0.9912 0.4445
vt 0.9920 0.4524
vt 0.9788 0.6345
vt 0.0017 0.5119
vt 0.9983 0.5119
vt 0.5000 0.6979
vt 0.5000 0.5435
vt 0.5000 0.7093
vt 0.5000 0.5000
vt 0.5000 0.2860
vt 0.5000 0.1862
vt 0.5000 0.1484
vt 0.5000 0.1565
vt 0.5000 0.1950
vt 0.5000 0.2019
vt 0.5000 0.2393
vt 0.5000 0.2748
vt 0.5000 0.3102
vt 0.4921 0.3219
vt 0.5000 0.2940
vt 0.5000 0.2468
vt 0.5000 0.0298
vt 0.5000 0.9702
vt 0.9642 0.5635
vt 0.6897 0.6581
vt 0.4685 0.6696
vt 0.2233 0.6423
vt 0.0140 0.5395
vt 0.0021 0.4842
vt 0.0844 0.4050
vt 0.5000 0.3301
vt 0.9313 0.4129
vt 0.9979 0.4842
vt 1.0000 0.5000
vt 0.1953 0.3320
vt 0.1953 0.3359
vt 0.1123 0.3838
vt 0.2305 0.8252
vt 0.1416 0.7969
vt 0.2373 0.9209
vt 0.2207 0.6875
vt 0.1289 0.6260
vt 0.2109 0.5518
vt 0.1172 0.4541
vt 0.2012 0.4170
vt 0.3770 0.6377
vt 0.3896 0.8203
vt 0.3594 0.3955
vt 0.3486 0.2471
vt 0.3477 0.2197
vt 0.4004 0.9766
vt 0.3984 0.9434
vt 0.5752 0.3662
vt 0.5840 0.4854
vt 0.5674 0.2461
vt 0.6475 0.3564
vt 0.6680 0.2305
vt 0.6348 0.1777
vt 0.5898 0.1562
vt 0.5605 0.1602
vt 0.5625 0.1875
vt 0.6846 0.4707
vt 0.6650 0.5986
vt 0.5928 0.6084
vt 0.6484 0.7852
vt 0.5986 0.6992
vt 0.6055 0.7910
vt 0.6162 0.9443
vt 0.6123 0.8818
vt 0.6338 0.2012
vt 0.7617 0.1846
vt 0.7607 0.2090
vt 0.6494 0.1621
vt 0.6973 0.1855
vt 0.6992 0.2061
vt 0.7070 0.3164
vt 0.7031 0.2598
vt 0.5488 0.9111
vt 0.5068 0.8848
vt 0.7139 0.8633
vt 0.4404 0.9082
vt 0.5488 0.9102
vt 0.6611 0.6670
vt 0.8076 0.6719
vt 0.4990 0.6611
vt 0.4541 0.3516
vt 0.6836 0.3613
vt 0.8193 0.3164
vt 0.9990 0.3447
vt 1.0225 0.3018
vt 0.9561 0.2334
vt 0.5811 0.2256
vt 0.5205 0.2949
vt 0.4209 0.2969
vt 0.6084 0.2471
vt 0.8467 0.5195
vt 0.8477 0.6406
vt 0.9863 0.5430
vt 0.9873 0.6943
vt 0.8486 0.6914
vt 0.9883 0.7568
vt 0.8457 0.3984
vt 0.9844 0.3916
vt 0.8896 0.3818
vt 0.8867 0.4805
vt 0.9971 0.4287
vt 0.9932 0.5498
vt 0.8809 0.6406
vt 0.9893 0.6709
vt 0.8779 0.7344
vt 0.9873 0.7207
vt 0.8770 0.7637
vt 0.8994 0.3818
vt 0.7012 0.3193
vt 0.8955 0.4805
vt 0.6973 0.4316
vt 0.6934 0.5547
vt 0.8896 0.6406
vt 0.6895 0.6631
vt 0.6865 0.7471
vt 0.8867 0.7344
vt 0.6855 0.7871
vt 0.8857 0.7637
vt 0.6846 0.8057
vt 0.8857 0.7607
vt 0.4180 0.6240
vt 0.4209 0.5381
vt 0.4062 0.4326
vt 0.4238 0.4756
vt 0.4248 0.4268
vt 0.4414 0.3154
vt 0.4570 0.2539
vt 0.3018 0.3184
vt 0.3359 0.3828
vt 0.4141 0.2422
vt 0.4648 0.7627
vt 0.4570 0.7080
vt 0.0869 0.9092
vt 0.0771 0.8330
vt 0.4473 0.5732
vt 0.0635 0.6484
vt 0.4395 0.4395
vt 0.0537 0.4639
vt 0.4395 0.3828
vt 0.0527 0.3857
vt 0.4473 0.4375
vt 0.0625 0.4619
vt 0.5469 0.7979
vt 0.5498 0.8008
vt 0.7090 0.6445
vt 0.7402 0.6396
vt 0.7139 0.6357
vt 0.7812 0.6562
vt 0.7012 0.6855
vt 0.7812 0.6992
vt 0.7666 0.7422
vt 0.6943 0.7285
vt 0.7197 0.7598
vt 0.6924 0.7549
vt 0.6943 0.6572
vt 0.3389 0.5381
vt 0.1582 0.5898
vt 0.3408 0.5547
vt 0.1592 0.6074
vt 0.3428 0.6172
vt 0.1641 0.6689
vt 0.3457 0.6816
vt 0.1641 0.7334
vt 0.3467 0.7158
vt 0.1650 0.7686
vt 0.3447 0.6943
vt 0.1641 0.7510
vt 0.3428 0.6348
vt 0.1611 0.6914
vt 0.3398 0.5684
vt 0.1592 0.6250
vt 0.4053 0.6484
vt 0.4014 0.5586
vt 0.2988 0.4639
vt 0.1719 0.4121
vt 0.1758 0.4707
vt 0.2959 0.4043
vt 0.3340 0.4258
vt 0.2998 0.4844
vt 0.2969 0.4199
vt 0.3389 0.5117
vt 0.3027 0.5400
vt 0.2949 0.3896
vt 0.3027 0.5254
vt 0.1729 0.4326
vt 0.1709 0.3975
vt 0.1758 0.4971
vt 0.1787 0.5527
vt 0.3037 0.5605
vt 0.1777 0.5332
vt 0.1797 0.5674
vt 0.3701 0.7031
vt 0.3369 0.7803
vt 0.3281 0.7236
vt 0.3818 0.7783
vt 0.3447 0.8301
vt 0.3477 0.8486
vt 0.3438 0.8193
vt 0.3252 0.6982
vt 0.3271 0.7129
vt 0.3350 0.7646
vt 0.2217 0.8018
vt 0.2178 0.7725
vt 0.2305 0.8574
vt 0.2373 0.9082
vt 0.2402 0.9229
vt 0.2363 0.8936
vt 0.2295 0.8379
vt 0.2207 0.7871
vt 0.1992 0.7881
vt 0.2100 0.9453
vt 0.1777 0.9365
vt 0.1680 0.8828
vt 0.1699 0.8252
vt 0.1777 0.1758
vt 0.0215 0.1699
vt 0.1758 0.1934
vt 0.0205 0.1865
vt 0.1738 0.2529
vt 0.0195 0.2461
vt 0.1719 0.3154
vt 0.0156 0.3086
vt 0.1709 0.3496
vt 0.0156 0.3428
vt 0.1729 0.3281
vt 0.0166 0.3252
vt 0.1748 0.2705
vt 0.0195 0.2676
vt 0.1768 0.2061
vt 0.0215 0.2031
vt 0.2246 0.3027
vt 0.2275 0.2158
vt 0.9609 0.1338
vt 0.8203 0.0352
vt 0.8496 0.0137
vt 0.9482 0.1426
vt 0.8965 0.2480
vt 0.9688 0.1953
vt 0.8984 0.1787
vt 0.8467 0.2168
vt 0.9355 0.1523
vt 0.8174 0.2383
vt 0.8340 0.2266
vt 0.8818 0.1914
vt 0.8369 0.0225
vt 0.7891 0.0605
vt 0.7354 0.0967
vt 0.7061 0.1182
vt 0.7188 0.1094
vt 0.8008 0.1025
vt 0.6113 0.1318
vt 0.5557 0.1182
vt 0.5254 0.1016
vt 0.5889 0.1201
vt 0.6201 0.1084
vt 0.6104 0.1523
vt 0.3574 0.2705
vt 0.3594 0.2793
vt 0.3467 0.2656
vt 0.2500 0.2480
vt 0.2646 0.2627
vt 0.2666 0.2363
vt 0.4658 0.2803
vt 0.5098 0.2891
vt 0.8555 0.2588
vt 0.4707 0.1689
vt 0.5322 0.0918
vt 0.5967 0.0967
vt 0.5518 0.1680
vt 0.3350 0.3340
vt 0.3311 0.3232
vt 0.3398 0.2549
vt 0.2598 0.2139
vt 0.3008 0.2217
vt 0.3125 0.1953
vt 0.2529 0.1816
vt 0.2812 0.2500
vt 0.2617 0.2529
vt 0.3525 0.3193
vt 0.3750 0.2881
vt 0.6367 0.1914
vt 0.6709 0.2002
vt 0.6494 0.2148
vt 0.6084 0.3281
vt 0.6426 0.3359
vt 0.6758 0.3223
vt 0.5957 0.3047
vt 0.6025 0.2559
vt 0.6914 0.2754
vt 0.6162 0.2080
vt 0.6963 0.2266
vt 0.4668 0.1406
vt 0.4824 0.1689
vt 0.6465 0.2646
vt 0.4785 0.2314
vt 0.6289 0.3115
vt 0.4570 0.2891
vt 0.4141 0.2812
vt 0.4229 0.2197
vt 0.4404 0.1611
vt 0.4873 0.4287
vt 0.7686 0.4229
vt 0.4941 0.4160
vt 0.7637 0.4336
vt 0.7656 0.4561
vt 0.7568 0.5117
vt 0.4902 0.4561
vt 0.1465 0.4033
vt 0.1826 0.4238
vt 0.1133 0.4336
vt 1.2529 0.7715
vt 0.0010 1.0068
vt 1.2539 0.9043
vt 0.0000 0.8242
vt -1.2529 0.9316
vt -1.2539 0.7998
vt 0.0000 1.0000
vt 1.2529 0.8994
vt -1.2539 0.9268
vt -0.0029 0.8076
vt 1.2500 0.7598
vt -1.2559 0.7871
vt -0.0059 0.5430
vt 1.2480 0.5684
vt -1.2588 0.5957
vt -0.0068 0.3604
vt 1.2471 0.4355
vt -1.2588 0.4639
vt -0.0059 0.3682
vt 1.2480 0.4414
vt -1.2578 0.4688
vt -0.0029 0.5596
vt 1.2510 0.5801
vt -1.2559 0.6084
vt -0.0029 0.5527
vt 0.5671 0.6696
vt 0.4329 0.6696
vt 0.8008 0.6346
vt 0.8985 0.6026
vt 0.9956 0.5198
vt 0.9956 0.4802
vt 0.8985 0.3974
vt 0.8008 0.3654
vt 0.5671 0.3304
vt 0.4329 0.3304
vt 0.1992 0.3654
vt 0.1015 0.3974
vt 0.0044 0.4802
vt 0.0044 0.5198
vt 0.1015 0.6026
vt 0.1992 0.6346
vt 0.7119 0.3701
vt 0.7363 0.6270
vt 0.7227 0.5791
vt 0.6992 0.6836
vt 0.7510 0.6826
vt 0.6973 0.8184
vt 0.6846 0.7959
vt 0.6699 0.8730
vt 0.7109 0.8682
vt 0.6191 0.9775
vt 0.6475 0.9736
vt 0.6592 0.9385
vt 0.8428 0.3770
vt 0.8379 0.4014
vt 0.7100 0.4199
vt 0.8379 0.4619
vt 0.7109 0.4746
vt 0.8584 0.4658
vt 0.8516 0.4043
vt 0.7314 0.4785
vt 0.7227 0.4229
vt 0.8154 0.1602
vt 0.8174 0.1836
vt 0.8223 0.2441
vt 0.8262 0.3066
vt 0.7031 0.2656
vt 0.8262 0.3105
vt 0.7070 0.3203
vt 0.8213 0.2500
vt 0.6992 0.2100
vt 0.8174 0.1885
vt 0.3867 0.1523
vt 0.4395 0.1367
vt 0.3545 0.2080
vt 0.3613 0.2715
vt 0.4824 0.1709
vt 0.4160 0.6895
vt 0.4141 0.7529
vt 0.4121 0.7949
vt 0.4111 0.8135
vt 0.2969 0.4668
vt 0.3311 0.5312
vt 0.2920 0.5957
vt 0.3613 0.6855
vt 0.3408 0.7500
vt 0.3574 0.7920
vt 0.3750 0.8115
vn 0.986 0.087 0.142
vn 0.988 0.150 0.040
vn 0.974 0.135 0.182
vn 0.983 0.174 0.063
vn 0.969 0.222 0.111
vn 0.957 0.190 0.221
vn 0.947 0.284 0.150
vn 0.937 0.254 0.238
vn 0.935 0.301 0.190
vn 0.925 0.285 0.253
vn -0.972 0.126 0.198
vn -0.983 0.174 0.063
vn -0.988 0.150 0.040
vn -0.977 0.095 0.191
vn -0.957 0.190 0.221
vn -0.969 0.222 0.111
vn -0.937 0.254 0.238
vn -0.947 0.284 0.150
vn -0.969 0.222 0.111
vn -0.957 0.190 0.221
vn -0.927 0.285 0.245
vn -0.935 0.301 0.190
vn 0.935 0.301 0.190
vn 0.878 0.396 0.269
vn 0.871 0.388 0.301
vn 0.925 0.285 0.253
vn 0.876 0.395 0.276
vn 0.008 0.396 0.918
vn 0.000 0.373 0.928
vn 0.000 0.373 0.928
vn 0.810 0.492 0.318
vn -0.871 0.388 0.301
vn -0.878 0.396 0.269
vn -0.935 0.301 0.190
vn -0.927 0.285 0.245
vn -0.876 0.395 0.276
vn 0.000 0.373 0.928
vn 0.000 0.373 0.928
vn -0.008 0.396 0.918
vn -0.813 0.489 0.316
vn 0.986 0.087 0.142
vn 0.990 0.142 0.024
vn 0.988 0.150 0.040
vn 0.992 0.127 0.016
vn 0.976 -0.198 -0.095
vn 0.989 -0.055 0.135
vn -0.992 0.127 0.016
vn -0.977 0.095 0.191
vn -0.988 0.150 0.040
vn -0.978 0.087 0.189
vn -0.981 0.071 0.182
vn -0.995 0.103 0.008
vn -0.988 -0.055 0.142
vn -0.957 -0.285 0.047
vn 0.976 -0.198 -0.095
vn 0.989 -0.055 0.135
vn 0.957 -0.285 0.047
vn -0.955 -0.292 0.047
vn -0.967 -0.230 -0.111
vn 0.961 -0.252 -0.110
vn 0.943 -0.333 -0.008
vn 0.950 -0.301 -0.087
vn 0.961 -0.252 -0.110
vn 0.949 -0.316 0.016
vn 0.943 -0.333 -0.008
vn 0.951 -0.309 0.032
vn 0.953 -0.299 0.047
vn 0.955 -0.292 0.047
vn 0.965 -0.237 -0.111
vn 0.976 -0.198 -0.095
vn 0.967 -0.230 -0.111
vn 0.957 -0.285 0.047
vn -0.955 -0.292 0.047
vn -0.950 -0.301 -0.087
vn -0.943 -0.333 -0.008
vn -0.958 -0.269 -0.103
vn -0.961 -0.252 -0.110
vn -0.967 -0.230 -0.111
vn 0.000 -0.961 0.278
vn 0.000 -0.934 0.356
vn 0.000 -0.934 0.356
vn 0.000 -0.961 0.278
vn 0.000 -0.965 0.261
vn 0.000 -0.965 0.261
vn 0.000 -0.932 0.363
vn 0.000 -0.932 0.363
vn 0.000 -0.928 0.373
vn 0.000 -0.928 0.373
vn 0.000 -0.832 0.555
vn 0.000 -0.838 0.546
vn 0.000 -0.838 0.546
vn 0.000 -0.832 0.555
vn 0.000 -0.649 0.760
vn 0.000 -0.731 0.683
vn 0.000 -0.731 0.683
vn 0.000 -0.641 0.768
vn -0.955 -0.292 0.047
vn -0.951 -0.309 0.032
vn -0.953 -0.299 0.047
vn -0.949 -0.316 0.016
vn -0.943 -0.333 -0.008
vn 0.986 0.087 0.142
vn 0.982 0.111 0.151
vn 0.984 0.095 0.151
vn 0.974 0.135 0.182
vn 0.961 -0.252 -0.110
vn 0.950 -0.301 -0.087
vn 0.958 -0.269 -0.103
vn -0.997 -0.024 0.079
vn -0.997 -0.024 0.079
vn -0.997 -0.024 0.079
vn -0.997 -0.024 0.079
vn -0.997 -0.024 0.079
vn -0.997 -0.024 0.079
vn 0.997 -0.024 0.079
vn 0.997 -0.024 0.079
vn 0.997 -0.024 0.079
vn 0.000 -0.396 -0.918
vn 0.000 -0.087 -0.996
vn 0.000 -0.396 -0.918
vn 0.000 -0.396 -0.918
vn 0.000 -0.419 -0.908
vn 0.000 -0.419 -0.908
vn 0.000 -0.087 -0.996
vn 0.000 -0.396 -0.918
vn 0.000 -0.087 -0.996
vn 0.000 0.000 -1.000
vn 0.000 -0.087 -0.996
vn 0.000 -0.087 -0.996
vn 0.000 -0.087 -0.996
vn 0.000 -0.087 -0.996
vn 0.000 -0.087 -0.996
vn 0.000 0.000 -1.000
vn 0.000 0.428 -0.904
vn 0.000 0.628 -0.779
vn 0.000 0.628 -0.779
vn 0.000 0.703 -0.711
vn 0.000 0.628 -0.779
vn 0.000 0.703 -0.711
vn 0.000 0.628 -0.779
vn 0.000 0.703 -0.711
vn 0.000 0.628 -0.779
vn 0.000 0.628 -0.779
vn 0.000 0.703 -0.711
vn 0.000 0.687 -0.727
vn 0.000 0.687 -0.727
vn 0.000 0.687 -0.727
vn 0.000 0.610 -0.792
vn 0.000 0.596 -0.803
vn 0.000 0.610 -0.792
vn 0.000 0.521 -0.853
vn 0.000 0.521 -0.853
vn 0.000 0.450 -0.893
vn 0.000 0.450 -0.893
vn 0.000 0.380 -0.925
vn 0.000 0.380 -0.925
vn 0.000 0.380 -0.925
vn 0.000 0.380 -0.925
vn -0.016 0.356 -0.934
vn 0.000 0.412 -0.911
vn 0.000 0.412 -0.911
vn 0.000 0.506 -0.862
vn 0.000 0.628 -0.779
vn 0.000 0.428 -0.904
vn 0.000 0.000 -1.000
vn 0.000 -0.087 -0.996
vn 0.000 0.940 0.340
vn 0.000 0.940 0.340
vn 0.000 0.940 0.340
vn 0.000 0.940 0.340
vn 0.000 0.940 0.340
vn 0.000 0.940 0.340
vn 0.000 0.940 0.340
vn 0.000 0.940 0.340
vn 0.000 0.940 0.340
vn 0.000 0.940 0.340
vn 0.000 0.940 0.340
vn 0.000 0.940 0.340
vn 0.000 0.940 0.340
vn 0.000 0.940 0.340
vn 0.000 0.940 0.340
vn 0.000 0.940 0.340
vn 0.000 0.940 0.340
vn 0.000 0.940 0.340
vn 0.000 0.940 0.340
vn 0.000 0.940 0.340
vn 0.000 0.940 0.340
vn 0.000 0.940 0.340
vn 0.000 0.940 0.340
vn 0.000 0.940 0.340
vn 0.000 0.940 0.340
vn 0.000 0.940 0.340
vn 0.000 0.940 0.340
vn 0.000 0.940 0.340
vn 0.000 0.940 0.340
vn 0.000 0.940 0.340
vn 0.000 0.940 0.340
vn 0.000 0.940 0.340
vn 0.000 0.940 0.340
vn 0.000 0.940 0.340
vn 0.000 0.940 0.340
vn 0.000 0.940 0.340
vn 0.000 0.940 0.340
vn 0.000 0.940 0.340
vn 0.000 0.940 0.340
vn 0.000 0.940 0.340
vn 0.000 -0.940 -0.340
vn 0.000 -0.940 -0.340
vn 0.000 -0.940 -0.340
vn 0.000 -0.940 -0.340
vn 0.000 -0.940 -0.340
vn 0.000 -0.940 -0.340
vn 0.000 -0.940 -0.340
vn 0.000 -0.940 -0.340
vn 0.000 -0.940 -0.340
vn 0.000 -0.940 -0.340
vn 0.000 -0.940 -0.340
vn 0.000 -0.940 -0.340
vn 0.000 -0.940 -0.340
vn 0.000 -0.940 -0.340
vn 0.000 -0.940 -0.340
vn 0.000 -0.940 -0.340
vn 0.000 -0.940 -0.340
vn 0.000 -0.940 -0.340
vn 0.000 -0.940 -0.340
vn 0.000 -0.940 -0.340
vn 0.000 -0.940 -0.340
vn 0.000 -0.940 -0.340
vn 0.000 -0.940 -0.340
vn 0.000 -0.940 -0.340
vn 0.000 -0.940 -0.340
vn 0.000 -0.940 -0.340
vn 0.000 -0.940 -0.340
vn 0.000 -0.940 -0.340
vn 0.000 -0.940 -0.340
vn 0.000 -0.940 -0.340
vn 0.000 -0.940 -0.340
vn 0.000 -0.940 -0.340
vn 0.000 -0.940 -0.340
vn 0.000 -0.940 -0.340
vn 0.000 -0.940 -0.340
vn 0.000 -0.940 -0.340
vn 0.000 -0.940 -0.340
vn 0.000 -0.940 -0.340
vn 0.000 -0.940 -0.340
vn 0.000 -0.940 -0.340
vn 0.928 -0.127 0.349
vn 0.928 -0.127 0.349
vn 0.928 -0.127 0.349
vn 0.928 -0.127 0.349
vn 0.928 -0.127 0.349
vn 0.379 -0.316 0.870
vn 0.379 -0.316 0.870
vn 0.379 -0.316 0.870
vn 0.379 -0.316 0.870
vn -0.063 -0.339 0.939
vn -0.553 -0.285 0.783
vn -0.553 -0.285 0.783
vn -0.553 -0.285 0.783
vn -0.553 -0.285 0.783
vn -0.972 -0.079 0.221
vn -0.972 -0.079 0.221
vn -0.972 -0.079 0.221
vn -0.972 -0.079 0.221
vn -0.972 -0.079 0.221
vn -0.972 -0.079 0.221
vn -0.996 0.032 -0.087
vn -0.996 0.032 -0.087
vn -0.831 0.190 -0.522
vn -0.831 0.190 -0.522
vn -0.831 0.190 -0.522
vn -0.831 0.190 -0.522
vn 0.000 0.340 -0.940
vn 0.000 0.340 -0.940
vn 0.000 0.340 -0.940
vn 0.000 0.340 -0.940
vn 0.000 0.340 -0.940
vn 0.000 0.340 -0.940
vn 0.000 0.340 -0.940
vn 0.000 0.340 -0.940
vn 0.863 0.174 -0.475
vn 0.863 0.174 -0.475
vn 0.863 0.174 -0.475
vn 0.863 0.174 -0.475
vn 0.863 0.174 -0.475
vn 0.996 0.032 -0.087
vn 1.000 0.000 0.000
vn 1.000 0.000 0.000
vn 1.000 0.000 0.000
vn 1.000 0.000 0.000
vn 0.928 -0.127 0.349
vn 0.928 -0.127 0.349
vn -0.577 -0.577 -0.577
vn -0.577 -0.577 -0.577
vn -0.577 -0.577 -0.577
vn -0.577 -0.577 -0.577
vn -0.577 -0.577 -0.577
vn -0.577 -0.577 -0.577
vn -0.577 -0.577 -0.577
vn -0.577 -0.577 -0.577
vn -0.577 -0.577 -0.577
vn -0.577 -0.577 -0.577
vn -0.577 -0.577 -0.577
vn -0.577 -0.577 -0.577
vn -0.577 -0.577 -0.577
vn -0.577 -0.577 -0.577
vn -0.577 -0.577 -0.577
vn -0.577 -0.577 -0.577
vn -0.577 -0.577 -0.577
vn -0.577 -0.577 -0.577
vn -0.577 -0.577 -0.577
vn -0.577 -0.577 -0.577
vn -0.577 -0.577 -0.577
vn -0.577 -0.577 -0.577
vn -0.577 -0.577 -0.577
vn -0.577 -0.577 -0.577
vn -0.577 -0.577 -0.577
vn -0.577 -0.577 -0.577
vn -0.577 -0.577 -0.577
vn -0.577 -0.577 -0.577
vn -0.577 -0.577 -0.577
vn -0.577 -0.577 -0.577
vn -0.577 -0.577 -0.577
vn -0.577 -0.577 -0.577
vn -0.577 -0.577 -0.577
vn -0.577 -0.577 -0.577
vn -0.577 -0.577 -0.577
vn -0.577 -0.577 -0.577
vn -0.577 -0.577 -0.577
vn -0.577 -0.577 -0.577
vn -0.577 -0.577 -0.577
vn -0.577 -0.577 -0.577
vn -0.577 -0.577 -0.577
vn -0.577 -0.577 -0.577
vn -0.577 -0.577 -0.577
vn -0.577 -0.577 -0.577
vn -0.577 -0.577 -0.577
vn -0.577 -0.577 -0.577
vn -0.577 -0.577 -0.577
vn -0.577 -0.577 -0.577
vn -0.577 -0.577 -0.577
vn -0.577 -0.577 -0.577
vn -0.577 -0.577 -0.577
vn -0.577 -0.577 -0.577
vn -0.577 -0.577 -0.577
vn -0.577 -0.577 -0.577
vn -0.577 -0.577 -0.577
vn -0.577 -0.577 -0.577
vn -0.577 -0.577 -0.577
vn -0.577 -0.577 -0.577
vn -0.577 -0.577 -0.577
vn -0.577 -0.577 -0.577
vn -0.577 -0.577 -0.577
vn -0.577 -0.577 -0.577
vn -0.577 -0.577 -0.577
vn -0.577 -0.577 -0.577
vn -0.577 -0.577 -0.577
vn -0.577 -0.577 -0.577
vn -0.577 -0.577 -0.577
vn -0.577 -0.577 -0.577
vn -0.577 -0.577 -0.577
vn -0.577 -0.577 -0.577
vn -0.577 -0.577 -0.577
vn -0.577 -0.577 -0.577
vn -0.577 -0.577 -0.577
vn -0.577 -0.577 -0.577
vn -0.577 -0.577 -0.577
vn -0.577 -0.577 -0.577
vn -0.577 -0.577 -0.577
vn -0.577 -0.577 -0.577
vn -0.577 -0.577 -0.577
vn -0.577 -0.577 -0.577
vn -0.577 -0.577 -0.577
vn -0.577 -0.577 -0.577
vn -0.577 -0.577 -0.577
vn -0.577 -0.577 -0.577
vn -0.577 -0.577 -0.577
vn -0.577 -0.577 -0.577
vn -0.577 -0.577 -0.577
vn -0.577 -0.577 -0.577
vn -0.577 -0.577 -0.577
vn -0.577 -0.577 -0.577
vn -0.577 -0.577 -0.577
vn -0.577 -0.577 -0.577
vn -0.577 -0.577 -0.577
vn -0.577 -0.577 -0.577
vn -0.577 -0.577 -0.577
vn -0.577 -0.577 -0.577
vn -0.577 -0.577 -0.577
vn -0.577 -0.577 -0.577
vn -0.577 -0.577 -0.577
vn -0.577 -0.577 -0.577
vn -0.577 -0.577 -0.577
vn -0.577 -0.577 -0.577
vn -0.577 -0.577 -0.577
vn -0.577 -0.577 -0.577
vn -0.577 -0.577 -0.577
vn -0.577 -0.577 -0.577
vn -0.577 -0.577 -0.577
vn -0.577 -0.577 -0.577
vn -0.577 -0.577 -0.577
vn -0.577 -0.577 -0.577
vn -0.577 -0.577 -0.577
vn -0.577 -0.577 -0.577
vn -0.577 -0.577 -0.577
vn -0.577 -0.577 -0.577
vn -0.577 -0.577 -0.577
vn -0.577 -0.577 -0.577
vn -0.577 -0.577 -0.577
vn -0.577 -0.577 -0.577
vn -0.577 -0.577 -0.577
vn -0.577 -0.577 -0.577
vn -0.577 -0.577 -0.577
vn -0.577 -0.577 -0.577
vn -0.577 -0.577 -0.577
vn -0.577 -0.577 -0.577
vn -0.577 -0.577 -0.577
vn -0.577 -0.577 -0.577
vn -0.577 -0.577 -0.577
vn -0.577 -0.577 -0.577
vn -0.577 -0.577 -0.577
vn -0.577 -0.577 -0.577
vn -0.577 -0.577 -0.577
vn -0.577 -0.577 -0.577
vn -0.577 -0.577 -0.577
vn -0.577 -0.577 -0.577
vn -0.577 -0.577 -0.577
vn -0.577 -0.577 -0.577
vn -0.577 -0.577 -0.577
vn -0.577 -0.577 -0.577
vn -0.577 -0.577 -0.577
vn -0.577 -0.577 -0.577
vn -0.577 -0.577 -0.577
vn -0.577 -0.577 -0.577
vn -0.577 -0.577 -0.577
vn -0.577 -0.577 -0.577
vn -0.577 -0.577 -0.577
vn -0.577 -0.577 -0.577
vn -0.577 -0.577 -0.577
vn -0.577 -0.577 -0.577
vn -0.577 -0.577 -0.577
vn -0.577 -0.577 -0.577
vn -0.577 -0.577 -0.577
vn -0.577 -0.577 -0.577
vn -0.577 -0.577 -0.577
vn -0.577 -0.577 -0.577
vn -0.577 -0.577 -0.577
vn -0.577 -0.577 -0.577
vn -0.577 -0.577 -0.577
vn -0.577 -0.577 -0.577
vn -0.577 -0.577 -0.577
vn -0.577 -0.577 -0.577
vn -0.577 -0.577 -0.577
vn -0.577 -0.577 -0.577
vn -0.577 -0.577 -0.577
vn -0.577 -0.577 -0.577
vn -0.577 -0.577 -0.577
vn -0.577 -0.577 -0.577
vn -0.577 -0.577 -0.577
vn -0.577 -0.577 -0.577
vn -0.577 -0.577 -0.577
vn -0.577 -0.577 -0.577
vn -0.577 -0.577 -0.577
vn -0.577 -0.577 -0.577
vn -0.577 -0.577 -0.577
vn -0.577 -0.577 -0.577
vn -0.577 -0.577 -0.577
vn -0.577 -0.577 -0.577
vn -0.577 -0.577 -0.577
vn -0.577 -0.577 -0.577
vn -0.577 -0.577 -0.577
vn -0.577 -0.577 -0.577
vn -0.577 -0.577 -0.577
vn -0.577 -0.577 -0.577
vn -0.577 -0.577 -0.577
vn -0.577 -0.577 -0.577
vn -0.577 -0.577 -0.577
vn -0.577 -0.577 -0.577
vn -0.577 -0.577 -0.577
vn -0.577 -0.577 -0.577
vn -0.577 -0.577 -0.577
vn -0.577 -0.577 -0.577
vn -0.577 -0.577 -0.577
vn -0.577 -0.577 -0.577
vn -0.577 -0.577 -0.577
vn -0.577 -0.577 -0.577
vn -0.577 -0.577 -0.577
vn -0.577 -0.577 -0.577
vn -0.577 -0.577 -0.577
vn -0.577 -0.577 -0.577
vn -0.577 -0.577 -0.577
vn -0.577 -0.577 -0.577
vn -0.577 -0.577 -0.577
vn -0.577 -0.577 -0.577
vn -0.577 -0.577 -0.577
vn -0.577 -0.577 -0.577
vn -0.577 -0.577 -0.577
vn -0.577 -0.577 -0.577
vn -0.577 -0.577 -0.577
vn -0.577 -0.577 -0.577
vn -0.577 -0.577 -0.577
vn -0.577 -0.577 -0.577
vn -0.577 -0.577 -0.577
vn -0.577 -0.577 -0.577
vn -0.577 -0.577 -0.577
vn -0.577 -0.577 -0.577
vn -0.577 -0.577 -0.577
vn -0.577 -0.577 -0.577
vn -0.577 -0.577 -0.577
vn -0.577 -0.577 -0.577
vn -0.577 -0.577 -0.577
vn -0.577 -0.577 -0.577
vn -0.577 -0.577 -0.577
vn -0.577 -0.577 -0.577
vn -0.577 -0.577 -0.577
vn -0.577 -0.577 -0.577
vn -0.577 -0.577 -0.577
vn -0.577 -0.577 -0.577
vn -0.577 -0.577 -0.577
vn -0.577 -0.577 -0.577
vn -0.577 -0.577 -0.577
vn -0.577 -0.577 -0.577
vn -0.577 -0.577 -0.577
vn -0.577 -0.577 -0.577
vn -0.577 -0.577 -0.577
vn -0.577 -0.577 -0.577
vn -0.577 -0.577 -0.577
vn -0.577 -0.577 -0.577
vn -0.577 -0.577 -0.577
vn -0.577 -0.577 -0.577
vn -0.577 -0.577 -0.577
vn -0.577 -0.577 -0.577
vn -0.577 -0.577 -0.577
vn -0.577 -0.577 -0.577
vn -0.577 -0.577 -0.577
vn -0.577 -0.577 -0.577
vn -0.577 -0.577 -0.577
vn -0.577 -0.577 -0.577
vn -0.577 -0.577 -0.577
vn -0.577 -0.577 -0.577
vn -0.577 -0.577 -0.577
vn -0.577 -0.577 -0.577
vn -0.577 -0.577 -0.577
vn -0.577 -0.577 -0.577
vn -0.577 -0.577 -0.577
vn -0.577 -0.577 -0.577
vn -0.577 -0.577 -0.577
vn -0.577 -0.577 -0.577
vn -0.577 -0.577 -0.577
vn -0.577 -0.577 -0.577
vn -0.577 -0.577 -0.577
vn -0.577 -0.577 -0.577
vn -0.577 -0.577 -0.577
vn -0.577 -0.577 -0.577
vn -0.577 -0.577 -0.577
vn -0.577 -0.577 -0.577
vn -0.577 -0.577 -0.577
vn -0.577 -0.577 -0.577
vn -0.577 -0.577 -0.577
vn -0.577 -0.577 -0.577
vn -0.577 -0.577 -0.577
vn -0.577 -0.577 -0.577
vn -0.577 -0.577 -0.577
vn -0.577 -0.577 -0.577
vn -0.577 -0.577 -0.577
vn -0.577 -0.577 -0.577
vn -0.577 -0.577 -0.577
vn -0.577 -0.577 -0.577
vn -0.577 -0.577 -0.577
vn -0.577 -0.577 -0.577
vn -0.577 -0.577 -0.577
vn -0.577 -0.577 -0.577
vn -0.577 -0.577 -0.577
vn -0.577 -0.577 -0.577
vn -0.577 -0.577 -0.577
vn -0.577 -0.577 -0.577
vn -0.577 -0.577 -0.577
vn -0.577 -0.577 -0.577
vn -0.577 -0.577 -0.577
vn -0.577 -0.577 -0.577
vn -0.577 -0.577 -0.577
vn -0.577 -0.577 -0.577
vn -0.577 -0.577 -0.577
vn -0.577 -0.577 -0.577
vn -0.577 -0.577 -0.577
vn -0.577 -0.577 -0.577
vn -0.577 -0.577 -0.577
vn -0.577 -0.577 -0.577
vn -0.577 -0.577 -0.577
vn -0.577 -0.577 -0.577
vn -0.577 -0.577 -0.577
vn -0.577 -0.577 -0.577
vn -0.577 -0.577 -0.577
vn -0.577 -0.577 -0.577
vn -0.577 -0.577 -0.577
vn -0.577 -0.577 -0.577
vn -0.577 -0.577 -0.577
vn -0.577 -0.577 -0.577
vn -0.577 -0.577 -0.577
vn -0.577 -0.577 -0.577
vn -0.577 -0.577 -0.577
vn -0.577 -0.577 -0.577
vn -0.577 -0.577 -0.577
vn -0.577 -0.577 -0.577
vn -0.577 -0.577 -0.577
vn -0.577 -0.577 -0.577
vn -0.577 -0.577 -0.577
vn -0.577 -0.577 -0.577
vn -0.577 -0.577 -0.577
vn -0.577 -0.577 -0.577
vn -0.577 -0.577 -0.577
vn -0.577 -0.577 -0.577
vn -0.577 -0.577 -0.577
vn -0.577 -0.577 -0.577
vn -0.577 -0.577 -0.577
vn -0.577 -0.577 -0.577
vn -0.577 -0.577 -0.577
vn -0.577 -0.577 -0.577
vn -0.577 -0.577 -0.577
vn -0.577 -0.577 -0.577
vn -0.577 -0.577 -0.577
vn -0.577 -0.577 -0.577
vn -0.577 -0.577 -0.577
vn -0.577 -0.577 -0.577
vn -0.577 -0.577 -0.577
vn -0.577 -0.577 -0.577
vn -0.577 -0.577 -0.577
vn -0.577 -0.577 -0.577
vn -0.577 -0.577 -0.577
vn -0.577 -0.577 -0.577
vn -0.577 -0.577 -0.577
vn -0.577 -0.577 -0.577
vn -0.577 -0.577 -0.577
vn -0.577 -0.577 -0.577
vn -0.577 -0.577 -0.577
vn -0.577 -0.577 -0.577
vn -0.577 -0.577 -0.577
vn -0.577 -0.577 -0.577
vn -0.577 -0.577 -0.577
vn -0.577 -0.577 -0.577
vn -0.577 -0.577 -0.577
vn -0.577 -0.577 -0.577
vn -0.577 -0.577 -0.577
vn -0.577 -0.577 -0.577
vn -0.577 -0.577 -0.577
vn -0.577 -0.577 -0.577
vn -0.577 -0.577 -0.577
vn -0.577 -0.577 -0.577
vn -0.577 -0.577 -0.577
vn -0.577 -0.577 -0.577
vn -0.577 -0.577 -0.577
vn -0.577 -0.577 -0.577
vn -0.577 -0.577 -0.577
vn -0.577 -0.577 -0.577
vn -0.577 -0.577 -0.577
vn -0.577 -0.577 -0.577
vn -0.577 -0.577 -0.577
vn -0.577 -0.577 -0.577
vn -0.577 -0.577 -0.577
vn -0.577 -0.577 -0.577
vn -0.577 -0.577 -0.577
vn -0.577 -0.577 -0.577
vn -0.577 -0.577 -0.577
vn -0.577 -0.577 -0.577
vn -0.577 -0.577 -0.577
vn -0.577 -0.577 -0.577
vn -0.577 -0.577 -0.577
vn -0.577 -0.577 -0.577
vn -0.577 -0.577 -0.577
vn -0.577 -0.577 -0.577
vn -0.577 -0.577 -0.577
vn -0.577 -0.577 -0.577
vn -0.577 -0.577 -0.577
vn -0.577 -0.577 -0.577
vn -0.577 -0.577 -0.577
vn -0.577 -0.577 -0.577
vn -0.577 -0.577 -0.577
vn -0.577 -0.577 -0.577
vn -0.577 -0.577 -0.577
vn -0.577 -0.577 -0.577
vn -0.577 -0.577 -0.577
vn -0.577 -0.577 -0.577
vn -0.577 -0.577 -0.577
vn -0.577 -0.577 -0.577
vn -0.577 -0.577 -0.577
vn -0.577 -0.577 -0.577
vn -0.577 -0.577 -0.577
vn -0.577 -0.577 -0.577
vn -0.577 -0.577 -0.577
vn -0.577 -0.577 -0.577
vn -0.577 -0.577 -0.577
vn -0.577 -0.577 -0.577
vn -0.577 -0.577 -0.577
vn -0.577 -0.577 -0.577
vn -0.577 -0.577 -0.577
vn -0.577 -0.577 -0.577
vn -0.577 -0.577 -0.577
vn -0.577 -0.577 -0.577
vn -0.577 -0.577 -0.577
vn -0.577 -0.577 -0.577
vn -0.835 0.551 0.000
vn -0.672 0.741 0.000
vn -0.672 0.741 0.000
vn -0.835 0.551 0.000
vn -0.462 0.845 0.270
vn -0.761 0.649 0.000
vn -0.761 0.649 0.000
vn -0.761 0.649 0.000
vn -0.761 0.649 0.000
vn 0.906 0.385 0.177
vn 0.929 0.370 0.000
vn 0.906 0.385 0.177
vn 0.926 0.376 0.000
vn 0.926 0.376 0.000
vn 0.926 0.376 0.000
vn 0.926 0.376 0.000
vn 0.926 0.376 0.000
vn 0.926 0.376 0.000
vn 0.926 0.376 0.000
vn 0.926 0.376 0.000
vn 0.926 0.376 0.000
vn 0.926 0.376 0.000
vn 0.926 0.376 0.000
vn 0.926 0.376 0.000
vn 0.926 0.376 0.000
vn 0.926 0.376 0.000
vn 0.932 0.364 0.000
vn -0.835 0.551 0.000
vn -0.835 0.551 0.000
vn 0.926 0.376 0.000
vn -0.761 0.649 0.000
vn 0.134 -0.339 0.931
vn -0.134 -0.339 0.931
vn 0.602 -0.269 0.752
vn 0.797 -0.205 0.568
vn 0.991 -0.040 0.127
vn 0.991 0.040 -0.127
vn 0.797 0.205 -0.568
vn 0.602 0.269 -0.752
vn 0.134 0.339 -0.931
vn -0.134 0.339 -0.931
vn -0.602 0.269 -0.752
vn -0.797 0.205 -0.568
vn -0.991 0.040 -0.127
vn -0.991 -0.040 0.127
vn -0.797 -0.205 0.568
vn -0.602 -0.269 0.752
vn 0.000 -0.940 -0.340
vn 0.000 -0.940 -0.340
vn 0.000 -0.940 -0.340
vn 0.000 -0.940 -0.340
vn 0.000 -0.940 -0.340
vn 0.000 -0.940 -0.340
vn 0.000 -0.940 -0.340
vn 0.000 -0.940 -0.340
vn -0.577 -0.577 -0.577
vn -0.577 -0.577 -0.577
vn -0.577 -0.577 -0.577
vn -0.577 -0.577 -0.577
vn -0.577 -0.577 -0.577
vn -0.577 -0.577 -0.577
vn -0.577 -0.577 -0.577
vn -0.577 -0.577 -0.577
vn -0.577 -0.577 -0.577
vn -0.577 -0.577 -0.577
vn -0.577 -0.577 -0.577
vn -0.577 -0.577 -0.577
vn -0.577 -0.577 -0.577
vn -0.577 -0.577 -0.577
vn -0.577 -0.577 -0.577
vn -0.577 -0.577 -0.577
vn -0.577 -0.577 -0.577
vn -0.577 -0.577 -0.577
vn -0.577 -0.577 -0.577
vn -0.577 -0.577 -0.577
vn -0.577 -0.577 -0.577
vn -0.577 -0.577 -0.577
vn -0.577 -0.577 -0.577
vn -0.577 -0.577 -0.577
vn -0.577 -0.577 -0.577
vn -0.577 -0.577 -0.577
vn -0.577 -0.577 -0.577
vn -0.577 -0.577 -0.577
vn -0.577 -0.577 -0.577
vn -0.577 -0.577 -0.577
vn -0.577 -0.577 -0.577
vn -0.577 -0.577 -0.577
vn -0.577 -0.577 -0.577
vn -0.577 -0.577 -0.577
vn -0.577 -0.577 -0.577
vn -0.577 -0.577 -0.577
vn -0.577 -0.577 -0.577
vn -0.577 -0.577 -0.577
vn -0.577 -0.577 -0.577
vn -0.577 -0.577 -0.577
vn -0.577 -0.577 -0.577
vn -0.577 -0.577 -0.577
vn -0.577 -0.577 -0.577
vn -0.577 -0.577 -0.577
vn -0.577 -0.577 -0.577
vn -0.577 -0.577 -0.577
vn -0.577 -0.577 -0.577
vn -0.577 -0.577 -0.577
vn -0.577 -0.577 -0.577
vn -0.577 -0.577 -0.577
vn -0.577 -0.577 -0.577
vn -0.577 -0.577 -0.577
vn -0.577 -0.577 -0.577
vn -0.577 -0.577 -0.577
vn -0.577 -0.577 -0.577
vn -0.577 -0.577 -0.577
vn -0.577 -0.577 -0.577
vn -0.577 -0.577 -0.577
vn -0.577 -0.577 -0.577
vn -0.577 -0.577 -0.577
vn -0.577 -0.577 -0.577
vn -0.577 -0.577 -0.577
vn -0.577 -0.577 -0.577
vn -0.577 -0.577 -0.577
vn -0.577 -0.577 -0.577
vn -0.577 -0.577 -0.577
vn -0.577 -0.577 -0.577
vn -0.577 -0.577 -0.577
vn -0.577 -0.577 -0.577
vn -0.577 -0.577 -0.577
vn -0.577 -0.577 -0.577
vn -0.577 -0.577 -0.577
vn -0.577 -0.577 -0.577
vn -0.577 -0.577 -0.577
vn -0.577 -0.577 -0.577
vn -0.577 -0.577 -0.577
vn -0.577 -0.577 -0.577
vn -0.577 -0.577 -0.577
vn -0.577 -0.577 -0.577
vn -0.577 -0.577 -0.577
vn -0.577 -0.577 -0.577
vn -0.577 -0.577 -0.577
vn -0.577 -0.577 -0.577
vn -0.577 -0.577 -0.577
vn -0.577 -0.577 -0.577
vn -0.577 -0.577 -0.577
vn -0.577 -0.577 -0.577
vn -0.577 -0.577 -0.577
vn -0.577 -0.577 -0.577
vn -0.577 -0.577 -0.577
vn -0.577 -0.577 -0.577
vn -0.577 -0.577 -0.577
vn -0.577 -0.577 -0.577
vn -0.577 -0.577 -0.577
vn -0.577 -0.577 -0.577
vn -0.577 -0.577 -0.577
vn -0.577 -0.577 -0.577
vn -0.577 -0.577 -0.577
vn -0.577 -0.577 -0.577
vn -0.577 -0.577 -0.577
usemtl tex_776_lit_env_ds
f 1/1/1 2/2/2 3/3/3
f 2/2/2 4/4/4 3/3/3
f 4/4/4 5/5/5 6/6/6
f 4/4/4 6/6/6 3/3/3
f 5/5/5 7/7/7 8/8/8
f 5/5/5 8/8/8 6/6/6
f 7/7/7 9/9/9 10/10/10
f 7/7/7 10/10/10 8/8/8
f 11/11/11 12/12/12 13/13/13
f 14/14/14 11/11/11 13/13/13
f 15/15/15 16/16/16 12/12/12
f 11/11/11 15/15/15 12/12/12
f 17/17/17 18/18/18 19/16/19
f 20/15/20 17/17/17 19/16/19
f 21/19/21 22/20/22 18/18/18
f 17/17/17 21/19/21 18/18/18
f 23/9/23 24/21/24 25/22/25
f 23/9/23 25/22/25 26/10/26
f 24/21/24 27/23/27 25/22/25
f 27/23/27 31/24/31 25/22/25
f 32/25/32 33/26/33 34/20/34
f 35/19/35 32/25/32 34/20/34
f 32/25/32 36/27/36 33/26/33
f 32/25/32 40/28/40 36/27/36
f 41/1/41 42/29/42 43/2/43
f 41/1/41 44/30/44 42/29/42
f 45/31/45 41/1/41 46/32/46
f 45/31/45 44/30/44 41/1/41
f 47/33/47 48/14/48 49/13/49
f 47/33/47 50/34/50 48/14/48
f 47/33/47 51/35/51 50/34/50
f 47/33/47 52/36/52 51/35/51
f 52/36/52 53/37/53 51/35/51
f 52/36/52 54/38/54 53/37/53
f 55/31/55 56/32/56 57/39/57
f 52/36/52 58/40/58 54/38/54
f 52/36/52 59/41/59 58/40/58
f 60/42/60 61/43/61 62/44/62
f 63/42/63 64/45/64 65/43/65
f 63/42/63 66/46/66 64/45/64
f 63/42/63 67/47/67 66/46/66
f 63/42/63 68/48/68 67/47/67
f 63/42/63 69/49/69 68/48/68
f 70/31/70 68/48/68 71/50/71
f 70/31/70 72/39/72 68/48/68
f 69/49/69 71/50/71 68/48/68
f 73/40/73 74/51/74 75/52/75
f 73/40/73 76/53/76 74/51/74
f 73/40/73 77/54/77 76/53/76
f 73/40/73 78/41/78 77/54/77
f 79/55/79 80/56/80 81/56/81
f 79/55/79 82/55/82 80/56/80
f 79/55/79 83/57/83 82/55/82
f 79/55/79 84/57/84 83/57/83
f 85/58/85 81/56/81 80/56/80
f 85/58/85 86/58/86 81/56/81
f 87/59/87 86/58/86 85/58/85
f 87/59/87 88/59/88 86/58/86
f 89/60/89 90/61/90 91/61/91
f 89/60/89 92/60/92 90/61/90
f 93/62/93 94/63/94 95/63/95
f 97/40/97 98/64/98 99/65/99
f 97/40/97 100/66/100 98/64/98
f 97/40/97 101/52/101 100/66/100
f 102/1/102 103/67/103 104/68/104
f 102/1/102 105/3/105 103/67/103
f 106/42/106 107/44/107 108/69/108
f 109/70/109 110/70/110 111/70/111
f 112/70/112 113/70/113 114/70/114
f 115/71/115 116/71/116 117/71/117
f 118/72/118 119/73/119 120/72/120
f 118/72/118 120/72/120 121/72/121
f 118/72/118 121/72/121 122/74/122
f 118/72/118 122/74/122 123/74/123
f 120/72/120 119/73/119 124/73/124
f 125/72/125 126/73/126 127/75/127
f 127/75/127 126/73/126 128/73/128
f 127/75/127 128/73/128 129/73/129
f 129/73/129 128/73/128 130/73/130
f 129/73/129 130/73/130 131/73/131
f 131/73/131 130/73/130 132/73/132
f 131/73/131 132/73/132 133/75/133
f 134/76/134 135/77/135 136/77/136
f 134/76/134 136/77/136 137/78/137
f 137/78/137 136/77/136 138/77/138
f 137/78/137 138/77/138 139/78/139
f 139/78/139 138/77/138 140/77/140
f 141/78/141 142/77/142 143/77/143
f 141/78/141 143/77/143 144/78/144
f 144/78/144 143/77/143 145/79/145
f 144/78/144 145/79/145 146/79/146
f 146/79/146 145/79/145 147/79/147
f 146/79/146 147/79/147 148/80/148
f 148/80/148 147/79/147 149/81/149
f 148/80/148 149/81/149 150/80/150
f 150/80/150 149/81/149 151/82/151
f 150/80/150 151/82/151 152/82/152
f 152/82/152 151/82/151 153/83/153
f 152/82/152 153/83/153 154/83/154
f 154/83/154 153/83/153 155/84/155
f 154/83/154 155/84/155 156/84/156
f 157/84/157 158/84/158 159/85/159
f 157/84/157 159/85/159 160/86/160
f 157/84/157 160/86/160 161/86/161
f 160/86/160 162/87/162 161/86/161
f 163/77/163 164/76/164 165/75/165
f 165/75/165 166/73/166 163/77/163
usemtl tex_661_lit_env_ds
f 167/88/167 168/88/168 169/88/169
f 167/88/167 169/88/169 170/88/170
f 167/88/167 170/88/170 171/88/171
f 167/88/167 171/88/171 172/88/172
f 167/88/167 172/88/172 173/88/173
f 167/88/167 173/88/173 174/88/174
f 167/88/167 174/88/174 175/88/175
f 167/88/167 175/88/175 176/88/176
f 167/88/167 176/88/176 177/88/177
f 167/88/167 177/88/177 178/88/178
f 167/88/167 178/88/178 179/88/179
f 167/88/167 179/88/179 180/88/180
f 167/88/167 180/88/180 181/88/181
f 167/88/167 181/88/181 182/88/182
f 183/88/183 184/88/184 185/88/185
f 183/88/183 185/88/185 186/88/186
f 183/88/183 186/88/186 187/88/187
f 183/88/183 187/88/187 188/88/188
f 183/88/183 188/88/188 189/88/189
f 183/88/183 189/88/189 190/88/190
f 183/88/183 190/88/190 191/88/191
f 183/88/183 191/88/191 192/88/192
f 183/88/183 192/88/192 193/88/193
f 183/88/183 193/88/193 194/88/194
f 183/88/183 194/88/194 195/88/195
f 183/88/183 195/88/195 196/88/196
f 183/88/183 196/88/196 197/88/197
f 183/88/183 197/88/197 198/88/198
f 199/88/199 200/88/200 201/88/201
f 199/88/199 201/88/201 202/88/202
f 199/88/199 202/88/202 203/88/203
f 199/88/199 203/88/203 204/88/204
f 199/88/199 204/88/204 205/88/205
f 199/88/199 205/88/205 206/88/206
f 207/89/207 208/89/208 209/89/209
f 207/89/207 209/89/209 210/89/210
f 207/89/207 210/89/210 211/89/211
f 207/89/207 211/89/211 212/89/212
f 207/89/207 212/89/212 213/89/213
f 207/89/207 213/89/213 214/89/214
f 215/89/215 216/89/216 217/89/217
f 215/89/215 217/89/217 218/89/218
f 215/89/215 218/89/218 219/89/219
f 215/89/215 219/89/219 220/89/220
f 215/89/215 220/89/220 221/89/221
f 215/89/215 221/89/221 222/89/222
f 215/89/215 222/89/222 223/89/223
f 215/89/215 223/89/223 224/89/224
f 215/89/215 224/89/224 225/89/225
f 215/89/215 225/89/225 226/89/226
f 215/89/215 226/89/226 227/89/227
f 215/89/215 227/89/227 228/89/228
f 215/89/215 228/89/228 229/89/229
f 215/89/215 229/89/229 230/89/230
f 231/89/231 232/89/232 233/89/233
f 231/89/231 233/89/233 234/89/234
f 231/89/231 234/89/234 235/89/235
f 231/89/231 235/89/235 236/89/236
f 231/89/231 236/89/236 237/89/237
f 231/89/231 237/89/237 238/89/238
f 231/89/231 238/89/238 239/89/239
f 231/89/231 239/89/239 240/89/240
f 231/89/231 240/89/240 241/89/241
f 231/89/231 241/89/241 242/89/242
f 231/89/231 242/89/242 243/89/243
f 231/89/231 243/89/243 244/89/244
f 231/89/231 244/89/244 245/89/245
f 231/89/231 245/89/245 246/89/246
f 247/90/247 248/90/248 249/90/249
f 249/90/249 248/90/248 250/90/250
f 249/90/249 250/90/250 251/90/251
f 251/90/251 250/90/250 252/91/252
f 251/90/251 252/91/252 253/91/253
f 253/91/253 252/91/252 254/91/254
f 253/91/253 254/91/254 255/91/255
f 255/91/255 254/91/254 256/92/256
f 255/91/255 256/92/256 257/93/257
f 257/93/257 256/92/256 258/93/258
f 257/93/257 258/93/258 259/93/259
f 259/93/259 258/93/258 260/93/260
f 259/93/259 260/93/260 261/94/261
f 261/94/261 260/93/260 262/94/262
f 263/94/263 264/94/264 265/94/265
f 265/94/265 264/94/264 266/94/266
f 265/94/265 266/94/266 267/95/267
f 267/95/267 266/94/266 268/95/268
f 267/95/267 268/95/268 269/96/269
f 269/96/269 268/95/268 270/96/270
f 269/96/269 270/96/270 271/96/271
f 271/96/271 270/96/270 272/96/272
f 271/96/271 272/96/272 273/97/273
f 273/97/273 272/96/272 274/97/274
f 273/97/273 274/97/274 275/97/275
f 275/97/275 274/97/274 276/97/276
f 275/97/275 276/97/276 277/97/277
f 277/97/277 276/97/276 278/97/278
f 279/97/279 280/97/280 281/98/281
f 281/98/281 280/97/280 282/98/282
f 281/98/281 282/98/282 283/98/283
f 283/98/283 282/98/282 284/98/284
f 283/98/283 284/98/284 285/98/285
f 285/98/285 284/98/284 286/99/286
f 285/98/285 286/99/286 287/100/287
f 287/100/287 286/99/286 288/100/288
f 287/100/287 288/100/288 289/100/289
f 289/100/289 288/100/288 290/100/290
f 289/100/289 290/100/290 291/90/291
f 291/90/291 290/100/290 292/90/292
usemtl tex_1794_sw0_0_lit_ds_w11
f 293/101/293 294/102/294 295/103/295
f 296/104/296 297/105/297 298/106/298
f 296/104/296 299/107/299 297/105/297
f 299/107/299 300/108/300 297/105/297
f 299/107/299 301/109/301 300/108/300
f 301/109/301 302/110/302 300/108/300
f 303/111/303 302/110/302 301/109/301
f 302/110/302 303/111/303 293/101/293
f 293/101/293 295/103/295 302/110/302
f 304/112/304 299/107/299 305/113/305
f 306/114/306 293/101/293 303/111/303
f 306/114/306 307/115/307 293/101/293
f 307/115/307 308/116/308 293/101/293
f 308/116/308 294/102/294 293/101/293
f 309/117/309 310/118/310 311/106/311
f 311/106/311 310/118/310 312/104/312
f 310/118/310 313/113/313 312/104/312
f 313/113/313 314/107/314 312/104/312
f 315/111/315 316/109/316 317/114/317
f 318/112/318 316/109/316 314/107/314
f 318/112/318 317/114/317 316/109/316
f 319/119/319 317/114/317 320/120/320
f 321/121/321 322/122/322 323/123/323
f 324/124/324 325/125/325 326/126/326
f 326/126/326 327/127/327 324/124/324
f 328/123/328 324/124/324 327/127/327
f 328/123/328 327/127/327 329/121/329
f 329/121/329 330/119/330 331/122/331
f 330/119/330 332/128/332 331/122/331
f 330/119/330 333/120/333 332/128/332
f 333/120/333 334/129/334 332/128/332
f 333/120/333 335/130/335 334/129/334
f 336/131/336 337/132/337 338/133/338
f 339/134/339 340/118/340 341/117/341
f 340/118/340 339/134/339 342/135/342
f 342/135/342 343/113/343 340/118/340
f 344/133/344 343/113/343 342/135/342
f 344/133/344 345/132/345 343/113/343
f 343/113/343 345/132/345 346/130/346
f 347/112/347 343/113/343 346/130/346
f 347/112/347 346/130/346 348/120/348
f 349/114/349 347/112/347 348/120/348
f 350/119/350 351/121/351 349/114/349
f 351/121/351 352/127/352 349/114/349
f 349/114/349 352/127/352 353/115/353
f 354/127/354 355/126/355 356/116/356
f 356/116/356 357/115/357 354/127/354
f 358/136/358 359/137/359 360/138/360
f 358/136/358 361/139/361 359/137/359
f 362/125/362 363/124/363 364/140/364
f 363/124/363 365/141/365 364/140/364
f 363/124/363 366/123/366 365/141/365
f 367/122/367 368/142/368 369/143/369
f 369/143/369 366/123/366 367/122/367
f 365/141/365 366/123/366 369/143/369
f 370/136/370 371/138/371 372/136/372
usemtl tex_1798_sw0_0_lit_ds_w11
f 373/144/373 374/145/374 375/146/375
f 376/147/376 374/145/374 377/148/377
f 378/149/378 377/148/377 379/150/379
f 377/148/377 378/149/378 380/151/380
f 377/148/377 380/151/380 376/147/376
f 381/152/381 380/151/380 382/153/382
f 382/153/382 380/151/380 383/154/383
f 383/154/383 380/151/380 378/149/378
f 378/149/378 379/150/379 383/154/383
f 379/150/379 384/155/384 383/154/383
f 385/156/385 386/157/386 387/154/387
f 388/155/388 385/156/385 387/154/387
usemtl tex_1798_sw0_0_lit_ds_w11_ovl
f 387/154/387 386/157/386 389/158/389
usemtl tex_1798_sw0_0_lit_ds_w11
f 390/152/390 391/159/391 392/160/392
f 389/158/389 393/161/393 387/154/387
f 393/161/393 394/153/394 387/154/387
f 393/161/393 391/159/391 394/153/394
f 391/159/391 390/152/390 394/153/394
usemtl tex_1796_sw0_0_lit_ds_w11
f 395/162/395 396/163/396 397/164/397
f 397/164/397 396/163/396 398/165/398
f 396/163/396 399/166/399 398/165/398
f 398/165/398 399/166/399 400/167/400
f 401/168/401 402/162/402 403/169/403
f 403/169/403 402/162/402 404/164/404
usemtl tex_1797_sw0_0_lit_ds_w11
f 405/170/405 406/171/406 407/172/407
f 406/171/406 408/173/408 407/172/407
f 406/171/406 409/174/409 408/173/408
f 409/174/409 410/175/410 408/173/408
f 409/174/409 411/176/411 410/175/410
f 411/176/411 412/177/412 410/175/410
f 411/176/411 413/178/413 412/177/412
f 414/179/414 415/180/415 416/181/416
f 417/182/417 418/181/418 419/180/419
f 417/182/417 420/183/420 418/181/418
f 418/181/418 420/183/420 421/184/421
f 421/184/421 420/183/420 422/185/422
f 422/185/422 423/186/423 421/184/421
f 421/184/421 423/186/423 424/187/424
f 423/186/423 425/188/425 424/187/424
f 425/188/425 426/189/426 424/187/424
f 425/188/425 427/190/427 426/189/426
f 427/190/427 428/191/428 426/189/426
f 422/185/422 420/183/420 429/192/429
f 429/192/429 420/183/420 430/193/430
f 420/183/420 431/194/431 432/195/432
f 420/183/420 432/195/432 430/193/430
f 433/183/433 434/196/434 435/194/435
f 436/182/436 434/196/434 433/183/433
f 437/197/437 434/196/434 436/182/436
f 436/182/436 438/198/438 437/197/437
f 436/182/436 439/180/439 438/198/438
f 435/194/435 440/199/440 441/200/441
f 437/197/437 438/198/438 442/201/442
usemtl tex_1793_sw0_0_lit_ds_w11
f 443/202/443 444/203/444 445/204/445
f 445/204/445 444/203/444 446/205/446
f 444/203/444 447/206/447 446/205/446
f 446/205/446 447/206/447 448/207/448
f 449/206/449 450/208/450 451/207/451
f 451/207/451 450/208/450 452/209/452
f 450/208/450 453/210/453 452/209/452
f 452/209/452 453/210/453 454/211/454
f 453/210/453 455/212/455 454/211/454
f 454/211/454 455/212/455 456/213/456
f 457/214/457 458/203/458 459/215/459
f 458/203/458 460/202/460 459/215/459
usemtl tex_1795_sw1_0_lit_ds_w11
f 461/216/461 462/217/462 463/218/463
f 464/219/464 462/217/462 461/216/461
f 464/219/464 461/216/461 465/220/465
f 466/221/466 464/219/464 465/220/465
f 466/221/466 465/220/465 467/222/467
f 467/222/467 465/220/465 468/223/468
f 469/224/469 467/222/467 468/223/468
f 469/224/469 468/223/468 470/225/470
f 463/218/463 462/217/462 471/226/471
usemtl tex_1796_sw1_0_lit_ds_w11
f 472/227/472 473/228/473 474/229/474
f 474/229/474 473/228/473 475/230/475
f 474/229/474 475/230/475 476/231/476
f 477/231/477 478/230/478 479/232/479
f 477/231/477 479/232/479 480/233/480
f 480/233/480 479/232/479 481/234/481
f 480/233/480 481/234/481 482/235/482
f 482/235/482 481/234/481 483/236/483
f 482/235/482 483/236/483 484/237/484
f 484/237/484 483/236/483 485/238/485
f 484/237/484 485/238/485 486/239/486
f 486/239/486 485/238/485 487/240/487
f 486/239/486 487/240/487 488/241/488
f 488/241/488 487/240/487 489/242/489
f 488/241/488 489/242/489 490/227/490
f 490/227/490 489/242/489 491/228/491
f 492/229/492 493/243/493 494/244/494
f 495/231/495 493/243/493 492/229/492
f 496/233/496 493/243/493 495/231/495
f 492/229/492 494/244/494 497/227/497
f 494/244/494 498/241/498 497/227/497
f 493/243/493 496/233/496 499/235/499
f 500/237/500 493/243/493 499/235/499
f 501/239/501 493/243/493 500/237/500
f 494/244/494 493/243/493 501/239/501
f 494/244/494 501/239/501 498/241/498
usemtl tex_1796_sw1_1_lit_ds_w11
f 502/245/502 503/246/503 504/247/504
f 505/248/505 503/246/503 502/245/502
f 506/249/506 507/250/507 508/251/508
f 506/249/506 509/252/509 507/250/507
f 507/250/507 509/252/509 510/253/510
f 506/249/506 508/251/508 511/254/511
f 505/248/505 506/249/506 511/254/511
f 512/255/512 509/252/509 502/245/502
f 502/245/502 509/252/509 505/248/505
f 505/248/505 509/252/509 506/249/506
f 511/254/511 513/256/513 514/257/514
f 508/251/508 513/256/513 511/254/511
f 508/251/508 515/258/515 513/256/513
f 507/250/507 515/258/515 508/251/508
f 507/250/507 516/259/516 515/258/515
f 510/253/510 516/259/516 507/250/507
f 502/245/502 504/247/504 512/255/512
f 505/248/505 514/257/514 503/246/503
f 511/254/511 514/257/514 505/248/505
f 517/260/517 518/261/518 519/262/519
f 517/260/517 519/262/519 520/253/520
f 520/253/520 519/262/519 521/259/521
f 520/253/520 522/252/522 517/260/517
f 522/252/522 523/255/523 517/260/517
f 523/255/523 518/261/518 517/260/517
f 523/255/523 524/247/524 518/261/518
f 525/263/525 526/264/526 527/265/527
f 525/263/525 528/266/528 526/264/526
f 526/264/526 528/266/528 529/267/529
f 529/267/529 528/266/528 530/268/530
f 528/266/528 531/269/531 530/268/530
f 525/263/525 527/265/527 532/270/532
f 533/271/533 525/263/525 532/270/532
f 531/269/531 528/266/528 534/272/534
f 534/272/534 528/266/528 533/271/533
f 533/271/533 528/266/528 525/263/525
f 532/270/532 535/273/535 536/274/536
f 527/265/527 535/273/535 532/270/532
f 527/265/527 537/275/537 535/273/535
f 526/264/526 537/275/537 527/265/527
f 526/264/526 538/276/538 537/275/537
f 529/267/529 538/276/538 526/264/526
f 529/267/529 539/277/539 538/276/538
f 530/268/530 539/277/539 529/267/529
f 530/268/530 540/278/540 539/277/539
f 531/269/531 540/278/540 530/268/530
f 541/269/541 542/279/542 543/278/543
usemtl tex_1796_sw1_1_lit_ds_w11_ovl
f 544/272/544 542/279/542 541/269/541
usemtl tex_1796_sw1_1_lit_ds_w11
f 544/272/544 545/280/545 542/279/542
f 546/271/546 545/280/545 544/272/544
f 546/271/546 547/274/547 545/280/545
f 548/281/548 547/274/547 549/273/549
f 550/277/550 543/278/543 551/282/551
f 543/278/543 552/283/552 551/282/551
f 543/278/543 542/279/542 552/283/552
f 542/279/542 553/284/553 552/283/552
f 542/279/542 545/280/545 553/284/553
f 545/280/545 554/285/554 553/284/553
f 545/280/545 547/274/547 554/285/554
f 554/285/554 547/274/547 548/281/548
f 555/270/555 547/274/547 546/271/546
f 556/286/556 557/287/557 558/288/558
f 558/288/558 557/287/557 559/289/559
f 558/288/558 559/289/559 560/290/560
f 560/290/560 559/289/559 561/291/561
f 560/290/560 561/291/561 562/292/562
f 562/292/562 561/291/561 563/293/563
f 562/292/562 563/293/563 564/294/564
f 564/294/564 563/293/563 565/295/565
f 564/294/564 565/295/565 566/296/566
f 566/296/566 565/295/565 567/297/567
f 566/296/566 567/297/567 568/298/568
f 568/298/568 567/297/567 569/299/569
f 568/298/568 569/299/569 570/300/570
f 570/300/570 569/299/569 571/301/571
f 570/300/570 571/301/571 556/286/556
f 556/286/556 571/301/571 557/287/557
f 572/288/572 573/302/573 574/303/574
f 575/290/575 573/302/573 572/288/572
f 576/292/576 573/302/573 575/290/575
f 572/288/572 574/303/574 577/286/577
f 574/303/574 578/300/578 577/286/577
f 573/302/573 576/292/576 579/294/579
f 580/296/580 573/302/573 579/294/579
f 581/298/581 573/302/573 580/296/580
f 574/303/574 573/302/573 581/298/581
f 574/303/574 581/298/581 578/300/578
usemtl tex_1795_sw1_2_lit_ds_w11
f 582/304/582 583/305/583 584/306/584
f 585/307/585 586/308/586 587/309/587
f 588/310/588 586/308/586 585/307/585
f 589/311/589 586/308/586 588/310/588
f 585/307/585 587/309/587 582/304/582
f 587/309/587 590/312/590 582/304/582
f 586/308/586 589/311/589 591/313/591
f 592/314/592 586/308/586 591/313/591
f 593/315/593 586/308/586 592/314/592
f 587/309/587 586/308/586 593/315/593
f 587/309/587 593/315/593 590/312/590
f 582/304/582 584/306/584 585/307/585
f 585/307/585 584/306/584 594/316/594
f 585/307/585 594/316/594 588/310/588
f 588/310/588 594/316/594 595/317/595
f 588/310/588 595/317/595 589/311/589
f 589/311/589 595/317/595 596/318/596
f 589/311/589 596/318/596 591/313/591
f 591/313/591 596/318/596 597/319/597
f 591/313/591 597/319/597 592/314/592
f 598/314/598 599/319/599 600/320/600
f 598/314/598 600/320/600 601/315/601
f 601/315/601 600/320/600 602/321/602
f 601/315/601 602/321/602 603/312/603
f 603/312/603 602/321/602 604/305/604
f 603/312/603 604/305/604 605/304/605
usemtl tex_1798_sw1_2_lit_ds_w11
f 606/322/606 607/323/607 608/324/608
f 608/324/608 609/325/609 606/322/606
usemtl tex_1798_sw1_2_lit_ds_w11_ovl
f 609/325/609 610/326/610 611/327/611
usemtl tex_1798_sw1_2_lit_ds_w11
f 611/327/611 606/322/606 609/325/609
usemtl tex_1797_sw1_2_lit_ds_w11
f 612/328/612 613/329/613 614/330/614
f 615/331/615 616/332/616 617/333/617
usemtl tex_1798_sw1_2_lit_ds_w11
f 618/334/618 619/335/619 620/336/620
f 621/337/621 622/338/622 623/337/623
f 624/339/624 622/338/622 621/337/621
f 624/339/624 621/337/621 625/340/625
f 624/339/624 625/340/625 626/326/626
f 626/326/626 625/340/625 627/327/627
f 625/340/625 628/159/628 627/327/627
f 627/327/627 628/159/628 629/161/629
f 627/327/627 629/161/629 630/322/630
f 630/322/630 629/161/629 631/158/631
f 630/322/630 631/158/631 632/323/632
f 632/323/632 631/158/631 633/158/633
f 634/337/634 635/160/635 636/340/636
f 636/340/636 635/160/635 637/159/637
usemtl tex_1797_sw1_2_lit_ds_w11
f 638/196/638 639/341/639 640/194/640
f 641/342/641 640/194/640 639/341/639
f 642/343/642 640/194/640 641/342/641
f 643/344/643 644/345/644 645/346/645
f 645/346/645 646/347/646 643/344/643
f 647/348/647 644/345/644 643/344/643
f 647/348/647 643/344/643 648/333/648
f 649/332/649 647/348/647 648/333/648
f 650/349/650 651/342/651 652/332/652
f 652/332/652 651/342/651 653/341/653
f 652/332/652 653/341/653 654/348/654
f 654/348/654 653/341/653 655/350/655
f 654/348/654 655/350/655 656/345/656
f 656/345/656 655/350/655 657/351/657
f 656/345/656 657/351/657 658/346/658
f 658/346/658 657/351/657 659/201/659
f 660/197/660 659/201/659 657/351/657
f 660/197/660 657/351/657 655/350/655
f 655/350/655 661/196/661 660/197/660
f 655/350/655 653/341/653 661/196/661
usemtl tex_1795_sw2_0_lit_ds_w11
f 662/352/662 663/353/663 664/354/664
f 665/355/665 666/356/666 667/357/667
f 668/358/668 665/355/665 667/357/667
f 667/357/667 669/359/669 668/358/668
f 667/357/667 670/360/670 669/359/669
f 670/360/670 671/361/671 669/359/669
f 672/362/672 671/361/671 670/360/670
f 662/352/662 671/361/671 672/362/672
f 663/353/663 662/352/662 672/362/672
f 662/352/662 664/354/664 673/363/673
f 673/363/673 664/354/664 674/364/674
f 664/354/664 675/365/675 674/364/674
f 674/364/674 675/365/675 676/366/676
f 675/365/675 677/367/677 676/366/676
f 678/366/678 679/367/679 680/368/680
f 681/358/681 682/359/682 683/369/683
f 683/369/683 682/359/682 684/370/684
f 682/359/682 685/361/685 684/370/684
f 684/370/684 685/361/685 686/371/686
f 685/361/685 687/352/687 686/371/686
f 686/371/686 687/352/687 688/363/688
usemtl tex_1795_sw2_1_lit_ds_w11
f 689/372/689 690/373/690 691/374/691
f 692/375/692 690/373/690 689/372/689
f 693/376/693 694/377/694 695/378/695
f 691/374/691 693/376/693 695/378/695
f 690/373/690 693/376/693 691/374/691
usemtl tex_1796_sw2_1_lit_ds_w11
f 696/379/696 697/257/697 698/380/698
f 699/246/699 697/257/697 700/381/700
f 700/381/700 697/257/697 696/379/696
usemtl tex_766_lit_ds
f 701/382/701 702/383/702 703/384/703
f 704/385/704 702/383/702 701/382/701
usemtl tex_766_lit_ds_ovl
f 704/385/704 705/386/705 702/383/702
f 706/387/706 705/386/705 704/385/704
usemtl tex_766_lit_ds
f 702/383/702 707/388/707 708/389/708
f 702/383/702 708/389/708 703/384/703
f 705/386/705 709/390/709 707/388/707
f 705/386/705 707/388/707 702/383/702
f 707/388/707 710/391/710 711/392/711
f 707/388/707 711/392/711 708/389/708
f 709/390/709 712/393/712 710/391/710
f 709/390/709 710/391/710 707/388/707
f 710/391/710 713/394/713 714/395/714
f 710/391/710 714/395/714 711/392/711
f 712/393/712 715/396/715 713/394/713
f 712/393/712 713/394/713 710/391/710
f 716/394/716 717/397/717 718/398/718
f 716/394/716 718/398/718 719/395/719
f 720/399/720 717/397/717 716/394/716
f 721/396/721 720/399/720 716/394/716
f 717/397/717 722/400/722 723/401/723
f 717/397/717 723/401/723 718/398/718
f 720/399/720 724/402/724 722/400/722
f 720/399/720 722/400/722 717/397/717
f 722/400/722 725/403/725 726/404/726
f 722/400/722 726/404/726 723/401/723
f 724/402/724 727/405/727 725/403/725
f 724/402/724 725/403/725 722/400/722
f 728/385/728 729/382/729 726/404/726
f 730/406/730 728/385/728 726/404/726
f 727/405/727 731/387/731 728/385/728
f 727/405/727 728/385/728 730/406/730
usemtl tex_661_lit_env_ds
f 732/407/732 733/408/733 734/409/734
f 732/407/732 734/409/734 735/410/735
f 735/410/735 734/409/734 736/411/736
f 735/410/735 736/411/736 737/412/737
f 737/412/737 736/411/736 738/413/738
f 737/412/737 738/413/738 739/414/739
f 739/414/739 738/413/738 740/415/740
f 739/414/739 740/415/740 741/416/741
f 741/416/741 740/415/740 742/417/742
f 741/416/741 742/417/742 743/418/743
f 743/418/743 742/417/742 744/419/744
f 743/418/743 744/419/744 745/420/745
f 745/420/745 744/419/744 746/421/746
f 745/420/745 746/421/746 747/422/747
f 747/422/747 746/421/746 733/408/733
f 747/422/747 733/408/733 732/407/732
f 748/89/748 749/89/749 750/89/750
f 748/89/748 750/89/750 751/89/751
f 751/89/751 750/89/750 752/89/752
f 753/89/753 751/89/751 752/89/752
f 753/89/753 752/89/752 754/89/754
f 753/89/753 754/89/754 755/89/755
usemtl tex_1794_sw3_0_lit_ds_w11
f 756/142/756 757/122/757 758/423/758
f 759/424/759 760/425/760 761/129/761
f 762/426/762 759/424/759 761/129/761
f 763/427/763 759/424/759 762/426/762
f 764/131/764 765/428/765 766/429/766
f 767/430/767 765/428/765 764/131/764
f 767/430/767 768/431/768 765/428/765
f 769/432/769 770/134/770 771/117/771
f 772/432/772 773/433/773 774/134/774
f 774/134/774 773/433/773 775/434/775
f 774/134/774 775/434/775 776/135/776
f 776/135/776 775/434/775 777/430/777
f 778/133/778 776/135/776 777/430/777
f 778/133/778 777/430/777 779/131/779
f 779/131/779 780/426/780 781/132/781
f 781/132/781 780/426/780 782/130/782
f 780/426/780 783/129/783 782/130/782
f 784/435/784 785/436/785 786/423/786
f 786/423/786 785/436/785 787/437/787
f 788/436/788 789/438/789 790/437/790
f 790/437/790 789/438/789 791/439/791
f 792/440/792 793/441/793 794/442/794
f 794/442/794 793/441/793 795/443/795
f 793/441/793 796/435/796 795/443/795
f 795/443/795 796/435/796 797/423/797
f 794/442/794 795/443/795 798/128/798
f 795/443/795 799/122/799 798/128/798
f 795/443/795 797/423/797 799/122/799
f 800/141/800 801/444/801 802/140/802
f 803/445/803 801/444/801 800/141/800
f 804/143/804 805/445/805 806/141/806
f 807/446/807 805/445/805 804/143/804
f 808/142/808 807/446/807 804/143/804
f 809/447/809 807/446/807 808/142/808
f 810/448/810 811/449/811 812/450/812
f 813/451/813 811/449/811 810/448/810
f 814/452/814 813/451/813 810/448/810
f 815/453/815 813/451/813 814/452/814
f 816/140/816 815/453/815 814/452/814
f 817/444/817 815/453/815 816/140/816
usemtl tex_1795_sw3_0_lit_ds_w11
f 818/454/818 819/371/819 820/455/820
f 821/370/821 819/371/819 818/454/818
f 821/370/821 818/454/818 822/456/822
f 823/457/823 821/370/821 822/456/822
f 824/369/824 821/370/821 823/457/823
f 820/455/820 819/371/819 825/363/825
f 825/363/825 826/458/826 820/455/820
usemtl tex_1797_sw3_0_lit_ds_w11
f 827/185/827 828/192/828 829/459/829
f 830/186/830 827/185/827 829/459/829
f 830/186/830 829/459/829 831/460/831
f 832/461/832 830/186/830 831/460/831
f 833/188/833 830/186/830 832/461/832
f 834/188/834 835/461/835 836/462/836
f 836/462/836 837/190/837 834/188/834
f 838/194/838 839/200/839 840/463/840
f 841/195/841 838/194/838 840/463/840
f 841/195/841 840/463/840 842/193/842
f 842/193/842 840/463/840 843/464/843
f 844/465/844 842/193/842 843/464/843
f 845/192/845 842/193/842 844/465/844
f 845/192/845 844/465/844 846/466/846
f 847/459/847 845/192/845 846/466/846
f 847/459/847 846/466/846 848/467/848
f 847/459/847 848/467/848 849/460/849
f 850/460/850 851/467/851 852/468/852
f 853/461/853 850/460/850 852/468/852
f 854/469/854 853/461/853 852/468/852
f 854/469/854 855/462/855 853/461/853
