mtllib GrugerZ.mtl
v 0.0 80.0 298.85230255126953 1.000 1.000 1.000
v -80.0 80.0 298.85230255126953 1.000 1.000 1.000
v -80.0 0.0 298.85230255126953 1.000 1.000 1.000
v 0.0 0.0 298.85230255126953 1.000 1.000 1.000
v 80.0 80.0 298.85230255126953 1.000 1.000 1.000
v 0.0 80.0 298.85230255126953 1.000 1.000 1.000
v 0.0 0.0 298.85230255126953 1.000 1.000 1.000
v 80.0 0.0 298.85230255126953 1.000 1.000 1.000
v 0.0 0.0 298.85230255126953 1.000 1.000 1.000
v -80.0 0.0 298.85230255126953 1.000 1.000 1.000
v -80.0 -80.0 298.85230255126953 1.000 1.000 1.000
v 0.0 -80.0 298.85230255126953 1.000 1.000 1.000
v 80.0 0.0 298.85230255126953 1.000 1.000 1.000
v 0.0 0.0 298.85230255126953 1.000 1.000 1.000
v 0.0 -80.0 298.85230255126953 1.000 1.000 1.000
v 80.0 -80.0 298.85230255126953 1.000 1.000 1.000
v 0.0 165.1999969482422 397.7164001464844 1.000 1.000 1.000
v 80.0 165.1999969482422 397.7164001464844 1.000 1.000 1.000
v 80.0 85.19999694824219 397.7164001464844 1.000 1.000 1.000
v 0.0 85.19999694824219 397.7164001464844 1.000 1.000 1.000
v -80.0 165.1999969482422 397.7164001464844 1.000 1.000 1.000
v 0.0 165.1999969482422 397.7164001464844 1.000 1.000 1.000
v 0.0 85.19999694824219 397.7164001464844 1.000 1.000 1.000
v -80.0 85.19999694824219 397.7164001464844 1.000 1.000 1.000
v 0.0 85.19999694824219 397.7164001464844 1.000 1.000 1.000
v 80.0 85.19999694824219 397.7164001464844 1.000 1.000 1.000
v 80.0 5.1999969482421875 397.7164001464844 1.000 1.000 1.000
v 0.0 5.1999969482421875 397.7164001464844 1.000 1.000 1.000
v -80.0 85.19999694824219 397.7164001464844 1.000 1.000 1.000
v 0.0 85.19999694824219 397.7164001464844 1.000 1.000 1.000
v 0.0 5.1999969482421875 397.7164001464844 1.000 1.000 1.000
v -80.0 5.1999969482421875 397.7164001464844 1.000 1.000 1.000
v -5.0 66.0 151.0 1.000 1.000 1.000
v -3.0 73.0 151.0 1.000 1.000 1.000
v -3.0 73.0 320.0 1.000 1.000 1.000
v -5.0 66.0 320.0 1.000 1.000 1.000
v -11.0 64.0 151.0 1.000 1.000 1.000
v -11.0 64.0 320.0 1.000 1.000 1.000
v -17.0 66.0 151.0 1.000 1.000 1.000
v -17.0 66.0 320.0 1.000 1.000 1.000
v -19.0 73.0 151.0 1.000 1.000 1.000
v -19.0 73.0 320.0 1.000 1.000 1.000
v -17.0 79.0 151.0 1.000 1.000 1.000
v -17.0 79.0 320.0 1.000 1.000 1.000
v -11.0 82.0 151.0 1.000 1.000 1.000
v -11.0 82.0 320.0 1.000 1.000 1.000
v 11.0 79.0 387.0 1.000 1.000 1.000
v 11.0 79.0 170.0 1.000 1.000 1.000
v 11.0 91.0 170.0 1.000 1.000 1.000
v 11.0 91.0 387.0 1.000 1.000 1.000
v 5.0 100.0 170.0 1.000 1.000 1.000
v 5.0 100.0 387.0 1.000 1.000 1.000
v -6.0 100.0 170.0 1.000 1.000 1.000
v -6.0 100.0 387.0 1.000 1.000 1.000
v -12.0 91.0 170.0 1.000 1.000 1.000
v -12.0 91.0 387.0 1.000 1.000 1.000
v -12.0 79.0 170.0 1.000 1.000 1.000
v -12.0 79.0 387.0 1.000 1.000 1.000
v -6.0 72.0 170.0 1.000 1.000 1.000
v -6.0 72.0 387.0 1.000 1.000 1.000
v 5.0 72.0 170.0 1.000 1.000 1.000
v 5.0 72.0 387.0 1.000 1.000 1.000
v 5.0 72.0 387.0 1.000 1.000 1.000
v 5.0 72.0 170.0 1.000 1.000 1.000
v 11.0 79.0 169.0 1.000 1.000 1.000
v 11.0 79.0 387.0 1.000 1.000 1.000
v -1.0 101.0 387.0 1.000 1.000 1.000
v 6.0 100.0 297.0 1.000 1.000 1.000
v 6.0 111.0 320.0 1.000 1.000 1.000
v -1.0 111.0 387.0 1.000 1.000 1.000
v -1.0 101.0 387.0 1.000 1.000 1.000
v -1.0 111.0 387.0 1.000 1.000 1.000
v -7.0 111.0 320.0 1.000 1.000 1.000
v -7.0 100.0 297.0 1.000 1.000 1.000
v 6.0 111.0 320.0 1.000 1.000 1.000
v 6.0 100.0 297.0 1.000 1.000 1.000
v -7.0 100.0 297.0 1.000 1.000 1.000
v -7.0 111.0 320.0 1.000 1.000 1.000
v -1.0 111.0 387.0 1.000 1.000 1.000
v 6.0 111.0 320.0 1.000 1.000 1.000
v -7.0 111.0 320.0 1.000 1.000 1.000
v -1.0 111.0 387.0 1.000 1.000 1.000
v 3.0 111.0 353.0 1.000 1.000 1.000
v 3.0 118.0 353.0 1.000 1.000 1.000
v -1.0 125.0 387.0 1.000 1.000 1.000
v -1.0 111.0 387.0 1.000 1.000 1.000
v -1.0 125.0 387.0 1.000 1.000 1.000
v -4.0 118.0 353.0 1.000 1.000 1.000
v -4.0 111.0 353.0 1.000 1.000 1.000
v 3.0 118.0 353.0 1.000 1.000 1.000
v 3.0 111.0 353.0 1.000 1.000 1.000
v -4.0 111.0 353.0 1.000 1.000 1.000
v -4.0 118.0 353.0 1.000 1.000 1.000
v -1.0 125.0 387.0 1.000 1.000 1.000
v 3.0 118.0 353.0 1.000 1.000 1.000
v -4.0 118.0 353.0 1.000 1.000 1.000
v -39.0 -43.0 39.0 1.000 1.000 1.000
v -35.0 -35.0 37.0 1.000 1.000 1.000
v -46.0 -42.0 24.0 1.000 1.000 1.000
v -42.0 -30.0 17.0 1.000 1.000 1.000
v -31.0 -29.0 34.0 1.000 1.000 1.000
v -29.0 -7.0 71.0 1.000 1.000 1.000
v -20.0 -10.0 70.0 1.000 1.000 1.000
v -32.0 -1.0 35.0 1.000 1.000 1.000
v -41.0 -8.0 36.0 1.000 1.000 1.000
v -32.0 -1.0 35.0 1.000 1.000 1.000
v -40.0 1.0 17.0 1.000 1.000 1.000
v -36.0 -11.0 73.0 1.000 1.000 1.000
v -46.0 -16.0 37.0 1.000 1.000 1.000
v -48.0 -14.0 24.0 1.000 1.000 1.000
v -27.0 -8.0 34.0 1.000 1.000 1.000
v -17.0 -18.0 69.0 1.000 1.000 1.000
v -27.0 -8.0 34.0 1.000 1.000 1.000
v -17.0 -18.0 69.0 1.000 1.000 1.000
v -24.0 -15.0 33.0 1.000 1.000 1.000
v -39.0 -19.0 73.0 1.000 1.000 1.000
v -36.0 -11.0 73.0 1.000 1.000 1.000
v -46.0 -16.0 37.0 1.000 1.000 1.000
v -41.0 -8.0 36.0 1.000 1.000 1.000
v 15.0 -8.0 65.0 1.000 1.000 1.000
v 16.0 -10.0 58.0 1.000 1.000 1.000
v -23.0 -7.0 76.0 1.000 1.000 1.000
v -22.0 -10.0 68.0 1.000 1.000 1.000
v 17.0 -17.0 56.0 1.000 1.000 1.000
v 15.0 -11.0 71.0 1.000 1.000 1.000
v -24.0 -10.0 84.0 1.000 1.000 1.000
v 14.0 44.0 79.0 1.000 1.000 1.000
v -15.0 44.0 146.0 1.000 1.000 1.000
v 14.0 44.0 146.0 1.000 1.000 1.000
v -15.0 44.0 79.0 1.000 1.000 1.000
v -10.0 25.0 57.0 1.000 1.000 1.000
v -10.0 25.0 97.0 1.000 1.000 1.000
v 9.0 25.0 57.0 1.000 1.000 1.000
v 9.0 25.0 97.0 1.000 1.000 1.000
v -10.0 34.0 151.0 1.000 1.000 1.000
v 9.0 34.0 151.0 1.000 1.000 1.000
v 5.0 12.0 119.0 1.000 1.000 1.000
v -5.0 27.0 116.0 1.000 1.000 1.000
v 5.0 27.0 116.0 1.000 1.000 1.000
v -5.0 12.0 119.0 1.000 1.000 1.000
v 5.0 -2.0 113.0 1.000 1.000 1.000
v -5.0 -2.0 113.0 1.000 1.000 1.000
v 5.0 -9.0 101.0 1.000 1.000 1.000
v -5.0 -2.0 113.0 1.000 1.000 1.000
v 5.0 -2.0 113.0 1.000 1.000 1.000
v -5.0 -9.0 101.0 1.000 1.000 1.000
v 5.0 -7.0 87.0 1.000 1.000 1.000
v -5.0 -7.0 87.0 1.000 1.000 1.000
v 5.0 4.0 77.0 1.000 1.000 1.000
v -5.0 4.0 77.0 1.000 1.000 1.000
v 5.0 19.0 75.0 1.000 1.000 1.000
v -5.0 19.0 75.0 1.000 1.000 1.000
v -30.735637664794922 21.150306701660156 80.85127258300781 1.000 1.000 1.000
v 1.2643623352050781 21.150306701660156 90.85127258300781 1.000 1.000 1.000
v -26.735637664794922 24.150306701660156 73.85127258300781 1.000 1.000 1.000
v -2.735637664794922 18.150306701660156 96.85127258300781 1.000 1.000 1.000
v -32.73563766479492 13.150306701660156 81.85127258300781 1.000 1.000 1.000
v -2.735637664794922 12.150306701660156 96.85127258300781 1.000 1.000 1.000
v -31.735637664794922 5.150306701660156 80.85127258300781 1.000 1.000 1.000
v -2.735637664794922 5.150306701660156 96.85127258300781 1.000 1.000 1.000
v -21.735637664794922 12.150306701660156 63.85127258300781 1.000 1.000 1.000
v 4.264362335205078 5.150306701660156 84.85127258300781 1.000 1.000 1.000
v -23.735637664794922 4.150306701660156 66.85127258300781 1.000 1.000 1.000
v 5.264362335205078 11.150306701660156 82.85127258300781 1.000 1.000 1.000
v -22.735637664794922 21.150306701660156 66.85127258300781 1.000 1.000 1.000
v 4.264362335205078 18.150306701660156 85.85127258300781 1.000 1.000 1.000
v 7.264362335205078 20.150306701660156 88.85127258300781 1.000 1.000 1.000
v 11.264362335205078 17.150306701660156 92.85127258300781 1.000 1.000 1.000
v 11.264362335205078 17.150306701660156 92.85127258300781 1.000 1.000 1.000
v -2.735637664794922 18.150306701660156 96.85127258300781 1.000 1.000 1.000
v 12.264362335205078 11.150306701660156 92.85127258300781 1.000 1.000 1.000
v -2.735637664794922 12.150306701660156 96.85127258300781 1.000 1.000 1.000
v 11.264362335205078 5.150306701660156 92.85127258300781 1.000 1.000 1.000
v -2.735637664794922 5.150306701660156 96.85127258300781 1.000 1.000 1.000
v 0.2643623352050781 2.1503067016601562 90.85127258300781 1.000 1.000 1.000
v 6.264362335205078 2.1503067016601562 88.85127258300781 1.000 1.000 1.000
v 1.2643623352050781 21.150306701660156 90.85127258300781 1.000 1.000 1.000
v 7.264362335205078 20.150306701660156 88.85127258300781 1.000 1.000 1.000
v 4.264362335205078 18.150306701660156 85.85127258300781 1.000 1.000 1.000
v 21.264362335205078 20.150306701660156 70.85127258300781 1.000 1.000 1.000
v 7.264362335205078 20.150306701660156 88.85127258300781 1.000 1.000 1.000
v 25.264362335205078 17.150306701660156 73.85127258300781 1.000 1.000 1.000
v 11.264362335205078 17.150306701660156 92.85127258300781 1.000 1.000 1.000
v 26.264362335205078 11.150306701660156 74.85127258300781 1.000 1.000 1.000
v 26.264362335205078 11.150306701660156 74.85127258300781 1.000 1.000 1.000
v 11.264362335205078 17.150306701660156 92.85127258300781 1.000 1.000 1.000
v 12.264362335205078 11.150306701660156 92.85127258300781 1.000 1.000 1.000
v 25.264362335205078 4.150306701660156 73.85127258300781 1.000 1.000 1.000
v 11.264362335205078 5.150306701660156 92.85127258300781 1.000 1.000 1.000
v 20.264362335205078 2.1503067016601562 70.85127258300781 1.000 1.000 1.000
v 6.264362335205078 2.1503067016601562 88.85127258300781 1.000 1.000 1.000
v 18.264362335205078 4.150306701660156 68.85127258300781 1.000 1.000 1.000
v 2.264362335205078 5.150306701660156 84.85127258300781 1.000 1.000 1.000
v 16.264362335205078 11.150306701660156 66.85127258300781 1.000 1.000 1.000
v 0.2643623352050781 11.150306701660156 83.85127258300781 1.000 1.000 1.000
v 18.264362335205078 17.150306701660156 68.85127258300781 1.000 1.000 1.000
v 2.264362335205078 18.150306701660156 84.85127258300781 1.000 1.000 1.000
v 21.264362335205078 20.150306701660156 70.85127258300781 1.000 1.000 1.000
v 7.264362335205078 20.150306701660156 88.85127258300781 1.000 1.000 1.000
v 25.264362335205078 17.150306701660156 73.85127258300781 1.000 1.000 1.000
v 28.264362335205078 6.150306701660156 66.85127258300781 1.000 1.000 1.000
v 28.264362335205078 15.150306701660156 66.85127258300781 1.000 1.000 1.000
v 26.264362335205078 11.150306701660156 74.85127258300781 1.000 1.000 1.000
v 25.264362335205078 4.150306701660156 73.85127258300781 1.000 1.000 1.000
v 21.264362335205078 20.150306701660156 70.85127258300781 1.000 1.000 1.000
v 18.264362335205078 17.150306701660156 68.85127258300781 1.000 1.000 1.000
v 20.264362335205078 2.1503067016601562 70.85127258300781 1.000 1.000 1.000
v 18.264362335205078 4.150306701660156 68.85127258300781 1.000 1.000 1.000
v 16.264362335205078 11.150306701660156 66.85127258300781 1.000 1.000 1.000
v -36.0 22.0 34.0 1.000 1.000 1.000
v -31.0 24.0 68.0 1.000 1.000 1.000
v -28.0 25.0 35.0 1.000 1.000 1.000
v -39.0 21.0 67.0 1.000 1.000 1.000
v -41.0 13.0 34.0 1.000 1.000 1.000
v -43.0 13.0 67.0 1.000 1.000 1.000
v -36.0 6.0 34.0 1.000 1.000 1.000
v -40.0 5.0 67.0 1.000 1.000 1.000
v -18.0 12.0 36.0 1.000 1.000 1.000
v -23.0 4.0 68.0 1.000 1.000 1.000
v -22.0 5.0 36.0 1.000 1.000 1.000
v -20.0 12.0 69.0 1.000 1.000 1.000
v -21.0 22.0 36.0 1.000 1.000 1.000
v -23.0 21.0 68.0 1.000 1.000 1.000
v -34.0 25.0 17.0 1.000 1.000 1.000
v -42.0 18.0 25.0 1.000 1.000 1.000
v -18.0 24.0 19.0 1.000 1.000 1.000
v -21.0 22.0 36.0 1.000 1.000 1.000
v -18.0 12.0 36.0 1.000 1.000 1.000
v 17.0 11.0 23.0 1.000 1.000 1.000
v -28.0 25.0 35.0 1.000 1.000 1.000
v -36.0 22.0 34.0 1.000 1.000 1.000
v -42.0 18.0 25.0 1.000 1.000 1.000
v -41.0 13.0 34.0 1.000 1.000 1.000
v -40.0 1.0 17.0 1.000 1.000 1.000
v -36.0 6.0 34.0 1.000 1.000 1.000
v -32.0 -1.0 35.0 1.000 1.000 1.000
v -39.0 21.0 67.0 1.000 1.000 1.000
v -31.0 21.0 81.0 1.000 1.000 1.000
v -31.0 24.0 68.0 1.000 1.000 1.000
v -32.0 13.0 82.0 1.000 1.000 1.000
v -43.0 13.0 67.0 1.000 1.000 1.000
v -40.0 5.0 67.0 1.000 1.000 1.000
v -32.0 13.0 82.0 1.000 1.000 1.000
v -43.0 13.0 67.0 1.000 1.000 1.000
v -32.0 5.0 81.0 1.000 1.000 1.000
v -31.0 24.0 68.0 1.000 1.000 1.000
v -31.0 21.0 81.0 1.000 1.000 1.000
v -27.0 24.0 74.0 1.000 1.000 1.000
v -23.0 21.0 68.0 1.000 1.000 1.000
v 9.0 103.0 61.0 1.000 1.000 1.000
v 9.0 108.0 79.0 1.000 1.000 1.000
v 14.0 93.0 79.0 1.000 1.000 1.000
v 14.0 44.0 79.0 1.000 1.000 1.000
v 9.0 93.0 61.0 1.000 1.000 1.000
v 14.0 44.0 79.0 1.000 1.000 1.000
v 9.0 93.0 57.0 1.000 1.000 1.000
v -10.0 93.0 57.0 1.000 1.000 1.000
v -15.0 44.0 79.0 1.000 1.000 1.000
v -10.0 93.0 61.0 1.000 1.000 1.000
v -10.0 93.0 57.0 1.000 1.000 1.000
v 9.0 25.0 57.0 1.000 1.000 1.000
v -10.0 25.0 57.0 1.000 1.000 1.000
v 9.0 93.0 61.0 1.000 1.000 1.000
v -10.0 103.0 61.0 1.000 1.000 1.000
v -15.0 93.0 79.0 1.000 1.000 1.000
v 9.0 103.0 61.0 1.000 1.000 1.000
v -10.0 103.0 61.0 1.000 1.000 1.000
v -10.0 108.0 79.0 1.000 1.000 1.000
v 9.0 108.0 79.0 1.000 1.000 1.000
v -15.0 93.0 79.0 1.000 1.000 1.000
v 9.0 93.0 61.0 1.000 1.000 1.000
v 14.0 44.0 79.0 1.000 1.000 1.000
v -15.0 53.0 79.0 1.000 1.000 1.000
v -24.0 62.0 79.0 1.000 1.000 1.000
v -21.0 62.0 71.0 1.000 1.000 1.000
v -24.0 76.0 79.0 1.000 1.000 1.000
v -15.0 85.0 79.0 1.000 1.000 1.000
v -21.0 76.0 71.0 1.000 1.000 1.000
v -13.0 62.0 67.0 1.000 1.000 1.000
v -13.0 76.0 67.0 1.000 1.000 1.000
v 20.0 62.0 71.0 1.000 1.000 1.000
v 23.0 62.0 79.0 1.000 1.000 1.000
v 14.0 53.0 79.0 1.000 1.000 1.000
v 20.0 76.0 71.0 1.000 1.000 1.000
v 14.0 85.0 79.0 1.000 1.000 1.000
v 23.0 76.0 79.0 1.000 1.000 1.000
v 12.0 62.0 67.0 1.000 1.000 1.000
v 12.0 76.0 67.0 1.000 1.000 1.000
v 17.0 51.89027404785156 85.67398834228516 1.000 1.000 1.000
v 24.0 68.89027404785156 85.67398834228516 1.000 1.000 1.000
v 24.0 68.89027404785156 141.67398834228516 1.000 1.000 1.000
v 17.0 51.89027404785156 141.67398834228516 1.000 1.000 1.000
v 0.0 43.89027404785156 85.67398834228516 1.000 1.000 1.000
v 0.0 43.89027404785156 141.67398834228516 1.000 1.000 1.000
v -18.0 51.89027404785156 85.67398834228516 1.000 1.000 1.000
v -18.0 51.89027404785156 141.67398834228516 1.000 1.000 1.000
v -25.0 68.89027404785156 85.67398834228516 1.000 1.000 1.000
v -25.0 68.89027404785156 141.67398834228516 1.000 1.000 1.000
v -18.0 85.89027404785156 85.67398834228516 1.000 1.000 1.000
v -18.0 85.89027404785156 141.67398834228516 1.000 1.000 1.000
v 0.0 93.89027404785156 85.67398834228516 1.000 1.000 1.000
v 0.0 93.89027404785156 141.67398834228516 1.000 1.000 1.000
v 17.0 85.89027404785156 85.67398834228516 1.000 1.000 1.000
v 17.0 85.89027404785156 141.67398834228516 1.000 1.000 1.000
v -25.0 93.89027404785156 85.67398834228516 1.000 1.000 1.000
v 24.0 93.89027404785156 85.67398834228516 1.000 1.000 1.000
v 24.0 43.89027404785156 85.67398834228516 1.000 1.000 1.000
v -25.0 43.89027404785156 85.67398834228516 1.000 1.000 1.000
v -25.0 43.89027404785156 141.67398834228516 1.000 1.000 1.000
v 24.0 43.89027404785156 141.67398834228516 1.000 1.000 1.000
v 24.0 93.89027404785156 141.67398834228516 1.000 1.000 1.000
v -25.0 93.89027404785156 141.67398834228516 1.000 1.000 1.000
v 9.0 103.0 164.0 1.000 1.000 1.000
v -10.0 98.0 168.0 1.000 1.000 1.000
v 9.0 98.0 168.0 1.000 1.000 1.000
v -15.0 49.0 151.0 1.000 1.000 1.000
v -15.0 93.0 151.0 1.000 1.000 1.000
v 14.0 49.0 151.0 1.000 1.000 1.000
v 14.0 93.0 151.0 1.000 1.000 1.000
v 14.0 44.0 146.0 1.000 1.000 1.000
v -15.0 44.0 146.0 1.000 1.000 1.000
v -10.0 34.0 151.0 1.000 1.000 1.000
v -10.0 64.0 168.0 1.000 1.000 1.000
v 9.0 34.0 151.0 1.000 1.000 1.000
v 9.0 64.0 168.0 1.000 1.000 1.000
v -10.0 103.0 164.0 1.000 1.000 1.000
v -15.0 93.0 79.0 1.000 1.000 1.000
v 14.0 93.0 79.0 1.000 1.000 1.000
v 14.0 93.0 151.0 1.000 1.000 1.000
v -15.0 93.0 151.0 1.000 1.000 1.000
v -10.0 103.0 164.0 1.000 1.000 1.000
v -15.0 93.0 115.0 1.000 1.000 1.000
v -10.0 103.0 115.0 1.000 1.000 1.000
v 14.0 93.0 115.0 1.000 1.000 1.000
v 9.0 103.0 164.0 1.000 1.000 1.000
v 9.0 103.0 115.0 1.000 1.000 1.000
v 9.0 108.0 97.0 1.000 1.000 1.000
v -10.0 108.0 97.0 1.000 1.000 1.000
v -10.0 108.0 79.0 1.000 1.000 1.000
v 9.0 108.0 79.0 1.000 1.000 1.000
v -5.0 93.44817352294922 56.12649154663086 1.000 1.000 1.000
v 5.0 93.44817352294922 56.12649154663086 1.000 1.000 1.000
v -5.0 93.44817352294922 48.12649154663086 1.000 1.000 1.000
v 5.0 93.44817352294922 48.12649154663086 1.000 1.000 1.000
v -5.0 88.44817352294922 39.12649154663086 1.000 1.000 1.000
v 5.0 88.44817352294922 39.12649154663086 1.000 1.000 1.000
v -5.0 88.44817352294922 30.12649154663086 1.000 1.000 1.000
v 5.0 88.44817352294922 30.12649154663086 1.000 1.000 1.000
v -5.0 98.44817352294922 16.12649154663086 1.000 1.000 1.000
v 5.0 98.44817352294922 16.12649154663086 1.000 1.000 1.000
v -5.0 98.44817352294922 12.12649154663086 1.000 1.000 1.000
v 5.0 98.44817352294922 12.12649154663086 1.000 1.000 1.000
v -5.0 88.44817352294922 16.12649154663086 1.000 1.000 1.000
v 5.0 88.44817352294922 16.12649154663086 1.000 1.000 1.000
v -5.0 68.44817352294922 33.12649154663086 1.000 1.000 1.000
v 5.0 68.44817352294922 33.12649154663086 1.000 1.000 1.000
v -5.0 68.44817352294922 33.12649154663086 1.000 1.000 1.000
v 5.0 68.44817352294922 33.12649154663086 1.000 1.000 1.000
v -5.0 34.44817352294922 16.12649154663086 1.000 1.000 1.000
v 5.0 34.44817352294922 16.12649154663086 1.000 1.000 1.000
v -5.0 88.44817352294922 30.12649154663086 1.000 1.000 1.000
v 5.0 88.44817352294922 30.12649154663086 1.000 1.000 1.000
v 5.0 98.44817352294922 16.12649154663086 1.000 1.000 1.000
v -5.0 98.44817352294922 16.12649154663086 1.000 1.000 1.000
v -5.0 88.44817352294922 16.12649154663086 1.000 1.000 1.000
v -5.0 78.44817352294922 56.12649154663086 1.000 1.000 1.000
v -5.0 93.44817352294922 56.12649154663086 1.000 1.000 1.000
v -5.0 93.44817352294922 48.12649154663086 1.000 1.000 1.000
v -5.0 88.44817352294922 39.12649154663086 1.000 1.000 1.000
v -5.0 98.44817352294922 12.12649154663086 1.000 1.000 1.000
v -5.0 34.44817352294922 52.12649154663086 1.000 1.000 1.000
v 5.0 78.44817352294922 56.12649154663086 1.000 1.000 1.000
v 5.0 68.44817352294922 33.12649154663086 1.000 1.000 1.000
v 5.0 88.44817352294922 16.12649154663086 1.000 1.000 1.000
v 5.0 93.44817352294922 48.12649154663086 1.000 1.000 1.000
v 5.0 93.44817352294922 56.12649154663086 1.000 1.000 1.000
v 5.0 88.44817352294922 39.12649154663086 1.000 1.000 1.000
v 5.0 88.44817352294922 30.12649154663086 1.000 1.000 1.000
v 5.0 98.44817352294922 12.12649154663086 1.000 1.000 1.000
v 5.0 98.44817352294922 16.12649154663086 1.000 1.000 1.000
v 5.0 34.44817352294922 52.12649154663086 1.000 1.000 1.000
v 5.0 34.44817352294922 16.12649154663086 1.000 1.000 1.000
v -16.0 25.0 18.0 1.000 1.000 1.000
v -16.0 -84.0 24.0 1.000 1.000 1.000
v -16.0 -5.0 35.0 1.000 1.000 1.000
v -16.0 13.0 48.0 1.000 1.000 1.000
v -16.0 25.0 48.0 1.000 1.000 1.000
v -16.0 22.0 13.0 1.000 1.000 1.000
v -16.0 0.0 -3.0 1.000 1.000 1.000
v -16.0 -38.0 -20.0 1.000 1.000 1.000
v 15.0 -81.0 25.0 1.000 1.000 1.000
v 15.0 -38.0 -20.0 1.000 1.000 1.000
v 15.0 0.0 -3.0 1.000 1.000 1.000
v 15.0 22.0 13.0 1.000 1.000 1.000
v 15.0 25.0 18.0 1.000 1.000 1.000
v 15.0 25.0 48.0 1.000 1.000 1.000
v 15.0 13.0 48.0 1.000 1.000 1.000
v 15.0 -5.0 35.0 1.000 1.000 1.000
v -16.0 25.0 48.0 1.000 1.000 1.000
v -8.0 25.0 74.0 1.000 1.000 1.000
v -8.0 34.0 57.0 1.000 1.000 1.000
v -8.0 15.0 66.0 1.000 1.000 1.000
v -8.0 15.0 74.0 1.000 1.000 1.000
v -16.0 13.0 48.0 1.000 1.000 1.000
v -8.0 10.0 57.0 1.000 1.000 1.000
v 8.0 25.0 74.0 1.000 1.000 1.000
v 15.0 25.0 48.0 1.000 1.000 1.000
v 8.0 34.0 57.0 1.000 1.000 1.000
v 15.0 13.0 48.0 1.000 1.000 1.000
v 8.0 15.0 66.0 1.000 1.000 1.000
v 8.0 10.0 57.0 1.000 1.000 1.000
v 8.0 15.0 74.0 1.000 1.000 1.000
v 15.0 -5.0 35.0 1.000 1.000 1.000
v 8.0 -10.0 43.0 1.000 1.000 1.000
v 8.0 34.0 16.0 1.000 1.000 1.000
v 8.0 34.0 57.0 1.000 1.000 1.000
v 15.0 25.0 48.0 1.000 1.000 1.000
v 15.0 25.0 18.0 1.000 1.000 1.000
v 15.0 22.0 13.0 1.000 1.000 1.000
v 8.0 30.0 7.0 1.000 1.000 1.000
v 15.0 0.0 -3.0 1.000 1.000 1.000
v 8.0 5.0 -10.0 1.000 1.000 1.000
v 15.0 -38.0 -20.0 1.000 1.000 1.000
v 8.0 -34.0 -28.0 1.000 1.000 1.000
v -16.0 22.0 13.0 1.000 1.000 1.000
v -8.0 30.0 7.0 1.000 1.000 1.000
v -8.0 5.0 -10.0 1.000 1.000 1.000
v -16.0 0.0 -3.0 1.000 1.000 1.000
v -8.0 -34.0 -28.0 1.000 1.000 1.000
v -16.0 -38.0 -20.0 1.000 1.000 1.000
v -16.0 -5.0 35.0 1.000 1.000 1.000
v -8.0 -10.0 43.0 1.000 1.000 1.000
v -8.0 10.0 57.0 1.000 1.000 1.000
v -16.0 13.0 48.0 1.000 1.000 1.000
v -8.0 34.0 16.0 1.000 1.000 1.000
v -8.0 30.0 7.0 1.000 1.000 1.000
v -16.0 22.0 13.0 1.000 1.000 1.000
v -16.0 25.0 18.0 1.000 1.000 1.000
v -16.0 25.0 48.0 1.000 1.000 1.000
v -8.0 34.0 57.0 1.000 1.000 1.000
v -8.0 25.0 74.0 1.000 1.000 1.000
v -16.0 25.0 48.0 1.000 1.000 1.000
v -8.0 15.0 74.0 1.000 1.000 1.000
v 15.0 -81.0 25.0 1.000 1.000 1.000
v 15.0 -5.0 35.0 1.000 1.000 1.000
v 8.0 -10.0 43.0 1.000 1.000 1.000
v -8.0 -10.0 43.0 1.000 1.000 1.000
v -16.0 -5.0 35.0 1.000 1.000 1.000
v -16.0 -84.0 24.0 1.000 1.000 1.000
v -8.0 34.0 57.0 1.000 1.000 1.000
v 8.0 34.0 57.0 1.000 1.000 1.000
v 8.0 34.0 16.0 1.000 1.000 1.000
v -8.0 34.0 16.0 1.000 1.000 1.000
v 8.0 30.0 7.0 1.000 1.000 1.000
v -8.0 30.0 7.0 1.000 1.000 1.000
v 8.0 5.0 -10.0 1.000 1.000 1.000
v -8.0 5.0 -10.0 1.000 1.000 1.000
v 8.0 -34.0 -28.0 1.000 1.000 1.000
v -8.0 -34.0 -28.0 1.000 1.000 1.000
v -35.0 -30.0 -20.0 1.000 1.000 1.000
v -31.0 -34.0 -44.0 1.000 1.000 1.000
v -32.0 -55.0 -20.0 1.000 1.000 1.000
v -22.0 -75.0 -19.0 1.000 1.000 1.000
v -29.0 -71.0 -19.0 1.000 1.000 1.000
v -9.0 -65.0 -42.0 1.000 1.000 1.000
v -28.0 -52.0 -44.0 1.000 1.000 1.000
v -30.0 -16.0 -44.0 1.000 1.000 1.000
v -33.0 1.0 -20.0 1.000 1.000 1.000
v -38.0 1.0 -3.0 1.000 1.000 1.000
v -43.0 -14.0 -4.0 1.000 1.000 1.000
v -37.0 17.0 -3.0 1.000 1.000 1.000
v -40.0 1.0 17.0 1.000 1.000 1.000
v -48.0 -14.0 24.0 1.000 1.000 1.000
v -42.0 -30.0 17.0 1.000 1.000 1.000
v -40.0 -30.0 -3.0 1.000 1.000 1.000
v -46.0 -42.0 24.0 1.000 1.000 1.000
v -42.0 -30.0 17.0 1.000 1.000 1.000
v -40.0 -30.0 -3.0 1.000 1.000 1.000
v -41.0 -42.0 -3.0 1.000 1.000 1.000
v -38.0 -55.0 9.0 1.000 1.000 1.000
v -37.0 -55.0 -3.0 1.000 1.000 1.000
v -42.0 -66.0 13.0 1.000 1.000 1.000
v -38.0 -67.0 -3.0 1.000 1.000 1.000
v -36.0 -75.0 9.0 1.000 1.000 1.000
v -34.0 -75.0 -3.0 1.000 1.000 1.000
v -27.0 -79.0 6.0 1.000 1.000 1.000
v -27.0 -79.0 -2.0 1.000 1.000 1.000
v -22.0 -75.0 -19.0 1.000 1.000 1.000
v -29.0 -71.0 -19.0 1.000 1.000 1.000
v -32.0 -55.0 -20.0 1.000 1.000 1.000
v -35.0 -30.0 -20.0 1.000 1.000 1.000
v -35.0 -30.0 -20.0 1.000 1.000 1.000
v -40.0 -30.0 -3.0 1.000 1.000 1.000
v -43.0 -14.0 -4.0 1.000 1.000 1.000
v -33.0 1.0 -20.0 1.000 1.000 1.000
v -38.0 1.0 -3.0 1.000 1.000 1.000
v -37.0 17.0 -3.0 1.000 1.000 1.000
v -42.0 -66.0 13.0 1.000 1.000 1.000
v -35.0 -67.0 25.0 1.000 1.000 1.000
v -31.0 -60.0 22.0 1.000 1.000 1.000
v -38.0 -55.0 9.0 1.000 1.000 1.000
v -25.0 -57.0 20.0 1.000 1.000 1.000
v -40.0 1.0 17.0 1.000 1.000 1.000
v -42.0 18.0 25.0 1.000 1.000 1.000
v -33.0 25.0 -3.0 1.000 1.000 1.000
v -34.0 25.0 17.0 1.000 1.000 1.000
v 32.0 31.0 66.0 1.000 1.000 1.000
v 19.0 31.0 67.0 1.000 1.000 1.000
v 28.0 28.0 69.0 1.000 1.000 1.000
v 26.0 34.0 66.0 1.000 1.000 1.000
v 21.0 35.0 65.0 1.000 1.000 1.000
v 32.0 26.0 64.0 1.000 1.000 1.000
v 29.0 24.0 63.0 1.000 1.000 1.000
v 17.0 31.0 63.0 1.000 1.000 1.000
v 15.0 27.0 58.0 1.000 1.000 1.000
v 23.0 23.0 58.0 1.000 1.000 1.000
v 35.0 30.0 40.0 1.000 1.000 1.000
v 35.0 38.0 42.0 1.000 1.000 1.000
v 30.0 41.0 42.0 1.000 1.000 1.000
v 22.0 43.0 41.0 1.000 1.000 1.000
v 18.0 37.0 37.0 1.000 1.000 1.000
v 15.0 30.0 40.0 1.000 1.000 1.000
v 23.0 23.0 58.0 1.000 1.000 1.000
v 15.0 30.0 40.0 1.000 1.000 1.000
v 25.0 20.0 42.0 1.000 1.000 1.000
v 29.0 24.0 63.0 1.000 1.000 1.000
v 31.0 25.0 38.0 1.000 1.000 1.000
v 32.0 26.0 64.0 1.000 1.000 1.000
v 35.0 30.0 40.0 1.000 1.000 1.000
v 24.0 38.0 30.0 1.000 1.000 1.000
v 21.0 38.0 7.0 1.000 1.000 1.000
v 16.0 35.0 31.0 1.000 1.000 1.000
v 14.0 34.0 16.0 1.000 1.000 1.000
v 15.0 28.0 35.0 1.000 1.000 1.000
v 13.0 17.0 20.0 1.000 1.000 1.000
v 21.0 21.0 35.0 1.000 1.000 1.000
v 17.0 11.0 23.0 1.000 1.000 1.000
v 31.0 36.0 29.0 1.000 1.000 1.000
v 32.0 34.0 6.0 1.000 1.000 1.000
v 24.0 38.0 30.0 1.000 1.000 1.000
v 21.0 38.0 7.0 1.000 1.000 1.000
v 30.0 41.0 42.0 1.000 1.000 1.000
v 35.0 38.0 42.0 1.000 1.000 1.000
v 22.0 43.0 41.0 1.000 1.000 1.000
v 18.0 37.0 37.0 1.000 1.000 1.000
v 15.0 30.0 40.0 1.000 1.000 1.000
v 16.0 35.0 31.0 1.000 1.000 1.000
v 25.0 20.0 42.0 1.000 1.000 1.000
v 15.0 28.0 35.0 1.000 1.000 1.000
v 21.0 21.0 35.0 1.000 1.000 1.000
v 21.0 21.0 35.0 1.000 1.000 1.000
v 17.0 11.0 23.0 1.000 1.000 1.000
v 28.0 19.0 34.0 1.000 1.000 1.000
v 28.0 19.0 34.0 1.000 1.000 1.000
v 17.0 11.0 23.0 1.000 1.000 1.000
v 25.0 9.0 15.0 1.000 1.000 1.000
v 34.0 21.0 31.0 1.000 1.000 1.000
v 35.0 12.0 12.0 1.000 1.000 1.000
v 35.0 29.0 31.0 1.000 1.000 1.000
v 36.0 18.0 8.0 1.000 1.000 1.000
v 31.0 36.0 29.0 1.000 1.000 1.000
v 32.0 34.0 6.0 1.000 1.000 1.000
v 35.0 30.0 40.0 1.000 1.000 1.000
v 35.0 38.0 42.0 1.000 1.000 1.000
v 31.0 25.0 38.0 1.000 1.000 1.000
v 21.0 21.0 35.0 1.000 1.000 1.000
v 28.0 19.0 34.0 1.000 1.000 1.000
v 25.0 20.0 42.0 1.000 1.000 1.000
v 25.0 20.0 42.0 1.000 1.000 1.000
v 4.0 -48.0 -17.0 1.000 1.000 1.000
v -1.0 -64.0 -17.0 1.000 1.000 1.000
v 23.0 -43.0 -39.0 1.000 1.000 1.000
v 12.0 -60.0 -41.0 1.000 1.000 1.000
v -13.0 -72.0 -18.0 1.000 1.000 1.000
v -1.0 -65.0 -41.0 1.000 1.000 1.000
v -22.0 -75.0 -19.0 1.000 1.000 1.000
v -9.0 -65.0 -42.0 1.000 1.000 1.000
v -3.0 -36.0 -20.0 1.000 1.000 1.000
v -17.0 -44.0 -1.0 1.000 1.000 1.000
v -16.0 -28.0 -1.0 1.000 1.000 1.000
v -11.0 -25.0 1.0 1.000 1.000 1.000
v -27.0 -79.0 6.0 1.000 1.000 1.000
v -27.0 -79.0 -2.0 1.000 1.000 1.000
v -19.0 -76.0 -1.0 1.000 1.000 1.000
v -20.0 -76.0 11.0 1.000 1.000 1.000
v -19.0 -76.0 -1.0 1.000 1.000 1.000
v -14.0 -68.0 -1.0 1.000 1.000 1.000
v -20.0 -76.0 11.0 1.000 1.000 1.000
v -16.0 -68.0 15.0 1.000 1.000 1.000
v -13.0 -56.0 -1.0 1.000 1.000 1.000
v -18.0 -56.0 11.0 1.000 1.000 1.000
v -17.0 -44.0 -1.0 1.000 1.000 1.000
v -19.0 -40.0 27.0 1.000 1.000 1.000
v -16.0 -28.0 -1.0 1.000 1.000 1.000
v -25.0 -27.0 18.0 1.000 1.000 1.000
v -21.0 -16.0 26.0 1.000 1.000 1.000
v -11.0 -25.0 1.0 1.000 1.000 1.000
v -7.0 -8.0 4.0 1.000 1.000 1.000
v -20.0 0.0 19.0 1.000 1.000 1.000
v -16.0 12.0 27.0 1.000 1.000 1.000
v -27.0 -79.0 -2.0 1.000 1.000 1.000
v -22.0 -75.0 -19.0 1.000 1.000 1.000
v -13.0 -72.0 -18.0 1.000 1.000 1.000
v -19.0 -76.0 -1.0 1.000 1.000 1.000
v -1.0 -64.0 -17.0 1.000 1.000 1.000
v -14.0 -68.0 -1.0 1.000 1.000 1.000
v -13.0 -56.0 -1.0 1.000 1.000 1.000
v 4.0 -48.0 -17.0 1.000 1.000 1.000
v -17.0 -44.0 -1.0 1.000 1.000 1.000
v -25.0 29.0 6.0 1.000 1.000 1.000
v -34.0 25.0 17.0 1.000 1.000 1.000
v -28.0 25.0 35.0 1.000 1.000 1.000
v -18.0 24.0 19.0 1.000 1.000 1.000
v -25.0 29.0 6.0 1.000 1.000 1.000
v -28.0 25.0 35.0 1.000 1.000 1.000
v -20.0 25.0 -19.0 1.000 1.000 1.000
v -28.0 21.0 -19.0 1.000 1.000 1.000
v -33.0 25.0 -3.0 1.000 1.000 1.000
v -24.0 29.0 -2.0 1.000 1.000 1.000
v -33.0 1.0 -20.0 1.000 1.000 1.000
v -37.0 17.0 -3.0 1.000 1.000 1.000
v -26.0 1.0 -44.0 1.000 1.000 1.000
v -30.0 -16.0 -44.0 1.000 1.000 1.000
v -12.0 12.0 -41.0 1.000 1.000 1.000
v -21.0 13.0 -42.0 1.000 1.000 1.000
v -21.0 13.0 -42.0 1.000 1.000 1.000
v -8.0 7.0 -66.0 1.000 1.000 1.000
v -21.0 -2.0 -67.0 1.000 1.000 1.000
v -26.0 1.0 -44.0 1.000 1.000 1.000
v -30.0 -16.0 -44.0 1.000 1.000 1.000
v -26.0 -24.0 -68.0 1.000 1.000 1.000
v -31.0 -34.0 -44.0 1.000 1.000 1.000
v -21.0 -47.0 -67.0 1.000 1.000 1.000
v -28.0 -52.0 -44.0 1.000 1.000 1.000
v -9.0 -65.0 -42.0 1.000 1.000 1.000
v -12.0 12.0 -41.0 1.000 1.000 1.000
v 1.0 26.0 4.0 1.000 1.000 1.000
v -18.0 24.0 19.0 1.000 1.000 1.000
v 13.0 17.0 20.0 1.000 1.000 1.000
v 17.0 11.0 23.0 1.000 1.000 1.000
v 13.0 17.0 20.0 1.000 1.000 1.000
v -18.0 24.0 19.0 1.000 1.000 1.000
v -25.0 29.0 6.0 1.000 1.000 1.000
v -18.0 24.0 19.0 1.000 1.000 1.000
v 1.0 26.0 4.0 1.000 1.000 1.000
v -20.0 25.0 -19.0 1.000 1.000 1.000
v -24.0 29.0 -2.0 1.000 1.000 1.000
v 21.0 38.0 7.0 1.000 1.000 1.000
v 23.0 25.0 -10.0 1.000 1.000 1.000
v 13.0 30.0 -5.0 1.000 1.000 1.000
v 14.0 34.0 16.0 1.000 1.000 1.000
v 13.0 17.0 20.0 1.000 1.000 1.000
v 32.0 34.0 6.0 1.000 1.000 1.000
v -8.0 20.0 -19.0 1.000 1.000 1.000
v 4.0 24.0 -24.0 1.000 1.000 1.000
v -12.0 12.0 -41.0 1.000 1.000 1.000
v 4.0 24.0 -24.0 1.000 1.000 1.000
v 0.0 11.0 -41.0 1.000 1.000 1.000
v 11.0 6.0 -40.0 1.000 1.000 1.000
v -8.0 20.0 -19.0 1.000 1.000 1.000
v -20.0 25.0 -19.0 1.000 1.000 1.000
v 5.0 -2.0 -65.0 1.000 1.000 1.000
v -12.0 12.0 -41.0 1.000 1.000 1.000
v -8.0 7.0 -66.0 1.000 1.000 1.000
v 21.0 -18.0 -181.0 1.000 1.000 1.000
v 14.0 -24.0 -73.0 1.000 1.000 1.000
v 28.0 -49.0 -180.0 1.000 1.000 1.000
v 5.0 -2.0 -65.0 1.000 1.000 1.000
v 21.0 -80.0 -181.0 1.000 1.000 1.000
v -8.0 -56.0 -66.0 1.000 1.000 1.000
v 2.0 -93.0 -182.0 1.000 1.000 1.000
v 5.0 -47.0 -65.0 1.000 1.000 1.000
v -8.0 -56.0 -66.0 1.000 1.000 1.000
v 21.0 -80.0 -181.0 1.000 1.000 1.000
v 28.0 -49.0 -180.0 1.000 1.000 1.000
v 14.0 -24.0 -73.0 1.000 1.000 1.000
v 36.0 14.0 0.0 1.000 1.000 1.000
v 23.0 25.0 -10.0 1.000 1.000 1.000
v 32.0 34.0 6.0 1.000 1.000 1.000
v 36.0 18.0 8.0 1.000 1.000 1.000
v 35.0 12.0 12.0 1.000 1.000 1.000
v 25.0 -3.0 -4.0 1.000 1.000 1.000
v 25.0 9.0 15.0 1.000 1.000 1.000
v -7.0 -8.0 4.0 1.000 1.000 1.000
v 17.0 11.0 23.0 1.000 1.000 1.000
v -18.0 24.0 19.0 1.000 1.000 1.000
v 27.0 -1.0 -29.0 1.000 1.000 1.000
v 4.0 24.0 -24.0 1.000 1.000 1.000
v 23.0 25.0 -10.0 1.000 1.000 1.000
v 36.0 14.0 0.0 1.000 1.000 1.000
v 25.0 -3.0 -4.0 1.000 1.000 1.000
v -3.0 -36.0 -20.0 1.000 1.000 1.000
v -7.0 -8.0 4.0 1.000 1.000 1.000
v -11.0 -25.0 1.0 1.000 1.000 1.000
v 23.0 -43.0 -39.0 1.000 1.000 1.000
v 4.0 -48.0 -17.0 1.000 1.000 1.000
v 25.0 -20.0 -41.0 1.000 1.000 1.000
v 18.0 2.0 -35.0 1.000 1.000 1.000
v 11.0 6.0 -40.0 1.000 1.000 1.000
v 12.0 -60.0 -41.0 1.000 1.000 1.000
v -1.0 -65.0 -41.0 1.000 1.000 1.000
v -8.0 -56.0 -66.0 1.000 1.000 1.000
v 12.0 -60.0 -41.0 1.000 1.000 1.000
v -8.0 -56.0 -66.0 1.000 1.000 1.000
v 5.0 -47.0 -65.0 1.000 1.000 1.000
v 23.0 -43.0 -39.0 1.000 1.000 1.000
v 14.0 -24.0 -73.0 1.000 1.000 1.000
v 25.0 -20.0 -41.0 1.000 1.000 1.000
v 5.0 -2.0 -65.0 1.000 1.000 1.000
v 11.0 6.0 -40.0 1.000 1.000 1.000
v -21.0 -47.0 -67.0 1.000 1.000 1.000
v -8.0 -56.0 -66.0 1.000 1.000 1.000
v -1.0 -65.0 -41.0 1.000 1.000 1.000
v -9.0 -65.0 -42.0 1.000 1.000 1.000
v 2.0 -14.0 -182.0 1.000 1.000 1.000
v 5.0 -2.0 -65.0 1.000 1.000 1.000
v 21.0 -18.0 -181.0 1.000 1.000 1.000
v -8.0 7.0 -66.0 1.000 1.000 1.000
v -16.0 -18.0 -183.0 1.000 1.000 1.000
v -8.0 7.0 -66.0 1.000 1.000 1.000
v 2.0 -14.0 -182.0 1.000 1.000 1.000
v -21.0 -2.0 -67.0 1.000 1.000 1.000
v -34.0 -49.0 -184.0 1.000 1.000 1.000
v -26.0 -24.0 -68.0 1.000 1.000 1.000
v -16.0 -80.0 -183.0 1.000 1.000 1.000
v -21.0 -47.0 -67.0 1.000 1.000 1.000
v 2.0 -93.0 -182.0 1.000 1.000 1.000
v -8.0 -56.0 -66.0 1.000 1.000 1.000
v 15.0 -8.0 65.0 1.000 1.000 1.000
v 20.0 -8.0 61.0 1.000 1.000 1.000
v 16.0 -10.0 58.0 1.000 1.000 1.000
v 27.0 -10.0 61.0 1.000 1.000 1.000
v 15.0 -11.0 71.0 1.000 1.000 1.000
v 19.0 -8.0 38.0 1.000 1.000 1.000
v 25.0 -11.0 38.0 1.000 1.000 1.000
v 26.0 -17.0 38.0 1.000 1.000 1.000
v 28.0 -17.0 61.0 1.000 1.000 1.000
v 25.0 -24.0 38.0 1.000 1.000 1.000
v 27.0 -23.0 61.0 1.000 1.000 1.000
v 19.0 -27.0 38.0 1.000 1.000 1.000
v 21.0 -26.0 61.0 1.000 1.000 1.000
v 16.0 -24.0 38.0 1.000 1.000 1.000
v 14.0 -24.0 60.0 1.000 1.000 1.000
v 13.0 -18.0 38.0 1.000 1.000 1.000
v 13.0 -18.0 38.0 1.000 1.000 1.000
v 14.0 -24.0 60.0 1.000 1.000 1.000
v 11.0 -15.0 60.0 1.000 1.000 1.000
v 15.0 -11.0 38.0 1.000 1.000 1.000
v 14.0 -11.0 60.0 1.000 1.000 1.000
v 19.0 -8.0 38.0 1.000 1.000 1.000
v 20.0 -8.0 61.0 1.000 1.000 1.000
v 25.0 -11.0 38.0 1.000 1.000 1.000
v 21.0 -22.0 31.0 1.000 1.000 1.000
v 21.0 -13.0 31.0 1.000 1.000 1.000
v 26.0 -17.0 38.0 1.000 1.000 1.000
v 25.0 -24.0 38.0 1.000 1.000 1.000
v 19.0 -27.0 38.0 1.000 1.000 1.000
v 16.0 -24.0 38.0 1.000 1.000 1.000
v 19.0 -27.0 63.0 1.000 1.000 1.000
v 21.0 -25.0 52.0 1.000 1.000 1.000
v 18.0 -25.0 57.0 1.000 1.000 1.000
v 27.0 -27.0 51.0 1.000 1.000 1.000
v 20.0 -34.0 65.0 1.000 1.000 1.000
v 28.0 -33.0 50.0 1.000 1.000 1.000
v 28.0 -40.0 50.0 1.000 1.000 1.000
v 20.0 -40.0 64.0 1.000 1.000 1.000
v 22.0 -43.0 51.0 1.000 1.000 1.000
v 20.0 -43.0 58.0 1.000 1.000 1.000
v 16.0 -28.0 53.0 1.000 1.000 1.000
v 17.0 -24.0 30.0 1.000 1.000 1.000
v 21.0 -25.0 52.0 1.000 1.000 1.000
v 23.0 -26.0 29.0 1.000 1.000 1.000
v 27.0 -27.0 51.0 1.000 1.000 1.000
v 24.0 -32.0 28.0 1.000 1.000 1.000
v 24.0 -32.0 28.0 1.000 1.000 1.000
v 27.0 -27.0 51.0 1.000 1.000 1.000
v 28.0 -33.0 50.0 1.000 1.000 1.000
v 24.0 -39.0 28.0 1.000 1.000 1.000
v 28.0 -40.0 50.0 1.000 1.000 1.000
v 18.0 -42.0 29.0 1.000 1.000 1.000
v 22.0 -43.0 51.0 1.000 1.000 1.000
v 22.0 -43.0 51.0 1.000 1.000 1.000
v 15.0 -39.0 30.0 1.000 1.000 1.000
v 16.0 -41.0 53.0 1.000 1.000 1.000
v 12.0 -33.0 30.0 1.000 1.000 1.000
v 14.0 -34.0 53.0 1.000 1.000 1.000
v 14.0 -26.0 30.0 1.000 1.000 1.000
v 16.0 -28.0 53.0 1.000 1.000 1.000
v 17.0 -24.0 30.0 1.000 1.000 1.000
v 21.0 -25.0 52.0 1.000 1.000 1.000
v 23.0 -26.0 29.0 1.000 1.000 1.000
v 20.0 -37.0 21.0 1.000 1.000 1.000
v 20.0 -27.0 21.0 1.000 1.000 1.000
v 24.0 -32.0 28.0 1.000 1.000 1.000
v 24.0 -39.0 28.0 1.000 1.000 1.000
v 17.0 -24.0 30.0 1.000 1.000 1.000
v 14.0 -26.0 30.0 1.000 1.000 1.000
v 18.0 -42.0 29.0 1.000 1.000 1.000
v 15.0 -39.0 30.0 1.000 1.000 1.000
v 12.0 -33.0 30.0 1.000 1.000 1.000
v 16.0 -47.0 61.0 1.000 1.000 1.000
v 20.0 -44.0 51.0 1.000 1.000 1.000
v 18.0 -44.0 55.0 1.000 1.000 1.000
v 26.0 -46.0 51.0 1.000 1.000 1.000
v 17.0 -52.0 62.0 1.000 1.000 1.000
v 28.0 -52.0 50.0 1.000 1.000 1.000
v 17.0 -58.0 61.0 1.000 1.000 1.000
v 28.0 -57.0 50.0 1.000 1.000 1.000
v 20.0 -61.0 56.0 1.000 1.000 1.000
v 21.0 -60.0 49.0 1.000 1.000 1.000
v 15.0 -47.0 51.0 1.000 1.000 1.000
v 16.0 -42.0 31.0 1.000 1.000 1.000
v 21.0 -44.0 29.0 1.000 1.000 1.000
v 22.0 -50.0 29.0 1.000 1.000 1.000
v 22.0 -55.0 28.0 1.000 1.000 1.000
v 17.0 -58.0 29.0 1.000 1.000 1.000
v 17.0 -58.0 29.0 1.000 1.000 1.000
v 21.0 -60.0 49.0 1.000 1.000 1.000
v 15.0 -56.0 29.0 1.000 1.000 1.000
v 16.0 -58.0 50.0 1.000 1.000 1.000
v 12.0 -51.0 31.0 1.000 1.000 1.000
v 13.0 -53.0 51.0 1.000 1.000 1.000
v 14.0 -45.0 31.0 1.000 1.000 1.000
v 15.0 -47.0 51.0 1.000 1.000 1.000
v 16.0 -42.0 31.0 1.000 1.000 1.000
v 20.0 -44.0 51.0 1.000 1.000 1.000
v 21.0 -44.0 29.0 1.000 1.000 1.000
v 19.0 -53.0 21.0 1.000 1.000 1.000
v 18.0 -45.0 22.0 1.000 1.000 1.000
v 22.0 -50.0 29.0 1.000 1.000 1.000
v 22.0 -55.0 28.0 1.000 1.000 1.000
v 21.0 -44.0 29.0 1.000 1.000 1.000
v 18.0 -45.0 22.0 1.000 1.000 1.000
v 16.0 -42.0 31.0 1.000 1.000 1.000
v 14.0 -45.0 31.0 1.000 1.000 1.000
v 16.0 -42.0 31.0 1.000 1.000 1.000
v 19.0 -53.0 21.0 1.000 1.000 1.000
v 22.0 -55.0 28.0 1.000 1.000 1.000
v 17.0 -58.0 29.0 1.000 1.000 1.000
v 15.0 -56.0 29.0 1.000 1.000 1.000
v 12.0 -51.0 31.0 1.000 1.000 1.000
v 19.0 -53.0 21.0 1.000 1.000 1.000
vt 0.9688 0.0312
vt 0.0000 0.0312
vt 0.0000 1.0000
vt 0.9688 1.0000
vt 0.8838 0.8205
vt 0.9556 0.7060
vt 0.7846 0.9111
vt 0.5591 0.9965
vt 0.4409 0.9965
vt 0.2154 0.9111
vt 0.1162 0.8205
vt 0.0057 0.5751
vt 0.0057 0.4249
vt 0.1162 0.1795
vt 0.2154 0.0889
vt 0.3253 0.0315
vt 0.9827 0.6306
vt 0.9312 0.7532
vt 0.9858 0.3815
vt 0.9399 0.2622
vt 0.7654 0.0762
vt 0.6306 0.0173
vt 0.3694 0.0173
vt 0.2300 0.0792
vt 0.0560 0.2701
vt 0.0133 0.3853
vt 0.0152 0.6222
vt 0.0627 0.7425
vt 0.2393 0.9266
vt 0.3731 0.9836
vt 0.6185 0.9858
vt 0.7485 0.9339
vt 0.9979 0.5395
vt 0.9926 0.5834
vt 0.9992 0.5000
vt 0.0021 0.5395
vt 0.0008 0.5000
vt 0.0074 0.5834
vt 0.5000 0.0076
vt 0.5000 0.0173
vt 0.5000 0.0040
vt 0.5000 0.0000
vt 0.5000 0.5000
vt 0.5000 0.0031
vt 0.7510 0.6826
vt 0.7363 0.6270
vt 0.6992 0.6836
vt 0.6650 0.5986
vt 0.7227 0.5791
vt 0.8428 0.3770
vt 0.8379 0.4014
vt 0.7119 0.3701
vt 0.7227 0.4229
vt 0.6475 0.3564
vt 0.8516 0.4043
vt 0.7314 0.4785
vt 0.6846 0.4707
vt 0.7100 0.4199
vt 0.8379 0.4619
vt 0.7109 0.4746
vt 0.8584 0.4658
vt 0.7686 0.4229
vt 0.7656 0.4561
vt 0.4941 0.4160
vt 0.4902 0.4561
vt 0.7568 0.5117
vt 0.7637 0.4336
vt 0.4873 0.4287
vt 0.9566 0.3293
vt 0.0372 0.3141
vt 0.9650 0.3502
vt 0.0206 0.4168
vt 0.0361 0.5753
vt 0.0287 0.6663
vt 0.9079 0.5673
vt 0.9250 0.6470
vt 0.0459 0.6698
vt 0.9541 0.6698
vt 0.5000 0.6110
vt 0.5000 0.3778
vt 0.5000 0.1795
vt 0.5000 0.1038
vt 0.5000 0.0164
vt 0.5000 0.0008
vt 0.5000 0.0257
vt 0.5000 0.0688
vt 0.5000 0.2109
vt 0.5000 0.3102
vt 0.5000 0.4210
vt 0.4404 0.1611
vt 0.6367 0.1914
vt 0.4668 0.1406
vt 0.6162 0.2080
vt 0.4229 0.2197
vt 0.6025 0.2559
vt 0.4141 0.2812
vt 0.5957 0.3047
vt 0.4785 0.2314
vt 0.6289 0.3115
vt 0.4570 0.2891
vt 0.6465 0.2646
vt 0.4824 0.1689
vt 0.6494 0.2148
vt 0.6709 0.2002
vt 0.6963 0.2266
vt 0.6914 0.2754
vt 0.6758 0.3223
vt 0.6084 0.3281
vt 0.6426 0.3359
vt 0.1777 0.1758
vt 0.0215 0.1699
vt 0.1758 0.1934
vt 0.0205 0.1865
vt 0.1738 0.2529
vt 0.0195 0.2461
vt 0.1719 0.3154
vt 0.0156 0.3086
vt 0.1709 0.3496
vt 0.0156 0.3428
vt 0.1729 0.3281
vt 0.0166 0.3252
vt 0.1748 0.2705
vt 0.0195 0.2676
vt 0.1768 0.2061
vt 0.0215 0.2031
vt 0.2246 0.3027
vt 0.2275 0.2158
vt 0.6992 0.2061
vt 0.8154 0.1602
vt 0.6973 0.1855
vt 0.8174 0.1836
vt 0.7031 0.2598
vt 0.8223 0.2441
vt 0.7070 0.3164
vt 0.8262 0.3066
vt 0.7031 0.2656
vt 0.8262 0.3105
vt 0.7070 0.3203
vt 0.8213 0.2500
vt 0.6992 0.2100
vt 0.8174 0.1885
vt 0.6348 0.1777
vt 0.6680 0.2305
vt 0.6338 0.2012
vt 0.7617 0.2090
vt 0.7617 0.1846
vt 0.3867 0.1523
vt 0.4395 0.1367
vt 0.3545 0.2080
vt 0.3613 0.2715
vt 0.4824 0.1709
vt 0.8526 0.2267
vt 0.7293 0.0571
vt 0.9987 0.5040
vt 0.8213 0.1589
vt 0.9167 0.2659
vt 0.1725 0.3185
vt 0.1829 0.1591
vt 0.1436 0.3416
vt 0.0186 0.6302
vt 0.2670 0.0616
vt 0.2700 0.9204
vt 0.0563 0.7020
vt 0.0923 0.6861
vt 0.0324 0.3653
vt 0.2700 0.0796
vt 0.1393 0.3098
vt 0.2663 0.6703
vt 0.2855 0.2458
vt 0.9077 0.6861
vt 0.9437 0.7020
vt 0.7300 0.9204
vt 0.8607 0.3098
vt 0.7300 0.0796
vt 0.9676 0.3653
vt 0.7337 0.6703
vt 0.7145 0.2458
vt 0.8995 0.8006
vt 0.9954 0.4326
vt 0.9954 0.5674
vt 0.8006 0.8995
vt 0.5674 0.9954
vt 0.4326 0.9954
vt 0.1994 0.8995
vt 0.1005 0.8006
vt 0.0046 0.5674
vt 0.0046 0.4326
vt 0.1005 0.1994
vt 0.1994 0.1005
vt 0.4326 0.0046
vt 0.5674 0.0046
vt 0.8006 0.1005
vt 0.8995 0.1994
vt 0.0000 0.0000
vt 1.0000 0.0000
vt 1.0000 1.0000
vt 0.7940 0.1265
vt 0.1793 0.2347
vt 0.9079 0.3099
vt 0.0637 0.3691
vt 0.0251 0.5435
vt 0.9327 0.4841
vt 0.9703 0.6660
vt 0.0219 0.5474
vt 0.9781 0.5474
vt 0.2112 0.1004
vt 0.0445 0.2941
vt 0.2909 0.0502
vt 0.9555 0.2941
vt 0.7103 0.0478
vt 0.7823 0.0905
vt 0.2187 0.0879
vt 0.1464 0.1464
vt 0.7220 0.0520
vt 0.2180 0.0909
vt 0.7844 0.1050
vt 0.2156 0.1050
vt 0.7820 0.0909
vt 0.1369 0.1685
vt 0.9521 0.2938
vt 0.2667 0.0729
vt 0.6266 0.0332
vt 0.1238 0.2070
vt 0.8870 0.4803
vt 0.1323 0.6898
vt 0.8639 0.7176
vt 0.1043 0.6108
vt 0.8985 0.4645
vt 0.2381 0.1151
vt 0.0000 0.5000
vt 1.0000 0.5000
vt -0.0557 0.1748
vt 1.0566 1.1348
vt 0.1650 0.7012
vt -0.1055 0.7744
vt -0.2256 0.6846
vt 0.0059 0.1055
vt 0.3330 0.0000
vt 0.8379 0.0000
vt 1.0273 1.1348
vt -0.3838 1.1543
vt -0.3838 0.7627
vt -0.2266 1.0762
vt -0.2793 1.2324
vt -0.1230 0.9590
vt -0.2266 0.6836
vt 0.1641 0.8809
vt -0.1484 0.0586
vt -0.0439 -0.0586
vt 0.3213 -0.1758
vt 0.8428 -0.1758
vt 1.0234 1.1279
vt 0.2657 0.0592
vt 0.8087 0.1083
vt 0.6821 0.1120
vt 0.3174 0.1389
vt 0.7607 0.2472
vt 0.2381 0.2619
vt 0.6510 0.2695
vt 0.2699 0.2858
vt 0.3770 0.6377
vt 0.2207 0.6875
vt 0.3896 0.8203
vt 0.4004 0.9766
vt 0.3984 0.9434
vt 0.2373 0.9209
vt 0.2305 0.8252
vt 0.2109 0.5518
vt 0.3594 0.3955
vt 0.5752 0.3662
vt 0.5840 0.4854
vt 0.5674 0.2461
vt 0.5928 0.6084
vt 0.5986 0.6992
vt 0.6484 0.7852
vt 0.6055 0.7910
vt 0.6699 0.8730
vt 0.6123 0.8818
vt 0.6592 0.9385
vt 0.6162 0.9443
vt 0.6475 0.9736
vt 0.6191 0.9775
vt 0.7109 0.8682
vt 0.6973 0.8184
vt 0.6846 0.7959
vt 0.5625 0.1875
vt 0.9482 0.1426
vt 0.8965 0.2480
vt 0.9688 0.1953
vt 0.8984 0.1787
vt 0.8467 0.2168
vt 0.9609 0.1338
vt 0.9355 0.1523
vt 0.8174 0.2383
vt 0.8340 0.2266
vt 0.8818 0.1914
vt 0.8496 0.0137
vt 0.8369 0.0225
vt 0.7891 0.0605
vt 0.7354 0.0967
vt 0.7061 0.1182
vt 0.7188 0.1094
vt 0.8008 0.1025
vt 0.8203 0.0352
vt 0.5518 0.1680
vt 0.5205 0.2949
vt 0.6104 0.1523
vt 0.6084 0.2471
vt 0.6113 0.1318
vt 0.5811 0.2256
vt 0.5557 0.1182
vt 0.4707 0.1689
vt 0.4209 0.2969
vt 0.5322 0.0918
vt 0.5967 0.0967
vt 0.6201 0.1084
vt 0.5889 0.1201
vt 0.5254 0.1016
vt 0.2617 0.2529
vt 0.3311 0.3232
vt 0.2646 0.2627
vt 0.3350 0.3340
vt 0.2812 0.2500
vt 0.3525 0.3193
vt 0.3008 0.2217
vt 0.3750 0.2881
vt 0.3125 0.1953
vt 0.4141 0.2422
vt 0.2598 0.2139
vt 0.2529 0.1816
vt 0.2666 0.2363
vt 0.3574 0.2705
vt 0.3594 0.2793
vt 0.3467 0.2656
vt 0.2500 0.2480
vt 0.6895 0.6631
vt 0.6865 0.7471
vt 0.8896 0.6406
vt 0.8867 0.7344
vt 0.6855 0.7871
vt 0.8857 0.7637
vt 0.6846 0.8057
vt 0.8857 0.7607
vt 0.6934 0.5547
vt 0.4180 0.6240
vt 0.4209 0.5381
vt 0.4238 0.4756
vt 0.3750 0.8115
vt 0.4111 0.8135
vt 0.4121 0.7949
vt 0.3574 0.7920
vt 0.4141 0.7529
vt 0.3408 0.7500
vt 0.4160 0.6895
vt 0.3613 0.6855
vt 0.2920 0.5957
vt 0.3311 0.5312
vt 0.2969 0.4668
vt 0.4062 0.4326
vt 0.3359 0.3828
vt 0.3018 0.3184
vt 0.5898 0.1562
vt 0.6494 0.1621
vt 0.3477 0.2197
vt 0.3486 0.2471
vt 0.5605 0.1602
vt 0.2012 0.4170
vt 0.1953 0.3359
vt 0.1953 0.3320
vt 0.1123 0.3838
vt 0.1172 0.4541
vt 0.1289 0.6260
vt 0.1416 0.7969
vt 0.8193 0.3164
vt 0.9561 0.2334
vt 0.4658 0.2803
vt 0.5098 0.2891
vt 0.8555 0.2588
vt 1.0225 0.3018
vt 0.8076 0.6719
vt 0.9990 0.3447
vt 0.4541 0.3516
vt 0.6836 0.3613
vt 0.6611 0.6670
vt 0.4990 0.6611
vt 0.5488 0.9102
vt 0.4951 0.9092
vt 0.4404 0.9082
vt 0.5068 0.8848
vt 0.5488 0.9111
vt 0.7139 0.8633
vt 0.9844 0.3916
vt 0.8467 0.5195
vt 0.9863 0.5430
vt 0.8457 0.3984
vt 0.9873 0.6943
vt 0.8486 0.6914
vt 0.9883 0.7568
vt 0.8477 0.6406
vt 0.4414 0.3154
vt 0.4570 0.2539
vt 0.4248 0.4268
vt 0.3398 0.2549
vt 0.6973 0.4316
vt 0.7012 0.3193
vt 0.8955 0.4805
vt 0.7988 0.3994
vt 0.8994 0.3818
vt 0.8779 0.7344
vt 0.8770 0.7637
vt 0.9873 0.7207
vt 0.9893 0.6709
vt 0.8809 0.6406
vt 0.9932 0.5498
vt 0.8867 0.4805
vt 0.9971 0.4287
vt 0.8896 0.3818
vt 0.4570 0.7080
vt 0.4648 0.7627
vt 0.5498 0.8008
vt 0.5469 0.7979
vt 0.0527 0.3857
vt 0.4473 0.4375
vt 0.0625 0.4619
vt 0.4395 0.3828
vt 0.0537 0.4639
vt 0.4395 0.4395
vt 0.0635 0.6484
vt 0.4473 0.5732
vt 0.0771 0.8330
vt 0.0869 0.9092
vt 0.1465 0.4033
vt 0.1709 0.3975
vt 0.1826 0.4238
vt 0.1719 0.4121
vt 0.1133 0.4336
vt 0.2949 0.3896
vt 0.2959 0.4043
vt 0.2988 0.4639
vt 0.1758 0.4707
vt 0.3027 0.5254
vt 0.1777 0.5332
vt 0.3037 0.5605
vt 0.1797 0.5674
vt 0.3027 0.5400
vt 0.1787 0.5527
vt 0.2998 0.4844
vt 0.1758 0.4971
vt 0.2969 0.4199
vt 0.1729 0.4326
vt 0.3389 0.5117
vt 0.3340 0.4258
vt 0.7090 0.6445
vt 0.7402 0.6396
vt 0.7139 0.6357
vt 0.7812 0.6562
vt 0.7012 0.6855
vt 0.7812 0.6992
vt 0.7666 0.7422
vt 0.6943 0.7285
vt 0.7197 0.7598
vt 0.6924 0.7549
vt 0.6943 0.6572
vt 0.3389 0.5381
vt 0.1582 0.5898
vt 0.3408 0.5547
vt 0.1592 0.6074
vt 0.3428 0.6172
vt 0.1641 0.6689
vt 0.3457 0.6816
vt 0.1641 0.7334
vt 0.3467 0.7158
vt 0.1650 0.7686
vt 0.3447 0.6943
vt 0.1641 0.7510
vt 0.3428 0.6348
vt 0.1611 0.6914
vt 0.3398 0.5684
vt 0.1592 0.6250
vt 0.4053 0.6484
vt 0.4014 0.5586
vt 0.1699 0.8252
vt 0.2178 0.7725
vt 0.1992 0.7881
vt 0.2207 0.7871
vt 0.1680 0.8828
vt 0.2295 0.8379
vt 0.1777 0.9365
vt 0.2363 0.8936
vt 0.2100 0.9453
vt 0.2402 0.9229
vt 0.2217 0.8018
vt 0.3252 0.6982
vt 0.3271 0.7129
vt 0.3350 0.7646
vt 0.3438 0.8193
vt 0.3477 0.8486
vt 0.3447 0.8301
vt 0.2373 0.9082
vt 0.3369 0.7803
vt 0.2305 0.8574
vt 0.3281 0.7236
vt 0.3818 0.7783
vt 0.3701 0.7031
vn 0.000 0.000 1.000
vn 0.000 0.000 1.000
vn 0.000 0.000 1.000
vn 0.000 0.000 1.000
vn 0.000 0.000 1.000
vn 0.000 0.000 1.000
vn 0.000 0.000 1.000
vn 0.000 0.000 1.000
vn 0.000 0.000 1.000
vn 0.000 0.000 1.000
vn 0.000 0.000 1.000
vn 0.000 0.000 1.000
vn 0.000 0.000 1.000
vn 0.000 0.000 1.000
vn 0.000 0.000 1.000
vn 0.000 0.000 1.000
vn 0.000 0.000 -1.000
vn 0.000 0.000 -1.000
vn 0.000 0.000 -1.000
vn 0.000 0.000 -1.000
vn 0.000 0.000 -1.000
vn 0.000 0.000 -1.000
vn 0.000 0.000 -1.000
vn 0.000 0.000 -1.000
vn 0.000 0.000 -1.000
vn 0.000 0.000 -1.000
vn 0.000 0.000 -1.000
vn 0.000 0.000 -1.000
vn 0.000 0.000 -1.000
vn 0.000 0.000 -1.000
vn 0.000 0.000 -1.000
vn 0.000 0.000 -1.000
vn 0.768 -0.641 0.000
vn 0.911 -0.412 0.000
vn 0.911 -0.412 0.000
vn 0.569 -0.822 0.000
vn 0.118 -0.993 0.000
vn -0.118 -0.993 0.000
vn -0.569 -0.822 0.000
vn -0.768 -0.641 0.000
vn -0.989 -0.150 0.000
vn -0.989 0.150 0.000
vn -0.768 0.641 0.000
vn -0.569 0.822 0.000
vn -0.349 0.937 0.000
vn -0.349 0.937 0.000
vn 0.965 -0.261 0.000
vn 0.862 -0.506 0.000
vn 0.972 0.237 0.000
vn 0.880 0.476 0.000
vn 0.531 0.848 0.000
vn 0.261 0.965 0.000
vn -0.261 0.965 0.000
vn -0.540 0.842 0.000
vn -0.888 0.460 0.000
vn -0.973 0.229 0.000
vn -0.970 -0.244 0.000
vn -0.875 -0.485 0.000
vn -0.521 -0.853 0.000
vn -0.254 -0.967 0.000
vn 0.237 -0.972 0.000
vn 0.497 -0.868 0.000
vn 0.497 -0.868 0.000
vn 0.237 -0.972 0.000
vn 0.862 -0.506 0.000
vn 0.965 -0.261 0.000
vn 0.996 -0.079 0.047
vn 0.985 -0.167 0.040
vn 0.996 -0.079 0.047
vn 0.998 0.000 0.055
vn -0.996 -0.079 0.047
vn -0.998 0.000 0.055
vn -0.996 -0.079 0.047
vn -0.985 -0.167 0.040
vn 0.000 0.985 -0.173
vn 0.000 0.965 -0.261
vn 0.000 0.965 -0.261
vn 0.000 0.992 -0.127
vn 0.000 1.000 0.000
vn 0.000 0.985 -0.173
vn 0.000 0.992 -0.127
vn 0.998 0.000 0.055
vn 0.998 0.000 0.055
vn 0.998 0.000 0.055
vn 0.998 0.000 0.055
vn -0.998 0.000 0.055
vn -0.998 0.000 0.055
vn -0.998 0.000 0.055
vn -0.998 0.000 0.055
vn 0.000 0.000 -1.000
vn 0.000 0.000 -1.000
vn 0.000 0.000 -1.000
vn 0.000 0.000 -1.000
vn 0.000 0.994 -0.110
vn 0.000 0.994 -0.110
vn 0.000 0.994 -0.110
vn -0.577 -0.577 -0.577
vn -0.577 -0.577 -0.577
vn -0.577 -0.577 -0.577
vn -0.577 -0.577 -0.577
vn -0.577 -0.577 -0.577
vn -0.577 -0.577 -0.577
vn -0.577 -0.577 -0.577
vn -0.577 -0.577 -0.577
vn -0.577 -0.577 -0.577
vn -0.577 -0.577 -0.577
vn -0.577 -0.577 -0.577
vn -0.577 -0.577 -0.577
vn -0.577 -0.577 -0.577
vn -0.577 -0.577 -0.577
vn -0.577 -0.577 -0.577
vn -0.577 -0.577 -0.577
vn -0.577 -0.577 -0.577
vn -0.577 -0.577 -0.577
vn -0.577 -0.577 -0.577
vn -0.577 -0.577 -0.577
vn -0.577 -0.577 -0.577
vn -0.577 -0.577 -0.577
vn -0.577 -0.577 -0.577
vn -0.577 -0.577 -0.577
vn -0.577 -0.577 -0.577
vn -0.577 -0.577 -0.577
vn -0.577 -0.577 -0.577
vn -0.577 -0.577 -0.577
vn -0.577 -0.577 -0.577
vn -0.577 -0.577 -0.577
vn 0.913 0.341 0.222
vn -0.926 0.372 -0.071
vn 0.930 0.300 0.213
vn -0.959 0.166 0.230
vn -0.928 -0.151 -0.341
vn -0.943 -0.333 0.032
vn 0.816 -0.135 -0.562
vn 0.850 -0.294 0.437
vn -0.908 -0.340 0.245
vn 0.908 -0.340 0.245
vn 0.000 0.000 -1.000
vn 0.000 -0.222 -0.975
vn 0.000 -0.222 -0.975
vn 0.000 0.244 -0.970
vn 0.000 0.641 -0.768
vn 0.000 0.792 -0.610
vn 0.000 0.967 -0.254
vn 0.000 0.792 -0.610
vn 0.000 0.641 -0.768
vn 0.000 0.998 -0.055
vn 0.000 0.949 0.316
vn 0.000 0.862 0.506
vn 0.000 0.578 0.816
vn 0.000 0.380 0.925
vn 0.000 0.158 0.987
vn 0.000 0.158 0.987
vn -0.577 -0.577 -0.577
vn -0.577 -0.577 -0.577
vn -0.577 -0.577 -0.577
vn -0.577 -0.577 -0.577
vn -0.577 -0.577 -0.577
vn -0.577 -0.577 -0.577
vn -0.577 -0.577 -0.577
vn -0.577 -0.577 -0.577
vn -0.577 -0.577 -0.577
vn -0.577 -0.577 -0.577
vn -0.577 -0.577 -0.577
vn -0.577 -0.577 -0.577
vn -0.577 -0.577 -0.577
vn -0.577 -0.577 -0.577
vn -0.577 -0.577 -0.577
vn -0.577 -0.577 -0.577
vn -0.577 -0.577 -0.577
vn -0.577 -0.577 -0.577
vn -0.577 -0.577 -0.577
vn -0.577 -0.577 -0.577
vn -0.577 -0.577 -0.577
vn -0.577 -0.577 -0.577
vn -0.577 -0.577 -0.577
vn -0.577 -0.577 -0.577
vn -0.577 -0.577 -0.577
vn -0.577 -0.577 -0.577
vn -0.577 -0.577 -0.577
vn -0.577 -0.577 -0.577
vn -0.577 -0.577 -0.577
vn -0.577 -0.577 -0.577
vn -0.577 -0.577 -0.577
vn -0.577 -0.577 -0.577
vn -0.577 -0.577 -0.577
vn -0.577 -0.577 -0.577
vn -0.577 -0.577 -0.577
vn -0.577 -0.577 -0.577
vn -0.577 -0.577 -0.577
vn -0.577 -0.577 -0.577
vn -0.577 -0.577 -0.577
vn -0.577 -0.577 -0.577
vn -0.577 -0.577 -0.577
vn -0.577 -0.577 -0.577
vn -0.577 -0.577 -0.577
vn -0.577 -0.577 -0.577
vn -0.577 -0.577 -0.577
vn -0.577 -0.577 -0.577
vn -0.577 -0.577 -0.577
vn -0.577 -0.577 -0.577
vn -0.577 -0.577 -0.577
vn -0.577 -0.577 -0.577
vn -0.577 -0.577 -0.577
vn -0.577 -0.577 -0.577
vn -0.577 -0.577 -0.577
vn -0.577 -0.577 -0.577
vn -0.577 -0.577 -0.577
vn -0.577 -0.577 -0.577
vn -0.577 -0.577 -0.577
vn -0.577 -0.577 -0.577
vn -0.577 -0.577 -0.577
vn -0.577 -0.577 -0.577
vn -0.577 -0.577 -0.577
vn -0.577 -0.577 -0.577
vn -0.577 -0.577 -0.577
vn -0.577 -0.577 -0.577
vn -0.577 -0.577 -0.577
vn -0.577 -0.577 -0.577
vn -0.577 -0.577 -0.577
vn -0.577 -0.577 -0.577
vn -0.577 -0.577 -0.577
vn -0.577 -0.577 -0.577
vn -0.577 -0.577 -0.577
vn -0.577 -0.577 -0.577
vn -0.577 -0.577 -0.577
vn -0.577 -0.577 -0.577
vn -0.577 -0.577 -0.577
vn -0.577 -0.577 -0.577
vn -0.577 -0.577 -0.577
vn -0.577 -0.577 -0.577
vn -0.577 -0.577 -0.577
vn -0.577 -0.577 -0.577
vn -0.577 -0.577 -0.577
vn -0.577 -0.577 -0.577
vn -0.577 -0.577 -0.577
vn -0.577 -0.577 -0.577
vn -0.577 -0.577 -0.577
vn -0.577 -0.577 -0.577
vn -0.577 -0.577 -0.577
vn -0.577 -0.577 -0.577
vn -0.577 -0.577 -0.577
vn -0.577 -0.577 -0.577
vn -0.577 -0.577 -0.577
vn -0.577 -0.577 -0.577
vn -0.577 -0.577 -0.577
vn -0.577 -0.577 -0.577
vn -0.577 -0.577 -0.577
vn -0.577 -0.577 -0.577
vn -0.577 -0.577 -0.577
vn 0.705 0.547 -0.452
vn 0.459 0.886 -0.071
vn 0.997 -0.008 -0.071
vn 0.913 0.341 0.222
vn 0.833 0.468 0.294
vn 0.913 0.341 0.222
vn 0.643 0.682 -0.349
vn -0.655 0.363 -0.663
vn -0.959 0.166 0.230
vn -0.634 0.682 -0.365
vn 0.000 0.000 1.000
vn 0.816 -0.135 -0.562
vn -0.928 -0.151 -0.341
vn 0.000 0.000 -1.000
vn -0.713 0.317 -0.626
vn -0.963 -0.260 -0.071
vn 0.705 0.547 -0.452
vn -0.713 0.317 -0.626
vn -0.466 0.877 -0.118
vn 0.459 0.886 -0.071
vn -0.963 -0.260 -0.071
vn 0.833 0.468 0.294
vn 0.913 0.341 0.222
vn -0.460 -0.841 -0.286
vn -0.887 -0.404 -0.222
vn -0.815 -0.372 -0.443
vn -0.935 0.269 -0.230
vn -0.460 0.841 -0.286
vn -0.721 0.380 -0.579
vn -0.467 -0.341 -0.816
vn -0.429 0.508 -0.747
vn 0.815 -0.372 -0.443
vn 0.887 -0.404 -0.222
vn 0.460 -0.841 -0.286
vn 0.721 0.380 -0.579
vn 0.460 0.841 -0.286
vn 0.935 0.269 -0.230
vn 0.467 -0.341 -0.816
vn 0.429 0.508 -0.747
vn 0.799 -0.601 0.000
vn 0.991 0.135 0.000
vn 0.991 -0.135 0.000
vn 0.601 -0.799 0.000
vn 0.135 -0.991 0.000
vn -0.135 -0.991 0.000
vn -0.601 -0.799 0.000
vn -0.799 -0.601 0.000
vn -0.991 -0.135 0.000
vn -0.991 0.135 0.000
vn -0.799 0.601 0.000
vn -0.601 0.799 0.000
vn -0.135 0.991 0.000
vn 0.135 0.991 0.000
vn 0.601 0.799 0.000
vn 0.799 0.601 0.000
vn 0.577 0.577 0.577
vn 0.577 0.577 0.577
vn 0.577 0.577 0.577
vn 0.577 0.577 0.577
vn -0.577 -0.577 -0.577
vn -0.577 -0.577 -0.577
vn -0.577 -0.577 -0.577
vn -0.577 -0.577 -0.577
vn 0.588 0.747 0.310
vn -0.641 0.531 0.554
vn 0.816 0.380 0.436
vn -0.873 0.262 -0.412
vn -0.950 -0.087 -0.301
vn 0.865 0.032 -0.500
vn 0.941 -0.332 -0.071
vn 0.930 0.300 0.213
vn -0.926 0.372 -0.071
vn -0.908 -0.340 0.245
vn -0.956 -0.095 0.277
vn 0.908 -0.340 0.245
vn 0.956 -0.095 0.277
vn -0.578 0.799 0.166
vn -0.963 -0.260 -0.071
vn 0.997 -0.008 -0.071
vn 0.941 -0.332 -0.071
vn -0.950 -0.087 -0.301
vn -0.578 0.799 0.166
vn -0.911 0.412 0.024
vn -0.418 0.900 0.126
vn 0.911 0.412 0.024
vn 0.588 0.747 0.310
vn 0.421 0.904 0.071
vn 0.565 0.819 0.103
vn -0.563 0.824 0.063
vn -0.466 0.877 -0.118
vn 0.459 0.886 -0.071
vn -0.707 0.707 0.000
vn 0.444 0.896 0.000
vn -0.564 0.818 -0.111
vn 0.569 0.790 -0.229
vn -0.569 0.790 -0.229
vn 0.564 0.818 -0.111
vn -0.726 0.663 0.182
vn 0.904 0.412 0.111
vn -0.467 0.854 0.229
vn 0.253 0.934 0.253
vn -0.752 0.586 -0.301
vn 0.774 0.039 -0.632
vn -0.735 -0.380 -0.561
vn 0.728 -0.435 -0.530
vn -0.791 -0.222 -0.570
vn 0.797 0.071 -0.600
vn -0.791 -0.222 -0.570
vn 0.797 0.071 -0.600
vn -0.524 0.770 -0.365
vn 0.569 0.790 -0.229
vn -0.726 0.663 0.182
vn 0.904 0.412 0.111
vn 0.253 0.934 0.253
vn -0.467 0.854 0.229
vn -0.735 -0.380 -0.561
vn -1.000 0.000 0.000
vn -0.707 0.707 0.000
vn -0.564 0.818 -0.111
vn -0.569 0.790 -0.229
vn -0.752 0.586 -0.301
vn -1.000 0.000 0.000
vn 1.000 0.000 0.000
vn 0.797 0.071 -0.600
vn 0.728 -0.435 -0.530
vn 0.569 0.790 -0.229
vn 0.444 0.896 0.000
vn 0.564 0.818 -0.111
vn 0.904 0.412 0.111
vn 0.774 0.039 -0.632
vn 0.253 0.934 0.253
vn 1.000 0.000 0.000
vn 0.569 0.790 -0.229
vn 0.577 0.577 0.577
vn 0.577 0.577 0.577
vn 0.577 0.577 0.577
vn 0.577 0.577 0.577
vn 0.577 0.577 0.577
vn 0.577 0.577 0.577
vn 0.577 0.577 0.577
vn 0.577 0.577 0.577
vn -0.577 -0.577 -0.577
vn -0.577 -0.577 -0.577
vn -0.577 -0.577 -0.577
vn -0.577 -0.577 -0.577
vn -0.577 -0.577 -0.577
vn -0.577 -0.577 -0.577
vn -0.631 -0.584 -0.510
vn -0.577 -0.577 -0.577
vn 0.577 0.577 0.577
vn 0.577 0.577 0.577
vn -0.577 -0.577 -0.577
vn 0.577 0.577 0.577
vn 0.577 0.577 0.577
vn 0.577 0.577 0.577
vn 0.577 0.577 0.577
vn -0.577 -0.577 -0.577
vn -0.577 -0.577 -0.577
vn -0.577 -0.577 -0.577
vn -0.631 -0.584 -0.510
vn 0.577 0.577 0.577
vn -0.577 -0.577 -0.577
vn -0.577 -0.577 -0.577
vn -0.577 -0.577 -0.577
vn -0.577 -0.577 -0.577
vn -0.577 -0.577 -0.577
vn -0.577 -0.577 -0.577
vn -0.577 -0.577 -0.577
vn -0.577 -0.577 -0.577
vn -0.577 -0.577 -0.577
vn -0.577 -0.577 -0.577
vn -0.577 -0.577 -0.577
vn -0.577 -0.577 -0.577
vn -0.577 -0.577 -0.577
vn 0.577 0.577 0.577
vn 0.577 0.577 0.577
vn 0.577 0.577 0.577
vn 0.577 0.577 0.577
vn 0.577 0.577 0.577
vn 0.577 0.577 0.577
vn 0.577 0.577 0.577
vn 0.577 0.577 0.577
vn 0.577 0.577 0.577
vn 0.577 0.577 0.577
vn 0.577 0.577 0.577
vn 0.577 0.577 0.577
vn 0.577 0.577 0.577
vn 0.577 0.577 0.577
vn 0.577 0.577 0.577
vn 0.577 0.577 0.577
vn -0.577 -0.577 -0.577
vn 0.577 0.577 0.577
vn 0.577 0.577 0.577
vn 0.577 0.577 0.577
vn -0.577 -0.577 -0.577
vn -0.577 -0.577 -0.577
vn -0.577 -0.577 -0.577
vn 0.577 0.577 0.577
vn 0.577 0.577 0.577
vn 0.577 0.577 0.577
vn -0.469 0.882 0.056
vn 0.617 0.783 0.071
vn 0.569 0.790 -0.229
vn -0.524 0.770 -0.365
vn 0.364 0.776 -0.515
vn -0.365 0.722 -0.587
vn 0.521 0.506 -0.687
vn -0.524 0.476 -0.706
vn 0.302 0.461 -0.834
vn -0.460 0.428 -0.778
vn -0.577 -0.577 -0.577
vn -0.577 -0.577 -0.577
vn -0.577 -0.577 -0.577
vn -0.577 -0.577 -0.577
vn -0.577 -0.577 -0.577
vn -0.577 -0.577 -0.577
vn -0.577 -0.577 -0.577
vn -0.577 -0.577 -0.577
vn -0.577 -0.577 -0.577
vn -0.577 -0.577 -0.577
vn -0.577 -0.577 -0.577
vn -0.577 -0.577 -0.577
vn -0.577 -0.577 -0.577
vn -0.577 -0.577 -0.577
vn -0.577 -0.577 -0.577
vn -0.577 -0.577 -0.577
vn -0.577 -0.577 -0.577
vn -0.577 -0.577 -0.577
vn -0.577 -0.577 -0.577
vn -0.577 -0.577 -0.577
vn -0.577 -0.577 -0.577
vn -0.577 -0.577 -0.577
vn -0.577 -0.577 -0.577
vn -0.577 -0.577 -0.577
vn -0.577 -0.577 -0.577
vn -0.577 -0.577 -0.577
vn -0.577 -0.577 -0.577
vn -0.577 -0.577 -0.577
vn -0.577 -0.577 -0.577
vn -0.577 -0.577 -0.577
vn -0.577 -0.577 -0.577
vn -0.577 -0.577 -0.577
vn -0.577 -0.577 -0.577
vn -0.577 -0.577 -0.577
vn -0.577 -0.577 -0.577
vn -0.577 -0.577 -0.577
vn -0.577 -0.577 -0.577
vn -0.577 -0.577 -0.577
vn -0.577 -0.577 -0.577
vn -0.577 -0.577 -0.577
vn -0.577 -0.577 -0.577
vn -0.577 -0.577 -0.577
vn -0.577 -0.577 -0.577
vn -0.577 -0.577 -0.577
vn -0.577 -0.577 -0.577
vn -0.577 -0.577 -0.577
vn -0.577 -0.577 -0.577
vn -0.577 -0.577 -0.577
vn -0.577 -0.577 -0.577
vn -0.577 -0.577 -0.577
vn -0.577 -0.577 -0.577
vn -0.577 -0.577 -0.577
vn -0.577 -0.577 -0.577
vn -0.577 -0.577 -0.577
vn -0.577 -0.577 -0.577
vn -0.577 -0.577 -0.577
vn -0.577 -0.577 -0.577
vn -0.577 -0.577 -0.577
vn -0.577 -0.577 -0.577
vn -0.577 -0.577 -0.577
vn -0.577 -0.577 -0.577
vn -0.577 -0.577 -0.577
vn -0.577 -0.577 -0.577
vn -0.577 -0.577 -0.577
vn -0.577 -0.577 -0.577
vn -0.577 -0.577 -0.577
vn -0.577 -0.577 -0.577
vn -0.577 -0.577 -0.577
vn -0.577 -0.577 -0.577
vn -0.577 -0.577 -0.577
vn -0.577 -0.577 -0.577
vn -0.577 -0.577 -0.577
vn -0.577 -0.577 -0.577
vn -0.577 -0.577 -0.577
vn -0.577 -0.577 -0.577
vn -0.577 -0.577 -0.577
vn -0.577 -0.577 -0.577
vn -0.577 -0.577 -0.577
vn -0.577 -0.577 -0.577
vn -0.577 -0.577 -0.577
vn -0.577 -0.577 -0.577
vn -0.577 -0.577 -0.577
vn -0.577 -0.577 -0.577
vn -0.577 -0.577 -0.577
vn -0.577 -0.577 -0.577
vn -0.577 -0.577 -0.577
vn -0.577 -0.577 -0.577
vn -0.577 -0.577 -0.577
vn -0.577 -0.577 -0.577
vn -0.577 -0.577 -0.577
vn -0.577 -0.577 -0.577
vn -0.577 -0.577 -0.577
vn -0.577 -0.577 -0.577
vn -0.577 -0.577 -0.577
vn -0.577 -0.577 -0.577
vn -0.577 -0.577 -0.577
vn -0.577 -0.577 -0.577
vn -0.577 -0.577 -0.577
vn -0.577 -0.577 -0.577
vn -0.577 -0.577 -0.577
vn -0.577 -0.577 -0.577
vn -0.577 -0.577 -0.577
vn -0.577 -0.577 -0.577
vn -0.577 -0.577 -0.577
vn -0.577 -0.577 -0.577
vn -0.577 -0.577 -0.577
vn -0.577 -0.577 -0.577
vn -0.577 -0.577 -0.577
vn -0.577 -0.577 -0.577
vn -0.577 -0.577 -0.577
vn -0.577 -0.577 -0.577
vn -0.577 -0.577 -0.577
vn -0.577 -0.577 -0.577
vn -0.577 -0.577 -0.577
vn -0.577 -0.577 -0.577
vn -0.577 -0.577 -0.577
vn -0.577 -0.577 -0.577
vn -0.577 -0.577 -0.577
vn -0.577 -0.577 -0.577
vn -0.577 -0.577 -0.577
vn -0.577 -0.577 -0.577
vn -0.577 -0.577 -0.577
vn -0.577 -0.577 -0.577
vn -0.577 -0.577 -0.577
vn -0.577 -0.577 -0.577
vn -0.577 -0.577 -0.577
vn -0.577 -0.577 -0.577
vn -0.577 -0.577 -0.577
vn -0.577 -0.577 -0.577
vn -0.577 -0.577 -0.577
vn -0.577 -0.577 -0.577
vn -0.577 -0.577 -0.577
vn -0.577 -0.577 -0.577
vn -0.577 -0.577 -0.577
vn -0.577 -0.577 -0.577
vn -0.577 -0.577 -0.577
vn -0.577 -0.577 -0.577
vn -0.577 -0.577 -0.577
vn -0.577 -0.577 -0.577
vn -0.577 -0.577 -0.577
vn -0.577 -0.577 -0.577
vn -0.577 -0.577 -0.577
vn -0.577 -0.577 -0.577
vn -0.577 -0.577 -0.577
vn -0.577 -0.577 -0.577
vn -0.577 -0.577 -0.577
vn -0.577 -0.577 -0.577
vn -0.577 -0.577 -0.577
vn -0.577 -0.577 -0.577
vn -0.577 -0.577 -0.577
vn -0.577 -0.577 -0.577
vn -0.577 -0.577 -0.577
vn -0.577 -0.577 -0.577
vn -0.577 -0.577 -0.577
vn -0.577 -0.577 -0.577
vn -0.577 -0.577 -0.577
vn -0.577 -0.577 -0.577
vn -0.577 -0.577 -0.577
vn -0.577 -0.577 -0.577
vn -0.577 -0.577 -0.577
vn -0.577 -0.577 -0.577
vn -0.577 -0.577 -0.577
vn -0.577 -0.577 -0.577
vn -0.577 -0.577 -0.577
vn -0.577 -0.577 -0.577
vn -0.577 -0.577 -0.577
vn -0.577 -0.577 -0.577
vn -0.577 -0.577 -0.577
vn -0.577 -0.577 -0.577
vn -0.577 -0.577 -0.577
vn -0.577 -0.577 -0.577
vn -0.577 -0.577 -0.577
vn -0.577 -0.577 -0.577
vn -0.577 -0.577 -0.577
vn -0.577 -0.577 -0.577
vn -0.577 -0.577 -0.577
vn -0.577 -0.577 -0.577
vn -0.577 -0.577 -0.577
vn -0.577 -0.577 -0.577
vn -0.577 -0.577 -0.577
vn -0.577 -0.577 -0.577
vn -0.577 -0.577 -0.577
vn -0.577 -0.577 -0.577
vn -0.577 -0.577 -0.577
vn -0.577 -0.577 -0.577
vn -0.577 -0.577 -0.577
vn -0.577 -0.577 -0.577
vn -0.577 -0.577 -0.577
vn -0.577 -0.577 -0.577
vn -0.577 -0.577 -0.577
vn -0.577 -0.577 -0.577
vn -0.577 -0.577 -0.577
vn -0.577 -0.577 -0.577
vn -0.577 -0.577 -0.577
vn -0.577 -0.577 -0.577
vn -0.577 -0.577 -0.577
vn -0.577 -0.577 -0.577
vn -0.577 -0.577 -0.577
vn -0.577 -0.577 -0.577
vn -0.577 -0.577 -0.577
vn -0.577 -0.577 -0.577
vn -0.577 -0.577 -0.577
vn -0.577 -0.577 -0.577
vn -0.577 -0.577 -0.577
vn -0.577 -0.577 -0.577
vn -0.577 -0.577 -0.577
vn -0.577 -0.577 -0.577
vn -0.577 -0.577 -0.577
vn -0.577 -0.577 -0.577
vn -0.577 -0.577 -0.577
vn -0.577 -0.577 -0.577
vn -0.577 -0.577 -0.577
vn -0.577 -0.577 -0.577
vn -0.577 -0.577 -0.577
vn -0.577 -0.577 -0.577
vn -0.577 -0.577 -0.577
vn -0.577 -0.577 -0.577
vn -0.577 -0.577 -0.577
vn -0.577 -0.577 -0.577
vn -0.577 -0.577 -0.577
vn -0.577 -0.577 -0.577
vn -0.577 -0.577 -0.577
vn -0.577 -0.577 -0.577
vn -0.577 -0.577 -0.577
vn -0.577 -0.577 -0.577
vn -0.577 -0.577 -0.577
vn -0.577 -0.577 -0.577
vn -0.577 -0.577 -0.577
vn -0.577 -0.577 -0.577
vn -0.577 -0.577 -0.577
vn -0.577 -0.577 -0.577
vn -0.577 -0.577 -0.577
vn -0.577 -0.577 -0.577
vn -0.577 -0.577 -0.577
vn -0.577 -0.577 -0.577
vn -0.577 -0.577 -0.577
vn -0.577 -0.577 -0.577
vn -0.577 -0.577 -0.577
vn -0.577 -0.577 -0.577
vn -0.577 -0.577 -0.577
vn -0.577 -0.577 -0.577
vn -0.577 -0.577 -0.577
vn -0.577 -0.577 -0.577
vn -0.577 -0.577 -0.577
vn -0.577 -0.577 -0.577
vn -0.577 -0.577 -0.577
vn -0.577 -0.577 -0.577
vn -0.577 -0.577 -0.577
vn -0.577 -0.577 -0.577
vn -0.577 -0.577 -0.577
vn -0.577 -0.577 -0.577
vn -0.577 -0.577 -0.577
vn -0.577 -0.577 -0.577
vn -0.577 -0.577 -0.577
vn -0.577 -0.577 -0.577
vn -0.577 -0.577 -0.577
vn -0.577 -0.577 -0.577
vn -0.577 -0.577 -0.577
vn -0.577 -0.577 -0.577
vn -0.577 -0.577 -0.577
vn -0.577 -0.577 -0.577
vn -0.577 -0.577 -0.577
vn -0.577 -0.577 -0.577
vn -0.577 -0.577 -0.577
vn -0.577 -0.577 -0.577
vn -0.577 -0.577 -0.577
vn -0.577 -0.577 -0.577
vn -0.577 -0.577 -0.577
vn -0.577 -0.577 -0.577
vn -0.577 -0.577 -0.577
vn -0.577 -0.577 -0.577
vn -0.577 -0.577 -0.577
vn -0.577 -0.577 -0.577
vn -0.577 -0.577 -0.577
vn -0.577 -0.577 -0.577
vn -0.577 -0.577 -0.577
vn -0.577 -0.577 -0.577
vn -0.577 -0.577 -0.577
vn -0.577 -0.577 -0.577
vn -0.577 -0.577 -0.577
vn -0.577 -0.577 -0.577
vn -0.577 -0.577 -0.577
vn -0.577 -0.577 -0.577
vn -0.577 -0.577 -0.577
vn -0.577 -0.577 -0.577
vn -0.577 -0.577 -0.577
vn -0.577 -0.577 -0.577
vn -0.577 -0.577 -0.577
vn -0.577 -0.577 -0.577
vn -0.577 -0.577 -0.577
vn -0.577 -0.577 -0.577
vn -0.577 -0.577 -0.577
vn -0.577 -0.577 -0.577
vn -0.577 -0.577 -0.577
vn -0.577 -0.577 -0.577
vn -0.577 -0.577 -0.577
vn -0.577 -0.577 -0.577
vn -0.577 -0.577 -0.577
vn -0.577 -0.577 -0.577
vn -0.577 -0.577 -0.577
vn -0.577 -0.577 -0.577
vn -0.577 -0.577 -0.577
vn -0.577 -0.577 -0.577
vn -0.577 -0.577 -0.577
vn -0.577 -0.577 -0.577
vn -0.577 -0.577 -0.577
vn -0.577 -0.577 -0.577
vn -0.577 -0.577 -0.577
vn -0.577 -0.577 -0.577
vn -0.577 -0.577 -0.577
vn -0.577 -0.577 -0.577
vn -0.577 -0.577 -0.577
vn -0.577 -0.577 -0.577
vn -0.577 -0.577 -0.577
vn -0.577 -0.577 -0.577
vn -0.577 -0.577 -0.577
vn -0.577 -0.577 -0.577
vn -0.577 -0.577 -0.577
vn -0.577 -0.577 -0.577
vn -0.577 -0.577 -0.577
vn -0.577 -0.577 -0.577
vn -0.577 -0.577 -0.577
vn -0.577 -0.577 -0.577
vn -0.577 -0.577 -0.577
vn -0.577 -0.577 -0.577
vn -0.577 -0.577 -0.577
vn -0.577 -0.577 -0.577
vn -0.577 -0.577 -0.577
vn -0.577 -0.577 -0.577
vn -0.577 -0.577 -0.577
vn -0.577 -0.577 -0.577
vn -0.577 -0.577 -0.577
vn -0.577 -0.577 -0.577
vn -0.577 -0.577 -0.577
vn -0.577 -0.577 -0.577
vn -0.577 -0.577 -0.577
vn -0.577 -0.577 -0.577
vn -0.577 -0.577 -0.577
vn -0.577 -0.577 -0.577
vn -0.577 -0.577 -0.577
vn -0.577 -0.577 -0.577
vn -0.577 -0.577 -0.577
vn -0.577 -0.577 -0.577
vn -0.577 -0.577 -0.577
vn -0.577 -0.577 -0.577
vn -0.577 -0.577 -0.577
vn -0.577 -0.577 -0.577
vn -0.577 -0.577 -0.577
vn -0.577 -0.577 -0.577
vn -0.577 -0.577 -0.577
vn -0.577 -0.577 -0.577
vn -0.577 -0.577 -0.577
vn -0.577 -0.577 -0.577
vn -0.577 -0.577 -0.577
vn -0.577 -0.577 -0.577
vn -0.577 -0.577 -0.577
vn -0.577 -0.577 -0.577
vn -0.577 -0.577 -0.577
vn -0.577 -0.577 -0.577
vn -0.577 -0.577 -0.577
vn -0.577 -0.577 -0.577
vn -0.577 -0.577 -0.577
vn -0.577 -0.577 -0.577
vn -0.577 -0.577 -0.577
vn -0.577 -0.577 -0.577
vn -0.577 -0.577 -0.577
vn -0.577 -0.577 -0.577
vn -0.577 -0.577 -0.577
vn -0.577 -0.577 -0.577
vn -0.577 -0.577 -0.577
vn -0.577 -0.577 -0.577
vn -0.577 -0.577 -0.577
vn -0.577 -0.577 -0.577
vn -0.577 -0.577 -0.577
vn -0.577 -0.577 -0.577
vn -0.577 -0.577 -0.577
vn -0.577 -0.577 -0.577
vn -0.577 -0.577 -0.577
vn -0.577 -0.577 -0.577
vn -0.577 -0.577 -0.577
vn -0.577 -0.577 -0.577
vn -0.577 -0.577 -0.577
vn -0.577 -0.577 -0.577
usemtl tex_2137_fl0_ds_w11
f 1/1/1 2/2/2 3/3/3
f 1/1/1 3/3/3 4/4/4
usemtl tex_2138_fl0_ds_w11_ovl
f 5/1/5 6/2/6 7/3/7
f 5/1/5 7/3/7 8/4/8
usemtl tex_2139_fl0_ds_w11_ovl
f 9/1/9 10/2/10 11/3/11
f 9/1/9 11/3/11 12/4/12
usemtl tex_2140_fl0_ds_w11_ovl
f 13/1/13 14/2/14 15/3/15
f 13/1/13 15/3/15 16/4/16
usemtl tex_2137_fl1_ds_w11
f 17/1/17 18/2/18 19/3/19
f 17/1/17 19/3/19 20/4/20
usemtl tex_2138_fl1_ds_w11_ovl
f 21/1/21 22/2/22 23/3/23
f 21/1/21 23/3/23 24/4/24
usemtl tex_2139_fl1_ds_w11_ovl
f 25/1/25 26/2/26 27/3/27
f 25/1/25 27/3/27 28/4/28
usemtl tex_2140_fl1_ds_w11_ovl
f 29/1/29 30/2/30 31/3/31
f 29/1/29 31/3/31 32/4/32
usemtl tex_776_lit_env_ds
f 33/5/33 34/6/34 35/6/35
f 33/5/33 35/6/35 36/7/36
f 37/8/37 33/5/33 36/7/36
f 37/8/37 36/7/36 38/9/38
f 39/10/39 37/8/37 38/9/38
f 39/10/39 38/9/38 40/11/40
f 41/12/41 39/10/39 40/11/40
f 41/12/41 40/11/40 42/13/42
f 43/14/43 41/12/41 42/13/42
f 43/14/43 42/13/42 44/15/44
f 45/16/45 43/14/43 44/15/44
f 45/16/45 44/15/44 46/16/46
f 47/17/47 48/18/48 49/19/49
f 47/17/47 49/19/49 50/20/50
f 50/20/50 49/19/49 51/21/51
f 50/20/50 51/21/51 52/22/52
f 52/22/52 51/21/51 53/23/53
f 52/22/52 53/23/53 54/24/54
f 54/24/54 53/23/53 55/25/55
f 54/24/54 55/25/55 56/26/56
f 56/26/56 55/25/55 57/27/57
f 56/26/56 57/27/57 58/28/58
f 58/28/58 57/27/57 59/29/59
f 58/28/58 59/29/59 60/30/60
f 60/30/60 59/29/59 61/31/61
f 60/30/60 61/31/61 62/32/62
f 63/32/63 64/31/64 65/18/65
f 63/32/63 65/18/65 66/17/66
f 67/33/67 68/34/68 69/33/69
f 67/33/67 69/33/69 70/35/70
f 71/36/71 72/37/72 73/36/73
f 71/36/71 73/36/73 74/38/74
f 75/39/75 76/40/76 77/40/77
f 75/39/75 77/40/77 78/41/78
f 79/42/79 80/39/80 81/41/81
f 82/35/82 83/35/83 84/35/84
f 82/35/82 84/35/84 85/35/85
f 86/37/86 87/37/87 88/37/88
f 86/37/86 88/37/88 89/37/89
f 90/43/90 91/43/91 92/43/92
f 90/43/90 92/43/92 93/43/93
f 94/44/94 95/44/95 96/44/96
usemtl tex_1794_sw0_0_lit_ds_w11
f 97/45/97 98/46/98 99/47/99
f 99/47/99 98/46/98 100/48/100
f 98/46/98 101/49/101 100/48/100
f 102/50/102 103/51/103 104/52/104
f 105/53/105 106/52/106 107/54/107
f 108/55/108 102/50/102 105/53/105
f 105/53/105 102/50/102 106/52/106
f 109/56/109 105/53/105 110/57/110
f 105/53/105 107/54/107 110/57/110
f 104/52/104 103/51/103 111/58/111
f 103/51/103 112/59/112 111/58/111
f 113/58/113 114/59/114 115/60/115
f 116/61/116 117/55/117 118/56/118
f 118/56/118 117/55/117 119/53/119
usemtl tex_1795_sw0_0_lit_ds_w11
f 120/62/120 121/63/121 122/64/122
f 122/64/122 121/63/121 123/65/123
f 121/63/121 124/66/124 123/65/123
f 125/67/125 120/62/120 126/68/126
f 126/68/126 120/62/120 122/64/122
usemtl tex_776_sw1_0_lit_env_ds
f 127/69/127 128/70/128 129/71/129
f 127/69/127 130/72/130 128/70/128
f 131/73/131 128/70/128 130/72/130
f 131/73/131 132/74/132 128/70/128
f 129/71/129 133/75/133 127/69/127
f 129/71/129 134/76/134 133/75/133
f 135/77/135 128/70/128 132/74/132
f 136/78/136 134/76/134 129/71/129
f 137/43/137 138/79/138 139/79/139
f 140/80/140 138/79/138 137/43/137
f 141/81/141 140/80/140 137/43/137
f 142/82/142 140/80/140 141/81/141
f 143/83/143 144/82/144 145/81/145
f 146/84/146 144/82/144 143/83/143
f 147/85/147 146/84/146 143/83/143
f 148/86/148 146/84/146 147/85/147
f 149/87/149 148/86/148 147/85/147
f 150/88/150 148/86/148 149/87/149
f 151/89/151 150/88/150 149/87/149
f 152/89/152 150/88/150 151/89/151
usemtl tex_1795_sw2_0_lit_ds_w11
f 153/90/153 154/91/154 155/92/155
f 156/93/156 154/91/154 153/90/153
f 157/94/157 156/93/156 153/90/153
f 158/95/158 156/93/156 157/94/157
f 159/96/159 158/95/158 157/94/157
f 160/97/160 158/95/158 159/96/159
f 161/98/161 162/99/162 163/100/163
f 164/101/164 162/99/162 161/98/161
f 165/102/165 164/101/164 161/98/161
f 166/103/166 164/101/164 165/102/165
f 155/92/155 166/103/166 165/102/165
f 154/91/154 166/103/166 155/92/155
f 167/104/167 154/91/154 168/105/168
f 154/91/154 156/93/156 168/105/168
f 169/105/169 170/93/170 171/106/171
f 171/106/171 170/93/170 172/95/172
f 173/107/173 171/106/171 172/95/172
f 173/107/173 172/95/172 174/97/174
f 174/97/174 175/108/175 173/107/173
f 175/108/175 176/109/176 173/107/173
f 177/91/177 178/104/178 179/103/179
usemtl tex_1796_sw2_0_lit_ds_w11
f 180/110/180 181/111/181 182/112/182
f 182/112/182 181/111/181 183/113/183
f 182/112/182 183/113/183 184/114/184
f 185/114/185 186/113/186 187/115/187
f 185/114/185 187/115/187 188/116/188
f 188/116/188 187/115/187 189/117/189
f 188/116/188 189/117/189 190/118/190
f 190/118/190 189/117/189 191/119/191
f 190/118/190 191/119/191 192/120/192
f 192/120/192 191/119/191 193/121/193
f 192/120/192 193/121/193 194/122/194
f 194/122/194 193/121/193 195/123/195
f 194/122/194 195/123/195 196/124/196
f 196/124/196 195/123/195 197/125/197
f 196/124/196 197/125/197 198/110/198
f 198/110/198 197/125/197 199/111/199
f 200/112/200 201/126/201 202/127/202
f 203/114/203 201/126/201 200/112/200
f 204/116/204 201/126/201 203/114/203
f 200/112/200 202/127/202 205/110/205
f 202/127/202 206/124/206 205/110/205
f 201/126/201 204/116/204 207/118/207
f 208/120/208 201/126/201 207/118/207
f 209/122/209 201/126/201 208/120/208
f 202/127/202 201/126/201 209/122/209
f 202/127/202 209/122/209 206/124/206
usemtl tex_1794_sw2_1_lit_ds_w11
f 210/128/210 211/129/211 212/130/212
f 213/131/213 211/129/211 210/128/210
f 214/132/214 213/131/213 210/128/210
f 215/133/215 213/131/213 214/132/214
f 216/134/216 215/133/215 214/132/214
f 217/135/217 215/133/215 216/134/216
f 218/136/218 219/137/219 220/138/220
f 221/139/221 219/137/219 218/136/218
f 222/140/222 221/139/221 218/136/218
f 223/141/223 221/139/221 222/140/222
f 212/130/212 223/141/223 222/140/222
f 211/129/211 223/141/223 212/130/212
f 224/142/224 225/143/225 210/128/210
f 224/142/224 210/128/210 212/130/212
f 226/144/226 227/145/227 228/136/228
f 229/145/229 226/144/226 228/136/228
f 226/144/226 230/146/230 227/145/227
f 231/128/231 232/143/232 233/132/233
f 233/132/233 232/143/232 234/54/234
f 234/54/234 235/134/235 233/132/233
f 235/134/235 234/54/234 236/52/236
usemtl tex_1795_sw2_1_lit_ds_w11
f 237/147/237 238/90/238 239/148/239
f 240/94/240 238/90/238 237/147/237
f 240/94/240 237/147/237 241/149/241
f 242/150/242 243/94/243 244/149/244
f 245/96/245 243/94/243 242/150/242
f 246/148/246 247/90/247 248/92/248
f 248/92/248 249/151/249 246/148/246
usemtl tex_776_lit_env_ds
f 250/152/250 251/153/251 252/154/252
f 256/155/256 254/156/254 253/69/253
f 257/157/257 258/72/258 259/158/259
f 261/75/261 256/155/256 253/69/253
f 262/73/262 258/72/258 257/157/257
f 261/75/261 262/73/262 257/157/257
f 261/75/261 257/157/257 256/155/256
f 256/155/256 257/157/257 259/158/259
f 256/155/256 259/158/259 254/156/254
f 263/43/263 259/158/259 264/159/264
f 263/43/263 264/159/264 250/152/250
f 253/69/253 250/152/250 252/154/252
f 264/159/264 259/158/259 258/72/258
f 264/159/264 258/72/258 265/160/265
f 266/152/266 267/159/267 268/161/268
f 266/152/266 268/161/268 269/153/269
f 268/161/268 267/159/267 270/160/270
f 271/156/271 266/152/266 272/69/272
f 273/162/273 274/163/274 275/164/275
f 276/165/276 277/166/277 278/167/278
f 273/162/273 275/164/275 279/168/279
f 278/167/278 277/166/277 280/169/280
f 278/167/278 280/169/280 279/168/279
f 275/164/275 278/167/278 279/168/279
f 276/165/276 278/167/278 275/164/275
f 274/163/274 276/165/276 275/164/275
f 281/170/281 282/171/282 283/172/283
f 284/173/284 285/174/285 286/175/286
f 287/176/287 281/170/281 283/172/283
f 288/177/288 285/174/285 284/173/284
f 287/176/287 288/177/288 284/173/284
f 287/176/287 284/173/284 281/170/281
f 281/170/281 284/173/284 286/175/286
f 281/170/281 286/175/286 282/171/282
f 289/178/289 290/179/290 291/180/291
f 289/178/289 291/180/291 292/181/292
f 293/182/293 289/178/289 292/181/292
f 293/182/293 292/181/292 294/183/294
f 295/184/295 293/182/293 294/183/294
f 295/184/295 294/183/294 296/185/296
f 297/186/297 295/184/295 296/185/296
f 297/186/297 296/185/296 298/187/298
f 299/188/299 297/186/297 298/187/298
f 299/188/299 298/187/298 300/189/300
f 301/190/301 299/188/299 300/189/300
f 301/190/301 300/189/300 302/191/302
f 303/192/303 301/190/301 302/191/302
f 303/192/303 302/191/302 304/193/304
f 290/179/290 303/192/303 304/193/304
f 290/179/290 304/193/304 291/180/291
usemtl tex_1142_lit_sec_ds
f 305/194/305 306/195/306 307/196/307
f 305/194/305 307/196/307 308/3/308
usemtl tex_1141_lit_sec_ds
f 309/3/309 310/196/310 311/195/311
f 309/3/309 311/195/311 312/194/312
usemtl tex_776_lit_env_ds
f 313/197/313 314/198/314 315/199/315
f 316/200/316 317/201/317 318/202/318
f 317/201/317 319/203/319 318/202/318
f 318/202/318 320/71/320 316/200/316
f 320/71/320 321/70/321 316/200/316
f 322/77/322 316/200/316 321/70/321
f 322/77/322 323/204/323 316/200/316
f 318/202/318 324/78/324 320/71/320
f 318/202/318 325/205/325 324/78/324
f 323/204/323 317/201/317 316/200/316
f 323/204/323 314/198/314 317/201/317
f 319/203/319 325/205/325 318/202/318
f 319/203/319 315/199/315 325/205/325
f 313/197/313 326/206/326 314/198/314
f 326/206/326 317/201/317 314/198/314
f 313/197/313 315/199/315 319/203/319
f 327/160/327 328/154/328 329/203/329
f 329/203/329 330/201/330 327/160/327
f 331/206/331 332/207/332 330/201/330
f 331/206/331 333/208/333 332/207/332
f 334/209/334 335/197/335 329/203/329
f 334/209/334 336/210/336 335/197/335
f 336/210/336 331/206/331 335/197/335
f 336/210/336 333/208/333 331/206/331
f 337/211/337 333/208/333 336/210/336
f 337/211/337 338/212/338 333/208/333
f 338/212/338 327/160/327 332/207/332
f 338/212/338 339/161/339 327/160/327
f 328/154/328 337/211/337 334/209/334
f 328/154/328 340/153/340 337/211/337
f 340/153/340 338/212/338 337/211/337
f 340/153/340 339/161/339 338/212/338
f 338/212/338 332/207/332 333/208/333
f 337/211/337 336/210/336 334/209/334
f 341/213/341 342/214/342 343/215/343
f 343/215/343 342/214/342 344/216/344
f 343/215/343 344/216/344 345/217/345
f 345/217/345 344/216/344 346/218/346
f 345/217/345 346/218/346 347/219/347
f 347/219/347 346/218/346 348/220/348
f 349/221/349 350/222/350 351/223/351
f 351/223/351 350/222/350 352/224/352
f 351/223/351 352/224/352 353/225/353
f 353/225/353 352/224/352 354/226/354
f 353/225/353 354/226/354 355/227/355
f 355/227/355 354/226/354 356/228/356
f 357/227/357 358/228/358 359/229/359
f 359/229/359 358/228/358 360/216/360
f 361/219/361 362/220/362 363/222/363
f 364/221/364 361/219/361 363/222/363
f 365/225/365 357/227/357 366/230/366
f 366/230/366 367/213/367 368/215/368
f 366/230/366 368/215/368 369/217/369
f 366/230/366 369/217/369 361/219/361
f 361/219/361 364/221/364 370/223/370
f 361/219/361 370/223/370 365/225/365
f 365/225/365 366/230/366 361/219/361
f 357/227/357 359/229/359 371/230/371
f 371/230/371 366/230/366 357/227/357
f 372/231/372 373/228/373 374/226/374
f 375/216/375 376/214/376 372/231/372
f 377/218/377 375/216/375 372/231/372
f 378/220/378 377/218/377 372/231/372
f 379/224/379 380/222/380 378/220/378
f 374/226/374 379/224/379 378/220/378
f 378/220/378 372/231/372 374/226/374
f 381/231/381 382/216/382 373/228/373
f 373/228/373 372/231/372 381/231/381
usemtl tex_1143_lit_ds
f 383/232/383 384/233/384 385/234/385
f 383/232/383 385/234/385 386/235/386
f 383/232/383 386/235/386 387/236/387
f 388/237/388 384/233/384 383/232/383
f 388/237/388 389/238/389 384/233/384
f 390/239/390 384/233/384 389/238/389
f 391/240/391 392/239/392 393/238/393
f 391/240/391 393/238/393 394/237/394
f 395/232/395 396/236/396 397/235/397
f 395/232/395 397/235/397 398/234/398
f 395/232/395 398/234/398 391/240/391
f 394/237/394 395/232/395 391/240/391
f 399/236/399 400/241/400 401/242/401
f 402/243/402 403/244/403 404/235/404
f 404/235/404 405/245/405 402/243/402
f 406/241/406 407/246/407 408/242/408
f 409/235/409 410/243/410 411/245/411
f 412/244/412 410/243/410 409/235/409
f 413/234/413 409/235/409 411/245/411
f 414/247/414 413/234/413 411/245/411
f 412/244/412 409/235/409 407/246/407
f 412/244/412 407/246/407 406/241/406
f 415/248/415 416/242/416 417/246/417
f 415/248/415 417/246/417 418/232/418
f 415/248/415 418/232/418 419/237/419
f 415/248/415 419/237/419 420/249/420
f 419/237/419 421/238/421 422/250/422
f 420/249/420 419/237/419 422/250/422
f 422/250/422 421/238/421 423/239/423
f 422/250/422 423/239/423 424/251/424
f 425/237/425 426/249/426 427/250/427
f 425/237/425 427/250/427 428/238/428
f 427/250/427 429/251/429 430/239/430
f 428/238/428 427/250/427 430/239/430
f 431/234/431 432/247/432 433/245/433
f 434/235/434 431/234/431 433/245/433
f 435/248/435 436/249/436 437/237/437
f 435/248/435 437/237/437 438/232/438
f 435/248/435 438/232/438 439/246/439
f 440/242/440 435/248/435 439/246/439
f 441/241/441 442/236/442 434/235/434
f 441/241/441 434/235/434 443/244/443
f 444/252/444 445/234/445 446/247/446
f 447/247/447 448/234/448 449/233/449
usemtl tex_776_lit_env_ds
f 450/253/450 451/254/451 452/216/452
f 450/253/450 452/216/452 453/229/453
f 453/229/453 452/216/452 454/255/454
f 453/229/453 454/255/454 455/256/455
f 455/256/455 454/255/454 456/257/456
f 455/256/455 456/257/456 457/258/457
f 457/258/457 456/257/456 458/259/458
f 457/258/457 458/259/458 459/260/459
usemtl tex_1794_sw3_0_lit_ds_w11
f 460/261/460 461/262/461 462/263/462
f 463/264/463 464/265/464 465/266/465
f 465/266/465 464/265/464 466/267/466
f 464/265/464 462/263/462 466/267/466
f 462/263/462 461/262/461 466/267/466
f 460/261/460 467/268/467 461/262/461
f 460/261/460 468/269/468 467/268/467
f 469/270/469 468/269/468 470/271/470
f 471/272/471 469/270/469 472/54/472
f 469/270/469 473/57/473 472/54/472
f 469/270/469 470/271/470 473/57/473
f 470/271/470 474/48/474 473/57/473
f 470/271/470 475/273/475 474/48/474
f 476/47/476 477/48/477 478/273/478
f 479/274/479 476/47/476 478/273/478
f 480/275/480 476/47/476 479/274/479
f 480/275/480 479/274/479 481/276/481
f 481/276/481 482/277/482 480/275/480
f 481/276/481 483/278/483 482/277/482
f 483/278/483 484/279/484 482/277/482
f 485/280/485 484/279/484 483/278/483
f 485/280/485 486/281/486 484/279/484
f 487/282/487 486/281/486 485/280/485
f 487/282/487 485/280/485 488/264/488
f 485/280/485 489/265/489 488/264/488
f 489/265/489 485/280/485 483/278/483
f 483/278/483 490/263/490 489/265/489
f 481/276/481 490/263/490 483/278/483
f 481/276/481 479/274/479 490/263/490
f 490/263/490 479/274/479 478/273/478
f 491/261/491 490/263/490 478/273/478
f 492/261/492 493/273/493 494/271/494
f 495/269/495 492/261/492 494/271/494
f 496/270/496 497/272/497 495/269/495
f 498/277/498 499/283/499 500/284/500
f 498/277/498 500/284/500 501/275/501
f 501/275/501 500/284/500 502/285/502
f 497/272/497 503/54/503 504/143/504
f 504/143/504 505/286/505 497/272/497
f 504/143/504 506/142/506 505/286/505
usemtl tex_1795_sw3_0_lit_ds_w11
f 507/287/507 508/288/508 509/289/509
f 510/290/510 508/288/508 507/287/507
f 511/291/511 508/288/508 510/290/510
f 507/287/507 509/289/509 512/292/512
f 509/289/509 513/293/513 512/292/512
f 508/288/508 511/291/511 514/294/514
f 515/295/515 508/288/508 514/294/514
f 516/296/516 508/288/508 515/295/515
f 509/289/509 508/288/508 516/296/516
f 509/289/509 516/296/516 513/293/513
f 512/292/512 517/297/517 507/287/507
usemtl tex_1795_sw3_0_lit_ds_w11_ovl
f 507/287/507 517/297/517 518/298/518
usemtl tex_1795_sw3_0_lit_ds_w11
f 507/287/507 518/298/518 510/290/510
f 510/290/510 518/298/518 519/299/519
f 510/290/510 519/299/519 511/291/511
f 511/291/511 519/299/519 520/300/520
f 511/291/511 520/300/520 514/294/514
f 514/294/514 520/300/520 521/301/521
f 514/294/514 521/301/521 515/295/515
f 515/295/515 521/301/521 522/302/522
f 515/295/515 522/302/522 516/296/516
f 523/296/523 524/302/524 525/303/525
f 523/296/523 525/303/525 526/293/526
f 526/293/526 525/303/525 527/304/527
f 526/293/526 527/304/527 528/292/528
f 528/292/528 527/304/527 529/297/529
usemtl tex_1798_sw3_0_lit_ds_w11
f 530/305/530 531/306/531 532/307/532
f 532/307/532 531/306/531 533/308/533
f 532/307/532 533/308/533 534/309/534
f 534/309/534 533/308/533 535/310/535
f 534/309/534 535/310/535 536/311/536
f 536/311/536 535/310/535 537/310/537
f 538/312/538 539/313/539 540/305/540
f 540/305/540 539/313/539 541/306/541
f 538/312/538 542/314/542 543/312/543
f 544/315/544 542/314/542 538/312/538
f 544/315/544 538/312/538 540/305/540
f 544/315/544 540/305/540 545/316/545
f 546/317/546 545/316/545 547/307/547
f 545/316/545 540/305/540 547/307/547
f 548/318/548 546/317/546 549/309/549
f 549/309/549 550/311/550 548/318/548
f 547/307/547 549/309/549 546/317/546
usemtl tex_1797_sw3_0_lit_ds_w11
f 551/319/551 552/320/552 553/321/553
f 554/321/554 555/320/555 556/322/556
f 554/321/554 556/322/556 557/323/557
f 557/323/557 556/322/556 558/324/558
f 557/323/557 558/324/558 559/325/559
f 559/325/559 558/324/558 560/326/560
f 559/325/559 560/326/560 561/327/561
f 561/327/561 560/326/560 562/328/562
f 563/329/563 559/325/559 561/327/561
f 561/327/561 564/330/564 563/329/563
f 557/323/557 559/325/559 563/329/563
f 557/323/557 563/329/563 565/331/565
f 554/321/554 557/323/557 565/331/565
f 566/332/566 567/333/567 568/334/568
f 569/335/569 554/321/554 565/331/565
f 570/336/570 571/337/571 572/338/572
f 572/338/572 571/337/571 573/339/573
f 571/337/571 574/340/574 573/339/573
f 574/340/574 575/341/575 573/339/573
f 574/340/574 576/342/576 575/341/575
f 576/342/576 577/343/577 575/341/575
f 570/336/570 578/344/578 579/345/579
f 579/345/579 578/344/578 580/346/580
f 578/344/578 581/347/581 580/346/580
f 582/348/582 583/349/583 584/350/584
f 582/348/582 584/350/584 585/351/585
f 586/350/586 587/352/587 588/351/588
f 587/352/587 589/353/589 588/351/588
f 590/354/590 589/353/589 587/352/587
f 590/354/590 591/355/591 589/353/589
f 590/354/590 592/345/592 591/355/591
f 592/345/592 593/356/593 591/355/591
f 592/345/592 594/346/594 593/356/593
f 593/356/593 594/346/594 595/357/595
f 594/346/594 596/358/596 595/357/595
f 597/347/597 596/358/596 594/346/594
f 597/347/597 598/359/598 596/358/596
f 598/359/598 599/360/599 596/358/596
f 598/359/598 600/361/600 599/360/599
f 601/349/601 602/342/602 603/340/603
f 603/340/603 604/350/604 601/349/601
f 603/340/603 605/337/605 604/350/604
f 604/350/604 605/337/605 606/352/606
f 605/337/605 607/354/607 606/352/606
f 605/337/605 608/336/608 607/354/607
f 608/336/608 609/345/609 607/354/607
usemtl tex_1794_sw3_1_lit_ds_w11
f 610/362/610 611/142/611 612/130/612
f 613/144/613 614/363/614 615/146/615
f 616/364/616 617/365/617 618/286/618
f 618/286/618 619/366/619 616/364/616
f 620/269/620 618/286/618 617/365/617
f 621/272/621 618/286/618 620/269/620
f 619/366/619 618/286/618 611/142/611
f 611/142/611 610/362/610 619/366/619
f 622/367/622 623/268/623 620/269/620
f 616/364/616 624/368/624 625/369/625
f 617/365/617 616/364/616 625/369/625
f 620/269/620 617/365/617 625/369/625
f 620/269/620 625/369/625 622/367/622
f 626/369/626 627/370/627 628/371/628
f 628/371/628 629/367/629 626/369/626
f 629/367/629 628/371/628 630/268/630
f 630/268/630 628/371/628 631/372/631
f 632/262/632 630/268/630 631/372/631
f 632/262/632 631/372/631 633/373/633
f 634/267/634 632/262/632 633/373/633
f 634/267/634 633/373/633 635/266/635
f 626/369/626 636/368/636 627/370/627
usemtl tex_1798_sw3_1_lit_ds_w11
f 637/374/637 638/375/638 639/310/639
f 640/376/640 641/377/641 642/378/642
f 643/379/643 644/375/644 645/374/645
f 646/380/646 647/381/647 645/374/645
f 647/381/647 643/379/643 645/374/645
f 648/306/648 649/382/649 650/383/650
f 651/308/651 648/306/648 650/383/650
f 651/308/651 650/383/650 645/374/645
f 652/310/652 651/308/651 645/374/645
f 649/382/649 648/306/648 653/313/653
f 654/384/654 646/380/646 645/374/645
f 645/374/645 655/385/655 654/384/654
f 650/383/650 655/385/655 645/374/645
f 649/382/649 655/385/655 650/383/650
f 656/386/656 657/385/657 658/387/658
f 657/385/657 659/388/659 658/387/658
f 656/386/656 660/384/660 657/385/657
f 660/384/660 656/386/656 661/380/661
f 659/388/659 662/389/662 658/387/658
f 662/389/662 656/386/656 658/387/658
f 663/390/663 662/389/662 664/391/664
usemtl tex_1796_sw3_1_lit_ds_w11
f 665/392/665 666/393/666 667/394/667
f 668/395/668 666/393/666 665/392/665
f 669/396/669 670/397/670 671/398/671
f 672/399/672 673/397/673 674/396/674
f 675/394/675 672/399/672 674/396/674
f 676/393/676 672/399/672 675/394/675
usemtl tex_1797_sw3_1_lit_ds_w11
f 677/400/677 678/401/678 679/328/679
f 677/400/677 679/328/679 680/326/680
f 677/400/677 680/326/680 681/324/681
f 681/324/681 682/402/682 677/400/677
f 681/324/681 683/322/683 682/402/682
f 682/402/682 683/322/683 684/359/684
f 685/320/685 684/359/684 683/322/683
f 686/403/686 684/359/684 685/320/685
f 687/404/687 688/405/688 689/401/689
f 687/404/687 689/401/689 690/400/690
f 690/400/690 691/402/691 687/404/687
f 687/404/687 691/402/691 692/344/692
f 692/344/692 691/402/691 693/359/693
f 692/344/692 693/359/693 694/347/694
f 695/338/695 692/344/692 696/336/696
f 697/406/697 692/344/692 695/338/695
f 687/404/687 692/344/692 697/406/697
f 687/404/687 698/407/698 688/405/688
f 687/404/687 697/406/697 698/407/698
f 699/408/699 698/407/698 697/406/697
f 699/408/699 688/405/688 698/407/698
f 700/409/700 701/410/701 702/411/702
f 703/409/703 704/411/704 705/412/705
f 706/413/706 703/409/703 705/412/705
f 706/413/706 705/412/705 707/414/707
f 708/415/708 706/413/706 707/414/707
f 708/415/708 707/414/707 709/416/709
f 710/417/710 708/415/708 709/416/709
usemtl tex_1793_sw3_1_lit_ds_w11
f 711/418/711 712/419/712 713/420/713
f 714/421/714 711/418/711 713/420/713
f 715/422/715 716/423/716 717/424/717
f 718/425/718 716/423/716 715/422/715
f 719/426/719 720/425/720 721/422/721
f 722/427/722 720/425/720 719/426/719
f 723/428/723 722/427/722 719/426/719
f 724/429/724 722/427/722 723/428/723
f 725/430/725 724/429/724 723/428/723
f 726/418/726 724/429/724 725/430/725
f 727/431/727 726/418/726 725/430/725
f 728/419/728 726/418/726 727/431/727
usemtl tex_1796_sw3_1_lit_ds_w11
f 729/432/729 730/433/730 731/434/731
f 732/435/732 730/433/730 733/436/733
f 733/436/733 730/433/730 729/432/729
f 734/437/734 730/433/730 735/438/735
f 735/438/735 730/433/730 732/435/732
f 735/438/735 732/435/732 736/439/736
f 736/439/736 732/435/732 737/440/737
f 736/439/736 737/440/737 738/441/738
f 738/441/738 737/440/737 739/442/739
f 738/441/738 739/442/739 740/443/740
f 740/443/740 739/442/739 741/444/741
f 740/443/740 741/444/741 742/445/742
f 742/445/742 741/444/741 743/446/743
f 742/445/742 743/446/743 744/447/744
f 745/447/745 746/446/746 747/448/747
f 745/447/745 747/448/747 748/449/748
f 748/449/748 747/448/747 749/450/749
f 748/449/748 749/450/749 750/437/750
f 750/437/750 749/450/749 751/433/751
f 752/438/752 753/451/753 754/452/754
f 755/439/755 753/451/753 752/438/752
f 756/441/756 753/451/753 755/439/755
f 752/438/752 754/452/754 750/437/750
f 754/452/754 748/449/748 750/437/750
f 753/451/753 756/441/756 757/443/757
f 758/445/758 753/451/753 757/443/757
f 745/447/745 753/451/753 758/445/758
f 754/452/754 753/451/753 745/447/745
f 754/452/754 745/447/745 748/449/748
usemtl tex_1795_sw3_2_lit_ds_w11
f 759/453/759 760/454/760 761/455/761
f 762/456/762 760/454/760 759/453/759
f 762/456/762 759/453/759 763/457/763
f 764/458/764 762/456/762 763/457/763
f 764/458/764 763/457/763 765/459/765
f 765/459/765 763/457/763 766/460/766
f 767/461/767 765/459/765 766/460/766
f 767/461/767 766/460/766 768/462/768
f 761/455/761 760/454/760 769/463/769
usemtl tex_1796_sw3_2_lit_ds_w11
f 770/464/770 771/465/771 772/466/772
f 772/466/772 771/465/771 773/467/773
f 772/466/772 773/467/773 774/468/774
f 775/468/775 776/467/776 777/469/777
f 775/468/775 777/469/777 778/470/778
f 778/470/778 777/469/777 779/471/779
f 778/470/778 779/471/779 780/472/780
f 780/472/780 779/471/779 781/473/781
f 780/472/780 782/473/782 783/474/783
f 783/474/783 781/473/781 784/475/784
f 783/474/783 784/475/784 785/476/785
f 785/476/785 784/475/784 786/477/786
f 785/476/785 786/477/786 787/478/787
f 787/478/787 786/477/786 788/479/788
f 787/478/787 788/479/788 789/464/789
f 789/464/789 788/479/788 790/465/790
f 791/466/791 792/480/792 793/481/793
f 794/468/794 792/480/792 791/466/791
f 795/470/795 792/480/792 794/468/794
f 791/466/791 793/481/793 796/464/796
f 793/481/793 797/478/797 796/464/796
f 792/480/792 795/470/795 798/472/798
f 799/474/799 792/480/792 798/472/798
f 800/476/800 792/480/792 799/474/799
f 793/481/793 792/480/792 800/476/800
f 793/481/793 800/476/800 797/478/797
f 801/482/801 802/483/802 803/484/803
f 804/485/804 802/483/802 801/482/801
f 804/485/804 801/482/801 805/486/805
f 806/487/806 804/485/804 805/486/805
f 806/487/806 805/486/805 807/488/807
f 808/489/808 806/487/806 807/488/807
f 808/489/808 807/488/807 809/490/809
f 810/491/810 808/489/808 809/490/809
f 803/484/803 802/483/802 811/492/811
f 812/493/812 802/483/802 813/494/813
f 813/494/813 802/483/802 804/485/804
f 813/494/813 804/485/804 814/495/814
f 814/495/814 804/485/804 806/487/806
f 814/495/814 806/487/806 815/496/815
f 815/496/815 806/487/806 808/489/808
f 815/496/815 808/489/808 816/497/816
f 816/497/816 808/489/808 810/491/810
f 817/497/817 818/491/818 819/498/819
f 819/498/819 818/491/818 820/499/820
f 819/498/819 820/499/820 821/500/821
f 821/500/821 820/499/820 822/501/822
f 821/500/821 822/501/822 823/502/823
f 823/502/823 822/501/822 824/492/824
f 823/502/823 824/492/824 825/493/825
f 825/493/825 824/492/824 826/483/826
f 827/494/827 828/503/828 829/504/829
f 830/495/830 828/503/828 827/494/827
f 831/496/831 828/503/828 830/495/830
f 832/494/832 833/504/833 834/493/834
f 833/504/833 835/502/835 836/493/836
f 837/503/837 838/496/838 839/497/839
f 840/498/840 837/503/837 839/497/839
f 841/500/841 842/503/842 840/498/840
f 833/504/833 842/503/842 841/500/841
f 833/504/833 841/500/841 835/502/835
