mtllib GsilverwppkZ.mtl
v 0.0 0.0 151.82786560058594 1.000 1.000 1.000
v 43.0 0.0 151.82786560058594 1.000 1.000 1.000
v 43.0 43.0 151.82786560058594 1.000 1.000 1.000
v 0.0 43.0 151.82786560058594 1.000 1.000 1.000
v -43.0 0.0 151.82786560058594 1.000 1.000 1.000
v 0.0 0.0 151.82786560058594 1.000 1.000 1.000
v 0.0 43.0 151.82786560058594 1.000 1.000 1.000
v -43.0 43.0 151.82786560058594 1.000 1.000 1.000
v 0.0 -43.0 151.82786560058594 1.000 1.000 1.000
v 43.0 -43.0 151.82786560058594 1.000 1.000 1.000
v 43.0 0.0 151.82786560058594 1.000 1.000 1.000
v 0.0 0.0 151.82786560058594 1.000 1.000 1.000
v -43.0 -43.0 151.82786560058594 1.000 1.000 1.000
v 0.0 -43.0 151.82786560058594 1.000 1.000 1.000
v 0.0 0.0 151.82786560058594 1.000 1.000 1.000
v -43.0 0.0 151.82786560058594 1.000 1.000 1.000
v 0.0 57.95656204223633 201.15138244628906 1.000 1.000 1.000
v -43.0 57.95656204223633 201.15138244628906 1.000 1.000 1.000
v -43.0 100.95656204223633 201.15138244628906 1.000 1.000 1.000
v 0.0 100.95656204223633 201.15138244628906 1.000 1.000 1.000
v 43.0 57.95656204223633 201.15138244628906 1.000 1.000 1.000
v 0.0 57.95656204223633 201.15138244628906 1.000 1.000 1.000
v 0.0 100.95656204223633 201.15138244628906 1.000 1.000 1.000
v 43.0 100.95656204223633 201.15138244628906 1.000 1.000 1.000
v 0.0 14.956562042236328 201.15138244628906 1.000 1.000 1.000
v -43.0 14.956562042236328 201.15138244628906 1.000 1.000 1.000
v -43.0 57.95656204223633 201.15138244628906 1.000 1.000 1.000
v 0.0 57.95656204223633 201.15138244628906 1.000 1.000 1.000
v 43.0 14.956562042236328 201.15138244628906 1.000 1.000 1.000
v 0.0 14.956562042236328 201.15138244628906 1.000 1.000 1.000
v 0.0 57.95656204223633 201.15138244628906 1.000 1.000 1.000
v 43.0 57.95656204223633 201.15138244628906 1.000 1.000 1.000
v 6.0 27.0 122.0 1.000 1.000 1.000
v 3.0 -3.0 107.0 1.000 1.000 1.000
v 6.0 27.0 115.0 1.000 1.000 1.000
v 3.0 1.0 104.0 1.000 1.000 1.000
v 3.0 1.0 59.0 1.000 1.000 1.000
v 3.0 -6.0 57.0 1.000 1.000 1.000
v -3.0 1.0 59.0 1.000 1.000 1.000
v -3.0 1.0 104.0 1.000 1.000 1.000
v -6.0 27.0 115.0 1.000 1.000 1.000
v -6.0 27.0 122.0 1.000 1.000 1.000
v -3.0 -3.0 107.0 1.000 1.000 1.000
v -3.0 -6.0 57.0 1.000 1.000 1.000
v -30.857145309448242 19.95308208465576 82.03998565673828 1.000 1.000 1.000
v 1.1428546905517578 19.95308208465576 92.03998565673828 1.000 1.000 1.000
v -26.857145309448242 22.95308208465576 75.03998565673828 1.000 1.000 1.000
v -1.8571453094482422 17.95308208465576 98.03998565673828 1.000 1.000 1.000
v -31.857145309448242 11.953082084655762 83.03998565673828 1.000 1.000 1.000
v -2.857145309448242 10.953082084655762 99.03998565673828 1.000 1.000 1.000
v -31.857145309448242 3.9530820846557617 82.03998565673828 1.000 1.000 1.000
v -2.857145309448242 4.953082084655762 98.03998565673828 1.000 1.000 1.000
v -20.857145309448242 11.953082084655762 65.03998565673828 1.000 1.000 1.000
v 4.142854690551758 3.9530820846557617 87.03998565673828 1.000 1.000 1.000
v -22.857145309448242 3.9530820846557617 68.03998565673828 1.000 1.000 1.000
v 6.142854690551758 10.953082084655762 84.03998565673828 1.000 1.000 1.000
v -22.857145309448242 19.95308208465576 68.03998565673828 1.000 1.000 1.000
v 4.142854690551758 16.95308208465576 87.03998565673828 1.000 1.000 1.000
v 7.142854690551758 19.95308208465576 90.03998565673828 1.000 1.000 1.000
v 12.142854690551758 16.95308208465576 94.03998565673828 1.000 1.000 1.000
v 12.142854690551758 16.95308208465576 94.03998565673828 1.000 1.000 1.000
v -1.8571453094482422 17.95308208465576 98.03998565673828 1.000 1.000 1.000
v 12.142854690551758 9.953082084655762 94.03998565673828 1.000 1.000 1.000
v -2.857145309448242 10.953082084655762 99.03998565673828 1.000 1.000 1.000
v 11.142854690551758 3.9530820846557617 94.03998565673828 1.000 1.000 1.000
v -2.857145309448242 4.953082084655762 98.03998565673828 1.000 1.000 1.000
v 0.1428546905517578 1.9530820846557617 92.03998565673828 1.000 1.000 1.000
v 6.142854690551758 0.9530820846557617 90.03998565673828 1.000 1.000 1.000
v 1.1428546905517578 19.95308208465576 92.03998565673828 1.000 1.000 1.000
v 7.142854690551758 19.95308208465576 90.03998565673828 1.000 1.000 1.000
v 4.142854690551758 16.95308208465576 87.03998565673828 1.000 1.000 1.000
v 21.142854690551758 18.95308208465576 72.03998565673828 1.000 1.000 1.000
v 7.142854690551758 19.95308208465576 90.03998565673828 1.000 1.000 1.000
v 25.142854690551758 15.953082084655762 76.03998565673828 1.000 1.000 1.000
v 12.142854690551758 16.95308208465576 94.03998565673828 1.000 1.000 1.000
v 26.142854690551758 9.953082084655762 76.03998565673828 1.000 1.000 1.000
v 26.142854690551758 9.953082084655762 76.03998565673828 1.000 1.000 1.000
v 12.142854690551758 16.95308208465576 94.03998565673828 1.000 1.000 1.000
v 12.142854690551758 9.953082084655762 94.03998565673828 1.000 1.000 1.000
v 25.142854690551758 3.9530820846557617 76.03998565673828 1.000 1.000 1.000
v 11.142854690551758 3.9530820846557617 94.03998565673828 1.000 1.000 1.000
v 20.142854690551758 0.9530820846557617 72.03998565673828 1.000 1.000 1.000
v 6.142854690551758 0.9530820846557617 90.03998565673828 1.000 1.000 1.000
v 18.142854690551758 3.9530820846557617 70.03998565673828 1.000 1.000 1.000
v 2.142854690551758 3.9530820846557617 87.03998565673828 1.000 1.000 1.000
v 16.142854690551758 9.953082084655762 69.03998565673828 1.000 1.000 1.000
v 0.1428546905517578 10.953082084655762 85.03998565673828 1.000 1.000 1.000
v 18.142854690551758 16.95308208465576 70.03998565673828 1.000 1.000 1.000
v 2.142854690551758 16.95308208465576 87.03998565673828 1.000 1.000 1.000
v 21.142854690551758 18.95308208465576 72.03998565673828 1.000 1.000 1.000
v 7.142854690551758 19.95308208465576 90.03998565673828 1.000 1.000 1.000
v 25.142854690551758 15.953082084655762 76.03998565673828 1.000 1.000 1.000
v 28.142854690551758 4.953082084655762 68.03998565673828 1.000 1.000 1.000
v 28.142854690551758 13.953082084655762 68.03998565673828 1.000 1.000 1.000
v 26.142854690551758 9.953082084655762 76.03998565673828 1.000 1.000 1.000
v 25.142854690551758 3.9530820846557617 76.03998565673828 1.000 1.000 1.000
v 21.142854690551758 18.95308208465576 72.03998565673828 1.000 1.000 1.000
v 18.142854690551758 16.95308208465576 70.03998565673828 1.000 1.000 1.000
v 20.142854690551758 0.9530820846557617 72.03998565673828 1.000 1.000 1.000
v 18.142854690551758 3.9530820846557617 70.03998565673828 1.000 1.000 1.000
v 16.142854690551758 9.953082084655762 69.03998565673828 1.000 1.000 1.000
v -6.0 27.0 3.0 1.000 1.000 1.000
v -9.0 12.0 18.0 1.000 1.000 1.000
v -12.0 27.0 63.0 1.000 1.000 1.000
v -12.0 -63.0 -12.0 1.000 1.000 1.000
v -12.0 -63.0 48.0 1.000 1.000 1.000
v -39.0 -44.0 40.0 1.000 1.000 1.000
v -35.0 -36.0 38.0 1.000 1.000 1.000
v -46.0 -43.0 26.0 1.000 1.000 1.000
v -42.0 -31.0 18.0 1.000 1.000 1.000
v -31.0 -30.0 35.0 1.000 1.000 1.000
v -29.0 -8.0 73.0 1.000 1.000 1.000
v -20.0 -11.0 71.0 1.000 1.000 1.000
v -32.0 -2.0 36.0 1.000 1.000 1.000
v -41.0 -9.0 38.0 1.000 1.000 1.000
v -32.0 -2.0 36.0 1.000 1.000 1.000
v -40.0 1.0 18.0 1.000 1.000 1.000
v -36.0 -12.0 74.0 1.000 1.000 1.000
v -46.0 -17.0 38.0 1.000 1.000 1.000
v -48.0 -15.0 25.0 1.000 1.000 1.000
v -27.0 -9.0 35.0 1.000 1.000 1.000
v -17.0 -19.0 71.0 1.000 1.000 1.000
v -27.0 -9.0 35.0 1.000 1.000 1.000
v -17.0 -19.0 71.0 1.000 1.000 1.000
v -24.0 -16.0 35.0 1.000 1.000 1.000
v -39.0 -20.0 74.0 1.000 1.000 1.000
v -36.0 -12.0 74.0 1.000 1.000 1.000
v -46.0 -17.0 38.0 1.000 1.000 1.000
v -41.0 -9.0 38.0 1.000 1.000 1.000
v 15.0 -9.0 66.0 1.000 1.000 1.000
v 16.0 -11.0 60.0 1.000 1.000 1.000
v -23.0 -8.0 77.0 1.000 1.000 1.000
v -22.0 -11.0 69.0 1.000 1.000 1.000
v 17.0 -18.0 57.0 1.000 1.000 1.000
v 15.0 -11.0 73.0 1.000 1.000 1.000
v -24.0 -11.0 85.0 1.000 1.000 1.000
v -39.0 20.0 69.0 1.000 1.000 1.000
v -31.0 20.0 82.0 1.000 1.000 1.000
v -31.0 23.0 69.0 1.000 1.000 1.000
v -32.0 12.0 83.0 1.000 1.000 1.000
v -43.0 12.0 68.0 1.000 1.000 1.000
v -40.0 4.0 69.0 1.000 1.000 1.000
v -32.0 4.0 82.0 1.000 1.000 1.000
v -27.0 23.0 75.0 1.000 1.000 1.000
v -23.0 20.0 70.0 1.000 1.000 1.000
v -36.0 22.0 36.0 1.000 1.000 1.000
v -31.0 23.0 69.0 1.000 1.000 1.000
v -28.0 24.0 36.0 1.000 1.000 1.000
v -39.0 20.0 69.0 1.000 1.000 1.000
v -41.0 12.0 35.0 1.000 1.000 1.000
v -43.0 12.0 68.0 1.000 1.000 1.000
v -36.0 5.0 36.0 1.000 1.000 1.000
v -40.0 4.0 69.0 1.000 1.000 1.000
v -43.0 12.0 68.0 1.000 1.000 1.000
v -36.0 5.0 36.0 1.000 1.000 1.000
v -18.0 12.0 37.0 1.000 1.000 1.000
v -23.0 4.0 70.0 1.000 1.000 1.000
v -22.0 4.0 37.0 1.000 1.000 1.000
v -20.0 12.0 70.0 1.000 1.000 1.000
v -21.0 21.0 37.0 1.000 1.000 1.000
v -23.0 20.0 70.0 1.000 1.000 1.000
v -28.0 24.0 36.0 1.000 1.000 1.000
v -31.0 23.0 69.0 1.000 1.000 1.000
v -34.0 24.0 19.0 1.000 1.000 1.000
v -42.0 17.0 26.0 1.000 1.000 1.000
v -36.0 22.0 36.0 1.000 1.000 1.000
v -25.0 28.0 7.0 1.000 1.000 1.000
v -18.0 23.0 20.0 1.000 1.000 1.000
v -21.0 21.0 37.0 1.000 1.000 1.000
v -18.0 12.0 37.0 1.000 1.000 1.000
v 17.0 11.0 25.0 1.000 1.000 1.000
v -28.0 24.0 36.0 1.000 1.000 1.000
v -25.0 28.0 7.0 1.000 1.000 1.000
v -36.0 22.0 36.0 1.000 1.000 1.000
v -42.0 17.0 26.0 1.000 1.000 1.000
v -41.0 12.0 35.0 1.000 1.000 1.000
v -40.0 1.0 18.0 1.000 1.000 1.000
v -36.0 5.0 36.0 1.000 1.000 1.000
v -32.0 -2.0 36.0 1.000 1.000 1.000
v 6.0 27.0 3.0 1.000 1.000 1.000
v -9.0 12.0 18.0 1.000 1.000 1.000
v -6.0 27.0 3.0 1.000 1.000 1.000
v 9.0 12.0 18.0 1.000 1.000 1.000
v 12.0 -63.0 -12.0 1.000 1.000 1.000
v -12.0 -63.0 -12.0 1.000 1.000 1.000
v -12.0 27.0 63.0 1.000 1.000 1.000
v -12.0 -63.0 48.0 1.000 1.000 1.000
v 12.0 -63.0 48.0 1.000 1.000 1.000
v 12.0 27.0 63.0 1.000 1.000 1.000
v -9.0 27.0 18.0 1.000 1.000 1.000
v 6.0 27.0 3.0 1.000 1.000 1.000
v 9.0 27.0 18.0 1.000 1.000 1.000
v 9.0 34.0 18.0 1.000 1.000 1.000
v 15.0 -9.0 66.0 1.000 1.000 1.000
v 20.0 -9.0 62.0 1.000 1.000 1.000
v 16.0 -11.0 60.0 1.000 1.000 1.000
v 27.0 -11.0 62.0 1.000 1.000 1.000
v 15.0 -11.0 73.0 1.000 1.000 1.000
v 19.0 -9.0 39.0 1.000 1.000 1.000
v 25.0 -12.0 39.0 1.000 1.000 1.000
v 26.0 -18.0 39.0 1.000 1.000 1.000
v 28.0 -18.0 62.0 1.000 1.000 1.000
v 25.0 -25.0 39.0 1.000 1.000 1.000
v 27.0 -24.0 63.0 1.000 1.000 1.000
v 19.0 -27.0 40.0 1.000 1.000 1.000
v 21.0 -27.0 62.0 1.000 1.000 1.000
v 16.0 -25.0 40.0 1.000 1.000 1.000
v 14.0 -25.0 62.0 1.000 1.000 1.000
v 13.0 -19.0 40.0 1.000 1.000 1.000
v 13.0 -19.0 40.0 1.000 1.000 1.000
v 14.0 -25.0 62.0 1.000 1.000 1.000
v 11.0 -16.0 61.0 1.000 1.000 1.000
v 15.0 -12.0 39.0 1.000 1.000 1.000
v 14.0 -12.0 61.0 1.000 1.000 1.000
v 19.0 -9.0 39.0 1.000 1.000 1.000
v 20.0 -9.0 62.0 1.000 1.000 1.000
v 25.0 -12.0 39.0 1.000 1.000 1.000
v 21.0 -23.0 33.0 1.000 1.000 1.000
v 21.0 -14.0 32.0 1.000 1.000 1.000
v 26.0 -18.0 39.0 1.000 1.000 1.000
v 25.0 -25.0 39.0 1.000 1.000 1.000
v 19.0 -27.0 40.0 1.000 1.000 1.000
v 16.0 -25.0 40.0 1.000 1.000 1.000
v 19.0 -28.0 64.0 1.000 1.000 1.000
v 21.0 -25.0 54.0 1.000 1.000 1.000
v 18.0 -26.0 58.0 1.000 1.000 1.000
v 27.0 -28.0 53.0 1.000 1.000 1.000
v 20.0 -34.0 66.0 1.000 1.000 1.000
v 28.0 -34.0 52.0 1.000 1.000 1.000
v 28.0 -41.0 52.0 1.000 1.000 1.000
v 20.0 -41.0 65.0 1.000 1.000 1.000
v 22.0 -44.0 53.0 1.000 1.000 1.000
v 20.0 -44.0 59.0 1.000 1.000 1.000
v 16.0 -28.0 55.0 1.000 1.000 1.000
v 17.0 -24.0 31.0 1.000 1.000 1.000
v 21.0 -25.0 54.0 1.000 1.000 1.000
v 23.0 -27.0 30.0 1.000 1.000 1.000
v 27.0 -28.0 53.0 1.000 1.000 1.000
v 24.0 -33.0 30.0 1.000 1.000 1.000
v 24.0 -33.0 30.0 1.000 1.000 1.000
v 27.0 -28.0 53.0 1.000 1.000 1.000
v 28.0 -34.0 52.0 1.000 1.000 1.000
v 24.0 -39.0 29.0 1.000 1.000 1.000
v 28.0 -41.0 52.0 1.000 1.000 1.000
v 18.0 -43.0 30.0 1.000 1.000 1.000
v 22.0 -44.0 53.0 1.000 1.000 1.000
v 22.0 -44.0 53.0 1.000 1.000 1.000
v 15.0 -40.0 31.0 1.000 1.000 1.000
v 16.0 -41.0 54.0 1.000 1.000 1.000
v 12.0 -34.0 32.0 1.000 1.000 1.000
v 14.0 -35.0 55.0 1.000 1.000 1.000
v 14.0 -27.0 32.0 1.000 1.000 1.000
v 16.0 -28.0 55.0 1.000 1.000 1.000
v 17.0 -24.0 31.0 1.000 1.000 1.000
v 21.0 -25.0 54.0 1.000 1.000 1.000
v 23.0 -27.0 30.0 1.000 1.000 1.000
v 20.0 -37.0 22.0 1.000 1.000 1.000
v 20.0 -28.0 23.0 1.000 1.000 1.000
v 24.0 -33.0 30.0 1.000 1.000 1.000
v 24.0 -39.0 29.0 1.000 1.000 1.000
v 17.0 -24.0 31.0 1.000 1.000 1.000
v 14.0 -27.0 32.0 1.000 1.000 1.000
v 18.0 -43.0 30.0 1.000 1.000 1.000
v 15.0 -40.0 31.0 1.000 1.000 1.000
v 12.0 -34.0 32.0 1.000 1.000 1.000
v 16.0 -48.0 62.0 1.000 1.000 1.000
v 20.0 -45.0 52.0 1.000 1.000 1.000
v 18.0 -45.0 56.0 1.000 1.000 1.000
v 26.0 -47.0 53.0 1.000 1.000 1.000
v 17.0 -53.0 63.0 1.000 1.000 1.000
v 28.0 -52.0 52.0 1.000 1.000 1.000
v 17.0 -59.0 63.0 1.000 1.000 1.000
v 28.0 -58.0 51.0 1.000 1.000 1.000
v 20.0 -62.0 58.0 1.000 1.000 1.000
v 21.0 -61.0 50.0 1.000 1.000 1.000
v 15.0 -48.0 53.0 1.000 1.000 1.000
v 16.0 -43.0 32.0 1.000 1.000 1.000
v 21.0 -45.0 31.0 1.000 1.000 1.000
v 22.0 -50.0 30.0 1.000 1.000 1.000
v 22.0 -56.0 29.0 1.000 1.000 1.000
v 17.0 -59.0 30.0 1.000 1.000 1.000
v 17.0 -59.0 30.0 1.000 1.000 1.000
v 21.0 -61.0 50.0 1.000 1.000 1.000
v 15.0 -57.0 31.0 1.000 1.000 1.000
v 16.0 -59.0 51.0 1.000 1.000 1.000
v 12.0 -51.0 32.0 1.000 1.000 1.000
v 13.0 -54.0 52.0 1.000 1.000 1.000
v 14.0 -45.0 32.0 1.000 1.000 1.000
v 15.0 -48.0 53.0 1.000 1.000 1.000
v 16.0 -43.0 32.0 1.000 1.000 1.000
v 20.0 -45.0 52.0 1.000 1.000 1.000
v 21.0 -45.0 31.0 1.000 1.000 1.000
v 19.0 -54.0 22.0 1.000 1.000 1.000
v 18.0 -46.0 23.0 1.000 1.000 1.000
v 22.0 -50.0 30.0 1.000 1.000 1.000
v 22.0 -56.0 29.0 1.000 1.000 1.000
v 21.0 -45.0 31.0 1.000 1.000 1.000
v 18.0 -46.0 23.0 1.000 1.000 1.000
v 16.0 -43.0 32.0 1.000 1.000 1.000
v 14.0 -45.0 32.0 1.000 1.000 1.000
v 16.0 -43.0 32.0 1.000 1.000 1.000
v 19.0 -54.0 22.0 1.000 1.000 1.000
v 22.0 -56.0 29.0 1.000 1.000 1.000
v 17.0 -59.0 30.0 1.000 1.000 1.000
v 15.0 -57.0 31.0 1.000 1.000 1.000
v 12.0 -51.0 32.0 1.000 1.000 1.000
v 19.0 -54.0 22.0 1.000 1.000 1.000
v 32.0 31.0 67.0 1.000 1.000 1.000
v 19.0 30.0 69.0 1.000 1.000 1.000
v 28.0 27.0 70.0 1.000 1.000 1.000
v 26.0 33.0 67.0 1.000 1.000 1.000
v 21.0 35.0 67.0 1.000 1.000 1.000
v 32.0 25.0 65.0 1.000 1.000 1.000
v 29.0 23.0 64.0 1.000 1.000 1.000
v 17.0 30.0 65.0 1.000 1.000 1.000
v 15.0 26.0 59.0 1.000 1.000 1.000
v 23.0 22.0 59.0 1.000 1.000 1.000
v 35.0 29.0 41.0 1.000 1.000 1.000
v 35.0 37.0 43.0 1.000 1.000 1.000
v 30.0 40.0 43.0 1.000 1.000 1.000
v 22.0 42.0 42.0 1.000 1.000 1.000
v 18.0 36.0 39.0 1.000 1.000 1.000
v 15.0 29.0 41.0 1.000 1.000 1.000
v 23.0 22.0 59.0 1.000 1.000 1.000
v 15.0 29.0 41.0 1.000 1.000 1.000
v 25.0 19.0 44.0 1.000 1.000 1.000
v 29.0 23.0 64.0 1.000 1.000 1.000
v 31.0 24.0 39.0 1.000 1.000 1.000
v 32.0 25.0 65.0 1.000 1.000 1.000
v 35.0 29.0 41.0 1.000 1.000 1.000
v 24.0 38.0 31.0 1.000 1.000 1.000
v 21.0 37.0 8.0 1.000 1.000 1.000
v 16.0 34.0 33.0 1.000 1.000 1.000
v 14.0 34.0 17.0 1.000 1.000 1.000
v 15.0 28.0 36.0 1.000 1.000 1.000
v 13.0 16.0 21.0 1.000 1.000 1.000
v 21.0 20.0 36.0 1.000 1.000 1.000
v 17.0 11.0 25.0 1.000 1.000 1.000
v 31.0 35.0 31.0 1.000 1.000 1.000
v 32.0 33.0 8.0 1.000 1.000 1.000
v 24.0 38.0 31.0 1.000 1.000 1.000
v 21.0 37.0 8.0 1.000 1.000 1.000
v 30.0 40.0 43.0 1.000 1.000 1.000
v 35.0 37.0 43.0 1.000 1.000 1.000
v 22.0 42.0 42.0 1.000 1.000 1.000
v 18.0 36.0 39.0 1.000 1.000 1.000
v 15.0 29.0 41.0 1.000 1.000 1.000
v 16.0 34.0 33.0 1.000 1.000 1.000
v 25.0 19.0 44.0 1.000 1.000 1.000
v 15.0 28.0 36.0 1.000 1.000 1.000
v 21.0 20.0 36.0 1.000 1.000 1.000
v 21.0 20.0 36.0 1.000 1.000 1.000
v 17.0 11.0 25.0 1.000 1.000 1.000
v 28.0 18.0 36.0 1.000 1.000 1.000
v 28.0 18.0 36.0 1.000 1.000 1.000
v 17.0 11.0 25.0 1.000 1.000 1.000
v 25.0 9.0 17.0 1.000 1.000 1.000
v 34.0 21.0 32.0 1.000 1.000 1.000
v 35.0 12.0 13.0 1.000 1.000 1.000
v 35.0 28.0 32.0 1.000 1.000 1.000
v 36.0 18.0 9.0 1.000 1.000 1.000
v 31.0 35.0 31.0 1.000 1.000 1.000
v 32.0 33.0 8.0 1.000 1.000 1.000
v 35.0 29.0 41.0 1.000 1.000 1.000
v 35.0 37.0 43.0 1.000 1.000 1.000
v 31.0 24.0 39.0 1.000 1.000 1.000
v 21.0 20.0 36.0 1.000 1.000 1.000
v 28.0 18.0 36.0 1.000 1.000 1.000
v 25.0 19.0 44.0 1.000 1.000 1.000
v 25.0 19.0 44.0 1.000 1.000 1.000
v -15.0 42.0 18.0 1.000 1.000 1.000
v -15.0 27.0 18.0 1.000 1.000 1.000
v -15.0 27.0 137.0 1.000 1.000 1.000
v -15.0 42.0 137.0 1.000 1.000 1.000
v -15.0 42.0 182.0 1.000 1.000 1.000
v 15.0 27.0 18.0 1.000 1.000 1.000
v 15.0 27.0 137.0 1.000 1.000 1.000
v 15.0 42.0 182.0 1.000 1.000 1.000
v -15.0 42.0 182.0 1.000 1.000 1.000
v 15.0 42.0 18.0 1.000 1.000 1.000
v 15.0 42.0 137.0 1.000 1.000 1.000
v 15.0 42.0 182.0 1.000 1.000 1.000
v -15.0 42.0 29.0 1.000 1.000 1.000
v 15.0 42.0 29.0 1.000 1.000 1.000
v -1.0 75.0033187866211 163.15914154052734 1.000 1.000 1.000
v -1.0 71.0033187866211 159.15914154052734 1.000 1.000 1.000
v -1.0 71.0033187866211 178.15914154052734 1.000 1.000 1.000
v 1.0 71.0033187866211 159.15914154052734 1.000 1.000 1.000
v 1.0 75.0033187866211 163.15914154052734 1.000 1.000 1.000
v 1.0 71.0033187866211 178.15914154052734 1.000 1.000 1.000
v 11.0 62.003318786621094 38.159141540527344 1.000 1.000 1.000
v 12.0 57.003318786621094 182.15914154052734 1.000 1.000 1.000
v 12.0 57.003318786621094 33.159141540527344 1.000 1.000 1.000
v 11.0 62.003318786621094 182.15914154052734 1.000 1.000 1.000
v 8.0 67.0033187866211 43.159141540527344 1.000 1.000 1.000
v 8.0 67.0033187866211 182.15914154052734 1.000 1.000 1.000
v 5.0 71.0033187866211 47.159141540527344 1.000 1.000 1.000
v 5.0 70.0033187866211 182.15914154052734 1.000 1.000 1.000
v 0.0 72.0033187866211 48.159141540527344 1.000 1.000 1.000
v 0.0 72.0033187866211 182.15914154052734 1.000 1.000 1.000
v -5.0 71.0033187866211 47.159141540527344 1.000 1.000 1.000
v -5.0 70.0033187866211 182.15914154052734 1.000 1.000 1.000
v -8.0 67.0033187866211 43.159141540527344 1.000 1.000 1.000
v -8.0 67.0033187866211 182.15914154052734 1.000 1.000 1.000
v -11.0 62.003318786621094 38.159141540527344 1.000 1.000 1.000
v -11.0 62.003318786621094 182.15914154052734 1.000 1.000 1.000
v -12.0 57.003318786621094 33.159141540527344 1.000 1.000 1.000
v -11.0 62.003318786621094 182.15914154052734 1.000 1.000 1.000
v -11.0 62.003318786621094 38.159141540527344 1.000 1.000 1.000
v -12.0 57.003318786621094 182.15914154052734 1.000 1.000 1.000
v 12.0 57.003318786621094 182.15914154052734 1.000 1.000 1.000
v 11.0 62.003318786621094 182.15914154052734 1.000 1.000 1.000
v -8.0 67.0033187866211 182.15914154052734 1.000 1.000 1.000
v 8.0 67.0033187866211 182.15914154052734 1.000 1.000 1.000
v -5.0 70.0033187866211 182.15914154052734 1.000 1.000 1.000
v 5.0 70.0033187866211 182.15914154052734 1.000 1.000 1.000
v 0.0 72.0033187866211 182.15914154052734 1.000 1.000 1.000
v 12.0 57.003318786621094 33.159141540527344 1.000 1.000 1.000
v 11.0 62.003318786621094 38.159141540527344 1.000 1.000 1.000
v -8.0 67.0033187866211 43.159141540527344 1.000 1.000 1.000
v 8.0 67.0033187866211 43.159141540527344 1.000 1.000 1.000
v -5.0 71.0033187866211 47.159141540527344 1.000 1.000 1.000
v -5.0 71.0033187866211 47.159141540527344 1.000 1.000 1.000
v 5.0 71.0033187866211 47.159141540527344 1.000 1.000 1.000
v 8.0 67.0033187866211 43.159141540527344 1.000 1.000 1.000
v 0.0 72.0033187866211 48.159141540527344 1.000 1.000 1.000
v 15.0 42.003318786621094 182.15914154052734 1.000 1.000 1.000
v 15.0 57.003318786621094 182.15914154052734 1.000 1.000 1.000
v -15.0 57.003318786621094 182.15914154052734 1.000 1.000 1.000
v 15.0 57.003318786621094 33.159141540527344 1.000 1.000 1.000
v 15.0 42.003318786621094 18.159141540527344 1.000 1.000 1.000
v -15.0 42.003318786621094 18.159141540527344 1.000 1.000 1.000
v -15.0 57.003318786621094 33.159141540527344 1.000 1.000 1.000
v 12.0 57.003318786621094 33.159141540527344 1.000 1.000 1.000
v 12.0 57.003318786621094 182.15914154052734 1.000 1.000 1.000
v -12.0 57.003318786621094 182.15914154052734 1.000 1.000 1.000
v -12.0 57.003318786621094 33.159141540527344 1.000 1.000 1.000
v -15.0 42.003318786621094 182.15914154052734 1.000 1.000 1.000
v -3.0 68.0033187866211 33.159141540527344 1.000 1.000 1.000
v -3.0 57.003318786621094 25.159141540527344 1.000 1.000 1.000
v -3.0 49.003318786621094 25.159141540527344 1.000 1.000 1.000
v -3.0 68.0033187866211 44.159141540527344 1.000 1.000 1.000
v 3.0 68.0033187866211 33.159141540527344 1.000 1.000 1.000
v 3.0 68.0033187866211 44.159141540527344 1.000 1.000 1.000
v 3.0 57.003318786621094 25.159141540527344 1.000 1.000 1.000
v 3.0 49.003318786621094 25.159141540527344 1.000 1.000 1.000
v -35.0 -31.0 -19.0 1.000 1.000 1.000
v -31.0 -35.0 -43.0 1.000 1.000 1.000
v -32.0 -55.0 -18.0 1.000 1.000 1.000
v -22.0 -76.0 -17.0 1.000 1.000 1.000
v -29.0 -72.0 -18.0 1.000 1.000 1.000
v -9.0 -66.0 -41.0 1.000 1.000 1.000
v -28.0 -53.0 -42.0 1.000 1.000 1.000
v -30.0 -17.0 -43.0 1.000 1.000 1.000
v -33.0 1.0 -18.0 1.000 1.000 1.000
v -38.0 1.0 -2.0 1.000 1.000 1.000
v -43.0 -15.0 -2.0 1.000 1.000 1.000
v -37.0 17.0 -2.0 1.000 1.000 1.000
v -40.0 1.0 18.0 1.000 1.000 1.000
v -48.0 -15.0 25.0 1.000 1.000 1.000
v -42.0 -31.0 18.0 1.000 1.000 1.000
v -40.0 -31.0 -2.0 1.000 1.000 1.000
v -46.0 -43.0 26.0 1.000 1.000 1.000
v -42.0 -31.0 18.0 1.000 1.000 1.000
v -40.0 -31.0 -2.0 1.000 1.000 1.000
v -41.0 -43.0 -2.0 1.000 1.000 1.000
v -38.0 -55.0 10.0 1.000 1.000 1.000
v -37.0 -55.0 -2.0 1.000 1.000 1.000
v -42.0 -67.0 14.0 1.000 1.000 1.000
v -38.0 -67.0 -2.0 1.000 1.000 1.000
v -36.0 -76.0 10.0 1.000 1.000 1.000
v -34.0 -76.0 -1.0 1.000 1.000 1.000
v -27.0 -80.0 7.0 1.000 1.000 1.000
v -27.0 -80.0 -1.0 1.000 1.000 1.000
v -22.0 -76.0 -17.0 1.000 1.000 1.000
v -29.0 -72.0 -18.0 1.000 1.000 1.000
v -32.0 -55.0 -18.0 1.000 1.000 1.000
v -35.0 -31.0 -19.0 1.000 1.000 1.000
v -35.0 -31.0 -19.0 1.000 1.000 1.000
v -40.0 -31.0 -2.0 1.000 1.000 1.000
v -43.0 -15.0 -2.0 1.000 1.000 1.000
v -33.0 1.0 -18.0 1.000 1.000 1.000
v -38.0 1.0 -2.0 1.000 1.000 1.000
v -37.0 17.0 -2.0 1.000 1.000 1.000
v -42.0 -67.0 14.0 1.000 1.000 1.000
v -35.0 -67.0 26.0 1.000 1.000 1.000
v -31.0 -60.0 24.0 1.000 1.000 1.000
v -38.0 -55.0 10.0 1.000 1.000 1.000
v -25.0 -57.0 21.0 1.000 1.000 1.000
v -40.0 1.0 18.0 1.000 1.000 1.000
v -42.0 17.0 26.0 1.000 1.000 1.000
v -33.0 24.0 -1.0 1.000 1.000 1.000
v -34.0 24.0 19.0 1.000 1.000 1.000
v 4.0 -49.0 -15.0 1.000 1.000 1.000
v -1.0 -65.0 -16.0 1.000 1.000 1.000
v 23.0 -43.0 -37.0 1.000 1.000 1.000
v 12.0 -61.0 -39.0 1.000 1.000 1.000
v -13.0 -72.0 -17.0 1.000 1.000 1.000
v -1.0 -66.0 -40.0 1.000 1.000 1.000
v -22.0 -76.0 -17.0 1.000 1.000 1.000
v -9.0 -66.0 -41.0 1.000 1.000 1.000
v -3.0 -37.0 -19.0 1.000 1.000 1.000
v -17.0 -45.0 0.0 1.000 1.000 1.000
v -16.0 -29.0 0.0 1.000 1.000 1.000
v -11.0 -26.0 3.0 1.000 1.000 1.000
v -27.0 -80.0 7.0 1.000 1.000 1.000
v -27.0 -80.0 -1.0 1.000 1.000 1.000
v -19.0 -76.0 0.0 1.000 1.000 1.000
v -20.0 -76.0 12.0 1.000 1.000 1.000
v -19.0 -76.0 0.0 1.000 1.000 1.000
v -14.0 -69.0 0.0 1.000 1.000 1.000
v -20.0 -76.0 12.0 1.000 1.000 1.000
v -16.0 -69.0 16.0 1.000 1.000 1.000
v -13.0 -57.0 0.0 1.000 1.000 1.000
v -18.0 -57.0 12.0 1.000 1.000 1.000
v -17.0 -45.0 0.0 1.000 1.000 1.000
v -19.0 -41.0 28.0 1.000 1.000 1.000
v -16.0 -29.0 0.0 1.000 1.000 1.000
v -25.0 -28.0 19.0 1.000 1.000 1.000
v -21.0 -16.0 28.0 1.000 1.000 1.000
v -11.0 -26.0 3.0 1.000 1.000 1.000
v -7.0 -9.0 5.0 1.000 1.000 1.000
v -20.0 0.0 20.0 1.000 1.000 1.000
v -16.0 11.0 28.0 1.000 1.000 1.000
v -27.0 -80.0 -1.0 1.000 1.000 1.000
v -22.0 -76.0 -17.0 1.000 1.000 1.000
v -13.0 -72.0 -17.0 1.000 1.000 1.000
v -19.0 -76.0 0.0 1.000 1.000 1.000
v -1.0 -65.0 -16.0 1.000 1.000 1.000
v -14.0 -69.0 0.0 1.000 1.000 1.000
v -13.0 -57.0 0.0 1.000 1.000 1.000
v 4.0 -49.0 -15.0 1.000 1.000 1.000
v -17.0 -45.0 0.0 1.000 1.000 1.000
v 1.0 25.0 5.0 1.000 1.000 1.000
v -18.0 23.0 20.0 1.000 1.000 1.000
v 13.0 16.0 21.0 1.000 1.000 1.000
v 17.0 11.0 25.0 1.000 1.000 1.000
v 13.0 16.0 21.0 1.000 1.000 1.000
v -18.0 23.0 20.0 1.000 1.000 1.000
v -25.0 28.0 7.0 1.000 1.000 1.000
v -20.0 24.0 -17.0 1.000 1.000 1.000
v -24.0 28.0 -1.0 1.000 1.000 1.000
v 21.0 37.0 8.0 1.000 1.000 1.000
v 23.0 25.0 -9.0 1.000 1.000 1.000
v 13.0 30.0 -4.0 1.000 1.000 1.000
v 14.0 34.0 17.0 1.000 1.000 1.000
v 32.0 33.0 8.0 1.000 1.000 1.000
v 36.0 13.0 2.0 1.000 1.000 1.000
v 23.0 25.0 -9.0 1.000 1.000 1.000
v 32.0 33.0 8.0 1.000 1.000 1.000
v 36.0 18.0 9.0 1.000 1.000 1.000
v 35.0 12.0 13.0 1.000 1.000 1.000
v 25.0 -3.0 -3.0 1.000 1.000 1.000
v 25.0 9.0 17.0 1.000 1.000 1.000
v -7.0 -9.0 5.0 1.000 1.000 1.000
v 17.0 11.0 25.0 1.000 1.000 1.000
v -18.0 23.0 20.0 1.000 1.000 1.000
v -20.0 24.0 -17.0 1.000 1.000 1.000
v -28.0 20.0 -18.0 1.000 1.000 1.000
v -33.0 24.0 -1.0 1.000 1.000 1.000
v -24.0 28.0 -1.0 1.000 1.000 1.000
v -33.0 1.0 -18.0 1.000 1.000 1.000
v -37.0 17.0 -2.0 1.000 1.000 1.000
v -24.0 28.0 -1.0 1.000 1.000 1.000
v -33.0 24.0 -1.0 1.000 1.000 1.000
v -34.0 24.0 19.0 1.000 1.000 1.000
v -25.0 28.0 7.0 1.000 1.000 1.000
v -8.0 20.0 -18.0 1.000 1.000 1.000
v -20.0 24.0 -17.0 1.000 1.000 1.000
v 1.0 25.0 5.0 1.000 1.000 1.000
v 4.0 24.0 -23.0 1.000 1.000 1.000
v 13.0 30.0 -4.0 1.000 1.000 1.000
v 23.0 25.0 -9.0 1.000 1.000 1.000
v 27.0 -1.0 -28.0 1.000 1.000 1.000
v 4.0 24.0 -23.0 1.000 1.000 1.000
v 23.0 25.0 -9.0 1.000 1.000 1.000
v 36.0 13.0 2.0 1.000 1.000 1.000
v 25.0 -3.0 -3.0 1.000 1.000 1.000
v -3.0 -37.0 -19.0 1.000 1.000 1.000
v -3.0 -37.0 -19.0 1.000 1.000 1.000
v 25.0 -3.0 -3.0 1.000 1.000 1.000
v -7.0 -9.0 5.0 1.000 1.000 1.000
v -11.0 -26.0 3.0 1.000 1.000 1.000
v -26.0 1.0 -43.0 1.000 1.000 1.000
v -30.0 -17.0 -43.0 1.000 1.000 1.000
v -33.0 1.0 -18.0 1.000 1.000 1.000
v 23.0 -43.0 -37.0 1.000 1.000 1.000
v 4.0 -49.0 -15.0 1.000 1.000 1.000
v 25.0 -21.0 -40.0 1.000 1.000 1.000
v 27.0 -1.0 -28.0 1.000 1.000 1.000
v 18.0 1.0 -33.0 1.000 1.000 1.000
v 4.0 24.0 -23.0 1.000 1.000 1.000
v 11.0 5.0 -39.0 1.000 1.000 1.000
v -12.0 11.0 -40.0 1.000 1.000 1.000
v 4.0 24.0 -23.0 1.000 1.000 1.000
v 0.0 10.0 -40.0 1.000 1.000 1.000
v 11.0 5.0 -39.0 1.000 1.000 1.000
v -8.0 20.0 -18.0 1.000 1.000 1.000
v -20.0 24.0 -17.0 1.000 1.000 1.000
v -20.0 24.0 -17.0 1.000 1.000 1.000
v -12.0 11.0 -40.0 1.000 1.000 1.000
v -21.0 12.0 -41.0 1.000 1.000 1.000
v -28.0 20.0 -18.0 1.000 1.000 1.000
v -33.0 1.0 -18.0 1.000 1.000 1.000
v -26.0 1.0 -43.0 1.000 1.000 1.000
v -8.0 7.0 -65.0 1.000 1.000 1.000
v -21.0 -3.0 -66.0 1.000 1.000 1.000
v -30.0 -17.0 -43.0 1.000 1.000 1.000
v -26.0 -25.0 -66.0 1.000 1.000 1.000
v -31.0 -35.0 -43.0 1.000 1.000 1.000
v -30.0 -17.0 -43.0 1.000 1.000 1.000
v -26.0 -25.0 -66.0 1.000 1.000 1.000
v -21.0 -48.0 -66.0 1.000 1.000 1.000
v -28.0 -53.0 -42.0 1.000 1.000 1.000
v -9.0 -66.0 -41.0 1.000 1.000 1.000
v -21.0 -48.0 -66.0 1.000 1.000 1.000
v -8.0 -57.0 -65.0 1.000 1.000 1.000
v -1.0 -66.0 -40.0 1.000 1.000 1.000
v 12.0 -61.0 -39.0 1.000 1.000 1.000
v -1.0 -66.0 -40.0 1.000 1.000 1.000
v -8.0 -57.0 -65.0 1.000 1.000 1.000
v 5.0 -48.0 -64.0 1.000 1.000 1.000
v 23.0 -43.0 -37.0 1.000 1.000 1.000
v 14.0 -25.0 -71.0 1.000 1.000 1.000
v 25.0 -21.0 -40.0 1.000 1.000 1.000
v 25.0 -21.0 -40.0 1.000 1.000 1.000
v 14.0 -25.0 -71.0 1.000 1.000 1.000
v 5.0 -3.0 -64.0 1.000 1.000 1.000
v 11.0 5.0 -39.0 1.000 1.000 1.000
v 11.0 5.0 -39.0 1.000 1.000 1.000
v 5.0 -3.0 -64.0 1.000 1.000 1.000
v 0.0 10.0 -40.0 1.000 1.000 1.000
v -12.0 11.0 -40.0 1.000 1.000 1.000
v -12.0 11.0 -40.0 1.000 1.000 1.000
v -8.0 7.0 -65.0 1.000 1.000 1.000
v -21.0 12.0 -41.0 1.000 1.000 1.000
v -12.0 11.0 -40.0 1.000 1.000 1.000
v -8.0 7.0 -65.0 1.000 1.000 1.000
v -9.0 -66.0 -41.0 1.000 1.000 1.000
v -21.0 -48.0 -66.0 1.000 1.000 1.000
v -1.0 -66.0 -40.0 1.000 1.000 1.000
v 21.0 -18.0 -179.0 1.000 1.000 1.000
v 14.0 -25.0 -71.0 1.000 1.000 1.000
v 28.0 -49.0 -179.0 1.000 1.000 1.000
v 5.0 -3.0 -64.0 1.000 1.000 1.000
v 2.0 -15.0 -181.0 1.000 1.000 1.000
v 5.0 -3.0 -64.0 1.000 1.000 1.000
v 21.0 -18.0 -179.0 1.000 1.000 1.000
v -8.0 7.0 -65.0 1.000 1.000 1.000
v -16.0 -18.0 -182.0 1.000 1.000 1.000
v -21.0 -3.0 -66.0 1.000 1.000 1.000
v -34.0 -49.0 -182.0 1.000 1.000 1.000
v -26.0 -25.0 -66.0 1.000 1.000 1.000
v -16.0 -81.0 -182.0 1.000 1.000 1.000
v -21.0 -48.0 -66.0 1.000 1.000 1.000
v 2.0 -93.0 -181.0 1.000 1.000 1.000
v -8.0 -57.0 -65.0 1.000 1.000 1.000
v 21.0 -81.0 -179.0 1.000 1.000 1.000
v -8.0 -57.0 -65.0 1.000 1.000 1.000
v 2.0 -93.0 -181.0 1.000 1.000 1.000
v 5.0 -48.0 -64.0 1.000 1.000 1.000
v 28.0 -49.0 -179.0 1.000 1.000 1.000
v 14.0 -25.0 -71.0 1.000 1.000 1.000
v 9.0 34.0 18.0 1.000 1.000 1.000
v 6.0 27.0 3.0 1.000 1.000 1.000
v -6.0 27.0 3.0 1.000 1.000 1.000
v -9.0 34.0 18.0 1.000 1.000 1.000
v -9.0 27.0 18.0 1.000 1.000 1.000
vt 0.9688 1.0000
vt 0.0000 1.0000
vt 0.0000 0.0312
vt 0.9688 0.0312
vt 0.8444 0.6900
vt 0.8703 0.7548
vt 0.9452 0.4523
vt 0.8799 0.2823
vt 0.7220 0.0520
vt 0.8532 0.8532
vt 0.1464 0.1464
vt 0.1173 0.2041
vt 0.1487 0.3934
vt 0.2816 0.7184
vt 0.1348 0.8215
vt 0.0521 0.7220
vt 0.4404 0.1611
vt 0.6367 0.1914
vt 0.4668 0.1406
vt 0.6162 0.2080
vt 0.4229 0.2197
vt 0.6025 0.2559
vt 0.4141 0.2812
vt 0.5957 0.3047
vt 0.4785 0.2314
vt 0.6289 0.3115
vt 0.4570 0.2891
vt 0.6465 0.2646
vt 0.4824 0.1689
vt 0.6494 0.2148
vt 0.6709 0.2002
vt 0.6963 0.2266
vt 0.6914 0.2754
vt 0.6758 0.3223
vt 0.6084 0.3281
vt 0.6426 0.3359
vt 0.1777 0.1758
vt 0.0215 0.1699
vt 0.1758 0.1934
vt 0.0205 0.1865
vt 0.1738 0.2529
vt 0.0195 0.2461
vt 0.1719 0.3154
vt 0.0156 0.3086
vt 0.1709 0.3496
vt 0.0156 0.3428
vt 0.1729 0.3281
vt 0.0166 0.3252
vt 0.1748 0.2705
vt 0.0195 0.2676
vt 0.1768 0.2061
vt 0.0215 0.2031
vt 0.2246 0.3027
vt 0.2275 0.2158
vt 0.1393 0.4683
vt 0.1268 0.6112
vt 0.1625 0.7065
vt 0.2937 0.7499
vt 0.0951 0.7263
vt 0.7510 0.6826
vt 0.7363 0.6270
vt 0.6992 0.6836
vt 0.6650 0.5986
vt 0.7227 0.5791
vt 0.8428 0.3770
vt 0.8379 0.4014
vt 0.7119 0.3701
vt 0.7227 0.4229
vt 0.6475 0.3564
vt 0.8516 0.4043
vt 0.7314 0.4785
vt 0.6846 0.4707
vt 0.7100 0.4199
vt 0.8379 0.4619
vt 0.7109 0.4746
vt 0.8584 0.4658
vt 0.7686 0.4229
vt 0.7656 0.4561
vt 0.4941 0.4160
vt 0.4902 0.4561
vt 0.7568 0.5117
vt 0.7637 0.4336
vt 0.4873 0.4287
vt 0.3867 0.1523
vt 0.4395 0.1367
vt 0.3545 0.2080
vt 0.3613 0.2715
vt 0.4824 0.1709
vt 0.6992 0.2061
vt 0.8154 0.1602
vt 0.6973 0.1855
vt 0.8174 0.1836
vt 0.7031 0.2598
vt 0.8223 0.2441
vt 0.7070 0.3164
vt 0.8262 0.3066
vt 0.7031 0.2656
vt 0.8262 0.3105
vt 0.7070 0.3203
vt 0.8213 0.2500
vt 0.6992 0.2100
vt 0.8174 0.1885
vt 0.6348 0.1777
vt 0.6680 0.2305
vt 0.5898 0.1562
vt 0.6338 0.2012
vt 0.7617 0.2090
vt 0.7617 0.1846
vt 0.6494 0.1621
vt 0.8337 0.5715
vt 0.8688 0.4802
vt 0.8363 0.6979
vt 0.7785 0.8183
vt 0.9164 0.7181
vt 0.1516 0.8523
vt 0.5000 1.0000
vt 0.8484 0.8523
vt 0.7102 0.1113
vt 0.1465 0.4033
vt 0.1709 0.3975
vt 0.1826 0.4238
vt 0.1719 0.4121
vt 0.1133 0.4336
vt 0.2949 0.3896
vt 0.2959 0.4043
vt 0.2988 0.4639
vt 0.1758 0.4707
vt 0.3027 0.5254
vt 0.1777 0.5332
vt 0.3037 0.5605
vt 0.1797 0.5674
vt 0.3027 0.5400
vt 0.1787 0.5527
vt 0.2998 0.4844
vt 0.1758 0.4971
vt 0.2969 0.4199
vt 0.1729 0.4326
vt 0.3389 0.5117
vt 0.3340 0.4258
vt 0.7090 0.6445
vt 0.7402 0.6396
vt 0.7139 0.6357
vt 0.7812 0.6562
vt 0.7012 0.6855
vt 0.7812 0.6992
vt 0.7666 0.7422
vt 0.6943 0.7285
vt 0.7197 0.7598
vt 0.6924 0.7549
vt 0.6943 0.6572
vt 0.3389 0.5381
vt 0.1582 0.5898
vt 0.3408 0.5547
vt 0.1592 0.6074
vt 0.3428 0.6172
vt 0.1641 0.6689
vt 0.3457 0.6816
vt 0.1641 0.7334
vt 0.3467 0.7158
vt 0.1650 0.7686
vt 0.3447 0.6943
vt 0.1641 0.7510
vt 0.3428 0.6348
vt 0.1611 0.6914
vt 0.3398 0.5684
vt 0.1592 0.6250
vt 0.4053 0.6484
vt 0.4014 0.5586
vt 0.1699 0.8252
vt 0.2178 0.7725
vt 0.1992 0.7881
vt 0.2207 0.7871
vt 0.1680 0.8828
vt 0.2295 0.8379
vt 0.1777 0.9365
vt 0.2363 0.8936
vt 0.2100 0.9453
vt 0.2402 0.9229
vt 0.2217 0.8018
vt 0.3252 0.6982
vt 0.3271 0.7129
vt 0.3350 0.7646
vt 0.3438 0.8193
vt 0.3477 0.8486
vt 0.3447 0.8301
vt 0.2373 0.9082
vt 0.3369 0.7803
vt 0.2305 0.8574
vt 0.3281 0.7236
vt 0.3818 0.7783
vt 0.3701 0.7031
vt 0.9482 0.1426
vt 0.8965 0.2480
vt 0.9688 0.1953
vt 0.8984 0.1787
vt 0.8467 0.2168
vt 0.9609 0.1338
vt 0.9355 0.1523
vt 0.8174 0.2383
vt 0.8340 0.2266
vt 0.8818 0.1914
vt 0.8496 0.0137
vt 0.8369 0.0225
vt 0.7891 0.0605
vt 0.7354 0.0967
vt 0.7061 0.1182
vt 0.7188 0.1094
vt 0.8008 0.1025
vt 0.8203 0.0352
vt 0.5518 0.1680
vt 0.5205 0.2949
vt 0.6104 0.1523
vt 0.6084 0.2471
vt 0.6113 0.1318
vt 0.5811 0.2256
vt 0.5557 0.1182
vt 0.4707 0.1689
vt 0.4209 0.2969
vt 0.5322 0.0918
vt 0.5967 0.0967
vt 0.6201 0.1084
vt 0.5889 0.1201
vt 0.5254 0.1016
vt 0.2617 0.2529
vt 0.3311 0.3232
vt 0.2646 0.2627
vt 0.3350 0.3340
vt 0.2812 0.2500
vt 0.3525 0.3193
vt 0.3008 0.2217
vt 0.3750 0.2881
vt 0.3125 0.1953
vt 0.4141 0.2422
vt 0.2598 0.2139
vt 0.2529 0.1816
vt 0.2666 0.2363
vt 0.3574 0.2705
vt 0.3594 0.2793
vt 0.3467 0.2656
vt 0.2500 0.2480
vt 0.0904 0.2972
vt 0.3333 0.8333
vt 0.1446 0.8436
vt 0.0520 0.2780
vt 0.7887 0.7887
vt 0.8566 0.8487
vt 0.7227 0.9255
vt 0.5000 0.9743
vt 0.8333 0.3333
vt 0.9480 0.2780
vt 0.5000 0.0000
vt 0.3614 0.0366
vt 0.1466 0.2499
vt 0.1474 0.1554
vt 0.7218 0.1831
vt 0.7487 0.0816
vt 0.7216 0.0647
vt 0.8122 0.1838
vt 0.7706 0.1816
vt 0.6582 0.0848
vt 0.8250 0.3692
vt 0.7416 0.1158
vt 0.7575 0.2623
vt 0.6700 0.0572
vt 0.6588 0.1188
vt 0.5316 0.0101
vt 0.4604 0.0288
vt 0.3967 0.0512
vt 0.3173 0.2021
vt 0.2900 0.0958
vt 0.2144 0.2977
vt 0.2102 0.1586
vt 0.1603 0.4092
vt 0.2313 0.0891
vt 0.2294 0.1816
vt 0.7220 0.5000
vt 0.9096 0.2972
vt 0.2113 0.2113
vt 0.6306 0.0530
vt 0.9471 0.3417
vt 0.2626 0.0925
vt 0.1464 0.5000
vt 0.1247 0.2077
vt 0.3374 0.3176
vt 0.2780 0.0520
vt 0.7454 0.1161
vt 0.8536 0.1464
vt 0.6626 0.4088
vt 0.9480 0.5000
vt 0.3770 0.6377
vt 0.2207 0.6875
vt 0.3896 0.8203
vt 0.4004 0.9766
vt 0.3984 0.9434
vt 0.2373 0.9209
vt 0.2305 0.8252
vt 0.2109 0.5518
vt 0.3594 0.3955
vt 0.5752 0.3662
vt 0.5840 0.4854
vt 0.5674 0.2461
vt 0.5928 0.6084
vt 0.5986 0.6992
vt 0.6484 0.7852
vt 0.6055 0.7910
vt 0.6699 0.8730
vt 0.6123 0.8818
vt 0.6592 0.9385
vt 0.6162 0.9443
vt 0.6475 0.9736
vt 0.6191 0.9775
vt 0.7109 0.8682
vt 0.6973 0.8184
vt 0.6846 0.7959
vt 0.5625 0.1875
vt 0.6895 0.6631
vt 0.6865 0.7471
vt 0.8896 0.6406
vt 0.8867 0.7344
vt 0.6855 0.7871
vt 0.8857 0.7637
vt 0.6846 0.8057
vt 0.8857 0.7607
vt 0.6934 0.5547
vt 0.4180 0.6240
vt 0.4209 0.5381
vt 0.4238 0.4756
vt 0.3750 0.8115
vt 0.4111 0.8135
vt 0.4121 0.7949
vt 0.3574 0.7920
vt 0.4141 0.7529
vt 0.3408 0.7500
vt 0.4160 0.6895
vt 0.3613 0.6855
vt 0.2920 0.5957
vt 0.3311 0.5312
vt 0.2969 0.4668
vt 0.4062 0.4326
vt 0.3359 0.3828
vt 0.3018 0.3184
vt 0.8193 0.3164
vt 0.9561 0.2334
vt 0.4658 0.2803
vt 0.5098 0.2891
vt 0.8555 0.2588
vt 1.0225 0.3018
vt 0.8076 0.6719
vt 0.9990 0.3447
vt 0.4541 0.3516
vt 0.6836 0.3613
vt 0.4414 0.3154
vt 0.4570 0.2539
vt 0.4248 0.4268
vt 0.3398 0.2549
vt 0.3477 0.2197
vt 0.3486 0.2471
vt 0.5605 0.1602
vt 0.6611 0.6670
vt 0.4990 0.6611
vt 0.6973 0.4316
vt 0.7012 0.3193
vt 0.2012 0.4170
vt 0.8955 0.4805
vt 0.7988 0.3994
vt 0.8994 0.3818
vt 0.5488 0.9102
vt 0.4951 0.9092
vt 0.4404 0.9082
vt 0.1953 0.3359
vt 0.1953 0.3320
vt 0.1123 0.3838
vt 0.1172 0.4541
vt 0.1289 0.6260
vt 0.1416 0.7969
vt 0.4570 0.7080
vt 0.4648 0.7627
vt 0.5498 0.8008
vt 0.8779 0.7344
vt 0.8770 0.7637
vt 0.9873 0.7207
vt 0.9893 0.6709
vt 0.8809 0.6406
vt 0.9932 0.5498
vt 0.8867 0.4805
vt 0.9971 0.4287
vt 0.8896 0.3818
vt 0.5068 0.8848
vt 0.5488 0.9111
vt 0.7139 0.8633
vt 0.5469 0.7979
vt 0.9844 0.3916
vt 0.8467 0.5195
vt 0.9863 0.5430
vt 0.8457 0.3984
vt 0.0527 0.3857
vt 0.4473 0.4375
vt 0.0625 0.4619
vt 0.4395 0.3828
vt 0.0537 0.4639
vt 0.4395 0.4395
vt 0.0635 0.6484
vt 0.4473 0.5732
vt 0.0771 0.8330
vt 0.0869 0.9092
vt 0.9873 0.6943
vt 0.8486 0.6914
vt 0.9883 0.7568
vt 0.8477 0.6406
vt 0.1681 0.1957
vn 0.000 0.000 1.000
vn 0.000 0.000 1.000
vn 0.000 0.000 1.000
vn 0.000 0.000 1.000
vn 0.000 0.000 1.000
vn 0.000 0.000 1.000
vn 0.000 0.000 1.000
vn 0.000 0.000 1.000
vn 0.000 0.000 1.000
vn 0.000 0.000 1.000
vn 0.000 0.000 1.000
vn 0.000 0.000 1.000
vn 0.000 0.000 1.000
vn 0.000 0.000 1.000
vn 0.000 0.000 1.000
vn 0.000 0.000 1.000
vn 0.000 0.000 -1.000
vn 0.000 0.000 -1.000
vn 0.000 0.000 -1.000
vn 0.000 0.000 -1.000
vn 0.000 0.000 -1.000
vn 0.000 0.000 -1.000
vn 0.000 0.000 -1.000
vn 0.000 0.000 -1.000
vn 0.000 0.000 -1.000
vn 0.000 0.000 -1.000
vn 0.000 0.000 -1.000
vn 0.000 0.000 -1.000
vn 0.000 0.000 -1.000
vn 0.000 0.000 -1.000
vn 0.000 0.000 -1.000
vn 0.000 0.000 -1.000
vn 0.689 -0.380 0.617
vn 0.741 -0.510 0.438
vn 0.890 0.095 -0.445
vn 0.760 0.435 -0.483
vn 0.444 0.896 0.000
vn 0.706 -0.706 0.048
vn -0.707 0.707 0.000
vn -0.765 0.592 -0.253
vn -0.703 0.213 -0.679
vn -0.437 -0.437 0.786
vn -0.730 -0.643 0.230
vn -0.896 -0.444 0.024
vn -0.577 -0.577 -0.577
vn -0.577 -0.577 -0.577
vn -0.577 -0.577 -0.577
vn -0.577 -0.577 -0.577
vn -0.577 -0.577 -0.577
vn -0.577 -0.577 -0.577
vn -0.577 -0.577 -0.577
vn -0.577 -0.577 -0.577
vn -0.577 -0.577 -0.577
vn -0.577 -0.577 -0.577
vn -0.577 -0.577 -0.577
vn -0.577 -0.577 -0.577
vn -0.577 -0.577 -0.577
vn -0.577 -0.577 -0.577
vn -0.577 -0.577 -0.577
vn -0.577 -0.577 -0.577
vn -0.577 -0.577 -0.577
vn -0.577 -0.577 -0.577
vn -0.577 -0.577 -0.577
vn -0.577 -0.577 -0.577
vn -0.577 -0.577 -0.577
vn -0.577 -0.577 -0.577
vn -0.577 -0.577 -0.577
vn -0.577 -0.577 -0.577
vn -0.577 -0.577 -0.577
vn -0.577 -0.577 -0.577
vn -0.577 -0.577 -0.577
vn -0.577 -0.577 -0.577
vn -0.577 -0.577 -0.577
vn -0.577 -0.577 -0.577
vn -0.577 -0.577 -0.577
vn -0.577 -0.577 -0.577
vn -0.577 -0.577 -0.577
vn -0.577 -0.577 -0.577
vn -0.577 -0.577 -0.577
vn -0.577 -0.577 -0.577
vn -0.577 -0.577 -0.577
vn -0.577 -0.577 -0.577
vn -0.577 -0.577 -0.577
vn -0.577 -0.577 -0.577
vn -0.577 -0.577 -0.577
vn -0.577 -0.577 -0.577
vn -0.577 -0.577 -0.577
vn -0.577 -0.577 -0.577
vn -0.577 -0.577 -0.577
vn -0.577 -0.577 -0.577
vn -0.577 -0.577 -0.577
vn -0.577 -0.577 -0.577
vn -0.577 -0.577 -0.577
vn -0.577 -0.577 -0.577
vn -0.577 -0.577 -0.577
vn -0.577 -0.577 -0.577
vn -0.577 -0.577 -0.577
vn -0.577 -0.577 -0.577
vn -0.577 -0.577 -0.577
vn -0.577 -0.577 -0.577
vn -0.577 -0.577 -0.577
vn -0.721 0.063 -0.690
vn -0.746 -0.222 -0.627
vn -0.675 -0.413 0.611
vn -0.413 -0.500 -0.762
vn -0.810 -0.453 0.373
vn -0.577 -0.577 -0.577
vn -0.577 -0.577 -0.577
vn -0.577 -0.577 -0.577
vn -0.577 -0.577 -0.577
vn -0.577 -0.577 -0.577
vn -0.577 -0.577 -0.577
vn -0.577 -0.577 -0.577
vn -0.577 -0.577 -0.577
vn -0.577 -0.577 -0.577
vn -0.577 -0.577 -0.577
vn -0.577 -0.577 -0.577
vn -0.577 -0.577 -0.577
vn -0.577 -0.577 -0.577
vn -0.577 -0.577 -0.577
vn -0.577 -0.577 -0.577
vn -0.577 -0.577 -0.577
vn -0.577 -0.577 -0.577
vn -0.577 -0.577 -0.577
vn -0.577 -0.577 -0.577
vn -0.577 -0.577 -0.577
vn -0.577 -0.577 -0.577
vn -0.577 -0.577 -0.577
vn -0.577 -0.577 -0.577
vn -0.577 -0.577 -0.577
vn -0.577 -0.577 -0.577
vn -0.577 -0.577 -0.577
vn -0.577 -0.577 -0.577
vn -0.577 -0.577 -0.577
vn -0.577 -0.577 -0.577
vn -0.577 -0.577 -0.577
vn -0.577 -0.577 -0.577
vn -0.577 -0.577 -0.577
vn -0.577 -0.577 -0.577
vn -0.577 -0.577 -0.577
vn -0.577 -0.577 -0.577
vn -0.577 -0.577 -0.577
vn -0.577 -0.577 -0.577
vn -0.577 -0.577 -0.577
vn -0.577 -0.577 -0.577
vn -0.577 -0.577 -0.577
vn -0.577 -0.577 -0.577
vn -0.577 -0.577 -0.577
vn -0.577 -0.577 -0.577
vn -0.577 -0.577 -0.577
vn -0.577 -0.577 -0.577
vn -0.577 -0.577 -0.577
vn -0.577 -0.577 -0.577
vn -0.577 -0.577 -0.577
vn -0.577 -0.577 -0.577
vn -0.577 -0.577 -0.577
vn -0.577 -0.577 -0.577
vn -0.577 -0.577 -0.577
vn -0.577 -0.577 -0.577
vn -0.577 -0.577 -0.577
vn -0.577 -0.577 -0.577
vn -0.577 -0.577 -0.577
vn -0.577 -0.577 -0.577
vn -0.577 -0.577 -0.577
vn -0.577 -0.577 -0.577
vn -0.577 -0.577 -0.577
vn -0.577 -0.577 -0.577
vn -0.577 -0.577 -0.577
vn -0.577 -0.577 -0.577
vn -0.577 -0.577 -0.577
vn -0.577 -0.577 -0.577
vn -0.577 -0.577 -0.577
vn -0.577 -0.577 -0.577
vn -0.577 -0.577 -0.577
vn -0.577 -0.577 -0.577
vn -0.577 -0.577 -0.577
vn -0.577 -0.577 -0.577
vn -0.577 -0.577 -0.577
vn -0.577 -0.577 -0.577
vn 0.667 -0.143 -0.731
vn -0.746 -0.222 -0.627
vn -0.721 0.063 -0.690
vn 0.738 0.040 -0.674
vn 0.673 -0.396 -0.625
vn -0.413 -0.500 -0.762
vn -0.675 -0.413 0.611
vn -0.810 -0.453 0.373
vn 0.557 -0.637 0.533
vn 0.833 -0.436 0.341
vn -0.697 -0.705 -0.135
vn 0.000 -1.000 0.000
vn 0.697 -0.705 -0.135
vn 0.420 0.777 -0.468
vn -0.577 -0.577 -0.577
vn -0.577 -0.577 -0.577
vn -0.577 -0.577 -0.577
vn -0.577 -0.577 -0.577
vn -0.577 -0.577 -0.577
vn -0.577 -0.577 -0.577
vn -0.577 -0.577 -0.577
vn -0.577 -0.577 -0.577
vn -0.577 -0.577 -0.577
vn -0.577 -0.577 -0.577
vn -0.577 -0.577 -0.577
vn -0.577 -0.577 -0.577
vn -0.577 -0.577 -0.577
vn -0.577 -0.577 -0.577
vn -0.577 -0.577 -0.577
vn -0.577 -0.577 -0.577
vn -0.577 -0.577 -0.577
vn -0.577 -0.577 -0.577
vn -0.577 -0.577 -0.577
vn -0.577 -0.577 -0.577
vn -0.577 -0.577 -0.577
vn -0.577 -0.577 -0.577
vn -0.577 -0.577 -0.577
vn -0.577 -0.577 -0.577
vn -0.577 -0.577 -0.577
vn -0.577 -0.577 -0.577
vn -0.577 -0.577 -0.577
vn -0.577 -0.577 -0.577
vn -0.577 -0.577 -0.577
vn -0.577 -0.577 -0.577
vn -0.577 -0.577 -0.577
vn -0.577 -0.577 -0.577
vn -0.577 -0.577 -0.577
vn -0.577 -0.577 -0.577
vn -0.577 -0.577 -0.577
vn -0.577 -0.577 -0.577
vn -0.577 -0.577 -0.577
vn -0.577 -0.577 -0.577
vn -0.577 -0.577 -0.577
vn -0.577 -0.577 -0.577
vn -0.577 -0.577 -0.577
vn -0.577 -0.577 -0.577
vn -0.577 -0.577 -0.577
vn -0.577 -0.577 -0.577
vn -0.577 -0.577 -0.577
vn -0.577 -0.577 -0.577
vn -0.577 -0.577 -0.577
vn -0.577 -0.577 -0.577
vn -0.577 -0.577 -0.577
vn -0.577 -0.577 -0.577
vn -0.577 -0.577 -0.577
vn -0.577 -0.577 -0.577
vn -0.577 -0.577 -0.577
vn -0.577 -0.577 -0.577
vn -0.577 -0.577 -0.577
vn -0.577 -0.577 -0.577
vn -0.577 -0.577 -0.577
vn -0.577 -0.577 -0.577
vn -0.577 -0.577 -0.577
vn -0.577 -0.577 -0.577
vn -0.577 -0.577 -0.577
vn -0.577 -0.577 -0.577
vn -0.577 -0.577 -0.577
vn -0.577 -0.577 -0.577
vn -0.577 -0.577 -0.577
vn -0.577 -0.577 -0.577
vn -0.577 -0.577 -0.577
vn -0.577 -0.577 -0.577
vn -0.577 -0.577 -0.577
vn -0.577 -0.577 -0.577
vn -0.577 -0.577 -0.577
vn -0.577 -0.577 -0.577
vn -0.577 -0.577 -0.577
vn -0.577 -0.577 -0.577
vn -0.577 -0.577 -0.577
vn -0.577 -0.577 -0.577
vn -0.577 -0.577 -0.577
vn -0.577 -0.577 -0.577
vn -0.577 -0.577 -0.577
vn -0.577 -0.577 -0.577
vn -0.577 -0.577 -0.577
vn -0.577 -0.577 -0.577
vn -0.577 -0.577 -0.577
vn -0.577 -0.577 -0.577
vn -0.577 -0.577 -0.577
vn -0.577 -0.577 -0.577
vn -0.577 -0.577 -0.577
vn -0.577 -0.577 -0.577
vn -0.577 -0.577 -0.577
vn -0.577 -0.577 -0.577
vn -0.577 -0.577 -0.577
vn -0.577 -0.577 -0.577
vn -0.577 -0.577 -0.577
vn -0.577 -0.577 -0.577
vn -0.577 -0.577 -0.577
vn -0.577 -0.577 -0.577
vn -0.577 -0.577 -0.577
vn -0.577 -0.577 -0.577
vn -0.577 -0.577 -0.577
vn -0.577 -0.577 -0.577
vn -0.577 -0.577 -0.577
vn -0.577 -0.577 -0.577
vn -0.577 -0.577 -0.577
vn -0.577 -0.577 -0.577
vn -0.577 -0.577 -0.577
vn -0.577 -0.577 -0.577
vn -0.577 -0.577 -0.577
vn -0.577 -0.577 -0.577
vn -0.577 -0.577 -0.577
vn -0.577 -0.577 -0.577
vn -0.577 -0.577 -0.577
vn -0.577 -0.577 -0.577
vn -0.577 -0.577 -0.577
vn -0.577 -0.577 -0.577
vn -0.577 -0.577 -0.577
vn -0.577 -0.577 -0.577
vn -0.577 -0.577 -0.577
vn -0.577 -0.577 -0.577
vn -0.577 -0.577 -0.577
vn -0.577 -0.577 -0.577
vn -0.577 -0.577 -0.577
vn -0.577 -0.577 -0.577
vn -0.577 -0.577 -0.577
vn -0.577 -0.577 -0.577
vn -0.577 -0.577 -0.577
vn -0.577 -0.577 -0.577
vn -0.577 -0.577 -0.577
vn -0.577 -0.577 -0.577
vn -0.577 -0.577 -0.577
vn -0.577 -0.577 -0.577
vn -0.577 -0.577 -0.577
vn -0.577 -0.577 -0.577
vn -0.577 -0.577 -0.577
vn -0.577 -0.577 -0.577
vn -0.577 -0.577 -0.577
vn -0.577 -0.577 -0.577
vn -0.577 -0.577 -0.577
vn -0.577 -0.577 -0.577
vn -0.577 -0.577 -0.577
vn -0.577 -0.577 -0.577
vn -0.577 -0.577 -0.577
vn -0.577 -0.577 -0.577
vn -0.577 -0.577 -0.577
vn -0.577 -0.577 -0.577
vn -0.577 -0.577 -0.577
vn -0.577 -0.577 -0.577
vn -0.577 -0.577 -0.577
vn -0.577 -0.577 -0.577
vn -0.577 -0.577 -0.577
vn -0.577 -0.577 -0.577
vn -0.577 -0.577 -0.577
vn -0.577 -0.577 -0.577
vn -0.577 -0.577 -0.577
vn -0.577 -0.577 -0.577
vn -0.577 -0.577 -0.577
vn -0.577 -0.577 -0.577
vn -0.577 -0.577 -0.577
vn -0.577 -0.577 -0.577
vn -0.577 -0.577 -0.577
vn -0.577 -0.577 -0.577
vn -0.577 -0.577 -0.577
vn -0.577 -0.577 -0.577
vn -0.577 -0.577 -0.577
vn -0.577 -0.577 -0.577
vn -0.577 -0.577 -0.577
vn -0.577 -0.577 -0.577
vn -0.577 -0.577 -0.577
vn -0.577 -0.577 -0.577
vn -0.577 -0.577 -0.577
vn -0.577 -0.577 -0.577
vn -0.577 -0.577 -0.577
vn -0.577 -0.577 -0.577
vn -0.577 -0.577 -0.577
vn -0.577 -0.577 -0.577
vn -0.577 -0.577 -0.577
vn -0.577 -0.577 -0.577
vn -0.577 -0.577 -0.577
vn -0.819 0.406 -0.406
vn -0.333 -0.667 -0.667
vn -0.711 -0.687 0.150
vn -0.896 0.444 0.000
vn -0.707 0.707 0.000
vn 0.577 -0.577 -0.577
vn 0.713 -0.697 0.071
vn 0.445 -0.851 0.278
vn 0.000 -0.949 0.316
vn 0.667 0.333 -0.667
vn 0.896 0.444 0.000
vn 0.000 1.000 0.000
vn 0.000 1.000 0.000
vn 0.000 1.000 0.000
vn -0.277 0.927 -0.253
vn -0.707 0.500 -0.500
vn -0.705 0.689 0.166
vn 0.444 0.634 -0.634
vn 0.497 0.837 -0.229
vn 0.443 0.871 0.214
vn 0.624 0.632 -0.458
vn 0.541 0.637 0.549
vn 0.316 0.830 -0.459
vn 0.650 0.262 0.713
vn 0.483 0.768 -0.420
vn 0.515 0.475 0.713
vn 0.340 0.886 -0.316
vn 0.318 0.762 0.564
vn 0.063 0.980 -0.190
vn -0.079 0.942 0.325
vn -0.207 0.898 -0.389
vn -0.365 0.596 0.715
vn -0.420 0.808 -0.412
vn -0.571 0.405 0.714
vn -0.580 0.683 -0.445
vn -0.679 0.182 0.711
vn -0.537 0.822 -0.190
vn -0.679 0.182 0.711
vn -0.580 0.683 -0.445
vn -0.541 0.637 0.549
vn 0.541 0.637 0.549
vn 0.650 0.262 0.713
vn -0.571 0.405 0.714
vn 0.515 0.475 0.713
vn -0.365 0.596 0.715
vn 0.318 0.762 0.564
vn -0.079 0.942 0.325
vn 0.316 0.830 -0.459
vn 0.624 0.632 -0.458
vn -0.420 0.808 -0.412
vn 0.483 0.768 -0.420
vn -0.207 0.898 -0.389
vn -0.207 0.898 -0.389
vn 0.340 0.886 -0.316
vn 0.483 0.768 -0.420
vn 0.063 0.980 -0.190
vn 0.444 0.000 0.896
vn 0.819 0.406 0.406
vn -0.577 0.577 0.577
vn 0.261 0.894 -0.364
vn 0.894 0.317 -0.317
vn -0.707 0.500 -0.500
vn -0.475 0.815 -0.332
vn 0.316 0.830 -0.459
vn 0.541 0.637 0.549
vn -0.541 0.637 0.549
vn -0.537 0.822 -0.190
vn -0.707 0.000 0.707
vn -0.751 0.585 -0.308
vn -0.325 0.365 -0.872
vn -0.707 0.000 -0.707
vn -0.444 0.896 0.000
vn 0.491 0.768 -0.412
vn 0.707 0.707 0.000
vn 0.325 0.182 -0.928
vn 0.896 0.000 -0.444
vn -0.577 -0.577 -0.577
vn -0.577 -0.577 -0.577
vn -0.577 -0.577 -0.577
vn -0.577 -0.577 -0.577
vn -0.577 -0.577 -0.577
vn -0.577 -0.577 -0.577
vn -0.577 -0.577 -0.577
vn -0.577 -0.577 -0.577
vn -0.577 -0.577 -0.577
vn -0.577 -0.577 -0.577
vn -0.577 -0.577 -0.577
vn -0.577 -0.577 -0.577
vn -0.577 -0.577 -0.577
vn -0.577 -0.577 -0.577
vn -0.577 -0.577 -0.577
vn -0.577 -0.577 -0.577
vn -0.577 -0.577 -0.577
vn -0.577 -0.577 -0.577
vn -0.577 -0.577 -0.577
vn -0.577 -0.577 -0.577
vn -0.577 -0.577 -0.577
vn -0.577 -0.577 -0.577
vn -0.577 -0.577 -0.577
vn -0.577 -0.577 -0.577
vn -0.577 -0.577 -0.577
vn -0.577 -0.577 -0.577
vn -0.577 -0.577 -0.577
vn -0.577 -0.577 -0.577
vn -0.577 -0.577 -0.577
vn -0.577 -0.577 -0.577
vn -0.577 -0.577 -0.577
vn -0.577 -0.577 -0.577
vn -0.577 -0.577 -0.577
vn -0.577 -0.577 -0.577
vn -0.577 -0.577 -0.577
vn -0.577 -0.577 -0.577
vn -0.577 -0.577 -0.577
vn -0.577 -0.577 -0.577
vn -0.577 -0.577 -0.577
vn -0.577 -0.577 -0.577
vn -0.577 -0.577 -0.577
vn -0.577 -0.577 -0.577
vn -0.577 -0.577 -0.577
vn -0.577 -0.577 -0.577
vn -0.577 -0.577 -0.577
vn -0.577 -0.577 -0.577
vn -0.577 -0.577 -0.577
vn -0.577 -0.577 -0.577
vn -0.577 -0.577 -0.577
vn -0.577 -0.577 -0.577
vn -0.577 -0.577 -0.577
vn -0.577 -0.577 -0.577
vn -0.577 -0.577 -0.577
vn -0.577 -0.577 -0.577
vn -0.577 -0.577 -0.577
vn -0.577 -0.577 -0.577
vn -0.577 -0.577 -0.577
vn -0.577 -0.577 -0.577
vn -0.577 -0.577 -0.577
vn -0.577 -0.577 -0.577
vn -0.577 -0.577 -0.577
vn -0.577 -0.577 -0.577
vn -0.577 -0.577 -0.577
vn -0.577 -0.577 -0.577
vn -0.577 -0.577 -0.577
vn -0.577 -0.577 -0.577
vn -0.577 -0.577 -0.577
vn -0.577 -0.577 -0.577
vn -0.577 -0.577 -0.577
vn -0.577 -0.577 -0.577
vn -0.577 -0.577 -0.577
vn -0.577 -0.577 -0.577
vn -0.577 -0.577 -0.577
vn -0.577 -0.577 -0.577
vn -0.577 -0.577 -0.577
vn -0.577 -0.577 -0.577
vn -0.577 -0.577 -0.577
vn -0.577 -0.577 -0.577
vn -0.577 -0.577 -0.577
vn -0.577 -0.577 -0.577
vn -0.577 -0.577 -0.577
vn -0.577 -0.577 -0.577
vn -0.577 -0.577 -0.577
vn -0.577 -0.577 -0.577
vn -0.577 -0.577 -0.577
vn -0.577 -0.577 -0.577
vn -0.577 -0.577 -0.577
vn -0.577 -0.577 -0.577
vn -0.577 -0.577 -0.577
vn -0.577 -0.577 -0.577
vn -0.577 -0.577 -0.577
vn -0.577 -0.577 -0.577
vn -0.577 -0.577 -0.577
vn -0.577 -0.577 -0.577
vn -0.577 -0.577 -0.577
vn -0.577 -0.577 -0.577
vn -0.577 -0.577 -0.577
vn -0.577 -0.577 -0.577
vn -0.577 -0.577 -0.577
vn -0.577 -0.577 -0.577
vn -0.577 -0.577 -0.577
vn -0.577 -0.577 -0.577
vn -0.577 -0.577 -0.577
vn -0.577 -0.577 -0.577
vn -0.577 -0.577 -0.577
vn -0.577 -0.577 -0.577
vn -0.577 -0.577 -0.577
vn -0.577 -0.577 -0.577
vn -0.577 -0.577 -0.577
vn -0.577 -0.577 -0.577
vn -0.577 -0.577 -0.577
vn -0.577 -0.577 -0.577
vn -0.577 -0.577 -0.577
vn -0.577 -0.577 -0.577
vn -0.577 -0.577 -0.577
vn -0.577 -0.577 -0.577
vn -0.577 -0.577 -0.577
vn -0.577 -0.577 -0.577
vn -0.577 -0.577 -0.577
vn -0.577 -0.577 -0.577
vn -0.577 -0.577 -0.577
vn -0.577 -0.577 -0.577
vn -0.577 -0.577 -0.577
vn -0.577 -0.577 -0.577
vn -0.577 -0.577 -0.577
vn -0.577 -0.577 -0.577
vn -0.577 -0.577 -0.577
vn -0.577 -0.577 -0.577
vn -0.577 -0.577 -0.577
vn -0.577 -0.577 -0.577
vn -0.577 -0.577 -0.577
vn -0.577 -0.577 -0.577
vn -0.577 -0.577 -0.577
vn -0.577 -0.577 -0.577
vn -0.577 -0.577 -0.577
vn -0.577 -0.577 -0.577
vn -0.577 -0.577 -0.577
vn -0.577 -0.577 -0.577
vn -0.577 -0.577 -0.577
vn -0.577 -0.577 -0.577
vn -0.577 -0.577 -0.577
vn -0.577 -0.577 -0.577
vn -0.577 -0.577 -0.577
vn -0.577 -0.577 -0.577
vn -0.577 -0.577 -0.577
vn -0.577 -0.577 -0.577
vn -0.577 -0.577 -0.577
vn -0.577 -0.577 -0.577
vn -0.577 -0.577 -0.577
vn -0.577 -0.577 -0.577
vn -0.577 -0.577 -0.577
vn -0.577 -0.577 -0.577
vn -0.577 -0.577 -0.577
vn -0.577 -0.577 -0.577
vn -0.577 -0.577 -0.577
vn -0.577 -0.577 -0.577
vn -0.577 -0.577 -0.577
vn -0.577 -0.577 -0.577
vn -0.577 -0.577 -0.577
vn -0.577 -0.577 -0.577
vn -0.577 -0.577 -0.577
vn -0.577 -0.577 -0.577
vn -0.577 -0.577 -0.577
vn -0.577 -0.577 -0.577
vn -0.577 -0.577 -0.577
vn -0.577 -0.577 -0.577
vn -0.577 -0.577 -0.577
vn -0.577 -0.577 -0.577
vn -0.577 -0.577 -0.577
vn -0.577 -0.577 -0.577
vn -0.577 -0.577 -0.577
vn -0.577 -0.577 -0.577
vn -0.577 -0.577 -0.577
vn -0.577 -0.577 -0.577
vn -0.577 -0.577 -0.577
vn -0.577 -0.577 -0.577
vn -0.577 -0.577 -0.577
vn -0.577 -0.577 -0.577
vn -0.577 -0.577 -0.577
vn -0.577 -0.577 -0.577
vn -0.577 -0.577 -0.577
vn -0.577 -0.577 -0.577
vn -0.577 -0.577 -0.577
vn -0.577 -0.577 -0.577
vn -0.577 -0.577 -0.577
vn -0.577 -0.577 -0.577
vn -0.577 -0.577 -0.577
vn -0.577 -0.577 -0.577
vn -0.577 -0.577 -0.577
vn -0.577 -0.577 -0.577
vn -0.577 -0.577 -0.577
vn -0.577 -0.577 -0.577
vn -0.577 -0.577 -0.577
vn -0.577 -0.577 -0.577
vn -0.577 -0.577 -0.577
vn -0.577 -0.577 -0.577
vn -0.577 -0.577 -0.577
vn -0.577 -0.577 -0.577
vn -0.577 -0.577 -0.577
vn -0.577 -0.577 -0.577
vn -0.577 -0.577 -0.577
vn -0.577 -0.577 -0.577
vn -0.577 -0.577 -0.577
vn -0.577 -0.577 -0.577
vn -0.577 -0.577 -0.577
vn -0.577 -0.577 -0.577
vn -0.577 -0.577 -0.577
vn -0.577 -0.577 -0.577
vn -0.577 -0.577 -0.577
vn -0.577 -0.577 -0.577
vn -0.577 -0.577 -0.577
vn -0.577 -0.577 -0.577
vn -0.577 -0.577 -0.577
vn -0.577 -0.577 -0.577
vn -0.577 -0.577 -0.577
vn -0.577 -0.577 -0.577
vn -0.577 -0.577 -0.577
vn 0.420 0.777 -0.468
vn 0.667 -0.143 -0.731
vn -0.721 0.063 -0.690
vn -0.664 0.609 -0.435
vn -0.697 -0.705 -0.135
usemtl tex_2157_fl0_ds_w11
f 1/1/1 2/2/2 3/3/3
f 1/1/1 3/3/3 4/4/4
usemtl tex_2158_fl0_ds_w11_ovl
f 5/1/5 6/2/6 7/3/7
f 5/1/5 7/3/7 8/4/8
usemtl tex_2159_fl0_ds_w11_ovl
f 9/1/9 10/2/10 11/3/11
f 9/1/9 11/3/11 12/4/12
usemtl tex_2160_fl0_ds_w11_ovl
f 13/1/13 14/2/14 15/3/15
f 13/1/13 15/3/15 16/4/16
usemtl tex_2157_fl1_ds_w11
f 17/1/17 18/2/18 19/3/19
f 17/1/17 19/3/19 20/4/20
usemtl tex_2158_fl1_ds_w11_ovl
f 21/1/21 22/2/22 23/3/23
f 21/1/21 23/3/23 24/4/24
usemtl tex_2159_fl1_ds_w11_ovl
f 25/1/25 26/2/26 27/3/27
f 25/1/25 27/3/27 28/4/28
usemtl tex_2160_fl1_ds_w11_ovl
f 29/1/29 30/2/30 31/3/31
f 29/1/29 31/3/31 32/4/32
usemtl tex_776_sw0_0_lit_env_ds
f 33/5/33 34/6/34 35/7/35
f 34/6/34 36/8/36 35/7/35
f 37/9/37 36/8/36 38/10/38
f 38/10/38 36/8/36 34/6/34
f 39/11/39 40/12/40 37/9/37
f 37/9/37 40/12/40 36/8/36
f 40/12/40 41/13/41 36/8/36
f 41/13/41 35/7/35 36/8/36
f 42/14/42 43/15/43 34/6/34
f 34/6/34 33/5/33 42/14/42
f 38/10/38 43/15/43 44/16/44
f 38/10/38 34/6/34 43/15/43
f 41/13/41 43/15/43 42/14/42
f 41/13/41 40/12/40 43/15/43
f 44/16/44 40/12/40 39/11/39
f 43/15/43 40/12/40 44/16/44
usemtl tex_1795_sw1_0_lit_ds_w11
f 45/17/45 46/18/46 47/19/47
f 48/20/48 46/18/46 45/17/45
f 49/21/49 48/20/48 45/17/45
f 50/22/50 48/20/48 49/21/49
f 51/23/51 50/22/50 49/21/49
f 52/24/52 50/22/50 51/23/51
f 53/25/53 54/26/54 55/27/55
f 56/28/56 54/26/54 53/25/53
f 57/29/57 56/28/56 53/25/53
f 58/30/58 56/28/56 57/29/57
f 47/19/47 58/30/58 57/29/57
f 46/18/46 58/30/58 47/19/47
f 59/31/59 46/18/46 60/32/60
f 46/18/46 48/20/48 60/32/60
f 61/32/61 62/20/62 63/33/63
f 63/33/63 62/20/62 64/22/64
f 65/34/65 63/33/63 64/22/64
f 65/34/65 64/22/64 66/24/66
f 66/24/66 67/35/67 65/34/65
f 67/35/67 68/36/68 65/34/65
f 69/18/69 70/31/70 71/30/71
usemtl tex_1796_sw1_0_lit_ds_w11
f 72/37/72 73/38/73 74/39/74
f 74/39/74 73/38/73 75/40/75
f 74/39/74 75/40/75 76/41/76
f 77/41/77 78/40/78 79/42/79
f 77/41/77 79/42/79 80/43/80
f 80/43/80 79/42/79 81/44/81
f 80/43/80 81/44/81 82/45/82
f 82/45/82 81/44/81 83/46/83
f 82/45/82 83/46/83 84/47/84
f 84/47/84 83/46/83 85/48/85
f 84/47/84 85/48/85 86/49/86
f 86/49/86 85/48/85 87/50/87
f 86/49/86 87/50/87 88/51/88
f 88/51/88 87/50/87 89/52/89
f 88/51/88 89/52/89 90/37/90
f 90/37/90 89/52/89 91/38/91
f 92/39/92 93/53/93 94/54/94
f 95/41/95 93/53/93 92/39/92
f 96/43/96 93/53/93 95/41/95
f 92/39/92 94/54/94 97/37/97
f 94/54/94 98/51/98 97/37/97
f 93/53/93 96/43/96 99/45/99
f 100/47/100 93/53/93 99/45/99
f 101/49/101 93/53/93 100/47/100
f 94/54/94 93/53/93 101/49/101
f 94/54/94 101/49/101 98/51/98
usemtl tex_776_lit_env_ds
f 102/55/102 103/56/103 104/57/104
f 103/56/103 105/58/105 106/59/106
f 104/57/104 103/56/103 106/59/106
usemtl tex_1794_sw2_0_lit_ds_w11
f 107/60/107 108/61/108 109/62/109
f 109/62/109 108/61/108 110/63/110
f 108/61/108 111/64/111 110/63/110
f 112/65/112 113/66/113 114/67/114
f 115/68/115 116/67/116 117/69/117
f 118/70/118 112/65/112 115/68/115
f 115/68/115 112/65/112 116/67/116
f 119/71/119 115/68/115 120/72/120
f 115/68/115 117/69/117 120/72/120
f 114/67/114 113/66/113 121/73/121
f 113/66/113 122/74/122 121/73/121
f 123/73/123 124/74/124 125/75/125
f 126/76/126 127/70/127 128/71/128
f 128/71/128 127/70/127 129/68/129
usemtl tex_1795_sw2_0_lit_ds_w11
f 130/77/130 131/78/131 132/79/132
f 132/79/132 131/78/131 133/80/133
f 131/78/131 134/81/134 133/80/133
f 135/82/135 130/77/130 136/83/136
f 136/83/136 130/77/130 132/79/132
f 137/84/137 138/17/138 139/85/139
f 140/21/140 138/17/138 137/84/137
f 140/21/140 137/84/137 141/86/141
f 142/87/142 140/21/140 141/86/141
f 143/23/143 140/21/140 142/87/142
f 139/85/139 138/17/138 144/19/144
f 144/19/144 145/88/145 139/85/139
usemtl tex_1794_sw2_0_lit_ds_w11
f 146/89/146 147/90/147 148/91/148
f 149/92/149 147/90/147 146/89/146
f 150/93/150 149/92/149 146/89/146
f 151/94/151 149/92/149 150/93/150
f 152/95/152 151/94/151 150/93/150
f 153/96/153 154/94/154 155/95/155
f 156/97/156 157/98/157 158/99/158
f 159/100/159 157/98/157 156/97/156
f 160/101/160 159/100/159 156/97/156
f 161/102/161 159/100/159 160/101/160
f 162/91/162 161/102/161 160/101/160
f 163/90/163 161/102/161 162/91/162
f 164/103/164 165/104/165 166/89/166
f 167/105/167 164/103/164 162/91/162
f 164/103/164 166/89/166 162/91/162
f 168/106/168 169/107/169 170/97/170
f 171/107/171 168/106/168 170/97/170
f 168/106/168 172/108/172 169/107/169
f 168/106/168 173/109/173 172/108/172
f 174/89/174 175/104/175 176/93/176
f 176/93/176 175/104/175 177/69/177
f 177/69/177 178/95/178 176/93/176
f 178/95/178 177/69/177 179/67/179
usemtl tex_776_lit_env_ds
f 180/110/180 181/56/181 182/55/182
f 183/111/183 181/56/181 180/110/180
f 183/111/183 184/112/184 185/58/185
f 185/58/185 181/56/181 183/111/183
f 186/57/186 187/59/187 188/113/188
f 188/113/188 189/114/189 186/57/186
f 185/58/185 184/112/184 188/113/188
f 188/113/188 187/59/187 185/58/185
f 189/114/189 183/111/183 180/110/180
f 188/113/188 184/112/184 183/111/183
f 188/113/188 183/111/183 189/114/189
f 186/57/186 190/115/190 182/55/182
f 191/116/191 192/117/192 189/114/189
f 193/118/193 192/117/192 180/110/180
usemtl tex_1796_sw3_0_lit_ds_w11
f 194/119/194 195/120/195 196/121/196
f 197/122/197 195/120/195 198/123/198
f 198/123/198 195/120/195 194/119/194
f 199/124/199 195/120/195 200/125/200
f 200/125/200 195/120/195 197/122/197
f 200/125/200 197/122/197 201/126/201
f 201/126/201 197/122/197 202/127/202
f 201/126/201 202/127/202 203/128/203
f 203/128/203 202/127/202 204/129/204
f 203/128/203 204/129/204 205/130/205
f 205/130/205 204/129/204 206/131/206
f 205/130/205 206/131/206 207/132/207
f 207/132/207 206/131/206 208/133/208
f 207/132/207 208/133/208 209/134/209
f 210/134/210 211/133/211 212/135/212
f 210/134/210 212/135/212 213/136/213
f 213/136/213 212/135/212 214/137/214
f 213/136/213 214/137/214 215/124/215
f 215/124/215 214/137/214 216/120/216
f 217/125/217 218/138/218 219/139/219
f 220/126/220 218/138/218 217/125/217
f 221/128/221 218/138/218 220/126/220
f 217/125/217 219/139/219 215/124/215
f 219/139/219 213/136/213 215/124/215
f 218/138/218 221/128/221 222/130/222
f 223/132/223 218/138/218 222/130/222
f 210/134/210 218/138/218 223/132/223
f 219/139/219 218/138/218 210/134/210
f 219/139/219 210/134/210 213/136/213
usemtl tex_1795_sw3_1_lit_ds_w11
f 224/140/224 225/141/225 226/142/226
f 227/143/227 225/141/225 224/140/224
f 227/143/227 224/140/224 228/144/228
f 229/145/229 227/143/227 228/144/228
f 229/145/229 228/144/228 230/146/230
f 230/146/230 228/144/228 231/147/231
f 232/148/232 230/146/230 231/147/231
f 232/148/232 231/147/231 233/149/233
f 226/142/226 225/141/225 234/150/234
usemtl tex_1796_sw3_1_lit_ds_w11
f 235/151/235 236/152/236 237/153/237
f 237/153/237 236/152/236 238/154/238
f 237/153/237 238/154/238 239/155/239
f 240/155/240 241/154/241 242/156/242
f 240/155/240 242/156/242 243/157/243
f 243/157/243 242/156/242 244/158/244
f 243/157/243 244/158/244 245/159/245
f 245/159/245 244/158/244 246/160/246
f 245/159/245 247/160/247 248/161/248
f 248/161/248 246/160/246 249/162/249
f 248/161/248 249/162/249 250/163/250
f 250/163/250 249/162/249 251/164/251
f 250/163/250 251/164/251 252/165/252
f 252/165/252 251/164/251 253/166/253
f 252/165/252 253/166/253 254/151/254
f 254/151/254 253/166/253 255/152/255
f 256/153/256 257/167/257 258/168/258
f 259/155/259 257/167/257 256/153/256
f 260/157/260 257/167/257 259/155/259
f 256/153/256 258/168/258 261/151/261
f 258/168/258 262/165/262 261/151/261
f 257/167/257 260/157/260 263/159/263
f 264/161/264 257/167/257 263/159/263
f 265/163/265 257/167/257 264/161/264
f 258/168/258 257/167/257 265/163/265
f 258/168/258 265/163/265 262/165/262
f 266/169/266 267/170/267 268/171/268
f 269/172/269 267/170/267 266/169/266
f 269/172/269 266/169/266 270/173/270
f 271/174/271 269/172/269 270/173/270
f 271/174/271 270/173/270 272/175/272
f 273/176/273 271/174/271 272/175/272
f 273/176/273 272/175/272 274/177/274
f 275/178/275 273/176/273 274/177/274
f 268/171/268 267/170/267 276/179/276
f 277/180/277 267/170/267 278/181/278
f 278/181/278 267/170/267 269/172/269
f 278/181/278 269/172/269 279/182/279
f 279/182/279 269/172/269 271/174/271
f 279/182/279 271/174/271 280/183/280
f 280/183/280 271/174/271 273/176/273
f 280/183/280 273/176/273 281/184/281
f 281/184/281 273/176/273 275/178/275
f 282/184/282 283/178/283 284/185/284
f 284/185/284 283/178/283 285/186/285
f 284/185/284 285/186/285 286/187/286
f 286/187/286 285/186/285 287/188/287
f 286/187/286 287/188/287 288/189/288
f 288/189/288 287/188/287 289/179/289
f 288/189/288 289/179/289 290/180/290
f 290/180/290 289/179/289 291/170/291
f 292/181/292 293/190/293 294/191/294
f 295/182/295 293/190/293 292/181/292
f 296/183/296 293/190/293 295/182/295
f 297/181/297 298/191/298 299/180/299
f 298/191/298 300/189/300 301/180/301
f 302/190/302 303/183/303 304/184/304
f 305/185/305 302/190/302 304/184/304
f 306/187/306 307/190/307 305/185/305
f 298/191/298 307/190/307 306/187/306
f 298/191/298 306/187/306 300/189/300
usemtl tex_1795_sw4_0_lit_ds_w11
f 308/192/308 309/193/309 310/194/310
f 311/195/311 309/193/309 308/192/308
f 312/196/312 309/193/309 311/195/311
f 308/192/308 310/194/310 313/197/313
f 310/194/310 314/198/314 313/197/313
f 309/193/309 312/196/312 315/199/315
f 316/200/316 309/193/309 315/199/315
f 317/201/317 309/193/309 316/200/316
f 310/194/310 309/193/309 317/201/317
f 310/194/310 317/201/317 314/198/314
f 313/197/313 318/202/318 308/192/308
f 308/192/308 318/202/318 319/203/319
f 308/192/308 319/203/319 311/195/311
f 311/195/311 319/203/319 320/204/320
f 311/195/311 320/204/320 312/196/312
f 312/196/312 320/204/320 321/205/321
f 312/196/312 321/205/321 315/199/315
f 315/199/315 321/205/321 322/206/322
f 315/199/315 322/206/322 316/200/316
f 316/200/316 322/206/322 323/207/323
f 316/200/316 323/207/323 317/201/317
f 324/201/324 325/207/325 326/208/326
f 324/201/324 326/208/326 327/198/327
f 327/198/327 326/208/326 328/209/328
f 327/198/327 328/209/328 329/197/329
f 329/197/329 328/209/328 330/202/330
usemtl tex_1798_sw4_0_lit_ds_w11
f 331/210/331 332/211/332 333/212/333
f 333/212/333 332/211/332 334/213/334
f 333/212/333 334/213/334 335/214/335
f 335/214/335 334/213/334 336/215/336
f 335/214/335 336/215/336 337/216/337
f 337/216/337 336/215/336 338/215/338
f 339/217/339 340/218/340 341/210/341
f 341/210/341 340/218/340 342/211/342
f 339/217/339 343/219/343 344/217/344
f 345/220/345 343/219/343 339/217/339
f 345/220/345 339/217/339 341/210/341
f 345/220/345 341/210/341 346/221/346
f 347/222/347 346/221/346 348/212/348
f 346/221/346 341/210/341 348/212/348
f 349/223/349 347/222/347 350/214/350
f 350/214/350 351/216/351 349/223/349
f 348/212/348 350/214/350 347/222/347
usemtl tex_1797_sw4_0_lit_ds_w11
f 352/224/352 353/225/353 354/226/354
f 355/226/355 356/225/356 357/227/357
f 355/226/355 357/227/357 358/228/358
f 358/228/358 357/227/357 359/229/359
f 358/228/358 359/229/359 360/230/360
f 360/230/360 359/229/359 361/231/361
f 360/230/360 361/231/361 362/232/362
f 362/232/362 361/231/361 363/233/363
f 364/234/364 360/230/360 362/232/362
f 362/232/362 365/235/365 364/234/364
f 358/228/358 360/230/360 364/234/364
f 358/228/358 364/234/364 366/236/366
f 355/226/355 358/228/358 366/236/366
f 367/237/367 368/238/368 369/239/369
f 370/240/370 355/226/355 366/236/366
usemtl tex_776_lit_env_ds
f 371/241/371 372/242/372 373/243/373
f 373/243/373 374/244/374 371/241/371
f 373/243/373 375/11/375 374/244/374
f 372/242/372 376/245/376 377/246/377
f 377/246/377 373/243/373 372/242/372
f 373/243/373 377/246/377 378/247/378
f 378/247/378 379/248/379 373/243/373
f 377/246/377 376/245/376 380/249/380
f 380/249/380 381/250/381 377/246/377
f 381/250/381 378/247/378 377/246/377
f 372/242/372 371/241/371 380/249/380
f 380/249/380 376/245/376 372/242/372
f 381/250/381 374/244/374 375/11/375
f 381/250/381 375/11/375 382/251/382
f 383/251/383 384/251/384 380/249/380
f 383/251/383 380/249/380 371/241/371
f 385/252/385 386/253/386 387/254/387
f 385/252/385 388/255/388 386/253/386
f 385/252/385 389/256/389 388/255/388
f 385/252/385 387/254/387 390/257/390
f 389/256/389 385/252/385 390/257/390
f 390/257/390 388/255/388 389/256/389
f 391/258/391 392/259/392 393/260/393
f 394/261/394 392/259/392 391/258/391
f 395/262/395 394/261/394 391/258/391
f 396/263/396 394/261/394 395/262/395
f 397/264/397 396/263/396 395/262/395
f 398/265/398 396/263/396 397/264/397
f 399/266/399 398/265/398 397/264/397
f 400/267/400 398/265/398 399/266/399
f 401/268/401 400/267/400 399/266/399
f 402/269/402 400/267/400 401/268/401
f 403/270/403 402/269/402 401/268/401
f 404/271/404 402/269/402 403/270/403
f 405/272/405 404/271/404 403/270/403
f 406/273/406 404/271/404 405/272/405
f 407/274/407 408/273/408 409/272/409
f 410/275/410 408/273/408 407/274/407
f 410/275/410 411/259/411 408/273/408
f 411/259/411 412/261/412 408/273/408
f 413/271/413 408/273/408 412/261/412
f 412/261/412 414/263/414 413/271/413
f 415/269/415 413/271/413 414/263/414
f 414/263/414 416/265/416 415/269/415
f 417/267/417 415/269/415 416/265/416
f 409/272/409 418/260/418 407/274/407
f 409/272/409 419/258/419 418/260/418
f 409/272/409 420/270/420 419/258/419
f 420/270/420 421/262/421 419/258/419
f 420/270/420 422/268/422 421/262/421
f 423/268/423 424/264/424 425/262/425
f 423/268/423 426/266/426 424/264/424
f 427/276/427 428/277/428 429/278/429
f 430/279/430 431/280/431 432/253/432
f 432/253/432 433/281/433 430/279/430
f 428/277/428 427/276/427 431/280/431
f 431/280/431 430/279/430 428/277/428
f 430/279/430 434/260/434 435/259/435
f 435/259/435 428/277/428 430/279/430
f 429/278/429 436/275/436 437/274/437
f 429/278/429 437/274/437 433/281/433
f 432/253/432 438/282/438 429/278/429
f 429/278/429 433/281/433 432/253/432
f 427/276/427 429/278/429 438/282/438
f 439/283/439 440/284/440 441/282/441
f 442/285/442 439/283/439 441/282/441
f 443/286/443 442/285/442 444/287/444
f 443/286/443 439/283/439 442/285/442
f 443/286/443 445/288/445 440/284/440
f 440/284/440 439/283/439 443/286/443
f 441/282/441 445/288/445 446/289/446
f 441/282/441 440/284/440 445/288/445
f 446/289/446 445/288/445 443/286/443
f 446/289/446 443/286/443 444/287/444
usemtl tex_1794_sw5_0_lit_ds_w11
f 447/290/447 448/291/448 449/292/449
f 450/293/450 451/294/451 452/295/452
f 452/295/452 451/294/451 453/296/453
f 451/294/451 449/292/449 453/296/453
f 449/292/449 448/291/448 453/296/453
f 447/290/447 454/297/454 448/291/448
f 447/290/447 455/298/455 454/297/454
f 456/299/456 455/298/455 457/300/457
f 458/301/458 456/299/456 459/69/459
f 456/299/456 460/72/460 459/69/459
f 456/299/456 457/300/457 460/72/460
f 457/300/457 461/63/461 460/72/460
f 457/300/457 462/302/462 461/63/461
f 463/62/463 464/63/464 465/302/465
f 466/303/466 463/62/463 465/302/465
f 467/304/467 463/62/463 466/303/466
f 467/304/467 466/303/466 468/305/468
f 468/305/468 469/306/469 467/304/467
f 468/305/468 470/307/470 469/306/469
f 470/307/470 471/308/471 469/306/469
f 472/309/472 471/308/471 470/307/470
f 472/309/472 473/310/473 471/308/471
f 474/311/474 473/310/473 472/309/472
f 474/311/474 472/309/472 475/293/475
f 472/309/472 476/294/476 475/293/475
f 476/294/476 472/309/472 470/307/470
f 470/307/470 477/292/477 476/294/476
f 468/305/468 477/292/477 470/307/470
f 468/305/468 466/303/466 477/292/477
f 477/292/477 466/303/466 465/302/465
f 478/290/478 477/292/477 465/302/465
f 479/290/479 480/302/480 481/300/481
f 482/298/482 479/290/479 481/300/481
f 483/299/483 484/301/484 482/298/482
f 485/306/485 486/312/486 487/313/487
f 485/306/485 487/313/487 488/304/488
f 488/304/488 487/313/487 489/314/489
f 484/301/484 490/69/490 491/104/491
f 491/104/491 492/315/492 484/301/484
f 491/104/491 493/103/493 492/315/492
usemtl tex_1797_sw5_0_lit_ds_w11
f 494/316/494 495/317/495 496/318/496
f 496/318/496 495/317/495 497/319/497
f 495/317/495 498/320/498 497/319/497
f 498/320/498 499/321/499 497/319/497
f 498/320/498 500/322/500 499/321/499
f 500/322/500 501/323/501 499/321/499
f 494/316/494 502/324/502 503/325/503
f 503/325/503 502/324/502 504/326/504
f 502/324/502 505/327/505 504/326/504
f 506/328/506 507/329/507 508/330/508
f 506/328/506 508/330/508 509/331/509
f 510/330/510 511/332/511 512/331/512
f 511/332/511 513/333/513 512/331/512
usemtl tex_1797_sw5_0_lit_ds_w11_ovl
f 514/334/514 513/333/513 511/332/511
usemtl tex_1797_sw5_0_lit_ds_w11
f 514/334/514 515/335/515 513/333/513
f 514/334/514 516/325/516 515/335/515
f 516/325/516 517/336/517 515/335/515
f 516/325/516 518/326/518 517/336/517
f 517/336/517 518/326/518 519/337/519
f 518/326/518 520/338/520 519/337/519
f 521/327/521 520/338/520 518/326/518
f 521/327/521 522/339/522 520/338/520
f 522/339/522 523/340/523 520/338/520
f 522/339/522 524/341/524 523/340/523
f 525/329/525 526/322/526 527/320/527
f 527/320/527 528/330/528 525/329/525
f 527/320/527 529/317/529 528/330/528
f 528/330/528 529/317/529 530/332/530
f 529/317/529 531/334/531 530/332/530
f 529/317/529 532/316/532 531/334/531
f 532/316/532 533/325/533 531/334/531
usemtl tex_1798_sw7_0_lit_ds_w11
f 534/342/534 535/343/535 536/215/536
f 537/344/537 538/345/538 539/346/539
f 540/347/540 535/343/535 534/342/534
f 541/348/541 542/349/542 534/342/534
f 542/349/542 540/347/540 534/342/534
f 543/211/543 544/350/544 545/351/545
f 546/213/546 543/211/543 545/351/545
f 546/213/546 545/351/545 534/342/534
f 536/215/536 546/213/546 534/342/534
f 544/350/544 543/211/543 547/218/547
usemtl tex_1797_sw7_0_lit_ds_w11
f 548/352/548 549/353/549 550/233/550
f 548/352/548 550/233/550 551/231/551
f 548/352/548 551/231/551 552/229/552
f 552/229/552 553/354/553 548/352/548
f 552/229/552 554/227/554 553/354/553
f 553/354/553 554/227/554 555/339/555
f 556/225/556 555/339/555 554/227/554
f 557/355/557 555/339/555 556/225/556
usemtl tex_1794_sw7_0_lit_ds_w11
f 558/356/558 559/357/559 560/315/560
f 560/315/560 561/358/561 558/356/558
f 562/298/562 560/315/560 559/357/559
f 563/301/563 560/315/560 562/298/562
f 564/358/564 565/315/565 566/103/566
f 566/103/566 567/105/567 564/358/564
usemtl tex_1798_sw7_0_lit_ds_w11
f 568/359/568 569/348/569 570/342/570
f 570/342/570 571/360/571 568/359/568
f 572/351/572 571/360/571 570/342/570
f 573/350/573 571/360/571 572/351/572
usemtl tex_1797_sw7_0_lit_ds_w11
f 574/361/574 575/362/575 576/353/576
f 574/361/574 576/353/576 577/352/577
f 577/352/577 578/354/578 574/361/574
usemtl tex_1797_sw7_0_lit_ds_w11_ovl
f 574/361/574 578/354/578 579/324/579
usemtl tex_1797_sw7_0_lit_ds_w11
f 580/324/580 581/354/581 582/339/582
f 580/324/580 582/339/582 583/327/583
usemtl tex_1794_sw7_0_lit_ds_w11
f 584/363/584 585/297/585 586/298/586
usemtl tex_1797_sw7_0_lit_ds_w11
f 587/318/587 580/324/580 588/316/588
f 589/364/589 580/324/580 587/318/587
f 590/361/590 580/324/580 589/364/589
f 590/361/590 591/365/591 592/362/592
f 590/361/590 589/364/589 591/365/591
f 593/366/593 591/365/591 589/364/589
f 593/366/593 592/362/592 591/365/591
usemtl tex_1798_sw7_0_lit_ds_w11
f 594/367/594 595/360/595 596/368/596
f 595/360/595 597/369/597 596/368/596
f 594/367/594 598/359/598 595/360/595
f 598/359/598 594/367/594 599/348/599
usemtl tex_1794_sw7_0_lit_ds_w11
f 600/356/600 601/370/601 602/371/602
f 603/357/603 600/356/600 602/371/602
f 604/298/604 603/357/603 602/371/602
f 604/298/604 602/371/602 605/363/605
f 602/371/602 606/372/606 607/373/607
f 607/373/607 605/363/605 602/371/602
f 605/363/605 607/373/607 608/297/608
f 608/297/608 607/373/607 609/374/609
f 610/291/610 611/297/611 612/374/612
f 610/291/610 612/374/612 613/375/613
f 614/296/614 610/291/610 613/375/613
f 614/296/614 613/375/613 615/295/615
usemtl tex_1793_sw7_0_lit_ds_w11
f 616/376/616 617/377/617 618/378/618
usemtl tex_1797_sw7_0_lit_ds_w11
f 619/379/619 620/380/620 621/381/621
f 619/379/619 621/381/621 622/382/622
f 623/383/623 619/379/619 622/382/622
f 623/383/623 622/382/622 624/384/624
f 625/385/625 623/383/623 624/384/624
f 626/385/626 627/384/627 628/386/628
f 629/387/629 626/385/626 628/386/628
usemtl tex_1798_sw7_0_lit_ds_w11
f 630/369/630 631/388/631 632/368/632
f 631/388/631 633/367/633 632/368/632
f 634/389/634 631/388/631 635/390/635
usemtl tex_1794_sw7_0_lit_ds_w11
f 636/371/636 637/370/637 638/372/638
usemtl tex_1793_sw7_0_lit_ds_w11
f 639/391/639 640/376/640 641/378/641
usemtl tex_1796_sw7_0_lit_ds_w11
f 642/392/642 643/393/643 644/394/644
f 645/395/645 643/393/643 642/392/642
usemtl tex_1793_sw7_0_lit_ds_w11
f 646/396/646 647/397/647 648/398/648
f 649/399/649 647/397/647 646/396/646
f 650/400/650 649/399/649 646/396/646
f 651/401/651 649/399/649 650/400/650
f 652/402/652 651/401/651 650/400/650
f 653/403/653 651/401/651 652/402/652
f 654/404/654 653/403/653 652/402/652
f 655/376/655 653/403/653 654/404/654
f 656/405/656 655/376/655 654/404/654
f 657/377/657 655/376/655 656/405/656
usemtl tex_1796_sw7_0_lit_ds_w11
f 658/406/658 659/407/659 660/408/660
f 661/409/661 659/407/659 658/406/658
f 662/394/662 661/409/661 658/406/658
f 663/393/663 661/409/661 662/394/662
usemtl tex_776_lit_env_ds
f 664/118/664 665/110/665 666/55/666
f 666/55/666 667/410/667 664/118/664
f 666/55/666 668/115/668 667/410/667
