mtllib GsniperrifleZ.mtl
v 13.0 -67.0 -48.0 1.000 1.000 1.000
v -13.0 13.0 -21.0 1.000 1.000 1.000
v 13.0 13.0 -21.0 1.000 1.000 1.000
v -13.0 -67.0 -48.0 1.000 1.000 1.000
v 13.0 -80.0 5.0 1.000 1.000 1.000
v -13.0 -80.0 5.0 1.000 1.000 1.000
v 13.0 13.0 19.0 1.000 1.000 1.000
v -13.0 13.0 19.0 1.000 1.000 1.000
v -3.0 -9.0 16.0 1.000 1.000 1.000
v -3.0 -9.0 55.0 1.000 1.000 1.000
v 3.0 -9.0 16.0 1.000 1.000 1.000
v 3.0 -9.0 55.0 1.000 1.000 1.000
v -5.0 13.0 65.0 1.000 1.000 1.000
v 5.0 13.0 65.0 1.000 1.000 1.000
v -5.0 13.0 71.0 1.000 1.000 1.000
v -3.0 -13.0 58.0 1.000 1.000 1.000
v 3.0 -13.0 58.0 1.000 1.000 1.000
v 5.0 13.0 71.0 1.000 1.000 1.000
v 3.0 -16.0 14.0 1.000 1.000 1.000
v -3.0 -16.0 14.0 1.000 1.000 1.000
v 3.0 -13.0 58.0 1.000 1.000 1.000
v 3.0 -9.0 55.0 1.000 1.000 1.000
v 3.0 -9.0 16.0 1.000 1.000 1.000
v 3.0 -16.0 14.0 1.000 1.000 1.000
v 9.0 63.0 245.0 1.000 1.000 1.000
v 13.0 53.0 538.0 1.000 1.000 1.000
v 13.0 53.0 245.0 1.000 1.000 1.000
v 9.0 63.0 538.0 1.000 1.000 1.000
v 0.0 67.0 245.0 1.000 1.000 1.000
v 0.0 67.0 538.0 1.000 1.000 1.000
v 0.0 67.0 245.0 1.000 1.000 1.000
v -9.0 63.0 245.0 1.000 1.000 1.000
v 0.0 67.0 245.0 1.000 1.000 1.000
v -9.0 63.0 538.0 1.000 1.000 1.000
v -13.0 53.0 245.0 1.000 1.000 1.000
v -13.0 53.0 538.0 1.000 1.000 1.000
v -9.0 44.0 245.0 1.000 1.000 1.000
v -9.0 44.0 538.0 1.000 1.000 1.000
v 0.0 40.0 245.0 1.000 1.000 1.000
v 0.0 40.0 538.0 1.000 1.000 1.000
v -9.0 44.0 538.0 1.000 1.000 1.000
v 0.0 40.0 245.0 1.000 1.000 1.000
v 9.0 44.0 245.0 1.000 1.000 1.000
v 0.0 40.0 245.0 1.000 1.000 1.000
v 9.0 44.0 538.0 1.000 1.000 1.000
v 13.0 53.0 245.0 1.000 1.000 1.000
v 13.0 53.0 538.0 1.000 1.000 1.000
v 19.0 72.0 538.0 1.000 1.000 1.000
v 27.0 53.0 804.0 1.000 1.000 1.000
v 27.0 53.0 538.0 1.000 1.000 1.000
v 19.0 72.0 804.0 1.000 1.000 1.000
v 0.0 80.0 538.0 1.000 1.000 1.000
v 0.0 80.0 804.0 1.000 1.000 1.000
v 0.0 80.0 538.0 1.000 1.000 1.000
v -19.0 72.0 538.0 1.000 1.000 1.000
v 0.0 80.0 538.0 1.000 1.000 1.000
v -19.0 72.0 804.0 1.000 1.000 1.000
v -27.0 53.0 538.0 1.000 1.000 1.000
v -27.0 53.0 804.0 1.000 1.000 1.000
v -19.0 34.0 538.0 1.000 1.000 1.000
v -19.0 34.0 804.0 1.000 1.000 1.000
v 0.0 27.0 538.0 1.000 1.000 1.000
v 0.0 27.0 804.0 1.000 1.000 1.000
v -19.0 34.0 804.0 1.000 1.000 1.000
v 0.0 27.0 538.0 1.000 1.000 1.000
v 19.0 34.0 538.0 1.000 1.000 1.000
v 0.0 27.0 538.0 1.000 1.000 1.000
v 19.0 34.0 804.0 1.000 1.000 1.000
v 27.0 53.0 538.0 1.000 1.000 1.000
v 27.0 53.0 804.0 1.000 1.000 1.000
v 0.0 53.0 538.0 1.000 1.000 1.000
v 27.0 53.0 538.0 1.000 1.000 1.000
v 0.0 27.0 538.0 1.000 1.000 1.000
v -19.0 34.0 538.0 1.000 1.000 1.000
v 0.0 53.0 538.0 1.000 1.000 1.000
v 0.0 27.0 538.0 1.000 1.000 1.000
v -27.0 53.0 538.0 1.000 1.000 1.000
v -19.0 72.0 538.0 1.000 1.000 1.000
v 0.0 80.0 538.0 1.000 1.000 1.000
v 0.0 53.0 538.0 1.000 1.000 1.000
v -19.0 72.0 538.0 1.000 1.000 1.000
v 19.0 72.0 538.0 1.000 1.000 1.000
v 0.0 53.0 538.0 1.000 1.000 1.000
v 0.0 80.0 538.0 1.000 1.000 1.000
v 27.0 53.0 538.0 1.000 1.000 1.000
v 19.0 72.0 804.0 1.000 1.000 1.000
v 0.0 53.0 804.0 1.000 1.000 1.000
v 27.0 53.0 804.0 1.000 1.000 1.000
v 0.0 80.0 804.0 1.000 1.000 1.000
v -19.0 72.0 804.0 1.000 1.000 1.000
v -27.0 53.0 804.0 1.000 1.000 1.000
v -19.0 34.0 804.0 1.000 1.000 1.000
v 0.0 27.0 804.0 1.000 1.000 1.000
v 19.0 34.0 804.0 1.000 1.000 1.000
v 13.0 67.0 245.0 1.000 1.000 1.000
v -13.0 67.0 245.0 1.000 1.000 1.000
v 13.0 27.0 285.0 1.000 1.000 1.000
v -13.0 27.0 285.0 1.000 1.000 1.000
v 13.0 13.0 272.0 1.000 1.000 1.000
v -13.0 13.0 272.0 1.000 1.000 1.000
v 13.0 13.0 -21.0 1.000 1.000 1.000
v -13.0 13.0 -21.0 1.000 1.000 1.000
v 13.0 53.0 -61.0 1.000 1.000 1.000
v -13.0 53.0 -61.0 1.000 1.000 1.000
v 13.0 67.0 -61.0 1.000 1.000 1.000
v -13.0 67.0 -61.0 1.000 1.000 1.000
v 13.0 27.0 285.0 1.000 1.000 1.000
v 27.0 59.0 232.0 1.000 1.000 1.000
v 13.0 67.0 245.0 1.000 1.000 1.000
v 27.0 31.0 268.0 1.000 1.000 1.000
v 13.0 13.0 272.0 1.000 1.000 1.000
v 27.0 31.0 268.0 1.000 1.000 1.000
v 13.0 27.0 285.0 1.000 1.000 1.000
v 27.0 21.0 256.0 1.000 1.000 1.000
v 13.0 13.0 -21.0 1.000 1.000 1.000
v 27.0 21.0 -8.0 1.000 1.000 1.000
v 13.0 53.0 -61.0 1.000 1.000 1.000
v 27.0 49.0 -44.0 1.000 1.000 1.000
v 13.0 67.0 -61.0 1.000 1.000 1.000
v 27.0 59.0 -44.0 1.000 1.000 1.000
v 13.0 67.0 245.0 1.000 1.000 1.000
v 27.0 59.0 232.0 1.000 1.000 1.000
v -13.0 67.0 245.0 1.000 1.000 1.000
v -27.0 59.0 232.0 1.000 1.000 1.000
v -13.0 27.0 285.0 1.000 1.000 1.000
v -27.0 31.0 268.0 1.000 1.000 1.000
v -13.0 27.0 285.0 1.000 1.000 1.000
v -27.0 31.0 268.0 1.000 1.000 1.000
v -13.0 13.0 272.0 1.000 1.000 1.000
v -27.0 21.0 256.0 1.000 1.000 1.000
v -13.0 13.0 -21.0 1.000 1.000 1.000
v -27.0 21.0 -8.0 1.000 1.000 1.000
v -13.0 53.0 -61.0 1.000 1.000 1.000
v -27.0 49.0 -44.0 1.000 1.000 1.000
v -13.0 67.0 -61.0 1.000 1.000 1.000
v -27.0 59.0 -44.0 1.000 1.000 1.000
v -13.0 67.0 245.0 1.000 1.000 1.000
v -27.0 59.0 232.0 1.000 1.000 1.000
v 27.0 31.0 268.0 1.000 1.000 1.000
v 27.0 59.0 -44.0 1.000 1.000 1.000
v 27.0 59.0 232.0 1.000 1.000 1.000
v 27.0 21.0 256.0 1.000 1.000 1.000
v 27.0 59.0 -44.0 1.000 1.000 1.000
v 27.0 21.0 256.0 1.000 1.000 1.000
v 27.0 21.0 -8.0 1.000 1.000 1.000
v 27.0 49.0 -44.0 1.000 1.000 1.000
v -27.0 59.0 232.0 1.000 1.000 1.000
v -27.0 59.0 -44.0 1.000 1.000 1.000
v -27.0 31.0 268.0 1.000 1.000 1.000
v -27.0 21.0 256.0 1.000 1.000 1.000
v -27.0 21.0 -8.0 1.000 1.000 1.000
v -27.0 49.0 -44.0 1.000 1.000 1.000
v -13.0 67.0 272.0 1.000 1.000 1.000
v 13.0 67.0 272.0 1.000 1.000 1.000
v -13.0 80.0 272.0 1.000 1.000 1.000
v 13.0 80.0 272.0 1.000 1.000 1.000
v -13.0 93.0 245.0 1.000 1.000 1.000
v 13.0 93.0 245.0 1.000 1.000 1.000
v -13.0 93.0 -35.0 1.000 1.000 1.000
v 13.0 93.0 -35.0 1.000 1.000 1.000
v -13.0 67.0 -61.0 1.000 1.000 1.000
v 13.0 67.0 -61.0 1.000 1.000 1.000
v 13.0 93.0 -35.0 1.000 1.000 1.000
v 13.0 93.0 245.0 1.000 1.000 1.000
v 13.0 80.0 272.0 1.000 1.000 1.000
v 13.0 67.0 272.0 1.000 1.000 1.000
v 13.0 67.0 -61.0 1.000 1.000 1.000
v -13.0 93.0 -35.0 1.000 1.000 1.000
v -13.0 67.0 272.0 1.000 1.000 1.000
v -13.0 80.0 272.0 1.000 1.000 1.000
v -13.0 93.0 245.0 1.000 1.000 1.000
v -13.0 67.0 -61.0 1.000 1.000 1.000
v 30.0 143.0 -128.0 1.000 1.000 1.000
v 37.0 126.0 -75.0 1.000 1.000 1.000
v 37.0 126.0 -128.0 1.000 1.000 1.000
v 30.0 143.0 -75.0 1.000 1.000 1.000
v 30.0 143.0 -75.0 1.000 1.000 1.000
v 37.0 126.0 -61.0 1.000 1.000 1.000
v 37.0 126.0 -75.0 1.000 1.000 1.000
v 30.0 143.0 -61.0 1.000 1.000 1.000
v 30.0 143.0 -61.0 1.000 1.000 1.000
v 46.0 126.0 -8.0 1.000 1.000 1.000
v 37.0 126.0 -61.0 1.000 1.000 1.000
v 37.0 150.0 -8.0 1.000 1.000 1.000
v 37.0 150.0 27.0 1.000 1.000 1.000
v 47.0 126.0 138.0 1.000 1.000 1.000
v 47.0 126.0 27.0 1.000 1.000 1.000
v 37.0 150.0 138.0 1.000 1.000 1.000
v 13.0 150.0 -128.0 1.000 1.000 1.000
v 30.0 143.0 -75.0 1.000 1.000 1.000
v 30.0 143.0 -128.0 1.000 1.000 1.000
v 13.0 150.0 -75.0 1.000 1.000 1.000
v 13.0 150.0 -128.0 1.000 1.000 1.000
v 13.0 150.0 -75.0 1.000 1.000 1.000
v 30.0 143.0 -61.0 1.000 1.000 1.000
v 30.0 143.0 -75.0 1.000 1.000 1.000
v 13.0 150.0 -61.0 1.000 1.000 1.000
v 13.0 150.0 -61.0 1.000 1.000 1.000
v 37.0 150.0 -8.0 1.000 1.000 1.000
v 30.0 143.0 -61.0 1.000 1.000 1.000
v 13.0 159.0 -8.0 1.000 1.000 1.000
v 13.0 160.0 27.0 1.000 1.000 1.000
v 37.0 150.0 138.0 1.000 1.000 1.000
v 37.0 150.0 27.0 1.000 1.000 1.000
v 13.0 160.0 138.0 1.000 1.000 1.000
v 37.0 150.0 138.0 1.000 1.000 1.000
v 13.0 160.0 27.0 1.000 1.000 1.000
v -3.0 143.0 -128.0 1.000 1.000 1.000
v 13.0 150.0 -75.0 1.000 1.000 1.000
v 13.0 150.0 -128.0 1.000 1.000 1.000
v -3.0 143.0 -75.0 1.000 1.000 1.000
v -3.0 143.0 -75.0 1.000 1.000 1.000
v 13.0 150.0 -61.0 1.000 1.000 1.000
v 13.0 150.0 -75.0 1.000 1.000 1.000
v -3.0 143.0 -61.0 1.000 1.000 1.000
v -3.0 143.0 -61.0 1.000 1.000 1.000
v 13.0 159.0 -8.0 1.000 1.000 1.000
v 13.0 150.0 -61.0 1.000 1.000 1.000
v -10.0 150.0 -8.0 1.000 1.000 1.000
v -10.0 150.0 27.0 1.000 1.000 1.000
v -10.0 150.0 138.0 1.000 1.000 1.000
v 13.0 160.0 138.0 1.000 1.000 1.000
v -10.0 150.0 27.0 1.000 1.000 1.000
v -10.0 126.0 -128.0 1.000 1.000 1.000
v -3.0 143.0 -75.0 1.000 1.000 1.000
v -3.0 143.0 -128.0 1.000 1.000 1.000
v -10.0 126.0 -75.0 1.000 1.000 1.000
v -10.0 126.0 -75.0 1.000 1.000 1.000
v -3.0 143.0 -61.0 1.000 1.000 1.000
v -3.0 143.0 -75.0 1.000 1.000 1.000
v -10.0 126.0 -61.0 1.000 1.000 1.000
v -10.0 126.0 -61.0 1.000 1.000 1.000
v -10.0 150.0 -8.0 1.000 1.000 1.000
v -3.0 143.0 -61.0 1.000 1.000 1.000
v -20.0 126.0 -8.0 1.000 1.000 1.000
v -20.0 126.0 27.0 1.000 1.000 1.000
v -20.0 126.0 138.0 1.000 1.000 1.000
v -10.0 150.0 138.0 1.000 1.000 1.000
v -20.0 126.0 27.0 1.000 1.000 1.000
v -3.0 110.0 -128.0 1.000 1.000 1.000
v -10.0 126.0 -75.0 1.000 1.000 1.000
v -10.0 126.0 -128.0 1.000 1.000 1.000
v -3.0 110.0 -75.0 1.000 1.000 1.000
v -3.0 110.0 -75.0 1.000 1.000 1.000
v -10.0 126.0 -61.0 1.000 1.000 1.000
v -10.0 126.0 -75.0 1.000 1.000 1.000
v -3.0 110.0 -61.0 1.000 1.000 1.000
v -3.0 110.0 -61.0 1.000 1.000 1.000
v -20.0 126.0 -8.0 1.000 1.000 1.000
v -10.0 126.0 -61.0 1.000 1.000 1.000
v -10.0 103.0 -8.0 1.000 1.000 1.000
v -10.0 103.0 27.0 1.000 1.000 1.000
v -10.0 103.0 138.0 1.000 1.000 1.000
v -20.0 126.0 138.0 1.000 1.000 1.000
v -10.0 103.0 27.0 1.000 1.000 1.000
v 13.0 103.0 -128.0 1.000 1.000 1.000
v -3.0 110.0 -75.0 1.000 1.000 1.000
v -3.0 110.0 -128.0 1.000 1.000 1.000
v 13.0 103.0 -75.0 1.000 1.000 1.000
v 13.0 103.0 -128.0 1.000 1.000 1.000
v 13.0 103.0 -75.0 1.000 1.000 1.000
v -3.0 110.0 -61.0 1.000 1.000 1.000
v -3.0 110.0 -75.0 1.000 1.000 1.000
v 13.0 103.0 -61.0 1.000 1.000 1.000
v 13.0 103.0 -61.0 1.000 1.000 1.000
v -10.0 103.0 -8.0 1.000 1.000 1.000
v -3.0 110.0 -61.0 1.000 1.000 1.000
v 13.0 94.0 -8.0 1.000 1.000 1.000
v 13.0 93.0 27.0 1.000 1.000 1.000
v -10.0 103.0 138.0 1.000 1.000 1.000
v -10.0 103.0 27.0 1.000 1.000 1.000
v 13.0 93.0 138.0 1.000 1.000 1.000
v 30.0 110.0 -128.0 1.000 1.000 1.000
v 13.0 103.0 -75.0 1.000 1.000 1.000
v 13.0 103.0 -128.0 1.000 1.000 1.000
v 30.0 110.0 -75.0 1.000 1.000 1.000
v 30.0 110.0 -75.0 1.000 1.000 1.000
v 13.0 103.0 -61.0 1.000 1.000 1.000
v 13.0 103.0 -75.0 1.000 1.000 1.000
v 30.0 110.0 -61.0 1.000 1.000 1.000
v 30.0 110.0 -61.0 1.000 1.000 1.000
v 13.0 94.0 -8.0 1.000 1.000 1.000
v 13.0 103.0 -61.0 1.000 1.000 1.000
v 37.0 103.0 -8.0 1.000 1.000 1.000
v 37.0 103.0 27.0 1.000 1.000 1.000
v 13.0 93.0 138.0 1.000 1.000 1.000
v 13.0 93.0 27.0 1.000 1.000 1.000
v 37.0 103.0 138.0 1.000 1.000 1.000
v 37.0 126.0 -128.0 1.000 1.000 1.000
v 30.0 110.0 -75.0 1.000 1.000 1.000
v 30.0 110.0 -128.0 1.000 1.000 1.000
v 37.0 126.0 -75.0 1.000 1.000 1.000
v 37.0 126.0 -75.0 1.000 1.000 1.000
v 30.0 110.0 -61.0 1.000 1.000 1.000
v 30.0 110.0 -75.0 1.000 1.000 1.000
v 37.0 126.0 -61.0 1.000 1.000 1.000
v 37.0 126.0 -61.0 1.000 1.000 1.000
v 37.0 103.0 -8.0 1.000 1.000 1.000
v 30.0 110.0 -61.0 1.000 1.000 1.000
v 46.0 126.0 -8.0 1.000 1.000 1.000
v 47.0 126.0 27.0 1.000 1.000 1.000
v 37.0 103.0 138.0 1.000 1.000 1.000
v 37.0 103.0 27.0 1.000 1.000 1.000
v 47.0 126.0 138.0 1.000 1.000 1.000
v 37.0 150.0 -8.0 1.000 1.000 1.000
v 47.0 126.0 27.0 1.000 1.000 1.000
v 46.0 126.0 -8.0 1.000 1.000 1.000
v 37.0 150.0 27.0 1.000 1.000 1.000
v 13.0 159.0 -8.0 1.000 1.000 1.000
v 13.0 160.0 27.0 1.000 1.000 1.000
v -10.0 150.0 -8.0 1.000 1.000 1.000
v -10.0 150.0 27.0 1.000 1.000 1.000
v -20.0 126.0 -8.0 1.000 1.000 1.000
v -20.0 126.0 27.0 1.000 1.000 1.000
v -10.0 103.0 -8.0 1.000 1.000 1.000
v -10.0 103.0 27.0 1.000 1.000 1.000
v 13.0 94.0 -8.0 1.000 1.000 1.000
v -10.0 103.0 27.0 1.000 1.000 1.000
v -10.0 103.0 -8.0 1.000 1.000 1.000
v 13.0 93.0 27.0 1.000 1.000 1.000
v 37.0 103.0 -8.0 1.000 1.000 1.000
v 13.0 93.0 27.0 1.000 1.000 1.000
v 13.0 94.0 -8.0 1.000 1.000 1.000
v 37.0 103.0 27.0 1.000 1.000 1.000
v 46.0 126.0 -8.0 1.000 1.000 1.000
v 47.0 126.0 27.0 1.000 1.000 1.000
v 30.0 110.0 -128.0 1.000 1.000 1.000
v 13.0 126.0 -128.0 1.000 1.000 1.000
v 37.0 126.0 -128.0 1.000 1.000 1.000
v 13.0 103.0 -128.0 1.000 1.000 1.000
v -3.0 110.0 -128.0 1.000 1.000 1.000
v -10.0 126.0 -128.0 1.000 1.000 1.000
v -3.0 143.0 -128.0 1.000 1.000 1.000
v 13.0 126.0 -128.0 1.000 1.000 1.000
v -10.0 126.0 -128.0 1.000 1.000 1.000
v 13.0 150.0 -128.0 1.000 1.000 1.000
v 30.0 143.0 -128.0 1.000 1.000 1.000
v 37.0 126.0 -128.0 1.000 1.000 1.000
v 37.0 150.0 138.0 1.000 1.000 1.000
v 13.0 126.0 138.0 1.000 1.000 1.000
v 47.0 126.0 138.0 1.000 1.000 1.000
v 13.0 160.0 138.0 1.000 1.000 1.000
v -10.0 150.0 138.0 1.000 1.000 1.000
v -20.0 126.0 138.0 1.000 1.000 1.000
v -10.0 103.0 138.0 1.000 1.000 1.000
v 13.0 93.0 138.0 1.000 1.000 1.000
v 37.0 103.0 138.0 1.000 1.000 1.000
v -19.0 107.0 -48.0 1.000 1.000 1.000
v -13.0 93.0 85.0 1.000 1.000 1.000
v -13.0 93.0 -48.0 1.000 1.000 1.000
v -19.0 107.0 85.0 1.000 1.000 1.000
v -19.0 107.0 112.0 1.000 1.000 1.000
v -13.0 93.0 192.0 1.000 1.000 1.000
v -13.0 93.0 112.0 1.000 1.000 1.000
v -19.0 107.0 192.0 1.000 1.000 1.000
v -19.0 107.0 192.0 1.000 1.000 1.000
v -13.0 93.0 218.0 1.000 1.000 1.000
v -13.0 93.0 192.0 1.000 1.000 1.000
v -19.0 107.0 218.0 1.000 1.000 1.000
v -33.0 113.0 -48.0 1.000 1.000 1.000
v -33.0 113.0 85.0 1.000 1.000 1.000
v -33.0 113.0 -48.0 1.000 1.000 1.000
v -33.0 113.0 112.0 1.000 1.000 1.000
v -33.0 113.0 192.0 1.000 1.000 1.000
v -19.0 107.0 192.0 1.000 1.000 1.000
v -33.0 113.0 112.0 1.000 1.000 1.000
v -33.0 113.0 192.0 1.000 1.000 1.000
v -19.0 107.0 218.0 1.000 1.000 1.000
v -19.0 107.0 192.0 1.000 1.000 1.000
v -33.0 113.0 218.0 1.000 1.000 1.000
v -47.0 107.0 -48.0 1.000 1.000 1.000
v -33.0 113.0 85.0 1.000 1.000 1.000
v -33.0 113.0 -48.0 1.000 1.000 1.000
v -47.0 107.0 85.0 1.000 1.000 1.000
v -47.0 107.0 112.0 1.000 1.000 1.000
v -47.0 107.0 192.0 1.000 1.000 1.000
v -47.0 107.0 192.0 1.000 1.000 1.000
v -47.0 107.0 218.0 1.000 1.000 1.000
v -53.0 93.0 -48.0 1.000 1.000 1.000
v -53.0 93.0 85.0 1.000 1.000 1.000
v -47.0 107.0 85.0 1.000 1.000 1.000
v -53.0 93.0 -48.0 1.000 1.000 1.000
v -53.0 93.0 112.0 1.000 1.000 1.000
v -47.0 107.0 192.0 1.000 1.000 1.000
v -47.0 107.0 112.0 1.000 1.000 1.000
v -53.0 93.0 192.0 1.000 1.000 1.000
v -53.0 93.0 192.0 1.000 1.000 1.000
v -47.0 107.0 218.0 1.000 1.000 1.000
v -47.0 107.0 192.0 1.000 1.000 1.000
v -53.0 93.0 218.0 1.000 1.000 1.000
v -47.0 79.0 -48.0 1.000 1.000 1.000
v -47.0 79.0 85.0 1.000 1.000 1.000
v -47.0 79.0 112.0 1.000 1.000 1.000
v -47.0 79.0 192.0 1.000 1.000 1.000
v -47.0 79.0 192.0 1.000 1.000 1.000
v -47.0 79.0 218.0 1.000 1.000 1.000
v -53.0 93.0 218.0 1.000 1.000 1.000
v -47.0 79.0 192.0 1.000 1.000 1.000
v -33.0 73.0 -48.0 1.000 1.000 1.000
v -47.0 79.0 85.0 1.000 1.000 1.000
v -47.0 79.0 -48.0 1.000 1.000 1.000
v -33.0 73.0 85.0 1.000 1.000 1.000
v -33.0 73.0 -48.0 1.000 1.000 1.000
v -33.0 73.0 112.0 1.000 1.000 1.000
v -47.0 79.0 192.0 1.000 1.000 1.000
v -47.0 79.0 112.0 1.000 1.000 1.000
v -33.0 73.0 192.0 1.000 1.000 1.000
v -33.0 73.0 192.0 1.000 1.000 1.000
v -33.0 73.0 218.0 1.000 1.000 1.000
v -19.0 79.0 -48.0 1.000 1.000 1.000
v -33.0 73.0 -48.0 1.000 1.000 1.000
v -19.0 79.0 85.0 1.000 1.000 1.000
v -33.0 73.0 85.0 1.000 1.000 1.000
v -19.0 79.0 -48.0 1.000 1.000 1.000
v -19.0 79.0 112.0 1.000 1.000 1.000
v -33.0 73.0 192.0 1.000 1.000 1.000
v -33.0 73.0 112.0 1.000 1.000 1.000
v -19.0 79.0 192.0 1.000 1.000 1.000
v -19.0 79.0 192.0 1.000 1.000 1.000
v -33.0 73.0 218.0 1.000 1.000 1.000
v -33.0 73.0 192.0 1.000 1.000 1.000
v -19.0 79.0 218.0 1.000 1.000 1.000
v -13.0 93.0 -48.0 1.000 1.000 1.000
v -13.0 93.0 85.0 1.000 1.000 1.000
v -13.0 93.0 112.0 1.000 1.000 1.000
v -13.0 93.0 192.0 1.000 1.000 1.000
v -13.0 93.0 192.0 1.000 1.000 1.000
v -13.0 93.0 218.0 1.000 1.000 1.000
v -19.0 79.0 218.0 1.000 1.000 1.000
v -13.0 93.0 192.0 1.000 1.000 1.000
v -19.0 107.0 85.0 1.000 1.000 1.000
v -13.0 93.0 112.0 1.000 1.000 1.000
v -13.0 93.0 85.0 1.000 1.000 1.000
v -19.0 107.0 112.0 1.000 1.000 1.000
v -33.0 113.0 85.0 1.000 1.000 1.000
v -33.0 113.0 112.0 1.000 1.000 1.000
v -47.0 107.0 85.0 1.000 1.000 1.000
v -47.0 107.0 112.0 1.000 1.000 1.000
v -53.0 93.0 85.0 1.000 1.000 1.000
v -53.0 93.0 112.0 1.000 1.000 1.000
v -47.0 79.0 85.0 1.000 1.000 1.000
v -47.0 79.0 112.0 1.000 1.000 1.000
v -33.0 73.0 85.0 1.000 1.000 1.000
v -33.0 73.0 112.0 1.000 1.000 1.000
v -47.0 79.0 112.0 1.000 1.000 1.000
v -33.0 73.0 85.0 1.000 1.000 1.000
v -19.0 79.0 85.0 1.000 1.000 1.000
v -33.0 73.0 112.0 1.000 1.000 1.000
v -33.0 73.0 85.0 1.000 1.000 1.000
v -19.0 79.0 112.0 1.000 1.000 1.000
v -13.0 93.0 85.0 1.000 1.000 1.000
v -13.0 93.0 112.0 1.000 1.000 1.000
v -19.0 79.0 -48.0 1.000 1.000 1.000
v -33.0 93.0 -48.0 1.000 1.000 1.000
v -13.0 93.0 -48.0 1.000 1.000 1.000
v -33.0 73.0 -48.0 1.000 1.000 1.000
v -47.0 79.0 -48.0 1.000 1.000 1.000
v -53.0 93.0 -48.0 1.000 1.000 1.000
v -47.0 107.0 -48.0 1.000 1.000 1.000
v -33.0 113.0 -48.0 1.000 1.000 1.000
v -33.0 93.0 -48.0 1.000 1.000 1.000
v -47.0 107.0 -48.0 1.000 1.000 1.000
v -19.0 107.0 -48.0 1.000 1.000 1.000
v -13.0 93.0 -48.0 1.000 1.000 1.000
v -19.0 107.0 218.0 1.000 1.000 1.000
v -33.0 93.0 218.0 1.000 1.000 1.000
v -13.0 93.0 218.0 1.000 1.000 1.000
v -33.0 113.0 218.0 1.000 1.000 1.000
v -47.0 107.0 218.0 1.000 1.000 1.000
v -53.0 93.0 218.0 1.000 1.000 1.000
v -47.0 79.0 218.0 1.000 1.000 1.000
v -33.0 73.0 218.0 1.000 1.000 1.000
v -19.0 79.0 218.0 1.000 1.000 1.000
v -13.0 80.0 -88.0 1.000 1.000 1.000
v 13.0 80.0 -88.0 1.000 1.000 1.000
v -13.0 93.0 -101.0 1.000 1.000 1.000
v 13.0 93.0 -101.0 1.000 1.000 1.000
v -13.0 93.0 -261.0 1.000 1.000 1.000
v 13.0 93.0 -261.0 1.000 1.000 1.000
v -13.0 80.0 -288.0 1.000 1.000 1.000
v 13.0 80.0 -288.0 1.000 1.000 1.000
v -13.0 80.0 -288.0 1.000 1.000 1.000
v 13.0 80.0 -288.0 1.000 1.000 1.000
v -13.0 80.0 -88.0 1.000 1.000 1.000
v 13.0 80.0 -88.0 1.000 1.000 1.000
v 13.0 93.0 -261.0 1.000 1.000 1.000
v 13.0 93.0 -101.0 1.000 1.000 1.000
v -13.0 93.0 -101.0 1.000 1.000 1.000
v -13.0 93.0 -261.0 1.000 1.000 1.000
v 13.0 80.0 -88.0 1.000 1.000 1.000
v -13.0 67.0 -75.0 1.000 1.000 1.000
v 13.0 67.0 -75.0 1.000 1.000 1.000
v -13.0 80.0 -88.0 1.000 1.000 1.000
v 13.0 80.0 -261.0 1.000 1.000 1.000
v -13.0 80.0 -261.0 1.000 1.000 1.000
v 13.0 -13.0 -88.0 1.000 1.000 1.000
v -13.0 -27.0 -261.0 1.000 1.000 1.000
v 13.0 -27.0 -261.0 1.000 1.000 1.000
v -13.0 -13.0 -88.0 1.000 1.000 1.000
v 13.0 0.0 -75.0 1.000 1.000 1.000
v -13.0 0.0 -75.0 1.000 1.000 1.000
v 13.0 67.0 -75.0 1.000 1.000 1.000
v 27.0 59.0 -93.0 1.000 1.000 1.000
v 13.0 80.0 -88.0 1.000 1.000 1.000
v 27.0 69.0 -104.0 1.000 1.000 1.000
v 13.0 80.0 -88.0 1.000 1.000 1.000
v 27.0 69.0 -104.0 1.000 1.000 1.000
v 13.0 80.0 -261.0 1.000 1.000 1.000
v 27.0 69.0 -242.0 1.000 1.000 1.000
v 13.0 -27.0 -261.0 1.000 1.000 1.000
v 27.0 -16.0 -242.0 1.000 1.000 1.000
v 13.0 -13.0 -88.0 1.000 1.000 1.000
v 27.0 -5.0 -104.0 1.000 1.000 1.000
v 13.0 0.0 -75.0 1.000 1.000 1.000
v 27.0 5.0 -93.0 1.000 1.000 1.000
v 13.0 67.0 -75.0 1.000 1.000 1.000
v 27.0 59.0 -93.0 1.000 1.000 1.000
v -27.0 59.0 -93.0 1.000 1.000 1.000
v -13.0 67.0 -75.0 1.000 1.000 1.000
v -27.0 69.0 -104.0 1.000 1.000 1.000
v -13.0 80.0 -88.0 1.000 1.000 1.000
v -27.0 69.0 -104.0 1.000 1.000 1.000
v -13.0 80.0 -88.0 1.000 1.000 1.000
v -27.0 69.0 -242.0 1.000 1.000 1.000
v -13.0 80.0 -261.0 1.000 1.000 1.000
v -27.0 -16.0 -242.0 1.000 1.000 1.000
v -13.0 -27.0 -261.0 1.000 1.000 1.000
v -27.0 -5.0 -104.0 1.000 1.000 1.000
v -13.0 -13.0 -88.0 1.000 1.000 1.000
v -27.0 5.0 -93.0 1.000 1.000 1.000
v -13.0 0.0 -75.0 1.000 1.000 1.000
v -27.0 59.0 -93.0 1.000 1.000 1.000
v -13.0 67.0 -75.0 1.000 1.000 1.000
v 27.0 69.0 -104.0 1.000 1.000 1.000
v 27.0 59.0 -93.0 1.000 1.000 1.000
v 27.0 69.0 -242.0 1.000 1.000 1.000
v 27.0 5.0 -93.0 1.000 1.000 1.000
v 27.0 5.0 -93.0 1.000 1.000 1.000
v 27.0 -16.0 -242.0 1.000 1.000 1.000
v 27.0 69.0 -242.0 1.000 1.000 1.000
v 27.0 -5.0 -104.0 1.000 1.000 1.000
v -27.0 69.0 -242.0 1.000 1.000 1.000
v -27.0 59.0 -93.0 1.000 1.000 1.000
v -27.0 69.0 -104.0 1.000 1.000 1.000
v -27.0 5.0 -93.0 1.000 1.000 1.000
v -27.0 -16.0 -242.0 1.000 1.000 1.000
v -27.0 -5.0 -104.0 1.000 1.000 1.000
v 13.0 80.0 -288.0 1.000 1.000 1.000
v -13.0 80.0 -261.0 1.000 1.000 1.000
v 13.0 80.0 -261.0 1.000 1.000 1.000
v -13.0 80.0 -288.0 1.000 1.000 1.000
v 13.0 -27.0 -288.0 1.000 1.000 1.000
v 0.0 27.0 -274.0 1.000 1.000 1.000
v 13.0 27.0 -274.0 1.000 1.000 1.000
v -13.0 80.0 -288.0 1.000 1.000 1.000
v 13.0 80.0 -288.0 1.000 1.000 1.000
v -13.0 -27.0 -288.0 1.000 1.000 1.000
v -13.0 27.0 -274.0 1.000 1.000 1.000
v 13.0 -27.0 -261.0 1.000 1.000 1.000
v -13.0 -27.0 -288.0 1.000 1.000 1.000
v 13.0 -27.0 -288.0 1.000 1.000 1.000
v -13.0 -27.0 -261.0 1.000 1.000 1.000
v 13.0 -27.0 -261.0 1.000 1.000 1.000
v 13.0 80.0 -288.0 1.000 1.000 1.000
v 13.0 80.0 -261.0 1.000 1.000 1.000
v 13.0 -27.0 -288.0 1.000 1.000 1.000
v 13.0 27.0 -274.0 1.000 1.000 1.000
v -13.0 27.0 -274.0 1.000 1.000 1.000
v -13.0 -27.0 -288.0 1.000 1.000 1.000
v -13.0 -27.0 -261.0 1.000 1.000 1.000
v -13.0 80.0 -261.0 1.000 1.000 1.000
v -13.0 80.0 -288.0 1.000 1.000 1.000
v 13.0 0.0 -64.0 1.000 1.000 1.000
v 13.0 0.0 -75.0 1.000 1.000 1.000
v 13.0 53.0 -75.0 1.000 1.000 1.000
v 13.0 53.0 -61.0 1.000 1.000 1.000
v 13.0 28.0 -36.0 1.000 1.000 1.000
v -13.0 53.0 -75.0 1.000 1.000 1.000
v -13.0 0.0 -75.0 1.000 1.000 1.000
v -13.0 0.0 -64.0 1.000 1.000 1.000
v -13.0 53.0 -61.0 1.000 1.000 1.000
v -13.0 28.0 -36.0 1.000 1.000 1.000
vt 0.2266 0.0166
vt 1.3506 0.0967
vt 0.2305 0.7510
vt 1.4824 0.6143
vt 2.1895 0.5088
vt 0.6758 0.5088
vt 0.3008 0.0371
vt 0.0508 0.0371
vt 0.5508 0.5762
vt 2.2324 0.6396
vt 0.5000 0.2793
vt 0.2568 0.5000
vt 0.5000 0.5000
vt 0.2549 0.2793
vt 0.3779 0.1875
vt 0.2500 0.1875
vt 0.2529 0.1875
vt 0.0000 0.2793
vt 0.1250 0.1875
vt 0.2451 0.2793
vt 0.0000 0.5000
vt 0.2432 0.5000
vt 0.0000 0.7207
vt 0.2451 0.7207
vt 0.1221 0.8125
vt 0.2500 0.8125
vt 0.2471 0.8125
vt 0.5000 0.7207
vt 0.3750 0.8125
vt 0.2549 0.7207
vt 1.0000 0.2051
vt 0.5312 0.5000
vt 1.0000 0.5000
vt 0.5225 0.2051
vt 0.7617 0.0830
vt 0.5000 0.0830
vt 0.5117 0.0830
vt 0.0000 0.2051
vt 0.2500 0.0830
vt 0.4775 0.2051
vt 0.4688 0.5000
vt 0.0000 0.7949
vt 0.4775 0.7949
vt 0.2383 0.9170
vt 0.5000 0.9170
vt 0.4883 0.9170
vt 1.0000 0.7949
vt 0.7500 0.9170
vt 0.5225 0.7949
vt 1.0000 0.9170
vt 0.0000 0.9170
vt 0.0000 0.0830
vt 1.0000 0.0830
vt 0.5000 0.0000
vt 0.8535 0.1465
vt 0.1465 0.1465
vt 0.1465 0.8535
vt 0.5000 1.0000
vt 0.8535 0.8535
vt 0.5000 0.3330
vt 0.5000 0.6670
vt 0.0000 0.3330
vt 0.0000 0.6670
vt 0.1670 0.3330
vt 0.1670 0.6670
vt 3.8330 0.3330
vt 3.8330 0.6670
vt 4.3330 0.3330
vt 4.3330 0.6670
vt -0.1748 0.8809
vt 0.2822 0.7383
vt 0.0635 0.7021
vt 0.0156 0.8633
vt 0.0791 0.9404
vt 0.2266 0.9043
vt 3.7461 0.9404
vt 3.5273 0.9043
vt 3.9844 0.7617
vt 3.7939 0.7793
vt 3.8965 0.7021
vt 3.7324 0.7383
vt 0.1665 0.3750
vt 0.1665 0.6250
vt 0.3335 0.3750
vt 0.3335 0.6250
vt 2.0835 0.3750
vt 2.0835 0.6250
vt 2.2500 0.3750
vt 2.2500 0.6250
vt 3.1250 0.2500
vt 0.5000 0.2500
vt 0.2500 0.5000
vt 0.2500 0.7500
vt 3.3750 0.7500
vt 0.5000 0.3066
vt 0.3154 0.5000
vt 0.2979 0.3066
vt 0.3047 0.5000
vt 0.2891 0.3037
vt 0.2930 0.5000
vt 0.2803 0.2266
vt 0.2744 0.2236
vt 0.2695 0.5000
vt 0.2842 0.5000
vt 0.2637 0.2236
vt 0.3984 0.2266
vt 0.2500 0.2266
vt 0.2734 0.2266
vt 0.2500 0.2227
vt 0.2500 0.1133
vt 0.2500 0.1094
vt 0.0000 0.3066
vt 0.1250 0.2266
vt 0.2021 0.3066
vt 0.2109 0.3037
vt 0.2197 0.2266
vt 0.2256 0.2236
vt 0.2363 0.2236
vt 0.1846 0.5000
vt 0.1953 0.5000
vt 0.2070 0.5000
vt 0.2158 0.5000
vt 0.2305 0.5000
vt 0.0000 0.6934
vt 0.2021 0.6934
vt 0.2109 0.6963
vt 0.2197 0.7734
vt 0.2256 0.7764
vt 0.2363 0.7764
vt 0.1016 0.7734
vt 0.2500 0.7734
vt 0.2266 0.7734
vt 0.2500 0.7773
vt 0.2500 0.8867
vt 0.2500 0.8906
vt 0.5000 0.6934
vt 0.3750 0.7734
vt 0.2979 0.6934
vt 0.2891 0.6963
vt 0.2803 0.7734
vt 0.2744 0.7764
vt 0.2637 0.7764
vt 1.8750 0.7725
vt 1.2500 0.1816
vt 1.2500 0.7725
vt 1.8750 0.1816
vt 2.5000 0.7725
vt 2.5000 0.1816
vt 3.1250 0.7725
vt 3.1250 0.1816
vt 3.7500 0.7725
vt 3.7500 0.1816
vt 4.3750 0.7725
vt 4.3750 0.1816
vt 5.0000 0.7725
vt 5.0000 0.1816
vt 0.6250 0.7725
vt 0.0000 0.1816
vt 0.0000 0.7725
vt 0.6250 0.1816
vt 0.6958 0.8818
vt 0.5000 0.4907
vt 0.9150 0.6289
vt 0.3618 0.9058
vt 0.1089 0.6865
vt 0.0850 0.3521
vt 0.3042 0.0991
vt 0.6382 0.0757
vt 0.8911 0.2949
vt 0.8472 0.5000
vt 0.7456 0.7456
vt 0.7456 0.2544
vt 0.5000 0.1528
vt 0.2544 0.2544
vt 0.1528 0.5000
vt 0.2544 0.7456
vt 0.5000 0.8472
vt 0.5000 0.2588
vt 0.2734 0.5000
vt 0.2666 0.2588
vt 0.2637 0.2588
vt 0.2637 0.5000
vt 0.2598 0.2588
vt 0.2617 0.5000
vt 0.2588 0.2588
vt 0.3838 0.1592
vt 0.2500 0.1592
vt 0.2588 0.1592
vt 0.0000 0.2588
vt 0.1250 0.1592
vt 0.2334 0.2588
vt 0.2363 0.2588
vt 0.2402 0.2588
vt 0.2412 0.2588
vt 0.2266 0.5000
vt 0.2363 0.5000
vt 0.2383 0.5000
vt 0.0000 0.7412
vt 0.2334 0.7412
vt 0.2363 0.7412
vt 0.2402 0.7412
vt 0.2412 0.7412
vt 0.1162 0.8408
vt 0.2500 0.8408
vt 0.2412 0.8408
vt 0.5000 0.7412
vt 0.3750 0.8408
vt 0.2666 0.7412
vt 0.2637 0.7412
vt 0.2598 0.7412
vt 0.2588 0.7412
vt 1.1250 0.7002
vt 0.7500 0.2002
vt 0.7500 0.7002
vt 1.1250 0.2002
vt 1.5000 0.7002
vt 1.5000 0.2002
vt 1.8750 0.7002
vt 1.8750 0.2002
vt 2.2500 0.7002
vt 2.2500 0.2002
vt 2.6250 0.7002
vt 2.6250 0.2002
vt 3.0000 0.7002
vt 3.0000 0.2002
vt 0.3750 0.7002
vt 0.0000 0.2002
vt 0.0000 0.7002
vt 0.3750 0.2002
vt 0.0312 0.5000
vt 0.1685 0.1685
vt 0.1685 0.8315
vt 0.5000 0.9688
vt 0.8315 0.8315
vt 0.9688 0.5000
vt 0.8315 0.1685
vt 0.5000 0.0312
vt -0.0835 0.5835
vt -0.0835 0.7500
vt 0.0000 0.5835
vt 0.0000 0.7500
vt 1.1665 0.5835
vt 1.1665 0.7500
vt 1.3335 0.5835
vt 1.3335 0.7500
vt 1.6665 0.5000
vt 1.5000 0.2500
vt 0.3335 0.2500
vt 0.1250 -0.2500
vt 0.0000 0.2500
vt 0.0000 -0.2500
vt 0.1250 0.2500
vt 1.7500 -0.2500
vt 1.7500 0.2500
vt -0.0527 0.1670
vt 0.1318 0.2383
vt 0.0791 0.0479
vt 0.2373 0.1426
vt 1.7891 0.0479
vt 1.6055 0.1426
vt 1.7891 1.0000
vt 1.6055 0.9043
vt 0.0791 0.8809
vt 0.2373 0.8096
vt -0.0527 0.7617
vt 0.1318 0.7139
vt 0.0000 1.6665
vt 0.6250 2.2222
vt 0.6250 1.6665
vt 0.0000 2.2222
vt 0.6665 1.9443
vt 0.6665 1.6665
vt 1.3335 2.2222
vt 1.3335 1.6665
vt 0.6665 2.2222
vt 0.4028 -0.3750
vt -0.0835 0.2500
vt -0.1528 -0.3750
vt 0.4722 0.2500
vt 0.5259 1.7720
vt 1.2939 2.0479
vt 1.2939 1.7720
vt 0.5259 2.0479
vt 0.9097 2.0479
vt 0.0000 2.0479
vt 0.3838 2.0479
vt 0.3838 1.7720
vt -0.3838 1.7720
vt -0.3838 2.0479
vt 0.6670 0.6875
vt 0.8887 0.6875
vt 0.8887 0.0625
vt 0.6113 0.0625
vt 0.0879 0.3574
vn -0.840 0.543 0.000
vn 0.873 0.488 0.000
vn 0.873 0.488 0.000
vn -0.840 0.543 0.000
vn -0.840 0.543 0.000
vn -0.840 0.543 0.000
vn 0.873 0.488 0.000
vn 0.873 0.488 0.000
vn 0.577 0.577 0.577
vn 0.577 0.577 0.577
vn 0.577 0.577 0.577
vn 0.577 0.577 0.577
vn 0.577 0.577 0.577
vn 0.577 0.577 0.577
vn 0.577 0.577 0.577
vn 0.577 0.577 0.577
vn 0.577 0.577 0.577
vn 0.577 0.577 0.577
vn 0.577 0.577 0.577
vn 0.577 0.577 0.577
vn 0.577 0.577 0.577
vn 0.577 0.577 0.577
vn 0.577 0.577 0.577
vn 0.577 0.577 0.577
vn -0.577 -0.577 -0.577
vn -0.577 -0.577 -0.577
vn -0.577 -0.577 -0.577
vn -0.577 -0.577 -0.577
vn -0.577 -0.577 -0.577
vn -0.577 -0.577 -0.577
vn -0.577 -0.577 -0.577
vn -0.577 -0.577 -0.577
vn -0.577 -0.577 -0.577
vn 0.577 0.577 0.577
vn 0.577 0.577 0.577
vn 0.577 0.577 0.577
vn 0.577 0.577 0.577
vn 0.577 0.577 0.577
vn 0.577 0.577 0.577
vn 0.577 0.577 0.577
vn 0.577 0.577 0.577
vn 0.577 0.577 0.577
vn 0.577 0.577 0.577
vn 0.577 0.577 0.577
vn 0.577 0.577 0.577
vn -0.577 -0.577 -0.577
vn -0.577 -0.577 -0.577
vn -0.577 -0.577 -0.577
vn -0.577 -0.577 -0.577
vn -0.577 -0.577 -0.577
vn -0.577 -0.577 -0.577
vn -0.577 -0.577 -0.577
vn -0.577 -0.577 -0.577
vn -0.577 -0.577 -0.577
vn -0.577 -0.577 -0.577
vn -0.577 -0.577 -0.577
vn 0.577 0.577 0.577
vn 0.577 0.577 0.577
vn 0.577 0.577 0.577
vn 0.577 0.577 0.577
vn 0.577 0.577 0.577
vn 0.577 0.577 0.577
vn 0.577 0.577 0.577
vn 0.577 0.577 0.577
vn 0.577 0.577 0.577
vn 0.577 0.577 0.577
vn 0.577 0.577 0.577
vn 0.577 0.577 0.577
vn -0.577 -0.577 -0.577
vn -0.577 -0.577 -0.577
vn 0.577 0.577 0.577
vn 0.577 0.577 0.577
vn 0.577 0.577 0.577
vn 0.577 0.577 0.577
vn 0.577 0.577 0.577
vn 0.577 0.577 0.577
vn 0.577 0.577 0.577
vn 0.577 0.577 0.577
vn 0.577 0.577 0.577
vn 0.577 0.577 0.577
vn 0.577 0.577 0.577
vn 0.577 0.577 0.577
vn 0.577 0.577 0.577
vn 0.577 0.577 0.577
vn 0.577 0.577 0.577
vn -0.577 -0.577 -0.577
vn -0.577 -0.577 -0.577
vn -0.577 -0.577 -0.577
vn -0.577 -0.577 -0.577
vn -0.577 -0.577 -0.577
vn -0.577 -0.577 -0.577
vn -0.577 -0.577 -0.577
vn -0.577 -0.577 -0.577
vn -0.577 -0.577 -0.577
vn -0.642 0.767 0.000
vn -0.642 0.767 0.000
vn -0.840 0.543 0.000
vn -0.840 0.543 0.000
vn -0.840 0.543 0.000
vn -0.840 0.543 0.000
vn 0.873 0.488 0.000
vn 0.873 0.488 0.000
vn -0.840 0.543 0.000
vn -0.840 0.543 0.000
vn -0.642 0.767 0.000
vn -0.642 0.767 0.000
vn -0.840 0.543 0.000
vn -0.642 0.767 0.000
vn -0.642 0.767 0.000
vn -0.840 0.543 0.000
vn -0.840 0.543 0.000
vn -0.840 0.543 0.000
vn -0.840 0.543 0.000
vn -0.840 0.543 0.000
vn 0.873 0.488 0.000
vn 0.873 0.488 0.000
vn -0.840 0.543 0.000
vn -0.840 0.543 0.000
vn -0.642 0.767 0.000
vn -0.840 0.543 0.000
vn -0.642 0.767 0.000
vn -0.642 0.767 0.000
vn -0.642 0.767 0.000
vn -0.642 0.767 0.000
vn -0.840 0.543 0.000
vn -0.642 0.767 0.000
vn -0.840 0.543 0.000
vn -0.642 0.767 0.000
vn -0.840 0.543 0.000
vn -0.840 0.543 0.000
vn 0.873 0.488 0.000
vn 0.873 0.488 0.000
vn -0.840 0.543 0.000
vn -0.840 0.543 0.000
vn -0.642 0.767 0.000
vn -0.642 0.767 0.000
vn -0.642 0.767 0.000
vn -0.642 0.767 0.000
vn -0.840 0.543 0.000
vn -0.840 0.543 0.000
vn -0.642 0.767 0.000
vn -0.840 0.543 0.000
vn -0.840 0.543 0.000
vn -0.840 0.543 0.000
vn 0.873 0.488 0.000
vn -0.840 0.543 0.000
vn -0.642 0.767 0.000
vn -0.642 0.767 0.000
vn -0.642 0.767 0.000
vn -0.840 0.543 0.000
vn 0.873 0.488 0.000
vn -0.840 0.543 0.000
vn 0.577 0.577 0.577
vn 0.577 0.577 0.577
vn 0.577 0.577 0.577
vn 0.577 0.577 0.577
vn 0.577 0.577 0.577
vn 0.577 0.577 0.577
vn 0.577 0.577 0.577
vn 0.577 0.577 0.577
vn 0.577 0.577 0.577
vn 0.577 0.577 0.577
vn 0.577 0.577 0.577
vn 0.577 0.577 0.577
vn 0.577 0.577 0.577
vn 0.577 0.577 0.577
vn 0.577 0.577 0.577
vn 0.577 0.577 0.577
vn 0.577 0.577 0.577
vn 0.577 0.577 0.577
vn 0.577 0.577 0.577
vn 0.577 0.577 0.577
vn 0.577 0.577 0.577
vn 0.577 0.577 0.577
vn 0.577 0.577 0.577
vn 0.577 0.577 0.577
vn -0.577 -0.577 -0.577
vn -0.577 -0.577 -0.577
vn -0.577 -0.577 -0.577
vn -0.577 -0.577 -0.577
vn 0.577 0.577 0.577
vn 0.577 0.577 0.577
vn 0.577 0.577 0.577
vn 0.577 0.577 0.577
vn 0.577 0.577 0.577
vn 0.577 0.577 0.577
vn 0.577 0.577 0.577
vn 0.577 0.577 0.577
vn 0.577 0.577 0.577
vn 0.577 0.577 0.577
vn 0.577 0.577 0.577
vn 0.577 0.577 0.577
vn 0.577 0.577 0.577
vn -0.577 -0.577 -0.577
vn -0.577 -0.577 -0.577
vn -0.577 -0.577 -0.577
vn -0.577 -0.577 -0.577
vn 0.577 0.577 0.577
vn 0.577 0.577 0.577
vn 0.577 0.577 0.577
vn 0.577 0.577 0.577
vn 0.577 0.577 0.577
vn 0.577 0.577 0.577
vn 0.577 0.577 0.577
vn 0.577 0.577 0.577
vn 0.577 0.577 0.577
vn 0.577 0.577 0.577
vn 0.577 0.577 0.577
vn 0.577 0.577 0.577
vn 0.577 0.577 0.577
vn 0.577 0.577 0.577
vn -0.577 -0.577 -0.577
vn -0.577 -0.577 -0.577
vn -0.577 -0.577 -0.577
vn -0.577 -0.577 -0.577
vn 0.577 0.577 0.577
vn 0.577 0.577 0.577
vn 0.577 0.577 0.577
vn 0.577 0.577 0.577
vn 0.577 0.577 0.577
vn 0.577 0.577 0.577
vn 0.577 0.577 0.577
vn 0.577 0.577 0.577
vn 0.577 0.577 0.577
vn 0.577 0.577 0.577
vn 0.577 0.577 0.577
vn 0.577 0.577 0.577
vn 0.577 0.577 0.577
vn -0.577 -0.577 -0.577
vn -0.577 -0.577 -0.577
vn 0.577 0.577 0.577
vn 0.577 0.577 0.577
vn 0.577 0.577 0.577
vn 0.577 0.577 0.577
vn 0.577 0.577 0.577
vn 0.577 0.577 0.577
vn 0.577 0.577 0.577
vn 0.577 0.577 0.577
vn 0.577 0.577 0.577
vn 0.577 0.577 0.577
vn 0.577 0.577 0.577
vn 0.577 0.577 0.577
vn 0.577 0.577 0.577
vn 0.577 0.577 0.577
vn 0.577 0.577 0.577
vn 0.577 0.577 0.577
vn 0.577 0.577 0.577
vn 0.577 0.577 0.577
vn 0.577 0.577 0.577
vn 0.577 0.577 0.577
vn 0.577 0.577 0.577
vn 0.577 0.577 0.577
vn 0.577 0.577 0.577
vn 0.577 0.577 0.577
vn 0.577 0.577 0.577
vn 0.577 0.577 0.577
vn 0.577 0.577 0.577
vn 0.577 0.577 0.577
vn 0.577 0.577 0.577
vn 0.577 0.577 0.577
vn 0.577 0.577 0.577
vn 0.577 0.577 0.577
vn 0.577 0.577 0.577
vn 0.577 0.577 0.577
vn 0.577 0.577 0.577
vn 0.577 0.577 0.577
vn 0.577 0.577 0.577
vn 0.577 0.577 0.577
vn 0.577 0.577 0.577
vn 0.577 0.577 0.577
vn 0.577 0.577 0.577
vn 0.577 0.577 0.577
vn 0.577 0.577 0.577
vn 0.577 0.577 0.577
vn 0.577 0.577 0.577
vn 0.577 0.577 0.577
vn 0.577 0.577 0.577
vn 0.577 0.577 0.577
vn 0.577 0.577 0.577
vn 0.577 0.577 0.577
vn 0.577 0.577 0.577
vn 0.577 0.577 0.577
vn 0.577 0.577 0.577
vn 0.577 0.577 0.577
vn 0.577 0.577 0.577
vn 0.577 0.577 0.577
vn 0.577 0.577 0.577
vn 0.577 0.577 0.577
vn 0.577 0.577 0.577
vn 0.577 0.577 0.577
vn 0.577 0.577 0.577
vn 0.577 0.577 0.577
vn -0.577 -0.577 -0.577
vn 0.577 0.577 0.577
vn 0.577 0.577 0.577
vn -0.577 -0.577 -0.577
vn 0.577 0.577 0.577
vn 0.577 0.577 0.577
vn 0.577 0.577 0.577
vn 0.577 0.577 0.577
vn 0.577 0.577 0.577
vn 0.577 0.577 0.577
vn 0.577 0.577 0.577
vn 0.577 0.577 0.577
vn -0.577 -0.577 -0.577
vn -0.577 -0.577 -0.577
vn -0.577 -0.577 -0.577
vn -0.577 -0.577 -0.577
vn -0.577 -0.577 -0.577
vn -0.577 -0.577 -0.577
vn -0.577 -0.577 -0.577
vn -0.577 -0.577 -0.577
vn 0.577 0.577 0.577
vn 0.577 0.577 0.577
vn 0.577 0.577 0.577
vn 0.577 0.577 0.577
vn 0.577 0.577 0.577
vn 0.577 0.577 0.577
vn 0.577 0.577 0.577
vn 0.577 0.577 0.577
vn 0.577 0.577 0.577
vn 0.577 0.577 0.577
vn 0.577 0.577 0.577
vn 0.577 0.577 0.577
vn -0.577 -0.577 -0.577
vn -0.577 -0.577 -0.577
vn 0.577 0.577 0.577
vn 0.577 0.577 0.577
vn 0.577 0.577 0.577
vn 0.577 0.577 0.577
vn 0.577 0.577 0.577
vn 0.577 0.577 0.577
vn 0.577 0.577 0.577
vn 0.577 0.577 0.577
vn 0.577 0.577 0.577
vn -0.577 -0.577 -0.577
vn -0.577 -0.577 -0.577
vn 0.577 0.577 0.577
vn -0.577 -0.577 -0.577
vn -0.577 -0.577 -0.577
vn -0.577 -0.577 -0.577
vn -0.577 -0.577 -0.577
vn -0.577 -0.577 -0.577
vn 0.577 0.577 0.577
vn 0.577 0.577 0.577
vn 0.577 0.577 0.577
vn 0.577 0.577 0.577
vn 0.577 0.577 0.577
vn 0.577 0.577 0.577
vn 0.577 0.577 0.577
vn 0.577 0.577 0.577
vn 0.577 0.577 0.577
vn 0.577 0.577 0.577
vn 0.577 0.577 0.577
vn 0.577 0.577 0.577
vn -0.577 -0.577 -0.577
vn -0.577 -0.577 -0.577
vn 0.577 0.577 0.577
vn -0.577 -0.577 -0.577
vn 0.577 0.577 0.577
vn 0.577 0.577 0.577
vn 0.577 0.577 0.577
vn 0.577 0.577 0.577
vn 0.577 0.577 0.577
vn 0.577 0.577 0.577
vn 0.577 0.577 0.577
vn -0.577 -0.577 -0.577
vn -0.577 -0.577 -0.577
vn -0.577 -0.577 -0.577
vn -0.577 -0.577 -0.577
vn 0.577 0.577 0.577
vn 0.577 0.577 0.577
vn 0.577 0.577 0.577
vn 0.577 0.577 0.577
vn 0.577 0.577 0.577
vn 0.577 0.577 0.577
vn -0.577 -0.577 -0.577
vn -0.577 -0.577 -0.577
vn 0.577 0.577 0.577
vn 0.577 0.577 0.577
vn 0.577 0.577 0.577
vn 0.577 0.577 0.577
vn 0.577 0.577 0.577
vn 0.577 0.577 0.577
vn 0.577 0.577 0.577
vn 0.577 0.577 0.577
vn 0.577 0.577 0.577
vn -0.577 -0.577 -0.577
vn -0.577 -0.577 -0.577
vn 0.577 0.577 0.577
vn 0.577 0.577 0.577
vn 0.577 0.577 0.577
vn 0.577 0.577 0.577
vn 0.577 0.577 0.577
vn 0.577 0.577 0.577
vn 0.577 0.577 0.577
vn 0.577 0.577 0.577
vn 0.577 0.577 0.577
vn 0.577 0.577 0.577
vn 0.577 0.577 0.577
vn 0.577 0.577 0.577
vn 0.577 0.577 0.577
vn 0.577 0.577 0.577
vn 0.577 0.577 0.577
vn 0.577 0.577 0.577
vn 0.577 0.577 0.577
vn 0.577 0.577 0.577
vn 0.577 0.577 0.577
vn 0.577 0.577 0.577
vn 0.577 0.577 0.577
vn 0.577 0.577 0.577
vn 0.577 0.577 0.577
vn 0.577 0.577 0.577
vn 0.577 0.577 0.577
vn 0.577 0.577 0.577
vn 0.577 0.577 0.577
vn 0.577 0.577 0.577
vn 0.577 0.577 0.577
vn 0.577 0.577 0.577
vn 0.577 0.577 0.577
vn 0.577 0.577 0.577
vn 0.577 0.577 0.577
vn 0.577 0.577 0.577
vn 0.577 0.577 0.577
vn 0.577 0.577 0.577
vn 0.577 0.577 0.577
vn 0.577 0.577 0.577
vn -0.577 -0.577 -0.577
vn 0.577 0.577 0.577
vn 0.577 0.577 0.577
vn -0.577 -0.577 -0.577
vn 0.577 0.577 0.577
vn 0.577 0.577 0.577
vn -0.577 -0.577 -0.577
vn -0.577 -0.577 -0.577
vn -0.577 -0.577 -0.577
vn -0.577 -0.577 -0.577
vn -0.577 -0.577 -0.577
vn 0.577 0.577 0.577
vn 0.577 0.577 0.577
vn 0.577 0.577 0.577
vn 0.577 0.577 0.577
vn 0.577 0.577 0.577
vn 0.577 0.577 0.577
vn 0.577 0.577 0.577
vn 0.577 0.577 0.577
vn 0.577 0.577 0.577
vn 0.577 0.577 0.577
vn 0.577 0.577 0.577
vn 0.577 0.577 0.577
vn 0.577 0.577 0.577
vn 0.577 0.577 0.577
vn 0.577 0.577 0.577
vn 0.577 0.577 0.577
vn 0.577 0.577 0.577
vn 0.577 0.577 0.577
vn 0.577 0.577 0.577
vn 0.577 0.577 0.577
vn -0.577 -0.577 -0.577
vn -0.577 -0.577 -0.577
vn 0.577 0.577 0.577
vn -0.577 -0.577 -0.577
vn -0.577 -0.577 -0.577
vn 0.577 0.577 0.577
vn -0.577 -0.577 -0.577
vn -0.577 -0.577 -0.577
vn -0.577 -0.577 -0.577
vn -0.577 -0.577 -0.577
vn -0.577 -0.577 -0.577
vn 0.577 0.577 0.577
vn 0.577 0.577 0.577
vn 0.577 0.577 0.577
vn 0.577 0.577 0.577
vn 0.577 0.577 0.577
vn 0.577 0.577 0.577
vn 0.577 0.577 0.577
vn 0.577 0.577 0.577
vn 0.577 0.577 0.577
vn 0.577 0.577 0.577
vn 0.577 0.577 0.577
vn 0.577 0.577 0.577
vn 0.577 0.577 0.577
vn 0.577 0.577 0.577
vn 0.577 0.577 0.577
vn 0.577 0.577 0.577
vn 0.577 0.577 0.577
vn 0.577 0.577 0.577
vn 0.577 0.577 0.577
vn 0.577 0.577 0.577
vn -0.642 0.767 0.000
vn -0.642 0.767 0.000
vn -0.642 0.767 0.000
vn -0.642 0.767 0.000
vn -0.642 0.767 0.000
vn -0.642 0.767 0.000
vn -0.840 0.543 0.000
vn 0.873 0.488 0.000
vn 0.873 0.488 0.000
vn -0.840 0.543 0.000
vn -0.840 0.543 0.000
vn -0.840 0.543 0.000
vn -0.642 0.767 0.000
vn -0.642 0.767 0.000
vn -0.642 0.767 0.000
vn -0.642 0.767 0.000
vn -0.642 0.767 0.000
vn -0.642 0.767 0.000
vn -0.642 0.767 0.000
vn -0.642 0.767 0.000
vn 0.873 0.488 0.000
vn 0.873 0.488 0.000
vn -0.840 0.543 0.000
vn -0.840 0.543 0.000
vn -0.840 0.543 0.000
vn -0.840 0.543 0.000
vn -0.642 0.767 0.000
vn -0.642 0.767 0.000
vn -0.642 0.767 0.000
vn -0.642 0.767 0.000
vn -0.642 0.767 0.000
vn -0.642 0.767 0.000
vn -0.642 0.767 0.000
vn -0.642 0.767 0.000
vn -0.642 0.767 0.000
vn -0.642 0.767 0.000
vn 0.873 0.488 0.000
vn 0.873 0.488 0.000
vn -0.840 0.543 0.000
vn -0.840 0.543 0.000
vn -0.642 0.767 0.000
vn -0.840 0.543 0.000
vn -0.642 0.767 0.000
vn -0.642 0.767 0.000
vn -0.642 0.767 0.000
vn -0.642 0.767 0.000
vn -0.642 0.767 0.000
vn -0.840 0.543 0.000
vn -0.840 0.543 0.000
vn 0.873 0.488 0.000
vn -0.642 0.767 0.000
vn -0.840 0.543 0.000
vn -0.642 0.767 0.000
vn -0.642 0.767 0.000
vn -0.642 0.767 0.000
vn -0.642 0.767 0.000
vn 0.873 0.488 0.000
vn -0.840 0.543 0.000
vn 0.577 0.577 0.577
vn -0.577 -0.577 -0.577
vn -0.577 -0.577 -0.577
vn 0.577 0.577 0.577
vn 0.577 0.577 0.577
vn 0.577 0.577 0.577
vn 0.577 0.577 0.577
vn 0.577 0.577 0.577
vn 0.577 0.577 0.577
vn 0.577 0.577 0.577
vn 0.577 0.577 0.577
vn 0.577 0.577 0.577
vn 0.577 0.577 0.577
vn 0.577 0.577 0.577
vn 0.577 0.577 0.577
vn 0.577 0.577 0.577
vn 0.577 0.577 0.577
vn -0.577 -0.577 -0.577
vn 0.577 0.577 0.577
vn 0.577 0.577 0.577
vn 0.577 0.577 0.577
vn 0.577 0.577 0.577
vn 0.577 0.577 0.577
vn -0.577 -0.577 -0.577
vn 0.577 0.577 0.577
vn 0.577 0.577 0.577
vn 0.577 0.577 0.577
vn 0.577 0.577 0.577
vn 0.577 0.577 0.577
vn 0.577 0.577 0.577
vn 0.577 0.577 0.577
vn 0.577 0.577 0.577
vn 0.577 0.577 0.577
vn 0.577 0.577 0.577
vn 0.577 0.577 0.577
usemtl tex_1023_lit
f 1/1/1 2/2/2 3/2/3
f 4/1/4 2/2/2 1/1/1
f 5/3/5 4/1/4 1/1/1
f 6/3/6 4/1/4 5/3/5
f 7/4/7 6/3/6 5/3/5
f 8/4/8 6/3/6 7/4/7
f 7/4/7 5/3/5 1/1/1
f 1/1/1 3/2/3 7/4/7
f 4/1/4 6/3/6 8/4/8
f 8/4/8 2/2/2 4/1/4
usemtl tex_763_lit
f 9/5/9 10/6/10 11/5/11
f 11/5/11 10/6/10 12/6/12
f 10/6/10 13/7/13 12/6/12
f 13/7/13 14/7/14 12/6/12
f 15/8/15 16/9/16 17/9/17
f 17/9/17 18/8/18 15/8/15
f 19/10/19 16/9/16 20/10/20
f 19/10/19 17/9/17 16/9/16
f 13/7/13 16/9/16 15/8/15
f 13/7/13 10/6/10 16/9/16
f 20/10/20 10/6/10 9/5/9
f 16/9/16 10/6/10 20/10/20
f 18/8/18 21/9/21 14/7/14
f 21/9/21 22/6/22 14/7/14
f 23/5/23 22/6/22 24/10/24
f 24/10/24 22/6/22 21/9/21
f 25/11/25 26/12/26 27/13/27
f 28/14/28 26/12/26 25/11/25
f 29/15/29 28/14/28 25/11/25
f 30/16/30 28/14/28 31/17/31
f 32/18/32 30/16/30 33/19/33
f 34/20/34 30/16/30 32/18/32
f 35/21/35 34/20/34 32/18/32
f 36/22/36 34/20/34 35/21/35
f 37/23/37 36/22/36 35/21/35
f 38/24/38 36/22/36 37/23/37
f 39/25/39 38/24/38 37/23/37
f 40/26/40 41/24/41 42/27/42
f 43/28/43 40/26/40 44/29/44
f 45/30/45 40/26/40 43/28/43
f 46/13/46 45/30/45 43/28/43
f 47/12/47 45/30/45 46/13/46
f 48/31/48 49/32/49 50/33/50
f 51/34/51 49/32/49 48/31/48
f 52/35/52 51/34/51 48/31/48
f 53/36/53 51/34/51 54/37/54
f 55/38/55 53/36/53 56/39/56
f 57/40/57 53/36/53 55/38/55
f 58/21/58 57/40/57 55/38/55
f 59/41/59 57/40/57 58/21/58
f 60/42/60 59/41/59 58/21/58
f 61/43/61 59/41/59 60/42/60
f 62/44/62 61/43/61 60/42/60
f 63/45/63 64/43/64 65/46/65
f 66/47/66 63/45/63 67/48/67
f 68/49/68 63/45/63 66/47/66
f 69/33/69 68/49/68 66/47/66
f 70/32/70 68/49/68 69/33/69
f 66/47/66 71/33/71 72/33/72
f 73/50/73 71/33/71 66/47/66
f 74/42/74 75/21/75 76/51/76
f 77/21/77 75/21/75 74/42/74
f 78/38/78 75/21/75 77/21/77
f 79/52/79 80/21/80 81/38/81
f 82/31/82 83/33/83 84/53/84
f 85/33/85 83/33/83 82/31/82
usemtl tex_849_lit
f 86/54/86 87/13/87 88/55/88
f 89/56/89 87/13/87 86/54/86
f 90/21/90 87/13/87 89/56/89
f 91/57/91 87/13/87 90/21/90
f 92/58/92 87/13/87 91/57/91
f 93/59/93 87/13/87 92/58/92
f 94/33/94 87/13/87 93/59/93
f 88/55/88 87/13/87 94/33/94
usemtl tex_1023_lit
f 95/60/95 96/61/96 97/62/97
f 97/62/97 96/61/96 98/63/98
f 97/62/97 98/63/98 99/64/99
f 99/64/99 98/63/98 100/65/100
f 99/64/99 100/65/100 101/66/101
f 101/66/101 100/65/100 102/67/102
f 101/66/101 102/67/102 103/68/103
f 103/68/103 102/67/102 104/69/104
f 103/68/103 104/69/104 105/68/105
f 105/68/105 104/69/104 106/69/106
f 105/68/105 106/69/106 95/60/95
f 95/60/95 106/69/106 96/61/96
f 107/70/107 108/71/108 109/72/109
f 110/73/110 108/71/108 107/70/107
f 111/74/111 112/73/112 113/70/113
f 114/75/114 112/73/112 111/74/111
f 115/76/115 114/75/114 111/74/111
f 116/77/116 114/75/114 115/76/115
f 117/78/117 116/77/116 115/76/115
f 118/79/118 116/77/116 117/78/117
f 119/80/119 118/79/118 117/78/117
f 120/81/120 118/79/118 119/80/119
f 121/72/121 120/81/120 119/80/119
f 122/71/122 120/81/120 121/72/121
f 123/72/123 124/71/124 125/70/125
f 125/70/125 124/71/124 126/73/126
f 127/70/127 128/73/128 129/74/129
f 129/74/129 128/73/128 130/75/130
f 129/74/129 130/75/130 131/76/131
f 131/76/131 130/75/130 132/77/132
f 131/76/131 132/77/132 133/78/133
f 133/78/133 132/77/132 134/79/134
f 133/78/133 134/79/134 135/80/135
f 135/80/135 134/79/134 136/81/136
f 135/80/135 136/81/136 137/72/137
f 137/72/137 136/81/136 138/71/138
f 139/73/139 140/81/140 141/71/141
f 139/73/139 142/75/142 140/81/140
f 143/81/143 144/75/144 145/77/145
f 143/81/143 145/77/145 146/79/146
f 147/71/147 148/81/148 149/73/149
f 148/81/148 150/75/150 149/73/149
f 151/77/151 150/75/150 148/81/148
f 152/79/152 151/77/151 148/81/148
usemtl tex_2242_lit
f 153/82/153 154/83/154 155/82/155
f 155/82/155 154/83/154 156/83/156
f 155/82/155 156/83/156 157/84/157
f 157/84/157 156/83/156 158/85/158
f 157/84/157 158/85/158 159/86/159
f 159/86/159 158/85/158 160/87/160
f 159/86/159 160/87/160 161/88/161
f 161/88/161 160/87/160 162/89/162
usemtl tex_2242_lit_ovl
f 163/90/163 164/91/164 165/92/165
f 165/92/165 166/93/166 163/90/163
f 167/94/167 163/90/163 166/93/166
f 168/90/168 169/93/169 170/92/170
f 170/92/170 171/91/171 168/90/168
f 169/93/169 168/90/168 172/94/172
usemtl tex_763_lit
f 173/95/173 174/96/174 175/13/175
f 176/97/176 174/96/174 173/95/173
f 177/97/177 178/98/178 179/96/179
f 180/99/180 178/98/178 177/97/177
f 181/99/181 182/100/182 183/98/183
f 184/101/184 182/100/182 181/99/181
f 185/102/185 186/103/186 187/104/187
f 188/105/188 186/103/186 185/102/185
f 189/106/189 190/97/190 191/95/191
f 192/107/192 190/97/190 193/108/193
f 194/107/194 195/99/195 196/97/196
f 197/109/197 195/99/195 194/107/194
f 198/109/198 199/101/199 200/99/200
f 201/110/201 199/101/199 198/109/198
f 202/111/202 203/105/203 204/102/204
f 205/111/205 206/105/206 207/111/207
f 208/112/208 209/107/209 210/113/210
f 211/114/211 209/107/209 208/112/208
f 212/114/212 213/109/213 214/107/214
f 215/115/215 213/109/213 212/114/212
f 216/115/216 217/110/217 218/109/218
f 219/116/219 217/110/217 216/115/216
f 220/117/220 205/111/205 207/111/207
f 221/118/221 222/111/222 223/117/223
f 224/21/224 225/114/225 226/112/226
f 227/119/227 225/114/225 224/21/224
f 228/119/228 229/115/229 230/114/230
f 231/120/231 229/115/229 228/119/228
f 232/120/232 233/116/233 234/115/234
f 235/121/235 233/116/233 232/120/232
f 236/122/236 221/118/221 223/117/223
f 237/123/237 238/118/238 239/122/239
f 240/124/240 241/119/241 242/21/242
f 243/125/243 241/119/241 240/124/240
f 244/125/244 245/120/245 246/119/246
f 247/126/247 245/120/245 244/125/244
f 248/126/248 249/121/249 250/120/250
f 251/127/251 249/121/249 248/126/248
f 252/128/252 237/123/237 239/122/239
f 253/129/253 254/123/254 255/128/255
f 256/130/256 257/125/257 258/124/258
f 259/131/259 257/125/257 260/132/260
f 261/131/261 262/126/262 263/125/263
f 264/133/264 262/126/262 261/131/261
f 265/133/265 266/127/266 267/126/267
f 268/134/268 266/127/266 265/133/265
f 269/135/269 270/129/270 271/128/271
f 272/135/272 270/129/270 269/135/269
f 273/136/273 274/131/274 275/137/275
f 276/138/276 274/131/274 273/136/273
f 277/138/277 278/133/278 279/131/279
f 280/139/280 278/133/278 277/138/277
f 281/139/281 282/134/282 283/133/283
f 284/140/284 282/134/282 281/139/281
f 285/141/285 286/135/286 287/135/287
f 288/142/288 286/135/286 285/141/285
f 289/13/289 290/138/290 291/136/291
f 292/96/292 290/138/290 289/13/289
f 293/96/293 294/139/294 295/138/295
f 296/98/296 294/139/294 293/96/293
f 297/98/297 298/140/298 299/139/299
f 300/100/300 298/140/298 297/98/297
f 301/104/301 302/142/302 303/141/303
f 304/103/304 302/142/302 301/104/301
usemtl tex_766_lit
f 305/143/305 306/144/306 307/145/307
usemtl tex_766_lit_ovl
f 308/146/308 306/144/306 305/143/305
f 309/147/309 308/146/308 305/143/305
usemtl tex_766_lit
f 310/148/310 308/146/308 309/147/309
f 311/149/311 310/148/310 309/147/309
usemtl tex_766_lit_ovl
f 312/150/312 310/148/310 311/149/311
f 313/151/313 312/150/312 311/149/311
f 314/152/314 312/150/312 313/151/313
f 315/153/315 314/152/314 313/151/313
f 316/154/316 314/152/314 315/153/315
usemtl tex_766_lit
f 317/155/317 318/154/318 319/153/319
f 320/156/320 318/154/318 317/155/317
f 321/157/321 322/158/322 323/159/323
usemtl tex_766_lit_ovl
f 324/160/324 322/158/322 321/157/321
usemtl tex_766_lit
f 325/145/325 324/160/324 321/157/321
f 326/144/326 324/160/324 325/145/325
usemtl tex_856_lit
f 327/161/327 328/162/328 329/163/329
f 330/164/330 328/162/328 327/161/327
f 331/165/331 328/162/328 330/164/330
f 332/166/332 328/162/328 331/165/331
f 333/167/333 334/162/334 335/166/335
f 336/168/336 334/162/334 333/167/333
f 337/169/337 334/162/334 336/168/336
f 338/163/338 334/162/334 337/169/337
f 339/170/339 340/13/340 341/171/341
f 342/172/342 340/13/340 339/170/339
f 343/173/343 340/13/340 342/172/342
f 344/174/344 340/13/340 343/173/343
f 345/175/345 340/13/340 344/174/344
f 346/176/346 340/13/340 345/175/345
f 347/177/347 340/13/340 346/176/346
f 341/171/341 340/13/340 347/177/347
usemtl tex_763_lit
f 348/178/348 349/179/349 350/13/350
f 351/180/351 349/179/349 348/178/348
f 352/181/352 353/182/353 354/103/354
f 355/183/355 353/182/353 352/181/352
f 356/183/356 357/184/357 358/182/358
f 359/185/359 357/184/357 356/183/356
usemtl tex_763_lit_ovl
f 360/186/360 351/180/351 348/178/348
f 361/187/361 351/180/351 362/188/362
f 363/187/363 355/183/355 352/181/352
f 364/187/364 365/183/365 366/187/366
f 367/187/367 368/185/368 369/183/369
f 370/187/370 368/185/368 367/187/367
usemtl tex_763_lit
f 371/189/371 372/187/372 373/190/373
f 374/191/374 372/187/372 371/189/371
f 375/192/375 364/187/364 366/187/366
f 376/193/376 364/187/364 375/192/375
f 377/193/377 370/187/370 367/187/367
f 378/194/378 370/187/370 377/193/377
f 379/21/379 374/191/374 371/189/371
f 380/195/380 381/191/381 382/21/382
f 383/123/383 384/193/384 385/192/385
f 386/196/386 384/193/384 383/123/383
f 387/196/387 388/194/388 389/193/389
f 390/197/390 388/194/388 387/196/387
f 391/198/391 380/195/380 382/21/382
f 392/199/392 380/195/380 391/198/391
f 393/200/393 386/196/386 383/123/383
f 394/201/394 386/196/386 393/200/393
f 395/201/395 390/197/390 387/196/387
f 396/202/396 397/197/397 398/201/398
f 399/203/399 400/199/400 401/198/401
f 402/204/402 400/199/400 403/205/403
f 404/204/404 405/201/405 406/200/406
f 407/204/407 405/201/405 404/204/404
f 408/204/408 396/202/396 398/201/398
f 409/204/409 396/202/396 408/204/408
f 410/206/410 402/204/402 411/207/411
f 412/208/412 413/204/413 414/206/414
f 415/209/415 416/204/416 417/204/417
f 418/210/418 416/204/416 415/209/415
f 419/210/419 420/204/420 421/204/421
f 422/211/422 420/204/420 419/210/419
f 423/13/423 412/208/412 414/206/414
f 424/179/424 412/208/412 423/13/423
f 425/103/425 418/210/418 415/209/415
f 426/182/426 418/210/418 425/103/425
f 427/182/427 422/211/422 419/210/419
f 428/184/428 429/211/429 430/182/430
usemtl tex_766_lit_ovl
f 431/212/431 432/213/432 433/214/433
f 434/215/434 432/213/432 431/212/431
usemtl tex_766_lit
f 435/216/435 434/215/434 431/212/431
f 436/217/436 434/215/434 435/216/435
usemtl tex_766_lit_ovl
f 437/218/437 436/217/436 435/216/435
f 438/219/438 436/217/436 437/218/437
f 439/220/439 438/219/438 437/218/437
f 440/221/440 438/219/438 439/220/439
f 441/222/441 440/221/440 439/220/439
f 442/223/442 440/221/440 441/222/441
f 443/224/443 442/223/442 441/222/441
f 444/225/444 445/223/445 446/224/446
f 447/226/447 448/227/448 449/228/449
f 450/229/450 448/227/448 447/226/447
f 451/214/451 450/229/450 447/226/447
f 452/213/452 450/229/450 451/214/451
usemtl tex_2241_lit_w11
f 453/230/453 454/13/454 455/231/455
f 456/232/456 454/13/454 453/230/453
f 457/233/457 454/13/454 456/232/456
f 458/234/458 454/13/454 457/233/457
f 459/235/459 454/13/454 458/234/458
f 460/236/460 461/13/461 462/235/462
f 463/237/463 461/13/461 460/236/460
f 464/231/464 461/13/461 463/237/463
f 465/237/465 466/13/466 467/236/467
f 468/231/468 466/13/466 465/237/465
f 469/230/469 466/13/466 468/231/468
f 470/232/470 466/13/466 469/230/469
f 471/233/471 466/13/466 470/232/470
f 472/234/472 466/13/466 471/233/471
f 473/235/473 466/13/466 472/234/472
f 467/236/467 466/13/466 473/235/473
usemtl tex_2242_lit_ovl
f 474/238/474 475/239/475 476/240/476
f 476/240/476 475/239/475 477/241/477
usemtl tex_2242_lit
f 476/240/476 477/241/477 478/242/478
f 478/242/478 477/241/477 479/243/479
f 478/242/478 479/243/479 480/244/480
f 480/244/480 479/243/479 481/245/481
f 482/246/482 483/246/483 484/92/484
f 484/92/484 483/246/483 485/92/485
usemtl tex_2242_lit_ovl
f 486/247/486 487/248/487 485/92/485
f 483/246/483 486/247/486 485/92/485
f 484/92/484 488/248/488 489/247/489
f 484/92/484 489/247/489 482/246/482
usemtl tex_1023_lit
f 490/249/490 491/250/491 492/251/492
f 493/252/493 491/250/491 490/249/490
usemtl tex_1023_lit_ovl
f 494/253/494 493/252/493 490/249/490
f 495/254/495 493/252/493 494/253/494
usemtl tex_1023_lit
f 496/249/496 497/254/497 498/253/498
f 499/252/499 497/254/497 496/249/496
f 500/251/500 499/252/499 496/249/496
f 501/250/501 499/252/499 500/251/500
f 492/251/492 501/250/501 500/251/500
f 491/250/491 501/250/501 492/251/492
f 502/255/502 503/256/503 504/257/504
f 504/257/504 503/256/503 505/258/505
f 506/257/506 507/258/507 508/259/508
f 508/259/508 507/258/507 509/260/509
f 508/259/508 509/260/509 510/261/510
f 510/261/510 509/260/509 511/262/511
f 510/261/510 511/262/511 512/263/512
f 512/263/512 511/262/511 513/264/513
f 512/263/512 513/264/513 514/265/514
f 514/265/514 513/264/513 515/266/515
f 514/265/514 515/266/515 516/255/516
f 516/255/516 515/266/515 517/256/517
f 518/256/518 519/255/519 520/258/520
f 520/258/520 519/255/519 521/257/521
f 522/258/522 523/257/523 524/260/524
f 524/260/524 523/257/523 525/259/525
f 524/260/524 525/259/525 526/262/526
f 526/262/526 525/259/525 527/261/527
f 526/262/526 527/261/527 528/264/528
f 528/264/528 527/261/527 529/263/529
f 528/264/528 529/263/529 530/266/530
f 530/266/530 529/263/529 531/265/531
f 530/266/530 531/265/531 532/256/532
f 532/256/532 531/265/531 533/255/533
f 534/258/534 535/256/535 536/260/536
f 536/260/536 535/256/535 537/266/537
f 538/266/538 539/262/539 540/260/540
f 538/266/538 541/264/541 539/262/539
f 542/260/542 543/256/543 544/258/544
f 545/266/545 543/256/543 542/260/542
f 542/260/542 546/262/546 545/266/545
f 546/262/546 547/264/547 545/266/545
usemtl tex_2242_lit
f 548/267/548 549/268/549 550/269/550
f 551/270/551 549/268/549 548/267/548
f 552/267/552 553/271/553 554/272/554
f 553/271/553 555/273/555 556/274/556
f 553/271/553 556/274/556 554/272/554
f 557/270/557 558/275/558 553/271/553
f 557/270/557 553/271/553 552/267/552
f 558/275/558 555/273/555 553/271/553
f 559/276/559 560/277/560 561/278/561
f 562/279/562 560/277/560 559/276/559
usemtl tex_2242_lit_ovl
f 563/280/563 564/281/564 565/282/565
f 563/280/563 566/283/566 567/284/567
f 568/285/568 569/286/569 570/287/570
f 571/288/571 572/289/572 570/287/570
usemtl tex_763_lit_ovl
f 573/290/573 574/291/574 575/292/575
f 573/290/573 575/292/575 576/293/576
f 573/290/573 576/293/576 577/294/577
f 578/292/578 579/291/579 580/290/580
f 581/293/581 578/292/578 580/290/580
f 582/294/582 581/293/581 580/290/580
usemtl tex_763_lit
f 581/293/581 576/293/576 578/292/578
f 576/293/576 575/292/575 578/292/578
f 577/294/577 582/294/582 573/290/573
f 573/290/573 582/294/582 580/290/580
f 574/291/574 573/290/573 580/290/580
f 574/291/574 580/290/580 579/291/579
