mtllib GtaserZ.mtl
v -37.0 -30.0 33.0 1.000 1.000 1.000
v -38.0 -26.0 2.0 1.000 1.000 1.000
v -34.0 -41.0 11.0 1.000 1.000 1.000
v -34.0 -43.0 42.0 1.000 1.000 1.000
v -15.0 -51.0 18.0 1.000 1.000 1.000
v -26.0 -46.0 44.0 1.000 1.000 1.000
v -28.0 37.0 -10.0 1.000 1.000 1.000
v -21.0 15.0 -23.0 1.000 1.000 1.000
v -30.0 15.0 -23.0 1.000 1.000 1.000
v -36.0 34.0 -8.0 1.000 1.000 1.000
v -40.0 17.0 3.0 1.000 1.000 1.000
v -37.0 4.0 -18.0 1.000 1.000 1.000
v -19.0 -3.0 -41.0 1.000 1.000 1.000
v -31.0 -11.0 -36.0 1.000 1.000 1.000
v -29.0 -49.0 -12.0 1.000 1.000 1.000
v -21.0 15.0 -23.0 1.000 1.000 1.000
v 6.0 24.0 -20.0 1.000 1.000 1.000
v 2.0 10.0 -20.0 1.000 1.000 1.000
v -16.0 37.0 -11.0 1.000 1.000 1.000
v -28.0 37.0 -10.0 1.000 1.000 1.000
v -5.0 -10.0 -36.0 1.000 1.000 1.000
v -21.0 15.0 -23.0 1.000 1.000 1.000
v -19.0 -3.0 -41.0 1.000 1.000 1.000
v 3.0 -66.0 -138.0 1.000 1.000 1.000
v 4.0 -33.0 -31.0 1.000 1.000 1.000
v 12.0 -92.0 -122.0 1.000 1.000 1.000
v -5.0 -10.0 -36.0 1.000 1.000 1.000
v 6.0 -118.0 -105.0 1.000 1.000 1.000
v -16.0 -57.0 -6.0 1.000 1.000 1.000
v -13.0 -130.0 -98.0 1.000 1.000 1.000
v -4.0 -48.0 -12.0 1.000 1.000 1.000
v -26.0 -46.0 44.0 1.000 1.000 1.000
v -15.0 -51.0 18.0 1.000 1.000 1.000
v -7.0 -51.0 19.0 1.000 1.000 1.000
v -18.0 -43.0 42.0 1.000 1.000 1.000
v 1.0 -46.0 16.0 1.000 1.000 1.000
v -6.0 -36.0 38.0 1.000 1.000 1.000
v 17.0 -30.0 7.0 1.000 1.000 1.000
v -2.0 -23.0 30.0 1.000 1.000 1.000
v -9.0 -14.0 21.0 1.000 1.000 1.000
v 17.0 -13.0 -8.0 1.000 1.000 1.000
v 15.0 11.0 -8.0 1.000 1.000 1.000
v 6.0 24.0 -20.0 1.000 1.000 1.000
v 2.0 10.0 -20.0 1.000 1.000 1.000
v 1.0 -46.0 16.0 1.000 1.000 1.000
v -7.0 -51.0 19.0 1.000 1.000 1.000
v -16.0 -57.0 -6.0 1.000 1.000 1.000
v 1.0 -46.0 16.0 1.000 1.000 1.000
v -16.0 -57.0 -6.0 1.000 1.000 1.000
v -4.0 -48.0 -12.0 1.000 1.000 1.000
v 17.0 -30.0 7.0 1.000 1.000 1.000
v 4.0 -33.0 -31.0 1.000 1.000 1.000
v 17.0 -13.0 -8.0 1.000 1.000 1.000
v -5.0 -10.0 -36.0 1.000 1.000 1.000
v 2.0 10.0 -20.0 1.000 1.000 1.000
v -29.0 -49.0 -12.0 1.000 1.000 1.000
v -16.0 -57.0 -6.0 1.000 1.000 1.000
v -7.0 -51.0 19.0 1.000 1.000 1.000
v -15.0 -51.0 18.0 1.000 1.000 1.000
v -16.0 -64.0 -140.0 1.000 1.000 1.000
v -5.0 -10.0 -36.0 1.000 1.000 1.000
v 3.0 -66.0 -138.0 1.000 1.000 1.000
v -19.0 -3.0 -41.0 1.000 1.000 1.000
v -34.0 -67.0 -138.0 1.000 1.000 1.000
v -19.0 -3.0 -41.0 1.000 1.000 1.000
v -16.0 -64.0 -140.0 1.000 1.000 1.000
v -31.0 -11.0 -36.0 1.000 1.000 1.000
v -13.0 -130.0 -98.0 1.000 1.000 1.000
v -29.0 -49.0 -12.0 1.000 1.000 1.000
v -32.0 -120.0 -104.0 1.000 1.000 1.000
v -16.0 -57.0 -6.0 1.000 1.000 1.000
v -28.0 37.0 -10.0 1.000 1.000 1.000
v -36.0 34.0 -8.0 1.000 1.000 1.000
v -40.0 47.0 4.0 1.000 1.000 1.000
v -32.0 50.0 2.0 1.000 1.000 1.000
v -40.0 17.0 3.0 1.000 1.000 1.000
v -44.0 40.0 8.0 1.000 1.000 1.000
v -41.0 -31.0 54.0 1.000 1.000 1.000
v -37.0 -30.0 33.0 1.000 1.000 1.000
v -34.0 -43.0 42.0 1.000 1.000 1.000
v -38.0 -37.0 58.0 1.000 1.000 1.000
v -26.0 -46.0 44.0 1.000 1.000 1.000
v -30.0 -41.0 61.0 1.000 1.000 1.000
v -30.0 -36.0 68.0 1.000 1.000 1.000
v -38.0 -31.0 69.0 1.000 1.000 1.000
v -45.0 -22.0 67.0 1.000 1.000 1.000
v -48.0 55.0 32.0 1.000 1.000 1.000
v -48.0 55.0 32.0 1.000 1.000 1.000
v -40.0 57.0 21.0 1.000 1.000 1.000
v -40.0 47.0 4.0 1.000 1.000 1.000
v -32.0 50.0 2.0 1.000 1.000 1.000
v -32.0 54.0 9.0 1.000 1.000 1.000
v -45.0 10.0 51.0 1.000 1.000 1.000
v -34.0 21.0 64.0 1.000 1.000 1.000
v -34.0 21.0 64.0 1.000 1.000 1.000
v -33.0 65.0 36.0 1.000 1.000 1.000
v -24.0 57.0 21.0 1.000 1.000 1.000
v -32.0 54.0 9.0 1.000 1.000 1.000
v -33.0 65.0 36.0 1.000 1.000 1.000
v -26.0 63.0 38.0 1.000 1.000 1.000
v -33.0 -11.0 71.0 1.000 1.000 1.000
v -16.0 9.0 86.0 1.000 1.000 1.000
v -25.0 -7.0 66.0 1.000 1.000 1.000
v -22.0 8.0 91.0 1.000 1.000 1.000
v -16.0 9.0 86.0 1.000 1.000 1.000
v -33.0 -11.0 71.0 1.000 1.000 1.000
v -31.0 -21.0 79.0 1.000 1.000 1.000
v -23.0 2.0 96.0 1.000 1.000 1.000
v -37.0 -16.0 77.0 1.000 1.000 1.000
v -20.0 -4.0 99.0 1.000 1.000 1.000
v -25.0 -25.0 78.0 1.000 1.000 1.000
v -13.0 -7.0 98.0 1.000 1.000 1.000
v -19.0 -23.0 73.0 1.000 1.000 1.000
v -7.0 -6.0 93.0 1.000 1.000 1.000
v -18.0 -19.0 68.0 1.000 1.000 1.000
v -5.0 -1.0 88.0 1.000 1.000 1.000
v -21.0 -13.0 66.0 1.000 1.000 1.000
v -9.0 6.0 85.0 1.000 1.000 1.000
v -25.0 -7.0 66.0 1.000 1.000 1.000
v -30.0 -36.0 68.0 1.000 1.000 1.000
v -25.0 -25.0 78.0 1.000 1.000 1.000
v -31.0 -21.0 79.0 1.000 1.000 1.000
v -38.0 -31.0 69.0 1.000 1.000 1.000
v -41.0 -14.0 58.0 1.000 1.000 1.000
v -33.0 -11.0 71.0 1.000 1.000 1.000
v -25.0 -7.0 66.0 1.000 1.000 1.000
v -40.0 63.0 38.0 1.000 1.000 1.000
v -34.0 84.0 64.0 1.000 1.000 1.000
v -33.0 65.0 36.0 1.000 1.000 1.000
v -42.0 81.0 65.0 1.000 1.000 1.000
v -46.0 56.0 42.0 1.000 1.000 1.000
v -45.0 74.0 70.0 1.000 1.000 1.000
v -35.0 45.0 50.0 1.000 1.000 1.000
v -42.0 68.0 74.0 1.000 1.000 1.000
v -40.0 50.0 46.0 1.000 1.000 1.000
v -33.0 65.0 76.0 1.000 1.000 1.000
v -42.0 68.0 74.0 1.000 1.000 1.000
v -35.0 45.0 50.0 1.000 1.000 1.000
v -26.0 51.0 46.0 1.000 1.000 1.000
v -25.0 68.0 74.0 1.000 1.000 1.000
v -23.0 57.0 42.0 1.000 1.000 1.000
v -22.0 75.0 70.0 1.000 1.000 1.000
v -26.0 63.0 38.0 1.000 1.000 1.000
v -25.0 81.0 65.0 1.000 1.000 1.000
v -33.0 65.0 36.0 1.000 1.000 1.000
v -34.0 84.0 64.0 1.000 1.000 1.000
v -40.0 50.0 46.0 1.000 1.000 1.000
v -45.0 37.0 34.0 1.000 1.000 1.000
v -40.0 57.0 21.0 1.000 1.000 1.000
v -40.0 63.0 38.0 1.000 1.000 1.000
v -48.0 55.0 32.0 1.000 1.000 1.000
v -40.0 63.0 38.0 1.000 1.000 1.000
v -48.0 55.0 32.0 1.000 1.000 1.000
v -46.0 56.0 42.0 1.000 1.000 1.000
v -34.0 24.0 65.0 1.000 1.000 1.000
v -44.0 30.0 63.0 1.000 1.000 1.000
v -45.0 12.0 53.0 1.000 1.000 1.000
v -40.0 56.0 89.0 1.000 1.000 1.000
v -38.0 62.0 83.0 1.000 1.000 1.000
v -49.0 36.0 60.0 1.000 1.000 1.000
v -36.0 49.0 93.0 1.000 1.000 1.000
v -28.0 46.0 94.0 1.000 1.000 1.000
v -29.0 29.0 60.0 1.000 1.000 1.000
v -21.0 48.0 90.0 1.000 1.000 1.000
v -27.0 34.0 55.0 1.000 1.000 1.000
v -18.0 55.0 84.0 1.000 1.000 1.000
v -30.0 40.0 51.0 1.000 1.000 1.000
v -22.0 61.0 80.0 1.000 1.000 1.000
v -18.0 55.0 84.0 1.000 1.000 1.000
v -30.0 40.0 51.0 1.000 1.000 1.000
v -35.0 46.0 48.0 1.000 1.000 1.000
v -30.0 64.0 80.0 1.000 1.000 1.000
v -41.0 12.0 77.0 1.000 1.000 1.000
v -23.0 37.0 93.0 1.000 1.000 1.000
v -37.0 17.0 70.0 1.000 1.000 1.000
v -26.0 31.0 99.0 1.000 1.000 1.000
v -36.0 5.0 78.0 1.000 1.000 1.000
v -22.0 24.0 102.0 1.000 1.000 1.000
v -29.0 2.0 77.0 1.000 1.000 1.000
v -14.0 19.0 101.0 1.000 1.000 1.000
v -23.0 3.0 72.0 1.000 1.000 1.000
v -14.0 19.0 101.0 1.000 1.000 1.000
v -29.0 2.0 77.0 1.000 1.000 1.000
v -7.0 21.0 95.0 1.000 1.000 1.000
v -14.0 19.0 101.0 1.000 1.000 1.000
v -23.0 3.0 72.0 1.000 1.000 1.000
v -21.0 8.0 67.0 1.000 1.000 1.000
v -5.0 27.0 89.0 1.000 1.000 1.000
v -24.0 14.0 64.0 1.000 1.000 1.000
v -9.0 34.0 86.0 1.000 1.000 1.000
v -5.0 27.0 89.0 1.000 1.000 1.000
v -24.0 14.0 64.0 1.000 1.000 1.000
v -17.0 38.0 87.0 1.000 1.000 1.000
v -34.0 21.0 64.0 1.000 1.000 1.000
v -41.0 -14.0 58.0 1.000 1.000 1.000
v -25.0 -7.0 66.0 1.000 1.000 1.000
v -29.0 2.0 77.0 1.000 1.000 1.000
v -36.0 5.0 78.0 1.000 1.000 1.000
v -49.0 5.0 64.0 1.000 1.000 1.000
v -36.0 5.0 78.0 1.000 1.000 1.000
v -41.0 12.0 77.0 1.000 1.000 1.000
v -8.0 13.0 94.0 1.000 1.000 1.000
v 18.0 21.0 99.0 1.000 1.000 1.000
v -10.0 11.0 86.0 1.000 1.000 1.000
v 17.0 23.0 106.0 1.000 1.000 1.000
v -7.0 8.0 99.0 1.000 1.000 1.000
v 18.0 18.0 110.0 1.000 1.000 1.000
v -6.0 1.0 102.0 1.000 1.000 1.000
v 18.0 13.0 112.0 1.000 1.000 1.000
v -7.0 -6.0 99.0 1.000 1.000 1.000
v 21.0 8.0 109.0 1.000 1.000 1.000
v -9.0 -8.0 91.0 1.000 1.000 1.000
v 19.0 6.0 103.0 1.000 1.000 1.000
v -10.0 -4.0 85.0 1.000 1.000 1.000
v 18.0 10.0 97.0 1.000 1.000 1.000
v 19.0 6.0 103.0 1.000 1.000 1.000
v -10.0 -4.0 85.0 1.000 1.000 1.000
v -11.0 4.0 83.0 1.000 1.000 1.000
v 17.0 16.0 96.0 1.000 1.000 1.000
v -10.0 11.0 86.0 1.000 1.000 1.000
v 18.0 21.0 99.0 1.000 1.000 1.000
v -22.0 8.0 91.0 1.000 1.000 1.000
v -16.0 9.0 86.0 1.000 1.000 1.000
v -8.0 13.0 94.0 1.000 1.000 1.000
v -7.0 8.0 99.0 1.000 1.000 1.000
v -23.0 2.0 96.0 1.000 1.000 1.000
v -20.0 -4.0 99.0 1.000 1.000 1.000
v -6.0 1.0 102.0 1.000 1.000 1.000
v -7.0 -6.0 99.0 1.000 1.000 1.000
v -13.0 -7.0 98.0 1.000 1.000 1.000
v -33.0 88.0 76.0 1.000 1.000 1.000
v 5.0 93.0 104.0 1.000 1.000 1.000
v -29.0 87.0 68.0 1.000 1.000 1.000
v 2.0 94.0 110.0 1.000 1.000 1.000
v -34.0 82.0 82.0 1.000 1.000 1.000
v 1.0 87.0 101.0 1.000 1.000 1.000
v -33.0 75.0 85.0 1.000 1.000 1.000
v 1.0 82.0 104.0 1.000 1.000 1.000
v -29.0 68.0 81.0 1.000 1.000 1.000
v 5.0 78.0 114.0 1.000 1.000 1.000
v -25.0 67.0 73.0 1.000 1.000 1.000
v 8.0 77.0 107.0 1.000 1.000 1.000
v -24.0 72.0 66.0 1.000 1.000 1.000
v 9.0 81.0 102.0 1.000 1.000 1.000
v -25.0 81.0 64.0 1.000 1.000 1.000
v 8.0 88.0 100.0 1.000 1.000 1.000
v -42.0 81.0 65.0 1.000 1.000 1.000
v -33.0 88.0 76.0 1.000 1.000 1.000
v -34.0 84.0 64.0 1.000 1.000 1.000
v -34.0 82.0 82.0 1.000 1.000 1.000
v -45.0 74.0 70.0 1.000 1.000 1.000
v -42.0 68.0 74.0 1.000 1.000 1.000
v -33.0 75.0 85.0 1.000 1.000 1.000
v -33.0 65.0 76.0 1.000 1.000 1.000
v -29.0 68.0 81.0 1.000 1.000 1.000
v -29.0 87.0 68.0 1.000 1.000 1.000
v -25.0 81.0 65.0 1.000 1.000 1.000
v -24.0 70.0 91.0 1.000 1.000 1.000
v -24.0 68.0 83.0 1.000 1.000 1.000
v -30.0 64.0 80.0 1.000 1.000 1.000
v -38.0 62.0 83.0 1.000 1.000 1.000
v -24.0 64.0 97.0 1.000 1.000 1.000
v -24.0 64.0 97.0 1.000 1.000 1.000
v -38.0 62.0 83.0 1.000 1.000 1.000
v -40.0 56.0 89.0 1.000 1.000 1.000
v -23.0 57.0 101.0 1.000 1.000 1.000
v -36.0 49.0 93.0 1.000 1.000 1.000
v -22.0 49.0 97.0 1.000 1.000 1.000
v -28.0 46.0 94.0 1.000 1.000 1.000
v -22.0 61.0 80.0 1.000 1.000 1.000
v -30.0 64.0 80.0 1.000 1.000 1.000
v -24.0 68.0 83.0 1.000 1.000 1.000
v -24.0 70.0 91.0 1.000 1.000 1.000
v 0.0 67.0 101.0 1.000 1.000 1.000
v -3.0 68.0 107.0 1.000 1.000 1.000
v -5.0 63.0 111.0 1.000 1.000 1.000
v -6.0 56.0 113.0 1.000 1.000 1.000
v -4.0 51.0 109.0 1.000 1.000 1.000
v -22.0 47.0 88.0 1.000 1.000 1.000
v -4.0 51.0 109.0 1.000 1.000 1.000
v -22.0 49.0 97.0 1.000 1.000 1.000
v -1.0 50.0 103.0 1.000 1.000 1.000
v -23.0 52.0 81.0 1.000 1.000 1.000
v 2.0 55.0 98.0 1.000 1.000 1.000
v -24.0 60.0 78.0 1.000 1.000 1.000
v 2.0 61.0 97.0 1.000 1.000 1.000
v -24.0 68.0 83.0 1.000 1.000 1.000
v 0.0 67.0 101.0 1.000 1.000 1.000
v -23.0 37.0 93.0 1.000 1.000 1.000
v -10.0 40.0 89.0 1.000 1.000 1.000
v -17.0 38.0 87.0 1.000 1.000 1.000
v -9.0 42.0 97.0 1.000 1.000 1.000
v -7.0 36.0 103.0 1.000 1.000 1.000
v -7.0 36.0 103.0 1.000 1.000 1.000
v -26.0 31.0 99.0 1.000 1.000 1.000
v -22.0 24.0 102.0 1.000 1.000 1.000
v -7.0 29.0 106.0 1.000 1.000 1.000
v -8.0 21.0 102.0 1.000 1.000 1.000
v -14.0 19.0 101.0 1.000 1.000 1.000
v -17.0 38.0 87.0 1.000 1.000 1.000
v -10.0 40.0 89.0 1.000 1.000 1.000
v -11.0 32.0 84.0 1.000 1.000 1.000
v -23.0 37.0 93.0 1.000 1.000 1.000
v -9.0 42.0 97.0 1.000 1.000 1.000
v 16.0 39.0 98.0 1.000 1.000 1.000
v 15.0 40.0 105.0 1.000 1.000 1.000
v 14.0 36.0 110.0 1.000 1.000 1.000
v 14.0 30.0 113.0 1.000 1.000 1.000
v 14.0 24.0 109.0 1.000 1.000 1.000
v -10.0 19.0 94.0 1.000 1.000 1.000
v 14.0 24.0 109.0 1.000 1.000 1.000
v -8.0 21.0 102.0 1.000 1.000 1.000
v 15.0 22.0 102.0 1.000 1.000 1.000
v -11.0 24.0 86.0 1.000 1.000 1.000
v 16.0 26.0 96.0 1.000 1.000 1.000
v -11.0 32.0 84.0 1.000 1.000 1.000
v 16.0 33.0 95.0 1.000 1.000 1.000
v -10.0 40.0 89.0 1.000 1.000 1.000
v 16.0 39.0 98.0 1.000 1.000 1.000
v 9.0 57.0 0.0 1.000 1.000 1.000
v 11.0 46.0 0.0 1.000 1.000 1.000
v -4.0 49.0 -3.0 1.000 1.000 1.000
v 8.0 61.0 14.0 1.000 1.000 1.000
v -15.0 50.0 2.0 1.000 1.000 1.000
v 7.0 52.0 24.0 1.000 1.000 1.000
v 11.0 46.0 0.0 1.000 1.000 1.000
v 9.0 57.0 0.0 1.000 1.000 1.000
v 11.0 53.0 2.0 1.000 1.000 1.000
v 11.0 48.0 22.0 1.000 1.000 1.000
v 7.0 52.0 24.0 1.000 1.000 1.000
v -24.0 57.0 21.0 1.000 1.000 1.000
v -15.0 50.0 2.0 1.000 1.000 1.000
v -24.0 57.0 21.0 1.000 1.000 1.000
v 7.0 52.0 24.0 1.000 1.000 1.000
v -32.0 50.0 2.0 1.000 1.000 1.000
v -32.0 54.0 9.0 1.000 1.000 1.000
v -28.0 37.0 -10.0 1.000 1.000 1.000
v -16.0 37.0 -11.0 1.000 1.000 1.000
v 6.0 24.0 -20.0 1.000 1.000 1.000
v -4.0 49.0 -3.0 1.000 1.000 1.000
v -21.0 -13.0 66.0 1.000 1.000 1.000
v -22.0 -14.0 58.0 1.000 1.000 1.000
v -25.0 -7.0 66.0 1.000 1.000 1.000
v -18.0 -19.0 68.0 1.000 1.000 1.000
v -18.0 -22.0 68.0 1.000 1.000 1.000
v -19.0 -23.0 73.0 1.000 1.000 1.000
v -23.0 57.0 42.0 1.000 1.000 1.000
v -21.0 52.0 35.0 1.000 1.000 1.000
v -24.0 57.0 21.0 1.000 1.000 1.000
v -26.0 63.0 38.0 1.000 1.000 1.000
v -26.0 51.0 46.0 1.000 1.000 1.000
v -25.0 37.0 34.0 1.000 1.000 1.000
v 15.0 39.0 9.0 1.000 1.000 1.000
v 11.0 46.0 0.0 1.000 1.000 1.000
v 11.0 53.0 2.0 1.000 1.000 1.000
v 15.0 50.0 11.0 1.000 1.000 1.000
v 15.0 39.0 9.0 1.000 1.000 1.000
v 15.0 50.0 11.0 1.000 1.000 1.000
v 11.0 47.0 18.0 1.000 1.000 1.000
v 11.0 22.0 22.0 1.000 1.000 1.000
v 11.0 47.0 23.0 1.000 1.000 1.000
v -12.0 22.0 26.0 1.000 1.000 1.000
v 11.0 48.0 22.0 1.000 1.000 1.000
v -24.0 57.0 21.0 1.000 1.000 1.000
v -21.0 52.0 35.0 1.000 1.000 1.000
v -12.0 22.0 26.0 1.000 1.000 1.000
v -24.0 57.0 21.0 1.000 1.000 1.000
v -17.0 -21.0 48.0 1.000 1.000 1.000
v -21.0 -11.0 42.0 1.000 1.000 1.000
v -22.0 -14.0 58.0 1.000 1.000 1.000
v -18.0 -22.0 68.0 1.000 1.000 1.000
v -22.0 8.0 63.0 1.000 1.000 1.000
v -21.0 3.0 33.0 1.000 1.000 1.000
v -29.0 14.0 49.0 1.000 1.000 1.000
v -2.0 -23.0 30.0 1.000 1.000 1.000
v -9.0 -14.0 21.0 1.000 1.000 1.000
v -21.0 -11.0 42.0 1.000 1.000 1.000
v -17.0 -21.0 48.0 1.000 1.000 1.000
v -6.0 -36.0 38.0 1.000 1.000 1.000
v -17.0 -31.0 55.0 1.000 1.000 1.000
v -22.0 -37.0 59.0 1.000 1.000 1.000
v -18.0 -43.0 42.0 1.000 1.000 1.000
v -30.0 -41.0 61.0 1.000 1.000 1.000
v -26.0 -46.0 44.0 1.000 1.000 1.000
v -12.0 22.0 26.0 1.000 1.000 1.000
v -21.0 52.0 35.0 1.000 1.000 1.000
v -25.0 37.0 34.0 1.000 1.000 1.000
v -12.0 22.0 26.0 1.000 1.000 1.000
v -25.0 37.0 34.0 1.000 1.000 1.000
v -25.0 28.0 50.0 1.000 1.000 1.000
v -16.0 7.0 33.0 1.000 1.000 1.000
v -21.0 3.0 33.0 1.000 1.000 1.000
v -29.0 14.0 49.0 1.000 1.000 1.000
v -21.0 -11.0 42.0 1.000 1.000 1.000
v -22.0 8.0 63.0 1.000 1.000 1.000
v -22.0 -14.0 58.0 1.000 1.000 1.000
v -17.0 -21.0 48.0 1.000 1.000 1.000
v -18.0 -22.0 68.0 1.000 1.000 1.000
v -17.0 -31.0 55.0 1.000 1.000 1.000
v -22.0 -31.0 69.0 1.000 1.000 1.000
v -22.0 -37.0 59.0 1.000 1.000 1.000
v -30.0 -36.0 68.0 1.000 1.000 1.000
v -30.0 -41.0 61.0 1.000 1.000 1.000
v 15.0 11.0 -8.0 1.000 1.000 1.000
v 6.0 24.0 -20.0 1.000 1.000 1.000
v 11.0 46.0 0.0 1.000 1.000 1.000
v 15.0 39.0 9.0 1.000 1.000 1.000
v 11.0 22.0 22.0 1.000 1.000 1.000
v -9.0 -14.0 21.0 1.000 1.000 1.000
v -12.0 22.0 26.0 1.000 1.000 1.000
v -16.0 7.0 33.0 1.000 1.000 1.000
v -21.0 3.0 33.0 1.000 1.000 1.000
v -21.0 -11.0 42.0 1.000 1.000 1.000
v -22.0 8.0 63.0 1.000 1.000 1.000
v -21.0 8.0 67.0 1.000 1.000 1.000
v -22.0 -14.0 58.0 1.000 1.000 1.000
v -23.0 3.0 72.0 1.000 1.000 1.000
v -29.0 2.0 77.0 1.000 1.000 1.000
v -24.0 14.0 64.0 1.000 1.000 1.000
v -22.0 8.0 63.0 1.000 1.000 1.000
v -29.0 14.0 49.0 1.000 1.000 1.000
v -24.0 14.0 64.0 1.000 1.000 1.000
v -6.0 8.0 30.0 1.000 1.000 1.000
v -6.0 33.0 30.0 1.000 1.000 1.000
v 7.0 33.0 30.0 1.000 1.000 1.000
v 7.0 8.0 30.0 1.000 1.000 1.000
v -6.0 66.0 30.0 1.000 1.000 1.000
v 7.0 66.0 30.0 1.000 1.000 1.000
v -6.0 135.0 23.0 1.000 1.000 1.000
v -6.0 135.0 30.0 1.000 1.000 1.000
v 7.0 135.0 30.0 1.000 1.000 1.000
v 7.0 135.0 23.0 1.000 1.000 1.000
v -6.0 100.0 23.0 1.000 1.000 1.000
v -6.0 135.0 23.0 1.000 1.000 1.000
v 7.0 135.0 23.0 1.000 1.000 1.000
v 7.0 100.0 23.0 1.000 1.000 1.000
v -4.0 97.0 24.0 1.000 1.000 1.000
v -6.0 97.0 24.0 1.000 1.000 1.000
v -6.0 100.0 23.0 1.000 1.000 1.000
v 7.0 100.0 23.0 1.000 1.000 1.000
v 7.0 97.0 24.0 1.000 1.000 1.000
v 5.0 97.0 24.0 1.000 1.000 1.000
v 7.0 97.0 24.0 1.000 1.000 1.000
v 7.0 82.0 30.0 1.000 1.000 1.000
v 5.0 82.0 30.0 1.000 1.000 1.000
v 5.0 82.0 30.0 1.000 1.000 1.000
v 7.0 82.0 30.0 1.000 1.000 1.000
v 7.0 66.0 30.0 1.000 1.000 1.000
v 5.0 66.0 30.0 1.000 1.000 1.000
v -4.0 66.0 30.0 1.000 1.000 1.000
v -4.0 89.0 16.0 1.000 1.000 1.000
v 5.0 89.0 16.0 1.000 1.000 1.000
v 5.0 66.0 30.0 1.000 1.000 1.000
v 5.0 66.0 30.0 1.000 1.000 1.000
v 5.0 89.0 16.0 1.000 1.000 1.000
v 5.0 102.0 30.0 1.000 1.000 1.000
v -4.0 102.0 30.0 1.000 1.000 1.000
v -4.0 89.0 16.0 1.000 1.000 1.000
v -4.0 66.0 30.0 1.000 1.000 1.000
v -4.0 89.0 16.0 1.000 1.000 1.000
v -4.0 102.0 30.0 1.000 1.000 1.000
v 5.0 102.0 30.0 1.000 1.000 1.000
v 5.0 89.0 16.0 1.000 1.000 1.000
v -6.0 66.0 30.0 1.000 1.000 1.000
v -6.0 82.0 30.0 1.000 1.000 1.000
v -4.0 82.0 30.0 1.000 1.000 1.000
v -4.0 66.0 30.0 1.000 1.000 1.000
v -4.0 97.0 24.0 1.000 1.000 1.000
v -4.0 82.0 30.0 1.000 1.000 1.000
v -6.0 82.0 30.0 1.000 1.000 1.000
v -6.0 97.0 24.0 1.000 1.000 1.000
v -6.0 135.0 30.0 1.000 1.000 1.000
v -6.0 135.0 23.0 1.000 1.000 1.000
v -6.0 100.0 23.0 1.000 1.000 1.000
v -6.0 82.0 30.0 1.000 1.000 1.000
v -13.0 1.0 55.0 1.000 1.000 1.000
v -13.0 135.0 55.0 1.000 1.000 1.000
v -6.0 135.0 30.0 1.000 1.000 1.000
v -6.0 8.0 30.0 1.000 1.000 1.000
v -13.0 1.0 74.0 1.000 1.000 1.000
v -13.0 135.0 74.0 1.000 1.000 1.000
v -6.0 8.0 99.0 1.000 1.000 1.000
v -6.0 135.0 99.0 1.000 1.000 1.000
v 8.0 8.0 99.0 1.000 1.000 1.000
v 8.0 33.0 99.0 1.000 1.000 1.000
v -6.0 33.0 99.0 1.000 1.000 1.000
v -6.0 8.0 99.0 1.000 1.000 1.000
v 8.0 135.0 55.0 1.000 1.000 1.000
v 7.0 135.0 30.0 1.000 1.000 1.000
v -6.0 135.0 30.0 1.000 1.000 1.000
v -13.0 135.0 55.0 1.000 1.000 1.000
v 8.0 135.0 99.0 1.000 1.000 1.000
v 8.0 135.0 74.0 1.000 1.000 1.000
v -13.0 135.0 74.0 1.000 1.000 1.000
v -6.0 135.0 99.0 1.000 1.000 1.000
v 8.0 33.0 99.0 1.000 1.000 1.000
v 8.0 40.0 99.0 1.000 1.000 1.000
v -6.0 40.0 99.0 1.000 1.000 1.000
v -6.0 33.0 99.0 1.000 1.000 1.000
v 8.0 59.0 99.0 1.000 1.000 1.000
v 8.0 135.0 99.0 1.000 1.000 1.000
v -6.0 135.0 99.0 1.000 1.000 1.000
v -6.0 59.0 99.0 1.000 1.000 1.000
v 8.0 40.0 99.0 1.000 1.000 1.000
v 8.0 59.0 99.0 1.000 1.000 1.000
v -6.0 59.0 99.0 1.000 1.000 1.000
v -6.0 40.0 99.0 1.000 1.000 1.000
v -13.0 1.0 55.0 1.000 1.000 1.000
v -6.0 8.0 30.0 1.000 1.000 1.000
v 7.0 8.0 30.0 1.000 1.000 1.000
v 8.0 1.0 55.0 1.000 1.000 1.000
v -6.0 8.0 99.0 1.000 1.000 1.000
v -13.0 1.0 74.0 1.000 1.000 1.000
v 8.0 1.0 74.0 1.000 1.000 1.000
v 8.0 8.0 99.0 1.000 1.000 1.000
v -13.0 1.0 74.0 1.000 1.000 1.000
v -13.0 1.0 55.0 1.000 1.000 1.000
v 8.0 1.0 55.0 1.000 1.000 1.000
v 8.0 1.0 74.0 1.000 1.000 1.000
v 8.0 135.0 74.0 1.000 1.000 1.000
v 8.0 135.0 55.0 1.000 1.000 1.000
v -13.0 135.0 55.0 1.000 1.000 1.000
v -13.0 135.0 74.0 1.000 1.000 1.000
v 5.0 135.0 30.0 1.000 1.000 1.000
v 5.0 158.0 30.0 1.000 1.000 1.000
v 3.0 151.0 37.0 1.000 1.000 1.000
v 3.0 135.0 37.0 1.000 1.000 1.000
v 3.0 135.0 27.0 1.000 1.000 1.000
v 3.0 151.0 27.0 1.000 1.000 1.000
v 5.0 158.0 30.0 1.000 1.000 1.000
v 5.0 135.0 30.0 1.000 1.000 1.000
v 5.0 135.0 92.0 1.000 1.000 1.000
v 5.0 158.0 92.0 1.000 1.000 1.000
v 3.0 151.0 94.0 1.000 1.000 1.000
v 3.0 135.0 94.0 1.000 1.000 1.000
v 3.0 135.0 85.0 1.000 1.000 1.000
v 3.0 151.0 85.0 1.000 1.000 1.000
v 5.0 158.0 92.0 1.000 1.000 1.000
v 5.0 135.0 92.0 1.000 1.000 1.000
v 7.0 82.0 30.0 1.000 1.000 1.000
v 7.0 100.0 23.0 1.000 1.000 1.000
v 7.0 135.0 23.0 1.000 1.000 1.000
v 7.0 135.0 30.0 1.000 1.000 1.000
v 7.0 40.0 46.0 1.000 1.000 1.000
v 7.0 56.0 36.0 1.000 1.000 1.000
v 7.0 59.0 46.0 1.000 1.000 1.000
v 7.0 61.0 41.0 1.000 1.000 1.000
v 7.0 57.0 41.0 1.000 1.000 1.000
v 8.0 1.0 55.0 1.000 1.000 1.000
v 7.0 33.0 30.0 1.000 1.000 1.000
v 7.0 66.0 30.0 1.000 1.000 1.000
v 7.0 25.0 30.0 1.000 1.000 1.000
v 7.0 27.0 35.0 1.000 1.000 1.000
v 7.0 72.0 37.0 1.000 1.000 1.000
v 8.0 72.0 92.0 1.000 1.000 1.000
v 7.0 59.0 46.0 1.000 1.000 1.000
v 8.0 72.0 92.0 1.000 1.000 1.000
v 8.0 59.0 83.0 1.000 1.000 1.000
v 8.0 72.0 92.0 1.000 1.000 1.000
v 8.0 59.0 99.0 1.000 1.000 1.000
v 7.0 82.0 30.0 1.000 1.000 1.000
v 7.0 72.0 37.0 1.000 1.000 1.000
v 7.0 66.0 30.0 1.000 1.000 1.000
v 8.0 1.0 74.0 1.000 1.000 1.000
v 8.0 1.0 55.0 1.000 1.000 1.000
v 7.0 40.0 46.0 1.000 1.000 1.000
v 8.0 40.0 83.0 1.000 1.000 1.000
v 8.0 8.0 99.0 1.000 1.000 1.000
v 8.0 33.0 92.0 1.000 1.000 1.000
v 8.0 40.0 92.0 1.000 1.000 1.000
v 8.0 33.0 99.0 1.000 1.000 1.000
v 8.0 114.0 92.0 1.000 1.000 1.000
v 8.0 135.0 99.0 1.000 1.000 1.000
v 8.0 59.0 99.0 1.000 1.000 1.000
v 8.0 72.0 92.0 1.000 1.000 1.000
v 7.0 114.0 37.0 1.000 1.000 1.000
v 7.0 135.0 30.0 1.000 1.000 1.000
v 7.0 64.0 36.0 1.000 1.000 1.000
v 7.0 72.0 37.0 1.000 1.000 1.000
v 7.0 59.0 46.0 1.000 1.000 1.000
v 7.0 66.0 30.0 1.000 1.000 1.000
v 7.0 56.0 36.0 1.000 1.000 1.000
v 7.0 82.0 30.0 1.000 1.000 1.000
v 7.0 56.0 36.0 1.000 1.000 1.000
v 7.0 64.0 36.0 1.000 1.000 1.000
v 7.0 61.0 41.0 1.000 1.000 1.000
v 7.0 57.0 41.0 1.000 1.000 1.000
v 8.0 1.0 55.0 1.000 1.000 1.000
v 7.0 3.0 46.0 1.000 1.000 1.000
v 7.0 8.0 50.0 1.000 1.000 1.000
v 8.0 33.0 99.0 1.000 1.000 1.000
v 8.0 33.0 92.0 1.000 1.000 1.000
v 8.0 40.0 92.0 1.000 1.000 1.000
v 8.0 40.0 99.0 1.000 1.000 1.000
v 7.0 3.0 46.0 1.000 1.000 1.000
v 7.0 8.0 30.0 1.000 1.000 1.000
v 7.0 25.0 30.0 1.000 1.000 1.000
v 7.0 27.0 35.0 1.000 1.000 1.000
v 7.0 8.0 50.0 1.000 1.000 1.000
v 8.0 40.0 99.0 1.000 1.000 1.000
v 8.0 40.0 83.0 1.000 1.000 1.000
v 8.0 59.0 83.0 1.000 1.000 1.000
v 8.0 59.0 99.0 1.000 1.000 1.000
v 8.0 40.0 83.0 1.000 1.000 1.000
v 7.0 40.0 46.0 1.000 1.000 1.000
v 7.0 59.0 46.0 1.000 1.000 1.000
v 8.0 59.0 83.0 1.000 1.000 1.000
v 7.0 28.0 58.0 1.000 1.000 1.000
v 7.0 29.0 48.0 1.000 1.000 1.000
v 7.0 38.0 48.0 1.000 1.000 1.000
v 7.0 37.0 58.0 1.000 1.000 1.000
v 8.0 132.0 76.0 1.000 1.000 1.000
v 8.0 132.0 95.0 1.000 1.000 1.000
v 8.0 123.0 95.0 1.000 1.000 1.000
v 8.0 122.0 76.0 1.000 1.000 1.000
v 7.0 123.0 56.0 1.000 1.000 1.000
v 7.0 133.0 56.0 1.000 1.000 1.000
v 8.0 132.0 76.0 1.000 1.000 1.000
v 8.0 122.0 76.0 1.000 1.000 1.000
v 9.0 79.0 44.0 1.000 1.000 1.000
v 9.0 79.0 85.0 1.000 1.000 1.000
v 8.0 72.0 85.0 1.000 1.000 1.000
v 7.0 72.0 44.0 1.000 1.000 1.000
v 9.0 79.0 37.0 1.000 1.000 1.000
v 10.0 91.0 37.0 1.000 1.000 1.000
v 9.0 79.0 44.0 1.000 1.000 1.000
v 11.0 91.0 92.0 1.000 1.000 1.000
v 9.0 79.0 85.0 1.000 1.000 1.000
v 9.0 79.0 92.0 1.000 1.000 1.000
v 8.0 114.0 92.0 1.000 1.000 1.000
v 8.0 72.0 92.0 1.000 1.000 1.000
v 15.0 114.0 92.0 1.000 1.000 1.000
v 7.0 72.0 37.0 1.000 1.000 1.000
v 7.0 114.0 37.0 1.000 1.000 1.000
v 14.0 114.0 37.0 1.000 1.000 1.000
v 7.0 72.0 37.0 1.000 1.000 1.000
v 9.0 79.0 37.0 1.000 1.000 1.000
v 9.0 79.0 44.0 1.000 1.000 1.000
v 7.0 72.0 44.0 1.000 1.000 1.000
v 9.0 79.0 85.0 1.000 1.000 1.000
v 9.0 79.0 92.0 1.000 1.000 1.000
v 8.0 72.0 92.0 1.000 1.000 1.000
v 8.0 72.0 85.0 1.000 1.000 1.000
v 14.0 111.0 89.0 1.000 1.000 1.000
v 15.0 114.0 92.0 1.000 1.000 1.000
v 11.0 91.0 92.0 1.000 1.000 1.000
v 11.0 94.0 89.0 1.000 1.000 1.000
v 14.0 111.0 64.0 1.000 1.000 1.000
v 14.0 111.0 89.0 1.000 1.000 1.000
v 11.0 94.0 89.0 1.000 1.000 1.000
v 11.0 94.0 64.0 1.000 1.000 1.000
v 11.0 94.0 89.0 1.000 1.000 1.000
v 11.0 91.0 92.0 1.000 1.000 1.000
v 11.0 91.0 64.0 1.000 1.000 1.000
v 11.0 94.0 64.0 1.000 1.000 1.000
v 14.0 114.0 64.0 1.000 1.000 1.000
v 15.0 114.0 92.0 1.000 1.000 1.000
v 14.0 111.0 89.0 1.000 1.000 1.000
v 14.0 111.0 64.0 1.000 1.000 1.000
v 10.0 91.0 37.0 1.000 1.000 1.000
v 14.0 114.0 37.0 1.000 1.000 1.000
v 14.0 111.0 40.0 1.000 1.000 1.000
v 11.0 94.0 40.0 1.000 1.000 1.000
v 14.0 111.0 40.0 1.000 1.000 1.000
v 14.0 111.0 64.0 1.000 1.000 1.000
v 11.0 94.0 64.0 1.000 1.000 1.000
v 11.0 94.0 40.0 1.000 1.000 1.000
v 11.0 91.0 64.0 1.000 1.000 1.000
v 10.0 91.0 37.0 1.000 1.000 1.000
v 11.0 94.0 40.0 1.000 1.000 1.000
v 11.0 94.0 64.0 1.000 1.000 1.000
v 14.0 111.0 40.0 1.000 1.000 1.000
v 14.0 114.0 37.0 1.000 1.000 1.000
v 14.0 114.0 64.0 1.000 1.000 1.000
v 14.0 111.0 64.0 1.000 1.000 1.000
v 14.0 114.0 37.0 1.000 1.000 1.000
v 7.0 114.0 37.0 1.000 1.000 1.000
v 8.0 114.0 92.0 1.000 1.000 1.000
v 15.0 114.0 92.0 1.000 1.000 1.000
v 14.0 109.0 43.0 1.000 1.000 1.000
v 14.0 109.0 85.0 1.000 1.000 1.000
v 12.0 96.0 85.0 1.000 1.000 1.000
v 11.0 96.0 44.0 1.000 1.000 1.000
v 10.0 83.0 21.0 1.000 1.000 1.000
v 11.0 69.0 13.0 1.000 1.000 1.000
v 8.0 87.0 17.0 1.000 1.000 1.000
v 9.0 74.0 6.0 1.000 1.000 1.000
v 2.0 87.0 14.0 1.000 1.000 1.000
v 8.0 74.0 4.0 1.000 1.000 1.000
v -3.0 86.0 13.0 1.000 1.000 1.000
v 1.0 72.0 3.0 1.000 1.000 1.000
v -6.0 81.0 13.0 1.000 1.000 1.000
v -7.0 66.0 5.0 1.000 1.000 1.000
v -5.0 76.0 21.0 1.000 1.000 1.000
v -9.0 61.0 18.0 1.000 1.000 1.000
v 3.0 76.0 24.0 1.000 1.000 1.000
v 6.0 67.0 18.0 1.000 1.000 1.000
v 7.0 80.0 22.0 1.000 1.000 1.000
v 13.0 65.0 16.0 1.000 1.000 1.000
v 8.0 87.0 17.0 1.000 1.000 1.000
v -5.0 85.0 19.0 1.000 1.000 1.000
v 5.0 87.0 21.0 1.000 1.000 1.000
v 2.0 87.0 14.0 1.000 1.000 1.000
v -3.0 86.0 13.0 1.000 1.000 1.000
v 10.0 83.0 21.0 1.000 1.000 1.000
v 7.0 80.0 22.0 1.000 1.000 1.000
v -6.0 81.0 13.0 1.000 1.000 1.000
v -5.0 76.0 21.0 1.000 1.000 1.000
v 3.0 76.0 24.0 1.000 1.000 1.000
v 4.0 68.0 1.0 1.000 1.000 1.000
v 9.0 57.0 0.0 1.000 1.000 1.000
v -9.0 64.0 5.0 1.000 1.000 1.000
v 8.0 61.0 14.0 1.000 1.000 1.000
v -8.0 59.0 14.0 1.000 1.000 1.000
v 7.0 52.0 24.0 1.000 1.000 1.000
v -8.0 59.0 14.0 1.000 1.000 1.000
v 7.0 52.0 24.0 1.000 1.000 1.000
v 4.0 56.0 19.0 1.000 1.000 1.000
v 11.0 48.0 22.0 1.000 1.000 1.000
v 11.0 68.0 1.0 1.000 1.000 1.000
v 11.0 53.0 2.0 1.000 1.000 1.000
v 4.0 68.0 1.0 1.000 1.000 1.000
v 9.0 57.0 0.0 1.000 1.000 1.000
v 8.0 74.0 4.0 1.000 1.000 1.000
v 9.0 74.0 6.0 1.000 1.000 1.000
v 1.0 72.0 3.0 1.000 1.000 1.000
v -7.0 66.0 5.0 1.000 1.000 1.000
v -9.0 61.0 18.0 1.000 1.000 1.000
v -9.0 64.0 5.0 1.000 1.000 1.000
v 6.0 67.0 18.0 1.000 1.000 1.000
v 4.0 56.0 19.0 1.000 1.000 1.000
v 11.0 48.0 22.0 1.000 1.000 1.000
v 11.0 56.0 19.0 1.000 1.000 1.000
v 11.0 47.0 23.0 1.000 1.000 1.000
v 9.0 59.0 18.0 1.000 1.000 1.000
v 11.0 47.0 18.0 1.000 1.000 1.000
v 11.0 65.0 6.0 1.000 1.000 1.000
v 15.0 50.0 11.0 1.000 1.000 1.000
v 11.0 68.0 1.0 1.000 1.000 1.000
v 11.0 53.0 2.0 1.000 1.000 1.000
v 11.0 69.0 13.0 1.000 1.000 1.000
v 9.0 74.0 6.0 1.000 1.000 1.000
v 13.0 65.0 16.0 1.000 1.000 1.000
v 4.0 56.0 19.0 1.000 1.000 1.000
v 11.0 56.0 19.0 1.000 1.000 1.000
v 6.0 67.0 18.0 1.000 1.000 1.000
v 6.0 67.0 18.0 1.000 1.000 1.000
v 11.0 56.0 19.0 1.000 1.000 1.000
v 13.0 65.0 16.0 1.000 1.000 1.000
v 11.0 92.0 102.0 1.000 1.000 1.000
v 5.0 93.0 104.0 1.000 1.000 1.000
v 16.0 92.0 106.0 1.000 1.000 1.000
v 2.0 94.0 110.0 1.000 1.000 1.000
v 17.0 86.0 110.0 1.000 1.000 1.000
v 1.0 87.0 101.0 1.000 1.000 1.000
v 16.0 81.0 113.0 1.000 1.000 1.000
v 1.0 82.0 104.0 1.000 1.000 1.000
v 5.0 78.0 114.0 1.000 1.000 1.000
v 11.0 77.0 112.0 1.000 1.000 1.000
v 8.0 88.0 100.0 1.000 1.000 1.000
v 15.0 40.0 105.0 1.000 1.000 1.000
v 19.0 37.0 95.0 1.000 1.000 1.000
v 16.0 39.0 98.0 1.000 1.000 1.000
v 25.0 34.0 97.0 1.000 1.000 1.000
v 14.0 36.0 110.0 1.000 1.000 1.000
v 26.0 28.0 100.0 1.000 1.000 1.000
v 25.0 34.0 97.0 1.000 1.000 1.000
v 14.0 36.0 110.0 1.000 1.000 1.000
v 24.0 23.0 103.0 1.000 1.000 1.000
v 14.0 30.0 113.0 1.000 1.000 1.000
v 18.0 21.0 104.0 1.000 1.000 1.000
v 14.0 24.0 109.0 1.000 1.000 1.000
v 16.0 39.0 98.0 1.000 1.000 1.000
v 19.0 37.0 95.0 1.000 1.000 1.000
v 13.0 35.0 97.0 1.000 1.000 1.000
v 28.0 53.0 90.0 1.000 1.000 1.000
v 26.0 41.0 85.0 1.000 1.000 1.000
v 30.0 49.0 83.0 1.000 1.000 1.000
v 26.0 47.0 92.0 1.000 1.000 1.000
v 23.0 42.0 92.0 1.000 1.000 1.000
v 25.0 56.0 85.0 1.000 1.000 1.000
v 30.0 49.0 83.0 1.000 1.000 1.000
v 22.0 55.0 83.0 1.000 1.000 1.000
v 25.0 56.0 85.0 1.000 1.000 1.000
v 26.0 41.0 85.0 1.000 1.000 1.000
v 23.0 42.0 92.0 1.000 1.000 1.000
v 18.0 40.0 88.0 1.000 1.000 1.000
v 17.0 43.0 85.0 1.000 1.000 1.000
v 18.0 49.0 82.0 1.000 1.000 1.000
v 6.0 64.0 99.0 1.000 1.000 1.000
v 28.0 53.0 90.0 1.000 1.000 1.000
v 11.0 62.0 104.0 1.000 1.000 1.000
v 26.0 47.0 92.0 1.000 1.000 1.000
v 10.0 56.0 107.0 1.000 1.000 1.000
v 8.0 51.0 110.0 1.000 1.000 1.000
v 1.0 49.0 108.0 1.000 1.000 1.000
v -4.0 51.0 104.0 1.000 1.000 1.000
v 18.0 49.0 82.0 1.000 1.000 1.000
v -4.0 51.0 104.0 1.000 1.000 1.000
v -4.0 59.0 99.0 1.000 1.000 1.000
v 22.0 55.0 83.0 1.000 1.000 1.000
v -1.0 62.0 98.0 1.000 1.000 1.000
v 25.0 56.0 85.0 1.000 1.000 1.000
v 6.0 64.0 99.0 1.000 1.000 1.000
v 0.0 67.0 101.0 1.000 1.000 1.000
v 2.0 61.0 97.0 1.000 1.000 1.000
v -6.0 56.0 113.0 1.000 1.000 1.000
v -4.0 51.0 109.0 1.000 1.000 1.000
v 1.0 49.0 108.0 1.000 1.000 1.000
v 8.0 51.0 110.0 1.000 1.000 1.000
v -5.0 63.0 111.0 1.000 1.000 1.000
v 10.0 56.0 107.0 1.000 1.000 1.000
v 11.0 62.0 104.0 1.000 1.000 1.000
v 11.0 62.0 104.0 1.000 1.000 1.000
v -3.0 68.0 107.0 1.000 1.000 1.000
v -5.0 63.0 111.0 1.000 1.000 1.000
v 6.0 64.0 99.0 1.000 1.000 1.000
v 0.0 67.0 101.0 1.000 1.000 1.000
v 21.0 83.0 89.0 1.000 1.000 1.000
v 11.0 92.0 102.0 1.000 1.000 1.000
v 24.0 83.0 94.0 1.000 1.000 1.000
v 16.0 92.0 106.0 1.000 1.000 1.000
v 24.0 77.0 98.0 1.000 1.000 1.000
v 17.0 86.0 110.0 1.000 1.000 1.000
v 22.0 72.0 101.0 1.000 1.000 1.000
v 16.0 81.0 113.0 1.000 1.000 1.000
v 18.0 68.0 98.0 1.000 1.000 1.000
v 11.0 77.0 112.0 1.000 1.000 1.000
v 17.0 69.0 95.0 1.000 1.000 1.000
v 17.0 69.0 95.0 1.000 1.000 1.000
v 11.0 77.0 112.0 1.000 1.000 1.000
v 6.0 77.0 108.0 1.000 1.000 1.000
v 16.0 74.0 90.0 1.000 1.000 1.000
v 4.0 82.0 103.0 1.000 1.000 1.000
v 19.0 80.0 88.0 1.000 1.000 1.000
v 6.0 88.0 101.0 1.000 1.000 1.000
v 21.0 83.0 89.0 1.000 1.000 1.000
v 11.0 92.0 102.0 1.000 1.000 1.000
v 24.0 83.0 94.0 1.000 1.000 1.000
v 27.0 69.0 95.0 1.000 1.000 1.000
v 29.0 77.0 90.0 1.000 1.000 1.000
v 24.0 77.0 98.0 1.000 1.000 1.000
v 22.0 72.0 101.0 1.000 1.000 1.000
v 18.0 68.0 98.0 1.000 1.000 1.000
v 15.0 32.0 85.0 1.000 1.000 1.000
v 19.0 37.0 95.0 1.000 1.000 1.000
v 24.0 29.0 89.0 1.000 1.000 1.000
v 25.0 34.0 97.0 1.000 1.000 1.000
v 24.0 29.0 89.0 1.000 1.000 1.000
v 25.0 34.0 97.0 1.000 1.000 1.000
v 23.0 24.0 92.0 1.000 1.000 1.000
v 26.0 28.0 100.0 1.000 1.000 1.000
v 26.0 28.0 100.0 1.000 1.000 1.000
v 20.0 18.0 94.0 1.000 1.000 1.000
v 24.0 23.0 103.0 1.000 1.000 1.000
v 14.0 16.0 91.0 1.000 1.000 1.000
v 18.0 21.0 104.0 1.000 1.000 1.000
v 13.0 18.0 88.0 1.000 1.000 1.000
v 12.0 23.0 103.0 1.000 1.000 1.000
v 7.0 24.0 85.0 1.000 1.000 1.000
v 7.0 24.0 85.0 1.000 1.000 1.000
v 12.0 23.0 103.0 1.000 1.000 1.000
v 10.0 29.0 100.0 1.000 1.000 1.000
v 11.0 30.0 84.0 1.000 1.000 1.000
v 13.0 35.0 97.0 1.000 1.000 1.000
v 15.0 32.0 85.0 1.000 1.000 1.000
v 15.0 32.0 85.0 1.000 1.000 1.000
v 13.0 35.0 97.0 1.000 1.000 1.000
v 19.0 37.0 95.0 1.000 1.000 1.000
v 24.0 29.0 89.0 1.000 1.000 1.000
v 17.0 16.0 87.0 1.000 1.000 1.000
v 20.0 24.0 83.0 1.000 1.000 1.000
v 23.0 24.0 92.0 1.000 1.000 1.000
v 20.0 18.0 94.0 1.000 1.000 1.000
v 14.0 16.0 91.0 1.000 1.000 1.000
v 13.0 18.0 88.0 1.000 1.000 1.000
v 14.0 10.0 78.0 1.000 1.000 1.000
v 20.0 19.0 96.0 1.000 1.000 1.000
v 20.0 8.0 78.0 1.000 1.000 1.000
v 26.0 18.0 97.0 1.000 1.000 1.000
v 21.0 3.0 80.0 1.000 1.000 1.000
v 28.0 13.0 99.0 1.000 1.000 1.000
v 21.0 -3.0 83.0 1.000 1.000 1.000
v 28.0 8.0 102.0 1.000 1.000 1.000
v 16.0 -5.0 85.0 1.000 1.000 1.000
v 21.0 5.0 103.0 1.000 1.000 1.000
v 14.0 -2.0 85.0 1.000 1.000 1.000
v 16.0 7.0 103.0 1.000 1.000 1.000
v 11.0 3.0 83.0 1.000 1.000 1.000
v 13.0 12.0 101.0 1.000 1.000 1.000
v 12.0 8.0 80.0 1.000 1.000 1.000
v 15.0 17.0 98.0 1.000 1.000 1.000
v 20.0 8.0 78.0 1.000 1.000 1.000
v 17.0 -5.0 76.0 1.000 1.000 1.000
v 16.0 3.0 72.0 1.000 1.000 1.000
v 21.0 3.0 80.0 1.000 1.000 1.000
v 21.0 -3.0 83.0 1.000 1.000 1.000
v 14.0 10.0 78.0 1.000 1.000 1.000
v 12.0 8.0 80.0 1.000 1.000 1.000
v 16.0 -5.0 85.0 1.000 1.000 1.000
v 14.0 -2.0 85.0 1.000 1.000 1.000
v 11.0 3.0 83.0 1.000 1.000 1.000
v 17.0 23.0 106.0 1.000 1.000 1.000
v 20.0 19.0 96.0 1.000 1.000 1.000
v 18.0 21.0 99.0 1.000 1.000 1.000
v 26.0 18.0 97.0 1.000 1.000 1.000
v 18.0 18.0 110.0 1.000 1.000 1.000
v 28.0 13.0 99.0 1.000 1.000 1.000
v 28.0 13.0 99.0 1.000 1.000 1.000
v 18.0 18.0 110.0 1.000 1.000 1.000
v 18.0 13.0 112.0 1.000 1.000 1.000
v 28.0 8.0 102.0 1.000 1.000 1.000
v 21.0 8.0 109.0 1.000 1.000 1.000
v 21.0 5.0 103.0 1.000 1.000 1.000
v 18.0 21.0 99.0 1.000 1.000 1.000
v 20.0 19.0 96.0 1.000 1.000 1.000
v 15.0 17.0 98.0 1.000 1.000 1.000
vt 0.3896 0.8203
vt 0.2207 0.6875
vt 0.2305 0.8252
vt 0.3984 0.9434
vt 0.2373 0.9209
vt 0.4004 0.9766
vt 0.3477 0.2197
vt 0.1953 0.3359
vt 0.1953 0.3320
vt 0.3486 0.2471
vt 0.3594 0.3955
vt 0.2012 0.4170
vt 0.1123 0.3838
vt 0.1172 0.4541
vt 0.1416 0.7969
vt 0.5488 0.9102
vt 0.4990 0.6611
vt 0.4404 0.9082
vt 0.6611 0.6670
vt 0.8076 0.6719
vt 0.5068 0.8848
vt 0.5488 0.9111
vt 0.7139 0.8633
vt 0.9844 0.3916
vt 0.8467 0.5195
vt 0.9863 0.5430
vt 0.8457 0.3984
vt 0.9873 0.6943
vt 0.8486 0.6914
vt 0.9883 0.7568
vt 0.8477 0.6406
vt 0.6846 0.8057
vt 0.8857 0.7607
vt 0.8857 0.7637
vt 0.6855 0.7871
vt 0.8867 0.7344
vt 0.6865 0.7471
vt 0.8896 0.6406
vt 0.6895 0.6631
vt 0.6934 0.5547
vt 0.8955 0.4805
vt 0.6973 0.4316
vt 0.7012 0.3193
vt 0.8994 0.3818
vt 0.8779 0.7344
vt 0.8770 0.7637
vt 0.9873 0.7207
vt 0.9893 0.6709
vt 0.8809 0.6406
vt 0.9932 0.5498
vt 0.8867 0.4805
vt 0.9971 0.4287
vt 0.8896 0.3818
vt 0.4570 0.7080
vt 0.4648 0.7627
vt 0.5498 0.8008
vt 0.5469 0.7979
vt 0.0527 0.3857
vt 0.4473 0.4375
vt 0.0625 0.4619
vt 0.4395 0.3828
vt 0.0537 0.4639
vt 0.4395 0.4395
vt 0.0869 0.9092
vt 0.0771 0.8330
vt 0.5625 0.1875
vt 0.5605 0.1602
vt 0.5674 0.2461
vt 0.6123 0.8818
vt 0.6162 0.9443
vt 0.6191 0.9775
vt 0.6475 0.9736
vt 0.6592 0.9385
vt 0.6699 0.8730
vt 0.6680 0.2305
vt 0.6348 0.1777
vt 0.5898 0.1562
vt 0.6973 0.1855
vt 0.6338 0.2012
vt 0.6494 0.1621
vt 0.7617 0.1846
vt 0.7617 0.2090
vt 0.7100 0.7998
vt 0.7988 0.7324
vt 0.6982 0.7793
vt 0.7910 0.7764
vt 0.6973 0.8184
vt 0.7070 0.9160
vt 0.8008 0.8320
vt 0.7109 0.8682
vt 0.8018 0.8857
vt 0.6992 0.9346
vt 0.7920 0.9062
vt 0.6904 0.8926
vt 0.7900 0.8584
vt 0.6846 0.8447
vt 0.7832 0.8047
vt 0.6875 0.7979
vt 0.7871 0.7529
vt 0.6484 0.7852
vt 0.6846 0.7959
vt 0.6992 0.2061
vt 0.8154 0.1602
vt 0.8174 0.1836
vt 0.7031 0.2598
vt 0.8223 0.2441
vt 0.7119 0.3701
vt 0.8262 0.3066
vt 0.7070 0.3164
vt 0.8281 0.3340
vt 0.7070 0.3203
vt 0.8262 0.3105
vt 0.7031 0.2656
vt 0.8213 0.2500
vt 0.6992 0.2100
vt 0.8174 0.1885
vt 0.6475 0.3564
vt 0.7227 0.5791
vt 0.7295 0.5332
vt 0.6650 0.5986
vt 0.8584 0.4658
vt 0.8516 0.4043
vt 0.7314 0.4785
vt 0.8594 0.5264
vt 0.8535 0.5508
vt 0.7168 0.5303
vt 0.8447 0.5244
vt 0.7109 0.4746
vt 0.8379 0.4619
vt 0.7100 0.4199
vt 0.8379 0.4014
vt 0.8428 0.3770
vt 0.7510 0.6826
vt 0.8408 0.5869
vt 0.7363 0.6270
vt 0.8525 0.6475
vt 0.7471 0.7363
vt 0.8525 0.7080
vt 0.7363 0.7588
vt 0.8408 0.7324
vt 0.7432 0.7188
vt 0.8691 0.7109
vt 0.7568 0.7402
vt 0.8535 0.6865
vt 0.7363 0.6660
vt 0.8467 0.6270
vt 0.7402 0.6123
vt 0.8125 0.5850
vt 0.8125 0.6455
vt 0.7119 0.6260
vt 0.8242 0.5605
vt 0.6992 0.6836
vt 0.3682 0.8545
vt 0.6973 0.8438
vt 0.3740 0.8271
vt 0.6924 0.8662
vt 0.3652 0.9043
vt 0.6904 0.9053
vt 0.3643 0.9502
vt 0.6895 0.9424
vt 0.3701 0.9619
vt 0.6934 0.9521
vt 0.3760 0.9346
vt 0.6992 0.9297
vt 0.3809 0.8838
vt 0.7021 0.8887
vt 0.3799 0.8389
vt 0.7012 0.8535
vt 0.2363 0.8467
vt 0.3164 0.8252
vt 0.2012 0.8945
vt 0.2324 0.9414
vt 0.3115 0.9600
vt 0.4404 0.1611
vt 0.6367 0.1914
vt 0.4668 0.1406
vt 0.6162 0.2080
vt 0.4229 0.2197
vt 0.6025 0.2559
vt 0.4141 0.2812
vt 0.5957 0.3047
vt 0.4307 0.3096
vt 0.6084 0.3281
vt 0.4570 0.2891
vt 0.6289 0.3115
vt 0.4785 0.2314
vt 0.6465 0.2646
vt 0.4824 0.1689
vt 0.6494 0.2148
vt 0.3867 0.1523
vt 0.4395 0.1367
vt 0.3545 0.2080
vt 0.3613 0.2715
vt 0.4033 0.3066
vt 0.4824 0.1709
vt 0.4873 0.4287
vt 0.4941 0.4160
vt 0.4492 0.4258
vt 0.3848 0.4512
vt 0.4766 0.4893
vt 0.3486 0.5146
vt 0.4648 0.5557
vt 0.3623 0.5791
vt 0.4619 0.5957
vt 0.4170 0.6064
vt 0.5039 0.4541
vt 0.7686 0.4229
vt 0.7637 0.4336
vt 0.7539 0.4834
vt 0.7451 0.5361
vt 0.7422 0.5684
vt 0.4678 0.5830
vt 0.7471 0.5576
vt 0.4795 0.5254
vt 0.7568 0.5117
vt 0.4902 0.4561
vt 0.7656 0.4561
vt 0.3662 0.6504
vt 0.4707 0.6250
vt 0.4287 0.6309
vt 0.4648 0.6348
vt 0.4551 0.6855
vt 0.3330 0.7021
vt 0.3477 0.7549
vt 0.4463 0.7402
vt 0.4453 0.7725
vt 0.4023 0.7793
vt 0.4697 0.6572
vt 0.7139 0.6357
vt 0.7090 0.6445
vt 0.7012 0.6855
vt 0.6943 0.7285
vt 0.6924 0.7549
vt 0.4512 0.7627
vt 0.6973 0.7471
vt 0.4609 0.7148
vt 0.7061 0.7080
vt 0.7129 0.6631
vt 0.5205 0.2949
vt 0.4541 0.3516
vt 0.6836 0.3613
vt 0.6084 0.2471
vt 0.8193 0.3164
vt 0.5811 0.2256
vt 0.4209 0.2969
vt 0.4658 0.2803
vt 0.5098 0.2891
vt 0.8555 0.2588
vt 0.9561 0.2334
vt 0.9990 0.3447
vt 1.0225 0.3018
vt 0.7480 0.8691
vt 0.7822 0.8389
vt 0.7334 0.8379
vt 0.7520 0.9277
vt 0.7617 0.9492
vt 0.7432 0.9795
vt 0.5586 0.3262
vt 0.6055 0.3447
vt 0.6484 0.2510
vt 0.5596 0.2617
vt 0.5527 0.3711
vt 0.6377 0.4287
vt 0.4414 0.3154
vt 0.4570 0.2539
vt 0.4141 0.2422
vt 0.3750 0.2881
vt 0.3525 0.3193
vt 0.4248 0.4268
vt 0.3350 0.3340
vt 0.4062 0.4326
vt 0.3311 0.3232
vt 0.3398 0.2549
vt 0.5645 0.6221
vt 0.4541 0.5547
vt 0.5117 0.6689
vt 0.4160 0.6895
vt 0.4180 0.6240
vt 0.3613 0.6855
vt 0.3408 0.7500
vt 0.2920 0.5957
vt 0.4209 0.5381
vt 0.3311 0.5312
vt 0.4141 0.7529
vt 0.4121 0.7949
vt 0.4111 0.8135
vt 0.3018 0.3184
vt 0.3359 0.3828
vt 0.2969 0.4668
vt 0.4238 0.4756
vt 0.3574 0.7920
vt 0.3750 0.8115
vt 0.4355 0.6738
vt 0.4570 0.6924
vt 0.3428 0.9023
vt 0.4717 0.7900
vt 0.5234 0.8281
vt 0.4629 0.6113
vt 0.3867 0.5527
vt -2.1543 1.0000
vt 0.0000 1.0000
vt 0.0000 -0.1753
vt -2.1543 -0.1753
vt 2.7417 1.0000
vt 2.7417 -0.1753
vt 1.0000 1.0000
vt 1.0000 -1.0000
vt 0.0000 -1.0000
vt 5.6797 1.0000
vt 8.6172 1.0000
vt 8.6172 -0.1753
vt 5.6797 -0.1753
vt 5.3945 0.8042
vt 5.3945 1.0000
vt 5.3945 -0.1753
vt 5.3945 0.0210
vt 4.1128 -0.1753
vt 4.1128 0.0156
vt 2.7417 0.0117
vt 0.2227 1.0000
vt 0.2227 3.4653
vt 0.8379 3.4653
vt 0.8379 1.0000
vt -0.0278 1.7124
vt -0.0449 -1.1812
vt 1.1489 -1.1494
vt -0.2925 1.0000
vt -0.2925 -0.3252
vt -0.9175 -0.3252
vt -0.9175 1.0000
vt 4.1128 1.0000
vt 4.1128 0.7993
vt 2.7417 0.7954
vt 1.0000 -4.0000
vt 0.0000 -6.6665
vt 0.0000 -10.0454
vt -2.0947 -10.0454
vt -2.0947 0.4287
vt 1.5234 1.0000
vt 1.5234 -10.0454
vt 3.6182 0.4287
vt 3.6182 -10.0454
vt 4.6665 -1.0000
vt 4.6665 1.0000
vt 4.6665 2.0000
vt 11.0000 -1.0000
vt 7.3335 -1.0000
vt 7.3335 2.0000
vt 11.0000 1.0000
vt -2.6665 -1.0000
vt -13.6665 -1.0000
vt -13.6665 1.0000
vt -2.6665 1.0000
vt 1.0000 1.0640
vt 1.0000 -0.0928
vt 0.0000 -0.0972
vt 0.0000 1.0596
vt 0.1655 1.6924
vt 0.9443 1.4619
vt 0.9443 1.0000
vt 0.1655 1.0000
vt 0.1592 1.4546
vt 0.9058 1.6821
vt 0.9058 1.0000
vt 0.1592 1.0000
vt 0.1294 1.7183
vt 0.7681 1.7183
vt 0.7681 1.0000
vt 0.1294 1.0000
vt 1.0000 0.0000
vt 0.0000 0.0000
vt -0.0283 0.0156
vt 1.4004 0.0156
vt -0.3486 1.0000
vt 0.9463 1.0000
vt 1.5010 0.2666
vt -0.3486 0.2666
vt 1.9980 0.1104
vt -1.1484 0.1104
vt -0.2051 1.0000
vt 1.9980 1.0000
vt -0.3037 1.9775
vt 0.7715 1.9756
vt 1.2324 1.0244
vt -0.3037 1.0264
vt 10.0000 -6.0000
vt 11.0000 -8.6665
vt 11.0000 -13.6665
vt 10.0000 -13.6665
vt 7.6665 0.0000
vt 9.1060 -2.2617
vt 7.6665 -2.6665
vt 8.3599 -3.0654
vt 8.3862 -2.4644
vt 6.3335 5.6665
vt 10.0000 1.0000
vt 10.0000 -3.6665
vt 10.0000 2.1318
vt 9.2979 1.8936
vt 9.0000 -4.6665
vt 1.0000 -4.6665
vt 2.3335 -2.6665
vt 0.0000 -2.6665
vt 3.6665 5.6665
vt 2.3335 0.0000
vt 0.0000 4.6665
vt 1.0000 -10.6665
vt 0.0000 -13.6665
vt 9.0000 -10.6665
vt 9.0532 -3.4644
vt 8.8809 -1.9863
vt 8.8276 -3.1890
vt 8.1348 -2.7900
vt 8.1611 -2.1890
vt -0.4839 0.9312
vt 1.2588 0.7617
vt 0.5796 -0.0195
vt 0.6245 1.0430
vt 0.9780 0.5210
vt 0.5811 -0.0869
vt 0.4062 -0.0312
vt 0.4155 0.9927
vt 1.0000 1.0684
vt 0.0454 1.0713
vt 0.0454 -0.0947
vt 1.0000 -0.0977
vt 2.0107 1.0000
vt 2.0107 -0.0054
vt 0.0000 -0.0054
vt 0.9846 0.0312
vt 0.0000 0.0312
vt 0.9846 1.0000
vt 6.5640 0.0391
vt 1.0000 0.0391
vt 6.5640 1.0000
vt 7.5601 0.0391
vt 7.5601 -1.5269
vt 0.0000 -1.5269
vt 0.0000 0.0391
vt 0.0000 0.8335
vt -2.1348 1.0000
vt 1.5815 1.0000
vt 1.5815 0.3809
vt 1.0000 -0.0093
vt 0.0000 -0.0093
vt 1.0000 -0.0103
vt 0.0000 -0.0103
vt 0.1201 0.1201
vt 0.1201 0.8799
vt 1.0000 0.8799
vt 1.0000 0.1201
vt 0.8799 0.1201
vt 0.8799 0.8799
vt 0.0000 0.8799
vt 0.0000 0.1201
vt 0.0000 0.6445
vt 2.9922 1.0000
vt 2.9922 0.6445
vt 6.6562 -1.0938
vt 0.0000 -1.0938
vt 6.6562 1.0000
vt 0.9609 0.1338
vt 0.8496 0.0137
vt 0.9482 0.1426
vt 0.8369 0.0225
vt 0.8984 0.1787
vt 0.7891 0.0605
vt 0.8467 0.2168
vt 0.7354 0.0967
vt 0.8174 0.2383
vt 0.7061 0.1182
vt 0.8340 0.2266
vt 0.7188 0.1094
vt 0.8818 0.1914
vt 0.8008 0.1025
vt 0.9355 0.1523
vt 0.8203 0.0352
vt 0.8965 0.2480
vt 0.9688 0.1953
vt 0.5518 0.1680
vt 0.6104 0.1523
vt 0.6113 0.1318
vt 0.5557 0.1182
vt 0.4707 0.1689
vt 0.5322 0.0918
vt 0.5967 0.0967
vt 0.6201 0.1084
vt 0.5889 0.1201
vt 0.5254 0.1016
vt 0.2617 0.2529
vt 0.2646 0.2627
vt 0.2812 0.2500
vt 0.3008 0.2217
vt 0.3125 0.1953
vt 0.2598 0.2139
vt 0.2529 0.1816
vt 0.2666 0.2363
vt 0.3574 0.2705
vt 0.3594 0.2793
vt 0.3467 0.2656
vt 0.2500 0.2480
vt 0.6709 0.2002
vt 0.6963 0.2266
vt 0.6914 0.2754
vt 0.6758 0.3223
vt 0.6426 0.3359
vt 0.7402 0.6396
vt 0.7812 0.6562
vt 0.7812 0.6992
vt 0.7666 0.7422
vt 0.7197 0.7598
vt 0.6943 0.6572
vt 0.2959 0.4043
vt 0.3389 0.5117
vt 0.3340 0.4258
vt 0.2988 0.4639
vt 0.3027 0.5254
vt 0.2949 0.3896
vt 0.2969 0.4199
vt 0.3037 0.5605
vt 0.3027 0.5400
vt 0.2998 0.4844
vt 0.1709 0.3975
vt 0.1719 0.4121
vt 0.1758 0.4707
vt 0.1777 0.5332
vt 0.1797 0.5674
vt 0.1787 0.5527
vt 0.1758 0.4971
vt 0.1729 0.4326
vt 0.1465 0.4033
vt 0.1826 0.4238
vt 0.1221 0.5537
vt 0.1592 0.5742
vt 0.1123 0.4941
vt 0.1133 0.4336
vt 0.1777 0.1758
vt 0.0215 0.1699
vt 0.1758 0.1934
vt 0.0205 0.1865
vt 0.1738 0.2529
vt 0.0195 0.2461
vt 0.1719 0.3154
vt 0.0156 0.3086
vt 0.1709 0.3496
vt 0.0156 0.3428
vt 0.1729 0.3281
vt 0.0166 0.3252
vt 0.1748 0.2705
vt 0.0195 0.2676
vt 0.1768 0.2061
vt 0.0215 0.2031
vt 0.2246 0.3027
vt 0.2275 0.2158
vt 0.3398 0.5498
vt 0.2822 0.5664
vt 0.3408 0.5547
vt 0.2822 0.5723
vt 0.3428 0.6006
vt 0.2949 0.6143
vt 0.3428 0.6172
vt 0.2959 0.6309
vt 0.1641 0.6689
vt 0.3457 0.6816
vt 0.1641 0.7334
vt 0.3467 0.7158
vt 0.1650 0.7686
vt 0.3447 0.6943
vt 0.1641 0.7510
vt 0.3428 0.6348
vt 0.1611 0.6914
vt 0.3398 0.5684
vt 0.1592 0.6250
vt 0.3389 0.5381
vt 0.2822 0.5771
vt 0.4053 0.6484
vt 0.4014 0.5586
vt 0.3252 0.6982
vt 0.2178 0.7725
vt 0.3271 0.7129
vt 0.2207 0.7871
vt 0.3350 0.7646
vt 0.2295 0.8379
vt 0.3438 0.8193
vt 0.2363 0.8936
vt 0.3477 0.8486
vt 0.2402 0.9229
vt 0.3447 0.8301
vt 0.2373 0.9082
vt 0.3369 0.7803
vt 0.2305 0.8574
vt 0.3281 0.7236
vt 0.2217 0.8018
vt 0.3818 0.7783
vt 0.3701 0.7031
vt 0.1699 0.8252
vt 0.1992 0.7881
vt 0.1680 0.8828
vt 0.1777 0.9365
vt 0.2100 0.9453
vn -0.577 -0.577 -0.577
vn -0.577 -0.577 -0.577
vn -0.577 -0.577 -0.577
vn -0.577 -0.577 -0.577
vn -0.577 -0.577 -0.577
vn -0.577 -0.577 -0.577
vn -0.577 -0.577 -0.577
vn -0.577 -0.577 -0.577
vn -0.577 -0.577 -0.577
vn -0.577 -0.577 -0.577
vn -0.577 -0.577 -0.577
vn -0.577 -0.577 -0.577
vn -0.577 -0.577 -0.577
vn -0.577 -0.577 -0.577
vn -0.577 -0.577 -0.577
vn -0.577 -0.577 -0.577
vn -0.577 -0.577 -0.577
vn -0.577 -0.577 -0.577
vn -0.577 -0.577 -0.577
vn -0.577 -0.577 -0.577
vn -0.577 -0.577 -0.577
vn -0.577 -0.577 -0.577
vn -0.577 -0.577 -0.577
vn -0.577 -0.577 -0.577
vn -0.577 -0.577 -0.577
vn -0.577 -0.577 -0.577
vn -0.577 -0.577 -0.577
vn -0.577 -0.577 -0.577
vn -0.577 -0.577 -0.577
vn -0.577 -0.577 -0.577
vn -0.577 -0.577 -0.577
vn -0.577 -0.577 -0.577
vn -0.577 -0.577 -0.577
vn -0.577 -0.577 -0.577
vn -0.577 -0.577 -0.577
vn -0.577 -0.577 -0.577
vn -0.577 -0.577 -0.577
vn -0.577 -0.577 -0.577
vn -0.577 -0.577 -0.577
vn -0.577 -0.577 -0.577
vn -0.577 -0.577 -0.577
vn -0.577 -0.577 -0.577
vn -0.577 -0.577 -0.577
vn -0.577 -0.577 -0.577
vn -0.577 -0.577 -0.577
vn -0.577 -0.577 -0.577
vn -0.577 -0.577 -0.577
vn -0.577 -0.577 -0.577
vn -0.577 -0.577 -0.577
vn -0.577 -0.577 -0.577
vn -0.577 -0.577 -0.577
vn -0.577 -0.577 -0.577
vn -0.577 -0.577 -0.577
vn -0.577 -0.577 -0.577
vn -0.577 -0.577 -0.577
vn -0.577 -0.577 -0.577
vn -0.577 -0.577 -0.577
vn -0.577 -0.577 -0.577
vn -0.577 -0.577 -0.577
vn -0.577 -0.577 -0.577
vn -0.577 -0.577 -0.577
vn -0.577 -0.577 -0.577
vn -0.577 -0.577 -0.577
vn -0.577 -0.577 -0.577
vn -0.577 -0.577 -0.577
vn -0.577 -0.577 -0.577
vn -0.577 -0.577 -0.577
vn -0.577 -0.577 -0.577
vn -0.577 -0.577 -0.577
vn -0.577 -0.577 -0.577
vn -0.577 -0.577 -0.577
vn -0.577 -0.577 -0.577
vn -0.577 -0.577 -0.577
vn -0.577 -0.577 -0.577
vn -0.577 -0.577 -0.577
vn -0.577 -0.577 -0.577
vn -0.577 -0.577 -0.577
vn -0.577 -0.577 -0.577
vn -0.577 -0.577 -0.577
vn -0.577 -0.577 -0.577
vn -0.577 -0.577 -0.577
vn -0.577 -0.577 -0.577
vn -0.577 -0.577 -0.577
vn -0.577 -0.577 -0.577
vn -0.577 -0.577 -0.577
vn -0.577 -0.577 -0.577
vn -0.577 -0.577 -0.577
vn -0.577 -0.577 -0.577
vn -0.577 -0.577 -0.577
vn -0.577 -0.577 -0.577
vn -0.577 -0.577 -0.577
vn -0.577 -0.577 -0.577
vn -0.577 -0.577 -0.577
vn -0.577 -0.577 -0.577
vn -0.577 -0.577 -0.577
vn -0.577 -0.577 -0.577
vn -0.577 -0.577 -0.577
vn -0.577 -0.577 -0.577
vn -0.577 -0.577 -0.577
vn -0.577 -0.577 -0.577
vn -0.577 -0.577 -0.577
vn -0.577 -0.577 -0.577
vn -0.577 -0.577 -0.577
vn -0.577 -0.577 -0.577
vn -0.577 -0.577 -0.577
vn -0.577 -0.577 -0.577
vn -0.577 -0.577 -0.577
vn -0.577 -0.577 -0.577
vn -0.577 -0.577 -0.577
vn -0.577 -0.577 -0.577
vn -0.577 -0.577 -0.577
vn -0.577 -0.577 -0.577
vn -0.577 -0.577 -0.577
vn -0.577 -0.577 -0.577
vn -0.577 -0.577 -0.577
vn -0.577 -0.577 -0.577
vn -0.577 -0.577 -0.577
vn -0.577 -0.577 -0.577
vn -0.577 -0.577 -0.577
vn -0.577 -0.577 -0.577
vn -0.577 -0.577 -0.577
vn -0.577 -0.577 -0.577
vn -0.577 -0.577 -0.577
vn -0.577 -0.577 -0.577
vn -0.577 -0.577 -0.577
vn -0.577 -0.577 -0.577
vn -0.577 -0.577 -0.577
vn -0.577 -0.577 -0.577
vn -0.577 -0.577 -0.577
vn -0.577 -0.577 -0.577
vn -0.577 -0.577 -0.577
vn -0.577 -0.577 -0.577
vn -0.577 -0.577 -0.577
vn -0.577 -0.577 -0.577
vn -0.577 -0.577 -0.577
vn -0.577 -0.577 -0.577
vn -0.577 -0.577 -0.577
vn -0.577 -0.577 -0.577
vn -0.577 -0.577 -0.577
vn -0.577 -0.577 -0.577
vn -0.577 -0.577 -0.577
vn -0.577 -0.577 -0.577
vn -0.577 -0.577 -0.577
vn -0.577 -0.577 -0.577
vn -0.577 -0.577 -0.577
vn -0.577 -0.577 -0.577
vn -0.577 -0.577 -0.577
vn -0.577 -0.577 -0.577
vn -0.577 -0.577 -0.577
vn -0.577 -0.577 -0.577
vn -0.577 -0.577 -0.577
vn -0.577 -0.577 -0.577
vn -0.577 -0.577 -0.577
vn -0.577 -0.577 -0.577
vn -0.577 -0.577 -0.577
vn -0.577 -0.577 -0.577
vn -0.577 -0.577 -0.577
vn -0.577 -0.577 -0.577
vn -0.577 -0.577 -0.577
vn -0.577 -0.577 -0.577
vn -0.577 -0.577 -0.577
vn -0.577 -0.577 -0.577
vn -0.577 -0.577 -0.577
vn -0.577 -0.577 -0.577
vn -0.577 -0.577 -0.577
vn -0.577 -0.577 -0.577
vn -0.577 -0.577 -0.577
vn -0.577 -0.577 -0.577
vn -0.577 -0.577 -0.577
vn -0.577 -0.577 -0.577
vn -0.577 -0.577 -0.577
vn -0.577 -0.577 -0.577
vn -0.577 -0.577 -0.577
vn -0.577 -0.577 -0.577
vn -0.577 -0.577 -0.577
vn -0.577 -0.577 -0.577
vn -0.577 -0.577 -0.577
vn -0.577 -0.577 -0.577
vn -0.577 -0.577 -0.577
vn -0.577 -0.577 -0.577
vn -0.577 -0.577 -0.577
vn -0.577 -0.577 -0.577
vn -0.577 -0.577 -0.577
vn -0.577 -0.577 -0.577
vn -0.577 -0.577 -0.577
vn -0.577 -0.577 -0.577
vn -0.577 -0.577 -0.577
vn -0.577 -0.577 -0.577
vn -0.577 -0.577 -0.577
vn -0.577 -0.577 -0.577
vn -0.577 -0.577 -0.577
vn -0.577 -0.577 -0.577
vn -0.577 -0.577 -0.577
vn -0.577 -0.577 -0.577
vn -0.577 -0.577 -0.577
vn -0.577 -0.577 -0.577
vn -0.577 -0.577 -0.577
vn -0.577 -0.577 -0.577
vn -0.577 -0.577 -0.577
vn -0.577 -0.577 -0.577
vn -0.577 -0.577 -0.577
vn -0.577 -0.577 -0.577
vn -0.577 -0.577 -0.577
vn -0.577 -0.577 -0.577
vn -0.577 -0.577 -0.577
vn -0.577 -0.577 -0.577
vn -0.577 -0.577 -0.577
vn -0.577 -0.577 -0.577
vn -0.577 -0.577 -0.577
vn -0.577 -0.577 -0.577
vn -0.577 -0.577 -0.577
vn -0.577 -0.577 -0.577
vn -0.577 -0.577 -0.577
vn -0.577 -0.577 -0.577
vn -0.577 -0.577 -0.577
vn -0.577 -0.577 -0.577
vn -0.577 -0.577 -0.577
vn -0.577 -0.577 -0.577
vn -0.577 -0.577 -0.577
vn -0.577 -0.577 -0.577
vn -0.577 -0.577 -0.577
vn -0.577 -0.577 -0.577
vn -0.577 -0.577 -0.577
vn -0.577 -0.577 -0.577
vn -0.577 -0.577 -0.577
vn -0.577 -0.577 -0.577
vn -0.577 -0.577 -0.577
vn -0.577 -0.577 -0.577
vn -0.577 -0.577 -0.577
vn -0.577 -0.577 -0.577
vn -0.577 -0.577 -0.577
vn -0.577 -0.577 -0.577
vn -0.577 -0.577 -0.577
vn -0.577 -0.577 -0.577
vn -0.577 -0.577 -0.577
vn -0.577 -0.577 -0.577
vn -0.577 -0.577 -0.577
vn -0.577 -0.577 -0.577
vn -0.577 -0.577 -0.577
vn -0.577 -0.577 -0.577
vn -0.577 -0.577 -0.577
vn -0.577 -0.577 -0.577
vn -0.577 -0.577 -0.577
vn -0.577 -0.577 -0.577
vn -0.577 -0.577 -0.577
vn -0.577 -0.577 -0.577
vn -0.577 -0.577 -0.577
vn -0.577 -0.577 -0.577
vn -0.577 -0.577 -0.577
vn -0.577 -0.577 -0.577
vn -0.577 -0.577 -0.577
vn -0.577 -0.577 -0.577
vn -0.577 -0.577 -0.577
vn -0.577 -0.577 -0.577
vn -0.577 -0.577 -0.577
vn -0.577 -0.577 -0.577
vn -0.577 -0.577 -0.577
vn -0.577 -0.577 -0.577
vn -0.577 -0.577 -0.577
vn -0.577 -0.577 -0.577
vn -0.577 -0.577 -0.577
vn -0.577 -0.577 -0.577
vn -0.577 -0.577 -0.577
vn -0.577 -0.577 -0.577
vn -0.577 -0.577 -0.577
vn -0.577 -0.577 -0.577
vn -0.577 -0.577 -0.577
vn -0.577 -0.577 -0.577
vn -0.577 -0.577 -0.577
vn -0.577 -0.577 -0.577
vn -0.577 -0.577 -0.577
vn -0.577 -0.577 -0.577
vn -0.577 -0.577 -0.577
vn -0.577 -0.577 -0.577
vn -0.577 -0.577 -0.577
vn -0.577 -0.577 -0.577
vn -0.577 -0.577 -0.577
vn -0.577 -0.577 -0.577
vn -0.577 -0.577 -0.577
vn -0.577 -0.577 -0.577
vn -0.577 -0.577 -0.577
vn -0.577 -0.577 -0.577
vn -0.577 -0.577 -0.577
vn -0.577 -0.577 -0.577
vn -0.577 -0.577 -0.577
vn -0.577 -0.577 -0.577
vn -0.577 -0.577 -0.577
vn -0.577 -0.577 -0.577
vn -0.577 -0.577 -0.577
vn -0.577 -0.577 -0.577
vn -0.577 -0.577 -0.577
vn -0.577 -0.577 -0.577
vn -0.577 -0.577 -0.577
vn -0.577 -0.577 -0.577
vn -0.577 -0.577 -0.577
vn -0.577 -0.577 -0.577
vn -0.577 -0.577 -0.577
vn -0.577 -0.577 -0.577
vn -0.577 -0.577 -0.577
vn -0.577 -0.577 -0.577
vn -0.577 -0.577 -0.577
vn -0.577 -0.577 -0.577
vn -0.577 -0.577 -0.577
vn -0.577 -0.577 -0.577
vn -0.577 -0.577 -0.577
vn -0.577 -0.577 -0.577
vn -0.577 -0.577 -0.577
vn -0.577 -0.577 -0.577
vn -0.577 -0.577 -0.577
vn -0.577 -0.577 -0.577
vn -0.577 -0.577 -0.577
vn -0.577 -0.577 -0.577
vn -0.577 -0.577 -0.577
vn -0.577 -0.577 -0.577
vn -0.577 -0.577 -0.577
vn -0.577 -0.577 -0.577
vn -0.577 -0.577 -0.577
vn -0.577 -0.577 -0.577
vn -0.577 -0.577 -0.577
vn -0.577 -0.577 -0.577
vn -0.577 -0.577 -0.577
vn -0.577 -0.577 -0.577
vn -0.577 -0.577 -0.577
vn -0.577 -0.577 -0.577
vn -0.577 -0.577 -0.577
vn -0.577 -0.577 -0.577
vn -0.577 -0.577 -0.577
vn -0.577 -0.577 -0.577
vn -0.577 -0.577 -0.577
vn -0.577 -0.577 -0.577
vn -0.577 -0.577 -0.577
vn -0.577 -0.577 -0.577
vn -0.577 -0.577 -0.577
vn -0.577 -0.577 -0.577
vn -0.577 -0.577 -0.577
vn -0.577 -0.577 -0.577
vn -0.577 -0.577 -0.577
vn -0.577 -0.577 -0.577
vn -0.577 -0.577 -0.577
vn -0.577 -0.577 -0.577
vn -0.577 -0.577 -0.577
vn -0.577 -0.577 -0.577
vn -0.577 -0.577 -0.577
vn -0.577 -0.577 -0.577
vn -0.577 -0.577 -0.577
vn -0.577 -0.577 -0.577
vn -0.577 -0.577 -0.577
vn -0.577 -0.577 -0.577
vn -0.577 -0.577 -0.577
vn -0.577 -0.577 -0.577
vn -0.577 -0.577 -0.577
vn -0.577 -0.577 -0.577
vn -0.577 -0.577 -0.577
vn -0.577 -0.577 -0.577
vn -0.577 -0.577 -0.577
vn -0.577 -0.577 -0.577
vn -0.577 -0.577 -0.577
vn -0.577 -0.577 -0.577
vn -0.577 -0.577 -0.577
vn -0.577 -0.577 -0.577
vn -0.577 -0.577 -0.577
vn -0.577 -0.577 -0.577
vn -0.577 -0.577 -0.577
vn -0.577 -0.577 -0.577
vn -0.577 -0.577 -0.577
vn -0.331 -0.588 0.738
vn -0.577 -0.577 -0.577
vn -0.577 -0.577 -0.577
vn -0.577 -0.577 -0.577
vn -0.577 -0.577 -0.577
vn -0.577 -0.577 -0.577
vn -0.577 -0.577 -0.577
vn -0.577 -0.577 -0.577
vn -0.577 -0.577 -0.577
vn -0.577 -0.577 -0.577
vn -0.577 -0.577 -0.577
vn -0.577 -0.577 -0.577
vn -0.577 -0.577 -0.577
vn -0.577 -0.577 -0.577
vn -0.577 -0.577 -0.577
vn -0.577 -0.577 -0.577
vn -0.577 -0.577 -0.577
vn -0.577 -0.577 -0.577
vn -0.577 -0.577 -0.577
vn -0.577 -0.577 -0.577
vn -0.577 -0.577 -0.577
vn -0.577 -0.577 -0.577
vn -0.577 -0.577 -0.577
vn -0.577 -0.577 -0.577
vn -0.577 -0.577 -0.577
vn -0.577 -0.577 -0.577
vn -0.577 -0.577 -0.577
vn -0.577 -0.577 -0.577
vn -0.577 -0.577 -0.577
vn -0.577 -0.577 -0.577
vn -0.577 -0.577 -0.577
vn -0.577 -0.577 -0.577
vn -0.577 -0.577 -0.577
vn -0.577 -0.577 -0.577
vn -0.577 -0.577 -0.577
vn -0.577 -0.577 -0.577
vn -0.577 -0.577 -0.577
vn -0.577 -0.577 -0.577
vn -0.577 -0.577 -0.577
vn -0.577 -0.577 -0.577
vn -0.577 -0.577 -0.577
vn -0.577 -0.577 -0.577
vn -0.577 -0.577 -0.577
vn -0.577 -0.577 -0.577
vn -0.577 -0.577 -0.577
vn -0.577 -0.577 -0.577
vn -0.577 -0.577 -0.577
vn -0.577 -0.577 -0.577
vn -0.577 -0.577 -0.577
vn -0.577 -0.577 -0.577
vn -0.577 -0.577 -0.577
vn -0.577 -0.577 -0.577
vn -0.577 -0.577 -0.577
vn -0.577 -0.577 -0.577
vn -0.577 -0.577 -0.577
vn -0.577 -0.577 -0.577
vn -0.577 -0.577 -0.577
vn 0.577 0.577 0.577
vn 0.577 0.577 0.577
vn 0.577 0.577 0.577
vn 0.577 0.577 0.577
vn 0.577 0.577 0.577
vn 0.577 0.577 0.577
vn 0.577 0.577 0.577
vn 0.577 0.577 0.577
vn 0.577 0.577 0.577
vn 0.577 0.577 0.577
vn 0.577 0.577 0.577
vn 0.577 0.577 0.577
vn 0.577 0.577 0.577
vn 0.577 0.577 0.577
vn 0.577 0.577 0.577
vn 0.577 0.577 0.577
vn 0.577 0.577 0.577
vn 0.577 0.577 0.577
vn 0.577 0.577 0.577
vn 0.577 0.577 0.577
vn 0.577 0.577 0.577
vn 0.577 0.577 0.577
vn 0.577 0.577 0.577
vn 0.577 0.577 0.577
vn 0.577 0.577 0.577
vn 0.577 0.577 0.577
vn 0.577 0.577 0.577
vn 1.000 0.000 0.000
vn 1.000 0.000 0.000
vn 1.000 0.000 0.000
vn 1.000 0.000 0.000
vn 0.943 0.136 0.304
vn 0.943 0.136 0.304
vn 0.943 0.136 0.304
vn 0.973 0.162 0.162
vn 0.973 0.162 0.162
vn 0.973 0.162 0.162
vn 0.973 0.162 0.162
vn 0.973 0.162 0.162
vn 0.973 0.162 0.162
vn 0.973 0.162 0.162
vn 0.577 0.577 0.577
vn 0.577 0.577 0.577
vn 0.577 0.577 0.577
vn 0.577 0.577 0.577
vn 0.577 0.577 0.577
vn 0.577 0.577 0.577
vn 0.577 0.577 0.577
vn 0.577 0.577 0.577
vn 0.577 0.577 0.577
vn 0.577 0.577 0.577
vn 0.577 0.577 0.577
vn 0.577 0.577 0.577
vn 0.577 0.577 0.577
vn 0.577 0.577 0.577
vn 0.577 0.577 0.577
vn 0.577 0.577 0.577
vn 0.577 0.577 0.577
vn 0.577 0.577 0.577
vn 0.577 0.577 0.577
vn 0.577 0.577 0.577
vn 0.577 0.577 0.577
vn 0.577 0.577 0.577
vn 0.577 0.577 0.577
vn 0.577 0.577 0.577
vn 0.577 0.577 0.577
vn 0.577 0.577 0.577
vn 0.577 0.577 0.577
vn 0.577 0.577 0.577
vn 0.577 0.577 0.577
vn 0.577 0.577 0.577
vn 0.577 0.577 0.577
vn 0.577 0.577 0.577
vn 0.577 0.577 0.577
vn 0.577 0.577 0.577
vn 0.577 0.577 0.577
vn 0.577 0.577 0.577
vn 0.577 0.577 0.577
vn 0.577 0.577 0.577
vn 0.577 0.577 0.577
vn 0.577 0.577 0.577
vn 0.577 0.577 0.577
vn 0.577 0.577 0.577
vn 0.577 0.577 0.577
vn 0.577 0.577 0.577
vn -0.577 -0.577 -0.577
vn -0.577 -0.577 -0.577
vn -0.577 -0.577 -0.577
vn -0.577 -0.577 -0.577
vn -0.577 -0.577 -0.577
vn -0.577 -0.577 -0.577
vn -0.577 -0.577 -0.577
vn -0.577 -0.577 -0.577
vn -0.577 -0.577 -0.577
vn -0.577 -0.577 -0.577
vn -0.577 -0.577 -0.577
vn -0.577 -0.577 -0.577
vn 0.577 0.577 0.577
vn 0.577 0.577 0.577
vn 0.577 0.577 0.577
vn 0.577 0.577 0.577
vn -0.577 -0.577 -0.577
vn -0.577 -0.577 -0.577
vn -0.577 -0.577 -0.577
vn -0.577 -0.577 -0.577
vn -0.577 -0.577 -0.577
vn -0.577 -0.577 -0.577
vn -0.577 -0.577 -0.577
vn -0.577 -0.577 -0.577
vn 0.577 0.577 0.577
vn 0.577 0.577 0.577
vn 0.577 0.577 0.577
vn 0.577 0.577 0.577
vn -0.577 -0.577 -0.577
vn -0.577 -0.577 -0.577
vn -0.577 -0.577 -0.577
vn -0.577 -0.577 -0.577
vn -0.577 -0.577 -0.577
vn -0.577 -0.577 -0.577
vn -0.577 -0.577 -0.577
vn -0.577 -0.577 -0.577
vn -0.577 -0.577 -0.577
vn -0.577 -0.577 -0.577
vn -0.577 -0.577 -0.577
vn -0.577 -0.577 -0.577
vn -0.577 -0.577 -0.577
vn -0.577 -0.577 -0.577
vn -0.577 -0.577 -0.577
vn -0.577 -0.577 -0.577
vn -0.577 -0.577 -0.577
vn -0.577 -0.577 -0.577
vn -0.577 -0.577 -0.577
vn -0.577 -0.577 -0.577
vn -0.577 -0.577 -0.577
vn -0.577 -0.577 -0.577
vn -0.577 -0.577 -0.577
vn -0.577 -0.577 -0.577
vn -0.577 -0.577 -0.577
vn -0.577 -0.577 -0.577
vn -0.577 -0.577 -0.577
vn -0.577 -0.577 -0.577
vn -0.577 -0.577 -0.577
vn -0.577 -0.577 -0.577
vn -0.577 -0.577 -0.577
vn -0.577 -0.577 -0.577
vn -0.577 -0.577 -0.577
vn -0.577 -0.577 -0.577
vn -0.577 -0.577 -0.577
vn -0.577 -0.577 -0.577
vn -0.577 -0.577 -0.577
vn -0.577 -0.577 -0.577
vn -0.577 -0.577 -0.577
vn -0.577 -0.577 -0.577
vn -0.577 -0.577 -0.577
vn -0.577 -0.577 -0.577
vn -0.577 -0.577 -0.577
vn -0.577 -0.577 -0.577
vn -0.577 -0.577 -0.577
vn -0.577 -0.577 -0.577
vn -0.577 -0.577 -0.577
vn -0.577 -0.577 -0.577
vn -0.577 -0.577 -0.577
vn -0.577 -0.577 -0.577
vn -0.577 -0.577 -0.577
vn -0.577 -0.577 -0.577
vn -0.577 -0.577 -0.577
vn -0.577 -0.577 -0.577
vn -0.577 -0.577 -0.577
vn -0.577 -0.577 -0.577
vn -0.577 -0.577 -0.577
vn -0.577 -0.577 -0.577
vn -0.577 -0.577 -0.577
vn -0.577 -0.577 -0.577
vn -0.577 -0.577 -0.577
vn -0.577 -0.577 -0.577
vn -0.577 -0.577 -0.577
vn -0.577 -0.577 -0.577
vn -0.577 -0.577 -0.577
vn -0.577 -0.577 -0.577
vn -0.577 -0.577 -0.577
vn -0.577 -0.577 -0.577
vn -0.577 -0.577 -0.577
vn -0.577 -0.577 -0.577
vn -0.577 -0.577 -0.577
vn -0.577 -0.577 -0.577
vn -0.577 -0.577 -0.577
vn -0.577 -0.577 -0.577
vn -0.577 -0.577 -0.577
vn -0.577 -0.577 -0.577
vn -0.577 -0.577 -0.577
vn -0.577 -0.577 -0.577
vn -0.577 -0.577 -0.577
vn -0.577 -0.577 -0.577
vn -0.577 -0.577 -0.577
vn -0.577 -0.577 -0.577
vn -0.577 -0.577 -0.577
vn -0.577 -0.577 -0.577
vn -0.577 -0.577 -0.577
vn -0.577 -0.577 -0.577
vn -0.577 -0.577 -0.577
vn -0.577 -0.577 -0.577
vn -0.577 -0.577 -0.577
vn -0.577 -0.577 -0.577
vn -0.577 -0.577 -0.577
vn -0.577 -0.577 -0.577
vn -0.577 -0.577 -0.577
vn -0.577 -0.577 -0.577
vn 0.577 0.577 0.577
vn 0.577 0.577 0.577
vn 0.577 0.577 0.577
vn 0.577 0.577 0.577
vn 0.577 0.577 0.577
vn 0.577 0.577 0.577
vn -0.577 -0.577 -0.577
vn -0.577 -0.577 -0.577
vn -0.577 -0.577 -0.577
vn -0.577 -0.577 -0.577
vn -0.577 -0.577 -0.577
vn -0.577 -0.577 -0.577
vn -0.577 -0.577 -0.577
vn -0.577 -0.577 -0.577
vn -0.577 -0.577 -0.577
vn -0.577 -0.577 -0.577
vn -0.577 -0.577 -0.577
vn -0.577 -0.577 -0.577
vn -0.577 -0.577 -0.577
vn -0.577 -0.577 -0.577
vn -0.577 -0.577 -0.577
vn -0.577 -0.577 -0.577
vn -0.577 -0.577 -0.577
vn -0.577 -0.577 -0.577
vn -0.577 -0.577 -0.577
vn -0.577 -0.577 -0.577
vn -0.577 -0.577 -0.577
vn -0.577 -0.577 -0.577
vn -0.577 -0.577 -0.577
vn -0.577 -0.577 -0.577
vn -0.577 -0.577 -0.577
vn -0.577 -0.577 -0.577
vn -0.577 -0.577 -0.577
vn -0.577 -0.577 -0.577
vn -0.577 -0.577 -0.577
vn -0.577 -0.577 -0.577
vn -0.577 -0.577 -0.577
vn -0.577 -0.577 -0.577
vn -0.577 -0.577 -0.577
vn -0.577 -0.577 -0.577
vn -0.577 -0.577 -0.577
vn -0.577 -0.577 -0.577
vn -0.577 -0.577 -0.577
vn -0.577 -0.577 -0.577
vn -0.577 -0.577 -0.577
vn -0.577 -0.577 -0.577
vn 0.577 0.577 0.577
vn 0.577 0.577 0.577
vn 0.577 0.577 0.577
vn 0.577 0.577 0.577
vn -0.577 -0.577 -0.577
vn -0.577 -0.577 -0.577
vn -0.577 -0.577 -0.577
vn -0.577 -0.577 -0.577
vn -0.577 -0.577 -0.577
vn -0.577 -0.577 -0.577
vn -0.577 -0.577 -0.577
vn -0.577 -0.577 -0.577
vn -0.577 -0.577 -0.577
vn -0.577 -0.577 -0.577
vn -0.577 -0.577 -0.577
vn -0.577 -0.577 -0.577
vn -0.577 -0.577 -0.577
vn -0.577 -0.577 -0.577
vn -0.577 -0.577 -0.577
vn -0.577 -0.577 -0.577
vn -0.577 -0.577 -0.577
vn -0.577 -0.577 -0.577
vn -0.577 -0.577 -0.577
vn -0.577 -0.577 -0.577
vn -0.577 -0.577 -0.577
vn -0.577 -0.577 -0.577
vn -0.577 -0.577 -0.577
vn -0.577 -0.577 -0.577
vn -0.577 -0.577 -0.577
vn -0.577 -0.577 -0.577
vn -0.577 -0.577 -0.577
vn -0.577 -0.577 -0.577
vn -0.577 -0.577 -0.577
vn -0.577 -0.577 -0.577
vn -0.577 -0.577 -0.577
vn -0.577 -0.577 -0.577
vn -0.577 -0.577 -0.577
vn -0.577 -0.577 -0.577
vn -0.577 -0.577 -0.577
vn -0.577 -0.577 -0.577
vn -0.577 -0.577 -0.577
vn -0.577 -0.577 -0.577
vn -0.577 -0.577 -0.577
vn -0.577 -0.577 -0.577
vn -0.577 -0.577 -0.577
vn -0.577 -0.577 -0.577
vn -0.577 -0.577 -0.577
vn -0.577 -0.577 -0.577
vn -0.577 -0.577 -0.577
vn -0.577 -0.577 -0.577
vn -0.577 -0.577 -0.577
vn -0.577 -0.577 -0.577
vn -0.577 -0.577 -0.577
vn -0.577 -0.577 -0.577
vn -0.577 -0.577 -0.577
vn -0.577 -0.577 -0.577
vn -0.577 -0.577 -0.577
vn -0.577 -0.577 -0.577
vn -0.577 -0.577 -0.577
vn -0.577 -0.577 -0.577
vn -0.577 -0.577 -0.577
vn -0.577 -0.577 -0.577
vn -0.577 -0.577 -0.577
vn -0.577 -0.577 -0.577
vn -0.577 -0.577 -0.577
vn -0.577 -0.577 -0.577
vn -0.577 -0.577 -0.577
vn -0.577 -0.577 -0.577
vn -0.577 -0.577 -0.577
vn -0.577 -0.577 -0.577
vn -0.577 -0.577 -0.577
vn -0.577 -0.577 -0.577
vn -0.577 -0.577 -0.577
vn -0.577 -0.577 -0.577
vn -0.577 -0.577 -0.577
vn -0.577 -0.577 -0.577
vn -0.577 -0.577 -0.577
vn -0.577 -0.577 -0.577
vn -0.577 -0.577 -0.577
vn -0.577 -0.577 -0.577
vn -0.577 -0.577 -0.577
vn -0.577 -0.577 -0.577
vn -0.577 -0.577 -0.577
vn -0.577 -0.577 -0.577
vn -0.577 -0.577 -0.577
vn -0.577 -0.577 -0.577
vn -0.577 -0.577 -0.577
vn -0.577 -0.577 -0.577
vn -0.577 -0.577 -0.577
vn -0.577 -0.577 -0.577
vn -0.577 -0.577 -0.577
vn -0.577 -0.577 -0.577
vn -0.577 -0.577 -0.577
vn -0.577 -0.577 -0.577
vn -0.577 -0.577 -0.577
vn -0.577 -0.577 -0.577
vn -0.577 -0.577 -0.577
vn -0.577 -0.577 -0.577
vn -0.577 -0.577 -0.577
vn -0.577 -0.577 -0.577
vn -0.577 -0.577 -0.577
vn -0.577 -0.577 -0.577
vn -0.577 -0.577 -0.577
vn -0.577 -0.577 -0.577
vn -0.577 -0.577 -0.577
vn -0.577 -0.577 -0.577
vn -0.577 -0.577 -0.577
vn -0.577 -0.577 -0.577
vn -0.577 -0.577 -0.577
vn -0.577 -0.577 -0.577
vn -0.577 -0.577 -0.577
vn -0.577 -0.577 -0.577
vn -0.577 -0.577 -0.577
vn -0.577 -0.577 -0.577
vn -0.577 -0.577 -0.577
vn -0.577 -0.577 -0.577
vn -0.577 -0.577 -0.577
vn -0.577 -0.577 -0.577
vn -0.577 -0.577 -0.577
vn -0.577 -0.577 -0.577
vn -0.577 -0.577 -0.577
vn -0.577 -0.577 -0.577
vn -0.577 -0.577 -0.577
vn -0.577 -0.577 -0.577
vn -0.577 -0.577 -0.577
vn -0.577 -0.577 -0.577
vn -0.577 -0.577 -0.577
vn -0.577 -0.577 -0.577
vn -0.577 -0.577 -0.577
vn -0.577 -0.577 -0.577
vn -0.577 -0.577 -0.577
vn -0.577 -0.577 -0.577
vn -0.577 -0.577 -0.577
vn -0.577 -0.577 -0.577
vn -0.577 -0.577 -0.577
vn -0.577 -0.577 -0.577
vn -0.577 -0.577 -0.577
vn -0.577 -0.577 -0.577
vn -0.577 -0.577 -0.577
vn -0.577 -0.577 -0.577
vn -0.577 -0.577 -0.577
vn -0.577 -0.577 -0.577
vn -0.577 -0.577 -0.577
vn -0.577 -0.577 -0.577
vn -0.577 -0.577 -0.577
vn -0.577 -0.577 -0.577
vn -0.577 -0.577 -0.577
vn -0.577 -0.577 -0.577
vn -0.577 -0.577 -0.577
vn -0.577 -0.577 -0.577
vn -0.577 -0.577 -0.577
vn -0.577 -0.577 -0.577
vn -0.577 -0.577 -0.577
vn -0.577 -0.577 -0.577
vn -0.577 -0.577 -0.577
vn -0.577 -0.577 -0.577
vn -0.577 -0.577 -0.577
vn -0.577 -0.577 -0.577
vn -0.577 -0.577 -0.577
vn -0.577 -0.577 -0.577
vn -0.577 -0.577 -0.577
vn -0.577 -0.577 -0.577
vn -0.577 -0.577 -0.577
vn -0.577 -0.577 -0.577
vn -0.577 -0.577 -0.577
vn -0.577 -0.577 -0.577
vn -0.577 -0.577 -0.577
vn -0.577 -0.577 -0.577
vn -0.577 -0.577 -0.577
vn -0.577 -0.577 -0.577
vn -0.577 -0.577 -0.577
vn -0.577 -0.577 -0.577
vn -0.577 -0.577 -0.577
vn -0.577 -0.577 -0.577
vn -0.577 -0.577 -0.577
vn -0.577 -0.577 -0.577
vn -0.577 -0.577 -0.577
vn -0.577 -0.577 -0.577
vn -0.577 -0.577 -0.577
vn -0.577 -0.577 -0.577
vn -0.577 -0.577 -0.577
vn -0.577 -0.577 -0.577
vn -0.577 -0.577 -0.577
vn -0.577 -0.577 -0.577
vn -0.577 -0.577 -0.577
vn -0.577 -0.577 -0.577
vn -0.577 -0.577 -0.577
vn -0.577 -0.577 -0.577
vn -0.577 -0.577 -0.577
vn -0.577 -0.577 -0.577
vn -0.577 -0.577 -0.577
vn -0.577 -0.577 -0.577
vn -0.577 -0.577 -0.577
vn -0.577 -0.577 -0.577
vn -0.577 -0.577 -0.577
vn -0.577 -0.577 -0.577
vn -0.577 -0.577 -0.577
vn -0.577 -0.577 -0.577
vn -0.577 -0.577 -0.577
vn -0.577 -0.577 -0.577
vn -0.577 -0.577 -0.577
vn -0.577 -0.577 -0.577
vn -0.577 -0.577 -0.577
vn -0.577 -0.577 -0.577
vn -0.577 -0.577 -0.577
vn -0.577 -0.577 -0.577
vn -0.577 -0.577 -0.577
vn -0.577 -0.577 -0.577
vn -0.577 -0.577 -0.577
vn -0.577 -0.577 -0.577
vn -0.577 -0.577 -0.577
vn -0.577 -0.577 -0.577
vn -0.577 -0.577 -0.577
vn -0.577 -0.577 -0.577
vn -0.577 -0.577 -0.577
vn -0.577 -0.577 -0.577
vn -0.577 -0.577 -0.577
vn -0.577 -0.577 -0.577
vn -0.577 -0.577 -0.577
vn -0.577 -0.577 -0.577
vn -0.577 -0.577 -0.577
vn -0.577 -0.577 -0.577
vn -0.577 -0.577 -0.577
vn -0.577 -0.577 -0.577
vn -0.577 -0.577 -0.577
vn -0.577 -0.577 -0.577
vn -0.577 -0.577 -0.577
vn -0.577 -0.577 -0.577
vn -0.577 -0.577 -0.577
vn -0.577 -0.577 -0.577
vn -0.577 -0.577 -0.577
vn -0.577 -0.577 -0.577
vn -0.577 -0.577 -0.577
vn -0.577 -0.577 -0.577
vn -0.577 -0.577 -0.577
vn -0.577 -0.577 -0.577
vn -0.577 -0.577 -0.577
vn -0.577 -0.577 -0.577
vn -0.577 -0.577 -0.577
vn -0.577 -0.577 -0.577
vn -0.577 -0.577 -0.577
vn -0.577 -0.577 -0.577
usemtl tex_1794_sw0_0_lit_ds_w11
f 1/1/1 2/2/2 3/3/3
f 4/4/4 1/1/1 3/3/3
f 5/5/5 4/4/4 3/3/3
f 6/6/6 4/4/4 5/5/5
f 7/7/7 8/8/8 9/9/9
f 10/10/10 7/7/7 9/9/9
f 11/11/11 10/10/10 9/9/9
f 11/11/11 9/9/9 12/12/12
f 9/9/9 13/13/13 14/14/14
f 14/14/14 12/12/12 9/9/9
f 3/3/3 2/2/2 15/15/15
f 3/3/3 15/15/15 5/5/5
f 9/9/9 8/8/8 13/13/13
usemtl tex_1798_sw0_0_lit_ds_w11
f 16/16/16 17/17/17 18/18/18
f 16/16/16 19/19/19 17/17/17
f 19/19/19 16/16/16 20/20/20
f 18/18/18 21/21/21 16/16/16
f 22/22/22 21/21/21 23/23/23
usemtl tex_1796_sw0_0_lit_ds_w11
f 24/24/24 25/25/25 26/26/26
f 27/27/27 25/25/25 24/24/24
f 28/28/28 29/29/29 30/30/30
f 31/31/31 29/29/29 28/28/28
f 26/26/26 31/31/31 28/28/28
f 25/25/25 31/31/31 26/26/26
usemtl tex_1797_sw0_0_lit_ds_w11
f 32/32/32 33/33/33 34/34/34
f 35/35/35 32/32/32 34/34/34
f 35/35/35 34/34/34 36/36/36
f 37/37/37 35/35/35 36/36/36
f 38/38/38 37/37/37 36/36/36
f 39/39/39 37/37/37 38/38/38
f 38/38/38 40/40/40 39/39/39
f 41/41/41 40/40/40 38/38/38
f 42/42/42 40/40/40 41/41/41
f 42/42/42 41/41/41 43/43/43
f 44/44/44 43/43/43 41/41/41
f 45/45/45 46/46/46 47/47/47
f 48/45/48 49/47/49 50/48/50
f 51/49/51 48/45/48 50/48/50
f 51/49/51 50/48/50 52/50/52
f 53/51/53 51/49/51 52/50/52
f 53/51/53 52/50/52 54/52/54
f 55/53/55 53/51/53 54/52/54
usemtl tex_1793_sw0_0_lit_ds_w11
f 56/54/56 57/55/57 58/56/58
f 59/57/59 56/54/56 58/56/58
f 60/58/60 61/59/61 62/60/62
f 63/61/63 61/59/61 60/58/60
f 64/62/64 65/61/65 66/58/66
f 67/63/67 65/61/65 64/62/64
f 68/64/68 69/54/69 70/65/70
f 71/55/71 69/54/69 68/64/68
usemtl tex_1794_sw1_0_lit_ds_w11
f 72/7/72 73/10/73 74/66/74
f 74/66/74 75/67/75 72/7/72
f 76/11/76 74/66/74 73/10/73
f 77/68/77 74/66/74 76/11/76
f 78/69/78 79/1/79 80/4/80
f 80/4/80 81/70/81 78/69/78
f 81/70/81 80/4/80 82/6/82
f 83/71/83 81/70/81 82/6/82
f 83/71/83 84/72/84 81/70/81
f 81/70/81 84/72/84 85/73/85
f 81/70/81 85/73/85 78/69/78
f 78/69/78 85/73/85 86/74/86
f 87/75/87 74/66/74 77/68/77
f 88/75/88 89/76/89 90/66/90
f 91/67/91 90/66/90 89/76/89
f 89/76/89 92/77/92 91/67/91
f 92/77/92 89/76/89 96/78/96
f 97/79/97 98/80/98 99/81/99
f 97/79/97 99/81/99 100/82/100
f 101/83/101 102/84/102 103/85/103
f 104/86/104 105/84/105 106/87/106
f 107/88/107 108/89/108 109/90/109
f 110/91/110 108/89/108 107/88/107
f 111/92/111 110/91/110 107/88/107
f 112/93/112 110/91/110 111/92/111
f 113/94/113 112/93/112 111/92/111
f 114/95/114 112/93/112 113/94/113
f 115/96/115 114/95/114 113/94/113
f 116/97/116 114/95/114 115/96/115
f 117/98/117 116/97/116 115/96/115
f 118/99/118 116/97/116 117/98/117
f 119/85/119 118/99/118 117/98/117
f 105/84/105 118/99/118 119/85/119
f 120/72/120 121/92/121 122/88/122
f 120/72/120 122/88/122 123/73/123
f 124/100/124 125/87/125 126/101/126
f 127/102/127 128/103/128 129/78/129
f 130/104/130 128/103/128 127/102/127
f 131/105/131 130/104/130 127/102/127
f 132/106/132 130/104/130 131/105/131
f 133/107/133 134/108/134 135/109/135
f 136/110/136 137/108/137 138/107/138
f 139/111/139 136/110/136 138/107/138
f 140/112/140 136/110/136 139/111/139
f 141/113/141 140/112/140 139/111/139
f 142/114/142 140/112/140 141/113/141
f 143/115/143 142/114/142 141/113/141
f 144/116/144 142/114/142 143/115/143
f 145/78/145 144/116/144 143/115/143
f 146/103/146 144/116/144 145/78/145
f 147/109/147 148/117/148 138/107/138
f 149/76/149 150/102/150 145/78/145
f 149/76/149 151/75/151 150/102/150
f 152/102/152 153/75/153 154/105/154
f 155/118/155 156/119/156 157/120/157
f 158/121/158 159/122/159 160/123/160
f 156/119/156 158/121/158 160/123/160
f 161/124/161 158/121/158 156/119/156
f 155/118/155 161/124/161 156/119/156
f 162/125/162 161/124/161 155/118/155
f 163/126/163 162/125/162 155/118/155
f 164/127/164 162/125/162 163/126/163
f 165/128/165 164/127/164 163/126/163
f 166/129/166 164/127/164 165/128/165
f 167/130/167 166/129/166 165/128/165
f 168/131/168 169/129/169 170/130/170
f 171/107/171 168/131/168 170/130/170
f 172/132/172 168/131/168 171/107/171
f 173/133/173 174/134/174 175/135/175
f 176/136/176 174/134/174 173/133/173
f 177/137/177 176/136/176 173/133/173
f 178/138/178 176/136/176 177/137/177
f 179/139/179 178/138/178 177/137/177
f 180/140/180 178/138/178 179/139/179
f 181/141/181 182/142/182 183/143/183
f 184/144/184 185/142/185 186/141/186
f 187/145/187 184/144/184 186/141/186
f 188/146/188 184/144/184 187/145/187
f 189/147/189 188/146/188 187/145/187
f 190/148/190 191/149/191 192/150/192
f 193/151/193 190/148/190 194/118/194
f 195/100/195 196/101/196 197/139/197
f 195/100/195 197/139/197 198/137/198
f 199/152/199 200/137/200 201/133/201
usemtl tex_1795_sw1_0_lit_ds_w11
f 202/153/202 203/154/203 204/155/204
f 205/156/205 203/154/203 202/153/202
f 206/157/206 205/156/205 202/153/202
f 207/158/207 205/156/205 206/157/206
f 208/159/208 207/158/207 206/157/206
f 209/160/209 207/158/207 208/159/208
f 210/161/210 209/160/209 208/159/208
f 211/162/211 209/160/209 210/161/210
f 212/163/212 211/162/211 210/161/210
f 213/164/213 211/162/211 212/163/212
f 214/165/214 213/164/213 212/163/212
f 215/166/215 216/164/216 217/165/217
f 218/167/218 215/166/215 217/165/217
f 219/168/219 215/166/215 218/167/218
f 220/155/220 219/168/219 218/167/218
f 221/154/221 219/168/219 220/155/220
f 222/169/222 220/155/220 223/170/223
f 224/153/224 220/155/220 222/169/222
f 224/153/224 222/169/222 225/157/225
f 225/157/225 222/169/222 226/171/226
f 227/172/227 225/157/225 226/171/226
f 228/159/228 225/157/225 227/172/227
f 228/159/228 227/172/227 229/161/229
f 229/161/229 227/172/227 230/173/230
f 223/170/223 220/155/220 218/167/218
f 231/174/231 232/175/232 233/176/233
f 234/177/234 232/175/232 231/174/231
f 235/178/235 234/177/234 231/174/231
f 236/179/236 234/177/234 235/178/235
f 237/180/237 236/179/236 235/178/235
f 238/181/238 236/179/236 237/180/237
f 239/182/239 238/181/238 237/180/237
f 240/183/240 238/181/238 239/182/239
f 241/184/241 240/183/240 239/182/239
f 242/185/242 240/183/240 241/184/241
f 243/186/243 242/185/242 241/184/241
f 244/187/244 242/185/242 243/186/243
f 245/188/245 244/187/244 243/186/243
f 246/189/246 244/187/244 245/188/245
f 233/176/233 246/189/246 245/188/245
f 232/175/232 246/189/246 233/176/233
f 247/190/247 248/174/248 249/191/249
f 250/178/250 248/174/248 247/190/247
f 250/178/250 247/190/247 251/192/251
f 252/193/252 250/178/250 251/192/251
f 253/180/253 250/178/250 252/193/252
f 253/180/253 252/193/252 254/194/254
f 254/194/254 255/182/255 253/180/253
f 249/191/249 248/174/248 256/176/256
f 256/176/256 257/195/257 249/191/249
f 258/196/258 259/197/259 260/198/260
f 258/196/258 260/198/260 261/199/261
f 262/200/262 258/196/258 261/199/261
f 263/200/263 264/199/264 265/201/265
f 266/202/266 263/200/263 265/201/265
f 266/202/266 265/201/265 267/203/267
f 268/204/268 266/202/266 267/203/267
f 268/204/268 267/203/267 269/205/269
f 270/206/270 271/198/271 272/197/272
f 273/196/273 274/207/274 272/197/272
f 275/208/275 274/207/274 273/196/273
f 263/200/263 275/208/275 273/196/273
f 276/209/276 275/208/275 263/200/263
f 266/202/266 276/209/276 263/200/263
f 277/210/277 276/209/276 266/202/266
f 268/204/268 277/210/277 266/202/266
f 278/211/278 277/210/277 268/204/268
f 279/212/279 280/211/280 281/204/281
f 282/213/282 280/211/280 279/212/279
f 283/214/283 282/213/282 279/212/279
f 284/215/284 282/213/282 283/214/283
f 285/216/285 284/215/284 283/214/283
f 286/217/286 284/215/284 285/216/285
f 287/197/287 286/217/286 285/216/285
f 288/207/288 286/217/286 287/197/287
f 289/218/289 290/219/290 291/220/291
f 292/221/292 290/219/290 289/218/289
f 292/221/292 289/218/289 293/222/293
f 294/222/294 295/223/295 296/224/296
f 297/225/297 294/222/294 296/224/296
f 296/224/296 298/226/298 297/225/297
f 296/224/296 299/227/299 298/226/298
f 300/220/300 301/219/301 302/228/302
f 294/222/294 303/218/303 295/223/295
f 304/221/304 305/229/305 301/219/301
f 306/230/306 305/229/305 304/221/304
f 294/222/294 306/230/306 304/221/304
f 307/231/307 306/230/306 294/222/294
f 297/225/297 307/231/307 294/222/294
f 308/232/308 307/231/307 297/225/297
f 298/226/298 308/232/308 297/225/297
f 309/233/309 308/232/308 298/226/298
f 310/234/310 311/233/311 312/226/312
f 313/235/313 311/233/311 310/234/310
f 314/236/314 313/235/313 310/234/310
f 315/237/315 313/235/313 314/236/314
f 316/228/316 315/237/315 314/236/314
f 317/238/317 315/237/315 316/228/316
f 318/219/318 317/238/317 316/228/316
f 319/229/319 317/238/317 318/219/318
usemtl tex_1798_sw1_0_lit_ds_w11
f 320/239/320 321/240/321 322/241/322
f 323/242/323 320/239/320 322/241/322
f 323/242/323 322/241/322 324/243/324
f 325/244/325 323/242/323 324/243/324
f 326/240/326 327/239/327 328/245/328
f 329/246/329 330/247/330 331/248/331
f 332/243/332 333/249/333 334/244/334
f 335/250/335 336/251/336 332/243/332
f 336/251/336 333/249/333 332/243/332
f 337/20/337 335/250/335 332/243/332
f 338/19/338 337/20/337 332/243/332
f 332/243/332 339/17/339 338/19/338
f 340/241/340 339/17/339 332/243/332
f 326/240/326 339/17/339 340/241/340
usemtl tex_1796_sw1_0_lit_ds_w11
f 341/252/341 342/253/342 343/254/343
f 344/255/344 345/256/345 341/252/341
f 345/256/345 342/253/342 341/252/341
f 346/257/346 345/256/345 344/255/344
f 347/258/347 348/259/348 349/260/349
f 347/258/347 349/260/349 350/261/350
f 351/262/351 352/263/352 348/259/348
f 351/262/351 348/259/348 347/258/347
usemtl tex_1797_sw1_0_lit_ds_w11
f 353/264/353 354/265/354 355/266/355
f 353/264/353 355/266/355 356/267/356
f 357/264/357 358/267/358 359/268/359
f 359/268/359 360/269/360 357/264/357
f 359/268/359 361/270/361 360/269/360
f 360/269/360 361/270/361 362/271/362
f 363/272/363 362/271/362 361/270/361
f 364/273/364 362/271/362 363/272/363
f 365/274/365 366/275/366 367/276/367
f 368/277/368 369/278/369 370/279/370
f 368/277/368 370/279/370 371/280/371
f 372/281/372 373/282/373 374/283/374
f 375/39/375 376/40/376 377/278/377
f 375/39/375 377/278/377 378/277/378
f 379/37/379 375/39/375 378/277/378
f 379/37/379 378/277/378 380/284/380
f 381/285/381 379/37/379 380/284/380
f 382/35/382 379/37/379 381/285/381
f 382/35/382 381/285/381 383/286/383
f 383/286/383 384/32/384 382/35/382
f 385/271/385 386/287/386 387/288/387
f 388/271/388 389/288/389 390/289/390
f 391/290/391 388/271/388 390/289/390
f 391/290/391 390/289/390 392/282/392
f 392/282/392 390/289/390 393/283/393
f 394/278/394 392/282/392 395/281/395
f 394/278/394 395/281/395 396/279/396
f 397/277/397 398/280/398 399/284/399
f 399/284/399 398/280/398 400/291/400
f 401/285/401 399/284/399 400/291/400
f 402/292/402 401/285/401 400/291/400
f 402/292/402 403/286/403 401/285/401
f 404/42/404 405/43/405 406/265/406
f 404/42/404 406/265/406 407/264/407
f 407/264/407 408/269/408 404/42/404
f 404/42/404 408/269/408 409/40/409
f 409/40/409 408/269/408 410/271/410
f 409/40/409 411/290/411 412/282/412
f 409/40/409 410/271/410 411/290/411
f 413/278/413 409/40/409 412/282/412
f 414/293/414 415/294/415 416/295/416
f 415/294/415 417/296/417 416/295/416
f 418/297/418 416/295/416 417/296/417
f 414/293/414 419/298/419 415/294/415
f 420/293/420 421/299/421 422/298/422
usemtl tex_1410_lit_ds
f 423/300/423 424/301/424 425/302/425
f 423/300/423 425/302/425 426/303/426
f 424/301/424 427/304/427 428/305/428
f 424/301/424 428/305/428 425/302/425
f 429/301/429 430/306/430 431/307/431
f 429/301/429 431/307/431 432/308/432
f 433/309/433 434/310/434 435/311/435
f 433/309/433 435/311/435 436/312/436
f 437/313/437 438/314/438 439/309/439
f 437/313/437 439/309/439 440/312/440
f 437/313/437 440/312/440 441/315/441
f 442/316/442 443/315/443 444/317/444
f 442/316/442 444/317/444 445/318/445
f 446/318/446 447/317/447 448/305/448
f 446/318/446 448/305/448 449/319/449
usemtl tex_1409_lit_ds
f 450/320/450 451/321/451 452/322/452
f 450/320/450 452/322/452 453/323/453
f 454/324/454 455/325/455 456/326/456
f 457/326/457 458/325/458 459/324/459
f 460/327/460 461/328/461 462/329/462
f 460/327/460 462/329/462 463/330/463
usemtl tex_1410_lit_ds
f 464/304/464 465/331/465 466/332/466
f 464/304/464 466/332/466 467/333/467
f 468/313/468 469/332/469 470/331/470
f 468/313/468 470/331/470 471/314/471
f 472/301/472 473/306/473 474/334/474
f 472/301/472 474/334/474 475/335/475
f 476/301/476 477/336/477 478/337/478
f 476/301/476 478/337/478 479/338/479
f 480/339/480 481/340/481 477/336/477
f 480/339/480 477/336/477 476/301/476
f 482/341/482 483/342/483 481/340/481
f 482/341/482 481/340/481 480/339/480
f 484/343/484 485/307/485 486/306/486
f 484/343/484 486/306/486 487/344/487
f 488/343/488 489/307/489 490/306/490
f 488/343/488 490/306/490 491/345/491
f 492/346/492 493/347/493 494/348/494
f 492/346/492 494/348/494 495/349/495
f 496/307/496 497/308/497 498/301/498
f 496/307/496 498/301/498 499/306/499
f 500/350/500 501/351/501 502/352/502
f 500/350/500 502/352/502 503/353/503
usemtl tex_1417_lit_ds_ovl
f 504/354/504 505/355/505 506/356/506
f 504/354/504 506/356/506 507/357/507
usemtl tex_1414_lit_ds
f 508/358/508 509/359/509 510/360/510
f 508/358/508 510/360/510 511/361/511
f 512/362/512 513/363/513 514/364/514
f 512/362/512 514/364/514 515/365/515
f 516/366/516 517/367/517 518/368/518
f 516/366/516 518/368/518 519/369/519
usemtl tex_1409_lit_ds_ovl
f 520/370/520 521/371/521 522/301/522
f 520/370/520 522/301/522 523/306/523
usemtl tex_916_lit_ds
f 524/372/524 525/373/525 526/306/526
f 524/372/524 526/306/526 527/301/527
f 528/374/528 529/375/529 530/376/530
f 528/374/528 530/376/530 531/377/531
f 532/378/532 533/379/533 534/380/534
f 532/378/532 534/380/534 535/381/535
f 536/382/536 537/383/537 538/384/538
f 536/382/536 538/384/538 539/385/539
usemtl tex_1410_lit_ds
f 540/386/540 541/387/541 542/388/542
f 540/386/540 542/388/542 543/389/543
f 544/390/544 545/391/545 546/392/546
f 547/393/547 546/392/546 548/394/548
f 549/395/549 550/396/550 544/390/544
f 550/396/550 545/391/545 544/390/544
f 550/396/550 551/397/551 545/391/545
f 552/398/552 550/396/550 553/399/553
f 546/392/546 554/400/554 555/401/555
f 556/392/556 557/401/557 558/402/558
f 558/402/558 559/401/559 560/403/560
f 561/386/561 562/400/562 563/397/563
f 564/404/564 565/395/565 566/390/566
f 564/404/564 566/390/566 567/405/567
f 567/405/567 568/406/568 564/404/564
f 569/306/569 567/405/567 570/370/570
f 568/406/568 567/405/567 569/306/569
f 569/306/569 571/301/571 568/406/568
f 572/407/572 573/408/573 574/403/574
f 572/407/572 574/403/574 575/401/575
f 576/409/576 577/389/577 573/408/573
f 576/409/576 573/408/573 572/407/572
f 578/410/578 579/400/579 580/392/580
f 581/397/581 579/400/579 582/391/582
f 576/409/576 579/400/579 583/386/583
f 576/409/576 583/386/583 577/389/577
usemtl tex_1412_lit_ds_ovl
f 584/411/584 585/412/585 586/413/586
f 584/411/584 586/413/586 587/414/587
usemtl tex_1412_lit_ds
f 588/415/588 589/416/589 590/417/590
usemtl tex_1412_lit_ds_ovl
f 591/301/591 592/306/592 593/370/593
f 591/301/591 593/370/593 594/371/594
usemtl tex_1417_lit_ds_ovl
f 595/418/595 596/419/596 597/420/597
f 595/418/595 597/420/597 598/421/598
f 595/418/595 598/421/598 599/422/599
f 600/423/600 601/424/601 602/425/602
f 600/423/600 602/425/602 603/426/603
usemtl tex_1409_lit_ds_ovl
f 604/301/604 605/427/605 606/428/606
f 604/301/604 606/428/606 607/429/607
usemtl tex_1413_lit_sec_ds_w11_ovl
f 608/371/608 609/370/609 610/306/610
f 608/371/608 610/306/610 611/301/611
usemtl tex_23_lit_sec_ds_w11_ovl
f 612/430/612 613/431/613 614/301/614
f 612/430/612 614/301/614 615/432/615
usemtl tex_24_lit_sec_ds_w11
f 616/432/616 617/430/617 618/431/618
f 616/432/616 618/431/618 619/301/619
usemtl tex_1410_lit_ds
f 620/433/620 621/434/621 622/306/622
f 620/433/620 622/306/622 623/435/623
f 624/436/624 625/437/625 626/433/626
f 625/437/625 627/438/627 628/434/628
f 625/437/625 628/434/628 626/433/626
f 627/438/627 629/439/629 628/434/628
f 630/301/630 631/306/631 632/440/632
f 633/441/633 634/442/634 635/443/635
usemtl tex_1412_lit_ds
f 636/306/636 637/444/637 638/445/638
f 636/306/636 638/445/638 639/301/639
usemtl tex_1412_lit_ds_ovl
f 640/446/640 641/447/641 642/301/642
f 640/446/640 642/301/642 643/306/643
usemtl tex_1414_lit_ds
f 644/448/644 645/371/645 646/301/646
f 644/448/644 646/301/646 647/449/647
f 648/370/648 649/371/649 650/301/650
f 648/370/648 650/301/650 651/306/651
usemtl tex_1414_lit_ds_ovl
f 652/449/652 653/301/653 654/306/654
f 652/449/652 654/306/654 655/450/655
usemtl tex_1414_lit_ds
f 656/370/656 657/371/657 658/448/658
f 656/370/656 658/448/658 659/451/659
usemtl tex_1415_lit_ds
f 660/306/660 661/370/661 662/452/662
f 660/306/660 662/452/662 663/453/663
usemtl tex_1415_lit_ds_ovl
f 664/370/664 665/371/665 666/301/666
f 664/370/664 666/301/666 667/306/667
usemtl tex_1415_lit_ds
f 668/301/668 669/306/669 670/453/670
usemtl tex_1415_lit_ds_ovl
f 668/301/668 670/453/670 671/454/671
f 672/452/672 673/370/673 674/371/674
f 672/452/672 674/371/674 675/455/675
usemtl tex_1409_lit_ds
f 676/456/676 677/301/677 678/457/678
f 676/456/676 678/457/678 679/458/679
usemtl tex_2057_sw2_0_lit_ds
f 680/459/680 681/460/681 682/301/682
f 680/459/680 682/301/682 683/461/683
usemtl tex_1795_sw3_0_lit_ds_w11
f 684/462/684 685/463/685 686/464/686
f 686/464/686 685/463/685 687/465/687
f 686/464/686 687/465/687 688/466/688
f 688/466/688 687/465/687 689/467/689
f 688/466/688 689/467/689 690/468/690
f 690/468/690 689/467/689 691/469/691
f 690/468/690 691/469/691 692/470/692
f 692/470/692 691/469/691 693/471/693
f 692/470/692 693/471/693 694/472/694
f 694/472/694 693/471/693 695/473/695
f 694/472/694 695/473/695 696/474/696
f 696/474/696 695/473/695 697/475/697
f 696/474/696 697/475/697 698/476/698
f 698/476/698 697/475/697 699/477/699
f 698/476/698 699/477/699 684/462/684
f 684/462/684 699/477/699 685/463/685
f 700/464/700 701/478/701 702/479/702
f 703/466/703 701/478/701 700/464/700
f 704/468/704 701/478/701 703/466/703
f 700/464/700 702/479/702 705/462/705
f 702/479/702 706/476/706 705/462/705
f 701/478/701 704/468/704 707/470/707
f 708/472/708 701/478/701 707/470/707
f 709/474/709 701/478/701 708/472/708
f 702/479/702 701/478/701 709/474/709
f 702/479/702 709/474/709 706/476/706
usemtl tex_1798_sw3_0_lit_ds_w11
f 710/480/710 711/239/711 712/481/712
f 712/481/712 711/239/711 713/242/713
f 712/481/712 713/242/713 714/482/714
f 714/482/714 713/242/713 715/244/715
f 716/482/716 717/244/717 718/483/718
f 718/483/718 717/244/717 719/244/719
f 720/484/720 721/245/721 722/480/722
f 722/480/722 721/245/721 723/239/723
f 720/484/720 724/485/724 725/484/725
f 726/486/726 724/485/724 720/484/720
f 726/486/726 720/484/720 722/480/722
f 726/486/726 722/480/722 727/487/727
f 728/488/728 727/487/727 729/481/729
f 727/487/727 722/480/722 729/481/729
f 730/489/730 728/488/728 716/482/716
f 716/482/716 718/483/718 730/489/730
f 729/481/729 716/482/716 728/488/728
usemtl tex_1797_sw3_0_lit_ds_w11
f 731/490/731 732/272/732 733/491/733
f 733/491/733 732/272/732 734/270/734
f 733/491/733 734/270/734 735/492/735
f 735/492/735 734/270/734 736/268/736
f 735/492/735 736/268/736 737/493/737
f 737/493/737 736/268/736 738/267/738
f 737/493/737 738/267/738 739/494/739
f 739/494/739 738/267/738 740/266/740
f 741/495/741 737/493/737 739/494/739
f 739/494/739 742/496/742 741/495/741
f 735/492/735 737/493/737 741/495/741
f 735/492/735 741/495/741 743/497/743
f 733/491/733 735/492/735 743/497/743
f 744/498/744 745/499/745 746/500/746
f 747/501/747 748/491/748 749/497/749
usemtl tex_1795_sw4_0_lit_ds_w11
f 750/502/750 751/175/751 752/503/752
f 751/175/751 753/177/753 752/503/752
f 752/503/752 753/177/753 754/504/754
f 754/504/754 753/177/753 755/179/755
f 756/505/756 754/504/754 755/179/755
f 756/505/756 755/179/755 757/181/757
f 757/181/757 758/183/758 756/505/756
f 758/183/758 759/506/759 756/505/756
f 751/175/751 750/502/750 760/189/760
f 761/230/761 762/507/762 763/229/763
f 764/508/764 762/507/762 761/230/761
f 764/508/764 761/230/761 765/231/765
f 766/509/766 767/508/767 768/231/768
f 766/509/766 768/231/768 769/510/769
f 769/510/769 768/231/768 770/232/770
f 771/511/771 769/510/769 770/232/770
f 771/511/771 770/232/770 772/233/772
f 773/229/773 774/507/774 775/512/775
usemtl tex_1796_sw4_0_lit_ds_w11
f 776/513/776 777/514/777 778/515/778
f 779/516/779 777/514/777 776/513/776
f 780/517/780 777/514/777 779/516/779
f 776/513/776 778/515/778 781/518/781
f 782/515/782 783/519/783 784/518/784
f 785/514/785 786/517/786 787/520/787
f 788/521/788 785/514/785 787/520/787
f 789/522/789 785/514/785 788/521/788
f 782/515/782 785/514/785 789/522/789
f 782/515/782 789/522/789 783/519/783
f 784/518/784 790/523/790 791/513/791
f 791/513/791 790/523/790 792/524/792
f 791/513/791 792/524/792 793/516/793
f 793/516/793 792/524/792 794/525/794
f 793/516/793 794/525/794 786/517/786
f 786/517/786 794/525/794 795/526/795
f 786/517/786 795/526/795 787/520/787
f 787/520/787 795/526/795 796/527/796
f 787/520/787 796/527/796 788/521/788
f 788/521/788 796/527/796 797/528/797
f 788/521/788 797/528/797 789/522/789
f 798/522/798 799/528/799 800/529/800
f 798/522/798 800/529/800 801/519/801
f 801/519/801 800/529/800 802/530/802
f 801/519/801 802/530/802 803/518/803
f 803/518/803 802/530/802 804/523/804
f 805/531/805 804/523/804 806/532/806
f 807/533/807 808/534/808 809/527/809
f 807/533/807 809/527/809 810/526/810
f 811/535/811 807/533/807 810/526/810
f 811/535/811 810/526/810 812/525/812
f 812/525/812 813/524/813 811/535/811
f 814/524/814 815/536/815 816/535/816
f 814/524/814 817/523/817 815/536/815
f 815/536/815 817/523/817 818/531/818
f 819/537/819 820/538/820 821/539/821
f 821/539/821 820/538/820 822/540/822
f 821/539/821 822/540/822 823/541/823
f 823/541/823 822/540/822 824/542/824
f 823/541/823 824/542/824 825/543/825
f 825/543/825 824/542/824 826/544/826
f 825/543/825 826/544/826 827/545/827
f 827/545/827 826/544/826 828/546/828
f 827/545/827 828/546/828 829/547/829
f 830/547/830 831/546/831 832/548/832
f 830/547/830 832/548/832 833/549/833
f 833/549/833 832/548/832 834/550/834
f 833/549/833 834/550/834 835/551/835
f 835/551/835 834/550/834 836/552/836
f 835/551/835 836/552/836 837/537/837
f 837/537/837 836/552/836 838/538/838
f 839/539/839 840/553/840 841/554/841
f 842/541/842 840/553/840 839/539/839
f 843/543/843 840/553/840 842/541/842
f 839/539/839 841/554/841 837/537/837
f 841/554/841 835/551/835 837/537/837
f 840/553/840 843/543/843 844/545/844
f 830/547/830 840/553/840 844/545/844
f 833/549/833 840/553/840 830/547/830
f 841/554/841 840/553/840 833/549/833
f 841/554/841 833/549/833 835/551/835
f 845/555/845 846/556/846 847/557/847
f 847/557/847 846/556/846 848/558/848
f 849/559/849 850/560/850 851/561/851
f 851/561/851 850/560/850 852/562/852
f 851/561/851 853/563/853 854/564/854
f 854/564/854 853/563/853 855/565/855
f 854/564/854 855/565/855 856/566/856
f 856/566/856 855/565/855 857/567/857
f 856/566/856 857/567/857 858/568/858
f 858/568/858 857/567/857 859/569/859
f 858/568/858 859/569/859 860/570/860
f 861/570/861 862/569/862 863/571/863
f 861/570/861 863/571/863 864/572/864
f 864/572/864 863/571/863 865/573/865
f 864/572/864 865/573/865 866/574/866
f 867/555/867 868/575/868 869/556/869
f 870/557/870 871/576/871 872/577/872
f 873/561/873 871/576/871 870/557/870
f 874/564/874 871/576/871 873/561/873
f 870/557/870 872/577/872 866/574/866
f 872/577/872 864/572/864 866/574/866
f 871/576/871 874/564/874 875/566/875
f 876/568/876 871/576/871 875/566/875
f 861/570/861 871/576/871 876/568/876
f 872/577/872 871/576/871 861/570/861
f 872/577/872 861/570/861 864/572/864
f 877/578/877 878/579/878 879/580/879
f 879/580/879 878/579/878 880/581/880
f 879/580/879 880/581/880 881/582/881
f 881/582/881 880/581/880 882/583/882
f 881/582/881 882/583/882 883/584/883
f 883/584/883 882/583/882 884/585/884
f 883/584/883 884/585/884 885/586/885
f 885/586/885 884/585/884 886/587/886
f 885/586/885 886/587/886 887/588/887
f 887/588/887 886/587/886 888/589/888
f 887/588/887 888/589/888 889/590/889
f 889/590/889 888/589/888 890/591/890
f 889/590/889 890/591/890 891/592/891
f 891/592/891 890/591/890 892/593/892
f 891/592/891 892/593/892 877/578/877
f 877/578/877 892/593/892 878/579/878
f 893/580/893 894/594/894 895/595/895
f 896/582/896 894/594/894 893/580/893
f 897/584/897 894/594/894 896/582/896
f 893/580/893 895/595/895 898/578/898
f 895/595/895 899/592/899 898/578/898
f 894/594/894 897/584/897 900/586/900
f 901/588/901 894/594/894 900/586/900
f 902/590/902 894/594/894 901/588/901
f 895/595/895 894/594/894 902/590/902
f 895/595/895 902/590/902 899/592/899
f 903/596/903 904/579/904 905/597/905
f 906/581/906 904/579/904 903/596/903
f 906/581/906 903/596/903 907/598/907
f 908/583/908 906/581/906 907/598/907
f 909/583/909 910/598/910 911/599/911
f 912/585/912 909/583/909 911/599/911
f 912/585/912 911/599/911 913/600/913
f 914/587/914 912/585/912 913/600/913
f 915/597/915 916/579/916 917/593/917
