mtllib GthrowknifeZ.mtl
v -21.0 23.0 -28.0 1.000 1.000 1.000
v -12.0 22.0 -27.0 1.000 1.000 1.000
v -8.0 17.0 -52.0 1.000 1.000 1.000
v -28.0 -42.0 -30.0 1.000 1.000 1.000
v -21.0 -37.0 -53.0 1.000 1.000 1.000
v -9.0 -55.0 -28.0 1.000 1.000 1.000
v -31.0 -24.0 -30.0 1.000 1.000 1.000
v -26.0 -14.0 -54.0 1.000 1.000 1.000
v -30.0 -6.0 -30.0 1.000 1.000 1.000
v -21.0 8.0 -53.0 1.000 1.000 1.000
v -29.0 11.0 -30.0 1.000 1.000 1.000
v -35.0 -20.0 -6.0 1.000 1.000 1.000
v -32.0 -45.0 -6.0 1.000 1.000 1.000
v -33.0 11.0 -6.0 1.000 1.000 1.000
v -28.0 31.0 -5.0 1.000 1.000 1.000
v -20.0 35.0 -4.0 1.000 1.000 1.000
v -22.0 -65.0 -5.0 1.000 1.000 1.000
v -29.0 -61.0 -5.0 1.000 1.000 1.000
v -9.0 -55.0 -28.0 1.000 1.000 1.000
v -28.0 -42.0 -30.0 1.000 1.000 1.000
v -32.0 -45.0 -6.0 1.000 1.000 1.000
v -31.0 -24.0 -30.0 1.000 1.000 1.000
v -29.0 11.0 -30.0 1.000 1.000 1.000
v -30.0 -6.0 -30.0 1.000 1.000 1.000
v -33.0 11.0 -6.0 1.000 1.000 1.000
v -35.0 -20.0 -6.0 1.000 1.000 1.000
v -38.0 11.0 11.0 1.000 1.000 1.000
v -43.0 -4.0 11.0 1.000 1.000 1.000
v -37.0 27.0 11.0 1.000 1.000 1.000
v -40.0 11.0 31.0 1.000 1.000 1.000
v -42.0 28.0 39.0 1.000 1.000 1.000
v -34.0 35.0 31.0 1.000 1.000 1.000
v -25.0 39.0 20.0 1.000 1.000 1.000
v -24.0 39.0 12.0 1.000 1.000 1.000
v -33.0 35.0 12.0 1.000 1.000 1.000
v -42.0 28.0 39.0 1.000 1.000 1.000
v -37.0 27.0 11.0 1.000 1.000 1.000
v -38.0 11.0 11.0 1.000 1.000 1.000
v -40.0 11.0 31.0 1.000 1.000 1.000
v -48.0 -4.0 38.0 1.000 1.000 1.000
v -43.0 -4.0 11.0 1.000 1.000 1.000
v -42.0 -20.0 31.0 1.000 1.000 1.000
v -40.0 -20.0 11.0 1.000 1.000 1.000
v -38.0 -45.0 23.0 1.000 1.000 1.000
v -41.0 -32.0 11.0 1.000 1.000 1.000
v -37.0 -45.0 11.0 1.000 1.000 1.000
v -34.0 -65.0 11.0 1.000 1.000 1.000
v -29.0 -61.0 -5.0 1.000 1.000 1.000
v -22.0 -65.0 -5.0 1.000 1.000 1.000
v -38.0 -57.0 11.0 1.000 1.000 1.000
v -32.0 -45.0 -6.0 1.000 1.000 1.000
v -37.0 -45.0 11.0 1.000 1.000 1.000
v -41.0 -32.0 11.0 1.000 1.000 1.000
v -40.0 -20.0 11.0 1.000 1.000 1.000
v -35.0 -20.0 -6.0 1.000 1.000 1.000
v -43.0 -4.0 11.0 1.000 1.000 1.000
v -33.0 11.0 -6.0 1.000 1.000 1.000
v -38.0 11.0 11.0 1.000 1.000 1.000
v -37.0 27.0 11.0 1.000 1.000 1.000
v -33.0 35.0 12.0 1.000 1.000 1.000
v -28.0 31.0 -5.0 1.000 1.000 1.000
v -33.0 35.0 12.0 1.000 1.000 1.000
v -24.0 39.0 12.0 1.000 1.000 1.000
v -20.0 35.0 -4.0 1.000 1.000 1.000
v -28.0 31.0 -5.0 1.000 1.000 1.000
v -40.0 11.0 31.0 1.000 1.000 1.000
v -36.0 16.0 49.0 1.000 1.000 1.000
v -41.0 23.0 48.0 1.000 1.000 1.000
v -42.0 28.0 39.0 1.000 1.000 1.000
v -12.0 22.0 -27.0 1.000 1.000 1.000
v 5.0 8.0 -51.0 1.000 1.000 1.000
v -8.0 17.0 -52.0 1.000 1.000 1.000
v 11.0 16.0 -26.0 1.000 1.000 1.000
v -12.0 22.0 -27.0 1.000 1.000 1.000
v -8.0 35.0 -5.0 1.000 1.000 1.000
v -20.0 35.0 -4.0 1.000 1.000 1.000
v 14.0 27.0 -18.0 1.000 1.000 1.000
v 23.0 35.0 11.0 1.000 1.000 1.000
v 14.0 27.0 -18.0 1.000 1.000 1.000
v 4.0 40.0 9.0 1.000 1.000 1.000
v -7.0 36.0 18.0 1.000 1.000 1.000
v -8.0 35.0 -5.0 1.000 1.000 1.000
v -20.0 35.0 -4.0 1.000 1.000 1.000
v -24.0 39.0 12.0 1.000 1.000 1.000
v -25.0 39.0 20.0 1.000 1.000 1.000
v -18.0 34.0 33.0 1.000 1.000 1.000
v 13.0 27.0 34.0 1.000 1.000 1.000
v 21.0 42.0 21.0 1.000 1.000 1.000
v 29.0 37.0 21.0 1.000 1.000 1.000
v 14.0 44.0 30.0 1.000 1.000 1.000
v 14.0 -14.0 -59.0 1.000 1.000 1.000
v 5.0 -37.0 -51.0 1.000 1.000 1.000
v 28.0 -14.0 -166.0 1.000 1.000 1.000
v 28.0 -14.0 -166.0 1.000 1.000 1.000
v 5.0 -37.0 -51.0 1.000 1.000 1.000
v 21.0 -46.0 -166.0 1.000 1.000 1.000
v -8.0 -46.0 -52.0 1.000 1.000 1.000
v 2.0 -58.0 -168.0 1.000 1.000 1.000
v 5.0 8.0 -51.0 1.000 1.000 1.000
v 14.0 -14.0 -59.0 1.000 1.000 1.000
v 21.0 17.0 -166.0 1.000 1.000 1.000
v 11.0 16.0 -26.0 1.000 1.000 1.000
v 25.0 -10.0 -27.0 1.000 1.000 1.000
v 5.0 8.0 -51.0 1.000 1.000 1.000
v 14.0 -14.0 -59.0 1.000 1.000 1.000
v 23.0 -32.0 -24.0 1.000 1.000 1.000
v 5.0 -37.0 -51.0 1.000 1.000 1.000
v 7.0 -50.0 -27.0 1.000 1.000 1.000
v -8.0 -46.0 -52.0 1.000 1.000 1.000
v 7.0 -50.0 -27.0 1.000 1.000 1.000
v -1.0 -55.0 -27.0 1.000 1.000 1.000
v -8.0 -46.0 -52.0 1.000 1.000 1.000
v 11.0 16.0 -26.0 1.000 1.000 1.000
v 14.0 27.0 -18.0 1.000 1.000 1.000
v 25.0 -10.0 -27.0 1.000 1.000 1.000
v 27.0 9.0 -15.0 1.000 1.000 1.000
v -3.0 -26.0 -6.0 1.000 1.000 1.000
v 23.0 -32.0 -24.0 1.000 1.000 1.000
v 4.0 -38.0 -2.0 1.000 1.000 1.000
v -1.0 -54.0 -3.0 1.000 1.000 1.000
v 7.0 -50.0 -27.0 1.000 1.000 1.000
v -13.0 -62.0 -4.0 1.000 1.000 1.000
v -1.0 -55.0 -27.0 1.000 1.000 1.000
v -22.0 -65.0 -5.0 1.000 1.000 1.000
v -9.0 -55.0 -28.0 1.000 1.000 1.000
v 4.0 -38.0 -2.0 1.000 1.000 1.000
v -3.0 -26.0 -6.0 1.000 1.000 1.000
v -17.0 -34.0 13.0 1.000 1.000 1.000
v -16.0 -18.0 13.0 1.000 1.000 1.000
v -7.0 2.0 18.0 1.000 1.000 1.000
v -11.0 -15.0 15.0 1.000 1.000 1.000
v 25.0 3.0 17.0 1.000 1.000 1.000
v 27.0 9.0 -15.0 1.000 1.000 1.000
v 33.0 24.0 14.0 1.000 1.000 1.000
v 23.0 35.0 11.0 1.000 1.000 1.000
v 14.0 27.0 -18.0 1.000 1.000 1.000
v -16.0 22.0 41.0 1.000 1.000 1.000
v -20.0 10.0 33.0 1.000 1.000 1.000
v 29.0 37.0 21.0 1.000 1.000 1.000
v -8.0 -46.0 -52.0 1.000 1.000 1.000
v -21.0 -37.0 -53.0 1.000 1.000 1.000
v 2.0 -58.0 -168.0 1.000 1.000 1.000
v -16.0 -46.0 -169.0 1.000 1.000 1.000
v -26.0 -14.0 -54.0 1.000 1.000 1.000
v -34.0 -14.0 -170.0 1.000 1.000 1.000
v -21.0 8.0 -53.0 1.000 1.000 1.000
v -16.0 17.0 -169.0 1.000 1.000 1.000
v -8.0 17.0 -52.0 1.000 1.000 1.000
v 2.0 20.0 -168.0 1.000 1.000 1.000
v 5.0 8.0 -51.0 1.000 1.000 1.000
v 21.0 17.0 -166.0 1.000 1.000 1.000
v -9.0 -55.0 -28.0 1.000 1.000 1.000
v -1.0 -55.0 -27.0 1.000 1.000 1.000
v 19.0 -17.0 77.0 1.000 1.000 1.000
v 21.0 -15.0 67.0 1.000 1.000 1.000
v 18.0 -15.0 71.0 1.000 1.000 1.000
v 27.0 -17.0 65.0 1.000 1.000 1.000
v 20.0 -24.0 79.0 1.000 1.000 1.000
v 28.0 -23.0 65.0 1.000 1.000 1.000
v 28.0 -30.0 65.0 1.000 1.000 1.000
v 20.0 -30.0 78.0 1.000 1.000 1.000
v 22.0 -33.0 66.0 1.000 1.000 1.000
v 20.0 -33.0 72.0 1.000 1.000 1.000
v 16.0 -18.0 68.0 1.000 1.000 1.000
v 17.0 -13.0 44.0 1.000 1.000 1.000
v 21.0 -15.0 67.0 1.000 1.000 1.000
v 23.0 -16.0 43.0 1.000 1.000 1.000
v 27.0 -17.0 65.0 1.000 1.000 1.000
v 24.0 -22.0 42.0 1.000 1.000 1.000
v 24.0 -22.0 42.0 1.000 1.000 1.000
v 27.0 -17.0 65.0 1.000 1.000 1.000
v 28.0 -23.0 65.0 1.000 1.000 1.000
v 24.0 -29.0 42.0 1.000 1.000 1.000
v 28.0 -30.0 65.0 1.000 1.000 1.000
v 18.0 -32.0 43.0 1.000 1.000 1.000
v 22.0 -33.0 66.0 1.000 1.000 1.000
v 15.0 -29.0 44.0 1.000 1.000 1.000
v 16.0 -31.0 67.0 1.000 1.000 1.000
v 12.0 -23.0 45.0 1.000 1.000 1.000
v 14.0 -24.0 68.0 1.000 1.000 1.000
v 14.0 -16.0 45.0 1.000 1.000 1.000
v 16.0 -18.0 68.0 1.000 1.000 1.000
v 17.0 -13.0 44.0 1.000 1.000 1.000
v 21.0 -15.0 67.0 1.000 1.000 1.000
v 23.0 -16.0 43.0 1.000 1.000 1.000
v 20.0 -27.0 35.0 1.000 1.000 1.000
v 20.0 -17.0 36.0 1.000 1.000 1.000
v 24.0 -22.0 42.0 1.000 1.000 1.000
v 24.0 -29.0 42.0 1.000 1.000 1.000
v 17.0 -13.0 44.0 1.000 1.000 1.000
v 14.0 -16.0 45.0 1.000 1.000 1.000
v 18.0 -32.0 43.0 1.000 1.000 1.000
v 15.0 -29.0 44.0 1.000 1.000 1.000
v 12.0 -23.0 45.0 1.000 1.000 1.000
v 26.0 -7.0 52.0 1.000 1.000 1.000
v 27.0 0.0 75.0 1.000 1.000 1.000
v 28.0 -7.0 75.0 1.000 1.000 1.000
v 25.0 -1.0 52.0 1.000 1.000 1.000
v 21.0 -3.0 45.0 1.000 1.000 1.000
v 13.0 -8.0 53.0 1.000 1.000 1.000
v 15.0 -1.0 52.0 1.000 1.000 1.000
v 21.0 -12.0 45.0 1.000 1.000 1.000
v 16.0 -14.0 53.0 1.000 1.000 1.000
v 19.0 2.0 52.0 1.000 1.000 1.000
v 25.0 -14.0 52.0 1.000 1.000 1.000
v 14.0 -1.0 74.0 1.000 1.000 1.000
v 20.0 2.0 75.0 1.000 1.000 1.000
v 11.0 -5.0 74.0 1.000 1.000 1.000
v 14.0 -14.0 75.0 1.000 1.000 1.000
v 19.0 -17.0 52.0 1.000 1.000 1.000
v 27.0 -13.0 76.0 1.000 1.000 1.000
v 21.0 -16.0 75.0 1.000 1.000 1.000
v 16.0 -14.0 53.0 1.000 1.000 1.000
v 14.0 -14.0 75.0 1.000 1.000 1.000
v 21.0 -12.0 45.0 1.000 1.000 1.000
v 25.0 -14.0 52.0 1.000 1.000 1.000
v 28.0 -7.0 75.0 1.000 1.000 1.000
v 18.0 -35.0 36.0 1.000 1.000 1.000
v 12.0 -41.0 45.0 1.000 1.000 1.000
v 14.0 -35.0 45.0 1.000 1.000 1.000
v 19.0 -43.0 35.0 1.000 1.000 1.000
v 15.0 -46.0 44.0 1.000 1.000 1.000
v 17.0 -48.0 43.0 1.000 1.000 1.000
v 22.0 -45.0 42.0 1.000 1.000 1.000
v 16.0 -32.0 45.0 1.000 1.000 1.000
v 21.0 -34.0 43.0 1.000 1.000 1.000
v 22.0 -40.0 43.0 1.000 1.000 1.000
v 15.0 -37.0 66.0 1.000 1.000 1.000
v 20.0 -34.0 65.0 1.000 1.000 1.000
v 13.0 -43.0 65.0 1.000 1.000 1.000
v 16.0 -48.0 64.0 1.000 1.000 1.000
v 21.0 -50.0 63.0 1.000 1.000 1.000
v 28.0 -47.0 64.0 1.000 1.000 1.000
v 22.0 -45.0 42.0 1.000 1.000 1.000
v 28.0 -42.0 64.0 1.000 1.000 1.000
v 28.0 -47.0 64.0 1.000 1.000 1.000
v 22.0 -40.0 43.0 1.000 1.000 1.000
v 26.0 -36.0 65.0 1.000 1.000 1.000
v 21.0 -34.0 43.0 1.000 1.000 1.000
v 20.0 -34.0 65.0 1.000 1.000 1.000
v 18.0 -34.0 69.0 1.000 1.000 1.000
v 15.0 -37.0 66.0 1.000 1.000 1.000
v 21.0 -50.0 63.0 1.000 1.000 1.000
v 20.0 -51.0 70.0 1.000 1.000 1.000
v 17.0 -48.0 75.0 1.000 1.000 1.000
v 17.0 -42.0 76.0 1.000 1.000 1.000
v 16.0 -37.0 75.0 1.000 1.000 1.000
v 16.0 -32.0 45.0 1.000 1.000 1.000
v 27.0 30.0 49.0 1.000 1.000 1.000
v 28.0 30.0 72.0 1.000 1.000 1.000
v 33.0 27.0 49.0 1.000 1.000 1.000
v 34.0 28.0 72.0 1.000 1.000 1.000
v 33.0 21.0 49.0 1.000 1.000 1.000
v 35.0 21.0 71.0 1.000 1.000 1.000
v 32.0 14.0 49.0 1.000 1.000 1.000
v 34.0 15.0 72.0 1.000 1.000 1.000
v 26.0 12.0 49.0 1.000 1.000 1.000
v 28.0 12.0 72.0 1.000 1.000 1.000
v 24.0 15.0 49.0 1.000 1.000 1.000
v 22.0 15.0 72.0 1.000 1.000 1.000
v 21.0 21.0 49.0 1.000 1.000 1.000
v 20.0 22.0 72.0 1.000 1.000 1.000
v 24.0 27.0 49.0 1.000 1.000 1.000
v 22.0 28.0 72.0 1.000 1.000 1.000
v 33.0 27.0 49.0 1.000 1.000 1.000
v 30.0 16.0 41.0 1.000 1.000 1.000
v 31.0 25.0 41.0 1.000 1.000 1.000
v 33.0 21.0 49.0 1.000 1.000 1.000
v 32.0 14.0 49.0 1.000 1.000 1.000
v 27.0 30.0 49.0 1.000 1.000 1.000
v 24.0 27.0 49.0 1.000 1.000 1.000
v 26.0 12.0 49.0 1.000 1.000 1.000
v 24.0 15.0 49.0 1.000 1.000 1.000
v 21.0 21.0 49.0 1.000 1.000 1.000
v 32.0 36.0 72.0 1.000 1.000 1.000
v 31.0 36.0 52.0 1.000 1.000 1.000
v 35.0 40.0 54.0 1.000 1.000 1.000
v 32.0 41.0 74.0 1.000 1.000 1.000
v 19.0 41.0 76.0 1.000 1.000 1.000
v 28.0 38.0 77.0 1.000 1.000 1.000
v 26.0 44.0 74.0 1.000 1.000 1.000
v 21.0 45.0 74.0 1.000 1.000 1.000
v 29.0 34.0 71.0 1.000 1.000 1.000
v 17.0 41.0 72.0 1.000 1.000 1.000
v 15.0 37.0 66.0 1.000 1.000 1.000
v 23.0 33.0 66.0 1.000 1.000 1.000
v 35.0 46.0 56.0 1.000 1.000 1.000
v 30.0 49.0 56.0 1.000 1.000 1.000
v 22.0 50.0 55.0 1.000 1.000 1.000
v 18.0 46.0 51.0 1.000 1.000 1.000
v 15.0 37.0 66.0 1.000 1.000 1.000
v 18.0 46.0 51.0 1.000 1.000 1.000
v 15.0 40.0 54.0 1.000 1.000 1.000
v 23.0 33.0 66.0 1.000 1.000 1.000
v 25.0 33.0 57.0 1.000 1.000 1.000
v 29.0 34.0 71.0 1.000 1.000 1.000
v 31.0 36.0 52.0 1.000 1.000 1.000
v 32.0 36.0 72.0 1.000 1.000 1.000
v 15.0 39.0 49.0 1.000 1.000 1.000
v 21.0 33.0 49.0 1.000 1.000 1.000
v 25.0 33.0 57.0 1.000 1.000 1.000
v 15.0 40.0 54.0 1.000 1.000 1.000
v 18.0 46.0 51.0 1.000 1.000 1.000
v 16.0 44.0 45.0 1.000 1.000 1.000
v 21.0 33.0 49.0 1.000 1.000 1.000
v 28.0 32.0 49.0 1.000 1.000 1.000
v 25.0 33.0 57.0 1.000 1.000 1.000
v 25.0 33.0 57.0 1.000 1.000 1.000
v 28.0 32.0 49.0 1.000 1.000 1.000
v 31.0 36.0 52.0 1.000 1.000 1.000
v 17.0 21.0 37.0 1.000 1.000 1.000
v 13.0 27.0 34.0 1.000 1.000 1.000
v -18.0 34.0 33.0 1.000 1.000 1.000
v 31.0 45.0 44.0 1.000 1.000 1.000
v 30.0 49.0 56.0 1.000 1.000 1.000
v 35.0 46.0 56.0 1.000 1.000 1.000
v 22.0 50.0 55.0 1.000 1.000 1.000
v 24.0 47.0 44.0 1.000 1.000 1.000
v 18.0 46.0 51.0 1.000 1.000 1.000
v 16.0 44.0 45.0 1.000 1.000 1.000
v 21.0 42.0 21.0 1.000 1.000 1.000
v 14.0 44.0 30.0 1.000 1.000 1.000
v 15.0 39.0 49.0 1.000 1.000 1.000
v 13.0 27.0 34.0 1.000 1.000 1.000
v 21.0 33.0 49.0 1.000 1.000 1.000
v 17.0 21.0 37.0 1.000 1.000 1.000
v 31.0 45.0 44.0 1.000 1.000 1.000
v 29.0 37.0 21.0 1.000 1.000 1.000
v 24.0 47.0 44.0 1.000 1.000 1.000
v 21.0 42.0 21.0 1.000 1.000 1.000
v 25.0 3.0 17.0 1.000 1.000 1.000
v 25.0 19.0 37.0 1.000 1.000 1.000
v -7.0 2.0 18.0 1.000 1.000 1.000
v 17.0 21.0 37.0 1.000 1.000 1.000
v -18.0 34.0 33.0 1.000 1.000 1.000
v 35.0 40.0 54.0 1.000 1.000 1.000
v 35.0 39.0 45.0 1.000 1.000 1.000
v 31.0 45.0 44.0 1.000 1.000 1.000
v 35.0 46.0 56.0 1.000 1.000 1.000
v 34.0 34.0 49.0 1.000 1.000 1.000
v 31.0 36.0 52.0 1.000 1.000 1.000
v 28.0 32.0 49.0 1.000 1.000 1.000
v 21.0 33.0 49.0 1.000 1.000 1.000
v 17.0 21.0 37.0 1.000 1.000 1.000
v 28.0 32.0 49.0 1.000 1.000 1.000
v 25.0 19.0 37.0 1.000 1.000 1.000
v 34.0 34.0 49.0 1.000 1.000 1.000
v 31.0 22.0 34.0 1.000 1.000 1.000
v 35.0 39.0 45.0 1.000 1.000 1.000
v 32.0 28.0 29.0 1.000 1.000 1.000
v 31.0 45.0 44.0 1.000 1.000 1.000
v 29.0 37.0 21.0 1.000 1.000 1.000
v 33.0 24.0 14.0 1.000 1.000 1.000
v 25.0 3.0 17.0 1.000 1.000 1.000
v 25.0 31.0 77.0 1.000 1.000 1.000
v 28.0 30.0 72.0 1.000 1.000 1.000
v 24.0 28.0 71.0 1.000 1.000 1.000
v 24.0 13.0 77.0 1.000 1.000 1.000
v 28.0 12.0 72.0 1.000 1.000 1.000
v 34.0 15.0 72.0 1.000 1.000 1.000
v 25.0 15.0 84.0 1.000 1.000 1.000
v 26.0 22.0 85.0 1.000 1.000 1.000
v 35.0 21.0 71.0 1.000 1.000 1.000
v 26.0 28.0 84.0 1.000 1.000 1.000
v 34.0 28.0 72.0 1.000 1.000 1.000
v -8.0 34.0 82.0 1.000 1.000 1.000
v -8.0 31.0 74.0 1.000 1.000 1.000
v 23.0 22.0 68.0 1.000 1.000 1.000
v -8.0 23.0 71.0 1.000 1.000 1.000
v 23.0 15.0 71.0 1.000 1.000 1.000
v -8.0 23.0 71.0 1.000 1.000 1.000
v 23.0 15.0 71.0 1.000 1.000 1.000
v -8.0 15.0 74.0 1.000 1.000 1.000
v 25.0 15.0 84.0 1.000 1.000 1.000
v 26.0 22.0 85.0 1.000 1.000 1.000
v -8.0 15.0 90.0 1.000 1.000 1.000
v -8.0 23.0 92.0 1.000 1.000 1.000
v 26.0 28.0 84.0 1.000 1.000 1.000
v -8.0 31.0 90.0 1.000 1.000 1.000
v 25.0 31.0 77.0 1.000 1.000 1.000
v -8.0 34.0 82.0 1.000 1.000 1.000
v -24.0 0.0 98.0 1.000 1.000 1.000
v 15.0 2.0 79.0 1.000 1.000 1.000
v -23.0 3.0 90.0 1.000 1.000 1.000
v 15.0 -1.0 85.0 1.000 1.000 1.000
v 16.0 0.0 73.0 1.000 1.000 1.000
v 17.0 -7.0 70.0 1.000 1.000 1.000
v -22.0 0.0 82.0 1.000 1.000 1.000
v 15.0 2.0 79.0 1.000 1.000 1.000
v 20.0 2.0 75.0 1.000 1.000 1.000
v 16.0 0.0 73.0 1.000 1.000 1.000
v 27.0 0.0 75.0 1.000 1.000 1.000
v 15.0 -1.0 85.0 1.000 1.000 1.000
v 1.0 -79.0 22.0 1.000 1.000 1.000
v 1.0 -97.0 1.0 1.000 1.000 1.000
v 4.0 -73.0 5.0 1.000 1.000 1.000
v 1.0 -79.0 22.0 1.000 1.000 1.000
v 1.0 -79.0 22.0 1.000 1.000 1.000
v 4.0 -72.0 5.0 1.000 1.000 1.000
v 4.0 -72.0 5.0 1.000 1.000 1.000
v 1.0 -41.0 48.0 1.000 1.000 1.000
v 4.0 -31.0 20.0 1.000 1.000 1.000
v 1.0 -32.0 55.0 1.000 1.000 1.000
v 4.0 -20.0 22.0 1.000 1.000 1.000
v 1.0 -10.0 66.0 1.000 1.000 1.000
v 4.0 3.0 28.0 1.000 1.000 1.000
v 1.0 9.0 75.0 1.000 1.000 1.000
v 5.0 25.0 30.0 1.000 1.000 1.000
v 1.0 18.0 80.0 1.000 1.000 1.000
v 1.0 9.0 75.0 1.000 1.000 1.000
v 5.0 36.0 29.0 1.000 1.000 1.000
v 5.0 25.0 30.0 1.000 1.000 1.000
v 6.0 56.0 32.0 1.000 1.000 1.000
v 6.0 158.0 69.0 1.000 1.000 1.000
v 6.0 170.0 73.0 1.000 1.000 1.000
v 1.0 150.0 129.0 1.000 1.000 1.000
v 1.0 147.0 128.0 1.000 1.000 1.000
v 1.0 69.0 99.0 1.000 1.000 1.000
v 1.0 26.0 83.0 1.000 1.000 1.000
v 6.0 175.0 77.0 1.000 1.000 1.000
v 5.0 179.0 83.0 1.000 1.000 1.000
v 4.0 184.0 94.0 1.000 1.000 1.000
v 2.0 174.0 122.0 1.000 1.000 1.000
v 1.0 163.0 127.0 1.000 1.000 1.000
v 1.0 150.0 129.0 1.000 1.000 1.000
v 1.0 163.0 127.0 1.000 1.000 1.000
v 1.0 156.0 129.0 1.000 1.000 1.000
v 1.0 151.0 129.0 1.000 1.000 1.000
v 6.0 46.0 28.0 1.000 1.000 1.000
v 6.0 56.0 32.0 1.000 1.000 1.000
v 1.0 26.0 83.0 1.000 1.000 1.000
v 1.0 22.0 81.0 1.000 1.000 1.000
v 1.0 18.0 80.0 1.000 1.000 1.000
v 5.0 36.0 29.0 1.000 1.000 1.000
v 6.0 42.0 28.0 1.000 1.000 1.000
v -3.0 -73.0 5.0 1.000 1.000 1.000
v 1.0 -97.0 1.0 1.000 1.000 1.000
v 1.0 -79.0 22.0 1.000 1.000 1.000
v -3.0 -72.0 5.0 1.000 1.000 1.000
v 1.0 -79.0 22.0 1.000 1.000 1.000
v 1.0 -79.0 22.0 1.000 1.000 1.000
v -3.0 -72.0 5.0 1.000 1.000 1.000
v -3.0 -73.0 5.0 1.000 1.000 1.000
v 1.0 -79.0 22.0 1.000 1.000 1.000
v -3.0 -31.0 20.0 1.000 1.000 1.000
v 1.0 -41.0 48.0 1.000 1.000 1.000
v -3.0 -20.0 22.0 1.000 1.000 1.000
v 1.0 -32.0 55.0 1.000 1.000 1.000
v -3.0 3.0 28.0 1.000 1.000 1.000
v 1.0 -10.0 66.0 1.000 1.000 1.000
v -4.0 25.0 30.0 1.000 1.000 1.000
v 1.0 9.0 75.0 1.000 1.000 1.000
v -4.0 36.0 29.0 1.000 1.000 1.000
v -5.0 171.0 74.0 1.000 1.000 1.000
v -5.0 170.0 73.0 1.000 1.000 1.000
v 1.0 150.0 129.0 1.000 1.000 1.000
v -5.0 158.0 69.0 1.000 1.000 1.000
v -5.0 56.0 32.0 1.000 1.000 1.000
v -5.0 46.0 28.0 1.000 1.000 1.000
v 1.0 26.0 83.0 1.000 1.000 1.000
v 1.0 69.0 99.0 1.000 1.000 1.000
v 1.0 147.0 128.0 1.000 1.000 1.000
v -5.0 175.0 77.0 1.000 1.000 1.000
v 1.0 151.0 129.0 1.000 1.000 1.000
v 0.0 156.0 129.0 1.000 1.000 1.000
v 0.0 163.0 127.0 1.000 1.000 1.000
v -1.0 174.0 122.0 1.000 1.000 1.000
v -3.0 184.0 94.0 1.000 1.000 1.000
v -4.0 179.0 83.0 1.000 1.000 1.000
v 1.0 26.0 83.0 1.000 1.000 1.000
v -5.0 46.0 28.0 1.000 1.000 1.000
v -5.0 42.0 28.0 1.000 1.000 1.000
v -4.0 36.0 29.0 1.000 1.000 1.000
v 1.0 9.0 75.0 1.000 1.000 1.000
v 1.0 18.0 80.0 1.000 1.000 1.000
v 1.0 22.0 81.0 1.000 1.000 1.000
v 1.0 149.0 129.0 1.000 1.000 1.000
v 1.0 151.0 129.0 1.000 1.000 1.000
v 1.0 151.0 129.0 1.000 1.000 1.000
v 1.0 154.0 129.0 1.000 1.000 1.000
v 0.0 154.0 129.0 1.000 1.000 1.000
v 0.0 154.0 129.0 1.000 1.000 1.000
v 1.0 154.0 129.0 1.000 1.000 1.000
v 1.0 156.0 129.0 1.000 1.000 1.000
v 6.0 46.0 28.0 1.000 1.000 1.000
v -5.0 46.0 28.0 1.000 1.000 1.000
v -5.0 170.0 73.0 1.000 1.000 1.000
v 6.0 170.0 73.0 1.000 1.000 1.000
v -5.0 173.0 75.0 1.000 1.000 1.000
v 6.0 173.0 75.0 1.000 1.000 1.000
v -5.0 175.0 77.0 1.000 1.000 1.000
v 6.0 175.0 77.0 1.000 1.000 1.000
v -4.0 177.0 79.0 1.000 1.000 1.000
v 5.0 177.0 79.0 1.000 1.000 1.000
v -4.0 179.0 83.0 1.000 1.000 1.000
v 5.0 179.0 83.0 1.000 1.000 1.000
v 5.0 181.0 88.0 1.000 1.000 1.000
v -4.0 181.0 88.0 1.000 1.000 1.000
v -3.0 184.0 94.0 1.000 1.000 1.000
v 4.0 184.0 94.0 1.000 1.000 1.000
v 0.0 159.0 128.0 1.000 1.000 1.000
v 1.0 159.0 128.0 1.000 1.000 1.000
v 1.0 163.0 127.0 1.000 1.000 1.000
v 0.0 163.0 127.0 1.000 1.000 1.000
v 1.0 168.0 125.0 1.000 1.000 1.000
v 0.0 168.0 125.0 1.000 1.000 1.000
v -1.0 174.0 122.0 1.000 1.000 1.000
v 2.0 174.0 122.0 1.000 1.000 1.000
v 4.0 -73.0 5.0 1.000 1.000 1.000
v 1.0 -97.0 1.0 1.000 1.000 1.000
v -3.0 -73.0 5.0 1.000 1.000 1.000
v -3.0 -31.0 20.0 1.000 1.000 1.000
v 4.0 -52.0 12.0 1.000 1.000 1.000
v 4.0 -31.0 20.0 1.000 1.000 1.000
v -3.0 -12.0 25.0 1.000 1.000 1.000
v 4.0 -12.0 25.0 1.000 1.000 1.000
v -3.0 3.0 28.0 1.000 1.000 1.000
v 4.0 -12.0 25.0 1.000 1.000 1.000
v -3.0 -12.0 25.0 1.000 1.000 1.000
v 4.0 3.0 28.0 1.000 1.000 1.000
v -4.0 16.0 29.0 1.000 1.000 1.000
v 5.0 16.0 29.0 1.000 1.000 1.000
v -4.0 25.0 30.0 1.000 1.000 1.000
v 5.0 25.0 30.0 1.000 1.000 1.000
v -4.0 32.0 29.0 1.000 1.000 1.000
v 5.0 32.0 29.0 1.000 1.000 1.000
v -4.0 36.0 29.0 1.000 1.000 1.000
v 5.0 36.0 29.0 1.000 1.000 1.000
v -5.0 42.0 28.0 1.000 1.000 1.000
v 6.0 39.0 28.0 1.000 1.000 1.000
v -5.0 44.0 28.0 1.000 1.000 1.000
v 6.0 42.0 28.0 1.000 1.000 1.000
v -5.0 44.0 28.0 1.000 1.000 1.000
v 6.0 44.0 28.0 1.000 1.000 1.000
v 6.0 42.0 28.0 1.000 1.000 1.000
v -5.0 46.0 28.0 1.000 1.000 1.000
v 6.0 46.0 28.0 1.000 1.000 1.000
v 0.0 154.0 129.0 1.000 1.000 1.000
v 1.0 156.0 129.0 1.000 1.000 1.000
v 0.0 156.0 129.0 1.000 1.000 1.000
v 1.0 159.0 128.0 1.000 1.000 1.000
v 0.0 159.0 128.0 1.000 1.000 1.000
v -36.0 16.0 49.0 1.000 1.000 1.000
v -40.0 11.0 31.0 1.000 1.000 1.000
v -32.0 9.0 49.0 1.000 1.000 1.000
v -35.0 -25.0 51.0 1.000 1.000 1.000
v -31.0 -19.0 48.0 1.000 1.000 1.000
v -42.0 -20.0 31.0 1.000 1.000 1.000
v -46.0 -32.0 38.0 1.000 1.000 1.000
v -39.0 -33.0 53.0 1.000 1.000 1.000
v -38.0 -45.0 23.0 1.000 1.000 1.000
v -31.0 -50.0 36.0 1.000 1.000 1.000
v -25.0 -47.0 34.0 1.000 1.000 1.000
v -42.0 -56.0 27.0 1.000 1.000 1.000
v -35.0 -57.0 39.0 1.000 1.000 1.000
v -27.0 -69.0 12.0 1.000 1.000 1.000
v -34.0 -65.0 11.0 1.000 1.000 1.000
v -22.0 -65.0 -5.0 1.000 1.000 1.000
v -27.0 -69.0 12.0 1.000 1.000 1.000
v -27.0 -69.0 20.0 1.000 1.000 1.000
v -34.0 -65.0 11.0 1.000 1.000 1.000
v -36.0 -65.0 23.0 1.000 1.000 1.000
v -38.0 -57.0 11.0 1.000 1.000 1.000
v -42.0 -56.0 27.0 1.000 1.000 1.000
v -37.0 -45.0 11.0 1.000 1.000 1.000
v -38.0 -45.0 23.0 1.000 1.000 1.000
v -46.0 -32.0 38.0 1.000 1.000 1.000
v -41.0 -32.0 11.0 1.000 1.000 1.000
v -40.0 -20.0 11.0 1.000 1.000 1.000
v -42.0 -20.0 31.0 1.000 1.000 1.000
v -29.0 3.0 86.0 1.000 1.000 1.000
v -20.0 0.0 84.0 1.000 1.000 1.000
v -32.0 9.0 49.0 1.000 1.000 1.000
v -27.0 2.0 48.0 1.000 1.000 1.000
v -20.0 0.0 84.0 1.000 1.000 1.000
v -17.0 -8.0 84.0 1.000 1.000 1.000
v -27.0 2.0 48.0 1.000 1.000 1.000
v -24.0 -5.0 48.0 1.000 1.000 1.000
v -39.0 -9.0 87.0 1.000 1.000 1.000
v -36.0 -1.0 87.0 1.000 1.000 1.000
v -46.0 -6.0 51.0 1.000 1.000 1.000
v -41.0 2.0 50.0 1.000 1.000 1.000
v -29.0 3.0 86.0 1.000 1.000 1.000
v -32.0 9.0 49.0 1.000 1.000 1.000
v -48.0 -4.0 38.0 1.000 1.000 1.000
v -40.0 11.0 31.0 1.000 1.000 1.000
v -36.0 30.0 49.0 1.000 1.000 1.000
v -14.0 34.0 79.0 1.000 1.000 1.000
v -28.0 33.0 49.0 1.000 1.000 1.000
v -21.0 31.0 82.0 1.000 1.000 1.000
v -41.0 23.0 48.0 1.000 1.000 1.000
v -21.0 31.0 82.0 1.000 1.000 1.000
v -36.0 30.0 49.0 1.000 1.000 1.000
v -25.0 23.0 84.0 1.000 1.000 1.000
v -36.0 16.0 49.0 1.000 1.000 1.000
v -22.0 15.0 83.0 1.000 1.000 1.000
v -18.0 22.0 50.0 1.000 1.000 1.000
v -7.0 14.0 76.0 1.000 1.000 1.000
v -22.0 15.0 50.0 1.000 1.000 1.000
v -4.0 22.0 74.0 1.000 1.000 1.000
v -21.0 30.0 50.0 1.000 1.000 1.000
v -7.0 31.0 75.0 1.000 1.000 1.000
v -28.0 33.0 49.0 1.000 1.000 1.000
v -14.0 34.0 79.0 1.000 1.000 1.000
v -42.0 28.0 39.0 1.000 1.000 1.000
v -34.0 35.0 31.0 1.000 1.000 1.000
v -25.0 39.0 20.0 1.000 1.000 1.000
v -34.0 35.0 31.0 1.000 1.000 1.000
v -28.0 33.0 49.0 1.000 1.000 1.000
v -18.0 34.0 33.0 1.000 1.000 1.000
v -25.0 39.0 20.0 1.000 1.000 1.000
v -28.0 33.0 49.0 1.000 1.000 1.000
v -21.0 30.0 50.0 1.000 1.000 1.000
v -18.0 34.0 33.0 1.000 1.000 1.000
v -21.0 30.0 50.0 1.000 1.000 1.000
v 13.0 27.0 34.0 1.000 1.000 1.000
v -21.0 31.0 82.0 1.000 1.000 1.000
v -8.0 31.0 90.0 1.000 1.000 1.000
v -14.0 34.0 79.0 1.000 1.000 1.000
v -8.0 23.0 92.0 1.000 1.000 1.000
v -25.0 23.0 84.0 1.000 1.000 1.000
v -22.0 15.0 83.0 1.000 1.000 1.000
v -8.0 15.0 90.0 1.000 1.000 1.000
v -8.0 23.0 92.0 1.000 1.000 1.000
v -22.0 15.0 83.0 1.000 1.000 1.000
v -14.0 34.0 79.0 1.000 1.000 1.000
v -8.0 31.0 90.0 1.000 1.000 1.000
v -8.0 34.0 82.0 1.000 1.000 1.000
v -7.0 31.0 75.0 1.000 1.000 1.000
v 4.0 -38.0 -2.0 1.000 1.000 1.000
v -17.0 -34.0 13.0 1.000 1.000 1.000
v -13.0 -46.0 13.0 1.000 1.000 1.000
v -1.0 -54.0 -3.0 1.000 1.000 1.000
v -14.0 -58.0 13.0 1.000 1.000 1.000
v -19.0 -66.0 13.0 1.000 1.000 1.000
v -13.0 -62.0 -4.0 1.000 1.000 1.000
v -27.0 -69.0 12.0 1.000 1.000 1.000
v -22.0 -65.0 -5.0 1.000 1.000 1.000
v -7.0 2.0 18.0 1.000 1.000 1.000
v -20.0 10.0 33.0 1.000 1.000 1.000
v -21.0 -6.0 41.0 1.000 1.000 1.000
v -11.0 -15.0 15.0 1.000 1.000 1.000
v -16.0 -18.0 13.0 1.000 1.000 1.000
v -25.0 -17.0 32.0 1.000 1.000 1.000
v -19.0 -30.0 41.0 1.000 1.000 1.000
v -17.0 -34.0 13.0 1.000 1.000 1.000
v -18.0 -46.0 25.0 1.000 1.000 1.000
v -13.0 -46.0 13.0 1.000 1.000 1.000
v -16.0 -58.0 29.0 1.000 1.000 1.000
v -14.0 -58.0 13.0 1.000 1.000 1.000
v -20.0 -66.0 25.0 1.000 1.000 1.000
v -19.0 -66.0 13.0 1.000 1.000 1.000
v -27.0 -69.0 20.0 1.000 1.000 1.000
v -27.0 -69.0 12.0 1.000 1.000 1.000
v -2.0 194.0 66.0 1.000 1.000 1.000
v 1.0 194.0 66.0 1.000 1.000 1.000
v 3.0 194.0 66.0 1.000 1.000 1.000
v 6.0 194.0 67.0 1.000 1.000 1.000
v 9.0 194.0 68.0 1.000 1.000 1.000
v 11.0 193.0 70.0 1.000 1.000 1.000
v 13.0 192.0 72.0 1.000 1.000 1.000
v 14.0 191.0 74.0 1.000 1.000 1.000
v 15.0 190.0 77.0 1.000 1.000 1.000
v 15.0 189.0 80.0 1.000 1.000 1.000
v 15.0 169.0 136.0 1.000 1.000 1.000
v 15.0 168.0 139.0 1.000 1.000 1.000
v 14.0 167.0 141.0 1.000 1.000 1.000
v 13.0 166.0 144.0 1.000 1.000 1.000
v 11.0 165.0 146.0 1.000 1.000 1.000
v 9.0 165.0 148.0 1.000 1.000 1.000
v -2.0 194.0 66.0 1.000 1.000 1.000
v 9.0 165.0 148.0 1.000 1.000 1.000
v 6.0 164.0 149.0 1.000 1.000 1.000
v 3.0 164.0 150.0 1.000 1.000 1.000
v 1.0 164.0 150.0 1.000 1.000 1.000
v -2.0 164.0 150.0 1.000 1.000 1.000
v -5.0 164.0 149.0 1.000 1.000 1.000
v -8.0 165.0 148.0 1.000 1.000 1.000
v -10.0 165.0 146.0 1.000 1.000 1.000
v -12.0 166.0 144.0 1.000 1.000 1.000
v -13.0 167.0 142.0 1.000 1.000 1.000
v -14.0 168.0 140.0 1.000 1.000 1.000
v -14.0 168.0 138.0 1.000 1.000 1.000
v -14.0 169.0 136.0 1.000 1.000 1.000
v -14.0 189.0 80.0 1.000 1.000 1.000
v -14.0 190.0 78.0 1.000 1.000 1.000
v -2.0 194.0 66.0 1.000 1.000 1.000
v -14.0 190.0 78.0 1.000 1.000 1.000
v -14.0 191.0 76.0 1.000 1.000 1.000
v -13.0 191.0 74.0 1.000 1.000 1.000
v -12.0 192.0 72.0 1.000 1.000 1.000
v -10.0 193.0 70.0 1.000 1.000 1.000
v -8.0 194.0 68.0 1.000 1.000 1.000
v -5.0 194.0 67.0 1.000 1.000 1.000
v 3.0 201.0 69.0 1.000 1.000 1.000
v 1.0 201.0 68.0 1.000 1.000 1.000
v -2.0 201.0 69.0 1.000 1.000 1.000
v -5.0 201.0 69.0 1.000 1.000 1.000
v -8.0 201.0 71.0 1.000 1.000 1.000
v -10.0 200.0 72.0 1.000 1.000 1.000
v -12.0 199.0 75.0 1.000 1.000 1.000
v -13.0 198.0 77.0 1.000 1.000 1.000
v 3.0 201.0 69.0 1.000 1.000 1.000
v -13.0 198.0 77.0 1.000 1.000 1.000
v -14.0 198.0 79.0 1.000 1.000 1.000
v -14.0 197.0 80.0 1.000 1.000 1.000
v -14.0 196.0 83.0 1.000 1.000 1.000
v -14.0 176.0 138.0 1.000 1.000 1.000
v -14.0 175.0 141.0 1.000 1.000 1.000
v -14.0 175.0 142.0 1.000 1.000 1.000
v -13.0 174.0 144.0 1.000 1.000 1.000
v -12.0 173.0 146.0 1.000 1.000 1.000
v -10.0 172.0 148.0 1.000 1.000 1.000
v -8.0 172.0 150.0 1.000 1.000 1.000
v -5.0 171.0 151.0 1.000 1.000 1.000
v -2.0 171.0 152.0 1.000 1.000 1.000
v 1.0 171.0 152.0 1.000 1.000 1.000
v 3.0 171.0 152.0 1.000 1.000 1.000
v 3.0 201.0 69.0 1.000 1.000 1.000
v 3.0 171.0 152.0 1.000 1.000 1.000
v 6.0 171.0 151.0 1.000 1.000 1.000
v 9.0 172.0 150.0 1.000 1.000 1.000
v 11.0 172.0 148.0 1.000 1.000 1.000
v 13.0 173.0 146.0 1.000 1.000 1.000
v 14.0 174.0 144.0 1.000 1.000 1.000
v 15.0 175.0 141.0 1.000 1.000 1.000
v 15.0 176.0 138.0 1.000 1.000 1.000
v 15.0 196.0 82.0 1.000 1.000 1.000
v 15.0 197.0 80.0 1.000 1.000 1.000
v 14.0 198.0 77.0 1.000 1.000 1.000
v 13.0 199.0 75.0 1.000 1.000 1.000
v 11.0 200.0 72.0 1.000 1.000 1.000
v 9.0 201.0 71.0 1.000 1.000 1.000
v 6.0 201.0 69.0 1.000 1.000 1.000
v -14.0 175.0 141.0 1.000 1.000 1.000
v -14.0 168.0 138.0 1.000 1.000 1.000
v -13.0 174.0 144.0 1.000 1.000 1.000
v -13.0 167.0 142.0 1.000 1.000 1.000
v -10.0 172.0 148.0 1.000 1.000 1.000
v -10.0 165.0 146.0 1.000 1.000 1.000
v -5.0 171.0 151.0 1.000 1.000 1.000
v -5.0 164.0 149.0 1.000 1.000 1.000
v 1.0 171.0 152.0 1.000 1.000 1.000
v 1.0 164.0 150.0 1.000 1.000 1.000
v 6.0 171.0 151.0 1.000 1.000 1.000
v 6.0 164.0 149.0 1.000 1.000 1.000
v 11.0 172.0 148.0 1.000 1.000 1.000
v 11.0 165.0 146.0 1.000 1.000 1.000
v 14.0 174.0 144.0 1.000 1.000 1.000
v 14.0 167.0 141.0 1.000 1.000 1.000
v 14.0 174.0 144.0 1.000 1.000 1.000
v 14.0 167.0 141.0 1.000 1.000 1.000
v 15.0 176.0 138.0 1.000 1.000 1.000
v 15.0 169.0 136.0 1.000 1.000 1.000
v 15.0 196.0 82.0 1.000 1.000 1.000
v 15.0 189.0 80.0 1.000 1.000 1.000
v 14.0 198.0 77.0 1.000 1.000 1.000
v 14.0 191.0 74.0 1.000 1.000 1.000
v 11.0 200.0 72.0 1.000 1.000 1.000
v 11.0 193.0 70.0 1.000 1.000 1.000
v 6.0 201.0 69.0 1.000 1.000 1.000
v 6.0 194.0 67.0 1.000 1.000 1.000
v 1.0 201.0 68.0 1.000 1.000 1.000
v 1.0 194.0 66.0 1.000 1.000 1.000
v -5.0 201.0 69.0 1.000 1.000 1.000
v -5.0 194.0 67.0 1.000 1.000 1.000
v -5.0 201.0 69.0 1.000 1.000 1.000
v -5.0 194.0 67.0 1.000 1.000 1.000
v -10.0 200.0 72.0 1.000 1.000 1.000
v -10.0 193.0 70.0 1.000 1.000 1.000
v -13.0 198.0 77.0 1.000 1.000 1.000
v -13.0 191.0 74.0 1.000 1.000 1.000
v -14.0 197.0 80.0 1.000 1.000 1.000
v -14.0 190.0 78.0 1.000 1.000 1.000
v -14.0 193.0 91.0 1.000 1.000 1.000
v -14.0 186.0 89.0 1.000 1.000 1.000
v -14.0 179.0 129.0 1.000 1.000 1.000
v -14.0 172.0 127.0 1.000 1.000 1.000
v -14.0 175.0 141.0 1.000 1.000 1.000
v -14.0 168.0 138.0 1.000 1.000 1.000
v -14.0 186.0 110.0 1.000 1.000 1.000
v -14.0 261.0 122.0 1.000 1.000 1.000
v -10.0 190.0 100.0 1.000 1.000 1.000
v -20.0 256.0 136.0 1.000 1.000 1.000
v -10.0 330.0 151.0 1.000 1.000 1.000
v -14.0 326.0 161.0 1.000 1.000 1.000
v 1.0 263.0 117.0 1.000 1.000 1.000
v 1.0 191.0 96.0 1.000 1.000 1.000
v 1.0 331.0 147.0 1.000 1.000 1.000
v 1.0 263.0 117.0 1.000 1.000 1.000
v 15.0 261.0 122.0 1.000 1.000 1.000
v 11.0 190.0 100.0 1.000 1.000 1.000
v 1.0 191.0 96.0 1.000 1.000 1.000
v 1.0 331.0 147.0 1.000 1.000 1.000
v 11.0 330.0 151.0 1.000 1.000 1.000
v 15.0 261.0 122.0 1.000 1.000 1.000
v 21.0 256.0 136.0 1.000 1.000 1.000
v 15.0 186.0 110.0 1.000 1.000 1.000
v 11.0 190.0 100.0 1.000 1.000 1.000
v 11.0 330.0 151.0 1.000 1.000 1.000
v 15.0 326.0 161.0 1.000 1.000 1.000
v 15.0 251.0 150.0 1.000 1.000 1.000
v 11.0 183.0 120.0 1.000 1.000 1.000
v 11.0 323.0 171.0 1.000 1.000 1.000
v 1.0 249.0 155.0 1.000 1.000 1.000
v 1.0 181.0 124.0 1.000 1.000 1.000
v 1.0 321.0 175.0 1.000 1.000 1.000
v -14.0 251.0 150.0 1.000 1.000 1.000
v -10.0 183.0 120.0 1.000 1.000 1.000
v -10.0 323.0 171.0 1.000 1.000 1.000
v -20.0 256.0 136.0 1.000 1.000 1.000
v -14.0 186.0 110.0 1.000 1.000 1.000
v -10.0 183.0 120.0 1.000 1.000 1.000
v -13.0 251.0 150.0 1.000 1.000 1.000
v -10.0 323.0 171.0 1.000 1.000 1.000
v -14.0 326.0 161.0 1.000 1.000 1.000
v 1.0 321.0 175.0 1.000 1.000 1.000
v 1.0 328.0 178.0 1.000 1.000 1.000
v -10.0 330.0 174.0 1.000 1.000 1.000
v -10.0 323.0 171.0 1.000 1.000 1.000
v -14.0 333.0 164.0 1.000 1.000 1.000
v -14.0 326.0 161.0 1.000 1.000 1.000
v -10.0 337.0 154.0 1.000 1.000 1.000
v -10.0 330.0 151.0 1.000 1.000 1.000
v 1.0 338.0 150.0 1.000 1.000 1.000
v 1.0 331.0 147.0 1.000 1.000 1.000
v 11.0 337.0 154.0 1.000 1.000 1.000
v 11.0 330.0 151.0 1.000 1.000 1.000
v 15.0 333.0 164.0 1.000 1.000 1.000
v 15.0 326.0 161.0 1.000 1.000 1.000
v 11.0 330.0 174.0 1.000 1.000 1.000
v 11.0 323.0 171.0 1.000 1.000 1.000
v 1.0 338.0 150.0 1.000 1.000 1.000
v -10.0 337.0 154.0 1.000 1.000 1.000
v -14.0 333.0 164.0 1.000 1.000 1.000
v 11.0 337.0 154.0 1.000 1.000 1.000
v -10.0 330.0 174.0 1.000 1.000 1.000
v 15.0 333.0 164.0 1.000 1.000 1.000
v 1.0 328.0 178.0 1.000 1.000 1.000
v 11.0 330.0 174.0 1.000 1.000 1.000
vt 0.1953 0.3320
vt 0.1953 0.3359
vt 0.1123 0.3838
vt 0.2305 0.8252
vt 0.1416 0.7969
vt 0.2373 0.9209
vt 0.2207 0.6875
vt 0.1289 0.6260
vt 0.2109 0.5518
vt 0.1172 0.4541
vt 0.2012 0.4170
vt 0.3770 0.6377
vt 0.3896 0.8203
vt 0.3594 0.3955
vt 0.3486 0.2471
vt 0.3477 0.2197
vt 0.4004 0.9766
vt 0.3984 0.9434
vt 0.5752 0.3662
vt 0.5840 0.4854
vt 0.5674 0.2461
vt 0.6475 0.3564
vt 0.6680 0.2305
vt 0.6348 0.1777
vt 0.5898 0.1562
vt 0.5605 0.1602
vt 0.5625 0.1875
vt 0.6846 0.4707
vt 0.6650 0.5986
vt 0.5928 0.6084
vt 0.6484 0.7852
vt 0.5986 0.6992
vt 0.6055 0.7910
vt 0.6162 0.9443
vt 0.6123 0.8818
vt 0.7070 0.3164
vt 0.7031 0.2598
vt 0.5488 0.9111
vt 0.5068 0.8848
vt 0.7139 0.8633
vt 0.4404 0.9082
vt 0.5488 0.9102
vt 0.6611 0.6670
vt 0.8076 0.6719
vt 0.4990 0.6611
vt 0.4541 0.3516
vt 0.6836 0.3613
vt 0.8193 0.3164
vt 0.9990 0.3447
vt 1.0225 0.3018
vt 0.9561 0.2334
vt 0.5811 0.2256
vt 0.5205 0.2949
vt 0.4209 0.2969
vt 0.6084 0.2471
vt 0.8467 0.5195
vt 0.8477 0.6406
vt 0.9863 0.5430
vt 0.9873 0.6943
vt 0.8486 0.6914
vt 0.9883 0.7568
vt 0.8457 0.3984
vt 0.9844 0.3916
vt 0.8896 0.3818
vt 0.8867 0.4805
vt 0.9971 0.4287
vt 0.9932 0.5498
vt 0.8809 0.6406
vt 0.9893 0.6709
vt 0.8779 0.7344
vt 0.9873 0.7207
vt 0.8770 0.7637
vt 0.8994 0.3818
vt 0.7012 0.3193
vt 0.8955 0.4805
vt 0.6973 0.4316
vt 0.6934 0.5547
vt 0.8896 0.6406
vt 0.6895 0.6631
vt 0.6865 0.7471
vt 0.8867 0.7344
vt 0.6855 0.7871
vt 0.8857 0.7637
vt 0.6846 0.8057
vt 0.8857 0.7607
vt 0.4180 0.6240
vt 0.4209 0.5381
vt 0.4062 0.4326
vt 0.4238 0.4756
vt 0.4248 0.4268
vt 0.4414 0.3154
vt 0.4570 0.2539
vt 0.3018 0.3184
vt 0.3359 0.3828
vt 0.4141 0.2422
vt 0.4648 0.7627
vt 0.4570 0.7080
vt 0.0869 0.9092
vt 0.0771 0.8330
vt 0.4473 0.5732
vt 0.0635 0.6484
vt 0.4395 0.4395
vt 0.0537 0.4639
vt 0.4395 0.3828
vt 0.0527 0.3857
vt 0.4473 0.4375
vt 0.0625 0.4619
vt 0.5469 0.7979
vt 0.5498 0.8008
vt 0.7090 0.6445
vt 0.7402 0.6396
vt 0.7139 0.6357
vt 0.7812 0.6562
vt 0.7012 0.6855
vt 0.7812 0.6992
vt 0.7666 0.7422
vt 0.6943 0.7285
vt 0.7197 0.7598
vt 0.6924 0.7549
vt 0.6943 0.6572
vt 0.3389 0.5381
vt 0.1582 0.5898
vt 0.3408 0.5547
vt 0.1592 0.6074
vt 0.3428 0.6172
vt 0.1641 0.6689
vt 0.3457 0.6816
vt 0.1641 0.7334
vt 0.3467 0.7158
vt 0.1650 0.7686
vt 0.3447 0.6943
vt 0.1641 0.7510
vt 0.3428 0.6348
vt 0.1611 0.6914
vt 0.3398 0.5684
vt 0.1592 0.6250
vt 0.4053 0.6484
vt 0.4014 0.5586
vt 0.2988 0.4639
vt 0.1719 0.4121
vt 0.1758 0.4707
vt 0.2959 0.4043
vt 0.3340 0.4258
vt 0.2998 0.4844
vt 0.2969 0.4199
vt 0.3389 0.5117
vt 0.3027 0.5400
vt 0.2949 0.3896
vt 0.3027 0.5254
vt 0.1729 0.4326
vt 0.1709 0.3975
vt 0.1758 0.4971
vt 0.1787 0.5527
vt 0.3037 0.5605
vt 0.1777 0.5332
vt 0.1797 0.5674
vt 0.3701 0.7031
vt 0.3369 0.7803
vt 0.3281 0.7236
vt 0.3818 0.7783
vt 0.3447 0.8301
vt 0.3477 0.8486
vt 0.3438 0.8193
vt 0.3252 0.6982
vt 0.3271 0.7129
vt 0.3350 0.7646
vt 0.2217 0.8018
vt 0.2178 0.7725
vt 0.2305 0.8574
vt 0.2373 0.9082
vt 0.2402 0.9229
vt 0.2363 0.8936
vt 0.2295 0.8379
vt 0.2207 0.7871
vt 0.1992 0.7881
vt 0.2100 0.9453
vt 0.1777 0.9365
vt 0.1680 0.8828
vt 0.1699 0.8252
vt 0.1777 0.1758
vt 0.0215 0.1699
vt 0.1758 0.1934
vt 0.0205 0.1865
vt 0.1738 0.2529
vt 0.0195 0.2461
vt 0.1719 0.3154
vt 0.0156 0.3086
vt 0.1709 0.3496
vt 0.0156 0.3428
vt 0.1729 0.3281
vt 0.0166 0.3252
vt 0.1748 0.2705
vt 0.0195 0.2676
vt 0.1768 0.2061
vt 0.0215 0.2031
vt 0.2246 0.3027
vt 0.2275 0.2158
vt 0.9609 0.1338
vt 0.8203 0.0352
vt 0.8496 0.0137
vt 0.9482 0.1426
vt 0.8965 0.2480
vt 0.9688 0.1953
vt 0.8984 0.1787
vt 0.8467 0.2168
vt 0.9355 0.1523
vt 0.8174 0.2383
vt 0.8340 0.2266
vt 0.8818 0.1914
vt 0.8369 0.0225
vt 0.7891 0.0605
vt 0.7354 0.0967
vt 0.7061 0.1182
vt 0.7188 0.1094
vt 0.8008 0.1025
vt 0.6113 0.1318
vt 0.5557 0.1182
vt 0.5254 0.1016
vt 0.5889 0.1201
vt 0.6201 0.1084
vt 0.6104 0.1523
vt 0.3574 0.2705
vt 0.3594 0.2793
vt 0.3467 0.2656
vt 0.2500 0.2480
vt 0.2646 0.2627
vt 0.2666 0.2363
vt 0.4658 0.2803
vt 0.5098 0.2891
vt 0.8555 0.2588
vt 0.4707 0.1689
vt 0.5322 0.0918
vt 0.5967 0.0967
vt 0.5518 0.1680
vt 0.3350 0.3340
vt 0.3311 0.3232
vt 0.3398 0.2549
vt 0.2598 0.2139
vt 0.3008 0.2217
vt 0.3125 0.1953
vt 0.2529 0.1816
vt 0.2812 0.2500
vt 0.2617 0.2529
vt 0.3525 0.3193
vt 0.3750 0.2881
vt 0.6367 0.1914
vt 0.6709 0.2002
vt 0.6494 0.2148
vt 0.6084 0.3281
vt 0.6426 0.3359
vt 0.6758 0.3223
vt 0.5957 0.3047
vt 0.6025 0.2559
vt 0.6914 0.2754
vt 0.6162 0.2080
vt 0.6963 0.2266
vt 0.4668 0.1406
vt 0.4824 0.1689
vt 0.6465 0.2646
vt 0.4785 0.2314
vt 0.6289 0.3115
vt 0.4570 0.2891
vt 0.4141 0.2812
vt 0.4229 0.2197
vt 0.4404 0.1611
vt 0.4873 0.4287
vt 0.7686 0.4229
vt 0.4941 0.4160
vt 0.7637 0.4336
vt 0.7656 0.4561
vt 0.7568 0.5117
vt 0.4902 0.4561
vt 0.1465 0.4033
vt 0.1826 0.4238
vt 0.1133 0.4336
vt 0.9339 0.7485
vt 0.9058 0.7904
vt 0.9396 0.7376
vt 0.9638 0.6863
vt 0.9700 0.6698
vt 0.9699 0.6698
vt 0.9761 0.6508
vt 0.9804 0.6350
vt 0.9871 0.6109
vt 0.9870 0.6029
vt 0.9939 0.5751
vt 0.9886 0.5906
vt 0.9963 0.5556
vt 0.9990 0.5238
vt 0.9801 0.3651
vt 0.9749 0.3496
vt 0.9687 0.3808
vt 0.9700 0.3855
vt 0.9923 0.5040
vt 0.9907 0.5752
vt 0.9718 0.3414
vt 0.9698 0.3381
vt 0.9645 0.3293
vt 0.9612 0.3450
vt 0.9643 0.3611
vt 0.9659 0.3697
vt 0.9668 0.3774
vt 0.9977 0.5395
vt 0.9900 0.5830
vt 0.9970 0.5473
vt 0.0620 0.7407
vt 0.0961 0.7930
vt 0.0661 0.7485
vt 0.0604 0.7376
vt 0.0300 0.6698
vt 0.0362 0.6863
vt 0.0239 0.6508
vt 0.0301 0.6698
vt 0.0129 0.6109
vt 0.0196 0.6350
vt 0.0061 0.5751
vt 0.0099 0.5949
vt 0.0037 0.5556
vt 0.0263 0.3460
vt 0.0251 0.3496
vt 0.0323 0.3811
vt 0.0199 0.3651
vt 0.0010 0.5238
vt 0.0021 0.5395
vt 0.0064 0.5671
vt 0.0076 0.5039
vt 0.0300 0.3855
vt 0.0282 0.3414
vt 0.0332 0.3774
vt 0.0341 0.3697
vt 0.0357 0.3611
vt 0.0388 0.3450
vt 0.0355 0.3293
vt 0.0302 0.3381
vt 0.0030 0.5473
vt 0.0076 0.5794
vt 0.0077 0.5754
vt 0.5000 0.4723
vt 0.5000 0.4210
vt 0.5000 0.3419
vt 0.5000 0.4683
vt 0.5000 0.5040
vt 0.5000 0.1950
vt 0.5000 0.1038
vt 0.5000 0.0520
vt 0.5000 0.0481
vt 0.5000 0.3538
vt 0.5000 0.2940
vt 0.5000 0.3694
vt 0.5000 0.4172
vt 0.5000 0.3502
vt 0.5079 0.3371
vt 0.5000 0.3890
vt 0.5000 0.4249
vt 0.5000 0.4762
vt 0.5000 0.5277
vt 0.7119 0.3701
vt 0.7363 0.6270
vt 0.7227 0.5791
vt 0.6992 0.6836
vt 0.7510 0.6826
vt 0.6973 0.8184
vt 0.6846 0.7959
vt 0.6699 0.8730
vt 0.7109 0.8682
vt 0.6191 0.9775
vt 0.6475 0.9736
vt 0.6592 0.9385
vt 0.8428 0.3770
vt 0.8379 0.4014
vt 0.7100 0.4199
vt 0.8379 0.4619
vt 0.7109 0.4746
vt 0.8584 0.4658
vt 0.8516 0.4043
vt 0.7314 0.4785
vt 0.7227 0.4229
vt 0.6992 0.2061
vt 0.8154 0.1602
vt 0.6973 0.1855
vt 0.8174 0.1836
vt 0.8223 0.2441
vt 0.8262 0.3066
vt 0.7031 0.2656
vt 0.8262 0.3105
vt 0.7070 0.3203
vt 0.8213 0.2500
vt 0.6992 0.2100
vt 0.8174 0.1885
vt 0.6338 0.2012
vt 0.6494 0.1621
vt 0.7617 0.1846
vt 0.7607 0.2090
vt 0.3867 0.1523
vt 0.4395 0.1367
vt 0.3545 0.2080
vt 0.3613 0.2715
vt 0.4824 0.1709
vt 0.4160 0.6895
vt 0.4141 0.7529
vt 0.4121 0.7949
vt 0.4111 0.8135
vt 0.2969 0.4668
vt 0.3311 0.5312
vt 0.2920 0.5957
vt 0.3613 0.6855
vt 0.3408 0.7500
vt 0.3574 0.7920
vt 0.3750 0.8115
vt 0.5000 0.9702
vt 0.5000 0.0298
vt 0.0408 0.5673
vt 0.3103 0.6581
vt 0.4685 0.6696
vt 0.7767 0.6423
vt 0.9860 0.5395
vt 0.9979 0.4842
vt 0.9156 0.4050
vt 0.5000 0.3301
vt 0.0639 0.4167
vt 0.0087 0.4683
vt 0.0000 0.5000
vt 0.2500 1.0000
vt 0.1250 -4.0000
vt 0.1250 1.0000
vt 0.2500 -4.0000
vt 0.1250 -9.0000
vt 0.2500 -9.0000
vt 0.0000 -4.0000
vt 0.0000 1.0000
vt 0.0000 -9.0000
vt 1.0000 -4.0000
vt 0.8750 -4.0000
vt 0.8750 1.0000
vt 1.0000 1.0000
vt 1.0000 -9.0000
vt 0.8750 -9.0000
vt 0.7500 -4.0000
vt 0.7500 1.0000
vt 0.7500 -9.0000
vt 0.6250 -4.0000
vt 0.6250 1.0000
vt 0.6250 -9.0000
vt 0.5000 -4.0000
vt 0.5000 1.0000
vt 0.5000 -9.0000
vt 0.3750 -4.0000
vt 0.3750 1.0000
vt 0.3750 -9.0000
vt 0.3799 -4.0000
vt 0.4329 0.6696
vt 0.5671 0.6696
vt 0.1992 0.6346
vt 0.1015 0.6026
vt 0.0044 0.5198
vt 0.0044 0.4802
vt 0.1015 0.3974
vt 0.1992 0.3654
vt 0.4329 0.3304
vt 0.5671 0.3304
vt 0.8008 0.3654
vt 0.8985 0.3974
vt 0.9956 0.4802
vt 0.9956 0.5198
vt 0.8985 0.6026
vt 0.8008 0.6346
vn -0.577 -0.577 -0.577
vn -0.577 -0.577 -0.577
vn -0.577 -0.577 -0.577
vn -0.577 -0.577 -0.577
vn -0.577 -0.577 -0.577
vn -0.577 -0.577 -0.577
vn -0.577 -0.577 -0.577
vn -0.577 -0.577 -0.577
vn -0.577 -0.577 -0.577
vn -0.577 -0.577 -0.577
vn -0.577 -0.577 -0.577
vn -0.577 -0.577 -0.577
vn -0.577 -0.577 -0.577
vn -0.577 -0.577 -0.577
vn -0.577 -0.577 -0.577
vn -0.577 -0.577 -0.577
vn -0.577 -0.577 -0.577
vn -0.577 -0.577 -0.577
vn -0.577 -0.577 -0.577
vn -0.577 -0.577 -0.577
vn -0.577 -0.577 -0.577
vn -0.577 -0.577 -0.577
vn -0.577 -0.577 -0.577
vn -0.577 -0.577 -0.577
vn -0.577 -0.577 -0.577
vn -0.577 -0.577 -0.577
vn -0.577 -0.577 -0.577
vn -0.577 -0.577 -0.577
vn -0.577 -0.577 -0.577
vn -0.577 -0.577 -0.577
vn -0.577 -0.577 -0.577
vn -0.577 -0.577 -0.577
vn -0.577 -0.577 -0.577
vn -0.577 -0.577 -0.577
vn -0.577 -0.577 -0.577
vn -0.577 -0.577 -0.577
vn -0.577 -0.577 -0.577
vn -0.577 -0.577 -0.577
vn -0.577 -0.577 -0.577
vn -0.577 -0.577 -0.577
vn -0.577 -0.577 -0.577
vn -0.577 -0.577 -0.577
vn -0.577 -0.577 -0.577
vn -0.577 -0.577 -0.577
vn -0.577 -0.577 -0.577
vn -0.577 -0.577 -0.577
vn -0.577 -0.577 -0.577
vn -0.577 -0.577 -0.577
vn -0.577 -0.577 -0.577
vn -0.577 -0.577 -0.577
vn -0.577 -0.577 -0.577
vn -0.577 -0.577 -0.577
vn -0.577 -0.577 -0.577
vn -0.577 -0.577 -0.577
vn -0.577 -0.577 -0.577
vn -0.577 -0.577 -0.577
vn -0.577 -0.577 -0.577
vn -0.577 -0.577 -0.577
vn -0.577 -0.577 -0.577
vn -0.577 -0.577 -0.577
vn -0.577 -0.577 -0.577
vn -0.577 -0.577 -0.577
vn -0.577 -0.577 -0.577
vn -0.577 -0.577 -0.577
vn -0.577 -0.577 -0.577
vn -0.577 -0.577 -0.577
vn -0.577 -0.577 -0.577
vn -0.577 -0.577 -0.577
vn -0.577 -0.577 -0.577
vn -0.577 -0.577 -0.577
vn -0.577 -0.577 -0.577
vn -0.577 -0.577 -0.577
vn -0.577 -0.577 -0.577
vn -0.577 -0.577 -0.577
vn -0.577 -0.577 -0.577
vn -0.577 -0.577 -0.577
vn -0.577 -0.577 -0.577
vn -0.577 -0.577 -0.577
vn -0.577 -0.577 -0.577
vn -0.577 -0.577 -0.577
vn -0.577 -0.577 -0.577
vn -0.577 -0.577 -0.577
vn -0.577 -0.577 -0.577
vn -0.577 -0.577 -0.577
vn -0.577 -0.577 -0.577
vn -0.577 -0.577 -0.577
vn -0.577 -0.577 -0.577
vn -0.577 -0.577 -0.577
vn -0.577 -0.577 -0.577
vn -0.577 -0.577 -0.577
vn -0.577 -0.577 -0.577
vn -0.577 -0.577 -0.577
vn -0.577 -0.577 -0.577
vn -0.577 -0.577 -0.577
vn -0.577 -0.577 -0.577
vn -0.577 -0.577 -0.577
vn -0.577 -0.577 -0.577
vn -0.577 -0.577 -0.577
vn -0.577 -0.577 -0.577
vn -0.577 -0.577 -0.577
vn -0.577 -0.577 -0.577
vn -0.577 -0.577 -0.577
vn -0.577 -0.577 -0.577
vn -0.577 -0.577 -0.577
vn -0.577 -0.577 -0.577
vn -0.577 -0.577 -0.577
vn -0.577 -0.577 -0.577
vn -0.577 -0.577 -0.577
vn -0.577 -0.577 -0.577
vn -0.577 -0.577 -0.577
vn -0.577 -0.577 -0.577
vn -0.577 -0.577 -0.577
vn -0.577 -0.577 -0.577
vn -0.577 -0.577 -0.577
vn -0.577 -0.577 -0.577
vn -0.577 -0.577 -0.577
vn -0.577 -0.577 -0.577
vn -0.577 -0.577 -0.577
vn -0.577 -0.577 -0.577
vn -0.577 -0.577 -0.577
vn -0.577 -0.577 -0.577
vn -0.577 -0.577 -0.577
vn -0.577 -0.577 -0.577
vn -0.577 -0.577 -0.577
vn -0.577 -0.577 -0.577
vn -0.577 -0.577 -0.577
vn -0.577 -0.577 -0.577
vn -0.577 -0.577 -0.577
vn -0.577 -0.577 -0.577
vn -0.577 -0.577 -0.577
vn -0.577 -0.577 -0.577
vn -0.577 -0.577 -0.577
vn -0.577 -0.577 -0.577
vn -0.577 -0.577 -0.577
vn -0.577 -0.577 -0.577
vn -0.577 -0.577 -0.577
vn -0.577 -0.577 -0.577
vn -0.577 -0.577 -0.577
vn -0.577 -0.577 -0.577
vn -0.577 -0.577 -0.577
vn -0.577 -0.577 -0.577
vn -0.577 -0.577 -0.577
vn -0.577 -0.577 -0.577
vn -0.577 -0.577 -0.577
vn -0.577 -0.577 -0.577
vn -0.577 -0.577 -0.577
vn -0.577 -0.577 -0.577
vn -0.577 -0.577 -0.577
vn -0.577 -0.577 -0.577
vn -0.577 -0.577 -0.577
vn -0.577 -0.577 -0.577
vn -0.577 -0.577 -0.577
vn -0.577 -0.577 -0.577
vn -0.577 -0.577 -0.577
vn -0.577 -0.577 -0.577
vn -0.577 -0.577 -0.577
vn -0.577 -0.577 -0.577
vn -0.577 -0.577 -0.577
vn -0.577 -0.577 -0.577
vn -0.577 -0.577 -0.577
vn -0.577 -0.577 -0.577
vn -0.577 -0.577 -0.577
vn -0.577 -0.577 -0.577
vn -0.577 -0.577 -0.577
vn -0.577 -0.577 -0.577
vn -0.577 -0.577 -0.577
vn -0.577 -0.577 -0.577
vn -0.577 -0.577 -0.577
vn -0.577 -0.577 -0.577
vn -0.577 -0.577 -0.577
vn -0.577 -0.577 -0.577
vn -0.577 -0.577 -0.577
vn -0.577 -0.577 -0.577
vn -0.577 -0.577 -0.577
vn -0.577 -0.577 -0.577
vn -0.577 -0.577 -0.577
vn -0.577 -0.577 -0.577
vn -0.577 -0.577 -0.577
vn -0.577 -0.577 -0.577
vn -0.577 -0.577 -0.577
vn -0.577 -0.577 -0.577
vn -0.577 -0.577 -0.577
vn -0.577 -0.577 -0.577
vn -0.577 -0.577 -0.577
vn -0.577 -0.577 -0.577
vn -0.577 -0.577 -0.577
vn -0.577 -0.577 -0.577
vn -0.577 -0.577 -0.577
vn -0.577 -0.577 -0.577
vn -0.577 -0.577 -0.577
vn -0.577 -0.577 -0.577
vn -0.577 -0.577 -0.577
vn -0.577 -0.577 -0.577
vn -0.577 -0.577 -0.577
vn -0.577 -0.577 -0.577
vn -0.577 -0.577 -0.577
vn -0.577 -0.577 -0.577
vn -0.577 -0.577 -0.577
vn -0.577 -0.577 -0.577
vn -0.577 -0.577 -0.577
vn -0.577 -0.577 -0.577
vn -0.577 -0.577 -0.577
vn -0.577 -0.577 -0.577
vn -0.577 -0.577 -0.577
vn -0.577 -0.577 -0.577
vn -0.577 -0.577 -0.577
vn -0.577 -0.577 -0.577
vn -0.577 -0.577 -0.577
vn -0.577 -0.577 -0.577
vn -0.577 -0.577 -0.577
vn -0.577 -0.577 -0.577
vn -0.577 -0.577 -0.577
vn -0.577 -0.577 -0.577
vn -0.577 -0.577 -0.577
vn -0.577 -0.577 -0.577
vn -0.577 -0.577 -0.577
vn -0.577 -0.577 -0.577
vn -0.577 -0.577 -0.577
vn -0.577 -0.577 -0.577
vn -0.577 -0.577 -0.577
vn -0.577 -0.577 -0.577
vn -0.577 -0.577 -0.577
vn -0.577 -0.577 -0.577
vn -0.577 -0.577 -0.577
vn -0.577 -0.577 -0.577
vn -0.577 -0.577 -0.577
vn -0.577 -0.577 -0.577
vn -0.577 -0.577 -0.577
vn -0.577 -0.577 -0.577
vn -0.577 -0.577 -0.577
vn -0.577 -0.577 -0.577
vn -0.577 -0.577 -0.577
vn -0.577 -0.577 -0.577
vn -0.577 -0.577 -0.577
vn -0.577 -0.577 -0.577
vn -0.577 -0.577 -0.577
vn -0.577 -0.577 -0.577
vn -0.577 -0.577 -0.577
vn -0.577 -0.577 -0.577
vn -0.577 -0.577 -0.577
vn -0.577 -0.577 -0.577
vn -0.577 -0.577 -0.577
vn -0.577 -0.577 -0.577
vn -0.577 -0.577 -0.577
vn -0.577 -0.577 -0.577
vn -0.577 -0.577 -0.577
vn -0.577 -0.577 -0.577
vn -0.577 -0.577 -0.577
vn -0.577 -0.577 -0.577
vn -0.577 -0.577 -0.577
vn -0.577 -0.577 -0.577
vn -0.577 -0.577 -0.577
vn -0.577 -0.577 -0.577
vn -0.577 -0.577 -0.577
vn -0.577 -0.577 -0.577
vn -0.577 -0.577 -0.577
vn -0.577 -0.577 -0.577
vn -0.577 -0.577 -0.577
vn -0.577 -0.577 -0.577
vn -0.577 -0.577 -0.577
vn -0.577 -0.577 -0.577
vn -0.577 -0.577 -0.577
vn -0.577 -0.577 -0.577
vn -0.577 -0.577 -0.577
vn -0.577 -0.577 -0.577
vn -0.577 -0.577 -0.577
vn -0.577 -0.577 -0.577
vn -0.577 -0.577 -0.577
vn -0.577 -0.577 -0.577
vn -0.577 -0.577 -0.577
vn -0.577 -0.577 -0.577
vn -0.577 -0.577 -0.577
vn -0.577 -0.577 -0.577
vn -0.577 -0.577 -0.577
vn -0.577 -0.577 -0.577
vn -0.577 -0.577 -0.577
vn -0.577 -0.577 -0.577
vn -0.577 -0.577 -0.577
vn -0.577 -0.577 -0.577
vn -0.577 -0.577 -0.577
vn -0.577 -0.577 -0.577
vn -0.577 -0.577 -0.577
vn -0.577 -0.577 -0.577
vn -0.577 -0.577 -0.577
vn -0.577 -0.577 -0.577
vn -0.577 -0.577 -0.577
vn -0.577 -0.577 -0.577
vn -0.577 -0.577 -0.577
vn -0.577 -0.577 -0.577
vn -0.577 -0.577 -0.577
vn -0.577 -0.577 -0.577
vn -0.577 -0.577 -0.577
vn -0.577 -0.577 -0.577
vn -0.577 -0.577 -0.577
vn -0.577 -0.577 -0.577
vn -0.577 -0.577 -0.577
vn -0.577 -0.577 -0.577
vn -0.577 -0.577 -0.577
vn -0.577 -0.577 -0.577
vn -0.577 -0.577 -0.577
vn -0.577 -0.577 -0.577
vn -0.577 -0.577 -0.577
vn -0.577 -0.577 -0.577
vn -0.577 -0.577 -0.577
vn -0.577 -0.577 -0.577
vn -0.577 -0.577 -0.577
vn -0.577 -0.577 -0.577
vn -0.577 -0.577 -0.577
vn -0.577 -0.577 -0.577
vn -0.577 -0.577 -0.577
vn -0.577 -0.577 -0.577
vn -0.577 -0.577 -0.577
vn -0.577 -0.577 -0.577
vn -0.577 -0.577 -0.577
vn -0.577 -0.577 -0.577
vn -0.577 -0.577 -0.577
vn -0.577 -0.577 -0.577
vn -0.577 -0.577 -0.577
vn -0.577 -0.577 -0.577
vn -0.577 -0.577 -0.577
vn -0.577 -0.577 -0.577
vn -0.577 -0.577 -0.577
vn -0.577 -0.577 -0.577
vn -0.577 -0.577 -0.577
vn -0.577 -0.577 -0.577
vn -0.577 -0.577 -0.577
vn -0.577 -0.577 -0.577
vn -0.577 -0.577 -0.577
vn -0.577 -0.577 -0.577
vn -0.577 -0.577 -0.577
vn -0.577 -0.577 -0.577
vn -0.577 -0.577 -0.577
vn -0.577 -0.577 -0.577
vn -0.577 -0.577 -0.577
vn -0.577 -0.577 -0.577
vn -0.577 -0.577 -0.577
vn -0.577 -0.577 -0.577
vn -0.577 -0.577 -0.577
vn -0.577 -0.577 -0.577
vn -0.577 -0.577 -0.577
vn -0.577 -0.577 -0.577
vn -0.577 -0.577 -0.577
vn -0.577 -0.577 -0.577
vn -0.577 -0.577 -0.577
vn -0.577 -0.577 -0.577
vn -0.577 -0.577 -0.577
vn -0.577 -0.577 -0.577
vn -0.577 -0.577 -0.577
vn -0.577 -0.577 -0.577
vn -0.577 -0.577 -0.577
vn -0.577 -0.577 -0.577
vn -0.577 -0.577 -0.577
vn -0.577 -0.577 -0.577
vn -0.577 -0.577 -0.577
vn -0.577 -0.577 -0.577
vn -0.577 -0.577 -0.577
vn -0.577 -0.577 -0.577
vn -0.577 -0.577 -0.577
vn -0.577 -0.577 -0.577
vn -0.577 -0.577 -0.577
vn -0.577 -0.577 -0.577
vn -0.577 -0.577 -0.577
vn -0.577 -0.577 -0.577
vn -0.577 -0.577 -0.577
vn -0.577 -0.577 -0.577
vn -0.577 -0.577 -0.577
vn -0.577 -0.577 -0.577
vn -0.577 -0.577 -0.577
vn -0.577 -0.577 -0.577
vn -0.577 -0.577 -0.577
vn -0.577 -0.577 -0.577
vn -0.577 -0.577 -0.577
vn -0.577 -0.577 -0.577
vn -0.577 -0.577 -0.577
vn -0.577 -0.577 -0.577
vn -0.577 -0.577 -0.577
vn -0.577 -0.577 -0.577
vn -0.577 -0.577 -0.577
vn -0.577 -0.577 -0.577
vn -0.577 -0.577 -0.577
vn -0.577 -0.577 -0.577
vn -0.577 -0.577 -0.577
vn -0.577 -0.577 -0.577
vn -0.577 -0.577 -0.577
vn -0.577 -0.577 -0.577
vn -0.577 -0.577 -0.577
vn -0.577 -0.577 -0.577
vn -0.577 -0.577 -0.577
vn -0.577 -0.577 -0.577
vn -0.577 -0.577 -0.577
vn -0.577 -0.577 -0.577
vn -0.577 -0.577 -0.577
vn -0.577 -0.577 -0.577
vn 0.868 -0.497 0.000
vn 0.812 -0.581 -0.064
vn 0.879 -0.475 -0.032
vn 0.000 -0.485 0.875
vn 0.000 -0.485 0.875
vn 0.008 -0.491 0.871
vn 0.879 -0.475 -0.032
vn 0.928 -0.373 0.024
vn 0.940 -0.340 -0.032
vn 0.940 -0.340 0.039
vn 0.952 -0.302 -0.048
vn 0.961 -0.270 0.064
vn 0.974 -0.222 -0.040
vn 0.974 -0.206 0.095
vn 0.988 -0.150 -0.040
vn 0.977 -0.181 0.110
vn 0.974 -0.206 0.095
vn 0.993 -0.111 -0.048
vn 0.988 -0.150 -0.040
vn 0.998 -0.048 -0.040
vn 0.960 0.270 0.071
vn 0.950 0.301 0.087
vn 0.937 0.238 0.254
vn 0.940 0.229 0.253
vn 0.985 -0.008 0.175
vn 0.981 -0.150 0.119
vn 0.944 0.317 0.095
vn 0.940 0.324 0.111
vn 0.929 0.341 0.143
vn 0.922 0.310 0.231
vn 0.929 0.278 0.246
vn 0.937 0.238 0.254
vn 0.929 0.278 0.246
vn 0.932 0.261 0.253
vn 0.934 0.245 0.261
vn 0.995 -0.079 -0.055
vn 0.998 -0.048 -0.040
vn 0.981 -0.150 0.119
vn 0.980 -0.166 0.111
vn 0.977 -0.181 0.110
vn 0.993 -0.111 -0.048
vn 0.994 -0.095 -0.055
vn -0.876 -0.481 -0.032
vn -0.808 -0.586 -0.063
vn -0.868 -0.497 0.000
vn -0.008 -0.491 0.871
vn 0.000 -0.485 0.875
vn 0.000 -0.485 0.875
vn -0.879 -0.475 -0.032
vn -0.876 -0.481 -0.032
vn -0.868 -0.497 0.000
vn -0.940 -0.340 -0.032
vn -0.928 -0.373 0.024
vn -0.952 -0.302 -0.048
vn -0.940 -0.340 0.039
vn -0.974 -0.222 -0.040
vn -0.961 -0.270 0.064
vn -0.988 -0.150 -0.040
vn -0.980 -0.190 0.055
vn -0.993 -0.111 -0.048
vn -0.947 0.308 0.087
vn -0.950 0.301 0.087
vn -0.935 0.238 0.262
vn -0.960 0.270 0.071
vn -0.998 -0.048 -0.040
vn -0.996 -0.079 -0.047
vn -0.987 -0.134 0.087
vn -0.985 -0.008 0.173
vn -0.940 0.229 0.253
vn -0.944 0.317 0.095
vn -0.934 0.245 0.261
vn -0.932 0.261 0.253
vn -0.929 0.278 0.246
vn -0.922 0.310 0.231
vn -0.929 0.341 0.143
vn -0.940 0.324 0.111
vn -0.987 -0.134 0.087
vn -0.996 -0.079 -0.047
vn -0.994 -0.095 -0.055
vn -0.993 -0.111 -0.048
vn -0.980 -0.190 0.055
vn -0.985 -0.159 0.071
vn -0.985 -0.151 0.087
vn 0.000 0.048 0.999
vn 0.000 0.055 0.998
vn 0.000 0.055 0.998
vn 0.000 0.158 0.987
vn 0.000 0.158 0.987
vn 0.000 0.316 0.949
vn 0.000 0.316 0.949
vn 0.000 0.316 0.949
vn 0.000 0.063 -0.998
vn 0.000 -0.008 -1.000
vn 0.000 0.610 -0.792
vn 0.000 0.610 -0.792
vn 0.000 0.610 -0.792
vn 0.000 0.792 -0.610
vn 0.000 0.610 -0.792
vn 0.000 0.792 -0.610
vn 0.000 0.610 -0.792
vn 0.000 0.792 -0.610
vn 0.000 0.896 -0.444
vn 0.000 0.792 -0.610
vn 0.000 0.896 -0.444
vn 0.000 0.896 -0.444
vn 0.000 0.904 -0.428
vn 0.000 0.904 -0.428
vn 0.000 0.292 0.956
vn 0.000 0.292 0.956
vn 0.000 0.292 0.956
vn 0.000 0.292 0.956
vn 0.000 0.412 0.911
vn 0.000 0.412 0.911
vn 0.000 0.412 0.911
vn 0.000 0.412 0.911
vn 0.000 0.261 -0.965
vn 0.000 0.166 -0.986
vn 0.000 0.261 -0.965
vn 0.000 0.300 -0.954
vn 0.016 0.326 -0.945
vn 0.000 0.300 -0.954
vn 0.000 0.222 -0.975
vn 0.000 0.222 -0.975
vn 0.000 0.150 -0.989
vn 0.000 0.222 -0.975
vn 0.000 0.222 -0.975
vn 0.000 0.150 -0.989
vn 0.000 0.048 -0.999
vn 0.000 0.048 -0.999
vn 0.000 0.048 -0.999
vn 0.000 -0.055 -0.998
vn 0.000 -0.008 -1.000
vn 0.000 -0.055 -0.998
vn 0.000 -0.008 -1.000
vn 0.000 0.063 -0.998
vn 0.000 -0.008 -1.000
vn 0.000 -0.008 -1.000
vn 0.000 -0.008 -1.000
vn 0.000 -0.008 -1.000
vn 0.000 -0.008 -1.000
vn 0.000 -0.008 -1.000
vn 0.000 -0.008 -1.000
vn 0.000 -0.008 -1.000
vn 0.000 0.063 -0.998
vn 0.000 0.292 0.956
vn 0.000 0.292 0.956
vn 0.000 0.292 0.956
vn 0.000 0.292 0.956
vn 0.000 0.292 0.956
vn -0.577 -0.577 -0.577
vn -0.577 -0.577 -0.577
vn -0.577 -0.577 -0.577
vn -0.577 -0.577 -0.577
vn -0.577 -0.577 -0.577
vn -0.577 -0.577 -0.577
vn -0.577 -0.577 -0.577
vn -0.577 -0.577 -0.577
vn -0.577 -0.577 -0.577
vn -0.577 -0.577 -0.577
vn -0.577 -0.577 -0.577
vn -0.577 -0.577 -0.577
vn -0.577 -0.577 -0.577
vn -0.577 -0.577 -0.577
vn -0.577 -0.577 -0.577
vn -0.577 -0.577 -0.577
vn -0.577 -0.577 -0.577
vn -0.577 -0.577 -0.577
vn -0.577 -0.577 -0.577
vn -0.577 -0.577 -0.577
vn -0.577 -0.577 -0.577
vn -0.577 -0.577 -0.577
vn -0.577 -0.577 -0.577
vn -0.577 -0.577 -0.577
vn -0.577 -0.577 -0.577
vn -0.577 -0.577 -0.577
vn -0.577 -0.577 -0.577
vn -0.577 -0.577 -0.577
vn -0.577 -0.577 -0.577
vn -0.577 -0.577 -0.577
vn -0.577 -0.577 -0.577
vn -0.577 -0.577 -0.577
vn -0.577 -0.577 -0.577
vn -0.577 -0.577 -0.577
vn -0.577 -0.577 -0.577
vn -0.577 -0.577 -0.577
vn -0.577 -0.577 -0.577
vn -0.577 -0.577 -0.577
vn -0.577 -0.577 -0.577
vn -0.577 -0.577 -0.577
vn -0.577 -0.577 -0.577
vn -0.577 -0.577 -0.577
vn -0.577 -0.577 -0.577
vn -0.577 -0.577 -0.577
vn -0.577 -0.577 -0.577
vn -0.577 -0.577 -0.577
vn -0.577 -0.577 -0.577
vn -0.577 -0.577 -0.577
vn -0.577 -0.577 -0.577
vn -0.577 -0.577 -0.577
vn -0.577 -0.577 -0.577
vn -0.577 -0.577 -0.577
vn -0.577 -0.577 -0.577
vn -0.577 -0.577 -0.577
vn -0.577 -0.577 -0.577
vn -0.577 -0.577 -0.577
vn -0.577 -0.577 -0.577
vn -0.577 -0.577 -0.577
vn -0.577 -0.577 -0.577
vn -0.577 -0.577 -0.577
vn -0.577 -0.577 -0.577
vn -0.577 -0.577 -0.577
vn -0.577 -0.577 -0.577
vn -0.577 -0.577 -0.577
vn -0.577 -0.577 -0.577
vn -0.577 -0.577 -0.577
vn -0.577 -0.577 -0.577
vn -0.577 -0.577 -0.577
vn -0.577 -0.577 -0.577
vn -0.577 -0.577 -0.577
vn -0.577 -0.577 -0.577
vn -0.577 -0.577 -0.577
vn -0.577 -0.577 -0.577
vn -0.577 -0.577 -0.577
vn -0.577 -0.577 -0.577
vn -0.577 -0.577 -0.577
vn -0.577 -0.577 -0.577
vn -0.577 -0.577 -0.577
vn -0.577 -0.577 -0.577
vn -0.577 -0.577 -0.577
vn -0.577 -0.577 -0.577
vn -0.577 -0.577 -0.577
vn -0.577 -0.577 -0.577
vn -0.577 -0.577 -0.577
vn -0.577 -0.577 -0.577
vn -0.577 -0.577 -0.577
vn -0.577 -0.577 -0.577
vn -0.577 -0.577 -0.577
vn -0.577 -0.577 -0.577
vn -0.577 -0.577 -0.577
vn -0.577 -0.577 -0.577
vn -0.577 -0.577 -0.577
vn -0.577 -0.577 -0.577
vn -0.577 -0.577 -0.577
vn -0.577 -0.577 -0.577
vn -0.577 -0.577 -0.577
vn -0.577 -0.577 -0.577
vn -0.577 -0.577 -0.577
vn -0.577 -0.577 -0.577
vn -0.577 -0.577 -0.577
vn -0.577 -0.577 -0.577
vn -0.577 -0.577 -0.577
vn -0.577 -0.577 -0.577
vn -0.577 -0.577 -0.577
vn -0.577 -0.577 -0.577
vn -0.577 -0.577 -0.577
vn -0.577 -0.577 -0.577
vn -0.577 -0.577 -0.577
vn -0.577 -0.577 -0.577
vn -0.577 -0.577 -0.577
vn -0.577 -0.577 -0.577
vn -0.577 -0.577 -0.577
vn 0.000 -0.940 -0.340
vn 0.000 -0.940 -0.340
vn 0.000 -0.940 -0.340
vn 0.000 -0.940 -0.340
vn 0.000 -0.940 -0.340
vn 0.000 -0.940 -0.340
vn 0.000 -0.940 -0.340
vn 0.000 -0.940 -0.340
vn 0.000 -0.940 -0.340
vn 0.000 -0.940 -0.340
vn 0.000 -0.940 -0.340
vn 0.000 -0.940 -0.340
vn 0.000 -0.940 -0.340
vn 0.000 -0.940 -0.340
vn 0.000 -0.940 -0.340
vn 0.000 -0.940 -0.340
vn 0.000 -0.940 -0.340
vn 0.000 -0.940 -0.340
vn 0.000 -0.940 -0.340
vn 0.000 -0.940 -0.340
vn 0.000 -0.940 -0.340
vn 0.000 -0.940 -0.340
vn 0.000 -0.940 -0.340
vn 0.000 -0.940 -0.340
vn 0.000 -0.940 -0.340
vn 0.000 -0.940 -0.340
vn 0.000 -0.940 -0.340
vn 0.000 -0.940 -0.340
vn 0.000 -0.940 -0.340
vn 0.000 -0.940 -0.340
vn 0.000 -0.940 -0.340
vn 0.000 -0.940 -0.340
vn 0.000 -0.940 -0.340
vn 0.000 -0.940 -0.340
vn 0.000 -0.940 -0.340
vn 0.000 -0.940 -0.340
vn 0.000 -0.940 -0.340
vn 0.000 -0.940 -0.340
vn 0.000 -0.940 -0.340
vn 0.000 -0.940 -0.340
vn 0.000 0.940 0.340
vn 0.000 0.940 0.340
vn 0.000 0.940 0.340
vn 0.000 0.940 0.340
vn 0.000 0.940 0.340
vn 0.000 0.940 0.340
vn 0.000 0.940 0.340
vn 0.000 0.940 0.340
vn 0.000 0.940 0.340
vn 0.000 0.940 0.340
vn 0.000 0.940 0.340
vn 0.000 0.940 0.340
vn 0.000 0.940 0.340
vn 0.000 0.940 0.340
vn 0.000 0.940 0.340
vn 0.000 0.940 0.340
vn 0.000 0.940 0.340
vn 0.000 0.940 0.340
vn 0.000 0.940 0.340
vn 0.000 0.940 0.340
vn 0.000 0.940 0.340
vn 0.000 0.940 0.340
vn 0.000 0.940 0.340
vn 0.000 0.940 0.340
vn 0.000 0.940 0.340
vn 0.000 0.940 0.340
vn 0.000 0.940 0.340
vn 0.000 0.940 0.340
vn 0.000 0.940 0.340
vn 0.000 0.940 0.340
vn 0.000 0.940 0.340
vn 0.000 0.940 0.340
vn 0.000 0.940 0.340
vn 0.000 0.940 0.340
vn 0.000 0.940 0.340
vn 0.000 0.940 0.340
vn 0.000 0.940 0.340
vn 0.000 0.940 0.340
vn 0.000 0.940 0.340
vn 0.000 0.940 0.340
vn -0.918 -0.135 0.372
vn -0.918 -0.135 0.372
vn -0.918 -0.135 0.372
vn -0.918 -0.135 0.372
vn -0.379 -0.316 0.870
vn -0.918 -0.135 0.372
vn -0.379 -0.316 0.870
vn -0.379 -0.316 0.870
vn -0.063 -0.339 0.939
vn -0.379 -0.316 0.870
vn 0.553 -0.285 0.783
vn 0.553 -0.285 0.783
vn 0.553 -0.285 0.783
vn 0.553 -0.285 0.783
vn 0.972 -0.079 0.221
vn 0.972 -0.079 0.221
vn 0.972 -0.079 0.221
vn 0.972 -0.079 0.221
vn 0.972 -0.079 0.221
vn 0.972 -0.079 0.221
vn 0.996 0.032 -0.087
vn 0.996 0.032 -0.087
vn 0.831 0.190 -0.522
vn 0.831 0.190 -0.522
vn 0.831 0.190 -0.522
vn 0.831 0.190 -0.522
vn 0.000 0.340 -0.940
vn 0.000 0.340 -0.940
vn 0.000 0.340 -0.940
vn 0.000 0.340 -0.940
vn 0.000 0.340 -0.940
vn 0.000 0.340 -0.940
vn 0.000 0.340 -0.940
vn 0.000 0.340 -0.940
vn -0.872 0.167 -0.460
vn -0.872 0.167 -0.460
vn -0.872 0.167 -0.460
vn -0.872 0.167 -0.460
vn -0.983 0.063 -0.174
vn -0.872 0.167 -0.460
vn -1.000 0.000 0.000
vn -1.000 0.000 0.000
vn -1.000 0.000 0.000
vn -1.000 0.000 0.000
vn -0.918 -0.135 0.372
vn -0.918 -0.135 0.372
vn -0.835 0.551 0.000
vn -0.672 0.741 0.000
vn -0.672 0.741 0.000
vn -0.835 0.551 0.000
vn -0.462 0.845 0.270
vn -0.761 0.649 0.000
vn -0.761 0.649 0.000
vn -0.761 0.649 0.000
vn -0.761 0.649 0.000
vn -0.761 0.649 0.000
vn 0.906 0.385 0.177
vn 0.929 0.370 0.000
vn -0.761 0.649 0.000
vn -0.761 0.649 0.000
vn 0.906 0.385 0.177
vn 0.906 0.385 0.177
vn 0.926 0.376 0.000
vn 0.926 0.376 0.000
vn 0.929 0.370 0.000
vn 0.906 0.385 0.177
vn 0.926 0.376 0.000
vn 0.926 0.376 0.000
vn 0.926 0.376 0.000
vn 0.926 0.376 0.000
vn 0.926 0.376 0.000
vn 0.926 0.376 0.000
vn 0.926 0.376 0.000
vn 0.926 0.376 0.000
vn 0.926 0.376 0.000
vn 0.932 0.364 0.000
vn -0.835 0.551 0.000
vn -0.835 0.551 0.000
vn 0.926 0.376 0.000
vn 0.926 0.376 0.000
vn 0.932 0.364 0.000
vn -0.761 0.649 0.000
vn -0.134 -0.339 0.931
vn 0.134 -0.339 0.931
vn -0.602 -0.269 0.752
vn -0.797 -0.205 0.568
vn -0.991 -0.040 0.127
vn -0.991 0.040 -0.127
vn -0.797 0.205 -0.568
vn -0.602 0.269 -0.752
vn -0.134 0.339 -0.931
vn 0.134 0.339 -0.931
vn 0.602 0.269 -0.752
vn 0.797 0.205 -0.568
vn 0.991 0.040 -0.127
vn 0.991 -0.040 0.127
vn 0.797 -0.205 0.568
vn 0.602 -0.269 0.752
vn 0.000 0.940 0.340
vn 0.000 0.940 0.340
vn 0.000 0.940 0.340
vn 0.000 0.940 0.340
vn 0.000 0.940 0.340
vn 0.000 0.940 0.340
vn 0.000 0.940 0.340
vn 0.000 0.940 0.340
usemtl tex_1794_sw0_0_lit_ds_w11
f 1/1/1 2/2/2 3/3/3
f 4/4/4 5/5/5 6/6/6
f 4/4/4 7/7/7 5/5/5
f 7/7/7 8/8/8 5/5/5
f 7/7/7 9/9/9 8/8/8
f 9/9/9 10/10/10 8/8/8
f 11/11/11 10/10/10 9/9/9
f 10/10/10 11/11/11 1/1/1
f 1/1/1 3/3/3 10/10/10
f 12/12/12 7/7/7 13/13/13
f 14/14/14 1/1/1 11/11/11
f 14/14/14 15/15/15 1/1/1
f 15/15/15 16/16/16 1/1/1
f 16/16/16 2/2/2 1/1/1
f 17/17/17 18/18/18 19/6/19
f 19/6/19 18/18/18 20/4/20
f 18/18/18 21/13/21 20/4/20
f 21/13/21 22/7/22 20/4/20
f 23/11/23 24/9/24 25/14/25
f 26/12/26 24/9/24 22/7/22
f 26/12/26 25/14/25 24/9/24
f 27/19/27 25/14/25 28/20/28
f 29/21/29 30/22/30 31/23/31
f 32/24/32 33/25/33 34/26/34
f 34/26/34 35/27/35 32/24/32
f 36/23/36 32/24/32 35/27/35
f 36/23/36 35/27/35 37/21/37
f 37/21/37 38/19/38 39/22/39
f 38/19/38 40/28/40 39/22/39
f 38/19/38 41/20/41 40/28/40
f 41/20/41 42/29/42 40/28/40
f 41/20/41 43/30/43 42/29/42
f 44/31/44 45/32/45 46/33/46
f 47/34/47 48/18/48 49/17/49
f 48/18/48 47/34/47 50/35/50
f 50/35/50 51/13/51 48/18/48
f 52/33/52 51/13/51 50/35/50
f 52/33/52 53/32/53 51/13/51
f 51/13/51 53/32/53 54/30/54
f 55/12/55 51/13/51 54/30/54
f 55/12/55 54/30/54 56/20/56
f 57/14/57 55/12/55 56/20/56
f 58/19/58 59/21/59 57/14/57
f 59/21/59 60/27/60 57/14/57
f 57/14/57 60/27/60 61/15/61
f 62/27/62 63/26/63 64/16/64
f 64/16/64 65/15/65 62/27/62
f 66/22/66 67/36/67 68/37/68
f 68/37/68 69/23/69 66/22/66
usemtl tex_1798_sw0_0_lit_ds_w11
f 70/38/70 71/39/71 72/40/72
f 73/41/73 71/39/71 74/42/74
f 75/43/75 74/42/74 76/44/76
f 74/42/74 75/43/75 77/45/77
f 74/42/74 77/45/77 73/41/73
f 78/46/78 79/45/79 80/47/80
f 80/47/80 79/45/79 81/48/81
f 81/48/81 79/45/79 82/43/82
f 82/43/82 83/44/83 81/48/81
f 83/44/83 84/49/84 81/48/81
f 85/50/85 86/51/86 81/48/81
f 84/49/84 85/50/85 81/48/81
f 81/48/81 86/51/86 87/52/87
f 78/46/78 88/53/88 89/54/89
f 87/52/87 90/55/90 81/48/81
f 90/55/90 80/47/80 81/48/81
f 90/55/90 88/53/88 80/47/80
f 88/53/88 78/46/78 80/47/80
usemtl tex_1796_sw0_0_lit_ds_w11
f 91/56/91 92/57/92 93/58/93
f 94/58/94 95/57/95 96/59/96
f 95/57/95 97/60/97 96/59/96
f 96/59/96 97/60/97 98/61/98
f 99/62/99 100/56/100 101/63/101
f 101/63/101 100/56/100 94/58/94
usemtl tex_1797_sw0_0_lit_ds_w11
f 102/64/102 103/65/103 104/66/104
f 103/65/103 105/67/105 104/66/104
f 103/65/103 106/68/106 105/67/105
f 106/68/106 107/69/107 105/67/105
f 106/68/106 108/70/108 107/69/107
f 108/70/108 109/71/109 107/69/107
f 110/70/110 111/72/111 112/71/112
f 113/73/113 114/74/114 115/75/115
f 116/76/116 115/75/115 114/74/114
f 116/76/116 117/77/117 115/75/115
f 115/75/115 117/77/117 118/78/118
f 118/78/118 117/77/117 119/79/119
f 119/79/119 120/80/120 118/78/118
f 118/78/118 120/80/120 121/81/121
f 120/80/120 122/82/122 121/81/121
f 122/82/122 123/83/123 121/81/121
f 122/82/122 124/84/124 123/83/123
f 124/84/124 125/85/125 123/83/123
f 126/79/126 127/77/127 128/86/128
f 128/86/128 127/77/127 129/87/129
f 127/77/127 130/88/130 131/89/131
f 127/77/127 131/89/131 129/87/129
f 127/77/127 132/90/132 130/88/130
f 133/76/133 132/90/132 127/77/127
f 134/91/134 132/90/132 133/76/133
f 133/76/133 135/92/135 134/91/134
f 133/76/133 136/74/136 135/92/135
f 130/88/130 137/93/137 138/94/138
f 134/91/134 135/92/135 139/95/139
usemtl tex_1793_sw0_0_lit_ds_w11
f 140/96/140 141/97/141 142/98/142
f 142/98/142 141/97/141 143/99/143
f 141/97/141 144/100/144 143/99/143
f 143/99/143 144/100/144 145/101/145
f 144/100/144 146/102/146 145/101/145
f 145/101/145 146/102/146 147/103/147
f 146/102/146 148/104/148 147/103/147
f 147/103/147 148/104/148 149/105/149
f 148/104/148 150/106/150 149/105/149
f 149/105/149 150/106/150 151/107/151
f 152/108/152 141/97/141 153/109/153
f 141/97/141 140/96/140 153/109/153
usemtl tex_1795_sw1_0_lit_ds_w11
f 154/110/154 155/111/155 156/112/156
f 157/113/157 155/111/155 154/110/154
f 157/113/157 154/110/154 158/114/158
f 159/115/159 157/113/157 158/114/158
f 159/115/159 158/114/158 160/116/160
f 160/116/160 158/114/158 161/117/161
f 162/118/162 160/116/160 161/117/161
f 162/118/162 161/117/161 163/119/163
f 156/112/156 155/111/155 164/120/164
usemtl tex_1796_sw1_0_lit_ds_w11
f 165/121/165 166/122/166 167/123/167
f 167/123/167 166/122/166 168/124/168
f 167/123/167 168/124/168 169/125/169
f 170/125/170 171/124/171 172/126/172
f 170/125/170 172/126/172 173/127/173
f 173/127/173 172/126/172 174/128/174
f 173/127/173 174/128/174 175/129/175
f 175/129/175 174/128/174 176/130/176
f 175/129/175 176/130/176 177/131/177
f 177/131/177 176/130/176 178/132/178
f 177/131/177 178/132/178 179/133/179
f 179/133/179 178/132/178 180/134/180
f 179/133/179 180/134/180 181/135/181
f 181/135/181 180/134/180 182/136/182
f 181/135/181 182/136/182 183/121/183
f 183/121/183 182/136/182 184/122/184
f 185/123/185 186/137/186 187/138/187
f 188/125/188 186/137/186 185/123/185
f 189/127/189 186/137/186 188/125/188
f 185/123/185 187/138/187 190/121/190
f 187/138/187 191/135/191 190/121/190
f 186/137/186 189/127/189 192/129/192
f 193/131/193 186/137/186 192/129/192
f 194/133/194 186/137/186 193/131/193
f 187/138/187 186/137/186 194/133/194
f 187/138/187 194/133/194 191/135/191
usemtl tex_1796_sw1_1_lit_ds_w11
f 195/139/195 196/140/196 197/141/197
f 198/142/198 196/140/196 195/139/195
f 199/143/199 200/144/200 201/145/201
f 199/143/199 202/146/202 200/144/200
f 200/144/200 202/146/202 203/147/203
f 199/143/199 201/145/201 204/148/204
f 198/142/198 199/143/199 204/148/204
f 205/149/205 202/146/202 195/139/195
f 195/139/195 202/146/202 198/142/198
f 198/142/198 202/146/202 199/143/199
f 204/148/204 206/150/206 207/151/207
f 201/145/201 206/150/206 204/148/204
f 201/145/201 208/152/208 206/150/206
f 200/144/200 208/152/208 201/145/201
f 200/144/200 209/153/209 208/152/208
f 203/147/203 209/153/209 200/144/200
f 195/139/195 197/141/197 205/149/205
f 198/142/198 207/151/207 196/140/196
f 204/148/204 207/151/207 198/142/198
f 210/154/210 211/155/211 212/156/212
f 210/154/210 212/156/212 213/147/213
f 213/147/213 212/156/212 214/153/214
f 213/147/213 215/146/215 210/154/210
f 215/146/215 216/149/216 210/154/210
f 216/149/216 211/155/211 210/154/210
f 216/149/216 217/141/217 211/155/211
f 218/157/218 219/158/219 220/159/220
f 218/157/218 221/160/221 219/158/219
f 219/158/219 221/160/221 222/161/222
f 222/161/222 221/160/221 223/162/223
f 221/160/221 224/163/224 223/162/223
f 218/157/218 220/159/220 225/164/225
f 226/165/226 218/157/218 225/164/225
f 224/163/224 221/160/221 227/166/227
f 227/166/227 221/160/221 226/165/226
f 226/165/226 221/160/221 218/157/218
f 225/164/225 228/167/228 229/168/229
f 220/159/220 228/167/228 225/164/225
f 220/159/220 230/169/230 228/167/228
f 219/158/219 230/169/230 220/159/220
f 219/158/219 231/170/231 230/169/230
f 222/161/222 231/170/231 219/158/219
f 222/161/222 232/171/232 231/170/231
f 223/162/223 232/171/232 222/161/222
f 223/162/223 233/172/233 232/171/232
f 224/163/224 233/172/233 223/162/223
f 234/163/234 235/173/235 236/172/236
f 237/166/237 235/173/235 234/163/234
f 237/166/237 238/174/238 235/173/235
f 239/165/239 238/174/238 237/166/237
f 239/165/239 240/168/240 238/174/238
f 241/175/241 240/168/240 242/167/242
f 243/171/243 236/172/236 244/176/244
f 236/172/236 245/177/245 244/176/244
f 236/172/236 235/173/235 245/177/245
f 235/173/235 246/178/246 245/177/245
f 235/173/235 238/174/238 246/178/246
f 238/174/238 247/179/247 246/178/246
f 238/174/238 240/168/240 247/179/247
f 247/179/247 240/168/240 241/175/241
f 248/164/248 240/168/240 239/165/239
f 249/180/249 250/181/250 251/182/251
f 251/182/251 250/181/250 252/183/252
f 251/182/251 252/183/252 253/184/253
f 253/184/253 252/183/252 254/185/254
f 253/184/253 254/185/254 255/186/255
f 255/186/255 254/185/254 256/187/256
f 255/186/255 256/187/256 257/188/257
f 257/188/257 256/187/256 258/189/258
f 257/188/257 258/189/258 259/190/259
f 259/190/259 258/189/258 260/191/260
f 259/190/259 260/191/260 261/192/261
f 261/192/261 260/191/260 262/193/262
f 261/192/261 262/193/262 263/194/263
f 263/194/263 262/193/262 264/195/264
f 263/194/263 264/195/264 249/180/249
f 249/180/249 264/195/264 250/181/250
f 265/182/265 266/196/266 267/197/267
f 268/184/268 266/196/266 265/182/265
f 269/186/269 266/196/266 268/184/268
f 265/182/265 267/197/267 270/180/270
f 267/197/267 271/194/271 270/180/270
f 266/196/266 269/186/269 272/188/272
f 273/190/273 266/196/266 272/188/272
f 274/192/274 266/196/266 273/190/273
f 267/197/267 266/196/266 274/192/274
f 267/197/267 274/192/274 271/194/271
usemtl tex_1795_sw1_2_lit_ds_w11
f 275/198/275 276/199/276 277/200/277
f 278/201/278 279/202/279 280/203/280
f 281/204/281 279/202/279 278/201/278
f 282/205/282 279/202/279 281/204/281
f 278/201/278 280/203/280 275/198/275
f 280/203/280 283/206/283 275/198/275
f 279/202/279 282/205/282 284/207/284
f 285/208/285 279/202/279 284/207/284
f 286/209/286 279/202/279 285/208/285
f 280/203/280 279/202/279 286/209/286
f 280/203/280 286/209/286 283/206/283
f 275/198/275 277/200/277 278/201/278
f 278/201/278 277/200/277 287/210/287
f 278/201/278 287/210/287 281/204/281
f 281/204/281 287/210/287 288/211/288
f 281/204/281 288/211/288 282/205/282
f 282/205/282 288/211/288 289/212/289
f 282/205/282 289/212/289 284/207/284
f 284/207/284 289/212/289 290/213/290
f 284/207/284 290/213/290 285/208/285
f 291/208/291 292/213/292 293/214/293
f 291/208/291 293/214/293 294/209/294
f 294/209/294 293/214/293 295/215/295
f 294/209/294 295/215/295 296/206/296
f 296/206/296 295/215/295 297/199/297
f 296/206/296 297/199/297 298/198/298
usemtl tex_1798_sw1_2_lit_ds_w11
f 299/216/299 300/217/300 301/218/301
f 301/218/301 302/219/302 299/216/299
usemtl tex_1798_sw1_2_lit_ds_w11_ovl
f 302/219/302 303/220/303 304/221/304
usemtl tex_1798_sw1_2_lit_ds_w11
f 304/221/304 299/216/299 302/219/302
usemtl tex_1797_sw1_2_lit_ds_w11
f 305/222/305 306/223/306 307/224/307
f 308/225/308 309/226/309 310/227/310
usemtl tex_1798_sw1_2_lit_ds_w11
f 311/228/311 312/229/312 313/230/313
f 314/231/314 315/232/315 316/231/316
f 317/233/317 315/232/315 314/231/314
f 317/233/317 314/231/314 318/234/318
f 317/233/317 318/234/318 319/220/319
f 319/220/319 318/234/318 320/221/320
f 318/234/318 321/53/321 320/221/320
f 320/221/320 321/53/321 322/55/322
f 320/221/320 322/55/322 323/216/323
f 323/216/323 322/55/322 324/52/324
f 323/216/323 324/52/324 325/217/325
f 325/217/325 324/52/324 326/52/326
f 327/231/327 328/54/328 329/234/329
f 329/234/329 328/54/328 330/53/330
usemtl tex_1797_sw1_2_lit_ds_w11
f 331/90/331 332/235/332 333/88/333
f 334/236/334 333/88/333 332/235/332
f 335/237/335 333/88/333 334/236/334
f 336/238/336 337/239/337 338/240/338
f 338/240/338 339/241/339 336/238/336
f 340/242/340 337/239/337 336/238/336
f 340/242/340 336/238/336 341/227/341
f 342/226/342 340/242/340 341/227/341
f 343/243/343 344/236/344 345/226/345
f 345/226/345 344/236/344 346/235/346
f 345/226/345 346/235/346 347/242/347
f 347/242/347 346/235/346 348/244/348
f 347/242/347 348/244/348 349/239/349
f 349/239/349 348/244/348 350/245/350
f 349/239/349 350/245/350 351/240/351
f 351/240/351 350/245/350 352/95/352
f 353/91/353 352/95/352 350/245/350
f 353/91/353 350/245/350 348/244/348
f 348/244/348 354/90/354 353/91/353
f 348/244/348 346/235/346 354/90/354
usemtl tex_1795_sw2_0_lit_ds_w11
f 355/246/355 356/247/356 357/248/357
f 358/249/358 359/250/359 360/251/360
f 361/252/361 358/249/358 360/251/360
f 360/251/360 362/253/362 361/252/361
f 360/251/360 363/254/363 362/253/362
f 363/254/363 364/255/364 362/253/362
f 365/256/365 364/255/364 363/254/363
f 355/246/355 364/255/364 365/256/365
f 356/247/356 355/246/355 365/256/365
f 355/246/355 357/248/357 366/257/366
f 366/257/366 357/248/357 367/258/367
f 357/248/357 368/259/368 367/258/367
f 367/258/367 368/259/368 369/260/369
f 368/259/368 370/261/370 369/260/369
f 371/260/371 372/261/372 373/262/373
f 374/252/374 375/253/375 376/263/376
f 376/263/376 375/253/375 377/264/377
f 375/253/375 378/255/378 377/264/377
f 377/264/377 378/255/378 379/265/379
f 378/255/378 380/246/380 379/265/379
f 379/265/379 380/246/380 381/257/381
usemtl tex_1795_sw2_1_lit_ds_w11
f 382/266/382 383/267/383 384/268/384
f 385/269/385 383/267/383 382/266/382
f 386/270/386 387/271/387 388/272/388
f 384/268/384 386/270/386 388/272/388
f 383/267/383 386/270/386 384/268/384
usemtl tex_1796_sw2_1_lit_ds_w11
f 389/273/389 390/151/390 391/274/391
f 392/140/392 390/151/390 393/275/393
f 393/275/393 390/151/390 389/273/389
usemtl tex_776_sw3_0_lit_env_ds
f 394/276/394 395/277/395 396/278/396
f 394/276/394 396/278/396 400/278/400
f 401/279/401 394/276/394 402/280/402
f 394/276/394 400/278/400 402/280/402
f 403/281/403 401/279/401 404/282/404
f 401/279/401 402/280/402 404/282/404
f 405/283/405 403/281/403 406/284/406
f 403/281/403 404/282/404 406/284/406
f 407/285/407 405/283/405 408/286/408
f 405/283/405 406/284/406 408/286/408
f 409/287/409 410/285/410 411/288/411
f 410/285/410 412/286/412 411/288/411
f 413/289/413 414/290/414 415/291/415
f 413/289/413 415/291/415 416/292/416
f 413/289/413 416/292/416 417/293/417
f 413/289/413 417/293/417 418/294/418
f 413/289/413 418/294/418 419/295/419
f 416/292/416 415/291/415 420/296/420
f 416/292/416 420/296/420 421/297/421
f 416/292/416 421/297/421 422/298/422
f 416/292/416 422/298/422 423/299/423
f 416/292/416 423/299/423 424/300/424
f 425/292/425 426/300/426 427/301/427
f 425/292/425 427/301/427 428/302/428
f 429/303/429 430/289/430 431/295/431
f 429/303/429 431/295/431 432/304/432
f 429/303/429 432/304/432 433/287/433
f 429/303/429 433/287/433 434/288/434
f 429/303/429 434/288/434 435/305/435
f 436/306/436 437/307/437 438/308/438
f 442/309/442 443/306/443 444/308/444
f 445/310/445 444/308/444 446/311/446
f 445/310/445 442/309/442 444/308/444
f 447/312/447 446/311/446 448/313/448
f 447/312/447 445/310/445 446/311/446
f 449/314/449 448/313/448 450/315/450
f 449/314/449 447/312/447 448/313/448
f 451/316/451 450/315/450 452/317/452
f 451/316/451 449/314/449 450/315/450
f 453/318/453 451/316/451 452/317/452
f 454/319/454 455/320/455 456/321/456
f 457/322/457 458/323/458 459/324/459
f 457/322/457 459/324/459 460/325/460
f 457/322/457 460/325/460 461/326/461
f 457/322/457 461/326/461 462/327/462
f 457/322/457 462/327/462 456/321/456
f 457/322/457 456/321/456 455/320/455
f 463/328/463 454/319/454 456/321/456
f 463/328/463 456/321/456 464/329/464
f 463/328/463 464/329/464 465/330/465
f 463/328/463 465/330/465 466/331/466
f 463/328/463 466/331/466 467/332/467
f 463/328/463 467/332/467 468/333/468
f 463/328/463 468/333/468 469/334/469
f 470/325/470 471/324/471 472/335/472
f 470/325/470 472/335/472 473/318/473
f 470/325/470 473/318/473 474/317/474
f 470/325/470 474/317/474 475/336/475
f 470/325/470 475/336/475 476/337/476
f 478/338/478 480/339/480 481/339/481
f 482/340/482 483/340/483 484/340/484
f 485/341/485 486/342/486 487/343/487
f 487/343/487 488/343/488 485/341/485
f 489/343/489 488/343/488 487/343/487
f 489/343/489 490/344/490 488/343/488
f 491/343/491 490/344/490 489/343/489
f 491/343/491 492/344/492 490/344/490
f 493/343/493 492/344/492 491/343/491
f 493/343/493 494/344/494 492/344/492
f 495/345/495 494/344/494 493/343/493
f 495/345/495 496/344/496 494/344/494
f 497/345/497 495/345/495 498/345/498
f 497/345/497 496/344/496 495/345/495
f 497/345/497 498/345/498 499/346/499
f 497/345/497 499/346/499 500/346/500
f 501/347/501 502/347/502 503/347/503
f 501/347/501 503/347/503 504/347/504
f 505/348/505 504/347/504 503/347/503
f 505/348/505 506/348/506 504/347/504
f 505/348/505 507/348/507 506/348/506
f 505/348/505 508/348/508 507/348/507
f 509/349/509 510/350/510 511/349/511
f 512/351/512 513/352/513 509/349/509
f 512/351/512 509/349/509 511/349/511
f 512/351/512 514/351/514 513/352/513
f 515/353/515 514/351/514 512/351/512
f 515/353/515 516/353/516 514/351/514
f 517/354/517 518/353/518 519/353/519
f 517/354/517 520/354/520 518/353/518
f 521/355/521 520/354/520 517/354/517
f 521/355/521 522/355/522 520/354/520
f 523/355/523 522/355/522 521/355/521
f 523/355/523 524/356/524 522/355/522
f 525/342/525 526/356/526 524/356/524
f 525/342/525 524/356/524 523/355/523
f 527/342/527 526/356/526 525/342/525
f 527/342/527 528/341/528 526/356/526
f 529/342/529 528/341/528 527/342/527
f 529/342/529 530/342/530 528/341/528
f 531/342/531 532/342/532 529/342/529
f 529/342/529 532/342/532 530/342/530
f 533/342/533 534/342/534 535/342/535
f 536/342/536 534/342/534 533/342/533
f 536/342/536 537/341/537 534/342/534
f 538/347/538 539/347/539 540/347/540
f 540/347/540 539/347/539 541/347/541
f 540/347/540 541/347/541 542/347/542
usemtl tex_1794_sw4_0_lit_ds_w11
f 543/36/543 544/22/544 545/357/545
f 546/358/546 547/359/547 548/29/548
f 549/360/549 546/358/546 548/29/548
f 550/361/550 546/358/546 549/360/549
f 551/31/551 552/362/552 553/363/553
f 554/364/554 552/362/552 551/31/551
f 554/364/554 555/365/555 552/362/552
f 556/366/556 557/34/557 558/17/558
f 559/366/559 560/367/560 561/34/561
f 561/34/561 560/367/560 562/368/562
f 561/34/561 562/368/562 563/35/563
f 563/35/563 562/368/562 564/364/564
f 565/33/565 563/35/563 564/364/564
f 565/33/565 564/364/564 566/31/566
f 566/31/566 567/360/567 568/32/568
f 568/32/568 567/360/567 569/30/569
f 567/360/567 570/29/570 569/30/569
f 571/369/571 572/370/572 573/357/573
f 573/357/573 572/370/572 574/371/574
f 575/370/575 576/372/576 577/371/577
f 577/371/577 576/372/576 578/373/578
f 579/374/579 580/375/580 581/376/581
f 581/376/581 580/375/580 582/377/582
f 580/375/580 583/369/583 582/377/582
f 582/377/582 583/369/583 584/357/584
f 581/376/581 582/377/582 585/28/585
f 582/377/582 586/22/586 585/28/585
f 582/377/582 584/357/584 586/22/586
f 587/378/587 588/379/588 589/380/589
f 590/381/590 588/379/588 587/378/587
f 591/37/591 592/381/592 593/378/593
f 594/382/594 592/381/592 591/37/591
f 595/36/595 594/382/594 591/37/591
f 596/383/596 594/382/594 595/36/595
f 597/384/597 598/385/598 599/386/599
f 600/387/600 598/385/598 597/384/597
f 601/388/601 600/387/600 597/384/597
f 602/389/602 600/387/600 601/388/601
f 603/380/603 602/389/602 601/388/601
f 604/379/604 602/389/602 603/380/603
f 593/378/593 605/23/605 591/37/591
f 606/24/606 605/23/605 593/378/593
f 606/24/606 593/378/593 603/380/603
f 607/25/607 608/24/608 609/380/609
f 610/390/610 611/391/611 612/392/612
f 610/390/610 612/392/612 613/393/613
usemtl tex_1794_sw4_0_lit_ds_w11_ovl
f 614/390/614 615/393/615 616/390/616
usemtl tex_1795_sw4_0_lit_ds_w11
f 617/394/617 618/265/618 619/395/619
f 620/264/620 618/265/618 617/394/617
f 620/264/620 617/394/617 621/396/621
f 622/397/622 620/264/620 621/396/621
f 623/263/623 624/264/624 625/397/625
f 626/395/626 627/265/627 628/257/628
f 628/257/628 629/398/629 626/395/626
usemtl tex_1797_sw4_0_lit_ds_w11
f 630/79/630 631/86/631 632/399/632
f 633/80/633 630/79/630 632/399/632
f 633/80/633 632/399/632 634/400/634
f 635/401/635 633/80/633 634/400/634
f 636/82/636 633/80/633 635/401/635
f 636/82/636 635/401/635 637/402/637
f 637/402/637 638/84/638 636/82/636
f 639/88/639 640/94/640 641/403/641
f 642/89/642 639/88/639 641/403/641
f 642/89/642 641/403/641 643/87/643
f 643/87/643 641/403/641 644/404/644
f 645/405/645 643/87/643 644/404/644
f 646/86/646 643/87/643 645/405/645
f 646/86/646 645/405/645 647/406/647
f 648/399/648 646/86/646 647/406/647
f 648/399/648 647/406/647 649/407/649
f 648/399/648 649/407/649 650/400/650
f 650/400/650 649/407/649 651/408/651
f 652/401/652 650/400/650 651/408/651
f 653/409/653 652/401/652 651/408/651
f 653/409/653 654/402/654 652/401/652
usemtl tex_661_sw5_0_lit_env_ds
f 655/410/655 656/410/656 657/410/657
f 655/410/655 657/410/657 658/410/658
f 655/410/655 658/410/658 659/410/659
f 655/410/655 659/410/659 660/410/660
f 655/410/655 660/410/660 661/410/661
f 655/410/655 661/410/661 662/410/662
f 655/410/655 662/410/662 663/410/663
f 655/410/655 663/410/663 664/410/664
f 655/410/655 664/410/664 665/410/665
f 655/410/655 665/410/665 666/410/666
f 655/410/655 666/410/666 667/410/667
f 655/410/655 667/410/667 668/410/668
f 655/410/655 668/410/668 669/410/669
f 655/410/655 669/410/669 670/410/670
f 671/410/671 672/410/672 673/410/673
f 671/410/671 673/410/673 674/410/674
f 671/410/671 674/410/674 675/410/675
f 671/410/671 675/410/675 676/410/676
f 671/410/671 676/410/676 677/410/677
f 671/410/671 677/410/677 678/410/678
f 671/410/671 678/410/678 679/410/679
f 671/410/671 679/410/679 680/410/680
f 671/410/671 680/410/680 681/410/681
f 671/410/671 681/410/681 682/410/682
f 671/410/671 682/410/682 683/410/683
f 671/410/671 683/410/683 684/410/684
f 671/410/671 684/410/684 685/410/685
f 671/410/671 685/410/685 686/410/686
f 687/410/687 688/410/688 689/410/689
f 687/410/687 689/410/689 690/410/690
f 687/410/687 690/410/690 691/410/691
f 687/410/687 691/410/691 692/410/692
f 687/410/687 692/410/692 693/410/693
f 687/410/687 693/410/693 694/410/694
f 695/411/695 696/411/696 697/411/697
f 695/411/695 697/411/697 698/411/698
f 695/411/695 698/411/698 699/411/699
f 695/411/695 699/411/699 700/411/700
f 695/411/695 700/411/700 701/411/701
f 695/411/695 701/411/701 702/411/702
f 703/411/703 704/411/704 705/411/705
f 703/411/703 705/411/705 706/411/706
f 703/411/703 706/411/706 707/411/707
f 703/411/703 707/411/707 708/411/708
f 703/411/703 708/411/708 709/411/709
f 703/411/703 709/411/709 710/411/710
f 703/411/703 710/411/710 711/411/711
f 703/411/703 711/411/711 712/411/712
f 703/411/703 712/411/712 713/411/713
f 703/411/703 713/411/713 714/411/714
f 703/411/703 714/411/714 715/411/715
f 703/411/703 715/411/715 716/411/716
f 703/411/703 716/411/716 717/411/717
f 703/411/703 717/411/717 718/411/718
f 719/411/719 720/411/720 721/411/721
f 719/411/719 721/411/721 722/411/722
f 719/411/719 722/411/722 723/411/723
f 719/411/719 723/411/723 724/411/724
f 719/411/719 724/411/724 725/411/725
f 719/411/719 725/411/725 726/411/726
f 719/411/719 726/411/726 727/411/727
f 719/411/719 727/411/727 728/411/728
f 719/411/719 728/411/728 729/411/729
f 719/411/719 729/411/729 730/411/730
f 719/411/719 730/411/730 731/411/731
f 719/411/719 731/411/731 732/411/732
f 719/411/719 732/411/732 733/411/733
f 719/411/719 733/411/733 734/411/734
f 735/412/735 736/412/736 737/412/737
f 737/412/737 736/412/736 738/412/738
f 737/412/737 738/412/738 739/413/739
f 739/413/739 738/412/738 740/412/740
f 739/413/739 740/412/740 741/413/741
f 741/413/741 740/412/740 742/413/742
f 741/413/741 742/413/742 743/414/743
f 743/414/743 742/413/742 744/413/744
f 743/414/743 744/413/744 745/415/745
f 745/415/745 744/413/744 746/415/746
f 745/415/745 746/415/746 747/415/747
f 747/415/747 746/415/746 748/415/748
f 747/415/747 748/415/748 749/416/749
f 749/416/749 748/415/748 750/416/750
f 751/416/751 752/416/752 753/416/753
f 753/416/753 752/416/752 754/416/754
f 753/416/753 754/416/754 755/417/755
f 755/417/755 754/416/754 756/417/756
f 755/417/755 756/417/756 757/418/757
f 757/418/757 756/417/756 758/418/758
f 757/418/757 758/418/758 759/418/759
f 759/418/759 758/418/758 760/418/760
f 759/418/759 760/418/760 761/419/761
f 761/419/761 760/418/760 762/419/762
f 761/419/761 762/419/762 763/419/763
f 763/419/763 762/419/762 764/419/764
f 763/419/763 764/419/764 765/419/765
f 765/419/765 764/419/764 766/419/766
f 767/419/767 768/419/768 769/420/769
f 769/420/769 768/419/768 770/420/770
f 769/420/769 770/420/770 771/420/771
f 771/420/771 770/420/770 772/420/772
f 771/420/771 772/420/772 773/421/773
f 773/421/773 772/420/772 774/420/774
f 773/421/773 774/420/774 775/422/775
f 775/422/775 774/420/774 776/422/776
f 775/422/775 776/422/776 777/422/777
f 777/422/777 776/422/776 778/422/778
f 777/422/777 778/422/778 779/412/779
f 779/412/779 778/422/778 780/412/780
usemtl tex_766_sw5_1_lit_ds
f 781/423/781 782/424/782 783/425/783
f 784/426/784 782/424/782 781/423/781
f 784/426/784 785/427/785 782/424/782
f 786/428/786 785/427/785 784/426/784
f 782/424/782 787/429/787 788/430/788
f 782/424/782 788/430/788 783/425/783
f 785/427/785 789/431/789 787/429/787
f 785/427/785 787/429/787 782/424/782
f 790/432/790 791/433/791 792/434/792
f 790/432/790 792/434/792 793/435/793
f 794/436/794 795/437/795 791/433/791
f 794/436/794 791/433/791 790/432/790
f 796/433/796 797/438/797 798/439/798
f 796/433/796 798/439/798 799/434/799
f 800/437/800 801/440/801 797/438/797
f 800/437/800 797/438/797 796/433/796
f 797/438/797 802/441/802 803/442/803
f 797/438/797 803/442/803 798/439/798
f 804/443/804 802/441/802 797/438/797
f 801/440/801 804/443/804 797/438/797
f 802/441/802 805/444/805 806/445/806
f 802/441/802 806/445/806 803/442/803
f 804/443/804 807/446/807 805/444/805
f 804/443/804 805/444/805 802/441/802
f 805/444/805 808/447/808 809/448/809
f 805/444/805 809/448/809 806/445/806
usemtl tex_766_sw5_1_lit_ds_ovl
f 807/446/807 810/449/810 808/447/808
usemtl tex_766_sw5_1_lit_ds
f 807/446/807 808/447/808 805/444/805
f 811/426/811 812/423/812 813/448/813
f 814/450/814 811/426/811 813/448/813
f 815/449/815 816/428/816 811/426/811
f 815/449/815 811/426/811 814/450/814
usemtl tex_661_sw5_1_lit_env_ds
f 817/451/817 818/452/818 819/453/819
f 817/451/817 819/453/819 820/454/820
f 820/454/820 819/453/819 821/455/821
f 820/454/820 821/455/821 822/456/822
f 822/456/822 821/455/821 823/457/823
f 822/456/822 823/457/823 824/458/824
f 824/458/824 823/457/823 825/459/825
f 824/458/824 825/459/825 826/460/826
f 826/460/826 825/459/825 827/461/827
f 826/460/826 827/461/827 828/462/828
f 828/462/828 827/461/827 829/463/829
f 828/462/828 829/463/829 830/464/830
f 830/464/830 829/463/829 831/465/831
f 830/464/830 831/465/831 832/466/832
f 832/466/832 831/465/831 818/452/818
f 832/466/832 818/452/818 817/451/817
f 833/411/833 834/411/834 835/411/835
f 833/411/833 835/411/835 836/411/836
f 836/411/836 835/411/835 837/411/837
f 838/411/838 836/411/836 837/411/837
f 838/411/838 837/411/837 839/411/839
f 838/411/838 839/411/839 840/411/840
