mtllib Gtt33Z.mtl
v 0.0 0.0 85.20000457763672 1.000 1.000 1.000
v 0.0 64.0 85.20000457763672 1.000 1.000 1.000
v 64.0 64.0 85.20000457763672 1.000 1.000 1.000
v 64.0 0.0 85.20000457763672 1.000 1.000 1.000
v -64.0 0.0 85.20000457763672 1.000 1.000 1.000
v -64.0 64.0 85.20000457763672 1.000 1.000 1.000
v 0.0 64.0 85.20000457763672 1.000 1.000 1.000
v 0.0 0.0 85.20000457763672 1.000 1.000 1.000
v 0.0 -64.0 85.20000457763672 1.000 1.000 1.000
v 0.0 0.0 85.20000457763672 1.000 1.000 1.000
v 64.0 0.0 85.20000457763672 1.000 1.000 1.000
v 64.0 -64.0 85.20000457763672 1.000 1.000 1.000
v -64.0 -64.0 85.20000457763672 1.000 1.000 1.000
v -64.0 0.0 85.20000457763672 1.000 1.000 1.000
v 0.0 0.0 85.20000457763672 1.000 1.000 1.000
v 0.0 -64.0 85.20000457763672 1.000 1.000 1.000
v 0.0 63.89999771118164 298.4352722167969 1.000 1.000 1.000
v 0.0 127.89999771118164 298.4352722167969 1.000 1.000 1.000
v 64.0 127.89999771118164 298.4352722167969 1.000 1.000 1.000
v 64.0 63.89999771118164 298.4352722167969 1.000 1.000 1.000
v -64.0 63.89999771118164 298.4352722167969 1.000 1.000 1.000
v -64.0 127.89999771118164 298.4352722167969 1.000 1.000 1.000
v 0.0 127.89999771118164 298.4352722167969 1.000 1.000 1.000
v 0.0 63.89999771118164 298.4352722167969 1.000 1.000 1.000
v 0.0 -0.10000228881835938 298.4352722167969 1.000 1.000 1.000
v 0.0 63.89999771118164 298.4352722167969 1.000 1.000 1.000
v 64.0 63.89999771118164 298.4352722167969 1.000 1.000 1.000
v 64.0 -0.10000228881835938 298.4352722167969 1.000 1.000 1.000
v -64.0 -0.10000228881835938 298.4352722167969 1.000 1.000 1.000
v -64.0 63.89999771118164 298.4352722167969 1.000 1.000 1.000
v 0.0 63.89999771118164 298.4352722167969 1.000 1.000 1.000
v 0.0 -0.10000228881835938 298.4352722167969 1.000 1.000 1.000
v 11.0 61.0 107.0 1.000 1.000 1.000
v 6.0 54.0 256.0 1.000 1.000 1.000
v 6.0 54.0 107.0 1.000 1.000 1.000
v 11.0 61.0 256.0 1.000 1.000 1.000
v 10.0 69.0 107.0 1.000 1.000 1.000
v 10.0 69.0 256.0 1.000 1.000 1.000
v 3.0 75.0 107.0 1.000 1.000 1.000
v 3.0 75.0 256.0 1.000 1.000 1.000
v -6.0 74.0 107.0 1.000 1.000 1.000
v -6.0 74.0 256.0 1.000 1.000 1.000
v -6.0 74.0 107.0 1.000 1.000 1.000
v -11.0 67.0 107.0 1.000 1.000 1.000
v -6.0 74.0 256.0 1.000 1.000 1.000
v -6.0 74.0 107.0 1.000 1.000 1.000
v -11.0 67.0 256.0 1.000 1.000 1.000
v -10.0 58.0 107.0 1.000 1.000 1.000
v -10.0 58.0 256.0 1.000 1.000 1.000
v -11.0 67.0 256.0 1.000 1.000 1.000
v -10.0 58.0 107.0 1.000 1.000 1.000
v -3.0 53.0 107.0 1.000 1.000 1.000
v -3.0 53.0 256.0 1.000 1.000 1.000
v 6.0 54.0 107.0 1.000 1.000 1.000
v 6.0 54.0 256.0 1.000 1.000 1.000
v 6.0 54.0 107.0 1.000 1.000 1.000
v 19.0 60.89999771118164 45.03526306152344 1.000 1.000 1.000
v 26.0 54.89999771118164 46.03526306152344 1.000 1.000 1.000
v 19.0 43.89999771118164 37.03526306152344 1.000 1.000 1.000
v 19.0 42.89999771118164 43.03526306152344 1.000 1.000 1.000
v 19.0 58.89999771118164 51.03526306152344 1.000 1.000 1.000
v 18.0 63.89999771118164 2.0352630615234375 1.000 1.000 1.000
v 11.0 78.89999771118164 17.035263061523438 1.000 1.000 1.000
v 11.0 78.89999771118164 256.03526306152344 1.000 1.000 1.000
v 19.0 63.89999771118164 256.03526306152344 1.000 1.000 1.000
v -11.0 78.89999771118164 17.035263061523438 1.000 1.000 1.000
v -19.0 63.89999771118164 2.0352630615234375 1.000 1.000 1.000
v -19.0 63.89999771118164 256.03526306152344 1.000 1.000 1.000
v -11.0 78.89999771118164 256.03526306152344 1.000 1.000 1.000
v 19.0 41.89999771118164 256.03526306152344 1.000 1.000 1.000
v 18.0 41.89999771118164 2.0352630615234375 1.000 1.000 1.000
v 18.0 63.89999771118164 2.0352630615234375 1.000 1.000 1.000
v 19.0 63.89999771118164 256.03526306152344 1.000 1.000 1.000
v -19.0 63.89999771118164 2.0352630615234375 1.000 1.000 1.000
v -19.0 41.89999771118164 2.0352630615234375 1.000 1.000 1.000
v -19.0 41.89999771118164 256.03526306152344 1.000 1.000 1.000
v -19.0 63.89999771118164 256.03526306152344 1.000 1.000 1.000
v 11.0 78.89999771118164 17.035263061523438 1.000 1.000 1.000
v -11.0 78.89999771118164 17.035263061523438 1.000 1.000 1.000
v -11.0 78.89999771118164 256.03526306152344 1.000 1.000 1.000
v 11.0 78.89999771118164 256.03526306152344 1.000 1.000 1.000
v 11.0 63.89999771118164 -8.964736938476562 1.000 1.000 1.000
v -11.0 78.89999771118164 17.035263061523438 1.000 1.000 1.000
v 11.0 78.89999771118164 17.035263061523438 1.000 1.000 1.000
v -11.0 63.89999771118164 -8.964736938476562 1.000 1.000 1.000
v 15.0 41.89999771118164 -12.964736938476562 1.000 1.000 1.000
v -11.0 63.89999771118164 -8.964736938476562 1.000 1.000 1.000
v 11.0 63.89999771118164 -8.964736938476562 1.000 1.000 1.000
v -15.0 41.89999771118164 -12.964736938476562 1.000 1.000 1.000
v -11.0 63.89999771118164 -8.964736938476562 1.000 1.000 1.000
v -15.0 41.89999771118164 -12.964736938476562 1.000 1.000 1.000
v -19.0 41.89999771118164 2.0352630615234375 1.000 1.000 1.000
v -19.0 63.89999771118164 2.0352630615234375 1.000 1.000 1.000
v -11.0 78.89999771118164 17.035263061523438 1.000 1.000 1.000
v -11.0 63.89999771118164 -8.964736938476562 1.000 1.000 1.000
v -19.0 63.89999771118164 2.0352630615234375 1.000 1.000 1.000
v 18.0 41.89999771118164 2.0352630615234375 1.000 1.000 1.000
v 15.0 41.89999771118164 -12.964736938476562 1.000 1.000 1.000
v 11.0 63.89999771118164 -8.964736938476562 1.000 1.000 1.000
v 18.0 63.89999771118164 2.0352630615234375 1.000 1.000 1.000
v 18.0 41.89999771118164 2.0352630615234375 1.000 1.000 1.000
v 11.0 78.89999771118164 17.035263061523438 1.000 1.000 1.000
v 18.0 63.89999771118164 2.0352630615234375 1.000 1.000 1.000
v 11.0 63.89999771118164 -8.964736938476562 1.000 1.000 1.000
v 18.0 41.89999771118164 2.0352630615234375 1.000 1.000 1.000
v 19.0 41.89999771118164 256.03526306152344 1.000 1.000 1.000
v 15.0 41.89999771118164 256.03526306152344 1.000 1.000 1.000
v 15.0 41.89999771118164 -12.964736938476562 1.000 1.000 1.000
v -15.0 41.89999771118164 256.03526306152344 1.000 1.000 1.000
v -19.0 41.89999771118164 256.03526306152344 1.000 1.000 1.000
v -19.0 41.89999771118164 2.0352630615234375 1.000 1.000 1.000
v -15.0 41.89999771118164 -12.964736938476562 1.000 1.000 1.000
v 2.0 85.89999771118164 245.03526306152344 1.000 1.000 1.000
v -2.0 78.89999771118164 252.03526306152344 1.000 1.000 1.000
v 2.0 78.89999771118164 252.03526306152344 1.000 1.000 1.000
v -2.0 85.89999771118164 245.03526306152344 1.000 1.000 1.000
v 2.0 85.89999771118164 230.03526306152344 1.000 1.000 1.000
v -2.0 85.89999771118164 230.03526306152344 1.000 1.000 1.000
v 2.0 78.89999771118164 207.03526306152344 1.000 1.000 1.000
v -2.0 78.89999771118164 207.03526306152344 1.000 1.000 1.000
v 2.0 78.89999771118164 252.03526306152344 1.000 1.000 1.000
v 2.0 85.89999771118164 230.03526306152344 1.000 1.000 1.000
v 2.0 85.89999771118164 245.03526306152344 1.000 1.000 1.000
v 2.0 78.89999771118164 207.03526306152344 1.000 1.000 1.000
v -2.0 78.89999771118164 252.03526306152344 1.000 1.000 1.000
v -2.0 85.89999771118164 245.03526306152344 1.000 1.000 1.000
v -2.0 85.89999771118164 230.03526306152344 1.000 1.000 1.000
v -2.0 78.89999771118164 207.03526306152344 1.000 1.000 1.000
v 2.0 78.89999771118164 32.03526306152344 1.000 1.000 1.000
v 2.0 84.89999771118164 43.03526306152344 1.000 1.000 1.000
v 2.0 78.89999771118164 64.03526306152344 1.000 1.000 1.000
v -2.0 78.89999771118164 64.03526306152344 1.000 1.000 1.000
v -2.0 84.89999771118164 43.03526306152344 1.000 1.000 1.000
v -2.0 78.89999771118164 32.03526306152344 1.000 1.000 1.000
v 4.0 82.89999771118164 14.035263061523438 1.000 1.000 1.000
v -4.0 78.89999771118164 17.035263061523438 1.000 1.000 1.000
v 4.0 78.89999771118164 17.035263061523438 1.000 1.000 1.000
v -4.0 82.89999771118164 14.035263061523438 1.000 1.000 1.000
v 4.0 78.89999771118164 6.0352630615234375 1.000 1.000 1.000
v -4.0 78.89999771118164 6.0352630615234375 1.000 1.000 1.000
v 4.0 70.89999771118164 6.0352630615234375 1.000 1.000 1.000
v -4.0 70.89999771118164 6.0352630615234375 1.000 1.000 1.000
v 4.0 78.89999771118164 6.0352630615234375 1.000 1.000 1.000
v 4.0 82.89999771118164 14.035263061523438 1.000 1.000 1.000
v 4.0 78.89999771118164 17.035263061523438 1.000 1.000 1.000
v -4.0 78.89999771118164 17.035263061523438 1.000 1.000 1.000
v -4.0 82.89999771118164 14.035263061523438 1.000 1.000 1.000
v -4.0 78.89999771118164 6.0352630615234375 1.000 1.000 1.000
v -4.0 70.89999771118164 6.0352630615234375 1.000 1.000 1.000
v -3.0 1.0 58.0 1.000 1.000 1.000
v -3.0 1.0 103.0 1.000 1.000 1.000
v 3.0 1.0 58.0 1.000 1.000 1.000
v 3.0 1.0 103.0 1.000 1.000 1.000
v -6.0 27.0 114.0 1.000 1.000 1.000
v 6.0 27.0 114.0 1.000 1.000 1.000
v -6.0 27.0 122.0 1.000 1.000 1.000
v -3.0 -3.0 107.0 1.000 1.000 1.000
v 3.0 -3.0 107.0 1.000 1.000 1.000
v 6.0 27.0 122.0 1.000 1.000 1.000
v 3.0 -7.0 57.0 1.000 1.000 1.000
v -3.0 -7.0 57.0 1.000 1.000 1.000
v -3.0 1.0 103.0 1.000 1.000 1.000
v -3.0 1.0 58.0 1.000 1.000 1.000
v 6.0 27.0 122.0 1.000 1.000 1.000
v 3.0 -3.0 107.0 1.000 1.000 1.000
v 3.0 1.0 58.0 1.000 1.000 1.000
v 3.0 1.0 103.0 1.000 1.000 1.000
v 3.0 -7.0 57.0 1.000 1.000 1.000
v 3.0 -3.0 107.0 1.000 1.000 1.000
v -39.0 -46.0 40.0 1.000 1.000 1.000
v -35.0 -38.0 38.0 1.000 1.000 1.000
v -46.0 -45.0 25.0 1.000 1.000 1.000
v -42.0 -33.0 18.0 1.000 1.000 1.000
v -31.0 -32.0 35.0 1.000 1.000 1.000
v -29.0 -10.0 73.0 1.000 1.000 1.000
v -20.0 -13.0 71.0 1.000 1.000 1.000
v -32.0 -4.0 36.0 1.000 1.000 1.000
v -41.0 -11.0 37.0 1.000 1.000 1.000
v -32.0 -4.0 36.0 1.000 1.000 1.000
v -40.0 -1.0 18.0 1.000 1.000 1.000
v -36.0 -14.0 74.0 1.000 1.000 1.000
v -46.0 -19.0 38.0 1.000 1.000 1.000
v -48.0 -17.0 25.0 1.000 1.000 1.000
v -27.0 -11.0 35.0 1.000 1.000 1.000
v -17.0 -21.0 71.0 1.000 1.000 1.000
v -27.0 -11.0 35.0 1.000 1.000 1.000
v -17.0 -21.0 71.0 1.000 1.000 1.000
v -24.0 -18.0 35.0 1.000 1.000 1.000
v -39.0 -22.0 74.0 1.000 1.000 1.000
v -36.0 -14.0 74.0 1.000 1.000 1.000
v -46.0 -19.0 38.0 1.000 1.000 1.000
v -41.0 -11.0 37.0 1.000 1.000 1.000
v 15.0 -11.0 66.0 1.000 1.000 1.000
v 16.0 -13.0 60.0 1.000 1.000 1.000
v -23.0 -10.0 77.0 1.000 1.000 1.000
v -22.0 -13.0 69.0 1.000 1.000 1.000
v 17.0 -20.0 57.0 1.000 1.000 1.000
v 15.0 -14.0 72.0 1.000 1.000 1.000
v -24.0 -13.0 85.0 1.000 1.000 1.000
v -30.830215454101562 18.09086799621582 81.93716430664062 1.000 1.000 1.000
v 1.1697845458984375 18.09086799621582 91.93716430664062 1.000 1.000 1.000
v -26.830215454101562 21.09086799621582 74.93716430664062 1.000 1.000 1.000
v -1.8302154541015625 15.09086799621582 97.93716430664062 1.000 1.000 1.000
v -32.83021545410156 10.09086799621582 82.93716430664062 1.000 1.000 1.000
v -2.8302154541015625 9.09086799621582 98.93716430664062 1.000 1.000 1.000
v -31.830215454101562 2.0908679962158203 81.93716430664062 1.000 1.000 1.000
v -2.8302154541015625 2.0908679962158203 97.93716430664062 1.000 1.000 1.000
v -20.830215454101562 10.09086799621582 64.93716430664062 1.000 1.000 1.000
v 4.1697845458984375 2.0908679962158203 86.93716430664062 1.000 1.000 1.000
v -22.830215454101562 2.0908679962158203 67.93716430664062 1.000 1.000 1.000
v 5.1697845458984375 9.09086799621582 83.93716430664062 1.000 1.000 1.000
v -22.830215454101562 18.09086799621582 67.93716430664062 1.000 1.000 1.000
v 4.1697845458984375 15.09086799621582 86.93716430664062 1.000 1.000 1.000
v 7.1697845458984375 18.09086799621582 89.93716430664062 1.000 1.000 1.000
v 12.169784545898438 15.09086799621582 93.93716430664062 1.000 1.000 1.000
v 12.169784545898438 15.09086799621582 93.93716430664062 1.000 1.000 1.000
v -1.8302154541015625 15.09086799621582 97.93716430664062 1.000 1.000 1.000
v 12.169784545898438 8.09086799621582 93.93716430664062 1.000 1.000 1.000
v -2.8302154541015625 9.09086799621582 98.93716430664062 1.000 1.000 1.000
v 11.169784545898438 2.0908679962158203 93.93716430664062 1.000 1.000 1.000
v -2.8302154541015625 2.0908679962158203 97.93716430664062 1.000 1.000 1.000
v 0.1697845458984375 0.09086799621582031 91.93716430664062 1.000 1.000 1.000
v 6.1697845458984375 -0.9091320037841797 89.93716430664062 1.000 1.000 1.000
v 1.1697845458984375 18.09086799621582 91.93716430664062 1.000 1.000 1.000
v 7.1697845458984375 18.09086799621582 89.93716430664062 1.000 1.000 1.000
v 4.1697845458984375 15.09086799621582 86.93716430664062 1.000 1.000 1.000
v 21.169784545898438 17.09086799621582 71.93716430664062 1.000 1.000 1.000
v 7.1697845458984375 18.09086799621582 89.93716430664062 1.000 1.000 1.000
v 25.169784545898438 14.09086799621582 75.93716430664062 1.000 1.000 1.000
v 12.169784545898438 15.09086799621582 93.93716430664062 1.000 1.000 1.000
v 26.169784545898438 8.09086799621582 75.93716430664062 1.000 1.000 1.000
v 26.169784545898438 8.09086799621582 75.93716430664062 1.000 1.000 1.000
v 12.169784545898438 15.09086799621582 93.93716430664062 1.000 1.000 1.000
v 12.169784545898438 8.09086799621582 93.93716430664062 1.000 1.000 1.000
v 25.169784545898438 1.0908679962158203 74.93716430664062 1.000 1.000 1.000
v 11.169784545898438 2.0908679962158203 93.93716430664062 1.000 1.000 1.000
v 20.169784545898438 -0.9091320037841797 71.93716430664062 1.000 1.000 1.000
v 6.1697845458984375 -0.9091320037841797 89.93716430664062 1.000 1.000 1.000
v 18.169784545898438 2.0908679962158203 69.93716430664062 1.000 1.000 1.000
v 2.1697845458984375 2.0908679962158203 86.93716430664062 1.000 1.000 1.000
v 16.169784545898438 8.09086799621582 68.93716430664062 1.000 1.000 1.000
v 0.1697845458984375 9.09086799621582 84.93716430664062 1.000 1.000 1.000
v 18.169784545898438 15.09086799621582 69.93716430664062 1.000 1.000 1.000
v 2.1697845458984375 15.09086799621582 86.93716430664062 1.000 1.000 1.000
v 21.169784545898438 17.09086799621582 71.93716430664062 1.000 1.000 1.000
v 7.1697845458984375 18.09086799621582 89.93716430664062 1.000 1.000 1.000
v 25.169784545898438 14.09086799621582 75.93716430664062 1.000 1.000 1.000
v 28.169784545898438 3.0908679962158203 67.93716430664062 1.000 1.000 1.000
v 28.169784545898438 12.09086799621582 67.93716430664062 1.000 1.000 1.000
v 26.169784545898438 8.09086799621582 75.93716430664062 1.000 1.000 1.000
v 25.169784545898438 1.0908679962158203 74.93716430664062 1.000 1.000 1.000
v 21.169784545898438 17.09086799621582 71.93716430664062 1.000 1.000 1.000
v 18.169784545898438 15.09086799621582 69.93716430664062 1.000 1.000 1.000
v 20.169784545898438 -0.9091320037841797 71.93716430664062 1.000 1.000 1.000
v 18.169784545898438 2.0908679962158203 69.93716430664062 1.000 1.000 1.000
v 16.169784545898438 8.09086799621582 68.93716430664062 1.000 1.000 1.000
v 16.0 -62.0 46.0 1.000 1.000 1.000
v 10.0 27.0 47.0 1.000 1.000 1.000
v 11.0 27.0 62.0 1.000 1.000 1.000
v 14.0 -68.0 16.0 1.000 1.000 1.000
v 8.0 27.0 18.0 1.000 1.000 1.000
v 17.0 -74.0 46.0 1.000 1.000 1.000
v 7.0 27.0 2.0 1.000 1.000 1.000
v 10.0 12.0 17.0 1.000 1.000 1.000
v 10.0 -63.0 -13.0 1.000 1.000 1.000
v -11.0 27.0 62.0 1.000 1.000 1.000
v -10.0 27.0 47.0 1.000 1.000 1.000
v -16.0 -62.0 46.0 1.000 1.000 1.000
v -17.0 -74.0 46.0 1.000 1.000 1.000
v -8.0 27.0 18.0 1.000 1.000 1.000
v -14.0 -68.0 16.0 1.000 1.000 1.000
v -10.0 12.0 17.0 1.000 1.000 1.000
v -8.0 27.0 18.0 1.000 1.000 1.000
v -7.0 27.0 2.0 1.000 1.000 1.000
v -14.0 -68.0 16.0 1.000 1.000 1.000
v -10.0 -63.0 -13.0 1.000 1.000 1.000
v 16.0 -62.0 46.0 1.000 1.000 1.000
v 11.0 27.0 62.0 1.000 1.000 1.000
v -11.0 27.0 62.0 1.000 1.000 1.000
v -16.0 -62.0 46.0 1.000 1.000 1.000
v 10.0 12.0 17.0 1.000 1.000 1.000
v 10.0 -63.0 -13.0 1.000 1.000 1.000
v -10.0 -63.0 -13.0 1.000 1.000 1.000
v -10.0 12.0 17.0 1.000 1.000 1.000
v 7.0 27.0 2.0 1.000 1.000 1.000
v -7.0 27.0 2.0 1.000 1.000 1.000
v 17.0 -74.0 46.0 1.000 1.000 1.000
v 16.0 -62.0 46.0 1.000 1.000 1.000
v 8.0 -78.0 62.0 1.000 1.000 1.000
v 9.0 -80.0 39.0 1.000 1.000 1.000
v 10.0 -63.0 -13.0 1.000 1.000 1.000
v -8.0 -78.0 62.0 1.000 1.000 1.000
v -16.0 -62.0 46.0 1.000 1.000 1.000
v -17.0 -74.0 46.0 1.000 1.000 1.000
v -10.0 -63.0 -13.0 1.000 1.000 1.000
v -9.0 -80.0 39.0 1.000 1.000 1.000
v 8.0 -78.0 62.0 1.000 1.000 1.000
v -36.0 19.0 36.0 1.000 1.000 1.000
v -31.0 21.0 69.0 1.000 1.000 1.000
v -28.0 22.0 36.0 1.000 1.000 1.000
v -39.0 18.0 68.0 1.000 1.000 1.000
v -41.0 10.0 35.0 1.000 1.000 1.000
v -43.0 10.0 68.0 1.000 1.000 1.000
v -36.0 3.0 36.0 1.000 1.000 1.000
v -40.0 2.0 68.0 1.000 1.000 1.000
v -18.0 10.0 37.0 1.000 1.000 1.000
v -23.0 1.0 70.0 1.000 1.000 1.000
v -22.0 2.0 37.0 1.000 1.000 1.000
v -20.0 9.0 70.0 1.000 1.000 1.000
v -21.0 19.0 37.0 1.000 1.000 1.000
v -23.0 18.0 70.0 1.000 1.000 1.000
v -34.0 22.0 18.0 1.000 1.000 1.000
v -42.0 15.0 26.0 1.000 1.000 1.000
v -25.0 26.0 7.0 1.000 1.000 1.000
v -34.0 22.0 18.0 1.000 1.000 1.000
v -28.0 22.0 36.0 1.000 1.000 1.000
v -36.0 19.0 36.0 1.000 1.000 1.000
v -18.0 21.0 20.0 1.000 1.000 1.000
v -21.0 19.0 37.0 1.000 1.000 1.000
v -18.0 10.0 37.0 1.000 1.000 1.000
v 17.0 8.0 24.0 1.000 1.000 1.000
v -28.0 22.0 36.0 1.000 1.000 1.000
v -25.0 26.0 7.0 1.000 1.000 1.000
v -42.0 15.0 26.0 1.000 1.000 1.000
v -41.0 10.0 35.0 1.000 1.000 1.000
v -40.0 -1.0 18.0 1.000 1.000 1.000
v -36.0 3.0 36.0 1.000 1.000 1.000
v -32.0 -4.0 36.0 1.000 1.000 1.000
v -39.0 18.0 68.0 1.000 1.000 1.000
v -31.0 18.0 82.0 1.000 1.000 1.000
v -31.0 21.0 69.0 1.000 1.000 1.000
v -32.0 10.0 83.0 1.000 1.000 1.000
v -43.0 10.0 68.0 1.000 1.000 1.000
v -40.0 2.0 68.0 1.000 1.000 1.000
v -32.0 2.0 82.0 1.000 1.000 1.000
v -27.0 21.0 75.0 1.000 1.000 1.000
v -23.0 18.0 70.0 1.000 1.000 1.000
v 15.0 -11.0 66.0 1.000 1.000 1.000
v 20.0 -11.0 62.0 1.000 1.000 1.000
v 16.0 -13.0 60.0 1.000 1.000 1.000
v 27.0 -13.0 62.0 1.000 1.000 1.000
v 15.0 -14.0 72.0 1.000 1.000 1.000
v 19.0 -11.0 39.0 1.000 1.000 1.000
v 25.0 -14.0 39.0 1.000 1.000 1.000
v 26.0 -20.0 39.0 1.000 1.000 1.000
v 28.0 -20.0 62.0 1.000 1.000 1.000
v 25.0 -27.0 39.0 1.000 1.000 1.000
v 27.0 -26.0 63.0 1.000 1.000 1.000
v 19.0 -30.0 40.0 1.000 1.000 1.000
v 21.0 -29.0 62.0 1.000 1.000 1.000
v 16.0 -27.0 40.0 1.000 1.000 1.000
v 14.0 -27.0 62.0 1.000 1.000 1.000
v 13.0 -21.0 40.0 1.000 1.000 1.000
v 13.0 -21.0 40.0 1.000 1.000 1.000
v 14.0 -27.0 62.0 1.000 1.000 1.000
v 11.0 -18.0 61.0 1.000 1.000 1.000
v 15.0 -14.0 39.0 1.000 1.000 1.000
v 14.0 -14.0 61.0 1.000 1.000 1.000
v 19.0 -11.0 39.0 1.000 1.000 1.000
v 20.0 -11.0 62.0 1.000 1.000 1.000
v 25.0 -14.0 39.0 1.000 1.000 1.000
v 21.0 -25.0 32.0 1.000 1.000 1.000
v 21.0 -16.0 32.0 1.000 1.000 1.000
v 26.0 -20.0 39.0 1.000 1.000 1.000
v 25.0 -27.0 39.0 1.000 1.000 1.000
v 19.0 -30.0 40.0 1.000 1.000 1.000
v 16.0 -27.0 40.0 1.000 1.000 1.000
v 19.0 -30.0 64.0 1.000 1.000 1.000
v 21.0 -28.0 54.0 1.000 1.000 1.000
v 18.0 -28.0 58.0 1.000 1.000 1.000
v 27.0 -30.0 52.0 1.000 1.000 1.000
v 20.0 -36.0 66.0 1.000 1.000 1.000
v 28.0 -36.0 52.0 1.000 1.000 1.000
v 28.0 -43.0 52.0 1.000 1.000 1.000
v 20.0 -43.0 65.0 1.000 1.000 1.000
v 22.0 -46.0 53.0 1.000 1.000 1.000
v 20.0 -46.0 59.0 1.000 1.000 1.000
v 16.0 -31.0 55.0 1.000 1.000 1.000
v 17.0 -26.0 31.0 1.000 1.000 1.000
v 21.0 -28.0 54.0 1.000 1.000 1.000
v 23.0 -29.0 30.0 1.000 1.000 1.000
v 27.0 -30.0 52.0 1.000 1.000 1.000
v 24.0 -35.0 29.0 1.000 1.000 1.000
v 24.0 -35.0 29.0 1.000 1.000 1.000
v 27.0 -30.0 52.0 1.000 1.000 1.000
v 28.0 -36.0 52.0 1.000 1.000 1.000
v 24.0 -42.0 29.0 1.000 1.000 1.000
v 28.0 -43.0 52.0 1.000 1.000 1.000
v 18.0 -45.0 30.0 1.000 1.000 1.000
v 22.0 -46.0 53.0 1.000 1.000 1.000
v 22.0 -46.0 53.0 1.000 1.000 1.000
v 15.0 -42.0 31.0 1.000 1.000 1.000
v 16.0 -43.0 54.0 1.000 1.000 1.000
v 12.0 -36.0 32.0 1.000 1.000 1.000
v 14.0 -37.0 55.0 1.000 1.000 1.000
v 14.0 -29.0 32.0 1.000 1.000 1.000
v 16.0 -31.0 55.0 1.000 1.000 1.000
v 17.0 -26.0 31.0 1.000 1.000 1.000
v 21.0 -28.0 54.0 1.000 1.000 1.000
v 23.0 -29.0 30.0 1.000 1.000 1.000
v 20.0 -39.0 22.0 1.000 1.000 1.000
v 20.0 -30.0 23.0 1.000 1.000 1.000
v 24.0 -35.0 29.0 1.000 1.000 1.000
v 24.0 -42.0 29.0 1.000 1.000 1.000
v 17.0 -26.0 31.0 1.000 1.000 1.000
v 14.0 -29.0 32.0 1.000 1.000 1.000
v 18.0 -45.0 30.0 1.000 1.000 1.000
v 15.0 -42.0 31.0 1.000 1.000 1.000
v 12.0 -36.0 32.0 1.000 1.000 1.000
v 16.0 -50.0 62.0 1.000 1.000 1.000
v 20.0 -47.0 52.0 1.000 1.000 1.000
v 18.0 -47.0 56.0 1.000 1.000 1.000
v 26.0 -49.0 52.0 1.000 1.000 1.000
v 17.0 -55.0 63.0 1.000 1.000 1.000
v 28.0 -54.0 51.0 1.000 1.000 1.000
v 17.0 -61.0 62.0 1.000 1.000 1.000
v 28.0 -60.0 51.0 1.000 1.000 1.000
v 20.0 -64.0 57.0 1.000 1.000 1.000
v 21.0 -63.0 50.0 1.000 1.000 1.000
v 15.0 -50.0 53.0 1.000 1.000 1.000
v 16.0 -45.0 32.0 1.000 1.000 1.000
v 21.0 -47.0 30.0 1.000 1.000 1.000
v 22.0 -52.0 30.0 1.000 1.000 1.000
v 22.0 -58.0 29.0 1.000 1.000 1.000
v 17.0 -61.0 30.0 1.000 1.000 1.000
v 17.0 -61.0 30.0 1.000 1.000 1.000
v 21.0 -63.0 50.0 1.000 1.000 1.000
v 15.0 -59.0 31.0 1.000 1.000 1.000
v 16.0 -61.0 51.0 1.000 1.000 1.000
v 12.0 -54.0 32.0 1.000 1.000 1.000
v 13.0 -56.0 52.0 1.000 1.000 1.000
v 14.0 -48.0 32.0 1.000 1.000 1.000
v 15.0 -50.0 53.0 1.000 1.000 1.000
v 16.0 -45.0 32.0 1.000 1.000 1.000
v 20.0 -47.0 52.0 1.000 1.000 1.000
v 21.0 -47.0 30.0 1.000 1.000 1.000
v 19.0 -56.0 22.0 1.000 1.000 1.000
v 18.0 -48.0 23.0 1.000 1.000 1.000
v 22.0 -52.0 30.0 1.000 1.000 1.000
v 22.0 -58.0 29.0 1.000 1.000 1.000
v 21.0 -47.0 30.0 1.000 1.000 1.000
v 18.0 -48.0 23.0 1.000 1.000 1.000
v 16.0 -45.0 32.0 1.000 1.000 1.000
v 14.0 -48.0 32.0 1.000 1.000 1.000
v 16.0 -45.0 32.0 1.000 1.000 1.000
v 19.0 -56.0 22.0 1.000 1.000 1.000
v 22.0 -58.0 29.0 1.000 1.000 1.000
v 17.0 -61.0 30.0 1.000 1.000 1.000
v 15.0 -59.0 31.0 1.000 1.000 1.000
v 12.0 -54.0 32.0 1.000 1.000 1.000
v 19.0 -56.0 22.0 1.000 1.000 1.000
v 14.0 37.0 114.0 1.000 1.000 1.000
v 21.0 35.0 104.0 1.000 1.000 1.000
v 14.0 39.0 77.0 1.000 1.000 1.000
v 13.0 33.0 78.0 1.000 1.000 1.000
v 12.0 31.0 115.0 1.000 1.000 1.000
v -15.0 42.0 -13.0 1.000 1.000 1.000
v -11.0 27.0 2.0 1.000 1.000 1.000
v -11.0 27.0 256.0 1.000 1.000 1.000
v -15.0 42.0 256.0 1.000 1.000 1.000
v 11.0 27.0 2.0 1.000 1.000 1.000
v 15.0 42.0 -13.0 1.000 1.000 1.000
v 15.0 42.0 256.0 1.000 1.000 1.000
v 11.0 27.0 256.0 1.000 1.000 1.000
v -15.0 42.0 256.0 1.000 1.000 1.000
v 15.0 42.0 -13.0 1.000 1.000 1.000
v -15.0 42.0 -13.0 1.000 1.000 1.000
v 15.0 42.0 256.0 1.000 1.000 1.000
v -35.0 -33.0 -19.0 1.000 1.000 1.000
v -31.0 -37.0 -43.0 1.000 1.000 1.000
v -32.0 -57.0 -19.0 1.000 1.000 1.000
v -22.0 -78.0 -18.0 1.000 1.000 1.000
v -29.0 -74.0 -18.0 1.000 1.000 1.000
v -9.0 -68.0 -41.0 1.000 1.000 1.000
v -28.0 -55.0 -43.0 1.000 1.000 1.000
v -30.0 -19.0 -43.0 1.000 1.000 1.000
v -33.0 -1.0 -19.0 1.000 1.000 1.000
v -38.0 -1.0 -2.0 1.000 1.000 1.000
v -43.0 -17.0 -2.0 1.000 1.000 1.000
v -37.0 15.0 -2.0 1.000 1.000 1.000
v -40.0 -1.0 18.0 1.000 1.000 1.000
v -48.0 -17.0 25.0 1.000 1.000 1.000
v -42.0 -33.0 18.0 1.000 1.000 1.000
v -40.0 -33.0 -2.0 1.000 1.000 1.000
v -46.0 -45.0 25.0 1.000 1.000 1.000
v -42.0 -33.0 18.0 1.000 1.000 1.000
v -40.0 -33.0 -2.0 1.000 1.000 1.000
v -41.0 -45.0 -2.0 1.000 1.000 1.000
v -38.0 -57.0 10.0 1.000 1.000 1.000
v -37.0 -57.0 -2.0 1.000 1.000 1.000
v -42.0 -69.0 14.0 1.000 1.000 1.000
v -38.0 -69.0 -2.0 1.000 1.000 1.000
v -36.0 -78.0 10.0 1.000 1.000 1.000
v -34.0 -78.0 -2.0 1.000 1.000 1.000
v -27.0 -82.0 7.0 1.000 1.000 1.000
v -27.0 -82.0 -1.0 1.000 1.000 1.000
v -22.0 -78.0 -18.0 1.000 1.000 1.000
v -29.0 -74.0 -18.0 1.000 1.000 1.000
v -32.0 -57.0 -19.0 1.000 1.000 1.000
v -35.0 -33.0 -19.0 1.000 1.000 1.000
v -35.0 -33.0 -19.0 1.000 1.000 1.000
v -40.0 -33.0 -2.0 1.000 1.000 1.000
v -43.0 -17.0 -2.0 1.000 1.000 1.000
v -33.0 -1.0 -19.0 1.000 1.000 1.000
v -38.0 -1.0 -2.0 1.000 1.000 1.000
v -37.0 15.0 -2.0 1.000 1.000 1.000
v -42.0 -69.0 14.0 1.000 1.000 1.000
v -35.0 -69.0 26.0 1.000 1.000 1.000
v -31.0 -63.0 24.0 1.000 1.000 1.000
v -38.0 -57.0 10.0 1.000 1.000 1.000
v -25.0 -59.0 21.0 1.000 1.000 1.000
v -40.0 -1.0 18.0 1.000 1.000 1.000
v -42.0 15.0 26.0 1.000 1.000 1.000
v -33.0 22.0 -1.0 1.000 1.000 1.000
v -34.0 22.0 18.0 1.000 1.000 1.000
v 4.0 -51.0 -15.0 1.000 1.000 1.000
v -1.0 -67.0 -16.0 1.000 1.000 1.000
v 23.0 -45.0 -37.0 1.000 1.000 1.000
v 12.0 -63.0 -40.0 1.000 1.000 1.000
v -13.0 -75.0 -17.0 1.000 1.000 1.000
v -1.0 -68.0 -40.0 1.000 1.000 1.000
v -22.0 -78.0 -18.0 1.000 1.000 1.000
v -9.0 -68.0 -41.0 1.000 1.000 1.000
v -3.0 -39.0 -19.0 1.000 1.000 1.000
v -17.0 -47.0 0.0 1.000 1.000 1.000
v -16.0 -31.0 0.0 1.000 1.000 1.000
v -11.0 -28.0 2.0 1.000 1.000 1.000
v -27.0 -82.0 7.0 1.000 1.000 1.000
v -27.0 -82.0 -1.0 1.000 1.000 1.000
v -19.0 -79.0 0.0 1.000 1.000 1.000
v -20.0 -79.0 12.0 1.000 1.000 1.000
v -19.0 -79.0 0.0 1.000 1.000 1.000
v -14.0 -71.0 0.0 1.000 1.000 1.000
v -20.0 -79.0 12.0 1.000 1.000 1.000
v -16.0 -71.0 16.0 1.000 1.000 1.000
v -13.0 -59.0 0.0 1.000 1.000 1.000
v -18.0 -59.0 12.0 1.000 1.000 1.000
v -17.0 -47.0 0.0 1.000 1.000 1.000
v -19.0 -43.0 28.0 1.000 1.000 1.000
v -16.0 -31.0 0.0 1.000 1.000 1.000
v -25.0 -30.0 19.0 1.000 1.000 1.000
v -21.0 -19.0 28.0 1.000 1.000 1.000
v -11.0 -28.0 2.0 1.000 1.000 1.000
v -7.0 -11.0 5.0 1.000 1.000 1.000
v -20.0 -3.0 20.0 1.000 1.000 1.000
v -16.0 9.0 28.0 1.000 1.000 1.000
v -27.0 -82.0 -1.0 1.000 1.000 1.000
v -22.0 -78.0 -18.0 1.000 1.000 1.000
v -13.0 -75.0 -17.0 1.000 1.000 1.000
v -19.0 -79.0 0.0 1.000 1.000 1.000
v -1.0 -67.0 -16.0 1.000 1.000 1.000
v -14.0 -71.0 0.0 1.000 1.000 1.000
v -13.0 -59.0 0.0 1.000 1.000 1.000
v 4.0 -51.0 -15.0 1.000 1.000 1.000
v -17.0 -47.0 0.0 1.000 1.000 1.000
v -20.0 22.0 -17.0 1.000 1.000 1.000
v -28.0 18.0 -18.0 1.000 1.000 1.000
v -33.0 22.0 -1.0 1.000 1.000 1.000
v -24.0 26.0 -1.0 1.000 1.000 1.000
v -33.0 -1.0 -19.0 1.000 1.000 1.000
v -37.0 15.0 -2.0 1.000 1.000 1.000
v -34.0 22.0 18.0 1.000 1.000 1.000
v -25.0 26.0 7.0 1.000 1.000 1.000
v -26.0 -1.0 -43.0 1.000 1.000 1.000
v -30.0 -19.0 -43.0 1.000 1.000 1.000
v -12.0 9.0 -40.0 1.000 1.000 1.000
v -21.0 10.0 -41.0 1.000 1.000 1.000
v -8.0 5.0 -65.0 1.000 1.000 1.000
v -21.0 -5.0 -66.0 1.000 1.000 1.000
v -26.0 -27.0 -67.0 1.000 1.000 1.000
v -31.0 -37.0 -43.0 1.000 1.000 1.000
v -31.0 -37.0 -43.0 1.000 1.000 1.000
v -26.0 -27.0 -67.0 1.000 1.000 1.000
v -21.0 -50.0 -66.0 1.000 1.000 1.000
v -28.0 -55.0 -43.0 1.000 1.000 1.000
v -9.0 -68.0 -41.0 1.000 1.000 1.000
v -21.0 10.0 -41.0 1.000 1.000 1.000
v -12.0 9.0 -40.0 1.000 1.000 1.000
v -8.0 5.0 -65.0 1.000 1.000 1.000
v 1.0 23.0 5.0 1.000 1.000 1.000
v -18.0 21.0 20.0 1.000 1.000 1.000
v 13.0 14.0 21.0 1.000 1.000 1.000
v 17.0 8.0 24.0 1.000 1.000 1.000
v 13.0 14.0 21.0 1.000 1.000 1.000
v -18.0 21.0 20.0 1.000 1.000 1.000
v -25.0 26.0 7.0 1.000 1.000 1.000
v -20.0 22.0 -17.0 1.000 1.000 1.000
v -24.0 26.0 -1.0 1.000 1.000 1.000
v 1.0 23.0 5.0 1.000 1.000 1.000
v -25.0 26.0 7.0 1.000 1.000 1.000
v 14.0 31.0 17.0 1.000 1.000 1.000
v 13.0 28.0 -4.0 1.000 1.000 1.000
v 13.0 14.0 21.0 1.000 1.000 1.000
v -8.0 18.0 -18.0 1.000 1.000 1.000
v 4.0 22.0 -23.0 1.000 1.000 1.000
v 23.0 23.0 -9.0 1.000 1.000 1.000
v -12.0 9.0 -40.0 1.000 1.000 1.000
v 0.0 8.0 -40.0 1.000 1.000 1.000
v 11.0 3.0 -39.0 1.000 1.000 1.000
v 5.0 -5.0 -64.0 1.000 1.000 1.000
v -12.0 9.0 -40.0 1.000 1.000 1.000
v -8.0 5.0 -65.0 1.000 1.000 1.000
v 21.0 -20.0 -179.0 1.000 1.000 1.000
v 14.0 -27.0 -72.0 1.000 1.000 1.000
v 28.0 -52.0 -179.0 1.000 1.000 1.000
v 5.0 -5.0 -64.0 1.000 1.000 1.000
v 21.0 -83.0 -179.0 1.000 1.000 1.000
v -8.0 -59.0 -65.0 1.000 1.000 1.000
v 2.0 -95.0 -181.0 1.000 1.000 1.000
v 5.0 -50.0 -64.0 1.000 1.000 1.000
v 35.0 9.0 13.0 1.000 1.000 1.000
v 25.0 -5.0 -3.0 1.000 1.000 1.000
v 36.0 11.0 1.0 1.000 1.000 1.000
v 25.0 7.0 17.0 1.000 1.000 1.000
v -7.0 -11.0 5.0 1.000 1.000 1.000
v 17.0 8.0 24.0 1.000 1.000 1.000
v -18.0 21.0 20.0 1.000 1.000 1.000
v 27.0 -3.0 -28.0 1.000 1.000 1.000
v 4.0 22.0 -23.0 1.000 1.000 1.000
v 23.0 23.0 -9.0 1.000 1.000 1.000
v 36.0 11.0 1.0 1.000 1.000 1.000
v 25.0 -5.0 -3.0 1.000 1.000 1.000
v -3.0 -39.0 -19.0 1.000 1.000 1.000
v -7.0 -11.0 5.0 1.000 1.000 1.000
v -11.0 -28.0 2.0 1.000 1.000 1.000
v 23.0 -45.0 -37.0 1.000 1.000 1.000
v 4.0 -51.0 -15.0 1.000 1.000 1.000
v 25.0 -23.0 -40.0 1.000 1.000 1.000
v 18.0 -1.0 -34.0 1.000 1.000 1.000
v 11.0 3.0 -39.0 1.000 1.000 1.000
v 12.0 -63.0 -40.0 1.000 1.000 1.000
v -1.0 -68.0 -40.0 1.000 1.000 1.000
v -8.0 -59.0 -65.0 1.000 1.000 1.000
v 12.0 -63.0 -40.0 1.000 1.000 1.000
v -8.0 -59.0 -65.0 1.000 1.000 1.000
v 5.0 -50.0 -64.0 1.000 1.000 1.000
v 23.0 -45.0 -37.0 1.000 1.000 1.000
v 14.0 -27.0 -72.0 1.000 1.000 1.000
v 25.0 -23.0 -40.0 1.000 1.000 1.000
v 5.0 -5.0 -64.0 1.000 1.000 1.000
v 11.0 3.0 -39.0 1.000 1.000 1.000
v -21.0 -50.0 -66.0 1.000 1.000 1.000
v -8.0 -59.0 -65.0 1.000 1.000 1.000
v -1.0 -68.0 -40.0 1.000 1.000 1.000
v -9.0 -68.0 -41.0 1.000 1.000 1.000
v 2.0 -17.0 -181.0 1.000 1.000 1.000
v 5.0 -5.0 -64.0 1.000 1.000 1.000
v 21.0 -20.0 -179.0 1.000 1.000 1.000
v -8.0 5.0 -65.0 1.000 1.000 1.000
v -16.0 -20.0 -182.0 1.000 1.000 1.000
v -8.0 5.0 -65.0 1.000 1.000 1.000
v 2.0 -17.0 -181.0 1.000 1.000 1.000
v -21.0 -5.0 -66.0 1.000 1.000 1.000
v -34.0 -52.0 -183.0 1.000 1.000 1.000
v -26.0 -27.0 -67.0 1.000 1.000 1.000
v -16.0 -83.0 -182.0 1.000 1.000 1.000
v -21.0 -50.0 -66.0 1.000 1.000 1.000
v 2.0 -95.0 -181.0 1.000 1.000 1.000
v -8.0 -59.0 -65.0 1.000 1.000 1.000
v 32.0 29.0 67.0 1.000 1.000 1.000
v 19.0 28.0 69.0 1.000 1.000 1.000
v 28.0 25.0 70.0 1.000 1.000 1.000
v 26.0 31.0 67.0 1.000 1.000 1.000
v 21.0 33.0 67.0 1.000 1.000 1.000
v 32.0 23.0 65.0 1.000 1.000 1.000
v 29.0 21.0 64.0 1.000 1.000 1.000
v 17.0 28.0 64.0 1.000 1.000 1.000
v 15.0 24.0 59.0 1.000 1.000 1.000
v 23.0 20.0 59.0 1.000 1.000 1.000
v 35.0 27.0 41.0 1.000 1.000 1.000
v 35.0 35.0 43.0 1.000 1.000 1.000
v 30.0 38.0 43.0 1.000 1.000 1.000
v 22.0 40.0 42.0 1.000 1.000 1.000
v 18.0 34.0 38.0 1.000 1.000 1.000
v 15.0 27.0 41.0 1.000 1.000 1.000
v 23.0 20.0 59.0 1.000 1.000 1.000
v 15.0 27.0 41.0 1.000 1.000 1.000
v 25.0 17.0 44.0 1.000 1.000 1.000
v 29.0 21.0 64.0 1.000 1.000 1.000
v 31.0 22.0 39.0 1.000 1.000 1.000
v 32.0 23.0 65.0 1.000 1.000 1.000
v 35.0 27.0 41.0 1.000 1.000 1.000
v 24.0 35.0 31.0 1.000 1.000 1.000
v 21.0 35.0 8.0 1.000 1.000 1.000
v 16.0 32.0 32.0 1.000 1.000 1.000
v 14.0 31.0 17.0 1.000 1.000 1.000
v 15.0 25.0 36.0 1.000 1.000 1.000
v 13.0 14.0 21.0 1.000 1.000 1.000
v 21.0 18.0 36.0 1.000 1.000 1.000
v 17.0 8.0 24.0 1.000 1.000 1.000
v 31.0 33.0 31.0 1.000 1.000 1.000
v 32.0 31.0 8.0 1.000 1.000 1.000
v 24.0 35.0 31.0 1.000 1.000 1.000
v 21.0 35.0 8.0 1.000 1.000 1.000
v 30.0 38.0 43.0 1.000 1.000 1.000
v 35.0 35.0 43.0 1.000 1.000 1.000
v 22.0 40.0 42.0 1.000 1.000 1.000
v 18.0 34.0 38.0 1.000 1.000 1.000
v 15.0 27.0 41.0 1.000 1.000 1.000
v 16.0 32.0 32.0 1.000 1.000 1.000
v 25.0 17.0 44.0 1.000 1.000 1.000
v 15.0 25.0 36.0 1.000 1.000 1.000
v 21.0 18.0 36.0 1.000 1.000 1.000
v 23.0 23.0 -9.0 1.000 1.000 1.000
v 13.0 28.0 -4.0 1.000 1.000 1.000
v 14.0 31.0 17.0 1.000 1.000 1.000
v 21.0 18.0 36.0 1.000 1.000 1.000
v 17.0 8.0 24.0 1.000 1.000 1.000
v 28.0 16.0 36.0 1.000 1.000 1.000
v 25.0 7.0 17.0 1.000 1.000 1.000
v 34.0 19.0 32.0 1.000 1.000 1.000
v 35.0 9.0 13.0 1.000 1.000 1.000
v 35.0 26.0 32.0 1.000 1.000 1.000
v 36.0 15.0 9.0 1.000 1.000 1.000
v 31.0 33.0 31.0 1.000 1.000 1.000
v 32.0 31.0 8.0 1.000 1.000 1.000
v 35.0 27.0 41.0 1.000 1.000 1.000
v 35.0 35.0 43.0 1.000 1.000 1.000
v 31.0 22.0 39.0 1.000 1.000 1.000
v 21.0 18.0 36.0 1.000 1.000 1.000
v 28.0 16.0 36.0 1.000 1.000 1.000
v 25.0 17.0 44.0 1.000 1.000 1.000
v 25.0 17.0 44.0 1.000 1.000 1.000
v 28.0 16.0 36.0 1.000 1.000 1.000
v 31.0 22.0 39.0 1.000 1.000 1.000
v 36.0 11.0 1.0 1.000 1.000 1.000
v 36.0 15.0 9.0 1.000 1.000 1.000
v 35.0 9.0 13.0 1.000 1.000 1.000
v 32.0 31.0 8.0 1.000 1.000 1.000
v 23.0 23.0 -9.0 1.000 1.000 1.000
vt 0.9688 1.0000
vt 0.9688 0.0312
vt 0.0000 0.0312
vt 0.0000 1.0000
vt 0.2500 0.8535
vt 0.1250 1.0000
vt 0.0088 0.8535
vt 0.2500 0.5000
vt 0.0117 0.5000
vt 0.2500 0.1465
vt 0.0088 0.1465
vt 0.1289 0.0000
vt 0.0000 0.0000
vt 0.0039 0.0000
vt 0.7500 0.1465
vt 1.0000 0.0000
vt 0.8750 0.0000
vt 0.9912 0.1465
vt 0.7500 0.5000
vt 0.9883 0.5000
vt 0.7500 0.8535
vt 0.9912 0.8535
vt 0.8711 1.0000
vt 1.0000 1.0000
vt 0.9961 1.0000
vt 0.6372 0.2202
vt 0.5781 0.2275
vt 0.4619 0.1484
vt 0.4434 0.2046
vt 0.6191 0.2764
vt 3.3984 0.6670
vt 3.2002 0.3037
vt 0.0000 0.2939
vt 0.0000 0.6670
vt 0.1670 0.5000
vt 0.0010 0.7744
vt 2.8330 0.7793
vt 2.8330 0.5000
vt 0.0020 0.8057
vt 4.2500 0.7998
vt 4.2500 0.5000
vt 0.0020 0.5059
vt 0.0010 0.0000
vt 0.0020 0.5000
vt 3.4004 0.5000
vt 3.4004 0.0000
vt 0.0000 0.8418
vt 1.5000 0.8418
vt 1.5000 0.0000
vt 0.0000 0.6719
vt 0.7500 0.0000
vt 0.7500 0.6719
vt 0.0127 0.9258
vt 0.3008 0.6758
vt 0.0537 0.6758
vt 0.3408 0.9268
vt 0.0430 0.0000
vt -0.0137 0.4990
vt 0.4766 0.5000
vt 0.5000 0.0000
vt 0.5996 0.4004
vt 0.1973 0.8027
vt 0.5176 0.7930
vt 0.5000 0.5000
vt -0.0166 0.5000
vt 0.0977 0.1191
vt 0.5205 0.1328
vt 0.5352 0.1641
vt 0.3330 0.5000
vt 0.0342 0.5000
vt 4.5020 0.8057
vt 0.4624 1.0488
vt 0.4639 0.1992
vt 0.4624 0.1489
vt 0.3525 0.0625
vt 0.4424 0.5000
vt 0.1729 0.0625
vt -0.0957 0.5000
vt -2.2051 0.5000
vt -2.0771 0.1250
vt -1.8203 0.5000
vt -2.4297 0.2812
vt -2.3848 0.5000
vt -2.5195 0.5000
vt -2.5195 0.9375
vt -7.2812 1.9688
vt -5.1875 1.9688
vt -4.6562 0.7500
vt -4.3125 0.7500
vt -5.0000 2.1562
vt -7.3438 2.3125
vt 0.7510 0.6826
vt 0.7363 0.6270
vt 0.6992 0.6836
vt 0.6650 0.5986
vt 0.7227 0.5791
vt 0.8428 0.3770
vt 0.8379 0.4014
vt 0.7119 0.3701
vt 0.7227 0.4229
vt 0.6475 0.3564
vt 0.8516 0.4043
vt 0.7314 0.4785
vt 0.6846 0.4707
vt 0.7100 0.4199
vt 0.8379 0.4619
vt 0.7109 0.4746
vt 0.8584 0.4658
vt 0.7686 0.4229
vt 0.7656 0.4561
vt 0.4941 0.4160
vt 0.4902 0.4561
vt 0.7568 0.5117
vt 0.7637 0.4336
vt 0.4873 0.4287
vt 0.4404 0.1611
vt 0.6367 0.1914
vt 0.4668 0.1406
vt 0.6162 0.2080
vt 0.4229 0.2197
vt 0.6025 0.2559
vt 0.4141 0.2812
vt 0.5957 0.3047
vt 0.4785 0.2314
vt 0.6289 0.3115
vt 0.4570 0.2891
vt 0.6465 0.2646
vt 0.4824 0.1689
vt 0.6494 0.2148
vt 0.6709 0.2002
vt 0.6963 0.2266
vt 0.6914 0.2754
vt 0.6758 0.3223
vt 0.6084 0.3281
vt 0.6426 0.3359
vt 0.1777 0.1758
vt 0.0215 0.1699
vt 0.1758 0.1934
vt 0.0205 0.1865
vt 0.1738 0.2529
vt 0.0195 0.2461
vt 0.1719 0.3154
vt 0.0156 0.3086
vt 0.1709 0.3496
vt 0.0156 0.3428
vt 0.1729 0.3281
vt 0.0166 0.3252
vt 0.1748 0.2705
vt 0.0195 0.2676
vt 0.1768 0.2061
vt 0.0215 0.2031
vt 0.2246 0.3027
vt 0.2275 0.2158
vt -0.3379 0.6553
vt 0.8535 0.6650
vt 0.8496 0.7754
vt -0.4199 0.4326
vt 0.8496 0.4434
vt -0.4932 0.6543
vt 0.8496 0.3311
vt 0.6504 0.4414
vt -0.3496 0.2197
vt 0.8506 0.6650
vt -1.1729 0.2451
vt 0.3125 0.3750
vt 0.3125 0.6250
vt -1.1729 0.7549
vt 0.0625 0.3857
vt -1.1875 0.3330
vt -1.1875 0.6670
vt 0.0625 0.6133
vt 0.3125 0.4170
vt 0.3125 0.5830
vt -7.8750 5.4375
vt -7.8438 4.9062
vt -7.0938 5.6562
vt -8.1875 5.7812
vt -10.5938 4.9375
vt 0.6992 0.2061
vt 0.8154 0.1602
vt 0.6973 0.1855
vt 0.8174 0.1836
vt 0.7031 0.2598
vt 0.8223 0.2441
vt 0.7070 0.3164
vt 0.8262 0.3066
vt 0.7031 0.2656
vt 0.8262 0.3105
vt 0.7070 0.3203
vt 0.8213 0.2500
vt 0.6992 0.2100
vt 0.8174 0.1885
vt 0.6348 0.1777
vt 0.6680 0.2305
vt 0.5898 0.1562
vt 0.6338 0.2012
vt 0.7617 0.2090
vt 0.7617 0.1846
vt 0.6494 0.1621
vt 0.3867 0.1523
vt 0.4395 0.1367
vt 0.3545 0.2080
vt 0.3613 0.2715
vt 0.4824 0.1709
vt 0.1465 0.4033
vt 0.1709 0.3975
vt 0.1826 0.4238
vt 0.1719 0.4121
vt 0.1133 0.4336
vt 0.2949 0.3896
vt 0.2959 0.4043
vt 0.2988 0.4639
vt 0.1758 0.4707
vt 0.3027 0.5254
vt 0.1777 0.5332
vt 0.3037 0.5605
vt 0.1797 0.5674
vt 0.3027 0.5400
vt 0.1787 0.5527
vt 0.2998 0.4844
vt 0.1758 0.4971
vt 0.2969 0.4199
vt 0.1729 0.4326
vt 0.3389 0.5117
vt 0.3340 0.4258
vt 0.7090 0.6445
vt 0.7402 0.6396
vt 0.7139 0.6357
vt 0.7812 0.6562
vt 0.7012 0.6855
vt 0.7812 0.6992
vt 0.7666 0.7422
vt 0.6943 0.7285
vt 0.7197 0.7598
vt 0.6924 0.7549
vt 0.6943 0.6572
vt 0.3389 0.5381
vt 0.1582 0.5898
vt 0.3408 0.5547
vt 0.1592 0.6074
vt 0.3428 0.6172
vt 0.1641 0.6689
vt 0.3457 0.6816
vt 0.1641 0.7334
vt 0.3467 0.7158
vt 0.1650 0.7686
vt 0.3447 0.6943
vt 0.1641 0.7510
vt 0.3428 0.6348
vt 0.1611 0.6914
vt 0.3398 0.5684
vt 0.1592 0.6250
vt 0.4053 0.6484
vt 0.4014 0.5586
vt 0.1699 0.8252
vt 0.2178 0.7725
vt 0.1992 0.7881
vt 0.2207 0.7871
vt 0.1680 0.8828
vt 0.2295 0.8379
vt 0.1777 0.9365
vt 0.2363 0.8936
vt 0.2100 0.9453
vt 0.2402 0.9229
vt 0.2217 0.8018
vt 0.3252 0.6982
vt 0.3271 0.7129
vt 0.3350 0.7646
vt 0.3438 0.8193
vt 0.3477 0.8486
vt 0.3447 0.8301
vt 0.2373 0.9082
vt 0.3369 0.7803
vt 0.2305 0.8574
vt 0.3281 0.7236
vt 0.3818 0.7783
vt 0.3701 0.7031
vt 0.3911 0.8657
vt 0.3628 0.7705
vt 0.4062 0.5200
vt 0.3408 0.5273
vt 0.3262 0.8735
vt 0.4126 0.1987
vt 0.4126 1.0488
vt 0.3770 0.6377
vt 0.2207 0.6875
vt 0.3896 0.8203
vt 0.4004 0.9766
vt 0.3984 0.9434
vt 0.2373 0.9209
vt 0.2305 0.8252
vt 0.2109 0.5518
vt 0.3594 0.3955
vt 0.5752 0.3662
vt 0.5840 0.4854
vt 0.5674 0.2461
vt 0.5928 0.6084
vt 0.5986 0.6992
vt 0.6484 0.7852
vt 0.6055 0.7910
vt 0.6699 0.8730
vt 0.6123 0.8818
vt 0.6592 0.9385
vt 0.6162 0.9443
vt 0.6475 0.9736
vt 0.6191 0.9775
vt 0.7109 0.8682
vt 0.6973 0.8184
vt 0.6846 0.7959
vt 0.5625 0.1875
vt 0.6895 0.6631
vt 0.6865 0.7471
vt 0.8896 0.6406
vt 0.8867 0.7344
vt 0.6855 0.7871
vt 0.8857 0.7637
vt 0.6846 0.8057
vt 0.8857 0.7607
vt 0.6934 0.5547
vt 0.4180 0.6240
vt 0.4209 0.5381
vt 0.4238 0.4756
vt 0.3750 0.8115
vt 0.4111 0.8135
vt 0.4121 0.7949
vt 0.3574 0.7920
vt 0.4141 0.7529
vt 0.3408 0.7500
vt 0.4160 0.6895
vt 0.3613 0.6855
vt 0.2920 0.5957
vt 0.3311 0.5312
vt 0.2969 0.4668
vt 0.4062 0.4326
vt 0.3359 0.3828
vt 0.3018 0.3184
vt 0.3477 0.2197
vt 0.3486 0.2471
vt 0.5605 0.1602
vt 0.2012 0.4170
vt 0.1953 0.3359
vt 0.1953 0.3320
vt 0.1123 0.3838
vt 0.1172 0.4541
vt 0.1289 0.6260
vt 0.1416 0.7969
vt 0.8193 0.3164
vt 0.9561 0.2334
vt 0.5811 0.2256
vt 0.4658 0.2803
vt 0.5098 0.2891
vt 0.8555 0.2588
vt 1.0225 0.3018
vt 0.8076 0.6719
vt 0.9990 0.3447
vt 0.6084 0.2471
vt 0.6836 0.3613
vt 0.6611 0.6670
vt 0.4990 0.6611
vt 0.4541 0.3516
vt 0.5488 0.9102
vt 0.4951 0.9092
vt 0.4404 0.9082
vt 0.5068 0.8848
vt 0.5488 0.9111
vt 0.7139 0.8633
vt 0.9844 0.3916
vt 0.8467 0.5195
vt 0.9863 0.5430
vt 0.8457 0.3984
vt 0.9873 0.6943
vt 0.8486 0.6914
vt 0.9883 0.7568
vt 0.8477 0.6406
vt 0.3525 0.3193
vt 0.4248 0.4268
vt 0.4414 0.3154
vt 0.3350 0.3340
vt 0.3311 0.3232
vt 0.3398 0.2549
vt 0.6973 0.4316
vt 0.7012 0.3193
vt 0.4570 0.2539
vt 0.8955 0.4805
vt 0.7988 0.3994
vt 0.8994 0.3818
vt 0.8779 0.7344
vt 0.8770 0.7637
vt 0.9873 0.7207
vt 0.9893 0.6709
vt 0.8809 0.6406
vt 0.9932 0.5498
vt 0.8867 0.4805
vt 0.9971 0.4287
vt 0.8896 0.3818
vt 0.4570 0.7080
vt 0.4648 0.7627
vt 0.5498 0.8008
vt 0.5469 0.7979
vt 0.0527 0.3857
vt 0.4473 0.4375
vt 0.0625 0.4619
vt 0.4395 0.3828
vt 0.0537 0.4639
vt 0.4395 0.4395
vt 0.0635 0.6484
vt 0.4473 0.5732
vt 0.0771 0.8330
vt 0.0869 0.9092
vt 0.9482 0.1426
vt 0.8965 0.2480
vt 0.9688 0.1953
vt 0.8984 0.1787
vt 0.8467 0.2168
vt 0.9609 0.1338
vt 0.9355 0.1523
vt 0.8174 0.2383
vt 0.8340 0.2266
vt 0.8818 0.1914
vt 0.8496 0.0137
vt 0.8369 0.0225
vt 0.7891 0.0605
vt 0.7354 0.0967
vt 0.7061 0.1182
vt 0.7188 0.1094
vt 0.8008 0.1025
vt 0.8203 0.0352
vt 0.5518 0.1680
vt 0.5205 0.2949
vt 0.6104 0.1523
vt 0.6113 0.1318
vt 0.5557 0.1182
vt 0.4707 0.1689
vt 0.4209 0.2969
vt 0.5322 0.0918
vt 0.5967 0.0967
vt 0.6201 0.1084
vt 0.5889 0.1201
vt 0.5254 0.1016
vt 0.2617 0.2529
vt 0.2646 0.2627
vt 0.2812 0.2500
vt 0.3008 0.2217
vt 0.3750 0.2881
vt 0.3125 0.1953
vt 0.4141 0.2422
vt 0.2598 0.2139
vt 0.2529 0.1816
vt 0.2666 0.2363
vt 0.3574 0.2705
vt 0.3594 0.2793
vt 0.3467 0.2656
vt 0.2500 0.2480
vn 0.000 0.000 -1.000
vn 0.000 0.000 -1.000
vn 0.000 0.000 -1.000
vn 0.000 0.000 -1.000
vn 0.000 0.000 -1.000
vn 0.000 0.000 -1.000
vn 0.000 0.000 -1.000
vn 0.000 0.000 -1.000
vn 0.000 0.000 -1.000
vn 0.000 0.000 -1.000
vn 0.000 0.000 -1.000
vn 0.000 0.000 -1.000
vn 0.000 0.000 -1.000
vn 0.000 0.000 -1.000
vn 0.000 0.000 -1.000
vn 0.000 0.000 -1.000
vn 0.000 0.000 -1.000
vn 0.000 0.000 -1.000
vn 0.000 0.000 -1.000
vn 0.000 0.000 -1.000
vn 0.000 0.000 -1.000
vn 0.000 0.000 -1.000
vn 0.000 0.000 -1.000
vn 0.000 0.000 -1.000
vn 0.000 0.000 -1.000
vn 0.000 0.000 -1.000
vn 0.000 0.000 -1.000
vn 0.000 0.000 -1.000
vn 0.000 0.000 -1.000
vn 0.000 0.000 -1.000
vn 0.000 0.000 -1.000
vn 0.000 0.000 -1.000
vn -0.577 -0.577 -0.577
vn -0.577 -0.577 -0.577
vn -0.577 -0.577 -0.577
vn -0.577 -0.577 -0.577
vn -0.577 -0.577 -0.577
vn -0.577 -0.577 -0.577
vn -0.577 -0.577 -0.577
vn -0.577 -0.577 -0.577
vn -0.577 -0.577 -0.577
vn -0.577 -0.577 -0.577
vn -0.577 -0.577 -0.577
vn -0.577 -0.577 -0.577
vn -0.577 -0.577 -0.577
vn -0.577 -0.577 -0.577
vn -0.577 -0.577 -0.577
vn -0.577 -0.577 -0.577
vn -0.577 -0.577 -0.577
vn -0.577 -0.577 -0.577
vn -0.577 -0.577 -0.577
vn -0.577 -0.577 -0.577
vn -0.577 -0.577 -0.577
vn -0.577 -0.577 -0.577
vn -0.577 -0.577 -0.577
vn -0.577 -0.577 -0.577
vn 0.577 0.577 0.577
vn 0.577 0.577 0.577
vn 0.577 0.577 0.577
vn 0.577 0.577 0.577
vn 0.577 0.577 0.577
vn -0.577 -0.577 -0.577
vn -0.577 -0.577 -0.577
vn -0.577 -0.577 -0.577
vn -0.577 -0.577 -0.577
vn -0.577 -0.577 -0.577
vn 0.577 0.577 0.577
vn 0.577 0.577 0.577
vn -0.577 -0.577 -0.577
vn -0.577 -0.577 -0.577
vn 0.577 0.577 0.577
vn -0.577 -0.577 -0.577
vn -0.577 -0.577 -0.577
vn 0.577 0.577 0.577
vn 0.577 0.577 0.577
vn 0.577 0.577 0.577
vn 0.577 0.577 0.577
vn -0.577 -0.577 -0.577
vn -0.577 -0.577 -0.577
vn -0.577 -0.577 -0.577
vn -0.577 -0.577 -0.577
vn -0.577 -0.577 -0.577
vn -0.577 -0.577 -0.577
vn -0.577 -0.577 -0.577
vn -0.577 -0.577 -0.577
vn -0.631 -0.584 -0.510
vn -0.577 -0.577 -0.577
vn -0.577 -0.577 -0.577
vn 0.577 0.577 0.577
vn -0.577 -0.577 -0.577
vn 0.577 0.577 0.577
vn 0.577 0.577 0.577
vn 0.577 0.577 0.577
vn -0.577 -0.577 -0.577
vn -0.577 -0.577 -0.577
vn 0.577 0.577 0.577
vn -0.577 -0.577 -0.577
vn -0.631 -0.584 -0.510
vn -0.577 -0.577 -0.577
vn -0.577 -0.577 -0.577
vn 0.577 0.577 0.577
vn -0.577 -0.577 -0.577
vn -0.577 -0.577 -0.577
vn -0.577 -0.577 -0.577
vn 0.577 0.577 0.577
vn 0.577 0.577 0.577
vn 0.577 0.577 0.577
vn 0.577 0.577 0.577
vn 0.577 0.577 0.577
vn 0.577 0.577 0.577
vn 0.577 0.577 0.577
vn 0.577 0.577 0.577
vn -0.577 -0.577 -0.577
vn -0.577 -0.577 -0.577
vn -0.577 -0.577 -0.577
vn -0.577 -0.577 -0.577
vn -0.577 -0.577 -0.577
vn -0.577 -0.577 -0.577
vn -0.577 -0.577 -0.577
vn -0.577 -0.577 -0.577
vn 0.577 0.577 0.577
vn 0.577 0.577 0.577
vn 0.577 0.577 0.577
vn 0.577 0.577 0.577
vn 0.577 0.577 0.577
vn 0.577 0.577 0.577
vn 0.577 0.577 0.577
vn 0.577 0.577 0.577
vn 0.577 0.577 0.577
vn 0.577 0.577 0.577
vn 0.577 0.577 0.577
vn 0.577 0.577 0.577
vn 0.577 0.577 0.577
vn 0.577 0.577 0.577
vn -0.577 -0.577 -0.577
vn -0.577 -0.577 -0.577
vn -0.577 -0.577 -0.577
vn -0.577 -0.577 -0.577
vn 0.577 0.577 0.577
vn 0.577 0.577 0.577
vn 0.577 0.577 0.577
vn 0.577 0.577 0.577
vn 0.577 0.577 0.577
vn 0.577 0.577 0.577
vn 0.577 0.577 0.577
vn 0.577 0.577 0.577
vn 0.577 0.577 0.577
vn 0.577 0.577 0.577
vn 0.577 0.577 0.577
vn -0.577 -0.577 -0.577
vn -0.577 -0.577 -0.577
vn -0.577 -0.577 -0.577
vn -0.577 -0.577 -0.577
vn -0.577 -0.577 -0.577
vn -0.577 -0.577 -0.577
vn -0.577 -0.577 -0.577
vn -0.577 -0.577 -0.577
vn -0.577 -0.577 -0.577
vn -0.577 -0.577 -0.577
vn -0.577 -0.577 -0.577
vn -0.577 -0.577 -0.577
vn -0.577 -0.577 -0.577
vn -0.577 -0.577 -0.577
vn -0.577 -0.577 -0.577
vn -0.577 -0.577 -0.577
vn -0.577 -0.577 -0.577
vn -0.577 -0.577 -0.577
vn -0.577 -0.577 -0.577
vn -0.577 -0.577 -0.577
vn -0.577 -0.577 -0.577
vn -0.577 -0.577 -0.577
vn -0.577 -0.577 -0.577
vn -0.577 -0.577 -0.577
vn -0.577 -0.577 -0.577
vn -0.577 -0.577 -0.577
vn -0.577 -0.577 -0.577
vn -0.577 -0.577 -0.577
vn -0.577 -0.577 -0.577
vn -0.577 -0.577 -0.577
vn -0.577 -0.577 -0.577
vn -0.577 -0.577 -0.577
vn -0.577 -0.577 -0.577
vn -0.577 -0.577 -0.577
vn -0.577 -0.577 -0.577
vn -0.577 -0.577 -0.577
vn -0.577 -0.577 -0.577
vn -0.577 -0.577 -0.577
vn -0.577 -0.577 -0.577
vn -0.577 -0.577 -0.577
vn -0.577 -0.577 -0.577
vn -0.577 -0.577 -0.577
vn -0.577 -0.577 -0.577
vn -0.577 -0.577 -0.577
vn -0.577 -0.577 -0.577
vn -0.577 -0.577 -0.577
vn -0.577 -0.577 -0.577
vn -0.577 -0.577 -0.577
vn -0.577 -0.577 -0.577
vn -0.577 -0.577 -0.577
vn -0.577 -0.577 -0.577
vn -0.577 -0.577 -0.577
vn -0.577 -0.577 -0.577
vn -0.577 -0.577 -0.577
vn -0.577 -0.577 -0.577
vn -0.577 -0.577 -0.577
vn -0.577 -0.577 -0.577
vn -0.577 -0.577 -0.577
vn -0.577 -0.577 -0.577
vn -0.577 -0.577 -0.577
vn -0.577 -0.577 -0.577
vn -0.577 -0.577 -0.577
vn -0.577 -0.577 -0.577
vn -0.577 -0.577 -0.577
vn -0.577 -0.577 -0.577
vn -0.577 -0.577 -0.577
vn -0.577 -0.577 -0.577
vn -0.577 -0.577 -0.577
vn -0.577 -0.577 -0.577
vn -0.577 -0.577 -0.577
vn -0.577 -0.577 -0.577
vn -0.577 -0.577 -0.577
vn -0.577 -0.577 -0.577
vn -0.577 -0.577 -0.577
vn -0.577 -0.577 -0.577
vn -0.577 -0.577 -0.577
vn -0.577 -0.577 -0.577
vn -0.577 -0.577 -0.577
vn -0.577 -0.577 -0.577
vn -0.577 -0.577 -0.577
vn -0.577 -0.577 -0.577
vn -0.577 -0.577 -0.577
vn -0.577 -0.577 -0.577
vn -0.577 -0.577 -0.577
vn -0.577 -0.577 -0.577
vn -0.577 -0.577 -0.577
vn -0.577 -0.577 -0.577
vn -0.577 -0.577 -0.577
vn -0.577 -0.577 -0.577
vn -0.577 -0.577 -0.577
vn -0.577 -0.577 -0.577
vn -0.577 -0.577 -0.577
vn -0.577 -0.577 -0.577
vn -0.577 -0.577 -0.577
vn -0.577 -0.577 -0.577
vn -0.577 -0.577 -0.577
vn -0.577 -0.577 -0.577
vn -0.577 -0.577 -0.577
vn -0.577 -0.577 -0.577
vn -0.577 -0.577 -0.577
vn -0.577 -0.577 -0.577
vn -0.577 -0.577 -0.577
vn -0.577 -0.577 -0.577
vn -0.577 -0.577 -0.577
vn -0.577 -0.577 -0.577
vn -0.577 -0.577 -0.577
vn -0.577 -0.577 -0.577
vn 0.577 0.577 0.577
vn 0.577 0.577 0.577
vn 0.577 0.577 0.577
vn 0.577 0.577 0.577
vn 0.577 0.577 0.577
vn 0.577 0.577 0.577
vn 0.577 0.577 0.577
vn 0.577 0.577 0.577
vn 0.577 0.577 0.577
vn 0.577 0.577 0.577
vn 0.577 0.577 0.577
vn 0.577 0.577 0.577
vn 0.577 0.577 0.577
vn 0.577 0.577 0.577
vn 0.577 0.577 0.577
vn 0.577 0.577 0.577
vn 0.577 0.577 0.577
vn 0.577 0.577 0.577
vn 0.577 0.577 0.577
vn 0.577 0.577 0.577
vn 0.577 0.577 0.577
vn 0.577 0.577 0.577
vn 0.577 0.577 0.577
vn 0.577 0.577 0.577
vn 0.577 0.577 0.577
vn 0.577 0.577 0.577
vn 0.577 0.577 0.577
vn 0.577 0.577 0.577
vn 0.577 0.577 0.577
vn 0.577 0.577 0.577
vn -0.577 -0.577 -0.577
vn -0.577 -0.577 -0.577
vn -0.577 -0.577 -0.577
vn -0.577 -0.577 -0.577
vn -0.577 -0.577 -0.577
vn -0.577 -0.577 -0.577
vn -0.577 -0.577 -0.577
vn -0.577 -0.577 -0.577
vn -0.577 -0.577 -0.577
vn -0.577 -0.577 -0.577
vn -0.577 -0.577 -0.577
vn -0.577 -0.577 -0.577
vn -0.577 -0.577 -0.577
vn -0.577 -0.577 -0.577
vn -0.577 -0.577 -0.577
vn -0.577 -0.577 -0.577
vn -0.577 -0.577 -0.577
vn -0.577 -0.577 -0.577
vn -0.577 -0.577 -0.577
vn -0.577 -0.577 -0.577
vn -0.577 -0.577 -0.577
vn -0.577 -0.577 -0.577
vn -0.577 -0.577 -0.577
vn -0.577 -0.577 -0.577
vn -0.577 -0.577 -0.577
vn -0.577 -0.577 -0.577
vn -0.577 -0.577 -0.577
vn -0.577 -0.577 -0.577
vn -0.577 -0.577 -0.577
vn -0.577 -0.577 -0.577
vn -0.577 -0.577 -0.577
vn -0.577 -0.577 -0.577
vn -0.577 -0.577 -0.577
vn -0.577 -0.577 -0.577
vn -0.577 -0.577 -0.577
vn -0.577 -0.577 -0.577
vn -0.577 -0.577 -0.577
vn -0.577 -0.577 -0.577
vn -0.577 -0.577 -0.577
vn -0.577 -0.577 -0.577
vn -0.577 -0.577 -0.577
vn -0.577 -0.577 -0.577
vn -0.577 -0.577 -0.577
vn -0.577 -0.577 -0.577
vn -0.577 -0.577 -0.577
vn -0.577 -0.577 -0.577
vn -0.577 -0.577 -0.577
vn -0.577 -0.577 -0.577
vn -0.577 -0.577 -0.577
vn -0.577 -0.577 -0.577
vn -0.577 -0.577 -0.577
vn -0.577 -0.577 -0.577
vn -0.577 -0.577 -0.577
vn -0.577 -0.577 -0.577
vn -0.577 -0.577 -0.577
vn -0.577 -0.577 -0.577
vn -0.577 -0.577 -0.577
vn -0.577 -0.577 -0.577
vn -0.577 -0.577 -0.577
vn -0.577 -0.577 -0.577
vn -0.577 -0.577 -0.577
vn -0.577 -0.577 -0.577
vn -0.577 -0.577 -0.577
vn -0.577 -0.577 -0.577
vn -0.577 -0.577 -0.577
vn -0.577 -0.577 -0.577
vn -0.577 -0.577 -0.577
vn -0.577 -0.577 -0.577
vn -0.577 -0.577 -0.577
vn -0.577 -0.577 -0.577
vn -0.577 -0.577 -0.577
vn -0.577 -0.577 -0.577
vn -0.577 -0.577 -0.577
vn -0.577 -0.577 -0.577
vn -0.577 -0.577 -0.577
vn -0.577 -0.577 -0.577
vn -0.577 -0.577 -0.577
vn -0.577 -0.577 -0.577
vn -0.577 -0.577 -0.577
vn -0.577 -0.577 -0.577
vn -0.577 -0.577 -0.577
vn -0.577 -0.577 -0.577
vn -0.577 -0.577 -0.577
vn -0.577 -0.577 -0.577
vn -0.577 -0.577 -0.577
vn -0.577 -0.577 -0.577
vn -0.577 -0.577 -0.577
vn -0.577 -0.577 -0.577
vn -0.577 -0.577 -0.577
vn -0.577 -0.577 -0.577
vn -0.577 -0.577 -0.577
vn -0.577 -0.577 -0.577
vn -0.577 -0.577 -0.577
vn -0.577 -0.577 -0.577
vn -0.577 -0.577 -0.577
vn -0.577 -0.577 -0.577
vn -0.577 -0.577 -0.577
vn -0.577 -0.577 -0.577
vn -0.577 -0.577 -0.577
vn -0.577 -0.577 -0.577
vn -0.577 -0.577 -0.577
vn -0.577 -0.577 -0.577
vn -0.577 -0.577 -0.577
vn -0.577 -0.577 -0.577
vn -0.577 -0.577 -0.577
vn -0.577 -0.577 -0.577
vn -0.577 -0.577 -0.577
vn -0.577 -0.577 -0.577
vn -0.577 -0.577 -0.577
vn -0.577 -0.577 -0.577
vn -0.577 -0.577 -0.577
vn -0.577 -0.577 -0.577
vn -0.577 -0.577 -0.577
vn -0.577 -0.577 -0.577
vn -0.577 -0.577 -0.577
vn -0.577 -0.577 -0.577
vn -0.577 -0.577 -0.577
vn -0.577 -0.577 -0.577
vn -0.577 -0.577 -0.577
vn -0.577 -0.577 -0.577
vn -0.577 -0.577 -0.577
vn -0.577 -0.577 -0.577
vn -0.577 -0.577 -0.577
vn -0.577 -0.577 -0.577
vn -0.577 -0.577 -0.577
vn -0.577 -0.577 -0.577
vn -0.577 -0.577 -0.577
vn -0.577 -0.577 -0.577
vn -0.577 -0.577 -0.577
vn -0.577 -0.577 -0.577
vn -0.577 -0.577 -0.577
vn -0.577 -0.577 -0.577
vn -0.577 -0.577 -0.577
vn -0.577 -0.577 -0.577
vn -0.577 -0.577 -0.577
vn -0.577 -0.577 -0.577
vn -0.577 -0.577 -0.577
vn -0.577 -0.577 -0.577
vn -0.577 -0.577 -0.577
vn -0.577 -0.577 -0.577
vn -0.577 -0.577 -0.577
vn -0.577 -0.577 -0.577
vn -0.577 -0.577 -0.577
vn -0.577 -0.577 -0.577
vn -0.577 -0.577 -0.577
vn -0.577 -0.577 -0.577
vn -0.577 -0.577 -0.577
vn -0.577 -0.577 -0.577
vn -0.577 -0.577 -0.577
vn -0.577 -0.577 -0.577
vn -0.577 -0.577 -0.577
vn -0.577 -0.577 -0.577
vn -0.577 -0.577 -0.577
vn -0.577 -0.577 -0.577
vn -0.577 -0.577 -0.577
vn -0.577 -0.577 -0.577
vn -0.577 -0.577 -0.577
vn -0.577 -0.577 -0.577
vn -0.577 -0.577 -0.577
vn -0.577 -0.577 -0.577
vn -0.577 -0.577 -0.577
vn -0.577 -0.577 -0.577
vn -0.577 -0.577 -0.577
vn -0.577 -0.577 -0.577
vn -0.577 -0.577 -0.577
vn -0.577 -0.577 -0.577
vn -0.577 -0.577 -0.577
vn -0.577 -0.577 -0.577
vn -0.577 -0.577 -0.577
vn -0.577 -0.577 -0.577
vn 0.577 0.577 0.577
vn 0.577 0.577 0.577
vn 0.577 0.577 0.577
vn 0.577 0.577 0.577
vn 0.577 0.577 0.577
vn 0.577 0.577 0.577
vn 0.577 0.577 0.577
vn 0.577 0.577 0.577
vn -0.577 -0.577 -0.577
vn -0.577 -0.577 -0.577
vn -0.577 -0.577 -0.577
vn -0.577 -0.577 -0.577
vn -0.577 -0.577 -0.577
vn -0.577 -0.577 -0.577
vn -0.577 -0.577 -0.577
vn -0.577 -0.577 -0.577
vn -0.577 -0.577 -0.577
vn -0.577 -0.577 -0.577
vn -0.577 -0.577 -0.577
vn -0.577 -0.577 -0.577
vn -0.577 -0.577 -0.577
vn -0.577 -0.577 -0.577
vn -0.577 -0.577 -0.577
vn -0.577 -0.577 -0.577
vn -0.577 -0.577 -0.577
vn -0.577 -0.577 -0.577
vn -0.577 -0.577 -0.577
vn -0.577 -0.577 -0.577
vn -0.577 -0.577 -0.577
vn -0.577 -0.577 -0.577
vn -0.577 -0.577 -0.577
vn -0.577 -0.577 -0.577
vn -0.577 -0.577 -0.577
vn -0.577 -0.577 -0.577
vn -0.577 -0.577 -0.577
vn -0.577 -0.577 -0.577
vn -0.577 -0.577 -0.577
vn -0.577 -0.577 -0.577
vn -0.577 -0.577 -0.577
vn -0.577 -0.577 -0.577
vn -0.577 -0.577 -0.577
vn -0.577 -0.577 -0.577
vn -0.577 -0.577 -0.577
vn -0.577 -0.577 -0.577
vn -0.577 -0.577 -0.577
vn -0.577 -0.577 -0.577
vn -0.577 -0.577 -0.577
vn -0.577 -0.577 -0.577
vn -0.577 -0.577 -0.577
vn -0.577 -0.577 -0.577
vn -0.577 -0.577 -0.577
vn -0.577 -0.577 -0.577
vn -0.577 -0.577 -0.577
vn -0.577 -0.577 -0.577
vn -0.577 -0.577 -0.577
vn -0.577 -0.577 -0.577
vn -0.577 -0.577 -0.577
vn -0.577 -0.577 -0.577
vn -0.577 -0.577 -0.577
vn -0.577 -0.577 -0.577
vn -0.577 -0.577 -0.577
vn -0.577 -0.577 -0.577
vn -0.577 -0.577 -0.577
vn -0.577 -0.577 -0.577
vn -0.577 -0.577 -0.577
vn -0.577 -0.577 -0.577
vn -0.577 -0.577 -0.577
vn -0.577 -0.577 -0.577
vn -0.577 -0.577 -0.577
vn -0.577 -0.577 -0.577
vn -0.577 -0.577 -0.577
vn -0.577 -0.577 -0.577
vn -0.577 -0.577 -0.577
vn -0.577 -0.577 -0.577
vn -0.577 -0.577 -0.577
vn -0.577 -0.577 -0.577
vn -0.577 -0.577 -0.577
vn -0.577 -0.577 -0.577
vn -0.577 -0.577 -0.577
vn -0.577 -0.577 -0.577
vn -0.577 -0.577 -0.577
vn -0.577 -0.577 -0.577
vn -0.577 -0.577 -0.577
vn -0.577 -0.577 -0.577
vn -0.577 -0.577 -0.577
vn -0.577 -0.577 -0.577
vn -0.577 -0.577 -0.577
vn -0.577 -0.577 -0.577
vn -0.577 -0.577 -0.577
vn -0.577 -0.577 -0.577
vn -0.577 -0.577 -0.577
vn -0.577 -0.577 -0.577
vn -0.577 -0.577 -0.577
vn -0.577 -0.577 -0.577
vn -0.577 -0.577 -0.577
vn -0.577 -0.577 -0.577
vn -0.577 -0.577 -0.577
vn -0.577 -0.577 -0.577
vn -0.577 -0.577 -0.577
vn -0.577 -0.577 -0.577
vn -0.577 -0.577 -0.577
vn -0.577 -0.577 -0.577
vn -0.577 -0.577 -0.577
vn -0.577 -0.577 -0.577
vn -0.577 -0.577 -0.577
vn -0.577 -0.577 -0.577
vn -0.577 -0.577 -0.577
vn -0.577 -0.577 -0.577
vn -0.577 -0.577 -0.577
vn -0.577 -0.577 -0.577
vn -0.577 -0.577 -0.577
vn -0.577 -0.577 -0.577
vn -0.577 -0.577 -0.577
vn -0.577 -0.577 -0.577
vn -0.577 -0.577 -0.577
vn -0.577 -0.577 -0.577
vn -0.577 -0.577 -0.577
vn -0.577 -0.577 -0.577
vn -0.577 -0.577 -0.577
vn -0.577 -0.577 -0.577
vn -0.577 -0.577 -0.577
vn -0.577 -0.577 -0.577
vn -0.577 -0.577 -0.577
vn -0.577 -0.577 -0.577
vn -0.577 -0.577 -0.577
vn -0.577 -0.577 -0.577
vn -0.577 -0.577 -0.577
vn -0.577 -0.577 -0.577
vn -0.577 -0.577 -0.577
vn -0.577 -0.577 -0.577
vn -0.577 -0.577 -0.577
vn -0.577 -0.577 -0.577
vn -0.577 -0.577 -0.577
vn -0.577 -0.577 -0.577
vn -0.577 -0.577 -0.577
vn -0.577 -0.577 -0.577
vn -0.577 -0.577 -0.577
vn -0.577 -0.577 -0.577
vn -0.577 -0.577 -0.577
vn -0.577 -0.577 -0.577
vn -0.577 -0.577 -0.577
vn -0.577 -0.577 -0.577
vn -0.577 -0.577 -0.577
vn -0.577 -0.577 -0.577
vn -0.577 -0.577 -0.577
vn -0.577 -0.577 -0.577
vn -0.577 -0.577 -0.577
vn -0.577 -0.577 -0.577
vn -0.577 -0.577 -0.577
vn -0.577 -0.577 -0.577
vn -0.577 -0.577 -0.577
vn -0.577 -0.577 -0.577
vn -0.577 -0.577 -0.577
vn -0.577 -0.577 -0.577
vn -0.577 -0.577 -0.577
vn -0.577 -0.577 -0.577
vn -0.577 -0.577 -0.577
vn -0.577 -0.577 -0.577
vn -0.577 -0.577 -0.577
vn -0.577 -0.577 -0.577
vn -0.577 -0.577 -0.577
vn -0.577 -0.577 -0.577
vn -0.577 -0.577 -0.577
vn -0.577 -0.577 -0.577
vn -0.577 -0.577 -0.577
vn -0.577 -0.577 -0.577
vn -0.577 -0.577 -0.577
vn -0.577 -0.577 -0.577
vn -0.577 -0.577 -0.577
vn -0.577 -0.577 -0.577
vn -0.577 -0.577 -0.577
vn -0.577 -0.577 -0.577
vn -0.577 -0.577 -0.577
vn -0.577 -0.577 -0.577
vn -0.577 -0.577 -0.577
vn -0.577 -0.577 -0.577
vn -0.577 -0.577 -0.577
vn -0.577 -0.577 -0.577
vn -0.577 -0.577 -0.577
vn -0.577 -0.577 -0.577
vn -0.577 -0.577 -0.577
vn -0.577 -0.577 -0.577
vn -0.577 -0.577 -0.577
vn -0.577 -0.577 -0.577
vn -0.577 -0.577 -0.577
vn -0.577 -0.577 -0.577
vn -0.577 -0.577 -0.577
vn -0.577 -0.577 -0.577
vn -0.577 -0.577 -0.577
vn -0.577 -0.577 -0.577
vn -0.577 -0.577 -0.577
vn -0.577 -0.577 -0.577
vn -0.577 -0.577 -0.577
vn -0.577 -0.577 -0.577
vn -0.577 -0.577 -0.577
vn -0.577 -0.577 -0.577
vn -0.577 -0.577 -0.577
vn -0.577 -0.577 -0.577
vn -0.577 -0.577 -0.577
vn -0.577 -0.577 -0.577
vn -0.577 -0.577 -0.577
vn -0.577 -0.577 -0.577
vn -0.577 -0.577 -0.577
vn -0.577 -0.577 -0.577
vn -0.577 -0.577 -0.577
vn -0.577 -0.577 -0.577
vn -0.577 -0.577 -0.577
vn -0.577 -0.577 -0.577
vn -0.577 -0.577 -0.577
vn -0.577 -0.577 -0.577
vn -0.577 -0.577 -0.577
vn -0.577 -0.577 -0.577
vn -0.577 -0.577 -0.577
vn -0.577 -0.577 -0.577
vn -0.577 -0.577 -0.577
vn -0.577 -0.577 -0.577
vn -0.577 -0.577 -0.577
vn -0.577 -0.577 -0.577
vn -0.577 -0.577 -0.577
vn -0.577 -0.577 -0.577
vn -0.577 -0.577 -0.577
vn -0.577 -0.577 -0.577
vn -0.577 -0.577 -0.577
vn -0.577 -0.577 -0.577
vn -0.577 -0.577 -0.577
vn -0.577 -0.577 -0.577
vn -0.577 -0.577 -0.577
vn -0.577 -0.577 -0.577
vn -0.577 -0.577 -0.577
vn -0.577 -0.577 -0.577
vn -0.577 -0.577 -0.577
vn -0.577 -0.577 -0.577
vn -0.577 -0.577 -0.577
vn -0.577 -0.577 -0.577
vn -0.577 -0.577 -0.577
vn -0.577 -0.577 -0.577
vn -0.577 -0.577 -0.577
vn -0.577 -0.577 -0.577
vn -0.577 -0.577 -0.577
vn -0.577 -0.577 -0.577
vn -0.577 -0.577 -0.577
vn -0.577 -0.577 -0.577
vn -0.577 -0.577 -0.577
vn -0.577 -0.577 -0.577
vn -0.577 -0.577 -0.577
vn -0.577 -0.577 -0.577
vn -0.577 -0.577 -0.577
vn -0.577 -0.577 -0.577
vn -0.577 -0.577 -0.577
vn -0.577 -0.577 -0.577
vn -0.577 -0.577 -0.577
vn -0.577 -0.577 -0.577
vn -0.577 -0.577 -0.577
vn -0.577 -0.577 -0.577
vn -0.577 -0.577 -0.577
vn -0.577 -0.577 -0.577
vn -0.577 -0.577 -0.577
vn -0.577 -0.577 -0.577
vn -0.577 -0.577 -0.577
vn -0.577 -0.577 -0.577
vn -0.577 -0.577 -0.577
vn -0.577 -0.577 -0.577
vn -0.577 -0.577 -0.577
vn -0.577 -0.577 -0.577
vn -0.577 -0.577 -0.577
vn -0.577 -0.577 -0.577
vn -0.577 -0.577 -0.577
vn -0.577 -0.577 -0.577
vn -0.577 -0.577 -0.577
vn -0.577 -0.577 -0.577
vn -0.577 -0.577 -0.577
vn -0.577 -0.577 -0.577
vn -0.577 -0.577 -0.577
vn -0.577 -0.577 -0.577
usemtl tex_2157_fl0_ds_w11
f 1/1/1 2/2/2 3/3/3
f 1/1/1 3/3/3 4/4/4
usemtl tex_2158_fl0_ds_w11_ovl
f 5/1/5 6/2/6 7/3/7
f 5/1/5 7/3/7 8/4/8
usemtl tex_2159_fl0_ds_w11_ovl
f 9/1/9 10/2/10 11/3/11
f 9/1/9 11/3/11 12/4/12
usemtl tex_2160_fl0_ds_w11_ovl
f 13/1/13 14/2/14 15/3/15
f 13/1/13 15/3/15 16/4/16
usemtl tex_2157_fl1_ds_w11
f 17/1/17 18/2/18 19/3/19
f 17/1/17 19/3/19 20/4/20
usemtl tex_2158_fl1_ds_w11_ovl
f 21/1/21 22/2/22 23/3/23
f 21/1/21 23/3/23 24/4/24
usemtl tex_2159_fl1_ds_w11_ovl
f 25/1/25 26/2/26 27/3/27
f 25/1/25 27/3/27 28/4/28
usemtl tex_2160_fl1_ds_w11_ovl
f 29/1/29 30/2/30 31/3/31
f 29/1/29 31/3/31 32/4/32
usemtl tex_26_sw0_0_lit_ds
f 33/5/33 34/4/34 35/6/35
f 36/7/36 34/4/34 33/5/33
f 37/8/37 36/7/36 33/5/33
f 38/9/38 36/7/36 37/8/37
f 39/10/39 38/9/38 37/8/37
f 40/11/40 38/9/38 39/10/39
f 41/12/41 40/11/40 39/10/39
f 42/13/42 40/11/40 43/14/43
f 44/15/44 45/16/45 46/17/46
f 47/18/47 45/16/45 44/15/44
f 48/19/48 47/18/47 44/15/44
f 49/20/49 50/18/50 51/19/51
f 52/21/52 49/20/49 51/19/51
f 53/22/53 49/20/49 52/21/52
f 54/23/54 53/22/53 52/21/52
f 55/24/55 53/22/53 56/25/56
usemtl tex_776_lit_ds
f 57/26/57 58/27/58 59/28/59
f 60/29/60 58/27/58 61/30/61
f 61/30/61 58/27/58 57/26/57
f 59/28/59 58/27/58 60/29/60
usemtl tex_763_lit_ds
f 62/31/62 63/32/63 64/33/64
f 62/31/62 64/33/64 65/34/65
f 66/35/66 67/36/67 68/37/68
f 66/35/66 68/37/68 69/38/69
f 70/39/70 71/40/71 72/41/72
f 70/39/70 72/41/72 73/42/73
f 74/43/74 75/44/75 76/45/76
f 74/43/74 76/45/76 77/46/77
f 78/47/78 79/48/79 80/49/80
f 80/49/80 81/13/81 78/47/78
f 82/50/82 83/51/83 84/13/84
f 85/52/85 83/51/83 82/50/82
f 86/53/86 87/54/87 88/55/88
f 89/56/89 87/54/87 86/53/86
f 90/57/90 91/58/91 92/59/92
f 90/57/90 92/59/92 93/60/93
f 94/61/94 95/62/95 96/63/96
f 97/64/97 98/65/98 99/66/99
f 100/67/100 101/64/101 99/66/99
f 102/68/102 103/69/103 104/70/104
f 105/40/105 106/39/106 107/39/107
f 108/71/108 105/40/105 107/39/107
usemtl tex_776_lit_ds_ovl
f 109/72/109 110/72/110 111/73/111
f 109/72/109 111/73/111 112/74/112
usemtl tex_763_lit_ds
f 113/75/113 114/76/114 115/76/115
f 116/75/116 114/76/114 113/75/113
f 117/77/117 116/75/116 113/75/113
f 118/77/118 116/75/116 117/77/117
f 119/78/119 118/77/118 117/77/117
f 120/78/120 118/77/118 119/78/119
f 121/76/121 122/77/122 123/75/123
f 124/78/124 122/77/122 121/76/121
f 125/76/125 126/75/126 127/77/127
f 125/76/125 127/77/127 128/78/128
f 129/79/129 130/80/130 131/81/131
f 132/81/132 133/80/133 134/79/134
f 129/79/129 134/79/134 133/80/133
f 133/80/133 130/80/130 129/79/129
f 130/80/130 133/80/133 132/81/132
f 131/81/131 130/80/130 132/81/132
f 135/82/135 136/83/136 137/83/137
f 138/82/138 136/83/136 135/82/135
f 139/84/139 138/82/138 135/82/135
f 140/84/140 138/82/138 139/84/139
f 141/85/141 140/84/140 139/84/139
f 142/85/142 140/84/140 141/85/141
f 143/84/143 144/82/144 145/83/145
f 141/85/141 143/84/143 145/83/145
f 146/83/146 147/82/147 148/84/148
f 146/83/146 148/84/148 149/85/149
usemtl tex_1725_sw1_0_lit_ds
f 150/86/150 151/87/151 152/86/152
f 152/86/152 151/87/151 153/87/153
f 151/87/151 154/88/154 153/87/153
f 154/88/154 155/88/155 153/87/153
f 156/89/156 157/90/157 158/90/158
f 158/90/158 159/89/159 156/89/156
f 160/91/160 157/90/157 161/91/161
f 160/91/160 158/90/158 157/90/157
f 154/88/154 157/90/157 156/89/156
f 154/88/154 162/87/162 157/90/157
f 161/91/161 162/87/162 163/86/163
f 157/90/157 162/87/162 161/91/161
f 164/89/164 165/90/165 155/88/155
f 165/90/165 153/87/153 155/88/155
f 166/86/166 167/87/167 168/91/168
f 168/91/168 167/87/167 169/90/169
usemtl tex_1794_sw2_0_lit_ds_w11
f 170/92/170 171/93/171 172/94/172
f 172/94/172 171/93/171 173/95/173
f 171/93/171 174/96/174 173/95/173
f 175/97/175 176/98/176 177/99/177
f 178/100/178 179/99/179 180/101/180
f 181/102/181 175/97/175 178/100/178
f 178/100/178 175/97/175 179/99/179
f 182/103/182 178/100/178 183/104/183
f 178/100/178 180/101/180 183/104/183
f 177/99/177 176/98/176 184/105/184
f 176/98/176 185/106/185 184/105/184
f 186/105/186 187/106/187 188/107/188
f 189/108/189 190/102/190 191/103/191
f 191/103/191 190/102/190 192/100/192
usemtl tex_1795_sw2_0_lit_ds_w11
f 193/109/193 194/110/194 195/111/195
f 195/111/195 194/110/194 196/112/196
f 194/110/194 197/113/197 196/112/196
f 198/114/198 193/109/193 199/115/199
f 199/115/199 193/109/193 195/111/195
usemtl tex_1795_sw2_1_lit_ds_w11
f 200/116/200 201/117/201 202/118/202
f 203/119/203 201/117/201 200/116/200
f 204/120/204 203/119/203 200/116/200
f 205/121/205 203/119/203 204/120/204
f 206/122/206 205/121/205 204/120/204
f 207/123/207 205/121/205 206/122/206
f 208/124/208 209/125/209 210/126/210
f 211/127/211 209/125/209 208/124/208
f 212/128/212 211/127/211 208/124/208
f 213/129/213 211/127/211 212/128/212
f 202/118/202 213/129/213 212/128/212
f 201/117/201 213/129/213 202/118/202
f 214/130/214 201/117/201 215/131/215
f 201/117/201 203/119/203 215/131/215
f 216/131/216 217/119/217 218/132/218
f 218/132/218 217/119/217 219/121/219
f 220/133/220 218/132/218 219/121/219
f 220/133/220 219/121/219 221/123/221
f 221/123/221 222/134/222 220/133/220
f 222/134/222 223/135/223 220/133/220
f 224/117/224 225/130/225 226/129/226
usemtl tex_1796_sw2_1_lit_ds_w11
f 227/136/227 228/137/228 229/138/229
f 229/138/229 228/137/228 230/139/230
f 229/138/229 230/139/230 231/140/231
f 232/140/232 233/139/233 234/141/234
f 232/140/232 234/141/234 235/142/235
f 235/142/235 234/141/234 236/143/236
f 235/142/235 236/143/236 237/144/237
f 237/144/237 236/143/236 238/145/238
f 237/144/237 238/145/238 239/146/239
f 239/146/239 238/145/238 240/147/240
f 239/146/239 240/147/240 241/148/241
f 241/148/241 240/147/240 242/149/242
f 241/148/241 242/149/242 243/150/243
f 243/150/243 242/149/242 244/151/244
f 243/150/243 244/151/244 245/136/245
f 245/136/245 244/151/244 246/137/246
f 247/138/247 248/152/248 249/153/249
f 250/140/250 248/152/248 247/138/247
f 251/142/251 248/152/248 250/140/250
f 247/138/247 249/153/249 252/136/252
f 249/153/249 253/150/253 252/136/252
f 248/152/248 251/142/251 254/144/254
f 255/146/255 248/152/248 254/144/254
f 256/148/256 248/152/248 255/146/255
f 249/153/249 248/152/248 256/148/256
f 249/153/249 256/148/256 253/150/253
usemtl tex_766_sw3_0_lit_ds
f 257/154/257 258/155/258 259/156/259
f 260/157/260 261/158/261 258/155/258
f 260/157/260 258/155/258 262/159/262
f 263/160/263 261/158/261 264/161/264
f 265/162/265 264/161/264 260/157/260
f 266/156/266 267/163/267 268/154/268
f 269/159/269 267/163/267 270/158/270
f 269/159/269 270/158/270 271/157/271
f 272/161/272 273/158/273 274/160/274
f 275/157/275 272/161/272 276/162/276
f 277/164/277 278/165/278 279/166/279
f 277/164/277 279/166/279 280/167/280
f 281/168/281 282/169/282 283/170/283
f 281/168/281 283/170/283 284/171/284
f 285/172/285 281/168/281 284/171/284
f 285/172/285 284/171/284 286/173/286
usemtl tex_1725_sw3_0_lit_ds
f 287/174/287 288/175/288 289/176/289
f 287/174/287 290/177/290 291/178/291
f 290/177/290 287/174/287 289/176/289
f 292/176/292 293/175/293 294/174/294
f 295/178/295 296/177/296 294/174/294
f 296/177/296 292/176/292 294/174/294
f 289/176/289 288/175/288 293/175/293
f 289/176/289 293/175/293 292/176/292
f 291/178/291 290/177/290 296/177/296
f 291/178/291 296/177/296 295/178/295
f 290/177/290 297/176/297 292/176/292
f 290/177/290 292/176/292 296/177/296
usemtl tex_1794_sw4_0_lit_ds_w11
f 298/179/298 299/180/299 300/181/300
f 301/182/301 299/180/299 298/179/298
f 302/183/302 301/182/301 298/179/298
f 303/184/303 301/182/301 302/183/302
f 304/185/304 303/184/303 302/183/302
f 305/186/305 303/184/303 304/185/304
f 306/187/306 307/188/307 308/189/308
f 309/190/309 307/188/307 306/187/306
f 310/191/310 309/190/309 306/187/306
f 311/192/311 309/190/309 310/191/310
f 300/181/300 311/192/311 310/191/310
f 299/180/299 311/192/311 300/181/300
f 312/193/312 313/194/313 298/179/298
f 314/195/314 315/193/315 316/181/316
f 315/193/315 317/179/317 316/181/316
f 318/196/318 319/197/319 320/187/320
f 321/197/321 318/196/318 320/187/320
f 318/196/318 322/198/322 319/197/319
f 318/196/318 323/199/323 322/198/322
f 317/179/317 324/194/324 325/183/325
f 325/183/325 324/194/324 326/101/326
f 326/101/326 327/185/327 325/183/325
f 327/185/327 326/101/326 328/99/328
usemtl tex_1795_sw4_0_lit_ds_w11
f 329/200/329 330/116/330 331/201/331
f 332/120/332 330/116/330 329/200/329
f 332/120/332 329/200/329 333/202/333
f 334/203/334 332/120/332 333/202/333
f 335/122/335 332/120/332 334/203/334
f 331/201/331 330/116/330 336/118/336
f 336/118/336 337/204/337 331/201/331
usemtl tex_1796_sw4_1_lit_ds_w11
f 338/205/338 339/206/339 340/207/340
f 341/208/341 339/206/339 342/209/342
f 342/209/342 339/206/339 338/205/338
f 343/210/343 339/206/339 344/211/344
f 344/211/344 339/206/339 341/208/341
f 344/211/344 341/208/341 345/212/345
f 345/212/345 341/208/341 346/213/346
f 345/212/345 346/213/346 347/214/347
f 347/214/347 346/213/346 348/215/348
f 347/214/347 348/215/348 349/216/349
f 349/216/349 348/215/348 350/217/350
f 349/216/349 350/217/350 351/218/351
f 351/218/351 350/217/350 352/219/352
f 351/218/351 352/219/352 353/220/353
f 354/220/354 355/219/355 356/221/356
f 354/220/354 356/221/356 357/222/357
f 357/222/357 356/221/356 358/223/358
f 357/222/357 358/223/358 359/210/359
f 359/210/359 358/223/358 360/206/360
f 361/211/361 362/224/362 363/225/363
f 364/212/364 362/224/362 361/211/361
f 365/214/365 362/224/362 364/212/364
f 361/211/361 363/225/363 359/210/359
f 363/225/363 357/222/357 359/210/359
f 362/224/362 365/214/365 366/216/366
f 367/218/367 362/224/362 366/216/366
f 354/220/354 362/224/362 367/218/367
f 363/225/363 362/224/362 354/220/354
f 363/225/363 354/220/354 357/222/357
usemtl tex_1795_sw4_2_lit_ds_w11
f 368/226/368 369/227/369 370/228/370
f 371/229/371 369/227/369 368/226/368
f 371/229/371 368/226/368 372/230/372
f 373/231/373 371/229/371 372/230/372
f 373/231/373 372/230/372 374/232/374
f 374/232/374 372/230/372 375/233/375
f 376/234/376 374/232/374 375/233/375
f 376/234/376 375/233/375 377/235/377
f 370/228/370 369/227/369 378/236/378
usemtl tex_1796_sw4_2_lit_ds_w11
f 379/237/379 380/238/380 381/239/381
f 381/239/381 380/238/380 382/240/382
f 381/239/381 382/240/382 383/241/383
f 384/241/384 385/240/385 386/242/386
f 384/241/384 386/242/386 387/243/387
f 387/243/387 386/242/386 388/244/388
f 387/243/387 388/244/388 389/245/389
f 389/245/389 388/244/388 390/246/390
f 389/245/389 391/246/391 392/247/392
f 392/247/392 390/246/390 393/248/393
f 392/247/392 393/248/393 394/249/394
f 394/249/394 393/248/393 395/250/395
f 394/249/394 395/250/395 396/251/396
f 396/251/396 395/250/395 397/252/397
f 396/251/396 397/252/397 398/237/398
f 398/237/398 397/252/397 399/238/399
f 400/239/400 401/253/401 402/254/402
f 403/241/403 401/253/401 400/239/400
f 404/243/404 401/253/401 403/241/403
f 400/239/400 402/254/402 405/237/405
f 402/254/402 406/251/406 405/237/405
f 401/253/401 404/243/404 407/245/407
f 408/247/408 401/253/401 407/245/407
f 409/249/409 401/253/401 408/247/408
f 402/254/402 401/253/401 409/249/409
f 402/254/402 409/249/409 406/251/406
f 410/255/410 411/256/411 412/257/412
f 413/258/413 411/256/411 410/255/410
f 413/258/413 410/255/410 414/259/414
f 415/260/415 413/258/413 414/259/414
f 415/260/415 414/259/414 416/261/416
f 417/262/417 415/260/415 416/261/416
f 417/262/417 416/261/416 418/263/418
f 419/264/419 417/262/417 418/263/418
f 412/257/412 411/256/411 420/265/420
f 421/266/421 411/256/411 422/267/422
f 422/267/422 411/256/411 413/258/413
f 422/267/422 413/258/413 423/268/423
f 423/268/423 413/258/413 415/260/415
f 423/268/423 415/260/415 424/269/424
f 424/269/424 415/260/415 417/262/417
f 424/269/424 417/262/417 425/270/425
f 425/270/425 417/262/417 419/264/419
f 426/270/426 427/264/427 428/271/428
f 428/271/428 427/264/427 429/272/429
f 428/271/428 429/272/429 430/273/430
f 430/273/430 429/272/429 431/274/431
f 430/273/430 431/274/431 432/275/432
f 432/275/432 431/274/431 433/265/433
f 432/275/432 433/265/433 434/266/434
f 434/266/434 433/265/433 435/256/435
f 436/267/436 437/276/437 438/277/438
f 439/268/439 437/276/437 436/267/436
f 440/269/440 437/276/437 439/268/439
f 441/267/441 442/277/442 443/266/443
f 442/277/442 444/275/444 445/266/445
f 446/276/446 447/269/447 448/270/448
f 449/271/449 446/276/446 448/270/448
f 450/273/450 451/276/451 449/271/449
f 442/277/442 451/276/451 450/273/450
f 442/277/442 450/273/450 444/275/444
usemtl tex_776_lit_ds
f 452/278/452 453/279/453 454/280/454
f 455/281/455 453/279/453 456/282/456
f 456/282/456 453/279/453 452/278/452
f 454/280/454 453/279/453 455/281/455
f 457/74/457 458/283/458 459/284/459
f 457/74/457 459/284/459 460/72/460
f 461/283/461 462/74/462 463/72/463
f 461/283/461 463/72/463 464/284/464
usemtl tex_776_lit_ds_ovl
f 461/283/461 457/74/457 462/74/462
f 458/283/458 457/74/457 461/283/461
usemtl tex_776_lit_ds
f 459/284/459 458/283/458 461/283/461
f 464/284/464 459/284/459 461/283/461
usemtl tex_776_lit_ds_ovl
f 465/72/465 466/74/466 467/74/467
f 465/72/465 468/72/468 466/74/466
usemtl tex_1794_sw5_0_lit_ds_w11
f 469/285/469 470/286/470 471/287/471
f 472/288/472 473/289/473 474/290/474
f 474/290/474 473/289/473 475/291/475
f 473/289/473 471/287/471 475/291/475
f 471/287/471 470/286/470 475/291/475
f 469/285/469 476/292/476 470/286/470
f 469/285/469 477/293/477 476/292/476
f 478/294/478 477/293/477 479/295/479
f 480/296/480 478/294/478 481/101/481
f 478/294/478 482/104/482 481/101/481
f 478/294/478 479/295/479 482/104/482
f 479/295/479 483/95/483 482/104/482
f 479/295/479 484/297/484 483/95/483
f 485/94/485 486/95/486 487/297/487
f 488/298/488 485/94/485 487/297/487
f 489/299/489 485/94/485 488/298/488
f 489/299/489 488/298/488 490/300/490
f 490/300/490 491/301/491 489/299/489
f 490/300/490 492/302/492 491/301/491
f 492/302/492 493/303/493 491/301/491
f 494/304/494 493/303/493 492/302/492
f 494/304/494 495/305/495 493/303/493
f 496/306/496 495/305/495 494/304/494
f 496/306/496 494/304/494 497/288/497
f 494/304/494 498/289/498 497/288/497
f 498/289/498 494/304/494 492/302/492
f 492/302/492 499/287/499 498/289/498
f 490/300/490 499/287/499 492/302/492
f 490/300/490 488/298/488 499/287/499
f 499/287/499 488/298/488 487/297/487
f 500/285/500 499/287/499 487/297/487
f 501/285/501 502/297/502 503/295/503
f 504/293/504 501/285/501 503/295/503
f 505/294/505 506/296/506 504/293/504
f 507/301/507 508/307/508 509/308/509
f 507/301/507 509/308/509 510/299/510
f 510/299/510 509/308/509 511/309/511
f 506/296/506 512/101/512 513/194/513
f 513/194/513 514/310/514 506/296/506
f 513/194/513 515/193/515 514/310/514
usemtl tex_1797_sw5_0_lit_ds_w11
f 516/311/516 517/312/517 518/313/518
f 518/313/518 517/312/517 519/314/519
f 517/312/517 520/315/520 519/314/519
f 520/315/520 521/316/521 519/314/519
f 520/315/520 522/317/522 521/316/521
f 522/317/522 523/318/523 521/316/521
f 516/311/516 524/319/524 525/320/525
f 525/320/525 524/319/524 526/321/526
f 524/319/524 527/322/527 526/321/526
f 528/323/528 529/324/529 530/325/530
f 528/323/528 530/325/530 531/326/531
f 532/325/532 533/327/533 534/326/534
f 533/327/533 535/328/535 534/326/534
usemtl tex_1797_sw5_0_lit_ds_w11_ovl
f 536/329/536 535/328/535 533/327/533
usemtl tex_1797_sw5_0_lit_ds_w11
f 536/329/536 537/330/537 535/328/535
f 536/329/536 538/320/538 537/330/537
f 538/320/538 539/331/539 537/330/537
f 538/320/538 540/321/540 539/331/539
f 539/331/539 540/321/540 541/332/541
f 540/321/540 542/333/542 541/332/541
f 543/322/543 542/333/542 540/321/540
f 543/322/543 544/334/544 542/333/542
f 544/334/544 545/335/545 542/333/542
f 544/334/544 546/336/546 545/335/545
f 547/324/547 548/317/548 549/315/549
f 549/315/549 550/325/550 547/324/547
f 549/315/549 551/312/551 550/325/550
f 550/325/550 551/312/551 552/327/552
f 551/312/551 553/329/553 552/327/552
f 551/312/551 554/311/554 553/329/553
f 554/311/554 555/320/555 553/329/553
usemtl tex_1794_sw5_1_lit_ds_w11
f 556/337/556 557/338/557 558/310/558
f 558/310/558 559/339/559 556/337/556
f 560/293/560 558/310/558 557/338/557
f 561/296/561 558/310/558 560/293/560
f 559/339/559 558/310/558 562/193/562
f 562/193/562 563/195/563 559/339/559
f 564/340/564 565/292/565 560/293/560
f 556/337/556 566/341/566 567/342/567
f 557/338/557 556/337/556 567/342/567
f 560/293/560 557/338/557 567/342/567
f 560/293/560 567/342/567 564/340/564
f 567/342/567 568/343/568 569/344/569
f 569/344/569 564/340/564 567/342/567
f 564/340/564 569/344/569 565/292/565
f 565/292/565 569/344/569 570/345/570
f 571/286/571 565/292/565 570/345/570
f 572/286/572 573/345/573 574/346/574
f 575/291/575 572/286/572 574/346/574
f 575/291/575 574/346/574 576/290/576
f 577/342/577 578/341/578 579/343/579
usemtl tex_1798_sw5_1_lit_ds_w11
f 580/347/580 581/348/581 582/349/582
f 583/350/583 584/351/584 585/352/585
f 586/353/586 581/348/581 580/347/580
f 587/354/587 588/355/588 589/347/589
f 588/355/588 590/353/590 589/347/589
f 591/356/591 592/357/592 589/347/589
f 593/349/593 591/356/591 589/347/589
f 594/358/594 587/354/587 589/347/589
f 589/347/589 595/359/595 594/358/594
f 592/357/592 595/359/595 589/347/589
f 596/360/596 595/359/595 592/357/592
f 597/361/597 595/359/595 598/362/598
f 595/359/595 599/363/599 598/362/598
f 597/361/597 594/358/594 595/359/595
f 594/358/594 597/361/597 587/354/587
f 599/363/599 600/364/600 598/362/598
f 600/364/600 597/361/597 598/362/598
f 601/365/601 600/364/600 602/366/602
usemtl tex_1796_sw5_1_lit_ds_w11
f 603/367/603 604/368/604 605/369/605
f 606/370/606 604/368/604 603/367/603
f 607/371/607 608/372/608 609/373/609
f 610/374/610 608/372/608 607/371/607
f 605/369/605 610/374/610 607/371/607
f 604/368/604 610/374/610 605/369/605
usemtl tex_1797_sw5_1_lit_ds_w11
f 611/375/611 612/376/612 613/377/613
f 611/375/611 614/378/614 612/376/612
f 612/376/612 614/378/614 615/334/615
f 616/379/616 615/334/615 614/378/614
f 617/380/617 615/334/615 616/379/616
f 618/381/618 619/382/619 620/383/620
f 618/381/618 620/383/620 621/377/621
f 621/377/621 622/376/622 618/381/618
usemtl tex_1797_sw5_1_lit_ds_w11_ovl
f 618/381/618 622/376/622 623/319/623
usemtl tex_1797_sw5_1_lit_ds_w11
f 623/319/623 622/376/622 624/334/624
f 623/319/623 624/334/624 625/322/625
f 626/313/626 623/319/623 627/311/627
f 628/384/628 623/319/623 626/313/626
f 618/381/618 623/319/623 628/384/628
f 618/381/618 629/385/629 619/382/619
f 618/381/618 628/384/628 629/385/629
f 630/386/630 629/385/629 628/384/628
f 630/386/630 619/382/619 629/385/629
f 631/387/631 632/388/632 633/389/633
f 634/387/634 635/389/635 636/390/636
f 637/391/637 634/387/634 636/390/636
f 637/391/637 636/390/636 638/392/638
f 639/393/639 637/391/637 638/392/638
f 639/393/639 638/392/638 640/394/640
f 641/395/641 639/393/639 640/394/640
usemtl tex_1793_sw5_1_lit_ds_w11
f 642/396/642 643/397/643 644/398/644
f 645/399/645 642/396/642 644/398/644
f 646/400/646 647/401/647 648/402/648
f 649/403/649 647/401/647 646/400/646
f 650/404/650 651/403/651 652/400/652
f 653/405/653 651/403/651 650/404/650
f 654/406/654 653/405/653 650/404/650
f 655/407/655 653/405/653 654/406/654
f 656/408/656 655/407/655 654/406/654
f 657/396/657 655/407/655 656/408/656
f 658/409/658 657/396/657 656/408/656
f 659/397/659 657/396/657 658/409/658
usemtl tex_1795_sw6_0_lit_ds_w11
f 660/410/660 661/411/661 662/412/662
f 663/413/663 661/411/661 660/410/660
f 664/414/664 661/411/661 663/413/663
f 660/410/660 662/412/662 665/415/665
f 662/412/662 666/416/666 665/415/665
f 661/411/661 664/414/664 667/417/667
f 668/418/668 661/411/661 667/417/667
f 669/419/669 661/411/661 668/418/668
f 662/412/662 661/411/661 669/419/669
f 662/412/662 669/419/669 666/416/666
f 665/415/665 670/420/670 660/410/660
f 660/410/660 670/420/670 671/421/671
f 660/410/660 671/421/671 663/413/663
f 663/413/663 671/421/671 672/422/672
f 663/413/663 672/422/672 664/414/664
f 664/414/664 672/422/672 673/423/673
f 664/414/664 673/423/673 667/417/667
f 667/417/667 673/423/673 674/424/674
f 667/417/667 674/424/674 668/418/668
f 668/418/668 674/424/674 675/425/675
f 668/418/668 675/425/675 669/419/669
f 676/419/676 677/425/677 678/426/678
f 676/419/676 678/426/678 679/416/679
f 679/416/679 678/426/678 680/427/680
f 679/416/679 680/427/680 681/415/681
f 681/415/681 680/427/680 682/420/682
usemtl tex_1798_sw6_0_lit_ds_w11
f 683/428/683 684/429/684 685/430/685
f 685/430/685 684/429/684 686/356/686
f 685/430/685 686/356/686 687/431/687
f 687/431/687 686/356/686 688/349/688
f 687/431/687 688/349/688 689/432/689
f 689/432/689 688/349/688 690/349/690
f 691/433/691 692/434/692 693/428/693
f 693/428/693 692/434/692 694/429/694
f 691/433/691 695/435/695 696/433/696
f 697/436/697 695/435/695 691/433/691
f 697/436/697 691/433/691 693/428/693
f 697/436/697 693/428/693 698/437/698
f 699/438/699 698/437/698 700/430/700
f 698/437/698 693/428/693 700/430/700
f 701/439/701 699/438/699 702/431/702
f 702/431/702 703/432/703 701/439/701
f 700/430/700 702/431/702 699/438/699
f 704/360/704 694/429/694 692/434/692
f 694/429/694 704/360/704 705/357/705
f 706/356/706 694/429/694 705/357/705
usemtl tex_1797_sw6_0_lit_ds_w11
f 707/440/707 708/379/708 709/441/709
f 709/441/709 708/379/708 710/378/710
f 709/441/709 710/378/710 711/442/711
f 711/442/711 710/378/710 712/375/712
f 711/442/711 712/375/712 713/443/713
f 713/443/713 712/375/712 714/444/714
f 713/443/713 714/444/714 715/445/715
f 715/445/715 714/444/714 716/446/716
f 717/447/717 713/443/713 715/445/715
f 715/445/715 718/448/718 717/447/717
f 711/442/711 713/443/713 717/447/717
f 711/442/711 717/447/717 719/449/719
f 709/441/709 711/442/711 719/449/719
f 720/450/720 721/451/721 722/452/722
f 723/453/723 724/441/724 725/449/725
f 726/377/726 727/444/727 728/375/728
f 726/377/726 729/446/729 727/444/727
f 726/377/726 730/383/730 729/446/729
