mtllib GwatchgeigercounterZ.mtl
v -117.0 217.0 -166.0 1.000 1.000 1.000
v 96.0 217.0 -166.0 1.000 1.000 1.000
v 96.0 173.0 -195.0 1.000 1.000 1.000
v -117.0 173.0 -195.0 1.000 1.000 1.000
v 96.0 2.0 -209.0 1.000 1.000 1.000
v -117.0 2.0 -209.0 1.000 1.000 1.000
v 96.0 -175.0 -194.0 1.000 1.000 1.000
v -117.0 -175.0 -194.0 1.000 1.000 1.000
v 96.0 -217.0 -166.0 1.000 1.000 1.000
v -117.0 -217.0 -166.0 1.000 1.000 1.000
v -117.0 -174.0 -179.0 1.000 1.000 1.000
v -117.0 -214.0 -160.0 1.000 1.000 1.000
v -117.0 3.0 -194.0 1.000 1.000 1.000
v -117.0 174.0 -180.0 1.000 1.000 1.000
v -117.0 214.0 -160.0 1.000 1.000 1.000
v 96.0 217.0 -166.0 1.000 1.000 1.000
v 96.0 214.0 -160.0 1.000 1.000 1.000
v 96.0 174.0 -180.0 1.000 1.000 1.000
v 96.0 173.0 -195.0 1.000 1.000 1.000
v 96.0 3.0 -194.0 1.000 1.000 1.000
v 96.0 2.0 -209.0 1.000 1.000 1.000
v 96.0 -174.0 -179.0 1.000 1.000 1.000
v 96.0 -175.0 -194.0 1.000 1.000 1.000
v 96.0 -214.0 -160.0 1.000 1.000 1.000
v 96.0 -217.0 -166.0 1.000 1.000 1.000
v -117.0 174.0 -180.0 1.000 1.000 1.000
v -117.0 214.0 -160.0 1.000 1.000 1.000
v -117.0 3.0 -194.0 1.000 1.000 1.000
v -117.0 -174.0 -179.0 1.000 1.000 1.000
v -117.0 -214.0 -160.0 1.000 1.000 1.000
v -8.0 160.0 208.0 1.000 1.000 1.000
v -8.0 186.0 195.0 1.000 1.000 1.000
v -13.0 186.0 195.0 1.000 1.000 1.000
v -13.0 160.0 208.0 1.000 1.000 1.000
v 129.0 78.0 208.0 1.000 1.000 1.000
v 152.0 91.0 195.0 1.000 1.000 1.000
v 149.0 95.0 195.0 1.000 1.000 1.000
v 126.0 82.0 208.0 1.000 1.000 1.000
v 71.0 137.0 208.0 1.000 1.000 1.000
v 85.0 160.0 195.0 1.000 1.000 1.000
v 80.0 163.0 195.0 1.000 1.000 1.000
v 67.0 140.0 208.0 1.000 1.000 1.000
v 126.0 -82.0 208.0 1.000 1.000 1.000
v 149.0 -95.0 195.0 1.000 1.000 1.000
v 152.0 -91.0 195.0 1.000 1.000 1.000
v 129.0 -78.0 208.0 1.000 1.000 1.000
v -88.0 140.0 208.0 1.000 1.000 1.000
v -102.0 163.0 195.0 1.000 1.000 1.000
v -106.0 160.0 195.0 1.000 1.000 1.000
v -93.0 137.0 208.0 1.000 1.000 1.000
v -13.0 -160.0 208.0 1.000 1.000 1.000
v -13.0 -186.0 195.0 1.000 1.000 1.000
v -8.0 -186.0 195.0 1.000 1.000 1.000
v -8.0 -160.0 208.0 1.000 1.000 1.000
v 149.0 -3.0 208.0 1.000 1.000 1.000
v 176.0 -3.0 195.0 1.000 1.000 1.000
v 176.0 3.0 195.0 1.000 1.000 1.000
v 149.0 3.0 208.0 1.000 1.000 1.000
v -93.0 -137.0 208.0 1.000 1.000 1.000
v -106.0 -160.0 195.0 1.000 1.000 1.000
v -102.0 -163.0 195.0 1.000 1.000 1.000
v -88.0 -140.0 208.0 1.000 1.000 1.000
v -150.0 -78.0 208.0 1.000 1.000 1.000
v -174.0 -91.0 195.0 1.000 1.000 1.000
v -171.0 -95.0 195.0 1.000 1.000 1.000
v -148.0 -82.0 208.0 1.000 1.000 1.000
v -148.0 82.0 208.0 1.000 1.000 1.000
v -171.0 95.0 195.0 1.000 1.000 1.000
v -174.0 91.0 195.0 1.000 1.000 1.000
v -150.0 78.0 208.0 1.000 1.000 1.000
v 67.0 -140.0 208.0 1.000 1.000 1.000
v 80.0 -163.0 195.0 1.000 1.000 1.000
v 85.0 -160.0 195.0 1.000 1.000 1.000
v 71.0 -137.0 208.0 1.000 1.000 1.000
v -171.0 3.0 208.0 1.000 1.000 1.000
v -197.0 3.0 195.0 1.000 1.000 1.000
v -197.0 -3.0 195.0 1.000 1.000 1.000
v -171.0 -3.0 208.0 1.000 1.000 1.000
v -17.0 17.0 206.0 1.000 1.000 1.000
v -20.0 -3.0 206.0 1.000 1.000 1.000
v -1.0 -3.0 206.0 1.000 1.000 1.000
v -5.0 17.0 206.0 1.000 1.000 1.000
v -16.0 57.0 206.0 1.000 1.000 1.000
v -20.0 57.0 206.0 1.000 1.000 1.000
v -13.0 17.0 206.0 1.000 1.000 1.000
v -5.0 57.0 206.0 1.000 1.000 1.000
v -8.0 17.0 206.0 1.000 1.000 1.000
v -1.0 57.0 206.0 1.000 1.000 1.000
v -11.0 70.0 206.0 1.000 1.000 1.000
v -1.0 -3.0 201.0 1.000 1.000 1.000
v -5.0 23.0 201.0 1.000 1.000 1.000
v -17.0 23.0 201.0 1.000 1.000 1.000
v -20.0 -3.0 201.0 1.000 1.000 1.000
v -17.0 23.0 201.0 1.000 1.000 1.000
v -13.0 23.0 201.0 1.000 1.000 1.000
v -16.0 103.0 201.0 1.000 1.000 1.000
v -20.0 103.0 201.0 1.000 1.000 1.000
v -8.0 23.0 201.0 1.000 1.000 1.000
v -5.0 23.0 201.0 1.000 1.000 1.000
v -1.0 103.0 201.0 1.000 1.000 1.000
v -5.0 103.0 201.0 1.000 1.000 1.000
v -11.0 130.0 201.0 1.000 1.000 1.000
v -8.0 4.0 209.0 1.000 1.000 1.000
v -11.0 131.0 209.0 1.000 1.000 1.000
v -13.0 4.0 209.0 1.000 1.000 1.000
v -142.0 -131.0 195.0 1.000 1.000 1.000
v -11.0 -180.0 195.0 1.000 1.000 1.000
v 170.0 0.0 195.0 1.000 1.000 1.000
v 120.0 131.0 195.0 1.000 1.000 1.000
v -11.0 -180.0 195.0 1.000 1.000 1.000
v 120.0 -131.0 195.0 1.000 1.000 1.000
v 170.0 0.0 195.0 1.000 1.000 1.000
v -142.0 -131.0 195.0 1.000 1.000 1.000
v 120.0 131.0 195.0 1.000 1.000 1.000
v -11.0 180.0 195.0 1.000 1.000 1.000
v -191.0 0.0 195.0 1.000 1.000 1.000
v -142.0 131.0 195.0 1.000 1.000 1.000
v 128.0 -251.0 155.0 1.000 1.000 1.000
v 96.0 -253.0 142.0 1.000 1.000 1.000
v 128.0 -251.0 142.0 1.000 1.000 1.000
v 96.0 -253.0 155.0 1.000 1.000 1.000
v 140.0 -151.0 182.0 1.000 1.000 1.000
v 96.0 -176.0 182.0 1.000 1.000 1.000
v 96.0 -176.0 155.0 1.000 1.000 1.000
v 140.0 -151.0 155.0 1.000 1.000 1.000
v -150.0 251.0 155.0 1.000 1.000 1.000
v -117.0 253.0 142.0 1.000 1.000 1.000
v -150.0 251.0 142.0 1.000 1.000 1.000
v -117.0 253.0 155.0 1.000 1.000 1.000
v -161.0 151.0 182.0 1.000 1.000 1.000
v -117.0 253.0 155.0 1.000 1.000 1.000
v -150.0 251.0 155.0 1.000 1.000 1.000
v -117.0 176.0 182.0 1.000 1.000 1.000
v -150.0 251.0 142.0 1.000 1.000 1.000
v -117.0 253.0 142.0 1.000 1.000 1.000
v -117.0 176.0 155.0 1.000 1.000 1.000
v -161.0 151.0 155.0 1.000 1.000 1.000
v -150.0 251.0 142.0 1.000 1.000 1.000
v -150.0 -251.0 142.0 1.000 1.000 1.000
v -117.0 -253.0 142.0 1.000 1.000 1.000
v -150.0 -251.0 155.0 1.000 1.000 1.000
v -150.0 -251.0 155.0 1.000 1.000 1.000
v -117.0 -253.0 142.0 1.000 1.000 1.000
v -117.0 -253.0 155.0 1.000 1.000 1.000
v -161.0 -151.0 182.0 1.000 1.000 1.000
v -117.0 -176.0 182.0 1.000 1.000 1.000
v -161.0 -151.0 155.0 1.000 1.000 1.000
v -117.0 -176.0 155.0 1.000 1.000 1.000
v -150.0 -251.0 142.0 1.000 1.000 1.000
v 128.0 251.0 142.0 1.000 1.000 1.000
v 96.0 253.0 142.0 1.000 1.000 1.000
v 128.0 251.0 155.0 1.000 1.000 1.000
v 96.0 253.0 155.0 1.000 1.000 1.000
v 128.0 251.0 155.0 1.000 1.000 1.000
v 96.0 253.0 155.0 1.000 1.000 1.000
v 140.0 151.0 182.0 1.000 1.000 1.000
v 96.0 176.0 182.0 1.000 1.000 1.000
v 96.0 253.0 142.0 1.000 1.000 1.000
v 128.0 251.0 142.0 1.000 1.000 1.000
v 140.0 151.0 155.0 1.000 1.000 1.000
v 96.0 176.0 155.0 1.000 1.000 1.000
v 128.0 251.0 155.0 1.000 1.000 1.000
v 140.0 151.0 182.0 1.000 1.000 1.000
v 96.0 253.0 155.0 1.000 1.000 1.000
v 96.0 176.0 182.0 1.000 1.000 1.000
v -11.0 200.0 195.0 1.000 1.000 1.000
v 37.0 180.0 195.0 1.000 1.000 1.000
v 44.0 206.0 182.0 1.000 1.000 1.000
v 89.0 173.0 195.0 1.000 1.000 1.000
v 121.0 132.0 195.0 1.000 1.000 1.000
v 162.0 100.0 195.0 1.000 1.000 1.000
v 169.0 48.0 195.0 1.000 1.000 1.000
v 195.0 55.0 182.0 1.000 1.000 1.000
v 169.0 48.0 195.0 1.000 1.000 1.000
v 189.0 0.0 195.0 1.000 1.000 1.000
v 195.0 55.0 182.0 1.000 1.000 1.000
v 195.0 -55.0 182.0 1.000 1.000 1.000
v 169.0 -48.0 195.0 1.000 1.000 1.000
v 162.0 -100.0 195.0 1.000 1.000 1.000
v 140.0 -151.0 182.0 1.000 1.000 1.000
v 121.0 -132.0 195.0 1.000 1.000 1.000
v 89.0 -173.0 195.0 1.000 1.000 1.000
v 37.0 -180.0 195.0 1.000 1.000 1.000
v 44.0 -206.0 182.0 1.000 1.000 1.000
v -11.0 -200.0 195.0 1.000 1.000 1.000
v -59.0 -180.0 195.0 1.000 1.000 1.000
v -66.0 -206.0 182.0 1.000 1.000 1.000
v -111.0 -173.0 195.0 1.000 1.000 1.000
v -143.0 -132.0 195.0 1.000 1.000 1.000
v -161.0 -151.0 182.0 1.000 1.000 1.000
v -111.0 -173.0 195.0 1.000 1.000 1.000
v -143.0 -132.0 195.0 1.000 1.000 1.000
v -66.0 -206.0 182.0 1.000 1.000 1.000
v -184.0 -100.0 195.0 1.000 1.000 1.000
v -191.0 -48.0 195.0 1.000 1.000 1.000
v -217.0 -55.0 182.0 1.000 1.000 1.000
v -210.0 0.0 195.0 1.000 1.000 1.000
v -191.0 48.0 195.0 1.000 1.000 1.000
v -217.0 55.0 182.0 1.000 1.000 1.000
v -184.0 100.0 195.0 1.000 1.000 1.000
v -143.0 132.0 195.0 1.000 1.000 1.000
v -161.0 151.0 182.0 1.000 1.000 1.000
v -111.0 173.0 195.0 1.000 1.000 1.000
v -59.0 180.0 195.0 1.000 1.000 1.000
v -66.0 206.0 182.0 1.000 1.000 1.000
v -66.0 206.0 182.0 1.000 1.000 1.000
v -59.0 180.0 195.0 1.000 1.000 1.000
v -11.0 200.0 195.0 1.000 1.000 1.000
v 37.0 180.0 195.0 1.000 1.000 1.000
v 44.0 206.0 182.0 1.000 1.000 1.000
v -217.0 55.0 182.0 1.000 1.000 1.000
v -217.0 -55.0 155.0 1.000 1.000 1.000
v -217.0 -55.0 182.0 1.000 1.000 1.000
v -217.0 55.0 155.0 1.000 1.000 1.000
v -161.0 151.0 182.0 1.000 1.000 1.000
v -161.0 151.0 155.0 1.000 1.000 1.000
v -66.0 206.0 155.0 1.000 1.000 1.000
v 44.0 206.0 155.0 1.000 1.000 1.000
v 140.0 151.0 182.0 1.000 1.000 1.000
v 140.0 151.0 155.0 1.000 1.000 1.000
v 195.0 55.0 182.0 1.000 1.000 1.000
v 195.0 55.0 155.0 1.000 1.000 1.000
v 140.0 151.0 155.0 1.000 1.000 1.000
v 195.0 55.0 182.0 1.000 1.000 1.000
v 195.0 -55.0 182.0 1.000 1.000 1.000
v 195.0 -55.0 155.0 1.000 1.000 1.000
v 140.0 -151.0 182.0 1.000 1.000 1.000
v 140.0 -151.0 155.0 1.000 1.000 1.000
v 44.0 -206.0 182.0 1.000 1.000 1.000
v 44.0 -206.0 155.0 1.000 1.000 1.000
v -66.0 -206.0 182.0 1.000 1.000 1.000
v -66.0 -206.0 155.0 1.000 1.000 1.000
v -161.0 -151.0 182.0 1.000 1.000 1.000
v -161.0 -151.0 155.0 1.000 1.000 1.000
v -217.0 -55.0 182.0 1.000 1.000 1.000
v -217.0 -55.0 155.0 1.000 1.000 1.000
v 44.0 -206.0 155.0 1.000 1.000 1.000
v -161.0 151.0 155.0 1.000 1.000 1.000
v -66.0 206.0 155.0 1.000 1.000 1.000
v 140.0 -151.0 155.0 1.000 1.000 1.000
v -66.0 -206.0 155.0 1.000 1.000 1.000
v -161.0 -151.0 155.0 1.000 1.000 1.000
v -217.0 -55.0 155.0 1.000 1.000 1.000
v -217.0 55.0 155.0 1.000 1.000 1.000
v 44.0 206.0 155.0 1.000 1.000 1.000
v 140.0 151.0 155.0 1.000 1.000 1.000
v 195.0 55.0 155.0 1.000 1.000 1.000
v 195.0 -55.0 155.0 1.000 1.000 1.000
v 96.0 217.0 159.0 1.000 1.000 1.000
v -117.0 217.0 158.0 1.000 1.000 1.000
v -117.0 214.0 152.0 1.000 1.000 1.000
v 96.0 214.0 152.0 1.000 1.000 1.000
v 96.0 231.0 160.0 1.000 1.000 1.000
v -117.0 231.0 160.0 1.000 1.000 1.000
v -117.0 217.0 158.0 1.000 1.000 1.000
v 96.0 217.0 159.0 1.000 1.000 1.000
v 96.0 281.0 142.0 1.000 1.000 1.000
v -117.0 281.0 142.0 1.000 1.000 1.000
v 96.0 292.0 131.0 1.000 1.000 1.000
v -117.0 292.0 131.0 1.000 1.000 1.000
v 96.0 306.0 126.0 1.000 1.000 1.000
v -117.0 306.0 126.0 1.000 1.000 1.000
v 96.0 343.0 89.0 1.000 1.000 1.000
v -117.0 343.0 89.0 1.000 1.000 1.000
v 96.0 348.0 75.0 1.000 1.000 1.000
v -117.0 348.0 75.0 1.000 1.000 1.000
v -117.0 357.0 63.0 1.000 1.000 1.000
v 96.0 357.0 63.0 1.000 1.000 1.000
v -117.0 366.0 10.0 1.000 1.000 1.000
v -117.0 357.0 63.0 1.000 1.000 1.000
v 96.0 357.0 63.0 1.000 1.000 1.000
v 96.0 366.0 10.0 1.000 1.000 1.000
v 96.0 366.0 10.0 1.000 1.000 1.000
v 96.0 362.0 -4.0 1.000 1.000 1.000
v -117.0 366.0 10.0 1.000 1.000 1.000
v -117.0 362.0 -4.0 1.000 1.000 1.000
v 96.0 217.0 159.0 1.000 1.000 1.000
v 96.0 214.0 152.0 1.000 1.000 1.000
v 96.0 225.0 141.0 1.000 1.000 1.000
v 96.0 231.0 160.0 1.000 1.000 1.000
v 96.0 275.0 123.0 1.000 1.000 1.000
v 96.0 281.0 142.0 1.000 1.000 1.000
v 96.0 292.0 131.0 1.000 1.000 1.000
v 96.0 289.0 125.0 1.000 1.000 1.000
v 96.0 329.0 75.0 1.000 1.000 1.000
v 96.0 343.0 70.0 1.000 1.000 1.000
v 96.0 348.0 75.0 1.000 1.000 1.000
v 96.0 343.0 89.0 1.000 1.000 1.000
v 96.0 306.0 126.0 1.000 1.000 1.000
v 96.0 292.0 112.0 1.000 1.000 1.000
v 96.0 292.0 131.0 1.000 1.000 1.000
v 96.0 289.0 125.0 1.000 1.000 1.000
v 96.0 346.0 7.0 1.000 1.000 1.000
v 96.0 355.0 -3.0 1.000 1.000 1.000
v 96.0 362.0 -4.0 1.000 1.000 1.000
v 96.0 366.0 10.0 1.000 1.000 1.000
v 96.0 366.0 10.0 1.000 1.000 1.000
v 96.0 357.0 63.0 1.000 1.000 1.000
v 96.0 337.0 59.0 1.000 1.000 1.000
v -117.0 362.0 -4.0 1.000 1.000 1.000
v -117.0 355.0 -3.0 1.000 1.000 1.000
v -117.0 346.0 7.0 1.000 1.000 1.000
v -117.0 366.0 10.0 1.000 1.000 1.000
v -117.0 357.0 63.0 1.000 1.000 1.000
v -117.0 366.0 10.0 1.000 1.000 1.000
v -117.0 337.0 59.0 1.000 1.000 1.000
v -117.0 343.0 70.0 1.000 1.000 1.000
v -117.0 348.0 75.0 1.000 1.000 1.000
v -117.0 348.0 75.0 1.000 1.000 1.000
v -117.0 329.0 75.0 1.000 1.000 1.000
v -117.0 343.0 89.0 1.000 1.000 1.000
v -117.0 306.0 126.0 1.000 1.000 1.000
v -117.0 292.0 112.0 1.000 1.000 1.000
v -117.0 289.0 125.0 1.000 1.000 1.000
v -117.0 292.0 131.0 1.000 1.000 1.000
v -117.0 292.0 131.0 1.000 1.000 1.000
v -117.0 289.0 125.0 1.000 1.000 1.000
v -117.0 275.0 123.0 1.000 1.000 1.000
v -117.0 281.0 142.0 1.000 1.000 1.000
v -117.0 231.0 160.0 1.000 1.000 1.000
v -117.0 224.0 141.0 1.000 1.000 1.000
v -117.0 217.0 158.0 1.000 1.000 1.000
v -117.0 214.0 152.0 1.000 1.000 1.000
v -117.0 346.0 7.0 1.000 1.000 1.000
v -117.0 355.0 -3.0 1.000 1.000 1.000
v 96.0 355.0 -3.0 1.000 1.000 1.000
v 96.0 346.0 7.0 1.000 1.000 1.000
v -117.0 337.0 59.0 1.000 1.000 1.000
v 96.0 337.0 59.0 1.000 1.000 1.000
v -117.0 343.0 70.0 1.000 1.000 1.000
v 96.0 343.0 70.0 1.000 1.000 1.000
v -117.0 343.0 70.0 1.000 1.000 1.000
v 96.0 343.0 70.0 1.000 1.000 1.000
v 96.0 329.0 75.0 1.000 1.000 1.000
v -117.0 329.0 75.0 1.000 1.000 1.000
v 96.0 292.0 112.0 1.000 1.000 1.000
v -117.0 292.0 112.0 1.000 1.000 1.000
v -117.0 289.0 125.0 1.000 1.000 1.000
v 96.0 289.0 125.0 1.000 1.000 1.000
v -117.0 275.0 123.0 1.000 1.000 1.000
v 96.0 275.0 123.0 1.000 1.000 1.000
v 96.0 225.0 141.0 1.000 1.000 1.000
v -117.0 224.0 141.0 1.000 1.000 1.000
v -117.0 214.0 152.0 1.000 1.000 1.000
v 96.0 214.0 152.0 1.000 1.000 1.000
v -117.0 -217.0 158.0 1.000 1.000 1.000
v 96.0 -217.0 158.0 1.000 1.000 1.000
v 96.0 -214.0 152.0 1.000 1.000 1.000
v -117.0 -214.0 152.0 1.000 1.000 1.000
v -117.0 -231.0 160.0 1.000 1.000 1.000
v 96.0 -231.0 160.0 1.000 1.000 1.000
v -117.0 -281.0 142.0 1.000 1.000 1.000
v 96.0 -281.0 142.0 1.000 1.000 1.000
v -117.0 -292.0 131.0 1.000 1.000 1.000
v 96.0 -292.0 131.0 1.000 1.000 1.000
v -117.0 -306.0 126.0 1.000 1.000 1.000
v 96.0 -306.0 126.0 1.000 1.000 1.000
v -117.0 -343.0 89.0 1.000 1.000 1.000
v 96.0 -343.0 89.0 1.000 1.000 1.000
v -117.0 -348.0 75.0 1.000 1.000 1.000
v 96.0 -348.0 75.0 1.000 1.000 1.000
v -117.0 -348.0 75.0 1.000 1.000 1.000
v 96.0 -357.0 63.0 1.000 1.000 1.000
v 96.0 -348.0 75.0 1.000 1.000 1.000
v -117.0 -357.0 63.0 1.000 1.000 1.000
v 96.0 -366.0 10.0 1.000 1.000 1.000
v -117.0 -366.0 10.0 1.000 1.000 1.000
v -117.0 -366.0 10.0 1.000 1.000 1.000
v -117.0 -362.0 -4.0 1.000 1.000 1.000
v 96.0 -362.0 -4.0 1.000 1.000 1.000
v -117.0 -217.0 158.0 1.000 1.000 1.000
v -117.0 -214.0 152.0 1.000 1.000 1.000
v -117.0 -225.0 141.0 1.000 1.000 1.000
v -117.0 -231.0 160.0 1.000 1.000 1.000
v -117.0 -275.0 123.0 1.000 1.000 1.000
v -117.0 -281.0 142.0 1.000 1.000 1.000
v -117.0 -292.0 131.0 1.000 1.000 1.000
v -117.0 -275.0 123.0 1.000 1.000 1.000
v -117.0 -289.0 125.0 1.000 1.000 1.000
v -117.0 -292.0 131.0 1.000 1.000 1.000
v -117.0 -329.0 75.0 1.000 1.000 1.000
v -117.0 -343.0 70.0 1.000 1.000 1.000
v -117.0 -348.0 75.0 1.000 1.000 1.000
v -117.0 -343.0 89.0 1.000 1.000 1.000
v -117.0 -306.0 126.0 1.000 1.000 1.000
v -117.0 -292.0 112.0 1.000 1.000 1.000
v -117.0 -346.0 7.0 1.000 1.000 1.000
v -117.0 -355.0 -3.0 1.000 1.000 1.000
v -117.0 -362.0 -4.0 1.000 1.000 1.000
v -117.0 -366.0 10.0 1.000 1.000 1.000
v -117.0 -357.0 63.0 1.000 1.000 1.000
v -117.0 -337.0 59.0 1.000 1.000 1.000
v 96.0 -362.0 -4.0 1.000 1.000 1.000
v 96.0 -355.0 -3.0 1.000 1.000 1.000
v 96.0 -346.0 7.0 1.000 1.000 1.000
v 96.0 -366.0 10.0 1.000 1.000 1.000
v 96.0 -357.0 63.0 1.000 1.000 1.000
v 96.0 -337.0 59.0 1.000 1.000 1.000
v 96.0 -343.0 70.0 1.000 1.000 1.000
v 96.0 -348.0 75.0 1.000 1.000 1.000
v 96.0 -329.0 75.0 1.000 1.000 1.000
v 96.0 -343.0 89.0 1.000 1.000 1.000
v 96.0 -306.0 126.0 1.000 1.000 1.000
v 96.0 -292.0 112.0 1.000 1.000 1.000
v 96.0 -289.0 125.0 1.000 1.000 1.000
v 96.0 -292.0 131.0 1.000 1.000 1.000
v 96.0 -275.0 123.0 1.000 1.000 1.000
v 96.0 -281.0 142.0 1.000 1.000 1.000
v 96.0 -231.0 160.0 1.000 1.000 1.000
v 96.0 -281.0 142.0 1.000 1.000 1.000
v 96.0 -275.0 123.0 1.000 1.000 1.000
v 96.0 -224.0 141.0 1.000 1.000 1.000
v 96.0 -217.0 158.0 1.000 1.000 1.000
v 96.0 -214.0 152.0 1.000 1.000 1.000
v 96.0 -214.0 152.0 1.000 1.000 1.000
v 96.0 -224.0 141.0 1.000 1.000 1.000
v -117.0 -225.0 141.0 1.000 1.000 1.000
v -117.0 -214.0 152.0 1.000 1.000 1.000
v 96.0 -275.0 123.0 1.000 1.000 1.000
v -117.0 -275.0 123.0 1.000 1.000 1.000
v 96.0 -289.0 125.0 1.000 1.000 1.000
v -117.0 -289.0 125.0 1.000 1.000 1.000
v 96.0 -292.0 112.0 1.000 1.000 1.000
v -117.0 -292.0 112.0 1.000 1.000 1.000
v 96.0 -292.0 112.0 1.000 1.000 1.000
v 96.0 -329.0 75.0 1.000 1.000 1.000
v -117.0 -329.0 75.0 1.000 1.000 1.000
v -117.0 -292.0 112.0 1.000 1.000 1.000
v 96.0 -343.0 70.0 1.000 1.000 1.000
v -117.0 -343.0 70.0 1.000 1.000 1.000
v 96.0 -337.0 59.0 1.000 1.000 1.000
v -117.0 -337.0 59.0 1.000 1.000 1.000
v 96.0 -346.0 7.0 1.000 1.000 1.000
v -117.0 -346.0 7.0 1.000 1.000 1.000
v 96.0 -355.0 -3.0 1.000 1.000 1.000
v -117.0 -355.0 -3.0 1.000 1.000 1.000
v -117.0 214.0 -160.0 1.000 1.000 1.000
v -117.0 217.0 -166.0 1.000 1.000 1.000
v 96.0 217.0 -166.0 1.000 1.000 1.000
v 96.0 214.0 -160.0 1.000 1.000 1.000
v -117.0 217.0 -166.0 1.000 1.000 1.000
v -117.0 231.0 -168.0 1.000 1.000 1.000
v 96.0 231.0 -168.0 1.000 1.000 1.000
v 96.0 217.0 -166.0 1.000 1.000 1.000
v 96.0 281.0 -150.0 1.000 1.000 1.000
v -117.0 281.0 -150.0 1.000 1.000 1.000
v -117.0 292.0 -139.0 1.000 1.000 1.000
v 96.0 292.0 -139.0 1.000 1.000 1.000
v -117.0 306.0 -134.0 1.000 1.000 1.000
v 96.0 306.0 -134.0 1.000 1.000 1.000
v 96.0 343.0 -97.0 1.000 1.000 1.000
v -117.0 343.0 -97.0 1.000 1.000 1.000
v 96.0 348.0 -83.0 1.000 1.000 1.000
v -117.0 348.0 -83.0 1.000 1.000 1.000
v -117.0 357.0 -71.0 1.000 1.000 1.000
v 96.0 357.0 -71.0 1.000 1.000 1.000
v 96.0 357.0 -71.0 1.000 1.000 1.000
v -117.0 357.0 -71.0 1.000 1.000 1.000
v -117.0 366.0 -18.0 1.000 1.000 1.000
v 96.0 366.0 -18.0 1.000 1.000 1.000
v -117.0 366.0 -18.0 1.000 1.000 1.000
v 96.0 362.0 -4.0 1.000 1.000 1.000
v 96.0 366.0 -18.0 1.000 1.000 1.000
v -117.0 362.0 -4.0 1.000 1.000 1.000
v 96.0 225.0 -149.0 1.000 1.000 1.000
v 96.0 214.0 -160.0 1.000 1.000 1.000
v 96.0 217.0 -166.0 1.000 1.000 1.000
v 96.0 231.0 -168.0 1.000 1.000 1.000
v 96.0 275.0 -131.0 1.000 1.000 1.000
v 96.0 281.0 -150.0 1.000 1.000 1.000
v 96.0 292.0 -139.0 1.000 1.000 1.000
v 96.0 289.0 -133.0 1.000 1.000 1.000
v 96.0 348.0 -83.0 1.000 1.000 1.000
v 96.0 343.0 -78.0 1.000 1.000 1.000
v 96.0 329.0 -83.0 1.000 1.000 1.000
v 96.0 343.0 -97.0 1.000 1.000 1.000
v 96.0 306.0 -134.0 1.000 1.000 1.000
v 96.0 292.0 -120.0 1.000 1.000 1.000
v 96.0 292.0 -139.0 1.000 1.000 1.000
v 96.0 289.0 -133.0 1.000 1.000 1.000
v 96.0 362.0 -4.0 1.000 1.000 1.000
v 96.0 355.0 -3.0 1.000 1.000 1.000
v 96.0 346.0 -15.0 1.000 1.000 1.000
v 96.0 366.0 -18.0 1.000 1.000 1.000
v 96.0 357.0 -71.0 1.000 1.000 1.000
v 96.0 366.0 -18.0 1.000 1.000 1.000
v 96.0 337.0 -67.0 1.000 1.000 1.000
v -117.0 346.0 -15.0 1.000 1.000 1.000
v -117.0 355.0 -3.0 1.000 1.000 1.000
v -117.0 362.0 -4.0 1.000 1.000 1.000
v -117.0 366.0 -18.0 1.000 1.000 1.000
v -117.0 366.0 -18.0 1.000 1.000 1.000
v -117.0 357.0 -71.0 1.000 1.000 1.000
v -117.0 337.0 -67.0 1.000 1.000 1.000
v -117.0 348.0 -83.0 1.000 1.000 1.000
v -117.0 343.0 -78.0 1.000 1.000 1.000
v -117.0 348.0 -83.0 1.000 1.000 1.000
v -117.0 329.0 -83.0 1.000 1.000 1.000
v -117.0 343.0 -97.0 1.000 1.000 1.000
v -117.0 306.0 -134.0 1.000 1.000 1.000
v -117.0 292.0 -120.0 1.000 1.000 1.000
v -117.0 292.0 -139.0 1.000 1.000 1.000
v -117.0 289.0 -133.0 1.000 1.000 1.000
v -117.0 275.0 -131.0 1.000 1.000 1.000
v -117.0 289.0 -133.0 1.000 1.000 1.000
v -117.0 292.0 -139.0 1.000 1.000 1.000
v -117.0 281.0 -150.0 1.000 1.000 1.000
v -117.0 231.0 -168.0 1.000 1.000 1.000
v -117.0 224.0 -149.0 1.000 1.000 1.000
v -117.0 217.0 -166.0 1.000 1.000 1.000
v -117.0 214.0 -160.0 1.000 1.000 1.000
v 96.0 214.0 -160.0 1.000 1.000 1.000
v 96.0 225.0 -149.0 1.000 1.000 1.000
v -117.0 224.0 -149.0 1.000 1.000 1.000
v -117.0 214.0 -160.0 1.000 1.000 1.000
v 96.0 275.0 -131.0 1.000 1.000 1.000
v -117.0 275.0 -131.0 1.000 1.000 1.000
v 96.0 289.0 -133.0 1.000 1.000 1.000
v -117.0 289.0 -133.0 1.000 1.000 1.000
v 96.0 289.0 -133.0 1.000 1.000 1.000
v 96.0 292.0 -120.0 1.000 1.000 1.000
v -117.0 292.0 -120.0 1.000 1.000 1.000
v -117.0 289.0 -133.0 1.000 1.000 1.000
v 96.0 329.0 -83.0 1.000 1.000 1.000
v -117.0 329.0 -83.0 1.000 1.000 1.000
v 96.0 343.0 -78.0 1.000 1.000 1.000
v -117.0 343.0 -78.0 1.000 1.000 1.000
v 96.0 337.0 -67.0 1.000 1.000 1.000
v -117.0 337.0 -67.0 1.000 1.000 1.000
v 96.0 346.0 -15.0 1.000 1.000 1.000
v -117.0 346.0 -15.0 1.000 1.000 1.000
v 96.0 355.0 -3.0 1.000 1.000 1.000
v -117.0 355.0 -3.0 1.000 1.000 1.000
v 96.0 -214.0 -160.0 1.000 1.000 1.000
v 96.0 -217.0 -166.0 1.000 1.000 1.000
v -117.0 -217.0 -166.0 1.000 1.000 1.000
v -117.0 -214.0 -160.0 1.000 1.000 1.000
v 96.0 -217.0 -166.0 1.000 1.000 1.000
v 96.0 -231.0 -168.0 1.000 1.000 1.000
v -117.0 -231.0 -168.0 1.000 1.000 1.000
v -117.0 -217.0 -166.0 1.000 1.000 1.000
v -117.0 -281.0 -150.0 1.000 1.000 1.000
v 96.0 -281.0 -150.0 1.000 1.000 1.000
v 96.0 -292.0 -139.0 1.000 1.000 1.000
v -117.0 -292.0 -139.0 1.000 1.000 1.000
v 96.0 -306.0 -134.0 1.000 1.000 1.000
v -117.0 -306.0 -134.0 1.000 1.000 1.000
v -117.0 -343.0 -97.0 1.000 1.000 1.000
v 96.0 -343.0 -97.0 1.000 1.000 1.000
v -117.0 -343.0 -97.0 1.000 1.000 1.000
v 96.0 -343.0 -97.0 1.000 1.000 1.000
v -117.0 -348.0 -83.0 1.000 1.000 1.000
v 96.0 -348.0 -83.0 1.000 1.000 1.000
v 96.0 -357.0 -71.0 1.000 1.000 1.000
v -117.0 -357.0 -71.0 1.000 1.000 1.000
v 96.0 -366.0 -18.0 1.000 1.000 1.000
v -117.0 -366.0 -18.0 1.000 1.000 1.000
v -117.0 -362.0 -4.0 1.000 1.000 1.000
v -117.0 -366.0 -18.0 1.000 1.000 1.000
v 96.0 -362.0 -4.0 1.000 1.000 1.000
v -117.0 -225.0 -149.0 1.000 1.000 1.000
v -117.0 -214.0 -160.0 1.000 1.000 1.000
v -117.0 -217.0 -166.0 1.000 1.000 1.000
v -117.0 -231.0 -168.0 1.000 1.000 1.000
v -117.0 -275.0 -131.0 1.000 1.000 1.000
v -117.0 -231.0 -168.0 1.000 1.000 1.000
v -117.0 -281.0 -150.0 1.000 1.000 1.000
v -117.0 -275.0 -131.0 1.000 1.000 1.000
v -117.0 -292.0 -139.0 1.000 1.000 1.000
v -117.0 -289.0 -133.0 1.000 1.000 1.000
v -117.0 -348.0 -83.0 1.000 1.000 1.000
v -117.0 -343.0 -78.0 1.000 1.000 1.000
v -117.0 -329.0 -83.0 1.000 1.000 1.000
v -117.0 -343.0 -97.0 1.000 1.000 1.000
v -117.0 -306.0 -134.0 1.000 1.000 1.000
v -117.0 -292.0 -120.0 1.000 1.000 1.000
v -117.0 -362.0 -4.0 1.000 1.000 1.000
v -117.0 -355.0 -3.0 1.000 1.000 1.000
v -117.0 -346.0 -15.0 1.000 1.000 1.000
v -117.0 -366.0 -18.0 1.000 1.000 1.000
v -117.0 -357.0 -71.0 1.000 1.000 1.000
v -117.0 -346.0 -15.0 1.000 1.000 1.000
v -117.0 -337.0 -67.0 1.000 1.000 1.000
v -117.0 -357.0 -71.0 1.000 1.000 1.000
v -117.0 -348.0 -83.0 1.000 1.000 1.000
v -117.0 -343.0 -78.0 1.000 1.000 1.000
v 96.0 -346.0 -15.0 1.000 1.000 1.000
v 96.0 -355.0 -3.0 1.000 1.000 1.000
v 96.0 -362.0 -4.0 1.000 1.000 1.000
v 96.0 -366.0 -18.0 1.000 1.000 1.000
v 96.0 -357.0 -71.0 1.000 1.000 1.000
v 96.0 -337.0 -67.0 1.000 1.000 1.000
v 96.0 -348.0 -83.0 1.000 1.000 1.000
v 96.0 -343.0 -78.0 1.000 1.000 1.000
v 96.0 -329.0 -83.0 1.000 1.000 1.000
v 96.0 -343.0 -97.0 1.000 1.000 1.000
v 96.0 -306.0 -134.0 1.000 1.000 1.000
v 96.0 -306.0 -134.0 1.000 1.000 1.000
v 96.0 -292.0 -120.0 1.000 1.000 1.000
v 96.0 -329.0 -83.0 1.000 1.000 1.000
v 96.0 -292.0 -139.0 1.000 1.000 1.000
v 96.0 -289.0 -133.0 1.000 1.000 1.000
v 96.0 -275.0 -131.0 1.000 1.000 1.000
v 96.0 -281.0 -150.0 1.000 1.000 1.000
v 96.0 -231.0 -168.0 1.000 1.000 1.000
v 96.0 -224.0 -149.0 1.000 1.000 1.000
v 96.0 -217.0 -166.0 1.000 1.000 1.000
v 96.0 -214.0 -160.0 1.000 1.000 1.000
v 96.0 -224.0 -149.0 1.000 1.000 1.000
v 96.0 -214.0 -160.0 1.000 1.000 1.000
v -117.0 -214.0 -160.0 1.000 1.000 1.000
v -117.0 -225.0 -149.0 1.000 1.000 1.000
v 96.0 -275.0 -131.0 1.000 1.000 1.000
v 96.0 -275.0 -131.0 1.000 1.000 1.000
v -117.0 -225.0 -149.0 1.000 1.000 1.000
v -117.0 -275.0 -131.0 1.000 1.000 1.000
v 96.0 -289.0 -133.0 1.000 1.000 1.000
v -117.0 -289.0 -133.0 1.000 1.000 1.000
v 96.0 -292.0 -120.0 1.000 1.000 1.000
v -117.0 -292.0 -120.0 1.000 1.000 1.000
v 96.0 -329.0 -83.0 1.000 1.000 1.000
v -117.0 -329.0 -83.0 1.000 1.000 1.000
v 96.0 -343.0 -78.0 1.000 1.000 1.000
v -117.0 -343.0 -78.0 1.000 1.000 1.000
v 96.0 -337.0 -67.0 1.000 1.000 1.000
v -117.0 -337.0 -67.0 1.000 1.000 1.000
v 96.0 -346.0 -15.0 1.000 1.000 1.000
v -117.0 -346.0 -15.0 1.000 1.000 1.000
v 96.0 -355.0 -3.0 1.000 1.000 1.000
v 96.0 -355.0 -3.0 1.000 1.000 1.000
v -117.0 -346.0 -15.0 1.000 1.000 1.000
v -117.0 -355.0 -3.0 1.000 1.000 1.000
v -104.0 51.0 196.0 1.000 1.000 1.000
v -104.0 65.0 196.0 1.000 1.000 1.000
v -117.0 65.0 196.0 1.000 1.000 1.000
v -117.0 51.0 196.0 1.000 1.000 1.000
v -62.0 92.0 196.0 1.000 1.000 1.000
v -62.0 106.0 196.0 1.000 1.000 1.000
v -75.0 106.0 196.0 1.000 1.000 1.000
v -75.0 92.0 196.0 1.000 1.000 1.000
v 53.0 92.0 196.0 1.000 1.000 1.000
v 53.0 106.0 196.0 1.000 1.000 1.000
v 40.0 106.0 196.0 1.000 1.000 1.000
v 40.0 92.0 196.0 1.000 1.000 1.000
v 96.0 51.0 196.0 1.000 1.000 1.000
v 96.0 65.0 196.0 1.000 1.000 1.000
v 82.0 65.0 196.0 1.000 1.000 1.000
v 82.0 51.0 196.0 1.000 1.000 1.000
v 96.0 -64.0 196.0 1.000 1.000 1.000
v 96.0 -50.0 196.0 1.000 1.000 1.000
v 82.0 -50.0 196.0 1.000 1.000 1.000
v 82.0 -64.0 196.0 1.000 1.000 1.000
v 53.0 -107.0 196.0 1.000 1.000 1.000
v 53.0 -93.0 196.0 1.000 1.000 1.000
v 40.0 -93.0 196.0 1.000 1.000 1.000
v 40.0 -107.0 196.0 1.000 1.000 1.000
v -61.0 -106.0 196.0 1.000 1.000 1.000
v -61.0 -93.0 196.0 1.000 1.000 1.000
v -75.0 -93.0 196.0 1.000 1.000 1.000
v -75.0 -106.0 196.0 1.000 1.000 1.000
v -104.0 -64.0 196.0 1.000 1.000 1.000
v -104.0 -50.0 196.0 1.000 1.000 1.000
v -117.0 -50.0 196.0 1.000 1.000 1.000
v -117.0 -64.0 196.0 1.000 1.000 1.000
v -6.0 -93.0 196.0 1.000 1.000 1.000
v -16.0 -93.0 196.0 1.000 1.000 1.000
v -16.0 -122.0 196.0 1.000 1.000 1.000
v -6.0 -122.0 196.0 1.000 1.000 1.000
v -133.0 5.0 196.0 1.000 1.000 1.000
v -133.0 -5.0 196.0 1.000 1.000 1.000
v -104.0 -5.0 196.0 1.000 1.000 1.000
v -104.0 5.0 196.0 1.000 1.000 1.000
v 83.0 5.0 196.0 1.000 1.000 1.000
v 83.0 -5.0 196.0 1.000 1.000 1.000
v 111.0 -5.0 196.0 1.000 1.000 1.000
v 111.0 5.0 196.0 1.000 1.000 1.000
v -13.0 122.0 196.0 1.000 1.000 1.000
v -23.0 122.0 196.0 1.000 1.000 1.000
v -23.0 93.0 196.0 1.000 1.000 1.000
v -13.0 93.0 196.0 1.000 1.000 1.000
v 1.0 122.0 196.0 1.000 1.000 1.000
v -8.0 122.0 196.0 1.000 1.000 1.000
v -8.0 93.0 196.0 1.000 1.000 1.000
v 1.0 93.0 196.0 1.000 1.000 1.000
v 195.0 21.0 182.0 1.000 1.000 1.000
v 195.0 -21.0 182.0 1.000 1.000 1.000
v 229.0 -21.0 182.0 1.000 1.000 1.000
v 229.0 21.0 182.0 1.000 1.000 1.000
v -200.0 85.0 182.0 1.000 1.000 1.000
v -178.0 121.0 182.0 1.000 1.000 1.000
v -208.0 138.0 182.0 1.000 1.000 1.000
v -229.0 102.0 182.0 1.000 1.000 1.000
v -171.0 0.0 208.0 1.000 1.000 1.000
v -152.0 -38.0 195.0 1.000 1.000 1.000
v -157.0 0.0 195.0 1.000 1.000 1.000
v -165.0 -41.0 208.0 1.000 1.000 1.000
v -138.0 -73.0 195.0 1.000 1.000 1.000
v -149.0 -80.0 208.0 1.000 1.000 1.000
v -149.0 -80.0 208.0 1.000 1.000 1.000
v -114.0 -104.0 195.0 1.000 1.000 1.000
v -138.0 -73.0 195.0 1.000 1.000 1.000
v -124.0 -113.0 208.0 1.000 1.000 1.000
v -84.0 -127.0 195.0 1.000 1.000 1.000
v -91.0 -138.0 208.0 1.000 1.000 1.000
v -49.0 -141.0 195.0 1.000 1.000 1.000
v -52.0 -154.0 208.0 1.000 1.000 1.000
v -11.0 -146.0 195.0 1.000 1.000 1.000
v -11.0 -160.0 208.0 1.000 1.000 1.000
v -11.0 -160.0 208.0 1.000 1.000 1.000
v 27.0 -141.0 195.0 1.000 1.000 1.000
v -11.0 -146.0 195.0 1.000 1.000 1.000
v 31.0 -154.0 208.0 1.000 1.000 1.000
v 62.0 -127.0 195.0 1.000 1.000 1.000
v 69.0 -138.0 208.0 1.000 1.000 1.000
v 93.0 -104.0 195.0 1.000 1.000 1.000
v 102.0 -113.0 208.0 1.000 1.000 1.000
v 116.0 -73.0 195.0 1.000 1.000 1.000
v 128.0 -80.0 208.0 1.000 1.000 1.000
v 131.0 -38.0 195.0 1.000 1.000 1.000
v 144.0 -41.0 208.0 1.000 1.000 1.000
v 136.0 0.0 195.0 1.000 1.000 1.000
v 149.0 0.0 208.0 1.000 1.000 1.000
v 131.0 38.0 195.0 1.000 1.000 1.000
v 144.0 41.0 208.0 1.000 1.000 1.000
v 144.0 41.0 208.0 1.000 1.000 1.000
v 116.0 73.0 195.0 1.000 1.000 1.000
v 131.0 38.0 195.0 1.000 1.000 1.000
v 128.0 80.0 208.0 1.000 1.000 1.000
v 93.0 104.0 195.0 1.000 1.000 1.000
v 102.0 113.0 208.0 1.000 1.000 1.000
v 102.0 113.0 208.0 1.000 1.000 1.000
v 62.0 127.0 195.0 1.000 1.000 1.000
v 93.0 104.0 195.0 1.000 1.000 1.000
v 69.0 138.0 208.0 1.000 1.000 1.000
v 27.0 141.0 195.0 1.000 1.000 1.000
v 31.0 154.0 208.0 1.000 1.000 1.000
v -11.0 146.0 195.0 1.000 1.000 1.000
v -11.0 160.0 208.0 1.000 1.000 1.000
v -49.0 141.0 195.0 1.000 1.000 1.000
v -52.0 154.0 208.0 1.000 1.000 1.000
v -52.0 154.0 208.0 1.000 1.000 1.000
v -84.0 127.0 195.0 1.000 1.000 1.000
v -49.0 141.0 195.0 1.000 1.000 1.000
v -91.0 138.0 208.0 1.000 1.000 1.000
v -114.0 104.0 195.0 1.000 1.000 1.000
v -124.0 113.0 208.0 1.000 1.000 1.000
v -138.0 73.0 195.0 1.000 1.000 1.000
v -149.0 80.0 208.0 1.000 1.000 1.000
v -152.0 38.0 195.0 1.000 1.000 1.000
v -165.0 41.0 208.0 1.000 1.000 1.000
v -157.0 0.0 195.0 1.000 1.000 1.000
v -171.0 0.0 208.0 1.000 1.000 1.000
v -197.0 0.0 195.0 1.000 1.000 1.000
v -165.0 -41.0 208.0 1.000 1.000 1.000
v -191.0 -48.0 195.0 1.000 1.000 1.000
v -149.0 -80.0 208.0 1.000 1.000 1.000
v -172.0 -93.0 195.0 1.000 1.000 1.000
v -149.0 -80.0 208.0 1.000 1.000 1.000
v -191.0 -48.0 195.0 1.000 1.000 1.000
v -172.0 -93.0 195.0 1.000 1.000 1.000
v -124.0 -113.0 208.0 1.000 1.000 1.000
v -149.0 -80.0 208.0 1.000 1.000 1.000
v -143.0 -132.0 195.0 1.000 1.000 1.000
v -91.0 -138.0 208.0 1.000 1.000 1.000
v -104.0 -161.0 195.0 1.000 1.000 1.000
v -52.0 -154.0 208.0 1.000 1.000 1.000
v -59.0 -180.0 195.0 1.000 1.000 1.000
v -11.0 -160.0 208.0 1.000 1.000 1.000
v -11.0 -186.0 195.0 1.000 1.000 1.000
v 31.0 -154.0 208.0 1.000 1.000 1.000
v 37.0 -180.0 195.0 1.000 1.000 1.000
v 69.0 -138.0 208.0 1.000 1.000 1.000
v 82.0 -161.0 195.0 1.000 1.000 1.000
v 69.0 -138.0 208.0 1.000 1.000 1.000
v 37.0 -180.0 195.0 1.000 1.000 1.000
v 102.0 -113.0 208.0 1.000 1.000 1.000
v 121.0 -132.0 195.0 1.000 1.000 1.000
v 128.0 -80.0 208.0 1.000 1.000 1.000
v 151.0 -93.0 195.0 1.000 1.000 1.000
v 144.0 -41.0 208.0 1.000 1.000 1.000
v 169.0 -48.0 195.0 1.000 1.000 1.000
v 149.0 0.0 208.0 1.000 1.000 1.000
v 176.0 0.0 195.0 1.000 1.000 1.000
v 144.0 41.0 208.0 1.000 1.000 1.000
v 169.0 48.0 195.0 1.000 1.000 1.000
v 128.0 80.0 208.0 1.000 1.000 1.000
v 151.0 93.0 195.0 1.000 1.000 1.000
v 102.0 113.0 208.0 1.000 1.000 1.000
v 121.0 132.0 195.0 1.000 1.000 1.000
v 102.0 113.0 208.0 1.000 1.000 1.000
v 151.0 93.0 195.0 1.000 1.000 1.000
v 121.0 132.0 195.0 1.000 1.000 1.000
v 69.0 138.0 208.0 1.000 1.000 1.000
v 102.0 113.0 208.0 1.000 1.000 1.000
v 82.0 161.0 195.0 1.000 1.000 1.000
v 31.0 154.0 208.0 1.000 1.000 1.000
v 37.0 180.0 195.0 1.000 1.000 1.000
v -11.0 160.0 208.0 1.000 1.000 1.000
v -11.0 186.0 195.0 1.000 1.000 1.000
v -52.0 154.0 208.0 1.000 1.000 1.000
v -59.0 180.0 195.0 1.000 1.000 1.000
v -91.0 138.0 208.0 1.000 1.000 1.000
v -104.0 161.0 195.0 1.000 1.000 1.000
v -124.0 113.0 208.0 1.000 1.000 1.000
v -143.0 132.0 195.0 1.000 1.000 1.000
v -124.0 113.0 208.0 1.000 1.000 1.000
v -104.0 161.0 195.0 1.000 1.000 1.000
v -149.0 80.0 208.0 1.000 1.000 1.000
v -172.0 93.0 195.0 1.000 1.000 1.000
v -165.0 41.0 208.0 1.000 1.000 1.000
v -191.0 48.0 195.0 1.000 1.000 1.000
v -171.0 0.0 208.0 1.000 1.000 1.000
v -197.0 0.0 195.0 1.000 1.000 1.000
vt 1.0000 0.0000
vt 0.0176 0.0020
vt 0.0161 0.0996
vt 0.9985 0.0977
vt 0.0103 0.4902
vt 0.9927 0.4883
vt 0.0049 0.8945
vt 0.9873 0.8926
vt 0.0039 0.9912
vt 0.9863 0.9893
vt 0.9873 0.8906
vt 0.9863 0.9844
vt 0.9932 0.4873
vt 0.9985 0.0967
vt 1.0000 0.0059
vt 0.0176 0.0078
vt 0.0161 0.0986
vt 0.0107 0.4893
vt 0.0049 0.8936
vt 0.0039 0.9863
vt 0.4062 0.5625
vt 0.4062 0.5938
vt 0.3438 0.5312
vt 0.3750 0.5625
vt 0.3438 0.4375
vt 0.4375 0.5625
vt 0.4688 0.5625
vt 0.4062 0.4062
vt 0.3438 0.5000
vt 0.3125 0.5000
vt 0.4688 0.4062
vt 0.5000 0.4375
vt 0.4688 0.5312
vt 0.5000 0.5312
vt 0.3750 0.4062
vt 0.5000 0.5000
vt 0.4062 0.5000
vt 0.4062 0.4688
vt 0.4062 0.5312
vt -0.2188 0.8750
vt -0.1562 -1.0312
vt 2.3125 -3.2500
vt 3.3750 -2.3438
vt 0.8438 -2.7812
vt 3.3125 -0.4375
vt 0.8438 1.7812
vt 2.3125 1.3125
vt 0.8931 0.2822
vt 0.8960 0.3330
vt 0.7358 0.2646
vt 0.7759 0.3330
vt 0.9717 0.7607
vt 0.9751 0.7002
vt 0.2642 0.7354
vt 0.1040 0.6670
vt 0.1069 0.7178
vt 0.2246 0.6670
vt 0.1069 0.7168
vt 0.8931 0.7178
vt 0.8960 0.6670
vt 0.7358 0.7354
vt 0.7749 0.6670
vt 0.9717 0.2393
vt 0.9751 0.2998
vt 0.1069 0.2822
vt 0.1040 0.3330
vt 0.2642 0.2646
vt 0.2241 0.3330
vt 0.1875 0.5000
vt 0.2183 0.4248
vt 0.1782 0.4141
vt 0.2295 0.3438
vt 0.2939 0.2939
vt 0.3438 0.2295
vt 0.4243 0.2188
vt 0.4136 0.1777
vt 0.5000 0.1875
vt 0.5864 0.1777
vt 0.5757 0.2188
vt 0.6562 0.2295
vt 0.7061 0.2939
vt 0.7705 0.3438
vt 0.7817 0.4248
vt 0.8218 0.4141
vt 0.8125 0.5000
vt 0.7817 0.5752
vt 0.8218 0.5859
vt 0.7705 0.6562
vt 0.7061 0.7061
vt 0.6562 0.7705
vt 0.5757 0.7812
vt 0.5864 0.8223
vt 0.5000 0.8125
vt 0.4243 0.7812
vt 0.4136 0.8223
vt 0.3438 0.7705
vt 0.2939 0.7061
vt 0.2295 0.6562
vt 0.2183 0.5752
vt 0.1782 0.5859
vt 0.0571 0.4814
vt 0.8750 0.8154
vt 0.9907 0.5918
vt 0.1729 0.2578
vt 0.0659 0.7197
vt 0.1978 0.9102
vt 0.4170 0.9990
vt 0.6646 0.9648
vt 0.9819 0.3535
vt 0.8501 0.1641
vt 0.6309 0.0742
vt 0.3833 0.1084
vt 0.0405 0.0117
vt 0.9868 0.0078
vt 0.9868 0.0215
vt 0.0405 0.0244
vt 0.0400 0.0547
vt 0.9863 0.0518
vt 0.0376 0.2803
vt 0.9834 0.2773
vt 0.0366 0.3496
vt 0.9829 0.3467
vt 0.0356 0.4121
vt 0.9819 0.4092
vt 0.0332 0.6611
vt 0.9790 0.6582
vt 0.0322 0.7236
vt 0.9785 0.7197
vt 0.9775 0.7891
vt 0.0312 0.7920
vt 0.9756 0.9932
vt 0.0293 0.9961
vt 0.0288 1.0293
vt 0.9751 1.0264
vt 0.0396 0.0938
vt 0.0371 0.3203
vt 0.0366 0.3633
vt 0.0298 0.9424
vt 0.0288 1.0117
vt 0.0322 0.7383
vt 0.9751 1.0078
vt 0.9761 0.9395
vt 0.9785 0.7354
vt 0.9785 0.7207
vt 0.9829 0.3594
vt 0.9834 0.3164
vt 0.9858 0.0908
vt 0.9644 0.9287
vt 0.9629 0.9980
vt 0.0303 0.9941
vt 0.0312 0.9248
vt 0.9688 0.7051
vt 0.0356 0.7012
vt 0.9692 0.6826
vt 0.0361 0.6787
vt 0.0376 0.6211
vt 0.9702 0.6250
vt 0.0420 0.3750
vt 0.9751 0.3789
vt 0.9761 0.3252
vt 0.0435 0.3213
vt 0.9766 0.2900
vt 0.0439 0.2861
vt 0.0479 0.0781
vt 0.9810 0.0820
vt 0.9819 0.0127
vt 0.0493 0.0088
vt 0.0176 0.0000
vt 0.9829 0.0029
vt 0.9829 0.0156
vt 0.0181 0.0127
vt 0.0181 0.0430
vt 0.9829 0.0459
vt 0.0205 0.2656
vt 0.9854 0.2695
vt 0.0210 0.3350
vt 0.9858 0.3379
vt 0.0215 0.3965
vt 0.9863 0.4004
vt 0.0239 0.6436
vt 0.9888 0.6465
vt 0.0244 0.7051
vt 0.9893 0.7080
vt 0.9897 0.7764
vt 0.0249 0.7734
vt 0.9917 0.9785
vt 0.0269 0.9746
vt 0.0273 1.0078
vt 0.9922 1.0107
vt 0.0186 0.0820
vt 0.0205 0.3047
vt 0.0210 0.3477
vt 0.0264 0.9219
vt 0.0269 0.9902
vt 0.0249 0.7725
vt 0.0244 0.7197
vt 0.9917 0.9932
vt 0.9912 0.9258
vt 0.9893 0.7236
vt 0.9858 0.3516
vt 0.9854 0.3086
vt 0.9834 0.0850
vt 0.9829 0.0166
vt 0.0264 0.0088
vt 0.0259 0.0781
vt 0.9790 0.0781
vt 0.9790 0.0088
vt 0.0254 0.2871
vt 0.9785 0.2871
vt 0.0254 0.3223
vt 0.9785 0.3223
vt 0.0254 0.3760
vt 0.9780 0.3760
vt 0.0244 0.6240
vt 0.9775 0.6240
vt 0.0244 0.6816
vt 0.9775 0.6807
vt 0.0244 0.7041
vt 0.9775 0.7041
vt 0.0234 0.9287
vt 0.9766 0.9287
vt 0.0234 0.9980
vt 0.9766 0.9980
vt 0.0396 0.0195
vt 0.0396 0.0889
vt 0.9854 0.0850
vt 0.9854 0.0156
vt 0.0391 0.2969
vt 0.9849 0.2939
vt 0.0391 0.3320
vt 0.9849 0.3281
vt 0.0391 0.3857
vt 0.9844 0.3828
vt 0.0381 0.6338
vt 0.9839 0.6299
vt 0.0381 0.6904
vt 0.9839 0.6865
vt 0.0381 0.7139
vt 0.9839 0.7100
vt 0.0376 0.9375
vt 0.9834 0.9336
vt 0.0376 1.0078
vt 0.9829 1.0039
vt 0.9819 0.0859
vt 0.9819 0.0166
vt 0.0190 0.0195
vt 0.0186 0.0879
vt 0.9814 0.2930
vt 0.0186 0.2959
vt 0.9814 0.3281
vt 0.0186 0.3301
vt 0.9814 0.3818
vt 0.0186 0.3838
vt 0.9810 0.6270
vt 0.0181 0.6299
vt 0.9810 0.6846
vt 0.0181 0.6865
vt 0.9810 0.7070
vt 0.0181 0.7100
vt 0.9805 0.9297
vt 0.0176 0.9316
vt 0.9805 0.9990
vt 0.0176 1.0010
vt 1.0000 1.0000
vt 0.0000 0.0000
vt 0.0000 1.0000
vt 1.0000 0.0186
vt 0.0186 0.0186
vt 0.0186 1.0000
vt 0.4302 0.0244
vt 0.5288 0.0869
vt 0.4302 0.0664
vt 0.5376 0.0459
vt 0.6201 0.1367
vt 0.6372 0.1016
vt 0.7183 0.2100
vt 0.6475 0.1650
vt 0.6948 0.2227
vt 0.6660 0.1465
vt 0.5854 0.1211
vt 0.5986 0.0986
vt 0.5132 0.0947
vt 0.5200 0.0693
vt 0.4365 0.0859
vt 0.4360 0.0605
vt 0.3599 0.0977
vt 0.3525 0.0723
vt 0.2886 0.1270
vt 0.2749 0.1045
vt 0.2275 0.1729
vt 0.2080 0.1553
vt 0.1807 0.2324
vt 0.1572 0.2197
vt 0.1519 0.3018
vt 0.1255 0.2949
vt 0.1426 0.3750
vt 0.1152 0.3750
vt 0.1533 0.4482
vt 0.1274 0.4551
vt 0.1836 0.5156
vt 0.1602 0.5283
vt 0.2314 0.5732
vt 0.2124 0.5918
vt 0.1377 0.8701
vt 0.1016 0.7432
vt 0.1621 0.8418
vt 0.0718 0.7627
vt 0.0635 0.6299
vt 0.0303 0.6396
vt 0.0508 0.5098
vt 0.0161 0.5088
vt 0.0635 0.3916
vt 0.0303 0.3789
vt 0.1016 0.2812
vt 0.0718 0.2598
vt 0.1621 0.1885
vt 0.1377 0.1582
vt 0.2407 0.1191
vt 0.2231 0.0820
vt 0.3320 0.0771
vt 0.3232 0.0361
vt 0.4302 -0.0596
vt 0.5557 -0.0342
vt 0.6719 0.0303
vt 0.7646 0.1826
vt 0.7041 0.1094
vt 0.6250 0.0537
vt 0.5337 0.0195
vt 0.4355 0.0088
vt 0.3379 0.0234
vt 0.2471 0.0605
vt 0.1694 0.1191
vt 0.1104 0.1953
vt 0.0732 0.2832
vt 0.0615 0.3760
vt 0.0752 0.4688
vt 0.1138 0.5557
vt 0.1748 0.6289
vt 0.0889 0.9268
vt 0.0122 0.8018
vt -0.0361 0.6582
vt -0.0527 0.5049
vt -0.0361 0.3545
vt 0.0122 0.2148
vt 0.0889 0.0967
vt 0.1890 0.0078
vt 0.3052 -0.0449
vn -0.577 -0.577 -0.577
vn -0.577 -0.577 -0.577
vn -0.577 -0.577 -0.577
vn -0.577 -0.577 -0.577
vn -0.577 -0.577 -0.577
vn -0.577 -0.577 -0.577
vn -0.577 -0.577 -0.577
vn -0.577 -0.577 -0.577
vn -0.577 -0.577 -0.577
vn -0.577 -0.577 -0.577
vn -0.577 -0.577 -0.577
vn -0.577 -0.577 -0.577
vn -0.577 -0.577 -0.577
vn -0.577 -0.577 -0.577
vn -0.577 -0.577 -0.577
vn -0.577 -0.577 -0.577
vn -0.577 -0.577 -0.577
vn -0.577 -0.577 -0.577
vn -0.577 -0.577 -0.577
vn -0.577 -0.577 -0.577
vn -0.577 -0.577 -0.577
vn -0.577 -0.577 -0.577
vn -0.577 -0.577 -0.577
vn -0.577 -0.577 -0.577
vn -0.577 -0.577 -0.577
vn -0.577 -0.577 -0.577
vn -0.577 -0.577 -0.577
vn -0.577 -0.577 -0.577
vn -0.577 -0.577 -0.577
vn -0.577 -0.577 -0.577
vn -0.577 -0.577 -0.577
vn -0.577 -0.577 -0.577
vn -0.577 -0.577 -0.577
vn -0.577 -0.577 -0.577
vn -0.577 -0.577 -0.577
vn -0.577 -0.577 -0.577
vn -0.577 -0.577 -0.577
vn -0.577 -0.577 -0.577
vn -0.577 -0.577 -0.577
vn -0.577 -0.577 -0.577
vn -0.577 -0.577 -0.577
vn -0.577 -0.577 -0.577
vn -0.577 -0.577 -0.577
vn -0.577 -0.577 -0.577
vn -0.577 -0.577 -0.577
vn -0.577 -0.577 -0.577
vn -0.577 -0.577 -0.577
vn -0.577 -0.577 -0.577
vn -0.577 -0.577 -0.577
vn -0.577 -0.577 -0.577
vn -0.577 -0.577 -0.577
vn -0.577 -0.577 -0.577
vn -0.577 -0.577 -0.577
vn -0.577 -0.577 -0.577
vn -0.577 -0.577 -0.577
vn -0.577 -0.577 -0.577
vn -0.577 -0.577 -0.577
vn -0.577 -0.577 -0.577
vn -0.577 -0.577 -0.577
vn -0.577 -0.577 -0.577
vn -0.577 -0.577 -0.577
vn -0.577 -0.577 -0.577
vn -0.577 -0.577 -0.577
vn -0.577 -0.577 -0.577
vn -0.577 -0.577 -0.577
vn -0.577 -0.577 -0.577
vn -0.577 -0.577 -0.577
vn -0.577 -0.577 -0.577
vn -0.577 -0.577 -0.577
vn -0.577 -0.577 -0.577
vn -0.577 -0.577 -0.577
vn -0.577 -0.577 -0.577
vn -0.577 -0.577 -0.577
vn -0.577 -0.577 -0.577
vn -0.577 -0.577 -0.577
vn -0.577 -0.577 -0.577
vn -0.577 -0.577 -0.577
vn -0.577 -0.577 -0.577
vn -0.577 -0.577 -0.577
vn -0.577 -0.577 -0.577
vn -0.577 -0.577 -0.577
vn -0.577 -0.577 -0.577
vn -0.577 -0.577 -0.577
vn -0.577 -0.577 -0.577
vn -0.577 -0.577 -0.577
vn -0.577 -0.577 -0.577
vn -0.577 -0.577 -0.577
vn -0.577 -0.577 -0.577
vn -0.577 -0.577 -0.577
vn -0.577 -0.577 -0.577
vn -0.577 -0.577 -0.577
vn -0.577 -0.577 -0.577
vn -0.577 -0.577 -0.577
vn -0.577 -0.577 -0.577
vn -0.577 -0.577 -0.577
vn -0.577 -0.577 -0.577
vn -0.577 -0.577 -0.577
vn -0.577 -0.577 -0.577
vn -0.577 -0.577 -0.577
vn -0.577 -0.577 -0.577
vn -0.577 -0.577 -0.577
vn -0.577 -0.577 -0.577
vn -0.577 -0.577 -0.577
vn -0.577 -0.577 -0.577
vn -0.577 -0.577 -0.577
vn -0.577 -0.577 -0.577
vn -0.577 -0.577 -0.577
vn -0.577 -0.577 -0.577
vn -0.577 -0.577 -0.577
vn -0.577 -0.577 -0.577
vn -0.577 -0.577 -0.577
vn -0.577 -0.577 -0.577
vn -0.577 -0.577 -0.577
vn -0.577 -0.577 -0.577
vn -0.577 -0.577 -0.577
vn -0.577 -0.577 -0.577
vn -0.577 -0.577 -0.577
vn -0.577 -0.577 -0.577
vn -0.577 -0.577 -0.577
vn -0.577 -0.577 -0.577
vn -0.577 -0.577 -0.577
vn -0.577 -0.577 -0.577
vn -0.577 -0.577 -0.577
vn -0.577 -0.577 -0.577
vn -0.577 -0.577 -0.577
vn -0.577 -0.577 -0.577
vn -0.577 -0.577 -0.577
vn -0.577 -0.577 -0.577
vn -0.577 -0.577 -0.577
vn -0.577 -0.577 -0.577
vn -0.577 -0.577 -0.577
vn -0.577 -0.577 -0.577
vn -0.577 -0.577 -0.577
vn -0.577 -0.577 -0.577
vn -0.577 -0.577 -0.577
vn -0.577 -0.577 -0.577
vn -0.577 -0.577 -0.577
vn -0.577 -0.577 -0.577
vn -0.577 -0.577 -0.577
vn -0.577 -0.577 -0.577
vn -0.577 -0.577 -0.577
vn -0.577 -0.577 -0.577
vn -0.577 -0.577 -0.577
vn -0.577 -0.577 -0.577
vn -0.577 -0.577 -0.577
vn -0.577 -0.577 -0.577
vn -0.577 -0.577 -0.577
vn -0.577 -0.577 -0.577
vn -0.577 -0.577 -0.577
vn -0.577 -0.577 -0.577
vn -0.577 -0.577 -0.577
vn -0.577 -0.577 -0.577
vn -0.577 -0.577 -0.577
vn -0.577 -0.577 -0.577
vn -0.577 -0.577 -0.577
vn -0.577 -0.577 -0.577
vn -0.577 -0.577 -0.577
vn -0.577 -0.577 -0.577
vn -0.577 -0.577 -0.577
vn -0.577 -0.577 -0.577
vn -0.577 -0.577 -0.577
vn -0.577 -0.577 -0.577
vn -0.577 -0.577 -0.577
vn -0.577 -0.577 -0.577
vn -0.577 -0.577 -0.577
vn -0.577 -0.577 -0.577
vn -0.577 -0.577 -0.577
vn -0.577 -0.577 -0.577
vn -0.577 -0.577 -0.577
vn -0.577 -0.577 -0.577
vn -0.577 -0.577 -0.577
vn -0.577 -0.577 -0.577
vn -0.577 -0.577 -0.577
vn -0.577 -0.577 -0.577
vn -0.577 -0.577 -0.577
vn -0.577 -0.577 -0.577
vn -0.577 -0.577 -0.577
vn -0.577 -0.577 -0.577
vn -0.577 -0.577 -0.577
vn -0.577 -0.577 -0.577
vn -0.577 -0.577 -0.577
vn -0.577 -0.577 -0.577
vn -0.577 -0.577 -0.577
vn -0.577 -0.577 -0.577
vn -0.577 -0.577 -0.577
vn -0.577 -0.577 -0.577
vn -0.577 -0.577 -0.577
vn -0.577 -0.577 -0.577
vn -0.577 -0.577 -0.577
vn -0.577 -0.577 -0.577
vn -0.577 -0.577 -0.577
vn -0.577 -0.577 -0.577
vn -0.577 -0.577 -0.577
vn -0.577 -0.577 -0.577
vn -0.577 -0.577 -0.577
vn -0.577 -0.577 -0.577
vn -0.577 -0.577 -0.577
vn -0.577 -0.577 -0.577
vn -0.577 -0.577 -0.577
vn -0.577 -0.577 -0.577
vn -0.577 -0.577 -0.577
vn -0.577 -0.577 -0.577
vn -0.577 -0.577 -0.577
vn -0.577 -0.577 -0.577
vn -0.577 -0.577 -0.577
vn -0.577 -0.577 -0.577
vn -0.577 -0.577 -0.577
vn -0.577 -0.577 -0.577
vn -0.577 -0.577 -0.577
vn -0.577 -0.577 -0.577
vn -0.577 -0.577 -0.577
vn -0.577 -0.577 -0.577
vn -0.577 -0.577 -0.577
vn -0.577 -0.577 -0.577
vn -0.577 -0.577 -0.577
vn -0.577 -0.577 -0.577
vn -0.577 -0.577 -0.577
vn -0.577 -0.577 -0.577
vn -0.577 -0.577 -0.577
vn -0.577 -0.577 -0.577
vn -0.577 -0.577 -0.577
vn -0.577 -0.577 -0.577
vn -0.577 -0.577 -0.577
vn -0.577 -0.577 -0.577
vn -0.577 -0.577 -0.577
vn -0.577 -0.577 -0.577
vn -0.577 -0.577 -0.577
vn -0.577 -0.577 -0.577
vn -0.577 -0.577 -0.577
vn -0.577 -0.577 -0.577
vn -0.577 -0.577 -0.577
vn -0.577 -0.577 -0.577
vn -0.577 -0.577 -0.577
vn -0.577 -0.577 -0.577
vn -0.577 -0.577 -0.577
vn -0.577 -0.577 -0.577
vn -0.577 -0.577 -0.577
vn -0.577 -0.577 -0.577
vn -0.577 -0.577 -0.577
vn -0.577 -0.577 -0.577
vn -0.577 -0.577 -0.577
vn -0.577 -0.577 -0.577
vn -0.577 -0.577 -0.577
vn -0.577 -0.577 -0.577
vn -0.577 -0.577 -0.577
vn -0.577 -0.577 -0.577
vn -0.577 -0.577 -0.577
vn -0.577 -0.577 -0.577
vn -0.577 -0.577 -0.577
vn -0.577 -0.577 -0.577
vn -0.577 -0.577 -0.577
vn -0.577 -0.577 -0.577
vn -0.577 -0.577 -0.577
vn -0.577 -0.577 -0.577
vn -0.577 -0.577 -0.577
vn -0.577 -0.577 -0.577
vn -0.577 -0.577 -0.577
vn -0.577 -0.577 -0.577
vn -0.577 -0.577 -0.577
vn -0.577 -0.577 -0.577
vn -0.577 -0.577 -0.577
vn -0.577 -0.577 -0.577
vn -0.577 -0.577 -0.577
vn -0.577 -0.577 -0.577
vn -0.577 -0.577 -0.577
vn -0.577 -0.577 -0.577
vn -0.577 -0.577 -0.577
vn -0.577 -0.577 -0.577
vn 0.577 0.577 0.577
vn -0.577 -0.577 -0.577
vn -0.577 -0.577 -0.577
vn 0.577 0.577 0.577
vn 0.577 0.577 0.577
vn 0.577 0.577 0.577
vn 0.577 0.577 0.577
vn 0.577 0.577 0.577
vn -0.577 -0.577 -0.577
vn -0.577 -0.577 -0.577
vn -0.577 -0.577 -0.577
vn -0.577 -0.577 -0.577
vn -0.577 -0.577 -0.577
vn -0.577 -0.577 -0.577
vn -0.577 -0.577 -0.577
vn -0.577 -0.577 -0.577
vn -0.577 -0.577 -0.577
vn -0.577 -0.577 -0.577
vn -0.577 -0.577 -0.577
vn -0.577 -0.577 -0.577
vn -0.577 -0.577 -0.577
vn -0.577 -0.577 -0.577
vn -0.577 -0.577 -0.577
vn -0.577 -0.577 -0.577
vn -0.577 -0.577 -0.577
vn 0.577 0.577 0.577
vn 0.577 0.577 0.577
vn 0.577 0.577 0.577
vn -0.577 -0.577 -0.577
vn -0.577 -0.577 -0.577
vn -0.577 -0.577 -0.577
vn 0.577 0.577 0.577
vn 0.577 0.577 0.577
vn -0.577 -0.577 -0.577
vn 0.577 0.577 0.577
vn -0.577 -0.577 -0.577
vn -0.577 -0.577 -0.577
vn -0.577 -0.577 -0.577
vn -0.577 -0.577 -0.577
vn -0.577 -0.577 -0.577
vn -0.577 -0.577 -0.577
vn -0.577 -0.577 -0.577
vn -0.577 -0.577 -0.577
vn -0.577 -0.577 -0.577
vn -0.577 -0.577 -0.577
vn -0.577 -0.577 -0.577
vn -0.577 -0.577 -0.577
vn -0.577 -0.577 -0.577
vn -0.577 -0.577 -0.577
vn -0.577 -0.577 -0.577
vn -0.577 -0.577 -0.577
vn -0.577 -0.577 -0.577
vn -0.577 -0.577 -0.577
vn -0.577 -0.577 -0.577
vn -0.577 -0.577 -0.577
vn -0.577 -0.577 -0.577
vn 0.577 0.577 0.577
vn -0.577 -0.577 -0.577
vn -0.577 -0.577 -0.577
vn -0.577 -0.577 -0.577
vn -0.577 -0.577 -0.577
vn -0.577 -0.577 -0.577
vn -0.577 -0.577 -0.577
vn -0.577 -0.577 -0.577
vn -0.577 -0.577 -0.577
vn -0.577 -0.577 -0.577
vn -0.577 -0.577 -0.577
vn -0.577 -0.577 -0.577
vn -0.577 -0.577 -0.577
vn -0.577 -0.577 -0.577
vn -0.577 -0.577 -0.577
vn -0.577 -0.577 -0.577
vn -0.577 -0.577 -0.577
vn -0.577 -0.577 -0.577
vn -0.577 -0.577 -0.577
vn -0.577 -0.577 -0.577
vn -0.577 -0.577 -0.577
vn -0.577 -0.577 -0.577
vn -0.577 -0.577 -0.577
vn -0.577 -0.577 -0.577
vn -0.577 -0.577 -0.577
vn -0.577 -0.577 -0.577
vn -0.577 -0.577 -0.577
vn -0.577 -0.577 -0.577
vn -0.577 -0.577 -0.577
vn -0.577 -0.577 -0.577
vn -0.577 -0.577 -0.577
vn -0.577 -0.577 -0.577
vn -0.577 -0.577 -0.577
vn -0.577 -0.577 -0.577
vn -0.577 -0.577 -0.577
vn -0.577 -0.577 -0.577
vn -0.577 -0.577 -0.577
vn -0.577 -0.577 -0.577
vn -0.577 -0.577 -0.577
vn -0.577 -0.577 -0.577
vn -0.577 -0.577 -0.577
vn -0.577 -0.577 -0.577
vn -0.577 -0.577 -0.577
vn -0.577 -0.577 -0.577
vn 0.577 0.577 0.577
vn 0.577 0.577 0.577
vn -0.577 -0.577 -0.577
vn -0.577 -0.577 -0.577
vn -0.577 -0.577 -0.577
vn -0.577 -0.577 -0.577
vn -0.577 -0.577 -0.577
vn -0.577 -0.577 -0.577
vn -0.577 -0.577 -0.577
vn -0.577 -0.577 -0.577
vn -0.577 -0.577 -0.577
vn -0.577 -0.577 -0.577
vn -0.577 -0.577 -0.577
vn -0.577 -0.577 -0.577
vn -0.577 -0.577 -0.577
vn -0.577 -0.577 -0.577
vn -0.577 -0.577 -0.577
vn -0.577 -0.577 -0.577
vn -0.577 -0.577 -0.577
vn -0.577 -0.577 -0.577
vn 0.577 0.577 0.577
vn -0.577 -0.577 -0.577
vn -0.577 -0.577 -0.577
vn -0.577 -0.577 -0.577
vn 0.577 0.577 0.577
vn -0.577 -0.577 -0.577
vn -0.577 -0.577 -0.577
vn -0.577 -0.577 -0.577
vn -0.577 -0.577 -0.577
vn -0.577 -0.577 -0.577
vn -0.577 -0.577 -0.577
vn -0.577 -0.577 -0.577
vn -0.577 -0.577 -0.577
vn -0.577 -0.577 -0.577
vn -0.577 -0.577 -0.577
vn -0.577 -0.577 -0.577
vn -0.577 -0.577 -0.577
vn -0.577 -0.577 -0.577
vn -0.577 -0.577 -0.577
vn -0.577 -0.577 -0.577
vn -0.577 -0.577 -0.577
vn -0.577 -0.577 -0.577
vn -0.577 -0.577 -0.577
vn -0.577 -0.577 -0.577
vn -0.577 -0.577 -0.577
vn -0.577 -0.577 -0.577
vn -0.577 -0.577 -0.577
vn -0.577 -0.577 -0.577
vn -0.577 -0.577 -0.577
vn -0.577 -0.577 -0.577
vn -0.577 -0.577 -0.577
vn -0.577 -0.577 -0.577
vn -0.577 -0.577 -0.577
vn -0.577 -0.577 -0.577
vn -0.577 -0.577 -0.577
vn -0.577 -0.577 -0.577
vn -0.577 -0.577 -0.577
vn -0.577 -0.577 -0.577
vn -0.577 -0.577 -0.577
vn -0.577 -0.577 -0.577
vn -0.577 -0.577 -0.577
vn -0.577 -0.577 -0.577
vn -0.577 -0.577 -0.577
vn -0.577 -0.577 -0.577
vn -0.577 -0.577 -0.577
vn -0.577 -0.577 -0.577
vn -0.577 -0.577 -0.577
vn -0.577 -0.577 -0.577
vn -0.577 -0.577 -0.577
vn -0.577 -0.577 -0.577
vn -0.577 -0.577 -0.577
vn -0.577 -0.577 -0.577
vn -0.577 -0.577 -0.577
vn -0.577 -0.577 -0.577
vn -0.577 -0.577 -0.577
vn -0.577 -0.577 -0.577
vn -0.577 -0.577 -0.577
vn -0.577 -0.577 -0.577
vn -0.577 -0.577 -0.577
vn -0.577 -0.577 -0.577
vn -0.577 -0.577 -0.577
vn -0.577 -0.577 -0.577
vn -0.577 -0.577 -0.577
vn -0.577 -0.577 -0.577
vn -0.577 -0.577 -0.577
vn -0.577 -0.577 -0.577
vn -0.577 -0.577 -0.577
vn -0.577 -0.577 -0.577
vn -0.577 -0.577 -0.577
vn -0.577 -0.577 -0.577
vn 0.577 0.577 0.577
vn 0.577 0.577 0.577
vn 0.577 0.577 0.577
vn 0.577 0.577 0.577
vn 0.577 0.577 0.577
vn 0.577 0.577 0.577
vn -0.577 -0.577 -0.577
vn -0.577 -0.577 -0.577
vn -0.577 -0.577 -0.577
vn -0.577 -0.577 -0.577
vn -0.577 -0.577 -0.577
vn -0.577 -0.577 -0.577
vn -0.577 -0.577 -0.577
vn -0.577 -0.577 -0.577
vn -0.577 -0.577 -0.577
vn -0.577 -0.577 -0.577
vn -0.577 -0.577 -0.577
vn -0.577 -0.577 -0.577
vn -0.577 -0.577 -0.577
vn -0.577 -0.577 -0.577
vn -0.577 -0.577 -0.577
vn -0.577 -0.577 -0.577
vn 0.577 0.577 0.577
vn 0.577 0.577 0.577
vn -0.577 -0.577 -0.577
vn 0.577 0.577 0.577
vn -0.577 -0.577 -0.577
vn -0.577 -0.577 -0.577
vn -0.577 -0.577 -0.577
vn -0.577 -0.577 -0.577
vn 0.577 0.577 0.577
vn 0.577 0.577 0.577
vn 0.577 0.577 0.577
vn -0.577 -0.577 -0.577
vn -0.577 -0.577 -0.577
vn -0.577 -0.577 -0.577
vn -0.577 -0.577 -0.577
vn -0.577 -0.577 -0.577
vn -0.577 -0.577 -0.577
vn -0.577 -0.577 -0.577
vn -0.577 -0.577 -0.577
vn -0.577 -0.577 -0.577
vn -0.577 -0.577 -0.577
vn -0.577 -0.577 -0.577
vn -0.577 -0.577 -0.577
vn -0.577 -0.577 -0.577
vn -0.577 -0.577 -0.577
vn -0.577 -0.577 -0.577
vn -0.577 -0.577 -0.577
vn -0.577 -0.577 -0.577
vn -0.577 -0.577 -0.577
vn -0.577 -0.577 -0.577
vn -0.577 -0.577 -0.577
vn -0.577 -0.577 -0.577
vn -0.577 -0.577 -0.577
vn -0.577 -0.577 -0.577
vn -0.577 -0.577 -0.577
vn -0.577 -0.577 -0.577
vn -0.577 -0.577 -0.577
vn -0.577 -0.577 -0.577
vn -0.577 -0.577 -0.577
vn -0.577 -0.577 -0.577
vn -0.577 -0.577 -0.577
vn -0.577 -0.577 -0.577
vn -0.577 -0.577 -0.577
vn -0.577 -0.577 -0.577
vn -0.577 -0.577 -0.577
vn -0.577 -0.577 -0.577
vn -0.577 -0.577 -0.577
vn -0.577 -0.577 -0.577
vn -0.577 -0.577 -0.577
vn -0.577 -0.577 -0.577
vn -0.577 -0.577 -0.577
vn -0.577 -0.577 -0.577
vn 0.577 0.577 0.577
vn -0.577 -0.577 -0.577
vn -0.577 -0.577 -0.577
vn -0.577 -0.577 -0.577
vn 0.577 0.577 0.577
vn 0.577 0.577 0.577
vn -0.577 -0.577 -0.577
vn -0.577 -0.577 -0.577
vn 0.577 0.577 0.577
vn -0.577 -0.577 -0.577
vn -0.577 -0.577 -0.577
vn -0.577 -0.577 -0.577
vn -0.577 -0.577 -0.577
vn -0.577 -0.577 -0.577
vn -0.577 -0.577 -0.577
vn -0.577 -0.577 -0.577
vn -0.577 -0.577 -0.577
vn -0.577 -0.577 -0.577
vn -0.577 -0.577 -0.577
vn -0.577 -0.577 -0.577
vn -0.577 -0.577 -0.577
vn -0.577 -0.577 -0.577
vn -0.577 -0.577 -0.577
vn -0.577 -0.577 -0.577
vn -0.577 -0.577 -0.577
vn 0.577 0.577 0.577
vn -0.577 -0.577 -0.577
vn 0.577 0.577 0.577
vn -0.577 -0.577 -0.577
vn -0.577 -0.577 -0.577
vn -0.577 -0.577 -0.577
vn -0.577 -0.577 -0.577
vn -0.577 -0.577 -0.577
vn -0.577 -0.577 -0.577
vn -0.577 -0.577 -0.577
vn -0.577 -0.577 -0.577
vn -0.577 -0.577 -0.577
vn -0.577 -0.577 -0.577
vn -0.577 -0.577 -0.577
vn -0.577 -0.577 -0.577
vn -0.577 -0.577 -0.577
vn -0.577 -0.577 -0.577
vn -0.577 -0.577 -0.577
vn -0.577 -0.577 -0.577
vn 0.577 0.577 0.577
vn -0.577 -0.577 -0.577
vn -0.577 -0.577 -0.577
vn -0.577 -0.577 -0.577
vn -0.577 -0.577 -0.577
vn -0.577 -0.577 -0.577
vn -0.577 -0.577 -0.577
vn -0.577 -0.577 -0.577
vn -0.577 -0.577 -0.577
vn -0.577 -0.577 -0.577
vn -0.577 -0.577 -0.577
vn -0.577 -0.577 -0.577
vn 0.577 0.577 0.577
vn -0.577 -0.577 -0.577
vn -0.577 -0.577 -0.577
vn -0.577 -0.577 -0.577
vn -0.577 -0.577 -0.577
vn -0.577 -0.577 -0.577
vn -0.577 -0.577 -0.577
vn -0.577 -0.577 -0.577
vn -0.577 -0.577 -0.577
vn -0.577 -0.577 -0.577
vn -0.577 -0.577 -0.577
vn -0.577 -0.577 -0.577
vn -0.577 -0.577 -0.577
vn -0.577 -0.577 -0.577
vn -0.577 -0.577 -0.577
vn -0.577 -0.577 -0.577
vn -0.577 -0.577 -0.577
vn -0.577 -0.577 -0.577
vn -0.577 -0.577 -0.577
vn -0.577 -0.577 -0.577
vn -0.577 -0.577 -0.577
vn 0.577 0.577 0.577
vn 0.577 0.577 0.577
vn -0.577 -0.577 -0.577
vn -0.577 -0.577 -0.577
vn -0.577 -0.577 -0.577
vn -0.577 -0.577 -0.577
vn -0.577 -0.577 -0.577
vn -0.577 -0.577 -0.577
vn -0.577 -0.577 -0.577
vn -0.577 -0.577 -0.577
vn -0.577 -0.577 -0.577
vn -0.577 -0.577 -0.577
vn -0.577 -0.577 -0.577
vn -0.577 -0.577 -0.577
vn -0.577 -0.577 -0.577
vn -0.577 -0.577 -0.577
vn -0.577 -0.577 -0.577
vn -0.577 -0.577 -0.577
vn -0.577 -0.577 -0.577
vn -0.577 -0.577 -0.577
vn -0.577 -0.577 -0.577
vn -0.577 -0.577 -0.577
vn -0.577 -0.577 -0.577
vn -0.577 -0.577 -0.577
vn -0.577 -0.577 -0.577
vn -0.577 -0.577 -0.577
vn -0.577 -0.577 -0.577
vn -0.577 -0.577 -0.577
vn -0.577 -0.577 -0.577
vn -0.577 -0.577 -0.577
vn -0.577 -0.577 -0.577
vn -0.577 -0.577 -0.577
vn -0.577 -0.577 -0.577
vn -0.577 -0.577 -0.577
vn -0.577 -0.577 -0.577
vn -0.577 -0.577 -0.577
vn -0.577 -0.577 -0.577
vn -0.577 -0.577 -0.577
vn -0.577 -0.577 -0.577
vn -0.577 -0.577 -0.577
vn -0.577 -0.577 -0.577
vn -0.577 -0.577 -0.577
vn -0.577 -0.577 -0.577
vn -0.577 -0.577 -0.577
vn -0.577 -0.577 -0.577
vn -0.577 -0.577 -0.577
vn -0.577 -0.577 -0.577
vn -0.577 -0.577 -0.577
vn -0.577 -0.577 -0.577
vn -0.577 -0.577 -0.577
vn -0.577 -0.577 -0.577
vn -0.577 -0.577 -0.577
vn -0.577 -0.577 -0.577
vn -0.577 -0.577 -0.577
vn -0.577 -0.577 -0.577
vn -0.577 -0.577 -0.577
vn -0.577 -0.577 -0.577
vn -0.577 -0.577 -0.577
vn -0.577 -0.577 -0.577
vn -0.577 -0.577 -0.577
vn -0.577 -0.577 -0.577
vn -0.577 -0.577 -0.577
vn -0.577 -0.577 -0.577
vn -0.577 -0.577 -0.577
vn -0.577 -0.577 -0.577
vn -0.577 -0.577 -0.577
vn -0.577 -0.577 -0.577
vn -0.577 -0.577 -0.577
vn -0.577 -0.577 -0.577
vn -0.577 -0.577 -0.577
vn -0.577 -0.577 -0.577
vn -0.577 -0.577 -0.577
vn -0.577 -0.577 -0.577
vn -0.577 -0.577 -0.577
vn -0.577 -0.577 -0.577
vn -0.577 -0.577 -0.577
vn -0.577 -0.577 -0.577
vn -0.577 -0.577 -0.577
vn -0.577 -0.577 -0.577
vn -0.577 -0.577 -0.577
vn -0.577 -0.577 -0.577
vn -0.577 -0.577 -0.577
vn -0.577 -0.577 -0.577
vn -0.577 -0.577 -0.577
vn -0.577 -0.577 -0.577
vn -0.577 -0.577 -0.577
vn -0.577 -0.577 -0.577
vn -0.577 -0.577 -0.577
vn -0.577 -0.577 -0.577
vn -0.577 -0.577 -0.577
vn -0.577 -0.577 -0.577
vn -0.577 -0.577 -0.577
vn -0.577 -0.577 -0.577
vn -0.577 -0.577 -0.577
vn -0.577 -0.577 -0.577
vn -0.577 -0.577 -0.577
vn -0.577 -0.577 -0.577
vn -0.577 -0.577 -0.577
vn -0.577 -0.577 -0.577
vn -0.577 -0.577 -0.577
vn -0.577 -0.577 -0.577
vn -0.577 -0.577 -0.577
vn -0.577 -0.577 -0.577
vn -0.577 -0.577 -0.577
vn -0.577 -0.577 -0.577
vn -0.577 -0.577 -0.577
vn -0.577 -0.577 -0.577
vn -0.577 -0.577 -0.577
vn -0.577 -0.577 -0.577
vn -0.577 -0.577 -0.577
vn -0.577 -0.577 -0.577
vn -0.577 -0.577 -0.577
vn -0.577 -0.577 -0.577
vn -0.577 -0.577 -0.577
vn -0.577 -0.577 -0.577
vn -0.577 -0.577 -0.577
vn -0.577 -0.577 -0.577
vn -0.577 -0.577 -0.577
vn -0.577 -0.577 -0.577
vn -0.577 -0.577 -0.577
vn -0.577 -0.577 -0.577
vn -0.577 -0.577 -0.577
vn -0.577 -0.577 -0.577
vn -0.577 -0.577 -0.577
vn -0.577 -0.577 -0.577
vn -0.577 -0.577 -0.577
vn -0.577 -0.577 -0.577
vn -0.577 -0.577 -0.577
vn -0.577 -0.577 -0.577
vn -0.577 -0.577 -0.577
vn -0.577 -0.577 -0.577
vn -0.577 -0.577 -0.577
vn -0.577 -0.577 -0.577
vn -0.577 -0.577 -0.577
vn -0.577 -0.577 -0.577
vn -0.577 -0.577 -0.577
vn -0.577 -0.577 -0.577
vn -0.577 -0.577 -0.577
vn -0.577 -0.577 -0.577
vn -0.577 -0.577 -0.577
vn -0.577 -0.577 -0.577
vn -0.577 -0.577 -0.577
vn -0.577 -0.577 -0.577
vn -0.577 -0.577 -0.577
vn -0.577 -0.577 -0.577
vn -0.577 -0.577 -0.577
vn -0.577 -0.577 -0.577
vn -0.577 -0.577 -0.577
vn -0.577 -0.577 -0.577
vn -0.577 -0.577 -0.577
vn -0.577 -0.577 -0.577
vn -0.577 -0.577 -0.577
vn -0.577 -0.577 -0.577
vn -0.577 -0.577 -0.577
vn -0.577 -0.577 -0.577
vn -0.577 -0.577 -0.577
vn -0.577 -0.577 -0.577
vn -0.577 -0.577 -0.577
vn -0.577 -0.577 -0.577
vn -0.577 -0.577 -0.577
vn -0.577 -0.577 -0.577
vn -0.577 -0.577 -0.577
vn -0.577 -0.577 -0.577
vn -0.577 -0.577 -0.577
vn -0.577 -0.577 -0.577
vn -0.577 -0.577 -0.577
vn -0.577 -0.577 -0.577
vn -0.577 -0.577 -0.577
vn -0.577 -0.577 -0.577
vn -0.577 -0.577 -0.577
vn -0.577 -0.577 -0.577
vn -0.577 -0.577 -0.577
vn -0.577 -0.577 -0.577
vn -0.577 -0.577 -0.577
vn -0.577 -0.577 -0.577
vn -0.577 -0.577 -0.577
vn -0.577 -0.577 -0.577
vn -0.577 -0.577 -0.577
vn -0.577 -0.577 -0.577
vn -0.577 -0.577 -0.577
vn -0.577 -0.577 -0.577
vn -0.577 -0.577 -0.577
vn -0.577 -0.577 -0.577
vn -0.577 -0.577 -0.577
vn -0.577 -0.577 -0.577
vn -0.577 -0.577 -0.577
vn -0.577 -0.577 -0.577
vn -0.577 -0.577 -0.577
vn -0.577 -0.577 -0.577
vn -0.577 -0.577 -0.577
vn -0.577 -0.577 -0.577
vn -0.577 -0.577 -0.577
vn -0.577 -0.577 -0.577
vn -0.577 -0.577 -0.577
vn -0.577 -0.577 -0.577
vn -0.577 -0.577 -0.577
vn -0.577 -0.577 -0.577
vn -0.577 -0.577 -0.577
vn -0.577 -0.577 -0.577
vn -0.577 -0.577 -0.577
vn -0.577 -0.577 -0.577
vn -0.577 -0.577 -0.577
vn -0.577 -0.577 -0.577
vn -0.577 -0.577 -0.577
usemtl tex_2276_lit
f 1/1/1 2/2/2 3/3/3
f 1/1/1 3/3/3 4/4/4
f 3/3/3 5/5/5 6/6/6
f 3/3/3 6/6/6 4/4/4
f 5/5/5 7/7/7 8/8/8
f 5/5/5 8/8/8 6/6/6
f 7/7/7 9/9/9 10/10/10
f 7/7/7 10/10/10 8/8/8
f 11/11/11 8/8/8 10/10/10
f 11/11/11 10/10/10 12/12/12
f 13/13/13 6/6/6 8/8/8
f 13/13/13 8/8/8 11/11/11
f 14/14/14 4/4/4 6/6/6
f 14/14/14 6/6/6 13/13/13
f 15/15/15 1/1/1 4/4/4
f 15/15/15 4/4/4 14/14/14
f 16/2/16 17/16/17 18/17/18
f 16/2/16 18/17/18 19/3/19
f 19/3/19 18/17/18 20/18/20
f 19/3/19 20/18/20 21/5/21
f 21/5/21 20/18/20 22/19/22
f 21/5/21 22/19/22 23/7/23
f 23/7/23 22/19/22 24/20/24
f 23/7/23 24/20/24 25/9/25
f 26/14/26 18/17/18 17/16/17
f 26/14/26 17/16/17 27/15/27
f 26/14/26 28/13/28 20/18/20
f 26/14/26 20/18/20 18/17/18
f 28/13/28 29/11/29 22/19/22
f 28/13/28 22/19/22 20/18/20
f 29/11/29 30/12/30 24/20/24
f 29/11/29 24/20/24 22/19/22
usemtl tex_2057_lit
f 31/21/31 32/22/32 33/22/33
f 31/21/31 33/22/33 34/21/34
f 35/23/35 36/23/36 37/23/37
f 35/23/35 37/23/37 38/23/38
f 39/24/39 40/24/40 41/24/41
f 39/24/39 41/24/41 42/24/42
f 43/25/43 44/25/44 45/25/45
f 43/25/43 45/25/45 46/25/46
f 47/26/47 48/27/48 49/27/49
f 47/26/47 49/27/49 50/27/50
f 51/28/51 52/28/52 53/28/53
f 51/28/51 53/28/53 54/28/54
f 55/29/55 56/30/56 57/30/57
f 55/29/55 57/30/57 58/29/58
f 59/31/59 60/31/60 61/31/61
f 59/31/59 61/31/61 62/31/62
f 63/32/63 64/32/64 65/32/65
f 63/32/63 65/32/65 66/32/66
f 67/33/67 68/34/68 69/34/69
f 67/33/67 69/34/69 70/34/70
f 71/35/71 72/35/72 73/35/73
f 71/35/71 73/35/73 74/35/74
f 75/36/75 76/36/76 77/36/77
f 75/36/75 77/36/77 78/36/78
f 79/37/79 80/38/80 81/38/81
f 79/37/79 81/38/81 82/37/82
f 83/37/83 84/37/84 79/37/79
f 83/37/83 79/37/79 85/37/85
f 86/37/86 87/37/87 82/37/82
f 86/37/86 82/37/82 88/37/88
f 89/39/89 84/37/84 88/37/88
f 90/38/90 91/37/91 92/37/92
f 90/38/90 92/37/92 93/38/93
f 94/37/94 95/37/95 96/39/96
f 94/37/94 96/39/96 97/39/97
f 98/37/98 99/37/99 100/39/100
f 98/37/98 100/39/100 101/39/101
f 102/21/102 97/39/97 100/39/100
f 103/37/103 104/21/104 105/37/105
usemtl tex_1608_lit
f 106/40/106 107/41/107 108/42/108
f 106/40/106 108/42/108 109/43/109
f 110/41/110 111/44/111 112/42/112
f 113/40/113 114/43/114 115/45/115
f 113/40/113 115/45/115 116/46/116
f 115/45/115 117/47/117 116/46/116
usemtl tex_1501_lit
f 118/48/118 119/49/119 120/48/120
f 121/49/121 119/49/119 118/48/118
f 122/50/122 121/49/121 118/48/118
f 123/51/123 121/49/121 122/50/122
f 124/51/124 125/50/125 120/48/120
f 124/51/124 120/48/120 119/49/119
f 118/48/118 120/48/120 125/50/125
f 125/50/125 122/50/122 118/48/118
usemtl tex_1501_lit_ovl
f 124/51/124 119/49/119 121/49/121
f 121/49/121 123/51/123 124/51/124
usemtl tex_1501_lit
f 126/52/126 127/53/127 128/52/128
f 129/53/129 127/53/127 126/52/126
f 130/54/130 131/55/131 132/56/132
f 133/57/133 131/55/131 130/54/130
f 134/58/134 135/55/135 136/57/136
f 134/58/134 136/57/136 137/54/137
f 132/56/132 138/56/138 137/54/137
f 137/54/137 130/54/130 132/56/132
usemtl tex_1501_lit_ovl
f 136/57/136 135/55/135 131/55/131
f 131/55/131 133/57/133 136/57/136
usemtl tex_1501_lit
f 139/59/139 140/60/140 141/59/141
f 142/59/142 143/60/143 144/60/144
f 142/59/142 144/60/144 145/61/145
f 145/61/145 144/60/144 146/62/146
f 147/61/147 148/62/148 143/60/143
f 147/61/147 143/60/143 149/59/149
f 147/61/147 149/59/149 142/59/142
f 142/59/142 145/61/145 147/61/147
usemtl tex_1501_lit_ovl
f 144/60/144 143/60/143 148/62/148
f 148/62/148 146/62/146 144/60/144
usemtl tex_1501_lit
f 150/63/150 151/64/151 152/63/152
f 152/63/152 151/64/151 153/64/153
f 154/65/154 155/66/155 156/67/156
f 156/67/156 155/66/155 157/68/157
f 158/66/158 159/65/159 160/67/160
f 158/66/158 160/67/160 161/68/161
f 160/67/160 159/65/159 162/65/162
f 162/65/162 163/67/163 160/67/160
usemtl tex_1501_lit_ovl
f 164/66/164 158/66/158 161/68/161
f 161/68/161 165/68/165 164/66/164
f 166/69/166 167/70/167 168/71/168
usemtl tex_1501_lit
f 168/71/168 167/70/167 169/72/169
usemtl tex_1501_lit_ovl
f 169/72/169 167/70/167 170/73/170
usemtl tex_1501_lit
f 170/73/170 163/67/163 169/72/169
f 163/67/163 168/71/168 169/72/169
f 171/74/171 163/67/163 170/73/170
usemtl tex_1501_lit_ovl
f 171/74/171 170/73/170 172/75/172
usemtl tex_1501_lit
f 163/67/163 171/74/171 173/76/173
f 171/74/171 172/75/172 173/76/173
f 174/75/174 175/77/175 176/76/176
f 176/76/176 175/77/175 177/78/177
usemtl tex_1501_lit_ovl
f 174/75/174 178/79/178 175/77/175
usemtl tex_1501_lit
f 177/78/177 175/77/175 178/79/178
f 178/79/178 179/80/179 177/78/177
f 177/78/177 179/80/179 180/50/180
usemtl tex_1501_lit_ovl
f 179/80/179 181/81/181 180/50/180
f 178/79/178 181/81/181 179/80/179
usemtl tex_1501_lit
f 181/81/181 182/82/182 180/50/180
usemtl tex_1501_lit_ovl
f 181/81/181 183/83/183 182/82/182
usemtl tex_1501_lit
f 184/84/184 180/50/180 182/82/182
f 184/84/184 182/82/182 183/83/183
f 185/85/185 184/84/184 183/83/183
usemtl tex_1501_lit_ovl
f 185/85/185 183/83/183 186/86/186
usemtl tex_1501_lit
f 187/87/187 185/85/185 186/86/186
f 184/84/184 185/85/185 187/87/187
f 186/86/186 188/88/188 187/87/187
usemtl tex_1501_lit_ovl
f 189/89/189 188/88/188 186/86/186
usemtl tex_1501_lit
f 190/61/190 191/88/191 192/89/192
f 190/61/190 193/87/193 191/88/191
usemtl tex_1501_lit_ovl
f 190/61/190 192/89/192 194/90/194
f 194/90/194 192/89/192 195/91/195
usemtl tex_1501_lit
f 196/92/196 194/90/194 195/91/195
f 190/61/190 194/90/194 196/92/196
usemtl tex_1501_lit_ovl
f 195/91/195 197/93/197 196/92/196
f 198/94/198 197/93/197 195/91/195
usemtl tex_1501_lit
f 198/94/198 199/95/199 197/93/197
f 199/95/199 196/92/196 197/93/197
f 198/94/198 200/96/200 199/95/199
usemtl tex_1501_lit_ovl
f 201/97/201 200/96/200 198/94/198
usemtl tex_1501_lit
f 201/97/201 202/54/202 200/96/200
f 202/54/202 199/95/199 200/96/200
usemtl tex_1501_lit_ovl
f 202/54/202 201/97/201 203/98/203
f 203/98/203 201/97/201 204/99/204
usemtl tex_1501_lit
f 205/100/205 203/98/203 204/99/204
f 205/100/205 202/54/202 203/98/203
f 206/100/206 207/99/207 208/69/208
usemtl tex_1501_lit_ovl
f 208/69/208 207/99/207 209/70/209
usemtl tex_1501_lit
f 206/100/206 208/69/208 210/71/210
f 211/95/211 212/92/212 213/92/213
f 214/95/214 212/92/212 211/95/211
f 215/54/215 214/95/214 211/95/211
f 216/54/216 214/95/214 215/54/215
f 206/100/206 216/54/216 215/54/215
f 217/100/217 216/54/216 206/100/206
f 210/71/210 217/100/217 206/100/206
f 218/71/218 217/100/217 210/71/210
f 219/67/219 218/71/218 210/71/210
f 220/67/220 218/71/218 219/67/219
f 221/76/221 220/67/220 219/67/219
f 222/76/222 223/67/223 224/76/224
f 225/78/225 222/76/222 224/76/224
f 226/78/226 222/76/222 225/78/225
f 227/50/227 226/78/226 225/78/225
f 228/50/228 226/78/226 227/50/227
f 229/84/229 228/50/228 227/50/227
f 230/84/230 228/50/228 229/84/229
f 231/87/231 230/84/230 229/84/229
f 232/87/232 230/84/230 231/87/231
f 233/61/233 232/87/232 231/87/231
f 234/61/234 232/87/232 233/61/233
f 235/92/235 234/61/234 233/61/233
f 236/92/236 234/61/234 235/92/235
f 237/101/237 238/102/238 239/103/239
f 237/101/237 239/103/239 240/104/240
f 241/105/241 242/106/242 243/107/243
f 241/105/241 243/107/243 244/108/244
f 241/105/241 244/108/244 238/102/238
f 241/105/241 238/102/238 237/101/237
f 239/103/239 245/109/245 246/110/246
f 239/103/239 246/110/246 247/111/247
f 239/103/239 247/111/247 248/112/248
f 239/103/239 248/112/248 240/104/240
usemtl tex_1507_lit
f 249/113/249 250/114/250 251/115/251
f 251/115/251 252/116/252 249/113/249
f 253/117/253 254/118/254 255/114/255
f 256/113/256 253/117/253 255/114/255
f 254/118/254 253/117/253 257/119/257
f 257/119/257 258/120/258 254/118/254
f 257/119/257 259/121/259 260/122/260
f 260/122/260 258/120/258 257/119/257
f 259/121/259 261/123/261 262/124/262
f 262/124/262 260/122/260 259/121/259
f 263/125/263 262/124/262 261/123/261
f 262/124/262 263/125/263 264/126/264
f 265/127/265 264/126/264 263/125/263
f 265/127/265 266/128/266 264/126/264
f 265/127/265 267/129/267 266/128/266
f 267/129/267 265/127/265 268/130/268
f 269/131/269 270/129/270 271/130/271
f 269/131/269 271/130/271 272/132/272
f 273/132/273 274/133/274 275/131/275
f 276/134/276 275/131/275 274/133/274
usemtl tex_1507_lit_ovl
f 277/113/277 278/116/278 279/135/279
f 277/113/277 279/135/279 280/117/280
f 280/117/280 279/135/279 281/136/281
f 281/136/281 282/119/282 280/117/280
f 281/136/281 283/121/283 282/119/282
f 281/136/281 284/137/284 283/121/283
f 285/125/285 286/127/286 287/127/287
f 285/125/285 287/127/287 288/125/288
f 285/125/285 288/125/288 289/123/289
f 289/123/289 290/123/290 285/125/285
f 291/121/291 290/123/290 289/123/289
f 291/121/291 292/137/292 290/123/290
f 293/138/293 294/139/294 295/133/295
f 293/138/293 295/133/295 296/132/296
f 293/138/293 297/132/297 298/130/298
f 298/130/298 299/140/299 293/138/293
f 287/127/287 299/140/299 298/130/298
f 287/127/287 286/127/286 299/140/299
f 300/134/300 301/141/301 302/142/302
f 303/131/303 300/134/300 302/142/302
f 304/129/304 305/131/305 302/142/302
f 302/142/302 306/143/306 304/129/304
f 306/143/306 307/144/307 308/144/308
f 304/129/304 306/143/306 309/128/309
f 308/144/308 307/144/307 310/126/310
f 311/126/311 308/144/308 310/126/310
f 312/124/312 311/126/311 310/126/310
f 310/126/310 313/124/313 312/124/312
f 313/124/313 314/145/314 315/122/315
f 312/124/312 313/124/313 315/122/315
f 316/122/316 317/145/317 318/146/318
f 319/120/319 316/122/316 318/146/318
f 320/118/320 319/120/319 318/146/318
f 318/146/318 321/147/321 320/118/320
f 320/118/320 321/147/321 322/114/322
f 321/147/321 323/115/323 322/114/322
usemtl tex_1507_lit
f 324/148/324 325/149/325 326/150/326
f 324/148/324 326/150/326 327/151/327
f 328/152/328 324/148/324 327/151/327
f 328/152/328 327/151/327 329/153/329
f 330/154/330 328/152/328 329/153/329
f 330/154/330 329/153/329 331/155/331
f 332/154/332 333/155/333 334/156/334
f 332/154/332 334/156/334 335/157/335
f 336/158/336 337/159/337 335/157/335
f 336/158/336 335/157/335 334/156/334
f 338/160/338 337/159/337 336/158/336
f 338/160/338 336/158/336 339/161/339
f 340/162/340 338/160/338 339/161/339
f 340/162/340 339/161/339 341/163/341
f 342/164/342 343/165/343 340/162/340
f 342/164/342 340/162/340 341/163/341
f 344/166/344 343/165/343 342/164/342
f 344/166/344 342/164/342 345/167/345
f 346/168/346 347/169/347 348/170/348
f 348/170/348 349/171/349 346/168/346
f 350/172/350 351/173/351 347/169/347
f 346/168/346 350/172/350 347/169/347
f 351/173/351 350/172/350 352/174/352
f 352/174/352 353/175/353 351/173/351
f 352/174/352 354/176/354 355/177/355
f 355/177/355 353/175/353 352/174/352
f 354/176/354 356/178/356 357/179/357
f 357/179/357 355/177/355 354/176/354
f 358/180/358 357/179/357 356/178/356
f 357/179/357 358/180/358 359/181/359
f 360/182/360 359/181/359 358/180/358
f 360/182/360 361/183/361 359/181/359
f 362/182/362 363/184/363 364/183/364
f 363/184/363 362/182/362 365/185/365
f 366/186/366 363/184/363 365/185/365
f 366/186/366 365/185/365 367/187/367
f 368/187/368 369/188/369 366/186/366
f 370/189/370 366/186/366 369/188/369
usemtl tex_1507_lit_ovl
f 371/168/371 372/171/372 373/190/373
f 371/168/371 373/190/373 374/172/374
f 374/172/374 373/190/373 375/191/375
f 375/191/375 376/174/376 374/172/374
f 375/191/375 377/176/377 376/174/376
f 378/191/378 379/192/379 380/176/380
f 381/180/381 382/182/382 383/182/383
f 381/180/381 383/182/383 384/180/384
f 381/180/381 384/180/384 385/178/385
f 385/178/385 386/178/386 381/180/381
f 380/176/380 386/178/386 385/178/385
f 380/176/380 379/192/379 386/178/386
f 387/193/387 388/194/388 389/188/389
f 387/193/387 389/188/389 390/187/390
f 387/193/387 390/187/390 391/195/391
f 391/195/391 392/196/392 387/193/387
f 383/182/383 392/196/392 391/195/391
f 383/182/383 382/182/382 392/196/392
f 393/189/393 394/197/394 395/198/395
f 396/186/396 393/189/393 395/198/395
f 397/184/397 396/186/396 395/198/395
f 395/198/395 398/199/398 397/184/397
f 398/199/398 399/183/399 400/183/400
f 397/184/397 398/199/398 400/183/400
f 400/183/400 399/183/399 401/181/401
f 402/181/402 400/183/400 401/181/401
f 403/179/403 402/181/402 401/181/401
f 401/181/401 404/179/404 403/179/403
f 404/179/404 405/200/405 406/177/406
f 403/179/403 404/179/404 406/177/406
f 406/177/406 405/200/405 407/201/407
f 408/175/408 406/177/406 407/201/407
f 409/173/409 410/175/410 411/201/411
f 411/201/411 412/202/412 409/173/409
f 409/173/409 412/202/412 413/169/413
f 412/202/412 414/203/414 413/169/413
usemtl tex_1507_lit
f 415/204/415 416/205/416 417/206/417
f 415/204/415 417/206/417 418/207/418
f 417/206/417 416/205/416 419/208/419
f 417/206/417 419/208/419 420/209/420
f 419/208/419 421/210/421 422/211/422
f 419/208/419 422/211/422 420/209/420
f 421/210/421 423/212/423 424/213/424
f 421/210/421 424/213/424 422/211/422
f 425/212/425 426/214/426 427/215/427
f 425/212/425 427/215/427 428/213/428
f 426/214/426 429/216/429 430/217/430
f 426/214/426 430/217/430 427/215/427
f 429/216/429 431/218/431 432/219/432
f 429/216/429 432/219/432 430/217/430
f 432/219/432 431/218/431 433/220/433
f 432/219/432 433/220/433 434/221/434
f 433/220/433 435/222/435 436/223/436
f 433/220/433 436/223/436 434/221/434
f 437/115/437 438/114/438 439/113/439
f 439/113/439 440/116/440 437/115/437
f 441/114/441 442/118/442 443/117/443
f 441/114/441 443/117/443 444/113/444
f 445/119/445 443/117/443 442/118/442
f 442/118/442 446/120/446 445/119/445
f 447/122/447 448/121/448 445/119/445
f 445/119/445 446/120/446 447/122/447
f 449/124/449 450/123/450 448/121/448
f 448/121/448 447/122/447 449/124/449
f 450/123/450 449/124/449 451/125/451
f 452/126/452 451/125/451 449/124/449
f 451/125/451 452/126/452 453/127/453
f 452/126/452 454/128/454 453/127/453
f 454/128/454 455/129/455 453/127/453
f 456/130/456 453/127/453 455/129/455
f 457/130/457 458/129/458 459/131/459
f 460/132/460 457/130/457 459/131/459
f 461/131/461 462/133/462 463/132/463
f 462/133/462 461/131/461 464/134/464
usemtl tex_1507_lit_ovl
f 465/135/465 466/116/466 467/113/467
f 468/117/468 465/135/465 467/113/467
f 469/136/469 465/135/465 468/117/468
f 468/117/468 470/119/470 469/136/469
f 470/119/470 471/121/471 469/136/469
f 471/121/471 472/137/472 469/136/469
f 473/127/473 474/127/474 475/125/475
f 476/125/476 473/127/473 475/125/475
f 477/123/477 476/125/476 475/125/475
f 475/125/475 478/123/478 477/123/477
f 477/123/477 478/123/478 479/121/479
f 478/123/478 480/137/480 479/121/479
f 481/133/481 482/139/482 483/138/483
f 484/132/484 481/133/481 483/138/483
f 485/130/485 486/132/486 483/138/483
f 483/138/483 487/140/487 485/130/485
f 485/130/485 487/140/487 473/127/473
f 487/140/487 474/127/474 473/127/473
f 488/142/488 489/141/489 490/134/490
f 488/142/488 490/134/490 491/131/491
f 488/142/488 492/131/492 493/129/493
f 493/129/493 494/143/494 488/142/488
f 495/144/495 496/144/496 494/143/494
f 497/128/497 494/143/494 493/129/493
f 498/126/498 496/144/496 495/144/495
f 498/126/498 495/144/495 499/126/499
f 498/126/498 499/126/499 500/124/500
f 500/124/500 501/124/501 498/126/498
f 502/122/502 503/145/503 501/124/501
f 502/122/502 501/124/501 500/124/500
f 504/146/504 505/145/505 506/122/506
f 504/146/504 506/122/506 507/120/507
f 504/146/504 507/120/507 508/118/508
f 508/118/508 509/147/509 504/146/504
f 510/114/510 509/147/509 508/118/508
f 510/114/510 511/115/511 509/147/509
usemtl tex_1507_lit
f 512/224/512 513/225/513 514/226/514
f 512/224/512 514/226/514 515/227/515
f 513/225/513 516/228/516 517/229/517
f 513/225/513 517/229/517 514/226/514
f 516/228/516 518/230/518 519/231/519
f 516/228/516 519/231/519 517/229/517
f 520/230/520 521/232/521 522/233/522
f 520/230/520 522/233/522 523/231/523
f 521/232/521 524/234/524 525/235/525
f 521/232/521 525/235/525 522/233/522
f 524/234/524 526/236/526 527/237/527
f 524/234/524 527/237/527 525/235/525
f 526/236/526 528/238/528 529/239/529
f 526/236/526 529/239/529 527/237/527
f 530/240/530 531/241/531 529/239/529
f 530/240/530 529/239/529 528/238/528
f 532/242/532 533/243/533 531/241/531
f 532/242/532 531/241/531 530/240/530
f 534/170/534 535/169/535 536/168/536
f 536/168/536 537/171/537 534/170/534
f 538/169/538 539/173/539 540/172/540
f 538/169/538 540/172/540 541/168/541
f 542/174/542 540/172/540 539/173/539
f 539/173/539 543/175/543 542/174/542
f 544/177/544 545/176/545 542/174/542
f 542/174/542 543/175/543 544/177/544
f 546/179/546 547/178/547 545/176/545
f 545/176/545 544/177/544 546/179/546
f 547/178/547 546/179/546 548/180/548
f 549/181/549 548/180/548 546/179/546
f 550/180/550 551/181/551 552/182/552
f 551/181/551 553/183/553 552/182/552
f 553/183/553 554/184/554 552/182/552
f 555/185/555 552/182/552 554/184/554
f 555/185/555 554/184/554 556/186/556
f 557/187/557 555/185/555 556/186/556
f 556/186/556 558/188/558 559/187/559
f 558/188/558 556/186/556 560/189/560
usemtl tex_1507_lit_ovl
f 561/190/561 562/171/562 563/168/563
f 564/172/564 561/190/561 563/168/563
f 565/191/565 561/190/561 564/172/564
f 566/172/566 567/174/567 568/191/568
f 567/174/567 569/176/569 568/191/568
f 569/176/569 570/192/570 568/191/568
f 571/182/571 572/182/572 573/180/573
f 574/180/574 571/182/571 573/180/573
f 575/178/575 574/180/574 573/180/573
f 573/180/573 576/178/576 575/178/575
f 575/178/575 576/178/576 569/176/569
f 576/178/576 570/192/570 569/176/569
f 577/188/577 578/194/578 579/193/579
f 580/187/580 577/188/577 579/193/579
f 581/195/581 580/187/580 579/193/579
f 582/193/582 583/196/583 584/195/584
f 584/195/584 583/196/583 585/182/585
f 583/196/583 586/182/586 585/182/585
f 587/198/587 588/197/588 589/189/589
f 587/198/587 589/189/589 590/186/590
f 587/198/587 590/186/590 591/184/591
f 591/184/591 592/199/592 587/198/587
f 593/183/593 594/183/594 592/199/592
f 593/183/593 592/199/592 591/184/591
f 595/181/595 594/183/594 593/183/593
f 595/181/595 593/183/593 596/181/596
f 595/181/595 596/181/596 597/179/597
f 598/179/598 599/179/599 600/181/600
f 601/177/601 602/200/602 599/179/599
f 601/177/601 599/179/599 598/179/598
f 603/201/603 602/200/602 601/177/601
f 603/201/603 601/177/601 604/175/604
f 603/201/603 604/175/604 605/173/605
f 605/173/605 606/202/606 603/201/603
f 607/169/607 606/202/606 605/173/605
f 607/169/607 608/203/608 606/202/606
usemtl tex_1507_lit
f 609/244/609 610/245/610 611/246/611
f 609/244/609 611/246/611 612/247/612
f 613/248/613 609/244/609 612/247/612
f 614/248/614 615/247/615 616/249/616
f 617/250/617 614/248/614 616/249/616
f 617/250/617 616/249/616 618/251/618
f 619/252/619 617/250/617 618/251/618
f 619/252/619 618/251/618 620/253/620
f 621/254/621 619/252/619 620/253/620
f 621/254/621 620/253/620 622/255/622
f 623/256/623 621/254/621 622/255/622
f 623/256/623 622/255/622 624/257/624
f 625/258/625 623/256/623 624/257/624
f 625/258/625 624/257/624 626/259/626
f 627/260/627 625/258/625 626/259/626
f 627/260/627 626/259/626 628/261/628
f 629/262/629 627/260/627 628/261/628
f 630/262/630 631/261/631 632/263/632
usemtl tex_1503_lit
f 633/264/633 634/1/634 635/265/635
f 633/264/633 635/265/635 636/266/636
f 637/264/637 638/1/638 639/265/639
f 637/264/637 639/265/639 640/266/640
f 641/264/641 642/1/642 643/265/643
f 641/264/641 643/265/643 644/266/644
f 645/264/645 646/1/646 647/265/647
f 645/264/645 647/265/647 648/266/648
f 649/264/649 650/1/650 651/265/651
f 649/264/649 651/265/651 652/266/652
f 653/264/653 654/1/654 655/265/655
f 653/264/653 655/265/655 656/266/656
f 657/264/657 658/1/658 659/265/659
f 657/264/657 659/265/659 660/266/660
f 661/264/661 662/1/662 663/265/663
f 661/264/661 663/265/663 664/266/664
usemtl tex_1502_lit_w11_ovl
f 665/1/665 666/265/666 667/266/667
f 665/1/665 667/266/667 668/264/668
f 669/264/669 670/266/670 671/265/671
f 669/264/669 671/265/671 672/1/672
f 673/264/673 674/266/674 675/265/675
f 673/264/673 675/265/675 676/1/676
f 677/267/677 678/268/678 679/269/679
f 677/267/677 679/269/679 680/264/680
f 681/1/681 682/265/682 683/266/683
f 681/1/681 683/266/683 684/264/684
usemtl tex_1505_lit_sec_ds_w11
f 685/265/685 686/266/686 687/264/687
f 685/265/685 687/264/687 688/1/688
f 689/265/689 690/266/690 691/264/691
f 689/265/689 691/264/691 692/1/692
usemtl tex_1504_lit_sec_w11
f 693/270/693 694/271/694 695/272/695
f 696/273/696 694/271/694 693/270/693
f 696/273/696 697/274/697 694/271/694
f 698/275/698 697/274/697 696/273/696
f 699/276/699 700/277/700 701/278/701
f 702/279/702 700/277/700 699/276/699
f 702/279/702 703/280/703 700/277/700
f 704/281/704 703/280/703 702/279/702
f 704/281/704 705/282/705 703/280/703
f 706/283/706 705/282/705 704/281/704
f 706/283/706 707/284/707 705/282/705
f 708/285/708 707/284/707 706/283/706
f 709/285/709 710/286/710 711/284/711
f 712/287/712 710/286/710 709/285/709
f 712/287/712 713/288/713 710/286/710
f 714/289/714 713/288/713 712/287/712
f 714/289/714 715/290/715 713/288/713
f 716/291/716 715/290/715 714/289/714
f 716/291/716 717/292/717 715/290/715
f 718/293/718 717/292/717 716/291/716
f 718/293/718 719/294/719 717/292/717
f 720/295/720 719/294/719 718/293/718
f 720/295/720 721/296/721 719/294/719
f 722/297/722 721/296/721 720/295/720
f 722/297/722 723/298/723 721/296/721
f 724/299/724 723/298/723 722/297/722
f 725/299/725 726/300/726 727/298/727
f 728/301/728 726/300/726 725/299/725
f 728/301/728 729/302/729 726/300/726
f 730/303/730 729/302/729 728/301/728
f 731/304/731 732/305/732 733/306/733
f 734/307/734 732/305/732 731/304/731
f 734/307/734 735/308/735 732/305/732
f 736/309/736 735/308/735 734/307/734
f 736/309/736 737/310/737 735/308/735
f 738/311/738 737/310/737 736/309/736
f 738/311/738 739/312/739 737/310/737
f 740/313/740 739/312/739 738/311/738
f 741/313/741 742/314/742 743/312/743
f 744/315/744 742/314/742 741/313/741
f 744/315/744 745/316/745 742/314/742
f 746/317/746 745/316/745 744/315/744
f 746/317/746 747/318/747 745/316/745
f 748/319/748 747/318/747 746/317/746
f 748/319/748 749/320/749 747/318/747
f 750/321/750 749/320/749 748/319/748
f 750/321/750 751/272/751 749/320/749
f 752/270/752 751/272/751 750/321/750
f 753/322/753 754/273/754 752/270/752
usemtl tex_1504_lit_sec_w11_ovl
f 755/323/755 754/273/754 753/322/753
f 755/323/755 756/275/756 754/273/754
f 757/324/757 758/275/758 759/323/759
f 760/325/760 761/279/761 762/276/762
usemtl tex_1504_lit_sec_w11
f 763/326/763 761/279/761 760/325/760
f 763/326/763 764/281/764 761/279/761
usemtl tex_1504_lit_sec_w11_ovl
f 765/327/765 764/281/764 763/326/763
f 765/327/765 766/283/766 764/281/764
f 767/328/767 766/283/766 765/327/765
f 767/328/767 768/285/768 766/283/766
usemtl tex_1504_lit_sec_w11
f 769/329/769 768/285/768 767/328/767
usemtl tex_1504_lit_sec_w11_ovl
f 769/329/769 770/287/770 768/285/768
f 771/330/771 770/287/770 769/329/769
f 771/330/771 772/289/772 770/287/770
f 773/331/773 774/289/774 775/330/775
usemtl tex_1504_lit_sec_w11
f 773/331/773 776/291/776 774/289/774
f 777/332/777 776/291/776 773/331/773
usemtl tex_1504_lit_sec_w11_ovl
f 777/332/777 778/293/778 776/291/776
f 779/333/779 778/293/778 777/332/777
f 779/333/779 780/295/780 778/293/778
usemtl tex_1504_lit_sec_w11
f 781/334/781 780/295/780 779/333/779
f 781/334/781 782/297/782 780/295/780
f 783/335/783 782/297/782 781/334/781
f 783/335/783 784/299/784 782/297/782
f 785/336/785 784/299/784 783/335/783
f 785/336/785 786/301/786 784/299/784
usemtl tex_1504_lit_sec_w11_ovl
f 787/337/787 786/301/786 785/336/785
f 787/337/787 788/303/788 786/301/786
f 789/338/789 790/303/790 791/337/791
f 792/339/792 793/307/793 794/304/794
f 795/340/795 793/307/793 792/339/792
usemtl tex_1504_lit_sec_w11
f 795/340/795 796/309/796 793/307/793
f 797/341/797 796/309/796 795/340/795
usemtl tex_1504_lit_sec_w11_ovl
f 797/341/797 798/311/798 796/309/796
usemtl tex_1504_lit_sec_w11
f 799/342/799 798/311/798 797/341/797
f 799/342/799 800/313/800 798/311/798
usemtl tex_1504_lit_sec_w11_ovl
f 801/343/801 800/313/800 799/342/799
f 801/343/801 802/315/802 800/313/800
usemtl tex_1504_lit_sec_w11
f 803/344/803 802/315/802 801/343/801
usemtl tex_1504_lit_sec_w11_ovl
f 803/344/803 804/317/804 802/315/802
usemtl tex_1504_lit_sec_w11
f 805/345/805 806/317/806 807/344/807
f 805/345/805 808/319/808 806/317/806
usemtl tex_1504_lit_sec_w11_ovl
f 809/346/809 808/319/808 805/345/805
f 809/346/809 810/321/810 808/319/808
f 811/347/811 810/321/810 809/346/809
f 811/347/811 812/270/812 810/321/810
usemtl tex_1504_lit_sec_w11
f 813/322/813 812/270/812 811/347/811
