mtllib GwppksilZ.mtl
v 0.0 -1.2370491027832031 300.5050048828125 1.000 1.000 1.000
v -43.0 -1.2370491027832031 300.5050048828125 1.000 1.000 1.000
v -43.0 41.7629508972168 300.5050048828125 1.000 1.000 1.000
v 0.0 41.7629508972168 300.5050048828125 1.000 1.000 1.000
v 43.0 -1.2370491027832031 300.5050048828125 1.000 1.000 1.000
v 0.0 -1.2370491027832031 300.5050048828125 1.000 1.000 1.000
v 0.0 41.7629508972168 300.5050048828125 1.000 1.000 1.000
v 43.0 41.7629508972168 300.5050048828125 1.000 1.000 1.000
v 0.0 -44.2370491027832 300.5050048828125 1.000 1.000 1.000
v -43.0 -44.2370491027832 300.5050048828125 1.000 1.000 1.000
v -43.0 -1.2370491027832031 300.5050048828125 1.000 1.000 1.000
v 0.0 -1.2370491027832031 300.5050048828125 1.000 1.000 1.000
v 43.0 -44.2370491027832 300.5050048828125 1.000 1.000 1.000
v 0.0 -44.2370491027832 300.5050048828125 1.000 1.000 1.000
v 0.0 -1.2370491027832031 300.5050048828125 1.000 1.000 1.000
v 43.0 -1.2370491027832031 300.5050048828125 1.000 1.000 1.000
v 0.0 56.719512939453125 350.2513732910156 1.000 1.000 1.000
v -43.0 56.719512939453125 350.2513732910156 1.000 1.000 1.000
v -43.0 99.71951293945312 350.2513732910156 1.000 1.000 1.000
v 0.0 99.71951293945312 350.2513732910156 1.000 1.000 1.000
v 43.0 56.719512939453125 350.2513732910156 1.000 1.000 1.000
v 0.0 56.719512939453125 350.2513732910156 1.000 1.000 1.000
v 0.0 99.71951293945312 350.2513732910156 1.000 1.000 1.000
v 43.0 99.71951293945312 350.2513732910156 1.000 1.000 1.000
v 0.0 13.719512939453125 350.2513732910156 1.000 1.000 1.000
v -43.0 13.719512939453125 350.2513732910156 1.000 1.000 1.000
v -43.0 56.719512939453125 350.2513732910156 1.000 1.000 1.000
v 0.0 56.719512939453125 350.2513732910156 1.000 1.000 1.000
v 43.0 13.719512939453125 350.2513732910156 1.000 1.000 1.000
v 0.0 13.719512939453125 350.2513732910156 1.000 1.000 1.000
v 0.0 56.719512939453125 350.2513732910156 1.000 1.000 1.000
v 43.0 56.719512939453125 350.2513732910156 1.000 1.000 1.000
v 9.0 56.0 128.0 1.000 1.000 1.000
v 4.0 50.0 182.0 1.000 1.000 1.000
v 4.0 50.0 128.0 1.000 1.000 1.000
v 9.0 56.0 182.0 1.000 1.000 1.000
v 8.0 62.0 128.0 1.000 1.000 1.000
v 8.0 62.0 182.0 1.000 1.000 1.000
v 2.0 67.0 128.0 1.000 1.000 1.000
v 2.0 67.0 182.0 1.000 1.000 1.000
v -4.0 66.0 128.0 1.000 1.000 1.000
v -4.0 66.0 182.0 1.000 1.000 1.000
v -4.0 66.0 128.0 1.000 1.000 1.000
v -9.0 60.0 128.0 1.000 1.000 1.000
v -4.0 66.0 182.0 1.000 1.000 1.000
v -4.0 66.0 128.0 1.000 1.000 1.000
v -9.0 60.0 182.0 1.000 1.000 1.000
v -8.0 53.0 128.0 1.000 1.000 1.000
v -8.0 53.0 182.0 1.000 1.000 1.000
v -9.0 60.0 182.0 1.000 1.000 1.000
v -8.0 53.0 128.0 1.000 1.000 1.000
v -2.0 49.0 128.0 1.000 1.000 1.000
v -2.0 49.0 182.0 1.000 1.000 1.000
v 4.0 50.0 128.0 1.000 1.000 1.000
v 4.0 50.0 182.0 1.000 1.000 1.000
v 4.0 50.0 128.0 1.000 1.000 1.000
v 32.0 31.0 67.0 1.000 1.000 1.000
v 19.0 30.0 69.0 1.000 1.000 1.000
v 28.0 27.0 70.0 1.000 1.000 1.000
v 26.0 33.0 67.0 1.000 1.000 1.000
v 21.0 35.0 67.0 1.000 1.000 1.000
v 32.0 25.0 65.0 1.000 1.000 1.000
v 29.0 23.0 64.0 1.000 1.000 1.000
v 17.0 30.0 65.0 1.000 1.000 1.000
v 15.0 26.0 59.0 1.000 1.000 1.000
v 23.0 22.0 59.0 1.000 1.000 1.000
v 35.0 29.0 41.0 1.000 1.000 1.000
v 35.0 37.0 43.0 1.000 1.000 1.000
v 30.0 40.0 43.0 1.000 1.000 1.000
v 22.0 42.0 42.0 1.000 1.000 1.000
v 18.0 36.0 39.0 1.000 1.000 1.000
v 15.0 29.0 41.0 1.000 1.000 1.000
v 23.0 22.0 59.0 1.000 1.000 1.000
v 15.0 29.0 41.0 1.000 1.000 1.000
v 25.0 19.0 44.0 1.000 1.000 1.000
v 29.0 23.0 64.0 1.000 1.000 1.000
v 31.0 24.0 39.0 1.000 1.000 1.000
v 32.0 25.0 65.0 1.000 1.000 1.000
v 35.0 29.0 41.0 1.000 1.000 1.000
v 24.0 38.0 31.0 1.000 1.000 1.000
v 21.0 37.0 8.0 1.000 1.000 1.000
v 16.0 34.0 33.0 1.000 1.000 1.000
v 14.0 34.0 17.0 1.000 1.000 1.000
v 15.0 28.0 36.0 1.000 1.000 1.000
v 13.0 16.0 21.0 1.000 1.000 1.000
v 21.0 20.0 36.0 1.000 1.000 1.000
v 17.0 11.0 25.0 1.000 1.000 1.000
v 31.0 35.0 31.0 1.000 1.000 1.000
v 32.0 33.0 8.0 1.000 1.000 1.000
v 24.0 38.0 31.0 1.000 1.000 1.000
v 21.0 37.0 8.0 1.000 1.000 1.000
v 30.0 40.0 43.0 1.000 1.000 1.000
v 35.0 37.0 43.0 1.000 1.000 1.000
v 22.0 42.0 42.0 1.000 1.000 1.000
v 18.0 36.0 39.0 1.000 1.000 1.000
v 15.0 29.0 41.0 1.000 1.000 1.000
v 16.0 34.0 33.0 1.000 1.000 1.000
v 25.0 19.0 44.0 1.000 1.000 1.000
v 15.0 28.0 36.0 1.000 1.000 1.000
v 21.0 20.0 36.0 1.000 1.000 1.000
v 21.0 20.0 36.0 1.000 1.000 1.000
v 17.0 11.0 25.0 1.000 1.000 1.000
v 28.0 18.0 36.0 1.000 1.000 1.000
v 28.0 18.0 36.0 1.000 1.000 1.000
v 17.0 11.0 25.0 1.000 1.000 1.000
v 25.0 9.0 17.0 1.000 1.000 1.000
v 34.0 21.0 32.0 1.000 1.000 1.000
v 35.0 12.0 13.0 1.000 1.000 1.000
v 35.0 28.0 32.0 1.000 1.000 1.000
v 36.0 18.0 9.0 1.000 1.000 1.000
v 31.0 35.0 31.0 1.000 1.000 1.000
v 32.0 33.0 8.0 1.000 1.000 1.000
v 35.0 29.0 41.0 1.000 1.000 1.000
v 35.0 37.0 43.0 1.000 1.000 1.000
v 31.0 24.0 39.0 1.000 1.000 1.000
v 21.0 20.0 36.0 1.000 1.000 1.000
v 28.0 18.0 36.0 1.000 1.000 1.000
v 25.0 19.0 44.0 1.000 1.000 1.000
v 25.0 19.0 44.0 1.000 1.000 1.000
v -15.0 27.0 18.0 1.000 1.000 1.000
v 15.0 27.0 18.0 1.000 1.000 1.000
v 15.0 27.0 137.0 1.000 1.000 1.000
v -15.0 27.0 137.0 1.000 1.000 1.000
v 15.0 42.0 182.0 1.000 1.000 1.000
v -15.0 42.0 182.0 1.000 1.000 1.000
v -15.0 27.0 18.0 1.000 1.000 1.000
v -15.0 42.0 18.0 1.000 1.000 1.000
v 15.0 42.0 18.0 1.000 1.000 1.000
v 15.0 27.0 18.0 1.000 1.000 1.000
v 15.0 27.0 137.0 1.000 1.000 1.000
v 15.0 27.0 18.0 1.000 1.000 1.000
v 15.0 42.0 18.0 1.000 1.000 1.000
v 15.0 42.0 137.0 1.000 1.000 1.000
v 15.0 42.0 182.0 1.000 1.000 1.000
v -15.0 42.0 18.0 1.000 1.000 1.000
v -15.0 27.0 18.0 1.000 1.000 1.000
v -15.0 27.0 137.0 1.000 1.000 1.000
v -15.0 42.0 137.0 1.000 1.000 1.000
v -15.0 42.0 182.0 1.000 1.000 1.000
v -15.0 42.0 29.0 1.000 1.000 1.000
v 15.0 42.0 29.0 1.000 1.000 1.000
v 15.0 42.0 18.0 1.000 1.000 1.000
v -15.0 42.0 18.0 1.000 1.000 1.000
v 15.0 42.0 137.0 1.000 1.000 1.000
v -15.0 42.0 137.0 1.000 1.000 1.000
v -15.0 42.0 182.0 1.000 1.000 1.000
v 15.0 42.0 182.0 1.000 1.000 1.000
v 15.0 -9.0 66.0 1.000 1.000 1.000
v 20.0 -9.0 62.0 1.000 1.000 1.000
v 16.0 -11.0 60.0 1.000 1.000 1.000
v 27.0 -11.0 62.0 1.000 1.000 1.000
v 15.0 -11.0 73.0 1.000 1.000 1.000
v 19.0 -9.0 39.0 1.000 1.000 1.000
v 25.0 -12.0 39.0 1.000 1.000 1.000
v 26.0 -18.0 39.0 1.000 1.000 1.000
v 28.0 -18.0 62.0 1.000 1.000 1.000
v 25.0 -25.0 39.0 1.000 1.000 1.000
v 27.0 -24.0 63.0 1.000 1.000 1.000
v 19.0 -27.0 40.0 1.000 1.000 1.000
v 21.0 -27.0 62.0 1.000 1.000 1.000
v 16.0 -25.0 40.0 1.000 1.000 1.000
v 14.0 -25.0 62.0 1.000 1.000 1.000
v 13.0 -19.0 40.0 1.000 1.000 1.000
v 13.0 -19.0 40.0 1.000 1.000 1.000
v 14.0 -25.0 62.0 1.000 1.000 1.000
v 11.0 -16.0 61.0 1.000 1.000 1.000
v 15.0 -12.0 39.0 1.000 1.000 1.000
v 14.0 -12.0 61.0 1.000 1.000 1.000
v 19.0 -9.0 39.0 1.000 1.000 1.000
v 20.0 -9.0 62.0 1.000 1.000 1.000
v 25.0 -12.0 39.0 1.000 1.000 1.000
v 21.0 -23.0 33.0 1.000 1.000 1.000
v 21.0 -14.0 32.0 1.000 1.000 1.000
v 26.0 -18.0 39.0 1.000 1.000 1.000
v 25.0 -25.0 39.0 1.000 1.000 1.000
v 19.0 -27.0 40.0 1.000 1.000 1.000
v 16.0 -25.0 40.0 1.000 1.000 1.000
v 19.0 -28.0 64.0 1.000 1.000 1.000
v 21.0 -25.0 54.0 1.000 1.000 1.000
v 18.0 -26.0 58.0 1.000 1.000 1.000
v 27.0 -28.0 53.0 1.000 1.000 1.000
v 20.0 -34.0 66.0 1.000 1.000 1.000
v 28.0 -34.0 52.0 1.000 1.000 1.000
v 28.0 -41.0 52.0 1.000 1.000 1.000
v 20.0 -41.0 65.0 1.000 1.000 1.000
v 22.0 -44.0 53.0 1.000 1.000 1.000
v 20.0 -44.0 59.0 1.000 1.000 1.000
v 16.0 -28.0 55.0 1.000 1.000 1.000
v 17.0 -24.0 31.0 1.000 1.000 1.000
v 21.0 -25.0 54.0 1.000 1.000 1.000
v 23.0 -27.0 30.0 1.000 1.000 1.000
v 27.0 -28.0 53.0 1.000 1.000 1.000
v 24.0 -33.0 30.0 1.000 1.000 1.000
v 24.0 -33.0 30.0 1.000 1.000 1.000
v 27.0 -28.0 53.0 1.000 1.000 1.000
v 28.0 -34.0 52.0 1.000 1.000 1.000
v 24.0 -39.0 29.0 1.000 1.000 1.000
v 28.0 -41.0 52.0 1.000 1.000 1.000
v 18.0 -43.0 30.0 1.000 1.000 1.000
v 22.0 -44.0 53.0 1.000 1.000 1.000
v 22.0 -44.0 53.0 1.000 1.000 1.000
v 15.0 -40.0 31.0 1.000 1.000 1.000
v 16.0 -41.0 54.0 1.000 1.000 1.000
v 12.0 -34.0 32.0 1.000 1.000 1.000
v 14.0 -35.0 55.0 1.000 1.000 1.000
v 14.0 -27.0 32.0 1.000 1.000 1.000
v 16.0 -28.0 55.0 1.000 1.000 1.000
v 17.0 -24.0 31.0 1.000 1.000 1.000
v 21.0 -25.0 54.0 1.000 1.000 1.000
v 23.0 -27.0 30.0 1.000 1.000 1.000
v 20.0 -37.0 22.0 1.000 1.000 1.000
v 20.0 -28.0 23.0 1.000 1.000 1.000
v 24.0 -33.0 30.0 1.000 1.000 1.000
v 24.0 -39.0 29.0 1.000 1.000 1.000
v 17.0 -24.0 31.0 1.000 1.000 1.000
v 14.0 -27.0 32.0 1.000 1.000 1.000
v 18.0 -43.0 30.0 1.000 1.000 1.000
v 15.0 -40.0 31.0 1.000 1.000 1.000
v 12.0 -34.0 32.0 1.000 1.000 1.000
v 16.0 -48.0 62.0 1.000 1.000 1.000
v 20.0 -45.0 52.0 1.000 1.000 1.000
v 18.0 -45.0 56.0 1.000 1.000 1.000
v 26.0 -47.0 53.0 1.000 1.000 1.000
v 17.0 -53.0 63.0 1.000 1.000 1.000
v 28.0 -52.0 52.0 1.000 1.000 1.000
v 17.0 -59.0 63.0 1.000 1.000 1.000
v 28.0 -58.0 51.0 1.000 1.000 1.000
v 20.0 -62.0 58.0 1.000 1.000 1.000
v 21.0 -61.0 50.0 1.000 1.000 1.000
v 15.0 -48.0 53.0 1.000 1.000 1.000
v 16.0 -43.0 32.0 1.000 1.000 1.000
v 21.0 -45.0 31.0 1.000 1.000 1.000
v 22.0 -50.0 30.0 1.000 1.000 1.000
v 22.0 -56.0 29.0 1.000 1.000 1.000
v 17.0 -59.0 30.0 1.000 1.000 1.000
v 17.0 -59.0 30.0 1.000 1.000 1.000
v 21.0 -61.0 50.0 1.000 1.000 1.000
v 15.0 -57.0 31.0 1.000 1.000 1.000
v 16.0 -59.0 51.0 1.000 1.000 1.000
v 12.0 -51.0 32.0 1.000 1.000 1.000
v 13.0 -54.0 52.0 1.000 1.000 1.000
v 14.0 -45.0 32.0 1.000 1.000 1.000
v 15.0 -48.0 53.0 1.000 1.000 1.000
v 16.0 -43.0 32.0 1.000 1.000 1.000
v 20.0 -45.0 52.0 1.000 1.000 1.000
v 21.0 -45.0 31.0 1.000 1.000 1.000
v 19.0 -54.0 22.0 1.000 1.000 1.000
v 18.0 -46.0 23.0 1.000 1.000 1.000
v 22.0 -50.0 30.0 1.000 1.000 1.000
v 22.0 -56.0 29.0 1.000 1.000 1.000
v 21.0 -45.0 31.0 1.000 1.000 1.000
v 18.0 -46.0 23.0 1.000 1.000 1.000
v 16.0 -43.0 32.0 1.000 1.000 1.000
v 14.0 -45.0 32.0 1.000 1.000 1.000
v 16.0 -43.0 32.0 1.000 1.000 1.000
v 19.0 -54.0 22.0 1.000 1.000 1.000
v 22.0 -56.0 29.0 1.000 1.000 1.000
v 17.0 -59.0 30.0 1.000 1.000 1.000
v 15.0 -57.0 31.0 1.000 1.000 1.000
v 12.0 -51.0 32.0 1.000 1.000 1.000
v 19.0 -54.0 22.0 1.000 1.000 1.000
v -6.0 27.0 115.0 1.000 1.000 1.000
v -3.0 -3.0 107.0 1.000 1.000 1.000
v -6.0 27.0 122.0 1.000 1.000 1.000
v -3.0 1.0 104.0 1.000 1.000 1.000
v -3.0 -6.0 57.0 1.000 1.000 1.000
v -3.0 1.0 104.0 1.000 1.000 1.000
v -3.0 1.0 59.0 1.000 1.000 1.000
v -3.0 -3.0 107.0 1.000 1.000 1.000
v -3.0 1.0 59.0 1.000 1.000 1.000
v -3.0 1.0 104.0 1.000 1.000 1.000
v 3.0 1.0 59.0 1.000 1.000 1.000
v 3.0 1.0 104.0 1.000 1.000 1.000
v -3.0 1.0 104.0 1.000 1.000 1.000
v -6.0 27.0 115.0 1.000 1.000 1.000
v 3.0 1.0 104.0 1.000 1.000 1.000
v 6.0 27.0 115.0 1.000 1.000 1.000
v -6.0 27.0 122.0 1.000 1.000 1.000
v -3.0 -3.0 107.0 1.000 1.000 1.000
v 3.0 -3.0 107.0 1.000 1.000 1.000
v 6.0 27.0 122.0 1.000 1.000 1.000
v 3.0 -6.0 57.0 1.000 1.000 1.000
v -3.0 -3.0 107.0 1.000 1.000 1.000
v -3.0 -6.0 57.0 1.000 1.000 1.000
v 3.0 -3.0 107.0 1.000 1.000 1.000
v 6.0 27.0 122.0 1.000 1.000 1.000
v 3.0 -3.0 107.0 1.000 1.000 1.000
v 6.0 27.0 115.0 1.000 1.000 1.000
v 3.0 -3.0 107.0 1.000 1.000 1.000
v 3.0 1.0 104.0 1.000 1.000 1.000
v 3.0 1.0 59.0 1.000 1.000 1.000
v 3.0 1.0 104.0 1.000 1.000 1.000
v 3.0 -6.0 57.0 1.000 1.000 1.000
v 3.0 -6.0 57.0 1.000 1.000 1.000
v 3.0 1.0 104.0 1.000 1.000 1.000
v 3.0 -3.0 107.0 1.000 1.000 1.000
v -30.857145309448242 19.95308208465576 82.03998565673828 1.000 1.000 1.000
v 1.1428546905517578 19.95308208465576 92.03998565673828 1.000 1.000 1.000
v -26.857145309448242 22.95308208465576 75.03998565673828 1.000 1.000 1.000
v -1.8571453094482422 17.95308208465576 98.03998565673828 1.000 1.000 1.000
v -31.857145309448242 11.953082084655762 83.03998565673828 1.000 1.000 1.000
v -2.857145309448242 10.953082084655762 99.03998565673828 1.000 1.000 1.000
v -31.857145309448242 3.9530820846557617 82.03998565673828 1.000 1.000 1.000
v -2.857145309448242 4.953082084655762 98.03998565673828 1.000 1.000 1.000
v -20.857145309448242 11.953082084655762 65.03998565673828 1.000 1.000 1.000
v 4.142854690551758 3.9530820846557617 87.03998565673828 1.000 1.000 1.000
v -22.857145309448242 3.9530820846557617 68.03998565673828 1.000 1.000 1.000
v 6.142854690551758 10.953082084655762 84.03998565673828 1.000 1.000 1.000
v -22.857145309448242 19.95308208465576 68.03998565673828 1.000 1.000 1.000
v 4.142854690551758 16.95308208465576 87.03998565673828 1.000 1.000 1.000
v 7.142854690551758 19.95308208465576 90.03998565673828 1.000 1.000 1.000
v 12.142854690551758 16.95308208465576 94.03998565673828 1.000 1.000 1.000
v 12.142854690551758 16.95308208465576 94.03998565673828 1.000 1.000 1.000
v -1.8571453094482422 17.95308208465576 98.03998565673828 1.000 1.000 1.000
v 12.142854690551758 9.953082084655762 94.03998565673828 1.000 1.000 1.000
v -2.857145309448242 10.953082084655762 99.03998565673828 1.000 1.000 1.000
v 11.142854690551758 3.9530820846557617 94.03998565673828 1.000 1.000 1.000
v -2.857145309448242 4.953082084655762 98.03998565673828 1.000 1.000 1.000
v 0.1428546905517578 1.9530820846557617 92.03998565673828 1.000 1.000 1.000
v 6.142854690551758 0.9530820846557617 90.03998565673828 1.000 1.000 1.000
v 1.1428546905517578 19.95308208465576 92.03998565673828 1.000 1.000 1.000
v 7.142854690551758 19.95308208465576 90.03998565673828 1.000 1.000 1.000
v 4.142854690551758 16.95308208465576 87.03998565673828 1.000 1.000 1.000
v 21.142854690551758 18.95308208465576 72.03998565673828 1.000 1.000 1.000
v 7.142854690551758 19.95308208465576 90.03998565673828 1.000 1.000 1.000
v 25.142854690551758 15.953082084655762 76.03998565673828 1.000 1.000 1.000
v 12.142854690551758 16.95308208465576 94.03998565673828 1.000 1.000 1.000
v 26.142854690551758 9.953082084655762 76.03998565673828 1.000 1.000 1.000
v 26.142854690551758 9.953082084655762 76.03998565673828 1.000 1.000 1.000
v 12.142854690551758 16.95308208465576 94.03998565673828 1.000 1.000 1.000
v 12.142854690551758 9.953082084655762 94.03998565673828 1.000 1.000 1.000
v 25.142854690551758 3.9530820846557617 76.03998565673828 1.000 1.000 1.000
v 11.142854690551758 3.9530820846557617 94.03998565673828 1.000 1.000 1.000
v 20.142854690551758 0.9530820846557617 72.03998565673828 1.000 1.000 1.000
v 6.142854690551758 0.9530820846557617 90.03998565673828 1.000 1.000 1.000
v 18.142854690551758 3.9530820846557617 70.03998565673828 1.000 1.000 1.000
v 2.142854690551758 3.9530820846557617 87.03998565673828 1.000 1.000 1.000
v 16.142854690551758 9.953082084655762 69.03998565673828 1.000 1.000 1.000
v 0.1428546905517578 10.953082084655762 85.03998565673828 1.000 1.000 1.000
v 18.142854690551758 16.95308208465576 70.03998565673828 1.000 1.000 1.000
v 2.142854690551758 16.95308208465576 87.03998565673828 1.000 1.000 1.000
v 21.142854690551758 18.95308208465576 72.03998565673828 1.000 1.000 1.000
v 7.142854690551758 19.95308208465576 90.03998565673828 1.000 1.000 1.000
v 25.142854690551758 15.953082084655762 76.03998565673828 1.000 1.000 1.000
v 28.142854690551758 4.953082084655762 68.03998565673828 1.000 1.000 1.000
v 28.142854690551758 13.953082084655762 68.03998565673828 1.000 1.000 1.000
v 26.142854690551758 9.953082084655762 76.03998565673828 1.000 1.000 1.000
v 25.142854690551758 3.9530820846557617 76.03998565673828 1.000 1.000 1.000
v 21.142854690551758 18.95308208465576 72.03998565673828 1.000 1.000 1.000
v 18.142854690551758 16.95308208465576 70.03998565673828 1.000 1.000 1.000
v 20.142854690551758 0.9530820846557617 72.03998565673828 1.000 1.000 1.000
v 18.142854690551758 3.9530820846557617 70.03998565673828 1.000 1.000 1.000
v 16.142854690551758 9.953082084655762 69.03998565673828 1.000 1.000 1.000
v -6.0 27.0 3.0 1.000 1.000 1.000
v -9.0 27.0 18.0 1.000 1.000 1.000
v -9.0 34.0 18.0 1.000 1.000 1.000
v -9.0 12.0 18.0 1.000 1.000 1.000
v -12.0 27.0 63.0 1.000 1.000 1.000
v -9.0 12.0 18.0 1.000 1.000 1.000
v -12.0 -63.0 -12.0 1.000 1.000 1.000
v -12.0 -63.0 48.0 1.000 1.000 1.000
v -12.0 27.0 63.0 1.000 1.000 1.000
v -39.0 -44.0 40.0 1.000 1.000 1.000
v -35.0 -36.0 38.0 1.000 1.000 1.000
v -46.0 -43.0 26.0 1.000 1.000 1.000
v -42.0 -31.0 18.0 1.000 1.000 1.000
v -31.0 -30.0 35.0 1.000 1.000 1.000
v -29.0 -8.0 73.0 1.000 1.000 1.000
v -20.0 -11.0 71.0 1.000 1.000 1.000
v -32.0 -2.0 36.0 1.000 1.000 1.000
v -41.0 -9.0 38.0 1.000 1.000 1.000
v -32.0 -2.0 36.0 1.000 1.000 1.000
v -40.0 1.0 18.0 1.000 1.000 1.000
v -36.0 -12.0 74.0 1.000 1.000 1.000
v -46.0 -17.0 38.0 1.000 1.000 1.000
v -48.0 -15.0 25.0 1.000 1.000 1.000
v -27.0 -9.0 35.0 1.000 1.000 1.000
v -17.0 -19.0 71.0 1.000 1.000 1.000
v -27.0 -9.0 35.0 1.000 1.000 1.000
v -17.0 -19.0 71.0 1.000 1.000 1.000
v -24.0 -16.0 35.0 1.000 1.000 1.000
v -39.0 -20.0 74.0 1.000 1.000 1.000
v -36.0 -12.0 74.0 1.000 1.000 1.000
v -46.0 -17.0 38.0 1.000 1.000 1.000
v -41.0 -9.0 38.0 1.000 1.000 1.000
v 15.0 -9.0 66.0 1.000 1.000 1.000
v 16.0 -11.0 60.0 1.000 1.000 1.000
v -23.0 -8.0 77.0 1.000 1.000 1.000
v -22.0 -11.0 69.0 1.000 1.000 1.000
v 17.0 -18.0 57.0 1.000 1.000 1.000
v 15.0 -11.0 73.0 1.000 1.000 1.000
v -24.0 -11.0 85.0 1.000 1.000 1.000
v -39.0 20.0 69.0 1.000 1.000 1.000
v -31.0 20.0 82.0 1.000 1.000 1.000
v -31.0 23.0 69.0 1.000 1.000 1.000
v -32.0 12.0 83.0 1.000 1.000 1.000
v -43.0 12.0 68.0 1.000 1.000 1.000
v -40.0 4.0 69.0 1.000 1.000 1.000
v -32.0 4.0 82.0 1.000 1.000 1.000
v -27.0 23.0 75.0 1.000 1.000 1.000
v -23.0 20.0 70.0 1.000 1.000 1.000
v -36.0 22.0 36.0 1.000 1.000 1.000
v -31.0 23.0 69.0 1.000 1.000 1.000
v -28.0 24.0 36.0 1.000 1.000 1.000
v -39.0 20.0 69.0 1.000 1.000 1.000
v -41.0 12.0 35.0 1.000 1.000 1.000
v -43.0 12.0 68.0 1.000 1.000 1.000
v -36.0 5.0 36.0 1.000 1.000 1.000
v -40.0 4.0 69.0 1.000 1.000 1.000
v -43.0 12.0 68.0 1.000 1.000 1.000
v -36.0 5.0 36.0 1.000 1.000 1.000
v -18.0 12.0 37.0 1.000 1.000 1.000
v -23.0 4.0 70.0 1.000 1.000 1.000
v -22.0 4.0 37.0 1.000 1.000 1.000
v -20.0 12.0 70.0 1.000 1.000 1.000
v -21.0 21.0 37.0 1.000 1.000 1.000
v -23.0 20.0 70.0 1.000 1.000 1.000
v -28.0 24.0 36.0 1.000 1.000 1.000
v -31.0 23.0 69.0 1.000 1.000 1.000
v -34.0 24.0 19.0 1.000 1.000 1.000
v -42.0 17.0 26.0 1.000 1.000 1.000
v -36.0 22.0 36.0 1.000 1.000 1.000
v -25.0 28.0 7.0 1.000 1.000 1.000
v -18.0 23.0 20.0 1.000 1.000 1.000
v -21.0 21.0 37.0 1.000 1.000 1.000
v -18.0 12.0 37.0 1.000 1.000 1.000
v 17.0 11.0 25.0 1.000 1.000 1.000
v -28.0 24.0 36.0 1.000 1.000 1.000
v -25.0 28.0 7.0 1.000 1.000 1.000
v -36.0 22.0 36.0 1.000 1.000 1.000
v -42.0 17.0 26.0 1.000 1.000 1.000
v -41.0 12.0 35.0 1.000 1.000 1.000
v -40.0 1.0 18.0 1.000 1.000 1.000
v -36.0 5.0 36.0 1.000 1.000 1.000
v -32.0 -2.0 36.0 1.000 1.000 1.000
v -6.0 27.0 3.0 1.000 1.000 1.000
v -9.0 34.0 18.0 1.000 1.000 1.000
v 9.0 34.0 18.0 1.000 1.000 1.000
v 6.0 27.0 3.0 1.000 1.000 1.000
v 6.0 27.0 3.0 1.000 1.000 1.000
v -9.0 12.0 18.0 1.000 1.000 1.000
v 9.0 12.0 18.0 1.000 1.000 1.000
v -12.0 -63.0 -12.0 1.000 1.000 1.000
v 12.0 -63.0 -12.0 1.000 1.000 1.000
v 12.0 -63.0 48.0 1.000 1.000 1.000
v -12.0 -63.0 48.0 1.000 1.000 1.000
v 9.0 27.0 18.0 1.000 1.000 1.000
v 12.0 27.0 63.0 1.000 1.000 1.000
v -12.0 27.0 63.0 1.000 1.000 1.000
v -9.0 27.0 18.0 1.000 1.000 1.000
v -6.0 27.0 3.0 1.000 1.000 1.000
v 6.0 27.0 3.0 1.000 1.000 1.000
v 9.0 27.0 18.0 1.000 1.000 1.000
v 12.0 27.0 63.0 1.000 1.000 1.000
v 9.0 12.0 18.0 1.000 1.000 1.000
v 12.0 -63.0 -12.0 1.000 1.000 1.000
v -12.0 -63.0 -12.0 1.000 1.000 1.000
v -9.0 12.0 18.0 1.000 1.000 1.000
v -12.0 27.0 63.0 1.000 1.000 1.000
v -12.0 -63.0 48.0 1.000 1.000 1.000
v 12.0 -63.0 48.0 1.000 1.000 1.000
v 12.0 27.0 63.0 1.000 1.000 1.000
v 12.0 -63.0 48.0 1.000 1.000 1.000
v 12.0 -63.0 -12.0 1.000 1.000 1.000
v 9.0 12.0 18.0 1.000 1.000 1.000
v 9.0 12.0 18.0 1.000 1.000 1.000
v 12.0 27.0 63.0 1.000 1.000 1.000
v -35.0 -31.0 -19.0 1.000 1.000 1.000
v -31.0 -35.0 -43.0 1.000 1.000 1.000
v -32.0 -55.0 -18.0 1.000 1.000 1.000
v -22.0 -76.0 -17.0 1.000 1.000 1.000
v -29.0 -72.0 -18.0 1.000 1.000 1.000
v -9.0 -66.0 -41.0 1.000 1.000 1.000
v -28.0 -53.0 -42.0 1.000 1.000 1.000
v -30.0 -17.0 -43.0 1.000 1.000 1.000
v -33.0 1.0 -18.0 1.000 1.000 1.000
v -38.0 1.0 -2.0 1.000 1.000 1.000
v -43.0 -15.0 -2.0 1.000 1.000 1.000
v -37.0 17.0 -2.0 1.000 1.000 1.000
v -40.0 1.0 18.0 1.000 1.000 1.000
v -48.0 -15.0 25.0 1.000 1.000 1.000
v -42.0 -31.0 18.0 1.000 1.000 1.000
v -40.0 -31.0 -2.0 1.000 1.000 1.000
v -46.0 -43.0 26.0 1.000 1.000 1.000
v -42.0 -31.0 18.0 1.000 1.000 1.000
v -40.0 -31.0 -2.0 1.000 1.000 1.000
v -41.0 -43.0 -2.0 1.000 1.000 1.000
v -38.0 -55.0 10.0 1.000 1.000 1.000
v -37.0 -55.0 -2.0 1.000 1.000 1.000
v -42.0 -67.0 14.0 1.000 1.000 1.000
v -38.0 -67.0 -2.0 1.000 1.000 1.000
v -36.0 -76.0 10.0 1.000 1.000 1.000
v -34.0 -76.0 -1.0 1.000 1.000 1.000
v -27.0 -80.0 7.0 1.000 1.000 1.000
v -27.0 -80.0 -1.0 1.000 1.000 1.000
v -22.0 -76.0 -17.0 1.000 1.000 1.000
v -29.0 -72.0 -18.0 1.000 1.000 1.000
v -32.0 -55.0 -18.0 1.000 1.000 1.000
v -35.0 -31.0 -19.0 1.000 1.000 1.000
v -35.0 -31.0 -19.0 1.000 1.000 1.000
v -40.0 -31.0 -2.0 1.000 1.000 1.000
v -43.0 -15.0 -2.0 1.000 1.000 1.000
v -33.0 1.0 -18.0 1.000 1.000 1.000
v -38.0 1.0 -2.0 1.000 1.000 1.000
v -37.0 17.0 -2.0 1.000 1.000 1.000
v -42.0 -67.0 14.0 1.000 1.000 1.000
v -35.0 -67.0 26.0 1.000 1.000 1.000
v -31.0 -60.0 24.0 1.000 1.000 1.000
v -38.0 -55.0 10.0 1.000 1.000 1.000
v -25.0 -57.0 21.0 1.000 1.000 1.000
v -40.0 1.0 18.0 1.000 1.000 1.000
v -42.0 17.0 26.0 1.000 1.000 1.000
v -33.0 24.0 -1.0 1.000 1.000 1.000
v -34.0 24.0 19.0 1.000 1.000 1.000
v 4.0 -49.0 -15.0 1.000 1.000 1.000
v -1.0 -65.0 -16.0 1.000 1.000 1.000
v 23.0 -43.0 -37.0 1.000 1.000 1.000
v 12.0 -61.0 -39.0 1.000 1.000 1.000
v -13.0 -72.0 -17.0 1.000 1.000 1.000
v -1.0 -66.0 -40.0 1.000 1.000 1.000
v -22.0 -76.0 -17.0 1.000 1.000 1.000
v -9.0 -66.0 -41.0 1.000 1.000 1.000
v -3.0 -37.0 -19.0 1.000 1.000 1.000
v -17.0 -45.0 0.0 1.000 1.000 1.000
v -16.0 -29.0 0.0 1.000 1.000 1.000
v -11.0 -26.0 3.0 1.000 1.000 1.000
v -27.0 -80.0 7.0 1.000 1.000 1.000
v -27.0 -80.0 -1.0 1.000 1.000 1.000
v -19.0 -76.0 0.0 1.000 1.000 1.000
v -20.0 -76.0 12.0 1.000 1.000 1.000
v -19.0 -76.0 0.0 1.000 1.000 1.000
v -14.0 -69.0 0.0 1.000 1.000 1.000
v -20.0 -76.0 12.0 1.000 1.000 1.000
v -16.0 -69.0 16.0 1.000 1.000 1.000
v -13.0 -57.0 0.0 1.000 1.000 1.000
v -18.0 -57.0 12.0 1.000 1.000 1.000
v -17.0 -45.0 0.0 1.000 1.000 1.000
v -19.0 -41.0 28.0 1.000 1.000 1.000
v -16.0 -29.0 0.0 1.000 1.000 1.000
v -25.0 -28.0 19.0 1.000 1.000 1.000
v -21.0 -16.0 28.0 1.000 1.000 1.000
v -11.0 -26.0 3.0 1.000 1.000 1.000
v -7.0 -9.0 5.0 1.000 1.000 1.000
v -20.0 0.0 20.0 1.000 1.000 1.000
v -16.0 11.0 28.0 1.000 1.000 1.000
v -27.0 -80.0 -1.0 1.000 1.000 1.000
v -22.0 -76.0 -17.0 1.000 1.000 1.000
v -13.0 -72.0 -17.0 1.000 1.000 1.000
v -19.0 -76.0 0.0 1.000 1.000 1.000
v -1.0 -65.0 -16.0 1.000 1.000 1.000
v -14.0 -69.0 0.0 1.000 1.000 1.000
v -13.0 -57.0 0.0 1.000 1.000 1.000
v 4.0 -49.0 -15.0 1.000 1.000 1.000
v -17.0 -45.0 0.0 1.000 1.000 1.000
v 1.0 25.0 5.0 1.000 1.000 1.000
v -18.0 23.0 20.0 1.000 1.000 1.000
v 13.0 16.0 21.0 1.000 1.000 1.000
v 17.0 11.0 25.0 1.000 1.000 1.000
v 13.0 16.0 21.0 1.000 1.000 1.000
v -18.0 23.0 20.0 1.000 1.000 1.000
v -25.0 28.0 7.0 1.000 1.000 1.000
v -20.0 24.0 -17.0 1.000 1.000 1.000
v -24.0 28.0 -1.0 1.000 1.000 1.000
v 21.0 37.0 8.0 1.000 1.000 1.000
v 23.0 25.0 -9.0 1.000 1.000 1.000
v 13.0 30.0 -4.0 1.000 1.000 1.000
v 14.0 34.0 17.0 1.000 1.000 1.000
v 32.0 33.0 8.0 1.000 1.000 1.000
v 36.0 13.0 2.0 1.000 1.000 1.000
v 23.0 25.0 -9.0 1.000 1.000 1.000
v 32.0 33.0 8.0 1.000 1.000 1.000
v 36.0 18.0 9.0 1.000 1.000 1.000
v 35.0 12.0 13.0 1.000 1.000 1.000
v 25.0 -3.0 -3.0 1.000 1.000 1.000
v 25.0 9.0 17.0 1.000 1.000 1.000
v -7.0 -9.0 5.0 1.000 1.000 1.000
v 17.0 11.0 25.0 1.000 1.000 1.000
v -18.0 23.0 20.0 1.000 1.000 1.000
v -20.0 24.0 -17.0 1.000 1.000 1.000
v -28.0 20.0 -18.0 1.000 1.000 1.000
v -33.0 24.0 -1.0 1.000 1.000 1.000
v -24.0 28.0 -1.0 1.000 1.000 1.000
v -33.0 1.0 -18.0 1.000 1.000 1.000
v -37.0 17.0 -2.0 1.000 1.000 1.000
v -24.0 28.0 -1.0 1.000 1.000 1.000
v -33.0 24.0 -1.0 1.000 1.000 1.000
v -34.0 24.0 19.0 1.000 1.000 1.000
v -25.0 28.0 7.0 1.000 1.000 1.000
v -8.0 20.0 -18.0 1.000 1.000 1.000
v -20.0 24.0 -17.0 1.000 1.000 1.000
v 1.0 25.0 5.0 1.000 1.000 1.000
v 4.0 24.0 -23.0 1.000 1.000 1.000
v 13.0 30.0 -4.0 1.000 1.000 1.000
v 23.0 25.0 -9.0 1.000 1.000 1.000
v 27.0 -1.0 -28.0 1.000 1.000 1.000
v 4.0 24.0 -23.0 1.000 1.000 1.000
v 23.0 25.0 -9.0 1.000 1.000 1.000
v 36.0 13.0 2.0 1.000 1.000 1.000
v 25.0 -3.0 -3.0 1.000 1.000 1.000
v -3.0 -37.0 -19.0 1.000 1.000 1.000
v -3.0 -37.0 -19.0 1.000 1.000 1.000
v 25.0 -3.0 -3.0 1.000 1.000 1.000
v -7.0 -9.0 5.0 1.000 1.000 1.000
v -11.0 -26.0 3.0 1.000 1.000 1.000
v -26.0 1.0 -43.0 1.000 1.000 1.000
v -30.0 -17.0 -43.0 1.000 1.000 1.000
v -33.0 1.0 -18.0 1.000 1.000 1.000
v 23.0 -43.0 -37.0 1.000 1.000 1.000
v 4.0 -49.0 -15.0 1.000 1.000 1.000
v 25.0 -21.0 -40.0 1.000 1.000 1.000
v 27.0 -1.0 -28.0 1.000 1.000 1.000
v 18.0 1.0 -33.0 1.000 1.000 1.000
v 4.0 24.0 -23.0 1.000 1.000 1.000
v 11.0 5.0 -39.0 1.000 1.000 1.000
v -12.0 11.0 -40.0 1.000 1.000 1.000
v 4.0 24.0 -23.0 1.000 1.000 1.000
v 0.0 10.0 -40.0 1.000 1.000 1.000
v 11.0 5.0 -39.0 1.000 1.000 1.000
v -8.0 20.0 -18.0 1.000 1.000 1.000
v -20.0 24.0 -17.0 1.000 1.000 1.000
v -20.0 24.0 -17.0 1.000 1.000 1.000
v -12.0 11.0 -40.0 1.000 1.000 1.000
v -21.0 12.0 -41.0 1.000 1.000 1.000
v -28.0 20.0 -18.0 1.000 1.000 1.000
v -33.0 1.0 -18.0 1.000 1.000 1.000
v -26.0 1.0 -43.0 1.000 1.000 1.000
v -8.0 7.0 -65.0 1.000 1.000 1.000
v -21.0 -3.0 -66.0 1.000 1.000 1.000
v -30.0 -17.0 -43.0 1.000 1.000 1.000
v -26.0 -25.0 -66.0 1.000 1.000 1.000
v -31.0 -35.0 -43.0 1.000 1.000 1.000
v -30.0 -17.0 -43.0 1.000 1.000 1.000
v -26.0 -25.0 -66.0 1.000 1.000 1.000
v -21.0 -48.0 -66.0 1.000 1.000 1.000
v -28.0 -53.0 -42.0 1.000 1.000 1.000
v -9.0 -66.0 -41.0 1.000 1.000 1.000
v -21.0 -48.0 -66.0 1.000 1.000 1.000
v -8.0 -57.0 -65.0 1.000 1.000 1.000
v -1.0 -66.0 -40.0 1.000 1.000 1.000
v 12.0 -61.0 -39.0 1.000 1.000 1.000
v -1.0 -66.0 -40.0 1.000 1.000 1.000
v -8.0 -57.0 -65.0 1.000 1.000 1.000
v 5.0 -48.0 -64.0 1.000 1.000 1.000
v 23.0 -43.0 -37.0 1.000 1.000 1.000
v 14.0 -25.0 -71.0 1.000 1.000 1.000
v 25.0 -21.0 -40.0 1.000 1.000 1.000
v 25.0 -21.0 -40.0 1.000 1.000 1.000
v 14.0 -25.0 -71.0 1.000 1.000 1.000
v 5.0 -3.0 -64.0 1.000 1.000 1.000
v 11.0 5.0 -39.0 1.000 1.000 1.000
v 11.0 5.0 -39.0 1.000 1.000 1.000
v 5.0 -3.0 -64.0 1.000 1.000 1.000
v 0.0 10.0 -40.0 1.000 1.000 1.000
v -12.0 11.0 -40.0 1.000 1.000 1.000
v -12.0 11.0 -40.0 1.000 1.000 1.000
v -8.0 7.0 -65.0 1.000 1.000 1.000
v -21.0 12.0 -41.0 1.000 1.000 1.000
v -12.0 11.0 -40.0 1.000 1.000 1.000
v -8.0 7.0 -65.0 1.000 1.000 1.000
v -9.0 -66.0 -41.0 1.000 1.000 1.000
v -21.0 -48.0 -66.0 1.000 1.000 1.000
v -1.0 -66.0 -40.0 1.000 1.000 1.000
v 21.0 -18.0 -179.0 1.000 1.000 1.000
v 14.0 -25.0 -71.0 1.000 1.000 1.000
v 28.0 -49.0 -179.0 1.000 1.000 1.000
v 5.0 -3.0 -64.0 1.000 1.000 1.000
v 2.0 -15.0 -181.0 1.000 1.000 1.000
v 5.0 -3.0 -64.0 1.000 1.000 1.000
v 21.0 -18.0 -179.0 1.000 1.000 1.000
v -8.0 7.0 -65.0 1.000 1.000 1.000
v -16.0 -18.0 -182.0 1.000 1.000 1.000
v -21.0 -3.0 -66.0 1.000 1.000 1.000
v -34.0 -49.0 -182.0 1.000 1.000 1.000
v -26.0 -25.0 -66.0 1.000 1.000 1.000
v -16.0 -81.0 -182.0 1.000 1.000 1.000
v -21.0 -48.0 -66.0 1.000 1.000 1.000
v 2.0 -93.0 -181.0 1.000 1.000 1.000
v -8.0 -57.0 -65.0 1.000 1.000 1.000
v 21.0 -81.0 -179.0 1.000 1.000 1.000
v -8.0 -57.0 -65.0 1.000 1.000 1.000
v 2.0 -93.0 -181.0 1.000 1.000 1.000
v 5.0 -48.0 -64.0 1.000 1.000 1.000
v 28.0 -49.0 -179.0 1.000 1.000 1.000
v 14.0 -25.0 -71.0 1.000 1.000 1.000
v 9.0 34.0 18.0 1.000 1.000 1.000
v 6.0 27.0 3.0 1.000 1.000 1.000
v -6.0 27.0 3.0 1.000 1.000 1.000
v -9.0 34.0 18.0 1.000 1.000 1.000
v -9.0 27.0 18.0 1.000 1.000 1.000
v 3.0 49.003318786621094 25.159141540527344 1.000 1.000 1.000
v 3.0 57.003318786621094 25.159141540527344 1.000 1.000 1.000
v 3.0 68.0033187866211 33.159141540527344 1.000 1.000 1.000
v 3.0 68.0033187866211 44.159141540527344 1.000 1.000 1.000
v 3.0 68.0033187866211 33.159141540527344 1.000 1.000 1.000
v -3.0 68.0033187866211 44.159141540527344 1.000 1.000 1.000
v 3.0 68.0033187866211 44.159141540527344 1.000 1.000 1.000
v -3.0 68.0033187866211 33.159141540527344 1.000 1.000 1.000
v 3.0 68.0033187866211 33.159141540527344 1.000 1.000 1.000
v 3.0 57.003318786621094 25.159141540527344 1.000 1.000 1.000
v -3.0 57.003318786621094 25.159141540527344 1.000 1.000 1.000
v -3.0 68.0033187866211 33.159141540527344 1.000 1.000 1.000
v -3.0 49.003318786621094 25.159141540527344 1.000 1.000 1.000
v 3.0 57.003318786621094 25.159141540527344 1.000 1.000 1.000
v 3.0 49.003318786621094 25.159141540527344 1.000 1.000 1.000
v -3.0 57.003318786621094 25.159141540527344 1.000 1.000 1.000
v -3.0 68.0033187866211 33.159141540527344 1.000 1.000 1.000
v -3.0 57.003318786621094 25.159141540527344 1.000 1.000 1.000
v -3.0 49.003318786621094 25.159141540527344 1.000 1.000 1.000
v -3.0 68.0033187866211 44.159141540527344 1.000 1.000 1.000
v 15.0 42.003318786621094 182.15914154052734 1.000 1.000 1.000
v -15.0 57.003318786621094 182.15914154052734 1.000 1.000 1.000
v -15.0 42.003318786621094 182.15914154052734 1.000 1.000 1.000
v 15.0 57.003318786621094 182.15914154052734 1.000 1.000 1.000
v 15.0 57.003318786621094 33.159141540527344 1.000 1.000 1.000
v 15.0 42.003318786621094 18.159141540527344 1.000 1.000 1.000
v -15.0 42.003318786621094 18.159141540527344 1.000 1.000 1.000
v -15.0 57.003318786621094 33.159141540527344 1.000 1.000 1.000
v 15.0 57.003318786621094 33.159141540527344 1.000 1.000 1.000
v 12.0 57.003318786621094 33.159141540527344 1.000 1.000 1.000
v 12.0 57.003318786621094 182.15914154052734 1.000 1.000 1.000
v 15.0 57.003318786621094 182.15914154052734 1.000 1.000 1.000
v -15.0 57.003318786621094 182.15914154052734 1.000 1.000 1.000
v -12.0 57.003318786621094 182.15914154052734 1.000 1.000 1.000
v -12.0 57.003318786621094 33.159141540527344 1.000 1.000 1.000
v -15.0 57.003318786621094 33.159141540527344 1.000 1.000 1.000
v -15.0 42.003318786621094 18.159141540527344 1.000 1.000 1.000
v -15.0 42.003318786621094 182.15914154052734 1.000 1.000 1.000
v -15.0 57.003318786621094 182.15914154052734 1.000 1.000 1.000
v -15.0 57.003318786621094 33.159141540527344 1.000 1.000 1.000
v 15.0 57.003318786621094 182.15914154052734 1.000 1.000 1.000
v 15.0 42.003318786621094 182.15914154052734 1.000 1.000 1.000
v 15.0 42.003318786621094 18.159141540527344 1.000 1.000 1.000
v 15.0 57.003318786621094 33.159141540527344 1.000 1.000 1.000
v -12.0 57.003318786621094 182.15914154052734 1.000 1.000 1.000
v 12.0 57.003318786621094 182.15914154052734 1.000 1.000 1.000
v -11.0 62.003318786621094 182.15914154052734 1.000 1.000 1.000
v 11.0 62.003318786621094 182.15914154052734 1.000 1.000 1.000
v -8.0 67.0033187866211 182.15914154052734 1.000 1.000 1.000
v 8.0 67.0033187866211 182.15914154052734 1.000 1.000 1.000
v -5.0 70.0033187866211 182.15914154052734 1.000 1.000 1.000
v 5.0 70.0033187866211 182.15914154052734 1.000 1.000 1.000
v 0.0 72.0033187866211 182.15914154052734 1.000 1.000 1.000
v 11.0 62.003318786621094 38.159141540527344 1.000 1.000 1.000
v 12.0 57.003318786621094 182.15914154052734 1.000 1.000 1.000
v 12.0 57.003318786621094 33.159141540527344 1.000 1.000 1.000
v 11.0 62.003318786621094 182.15914154052734 1.000 1.000 1.000
v 8.0 67.0033187866211 43.159141540527344 1.000 1.000 1.000
v 8.0 67.0033187866211 182.15914154052734 1.000 1.000 1.000
v 5.0 71.0033187866211 47.159141540527344 1.000 1.000 1.000
v 5.0 70.0033187866211 182.15914154052734 1.000 1.000 1.000
v 8.0 67.0033187866211 182.15914154052734 1.000 1.000 1.000
v 5.0 71.0033187866211 47.159141540527344 1.000 1.000 1.000
v 0.0 72.0033187866211 48.159141540527344 1.000 1.000 1.000
v 0.0 72.0033187866211 182.15914154052734 1.000 1.000 1.000
v -5.0 71.0033187866211 47.159141540527344 1.000 1.000 1.000
v 0.0 72.0033187866211 182.15914154052734 1.000 1.000 1.000
v -5.0 70.0033187866211 182.15914154052734 1.000 1.000 1.000
v -8.0 67.0033187866211 43.159141540527344 1.000 1.000 1.000
v -8.0 67.0033187866211 182.15914154052734 1.000 1.000 1.000
v -11.0 62.003318786621094 38.159141540527344 1.000 1.000 1.000
v -11.0 62.003318786621094 182.15914154052734 1.000 1.000 1.000
v -12.0 57.003318786621094 33.159141540527344 1.000 1.000 1.000
v -12.0 57.003318786621094 182.15914154052734 1.000 1.000 1.000
v -11.0 62.003318786621094 38.159141540527344 1.000 1.000 1.000
v 12.0 57.003318786621094 33.159141540527344 1.000 1.000 1.000
v -12.0 57.003318786621094 33.159141540527344 1.000 1.000 1.000
v 11.0 62.003318786621094 38.159141540527344 1.000 1.000 1.000
v -8.0 67.0033187866211 43.159141540527344 1.000 1.000 1.000
v 8.0 67.0033187866211 43.159141540527344 1.000 1.000 1.000
v -5.0 71.0033187866211 47.159141540527344 1.000 1.000 1.000
v 5.0 71.0033187866211 47.159141540527344 1.000 1.000 1.000
v 0.0 72.0033187866211 48.159141540527344 1.000 1.000 1.000
v 1.0 71.0033187866211 178.15914154052734 1.000 1.000 1.000
v 1.0 71.0033187866211 159.15914154052734 1.000 1.000 1.000
v 1.0 75.0033187866211 163.15914154052734 1.000 1.000 1.000
v -1.0 75.0033187866211 163.15914154052734 1.000 1.000 1.000
v -1.0 71.0033187866211 159.15914154052734 1.000 1.000 1.000
v -1.0 71.0033187866211 178.15914154052734 1.000 1.000 1.000
v -1.0 75.0033187866211 163.15914154052734 1.000 1.000 1.000
v 1.0 71.0033187866211 159.15914154052734 1.000 1.000 1.000
v -1.0 71.0033187866211 159.15914154052734 1.000 1.000 1.000
v 1.0 75.0033187866211 163.15914154052734 1.000 1.000 1.000
v -1.0 71.0033187866211 178.15914154052734 1.000 1.000 1.000
v 1.0 71.0033187866211 178.15914154052734 1.000 1.000 1.000
v -12.0 68.0 182.0 1.000 1.000 1.000
v 0.0 73.0 182.0 1.000 1.000 1.000
v 0.0 57.0 182.0 1.000 1.000 1.000
v -16.0 57.0 182.0 1.000 1.000 1.000
v -12.0 45.0 182.0 1.000 1.000 1.000
v 0.0 40.0 182.0 1.000 1.000 1.000
v 12.0 45.0 182.0 1.000 1.000 1.000
v 16.0 57.0 182.0 1.000 1.000 1.000
v 12.0 68.0 182.0 1.000 1.000 1.000
v -12.0 68.0 331.0 1.000 1.000 1.000
v 0.0 57.0 331.0 1.000 1.000 1.000
v 0.0 73.0 331.0 1.000 1.000 1.000
v -16.0 57.0 331.0 1.000 1.000 1.000
v -12.0 45.0 331.0 1.000 1.000 1.000
v 0.0 40.0 331.0 1.000 1.000 1.000
v 12.0 45.0 331.0 1.000 1.000 1.000
v 16.0 57.0 331.0 1.000 1.000 1.000
v 0.0 57.0 331.0 1.000 1.000 1.000
v 12.0 45.0 331.0 1.000 1.000 1.000
v 12.0 68.0 331.0 1.000 1.000 1.000
v 0.0 73.0 331.0 1.000 1.000 1.000
v -12.0 68.0 182.0 1.000 1.000 1.000
v 0.0 73.0 331.0 1.000 1.000 1.000
v 0.0 73.0 182.0 1.000 1.000 1.000
v -12.0 68.0 331.0 1.000 1.000 1.000
v -16.0 57.0 182.0 1.000 1.000 1.000
v -16.0 57.0 331.0 1.000 1.000 1.000
v -12.0 45.0 182.0 1.000 1.000 1.000
v -12.0 45.0 331.0 1.000 1.000 1.000
v 0.0 40.0 182.0 1.000 1.000 1.000
v 0.0 40.0 331.0 1.000 1.000 1.000
v 12.0 45.0 182.0 1.000 1.000 1.000
v 12.0 45.0 331.0 1.000 1.000 1.000
v 0.0 40.0 331.0 1.000 1.000 1.000
v 12.0 45.0 182.0 1.000 1.000 1.000
v 16.0 57.0 182.0 1.000 1.000 1.000
v 16.0 57.0 331.0 1.000 1.000 1.000
v 12.0 68.0 182.0 1.000 1.000 1.000
v 12.0 68.0 331.0 1.000 1.000 1.000
v 0.0 73.0 182.0 1.000 1.000 1.000
v 0.0 73.0 331.0 1.000 1.000 1.000
vt 0.9688 1.0000
vt 0.0000 1.0000
vt 0.0000 0.0312
vt 0.9688 0.0312
vt 0.2500 0.8535
vt 0.1250 1.0000
vt 0.0088 0.8535
vt 0.2500 0.5000
vt 0.0117 0.5000
vt 0.2500 0.1465
vt 0.0088 0.1465
vt 0.1289 0.0000
vt 0.0000 0.0000
vt 0.0039 0.0000
vt 0.7500 0.1465
vt 1.0000 0.0000
vt 0.8750 0.0000
vt 0.9912 0.1465
vt 0.7500 0.5000
vt 0.9883 0.5000
vt 0.7500 0.8535
vt 0.9912 0.8535
vt 0.8711 1.0000
vt 1.0000 1.0000
vt 0.9961 1.0000
vt 0.9482 0.1426
vt 0.8965 0.2480
vt 0.9688 0.1953
vt 0.8984 0.1787
vt 0.8467 0.2168
vt 0.9609 0.1338
vt 0.9355 0.1523
vt 0.8174 0.2383
vt 0.8340 0.2266
vt 0.8818 0.1914
vt 0.8496 0.0137
vt 0.8369 0.0225
vt 0.7891 0.0605
vt 0.7354 0.0967
vt 0.7061 0.1182
vt 0.7188 0.1094
vt 0.8008 0.1025
vt 0.8203 0.0352
vt 0.5518 0.1680
vt 0.5205 0.2949
vt 0.6104 0.1523
vt 0.6084 0.2471
vt 0.6113 0.1318
vt 0.5811 0.2256
vt 0.5557 0.1182
vt 0.4707 0.1689
vt 0.4209 0.2969
vt 0.5322 0.0918
vt 0.5967 0.0967
vt 0.6201 0.1084
vt 0.5889 0.1201
vt 0.5254 0.1016
vt 0.2617 0.2529
vt 0.3311 0.3232
vt 0.2646 0.2627
vt 0.3350 0.3340
vt 0.2812 0.2500
vt 0.3525 0.3193
vt 0.3008 0.2217
vt 0.3750 0.2881
vt 0.3125 0.1953
vt 0.4141 0.2422
vt 0.2598 0.2139
vt 0.2529 0.1816
vt 0.2666 0.2363
vt 0.3574 0.2705
vt 0.3594 0.2793
vt 0.3467 0.2656
vt 0.2500 0.2480
vt -2.5938 2.4688
vt 3.0000 2.4688
vt 5.0938 1.7500
vt -2.5938 1.7500
vt 6.5000 1.2002
vt -1.5029 1.2002
vt -1.5029 0.7998
vt 6.5000 0.7998
vt 9.5000 0.7998
vt -0.0020 0.7998
vt -0.0020 1.2002
vt 4.0000 1.2002
vt 4.0000 0.7998
vt 5.5000 0.7998
vt 0.2412 0.5977
vt 0.2100 0.9668
vt 0.7607 0.9727
vt 0.7930 0.6035
vt 0.8838 0.9180
vt 0.8936 0.5830
vt 0.1045 0.5645
vt 0.0957 0.8994
vt 0.1465 0.4033
vt 0.1709 0.3975
vt 0.1826 0.4238
vt 0.1719 0.4121
vt 0.1133 0.4336
vt 0.2949 0.3896
vt 0.2959 0.4043
vt 0.2988 0.4639
vt 0.1758 0.4707
vt 0.3027 0.5254
vt 0.1777 0.5332
vt 0.3037 0.5605
vt 0.1797 0.5674
vt 0.3027 0.5400
vt 0.1787 0.5527
vt 0.2998 0.4844
vt 0.1758 0.4971
vt 0.2969 0.4199
vt 0.1729 0.4326
vt 0.3389 0.5117
vt 0.3340 0.4258
vt 0.7090 0.6445
vt 0.7402 0.6396
vt 0.7139 0.6357
vt 0.7812 0.6562
vt 0.7012 0.6855
vt 0.7812 0.6992
vt 0.7666 0.7422
vt 0.6943 0.7285
vt 0.7197 0.7598
vt 0.6924 0.7549
vt 0.6943 0.6572
vt 0.3389 0.5381
vt 0.1582 0.5898
vt 0.3408 0.5547
vt 0.1592 0.6074
vt 0.3428 0.6172
vt 0.1641 0.6689
vt 0.3457 0.6816
vt 0.1641 0.7334
vt 0.3467 0.7158
vt 0.1650 0.7686
vt 0.3447 0.6943
vt 0.1641 0.7510
vt 0.3428 0.6348
vt 0.1611 0.6914
vt 0.3398 0.5684
vt 0.1592 0.6250
vt 0.4053 0.6484
vt 0.4014 0.5586
vt 0.1699 0.8252
vt 0.2178 0.7725
vt 0.1992 0.7881
vt 0.2207 0.7871
vt 0.1680 0.8828
vt 0.2295 0.8379
vt 0.1777 0.9365
vt 0.2363 0.8936
vt 0.2100 0.9453
vt 0.2402 0.9229
vt 0.2217 0.8018
vt 0.3252 0.6982
vt 0.3271 0.7129
vt 0.3350 0.7646
vt 0.3438 0.8193
vt 0.3477 0.8486
vt 0.3447 0.8301
vt 0.2373 0.9082
vt 0.3369 0.7803
vt 0.2305 0.8574
vt 0.3281 0.7236
vt 0.3818 0.7783
vt 0.3701 0.7031
vt -1.3955 0.3701
vt 0.9980 0.8652
vt -1.8301 1.0557
vt 0.9746 0.3740
vt 0.9922 1.1934
vt -1.3955 0.3291
vt 1.0039 0.2900
vt -1.6348 0.7988
vt 0.9912 0.3584
vt -0.0088 0.3584
vt 0.9922 0.0264
vt -1.0977 -0.3486
vt 1.0088 0.4062
vt -1.0654 0.4111
vt -1.3135 -0.3672
vt 1.1357 0.0391
vt 1.1523 0.4189
vt -1.2803 0.3916
vt 1.0195 0.3584
vt -0.0830 1.0000
vt 1.0283 1.0000
vt -0.0908 0.3584
vt -4.4785 0.8965
vt 0.9795 0.7441
vt -3.6113 0.4043
vt 0.9551 0.3926
vt 1.0020 0.3955
vt -1.5000 0.4219
vt 0.9980 0.9795
vt -1.7461 0.7256
vt 0.4404 0.1611
vt 0.6367 0.1914
vt 0.4668 0.1406
vt 0.6162 0.2080
vt 0.4229 0.2197
vt 0.6025 0.2559
vt 0.4141 0.2812
vt 0.5957 0.3047
vt 0.4785 0.2314
vt 0.6289 0.3115
vt 0.4570 0.2891
vt 0.6465 0.2646
vt 0.4824 0.1689
vt 0.6494 0.2148
vt 0.6709 0.2002
vt 0.6963 0.2266
vt 0.6914 0.2754
vt 0.6758 0.3223
vt 0.6084 0.3281
vt 0.6426 0.3359
vt 0.1777 0.1758
vt 0.0215 0.1699
vt 0.1758 0.1934
vt 0.0205 0.1865
vt 0.1738 0.2529
vt 0.0195 0.2461
vt 0.1719 0.3154
vt 0.0156 0.3086
vt 0.1709 0.3496
vt 0.0156 0.3428
vt 0.1729 0.3281
vt 0.0166 0.3252
vt 0.1748 0.2705
vt 0.0195 0.2676
vt 0.1768 0.2061
vt 0.0215 0.2031
vt 0.2246 0.3027
vt 0.2275 0.2158
vt -3.3125 2.4688
vt -2.5938 2.0938
vt -2.5938 3.1562
vt -0.5000 2.4688
vt -2.6426 0.3691
vt 0.7295 0.3936
vt 0.6543 -0.5283
vt -3.3652 -0.2393
vt 0.7510 0.6826
vt 0.7363 0.6270
vt 0.6992 0.6836
vt 0.6650 0.5986
vt 0.7227 0.5791
vt 0.8428 0.3770
vt 0.8379 0.4014
vt 0.7119 0.3701
vt 0.7227 0.4229
vt 0.6475 0.3564
vt 0.8516 0.4043
vt 0.7314 0.4785
vt 0.6846 0.4707
vt 0.7100 0.4199
vt 0.8379 0.4619
vt 0.7109 0.4746
vt 0.8584 0.4658
vt 0.7686 0.4229
vt 0.7656 0.4561
vt 0.4941 0.4160
vt 0.4902 0.4561
vt 0.7568 0.5117
vt 0.7637 0.4336
vt 0.4873 0.4287
vt 0.3867 0.1523
vt 0.4395 0.1367
vt 0.3545 0.2080
vt 0.3613 0.2715
vt 0.4824 0.1709
vt 0.6992 0.2061
vt 0.8154 0.1602
vt 0.6973 0.1855
vt 0.8174 0.1836
vt 0.7031 0.2598
vt 0.8223 0.2441
vt 0.7070 0.3164
vt 0.8262 0.3066
vt 0.7031 0.2656
vt 0.8262 0.3105
vt 0.7070 0.3203
vt 0.8213 0.2500
vt 0.6992 0.2100
vt 0.8174 0.1885
vt 0.6348 0.1777
vt 0.6680 0.2305
vt 0.5898 0.1562
vt 0.6338 0.2012
vt 0.7617 0.2090
vt 0.7617 0.1846
vt 0.6494 0.1621
vt -4.0000 6.6562
vt -1.1875 6.6562
vt 0.0342 0.3955
vt 1.8506 0.3789
vt 1.8115 1.0703
vt 0.0049 0.9141
vt -0.6875 0.9736
vt 1.3125 1.0508
vt 1.3506 0.3604
vt -0.6484 0.2822
vt 0.6436 -0.5010
vt 0.7197 0.4219
vt -2.6504 0.3896
vt -3.3750 -0.2119
vt 0.3770 0.6377
vt 0.2207 0.6875
vt 0.3896 0.8203
vt 0.4004 0.9766
vt 0.3984 0.9434
vt 0.2373 0.9209
vt 0.2305 0.8252
vt 0.2109 0.5518
vt 0.3594 0.3955
vt 0.5752 0.3662
vt 0.5840 0.4854
vt 0.5674 0.2461
vt 0.5928 0.6084
vt 0.5986 0.6992
vt 0.6484 0.7852
vt 0.6055 0.7910
vt 0.6699 0.8730
vt 0.6123 0.8818
vt 0.6592 0.9385
vt 0.6162 0.9443
vt 0.6475 0.9736
vt 0.6191 0.9775
vt 0.7109 0.8682
vt 0.6973 0.8184
vt 0.6846 0.7959
vt 0.5625 0.1875
vt 0.6895 0.6631
vt 0.6865 0.7471
vt 0.8896 0.6406
vt 0.8867 0.7344
vt 0.6855 0.7871
vt 0.8857 0.7637
vt 0.6846 0.8057
vt 0.8857 0.7607
vt 0.6934 0.5547
vt 0.4180 0.6240
vt 0.4209 0.5381
vt 0.4238 0.4756
vt 0.3750 0.8115
vt 0.4111 0.8135
vt 0.4121 0.7949
vt 0.3574 0.7920
vt 0.4141 0.7529
vt 0.3408 0.7500
vt 0.4160 0.6895
vt 0.3613 0.6855
vt 0.2920 0.5957
vt 0.3311 0.5312
vt 0.2969 0.4668
vt 0.4062 0.4326
vt 0.3359 0.3828
vt 0.3018 0.3184
vt 0.8193 0.3164
vt 0.9561 0.2334
vt 0.4658 0.2803
vt 0.5098 0.2891
vt 0.8555 0.2588
vt 1.0225 0.3018
vt 0.8076 0.6719
vt 0.9990 0.3447
vt 0.4541 0.3516
vt 0.6836 0.3613
vt 0.4414 0.3154
vt 0.4570 0.2539
vt 0.4248 0.4268
vt 0.3398 0.2549
vt 0.3477 0.2197
vt 0.3486 0.2471
vt 0.5605 0.1602
vt 0.6611 0.6670
vt 0.4990 0.6611
vt 0.6973 0.4316
vt 0.7012 0.3193
vt 0.2012 0.4170
vt 0.8955 0.4805
vt 0.7988 0.3994
vt 0.8994 0.3818
vt 0.5488 0.9102
vt 0.4951 0.9092
vt 0.4404 0.9082
vt 0.1953 0.3359
vt 0.1953 0.3320
vt 0.1123 0.3838
vt 0.1172 0.4541
vt 0.1289 0.6260
vt 0.1416 0.7969
vt 0.4570 0.7080
vt 0.4648 0.7627
vt 0.5498 0.8008
vt 0.8779 0.7344
vt 0.8770 0.7637
vt 0.9873 0.7207
vt 0.9893 0.6709
vt 0.8809 0.6406
vt 0.9932 0.5498
vt 0.8867 0.4805
vt 0.9971 0.4287
vt 0.8896 0.3818
vt 0.5068 0.8848
vt 0.5488 0.9111
vt 0.7139 0.8633
vt 0.5469 0.7979
vt 0.9844 0.3916
vt 0.8467 0.5195
vt 0.9863 0.5430
vt 0.8457 0.3984
vt 0.0527 0.3857
vt 0.4473 0.4375
vt 0.0625 0.4619
vt 0.4395 0.3828
vt 0.0537 0.4639
vt 0.4395 0.4395
vt 0.0635 0.6484
vt 0.4473 0.5732
vt 0.0771 0.8330
vt 0.0869 0.9092
vt 0.9873 0.6943
vt 0.8486 0.6914
vt 0.9883 0.7568
vt 0.8477 0.6406
vt 1.0488 0.7725
vt 0.8887 0.4307
vt 0.3916 0.4004
vt 0.0078 1.1260
vt 1.0000 0.3965
vt 0.0000 0.3965
vt -1.9424 0.4209
vt 1.0029 0.3994
vt 0.9854 0.9551
vt -1.9600 0.9756
vt 1.0010 0.8184
vt -0.5820 0.3359
vt 1.0146 0.3477
vt -0.5957 0.8066
vt 0.3252 0.3945
vt 0.8867 0.4033
vt 1.1230 0.7412
vt 0.0156 1.1436
vt 5.0938 1.0625
vt -1.9062 1.0625
vt -25.0000 0.4004
vt -25.0000 -0.4004
vt 25.0156 -0.4004
vt 25.0156 0.4004
vt 31.3330 -0.5996
vt 31.3330 0.2002
vt -31.3545 0.2002
vt -31.3545 -0.5996
vt 5.5000 0.4004
vt 0.4980 0.4004
vt 9.5000 0.4004
vt -0.5029 0.4004
vt 5.0938 0.7812
vt 5.0938 0.5625
vt 5.0938 0.4062
vt 5.0938 0.3438
vt 4.8086 0.9102
vt 0.0000 1.0117
vt 5.0010 1.0117
vt 0.0000 0.9111
vt 4.6455 0.7451
vt 0.0000 0.7461
vt 4.5361 0.5430
vt 0.0000 0.5439
vt 4.4980 0.3320
vt 0.0000 0.3330
vt 4.5361 0.1465
vt 0.0000 0.1475
vt 4.6455 0.0137
vt 0.0000 0.0146
vt 4.8086 -0.0459
vt 0.0000 -0.0459
vt 5.0010 -0.0234
vt 0.0000 -0.0234
vt -0.1738 0.6689
vt 1.3652 0.3486
vt -0.2344 0.3486
vt 1.3047 0.6689
vt 0.0000 0.9414
vt 1.1318 0.9414
vt 0.2598 1.1230
vt 0.8721 1.1230
vt 0.5654 1.1865
vt 4.9375 0.3750
vt 4.0625 0.3750
vt 4.2188 0.1875
vt 1.1768 0.4033
vt 1.1768 1.0000
vt 1.0000 0.4033
vt 0.0000 0.4033
vt 5.0938 0.5000
vt 5.0938 0.2812
vt 5.0938 1.5938
vt 5.0938 1.8125
vt 5.7500 0.0000
vt 5.7500 0.5000
vt 5.7500 -0.1875
vt 5.7500 1.0000
vt 5.7500 1.1875
vt -0.0098 1.0713
vt 1.0000 0.6270
vt -0.0098 0.6270
vt 1.0000 1.0713
vt -0.0098 0.0000
vt -0.0098 -0.4434
vt 1.0000 -0.4434
vn 0.000 0.000 -1.000
vn 0.000 0.000 -1.000
vn 0.000 0.000 -1.000
vn 0.000 0.000 -1.000
vn 0.000 0.000 -1.000
vn 0.000 0.000 -1.000
vn 0.000 0.000 -1.000
vn 0.000 0.000 -1.000
vn 0.000 0.000 -1.000
vn 0.000 0.000 -1.000
vn 0.000 0.000 -1.000
vn 0.000 0.000 -1.000
vn 0.000 0.000 -1.000
vn 0.000 0.000 -1.000
vn 0.000 0.000 -1.000
vn 0.000 0.000 -1.000
vn 0.000 0.000 -1.000
vn 0.000 0.000 -1.000
vn 0.000 0.000 -1.000
vn 0.000 0.000 -1.000
vn 0.000 0.000 -1.000
vn 0.000 0.000 -1.000
vn 0.000 0.000 -1.000
vn 0.000 0.000 -1.000
vn 0.000 0.000 -1.000
vn 0.000 0.000 -1.000
vn 0.000 0.000 -1.000
vn 0.000 0.000 -1.000
vn 0.000 0.000 -1.000
vn 0.000 0.000 -1.000
vn 0.000 0.000 -1.000
vn 0.000 0.000 -1.000
vn 0.577 0.577 0.577
vn 0.577 0.577 0.577
vn 0.577 0.577 0.577
vn 0.577 0.577 0.577
vn 0.577 0.577 0.577
vn 0.577 0.577 0.577
vn 0.577 0.577 0.577
vn 0.577 0.577 0.577
vn 0.577 0.577 0.577
vn 0.577 0.577 0.577
vn 0.577 0.577 0.577
vn 0.577 0.577 0.577
vn 0.577 0.577 0.577
vn 0.577 0.577 0.577
vn 0.577 0.577 0.577
vn 0.577 0.577 0.577
vn 0.577 0.577 0.577
vn 0.577 0.577 0.577
vn 0.577 0.577 0.577
vn 0.577 0.577 0.577
vn 0.577 0.577 0.577
vn 0.577 0.577 0.577
vn 0.577 0.577 0.577
vn 0.577 0.577 0.577
vn -0.577 -0.577 -0.577
vn -0.577 -0.577 -0.577
vn -0.577 -0.577 -0.577
vn -0.577 -0.577 -0.577
vn -0.577 -0.577 -0.577
vn -0.577 -0.577 -0.577
vn -0.577 -0.577 -0.577
vn -0.577 -0.577 -0.577
vn -0.577 -0.577 -0.577
vn -0.577 -0.577 -0.577
vn -0.577 -0.577 -0.577
vn -0.577 -0.577 -0.577
vn -0.577 -0.577 -0.577
vn -0.577 -0.577 -0.577
vn -0.577 -0.577 -0.577
vn -0.577 -0.577 -0.577
vn -0.577 -0.577 -0.577
vn -0.577 -0.577 -0.577
vn -0.577 -0.577 -0.577
vn -0.577 -0.577 -0.577
vn -0.577 -0.577 -0.577
vn -0.577 -0.577 -0.577
vn -0.577 -0.577 -0.577
vn -0.577 -0.577 -0.577
vn -0.577 -0.577 -0.577
vn -0.577 -0.577 -0.577
vn -0.577 -0.577 -0.577
vn -0.577 -0.577 -0.577
vn -0.577 -0.577 -0.577
vn -0.577 -0.577 -0.577
vn -0.577 -0.577 -0.577
vn -0.577 -0.577 -0.577
vn -0.577 -0.577 -0.577
vn -0.577 -0.577 -0.577
vn -0.577 -0.577 -0.577
vn -0.577 -0.577 -0.577
vn -0.577 -0.577 -0.577
vn -0.577 -0.577 -0.577
vn -0.577 -0.577 -0.577
vn -0.577 -0.577 -0.577
vn -0.577 -0.577 -0.577
vn -0.577 -0.577 -0.577
vn -0.577 -0.577 -0.577
vn -0.577 -0.577 -0.577
vn -0.577 -0.577 -0.577
vn -0.577 -0.577 -0.577
vn -0.577 -0.577 -0.577
vn -0.577 -0.577 -0.577
vn -0.577 -0.577 -0.577
vn -0.577 -0.577 -0.577
vn -0.577 -0.577 -0.577
vn -0.577 -0.577 -0.577
vn -0.577 -0.577 -0.577
vn -0.577 -0.577 -0.577
vn -0.577 -0.577 -0.577
vn -0.577 -0.577 -0.577
vn -0.577 -0.577 -0.577
vn -0.577 -0.577 -0.577
vn -0.577 -0.577 -0.577
vn -0.577 -0.577 -0.577
vn -0.577 -0.577 -0.577
vn -0.577 -0.577 -0.577
vn -0.577 -0.577 -0.577
vn -0.577 -0.577 -0.577
vn -0.577 -0.577 -0.577
vn -0.577 -0.577 -0.577
vn -0.577 -0.577 -0.577
vn -0.577 -0.577 -0.577
vn -0.577 -0.577 -0.577
vn -0.577 -0.577 -0.577
vn -0.577 -0.577 -0.577
vn -0.577 -0.577 -0.577
vn -0.577 -0.577 -0.577
vn 0.577 0.577 0.577
vn -0.577 -0.577 -0.577
vn 0.577 0.577 0.577
vn 0.577 0.577 0.577
vn 0.577 0.577 0.577
vn 0.577 0.577 0.577
vn 0.577 0.577 0.577
vn 0.577 0.577 0.577
vn 0.577 0.577 0.577
vn 0.577 0.577 0.577
vn -0.577 -0.577 -0.577
vn -0.577 -0.577 -0.577
vn -0.577 -0.577 -0.577
vn -0.577 -0.577 -0.577
vn -0.577 -0.577 -0.577
vn -0.577 -0.577 -0.577
vn -0.577 -0.577 -0.577
vn -0.577 -0.577 -0.577
vn -0.577 -0.577 -0.577
vn -0.577 -0.577 -0.577
vn -0.577 -0.577 -0.577
vn -0.577 -0.577 -0.577
vn -0.577 -0.577 -0.577
vn -0.577 -0.577 -0.577
vn -0.577 -0.577 -0.577
vn -0.577 -0.577 -0.577
vn -0.577 -0.577 -0.577
vn -0.577 -0.577 -0.577
vn -0.577 -0.577 -0.577
vn -0.577 -0.577 -0.577
vn -0.577 -0.577 -0.577
vn -0.577 -0.577 -0.577
vn -0.577 -0.577 -0.577
vn -0.577 -0.577 -0.577
vn -0.577 -0.577 -0.577
vn -0.577 -0.577 -0.577
vn -0.577 -0.577 -0.577
vn -0.577 -0.577 -0.577
vn -0.577 -0.577 -0.577
vn -0.577 -0.577 -0.577
vn -0.577 -0.577 -0.577
vn -0.577 -0.577 -0.577
vn -0.577 -0.577 -0.577
vn -0.577 -0.577 -0.577
vn -0.577 -0.577 -0.577
vn -0.577 -0.577 -0.577
vn -0.577 -0.577 -0.577
vn -0.577 -0.577 -0.577
vn -0.577 -0.577 -0.577
vn -0.577 -0.577 -0.577
vn -0.577 -0.577 -0.577
vn -0.577 -0.577 -0.577
vn -0.577 -0.577 -0.577
vn -0.577 -0.577 -0.577
vn -0.577 -0.577 -0.577
vn -0.577 -0.577 -0.577
vn -0.577 -0.577 -0.577
vn -0.577 -0.577 -0.577
vn -0.577 -0.577 -0.577
vn -0.577 -0.577 -0.577
vn -0.577 -0.577 -0.577
vn -0.577 -0.577 -0.577
vn -0.577 -0.577 -0.577
vn -0.577 -0.577 -0.577
vn -0.577 -0.577 -0.577
vn -0.577 -0.577 -0.577
vn -0.577 -0.577 -0.577
vn -0.577 -0.577 -0.577
vn -0.577 -0.577 -0.577
vn -0.577 -0.577 -0.577
vn -0.577 -0.577 -0.577
vn -0.577 -0.577 -0.577
vn -0.577 -0.577 -0.577
vn -0.577 -0.577 -0.577
vn -0.577 -0.577 -0.577
vn -0.577 -0.577 -0.577
vn -0.577 -0.577 -0.577
vn -0.577 -0.577 -0.577
vn -0.577 -0.577 -0.577
vn -0.577 -0.577 -0.577
vn -0.577 -0.577 -0.577
vn -0.577 -0.577 -0.577
vn -0.577 -0.577 -0.577
vn -0.577 -0.577 -0.577
vn -0.577 -0.577 -0.577
vn -0.577 -0.577 -0.577
vn -0.577 -0.577 -0.577
vn -0.577 -0.577 -0.577
vn -0.577 -0.577 -0.577
vn -0.577 -0.577 -0.577
vn -0.577 -0.577 -0.577
vn -0.577 -0.577 -0.577
vn -0.577 -0.577 -0.577
vn -0.577 -0.577 -0.577
vn -0.577 -0.577 -0.577
vn -0.577 -0.577 -0.577
vn -0.577 -0.577 -0.577
vn -0.577 -0.577 -0.577
vn -0.577 -0.577 -0.577
vn -0.577 -0.577 -0.577
vn -0.577 -0.577 -0.577
vn -0.577 -0.577 -0.577
vn -0.577 -0.577 -0.577
vn -0.577 -0.577 -0.577
vn -0.577 -0.577 -0.577
vn -0.577 -0.577 -0.577
vn -0.577 -0.577 -0.577
vn -0.577 -0.577 -0.577
vn -0.577 -0.577 -0.577
vn -0.577 -0.577 -0.577
vn -0.577 -0.577 -0.577
vn -0.577 -0.577 -0.577
vn -0.577 -0.577 -0.577
vn -0.577 -0.577 -0.577
vn -0.577 -0.577 -0.577
vn -0.577 -0.577 -0.577
vn -0.577 -0.577 -0.577
vn -0.577 -0.577 -0.577
vn -0.577 -0.577 -0.577
vn -0.577 -0.577 -0.577
vn -0.577 -0.577 -0.577
vn -0.577 -0.577 -0.577
vn -0.577 -0.577 -0.577
vn -0.577 -0.577 -0.577
vn -0.577 -0.577 -0.577
vn -0.577 -0.577 -0.577
vn -0.577 -0.577 -0.577
vn -0.577 -0.577 -0.577
vn -0.577 -0.577 -0.577
vn -0.577 -0.577 -0.577
vn -0.577 -0.577 -0.577
vn -0.577 -0.577 -0.577
vn -0.577 -0.577 -0.577
vn 0.577 0.577 0.577
vn -0.577 -0.577 -0.577
vn 0.577 0.577 0.577
vn 0.577 0.577 0.577
vn 0.577 0.577 0.577
vn 0.577 0.577 0.577
vn 0.577 0.577 0.577
vn -0.577 -0.577 -0.577
vn -0.577 -0.577 -0.577
vn -0.577 -0.577 -0.577
vn -0.577 -0.577 -0.577
vn -0.577 -0.577 -0.577
vn -0.577 -0.577 -0.577
vn -0.577 -0.577 -0.577
vn -0.577 -0.577 -0.577
vn 0.577 0.577 0.577
vn 0.577 0.577 0.577
vn 0.577 0.577 0.577
vn 0.577 0.577 0.577
vn 0.577 0.577 0.577
vn 0.577 0.577 0.577
vn 0.577 0.577 0.577
vn 0.577 0.577 0.577
vn 0.577 0.577 0.577
vn 0.577 0.577 0.577
vn 0.577 0.577 0.577
vn -0.577 -0.577 -0.577
vn -0.577 -0.577 -0.577
vn 0.577 0.577 0.577
vn 0.577 0.577 0.577
vn 0.577 0.577 0.577
vn 0.577 0.577 0.577
vn 0.577 0.577 0.577
vn 0.577 0.577 0.577
vn -0.577 -0.577 -0.577
vn -0.577 -0.577 -0.577
vn -0.577 -0.577 -0.577
vn -0.577 -0.577 -0.577
vn -0.577 -0.577 -0.577
vn -0.577 -0.577 -0.577
vn -0.577 -0.577 -0.577
vn -0.577 -0.577 -0.577
vn -0.577 -0.577 -0.577
vn -0.577 -0.577 -0.577
vn -0.577 -0.577 -0.577
vn -0.577 -0.577 -0.577
vn -0.577 -0.577 -0.577
vn -0.577 -0.577 -0.577
vn -0.577 -0.577 -0.577
vn -0.577 -0.577 -0.577
vn -0.577 -0.577 -0.577
vn -0.577 -0.577 -0.577
vn -0.577 -0.577 -0.577
vn -0.577 -0.577 -0.577
vn -0.577 -0.577 -0.577
vn -0.577 -0.577 -0.577
vn -0.577 -0.577 -0.577
vn -0.577 -0.577 -0.577
vn -0.577 -0.577 -0.577
vn -0.577 -0.577 -0.577
vn -0.577 -0.577 -0.577
vn -0.577 -0.577 -0.577
vn -0.577 -0.577 -0.577
vn -0.577 -0.577 -0.577
vn -0.577 -0.577 -0.577
vn -0.577 -0.577 -0.577
vn -0.577 -0.577 -0.577
vn -0.577 -0.577 -0.577
vn -0.577 -0.577 -0.577
vn -0.577 -0.577 -0.577
vn -0.577 -0.577 -0.577
vn -0.577 -0.577 -0.577
vn -0.577 -0.577 -0.577
vn -0.577 -0.577 -0.577
vn -0.577 -0.577 -0.577
vn -0.577 -0.577 -0.577
vn -0.577 -0.577 -0.577
vn -0.577 -0.577 -0.577
vn -0.577 -0.577 -0.577
vn -0.577 -0.577 -0.577
vn -0.577 -0.577 -0.577
vn -0.577 -0.577 -0.577
vn -0.577 -0.577 -0.577
vn -0.577 -0.577 -0.577
vn -0.577 -0.577 -0.577
vn -0.577 -0.577 -0.577
vn -0.577 -0.577 -0.577
vn -0.577 -0.577 -0.577
vn -0.577 -0.577 -0.577
vn -0.577 -0.577 -0.577
vn -0.577 -0.577 -0.577
vn -0.577 -0.577 -0.577
vn -0.577 -0.577 -0.577
vn -0.577 -0.577 -0.577
vn -0.577 -0.577 -0.577
vn -0.577 -0.577 -0.577
vn -0.577 -0.577 -0.577
vn 0.577 0.577 0.577
vn 0.577 0.577 0.577
vn 0.577 0.577 0.577
vn -0.577 -0.577 -0.577
vn -0.577 -0.577 -0.577
vn -0.577 -0.577 -0.577
vn -0.577 -0.577 -0.577
vn -0.577 -0.577 -0.577
vn -0.577 -0.577 -0.577
vn -0.577 -0.577 -0.577
vn -0.577 -0.577 -0.577
vn -0.577 -0.577 -0.577
vn -0.577 -0.577 -0.577
vn -0.577 -0.577 -0.577
vn -0.577 -0.577 -0.577
vn -0.577 -0.577 -0.577
vn -0.577 -0.577 -0.577
vn -0.577 -0.577 -0.577
vn -0.577 -0.577 -0.577
vn -0.577 -0.577 -0.577
vn -0.577 -0.577 -0.577
vn -0.577 -0.577 -0.577
vn -0.577 -0.577 -0.577
vn -0.577 -0.577 -0.577
vn -0.577 -0.577 -0.577
vn -0.577 -0.577 -0.577
vn -0.577 -0.577 -0.577
vn -0.577 -0.577 -0.577
vn -0.577 -0.577 -0.577
vn -0.577 -0.577 -0.577
vn -0.577 -0.577 -0.577
vn -0.577 -0.577 -0.577
vn -0.577 -0.577 -0.577
vn -0.577 -0.577 -0.577
vn -0.577 -0.577 -0.577
vn -0.577 -0.577 -0.577
vn -0.577 -0.577 -0.577
vn -0.577 -0.577 -0.577
vn -0.577 -0.577 -0.577
vn -0.577 -0.577 -0.577
vn -0.577 -0.577 -0.577
vn -0.577 -0.577 -0.577
vn -0.577 -0.577 -0.577
vn -0.577 -0.577 -0.577
vn -0.577 -0.577 -0.577
vn -0.577 -0.577 -0.577
vn -0.577 -0.577 -0.577
vn -0.577 -0.577 -0.577
vn -0.577 -0.577 -0.577
vn -0.577 -0.577 -0.577
vn -0.577 -0.577 -0.577
vn -0.577 -0.577 -0.577
vn -0.577 -0.577 -0.577
vn -0.577 -0.577 -0.577
vn -0.577 -0.577 -0.577
vn -0.577 -0.577 -0.577
vn -0.577 -0.577 -0.577
vn -0.577 -0.577 -0.577
vn -0.577 -0.577 -0.577
vn -0.577 -0.577 -0.577
vn -0.577 -0.577 -0.577
vn -0.577 -0.577 -0.577
vn -0.577 -0.577 -0.577
vn -0.577 -0.577 -0.577
vn -0.577 -0.577 -0.577
vn -0.577 -0.577 -0.577
vn -0.577 -0.577 -0.577
vn -0.577 -0.577 -0.577
vn -0.577 -0.577 -0.577
vn -0.577 -0.577 -0.577
vn -0.577 -0.577 -0.577
vn -0.577 -0.577 -0.577
vn -0.577 -0.577 -0.577
vn -0.577 -0.577 -0.577
vn -0.577 -0.577 -0.577
vn -0.577 -0.577 -0.577
vn -0.577 -0.577 -0.577
vn -0.577 -0.577 -0.577
vn -0.577 -0.577 -0.577
vn -0.577 -0.577 -0.577
vn -0.577 -0.577 -0.577
vn -0.577 -0.577 -0.577
vn -0.577 -0.577 -0.577
vn -0.577 -0.577 -0.577
vn -0.577 -0.577 -0.577
vn -0.577 -0.577 -0.577
vn -0.577 -0.577 -0.577
vn -0.577 -0.577 -0.577
vn -0.577 -0.577 -0.577
vn -0.577 -0.577 -0.577
vn -0.577 -0.577 -0.577
vn -0.577 -0.577 -0.577
vn -0.577 -0.577 -0.577
vn -0.577 -0.577 -0.577
vn -0.577 -0.577 -0.577
vn 0.577 0.577 0.577
vn -0.577 -0.577 -0.577
vn -0.577 -0.577 -0.577
vn -0.577 -0.577 -0.577
vn 0.577 0.577 0.577
vn 0.577 0.577 0.577
vn 0.577 0.577 0.577
vn 0.577 0.577 0.577
vn 0.577 0.577 0.577
vn 0.577 0.577 0.577
vn 0.577 0.577 0.577
vn 0.577 0.577 0.577
vn 0.577 0.577 0.577
vn -0.577 -0.577 -0.577
vn -0.577 -0.577 -0.577
vn -0.577 -0.577 -0.577
vn -0.577 -0.577 -0.577
vn -0.577 -0.577 -0.577
vn -0.577 -0.577 -0.577
vn -0.577 -0.577 -0.577
vn -0.577 -0.577 -0.577
vn -0.577 -0.577 -0.577
vn -0.577 -0.577 -0.577
vn -0.577 -0.577 -0.577
vn -0.577 -0.577 -0.577
vn -0.577 -0.577 -0.577
vn -0.577 -0.577 -0.577
vn -0.577 -0.577 -0.577
vn -0.577 -0.577 -0.577
vn -0.577 -0.577 -0.577
vn -0.577 -0.577 -0.577
vn -0.577 -0.577 -0.577
vn -0.577 -0.577 -0.577
vn -0.577 -0.577 -0.577
vn -0.577 -0.577 -0.577
vn -0.577 -0.577 -0.577
vn -0.577 -0.577 -0.577
vn -0.577 -0.577 -0.577
vn -0.577 -0.577 -0.577
vn -0.577 -0.577 -0.577
vn -0.577 -0.577 -0.577
vn -0.577 -0.577 -0.577
vn -0.577 -0.577 -0.577
vn -0.577 -0.577 -0.577
vn -0.577 -0.577 -0.577
vn -0.577 -0.577 -0.577
vn -0.577 -0.577 -0.577
vn -0.577 -0.577 -0.577
vn -0.577 -0.577 -0.577
vn -0.577 -0.577 -0.577
vn -0.577 -0.577 -0.577
vn -0.577 -0.577 -0.577
vn -0.577 -0.577 -0.577
vn -0.577 -0.577 -0.577
vn -0.577 -0.577 -0.577
vn -0.577 -0.577 -0.577
vn -0.577 -0.577 -0.577
vn -0.577 -0.577 -0.577
vn -0.577 -0.577 -0.577
vn -0.577 -0.577 -0.577
vn -0.577 -0.577 -0.577
vn -0.577 -0.577 -0.577
vn -0.577 -0.577 -0.577
vn -0.577 -0.577 -0.577
vn -0.577 -0.577 -0.577
vn -0.577 -0.577 -0.577
vn -0.577 -0.577 -0.577
vn -0.577 -0.577 -0.577
vn -0.577 -0.577 -0.577
vn -0.577 -0.577 -0.577
vn -0.577 -0.577 -0.577
vn -0.577 -0.577 -0.577
vn -0.577 -0.577 -0.577
vn -0.577 -0.577 -0.577
vn -0.577 -0.577 -0.577
vn -0.577 -0.577 -0.577
vn -0.577 -0.577 -0.577
vn -0.577 -0.577 -0.577
vn -0.577 -0.577 -0.577
vn -0.577 -0.577 -0.577
vn -0.577 -0.577 -0.577
vn -0.577 -0.577 -0.577
vn -0.577 -0.577 -0.577
vn -0.577 -0.577 -0.577
vn -0.577 -0.577 -0.577
vn -0.577 -0.577 -0.577
vn -0.577 -0.577 -0.577
vn -0.577 -0.577 -0.577
vn -0.577 -0.577 -0.577
vn -0.577 -0.577 -0.577
vn -0.577 -0.577 -0.577
vn -0.577 -0.577 -0.577
vn -0.577 -0.577 -0.577
vn -0.577 -0.577 -0.577
vn -0.577 -0.577 -0.577
vn -0.577 -0.577 -0.577
vn -0.577 -0.577 -0.577
vn -0.577 -0.577 -0.577
vn -0.577 -0.577 -0.577
vn -0.577 -0.577 -0.577
vn -0.577 -0.577 -0.577
vn -0.577 -0.577 -0.577
vn -0.577 -0.577 -0.577
vn -0.577 -0.577 -0.577
vn -0.577 -0.577 -0.577
vn -0.577 -0.577 -0.577
vn -0.577 -0.577 -0.577
vn -0.577 -0.577 -0.577
vn -0.577 -0.577 -0.577
vn -0.577 -0.577 -0.577
vn -0.577 -0.577 -0.577
vn -0.577 -0.577 -0.577
vn -0.577 -0.577 -0.577
vn -0.577 -0.577 -0.577
vn -0.577 -0.577 -0.577
vn -0.577 -0.577 -0.577
vn -0.577 -0.577 -0.577
vn -0.577 -0.577 -0.577
vn -0.577 -0.577 -0.577
vn -0.577 -0.577 -0.577
vn -0.577 -0.577 -0.577
vn -0.577 -0.577 -0.577
vn -0.577 -0.577 -0.577
vn -0.577 -0.577 -0.577
vn -0.577 -0.577 -0.577
vn -0.577 -0.577 -0.577
vn -0.577 -0.577 -0.577
vn -0.577 -0.577 -0.577
vn -0.577 -0.577 -0.577
vn -0.577 -0.577 -0.577
vn -0.577 -0.577 -0.577
vn -0.577 -0.577 -0.577
vn -0.577 -0.577 -0.577
vn -0.577 -0.577 -0.577
vn -0.577 -0.577 -0.577
vn -0.577 -0.577 -0.577
vn -0.577 -0.577 -0.577
vn -0.577 -0.577 -0.577
vn -0.577 -0.577 -0.577
vn -0.577 -0.577 -0.577
vn -0.577 -0.577 -0.577
vn -0.577 -0.577 -0.577
vn -0.577 -0.577 -0.577
vn -0.577 -0.577 -0.577
vn -0.577 -0.577 -0.577
vn -0.577 -0.577 -0.577
vn -0.577 -0.577 -0.577
vn -0.577 -0.577 -0.577
vn -0.577 -0.577 -0.577
vn -0.577 -0.577 -0.577
vn -0.577 -0.577 -0.577
vn -0.577 -0.577 -0.577
vn -0.577 -0.577 -0.577
vn -0.577 -0.577 -0.577
vn -0.577 -0.577 -0.577
vn -0.577 -0.577 -0.577
vn -0.577 -0.577 -0.577
vn -0.577 -0.577 -0.577
vn -0.577 -0.577 -0.577
vn -0.577 -0.577 -0.577
vn -0.577 -0.577 -0.577
vn -0.577 -0.577 -0.577
vn -0.577 -0.577 -0.577
vn -0.577 -0.577 -0.577
vn -0.577 -0.577 -0.577
vn -0.577 -0.577 -0.577
vn -0.577 -0.577 -0.577
vn -0.577 -0.577 -0.577
vn -0.577 -0.577 -0.577
vn -0.577 -0.577 -0.577
vn -0.577 -0.577 -0.577
vn -0.577 -0.577 -0.577
vn -0.577 -0.577 -0.577
vn -0.577 -0.577 -0.577
vn -0.577 -0.577 -0.577
vn -0.577 -0.577 -0.577
vn -0.577 -0.577 -0.577
vn -0.577 -0.577 -0.577
vn -0.577 -0.577 -0.577
vn -0.577 -0.577 -0.577
vn -0.577 -0.577 -0.577
vn -0.577 -0.577 -0.577
vn -0.577 -0.577 -0.577
vn -0.577 -0.577 -0.577
vn -0.577 -0.577 -0.577
vn -0.577 -0.577 -0.577
vn -0.577 -0.577 -0.577
vn -0.577 -0.577 -0.577
vn -0.577 -0.577 -0.577
vn -0.577 -0.577 -0.577
vn -0.577 -0.577 -0.577
vn -0.577 -0.577 -0.577
vn -0.577 -0.577 -0.577
vn -0.577 -0.577 -0.577
vn -0.577 -0.577 -0.577
vn -0.577 -0.577 -0.577
vn -0.577 -0.577 -0.577
vn -0.577 -0.577 -0.577
vn -0.577 -0.577 -0.577
vn -0.577 -0.577 -0.577
vn -0.577 -0.577 -0.577
vn -0.577 -0.577 -0.577
vn -0.577 -0.577 -0.577
vn -0.577 -0.577 -0.577
vn -0.577 -0.577 -0.577
vn -0.577 -0.577 -0.577
vn -0.577 -0.577 -0.577
vn -0.577 -0.577 -0.577
vn -0.577 -0.577 -0.577
vn -0.577 -0.577 -0.577
vn -0.577 -0.577 -0.577
vn -0.577 -0.577 -0.577
vn -0.577 -0.577 -0.577
vn -0.577 -0.577 -0.577
vn -0.577 -0.577 -0.577
vn -0.577 -0.577 -0.577
vn -0.577 -0.577 -0.577
vn -0.577 -0.577 -0.577
vn -0.577 -0.577 -0.577
vn -0.577 -0.577 -0.577
vn -0.577 -0.577 -0.577
vn -0.577 -0.577 -0.577
vn -0.577 -0.577 -0.577
vn -0.577 -0.577 -0.577
vn -0.577 -0.577 -0.577
vn -0.577 -0.577 -0.577
vn -0.577 -0.577 -0.577
vn -0.577 -0.577 -0.577
vn -0.577 -0.577 -0.577
vn -0.577 -0.577 -0.577
vn -0.577 -0.577 -0.577
vn -0.577 -0.577 -0.577
vn -0.577 -0.577 -0.577
vn -0.577 -0.577 -0.577
vn -0.577 -0.577 -0.577
vn 0.577 0.577 0.577
vn 0.577 0.577 0.577
vn 0.577 0.577 0.577
vn -0.577 -0.577 -0.577
vn -0.577 -0.577 -0.577
vn -0.577 -0.577 -0.577
vn -0.577 -0.577 -0.577
vn -0.577 -0.577 -0.577
vn -0.577 -0.577 -0.577
vn -0.577 -0.577 -0.577
vn -0.577 -0.577 -0.577
vn -0.577 -0.577 -0.577
vn -0.577 -0.577 -0.577
vn -0.577 -0.577 -0.577
vn -0.577 -0.577 -0.577
vn -0.577 -0.577 -0.577
vn 0.577 0.577 0.577
vn 0.577 0.577 0.577
vn 0.577 0.577 0.577
vn -0.577 -0.577 -0.577
vn -0.577 -0.577 -0.577
vn -0.577 -0.577 -0.577
vn -0.577 -0.577 -0.577
vn -0.577 -0.577 -0.577
vn -0.577 -0.577 -0.577
vn -0.577 -0.577 -0.577
vn -0.577 -0.577 -0.577
vn -0.577 -0.577 -0.577
vn -0.577 -0.577 -0.577
vn -0.577 -0.577 -0.577
vn -0.577 -0.577 -0.577
vn -0.577 -0.577 -0.577
vn -0.577 -0.577 -0.577
vn -0.577 -0.577 -0.577
vn -0.577 -0.577 -0.577
vn -0.577 -0.577 -0.577
vn 0.577 0.577 0.577
vn 0.577 0.577 0.577
vn 0.577 0.577 0.577
vn 0.577 0.577 0.577
vn 0.577 0.577 0.577
vn 0.577 0.577 0.577
vn 0.577 0.577 0.577
vn 0.577 0.577 0.577
vn -0.577 -0.577 -0.577
vn -0.577 -0.577 -0.577
vn -0.577 -0.577 -0.577
vn -0.577 -0.577 -0.577
vn -0.577 -0.577 -0.577
vn -0.577 -0.577 -0.577
vn -0.577 -0.577 -0.577
vn -0.577 -0.577 -0.577
vn -0.577 -0.577 -0.577
vn -0.577 -0.577 -0.577
vn -0.577 -0.577 -0.577
vn -0.577 -0.577 -0.577
vn -0.577 -0.577 -0.577
vn -0.577 -0.577 -0.577
vn -0.577 -0.577 -0.577
vn -0.577 -0.577 -0.577
vn -0.577 -0.577 -0.577
vn -0.577 -0.577 -0.577
vn -0.577 -0.577 -0.577
vn -0.577 -0.577 -0.577
vn -0.577 -0.577 -0.577
vn -0.577 -0.577 -0.577
vn -0.577 -0.577 -0.577
vn -0.577 -0.577 -0.577
vn -0.577 -0.577 -0.577
vn -0.577 -0.577 -0.577
vn 0.577 0.577 0.577
vn -0.577 -0.577 -0.577
vn 0.577 0.577 0.577
vn -0.577 -0.577 -0.577
vn -0.577 -0.577 -0.577
vn -0.577 -0.577 -0.577
vn -0.577 -0.577 -0.577
vn -0.577 -0.577 -0.577
vn -0.577 -0.577 -0.577
vn -0.577 -0.577 -0.577
vn -0.577 -0.577 -0.577
vn -0.577 -0.577 -0.577
vn -0.577 -0.577 -0.577
vn -0.577 -0.577 -0.577
vn -0.577 -0.577 -0.577
vn -0.577 -0.577 -0.577
vn -0.577 -0.577 -0.577
vn -0.577 -0.577 -0.577
vn -0.577 -0.577 -0.577
vn -0.577 -0.577 -0.577
vn -0.577 -0.577 -0.577
vn -0.577 -0.577 -0.577
vn -0.577 -0.577 -0.577
vn -0.577 -0.577 -0.577
vn -0.577 -0.577 -0.577
vn -0.577 -0.577 -0.577
vn -0.577 -0.577 -0.577
vn -0.577 -0.577 -0.577
vn -0.577 -0.577 -0.577
vn -0.577 -0.577 -0.577
vn -0.577 -0.577 -0.577
vn -0.577 -0.577 -0.577
vn -0.577 -0.577 -0.577
vn -0.577 -0.577 -0.577
vn 0.000 0.000 1.000
vn 0.000 0.000 1.000
vn 0.000 0.000 1.000
vn 0.000 0.000 1.000
vn 0.000 0.000 1.000
vn 0.000 0.000 1.000
vn 0.000 0.000 1.000
vn 0.000 0.000 1.000
vn 0.000 0.000 1.000
vn 0.000 0.000 1.000
vn 0.000 0.000 1.000
vn 0.000 0.000 1.000
vn -0.577 -0.577 -0.577
vn -0.577 -0.577 -0.577
vn -0.577 -0.577 -0.577
vn -0.577 -0.577 -0.577
vn 0.577 0.577 0.577
vn 0.577 0.577 0.577
vn 0.577 0.577 0.577
vn 0.577 0.577 0.577
vn 0.577 0.577 0.577
vn 0.577 0.577 0.577
vn 0.577 0.577 0.577
vn 0.577 0.577 0.577
vn 0.577 0.577 0.577
vn 0.577 0.577 0.577
vn 0.577 0.577 0.577
vn -0.577 -0.577 -0.577
vn -0.577 -0.577 -0.577
vn -0.577 -0.577 -0.577
vn -0.577 -0.577 -0.577
vn -0.577 -0.577 -0.577
usemtl tex_2157_fl0_ds_w11
f 1/1/1 2/2/2 3/3/3
f 1/1/1 3/3/3 4/4/4
usemtl tex_2158_fl0_ds_w11_ovl
f 5/1/5 6/2/6 7/3/7
f 5/1/5 7/3/7 8/4/8
usemtl tex_2159_fl0_ds_w11_ovl
f 9/1/9 10/2/10 11/3/11
f 9/1/9 11/3/11 12/4/12
usemtl tex_2160_fl0_ds_w11_ovl
f 13/1/13 14/2/14 15/3/15
f 13/1/13 15/3/15 16/4/16
usemtl tex_2157_fl1_ds_w11
f 17/1/17 18/2/18 19/3/19
f 17/1/17 19/3/19 20/4/20
usemtl tex_2158_fl1_ds_w11_ovl
f 21/1/21 22/2/22 23/3/23
f 21/1/21 23/3/23 24/4/24
usemtl tex_2159_fl1_ds_w11_ovl
f 25/1/25 26/2/26 27/3/27
f 25/1/25 27/3/27 28/4/28
usemtl tex_2160_fl1_ds_w11_ovl
f 29/1/29 30/2/30 31/3/31
f 29/1/29 31/3/31 32/4/32
usemtl tex_26_sw0_0_lit_ds
f 33/5/33 34/2/34 35/6/35
f 36/7/36 34/2/34 33/5/33
f 37/8/37 36/7/36 33/5/33
f 38/9/38 36/7/36 37/8/37
f 39/10/39 38/9/38 37/8/37
f 40/11/40 38/9/38 39/10/39
f 41/12/41 40/11/40 39/10/39
f 42/13/42 40/11/40 43/14/43
f 44/15/44 45/16/45 46/17/46
f 47/18/47 45/16/45 44/15/44
f 48/19/48 47/18/47 44/15/44
f 49/20/49 50/18/50 51/19/51
f 52/21/52 49/20/49 51/19/51
f 53/22/53 49/20/49 52/21/52
f 54/23/54 53/22/53 52/21/52
f 55/24/55 53/22/53 56/25/56
usemtl tex_1795_sw1_0_lit_ds_w11
f 57/26/57 58/27/58 59/28/59
f 60/29/60 58/27/58 57/26/57
f 61/30/61 58/27/58 60/29/60
f 57/26/57 59/28/59 62/31/62
f 59/28/59 63/32/63 62/31/62
f 58/27/58 61/30/61 64/33/64
f 65/34/65 58/27/58 64/33/64
f 66/35/66 58/27/58 65/34/65
f 59/28/59 58/27/58 66/35/66
f 59/28/59 66/35/66 63/32/63
f 62/31/62 67/36/67 57/26/57
f 57/26/57 67/36/67 68/37/68
f 57/26/57 68/37/68 60/29/60
f 60/29/60 68/37/68 69/38/69
f 60/29/60 69/38/69 61/30/61
f 61/30/61 69/38/69 70/39/70
f 61/30/61 70/39/70 64/33/64
f 64/33/64 70/39/70 71/40/71
f 64/33/64 71/40/71 65/34/65
f 65/34/65 71/40/71 72/41/72
f 65/34/65 72/41/72 66/35/66
f 73/35/73 74/41/74 75/42/75
f 73/35/73 75/42/75 76/32/76
f 76/32/76 75/42/75 77/43/77
f 76/32/76 77/43/77 78/31/78
f 78/31/78 77/43/77 79/36/79
usemtl tex_1798_sw1_0_lit_ds_w11
f 80/44/80 81/45/81 82/46/82
f 82/46/82 81/45/81 83/47/83
f 82/46/82 83/47/83 84/48/84
f 84/48/84 83/47/83 85/49/85
f 84/48/84 85/49/85 86/50/86
f 86/50/86 85/49/85 87/49/87
f 88/51/88 89/52/89 90/44/90
f 90/44/90 89/52/89 91/45/91
f 88/51/88 92/53/92 93/51/93
f 94/54/94 92/53/92 88/51/88
f 94/54/94 88/51/88 90/44/90
f 94/54/94 90/44/90 95/55/95
f 96/56/96 95/55/95 97/46/97
f 95/55/95 90/44/90 97/46/97
f 98/57/98 96/56/96 99/48/99
f 99/48/99 100/50/100 98/57/98
f 97/46/97 99/48/99 96/56/96
usemtl tex_1797_sw1_0_lit_ds_w11
f 101/58/101 102/59/102 103/60/103
f 104/60/104 105/59/105 106/61/106
f 104/60/104 106/61/106 107/62/107
f 107/62/107 106/61/106 108/63/108
f 107/62/107 108/63/108 109/64/109
f 109/64/109 108/63/108 110/65/110
f 109/64/109 110/65/110 111/66/111
f 111/66/111 110/65/110 112/67/112
f 113/68/113 109/64/109 111/66/111
f 111/66/111 114/69/114 113/68/113
f 107/62/107 109/64/109 113/68/113
f 107/62/107 113/68/113 115/70/115
f 104/60/104 107/62/107 115/70/115
f 116/71/116 117/72/117 118/73/118
f 119/74/119 104/60/104 115/70/115
usemtl tex_1608_lit_ds
f 120/75/120 121/75/121 122/76/122
f 122/76/122 123/76/123 120/75/120
f 123/76/123 122/76/122 124/77/124
f 124/77/124 125/77/125 123/76/123
f 126/75/126 127/78/127 128/78/128
f 128/78/128 129/75/129 126/75/126
usemtl tex_26_lit_ds
f 130/79/130 131/80/131 132/81/132
f 132/81/132 133/82/133 130/79/130
f 133/82/133 134/83/134 130/79/130
f 135/84/135 136/85/136 137/86/137
f 137/86/137 138/87/138 135/84/135
f 137/86/137 139/88/139 138/87/138
f 140/89/140 141/90/141 142/91/142
f 140/89/140 142/91/142 143/92/143
f 144/93/144 145/94/145 146/95/146
f 144/93/144 146/95/146 147/96/147
usemtl tex_1796_sw2_0_lit_ds_w11
f 148/97/148 149/98/149 150/99/150
f 151/100/151 149/98/149 152/101/152
f 152/101/152 149/98/149 148/97/148
f 153/102/153 149/98/149 154/103/154
f 154/103/154 149/98/149 151/100/151
f 154/103/154 151/100/151 155/104/155
f 155/104/155 151/100/151 156/105/156
f 155/104/155 156/105/156 157/106/157
f 157/106/157 156/105/156 158/107/158
f 157/106/157 158/107/158 159/108/159
f 159/108/159 158/107/158 160/109/160
f 159/108/159 160/109/160 161/110/161
f 161/110/161 160/109/160 162/111/162
f 161/110/161 162/111/162 163/112/163
f 164/112/164 165/111/165 166/113/166
f 164/112/164 166/113/166 167/114/167
f 167/114/167 166/113/166 168/115/168
f 167/114/167 168/115/168 169/102/169
f 169/102/169 168/115/168 170/98/170
f 171/103/171 172/116/172 173/117/173
f 174/104/174 172/116/172 171/103/171
f 175/106/175 172/116/172 174/104/174
f 171/103/171 173/117/173 169/102/169
f 173/117/173 167/114/167 169/102/169
f 172/116/172 175/106/175 176/108/176
f 177/110/177 172/116/172 176/108/176
f 164/112/164 172/116/172 177/110/177
f 173/117/173 172/116/172 164/112/164
f 173/117/173 164/112/164 167/114/167
usemtl tex_1795_sw2_1_lit_ds_w11
f 178/118/178 179/119/179 180/120/180
f 181/121/181 179/119/179 178/118/178
f 181/121/181 178/118/178 182/122/182
f 183/123/183 181/121/181 182/122/182
f 183/123/183 182/122/182 184/124/184
f 184/124/184 182/122/182 185/125/185
f 186/126/186 184/124/184 185/125/185
f 186/126/186 185/125/185 187/127/187
f 180/120/180 179/119/179 188/128/188
usemtl tex_1796_sw2_1_lit_ds_w11
f 189/129/189 190/130/190 191/131/191
f 191/131/191 190/130/190 192/132/192
f 191/131/191 192/132/192 193/133/193
f 194/133/194 195/132/195 196/134/196
f 194/133/194 196/134/196 197/135/197
f 197/135/197 196/134/196 198/136/198
f 197/135/197 198/136/198 199/137/199
f 199/137/199 198/136/198 200/138/200
f 199/137/199 201/138/201 202/139/202
f 202/139/202 200/138/200 203/140/203
f 202/139/202 203/140/203 204/141/204
f 204/141/204 203/140/203 205/142/205
f 204/141/204 205/142/205 206/143/206
f 206/143/206 205/142/205 207/144/207
f 206/143/206 207/144/207 208/129/208
f 208/129/208 207/144/207 209/130/209
f 210/131/210 211/145/211 212/146/212
f 213/133/213 211/145/211 210/131/210
f 214/135/214 211/145/211 213/133/213
f 210/131/210 212/146/212 215/129/215
f 212/146/212 216/143/216 215/129/215
f 211/145/211 214/135/214 217/137/217
f 218/139/218 211/145/211 217/137/217
f 219/141/219 211/145/211 218/139/218
f 212/146/212 211/145/211 219/141/219
f 212/146/212 219/141/219 216/143/216
f 220/147/220 221/148/221 222/149/222
f 223/150/223 221/148/221 220/147/220
f 223/150/223 220/147/220 224/151/224
f 225/152/225 223/150/223 224/151/224
f 225/152/225 224/151/224 226/153/226
f 227/154/227 225/152/225 226/153/226
f 227/154/227 226/153/226 228/155/228
f 229/156/229 227/154/227 228/155/228
f 222/149/222 221/148/221 230/157/230
f 231/158/231 221/148/221 232/159/232
f 232/159/232 221/148/221 223/150/223
f 232/159/232 223/150/223 233/160/233
f 233/160/233 223/150/223 225/152/225
f 233/160/233 225/152/225 234/161/234
f 234/161/234 225/152/225 227/154/227
f 234/161/234 227/154/227 235/162/235
f 235/162/235 227/154/227 229/156/229
f 236/162/236 237/156/237 238/163/238
f 238/163/238 237/156/237 239/164/239
f 238/163/238 239/164/239 240/165/240
f 240/165/240 239/164/239 241/166/241
f 240/165/240 241/166/241 242/167/242
f 242/167/242 241/166/241 243/157/243
f 242/167/242 243/157/243 244/158/244
f 244/158/244 243/157/243 245/148/245
f 246/159/246 247/168/247 248/169/248
f 249/160/249 247/168/247 246/159/246
f 250/161/250 247/168/247 249/160/249
f 251/159/251 252/169/252 253/158/253
f 252/169/252 254/167/254 255/158/255
f 256/168/256 257/161/257 258/162/258
f 259/163/259 256/168/256 258/162/258
f 260/165/260 261/168/261 259/163/259
f 252/169/252 261/168/261 260/165/260
f 252/169/252 260/165/260 254/167/254
usemtl tex_26_lit_ds
f 262/170/262 263/171/263 264/172/264
f 262/170/262 265/173/265 263/171/263
f 266/174/266 267/175/267 268/176/268
f 269/177/269 267/175/267 266/174/266
f 270/24/270 271/2/271 272/178/272
f 272/178/272 271/2/271 273/179/273
f 274/180/274 275/181/275 276/182/276
f 275/181/275 277/183/277 276/182/276
f 278/184/278 279/185/279 280/186/280
f 280/186/280 281/187/281 278/184/278
f 282/188/282 283/189/283 284/190/284
f 282/188/282 285/191/285 283/189/283
f 286/192/286 287/193/287 288/194/288
f 289/193/289 290/195/290 288/194/288
f 291/196/291 292/197/292 293/198/293
f 294/198/294 295/197/295 296/199/296
usemtl tex_1795_sw3_0_lit_ds_w11
f 297/200/297 298/201/298 299/202/299
f 300/203/300 298/201/298 297/200/297
f 301/204/301 300/203/300 297/200/297
f 302/205/302 300/203/300 301/204/301
f 303/206/303 302/205/302 301/204/301
f 304/207/304 302/205/302 303/206/303
f 305/208/305 306/209/306 307/210/307
f 308/211/308 306/209/306 305/208/305
f 309/212/309 308/211/308 305/208/305
f 310/213/310 308/211/308 309/212/309
f 299/202/299 310/213/310 309/212/309
f 298/201/298 310/213/310 299/202/299
f 311/214/311 298/201/298 312/215/312
f 298/201/298 300/203/300 312/215/312
f 313/215/313 314/203/314 315/216/315
f 315/216/315 314/203/314 316/205/316
f 317/217/317 315/216/315 316/205/316
f 317/217/317 316/205/316 318/207/318
f 318/207/318 319/218/319 317/217/317
f 319/218/319 320/219/320 317/217/317
f 321/201/321 322/214/322 323/213/323
usemtl tex_1796_sw3_0_lit_ds_w11
f 324/220/324 325/221/325 326/222/326
f 326/222/326 325/221/325 327/223/327
f 326/222/326 327/223/327 328/224/328
f 329/224/329 330/223/330 331/225/331
f 329/224/329 331/225/331 332/226/332
f 332/226/332 331/225/331 333/227/333
f 332/226/332 333/227/333 334/228/334
f 334/228/334 333/227/333 335/229/335
f 334/228/334 335/229/335 336/230/336
f 336/230/336 335/229/335 337/231/337
f 336/230/336 337/231/337 338/232/338
f 338/232/338 337/231/337 339/233/339
f 338/232/338 339/233/339 340/234/340
f 340/234/340 339/233/339 341/235/341
f 340/234/340 341/235/341 342/220/342
f 342/220/342 341/235/341 343/221/343
f 344/222/344 345/236/345 346/237/346
f 347/224/347 345/236/345 344/222/344
f 348/226/348 345/236/345 347/224/347
f 344/222/344 346/237/346 349/220/349
f 346/237/346 350/234/350 349/220/349
f 345/236/345 348/226/348 351/228/351
f 352/230/352 345/236/345 351/228/351
f 353/232/353 345/236/345 352/230/352
f 346/237/346 345/236/345 353/232/353
f 346/237/346 353/232/353 350/234/350
usemtl tex_1608_lit_ds
f 354/238/354 355/75/355 356/239/356
f 354/238/354 357/240/357 358/241/358
usemtl tex_26_lit_ds
f 359/242/359 360/243/360 361/244/361
f 362/245/362 359/242/359 361/244/361
usemtl tex_1794_sw5_0_lit_ds_w11
f 363/246/363 364/247/364 365/248/365
f 365/248/365 364/247/364 366/249/366
f 364/247/364 367/250/367 366/249/366
f 368/251/368 369/252/369 370/253/370
f 371/254/371 372/253/372 373/255/373
f 374/256/374 368/251/368 371/254/371
f 371/254/371 368/251/368 372/253/372
f 375/257/375 371/254/371 376/258/376
f 371/254/371 373/255/373 376/258/376
f 370/253/370 369/252/369 377/259/377
f 369/252/369 378/260/378 377/259/377
f 379/259/379 380/260/380 381/261/381
f 382/262/382 383/256/383 384/257/384
f 384/257/384 383/256/383 385/254/385
usemtl tex_1795_sw5_0_lit_ds_w11
f 386/263/386 387/264/387 388/265/388
f 388/265/388 387/264/387 389/266/389
f 387/264/387 390/267/390 389/266/389
f 391/268/391 386/263/386 392/269/392
f 392/269/392 386/263/386 388/265/388
f 393/270/393 394/200/394 395/271/395
f 396/204/396 394/200/394 393/270/393
f 396/204/396 393/270/393 397/272/397
f 398/273/398 396/204/396 397/272/397
f 399/206/399 396/204/396 398/273/398
f 395/271/395 394/200/394 400/202/400
f 400/202/400 401/274/401 395/271/395
usemtl tex_1794_sw5_0_lit_ds_w11
f 402/275/402 403/276/403 404/277/404
f 405/278/405 403/276/403 402/275/402
f 406/279/406 405/278/405 402/275/402
f 407/280/407 405/278/405 406/279/406
f 408/281/408 407/280/407 406/279/406
f 409/282/409 410/280/410 411/281/411
f 412/283/412 413/284/413 414/285/414
f 415/286/415 413/284/413 412/283/412
f 416/287/416 415/286/415 412/283/412
f 417/288/417 415/286/415 416/287/416
f 418/277/418 417/288/417 416/287/416
f 419/276/419 417/288/417 418/277/418
f 420/289/420 421/290/421 422/275/422
f 423/291/423 420/289/420 418/277/418
f 420/289/420 422/275/422 418/277/418
f 424/292/424 425/293/425 426/283/426
f 427/293/427 424/292/424 426/283/426
f 424/292/424 428/294/428 425/293/425
f 424/292/424 429/295/429 428/294/428
f 430/275/430 431/290/431 432/279/432
f 432/279/432 431/290/431 433/255/433
f 433/255/433 434/281/434 432/279/432
f 434/281/434 433/255/433 435/253/435
usemtl tex_1608_lit_ds
f 436/238/436 437/239/437 438/239/438
f 438/239/438 439/238/439 436/238/436
f 440/238/440 441/240/441 436/238/436
f 442/240/442 441/240/441 440/238/440
f 443/296/443 444/296/444 445/297/445
f 445/297/445 446/297/446 443/296/443
f 438/239/438 447/75/447 439/238/439
f 448/241/448 442/240/442 439/238/439
f 449/241/449 450/75/450 451/238/451
f 452/238/452 453/75/453 454/241/454
usemtl tex_26_lit_ds
f 455/298/455 456/299/456 457/300/457
f 457/300/457 458/301/458 455/298/455
f 459/302/459 460/303/460 461/304/461
f 461/304/461 462/305/462 459/302/459
f 463/306/463 464/307/464 465/308/465
f 463/306/463 466/308/466 467/309/467
usemtl tex_1794_sw6_0_lit_ds_w11
f 468/310/468 469/311/469 470/312/470
f 471/313/471 472/314/472 473/315/473
f 473/315/473 472/314/472 474/316/474
f 472/314/472 470/312/470 474/316/474
f 470/312/470 469/311/469 474/316/474
f 468/310/468 475/317/475 469/311/469
f 468/310/468 476/318/476 475/317/475
f 477/319/477 476/318/476 478/320/478
f 479/321/479 477/319/477 480/255/480
f 477/319/477 481/258/481 480/255/480
f 477/319/477 478/320/478 481/258/481
f 478/320/478 482/249/482 481/258/481
f 478/320/478 483/322/483 482/249/482
f 484/248/484 485/249/485 486/322/486
f 487/323/487 484/248/484 486/322/486
f 488/324/488 484/248/484 487/323/487
f 488/324/488 487/323/487 489/325/489
f 489/325/489 490/326/490 488/324/488
f 489/325/489 491/327/491 490/326/490
f 491/327/491 492/328/492 490/326/490
f 493/329/493 492/328/492 491/327/491
f 493/329/493 494/330/494 492/328/492
f 495/331/495 494/330/494 493/329/493
f 495/331/495 493/329/493 496/313/496
f 493/329/493 497/314/497 496/313/496
f 497/314/497 493/329/493 491/327/491
f 491/327/491 498/312/498 497/314/497
f 489/325/489 498/312/498 491/327/491
f 489/325/489 487/323/487 498/312/498
f 498/312/498 487/323/487 486/322/486
f 499/310/499 498/312/498 486/322/486
f 500/310/500 501/322/501 502/320/502
f 503/318/503 500/310/500 502/320/502
f 504/319/504 505/321/505 503/318/503
f 506/326/506 507/332/507 508/333/508
f 506/326/506 508/333/508 509/324/509
f 509/324/509 508/333/508 510/334/510
f 505/321/505 511/255/511 512/290/512
f 512/290/512 513/335/513 505/321/505
f 512/290/512 514/289/514 513/335/513
usemtl tex_1797_sw6_0_lit_ds_w11
f 515/336/515 516/337/516 517/338/517
f 517/338/517 516/337/516 518/339/518
f 516/337/516 519/340/519 518/339/518
f 519/340/519 520/341/520 518/339/518
f 519/340/519 521/342/521 520/341/520
f 521/342/521 522/343/522 520/341/520
f 515/336/515 523/344/523 524/345/524
f 524/345/524 523/344/523 525/346/525
f 523/344/523 526/347/526 525/346/525
f 527/348/527 528/349/528 529/350/529
f 527/348/527 529/350/529 530/351/530
f 531/350/531 532/352/532 533/351/533
f 532/352/532 534/353/534 533/351/533
usemtl tex_1797_sw6_0_lit_ds_w11_ovl
f 535/354/535 534/353/534 532/352/532
usemtl tex_1797_sw6_0_lit_ds_w11
f 535/354/535 536/355/536 534/353/534
f 535/354/535 537/345/537 536/355/536
f 537/345/537 538/356/538 536/355/536
f 537/345/537 539/346/539 538/356/538
f 538/356/538 539/346/539 540/357/540
f 539/346/539 541/358/541 540/357/540
f 542/347/542 541/358/541 539/346/539
f 542/347/542 543/359/543 541/358/541
f 543/359/543 544/360/544 541/358/541
f 543/359/543 545/361/545 544/360/544
f 546/349/546 547/342/547 548/340/548
f 548/340/548 549/350/549 546/349/546
f 548/340/548 550/337/550 549/350/549
f 549/350/549 550/337/550 551/352/551
f 550/337/550 552/354/552 551/352/551
f 550/337/550 553/336/553 552/354/552
f 553/336/553 554/345/554 552/354/552
usemtl tex_1798_sw8_0_lit_ds_w11
f 555/362/555 556/363/556 557/49/557
f 558/364/558 559/365/559 560/366/560
f 561/367/561 556/363/556 555/362/555
f 562/368/562 563/369/563 555/362/555
f 563/369/563 561/367/561 555/362/555
f 564/45/564 565/370/565 566/371/566
f 567/47/567 564/45/564 566/371/566
f 567/47/567 566/371/566 555/362/555
f 557/49/557 567/47/567 555/362/555
f 565/370/565 564/45/564 568/52/568
usemtl tex_1797_sw8_0_lit_ds_w11
f 569/372/569 570/373/570 571/67/571
f 569/372/569 571/67/571 572/65/572
f 569/372/569 572/65/572 573/63/573
f 573/63/573 574/374/574 569/372/569
f 573/63/573 575/61/575 574/374/574
f 574/374/574 575/61/575 576/359/576
f 577/59/577 576/359/576 575/61/575
f 578/375/578 576/359/576 577/59/577
usemtl tex_1794_sw8_0_lit_ds_w11
f 579/376/579 580/377/580 581/335/581
f 581/335/581 582/378/582 579/376/579
f 583/318/583 581/335/581 580/377/580
f 584/321/584 581/335/581 583/318/583
f 585/378/585 586/335/586 587/289/587
f 587/289/587 588/291/588 585/378/585
usemtl tex_1798_sw8_0_lit_ds_w11
f 589/379/589 590/368/590 591/362/591
f 591/362/591 592/380/592 589/379/589
f 593/371/593 592/380/592 591/362/591
f 594/370/594 592/380/592 593/371/593
usemtl tex_1797_sw8_0_lit_ds_w11
f 595/381/595 596/382/596 597/373/597
f 595/381/595 597/373/597 598/372/598
f 598/372/598 599/374/599 595/381/595
usemtl tex_1797_sw8_0_lit_ds_w11_ovl
f 595/381/595 599/374/599 600/344/600
usemtl tex_1797_sw8_0_lit_ds_w11
f 601/344/601 602/374/602 603/359/603
f 601/344/601 603/359/603 604/347/604
usemtl tex_1794_sw8_0_lit_ds_w11
f 605/383/605 606/317/606 607/318/607
usemtl tex_1797_sw8_0_lit_ds_w11
f 608/338/608 601/344/601 609/336/609
f 610/384/610 601/344/601 608/338/608
f 611/381/611 601/344/601 610/384/610
f 611/381/611 612/385/612 613/382/613
f 611/381/611 610/384/610 612/385/612
f 614/386/614 612/385/612 610/384/610
f 614/386/614 613/382/613 612/385/612
usemtl tex_1798_sw8_0_lit_ds_w11
f 615/387/615 616/380/616 617/388/617
f 616/380/616 618/389/618 617/388/617
f 615/387/615 619/379/619 616/380/616
f 619/379/619 615/387/615 620/368/620
usemtl tex_1794_sw8_0_lit_ds_w11
f 621/376/621 622/390/622 623/391/623
f 624/377/624 621/376/621 623/391/623
f 625/318/625 624/377/624 623/391/623
f 625/318/625 623/391/623 626/383/626
f 623/391/623 627/392/627 628/393/628
f 628/393/628 626/383/626 623/391/623
f 626/383/626 628/393/628 629/317/629
f 629/317/629 628/393/628 630/394/630
f 631/311/631 632/317/632 633/394/633
f 631/311/631 633/394/633 634/395/634
f 635/316/635 631/311/631 634/395/634
f 635/316/635 634/395/634 636/315/636
usemtl tex_1793_sw8_0_lit_ds_w11
f 637/396/637 638/397/638 639/398/639
usemtl tex_1797_sw8_0_lit_ds_w11
f 640/399/640 641/400/641 642/401/642
f 640/399/640 642/401/642 643/402/643
f 644/403/644 640/399/640 643/402/643
f 644/403/644 643/402/643 645/404/645
f 646/405/646 644/403/644 645/404/645
f 647/405/647 648/404/648 649/406/649
f 650/407/650 647/405/647 649/406/649
usemtl tex_1798_sw8_0_lit_ds_w11
f 651/389/651 652/408/652 653/388/653
f 652/408/652 654/387/654 653/388/653
f 655/409/655 652/408/652 656/410/656
usemtl tex_1794_sw8_0_lit_ds_w11
f 657/391/657 658/390/658 659/392/659
usemtl tex_1793_sw8_0_lit_ds_w11
f 660/411/660 661/396/661 662/398/662
usemtl tex_1796_sw8_0_lit_ds_w11
f 663/412/663 664/413/664 665/414/665
f 666/415/666 664/413/664 663/412/663
usemtl tex_1793_sw8_0_lit_ds_w11
f 667/416/667 668/417/668 669/418/669
f 670/419/670 668/417/668 667/416/667
f 671/420/671 670/419/670 667/416/667
f 672/421/672 670/419/670 671/420/671
f 673/422/673 672/421/672 671/420/671
f 674/423/674 672/421/672 673/422/673
f 675/424/675 674/423/674 673/422/673
f 676/396/676 674/423/674 675/424/675
f 677/425/677 676/396/676 675/424/675
f 678/397/678 676/396/676 677/425/677
usemtl tex_1796_sw8_0_lit_ds_w11
f 679/426/679 680/427/680 681/428/681
f 682/429/682 680/427/680 679/426/679
f 683/414/683 682/429/682 679/426/679
f 684/413/684 682/429/682 683/414/683
usemtl tex_1608_lit_ds
f 685/239/685 686/238/686 687/238/687
f 687/238/687 688/239/688 685/239/685
f 687/238/687 689/75/689 688/239/688
usemtl tex_26_lit_ds
f 690/430/690 691/431/691 692/432/692
f 690/430/690 692/432/692 693/433/693
f 694/434/694 695/2/695 696/435/696
f 694/434/694 697/24/697 695/2/695
f 698/436/698 699/437/699 700/438/700
f 700/438/700 701/439/701 698/436/698
f 702/440/702 703/441/703 704/442/704
f 702/440/702 705/443/705 703/441/703
f 706/444/706 707/445/707 708/446/708
f 709/447/709 706/444/706 708/446/708
usemtl tex_1608_lit_ds
f 710/77/710 711/448/711 712/77/712
f 710/77/710 713/448/713 711/448/711
f 714/449/714 715/78/715 716/78/716
f 716/78/716 717/449/717 714/449/714
usemtl tex_26_lit_ds
f 718/450/718 719/451/719 720/452/720
f 720/452/720 721/453/721 718/450/718
f 722/454/722 723/455/723 724/456/724
f 722/454/722 724/456/724 725/457/725
f 726/84/726 727/88/727 728/458/728
f 728/458/728 729/459/729 726/84/726
f 730/460/730 731/83/731 732/81/732
f 732/81/732 733/461/733 730/460/730
usemtl tex_1608_lit_ds
f 734/448/734 735/448/735 736/462/736
f 735/448/735 737/462/737 736/462/736
f 738/463/738 736/462/736 737/462/737
f 737/462/737 739/463/739 738/463/738
f 740/464/740 738/463/738 739/463/739
f 739/463/739 741/464/741 740/464/740
f 742/465/742 740/464/740 741/464/741
usemtl tex_26_lit_ds
f 743/466/743 744/467/744 745/468/745
f 746/469/746 744/467/744 743/466/743
f 747/470/747 746/469/746 743/466/743
f 748/471/748 746/469/746 747/470/747
f 749/472/749 748/471/748 747/470/747
f 750/473/750 751/471/751 752/472/752
f 753/474/753 750/473/750 752/472/752
f 754/475/754 750/473/750 753/474/753
f 755/476/755 756/475/756 753/474/753
f 757/477/757 756/475/756 755/476/755
f 758/478/758 757/477/757 755/476/755
f 759/479/759 757/477/757 758/478/758
f 760/480/760 759/479/759 758/478/758
f 761/481/761 759/479/759 760/480/760
f 762/482/762 761/481/761 760/480/760
f 763/483/763 761/481/761 762/482/762
usemtl tex_26_lit_ds_ovl
f 764/484/764 765/485/765 766/486/766
f 764/484/764 767/487/767 765/485/765
f 764/484/764 768/488/768 767/487/767
f 768/488/768 769/489/769 767/487/767
f 768/488/768 770/490/770 769/489/769
f 770/490/770 771/491/771 769/489/769
f 770/490/770 772/492/772 771/491/771
usemtl tex_1608_lit_ds
f 773/493/773 774/494/774 775/495/775
f 776/495/776 777/494/777 778/493/778
usemtl tex_26_lit_ds
f 779/24/779 780/496/780 781/497/781
f 779/24/779 782/498/782 780/496/780
f 779/24/779 783/2/783 784/499/784
f 782/498/782 779/24/779 784/499/784
usemtl tex_1608_lit_ds
f 785/500/785 786/501/786 787/448/787
f 788/448/788 785/500/785 787/448/787
f 789/502/789 788/448/788 787/448/787
f 790/503/790 789/502/789 787/448/787
f 791/502/791 790/503/790 787/448/787
f 792/448/792 791/502/791 787/448/787
f 793/500/793 792/448/792 787/448/787
f 786/501/786 793/500/793 787/448/787
f 794/504/794 795/505/795 796/505/796
f 797/506/797 795/505/795 794/504/794
f 798/504/798 795/505/795 797/506/797
f 799/505/799 795/505/795 798/504/798
f 800/507/800 795/505/795 799/505/799
f 801/508/801 802/505/802 803/507/803
f 804/507/804 802/505/802 801/508/801
f 805/505/805 802/505/802 804/507/804
usemtl tex_26_lit_ds
f 806/509/806 807/510/807 808/511/808
f 809/512/809 807/510/807 806/509/806
f 810/509/810 809/512/809 806/509/806
f 811/512/811 809/512/809 810/509/810
f 812/511/812 811/512/811 810/509/810
f 813/510/813 811/512/811 812/511/812
f 814/513/814 813/510/813 812/511/812
f 815/16/815 813/510/813 814/513/814
f 816/514/816 815/16/815 814/513/814
f 817/515/817 818/16/818 819/514/819
f 820/514/820 817/515/817 819/514/819
f 821/515/821 817/515/817 820/514/820
f 822/513/822 821/515/821 820/514/820
f 823/16/823 821/515/821 822/513/822
f 824/511/824 823/16/823 822/513/822
f 825/510/825 823/16/823 824/511/824
