mtllib PapcZ.mtl
v -1373.0 -317.0 1830.0 1.000 1.000 1.000
v -1373.0 -419.0 1830.0 1.000 1.000 1.000
v -1373.0 -622.0 2033.0 1.000 1.000 1.000
v -1373.0 -571.0 2084.0 1.000 1.000 1.000
v -1373.0 -317.0 1830.0 1.000 1.000 1.000
v -1373.0 -317.0 -2948.0 1.000 1.000 1.000
v -1373.0 -419.0 -2898.0 1.000 1.000 1.000
v -1373.0 -419.0 1830.0 1.000 1.000 1.000
v 1372.0 -571.0 2084.0 1.000 1.000 1.000
v 1372.0 -622.0 2033.0 1.000 1.000 1.000
v 1372.0 -419.0 1830.0 1.000 1.000 1.000
v 1372.0 -317.0 1830.0 1.000 1.000 1.000
v 1372.0 -419.0 1830.0 1.000 1.000 1.000
v 1372.0 -419.0 -2898.0 1.000 1.000 1.000
v 1373.0 -317.0 -2948.0 1.000 1.000 1.000
v 1372.0 -317.0 1830.0 1.000 1.000 1.000
v -763.0 -317.0 -3457.0 1.000 1.000 1.000
v 762.0 -317.0 -3457.0 1.000 1.000 1.000
v 762.0 -521.0 -3457.0 1.000 1.000 1.000
v -763.0 -521.0 -3457.0 1.000 1.000 1.000
v 864.0 699.0 -2516.0 1.000 1.000 1.000
v 763.0 699.0 -2643.0 1.000 1.000 1.000
v -763.0 699.0 -2643.0 1.000 1.000 1.000
v -864.0 699.0 -2516.0 1.000 1.000 1.000
v -864.0 699.0 1525.0 1.000 1.000 1.000
v 864.0 699.0 1525.0 1.000 1.000 1.000
v 864.0 699.0 -2516.0 1.000 1.000 1.000
v -864.0 699.0 -2516.0 1.000 1.000 1.000
v 762.0 -317.0 -3457.0 1.000 1.000 1.000
v -763.0 -317.0 -3457.0 1.000 1.000 1.000
v -763.0 699.0 -2643.0 1.000 1.000 1.000
v 763.0 699.0 -2643.0 1.000 1.000 1.000
v 457.0 699.0 -2643.0 1.000 1.000 1.000
v 457.0 649.0 -2948.0 1.000 1.000 1.000
v -458.0 649.0 -2948.0 1.000 1.000 1.000
v -458.0 699.0 -2643.0 1.000 1.000 1.000
v 457.0 -63.0 -3253.0 1.000 1.000 1.000
v 457.0 649.0 -2948.0 1.000 1.000 1.000
v 457.0 699.0 -2643.0 1.000 1.000 1.000
v -458.0 699.0 -2643.0 1.000 1.000 1.000
v -458.0 649.0 -2948.0 1.000 1.000 1.000
v -458.0 -63.0 -3253.0 1.000 1.000 1.000
v 762.0 -1029.0 -3050.0 1.000 1.000 1.000
v -763.0 -1029.0 -3050.0 1.000 1.000 1.000
v -763.0 -317.0 -3457.0 1.000 1.000 1.000
v 762.0 -317.0 -3457.0 1.000 1.000 1.000
v 762.0 -1029.0 2491.0 1.000 1.000 1.000
v 762.0 -1029.0 -3050.0 1.000 1.000 1.000
v 762.0 -317.0 -3457.0 1.000 1.000 1.000
v 762.0 -317.0 1830.0 1.000 1.000 1.000
v -763.0 -317.0 1830.0 1.000 1.000 1.000
v -763.0 -317.0 -3457.0 1.000 1.000 1.000
v -763.0 -1029.0 -3050.0 1.000 1.000 1.000
v -763.0 -1029.0 2491.0 1.000 1.000 1.000
v -763.0 699.0 -2643.0 1.000 1.000 1.000
v -763.0 -317.0 -3457.0 1.000 1.000 1.000
v -1373.0 -317.0 -2948.0 1.000 1.000 1.000
v -864.0 699.0 -2516.0 1.000 1.000 1.000
v 864.0 699.0 -2516.0 1.000 1.000 1.000
v 1373.0 -317.0 -2948.0 1.000 1.000 1.000
v 762.0 -317.0 -3457.0 1.000 1.000 1.000
v 763.0 699.0 -2643.0 1.000 1.000 1.000
v -1017.0 39.0 2440.0 1.000 1.000 1.000
v -712.0 -12.0 3457.0 1.000 1.000 1.000
v 712.0 -12.0 3457.0 1.000 1.000 1.000
v 1017.0 39.0 2440.0 1.000 1.000 1.000
v -763.0 -1029.0 2491.0 1.000 1.000 1.000
v 762.0 -1029.0 2491.0 1.000 1.000 1.000
v 610.0 -216.0 3406.0 1.000 1.000 1.000
v -610.0 -216.0 3406.0 1.000 1.000 1.000
v -712.0 -12.0 3457.0 1.000 1.000 1.000
v -610.0 -216.0 3406.0 1.000 1.000 1.000
v 610.0 -216.0 3406.0 1.000 1.000 1.000
v 712.0 -12.0 3457.0 1.000 1.000 1.000
v -1373.0 -317.0 1830.0 1.000 1.000 1.000
v -864.0 699.0 1525.0 1.000 1.000 1.000
v -864.0 699.0 -2084.0 1.000 1.000 1.000
v -1373.0 -317.0 -2084.0 1.000 1.000 1.000
v -864.0 699.0 -2084.0 1.000 1.000 1.000
v -864.0 699.0 -2516.0 1.000 1.000 1.000
v -1373.0 -317.0 -2948.0 1.000 1.000 1.000
v -1373.0 -317.0 -2084.0 1.000 1.000 1.000
v -1373.0 -571.0 2084.0 1.000 1.000 1.000
v -712.0 -12.0 3457.0 1.000 1.000 1.000
v -1017.0 39.0 2440.0 1.000 1.000 1.000
v -1373.0 -571.0 2084.0 1.000 1.000 1.000
v -763.0 -1029.0 2491.0 1.000 1.000 1.000
v -610.0 -216.0 3406.0 1.000 1.000 1.000
v -712.0 -12.0 3457.0 1.000 1.000 1.000
v -1373.0 -317.0 -2948.0 1.000 1.000 1.000
v -763.0 -317.0 -3457.0 1.000 1.000 1.000
v -763.0 -317.0 1830.0 1.000 1.000 1.000
v -1373.0 -317.0 1830.0 1.000 1.000 1.000
v -864.0 699.0 1525.0 1.000 1.000 1.000
v -1373.0 -571.0 2084.0 1.000 1.000 1.000
v -864.0 699.0 1525.0 1.000 1.000 1.000
v -1373.0 -317.0 1830.0 1.000 1.000 1.000
v 864.0 699.0 1525.0 1.000 1.000 1.000
v 1372.0 -317.0 1830.0 1.000 1.000 1.000
v 1372.0 -317.0 -2084.0 1.000 1.000 1.000
v 864.0 699.0 -2084.0 1.000 1.000 1.000
v 1373.0 -317.0 -2948.0 1.000 1.000 1.000
v 864.0 699.0 -2516.0 1.000 1.000 1.000
v 1017.0 39.0 2440.0 1.000 1.000 1.000
v 712.0 -12.0 3457.0 1.000 1.000 1.000
v 1372.0 -571.0 2084.0 1.000 1.000 1.000
v 610.0 -216.0 3406.0 1.000 1.000 1.000
v 762.0 -1029.0 2491.0 1.000 1.000 1.000
v 762.0 -317.0 1830.0 1.000 1.000 1.000
v 762.0 -317.0 -3457.0 1.000 1.000 1.000
v 1017.0 39.0 2440.0 1.000 1.000 1.000
v 864.0 699.0 1525.0 1.000 1.000 1.000
v -864.0 699.0 1525.0 1.000 1.000 1.000
v -1017.0 39.0 2440.0 1.000 1.000 1.000
v -712.0 -114.0 -3406.0 1.000 1.000 1.000
v -712.0 -114.0 -3304.0 1.000 1.000 1.000
v -508.0 -114.0 -3304.0 1.000 1.000 1.000
v -508.0 -114.0 -3406.0 1.000 1.000 1.000
v 508.0 -114.0 -3406.0 1.000 1.000 1.000
v 508.0 -114.0 -3304.0 1.000 1.000 1.000
v 712.0 -114.0 -3304.0 1.000 1.000 1.000
v 712.0 -114.0 -3406.0 1.000 1.000 1.000
v 203.0 293.0 2099.0 1.000 1.000 1.000
v 712.0 293.0 2099.0 1.000 1.000 1.000
v 712.0 598.0 1678.0 1.000 1.000 1.000
v 203.0 598.0 1678.0 1.000 1.000 1.000
v -712.0 293.0 2099.0 1.000 1.000 1.000
v -203.0 293.0 2099.0 1.000 1.000 1.000
v -203.0 598.0 1678.0 1.000 1.000 1.000
v -712.0 598.0 1678.0 1.000 1.000 1.000
v 1027.0 614.0 -2404.0 1.000 1.000 1.000
v 1255.0 159.0 -2404.0 1.000 1.000 1.000
v 1255.0 159.0 -2476.0 1.000 1.000 1.000
v 1027.0 614.0 -2476.0 1.000 1.000 1.000
v 1027.0 614.0 -2404.0 1.000 1.000 1.000
v 995.0 598.0 -2368.0 1.000 1.000 1.000
v 1223.0 143.0 -2368.0 1.000 1.000 1.000
v 1255.0 159.0 -2404.0 1.000 1.000 1.000
v 1223.0 143.0 -2512.0 1.000 1.000 1.000
v 995.0 598.0 -2512.0 1.000 1.000 1.000
v 1027.0 614.0 -2476.0 1.000 1.000 1.000
v 1255.0 159.0 -2476.0 1.000 1.000 1.000
v 1159.0 111.0 -2512.0 1.000 1.000 1.000
v 931.0 566.0 -2512.0 1.000 1.000 1.000
v 995.0 598.0 -2512.0 1.000 1.000 1.000
v 1223.0 143.0 -2512.0 1.000 1.000 1.000
v 1159.0 111.0 -2368.0 1.000 1.000 1.000
v 1223.0 143.0 -2368.0 1.000 1.000 1.000
v 995.0 598.0 -2368.0 1.000 1.000 1.000
v 931.0 566.0 -2368.0 1.000 1.000 1.000
v -1027.0 614.0 -2476.0 1.000 1.000 1.000
v -995.0 598.0 -2512.0 1.000 1.000 1.000
v -1223.0 143.0 -2512.0 1.000 1.000 1.000
v -1255.0 159.0 -2476.0 1.000 1.000 1.000
v -1223.0 143.0 -2368.0 1.000 1.000 1.000
v -995.0 598.0 -2368.0 1.000 1.000 1.000
v -1027.0 614.0 -2404.0 1.000 1.000 1.000
v -1255.0 159.0 -2404.0 1.000 1.000 1.000
v -1159.0 111.0 -2368.0 1.000 1.000 1.000
v -931.0 566.0 -2368.0 1.000 1.000 1.000
v -995.0 598.0 -2368.0 1.000 1.000 1.000
v -1223.0 143.0 -2368.0 1.000 1.000 1.000
v -1159.0 111.0 -2512.0 1.000 1.000 1.000
v -1223.0 143.0 -2512.0 1.000 1.000 1.000
v -995.0 598.0 -2512.0 1.000 1.000 1.000
v -931.0 566.0 -2512.0 1.000 1.000 1.000
v -1027.0 614.0 -2476.0 1.000 1.000 1.000
v -1255.0 159.0 -2476.0 1.000 1.000 1.000
v -1255.0 159.0 -2404.0 1.000 1.000 1.000
v -1027.0 614.0 -2404.0 1.000 1.000 1.000
v -892.0 -567.0 1889.0 1.000 1.000 1.000
v -1337.0 -567.0 1889.0 1.000 1.000 1.000
v -1337.0 -829.0 2040.0 1.000 1.000 1.000
v -892.0 -829.0 2040.0 1.000 1.000 1.000
v -892.0 -415.0 1627.0 1.000 1.000 1.000
v -1337.0 -415.0 1627.0 1.000 1.000 1.000
v -1337.0 -567.0 1889.0 1.000 1.000 1.000
v -892.0 -567.0 1889.0 1.000 1.000 1.000
v -892.0 -415.0 1324.0 1.000 1.000 1.000
v -1337.0 -415.0 1324.0 1.000 1.000 1.000
v -1337.0 -415.0 1627.0 1.000 1.000 1.000
v -892.0 -415.0 1627.0 1.000 1.000 1.000
v -892.0 -567.0 1061.0 1.000 1.000 1.000
v -1337.0 -567.0 1061.0 1.000 1.000 1.000
v -1337.0 -415.0 1324.0 1.000 1.000 1.000
v -892.0 -415.0 1324.0 1.000 1.000 1.000
v -892.0 -829.0 910.0 1.000 1.000 1.000
v -1337.0 -829.0 910.0 1.000 1.000 1.000
v -1337.0 -567.0 1061.0 1.000 1.000 1.000
v -892.0 -567.0 1061.0 1.000 1.000 1.000
v -892.0 -1132.0 910.0 1.000 1.000 1.000
v -1337.0 -1132.0 910.0 1.000 1.000 1.000
v -1337.0 -829.0 910.0 1.000 1.000 1.000
v -892.0 -829.0 910.0 1.000 1.000 1.000
v -892.0 -1394.0 1061.0 1.000 1.000 1.000
v -1337.0 -1394.0 1061.0 1.000 1.000 1.000
v -1337.0 -1132.0 910.0 1.000 1.000 1.000
v -892.0 -1132.0 910.0 1.000 1.000 1.000
v -892.0 -1545.0 1324.0 1.000 1.000 1.000
v -1337.0 -1545.0 1324.0 1.000 1.000 1.000
v -1337.0 -1394.0 1061.0 1.000 1.000 1.000
v -892.0 -1394.0 1061.0 1.000 1.000 1.000
v -892.0 -1545.0 1627.0 1.000 1.000 1.000
v -1337.0 -1545.0 1627.0 1.000 1.000 1.000
v -1337.0 -1545.0 1324.0 1.000 1.000 1.000
v -892.0 -1545.0 1324.0 1.000 1.000 1.000
v -892.0 -1394.0 1889.0 1.000 1.000 1.000
v -1337.0 -1394.0 1889.0 1.000 1.000 1.000
v -1337.0 -1545.0 1627.0 1.000 1.000 1.000
v -892.0 -1545.0 1627.0 1.000 1.000 1.000
v -892.0 -1132.0 2040.0 1.000 1.000 1.000
v -1337.0 -1132.0 2040.0 1.000 1.000 1.000
v -1337.0 -1394.0 1889.0 1.000 1.000 1.000
v -892.0 -1394.0 1889.0 1.000 1.000 1.000
v -892.0 -829.0 2040.0 1.000 1.000 1.000
v -1337.0 -829.0 2040.0 1.000 1.000 1.000
v -1337.0 -1132.0 2040.0 1.000 1.000 1.000
v -892.0 -1132.0 2040.0 1.000 1.000 1.000
v -892.0 -567.0 602.0 1.000 1.000 1.000
v -1337.0 -567.0 602.0 1.000 1.000 1.000
v -1337.0 -829.0 754.0 1.000 1.000 1.000
v -892.0 -829.0 754.0 1.000 1.000 1.000
v -892.0 -415.0 340.0 1.000 1.000 1.000
v -1337.0 -415.0 340.0 1.000 1.000 1.000
v -1337.0 -567.0 602.0 1.000 1.000 1.000
v -892.0 -567.0 602.0 1.000 1.000 1.000
v -892.0 -415.0 37.0 1.000 1.000 1.000
v -1337.0 -415.0 37.0 1.000 1.000 1.000
v -1337.0 -415.0 340.0 1.000 1.000 1.000
v -892.0 -415.0 340.0 1.000 1.000 1.000
v -892.0 -567.0 -225.0 1.000 1.000 1.000
v -1337.0 -567.0 -225.0 1.000 1.000 1.000
v -1337.0 -415.0 37.0 1.000 1.000 1.000
v -892.0 -415.0 37.0 1.000 1.000 1.000
v -892.0 -829.0 -377.0 1.000 1.000 1.000
v -1337.0 -829.0 -377.0 1.000 1.000 1.000
v -1337.0 -567.0 -225.0 1.000 1.000 1.000
v -892.0 -567.0 -225.0 1.000 1.000 1.000
v -892.0 -1132.0 -377.0 1.000 1.000 1.000
v -1337.0 -1132.0 -377.0 1.000 1.000 1.000
v -1337.0 -829.0 -377.0 1.000 1.000 1.000
v -892.0 -829.0 -377.0 1.000 1.000 1.000
v -892.0 -1394.0 -225.0 1.000 1.000 1.000
v -1337.0 -1394.0 -225.0 1.000 1.000 1.000
v -1337.0 -1132.0 -377.0 1.000 1.000 1.000
v -892.0 -1132.0 -377.0 1.000 1.000 1.000
v -892.0 -1545.0 37.0 1.000 1.000 1.000
v -1337.0 -1545.0 37.0 1.000 1.000 1.000
v -1337.0 -1394.0 -225.0 1.000 1.000 1.000
v -892.0 -1394.0 -225.0 1.000 1.000 1.000
v -892.0 -1545.0 340.0 1.000 1.000 1.000
v -1337.0 -1545.0 340.0 1.000 1.000 1.000
v -1337.0 -1545.0 37.0 1.000 1.000 1.000
v -892.0 -1545.0 37.0 1.000 1.000 1.000
v -892.0 -1394.0 602.0 1.000 1.000 1.000
v -1337.0 -1394.0 602.0 1.000 1.000 1.000
v -1337.0 -1545.0 340.0 1.000 1.000 1.000
v -892.0 -1545.0 340.0 1.000 1.000 1.000
v -892.0 -1132.0 754.0 1.000 1.000 1.000
v -1337.0 -1132.0 754.0 1.000 1.000 1.000
v -1337.0 -1394.0 602.0 1.000 1.000 1.000
v -892.0 -1394.0 602.0 1.000 1.000 1.000
v -892.0 -829.0 754.0 1.000 1.000 1.000
v -1337.0 -829.0 754.0 1.000 1.000 1.000
v -1337.0 -1132.0 754.0 1.000 1.000 1.000
v -892.0 -1132.0 754.0 1.000 1.000 1.000
v -892.0 -567.0 -684.0 1.000 1.000 1.000
v -1337.0 -567.0 -684.0 1.000 1.000 1.000
v -1337.0 -829.0 -533.0 1.000 1.000 1.000
v -892.0 -829.0 -533.0 1.000 1.000 1.000
v -892.0 -415.0 -946.0 1.000 1.000 1.000
v -1337.0 -415.0 -946.0 1.000 1.000 1.000
v -1337.0 -567.0 -684.0 1.000 1.000 1.000
v -892.0 -567.0 -684.0 1.000 1.000 1.000
v -892.0 -415.0 -1249.0 1.000 1.000 1.000
v -1337.0 -415.0 -1249.0 1.000 1.000 1.000
v -1337.0 -415.0 -946.0 1.000 1.000 1.000
v -892.0 -415.0 -946.0 1.000 1.000 1.000
v -892.0 -567.0 -1512.0 1.000 1.000 1.000
v -1337.0 -567.0 -1512.0 1.000 1.000 1.000
v -1337.0 -415.0 -1249.0 1.000 1.000 1.000
v -892.0 -415.0 -1249.0 1.000 1.000 1.000
v -892.0 -829.0 -1663.0 1.000 1.000 1.000
v -1337.0 -829.0 -1663.0 1.000 1.000 1.000
v -1337.0 -567.0 -1512.0 1.000 1.000 1.000
v -892.0 -567.0 -1512.0 1.000 1.000 1.000
v -892.0 -1132.0 -1663.0 1.000 1.000 1.000
v -1337.0 -1132.0 -1663.0 1.000 1.000 1.000
v -1337.0 -829.0 -1663.0 1.000 1.000 1.000
v -892.0 -829.0 -1663.0 1.000 1.000 1.000
v -892.0 -1394.0 -1512.0 1.000 1.000 1.000
v -1337.0 -1394.0 -1512.0 1.000 1.000 1.000
v -1337.0 -1132.0 -1663.0 1.000 1.000 1.000
v -892.0 -1132.0 -1663.0 1.000 1.000 1.000
v -892.0 -1545.0 -1249.0 1.000 1.000 1.000
v -1337.0 -1545.0 -1249.0 1.000 1.000 1.000
v -1337.0 -1394.0 -1512.0 1.000 1.000 1.000
v -892.0 -1394.0 -1512.0 1.000 1.000 1.000
v -892.0 -1545.0 -946.0 1.000 1.000 1.000
v -1337.0 -1545.0 -946.0 1.000 1.000 1.000
v -1337.0 -1545.0 -1249.0 1.000 1.000 1.000
v -892.0 -1545.0 -1249.0 1.000 1.000 1.000
v -892.0 -1394.0 -684.0 1.000 1.000 1.000
v -1337.0 -1394.0 -684.0 1.000 1.000 1.000
v -1337.0 -1545.0 -946.0 1.000 1.000 1.000
v -892.0 -1545.0 -946.0 1.000 1.000 1.000
v -892.0 -1132.0 -533.0 1.000 1.000 1.000
v -1337.0 -1132.0 -533.0 1.000 1.000 1.000
v -1337.0 -1394.0 -684.0 1.000 1.000 1.000
v -892.0 -1394.0 -684.0 1.000 1.000 1.000
v -892.0 -829.0 -533.0 1.000 1.000 1.000
v -1337.0 -829.0 -533.0 1.000 1.000 1.000
v -1337.0 -1132.0 -533.0 1.000 1.000 1.000
v -892.0 -1132.0 -533.0 1.000 1.000 1.000
v -892.0 -567.0 -1970.0 1.000 1.000 1.000
v -1337.0 -567.0 -1970.0 1.000 1.000 1.000
v -1337.0 -829.0 -1819.0 1.000 1.000 1.000
v -892.0 -829.0 -1819.0 1.000 1.000 1.000
v -892.0 -415.0 -2233.0 1.000 1.000 1.000
v -1337.0 -415.0 -2233.0 1.000 1.000 1.000
v -1337.0 -567.0 -1970.0 1.000 1.000 1.000
v -892.0 -567.0 -1970.0 1.000 1.000 1.000
v -892.0 -415.0 -2536.0 1.000 1.000 1.000
v -1337.0 -415.0 -2536.0 1.000 1.000 1.000
v -1337.0 -415.0 -2233.0 1.000 1.000 1.000
v -892.0 -415.0 -2233.0 1.000 1.000 1.000
v -892.0 -567.0 -2798.0 1.000 1.000 1.000
v -1337.0 -567.0 -2798.0 1.000 1.000 1.000
v -1337.0 -415.0 -2536.0 1.000 1.000 1.000
v -892.0 -415.0 -2536.0 1.000 1.000 1.000
v -892.0 -829.0 -2949.0 1.000 1.000 1.000
v -1337.0 -829.0 -2949.0 1.000 1.000 1.000
v -1337.0 -567.0 -2798.0 1.000 1.000 1.000
v -892.0 -567.0 -2798.0 1.000 1.000 1.000
v -892.0 -1132.0 -2949.0 1.000 1.000 1.000
v -1337.0 -1132.0 -2949.0 1.000 1.000 1.000
v -1337.0 -829.0 -2949.0 1.000 1.000 1.000
v -892.0 -829.0 -2949.0 1.000 1.000 1.000
v -892.0 -1394.0 -2798.0 1.000 1.000 1.000
v -1337.0 -1394.0 -2798.0 1.000 1.000 1.000
v -1337.0 -1132.0 -2949.0 1.000 1.000 1.000
v -892.0 -1132.0 -2949.0 1.000 1.000 1.000
v -892.0 -1545.0 -2536.0 1.000 1.000 1.000
v -1337.0 -1545.0 -2536.0 1.000 1.000 1.000
v -1337.0 -1394.0 -2798.0 1.000 1.000 1.000
v -892.0 -1394.0 -2798.0 1.000 1.000 1.000
v -892.0 -1545.0 -2233.0 1.000 1.000 1.000
v -1337.0 -1545.0 -2233.0 1.000 1.000 1.000
v -1337.0 -1545.0 -2536.0 1.000 1.000 1.000
v -892.0 -1545.0 -2536.0 1.000 1.000 1.000
v -892.0 -1394.0 -1970.0 1.000 1.000 1.000
v -1337.0 -1394.0 -1970.0 1.000 1.000 1.000
v -1337.0 -1545.0 -2233.0 1.000 1.000 1.000
v -892.0 -1545.0 -2233.0 1.000 1.000 1.000
v -892.0 -1132.0 -1819.0 1.000 1.000 1.000
v -1337.0 -1132.0 -1819.0 1.000 1.000 1.000
v -1337.0 -1394.0 -1970.0 1.000 1.000 1.000
v -892.0 -1394.0 -1970.0 1.000 1.000 1.000
v -892.0 -829.0 -1819.0 1.000 1.000 1.000
v -1337.0 -829.0 -1819.0 1.000 1.000 1.000
v -1337.0 -1132.0 -1819.0 1.000 1.000 1.000
v -892.0 -1132.0 -1819.0 1.000 1.000 1.000
v 891.0 -567.0 -2796.0 1.000 1.000 1.000
v 1337.0 -567.0 -2796.0 1.000 1.000 1.000
v 1337.0 -829.0 -2947.0 1.000 1.000 1.000
v 891.0 -829.0 -2947.0 1.000 1.000 1.000
v 891.0 -415.0 -2533.0 1.000 1.000 1.000
v 1337.0 -415.0 -2533.0 1.000 1.000 1.000
v 1337.0 -567.0 -2796.0 1.000 1.000 1.000
v 891.0 -567.0 -2796.0 1.000 1.000 1.000
v 891.0 -415.0 -2230.0 1.000 1.000 1.000
v 1337.0 -415.0 -2230.0 1.000 1.000 1.000
v 1337.0 -415.0 -2533.0 1.000 1.000 1.000
v 891.0 -415.0 -2533.0 1.000 1.000 1.000
v 891.0 -567.0 -1968.0 1.000 1.000 1.000
v 1337.0 -567.0 -1968.0 1.000 1.000 1.000
v 1337.0 -415.0 -2230.0 1.000 1.000 1.000
v 891.0 -415.0 -2230.0 1.000 1.000 1.000
v 891.0 -829.0 -1817.0 1.000 1.000 1.000
v 1337.0 -829.0 -1817.0 1.000 1.000 1.000
v 1337.0 -567.0 -1968.0 1.000 1.000 1.000
v 891.0 -567.0 -1968.0 1.000 1.000 1.000
v 891.0 -1132.0 -1817.0 1.000 1.000 1.000
v 1337.0 -1132.0 -1817.0 1.000 1.000 1.000
v 1337.0 -829.0 -1817.0 1.000 1.000 1.000
v 891.0 -829.0 -1817.0 1.000 1.000 1.000
v 891.0 -1394.0 -1968.0 1.000 1.000 1.000
v 1337.0 -1394.0 -1968.0 1.000 1.000 1.000
v 1337.0 -1132.0 -1817.0 1.000 1.000 1.000
v 891.0 -1132.0 -1817.0 1.000 1.000 1.000
v 891.0 -1545.0 -2230.0 1.000 1.000 1.000
v 1337.0 -1545.0 -2230.0 1.000 1.000 1.000
v 1337.0 -1394.0 -1968.0 1.000 1.000 1.000
v 891.0 -1394.0 -1968.0 1.000 1.000 1.000
v 891.0 -1545.0 -2533.0 1.000 1.000 1.000
v 1337.0 -1545.0 -2533.0 1.000 1.000 1.000
v 1337.0 -1545.0 -2230.0 1.000 1.000 1.000
v 891.0 -1545.0 -2230.0 1.000 1.000 1.000
v 891.0 -1394.0 -2796.0 1.000 1.000 1.000
v 1337.0 -1394.0 -2796.0 1.000 1.000 1.000
v 1337.0 -1545.0 -2533.0 1.000 1.000 1.000
v 891.0 -1545.0 -2533.0 1.000 1.000 1.000
v 891.0 -1132.0 -2947.0 1.000 1.000 1.000
v 1337.0 -1132.0 -2947.0 1.000 1.000 1.000
v 1337.0 -1394.0 -2796.0 1.000 1.000 1.000
v 891.0 -1394.0 -2796.0 1.000 1.000 1.000
v 891.0 -829.0 -2947.0 1.000 1.000 1.000
v 1337.0 -829.0 -2947.0 1.000 1.000 1.000
v 1337.0 -1132.0 -2947.0 1.000 1.000 1.000
v 891.0 -1132.0 -2947.0 1.000 1.000 1.000
v 891.0 -567.0 -1509.0 1.000 1.000 1.000
v 1337.0 -567.0 -1509.0 1.000 1.000 1.000
v 1337.0 -829.0 -1661.0 1.000 1.000 1.000
v 891.0 -829.0 -1661.0 1.000 1.000 1.000
v 891.0 -415.0 -1247.0 1.000 1.000 1.000
v 1337.0 -415.0 -1247.0 1.000 1.000 1.000
v 1337.0 -567.0 -1509.0 1.000 1.000 1.000
v 891.0 -567.0 -1509.0 1.000 1.000 1.000
v 891.0 -415.0 -944.0 1.000 1.000 1.000
v 1337.0 -415.0 -944.0 1.000 1.000 1.000
v 1337.0 -415.0 -1247.0 1.000 1.000 1.000
v 891.0 -415.0 -1247.0 1.000 1.000 1.000
v 891.0 -567.0 -682.0 1.000 1.000 1.000
v 1337.0 -567.0 -682.0 1.000 1.000 1.000
v 1337.0 -415.0 -944.0 1.000 1.000 1.000
v 891.0 -415.0 -944.0 1.000 1.000 1.000
v 891.0 -829.0 -530.0 1.000 1.000 1.000
v 1337.0 -829.0 -530.0 1.000 1.000 1.000
v 1337.0 -567.0 -682.0 1.000 1.000 1.000
v 891.0 -567.0 -682.0 1.000 1.000 1.000
v 891.0 -1132.0 -530.0 1.000 1.000 1.000
v 1337.0 -1132.0 -530.0 1.000 1.000 1.000
v 1337.0 -829.0 -530.0 1.000 1.000 1.000
v 891.0 -829.0 -530.0 1.000 1.000 1.000
v 891.0 -1394.0 -682.0 1.000 1.000 1.000
v 1337.0 -1394.0 -682.0 1.000 1.000 1.000
v 1337.0 -1132.0 -530.0 1.000 1.000 1.000
v 891.0 -1132.0 -530.0 1.000 1.000 1.000
v 891.0 -1545.0 -944.0 1.000 1.000 1.000
v 1337.0 -1545.0 -944.0 1.000 1.000 1.000
v 1337.0 -1394.0 -682.0 1.000 1.000 1.000
v 891.0 -1394.0 -682.0 1.000 1.000 1.000
v 891.0 -1545.0 -1247.0 1.000 1.000 1.000
v 1337.0 -1545.0 -1247.0 1.000 1.000 1.000
v 1337.0 -1545.0 -944.0 1.000 1.000 1.000
v 891.0 -1545.0 -944.0 1.000 1.000 1.000
v 891.0 -1394.0 -1509.0 1.000 1.000 1.000
v 1337.0 -1394.0 -1509.0 1.000 1.000 1.000
v 1337.0 -1545.0 -1247.0 1.000 1.000 1.000
v 891.0 -1545.0 -1247.0 1.000 1.000 1.000
v 891.0 -1132.0 -1661.0 1.000 1.000 1.000
v 1337.0 -1132.0 -1661.0 1.000 1.000 1.000
v 1337.0 -1394.0 -1509.0 1.000 1.000 1.000
v 891.0 -1394.0 -1509.0 1.000 1.000 1.000
v 891.0 -829.0 -1661.0 1.000 1.000 1.000
v 1337.0 -829.0 -1661.0 1.000 1.000 1.000
v 1337.0 -1132.0 -1661.0 1.000 1.000 1.000
v 891.0 -1132.0 -1661.0 1.000 1.000 1.000
v 891.0 -567.0 -223.0 1.000 1.000 1.000
v 1337.0 -567.0 -223.0 1.000 1.000 1.000
v 1337.0 -829.0 -374.0 1.000 1.000 1.000
v 891.0 -829.0 -374.0 1.000 1.000 1.000
v 891.0 -415.0 40.0 1.000 1.000 1.000
v 1337.0 -415.0 40.0 1.000 1.000 1.000
v 1337.0 -567.0 -223.0 1.000 1.000 1.000
v 891.0 -567.0 -223.0 1.000 1.000 1.000
v 891.0 -415.0 342.0 1.000 1.000 1.000
v 1337.0 -415.0 342.0 1.000 1.000 1.000
v 1337.0 -415.0 40.0 1.000 1.000 1.000
v 891.0 -415.0 40.0 1.000 1.000 1.000
v 891.0 -567.0 605.0 1.000 1.000 1.000
v 1337.0 -567.0 605.0 1.000 1.000 1.000
v 1337.0 -415.0 342.0 1.000 1.000 1.000
v 891.0 -415.0 342.0 1.000 1.000 1.000
v 891.0 -829.0 756.0 1.000 1.000 1.000
v 1337.0 -829.0 756.0 1.000 1.000 1.000
v 1337.0 -567.0 605.0 1.000 1.000 1.000
v 891.0 -567.0 605.0 1.000 1.000 1.000
v 891.0 -1132.0 756.0 1.000 1.000 1.000
v 1337.0 -1132.0 756.0 1.000 1.000 1.000
v 1337.0 -829.0 756.0 1.000 1.000 1.000
v 891.0 -829.0 756.0 1.000 1.000 1.000
v 891.0 -1394.0 605.0 1.000 1.000 1.000
v 1337.0 -1394.0 605.0 1.000 1.000 1.000
v 1337.0 -1132.0 756.0 1.000 1.000 1.000
v 891.0 -1132.0 756.0 1.000 1.000 1.000
v 891.0 -1545.0 342.0 1.000 1.000 1.000
v 1337.0 -1545.0 342.0 1.000 1.000 1.000
v 1337.0 -1394.0 605.0 1.000 1.000 1.000
v 891.0 -1394.0 605.0 1.000 1.000 1.000
v 891.0 -1545.0 40.0 1.000 1.000 1.000
v 1337.0 -1545.0 40.0 1.000 1.000 1.000
v 1337.0 -1545.0 342.0 1.000 1.000 1.000
v 891.0 -1545.0 342.0 1.000 1.000 1.000
v 891.0 -1394.0 -223.0 1.000 1.000 1.000
v 1337.0 -1394.0 -223.0 1.000 1.000 1.000
v 1337.0 -1545.0 40.0 1.000 1.000 1.000
v 891.0 -1545.0 40.0 1.000 1.000 1.000
v 891.0 -1132.0 -374.0 1.000 1.000 1.000
v 1337.0 -1132.0 -374.0 1.000 1.000 1.000
v 1337.0 -1394.0 -223.0 1.000 1.000 1.000
v 891.0 -1394.0 -223.0 1.000 1.000 1.000
v 891.0 -829.0 -374.0 1.000 1.000 1.000
v 1337.0 -829.0 -374.0 1.000 1.000 1.000
v 1337.0 -1132.0 -374.0 1.000 1.000 1.000
v 891.0 -1132.0 -374.0 1.000 1.000 1.000
v 891.0 -567.0 1064.0 1.000 1.000 1.000
v 1337.0 -567.0 1064.0 1.000 1.000 1.000
v 1337.0 -829.0 912.0 1.000 1.000 1.000
v 891.0 -829.0 912.0 1.000 1.000 1.000
v 891.0 -415.0 1326.0 1.000 1.000 1.000
v 1337.0 -415.0 1326.0 1.000 1.000 1.000
v 1337.0 -567.0 1064.0 1.000 1.000 1.000
v 891.0 -567.0 1064.0 1.000 1.000 1.000
v 891.0 -415.0 1629.0 1.000 1.000 1.000
v 1337.0 -415.0 1629.0 1.000 1.000 1.000
v 1337.0 -415.0 1326.0 1.000 1.000 1.000
v 891.0 -415.0 1326.0 1.000 1.000 1.000
v 891.0 -567.0 1891.0 1.000 1.000 1.000
v 1337.0 -567.0 1891.0 1.000 1.000 1.000
v 1337.0 -415.0 1629.0 1.000 1.000 1.000
v 891.0 -415.0 1629.0 1.000 1.000 1.000
v 891.0 -829.0 2043.0 1.000 1.000 1.000
v 1337.0 -829.0 2043.0 1.000 1.000 1.000
v 1337.0 -567.0 1891.0 1.000 1.000 1.000
v 891.0 -567.0 1891.0 1.000 1.000 1.000
v 891.0 -1132.0 2043.0 1.000 1.000 1.000
v 1337.0 -1132.0 2043.0 1.000 1.000 1.000
v 1337.0 -829.0 2043.0 1.000 1.000 1.000
v 891.0 -829.0 2043.0 1.000 1.000 1.000
v 891.0 -1394.0 1891.0 1.000 1.000 1.000
v 1337.0 -1394.0 1891.0 1.000 1.000 1.000
v 1337.0 -1132.0 2043.0 1.000 1.000 1.000
v 891.0 -1132.0 2043.0 1.000 1.000 1.000
v 891.0 -1545.0 1629.0 1.000 1.000 1.000
v 1337.0 -1545.0 1629.0 1.000 1.000 1.000
v 1337.0 -1394.0 1891.0 1.000 1.000 1.000
v 891.0 -1394.0 1891.0 1.000 1.000 1.000
v 891.0 -1545.0 1326.0 1.000 1.000 1.000
v 1337.0 -1545.0 1326.0 1.000 1.000 1.000
v 1337.0 -1545.0 1629.0 1.000 1.000 1.000
v 891.0 -1545.0 1629.0 1.000 1.000 1.000
v 891.0 -1394.0 1064.0 1.000 1.000 1.000
v 1337.0 -1394.0 1064.0 1.000 1.000 1.000
v 1337.0 -1545.0 1326.0 1.000 1.000 1.000
v 891.0 -1545.0 1326.0 1.000 1.000 1.000
v 891.0 -1132.0 912.0 1.000 1.000 1.000
v 1337.0 -1132.0 912.0 1.000 1.000 1.000
v 1337.0 -1394.0 1064.0 1.000 1.000 1.000
v 891.0 -1394.0 1064.0 1.000 1.000 1.000
v 891.0 -829.0 912.0 1.000 1.000 1.000
v 1337.0 -829.0 912.0 1.000 1.000 1.000
v 1337.0 -1132.0 912.0 1.000 1.000 1.000
v 891.0 -1132.0 912.0 1.000 1.000 1.000
v 457.0 -63.0 -3253.0 1.000 1.000 1.000
v -458.0 -63.0 -3253.0 1.000 1.000 1.000
v -458.0 649.0 -2948.0 1.000 1.000 1.000
v 457.0 649.0 -2948.0 1.000 1.000 1.000
v -508.0 -114.0 -3304.0 1.000 1.000 1.000
v -508.0 -266.0 -3406.0 1.000 1.000 1.000
v -508.0 -114.0 -3406.0 1.000 1.000 1.000
v -712.0 -114.0 -3406.0 1.000 1.000 1.000
v -712.0 -266.0 -3406.0 1.000 1.000 1.000
v -712.0 -114.0 -3304.0 1.000 1.000 1.000
v -508.0 -266.0 -3406.0 1.000 1.000 1.000
v -712.0 -266.0 -3406.0 1.000 1.000 1.000
v -712.0 -114.0 -3406.0 1.000 1.000 1.000
v -508.0 -114.0 -3406.0 1.000 1.000 1.000
v 712.0 -114.0 -3304.0 1.000 1.000 1.000
v 712.0 -266.0 -3406.0 1.000 1.000 1.000
v 712.0 -114.0 -3406.0 1.000 1.000 1.000
v 508.0 -114.0 -3406.0 1.000 1.000 1.000
v 508.0 -266.0 -3406.0 1.000 1.000 1.000
v 508.0 -114.0 -3304.0 1.000 1.000 1.000
v 712.0 -266.0 -3406.0 1.000 1.000 1.000
v 508.0 -266.0 -3406.0 1.000 1.000 1.000
v 508.0 -114.0 -3406.0 1.000 1.000 1.000
v 712.0 -114.0 -3406.0 1.000 1.000 1.000
v -1373.0 -571.0 2084.0 1.000 1.000 1.000
v 1372.0 -571.0 2084.0 1.000 1.000 1.000
v 762.0 -1029.0 2491.0 1.000 1.000 1.000
v -763.0 -1029.0 2491.0 1.000 1.000 1.000
v -627.0 699.0 1120.0 1.000 1.000 1.000
v -109.0 699.0 1120.0 1.000 1.000 1.000
v -109.0 699.0 635.0 1.000 1.000 1.000
v -627.0 699.0 635.0 1.000 1.000 1.000
v 208.0 699.0 -314.0 1.000 1.000 1.000
v 726.0 699.0 -314.0 1.000 1.000 1.000
v 726.0 699.0 -799.0 1.000 1.000 1.000
v 208.0 699.0 -799.0 1.000 1.000 1.000
v -645.0 699.0 -1793.0 1.000 1.000 1.000
v -127.0 699.0 -1793.0 1.000 1.000 1.000
v -127.0 699.0 -2278.0 1.000 1.000 1.000
v -645.0 699.0 -2278.0 1.000 1.000 1.000
v -966.0 495.0 -1242.0 1.000 1.000 1.000
v -966.0 495.0 -1929.0 1.000 1.000 1.000
v -1271.0 -113.0 -1929.0 1.000 1.000 1.000
v -1271.0 -113.0 -1242.0 1.000 1.000 1.000
v -1017.0 394.0 -37.0 1.000 1.000 1.000
v -1017.0 394.0 -495.0 1.000 1.000 1.000
v -1220.0 -12.0 -495.0 1.000 1.000 1.000
v -1220.0 -12.0 -37.0 1.000 1.000 1.000
v -913.0 601.0 1393.0 1.000 1.000 1.000
v -913.0 601.0 844.0 1.000 1.000 1.000
v -1157.0 114.0 844.0 1.000 1.000 1.000
v -1157.0 114.0 1393.0 1.000 1.000 1.000
v 1329.0 -231.0 108.0 1.000 1.000 1.000
v 1329.0 -231.0 -464.0 1.000 1.000 1.000
v 1075.0 277.0 -464.0 1.000 1.000 1.000
v 1075.0 277.0 108.0 1.000 1.000 1.000
v 1271.0 -115.0 -1332.0 1.000 1.000 1.000
v 1271.0 -115.0 -2018.0 1.000 1.000 1.000
v 966.0 495.0 -2018.0 1.000 1.000 1.000
v 966.0 495.0 -1332.0 1.000 1.000 1.000
v 1039.0 349.0 1341.0 1.000 1.000 1.000
v 1039.0 349.0 895.0 1.000 1.000 1.000
v 887.0 653.0 895.0 1.000 1.000 1.000
v 887.0 653.0 1341.0 1.000 1.000 1.000
v -1212.0 4.0 1073.0 1.000 1.000 1.000
v -1212.0 4.0 249.0 1.000 1.000 1.000
v -1335.0 -241.0 249.0 1.000 1.000 1.000
v -1335.0 -241.0 1073.0 1.000 1.000 1.000
v -883.0 661.0 -382.0 1.000 1.000 1.000
v -883.0 661.0 -1041.0 1.000 1.000 1.000
v -981.0 465.0 -1041.0 1.000 1.000 1.000
v -981.0 465.0 -382.0 1.000 1.000 1.000
v 1164.0 99.0 1442.0 1.000 1.000 1.000
v 1164.0 99.0 785.0 1.000 1.000 1.000
v 1072.0 283.0 785.0 1.000 1.000 1.000
v 1072.0 283.0 1442.0 1.000 1.000 1.000
v 1009.0 409.0 -230.0 1.000 1.000 1.000
v 1009.0 409.0 -888.0 1.000 1.000 1.000
v 917.0 593.0 -888.0 1.000 1.000 1.000
v 917.0 593.0 -230.0 1.000 1.000 1.000
v -1337.0 -1564.0 892.0 1.000 1.000 1.000
v -1337.0 -1564.0 2058.0 1.000 1.000 1.000
v -1337.0 -397.0 2058.0 1.000 1.000 1.000
v -1337.0 -397.0 892.0 1.000 1.000 1.000
v -893.0 -397.0 892.0 1.000 1.000 1.000
v -893.0 -397.0 2058.0 1.000 1.000 1.000
v -893.0 -1564.0 2058.0 1.000 1.000 1.000
v -893.0 -1564.0 892.0 1.000 1.000 1.000
v -1337.0 -1564.0 -395.0 1.000 1.000 1.000
v -1337.0 -1564.0 772.0 1.000 1.000 1.000
v -1337.0 -397.0 772.0 1.000 1.000 1.000
v -1337.0 -397.0 -395.0 1.000 1.000 1.000
v -893.0 -397.0 -395.0 1.000 1.000 1.000
v -893.0 -397.0 772.0 1.000 1.000 1.000
v -893.0 -1564.0 772.0 1.000 1.000 1.000
v -893.0 -1564.0 -395.0 1.000 1.000 1.000
v -1337.0 -1564.0 -1681.0 1.000 1.000 1.000
v -1337.0 -1564.0 -515.0 1.000 1.000 1.000
v -1337.0 -397.0 -515.0 1.000 1.000 1.000
v -1337.0 -397.0 -1681.0 1.000 1.000 1.000
v -893.0 -397.0 -1681.0 1.000 1.000 1.000
v -893.0 -397.0 -515.0 1.000 1.000 1.000
v -893.0 -1564.0 -515.0 1.000 1.000 1.000
v -893.0 -1564.0 -1681.0 1.000 1.000 1.000
v -1337.0 -1564.0 -2968.0 1.000 1.000 1.000
v -1337.0 -1564.0 -1801.0 1.000 1.000 1.000
v -1337.0 -397.0 -1801.0 1.000 1.000 1.000
v -1337.0 -397.0 -2968.0 1.000 1.000 1.000
v -893.0 -397.0 -2968.0 1.000 1.000 1.000
v -893.0 -397.0 -1801.0 1.000 1.000 1.000
v -893.0 -1564.0 -1801.0 1.000 1.000 1.000
v -893.0 -1564.0 -2968.0 1.000 1.000 1.000
v 1337.0 -1564.0 -1799.0 1.000 1.000 1.000
v 1337.0 -1564.0 -2965.0 1.000 1.000 1.000
v 1337.0 -397.0 -2965.0 1.000 1.000 1.000
v 1337.0 -397.0 -1799.0 1.000 1.000 1.000
v 892.0 -397.0 -1799.0 1.000 1.000 1.000
v 892.0 -397.0 -2965.0 1.000 1.000 1.000
v 892.0 -1564.0 -2965.0 1.000 1.000 1.000
v 892.0 -1564.0 -1799.0 1.000 1.000 1.000
v 1337.0 -1564.0 -512.0 1.000 1.000 1.000
v 1337.0 -1564.0 -1679.0 1.000 1.000 1.000
v 1337.0 -397.0 -1679.0 1.000 1.000 1.000
v 1337.0 -397.0 -512.0 1.000 1.000 1.000
v 892.0 -397.0 -512.0 1.000 1.000 1.000
v 892.0 -397.0 -1679.0 1.000 1.000 1.000
v 892.0 -1564.0 -1679.0 1.000 1.000 1.000
v 892.0 -1564.0 -512.0 1.000 1.000 1.000
v 1337.0 -1564.0 774.0 1.000 1.000 1.000
v 1337.0 -1564.0 -392.0 1.000 1.000 1.000
v 1337.0 -397.0 -392.0 1.000 1.000 1.000
v 1337.0 -397.0 774.0 1.000 1.000 1.000
v 892.0 -397.0 774.0 1.000 1.000 1.000
v 892.0 -397.0 -392.0 1.000 1.000 1.000
v 892.0 -1564.0 -392.0 1.000 1.000 1.000
v 892.0 -1564.0 774.0 1.000 1.000 1.000
v 1337.0 -1564.0 2061.0 1.000 1.000 1.000
v 1337.0 -1564.0 894.0 1.000 1.000 1.000
v 1337.0 -397.0 894.0 1.000 1.000 1.000
v 1337.0 -397.0 2061.0 1.000 1.000 1.000
v 892.0 -397.0 2061.0 1.000 1.000 1.000
v 892.0 -397.0 894.0 1.000 1.000 1.000
v 892.0 -1564.0 894.0 1.000 1.000 1.000
v 892.0 -1564.0 2061.0 1.000 1.000 1.000
v 407.0 1564.0 1245.0 1.000 1.000 1.000
v 407.0 1564.0 1195.0 1.000 1.000 1.000
v 407.0 699.0 1195.0 1.000 1.000 1.000
v 407.0 699.0 1245.0 1.000 1.000 1.000
v 432.0 1564.0 1220.0 1.000 1.000 1.000
v 381.0 1564.0 1220.0 1.000 1.000 1.000
v 381.0 699.0 1220.0 1.000 1.000 1.000
v 432.0 699.0 1220.0 1.000 1.000 1.000
v -966.0 699.0 813.0 1.000 1.000 1.000
v -966.0 699.0 457.0 1.000 1.000 1.000
v -915.0 598.0 457.0 1.000 1.000 1.000
v -915.0 598.0 813.0 1.000 1.000 1.000
v -966.0 730.0 -1456.0 1.000 1.000 1.000
v -966.0 730.0 -1919.0 1.000 1.000 1.000
v -915.0 598.0 -1919.0 1.000 1.000 1.000
v -915.0 598.0 -1456.0 1.000 1.000 1.000
v 915.0 598.0 813.0 1.000 1.000 1.000
v 915.0 598.0 457.0 1.000 1.000 1.000
v 966.0 699.0 457.0 1.000 1.000 1.000
v 966.0 699.0 813.0 1.000 1.000 1.000
v 905.0 577.0 -1375.0 1.000 1.000 1.000
v 905.0 577.0 -1873.0 1.000 1.000 1.000
v 976.0 720.0 -1873.0 1.000 1.000 1.000
v 976.0 720.0 -1375.0 1.000 1.000 1.000
v 1088.0 81.0 2243.0 1.000 1.000 1.000
v 1088.0 81.0 2084.0 1.000 1.000 1.000
v 1088.0 240.0 2084.0 1.000 1.000 1.000
v 1088.0 240.0 2243.0 1.000 1.000 1.000
v -1075.0 81.0 2243.0 1.000 1.000 1.000
v -1075.0 81.0 2084.0 1.000 1.000 1.000
v -1075.0 240.0 2084.0 1.000 1.000 1.000
v -1075.0 240.0 2243.0 1.000 1.000 1.000
v 1008.0 81.0 2243.0 1.000 1.000 1.000
v 1167.0 81.0 2243.0 1.000 1.000 1.000
v 1167.0 240.0 2243.0 1.000 1.000 1.000
v 1008.0 240.0 2243.0 1.000 1.000 1.000
v -1154.0 81.0 2243.0 1.000 1.000 1.000
v -995.0 81.0 2243.0 1.000 1.000 1.000
v -995.0 240.0 2243.0 1.000 1.000 1.000
v -1154.0 240.0 2243.0 1.000 1.000 1.000
v -458.0 -622.0 2898.0 1.000 1.000 1.000
v -458.0 -826.0 2898.0 1.000 1.000 1.000
v -458.0 -826.0 3101.0 1.000 1.000 1.000
v -458.0 -470.0 3101.0 1.000 1.000 1.000
v 457.0 -622.0 2898.0 1.000 1.000 1.000
v 457.0 -826.0 2898.0 1.000 1.000 1.000
v 457.0 -826.0 3101.0 1.000 1.000 1.000
v 457.0 -470.0 3101.0 1.000 1.000 1.000
vt -0.1138 0.9941
vt 0.1499 1.9629
vt 1.1143 1.9678
vt 1.0923 1.0000
vt 4.1279 1.0088
vt -2.4116 1.0088
vt -2.3413 1.9922
vt 4.1289 1.9922
vt 0.0000 1.0000
vt 0.0000 1.8955
vt 1.7905 1.8955
vt 2.2383 1.0000
vt -3.0815 1.0186
vt 6.3721 1.0186
vt 6.4736 -0.0186
vt -3.0815 -0.0186
vt 2.1143 1.0000
vt 0.0000 1.9834
vt 2.1143 1.9834
vt 0.0000 1.0049
vt 0.1045 0.9482
vt 0.1021 0.0693
vt -0.0029 0.0078
vt 1.0068 -0.0020
vt 1.0029 1.0049
vt -0.0029 1.0049
vt 0.0005 -0.0020
vt -0.0078 0.9971
vt 0.9922 0.9971
vt 0.9922 0.1436
vt -0.0078 0.1436
vt 0.0029 0.9971
vt 0.0024 1.3301
vt 0.9888 1.3311
vt 0.9893 0.9980
vt 1.0625 3.2168
vt 0.7334 1.3145
vt 0.0229 1.0156
vt 0.8823 0.6230
vt 0.0083 1.0049
vt -0.3672 3.3633
vt 0.0000 1.5371
vt 1.0000 1.5371
vt 1.0000 1.0000
vt -1.4800 -0.0039
vt 1.4492 0.0020
vt 1.6699 1.0039
vt -1.1250 0.9971
vt 1.6577 0.4482
vt -0.8130 0.4326
vt -0.6230 0.9922
vt 1.9668 1.0088
vt 1.3921 0.7891
vt 1.0591 0.0908
vt -0.0742 0.0908
vt -0.4077 0.7891
vt 0.0005 0.9961
vt 0.1426 1.4922
vt 0.8335 1.5000
vt 0.9873 1.0078
vt -0.1250 2.0039
vt 1.1250 2.0039
vt -0.0039 0.9990
vt 0.0679 1.1484
vt 0.9360 1.1533
vt 1.0093 1.0039
vt 1.2856 1.0010
vt 1.1646 0.0000
vt -0.3086 0.0000
vt -0.3120 1.0010
vt -0.4849 0.0000
vt -0.6646 1.0010
vt 1.3887 1.2002
vt 1.9512 0.5000
vt 1.5356 0.5801
vt 1.5542 1.3203
vt 1.9297 0.6201
vt -0.8711 0.7607
vt 1.2861 0.7607
vt -0.0015 1.0049
vt -0.2432 -0.0908
vt 2.4492 0.1182
vt 2.4810 1.1973
vt 3.0435 0.1641
vt 2.7783 1.2207
vt -0.6729 0.3359
vt -1.4131 0.3809
vt -0.4414 -0.3154
vt -1.4087 0.2627
vt -0.8350 -0.4346
vt -0.3159 0.1914
vt 3.3208 0.4746
vt 1.0059 0.9990
vt 0.8906 0.2979
vt 0.0396 0.3008
vt 0.0049 1.0029
vt 0.5439 1.2842
vt 0.5537 1.0010
vt -0.0122 0.9814
vt -0.0225 1.2646
vt 0.3955 1.2207
vt 0.4043 1.0146
vt -0.0073 0.9971
vt -0.0161 1.2031
vt 0.0015 0.0000
vt 0.0015 1.0010
vt 0.9976 1.0010
vt 0.9976 -0.0010
vt 0.0000 0.0000
vt 1.0000 0.0000
vt 0.0000 0.0010
vt 0.5664 0.9990
vt 0.5674 0.0000
vt 0.5859 0.0005
vt 0.0000 -0.0005
vt 0.5859 1.0005
vt 0.5518 0.0000
vt 0.5518 1.0000
vt 0.5820 1.0005
vt 0.5801 0.0005
vt -0.0020 0.0005
vt 0.5703 0.0000
vt 0.5703 1.0000
vt 0.5752 -0.0010
vt 0.5752 0.9990
vt 0.5732 0.0005
vt 0.5732 1.0005
vt 0.5518 1.0010
vt 0.5518 0.0010
vt 0.5859 0.0010
vt 0.5859 1.0010
vt 0.0264 0.8291
vt 1.0000 0.8291
vt 1.0000 0.1670
vt 0.0264 0.1670
vt 0.0273 0.8330
vt 1.0010 0.8330
vt 1.0010 0.1709
vt 0.0273 0.1709
vt 0.0205 0.8369
vt 0.9941 0.8369
vt 0.9941 0.1748
vt 0.0205 0.1748
vt 0.0283 0.8359
vt 1.0029 0.8359
vt 1.0029 0.1748
vt 0.0283 0.1748
vt 0.0234 0.8379
vt 0.9971 0.8379
vt 0.9971 0.1758
vt 0.0234 0.1758
vt 0.0234 0.8359
vt 0.9980 0.8359
vt 0.9980 0.1748
vt 0.0234 0.1748
vt 1.0000 -1.0000
vt 0.0000 -1.0000
vt 0.7559 0.9971
vt 1.0010 -0.0918
vt 1.0010 1.0010
vt 0.0020 0.9990
vt 0.0020 -0.0830
vt 0.3545 0.9863
vt 1.0000 -0.0869
vt 0.0000 -0.0869
vt 0.3047 0.9971
vt 0.0000 -0.0996
vt 0.0078 0.0156
vt 0.0039 0.9990
vt 0.4180 0.0176
vt 0.0000 -0.1074
vt 1.0000 -0.1074
vt 1.0010 0.9961
vt -0.0024 0.9980
vt -0.0034 0.0010
vt 1.0024 0.0527
vt -0.0015 0.0527
vt -0.0020 0.9766
vt 1.0020 0.9766
vt 1.0010 0.0186
vt 0.0010 0.0186
vt 0.0640 1.0029
vt 0.9893 1.0029
vt 0.9893 -0.0020
vt 0.0640 -0.0020
vt 1.0010 0.2822
vt 1.0010 0.9922
vt -0.0010 0.9922
vt -0.0010 -0.2500
vn -0.577 -0.577 -0.577
vn -0.577 -0.577 -0.577
vn -0.577 -0.577 -0.577
vn -0.577 -0.577 -0.577
vn -0.577 -0.577 -0.577
vn -0.577 -0.577 -0.577
vn -0.577 -0.577 -0.577
vn -0.577 -0.577 -0.577
vn 0.577 0.577 0.577
vn 0.577 0.577 0.577
vn 0.577 0.577 0.577
vn 0.577 0.577 0.577
vn 0.577 0.577 0.577
vn 0.577 0.577 0.577
vn 0.577 0.577 0.577
vn 0.577 0.577 0.577
vn 0.577 0.577 0.577
vn 0.577 0.577 0.577
vn 0.577 0.577 0.577
vn 0.577 0.577 0.577
vn -0.577 -0.577 -0.577
vn -0.577 -0.577 -0.577
vn -0.577 -0.577 -0.577
vn -0.577 -0.577 -0.577
vn -0.577 -0.577 -0.577
vn -0.577 -0.577 -0.577
vn -0.577 -0.577 -0.577
vn -0.577 -0.577 -0.577
vn -0.577 -0.577 -0.577
vn -0.577 -0.577 -0.577
vn -0.577 -0.577 -0.577
vn -0.577 -0.577 -0.577
vn -0.577 -0.577 -0.577
vn -0.577 -0.577 -0.577
vn -0.577 -0.577 -0.577
vn -0.577 -0.577 -0.577
vn 0.577 0.577 0.577
vn 0.577 0.577 0.577
vn 0.577 0.577 0.577
vn -0.577 -0.577 -0.577
vn -0.577 -0.577 -0.577
vn -0.577 -0.577 -0.577
vn 0.577 0.577 0.577
vn 0.577 0.577 0.577
vn 0.577 0.577 0.577
vn 0.577 0.577 0.577
vn 0.577 0.577 0.577
vn 0.577 0.577 0.577
vn 0.577 0.577 0.577
vn 0.577 0.577 0.577
vn -0.577 -0.577 -0.577
vn -0.577 -0.577 -0.577
vn -0.577 -0.577 -0.577
vn -0.577 -0.577 -0.577
vn -0.577 -0.577 -0.577
vn -0.577 -0.577 -0.577
vn -0.577 -0.577 -0.577
vn -0.577 -0.577 -0.577
vn 0.577 0.577 0.577
vn 0.577 0.577 0.577
vn 0.577 0.577 0.577
vn 0.577 0.577 0.577
vn -0.577 -0.577 -0.577
vn -0.577 -0.577 -0.577
vn -0.577 -0.577 -0.577
vn -0.577 -0.577 -0.577
vn 0.577 0.577 0.577
vn 0.577 0.577 0.577
vn 0.577 0.577 0.577
vn 0.577 0.577 0.577
vn 0.577 0.577 0.577
vn 0.577 0.577 0.577
vn 0.577 0.577 0.577
vn 0.577 0.577 0.577
vn -0.577 -0.577 -0.577
vn -0.577 -0.577 -0.577
vn -0.577 -0.577 -0.577
vn -0.577 -0.577 -0.577
vn -0.577 -0.577 -0.577
vn -0.577 -0.577 -0.577
vn -0.577 -0.577 -0.577
vn -0.577 -0.577 -0.577
vn -0.577 -0.577 -0.577
vn -0.577 -0.577 -0.577
vn -0.577 -0.577 -0.577
vn 0.577 0.577 0.577
vn 0.577 0.577 0.577
vn 0.577 0.577 0.577
vn 0.577 0.577 0.577
vn 0.577 0.577 0.577
vn 0.577 0.577 0.577
vn 0.577 0.577 0.577
vn 0.577 0.577 0.577
vn -0.577 -0.577 -0.577
vn -0.577 -0.577 -0.577
vn -0.577 -0.577 -0.577
vn -0.577 -0.577 -0.577
vn 0.577 0.577 0.577
vn 0.577 0.577 0.577
vn 0.577 0.577 0.577
vn 0.577 0.577 0.577
vn 0.577 0.577 0.577
vn 0.577 0.577 0.577
vn 0.577 0.577 0.577
vn 0.577 0.577 0.577
vn 0.577 0.577 0.577
vn 0.577 0.577 0.577
vn 0.577 0.577 0.577
vn 0.577 0.577 0.577
vn 0.577 0.577 0.577
vn -0.577 -0.577 -0.577
vn -0.577 -0.577 -0.577
vn -0.577 -0.577 -0.577
vn -0.577 -0.577 -0.577
vn -0.577 -0.577 -0.577
vn -0.577 -0.577 -0.577
vn -0.577 -0.577 -0.577
vn -0.577 -0.577 -0.577
vn -0.577 -0.577 -0.577
vn -0.577 -0.577 -0.577
vn -0.577 -0.577 -0.577
vn -0.577 -0.577 -0.577
vn -0.577 -0.577 -0.577
vn -0.577 -0.577 -0.577
vn -0.577 -0.577 -0.577
vn -0.577 -0.577 -0.577
vn -0.577 -0.577 -0.577
vn -0.577 -0.577 -0.577
vn -0.577 -0.577 -0.577
vn -0.577 -0.577 -0.577
vn 0.577 0.577 0.577
vn 0.577 0.577 0.577
vn 0.577 0.577 0.577
vn 0.577 0.577 0.577
vn 0.577 0.577 0.577
vn 0.577 0.577 0.577
vn 0.577 0.577 0.577
vn 0.577 0.577 0.577
vn 0.577 0.577 0.577
vn 0.577 0.577 0.577
vn 0.577 0.577 0.577
vn 0.577 0.577 0.577
vn 0.577 0.577 0.577
vn 0.577 0.577 0.577
vn 0.577 0.577 0.577
vn 0.577 0.577 0.577
vn 0.577 0.577 0.577
vn 0.577 0.577 0.577
vn 0.577 0.577 0.577
vn 0.577 0.577 0.577
vn -0.577 -0.577 -0.577
vn -0.577 -0.577 -0.577
vn -0.577 -0.577 -0.577
vn -0.577 -0.577 -0.577
vn -0.577 -0.577 -0.577
vn -0.577 -0.577 -0.577
vn -0.577 -0.577 -0.577
vn -0.577 -0.577 -0.577
vn 0.577 0.577 0.577
vn 0.577 0.577 0.577
vn 0.577 0.577 0.577
vn 0.577 0.577 0.577
vn 0.577 0.577 0.577
vn 0.577 0.577 0.577
vn 0.577 0.577 0.577
vn 0.577 0.577 0.577
vn -0.577 -0.577 -0.577
vn -0.577 -0.577 -0.577
vn -0.577 -0.577 -0.577
vn -0.577 -0.577 -0.577
vn -0.577 -0.577 -0.577
vn -0.577 -0.577 -0.577
vn -0.577 -0.577 -0.577
vn -0.577 -0.577 -0.577
vn -0.577 -0.577 -0.577
vn -0.577 -0.577 -0.577
vn -0.577 -0.577 -0.577
vn -0.577 -0.577 -0.577
vn -0.577 -0.577 -0.577
vn -0.577 -0.577 -0.577
vn -0.577 -0.577 -0.577
vn -0.577 -0.577 -0.577
vn -0.577 -0.577 -0.577
vn -0.577 -0.577 -0.577
vn -0.577 -0.577 -0.577
vn -0.577 -0.577 -0.577
vn 0.577 0.577 0.577
vn -0.577 -0.577 -0.577
vn -0.577 -0.577 -0.577
vn -0.577 -0.577 -0.577
vn 0.577 0.577 0.577
vn 0.577 0.577 0.577
vn 0.577 0.577 0.577
vn 0.577 0.577 0.577
vn 0.577 0.577 0.577
vn 0.577 0.577 0.577
vn 0.577 0.577 0.577
vn 0.577 0.577 0.577
vn 0.577 0.577 0.577
vn 0.577 0.577 0.577
vn 0.577 0.577 0.577
vn 0.577 0.577 0.577
vn 0.577 0.577 0.577
vn 0.577 0.577 0.577
vn 0.577 0.577 0.577
vn 0.577 0.577 0.577
vn 0.577 0.577 0.577
vn 0.577 0.577 0.577
vn 0.577 0.577 0.577
vn 0.577 0.577 0.577
vn 0.577 0.577 0.577
vn 0.577 0.577 0.577
vn 0.577 0.577 0.577
vn 0.577 0.577 0.577
vn -0.577 -0.577 -0.577
vn -0.577 -0.577 -0.577
vn 0.577 0.577 0.577
vn 0.577 0.577 0.577
vn -0.577 -0.577 -0.577
vn -0.577 -0.577 -0.577
vn -0.577 -0.577 -0.577
vn -0.577 -0.577 -0.577
vn -0.577 -0.577 -0.577
vn -0.577 -0.577 -0.577
vn -0.577 -0.577 -0.577
vn -0.577 -0.577 -0.577
vn -0.577 -0.577 -0.577
vn -0.577 -0.577 -0.577
vn -0.577 -0.577 -0.577
vn -0.577 -0.577 -0.577
vn -0.577 -0.577 -0.577
vn -0.577 -0.577 -0.577
vn -0.577 -0.577 -0.577
vn -0.577 -0.577 -0.577
vn -0.577 -0.577 -0.577
vn -0.577 -0.577 -0.577
vn -0.577 -0.577 -0.577
vn -0.577 -0.577 -0.577
vn 0.577 0.577 0.577
vn 0.577 0.577 0.577
vn 0.577 0.577 0.577
vn 0.577 0.577 0.577
vn 0.577 0.577 0.577
vn 0.577 0.577 0.577
vn 0.577 0.577 0.577
vn 0.577 0.577 0.577
vn 0.577 0.577 0.577
vn 0.577 0.577 0.577
vn 0.577 0.577 0.577
vn 0.577 0.577 0.577
vn 0.577 0.577 0.577
vn 0.577 0.577 0.577
vn 0.577 0.577 0.577
vn 0.577 0.577 0.577
vn 0.577 0.577 0.577
vn 0.577 0.577 0.577
vn 0.577 0.577 0.577
vn 0.577 0.577 0.577
vn 0.577 0.577 0.577
vn 0.577 0.577 0.577
vn 0.577 0.577 0.577
vn 0.577 0.577 0.577
vn -0.577 -0.577 -0.577
vn 0.577 0.577 0.577
vn 0.577 0.577 0.577
vn 0.577 0.577 0.577
vn -0.577 -0.577 -0.577
vn -0.577 -0.577 -0.577
vn -0.577 -0.577 -0.577
vn -0.577 -0.577 -0.577
vn -0.577 -0.577 -0.577
vn -0.577 -0.577 -0.577
vn -0.577 -0.577 -0.577
vn -0.577 -0.577 -0.577
vn -0.577 -0.577 -0.577
vn -0.577 -0.577 -0.577
vn -0.577 -0.577 -0.577
vn -0.577 -0.577 -0.577
vn -0.577 -0.577 -0.577
vn -0.577 -0.577 -0.577
vn -0.577 -0.577 -0.577
vn -0.577 -0.577 -0.577
vn 0.577 0.577 0.577
vn 0.577 0.577 0.577
vn -0.577 -0.577 -0.577
vn -0.577 -0.577 -0.577
vn 0.577 0.577 0.577
vn 0.577 0.577 0.577
vn 0.577 0.577 0.577
vn 0.577 0.577 0.577
vn 0.577 0.577 0.577
vn 0.577 0.577 0.577
vn 0.577 0.577 0.577
vn 0.577 0.577 0.577
vn 0.577 0.577 0.577
vn 0.577 0.577 0.577
vn 0.577 0.577 0.577
vn 0.577 0.577 0.577
vn 0.577 0.577 0.577
vn 0.577 0.577 0.577
vn 0.577 0.577 0.577
vn 0.577 0.577 0.577
vn 0.577 0.577 0.577
vn 0.577 0.577 0.577
vn 0.577 0.577 0.577
vn 0.577 0.577 0.577
vn 0.577 0.577 0.577
vn 0.577 0.577 0.577
vn 0.577 0.577 0.577
vn 0.577 0.577 0.577
vn -0.577 -0.577 -0.577
vn -0.577 -0.577 -0.577
vn 0.577 0.577 0.577
vn 0.577 0.577 0.577
vn -0.577 -0.577 -0.577
vn -0.577 -0.577 -0.577
vn -0.577 -0.577 -0.577
vn -0.577 -0.577 -0.577
vn -0.577 -0.577 -0.577
vn -0.577 -0.577 -0.577
vn -0.577 -0.577 -0.577
vn -0.577 -0.577 -0.577
vn -0.577 -0.577 -0.577
vn -0.577 -0.577 -0.577
vn -0.577 -0.577 -0.577
vn -0.577 -0.577 -0.577
vn -0.577 -0.577 -0.577
vn -0.577 -0.577 -0.577
vn -0.577 -0.577 -0.577
vn -0.577 -0.577 -0.577
vn -0.577 -0.577 -0.577
vn 0.577 0.577 0.577
vn -0.577 -0.577 -0.577
vn -0.577 -0.577 -0.577
vn 0.577 0.577 0.577
vn 0.577 0.577 0.577
vn 0.577 0.577 0.577
vn 0.577 0.577 0.577
vn 0.577 0.577 0.577
vn 0.577 0.577 0.577
vn 0.577 0.577 0.577
vn 0.577 0.577 0.577
vn 0.577 0.577 0.577
vn 0.577 0.577 0.577
vn 0.577 0.577 0.577
vn 0.577 0.577 0.577
vn 0.577 0.577 0.577
vn 0.577 0.577 0.577
vn 0.577 0.577 0.577
vn 0.577 0.577 0.577
vn 0.577 0.577 0.577
vn 0.577 0.577 0.577
vn 0.577 0.577 0.577
vn 0.577 0.577 0.577
vn 0.577 0.577 0.577
vn 0.577 0.577 0.577
vn 0.577 0.577 0.577
vn 0.577 0.577 0.577
vn -0.577 -0.577 -0.577
vn -0.577 -0.577 -0.577
vn 0.577 0.577 0.577
vn 0.577 0.577 0.577
vn -0.577 -0.577 -0.577
vn -0.577 -0.577 -0.577
vn 0.577 0.577 0.577
vn -0.577 -0.577 -0.577
vn -0.577 -0.577 -0.577
vn -0.577 -0.577 -0.577
vn -0.577 -0.577 -0.577
vn -0.577 -0.577 -0.577
vn -0.577 -0.577 -0.577
vn -0.577 -0.577 -0.577
vn -0.577 -0.577 -0.577
vn -0.577 -0.577 -0.577
vn -0.577 -0.577 -0.577
vn -0.577 -0.577 -0.577
vn -0.577 -0.577 -0.577
vn -0.577 -0.577 -0.577
vn -0.577 -0.577 -0.577
vn -0.577 -0.577 -0.577
vn -0.577 -0.577 -0.577
vn -0.577 -0.577 -0.577
vn 0.577 0.577 0.577
vn 0.577 0.577 0.577
vn -0.577 -0.577 -0.577
vn 0.577 0.577 0.577
vn 0.577 0.577 0.577
vn 0.577 0.577 0.577
vn 0.577 0.577 0.577
vn 0.577 0.577 0.577
vn 0.577 0.577 0.577
vn 0.577 0.577 0.577
vn 0.577 0.577 0.577
vn 0.577 0.577 0.577
vn 0.577 0.577 0.577
vn 0.577 0.577 0.577
vn 0.577 0.577 0.577
vn 0.577 0.577 0.577
vn 0.577 0.577 0.577
vn 0.577 0.577 0.577
vn 0.577 0.577 0.577
vn 0.577 0.577 0.577
vn 0.577 0.577 0.577
vn 0.577 0.577 0.577
vn 0.577 0.577 0.577
vn 0.577 0.577 0.577
vn 0.577 0.577 0.577
vn 0.577 0.577 0.577
vn 0.577 0.577 0.577
vn 0.577 0.577 0.577
vn -0.577 -0.577 -0.577
vn -0.577 -0.577 -0.577
vn 0.577 0.577 0.577
vn 0.577 0.577 0.577
vn -0.577 -0.577 -0.577
vn -0.577 -0.577 -0.577
vn -0.577 -0.577 -0.577
vn -0.577 -0.577 -0.577
vn -0.577 -0.577 -0.577
vn -0.577 -0.577 -0.577
vn -0.577 -0.577 -0.577
vn -0.577 -0.577 -0.577
vn -0.577 -0.577 -0.577
vn -0.577 -0.577 -0.577
vn -0.577 -0.577 -0.577
vn -0.577 -0.577 -0.577
vn -0.577 -0.577 -0.577
vn -0.577 -0.577 -0.577
vn -0.577 -0.577 -0.577
vn -0.577 -0.577 -0.577
vn 0.577 0.577 0.577
vn 0.577 0.577 0.577
vn 0.577 0.577 0.577
vn 0.577 0.577 0.577
vn 0.577 0.577 0.577
vn 0.577 0.577 0.577
vn 0.577 0.577 0.577
vn 0.577 0.577 0.577
vn 0.577 0.577 0.577
vn 0.577 0.577 0.577
vn 0.577 0.577 0.577
vn 0.577 0.577 0.577
vn 0.577 0.577 0.577
vn 0.577 0.577 0.577
vn 0.577 0.577 0.577
vn 0.577 0.577 0.577
vn 0.577 0.577 0.577
vn 0.577 0.577 0.577
vn 0.577 0.577 0.577
vn 0.577 0.577 0.577
vn 0.577 0.577 0.577
vn 0.577 0.577 0.577
vn 0.577 0.577 0.577
vn 0.577 0.577 0.577
vn 0.577 0.577 0.577
vn 0.577 0.577 0.577
vn 0.577 0.577 0.577
vn 0.577 0.577 0.577
vn -0.577 -0.577 -0.577
vn 0.577 0.577 0.577
vn 0.577 0.577 0.577
vn 0.577 0.577 0.577
vn -0.577 -0.577 -0.577
vn -0.577 -0.577 -0.577
vn -0.577 -0.577 -0.577
vn -0.577 -0.577 -0.577
vn -0.577 -0.577 -0.577
vn -0.577 -0.577 -0.577
vn -0.577 -0.577 -0.577
vn -0.577 -0.577 -0.577
vn -0.577 -0.577 -0.577
vn -0.577 -0.577 -0.577
vn -0.577 -0.577 -0.577
vn -0.577 -0.577 -0.577
vn -0.577 -0.577 -0.577
vn -0.577 -0.577 -0.577
vn -0.577 -0.577 -0.577
vn -0.577 -0.577 -0.577
vn 0.577 0.577 0.577
vn 0.577 0.577 0.577
vn 0.577 0.577 0.577
vn -0.577 -0.577 -0.577
vn 0.577 0.577 0.577
vn 0.577 0.577 0.577
vn 0.577 0.577 0.577
vn 0.577 0.577 0.577
vn 0.577 0.577 0.577
vn 0.577 0.577 0.577
vn 0.577 0.577 0.577
vn 0.577 0.577 0.577
vn 0.577 0.577 0.577
vn 0.577 0.577 0.577
vn 0.577 0.577 0.577
vn 0.577 0.577 0.577
vn 0.577 0.577 0.577
vn 0.577 0.577 0.577
vn 0.577 0.577 0.577
vn 0.577 0.577 0.577
vn 0.577 0.577 0.577
vn 0.577 0.577 0.577
vn 0.577 0.577 0.577
vn 0.577 0.577 0.577
vn 0.577 0.577 0.577
vn 0.577 0.577 0.577
vn 0.577 0.577 0.577
vn 0.577 0.577 0.577
vn -0.577 -0.577 -0.577
vn -0.577 -0.577 -0.577
vn 0.577 0.577 0.577
vn 0.577 0.577 0.577
vn -0.577 -0.577 -0.577
vn -0.577 -0.577 -0.577
vn -0.577 -0.577 -0.577
vn -0.577 -0.577 -0.577
vn -0.577 -0.577 -0.577
vn -0.577 -0.577 -0.577
vn -0.577 -0.577 -0.577
vn -0.577 -0.577 -0.577
vn -0.577 -0.577 -0.577
vn -0.577 -0.577 -0.577
vn -0.577 -0.577 -0.577
vn -0.577 -0.577 -0.577
vn -0.577 -0.577 -0.577
vn -0.577 -0.577 -0.577
vn -0.577 -0.577 -0.577
vn -0.577 -0.577 -0.577
vn 0.577 0.577 0.577
vn 0.577 0.577 0.577
vn -0.577 -0.577 -0.577
vn -0.577 -0.577 -0.577
vn 0.577 0.577 0.577
vn 0.577 0.577 0.577
vn 0.577 0.577 0.577
vn 0.577 0.577 0.577
vn 0.577 0.577 0.577
vn 0.577 0.577 0.577
vn 0.577 0.577 0.577
vn 0.577 0.577 0.577
vn 0.577 0.577 0.577
vn 0.577 0.577 0.577
vn 0.577 0.577 0.577
vn 0.577 0.577 0.577
vn 0.577 0.577 0.577
vn 0.577 0.577 0.577
vn 0.577 0.577 0.577
vn 0.577 0.577 0.577
vn 0.577 0.577 0.577
vn 0.577 0.577 0.577
vn 0.577 0.577 0.577
vn 0.577 0.577 0.577
vn 0.577 0.577 0.577
vn 0.577 0.577 0.577
vn 0.577 0.577 0.577
vn 0.577 0.577 0.577
vn 0.577 0.577 0.577
vn 0.577 0.577 0.577
vn -0.577 -0.577 -0.577
vn -0.577 -0.577 -0.577
vn 0.577 0.577 0.577
vn 0.577 0.577 0.577
vn 0.577 0.577 0.577
vn -0.577 -0.577 -0.577
vn -0.577 -0.577 -0.577
vn -0.577 -0.577 -0.577
vn 0.577 0.577 0.577
vn 0.577 0.577 0.577
vn 0.577 0.577 0.577
vn 0.577 0.577 0.577
vn 0.577 0.577 0.577
vn 0.577 0.577 0.577
vn 0.577 0.577 0.577
vn -0.577 -0.577 -0.577
vn -0.577 -0.577 -0.577
vn -0.577 -0.577 -0.577
vn 0.577 0.577 0.577
vn 0.577 0.577 0.577
vn 0.577 0.577 0.577
vn 0.577 0.577 0.577
vn 0.577 0.577 0.577
vn 0.577 0.577 0.577
vn 0.577 0.577 0.577
vn 0.577 0.577 0.577
vn -0.577 -0.577 -0.577
vn -0.577 -0.577 -0.577
vn -0.577 -0.577 -0.577
vn -0.577 -0.577 -0.577
vn -0.577 -0.577 -0.577
vn -0.577 -0.577 -0.577
vn -0.577 -0.577 -0.577
vn -0.577 -0.577 -0.577
vn -0.577 -0.577 -0.577
vn -0.577 -0.577 -0.577
vn -0.577 -0.577 -0.577
vn -0.577 -0.577 -0.577
vn -0.577 -0.577 -0.577
vn -0.577 -0.577 -0.577
vn -0.577 -0.577 -0.577
vn -0.577 -0.577 -0.577
vn -0.577 -0.577 -0.577
vn -0.577 -0.577 -0.577
vn -0.577 -0.577 -0.577
vn -0.577 -0.577 -0.577
vn -0.577 -0.577 -0.577
vn -0.577 -0.577 -0.577
vn -0.577 -0.577 -0.577
vn -0.577 -0.577 -0.577
vn 0.577 0.577 0.577
vn 0.577 0.577 0.577
vn 0.577 0.577 0.577
vn 0.577 0.577 0.577
vn 0.577 0.577 0.577
vn 0.577 0.577 0.577
vn 0.577 0.577 0.577
vn 0.577 0.577 0.577
vn 0.577 0.577 0.577
vn 0.577 0.577 0.577
vn 0.577 0.577 0.577
vn 0.577 0.577 0.577
vn -0.577 -0.577 -0.577
vn -0.577 -0.577 -0.577
vn -0.577 -0.577 -0.577
vn -0.577 -0.577 -0.577
vn -0.577 -0.577 -0.577
vn -0.577 -0.577 -0.577
vn -0.577 -0.577 -0.577
vn -0.577 -0.577 -0.577
vn 0.577 0.577 0.577
vn 0.577 0.577 0.577
vn 0.577 0.577 0.577
vn 0.577 0.577 0.577
vn 0.577 0.577 0.577
vn 0.577 0.577 0.577
vn 0.577 0.577 0.577
vn 0.577 0.577 0.577
vn -0.577 -0.577 -0.577
vn -0.577 -0.577 -0.577
vn -0.577 -0.577 -0.577
vn -0.577 -0.577 -0.577
vn 0.577 0.577 0.577
vn 0.577 0.577 0.577
vn 0.577 0.577 0.577
vn 0.577 0.577 0.577
vn -0.577 -0.577 -0.577
vn -0.577 -0.577 -0.577
vn -0.577 -0.577 -0.577
vn -0.577 -0.577 -0.577
vn 0.577 0.577 0.577
vn 0.577 0.577 0.577
vn 0.577 0.577 0.577
vn 0.577 0.577 0.577
vn -0.577 -0.577 -0.577
vn -0.577 -0.577 -0.577
vn -0.577 -0.577 -0.577
vn -0.577 -0.577 -0.577
vn 0.577 0.577 0.577
vn 0.577 0.577 0.577
vn 0.577 0.577 0.577
vn 0.577 0.577 0.577
vn -0.577 -0.577 -0.577
vn -0.577 -0.577 -0.577
vn -0.577 -0.577 -0.577
vn -0.577 -0.577 -0.577
vn 0.577 0.577 0.577
vn 0.577 0.577 0.577
vn 0.577 0.577 0.577
vn 0.577 0.577 0.577
vn 0.577 0.577 0.577
vn 0.577 0.577 0.577
vn 0.577 0.577 0.577
vn 0.577 0.577 0.577
vn -0.577 -0.577 -0.577
vn -0.577 -0.577 -0.577
vn -0.577 -0.577 -0.577
vn -0.577 -0.577 -0.577
vn 0.577 0.577 0.577
vn 0.577 0.577 0.577
vn 0.577 0.577 0.577
vn 0.577 0.577 0.577
vn -0.577 -0.577 -0.577
vn -0.577 -0.577 -0.577
vn -0.577 -0.577 -0.577
vn -0.577 -0.577 -0.577
vn 0.577 0.577 0.577
vn 0.577 0.577 0.577
vn 0.577 0.577 0.577
vn 0.577 0.577 0.577
vn -0.577 -0.577 -0.577
vn -0.577 -0.577 -0.577
vn -0.577 -0.577 -0.577
vn -0.577 -0.577 -0.577
vn 0.577 0.577 0.577
vn 0.577 0.577 0.577
vn 0.577 0.577 0.577
vn 0.577 0.577 0.577
vn -0.577 -0.577 -0.577
vn -0.577 -0.577 -0.577
vn -0.577 -0.577 -0.577
vn -0.577 -0.577 -0.577
vn -0.577 -0.577 -0.577
vn -0.577 -0.577 -0.577
vn -0.577 -0.577 -0.577
vn -0.577 -0.577 -0.577
vn 0.577 0.577 0.577
vn 0.577 0.577 0.577
vn 0.577 0.577 0.577
vn 0.577 0.577 0.577
vn -0.577 -0.577 -0.577
vn -0.577 -0.577 -0.577
vn -0.577 -0.577 -0.577
vn -0.577 -0.577 -0.577
vn -0.577 -0.577 -0.577
vn -0.577 -0.577 -0.577
vn -0.577 -0.577 -0.577
vn -0.577 -0.577 -0.577
vn 0.577 0.577 0.577
vn 0.577 0.577 0.577
vn 0.577 0.577 0.577
vn 0.577 0.577 0.577
vn 0.577 0.577 0.577
vn 0.577 0.577 0.577
vn 0.577 0.577 0.577
vn 0.577 0.577 0.577
vn 0.577 0.577 0.577
vn 0.577 0.577 0.577
vn 0.577 0.577 0.577
vn 0.577 0.577 0.577
vn 0.577 0.577 0.577
vn 0.577 0.577 0.577
vn 0.577 0.577 0.577
vn 0.577 0.577 0.577
vn 0.577 0.577 0.577
vn 0.577 0.577 0.577
vn 0.577 0.577 0.577
vn 0.577 0.577 0.577
vn 0.577 0.577 0.577
vn 0.577 0.577 0.577
vn 0.577 0.577 0.577
vn 0.577 0.577 0.577
vn -0.577 -0.577 -0.577
vn -0.577 -0.577 -0.577
vn -0.577 -0.577 -0.577
vn -0.577 -0.577 -0.577
vn -0.577 -0.577 -0.577
vn -0.577 -0.577 -0.577
vn -0.577 -0.577 -0.577
vn -0.577 -0.577 -0.577
usemtl tex_53_lit
f 1/1/1 2/2/2 3/3/3
f 1/1/1 3/3/3 4/4/4
usemtl tex_53_lit_ds
f 5/5/5 6/6/6 7/7/7
f 5/5/5 7/7/7 8/8/8
usemtl tex_53_lit
f 9/9/9 10/10/10 11/11/11
f 9/9/9 11/11/11 12/12/12
usemtl tex_53_lit_ds
f 13/13/13 14/14/14 15/15/15
f 13/13/13 15/15/15 16/16/16
usemtl tex_53_lit
f 17/17/17 18/9/18 19/18/19
f 17/17/17 19/18/19 20/19/20
usemtl tex_47_lit
f 21/20/21 22/21/22 23/22/23
f 21/20/21 23/22/23 24/23/24
f 25/24/25 26/25/26 27/26/27
f 25/24/25 27/26/27 28/27/28
f 29/28/29 30/29/30 31/30/31
f 29/28/29 31/30/31 32/31/32
f 33/32/33 34/33/34 35/34/35
f 33/32/33 35/34/35 36/35/36
f 37/36/37 38/37/38 39/38/39
f 40/39/40 41/40/41 42/41/42
f 43/42/43 44/43/44 45/44/45
f 43/42/43 45/44/45 46/9/46
f 47/45/47 48/46/48 49/47/49
f 47/45/47 49/47/49 50/48/50
f 51/49/51 52/50/52 53/51/53
f 51/49/51 53/51/53 54/52/54
f 55/30/55 56/29/56 57/53/57
f 55/30/55 57/53/57 58/54/58
f 59/55/59 60/56/60 61/28/61
f 59/55/59 61/28/61 62/31/62
usemtl tex_47_lit_ds
f 63/57/63 64/58/64 65/59/65
f 63/57/63 65/59/65 66/60/66
f 67/61/67 68/62/68 69/44/69
f 67/61/67 69/44/69 70/9/70
f 71/63/71 72/64/72 73/65/73
f 71/63/71 73/65/73 74/66/74
usemtl tex_47_lit
f 75/67/75 76/68/76 77/69/77
f 75/67/75 77/69/77 78/70/78
f 79/69/79 80/71/80 81/72/81
f 79/69/79 81/72/81 82/70/82
usemtl tex_47_lit_ds
f 83/73/83 84/74/84 85/75/85
f 86/73/86 87/76/87 88/77/88
f 86/73/86 88/77/88 89/74/89
usemtl tex_47_lit
f 90/72/90 91/78/91 92/79/92
f 90/72/90 92/79/92 93/67/93
usemtl tex_47_lit_ds
f 83/73/83 85/75/85 94/68/94
f 95/73/95 96/68/96 97/67/97
usemtl tex_47_lit
f 98/80/98 99/81/99 100/82/100
f 98/80/98 100/82/100 101/83/101
f 100/82/100 102/84/102 103/85/103
f 100/82/100 103/85/103 101/83/101
usemtl tex_47_lit_ds
f 104/86/104 105/87/105 106/88/106
f 105/87/105 107/89/107 108/90/108
f 105/87/105 108/90/108 106/88/106
usemtl tex_47_lit
f 99/81/99 109/91/109 110/92/110
f 99/81/99 110/92/110 102/84/102
usemtl tex_47_lit_ds
f 99/81/99 98/80/98 104/86/104
f 99/81/99 104/86/104 106/88/106
f 111/93/111 112/94/112 113/95/113
f 111/93/111 113/95/113 114/96/114
usemtl tex_47_lit
f 115/97/115 116/98/116 117/99/117
f 115/97/115 117/99/117 118/100/118
f 119/101/119 120/102/120 121/103/121
f 119/101/119 121/103/121 122/104/122
usemtl tex_50_lit
f 123/105/123 124/106/124 125/107/125
f 123/105/123 125/107/125 126/108/126
f 127/109/127 128/9/128 129/44/129
f 127/109/127 129/44/129 130/110/130
usemtl tex_48_lit
f 131/111/131 132/9/132 133/112/133
f 131/111/131 133/112/133 134/113/134
f 135/114/135 136/115/136 137/9/137
f 135/114/135 137/9/137 138/116/138
f 139/44/139 140/110/140 141/117/141
f 139/44/139 141/117/141 142/118/142
f 143/44/143 144/110/144 145/117/145
f 143/44/143 145/117/145 146/118/146
f 147/9/147 148/119/148 149/120/149
f 147/9/147 149/120/149 150/121/150
f 151/110/151 152/122/152 153/123/153
f 151/110/151 153/123/153 154/44/154
f 155/44/155 156/110/156 157/124/157
f 155/44/155 157/124/157 158/125/158
f 159/44/159 160/110/160 161/126/161
f 159/44/159 161/126/161 162/127/162
f 163/128/163 164/44/164 165/110/165
f 163/128/163 165/110/165 166/129/166
f 167/130/167 168/131/168 169/44/169
f 167/130/167 169/44/169 170/110/170
usemtl tex_1447_lit
f 171/132/171 172/133/172 173/134/173
f 171/132/171 173/134/173 174/135/174
f 175/132/175 176/133/176 177/134/177
f 175/132/175 177/134/177 178/135/178
f 179/132/179 180/133/180 181/134/181
f 179/132/179 181/134/181 182/135/182
f 183/132/183 184/133/184 185/134/185
f 183/132/183 185/134/185 186/135/186
f 187/132/187 188/133/188 189/134/189
f 187/132/187 189/134/189 190/135/190
f 191/132/191 192/133/192 193/134/193
f 191/132/191 193/134/193 194/135/194
f 195/136/195 196/137/196 197/138/197
f 195/136/195 197/138/197 198/139/198
f 199/140/199 200/141/200 201/142/201
f 199/140/199 201/142/201 202/143/202
f 203/144/203 204/145/204 205/146/205
f 203/144/203 205/146/205 206/147/206
f 207/148/207 208/149/208 209/150/209
f 207/148/207 209/150/209 210/151/210
f 211/148/211 212/149/212 213/150/213
f 211/148/211 213/150/213 214/151/214
f 215/152/215 216/153/216 217/154/217
f 215/152/215 217/154/217 218/155/218
f 219/132/219 220/133/220 221/134/221
f 219/132/219 221/134/221 222/135/222
f 223/132/223 224/133/224 225/134/225
f 223/132/223 225/134/225 226/135/226
f 227/132/227 228/133/228 229/134/229
f 227/132/227 229/134/229 230/135/230
f 231/132/231 232/133/232 233/134/233
f 231/132/231 233/134/233 234/135/234
f 235/132/235 236/133/236 237/134/237
f 235/132/235 237/134/237 238/135/238
f 239/132/239 240/133/240 241/134/241
f 239/132/239 241/134/241 242/135/242
f 243/136/243 244/137/244 245/138/245
f 243/136/243 245/138/245 246/139/246
f 247/140/247 248/141/248 249/142/249
f 247/140/247 249/142/249 250/143/250
f 251/144/251 252/145/252 253/146/253
f 251/144/251 253/146/253 254/147/254
f 255/148/255 256/149/256 257/150/257
f 255/148/255 257/150/257 258/151/258
f 259/148/259 260/149/260 261/150/261
f 259/148/259 261/150/261 262/151/262
f 263/152/263 264/153/264 265/154/265
f 263/152/263 265/154/265 266/155/266
f 267/132/267 268/133/268 269/134/269
f 267/132/267 269/134/269 270/135/270
f 271/132/271 272/133/272 273/134/273
f 271/132/271 273/134/273 274/135/274
f 275/132/275 276/133/276 277/134/277
f 275/132/275 277/134/277 278/135/278
f 279/132/279 280/133/280 281/134/281
f 279/132/279 281/134/281 282/135/282
f 283/132/283 284/133/284 285/134/285
f 283/132/283 285/134/285 286/135/286
f 287/132/287 288/133/288 289/134/289
f 287/132/287 289/134/289 290/135/290
f 291/136/291 292/137/292 293/138/293
f 291/136/291 293/138/293 294/139/294
f 295/140/295 296/141/296 297/142/297
f 295/140/295 297/142/297 298/143/298
f 299/144/299 300/145/300 301/146/301
f 299/144/299 301/146/301 302/147/302
f 303/148/303 304/149/304 305/150/305
f 303/148/303 305/150/305 306/151/306
f 307/148/307 308/149/308 309/150/309
f 307/148/307 309/150/309 310/151/310
f 311/152/311 312/153/312 313/154/313
f 311/152/311 313/154/313 314/155/314
f 315/132/315 316/133/316 317/134/317
f 315/132/315 317/134/317 318/135/318
f 319/132/319 320/133/320 321/134/321
f 319/132/319 321/134/321 322/135/322
f 323/132/323 324/133/324 325/134/325
f 323/132/323 325/134/325 326/135/326
f 327/132/327 328/133/328 329/134/329
f 327/132/327 329/134/329 330/135/330
f 331/132/331 332/133/332 333/134/333
f 331/132/331 333/134/333 334/135/334
f 335/132/335 336/133/336 337/134/337
f 335/132/335 337/134/337 338/135/338
f 339/136/339 340/137/340 341/138/341
f 339/136/339 341/138/341 342/139/342
f 343/140/343 344/141/344 345/142/345
f 343/140/343 345/142/345 346/143/346
f 347/144/347 348/145/348 349/146/349
f 347/144/347 349/146/349 350/147/350
f 351/148/351 352/149/352 353/150/353
f 351/148/351 353/150/353 354/151/354
f 355/148/355 356/149/356 357/150/357
f 355/148/355 357/150/357 358/151/358
f 359/152/359 360/153/360 361/154/361
f 359/152/359 361/154/361 362/155/362
f 363/132/363 364/133/364 365/134/365
f 363/132/363 365/134/365 366/135/366
f 367/132/367 368/133/368 369/134/369
f 367/132/367 369/134/369 370/135/370
f 371/132/371 372/133/372 373/134/373
f 371/132/371 373/134/373 374/135/374
f 375/132/375 376/133/376 377/134/377
f 375/132/375 377/134/377 378/135/378
f 379/132/379 380/133/380 381/134/381
f 379/132/379 381/134/381 382/135/382
f 383/132/383 384/133/384 385/134/385
f 383/132/383 385/134/385 386/135/386
f 387/136/387 388/137/388 389/138/389
f 387/136/387 389/138/389 390/139/390
f 391/140/391 392/141/392 393/142/393
f 391/140/391 393/142/393 394/143/394
f 395/144/395 396/145/396 397/146/397
f 395/144/395 397/146/397 398/147/398
f 399/148/399 400/149/400 401/150/401
f 399/148/399 401/150/401 402/151/402
f 403/148/403 404/149/404 405/150/405
f 403/148/403 405/150/405 406/151/406
f 407/152/407 408/153/408 409/154/409
f 407/152/407 409/154/409 410/155/410
f 411/132/411 412/133/412 413/134/413
f 411/132/411 413/134/413 414/135/414
f 415/132/415 416/133/416 417/134/417
f 415/132/415 417/134/417 418/135/418
f 419/132/419 420/133/420 421/134/421
f 419/132/419 421/134/421 422/135/422
f 423/132/423 424/133/424 425/134/425
f 423/132/423 425/134/425 426/135/426
f 427/132/427 428/133/428 429/134/429
f 427/132/427 429/134/429 430/135/430
f 431/132/431 432/133/432 433/134/433
f 431/132/431 433/134/433 434/135/434
f 435/136/435 436/137/436 437/138/437
f 435/136/435 437/138/437 438/139/438
f 439/140/439 440/141/440 441/142/441
f 439/140/439 441/142/441 442/143/442
f 443/144/443 444/145/444 445/146/445
f 443/144/443 445/146/445 446/147/446
f 447/148/447 448/149/448 449/150/449
f 447/148/447 449/150/449 450/151/450
f 451/148/451 452/149/452 453/150/453
f 451/148/451 453/150/453 454/151/454
f 455/152/455 456/153/456 457/154/457
f 455/152/455 457/154/457 458/155/458
f 459/132/459 460/133/460 461/134/461
f 459/132/459 461/134/461 462/135/462
f 463/132/463 464/133/464 465/134/465
f 463/132/463 465/134/465 466/135/466
f 467/132/467 468/133/468 469/134/469
f 467/132/467 469/134/469 470/135/470
f 471/132/471 472/133/472 473/134/473
f 471/132/471 473/134/473 474/135/474
f 475/132/475 476/133/476 477/134/477
f 475/132/475 477/134/477 478/135/478
f 479/132/479 480/133/480 481/134/481
f 479/132/479 481/134/481 482/135/482
f 483/136/483 484/137/484 485/138/485
f 483/136/483 485/138/485 486/139/486
f 487/140/487 488/141/488 489/142/489
f 487/140/487 489/142/489 490/143/490
f 491/144/491 492/145/492 493/146/493
f 491/144/491 493/146/493 494/147/494
f 495/148/495 496/149/496 497/150/497
f 495/148/495 497/150/497 498/151/498
f 499/148/499 500/149/500 501/150/501
f 499/148/499 501/150/501 502/151/502
f 503/152/503 504/153/504 505/154/505
f 503/152/503 505/154/505 506/155/506
f 507/132/507 508/133/508 509/134/509
f 507/132/507 509/134/509 510/135/510
f 511/132/511 512/133/512 513/134/513
f 511/132/511 513/134/513 514/135/514
f 515/132/515 516/133/516 517/134/517
f 515/132/515 517/134/517 518/135/518
f 519/132/519 520/133/520 521/134/521
f 519/132/519 521/134/521 522/135/522
f 523/132/523 524/133/524 525/134/525
f 523/132/523 525/134/525 526/135/526
f 527/132/527 528/133/528 529/134/529
f 527/132/527 529/134/529 530/135/530
f 531/136/531 532/137/532 533/138/533
f 531/136/531 533/138/533 534/139/534
f 535/140/535 536/141/536 537/142/537
f 535/140/535 537/142/537 538/143/538
f 539/144/539 540/145/540 541/146/541
f 539/144/539 541/146/541 542/147/542
f 543/148/543 544/149/544 545/150/545
f 543/148/543 545/150/545 546/151/546
f 547/148/547 548/149/548 549/150/549
f 547/148/547 549/150/549 550/151/550
f 551/152/551 552/153/552 553/154/553
f 551/152/551 553/154/553 554/155/554
usemtl tex_772_lit
f 555/9/555 556/44/556 557/156/557
f 555/9/555 557/156/557 558/157/558
usemtl tex_669_lit
f 559/158/559 560/159/560 561/160/561
f 562/161/562 563/162/563 564/163/564
f 565/164/565 566/165/566 567/9/567
f 565/164/565 567/9/567 568/44/568
f 569/166/569 570/167/570 571/9/571
f 572/168/572 573/169/573 574/170/574
f 575/171/575 576/172/576 577/44/577
f 575/171/575 577/44/577 578/9/578
usemtl tex_1514_lit
f 579/9/579 580/9/580 581/9/581
f 579/9/579 581/9/581 582/9/582
usemtl tex_50_lit_ovl
f 583/109/583 584/9/584 585/44/585
f 583/109/583 585/44/585 586/110/586
f 587/109/587 588/9/588 589/44/589
f 587/109/587 589/44/589 590/110/590
f 591/109/591 592/9/592 593/44/593
f 591/109/591 593/44/593 594/110/594
usemtl tex_50_lit
f 595/110/595 596/173/596 597/174/597
f 595/110/595 597/174/597 598/175/598
usemtl tex_50_lit_ovl
f 599/110/599 600/173/600 601/174/601
f 599/110/599 601/174/601 602/175/602
usemtl tex_50_lit
f 603/110/603 604/173/604 605/174/605
f 603/110/603 605/174/605 606/175/606
usemtl tex_50_lit_ovl
f 607/109/607 608/9/608 609/44/609
f 607/109/607 609/44/609 610/110/610
f 611/109/611 612/9/612 613/44/613
f 611/109/611 613/44/613 614/110/614
f 615/109/615 616/9/616 617/44/617
f 615/109/615 617/44/617 618/110/618
usemtl tex_772_lit_ovl
f 619/110/619 620/109/620 621/9/621
f 619/110/619 621/9/621 622/44/622
f 623/110/623 624/109/624 625/9/625
f 623/110/623 625/9/625 626/44/626
f 627/9/627 628/44/628 629/110/629
f 627/9/627 629/110/629 630/109/630
f 631/9/631 632/44/632 633/110/633
f 631/9/631 633/110/633 634/109/634
usemtl tex_54_lit_sec
f 635/9/635 636/44/636 637/110/637
f 635/9/635 637/110/637 638/109/638
f 639/109/639 640/110/640 641/44/641
f 639/109/639 641/44/641 642/9/642
f 643/9/643 644/44/644 645/110/645
f 643/9/643 645/110/645 646/109/646
f 647/109/647 648/110/648 649/44/649
f 647/109/647 649/44/649 650/9/650
f 651/9/651 652/44/652 653/110/653
f 651/9/651 653/110/653 654/109/654
f 655/109/655 656/110/656 657/44/657
f 655/109/655 657/44/657 658/9/658
f 659/9/659 660/44/660 661/110/661
f 659/9/659 661/110/661 662/109/662
f 663/109/663 664/110/664 665/44/665
f 663/109/663 665/44/665 666/9/666
f 667/9/667 668/44/668 669/110/669
f 667/9/667 669/110/669 670/109/670
f 671/109/671 672/110/672 673/44/673
f 671/109/671 673/44/673 674/9/674
f 675/9/675 676/44/676 677/110/677
f 675/9/675 677/110/677 678/109/678
f 679/109/679 680/110/680 681/44/681
f 679/109/679 681/44/681 682/9/682
f 683/9/683 684/44/684 685/110/685
f 683/9/683 685/110/685 686/109/686
f 687/109/687 688/110/688 689/44/689
f 687/109/687 689/44/689 690/9/690
f 691/9/691 692/44/692 693/110/693
f 691/9/691 693/110/693 694/109/694
f 695/109/695 696/110/696 697/44/697
f 695/109/695 697/44/697 698/9/698
usemtl tex_46_lit_sec_ds_w11
f 699/110/699 700/109/700 701/9/701
f 699/110/699 701/9/701 702/44/702
f 703/110/703 704/109/704 705/9/705
f 703/110/703 705/9/705 706/44/706
usemtl tex_49_lit_sec_ds
f 707/176/707 708/177/708 709/178/709
f 707/176/707 709/178/709 710/179/710
f 711/176/711 712/177/712 713/178/713
f 711/176/711 713/178/713 714/179/714
f 715/9/715 716/44/716 717/180/717
f 715/9/715 717/180/717 718/181/718
f 719/9/719 720/44/720 721/180/721
f 719/9/719 721/180/721 722/181/722
usemtl tex_51_lit_sec_ds
f 723/182/723 724/183/724 725/184/725
f 723/182/723 725/184/725 726/185/726
f 727/182/727 728/183/728 729/184/729
f 727/182/727 729/184/729 730/185/730
usemtl tex_52_lit_sec_ds
f 731/9/731 732/44/732 733/110/733
f 731/9/731 733/110/733 734/109/734
f 735/9/735 736/44/736 737/110/737
f 735/9/735 737/110/737 738/109/738
usemtl tex_787_lit_sec_ds_w11_ovl
f 739/186/739 740/187/740 741/188/741
f 739/186/739 741/188/741 742/189/742
f 743/186/743 744/187/744 745/188/745
f 743/186/743 745/188/745 746/189/746
