mtllib PartictrailerZ.mtl
v 1118.0 -1601.0 -2557.0 1.000 1.000 1.000
v 1118.0 -1363.0 -2795.0 1.000 1.000 1.000
v 1118.0 -1363.0 -1983.0 1.000 1.000 1.000
v 1117.0 -1601.0 -2220.0 1.000 1.000 1.000
v 1118.0 -1026.0 -2795.0 1.000 1.000 1.000
v 1118.0 -1026.0 -1983.0 1.000 1.000 1.000
v 1118.0 -789.0 -2557.0 1.000 1.000 1.000
v 1118.0 -789.0 -2221.0 1.000 1.000 1.000
v -1118.0 -1026.0 -1983.0 1.000 1.000 1.000
v -1118.0 -1026.0 -2795.0 1.000 1.000 1.000
v -1118.0 -1363.0 -2795.0 1.000 1.000 1.000
v -1118.0 -1363.0 -1983.0 1.000 1.000 1.000
v -1118.0 -789.0 -2221.0 1.000 1.000 1.000
v -1118.0 -789.0 -2557.0 1.000 1.000 1.000
v -1118.0 -1601.0 -2558.0 1.000 1.000 1.000
v -1118.0 -1601.0 -2221.0 1.000 1.000 1.000
v 508.0 -1026.0 -1983.0 1.000 1.000 1.000
v 508.0 -789.0 -2220.0 1.000 1.000 1.000
v 508.0 -789.0 -2557.0 1.000 1.000 1.000
v 508.0 -1026.0 -2795.0 1.000 1.000 1.000
v 508.0 -1363.0 -1983.0 1.000 1.000 1.000
v 508.0 -1363.0 -2795.0 1.000 1.000 1.000
v 508.0 -1601.0 -2558.0 1.000 1.000 1.000
v 508.0 -1601.0 -2221.0 1.000 1.000 1.000
v -508.0 -1363.0 -2795.0 1.000 1.000 1.000
v -508.0 -1026.0 -2795.0 1.000 1.000 1.000
v -508.0 -1026.0 -1983.0 1.000 1.000 1.000
v -508.0 -1363.0 -1983.0 1.000 1.000 1.000
v -508.0 -1601.0 -2220.0 1.000 1.000 1.000
v -508.0 -1601.0 -2557.0 1.000 1.000 1.000
v -508.0 -789.0 -2558.0 1.000 1.000 1.000
v -508.0 -789.0 -2221.0 1.000 1.000 1.000
v 457.0 -686.0 1372.0 1.000 1.000 1.000
v 457.0 -686.0 1169.0 1.000 1.000 1.000
v 457.0 -1449.0 1169.0 1.000 1.000 1.000
v 457.0 -1449.0 1372.0 1.000 1.000 1.000
v -457.0 -1449.0 1372.0 1.000 1.000 1.000
v -457.0 -1449.0 1169.0 1.000 1.000 1.000
v -457.0 -686.0 1169.0 1.000 1.000 1.000
v -457.0 -686.0 1372.0 1.000 1.000 1.000
v 457.0 -1449.0 1372.0 1.000 1.000 1.000
v 610.0 -1449.0 1372.0 1.000 1.000 1.000
v 610.0 -686.0 1372.0 1.000 1.000 1.000
v 457.0 -686.0 1372.0 1.000 1.000 1.000
v 457.0 -686.0 1169.0 1.000 1.000 1.000
v 610.0 -686.0 1169.0 1.000 1.000 1.000
v 610.0 -1449.0 1169.0 1.000 1.000 1.000
v 457.0 -1449.0 1169.0 1.000 1.000 1.000
v -610.0 -686.0 1372.0 1.000 1.000 1.000
v -610.0 -686.0 1169.0 1.000 1.000 1.000
v -610.0 -1449.0 1169.0 1.000 1.000 1.000
v -610.0 -1449.0 1372.0 1.000 1.000 1.000
v -610.0 -686.0 1169.0 1.000 1.000 1.000
v -457.0 -686.0 1169.0 1.000 1.000 1.000
v -457.0 -1449.0 1169.0 1.000 1.000 1.000
v -610.0 -1449.0 1169.0 1.000 1.000 1.000
v 610.0 -1601.0 1474.0 1.000 1.000 1.000
v 610.0 -1601.0 1067.0 1.000 1.000 1.000
v 610.0 -1449.0 1169.0 1.000 1.000 1.000
v 610.0 -1449.0 1372.0 1.000 1.000 1.000
v -610.0 -1449.0 1372.0 1.000 1.000 1.000
v -610.0 -1449.0 1169.0 1.000 1.000 1.000
v -610.0 -1601.0 1067.0 1.000 1.000 1.000
v -610.0 -1601.0 1474.0 1.000 1.000 1.000
v 457.0 -1601.0 1474.0 1.000 1.000 1.000
v 610.0 -1601.0 1474.0 1.000 1.000 1.000
v 610.0 -1449.0 1372.0 1.000 1.000 1.000
v 457.0 -1449.0 1372.0 1.000 1.000 1.000
v -457.0 -1601.0 1474.0 1.000 1.000 1.000
v -457.0 -1601.0 1067.0 1.000 1.000 1.000
v -457.0 -1449.0 1169.0 1.000 1.000 1.000
v -457.0 -1449.0 1372.0 1.000 1.000 1.000
v -610.0 -1449.0 1372.0 1.000 1.000 1.000
v -457.0 -1449.0 1372.0 1.000 1.000 1.000
v -457.0 -686.0 1372.0 1.000 1.000 1.000
v -610.0 -686.0 1372.0 1.000 1.000 1.000
v -610.0 -1601.0 1474.0 1.000 1.000 1.000
v -457.0 -1601.0 1474.0 1.000 1.000 1.000
v -457.0 -1449.0 1372.0 1.000 1.000 1.000
v -610.0 -1449.0 1372.0 1.000 1.000 1.000
v 457.0 -1449.0 1169.0 1.000 1.000 1.000
v 610.0 -1449.0 1169.0 1.000 1.000 1.000
v 610.0 -1601.0 1067.0 1.000 1.000 1.000
v 457.0 -1601.0 1067.0 1.000 1.000 1.000
v 457.0 -1449.0 1372.0 1.000 1.000 1.000
v 457.0 -1449.0 1169.0 1.000 1.000 1.000
v 457.0 -1601.0 1067.0 1.000 1.000 1.000
v 457.0 -1601.0 1474.0 1.000 1.000 1.000
v -610.0 -1449.0 1169.0 1.000 1.000 1.000
v -457.0 -1449.0 1169.0 1.000 1.000 1.000
v -457.0 -1601.0 1067.0 1.000 1.000 1.000
v -610.0 -1601.0 1067.0 1.000 1.000 1.000
v 610.0 -1449.0 1372.0 1.000 1.000 1.000
v 610.0 -1449.0 1169.0 1.000 1.000 1.000
v 610.0 -686.0 1169.0 1.000 1.000 1.000
v 610.0 -686.0 1372.0 1.000 1.000 1.000
v -661.0 -381.0 -3152.0 1.000 1.000 1.000
v -661.0 -686.0 -3152.0 1.000 1.000 1.000
v -661.0 -686.0 3355.0 1.000 1.000 1.000
v -661.0 -381.0 3507.0 1.000 1.000 1.000
v 661.0 -381.0 3507.0 1.000 1.000 1.000
v 661.0 -686.0 3355.0 1.000 1.000 1.000
v 661.0 -686.0 -3152.0 1.000 1.000 1.000
v 661.0 -381.0 -3152.0 1.000 1.000 1.000
v -661.0 -381.0 -3152.0 1.000 1.000 1.000
v 661.0 -381.0 -3152.0 1.000 1.000 1.000
v 661.0 -686.0 -3152.0 1.000 1.000 1.000
v -661.0 -686.0 -3152.0 1.000 1.000 1.000
v -661.0 -686.0 3355.0 1.000 1.000 1.000
v 661.0 -686.0 3355.0 1.000 1.000 1.000
v 661.0 -381.0 3507.0 1.000 1.000 1.000
v -661.0 -381.0 3507.0 1.000 1.000 1.000
v 508.0 -789.0 -2557.0 1.000 1.000 1.000
v 1117.0 -789.0 -2558.0 1.000 1.000 1.000
v 1118.0 -1026.0 -2795.0 1.000 1.000 1.000
v 508.0 -1026.0 -2795.0 1.000 1.000 1.000
v 1118.0 -1363.0 -2795.0 1.000 1.000 1.000
v 1118.0 -1601.0 -2557.0 1.000 1.000 1.000
v 508.0 -1601.0 -2558.0 1.000 1.000 1.000
v 508.0 -1026.0 -1983.0 1.000 1.000 1.000
v 508.0 -1363.0 -1983.0 1.000 1.000 1.000
v 1118.0 -1363.0 -1983.0 1.000 1.000 1.000
v 1118.0 -1363.0 -2795.0 1.000 1.000 1.000
v 508.0 -1026.0 -2795.0 1.000 1.000 1.000
v 1118.0 -1026.0 -2795.0 1.000 1.000 1.000
v 1118.0 -1026.0 -1983.0 1.000 1.000 1.000
v 508.0 -1363.0 -2795.0 1.000 1.000 1.000
v 508.0 -1601.0 -2221.0 1.000 1.000 1.000
v 1118.0 -1363.0 -1983.0 1.000 1.000 1.000
v 508.0 -1363.0 -1983.0 1.000 1.000 1.000
v 1117.0 -1601.0 -2220.0 1.000 1.000 1.000
v 508.0 -1026.0 -1983.0 1.000 1.000 1.000
v 1118.0 -1026.0 -1983.0 1.000 1.000 1.000
v 508.0 -789.0 -2220.0 1.000 1.000 1.000
v 1118.0 -1363.0 -2795.0 1.000 1.000 1.000
v 508.0 -1363.0 -2795.0 1.000 1.000 1.000
v 508.0 -1026.0 -2795.0 1.000 1.000 1.000
v 1118.0 -789.0 -2221.0 1.000 1.000 1.000
v 1118.0 -789.0 -2557.0 1.000 1.000 1.000
v 508.0 -789.0 -2557.0 1.000 1.000 1.000
v 508.0 -789.0 -2220.0 1.000 1.000 1.000
v 1118.0 -789.0 -2221.0 1.000 1.000 1.000
v -1118.0 -1026.0 -2795.0 1.000 1.000 1.000
v -1118.0 -789.0 -2557.0 1.000 1.000 1.000
v -508.0 -789.0 -2558.0 1.000 1.000 1.000
v -508.0 -789.0 -2221.0 1.000 1.000 1.000
v -1118.0 -789.0 -2220.0 1.000 1.000 1.000
v -1118.0 -1026.0 -1983.0 1.000 1.000 1.000
v -508.0 -1026.0 -1983.0 1.000 1.000 1.000
v -1118.0 -1363.0 -1983.0 1.000 1.000 1.000
v -1118.0 -1601.0 -2221.0 1.000 1.000 1.000
v -508.0 -1601.0 -2220.0 1.000 1.000 1.000
v -508.0 -1026.0 -2795.0 1.000 1.000 1.000
v -508.0 -1363.0 -2795.0 1.000 1.000 1.000
v -1118.0 -1363.0 -2795.0 1.000 1.000 1.000
v -1118.0 -1363.0 -1983.0 1.000 1.000 1.000
v -508.0 -1026.0 -1983.0 1.000 1.000 1.000
v -1118.0 -1026.0 -1983.0 1.000 1.000 1.000
v -508.0 -1601.0 -2557.0 1.000 1.000 1.000
v -1118.0 -1363.0 -2795.0 1.000 1.000 1.000
v -508.0 -1363.0 -2795.0 1.000 1.000 1.000
v -508.0 -1363.0 -1983.0 1.000 1.000 1.000
v -1118.0 -1363.0 -1983.0 1.000 1.000 1.000
v -508.0 -1601.0 -2220.0 1.000 1.000 1.000
v -1118.0 -1026.0 -2795.0 1.000 1.000 1.000
v -508.0 -1026.0 -2795.0 1.000 1.000 1.000
v -1118.0 -1363.0 -2795.0 1.000 1.000 1.000
v -1118.0 -1601.0 -2558.0 1.000 1.000 1.000
v -1118.0 -1363.0 -1983.0 1.000 1.000 1.000
v -508.0 -1363.0 -1983.0 1.000 1.000 1.000
v -508.0 -1026.0 -1983.0 1.000 1.000 1.000
v -508.0 -1026.0 -2795.0 1.000 1.000 1.000
v -1118.0 -1026.0 -2795.0 1.000 1.000 1.000
v -508.0 -789.0 -2558.0 1.000 1.000 1.000
v -508.0 -789.0 -2558.0 1.000 1.000 1.000
v -1118.0 -789.0 -2557.0 1.000 1.000 1.000
v -508.0 -789.0 -2221.0 1.000 1.000 1.000
v -1118.0 -789.0 -2221.0 1.000 1.000 1.000
v 0.0 1601.0 -3507.0 1.000 1.000 1.000
v 1118.0 1601.0 -3507.0 1.000 1.000 1.000
v 1118.0 -381.0 -3507.0 1.000 1.000 1.000
v 0.0 -381.0 -3507.0 1.000 1.000 1.000
v -1118.0 1601.0 -3507.0 1.000 1.000 1.000
v 0.0 1601.0 -3507.0 1.000 1.000 1.000
v 0.0 -381.0 -3507.0 1.000 1.000 1.000
v -1118.0 -381.0 -3507.0 1.000 1.000 1.000
v -356.0 -1195.0 -1982.0 1.000 1.000 1.000
v 356.0 -1195.0 -1982.0 1.000 1.000 1.000
v 356.0 -686.0 -1423.0 1.000 1.000 1.000
v -356.0 -686.0 -1423.0 1.000 1.000 1.000
v -356.0 -686.0 -2897.0 1.000 1.000 1.000
v 356.0 -686.0 -2897.0 1.000 1.000 1.000
v 356.0 -1195.0 -2796.0 1.000 1.000 1.000
v -356.0 -1195.0 -2796.0 1.000 1.000 1.000
v -1118.0 -381.0 -3507.0 1.000 1.000 1.000
v -1118.0 -381.0 3507.0 1.000 1.000 1.000
v -1118.0 1601.0 3507.0 1.000 1.000 1.000
v -1118.0 1601.0 -3507.0 1.000 1.000 1.000
v -1118.0 -381.0 3507.0 1.000 1.000 1.000
v 1118.0 -381.0 3507.0 1.000 1.000 1.000
v 1118.0 1601.0 3507.0 1.000 1.000 1.000
v -1118.0 1601.0 3507.0 1.000 1.000 1.000
v 1118.0 1601.0 -3507.0 1.000 1.000 1.000
v 1118.0 1601.0 3507.0 1.000 1.000 1.000
v 1118.0 -381.0 3507.0 1.000 1.000 1.000
v 1118.0 -381.0 -3507.0 1.000 1.000 1.000
v 1118.0 -381.0 3507.0 1.000 1.000 1.000
v -1118.0 -381.0 3507.0 1.000 1.000 1.000
v -1118.0 -381.0 -3507.0 1.000 1.000 1.000
v 1118.0 -381.0 -3507.0 1.000 1.000 1.000
v 1118.0 1601.0 -3507.0 1.000 1.000 1.000
v -1118.0 1601.0 -3507.0 1.000 1.000 1.000
v -1118.0 1601.0 3507.0 1.000 1.000 1.000
v 1118.0 1601.0 3507.0 1.000 1.000 1.000
v 508.0 -1093.0 -2389.0 1.000 1.000 1.000
v 508.0 -1296.0 -2389.0 1.000 1.000 1.000
v -508.0 -1296.0 -2389.0 1.000 1.000 1.000
v -508.0 -1093.0 -2389.0 1.000 1.000 1.000
v -356.0 -686.0 -2897.0 1.000 1.000 1.000
v -356.0 -1195.0 -2796.0 1.000 1.000 1.000
v -356.0 -1195.0 -1982.0 1.000 1.000 1.000
v -356.0 -686.0 -1423.0 1.000 1.000 1.000
v 356.0 -686.0 -1423.0 1.000 1.000 1.000
v 356.0 -1195.0 -1982.0 1.000 1.000 1.000
v 356.0 -1195.0 -2796.0 1.000 1.000 1.000
v 356.0 -686.0 -2897.0 1.000 1.000 1.000
vt 0.7002 0.9961
vt 0.9854 0.7109
vt 0.0107 0.7109
vt 0.2959 0.9961
vt 0.9854 0.3066
vt 0.0107 0.3066
vt 0.7002 0.0215
vt 0.2959 0.0215
vt 0.0166 0.3066
vt 0.9834 0.3066
vt 0.9834 0.7090
vt 0.0166 0.7090
vt 0.2998 0.0225
vt 0.7002 0.0225
vt 0.7012 0.9932
vt 0.2998 0.9932
vt 0.9893 0.2891
vt 0.7031 -0.0029
vt 0.2979 -0.0029
vt 0.0107 0.2891
vt 0.9893 0.7031
vt 0.0107 0.7031
vt 0.2969 0.9961
vt 0.7021 0.9961
vt 0.0049 0.7061
vt 0.0059 0.3047
vt 0.9844 0.3047
vt 0.9834 0.7061
vt 0.6963 0.9902
vt 0.2910 0.9902
vt 0.2930 0.0205
vt 0.6982 0.0205
vt 1.5244 1.6621
vt -0.0088 1.6621
vt -0.0088 0.0059
vt 1.5244 0.0059
vt 1.5723 0.0010
vt -0.0098 0.0010
vt -0.0098 1.6729
vt 1.5723 1.6729
vt 0.5068 0.9971
vt 0.0029 0.9971
vt 0.0029 0.2051
vt 0.5068 0.2051
vt -0.0020 0.2139
vt 0.4951 0.2139
vt 0.5000 0.9990
vt 0.0029 0.9990
vt 1.3916 1.6670
vt 0.0059 1.6611
vt 0.0059 -0.0029
vt 1.3916 0.0029
vt -0.0029 0.1465
vt 0.4971 0.1465
vt 0.4971 0.9990
vt -0.0029 0.9990
vt 0.0000 0.2432
vt 0.0000 1.0020
vt 0.5947 0.8135
vt 0.5947 0.4346
vt 1.5957 0.4180
vt 1.5957 0.8125
vt 1.0029 1.0078
vt 1.0029 0.2178
vt 0.4990 0.6973
vt 0.0029 0.6963
vt -0.0020 0.9990
vt 0.4941 0.9990
vt 0.9951 1.0000
vt 0.9961 0.1768
vt 1.5713 0.3818
vt 1.5703 0.7939
vt 0.5000 1.0000
vt -0.0039 1.0000
vt 0.0020 0.1416
vt 0.5059 0.1416
vt 0.5068 0.6025
vt 0.0059 0.6104
vt 0.0059 1.0088
vt 0.5059 1.0020
vt -0.0020 0.7852
vt 0.5400 0.7852
vt 0.5352 0.9922
vt -0.0068 0.9922
vt 1.5898 0.7656
vt 1.5928 0.3438
vt 1.0020 0.1240
vt 0.9961 0.9678
vt -0.0127 0.7812
vt 0.4707 0.7822
vt 0.4814 1.0020
vt -0.0020 1.0010
vt 1.5801 1.0000
vt -0.0234 1.0029
vt -0.0234 2.6221
vt 1.5801 2.6191
vt 0.0000 1.0000
vt 1.0000 1.0000
vt 1.0000 -0.1855
vt 0.0000 -0.2129
vt 0.0000 -0.0371
vt 0.0000 0.4443
vt 1.0000 0.4443
vt 1.0000 -0.0371
vt 1.0000 0.5361
vt -0.0010 1.0000
vt -0.0010 0.5361
vt 1.9932 0.9023
vt 0.0117 0.9014
vt 0.0068 0.1016
vt 1.9932 0.1016
vt 0.0000 0.8906
vt 0.0000 0.0654
vt 2.0000 0.0664
vt 2.0000 0.0967
vt 2.0000 0.8906
vt 0.0010 0.1035
vt 1.9990 0.8877
vt 0.0010 0.8877
vt 0.0000 0.0967
vt 2.0000 0.9111
vt 0.0000 0.0762
vt 2.0000 0.0762
vt 0.0059 0.9102
vt 2.0000 0.8770
vt 0.0000 0.8770
vt 2.0000 0.0781
vt 1.9990 0.1035
vt 0.0020 0.9053
vt 0.0020 0.0752
vt 1.9980 0.0752
vt 1.9980 0.9072
vt -0.0117 0.0938
vt -0.0068 0.8936
vt 2.0059 0.8926
vt 2.0000 0.0957
vt 0.0020 0.0967
vt 0.0000 0.9170
vt 2.0000 0.9170
vt -0.0059 0.0215
vt -0.0059 0.9941
vt 2.0059 0.9932
vt 2.0000 0.9131
vt 2.0000 0.0596
vt 0.0000 0.0596
vt 0.0000 0.9355
vt 0.0000 0.0781
vt 2.0000 0.0947
vt 0.0000 0.9053
vt 2.0000 0.9053
vt 2.0059 0.0215
vt 0.0000 0.9131
vt 0.0020 0.0957
vt 2.0000 0.9355
vt 2.0010 0.0938
vt 1.9971 0.0645
vt 0.0029 0.0664
vt 1.9971 0.9043
vt 0.0029 0.9043
vt 1.0020 -1.0615
vt -0.0078 -1.0605
vt 0.0029 1.0498
vt 1.0127 1.0488
vt -0.0078 -1.0566
vt 0.9971 -1.0557
vt 0.9971 1.0557
vt -0.0078 1.0557
vt 0.0039 1.0010
vt 0.9961 1.0010
vt 0.9980 0.0010
vt 0.0068 0.0010
vt 1.0000 0.0010
vt 0.0029 0.0010
vt 0.0020 0.9980
vt 0.9980 0.9980
vt 2.0527 1.0498
vt -0.7305 1.0498
vt -0.7354 -0.0322
vt 2.0479 -0.0322
vt -0.0273 0.9414
vt 0.9932 0.9414
vt 0.9932 0.0000
vt -0.0273 0.0000
vt 1.6895 -0.0508
vt -0.9805 -0.0508
vt -0.9805 1.0322
vt 1.6895 1.0322
vt 0.9990 0.0059
vt 0.9990 0.9941
vt 0.0000 0.0127
vt 0.9668 0.0371
vt 0.9053 0.9922
vt 0.3945 0.9922
vt 0.0410 0.0371
vt 0.0547 0.0078
vt 0.3994 0.9971
vt 0.9072 0.9932
vt 0.9746 0.0000
vn 1.000 -0.002 0.001
vn 1.000 0.000 0.000
vn 1.000 -0.001 0.000
vn 1.000 -0.007 0.003
vn 1.000 0.000 0.000
vn 1.000 0.000 0.000
vn 1.000 0.000 0.000
vn 1.000 0.000 0.000
vn -1.000 0.000 0.000
vn -1.000 0.000 0.000
vn -1.000 0.000 0.000
vn -1.000 0.000 0.000
vn -1.000 0.000 0.000
vn -1.000 0.000 0.000
vn -1.000 0.000 0.000
vn -1.000 0.000 0.000
vn -1.000 0.000 0.000
vn -1.000 0.000 0.000
vn -1.000 0.000 0.000
vn -1.000 0.000 0.000
vn -1.000 0.000 0.000
vn -1.000 0.000 0.000
vn -1.000 0.000 0.000
vn -1.000 0.000 0.000
vn 1.000 0.000 0.000
vn 1.000 0.000 0.000
vn 1.000 0.000 0.000
vn 1.000 0.000 0.000
vn 1.000 0.000 0.000
vn 1.000 0.000 0.000
vn 1.000 0.000 0.000
vn 1.000 0.000 0.000
vn -1.000 0.000 0.000
vn -1.000 0.000 0.000
vn -1.000 0.000 0.000
vn -1.000 0.000 0.000
vn 1.000 0.000 0.000
vn 1.000 0.000 0.000
vn 1.000 0.000 0.000
vn 1.000 0.000 0.000
vn 0.000 0.000 1.000
vn 0.000 0.000 1.000
vn 0.000 0.000 1.000
vn 0.000 0.000 1.000
vn 0.000 0.000 -1.000
vn 0.000 0.000 -1.000
vn 0.000 0.000 -1.000
vn 0.000 0.000 -1.000
vn -1.000 0.000 0.000
vn -1.000 0.000 0.000
vn -1.000 0.000 0.000
vn -1.000 0.000 0.000
vn 0.000 0.000 -1.000
vn 0.000 0.000 -1.000
vn 0.000 0.000 -1.000
vn 0.000 0.000 -1.000
vn 1.000 0.000 0.000
vn 1.000 0.000 0.000
vn 1.000 0.000 0.000
vn 1.000 0.000 0.000
vn -1.000 0.000 0.000
vn -1.000 0.000 0.000
vn -1.000 0.000 0.000
vn -1.000 0.000 0.000
vn 0.000 0.557 0.830
vn 0.000 0.557 0.830
vn 0.000 0.557 0.830
vn 0.000 0.557 0.830
vn 1.000 0.000 0.000
vn 1.000 0.000 0.000
vn 1.000 0.000 0.000
vn 1.000 0.000 0.000
vn 0.000 0.000 1.000
vn 0.000 0.000 1.000
vn 0.000 0.000 1.000
vn 0.000 0.000 1.000
vn 0.000 0.557 0.830
vn 0.000 0.557 0.830
vn 0.000 0.557 0.830
vn 0.000 0.557 0.830
vn 0.000 0.557 -0.830
vn 0.000 0.557 -0.830
vn 0.000 0.557 -0.830
vn 0.000 0.557 -0.830
vn -1.000 0.000 0.000
vn -1.000 0.000 0.000
vn -1.000 0.000 0.000
vn -1.000 0.000 0.000
vn 0.000 0.557 -0.830
vn 0.000 0.557 -0.830
vn 0.000 0.557 -0.830
vn 0.000 0.557 -0.830
vn 1.000 0.000 0.000
vn 1.000 0.000 0.000
vn 1.000 0.000 0.000
vn 1.000 0.000 0.000
vn -1.000 0.000 0.000
vn -1.000 0.000 0.000
vn -1.000 0.000 0.000
vn -1.000 0.000 0.000
vn 1.000 0.000 0.000
vn 1.000 0.000 0.000
vn 1.000 0.000 0.000
vn 1.000 0.000 0.000
vn 0.000 0.000 -1.000
vn 0.000 0.000 -1.000
vn 0.000 0.000 -1.000
vn 0.000 0.000 -1.000
vn 0.000 -0.446 0.895
vn 0.000 -0.446 0.895
vn 0.000 -0.446 0.895
vn 0.000 -0.446 0.895
vn -0.001 0.708 -0.706
vn -0.001 0.707 -0.707
vn -0.001 0.708 -0.706
vn 0.000 0.709 -0.706
vn 0.001 -0.706 -0.708
vn 0.001 -0.707 -0.707
vn 0.001 -0.706 -0.708
vn 0.000 0.000 1.000
vn 0.000 0.000 1.000
vn 0.000 0.000 1.000
vn 0.000 0.000 -1.000
vn 0.000 0.000 -1.000
vn 0.000 0.000 -1.000
vn 0.000 0.000 1.000
vn 0.000 -0.706 -0.709
vn -0.001 -0.706 0.708
vn -0.001 -0.706 0.708
vn 0.000 -0.707 0.707
vn -0.001 -0.706 0.709
vn 0.000 0.707 0.707
vn 0.001 0.708 0.706
vn 0.001 0.708 0.706
vn 0.000 0.000 -1.000
vn 0.000 0.000 -1.000
vn 0.000 0.000 -1.000
vn 0.000 1.000 0.000
vn 0.000 1.000 0.000
vn 0.000 1.000 0.000
vn 0.000 1.000 0.000
vn 0.001 0.709 0.706
vn -0.001 0.709 -0.706
vn -0.001 0.709 -0.706
vn -0.001 0.709 -0.706
vn 0.001 0.708 0.706
vn 0.001 0.707 0.707
vn 0.001 0.708 0.706
vn 0.000 0.709 0.706
vn -0.001 -0.707 0.707
vn -0.001 -0.707 0.707
vn -0.001 -0.707 0.707
vn 0.000 0.000 -1.000
vn 0.000 0.000 -1.000
vn 0.000 0.000 -1.000
vn 0.000 0.000 1.000
vn 0.000 0.000 1.000
vn 0.000 0.000 1.000
vn 0.001 -0.706 -0.708
vn 0.001 -0.706 -0.708
vn 0.000 -0.707 -0.707
vn 0.000 -0.706 0.709
vn 0.000 -0.706 0.709
vn 0.000 -0.706 0.709
vn 0.000 0.000 -1.000
vn 0.000 0.000 -1.000
vn 0.000 0.000 -1.000
vn 0.001 -0.706 -0.709
vn 0.000 0.000 1.000
vn 0.000 0.000 1.000
vn 0.000 0.000 1.000
vn 0.000 0.707 -0.707
vn 0.000 0.707 -0.707
vn 0.000 0.707 -0.707
vn 0.000 1.000 0.000
vn 0.000 1.000 0.000
vn 0.000 1.000 0.000
vn 0.000 1.000 0.000
vn 0.000 0.000 -1.000
vn 0.000 0.000 -1.000
vn 0.000 0.000 -1.000
vn 0.000 0.000 -1.000
vn 0.000 0.000 -1.000
vn 0.000 0.000 -1.000
vn 0.000 0.000 -1.000
vn 0.000 0.000 -1.000
vn 0.000 -0.739 0.673
vn 0.000 -0.739 0.673
vn 0.000 -0.739 0.673
vn 0.000 -0.739 0.673
vn 0.000 -0.195 -0.981
vn 0.000 -0.195 -0.981
vn 0.000 -0.195 -0.981
vn 0.000 -0.195 -0.981
vn -1.000 0.000 0.000
vn -1.000 0.000 0.000
vn -1.000 0.000 0.000
vn -1.000 0.000 0.000
vn 0.000 0.000 1.000
vn 0.000 0.000 1.000
vn 0.000 0.000 1.000
vn 0.000 0.000 1.000
vn 1.000 0.000 0.000
vn 1.000 0.000 0.000
vn 1.000 0.000 0.000
vn 1.000 0.000 0.000
vn 0.000 -1.000 0.000
vn 0.000 -1.000 0.000
vn 0.000 -1.000 0.000
vn 0.000 -1.000 0.000
vn 0.000 1.000 0.000
vn 0.000 1.000 0.000
vn 0.000 1.000 0.000
vn 0.000 1.000 0.000
vn 0.000 0.000 -1.000
vn 0.000 0.000 -1.000
vn 0.000 0.000 -1.000
vn 0.000 0.000 -1.000
vn -1.000 0.000 0.000
vn -1.000 0.000 0.000
vn -1.000 0.000 0.000
vn -1.000 0.000 0.000
vn 1.000 0.000 0.000
vn 1.000 0.000 0.000
vn 1.000 0.000 0.000
vn 1.000 0.000 0.000
usemtl tex_68_lit
f 1/1/1 2/2/2 3/3/3
f 1/1/1 3/3/3 4/4/4
f 2/2/2 5/5/5 6/6/6
f 2/2/2 6/6/6 3/3/3
f 5/5/5 7/7/7 8/8/8
f 5/5/5 8/8/8 6/6/6
f 9/9/9 10/10/10 11/11/11
f 9/9/9 11/11/11 12/12/12
f 10/10/10 9/9/9 13/13/13
f 10/10/10 13/13/13 14/14/14
f 12/12/12 11/11/11 15/15/15
f 12/12/12 15/15/15 16/16/16
usemtl tex_69_lit
f 17/17/17 18/18/18 19/19/19
f 17/17/17 19/19/19 20/20/20
f 21/21/21 17/17/17 20/20/20
f 21/21/21 20/20/20 22/22/22
f 21/21/21 22/22/22 23/23/23
f 21/21/21 23/23/23 24/24/24
f 25/25/25 26/26/26 27/27/27
f 25/25/25 27/27/27 28/28/28
f 25/25/25 28/28/28 29/29/29
f 25/25/25 29/29/29 30/30/30
f 26/26/26 31/31/31 32/32/32
f 26/26/26 32/32/32 27/27/27
usemtl tex_1163_lit
f 33/33/33 34/34/34 35/35/35
f 33/33/33 35/35/35 36/36/36
f 37/37/37 38/38/38 39/39/39
f 37/37/37 39/39/39 40/40/40
f 41/41/41 42/42/42 43/43/43
f 41/41/41 43/43/43 44/44/44
f 45/45/45 46/46/46 47/47/47
f 45/45/45 47/47/47 48/48/48
f 49/49/49 50/50/50 51/51/51
f 49/49/49 51/51/51 52/52/52
f 53/53/53 54/54/54 55/55/55
f 53/53/53 55/55/55 56/56/56
f 57/57/57 58/58/58 59/59/59
f 57/57/57 59/59/59 60/60/60
f 61/61/61 62/62/62 63/63/63
f 61/61/61 63/63/63 64/64/64
f 65/65/65 66/66/66 67/67/67
f 65/65/65 67/67/67 68/68/68
f 69/69/69 70/70/70 71/71/71
f 69/69/69 71/71/71 72/72/72
f 73/73/73 74/74/74 75/75/75
f 73/73/73 75/75/75 76/76/76
f 77/77/77 78/78/78 79/79/79
f 77/77/77 79/79/79 80/80/80
f 81/81/81 82/82/82 83/83/83
f 81/81/81 83/83/83 84/84/84
f 85/85/85 86/86/86 87/87/87
f 85/85/85 87/87/87 88/88/88
f 89/89/89 90/90/90 91/91/91
f 89/89/89 91/91/91 92/92/92
f 93/93/93 94/94/94 95/95/95
f 93/93/93 95/95/95 96/96/96
usemtl tex_1368_lit
f 97/97/97 98/98/98 99/99/99
f 97/97/97 99/99/99 100/100/100
f 101/100/101 102/99/102 103/98/103
f 101/100/101 103/98/103 104/97/104
f 105/101/105 106/102/106 107/103/107
f 105/101/105 107/103/107 108/104/108
f 109/105/109 110/98/110 111/106/111
f 109/105/109 111/106/111 112/107/112
usemtl tex_1447_lit
f 113/108/113 114/109/114 115/110/115
f 113/108/113 115/110/115 116/111/116
f 117/112/117 118/113/118 119/114/119
f 120/115/120 121/116/121 122/112/122
f 123/117/123 124/118/124 125/119/125
f 126/120/126 120/115/120 122/112/122
f 127/116/127 117/112/117 119/114/119
f 128/121/128 129/122/129 130/123/130
f 128/121/128 131/124/131 129/122/129
f 132/125/132 133/126/133 134/127/134
f 135/117/135 136/128/136 137/118/137
f 138/129/138 139/130/139 140/131/140
f 141/132/141 138/129/138 140/131/140
f 133/126/133 142/122/142 134/127/134
f 143/133/143 144/134/144 145/135/145
f 146/136/146 147/137/147 148/138/148
f 146/136/146 148/138/148 149/139/149
f 150/140/150 151/141/151 152/142/152
f 153/143/153 154/144/154 155/145/155
f 156/146/156 157/127/157 158/147/158
f 159/148/159 160/149/160 161/150/161
f 162/151/162 163/140/163 164/142/164
f 165/152/165 166/143/166 167/145/167
f 159/148/159 168/153/168 160/149/160
f 169/146/169 170/154/170 171/127/171
f 172/155/172 173/133/173 174/135/174
f 175/156/175 176/157/176 177/158/177
f 176/157/176 178/159/178 177/158/177
usemtl tex_66_lit
f 179/160/179 180/161/180 181/162/181
f 179/160/179 181/162/181 182/163/182
f 183/164/183 184/165/184 185/166/185
f 183/164/183 185/166/185 186/167/186
usemtl tex_64_lit
f 187/168/187 188/169/188 189/170/189
f 187/168/187 189/170/189 190/171/190
f 191/172/191 192/173/192 193/174/193
f 191/172/191 193/174/193 194/175/194
usemtl tex_71_lit_ovl
f 195/176/195 196/177/196 197/178/197
f 195/176/195 197/178/197 198/179/198
usemtl tex_71_lit
f 199/180/199 200/181/200 201/182/201
f 199/180/199 201/182/201 202/183/202
usemtl tex_71_lit_ovl
f 203/184/203 204/185/204 205/186/205
f 203/184/203 205/186/205 206/187/206
usemtl tex_1514_lit_ds
f 207/97/207 208/97/208 209/97/209
f 207/97/207 209/97/209 210/97/210
usemtl tex_1514_lit
f 211/97/211 212/97/212 213/97/213
f 211/97/211 213/97/213 214/97/214
usemtl tex_60_lit_sec_ds
f 215/188/215 216/189/216 217/97/217
f 215/188/215 217/97/217 218/190/218
usemtl tex_65_lit_sec
f 219/191/219 220/192/220 221/193/221
f 219/191/219 221/193/221 222/194/222
f 223/195/223 224/196/224 225/197/225
f 223/195/223 225/197/225 226/198/226
