mtllib PcarzilZ.mtl
v -343.1708984375 -34.51544189453125 -474.5197448730469 1.000 1.000 1.000
v -343.1708984375 11.48455810546875 -410.5197448730469 1.000 1.000 1.000
v -251.1708984375 11.48455810546875 -410.5197448730469 1.000 1.000 1.000
v -251.1708984375 -34.51544189453125 -474.5197448730469 1.000 1.000 1.000
v -343.1708984375 -109.51544189453125 -498.5197448730469 1.000 1.000 1.000
v -343.1708984375 -34.51544189453125 -474.5197448730469 1.000 1.000 1.000
v -251.1708984375 -34.51544189453125 -474.5197448730469 1.000 1.000 1.000
v -251.1708984375 -109.51544189453125 -498.5197448730469 1.000 1.000 1.000
v -343.1708984375 -184.51544189453125 -474.5197448730469 1.000 1.000 1.000
v -343.1708984375 -109.51544189453125 -498.5197448730469 1.000 1.000 1.000
v -251.1708984375 -109.51544189453125 -498.5197448730469 1.000 1.000 1.000
v -251.1708984375 -184.51544189453125 -474.5197448730469 1.000 1.000 1.000
v -343.1708984375 -230.51544189453125 -410.5197448730469 1.000 1.000 1.000
v -343.1708984375 -184.51544189453125 -474.5197448730469 1.000 1.000 1.000
v -251.1708984375 -184.51544189453125 -474.5197448730469 1.000 1.000 1.000
v -251.1708984375 -230.51544189453125 -410.5197448730469 1.000 1.000 1.000
v -343.1708984375 -230.51544189453125 -332.5197448730469 1.000 1.000 1.000
v -343.1708984375 -230.51544189453125 -410.5197448730469 1.000 1.000 1.000
v -251.1708984375 -230.51544189453125 -410.5197448730469 1.000 1.000 1.000
v -251.1708984375 -230.51544189453125 -332.5197448730469 1.000 1.000 1.000
v -343.1708984375 -184.51544189453125 -268.5197448730469 1.000 1.000 1.000
v -343.1708984375 -230.51544189453125 -332.5197448730469 1.000 1.000 1.000
v -251.1708984375 -230.51544189453125 -332.5197448730469 1.000 1.000 1.000
v -251.1708984375 -184.51544189453125 -268.5197448730469 1.000 1.000 1.000
v -343.1708984375 -109.51544189453125 -244.51974487304688 1.000 1.000 1.000
v -343.1708984375 -184.51544189453125 -268.5197448730469 1.000 1.000 1.000
v -251.1708984375 -184.51544189453125 -268.5197448730469 1.000 1.000 1.000
v -251.1708984375 -109.51544189453125 -244.51974487304688 1.000 1.000 1.000
v -343.1708984375 -34.51544189453125 -268.5197448730469 1.000 1.000 1.000
v -343.1708984375 -109.51544189453125 -244.51974487304688 1.000 1.000 1.000
v -251.1708984375 -109.51544189453125 -244.51974487304688 1.000 1.000 1.000
v -251.1708984375 -34.51544189453125 -268.5197448730469 1.000 1.000 1.000
v -343.1708984375 11.48455810546875 -332.5197448730469 1.000 1.000 1.000
v -343.1708984375 -34.51544189453125 -268.5197448730469 1.000 1.000 1.000
v -251.1708984375 -34.51544189453125 -268.5197448730469 1.000 1.000 1.000
v -251.1708984375 11.48455810546875 -332.5197448730469 1.000 1.000 1.000
v -251.1708984375 11.48455810546875 -332.5197448730469 1.000 1.000 1.000
v -251.1708984375 11.48455810546875 -410.5197448730469 1.000 1.000 1.000
v -343.1708984375 11.48455810546875 -410.5197448730469 1.000 1.000 1.000
v -343.1708984375 11.48455810546875 -332.5197448730469 1.000 1.000 1.000
v -251.1708984375 18.48455810546875 -499.5197448730469 1.000 1.000 1.000
v -251.1708984375 18.48455810546875 -243.51974487304688 1.000 1.000 1.000
v -251.1708984375 -237.51544189453125 -243.51974487304688 1.000 1.000 1.000
v -251.1708984375 -237.51544189453125 -499.5197448730469 1.000 1.000 1.000
v -343.1708984375 -237.51544189453125 -243.51974487304688 1.000 1.000 1.000
v -343.1708984375 18.48455810546875 -243.51974487304688 1.000 1.000 1.000
v -343.1708984375 18.48455810546875 -499.5197448730469 1.000 1.000 1.000
v -343.1708984375 -237.51544189453125 -499.5197448730469 1.000 1.000 1.000
v 638.2299499511719 18.366619110107422 -868.917724609375 1.000 1.000 1.000
v 638.2299499511719 64.36661911010742 -804.917724609375 1.000 1.000 1.000
v 730.2299499511719 64.36661911010742 -804.917724609375 1.000 1.000 1.000
v 730.2299499511719 18.366619110107422 -868.917724609375 1.000 1.000 1.000
v 638.2299499511719 -56.63338088989258 -892.917724609375 1.000 1.000 1.000
v 638.2299499511719 18.366619110107422 -868.917724609375 1.000 1.000 1.000
v 730.2299499511719 18.366619110107422 -868.917724609375 1.000 1.000 1.000
v 730.2299499511719 -56.63338088989258 -892.917724609375 1.000 1.000 1.000
v 638.2299499511719 -131.63338088989258 -868.917724609375 1.000 1.000 1.000
v 638.2299499511719 -56.63338088989258 -892.917724609375 1.000 1.000 1.000
v 730.2299499511719 -56.63338088989258 -892.917724609375 1.000 1.000 1.000
v 730.2299499511719 -131.63338088989258 -868.917724609375 1.000 1.000 1.000
v 638.2299499511719 -177.63338088989258 -804.917724609375 1.000 1.000 1.000
v 638.2299499511719 -131.63338088989258 -868.917724609375 1.000 1.000 1.000
v 730.2299499511719 -131.63338088989258 -868.917724609375 1.000 1.000 1.000
v 730.2299499511719 -177.63338088989258 -804.917724609375 1.000 1.000 1.000
v 638.2299499511719 -177.63338088989258 -726.917724609375 1.000 1.000 1.000
v 638.2299499511719 -177.63338088989258 -804.917724609375 1.000 1.000 1.000
v 730.2299499511719 -177.63338088989258 -804.917724609375 1.000 1.000 1.000
v 730.2299499511719 -177.63338088989258 -726.917724609375 1.000 1.000 1.000
v 638.2299499511719 -131.63338088989258 -662.917724609375 1.000 1.000 1.000
v 638.2299499511719 -177.63338088989258 -726.917724609375 1.000 1.000 1.000
v 730.2299499511719 -177.63338088989258 -726.917724609375 1.000 1.000 1.000
v 730.2299499511719 -131.63338088989258 -662.917724609375 1.000 1.000 1.000
v 638.2299499511719 -56.63338088989258 -638.917724609375 1.000 1.000 1.000
v 638.2299499511719 -131.63338088989258 -662.917724609375 1.000 1.000 1.000
v 730.2299499511719 -131.63338088989258 -662.917724609375 1.000 1.000 1.000
v 730.2299499511719 -56.63338088989258 -638.917724609375 1.000 1.000 1.000
v 638.2299499511719 18.366619110107422 -662.917724609375 1.000 1.000 1.000
v 638.2299499511719 -56.63338088989258 -638.917724609375 1.000 1.000 1.000
v 730.2299499511719 -56.63338088989258 -638.917724609375 1.000 1.000 1.000
v 730.2299499511719 18.366619110107422 -662.917724609375 1.000 1.000 1.000
v 638.2299499511719 64.36661911010742 -726.917724609375 1.000 1.000 1.000
v 638.2299499511719 18.366619110107422 -662.917724609375 1.000 1.000 1.000
v 730.2299499511719 18.366619110107422 -662.917724609375 1.000 1.000 1.000
v 730.2299499511719 64.36661911010742 -726.917724609375 1.000 1.000 1.000
v 730.2299499511719 64.36661911010742 -726.917724609375 1.000 1.000 1.000
v 730.2299499511719 64.36661911010742 -804.917724609375 1.000 1.000 1.000
v 638.2299499511719 64.36661911010742 -804.917724609375 1.000 1.000 1.000
v 638.2299499511719 64.36661911010742 -726.917724609375 1.000 1.000 1.000
v 638.2299499511719 -184.63338088989258 -637.917724609375 1.000 1.000 1.000
v 638.2299499511719 71.36661911010742 -637.917724609375 1.000 1.000 1.000
v 638.2299499511719 71.36661911010742 -893.917724609375 1.000 1.000 1.000
v 638.2299499511719 -184.63338088989258 -893.917724609375 1.000 1.000 1.000
v 730.2299499511719 71.36661911010742 -893.917724609375 1.000 1.000 1.000
v 730.2299499511719 71.36661911010742 -637.917724609375 1.000 1.000 1.000
v 730.2299499511719 -184.63338088989258 -637.917724609375 1.000 1.000 1.000
v 730.2299499511719 -184.63338088989258 -893.917724609375 1.000 1.000 1.000
v 130.22998046875 18.803462982177734 -1698.7066345214844 1.000 1.000 1.000
v 130.22998046875 64.80346298217773 -1762.7066345214844 1.000 1.000 1.000
v 38.22998046875 64.80346298217773 -1762.7066345214844 1.000 1.000 1.000
v 38.22998046875 18.803462982177734 -1698.7066345214844 1.000 1.000 1.000
v 130.22998046875 -56.196537017822266 -1674.7066345214844 1.000 1.000 1.000
v 130.22998046875 18.803462982177734 -1698.7066345214844 1.000 1.000 1.000
v 38.22998046875 18.803462982177734 -1698.7066345214844 1.000 1.000 1.000
v 38.22998046875 -56.196537017822266 -1674.7066345214844 1.000 1.000 1.000
v 130.22998046875 -131.19653701782227 -1698.7066345214844 1.000 1.000 1.000
v 130.22998046875 -56.196537017822266 -1674.7066345214844 1.000 1.000 1.000
v 38.22998046875 -56.196537017822266 -1674.7066345214844 1.000 1.000 1.000
v 38.22998046875 -131.19653701782227 -1698.7066345214844 1.000 1.000 1.000
v 130.22998046875 -177.19653701782227 -1762.7066345214844 1.000 1.000 1.000
v 130.22998046875 -131.19653701782227 -1698.7066345214844 1.000 1.000 1.000
v 38.22998046875 -131.19653701782227 -1698.7066345214844 1.000 1.000 1.000
v 38.22998046875 -177.19653701782227 -1762.7066345214844 1.000 1.000 1.000
v 130.22998046875 -177.19653701782227 -1840.7066345214844 1.000 1.000 1.000
v 130.22998046875 -177.19653701782227 -1762.7066345214844 1.000 1.000 1.000
v 38.22998046875 -177.19653701782227 -1762.7066345214844 1.000 1.000 1.000
v 38.22998046875 -177.19653701782227 -1840.7066345214844 1.000 1.000 1.000
v 130.22998046875 -131.19653701782227 -1904.7066345214844 1.000 1.000 1.000
v 130.22998046875 -177.19653701782227 -1840.7066345214844 1.000 1.000 1.000
v 38.22998046875 -177.19653701782227 -1840.7066345214844 1.000 1.000 1.000
v 38.22998046875 -131.19653701782227 -1904.7066345214844 1.000 1.000 1.000
v 130.22998046875 -56.196537017822266 -1928.7066345214844 1.000 1.000 1.000
v 130.22998046875 -131.19653701782227 -1904.7066345214844 1.000 1.000 1.000
v 38.22998046875 -131.19653701782227 -1904.7066345214844 1.000 1.000 1.000
v 38.22998046875 -56.196537017822266 -1928.7066345214844 1.000 1.000 1.000
v 130.22998046875 18.803462982177734 -1904.7066345214844 1.000 1.000 1.000
v 130.22998046875 -56.196537017822266 -1928.7066345214844 1.000 1.000 1.000
v 38.22998046875 -56.196537017822266 -1928.7066345214844 1.000 1.000 1.000
v 38.22998046875 18.803462982177734 -1904.7066345214844 1.000 1.000 1.000
v 130.22998046875 64.80346298217773 -1840.7066345214844 1.000 1.000 1.000
v 130.22998046875 18.803462982177734 -1904.7066345214844 1.000 1.000 1.000
v 38.22998046875 18.803462982177734 -1904.7066345214844 1.000 1.000 1.000
v 38.22998046875 64.80346298217773 -1840.7066345214844 1.000 1.000 1.000
v 38.22998046875 64.80346298217773 -1840.7066345214844 1.000 1.000 1.000
v 38.22998046875 64.80346298217773 -1762.7066345214844 1.000 1.000 1.000
v 130.22998046875 64.80346298217773 -1762.7066345214844 1.000 1.000 1.000
v 130.22998046875 64.80346298217773 -1840.7066345214844 1.000 1.000 1.000
v 130.22998046875 71.80346298217773 -1929.7066345214844 1.000 1.000 1.000
v 130.22998046875 71.80346298217773 -1673.7066345214844 1.000 1.000 1.000
v 130.22998046875 -185.19653701782227 -1673.7066345214844 1.000 1.000 1.000
v 130.22998046875 -185.19653701782227 -1929.7066345214844 1.000 1.000 1.000
v 38.22998046875 71.80346298217773 -1673.7066345214844 1.000 1.000 1.000
v 38.22998046875 71.80346298217773 -1929.7066345214844 1.000 1.000 1.000
v 38.22998046875 -184.19653701782227 -1929.7066345214844 1.000 1.000 1.000
v 38.22998046875 -184.19653701782227 -1673.7066345214844 1.000 1.000 1.000
v 256.8290710449219 -35.51544189453125 -474.5197448730469 1.000 1.000 1.000
v 256.8290710449219 10.48455810546875 -410.5197448730469 1.000 1.000 1.000
v 348.8290710449219 10.48455810546875 -410.5197448730469 1.000 1.000 1.000
v 348.8290710449219 -35.51544189453125 -474.5197448730469 1.000 1.000 1.000
v 256.8290710449219 -109.51544189453125 -498.5197448730469 1.000 1.000 1.000
v 256.8290710449219 -35.51544189453125 -474.5197448730469 1.000 1.000 1.000
v 348.8290710449219 -35.51544189453125 -474.5197448730469 1.000 1.000 1.000
v 348.8290710449219 -109.51544189453125 -498.5197448730469 1.000 1.000 1.000
v 256.8290710449219 -184.51544189453125 -474.5197448730469 1.000 1.000 1.000
v 256.8290710449219 -109.51544189453125 -498.5197448730469 1.000 1.000 1.000
v 348.8290710449219 -109.51544189453125 -498.5197448730469 1.000 1.000 1.000
v 348.8290710449219 -184.51544189453125 -474.5197448730469 1.000 1.000 1.000
v 256.8290710449219 -230.51544189453125 -410.5197448730469 1.000 1.000 1.000
v 256.8290710449219 -184.51544189453125 -474.5197448730469 1.000 1.000 1.000
v 348.8290710449219 -184.51544189453125 -474.5197448730469 1.000 1.000 1.000
v 348.8290710449219 -230.51544189453125 -410.5197448730469 1.000 1.000 1.000
v 256.8290710449219 -230.51544189453125 -332.5197448730469 1.000 1.000 1.000
v 256.8290710449219 -230.51544189453125 -410.5197448730469 1.000 1.000 1.000
v 348.8290710449219 -230.51544189453125 -410.5197448730469 1.000 1.000 1.000
v 348.8290710449219 -230.51544189453125 -332.5197448730469 1.000 1.000 1.000
v 256.8290710449219 -184.51544189453125 -268.5197448730469 1.000 1.000 1.000
v 256.8290710449219 -230.51544189453125 -332.5197448730469 1.000 1.000 1.000
v 348.8290710449219 -230.51544189453125 -332.5197448730469 1.000 1.000 1.000
v 348.8290710449219 -184.51544189453125 -268.5197448730469 1.000 1.000 1.000
v 256.8290710449219 -109.51544189453125 -244.51974487304688 1.000 1.000 1.000
v 256.8290710449219 -184.51544189453125 -268.5197448730469 1.000 1.000 1.000
v 348.8290710449219 -184.51544189453125 -268.5197448730469 1.000 1.000 1.000
v 348.8290710449219 -109.51544189453125 -244.51974487304688 1.000 1.000 1.000
v 256.8290710449219 -35.51544189453125 -268.5197448730469 1.000 1.000 1.000
v 256.8290710449219 -109.51544189453125 -244.51974487304688 1.000 1.000 1.000
v 348.8290710449219 -109.51544189453125 -244.51974487304688 1.000 1.000 1.000
v 348.8290710449219 -35.51544189453125 -268.5197448730469 1.000 1.000 1.000
v 256.8290710449219 10.48455810546875 -332.5197448730469 1.000 1.000 1.000
v 256.8290710449219 -35.51544189453125 -268.5197448730469 1.000 1.000 1.000
v 348.8290710449219 -35.51544189453125 -268.5197448730469 1.000 1.000 1.000
v 348.8290710449219 10.48455810546875 -332.5197448730469 1.000 1.000 1.000
v 348.8290710449219 10.48455810546875 -332.5197448730469 1.000 1.000 1.000
v 348.8290710449219 10.48455810546875 -410.5197448730469 1.000 1.000 1.000
v 256.8290710449219 10.48455810546875 -410.5197448730469 1.000 1.000 1.000
v 256.8290710449219 10.48455810546875 -332.5197448730469 1.000 1.000 1.000
v 256.8290710449219 18.48455810546875 -243.51974487304688 1.000 1.000 1.000
v 256.8290710449219 18.48455810546875 -499.5197448730469 1.000 1.000 1.000
v 256.8290710449219 -237.51544189453125 -499.5197448730469 1.000 1.000 1.000
v 256.8290710449219 -237.51544189453125 -243.51974487304688 1.000 1.000 1.000
v 348.8290710449219 18.48455810546875 -499.5197448730469 1.000 1.000 1.000
v 348.8290710449219 18.48455810546875 -243.51974487304688 1.000 1.000 1.000
v 348.8290710449219 -238.51544189453125 -243.51974487304688 1.000 1.000 1.000
v 348.8290710449219 -238.51544189453125 -499.5197448730469 1.000 1.000 1.000
v 303.0 -166.0 -142.0 1.000 1.000 1.000
v -297.0 -166.0 -142.0 1.000 1.000 1.000
v 319.0 1.0 -226.0 1.000 1.000 1.000
v -314.0 1.0 -392.0 1.000 1.000 1.000
v -297.0 -133.0 -492.0 1.000 1.000 1.000
v 303.0 -133.0 -492.0 1.000 1.000 1.000
v 319.0 1.0 -392.0 1.000 1.000 1.000
v -297.0 -166.0 561.0 1.000 1.000 1.000
v 319.0 1.0 628.0 1.000 1.000 1.000
v -314.0 1.0 628.0 1.000 1.000 1.000
v 303.0 -166.0 561.0 1.000 1.000 1.000
v -297.0 -149.0 878.0 1.000 1.000 1.000
v 319.0 1.0 811.0 1.000 1.000 1.000
v 303.0 -149.0 878.0 1.000 1.000 1.000
v -314.0 1.0 -226.0 1.000 1.000 1.000
v -314.0 1.0 811.0 1.000 1.000 1.000
v -297.0 -166.0 561.0 1.000 1.000 1.000
v -297.0 -166.0 -142.0 1.000 1.000 1.000
v 303.0 -166.0 -142.0 1.000 1.000 1.000
v 303.0 -166.0 561.0 1.000 1.000 1.000
v -297.0 -149.0 878.0 1.000 1.000 1.000
v -314.0 1.0 811.0 1.000 1.000 1.000
v -331.0 -33.0 811.0 1.000 1.000 1.000
v -331.0 -33.0 628.0 1.000 1.000 1.000
v -314.0 1.0 628.0 1.000 1.000 1.000
v -297.0 -166.0 561.0 1.000 1.000 1.000
v -331.0 -33.0 811.0 1.000 1.000 1.000
v -314.0 1.0 811.0 1.000 1.000 1.000
v -314.0 1.0 628.0 1.000 1.000 1.000
v -331.0 -33.0 628.0 1.000 1.000 1.000
v -331.0 -33.0 -226.0 1.000 1.000 1.000
v -314.0 1.0 -226.0 1.000 1.000 1.000
v -314.0 1.0 -392.0 1.000 1.000 1.000
v -297.0 -166.0 -142.0 1.000 1.000 1.000
v -314.0 1.0 -226.0 1.000 1.000 1.000
v -331.0 -33.0 -226.0 1.000 1.000 1.000
v -331.0 -33.0 -392.0 1.000 1.000 1.000
v -331.0 -33.0 -392.0 1.000 1.000 1.000
v -314.0 1.0 -392.0 1.000 1.000 1.000
v -297.0 -133.0 -492.0 1.000 1.000 1.000
v 336.0 -33.0 811.0 1.000 1.000 1.000
v 319.0 1.0 811.0 1.000 1.000 1.000
v 303.0 -149.0 878.0 1.000 1.000 1.000
v 319.0 1.0 628.0 1.000 1.000 1.000
v 319.0 1.0 811.0 1.000 1.000 1.000
v 336.0 -33.0 811.0 1.000 1.000 1.000
v 336.0 -33.0 628.0 1.000 1.000 1.000
v 319.0 1.0 628.0 1.000 1.000 1.000
v 336.0 -33.0 811.0 1.000 1.000 1.000
v 303.0 -166.0 561.0 1.000 1.000 1.000
v 319.0 1.0 628.0 1.000 1.000 1.000
v 336.0 -33.0 628.0 1.000 1.000 1.000
v 319.0 1.0 -392.0 1.000 1.000 1.000
v 319.0 1.0 -226.0 1.000 1.000 1.000
v 336.0 -33.0 -226.0 1.000 1.000 1.000
v 336.0 -33.0 -226.0 1.000 1.000 1.000
v 319.0 1.0 -226.0 1.000 1.000 1.000
v 303.0 -166.0 -142.0 1.000 1.000 1.000
v 336.0 -33.0 -392.0 1.000 1.000 1.000
v 303.0 -133.0 -492.0 1.000 1.000 1.000
v 319.0 1.0 -392.0 1.000 1.000 1.000
v 336.0 -33.0 -392.0 1.000 1.000 1.000
v -314.0 84.0 -756.0 1.000 1.000 1.000
v 303.0 134.0 -722.0 1.000 1.000 1.000
v 319.0 84.0 -756.0 1.000 1.000 1.000
v -297.0 134.0 -722.0 1.000 1.000 1.000
v -297.0 -116.0 -739.0 1.000 1.000 1.000
v 319.0 84.0 -756.0 1.000 1.000 1.000
v 303.0 -116.0 -739.0 1.000 1.000 1.000
v 253.0 301.0 -172.0 1.000 1.000 1.000
v 3.0 317.0 -172.0 1.000 1.000 1.000
v 253.0 301.0 294.0 1.000 1.000 1.000
v -247.0 301.0 294.0 1.000 1.000 1.000
v -247.0 301.0 -172.0 1.000 1.000 1.000
v 3.0 317.0 311.0 1.000 1.000 1.000
v -297.0 134.0 444.0 1.000 1.000 1.000
v -247.0 301.0 294.0 1.000 1.000 1.000
v -247.0 284.0 278.0 1.000 1.000 1.000
v -297.0 134.0 444.0 1.000 1.000 1.000
v -247.0 284.0 278.0 1.000 1.000 1.000
v -297.0 134.0 411.0 1.000 1.000 1.000
v -247.0 301.0 294.0 1.000 1.000 1.000
v -247.0 301.0 107.0 1.000 1.000 1.000
v -247.0 284.0 124.0 1.000 1.000 1.000
v -247.0 301.0 -172.0 1.000 1.000 1.000
v -247.0 284.0 -122.0 1.000 1.000 1.000
v -247.0 284.0 91.0 1.000 1.000 1.000
v -247.0 301.0 -172.0 1.000 1.000 1.000
v -297.0 134.0 -339.0 1.000 1.000 1.000
v -297.0 134.0 -222.0 1.000 1.000 1.000
v -314.0 1.0 -392.0 1.000 1.000 1.000
v -297.0 79.0 978.0 1.000 1.000 1.000
v -297.0 134.0 444.0 1.000 1.000 1.000
v -314.0 -21.0 994.0 1.000 1.000 1.000
v -314.0 -19.0 820.0 1.000 1.000 1.000
v -297.0 -149.0 878.0 1.000 1.000 1.000
v -297.0 -133.0 978.0 1.000 1.000 1.000
v -314.0 -21.0 994.0 1.000 1.000 1.000
v -297.0 -166.0 561.0 1.000 1.000 1.000
v -314.0 -15.0 621.0 1.000 1.000 1.000
v -297.0 -166.0 -142.0 1.000 1.000 1.000
v -314.0 -2.0 -224.0 1.000 1.000 1.000
v -297.0 134.0 -339.0 1.000 1.000 1.000
v -314.0 1.0 -392.0 1.000 1.000 1.000
v -297.0 134.0 444.0 1.000 1.000 1.000
v -297.0 134.0 -722.0 1.000 1.000 1.000
v -314.0 84.0 -756.0 1.000 1.000 1.000
v -297.0 -116.0 -739.0 1.000 1.000 1.000
v -314.0 84.0 -756.0 1.000 1.000 1.000
v -314.0 1.0 -392.0 1.000 1.000 1.000
v -297.0 -116.0 -739.0 1.000 1.000 1.000
v -297.0 -133.0 -492.0 1.000 1.000 1.000
v 303.0 79.0 978.0 1.000 1.000 1.000
v 319.0 -21.0 994.0 1.000 1.000 1.000
v 319.0 1.0 -392.0 1.000 1.000 1.000
v 303.0 134.0 444.0 1.000 1.000 1.000
v 319.0 -19.0 818.0 1.000 1.000 1.000
v 319.0 -21.0 994.0 1.000 1.000 1.000
v 303.0 -133.0 978.0 1.000 1.000 1.000
v 303.0 -149.0 878.0 1.000 1.000 1.000
v 303.0 -166.0 -142.0 1.000 1.000 1.000
v 319.0 -15.0 620.0 1.000 1.000 1.000
v 303.0 -166.0 561.0 1.000 1.000 1.000
v 319.0 -2.0 -224.0 1.000 1.000 1.000
v 303.0 134.0 -339.0 1.000 1.000 1.000
v 303.0 134.0 -722.0 1.000 1.000 1.000
v 303.0 134.0 -339.0 1.000 1.000 1.000
v 319.0 1.0 -392.0 1.000 1.000 1.000
v 319.0 84.0 -756.0 1.000 1.000 1.000
v 303.0 -116.0 -739.0 1.000 1.000 1.000
v 303.0 -133.0 -492.0 1.000 1.000 1.000
v 303.0 134.0 411.0 1.000 1.000 1.000
v 253.0 284.0 278.0 1.000 1.000 1.000
v 253.0 301.0 294.0 1.000 1.000 1.000
v 303.0 134.0 444.0 1.000 1.000 1.000
v 253.0 284.0 124.0 1.000 1.000 1.000
v 253.0 301.0 107.0 1.000 1.000 1.000
v 253.0 284.0 91.0 1.000 1.000 1.000
v 253.0 284.0 -122.0 1.000 1.000 1.000
v 253.0 301.0 -172.0 1.000 1.000 1.000
v 303.0 134.0 -222.0 1.000 1.000 1.000
v 303.0 134.0 -339.0 1.000 1.000 1.000
v 253.0 301.0 -172.0 1.000 1.000 1.000
v 253.0 284.0 -122.0 1.000 1.000 1.000
v 253.0 284.0 91.0 1.000 1.000 1.000
v 253.0 301.0 107.0 1.000 1.000 1.000
v 253.0 284.0 124.0 1.000 1.000 1.000
v -297.0 134.0 -339.0 1.000 1.000 1.000
v -247.0 301.0 -172.0 1.000 1.000 1.000
v -231.0 284.0 -206.0 1.000 1.000 1.000
v -281.0 134.0 -356.0 1.000 1.000 1.000
v 236.0 284.0 -206.0 1.000 1.000 1.000
v 253.0 301.0 -172.0 1.000 1.000 1.000
v 303.0 134.0 -339.0 1.000 1.000 1.000
v 286.0 134.0 -356.0 1.000 1.000 1.000
v 3.0 301.0 -189.0 1.000 1.000 1.000
v 3.0 317.0 -172.0 1.000 1.000 1.000
v 253.0 301.0 -172.0 1.000 1.000 1.000
v 236.0 284.0 -206.0 1.000 1.000 1.000
v -231.0 284.0 -206.0 1.000 1.000 1.000
v -247.0 301.0 -172.0 1.000 1.000 1.000
v 3.0 317.0 -172.0 1.000 1.000 1.000
v 3.0 301.0 -189.0 1.000 1.000 1.000
v -297.0 134.0 -722.0 1.000 1.000 1.000
v 3.0 134.0 -356.0 1.000 1.000 1.000
v 303.0 134.0 -722.0 1.000 1.000 1.000
v 303.0 134.0 -339.0 1.000 1.000 1.000
v -297.0 134.0 -339.0 1.000 1.000 1.000
v -297.0 134.0 444.0 1.000 1.000 1.000
v 3.0 112.0 978.0 1.000 1.000 1.000
v 3.0 151.0 478.0 1.000 1.000 1.000
v 3.0 112.0 978.0 1.000 1.000 1.000
v -297.0 134.0 444.0 1.000 1.000 1.000
v -297.0 79.0 978.0 1.000 1.000 1.000
v 303.0 79.0 978.0 1.000 1.000 1.000
v 303.0 134.0 444.0 1.000 1.000 1.000
v 3.0 151.0 478.0 1.000 1.000 1.000
v 303.0 -133.0 978.0 1.000 1.000 1.000
v 319.0 -21.0 994.0 1.000 1.000 1.000
v 3.0 -21.0 1011.0 1.000 1.000 1.000
v -297.0 -133.0 978.0 1.000 1.000 1.000
v -314.0 -21.0 994.0 1.000 1.000 1.000
v 303.0 134.0 444.0 1.000 1.000 1.000
v 253.0 301.0 294.0 1.000 1.000 1.000
v 236.0 284.0 328.0 1.000 1.000 1.000
v 286.0 134.0 461.0 1.000 1.000 1.000
v -281.0 134.0 461.0 1.000 1.000 1.000
v -231.0 284.0 328.0 1.000 1.000 1.000
v -247.0 301.0 294.0 1.000 1.000 1.000
v -297.0 134.0 444.0 1.000 1.000 1.000
v 3.0 301.0 328.0 1.000 1.000 1.000
v 3.0 317.0 311.0 1.000 1.000 1.000
v 236.0 284.0 328.0 1.000 1.000 1.000
v 253.0 301.0 294.0 1.000 1.000 1.000
v 3.0 317.0 311.0 1.000 1.000 1.000
v 3.0 301.0 328.0 1.000 1.000 1.000
v -247.0 1.0 -142.0 1.000 1.000 1.000
v -247.0 1.0 -492.0 1.000 1.000 1.000
v -247.0 -133.0 -492.0 1.000 1.000 1.000
v -247.0 -166.0 -142.0 1.000 1.000 1.000
v -247.0 -149.0 878.0 1.000 1.000 1.000
v -247.0 1.0 878.0 1.000 1.000 1.000
v -247.0 1.0 561.0 1.000 1.000 1.000
v -247.0 -166.0 561.0 1.000 1.000 1.000
v 253.0 -166.0 -142.0 1.000 1.000 1.000
v 253.0 -133.0 -492.0 1.000 1.000 1.000
v 253.0 1.0 -492.0 1.000 1.000 1.000
v 253.0 1.0 -142.0 1.000 1.000 1.000
v 253.0 -166.0 561.0 1.000 1.000 1.000
v 253.0 1.0 561.0 1.000 1.000 1.000
v 253.0 1.0 878.0 1.000 1.000 1.000
v 253.0 -149.0 878.0 1.000 1.000 1.000
v -247.0 284.0 91.0 1.000 1.000 1.000
v -247.0 284.0 -122.0 1.000 1.000 1.000
v -297.0 134.0 -222.0 1.000 1.000 1.000
v -297.0 134.0 91.0 1.000 1.000 1.000
v -297.0 134.0 411.0 1.000 1.000 1.000
v -247.0 284.0 278.0 1.000 1.000 1.000
v -247.0 284.0 124.0 1.000 1.000 1.000
v -297.0 134.0 124.0 1.000 1.000 1.000
v 3.0 151.0 478.0 1.000 1.000 1.000
v 3.0 301.0 328.0 1.000 1.000 1.000
v -231.0 284.0 328.0 1.000 1.000 1.000
v -281.0 134.0 461.0 1.000 1.000 1.000
v 286.0 134.0 461.0 1.000 1.000 1.000
v 236.0 284.0 328.0 1.000 1.000 1.000
v -281.0 134.0 -356.0 1.000 1.000 1.000
v -231.0 284.0 -206.0 1.000 1.000 1.000
v 3.0 301.0 -189.0 1.000 1.000 1.000
v 3.0 134.0 -356.0 1.000 1.000 1.000
v 236.0 284.0 -206.0 1.000 1.000 1.000
v 286.0 134.0 -356.0 1.000 1.000 1.000
v 303.0 134.0 124.0 1.000 1.000 1.000
v 253.0 284.0 124.0 1.000 1.000 1.000
v 253.0 284.0 278.0 1.000 1.000 1.000
v 303.0 134.0 411.0 1.000 1.000 1.000
v 303.0 134.0 -222.0 1.000 1.000 1.000
v 253.0 284.0 -122.0 1.000 1.000 1.000
v 253.0 284.0 91.0 1.000 1.000 1.000
v 303.0 134.0 91.0 1.000 1.000 1.000
v -297.0 134.0 124.0 1.000 1.000 1.000
v -247.0 284.0 124.0 1.000 1.000 1.000
v -247.0 284.0 91.0 1.000 1.000 1.000
v -297.0 134.0 91.0 1.000 1.000 1.000
v 303.0 134.0 91.0 1.000 1.000 1.000
v 253.0 284.0 91.0 1.000 1.000 1.000
v 253.0 284.0 124.0 1.000 1.000 1.000
v 303.0 134.0 124.0 1.000 1.000 1.000
v -332.0 -49.0 -775.0 1.000 1.000 1.000
v -332.0 -49.0 -647.0 1.000 1.000 1.000
v -304.0 -43.0 -647.0 1.000 1.000 1.000
v 337.0 -49.0 -775.0 1.000 1.000 1.000
v 337.0 -116.0 -775.0 1.000 1.000 1.000
v -332.0 -49.0 -775.0 1.000 1.000 1.000
v -332.0 -116.0 -775.0 1.000 1.000 1.000
v 312.0 -43.0 -647.0 1.000 1.000 1.000
v 337.0 -49.0 -647.0 1.000 1.000 1.000
v 337.0 -49.0 -775.0 1.000 1.000 1.000
v -304.0 -43.0 -747.0 1.000 1.000 1.000
v -332.0 -49.0 -775.0 1.000 1.000 1.000
v -304.0 -43.0 -647.0 1.000 1.000 1.000
v -332.0 -49.0 -775.0 1.000 1.000 1.000
v -304.0 -43.0 -747.0 1.000 1.000 1.000
v 312.0 -43.0 -747.0 1.000 1.000 1.000
v 337.0 -49.0 -775.0 1.000 1.000 1.000
v 312.0 -43.0 -747.0 1.000 1.000 1.000
v -332.0 -116.0 -647.0 1.000 1.000 1.000
v -332.0 -49.0 -647.0 1.000 1.000 1.000
v -332.0 -116.0 -775.0 1.000 1.000 1.000
v 337.0 -116.0 -775.0 1.000 1.000 1.000
v 337.0 -49.0 -775.0 1.000 1.000 1.000
v 337.0 -116.0 -647.0 1.000 1.000 1.000
v 337.0 -49.0 -647.0 1.000 1.000 1.000
v 312.0 -43.0 -647.0 1.000 1.000 1.000
v 337.0 -116.0 -775.0 1.000 1.000 1.000
v 337.0 -49.0 -647.0 1.000 1.000 1.000
v -332.0 -116.0 -647.0 1.000 1.000 1.000
v -304.0 -43.0 -647.0 1.000 1.000 1.000
v -332.0 -49.0 -647.0 1.000 1.000 1.000
v -304.0 -116.0 -647.0 1.000 1.000 1.000
v 312.0 -116.0 -647.0 1.000 1.000 1.000
v -343.0 -104.0 1029.0 1.000 1.000 1.000
v 3.0 -104.0 1066.0 1.000 1.000 1.000
v -343.0 -38.0 1029.0 1.000 1.000 1.000
v 347.0 -38.0 1029.0 1.000 1.000 1.000
v 347.0 -38.0 894.0 1.000 1.000 1.000
v 319.0 -38.0 894.0 1.000 1.000 1.000
v -343.0 -38.0 1029.0 1.000 1.000 1.000
v 3.0 -104.0 1066.0 1.000 1.000 1.000
v 3.0 -38.0 1066.0 1.000 1.000 1.000
v 3.0 -38.0 1066.0 1.000 1.000 1.000
v 3.0 -104.0 1066.0 1.000 1.000 1.000
v 347.0 -38.0 1029.0 1.000 1.000 1.000
v 347.0 -104.0 1029.0 1.000 1.000 1.000
v -314.0 -38.0 894.0 1.000 1.000 1.000
v -343.0 -38.0 894.0 1.000 1.000 1.000
v -343.0 -38.0 1029.0 1.000 1.000 1.000
v 319.0 -38.0 994.0 1.000 1.000 1.000
v 347.0 -38.0 1029.0 1.000 1.000 1.000
v 319.0 -38.0 894.0 1.000 1.000 1.000
v 347.0 -38.0 1029.0 1.000 1.000 1.000
v 319.0 -38.0 994.0 1.000 1.000 1.000
v 3.0 -38.0 1011.0 1.000 1.000 1.000
v 347.0 -38.0 1029.0 1.000 1.000 1.000
v 3.0 -38.0 1011.0 1.000 1.000 1.000
v 3.0 -38.0 1066.0 1.000 1.000 1.000
v -314.0 -38.0 894.0 1.000 1.000 1.000
v -343.0 -38.0 1029.0 1.000 1.000 1.000
v -314.0 -38.0 994.0 1.000 1.000 1.000
v 3.0 -38.0 1011.0 1.000 1.000 1.000
v -314.0 -38.0 994.0 1.000 1.000 1.000
v -343.0 -38.0 1029.0 1.000 1.000 1.000
v 3.0 -38.0 1066.0 1.000 1.000 1.000
v 347.0 -104.0 894.0 1.000 1.000 1.000
v 347.0 -38.0 894.0 1.000 1.000 1.000
v 347.0 -104.0 1029.0 1.000 1.000 1.000
v 347.0 -38.0 1029.0 1.000 1.000 1.000
v -343.0 -38.0 894.0 1.000 1.000 1.000
v -343.0 -104.0 1029.0 1.000 1.000 1.000
v -343.0 -38.0 1029.0 1.000 1.000 1.000
v -343.0 -104.0 894.0 1.000 1.000 1.000
v -343.0 -38.0 894.0 1.000 1.000 1.000
v -314.0 -38.0 894.0 1.000 1.000 1.000
v -343.0 -104.0 894.0 1.000 1.000 1.000
v 347.0 -104.0 894.0 1.000 1.000 1.000
v 319.0 -38.0 894.0 1.000 1.000 1.000
v 347.0 -38.0 894.0 1.000 1.000 1.000
v 319.0 -104.0 894.0 1.000 1.000 1.000
v -314.0 -104.0 894.0 1.000 1.000 1.000
v 3.0 -21.0 1011.0 1.000 1.000 1.000
v 3.0 112.0 978.0 1.000 1.000 1.000
v -297.0 79.0 978.0 1.000 1.000 1.000
v 319.0 -21.0 994.0 1.000 1.000 1.000
v 303.0 79.0 978.0 1.000 1.000 1.000
v 3.0 -21.0 1011.0 1.000 1.000 1.000
v 3.0 112.0 978.0 1.000 1.000 1.000
v -297.0 79.0 978.0 1.000 1.000 1.000
v -314.0 -21.0 994.0 1.000 1.000 1.000
v -114.0 -121.0 1078.0 1.000 1.000 1.000
v 119.0 -121.0 1078.0 1.000 1.000 1.000
v 119.0 -54.0 1078.0 1.000 1.000 1.000
v -114.0 -54.0 1078.0 1.000 1.000 1.000
v -114.0 51.0 -756.0 1.000 1.000 1.000
v 119.0 51.0 -756.0 1.000 1.000 1.000
v -114.0 -16.0 -756.0 1.000 1.000 1.000
v 119.0 -16.0 -756.0 1.000 1.000 1.000
v -312.0 10.0 -218.0 1.000 1.000 1.000
v -304.0 47.0 442.0 1.000 1.000 1.000
v -297.0 134.0 444.0 1.000 1.000 1.000
v -310.0 31.0 -206.0 1.000 1.000 1.000
v -314.0 -2.0 -223.0 1.000 1.000 1.000
v -314.0 -12.0 443.0 1.000 1.000 1.000
v -309.0 -56.0 436.0 1.000 1.000 1.000
v -297.0 -166.0 -142.0 1.000 1.000 1.000
v -297.0 -166.0 444.0 1.000 1.000 1.000
v -309.0 -56.0 435.0 1.000 1.000 1.000
v -314.0 -12.0 446.0 1.000 1.000 1.000
v -314.0 -2.0 -224.0 1.000 1.000 1.000
v -310.0 31.0 -207.0 1.000 1.000 1.000
v -297.0 134.0 -224.0 1.000 1.000 1.000
v 319.0 -12.0 444.0 1.000 1.000 1.000
v 319.0 -2.0 -223.0 1.000 1.000 1.000
v 317.0 11.0 -218.0 1.000 1.000 1.000
v 309.0 49.0 444.0 1.000 1.000 1.000
v 317.0 10.0 -217.0 1.000 1.000 1.000
v 316.0 29.0 -208.0 1.000 1.000 1.000
v 303.0 134.0 444.0 1.000 1.000 1.000
v 303.0 -166.0 -142.0 1.000 1.000 1.000
v 315.0 -53.0 436.0 1.000 1.000 1.000
v 303.0 -166.0 444.0 1.000 1.000 1.000
v 319.0 -2.0 -224.0 1.000 1.000 1.000
v 319.0 -12.0 445.0 1.000 1.000 1.000
v 316.0 29.0 -207.0 1.000 1.000 1.000
v 303.0 134.0 -224.0 1.000 1.000 1.000
vt 0.0059 0.1143
vt -0.0039 0.9502
vt 0.9775 0.9502
vt 0.9873 0.1143
vt 1.0000 0.0000
vt 1.0000 0.8213
vt 1.9590 0.8213
vt 1.9590 0.0000
vt -0.0010 0.0928
vt -0.0078 1.0010
vt 0.9932 1.0010
vt 1.0000 0.0928
vt 0.9834 0.9951
vt 0.9834 0.1064
vt 0.0029 0.1064
vt 0.0029 0.9951
vt 1.0015 -0.0020
vt -0.0015 -0.0020
vt -0.0015 1.0020
vt 1.0015 1.0020
vt 0.0098 0.9902
vt 0.0098 0.0098
vt 0.9902 0.0098
vt 0.9902 0.9902
vt 0.4736 0.4609
vt -0.4902 0.4170
vt 0.4932 -0.0361
vt -0.4512 0.9697
vt -0.4287 1.4775
vt 0.4829 1.4980
vt 0.5112 0.9912
vt -0.4526 0.5566
vt 0.4961 0.0020
vt -0.4766 -0.0059
vt 0.4692 0.5645
vt -0.4624 0.4561
vt 0.5332 0.9961
vt 0.5073 0.4648
vt -0.5239 -0.0820
vt -0.4907 0.9863
vt -0.5967 0.4922
vt -0.5962 1.4541
vt 0.5537 1.4883
vt 0.5532 0.5273
vt -0.0527 1.1025
vt 1.0879 1.3926
vt 0.9326 1.1768
vt 0.9648 1.1582
vt 1.0898 1.5068
vt -0.0566 1.2051
vt 1.0469 1.1436
vt 1.0645 1.5684
vt 0.0244 1.6016
vt 0.0059 1.1777
vt 0.9482 1.1924
vt 0.9844 1.4678
vt 0.0322 1.4424
vt -0.0664 1.1533
vt 0.9775 1.3564
vt 0.8682 1.1846
vt -0.0039 1.1660
vt 1.0723 1.1582
vt 1.2324 1.4072
vt 0.0342 1.1758
vt 1.2705 1.1562
vt 1.4189 1.4014
vt -0.0576 1.1426
vt -1.0059 1.3604
vt -0.0059 1.3604
vt -0.0059 1.1562
vt -1.0059 1.1562
vt 1.0156 1.1357
vt -0.5596 1.4609
vt -0.1797 1.1504
vt -0.9834 1.3467
vt 0.0166 1.3467
vt 0.0166 1.1230
vt -1.1113 1.1035
vt -1.4150 1.3486
vt 0.0029 1.2002
vt -0.9834 1.1230
vt 0.0605 1.1953
vt 1.0645 1.3555
vt 0.8994 1.1299
vt 1.0068 0.3037
vt 0.0020 0.1162
vt -0.0254 0.3037
vt 0.9805 0.1162
vt 0.9785 1.0518
vt 0.0000 1.0518
vt 1.0088 -0.0107
vt 0.5049 -0.0117
vt 1.0088 0.9902
vt -0.0039 0.9883
vt -0.0039 -0.0127
vt 0.5049 1.0244
vt 1.1084 0.1738
vt 0.6787 -0.0107
vt 0.6748 0.0371
vt 1.0615 0.2080
vt 0.3721 0.2158
vt 0.4150 0.2295
vt 0.0176 0.4775
vt 0.1084 0.4561
vt 0.3682 0.2637
vt -0.0020 0.9932
vt 0.1631 0.8711
vt 0.7246 0.5684
vt 0.2148 0.1973
vt 0.4072 0.0078
vt 0.2158 0.5918
vt 0.7422 0.4951
vt 0.7363 0.9561
vt 0.7812 0.8926
vt 0.8145 0.4951
vt 0.3857 1.1631
vt 0.3525 0.5850
vt 0.6445 1.1943
vt 0.6631 0.5713
vt 0.6953 0.0420
vt 0.8359 0.0596
vt 0.8525 0.2627
vt 0.8604 1.0273
vt 0.7705 1.0811
vt 0.1416 0.1064
vt 0.1250 0.4951
vt 0.7227 0.5049
vt 0.3760 -0.0674
vt 0.2012 0.4971
vt 0.1221 0.9092
vt 0.1641 0.9785
vt 0.6006 1.1104
vt 0.2861 0.4980
vt 0.2979 1.0635
vt 0.6494 0.5039
vt 0.7119 -0.0146
vt 0.8770 0.0107
vt 0.8857 0.2129
vt 0.8613 0.9600
vt 0.7539 1.0068
vt 0.1133 0.6270
vt 0.4053 0.0811
vt 0.3955 0.0264
vt 0.0693 0.6279
vt 0.6445 0.0762
vt 0.6777 0.0215
vt 0.6885 0.0752
vt 0.9277 0.0713
vt 1.0049 0.0156
vt 0.9404 0.6123
vt 1.0928 0.6094
vt 0.0273 0.9873
vt 0.3477 1.1172
vt 0.3203 1.0654
vt 0.0283 0.9541
vt -0.2461 0.0957
vt -0.3281 0.0547
vt 0.0430 0.4844
vt 0.0811 0.4902
vt 0.0361 -0.2939
vt -0.0078 -0.3291
vt 0.5459 0.8711
vt 0.5176 0.8525
vt 1.0010 0.5049
vt 0.4990 0.0029
vt 0.0000 0.5059
vt -0.0010 -0.0195
vt 1.0000 -0.0205
vt 0.0439 0.2979
vt 0.5000 0.9648
vt 0.5000 0.3369
vt 0.0439 0.9668
vt 0.9561 0.9619
vt 0.9561 0.2930
vt 0.9961 0.9912
vt 1.0205 0.7998
vt 0.4863 0.8057
vt -0.0146 1.0098
vt -0.0459 0.8203
vt 0.0205 1.0088
vt 0.2188 1.0762
vt 0.1992 1.0459
vt 0.0195 0.9902
vt 0.0381 0.9902
vt 0.3408 0.9482
vt 0.3721 0.9199
vt 0.0391 0.9707
vt 0.5898 1.1182
vt 0.6201 1.1094
vt 0.3379 0.8818
vt 0.3193 0.8701
vt 1.0020 0.0029
vt 0.0020 0.0029
vt 0.0020 0.8115
vt 1.0020 1.0137
vt -0.0010 0.8955
vt -0.0010 0.0059
vt 1.0010 0.0059
vt 1.0010 0.9941
vt 0.9971 0.9814
vt 0.0000 0.7852
vt 0.0000 0.0000
vt 0.9971 0.0000
vt 1.0010 1.0000
vt 1.0039 0.0000
vt 0.0049 0.0000
vt 0.0020 0.9004
vt 0.0257 0.3419
vt 0.5000 0.1524
vt 0.4604 0.1596
vt 0.5396 0.1476
vt 0.5000 0.1464
vt 0.9743 0.3419
vt 0.9893 0.9619
vt 0.9893 -2.2090
vt 0.3213 -2.2090
vt 0.3213 0.9619
vt 0.9551 0.9941
vt 0.9463 -1.5537
vt 0.3770 -1.5537
vt 0.3857 0.9941
vt -0.4160 1.0029
vt -0.4170 0.0801
vt -0.4170 0.9941
vt -0.0078 0.9941
vt -0.4229 -3.5117
vt -0.0137 -3.5127
vt -0.4121 1.0127
vt -0.4111 0.0771
vt -0.4160 0.6953
vt -0.4229 -3.2041
vt -0.4180 0.6875
vt -0.4121 0.3887
vt -0.0068 0.0801
vt -0.0059 1.0020
vt 0.0049 0.0771
vt 0.0039 1.0137
vt -0.0137 1.0117
vt -0.0117 -1.0410
vt -0.4072 1.0107
vt -0.4102 1.0010
vt -0.4102 0.0820
vt -0.4043 -1.0420
vt -0.4102 0.9912
vt 0.0010 0.9893
vt -0.4170 -1.2832
vt -0.0059 -1.2842
vt -0.4053 1.0029
vt -0.4014 0.2188
vt -0.4102 0.6953
vt -0.4170 -1.0029
vt -0.4102 0.9541
vt -0.4023 0.4229
vt -0.4043 -1.0068
vt -0.4062 0.8604
vt -0.0020 0.0820
vt -0.0010 1.0010
vt -0.0146 0.2207
vt -0.0195 1.0049
vt 0.5000 0.7871
vt 0.5000 -0.2275
vt 0.0342 0.0264
vt 0.9912 0.7871
vt 0.9658 0.0264
vt 0.0088 0.7871
vt -0.0044 0.9268
vt 1.0044 0.9268
vt 1.0044 -0.0137
vt -0.0044 -0.0137
vt 1.0029 -0.0430
vt -0.0029 -0.0430
vt 1.0029 0.8848
vt -0.0029 0.8848
vt 0.0586 0.4463
vt 0.9624 0.3438
vt 0.9702 0.1084
vt 0.0732 0.3926
vt 0.0479 0.4805
vt 0.9580 0.5098
vt 0.9438 0.6279
vt 0.1465 0.9395
vt 0.9453 0.9395
vt 0.9609 0.5098
vt 0.0474 0.4805
vt 0.0586 0.1084
vt 0.9565 0.4990
vt 0.0527 0.4746
vt 0.0630 0.4385
vt 0.9580 0.3252
vt 0.0762 0.3818
vt 0.9619 0.0762
vt 0.1582 0.9580
vt 0.9448 0.6152
vt 0.9517 0.9521
vt 0.0527 0.4756
vt 0.9580 0.4990
vt 0.0566 0.0830
vn -0.577 -0.577 -0.577
vn -0.577 -0.577 -0.577
vn -0.577 -0.577 -0.577
vn -0.577 -0.577 -0.577
vn -0.577 -0.577 -0.577
vn -0.577 -0.577 -0.577
vn -0.577 -0.577 -0.577
vn -0.577 -0.577 -0.577
vn -0.577 -0.577 -0.577
vn -0.577 -0.577 -0.577
vn -0.577 -0.577 -0.577
vn -0.577 -0.577 -0.577
vn -0.577 -0.577 -0.577
vn -0.577 -0.577 -0.577
vn -0.577 -0.577 -0.577
vn -0.577 -0.577 -0.577
vn -0.577 -0.577 -0.577
vn -0.577 -0.577 -0.577
vn -0.577 -0.577 -0.577
vn -0.577 -0.577 -0.577
vn -0.577 -0.577 -0.577
vn -0.577 -0.577 -0.577
vn -0.577 -0.577 -0.577
vn -0.577 -0.577 -0.577
vn -0.577 -0.577 -0.577
vn -0.577 -0.577 -0.577
vn -0.577 -0.577 -0.577
vn -0.577 -0.577 -0.577
vn -0.577 -0.577 -0.577
vn -0.577 -0.577 -0.577
vn -0.577 -0.577 -0.577
vn -0.577 -0.577 -0.577
vn -0.577 -0.577 -0.577
vn -0.577 -0.577 -0.577
vn -0.577 -0.577 -0.577
vn -0.577 -0.577 -0.577
vn -0.577 -0.577 -0.577
vn -0.577 -0.577 -0.577
vn -0.577 -0.577 -0.577
vn -0.577 -0.577 -0.577
vn -0.577 -0.577 -0.577
vn -0.577 -0.577 -0.577
vn -0.577 -0.577 -0.577
vn -0.577 -0.577 -0.577
vn -0.577 -0.577 -0.577
vn -0.577 -0.577 -0.577
vn -0.577 -0.577 -0.577
vn -0.577 -0.577 -0.577
vn -0.577 -0.577 -0.577
vn -0.577 -0.577 -0.577
vn -0.577 -0.577 -0.577
vn -0.577 -0.577 -0.577
vn -0.577 -0.577 -0.577
vn -0.577 -0.577 -0.577
vn -0.577 -0.577 -0.577
vn -0.577 -0.577 -0.577
vn -0.577 -0.577 -0.577
vn -0.577 -0.577 -0.577
vn -0.577 -0.577 -0.577
vn -0.577 -0.577 -0.577
vn -0.577 -0.577 -0.577
vn -0.577 -0.577 -0.577
vn -0.577 -0.577 -0.577
vn -0.577 -0.577 -0.577
vn -0.577 -0.577 -0.577
vn -0.577 -0.577 -0.577
vn -0.577 -0.577 -0.577
vn -0.577 -0.577 -0.577
vn -0.577 -0.577 -0.577
vn -0.577 -0.577 -0.577
vn -0.577 -0.577 -0.577
vn -0.577 -0.577 -0.577
vn -0.577 -0.577 -0.577
vn -0.577 -0.577 -0.577
vn -0.577 -0.577 -0.577
vn -0.577 -0.577 -0.577
vn -0.577 -0.577 -0.577
vn -0.577 -0.577 -0.577
vn -0.577 -0.577 -0.577
vn -0.577 -0.577 -0.577
vn -0.577 -0.577 -0.577
vn -0.577 -0.577 -0.577
vn -0.577 -0.577 -0.577
vn -0.577 -0.577 -0.577
vn -0.577 -0.577 -0.577
vn -0.577 -0.577 -0.577
vn -0.577 -0.577 -0.577
vn -0.577 -0.577 -0.577
vn -0.577 -0.577 -0.577
vn -0.577 -0.577 -0.577
vn -0.577 -0.577 -0.577
vn -0.577 -0.577 -0.577
vn -0.577 -0.577 -0.577
vn -0.577 -0.577 -0.577
vn -0.577 -0.577 -0.577
vn -0.577 -0.577 -0.577
vn -0.577 -0.577 -0.577
vn -0.577 -0.577 -0.577
vn -0.577 -0.577 -0.577
vn -0.577 -0.577 -0.577
vn -0.577 -0.577 -0.577
vn -0.577 -0.577 -0.577
vn -0.577 -0.577 -0.577
vn -0.577 -0.577 -0.577
vn -0.577 -0.577 -0.577
vn -0.577 -0.577 -0.577
vn -0.577 -0.577 -0.577
vn -0.577 -0.577 -0.577
vn -0.577 -0.577 -0.577
vn -0.577 -0.577 -0.577
vn -0.577 -0.577 -0.577
vn -0.577 -0.577 -0.577
vn -0.577 -0.577 -0.577
vn -0.577 -0.577 -0.577
vn -0.577 -0.577 -0.577
vn -0.577 -0.577 -0.577
vn -0.577 -0.577 -0.577
vn -0.577 -0.577 -0.577
vn -0.577 -0.577 -0.577
vn -0.577 -0.577 -0.577
vn -0.577 -0.577 -0.577
vn -0.577 -0.577 -0.577
vn -0.577 -0.577 -0.577
vn -0.577 -0.577 -0.577
vn -0.577 -0.577 -0.577
vn -0.577 -0.577 -0.577
vn -0.577 -0.577 -0.577
vn -0.577 -0.577 -0.577
vn -0.577 -0.577 -0.577
vn -0.577 -0.577 -0.577
vn -0.577 -0.577 -0.577
vn -0.577 -0.577 -0.577
vn -0.577 -0.577 -0.577
vn -0.577 -0.577 -0.577
vn -0.577 -0.577 -0.577
vn -0.577 -0.577 -0.577
vn -0.577 -0.577 -0.577
vn -0.577 -0.577 -0.577
vn -0.577 -0.577 -0.577
vn -0.577 -0.577 -0.577
vn -0.577 -0.577 -0.577
vn -0.577 -0.577 -0.577
vn -0.577 -0.577 -0.577
vn -0.577 -0.577 -0.577
vn -0.577 -0.577 -0.577
vn -0.577 -0.577 -0.577
vn -0.577 -0.577 -0.577
vn -0.577 -0.577 -0.577
vn -0.577 -0.577 -0.577
vn -0.577 -0.577 -0.577
vn -0.577 -0.577 -0.577
vn -0.577 -0.577 -0.577
vn -0.577 -0.577 -0.577
vn -0.577 -0.577 -0.577
vn -0.577 -0.577 -0.577
vn -0.577 -0.577 -0.577
vn -0.577 -0.577 -0.577
vn -0.577 -0.577 -0.577
vn -0.577 -0.577 -0.577
vn -0.577 -0.577 -0.577
vn -0.577 -0.577 -0.577
vn -0.577 -0.577 -0.577
vn -0.577 -0.577 -0.577
vn -0.577 -0.577 -0.577
vn -0.577 -0.577 -0.577
vn -0.577 -0.577 -0.577
vn -0.577 -0.577 -0.577
vn -0.577 -0.577 -0.577
vn -0.577 -0.577 -0.577
vn -0.577 -0.577 -0.577
vn -0.577 -0.577 -0.577
vn -0.577 -0.577 -0.577
vn -0.577 -0.577 -0.577
vn -0.577 -0.577 -0.577
vn -0.577 -0.577 -0.577
vn -0.577 -0.577 -0.577
vn -0.577 -0.577 -0.577
vn -0.577 -0.577 -0.577
vn -0.577 -0.577 -0.577
vn -0.577 -0.577 -0.577
vn -0.577 -0.577 -0.577
vn -0.577 -0.577 -0.577
vn -0.577 -0.577 -0.577
vn -0.577 -0.577 -0.577
vn -0.577 -0.577 -0.577
vn -0.577 -0.577 -0.577
vn -0.577 -0.577 -0.577
vn -0.577 -0.577 -0.577
vn -0.577 -0.577 -0.577
vn -0.577 -0.577 -0.577
vn -0.577 -0.577 -0.577
vn -0.577 -0.577 -0.577
vn 0.577 0.577 0.577
vn 0.577 0.577 0.577
vn 0.577 0.577 0.577
vn 0.577 0.577 0.577
vn 0.577 0.577 0.577
vn 0.577 0.577 0.577
vn 0.577 0.577 0.577
vn 0.577 0.577 0.577
vn 0.577 0.577 0.577
vn 0.577 0.577 0.577
vn 0.577 0.577 0.577
vn 0.577 0.577 0.577
vn 0.577 0.577 0.577
vn 0.577 0.577 0.577
vn 0.577 0.577 0.577
vn 0.577 0.577 0.577
vn 0.577 0.577 0.577
vn 0.577 0.577 0.577
vn 0.577 0.577 0.577
vn 0.577 0.577 0.577
vn 0.577 0.577 0.577
vn 0.577 0.577 0.577
vn 0.577 0.577 0.577
vn 0.577 0.577 0.577
vn 0.577 0.577 0.577
vn 0.577 0.577 0.577
vn 0.577 0.577 0.577
vn 0.577 0.577 0.577
vn 0.577 0.577 0.577
vn 0.577 0.577 0.577
vn 0.577 0.577 0.577
vn 0.577 0.577 0.577
vn 0.577 0.577 0.577
vn 0.577 0.577 0.577
vn 0.577 0.577 0.577
vn 0.577 0.577 0.577
vn 0.577 0.577 0.577
vn 0.577 0.577 0.577
vn 0.577 0.577 0.577
vn 0.577 0.577 0.577
vn 0.577 0.577 0.577
vn 0.577 0.577 0.577
vn 0.577 0.577 0.577
vn 0.577 0.577 0.577
vn 0.577 0.577 0.577
vn 0.577 0.577 0.577
vn 0.577 0.577 0.577
vn 0.577 0.577 0.577
vn 0.577 0.577 0.577
vn 0.577 0.577 0.577
vn 0.577 0.577 0.577
vn 0.577 0.577 0.577
vn 0.577 0.577 0.577
vn 0.577 0.577 0.577
vn 0.577 0.577 0.577
vn 0.577 0.577 0.577
vn 0.577 0.577 0.577
vn 0.577 0.577 0.577
vn 0.577 0.577 0.577
vn 0.577 0.577 0.577
vn 0.577 0.577 0.577
vn 0.577 0.577 0.577
vn 0.577 0.577 0.577
vn -0.577 -0.577 -0.577
vn -0.577 -0.577 -0.577
vn -0.577 -0.577 -0.577
vn 0.577 0.577 0.577
vn 0.577 0.577 0.577
vn 0.577 0.577 0.577
vn -0.577 -0.577 -0.577
vn -0.577 -0.577 -0.577
vn 0.577 0.577 0.577
vn 0.577 0.577 0.577
vn -0.577 -0.577 -0.577
vn -0.577 -0.577 -0.577
vn 0.577 0.577 0.577
vn 0.577 0.577 0.577
vn 0.577 0.577 0.577
vn 0.577 0.577 0.577
vn 0.577 0.577 0.577
vn 0.577 0.577 0.577
vn 0.577 0.577 0.577
vn 0.577 0.577 0.577
vn 0.577 0.577 0.577
vn 0.577 0.577 0.577
vn 0.577 0.577 0.577
vn 0.577 0.577 0.577
vn -0.577 -0.577 -0.577
vn -0.577 -0.577 -0.577
vn 0.577 0.577 0.577
vn 0.577 0.577 0.577
vn 0.577 0.577 0.577
vn 0.577 0.577 0.577
vn -0.577 -0.577 -0.577
vn 0.577 0.577 0.577
vn 0.577 0.577 0.577
vn 0.577 0.577 0.577
vn 0.577 0.577 0.577
vn 0.577 0.577 0.577
vn 0.577 0.577 0.577
vn 0.577 0.577 0.577
vn 0.577 0.577 0.577
vn -0.577 -0.577 -0.577
vn 0.577 0.577 0.577
vn 0.577 0.577 0.577
vn -0.577 -0.577 -0.577
vn 0.577 0.577 0.577
vn 0.577 0.577 0.577
vn 0.577 0.577 0.577
vn 0.577 0.577 0.577
vn 0.577 0.577 0.577
vn 0.577 0.577 0.577
vn 0.577 0.577 0.577
vn -0.577 -0.577 -0.577
vn 0.577 0.577 0.577
vn 0.577 0.577 0.577
vn 0.577 0.577 0.577
vn 0.577 0.577 0.577
vn 0.577 0.577 0.577
vn 0.577 0.577 0.577
vn 0.577 0.577 0.577
vn 0.577 0.577 0.577
vn 0.577 0.577 0.577
vn 0.577 0.577 0.577
vn -0.577 -0.577 -0.577
vn -0.577 -0.577 -0.577
vn -0.577 -0.577 -0.577
vn 0.577 0.577 0.577
vn 0.577 0.577 0.577
vn 0.577 0.577 0.577
vn 0.577 0.577 0.577
vn 0.577 0.577 0.577
vn 0.577 0.577 0.577
vn 0.577 0.577 0.577
vn 0.577 0.577 0.577
vn 0.577 0.577 0.577
vn 0.577 0.577 0.577
vn 0.577 0.577 0.577
vn 0.577 0.577 0.577
vn -0.577 -0.577 -0.577
vn 0.577 0.577 0.577
vn -0.577 -0.577 -0.577
vn -0.577 -0.577 -0.577
vn 0.577 0.577 0.577
vn 0.577 0.577 0.577
vn 0.577 0.577 0.577
vn 0.577 0.577 0.577
vn -0.577 -0.577 -0.577
vn -0.577 -0.577 -0.577
vn -0.577 -0.577 -0.577
vn -0.577 -0.577 -0.577
vn -0.577 -0.577 -0.577
vn -0.577 -0.577 -0.577
vn -0.577 -0.577 -0.577
vn -0.577 -0.577 -0.577
vn -0.577 -0.577 -0.577
vn -0.577 -0.577 -0.577
vn -0.577 -0.577 -0.577
vn -0.577 -0.577 -0.577
vn -0.577 -0.577 -0.577
vn -0.577 -0.577 -0.577
vn -0.577 -0.577 -0.577
vn -0.577 -0.577 -0.577
vn -0.577 -0.577 -0.577
vn -0.577 -0.577 -0.577
vn -0.577 -0.577 -0.577
vn -0.577 -0.577 -0.577
vn -0.577 -0.577 -0.577
vn 0.577 0.577 0.577
vn -0.577 -0.577 -0.577
vn -0.577 -0.577 -0.577
vn -0.577 -0.577 -0.577
vn 0.577 0.577 0.577
vn 0.577 0.577 0.577
vn 0.577 0.577 0.577
vn 0.577 0.577 0.577
vn -0.577 -0.577 -0.577
vn 0.577 0.577 0.577
vn 0.577 0.577 0.577
vn 0.577 0.577 0.577
vn 0.577 0.577 0.577
vn 0.577 0.577 0.577
vn 0.577 0.577 0.577
vn 0.577 0.577 0.577
vn 0.577 0.577 0.577
vn 0.577 0.577 0.577
vn 0.577 0.577 0.577
vn 0.577 0.577 0.577
vn 0.577 0.577 0.577
vn 0.577 0.577 0.577
vn -0.577 -0.577 -0.577
vn -0.577 -0.577 -0.577
vn 0.577 0.577 0.577
vn 0.577 0.577 0.577
vn -0.577 -0.577 -0.577
vn -0.577 -0.577 -0.577
vn 0.577 0.577 0.577
vn 0.577 0.577 0.577
vn 0.577 0.577 0.577
vn 0.577 0.577 0.577
vn 0.577 0.577 0.577
vn 0.577 0.577 0.577
vn 0.577 0.577 0.577
vn 0.577 0.577 0.577
vn 0.577 0.577 0.577
vn 0.577 0.577 0.577
vn 0.577 0.577 0.577
vn 0.577 0.577 0.577
vn 0.577 0.577 0.577
vn 0.577 0.577 0.577
vn 0.577 0.577 0.577
vn 0.577 0.577 0.577
vn -0.949 0.316 0.000
vn -0.949 0.316 0.000
vn -0.949 0.316 0.000
vn -0.949 0.316 0.000
vn -0.949 0.316 0.000
vn -0.949 0.316 0.000
vn -0.949 0.316 0.000
vn -0.949 0.316 0.000
vn 0.000 0.695 0.719
vn 0.000 0.695 0.719
vn -0.079 0.681 0.728
vn -0.079 0.681 0.728
vn 0.079 0.705 0.705
vn 0.079 0.705 0.705
vn 0.000 0.707 -0.707
vn 0.000 0.707 -0.707
vn 0.000 0.707 -0.707
vn 0.000 0.707 -0.707
vn 0.000 0.707 -0.707
vn 0.000 0.707 -0.707
vn 0.949 0.316 0.000
vn 0.949 0.316 0.000
vn 0.949 0.316 0.000
vn 0.949 0.316 0.000
vn 0.949 0.316 0.000
vn 0.949 0.316 0.000
vn 0.949 0.316 0.000
vn 0.949 0.316 0.000
vn -0.577 -0.577 -0.577
vn -0.577 -0.577 -0.577
vn -0.577 -0.577 -0.577
vn -0.577 -0.577 -0.577
vn -0.577 -0.577 -0.577
vn -0.577 -0.577 -0.577
vn -0.577 -0.577 -0.577
vn -0.577 -0.577 -0.577
vn -0.577 -0.577 -0.577
vn -0.577 -0.577 -0.577
vn -0.577 -0.577 -0.577
vn -0.577 -0.577 -0.577
vn 0.577 0.577 0.577
vn 0.577 0.577 0.577
vn 0.577 0.577 0.577
vn -0.577 -0.577 -0.577
vn -0.577 -0.577 -0.577
vn -0.577 -0.577 -0.577
vn -0.577 -0.577 -0.577
vn -0.577 -0.577 -0.577
vn -0.577 -0.577 -0.577
vn -0.577 -0.577 -0.577
vn -0.577 -0.577 -0.577
vn -0.577 -0.577 -0.577
vn -0.577 -0.577 -0.577
vn -0.577 -0.577 -0.577
vn 0.577 0.577 0.577
vn -0.577 -0.577 -0.577
vn 0.577 0.577 0.577
vn 0.577 0.577 0.577
vn 0.577 0.577 0.577
vn 0.577 0.577 0.577
vn 0.577 0.577 0.577
vn 0.577 0.577 0.577
vn 0.577 0.577 0.577
vn -0.577 -0.577 -0.577
vn 0.577 0.577 0.577
vn 0.577 0.577 0.577
vn 0.577 0.577 0.577
vn 0.577 0.577 0.577
vn 0.577 0.577 0.577
vn 0.577 0.577 0.577
vn 0.577 0.577 0.577
vn 0.577 0.577 0.577
vn -0.577 -0.577 -0.577
vn -0.577 -0.577 -0.577
vn -0.577 -0.577 -0.577
vn 0.577 0.577 0.577
vn 0.577 0.577 0.577
vn 0.577 0.577 0.577
vn 0.577 0.577 0.577
vn 0.577 0.577 0.577
vn 0.577 0.577 0.577
vn 0.577 0.577 0.577
vn -0.577 -0.577 -0.577
vn -0.577 -0.577 -0.577
vn -0.577 -0.577 -0.577
vn -0.577 -0.577 -0.577
vn -0.577 -0.577 -0.577
vn -0.577 -0.577 -0.577
vn -0.577 -0.577 -0.577
vn -0.577 -0.577 -0.577
vn 0.577 0.577 0.577
vn -0.577 -0.577 -0.577
vn 0.577 0.577 0.577
vn -0.577 -0.577 -0.577
vn -0.577 -0.577 -0.577
vn -0.577 -0.577 -0.577
vn -0.577 -0.577 -0.577
vn 0.577 0.577 0.577
vn -0.577 -0.577 -0.577
vn -0.577 -0.577 -0.577
vn -0.577 -0.577 -0.577
vn 0.577 0.577 0.577
vn 0.577 0.577 0.577
vn 0.577 0.577 0.577
vn 0.577 0.577 0.577
vn 0.577 0.577 0.577
vn 0.577 0.577 0.577
vn 0.577 0.577 0.577
vn 0.577 0.577 0.577
vn 0.577 0.577 0.577
vn 0.577 0.577 0.577
vn 0.577 0.577 0.577
vn 0.577 0.577 0.577
vn 0.577 0.577 0.577
vn 0.577 0.577 0.577
vn 0.577 0.577 0.577
vn 0.577 0.577 0.577
vn -0.577 -0.577 -0.577
vn -0.577 -0.577 -0.577
vn -0.577 -0.577 -0.577
vn -0.577 -0.577 -0.577
vn -0.577 -0.577 -0.577
vn -0.577 -0.577 -0.577
vn -0.577 -0.577 -0.577
vn -0.577 -0.577 -0.577
vn -0.577 -0.577 -0.577
vn -0.577 -0.577 -0.577
vn -0.577 -0.577 -0.577
vn -0.577 -0.577 -0.577
vn -0.577 -0.577 -0.577
vn -0.577 -0.577 -0.577
vn -0.577 -0.577 -0.577
vn -0.577 -0.577 -0.577
vn -0.577 -0.577 -0.577
vn -0.577 -0.577 -0.577
vn -0.577 -0.577 -0.577
vn -0.577 -0.577 -0.577
vn -0.577 -0.577 -0.577
vn -0.577 -0.577 -0.577
vn -0.577 -0.577 -0.577
vn -0.577 -0.577 -0.577
vn -0.577 -0.577 -0.577
vn -0.577 -0.577 -0.577
vn -0.577 -0.577 -0.577
vn -0.577 -0.577 -0.577
vn -0.577 -0.577 -0.577
vn -0.577 -0.577 -0.577
vn -0.577 -0.577 -0.577
vn -0.577 -0.577 -0.577
vn -0.577 -0.577 -0.577
vn -0.577 -0.577 -0.577
vn -0.577 -0.577 -0.577
vn -0.577 -0.577 -0.577
vn -0.577 -0.577 -0.577
vn -0.577 -0.577 -0.577
vn -0.577 -0.577 -0.577
vn -0.577 -0.577 -0.577
vn -0.577 -0.577 -0.577
vn -0.577 -0.577 -0.577
vn -0.577 -0.577 -0.577
vn -0.577 -0.577 -0.577
vn -0.577 -0.577 -0.577
usemtl tex_1447_lit
f 1/1/1 2/2/2 3/3/3
f 1/1/1 3/3/3 4/4/4
f 5/5/5 6/6/6 7/7/7
f 5/5/5 7/7/7 8/8/8
f 9/5/9 10/6/10 11/7/11
f 9/5/9 11/7/11 12/8/12
f 13/5/13 14/6/14 15/7/15
f 13/5/13 15/7/15 16/8/16
f 17/5/17 18/6/18 19/7/19
f 17/5/17 19/7/19 20/8/20
f 21/5/21 22/6/22 23/7/23
f 21/5/21 23/7/23 24/8/24
f 25/5/25 26/6/26 27/7/27
f 25/5/25 27/7/27 28/8/28
f 29/5/29 30/6/30 31/7/31
f 29/5/29 31/7/31 32/8/32
f 33/9/33 34/10/34 35/11/35
f 33/9/33 35/11/35 36/12/36
f 37/13/37 38/14/38 39/15/39
f 37/13/37 39/15/39 40/16/40
usemtl tex_2456_lit_sec
f 41/17/41 42/18/42 43/19/43
f 41/17/41 43/19/43 44/20/44
f 45/21/45 46/22/46 47/23/47
f 45/21/45 47/23/47 48/24/48
usemtl tex_1447_lit
f 49/1/49 50/2/50 51/3/51
f 49/1/49 51/3/51 52/4/52
f 53/5/53 54/6/54 55/7/55
f 53/5/53 55/7/55 56/8/56
f 57/5/57 58/6/58 59/7/59
f 57/5/57 59/7/59 60/8/60
f 61/5/61 62/6/62 63/7/63
f 61/5/61 63/7/63 64/8/64
f 65/5/65 66/6/66 67/7/67
f 65/5/65 67/7/67 68/8/68
f 69/5/69 70/6/70 71/7/71
f 69/5/69 71/7/71 72/8/72
f 73/5/73 74/6/74 75/7/75
f 73/5/73 75/7/75 76/8/76
f 77/5/77 78/6/78 79/7/79
f 77/5/77 79/7/79 80/8/80
f 81/9/81 82/10/82 83/11/83
f 81/9/81 83/11/83 84/12/84
f 85/13/85 86/14/86 87/15/87
f 85/13/85 87/15/87 88/16/88
usemtl tex_2456_lit_sec
f 89/21/89 90/22/90 91/23/91
f 89/21/89 91/23/91 92/24/92
f 93/17/93 94/18/94 95/19/95
f 93/17/93 95/19/95 96/20/96
usemtl tex_1447_lit
f 97/1/97 98/2/98 99/3/99
f 97/1/97 99/3/99 100/4/100
f 101/5/101 102/6/102 103/7/103
f 101/5/101 103/7/103 104/8/104
f 105/5/105 106/6/106 107/7/107
f 105/5/105 107/7/107 108/8/108
f 109/5/109 110/6/110 111/7/111
f 109/5/109 111/7/111 112/8/112
f 113/5/113 114/6/114 115/7/115
f 113/5/113 115/7/115 116/8/116
f 117/5/117 118/6/118 119/7/119
f 117/5/117 119/7/119 120/8/120
f 121/5/121 122/6/122 123/7/123
f 121/5/121 123/7/123 124/8/124
f 125/5/125 126/6/126 127/7/127
f 125/5/125 127/7/127 128/8/128
f 129/9/129 130/10/130 131/11/131
f 129/9/129 131/11/131 132/12/132
f 133/13/133 134/14/134 135/15/135
f 133/13/133 135/15/135 136/16/136
usemtl tex_2456_lit_sec
f 137/17/137 138/18/138 139/19/139
f 137/17/137 139/19/139 140/20/140
f 141/17/141 142/18/142 143/19/143
f 141/17/141 143/19/143 144/20/144
usemtl tex_1447_lit
f 145/1/145 146/2/146 147/3/147
f 145/1/145 147/3/147 148/4/148
f 149/5/149 150/6/150 151/7/151
f 149/5/149 151/7/151 152/8/152
f 153/5/153 154/6/154 155/7/155
f 153/5/153 155/7/155 156/8/156
f 157/5/157 158/6/158 159/7/159
f 157/5/157 159/7/159 160/8/160
f 161/5/161 162/6/162 163/7/163
f 161/5/161 163/7/163 164/8/164
f 165/5/165 166/6/166 167/7/167
f 165/5/165 167/7/167 168/8/168
f 169/5/169 170/6/170 171/7/171
f 169/5/169 171/7/171 172/8/172
f 173/5/173 174/6/174 175/7/175
f 173/5/173 175/7/175 176/8/176
f 177/9/177 178/10/178 179/11/179
f 177/9/177 179/11/179 180/12/180
f 181/13/181 182/14/182 183/15/183
f 181/13/181 183/15/183 184/16/184
usemtl tex_2456_lit_sec
f 185/17/185 186/18/186 187/19/187
f 185/17/185 187/19/187 188/20/188
f 189/17/189 190/18/190 191/19/191
f 189/17/189 191/19/191 192/20/192
usemtl tex_234_lit
f 193/25/193 194/26/194 195/27/195
f 196/28/196 197/29/197 198/30/198
f 198/30/198 199/31/199 196/28/196
f 200/32/200 201/33/201 202/34/202
f 200/32/200 203/35/203 201/33/201
f 204/36/204 205/37/205 206/38/206
f 195/27/195 194/26/194 207/39/207
f 204/36/204 208/40/208 205/37/205
f 209/41/209 210/42/210 211/43/211
f 209/41/209 211/43/211 212/44/212
usemtl tex_2457_lit
f 213/45/213 214/46/214 215/47/215
f 216/48/216 217/49/217 218/50/218
f 219/51/219 220/52/220 221/53/221
f 219/51/219 221/53/221 222/54/222
f 223/55/223 224/56/224 225/57/225
f 226/58/226 227/59/227 228/60/228
f 223/55/223 225/57/225 229/61/229
f 230/62/230 231/63/231 232/64/232
f 233/65/233 234/66/234 235/67/235
f 236/68/236 237/69/237 238/70/238
f 239/71/239 240/68/240 241/70/241
f 242/72/242 243/73/243 244/74/244
f 245/75/245 246/76/246 247/77/247
f 248/78/248 249/79/249 250/80/250
f 251/81/251 245/75/245 247/77/247
f 252/82/252 253/83/253 254/84/254
usemtl tex_2458_lit
f 255/85/255 256/86/256 257/87/257
f 255/85/255 258/88/258 256/86/256
f 259/89/259 260/87/260 261/90/261
f 259/89/259 255/85/255 260/87/260
usemtl tex_2459_lit
f 262/91/262 263/92/263 264/93/264
f 265/94/265 263/92/263 266/95/266
f 263/92/263 265/94/265 267/96/267
f 267/96/267 264/93/264 263/92/263
f 268/97/268 269/98/269 270/99/270
f 271/97/271 272/99/272 273/100/273
f 272/99/272 274/98/274 275/101/275
f 272/99/272 275/101/275 276/102/276
f 277/103/277 278/104/278 279/105/279
f 277/103/277 279/105/279 275/101/275
f 278/104/278 280/103/280 281/106/281
f 278/104/278 281/106/281 282/107/282
f 276/102/276 275/101/275 279/105/279
f 283/108/283 284/109/284 285/110/285
f 283/108/283 286/111/286 284/109/284
f 287/112/287 288/113/288 289/114/289
f 289/114/289 290/115/290 287/112/287
f 291/116/291 292/117/292 293/118/293
f 293/118/293 292/117/292 294/119/294
f 295/120/295 296/108/296 297/110/297
f 296/108/296 295/120/295 298/121/298
f 296/108/296 299/122/299 300/123/300
f 296/108/296 298/121/298 301/122/301
f 302/108/302 303/123/303 304/124/304
f 305/125/305 306/126/306 307/127/307
f 305/125/305 307/127/307 308/128/308
f 309/129/309 310/126/310 311/130/311
f 311/130/311 312/131/312 309/129/309
f 313/132/313 314/133/314 315/134/315
f 316/135/316 314/133/314 313/132/313
f 308/128/308 307/127/307 317/136/317
f 318/137/318 319/136/319 320/127/320
f 321/138/321 318/137/318 320/127/320
f 322/139/322 321/138/321 320/127/320
f 323/140/323 322/139/322 320/127/320
f 324/141/324 325/142/325 326/143/326
f 324/141/324 326/143/326 327/144/327
f 328/145/328 329/146/329 326/143/326
f 328/145/328 326/143/326 325/142/325
f 329/146/329 330/147/330 331/148/331
f 329/146/329 331/148/331 332/149/332
f 333/150/333 334/151/334 335/149/335
f 333/150/333 335/149/335 336/148/336
f 337/147/337 338/146/338 339/145/339
f 340/152/340 341/153/341 342/154/342
f 340/152/340 342/154/342 343/155/343
f 344/156/344 345/157/345 346/158/346
f 344/156/344 346/158/346 347/159/347
f 348/160/348 349/161/349 350/157/350
f 348/160/348 350/157/350 351/156/351
f 352/154/352 353/153/353 354/162/354
f 352/154/352 354/162/354 355/163/355
f 356/164/356 357/165/357 358/166/358
f 357/165/357 359/167/359 358/166/358
f 360/168/360 357/165/357 356/164/356
f 361/169/361 362/170/362 363/171/363
f 364/170/364 365/169/365 366/172/366
f 364/170/364 367/173/367 368/174/368
f 369/171/369 364/170/364 368/174/368
f 370/175/370 371/176/371 372/177/372
f 370/175/370 372/177/372 373/178/373
f 372/177/372 374/179/374 373/178/373
f 375/180/375 376/181/376 377/182/377
f 375/180/375 377/182/377 378/183/378
f 379/184/379 380/185/380 381/186/381
f 379/184/379 381/186/381 382/187/382
f 383/188/383 384/189/384 381/186/381
f 383/188/383 381/186/381 380/185/380
f 385/182/385 386/181/386 387/190/387
f 385/182/385 387/190/387 388/191/388
usemtl tex_1384_lit_ovl
f 389/192/389 390/193/390 391/194/391
f 389/192/389 391/194/391 392/195/392
f 393/196/393 394/197/394 395/198/395
f 393/196/393 395/198/395 396/199/396
f 397/200/397 398/201/398 399/202/399
f 397/200/397 399/202/399 400/203/400
f 401/204/401 402/205/402 403/206/403
f 401/204/401 403/206/403 404/207/404
usemtl tex_655_lit_env_ds_w11_ovl
f 405/208/405 406/208/406 407/208/407
f 405/208/405 407/208/407 408/208/408
usemtl tex_655_lit_env_w11_ovl
f 409/208/409 410/208/410 411/208/411
f 409/208/409 411/208/411 412/208/412
usemtl tex_655_lit_env_w11
f 413/209/413 414/209/414 415/210/415
f 413/209/413 415/210/415 416/210/416
f 417/211/417 418/211/418 414/209/414
f 417/211/417 414/209/414 413/209/413
f 419/212/419 420/212/420 421/212/421
f 419/212/419 421/212/421 422/212/422
f 422/212/422 421/212/421 423/212/423
f 422/212/422 423/212/423 424/212/424
f 425/213/425 426/213/426 427/213/427
f 425/213/425 427/213/427 428/213/428
f 429/213/429 430/213/430 431/213/431
f 429/213/429 431/213/431 432/213/432
usemtl tex_762_lit_ovl
f 433/214/433 434/215/434 435/216/435
f 433/214/433 435/216/435 436/217/436
f 437/218/437 438/219/438 439/220/439
f 437/218/437 439/220/439 440/221/440
usemtl tex_824_lit
f 441/222/441 442/223/442 443/223/443
f 444/224/444 445/225/445 446/226/446
f 446/226/446 445/225/445 447/227/447
f 448/228/448 449/228/449 450/229/450
f 451/230/451 452/222/452 453/223/453
f 454/226/454 455/231/455 456/232/456
f 454/226/454 456/232/456 457/224/457
f 448/228/448 450/229/450 458/233/458
f 459/234/459 460/223/460 461/235/461
f 452/222/452 461/235/461 460/223/460
f 449/228/449 462/236/462 463/229/463
f 464/237/464 465/228/465 466/228/466
f 467/236/467 468/228/468 464/237/464
f 469/234/469 470/223/470 471/223/471
f 470/223/470 469/234/469 472/234/472
f 473/237/473 464/237/464 466/228/466
f 474/238/474 475/239/475 476/240/476
f 477/241/477 478/242/478 479/242/479
f 480/240/480 481/239/481 482/243/482
f 483/244/483 484/245/484 485/246/485
f 485/246/485 484/245/484 486/247/486
f 487/248/487 488/248/488 489/249/489
f 490/250/490 491/241/491 492/242/492
f 493/246/493 494/251/494 495/252/495
f 496/246/496 497/252/497 498/244/498
f 499/248/499 500/249/500 501/253/501
f 502/254/502 503/255/503 504/240/504
f 505/243/505 502/254/502 504/240/504
f 506/256/506 507/242/507 508/257/508
f 509/241/509 508/257/508 507/242/507
usemtl tex_824_lit_ovl
f 510/248/510 511/258/511 512/249/512
usemtl tex_824_lit
f 513/259/513 514/248/514 515/248/515
usemtl tex_824_lit_ovl
f 511/258/511 510/248/510 516/259/516
usemtl tex_824_lit
f 517/256/517 518/242/518 519/242/519
f 518/242/518 517/256/517 520/256/520
f 521/259/521 513/259/513 515/248/515
usemtl tex_2461_lit
f 522/260/522 523/261/523 524/262/524
f 525/263/525 526/264/526 527/260/527
f 526/264/526 528/261/528 527/260/527
f 527/260/527 529/262/529 530/265/530
usemtl tex_2462_lit
f 531/266/531 532/267/532 533/268/533
f 531/266/531 533/268/533 534/269/534
f 535/270/535 536/271/536 537/272/537
f 536/271/536 538/273/538 537/272/537
usemtl tex_2460_lit_ovl
f 539/274/539 540/275/540 541/276/541
f 539/274/539 541/276/541 542/277/542
f 543/278/543 544/279/544 540/275/540
f 543/278/543 540/275/540 539/274/539
f 545/280/545 546/281/546 547/282/547
usemtl tex_2460_lit
f 546/281/546 548/280/548 549/283/549
usemtl tex_2460_lit_ovl
f 546/281/546 549/283/549 550/284/550
usemtl tex_2460_lit
f 551/277/551 541/276/541 552/285/552
f 553/286/553 554/287/554 555/288/555
usemtl tex_2460_lit_ovl
f 553/286/553 555/288/555 556/289/556
usemtl tex_2460_lit
f 556/289/556 557/288/557 558/290/558
usemtl tex_2460_lit_ovl
f 556/289/556 558/290/558 559/291/559
f 560/292/560 561/293/561 562/294/562
f 563/295/563 564/296/564 561/293/561
f 563/295/563 561/293/561 560/292/560
f 559/291/559 565/290/565 566/297/566
