mtllib PchrgoldenZ.mtl
v -154.0 6.0 23.0 1.000 1.000 1.000
v -154.0 -5.0 23.0 1.000 1.000 1.000
v -154.0 -5.0 37.0 1.000 1.000 1.000
v -154.0 6.0 37.0 1.000 1.000 1.000
v -154.0 6.0 37.0 1.000 1.000 1.000
v -154.0 -5.0 37.0 1.000 1.000 1.000
v -29.0 -5.0 37.0 1.000 1.000 1.000
v -29.0 6.0 37.0 1.000 1.000 1.000
v -29.0 6.0 23.0 1.000 1.000 1.000
v -29.0 -5.0 23.0 1.000 1.000 1.000
v -154.0 -5.0 23.0 1.000 1.000 1.000
v -154.0 6.0 23.0 1.000 1.000 1.000
v -29.0 6.0 37.0 1.000 1.000 1.000
v -29.0 -5.0 37.0 1.000 1.000 1.000
v -29.0 -5.0 23.0 1.000 1.000 1.000
v -29.0 6.0 23.0 1.000 1.000 1.000
v -154.0 6.0 37.0 1.000 1.000 1.000
v -29.0 6.0 37.0 1.000 1.000 1.000
v -29.0 6.0 23.0 1.000 1.000 1.000
v -154.0 6.0 23.0 1.000 1.000 1.000
v -154.0 -5.0 23.0 1.000 1.000 1.000
v -29.0 -5.0 23.0 1.000 1.000 1.000
v -29.0 -5.0 37.0 1.000 1.000 1.000
v -154.0 -5.0 37.0 1.000 1.000 1.000
v -29.0 8.0 39.0 1.000 1.000 1.000
v -29.0 -7.0 39.0 1.000 1.000 1.000
v 82.0 -7.0 39.0 1.000 1.000 1.000
v 82.0 8.0 39.0 1.000 1.000 1.000
v -29.0 8.0 -12.0 1.000 1.000 1.000
v -29.0 -7.0 -12.0 1.000 1.000 1.000
v -29.0 -7.0 39.0 1.000 1.000 1.000
v -29.0 8.0 39.0 1.000 1.000 1.000
v 82.0 8.0 -12.0 1.000 1.000 1.000
v 82.0 -7.0 -12.0 1.000 1.000 1.000
v -29.0 -7.0 -12.0 1.000 1.000 1.000
v -29.0 8.0 -12.0 1.000 1.000 1.000
v 82.0 8.0 39.0 1.000 1.000 1.000
v 82.0 -7.0 39.0 1.000 1.000 1.000
v 82.0 -7.0 -12.0 1.000 1.000 1.000
v 82.0 8.0 -12.0 1.000 1.000 1.000
v -29.0 8.0 39.0 1.000 1.000 1.000
v 82.0 8.0 39.0 1.000 1.000 1.000
v 82.0 8.0 -12.0 1.000 1.000 1.000
v -29.0 8.0 -12.0 1.000 1.000 1.000
v -29.0 -7.0 -12.0 1.000 1.000 1.000
v 82.0 -7.0 -12.0 1.000 1.000 1.000
v 82.0 -7.0 39.0 1.000 1.000 1.000
v -29.0 -7.0 39.0 1.000 1.000 1.000
v 22.0 6.0 -83.0 1.000 1.000 1.000
v 22.0 -5.0 -83.0 1.000 1.000 1.000
v 22.0 -5.0 -12.0 1.000 1.000 1.000
v 22.0 6.0 -12.0 1.000 1.000 1.000
v 61.0 6.0 -83.0 1.000 1.000 1.000
v 61.0 -5.0 -83.0 1.000 1.000 1.000
v 22.0 -5.0 -83.0 1.000 1.000 1.000
v 22.0 6.0 -83.0 1.000 1.000 1.000
v 61.0 6.0 -12.0 1.000 1.000 1.000
v 61.0 -5.0 -12.0 1.000 1.000 1.000
v 61.0 -5.0 -83.0 1.000 1.000 1.000
v 61.0 6.0 -83.0 1.000 1.000 1.000
v 22.0 -5.0 -83.0 1.000 1.000 1.000
v 61.0 -5.0 -83.0 1.000 1.000 1.000
v 61.0 -5.0 -12.0 1.000 1.000 1.000
v 22.0 -5.0 -12.0 1.000 1.000 1.000
v 22.0 6.0 -12.0 1.000 1.000 1.000
v 61.0 6.0 -12.0 1.000 1.000 1.000
v 61.0 6.0 -83.0 1.000 1.000 1.000
v 22.0 6.0 -83.0 1.000 1.000 1.000
vt -0.1348 0.4336
vt -0.1436 0.3701
vt 0.2655 0.4801
vt 0.2655 0.5199
vt 0.7345 0.5199
vt 0.7345 0.4801
vt 0.9995 0.4881
vt 0.9995 0.5119
vt 0.2141 0.0910
vt 0.7859 0.0910
vt 0.2141 0.9090
vt 0.7859 0.9090
vt 0.3057 0.4762
vt 0.3057 0.5238
vt 0.6943 0.5238
vt 0.6943 0.4762
vt 0.0061 0.4802
vt 0.0061 0.5198
vt 0.9939 0.4802
vt 0.9939 0.5198
vt 0.2421 0.0874
vt 0.7579 0.0874
vt 0.2421 0.9126
vt 0.7579 0.9126
vt 0.0189 0.4763
vt 0.0189 0.5237
vt 0.0399 0.5238
vt 0.0399 0.4762
vt 0.5873 0.4802
vt 0.5873 0.5198
vt 0.4127 0.5198
vt 0.4127 0.4802
vt 0.9601 0.4762
vt 0.9601 0.5238
vt 0.9811 0.5237
vt 0.9811 0.4763
vt 0.3735 0.9466
vt 0.6265 0.9466
vt 0.6151 0.9126
vt 0.3849 0.9126
vt 0.3849 0.0874
vt 0.6151 0.0874
vt 0.6265 0.0534
vt 0.3735 0.0534
vn -1.000 0.000 0.000
vn -1.000 0.000 0.000
vn -1.000 0.000 0.000
vn -1.000 0.000 0.000
vn -0.469 0.040 0.882
vn -0.469 -0.040 0.882
vn 0.469 -0.040 0.882
vn 0.469 0.040 0.882
vn 0.469 0.040 -0.882
vn 0.469 -0.040 -0.882
vn -0.469 -0.040 -0.882
vn -0.469 0.040 -0.882
vn 0.999 0.024 0.040
vn 0.999 -0.024 0.040
vn 0.999 -0.024 -0.040
vn 0.999 0.024 -0.040
vn -0.572 0.818 0.064
vn 0.572 0.818 0.064
vn 0.572 0.818 -0.064
vn -0.572 0.818 -0.064
vn -0.572 -0.818 -0.064
vn 0.572 -0.818 -0.064
vn 0.572 -0.818 0.064
vn -0.572 -0.818 0.064
vn -0.389 0.048 0.920
vn -0.389 -0.048 0.920
vn 0.389 -0.048 0.920
vn 0.389 0.048 0.920
vn -0.988 0.040 -0.150
vn -0.988 -0.040 -0.150
vn -0.988 -0.040 0.150
vn -0.988 0.040 0.150
vn 0.389 0.048 -0.920
vn 0.389 -0.048 -0.920
vn -0.389 -0.048 -0.920
vn -0.389 0.048 -0.920
vn 0.988 0.040 0.150
vn 0.988 -0.040 0.150
vn 0.988 -0.040 -0.150
vn 0.988 0.040 -0.150
vn -0.516 0.825 0.230
vn 0.516 0.825 0.230
vn 0.516 0.825 -0.230
vn -0.516 0.825 -0.230
vn -0.516 -0.825 -0.230
vn 0.516 -0.825 -0.230
vn 0.516 -0.825 0.230
vn -0.516 -0.825 0.230
vn -0.962 0.047 -0.268
vn -0.962 -0.047 -0.268
vn -0.920 -0.048 0.389
vn -0.920 0.048 0.389
vn 0.175 0.040 -0.984
vn 0.175 -0.040 -0.984
vn -0.175 -0.040 -0.984
vn -0.175 0.040 -0.984
vn 0.920 0.048 0.389
vn 0.920 -0.048 0.389
vn 0.962 -0.047 -0.268
vn 0.962 0.047 -0.268
vn -0.253 -0.893 -0.372
vn 0.253 -0.893 -0.372
vn 0.230 -0.825 0.516
vn -0.230 -0.825 0.516
vn -0.230 0.825 0.516
vn 0.230 0.825 0.516
vn 0.253 0.893 -0.372
vn -0.253 0.893 -0.372
usemtl tex_661_lit
f 1/1/1 2/1/2 3/2/3
f 1/1/1 3/2/3 4/2/4
usemtl tex_661_lit_env
f 5/3/5 6/4/6 7/5/7
f 5/3/5 7/5/7 8/6/8
f 9/6/9 10/5/10 11/4/11
f 9/6/9 11/4/11 12/3/12
f 13/7/13 14/8/14 15/8/15
f 13/7/13 15/8/15 16/7/16
f 17/9/17 18/10/18 19/10/19
f 17/9/17 19/10/19 20/9/20
f 21/11/21 22/12/22 23/12/23
f 21/11/21 23/12/23 24/11/24
f 25/13/25 26/14/26 27/15/27
f 25/13/25 27/15/27 28/16/28
f 29/17/29 30/18/30 31/18/31
f 29/17/29 31/18/31 32/17/32
f 33/16/33 34/15/34 35/14/35
f 33/16/33 35/14/35 36/13/36
f 37/19/37 38/20/38 39/20/39
f 37/19/37 39/20/39 40/19/40
f 41/21/41 42/22/42 43/22/43
f 41/21/41 43/22/43 44/21/44
f 45/23/45 46/24/46 47/24/47
f 45/23/45 47/24/47 48/23/48
f 49/25/49 50/26/50 51/27/51
f 49/25/49 51/27/51 52/28/52
f 53/29/53 54/30/54 55/31/55
f 53/29/53 55/31/55 56/32/56
f 57/33/57 58/34/58 59/35/59
f 57/33/57 59/35/59 60/36/60
f 61/37/61 62/38/62 63/39/63
f 61/37/61 63/39/63 64/40/64
f 65/41/65 66/42/66 67/43/67
f 65/41/65 67/43/67 68/44/68
