mtllib PchrknifeZ.mtl
v -11.0 8.0 -147.0 1.000 1.000 1.000
v -11.0 -8.0 -147.0 1.000 1.000 1.000
v -11.0 -8.0 -29.0 1.000 1.000 1.000
v -11.0 8.0 -29.0 1.000 1.000 1.000
v -11.0 -8.0 -29.0 1.000 1.000 1.000
v -11.0 -8.0 -147.0 1.000 1.000 1.000
v 14.0 0.0 -147.0 1.000 1.000 1.000
v 14.0 0.0 -29.0 1.000 1.000 1.000
v 14.0 0.0 -29.0 1.000 1.000 1.000
v 14.0 0.0 -147.0 1.000 1.000 1.000
v -11.0 8.0 -147.0 1.000 1.000 1.000
v -11.0 8.0 -29.0 1.000 1.000 1.000
v 26.0 4.0 106.0 1.000 1.000 1.000
v -23.0 0.0 94.0 1.000 1.000 1.000
v 14.0 4.0 163.0 1.000 1.000 1.000
v 26.0 4.0 -21.0 1.000 1.000 1.000
v -23.0 0.0 -21.0 1.000 1.000 1.000
v 14.0 -4.0 163.0 1.000 1.000 1.000
v -23.0 0.0 94.0 1.000 1.000 1.000
v 26.0 -4.0 106.0 1.000 1.000 1.000
v -23.0 0.0 -21.0 1.000 1.000 1.000
v 26.0 -4.0 -21.0 1.000 1.000 1.000
v -11.0 0.0 184.0 1.000 1.000 1.000
v 14.0 0.0 245.0 1.000 1.000 1.000
v -11.0 0.0 184.0 1.000 1.000 1.000
v 38.0 12.0 -29.0 1.000 1.000 1.000
v 38.0 -12.0 -29.0 1.000 1.000 1.000
v -35.0 -12.0 -29.0 1.000 1.000 1.000
v 38.0 12.0 -29.0 1.000 1.000 1.000
v -35.0 -12.0 -29.0 1.000 1.000 1.000
v -35.0 12.0 -29.0 1.000 1.000 1.000
v -35.0 12.0 -21.0 1.000 1.000 1.000
v -35.0 -12.0 -21.0 1.000 1.000 1.000
v 38.0 -12.0 -21.0 1.000 1.000 1.000
v 38.0 12.0 -21.0 1.000 1.000 1.000
v 38.0 -12.0 -29.0 1.000 1.000 1.000
v -11.0 -8.0 -147.0 1.000 1.000 1.000
v -11.0 8.0 -147.0 1.000 1.000 1.000
v 14.0 0.0 -147.0 1.000 1.000 1.000
vt 8.7891 1.0000
vt 8.7891 -0.8125
vt 0.0000 -0.8125
vt 0.0000 1.0000
vt 8.9141 1.0000
vt 8.9141 -1.9062
vt 0.0000 -1.9062
vt 8.8418 1.0000
vt 8.8418 -1.9062
vt 0.8573 0.1506
vt 0.3533 0.0244
vt 0.8089 0.1515
vt 0.7899 0.2220
vt 0.3971 0.1202
vt 0.8122 0.8477
vt 0.3618 0.9778
vt 0.8573 0.8494
vt 0.3971 0.8798
vt 0.7899 0.7780
vt 0.3617 0.0694
vt 0.8728 0.5040
vt 0.3849 0.9406
vt 0.7887 0.2113
vt 0.7887 0.7887
vt 0.2113 0.7887
vt 0.2113 0.2113
vt 0.2783 0.8089
vt 0.2783 0.1911
vt 0.7654 0.5000
vn -0.577 -0.577 -0.577
vn -0.577 -0.577 -0.577
vn -0.577 -0.577 -0.577
vn -0.577 -0.577 -0.577
vn -0.577 -0.577 -0.577
vn -0.577 -0.577 -0.577
vn -0.577 -0.577 -0.577
vn -0.577 -0.577 -0.577
vn -0.577 -0.577 -0.577
vn -0.577 -0.577 -0.577
vn -0.577 -0.577 -0.577
vn -0.577 -0.577 -0.577
vn 0.715 0.699 0.032
vn -0.293 0.951 -0.095
vn 0.618 0.697 0.364
vn 0.580 0.556 -0.596
vn -0.206 0.760 -0.617
vn 0.624 -0.695 0.356
vn -0.276 -0.956 -0.103
vn 0.715 -0.699 0.032
vn -0.206 -0.760 -0.617
vn 0.580 -0.556 -0.596
vn -0.277 0.861 0.427
vn 0.746 -0.008 0.666
vn -0.230 -0.881 0.413
vn 0.577 0.577 -0.577
vn 0.577 -0.577 -0.577
vn -0.577 -0.577 -0.577
vn 0.577 0.577 -0.577
vn -0.577 -0.577 -0.577
vn -0.577 0.577 -0.577
vn -0.577 0.577 0.577
vn -0.577 -0.577 0.577
vn 0.577 -0.577 0.577
vn 0.577 0.577 0.577
vn 0.577 -0.577 -0.577
vn -0.443 -0.618 -0.649
vn -0.443 0.618 -0.649
vn 0.531 0.000 -0.848
usemtl tex_880_lit
f 1/1/1 2/2/2 3/3/3
f 1/1/1 3/3/3 4/4/4
f 5/4/5 6/5/6 7/6/7
f 5/4/5 7/6/7 8/7/8
f 9/4/9 10/8/10 11/9/11
f 9/4/9 11/9/11 12/7/12
usemtl tex_267_lit_env
f 13/10/13 14/11/14 15/12/15
f 16/13/16 17/14/17 14/11/14
f 16/13/16 14/11/14 13/10/13
f 18/15/18 19/16/19 20/17/20
f 20/17/20 19/16/19 21/18/21
f 20/17/20 21/18/21 22/19/22
f 15/12/15 14/11/14 23/20/23
f 15/12/15 23/20/23 24/21/24
f 24/21/24 25/22/25 19/16/19
f 24/21/24 19/16/19 18/15/18
f 22/19/22 16/13/16 13/10/13
f 22/19/22 13/10/13 20/17/20
f 18/15/18 20/17/20 13/10/13
f 18/15/18 13/10/13 15/12/15
f 18/15/18 15/12/15 24/21/24
f 26/23/26 27/24/27 28/25/28
f 29/23/29 30/25/30 31/26/31
f 32/26/32 33/25/33 34/24/34
f 32/26/32 34/24/34 35/23/35
f 30/25/30 33/25/33 32/26/32
f 30/25/30 32/26/32 31/26/31
f 31/26/31 32/26/32 35/23/35
f 31/26/31 35/23/35 29/23/29
f 36/24/36 29/23/29 35/23/35
f 36/24/36 35/23/35 34/24/34
f 34/24/34 33/25/33 30/25/30
f 34/24/34 30/25/30 36/24/36
f 37/27/37 38/28/38 39/29/39
