mtllib PchrthrowknifeZ.mtl
v -58.0 -8.0 165.0 1.000 1.000 1.000
v -58.0 8.0 165.0 1.000 1.000 1.000
v -27.0 8.0 51.0 1.000 1.000 1.000
v -27.0 -8.0 51.0 1.000 1.000 1.000
v -27.0 8.0 51.0 1.000 1.000 1.000
v -58.0 8.0 165.0 1.000 1.000 1.000
v -34.0 0.0 172.0 1.000 1.000 1.000
v -3.0 0.0 57.0 1.000 1.000 1.000
v -3.0 0.0 57.0 1.000 1.000 1.000
v -34.0 0.0 172.0 1.000 1.000 1.000
v -58.0 -8.0 165.0 1.000 1.000 1.000
v -27.0 -8.0 51.0 1.000 1.000 1.000
v 43.0 -4.0 -70.0 1.000 1.000 1.000
v -7.0 0.0 -71.0 1.000 1.000 1.000
v 46.0 -4.0 -128.0 1.000 1.000 1.000
v 11.0 -4.0 53.0 1.000 1.000 1.000
v -37.0 0.0 40.0 1.000 1.000 1.000
v 46.0 4.0 -128.0 1.000 1.000 1.000
v -7.0 0.0 -71.0 1.000 1.000 1.000
v 43.0 4.0 -70.0 1.000 1.000 1.000
v -37.0 0.0 40.0 1.000 1.000 1.000
v 11.0 4.0 53.0 1.000 1.000 1.000
v 28.0 0.0 -154.0 1.000 1.000 1.000
v 67.0 0.0 -207.0 1.000 1.000 1.000
v 28.0 0.0 -154.0 1.000 1.000 1.000
v 20.0 -12.0 64.0 1.000 1.000 1.000
v 20.0 12.0 64.0 1.000 1.000 1.000
v -51.0 12.0 45.0 1.000 1.000 1.000
v 20.0 -12.0 64.0 1.000 1.000 1.000
v -51.0 12.0 45.0 1.000 1.000 1.000
v -51.0 -12.0 45.0 1.000 1.000 1.000
v -49.0 -12.0 37.0 1.000 1.000 1.000
v -49.0 12.0 37.0 1.000 1.000 1.000
v 22.0 12.0 56.0 1.000 1.000 1.000
v 22.0 -12.0 56.0 1.000 1.000 1.000
v 20.0 12.0 64.0 1.000 1.000 1.000
v -58.0 8.0 165.0 1.000 1.000 1.000
v -58.0 -8.0 165.0 1.000 1.000 1.000
v -34.0 0.0 172.0 1.000 1.000 1.000
vt 8.7891 1.0000
vt 8.7891 -0.8125
vt 0.0000 -0.8125
vt 0.0000 1.0000
vt 8.9141 1.0000
vt 8.9141 -1.9062
vt 0.0000 -1.9062
vt 8.8418 1.0000
vt 8.8418 -1.9062
vt 0.8495 0.8495
vt 0.3455 0.9755
vt 0.8451 0.8491
vt 0.7018 0.7770
vt 0.3221 0.8794
vt 0.8477 0.1523
vt 0.3502 0.0231
vt 0.8495 0.1505
vt 0.3221 0.1206
vt 0.7018 0.2230
vt 0.4248 0.9314
vt 0.9464 0.4960
vt 0.4405 0.0600
vt 0.7025 0.7899
vt 0.7025 0.2101
vt 0.1465 0.2101
vt 0.1465 0.7899
vt 0.2975 0.7899
vt 0.2975 0.2101
vt 0.8535 0.2101
vt 0.8535 0.7899
vt 0.2029 0.1910
vt 0.2029 0.8090
vt 0.6462 0.5000
vn -0.577 -0.577 -0.577
vn -0.577 -0.577 -0.577
vn -0.577 -0.577 -0.577
vn -0.577 -0.577 -0.577
vn -0.577 -0.577 -0.577
vn -0.577 -0.577 -0.577
vn -0.577 -0.577 -0.577
vn -0.577 -0.577 -0.577
vn -0.577 -0.577 -0.577
vn -0.577 -0.577 -0.577
vn -0.577 -0.577 -0.577
vn -0.577 -0.577 -0.577
vn 0.699 -0.699 0.151
vn -0.309 -0.951 0.016
vn 0.690 -0.698 -0.190
vn 0.404 -0.554 0.728
vn -0.356 -0.759 0.545
vn 0.695 0.695 -0.182
vn -0.300 0.954 0.024
vn 0.699 0.699 0.151
vn -0.356 0.759 0.545
vn 0.404 0.554 0.728
vn -0.150 -0.863 -0.483
vn 0.893 0.008 -0.450
vn -0.119 0.880 -0.460
vn 0.405 -0.580 0.707
vn 0.405 0.580 0.707
vn -0.707 0.580 0.405
vn 0.405 -0.580 0.707
vn -0.707 0.580 0.405
vn -0.707 -0.580 0.405
vn -0.405 -0.580 -0.707
vn -0.405 0.580 -0.707
vn 0.707 0.580 -0.405
vn 0.707 -0.580 -0.405
vn 0.405 0.580 0.707
vn -0.594 0.618 0.515
vn -0.594 -0.618 0.515
vn 0.292 0.000 0.956
usemtl tex_880_lit
f 1/1/1 2/2/2 3/3/3
f 1/1/1 3/3/3 4/4/4
f 5/4/5 6/5/6 7/6/7
f 5/4/5 7/6/7 8/7/8
f 9/4/9 10/8/10 11/9/11
f 9/4/9 11/9/11 12/7/12
usemtl tex_267_lit_env
f 13/10/13 14/11/14 15/12/15
f 16/13/16 17/14/17 14/11/14
f 16/13/16 14/11/14 13/10/13
f 18/15/18 19/16/19 20/17/20
f 20/17/20 19/16/19 21/18/21
f 20/17/20 21/18/21 22/19/22
f 15/12/15 14/11/14 23/20/23
f 15/12/15 23/20/23 24/21/24
f 24/21/24 25/22/25 19/16/19
f 24/21/24 19/16/19 18/15/18
f 22/19/22 16/13/16 13/10/13
f 22/19/22 13/10/13 20/17/20
f 18/15/18 20/17/20 13/10/13
f 18/15/18 13/10/13 15/12/15
f 18/15/18 15/12/15 24/21/24
f 26/23/26 27/24/27 28/25/28
f 29/23/29 30/25/30 31/26/31
f 32/27/32 33/28/33 34/29/34
f 32/27/32 34/29/34 35/30/35
f 30/25/30 33/28/33 32/27/32
f 30/25/30 32/27/32 31/26/31
f 31/26/31 32/27/32 35/30/35
f 31/26/31 35/30/35 29/23/29
f 36/24/36 29/23/29 35/30/35
f 36/24/36 35/30/35 34/29/34
f 34/29/34 33/28/33 30/25/30
f 34/29/34 30/25/30 36/24/36
f 37/31/37 38/32/38 39/33/39
