mtllib Pdest_engineZ.mtl
v -322.0 607.0 835.0 1.000 1.000 1.000
v -846.0 295.0 406.0 1.000 1.000 1.000
v -846.0 0.0 501.0 1.000 1.000 1.000
v -322.0 0.0 1032.0 1.000 1.000 1.000
v -322.0 982.0 319.0 1.000 1.000 1.000
v -846.0 477.0 155.0 1.000 1.000 1.000
v -846.0 295.0 406.0 1.000 1.000 1.000
v -322.0 607.0 835.0 1.000 1.000 1.000
v -322.0 982.0 -319.0 1.000 1.000 1.000
v -846.0 477.0 -155.0 1.000 1.000 1.000
v -846.0 477.0 155.0 1.000 1.000 1.000
v -322.0 982.0 319.0 1.000 1.000 1.000
v -322.0 607.0 -835.0 1.000 1.000 1.000
v -846.0 295.0 -406.0 1.000 1.000 1.000
v -846.0 477.0 -155.0 1.000 1.000 1.000
v -322.0 982.0 -319.0 1.000 1.000 1.000
v -322.0 0.0 -1032.0 1.000 1.000 1.000
v -846.0 0.0 -501.0 1.000 1.000 1.000
v -846.0 295.0 -406.0 1.000 1.000 1.000
v -322.0 607.0 -835.0 1.000 1.000 1.000
v -322.0 -607.0 -835.0 1.000 1.000 1.000
v -846.0 -295.0 -406.0 1.000 1.000 1.000
v -846.0 0.0 -501.0 1.000 1.000 1.000
v -322.0 0.0 -1032.0 1.000 1.000 1.000
v -322.0 -982.0 -319.0 1.000 1.000 1.000
v -846.0 -477.0 -155.0 1.000 1.000 1.000
v -846.0 -295.0 -406.0 1.000 1.000 1.000
v -322.0 -607.0 -835.0 1.000 1.000 1.000
v -322.0 -982.0 319.0 1.000 1.000 1.000
v -846.0 -477.0 155.0 1.000 1.000 1.000
v -846.0 -477.0 -155.0 1.000 1.000 1.000
v -322.0 -982.0 -319.0 1.000 1.000 1.000
v -322.0 -607.0 835.0 1.000 1.000 1.000
v -846.0 -295.0 406.0 1.000 1.000 1.000
v -846.0 -477.0 155.0 1.000 1.000 1.000
v -322.0 -982.0 319.0 1.000 1.000 1.000
v -322.0 0.0 1032.0 1.000 1.000 1.000
v -846.0 0.0 501.0 1.000 1.000 1.000
v -846.0 -295.0 406.0 1.000 1.000 1.000
v -322.0 -607.0 835.0 1.000 1.000 1.000
v 1851.0 607.0 -835.0 1.000 1.000 1.000
v 2611.0 295.0 -406.0 1.000 1.000 1.000
v 2611.0 0.0 -501.0 1.000 1.000 1.000
v 1851.0 0.0 -1032.0 1.000 1.000 1.000
v 1851.0 982.0 -319.0 1.000 1.000 1.000
v 2611.0 477.0 -155.0 1.000 1.000 1.000
v 2611.0 295.0 -406.0 1.000 1.000 1.000
v 1851.0 607.0 -835.0 1.000 1.000 1.000
v 1851.0 982.0 319.0 1.000 1.000 1.000
v 2611.0 477.0 155.0 1.000 1.000 1.000
v 2611.0 477.0 -155.0 1.000 1.000 1.000
v 1851.0 982.0 -319.0 1.000 1.000 1.000
v 1851.0 607.0 835.0 1.000 1.000 1.000
v 2611.0 295.0 406.0 1.000 1.000 1.000
v 2611.0 477.0 155.0 1.000 1.000 1.000
v 1851.0 982.0 319.0 1.000 1.000 1.000
v 1851.0 0.0 1032.0 1.000 1.000 1.000
v 2611.0 0.0 501.0 1.000 1.000 1.000
v 2611.0 295.0 406.0 1.000 1.000 1.000
v 1851.0 607.0 835.0 1.000 1.000 1.000
v 1851.0 -607.0 835.0 1.000 1.000 1.000
v 2611.0 -295.0 406.0 1.000 1.000 1.000
v 2611.0 0.0 501.0 1.000 1.000 1.000
v 1851.0 0.0 1032.0 1.000 1.000 1.000
v 1851.0 -982.0 319.0 1.000 1.000 1.000
v 2611.0 -477.0 155.0 1.000 1.000 1.000
v 2611.0 -295.0 406.0 1.000 1.000 1.000
v 1851.0 -607.0 835.0 1.000 1.000 1.000
v 1851.0 -982.0 -319.0 1.000 1.000 1.000
v 2611.0 -477.0 -155.0 1.000 1.000 1.000
v 2611.0 -477.0 155.0 1.000 1.000 1.000
v 1851.0 -982.0 319.0 1.000 1.000 1.000
v 1851.0 -607.0 -835.0 1.000 1.000 1.000
v 2611.0 -295.0 -406.0 1.000 1.000 1.000
v 2611.0 -477.0 -155.0 1.000 1.000 1.000
v 1851.0 -982.0 -319.0 1.000 1.000 1.000
v 1851.0 0.0 -1032.0 1.000 1.000 1.000
v 2611.0 0.0 -501.0 1.000 1.000 1.000
v 2611.0 -295.0 -406.0 1.000 1.000 1.000
v 1851.0 -607.0 -835.0 1.000 1.000 1.000
v -3587.0 -70.0 560.0 1.000 1.000 1.000
v -3121.0 -70.0 560.0 1.000 1.000 1.000
v -3121.0 -70.0 -560.0 1.000 1.000 1.000
v -3587.0 -70.0 -560.0 1.000 1.000 1.000
v -3587.0 -980.0 -560.0 1.000 1.000 1.000
v -3587.0 -70.0 -560.0 1.000 1.000 1.000
v -3121.0 -70.0 -560.0 1.000 1.000 1.000
v -3121.0 -980.0 -560.0 1.000 1.000 1.000
v -3121.0 -980.0 560.0 1.000 1.000 1.000
v -3121.0 -70.0 560.0 1.000 1.000 1.000
v -3587.0 -70.0 560.0 1.000 1.000 1.000
v -3587.0 -980.0 560.0 1.000 1.000 1.000
v -3587.0 -980.0 560.0 1.000 1.000 1.000
v -3587.0 -70.0 560.0 1.000 1.000 1.000
v -3587.0 -70.0 -560.0 1.000 1.000 1.000
v -3587.0 -980.0 -560.0 1.000 1.000 1.000
v 3719.0 700.0 -700.0 1.000 1.000 1.000
v 4025.0 700.0 -700.0 1.000 1.000 1.000
v 4025.0 350.0 -1050.0 1.000 1.000 1.000
v 3719.0 350.0 -1050.0 1.000 1.000 1.000
v 3719.0 350.0 -1050.0 1.000 1.000 1.000
v 4025.0 350.0 -1050.0 1.000 1.000 1.000
v 4025.0 -980.0 -1050.0 1.000 1.000 1.000
v 3719.0 -980.0 -1050.0 1.000 1.000 1.000
v 4025.0 350.0 1050.0 1.000 1.000 1.000
v 3719.0 350.0 1050.0 1.000 1.000 1.000
v 3719.0 -980.0 1050.0 1.000 1.000 1.000
v 4025.0 -980.0 1050.0 1.000 1.000 1.000
v 4025.0 700.0 700.0 1.000 1.000 1.000
v 3719.0 700.0 700.0 1.000 1.000 1.000
v 3719.0 350.0 1050.0 1.000 1.000 1.000
v 4025.0 350.0 1050.0 1.000 1.000 1.000
v 3719.0 700.0 700.0 1.000 1.000 1.000
v 4025.0 700.0 700.0 1.000 1.000 1.000
v 4025.0 700.0 -700.0 1.000 1.000 1.000
v 3719.0 700.0 -700.0 1.000 1.000 1.000
v -5804.0 -303.0 -258.0 1.000 1.000 1.000
v -3587.0 -303.0 -258.0 1.000 1.000 1.000
v -3587.0 -490.0 -319.0 1.000 1.000 1.000
v -5804.0 -490.0 -319.0 1.000 1.000 1.000
v -5804.0 -187.0 -98.0 1.000 1.000 1.000
v -3587.0 -187.0 -98.0 1.000 1.000 1.000
v -3587.0 -303.0 -258.0 1.000 1.000 1.000
v -5804.0 -303.0 -258.0 1.000 1.000 1.000
v -5804.0 -187.0 98.0 1.000 1.000 1.000
v -3587.0 -187.0 98.0 1.000 1.000 1.000
v -3587.0 -187.0 -98.0 1.000 1.000 1.000
v -5804.0 -187.0 -98.0 1.000 1.000 1.000
v -5804.0 -303.0 258.0 1.000 1.000 1.000
v -3587.0 -303.0 258.0 1.000 1.000 1.000
v -3587.0 -187.0 98.0 1.000 1.000 1.000
v -5804.0 -187.0 98.0 1.000 1.000 1.000
v -5804.0 -490.0 319.0 1.000 1.000 1.000
v -3587.0 -490.0 319.0 1.000 1.000 1.000
v -3587.0 -303.0 258.0 1.000 1.000 1.000
v -5804.0 -303.0 258.0 1.000 1.000 1.000
v -5804.0 -677.0 258.0 1.000 1.000 1.000
v -3587.0 -677.0 258.0 1.000 1.000 1.000
v -3587.0 -490.0 319.0 1.000 1.000 1.000
v -5804.0 -490.0 319.0 1.000 1.000 1.000
v -5804.0 -793.0 98.0 1.000 1.000 1.000
v -3587.0 -793.0 98.0 1.000 1.000 1.000
v -3587.0 -677.0 258.0 1.000 1.000 1.000
v -5804.0 -677.0 258.0 1.000 1.000 1.000
v -5804.0 -793.0 -98.0 1.000 1.000 1.000
v -3587.0 -793.0 -98.0 1.000 1.000 1.000
v -3587.0 -793.0 98.0 1.000 1.000 1.000
v -5804.0 -793.0 98.0 1.000 1.000 1.000
v -5804.0 -677.0 -258.0 1.000 1.000 1.000
v -3587.0 -677.0 -258.0 1.000 1.000 1.000
v -3587.0 -793.0 -98.0 1.000 1.000 1.000
v -5804.0 -793.0 -98.0 1.000 1.000 1.000
v -5804.0 -490.0 -319.0 1.000 1.000 1.000
v -3587.0 -490.0 -319.0 1.000 1.000 1.000
v -3587.0 -677.0 -258.0 1.000 1.000 1.000
v -5804.0 -677.0 -258.0 1.000 1.000 1.000
v -322.0 607.0 -835.0 1.000 1.000 1.000
v 308.0 607.0 -835.0 1.000 1.000 1.000
v 308.0 0.0 -1032.0 1.000 1.000 1.000
v -322.0 0.0 -1032.0 1.000 1.000 1.000
v 308.0 607.0 -835.0 1.000 1.000 1.000
v 1079.0 607.0 -835.0 1.000 1.000 1.000
v 1079.0 0.0 -1032.0 1.000 1.000 1.000
v 308.0 0.0 -1032.0 1.000 1.000 1.000
v 1079.0 607.0 -835.0 1.000 1.000 1.000
v 1851.0 607.0 -835.0 1.000 1.000 1.000
v 1851.0 0.0 -1032.0 1.000 1.000 1.000
v 1079.0 0.0 -1032.0 1.000 1.000 1.000
v -322.0 982.0 -319.0 1.000 1.000 1.000
v 308.0 982.0 -319.0 1.000 1.000 1.000
v 308.0 607.0 -835.0 1.000 1.000 1.000
v -322.0 607.0 -835.0 1.000 1.000 1.000
v 308.0 982.0 -319.0 1.000 1.000 1.000
v 1079.0 982.0 -319.0 1.000 1.000 1.000
v 1079.0 607.0 -835.0 1.000 1.000 1.000
v 308.0 607.0 -835.0 1.000 1.000 1.000
v 1079.0 982.0 -319.0 1.000 1.000 1.000
v 1851.0 982.0 -319.0 1.000 1.000 1.000
v 1851.0 607.0 -835.0 1.000 1.000 1.000
v 1079.0 607.0 -835.0 1.000 1.000 1.000
v -322.0 982.0 319.0 1.000 1.000 1.000
v 308.0 982.0 319.0 1.000 1.000 1.000
v 308.0 982.0 -319.0 1.000 1.000 1.000
v -322.0 982.0 -319.0 1.000 1.000 1.000
v 308.0 982.0 319.0 1.000 1.000 1.000
v 1079.0 982.0 319.0 1.000 1.000 1.000
v 1079.0 982.0 -319.0 1.000 1.000 1.000
v 308.0 982.0 -319.0 1.000 1.000 1.000
v 1079.0 982.0 319.0 1.000 1.000 1.000
v 1851.0 982.0 319.0 1.000 1.000 1.000
v 1851.0 982.0 -319.0 1.000 1.000 1.000
v 1079.0 982.0 -319.0 1.000 1.000 1.000
v -322.0 607.0 835.0 1.000 1.000 1.000
v 1851.0 607.0 835.0 1.000 1.000 1.000
v 1851.0 982.0 319.0 1.000 1.000 1.000
v -322.0 982.0 319.0 1.000 1.000 1.000
v -322.0 0.0 1032.0 1.000 1.000 1.000
v 1851.0 0.0 1032.0 1.000 1.000 1.000
v 1851.0 607.0 835.0 1.000 1.000 1.000
v -322.0 607.0 835.0 1.000 1.000 1.000
v -322.0 -607.0 835.0 1.000 1.000 1.000
v 1851.0 -607.0 835.0 1.000 1.000 1.000
v 1851.0 0.0 1032.0 1.000 1.000 1.000
v -322.0 0.0 1032.0 1.000 1.000 1.000
v -322.0 -982.0 319.0 1.000 1.000 1.000
v 1851.0 -982.0 319.0 1.000 1.000 1.000
v 1851.0 -607.0 835.0 1.000 1.000 1.000
v -322.0 -607.0 835.0 1.000 1.000 1.000
v -322.0 -982.0 -319.0 1.000 1.000 1.000
v 1851.0 -982.0 -319.0 1.000 1.000 1.000
v 1851.0 -982.0 319.0 1.000 1.000 1.000
v -322.0 -982.0 319.0 1.000 1.000 1.000
v -322.0 -607.0 -835.0 1.000 1.000 1.000
v 1851.0 -607.0 -835.0 1.000 1.000 1.000
v 1851.0 -982.0 -319.0 1.000 1.000 1.000
v -322.0 -982.0 -319.0 1.000 1.000 1.000
v -322.0 0.0 -1032.0 1.000 1.000 1.000
v 1851.0 0.0 -1032.0 1.000 1.000 1.000
v 1851.0 -607.0 -835.0 1.000 1.000 1.000
v -322.0 -607.0 -835.0 1.000 1.000 1.000
v -6329.0 -89.0 339.0 1.000 1.000 1.000
v -6329.0 -980.0 339.0 1.000 1.000 1.000
v -6329.0 -980.0 509.0 1.000 1.000 1.000
v -6329.0 -259.0 509.0 1.000 1.000 1.000
v -6329.0 -89.0 339.0 1.000 1.000 1.000
v -6329.0 -89.0 -339.0 1.000 1.000 1.000
v -6329.0 -980.0 -339.0 1.000 1.000 1.000
v -6329.0 -980.0 339.0 1.000 1.000 1.000
v -6329.0 -259.0 -509.0 1.000 1.000 1.000
v -6329.0 -980.0 -509.0 1.000 1.000 1.000
v -5804.0 -89.0 -339.0 1.000 1.000 1.000
v -5804.0 -980.0 -339.0 1.000 1.000 1.000
v -5804.0 -980.0 -509.0 1.000 1.000 1.000
v -5804.0 -259.0 -509.0 1.000 1.000 1.000
v -5804.0 -89.0 339.0 1.000 1.000 1.000
v -5804.0 -980.0 339.0 1.000 1.000 1.000
v -5804.0 -259.0 509.0 1.000 1.000 1.000
v -5804.0 -980.0 509.0 1.000 1.000 1.000
v -6329.0 -980.0 -509.0 1.000 1.000 1.000
v -6329.0 -619.0 -509.0 1.000 1.000 1.000
v -5804.0 -619.0 -509.0 1.000 1.000 1.000
v -5804.0 -980.0 -509.0 1.000 1.000 1.000
v -5804.0 -980.0 509.0 1.000 1.000 1.000
v -5804.0 -619.0 509.0 1.000 1.000 1.000
v -6329.0 -619.0 509.0 1.000 1.000 1.000
v -6329.0 -980.0 509.0 1.000 1.000 1.000
v -6329.0 -89.0 -339.0 1.000 1.000 1.000
v -6329.0 -89.0 339.0 1.000 1.000 1.000
v -5804.0 -89.0 339.0 1.000 1.000 1.000
v -5804.0 -89.0 -339.0 1.000 1.000 1.000
v -3121.0 490.0 560.0 1.000 1.000 1.000
v -3121.0 -980.0 560.0 1.000 1.000 1.000
v -3121.0 -980.0 840.0 1.000 1.000 1.000
v -3121.0 210.0 840.0 1.000 1.000 1.000
v -3121.0 490.0 560.0 1.000 1.000 1.000
v -3121.0 490.0 -560.0 1.000 1.000 1.000
v -3121.0 -980.0 -560.0 1.000 1.000 1.000
v -3121.0 -980.0 560.0 1.000 1.000 1.000
v -3121.0 210.0 -840.0 1.000 1.000 1.000
v -3121.0 -980.0 -840.0 1.000 1.000 1.000
v 3413.0 700.0 700.0 1.000 1.000 1.000
v 3412.0 -980.0 700.0 1.000 1.000 1.000
v 3412.0 -980.0 1050.0 1.000 1.000 1.000
v 3413.0 350.0 1050.0 1.000 1.000 1.000
v 3413.0 350.0 -1050.0 1.000 1.000 1.000
v 3412.0 -980.0 -1050.0 1.000 1.000 1.000
v 3412.0 -980.0 -700.0 1.000 1.000 1.000
v 3413.0 700.0 -700.0 1.000 1.000 1.000
v 4638.0 210.0 -840.0 1.000 1.000 1.000
v 4638.0 -980.0 -840.0 1.000 1.000 1.000
v 4638.0 -980.0 -1050.0 1.000 1.000 1.000
v 4638.0 350.0 -1050.0 1.000 1.000 1.000
v 4638.0 700.0 -700.0 1.000 1.000 1.000
v 4638.0 490.0 -560.0 1.000 1.000 1.000
v 4638.0 700.0 700.0 1.000 1.000 1.000
v 4638.0 490.0 560.0 1.000 1.000 1.000
v 4638.0 350.0 1050.0 1.000 1.000 1.000
v 4638.0 210.0 840.0 1.000 1.000 1.000
v 4638.0 -980.0 1050.0 1.000 1.000 1.000
v 4638.0 -980.0 840.0 1.000 1.000 1.000
v 4025.0 700.0 -700.0 1.000 1.000 1.000
v 4638.0 700.0 -700.0 1.000 1.000 1.000
v 4638.0 350.0 -1050.0 1.000 1.000 1.000
v 4025.0 350.0 -1050.0 1.000 1.000 1.000
v 4025.0 350.0 -1050.0 1.000 1.000 1.000
v 4638.0 350.0 -1050.0 1.000 1.000 1.000
v 4638.0 -980.0 -1050.0 1.000 1.000 1.000
v 4025.0 -980.0 -1050.0 1.000 1.000 1.000
v 4638.0 -980.0 1050.0 1.000 1.000 1.000
v 4638.0 350.0 1050.0 1.000 1.000 1.000
v 4025.0 350.0 1050.0 1.000 1.000 1.000
v 4025.0 -980.0 1050.0 1.000 1.000 1.000
v 4638.0 350.0 1050.0 1.000 1.000 1.000
v 4638.0 700.0 700.0 1.000 1.000 1.000
v 4025.0 700.0 700.0 1.000 1.000 1.000
v 4025.0 350.0 1050.0 1.000 1.000 1.000
v 3413.0 700.0 -700.0 1.000 1.000 1.000
v 3413.0 700.0 700.0 1.000 1.000 1.000
v 3719.0 700.0 700.0 1.000 1.000 1.000
v 3719.0 700.0 -700.0 1.000 1.000 1.000
v 4025.0 700.0 700.0 1.000 1.000 1.000
v 4638.0 700.0 700.0 1.000 1.000 1.000
v 4638.0 700.0 -700.0 1.000 1.000 1.000
v 4025.0 700.0 -700.0 1.000 1.000 1.000
v -1662.0 700.0 -700.0 1.000 1.000 1.000
v -1662.0 -980.0 -700.0 1.000 1.000 1.000
v -1662.0 -980.0 -1050.0 1.000 1.000 1.000
v -1662.0 350.0 -1050.0 1.000 1.000 1.000
v -1662.0 350.0 1050.0 1.000 1.000 1.000
v -1662.0 -980.0 1050.0 1.000 1.000 1.000
v -1662.0 -980.0 700.0 1.000 1.000 1.000
v -1662.0 700.0 700.0 1.000 1.000 1.000
v -2479.0 210.0 840.0 1.000 1.000 1.000
v -2479.0 -980.0 840.0 1.000 1.000 1.000
v -2479.0 -980.0 1050.0 1.000 1.000 1.000
v -2479.0 350.0 1050.0 1.000 1.000 1.000
v -2479.0 700.0 700.0 1.000 1.000 1.000
v -2479.0 490.0 560.0 1.000 1.000 1.000
v -2479.0 210.0 840.0 1.000 1.000 1.000
v -2479.0 350.0 1050.0 1.000 1.000 1.000
v -2479.0 700.0 -700.0 1.000 1.000 1.000
v -2479.0 490.0 -560.0 1.000 1.000 1.000
v -2479.0 350.0 -1050.0 1.000 1.000 1.000
v -2479.0 210.0 -840.0 1.000 1.000 1.000
v -2479.0 -980.0 -1050.0 1.000 1.000 1.000
v -2479.0 -980.0 -840.0 1.000 1.000 1.000
v -1662.0 350.0 1050.0 1.000 1.000 1.000
v -1662.0 700.0 700.0 1.000 1.000 1.000
v -2071.0 700.0 700.0 1.000 1.000 1.000
v -2071.0 350.0 1050.0 1.000 1.000 1.000
v -2071.0 700.0 700.0 1.000 1.000 1.000
v -2479.0 700.0 700.0 1.000 1.000 1.000
v -2479.0 350.0 1050.0 1.000 1.000 1.000
v -2071.0 350.0 1050.0 1.000 1.000 1.000
v -2479.0 350.0 -1050.0 1.000 1.000 1.000
v -2479.0 700.0 -700.0 1.000 1.000 1.000
v -2071.0 700.0 -700.0 1.000 1.000 1.000
v -2071.0 350.0 -1050.0 1.000 1.000 1.000
v -2071.0 700.0 -700.0 1.000 1.000 1.000
v -1662.0 700.0 -700.0 1.000 1.000 1.000
v -1662.0 350.0 -1050.0 1.000 1.000 1.000
v -2071.0 350.0 -1050.0 1.000 1.000 1.000
v -1662.0 700.0 700.0 1.000 1.000 1.000
v -1662.0 700.0 -700.0 1.000 1.000 1.000
v -2071.0 700.0 -700.0 1.000 1.000 1.000
v -2071.0 700.0 700.0 1.000 1.000 1.000
v -2071.0 700.0 -700.0 1.000 1.000 1.000
v -2479.0 700.0 -700.0 1.000 1.000 1.000
v -2479.0 700.0 700.0 1.000 1.000 1.000
v -2071.0 700.0 700.0 1.000 1.000 1.000
v 2611.0 295.0 -406.0 1.000 1.000 1.000
v 3413.0 295.0 -406.0 1.000 1.000 1.000
v 3412.0 0.0 -501.0 1.000 1.000 1.000
v 2611.0 0.0 -501.0 1.000 1.000 1.000
v 2611.0 477.0 -155.0 1.000 1.000 1.000
v 3413.0 477.0 -155.0 1.000 1.000 1.000
v 3413.0 295.0 -406.0 1.000 1.000 1.000
v 2611.0 295.0 -406.0 1.000 1.000 1.000
v 2611.0 477.0 155.0 1.000 1.000 1.000
v 3413.0 477.0 155.0 1.000 1.000 1.000
v 3413.0 477.0 -155.0 1.000 1.000 1.000
v 2611.0 477.0 -155.0 1.000 1.000 1.000
v 2611.0 295.0 406.0 1.000 1.000 1.000
v 3413.0 295.0 406.0 1.000 1.000 1.000
v 3413.0 477.0 155.0 1.000 1.000 1.000
v 2611.0 477.0 155.0 1.000 1.000 1.000
v 2611.0 0.0 501.0 1.000 1.000 1.000
v 3412.0 0.0 501.0 1.000 1.000 1.000
v 3413.0 295.0 406.0 1.000 1.000 1.000
v 2611.0 295.0 406.0 1.000 1.000 1.000
v 2611.0 -295.0 406.0 1.000 1.000 1.000
v 3412.0 -295.0 406.0 1.000 1.000 1.000
v 3412.0 0.0 501.0 1.000 1.000 1.000
v 2611.0 0.0 501.0 1.000 1.000 1.000
v 2611.0 -477.0 155.0 1.000 1.000 1.000
v 3412.0 -477.0 155.0 1.000 1.000 1.000
v 3412.0 -295.0 406.0 1.000 1.000 1.000
v 2611.0 -295.0 406.0 1.000 1.000 1.000
v 2611.0 -477.0 -155.0 1.000 1.000 1.000
v 3412.0 -477.0 -155.0 1.000 1.000 1.000
v 3412.0 -477.0 155.0 1.000 1.000 1.000
v 2611.0 -477.0 155.0 1.000 1.000 1.000
v 2611.0 -295.0 -406.0 1.000 1.000 1.000
v 3412.0 -295.0 -406.0 1.000 1.000 1.000
v 3412.0 -477.0 -155.0 1.000 1.000 1.000
v 2611.0 -477.0 -155.0 1.000 1.000 1.000
v 2611.0 0.0 -501.0 1.000 1.000 1.000
v 3412.0 0.0 -501.0 1.000 1.000 1.000
v 3412.0 -295.0 -406.0 1.000 1.000 1.000
v 2611.0 -295.0 -406.0 1.000 1.000 1.000
v -1672.0 295.0 -406.0 1.000 1.000 1.000
v -846.0 295.0 -406.0 1.000 1.000 1.000
v -846.0 0.0 -501.0 1.000 1.000 1.000
v -1672.0 0.0 -501.0 1.000 1.000 1.000
v -1672.0 477.0 -155.0 1.000 1.000 1.000
v -846.0 477.0 -155.0 1.000 1.000 1.000
v -846.0 295.0 -406.0 1.000 1.000 1.000
v -1672.0 295.0 -406.0 1.000 1.000 1.000
v -1672.0 477.0 155.0 1.000 1.000 1.000
v -846.0 477.0 155.0 1.000 1.000 1.000
v -846.0 477.0 -155.0 1.000 1.000 1.000
v -1672.0 477.0 -155.0 1.000 1.000 1.000
v -1672.0 295.0 406.0 1.000 1.000 1.000
v -846.0 295.0 406.0 1.000 1.000 1.000
v -846.0 477.0 155.0 1.000 1.000 1.000
v -1672.0 477.0 155.0 1.000 1.000 1.000
v -1672.0 0.0 501.0 1.000 1.000 1.000
v -846.0 0.0 501.0 1.000 1.000 1.000
v -846.0 295.0 406.0 1.000 1.000 1.000
v -1672.0 295.0 406.0 1.000 1.000 1.000
v -1672.0 -295.0 406.0 1.000 1.000 1.000
v -846.0 -295.0 406.0 1.000 1.000 1.000
v -846.0 0.0 501.0 1.000 1.000 1.000
v -1672.0 0.0 501.0 1.000 1.000 1.000
v -1672.0 -477.0 155.0 1.000 1.000 1.000
v -846.0 -477.0 155.0 1.000 1.000 1.000
v -846.0 -295.0 406.0 1.000 1.000 1.000
v -1672.0 -295.0 406.0 1.000 1.000 1.000
v -1672.0 -477.0 -155.0 1.000 1.000 1.000
v -846.0 -477.0 -155.0 1.000 1.000 1.000
v -846.0 -477.0 155.0 1.000 1.000 1.000
v -1672.0 -477.0 155.0 1.000 1.000 1.000
v -1672.0 -295.0 -406.0 1.000 1.000 1.000
v -846.0 -295.0 -406.0 1.000 1.000 1.000
v -846.0 -477.0 -155.0 1.000 1.000 1.000
v -1672.0 -477.0 -155.0 1.000 1.000 1.000
v -1672.0 0.0 -501.0 1.000 1.000 1.000
v -846.0 0.0 -501.0 1.000 1.000 1.000
v -846.0 -295.0 -406.0 1.000 1.000 1.000
v -1672.0 -295.0 -406.0 1.000 1.000 1.000
v 6038.0 210.0 -840.0 1.000 1.000 1.000
v 6038.0 490.0 -560.0 1.000 1.000 1.000
v 6329.0 490.0 -560.0 1.000 1.000 1.000
v 6329.0 210.0 -840.0 1.000 1.000 1.000
v 6329.0 210.0 840.0 1.000 1.000 1.000
v 6329.0 490.0 560.0 1.000 1.000 1.000
v 6038.0 490.0 560.0 1.000 1.000 1.000
v 6038.0 210.0 840.0 1.000 1.000 1.000
v 5279.0 210.0 -840.0 1.000 1.000 1.000
v 5279.0 490.0 -560.0 1.000 1.000 1.000
v 5571.0 490.0 -560.0 1.000 1.000 1.000
v 5571.0 210.0 -840.0 1.000 1.000 1.000
v 5571.0 210.0 840.0 1.000 1.000 1.000
v 5571.0 490.0 560.0 1.000 1.000 1.000
v 5279.0 490.0 560.0 1.000 1.000 1.000
v 5279.0 210.0 840.0 1.000 1.000 1.000
v 4638.0 210.0 -840.0 1.000 1.000 1.000
v 4638.0 490.0 -560.0 1.000 1.000 1.000
v 4958.0 490.0 -560.0 1.000 1.000 1.000
v 4958.0 210.0 -840.0 1.000 1.000 1.000
v 5279.0 490.0 -560.0 1.000 1.000 1.000
v 5279.0 210.0 -840.0 1.000 1.000 1.000
v 4638.0 490.0 560.0 1.000 1.000 1.000
v 4638.0 210.0 840.0 1.000 1.000 1.000
v -3121.0 -980.0 -840.0 1.000 1.000 1.000
v -3121.0 210.0 -840.0 1.000 1.000 1.000
v -2479.0 210.0 -840.0 1.000 1.000 1.000
v -2479.0 -980.0 -840.0 1.000 1.000 1.000
v -2479.0 -980.0 840.0 1.000 1.000 1.000
v -2479.0 210.0 840.0 1.000 1.000 1.000
v -3121.0 210.0 840.0 1.000 1.000 1.000
v -3121.0 -980.0 840.0 1.000 1.000 1.000
v 5571.0 210.0 -840.0 1.000 1.000 1.000
v 5571.0 490.0 -560.0 1.000 1.000 1.000
v 6038.0 490.0 -560.0 1.000 1.000 1.000
v 6038.0 210.0 -840.0 1.000 1.000 1.000
v 5571.0 -980.0 -840.0 1.000 1.000 1.000
v 5571.0 210.0 -840.0 1.000 1.000 1.000
v 6038.0 210.0 -840.0 1.000 1.000 1.000
v 6038.0 -980.0 -840.0 1.000 1.000 1.000
v 6038.0 -980.0 840.0 1.000 1.000 1.000
v 6038.0 210.0 840.0 1.000 1.000 1.000
v 5571.0 210.0 840.0 1.000 1.000 1.000
v 5571.0 -980.0 840.0 1.000 1.000 1.000
v 6038.0 210.0 840.0 1.000 1.000 1.000
v 6038.0 490.0 560.0 1.000 1.000 1.000
v 5571.0 490.0 560.0 1.000 1.000 1.000
v 5571.0 210.0 840.0 1.000 1.000 1.000
v 3413.0 350.0 -1050.0 1.000 1.000 1.000
v 3413.0 700.0 -700.0 1.000 1.000 1.000
v 3719.0 700.0 -700.0 1.000 1.000 1.000
v 3719.0 350.0 -1050.0 1.000 1.000 1.000
v 3412.0 -980.0 -1050.0 1.000 1.000 1.000
v 3413.0 350.0 -1050.0 1.000 1.000 1.000
v 3719.0 350.0 -1050.0 1.000 1.000 1.000
v 3719.0 -980.0 -1050.0 1.000 1.000 1.000
v 3719.0 350.0 1050.0 1.000 1.000 1.000
v 3413.0 350.0 1050.0 1.000 1.000 1.000
v 3412.0 -980.0 1050.0 1.000 1.000 1.000
v 3719.0 -980.0 1050.0 1.000 1.000 1.000
v 3719.0 700.0 700.0 1.000 1.000 1.000
v 3413.0 700.0 700.0 1.000 1.000 1.000
v 3413.0 350.0 1050.0 1.000 1.000 1.000
v 3719.0 350.0 1050.0 1.000 1.000 1.000
v 6038.0 490.0 -560.0 1.000 1.000 1.000
v 6038.0 490.0 560.0 1.000 1.000 1.000
v 6329.0 490.0 560.0 1.000 1.000 1.000
v 6329.0 490.0 -560.0 1.000 1.000 1.000
v 5279.0 -980.0 -840.0 1.000 1.000 1.000
v 5279.0 210.0 -840.0 1.000 1.000 1.000
v 5571.0 210.0 -840.0 1.000 1.000 1.000
v 5571.0 -980.0 -840.0 1.000 1.000 1.000
v 5571.0 -980.0 840.0 1.000 1.000 1.000
v 5571.0 210.0 840.0 1.000 1.000 1.000
v 5279.0 210.0 840.0 1.000 1.000 1.000
v 5279.0 -980.0 840.0 1.000 1.000 1.000
v 5279.0 490.0 -560.0 1.000 1.000 1.000
v 5279.0 490.0 560.0 1.000 1.000 1.000
v 5571.0 490.0 560.0 1.000 1.000 1.000
v 5571.0 490.0 -560.0 1.000 1.000 1.000
v 4638.0 -980.0 -840.0 1.000 1.000 1.000
v 4638.0 210.0 -840.0 1.000 1.000 1.000
v 4958.0 210.0 -840.0 1.000 1.000 1.000
v 4958.0 -980.0 -840.0 1.000 1.000 1.000
v 5279.0 210.0 -840.0 1.000 1.000 1.000
v 5279.0 -980.0 -840.0 1.000 1.000 1.000
v 5279.0 -980.0 840.0 1.000 1.000 1.000
v 5279.0 210.0 840.0 1.000 1.000 1.000
v 4638.0 210.0 840.0 1.000 1.000 1.000
v 4638.0 -980.0 840.0 1.000 1.000 1.000
v 4638.0 490.0 -560.0 1.000 1.000 1.000
v 4638.0 490.0 560.0 1.000 1.000 1.000
v -3121.0 210.0 -840.0 1.000 1.000 1.000
v -3121.0 490.0 -560.0 1.000 1.000 1.000
v -2479.0 490.0 -560.0 1.000 1.000 1.000
v -2479.0 210.0 -840.0 1.000 1.000 1.000
v -2479.0 210.0 840.0 1.000 1.000 1.000
v -2479.0 490.0 560.0 1.000 1.000 1.000
v -3121.0 490.0 560.0 1.000 1.000 1.000
v -3121.0 210.0 840.0 1.000 1.000 1.000
v -3121.0 490.0 -560.0 1.000 1.000 1.000
v -3121.0 490.0 560.0 1.000 1.000 1.000
v -2479.0 490.0 560.0 1.000 1.000 1.000
v -2479.0 490.0 -560.0 1.000 1.000 1.000
v 5571.0 490.0 -560.0 1.000 1.000 1.000
v 5571.0 490.0 560.0 1.000 1.000 1.000
v 6038.0 490.0 560.0 1.000 1.000 1.000
v 6038.0 490.0 -560.0 1.000 1.000 1.000
v -6329.0 -259.0 -509.0 1.000 1.000 1.000
v -6329.0 -89.0 -339.0 1.000 1.000 1.000
v -5804.0 -89.0 -339.0 1.000 1.000 1.000
v -5804.0 -259.0 -509.0 1.000 1.000 1.000
v -6329.0 -619.0 -509.0 1.000 1.000 1.000
v -6329.0 -259.0 -509.0 1.000 1.000 1.000
v -5804.0 -259.0 -509.0 1.000 1.000 1.000
v -5804.0 -619.0 -509.0 1.000 1.000 1.000
v -5804.0 -619.0 509.0 1.000 1.000 1.000
v -5804.0 -259.0 509.0 1.000 1.000 1.000
v -6329.0 -259.0 509.0 1.000 1.000 1.000
v -6329.0 -619.0 509.0 1.000 1.000 1.000
v -5804.0 -259.0 509.0 1.000 1.000 1.000
v -5804.0 -89.0 339.0 1.000 1.000 1.000
v -6329.0 -89.0 339.0 1.000 1.000 1.000
v -6329.0 -259.0 509.0 1.000 1.000 1.000
v -1662.0 -980.0 1050.0 1.000 1.000 1.000
v -1662.0 350.0 1050.0 1.000 1.000 1.000
v -2071.0 350.0 1050.0 1.000 1.000 1.000
v -2071.0 -980.0 1050.0 1.000 1.000 1.000
v -2071.0 350.0 1050.0 1.000 1.000 1.000
v -2479.0 350.0 1050.0 1.000 1.000 1.000
v -2479.0 -980.0 1050.0 1.000 1.000 1.000
v -2071.0 -980.0 1050.0 1.000 1.000 1.000
v -2479.0 -980.0 -1050.0 1.000 1.000 1.000
v -2479.0 350.0 -1050.0 1.000 1.000 1.000
v -2071.0 350.0 -1050.0 1.000 1.000 1.000
v -2071.0 -980.0 -1050.0 1.000 1.000 1.000
v -2071.0 350.0 -1050.0 1.000 1.000 1.000
v -1662.0 350.0 -1050.0 1.000 1.000 1.000
v -1662.0 -980.0 -1050.0 1.000 1.000 1.000
v -2071.0 -980.0 -1050.0 1.000 1.000 1.000
v 6038.0 -980.0 -840.0 1.000 1.000 1.000
v 6038.0 210.0 -840.0 1.000 1.000 1.000
v 6329.0 210.0 -840.0 1.000 1.000 1.000
v 6329.0 -980.0 -840.0 1.000 1.000 1.000
v 6329.0 -980.0 840.0 1.000 1.000 1.000
v 6329.0 210.0 840.0 1.000 1.000 1.000
v 6038.0 210.0 840.0 1.000 1.000 1.000
v 6038.0 -980.0 840.0 1.000 1.000 1.000
v 4025.0 700.0 700.0 1.000 1.000 1.000
v 4638.0 700.0 700.0 1.000 1.000 1.000
v 4638.0 700.0 -700.0 1.000 1.000 1.000
v 4025.0 700.0 -700.0 1.000 1.000 1.000
v 4515.0 350.0 -1050.0 1.000 1.000 1.000
v 4638.0 350.0 -1050.0 1.000 1.000 1.000
v 4638.0 -980.0 -1050.0 1.000 1.000 1.000
v 4515.0 -980.0 -1050.0 1.000 1.000 1.000
v 4638.0 -980.0 1050.0 1.000 1.000 1.000
v 4638.0 350.0 1050.0 1.000 1.000 1.000
v 4515.0 350.0 1050.0 1.000 1.000 1.000
v 4515.0 -980.0 1050.0 1.000 1.000 1.000
v -1662.0 700.0 700.0 1.000 1.000 1.000
v -1662.0 -980.0 700.0 1.000 1.000 1.000
v -1662.0 -980.0 -700.0 1.000 1.000 1.000
v -1662.0 700.0 -700.0 1.000 1.000 1.000
v -1662.0 700.0 700.0 1.000 1.000 1.000
v -1662.0 700.0 -700.0 1.000 1.000 1.000
v -2071.0 700.0 -700.0 1.000 1.000 1.000
v -2071.0 700.0 700.0 1.000 1.000 1.000
v -322.0 982.0 -319.0 1.000 1.000 1.000
v 308.0 982.0 -319.0 1.000 1.000 1.000
v 308.0 607.0 -835.0 1.000 1.000 1.000
v -322.0 607.0 -835.0 1.000 1.000 1.000
v 308.0 982.0 -319.0 1.000 1.000 1.000
v 1079.0 982.0 -319.0 1.000 1.000 1.000
v 1079.0 607.0 -835.0 1.000 1.000 1.000
v 308.0 607.0 -835.0 1.000 1.000 1.000
v 1851.0 982.0 -319.0 1.000 1.000 1.000
v 1851.0 607.0 -835.0 1.000 1.000 1.000
v -322.0 607.0 835.0 1.000 1.000 1.000
v 1851.0 607.0 835.0 1.000 1.000 1.000
v 1851.0 982.0 319.0 1.000 1.000 1.000
v -322.0 982.0 319.0 1.000 1.000 1.000
v -322.0 -607.0 835.0 1.000 1.000 1.000
v 1851.0 -607.0 835.0 1.000 1.000 1.000
v 1851.0 0.0 1032.0 1.000 1.000 1.000
v -322.0 0.0 1032.0 1.000 1.000 1.000
v -322.0 0.0 -1032.0 1.000 1.000 1.000
v 1851.0 0.0 -1032.0 1.000 1.000 1.000
v 1851.0 -607.0 -835.0 1.000 1.000 1.000
v -322.0 -607.0 -835.0 1.000 1.000 1.000
v 4152.0 -177.0 -1050.0 1.000 1.000 1.000
v 4458.0 -177.0 -1050.0 1.000 1.000 1.000
v 4458.0 -550.0 -1050.0 1.000 1.000 1.000
v 4152.0 -550.0 -1050.0 1.000 1.000 1.000
v 4462.0 -349.0 1050.0 1.000 1.000 1.000
v 4462.0 -14.0 1050.0 1.000 1.000 1.000
v 4147.0 -14.0 1050.0 1.000 1.000 1.000
v 4147.0 -349.0 1050.0 1.000 1.000 1.000
v -2766.0 -276.0 -840.0 1.000 1.000 1.000
v -2766.0 58.0 -840.0 1.000 1.000 1.000
v -2482.0 58.0 -840.0 1.000 1.000 1.000
v -2482.0 -276.0 -840.0 1.000 1.000 1.000
v -2485.0 -476.0 840.0 1.000 1.000 1.000
v -2485.0 -143.0 840.0 1.000 1.000 1.000
v -2767.0 -143.0 840.0 1.000 1.000 1.000
v -2767.0 -476.0 840.0 1.000 1.000 1.000
v 5736.0 -143.0 -840.0 1.000 1.000 1.000
v 6028.0 -143.0 -840.0 1.000 1.000 1.000
v 6028.0 -464.0 -840.0 1.000 1.000 1.000
v 5736.0 -464.0 -840.0 1.000 1.000 1.000
v 5736.0 -496.0 -840.0 1.000 1.000 1.000
v 6028.0 -496.0 -840.0 1.000 1.000 1.000
v 6028.0 -818.0 -840.0 1.000 1.000 1.000
v 5736.0 -818.0 -840.0 1.000 1.000 1.000
v 6034.0 -471.0 840.0 1.000 1.000 1.000
v 6034.0 -149.0 840.0 1.000 1.000 1.000
v 5731.0 -149.0 840.0 1.000 1.000 1.000
v 5731.0 -471.0 840.0 1.000 1.000 1.000
v 6034.0 -819.0 840.0 1.000 1.000 1.000
v 6034.0 -498.0 840.0 1.000 1.000 1.000
v 5731.0 -498.0 840.0 1.000 1.000 1.000
v 5731.0 -819.0 840.0 1.000 1.000 1.000
vt 1.5293 2.1743
vt 1.0000 1.0000
vt 0.0000 1.0000
vt -0.5293 2.1743
vt 1.5293 2.6831
vt -0.5293 2.6831
vt 1.4619 2.6953
vt -0.5977 2.6953
vt 1.5215 2.6880
vt -0.5371 2.6880
vt -1.6670 -2.2002
vt 1.0000 -2.2002
vt -1.6670 1.0000
vt -5.6670 0.6001
vt -5.6670 -2.0000
vt -3.0000 -2.0000
vt -3.0000 0.6001
vt 1.0000 2.6001
vt 1.0000 0.0000
vt -1.6670 0.0000
vt -1.6670 2.6001
vt 0.0000 3.6001
vt 6.4004 1.0000
vt 6.4004 3.6001
vt 0.1250 -0.1787
vt 1.0000 -0.1787
vt 0.1250 1.0000
vt 0.1250 -2.1665
vt 1.0000 -2.1665
vt 0.1274 0.0000
vt 0.1460 3.7998
vt 1.0186 3.7998
vt 0.1245 0.0078
vt 0.1260 1.4204
vt 1.0015 1.4126
vt 0.1250 -2.8335
vt 1.0000 -2.8335
vt 1.0000 0.5000
vt 0.1250 0.5000
vt -5.3335 0.0000
vt -5.3335 1.0000
vt -6.3330 0.0239
vt 0.0005 0.0239
vt -6.3335 1.0000
vt -4.3184 0.0000
vt 2.0146 0.0000
vt 2.0000 1.0000
vt -4.3335 1.0000
vt 4.1387 0.0063
vt 2.9380 0.0063
vt 2.9380 1.0000
vt 4.1382 1.0000
vt 1.4692 0.0063
vt 1.4688 1.0000
vt 0.0005 0.0063
vt 4.1387 -0.0029
vt 2.9375 -0.0029
vt 2.9375 1.0000
vt 1.4688 -0.0029
vt 0.0005 -0.0029
vt 4.1396 -0.0020
vt 2.9390 -0.0020
vt 1.4702 -0.0020
vt 0.0015 -0.0020
vt 4.1382 -0.0127
vt 0.0000 -0.0127
vt 4.1392 -0.0088
vt 0.0010 -0.0088
vt 4.1387 0.0039
vt 0.0005 0.0039
vt 4.1392 0.0020
vt 0.0010 0.0020
vt 3.8789 -4.0913
vt 3.8789 1.0000
vt 4.8486 1.0000
vt 4.8486 -3.1216
vt 0.0000 -4.0913
vt -0.9697 -3.1216
vt -0.9697 1.0000
vt 0.1211 -4.0913
vt 0.1211 1.0000
vt -0.8486 1.0000
vt -0.8486 -3.1216
vt 4.0000 -4.0913
vt 4.0000 1.0000
vt 4.9697 -3.1216
vt 4.9697 1.0000
vt 0.0000 -1.0605
vt 3.0000 -1.0605
vt 3.0000 1.0000
vt 0.0000 -0.9395
vt 3.0000 -0.9395
vt 4.0000 -3.2002
vt 4.7998 1.0000
vt 4.7998 -2.3999
vt 0.7998 -3.2002
vt 0.7998 1.0000
vt 0.0000 -2.3999
vt -2.8335 -3.0000
vt -2.8335 1.0000
vt -3.6665 1.0000
vt -3.6665 -2.1665
vt 1.3335 -2.1665
vt 1.3335 1.0000
vt 0.5000 1.0000
vt 0.5000 -3.0000
vt 1.0000 -1.8335
vt 0.5000 -2.1665
vt 1.3335 -3.0000
vt 1.6665 -2.5000
vt 4.6665 -3.0000
vt 4.3335 -2.5000
vt 5.5000 -2.1665
vt 5.0000 -1.8335
vt 5.5000 1.0000
vt 5.0000 1.0000
vt 1.7500 -0.1787
vt 3.5000 -0.1787
vt 3.5000 1.0000
vt 1.7500 1.0000
vt 1.7500 -2.1665
vt 3.5000 -2.1665
vt 3.5000 0.7998
vt 3.5000 -3.0000
vt 1.7500 -3.0000
vt 1.7500 0.7998
vt 3.5000 2.4141
vt 1.7500 2.4141
vt -2.0000 0.5000
vt -2.0000 -2.8335
vt -1.1250 -2.8335
vt -1.1250 0.5000
vt -0.2500 -2.8335
vt 1.5000 -2.8335
vt 1.5000 0.5000
vt -0.2500 0.5000
vt 1.0000 -3.7998
vt 0.0000 -2.7998
vt 6.0000 -2.7998
vt 6.0000 1.0000
vt 5.0000 -3.7998
vt 5.3999 -2.3999
vt 5.3999 1.0000
vt 4.6001 -3.2002
vt 1.3999 -3.2002
vt 0.6001 -2.3999
vt 0.6001 1.0000
vt 0.8335 1.4141
vt 0.8335 0.0000
vt 2.0000 0.0000
vt 2.0000 1.4141
vt 1.1665 1.0000
vt 0.0000 2.4141
vt 1.1665 2.4141
vt 0.0000 -0.1787
vt 1.1665 -0.1787
vt 1.9995 -0.1392
vt 0.8330 -0.1392
vt 0.8330 0.8037
vt 1.9995 0.8037
vt 2.2769 -3.0103
vt 2.2769 0.9897
vt 1.1099 0.9897
vt 1.1099 -3.0103
vt 0.0000 -3.0000
vt 1.1665 -3.0000
vt -3.5806 0.2622
vt 1.0000 0.2622
vt -3.5806 1.0000
vt -2.5806 0.1147
vt 2.0000 0.1147
vt -2.5806 1.0000
vt -3.5806 0.1147
vt 1.0000 0.1147
vt -3.7207 0.2622
vt -3.7207 1.0000
vt -3.7202 0.2622
vt -3.7202 1.0000
vt -2.7202 0.1147
vt -2.7202 1.0000
vt 4.0000 2.1313
vt 4.8335 2.1313
vt 4.8335 1.0000
vt 1.8335 1.0000
vt 1.8335 2.1313
vt 2.6665 2.1313
vt 2.6665 1.0000
vt 0.0000 2.1313
vt 0.9165 2.1313
vt 0.9165 1.0000
vt 1.0000 -2.3999
vt -0.8335 -2.3999
vt -0.8335 1.0000
vt 0.1665 -2.3999
vt 0.1665 1.0000
vt 2.0000 -2.3999
vt 4.6597 1.4458
vt 4.6597 -1.9541
vt 5.9932 -1.9541
vt 5.9932 1.4458
vt 4.0000 -2.3999
vt 2.6665 -2.3999
vt 0.0020 -0.1792
vt 1.0020 -0.1792
vt 0.0078 -2.1665
vt 1.0078 -2.1665
vt 0.0078 0.0000
vt -0.0225 3.7998
vt 0.9697 3.7998
vt 0.0039 0.0000
vt -0.0015 1.4141
vt 0.9941 1.4141
vt 3.9990 -1.9937
vt 4.8325 -1.9937
vt 3.8267 1.4458
vt 3.8267 -1.9541
vt 0.6665 -2.3999
vt 0.6665 1.0000
vt -0.1665 1.0000
vt -0.1665 -2.3999
vt 1.8325 -1.9937
vt 2.6655 -1.9937
vt 1.9932 1.4458
vt 1.9932 -1.9541
vt 2.9097 -1.9541
vt 2.9097 1.4458
vt 1.8335 -2.3999
vt -0.0010 -1.9937
vt 2.0005 0.0063
vt 0.1670 0.0063
vt 0.1689 2.0239
vt 2.0020 2.0239
vt 1.9941 -1.9946
vt 0.1606 -1.9946
vt 0.0020 0.0088
vt 3.0020 0.0088
vt 0.0000 -3.1216
vt 3.0000 -3.1216
vt 3.0000 3.0605
vt 0.0000 3.0605
vt 2.9985 2.0103
vt -0.0015 2.0103
vt 0.8335 -2.7998
vt 0.8335 1.0000
vt 2.0000 -2.7998
vt 1.1665 -2.7998
vt 2.0000 3.0000
vt 0.8335 3.0000
vt 0.8335 -0.7998
vt 2.0000 -0.7998
vt 0.0000 -0.3999
vt 0.0000 3.0000
vt 0.8335 -0.3999
vt 0.8335 -2.3999
vt 0.0000 0.0000
vt 2.8164 0.2998
vt 3.1670 1.0000
vt -0.3496 0.2998
vt 2.2998 0.6504
vt -0.2334 0.6504
vt 2.5332 1.0000
vt -0.6504 -3.7998
vt -0.2500 1.0000
vt -2.6504 -3.7998
vt 1.8330 1.1670
vt -0.1670 1.1670
vt -0.7500 0.0000
vt 1.2500 0.0000
vt 2.1924 -0.8223
vt 0.6406 -0.8223
vt 1.5518 1.0000
vt 3.1035 1.0000
vt -0.1357 -0.8223
vt 0.7764 1.0000
vt -0.9111 -0.8223
vn 0.577 0.577 0.577
vn -0.577 -0.577 -0.577
vn 0.577 0.577 0.577
vn 0.577 0.577 0.577
vn 0.577 0.577 0.577
vn -0.577 -0.577 -0.577
vn -0.577 -0.577 -0.577
vn 0.577 0.577 0.577
vn 0.577 0.577 0.577
vn -0.577 -0.577 -0.577
vn -0.577 -0.577 -0.577
vn 0.577 0.577 0.577
vn 0.577 0.577 0.577
vn -0.577 -0.577 -0.577
vn -0.577 -0.577 -0.577
vn 0.577 0.577 0.577
vn 0.577 0.577 0.577
vn 0.577 0.577 0.577
vn -0.577 -0.577 -0.577
vn 0.577 0.577 0.577
vn 0.577 0.577 0.577
vn 0.577 0.577 0.577
vn 0.577 0.577 0.577
vn 0.577 0.577 0.577
vn 0.577 0.577 0.577
vn 0.577 0.577 0.577
vn 0.577 0.577 0.577
vn 0.577 0.577 0.577
vn 0.577 0.577 0.577
vn 0.577 0.577 0.577
vn 0.577 0.577 0.577
vn 0.577 0.577 0.577
vn 0.577 0.577 0.577
vn 0.577 0.577 0.577
vn 0.577 0.577 0.577
vn 0.577 0.577 0.577
vn 0.577 0.577 0.577
vn 0.577 0.577 0.577
vn 0.577 0.577 0.577
vn 0.577 0.577 0.577
vn -0.577 -0.577 -0.577
vn -0.577 -0.577 -0.577
vn 0.577 0.577 0.577
vn 0.577 0.577 0.577
vn -0.577 -0.577 -0.577
vn -0.577 -0.577 -0.577
vn -0.577 -0.577 -0.577
vn -0.577 -0.577 -0.577
vn -0.577 -0.577 -0.577
vn -0.577 -0.577 -0.577
vn -0.577 -0.577 -0.577
vn -0.577 -0.577 -0.577
vn -0.577 -0.577 -0.577
vn -0.577 -0.577 -0.577
vn -0.577 -0.577 -0.577
vn -0.577 -0.577 -0.577
vn 0.577 0.577 0.577
vn 0.577 0.577 0.577
vn -0.577 -0.577 -0.577
vn -0.577 -0.577 -0.577
vn 0.577 0.577 0.577
vn 0.577 0.577 0.577
vn 0.577 0.577 0.577
vn 0.577 0.577 0.577
vn 0.577 0.577 0.577
vn 0.577 0.577 0.577
vn 0.577 0.577 0.577
vn 0.577 0.577 0.577
vn 0.577 0.577 0.577
vn 0.577 0.577 0.577
vn 0.577 0.577 0.577
vn 0.577 0.577 0.577
vn 0.577 0.577 0.577
vn 0.577 0.577 0.577
vn 0.577 0.577 0.577
vn 0.577 0.577 0.577
vn 0.577 0.577 0.577
vn 0.577 0.577 0.577
vn 0.577 0.577 0.577
vn 0.577 0.577 0.577
vn 0.577 0.577 0.577
vn 0.577 0.577 0.577
vn 0.577 0.577 0.577
vn 0.577 0.577 0.577
vn 0.577 0.577 0.577
vn 0.577 0.577 0.577
vn 0.577 0.577 0.577
vn 0.577 0.577 0.577
vn 0.577 0.577 0.577
vn 0.577 0.577 0.577
vn 0.577 0.577 0.577
vn 0.577 0.577 0.577
vn 0.577 0.577 0.577
vn 0.577 0.577 0.577
vn 0.577 0.577 0.577
vn 0.577 0.577 0.577
vn -0.577 -0.577 -0.577
vn -0.577 -0.577 -0.577
vn 0.577 0.577 0.577
vn 0.577 0.577 0.577
vn 0.577 0.577 0.577
vn 0.577 0.577 0.577
vn 0.577 0.577 0.577
vn 0.577 0.577 0.577
vn 0.577 0.577 0.577
vn 0.577 0.577 0.577
vn 0.577 0.577 0.577
vn 0.577 0.577 0.577
vn -0.577 -0.577 -0.577
vn -0.577 -0.577 -0.577
vn 0.577 0.577 0.577
vn 0.577 0.577 0.577
vn -0.577 -0.577 -0.577
vn -0.577 -0.577 -0.577
vn -0.577 -0.577 -0.577
vn -0.577 -0.577 -0.577
vn 0.577 0.577 0.577
vn 0.577 0.577 0.577
vn 0.577 0.577 0.577
vn 0.577 0.577 0.577
vn 0.577 0.577 0.577
vn 0.577 0.577 0.577
vn 0.577 0.577 0.577
vn 0.577 0.577 0.577
vn 0.577 0.577 0.577
vn 0.577 0.577 0.577
vn 0.577 0.577 0.577
vn 0.577 0.577 0.577
vn 0.577 0.577 0.577
vn 0.577 0.577 0.577
vn 0.577 0.577 0.577
vn 0.577 0.577 0.577
vn 0.577 0.577 0.577
vn 0.577 0.577 0.577
vn 0.577 0.577 0.577
vn 0.577 0.577 0.577
vn 0.577 0.577 0.577
vn 0.577 0.577 0.577
vn 0.577 0.577 0.577
vn 0.577 0.577 0.577
vn 0.577 0.577 0.577
vn 0.577 0.577 0.577
vn 0.577 0.577 0.577
vn 0.577 0.577 0.577
vn 0.577 0.577 0.577
vn 0.577 0.577 0.577
vn 0.577 0.577 0.577
vn 0.577 0.577 0.577
vn 0.577 0.577 0.577
vn 0.577 0.577 0.577
vn 0.577 0.577 0.577
vn 0.577 0.577 0.577
vn 0.577 0.577 0.577
vn 0.577 0.577 0.577
vn 0.577 0.577 0.577
vn 0.577 0.577 0.577
vn 0.577 0.577 0.577
vn -0.577 -0.577 -0.577
vn 0.577 0.577 0.577
vn 0.577 0.577 0.577
vn 0.577 0.577 0.577
vn 0.577 0.577 0.577
vn 0.577 0.577 0.577
vn 0.577 0.577 0.577
vn -0.577 -0.577 -0.577
vn -0.577 -0.577 -0.577
vn 0.577 0.577 0.577
vn 0.577 0.577 0.577
vn 0.577 0.577 0.577
vn -0.577 -0.577 -0.577
vn -0.577 -0.577 -0.577
vn 0.577 0.577 0.577
vn 0.577 0.577 0.577
vn 0.577 0.577 0.577
vn 0.577 0.577 0.577
vn 0.577 0.577 0.577
vn -0.577 -0.577 -0.577
vn -0.577 -0.577 -0.577
vn -0.577 -0.577 -0.577
vn -0.577 -0.577 -0.577
vn 0.577 0.577 0.577
vn -0.577 -0.577 -0.577
vn -0.577 -0.577 -0.577
vn 0.577 0.577 0.577
vn 0.577 0.577 0.577
vn 0.577 0.577 0.577
vn 0.577 0.577 0.577
vn 0.577 0.577 0.577
vn -0.577 -0.577 -0.577
vn -0.577 -0.577 -0.577
vn -0.577 -0.577 -0.577
vn -0.577 -0.577 -0.577
vn 0.577 0.577 0.577
vn -0.577 -0.577 -0.577
vn -0.577 -0.577 -0.577
vn 0.577 0.577 0.577
vn 0.577 0.577 0.577
vn 0.577 0.577 0.577
vn -0.577 -0.577 -0.577
vn 0.577 0.577 0.577
vn 0.577 0.577 0.577
vn 0.577 0.577 0.577
vn 0.577 0.577 0.577
vn 0.577 0.577 0.577
vn 0.577 0.577 0.577
vn 0.577 0.577 0.577
vn 0.577 0.577 0.577
vn 0.577 0.577 0.577
vn 0.577 0.577 0.577
vn 0.577 0.577 0.577
vn 0.577 0.577 0.577
vn 0.577 0.577 0.577
vn 0.577 0.577 0.577
vn 0.577 0.577 0.577
vn 0.577 0.577 0.577
vn 0.577 0.577 0.577
vn 0.577 0.577 0.577
vn 0.577 0.577 0.577
vn 0.577 0.577 0.577
vn 0.577 0.577 0.577
vn 0.577 0.577 0.577
vn 0.577 0.577 0.577
vn 0.577 0.577 0.577
vn 0.577 0.577 0.577
vn 0.577 0.577 0.577
vn 0.577 0.577 0.577
vn 0.577 0.577 0.577
vn 0.577 0.577 0.577
vn 0.577 0.577 0.577
vn 0.577 0.577 0.577
vn 0.577 0.577 0.577
vn 0.577 0.577 0.577
vn 0.577 0.577 0.577
vn 0.577 0.577 0.577
vn 0.577 0.577 0.577
vn 0.577 0.577 0.577
vn 0.577 0.577 0.577
vn 0.577 0.577 0.577
vn -0.577 -0.577 -0.577
vn 0.577 0.577 0.577
vn 0.577 0.577 0.577
vn 0.577 0.577 0.577
vn 0.577 0.577 0.577
vn 0.577 0.577 0.577
vn 0.577 0.577 0.577
vn -0.577 -0.577 -0.577
vn 0.577 0.577 0.577
vn 0.577 0.577 0.577
vn 0.577 0.577 0.577
vn 0.577 0.577 0.577
vn 0.577 0.577 0.577
vn 0.577 0.577 0.577
vn 0.577 0.577 0.577
vn 0.577 0.577 0.577
vn 0.577 0.577 0.577
vn 0.577 0.577 0.577
vn 0.577 0.577 0.577
vn 0.577 0.577 0.577
vn 0.577 0.577 0.577
vn 0.577 0.577 0.577
vn 0.577 0.577 0.577
vn -0.577 -0.577 -0.577
vn 0.577 0.577 0.577
vn 0.577 0.577 0.577
vn 0.577 0.577 0.577
vn 0.577 0.577 0.577
vn -0.577 -0.577 -0.577
vn 0.577 0.577 0.577
vn 0.577 0.577 0.577
vn 0.577 0.577 0.577
vn 0.577 0.577 0.577
vn 0.577 0.577 0.577
vn 0.577 0.577 0.577
vn 0.577 0.577 0.577
vn 0.577 0.577 0.577
vn -0.577 -0.577 -0.577
vn 0.577 0.577 0.577
vn 0.577 0.577 0.577
vn 0.577 0.577 0.577
vn 0.577 0.577 0.577
vn -0.577 -0.577 -0.577
vn 0.577 0.577 0.577
vn 0.577 0.577 0.577
vn 0.577 0.577 0.577
vn 0.577 0.577 0.577
vn 0.577 0.577 0.577
vn 0.577 0.577 0.577
vn 0.577 0.577 0.577
vn 0.577 0.577 0.577
vn 0.577 0.577 0.577
vn 0.577 0.577 0.577
vn 0.577 0.577 0.577
vn 0.577 0.577 0.577
vn 0.577 0.577 0.577
vn -0.577 -0.577 -0.577
vn 0.577 0.577 0.577
vn -0.577 -0.577 -0.577
vn -0.577 -0.577 -0.577
vn -0.577 -0.577 -0.577
vn -0.577 -0.577 -0.577
vn -0.577 -0.577 -0.577
vn 0.577 0.577 0.577
vn 0.577 0.577 0.577
vn -0.577 -0.577 -0.577
vn 0.577 0.577 0.577
vn 0.577 0.577 0.577
vn 0.577 0.577 0.577
vn 0.577 0.577 0.577
vn 0.577 0.577 0.577
vn 0.577 0.577 0.577
vn 0.577 0.577 0.577
vn 0.577 0.577 0.577
vn 0.577 0.577 0.577
vn 0.577 0.577 0.577
vn 0.577 0.577 0.577
vn 0.577 0.577 0.577
vn 0.577 0.577 0.577
vn 0.577 0.577 0.577
vn 0.577 0.577 0.577
vn 0.577 0.577 0.577
vn 0.577 0.577 0.577
vn 0.577 0.577 0.577
vn 0.577 0.577 0.577
vn 0.577 0.577 0.577
vn 0.577 0.577 0.577
vn 0.577 0.577 0.577
vn 0.577 0.577 0.577
vn -0.577 -0.577 -0.577
vn -0.577 -0.577 -0.577
vn 0.577 0.577 0.577
vn -0.577 -0.577 -0.577
vn 0.577 0.577 0.577
vn 0.577 0.577 0.577
vn 0.577 0.577 0.577
vn 0.577 0.577 0.577
vn 0.577 0.577 0.577
vn -0.577 -0.577 -0.577
vn 0.577 0.577 0.577
vn -0.577 -0.577 -0.577
vn -0.577 -0.577 -0.577
vn 0.577 0.577 0.577
vn 0.577 0.577 0.577
vn -0.577 -0.577 -0.577
vn -0.577 -0.577 -0.577
vn -0.577 -0.577 -0.577
vn -0.577 -0.577 -0.577
vn -0.577 -0.577 -0.577
vn 0.577 0.577 0.577
vn 0.577 0.577 0.577
vn -0.577 -0.577 -0.577
vn -0.577 -0.577 -0.577
vn -0.577 -0.577 -0.577
vn 0.577 0.577 0.577
vn 0.577 0.577 0.577
vn -0.577 -0.577 -0.577
vn -0.577 -0.577 -0.577
vn -0.577 -0.577 -0.577
vn -0.577 -0.577 -0.577
vn -0.577 -0.577 -0.577
vn -0.577 -0.577 -0.577
vn -0.577 -0.577 -0.577
vn -0.577 -0.577 -0.577
vn -0.577 -0.577 -0.577
vn -0.577 -0.577 -0.577
vn -0.577 -0.577 -0.577
vn -0.577 -0.577 -0.577
vn 0.577 0.577 0.577
vn 0.577 0.577 0.577
vn -0.577 -0.577 -0.577
vn -0.577 -0.577 -0.577
vn 0.577 0.577 0.577
vn 0.577 0.577 0.577
vn 0.577 0.577 0.577
vn 0.577 0.577 0.577
vn 0.577 0.577 0.577
vn 0.577 0.577 0.577
vn 0.577 0.577 0.577
vn 0.577 0.577 0.577
vn 0.577 0.577 0.577
vn 0.577 0.577 0.577
vn 0.577 0.577 0.577
vn 0.577 0.577 0.577
vn 0.577 0.577 0.577
vn 0.577 0.577 0.577
vn 0.577 0.577 0.577
vn 0.577 0.577 0.577
vn 0.577 0.577 0.577
vn 0.577 0.577 0.577
vn 0.577 0.577 0.577
vn 0.577 0.577 0.577
vn -0.577 -0.577 -0.577
vn -0.577 -0.577 -0.577
vn 0.577 0.577 0.577
vn 0.577 0.577 0.577
vn -0.577 -0.577 -0.577
vn -0.577 -0.577 -0.577
vn -0.577 -0.577 -0.577
vn -0.577 -0.577 -0.577
vn -0.577 -0.577 -0.577
vn -0.577 -0.577 -0.577
vn -0.577 -0.577 -0.577
vn -0.577 -0.577 -0.577
vn -0.577 -0.577 -0.577
vn -0.577 -0.577 -0.577
vn -0.577 -0.577 -0.577
vn -0.577 -0.577 -0.577
vn 0.577 0.577 0.577
vn 0.577 0.577 0.577
vn -0.577 -0.577 -0.577
vn -0.577 -0.577 -0.577
vn 0.577 0.577 0.577
vn 0.577 0.577 0.577
vn 0.577 0.577 0.577
vn 0.577 0.577 0.577
vn 0.577 0.577 0.577
vn 0.577 0.577 0.577
vn 0.577 0.577 0.577
vn 0.577 0.577 0.577
vn 0.577 0.577 0.577
vn 0.577 0.577 0.577
vn 0.577 0.577 0.577
vn 0.577 0.577 0.577
vn 0.577 0.577 0.577
vn 0.577 0.577 0.577
vn 0.577 0.577 0.577
vn 0.577 0.577 0.577
vn 0.577 0.577 0.577
vn 0.577 0.577 0.577
vn 0.577 0.577 0.577
vn 0.577 0.577 0.577
vn 0.577 0.577 0.577
vn 0.577 0.577 0.577
vn 0.577 0.577 0.577
vn 0.577 0.577 0.577
vn 0.577 0.577 0.577
vn 0.577 0.577 0.577
vn -0.577 -0.577 -0.577
vn 0.577 0.577 0.577
vn 0.577 0.577 0.577
vn -0.577 -0.577 -0.577
vn -0.577 -0.577 -0.577
vn 0.577 0.577 0.577
vn 0.577 0.577 0.577
vn -0.577 -0.577 -0.577
vn -0.577 -0.577 -0.577
vn 0.577 0.577 0.577
vn 0.577 0.577 0.577
vn -0.577 -0.577 -0.577
vn -0.577 -0.577 -0.577
vn 0.577 0.577 0.577
vn -0.577 -0.577 -0.577
vn 0.577 0.577 0.577
vn -0.577 -0.577 -0.577
vn 0.577 0.577 0.577
vn 0.577 0.577 0.577
vn 0.577 0.577 0.577
vn 0.577 0.577 0.577
vn 0.577 0.577 0.577
vn 0.577 0.577 0.577
vn 0.577 0.577 0.577
vn 0.577 0.577 0.577
vn 0.577 0.577 0.577
vn 0.577 0.577 0.577
vn -0.577 -0.577 -0.577
vn 0.577 0.577 0.577
vn 0.577 0.577 0.577
vn 0.577 0.577 0.577
vn 0.577 0.577 0.577
vn 0.577 0.577 0.577
vn 0.577 0.577 0.577
vn 0.577 0.577 0.577
vn 0.577 0.577 0.577
vn 0.577 0.577 0.577
vn 0.577 0.577 0.577
vn 0.577 0.577 0.577
vn -0.577 -0.577 -0.577
vn -0.577 -0.577 -0.577
vn 0.577 0.577 0.577
vn 0.577 0.577 0.577
vn -0.577 -0.577 -0.577
vn -0.577 -0.577 -0.577
vn 0.577 0.577 0.577
vn 0.577 0.577 0.577
vn 0.577 0.577 0.577
vn 0.577 0.577 0.577
vn 0.577 0.577 0.577
vn 0.577 0.577 0.577
vn 0.577 0.577 0.577
vn 0.577 0.577 0.577
vn 0.577 0.577 0.577
vn -0.577 -0.577 -0.577
vn -0.577 -0.577 -0.577
vn 0.577 0.577 0.577
vn 0.577 0.577 0.577
vn 0.577 0.577 0.577
vn -0.577 -0.577 -0.577
vn 0.577 0.577 0.577
vn 0.577 0.577 0.577
vn 0.577 0.577 0.577
vn 0.577 0.577 0.577
vn 0.577 0.577 0.577
vn 0.577 0.577 0.577
vn 0.577 0.577 0.577
vn 0.577 0.577 0.577
vn 0.577 0.577 0.577
vn 0.577 0.577 0.577
vn -0.577 -0.577 -0.577
vn -0.577 -0.577 -0.577
vn -0.577 -0.577 -0.577
vn -0.577 -0.577 -0.577
vn 0.577 0.577 0.577
vn 0.577 0.577 0.577
vn 0.577 0.577 0.577
vn 0.577 0.577 0.577
vn 0.577 0.577 0.577
vn 0.577 0.577 0.577
vn 0.577 0.577 0.577
vn 0.577 0.577 0.577
vn 0.577 0.577 0.577
vn 0.577 0.577 0.577
vn -0.577 -0.577 -0.577
vn -0.577 -0.577 -0.577
vn 0.577 0.577 0.577
vn 0.577 0.577 0.577
vn 0.577 0.577 0.577
vn 0.577 0.577 0.577
vn 0.577 0.577 0.577
vn 0.577 0.577 0.577
vn 0.577 0.577 0.577
vn 0.577 0.577 0.577
vn 0.577 0.577 0.577
vn 0.577 0.577 0.577
vn 0.577 0.577 0.577
vn 0.577 0.577 0.577
vn -0.577 -0.577 -0.577
vn -0.577 -0.577 -0.577
vn -0.577 -0.577 -0.577
vn 0.577 0.577 0.577
vn 0.577 0.577 0.577
vn 0.577 0.577 0.577
vn 0.577 0.577 0.577
vn 0.577 0.577 0.577
vn 0.577 0.577 0.577
vn 0.577 0.577 0.577
vn 0.577 0.577 0.577
vn 0.577 0.577 0.577
vn 0.577 0.577 0.577
vn 0.577 0.577 0.577
vn 0.577 0.577 0.577
vn 0.577 0.577 0.577
vn 0.577 0.577 0.577
vn 0.577 0.577 0.577
vn 0.577 0.577 0.577
vn 0.577 0.577 0.577
vn 0.577 0.577 0.577
vn 0.577 0.577 0.577
vn 0.577 0.577 0.577
vn 0.577 0.577 0.577
vn 0.577 0.577 0.577
vn 0.577 0.577 0.577
vn 0.577 0.577 0.577
vn 0.577 0.577 0.577
vn 0.577 0.577 0.577
vn 0.577 0.577 0.577
vn 0.577 0.577 0.577
vn 0.577 0.577 0.577
vn 0.577 0.577 0.577
vn 0.577 0.577 0.577
vn 0.577 0.577 0.577
vn 0.577 0.577 0.577
vn 0.577 0.577 0.577
vn 0.577 0.577 0.577
vn 0.577 0.577 0.577
vn 0.577 0.577 0.577
vn 0.577 0.577 0.577
vn 0.577 0.577 0.577
vn 0.577 0.577 0.577
vn 0.577 0.577 0.577
vn -0.467 -0.467 0.751
vn 0.701 0.701 0.126
vn 0.701 0.701 0.126
vn -0.467 -0.467 0.751
vn 0.701 0.701 0.126
vn 0.701 0.701 0.126
vn 0.701 0.701 0.129
vn 0.701 0.701 0.129
vn 0.701 0.701 0.136
vn 0.701 0.701 0.126
vn 0.701 0.701 0.126
vn 0.701 0.701 0.136
vn 0.701 0.701 0.133
vn 0.701 0.701 0.130
vn 0.701 0.701 0.126
vn 0.701 0.701 0.133
vn -0.513 -0.460 0.725
vn -0.513 -0.460 0.725
vn -0.499 -0.499 0.708
vn -0.467 -0.467 0.751
vn 0.701 0.701 0.126
vn -0.513 -0.460 0.725
vn -0.689 -0.689 0.227
vn 0.701 0.701 0.126
vn -0.513 -0.460 0.725
vn -0.513 -0.460 0.725
vn -0.687 -0.687 0.234
vn -0.689 -0.689 0.227
vn -0.282 -0.282 0.917
vn -0.695 -0.695 0.182
vn 0.701 0.701 0.126
vn -0.694 -0.694 0.192
vn -0.467 -0.467 0.751
vn 0.701 0.701 0.126
vn 0.702 0.702 0.123
vn 0.701 0.701 0.136
vn 0.702 0.702 0.119
vn 0.702 0.702 0.119
vn 0.703 0.703 0.103
vn 0.701 0.701 0.126
vn 0.701 0.701 0.126
vn 0.697 0.708 0.114
vn 0.577 0.577 0.577
vn 0.577 0.577 0.577
vn 0.577 0.577 0.577
vn 0.577 0.577 0.577
vn 0.577 0.577 0.577
vn 0.577 0.577 0.577
vn 0.577 0.577 0.577
vn 0.577 0.577 0.577
vn 0.577 0.577 0.577
vn 0.577 0.577 0.577
vn 0.577 0.577 0.577
vn 0.577 0.577 0.577
vn 0.577 0.577 0.577
vn 0.577 0.577 0.577
vn 0.577 0.577 0.577
vn 0.577 0.577 0.577
vn 0.577 0.577 0.577
vn 0.577 0.577 0.577
vn 0.577 0.577 0.577
vn 0.577 0.577 0.577
vn 0.577 0.577 0.577
vn 0.577 0.577 0.577
vn 0.577 0.577 0.577
vn 0.577 0.577 0.577
vn 0.577 0.577 0.577
vn 0.577 0.577 0.577
vn 0.577 0.577 0.577
vn 0.577 0.577 0.577
vn 0.577 0.577 0.577
vn 0.577 0.577 0.577
vn 0.577 0.577 0.577
vn 0.577 0.577 0.577
usemtl tex_500_lit_ds
f 1/1/1 2/2/2 3/3/3
f 1/1/1 3/3/3 4/4/4
f 5/1/5 6/2/6 7/3/7
f 5/1/5 7/3/7 8/4/8
f 9/1/9 10/2/10 11/3/11
f 9/1/9 11/3/11 12/4/12
f 13/1/13 14/2/14 15/3/15
f 13/1/13 15/3/15 16/4/16
f 17/1/17 18/2/18 19/3/19
f 17/1/17 19/3/19 20/4/20
f 21/1/21 22/2/22 23/3/23
f 21/1/21 23/3/23 24/4/24
f 25/1/25 26/2/26 27/3/27
f 25/1/25 27/3/27 28/4/28
f 29/1/29 30/2/30 31/3/31
f 29/1/29 31/3/31 32/4/32
f 33/1/33 34/2/34 35/3/35
f 33/1/33 35/3/35 36/4/36
f 37/1/37 38/2/38 39/3/39
f 37/1/37 39/3/39 40/4/40
f 41/5/41 42/2/42 43/3/43
f 41/5/41 43/3/43 44/6/44
f 45/5/45 46/2/46 47/3/47
f 45/5/45 47/3/47 48/6/48
f 49/5/49 50/2/50 51/3/51
f 49/5/49 51/3/51 52/6/52
f 53/5/53 54/2/54 55/3/55
f 53/5/53 55/3/55 56/6/56
f 57/5/57 58/2/58 59/3/59
f 57/5/57 59/3/59 60/6/60
f 61/7/61 62/2/62 63/3/63
f 61/7/61 63/3/63 64/8/64
f 65/9/65 66/2/66 67/3/67
f 65/9/65 67/3/67 68/10/68
f 69/5/69 70/2/70 71/3/71
f 69/5/69 71/3/71 72/6/72
f 73/5/73 74/2/74 75/3/75
f 73/5/73 75/3/75 76/6/76
f 77/5/77 78/2/78 79/3/79
f 77/5/77 79/3/79 80/6/80
usemtl tex_727_lit_ds
f 81/11/81 82/12/82 83/2/83
f 81/11/81 83/2/83 84/13/84
f 85/14/85 86/15/86 87/16/87
f 85/14/85 87/16/87 88/17/88
f 89/18/89 90/19/90 91/20/91
f 89/18/89 91/20/91 92/21/92
f 93/22/93 94/3/94 95/23/95
f 93/22/93 95/23/95 96/24/96
usemtl tex_616_lit_ds
f 97/25/97 98/26/98 99/2/99
f 97/25/97 99/2/99 100/27/100
f 101/28/101 102/29/102 103/2/103
f 101/28/101 103/2/103 104/27/104
f 105/19/105 106/30/106 107/31/107
f 105/19/105 107/31/107 108/32/108
f 109/19/109 110/33/110 111/34/111
f 109/19/109 111/34/111 112/35/112
f 113/36/113 114/37/114 115/38/115
f 113/36/113 115/38/115 116/39/116
f 117/40/117 118/19/118 119/2/119
f 117/40/117 119/2/119 120/41/120
f 121/40/121 122/19/122 123/2/123
f 121/40/121 123/2/123 124/41/124
f 125/40/125 126/19/126 127/2/127
f 125/40/125 127/2/127 128/41/128
f 129/40/129 130/19/130 131/2/131
f 129/40/129 131/2/131 132/41/132
f 133/42/133 134/43/134 135/3/135
f 133/42/133 135/3/135 136/44/136
f 137/40/137 138/19/138 139/2/139
f 137/40/137 139/2/139 140/41/140
f 141/40/141 142/19/142 143/2/143
f 141/40/141 143/2/143 144/41/144
f 145/40/145 146/19/146 147/2/147
f 145/40/145 147/2/147 148/41/148
f 149/45/149 150/46/150 151/47/151
f 149/45/149 151/47/151 152/48/152
f 153/40/153 154/19/154 155/2/155
f 153/40/153 155/2/155 156/41/156
f 157/49/157 158/50/158 159/51/159
f 157/49/157 159/51/159 160/52/160
f 161/50/161 162/53/162 163/54/163
f 161/50/161 163/54/163 164/51/164
f 165/53/165 166/55/166 167/3/167
f 165/53/165 167/3/167 168/54/168
f 169/56/169 170/57/170 171/58/171
f 169/56/169 171/58/171 172/52/172
f 173/57/173 174/59/174 175/54/175
f 173/57/173 175/54/175 176/58/176
f 177/59/177 178/60/178 179/3/179
f 177/59/177 179/3/179 180/54/180
f 181/61/181 182/62/182 183/58/183
f 181/61/181 183/58/183 184/52/184
f 185/62/185 186/63/186 187/54/187
f 185/62/185 187/54/187 188/58/188
f 189/63/189 190/64/190 191/3/191
f 189/63/189 191/3/191 192/54/192
f 193/65/193 194/66/194 195/3/195
f 193/65/193 195/3/195 196/52/196
f 197/67/197 198/68/198 199/3/199
f 197/67/197 199/3/199 200/52/200
f 201/69/201 202/70/202 203/3/203
f 201/69/201 203/3/203 204/52/204
f 205/71/205 206/72/206 207/3/207
f 205/71/205 207/3/207 208/52/208
f 209/65/209 210/66/210 211/3/211
f 209/65/209 211/3/211 212/52/212
f 213/65/213 214/66/214 215/3/215
f 213/65/213 215/3/215 216/52/216
f 217/65/217 218/66/218 219/3/219
f 217/65/217 219/3/219 220/52/220
usemtl tex_613_lit_ds
f 221/73/221 222/74/222 223/75/223
f 221/73/221 223/75/223 224/76/224
f 225/73/225 226/77/226 227/3/227
f 225/73/225 227/3/227 228/74/228
f 226/77/226 229/78/229 230/79/230
f 226/77/226 230/79/230 227/3/227
f 231/80/231 232/81/232 233/82/233
f 231/80/231 233/82/233 234/83/234
f 231/80/231 235/84/235 236/85/236
f 231/80/231 236/85/236 232/81/232
f 235/84/235 237/86/237 238/87/238
f 235/84/235 238/87/238 236/85/236
f 239/3/239 240/88/240 241/89/241
f 239/3/239 241/89/241 242/90/242
f 243/89/243 244/90/244 245/3/245
f 243/89/243 245/3/245 246/88/246
f 247/3/247 248/91/248 249/92/249
f 247/3/247 249/92/249 250/90/250
f 251/93/251 252/85/252 253/94/253
f 251/93/251 253/94/253 254/95/254
f 255/93/255 256/96/256 257/97/257
f 255/93/255 257/97/257 258/85/258
f 256/96/256 259/98/259 260/3/260
f 256/96/256 260/3/260 257/97/257
f 261/99/261 262/100/262 263/101/263
f 261/99/261 263/101/263 264/102/264
f 265/103/265 266/104/266 267/105/267
f 265/103/265 267/105/267 268/106/268
f 268/106/268 267/105/267 262/100/262
f 268/106/268 262/100/262 261/99/261
f 269/107/269 270/2/270 271/105/271
f 269/107/269 271/105/271 272/108/272
f 273/109/273 274/110/274 269/107/269
f 273/109/273 269/107/269 272/108/272
f 275/111/275 276/112/276 274/110/274
f 275/111/275 274/110/274 273/109/273
f 277/113/277 278/114/278 276/112/276
f 277/113/277 276/112/276 275/111/275
f 279/115/279 280/116/280 278/114/278
f 279/115/279 278/114/278 277/113/277
usemtl tex_613_lit_ds_ovl
f 281/117/281 282/118/282 283/119/283
f 281/117/281 283/119/283 284/120/284
f 285/121/285 286/122/286 287/119/287
f 285/121/285 287/119/287 288/120/288
f 289/123/289 290/124/290 291/125/291
f 289/123/289 291/125/291 292/126/292
f 293/127/293 294/119/294 295/120/295
f 293/127/293 295/120/295 296/128/296
f 297/129/297 298/130/298 299/131/299
f 297/129/297 299/131/299 300/132/300
f 301/133/301 302/134/302 303/135/303
f 301/133/301 303/135/303 304/136/304
usemtl tex_613_lit_ds
f 305/137/305 306/2/306 307/3/307
f 305/137/305 307/3/307 308/138/308
f 309/139/309 310/140/310 311/116/311
f 309/139/309 311/116/311 312/141/312
f 312/141/312 311/116/311 306/2/306
f 312/141/312 306/2/306 305/137/305
f 313/142/313 314/143/314 315/140/315
f 313/142/313 315/140/315 316/139/316
f 317/141/317 318/144/318 319/142/319
f 317/141/317 319/142/319 320/139/320
f 321/137/321 322/145/322 318/144/318
f 321/137/321 318/144/318 317/141/317
f 323/138/323 324/146/324 322/145/322
f 323/138/323 322/145/322 321/137/321
f 325/3/325 326/147/326 324/146/324
f 325/3/325 324/146/324 323/138/323
usemtl tex_613_lit_ds_ovl
f 327/148/327 328/149/328 329/150/329
f 327/148/327 329/150/329 330/151/330
f 331/152/331 332/3/332 333/153/333
f 331/152/331 333/153/333 334/154/334
f 335/3/335 336/155/336 337/156/337
f 335/3/335 337/156/337 338/152/338
f 339/157/339 340/158/340 341/159/341
f 339/157/339 341/159/341 342/160/342
f 343/161/343 344/162/344 345/163/345
f 343/161/343 345/163/345 346/164/346
f 347/152/347 348/3/348 349/165/349
f 347/152/347 349/165/349 350/166/350
usemtl tex_613_lit_ds
f 351/167/351 352/168/352 353/2/353
f 351/167/351 353/2/353 354/169/354
f 355/167/355 356/168/356 357/2/357
f 355/167/355 357/2/357 358/169/358
f 359/170/359 360/171/360 361/47/361
f 359/170/359 361/47/361 362/172/362
f 363/173/363 364/174/364 365/2/365
f 363/173/363 365/2/365 366/169/366
f 367/170/367 368/171/368 369/47/369
f 367/170/367 369/47/369 370/172/370
f 371/170/371 372/171/372 373/47/373
f 371/170/371 373/47/373 374/172/374
f 375/170/375 376/171/376 377/47/377
f 375/170/375 377/47/377 378/172/378
f 379/170/379 380/171/380 381/47/381
f 379/170/379 381/47/381 382/172/382
f 383/167/383 384/168/384 385/2/385
f 383/167/383 385/2/385 386/169/386
f 387/167/387 388/168/388 389/2/389
f 387/167/387 389/2/389 390/169/390
f 391/175/391 392/168/392 393/2/393
f 391/175/391 393/2/393 394/176/394
f 395/175/395 396/168/396 397/2/397
f 395/175/395 397/2/397 398/176/398
f 399/177/399 400/168/400 401/2/401
f 399/177/399 401/2/401 402/178/402
f 403/179/403 404/171/404 405/47/405
f 403/179/403 405/47/405 406/180/406
f 407/179/407 408/171/408 409/47/409
f 407/179/407 409/47/409 410/180/410
f 411/179/411 412/171/412 413/47/413
f 411/179/411 413/47/413 414/180/414
f 415/179/415 416/171/416 417/47/417
f 415/179/415 417/47/417 418/180/418
f 419/179/419 420/171/420 421/47/421
f 419/179/419 421/47/421 422/180/422
f 423/177/423 424/168/424 425/2/425
f 423/177/423 425/2/425 426/178/426
f 427/175/427 428/168/428 429/2/429
f 427/175/427 429/2/429 430/176/430
f 431/85/431 432/181/432 433/182/433
f 431/85/431 433/182/433 434/183/434
f 435/182/435 436/183/436 437/85/437
f 435/182/435 437/85/437 438/181/438
f 439/184/439 440/185/440 441/186/441
f 439/184/439 441/186/441 442/187/442
f 443/186/443 444/187/444 445/184/445
f 443/186/443 445/184/445 446/185/446
f 447/3/447 448/188/448 449/189/449
f 447/3/447 449/189/449 450/190/450
f 449/189/449 451/185/451 452/184/452
f 449/189/449 452/184/452 450/190/450
f 446/185/446 445/184/445 453/3/453
f 446/185/446 453/3/453 454/188/454
f 455/2/455 456/191/456 457/192/457
f 455/2/455 457/192/457 458/193/458
f 459/194/459 460/195/460 461/47/461
f 459/194/459 461/47/461 462/196/462
f 463/187/463 464/186/464 465/181/465
f 463/187/463 465/181/465 466/85/466
f 467/197/467 468/198/468 469/199/469
f 467/197/467 469/199/469 470/200/470
f 471/201/471 472/85/472 473/187/473
f 471/201/471 473/187/473 474/202/474
f 475/181/475 476/85/476 477/187/477
f 475/181/475 477/187/477 478/186/478
usemtl tex_614_lit_ds_ovl
f 479/3/479 480/203/480 481/204/481
f 479/3/479 481/204/481 482/2/482
f 483/3/483 484/205/484 485/206/485
f 483/3/483 485/206/485 486/2/486
f 487/19/487 488/207/488 489/208/489
f 487/19/487 489/208/489 490/209/490
f 491/19/491 492/210/492 493/211/493
f 491/19/491 493/211/493 494/212/494
usemtl tex_615_lit_ds
f 495/85/495 496/213/496 497/214/497
f 495/85/495 497/214/497 498/183/498
usemtl tex_615_lit_ds_ovl
f 499/215/499 500/216/500 501/198/501
f 499/215/499 501/198/501 502/197/502
f 503/217/503 504/218/504 505/219/505
f 503/217/503 505/219/505 506/220/506
usemtl tex_615_lit_ds
f 507/184/507 508/221/508 509/222/509
f 507/184/507 509/222/509 510/187/510
usemtl tex_615_lit_ds_ovl
f 511/223/511 512/224/512 513/225/513
f 511/223/511 513/225/513 514/226/514
f 513/225/513 515/216/515 516/215/516
f 513/225/513 516/215/516 514/226/514
f 517/227/517 518/184/518 519/3/519
f 517/227/517 519/3/519 520/98/520
usemtl tex_615_lit_ds
f 521/3/521 522/228/522 508/221/508
f 521/3/521 508/221/508 507/184/507
usemtl tex_615_lit_ds_ovl
f 523/47/523 524/229/524 525/230/525
f 523/47/523 525/230/525 526/195/526
f 527/231/527 528/195/528 529/47/529
f 527/231/527 529/47/529 530/232/530
usemtl tex_615_lit_ds
f 531/47/531 532/233/532 533/234/533
f 531/47/531 533/234/533 534/195/534
f 535/187/535 536/222/536 537/213/537
f 535/187/535 537/213/537 538/85/538
usemtl tex_612_lit_ds
f 539/3/539 540/235/540 541/236/541
f 539/3/539 541/236/541 542/90/542
usemtl tex_612_lit_ds_ovl
f 543/88/543 544/237/544 545/238/545
f 543/88/543 545/238/545 546/89/546
f 547/239/547 548/90/548 549/3/549
f 547/239/547 549/3/549 550/240/550
usemtl tex_612_lit_ds
f 551/241/551 552/90/552 553/3/553
f 551/241/551 553/3/553 554/242/554
usemtl tex_612_lit_ds_ovl
f 555/243/555 556/244/556 557/47/557
f 555/243/555 557/47/557 558/245/558
f 559/152/559 560/3/560 561/138/561
f 559/152/559 561/138/561 562/246/562
f 563/138/563 564/3/564 565/152/565
f 563/138/563 565/152/565 566/246/566
f 567/247/567 568/248/568 569/249/569
f 567/247/567 569/249/569 570/250/570
f 571/251/571 572/252/572 573/248/573
f 571/251/571 573/248/573 574/253/574
f 575/254/575 576/244/576 577/3/577
f 575/254/575 577/3/577 578/98/578
usemtl tex_480_lit_ds_w11_ovl
f 579/255/579 580/3/580 581/2/581
f 579/255/579 581/2/581 582/19/582
usemtl tex_7_lit_ds_ovl
f 583/256/583 584/257/584 585/3/585
f 583/256/583 585/3/585 586/258/586
f 587/259/587 588/260/588 589/3/589
f 587/259/587 589/3/589 590/261/590
f 591/262/591 592/120/592 593/263/593
f 591/262/591 593/263/593 594/264/594
f 595/265/595 596/266/596 597/267/597
f 595/265/595 597/267/597 598/268/598
f 599/269/599 600/270/600 601/271/601
f 599/269/599 601/271/601 602/272/602
f 603/270/603 604/273/604 605/274/605
f 603/270/603 605/274/605 606/271/606
f 604/273/604 607/275/607 608/3/608
f 604/273/604 608/3/608 605/274/605
f 609/269/609 610/275/610 611/3/611
f 609/269/609 611/3/611 612/272/612
f 613/269/613 614/275/614 615/3/615
f 613/269/613 615/3/615 616/272/616
f 617/269/617 618/275/618 619/3/619
f 617/269/617 619/3/619 620/272/620
usemtl tex_533_lit_ds_ovl
f 621/19/621 622/255/622 623/3/623
f 621/19/621 623/3/623 624/2/624
f 625/2/625 626/19/626 627/255/627
f 625/2/625 627/255/627 628/3/628
f 629/2/629 630/19/630 631/255/631
f 629/2/629 631/255/631 632/3/632
f 633/2/633 634/19/634 635/255/635
f 633/2/633 635/255/635 636/3/636
f 637/19/637 638/255/638 639/3/639
f 637/19/637 639/3/639 640/2/640
f 641/19/641 642/255/642 643/3/643
f 641/19/641 643/3/643 644/2/644
f 645/2/645 646/19/646 647/255/647
f 645/2/645 647/255/647 648/3/648
f 649/2/649 650/19/650 651/255/651
f 649/2/649 651/255/651 652/3/652
