mtllib Pdoorprison1Z.mtl
v 379.0 992.0 -1.0 1.000 1.000 1.000
v -379.0 992.0 -1.0 1.000 1.000 1.000
v -379.0 -992.0 -1.0 1.000 1.000 1.000
v 379.0 -992.0 -1.0 1.000 1.000 1.000
v -379.0 992.0 -29.0 1.000 1.000 1.000
v -379.0 992.0 29.0 1.000 1.000 1.000
v -379.0 -992.0 29.0 1.000 1.000 1.000
v -379.0 -992.0 -29.0 1.000 1.000 1.000
v 379.0 992.0 -29.0 1.000 1.000 1.000
v 379.0 992.0 29.0 1.000 1.000 1.000
v 379.0 -992.0 29.0 1.000 1.000 1.000
v 379.0 -992.0 -29.0 1.000 1.000 1.000
vt -1.1230 1.0698
vt 1.0020 1.0698
vt 1.0020 -0.9912
vt -1.1230 -0.9912
vt 0.8516 0.9995
vt 1.0000 1.0000
vt 1.0000 -1.7998
vt 0.8516 -1.8003
vn 0.577 0.577 0.577
vn 0.577 0.577 0.577
vn 0.577 0.577 0.577
vn 0.577 0.577 0.577
vn 0.577 0.577 0.577
vn 0.577 0.577 0.577
vn 0.577 0.577 0.577
vn 0.577 0.577 0.577
vn 0.577 0.577 0.577
vn 0.577 0.577 0.577
vn 0.577 0.577 0.577
vn 0.577 0.577 0.577
usemtl tex_619_lit_sec_ds
f 1/1/1 2/2/2 3/3/3
f 1/1/1 3/3/3 4/4/4
f 5/5/5 6/6/6 7/7/7
f 5/5/5 7/7/7 8/8/8
f 9/5/9 10/6/10 11/7/11
f 9/5/9 11/7/11 12/8/12
