mtllib Pdoor_winZ.mtl
v 157.0 142.0 2.0 1.000 1.000 1.000
v -157.0 142.0 2.0 1.000 1.000 1.000
v -157.0 -142.0 2.0 1.000 1.000 1.000
v 157.0 -142.0 2.0 1.000 1.000 1.000
v 157.0 -142.0 -2.0 1.000 1.000 1.000
v -157.0 -142.0 -2.0 1.000 1.000 1.000
v -157.0 142.0 -2.0 1.000 1.000 1.000
v 157.0 142.0 -2.0 1.000 1.000 1.000
v -157.0 -142.0 -2.0 1.000 1.000 1.000
v -157.0 -142.0 2.0 1.000 1.000 1.000
v -157.0 142.0 2.0 1.000 1.000 1.000
v -157.0 142.0 -2.0 1.000 1.000 1.000
v 157.0 142.0 -2.0 1.000 1.000 1.000
v 157.0 142.0 2.0 1.000 1.000 1.000
v 157.0 -142.0 2.0 1.000 1.000 1.000
v 157.0 -142.0 -2.0 1.000 1.000 1.000
v 157.0 -142.0 2.0 1.000 1.000 1.000
v -157.0 -142.0 2.0 1.000 1.000 1.000
v -157.0 -141.0 -2.0 1.000 1.000 1.000
v 157.0 -141.0 -2.0 1.000 1.000 1.000
v 157.0 142.0 -2.0 1.000 1.000 1.000
v -157.0 142.0 -2.0 1.000 1.000 1.000
v -157.0 141.0 2.0 1.000 1.000 1.000
v 157.0 141.0 2.0 1.000 1.000 1.000
vt 0.7804 0.2472
vt 0.2196 0.2472
vt 0.2196 0.7528
vt 0.7804 0.7528
vt 0.1719 0.2826
vt 0.1709 0.2185
vt 0.1719 0.7174
vt 0.1709 0.7815
vt 0.8291 0.2185
vt 0.8281 0.2826
vt 0.8291 0.7815
vt 0.8281 0.7174
vt 0.2201 0.7641
vt 0.7824 0.7626
vt 0.7806 0.8755
vt 0.2194 0.8755
vt 0.7806 0.1245
vt 0.2194 0.1245
vt 0.2176 0.2374
vt 0.7799 0.2359
vn 0.561 0.506 0.656
vn -0.561 0.506 0.656
vn -0.561 -0.506 0.656
vn 0.561 -0.506 0.656
vn -0.561 0.506 -0.656
vn 0.561 0.506 -0.656
vn 0.561 -0.506 -0.656
vn -0.561 -0.506 -0.656
vn -0.656 0.435 0.617
vn -0.658 0.563 -0.500
vn -0.656 -0.435 -0.617
vn -0.658 -0.563 0.500
vn 0.658 0.563 -0.500
vn 0.656 0.435 0.617
vn 0.658 -0.563 0.500
vn 0.656 -0.435 -0.617
vn -0.560 -0.528 -0.639
vn 0.565 -0.525 -0.637
vn 0.561 -0.751 0.348
vn -0.561 -0.751 0.348
vn 0.561 0.751 -0.348
vn -0.561 0.751 -0.348
vn -0.565 0.525 0.637
vn 0.560 0.528 0.639
usemtl tex_654_lit_env_sec_ds_w11
f 1/1/1 2/2/2 3/3/3
f 1/1/1 3/3/3 4/4/4
f 5/2/5 6/1/6 7/4/7
f 5/2/5 7/4/7 8/3/8
f 9/5/9 10/6/10 11/7/11
f 9/5/9 11/7/11 12/8/12
f 13/9/13 14/10/14 15/11/15
f 13/9/13 15/11/15 16/12/16
f 17/13/17 18/14/18 19/15/19
f 17/13/17 19/15/19 20/16/20
f 21/17/21 22/18/22 23/19/23
f 21/17/21 23/19/23 24/20/24
