mtllib Pgas_plant_sw4_do1Z.mtl
v -44.0 -787.0 350.0 1.000 1.000 1.000
v -44.0 788.0 350.0 1.000 1.000 1.000
v -44.0 788.0 -350.0 1.000 1.000 1.000
v -44.0 -787.0 -350.0 1.000 1.000 1.000
v -44.0 788.0 350.0 1.000 1.000 1.000
v -44.0 -787.0 350.0 1.000 1.000 1.000
v 44.0 -787.0 350.0 1.000 1.000 1.000
v 44.0 788.0 350.0 1.000 1.000 1.000
v 44.0 788.0 -350.0 1.000 1.000 1.000
v 44.0 -787.0 -350.0 1.000 1.000 1.000
v -44.0 -787.0 -350.0 1.000 1.000 1.000
v -44.0 788.0 -350.0 1.000 1.000 1.000
v 44.0 -787.0 -350.0 1.000 1.000 1.000
v 44.0 788.0 -350.0 1.000 1.000 1.000
v 44.0 788.0 350.0 1.000 1.000 1.000
v 44.0 -787.0 350.0 1.000 1.000 1.000
vt 0.0000 1.0000
vt 0.0000 0.0000
vt 1.0000 0.0000
vt 1.0000 1.0000
vn -0.577 -0.577 -0.577
vn -0.577 -0.577 -0.577
vn -0.577 -0.577 -0.577
vn -0.577 -0.577 -0.577
vn 0.577 0.577 0.577
vn 0.577 0.577 0.577
vn 0.577 0.577 0.577
vn 0.577 0.577 0.577
vn -0.577 -0.577 -0.577
vn -0.577 -0.577 -0.577
vn -0.577 -0.577 -0.577
vn -0.577 -0.577 -0.577
vn 0.577 0.577 0.577
vn 0.577 0.577 0.577
vn 0.577 0.577 0.577
vn 0.577 0.577 0.577
usemtl tex_720_lit_ds
f 1/1/1 2/2/2 3/3/3
f 1/1/1 3/3/3 4/4/4
f 5/2/5 6/1/6 7/1/7
f 5/2/5 7/1/7 8/2/8
f 9/3/9 10/4/10 11/4/11
f 9/3/9 11/4/11 12/3/12
f 13/4/13 14/3/14 15/2/15
f 13/4/13 15/2/15 16/1/16
