mtllib Pglassware1Z.mtl
v 39.0 -60.0 -9.0 1.000 1.000 1.000
v 39.0 60.0 -9.0 1.000 1.000 1.000
v 27.0 60.0 29.0 1.000 1.000 1.000
v 27.0 -60.0 29.0 1.000 1.000 1.000
v 12.0 -60.0 -38.0 1.000 1.000 1.000
v 12.0 60.0 -38.0 1.000 1.000 1.000
v -27.0 -60.0 -29.0 1.000 1.000 1.000
v -27.0 60.0 -29.0 1.000 1.000 1.000
v -39.0 -60.0 9.0 1.000 1.000 1.000
v -39.0 60.0 9.0 1.000 1.000 1.000
v -12.0 -60.0 38.0 1.000 1.000 1.000
v -12.0 60.0 38.0 1.000 1.000 1.000
vt 0.9875 0.5000
vt 0.8414 0.5000
vt 0.6462 0.5000
vt 0.1586 0.5000
vt 0.0125 0.5000
vt 0.3538 0.5000
vn 0.975 0.000 -0.222
vn 0.975 0.000 -0.222
vn 0.683 0.000 0.731
vn 0.683 0.000 0.731
vn 0.292 0.000 -0.956
vn 0.292 0.000 -0.956
vn -0.683 0.000 -0.731
vn -0.683 0.000 -0.731
vn -0.975 0.000 0.222
vn -0.975 0.000 0.222
vn -0.292 0.000 0.956
vn -0.292 0.000 0.956
usemtl tex_655_lit_env_sec_ds_w11
f 1/1/1 2/1/2 3/2/3
f 1/1/1 3/2/3 4/2/4
f 5/3/5 6/3/6 2/1/2
f 5/3/5 2/1/2 1/1/1
f 7/4/7 8/4/8 6/3/6
f 7/4/7 6/3/6 5/3/5
f 9/5/9 10/5/10 8/4/8
f 9/5/9 8/4/8 7/4/7
f 11/6/11 12/6/12 10/5/10
f 11/6/11 10/5/10 9/5/9
f 4/2/4 3/2/3 12/6/12
f 4/2/4 12/6/12 11/6/11
