mtllib PgoldeneyelogoZ.mtl
v -1030.0 47.0 0.0 0.153 0.114 0.459
v -1022.0 47.0 0.0 0.169 0.110 0.451
v -1020.0 101.0 0.0 0.161 0.208 0.420
v -1051.0 81.0 0.0 0.106 0.180 0.447
v -1098.0 106.0 0.0 0.008 0.231 0.439
v -1072.0 87.0 0.0 0.067 0.196 0.451
v -1108.0 91.0 0.0 0.996 0.204 0.451
v -1182.0 96.0 0.0 0.851 0.204 0.424
v -1193.0 64.0 0.0 0.824 0.145 0.439
v -1167.0 82.0 0.0 0.000 0.000 0.000
v -1245.0 65.0 0.0 0.741 0.133 0.400
v -1218.0 29.0 0.0 0.000 0.000 0.000
v -1224.0 -10.0 0.0 0.761 1.000 0.431
v -1274.0 30.0 0.0 0.698 0.067 0.384
v -1284.0 -11.0 0.0 0.686 1.000 0.380
v -1217.0 -51.0 0.0 0.000 0.000 0.000
v -1284.0 -11.0 0.0 0.686 1.000 0.380
v -1191.0 -81.0 0.0 0.827 0.855 0.435
v -1217.0 -51.0 0.0 0.000 0.000 0.000
v -1268.0 -61.0 0.0 0.000 0.000 0.000
v -1238.0 -93.0 0.0 0.757 0.847 0.396
v -1105.0 -108.0 0.0 0.000 0.796 0.451
v -1161.0 -99.0 0.0 0.000 0.000 0.000
v -1181.0 -119.0 0.0 0.000 0.000 0.000
v -1112.0 -124.0 0.0 0.988 0.769 0.435
v -1062.0 -104.0 0.0 0.086 0.804 0.447
v -1060.0 -121.0 0.0 0.086 0.776 0.431
v -1009.0 -108.0 0.0 0.180 0.808 0.416
v -1007.0 -31.0 0.0 0.200 0.957 0.451
v -1061.0 -52.0 0.0 0.090 0.906 0.478
v -1063.0 -31.0 0.0 0.090 0.953 0.486
v -965.0 -15.0 0.0 0.267 0.988 0.416
v -965.0 -10.0 0.0 0.267 1.000 0.416
v -1039.0 -13.0 0.0 0.141 0.992 0.475
v -995.0 -24.0 0.0 0.224 0.973 0.443
v -1007.0 -31.0 0.0 0.200 0.957 0.451
v -1063.0 -31.0 0.0 0.090 0.953 0.486
v -1077.0 -25.0 0.0 0.059 0.965 0.490
v -1112.0 -15.0 0.0 0.988 0.988 0.494
v -1113.0 -10.0 0.0 0.984 1.000 0.494
v -736.0 -113.0 0.0 0.188 0.843 0.431
v -772.0 -110.0 0.0 0.000 0.000 0.000
v -809.0 -123.0 0.0 0.035 0.812 0.455
v -806.0 -113.0 0.0 0.043 0.831 0.463
v -738.0 -94.0 0.0 0.188 0.882 0.443
v -690.0 -93.0 0.0 0.267 0.894 0.404
v -718.0 -67.0 0.0 0.000 0.000 0.000
v -690.0 -93.0 0.0 0.267 0.894 0.404
v -711.0 -37.0 0.0 0.239 0.000 0.431
v -718.0 -67.0 0.0 0.000 0.000 0.000
v -663.0 -65.0 0.0 0.306 0.953 0.384
v -654.0 -33.0 0.0 0.318 0.004 0.380
v -666.0 4.0 0.0 0.302 0.075 0.384
v -715.0 -3.0 0.0 0.000 0.000 0.000
v -739.0 25.0 0.0 0.184 0.133 0.439
v -700.0 34.0 0.0 0.247 0.137 0.404
v -738.0 48.0 0.0 0.180 0.176 0.427
v -773.0 43.0 0.0 0.000 0.000 0.000
v -807.0 57.0 0.0 0.039 0.204 0.447
v -807.0 47.0 0.0 0.039 0.184 0.459
v -844.0 43.0 0.0 0.000 0.000 0.000
v -880.0 48.0 0.0 0.886 0.184 0.443
v -880.0 29.0 0.0 0.882 0.145 0.459
v -880.0 29.0 0.0 0.882 0.145 0.459
v -880.0 48.0 0.0 0.886 0.184 0.443
v -928.0 27.0 0.0 0.788 0.133 0.427
v -899.0 4.0 0.0 0.000 0.000 0.000
v -955.0 0.0 0.0 0.741 0.075 0.416
v -905.0 -26.0 0.0 0.827 0.020 0.463
v -962.0 -29.0 0.0 0.729 0.016 0.412
v -952.0 -70.0 0.0 0.745 0.937 0.416
v -901.0 -63.0 0.0 0.000 0.000 0.000
v -878.0 -91.0 0.0 0.886 0.882 0.467
v -919.0 -99.0 0.0 0.808 0.875 0.435
v -880.0 -113.0 0.0 0.882 0.835 0.451
v -842.0 -110.0 0.0 0.000 0.000 0.000
v -809.0 -123.0 0.0 0.035 0.812 0.455
v -806.0 -113.0 0.0 0.043 0.831 0.463
v -423.0 -69.0 0.0 0.282 0.969 0.404
v -416.0 -119.0 0.0 0.282 0.867 0.380
v -416.0 -69.0 0.0 0.294 0.969 0.396
v -438.0 -91.0 0.0 0.259 0.918 0.416
v -450.0 -100.0 0.0 0.235 0.894 0.424
v -567.0 -102.0 0.0 0.973 0.875 0.478
v -670.0 -119.0 0.0 0.753 0.859 0.400
v -670.0 -115.0 0.0 0.749 0.867 0.404
v -635.0 -108.0 0.0 0.812 0.875 0.439
v -621.0 -103.0 0.0 0.839 0.882 0.451
v -565.0 37.0 0.0 0.976 0.212 0.447
v -621.0 37.0 0.0 0.851 0.200 0.424
v -635.0 42.0 0.0 0.824 0.208 0.412
v -551.0 42.0 0.0 0.004 0.224 0.443
v -670.0 51.0 0.0 0.765 0.208 0.380
v -516.0 51.0 0.0 0.086 0.235 0.427
v -366.0 -102.0 0.0 0.824 0.851 0.435
v -416.0 -115.0 0.0 0.749 0.843 0.392
v -416.0 -119.0 0.0 0.753 0.835 0.392
v -310.0 -106.0 0.0 0.933 0.835 0.459
v -259.0 -119.0 0.0 0.035 0.808 0.455
v -246.0 -106.0 0.0 0.031 0.827 0.463
v -200.0 -120.0 0.0 0.188 0.878 0.439
v -205.0 -102.0 0.0 0.000 0.000 0.000
v -205.0 -102.0 0.0 0.035 0.808 0.455
v -200.0 -120.0 0.0 0.000 0.000 0.000
v -140.0 -95.0 0.0 0.255 0.875 0.404
v -185.0 -89.0 0.0 0.188 0.878 0.439
v -102.0 -64.0 0.0 0.000 0.000 0.000
v -160.0 -62.0 0.0 0.000 0.000 0.000
v -96.0 -33.0 0.0 0.318 0.996 0.380
v -155.0 -34.0 0.0 0.243 0.988 0.431
v -155.0 -34.0 0.0 0.243 0.988 0.431
v -96.0 -33.0 0.0 0.318 0.996 0.380
v -102.0 -10.0 0.0 0.000 0.000 0.000
v -160.0 -6.0 0.0 0.000 0.000 0.000
v -116.0 12.0 0.0 0.294 0.067 0.392
v -174.0 23.0 0.0 0.188 0.102 0.447
v -172.0 43.0 0.0 0.208 0.137 0.427
v -210.0 51.0 0.0 0.137 0.157 0.447
v -215.0 40.0 0.0 0.000 0.000 0.000
v -266.0 41.0 0.0 0.024 0.145 0.475
v -364.0 -33.0 0.0 0.820 0.992 0.459
v -310.0 42.0 0.0 0.933 0.145 0.467
v -366.0 37.0 0.0 0.820 0.129 0.443
v -311.0 -32.0 0.0 0.925 0.992 0.490
v -366.0 -102.0 0.0 0.824 0.851 0.435
v -310.0 -106.0 0.0 0.933 0.835 0.459
v -266.0 41.0 0.0 0.024 0.145 0.475
v -269.0 51.0 0.0 0.016 0.165 0.467
v -310.0 42.0 0.0 0.933 0.145 0.467
v -416.0 53.0 0.0 0.749 0.145 0.396
v -366.0 37.0 0.0 0.820 0.129 0.443
v -416.0 49.0 0.0 0.745 0.137 0.400
v -210.0 51.0 0.0 0.137 0.157 0.447
v 114.0 30.0 0.0 0.157 0.129 0.451
v 124.0 14.0 0.0 0.180 0.094 0.451
v 131.0 14.0 0.0 0.192 0.094 0.447
v 130.0 40.0 0.0 0.184 0.145 0.435
v 130.0 52.0 0.0 0.184 0.165 0.427
v 105.0 38.0 0.0 0.141 0.145 0.451
v 82.0 40.0 0.0 0.090 0.153 0.463
v -118.0 53.0 0.0 0.725 0.149 0.380
v -14.0 39.0 0.0 0.894 0.149 0.459
v -118.0 53.0 0.0 0.725 0.149 0.380
v -118.0 49.0 0.0 0.725 0.145 0.380
v -14.0 39.0 0.0 0.894 0.149 0.459
v -83.0 42.0 0.0 0.769 0.141 0.412
v -69.0 37.0 0.0 0.792 0.133 0.427
v -66.0 -23.0 0.0 0.788 0.016 0.443
v -16.0 -23.0 0.0 0.886 0.020 0.482
v 95.0 -15.0 0.0 0.125 0.035 0.478
v 111.0 -29.0 0.0 0.161 0.004 0.471
v 112.0 -16.0 0.0 0.161 0.035 0.467
v 95.0 -43.0 0.0 0.125 0.980 0.478
v 112.0 -40.0 0.0 0.161 0.988 0.471
v 107.0 -59.0 0.0 0.149 0.945 0.471
v 114.0 -59.0 0.0 0.161 0.945 0.463
v 114.0 -1.0 0.0 0.165 0.067 0.463
v 108.0 -1.0 0.0 0.149 0.067 0.467
v 85.0 -37.0 0.0 0.102 0.996 0.486
v 95.0 -43.0 0.0 0.125 0.980 0.478
v 95.0 -15.0 0.0 0.125 0.035 0.478
v 86.0 -21.0 0.0 0.106 0.024 0.482
v -16.0 -36.0 0.0 0.882 0.996 0.482
v -16.0 -23.0 0.0 0.886 0.020 0.482
v -66.0 -36.0 0.0 0.788 0.996 0.447
v -66.0 -23.0 0.0 0.788 0.016 0.443
v -69.0 -102.0 0.0 0.792 0.867 0.424
v -14.0 -103.0 0.0 0.894 0.855 0.459
v -83.0 -108.0 0.0 0.773 0.859 0.412
v -118.0 -115.0 0.0 0.725 0.859 0.380
v -118.0 -119.0 0.0 0.725 0.851 0.380
v 89.0 -103.0 0.0 0.106 0.851 0.459
v 139.0 -119.0 0.0 0.196 0.831 0.420
v 107.0 -101.0 0.0 0.145 0.859 0.451
v 119.0 -92.0 0.0 0.169 0.878 0.447
v 107.0 -101.0 0.0 0.145 0.859 0.451
v 139.0 -119.0 0.0 0.196 0.831 0.420
v 134.0 -72.0 0.0 0.200 0.922 0.447
v 141.0 -72.0 0.0 0.212 0.925 0.439
v 285.0 -119.0 0.0 0.969 0.820 0.459
v 285.0 -117.0 0.0 0.969 0.824 0.459
v 156.0 -117.0 0.0 0.761 0.847 0.400
v 156.0 -119.0 0.0 0.761 0.843 0.400
v 250.0 -108.0 0.0 0.902 0.843 0.459
v 188.0 -107.0 0.0 0.804 0.855 0.427
v 237.0 -101.0 0.0 0.878 0.855 0.455
v 200.0 -101.0 0.0 0.820 0.863 0.435
v 233.0 -66.0 0.0 0.867 0.918 0.467
v 203.0 -74.0 0.0 0.820 0.906 0.451
v 230.0 17.0 0.0 0.863 0.071 0.471
v 203.0 17.0 0.0 0.816 0.067 0.455
v 203.0 -74.0 0.0 0.820 0.906 0.451
v 252.0 52.0 0.0 0.906 0.137 0.467
v 199.0 37.0 0.0 0.812 0.102 0.447
v 186.0 42.0 0.0 0.796 0.110 0.435
v 156.0 52.0 0.0 0.757 0.122 0.412
v 156.0 50.0 0.0 0.753 0.118 0.412
v 431.0 -123.0 0.0 0.212 0.831 0.412
v 421.0 -67.0 0.0 0.208 0.922 0.443
v 451.0 -139.0 0.0 0.235 0.835 0.400
v 450.0 -67.0 0.0 0.247 0.925 0.424
v 449.0 15.0 0.0 0.251 0.059 0.424
v 421.0 -2.0 0.0 0.212 0.031 0.447
v 454.0 36.0 0.0 0.251 0.094 0.416
v 417.0 33.0 0.0 0.204 0.094 0.443
v 454.0 36.0 0.0 0.251 0.094 0.416
v 467.0 42.0 0.0 0.267 0.102 0.404
v 404.0 42.0 0.0 0.180 0.114 0.447
v 417.0 33.0 0.0 0.204 0.094 0.443
v 496.0 49.0 0.0 0.298 0.106 0.380
v 367.0 49.0 0.0 0.118 0.129 0.463
v 496.0 53.0 0.0 0.298 0.114 0.380
v 367.0 53.0 0.0 0.118 0.137 0.463
v 203.0 -74.0 0.0 0.820 0.906 0.451
v 233.0 -66.0 0.0 0.867 0.918 0.467
v 230.0 17.0 0.0 0.863 0.071 0.471
v 745.0 -58.0 0.0 0.204 0.902 0.439
v 737.0 -58.0 0.0 0.192 0.898 0.443
v 742.0 -119.0 0.0 0.184 0.800 0.412
v 722.0 -84.0 0.0 0.161 0.851 0.443
v 710.0 -96.0 0.0 0.137 0.827 0.443
v 710.0 -96.0 0.0 0.137 0.827 0.443
v 674.0 -99.0 0.0 0.071 0.816 0.455
v 742.0 -119.0 0.0 0.184 0.800 0.412
v 485.0 -119.0 0.0 0.749 0.816 0.380
v 590.0 -98.0 0.0 0.910 0.820 0.451
v 485.0 -113.0 0.0 0.749 0.824 0.380
v 520.0 -104.0 0.0 0.792 0.824 0.412
v 534.0 -98.0 0.0 0.812 0.831 0.424
v 588.0 -13.0 0.0 0.898 0.988 0.482
v 537.0 -13.0 0.0 0.804 0.988 0.455
v 588.0 4.0 0.0 0.898 0.016 0.482
v 537.0 4.0 0.0 0.804 0.016 0.455
v 657.0 -13.0 0.0 0.039 0.988 0.494
v 672.0 5.0 0.0 0.071 0.016 0.490
v 688.0 -14.0 0.0 0.102 0.984 0.486
v 690.0 6.0 0.0 0.106 0.020 0.482
v 688.0 -14.0 0.0 0.102 0.984 0.486
v 699.0 -22.0 0.0 0.125 0.969 0.478
v 699.0 14.0 0.0 0.125 0.035 0.478
v 690.0 6.0 0.0 0.106 0.020 0.482
v 715.0 13.0 0.0 0.157 0.035 0.471
v 717.0 32.0 0.0 0.161 0.071 0.463
v 711.0 32.0 0.0 0.149 0.071 0.467
v 710.0 -42.0 0.0 0.145 0.929 0.467
v 717.0 -42.0 0.0 0.157 0.929 0.463
v 715.0 -13.0 0.0 0.157 0.988 0.471
v 590.0 83.0 0.0 0.910 0.173 0.455
v 536.0 55.0 0.0 0.808 0.114 0.439
v 537.0 4.0 0.0 0.804 0.016 0.455
v 588.0 4.0 0.0 0.898 0.016 0.482
v 534.0 80.0 0.0 0.812 0.157 0.427
v 520.0 86.0 0.0 0.788 0.165 0.416
v 590.0 83.0 0.0 0.910 0.173 0.455
v 485.0 96.0 0.0 0.745 0.169 0.388
v 520.0 86.0 0.0 0.788 0.165 0.416
v 485.0 101.0 0.0 0.745 0.176 0.384
v 733.0 101.0 0.0 0.173 0.192 0.420
v 690.0 83.0 0.0 0.102 0.173 0.455
v 708.0 81.0 0.0 0.137 0.165 0.447
v 717.0 71.0 0.0 0.153 0.145 0.447
v 728.0 50.0 0.0 0.176 0.106 0.451
v 734.0 50.0 0.0 0.184 0.106 0.447
v 801.0 -115.0 0.0 0.824 0.800 0.412
v 801.0 -119.0 0.0 0.824 0.792 0.412
v 955.0 -119.0 0.0 0.137 0.788 0.424
v 955.0 -115.0 0.0 0.141 0.796 0.427
v 920.0 -108.0 0.0 0.071 0.800 0.447
v 832.0 -108.0 0.0 0.882 0.804 0.435
v 832.0 -108.0 0.0 0.882 0.804 0.435
v 920.0 -108.0 0.0 0.071 0.800 0.447
v 906.0 -102.0 0.0 0.039 0.808 0.455
v 849.0 -103.0 0.0 0.918 0.812 0.447
v 903.0 -89.0 0.0 0.031 0.835 0.467
v 852.0 -98.0 0.0 0.922 0.820 0.451
v 853.0 -86.0 0.0 0.922 0.843 0.463
v 903.0 -57.0 0.0 0.035 0.906 0.486
v 851.0 -57.0 0.0 0.918 0.906 0.478
v 892.0 -37.0 0.0 0.008 0.957 0.494
v 835.0 -37.0 0.0 0.875 0.957 0.475
v 921.0 -37.0 0.0 0.078 0.957 0.486
v 847.0 15.0 0.0 0.906 0.075 0.478
v 798.0 8.0 0.0 0.800 0.051 0.447
v 831.0 38.0 0.0 0.871 0.125 0.459
v 768.0 38.0 0.0 0.757 0.114 0.412
v 831.0 38.0 0.0 0.871 0.125 0.459
v 841.0 43.0 0.0 0.894 0.137 0.463
v 755.0 45.0 0.0 0.737 0.122 0.400
v 768.0 38.0 0.0 0.757 0.114 0.412
v 869.0 49.0 0.0 0.961 0.153 0.471
v 737.0 49.0 0.0 0.714 0.125 0.380
v 869.0 53.0 0.0 0.961 0.161 0.467
v 737.0 53.0 0.0 0.714 0.133 0.380
v 892.0 -37.0 0.0 0.008 0.957 0.494
v 921.0 -37.0 0.0 0.078 0.957 0.486
v 947.0 -8.0 0.0 0.137 0.020 0.475
v 940.0 14.0 0.0 0.122 0.071 0.475
v 991.0 37.0 0.0 0.220 0.114 0.427
v 956.0 39.0 0.0 0.153 0.125 0.455
v 1003.0 45.0 0.0 0.239 0.125 0.416
v 948.0 44.0 0.0 0.137 0.137 0.455
v 1003.0 45.0 0.0 0.239 0.125 0.416
v 1024.0 49.0 0.0 0.267 0.129 0.396
v 923.0 49.0 0.0 0.078 0.153 0.467
v 948.0 44.0 0.0 0.137 0.137 0.455
v 974.0 52.0 0.0 0.184 0.149 0.435
v 923.0 53.0 0.0 0.078 0.161 0.463
v 1024.0 53.0 0.0 0.267 0.137 0.392
v 1257.0 30.0 0.0 0.157 0.129 0.451
v 1267.0 14.0 0.0 0.180 0.094 0.451
v 1273.0 14.0 0.0 0.192 0.094 0.447
v 1273.0 40.0 0.0 0.184 0.145 0.435
v 1273.0 52.0 0.0 0.184 0.165 0.427
v 1248.0 38.0 0.0 0.141 0.145 0.451
v 1224.0 40.0 0.0 0.090 0.153 0.463
v 1024.0 53.0 0.0 0.725 0.149 0.380
v 1129.0 39.0 0.0 0.894 0.149 0.459
v 1024.0 53.0 0.0 0.725 0.149 0.380
v 1024.0 49.0 0.0 0.725 0.145 0.380
v 1129.0 39.0 0.0 0.894 0.149 0.459
v 1059.0 42.0 0.0 0.769 0.141 0.412
v 1074.0 37.0 0.0 0.792 0.133 0.427
v 1076.0 -23.0 0.0 0.788 0.016 0.443
v 1127.0 -23.0 0.0 0.886 0.020 0.482
v 1238.0 -15.0 0.0 0.125 0.035 0.478
v 1254.0 -29.0 0.0 0.161 0.004 0.471
v 1255.0 -16.0 0.0 0.161 0.035 0.467
v 1238.0 -43.0 0.0 0.125 0.980 0.478
v 1254.0 -40.0 0.0 0.161 0.988 0.471
v 1249.0 -59.0 0.0 0.149 0.945 0.471
v 1256.0 -59.0 0.0 0.161 0.945 0.463
v 1257.0 -1.0 0.0 0.165 0.067 0.463
v 1250.0 -1.0 0.0 0.149 0.067 0.467
v 1227.0 -37.0 0.0 0.102 0.996 0.486
v 1238.0 -43.0 0.0 0.125 0.980 0.478
v 1238.0 -15.0 0.0 0.125 0.035 0.478
v 1229.0 -21.0 0.0 0.106 0.024 0.482
v 1127.0 -36.0 0.0 0.882 0.996 0.482
v 1127.0 -23.0 0.0 0.886 0.020 0.482
v 1076.0 -36.0 0.0 0.788 0.996 0.447
v 1076.0 -23.0 0.0 0.788 0.016 0.443
v 1074.0 -102.0 0.0 0.792 0.867 0.424
v 1129.0 -103.0 0.0 0.894 0.855 0.459
v 1059.0 -108.0 0.0 0.773 0.859 0.412
v 1024.0 -115.0 0.0 0.725 0.859 0.380
v 1024.0 -119.0 0.0 0.725 0.851 0.380
v 1232.0 -103.0 0.0 0.106 0.851 0.459
v 1282.0 -119.0 0.0 0.196 0.831 0.420
v 1250.0 -101.0 0.0 0.145 0.859 0.451
v 1261.0 -92.0 0.0 0.169 0.878 0.447
v 1250.0 -101.0 0.0 0.145 0.859 0.451
v 1282.0 -119.0 0.0 0.196 0.831 0.420
v 1276.0 -72.0 0.0 0.200 0.922 0.447
v 1284.0 -72.0 0.0 0.212 0.925 0.439
v 831.0 272.0 -49.0 1.000 0.000 0.000
v 826.0 252.0 -46.0 1.000 0.000 0.000
v 854.0 257.0 -52.0 1.000 0.000 0.000
v 875.0 270.0 -57.0 1.000 0.000 0.000
v 881.0 248.0 -58.0 1.000 0.000 0.000
v 895.0 264.0 -65.0 1.000 0.000 0.000
v 759.0 232.0 -35.0 1.000 0.000 0.000
v 764.0 255.0 -28.0 1.000 0.000 0.000
v 681.0 182.0 -13.0 1.000 0.000 0.000
v 587.0 110.0 9.0 1.000 0.000 0.000
v 654.0 201.0 -5.0 1.000 0.000 0.000
v 559.0 130.0 20.0 1.000 0.000 0.000
v 441.0 7.0 45.0 1.000 0.000 0.000
v 400.0 -102.0 50.0 1.000 0.000 0.000
v 393.0 -123.0 51.0 1.000 0.000 0.000
v 405.0 -105.0 48.0 1.000 0.000 0.000
v 441.0 7.0 45.0 1.000 0.000 0.000
v 405.0 -105.0 48.0 1.000 0.000 0.000
v 462.0 -19.0 34.0 1.000 0.000 0.000
v 382.0 -90.0 60.0 1.000 0.000 0.000
v 373.0 -105.0 62.0 1.000 0.000 0.000
v 393.0 -123.0 51.0 1.000 0.000 0.000
v 400.0 -102.0 50.0 1.000 0.000 0.000
v 349.0 -169.0 65.0 1.000 0.000 0.000
v 345.0 -209.0 67.0 1.000 0.000 0.000
v 361.0 -197.0 54.0 1.000 0.000 0.000
v 347.0 -234.0 66.0 1.000 0.000 0.000
v 359.0 -231.0 56.0 1.000 0.000 0.000
v 361.0 -258.0 65.0 1.000 0.000 0.000
v 366.0 -244.0 57.0 1.000 0.000 0.000
v 393.0 -272.0 49.0 1.000 0.000 0.000
v 398.0 -257.0 46.0 1.000 0.000 0.000
v 393.0 -272.0 49.0 1.000 0.000 0.000
v 462.0 -243.0 35.0 1.000 0.000 0.000
v 398.0 -257.0 46.0 1.000 0.000 0.000
v 460.0 -265.0 28.0 1.000 0.000 0.000
v 535.0 -202.0 15.0 1.000 0.000 0.000
v 556.0 -217.0 5.0 1.000 0.000 0.000
v 814.0 97.0 -51.0 1.000 0.000 0.000
v 868.0 140.0 -62.0 1.000 0.000 0.000
v 898.0 213.0 -67.0 1.000 0.000 0.000
v 874.0 202.0 -54.0 1.000 0.000 0.000
v 903.0 245.0 -66.0 1.000 0.000 0.000
v 882.0 226.0 -56.0 1.000 0.000 0.000
v 895.0 264.0 -65.0 1.000 0.000 0.000
v 881.0 248.0 -58.0 1.000 0.000 0.000
v 788.0 5.0 -45.0 1.000 0.000 0.000
v 791.0 15.0 -46.0 1.000 0.000 0.000
v 768.0 39.0 -40.0 1.000 0.000 0.000
v 740.0 3.0 -33.0 1.000 0.000 0.000
v 802.0 53.0 -48.0 1.000 0.000 0.000
v 814.0 97.0 -51.0 1.000 0.000 0.000
v 780.0 53.0 -43.0 1.000 0.000 0.000
v 793.0 13.0 -46.0 1.000 0.000 0.000
v 817.0 53.0 -51.0 1.000 0.000 0.000
v 868.0 140.0 -62.0 1.000 0.000 0.000
v 574.0 101.0 12.0 1.000 0.000 0.000
v 441.0 7.0 45.0 1.000 0.000 0.000
v 462.0 -19.0 34.0 1.000 0.000 0.000
v 578.0 101.0 11.0 1.000 0.000 0.000
v 587.0 110.0 9.0 1.000 0.000 0.000
v 531.0 101.0 26.0 1.000 0.000 0.000
v 441.0 7.0 45.0 1.000 0.000 0.000
v 574.0 101.0 0.0 1.000 0.000 0.000
v 587.0 110.0 9.0 1.000 0.000 0.000
v 559.0 130.0 20.0 1.000 0.000 0.000
v 574.0 101.0 12.0 1.000 0.000 0.000
v 556.0 -217.0 5.0 1.000 0.000 0.000
v 629.0 -119.0 -6.0 1.000 0.000 0.000
v 625.0 -119.0 -5.0 1.000 0.000 0.000
v 535.0 -202.0 15.0 1.000 0.000 0.000
v 662.0 -139.0 -17.0 1.000 0.000 0.000
v 648.0 -119.0 -11.0 1.000 0.000 0.000
v 680.0 -119.0 -21.0 1.000 0.000 0.000
v 652.0 -99.0 -11.0 1.000 0.000 0.000
v 788.0 5.0 -45.0 1.000 0.000 0.000
v 740.0 3.0 -33.0 1.000 0.000 0.000
v 652.0 -99.0 -11.0 1.000 0.000 0.000
v 740.0 3.0 -33.0 1.000 0.000 0.000
v 646.0 -99.0 -10.0 1.000 0.000 0.000
v 699.0 -97.0 -25.0 1.000 0.000 0.000
v 788.0 5.0 -45.0 1.000 0.000 0.000
v 685.0 -98.0 -12.0 1.000 0.000 0.000
v 674.0 -99.0 0.0 1.000 0.000 0.000
vt 0.0000 1.0000
vn 0.000 0.000 1.000
vn 0.000 0.000 1.000
vn 0.000 0.000 1.000
vn 0.000 0.000 1.000
vn 0.000 0.000 1.000
vn 0.000 0.000 1.000
vn 0.000 0.000 1.000
vn 0.000 0.000 1.000
vn 0.000 0.000 1.000
vn 0.000 0.000 1.000
vn 0.000 0.000 1.000
vn 0.000 0.000 1.000
vn 0.000 0.000 1.000
vn 0.000 0.000 1.000
vn 0.000 0.000 1.000
vn 0.000 0.000 1.000
vn 0.000 0.000 1.000
vn 0.000 0.000 1.000
vn 0.000 0.000 1.000
vn 0.000 0.000 1.000
vn 0.000 0.000 1.000
vn 0.000 0.000 1.000
vn 0.000 0.000 1.000
vn 0.000 0.000 1.000
vn 0.000 0.000 1.000
vn 0.000 0.000 1.000
vn 0.000 0.000 1.000
vn 0.000 0.000 1.000
vn 0.000 0.000 1.000
vn 0.000 0.000 1.000
vn 0.000 0.000 1.000
vn 0.000 0.000 1.000
vn 0.000 0.000 1.000
vn 0.000 0.000 1.000
vn 0.000 0.000 1.000
vn 0.000 0.000 1.000
vn 0.000 0.000 1.000
vn 0.000 0.000 1.000
vn 0.000 0.000 1.000
vn 0.000 0.000 1.000
vn 0.000 0.000 1.000
vn 0.000 0.000 1.000
vn 0.000 0.000 1.000
vn 0.000 0.000 1.000
vn 0.000 0.000 1.000
vn 0.000 0.000 1.000
vn 0.000 0.000 1.000
vn 0.000 0.000 1.000
vn 0.000 0.000 1.000
vn 0.000 0.000 1.000
vn 0.000 0.000 1.000
vn 0.000 0.000 1.000
vn 0.000 0.000 1.000
vn 0.000 0.000 1.000
vn 0.000 0.000 1.000
vn 0.000 0.000 1.000
vn 0.000 0.000 1.000
vn 0.000 0.000 1.000
vn 0.000 0.000 1.000
vn 0.000 0.000 1.000
vn 0.000 0.000 1.000
vn 0.000 0.000 1.000
vn 0.000 0.000 1.000
vn 0.000 0.000 1.000
vn 0.000 0.000 1.000
vn 0.000 0.000 1.000
vn 0.000 0.000 1.000
vn 0.000 0.000 1.000
vn 0.000 0.000 1.000
vn 0.000 0.000 1.000
vn 0.000 0.000 1.000
vn 0.000 0.000 1.000
vn 0.000 0.000 1.000
vn 0.000 0.000 1.000
vn 0.000 0.000 1.000
vn 0.000 0.000 1.000
vn 0.000 0.000 1.000
vn 0.000 0.000 1.000
vn 0.000 0.000 1.000
vn 0.000 0.000 1.000
vn 0.000 0.000 1.000
vn 0.000 0.000 1.000
vn 0.000 0.000 1.000
vn 0.000 0.000 1.000
vn 0.000 0.000 1.000
vn 0.000 0.000 1.000
vn 0.000 0.000 1.000
vn 0.000 0.000 1.000
vn 0.000 0.000 1.000
vn 0.000 0.000 1.000
vn 0.000 0.000 1.000
vn 0.000 0.000 1.000
vn 0.000 0.000 1.000
vn 0.000 0.000 1.000
vn 0.000 0.000 1.000
vn 0.000 0.000 1.000
vn 0.000 0.000 1.000
vn 0.000 0.000 1.000
vn 0.000 0.000 1.000
vn 0.000 0.000 1.000
vn 0.000 0.000 1.000
vn 0.000 0.000 1.000
vn 0.000 0.000 1.000
vn 0.000 0.000 1.000
vn 0.000 0.000 1.000
vn 0.000 0.000 1.000
vn 0.000 0.000 1.000
vn 0.000 0.000 1.000
vn 0.000 0.000 1.000
vn 0.000 0.000 1.000
vn 0.000 0.000 1.000
vn 0.000 0.000 1.000
vn 0.000 0.000 1.000
vn 0.000 0.000 1.000
vn 0.000 0.000 1.000
vn 0.000 0.000 1.000
vn 0.000 0.000 1.000
vn 0.000 0.000 1.000
vn 0.000 0.000 1.000
vn 0.000 0.000 1.000
vn 0.000 0.000 1.000
vn 0.000 0.000 1.000
vn 0.000 0.000 1.000
vn 0.000 0.000 1.000
vn 0.000 0.000 1.000
vn 0.000 0.000 1.000
vn 0.000 0.000 1.000
vn 0.000 0.000 1.000
vn 0.000 0.000 1.000
vn 0.000 0.000 1.000
vn 0.000 0.000 1.000
vn 0.000 0.000 1.000
vn 0.000 0.000 1.000
vn 0.000 0.000 1.000
vn 0.000 0.000 1.000
vn 0.000 0.000 1.000
vn 0.000 0.000 1.000
vn 0.000 0.000 1.000
vn 0.000 0.000 1.000
vn 0.000 0.000 1.000
vn 0.000 0.000 1.000
vn 0.000 0.000 1.000
vn 0.000 0.000 1.000
vn 0.000 0.000 1.000
vn 0.000 0.000 1.000
vn 0.000 0.000 1.000
vn 0.000 0.000 1.000
vn 0.000 0.000 1.000
vn 0.000 0.000 1.000
vn 0.000 0.000 1.000
vn 0.000 0.000 1.000
vn 0.000 0.000 1.000
vn 0.000 0.000 1.000
vn 0.000 0.000 1.000
vn 0.000 0.000 1.000
vn 0.000 0.000 1.000
vn 0.000 0.000 1.000
vn 0.000 0.000 1.000
vn 0.000 0.000 1.000
vn 0.000 0.000 1.000
vn 0.000 0.000 1.000
vn 0.000 0.000 1.000
vn 0.000 0.000 1.000
vn 0.000 0.000 1.000
vn 0.000 0.000 1.000
vn 0.000 0.000 1.000
vn 0.000 0.000 1.000
vn 0.000 0.000 1.000
vn 0.000 0.000 1.000
vn 0.000 0.000 1.000
vn 0.000 0.000 1.000
vn 0.000 0.000 1.000
vn 0.000 0.000 1.000
vn 0.000 0.000 1.000
vn 0.000 0.000 1.000
vn 0.000 0.000 1.000
vn 0.000 0.000 1.000
vn 0.000 0.000 1.000
vn 0.000 0.000 1.000
vn 0.000 0.000 1.000
vn 0.000 0.000 1.000
vn 0.000 0.000 1.000
vn 0.000 0.000 1.000
vn 0.000 0.000 1.000
vn 0.000 0.000 1.000
vn 0.000 0.000 1.000
vn 0.000 0.000 1.000
vn 0.000 0.000 1.000
vn 0.000 0.000 1.000
vn 0.000 0.000 1.000
vn 0.000 0.000 1.000
vn 0.000 0.000 1.000
vn 0.000 0.000 1.000
vn 0.000 0.000 1.000
vn 0.000 0.000 1.000
vn 0.000 0.000 1.000
vn 0.000 0.000 1.000
vn 0.000 0.000 1.000
vn 0.000 0.000 1.000
vn 0.000 0.000 1.000
vn 0.000 0.000 1.000
vn 0.000 0.000 1.000
vn 0.000 0.000 1.000
vn 0.000 0.000 1.000
vn 0.000 0.000 1.000
vn 0.000 0.000 1.000
vn 0.000 0.000 1.000
vn 0.000 0.000 1.000
vn 0.000 0.000 1.000
vn 0.000 0.000 1.000
vn 0.000 0.000 1.000
vn 0.000 0.000 1.000
vn 0.000 0.000 1.000
vn 0.000 0.000 1.000
vn 0.000 0.000 1.000
vn 0.000 0.000 1.000
vn 0.000 0.000 1.000
vn 0.000 0.000 1.000
vn 0.000 0.000 1.000
vn 0.000 0.000 1.000
vn 0.000 0.000 1.000
vn 0.000 0.000 1.000
vn 0.000 0.000 1.000
vn 0.000 0.000 1.000
vn 0.000 0.000 1.000
vn 0.000 0.000 1.000
vn 0.000 0.000 1.000
vn 0.000 0.000 1.000
vn 0.000 0.000 1.000
vn 0.000 0.000 1.000
vn 0.000 0.000 1.000
vn 0.000 0.000 1.000
vn 0.000 0.000 1.000
vn 0.000 0.000 1.000
vn 0.000 0.000 1.000
vn 0.000 0.000 1.000
vn 0.000 0.000 1.000
vn 0.000 0.000 1.000
vn 0.000 0.000 1.000
vn 0.000 0.000 1.000
vn 0.000 0.000 1.000
vn 0.000 0.000 1.000
vn 0.000 0.000 1.000
vn 0.000 0.000 1.000
vn 0.000 0.000 1.000
vn 0.000 0.000 1.000
vn 0.000 0.000 1.000
vn 0.000 0.000 1.000
vn 0.000 0.000 1.000
vn 0.000 0.000 1.000
vn 0.000 0.000 1.000
vn 0.000 0.000 1.000
vn 0.000 0.000 1.000
vn 0.000 0.000 1.000
vn 0.000 0.000 1.000
vn 0.000 0.000 1.000
vn 0.000 0.000 1.000
vn 0.000 0.000 1.000
vn 0.000 0.000 1.000
vn 0.000 0.000 1.000
vn 0.000 0.000 1.000
vn 0.000 0.000 1.000
vn 0.000 0.000 1.000
vn 0.000 0.000 1.000
vn 0.000 0.000 1.000
vn 0.000 0.000 1.000
vn 0.000 0.000 1.000
vn 0.000 0.000 1.000
vn 0.000 0.000 1.000
vn 0.000 0.000 1.000
vn 0.000 0.000 1.000
vn 0.000 0.000 1.000
vn 0.000 0.000 1.000
vn 0.000 0.000 1.000
vn 0.000 0.000 1.000
vn 0.000 0.000 1.000
vn 0.000 0.000 1.000
vn 0.000 0.000 1.000
vn 0.000 0.000 1.000
vn 0.000 0.000 1.000
vn 0.000 0.000 1.000
vn 0.000 0.000 1.000
vn 0.000 0.000 1.000
vn 0.000 0.000 1.000
vn 0.000 0.000 1.000
vn 0.000 0.000 1.000
vn 0.000 0.000 1.000
vn 0.000 0.000 1.000
vn 0.000 0.000 1.000
vn 0.000 0.000 1.000
vn 0.000 0.000 1.000
vn 0.000 0.000 1.000
vn 0.000 0.000 1.000
vn 0.000 0.000 1.000
vn 0.000 0.000 1.000
vn 0.000 0.000 1.000
vn 0.000 0.000 1.000
vn 0.000 0.000 1.000
vn 0.000 0.000 1.000
vn 0.000 0.000 1.000
vn 0.000 0.000 1.000
vn 0.000 0.000 1.000
vn 0.000 0.000 1.000
vn 0.000 0.000 1.000
vn 0.000 0.000 1.000
vn 0.000 0.000 1.000
vn 0.000 0.000 1.000
vn 0.000 0.000 1.000
vn 0.000 0.000 1.000
vn 0.000 0.000 1.000
vn 0.000 0.000 1.000
vn 0.000 0.000 1.000
vn 0.000 0.000 1.000
vn 0.000 0.000 1.000
vn 0.000 0.000 1.000
vn 0.000 0.000 1.000
vn 0.000 0.000 1.000
vn 0.000 0.000 1.000
vn 0.000 0.000 1.000
vn 0.000 0.000 1.000
vn 0.000 0.000 1.000
vn 0.000 0.000 1.000
vn 0.000 0.000 1.000
vn 0.000 0.000 1.000
vn 0.000 0.000 1.000
vn 0.000 0.000 1.000
vn 0.000 0.000 1.000
vn 0.000 0.000 1.000
vn 0.000 0.000 1.000
vn 0.000 0.000 1.000
vn 0.000 0.000 1.000
vn 0.000 0.000 1.000
vn 0.000 0.000 1.000
vn 0.000 0.000 1.000
vn 0.000 0.000 1.000
vn 0.000 0.000 1.000
vn 0.000 0.000 1.000
vn 0.000 0.000 1.000
vn 0.000 0.000 1.000
vn 0.000 0.000 1.000
vn 0.000 0.000 1.000
vn 0.000 0.000 1.000
vn 0.000 0.000 1.000
vn 0.000 0.000 1.000
vn 0.000 0.000 1.000
vn 0.000 0.000 1.000
vn 0.000 0.000 1.000
vn 0.000 0.000 1.000
vn 0.000 0.000 1.000
vn 0.000 0.000 1.000
vn 0.000 0.000 1.000
vn 0.000 0.000 1.000
vn 0.000 0.000 1.000
vn 0.000 0.000 1.000
vn 0.246 -0.081 0.966
vn 0.147 0.111 0.983
vn 0.237 0.066 0.969
vn 0.241 -0.016 0.970
vn 0.270 0.178 0.946
vn 0.296 0.037 0.954
vn 0.347 -0.232 0.909
vn 0.304 -0.151 0.941
vn 0.462 -0.358 0.812
vn 0.270 -0.066 0.961
vn 0.247 -0.033 0.969
vn 0.312 -0.084 0.946
vn 0.329 -0.078 0.941
vn -0.041 0.061 0.997
vn 0.329 -0.078 0.941
vn 0.374 -0.095 0.923
vn 0.395 -0.105 0.913
vn 0.368 -0.094 0.925
vn 0.368 -0.094 0.925
vn 0.830 -0.455 0.321
vn 0.407 -0.110 0.907
vn 0.441 -0.114 0.890
vn 0.041 -0.061 -0.997
vn 0.349 -0.049 0.936
vn 0.540 -0.084 0.837
vn 0.701 -0.189 0.688
vn 0.580 0.195 0.791
vn 0.621 0.075 0.780
vn 0.466 0.202 0.861
vn 0.480 0.317 0.818
vn 0.456 0.026 0.890
vn 0.446 0.179 0.877
vn 0.257 -0.152 0.954
vn 0.323 -0.220 0.920
vn 0.135 0.151 0.979
vn 0.343 -0.256 0.904
vn 0.354 -0.234 0.905
vn 0.314 -0.182 0.932
vn 0.387 -0.155 0.909
vn 0.216 -0.022 0.976
vn 0.411 -0.144 0.900
vn 0.549 -0.259 0.795
vn 0.419 0.014 0.908
vn 0.464 -0.043 0.885
vn 0.352 0.099 0.931
vn 0.352 0.100 0.931
vn 0.244 0.003 0.970
vn 0.254 0.021 0.967
vn 0.246 0.002 0.969
vn 0.243 0.000 0.970
vn 0.211 0.009 0.977
vn 0.198 0.011 0.980
vn 0.222 0.006 0.975
vn 0.076 0.076 0.994
vn 0.191 0.013 0.981
vn 0.190 0.013 0.982
vn 0.319 -0.126 0.939
vn 0.326 -0.133 0.936
vn 0.320 -0.126 0.939
vn 0.242 -0.047 0.969
vn 0.242 -0.027 0.970
vn 0.445 -0.254 0.859
vn 0.492 -0.307 0.814
vn 0.492 -0.307 0.814
vn 0.304 -0.104 0.947
vn 0.303 -0.097 0.948
vn 0.307 -0.129 0.943
vn 0.293 -0.110 0.950
vn 0.263 -0.090 0.961
vn 0.329 -0.136 0.934
vn 0.340 -0.144 0.929
vn 0.268 -0.090 0.959
vn 0.281 -0.090 0.955
vn 0.297 -0.077 0.952
vn 0.243 0.000 0.970
vn 0.243 0.000 0.970
vn 0.243 0.000 0.970
vn -0.271 0.596 0.756
vn 0.164 0.071 0.984
vn 0.164 0.071 0.984
vn 0.632 -0.425 0.648
vn 0.280 0.101 0.955
vn 0.648 -0.452 0.612
vn 0.016 0.382 0.924
usemtl tex_None_env
f 1/1/1 2/1/2 3/1/3
f 1/1/1 3/1/3 4/1/4
f 5/1/5 4/1/4 3/1/3
f 5/1/5 6/1/6 4/1/4
f 5/1/5 7/1/7 6/1/6
f 5/1/5 8/1/8 7/1/7
f 8/1/8 9/1/9 10/1/10
f 8/1/8 10/1/10 7/1/7
f 8/1/8 11/1/11 9/1/9
f 11/1/11 12/1/12 9/1/9
f 11/1/11 13/1/13 12/1/12
f 11/1/11 14/1/14 13/1/13
f 14/1/14 15/1/15 13/1/13
f 15/1/15 16/1/16 13/1/13
f 17/1/17 18/1/18 19/1/19
f 17/1/17 20/1/20 18/1/18
f 20/1/20 21/1/21 18/1/18
f 21/1/21 22/1/22 23/1/23
f 21/1/21 23/1/23 18/1/18
f 21/1/21 24/1/24 25/1/25
f 21/1/21 25/1/25 22/1/22
f 25/1/25 26/1/26 22/1/22
f 25/1/25 27/1/27 26/1/26
f 27/1/27 28/1/28 26/1/26
f 29/1/29 26/1/26 28/1/28
f 29/1/29 30/1/30 26/1/26
f 29/1/29 31/1/31 30/1/30
f 32/1/32 33/1/33 34/1/34
f 34/1/34 35/1/35 32/1/32
f 34/1/34 36/1/36 35/1/35
f 34/1/34 37/1/37 36/1/36
f 34/1/34 38/1/38 37/1/37
f 34/1/34 39/1/39 38/1/38
f 34/1/34 40/1/40 39/1/39
f 41/1/41 42/1/42 43/1/43
f 42/1/42 44/1/44 43/1/43
f 41/1/41 45/1/45 42/1/42
f 46/1/46 45/1/45 41/1/41
f 45/1/45 46/1/46 47/1/47
f 48/1/48 49/1/49 50/1/50
f 48/1/48 51/1/51 49/1/49
f 51/1/51 52/1/52 49/1/49
f 49/1/49 53/1/53 54/1/54
f 53/1/53 55/1/55 54/1/54
f 53/1/53 56/1/56 55/1/55
f 56/1/56 57/1/57 55/1/55
f 49/1/49 52/1/52 53/1/53
f 57/1/57 58/1/58 55/1/55
f 57/1/57 59/1/59 58/1/58
f 59/1/59 60/1/60 58/1/58
f 59/1/59 61/1/61 60/1/60
f 59/1/59 62/1/62 61/1/61
f 62/1/62 63/1/63 61/1/61
f 64/1/64 65/1/65 66/1/66
f 64/1/64 66/1/66 67/1/67
f 66/1/66 68/1/68 67/1/67
f 68/1/68 69/1/69 67/1/67
f 69/1/69 68/1/68 70/1/70
f 69/1/69 70/1/70 71/1/71
f 69/1/69 71/1/71 72/1/72
f 71/1/71 73/1/73 72/1/72
f 71/1/71 74/1/74 73/1/73
f 73/1/73 74/1/74 75/1/75
f 75/1/75 76/1/76 73/1/73
f 75/1/75 77/1/77 76/1/76
f 77/1/77 78/1/78 76/1/76
f 79/1/79 80/1/80 81/1/81
f 79/1/79 82/1/82 80/1/80
f 82/1/82 83/1/83 80/1/80
f 83/1/83 84/1/84 80/1/80
f 84/1/84 85/1/85 80/1/80
f 86/1/86 85/1/85 84/1/84
f 87/1/87 86/1/86 84/1/84
f 88/1/88 87/1/87 84/1/84
f 89/1/89 88/1/88 84/1/84
f 90/1/90 88/1/88 89/1/89
f 89/1/89 91/1/91 90/1/90
f 92/1/92 91/1/91 89/1/89
f 92/1/92 93/1/93 91/1/91
f 92/1/92 94/1/94 93/1/93
f 95/1/95 96/1/96 97/1/97
f 97/1/97 98/1/98 95/1/95
f 98/1/98 97/1/97 99/1/99
f 99/1/99 100/1/100 98/1/98
f 99/1/99 101/1/101 102/1/102
f 99/1/99 102/1/102 100/1/100
f 103/1/103 104/1/104 105/1/105
f 103/1/103 105/1/105 106/1/106
f 105/1/105 107/1/107 108/1/108
f 105/1/105 108/1/108 106/1/106
f 107/1/107 109/1/109 110/1/110
f 107/1/107 110/1/110 108/1/108
f 111/1/111 112/1/112 113/1/113
f 111/1/111 113/1/113 114/1/114
f 113/1/113 115/1/115 116/1/116
f 113/1/113 116/1/116 114/1/114
f 116/1/116 115/1/115 117/1/117
f 116/1/116 117/1/117 118/1/118
f 118/1/118 119/1/119 116/1/116
f 118/1/118 120/1/120 119/1/119
f 121/1/121 122/1/122 123/1/123
f 122/1/122 121/1/121 124/1/124
f 124/1/124 121/1/121 125/1/125
f 124/1/124 125/1/125 126/1/126
f 127/1/127 128/1/128 129/1/129
f 128/1/128 130/1/130 129/1/129
f 130/1/130 131/1/131 129/1/129
f 130/1/130 132/1/132 131/1/131
f 127/1/127 133/1/133 128/1/128
f 134/1/134 135/1/135 136/1/136
f 134/1/134 136/1/136 137/1/137
f 134/1/134 137/1/137 138/1/138
f 134/1/134 138/1/138 139/1/139
f 139/1/139 138/1/138 140/1/140
f 138/1/138 141/1/141 140/1/140
f 140/1/140 141/1/141 142/1/142
f 143/1/143 144/1/144 145/1/145
f 145/1/145 144/1/144 146/1/146
f 146/1/146 147/1/147 145/1/145
f 148/1/148 149/1/149 145/1/145
f 148/1/148 145/1/145 147/1/147
f 150/1/150 151/1/151 152/1/152
f 153/1/153 151/1/151 150/1/150
f 153/1/153 154/1/154 151/1/151
f 155/1/155 156/1/156 154/1/154
f 155/1/155 154/1/154 153/1/153
f 150/1/150 152/1/152 157/1/157
f 150/1/150 157/1/157 158/1/158
f 159/1/159 160/1/160 161/1/161
f 159/1/159 161/1/161 162/1/162
f 163/1/163 159/1/159 162/1/162
f 163/1/163 162/1/162 164/1/164
f 165/1/165 163/1/163 164/1/164
f 165/1/165 164/1/164 166/1/166
f 163/1/163 165/1/165 167/1/167
f 163/1/163 167/1/167 168/1/168
f 167/1/167 169/1/169 168/1/168
f 169/1/169 170/1/170 168/1/168
f 170/1/170 171/1/171 168/1/168
f 172/1/172 168/1/168 171/1/171
f 171/1/171 173/1/173 172/1/172
f 174/1/174 172/1/172 173/1/173
f 175/1/175 176/1/176 177/1/177
f 178/1/178 175/1/175 177/1/177
f 177/1/177 179/1/179 178/1/178
f 180/1/180 181/1/181 182/1/182
f 180/1/180 182/1/182 183/1/183
f 181/1/181 184/1/184 185/1/185
f 181/1/181 185/1/185 182/1/182
f 185/1/185 184/1/184 186/1/186
f 185/1/185 186/1/186 187/1/187
f 186/1/186 188/1/188 189/1/189
f 186/1/186 189/1/189 187/1/187
f 190/1/190 191/1/191 192/1/192
f 190/1/190 193/1/193 194/1/194
f 190/1/190 194/1/194 191/1/191
f 193/1/193 195/1/195 194/1/194
f 196/1/196 195/1/195 193/1/193
f 196/1/196 197/1/197 195/1/195
f 198/1/198 199/1/199 193/1/193
f 198/1/198 193/1/193 190/1/190
f 198/1/198 200/1/200 201/1/201
f 198/1/198 201/1/201 199/1/199
f 199/1/199 201/1/201 202/1/202
f 199/1/199 202/1/202 203/1/203
f 202/1/202 204/1/204 205/1/205
f 202/1/202 205/1/205 203/1/203
f 206/1/206 207/1/207 208/1/208
f 206/1/206 208/1/208 209/1/209
f 207/1/207 210/1/210 211/1/211
f 207/1/207 211/1/211 208/1/208
f 210/1/210 212/1/212 213/1/213
f 210/1/210 213/1/213 211/1/211
f 214/1/214 215/1/215 216/1/216
f 217/1/217 218/1/218 219/1/219
f 218/1/218 220/1/220 219/1/219
f 220/1/220 221/1/221 219/1/219
f 222/1/222 223/1/223 224/1/224
f 225/1/225 224/1/224 223/1/223
f 223/1/223 226/1/226 225/1/225
f 227/1/227 225/1/225 226/1/226
f 226/1/226 228/1/228 227/1/227
f 228/1/228 226/1/226 229/1/229
f 226/1/226 230/1/230 231/1/231
f 226/1/226 231/1/231 229/1/229
f 231/1/231 230/1/230 232/1/232
f 231/1/231 232/1/232 233/1/233
f 230/1/230 234/1/234 235/1/235
f 230/1/230 235/1/235 232/1/232
f 234/1/234 236/1/236 237/1/237
f 234/1/234 237/1/237 235/1/235
f 238/1/238 239/1/239 240/1/240
f 238/1/238 240/1/240 241/1/241
f 242/1/242 243/1/243 244/1/244
f 242/1/242 244/1/244 240/1/240
f 245/1/245 246/1/246 247/1/247
f 245/1/245 247/1/247 239/1/239
f 239/1/239 247/1/247 242/1/242
f 239/1/239 242/1/242 240/1/240
f 248/1/248 249/1/249 250/1/250
f 248/1/248 250/1/250 251/1/251
f 252/1/252 249/1/249 248/1/248
f 248/1/248 253/1/253 252/1/252
f 254/1/254 255/1/255 256/1/256
f 257/1/257 255/1/255 254/1/254
f 258/1/258 257/1/257 254/1/254
f 258/1/258 254/1/254 259/1/259
f 259/1/259 260/1/260 258/1/258
f 260/1/260 261/1/261 258/1/258
f 261/1/261 262/1/262 258/1/258
f 262/1/262 263/1/263 258/1/258
f 264/1/264 265/1/265 266/1/266
f 264/1/264 266/1/266 267/1/267
f 264/1/264 267/1/267 268/1/268
f 264/1/264 268/1/268 269/1/269
f 270/1/270 271/1/271 272/1/272
f 270/1/270 272/1/272 273/1/273
f 273/1/273 272/1/272 274/1/274
f 273/1/273 274/1/274 275/1/275
f 274/1/274 276/1/276 275/1/275
f 274/1/274 277/1/277 278/1/278
f 274/1/274 278/1/278 276/1/276
f 279/1/279 280/1/280 278/1/278
f 279/1/279 278/1/278 277/1/277
f 279/1/279 277/1/277 281/1/281
f 280/1/280 279/1/279 282/1/282
f 280/1/280 282/1/282 283/1/283
f 282/1/282 284/1/284 285/1/285
f 282/1/282 285/1/285 283/1/283
f 286/1/286 287/1/287 288/1/288
f 286/1/286 288/1/288 289/1/289
f 287/1/287 290/1/290 291/1/291
f 287/1/287 291/1/291 288/1/288
f 290/1/290 292/1/292 293/1/293
f 290/1/290 293/1/293 291/1/291
f 294/1/294 295/1/295 296/1/296
f 294/1/294 296/1/296 297/1/297
f 297/1/297 296/1/296 298/1/298
f 297/1/297 298/1/298 299/1/299
f 298/1/298 300/1/300 301/1/301
f 298/1/298 301/1/301 299/1/299
f 302/1/302 303/1/303 304/1/304
f 302/1/302 304/1/304 305/1/305
f 306/1/306 307/1/307 304/1/304
f 303/1/303 306/1/306 304/1/304
f 306/1/306 303/1/303 308/1/308
f 309/1/309 310/1/310 311/1/311
f 309/1/309 311/1/311 312/1/312
f 309/1/309 312/1/312 313/1/313
f 309/1/309 313/1/313 314/1/314
f 314/1/314 313/1/313 315/1/315
f 313/1/313 316/1/316 315/1/315
f 315/1/315 316/1/316 317/1/317
f 318/1/318 319/1/319 320/1/320
f 320/1/320 319/1/319 321/1/321
f 321/1/321 322/1/322 320/1/320
f 323/1/323 324/1/324 320/1/320
f 323/1/323 320/1/320 322/1/322
f 325/1/325 326/1/326 327/1/327
f 328/1/328 326/1/326 325/1/325
f 328/1/328 329/1/329 326/1/326
f 330/1/330 331/1/331 329/1/329
f 330/1/330 329/1/329 328/1/328
f 325/1/325 327/1/327 332/1/332
f 325/1/325 332/1/332 333/1/333
f 334/1/334 335/1/335 336/1/336
f 334/1/334 336/1/336 337/1/337
f 338/1/338 334/1/334 337/1/337
f 338/1/338 337/1/337 339/1/339
f 340/1/340 338/1/338 339/1/339
f 340/1/340 339/1/339 341/1/341
f 338/1/338 340/1/340 342/1/342
f 338/1/338 342/1/342 343/1/343
f 342/1/342 344/1/344 343/1/343
f 344/1/344 345/1/345 343/1/343
f 345/1/345 346/1/346 343/1/343
f 347/1/347 343/1/343 346/1/346
f 346/1/346 348/1/348 347/1/347
f 349/1/349 347/1/347 348/1/348
f 350/1/350 351/1/351 352/1/352
f 353/1/353 350/1/350 352/1/352
f 352/1/352 354/1/354 353/1/353
usemtl tex_None
f 355/1/355 356/1/356 357/1/357
f 355/1/355 357/1/357 358/1/358
f 357/1/357 359/1/359 360/1/360
f 357/1/357 360/1/360 358/1/358
f 355/1/355 361/1/361 356/1/356
f 362/1/362 361/1/361 355/1/355
f 361/1/361 362/1/362 363/1/363
f 362/1/362 364/1/364 363/1/363
f 362/1/362 365/1/365 364/1/364
f 365/1/365 366/1/366 364/1/364
f 367/1/367 368/1/368 369/1/369
f 367/1/367 369/1/369 370/1/370
f 371/1/371 372/1/372 373/1/373
f 371/1/371 374/1/374 375/1/375
f 371/1/371 375/1/375 376/1/376
f 371/1/371 376/1/376 377/1/377
f 375/1/375 378/1/378 376/1/376
f 378/1/378 379/1/379 376/1/376
f 379/1/379 380/1/380 376/1/376
f 379/1/379 381/1/381 382/1/382
f 379/1/379 382/1/382 380/1/380
f 381/1/381 383/1/383 384/1/384
f 381/1/381 384/1/384 382/1/382
f 383/1/383 385/1/385 386/1/386
f 383/1/383 386/1/386 384/1/384
f 387/1/387 388/1/388 389/1/389
f 388/1/388 387/1/387 390/1/390
f 388/1/388 390/1/390 391/1/391
f 390/1/390 392/1/392 391/1/391
f 393/1/393 394/1/394 395/1/395
f 395/1/395 396/1/396 393/1/393
f 395/1/395 397/1/397 398/1/398
f 395/1/395 398/1/398 396/1/396
f 397/1/397 399/1/399 400/1/400
f 397/1/397 400/1/400 398/1/398
f 401/1/401 402/1/402 403/1/403
f 401/1/401 403/1/403 404/1/404
f 405/1/405 406/1/406 407/1/407
f 401/1/401 408/1/408 402/1/402
f 409/1/409 410/1/410 406/1/406
f 409/1/409 406/1/406 405/1/405
f 411/1/411 412/1/412 413/1/413
f 411/1/411 413/1/413 414/1/414
f 415/1/415 411/1/411 414/1/414
f 416/1/416 417/1/417 418/1/418
f 419/1/419 420/1/420 416/1/416
f 419/1/419 416/1/416 421/1/421
f 422/1/422 423/1/423 424/1/424
f 422/1/422 424/1/424 425/1/425
f 423/1/423 422/1/422 426/1/426
f 423/1/423 426/1/426 427/1/427
f 427/1/427 426/1/426 428/1/428
f 429/1/429 430/1/430 431/1/431
f 432/1/432 433/1/433 434/1/434
f 435/1/435 436/1/436 437/1/437
f 436/1/436 438/1/438 437/1/437
f 436/1/436 432/1/432 438/1/438
