mtllib PhindZ.mtl
v 579.6602020263672 836.2447509765625 -5059.03759765625 1.000 1.000 1.000
v 1807.6602020263672 676.2447509765625 -4899.03759765625 1.000 1.000 1.000
v 579.6602020263672 836.2447509765625 -4472.03759765625 1.000 1.000 1.000
v 1807.6602020263672 676.2447509765625 -4578.03759765625 1.000 1.000 1.000
v -274.3397979736328 836.2447509765625 -4472.03759765625 1.000 1.000 1.000
v -1502.3397979736328 676.2447509765625 -4899.03759765625 1.000 1.000 1.000
v -274.3397979736328 836.2447509765625 -5059.03759765625 1.000 1.000 1.000
v -1502.3397979736328 676.2447509765625 -4578.03759765625 1.000 1.000 1.000
v 365.6602020263672 -17.7552490234375 -1856.03759765625 1.000 1.000 1.000
v 419.6602020263672 89.2447509765625 -1856.03759765625 1.000 1.000 1.000
v 152.6602020263672 89.2447509765625 -1589.03759765625 1.000 1.000 1.000
v 472.6602020263672 89.2447509765625 -2337.03759765625 1.000 1.000 1.000
v 419.6602020263672 -17.7552490234375 -2337.03759765625 1.000 1.000 1.000
v 526.6602020263672 89.2447509765625 -3084.03759765625 1.000 1.000 1.000
v 472.6602020263672 -17.7552490234375 -3084.03759765625 1.000 1.000 1.000
v 579.6602020263672 89.2447509765625 -3457.03759765625 1.000 1.000 1.000
v 472.6602020263672 -17.7552490234375 -3457.03759765625 1.000 1.000 1.000
v 579.6602020263672 89.2447509765625 -3457.03759765625 1.000 1.000 1.000
v 472.6602020263672 -17.7552490234375 -3084.03759765625 1.000 1.000 1.000
v 579.6602020263672 89.2447509765625 -4045.03759765625 1.000 1.000 1.000
v 472.6602020263672 -17.7552490234375 -4045.03759765625 1.000 1.000 1.000
v 579.6602020263672 89.2447509765625 -4472.03759765625 1.000 1.000 1.000
v 472.6602020263672 -17.7552490234375 -4472.03759765625 1.000 1.000 1.000
v 579.6602020263672 89.2447509765625 -5005.03759765625 1.000 1.000 1.000
v 419.6602020263672 -17.7552490234375 -5005.03759765625 1.000 1.000 1.000
v 152.6602020263672 409.2447509765625 -5966.03759765625 1.000 1.000 1.000
v 472.6602020263672 516.2447509765625 -5966.03759765625 1.000 1.000 1.000
v 152.6602020263672 783.2447509765625 -8315.03759765625 1.000 1.000 1.000
v 365.6602020263672 730.2447509765625 -7407.03759765625 1.000 1.000 1.000
v 152.6602020263672 623.2447509765625 -7300.03759765625 1.000 1.000 1.000
v 152.6602020263672 89.2447509765625 -1589.03759765625 1.000 1.000 1.000
v -114.33979797363281 89.2447509765625 -1856.03759765625 1.000 1.000 1.000
v -60.33979797363281 -17.7552490234375 -1856.03759765625 1.000 1.000 1.000
v -167.3397979736328 89.2447509765625 -2337.03759765625 1.000 1.000 1.000
v -114.33979797363281 -17.7552490234375 -2337.03759765625 1.000 1.000 1.000
v -221.3397979736328 89.2447509765625 -3084.03759765625 1.000 1.000 1.000
v -167.3397979736328 -17.7552490234375 -3084.03759765625 1.000 1.000 1.000
v -274.3397979736328 89.2447509765625 -3457.03759765625 1.000 1.000 1.000
v -167.3397979736328 -17.7552490234375 -3457.03759765625 1.000 1.000 1.000
v -274.3397979736328 89.2447509765625 -4045.03759765625 1.000 1.000 1.000
v -167.3397979736328 -17.7552490234375 -4045.03759765625 1.000 1.000 1.000
v -274.3397979736328 89.2447509765625 -4472.03759765625 1.000 1.000 1.000
v -167.3397979736328 -17.7552490234375 -4472.03759765625 1.000 1.000 1.000
v -274.3397979736328 89.2447509765625 -5005.03759765625 1.000 1.000 1.000
v -114.33979797363281 -17.7552490234375 -5005.03759765625 1.000 1.000 1.000
v 152.6602020263672 409.2447509765625 -5966.03759765625 1.000 1.000 1.000
v 152.6602020263672 409.2447509765625 -5966.03759765625 1.000 1.000 1.000
v -274.3397979736328 89.2447509765625 -5005.03759765625 1.000 1.000 1.000
v -167.3397979736328 516.2447509765625 -5966.03759765625 1.000 1.000 1.000
v 152.6602020263672 623.2447509765625 -7300.03759765625 1.000 1.000 1.000
v -60.33979797363281 730.2447509765625 -7407.03759765625 1.000 1.000 1.000
v 152.6602020263672 783.2447509765625 -8315.03759765625 1.000 1.000 1.000
v 419.6602020263672 -17.7552490234375 -5005.03759765625 1.000 1.000 1.000
v -114.33979797363281 -17.7552490234375 -5005.03759765625 1.000 1.000 1.000
v 472.6602020263672 -17.7552490234375 -4472.03759765625 1.000 1.000 1.000
v -167.3397979736328 -17.7552490234375 -4472.03759765625 1.000 1.000 1.000
v 472.6602020263672 -17.7552490234375 -4045.03759765625 1.000 1.000 1.000
v -167.3397979736328 -17.7552490234375 -4045.03759765625 1.000 1.000 1.000
v 472.6602020263672 -17.7552490234375 -3457.03759765625 1.000 1.000 1.000
v -167.3397979736328 -17.7552490234375 -3457.03759765625 1.000 1.000 1.000
v 472.6602020263672 -17.7552490234375 -3084.03759765625 1.000 1.000 1.000
v -167.3397979736328 -17.7552490234375 -3084.03759765625 1.000 1.000 1.000
v -167.3397979736328 -17.7552490234375 -3084.03759765625 1.000 1.000 1.000
v 472.6602020263672 -17.7552490234375 -3084.03759765625 1.000 1.000 1.000
v 419.6602020263672 -17.7552490234375 -2337.03759765625 1.000 1.000 1.000
v -114.33979797363281 -17.7552490234375 -2337.03759765625 1.000 1.000 1.000
v 365.6602020263672 -17.7552490234375 -1856.03759765625 1.000 1.000 1.000
v -60.33979797363281 -17.7552490234375 -1856.03759765625 1.000 1.000 1.000
v 152.6602020263672 89.2447509765625 -1589.03759765625 1.000 1.000 1.000
v 365.6602020263672 623.2447509765625 -2550.03759765625 1.000 1.000 1.000
v 152.6602020263672 676.2447509765625 -2337.03759765625 1.000 1.000 1.000
v 419.6602020263672 516.2447509765625 -2337.03759765625 1.000 1.000 1.000
v 365.6602020263672 356.2447509765625 -1963.03759765625 1.000 1.000 1.000
v 472.6602020263672 89.2447509765625 -2337.03759765625 1.000 1.000 1.000
v 526.6602020263672 89.2447509765625 -3084.03759765625 1.000 1.000 1.000
v 419.6602020263672 89.2447509765625 -1856.03759765625 1.000 1.000 1.000
v 152.6602020263672 303.2447509765625 -1643.03759765625 1.000 1.000 1.000
v 152.6602020263672 89.2447509765625 -1589.03759765625 1.000 1.000 1.000
v 365.6602020263672 996.2447509765625 -2977.03759765625 1.000 1.000 1.000
v 312.6602020263672 943.2447509765625 -3030.03759765625 1.000 1.000 1.000
v 472.6602020263672 890.2447509765625 -3457.03759765625 1.000 1.000 1.000
v 579.6602020263672 89.2447509765625 -4472.03759765625 1.000 1.000 1.000
v 579.6602020263672 836.2447509765625 -5059.03759765625 1.000 1.000 1.000
v 579.6602020263672 836.2447509765625 -4472.03759765625 1.000 1.000 1.000
v 579.6602020263672 89.2447509765625 -5005.03759765625 1.000 1.000 1.000
v 419.6602020263672 836.2447509765625 -6927.03759765625 1.000 1.000 1.000
v 152.6602020263672 1050.2447509765625 -5966.03759765625 1.000 1.000 1.000
v 419.6602020263672 836.2447509765625 -5966.03759765625 1.000 1.000 1.000
v 152.6602020263672 996.2447509765625 -6927.03759765625 1.000 1.000 1.000
v 472.6602020263672 516.2447509765625 -5966.03759765625 1.000 1.000 1.000
v 365.6602020263672 730.2447509765625 -7407.03759765625 1.000 1.000 1.000
v -60.33979797363281 623.2447509765625 -2550.03759765625 1.000 1.000 1.000
v -114.33979797363281 836.2447509765625 -3084.03759765625 1.000 1.000 1.000
v -221.3397979736328 89.2447509765625 -3084.03759765625 1.000 1.000 1.000
v -114.33979797363281 836.2447509765625 -3084.03759765625 1.000 1.000 1.000
v -7.3397979736328125 943.2447509765625 -3030.03759765625 1.000 1.000 1.000
v -167.3397979736328 890.2447509765625 -3457.03759765625 1.000 1.000 1.000
v -274.3397979736328 836.2447509765625 -3457.03759765625 1.000 1.000 1.000
v -221.3397979736328 89.2447509765625 -3084.03759765625 1.000 1.000 1.000
v -274.3397979736328 89.2447509765625 -3457.03759765625 1.000 1.000 1.000
v -60.33979797363281 996.2447509765625 -2977.03759765625 1.000 1.000 1.000
v -167.3397979736328 996.2447509765625 -3457.03759765625 1.000 1.000 1.000
v -274.3397979736328 89.2447509765625 -4472.03759765625 1.000 1.000 1.000
v -274.3397979736328 89.2447509765625 -4045.03759765625 1.000 1.000 1.000
v -274.3397979736328 836.2447509765625 -4472.03759765625 1.000 1.000 1.000
v -274.3397979736328 836.2447509765625 -4045.03759765625 1.000 1.000 1.000
v -167.3397979736328 890.2447509765625 -4365.03759765625 1.000 1.000 1.000
v -167.3397979736328 890.2447509765625 -4045.03759765625 1.000 1.000 1.000
v -167.3397979736328 996.2447509765625 -4045.03759765625 1.000 1.000 1.000
v -167.3397979736328 890.2447509765625 -4365.03759765625 1.000 1.000 1.000
v -167.3397979736328 996.2447509765625 -4045.03759765625 1.000 1.000 1.000
v -167.3397979736328 943.2447509765625 -4418.03759765625 1.000 1.000 1.000
v -274.3397979736328 836.2447509765625 -5059.03759765625 1.000 1.000 1.000
v 152.6602020263672 1103.2447509765625 -5486.03759765625 1.000 1.000 1.000
v -114.33979797363281 836.2447509765625 -5966.03759765625 1.000 1.000 1.000
v 152.6602020263672 1050.2447509765625 -5966.03759765625 1.000 1.000 1.000
v -114.33979797363281 836.2447509765625 -6927.03759765625 1.000 1.000 1.000
v 152.6602020263672 996.2447509765625 -6927.03759765625 1.000 1.000 1.000
v 45.66020202636719 836.2447509765625 -7834.03759765625 1.000 1.000 1.000
v 152.6602020263672 996.2447509765625 -7834.03759765625 1.000 1.000 1.000
v -167.3397979736328 516.2447509765625 -5966.03759765625 1.000 1.000 1.000
v -274.3397979736328 89.2447509765625 -5005.03759765625 1.000 1.000 1.000
v -60.33979797363281 730.2447509765625 -7407.03759765625 1.000 1.000 1.000
v 152.6602020263672 783.2447509765625 -8315.03759765625 1.000 1.000 1.000
v 152.6602020263672 1103.2447509765625 -5486.03759765625 1.000 1.000 1.000
v 99.66020202636719 1317.2447509765625 -5005.03759765625 1.000 1.000 1.000
v 205.6602020263672 1317.2447509765625 -5005.03759765625 1.000 1.000 1.000
v 259.6602020263672 1317.2447509765625 -4578.03759765625 1.000 1.000 1.000
v 312.6602020263672 1157.2447509765625 -4578.03759765625 1.000 1.000 1.000
v 152.6602020263672 1103.2447509765625 -5486.03759765625 1.000 1.000 1.000
v 205.6602020263672 1317.2447509765625 -5005.03759765625 1.000 1.000 1.000
v 472.6602020263672 943.2447509765625 -4418.03759765625 1.000 1.000 1.000
v 312.6602020263672 1157.2447509765625 -4578.03759765625 1.000 1.000 1.000
v 259.6602020263672 1317.2447509765625 -4578.03759765625 1.000 1.000 1.000
v 419.6602020263672 1317.2447509765625 -4311.03759765625 1.000 1.000 1.000
v 365.6602020263672 1157.2447509765625 -2977.03759765625 1.000 1.000 1.000
v 365.6602020263672 1210.2447509765625 -3244.03759765625 1.000 1.000 1.000
v 312.6602020263672 1210.2447509765625 -3030.03759765625 1.000 1.000 1.000
v -167.3397979736328 996.2447509765625 -4045.03759765625 1.000 1.000 1.000
v -114.33979797363281 1317.2447509765625 -4311.03759765625 1.000 1.000 1.000
v -167.3397979736328 943.2447509765625 -4418.03759765625 1.000 1.000 1.000
v -114.33979797363281 1317.2447509765625 -3671.03759765625 1.000 1.000 1.000
v -114.33979797363281 1317.2447509765625 -3671.03759765625 1.000 1.000 1.000
v -167.3397979736328 996.2447509765625 -4045.03759765625 1.000 1.000 1.000
v -167.3397979736328 996.2447509765625 -3457.03759765625 1.000 1.000 1.000
v -60.33979797363281 1210.2447509765625 -3244.03759765625 1.000 1.000 1.000
v -60.33979797363281 1210.2447509765625 -3244.03759765625 1.000 1.000 1.000
v -167.3397979736328 996.2447509765625 -3457.03759765625 1.000 1.000 1.000
v -60.33979797363281 996.2447509765625 -2977.03759765625 1.000 1.000 1.000
v -60.33979797363281 1157.2447509765625 -2977.03759765625 1.000 1.000 1.000
v -7.3397979736328125 1210.2447509765625 -3030.03759765625 1.000 1.000 1.000
v -60.33979797363281 1210.2447509765625 -3244.03759765625 1.000 1.000 1.000
v -60.33979797363281 1157.2447509765625 -2977.03759765625 1.000 1.000 1.000
v 205.6602020263672 1317.2447509765625 -5005.03759765625 1.000 1.000 1.000
v 99.66020202636719 1317.2447509765625 -5005.03759765625 1.000 1.000 1.000
v 45.66020202636719 1317.2447509765625 -4578.03759765625 1.000 1.000 1.000
v 259.6602020263672 1317.2447509765625 -4578.03759765625 1.000 1.000 1.000
v 259.6602020263672 1317.2447509765625 -4578.03759765625 1.000 1.000 1.000
v 45.66020202636719 1317.2447509765625 -4578.03759765625 1.000 1.000 1.000
v -114.33979797363281 1317.2447509765625 -4311.03759765625 1.000 1.000 1.000
v 419.6602020263672 1317.2447509765625 -4311.03759765625 1.000 1.000 1.000
v 365.6602020263672 1210.2447509765625 -3244.03759765625 1.000 1.000 1.000
v -60.33979797363281 1210.2447509765625 -3244.03759765625 1.000 1.000 1.000
v -7.3397979736328125 1210.2447509765625 -3030.03759765625 1.000 1.000 1.000
v 312.6602020263672 1210.2447509765625 -3030.03759765625 1.000 1.000 1.000
v 1807.6602020263672 676.2447509765625 -4899.03759765625 1.000 1.000 1.000
v 579.6602020263672 836.2447509765625 -5059.03759765625 1.000 1.000 1.000
v 472.6602020263672 943.2447509765625 -4418.03759765625 1.000 1.000 1.000
v 1860.6602020263672 730.2447509765625 -4525.03759765625 1.000 1.000 1.000
v 1860.6602020263672 730.2447509765625 -4525.03759765625 1.000 1.000 1.000
v 472.6602020263672 943.2447509765625 -4418.03759765625 1.000 1.000 1.000
v 472.6602020263672 890.2447509765625 -4365.03759765625 1.000 1.000 1.000
v 579.6602020263672 836.2447509765625 -4472.03759765625 1.000 1.000 1.000
v 1860.6602020263672 730.2447509765625 -4525.03759765625 1.000 1.000 1.000
v 1807.6602020263672 676.2447509765625 -4578.03759765625 1.000 1.000 1.000
v 1807.6602020263672 516.2447509765625 -4685.03759765625 1.000 1.000 1.000
v 1860.6602020263672 730.2447509765625 -4525.03759765625 1.000 1.000 1.000
v 1807.6602020263672 676.2447509765625 -4578.03759765625 1.000 1.000 1.000
v 1807.6602020263672 676.2447509765625 -4899.03759765625 1.000 1.000 1.000
v 1807.6602020263672 516.2447509765625 -4845.03759765625 1.000 1.000 1.000
v 1860.6602020263672 730.2447509765625 -4525.03759765625 1.000 1.000 1.000
v 1807.6602020263672 516.2447509765625 -4685.03759765625 1.000 1.000 1.000
v 1807.6602020263672 516.2447509765625 -4845.03759765625 1.000 1.000 1.000
v 1860.6602020263672 730.2447509765625 -4525.03759765625 1.000 1.000 1.000
v 1807.6602020263672 676.2447509765625 -4899.03759765625 1.000 1.000 1.000
v 1433.6602020263672 730.2447509765625 -4578.03759765625 1.000 1.000 1.000
v 1380.6602020263672 730.2447509765625 -5165.03759765625 1.000 1.000 1.000
v 1380.6602020263672 569.2447509765625 -5165.03759765625 1.000 1.000 1.000
v 1433.6602020263672 569.2447509765625 -4578.03759765625 1.000 1.000 1.000
v 1433.6602020263672 569.2447509765625 -5165.03759765625 1.000 1.000 1.000
v 1433.6602020263672 730.2447509765625 -5165.03759765625 1.000 1.000 1.000
v 1433.6602020263672 730.2447509765625 -4578.03759765625 1.000 1.000 1.000
v 1433.6602020263672 569.2447509765625 -4578.03759765625 1.000 1.000 1.000
v 1433.6602020263672 730.2447509765625 -4578.03759765625 1.000 1.000 1.000
v 1006.6602020263672 783.2447509765625 -4578.03759765625 1.000 1.000 1.000
v 953.6602020263672 783.2447509765625 -5165.03759765625 1.000 1.000 1.000
v 953.6602020263672 623.2447509765625 -5165.03759765625 1.000 1.000 1.000
v 1006.6602020263672 623.2447509765625 -4578.03759765625 1.000 1.000 1.000
v 1006.6602020263672 623.2447509765625 -5165.03759765625 1.000 1.000 1.000
v 1006.6602020263672 783.2447509765625 -5165.03759765625 1.000 1.000 1.000
v 1006.6602020263672 783.2447509765625 -4578.03759765625 1.000 1.000 1.000
v 1006.6602020263672 623.2447509765625 -5165.03759765625 1.000 1.000 1.000
v 1006.6602020263672 783.2447509765625 -4578.03759765625 1.000 1.000 1.000
v 1006.6602020263672 623.2447509765625 -4578.03759765625 1.000 1.000 1.000
v 953.6602020263672 623.2447509765625 -5165.03759765625 1.000 1.000 1.000
v 953.6602020263672 783.2447509765625 -5165.03759765625 1.000 1.000 1.000
v 1006.6602020263672 783.2447509765625 -4578.03759765625 1.000 1.000 1.000
v 1006.6602020263672 783.2447509765625 -5165.03759765625 1.000 1.000 1.000
v 1006.6602020263672 783.2447509765625 -5165.03759765625 1.000 1.000 1.000
v 953.6602020263672 783.2447509765625 -5165.03759765625 1.000 1.000 1.000
v -167.3397979736328 943.2447509765625 -4418.03759765625 1.000 1.000 1.000
v -274.3397979736328 836.2447509765625 -5059.03759765625 1.000 1.000 1.000
v -1502.3397979736328 676.2447509765625 -4899.03759765625 1.000 1.000 1.000
v -1555.3397979736328 730.2447509765625 -4525.03759765625 1.000 1.000 1.000
v -167.3397979736328 890.2447509765625 -4365.03759765625 1.000 1.000 1.000
v -274.3397979736328 836.2447509765625 -4472.03759765625 1.000 1.000 1.000
v -1502.3397979736328 676.2447509765625 -4578.03759765625 1.000 1.000 1.000
v -1502.3397979736328 676.2447509765625 -4578.03759765625 1.000 1.000 1.000
v -1555.3397979736328 730.2447509765625 -4525.03759765625 1.000 1.000 1.000
v -1502.3397979736328 516.2447509765625 -4685.03759765625 1.000 1.000 1.000
v -1502.3397979736328 676.2447509765625 -4899.03759765625 1.000 1.000 1.000
v -1502.3397979736328 516.2447509765625 -4845.03759765625 1.000 1.000 1.000
v -1502.3397979736328 516.2447509765625 -4845.03759765625 1.000 1.000 1.000
v -1502.3397979736328 516.2447509765625 -4685.03759765625 1.000 1.000 1.000
v -1555.3397979736328 730.2447509765625 -4525.03759765625 1.000 1.000 1.000
v -1502.3397979736328 676.2447509765625 -4899.03759765625 1.000 1.000 1.000
v -1128.3397979736328 569.2447509765625 -4578.03759765625 1.000 1.000 1.000
v -1075.3397979736328 569.2447509765625 -5165.03759765625 1.000 1.000 1.000
v -1075.3397979736328 730.2447509765625 -5165.03759765625 1.000 1.000 1.000
v -1128.3397979736328 730.2447509765625 -4578.03759765625 1.000 1.000 1.000
v -1128.3397979736328 569.2447509765625 -4578.03759765625 1.000 1.000 1.000
v -1128.3397979736328 730.2447509765625 -4578.03759765625 1.000 1.000 1.000
v -1128.3397979736328 730.2447509765625 -5165.03759765625 1.000 1.000 1.000
v -1128.3397979736328 569.2447509765625 -4578.03759765625 1.000 1.000 1.000
v -1128.3397979736328 730.2447509765625 -5165.03759765625 1.000 1.000 1.000
v -1128.3397979736328 569.2447509765625 -5165.03759765625 1.000 1.000 1.000
v -1075.3397979736328 569.2447509765625 -5165.03759765625 1.000 1.000 1.000
v -1128.3397979736328 569.2447509765625 -4578.03759765625 1.000 1.000 1.000
v -1128.3397979736328 730.2447509765625 -4578.03759765625 1.000 1.000 1.000
v -1075.3397979736328 730.2447509765625 -5165.03759765625 1.000 1.000 1.000
v -701.3397979736328 623.2447509765625 -4578.03759765625 1.000 1.000 1.000
v -648.3397979736328 623.2447509765625 -5165.03759765625 1.000 1.000 1.000
v -648.3397979736328 783.2447509765625 -5165.03759765625 1.000 1.000 1.000
v -701.3397979736328 783.2447509765625 -4578.03759765625 1.000 1.000 1.000
v -701.3397979736328 623.2447509765625 -4578.03759765625 1.000 1.000 1.000
v -701.3397979736328 783.2447509765625 -4578.03759765625 1.000 1.000 1.000
v -701.3397979736328 783.2447509765625 -5165.03759765625 1.000 1.000 1.000
v -701.3397979736328 623.2447509765625 -5165.03759765625 1.000 1.000 1.000
v -701.3397979736328 783.2447509765625 -4578.03759765625 1.000 1.000 1.000
v 526.6602020263672 89.2447509765625 -3084.03759765625 1.000 1.000 1.000
v 419.6602020263672 836.2447509765625 -3084.03759765625 1.000 1.000 1.000
v 365.6602020263672 623.2447509765625 -2550.03759765625 1.000 1.000 1.000
v 472.6602020263672 890.2447509765625 -3457.03759765625 1.000 1.000 1.000
v 312.6602020263672 943.2447509765625 -3030.03759765625 1.000 1.000 1.000
v 579.6602020263672 836.2447509765625 -3457.03759765625 1.000 1.000 1.000
v 579.6602020263672 89.2447509765625 -3457.03759765625 1.000 1.000 1.000
v 472.6602020263672 996.2447509765625 -3457.03759765625 1.000 1.000 1.000
v 365.6602020263672 996.2447509765625 -2977.03759765625 1.000 1.000 1.000
v 472.6602020263672 996.2447509765625 -3457.03759765625 1.000 1.000 1.000
v 472.6602020263672 890.2447509765625 -3457.03759765625 1.000 1.000 1.000
v 472.6602020263672 890.2447509765625 -4045.03759765625 1.000 1.000 1.000
v 472.6602020263672 996.2447509765625 -4045.03759765625 1.000 1.000 1.000
v 579.6602020263672 836.2447509765625 -3457.03759765625 1.000 1.000 1.000
v 579.6602020263672 836.2447509765625 -4045.03759765625 1.000 1.000 1.000
v 579.6602020263672 89.2447509765625 -3457.03759765625 1.000 1.000 1.000
v 579.6602020263672 89.2447509765625 -4045.03759765625 1.000 1.000 1.000
v 579.6602020263672 836.2447509765625 -4045.03759765625 1.000 1.000 1.000
v 579.6602020263672 89.2447509765625 -3457.03759765625 1.000 1.000 1.000
v 579.6602020263672 836.2447509765625 -4472.03759765625 1.000 1.000 1.000
v 579.6602020263672 89.2447509765625 -4045.03759765625 1.000 1.000 1.000
v 579.6602020263672 89.2447509765625 -4472.03759765625 1.000 1.000 1.000
v 579.6602020263672 836.2447509765625 -4045.03759765625 1.000 1.000 1.000
v 472.6602020263672 890.2447509765625 -4365.03759765625 1.000 1.000 1.000
v 472.6602020263672 890.2447509765625 -4045.03759765625 1.000 1.000 1.000
v 472.6602020263672 996.2447509765625 -4045.03759765625 1.000 1.000 1.000
v 472.6602020263672 943.2447509765625 -4418.03759765625 1.000 1.000 1.000
v 472.6602020263672 943.2447509765625 -4418.03759765625 1.000 1.000 1.000
v 579.6602020263672 836.2447509765625 -5059.03759765625 1.000 1.000 1.000
v 312.6602020263672 1157.2447509765625 -4578.03759765625 1.000 1.000 1.000
v 152.6602020263672 1103.2447509765625 -5486.03759765625 1.000 1.000 1.000
v 419.6602020263672 836.2447509765625 -5966.03759765625 1.000 1.000 1.000
v 152.6602020263672 1050.2447509765625 -5966.03759765625 1.000 1.000 1.000
v 152.6602020263672 1103.2447509765625 -5486.03759765625 1.000 1.000 1.000
v 419.6602020263672 836.2447509765625 -5966.03759765625 1.000 1.000 1.000
v 259.6602020263672 836.2447509765625 -7834.03759765625 1.000 1.000 1.000
v 152.6602020263672 996.2447509765625 -6927.03759765625 1.000 1.000 1.000
v 419.6602020263672 836.2447509765625 -6927.03759765625 1.000 1.000 1.000
v 152.6602020263672 996.2447509765625 -7834.03759765625 1.000 1.000 1.000
v 419.6602020263672 836.2447509765625 -5966.03759765625 1.000 1.000 1.000
v 579.6602020263672 89.2447509765625 -5005.03759765625 1.000 1.000 1.000
v 472.6602020263672 516.2447509765625 -5966.03759765625 1.000 1.000 1.000
v 152.6602020263672 783.2447509765625 -8315.03759765625 1.000 1.000 1.000
v 365.6602020263672 730.2447509765625 -7407.03759765625 1.000 1.000 1.000
v 419.6602020263672 836.2447509765625 -5966.03759765625 1.000 1.000 1.000
v 579.6602020263672 836.2447509765625 -5059.03759765625 1.000 1.000 1.000
v 579.6602020263672 89.2447509765625 -5005.03759765625 1.000 1.000 1.000
v 152.6602020263672 1744.2447509765625 -8635.03759765625 1.000 1.000 1.000
v 152.6602020263672 996.2447509765625 -7834.03759765625 1.000 1.000 1.000
v 259.6602020263672 836.2447509765625 -7834.03759765625 1.000 1.000 1.000
v 152.6602020263672 1690.2447509765625 -9062.03759765625 1.000 1.000 1.000
v 152.6602020263672 783.2447509765625 -8315.03759765625 1.000 1.000 1.000
v -114.33979797363281 516.2447509765625 -2337.03759765625 1.000 1.000 1.000
v 152.6602020263672 676.2447509765625 -2337.03759765625 1.000 1.000 1.000
v -60.33979797363281 623.2447509765625 -2550.03759765625 1.000 1.000 1.000
v -167.3397979736328 89.2447509765625 -2337.03759765625 1.000 1.000 1.000
v -60.33979797363281 356.2447509765625 -1963.03759765625 1.000 1.000 1.000
v -221.3397979736328 89.2447509765625 -3084.03759765625 1.000 1.000 1.000
v -114.33979797363281 89.2447509765625 -1856.03759765625 1.000 1.000 1.000
v 152.6602020263672 303.2447509765625 -1643.03759765625 1.000 1.000 1.000
v 152.6602020263672 89.2447509765625 -1589.03759765625 1.000 1.000 1.000
v -167.3397979736328 890.2447509765625 -4045.03759765625 1.000 1.000 1.000
v -167.3397979736328 890.2447509765625 -3457.03759765625 1.000 1.000 1.000
v -167.3397979736328 996.2447509765625 -3457.03759765625 1.000 1.000 1.000
v -167.3397979736328 996.2447509765625 -4045.03759765625 1.000 1.000 1.000
v -274.3397979736328 836.2447509765625 -3457.03759765625 1.000 1.000 1.000
v -274.3397979736328 836.2447509765625 -4045.03759765625 1.000 1.000 1.000
v -274.3397979736328 89.2447509765625 -3457.03759765625 1.000 1.000 1.000
v -274.3397979736328 89.2447509765625 -4045.03759765625 1.000 1.000 1.000
v -7.3397979736328125 1157.2447509765625 -4578.03759765625 1.000 1.000 1.000
v -274.3397979736328 836.2447509765625 -5059.03759765625 1.000 1.000 1.000
v -167.3397979736328 943.2447509765625 -4418.03759765625 1.000 1.000 1.000
v -274.3397979736328 836.2447509765625 -4472.03759765625 1.000 1.000 1.000
v -274.3397979736328 89.2447509765625 -4472.03759765625 1.000 1.000 1.000
v -274.3397979736328 89.2447509765625 -5005.03759765625 1.000 1.000 1.000
v 152.6602020263672 1103.2447509765625 -5486.03759765625 1.000 1.000 1.000
v -114.33979797363281 836.2447509765625 -5966.03759765625 1.000 1.000 1.000
v 152.6602020263672 1050.2447509765625 -5966.03759765625 1.000 1.000 1.000
v -114.33979797363281 836.2447509765625 -6927.03759765625 1.000 1.000 1.000
v 152.6602020263672 996.2447509765625 -6927.03759765625 1.000 1.000 1.000
v -60.33979797363281 730.2447509765625 -7407.03759765625 1.000 1.000 1.000
v -167.3397979736328 516.2447509765625 -5966.03759765625 1.000 1.000 1.000
v 152.6602020263672 783.2447509765625 -8315.03759765625 1.000 1.000 1.000
v 45.66020202636719 836.2447509765625 -7834.03759765625 1.000 1.000 1.000
v 152.6602020263672 1690.2447509765625 -9062.03759765625 1.000 1.000 1.000
v 152.6602020263672 1744.2447509765625 -8635.03759765625 1.000 1.000 1.000
v 152.6602020263672 996.2447509765625 -7834.03759765625 1.000 1.000 1.000
v 312.6602020263672 943.2447509765625 -3030.03759765625 1.000 1.000 1.000
v 152.6602020263672 943.2447509765625 -3030.03759765625 1.000 1.000 1.000
v 419.6602020263672 836.2447509765625 -3084.03759765625 1.000 1.000 1.000
v -7.3397979736328125 943.2447509765625 -3030.03759765625 1.000 1.000 1.000
v -114.33979797363281 836.2447509765625 -3084.03759765625 1.000 1.000 1.000
v 365.6602020263672 996.2447509765625 -2977.03759765625 1.000 1.000 1.000
v 152.6602020263672 943.2447509765625 -3030.03759765625 1.000 1.000 1.000
v 312.6602020263672 943.2447509765625 -3030.03759765625 1.000 1.000 1.000
v -60.33979797363281 996.2447509765625 -2977.03759765625 1.000 1.000 1.000
v -7.3397979736328125 943.2447509765625 -3030.03759765625 1.000 1.000 1.000
v 45.66020202636719 1317.2447509765625 -4578.03759765625 1.000 1.000 1.000
v 152.6602020263672 1103.2447509765625 -5486.03759765625 1.000 1.000 1.000
v -7.3397979736328125 1157.2447509765625 -4578.03759765625 1.000 1.000 1.000
v 99.66020202636719 1317.2447509765625 -5005.03759765625 1.000 1.000 1.000
v 472.6602020263672 996.2447509765625 -4045.03759765625 1.000 1.000 1.000
v 472.6602020263672 943.2447509765625 -4418.03759765625 1.000 1.000 1.000
v 419.6602020263672 1317.2447509765625 -4311.03759765625 1.000 1.000 1.000
v 419.6602020263672 1317.2447509765625 -3671.03759765625 1.000 1.000 1.000
v 472.6602020263672 996.2447509765625 -3457.03759765625 1.000 1.000 1.000
v 472.6602020263672 996.2447509765625 -4045.03759765625 1.000 1.000 1.000
v 419.6602020263672 1317.2447509765625 -3671.03759765625 1.000 1.000 1.000
v 472.6602020263672 996.2447509765625 -3457.03759765625 1.000 1.000 1.000
v 419.6602020263672 1317.2447509765625 -3671.03759765625 1.000 1.000 1.000
v 365.6602020263672 1210.2447509765625 -3244.03759765625 1.000 1.000 1.000
v 365.6602020263672 996.2447509765625 -2977.03759765625 1.000 1.000 1.000
v 365.6602020263672 1157.2447509765625 -2977.03759765625 1.000 1.000 1.000
v -167.3397979736328 943.2447509765625 -4418.03759765625 1.000 1.000 1.000
v 45.66020202636719 1317.2447509765625 -4578.03759765625 1.000 1.000 1.000
v -7.3397979736328125 1157.2447509765625 -4578.03759765625 1.000 1.000 1.000
v -114.33979797363281 1317.2447509765625 -4311.03759765625 1.000 1.000 1.000
v 419.6602020263672 1317.2447509765625 -4311.03759765625 1.000 1.000 1.000
v -114.33979797363281 1317.2447509765625 -4311.03759765625 1.000 1.000 1.000
v -114.33979797363281 1317.2447509765625 -3671.03759765625 1.000 1.000 1.000
v 419.6602020263672 1317.2447509765625 -3671.03759765625 1.000 1.000 1.000
v -60.33979797363281 1210.2447509765625 -3244.03759765625 1.000 1.000 1.000
v 365.6602020263672 1210.2447509765625 -3244.03759765625 1.000 1.000 1.000
v 312.6602020263672 1210.2447509765625 -3030.03759765625 1.000 1.000 1.000
v -7.3397979736328125 1210.2447509765625 -3030.03759765625 1.000 1.000 1.000
v -60.33979797363281 1157.2447509765625 -2977.03759765625 1.000 1.000 1.000
v 365.6602020263672 1157.2447509765625 -2977.03759765625 1.000 1.000 1.000
v 312.6602020263672 783.2447509765625 -2497.03759765625 1.000 1.000 1.000
v 152.6602020263672 676.2447509765625 -2337.03759765625 1.000 1.000 1.000
v 365.6602020263672 623.2447509765625 -2550.03759765625 1.000 1.000 1.000
v 152.6602020263672 943.2447509765625 -2710.03759765625 1.000 1.000 1.000
v 152.6602020263672 890.2447509765625 -2497.03759765625 1.000 1.000 1.000
v 312.6602020263672 890.2447509765625 -2764.03759765625 1.000 1.000 1.000
v 152.6602020263672 943.2447509765625 -3030.03759765625 1.000 1.000 1.000
v 419.6602020263672 836.2447509765625 -3084.03759765625 1.000 1.000 1.000
v 152.6602020263672 676.2447509765625 -2337.03759765625 1.000 1.000 1.000
v -7.3397979736328125 890.2447509765625 -2764.03759765625 1.000 1.000 1.000
v -7.3397979736328125 783.2447509765625 -2497.03759765625 1.000 1.000 1.000
v -114.33979797363281 836.2447509765625 -3084.03759765625 1.000 1.000 1.000
v -60.33979797363281 623.2447509765625 -2550.03759765625 1.000 1.000 1.000
v 312.6602020263672 516.2447509765625 -1856.03759765625 1.000 1.000 1.000
v 152.6602020263672 303.2447509765625 -1643.03759765625 1.000 1.000 1.000
v 365.6602020263672 356.2447509765625 -1963.03759765625 1.000 1.000 1.000
v 152.6602020263672 676.2447509765625 -2016.03759765625 1.000 1.000 1.000
v 152.6602020263672 569.2447509765625 -1803.03759765625 1.000 1.000 1.000
v 312.6602020263672 623.2447509765625 -2123.03759765625 1.000 1.000 1.000
v 152.6602020263672 676.2447509765625 -2337.03759765625 1.000 1.000 1.000
v 419.6602020263672 516.2447509765625 -2337.03759765625 1.000 1.000 1.000
v 152.6602020263672 303.2447509765625 -1643.03759765625 1.000 1.000 1.000
v 312.6602020263672 516.2447509765625 -1856.03759765625 1.000 1.000 1.000
v 365.6602020263672 356.2447509765625 -1963.03759765625 1.000 1.000 1.000
v -7.3397979736328125 623.2447509765625 -2123.03759765625 1.000 1.000 1.000
v 152.6602020263672 676.2447509765625 -2337.03759765625 1.000 1.000 1.000
v -7.3397979736328125 516.2447509765625 -1856.03759765625 1.000 1.000 1.000
v -114.33979797363281 516.2447509765625 -2337.03759765625 1.000 1.000 1.000
v -60.33979797363281 356.2447509765625 -1963.03759765625 1.000 1.000 1.000
v 152.6602020263672 303.2447509765625 -1643.03759765625 1.000 1.000 1.000
v 365.6602020263672 996.2447509765625 -2977.03759765625 1.000 1.000 1.000
v 365.6602020263672 1157.2447509765625 -2977.03759765625 1.000 1.000 1.000
v -60.33979797363281 1157.2447509765625 -2977.03759765625 1.000 1.000 1.000
v -60.33979797363281 996.2447509765625 -2977.03759765625 1.000 1.000 1.000
v 579.6602020263672 737.2447509765625 -3967.03759765625 1.000 1.000 1.000
v 579.6602020263672 737.2447509765625 -3556.03759765625 1.000 1.000 1.000
v 579.6602020263672 214.2447509765625 -3556.03759765625 1.000 1.000 1.000
v 579.6602020263672 214.2447509765625 -3967.03759765625 1.000 1.000 1.000
v -274.3397979736328 196.2447509765625 -3541.03759765625 1.000 1.000 1.000
v -274.3397979736328 719.2447509765625 -3541.03759765625 1.000 1.000 1.000
v -274.3397979736328 719.2447509765625 -3952.03759765625 1.000 1.000 1.000
v -274.3397979736328 196.2447509765625 -3952.03759765625 1.000 1.000 1.000
v -167.3397979736328 -17.7552490234375 -4045.03759765625 1.000 1.000 1.000
v 472.6602020263672 -17.7552490234375 -4045.03759765625 1.000 1.000 1.000
v 472.6602020263672 -17.7552490234375 -3457.03759765625 1.000 1.000 1.000
v -167.3397979736328 -17.7552490234375 -3457.03759765625 1.000 1.000 1.000
v -167.3397979736328 -17.7552490234375 -3084.03759765625 1.000 1.000 1.000
v 472.6602020263672 -17.7552490234375 -3084.03759765625 1.000 1.000 1.000
v 419.6602020263672 -17.7552490234375 -2337.03759765625 1.000 1.000 1.000
v -114.33979797363281 -17.7552490234375 -2337.03759765625 1.000 1.000 1.000
v 213.0 0.0 -214.0 1.000 1.000 1.000
v -214.0 0.0 -214.0 1.000 1.000 1.000
v -214.0 0.0 213.0 1.000 1.000 1.000
v 213.0 0.0 213.0 1.000 1.000 1.000
v -2892.0 0.0 2017.0 1.000 1.000 1.000
v -1280.0 0.0 3245.0 1.000 1.000 1.000
v 0.0 0.0 0.0 1.000 1.000 1.000
v 1025.0 0.0 3373.0 1.000 1.000 1.000
v 2690.0 0.0 2220.0 1.000 1.000 1.000
v 3525.0 0.0 68.0 1.000 1.000 1.000
v 2943.0 0.0 -1872.0 1.000 1.000 1.000
v 1154.0 0.0 -3331.0 1.000 1.000 1.000
v -871.0 0.0 -3378.0 1.000 1.000 1.000
v -2812.0 0.0 -2127.0 1.000 1.000 1.000
v -3481.0 0.0 -215.0 1.000 1.000 1.000
v 213.0 -256.0 0.0 1.000 1.000 1.000
v -214.0 -256.0 0.0 1.000 1.000 1.000
v -214.0 0.0 0.0 1.000 1.000 1.000
v 213.0 0.0 0.0 1.000 1.000 1.000
v 0.0 -256.0 213.0 1.000 1.000 1.000
v 0.0 -256.0 -214.0 1.000 1.000 1.000
v 0.0 0.0 -214.0 1.000 1.000 1.000
v 0.0 0.0 213.0 1.000 1.000 1.000
v 0.0 -854.0 299.0 1.000 1.000 1.000
v 0.0 -256.0 769.0 1.000 1.000 1.000
v 0.0 0.0 0.0 1.000 1.000 1.000
v 0.0 168.0 -889.0 1.000 1.000 1.000
v 0.0 -538.0 -606.0 1.000 1.000 1.000
v 0.0 686.0 590.0 1.000 1.000 1.000
v 0.0 794.0 -162.0 1.000 1.000 1.000
v 53.0 0.0 0.0 1.000 1.000 1.000
v 0.0 53.0 0.0 1.000 1.000 1.000
v 0.0 53.0 587.0 1.000 1.000 1.000
v 53.0 0.0 587.0 1.000 1.000 1.000
v 53.0 0.0 0.0 1.000 1.000 1.000
v 53.0 0.0 587.0 1.000 1.000 1.000
v 0.0 -53.0 587.0 1.000 1.000 1.000
v 0.0 -53.0 0.0 1.000 1.000 1.000
v 0.0 -53.0 0.0 1.000 1.000 1.000
v 0.0 -53.0 587.0 1.000 1.000 1.000
v -53.0 0.0 587.0 1.000 1.000 1.000
v -53.0 0.0 0.0 1.000 1.000 1.000
v -53.0 0.0 0.0 1.000 1.000 1.000
v -53.0 0.0 587.0 1.000 1.000 1.000
v 0.0 53.0 587.0 1.000 1.000 1.000
v 0.0 53.0 0.0 1.000 1.000 1.000
v 53.0 0.0 587.0 1.000 1.000 1.000
v 0.0 53.0 587.0 1.000 1.000 1.000
v -53.0 0.0 587.0 1.000 1.000 1.000
v 0.0 -53.0 587.0 1.000 1.000 1.000
vt 0.4951 0.8672
vt 0.6748 0.5488
vt 0.3560 0.7627
vt 0.5991 0.4912
vt 0.2046 0.9648
vt 0.0879 1.3311
vt 0.3438 1.0693
vt 0.0122 1.2744
vt -0.3003 0.3496
vt -0.2910 0.3369
vt -0.4014 0.3535
vt -0.1675 0.4102
vt -0.1772 0.4229
vt 0.0186 0.5293
vt 0.0088 0.5420
vt 0.1162 0.5830
vt 0.0972 0.6084
vt 0.2554 0.6875
vt 0.2363 0.7129
vt 0.3374 0.7881
vt 0.4824 0.8574
vt 0.4541 0.8955
vt 0.6338 1.1289
vt 0.6909 1.0537
vt 1.1895 1.5459
vt 1.0127 1.3340
vt 0.9497 1.3652
vt -0.3853 0.4639
vt -0.3760 0.4512
vt -0.2812 0.5615
vt -0.2720 0.5488
vt -0.1138 0.7061
vt -0.1045 0.6934
vt -0.0352 0.7852
vt -0.0161 0.7598
vt 0.1040 0.8896
vt 0.1226 0.8643
vt 0.2236 0.9395
vt 0.3311 1.0596
vt 0.3594 1.0215
vt 0.5771 1.2051
vt 0.9370 1.4346
vt -1.0303 0.0898
vt -1.3428 -0.0010
vt -1.4980 0.2715
vt -2.2900 0.5449
vt -1.9111 1.0000
vt -0.6367 1.0000
vt -2.7305 1.0000
vt -2.8877 0.6357
vt -3.1855 1.0000
vt 0.0596 -0.5479
vt 0.0986 -0.4561
vt 0.7754 -0.3652
vt 1.8057 1.0254
vt 3.4229 -0.2852
vt 2.5049 -0.2568
vt 2.6396 1.0000
vt 0.1084 0.4150
vt 1.3086 0.3008
vt 1.0605 0.6904
vt 0.3330 0.0635
vt 0.8848 0.9648
vt -0.3857 0.3057
vt 1.6006 -0.0195
vt 0.7676 0.0264
vt 0.8984 0.9551
vt 0.8457 -0.1445
vt 0.2002 0.1768
vt 0.1895 0.2520
vt 0.3428 1.1719
vt 0.9014 -0.2363
vt 0.1787 0.0459
vt 0.3691 0.4658
vt 0.7715 0.6895
vt 0.6611 -0.5430
vt 1.0635 -0.3193
vt 0.7832 -0.5596
vt 1.0850 -0.3916
vt 1.1260 -0.5361
vt 0.4541 0.9453
vt 0.1533 0.3545
vt 0.6807 1.0049
vt 0.3076 1.7754
vt 0.6455 1.3662
vt 0.4355 0.9473
vt 0.6582 0.9336
vt 0.4355 0.8809
vt 0.3076 0.6377
vt -1.0176 0.6631
vt -1.0859 0.4434
vt 0.1064 0.9121
vt -0.4668 1.7227
vt -0.3027 0.9072
vt -1.7852 0.6123
vt 0.2852 0.7461
vt 0.6963 0.8955
vt 0.7275 0.8008
vt 1.0693 1.0889
vt 0.9590 1.0732
vt 0.3438 1.2871
vt 0.7979 1.1904
vt 0.4785 0.7676
vt 0.7539 0.6758
vt 0.8320 0.5117
vt 0.5420 0.2998
vt 0.8076 0.3604
vt 0.4385 0.3398
vt 0.7715 0.4092
vt -0.0400 0.9316
vt -0.3984 0.5400
vt -0.5293 1.0234
vt 0.4424 0.5000
vt 0.3252 0.0459
vt 0.1709 0.8320
vt 0.7432 0.4814
vt 0.8105 -0.0654
vt 0.2568 0.5039
vt -0.0273 0.8906
vt 0.7266 0.7744
vt 0.6885 0.5234
vt 0.4043 0.6572
vt 0.1455 0.2617
vt 0.3682 0.8369
vt 0.9971 1.0176
vt 1.0586 0.8301
vt 1.3330 0.9434
vt 1.2432 1.1162
vt 1.4990 1.3564
vt 1.7236 0.9238
vt 0.7363 0.7627
vt 0.9951 0.7256
vt 0.1494 1.8018
vt 0.5586 0.7783
vt 0.0322 0.5332
vt -0.1836 1.7568
vt -0.0088 0.5293
vt 0.0615 0.6504
vt -0.1221 1.7314
vt -0.0850 0.9365
vt -0.0908 1.0029
vt -0.0791 0.9766
vt 0.1650 0.7295
vt 0.0371 0.8135
vt 0.2285 1.0000
vt 0.1123 0.8867
vt 0.0176 0.9004
vt 0.0000 1.0000
vt 0.6055 1.1650
vt 0.0654 1.2041
vt 0.0488 1.1113
vt 0.5889 1.0723
vt 0.0537 1.0723
vt 0.0703 1.1650
vt 0.0293 0.8018
vt 0.4326 1.1006
vt 0.5137 0.9912
vt 0.1104 0.6924
vt 0.5098 0.9883
vt 0.4287 1.0977
vt -0.0742 0.8916
vt 0.3242 0.6191
vt 0.1182 0.9893
vt -0.7285 1.0039
vt -2.3145 1.9385
vt -1.9834 2.0156
vt 0.1543 1.0010
vt -0.1221 1.0713
vt -1.9834 1.9756
vt 0.1152 0.6924
vt -0.0889 0.6025
vt 0.5791 1.0205
vt 0.9961 0.3525
vt 1.0195 0.8506
vt 0.5586 0.2559
vt 0.6006 0.3184
vt 0.7881 0.3955
vt 0.6465 0.2461
vt 0.0977 2.2734
vt -1.0244 1.1738
vt -0.7246 0.8682
vt 0.3975 1.9668
vt 0.3984 0.7275
vt 0.5010 1.0967
vt 1.3262 -0.0703
vt 0.4424 0.0195
vt 1.8398 0.0176
vt 1.3516 -0.2939
vt 1.8135 0.1387
vt 0.9531 1.2646
vt 1.9629 -0.1436
vt 1.3691 -0.3750
vt 0.7764 1.6963
vt 0.7383 1.5938
vt 0.1689 1.8047
vt 0.2070 1.9082
vt 0.7188 1.5420
vt 0.1494 1.7529
vt 0.4502 0.8174
vt -0.1191 1.0283
vt 0.4316 0.3291
vt 0.0312 1.0020
vt 0.4189 1.0088
vt 0.0430 0.3223
vt 0.3350 0.2793
vt 0.0439 0.2734
vt 0.0459 0.1768
vt 0.3848 0.2314
vt 0.0508 -0.2480
vt 0.6758 0.1650
vt 0.3271 -0.4697
vt 1.3125 -0.1738
vt 1.6787 0.4160
vt 1.4443 1.6436
vt 1.7080 1.3193
vt 1.2666 1.6973
vt 0.4766 0.7354
vt -0.6162 0.6074
vt -0.6709 0.8369
vt 0.4873 0.5234
vt 0.7148 2.0088
vt 0.8154 0.8408
vt 0.4316 2.0615
vt 1.0957 0.7451
vt -0.0596 0.9199
vt 0.3721 0.7676
vt -0.7461 1.6904
vt 0.2539 1.6904
vt 0.3535 1.5449
vt -0.9980 1.4668
vt 0.0654 1.3633
vt 0.0684 0.5518
vt 0.0039 0.4248
vt -0.1592 0.4473
vt 0.1113 0.8213
vt 0.4355 0.7021
vt -0.6084 0.7119
vt 0.5703 0.8896
vt 0.7109 0.7617
vt 0.7803 0.9023
vt -0.5068 -0.5068
vt 0.4629 -0.6143
vt 0.4473 -0.8008
vt -0.5234 -0.6934
vt 0.4707 -0.5215
vt -0.4990 -0.4141
vt 0.5830 0.7812
vt -0.3877 0.8887
vt 0.6611 1.9902
vt 0.7090 1.3848
vt 0.3809 1.9844
vt 0.3271 1.8701
vt -0.2910 1.3848
vt 0.0557 0.9434
vt 1.2070 1.2051
vt 0.7559 0.8613
vt 0.8525 0.6455
vt -0.2715 0.2266
vt -0.2100 0.0674
vt -0.8633 0.0254
vt 0.5557 1.2031
vt -0.0010 0.7402
vt 0.4209 0.9443
vt -0.1758 -0.3828
vt 0.2070 -0.2148
vt 0.5049 0.8018
vt 0.2002 0.7969
vt 0.0947 0.8135
vt 0.2832 0.8594
vt -0.0107 0.8301
vt -0.0693 0.9160
vt 0.2275 0.7412
vt -0.0537 0.7861
vt -0.5908 1.1963
vt 0.4092 1.1963
vt -0.5586 1.0195
vt -0.1445 1.2959
vt 0.6465 1.0605
vt 1.0352 1.2412
vt 1.0430 0.7959
vt 0.3477 0.5859
vt 0.0664 0.8994
vt 0.7041 1.0928
vt 0.4053 0.6172
vt -0.0898 0.5820
vt -0.4492 0.7227
vt -0.3975 0.5518
vt -0.6914 0.7207
vt -0.8857 1.0869
vt 0.0195 0.5781
vt 0.1309 1.0410
vt 0.6865 0.9072
vt 0.5742 0.4443
vt 1.0449 0.7705
vt 0.9561 0.4004
vt 0.5723 1.3906
vt 0.2568 0.6631
vt 0.0332 0.6162
vt 0.4531 1.5859
vt 0.8756 0.2707
vt 0.7971 0.1158
vt 0.9664 0.3577
vt 0.5000 0.0035
vt 0.5000 0.0661
vt 0.7540 0.0753
vt 0.5000 0.0001
vt 0.9090 0.2300
vt 0.2906 0.1128
vt 0.2460 0.0753
vt 0.1244 0.2707
vt 0.0910 0.2300
vt 0.0336 0.3577
vt 0.8901 0.2890
vt 0.7651 0.3378
vt 0.9640 0.4167
vt 0.5000 0.0116
vt 0.5000 0.0939
vt 0.7729 0.0886
vt 0.9395 0.2664
vt 0.2271 0.0886
vt 0.1099 0.2890
vt 0.0605 0.2664
vt 0.0360 0.4167
vt 0.1113 0.4246
vt 2.0000 1.0000
vt 2.0000 -0.0010
vt 0.0000 -0.0010
vt 1.0000 0.0000
vt 0.0000 0.0000
vt 1.0000 1.0000
vt 1.0039 1.0020
vt 0.9912 -0.0156
vt 0.3779 0.0449
vt 0.3887 0.8926
vt 0.6968 0.0693
vt 0.9194 0.1533
vt 0.5562 0.8047
vt 0.2808 0.0488
vt 0.7007 0.0723
vt 0.5786 0.5488
vt 1.7456 1.4443
vt 1.7456 0.4922
vt 0.0000 0.4932
vt 0.0000 1.4453
vt 1.7539 0.3926
vt 0.0000 0.3926
vt 0.0000 1.4707
vt 1.7539 1.4707
vt 1.7324 0.3945
vt 0.0000 0.3945
vt 0.0000 1.5215
vt 1.7324 1.5215
vt 1.7354 0.4482
vt 0.0000 0.4482
vt 0.0000 1.4316
vt 1.7354 1.4316
vt 0.3101 1.4824
vt 0.3604 0.4736
vt -0.3398 0.4990
vt -0.3901 1.5078
vn 0.577 0.577 0.577
vn -0.577 -0.577 -0.577
vn 0.577 0.577 0.577
vn -0.577 -0.577 -0.577
vn 0.577 0.577 0.577
vn -0.577 -0.577 -0.577
vn 0.577 0.577 0.577
vn -0.577 -0.577 -0.577
vn 0.577 0.577 0.577
vn -0.577 -0.577 -0.577
vn -0.577 -0.577 -0.577
vn -0.577 -0.577 -0.577
vn 0.577 0.577 0.577
vn -0.577 -0.577 -0.577
vn 0.577 0.577 0.577
vn -0.577 -0.577 -0.577
vn 0.577 0.577 0.577
vn -0.577 -0.577 -0.577
vn 0.577 0.577 0.577
vn -0.577 -0.577 -0.577
vn 0.577 0.577 0.577
vn -0.577 -0.577 -0.577
vn 0.577 0.577 0.577
vn -0.577 -0.577 -0.577
vn 0.577 0.577 0.577
vn 0.577 0.577 0.577
vn -0.577 -0.577 -0.577
vn 0.577 0.577 0.577
vn -0.577 -0.577 -0.577
vn 0.577 0.577 0.577
vn -0.577 -0.577 -0.577
vn -0.577 -0.577 -0.577
vn 0.577 0.577 0.577
vn -0.577 -0.577 -0.577
vn 0.577 0.577 0.577
vn -0.577 -0.577 -0.577
vn 0.577 0.577 0.577
vn -0.577 -0.577 -0.577
vn 0.577 0.577 0.577
vn -0.577 -0.577 -0.577
vn 0.577 0.577 0.577
vn -0.577 -0.577 -0.577
vn 0.577 0.577 0.577
vn -0.577 -0.577 -0.577
vn 0.577 0.577 0.577
vn 0.577 0.577 0.577
vn 0.577 0.577 0.577
vn -0.577 -0.577 -0.577
vn -0.577 -0.577 -0.577
vn 0.577 0.577 0.577
vn -0.577 -0.577 -0.577
vn 0.577 0.577 0.577
vn 0.577 0.577 0.577
vn 0.577 0.577 0.577
vn 0.577 0.577 0.577
vn 0.577 0.577 0.577
vn 0.577 0.577 0.577
vn 0.577 0.577 0.577
vn 0.577 0.577 0.577
vn 0.577 0.577 0.577
vn 0.577 0.577 0.577
vn 0.577 0.577 0.577
vn 0.577 0.577 0.577
vn 0.577 0.577 0.577
vn 0.577 0.577 0.577
vn 0.577 0.577 0.577
vn 0.577 0.577 0.577
vn 0.577 0.577 0.577
vn -0.577 -0.577 -0.577
vn 0.577 0.577 0.577
vn -0.577 -0.577 -0.577
vn 0.577 0.577 0.577
vn 0.577 0.577 0.577
vn 0.978 0.194 0.072
vn 0.972 0.223 0.070
vn 0.861 0.279 0.425
vn 0.577 0.577 0.577
vn 0.577 0.577 0.577
vn 0.514 -0.806 0.293
vn 0.577 0.577 0.577
vn 0.577 0.577 0.577
vn 1.000 0.000 0.000
vn 0.577 0.577 0.577
vn 0.577 0.577 0.577
vn 1.000 0.000 0.000
vn -0.577 -0.577 -0.577
vn -0.577 -0.577 -0.577
vn -0.577 -0.577 -0.577
vn -0.577 -0.577 -0.577
vn 0.998 0.043 -0.041
vn 0.991 -0.103 -0.089
vn 0.577 0.577 0.577
vn -0.577 -0.577 -0.577
vn -0.978 0.140 0.155
vn -0.577 -0.577 -0.577
vn 0.577 0.577 0.577
vn 0.577 0.577 0.577
vn -0.577 -0.577 -0.577
vn -0.959 0.069 0.274
vn -0.990 0.000 0.141
vn 0.577 0.577 0.577
vn 0.577 0.577 0.577
vn -1.000 0.000 0.000
vn -1.000 0.000 0.000
vn 0.577 0.577 0.577
vn -0.577 -0.577 -0.577
vn 0.577 0.577 0.577
vn -0.577 -0.577 -0.577
vn 0.577 0.577 0.577
vn 0.577 0.577 0.577
vn 0.577 0.577 0.577
vn 0.577 0.577 0.577
vn 0.577 0.577 0.577
vn -0.577 -0.577 -0.577
vn -0.577 -0.577 -0.577
vn -0.577 -0.577 -0.577
vn -0.577 -0.577 -0.577
vn -0.577 -0.577 -0.577
vn 0.577 0.577 0.577
vn -0.577 -0.577 -0.577
vn -0.986 0.163 -0.037
vn -0.990 0.043 -0.132
vn -0.963 0.188 -0.192
vn 0.577 0.577 0.577
vn -0.577 -0.577 -0.577
vn -0.577 -0.577 -0.577
vn -0.577 -0.577 -0.577
vn -0.577 -0.577 -0.577
vn 0.577 0.577 0.577
vn -0.577 -0.577 -0.577
vn -0.577 -0.577 -0.577
vn 0.577 0.577 0.577
vn 0.577 0.577 0.577
vn -0.577 -0.577 -0.577
vn -0.577 -0.577 -0.577
vn 0.577 0.577 0.577
vn -0.577 -0.577 -0.577
vn 0.577 0.577 0.577
vn 0.577 0.577 0.577
vn -0.577 -0.577 -0.577
vn 0.577 0.577 0.577
vn -0.577 -0.577 -0.577
vn -0.577 -0.577 -0.577
vn 0.577 0.577 0.577
vn 0.577 0.577 0.577
vn -0.577 -0.577 -0.577
vn -0.577 -0.577 -0.577
vn 0.577 0.577 0.577
vn 0.577 0.577 0.577
vn -0.577 -0.577 -0.577
vn -0.577 -0.577 -0.577
vn -0.577 -0.577 -0.577
vn -0.577 -0.577 -0.577
vn -0.577 -0.577 -0.577
vn -0.577 -0.577 -0.577
vn -0.577 -0.577 -0.577
vn -0.577 -0.577 -0.577
vn -0.577 -0.577 -0.577
vn -0.577 -0.577 -0.577
vn -0.577 -0.577 -0.577
vn -0.577 -0.577 -0.577
vn -0.577 -0.577 -0.577
vn -0.577 -0.577 -0.577
vn -0.577 -0.577 -0.577
vn 0.577 0.577 0.577
vn -0.577 -0.577 -0.577
vn 0.577 0.577 0.577
vn 0.577 0.577 0.577
vn 0.577 0.577 0.577
vn 0.577 0.577 0.577
vn 0.577 0.577 0.577
vn -0.577 -0.577 -0.577
vn -0.046 -0.835 0.548
vn -0.046 -0.835 0.548
vn -0.027 -0.687 0.726
vn -0.577 -0.577 -0.577
vn -0.256 -0.537 0.804
vn -0.983 -0.103 0.154
vn -1.000 0.000 0.000
vn -0.577 -0.577 -0.577
vn 0.971 -0.240 0.000
vn -0.577 -0.577 -0.577
vn -0.577 -0.577 -0.577
vn 0.577 0.577 0.577
vn -0.577 -0.577 -0.577
vn 0.577 0.577 0.577
vn -0.577 -0.577 -0.577
vn -0.577 -0.577 -0.577
vn 0.577 0.577 0.577
vn -0.577 -0.577 -0.577
vn -0.577 -0.577 -0.577
vn 1.000 0.000 0.000
vn 0.950 -0.313 0.000
vn -0.577 -0.577 -0.577
vn 0.577 0.577 0.577
vn -0.577 -0.577 -0.577
vn -0.577 -0.577 -0.577
vn 0.577 0.577 0.577
vn -0.577 -0.577 -0.577
vn -0.577 -0.577 -0.577
vn 1.000 0.000 0.000
vn -0.577 -0.577 -0.577
vn 1.000 0.000 0.000
vn 0.949 -0.314 0.000
vn -0.577 -0.577 -0.577
vn -0.577 -0.577 -0.577
vn -0.577 -0.577 -0.577
vn -0.577 -0.577 -0.577
vn -0.577 -0.577 -0.577
vn -0.577 -0.577 -0.577
vn 0.577 0.577 0.577
vn -0.577 -0.577 -0.577
vn -0.577 -0.577 -0.577
vn -0.577 -0.577 -0.577
vn 0.577 0.577 0.577
vn 0.046 -0.835 0.548
vn -0.577 -0.577 -0.577
vn -0.577 -0.577 -0.577
vn -0.577 -0.577 -0.577
vn -0.577 -0.577 -0.577
vn 1.000 0.000 0.000
vn -0.577 -0.577 -0.577
vn -0.577 -0.577 -0.577
vn -0.577 -0.577 -0.577
vn -0.577 -0.577 -0.577
vn -0.577 -0.577 -0.577
vn 0.996 0.000 0.090
vn -0.577 -0.577 -0.577
vn -0.577 -0.577 -0.577
vn 0.996 0.000 0.090
vn 0.577 0.577 0.577
vn 0.577 0.577 0.577
vn -0.577 -0.577 -0.577
vn 0.577 0.577 0.577
vn -0.577 -0.577 -0.577
vn -0.577 -0.577 -0.577
vn -0.577 -0.577 -0.577
vn 0.000 -1.000 0.000
vn -0.577 -0.577 -0.577
vn -0.577 -0.577 -0.577
vn 0.983 -0.163 0.089
vn -0.577 -0.577 -0.577
vn -0.577 -0.577 -0.577
vn 0.996 0.000 0.090
vn 0.577 0.577 0.577
vn 0.577 0.577 0.577
vn -0.577 -0.577 -0.577
vn -0.577 -0.577 -0.577
vn -0.577 -0.577 -0.577
vn 0.969 0.098 0.225
vn -0.577 -0.577 -0.577
vn 0.577 0.577 0.577
vn 0.577 0.577 0.577
vn 0.577 0.577 0.577
vn -0.577 -0.577 -0.577
vn 0.990 0.000 0.141
vn 0.976 0.000 0.218
vn 0.976 0.000 0.218
vn 1.000 0.000 0.000
vn 0.577 0.577 0.577
vn -0.577 -0.577 -0.577
vn 1.000 0.000 0.000
vn -0.577 -0.577 -0.577
vn -0.577 -0.577 -0.577
vn 1.000 0.000 0.000
vn 1.000 0.000 0.000
vn -0.577 -0.577 -0.577
vn 1.000 0.000 0.000
vn 0.577 0.577 0.577
vn 1.000 0.000 0.000
vn 1.000 0.000 0.000
vn -0.577 -0.577 -0.577
vn -0.577 -0.577 -0.577
vn -0.577 -0.577 -0.577
vn 1.000 0.000 0.000
vn 0.577 0.577 0.577
vn 0.577 0.577 0.577
vn 0.577 0.577 0.577
vn 0.577 0.577 0.577
vn -0.577 -0.577 -0.577
vn -0.577 -0.577 -0.577
vn -0.577 -0.577 -0.577
vn -0.577 -0.577 -0.577
vn -0.577 -0.577 -0.577
vn 0.577 0.577 0.577
vn -0.577 -0.577 -0.577
vn -0.577 -0.577 -0.577
vn -0.577 -0.577 -0.577
vn -0.577 -0.577 -0.577
vn 0.986 0.163 -0.037
vn 0.986 0.163 -0.037
vn 0.577 0.577 0.577
vn 0.963 0.188 -0.192
vn -0.577 -0.577 -0.577
vn 0.577 0.577 0.577
vn 0.985 -0.013 -0.174
vn -0.577 -0.577 -0.577
vn -0.577 -0.577 -0.577
vn 0.577 0.577 0.577
vn -0.577 -0.577 -0.577
vn 0.577 0.577 0.577
vn 0.577 0.577 0.577
vn -0.577 -0.577 -0.577
vn 0.577 0.577 0.577
vn -0.978 0.194 0.072
vn 0.577 0.577 0.577
vn -0.972 0.223 0.070
vn -0.861 0.279 0.425
vn 0.577 0.577 0.577
vn 0.577 0.577 0.577
vn -0.577 -0.577 -0.577
vn 0.577 0.577 0.577
vn 0.577 0.577 0.577
vn 0.577 0.577 0.577
vn -0.577 -0.577 -0.577
vn -0.577 -0.577 -0.577
vn -1.000 0.000 0.000
vn -1.000 0.000 0.000
vn 0.577 0.577 0.577
vn 0.577 0.577 0.577
vn 0.577 0.577 0.577
vn 0.577 0.577 0.577
vn -1.000 0.000 0.000
vn -1.000 0.000 0.000
vn -0.577 -0.577 -0.577
vn -0.577 -0.577 -0.577
vn -0.577 -0.577 -0.577
vn -0.577 -0.577 -0.577
vn -0.577 -0.577 -0.577
vn -0.991 -0.103 -0.089
vn -0.998 0.043 -0.041
vn 0.577 0.577 0.577
vn 0.577 0.577 0.577
vn -0.577 -0.577 -0.577
vn -0.577 -0.577 -0.577
vn -0.577 -0.577 -0.577
vn 0.577 0.577 0.577
vn 0.000 -0.451 0.893
vn 0.000 -0.451 0.893
vn 0.577 0.577 0.577
vn 0.000 -0.451 0.893
vn 0.000 -0.707 0.707
vn 0.000 -0.707 0.707
vn 0.577 0.577 0.577
vn 0.577 0.577 0.577
vn 0.577 0.577 0.577
vn -0.577 -0.577 -0.577
vn -0.577 -0.577 -0.577
vn 0.577 0.577 0.577
vn -0.577 -0.577 -0.577
vn 0.577 0.577 0.577
vn 0.577 0.577 0.577
vn -0.577 -0.577 -0.577
vn 0.577 0.577 0.577
vn 0.987 0.163 0.000
vn 0.577 0.577 0.577
vn 0.577 0.577 0.577
vn 0.941 0.272 0.199
vn 0.577 0.577 0.577
vn -0.577 -0.577 -0.577
vn 0.970 0.190 0.152
vn 0.577 0.577 0.577
vn 0.577 0.577 0.577
vn -0.577 -0.577 -0.577
vn 0.577 0.577 0.577
vn -0.577 -0.577 -0.577
vn -0.577 -0.577 -0.577
vn -0.577 -0.577 -0.577
vn -0.577 -0.577 -0.577
vn 0.577 0.577 0.577
vn -0.577 -0.577 -0.577
vn -0.577 -0.577 -0.577
vn 0.577 0.577 0.577
vn -0.577 -0.577 -0.577
vn -0.577 -0.577 -0.577
vn 0.577 0.577 0.577
vn 0.751 0.459 0.475
vn 0.594 0.768 0.238
vn 0.933 0.285 0.221
vn 0.000 0.993 0.118
vn 0.000 0.868 0.497
vn 0.508 0.849 0.143
vn 0.000 1.000 -0.016
vn 0.818 0.540 0.199
vn -0.419 0.774 0.474
vn -0.508 0.849 0.143
vn -0.751 0.459 0.475
vn -0.818 0.540 0.199
vn -0.933 0.285 0.221
vn 0.780 0.422 0.462
vn 0.530 0.324 0.783
vn 0.928 0.167 0.333
vn 0.000 0.977 0.214
vn 0.000 0.812 0.583
vn 0.546 0.823 0.158
vn 0.594 0.768 0.238
vn 0.879 0.467 0.095
vn 0.530 0.324 0.783
vn 0.780 0.422 0.462
vn 0.928 0.167 0.333
vn -0.546 0.823 0.158
vn -0.419 0.774 0.474
vn -0.780 0.422 0.462
vn -0.879 0.467 0.095
vn -0.928 0.167 0.333
vn -0.777 0.151 0.611
vn 0.000 0.000 1.000
vn 0.577 0.577 0.577
vn -0.577 -0.577 -0.577
vn 0.577 0.577 0.577
vn -1.000 0.000 0.000
vn -1.000 0.000 0.000
vn -1.000 0.000 0.000
vn -1.000 0.000 0.000
vn -1.000 0.000 0.000
vn -1.000 0.000 0.000
vn -1.000 0.000 0.000
vn -1.000 0.000 0.000
vn -1.000 0.000 0.000
vn -1.000 0.000 0.000
vn -1.000 0.000 0.000
vn -1.000 0.000 0.000
vn 0.577 0.577 0.577
vn 0.577 0.577 0.577
vn 0.577 0.577 0.577
vn 0.577 0.577 0.577
vn -0.577 -0.577 -0.577
vn -0.577 -0.577 -0.577
vn -0.577 -0.577 -0.577
vn -0.577 -0.577 -0.577
vn -0.577 -0.577 -0.577
vn -0.577 -0.577 -0.577
vn -0.577 -0.577 -0.577
vn -0.577 -0.577 -0.577
vn -0.577 -0.577 -0.577
vn -0.577 -0.577 -0.577
vn -0.577 -0.577 -0.577
vn -0.577 -0.577 -0.577
vn -0.577 -0.577 -0.577
vn -0.577 -0.577 -0.577
vn -0.577 -0.577 -0.577
vn -0.577 -0.577 -0.577
vn -0.577 -0.577 -0.577
vn -0.577 -0.577 -0.577
vn -0.577 -0.577 -0.577
vn -0.577 -0.577 -0.577
vn -0.577 -0.577 -0.577
vn -0.577 -0.577 -0.577
vn -0.577 -0.577 -0.577
vn -0.577 -0.577 -0.577
vn -0.577 -0.577 -0.577
vn -0.577 -0.577 -0.577
vn -0.577 -0.577 -0.577
vn -0.577 -0.577 -0.577
vn -0.577 -0.577 -0.577
vn -0.577 -0.577 -0.577
vn -0.577 -0.577 -0.577
vn -0.577 -0.577 -0.577
vn -0.577 -0.577 -0.577
vn -0.577 -0.577 -0.577
vn -0.577 -0.577 -0.577
vn -0.577 -0.577 -0.577
vn -0.577 -0.577 -0.577
vn -0.577 -0.577 -0.577
vn -0.577 -0.577 -0.577
vn -0.577 -0.577 -0.577
vn -0.577 -0.577 -0.577
vn -0.577 -0.577 -0.577
vn -0.577 -0.577 -0.577
vn -0.577 -0.577 -0.577
vn -0.577 -0.577 -0.577
vn -0.577 -0.577 -0.577
vn -0.577 -0.577 -0.577
vn -0.577 -0.577 -0.577
vn -0.577 -0.577 -0.577
vn -0.577 -0.577 -0.577
usemtl tex_432_lit
f 1/1/1 2/2/2 3/3/3
f 3/3/3 2/2/2 4/4/4
f 5/5/5 6/6/6 7/7/7
f 8/8/8 6/6/6 5/5/5
f 9/9/9 10/10/10 11/11/11
f 12/12/12 10/10/10 9/9/9
f 12/12/12 9/9/9 13/13/13
f 14/14/14 12/12/12 13/13/13
f 14/14/14 13/13/13 15/15/15
f 16/16/16 14/14/14 15/15/15
f 17/17/17 18/16/18 19/15/19
f 17/17/17 20/18/20 18/16/18
f 21/19/21 20/18/20 17/17/17
f 22/3/22 20/18/20 21/19/21
f 23/20/23 22/3/22 21/19/21
f 24/21/24 22/3/22 23/20/23
f 25/22/25 24/21/24 23/20/23
f 26/23/26 24/21/24 25/22/25
f 27/24/27 24/21/24 26/23/26
f 28/25/28 29/26/29 30/27/30
f 30/27/30 29/26/29 27/24/27
f 26/23/26 30/27/30 27/24/27
f 31/11/31 32/28/32 33/29/33
f 33/29/33 32/28/32 34/30/34
f 35/31/35 33/29/33 34/30/34
f 35/31/35 34/30/34 36/32/36
f 37/33/37 35/31/35 36/32/36
f 37/33/37 36/32/36 38/34/38
f 37/33/37 38/34/38 39/35/39
f 38/34/38 40/36/40 39/35/39
f 39/35/39 40/36/40 41/37/41
f 41/37/41 40/36/40 42/5/42
f 41/37/41 42/5/42 43/38/43
f 43/38/43 42/5/42 44/39/44
f 43/38/43 44/39/44 45/40/45
f 45/40/45 44/39/44 46/23/46
f 47/23/47 48/39/48 49/41/49
f 50/27/50 51/42/51 52/25/52
f 49/41/49 51/42/51 50/27/50
f 49/41/49 50/27/50 47/23/47
f 53/22/53 54/40/54 47/23/47
f 55/20/55 54/40/54 53/22/53
f 56/38/56 54/40/54 55/20/55
f 56/38/56 55/20/55 57/19/57
f 58/37/58 56/38/56 57/19/57
f 58/37/58 57/19/57 59/17/59
f 60/35/60 58/37/58 59/17/59
f 60/35/60 59/17/59 61/15/61
f 62/33/62 60/35/60 61/15/61
f 63/33/63 64/15/64 65/13/65
f 66/31/66 63/33/63 65/13/65
f 67/9/67 66/31/66 65/13/65
f 68/29/68 66/31/66 67/9/67
f 67/9/67 69/11/69 68/29/68
usemtl tex_786_lit
f 70/43/70 71/44/71 72/45/72
f 72/45/72 73/46/73 74/47/74
f 75/48/75 70/43/70 74/47/74
f 74/47/74 70/43/70 72/45/72
f 74/47/74 73/46/73 76/49/76
f 76/49/76 73/46/73 77/50/77
f 78/51/78 76/49/76 77/50/77
f 79/52/79 80/53/80 81/54/81
f 82/55/82 83/56/83 84/57/84
f 85/58/85 83/56/83 82/55/82
f 86/59/86 87/60/87 88/61/88
f 89/62/89 87/60/87 86/59/86
f 90/63/90 91/64/91 86/59/86
f 90/63/90 86/59/86 88/61/88
f 92/65/92 93/66/93 94/67/94
f 95/66/95 96/68/96 97/69/97
f 98/70/98 95/66/95 97/69/97
f 99/67/99 95/66/95 98/70/98
f 99/67/99 98/70/98 100/71/100
f 97/69/97 96/68/96 101/72/101
f 97/69/97 101/72/101 102/73/102
f 103/74/103 104/75/104 105/76/105
f 105/76/105 104/75/104 106/77/106
f 107/78/107 105/76/105 106/77/106
f 107/78/107 106/77/106 108/79/108
f 109/80/109 107/78/107 108/79/108
f 110/81/110 111/82/111 112/83/112
f 113/84/113 114/85/114 115/86/115
f 115/86/115 114/85/114 116/87/116
f 117/88/117 118/89/118 119/90/119
f 119/90/119 118/89/118 120/91/120
f 121/92/121 122/93/122 115/86/115
f 123/94/123 119/90/119 124/95/124
f 117/88/117 119/90/119 123/94/123
f 122/93/122 113/84/113 115/86/115
f 125/96/125 126/97/126 127/98/127
f 128/99/128 129/100/129 130/101/130
f 128/99/128 130/101/130 131/102/131
f 132/103/132 133/104/133 134/105/134
f 132/103/132 134/105/134 135/106/135
f 136/107/136 137/108/137 138/109/138
f 139/110/139 140/111/140 141/112/141
f 142/113/142 140/111/140 139/110/139
f 143/114/143 144/115/144 145/116/145
f 143/114/143 145/116/145 146/117/146
f 147/118/147 148/119/148 149/120/149
f 147/118/147 149/120/149 150/121/150
f 151/122/151 152/123/152 153/124/153
f 154/98/154 155/97/155 156/125/156
f 154/98/154 156/125/156 157/126/157
f 158/127/158 159/128/159 160/129/160
f 161/130/161 158/127/158 160/129/160
f 162/108/162 163/131/163 164/132/164
f 165/109/165 162/108/162 164/132/164
usemtl tex_785_lit
f 166/133/166 167/134/167 168/135/168
f 169/136/169 166/133/166 168/135/168
f 170/136/170 171/135/171 172/137/172
f 173/138/173 174/136/174 172/137/172
f 175/139/175 174/136/174 173/138/173
f 176/140/176 177/141/177 178/142/178
f 179/143/179 176/140/176 178/142/178
f 180/144/180 176/140/176 179/143/179
f 181/145/181 182/146/182 183/147/183
f 184/145/184 183/147/183 185/148/185
f 186/149/186 187/150/187 188/151/188
f 186/149/186 188/151/188 189/152/189
f 190/153/190 191/154/191 192/149/192
f 190/153/190 192/149/192 193/152/193
f 190/153/190 193/152/193 188/151/188
f 187/150/187 194/149/194 191/154/191
f 191/154/191 190/153/190 188/151/188
f 187/150/187 191/154/191 188/151/188
f 195/155/195 196/156/196 197/157/197
f 195/155/195 197/157/197 198/158/198
f 199/159/199 200/160/200 201/155/201
f 202/159/202 203/155/203 204/158/204
f 202/159/202 204/158/204 205/157/205
f 206/161/206 207/162/207 208/161/208
f 209/160/209 202/159/202 205/157/205
f 210/156/210 209/160/209 205/157/205
f 211/163/211 212/164/212 213/165/213
f 211/163/211 213/165/213 214/166/214
f 215/167/215 211/163/211 214/166/214
f 215/167/215 214/166/214 216/168/216
f 216/168/216 214/166/214 217/169/217
f 218/170/218 219/171/219 220/172/220
f 218/170/218 220/172/220 221/173/221
f 221/173/221 220/172/220 222/174/222
f 223/175/223 224/176/224 225/177/225
f 226/178/226 223/175/223 225/177/225
f 227/179/227 228/180/228 229/181/229
f 227/179/227 229/181/229 230/182/230
f 231/179/231 232/182/232 233/181/233
f 234/179/234 235/181/235 236/180/236
f 237/180/237 238/179/238 236/180/236
f 235/181/235 239/182/239 240/181/240
f 237/180/237 236/180/236 235/181/235
f 237/180/237 235/181/235 240/181/240
f 241/183/241 242/148/242 243/161/243
f 241/183/241 243/161/243 244/162/244
f 245/183/245 246/162/246 247/161/247
f 245/183/245 247/161/247 248/148/248
f 242/148/242 241/183/241 248/148/248
f 247/161/247 249/162/249 243/161/243
f 242/148/242 248/148/248 247/161/247
f 242/148/242 247/161/247 243/161/243
f 250/184/250 251/185/251 252/186/252
f 253/187/253 254/188/254 251/185/251
f 253/187/253 251/185/251 255/189/255
f 255/189/255 251/185/251 250/184/250
f 256/190/256 255/189/255 250/184/250
f 257/191/257 258/192/258 253/187/253
f 259/193/259 260/194/260 261/195/261
f 262/196/262 259/193/259 261/195/261
f 261/195/261 260/194/260 263/197/263
f 261/195/261 263/197/263 264/198/264
usemtl tex_785_lit_ovl
f 264/198/264 263/197/263 265/199/265
f 266/200/266 267/198/267 268/199/268
f 269/201/269 270/202/270 271/203/271
f 272/204/272 270/202/270 269/201/269
usemtl tex_785_lit
f 272/204/272 269/201/269 273/205/273
f 274/206/274 272/204/272 273/205/273
f 274/206/274 273/205/273 275/207/275
f 276/208/276 275/207/275 273/205/273
f 277/209/277 278/210/278 279/211/279
f 280/212/280 279/211/279 278/210/278
f 281/213/281 280/212/280 278/210/278
f 282/214/282 283/215/283 284/216/284
f 285/217/285 286/218/286 287/219/287
f 288/220/288 286/218/286 285/217/285
f 289/221/289 290/222/290 291/223/291
f 292/224/292 285/217/285 293/225/293
f 293/225/293 285/217/285 287/219/287
f 294/213/294 295/210/295 296/226/296
f 297/227/297 298/228/298 299/229/299
f 300/230/300 297/227/297 299/229/299
f 300/230/300 299/229/299 301/231/301
f 302/232/302 303/233/303 304/234/304
f 305/235/305 306/236/306 302/232/302
f 305/235/305 304/234/304 307/237/307
f 302/232/302 304/234/304 305/235/305
f 308/238/308 306/236/306 305/235/305
f 309/239/309 306/236/306 308/238/308
f 309/239/309 308/238/308 310/240/310
usemtl tex_785_lit_ovl
f 311/241/311 312/242/312 313/243/313
f 311/241/311 313/243/313 314/244/314
f 315/245/315 312/242/312 311/241/311
f 316/246/316 315/245/315 311/241/311
f 317/247/317 315/245/315 316/246/316
f 317/247/317 316/246/316 318/248/318
usemtl tex_785_lit
f 319/249/319 320/250/320 321/251/321
usemtl tex_785_lit_ovl
f 322/252/322 320/250/320 323/253/323
f 323/253/323 320/250/320 324/254/324
usemtl tex_785_lit
f 320/250/320 319/249/319 325/255/325
f 326/256/326 327/257/327 328/258/328
f 328/258/328 327/257/327 329/259/329
f 328/258/328 330/260/330 331/261/331
f 326/256/326 328/258/328 331/261/331
f 332/262/332 333/263/333 334/264/334
f 333/263/333 335/265/335 334/264/334
f 333/263/333 336/266/336 335/265/335
f 337/267/337 338/268/338 339/269/339
f 338/268/338 340/270/340 341/271/341
f 342/272/342 343/268/343 344/267/344
f 345/273/345 343/268/343 342/272/342
f 346/270/346 343/268/343 345/273/345
f 347/274/347 348/275/348 349/276/349
f 350/277/350 348/275/348 347/274/347
f 351/278/351 352/279/352 353/280/353
f 351/278/351 353/280/353 354/281/354
f 355/282/355 356/283/356 357/284/357
f 358/282/358 359/284/359 360/285/360
f 361/286/361 358/282/358 360/285/360
f 361/286/361 360/285/360 362/287/362
f 363/288/363 364/274/364 365/276/365
f 366/289/366 364/274/364 363/288/363
usemtl tex_785_lit_ovl
f 367/290/367 368/291/368 369/292/369
f 370/293/370 367/290/367 369/292/369
usemtl tex_785_lit
f 370/293/370 369/292/369 371/294/371
f 372/295/372 370/293/370 371/294/371
f 373/296/373 374/297/374 375/298/375
f 373/296/373 375/298/375 376/299/376
usemtl tex_652_lit_env
f 377/300/377 378/301/378 379/302/379
f 380/303/380 381/304/381 382/305/382
f 380/303/380 382/305/382 383/306/383
f 383/306/383 382/305/382 384/307/384
f 385/308/385 377/300/377 381/304/381
f 381/304/381 377/300/377 382/305/382
f 384/307/384 377/300/377 379/302/379
f 382/305/382 377/300/377 384/307/384
f 386/309/386 380/303/380 383/306/383
f 381/304/381 380/303/380 386/309/386
f 381/304/381 386/309/386 387/310/387
f 385/308/385 381/304/381 387/310/387
f 386/309/386 383/306/383 388/311/388
f 387/310/387 386/309/386 388/311/388
f 387/310/387 388/311/388 389/312/389
f 385/308/385 387/310/387 389/312/389
f 390/313/390 391/314/391 392/315/392
f 393/316/393 394/317/394 395/318/395
f 393/316/393 395/318/395 396/301/396
f 396/301/396 395/318/395 397/319/397
f 398/314/398 399/313/399 394/317/394
f 394/317/394 399/313/399 395/318/395
f 397/319/397 399/313/399 400/315/400
f 395/318/395 399/313/399 397/319/397
f 401/320/401 393/316/393 402/308/402
f 394/317/394 393/316/393 401/320/401
f 394/317/394 401/320/401 403/321/403
f 398/314/398 394/317/394 403/321/403
f 401/320/401 402/308/402 404/322/404
f 403/321/403 401/320/401 404/322/404
f 403/321/403 404/322/404 405/323/405
f 406/324/406 403/321/403 405/323/405
usemtl tex_927_lit
f 407/325/407 408/326/408 409/327/409
f 407/325/407 409/327/409 410/148/410
usemtl tex_1089_lit_w11_ovl
f 411/328/411 412/329/412 413/148/413
f 414/330/414 411/328/411 413/148/413
f 415/330/415 416/328/416 417/329/417
f 415/330/415 417/329/417 418/148/418
f 419/148/419 420/330/420 421/328/421
f 422/329/422 419/148/419 421/328/421
usemtl tex_6_lit_ovl
f 423/331/423 424/332/424 425/333/425
f 426/334/426 423/331/423 425/333/425
usemtl tex_927_lit_ds
f 427/328/427 428/329/428 429/148/429
f 427/328/427 429/148/429 430/330/430
usemtl tex_936_lit_sec_ds_ovl
f 431/335/431 432/336/432 433/337/433
f 434/335/434 435/336/435 433/337/433
f 436/335/436 437/336/437 433/337/433
f 438/335/438 439/336/439 433/337/433
f 440/335/440 441/336/441 433/337/433
usemtl tex_929_lit_sec_ds
f 442/330/442 443/148/443 444/329/444
f 442/330/442 444/329/444 445/328/445
f 446/148/446 447/330/447 448/328/448
f 446/148/446 448/328/448 449/329/449
usemtl tex_936_lit_sec_ds_ovl
f 450/338/450 451/339/451 452/340/452
f 453/338/453 454/339/454 452/340/452
f 455/338/455 456/339/456 452/340/452
usemtl tex_1153_lit
f 457/341/457 458/342/458 459/343/459
f 457/341/457 459/343/459 460/344/460
f 461/345/461 462/346/462 463/347/463
f 461/345/461 463/347/463 464/348/464
f 465/349/465 466/350/466 467/351/467
f 465/349/465 467/351/467 468/352/468
f 469/353/469 470/354/470 471/355/471
f 469/353/469 471/355/471 472/356/472
usemtl tex_1154_lit
f 473/357/473 474/358/474 475/359/475
f 473/357/473 475/359/475 476/360/476
