mtllib PICBMZ.mtl
v 1010.0 4679.0 -583.0 1.000 1.000 1.000
v 1010.0 7945.0 -583.0 1.000 1.000 1.000
v 1167.0 7945.0 0.0 1.000 1.000 1.000
v 1167.0 4679.0 0.0 1.000 1.000 1.000
v -1167.0 4679.0 0.0 1.000 1.000 1.000
v -1167.0 7945.0 0.0 1.000 1.000 1.000
v -1010.0 7945.0 -583.0 1.000 1.000 1.000
v -1010.0 4679.0 -583.0 1.000 1.000 1.000
v 1516.0 -13755.0 -875.0 1.000 1.000 1.000
v 875.0 -13755.0 -1516.0 1.000 1.000 1.000
v 875.0 -10488.0 -1516.0 1.000 1.000 1.000
v 1516.0 -10488.0 -875.0 1.000 1.000 1.000
v 0.0 -7221.0 -1750.0 1.000 1.000 1.000
v 0.0 -688.0 -1750.0 1.000 1.000 1.000
v 875.0 -688.0 -1516.0 1.000 1.000 1.000
v 875.0 -7221.0 -1516.0 1.000 1.000 1.000
v -1516.0 -13755.0 875.0 1.000 1.000 1.000
v -875.0 -13755.0 1516.0 1.000 1.000 1.000
v -875.0 -10488.0 1516.0 1.000 1.000 1.000
v -1516.0 -10488.0 875.0 1.000 1.000 1.000
v 1167.0 1412.0 0.0 1.000 1.000 1.000
v 1010.0 1412.0 -583.0 1.000 1.000 1.000
v 1010.0 4679.0 -583.0 1.000 1.000 1.000
v 1167.0 4679.0 0.0 1.000 1.000 1.000
v -583.0 1412.0 -1010.0 1.000 1.000 1.000
v -1010.0 1412.0 -583.0 1.000 1.000 1.000
v -1010.0 4679.0 -583.0 1.000 1.000 1.000
v -583.0 4679.0 -1010.0 1.000 1.000 1.000
v -1010.0 1412.0 583.0 1.000 1.000 1.000
v -583.0 1412.0 1010.0 1.000 1.000 1.000
v -583.0 4679.0 1010.0 1.000 1.000 1.000
v -1010.0 4679.0 583.0 1.000 1.000 1.000
v -583.0 1412.0 1010.0 1.000 1.000 1.000
v 0.0 1412.0 1167.0 1.000 1.000 1.000
v 0.0 4679.0 1167.0 1.000 1.000 1.000
v -583.0 4679.0 1010.0 1.000 1.000 1.000
v 0.0 -10488.0 -1750.0 1.000 1.000 1.000
v 0.0 -7221.0 -1750.0 1.000 1.000 1.000
v 875.0 -7221.0 -1516.0 1.000 1.000 1.000
v 875.0 -10488.0 -1516.0 1.000 1.000 1.000
v -875.0 -7221.0 -1516.0 1.000 1.000 1.000
v -875.0 -688.0 -1516.0 1.000 1.000 1.000
v 0.0 -688.0 -1750.0 1.000 1.000 1.000
v 0.0 -7221.0 -1750.0 1.000 1.000 1.000
v -1516.0 -7221.0 -875.0 1.000 1.000 1.000
v -1516.0 -688.0 -875.0 1.000 1.000 1.000
v -875.0 -688.0 -1516.0 1.000 1.000 1.000
v -875.0 -7221.0 -1516.0 1.000 1.000 1.000
v -1750.0 -10488.0 0.0 1.000 1.000 1.000
v -1750.0 -7221.0 0.0 1.000 1.000 1.000
v -1516.0 -7221.0 -875.0 1.000 1.000 1.000
v -1516.0 -10488.0 -875.0 1.000 1.000 1.000
v -1516.0 -10488.0 875.0 1.000 1.000 1.000
v -1516.0 -7221.0 875.0 1.000 1.000 1.000
v -1750.0 -7221.0 0.0 1.000 1.000 1.000
v -1750.0 -10488.0 0.0 1.000 1.000 1.000
v -875.0 -7221.0 1516.0 1.000 1.000 1.000
v -875.0 -688.0 1516.0 1.000 1.000 1.000
v -1516.0 -688.0 875.0 1.000 1.000 1.000
v -1516.0 -7221.0 875.0 1.000 1.000 1.000
v 0.0 -7221.0 1750.0 1.000 1.000 1.000
v 0.0 -688.0 1750.0 1.000 1.000 1.000
v -875.0 -688.0 1516.0 1.000 1.000 1.000
v -875.0 -7221.0 1516.0 1.000 1.000 1.000
v 1516.0 -10488.0 875.0 1.000 1.000 1.000
v 1516.0 -7221.0 875.0 1.000 1.000 1.000
v 875.0 -7221.0 1516.0 1.000 1.000 1.000
v 875.0 -10488.0 1516.0 1.000 1.000 1.000
v 1750.0 -7221.0 0.0 1.000 1.000 1.000
v 1750.0 -688.0 0.0 1.000 1.000 1.000
v 1516.0 -688.0 875.0 1.000 1.000 1.000
v 1516.0 -7221.0 875.0 1.000 1.000 1.000
v -1516.0 -688.0 875.0 1.000 1.000 1.000
v -875.0 -688.0 1516.0 1.000 1.000 1.000
v -583.0 1412.0 1010.0 1.000 1.000 1.000
v -1010.0 1412.0 583.0 1.000 1.000 1.000
v 1516.0 -688.0 875.0 1.000 1.000 1.000
v 1750.0 -688.0 0.0 1.000 1.000 1.000
v 1167.0 1412.0 0.0 1.000 1.000 1.000
v 1010.0 1412.0 583.0 1.000 1.000 1.000
v 0.0 4679.0 -1167.0 1.000 1.000 1.000
v 0.0 7945.0 -1167.0 1.000 1.000 1.000
v 583.0 7945.0 -1010.0 1.000 1.000 1.000
v 583.0 4679.0 -1010.0 1.000 1.000 1.000
v -583.0 4679.0 -1010.0 1.000 1.000 1.000
v -583.0 7945.0 -1010.0 1.000 1.000 1.000
v 0.0 7945.0 -1167.0 1.000 1.000 1.000
v 0.0 4679.0 -1167.0 1.000 1.000 1.000
v 0.0 4679.0 1167.0 1.000 1.000 1.000
v 0.0 7945.0 1167.0 1.000 1.000 1.000
v -583.0 7945.0 1010.0 1.000 1.000 1.000
v -583.0 4679.0 1010.0 1.000 1.000 1.000
v 583.0 1412.0 1010.0 1.000 1.000 1.000
v 1010.0 1412.0 583.0 1.000 1.000 1.000
v 1010.0 4679.0 583.0 1.000 1.000 1.000
v 583.0 4679.0 1010.0 1.000 1.000 1.000
v 467.0 8879.0 -808.0 1.000 1.000 1.000
v 0.0 8879.0 -933.0 1.000 1.000 1.000
v 0.0 13195.0 -933.0 1.000 1.000 1.000
v 467.0 13195.0 -808.0 1.000 1.000 1.000
v 467.0 8879.0 808.0 1.000 1.000 1.000
v 808.0 8879.0 467.0 1.000 1.000 1.000
v 808.0 13195.0 467.0 1.000 1.000 1.000
v 467.0 13195.0 808.0 1.000 1.000 1.000
v 875.0 -3955.0 -1516.0 1.000 1.000 1.000
v 875.0 -688.0 -1516.0 1.000 1.000 1.000
v 1516.0 -688.0 -875.0 1.000 1.000 1.000
v 1516.0 -3955.0 -875.0 1.000 1.000 1.000
v 0.0 -13755.0 -1750.0 1.000 1.000 1.000
v -875.0 -13755.0 -1516.0 1.000 1.000 1.000
v -875.0 -10488.0 -1516.0 1.000 1.000 1.000
v 0.0 -10488.0 -1750.0 1.000 1.000 1.000
v -1516.0 -13755.0 -875.0 1.000 1.000 1.000
v -1750.0 -13755.0 0.0 1.000 1.000 1.000
v -1750.0 -10488.0 0.0 1.000 1.000 1.000
v -1516.0 -10488.0 -875.0 1.000 1.000 1.000
v -875.0 -13755.0 1516.0 1.000 1.000 1.000
v 0.0 -13755.0 1750.0 1.000 1.000 1.000
v 0.0 -10488.0 1750.0 1.000 1.000 1.000
v -875.0 -10488.0 1516.0 1.000 1.000 1.000
v 875.0 -7221.0 1516.0 1.000 1.000 1.000
v 875.0 -688.0 1516.0 1.000 1.000 1.000
v 0.0 -688.0 1750.0 1.000 1.000 1.000
v 0.0 -7221.0 1750.0 1.000 1.000 1.000
v 1516.0 -13755.0 875.0 1.000 1.000 1.000
v 1750.0 -13755.0 0.0 1.000 1.000 1.000
v 1750.0 -10488.0 0.0 1.000 1.000 1.000
v 1516.0 -10488.0 875.0 1.000 1.000 1.000
v 2217.0 -13755.0 0.0 1.000 1.000 1.000
v 2217.0 -13521.0 0.0 1.000 1.000 1.000
v 1750.0 -12938.0 0.0 1.000 1.000 1.000
v 1750.0 -13755.0 0.0 1.000 1.000 1.000
v 0.0 -13755.0 2217.0 1.000 1.000 1.000
v 0.0 -13521.0 2217.0 1.000 1.000 1.000
v 0.0 -12938.0 1750.0 1.000 1.000 1.000
v 0.0 -13755.0 1750.0 1.000 1.000 1.000
v 0.0 -13755.0 -2217.0 1.000 1.000 1.000
v 0.0 -13521.0 -2217.0 1.000 1.000 1.000
v 0.0 -12938.0 -1750.0 1.000 1.000 1.000
v 0.0 -13755.0 -1750.0 1.000 1.000 1.000
v -2217.0 -13755.0 0.0 1.000 1.000 1.000
v -2217.0 -13521.0 0.0 1.000 1.000 1.000
v -1750.0 -12938.0 0.0 1.000 1.000 1.000
v -1750.0 -13755.0 0.0 1.000 1.000 1.000
v 0.0 -13755.0 0.0 1.000 1.000 1.000
v 1516.0 -13755.0 -875.0 1.000 1.000 1.000
v 1750.0 -13755.0 0.0 1.000 1.000 1.000
v 875.0 -13755.0 -1516.0 1.000 1.000 1.000
v 0.0 -13755.0 -1750.0 1.000 1.000 1.000
v -875.0 -13755.0 -1516.0 1.000 1.000 1.000
v -1516.0 -13755.0 -875.0 1.000 1.000 1.000
v -1750.0 -13755.0 0.0 1.000 1.000 1.000
v -1516.0 -13755.0 875.0 1.000 1.000 1.000
v -875.0 -13755.0 1516.0 1.000 1.000 1.000
v 0.0 -13755.0 1750.0 1.000 1.000 1.000
v 875.0 -13755.0 1516.0 1.000 1.000 1.000
v 1516.0 -13755.0 875.0 1.000 1.000 1.000
v 1010.0 1412.0 -583.0 1.000 1.000 1.000
v 583.0 1412.0 -1010.0 1.000 1.000 1.000
v 583.0 4679.0 -1010.0 1.000 1.000 1.000
v 1010.0 1412.0 -583.0 1.000 1.000 1.000
v 583.0 4679.0 -1010.0 1.000 1.000 1.000
v 1010.0 4679.0 -583.0 1.000 1.000 1.000
v 583.0 1412.0 -1010.0 1.000 1.000 1.000
v 0.0 1412.0 -1167.0 1.000 1.000 1.000
v 0.0 4679.0 -1167.0 1.000 1.000 1.000
v 583.0 4679.0 -1010.0 1.000 1.000 1.000
v 0.0 1412.0 1167.0 1.000 1.000 1.000
v 583.0 1412.0 1010.0 1.000 1.000 1.000
v 583.0 4679.0 1010.0 1.000 1.000 1.000
v 0.0 4679.0 1167.0 1.000 1.000 1.000
v -467.0 8879.0 -808.0 1.000 1.000 1.000
v -808.0 8879.0 -467.0 1.000 1.000 1.000
v -808.0 11037.0 -467.0 1.000 1.000 1.000
v -467.0 11037.0 -808.0 1.000 1.000 1.000
v -933.0 8879.0 0.0 1.000 1.000 1.000
v -808.0 8879.0 467.0 1.000 1.000 1.000
v -808.0 11037.0 467.0 1.000 1.000 1.000
v -933.0 11037.0 0.0 1.000 1.000 1.000
v 1750.0 -13755.0 0.0 1.000 1.000 1.000
v 1516.0 -13755.0 -875.0 1.000 1.000 1.000
v 1516.0 -10488.0 -875.0 1.000 1.000 1.000
v 1750.0 -10488.0 0.0 1.000 1.000 1.000
v 875.0 -7221.0 -1516.0 1.000 1.000 1.000
v 875.0 -3955.0 -1516.0 1.000 1.000 1.000
v 1516.0 -3955.0 -875.0 1.000 1.000 1.000
v 1516.0 -7221.0 -875.0 1.000 1.000 1.000
v -875.0 -10488.0 -1516.0 1.000 1.000 1.000
v -875.0 -7221.0 -1516.0 1.000 1.000 1.000
v 0.0 -7221.0 -1750.0 1.000 1.000 1.000
v 0.0 -10488.0 -1750.0 1.000 1.000 1.000
v -875.0 -13755.0 -1516.0 1.000 1.000 1.000
v -1516.0 -13755.0 -875.0 1.000 1.000 1.000
v -1516.0 -10488.0 -875.0 1.000 1.000 1.000
v -875.0 -10488.0 -1516.0 1.000 1.000 1.000
v -1750.0 -13755.0 0.0 1.000 1.000 1.000
v -1516.0 -13755.0 875.0 1.000 1.000 1.000
v -1516.0 -10488.0 875.0 1.000 1.000 1.000
v -1750.0 -10488.0 0.0 1.000 1.000 1.000
v 875.0 -13755.0 1516.0 1.000 1.000 1.000
v 1516.0 -13755.0 875.0 1.000 1.000 1.000
v 1516.0 -10488.0 875.0 1.000 1.000 1.000
v 875.0 -10488.0 1516.0 1.000 1.000 1.000
v 1516.0 -688.0 -875.0 1.000 1.000 1.000
v 875.0 -688.0 -1516.0 1.000 1.000 1.000
v 583.0 1412.0 -1010.0 1.000 1.000 1.000
v 1010.0 1412.0 -583.0 1.000 1.000 1.000
v 875.0 -688.0 -1516.0 1.000 1.000 1.000
v 0.0 -688.0 -1750.0 1.000 1.000 1.000
v 0.0 1412.0 -1167.0 1.000 1.000 1.000
v 583.0 1412.0 -1010.0 1.000 1.000 1.000
v -1516.0 -688.0 -875.0 1.000 1.000 1.000
v -1750.0 -688.0 0.0 1.000 1.000 1.000
v -1167.0 1412.0 0.0 1.000 1.000 1.000
v -1010.0 1412.0 -583.0 1.000 1.000 1.000
v -1750.0 -688.0 0.0 1.000 1.000 1.000
v -1516.0 -688.0 875.0 1.000 1.000 1.000
v -1010.0 1412.0 583.0 1.000 1.000 1.000
v -1167.0 1412.0 0.0 1.000 1.000 1.000
v 0.0 -688.0 1750.0 1.000 1.000 1.000
v 875.0 -688.0 1516.0 1.000 1.000 1.000
v 583.0 1412.0 1010.0 1.000 1.000 1.000
v 0.0 1412.0 1167.0 1.000 1.000 1.000
v 875.0 -688.0 1516.0 1.000 1.000 1.000
v 1516.0 -688.0 875.0 1.000 1.000 1.000
v 1010.0 1412.0 583.0 1.000 1.000 1.000
v 583.0 1412.0 1010.0 1.000 1.000 1.000
v 0.0 1412.0 -1167.0 1.000 1.000 1.000
v -583.0 1412.0 -1010.0 1.000 1.000 1.000
v -583.0 4679.0 -1010.0 1.000 1.000 1.000
v 0.0 4679.0 -1167.0 1.000 1.000 1.000
v 1010.0 1412.0 583.0 1.000 1.000 1.000
v 1167.0 1412.0 0.0 1.000 1.000 1.000
v 1167.0 4679.0 0.0 1.000 1.000 1.000
v 1010.0 4679.0 583.0 1.000 1.000 1.000
v 1167.0 7945.0 0.0 1.000 1.000 1.000
v 1010.0 7945.0 -583.0 1.000 1.000 1.000
v 808.0 8879.0 -467.0 1.000 1.000 1.000
v 933.0 8879.0 0.0 1.000 1.000 1.000
v 1010.0 7945.0 -583.0 1.000 1.000 1.000
v 583.0 7945.0 -1010.0 1.000 1.000 1.000
v 467.0 8879.0 -808.0 1.000 1.000 1.000
v 808.0 8879.0 -467.0 1.000 1.000 1.000
v 583.0 7945.0 -1010.0 1.000 1.000 1.000
v 0.0 7945.0 -1167.0 1.000 1.000 1.000
v 0.0 8879.0 -933.0 1.000 1.000 1.000
v 467.0 8879.0 -808.0 1.000 1.000 1.000
v 0.0 7945.0 -1167.0 1.000 1.000 1.000
v -583.0 7945.0 -1010.0 1.000 1.000 1.000
v -467.0 8879.0 -808.0 1.000 1.000 1.000
v 0.0 8879.0 -933.0 1.000 1.000 1.000
v -583.0 7945.0 -1010.0 1.000 1.000 1.000
v -1010.0 7945.0 -583.0 1.000 1.000 1.000
v -808.0 8879.0 -467.0 1.000 1.000 1.000
v -467.0 8879.0 -808.0 1.000 1.000 1.000
v -1010.0 7945.0 -583.0 1.000 1.000 1.000
v -1167.0 7945.0 0.0 1.000 1.000 1.000
v -933.0 8879.0 0.0 1.000 1.000 1.000
v -808.0 8879.0 -467.0 1.000 1.000 1.000
v -1167.0 7945.0 0.0 1.000 1.000 1.000
v -1010.0 7945.0 583.0 1.000 1.000 1.000
v -808.0 8879.0 467.0 1.000 1.000 1.000
v -933.0 8879.0 0.0 1.000 1.000 1.000
v -1010.0 7945.0 583.0 1.000 1.000 1.000
v -583.0 7945.0 1010.0 1.000 1.000 1.000
v -467.0 8879.0 808.0 1.000 1.000 1.000
v -808.0 8879.0 467.0 1.000 1.000 1.000
v -583.0 7945.0 1010.0 1.000 1.000 1.000
v 0.0 7945.0 1167.0 1.000 1.000 1.000
v 0.0 8879.0 933.0 1.000 1.000 1.000
v -467.0 8879.0 808.0 1.000 1.000 1.000
v 0.0 7945.0 1167.0 1.000 1.000 1.000
v 583.0 7945.0 1010.0 1.000 1.000 1.000
v 467.0 8879.0 808.0 1.000 1.000 1.000
v 0.0 8879.0 933.0 1.000 1.000 1.000
v 583.0 7945.0 1010.0 1.000 1.000 1.000
v 1010.0 7945.0 583.0 1.000 1.000 1.000
v 808.0 8879.0 467.0 1.000 1.000 1.000
v 467.0 8879.0 808.0 1.000 1.000 1.000
v 1010.0 7945.0 583.0 1.000 1.000 1.000
v 1167.0 7945.0 0.0 1.000 1.000 1.000
v 933.0 8879.0 0.0 1.000 1.000 1.000
v 808.0 8879.0 467.0 1.000 1.000 1.000
v 933.0 13195.0 0.0 1.000 1.000 1.000
v 808.0 13195.0 -467.0 1.000 1.000 1.000
v 101.0 14712.0 -58.0 1.000 1.000 1.000
v 117.0 14712.0 0.0 1.000 1.000 1.000
v 808.0 13195.0 -467.0 1.000 1.000 1.000
v 467.0 13195.0 -808.0 1.000 1.000 1.000
v 58.0 14712.0 -101.0 1.000 1.000 1.000
v 101.0 14712.0 -58.0 1.000 1.000 1.000
v 467.0 13195.0 -808.0 1.000 1.000 1.000
v 0.0 13195.0 -933.0 1.000 1.000 1.000
v 0.0 14712.0 -117.0 1.000 1.000 1.000
v 58.0 14712.0 -101.0 1.000 1.000 1.000
v 0.0 13195.0 -933.0 1.000 1.000 1.000
v -467.0 13195.0 -808.0 1.000 1.000 1.000
v -58.0 14712.0 -101.0 1.000 1.000 1.000
v 0.0 14712.0 -117.0 1.000 1.000 1.000
v -467.0 13195.0 -808.0 1.000 1.000 1.000
v -808.0 13195.0 -467.0 1.000 1.000 1.000
v -101.0 14712.0 -58.0 1.000 1.000 1.000
v -58.0 14712.0 -101.0 1.000 1.000 1.000
v -808.0 13195.0 -467.0 1.000 1.000 1.000
v -933.0 13195.0 0.0 1.000 1.000 1.000
v -117.0 14712.0 0.0 1.000 1.000 1.000
v -101.0 14712.0 -58.0 1.000 1.000 1.000
v -933.0 13195.0 0.0 1.000 1.000 1.000
v -808.0 13195.0 467.0 1.000 1.000 1.000
v -101.0 14712.0 58.0 1.000 1.000 1.000
v -117.0 14712.0 0.0 1.000 1.000 1.000
v -808.0 13195.0 467.0 1.000 1.000 1.000
v -467.0 13195.0 808.0 1.000 1.000 1.000
v -58.0 14712.0 101.0 1.000 1.000 1.000
v -101.0 14712.0 58.0 1.000 1.000 1.000
v -467.0 13195.0 808.0 1.000 1.000 1.000
v 0.0 13195.0 933.0 1.000 1.000 1.000
v 0.0 14712.0 117.0 1.000 1.000 1.000
v -58.0 14712.0 101.0 1.000 1.000 1.000
v 0.0 13195.0 933.0 1.000 1.000 1.000
v 467.0 13195.0 808.0 1.000 1.000 1.000
v 58.0 14712.0 101.0 1.000 1.000 1.000
v 0.0 14712.0 117.0 1.000 1.000 1.000
v 467.0 13195.0 808.0 1.000 1.000 1.000
v 808.0 13195.0 467.0 1.000 1.000 1.000
v 101.0 14712.0 58.0 1.000 1.000 1.000
v 58.0 14712.0 101.0 1.000 1.000 1.000
v 808.0 13195.0 467.0 1.000 1.000 1.000
v 933.0 13195.0 0.0 1.000 1.000 1.000
v 117.0 14712.0 0.0 1.000 1.000 1.000
v 101.0 14712.0 58.0 1.000 1.000 1.000
v 1516.0 -7221.0 -875.0 1.000 1.000 1.000
v 1516.0 -688.0 -875.0 1.000 1.000 1.000
v 1750.0 -688.0 0.0 1.000 1.000 1.000
v 1750.0 -7221.0 0.0 1.000 1.000 1.000
v 875.0 -10488.0 -1516.0 1.000 1.000 1.000
v 875.0 -7221.0 -1516.0 1.000 1.000 1.000
v 1516.0 -7221.0 -875.0 1.000 1.000 1.000
v 1516.0 -10488.0 -875.0 1.000 1.000 1.000
v 875.0 -10488.0 1516.0 1.000 1.000 1.000
v 875.0 -7221.0 1516.0 1.000 1.000 1.000
v 0.0 -7221.0 1750.0 1.000 1.000 1.000
v 0.0 -10488.0 1750.0 1.000 1.000 1.000
v 1750.0 -688.0 0.0 1.000 1.000 1.000
v 1516.0 -688.0 -875.0 1.000 1.000 1.000
v 1010.0 1412.0 -583.0 1.000 1.000 1.000
v 1167.0 1412.0 0.0 1.000 1.000 1.000
v 0.0 -688.0 -1750.0 1.000 1.000 1.000
v -875.0 -688.0 -1516.0 1.000 1.000 1.000
v -583.0 1412.0 -1010.0 1.000 1.000 1.000
v 0.0 1412.0 -1167.0 1.000 1.000 1.000
v -875.0 -688.0 1516.0 1.000 1.000 1.000
v 0.0 -688.0 1750.0 1.000 1.000 1.000
v 0.0 1412.0 1167.0 1.000 1.000 1.000
v -583.0 1412.0 1010.0 1.000 1.000 1.000
v -1010.0 4679.0 583.0 1.000 1.000 1.000
v -1010.0 7945.0 583.0 1.000 1.000 1.000
v -1167.0 7945.0 0.0 1.000 1.000 1.000
v -1167.0 4679.0 0.0 1.000 1.000 1.000
v 583.0 4679.0 1010.0 1.000 1.000 1.000
v 583.0 7945.0 1010.0 1.000 1.000 1.000
v 0.0 7945.0 1167.0 1.000 1.000 1.000
v 0.0 4679.0 1167.0 1.000 1.000 1.000
v 1167.0 4679.0 0.0 1.000 1.000 1.000
v 1167.0 7945.0 0.0 1.000 1.000 1.000
v 1010.0 7945.0 583.0 1.000 1.000 1.000
v 1010.0 4679.0 583.0 1.000 1.000 1.000
v 933.0 8879.0 0.0 1.000 1.000 1.000
v 808.0 8879.0 -467.0 1.000 1.000 1.000
v 808.0 13195.0 -467.0 1.000 1.000 1.000
v 933.0 13195.0 0.0 1.000 1.000 1.000
v 808.0 8879.0 -467.0 1.000 1.000 1.000
v 467.0 8879.0 -808.0 1.000 1.000 1.000
v 467.0 13195.0 -808.0 1.000 1.000 1.000
v 808.0 13195.0 -467.0 1.000 1.000 1.000
v 0.0 8879.0 -933.0 1.000 1.000 1.000
v -467.0 8879.0 -808.0 1.000 1.000 1.000
v -467.0 13195.0 -808.0 1.000 1.000 1.000
v 0.0 13195.0 -933.0 1.000 1.000 1.000
v -808.0 11037.0 -467.0 1.000 1.000 1.000
v -808.0 13195.0 -467.0 1.000 1.000 1.000
v -467.0 13195.0 -808.0 1.000 1.000 1.000
v -467.0 11037.0 -808.0 1.000 1.000 1.000
v -808.0 8879.0 -467.0 1.000 1.000 1.000
v -933.0 8879.0 0.0 1.000 1.000 1.000
v -933.0 13195.0 0.0 1.000 1.000 1.000
v -808.0 13195.0 -467.0 1.000 1.000 1.000
v -808.0 8879.0 467.0 1.000 1.000 1.000
v -467.0 8879.0 808.0 1.000 1.000 1.000
v -467.0 13195.0 808.0 1.000 1.000 1.000
v -808.0 13195.0 467.0 1.000 1.000 1.000
v -467.0 8879.0 808.0 1.000 1.000 1.000
v 0.0 8879.0 933.0 1.000 1.000 1.000
v 0.0 13195.0 933.0 1.000 1.000 1.000
v -467.0 13195.0 808.0 1.000 1.000 1.000
v 467.0 11037.0 808.0 1.000 1.000 1.000
v 467.0 13195.0 808.0 1.000 1.000 1.000
v 0.0 13195.0 933.0 1.000 1.000 1.000
v 0.0 11037.0 933.0 1.000 1.000 1.000
v 808.0 8879.0 467.0 1.000 1.000 1.000
v 933.0 8879.0 0.0 1.000 1.000 1.000
v 933.0 13195.0 0.0 1.000 1.000 1.000
v 808.0 13195.0 467.0 1.000 1.000 1.000
v -808.0 11037.0 467.0 1.000 1.000 1.000
v -808.0 13195.0 467.0 1.000 1.000 1.000
v -933.0 13195.0 0.0 1.000 1.000 1.000
v -933.0 11037.0 0.0 1.000 1.000 1.000
v 1516.0 -10488.0 -875.0 1.000 1.000 1.000
v 1516.0 -7221.0 -875.0 1.000 1.000 1.000
v 1750.0 -7221.0 0.0 1.000 1.000 1.000
v 1750.0 -10488.0 0.0 1.000 1.000 1.000
v -1516.0 -7221.0 875.0 1.000 1.000 1.000
v -1516.0 -688.0 875.0 1.000 1.000 1.000
v -1750.0 -688.0 0.0 1.000 1.000 1.000
v -1750.0 -7221.0 0.0 1.000 1.000 1.000
v 1516.0 -7221.0 875.0 1.000 1.000 1.000
v 1516.0 -688.0 875.0 1.000 1.000 1.000
v 875.0 -688.0 1516.0 1.000 1.000 1.000
v 875.0 -7221.0 1516.0 1.000 1.000 1.000
v -1010.0 4679.0 -583.0 1.000 1.000 1.000
v -1010.0 7945.0 -583.0 1.000 1.000 1.000
v -583.0 7945.0 -1010.0 1.000 1.000 1.000
v -583.0 4679.0 -1010.0 1.000 1.000 1.000
v -1167.0 1412.0 0.0 1.000 1.000 1.000
v -1010.0 1412.0 583.0 1.000 1.000 1.000
v -1010.0 4679.0 583.0 1.000 1.000 1.000
v -1167.0 4679.0 0.0 1.000 1.000 1.000
v -583.0 4679.0 1010.0 1.000 1.000 1.000
v -583.0 7945.0 1010.0 1.000 1.000 1.000
v -1010.0 7945.0 583.0 1.000 1.000 1.000
v -1010.0 4679.0 583.0 1.000 1.000 1.000
v 0.0 8879.0 933.0 1.000 1.000 1.000
v 467.0 8879.0 808.0 1.000 1.000 1.000
v 467.0 11037.0 808.0 1.000 1.000 1.000
v 0.0 11037.0 933.0 1.000 1.000 1.000
v -1750.0 -7221.0 0.0 1.000 1.000 1.000
v -1750.0 -688.0 0.0 1.000 1.000 1.000
v -1516.0 -688.0 -875.0 1.000 1.000 1.000
v -1516.0 -7221.0 -875.0 1.000 1.000 1.000
v -875.0 -10488.0 1516.0 1.000 1.000 1.000
v -875.0 -7221.0 1516.0 1.000 1.000 1.000
v -1516.0 -7221.0 875.0 1.000 1.000 1.000
v -1516.0 -10488.0 875.0 1.000 1.000 1.000
v 0.0 -13755.0 1750.0 1.000 1.000 1.000
v 875.0 -13755.0 1516.0 1.000 1.000 1.000
v 875.0 -10488.0 1516.0 1.000 1.000 1.000
v 0.0 -10488.0 1750.0 1.000 1.000 1.000
v -875.0 -688.0 -1516.0 1.000 1.000 1.000
v -1516.0 -688.0 -875.0 1.000 1.000 1.000
v -1010.0 1412.0 -583.0 1.000 1.000 1.000
v -583.0 1412.0 -1010.0 1.000 1.000 1.000
v 583.0 4679.0 -1010.0 1.000 1.000 1.000
v 583.0 7945.0 -1010.0 1.000 1.000 1.000
v 1010.0 7945.0 -583.0 1.000 1.000 1.000
v 1010.0 4679.0 -583.0 1.000 1.000 1.000
v -1010.0 1412.0 -583.0 1.000 1.000 1.000
v -1167.0 1412.0 0.0 1.000 1.000 1.000
v -1167.0 4679.0 0.0 1.000 1.000 1.000
v -1010.0 4679.0 -583.0 1.000 1.000 1.000
v 1010.0 4679.0 583.0 1.000 1.000 1.000
v 1010.0 7945.0 583.0 1.000 1.000 1.000
v 583.0 7945.0 1010.0 1.000 1.000 1.000
v 583.0 4679.0 1010.0 1.000 1.000 1.000
v 875.0 -13755.0 -1516.0 1.000 1.000 1.000
v 0.0 -13755.0 -1750.0 1.000 1.000 1.000
v 0.0 -10488.0 -1750.0 1.000 1.000 1.000
v 875.0 -10488.0 -1516.0 1.000 1.000 1.000
v -1516.0 -10488.0 -875.0 1.000 1.000 1.000
v -1516.0 -7221.0 -875.0 1.000 1.000 1.000
v -875.0 -7221.0 -1516.0 1.000 1.000 1.000
v -875.0 -10488.0 -1516.0 1.000 1.000 1.000
v 0.0 -10488.0 1750.0 1.000 1.000 1.000
v 0.0 -7221.0 1750.0 1.000 1.000 1.000
v -875.0 -7221.0 1516.0 1.000 1.000 1.000
v -875.0 -10488.0 1516.0 1.000 1.000 1.000
v 1750.0 -10488.0 0.0 1.000 1.000 1.000
v 1750.0 -7221.0 0.0 1.000 1.000 1.000
v 1516.0 -7221.0 875.0 1.000 1.000 1.000
v 1516.0 -10488.0 875.0 1.000 1.000 1.000
v -169.0 -13946.0 -734.0 1.000 1.000 1.000
v -217.0 -13946.0 -930.0 1.000 1.000 1.000
v -344.0 -13755.0 -852.0 1.000 1.000 1.000
v -314.0 -13755.0 -734.0 1.000 1.000 1.000
v -217.0 -13946.0 -930.0 1.000 1.000 1.000
v -351.0 -13946.0 -1074.0 1.000 1.000 1.000
v -424.0 -13755.0 -938.0 1.000 1.000 1.000
v -344.0 -13755.0 -852.0 1.000 1.000 1.000
v -351.0 -13946.0 -1074.0 1.000 1.000 1.000
v -533.0 -13946.0 -1127.0 1.000 1.000 1.000
v -533.0 -13755.0 -970.0 1.000 1.000 1.000
v -424.0 -13755.0 -938.0 1.000 1.000 1.000
v -533.0 -13946.0 -1127.0 1.000 1.000 1.000
v -715.0 -13946.0 -1074.0 1.000 1.000 1.000
v -642.0 -13755.0 -938.0 1.000 1.000 1.000
v -533.0 -13755.0 -970.0 1.000 1.000 1.000
v -715.0 -13946.0 -1074.0 1.000 1.000 1.000
v -849.0 -13946.0 -930.0 1.000 1.000 1.000
v -722.0 -13755.0 -852.0 1.000 1.000 1.000
v -642.0 -13755.0 -938.0 1.000 1.000 1.000
v -849.0 -13946.0 -930.0 1.000 1.000 1.000
v -898.0 -13946.0 -734.0 1.000 1.000 1.000
v -752.0 -13755.0 -734.0 1.000 1.000 1.000
v -722.0 -13755.0 -852.0 1.000 1.000 1.000
v -898.0 -13946.0 -734.0 1.000 1.000 1.000
v -849.0 -13946.0 -537.0 1.000 1.000 1.000
v -722.0 -13755.0 -616.0 1.000 1.000 1.000
v -752.0 -13755.0 -734.0 1.000 1.000 1.000
v -849.0 -13946.0 -537.0 1.000 1.000 1.000
v -715.0 -13946.0 -393.0 1.000 1.000 1.000
v -642.0 -13755.0 -529.0 1.000 1.000 1.000
v -722.0 -13755.0 -616.0 1.000 1.000 1.000
v -715.0 -13946.0 -393.0 1.000 1.000 1.000
v -533.0 -13946.0 -340.0 1.000 1.000 1.000
v -533.0 -13755.0 -498.0 1.000 1.000 1.000
v -642.0 -13755.0 -529.0 1.000 1.000 1.000
v -533.0 -13946.0 -340.0 1.000 1.000 1.000
v -351.0 -13946.0 -393.0 1.000 1.000 1.000
v -424.0 -13755.0 -529.0 1.000 1.000 1.000
v -533.0 -13755.0 -498.0 1.000 1.000 1.000
v -351.0 -13946.0 -393.0 1.000 1.000 1.000
v -217.0 -13946.0 -537.0 1.000 1.000 1.000
v -344.0 -13755.0 -616.0 1.000 1.000 1.000
v -424.0 -13755.0 -529.0 1.000 1.000 1.000
v -217.0 -13946.0 -537.0 1.000 1.000 1.000
v -169.0 -13946.0 -734.0 1.000 1.000 1.000
v -314.0 -13755.0 -734.0 1.000 1.000 1.000
v -344.0 -13755.0 -616.0 1.000 1.000 1.000
v -23.0 -14329.0 -734.0 1.000 1.000 1.000
v -91.0 -14329.0 -1009.0 1.000 1.000 1.000
v -217.0 -13946.0 -930.0 1.000 1.000 1.000
v -169.0 -13946.0 -734.0 1.000 1.000 1.000
v -91.0 -14329.0 -1009.0 1.000 1.000 1.000
v -278.0 -14329.0 -1211.0 1.000 1.000 1.000
v -351.0 -13946.0 -1074.0 1.000 1.000 1.000
v -217.0 -13946.0 -930.0 1.000 1.000 1.000
v -278.0 -14329.0 -1211.0 1.000 1.000 1.000
v -533.0 -14329.0 -1284.0 1.000 1.000 1.000
v -533.0 -13946.0 -1127.0 1.000 1.000 1.000
v -351.0 -13946.0 -1074.0 1.000 1.000 1.000
v -533.0 -14329.0 -1284.0 1.000 1.000 1.000
v -788.0 -14329.0 -1211.0 1.000 1.000 1.000
v -715.0 -13946.0 -1074.0 1.000 1.000 1.000
v -533.0 -13946.0 -1127.0 1.000 1.000 1.000
v -788.0 -14329.0 -1211.0 1.000 1.000 1.000
v -975.0 -14329.0 -1009.0 1.000 1.000 1.000
v -849.0 -13946.0 -930.0 1.000 1.000 1.000
v -715.0 -13946.0 -1074.0 1.000 1.000 1.000
v -975.0 -14329.0 -1009.0 1.000 1.000 1.000
v -1043.0 -14329.0 -734.0 1.000 1.000 1.000
v -898.0 -13946.0 -734.0 1.000 1.000 1.000
v -849.0 -13946.0 -930.0 1.000 1.000 1.000
v -1043.0 -14329.0 -734.0 1.000 1.000 1.000
v -975.0 -14329.0 -458.0 1.000 1.000 1.000
v -849.0 -13946.0 -537.0 1.000 1.000 1.000
v -898.0 -13946.0 -734.0 1.000 1.000 1.000
v -975.0 -14329.0 -458.0 1.000 1.000 1.000
v -788.0 -14329.0 -257.0 1.000 1.000 1.000
v -715.0 -13946.0 -393.0 1.000 1.000 1.000
v -849.0 -13946.0 -537.0 1.000 1.000 1.000
v -788.0 -14329.0 -257.0 1.000 1.000 1.000
v -533.0 -14329.0 -183.0 1.000 1.000 1.000
v -533.0 -13946.0 -340.0 1.000 1.000 1.000
v -715.0 -13946.0 -393.0 1.000 1.000 1.000
v -533.0 -14329.0 -183.0 1.000 1.000 1.000
v -278.0 -14329.0 -257.0 1.000 1.000 1.000
v -351.0 -13946.0 -393.0 1.000 1.000 1.000
v -533.0 -13946.0 -340.0 1.000 1.000 1.000
v -278.0 -14329.0 -257.0 1.000 1.000 1.000
v -91.0 -14329.0 -458.0 1.000 1.000 1.000
v -217.0 -13946.0 -537.0 1.000 1.000 1.000
v -351.0 -13946.0 -393.0 1.000 1.000 1.000
v -91.0 -14329.0 -458.0 1.000 1.000 1.000
v -23.0 -14329.0 -734.0 1.000 1.000 1.000
v -169.0 -13946.0 -734.0 1.000 1.000 1.000
v -217.0 -13946.0 -537.0 1.000 1.000 1.000
v 50.0 -14712.0 -734.0 1.000 1.000 1.000
v -28.0 -14712.0 -1048.0 1.000 1.000 1.000
v -91.0 -14329.0 -1009.0 1.000 1.000 1.000
v -23.0 -14329.0 -734.0 1.000 1.000 1.000
v -28.0 -14712.0 -1048.0 1.000 1.000 1.000
v -242.0 -14712.0 -1279.0 1.000 1.000 1.000
v -278.0 -14329.0 -1211.0 1.000 1.000 1.000
v -91.0 -14329.0 -1009.0 1.000 1.000 1.000
v -242.0 -14712.0 -1279.0 1.000 1.000 1.000
v -533.0 -14712.0 -1363.0 1.000 1.000 1.000
v -533.0 -14329.0 -1284.0 1.000 1.000 1.000
v -278.0 -14329.0 -1211.0 1.000 1.000 1.000
v -533.0 -14712.0 -1363.0 1.000 1.000 1.000
v -825.0 -14712.0 -1279.0 1.000 1.000 1.000
v -788.0 -14329.0 -1211.0 1.000 1.000 1.000
v -533.0 -14329.0 -1284.0 1.000 1.000 1.000
v -825.0 -14712.0 -1279.0 1.000 1.000 1.000
v -1038.0 -14712.0 -1048.0 1.000 1.000 1.000
v -975.0 -14329.0 -1009.0 1.000 1.000 1.000
v -788.0 -14329.0 -1211.0 1.000 1.000 1.000
v -1038.0 -14712.0 -1048.0 1.000 1.000 1.000
v -1116.0 -14712.0 -734.0 1.000 1.000 1.000
v -1043.0 -14329.0 -734.0 1.000 1.000 1.000
v -975.0 -14329.0 -1009.0 1.000 1.000 1.000
v -1116.0 -14712.0 -734.0 1.000 1.000 1.000
v -1038.0 -14712.0 -419.0 1.000 1.000 1.000
v -975.0 -14329.0 -458.0 1.000 1.000 1.000
v -1043.0 -14329.0 -734.0 1.000 1.000 1.000
v -1038.0 -14712.0 -419.0 1.000 1.000 1.000
v -825.0 -14712.0 -189.0 1.000 1.000 1.000
v -788.0 -14329.0 -257.0 1.000 1.000 1.000
v -975.0 -14329.0 -458.0 1.000 1.000 1.000
v -825.0 -14712.0 -189.0 1.000 1.000 1.000
v -533.0 -14712.0 -104.0 1.000 1.000 1.000
v -533.0 -14329.0 -183.0 1.000 1.000 1.000
v -788.0 -14329.0 -257.0 1.000 1.000 1.000
v -533.0 -14712.0 -104.0 1.000 1.000 1.000
v -242.0 -14712.0 -189.0 1.000 1.000 1.000
v -278.0 -14329.0 -257.0 1.000 1.000 1.000
v -533.0 -14329.0 -183.0 1.000 1.000 1.000
v -242.0 -14712.0 -189.0 1.000 1.000 1.000
v -28.0 -14712.0 -419.0 1.000 1.000 1.000
v -91.0 -14329.0 -458.0 1.000 1.000 1.000
v -278.0 -14329.0 -257.0 1.000 1.000 1.000
v -28.0 -14712.0 -419.0 1.000 1.000 1.000
v 50.0 -14712.0 -734.0 1.000 1.000 1.000
v -23.0 -14329.0 -734.0 1.000 1.000 1.000
v -91.0 -14329.0 -458.0 1.000 1.000 1.000
v 55.0 -13946.0 730.0 1.000 1.000 1.000
v 6.0 -13946.0 534.0 1.000 1.000 1.000
v -120.0 -13755.0 612.0 1.000 1.000 1.000
v -91.0 -13755.0 730.0 1.000 1.000 1.000
v 6.0 -13946.0 534.0 1.000 1.000 1.000
v -127.0 -13946.0 390.0 1.000 1.000 1.000
v -200.0 -13755.0 526.0 1.000 1.000 1.000
v -120.0 -13755.0 612.0 1.000 1.000 1.000
v -127.0 -13946.0 390.0 1.000 1.000 1.000
v -309.0 -13946.0 337.0 1.000 1.000 1.000
v -309.0 -13755.0 494.0 1.000 1.000 1.000
v -200.0 -13755.0 526.0 1.000 1.000 1.000
v -309.0 -13946.0 337.0 1.000 1.000 1.000
v -491.0 -13946.0 390.0 1.000 1.000 1.000
v -419.0 -13755.0 526.0 1.000 1.000 1.000
v -309.0 -13755.0 494.0 1.000 1.000 1.000
v -491.0 -13946.0 390.0 1.000 1.000 1.000
v -625.0 -13946.0 534.0 1.000 1.000 1.000
v -499.0 -13755.0 612.0 1.000 1.000 1.000
v -419.0 -13755.0 526.0 1.000 1.000 1.000
v -625.0 -13946.0 534.0 1.000 1.000 1.000
v -674.0 -13946.0 730.0 1.000 1.000 1.000
v -528.0 -13755.0 730.0 1.000 1.000 1.000
v -499.0 -13755.0 612.0 1.000 1.000 1.000
v -674.0 -13946.0 730.0 1.000 1.000 1.000
v -625.0 -13946.0 927.0 1.000 1.000 1.000
v -499.0 -13755.0 848.0 1.000 1.000 1.000
v -528.0 -13755.0 730.0 1.000 1.000 1.000
v -625.0 -13946.0 927.0 1.000 1.000 1.000
v -491.0 -13946.0 1071.0 1.000 1.000 1.000
v -419.0 -13755.0 935.0 1.000 1.000 1.000
v -499.0 -13755.0 848.0 1.000 1.000 1.000
v -491.0 -13946.0 1071.0 1.000 1.000 1.000
v -309.0 -13946.0 1124.0 1.000 1.000 1.000
v -309.0 -13755.0 966.0 1.000 1.000 1.000
v -419.0 -13755.0 935.0 1.000 1.000 1.000
v -309.0 -13946.0 1124.0 1.000 1.000 1.000
v -127.0 -13946.0 1071.0 1.000 1.000 1.000
v -200.0 -13755.0 935.0 1.000 1.000 1.000
v -309.0 -13755.0 966.0 1.000 1.000 1.000
v -127.0 -13946.0 1071.0 1.000 1.000 1.000
v 6.0 -13946.0 927.0 1.000 1.000 1.000
v -120.0 -13755.0 848.0 1.000 1.000 1.000
v -200.0 -13755.0 935.0 1.000 1.000 1.000
v 6.0 -13946.0 927.0 1.000 1.000 1.000
v 55.0 -13946.0 730.0 1.000 1.000 1.000
v -91.0 -13755.0 730.0 1.000 1.000 1.000
v -120.0 -13755.0 848.0 1.000 1.000 1.000
v 201.0 -14329.0 730.0 1.000 1.000 1.000
v 133.0 -14329.0 455.0 1.000 1.000 1.000
v 6.0 -13946.0 534.0 1.000 1.000 1.000
v 55.0 -13946.0 730.0 1.000 1.000 1.000
v 133.0 -14329.0 455.0 1.000 1.000 1.000
v -54.0 -14329.0 253.0 1.000 1.000 1.000
v -127.0 -13946.0 390.0 1.000 1.000 1.000
v 6.0 -13946.0 534.0 1.000 1.000 1.000
v -54.0 -14329.0 253.0 1.000 1.000 1.000
v -309.0 -14329.0 180.0 1.000 1.000 1.000
v -309.0 -13946.0 337.0 1.000 1.000 1.000
v -127.0 -13946.0 390.0 1.000 1.000 1.000
v -309.0 -14329.0 180.0 1.000 1.000 1.000
v -564.0 -14329.0 253.0 1.000 1.000 1.000
v -491.0 -13946.0 390.0 1.000 1.000 1.000
v -309.0 -13946.0 337.0 1.000 1.000 1.000
v -564.0 -14329.0 253.0 1.000 1.000 1.000
v -751.0 -14329.0 455.0 1.000 1.000 1.000
v -625.0 -13946.0 534.0 1.000 1.000 1.000
v -491.0 -13946.0 390.0 1.000 1.000 1.000
v -751.0 -14329.0 455.0 1.000 1.000 1.000
v -819.0 -14329.0 730.0 1.000 1.000 1.000
v -674.0 -13946.0 730.0 1.000 1.000 1.000
v -625.0 -13946.0 534.0 1.000 1.000 1.000
v -819.0 -14329.0 730.0 1.000 1.000 1.000
v -751.0 -14329.0 1006.0 1.000 1.000 1.000
v -625.0 -13946.0 927.0 1.000 1.000 1.000
v -674.0 -13946.0 730.0 1.000 1.000 1.000
v -751.0 -14329.0 1006.0 1.000 1.000 1.000
v -564.0 -14329.0 1207.0 1.000 1.000 1.000
v -491.0 -13946.0 1071.0 1.000 1.000 1.000
v -625.0 -13946.0 927.0 1.000 1.000 1.000
v -564.0 -14329.0 1207.0 1.000 1.000 1.000
v -309.0 -14329.0 1281.0 1.000 1.000 1.000
v -309.0 -13946.0 1124.0 1.000 1.000 1.000
v -491.0 -13946.0 1071.0 1.000 1.000 1.000
v -309.0 -14329.0 1281.0 1.000 1.000 1.000
v -54.0 -14329.0 1207.0 1.000 1.000 1.000
v -127.0 -13946.0 1071.0 1.000 1.000 1.000
v -309.0 -13946.0 1124.0 1.000 1.000 1.000
v -54.0 -14329.0 1207.0 1.000 1.000 1.000
v 133.0 -14329.0 1006.0 1.000 1.000 1.000
v 6.0 -13946.0 927.0 1.000 1.000 1.000
v -127.0 -13946.0 1071.0 1.000 1.000 1.000
v 133.0 -14329.0 1006.0 1.000 1.000 1.000
v 201.0 -14329.0 730.0 1.000 1.000 1.000
v 55.0 -13946.0 730.0 1.000 1.000 1.000
v 6.0 -13946.0 927.0 1.000 1.000 1.000
v 274.0 -14712.0 730.0 1.000 1.000 1.000
v 196.0 -14712.0 416.0 1.000 1.000 1.000
v 133.0 -14329.0 455.0 1.000 1.000 1.000
v 201.0 -14329.0 730.0 1.000 1.000 1.000
v 196.0 -14712.0 416.0 1.000 1.000 1.000
v -18.0 -14712.0 185.0 1.000 1.000 1.000
v -54.0 -14329.0 253.0 1.000 1.000 1.000
v 133.0 -14329.0 455.0 1.000 1.000 1.000
v -18.0 -14712.0 185.0 1.000 1.000 1.000
v -309.0 -14712.0 101.0 1.000 1.000 1.000
v -309.0 -14329.0 180.0 1.000 1.000 1.000
v -54.0 -14329.0 253.0 1.000 1.000 1.000
v -309.0 -14712.0 101.0 1.000 1.000 1.000
v -601.0 -14712.0 185.0 1.000 1.000 1.000
v -564.0 -14329.0 253.0 1.000 1.000 1.000
v -309.0 -14329.0 180.0 1.000 1.000 1.000
v -601.0 -14712.0 185.0 1.000 1.000 1.000
v -814.0 -14712.0 416.0 1.000 1.000 1.000
v -751.0 -14329.0 455.0 1.000 1.000 1.000
v -564.0 -14329.0 253.0 1.000 1.000 1.000
v -814.0 -14712.0 416.0 1.000 1.000 1.000
v -892.0 -14712.0 730.0 1.000 1.000 1.000
v -819.0 -14329.0 730.0 1.000 1.000 1.000
v -751.0 -14329.0 455.0 1.000 1.000 1.000
v -892.0 -14712.0 730.0 1.000 1.000 1.000
v -814.0 -14712.0 1045.0 1.000 1.000 1.000
v -751.0 -14329.0 1006.0 1.000 1.000 1.000
v -819.0 -14329.0 730.0 1.000 1.000 1.000
v -814.0 -14712.0 1045.0 1.000 1.000 1.000
v -601.0 -14712.0 1275.0 1.000 1.000 1.000
v -564.0 -14329.0 1207.0 1.000 1.000 1.000
v -751.0 -14329.0 1006.0 1.000 1.000 1.000
v -601.0 -14712.0 1275.0 1.000 1.000 1.000
v -309.0 -14712.0 1360.0 1.000 1.000 1.000
v -309.0 -14329.0 1281.0 1.000 1.000 1.000
v -564.0 -14329.0 1207.0 1.000 1.000 1.000
v -309.0 -14712.0 1360.0 1.000 1.000 1.000
v -18.0 -14712.0 1275.0 1.000 1.000 1.000
v -54.0 -14329.0 1207.0 1.000 1.000 1.000
v -309.0 -14329.0 1281.0 1.000 1.000 1.000
v -18.0 -14712.0 1275.0 1.000 1.000 1.000
v 196.0 -14712.0 1045.0 1.000 1.000 1.000
v 133.0 -14329.0 1006.0 1.000 1.000 1.000
v -54.0 -14329.0 1207.0 1.000 1.000 1.000
v 196.0 -14712.0 1045.0 1.000 1.000 1.000
v 274.0 -14712.0 730.0 1.000 1.000 1.000
v 201.0 -14329.0 730.0 1.000 1.000 1.000
v 133.0 -14329.0 1006.0 1.000 1.000 1.000
v 1196.0 -13946.0 -177.0 1.000 1.000 1.000
v 1147.0 -13946.0 -373.0 1.000 1.000 1.000
v 1021.0 -13755.0 -295.0 1.000 1.000 1.000
v 1050.0 -13755.0 -177.0 1.000 1.000 1.000
v 1147.0 -13946.0 -373.0 1.000 1.000 1.000
v 1014.0 -13946.0 -517.0 1.000 1.000 1.000
v 941.0 -13755.0 -381.0 1.000 1.000 1.000
v 1021.0 -13755.0 -295.0 1.000 1.000 1.000
v 1014.0 -13946.0 -517.0 1.000 1.000 1.000
v 831.0 -13946.0 -570.0 1.000 1.000 1.000
v 831.0 -13755.0 -413.0 1.000 1.000 1.000
v 941.0 -13755.0 -381.0 1.000 1.000 1.000
v 831.0 -13946.0 -570.0 1.000 1.000 1.000
v 649.0 -13946.0 -517.0 1.000 1.000 1.000
v 722.0 -13755.0 -381.0 1.000 1.000 1.000
v 831.0 -13755.0 -413.0 1.000 1.000 1.000
v 649.0 -13946.0 -517.0 1.000 1.000 1.000
v 516.0 -13946.0 -373.0 1.000 1.000 1.000
v 642.0 -13755.0 -295.0 1.000 1.000 1.000
v 722.0 -13755.0 -381.0 1.000 1.000 1.000
v 516.0 -13946.0 -373.0 1.000 1.000 1.000
v 467.0 -13946.0 -177.0 1.000 1.000 1.000
v 613.0 -13755.0 -177.0 1.000 1.000 1.000
v 642.0 -13755.0 -295.0 1.000 1.000 1.000
v 467.0 -13946.0 -177.0 1.000 1.000 1.000
v 516.0 -13946.0 20.0 1.000 1.000 1.000
v 642.0 -13755.0 -59.0 1.000 1.000 1.000
v 613.0 -13755.0 -177.0 1.000 1.000 1.000
v 516.0 -13946.0 20.0 1.000 1.000 1.000
v 649.0 -13946.0 164.0 1.000 1.000 1.000
v 722.0 -13755.0 28.0 1.000 1.000 1.000
v 642.0 -13755.0 -59.0 1.000 1.000 1.000
v 649.0 -13946.0 164.0 1.000 1.000 1.000
v 831.0 -13946.0 217.0 1.000 1.000 1.000
v 831.0 -13755.0 59.0 1.000 1.000 1.000
v 722.0 -13755.0 28.0 1.000 1.000 1.000
v 831.0 -13946.0 217.0 1.000 1.000 1.000
v 1014.0 -13946.0 164.0 1.000 1.000 1.000
v 941.0 -13755.0 28.0 1.000 1.000 1.000
v 831.0 -13755.0 59.0 1.000 1.000 1.000
v 1014.0 -13946.0 164.0 1.000 1.000 1.000
v 1147.0 -13946.0 20.0 1.000 1.000 1.000
v 1021.0 -13755.0 -59.0 1.000 1.000 1.000
v 941.0 -13755.0 28.0 1.000 1.000 1.000
v 1147.0 -13946.0 20.0 1.000 1.000 1.000
v 1196.0 -13946.0 -177.0 1.000 1.000 1.000
v 1050.0 -13755.0 -177.0 1.000 1.000 1.000
v 1021.0 -13755.0 -59.0 1.000 1.000 1.000
v 1342.0 -14329.0 -177.0 1.000 1.000 1.000
v 1273.0 -14329.0 -452.0 1.000 1.000 1.000
v 1147.0 -13946.0 -373.0 1.000 1.000 1.000
v 1196.0 -13946.0 -177.0 1.000 1.000 1.000
v 1273.0 -14329.0 -452.0 1.000 1.000 1.000
v 1087.0 -14329.0 -654.0 1.000 1.000 1.000
v 1014.0 -13946.0 -517.0 1.000 1.000 1.000
v 1147.0 -13946.0 -373.0 1.000 1.000 1.000
v 1087.0 -14329.0 -654.0 1.000 1.000 1.000
v 831.0 -14329.0 -727.0 1.000 1.000 1.000
v 831.0 -13946.0 -570.0 1.000 1.000 1.000
v 1014.0 -13946.0 -517.0 1.000 1.000 1.000
v 831.0 -14329.0 -727.0 1.000 1.000 1.000
v 576.0 -14329.0 -654.0 1.000 1.000 1.000
v 649.0 -13946.0 -517.0 1.000 1.000 1.000
v 831.0 -13946.0 -570.0 1.000 1.000 1.000
v 576.0 -14329.0 -654.0 1.000 1.000 1.000
v 390.0 -14329.0 -452.0 1.000 1.000 1.000
v 516.0 -13946.0 -373.0 1.000 1.000 1.000
v 649.0 -13946.0 -517.0 1.000 1.000 1.000
v 390.0 -14329.0 -452.0 1.000 1.000 1.000
v 321.0 -14329.0 -177.0 1.000 1.000 1.000
v 467.0 -13946.0 -177.0 1.000 1.000 1.000
v 516.0 -13946.0 -373.0 1.000 1.000 1.000
v 321.0 -14329.0 -177.0 1.000 1.000 1.000
v 390.0 -14329.0 99.0 1.000 1.000 1.000
v 516.0 -13946.0 20.0 1.000 1.000 1.000
v 467.0 -13946.0 -177.0 1.000 1.000 1.000
v 390.0 -14329.0 99.0 1.000 1.000 1.000
v 576.0 -14329.0 300.0 1.000 1.000 1.000
v 649.0 -13946.0 164.0 1.000 1.000 1.000
v 516.0 -13946.0 20.0 1.000 1.000 1.000
v 576.0 -14329.0 300.0 1.000 1.000 1.000
v 831.0 -14329.0 374.0 1.000 1.000 1.000
v 831.0 -13946.0 217.0 1.000 1.000 1.000
v 649.0 -13946.0 164.0 1.000 1.000 1.000
v 831.0 -14329.0 374.0 1.000 1.000 1.000
v 1087.0 -14329.0 300.0 1.000 1.000 1.000
v 1014.0 -13946.0 164.0 1.000 1.000 1.000
v 831.0 -13946.0 217.0 1.000 1.000 1.000
v 1087.0 -14329.0 300.0 1.000 1.000 1.000
v 1273.0 -14329.0 99.0 1.000 1.000 1.000
v 1147.0 -13946.0 20.0 1.000 1.000 1.000
v 1014.0 -13946.0 164.0 1.000 1.000 1.000
v 1273.0 -14329.0 99.0 1.000 1.000 1.000
v 1342.0 -14329.0 -177.0 1.000 1.000 1.000
v 1196.0 -13946.0 -177.0 1.000 1.000 1.000
v 1147.0 -13946.0 20.0 1.000 1.000 1.000
v 1415.0 -14712.0 -177.0 1.000 1.000 1.000
v 1336.0 -14712.0 -491.0 1.000 1.000 1.000
v 1273.0 -14329.0 -452.0 1.000 1.000 1.000
v 1342.0 -14329.0 -177.0 1.000 1.000 1.000
v 1336.0 -14712.0 -491.0 1.000 1.000 1.000
v 1123.0 -14712.0 -722.0 1.000 1.000 1.000
v 1087.0 -14329.0 -654.0 1.000 1.000 1.000
v 1273.0 -14329.0 -452.0 1.000 1.000 1.000
v 1123.0 -14712.0 -722.0 1.000 1.000 1.000
v 831.0 -14712.0 -806.0 1.000 1.000 1.000
v 831.0 -14329.0 -727.0 1.000 1.000 1.000
v 1087.0 -14329.0 -654.0 1.000 1.000 1.000
v 831.0 -14712.0 -806.0 1.000 1.000 1.000
v 540.0 -14712.0 -722.0 1.000 1.000 1.000
v 576.0 -14329.0 -654.0 1.000 1.000 1.000
v 831.0 -14329.0 -727.0 1.000 1.000 1.000
v 540.0 -14712.0 -722.0 1.000 1.000 1.000
v 327.0 -14712.0 -491.0 1.000 1.000 1.000
v 390.0 -14329.0 -452.0 1.000 1.000 1.000
v 576.0 -14329.0 -654.0 1.000 1.000 1.000
v 327.0 -14712.0 -491.0 1.000 1.000 1.000
v 248.0 -14712.0 -177.0 1.000 1.000 1.000
v 321.0 -14329.0 -177.0 1.000 1.000 1.000
v 390.0 -14329.0 -452.0 1.000 1.000 1.000
v 248.0 -14712.0 -177.0 1.000 1.000 1.000
v 327.0 -14712.0 138.0 1.000 1.000 1.000
v 390.0 -14329.0 99.0 1.000 1.000 1.000
v 321.0 -14329.0 -177.0 1.000 1.000 1.000
v 327.0 -14712.0 138.0 1.000 1.000 1.000
v 540.0 -14712.0 369.0 1.000 1.000 1.000
v 576.0 -14329.0 300.0 1.000 1.000 1.000
v 390.0 -14329.0 99.0 1.000 1.000 1.000
v 540.0 -14712.0 369.0 1.000 1.000 1.000
v 831.0 -14712.0 453.0 1.000 1.000 1.000
v 831.0 -14329.0 374.0 1.000 1.000 1.000
v 576.0 -14329.0 300.0 1.000 1.000 1.000
v 831.0 -14712.0 453.0 1.000 1.000 1.000
v 1123.0 -14712.0 369.0 1.000 1.000 1.000
v 1087.0 -14329.0 300.0 1.000 1.000 1.000
v 831.0 -14329.0 374.0 1.000 1.000 1.000
v 1123.0 -14712.0 369.0 1.000 1.000 1.000
v 1336.0 -14712.0 138.0 1.000 1.000 1.000
v 1273.0 -14329.0 99.0 1.000 1.000 1.000
v 1087.0 -14329.0 300.0 1.000 1.000 1.000
v 1336.0 -14712.0 138.0 1.000 1.000 1.000
v 1415.0 -14712.0 -177.0 1.000 1.000 1.000
v 1342.0 -14329.0 -177.0 1.000 1.000 1.000
v 1273.0 -14329.0 99.0 1.000 1.000 1.000
v 117.0 14712.0 0.0 1.000 1.000 1.000
v 101.0 14712.0 -58.0 1.000 1.000 1.000
v 0.0 14712.0 0.0 1.000 1.000 1.000
v 58.0 14712.0 -101.0 1.000 1.000 1.000
v 0.0 14712.0 -117.0 1.000 1.000 1.000
v -58.0 14712.0 -101.0 1.000 1.000 1.000
v -101.0 14712.0 -58.0 1.000 1.000 1.000
v -117.0 14712.0 0.0 1.000 1.000 1.000
v -101.0 14712.0 58.0 1.000 1.000 1.000
v -58.0 14712.0 101.0 1.000 1.000 1.000
v 0.0 14712.0 117.0 1.000 1.000 1.000
v 58.0 14712.0 101.0 1.000 1.000 1.000
v 101.0 14712.0 58.0 1.000 1.000 1.000
v -1684.0 -12650.0 248.0 1.000 1.000 1.000
v -1566.0 -12650.0 687.0 1.000 1.000 1.000
v -1566.0 -12405.0 687.0 1.000 1.000 1.000
v -1684.0 -12650.0 248.0 1.000 1.000 1.000
v -1566.0 -12405.0 687.0 1.000 1.000 1.000
v -1684.0 -12405.0 248.0 1.000 1.000 1.000
v 1090.0 -12839.0 1301.0 1.000 1.000 1.000
v 1410.0 -12839.0 981.0 1.000 1.000 1.000
v 1410.0 -12594.0 981.0 1.000 1.000 1.000
v 1090.0 -12594.0 1301.0 1.000 1.000 1.000
v -1010.0 5985.0 583.0 1.000 1.000 1.000
v -1010.0 6639.0 583.0 1.000 1.000 1.000
v -1167.0 6639.0 0.0 1.000 1.000 1.000
v -1167.0 5985.0 0.0 1.000 1.000 1.000
v 1167.0 5985.0 0.0 1.000 1.000 1.000
v 1167.0 6639.0 0.0 1.000 1.000 1.000
v 1010.0 6639.0 583.0 1.000 1.000 1.000
v 1010.0 5985.0 583.0 1.000 1.000 1.000
v 781.0 10821.0 -494.0 1.000 1.000 1.000
v 494.0 10821.0 -781.0 1.000 1.000 1.000
v 494.0 11253.0 -781.0 1.000 1.000 1.000
v 781.0 11253.0 -494.0 1.000 1.000 1.000
v -757.0 10848.0 518.0 1.000 1.000 1.000
v -518.0 10848.0 757.0 1.000 1.000 1.000
v -518.0 11226.0 757.0 1.000 1.000 1.000
v -757.0 11226.0 518.0 1.000 1.000 1.000
v -1727.0 -4347.0 -87.0 1.000 1.000 1.000
v -1727.0 -3563.0 -87.0 1.000 1.000 1.000
v -1539.0 -3563.0 -789.0 1.000 1.000 1.000
v -1539.0 -4347.0 -789.0 1.000 1.000 1.000
v 501.0 5169.0 1032.0 1.000 1.000 1.000
v 501.0 7455.0 1032.0 1.000 1.000 1.000
v 82.0 7455.0 1145.0 1.000 1.000 1.000
v 82.0 5169.0 1145.0 1.000 1.000 1.000
v -1563.0 -5719.0 700.0 1.000 1.000 1.000
v -1563.0 -2191.0 700.0 1.000 1.000 1.000
v -1703.0 -2191.0 176.0 1.000 1.000 1.000
v -1703.0 -5719.0 176.0 1.000 1.000 1.000
v 1419.0 -5784.0 972.0 1.000 1.000 1.000
v 1419.0 -2125.0 972.0 1.000 1.000 1.000
v 971.0 -2125.0 1420.0 1.000 1.000 1.000
v 971.0 -5784.0 1420.0 1.000 1.000 1.000
vt 1.0000 1.0000
vt 0.9990 -2.1182
vt -0.0010 -2.1182
vt 0.0000 1.0000
vt 0.9980 -2.1128
vt -0.0020 -2.1128
vt 1.0000 -1.0000
vt 0.0000 -1.0000
vt 0.9995 -1.1006
vt -0.0005 -1.1006
vt 1.0000 -0.1050
vt 0.0000 -0.1050
vt 0.9995 1.0000
vt 1.0015 -1.0000
vt 0.0020 -1.0000
vt 1.0005 -1.0000
vt 0.0005 -1.0000
vt 1.0000 -1.0259
vt 0.0000 -1.0259
vt 1.0000 -1.1211
vt 0.0000 -1.1211
vt 1.0000 -1.1353
vt 0.0000 -1.1353
vt 0.9995 -1.0000
vt -0.0005 -1.0000
vt 1.0000 -1.0312
vt 0.0000 -1.0312
vt 1.0000 -0.2476
vt 0.3335 -0.2476
vt 1.0000 -0.9878
vt 0.3335 -0.9878
vt 1.0000 -1.4023
vt 0.0000 -1.4023
vt 1.0000 -1.4077
vt 0.0000 -1.4077
vt 1.0356 -1.1592
vt 0.0356 -1.1592
vt 0.9995 -1.3726
vt -0.0005 -1.3726
vt 1.0005 -2.3301
vt 0.0005 -2.3301
vt 0.9976 -2.3335
vt -0.0024 -2.3335
vt 0.9995 -0.1055
vt -0.0005 -0.1055
vt 0.0000 1.0034
vt 1.0000 1.0034
vt 1.0000 -1.3262
vt 0.0000 -1.3262
vt 1.0000 1.0039
vt 0.9995 -1.3672
vt -0.0005 -1.3672
vt 1.0000 -1.3018
vt 0.0000 -1.3018
vt 1.0000 -2.0151
vt 0.0000 -2.0151
vt 1.0010 -1.2188
vt 0.0015 -1.2188
vt 0.0000 0.7144
vt 1.0000 0.0000
vt 0.3584 -0.0615
vt -0.0039 1.0059
vt 0.3115 1.2266
vt -0.2227 0.5000
vt -0.2852 -0.1562
vt -0.1748 -0.7871
vt 0.0781 -1.2236
vt 0.4062 -1.3486
vt 0.7217 -1.1289
vt 0.9395 -0.6221
vt 1.0020 0.0342
vt 0.8926 0.6650
vt 0.6396 1.1016
vt 0.0000 1.2559
vt 1.0000 1.2563
vt 0.9995 -1.2695
vt -0.0005 -1.2700
vt 0.0000 1.2388
vt 1.0000 1.2388
vt 1.0000 -1.2783
vt 0.0000 -1.2783
vt 0.0000 1.2622
vt 1.0000 1.2642
vt 1.0000 -1.3984
vt 0.0000 -1.3999
vt 1.5225 1.0000
vt 1.0010 -1.2446
vt 1.5229 -1.2446
vt 1.5947 1.0000
vt 1.0010 -1.2666
vt 1.5957 -1.2666
vt 0.0000 1.2593
vt 1.0000 1.2593
vt 1.0005 -1.3564
vt 0.0005 -1.3564
vt 1.0000 -1.1875
vt 0.0000 -1.1875
vt 1.0000 -1.3540
vt 0.0000 -1.3540
vt 0.0000 1.2100
vt 1.0000 1.2080
vt 0.9990 -0.8921
vt -0.0010 -0.8901
vt 0.0000 1.2793
vt 1.0000 1.2842
vt 0.0000 -1.4033
vt 0.3335 -1.0000
vt 1.0000 -0.9976
vt 0.3335 -0.9976
vt -0.0186 1.0000
vt 1.0000 -0.0615
vt 0.3213 -0.0615
vt 1.0000 -1.0093
vt 0.3335 -1.0093
vt 1.0000 -1.2954
vt 0.3335 -1.2954
vt 1.0000 -1.1177
vt 0.3335 -1.1177
vt 0.2002 0.0000
vt 0.1997 0.0000
vt -0.0039 1.0000
vt 0.9961 1.0000
vt 1.0000 -1.9873
vt 0.8750 -1.9873
vt 1.0000 -1.9990
vt 0.8750 -1.9990
vt 1.0000 -1.9922
vt 0.8750 -1.9922
vt 1.0000 -1.9941
vt 0.8750 -1.9941
vt 1.0000 -1.9844
vt 0.8750 -1.9844
vt 1.0005 -2.0024
vt 0.8755 -2.0024
vt 1.0005 -1.9941
vt 0.8755 -1.9941
vt 1.0005 -2.0166
vt 0.8755 -2.0166
vt 1.0000 -1.9824
vt 0.8750 -1.9824
vt 1.0000 -2.0000
vt 0.8750 -2.0000
vt 1.0005 -1.9697
vt 0.8755 -1.9697
vt 1.0005 -1.9761
vt 0.8755 -1.9761
vt 0.9990 -2.1074
vt -0.0010 -2.1074
vt 1.0000 -0.8374
vt 0.3335 -0.8374
vt 1.0000 -1.1899
vt 0.3335 -1.1899
vt 0.9712 -1.4004
vt 0.3047 -1.4004
vt 1.0000 -4.4092
vt 0.0000 -4.4092
vt 1.0000 -7.9331
vt 0.0000 -7.9331
vt 1.0000 -7.9321
vt 0.0000 -7.9326
vt 1.0000 -7.9346
vt 0.0000 -7.9346
vt 0.9995 -3.4658
vt 0.9995 -7.9312
vt 0.0000 -7.9312
vt 0.0000 -3.4658
vt 1.0005 -7.9370
vt 0.0000 -7.9370
vt 1.0000 -7.9341
vt 0.0000 -7.9341
vt 1.0000 -3.4673
vt 0.0000 -3.4673
vt 0.0000 -7.9321
vt 1.0000 -2.6060
vt 0.0000 -2.6060
vt 0.9980 -1.8032
vt -0.0020 -1.8032
vt 1.0000 -6.2124
vt 0.0000 -6.2124
vt 0.9956 1.2466
vt 1.0347 -1.0078
vt 0.0347 -1.0107
vt -0.0044 1.2437
vt 0.0000 1.2964
vt 1.0000 1.2964
vt 0.9985 -1.0728
vt -0.0010 -1.0728
vt 1.0063 1.2969
vt 0.9575 -1.0308
vt -0.0425 -1.0269
vt 0.0063 1.3008
vt 1.5361 1.0000
vt 1.0000 -1.0825
vt 1.5361 -1.0825
vt 1.0005 -2.6060
vt 0.0005 -2.6060
vt 1.0000 1.4243
vt 1.0000 -1.0576
vt 0.0000 -1.0571
vt 0.0000 1.4248
vt 0.0000 1.4009
vt 1.0000 1.3999
vt 1.0005 -1.0708
vt 0.0005 -1.0698
vt 0.2285 1.0000
vt 1.0000 -0.0532
vt 0.4858 -0.0532
vt 1.0000 -1.0615
vt 0.3223 -1.0615
vt 0.3223 1.0000
vt 0.4536 1.0000
vt 1.0000 -1.0107
vt 0.4536 -1.0107
vt 1.0000 1.0171
vt 1.0005 -0.0718
vt 0.3765 -0.0684
vt 0.3755 1.0205
vt 0.1909 1.0327
vt 1.0000 1.0322
vt 1.0000 -0.1045
vt 0.1909 -0.1040
vt 0.0000 0.0000
vt 1.0000 -0.0039
vt 0.0000 -0.0039
vt 1.0000 -0.0381
vt 0.0000 -0.0381
vt 0.1660 -1.4365
vt 0.7891 -1.4355
vt 0.6484 -2.0947
vt 0.2744 -2.0947
vt 0.2949 -1.4473
vt 0.9209 -1.4482
vt 0.8037 -2.1123
vt 0.4287 -2.1113
vt 0.3057 -1.4512
vt 0.9307 -1.4512
vt 0.8271 -2.1201
vt 0.4512 -2.1201
vt 0.3242 -1.4482
vt 0.9492 -1.4482
vt 0.8721 -2.1162
vt 0.4971 -2.1162
vt 0.3320 -1.4453
vt 0.9570 -1.4453
vt 0.8926 -2.1094
vt 0.5176 -2.1094
vt 0.2129 -1.4414
vt 0.8379 -1.4414
vt 0.7295 -2.1016
vt 0.3545 -2.1016
vt 0.1592 -1.4385
vt 0.7832 -1.4395
vt 0.6406 -2.0977
vt 0.2656 -2.0977
vt 0.2998 -1.4463
vt 0.9248 -1.4463
vt 0.8096 -2.1113
vt 0.4346 -2.1113
vt 0.3057 -1.4424
vt 0.9307 -1.4414
vt 0.8271 -2.1084
vt 0.4521 -2.1084
vt 0.3252 -1.4365
vt 0.9502 -1.4355
vt 0.8740 -2.1006
vt 0.4990 -2.1006
vt 0.3311 -1.4404
vt 0.9561 -1.4414
vt 0.8916 -2.1035
vt 0.5166 -2.1035
vt 0.2139 -1.4395
vt 0.8389 -1.4395
vt 0.7305 -2.0986
vt 0.3564 -2.0996
vt 0.0557 -0.1982
vt 0.9287 -0.1973
vt 0.1230 -0.2021
vt 1.0000 -0.2041
vt 0.1250 -0.2031
vt 1.0000 -0.2031
vt 0.1250 -0.2012
vt 1.0000 -0.2012
vt 0.1250 -0.2021
vt 1.0000 -0.2021
vt 0.0713 -0.2012
vt 0.9463 -0.2012
vt 0.0527 -0.1992
vt 0.9258 -0.2002
vt 0.1260 -0.2021
vt 1.0010 -0.2021
vt 0.1250 -0.1982
vt 1.0000 -0.1982
vt 0.1250 -0.1953
vt 1.0000 -0.1953
vt 0.1250 -0.1992
vt 1.0000 -0.1992
vt 0.0713 -0.2002
vt 0.9463 -0.1992
vt 0.9980 1.0020
vt 1.0010 0.9990
vt 0.9980 0.9990
vt 1.0000 1.0010
vt 0.9990 1.0010
vt 1.0005 1.0010
vt -0.0005 -0.0010
vn 0.489 0.602 0.631
vn 0.450 0.616 0.647
vn 0.533 0.576 0.619
vn 0.577 0.577 0.577
vn 0.577 0.577 0.577
vn 0.577 0.577 0.577
vn 0.487 0.604 0.630
vn 0.577 0.577 0.577
vn 0.539 0.571 0.619
vn 0.491 0.593 0.638
vn 0.490 0.604 0.628
vn 0.577 0.577 0.577
vn 0.452 0.623 -0.638
vn 0.450 0.617 0.645
vn 0.463 0.593 0.659
vn 0.452 0.615 0.646
vn 0.577 0.577 0.577
vn 0.577 0.577 0.577
vn 0.577 0.577 0.577
vn 0.577 0.577 0.577
vn 0.489 0.602 0.631
vn 0.482 0.620 0.620
vn 0.489 0.602 0.631
vn 0.577 0.577 0.577
vn 0.454 0.614 0.646
vn 0.486 0.605 0.631
vn 0.577 0.577 0.577
vn 0.486 0.605 0.631
vn 0.577 0.577 0.577
vn 0.577 0.577 0.577
vn 0.577 0.577 0.577
vn 0.577 0.577 0.577
vn 0.577 0.577 0.577
vn -0.577 -0.577 -0.577
vn 0.577 0.577 0.577
vn 0.577 0.577 0.577
vn 0.487 0.606 0.629
vn 0.452 0.623 -0.638
vn 0.452 0.615 0.646
vn 0.490 0.604 0.628
vn 0.485 0.609 0.628
vn 0.489 0.605 0.628
vn 0.450 0.617 0.645
vn 0.452 0.623 -0.638
vn 0.577 0.577 0.577
vn 0.487 0.604 0.631
vn 0.489 0.605 0.628
vn 0.485 0.609 0.628
vn 0.577 0.577 0.577
vn 0.577 0.577 0.577
vn 0.577 0.577 0.577
vn 0.577 0.577 0.577
vn 0.577 0.577 0.577
vn 0.577 0.577 0.577
vn 0.577 0.577 0.577
vn 0.577 0.577 0.577
vn 0.577 0.577 0.577
vn 0.577 0.577 0.577
vn 0.577 0.577 0.577
vn 0.577 0.577 0.577
vn 0.577 0.577 0.577
vn 0.577 0.577 0.577
vn 0.577 0.577 0.577
vn 0.577 0.577 0.577
vn 0.577 0.577 0.577
vn 0.577 0.577 0.577
vn 0.577 0.577 0.577
vn 0.577 0.577 0.577
vn 0.577 0.577 0.577
vn 0.533 0.617 0.579
vn 0.577 0.577 0.577
vn 0.577 0.577 0.577
vn 0.577 0.577 0.577
vn 0.577 0.577 0.577
vn 0.577 0.577 0.577
vn 0.577 0.577 0.577
vn 0.577 0.577 0.577
vn 0.533 0.617 0.579
vn 0.489 0.602 0.631
vn 0.577 0.577 0.577
vn 0.479 0.621 0.621
vn 0.616 -0.588 -0.524
vn 0.571 -0.610 -0.549
vn 0.487 0.606 0.629
vn 0.486 0.605 0.631
vn 0.492 -0.639 -0.592
vn 0.616 -0.588 -0.524
vn 0.479 0.621 0.621
vn 0.577 0.577 0.577
vn -0.577 -0.577 -0.577
vn -0.577 -0.577 -0.577
vn 0.577 0.577 0.577
vn 0.577 0.577 0.577
vn 0.577 0.577 0.577
vn 0.577 0.577 0.577
vn 0.577 0.577 0.577
vn 0.646 -0.576 -0.500
vn 0.677 -0.552 -0.487
vn 0.755 -0.506 -0.418
vn 0.633 -0.626 -0.456
vn -0.577 -0.577 -0.577
vn 0.577 0.577 0.577
vn 0.577 0.577 0.577
vn -0.577 -0.577 -0.577
vn 0.448 0.647 -0.617
vn 0.463 0.593 0.659
vn 0.498 0.589 0.637
vn 0.452 0.615 0.646
vn 0.486 0.608 0.627
vn 0.489 0.602 0.631
vn 0.480 0.620 0.620
vn 0.487 0.606 0.629
vn 0.577 0.577 0.577
vn 0.426 0.617 0.661
vn 0.577 0.577 0.577
vn 0.577 0.577 0.577
vn 0.577 0.577 0.577
vn 0.577 0.577 0.577
vn 0.577 0.577 0.577
vn 0.577 0.577 0.577
vn 0.577 0.577 0.577
vn 0.577 0.577 0.577
vn 0.577 0.577 0.577
vn 0.577 0.577 0.577
vn 0.577 0.577 0.577
vn 0.577 0.577 0.577
vn 0.577 0.577 0.577
vn 0.577 0.577 0.577
vn -0.577 -0.577 -0.577
vn -0.577 -0.577 -0.577
vn -0.577 -0.577 -0.577
vn 0.577 0.577 0.577
vn 0.577 0.577 0.577
vn 0.577 0.577 0.577
vn 0.577 0.577 0.577
vn 0.577 0.577 0.577
vn 0.535 0.566 0.627
vn 0.533 0.617 0.579
vn 0.533 0.617 0.579
vn 0.487 0.604 0.631
vn 0.492 -0.639 -0.592
vn 0.492 -0.639 -0.592
vn 0.522 -0.629 -0.576
vn 0.426 0.617 0.661
vn 0.577 0.577 0.577
vn 0.577 0.577 0.577
vn 0.577 0.577 0.577
vn 0.577 0.577 0.577
vn 0.577 0.577 0.577
vn 0.577 0.577 0.577
vn 0.577 0.577 0.577
vn 0.577 0.577 0.577
vn 0.577 0.577 0.577
vn 0.577 0.577 0.577
vn 0.577 0.577 0.577
vn 0.577 0.577 0.577
vn 0.577 0.577 0.577
vn 0.482 0.620 0.620
vn 0.452 0.623 -0.638
vn 0.487 0.606 0.629
vn 0.482 0.620 0.620
vn 0.487 0.606 0.629
vn 0.489 0.602 0.631
vn 0.452 0.623 -0.638
vn 0.456 0.627 -0.632
vn 0.479 0.621 0.621
vn 0.487 0.606 0.629
vn -0.577 -0.577 -0.577
vn 0.577 0.577 0.577
vn 0.577 0.577 0.577
vn 0.577 0.577 0.577
vn 0.560 -0.616 -0.555
vn 0.490 0.604 0.628
vn 0.450 0.617 0.645
vn 0.500 0.618 -0.607
vn 0.577 0.577 0.577
vn -0.577 -0.577 -0.577
vn -0.577 -0.577 -0.577
vn 0.577 0.577 0.577
vn 0.577 0.577 0.577
vn 0.539 0.571 0.619
vn 0.577 0.577 0.577
vn 0.577 0.577 0.577
vn 0.452 0.615 0.646
vn 0.448 0.647 -0.617
vn 0.452 0.615 0.646
vn 0.577 0.577 0.577
vn 0.480 0.620 0.620
vn 0.485 0.609 0.628
vn 0.452 0.623 -0.638
vn 0.487 0.606 0.629
vn 0.489 0.602 0.631
vn 0.577 0.577 0.577
vn 0.577 0.577 0.577
vn 0.480 0.620 0.620
vn 0.577 0.577 0.577
vn 0.577 0.577 0.577
vn 0.577 0.577 0.577
vn 0.577 0.577 0.577
vn 0.577 0.577 0.577
vn 0.577 0.577 0.577
vn 0.577 0.577 0.577
vn 0.577 0.577 0.577
vn 0.498 0.589 0.637
vn 0.463 0.593 0.659
vn 0.452 0.623 -0.638
vn 0.482 0.620 0.620
vn 0.463 0.593 0.659
vn 0.450 0.617 0.645
vn 0.456 0.627 -0.632
vn 0.452 0.623 -0.638
vn 0.487 0.604 0.631
vn 0.577 0.577 0.577
vn 0.577 0.577 0.577
vn 0.486 0.605 0.631
vn 0.577 0.577 0.577
vn 0.577 0.577 0.577
vn 0.577 0.577 0.577
vn 0.577 0.577 0.577
vn 0.577 0.577 0.577
vn 0.577 0.577 0.577
vn 0.577 0.577 0.577
vn -0.577 -0.577 -0.577
vn 0.577 0.577 0.577
vn 0.577 0.577 0.577
vn 0.577 0.577 0.577
vn 0.577 0.577 0.577
vn 0.456 0.627 -0.632
vn 0.454 0.614 0.646
vn 0.486 0.605 0.631
vn 0.479 0.621 0.621
vn 0.577 0.577 0.577
vn 0.489 0.602 0.631
vn 0.577 0.577 0.577
vn 0.577 0.577 0.577
vn 0.533 0.576 0.619
vn 0.450 0.616 0.647
vn 0.462 -0.652 -0.601
vn 0.577 0.577 0.577
vn 0.450 0.616 0.647
vn 0.571 -0.610 -0.549
vn 0.646 -0.576 -0.500
vn 0.462 -0.652 -0.601
vn 0.571 -0.610 -0.549
vn 0.616 -0.588 -0.524
vn 0.677 -0.552 -0.487
vn 0.646 -0.576 -0.500
vn 0.616 -0.588 -0.524
vn 0.492 -0.639 -0.592
vn 0.560 -0.616 -0.555
vn 0.677 -0.552 -0.487
vn 0.492 -0.639 -0.592
vn 0.487 0.604 0.630
vn 0.490 0.604 0.628
vn 0.560 -0.616 -0.555
vn 0.487 0.604 0.630
vn 0.577 0.577 0.577
vn 0.577 0.577 0.577
vn 0.490 0.604 0.628
vn 0.577 0.577 0.577
vn 0.577 0.577 0.577
vn -0.577 -0.577 -0.577
vn 0.577 0.577 0.577
vn 0.577 0.577 0.577
vn -0.577 -0.577 -0.577
vn -0.577 -0.577 -0.577
vn -0.577 -0.577 -0.577
vn -0.577 -0.577 -0.577
vn -0.577 -0.577 -0.577
vn -0.577 -0.577 -0.577
vn -0.577 -0.577 -0.577
vn -0.577 -0.577 -0.577
vn -0.577 -0.577 -0.577
vn -0.577 -0.577 -0.577
vn -0.577 -0.577 -0.577
vn -0.577 -0.577 -0.577
vn 0.577 0.577 0.577
vn 0.577 0.577 0.577
vn -0.577 -0.577 -0.577
vn 0.577 0.577 0.577
vn 0.533 0.576 0.619
vn 0.577 0.577 0.577
vn 0.577 0.577 0.577
vn 0.577 0.577 0.577
vn 0.454 0.614 0.646
vn 0.577 0.577 0.577
vn 0.577 0.577 0.577
vn 0.454 0.614 0.646
vn 0.633 -0.626 -0.456
vn 0.577 0.577 0.577
vn 0.577 0.577 0.577
vn 0.633 -0.626 -0.456
vn 0.755 -0.506 -0.418
vn 0.577 0.577 0.577
vn 0.577 0.577 0.577
vn 0.755 -0.506 -0.418
vn 0.513 -0.631 -0.582
vn 0.577 0.577 0.577
vn 0.577 0.577 0.577
vn 0.513 -0.631 -0.582
vn 0.577 0.577 0.577
vn 0.577 0.577 0.577
vn 0.577 0.577 0.577
vn 0.577 0.577 0.577
vn 0.577 0.577 0.577
vn 0.577 0.577 0.577
vn 0.577 0.577 0.577
vn 0.577 0.577 0.577
vn -0.577 -0.577 -0.577
vn 0.577 0.577 0.577
vn 0.577 0.577 0.577
vn -0.577 -0.577 -0.577
vn -0.577 -0.577 -0.577
vn 0.577 0.577 0.577
vn 0.577 0.577 0.577
vn -0.577 -0.577 -0.577
vn -0.577 -0.577 -0.577
vn 0.577 0.577 0.577
vn 0.577 0.577 0.577
vn -0.577 -0.577 -0.577
vn -0.577 -0.577 -0.577
vn 0.577 0.577 0.577
vn 0.577 0.577 0.577
vn -0.577 -0.577 -0.577
vn 0.577 0.577 0.577
vn 0.577 0.577 0.577
vn 0.577 0.577 0.577
vn 0.577 0.577 0.577
vn 0.577 0.577 0.577
vn 0.577 0.577 0.577
vn 0.577 0.577 0.577
vn 0.577 0.577 0.577
vn 0.498 0.589 0.637
vn 0.533 0.617 0.579
vn 0.577 0.577 0.577
vn 0.490 0.604 0.628
vn 0.452 0.615 0.646
vn 0.577 0.577 0.577
vn 0.577 0.577 0.577
vn 0.577 0.577 0.577
vn 0.577 0.577 0.577
vn 0.577 0.577 0.577
vn 0.577 0.577 0.577
vn 0.533 0.617 0.579
vn 0.498 0.589 0.637
vn 0.482 0.620 0.620
vn 0.489 0.602 0.631
vn 0.450 0.617 0.645
vn 0.489 0.605 0.628
vn 0.454 0.614 0.646
vn 0.456 0.627 -0.632
vn 0.577 0.577 0.577
vn 0.577 0.577 0.577
vn -0.577 -0.577 -0.577
vn 0.577 0.577 0.577
vn 0.577 0.577 0.577
vn 0.577 0.577 0.577
vn 0.577 0.577 0.577
vn 0.577 0.577 0.577
vn 0.577 0.577 0.577
vn -0.577 -0.577 -0.577
vn -0.577 -0.577 -0.577
vn 0.577 0.577 0.577
vn 0.577 0.577 0.577
vn 0.533 0.576 0.619
vn 0.577 0.577 0.577
vn 0.577 0.577 0.577
vn 0.577 0.577 0.577
vn 0.462 -0.652 -0.601
vn 0.454 0.614 0.646
vn 0.577 0.577 0.577
vn 0.462 -0.652 -0.601
vn 0.646 -0.576 -0.500
vn 0.633 -0.626 -0.456
vn 0.454 0.614 0.646
vn 0.677 -0.552 -0.487
vn 0.560 -0.616 -0.555
vn 0.513 -0.631 -0.582
vn 0.755 -0.506 -0.418
vn 0.450 0.617 0.645
vn 0.577 0.577 0.577
vn 0.513 -0.631 -0.582
vn 0.500 0.618 -0.607
vn 0.490 0.604 0.628
vn 0.577 0.577 0.577
vn 0.577 0.577 0.577
vn 0.577 0.577 0.577
vn -0.577 -0.577 -0.577
vn -0.577 -0.577 -0.577
vn -0.577 -0.577 -0.577
vn -0.577 -0.577 -0.577
vn -0.577 -0.577 -0.577
vn -0.577 -0.577 -0.577
vn -0.577 -0.577 -0.577
vn -0.577 -0.577 -0.577
vn -0.577 -0.577 -0.577
vn -0.577 -0.577 -0.577
vn -0.577 -0.577 -0.577
vn -0.577 -0.577 -0.577
vn 0.577 0.577 0.577
vn 0.577 0.577 0.577
vn 0.577 0.577 0.577
vn 0.577 0.577 0.577
vn -0.577 -0.577 -0.577
vn -0.577 -0.577 -0.577
vn 0.577 0.577 0.577
vn 0.577 0.577 0.577
vn 0.577 0.577 0.577
vn 0.577 0.577 0.577
vn 0.577 0.577 0.577
vn 0.577 0.577 0.577
vn 0.577 0.577 0.577
vn 0.577 0.577 0.577
vn 0.577 0.577 0.577
vn 0.577 0.577 0.577
vn 0.577 0.577 0.577
vn 0.577 0.577 0.577
vn 0.577 0.577 0.577
vn 0.577 0.577 0.577
vn 0.577 0.577 0.577
vn 0.487 0.604 0.630
vn 0.492 -0.639 -0.592
vn 0.486 0.605 0.631
vn 0.577 0.577 0.577
vn 0.577 0.577 0.577
vn 0.577 0.577 0.577
vn 0.577 0.577 0.577
vn 0.577 0.577 0.577
vn -0.577 -0.577 -0.577
vn 0.577 0.577 0.577
vn 0.577 0.577 0.577
vn -0.577 -0.577 -0.577
vn -0.577 -0.577 -0.577
vn -0.577 -0.577 -0.577
vn -0.577 -0.577 -0.577
vn 0.577 0.577 0.577
vn 0.577 0.577 0.577
vn 0.487 0.604 0.631
vn 0.577 0.577 0.577
vn 0.577 0.577 0.577
vn 0.577 0.577 0.577
vn 0.577 0.577 0.577
vn 0.577 0.577 0.577
vn 0.577 0.577 0.577
vn 0.577 0.577 0.577
vn 0.577 0.577 0.577
vn 0.577 0.577 0.577
vn 0.489 0.605 0.628
vn 0.487 0.604 0.631
vn 0.486 0.605 0.631
vn 0.454 0.614 0.646
vn 0.487 0.606 0.629
vn 0.571 -0.610 -0.549
vn 0.450 0.616 0.647
vn 0.489 0.602 0.631
vn 0.486 0.605 0.631
vn 0.577 0.577 0.577
vn 0.577 0.577 0.577
vn 0.577 0.577 0.577
vn 0.577 0.577 0.577
vn 0.577 0.577 0.577
vn -0.577 -0.577 -0.577
vn 0.577 0.577 0.577
vn 0.491 0.593 0.638
vn 0.487 0.604 0.631
vn 0.487 0.606 0.629
vn 0.490 0.604 0.628
vn 0.577 0.577 0.577
vn 0.577 0.577 0.577
vn 0.485 0.609 0.628
vn 0.480 0.620 0.620
vn 0.577 0.577 0.577
vn 0.577 0.577 0.577
vn 0.577 0.577 0.577
vn 0.577 0.577 0.577
vn 0.577 0.577 0.577
vn 0.577 0.577 0.577
vn 0.577 0.577 0.577
vn 0.577 0.577 0.577
vn 0.451 0.615 0.646
vn 0.451 0.615 0.646
vn 0.451 0.615 0.646
vn 0.451 0.618 0.644
vn 0.451 0.615 0.646
vn 0.450 0.616 0.647
vn 0.451 0.615 0.646
vn 0.451 0.615 0.646
vn 0.450 0.616 0.647
vn 0.450 0.616 0.647
vn 0.451 0.615 0.646
vn 0.451 0.615 0.646
vn 0.450 0.616 0.647
vn 0.450 0.616 0.647
vn 0.451 0.615 0.646
vn 0.451 0.615 0.646
vn 0.450 0.616 0.647
vn 0.487 0.607 0.628
vn 0.487 0.604 0.631
vn 0.451 0.615 0.646
vn 0.487 0.607 0.628
vn 0.487 0.607 0.628
vn 0.487 0.604 0.631
vn 0.487 0.604 0.631
vn 0.487 0.607 0.628
vn 0.509 -0.621 -0.597
vn 0.530 -0.614 -0.585
vn 0.487 0.604 0.631
vn 0.509 -0.621 -0.597
vn 0.509 -0.621 -0.597
vn 0.518 -0.617 -0.592
vn 0.530 -0.614 -0.585
vn 0.509 -0.621 -0.597
vn 0.488 0.604 0.630
vn 0.530 -0.614 -0.585
vn 0.518 -0.617 -0.592
vn 0.488 0.604 0.630
vn 0.489 0.607 -0.626
vn 0.530 -0.614 -0.585
vn 0.530 -0.614 -0.585
vn 0.489 0.607 -0.626
vn 0.489 0.607 -0.626
vn 0.492 0.613 -0.618
vn 0.547 -0.607 -0.577
vn 0.489 0.607 -0.626
vn 0.451 0.615 0.646
vn 0.451 0.618 0.644
vn 0.492 0.613 -0.618
vn 0.487 0.605 0.630
vn 0.487 0.605 0.630
vn 0.451 0.615 0.646
vn 0.451 0.615 0.646
vn 0.487 0.605 0.630
vn 0.426 0.617 0.662
vn 0.450 0.616 0.647
vn 0.451 0.615 0.646
vn 0.426 0.617 0.662
vn 0.426 0.621 0.658
vn 0.450 0.616 0.647
vn 0.450 0.616 0.647
vn 0.426 0.621 0.658
vn 0.426 0.617 0.662
vn 0.450 0.616 0.647
vn 0.450 0.616 0.647
vn 0.426 0.617 0.662
vn 0.474 0.623 0.623
vn 0.487 0.607 0.628
vn 0.450 0.616 0.647
vn 0.474 0.623 0.623
vn 0.474 0.623 0.623
vn 0.487 0.607 0.628
vn 0.487 0.607 0.628
vn 0.474 0.623 0.623
vn 0.533 0.615 0.582
vn 0.509 -0.621 -0.597
vn 0.487 0.607 0.628
vn 0.533 0.615 0.582
vn 0.533 0.615 0.582
vn 0.509 -0.621 -0.597
vn 0.509 -0.621 -0.597
vn 0.533 0.615 0.582
vn 0.533 0.617 0.579
vn 0.488 0.604 0.630
vn 0.509 -0.621 -0.597
vn 0.533 0.617 0.579
vn 0.533 0.617 0.579
vn 0.489 0.607 -0.626
vn 0.488 0.604 0.630
vn 0.533 0.617 0.579
vn 0.533 0.617 0.579
vn 0.489 0.607 -0.626
vn 0.489 0.607 -0.626
vn 0.533 0.617 0.579
vn 0.487 0.605 0.630
vn 0.451 0.615 0.646
vn 0.489 0.607 -0.626
vn 0.453 0.596 0.663
vn 0.453 0.596 0.663
vn 0.487 0.605 0.630
vn 0.487 0.605 0.630
vn 0.453 0.596 0.663
vn 0.423 0.623 0.658
vn 0.426 0.617 0.662
vn 0.487 0.605 0.630
vn 0.423 0.623 0.658
vn 0.423 0.623 0.658
vn 0.426 0.621 0.658
vn 0.426 0.617 0.662
vn 0.423 0.623 0.658
vn 0.423 0.623 0.658
vn 0.426 0.617 0.662
vn 0.426 0.621 0.658
vn 0.423 0.623 0.658
vn 0.498 0.587 0.638
vn 0.474 0.623 0.623
vn 0.426 0.617 0.662
vn 0.498 0.587 0.638
vn 0.498 0.587 0.638
vn 0.474 0.623 0.623
vn 0.474 0.623 0.623
vn 0.498 0.587 0.638
vn 0.577 0.577 0.577
vn 0.533 0.615 0.582
vn 0.474 0.623 0.623
vn 0.577 0.577 0.577
vn 0.577 0.577 0.577
vn 0.533 0.615 0.582
vn 0.533 0.615 0.582
vn 0.577 0.577 0.577
vn 0.577 0.577 0.577
vn 0.533 0.617 0.579
vn 0.533 0.615 0.582
vn 0.577 0.577 0.577
vn 0.534 0.570 0.624
vn 0.533 0.617 0.579
vn 0.533 0.617 0.579
vn 0.534 0.570 0.624
vn 0.534 0.570 0.624
vn 0.533 0.617 0.579
vn 0.533 0.617 0.579
vn 0.534 0.570 0.624
vn 0.453 0.596 0.663
vn 0.487 0.605 0.630
vn 0.533 0.617 0.579
vn 0.451 0.615 0.646
vn 0.451 0.615 0.646
vn 0.451 0.618 0.644
vn 0.451 0.618 0.644
vn 0.451 0.615 0.646
vn 0.472 -0.649 -0.597
vn 0.495 -0.632 -0.596
vn 0.451 0.618 0.644
vn 0.472 -0.649 -0.597
vn 0.478 -0.639 -0.603
vn 0.472 -0.649 -0.597
vn 0.495 -0.632 -0.596
vn 0.478 -0.639 -0.603
vn 0.478 -0.639 -0.603
vn 0.472 -0.649 -0.597
vn 0.472 -0.649 -0.597
vn 0.478 -0.639 -0.603
vn 0.462 0.601 -0.652
vn 0.488 0.607 0.627
vn 0.472 -0.649 -0.597
vn 0.462 0.601 -0.652
vn 0.481 0.620 0.620
vn 0.488 0.607 0.627
vn 0.488 0.607 0.627
vn 0.481 0.620 0.620
vn 0.492 0.613 -0.618
vn 0.497 0.619 -0.609
vn 0.488 0.607 0.627
vn 0.492 0.613 -0.618
vn 0.489 0.607 -0.626
vn 0.497 0.619 -0.609
vn 0.497 0.619 -0.609
vn 0.489 0.607 -0.626
vn 0.488 0.603 0.631
vn 0.497 0.619 -0.609
vn 0.497 0.619 -0.609
vn 0.488 0.603 0.631
vn 0.487 0.604 0.631
vn 0.497 0.619 -0.609
vn 0.497 0.619 -0.609
vn 0.487 0.604 0.631
vn 0.487 0.604 0.631
vn 0.494 0.591 0.638
vn 0.497 0.619 -0.609
vn 0.487 0.604 0.631
vn 0.451 0.615 0.646
vn 0.451 0.618 0.644
vn 0.494 0.591 0.638
vn 0.449 0.615 0.648
vn 0.449 0.615 0.648
vn 0.451 0.615 0.646
vn 0.451 0.615 0.646
vn 0.449 0.615 0.648
vn 0.430 0.616 0.660
vn 0.472 -0.649 -0.597
vn 0.451 0.615 0.646
vn 0.430 0.616 0.660
vn 0.424 0.621 0.659
vn 0.478 -0.639 -0.603
vn 0.472 -0.649 -0.597
vn 0.424 0.621 0.659
vn 0.430 0.616 0.660
vn 0.478 -0.639 -0.603
vn 0.478 -0.639 -0.603
vn 0.430 0.616 0.660
vn 0.482 0.611 0.628
vn 0.462 0.601 -0.652
vn 0.478 -0.639 -0.603
vn 0.482 0.611 0.628
vn 0.482 0.611 0.628
vn 0.481 0.620 0.620
vn 0.462 0.601 -0.652
vn 0.482 0.611 0.628
vn 0.538 0.618 0.573
vn 0.492 0.613 -0.618
vn 0.481 0.620 0.620
vn 0.538 0.618 0.573
vn 0.538 0.618 0.573
vn 0.489 0.607 -0.626
vn 0.492 0.613 -0.618
vn 0.538 0.618 0.573
vn 0.577 0.577 0.577
vn 0.488 0.603 0.631
vn 0.489 0.607 -0.626
vn 0.577 0.577 0.577
vn 0.533 0.576 0.619
vn 0.487 0.604 0.631
vn 0.488 0.603 0.631
vn 0.533 0.576 0.619
vn 0.533 0.576 0.619
vn 0.487 0.604 0.631
vn 0.487 0.604 0.631
vn 0.533 0.576 0.619
vn 0.449 0.615 0.648
vn 0.451 0.615 0.646
vn 0.487 0.604 0.631
vn 0.496 0.597 0.631
vn 0.429 0.623 0.654
vn 0.449 0.615 0.648
vn 0.449 0.615 0.648
vn 0.429 0.623 0.654
vn 0.429 0.623 0.654
vn 0.430 0.616 0.660
vn 0.449 0.615 0.648
vn 0.429 0.623 0.654
vn 0.429 0.623 0.654
vn 0.424 0.621 0.659
vn 0.430 0.616 0.660
vn 0.429 0.623 0.654
vn 0.429 0.623 0.654
vn 0.430 0.616 0.660
vn 0.424 0.621 0.659
vn 0.429 0.623 0.654
vn 0.482 0.608 0.631
vn 0.482 0.611 0.628
vn 0.430 0.616 0.660
vn 0.482 0.608 0.631
vn 0.482 0.608 0.631
vn 0.482 0.611 0.628
vn 0.482 0.611 0.628
vn 0.482 0.608 0.631
vn 0.577 0.577 0.577
vn 0.538 0.618 0.573
vn 0.482 0.611 0.628
vn 0.577 0.577 0.577
vn 0.577 0.577 0.577
vn 0.538 0.618 0.573
vn 0.538 0.618 0.573
vn 0.577 0.577 0.577
vn 0.577 0.577 0.577
vn 0.577 0.577 0.577
vn 0.538 0.618 0.573
vn 0.577 0.577 0.577
vn 0.577 0.577 0.577
vn 0.533 0.576 0.619
vn 0.577 0.577 0.577
vn 0.577 0.577 0.577
vn 0.496 0.597 0.631
vn 0.533 0.576 0.619
vn 0.533 0.576 0.619
vn 0.496 0.597 0.631
vn 0.496 0.597 0.631
vn 0.449 0.615 0.648
vn 0.533 0.576 0.619
vn 0.465 0.573 -0.675
vn 0.465 0.573 -0.675
vn 0.462 0.593 0.659
vn 0.462 0.593 0.659
vn 0.465 0.573 -0.675
vn 0.452 0.623 -0.638
vn 0.456 0.627 -0.632
vn 0.462 0.593 0.659
vn 0.452 0.623 -0.638
vn 0.452 0.623 -0.638
vn 0.456 0.627 -0.632
vn 0.456 0.627 -0.632
vn 0.452 0.623 -0.638
vn 0.452 0.623 -0.638
vn 0.456 0.627 -0.632
vn 0.456 0.627 -0.632
vn 0.452 0.623 -0.638
vn 0.456 0.627 -0.632
vn 0.460 0.635 -0.620
vn 0.456 0.627 -0.632
vn 0.456 0.627 -0.632
vn 0.456 0.627 -0.632
vn 0.460 0.635 -0.620
vn 0.460 0.635 -0.620
vn 0.456 0.627 -0.632
vn 0.530 -0.614 -0.585
vn 0.538 -0.608 -0.583
vn 0.460 0.635 -0.620
vn 0.530 -0.614 -0.585
vn 0.530 -0.614 -0.585
vn 0.530 -0.614 -0.585
vn 0.538 -0.608 -0.583
vn 0.530 -0.614 -0.585
vn 0.493 0.589 0.640
vn 0.530 -0.614 -0.585
vn 0.530 -0.614 -0.585
vn 0.493 0.589 0.640
vn 0.480 0.620 0.620
vn 0.538 -0.608 -0.583
vn 0.530 -0.614 -0.585
vn 0.480 0.620 0.620
vn 0.480 0.620 0.620
vn 0.487 0.607 0.628
vn 0.492 0.613 -0.618
vn 0.480 0.620 0.620
vn 0.465 0.573 -0.675
vn 0.462 0.593 0.659
vn 0.487 0.607 0.628
vn 0.429 0.623 0.654
vn 0.429 0.623 0.654
vn 0.465 0.573 -0.675
vn 0.465 0.573 -0.675
vn 0.429 0.623 0.654
vn 0.426 0.618 0.660
vn 0.452 0.623 -0.638
vn 0.465 0.573 -0.675
vn 0.426 0.618 0.660
vn 0.426 0.618 0.660
vn 0.452 0.623 -0.638
vn 0.452 0.623 -0.638
vn 0.426 0.618 0.660
vn 0.426 0.618 0.660
vn 0.452 0.623 -0.638
vn 0.452 0.623 -0.638
vn 0.426 0.618 0.660
vn 0.486 0.602 0.633
vn 0.456 0.627 -0.632
vn 0.452 0.623 -0.638
vn 0.486 0.602 0.633
vn 0.486 0.602 0.633
vn 0.456 0.627 -0.632
vn 0.456 0.627 -0.632
vn 0.486 0.602 0.633
vn 0.533 0.617 0.579
vn 0.530 -0.614 -0.585
vn 0.456 0.627 -0.632
vn 0.533 0.617 0.579
vn 0.533 0.617 0.579
vn 0.530 -0.614 -0.585
vn 0.530 -0.614 -0.585
vn 0.533 0.617 0.579
vn 0.533 0.615 0.582
vn 0.493 0.589 0.640
vn 0.530 -0.614 -0.585
vn 0.533 0.615 0.582
vn 0.483 0.619 0.619
vn 0.480 0.620 0.620
vn 0.493 0.589 0.640
vn 0.483 0.619 0.619
vn 0.483 0.619 0.619
vn 0.480 0.620 0.620
vn 0.480 0.620 0.620
vn 0.483 0.619 0.619
vn 0.429 0.623 0.654
vn 0.465 0.573 -0.675
vn 0.480 0.620 0.620
vn 0.449 0.594 0.667
vn 0.449 0.594 0.667
vn 0.429 0.623 0.654
vn 0.429 0.623 0.654
vn 0.449 0.594 0.667
vn 0.426 0.612 0.666
vn 0.426 0.618 0.660
vn 0.429 0.623 0.654
vn 0.426 0.612 0.666
vn 0.426 0.612 0.666
vn 0.426 0.618 0.660
vn 0.426 0.618 0.660
vn 0.426 0.612 0.666
vn 0.426 0.612 0.666
vn 0.426 0.618 0.660
vn 0.426 0.618 0.660
vn 0.426 0.612 0.666
vn 0.489 0.607 0.626
vn 0.486 0.602 0.633
vn 0.426 0.618 0.660
vn 0.489 0.607 0.626
vn 0.489 0.607 0.626
vn 0.486 0.602 0.633
vn 0.486 0.602 0.633
vn 0.489 0.607 0.626
vn 0.535 0.612 0.583
vn 0.533 0.617 0.579
vn 0.486 0.602 0.633
vn 0.535 0.612 0.583
vn 0.577 0.577 0.577
vn 0.533 0.617 0.579
vn 0.533 0.617 0.579
vn 0.577 0.577 0.577
vn 0.577 0.577 0.577
vn 0.533 0.615 0.582
vn 0.533 0.617 0.579
vn 0.577 0.577 0.577
vn 0.577 0.577 0.577
vn 0.483 0.619 0.619
vn 0.533 0.615 0.582
vn 0.577 0.577 0.577
vn 0.577 0.577 0.577
vn 0.483 0.619 0.619
vn 0.483 0.619 0.619
vn 0.577 0.577 0.577
vn 0.449 0.594 0.667
vn 0.429 0.623 0.654
vn 0.483 0.619 0.619
vn 0.707 0.707 0.000
vn 0.707 0.707 0.000
vn 0.707 0.707 0.000
vn 0.707 0.707 0.000
vn 0.707 0.707 0.000
vn 0.707 0.707 0.000
vn 0.707 0.707 0.000
vn 0.707 0.707 0.000
vn 0.707 0.707 0.000
vn 0.707 0.707 0.000
vn 0.707 0.707 0.000
vn 0.707 0.707 0.000
vn 0.707 0.707 0.000
vn 0.701 0.701 0.126
vn 0.701 0.701 0.126
vn 0.701 0.701 0.126
vn 0.701 0.701 0.126
vn 0.701 0.701 0.126
vn 0.701 0.701 0.126
vn 0.701 0.701 0.126
vn 0.701 0.701 0.126
vn 0.701 0.701 0.126
vn 0.701 0.701 0.126
vn 1.000 0.000 0.000
vn 1.000 0.000 0.000
vn 1.000 0.000 0.000
vn 1.000 0.000 0.000
vn 1.000 0.000 0.000
vn 1.000 0.000 0.000
vn 1.000 0.000 0.000
vn 1.000 0.000 0.000
vn 1.000 0.000 0.000
vn 1.000 0.000 0.000
vn 1.000 0.000 0.000
vn 1.000 0.000 0.000
vn -1.000 0.000 0.000
vn -1.000 0.000 0.000
vn -1.000 0.000 0.000
vn -1.000 0.000 0.000
vn 1.000 0.000 0.000
vn 1.000 0.000 0.000
vn 1.000 0.000 0.000
vn 1.000 0.000 0.000
vn 1.000 0.000 0.000
vn 1.000 0.000 0.000
vn 1.000 0.000 0.000
vn 1.000 0.000 0.000
vn 1.000 0.000 0.000
vn 1.000 0.000 0.000
vn 1.000 0.000 0.000
vn 1.000 0.000 0.000
vn 1.000 0.000 0.000
vn 1.000 0.000 0.000
vn 1.000 0.000 0.000
vn 1.000 0.000 0.000
usemtl tex_796_lit
f 1/1/1 2/2/2 3/3/3
f 1/1/1 3/3/3 4/4/4
f 5/1/5 6/5/6 7/6/7
f 5/1/5 7/6/7 8/4/8
f 9/4/9 10/1/10 11/7/11
f 9/4/9 11/7/11 12/8/12
f 13/1/13 14/9/14 15/10/15
f 13/1/13 15/10/15 16/4/16
f 17/4/17 18/1/18 19/11/19
f 17/4/17 19/11/19 20/12/20
usemtl tex_797_lit_ovl
f 21/4/21 22/13/22 23/14/23
f 21/4/21 23/14/23 24/15/24
usemtl tex_797_lit
f 25/4/25 26/1/26 27/16/27
f 25/4/25 27/16/27 28/17/28
f 29/4/29 30/1/30 31/16/31
f 29/4/29 31/16/31 32/17/32
f 33/4/33 34/1/34 35/16/35
f 33/4/33 35/16/35 36/17/36
usemtl tex_797_lit_ovl
f 37/1/37 38/18/38 39/19/39
f 37/1/37 39/19/39 40/4/40
usemtl tex_797_lit
f 41/1/41 42/20/42 43/21/43
f 41/1/41 43/21/43 44/4/44
f 45/1/45 46/22/46 47/23/47
f 45/1/45 47/23/47 48/4/48
f 49/1/49 50/16/50 51/17/51
f 49/1/49 51/17/51 52/4/52
f 53/1/53 54/24/54 55/25/55
f 53/1/53 55/25/55 56/4/56
usemtl tex_797_lit_ovl
f 57/1/57 58/7/58 59/8/59
f 57/1/57 59/8/59 60/4/60
usemtl tex_797_lit
f 61/1/61 62/7/62 63/8/63
f 61/1/61 63/8/63 64/4/64
f 65/1/65 66/24/66 67/25/67
f 65/1/65 67/25/67 68/4/68
f 69/1/69 70/26/70 71/27/71
f 69/1/69 71/27/71 72/4/72
usemtl tex_798_lit
f 73/4/73 74/1/74 75/28/75
f 73/4/73 75/28/75 76/29/76
f 77/4/77 78/1/78 79/30/79
f 77/4/77 79/30/79 80/31/80
f 81/1/81 82/32/82 83/33/83
f 81/1/81 83/33/83 84/4/84
f 85/1/85 86/34/86 87/35/87
f 85/1/85 87/35/87 88/4/88
usemtl tex_798_lit_ovl
f 89/1/89 90/36/90 91/37/91
f 89/1/89 91/37/91 92/4/92
usemtl tex_798_lit
f 93/4/93 94/1/94 95/38/95
f 93/4/93 95/38/95 96/39/96
f 97/4/97 98/1/98 99/40/99
f 97/4/97 99/40/99 100/41/100
f 101/4/101 102/1/102 103/42/103
f 101/4/101 103/42/103 104/43/104
usemtl tex_798_lit_ovl
f 105/1/105 106/44/106 107/45/107
f 105/1/105 107/45/107 108/4/108
f 109/46/109 110/47/110 111/48/111
f 109/46/109 111/48/111 112/49/112
f 113/46/113 114/50/114 115/51/115
f 113/46/113 115/51/115 116/52/116
f 117/4/117 118/1/118 119/53/119
f 117/4/117 119/53/119 120/54/120
usemtl tex_798_lit
f 121/1/121 122/55/122 123/56/123
f 121/1/121 123/56/123 124/4/124
usemtl tex_798_lit_ovl
f 125/4/125 126/1/126 127/57/127
f 125/4/125 127/57/127 128/58/128
usemtl tex_798_lit_ds
f 129/4/129 130/59/130 131/60/131
f 129/4/129 131/60/131 132/1/132
f 133/4/133 134/59/134 135/60/135
f 133/4/133 135/60/135 136/1/136
f 137/4/137 138/59/138 139/60/139
f 137/4/137 139/60/139 140/1/140
f 141/4/141 142/59/142 143/60/143
f 141/4/141 143/60/143 144/1/144
usemtl tex_199_lit
f 145/61/145 146/62/146 147/63/147
f 145/61/145 148/64/148 146/62/146
f 145/61/145 149/65/149 148/64/148
f 145/61/145 150/66/150 149/65/149
f 145/61/145 151/67/151 150/66/150
f 145/61/145 152/68/152 151/67/151
f 145/61/145 153/69/153 152/68/152
f 145/61/145 154/70/154 153/69/153
f 145/61/145 155/71/155 154/70/154
f 145/61/145 156/72/156 155/71/155
f 145/61/145 157/73/157 156/72/156
f 145/61/145 147/63/147 157/73/157
usemtl tex_801_lit
f 158/74/158 159/75/159 160/76/160
f 161/74/161 162/76/162 163/77/163
usemtl tex_801_lit_ovl
f 164/78/164 165/79/165 166/80/166
f 164/78/164 166/80/166 167/81/167
usemtl tex_801_lit
f 168/82/168 169/83/169 170/84/170
f 168/82/168 170/84/170 171/85/171
f 172/86/172 173/1/173 174/87/174
f 172/86/172 174/87/174 175/88/175
f 176/89/176 177/1/177 178/90/178
f 176/89/176 178/90/178 179/91/179
f 180/92/180 181/93/181 182/94/182
f 180/92/180 182/94/182 183/95/183
usemtl tex_801_lit_ovl
f 184/1/184 185/96/185 186/97/186
f 184/1/184 186/97/186 187/4/187
f 188/1/188 189/98/189 190/99/190
f 188/1/188 190/99/190 191/4/191
f 192/4/192 193/1/193 194/16/194
f 192/4/192 194/16/194 195/17/195
f 196/100/196 197/101/197 198/102/198
f 196/100/196 198/102/198 199/103/199
f 200/104/200 201/105/201 202/84/202
f 200/104/200 202/84/202 203/106/203
usemtl tex_800_lit
f 204/4/204 205/1/205 206/7/206
f 204/4/204 206/7/206 207/107/207
f 208/4/208 209/1/209 210/108/210
f 208/4/208 210/108/210 211/109/211
f 212/110/212 213/1/213 214/111/214
f 212/110/212 214/111/214 215/112/215
f 216/4/216 217/1/217 218/113/218
f 216/4/216 218/113/218 219/114/219
f 220/4/220 221/1/221 222/115/222
f 220/4/220 222/115/222 223/116/223
f 224/4/224 225/1/225 226/117/226
f 224/4/224 226/117/226 227/118/227
usemtl tex_800_lit_ovl
f 228/4/228 229/1/229 230/7/230
f 228/4/228 230/7/230 231/8/231
usemtl tex_800_lit
f 232/4/232 233/1/233 234/7/234
f 232/4/232 234/7/234 235/8/235
f 236/4/236 237/1/237 238/60/238
f 236/4/236 238/60/238 239/119/239
f 240/4/240 241/1/241 242/60/242
f 240/4/240 242/60/242 243/119/243
f 244/4/244 245/1/245 246/60/246
f 244/4/244 246/60/246 247/119/247
f 248/4/248 249/1/249 250/60/250
f 248/4/248 250/60/250 251/119/251
f 252/4/252 253/1/253 254/60/254
f 252/4/252 254/60/254 255/120/255
f 256/4/256 257/1/257 258/60/258
f 256/4/256 258/60/258 259/120/259
f 260/4/260 261/1/261 262/60/262
f 260/4/260 262/60/262 263/119/263
f 264/121/264 265/122/265 266/60/266
f 264/121/264 266/60/266 267/119/267
f 268/4/268 269/1/269 270/60/270
f 268/4/268 270/60/270 271/119/271
f 272/4/272 273/1/273 274/60/274
f 272/4/272 274/60/274 275/119/275
f 276/4/276 277/1/277 278/60/278
f 276/4/276 278/60/278 279/119/279
f 280/4/280 281/1/281 282/60/282
f 280/4/280 282/60/282 283/120/283
f 284/4/284 285/1/285 286/123/286
f 284/4/284 286/123/286 287/124/287
f 288/4/288 289/1/289 290/125/290
f 288/4/288 290/125/290 291/126/291
f 292/4/292 293/1/293 294/127/294
f 292/4/292 294/127/294 295/128/295
f 296/4/296 297/1/297 298/129/298
f 296/4/296 298/129/298 299/130/299
f 300/4/300 301/1/301 302/131/302
f 300/4/300 302/131/302 303/132/303
f 304/4/304 305/13/305 306/133/306
f 304/4/304 306/133/306 307/134/307
f 308/4/308 309/1/309 310/135/310
f 308/4/308 310/135/310 311/136/311
f 312/4/312 313/1/313 314/137/314
f 312/4/312 314/137/314 315/138/315
f 316/4/316 317/1/317 318/139/318
f 316/4/316 318/139/318 319/140/319
f 320/4/320 321/1/321 322/141/322
f 320/4/320 322/141/322 323/142/323
f 324/4/324 325/1/325 326/143/326
f 324/4/324 326/143/326 327/144/327
f 328/4/328 329/13/329 330/145/330
f 328/4/328 330/145/330 331/146/331
usemtl tex_800_lit_ovl
f 332/1/332 333/147/333 334/148/334
f 332/1/332 334/148/334 335/4/335
f 336/1/336 337/7/337 338/8/338
f 336/1/336 338/8/338 339/4/339
f 340/1/340 341/7/341 342/8/342
f 340/1/340 342/8/342 343/4/343
usemtl tex_799_lit
f 344/4/344 345/1/345 346/149/346
f 344/4/344 346/149/346 347/150/347
f 348/4/348 349/1/349 350/151/350
f 348/4/348 350/151/350 351/152/351
f 352/4/352 353/1/353 354/153/354
f 352/4/352 354/153/354 355/154/355
f 356/1/356 357/155/357 358/156/358
f 356/1/356 358/156/358 359/4/359
usemtl tex_799_lit_ovl
f 360/1/360 361/155/361 362/156/362
f 360/1/360 362/156/362 363/4/363
f 364/1/364 365/155/365 366/156/366
f 364/1/364 366/156/366 367/4/367
usemtl tex_799_lit
f 368/4/368 369/1/369 370/157/370
f 368/4/368 370/157/370 371/158/371
f 372/4/372 373/13/373 374/159/374
f 372/4/372 374/159/374 375/160/375
f 376/4/376 377/1/377 378/161/378
f 376/4/376 378/161/378 379/162/379
usemtl tex_799_lit_ovl
f 380/163/380 381/164/381 382/165/382
f 380/163/380 382/165/382 383/166/383
usemtl tex_799_lit
f 384/4/384 385/1/385 386/167/386
f 384/4/384 386/167/386 387/168/387
f 388/4/388 389/1/389 390/169/390
f 388/4/388 390/169/390 391/170/391
f 392/4/392 393/1/393 394/161/394
f 392/4/392 394/161/394 395/162/395
f 396/171/396 397/161/397 398/162/398
f 396/171/396 398/162/398 399/172/399
f 400/4/400 401/13/401 402/159/402
f 400/4/400 402/159/402 403/173/403
usemtl tex_799_lit_ovl
f 404/1/404 405/171/405 406/172/406
f 404/1/404 406/172/406 407/4/407
f 408/1/408 409/174/409 410/175/410
f 408/1/408 410/175/410 411/4/411
f 412/1/412 413/176/413 414/177/414
f 412/1/412 414/177/414 415/4/415
f 416/1/416 417/178/417 418/179/418
f 416/1/416 418/179/418 419/4/419
usemtl tex_803_lit_ovl
f 420/180/420 421/181/421 422/182/422
f 420/180/420 422/182/422 423/183/423
f 424/184/424 425/185/425 426/186/426
f 424/184/424 426/186/426 427/187/427
f 428/188/428 429/189/429 430/190/430
f 428/188/428 430/190/430 431/191/431
f 432/192/432 433/1/433 434/193/434
f 432/192/432 434/193/434 435/194/435
f 436/1/436 437/195/437 438/196/438
f 436/1/436 438/196/438 439/4/439
f 440/197/440 441/198/441 442/199/442
f 440/197/440 442/199/442 443/200/443
f 444/201/444 445/202/445 446/203/446
f 444/201/444 446/203/446 447/204/447
usemtl tex_802_lit
f 448/205/448 449/1/449 450/206/450
f 448/205/448 450/206/450 451/207/451
usemtl tex_802_lit_ovl
f 452/1/452 453/208/453 454/209/454
f 452/1/452 454/209/454 455/210/455
f 456/211/456 457/1/457 458/212/458
f 456/211/456 458/212/458 459/213/459
f 460/214/460 461/215/461 462/216/462
f 460/214/460 462/216/462 463/217/463
f 464/218/464 465/219/465 466/220/466
f 464/218/464 466/220/466 467/221/467
f 468/1/468 469/60/469 470/222/470
f 468/1/468 470/222/470 471/4/471
f 472/1/472 473/223/473 474/224/474
f 472/1/472 474/224/474 475/4/475
f 476/1/476 477/225/477 478/226/478
f 476/1/476 478/226/478 479/4/479
usemtl tex_804_lit_ds
f 480/227/480 481/228/481 482/229/482
f 480/227/480 482/229/482 483/230/483
f 484/231/484 485/232/485 486/233/486
f 484/231/484 486/233/486 487/234/487
f 488/235/488 489/236/489 490/237/490
f 488/235/488 490/237/490 491/238/491
f 492/239/492 493/240/493 494/241/494
f 492/239/492 494/241/494 495/242/495
f 496/243/496 497/244/497 498/245/498
f 496/243/496 498/245/498 499/246/499
f 500/247/500 501/248/501 502/249/502
f 500/247/500 502/249/502 503/250/503
f 504/251/504 505/252/505 506/253/506
f 504/251/504 506/253/506 507/254/507
f 508/255/508 509/256/509 510/257/510
f 508/255/508 510/257/510 511/258/511
f 512/259/512 513/260/513 514/261/514
f 512/259/512 514/261/514 515/262/515
f 516/263/516 517/264/517 518/265/518
f 516/263/516 518/265/518 519/266/519
f 520/267/520 521/268/521 522/269/522
f 520/267/520 522/269/522 523/270/523
f 524/271/524 525/272/525 526/273/526
f 524/271/524 526/273/526 527/274/527
f 528/275/528 529/276/529 530/228/530
f 528/275/528 530/228/530 531/227/531
f 532/277/532 533/278/533 534/232/534
f 532/277/532 534/232/534 535/231/535
f 536/279/536 537/280/537 538/236/538
f 536/279/536 538/236/538 539/235/539
f 540/281/540 541/282/541 542/240/542
f 540/281/540 542/240/542 543/239/543
f 544/283/544 545/284/545 546/244/546
f 544/283/544 546/244/546 547/243/547
f 548/285/548 549/286/549 550/248/550
f 548/285/548 550/248/550 551/247/551
f 552/287/552 553/288/553 554/252/554
f 552/287/552 554/252/554 555/251/555
f 556/289/556 557/290/557 558/256/558
f 556/289/556 558/256/558 559/255/559
f 560/291/560 561/292/561 562/260/562
f 560/291/560 562/260/562 563/259/563
f 564/293/564 565/294/565 566/264/566
f 564/293/564 566/264/566 567/263/567
f 568/295/568 569/296/569 570/268/570
f 568/295/568 570/268/570 571/267/571
f 572/297/572 573/298/573 574/272/574
f 572/297/572 574/272/574 575/271/575
f 576/4/576 577/299/577 578/276/578
f 576/4/576 578/276/578 579/275/579
f 580/4/580 581/300/581 582/278/582
f 580/4/580 582/278/582 583/277/583
f 584/4/584 585/1/585 586/280/586
f 584/4/584 586/280/586 587/279/587
f 588/4/588 589/1/589 590/282/590
f 588/4/588 590/282/590 591/281/591
f 592/4/592 593/1/593 594/284/594
f 592/4/592 594/284/594 595/283/595
f 596/4/596 597/1/597 598/286/598
f 596/4/596 598/286/598 599/285/599
f 600/4/600 601/301/601 602/288/602
f 600/4/600 602/288/602 603/287/603
f 604/4/604 605/1/605 606/290/606
f 604/4/604 606/290/606 607/289/607
f 608/4/608 609/302/609 610/292/610
f 608/4/608 610/292/610 611/291/611
f 612/4/612 613/302/613 614/294/614
f 612/4/612 614/294/614 615/293/615
f 616/4/616 617/1/617 618/296/618
f 616/4/616 618/296/618 619/295/619
f 620/4/620 621/303/621 622/298/622
f 620/4/620 622/298/622 623/297/623
f 624/227/624 625/228/625 626/229/626
f 624/227/624 626/229/626 627/230/627
f 628/231/628 629/232/629 630/233/630
f 628/231/628 630/233/630 631/234/631
f 632/235/632 633/236/633 634/237/634
f 632/235/632 634/237/634 635/238/635
f 636/239/636 637/240/637 638/241/638
f 636/239/636 638/241/638 639/242/639
f 640/243/640 641/244/641 642/245/642
f 640/243/640 642/245/642 643/246/643
f 644/247/644 645/248/645 646/249/646
f 644/247/644 646/249/646 647/250/647
f 648/251/648 649/252/649 650/253/650
f 648/251/648 650/253/650 651/254/651
f 652/255/652 653/256/653 654/257/654
f 652/255/652 654/257/654 655/258/655
f 656/259/656 657/260/657 658/261/658
f 656/259/656 658/261/658 659/262/659
f 660/263/660 661/264/661 662/265/662
f 660/263/660 662/265/662 663/266/663
f 664/267/664 665/268/665 666/269/666
f 664/267/664 666/269/666 667/270/667
f 668/271/668 669/272/669 670/273/670
f 668/271/668 670/273/670 671/274/671
f 672/275/672 673/276/673 674/228/674
f 672/275/672 674/228/674 675/227/675
f 676/277/676 677/278/677 678/232/678
f 676/277/676 678/232/678 679/231/679
f 680/279/680 681/280/681 682/236/682
f 680/279/680 682/236/682 683/235/683
f 684/281/684 685/282/685 686/240/686
f 684/281/684 686/240/686 687/239/687
f 688/283/688 689/284/689 690/244/690
f 688/283/688 690/244/690 691/243/691
f 692/285/692 693/286/693 694/248/694
f 692/285/692 694/248/694 695/247/695
f 696/287/696 697/288/697 698/252/698
f 696/287/696 698/252/698 699/251/699
f 700/289/700 701/290/701 702/256/702
f 700/289/700 702/256/702 703/255/703
f 704/291/704 705/292/705 706/260/706
f 704/291/704 706/260/706 707/259/707
f 708/293/708 709/294/709 710/264/710
f 708/293/708 710/264/710 711/263/711
f 712/295/712 713/296/713 714/268/714
f 712/295/712 714/268/714 715/267/715
f 716/297/716 717/298/717 718/272/718
f 716/297/716 718/272/718 719/271/719
f 720/4/720 721/299/721 722/276/722
f 720/4/720 722/276/722 723/275/723
f 724/4/724 725/300/725 726/278/726
f 724/4/724 726/278/726 727/277/727
f 728/4/728 729/1/729 730/280/730
f 728/4/728 730/280/730 731/279/731
f 732/4/732 733/1/733 734/282/734
f 732/4/732 734/282/734 735/281/735
f 736/4/736 737/1/737 738/284/738
f 736/4/736 738/284/738 739/283/739
f 740/4/740 741/1/741 742/286/742
f 740/4/740 742/286/742 743/285/743
f 744/4/744 745/301/745 746/288/746
f 744/4/744 746/288/746 747/287/747
f 748/4/748 749/1/749 750/290/750
f 748/4/748 750/290/750 751/289/751
f 752/4/752 753/302/753 754/292/754
f 752/4/752 754/292/754 755/291/755
f 756/4/756 757/302/757 758/294/758
f 756/4/756 758/294/758 759/293/759
f 760/4/760 761/1/761 762/296/762
f 760/4/760 762/296/762 763/295/763
f 764/4/764 765/303/765 766/298/766
f 764/4/764 766/298/766 767/297/767
f 768/227/768 769/228/769 770/229/770
f 768/227/768 770/229/770 771/230/771
f 772/231/772 773/232/773 774/233/774
f 772/231/772 774/233/774 775/234/775
f 776/235/776 777/236/777 778/237/778
f 776/235/776 778/237/778 779/238/779
f 780/239/780 781/240/781 782/241/782
f 780/239/780 782/241/782 783/242/783
f 784/243/784 785/244/785 786/245/786
f 784/243/784 786/245/786 787/246/787
f 788/247/788 789/248/789 790/249/790
f 788/247/788 790/249/790 791/250/791
f 792/251/792 793/252/793 794/253/794
f 792/251/792 794/253/794 795/254/795
f 796/255/796 797/256/797 798/257/798
f 796/255/796 798/257/798 799/258/799
f 800/259/800 801/260/801 802/261/802
f 800/259/800 802/261/802 803/262/803
f 804/263/804 805/264/805 806/265/806
f 804/263/804 806/265/806 807/266/807
f 808/267/808 809/268/809 810/269/810
f 808/267/808 810/269/810 811/270/811
f 812/271/812 813/272/813 814/273/814
f 812/271/812 814/273/814 815/274/815
f 816/275/816 817/276/817 818/228/818
f 816/275/816 818/228/818 819/227/819
f 820/277/820 821/278/821 822/232/822
f 820/277/820 822/232/822 823/231/823
f 824/279/824 825/280/825 826/236/826
f 824/279/824 826/236/826 827/235/827
f 828/281/828 829/282/829 830/240/830
f 828/281/828 830/240/830 831/239/831
f 832/283/832 833/284/833 834/244/834
f 832/283/832 834/244/834 835/243/835
f 836/285/836 837/286/837 838/248/838
f 836/285/836 838/248/838 839/247/839
f 840/287/840 841/288/841 842/252/842
f 840/287/840 842/252/842 843/251/843
f 844/289/844 845/290/845 846/256/846
f 844/289/844 846/256/846 847/255/847
f 848/291/848 849/292/849 850/260/850
f 848/291/848 850/260/850 851/259/851
f 852/293/852 853/294/853 854/264/854
f 852/293/852 854/264/854 855/263/855
f 856/295/856 857/296/857 858/268/858
f 856/295/856 858/268/858 859/267/859
f 860/297/860 861/298/861 862/272/862
f 860/297/860 862/272/862 863/271/863
f 864/4/864 865/299/865 866/276/866
f 864/4/864 866/276/866 867/275/867
f 868/4/868 869/300/869 870/278/870
f 868/4/868 870/278/870 871/277/871
f 872/4/872 873/1/873 874/280/874
f 872/4/872 874/280/874 875/279/875
f 876/4/876 877/1/877 878/282/878
f 876/4/876 878/282/878 879/281/879
f 880/4/880 881/1/881 882/284/882
f 880/4/880 882/284/882 883/283/883
f 884/4/884 885/1/885 886/286/886
f 884/4/884 886/286/886 887/285/887
f 888/4/888 889/301/889 890/288/890
f 888/4/888 890/288/890 891/287/891
f 892/4/892 893/1/893 894/290/894
f 892/4/892 894/290/894 895/289/895
f 896/4/896 897/302/897 898/292/898
f 896/4/896 898/292/898 899/291/899
f 900/4/900 901/302/901 902/294/902
f 900/4/900 902/294/902 903/293/903
f 904/4/904 905/1/905 906/296/906
f 904/4/904 906/296/906 907/295/907
f 908/4/908 909/303/909 910/298/910
f 908/4/908 910/298/910 911/297/911
usemtl tex_1514_lit
f 912/4/912 913/4/913 914/4/914
f 913/4/913 915/4/915 914/4/914
f 915/4/915 916/4/916 914/4/914
f 916/4/916 917/4/917 914/4/914
f 917/4/917 918/4/918 914/4/914
f 918/4/918 919/4/919 914/4/914
f 919/4/919 920/4/920 914/4/914
f 920/4/920 921/4/921 914/4/914
f 921/4/921 922/4/922 914/4/914
f 922/4/922 923/4/923 914/4/914
f 923/4/923 924/4/924 914/4/914
f 924/4/924 912/4/912 914/4/914
usemtl tex_1242_lit_w11_ovl
f 925/4/925 926/304/926 927/60/927
f 928/4/928 929/60/929 930/305/930
f 931/4/931 932/1/932 933/60/933
f 931/4/931 933/60/933 934/222/934
usemtl tex_1254_lit_w11_ovl
f 935/1/935 936/60/936 937/222/937
f 935/1/935 937/222/937 938/4/938
f 939/1/939 940/60/940 941/222/941
f 939/1/939 941/222/941 942/4/942
f 943/4/943 944/1/944 945/60/945
f 943/4/943 945/60/945 946/222/946
f 947/4/947 948/1/948 949/60/949
f 947/4/947 949/60/949 950/222/950
f 951/1/951 952/60/952 953/222/953
f 951/1/951 953/222/953 954/4/954
usemtl tex_245_lit_w11_ovl
f 955/1/955 956/60/956 957/222/957
f 955/1/955 957/222/957 958/4/958
f 959/1/959 960/60/960 961/222/961
f 959/1/959 961/222/961 962/4/962
f 963/1/963 964/60/964 965/222/965
f 963/1/963 965/222/965 966/4/966
