mtllib PlegalpageZ.mtl
v 2599.0 261.0 0.0 0.831 0.831 0.831
v -2602.0 261.0 0.0 0.831 0.831 0.831
v -2602.0 240.0 0.0 0.831 0.831 0.831
v 2599.0 240.0 0.0 0.831 0.831 0.831
v 1545.0 155.0 0.0 1.000 1.000 1.000
v 909.0 155.0 0.0 1.000 1.000 1.000
v 909.0 -493.0 0.0 1.000 1.000 1.000
v 1545.0 -493.0 0.0 1.000 1.000 1.000
v -427.0 857.0 0.0 1.000 1.000 1.000
v -2281.0 857.0 0.0 1.000 1.000 1.000
v -2281.0 389.0 0.0 1.000 1.000 1.000
v -427.0 389.0 0.0 1.000 1.000 1.000
v -1358.0 -152.0 0.0 1.000 1.000 1.000
v -2107.0 -152.0 0.0 1.000 1.000 1.000
v -2107.0 -343.0 0.0 1.000 1.000 1.000
v -1358.0 -343.0 0.0 1.000 1.000 1.000
v -1171.0 -587.0 0.0 1.000 1.000 1.000
v -2151.0 -587.0 0.0 1.000 1.000 1.000
v -2151.0 -828.0 0.0 1.000 1.000 1.000
v -1171.0 -828.0 0.0 1.000 1.000 1.000
v 2386.0 1289.0 0.0 1.000 1.000 1.000
v 2213.0 1289.0 0.0 1.000 1.000 1.000
v 2213.0 1057.0 0.0 1.000 1.000 1.000
v 2386.0 1057.0 0.0 1.000 1.000 1.000
vt 0.0000 1.0000
vt 1.0000 0.0000
vt 0.0000 0.0000
vt 1.0000 1.0000
vt 4.0000 -0.0088
vt 0.0000 -0.0088
vt 4.0000 1.0000
vt 2.5000 0.2500
vt 0.0000 0.2500
vt 2.5000 1.0000
vt 4.0000 0.2500
vt 1.5000 -1.0078
vt 0.0000 -1.0078
vt 1.5000 1.0000
vn 0.000 0.000 1.000
vn 0.000 0.000 1.000
vn 0.000 0.000 1.000
vn 0.000 0.000 1.000
vn 0.000 0.000 1.000
vn 0.000 0.000 1.000
vn 0.000 0.000 1.000
vn 0.000 0.000 1.000
vn 0.000 0.000 1.000
vn 0.000 0.000 1.000
vn 0.000 0.000 1.000
vn 0.000 0.000 1.000
vn 0.000 0.000 1.000
vn 0.000 0.000 1.000
vn 0.000 0.000 1.000
vn 0.000 0.000 1.000
vn 0.000 0.000 1.000
vn 0.000 0.000 1.000
vn 0.000 0.000 1.000
vn 0.000 0.000 1.000
vn 0.000 0.000 1.000
vn 0.000 0.000 1.000
vn 0.000 0.000 1.000
vn 0.000 0.000 1.000
usemtl tex_None
f 1/1/1 2/1/2 3/1/3
f 1/1/1 3/1/3 4/1/4
f 5/2/5 6/3/6 7/1/7
f 5/2/5 7/1/7 8/4/8
f 9/5/9 10/6/10 11/1/11
f 9/5/9 11/1/11 12/7/12
f 13/8/13 14/9/14 15/1/15
f 13/8/13 15/1/15 16/10/16
f 17/11/17 18/9/18 19/1/19
f 17/11/17 19/1/19 20/7/20
f 21/12/21 22/13/22 23/1/23
f 21/12/21 23/1/23 24/14/24
