mtllib PmiltruckZ.mtl
v -1271.0 -161.0 -1351.0 1.000 1.000 1.000
v -610.0 -161.0 -1351.0 1.000 1.000 1.000
v -610.0 -161.0 -1758.0 1.000 1.000 1.000
v -1271.0 -161.0 -1758.0 1.000 1.000 1.000
v -1271.0 -415.0 -1097.0 1.000 1.000 1.000
v -610.0 -415.0 -1097.0 1.000 1.000 1.000
v -610.0 -415.0 -2012.0 1.000 1.000 1.000
v -1271.0 -415.0 -2012.0 1.000 1.000 1.000
v -1271.0 -263.0 -1351.0 1.000 1.000 1.000
v -1271.0 -161.0 -1351.0 1.000 1.000 1.000
v -1271.0 -161.0 -1758.0 1.000 1.000 1.000
v -1271.0 -263.0 -1758.0 1.000 1.000 1.000
v -1271.0 -415.0 -2012.0 1.000 1.000 1.000
v -1271.0 -415.0 -1097.0 1.000 1.000 1.000
v 1271.0 -263.0 -1758.0 1.000 1.000 1.000
v 1271.0 -161.0 -1758.0 1.000 1.000 1.000
v 1271.0 -161.0 -1351.0 1.000 1.000 1.000
v 1271.0 -263.0 -1351.0 1.000 1.000 1.000
v 610.0 -415.0 -1097.0 1.000 1.000 1.000
v 1271.0 -415.0 -1097.0 1.000 1.000 1.000
v 1271.0 -161.0 -1351.0 1.000 1.000 1.000
v 610.0 -161.0 -1351.0 1.000 1.000 1.000
v 1271.0 -161.0 -1758.0 1.000 1.000 1.000
v 610.0 -161.0 -1758.0 1.000 1.000 1.000
v 1271.0 -415.0 -2012.0 1.000 1.000 1.000
v 610.0 -415.0 -2012.0 1.000 1.000 1.000
v 1271.0 -415.0 -2012.0 1.000 1.000 1.000
v 1271.0 -415.0 -1097.0 1.000 1.000 1.000
v 610.0 -720.0 1749.0 1.000 1.000 1.000
v 1220.0 -720.0 1749.0 1.000 1.000 1.000
v 1220.0 -263.0 1749.0 1.000 1.000 1.000
v 610.0 -263.0 1749.0 1.000 1.000 1.000
v 610.0 -263.0 682.0 1.000 1.000 1.000
v 1220.0 -263.0 682.0 1.000 1.000 1.000
v 1220.0 -720.0 682.0 1.000 1.000 1.000
v 610.0 -720.0 682.0 1.000 1.000 1.000
v -1347.0 -263.0 2410.0 1.000 1.000 1.000
v -1347.0 -161.0 2410.0 1.000 1.000 1.000
v -1347.0 -415.0 2156.0 1.000 1.000 1.000
v -1347.0 -415.0 3071.0 1.000 1.000 1.000
v -1347.0 -161.0 2817.0 1.000 1.000 1.000
v -1347.0 -263.0 2817.0 1.000 1.000 1.000
v -1347.0 -161.0 2817.0 1.000 1.000 1.000
v -915.0 -161.0 2817.0 1.000 1.000 1.000
v -915.0 -161.0 2410.0 1.000 1.000 1.000
v -1347.0 -161.0 2410.0 1.000 1.000 1.000
v -1347.0 -415.0 3071.0 1.000 1.000 1.000
v -915.0 -415.0 3071.0 1.000 1.000 1.000
v -915.0 -415.0 2156.0 1.000 1.000 1.000
v -1347.0 -415.0 2156.0 1.000 1.000 1.000
v -915.0 -619.0 2156.0 1.000 1.000 1.000
v -915.0 -415.0 2156.0 1.000 1.000 1.000
v -1245.0 -415.0 2156.0 1.000 1.000 1.000
v -1245.0 -619.0 2156.0 1.000 1.000 1.000
v -1245.0 -619.0 3071.0 1.000 1.000 1.000
v -1245.0 -415.0 3071.0 1.000 1.000 1.000
v -915.0 -415.0 3071.0 1.000 1.000 1.000
v -915.0 -619.0 3071.0 1.000 1.000 1.000
v -1347.0 -263.0 2817.0 1.000 1.000 1.000
v -1347.0 -161.0 2817.0 1.000 1.000 1.000
v -1347.0 -161.0 2410.0 1.000 1.000 1.000
v -1347.0 -263.0 2410.0 1.000 1.000 1.000
v 1347.0 -415.0 3071.0 1.000 1.000 1.000
v 1347.0 -263.0 2817.0 1.000 1.000 1.000
v 1347.0 -161.0 2817.0 1.000 1.000 1.000
v 1347.0 -415.0 2156.0 1.000 1.000 1.000
v 1347.0 -161.0 2410.0 1.000 1.000 1.000
v 1347.0 -263.0 2410.0 1.000 1.000 1.000
v 915.0 -415.0 3071.0 1.000 1.000 1.000
v 1347.0 -415.0 3071.0 1.000 1.000 1.000
v 1347.0 -161.0 2817.0 1.000 1.000 1.000
v 915.0 -161.0 2817.0 1.000 1.000 1.000
v 1347.0 -161.0 2410.0 1.000 1.000 1.000
v 915.0 -161.0 2410.0 1.000 1.000 1.000
v 1245.0 -619.0 2156.0 1.000 1.000 1.000
v 1245.0 -415.0 2156.0 1.000 1.000 1.000
v 915.0 -415.0 2156.0 1.000 1.000 1.000
v 915.0 -619.0 2156.0 1.000 1.000 1.000
v 915.0 -161.0 2410.0 1.000 1.000 1.000
v 1347.0 -161.0 2410.0 1.000 1.000 1.000
v 1347.0 -415.0 2156.0 1.000 1.000 1.000
v 915.0 -415.0 2156.0 1.000 1.000 1.000
v 915.0 -619.0 3071.0 1.000 1.000 1.000
v 915.0 -415.0 3071.0 1.000 1.000 1.000
v 1245.0 -415.0 3071.0 1.000 1.000 1.000
v 1245.0 -619.0 3071.0 1.000 1.000 1.000
v -1271.0 -110.0 1749.0 1.000 1.000 1.000
v 1271.0 -110.0 1749.0 1.000 1.000 1.000
v 1271.0 550.0 1749.0 1.000 1.000 1.000
v -1271.0 550.0 1749.0 1.000 1.000 1.000
v -1271.0 550.0 -2876.0 1.000 1.000 1.000
v -1271.0 -110.0 -2876.0 1.000 1.000 1.000
v -1271.0 -110.0 1749.0 1.000 1.000 1.000
v -1271.0 550.0 1749.0 1.000 1.000 1.000
v 1271.0 550.0 1749.0 1.000 1.000 1.000
v 1271.0 -110.0 1749.0 1.000 1.000 1.000
v 1271.0 -110.0 -2876.0 1.000 1.000 1.000
v 1271.0 550.0 -2876.0 1.000 1.000 1.000
v -1271.0 550.0 -2876.0 1.000 1.000 1.000
v 1271.0 550.0 -2876.0 1.000 1.000 1.000
v 1271.0 -110.0 -2876.0 1.000 1.000 1.000
v -1271.0 -110.0 -2876.0 1.000 1.000 1.000
v 1245.0 -415.0 3224.0 1.000 1.000 1.000
v 1347.0 -415.0 3224.0 1.000 1.000 1.000
v 1347.0 -720.0 3224.0 1.000 1.000 1.000
v 1245.0 -720.0 3224.0 1.000 1.000 1.000
v -1347.0 -415.0 3224.0 1.000 1.000 1.000
v -1245.0 -415.0 3224.0 1.000 1.000 1.000
v -1245.0 -720.0 3224.0 1.000 1.000 1.000
v -1347.0 -720.0 3224.0 1.000 1.000 1.000
v -1245.0 -415.0 3427.0 1.000 1.000 1.000
v -1347.0 -415.0 3529.0 1.000 1.000 1.000
v 1347.0 -415.0 3529.0 1.000 1.000 1.000
v 1245.0 -415.0 3427.0 1.000 1.000 1.000
v 1347.0 -415.0 3224.0 1.000 1.000 1.000
v 1245.0 -415.0 3224.0 1.000 1.000 1.000
v 1245.0 -415.0 3427.0 1.000 1.000 1.000
v 1347.0 -415.0 3529.0 1.000 1.000 1.000
v -1347.0 -415.0 3529.0 1.000 1.000 1.000
v -1245.0 -415.0 3427.0 1.000 1.000 1.000
v -1245.0 -415.0 3224.0 1.000 1.000 1.000
v -1347.0 -415.0 3224.0 1.000 1.000 1.000
v 1347.0 -720.0 3224.0 1.000 1.000 1.000
v 1347.0 -415.0 3224.0 1.000 1.000 1.000
v 1347.0 -415.0 3529.0 1.000 1.000 1.000
v 1347.0 -720.0 3529.0 1.000 1.000 1.000
v 1347.0 -720.0 3529.0 1.000 1.000 1.000
v 1347.0 -415.0 3529.0 1.000 1.000 1.000
v -1347.0 -415.0 3529.0 1.000 1.000 1.000
v -1347.0 -720.0 3529.0 1.000 1.000 1.000
v -1347.0 -415.0 3224.0 1.000 1.000 1.000
v -1347.0 -720.0 3224.0 1.000 1.000 1.000
v -1347.0 -720.0 3529.0 1.000 1.000 1.000
v -1347.0 -415.0 3529.0 1.000 1.000 1.000
v 1118.0 -110.0 3020.0 1.000 1.000 1.000
v 1118.0 500.0 3020.0 1.000 1.000 1.000
v 1245.0 500.0 3020.0 1.000 1.000 1.000
v 1245.0 -110.0 3020.0 1.000 1.000 1.000
v 1245.0 -110.0 2207.0 1.000 1.000 1.000
v 1118.0 -110.0 2207.0 1.000 1.000 1.000
v 1118.0 -110.0 3020.0 1.000 1.000 1.000
v 1245.0 -110.0 3020.0 1.000 1.000 1.000
v 1245.0 500.0 2207.0 1.000 1.000 1.000
v 1118.0 500.0 2207.0 1.000 1.000 1.000
v 1118.0 -110.0 2207.0 1.000 1.000 1.000
v 1245.0 -110.0 2207.0 1.000 1.000 1.000
v 1144.0 1287.0 2207.0 1.000 1.000 1.000
v 1042.0 1262.0 2207.0 1.000 1.000 1.000
v 1118.0 500.0 2207.0 1.000 1.000 1.000
v 1245.0 500.0 2207.0 1.000 1.000 1.000
v 1144.0 1287.0 2944.0 1.000 1.000 1.000
v 1042.0 1262.0 2944.0 1.000 1.000 1.000
v 1042.0 1262.0 2207.0 1.000 1.000 1.000
v 1144.0 1287.0 2207.0 1.000 1.000 1.000
v 1245.0 500.0 3020.0 1.000 1.000 1.000
v 1118.0 500.0 3020.0 1.000 1.000 1.000
v 1042.0 1262.0 2944.0 1.000 1.000 1.000
v 1144.0 1287.0 2944.0 1.000 1.000 1.000
v -1245.0 -110.0 2207.0 1.000 1.000 1.000
v -1118.0 -110.0 2207.0 1.000 1.000 1.000
v -1118.0 500.0 2207.0 1.000 1.000 1.000
v -1245.0 500.0 2207.0 1.000 1.000 1.000
v -1245.0 500.0 2207.0 1.000 1.000 1.000
v -1118.0 500.0 2207.0 1.000 1.000 1.000
v -1042.0 1262.0 2207.0 1.000 1.000 1.000
v -1144.0 1287.0 2207.0 1.000 1.000 1.000
v -1245.0 -110.0 3020.0 1.000 1.000 1.000
v -1118.0 -110.0 3020.0 1.000 1.000 1.000
v -1118.0 -110.0 2207.0 1.000 1.000 1.000
v -1245.0 -110.0 2207.0 1.000 1.000 1.000
v -1144.0 1287.0 2207.0 1.000 1.000 1.000
v -1042.0 1262.0 2207.0 1.000 1.000 1.000
v -1042.0 1262.0 2944.0 1.000 1.000 1.000
v -1144.0 1287.0 2944.0 1.000 1.000 1.000
v -1144.0 1287.0 2944.0 1.000 1.000 1.000
v -1042.0 1262.0 2944.0 1.000 1.000 1.000
v -1118.0 500.0 3020.0 1.000 1.000 1.000
v -1245.0 500.0 3020.0 1.000 1.000 1.000
v -1245.0 -110.0 3020.0 1.000 1.000 1.000
v -1245.0 500.0 3020.0 1.000 1.000 1.000
v -1118.0 500.0 3020.0 1.000 1.000 1.000
v -1118.0 -110.0 3020.0 1.000 1.000 1.000
v 2.802596928649634e-45 347.0 3529.0 1.000 1.000 1.000
v 2.802596928649634e-45 347.0 3427.0 1.000 1.000 1.000
v -559.0 296.0 3427.0 1.000 1.000 1.000
v -559.0 296.0 3529.0 1.000 1.000 1.000
v 559.0 296.0 3529.0 1.000 1.000 1.000
v 559.0 296.0 3427.0 1.000 1.000 1.000
v 2.802596928649634e-45 347.0 3427.0 1.000 1.000 1.000
v 2.802596928649634e-45 347.0 3529.0 1.000 1.000 1.000
v 2.802596928649634e-45 -365.0 3529.0 1.000 1.000 1.000
v 559.0 -365.0 3529.0 1.000 1.000 1.000
v 559.0 296.0 3529.0 1.000 1.000 1.000
v 2.802596928649634e-45 347.0 3529.0 1.000 1.000 1.000
v 2.802596928649634e-45 347.0 3529.0 1.000 1.000 1.000
v -559.0 296.0 3529.0 1.000 1.000 1.000
v -559.0 -365.0 3529.0 1.000 1.000 1.000
v 2.802596928649634e-45 -365.0 3529.0 1.000 1.000 1.000
v 559.0 -365.0 3529.0 1.000 1.000 1.000
v 559.0 -365.0 3427.0 1.000 1.000 1.000
v 559.0 296.0 3427.0 1.000 1.000 1.000
v -559.0 296.0 3529.0 1.000 1.000 1.000
v -559.0 296.0 3427.0 1.000 1.000 1.000
v -559.0 -365.0 3427.0 1.000 1.000 1.000
v -559.0 -365.0 3529.0 1.000 1.000 1.000
v 508.0 -110.0 1749.0 1.000 1.000 1.000
v -508.0 -110.0 1749.0 1.000 1.000 1.000
v -508.0 -110.0 1902.0 1.000 1.000 1.000
v 508.0 -110.0 1902.0 1.000 1.000 1.000
v 508.0 -568.0 1902.0 1.000 1.000 1.000
v 508.0 -568.0 -2673.0 1.000 1.000 1.000
v 508.0 -110.0 -2673.0 1.000 1.000 1.000
v 508.0 -110.0 1902.0 1.000 1.000 1.000
v -508.0 -568.0 -2673.0 1.000 1.000 1.000
v -508.0 -110.0 -2673.0 1.000 1.000 1.000
v 508.0 -110.0 -2673.0 1.000 1.000 1.000
v 508.0 -568.0 -2673.0 1.000 1.000 1.000
v -508.0 -110.0 1902.0 1.000 1.000 1.000
v -508.0 -110.0 -2673.0 1.000 1.000 1.000
v -508.0 -568.0 -2673.0 1.000 1.000 1.000
v -508.0 -568.0 1902.0 1.000 1.000 1.000
v 915.0 -161.0 3071.0 1.000 1.000 1.000
v 915.0 -619.0 3071.0 1.000 1.000 1.000
v 915.0 -619.0 2156.0 1.000 1.000 1.000
v 915.0 -161.0 2156.0 1.000 1.000 1.000
v -915.0 -161.0 2156.0 1.000 1.000 1.000
v -915.0 -619.0 2156.0 1.000 1.000 1.000
v -915.0 -619.0 3071.0 1.000 1.000 1.000
v -915.0 -161.0 3071.0 1.000 1.000 1.000
v 1220.0 -263.0 1749.0 1.000 1.000 1.000
v 1220.0 -720.0 1749.0 1.000 1.000 1.000
v 1220.0 -720.0 682.0 1.000 1.000 1.000
v 1220.0 -263.0 682.0 1.000 1.000 1.000
v 1220.0 -263.0 682.0 1.000 1.000 1.000
v 610.0 -263.0 682.0 1.000 1.000 1.000
v 610.0 -263.0 1749.0 1.000 1.000 1.000
v 1220.0 -263.0 1749.0 1.000 1.000 1.000
v 1118.0 449.0 2715.0 1.000 1.000 1.000
v 1042.0 449.0 2715.0 1.000 1.000 1.000
v 1042.0 398.0 2715.0 1.000 1.000 1.000
v 1118.0 372.0 2715.0 1.000 1.000 1.000
v 1118.0 449.0 2664.0 1.000 1.000 1.000
v 1093.0 449.0 2664.0 1.000 1.000 1.000
v 1042.0 449.0 2715.0 1.000 1.000 1.000
v 1118.0 449.0 2715.0 1.000 1.000 1.000
v 1093.0 449.0 2487.0 1.000 1.000 1.000
v 1042.0 449.0 2436.0 1.000 1.000 1.000
v 1118.0 449.0 2487.0 1.000 1.000 1.000
v 1118.0 449.0 2436.0 1.000 1.000 1.000
v 1118.0 372.0 2436.0 1.000 1.000 1.000
v 1042.0 398.0 2436.0 1.000 1.000 1.000
v 1042.0 449.0 2436.0 1.000 1.000 1.000
v 1118.0 449.0 2436.0 1.000 1.000 1.000
v 1042.0 398.0 2715.0 1.000 1.000 1.000
v 1042.0 449.0 2715.0 1.000 1.000 1.000
v 1042.0 449.0 2436.0 1.000 1.000 1.000
v 1042.0 398.0 2436.0 1.000 1.000 1.000
v 1118.0 372.0 2715.0 1.000 1.000 1.000
v 1093.0 372.0 2664.0 1.000 1.000 1.000
v 1118.0 372.0 2664.0 1.000 1.000 1.000
v 1042.0 398.0 2715.0 1.000 1.000 1.000
v 1118.0 372.0 2487.0 1.000 1.000 1.000
v 1093.0 372.0 2487.0 1.000 1.000 1.000
v 1118.0 372.0 2436.0 1.000 1.000 1.000
v 1042.0 398.0 2436.0 1.000 1.000 1.000
v 1118.0 449.0 2487.0 1.000 1.000 1.000
v 1093.0 449.0 2487.0 1.000 1.000 1.000
v 1093.0 372.0 2487.0 1.000 1.000 1.000
v 1118.0 372.0 2487.0 1.000 1.000 1.000
v 1093.0 449.0 2487.0 1.000 1.000 1.000
v 1093.0 449.0 2664.0 1.000 1.000 1.000
v 1093.0 372.0 2664.0 1.000 1.000 1.000
v 1093.0 372.0 2487.0 1.000 1.000 1.000
v 1118.0 372.0 2664.0 1.000 1.000 1.000
v 1093.0 372.0 2664.0 1.000 1.000 1.000
v 1093.0 449.0 2664.0 1.000 1.000 1.000
v 1118.0 449.0 2664.0 1.000 1.000 1.000
v -1118.0 372.0 2715.0 1.000 1.000 1.000
v -1042.0 398.0 2715.0 1.000 1.000 1.000
v -1042.0 449.0 2715.0 1.000 1.000 1.000
v -1118.0 449.0 2715.0 1.000 1.000 1.000
v -1118.0 449.0 2715.0 1.000 1.000 1.000
v -1042.0 449.0 2715.0 1.000 1.000 1.000
v -1093.0 449.0 2664.0 1.000 1.000 1.000
v -1118.0 449.0 2664.0 1.000 1.000 1.000
v -1042.0 449.0 2436.0 1.000 1.000 1.000
v -1093.0 449.0 2487.0 1.000 1.000 1.000
v -1118.0 449.0 2436.0 1.000 1.000 1.000
v -1118.0 449.0 2487.0 1.000 1.000 1.000
v -1118.0 449.0 2436.0 1.000 1.000 1.000
v -1042.0 449.0 2436.0 1.000 1.000 1.000
v -1042.0 398.0 2436.0 1.000 1.000 1.000
v -1118.0 372.0 2436.0 1.000 1.000 1.000
v -1042.0 398.0 2436.0 1.000 1.000 1.000
v -1042.0 449.0 2436.0 1.000 1.000 1.000
v -1042.0 449.0 2715.0 1.000 1.000 1.000
v -1042.0 398.0 2715.0 1.000 1.000 1.000
v -1118.0 372.0 2664.0 1.000 1.000 1.000
v -1093.0 372.0 2664.0 1.000 1.000 1.000
v -1118.0 372.0 2715.0 1.000 1.000 1.000
v -1042.0 398.0 2715.0 1.000 1.000 1.000
v -1118.0 372.0 2436.0 1.000 1.000 1.000
v -1093.0 372.0 2487.0 1.000 1.000 1.000
v -1118.0 372.0 2487.0 1.000 1.000 1.000
v -1042.0 398.0 2436.0 1.000 1.000 1.000
v -1118.0 372.0 2487.0 1.000 1.000 1.000
v -1093.0 372.0 2487.0 1.000 1.000 1.000
v -1093.0 449.0 2487.0 1.000 1.000 1.000
v -1118.0 449.0 2487.0 1.000 1.000 1.000
v -1093.0 372.0 2487.0 1.000 1.000 1.000
v -1093.0 372.0 2664.0 1.000 1.000 1.000
v -1093.0 449.0 2664.0 1.000 1.000 1.000
v -1093.0 449.0 2487.0 1.000 1.000 1.000
v -1118.0 449.0 2664.0 1.000 1.000 1.000
v -1093.0 449.0 2664.0 1.000 1.000 1.000
v -1093.0 372.0 2664.0 1.000 1.000 1.000
v -1118.0 372.0 2664.0 1.000 1.000 1.000
v 610.0 -568.0 529.0 1.000 1.000 1.000
v 1220.0 -568.0 529.0 1.000 1.000 1.000
v 1220.0 -110.0 529.0 1.000 1.000 1.000
v 610.0 -110.0 529.0 1.000 1.000 1.000
v 1220.0 -110.0 529.0 1.000 1.000 1.000
v 1220.0 -568.0 529.0 1.000 1.000 1.000
v 1220.0 -568.0 -996.0 1.000 1.000 1.000
v 1220.0 -110.0 -996.0 1.000 1.000 1.000
v 610.0 -110.0 -996.0 1.000 1.000 1.000
v 1220.0 -110.0 -996.0 1.000 1.000 1.000
v 1220.0 -568.0 -996.0 1.000 1.000 1.000
v 610.0 -568.0 -996.0 1.000 1.000 1.000
v -1220.0 -568.0 529.0 1.000 1.000 1.000
v -610.0 -568.0 529.0 1.000 1.000 1.000
v -610.0 -110.0 529.0 1.000 1.000 1.000
v -1220.0 -110.0 529.0 1.000 1.000 1.000
v -1220.0 -110.0 -996.0 1.000 1.000 1.000
v -1220.0 -568.0 -996.0 1.000 1.000 1.000
v -1220.0 -568.0 529.0 1.000 1.000 1.000
v -1220.0 -110.0 529.0 1.000 1.000 1.000
v -1220.0 -110.0 -996.0 1.000 1.000 1.000
v -610.0 -110.0 -996.0 1.000 1.000 1.000
v -610.0 -568.0 -996.0 1.000 1.000 1.000
v -1220.0 -568.0 -996.0 1.000 1.000 1.000
v -1271.0 -110.0 1749.0 1.000 1.000 1.000
v 1271.0 -110.0 1749.0 1.000 1.000 1.000
v 1271.0 -110.0 -2876.0 1.000 1.000 1.000
v -1271.0 -110.0 -2876.0 1.000 1.000 1.000
v 1245.0 -110.0 3020.0 1.000 1.000 1.000
v 1245.0 -110.0 2207.0 1.000 1.000 1.000
v 1245.0 500.0 2207.0 1.000 1.000 1.000
v 1245.0 500.0 3020.0 1.000 1.000 1.000
v -1245.0 500.0 3020.0 1.000 1.000 1.000
v -1245.0 500.0 2207.0 1.000 1.000 1.000
v -1245.0 -110.0 2207.0 1.000 1.000 1.000
v -1245.0 -110.0 3020.0 1.000 1.000 1.000
v 1144.0 1287.0 2944.0 1.000 1.000 1.000
v 1144.0 1364.0 3020.0 1.000 1.000 1.000
v 1245.0 500.0 3097.0 1.000 1.000 1.000
v 1245.0 500.0 3020.0 1.000 1.000 1.000
v 1144.0 1287.0 2207.0 1.000 1.000 1.000
v 1144.0 1364.0 1902.0 1.000 1.000 1.000
v 1245.0 500.0 2207.0 1.000 1.000 1.000
v 1245.0 500.0 1902.0 1.000 1.000 1.000
v 1245.0 -110.0 1902.0 1.000 1.000 1.000
v 1245.0 500.0 1902.0 1.000 1.000 1.000
v 1245.0 500.0 2207.0 1.000 1.000 1.000
v 1245.0 -110.0 2207.0 1.000 1.000 1.000
v 1245.0 -110.0 3020.0 1.000 1.000 1.000
v 1245.0 500.0 3020.0 1.000 1.000 1.000
v 1245.0 500.0 3097.0 1.000 1.000 1.000
v 1245.0 500.0 3427.0 1.000 1.000 1.000
v 1245.0 -110.0 3427.0 1.000 1.000 1.000
v 1245.0 -161.0 2817.0 1.000 1.000 1.000
v 1245.0 -161.0 2410.0 1.000 1.000 1.000
v 1245.0 -415.0 3071.0 1.000 1.000 1.000
v 1245.0 -415.0 2156.0 1.000 1.000 1.000
v 1245.0 -619.0 3427.0 1.000 1.000 1.000
v 1245.0 -619.0 1902.0 1.000 1.000 1.000
v 1245.0 -619.0 3071.0 1.000 1.000 1.000
v 1245.0 -619.0 1902.0 1.000 1.000 1.000
v 1245.0 -415.0 2156.0 1.000 1.000 1.000
v 1245.0 -619.0 2156.0 1.000 1.000 1.000
v -1245.0 500.0 3097.0 1.000 1.000 1.000
v -1245.0 500.0 3020.0 1.000 1.000 1.000
v -1245.0 -110.0 3020.0 1.000 1.000 1.000
v -1245.0 -110.0 3427.0 1.000 1.000 1.000
v -1245.0 500.0 3427.0 1.000 1.000 1.000
v -1144.0 1364.0 3020.0 1.000 1.000 1.000
v -1144.0 1287.0 2944.0 1.000 1.000 1.000
v -1144.0 1364.0 1902.0 1.000 1.000 1.000
v -1144.0 1287.0 2207.0 1.000 1.000 1.000
v -1245.0 500.0 1902.0 1.000 1.000 1.000
v -1245.0 500.0 2207.0 1.000 1.000 1.000
v -1245.0 -110.0 2207.0 1.000 1.000 1.000
v -1245.0 -110.0 1902.0 1.000 1.000 1.000
v -1245.0 -415.0 2156.0 1.000 1.000 1.000
v -1245.0 -110.0 2207.0 1.000 1.000 1.000
v -1245.0 -110.0 1902.0 1.000 1.000 1.000
v -1245.0 -619.0 1902.0 1.000 1.000 1.000
v -1245.0 -619.0 2156.0 1.000 1.000 1.000
v -1245.0 -161.0 2410.0 1.000 1.000 1.000
v -1245.0 -110.0 3020.0 1.000 1.000 1.000
v -1245.0 -161.0 2817.0 1.000 1.000 1.000
v -1245.0 -415.0 3071.0 1.000 1.000 1.000
v -1245.0 -619.0 3427.0 1.000 1.000 1.000
v -1245.0 -110.0 3427.0 1.000 1.000 1.000
v -1245.0 -619.0 3071.0 1.000 1.000 1.000
v 762.0 42.0 3478.0 1.000 1.000 1.000
v 813.0 42.0 3478.0 1.000 1.000 1.000
v 813.0 118.0 3427.0 1.000 1.000 1.000
v 762.0 118.0 3427.0 1.000 1.000 1.000
v 762.0 -288.0 3478.0 1.000 1.000 1.000
v 813.0 -288.0 3478.0 1.000 1.000 1.000
v 813.0 42.0 3478.0 1.000 1.000 1.000
v 762.0 42.0 3478.0 1.000 1.000 1.000
v 762.0 -365.0 3427.0 1.000 1.000 1.000
v 813.0 -365.0 3427.0 1.000 1.000 1.000
v 966.0 42.0 3478.0 1.000 1.000 1.000
v 1017.0 42.0 3478.0 1.000 1.000 1.000
v 1017.0 118.0 3427.0 1.000 1.000 1.000
v 966.0 118.0 3427.0 1.000 1.000 1.000
v 966.0 -288.0 3478.0 1.000 1.000 1.000
v 1017.0 -288.0 3478.0 1.000 1.000 1.000
v 966.0 -365.0 3427.0 1.000 1.000 1.000
v 1017.0 -365.0 3427.0 1.000 1.000 1.000
v -1017.0 42.0 3478.0 1.000 1.000 1.000
v -966.0 42.0 3478.0 1.000 1.000 1.000
v -966.0 118.0 3427.0 1.000 1.000 1.000
v -1017.0 118.0 3427.0 1.000 1.000 1.000
v -1017.0 -288.0 3478.0 1.000 1.000 1.000
v -966.0 -288.0 3478.0 1.000 1.000 1.000
v -1017.0 -365.0 3427.0 1.000 1.000 1.000
v -966.0 -365.0 3427.0 1.000 1.000 1.000
v -813.0 42.0 3478.0 1.000 1.000 1.000
v -762.0 42.0 3478.0 1.000 1.000 1.000
v -762.0 118.0 3427.0 1.000 1.000 1.000
v -813.0 118.0 3427.0 1.000 1.000 1.000
v -813.0 -288.0 3478.0 1.000 1.000 1.000
v -762.0 -288.0 3478.0 1.000 1.000 1.000
v -813.0 -365.0 3427.0 1.000 1.000 1.000
v -762.0 -365.0 3427.0 1.000 1.000 1.000
v 712.0 -263.0 3427.0 1.000 1.000 1.000
v 712.0 -34.0 3427.0 1.000 1.000 1.000
v -712.0 -34.0 3427.0 1.000 1.000 1.000
v -712.0 -263.0 3427.0 1.000 1.000 1.000
v -1067.0 -415.0 3427.0 1.000 1.000 1.000
v 1067.0 -415.0 3427.0 1.000 1.000 1.000
v 1067.0 500.0 3427.0 1.000 1.000 1.000
v -1067.0 500.0 3427.0 1.000 1.000 1.000
v 1067.0 -34.0 3427.0 1.000 1.000 1.000
v -1067.0 -34.0 3427.0 1.000 1.000 1.000
v -1067.0 -263.0 3427.0 1.000 1.000 1.000
v 1067.0 -263.0 3427.0 1.000 1.000 1.000
v 1245.0 500.0 3427.0 1.000 1.000 1.000
v 1245.0 -415.0 3427.0 1.000 1.000 1.000
v -1245.0 500.0 3427.0 1.000 1.000 1.000
v -1245.0 -415.0 3427.0 1.000 1.000 1.000
v 1195.0 550.0 2258.0 1.000 1.000 1.000
v 1195.0 550.0 2969.0 1.000 1.000 1.000
v 1245.0 500.0 3020.0 1.000 1.000 1.000
v 1245.0 500.0 2207.0 1.000 1.000 1.000
v 1118.0 1237.0 2893.0 1.000 1.000 1.000
v 1144.0 1287.0 2944.0 1.000 1.000 1.000
v 1245.0 500.0 3020.0 1.000 1.000 1.000
v 1195.0 550.0 2969.0 1.000 1.000 1.000
v 1118.0 1237.0 2258.0 1.000 1.000 1.000
v 1144.0 1287.0 2207.0 1.000 1.000 1.000
v 1144.0 1287.0 2944.0 1.000 1.000 1.000
v 1118.0 1237.0 2893.0 1.000 1.000 1.000
v 1195.0 550.0 2258.0 1.000 1.000 1.000
v 1245.0 500.0 2207.0 1.000 1.000 1.000
v 1144.0 1287.0 2207.0 1.000 1.000 1.000
v 1118.0 1237.0 2258.0 1.000 1.000 1.000
v 1042.0 1262.0 2207.0 1.000 1.000 1.000
v 1118.0 500.0 2207.0 1.000 1.000 1.000
v 1195.0 550.0 2258.0 1.000 1.000 1.000
v 1118.0 1237.0 2258.0 1.000 1.000 1.000
v 1042.0 1262.0 2207.0 1.000 1.000 1.000
v 1118.0 1237.0 2258.0 1.000 1.000 1.000
v 1118.0 1237.0 2893.0 1.000 1.000 1.000
v 1042.0 1262.0 2944.0 1.000 1.000 1.000
v 1042.0 1262.0 2944.0 1.000 1.000 1.000
v 1118.0 1237.0 2893.0 1.000 1.000 1.000
v 1195.0 550.0 2969.0 1.000 1.000 1.000
v 1118.0 500.0 3020.0 1.000 1.000 1.000
v 1118.0 500.0 3020.0 1.000 1.000 1.000
v 1195.0 550.0 2969.0 1.000 1.000 1.000
v 1195.0 550.0 2258.0 1.000 1.000 1.000
v -1245.0 500.0 2207.0 1.000 1.000 1.000
v -1245.0 500.0 3020.0 1.000 1.000 1.000
v -1195.0 550.0 2969.0 1.000 1.000 1.000
v -1195.0 550.0 2258.0 1.000 1.000 1.000
v -1195.0 550.0 2969.0 1.000 1.000 1.000
v -1245.0 500.0 3020.0 1.000 1.000 1.000
v -1144.0 1287.0 2944.0 1.000 1.000 1.000
v -1118.0 1237.0 2893.0 1.000 1.000 1.000
v -1118.0 1237.0 2893.0 1.000 1.000 1.000
v -1144.0 1287.0 2944.0 1.000 1.000 1.000
v -1144.0 1287.0 2207.0 1.000 1.000 1.000
v -1118.0 1237.0 2258.0 1.000 1.000 1.000
v -1118.0 1237.0 2258.0 1.000 1.000 1.000
v -1144.0 1287.0 2207.0 1.000 1.000 1.000
v -1245.0 500.0 2207.0 1.000 1.000 1.000
v -1195.0 550.0 2258.0 1.000 1.000 1.000
v -1118.0 1237.0 2258.0 1.000 1.000 1.000
v -1195.0 550.0 2258.0 1.000 1.000 1.000
v -1118.0 500.0 2207.0 1.000 1.000 1.000
v -1042.0 1262.0 2207.0 1.000 1.000 1.000
v -1042.0 1262.0 2944.0 1.000 1.000 1.000
v -1118.0 1237.0 2893.0 1.000 1.000 1.000
v -1118.0 1237.0 2258.0 1.000 1.000 1.000
v -1042.0 1262.0 2207.0 1.000 1.000 1.000
v -1118.0 500.0 3020.0 1.000 1.000 1.000
v -1195.0 550.0 2969.0 1.000 1.000 1.000
v -1118.0 1237.0 2893.0 1.000 1.000 1.000
v -1042.0 1262.0 2944.0 1.000 1.000 1.000
v -1195.0 550.0 2258.0 1.000 1.000 1.000
v -1195.0 550.0 2969.0 1.000 1.000 1.000
v -1118.0 500.0 3020.0 1.000 1.000 1.000
v 1144.0 1364.0 3249.0 1.000 1.000 1.000
v -1144.0 1364.0 3249.0 1.000 1.000 1.000
v -1093.0 1287.0 3249.0 1.000 1.000 1.000
v 1093.0 1287.0 3249.0 1.000 1.000 1.000
v 1144.0 1364.0 3249.0 1.000 1.000 1.000
v 1093.0 1287.0 3249.0 1.000 1.000 1.000
v 1093.0 1287.0 3071.0 1.000 1.000 1.000
v 1144.0 1364.0 3020.0 1.000 1.000 1.000
v -1144.0 1364.0 3020.0 1.000 1.000 1.000
v -1093.0 1287.0 3071.0 1.000 1.000 1.000
v -1093.0 1287.0 3249.0 1.000 1.000 1.000
v -1144.0 1364.0 3249.0 1.000 1.000 1.000
v 1144.0 1364.0 3020.0 1.000 1.000 1.000
v 1093.0 1287.0 3071.0 1.000 1.000 1.000
v 1169.0 550.0 3147.0 1.000 1.000 1.000
v 1245.0 500.0 3097.0 1.000 1.000 1.000
v -1245.0 500.0 3097.0 1.000 1.000 1.000
v -1169.0 550.0 3147.0 1.000 1.000 1.000
v -1093.0 1287.0 3071.0 1.000 1.000 1.000
v -1144.0 1364.0 3020.0 1.000 1.000 1.000
v -1245.0 500.0 3427.0 1.000 1.000 1.000
v -1169.0 550.0 3402.0 1.000 1.000 1.000
v -1169.0 550.0 3147.0 1.000 1.000 1.000
v -1245.0 500.0 3097.0 1.000 1.000 1.000
v 1245.0 500.0 3097.0 1.000 1.000 1.000
v 1169.0 550.0 3147.0 1.000 1.000 1.000
v 1169.0 550.0 3402.0 1.000 1.000 1.000
v 1245.0 500.0 3427.0 1.000 1.000 1.000
v 1245.0 500.0 3427.0 1.000 1.000 1.000
v 1169.0 550.0 3402.0 1.000 1.000 1.000
v -1169.0 550.0 3402.0 1.000 1.000 1.000
v -1245.0 500.0 3427.0 1.000 1.000 1.000
v 1118.0 500.0 3020.0 1.000 1.000 1.000
v 1118.0 -110.0 3020.0 1.000 1.000 1.000
v 1245.0 -110.0 3020.0 1.000 1.000 1.000
v 1245.0 500.0 3020.0 1.000 1.000 1.000
v 1118.0 -110.0 2207.0 1.000 1.000 1.000
v 1118.0 500.0 2207.0 1.000 1.000 1.000
v 1245.0 500.0 2207.0 1.000 1.000 1.000
v 1245.0 -110.0 2207.0 1.000 1.000 1.000
v 1118.0 500.0 2207.0 1.000 1.000 1.000
v 1042.0 1262.0 2207.0 1.000 1.000 1.000
v 1144.0 1287.0 2207.0 1.000 1.000 1.000
v 1245.0 500.0 3020.0 1.000 1.000 1.000
v 1144.0 1287.0 2944.0 1.000 1.000 1.000
v 1042.0 1262.0 2944.0 1.000 1.000 1.000
v 1118.0 500.0 3020.0 1.000 1.000 1.000
v 1042.0 1262.0 2944.0 1.000 1.000 1.000
v 1144.0 1287.0 2944.0 1.000 1.000 1.000
v 1144.0 1287.0 2207.0 1.000 1.000 1.000
v 1042.0 1262.0 2207.0 1.000 1.000 1.000
v -1245.0 500.0 3020.0 1.000 1.000 1.000
v -1245.0 -110.0 3020.0 1.000 1.000 1.000
v -1118.0 -110.0 3020.0 1.000 1.000 1.000
v -1118.0 500.0 3020.0 1.000 1.000 1.000
v -1245.0 -110.0 2207.0 1.000 1.000 1.000
v -1245.0 500.0 2207.0 1.000 1.000 1.000
v -1118.0 500.0 2207.0 1.000 1.000 1.000
v -1118.0 -110.0 2207.0 1.000 1.000 1.000
v -1144.0 1287.0 2207.0 1.000 1.000 1.000
v -1042.0 1262.0 2207.0 1.000 1.000 1.000
v -1118.0 500.0 2207.0 1.000 1.000 1.000
v -1118.0 500.0 3020.0 1.000 1.000 1.000
v -1042.0 1262.0 2944.0 1.000 1.000 1.000
v -1144.0 1287.0 2944.0 1.000 1.000 1.000
v -1245.0 500.0 3020.0 1.000 1.000 1.000
v -1042.0 1262.0 2207.0 1.000 1.000 1.000
v -1144.0 1287.0 2207.0 1.000 1.000 1.000
v -1144.0 1287.0 2944.0 1.000 1.000 1.000
v -1042.0 1262.0 2944.0 1.000 1.000 1.000
v 1118.0 500.0 2207.0 1.000 1.000 1.000
v 1118.0 -110.0 2207.0 1.000 1.000 1.000
v 1118.0 -110.0 3020.0 1.000 1.000 1.000
v 1118.0 500.0 3020.0 1.000 1.000 1.000
v -1118.0 500.0 3020.0 1.000 1.000 1.000
v -1118.0 -110.0 3020.0 1.000 1.000 1.000
v -1118.0 -110.0 2207.0 1.000 1.000 1.000
v -1118.0 500.0 2207.0 1.000 1.000 1.000
v -1144.0 1364.0 3020.0 1.000 1.000 1.000
v -1144.0 1364.0 3249.0 1.000 1.000 1.000
v 1144.0 1364.0 3249.0 1.000 1.000 1.000
v 1144.0 1364.0 3020.0 1.000 1.000 1.000
v 1144.0 1364.0 1902.0 1.000 1.000 1.000
v -1144.0 1364.0 1902.0 1.000 1.000 1.000
v 1245.0 500.0 1902.0 1.000 1.000 1.000
v -1245.0 500.0 1902.0 1.000 1.000 1.000
v -1144.0 1364.0 1902.0 1.000 1.000 1.000
v 1144.0 1364.0 1902.0 1.000 1.000 1.000
v 1245.0 -110.0 1902.0 1.000 1.000 1.000
v -1245.0 -110.0 1902.0 1.000 1.000 1.000
v 1245.0 -619.0 1902.0 1.000 1.000 1.000
v -1245.0 -619.0 1902.0 1.000 1.000 1.000
v -1195.0 550.0 2969.0 1.000 1.000 1.000
v -1118.0 1237.0 2893.0 1.000 1.000 1.000
v -1118.0 1237.0 2258.0 1.000 1.000 1.000
v -1195.0 550.0 2258.0 1.000 1.000 1.000
v 1169.0 550.0 3147.0 1.000 1.000 1.000
v 1093.0 1287.0 3071.0 1.000 1.000 1.000
v 1093.0 1287.0 3249.0 1.000 1.000 1.000
v 1169.0 550.0 3402.0 1.000 1.000 1.000
v -1093.0 1287.0 3071.0 1.000 1.000 1.000
v -1169.0 550.0 3147.0 1.000 1.000 1.000
v -1169.0 550.0 3402.0 1.000 1.000 1.000
v -1093.0 1287.0 3249.0 1.000 1.000 1.000
v 1169.0 550.0 3402.0 1.000 1.000 1.000
v 1093.0 1287.0 3249.0 1.000 1.000 1.000
v -1093.0 1287.0 3249.0 1.000 1.000 1.000
v -1169.0 550.0 3402.0 1.000 1.000 1.000
v 1195.0 550.0 2258.0 1.000 1.000 1.000
v 1118.0 1237.0 2258.0 1.000 1.000 1.000
v 1118.0 1237.0 2893.0 1.000 1.000 1.000
v 1195.0 550.0 2969.0 1.000 1.000 1.000
v 1271.0 449.0 2436.0 1.000 1.000 1.000
v 1296.0 423.0 2461.0 1.000 1.000 1.000
v 1296.0 423.0 2309.0 1.000 1.000 1.000
v 1271.0 449.0 2309.0 1.000 1.000 1.000
v 1271.0 398.0 2436.0 1.000 1.000 1.000
v 1271.0 398.0 2309.0 1.000 1.000 1.000
v 1245.0 449.0 2436.0 1.000 1.000 1.000
v 1245.0 423.0 2461.0 1.000 1.000 1.000
v 1296.0 423.0 2461.0 1.000 1.000 1.000
v 1271.0 449.0 2436.0 1.000 1.000 1.000
v 1271.0 398.0 2436.0 1.000 1.000 1.000
v 1245.0 398.0 2436.0 1.000 1.000 1.000
v 1245.0 398.0 2436.0 1.000 1.000 1.000
v 1245.0 449.0 2436.0 1.000 1.000 1.000
v 1271.0 449.0 2436.0 1.000 1.000 1.000
v 1271.0 398.0 2436.0 1.000 1.000 1.000
v 1296.0 423.0 2309.0 1.000 1.000 1.000
v 1271.0 398.0 2309.0 1.000 1.000 1.000
v 1271.0 423.0 2283.0 1.000 1.000 1.000
v 1271.0 449.0 2309.0 1.000 1.000 1.000
v -1271.0 449.0 2309.0 1.000 1.000 1.000
v -1296.0 423.0 2309.0 1.000 1.000 1.000
v -1296.0 423.0 2461.0 1.000 1.000 1.000
v -1271.0 449.0 2436.0 1.000 1.000 1.000
v -1271.0 398.0 2309.0 1.000 1.000 1.000
v -1271.0 398.0 2436.0 1.000 1.000 1.000
v -1271.0 449.0 2436.0 1.000 1.000 1.000
v -1296.0 423.0 2461.0 1.000 1.000 1.000
v -1245.0 423.0 2461.0 1.000 1.000 1.000
v -1245.0 449.0 2436.0 1.000 1.000 1.000
v -1245.0 398.0 2436.0 1.000 1.000 1.000
v -1271.0 398.0 2436.0 1.000 1.000 1.000
v -1271.0 398.0 2436.0 1.000 1.000 1.000
v -1271.0 449.0 2436.0 1.000 1.000 1.000
v -1245.0 449.0 2436.0 1.000 1.000 1.000
v -1245.0 398.0 2436.0 1.000 1.000 1.000
v -1271.0 423.0 2283.0 1.000 1.000 1.000
v -1271.0 398.0 2309.0 1.000 1.000 1.000
v -1296.0 423.0 2309.0 1.000 1.000 1.000
v -1271.0 449.0 2309.0 1.000 1.000 1.000
v 1118.0 -110.0 2207.0 1.000 1.000 1.000
v 1245.0 -110.0 2207.0 1.000 1.000 1.000
v 1245.0 -110.0 3020.0 1.000 1.000 1.000
v 1118.0 -110.0 3020.0 1.000 1.000 1.000
v -1118.0 -110.0 3020.0 1.000 1.000 1.000
v -1245.0 -110.0 3020.0 1.000 1.000 1.000
v -1245.0 -110.0 2207.0 1.000 1.000 1.000
v -1118.0 -110.0 2207.0 1.000 1.000 1.000
v 1245.0 -619.0 3427.0 1.000 1.000 1.000
v -1245.0 -619.0 3427.0 1.000 1.000 1.000
v -1245.0 -619.0 3071.0 1.000 1.000 1.000
v 1245.0 -619.0 3071.0 1.000 1.000 1.000
v 1245.0 -619.0 2156.0 1.000 1.000 1.000
v -1245.0 -619.0 2156.0 1.000 1.000 1.000
v -1245.0 -619.0 1902.0 1.000 1.000 1.000
v 1245.0 -619.0 1902.0 1.000 1.000 1.000
v -915.0 -619.0 2156.0 1.000 1.000 1.000
v 915.0 -619.0 2156.0 1.000 1.000 1.000
v 915.0 -619.0 3071.0 1.000 1.000 1.000
v -915.0 -619.0 3071.0 1.000 1.000 1.000
v 1067.0 -263.0 3427.0 1.000 1.000 1.000
v 1067.0 -34.0 3427.0 1.000 1.000 1.000
v 712.0 -34.0 3427.0 1.000 1.000 1.000
v 712.0 -263.0 3427.0 1.000 1.000 1.000
v -712.0 -263.0 3427.0 1.000 1.000 1.000
v -712.0 -34.0 3427.0 1.000 1.000 1.000
v -1067.0 -34.0 3427.0 1.000 1.000 1.000
v -1067.0 -263.0 3427.0 1.000 1.000 1.000
v -915.0 2126.0 1749.0 1.000 1.000 1.000
v 915.0 2126.0 1749.0 1.000 1.000 1.000
v 915.0 2126.0 -2876.0 1.000 1.000 1.000
v -915.0 2126.0 -2876.0 1.000 1.000 1.000
v 1220.0 1821.0 -2876.0 1.000 1.000 1.000
v 915.0 2126.0 -2876.0 1.000 1.000 1.000
v 915.0 2126.0 1749.0 1.000 1.000 1.000
v 1220.0 1821.0 1749.0 1.000 1.000 1.000
v -1271.0 550.0 1749.0 1.000 1.000 1.000
v -1220.0 1821.0 1749.0 1.000 1.000 1.000
v -1220.0 1821.0 -2876.0 1.000 1.000 1.000
v -1271.0 550.0 -2876.0 1.000 1.000 1.000
v 1271.0 550.0 -2876.0 1.000 1.000 1.000
v 1220.0 1821.0 -2876.0 1.000 1.000 1.000
v 1220.0 1821.0 1749.0 1.000 1.000 1.000
v 1271.0 550.0 1749.0 1.000 1.000 1.000
v -1220.0 1821.0 1749.0 1.000 1.000 1.000
v -915.0 2126.0 1749.0 1.000 1.000 1.000
v -915.0 2126.0 -2876.0 1.000 1.000 1.000
v -1220.0 1821.0 -2876.0 1.000 1.000 1.000
v -1271.0 550.0 1749.0 1.000 1.000 1.000
v 1271.0 550.0 1749.0 1.000 1.000 1.000
v 1220.0 1821.0 1749.0 1.000 1.000 1.000
v -1220.0 1821.0 1749.0 1.000 1.000 1.000
v 915.0 2126.0 1749.0 1.000 1.000 1.000
v -915.0 2126.0 1749.0 1.000 1.000 1.000
v -915.0 2126.0 -2876.0 1.000 1.000 1.000
v 915.0 2126.0 -2876.0 1.000 1.000 1.000
v 1220.0 1821.0 -2876.0 1.000 1.000 1.000
v -1220.0 1821.0 -2876.0 1.000 1.000 1.000
v 915.0 1821.0 -2876.0 1.000 1.000 1.000
v 1220.0 1821.0 -2876.0 1.000 1.000 1.000
v 1271.0 550.0 -2876.0 1.000 1.000 1.000
v 915.0 550.0 -2876.0 1.000 1.000 1.000
v -1220.0 1821.0 -2876.0 1.000 1.000 1.000
v -915.0 1821.0 -2876.0 1.000 1.000 1.000
v -915.0 550.0 -2876.0 1.000 1.000 1.000
v -1271.0 550.0 -2876.0 1.000 1.000 1.000
v 1218.0 -533.2965087890625 -1532.7462158203125 1.000 1.000 1.000
v 1218.0 -387.2965087890625 -1733.7462158203125 1.000 1.000 1.000
v 608.0 -387.2965087890625 -1733.7462158203125 1.000 1.000 1.000
v 608.0 -533.2965087890625 -1532.7462158203125 1.000 1.000 1.000
v 1218.0 -387.2965087890625 -1733.7462158203125 1.000 1.000 1.000
v 1218.0 -387.2965087890625 -1982.7462158203125 1.000 1.000 1.000
v 608.0 -387.2965087890625 -1982.7462158203125 1.000 1.000 1.000
v 608.0 -387.2965087890625 -1733.7462158203125 1.000 1.000 1.000
v 1218.0 -533.2965087890625 -2184.7462158203125 1.000 1.000 1.000
v 1218.0 -770.2965087890625 -2261.7462158203125 1.000 1.000 1.000
v 608.0 -770.2965087890625 -2261.7462158203125 1.000 1.000 1.000
v 608.0 -533.2965087890625 -2184.7462158203125 1.000 1.000 1.000
v 1218.0 -387.2965087890625 -1982.7462158203125 1.000 1.000 1.000
v 1218.0 -533.2965087890625 -2184.7462158203125 1.000 1.000 1.000
v 608.0 -533.2965087890625 -2184.7462158203125 1.000 1.000 1.000
v 608.0 -387.2965087890625 -1982.7462158203125 1.000 1.000 1.000
v 1218.0 -1007.2965087890625 -2184.7462158203125 1.000 1.000 1.000
v 1218.0 -1153.2965087890625 -1982.7462158203125 1.000 1.000 1.000
v 608.0 -1153.2965087890625 -1982.7462158203125 1.000 1.000 1.000
v 608.0 -1007.2965087890625 -2184.7462158203125 1.000 1.000 1.000
v 1218.0 -770.2965087890625 -2261.7462158203125 1.000 1.000 1.000
v 1218.0 -1007.2965087890625 -2184.7462158203125 1.000 1.000 1.000
v 608.0 -1007.2965087890625 -2184.7462158203125 1.000 1.000 1.000
v 608.0 -770.2965087890625 -2261.7462158203125 1.000 1.000 1.000
v 1218.0 -1153.2965087890625 -1733.7462158203125 1.000 1.000 1.000
v 1218.0 -1007.2965087890625 -1532.7462158203125 1.000 1.000 1.000
v 608.0 -1007.2965087890625 -1532.7462158203125 1.000 1.000 1.000
v 608.0 -1153.2965087890625 -1733.7462158203125 1.000 1.000 1.000
v 1218.0 -1153.2965087890625 -1982.7462158203125 1.000 1.000 1.000
v 1218.0 -1153.2965087890625 -1733.7462158203125 1.000 1.000 1.000
v 608.0 -1153.2965087890625 -1733.7462158203125 1.000 1.000 1.000
v 608.0 -1153.2965087890625 -1982.7462158203125 1.000 1.000 1.000
v 1218.0 -770.2965087890625 -1455.7462158203125 1.000 1.000 1.000
v 1218.0 -533.2965087890625 -1532.7462158203125 1.000 1.000 1.000
v 608.0 -533.2965087890625 -1532.7462158203125 1.000 1.000 1.000
v 608.0 -770.2965087890625 -1455.7462158203125 1.000 1.000 1.000
v 1218.0 -1007.2965087890625 -1532.7462158203125 1.000 1.000 1.000
v 1218.0 -770.2965087890625 -1455.7462158203125 1.000 1.000 1.000
v 608.0 -770.2965087890625 -1455.7462158203125 1.000 1.000 1.000
v 608.0 -1007.2965087890625 -1532.7462158203125 1.000 1.000 1.000
v 608.0 -363.2965087890625 -1451.7462158203125 1.000 1.000 1.000
v 608.0 -363.2965087890625 -2265.7462158203125 1.000 1.000 1.000
v 608.0 -1177.2965087890625 -2265.7462158203125 1.000 1.000 1.000
v 608.0 -1177.2965087890625 -1451.7462158203125 1.000 1.000 1.000
v 1218.0 -1177.2965087890625 -2265.7462158203125 1.000 1.000 1.000
v 1218.0 -363.2965087890625 -2265.7462158203125 1.000 1.000 1.000
v 1218.0 -363.2965087890625 -1451.7462158203125 1.000 1.000 1.000
v 1218.0 -1177.2965087890625 -1451.7462158203125 1.000 1.000 1.000
v -609.999999 -117.83334350585938 -4654.6668701171875 1.000 1.000 1.000
v -609.999999 28.166656494140625 -4855.6668701171875 1.000 1.000 1.000
v -1219.9999990000001 28.166656494140625 -4855.6668701171875 1.000 1.000 1.000
v -1219.9999990000001 -117.83334350585938 -4654.6668701171875 1.000 1.000 1.000
v -609.999999 28.166656494140625 -4855.6668701171875 1.000 1.000 1.000
v -609.999999 28.166656494140625 -5104.6668701171875 1.000 1.000 1.000
v -1219.9999990000001 28.166656494140625 -5104.6668701171875 1.000 1.000 1.000
v -1219.9999990000001 28.166656494140625 -4855.6668701171875 1.000 1.000 1.000
v -609.999999 -117.83334350585938 -5306.6668701171875 1.000 1.000 1.000
v -609.999999 -354.8333435058594 -5383.6668701171875 1.000 1.000 1.000
v -1219.9999990000001 -354.8333435058594 -5383.6668701171875 1.000 1.000 1.000
v -1219.9999990000001 -117.83334350585938 -5306.6668701171875 1.000 1.000 1.000
v -609.999999 28.166656494140625 -5104.6668701171875 1.000 1.000 1.000
v -609.999999 -117.83334350585938 -5306.6668701171875 1.000 1.000 1.000
v -1219.9999990000001 -117.83334350585938 -5306.6668701171875 1.000 1.000 1.000
v -1219.9999990000001 28.166656494140625 -5104.6668701171875 1.000 1.000 1.000
v -609.999999 -591.8333435058594 -5306.6668701171875 1.000 1.000 1.000
v -609.999999 -737.8333435058594 -5104.6668701171875 1.000 1.000 1.000
v -1219.9999990000001 -737.8333435058594 -5104.6668701171875 1.000 1.000 1.000
v -1219.9999990000001 -591.8333435058594 -5306.6668701171875 1.000 1.000 1.000
v -609.999999 -354.8333435058594 -5383.6668701171875 1.000 1.000 1.000
v -609.999999 -591.8333435058594 -5306.6668701171875 1.000 1.000 1.000
v -1219.9999990000001 -591.8333435058594 -5306.6668701171875 1.000 1.000 1.000
v -1219.9999990000001 -354.8333435058594 -5383.6668701171875 1.000 1.000 1.000
v -609.999999 -737.8333435058594 -4855.6668701171875 1.000 1.000 1.000
v -609.999999 -591.8333435058594 -4654.6668701171875 1.000 1.000 1.000
v -1219.9999990000001 -591.8333435058594 -4654.6668701171875 1.000 1.000 1.000
v -1219.9999990000001 -737.8333435058594 -4855.6668701171875 1.000 1.000 1.000
v -609.999999 -737.8333435058594 -5104.6668701171875 1.000 1.000 1.000
v -609.999999 -737.8333435058594 -4855.6668701171875 1.000 1.000 1.000
v -1219.9999990000001 -737.8333435058594 -4855.6668701171875 1.000 1.000 1.000
v -1219.9999990000001 -737.8333435058594 -5104.6668701171875 1.000 1.000 1.000
v -609.999999 -354.8333435058594 -4577.6668701171875 1.000 1.000 1.000
v -609.999999 -117.83334350585938 -4654.6668701171875 1.000 1.000 1.000
v -1219.9999990000001 -117.83334350585938 -4654.6668701171875 1.000 1.000 1.000
v -1219.9999990000001 -354.8333435058594 -4577.6668701171875 1.000 1.000 1.000
v -609.999999 -591.8333435058594 -4654.6668701171875 1.000 1.000 1.000
v -609.999999 -354.8333435058594 -4577.6668701171875 1.000 1.000 1.000
v -1219.9999990000001 -354.8333435058594 -4577.6668701171875 1.000 1.000 1.000
v -1219.9999990000001 -591.8333435058594 -4654.6668701171875 1.000 1.000 1.000
v -1219.9999990000001 52.166656494140625 -4573.6668701171875 1.000 1.000 1.000
v -1219.9999990000001 52.166656494140625 -5387.6668701171875 1.000 1.000 1.000
v -1219.9999990000001 -761.8333435058594 -5387.6668701171875 1.000 1.000 1.000
v -1219.9999990000001 -761.8333435058594 -4573.6668701171875 1.000 1.000 1.000
v -609.999999 -761.8333435058594 -5387.6668701171875 1.000 1.000 1.000
v -609.999999 52.166656494140625 -5387.6668701171875 1.000 1.000 1.000
v -609.999999 52.166656494140625 -4573.6668701171875 1.000 1.000 1.000
v -609.999999 -761.8333435058594 -4573.6668701171875 1.000 1.000 1.000
v 1220.0000009999999 -117.83334350585938 -488.33349609375 1.000 1.000 1.000
v 1220.0000009999999 28.166656494140625 -690.33349609375 1.000 1.000 1.000
v 915.000001 28.166656494140625 -690.33349609375 1.000 1.000 1.000
v 915.000001 -117.83334350585938 -488.33349609375 1.000 1.000 1.000
v 1220.0000009999999 28.166656494140625 -690.33349609375 1.000 1.000 1.000
v 1220.0000009999999 28.166656494140625 -939.33349609375 1.000 1.000 1.000
v 915.000001 28.166656494140625 -939.33349609375 1.000 1.000 1.000
v 915.000001 28.166656494140625 -690.33349609375 1.000 1.000 1.000
v 1220.0000009999999 -117.83334350585938 -1140.33349609375 1.000 1.000 1.000
v 1220.0000009999999 -354.8333435058594 -1217.33349609375 1.000 1.000 1.000
v 915.000001 -354.8333435058594 -1217.33349609375 1.000 1.000 1.000
v 915.000001 -117.83334350585938 -1140.33349609375 1.000 1.000 1.000
v 1220.0000009999999 28.166656494140625 -939.33349609375 1.000 1.000 1.000
v 1220.0000009999999 -117.83334350585938 -1140.33349609375 1.000 1.000 1.000
v 915.000001 -117.83334350585938 -1140.33349609375 1.000 1.000 1.000
v 915.000001 28.166656494140625 -939.33349609375 1.000 1.000 1.000
v 1220.0000009999999 -591.8333435058594 -1140.33349609375 1.000 1.000 1.000
v 1220.0000009999999 -737.8333435058594 -939.33349609375 1.000 1.000 1.000
v 915.000001 -737.8333435058594 -939.33349609375 1.000 1.000 1.000
v 915.000001 -591.8333435058594 -1140.33349609375 1.000 1.000 1.000
v 1220.0000009999999 -354.8333435058594 -1217.33349609375 1.000 1.000 1.000
v 1220.0000009999999 -591.8333435058594 -1140.33349609375 1.000 1.000 1.000
v 915.000001 -591.8333435058594 -1140.33349609375 1.000 1.000 1.000
v 915.000001 -354.8333435058594 -1217.33349609375 1.000 1.000 1.000
v 1220.0000009999999 -737.8333435058594 -690.33349609375 1.000 1.000 1.000
v 1220.0000009999999 -591.8333435058594 -488.33349609375 1.000 1.000 1.000
v 915.000001 -591.8333435058594 -488.33349609375 1.000 1.000 1.000
v 915.000001 -737.8333435058594 -690.33349609375 1.000 1.000 1.000
v 1220.0000009999999 -737.8333435058594 -939.33349609375 1.000 1.000 1.000
v 1220.0000009999999 -737.8333435058594 -690.33349609375 1.000 1.000 1.000
v 915.000001 -737.8333435058594 -690.33349609375 1.000 1.000 1.000
v 915.000001 -737.8333435058594 -939.33349609375 1.000 1.000 1.000
v 1220.0000009999999 -354.8333435058594 -411.33349609375 1.000 1.000 1.000
v 1220.0000009999999 -117.83334350585938 -488.33349609375 1.000 1.000 1.000
v 915.000001 -117.83334350585938 -488.33349609375 1.000 1.000 1.000
v 915.000001 -354.8333435058594 -411.33349609375 1.000 1.000 1.000
v 1220.0000009999999 -591.8333435058594 -488.33349609375 1.000 1.000 1.000
v 1220.0000009999999 -354.8333435058594 -411.33349609375 1.000 1.000 1.000
v 915.000001 -354.8333435058594 -411.33349609375 1.000 1.000 1.000
v 915.000001 -591.8333435058594 -488.33349609375 1.000 1.000 1.000
v 915.000001 52.166656494140625 -407.33349609375 1.000 1.000 1.000
v 915.000001 52.166656494140625 -1221.33349609375 1.000 1.000 1.000
v 915.000001 -761.8333435058594 -1221.33349609375 1.000 1.000 1.000
v 915.000001 -761.8333435058594 -407.33349609375 1.000 1.000 1.000
v 1220.0000009999999 -761.8333435058594 -1221.33349609375 1.000 1.000 1.000
v 1220.0000009999999 52.166656494140625 -1221.33349609375 1.000 1.000 1.000
v 1220.0000009999999 52.166656494140625 -407.33349609375 1.000 1.000 1.000
v 1220.0000009999999 -761.8333435058594 -407.33349609375 1.000 1.000 1.000
v -610.0 -533.2965087890625 -1534.7462158203125 1.000 1.000 1.000
v -610.0 -387.2965087890625 -1736.7462158203125 1.000 1.000 1.000
v -915.0 -387.2965087890625 -1736.7462158203125 1.000 1.000 1.000
v -915.0 -533.2965087890625 -1534.7462158203125 1.000 1.000 1.000
v -610.0 -387.2965087890625 -1736.7462158203125 1.000 1.000 1.000
v -610.0 -387.2965087890625 -1985.7462158203125 1.000 1.000 1.000
v -915.0 -387.2965087890625 -1985.7462158203125 1.000 1.000 1.000
v -915.0 -387.2965087890625 -1736.7462158203125 1.000 1.000 1.000
v -610.0 -533.2965087890625 -2186.7462158203125 1.000 1.000 1.000
v -610.0 -770.2965087890625 -2263.7462158203125 1.000 1.000 1.000
v -915.0 -770.2965087890625 -2263.7462158203125 1.000 1.000 1.000
v -915.0 -533.2965087890625 -2186.7462158203125 1.000 1.000 1.000
v -610.0 -387.2965087890625 -1985.7462158203125 1.000 1.000 1.000
v -610.0 -533.2965087890625 -2186.7462158203125 1.000 1.000 1.000
v -915.0 -533.2965087890625 -2186.7462158203125 1.000 1.000 1.000
v -915.0 -387.2965087890625 -1985.7462158203125 1.000 1.000 1.000
v -610.0 -1007.2965087890625 -2186.7462158203125 1.000 1.000 1.000
v -610.0 -1153.2965087890625 -1985.7462158203125 1.000 1.000 1.000
v -915.0 -1153.2965087890625 -1985.7462158203125 1.000 1.000 1.000
v -915.0 -1007.2965087890625 -2186.7462158203125 1.000 1.000 1.000
v -610.0 -770.2965087890625 -2263.7462158203125 1.000 1.000 1.000
v -610.0 -1007.2965087890625 -2186.7462158203125 1.000 1.000 1.000
v -915.0 -1007.2965087890625 -2186.7462158203125 1.000 1.000 1.000
v -915.0 -770.2965087890625 -2263.7462158203125 1.000 1.000 1.000
v -610.0 -1153.2965087890625 -1736.7462158203125 1.000 1.000 1.000
v -610.0 -1007.2965087890625 -1534.7462158203125 1.000 1.000 1.000
v -915.0 -1007.2965087890625 -1534.7462158203125 1.000 1.000 1.000
v -915.0 -1153.2965087890625 -1736.7462158203125 1.000 1.000 1.000
v -610.0 -1153.2965087890625 -1985.7462158203125 1.000 1.000 1.000
v -610.0 -1153.2965087890625 -1736.7462158203125 1.000 1.000 1.000
v -915.0 -1153.2965087890625 -1736.7462158203125 1.000 1.000 1.000
v -915.0 -1153.2965087890625 -1985.7462158203125 1.000 1.000 1.000
v -610.0 -770.2965087890625 -1457.7462158203125 1.000 1.000 1.000
v -610.0 -533.2965087890625 -1534.7462158203125 1.000 1.000 1.000
v -915.0 -533.2965087890625 -1534.7462158203125 1.000 1.000 1.000
v -915.0 -770.2965087890625 -1457.7462158203125 1.000 1.000 1.000
v -610.0 -1007.2965087890625 -1534.7462158203125 1.000 1.000 1.000
v -610.0 -770.2965087890625 -1457.7462158203125 1.000 1.000 1.000
v -915.0 -770.2965087890625 -1457.7462158203125 1.000 1.000 1.000
v -915.0 -1007.2965087890625 -1534.7462158203125 1.000 1.000 1.000
v -915.0 -363.2965087890625 -1453.7462158203125 1.000 1.000 1.000
v -915.0 -363.2965087890625 -2267.7462158203125 1.000 1.000 1.000
v -915.0 -1177.2965087890625 -2267.7462158203125 1.000 1.000 1.000
v -915.0 -1177.2965087890625 -1453.7462158203125 1.000 1.000 1.000
v -610.0 -1177.2965087890625 -2267.7462158203125 1.000 1.000 1.000
v -610.0 -363.2965087890625 -2267.7462158203125 1.000 1.000 1.000
v -610.0 -363.2965087890625 -1453.7462158203125 1.000 1.000 1.000
v -610.0 -1177.2965087890625 -1453.7462158203125 1.000 1.000 1.000
vt 0.3330 0.7227
vt 0.3330 0.0000
vt 1.0000 0.0000
vt 1.0000 0.7227
vt -0.0830 0.7227
vt -0.0830 0.0000
vt 1.4170 0.0000
vt 1.4170 0.7227
vt 0.7773 0.6670
vt 0.7773 1.0000
vt 0.3330 1.0000
vt 0.3330 0.6670
vt 0.0557 0.1670
vt 1.0557 0.1670
vt 0.8330 0.5000
vt 0.8887 0.3330
vt 0.4443 0.3330
vt 0.3887 0.5000
vt 0.2080 -0.0830
vt 0.2080 1.0000
vt 0.4170 1.0000
vt 0.4170 -0.0830
vt 0.7500 1.0000
vt 0.7500 -0.0830
vt 0.9580 1.0000
vt 0.9580 -0.0830
vt 1.0273 0.7500
vt 0.0273 0.7500
vt 0.0059 0.0049
vt 0.9990 0.0010
vt 0.9990 0.9990
vt 0.0068 1.0029
vt 1.0029 0.0010
vt 1.0068 1.0068
vt 0.0059 1.0020
vt 0.0020 -0.0049
vt 0.2227 0.4170
vt 0.2227 1.0000
vt 0.6670 1.0000
vt 0.6670 0.4170
vt -0.0557 0.4170
vt -0.0557 1.0000
vt 0.9443 1.0000
vt 0.9443 0.4170
vt 0.8330 1.0000
vt 0.8330 0.3330
vt 0.0000 0.3330
vt 0.0000 1.0000
vt 0.2480 0.9941
vt 0.4990 0.7373
vt 0.6660 0.7510
vt 0.2480 -0.0059
vt 0.6660 0.3057
vt 0.4990 0.2930
vt 1.1670 1.0557
vt 0.0000 1.0557
vt 0.0000 0.7773
vt 1.1670 0.7773
vt 1.1670 0.3330
vt 0.0000 0.0557
vt 1.1670 0.0557
vt -1.0215 -0.0967
vt 2.0781 -0.0967
vt 2.0781 0.9980
vt -1.0215 0.9980
vt 2.0664 1.0020
vt 2.0664 -0.1045
vt -2.0127 -0.1045
vt -2.0127 1.0020
vt 3.0547 -0.0996
vt 3.0547 1.0137
vt -1.0146 1.0137
vt -1.0146 -0.0996
vt 3.0527 -0.0889
vt -0.0117 -0.0889
vt -0.0078 1.0039
vt 3.0576 1.0039
vt 0.0000 0.0000
vt 1.2227 0.2744
vt 1.3018 0.0508
vt -0.6621 0.0508
vt -0.5850 0.2744
vt 0.7451 0.0117
vt 0.7471 0.3408
vt 0.6631 0.3408
vt 0.6201 0.0117
vt 0.9551 0.0195
vt 0.8027 0.3076
vt 0.5000 0.3076
vt 0.5000 0.0195
vt 0.5000 1.0000
vt 0.5000 0.0000
vt 0.7500 0.0000
vt 2.0830 1.0000
vt 2.0830 0.0000
vt 2.9678 1.0000
vt 2.9678 0.3818
vt 0.0000 0.3818
vt 4.8906 0.3770
vt 4.8906 1.0000
vt 0.0000 0.3770
vt 2.6191 0.3789
vt 2.6191 1.0000
vt 0.0000 0.3789
vt 4.4639 0.4922
vt 4.3770 1.0000
vt -0.0723 0.3809
vt 0.0000 0.4824
vt 3.6416 1.0000
vt 3.6416 0.4824
vt -0.0615 0.3779
vt 3.7900 1.0000
vt 3.8643 0.4893
vt 0.0059 1.0000
vt 0.0049 0.8779
vt 0.9951 0.8799
vt 0.9951 1.0020
vt 1.0010 1.0000
vt 1.0010 0.8770
vt 0.0029 0.8779
vt 0.0029 1.0020
vt 0.0039 -0.0098
vt 0.0771 1.0010
vt 1.0039 1.0010
vt 1.0010 -0.0098
vt 0.9990 -0.0010
vt 1.0000 1.0010
vt 0.1367 1.0010
vt 0.0693 -0.0010
vt -0.0010 1.0000
vt -0.0029 0.8721
vt 0.9990 0.8721
vt 1.0000 0.9980
vt 1.0000 0.8691
vt 0.0000 0.8760
vt 0.0000 1.0049
vt 0.4287 0.5000
vt 0.9043 0.5000
vt 0.9043 0.5625
vt 0.4287 0.5625
vt 1.0000 -2.7500
vt 1.0000 1.0000
vt 0.0010 1.0010
vt 0.0010 -2.7490
vt 0.9971 1.1133
vt 0.0020 1.1133
vt 0.0078 -0.0615
vt 1.0029 -0.0615
vt 1.0000 -14.0000
vt 2.0186 1.0166
vt 2.0186 -13.9834
vt 0.5000 -0.5000
vt 2.0000 -0.5000
vt 2.0000 1.0000
vt 0.2500 1.0000
vt 0.2500 -0.5000
vt 1.0000 -0.5000
vt 0.9990 0.0811
vt 1.0000 0.9990
vt -0.0420 0.9990
vt -0.0439 0.0811
vt -0.0410 0.0811
vt -0.0410 0.9404
vt 0.9990 0.9404
vt 1.0000 0.0811
vt 0.6084 0.5225
vt 0.2002 0.6494
vt 0.2852 0.9209
vt 0.7344 0.9307
vt 0.5342 1.7549
vt 0.4131 1.7578
vt 0.1699 1.9209
vt 0.5332 1.9131
vt 0.4180 1.2070
vt 0.1768 1.0547
vt 0.5381 1.2041
vt 0.5400 1.0459
vt 0.9053 0.9805
vt 0.6504 0.0615
vt 0.1260 0.0566
vt 0.1182 0.9736
vt -0.2725 1.7490
vt -0.8174 1.7490
vt -0.8164 1.0479
vt -0.2725 1.0479
vt 0.3594 2.1865
vt 0.5078 1.9443
vt 0.3809 1.9336
vt 0.7402 2.2197
vt 0.4570 1.0459
vt 0.5840 1.0566
vt 0.4785 0.7920
vt 0.8584 0.8242
vt 0.5146 0.4814
vt 0.4033 0.4180
vt 0.2109 0.7510
vt 0.3213 0.8154
vt 0.5449 0.5674
vt 0.0762 0.5625
vt 0.0742 0.7637
vt 0.5430 0.7686
vt 0.2305 1.0010
vt 0.3623 0.9912
vt 0.3340 0.5938
vt 0.2012 0.6035
vt 1.0977 -0.0029
vt 0.0020 0.0000
vt 1.0977 0.9980
vt 0.0000 -0.0410
vt 0.0000 0.9951
vt 2.0889 0.9951
vt 2.0889 -0.0410
vt 1.0957 -0.0391
vt -0.0020 -0.0391
vt -0.0029 0.9980
vt 1.0947 0.9980
vt -0.0146 0.0020
vt 1.1123 0.0000
vt 1.1123 1.0049
vt -0.0146 1.0068
vt -0.5527 1.0322
vt -0.5527 -0.0322
vt 1.0967 -0.0322
vt 1.0967 1.0322
vt -0.0039 -0.0586
vt 1.1104 -0.0635
vt 1.1104 1.0127
vt -0.0039 1.0176
vt 2.9492 1.9727
vt 2.9375 -0.4834
vt -0.0078 -0.4834
vt 0.0039 1.9727
vt 0.0000 1.0537
vt 0.0000 1.8916
vt 0.6284 1.8916
vt 0.6284 1.0537
vt 0.5942 1.0957
vt 0.6001 1.8545
vt 0.0342 1.8496
vt 0.0283 1.0918
vt 1.0854 1.3398
vt 1.1289 1.3018
vt 0.6367 1.2627
vt 0.6367 1.3018
vt 1.0854 1.7139
vt 1.1289 1.8682
vt 0.6367 1.7139
vt 0.6367 1.8682
vt 0.2896 1.8682
vt 0.2896 1.7139
vt 0.2896 1.3018
vt 0.6367 1.0957
vt 0.2896 1.0957
vt 0.2607 1.4043
vt 0.2607 1.6104
vt 0.1157 1.2754
vt 0.1157 1.7393
vt 0.0000 1.0957
vt 0.0000 1.8682
vt 0.0000 1.2754
vt 0.0000 1.7393
vt 0.0508 1.0771
vt 0.2046 1.0771
vt 0.2046 0.9131
vt 0.0508 0.9131
vt 0.0508 1.7900
vt 0.2046 1.7900
vt 0.0508 1.9541
vt 0.2046 1.9541
vt 0.6665 1.0771
vt 0.8203 1.0781
vt 0.8203 0.9131
vt 0.6665 0.9131
vt 0.6665 1.7900
vt 0.8203 1.7900
vt 0.6665 1.9541
vt 0.8203 1.9551
vt 1.5713 1.9248
vt 1.5713 1.8135
vt -0.1309 1.8135
vt -0.1309 1.9248
vt -0.5562 1.9990
vt 1.9971 1.9990
vt 1.9971 1.5547
vt -0.5562 1.5537
vt 1.9971 1.8135
vt -0.5562 1.8135
vt -0.5562 1.9248
vt 1.9971 1.9248
vt 2.2095 1.5547
vt 2.2095 1.9990
vt -0.7690 1.5537
vt -0.7690 1.9980
vt 11.0029 -0.0127
vt 0.0156 -0.0127
vt -0.7690 1.0000
vt 11.7876 1.0000
vt 5.6611 -0.0918
vt 5.9761 1.0000
vt 0.4604 -0.0449
vt 6.2666 0.0381
vt 6.7310 1.0000
vt 0.4644 0.0381
vt 0.8691 -0.0117
vt 12.1299 1.0000
vt 11.4097 0.0850
vt 8.2329 1.0000
vt 0.4619 0.0947
vt 7.8794 0.1533
vt -2.5122 1.0000
vt -1.9951 0.1289
vt 4.4692 0.1289
vt 4.9863 1.0000
vt 7.2314 1.0000
vt 6.9712 0.1455
vt 0.4492 0.1299
vt 8.2051 1.0000
vt 7.6924 0.0752
vt 0.5127 0.0752
vt -8.3052 1.0000
vt 15.9956 1.0000
vt 15.4556 0.1904
vt -7.7651 0.1904
vt 1.2300 1.0000
vt 1.2300 0.1602
vt -0.3994 0.1602
vt -0.8652 1.0000
vt 1.8618 1.0000
vt 1.4121 0.1895
vt -0.1611 0.1895
vt -0.1611 1.0000
vt 9.4648 1.0000
vt 8.6064 0.1387
vt -0.0356 -0.0361
vt -0.6709 1.0000
vt -0.4346 1.0000
vt 0.3291 -0.0547
vt 10.7266 0.1250
vt 11.7593 1.0000
vt 1.7925 1.0000
vt 1.4971 -0.0664
vt -1.4595 -0.0664
vt -2.0508 1.0000
vt 3.3628 1.0000
vt 2.7783 -0.0537
vt -0.1445 -0.0537
vt -0.4365 1.0000
vt 7.6982 1.0000
vt 7.4624 -0.0537
vt 0.2358 -0.0537
vt 0.0000 1.3633
vt 1.7461 1.3633
vt 1.7461 1.0000
vt 1.5459 0.6777
vt 0.0000 0.6777
vt 1.5459 1.0000
vt 0.0605 0.6768
vt 2.8994 0.7324
vt 2.9443 1.0000
vt 2.3154 1.0000
vt 0.0352 1.3018
vt 2.2686 1.3652
vt 0.0000 0.7285
vt 1.9121 1.0000
vt 1.9121 0.7285
vt 0.0000 -0.0049
vt 1.3398 1.0000
vt 1.3398 -0.0049
vt 0.0000 0.1680
vt 0.0000 -0.0029
vt 5.0000 -0.0029
vt 5.0000 0.1680
vt 5.0000 1.0000
vt 0.0000 1.8350
vt 3.3799 1.8350
vt 3.2417 3.0176
vt 0.1382 3.0176
vt 3.3799 1.0000
vt 0.0000 0.3047
vt 3.3799 0.3047
vt 0.2222 0.1944
vt 0.1634 0.7574
vt 0.1553 0.7377
vt 0.2336 0.1779
vt 0.9974 0.4487
vt 0.8566 0.5357
vt 0.0026 0.4487
vt 0.1526 0.3934
vt 0.7664 0.1779
vt 0.8447 0.7377
vt 0.8366 0.7574
vt 0.7778 0.1944
vt 5.8398 -12.3389
vt 5.8398 -12.0420
vt 6.4346 -12.0420
vt 6.4346 -12.3389
vt 5.8398 -11.7441
vt 6.4346 -11.7441
vt 0.0176 0.6729
vt 0.0088 0.8359
vt 0.6016 0.8359
vt 0.3135 0.6729
vt 0.2969 1.0000
vt -0.4072 1.0000
vt -0.4072 1.8135
vt 0.0000 1.8135
vt 6.5537 -12.0420
vt 0.2578 0.8096
vt 0.2754 0.3105
vt 0.8389 0.2979
vt 0.8213 0.7969
vt 0.7070 0.7383
vt 0.6992 0.2910
vt 0.1846 0.2773
vt 0.1924 0.7236
vt 1.0000 -2.9805
vt 0.4004 -2.9805
vt 0.4004 1.0000
vt 0.5020 3.9717
vt 0.8545 3.9717
vt 0.8545 0.0391
vt 0.5020 0.0391
vt 1.0195 -2.9961
vt 0.0000 -3.0020
vt 1.0195 1.0059
vt 0.1660 2.9453
vt 0.8604 2.9453
vt 0.8604 -0.9453
vt 0.1660 -0.9453
vt 0.4023 -1.9941
vt 0.7539 -1.9941
vt 0.7539 2.0361
vt 0.4023 2.0361
vt 0.2695 -0.0059
vt 0.2539 1.0010
vt 0.8408 0.9961
vt 0.8564 0.0303
vt 0.9834 0.8799
vt 0.9951 0.1553
vt 0.8750 0.0000
vt 0.1250 0.0000
vt 0.0000 0.0010
vt -0.7988 0.0010
vt -0.9316 1.0000
vt 0.4912 0.0039
vt 0.0000 0.0039
vt 0.5732 1.0000
vt 2.0068 0.9053
vt 2.0068 0.0820
vt 0.0000 0.0820
vt 0.0000 0.9053
vt 0.9980 0.9053
vt 0.9980 0.0820
vn -0.577 -0.577 -0.577
vn 0.577 0.577 0.577
vn 0.577 0.577 0.577
vn -0.577 -0.577 -0.577
vn -0.577 -0.577 -0.577
vn 0.577 0.577 0.577
vn 0.577 0.577 0.577
vn -0.577 -0.577 -0.577
vn 0.577 0.577 0.577
vn -0.577 -0.577 -0.577
vn -0.577 -0.577 -0.577
vn 0.577 0.577 0.577
vn 0.577 0.577 0.577
vn 0.577 0.577 0.577
vn 0.577 0.577 0.577
vn -0.577 -0.577 -0.577
vn -0.577 -0.577 -0.577
vn 0.577 0.577 0.577
vn 0.577 0.577 0.577
vn -0.577 -0.577 -0.577
vn -0.577 -0.577 -0.577
vn 0.577 0.577 0.577
vn -0.577 -0.577 -0.577
vn 0.577 0.577 0.577
vn -0.577 -0.577 -0.577
vn 0.577 0.577 0.577
vn 0.577 0.577 0.577
vn 0.577 0.577 0.577
vn 0.577 0.577 0.577
vn 0.577 0.577 0.577
vn -0.577 -0.577 -0.577
vn 0.577 0.577 0.577
vn 0.577 0.577 0.577
vn -0.577 -0.577 -0.577
vn 0.577 0.577 0.577
vn 0.577 0.577 0.577
vn 0.577 0.577 0.577
vn -0.577 -0.577 -0.577
vn 0.577 0.577 0.577
vn 0.577 0.577 0.577
vn -0.577 -0.577 -0.577
vn 0.577 0.577 0.577
vn -0.577 -0.577 -0.577
vn 0.577 0.577 0.577
vn 0.577 0.577 0.577
vn -0.577 -0.577 -0.577
vn -0.577 -0.577 -0.577
vn 0.577 0.577 0.577
vn 0.577 0.577 0.577
vn -0.577 -0.577 -0.577
vn 0.577 0.577 0.577
vn 0.577 0.577 0.577
vn 0.577 0.577 0.577
vn 0.577 0.577 0.577
vn 0.577 0.577 0.577
vn 0.577 0.577 0.577
vn 0.577 0.577 0.577
vn 0.577 0.577 0.577
vn 0.577 0.577 0.577
vn -0.577 -0.577 -0.577
vn -0.577 -0.577 -0.577
vn 0.577 0.577 0.577
vn 0.577 0.577 0.577
vn 0.577 0.577 0.577
vn -0.577 -0.577 -0.577
vn 0.577 0.577 0.577
vn -0.577 -0.577 -0.577
vn 0.577 0.577 0.577
vn 0.577 0.577 0.577
vn -0.577 -0.577 -0.577
vn -0.577 -0.577 -0.577
vn 0.577 0.577 0.577
vn -0.577 -0.577 -0.577
vn 0.577 0.577 0.577
vn 0.577 0.577 0.577
vn 0.577 0.577 0.577
vn 0.577 0.577 0.577
vn 0.577 0.577 0.577
vn 0.577 0.577 0.577
vn -0.577 -0.577 -0.577
vn -0.577 -0.577 -0.577
vn 0.577 0.577 0.577
vn 0.577 0.577 0.577
vn 0.577 0.577 0.577
vn 0.577 0.577 0.577
vn 0.577 0.577 0.577
vn 0.577 0.577 0.577
vn 0.577 0.577 0.577
vn -0.577 -0.577 -0.577
vn 0.577 0.577 0.577
vn -0.577 -0.577 -0.577
vn 0.577 0.577 0.577
vn 0.577 0.577 0.577
vn 0.577 0.577 0.577
vn -0.577 -0.577 -0.577
vn 0.577 0.577 0.577
vn 0.577 0.577 0.577
vn -0.577 -0.577 -0.577
vn -0.577 -0.577 -0.577
vn -0.577 -0.577 -0.577
vn 0.577 0.577 0.577
vn 0.577 0.577 0.577
vn -0.577 -0.577 -0.577
vn -0.577 -0.577 -0.577
vn 0.577 0.577 0.577
vn 0.577 0.577 0.577
vn -0.577 -0.577 -0.577
vn -0.577 -0.577 -0.577
vn 0.577 0.577 0.577
vn 0.577 0.577 0.577
vn -0.577 -0.577 -0.577
vn -0.577 -0.577 -0.577
vn -0.577 -0.577 -0.577
vn -0.577 -0.577 -0.577
vn -0.577 -0.577 -0.577
vn -0.577 -0.577 -0.577
vn -0.577 -0.577 -0.577
vn -0.577 -0.577 -0.577
vn -0.577 -0.577 -0.577
vn -0.577 -0.577 -0.577
vn -0.577 -0.577 -0.577
vn -0.577 -0.577 -0.577
vn 0.577 0.577 0.577
vn -0.577 -0.577 -0.577
vn -0.577 -0.577 -0.577
vn 0.577 0.577 0.577
vn 0.577 0.577 0.577
vn -0.577 -0.577 -0.577
vn -0.577 -0.577 -0.577
vn 0.577 0.577 0.577
vn -0.577 -0.577 -0.577
vn 0.577 0.577 0.577
vn 0.577 0.577 0.577
vn -0.577 -0.577 -0.577
vn -0.577 -0.577 -0.577
vn -0.577 -0.577 -0.577
vn -0.577 -0.577 -0.577
vn -0.577 -0.577 -0.577
vn -0.577 -0.577 -0.577
vn -0.577 -0.577 -0.577
vn -0.577 -0.577 -0.577
vn -0.577 -0.577 -0.577
vn -0.577 -0.577 -0.577
vn -0.577 -0.577 -0.577
vn -0.577 -0.577 -0.577
vn -0.577 -0.577 -0.577
vn -0.577 -0.577 -0.577
vn -0.577 -0.577 -0.577
vn -0.577 -0.577 -0.577
vn -0.577 -0.577 -0.577
vn -0.577 -0.577 -0.577
vn -0.577 -0.577 -0.577
vn -0.577 -0.577 -0.577
vn -0.577 -0.577 -0.577
vn -0.577 -0.577 -0.577
vn -0.577 -0.577 -0.577
vn -0.577 -0.577 -0.577
vn -0.577 -0.577 -0.577
vn -0.577 -0.577 -0.577
vn -0.577 -0.577 -0.577
vn -0.577 -0.577 -0.577
vn -0.577 -0.577 -0.577
vn -0.577 -0.577 -0.577
vn -0.577 -0.577 -0.577
vn -0.577 -0.577 -0.577
vn -0.577 -0.577 -0.577
vn -0.577 -0.577 -0.577
vn -0.577 -0.577 -0.577
vn -0.577 -0.577 -0.577
vn -0.577 -0.577 -0.577
vn -0.577 -0.577 -0.577
vn -0.577 -0.577 -0.577
vn -0.577 -0.577 -0.577
vn -0.577 -0.577 -0.577
vn -0.577 -0.577 -0.577
vn -0.577 -0.577 -0.577
vn -0.577 -0.577 -0.577
vn -0.577 -0.577 -0.577
vn -0.577 -0.577 -0.577
vn -0.577 -0.577 -0.577
vn -0.577 -0.577 -0.577
vn -0.577 -0.577 -0.577
vn -0.577 -0.577 -0.577
vn -0.577 -0.577 -0.577
vn 0.577 0.577 0.577
vn 0.577 0.577 0.577
vn 0.577 0.577 0.577
vn 0.577 0.577 0.577
vn -0.577 -0.577 -0.577
vn -0.577 -0.577 -0.577
vn -0.577 -0.577 -0.577
vn 0.577 0.577 0.577
vn 0.577 0.577 0.577
vn -0.577 -0.577 -0.577
vn -0.577 -0.577 -0.577
vn 0.577 0.577 0.577
vn 0.577 0.577 0.577
vn -0.577 -0.577 -0.577
vn 0.577 0.577 0.577
vn 0.577 0.577 0.577
vn 0.577 0.577 0.577
vn 0.577 0.577 0.577
vn 0.577 0.577 0.577
vn 0.577 0.577 0.577
vn 0.577 0.577 0.577
vn -0.577 -0.577 -0.577
vn -0.577 -0.577 -0.577
vn -0.577 -0.577 -0.577
vn -0.577 -0.577 -0.577
vn 0.577 0.577 0.577
vn 0.577 0.577 0.577
vn 0.577 0.577 0.577
vn 0.577 0.577 0.577
vn 0.577 0.577 0.577
vn 0.577 0.577 0.577
vn 0.577 0.577 0.577
vn 0.577 0.577 0.577
vn 0.577 0.577 0.577
vn 0.577 0.577 0.577
vn 0.577 0.577 0.577
vn 0.577 0.577 0.577
vn 0.577 0.577 0.577
vn 0.577 0.577 0.577
vn 0.577 0.577 0.577
vn 0.577 0.577 0.577
vn 0.577 0.577 0.577
vn 0.577 0.577 0.577
vn 0.577 0.577 0.577
vn 0.577 0.577 0.577
vn -0.577 -0.577 -0.577
vn 0.577 0.577 0.577
vn 0.577 0.577 0.577
vn -0.577 -0.577 -0.577
vn -0.577 -0.577 -0.577
vn -0.577 -0.577 -0.577
vn -0.577 -0.577 -0.577
vn -0.577 -0.577 -0.577
vn -0.577 -0.577 -0.577
vn -0.577 -0.577 -0.577
vn -0.577 -0.577 -0.577
vn -0.577 -0.577 -0.577
vn -0.577 -0.577 -0.577
vn -0.577 -0.577 -0.577
vn -0.577 -0.577 -0.577
vn -0.577 -0.577 -0.577
vn -0.577 -0.577 -0.577
vn -0.577 -0.577 -0.577
vn -0.577 -0.577 -0.577
vn -0.577 -0.577 -0.577
vn -0.577 -0.577 -0.577
vn -0.577 -0.577 -0.577
vn -0.577 -0.577 -0.577
vn -0.577 -0.577 -0.577
vn -0.577 -0.577 -0.577
vn -0.577 -0.577 -0.577
vn -0.577 -0.577 -0.577
vn -0.577 -0.577 -0.577
vn -0.577 -0.577 -0.577
vn -0.577 -0.577 -0.577
vn -0.577 -0.577 -0.577
vn -0.577 -0.577 -0.577
vn -0.577 -0.577 -0.577
vn -0.577 -0.577 -0.577
vn -0.577 -0.577 -0.577
vn -0.577 -0.577 -0.577
vn -0.577 -0.577 -0.577
vn -0.577 -0.577 -0.577
vn -0.577 -0.577 -0.577
vn -0.577 -0.577 -0.577
vn -0.577 -0.577 -0.577
vn -0.577 -0.577 -0.577
vn -0.577 -0.577 -0.577
vn -0.577 -0.577 -0.577
vn -0.577 -0.577 -0.577
vn -0.577 -0.577 -0.577
vn -0.577 -0.577 -0.577
vn -0.577 -0.577 -0.577
vn -0.577 -0.577 -0.577
vn -0.577 -0.577 -0.577
vn -0.577 -0.577 -0.577
vn -0.577 -0.577 -0.577
vn -0.577 -0.577 -0.577
vn -0.577 -0.577 -0.577
vn -0.577 -0.577 -0.577
vn -0.577 -0.577 -0.577
vn -0.577 -0.577 -0.577
vn -0.577 -0.577 -0.577
vn -0.577 -0.577 -0.577
vn -0.577 -0.577 -0.577
vn -0.577 -0.577 -0.577
vn -0.577 -0.577 -0.577
vn -0.577 -0.577 -0.577
vn -0.577 -0.577 -0.577
vn -0.577 -0.577 -0.577
vn -0.577 -0.577 -0.577
vn -0.577 -0.577 -0.577
vn -0.577 -0.577 -0.577
vn -0.577 -0.577 -0.577
vn -0.577 -0.577 -0.577
vn -0.577 -0.577 -0.577
vn -0.577 -0.577 -0.577
vn -0.577 -0.577 -0.577
vn -0.577 -0.577 -0.577
vn -0.577 -0.577 -0.577
vn -0.577 -0.577 -0.577
vn -0.577 -0.577 -0.577
vn -0.577 -0.577 -0.577
vn -0.577 -0.577 -0.577
vn -0.577 -0.577 -0.577
vn -0.577 -0.577 -0.577
vn -0.577 -0.577 -0.577
vn -0.577 -0.577 -0.577
vn -0.577 -0.577 -0.577
vn -0.577 -0.577 -0.577
vn -0.577 -0.577 -0.577
vn -0.577 -0.577 -0.577
vn -0.577 -0.577 -0.577
vn 0.577 0.577 0.577
vn -0.577 -0.577 -0.577
vn 0.577 0.577 0.577
vn 0.577 0.577 0.577
vn 0.577 0.577 0.577
vn -0.577 -0.577 -0.577
vn -0.577 -0.577 -0.577
vn 0.577 0.577 0.577
vn 0.577 0.577 0.577
vn 0.577 0.577 0.577
vn -0.577 -0.577 -0.577
vn 0.577 0.577 0.577
vn -0.577 -0.577 -0.577
vn 0.577 0.577 0.577
vn 0.577 0.577 0.577
vn 0.577 0.577 0.577
vn 0.577 0.577 0.577
vn -0.577 -0.577 -0.577
vn -0.577 -0.577 -0.577
vn 0.577 0.577 0.577
vn 0.577 0.577 0.577
vn 0.577 0.577 0.577
vn 0.577 0.577 0.577
vn -0.577 -0.577 -0.577
vn 0.577 0.577 0.577
vn 0.577 0.577 0.577
vn 0.577 0.577 0.577
vn 0.577 0.577 0.577
vn 0.538 -0.624 0.567
vn 0.538 -0.624 0.567
vn 0.538 -0.624 0.567
vn 0.538 -0.624 0.567
vn 0.538 -0.624 0.567
vn 0.538 -0.624 0.567
vn 0.538 -0.624 0.567
vn 0.538 -0.624 0.567
vn 0.471 0.727 0.500
vn 0.471 0.727 0.500
vn 0.471 0.727 0.500
vn 0.471 0.727 0.500
vn 0.471 0.727 0.500
vn 0.472 0.734 0.489
vn 0.471 0.727 0.500
vn 0.472 0.734 0.489
vn 0.472 0.734 0.489
vn 0.472 0.734 0.489
vn 0.471 0.727 0.500
vn 0.471 0.727 0.500
vn 0.471 0.727 0.500
vn 0.471 0.727 0.500
vn 0.471 0.727 0.500
vn 0.471 0.727 0.500
vn 0.471 0.727 0.500
vn 0.472 0.734 0.489
vn 0.472 0.734 0.489
vn 0.471 0.727 0.500
vn 0.472 0.734 0.489
vn 0.472 0.734 0.489
vn 0.472 0.734 0.489
vn 0.472 0.734 0.489
vn 0.472 0.734 0.489
vn 0.472 0.734 0.489
vn 0.472 0.734 0.489
vn 0.471 0.727 0.500
vn 0.471 0.727 0.500
vn 0.471 0.727 0.500
vn 0.471 0.727 0.500
vn 0.471 0.727 0.500
vn 0.471 0.727 0.500
vn 0.471 0.727 0.500
vn 0.472 0.734 0.489
vn 0.471 0.727 0.500
vn 0.472 0.734 0.489
vn 0.471 0.727 0.500
vn 0.471 0.727 0.500
vn 0.472 0.734 0.489
vn 0.472 0.734 0.489
vn 0.471 0.727 0.500
vn 0.472 0.734 0.489
vn 0.472 0.734 0.489
vn 0.472 0.734 0.489
vn 0.472 0.734 0.489
vn 0.471 0.727 0.500
vn 0.472 0.734 0.489
vn 0.472 0.734 0.489
vn 0.472 0.734 0.489
vn 0.471 0.727 0.500
vn 0.472 0.734 0.489
vn 0.538 -0.624 0.567
vn 0.538 -0.624 0.567
vn 0.538 -0.624 0.567
vn 0.538 -0.624 0.567
vn 0.472 0.734 0.489
vn 0.472 0.734 0.489
vn 0.538 -0.624 0.567
vn 0.538 -0.624 0.567
vn 0.472 0.734 0.489
vn 0.472 0.734 0.489
vn 0.538 -0.624 0.567
vn 0.538 -0.624 0.567
vn 0.538 -0.624 0.567
vn 0.538 -0.624 0.567
vn 0.472 0.734 0.489
vn 0.472 0.734 0.489
vn 0.472 0.734 0.489
vn 0.472 0.734 0.489
vn 0.538 -0.624 0.567
vn 0.538 -0.624 0.567
vn 0.538 -0.624 0.567
vn 0.538 -0.624 0.567
vn 0.472 0.734 0.489
vn 0.472 0.734 0.489
vn 0.472 0.734 0.489
vn 0.472 0.734 0.489
vn 0.538 -0.624 0.567
vn 0.538 -0.624 0.567
vn 0.538 -0.624 0.567
vn 0.538 -0.624 0.567
vn 0.472 0.734 0.489
vn 0.472 0.734 0.489
vn 0.472 0.734 0.489
vn 0.472 0.734 0.489
vn 0.471 0.727 0.500
vn 0.471 0.727 0.500
vn 0.471 0.727 0.500
vn 0.471 0.727 0.500
vn 0.471 0.727 0.500
vn 0.472 0.734 0.489
vn 0.471 0.727 0.500
vn 0.471 0.727 0.500
vn 0.471 0.727 0.500
vn 0.471 0.727 0.500
vn 0.471 0.727 0.500
vn 0.471 0.727 0.500
vn 0.471 0.727 0.500
vn 0.472 0.734 0.489
vn 0.471 0.727 0.500
vn 0.472 0.734 0.489
vn 0.538 -0.624 0.567
vn 0.538 -0.624 0.567
vn 0.538 -0.624 0.567
vn 0.538 -0.624 0.567
vn 0.279 0.951 0.131
vn 0.538 -0.624 0.567
vn 0.538 -0.624 0.567
vn 0.538 -0.624 0.567
vn 0.279 0.951 0.131
vn 0.538 -0.624 0.567
vn 0.538 -0.624 0.567
vn 0.279 0.951 0.131
vn 0.538 -0.624 0.567
vn 0.538 -0.624 0.567
vn 0.538 -0.624 0.567
vn 0.279 0.951 0.131
vn -0.577 -0.577 -0.577
vn -0.577 -0.577 -0.577
vn -0.577 -0.577 -0.577
vn -0.577 -0.577 -0.577
vn -0.577 -0.577 -0.577
vn -0.577 -0.577 -0.577
vn -0.577 -0.577 -0.577
vn -0.577 -0.577 -0.577
vn -0.577 -0.577 -0.577
vn -0.577 -0.577 -0.577
vn -0.577 -0.577 -0.577
vn -0.577 -0.577 -0.577
vn -0.577 -0.577 -0.577
vn -0.577 -0.577 -0.577
vn -0.577 -0.577 -0.577
vn 0.538 -0.624 0.567
vn 0.538 -0.624 0.567
vn 0.538 -0.624 0.567
vn 0.538 -0.624 0.567
vn 0.538 -0.624 0.567
vn 0.538 -0.624 0.567
vn 0.538 -0.624 0.567
vn 0.279 0.951 0.131
vn 0.279 0.951 0.131
vn 0.538 -0.624 0.567
vn 0.538 -0.624 0.567
vn 0.279 0.951 0.131
vn 0.279 0.951 0.131
vn 0.538 -0.624 0.567
vn 0.538 -0.624 0.567
vn 0.538 -0.624 0.567
vn -0.577 -0.577 -0.577
vn -0.577 -0.577 -0.577
vn -0.577 -0.577 -0.577
vn -0.577 -0.577 -0.577
vn -0.577 -0.577 -0.577
vn -0.577 -0.577 -0.577
vn -0.577 -0.577 -0.577
vn -0.577 -0.577 -0.577
vn -0.577 -0.577 -0.577
vn -0.577 -0.577 -0.577
vn -0.577 -0.577 -0.577
vn -0.577 -0.577 -0.577
vn -0.577 -0.577 -0.577
vn -0.577 -0.577 -0.577
vn -0.577 -0.577 -0.577
vn 0.471 0.727 0.500
vn 0.427 0.894 0.135
vn -0.577 -0.577 -0.577
vn -0.577 -0.577 -0.577
vn 0.471 0.727 0.500
vn -0.577 -0.577 -0.577
vn -0.577 -0.577 -0.577
vn 0.471 0.727 0.500
vn 0.471 0.727 0.500
vn -0.577 -0.577 -0.577
vn -0.577 -0.577 -0.577
vn 0.427 0.894 0.135
vn 0.471 0.727 0.500
vn -0.577 -0.577 -0.577
vn -0.577 -0.577 -0.577
vn 0.471 0.727 0.500
vn 0.471 0.727 0.500
vn -0.577 -0.577 -0.577
vn -0.577 -0.577 -0.577
vn 0.471 0.727 0.500
vn 0.471 0.727 0.500
vn -0.577 -0.577 -0.577
vn -0.577 -0.577 -0.577
vn 0.471 0.727 0.500
vn 0.471 0.727 0.500
vn -0.577 -0.577 -0.577
vn -0.577 -0.577 -0.577
vn 0.471 0.727 0.500
vn 0.471 0.727 0.500
vn -0.577 -0.577 -0.577
vn -0.577 -0.577 -0.577
vn 0.471 0.727 0.500
vn -0.577 -0.577 -0.577
vn -0.577 -0.577 -0.577
vn -0.577 -0.577 -0.577
vn -0.577 -0.577 -0.577
vn -0.577 -0.577 -0.577
vn -0.577 -0.577 -0.577
vn -0.577 -0.577 -0.577
vn -0.577 -0.577 -0.577
vn -0.577 -0.577 -0.577
vn -0.577 -0.577 -0.577
vn -0.577 -0.577 -0.577
vn -0.577 -0.577 -0.577
vn -0.577 -0.577 -0.577
vn -0.577 -0.577 -0.577
vn -0.577 -0.577 -0.577
vn -0.577 -0.577 -0.577
vn 0.538 -0.624 0.567
vn 0.538 -0.624 0.567
vn -0.577 -0.577 -0.577
vn -0.577 -0.577 -0.577
vn -0.577 -0.577 -0.577
vn -0.577 -0.577 -0.577
vn -0.577 -0.577 -0.577
vn -0.577 -0.577 -0.577
vn -0.577 -0.577 -0.577
vn -0.577 -0.577 -0.577
vn -0.577 -0.577 -0.577
vn -0.577 -0.577 -0.577
vn -0.577 -0.577 -0.577
vn -0.577 -0.577 -0.577
vn -0.577 -0.577 -0.577
vn -0.577 -0.577 -0.577
vn -0.577 -0.577 -0.577
vn -0.577 -0.577 -0.577
vn -0.577 -0.577 -0.577
vn 0.538 -0.624 0.567
vn 0.538 -0.624 0.567
vn -0.577 -0.577 -0.577
vn -0.577 -0.577 -0.577
vn -0.577 -0.577 -0.577
vn -0.577 -0.577 -0.577
vn -0.577 -0.577 -0.577
vn -0.577 -0.577 -0.577
vn -0.577 -0.577 -0.577
vn -0.577 -0.577 -0.577
vn -0.577 -0.577 -0.577
vn 0.471 0.727 0.500
vn 0.428 0.894 0.135
vn 0.471 0.727 0.500
vn 0.471 0.727 0.500
vn 0.472 0.734 0.489
vn 0.472 0.734 0.489
vn 0.472 0.734 0.489
vn 0.472 0.734 0.489
vn 0.472 0.734 0.489
vn 0.472 0.734 0.489
vn 0.472 0.734 0.489
vn 0.472 0.734 0.489
vn 0.472 0.734 0.489
vn 0.472 0.734 0.489
vn -0.556 0.611 -0.564
vn -0.673 -0.515 -0.531
vn -0.689 -0.475 0.547
vn -0.533 0.644 0.549
vn 0.995 0.103 0.000
vn 0.995 0.103 0.000
vn 0.713 -0.071 -0.697
vn 0.713 -0.071 -0.697
vn -0.995 0.103 0.000
vn -0.995 0.103 0.000
vn -0.695 0.213 0.687
vn -0.695 0.213 0.687
vn 0.533 0.644 0.549
vn 0.689 -0.475 0.547
vn 0.673 -0.515 -0.531
vn 0.556 0.611 -0.564
vn 0.533 0.644 0.549
vn 0.689 -0.475 0.547
vn 0.673 -0.515 -0.531
vn 0.556 0.611 -0.564
vn -0.577 -0.577 -0.577
vn -0.577 -0.577 -0.577
vn -0.577 -0.577 -0.577
vn -0.577 -0.577 -0.577
vn 0.577 0.577 0.577
vn 0.577 0.577 0.577
vn -0.577 -0.577 -0.577
vn -0.577 -0.577 -0.577
vn -0.577 -0.577 -0.577
vn -0.577 -0.577 -0.577
vn 0.577 0.577 0.577
vn 0.577 0.577 0.577
vn 0.577 0.577 0.577
vn -0.577 -0.577 -0.577
vn -0.577 -0.577 -0.577
vn 0.577 0.577 0.577
vn -0.577 -0.577 -0.577
vn 0.577 0.577 0.577
vn -0.577 -0.577 -0.577
vn -0.577 -0.577 -0.577
vn -0.577 -0.577 -0.577
vn -0.577 -0.577 -0.577
vn -0.577 -0.577 -0.577
vn -0.577 -0.577 -0.577
vn 0.577 0.577 0.577
vn 0.577 0.577 0.577
vn -0.577 -0.577 -0.577
vn -0.577 -0.577 -0.577
vn -0.577 -0.577 -0.577
vn -0.577 -0.577 -0.577
vn 0.577 0.577 0.577
vn 0.577 0.577 0.577
vn 0.577 0.577 0.577
vn -0.577 -0.577 -0.577
vn -0.577 -0.577 -0.577
vn 0.577 0.577 0.577
vn -0.577 -0.577 -0.577
vn 0.577 0.577 0.577
vn -0.577 -0.577 -0.577
vn -0.577 -0.577 -0.577
vn -0.577 -0.577 -0.577
vn -0.577 -0.577 -0.577
vn -0.577 -0.577 -0.577
vn -0.577 -0.577 -0.577
vn -0.577 -0.577 -0.577
vn -0.577 -0.577 -0.577
vn -0.577 -0.577 -0.577
vn -0.577 -0.577 -0.577
vn 0.000 -1.000 0.000
vn 0.000 -1.000 0.000
vn 0.000 -1.000 0.000
vn 0.000 -1.000 0.000
vn 0.000 -1.000 0.000
vn 0.000 -1.000 0.000
vn 0.000 -1.000 0.000
vn 0.000 -1.000 0.000
vn 0.000 -1.000 0.000
vn 0.000 -1.000 0.000
vn 0.000 -1.000 0.000
vn 0.000 -1.000 0.000
vn -0.577 -0.577 -0.577
vn -0.577 -0.577 -0.577
vn -0.577 -0.577 -0.577
vn -0.577 -0.577 -0.577
vn -0.577 -0.577 -0.577
vn -0.577 -0.577 -0.577
vn -0.577 -0.577 -0.577
vn -0.577 -0.577 -0.577
vn -0.577 -0.577 -0.577
vn -0.577 -0.577 -0.577
vn -0.577 -0.577 -0.577
vn -0.577 -0.577 -0.577
vn -0.577 -0.577 -0.577
vn -0.577 -0.577 -0.577
vn -0.577 -0.577 -0.577
vn -0.577 -0.577 -0.577
vn 0.577 0.577 0.577
vn -0.577 -0.577 -0.577
vn -0.577 -0.577 -0.577
vn 0.577 0.577 0.577
vn 0.577 0.577 0.577
vn -0.577 -0.577 -0.577
vn -0.577 -0.577 -0.577
vn 0.577 0.577 0.577
vn -0.577 -0.577 -0.577
vn -0.577 -0.577 -0.577
vn -0.577 -0.577 -0.577
vn -0.577 -0.577 -0.577
vn 0.577 0.577 0.577
vn 0.577 0.577 0.577
vn -0.577 -0.577 -0.577
vn -0.577 -0.577 -0.577
vn -0.577 -0.577 -0.577
vn -0.577 -0.577 -0.577
vn -0.577 -0.577 -0.577
vn -0.577 -0.577 -0.577
vn -0.577 -0.577 -0.577
vn 0.577 0.577 0.577
vn 0.577 0.577 0.577
vn -0.577 -0.577 -0.577
vn 0.577 0.577 0.577
vn 0.577 0.577 0.577
vn 0.577 0.577 0.577
vn 0.577 0.577 0.577
vn 0.577 0.577 0.577
vn 0.577 0.577 0.577
vn -0.577 -0.577 -0.577
vn -0.577 -0.577 -0.577
vn -0.577 -0.577 -0.577
vn -0.577 -0.577 -0.577
vn -0.577 -0.577 -0.577
vn -0.577 -0.577 -0.577
vn -0.577 -0.577 -0.577
vn -0.577 -0.577 -0.577
vn -0.577 -0.577 -0.577
vn -0.577 -0.577 -0.577
vn -0.577 -0.577 -0.577
vn -0.577 -0.577 -0.577
vn -0.577 -0.577 -0.577
vn -0.577 -0.577 -0.577
vn -0.577 -0.577 -0.577
vn -0.577 -0.577 -0.577
vn -0.577 -0.577 -0.577
vn -0.577 -0.577 -0.577
vn -0.577 -0.577 -0.577
vn -0.577 -0.577 -0.577
vn -0.577 -0.577 -0.577
vn -0.577 -0.577 -0.577
vn -0.577 -0.577 -0.577
vn -0.577 -0.577 -0.577
vn -0.577 -0.577 -0.577
vn -0.577 -0.577 -0.577
vn -0.577 -0.577 -0.577
vn -0.577 -0.577 -0.577
vn -0.577 -0.577 -0.577
vn -0.577 -0.577 -0.577
vn -0.577 -0.577 -0.577
vn -0.577 -0.577 -0.577
vn -0.577 -0.577 -0.577
vn -0.577 -0.577 -0.577
vn -0.577 -0.577 -0.577
vn -0.577 -0.577 -0.577
vn -0.577 -0.577 -0.577
vn -0.577 -0.577 -0.577
vn -0.577 -0.577 -0.577
vn -0.577 -0.577 -0.577
vn -0.577 -0.577 -0.577
vn -0.577 -0.577 -0.577
vn -0.577 -0.577 -0.577
vn -0.577 -0.577 -0.577
vn -0.577 -0.577 -0.577
vn -0.577 -0.577 -0.577
vn -0.577 -0.577 -0.577
vn -0.577 -0.577 -0.577
vn -0.577 -0.577 -0.577
vn -0.577 -0.577 -0.577
vn -0.577 -0.577 -0.577
vn -0.577 -0.577 -0.577
vn -0.577 -0.577 -0.577
vn -0.577 -0.577 -0.577
vn -0.577 -0.577 -0.577
vn -0.577 -0.577 -0.577
vn -0.577 -0.577 -0.577
vn -0.577 -0.577 -0.577
vn -0.577 -0.577 -0.577
vn -0.577 -0.577 -0.577
vn -0.577 -0.577 -0.577
vn -0.577 -0.577 -0.577
vn -0.577 -0.577 -0.577
vn -0.577 -0.577 -0.577
vn -0.577 -0.577 -0.577
vn -0.577 -0.577 -0.577
vn -0.577 -0.577 -0.577
vn -0.577 -0.577 -0.577
vn -0.577 -0.577 -0.577
vn -0.577 -0.577 -0.577
vn -0.577 -0.577 -0.577
vn -0.577 -0.577 -0.577
vn -0.577 -0.577 -0.577
vn -0.577 -0.577 -0.577
vn -0.577 -0.577 -0.577
vn -0.577 -0.577 -0.577
vn -0.577 -0.577 -0.577
vn -0.577 -0.577 -0.577
vn -0.577 -0.577 -0.577
vn -0.577 -0.577 -0.577
vn -0.577 -0.577 -0.577
vn -0.577 -0.577 -0.577
vn -0.577 -0.577 -0.577
vn -0.577 -0.577 -0.577
vn -0.577 -0.577 -0.577
vn -0.577 -0.577 -0.577
vn -0.577 -0.577 -0.577
vn -0.577 -0.577 -0.577
vn -0.577 -0.577 -0.577
vn -0.577 -0.577 -0.577
vn -0.577 -0.577 -0.577
vn -0.577 -0.577 -0.577
vn -0.577 -0.577 -0.577
vn -0.577 -0.577 -0.577
vn -0.577 -0.577 -0.577
vn -0.577 -0.577 -0.577
vn -0.577 -0.577 -0.577
vn -0.577 -0.577 -0.577
vn -0.577 -0.577 -0.577
vn -0.577 -0.577 -0.577
vn -0.577 -0.577 -0.577
vn -0.577 -0.577 -0.577
vn -0.577 -0.577 -0.577
vn -0.577 -0.577 -0.577
vn -0.577 -0.577 -0.577
vn -0.577 -0.577 -0.577
vn -0.577 -0.577 -0.577
vn -0.577 -0.577 -0.577
vn -0.577 -0.577 -0.577
vn -0.577 -0.577 -0.577
vn -0.577 -0.577 -0.577
vn -0.577 -0.577 -0.577
vn -0.577 -0.577 -0.577
vn -0.577 -0.577 -0.577
vn -0.577 -0.577 -0.577
vn -0.577 -0.577 -0.577
vn -0.577 -0.577 -0.577
vn -0.577 -0.577 -0.577
vn -0.577 -0.577 -0.577
vn -0.577 -0.577 -0.577
vn -0.577 -0.577 -0.577
vn -0.577 -0.577 -0.577
vn -0.577 -0.577 -0.577
vn -0.577 -0.577 -0.577
vn -0.577 -0.577 -0.577
vn -0.577 -0.577 -0.577
vn -0.577 -0.577 -0.577
vn -0.577 -0.577 -0.577
vn -0.577 -0.577 -0.577
vn -0.577 -0.577 -0.577
vn -0.577 -0.577 -0.577
vn -0.577 -0.577 -0.577
vn -0.577 -0.577 -0.577
vn -0.577 -0.577 -0.577
vn -0.577 -0.577 -0.577
vn -0.577 -0.577 -0.577
vn -0.577 -0.577 -0.577
vn -0.577 -0.577 -0.577
vn -0.577 -0.577 -0.577
vn -0.577 -0.577 -0.577
vn -0.577 -0.577 -0.577
vn -0.577 -0.577 -0.577
vn -0.577 -0.577 -0.577
vn -0.577 -0.577 -0.577
vn -0.577 -0.577 -0.577
vn -0.577 -0.577 -0.577
vn -0.577 -0.577 -0.577
vn -0.577 -0.577 -0.577
vn -0.577 -0.577 -0.577
vn -0.577 -0.577 -0.577
vn -0.577 -0.577 -0.577
vn -0.577 -0.577 -0.577
vn -0.577 -0.577 -0.577
vn -0.577 -0.577 -0.577
vn -0.577 -0.577 -0.577
vn -0.577 -0.577 -0.577
vn -0.577 -0.577 -0.577
vn -0.577 -0.577 -0.577
vn -0.577 -0.577 -0.577
vn -0.577 -0.577 -0.577
vn -0.577 -0.577 -0.577
vn -0.577 -0.577 -0.577
vn -0.577 -0.577 -0.577
vn -0.577 -0.577 -0.577
vn -0.577 -0.577 -0.577
vn -0.577 -0.577 -0.577
vn -0.577 -0.577 -0.577
vn -0.577 -0.577 -0.577
vn -0.577 -0.577 -0.577
vn -0.577 -0.577 -0.577
vn -0.577 -0.577 -0.577
vn -0.577 -0.577 -0.577
vn -0.577 -0.577 -0.577
vn -0.577 -0.577 -0.577
vn -0.577 -0.577 -0.577
vn -0.577 -0.577 -0.577
vn -0.577 -0.577 -0.577
vn -0.577 -0.577 -0.577
vn -0.577 -0.577 -0.577
vn -0.577 -0.577 -0.577
vn -0.577 -0.577 -0.577
vn -0.577 -0.577 -0.577
vn -0.577 -0.577 -0.577
vn -0.577 -0.577 -0.577
vn -0.577 -0.577 -0.577
vn -0.577 -0.577 -0.577
vn -0.577 -0.577 -0.577
vn -0.577 -0.577 -0.577
vn -0.577 -0.577 -0.577
vn -0.577 -0.577 -0.577
vn -0.577 -0.577 -0.577
vn -0.577 -0.577 -0.577
usemtl tex_218_lit_ds
f 1/1/1 2/2/2 3/3/3
f 1/1/1 3/3/3 4/4/4
f 5/5/5 6/6/6 2/2/2
f 5/5/5 2/2/2 1/1/1
f 4/4/4 3/3/3 7/7/7
f 4/4/4 7/7/7 8/8/8
f 9/9/9 10/10/10 11/11/11
f 9/9/9 11/11/11 12/12/12
f 12/12/12 11/11/11 13/13/13
f 14/14/14 10/10/10 9/9/9
f 15/15/15 16/16/16 17/17/17
f 15/15/15 17/17/17 18/18/18
f 19/19/19 20/20/20 21/21/21
f 19/19/19 21/21/21 22/22/22
f 22/22/22 21/21/21 23/23/23
f 22/22/22 23/23/23 24/24/24
f 24/24/24 23/23/23 25/25/25
f 24/24/24 25/25/25 26/26/26
f 16/16/16 15/15/15 27/27/27
f 18/18/18 17/17/17 28/28/28
usemtl tex_218_lit
f 29/29/29 30/30/30 31/31/31
f 29/29/29 31/31/31 32/32/32
f 33/33/33 34/34/34 35/35/35
f 33/33/33 35/35/35 36/36/36
f 37/9/37 38/10/38 39/14/39
f 40/13/40 41/11/41 42/12/42
usemtl tex_218_lit_ds
f 43/37/43 44/38/44 45/39/45
f 43/37/43 45/39/45 46/40/46
f 47/41/47 48/42/48 44/38/44
f 47/41/47 44/38/44 43/37/43
f 46/40/46 45/39/45 49/43/49
f 46/40/46 49/43/49 50/44/50
usemtl tex_218_lit
f 51/45/51 52/46/52 53/47/53
f 51/45/51 53/47/53 54/48/54
f 55/48/55 56/47/56 57/46/57
f 55/48/55 57/46/57 58/45/58
f 59/12/59 60/11/60 61/10/61
f 59/12/59 61/10/61 62/9/62
f 63/49/63 64/50/64 65/51/65
f 66/52/66 67/53/67 68/54/68
f 68/54/68 67/53/67 65/51/65
f 68/54/68 65/51/65 64/50/64
usemtl tex_218_lit_ds
f 69/55/69 70/56/70 71/57/71
f 69/55/69 71/57/71 72/58/72
f 72/58/72 71/57/71 73/47/73
f 72/58/72 73/47/73 74/59/74
usemtl tex_218_lit
f 75/48/75 76/47/76 77/46/77
f 75/48/75 77/46/77 78/45/78
usemtl tex_218_lit_ds
f 79/59/79 80/47/80 81/60/81
f 79/59/79 81/60/81 82/61/82
usemtl tex_218_lit
f 83/45/83 84/46/84 85/47/85
f 83/45/83 85/47/85 86/48/86
usemtl tex_1445_lit_ds_ovl
f 87/62/87 88/63/88 89/64/89
f 87/62/87 89/64/89 90/65/90
f 91/66/91 92/67/92 93/68/93
f 91/66/91 93/68/93 94/69/94
f 95/70/95 96/71/96 97/72/97
f 95/70/95 97/72/97 98/73/98
usemtl tex_1445_lit_ds
f 99/74/99 100/75/100 101/76/101
f 99/74/99 101/76/101 102/77/102
usemtl tex_299_lit
f 103/2/103 104/78/104 105/48/105
f 103/2/103 105/48/105 106/11/106
f 107/2/107 108/78/108 109/48/109
f 107/2/107 109/48/109 110/11/110
f 111/79/111 112/80/112 113/81/113
f 111/79/111 113/81/113 114/82/114
f 115/83/115 116/84/116 117/85/117
f 115/83/115 117/85/117 118/86/118
f 119/87/119 120/88/120 121/89/121
f 119/87/119 121/89/121 122/90/122
usemtl tex_299_lit_ovl
f 123/91/123 124/92/124 125/93/125
f 123/91/123 125/93/125 126/23/126
usemtl tex_299_lit
f 127/94/127 128/95/128 129/78/129
f 127/94/127 129/78/129 130/48/130
usemtl tex_299_lit_ovl
f 131/92/131 132/91/132 133/23/133
f 131/92/131 133/23/133 134/93/134
usemtl tex_299_lit
f 135/48/135 136/96/136 137/97/137
f 135/48/135 137/97/137 138/98/138
f 139/99/139 140/100/140 141/48/141
f 139/99/139 141/48/141 142/101/142
f 143/102/143 144/103/144 145/48/145
f 143/102/143 145/48/145 146/104/146
f 147/105/147 148/106/148 149/48/149
f 147/105/147 149/48/149 150/107/150
f 151/108/151 152/48/152 153/109/153
f 151/108/151 153/109/153 154/110/154
f 155/111/155 156/48/156 157/112/157
f 155/111/155 157/112/157 158/113/158
f 159/104/159 160/48/160 161/103/161
f 159/104/159 161/103/161 162/102/162
f 163/107/163 164/48/164 165/106/165
f 163/107/163 165/106/165 166/105/166
f 167/101/167 168/48/168 169/100/169
f 167/101/167 169/100/169 170/99/170
f 171/110/171 172/109/172 173/48/173
f 171/110/171 173/48/173 174/108/174
f 175/113/175 176/112/176 177/48/177
f 175/113/175 177/48/177 178/111/178
f 179/98/179 180/97/180 181/96/181
f 179/98/179 181/96/181 182/48/182
usemtl tex_1262_lit
f 183/114/183 184/115/184 185/116/185
f 183/114/183 185/116/185 186/117/186
f 187/118/187 188/119/188 189/120/189
f 187/118/187 189/120/189 190/121/190
usemtl tex_1262_lit_ovl
f 191/122/191 192/123/192 193/124/193
f 191/122/191 193/124/193 194/125/194
f 195/126/195 196/127/196 197/128/197
f 195/126/195 197/128/197 198/129/198
usemtl tex_1262_lit
f 199/130/199 200/131/200 201/132/201
f 199/130/199 201/132/201 187/118/187
f 202/133/202 203/134/203 204/135/204
f 202/133/202 204/135/204 205/136/205
usemtl tex_1368_lit_ovl
f 206/137/206 207/138/207 208/139/208
f 206/137/206 208/139/208 209/140/209
usemtl tex_1368_lit
f 210/141/210 211/142/211 212/143/212
f 210/141/210 212/143/212 213/144/213
f 214/145/214 215/146/215 216/147/216
f 214/145/214 216/147/216 217/148/217
f 218/149/218 219/142/219 220/150/220
f 218/149/218 220/150/220 221/151/221
usemtl tex_1384_lit
f 222/152/222 223/153/223 224/154/224
f 222/152/222 224/154/224 225/91/225
f 226/142/226 227/155/227 228/156/228
f 226/142/226 228/156/228 229/157/229
usemtl tex_1446_lit
f 230/158/230 231/159/231 232/160/232
f 230/158/230 232/160/232 233/161/233
f 234/162/234 235/163/235 236/164/236
f 234/162/234 236/164/236 237/165/237
usemtl tex_1444_lit
f 238/166/238 239/167/239 240/168/240
f 238/166/238 240/168/240 241/169/241
f 242/170/242 243/171/243 244/172/244
f 242/170/242 244/172/244 245/173/245
f 246/174/246 247/175/247 244/172/244
f 246/174/246 244/172/244 243/171/243
f 248/176/248 249/177/249 247/175/247
f 248/176/248 247/175/247 246/174/246
f 250/178/250 251/179/251 252/180/252
f 250/178/250 252/180/252 253/181/253
f 254/182/254 255/183/255 256/184/256
f 254/182/254 256/184/256 257/185/257
f 258/186/258 259/187/259 260/188/260
f 258/186/258 261/189/261 259/187/259
f 262/190/262 263/191/263 264/192/264
f 263/191/263 265/193/265 264/192/264
f 259/187/259 261/189/261 265/193/265
f 259/187/259 265/193/265 263/191/263
f 266/194/266 267/195/267 268/196/268
f 266/194/266 268/196/268 269/197/269
f 270/198/270 271/199/271 272/200/272
f 270/198/270 272/200/272 273/201/273
f 274/202/274 275/203/275 276/204/276
f 274/202/274 276/204/276 277/205/277
f 278/169/278 279/168/279 280/167/280
f 278/169/278 280/167/280 281/166/281
f 282/173/282 283/172/283 284/171/284
f 282/173/282 284/171/284 285/170/285
f 284/171/284 283/172/283 286/175/286
f 284/171/284 286/175/286 287/174/287
f 287/174/287 286/175/286 288/177/288
f 287/174/287 288/177/288 289/176/289
f 290/181/290 291/180/291 292/179/292
f 290/181/290 292/179/292 293/178/293
f 294/185/294 295/184/295 296/183/296
f 294/185/294 296/183/296 297/182/297
f 298/188/298 299/187/299 300/186/300
f 299/187/299 301/189/301 300/186/300
f 302/192/302 303/191/303 304/190/304
f 302/192/302 305/193/305 303/191/303
f 303/191/303 305/193/305 301/189/301
f 303/191/303 301/189/301 299/187/299
f 306/197/306 307/196/307 308/195/308
f 306/197/306 308/195/308 309/194/309
f 310/201/310 311/200/311 312/199/312
f 310/201/310 312/199/312 313/198/313
f 314/205/314 315/204/315 316/203/316
f 314/205/314 316/203/316 317/202/317
usemtl tex_1441_lit
f 318/206/318 319/207/319 320/143/320
f 318/206/318 320/143/320 321/208/321
usemtl tex_1441_lit_ovl
f 322/209/322 323/210/323 324/211/324
f 322/209/322 324/211/324 325/212/325
usemtl tex_1441_lit
f 326/213/326 327/214/327 328/215/328
f 326/213/326 328/215/328 329/216/329
f 330/217/330 331/218/331 332/219/332
f 330/217/330 332/219/332 333/220/333
f 334/221/334 335/222/335 336/223/336
f 334/221/334 336/223/336 337/224/337
f 338/225/338 339/226/339 340/227/340
f 338/225/338 340/227/340 341/228/341
usemtl tex_1443_lit_ds_ovl
f 342/229/342 343/230/343 344/231/344
f 342/229/342 344/231/344 345/232/345
usemtl tex_81_lit
f 346/233/346 347/234/347 348/235/348
f 346/233/346 348/235/348 349/236/349
f 350/237/350 351/238/351 352/239/352
f 350/237/350 352/239/352 353/240/353
f 354/241/354 355/242/355 356/243/356
f 354/241/354 356/243/356 357/244/357
f 358/245/358 359/246/359 355/242/355
f 358/245/358 355/242/355 354/241/354
f 360/247/360 361/248/361 359/246/359
f 360/247/360 359/246/359 358/245/358
f 362/249/362 363/248/363 364/247/364
f 362/249/362 364/247/364 365/250/365
f 366/251/366 367/244/367 368/243/368
f 369/252/369 370/253/370 366/251/366
f 369/252/369 366/251/366 368/243/368
f 371/254/371 372/255/372 365/250/365
f 371/254/371 365/250/365 366/251/366
f 373/256/373 371/254/371 366/251/366
f 374/257/374 365/250/365 372/255/372
f 373/256/373 366/251/366 370/253/370
f 373/256/373 370/253/370 375/258/375
f 376/259/376 362/249/362 365/250/365
f 376/259/376 365/250/365 374/257/374
f 377/260/377 373/256/373 375/258/375
f 378/259/378 379/257/379 380/261/380
f 381/243/381 382/244/382 383/251/383
f 381/243/381 383/251/383 384/253/384
f 381/243/381 384/253/384 385/252/385
f 382/244/382 381/243/381 386/242/386
f 382/244/382 386/242/386 387/241/387
f 387/241/387 386/242/386 388/246/388
f 387/241/387 388/246/388 389/245/389
f 389/245/389 388/246/388 390/248/390
f 389/245/389 390/248/390 391/247/391
f 392/250/392 391/247/391 390/248/390
f 392/250/392 390/248/390 393/249/393
f 394/257/394 395/250/395 396/249/396
f 394/257/394 396/249/396 397/259/397
f 398/261/398 394/257/394 397/259/397
f 399/255/399 395/250/395 394/257/394
f 400/251/400 395/250/395 399/255/399
f 400/251/400 399/255/399 401/254/401
f 400/251/400 401/254/401 402/256/402
f 403/258/403 404/253/404 400/251/400
f 403/258/403 400/251/400 402/256/402
f 403/258/403 402/256/402 405/260/405
usemtl tex_81_lit_ds
f 406/262/406 407/263/407 408/264/408
f 406/262/406 408/264/408 409/265/409
f 410/266/410 411/267/411 412/263/412
f 410/266/410 412/263/412 413/262/413
f 414/268/414 415/269/415 411/267/411
f 414/268/414 411/267/411 410/266/410
f 416/270/416 417/271/417 418/272/418
f 416/270/416 418/272/418 419/273/419
f 420/274/420 421/275/421 417/271/417
f 420/274/420 417/271/417 416/270/416
f 422/276/422 423/277/423 421/275/421
f 422/276/422 421/275/421 420/274/420
f 424/262/424 425/263/425 426/264/426
f 424/262/424 426/264/426 427/265/427
f 428/266/428 429/267/429 425/263/425
f 428/266/428 425/263/425 424/262/424
f 430/268/430 431/269/431 429/267/429
f 430/268/430 429/267/429 428/266/428
f 432/270/432 433/271/433 434/272/434
f 432/270/432 434/272/434 435/273/435
f 436/274/436 437/275/437 433/271/433
f 436/274/436 433/271/433 432/270/432
f 438/276/438 439/277/439 437/275/437
f 438/276/438 437/275/437 436/274/436
usemtl tex_83_lit
f 440/278/440 441/279/441 442/280/442
f 440/278/440 442/280/442 443/281/443
f 444/282/444 445/283/445 440/278/440
f 444/282/444 440/278/440 443/281/443
f 442/280/442 441/279/441 446/284/446
f 442/280/442 446/284/446 447/285/447
f 446/284/446 441/279/441 448/286/448
f 449/287/449 442/280/442 447/285/447
f 444/282/444 443/281/443 450/288/450
f 440/278/440 445/283/445 451/289/451
f 452/290/452 446/284/446 448/286/448
f 451/289/451 445/283/445 453/291/453
f 452/290/452 448/286/448 451/289/451
f 452/290/452 451/289/451 453/291/453
f 454/292/454 449/287/449 447/285/447
f 455/293/455 444/282/444 450/288/450
f 455/293/455 450/288/450 449/287/449
f 455/293/455 449/287/449 454/292/454
usemtl tex_425_lit
f 456/294/456 457/295/457 458/296/458
f 456/294/456 458/296/458 459/297/459
f 460/298/460 461/299/461 462/48/462
f 460/298/460 462/48/462 463/300/463
f 464/301/464 465/302/465 466/48/466
f 464/301/464 466/48/466 467/303/467
f 468/304/468 469/48/469 470/305/470
f 468/304/468 470/305/470 471/306/471
f 472/307/472 473/48/473 474/308/474
f 472/307/472 474/308/474 475/309/475
f 476/310/476 477/311/477 478/312/478
f 476/310/476 478/312/478 479/313/479
f 480/314/480 481/315/481 482/316/482
f 480/314/480 482/316/482 483/48/483
f 484/317/484 485/318/485 486/319/486
f 484/317/484 486/319/486 473/48/473
f 487/297/487 488/296/488 489/295/489
f 487/297/487 489/295/489 490/294/490
f 491/300/491 492/48/492 493/299/493
f 491/300/491 493/299/493 494/298/494
f 495/303/495 496/48/496 497/302/497
f 495/303/495 497/302/497 498/301/498
f 499/306/499 500/305/500 501/48/501
f 499/306/499 501/48/501 502/304/502
f 503/309/503 504/308/504 505/48/505
f 503/309/503 505/48/505 506/307/506
f 507/313/507 508/312/508 509/311/509
f 507/313/507 509/311/509 510/310/510
f 511/48/511 512/316/512 513/315/513
f 511/48/511 513/315/513 514/314/514
f 505/48/505 515/319/515 516/318/516
f 505/48/505 516/318/516 517/317/517
f 518/320/518 519/321/519 520/322/520
f 518/320/518 520/322/520 521/323/521
f 522/324/522 523/325/523 524/326/524
f 522/324/522 524/326/524 525/327/525
f 526/328/526 527/329/527 528/330/528
f 526/328/526 528/330/528 529/331/529
f 530/332/530 531/333/531 532/334/532
f 530/332/530 532/334/532 533/335/533
f 534/336/534 535/337/535 536/338/536
f 534/336/534 536/338/536 537/339/537
f 538/340/538 539/341/539 540/342/540
f 538/340/538 540/342/540 541/343/541
f 542/344/542 543/345/543 544/346/544
f 542/344/542 544/346/544 545/347/545
f 546/348/546 547/349/547 548/350/548
f 546/348/546 548/350/548 549/48/549
usemtl tex_774_lit_ovl
f 550/351/550 551/352/551 552/353/552
f 550/351/550 552/353/552 553/48/553
f 554/354/554 555/355/555 556/48/556
f 554/354/554 556/48/556 557/356/557
f 558/357/558 559/358/559 560/359/560
f 558/357/558 560/359/560 556/48/556
f 561/360/561 562/48/562 563/361/563
f 561/360/561 563/361/563 564/362/564
f 565/363/565 566/48/566 567/364/567
f 565/363/565 567/364/567 568/365/568
f 569/48/569 570/353/570 571/352/571
f 569/48/569 571/352/571 572/351/572
f 573/356/573 574/48/574 575/355/575
f 573/356/573 575/355/575 576/354/576
f 574/48/574 577/359/577 578/358/578
f 574/48/574 578/358/578 579/357/579
f 580/362/580 581/361/581 582/48/582
f 580/362/580 582/48/582 583/360/583
f 584/365/584 585/364/585 586/48/586
f 584/365/584 586/48/586 587/363/587
usemtl tex_814_lit
f 588/366/588 589/48/589 590/367/590
f 588/366/588 590/367/590 591/368/591
f 592/368/592 593/367/593 594/48/594
f 592/368/592 594/48/594 595/366/595
f 596/369/596 597/370/597 598/371/598
f 596/369/596 598/371/598 599/372/599
f 596/369/596 599/372/599 600/373/600
f 596/369/596 600/373/600 601/48/601
f 602/374/602 603/375/603 604/376/604
f 602/374/602 604/376/604 605/377/605
f 603/375/603 602/374/602 606/48/606
f 603/375/603 606/48/606 607/378/607
f 607/378/607 606/48/606 608/379/608
f 607/378/607 608/379/608 609/380/609
usemtl tex_654_lit_env_w11
f 610/381/610 611/382/611 612/383/612
f 610/381/610 612/383/612 613/384/613
f 614/385/614 615/385/615 616/386/616
f 614/385/614 616/386/616 617/386/617
f 618/387/618 619/387/619 620/388/620
f 618/387/618 620/388/620 621/388/621
f 622/389/622 623/390/623 624/391/624
f 622/389/622 624/391/624 625/392/625
f 626/389/626 627/390/627 628/391/628
f 626/389/626 628/391/628 629/392/629
usemtl tex_1275_lit
f 630/393/630 631/394/631 632/395/632
f 630/393/630 632/395/632 633/396/633
f 632/395/632 631/394/631 634/397/634
f 632/395/632 634/397/634 635/398/635
f 636/399/636 637/400/637 638/401/638
f 636/399/636 638/401/638 639/402/639
f 640/403/640 638/401/638 637/400/637
f 640/403/640 637/400/637 641/48/641
usemtl tex_1275_lit_ovl
f 642/404/642 643/405/643 644/406/644
f 642/404/642 644/406/644 645/48/645
usemtl tex_1275_lit
f 646/395/646 647/398/647 648/407/648
f 649/396/649 646/395/646 648/407/648
f 650/396/650 651/395/651 652/394/652
f 650/396/650 652/394/652 653/393/653
f 654/398/654 655/397/655 652/394/652
f 654/398/654 652/394/652 651/395/651
f 656/402/656 657/401/657 658/400/658
f 656/402/656 658/400/658 659/399/659
f 660/48/660 658/400/658 657/401/657
f 660/48/660 657/401/657 661/403/661
usemtl tex_1275_lit_ovl
f 662/48/662 663/406/663 664/405/664
f 662/48/662 664/405/664 665/404/665
usemtl tex_1275_lit
f 666/407/666 667/398/667 668/395/668
f 666/407/666 668/395/668 669/396/669
usemtl tex_1514_lit_ovl
f 670/48/670 671/48/671 672/48/672
f 670/48/670 672/48/672 673/48/673
f 674/48/674 675/48/675 676/48/676
f 674/48/674 676/48/676 677/48/677
usemtl tex_1514_lit
f 678/48/678 679/48/679 680/48/680
f 678/48/678 680/48/680 681/48/681
f 682/48/682 683/48/683 684/48/684
f 682/48/682 684/48/684 685/48/685
f 686/48/686 687/48/687 688/48/688
f 686/48/686 688/48/688 689/48/689
usemtl tex_668_lit_sec_ovl
f 690/408/690 691/409/691 692/410/692
f 690/408/690 692/410/692 693/411/693
f 694/412/694 695/413/695 696/414/696
f 694/412/694 696/414/696 697/415/697
usemtl tex_218_sw0_0_lit_ds
f 698/416/698 699/417/699 700/418/700
f 698/416/698 700/418/700 701/142/701
f 702/419/702 703/420/703 704/421/704
f 702/419/702 704/421/704 705/422/705
f 706/423/706 707/424/707 708/48/708
f 706/423/706 708/48/708 709/425/709
f 710/426/710 711/427/711 712/428/712
f 710/426/710 712/428/712 713/429/713
f 714/430/714 715/431/715 716/432/716
f 714/430/714 716/432/716 717/433/717
f 718/434/718 719/435/719 720/436/720
f 718/434/718 720/436/720 721/437/721
f 721/437/721 720/436/720 722/438/722
f 721/437/721 722/438/722 723/439/723
usemtl tex_1442_sw0_0_lit_ovl
f 724/440/724 725/441/725 726/48/726
f 724/440/724 726/48/726 727/142/727
usemtl tex_218_sw0_0_lit_sec_ovl
f 728/442/728 729/443/729 730/444/730
f 728/442/728 730/444/730 731/48/731
f 732/445/732 733/446/733 734/48/734
f 732/445/732 734/48/734 735/447/735
usemtl tex_1447_lit
f 736/448/736 737/449/737 738/450/738
f 736/448/736 738/450/738 739/451/739
f 740/448/740 741/449/741 742/450/742
f 740/448/740 742/450/742 743/451/743
f 744/448/744 745/449/745 746/450/746
f 744/448/744 746/450/746 747/451/747
f 748/448/748 749/449/749 750/450/750
f 748/448/748 750/450/750 751/451/751
f 752/448/752 753/449/753 754/450/754
f 752/448/752 754/450/754 755/451/755
f 756/448/756 757/449/757 758/450/758
f 756/448/756 758/450/758 759/451/759
f 760/448/760 761/449/761 762/450/762
f 760/448/760 762/450/762 763/451/763
f 764/448/764 765/449/765 766/450/766
f 764/448/764 766/450/766 767/451/767
f 768/448/768 769/449/769 770/450/770
f 768/448/768 770/450/770 771/451/771
f 772/448/772 773/449/773 774/450/774
f 772/448/772 774/450/774 775/451/775
usemtl tex_54_lit_sec
f 776/3/776 777/78/777 778/48/778
f 776/3/776 778/48/778 779/142/779
f 780/48/780 781/78/781 782/3/782
f 780/48/780 782/3/782 783/142/783
usemtl tex_1447_lit
f 784/448/784 785/449/785 786/450/786
f 784/448/784 786/450/786 787/451/787
f 788/448/788 789/449/789 790/450/790
f 788/448/788 790/450/790 791/451/791
f 792/448/792 793/449/793 794/450/794
f 792/448/792 794/450/794 795/451/795
f 796/448/796 797/449/797 798/450/798
f 796/448/796 798/450/798 799/451/799
f 800/448/800 801/449/801 802/450/802
f 800/448/800 802/450/802 803/451/803
f 804/448/804 805/449/805 806/450/806
f 804/448/804 806/450/806 807/451/807
f 808/448/808 809/449/809 810/450/810
f 808/448/808 810/450/810 811/451/811
f 812/448/812 813/449/813 814/450/814
f 812/448/812 814/450/814 815/451/815
f 816/448/816 817/449/817 818/450/818
f 816/448/816 818/450/818 819/451/819
f 820/448/820 821/449/821 822/450/822
f 820/448/820 822/450/822 823/451/823
usemtl tex_54_lit_sec_ovl
f 824/3/824 825/78/825 826/48/826
f 824/3/824 826/48/826 827/142/827
usemtl tex_54_lit_sec
f 828/48/828 829/78/829 830/3/830
f 828/48/828 830/3/830 831/142/831
usemtl tex_1447_lit
f 832/452/832 833/453/833 834/450/834
f 832/452/832 834/450/834 835/451/835
f 836/452/836 837/453/837 838/450/838
f 836/452/836 838/450/838 839/451/839
f 840/452/840 841/453/841 842/450/842
f 840/452/840 842/450/842 843/451/843
f 844/452/844 845/453/845 846/450/846
f 844/452/844 846/450/846 847/451/847
f 848/452/848 849/453/849 850/450/850
f 848/452/848 850/450/850 851/451/851
f 852/452/852 853/453/853 854/450/854
f 852/452/852 854/450/854 855/451/855
f 856/452/856 857/453/857 858/450/858
f 856/452/856 858/450/858 859/451/859
f 860/452/860 861/453/861 862/450/862
f 860/452/860 862/450/862 863/451/863
f 864/452/864 865/453/865 866/450/866
f 864/452/864 866/450/866 867/451/867
f 868/452/868 869/453/869 870/450/870
f 868/452/868 870/450/870 871/451/871
usemtl tex_54_lit_sec_ovl
f 872/3/872 873/78/873 874/48/874
f 872/3/872 874/48/874 875/142/875
f 876/48/876 877/78/877 878/3/878
f 876/48/876 878/3/878 879/142/879
usemtl tex_1447_lit
f 880/452/880 881/453/881 882/450/882
f 880/452/880 882/450/882 883/451/883
f 884/452/884 885/453/885 886/450/886
f 884/452/884 886/450/886 887/451/887
f 888/452/888 889/453/889 890/450/890
f 888/452/888 890/450/890 891/451/891
f 892/452/892 893/453/893 894/450/894
f 892/452/892 894/450/894 895/451/895
f 896/452/896 897/453/897 898/450/898
f 896/452/896 898/450/898 899/451/899
f 900/452/900 901/453/901 902/450/902
f 900/452/900 902/450/902 903/451/903
f 904/452/904 905/453/905 906/450/906
f 904/452/904 906/450/906 907/451/907
f 908/452/908 909/453/909 910/450/910
f 908/452/908 910/450/910 911/451/911
f 912/452/912 913/453/913 914/450/914
f 912/452/912 914/450/914 915/451/915
f 916/452/916 917/453/917 918/450/918
f 916/452/916 918/450/918 919/451/919
usemtl tex_54_lit_sec_ovl
f 920/3/920 921/78/921 922/48/922
f 920/3/920 922/48/922 923/142/923
usemtl tex_54_lit_sec
f 924/48/924 925/78/925 926/3/926
f 924/48/924 926/3/926 927/142/927
