mtllib Poil_drum2Z.mtl
v 0.0 661.0 345.0 1.000 1.000 1.000
v -244.0 661.0 244.0 1.000 1.000 1.000
v -244.0 -661.0 244.0 1.000 1.000 1.000
v 0.0 -661.0 345.0 1.000 1.000 1.000
v 0.0 661.0 -345.0 1.000 1.000 1.000
v 244.0 661.0 -244.0 1.000 1.000 1.000
v 244.0 -661.0 -244.0 1.000 1.000 1.000
v 0.0 -661.0 -345.0 1.000 1.000 1.000
v -244.0 661.0 244.0 1.000 1.000 1.000
v -345.0 661.0 0.0 1.000 1.000 1.000
v -345.0 -661.0 0.0 1.000 1.000 1.000
v -244.0 -661.0 244.0 1.000 1.000 1.000
v 0.0 -661.0 -345.0 1.000 1.000 1.000
v -244.0 -661.0 -244.0 1.000 1.000 1.000
v -244.0 661.0 -244.0 1.000 1.000 1.000
v 0.0 661.0 -345.0 1.000 1.000 1.000
v -244.0 -661.0 -244.0 1.000 1.000 1.000
v -345.0 -661.0 0.0 1.000 1.000 1.000
v -345.0 661.0 0.0 1.000 1.000 1.000
v -244.0 661.0 -244.0 1.000 1.000 1.000
v 345.0 661.0 0.0 1.000 1.000 1.000
v 244.0 661.0 244.0 1.000 1.000 1.000
v 244.0 -661.0 244.0 1.000 1.000 1.000
v 345.0 -661.0 0.0 1.000 1.000 1.000
v 244.0 661.0 244.0 1.000 1.000 1.000
v 0.0 661.0 345.0 1.000 1.000 1.000
v 0.0 -661.0 345.0 1.000 1.000 1.000
v 244.0 -661.0 244.0 1.000 1.000 1.000
v 244.0 661.0 -244.0 1.000 1.000 1.000
v 345.0 661.0 0.0 1.000 1.000 1.000
v 345.0 -661.0 0.0 1.000 1.000 1.000
v 244.0 -661.0 -244.0 1.000 1.000 1.000
v -244.0 -661.0 -244.0 1.000 1.000 1.000
v 0.0 -661.0 -345.0 1.000 1.000 1.000
v 244.0 -661.0 -244.0 1.000 1.000 1.000
v -345.0 -661.0 0.0 1.000 1.000 1.000
v 345.0 -661.0 0.0 1.000 1.000 1.000
v -244.0 -661.0 244.0 1.000 1.000 1.000
v 244.0 -661.0 244.0 1.000 1.000 1.000
v 0.0 -661.0 345.0 1.000 1.000 1.000
v 345.0 661.0 0.0 1.000 1.000 1.000
v -244.0 661.0 244.0 1.000 1.000 1.000
v 0.0 661.0 345.0 1.000 1.000 1.000
v 244.0 661.0 244.0 1.000 1.000 1.000
v 244.0 661.0 -244.0 1.000 1.000 1.000
v -345.0 661.0 0.0 1.000 1.000 1.000
v 0.0 661.0 -345.0 1.000 1.000 1.000
v -244.0 661.0 -244.0 1.000 1.000 1.000
v -24.0 174.0 335.0 1.000 1.000 1.000
v -220.0 174.0 254.0 1.000 1.000 1.000
v -220.0 -37.0 254.0 1.000 1.000 1.000
v -24.0 -37.0 335.0 1.000 1.000 1.000
v 24.0 175.0 -335.0 1.000 1.000 1.000
v 220.0 175.0 -254.0 1.000 1.000 1.000
v 220.0 -37.0 -254.0 1.000 1.000 1.000
v 24.0 -37.0 -335.0 1.000 1.000 1.000
vt 1.0000 0.0000
vt 0.0000 0.0000
vt 0.0000 1.0000
vt 1.0000 1.0000
vt 0.0273 0.2988
vt 0.0273 0.6943
vt 0.3018 0.9746
vt 0.3018 0.0215
vt 0.6885 0.9766
vt 0.6885 0.0234
vt 0.9629 0.6992
vt 0.9629 0.3047
vt 0.6924 0.9688
vt 0.6924 0.0459
vt 0.9658 0.3164
vt 0.9658 0.6992
vt 0.3076 0.9688
vt 0.3076 0.0459
vt 0.0352 0.6992
vt 0.0352 0.3164
vn -0.382 0.000 0.924
vn -0.382 0.000 0.924
vn -0.382 0.000 0.924
vn -0.382 0.000 0.924
vn -0.577 -0.577 -0.577
vn -0.577 -0.577 -0.577
vn -0.577 -0.577 -0.577
vn -0.577 -0.577 -0.577
vn -0.924 0.000 0.382
vn -0.924 0.000 0.382
vn -0.924 0.000 0.382
vn -0.924 0.000 0.382
vn -0.577 -0.577 -0.577
vn 0.577 0.577 0.577
vn 0.577 0.577 0.577
vn -0.577 -0.577 -0.577
vn 0.577 0.577 0.577
vn -0.924 0.000 -0.382
vn -0.924 0.000 -0.382
vn 0.577 0.577 0.577
vn 0.577 0.577 0.577
vn 0.924 0.000 0.382
vn 0.924 0.000 0.382
vn 0.577 0.577 0.577
vn 0.382 0.000 0.924
vn 0.382 0.000 0.924
vn 0.382 0.000 0.924
vn 0.382 0.000 0.924
vn -0.577 -0.577 -0.577
vn 0.577 0.577 0.577
vn 0.577 0.577 0.577
vn -0.577 -0.577 -0.577
vn -0.577 -0.577 -0.577
vn -0.577 -0.577 -0.577
vn -0.577 -0.577 -0.577
vn -0.577 -0.577 -0.577
vn -0.577 -0.577 -0.577
vn -0.577 -0.577 -0.577
vn -0.577 -0.577 -0.577
vn -0.577 -0.577 -0.577
vn 0.000 1.000 0.000
vn 0.000 1.000 0.000
vn 0.000 1.000 0.000
vn 0.000 1.000 0.000
vn 0.000 1.000 0.000
vn 0.000 1.000 0.000
vn 0.000 1.000 0.000
vn 0.000 1.000 0.000
vn -0.382 0.000 0.924
vn -0.382 0.000 0.924
vn -0.382 0.000 0.924
vn -0.382 0.000 0.924
vn -0.577 -0.577 -0.577
vn -0.577 -0.577 -0.577
vn -0.577 -0.577 -0.577
vn -0.577 -0.577 -0.577
usemtl tex_1001_lit_ds_w01
f 1/1/1 2/2/2 3/3/3
f 1/1/1 3/3/3 4/4/4
f 5/1/5 6/2/6 7/3/7
f 5/1/5 7/3/7 8/4/8
usemtl tex_1000_lit_ds_w01
f 9/1/9 10/2/10 11/3/11
f 9/1/9 11/3/11 12/4/12
f 13/3/13 14/4/14 15/1/15
f 13/3/13 15/1/15 16/2/16
f 17/3/17 18/4/18 19/1/19
f 17/3/17 19/1/19 20/2/20
f 21/1/21 22/2/22 23/3/23
f 21/1/21 23/3/23 24/4/24
f 25/1/25 26/2/26 27/3/27
f 25/1/25 27/3/27 28/4/28
f 29/1/29 30/2/30 31/3/31
f 29/1/29 31/3/31 32/4/32
usemtl tex_587_lit_ds
f 33/5/33 34/6/34 35/7/35
f 33/5/33 35/7/35 36/8/36
f 36/8/36 35/7/35 37/9/37
f 36/8/36 37/9/37 38/10/38
f 38/10/38 37/9/37 39/11/39
f 38/10/38 39/11/39 40/12/40
f 41/13/41 42/14/42 43/15/43
f 41/13/41 43/15/43 44/16/44
f 45/17/45 46/18/46 42/14/42
f 45/17/45 42/14/42 41/13/41
f 47/19/47 48/20/48 46/18/46
f 47/19/47 46/18/46 45/17/45
usemtl tex_1259_lit_ds_ovl
f 49/1/49 50/2/50 51/3/51
f 49/1/49 51/3/51 52/4/52
f 53/1/53 54/2/54 55/3/55
f 53/1/53 55/3/55 56/4/56
