mtllib PplaneZ.mtl
v -1373.0 -1325.0 3993.0 1.000 1.000 1.000
v -1068.0 -1325.0 3993.0 1.000 1.000 1.000
v -1068.0 -1191.0 3670.0 1.000 1.000 1.000
v -1373.0 -1191.0 3670.0 1.000 1.000 1.000
v -1373.0 -1191.0 3670.0 1.000 1.000 1.000
v -1068.0 -1191.0 3670.0 1.000 1.000 1.000
v -1068.0 -1325.0 3346.0 1.000 1.000 1.000
v -1373.0 -1325.0 3346.0 1.000 1.000 1.000
v -1373.0 -1325.0 3346.0 1.000 1.000 1.000
v -1068.0 -1325.0 3346.0 1.000 1.000 1.000
v -1068.0 -1649.0 3212.0 1.000 1.000 1.000
v -1373.0 -1649.0 3212.0 1.000 1.000 1.000
v -1373.0 -1649.0 3212.0 1.000 1.000 1.000
v -1068.0 -1649.0 3212.0 1.000 1.000 1.000
v -1068.0 -1972.0 3346.0 1.000 1.000 1.000
v -1373.0 -1972.0 3346.0 1.000 1.000 1.000
v -1373.0 -1972.0 3346.0 1.000 1.000 1.000
v -1068.0 -1972.0 3346.0 1.000 1.000 1.000
v -1068.0 -2106.0 3670.0 1.000 1.000 1.000
v -1373.0 -2106.0 3670.0 1.000 1.000 1.000
v -1373.0 -2106.0 3670.0 1.000 1.000 1.000
v -1068.0 -2106.0 3670.0 1.000 1.000 1.000
v -1068.0 -1972.0 3993.0 1.000 1.000 1.000
v -1373.0 -1972.0 3993.0 1.000 1.000 1.000
v -1373.0 -1972.0 3993.0 1.000 1.000 1.000
v -1068.0 -1972.0 3993.0 1.000 1.000 1.000
v -1068.0 -1649.0 4127.0 1.000 1.000 1.000
v -1373.0 -1649.0 4127.0 1.000 1.000 1.000
v -1373.0 -1649.0 4127.0 1.000 1.000 1.000
v -1068.0 -1649.0 4127.0 1.000 1.000 1.000
v -1068.0 -1325.0 3993.0 1.000 1.000 1.000
v -1373.0 -1325.0 3993.0 1.000 1.000 1.000
v 1372.0 -1191.0 3670.0 1.000 1.000 1.000
v 1067.0 -1191.0 3670.0 1.000 1.000 1.000
v 1067.0 -1325.0 3993.0 1.000 1.000 1.000
v 1372.0 -1325.0 3993.0 1.000 1.000 1.000
v 1372.0 -1325.0 3346.0 1.000 1.000 1.000
v 1067.0 -1325.0 3346.0 1.000 1.000 1.000
v 1067.0 -1191.0 3670.0 1.000 1.000 1.000
v 1372.0 -1191.0 3670.0 1.000 1.000 1.000
v 1372.0 -1649.0 3212.0 1.000 1.000 1.000
v 1067.0 -1649.0 3212.0 1.000 1.000 1.000
v 1067.0 -1325.0 3346.0 1.000 1.000 1.000
v 1372.0 -1325.0 3346.0 1.000 1.000 1.000
v 1372.0 -1972.0 3346.0 1.000 1.000 1.000
v 1067.0 -1972.0 3346.0 1.000 1.000 1.000
v 1067.0 -1649.0 3212.0 1.000 1.000 1.000
v 1372.0 -1649.0 3212.0 1.000 1.000 1.000
v 1372.0 -2106.0 3670.0 1.000 1.000 1.000
v 1067.0 -2106.0 3670.0 1.000 1.000 1.000
v 1067.0 -1972.0 3346.0 1.000 1.000 1.000
v 1372.0 -1972.0 3346.0 1.000 1.000 1.000
v 1372.0 -1972.0 3993.0 1.000 1.000 1.000
v 1067.0 -1972.0 3993.0 1.000 1.000 1.000
v 1067.0 -2106.0 3670.0 1.000 1.000 1.000
v 1372.0 -2106.0 3670.0 1.000 1.000 1.000
v 1372.0 -1649.0 4127.0 1.000 1.000 1.000
v 1067.0 -1649.0 4127.0 1.000 1.000 1.000
v 1067.0 -1972.0 3993.0 1.000 1.000 1.000
v 1372.0 -1972.0 3993.0 1.000 1.000 1.000
v 1372.0 -1325.0 3993.0 1.000 1.000 1.000
v 1067.0 -1325.0 3993.0 1.000 1.000 1.000
v 1067.0 -1649.0 4127.0 1.000 1.000 1.000
v 1372.0 -1649.0 4127.0 1.000 1.000 1.000
v 381.0 944.0 3975.0 1.000 1.000 1.000
v 762.0 944.0 3975.0 1.000 1.000 1.000
v 801.0 867.0 3822.0 1.000 1.000 1.000
v 400.0 867.0 3822.0 1.000 1.000 1.000
v -534.0 867.0 7406.0 1.000 1.000 1.000
v 534.0 867.0 7406.0 1.000 1.000 1.000
v 762.0 944.0 3975.0 1.000 1.000 1.000
v -763.0 944.0 3975.0 1.000 1.000 1.000
v -534.0 867.0 7406.0 1.000 1.000 1.000
v -763.0 944.0 3975.0 1.000 1.000 1.000
v -915.0 791.0 3670.0 1.000 1.000 1.000
v -686.0 791.0 7330.0 1.000 1.000 1.000
v 915.0 791.0 3670.0 1.000 1.000 1.000
v 762.0 944.0 3975.0 1.000 1.000 1.000
v 534.0 867.0 7406.0 1.000 1.000 1.000
v 686.0 791.0 7330.0 1.000 1.000 1.000
v -686.0 791.0 7330.0 1.000 1.000 1.000
v -915.0 791.0 3670.0 1.000 1.000 1.000
v -915.0 -581.0 4585.0 1.000 1.000 1.000
v -686.0 -48.0 7330.0 1.000 1.000 1.000
v 686.0 -48.0 7330.0 1.000 1.000 1.000
v 915.0 -581.0 4585.0 1.000 1.000 1.000
v 915.0 791.0 3670.0 1.000 1.000 1.000
v 686.0 791.0 7330.0 1.000 1.000 1.000
v -610.0 -276.0 7025.0 1.000 1.000 1.000
v 610.0 -276.0 7025.0 1.000 1.000 1.000
v 915.0 -581.0 4585.0 1.000 1.000 1.000
v 610.0 -276.0 7025.0 1.000 1.000 1.000
v -610.0 -276.0 7025.0 1.000 1.000 1.000
v -915.0 -581.0 4585.0 1.000 1.000 1.000
v 915.0 -276.0 3670.0 1.000 1.000 1.000
v 915.0 -581.0 1535.0 1.000 1.000 1.000
v 915.0 -276.0 2450.0 1.000 1.000 1.000
v 915.0 -276.0 3670.0 1.000 1.000 1.000
v 915.0 -581.0 1535.0 1.000 1.000 1.000
v 915.0 639.0 2221.0 1.000 1.000 1.000
v 915.0 791.0 1916.0 1.000 1.000 1.000
v 915.0 1706.0 2221.0 1.000 1.000 1.000
v 915.0 1554.0 1916.0 1.000 1.000 1.000
v 76.0 639.0 -7310.0 1.000 1.000 1.000
v 381.0 944.0 -6014.0 1.000 1.000 1.000
v 229.0 334.0 -6090.0 1.000 1.000 1.000
v 0.0 944.0 -7920.0 1.000 1.000 1.000
v 915.0 867.0 925.0 1.000 1.000 1.000
v 686.0 1706.0 620.0 1.000 1.000 1.000
v 915.0 1554.0 1230.0 1.000 1.000 1.000
v 610.0 1096.0 -1134.0 1.000 1.000 1.000
v 610.0 -505.0 -372.0 1.000 1.000 1.000
v 381.0 944.0 -5404.0 1.000 1.000 1.000
v 610.0 1096.0 -1134.0 1.000 1.000 1.000
v 610.0 -505.0 -372.0 1.000 1.000 1.000
v 229.0 334.0 -6090.0 1.000 1.000 1.000
v 381.0 944.0 -6014.0 1.000 1.000 1.000
v 915.0 1706.0 2221.0 1.000 1.000 1.000
v 915.0 1554.0 1916.0 1.000 1.000 1.000
v 915.0 1554.0 1230.0 1.000 1.000 1.000
v 686.0 1706.0 620.0 1.000 1.000 1.000
v -915.0 -581.0 1535.0 1.000 1.000 1.000
v 915.0 -581.0 1535.0 1.000 1.000 1.000
v 915.0 -581.0 4585.0 1.000 1.000 1.000
v -915.0 -581.0 4585.0 1.000 1.000 1.000
v -610.0 -505.0 -372.0 1.000 1.000 1.000
v 610.0 -505.0 -372.0 1.000 1.000 1.000
v -229.0 334.0 -6090.0 1.000 1.000 1.000
v 229.0 334.0 -6090.0 1.000 1.000 1.000
v 610.0 -505.0 -372.0 1.000 1.000 1.000
v -610.0 -505.0 -372.0 1.000 1.000 1.000
v -76.0 639.0 -7310.0 1.000 1.000 1.000
v 76.0 639.0 -7310.0 1.000 1.000 1.000
v -915.0 -276.0 3670.0 1.000 1.000 1.000
v -915.0 -581.0 4585.0 1.000 1.000 1.000
v -915.0 791.0 3670.0 1.000 1.000 1.000
v -915.0 -581.0 1535.0 1.000 1.000 1.000
v -915.0 -276.0 2450.0 1.000 1.000 1.000
v -915.0 639.0 2221.0 1.000 1.000 1.000
v -915.0 791.0 1916.0 1.000 1.000 1.000
v -915.0 867.0 925.0 1.000 1.000 1.000
v -915.0 1706.0 2221.0 1.000 1.000 1.000
v -915.0 1554.0 1916.0 1.000 1.000 1.000
v -915.0 1554.0 1916.0 1.000 1.000 1.000
v -915.0 1706.0 2221.0 1.000 1.000 1.000
v -915.0 1554.0 1230.0 1.000 1.000 1.000
v -686.0 1706.0 620.0 1.000 1.000 1.000
v -915.0 867.0 925.0 1.000 1.000 1.000
v -610.0 -505.0 -372.0 1.000 1.000 1.000
v -915.0 -581.0 1535.0 1.000 1.000 1.000
v -610.0 1096.0 -1134.0 1.000 1.000 1.000
v -381.0 944.0 -5404.0 1.000 1.000 1.000
v -229.0 334.0 -6090.0 1.000 1.000 1.000
v -381.0 944.0 -6014.0 1.000 1.000 1.000
v -76.0 639.0 -7310.0 1.000 1.000 1.000
v 0.0 944.0 -7920.0 1.000 1.000 1.000
v 76.0 639.0 -7310.0 1.000 1.000 1.000
v -76.0 639.0 -7310.0 1.000 1.000 1.000
v 0.0 944.0 -7920.0 1.000 1.000 1.000
v -686.0 1706.0 620.0 1.000 1.000 1.000
v 686.0 1706.0 620.0 1.000 1.000 1.000
v 0.0 1172.0 -1744.0 1.000 1.000 1.000
v -610.0 1096.0 -1134.0 1.000 1.000 1.000
v 610.0 1096.0 -1134.0 1.000 1.000 1.000
v 0.0 1020.0 -5099.0 1.000 1.000 1.000
v -381.0 944.0 -5404.0 1.000 1.000 1.000
v 381.0 944.0 -5404.0 1.000 1.000 1.000
v -915.0 1706.0 3365.0 1.000 1.000 1.000
v -915.0 1706.0 2221.0 1.000 1.000 1.000
v -915.0 1554.0 2373.0 1.000 1.000 1.000
v -915.0 1554.0 3288.0 1.000 1.000 1.000
v -915.0 791.0 3517.0 1.000 1.000 1.000
v -915.0 791.0 3670.0 1.000 1.000 1.000
v -915.0 639.0 2221.0 1.000 1.000 1.000
v -915.0 791.0 2373.0 1.000 1.000 1.000
v -915.0 -276.0 3670.0 1.000 1.000 1.000
v -915.0 791.0 3670.0 1.000 1.000 1.000
v -915.0 791.0 3517.0 1.000 1.000 1.000
v -915.0 -276.0 2450.0 1.000 1.000 1.000
v -915.0 486.0 2678.0 1.000 1.000 1.000
v -915.0 715.0 2678.0 1.000 1.000 1.000
v -915.0 791.0 2373.0 1.000 1.000 1.000
v -915.0 715.0 2373.0 1.000 1.000 1.000
v -915.0 639.0 2221.0 1.000 1.000 1.000
v -915.0 486.0 2373.0 1.000 1.000 1.000
v 915.0 1554.0 3288.0 1.000 1.000 1.000
v 915.0 1554.0 2373.0 1.000 1.000 1.000
v 915.0 1706.0 2221.0 1.000 1.000 1.000
v 915.0 1706.0 3365.0 1.000 1.000 1.000
v 915.0 791.0 3670.0 1.000 1.000 1.000
v 915.0 791.0 3517.0 1.000 1.000 1.000
v 915.0 1706.0 2221.0 1.000 1.000 1.000
v 915.0 1554.0 2373.0 1.000 1.000 1.000
v 915.0 791.0 2373.0 1.000 1.000 1.000
v 915.0 639.0 2221.0 1.000 1.000 1.000
v 915.0 791.0 3517.0 1.000 1.000 1.000
v 915.0 791.0 3670.0 1.000 1.000 1.000
v 915.0 -276.0 3670.0 1.000 1.000 1.000
v 915.0 -276.0 2450.0 1.000 1.000 1.000
v 915.0 486.0 2678.0 1.000 1.000 1.000
v 915.0 715.0 2678.0 1.000 1.000 1.000
v 915.0 715.0 2373.0 1.000 1.000 1.000
v 915.0 486.0 2373.0 1.000 1.000 1.000
v -915.0 -581.0 4585.0 1.000 1.000 1.000
v -915.0 -581.0 3441.0 1.000 1.000 1.000
v -1068.0 -1649.0 3441.0 1.000 1.000 1.000
v -1068.0 -1649.0 3975.0 1.000 1.000 1.000
v -763.0 -581.0 4127.0 1.000 1.000 1.000
v -915.0 -581.0 4585.0 1.000 1.000 1.000
v -1068.0 -1649.0 3975.0 1.000 1.000 1.000
v -839.0 -581.0 3593.0 1.000 1.000 1.000
v -1068.0 -1649.0 3441.0 1.000 1.000 1.000
v -915.0 -581.0 3441.0 1.000 1.000 1.000
v 1067.0 -1649.0 3975.0 1.000 1.000 1.000
v 1067.0 -1649.0 3441.0 1.000 1.000 1.000
v 915.0 -581.0 3441.0 1.000 1.000 1.000
v 915.0 -581.0 4585.0 1.000 1.000 1.000
v 762.0 -581.0 4127.0 1.000 1.000 1.000
v 839.0 -581.0 3593.0 1.000 1.000 1.000
v 2745.0 944.0 -7615.0 1.000 1.000 1.000
v 381.0 944.0 -6014.0 1.000 1.000 1.000
v 0.0 944.0 -7920.0 1.000 1.000 1.000
v 2745.0 944.0 -6395.0 1.000 1.000 1.000
v 0.0 944.0 -7920.0 1.000 1.000 1.000
v -381.0 944.0 -6014.0 1.000 1.000 1.000
v -2745.0 944.0 -7615.0 1.000 1.000 1.000
v -2745.0 944.0 -6395.0 1.000 1.000 1.000
v -381.0 944.0 -5404.0 1.000 1.000 1.000
v 2745.0 944.0 -6395.0 1.000 1.000 1.000
v 381.0 944.0 -5404.0 1.000 1.000 1.000
v 381.0 944.0 -6014.0 1.000 1.000 1.000
v -2745.0 944.0 -7615.0 1.000 1.000 1.000
v -2745.0 944.0 -6395.0 1.000 1.000 1.000
v -2745.0 1096.0 -6700.0 1.000 1.000 1.000
v -2745.0 1096.0 -6700.0 1.000 1.000 1.000
v -229.0 1096.0 -5785.0 1.000 1.000 1.000
v -229.0 1096.0 -5785.0 1.000 1.000 1.000
v -381.0 944.0 -5404.0 1.000 1.000 1.000
v 0.0 1020.0 -5099.0 1.000 1.000 1.000
v 2745.0 1096.0 -6700.0 1.000 1.000 1.000
v 2745.0 944.0 -6395.0 1.000 1.000 1.000
v 2745.0 944.0 -7615.0 1.000 1.000 1.000
v 381.0 944.0 -5404.0 1.000 1.000 1.000
v 2745.0 944.0 -6395.0 1.000 1.000 1.000
v 2745.0 1096.0 -6700.0 1.000 1.000 1.000
v 229.0 1096.0 -5785.0 1.000 1.000 1.000
v 2745.0 944.0 -7615.0 1.000 1.000 1.000
v 0.0 944.0 -7920.0 1.000 1.000 1.000
v 0.0 1020.0 -5099.0 1.000 1.000 1.000
v 381.0 944.0 -5404.0 1.000 1.000 1.000
v 229.0 1096.0 -5785.0 1.000 1.000 1.000
v -76.0 3307.0 -6700.0 1.000 1.000 1.000
v -229.0 1096.0 -5785.0 1.000 1.000 1.000
v 0.0 1020.0 -5099.0 1.000 1.000 1.000
v 0.0 1020.0 -5099.0 1.000 1.000 1.000
v 229.0 1096.0 -5785.0 1.000 1.000 1.000
v 76.0 3307.0 -6700.0 1.000 1.000 1.000
v 0.0 3384.0 -6548.0 1.000 1.000 1.000
v -76.0 3307.0 -6700.0 1.000 1.000 1.000
v 0.0 3384.0 -8149.0 1.000 1.000 1.000
v -76.0 3307.0 -6700.0 1.000 1.000 1.000
v 0.0 3384.0 -6548.0 1.000 1.000 1.000
v 76.0 3307.0 -6700.0 1.000 1.000 1.000
v -229.0 1096.0 -5785.0 1.000 1.000 1.000
v -76.0 3307.0 -6700.0 1.000 1.000 1.000
v 0.0 3384.0 -8149.0 1.000 1.000 1.000
v 0.0 944.0 -7920.0 1.000 1.000 1.000
v 76.0 3307.0 -6700.0 1.000 1.000 1.000
v 229.0 1096.0 -5785.0 1.000 1.000 1.000
v 2669.0 867.0 -7997.0 1.000 1.000 1.000
v 381.0 867.0 -8302.0 1.000 1.000 1.000
v 0.0 944.0 -7920.0 1.000 1.000 1.000
v 2745.0 944.0 -7615.0 1.000 1.000 1.000
v -2745.0 944.0 -7615.0 1.000 1.000 1.000
v -381.0 867.0 -8302.0 1.000 1.000 1.000
v -2669.0 867.0 -7997.0 1.000 1.000 1.000
v 0.0 944.0 -7920.0 1.000 1.000 1.000
v 0.0 3384.0 -8149.0 1.000 1.000 1.000
v 0.0 3384.0 -8530.0 1.000 1.000 1.000
v 0.0 1249.0 -8378.0 1.000 1.000 1.000
v 915.0 1706.0 3365.0 1.000 1.000 1.000
v 915.0 1706.0 2221.0 1.000 1.000 1.000
v 4575.0 1706.0 2221.0 1.000 1.000 1.000
v 686.0 1706.0 620.0 1.000 1.000 1.000
v 8540.0 1706.0 3212.0 1.000 1.000 1.000
v 8540.0 1706.0 848.0 1.000 1.000 1.000
v 8540.0 1859.0 1763.0 1.000 1.000 1.000
v 8540.0 1935.0 2678.0 1.000 1.000 1.000
v 8540.0 1859.0 3136.0 1.000 1.000 1.000
v -686.0 1706.0 620.0 1.000 1.000 1.000
v 0.0 2011.0 2678.0 1.000 1.000 1.000
v 686.0 1706.0 620.0 1.000 1.000 1.000
v 915.0 1706.0 3365.0 1.000 1.000 1.000
v 0.0 1935.0 3288.0 1.000 1.000 1.000
v -915.0 1706.0 3365.0 1.000 1.000 1.000
v -8540.0 1706.0 3212.0 1.000 1.000 1.000
v -8540.0 1859.0 3136.0 1.000 1.000 1.000
v -8540.0 1935.0 2678.0 1.000 1.000 1.000
v -8540.0 1859.0 1763.0 1.000 1.000 1.000
v -8540.0 1706.0 848.0 1.000 1.000 1.000
v -915.0 1706.0 2221.0 1.000 1.000 1.000
v -4575.0 1706.0 2221.0 1.000 1.000 1.000
v -686.0 1706.0 620.0 1.000 1.000 1.000
v -915.0 1706.0 3365.0 1.000 1.000 1.000
v -7616.0 1875.0 1862.0 1.000 1.000 1.000
v 0.0 2011.0 2678.0 1.000 1.000 1.000
v -7616.0 1841.0 1629.0 1.000 1.000 1.000
v -8540.0 1859.0 1763.0 1.000 1.000 1.000
v -7616.0 1875.0 1862.0 1.000 1.000 1.000
v -7616.0 1841.0 1629.0 1.000 1.000 1.000
v -7616.0 1706.0 821.0 1.000 1.000 1.000
v -7616.0 1706.0 821.0 1.000 1.000 1.000
v -8540.0 1706.0 848.0 1.000 1.000 1.000
v -7616.0 1943.0 2678.0 1.000 1.000 1.000
v -8540.0 1935.0 2678.0 1.000 1.000 1.000
v -7616.0 1943.0 2678.0 1.000 1.000 1.000
v 0.0 2011.0 2678.0 1.000 1.000 1.000
v -7616.0 1943.0 2678.0 1.000 1.000 1.000
v -7616.0 1875.0 3086.0 1.000 1.000 1.000
v -7616.0 1943.0 2678.0 1.000 1.000 1.000
v -8540.0 1935.0 2678.0 1.000 1.000 1.000
v -8540.0 1859.0 3136.0 1.000 1.000 1.000
v -7616.0 1875.0 3086.0 1.000 1.000 1.000
v 0.0 1935.0 3288.0 1.000 1.000 1.000
v -7616.0 1867.0 3152.0 1.000 1.000 1.000
v -7616.0 1867.0 3152.0 1.000 1.000 1.000
v -7616.0 1731.0 3220.0 1.000 1.000 1.000
v -8540.0 1706.0 3212.0 1.000 1.000 1.000
v -7616.0 1731.0 3220.0 1.000 1.000 1.000
v -915.0 1706.0 3365.0 1.000 1.000 1.000
v -7616.0 1706.0 3231.0 1.000 1.000 1.000
v -7616.0 1706.0 3231.0 1.000 1.000 1.000
v -4575.0 1706.0 2221.0 1.000 1.000 1.000
v -7616.0 1706.0 2981.0 1.000 1.000 1.000
v -7616.0 1706.0 1168.0 1.000 1.000 1.000
v -7616.0 1706.0 2981.0 1.000 1.000 1.000
v -8540.0 1706.0 3212.0 1.000 1.000 1.000
v -8540.0 1706.0 848.0 1.000 1.000 1.000
v -7616.0 1706.0 1168.0 1.000 1.000 1.000
v -7616.0 1706.0 821.0 1.000 1.000 1.000
v -686.0 1706.0 620.0 1.000 1.000 1.000
v -7616.0 1706.0 821.0 1.000 1.000 1.000
v -915.0 1706.0 3365.0 1.000 1.000 1.000
v -7616.0 1706.0 3231.0 1.000 1.000 1.000
v -7616.0 1706.0 3231.0 1.000 1.000 1.000
v 8540.0 1706.0 848.0 1.000 1.000 1.000
v 7501.0 1706.0 1208.0 1.000 1.000 1.000
v 7501.0 1706.0 818.0 1.000 1.000 1.000
v 7501.0 1706.0 1208.0 1.000 1.000 1.000
v 4575.0 1706.0 2221.0 1.000 1.000 1.000
v 686.0 1706.0 620.0 1.000 1.000 1.000
v 7501.0 1706.0 818.0 1.000 1.000 1.000
v 7501.0 1706.0 1208.0 1.000 1.000 1.000
v 8540.0 1706.0 848.0 1.000 1.000 1.000
v 8540.0 1706.0 3212.0 1.000 1.000 1.000
v 7501.0 1706.0 2952.0 1.000 1.000 1.000
v 7501.0 1706.0 2952.0 1.000 1.000 1.000
v 7501.0 1706.0 3233.0 1.000 1.000 1.000
v 915.0 1706.0 3365.0 1.000 1.000 1.000
v 7501.0 1706.0 3233.0 1.000 1.000 1.000
v 7501.0 1944.0 2678.0 1.000 1.000 1.000
v 8540.0 1935.0 2678.0 1.000 1.000 1.000
v 8540.0 1859.0 1763.0 1.000 1.000 1.000
v 7501.0 1877.0 1875.0 1.000 1.000 1.000
v 0.0 2011.0 2678.0 1.000 1.000 1.000
v 7501.0 1944.0 2678.0 1.000 1.000 1.000
v 7501.0 1877.0 1875.0 1.000 1.000 1.000
v 7501.0 1877.0 1875.0 1.000 1.000 1.000
v 8540.0 1859.0 1763.0 1.000 1.000 1.000
v 7501.0 1839.0 1612.0 1.000 1.000 1.000
v 7501.0 1839.0 1612.0 1.000 1.000 1.000
v 686.0 1706.0 620.0 1.000 1.000 1.000
v 8540.0 1706.0 848.0 1.000 1.000 1.000
v 7501.0 1706.0 818.0 1.000 1.000 1.000
v 7501.0 1706.0 818.0 1.000 1.000 1.000
v 8540.0 1859.0 3136.0 1.000 1.000 1.000
v 8540.0 1935.0 2678.0 1.000 1.000 1.000
v 7501.0 1944.0 2678.0 1.000 1.000 1.000
v 7501.0 1877.0 3080.0 1.000 1.000 1.000
v 7501.0 1877.0 3080.0 1.000 1.000 1.000
v 8540.0 1859.0 3136.0 1.000 1.000 1.000
v 7501.0 1877.0 3080.0 1.000 1.000 1.000
v 7501.0 1868.0 3154.0 1.000 1.000 1.000
v 7501.0 1877.0 3080.0 1.000 1.000 1.000
v 0.0 2011.0 2678.0 1.000 1.000 1.000
v 0.0 1935.0 3288.0 1.000 1.000 1.000
v 7501.0 1868.0 3154.0 1.000 1.000 1.000
v 8540.0 1706.0 3212.0 1.000 1.000 1.000
v 7501.0 1734.0 3221.0 1.000 1.000 1.000
v 7501.0 1734.0 3221.0 1.000 1.000 1.000
v 7501.0 1706.0 3233.0 1.000 1.000 1.000
v 915.0 1706.0 3365.0 1.000 1.000 1.000
v 7501.0 1706.0 3233.0 1.000 1.000 1.000
v 8387.0 1477.0 543.0 1.000 1.000 1.000
v 7501.0 1467.0 511.0 1.000 1.000 1.000
v 7501.0 1706.0 818.0 1.000 1.000 1.000
v 8387.0 1477.0 543.0 1.000 1.000 1.000
v 7501.0 1706.0 818.0 1.000 1.000 1.000
v 8540.0 1706.0 848.0 1.000 1.000 1.000
v 7501.0 1467.0 511.0 1.000 1.000 1.000
v 2059.0 1401.0 315.0 1.000 1.000 1.000
v 686.0 1706.0 620.0 1.000 1.000 1.000
v 7501.0 1706.0 818.0 1.000 1.000 1.000
v -7616.0 1706.0 821.0 1.000 1.000 1.000
v -686.0 1706.0 620.0 1.000 1.000 1.000
v -2059.0 1401.0 315.0 1.000 1.000 1.000
v -7616.0 1468.0 515.0 1.000 1.000 1.000
v -8540.0 1706.0 848.0 1.000 1.000 1.000
v -7616.0 1706.0 821.0 1.000 1.000 1.000
v -7616.0 1468.0 515.0 1.000 1.000 1.000
v -8388.0 1477.0 543.0 1.000 1.000 1.000
v 791.0 410.0 6872.0 1.000 1.000 1.000
v 944.0 410.0 5195.0 1.000 1.000 1.000
v 868.0 562.0 5195.0 1.000 1.000 1.000
v 715.0 562.0 7025.0 1.000 1.000 1.000
v 715.0 257.0 7025.0 1.000 1.000 1.000
v 868.0 257.0 5195.0 1.000 1.000 1.000
v -714.0 562.0 7025.0 1.000 1.000 1.000
v -866.0 562.0 5195.0 1.000 1.000 1.000
v -943.0 410.0 5195.0 1.000 1.000 1.000
v -790.0 410.0 6872.0 1.000 1.000 1.000
v -866.0 257.0 5195.0 1.000 1.000 1.000
v -714.0 257.0 7025.0 1.000 1.000 1.000
v 0.0 -124.0 -7005.0 1.000 1.000 1.000
v 0.0 29.0 -7005.0 1.000 1.000 1.000
v 0.0 486.0 -6700.0 1.000 1.000 1.000
v 0.0 334.0 -6090.0 1.000 1.000 1.000
v 0.0 -276.0 -7463.0 1.000 1.000 1.000
v 0.0 -200.0 -7463.0 1.000 1.000 1.000
v 0.0 -200.0 -7768.0 1.000 1.000 1.000
v -915.0 486.0 2678.0 1.000 1.000 1.000
v -915.0 715.0 2678.0 1.000 1.000 1.000
v -915.0 715.0 2373.0 1.000 1.000 1.000
v -915.0 486.0 2373.0 1.000 1.000 1.000
v 915.0 486.0 2373.0 1.000 1.000 1.000
v 915.0 715.0 2373.0 1.000 1.000 1.000
v 915.0 715.0 2678.0 1.000 1.000 1.000
v 915.0 486.0 2678.0 1.000 1.000 1.000
v -839.0 791.0 848.0 1.000 1.000 1.000
v -839.0 -276.0 1077.0 1.000 1.000 1.000
v -686.0 -276.0 620.0 1.000 1.000 1.000
v -534.0 486.0 10.0 1.000 1.000 1.000
v -686.0 -276.0 620.0 1.000 1.000 1.000
v 686.0 -276.0 620.0 1.000 1.000 1.000
v 534.0 486.0 10.0 1.000 1.000 1.000
v -534.0 486.0 10.0 1.000 1.000 1.000
v -839.0 791.0 848.0 1.000 1.000 1.000
v -534.0 486.0 10.0 1.000 1.000 1.000
v -686.0 1630.0 620.0 1.000 1.000 1.000
v -822.0 1630.0 1153.0 1.000 1.000 1.000
v 686.0 1630.0 620.0 1.000 1.000 1.000
v -686.0 1630.0 620.0 1.000 1.000 1.000
v -534.0 486.0 10.0 1.000 1.000 1.000
v 534.0 486.0 10.0 1.000 1.000 1.000
v 839.0 1630.0 1153.0 1.000 1.000 1.000
v -822.0 1630.0 1153.0 1.000 1.000 1.000
v -686.0 1630.0 620.0 1.000 1.000 1.000
v 686.0 1630.0 620.0 1.000 1.000 1.000
v 839.0 1706.0 2145.0 1.000 1.000 1.000
v -839.0 1706.0 2145.0 1.000 1.000 1.000
v 915.0 1706.0 2221.0 1.000 1.000 1.000
v -915.0 1706.0 2221.0 1.000 1.000 1.000
v 915.0 1706.0 3365.0 1.000 1.000 1.000
v -915.0 1706.0 3365.0 1.000 1.000 1.000
v -915.0 1706.0 2221.0 1.000 1.000 1.000
v 915.0 1706.0 2221.0 1.000 1.000 1.000
v 534.0 486.0 10.0 1.000 1.000 1.000
v 686.0 -276.0 620.0 1.000 1.000 1.000
v 839.0 791.0 848.0 1.000 1.000 1.000
v 686.0 1630.0 620.0 1.000 1.000 1.000
v 839.0 1630.0 1153.0 1.000 1.000 1.000
v 839.0 -276.0 1077.0 1.000 1.000 1.000
v -229.0 334.0 3365.0 1.000 1.000 1.000
v -229.0 257.0 2678.0 1.000 1.000 1.000
v -229.0 -276.0 2678.0 1.000 1.000 1.000
v -229.0 -276.0 3212.0 1.000 1.000 1.000
v 229.0 334.0 3365.0 1.000 1.000 1.000
v 229.0 257.0 2678.0 1.000 1.000 1.000
v 229.0 -276.0 2678.0 1.000 1.000 1.000
v 229.0 -276.0 3212.0 1.000 1.000 1.000
v -839.0 791.0 848.0 1.000 1.000 1.000
v -839.0 715.0 1992.0 1.000 1.000 1.000
v -839.0 -276.0 2373.0 1.000 1.000 1.000
v -839.0 -276.0 1077.0 1.000 1.000 1.000
v -915.0 639.0 2221.0 1.000 1.000 1.000
v -915.0 -276.0 2450.0 1.000 1.000 1.000
v -839.0 -276.0 2373.0 1.000 1.000 1.000
v -839.0 639.0 2145.0 1.000 1.000 1.000
v -839.0 639.0 2145.0 1.000 1.000 1.000
v -839.0 1706.0 2145.0 1.000 1.000 1.000
v -915.0 639.0 2221.0 1.000 1.000 1.000
v -839.0 639.0 2145.0 1.000 1.000 1.000
v -839.0 1706.0 2145.0 1.000 1.000 1.000
v -839.0 639.0 2145.0 1.000 1.000 1.000
v -839.0 715.0 1992.0 1.000 1.000 1.000
v -839.0 1630.0 1992.0 1.000 1.000 1.000
v -915.0 1706.0 2221.0 1.000 1.000 1.000
v -915.0 639.0 2221.0 1.000 1.000 1.000
v -839.0 1706.0 2145.0 1.000 1.000 1.000
v -822.0 1630.0 1153.0 1.000 1.000 1.000
v -839.0 1706.0 2145.0 1.000 1.000 1.000
v -839.0 1630.0 1992.0 1.000 1.000 1.000
v 839.0 791.0 848.0 1.000 1.000 1.000
v 839.0 -276.0 1077.0 1.000 1.000 1.000
v 839.0 -276.0 2373.0 1.000 1.000 1.000
v 839.0 715.0 1992.0 1.000 1.000 1.000
v 839.0 1706.0 2145.0 1.000 1.000 1.000
v 915.0 1630.0 1992.0 1.000 1.000 1.000
v 839.0 715.0 1992.0 1.000 1.000 1.000
v 839.0 715.0 1992.0 1.000 1.000 1.000
v 839.0 -276.0 2373.0 1.000 1.000 1.000
v 839.0 639.0 2145.0 1.000 1.000 1.000
v 839.0 639.0 2145.0 1.000 1.000 1.000
v 839.0 -276.0 2373.0 1.000 1.000 1.000
v 915.0 -276.0 2450.0 1.000 1.000 1.000
v 915.0 639.0 2221.0 1.000 1.000 1.000
v 839.0 639.0 2145.0 1.000 1.000 1.000
v 839.0 639.0 2145.0 1.000 1.000 1.000
v 915.0 639.0 2221.0 1.000 1.000 1.000
v 839.0 1706.0 2145.0 1.000 1.000 1.000
v 915.0 1706.0 2221.0 1.000 1.000 1.000
v 839.0 334.0 3670.0 1.000 1.000 1.000
v 915.0 -276.0 3670.0 1.000 1.000 1.000
v 839.0 334.0 4051.0 1.000 1.000 1.000
v 839.0 105.0 4051.0 1.000 1.000 1.000
v -839.0 105.0 4051.0 1.000 1.000 1.000
v -915.0 -276.0 3670.0 1.000 1.000 1.000
v -839.0 334.0 4051.0 1.000 1.000 1.000
v -839.0 334.0 3670.0 1.000 1.000 1.000
v -915.0 791.0 3670.0 1.000 1.000 1.000
v -839.0 334.0 3670.0 1.000 1.000 1.000
v 839.0 105.0 4051.0 1.000 1.000 1.000
v -839.0 105.0 4051.0 1.000 1.000 1.000
v -839.0 334.0 4051.0 1.000 1.000 1.000
v 839.0 334.0 4051.0 1.000 1.000 1.000
v 915.0 791.0 3670.0 1.000 1.000 1.000
v 915.0 -276.0 3670.0 1.000 1.000 1.000
v 915.0 -276.0 2450.0 1.000 1.000 1.000
v -915.0 -276.0 2450.0 1.000 1.000 1.000
v -915.0 -276.0 3670.0 1.000 1.000 1.000
v 839.0 -276.0 2373.0 1.000 1.000 1.000
v -839.0 -276.0 2373.0 1.000 1.000 1.000
v 839.0 -276.0 1077.0 1.000 1.000 1.000
v -839.0 -276.0 1077.0 1.000 1.000 1.000
v -839.0 -276.0 2373.0 1.000 1.000 1.000
v 686.0 -276.0 620.0 1.000 1.000 1.000
v -686.0 -276.0 620.0 1.000 1.000 1.000
v 915.0 -276.0 3670.0 1.000 1.000 1.000
v -915.0 -276.0 3670.0 1.000 1.000 1.000
v -839.0 105.0 4051.0 1.000 1.000 1.000
v 839.0 105.0 4051.0 1.000 1.000 1.000
v -839.0 791.0 848.0 1.000 1.000 1.000
v -915.0 791.0 1916.0 1.000 1.000 1.000
v -839.0 715.0 1992.0 1.000 1.000 1.000
v -915.0 867.0 925.0 1.000 1.000 1.000
v -839.0 1630.0 1992.0 1.000 1.000 1.000
v -839.0 715.0 1992.0 1.000 1.000 1.000
v -915.0 791.0 1916.0 1.000 1.000 1.000
v -915.0 1554.0 1916.0 1.000 1.000 1.000
v -822.0 1630.0 1153.0 1.000 1.000 1.000
v -839.0 1630.0 1992.0 1.000 1.000 1.000
v -915.0 1554.0 1916.0 1.000 1.000 1.000
v -915.0 1554.0 1230.0 1.000 1.000 1.000
v -915.0 867.0 925.0 1.000 1.000 1.000
v -822.0 1630.0 1153.0 1.000 1.000 1.000
v -915.0 1554.0 1230.0 1.000 1.000 1.000
v -839.0 791.0 848.0 1.000 1.000 1.000
v 839.0 1630.0 1153.0 1.000 1.000 1.000
v 839.0 791.0 848.0 1.000 1.000 1.000
v 915.0 867.0 925.0 1.000 1.000 1.000
v 915.0 1554.0 1230.0 1.000 1.000 1.000
v 915.0 1554.0 1916.0 1.000 1.000 1.000
v 839.0 1630.0 1153.0 1.000 1.000 1.000
v 915.0 1554.0 1230.0 1.000 1.000 1.000
v 915.0 791.0 1916.0 1.000 1.000 1.000
v 839.0 791.0 848.0 1.000 1.000 1.000
v 839.0 715.0 1992.0 1.000 1.000 1.000
v 915.0 867.0 925.0 1.000 1.000 1.000
v 915.0 1630.0 1992.0 1.000 1.000 1.000
v 839.0 1706.0 2145.0 1.000 1.000 1.000
v 839.0 1630.0 1153.0 1.000 1.000 1.000
v 915.0 1630.0 1992.0 1.000 1.000 1.000
v 915.0 1630.0 1992.0 1.000 1.000 1.000
v 915.0 1554.0 1916.0 1.000 1.000 1.000
v 915.0 791.0 1916.0 1.000 1.000 1.000
v 839.0 715.0 1992.0 1.000 1.000 1.000
v -46.0 639.0 3319.0 1.000 1.000 1.000
v -46.0 639.0 3227.0 1.000 1.000 1.000
v 46.0 639.0 3227.0 1.000 1.000 1.000
v 46.0 639.0 3319.0 1.000 1.000 1.000
v 46.0 730.0 3227.0 1.000 1.000 1.000
v -46.0 730.0 3227.0 1.000 1.000 1.000
v -46.0 730.0 3319.0 1.000 1.000 1.000
v 46.0 730.0 3319.0 1.000 1.000 1.000
v -46.0 639.0 3456.0 1.000 1.000 1.000
v -46.0 730.0 3410.0 1.000 1.000 1.000
v 46.0 730.0 3410.0 1.000 1.000 1.000
v 46.0 639.0 3456.0 1.000 1.000 1.000
v -915.0 791.0 3670.0 1.000 1.000 1.000
v -763.0 944.0 3975.0 1.000 1.000 1.000
v -839.0 791.0 3670.0 1.000 1.000 1.000
v -915.0 791.0 3670.0 1.000 1.000 1.000
v -839.0 791.0 3670.0 1.000 1.000 1.000
v -839.0 334.0 3670.0 1.000 1.000 1.000
v 839.0 334.0 3670.0 1.000 1.000 1.000
v 839.0 791.0 3670.0 1.000 1.000 1.000
v 839.0 334.0 4051.0 1.000 1.000 1.000
v -839.0 334.0 4051.0 1.000 1.000 1.000
v -839.0 334.0 3670.0 1.000 1.000 1.000
v 839.0 334.0 3670.0 1.000 1.000 1.000
v 762.0 944.0 3975.0 1.000 1.000 1.000
v 915.0 791.0 3670.0 1.000 1.000 1.000
v 839.0 791.0 3670.0 1.000 1.000 1.000
v 915.0 791.0 3670.0 1.000 1.000 1.000
v 0.0 944.0 3975.0 1.000 1.000 1.000
v 381.0 944.0 3975.0 1.000 1.000 1.000
v 400.0 867.0 3822.0 1.000 1.000 1.000
v 0.0 867.0 3822.0 1.000 1.000 1.000
v -381.0 944.0 3975.0 1.000 1.000 1.000
v 0.0 944.0 3975.0 1.000 1.000 1.000
v 0.0 867.0 3822.0 1.000 1.000 1.000
v -400.0 867.0 3822.0 1.000 1.000 1.000
v -801.0 867.0 3822.0 1.000 1.000 1.000
v -763.0 944.0 3975.0 1.000 1.000 1.000
v -381.0 944.0 3975.0 1.000 1.000 1.000
v -400.0 867.0 3822.0 1.000 1.000 1.000
v 839.0 791.0 3670.0 1.000 1.000 1.000
v 419.0 791.0 3670.0 1.000 1.000 1.000
v 400.0 867.0 3822.0 1.000 1.000 1.000
v 801.0 867.0 3822.0 1.000 1.000 1.000
v 419.0 791.0 3670.0 1.000 1.000 1.000
v 0.0 791.0 3670.0 1.000 1.000 1.000
v 0.0 867.0 3822.0 1.000 1.000 1.000
v 400.0 867.0 3822.0 1.000 1.000 1.000
v 0.0 791.0 3670.0 1.000 1.000 1.000
v -419.0 791.0 3670.0 1.000 1.000 1.000
v -400.0 867.0 3822.0 1.000 1.000 1.000
v 0.0 867.0 3822.0 1.000 1.000 1.000
v -419.0 791.0 3670.0 1.000 1.000 1.000
v -839.0 791.0 3670.0 1.000 1.000 1.000
v -801.0 867.0 3822.0 1.000 1.000 1.000
v -400.0 867.0 3822.0 1.000 1.000 1.000
v 46.0 639.0 3456.0 1.000 1.000 1.000
v 46.0 639.0 3319.0 1.000 1.000 1.000
v -46.0 639.0 3319.0 1.000 1.000 1.000
v -46.0 639.0 3456.0 1.000 1.000 1.000
v -46.0 547.0 3456.0 1.000 1.000 1.000
v 46.0 547.0 3456.0 1.000 1.000 1.000
v 46.0 639.0 3456.0 1.000 1.000 1.000
v -46.0 639.0 3456.0 1.000 1.000 1.000
v 46.0 639.0 3319.0 1.000 1.000 1.000
v 46.0 456.0 3365.0 1.000 1.000 1.000
v -46.0 456.0 3365.0 1.000 1.000 1.000
v -46.0 639.0 3319.0 1.000 1.000 1.000
v 46.0 547.0 3593.0 1.000 1.000 1.000
v 46.0 456.0 3502.0 1.000 1.000 1.000
v -46.0 547.0 3593.0 1.000 1.000 1.000
v -46.0 456.0 3502.0 1.000 1.000 1.000
v 46.0 456.0 3502.0 1.000 1.000 1.000
v 46.0 547.0 3593.0 1.000 1.000 1.000
v 46.0 -276.0 3593.0 1.000 1.000 1.000
v 46.0 -276.0 3502.0 1.000 1.000 1.000
v 46.0 -276.0 3593.0 1.000 1.000 1.000
v 46.0 547.0 3593.0 1.000 1.000 1.000
v -46.0 547.0 3593.0 1.000 1.000 1.000
v -46.0 -276.0 3593.0 1.000 1.000 1.000
v -46.0 456.0 3502.0 1.000 1.000 1.000
v -46.0 -276.0 3502.0 1.000 1.000 1.000
v 46.0 456.0 3502.0 1.000 1.000 1.000
v 46.0 -276.0 3502.0 1.000 1.000 1.000
v -183.0 730.0 3319.0 1.000 1.000 1.000
v -183.0 1005.0 3319.0 1.000 1.000 1.000
v -275.0 1005.0 3319.0 1.000 1.000 1.000
v -275.0 639.0 3319.0 1.000 1.000 1.000
v -46.0 639.0 3319.0 1.000 1.000 1.000
v -46.0 730.0 3319.0 1.000 1.000 1.000
v -183.0 730.0 3319.0 1.000 1.000 1.000
v -275.0 639.0 3319.0 1.000 1.000 1.000
v 274.0 639.0 3319.0 1.000 1.000 1.000
v 183.0 730.0 3319.0 1.000 1.000 1.000
v 46.0 730.0 3319.0 1.000 1.000 1.000
v 46.0 639.0 3319.0 1.000 1.000 1.000
v 274.0 1005.0 3319.0 1.000 1.000 1.000
v 183.0 1005.0 3319.0 1.000 1.000 1.000
v 183.0 730.0 3319.0 1.000 1.000 1.000
v 274.0 639.0 3319.0 1.000 1.000 1.000
v -229.0 684.0 3273.0 1.000 1.000 1.000
v -229.0 1005.0 3273.0 1.000 1.000 1.000
v -183.0 1005.0 3319.0 1.000 1.000 1.000
v -183.0 730.0 3319.0 1.000 1.000 1.000
v -275.0 639.0 3319.0 1.000 1.000 1.000
v -275.0 1005.0 3319.0 1.000 1.000 1.000
v -46.0 684.0 3273.0 1.000 1.000 1.000
v -229.0 684.0 3273.0 1.000 1.000 1.000
v -183.0 730.0 3319.0 1.000 1.000 1.000
v -46.0 730.0 3319.0 1.000 1.000 1.000
v -46.0 639.0 3319.0 1.000 1.000 1.000
v -275.0 639.0 3319.0 1.000 1.000 1.000
v 229.0 1005.0 3273.0 1.000 1.000 1.000
v 229.0 684.0 3273.0 1.000 1.000 1.000
v 183.0 730.0 3319.0 1.000 1.000 1.000
v 183.0 1005.0 3319.0 1.000 1.000 1.000
v 274.0 639.0 3319.0 1.000 1.000 1.000
v 274.0 1005.0 3319.0 1.000 1.000 1.000
v 46.0 684.0 3273.0 1.000 1.000 1.000
v 46.0 730.0 3319.0 1.000 1.000 1.000
v 183.0 730.0 3319.0 1.000 1.000 1.000
v 229.0 684.0 3273.0 1.000 1.000 1.000
v 46.0 639.0 3319.0 1.000 1.000 1.000
v 46.0 684.0 3273.0 1.000 1.000 1.000
v 229.0 684.0 3273.0 1.000 1.000 1.000
v 274.0 639.0 3319.0 1.000 1.000 1.000
v -46.0 639.0 3319.0 1.000 1.000 1.000
v -46.0 730.0 3319.0 1.000 1.000 1.000
v 46.0 730.0 3319.0 1.000 1.000 1.000
v 46.0 639.0 3319.0 1.000 1.000 1.000
v -686.0 -48.0 7330.0 1.000 1.000 1.000
v -610.0 -276.0 7025.0 1.000 1.000 1.000
v 610.0 -276.0 7025.0 1.000 1.000 1.000
v 686.0 -48.0 7330.0 1.000 1.000 1.000
v -534.0 105.0 7406.0 1.000 1.000 1.000
v 534.0 105.0 7406.0 1.000 1.000 1.000
v 534.0 867.0 7406.0 1.000 1.000 1.000
v -534.0 867.0 7406.0 1.000 1.000 1.000
v -534.0 105.0 7406.0 1.000 1.000 1.000
v -534.0 867.0 7406.0 1.000 1.000 1.000
v -686.0 791.0 7330.0 1.000 1.000 1.000
v -686.0 -48.0 7330.0 1.000 1.000 1.000
v 534.0 105.0 7406.0 1.000 1.000 1.000
v 686.0 -48.0 7330.0 1.000 1.000 1.000
v 686.0 791.0 7330.0 1.000 1.000 1.000
v 534.0 867.0 7406.0 1.000 1.000 1.000
v -864.0 257.0 5195.0 1.000 1.000 1.000
v -864.0 562.0 5195.0 1.000 1.000 1.000
v -956.0 562.0 4098.0 1.000 1.000 1.000
v -956.0 257.0 4098.0 1.000 1.000 1.000
v 871.0 562.0 4370.0 1.000 1.000 1.000
v 820.0 562.0 5191.0 1.000 1.000 1.000
v 820.0 257.0 5191.0 1.000 1.000 1.000
v 871.0 257.0 4370.0 1.000 1.000 1.000
v -534.0 105.0 7406.0 1.000 1.000 1.000
v 534.0 105.0 7406.0 1.000 1.000 1.000
v 534.0 867.0 7406.0 1.000 1.000 1.000
v -534.0 867.0 7406.0 1.000 1.000 1.000
v 530.0 868.0 -2549.0 1.000 1.000 1.000
v 560.0 867.0 -1971.0 1.000 1.000 1.000
v 545.0 258.0 -1969.0 1.000 1.000 1.000
v 514.0 258.0 -2550.0 1.000 1.000 1.000
v -545.0 258.0 -1969.0 1.000 1.000 1.000
v -560.0 867.0 -1971.0 1.000 1.000 1.000
v -530.0 868.0 -2549.0 1.000 1.000 1.000
v -514.0 254.0 -2549.0 1.000 1.000 1.000
v -151.0 1315.0 -6536.0 1.000 1.000 1.000
v -166.0 2910.0 -6544.0 1.000 1.000 1.000
v -23.0 2912.0 -7890.0 1.000 1.000 1.000
v -7.0 1315.0 -7889.0 1.000 1.000 1.000
v -5.0 1313.0 -7887.0 1.000 1.000 1.000
v -43.0 2908.0 -7883.0 1.000 1.000 1.000
v 103.0 2915.0 -6539.0 1.000 1.000 1.000
v 143.0 1313.0 -6530.0 1.000 1.000 1.000
v 430.0 637.0 -4335.0 1.000 1.000 1.000
v 435.0 867.0 -4337.0 1.000 1.000 1.000
v 530.0 868.0 -2549.0 1.000 1.000 1.000
v 514.0 258.0 -2550.0 1.000 1.000 1.000
v 489.0 258.0 -3021.0 1.000 1.000 1.000
v 375.0 268.0 -4330.0 1.000 1.000 1.000
v 490.0 259.0 -3020.0 1.000 1.000 1.000
v -530.0 868.0 -2549.0 1.000 1.000 1.000
v -435.0 867.0 -4337.0 1.000 1.000 1.000
v -430.0 638.0 -4337.0 1.000 1.000 1.000
v -491.0 251.0 -2995.0 1.000 1.000 1.000
v -514.0 254.0 -2549.0 1.000 1.000 1.000
v -430.0 638.0 -4337.0 1.000 1.000 1.000
v -375.0 268.0 -4330.0 1.000 1.000 1.000
v -491.0 251.0 -2995.0 1.000 1.000 1.000
v -229.0 334.0 3365.0 1.000 1.000 1.000
v 229.0 334.0 3365.0 1.000 1.000 1.000
v 229.0 257.0 2678.0 1.000 1.000 1.000
v -229.0 257.0 2678.0 1.000 1.000 1.000
v 152.0 1020.0 2526.0 1.000 1.000 1.000
v -153.0 1020.0 2526.0 1.000 1.000 1.000
v 229.0 257.0 2678.0 1.000 1.000 1.000
v 229.0 334.0 3365.0 1.000 1.000 1.000
v 305.0 410.0 3212.0 1.000 1.000 1.000
v -305.0 410.0 3212.0 1.000 1.000 1.000
v -229.0 334.0 3365.0 1.000 1.000 1.000
v -229.0 257.0 2678.0 1.000 1.000 1.000
v -305.0 867.0 2678.0 1.000 1.000 1.000
v 305.0 867.0 2678.0 1.000 1.000 1.000
v -381.0 29.0 3746.0 1.000 1.000 1.000
v -153.0 29.0 3746.0 1.000 1.000 1.000
v -153.0 -276.0 3670.0 1.000 1.000 1.000
v -381.0 -276.0 3670.0 1.000 1.000 1.000
v 152.0 29.0 3746.0 1.000 1.000 1.000
v 381.0 29.0 3746.0 1.000 1.000 1.000
v 381.0 -276.0 3670.0 1.000 1.000 1.000
v 152.0 -276.0 3670.0 1.000 1.000 1.000
v -1373.0 -2106.0 4127.0 1.000 1.000 1.000
v -1373.0 -1191.0 4127.0 1.000 1.000 1.000
v -1373.0 -1191.0 3212.0 1.000 1.000 1.000
v -1373.0 -2106.0 3212.0 1.000 1.000 1.000
v -1068.0 -2106.0 3212.0 1.000 1.000 1.000
v -1068.0 -1191.0 3212.0 1.000 1.000 1.000
v -1068.0 -1191.0 4127.0 1.000 1.000 1.000
v -1068.0 -2106.0 4127.0 1.000 1.000 1.000
v 1372.0 -2106.0 3212.0 1.000 1.000 1.000
v 1372.0 -1191.0 3212.0 1.000 1.000 1.000
v 1372.0 -1191.0 4127.0 1.000 1.000 1.000
v 1372.0 -2106.0 4127.0 1.000 1.000 1.000
v 1067.0 -2106.0 4127.0 1.000 1.000 1.000
v 1067.0 -1191.0 4127.0 1.000 1.000 1.000
v 1067.0 -1191.0 3212.0 1.000 1.000 1.000
v 1067.0 -2106.0 3212.0 1.000 1.000 1.000
v 762.0 944.0 3975.0 1.000 1.000 1.000
v 915.0 1706.0 3365.0 1.000 1.000 1.000
v -915.0 1706.0 3365.0 1.000 1.000 1.000
v -763.0 944.0 3975.0 1.000 1.000 1.000
v -915.0 791.0 3670.0 1.000 1.000 1.000
v 915.0 791.0 3670.0 1.000 1.000 1.000
v -915.0 791.0 3517.0 1.000 1.000 1.000
v -915.0 1554.0 3288.0 1.000 1.000 1.000
v -915.0 1554.0 2373.0 1.000 1.000 1.000
v -915.0 791.0 2373.0 1.000 1.000 1.000
v -915.0 791.0 1916.0 1.000 1.000 1.000
v -915.0 1554.0 1916.0 1.000 1.000 1.000
v -915.0 1554.0 1230.0 1.000 1.000 1.000
v -915.0 867.0 925.0 1.000 1.000 1.000
v 915.0 791.0 2373.0 1.000 1.000 1.000
v 915.0 1554.0 2373.0 1.000 1.000 1.000
v 915.0 1554.0 3288.0 1.000 1.000 1.000
v 915.0 791.0 3517.0 1.000 1.000 1.000
v 915.0 867.0 925.0 1.000 1.000 1.000
v 915.0 1554.0 1230.0 1.000 1.000 1.000
v 915.0 1554.0 1916.0 1.000 1.000 1.000
v 915.0 791.0 1916.0 1.000 1.000 1.000
v -129.0 -214.0 274.0 1.000 1.000 1.000
v 0.0 -857.0 60.0 1.000 1.000 1.000
v -214.0 -857.0 317.0 1.000 1.000 1.000
v 0.0 -214.0 102.0 1.000 1.000 1.000
v -214.0 -1544.0 188.0 1.000 1.000 1.000
v -86.0 -1544.0 60.0 1.000 1.000 1.000
v -86.0 -857.0 274.0 1.000 1.000 1.000
v 121.0 121.0 400.0 1.000 1.000 1.000
v 162.0 162.0 0.0 1.000 1.000 1.000
v 0.0 229.0 0.0 1.000 1.000 1.000
v 0.0 172.0 400.0 1.000 1.000 1.000
v 172.0 0.0 400.0 1.000 1.000 1.000
v 229.0 0.0 0.0 1.000 1.000 1.000
v 121.0 -121.0 400.0 1.000 1.000 1.000
v 162.0 -162.0 0.0 1.000 1.000 1.000
v 0.0 -172.0 400.0 1.000 1.000 1.000
v 0.0 -229.0 0.0 1.000 1.000 1.000
v 162.0 -162.0 0.0 1.000 1.000 1.000
v 121.0 -121.0 400.0 1.000 1.000 1.000
v -121.0 -121.0 400.0 1.000 1.000 1.000
v -162.0 -162.0 0.0 1.000 1.000 1.000
v -172.0 0.0 400.0 1.000 1.000 1.000
v -229.0 0.0 0.0 1.000 1.000 1.000
v -121.0 121.0 400.0 1.000 1.000 1.000
v -162.0 162.0 0.0 1.000 1.000 1.000
v 0.0 172.0 400.0 1.000 1.000 1.000
v 0.0 229.0 0.0 1.000 1.000 1.000
v 0.0 114.0 515.0 1.000 1.000 1.000
v 81.0 81.0 515.0 1.000 1.000 1.000
v 121.0 121.0 400.0 1.000 1.000 1.000
v 0.0 114.0 515.0 1.000 1.000 1.000
v 0.0 114.0 515.0 1.000 1.000 1.000
v -121.0 121.0 400.0 1.000 1.000 1.000
v -81.0 81.0 515.0 1.000 1.000 1.000
v -81.0 81.0 515.0 1.000 1.000 1.000
v -172.0 0.0 400.0 1.000 1.000 1.000
v -114.0 0.0 515.0 1.000 1.000 1.000
v -114.0 0.0 515.0 1.000 1.000 1.000
v -121.0 -121.0 400.0 1.000 1.000 1.000
v -81.0 -81.0 515.0 1.000 1.000 1.000
v -81.0 -81.0 515.0 1.000 1.000 1.000
v 0.0 -172.0 400.0 1.000 1.000 1.000
v 0.0 -114.0 515.0 1.000 1.000 1.000
v 0.0 -114.0 515.0 1.000 1.000 1.000
v 121.0 -121.0 400.0 1.000 1.000 1.000
v 81.0 -81.0 515.0 1.000 1.000 1.000
v 81.0 -81.0 515.0 1.000 1.000 1.000
v 121.0 -121.0 400.0 1.000 1.000 1.000
v 172.0 0.0 400.0 1.000 1.000 1.000
v 114.0 0.0 515.0 1.000 1.000 1.000
v 114.0 0.0 515.0 1.000 1.000 1.000
v 121.0 121.0 400.0 1.000 1.000 1.000
v 81.0 81.0 515.0 1.000 1.000 1.000
v 81.0 81.0 515.0 1.000 1.000 1.000
v 0.0 114.0 515.0 1.000 1.000 1.000
v -81.0 81.0 515.0 1.000 1.000 1.000
v -114.0 0.0 515.0 1.000 1.000 1.000
v -81.0 -81.0 515.0 1.000 1.000 1.000
v 81.0 -81.0 515.0 1.000 1.000 1.000
v 0.0 -114.0 515.0 1.000 1.000 1.000
v 129.0 214.0 273.0 1.000 1.000 1.000
v 0.0 858.0 59.0 1.000 1.000 1.000
v 214.0 858.0 316.0 1.000 1.000 1.000
v 0.0 214.0 102.0 1.000 1.000 1.000
v 214.0 1544.0 188.0 1.000 1.000 1.000
v 86.0 1544.0 59.0 1.000 1.000 1.000
v 86.0 858.0 273.0 1.000 1.000 1.000
vt 1.0000 1.0000
vt 0.0000 1.0000
vt 0.0000 0.0000
vt 1.0000 0.0000
vt 0.9697 0.0303
vt 0.0464 0.0303
vt 0.9697 1.0000
vt 3.2148 1.2139
vt 3.2148 -0.2139
vt 3.3682 -0.4873
vt 1.3999 -0.5654
vt 1.2246 -0.4092
vt 3.3242 -0.4092
vt 0.3716 -0.5840
vt 0.1230 -0.7598
vt -2.6719 -0.6719
vt -2.6099 -0.5840
vt 1.7495 1.0000
vt 3.3242 0.4521
vt -2.6099 0.3838
vt -0.3735 1.0000
vt 3.1494 0.6865
vt -2.3613 0.6484
vt -1.1909 1.0000
vt -0.8257 3.8760
vt 0.6348 3.8760
vt 0.3716 0.6484
vt 2.1108 1.0000
vt 1.3652 0.6484
vt 1.5518 -0.4082
vt 1.8003 -0.5840
vt 1.5518 -1.6396
vt 1.8003 -1.4639
vt 9.3154 -0.4082
vt 8.2598 -0.7598
vt 8.3218 -0.0557
vt 9.8125 -0.7598
vt 2.6074 -0.6719
vt 2.8560 -1.6396
vt 2.3594 -1.4639
vt 4.2847 -0.9355
vt 3.6636 0.9121
vt 7.7627 -0.7598
vt 1.0000 -2.5957
vt -1.1909 -2.5957
vt 0.6348 -4.8428
vt -0.8257 -4.8428
vt 0.1782 -11.5830
vt -0.3696 -11.5830
vt -0.0044 -13.0215
vt -0.1870 -13.0215
vt 1.2246 0.6865
vt 0.5249 0.6865
vt 0.3936 -0.2529
vt 0.2188 -0.4092
vt -0.3501 -0.4873
vt 0.3936 -1.3486
vt 0.2188 -1.1914
vt -0.1748 -1.1914
vt -0.5249 -1.3486
vt -1.0938 0.9219
vt -1.5308 -0.7217
vt -3.9805 -0.5654
vt -4.3740 0.0605
vt -4.3301 -0.5654
vt -5.0737 -0.2529
vt -5.4238 -0.5654
vt -0.0957 -13.7402
vt 6.3730 -0.1426
vt 6.3730 1.1426
vt 8.5757 0.5000
vt 8.0029 -0.0713
vt 8.0029 1.0713
vt 11.7144 0.5000
vt 11.9985 0.1426
vt 11.9985 0.8574
vt 0.3760 -1.4443
vt 1.7861 -1.4443
vt 1.5981 -1.2559
vt 0.4702 -1.2559
vt 0.1880 -0.3164
vt 0.0000 -0.3164
vt 1.7861 -0.1279
vt 1.5981 -0.3164
vt 1.5044 1.0000
vt 1.2222 0.0596
vt 1.2222 -0.2217
vt 1.5981 -0.2217
vt 1.5981 0.0596
vt 1.3052 -0.2305
vt 0.0000 -0.2305
vt 0.6094 1.0000
vt 0.7832 -0.2549
vt 0.1738 -0.2432
vt 0.6489 1.0000
vt 0.0000 0.0293
vt 1.3906 0.0293
vt 0.8345 0.0098
vt 0.1855 0.0195
vt -2.3945 0.7197
vt -0.3218 -0.6621
vt -2.3872 -0.3418
vt 0.3438 -0.6572
vt 2.3979 0.7490
vt 2.4048 -0.3135
vt 0.3472 -1.1885
vt -0.3184 -1.1924
vt -0.2393 0.2744
vt 1.2012 0.5146
vt 0.8711 0.2744
vt 2.4019 -0.0576
vt 0.2109 -0.8672
vt 12.3589 0.2861
vt 0.3325 0.4473
vt -0.0483 0.6377
vt 1.4741 0.6377
vt -2.3901 -0.0859
vt -0.1885 -0.8691
vt 12.3589 0.7139
vt 0.7534 -0.6582
vt 0.0513 1.0010
vt -0.4829 1.0488
vt 0.0146 0.9971
vt 0.7412 -0.6592
vt 0.6338 -0.7178
vt -6.2158 -8.9111
vt -12.5493 -4.4326
vt -13.2158 -3.9619
vt -12.2158 -3.9619
vt 1.4995 1.0127
vt 0.9624 -0.5811
vt -0.0469 -0.7051
vt -0.0103 1.0117
vt -3.0078 0.3633
vt 0.4897 0.1748
vt -3.1182 -0.4619
vt 4.0815 -0.4619
vt 3.9922 0.3633
vt 0.1543 1.0469
vt 0.0640 -0.6680
vt -0.2031 -0.6787
vt -0.1572 0.8203
vt 0.9531 0.3896
vt 0.5562 0.3887
vt 0.5562 -1.0098
vt 0.0000 0.4756
vt -0.0854 0.6914
vt 4.4028 0.6016
vt 2.6597 0.3467
vt 0.9194 0.2373
vt 0.0532 0.3994
vt 0.7305 0.7393
vt 0.9385 0.7402
vt 0.9531 1.0898
vt 3.2725 0.6738
vt 3.1255 0.3799
vt 2.2446 0.2334
vt 0.4834 0.3799
vt -1.2783 0.6738
vt 0.5562 1.0889
vt 0.5562 2.4883
vt 0.4399 3.6504
vt 0.3574 3.6494
vt 0.4048 4.0029
vt 0.0703 3.6494
vt 0.0796 4.0029
vt 0.7271 3.6504
vt 0.7266 4.0039
vt 0.8652 3.6514
vt 0.8813 4.0039
vt 0.8877 3.6514
vt 0.9043 3.6514
vt 0.8999 4.0049
vt 0.9067 3.6514
vt 0.8198 3.6514
vt 0.1904 3.6494
vt 0.0796 -2.5273
vt 0.2041 -2.1299
vt 0.0688 -2.1299
vt 0.8999 -2.5254
vt 0.8101 -2.1279
vt 0.9072 -2.1279
vt 0.7271 -2.1279
vt 0.7266 -2.5254
vt 0.4048 -2.5264
vt 0.4443 -2.1289
vt 0.3516 -2.1289
vt 0.8813 -2.5254
vt 0.8633 -2.1279
vt 0.8882 -2.1279
vt 0.9048 -2.1279
vt -1.5361 0.6211
vt -1.3208 0.6738
vt -1.3188 0.0137
vt -1.5713 -0.0254
vt 0.3354 0.2695
vt 2.3521 0.0098
vt 0.6685 0.2695
vt 2.3506 0.6670
vt 2.5767 -0.0254
vt 2.5381 0.6211
vt 0.9138 0.5000
vt -0.0034 0.5000
vt 1.0000 0.5000
vt 0.6787 -2.3467
vt 1.5088 1.0000
vt 0.4434 -1.8418
vt 3.9932 1.0000
vt 3.5498 -1.8418
vt 3.4697 -1.3896
vt 1.5088 -4.9492
vt -0.2100 -4.9414
vt 3.4941 -3.1074
vt -0.4932 -3.1074
vt -0.0498 0.6582
vt 3.0508 0.6582
vt 4.9268 1.0000
vt 0.4023 2.5830
vt 4.4746 2.5830
vt 4.9268 -1.9404
vt -0.0498 -1.9404
vt 5.1533 -2.1670
vt -0.2754 -2.1670
vt 5.1533 -5.5596
vt -0.2754 -5.5596
vt 3.0527 -1.1035
vt 1.3271 1.0000
vt 0.5977 -1.9434
vt 1.3271 -4.2920
vt -0.1992 -4.2988
vt 1.0732 -0.0322
vt -0.1025 0.0967
vt 0.0664 1.0000
vt -0.0098 -0.0400
vt 0.8604 0.0342
vt 0.1201 0.0156
vt 0.1162 1.0137
vt 0.9668 0.1084
vt 0.0039 0.0020
vt -0.0312 2.0732
vt 0.1084 1.0029
vt 0.0010 -0.0029
vt 0.0996 0.9287
vt 0.0996 0.0684
vt 0.0771 2.0762
vt 0.9268 1.0820
vt -0.0059 0.9971
vt 0.1367 1.0713
vt -0.0010 -0.0117
vt -0.0059 0.9980
vt 1.0234 0.9932
vt 0.8936 0.0566
vt 0.0742 -0.0703
vt -0.0840 0.0088
vt -0.0801 0.9590
vt 1.0010 0.1279
vt 0.0791 1.0381
vt 0.1133 1.0195
vt 0.1123 0.0146
vt -0.0010 -0.0049
vt 0.1006 1.0000
vt 0.0020 0.0049
vt 0.1025 0.0049
vt 0.6309 0.0000
vt 0.6309 0.3828
vt 1.0000 0.3916
vt 1.7656 1.0000
vt 1.0088 0.8740
vt 2.9951 1.0000
vt 2.9951 0.0039
vt 0.0000 0.0039
vt 1.7227 0.7842
vt -0.1826 0.1523
vt -0.1826 0.9502
vt 4.1895 0.9502
vt 4.1895 0.1523
vt 4.0078 1.0000
vt 0.0000 0.2607
vt 4.0400 0.2607
vt 4.0400 1.0000
vt 0.3672 -0.0010
vt 3.6729 -0.0010
vt -0.1836 1.7393
vt 4.2236 1.7393
vt 4.0400 1.9570
vt 0.0000 1.9570
vt 1.6348 -3.2334
vt 3.1230 0.9814
vt 1.8516 1.3281
vt 3.0273 -2.9766
vt 0.2422 -2.6201
vt -0.0391 1.3467
vt 0.9199 1.0332
vt 1.1543 -2.2725
vt -0.1172 -2.7588
vt -0.0020 1.1318
vt 0.9199 0.8721
vt 0.9180 -2.3027
vt 0.7520 3.8223
vt -0.2188 0.7764
vt 0.8555 0.9189
vt 0.0332 4.2217
vt 1.1152 1.1875
vt 0.8516 -2.4795
vt 0.2031 -2.0713
vt 0.0820 1.0186
vt 0.1797 4.6338
vt 1.1094 0.5693
vt -0.0156 0.9902
vt 0.8535 5.0537
vt 0.7891 0.6875
vt 0.0039 4.7861
vt 0.7754 5.0312
vt 1.9004 0.7881
vt 0.0625 0.8506
vt 1.6211 0.8896
vt 1.0898 1.0547
vt -0.0508 -1.2686
vt 1.0410 -1.6895
vt 0.9844 1.4902
vt 0.9844 0.9902
vt 1.9844 0.9902
vt 1.9844 1.4902
vt -0.0654 1.2109
vt 1.0068 1.0820
vt 2.0264 0.0605
vt 1.9404 0.0605
vt 1.9404 1.0000
vt 0.0615 1.0000
vt 0.0615 0.0605
vt 2.0088 1.0000
vt 2.0088 -0.0029
vt 0.0000 -0.0029
vt 0.9746 1.0742
vt 0.0674 1.1875
vt -0.0234 0.0605
vt 0.9375 0.0331
vt 0.0587 0.0057
vt 0.0464 0.9716
vt 0.9223 0.0322
vt -0.0009 0.0322
vt -0.0294 1.0000
vt 0.0161 0.0303
vt 0.9536 0.0739
vt 0.0284 0.0739
vt 0.0445 0.0303
vt 0.9299 0.0294
vt 0.0047 0.0294
vt -0.2568 0.2451
vt 0.1172 -0.1494
vt 0.0068 0.4951
vt 0.5195 0.4805
vt -0.3672 0.8906
vt 0.1455 0.8760
vt 0.0352 -1.0244
vt 1.0400 -1.2773
vt -4.0000 8.5547
vt -4.0000 1.0000
vt -5.0000 1.0000
vt -5.0000 11.0732
vt 1.0000 -2.2031
vt 0.0000 -4.3389
vt 0.0000 8.4736
vt 1.0000 6.3389
vt 1.0000 3.1357
vt 0.0000 3.1357
vt 0.0000 8.5547
vt 1.0000 11.0732
vt -4.5000 9.8135
vt -4.5000 1.0000
vt 0.5000 1.0000
vt 0.5000 -3.2705
vt 0.5000 9.8135
vt 0.5000 3.1357
vt 0.5000 7.4062
vt 1.0000 0.4199
vt 0.0000 0.4199
vt 1.0000 0.3877
vt 1.0000 0.9170
vt 0.0000 0.9199
vt 0.0000 0.3906
vt 0.1123 1.5068
vt 0.8896 1.5088
vt 0.8877 0.5000
vt 0.1104 0.4990
vt 0.0005 0.0000
vt 0.0005 -0.0068
vt 0.0039 0.0010
vt 0.0093 -0.0010
vt 1.4463 0.3740
vt 1.4458 -0.0068
vt 0.0000 -0.0020
vt 0.3818 1.0000
vt 1.4458 0.9941
vt 1.4478 -0.0117
vt 0.0000 0.0049
vt -0.0020 0.3818
vt 1.0854 1.0000
vt 1.4482 0.9902
vt 0.0000 1.9893
vt 1.0000 1.9893
vt 0.8335 -0.0029
vt 0.1665 -0.0029
vt 1.0000 1.2354
vt 1.0000 0.0078
vt 1.1665 0.2637
vt -0.1665 0.2539
vt 0.0000 1.2285
vt -0.1665 0.2285
vt 1.1665 0.2285
vt 0.7733 0.2742
vt 0.2267 0.2742
vt 0.0437 0.4365
vt 0.9563 0.4365
vt 0.0000 0.5000
vt 0.8929 0.6508
vt 0.7693 0.5356
vt 0.9160 0.5079
vt 0.0370 0.5317
vt 0.9051 0.3411
vt 0.0470 0.3808
vt 0.1436 0.4604
vt 0.8379 0.1621
vt 0.8503 0.1497
vt 0.5000 0.0046
vt 0.5000 0.0219
vt 0.9781 0.5000
vt 0.9954 0.5000
vt 0.8379 0.8379
vt 0.8503 0.8503
vt 0.5000 0.9781
vt 0.5000 0.9954
vt 0.1621 0.8379
vt 0.1497 0.8503
vt 0.0219 0.5000
vt 0.0046 0.5000
vt 0.1621 0.1621
vt 0.1497 0.1497
vt 0.6032 0.2500
vt 0.5475 0.3811
vt 0.3260 0.0807
vt 0.4326 0.3374
vt 0.0807 0.3260
vt 0.3811 0.4525
vt 0.0807 0.6740
vt 0.3811 0.5475
vt 0.3260 0.9193
vt 0.3968 0.7500
vt 0.6740 0.9193
vt 0.5674 0.6626
vt 0.9193 0.6740
vt 0.6189 0.5475
vt 0.9193 0.3260
vn -0.577 -0.577 -0.577
vn -0.577 -0.577 -0.577
vn -0.577 -0.577 -0.577
vn -0.577 -0.577 -0.577
vn -0.577 -0.577 -0.577
vn -0.577 -0.577 -0.577
vn -0.577 -0.577 -0.577
vn -0.577 -0.577 -0.577
vn -0.577 -0.577 -0.577
vn -0.577 -0.577 -0.577
vn -0.577 -0.577 -0.577
vn -0.577 -0.577 -0.577
vn -0.577 -0.577 -0.577
vn -0.577 -0.577 -0.577
vn -0.577 -0.577 -0.577
vn -0.577 -0.577 -0.577
vn -0.577 -0.577 -0.577
vn -0.577 -0.577 -0.577
vn -0.577 -0.577 -0.577
vn -0.577 -0.577 -0.577
vn -0.577 -0.577 -0.577
vn -0.577 -0.577 -0.577
vn -0.577 -0.577 -0.577
vn -0.577 -0.577 -0.577
vn -0.577 -0.577 -0.577
vn -0.577 -0.577 -0.577
vn -0.577 -0.577 -0.577
vn -0.577 -0.577 -0.577
vn -0.577 -0.577 -0.577
vn -0.577 -0.577 -0.577
vn -0.577 -0.577 -0.577
vn -0.577 -0.577 -0.577
vn -0.577 -0.577 -0.577
vn -0.577 -0.577 -0.577
vn -0.577 -0.577 -0.577
vn -0.577 -0.577 -0.577
vn -0.577 -0.577 -0.577
vn -0.577 -0.577 -0.577
vn -0.577 -0.577 -0.577
vn -0.577 -0.577 -0.577
vn -0.577 -0.577 -0.577
vn -0.577 -0.577 -0.577
vn -0.577 -0.577 -0.577
vn -0.577 -0.577 -0.577
vn -0.577 -0.577 -0.577
vn -0.577 -0.577 -0.577
vn -0.577 -0.577 -0.577
vn -0.577 -0.577 -0.577
vn -0.577 -0.577 -0.577
vn -0.577 -0.577 -0.577
vn -0.577 -0.577 -0.577
vn -0.577 -0.577 -0.577
vn -0.577 -0.577 -0.577
vn -0.577 -0.577 -0.577
vn -0.577 -0.577 -0.577
vn -0.577 -0.577 -0.577
vn -0.577 -0.577 -0.577
vn -0.577 -0.577 -0.577
vn -0.577 -0.577 -0.577
vn -0.577 -0.577 -0.577
vn -0.577 -0.577 -0.577
vn -0.577 -0.577 -0.577
vn -0.577 -0.577 -0.577
vn -0.577 -0.577 -0.577
vn -0.577 -0.577 -0.577
vn -0.577 -0.577 -0.577
vn -0.577 -0.577 -0.577
vn -0.577 -0.577 -0.577
vn -0.577 -0.577 -0.577
vn -0.577 -0.577 -0.577
vn -0.577 -0.577 -0.577
vn -0.577 -0.577 -0.577
vn -0.577 -0.577 -0.577
vn -0.577 -0.577 -0.577
vn 0.577 0.577 0.577
vn -0.577 -0.577 -0.577
vn 0.577 0.577 0.577
vn -0.577 -0.577 -0.577
vn -0.577 -0.577 -0.577
vn -0.577 -0.577 -0.577
vn -0.577 -0.577 -0.577
vn 0.577 0.577 0.577
vn 0.577 0.577 0.577
vn 0.577 0.577 0.577
vn 0.577 0.577 0.577
vn 0.577 0.577 0.577
vn 0.577 0.577 0.577
vn -0.577 -0.577 -0.577
vn 0.577 0.577 0.577
vn 0.577 0.577 0.577
vn 0.577 0.577 0.577
vn 0.577 0.577 0.577
vn 0.577 0.577 0.577
vn 0.577 0.577 0.577
vn 0.577 0.577 0.577
vn 0.577 0.577 0.577
vn 0.577 0.577 0.577
vn 0.577 0.577 0.577
vn 0.577 0.577 0.577
vn 0.577 0.577 0.577
vn 0.577 0.577 0.577
vn 0.577 0.577 0.577
vn 0.577 0.577 0.577
vn 0.577 0.577 0.577
vn 0.577 0.577 0.577
vn 0.577 0.577 0.577
vn 0.577 0.577 0.577
vn 0.577 0.577 0.577
vn -0.577 -0.577 -0.577
vn 0.577 0.577 0.577
vn -0.577 -0.577 -0.577
vn 0.577 0.577 0.577
vn -0.577 -0.577 -0.577
vn -0.577 -0.577 -0.577
vn 0.577 0.577 0.577
vn 0.577 0.577 0.577
vn 0.577 0.577 0.577
vn 0.577 0.577 0.577
vn 0.577 0.577 0.577
vn 0.577 0.577 0.577
vn -0.577 -0.577 -0.577
vn 0.577 0.577 0.577
vn 0.577 0.577 0.577
vn 0.577 0.577 0.577
vn 0.577 0.577 0.577
vn 0.577 0.577 0.577
vn 0.577 0.577 0.577
vn 0.577 0.577 0.577
vn 0.577 0.577 0.577
vn 0.577 0.577 0.577
vn 0.577 0.577 0.577
vn 0.577 0.577 0.577
vn 0.577 0.577 0.577
vn 0.577 0.577 0.577
vn 0.577 0.577 0.577
vn 0.577 0.577 0.577
vn 0.577 0.577 0.577
vn 0.577 0.577 0.577
vn 0.577 0.577 0.577
vn 0.577 0.577 0.577
vn 0.577 0.577 0.577
vn 0.577 0.577 0.577
vn 0.577 0.577 0.577
vn 0.577 0.577 0.577
vn 0.577 0.577 0.577
vn 0.577 0.577 0.577
vn -0.577 -0.577 -0.577
vn 0.577 0.577 0.577
vn 0.577 0.577 0.577
vn 0.577 0.577 0.577
vn -0.577 -0.577 -0.577
vn -0.577 -0.577 -0.577
vn 0.577 0.577 0.577
vn 0.577 0.577 0.577
vn 0.577 0.577 0.577
vn 0.577 0.577 0.577
vn 0.577 0.577 0.577
vn 0.577 0.577 0.577
vn 0.577 0.577 0.577
vn -0.577 -0.577 -0.577
vn -0.577 -0.577 -0.577
vn -0.577 -0.577 -0.577
vn -0.577 -0.577 -0.577
vn -0.577 -0.577 -0.577
vn -0.577 -0.577 -0.577
vn -0.577 -0.577 -0.577
vn -0.577 -0.577 -0.577
vn -0.577 -0.577 -0.577
vn 0.577 0.577 0.577
vn -1.000 0.000 0.000
vn 1.000 0.000 0.000
vn -1.000 0.000 0.000
vn 0.577 0.577 0.577
vn 0.577 0.577 0.577
vn 1.000 0.000 0.000
vn 1.000 0.000 0.000
vn 0.577 0.577 0.577
vn -1.000 0.000 0.000
vn 1.000 0.000 0.000
vn -1.000 0.000 0.000
vn -1.000 0.000 0.000
vn 1.000 0.000 0.000
vn 1.000 0.000 0.000
vn 0.577 0.577 0.577
vn -1.000 0.000 0.000
vn 1.000 0.000 0.000
vn -1.000 0.000 0.000
vn 0.577 0.577 0.577
vn -0.577 -0.577 -0.577
vn -1.000 0.000 0.000
vn 0.577 0.577 0.577
vn 0.577 0.577 0.577
vn -1.000 0.000 0.000
vn 1.000 0.000 0.000
vn 0.577 0.577 0.577
vn 0.577 0.577 0.577
vn -1.000 0.000 0.000
vn 0.577 0.577 0.577
vn 1.000 0.000 0.000
vn -1.000 0.000 0.000
vn 1.000 0.000 0.000
vn -1.000 0.000 0.000
vn -1.000 0.000 0.000
vn 0.577 0.577 0.577
vn 0.577 0.577 0.577
vn -0.577 -0.577 -0.577
vn -0.577 -0.577 -0.577
vn 0.577 0.577 0.577
vn 0.577 0.577 0.577
vn -0.577 -0.577 -0.577
vn 0.577 0.577 0.577
vn -0.577 -0.577 -0.577
vn 0.577 0.577 0.577
vn -0.577 -0.577 -0.577
vn -0.577 -0.577 -0.577
vn 0.577 0.577 0.577
vn 0.577 0.577 0.577
vn 0.577 0.577 0.577
vn 0.577 0.577 0.577
vn 0.577 0.577 0.577
vn 0.577 0.577 0.577
vn 0.577 0.577 0.577
vn -0.577 -0.577 -0.577
vn 0.577 0.577 0.577
vn 0.577 0.577 0.577
vn 0.577 0.577 0.577
vn -0.577 -0.577 -0.577
vn -0.577 -0.577 -0.577
vn -0.577 -0.577 -0.577
vn -0.577 -0.577 -0.577
vn 0.577 0.577 0.577
vn 0.577 0.577 0.577
vn -0.577 -0.577 -0.577
vn -0.577 -0.577 -0.577
vn -0.577 -0.577 -0.577
vn -0.577 -0.577 -0.577
vn -0.577 -0.577 -0.577
vn -0.577 -0.577 -0.577
vn -0.577 -0.577 -0.577
vn -0.577 -0.577 -0.577
vn -0.577 -0.577 -0.577
vn 0.577 0.577 0.577
vn -0.577 -0.577 -0.577
vn -0.577 -0.577 -0.577
vn -0.577 -0.577 -0.577
vn -0.577 -0.577 -0.577
vn 0.577 0.577 0.577
vn 0.577 0.577 0.577
vn -0.577 -0.577 -0.577
vn -0.577 -0.577 -0.577
vn -0.577 -0.577 -0.577
vn -0.577 -0.577 -0.577
vn -0.577 -0.577 -0.577
vn -0.577 -0.577 -0.577
vn -0.577 -0.577 -0.577
vn -0.577 -0.577 -0.577
vn -0.577 -0.577 -0.577
vn -0.577 -0.577 -0.577
vn -0.577 -0.577 -0.577
vn 0.577 0.577 0.577
vn -0.577 -0.577 -0.577
vn -0.577 -0.577 -0.577
vn -0.577 -0.577 -0.577
vn -0.577 -0.577 -0.577
vn -0.577 -0.577 -0.577
vn 0.577 0.577 0.577
vn 0.577 0.577 0.577
vn -0.577 -0.577 -0.577
vn -0.577 -0.577 -0.577
vn 1.000 0.000 0.000
vn 1.000 0.000 0.000
vn 1.000 0.000 0.000
vn 1.000 0.000 0.000
vn 1.000 0.000 0.000
vn 1.000 0.000 0.000
vn 1.000 0.000 0.000
vn 1.000 0.000 0.000
vn 1.000 0.000 0.000
vn 1.000 0.000 0.000
vn 1.000 0.000 0.000
vn -0.577 -0.577 -0.577
vn 0.577 0.577 0.577
vn 0.577 0.577 0.577
vn -0.577 -0.577 -0.577
vn -1.000 0.000 0.000
vn 1.000 0.000 0.000
vn -1.000 0.000 0.000
vn -1.000 0.000 0.000
vn -1.000 0.000 0.000
vn -0.577 -0.577 -0.577
vn -0.577 -0.577 -0.577
vn -0.577 -0.577 -0.577
vn -0.577 -0.577 -0.577
vn -0.577 -0.577 -0.577
vn -0.577 -0.577 -0.577
vn 1.000 0.000 0.000
vn 1.000 0.000 0.000
vn 1.000 0.000 0.000
vn 1.000 0.000 0.000
vn 1.000 0.000 0.000
vn 0.577 0.577 0.577
vn 0.577 0.577 0.577
vn -0.577 -0.577 -0.577
vn -0.577 -0.577 -0.577
vn 0.577 0.577 0.577
vn -0.577 -0.577 -0.577
vn 0.577 0.577 0.577
vn 1.000 0.000 0.000
vn 1.000 0.000 0.000
vn 1.000 0.000 0.000
vn 0.577 0.577 0.577
vn 1.000 0.000 0.000
vn 1.000 0.000 0.000
vn 0.577 0.577 0.577
vn 1.000 0.000 0.000
vn 1.000 0.000 0.000
vn -0.577 -0.577 -0.577
vn 0.577 0.577 0.577
vn 0.577 0.577 0.577
vn 1.000 0.000 0.000
vn 1.000 0.000 0.000
vn 1.000 0.000 0.000
vn 1.000 0.000 0.000
vn -0.577 -0.577 -0.577
vn 0.577 0.577 0.577
vn 1.000 0.000 0.000
vn 0.577 0.577 0.577
vn 1.000 0.000 0.000
vn 1.000 0.000 0.000
vn -0.577 -0.577 -0.577
vn 0.577 0.577 0.577
vn 1.000 0.000 0.000
vn 0.577 0.577 0.577
vn 0.577 0.577 0.577
vn 0.577 0.577 0.577
vn 1.000 0.000 0.000
vn 1.000 0.000 0.000
vn 1.000 0.000 0.000
vn 1.000 0.000 0.000
vn 0.577 0.577 0.577
vn -0.577 -0.577 -0.577
vn 1.000 0.000 0.000
vn -0.577 -0.577 -0.577
vn 0.577 0.577 0.577
vn 1.000 0.000 0.000
vn 1.000 0.000 0.000
vn 1.000 0.000 0.000
vn 1.000 0.000 0.000
vn 0.577 0.577 0.577
vn 0.577 0.577 0.577
vn -0.577 -0.577 -0.577
vn 0.577 0.577 0.577
vn 1.000 0.000 0.000
vn 1.000 0.000 0.000
vn -1.000 0.000 0.000
vn 1.000 0.000 0.000
vn -0.577 -0.577 -0.577
vn 1.000 0.000 0.000
vn -0.577 -0.577 -0.577
vn -0.577 -0.577 -0.577
vn 1.000 0.000 0.000
vn -1.000 0.000 0.000
vn -1.000 0.000 0.000
vn 1.000 0.000 0.000
vn -0.577 -0.577 -0.577
vn -0.577 -0.577 -0.577
vn -0.577 -0.577 -0.577
vn 1.000 0.000 0.000
vn -1.000 0.000 0.000
vn 1.000 0.000 0.000
vn -0.577 -0.577 -0.577
vn -0.577 -0.577 -0.577
vn 1.000 0.000 0.000
vn 1.000 0.000 0.000
vn 0.577 0.577 0.577
vn -1.000 0.000 0.000
vn -1.000 0.000 0.000
vn 1.000 0.000 0.000
vn 1.000 0.000 0.000
vn -0.577 -0.577 -0.577
vn -1.000 0.000 0.000
vn 1.000 0.000 0.000
vn 1.000 0.000 0.000
vn -0.577 -0.577 -0.577
vn -0.577 -0.577 -0.577
vn -0.577 -0.577 -0.577
vn -0.577 -0.577 -0.577
vn -1.000 0.000 0.000
vn 1.000 0.000 0.000
vn -0.577 -0.577 -0.577
vn 1.000 0.000 0.000
vn -0.577 -0.577 -0.577
vn -0.577 -0.577 -0.577
vn 1.000 0.000 0.000
vn 1.000 0.000 0.000
vn 1.000 0.000 0.000
vn 1.000 0.000 0.000
vn 1.000 0.000 0.000
vn 1.000 0.000 0.000
vn 0.577 0.577 0.577
vn 0.577 0.577 0.577
vn -0.577 -0.577 -0.577
vn 0.577 0.577 0.577
vn 0.577 0.577 0.577
vn -0.577 -0.577 -0.577
vn 0.577 0.577 0.577
vn 0.577 0.577 0.577
vn 1.000 0.000 0.000
vn 1.000 0.000 0.000
vn 1.000 0.000 0.000
vn 1.000 0.000 0.000
vn -0.577 -0.577 -0.577
vn -0.577 -0.577 -0.577
vn -0.577 -0.577 -0.577
vn -0.577 -0.577 -0.577
vn -0.577 -0.577 -0.577
vn -0.577 -0.577 -0.577
vn -0.577 -0.577 -0.577
vn -0.577 -0.577 -0.577
vn -0.577 -0.577 -0.577
vn -0.577 -0.577 -0.577
vn -0.577 -0.577 -0.577
vn -0.577 -0.577 -0.577
vn 1.000 0.000 0.000
vn 1.000 0.000 0.000
vn 1.000 0.000 0.000
vn 1.000 0.000 0.000
vn 1.000 0.000 0.000
vn 1.000 0.000 0.000
vn 1.000 0.000 0.000
vn -0.577 -0.577 -0.577
vn -0.577 -0.577 -0.577
vn -0.577 -0.577 -0.577
vn -0.577 -0.577 -0.577
vn -0.577 -0.577 -0.577
vn -0.577 -0.577 -0.577
vn -0.577 -0.577 -0.577
vn -0.577 -0.577 -0.577
vn 0.577 0.577 0.577
vn -0.577 -0.577 -0.577
vn -0.577 -0.577 -0.577
vn -0.577 -0.577 -0.577
vn -0.577 -0.577 -0.577
vn -0.577 -0.577 -0.577
vn -0.577 -0.577 -0.577
vn -0.577 -0.577 -0.577
vn 0.577 0.577 0.577
vn -0.577 -0.577 -0.577
vn -0.577 -0.577 -0.577
vn -0.577 -0.577 -0.577
vn 0.577 0.577 0.577
vn -0.577 -0.577 -0.577
vn -0.577 -0.577 -0.577
vn -0.577 -0.577 -0.577
vn 0.577 0.577 0.577
vn -0.577 -0.577 -0.577
vn -0.577 -0.577 -0.577
vn 0.577 0.577 0.577
vn 0.577 0.577 0.577
vn 0.577 0.577 0.577
vn 0.577 0.577 0.577
vn 0.577 0.577 0.577
vn -0.577 -0.577 -0.577
vn -0.577 -0.577 -0.577
vn 0.577 0.577 0.577
vn 0.577 0.577 0.577
vn -0.577 -0.577 -0.577
vn -0.577 -0.577 -0.577
vn -0.577 -0.577 -0.577
vn 0.577 0.577 0.577
vn 0.577 0.577 0.577
vn -0.577 -0.577 -0.577
vn -0.577 -0.577 -0.577
vn -0.577 -0.577 -0.577
vn -0.577 -0.577 -0.577
vn -0.577 -0.577 -0.577
vn -0.577 -0.577 -0.577
vn -0.577 -0.577 -0.577
vn -0.577 -0.577 -0.577
vn -0.577 -0.577 -0.577
vn 0.577 0.577 0.577
vn -0.577 -0.577 -0.577
vn -0.577 -0.577 -0.577
vn -0.577 -0.577 -0.577
vn 0.577 0.577 0.577
vn 0.577 0.577 0.577
vn -0.577 -0.577 -0.577
vn -0.577 -0.577 -0.577
vn -0.577 -0.577 -0.577
vn 0.577 0.577 0.577
vn 0.577 0.577 0.577
vn -0.577 -0.577 -0.577
vn 0.577 0.577 0.577
vn -0.577 -0.577 -0.577
vn -0.577 -0.577 -0.577
vn -0.577 -0.577 -0.577
vn 0.577 0.577 0.577
vn 0.577 0.577 0.577
vn 0.577 0.577 0.577
vn -0.577 -0.577 -0.577
vn 0.577 0.577 0.577
vn -0.577 -0.577 -0.577
vn -0.577 -0.577 -0.577
vn -0.577 -0.577 -0.577
vn 0.577 0.577 0.577
vn 0.577 0.577 0.577
vn 0.577 0.577 0.577
vn 0.577 0.577 0.577
vn 0.577 0.577 0.577
vn 0.577 0.577 0.577
vn 0.577 0.577 0.577
vn -0.577 -0.577 -0.577
vn -0.577 -0.577 -0.577
vn 0.577 0.577 0.577
vn 0.577 0.577 0.577
vn 0.577 0.577 0.577
vn -0.577 -0.577 -0.577
vn -0.577 -0.577 -0.577
vn 0.577 0.577 0.577
vn 0.577 0.577 0.577
vn 0.577 0.577 0.577
vn 0.577 0.577 0.577
vn 0.577 0.577 0.577
vn -0.994 -0.090 -0.054
vn 0.577 0.577 0.577
vn 0.577 0.577 0.577
vn 0.577 0.577 0.577
vn 0.994 -0.090 -0.054
vn 0.577 0.577 0.577
vn -0.577 -0.577 -0.577
vn 0.577 0.577 0.577
vn 0.577 0.577 0.577
vn 0.577 0.577 0.577
vn 0.000 0.000 -1.000
vn 0.000 0.000 -1.000
vn -0.577 -0.577 -0.577
vn 0.577 0.577 0.577
vn -0.577 -0.577 -0.577
vn -0.577 -0.577 -0.577
vn 0.577 0.577 0.577
vn -0.577 -0.577 -0.577
vn -0.577 -0.577 -0.577
vn -0.577 -0.577 -0.577
vn -0.577 -0.577 -0.577
vn -0.577 -0.577 -0.577
vn -0.577 -0.577 -0.577
vn -0.577 -0.577 -0.577
vn 0.577 0.577 0.577
vn 0.577 0.577 0.577
vn 0.577 0.577 0.577
vn 0.577 0.577 0.577
vn 0.577 0.577 0.577
vn 0.577 0.577 0.577
vn -0.577 -0.577 -0.577
vn 0.577 0.577 0.577
vn -0.577 -0.577 -0.577
vn -0.577 -0.577 -0.577
vn 0.577 0.577 0.577
vn 0.577 0.577 0.577
vn -0.577 -0.577 -0.577
vn -0.577 -0.577 -0.577
vn 0.577 0.577 0.577
vn 0.577 0.577 0.577
vn 0.577 0.577 0.577
vn -0.577 -0.577 -0.577
vn 0.577 0.577 0.577
vn 0.577 0.577 0.577
vn 0.577 0.577 0.577
vn -0.577 -0.577 -0.577
vn 0.577 0.577 0.577
vn 0.577 0.577 0.577
vn 0.577 0.577 0.577
vn 0.577 0.577 0.577
vn 0.577 0.577 0.577
vn 0.577 0.577 0.577
vn -0.577 -0.577 -0.577
vn 0.577 0.577 0.577
vn 0.577 0.577 0.577
vn 0.577 0.577 0.577
vn 0.577 0.577 0.577
vn 0.577 0.577 0.577
vn 0.577 0.577 0.577
vn 0.577 0.577 0.577
vn 0.577 0.577 0.577
vn 0.577 0.577 0.577
vn 0.577 0.577 0.577
vn -0.577 -0.577 -0.577
vn -0.577 -0.577 -0.577
vn -0.577 -0.577 -0.577
vn -0.577 -0.577 -0.577
vn -0.577 -0.577 -0.577
vn -0.577 -0.577 -0.577
vn -0.577 -0.577 -0.577
vn -0.577 -0.577 -0.577
vn -0.577 -0.577 -0.577
vn -0.577 -0.577 -0.577
vn -0.577 -0.577 -0.577
vn -0.577 -0.577 -0.577
vn -0.577 -0.577 -0.577
vn -0.577 -0.577 -0.577
vn -0.577 -0.577 -0.577
vn -0.577 -0.577 -0.577
vn -0.577 -0.577 -0.577
vn 0.577 0.577 0.577
vn 0.577 0.577 0.577
vn -0.577 -0.577 -0.577
vn 0.000 -1.000 0.000
vn 0.000 -1.000 0.000
vn 0.577 0.577 0.577
vn 0.577 0.577 0.577
vn -0.577 -0.577 -0.577
vn -0.577 -0.577 -0.577
vn -0.577 -0.577 -0.577
vn -0.577 -0.577 -0.577
vn -0.577 -0.577 -0.577
vn -0.577 -0.577 -0.577
vn -0.577 -0.577 -0.577
vn -0.577 -0.577 -0.577
vn -0.577 -0.577 -0.577
vn -0.577 -0.577 -0.577
vn -0.577 -0.577 -0.577
vn -0.577 -0.577 -0.577
vn -0.577 -0.577 -0.577
vn -0.577 -0.577 -0.577
vn -0.577 -0.577 -0.577
vn -0.577 -0.577 -0.577
vn -0.577 -0.577 -0.577
vn -0.577 -0.577 -0.577
vn -0.577 -0.577 -0.577
vn -0.577 -0.577 -0.577
vn -0.577 -0.577 -0.577
vn -0.577 -0.577 -0.577
vn -0.577 -0.577 -0.577
vn -0.577 -0.577 -0.577
vn -0.577 -0.577 -0.577
vn -0.577 -0.577 -0.577
vn -0.577 -0.577 -0.577
vn -0.577 -0.577 -0.577
vn -0.577 -0.577 -0.577
vn -0.577 -0.577 -0.577
vn -0.577 -0.577 -0.577
vn -0.577 -0.577 -0.577
vn -0.577 -0.577 -0.577
vn -0.577 -0.577 -0.577
vn -0.577 -0.577 -0.577
vn -0.577 -0.577 -0.577
vn -0.577 -0.577 -0.577
vn -0.577 -0.577 -0.577
vn -0.577 -0.577 -0.577
vn -0.577 -0.577 -0.577
vn -0.577 -0.577 -0.577
vn -0.577 -0.577 -0.577
vn -0.577 -0.577 -0.577
vn -0.577 -0.577 -0.577
vn -0.577 -0.577 -0.577
vn -0.577 -0.577 -0.577
vn -0.577 -0.577 -0.577
vn -0.577 -0.577 -0.577
vn -0.577 -0.577 -0.577
vn -0.577 -0.577 -0.577
vn -0.577 -0.577 -0.577
vn 0.577 0.577 0.577
vn -0.577 -0.577 -0.577
vn -0.577 -0.577 -0.577
vn -0.577 -0.577 -0.577
vn -0.577 -0.577 -0.577
vn -0.577 -0.577 -0.577
vn -0.577 -0.577 -0.577
vn -0.577 -0.577 -0.577
vn 0.577 0.577 0.577
vn -0.577 -0.577 -0.577
vn -0.577 -0.577 -0.577
vn -0.577 -0.577 -0.577
vn -0.577 -0.577 -0.577
vn -0.577 -0.577 -0.577
vn -0.577 -0.577 -0.577
vn -0.577 -0.577 -0.577
vn -0.577 -0.577 -0.577
vn -0.577 -0.577 -0.577
vn -0.577 -0.577 -0.577
vn -0.577 -0.577 -0.577
vn -0.577 -0.577 -0.577
vn -0.577 -0.577 -0.577
vn -0.577 -0.577 -0.577
vn -0.577 -0.577 -0.577
vn -0.577 -0.577 -0.577
vn -0.577 -0.577 -0.577
vn -0.577 -0.577 -0.577
vn -0.577 -0.577 -0.577
vn -0.577 -0.577 -0.577
vn -0.577 -0.577 -0.577
vn -0.577 -0.577 -0.577
vn -0.577 -0.577 -0.577
vn -0.577 -0.577 -0.577
vn -0.577 -0.577 -0.577
vn -0.577 -0.577 -0.577
vn -0.577 -0.577 -0.577
vn -0.577 -0.577 -0.577
vn -0.577 -0.577 -0.577
vn -0.577 -0.577 -0.577
vn -0.577 -0.577 -0.577
vn -0.577 -0.577 -0.577
vn -0.577 -0.577 -0.577
vn -0.577 -0.577 -0.577
vn -0.577 -0.577 -0.577
vn -0.577 -0.577 -0.577
vn -0.577 -0.577 -0.577
vn -0.577 -0.577 -0.577
vn -0.577 -0.577 -0.577
vn -0.577 -0.577 -0.577
vn -0.577 -0.577 -0.577
vn -0.577 -0.577 -0.577
vn -0.577 -0.577 -0.577
vn -0.577 -0.577 -0.577
vn -0.577 -0.577 -0.577
vn -0.577 -0.577 -0.577
vn 0.577 0.577 0.577
vn 0.577 0.577 0.577
vn 0.577 0.577 0.577
vn 0.577 0.577 0.577
vn -0.577 -0.577 -0.577
vn -0.577 -0.577 -0.577
vn -0.577 -0.577 -0.577
vn -0.577 -0.577 -0.577
vn -0.577 -0.577 -0.577
vn -0.577 -0.577 -0.577
vn -0.577 -0.577 -0.577
vn 0.577 0.577 0.577
vn -0.577 -0.577 -0.577
vn 0.577 0.577 0.577
vn -0.577 -0.577 -0.577
vn -0.577 -0.577 -0.577
vn -0.577 -0.577 -0.577
vn -0.577 -0.577 -0.577
vn -0.577 -0.577 -0.577
vn -0.577 -0.577 -0.577
vn -0.577 -0.577 -0.577
vn -0.577 -0.577 -0.577
vn -0.577 -0.577 -0.577
vn -0.577 -0.577 -0.577
vn -0.577 -0.577 -0.577
vn -0.577 -0.577 -0.577
vn -0.577 -0.577 -0.577
vn -0.577 -0.577 -0.577
vn -1.000 0.000 0.000
vn -0.577 -0.577 -0.577
vn -0.577 -0.577 -0.577
vn -1.000 0.000 0.000
vn -0.577 -0.577 -0.577
vn -0.577 -0.577 -0.577
vn -1.000 0.000 0.000
vn -1.000 0.000 0.000
vn -1.000 0.000 0.000
vn -0.577 -0.577 -0.577
vn -1.000 0.000 0.000
vn -1.000 0.000 0.000
vn -1.000 0.000 0.000
vn -1.000 0.000 0.000
vn -0.577 -0.577 -0.577
vn -1.000 0.000 0.000
vn -0.577 -0.577 -0.577
vn -0.577 -0.577 -0.577
vn -0.577 -0.577 -0.577
vn -0.577 -0.577 -0.577
vn -0.577 -0.577 -0.577
vn -0.577 -0.577 -0.577
vn -0.577 -0.577 -0.577
vn -0.577 -0.577 -0.577
vn -0.577 -0.577 -0.577
vn -0.577 -0.577 -0.577
vn -0.577 -0.577 -0.577
vn -0.577 -0.577 -0.577
vn -0.577 -0.577 -0.577
vn -0.577 -0.577 -0.577
vn -0.577 -0.577 -0.577
vn -0.577 -0.577 -0.577
vn -0.577 -0.577 -0.577
vn -0.577 -0.577 -0.577
vn -0.577 -0.577 -0.577
vn -0.577 -0.577 -0.577
vn -0.577 -0.577 -0.577
vn -0.577 -0.577 -0.577
vn -0.577 -0.577 -0.577
vn -0.577 -0.577 -0.577
vn -0.577 -0.577 -0.577
vn -0.577 -0.577 -0.577
vn -0.577 -0.577 -0.577
vn -0.577 -0.577 -0.577
vn -0.577 -0.577 -0.577
vn 0.577 0.577 0.577
vn -0.577 -0.577 -0.577
vn 0.577 0.577 0.577
vn 0.577 0.577 0.577
vn -0.577 -0.577 -0.577
vn 0.577 0.577 0.577
vn 0.577 0.577 0.577
vn 0.577 0.577 0.577
vn -0.577 -0.577 -0.577
vn -0.577 -0.577 -0.577
vn -0.577 -0.577 -0.577
vn -0.577 -0.577 -0.577
vn -0.577 -0.577 -0.577
vn -0.577 -0.577 -0.577
vn -0.577 -0.577 -0.577
vn -0.577 -0.577 -0.577
vn -0.577 -0.577 -0.577
vn -0.577 -0.577 -0.577
vn -0.577 -0.577 -0.577
vn -0.577 -0.577 -0.577
vn -0.577 -0.577 -0.577
vn -0.577 -0.577 -0.577
vn -0.577 -0.577 -0.577
vn -0.577 -0.577 -0.577
vn 0.547 0.452 0.705
vn 0.547 0.452 0.705
vn -0.547 0.452 0.705
vn -0.547 0.452 0.705
vn -0.913 0.127 0.389
vn 0.913 0.127 0.389
vn -1.000 0.000 0.000
vn -1.000 0.000 0.000
vn -1.000 0.000 0.000
vn -1.000 0.000 0.000
vn -1.000 0.000 0.000
vn -1.000 0.000 0.000
vn -1.000 0.000 0.000
vn -1.000 0.000 0.000
vn 1.000 0.000 0.000
vn 1.000 0.000 0.000
vn 1.000 0.000 0.000
vn 1.000 0.000 0.000
vn 1.000 0.000 0.000
vn 1.000 0.000 0.000
vn 1.000 0.000 0.000
vn 1.000 0.000 0.000
vn 0.786 -0.302 0.540
vn 0.539 -0.071 -0.840
vn 0.832 -0.016 0.555
vn -0.926 -0.063 0.372
vn 0.810 0.318 0.492
vn -0.906 0.238 0.350
vn -0.713 0.079 0.697
vn 0.676 0.676 0.294
vn 0.701 0.701 0.135
vn 0.000 0.991 0.135
vn 0.000 0.956 0.292
vn 0.956 0.000 0.292
vn 0.991 0.000 0.135
vn 0.676 -0.676 0.294
vn 0.701 -0.701 0.135
vn 0.000 -0.956 0.292
vn 0.000 -0.991 0.135
vn 0.701 -0.701 0.135
vn 0.676 -0.676 0.294
vn -0.676 -0.676 0.294
vn -0.701 -0.701 0.135
vn -0.956 0.000 0.292
vn -0.991 0.000 0.135
vn -0.676 0.676 0.294
vn -0.701 0.701 0.135
vn 0.000 0.956 0.292
vn 0.000 0.991 0.135
vn 0.206 0.500 0.841
vn 0.095 0.238 0.967
vn 0.676 0.676 0.294
vn -0.348 0.839 0.419
vn -0.348 0.839 0.419
vn -0.676 0.676 0.294
vn -0.135 0.325 0.936
vn -0.839 0.348 0.419
vn -0.956 0.000 0.292
vn -0.238 0.095 0.967
vn -0.839 -0.348 0.419
vn -0.676 -0.676 0.294
vn -0.238 -0.095 0.967
vn -0.348 -0.839 0.419
vn 0.000 -0.956 0.292
vn -0.206 -0.500 0.841
vn 0.348 -0.839 0.419
vn 0.676 -0.676 0.294
vn 0.135 -0.325 0.936
vn 0.839 -0.348 0.419
vn 0.676 -0.676 0.294
vn 0.956 0.000 0.292
vn 0.238 -0.095 0.967
vn 0.839 0.348 0.419
vn 0.676 0.676 0.294
vn 0.839 0.348 0.419
vn 0.095 0.238 0.967
vn 0.206 0.500 0.841
vn -0.135 0.325 0.936
vn -0.238 0.095 0.967
vn -0.238 -0.095 0.967
vn 0.135 -0.325 0.936
vn -0.206 -0.500 0.841
vn 0.786 -0.302 0.540
vn 0.539 -0.071 -0.840
vn 0.832 -0.016 0.555
vn -0.926 -0.063 0.372
vn 0.810 0.318 0.492
vn -0.906 0.238 0.350
vn -0.713 0.079 0.697
usemtl tex_939_lit
f 1/1/1 2/2/2 3/3/3
f 1/1/1 3/3/3 4/4/4
f 5/1/5 6/2/6 7/3/7
f 5/1/5 7/3/7 8/4/8
f 9/1/9 10/2/10 11/3/11
f 9/1/9 11/3/11 12/4/12
f 13/1/13 14/2/14 15/3/15
f 13/1/13 15/3/15 16/4/16
f 17/1/17 18/2/18 19/3/19
f 17/1/17 19/3/19 20/4/20
f 21/1/21 22/2/22 23/3/23
f 21/1/21 23/3/23 24/4/24
f 25/1/25 26/2/26 27/3/27
f 25/1/25 27/3/27 28/4/28
f 29/1/29 30/2/30 31/3/31
f 29/1/29 31/3/31 32/4/32
f 33/4/33 34/3/34 35/2/35
f 33/4/33 35/2/35 36/1/36
f 37/4/37 38/3/38 39/2/39
f 37/4/37 39/2/39 40/1/40
f 41/4/41 42/3/42 43/2/43
f 41/4/41 43/2/43 44/1/44
f 45/4/45 46/3/46 47/2/47
f 45/4/45 47/2/47 48/1/48
f 49/4/49 50/3/50 51/2/51
f 49/4/49 51/2/51 52/1/52
f 53/4/53 54/3/54 55/2/55
f 53/4/53 55/2/55 56/1/56
f 57/4/57 58/3/58 59/2/59
f 57/4/57 59/2/59 60/1/60
f 61/4/61 62/3/62 63/2/63
f 61/4/61 63/2/63 64/1/64
usemtl tex_1032_lit_w11
f 65/5/65 66/6/66 67/2/67
f 65/5/65 67/2/67 68/7/68
usemtl tex_1042_lit
f 69/3/69 70/2/70 71/8/71
f 69/3/69 71/8/71 72/9/72
f 73/10/73 74/11/74 75/12/75
f 73/10/73 75/12/75 76/13/76
f 77/14/77 78/15/78 79/16/79
f 80/17/80 77/14/77 79/16/79
f 81/13/81 82/12/82 83/18/83
f 81/13/81 83/18/83 84/19/84
f 85/20/85 86/21/86 87/14/87
f 85/20/85 87/14/87 88/17/88
f 89/22/89 84/19/84 83/18/83
f 90/23/90 86/21/86 85/20/85
f 91/24/91 92/25/92 93/26/93
f 91/24/91 93/26/93 94/1/94
f 95/27/95 87/14/87 86/21/86
f 95/27/95 86/21/86 96/28/96
f 97/29/97 98/27/98 99/28/99
f 100/30/100 97/29/97 99/28/99
f 100/30/100 99/28/99 101/31/101
f 100/30/100 101/31/101 102/32/102
f 102/32/102 101/31/101 103/33/103
f 104/34/104 105/35/105 106/36/106
f 107/37/107 105/35/105 104/34/104
f 108/38/108 109/39/109 110/40/110
f 108/38/108 101/31/101 99/28/99
f 109/39/109 108/38/108 111/41/111
f 108/38/108 99/28/99 112/42/112
f 111/41/111 108/38/108 112/42/112
f 113/43/113 114/41/114 115/42/115
f 116/36/116 113/43/113 115/42/115
f 117/35/117 113/43/113 116/36/116
f 118/32/118 119/33/119 120/40/120
f 118/32/118 120/40/120 121/39/121
f 122/44/122 123/45/123 124/24/124
f 122/44/122 124/24/124 125/1/125
f 126/46/126 127/47/127 123/45/123
f 126/46/126 123/45/123 122/44/122
f 128/48/128 129/49/129 130/47/130
f 128/48/128 130/47/130 131/46/131
f 132/50/132 133/51/133 129/49/129
f 132/50/132 129/49/129 128/48/128
f 134/52/134 135/18/135 136/12/136
f 137/2/137 135/18/135 134/52/134
f 137/2/137 134/52/134 138/53/138
f 139/54/139 137/2/137 138/53/138
f 140/55/140 137/2/137 139/54/139
f 141/56/141 137/2/137 140/55/140
f 142/57/142 140/55/140 139/54/139
f 140/55/140 142/57/142 143/58/143
f 144/58/144 145/57/145 146/59/146
f 146/59/146 145/57/145 147/60/147
f 148/56/148 146/59/146 147/60/147
f 149/61/149 150/2/150 148/56/148
f 149/61/149 148/56/148 151/62/151
f 151/62/151 148/56/148 147/60/147
f 152/63/152 149/61/149 151/62/151
f 153/64/153 149/61/149 152/63/152
f 154/65/154 153/64/153 152/63/152
f 155/66/155 153/64/153 154/65/154
f 156/67/156 155/66/155 154/65/154
f 157/51/157 158/50/158 159/68/159
f 160/69/160 161/70/161 162/71/162
f 162/71/162 163/72/163 160/69/160
f 161/70/161 164/73/164 162/71/162
f 165/74/165 166/75/166 163/72/163
f 165/74/165 163/72/163 162/71/162
f 165/74/165 162/71/162 164/73/164
f 165/74/165 164/73/164 167/76/167
usemtl tex_1042_lit_ds
f 168/77/168 169/78/169 170/79/170
f 168/77/168 170/79/170 171/80/171
f 168/77/168 171/80/171 172/81/172
f 168/77/168 172/81/172 173/82/173
f 174/83/174 175/84/175 170/79/170
f 174/83/174 170/79/170 169/78/169
f 176/2/176 177/82/177 178/81/178
f 176/2/176 178/81/178 179/85/179
f 179/85/179 178/81/178 180/86/180
f 180/86/180 178/81/178 181/87/181
f 181/87/181 178/81/178 182/84/182
f 183/88/183 181/87/181 182/84/182
f 183/88/183 182/84/182 184/83/184
f 185/89/185 183/88/183 184/83/184
f 185/89/185 184/83/184 179/85/179
f 180/86/180 185/89/185 179/85/179
f 186/80/186 187/79/187 188/78/188
f 186/80/186 188/78/188 189/77/189
f 190/82/190 191/81/191 186/80/186
f 190/82/190 186/80/186 189/77/189
f 192/78/192 193/79/193 194/84/194
f 192/78/192 194/84/194 195/83/195
f 196/81/196 197/82/197 198/2/198
f 199/85/199 196/81/196 198/2/198
f 200/86/200 196/81/196 199/85/199
f 201/87/201 196/81/196 200/86/200
f 194/84/194 196/81/196 201/87/201
f 194/84/194 201/87/201 202/88/202
f 195/83/195 194/84/194 202/88/202
f 195/83/195 202/88/202 203/89/203
f 199/85/199 195/83/195 203/89/203
f 199/85/199 203/89/203 200/86/200
usemtl tex_1042_lit
f 204/90/204 205/91/205 206/2/206
f 204/90/204 206/2/206 207/92/207
f 208/93/208 209/90/209 210/92/210
f 208/93/208 210/92/210 211/94/211
f 211/94/211 210/92/210 212/2/212
f 213/91/213 211/94/211 212/2/212
f 214/95/214 215/2/215 216/96/216
f 214/95/214 216/96/216 217/97/217
f 214/95/214 217/97/217 218/98/218
f 219/99/219 214/95/214 218/98/218
f 215/2/215 214/95/214 219/99/219
f 215/2/215 219/99/219 216/96/216
f 220/100/220 221/101/221 222/2/222
f 221/101/221 220/100/220 223/102/223
f 224/2/224 225/103/225 226/104/226
f 226/104/226 225/103/225 227/105/227
f 227/105/227 225/103/225 228/106/228
f 229/102/229 230/107/230 231/101/231
f 232/108/232 233/109/233 234/110/234
f 235/111/235 227/105/227 228/106/228
f 236/112/236 235/111/235 228/106/228
f 226/104/226 235/111/235 236/112/236
f 226/104/226 236/112/236 224/2/224
f 237/113/237 238/75/238 239/74/239
f 240/114/240 241/115/241 242/116/242
f 243/107/243 244/102/244 245/117/245
f 243/107/243 245/117/245 246/118/246
f 246/118/246 245/117/245 247/100/247
f 248/2/248 246/118/246 247/100/247
f 249/74/249 250/76/250 251/119/251
f 252/120/252 253/121/253 254/122/254
f 255/122/255 256/123/256 257/124/257
f 258/125/258 255/122/255 257/124/257
f 259/120/259 255/122/255 258/125/258
f 260/126/260 261/127/261 262/128/262
f 262/128/262 263/129/263 260/126/260
f 264/130/264 265/131/265 266/132/266
f 264/130/264 266/132/266 267/133/267
f 267/133/267 266/132/266 268/131/268
f 267/133/267 268/131/268 269/130/269
usemtl tex_1042_lit_ds
f 270/134/270 271/2/271 272/135/272
f 270/134/270 272/135/272 273/136/273
f 274/137/274 272/135/272 275/1/275
f 274/137/274 275/1/275 276/138/276
f 277/139/277 278/140/278 279/141/279
f 277/139/277 279/141/279 280/142/280
usemtl tex_1042_lit
f 281/143/281 282/144/282 283/145/283
f 283/145/283 282/144/282 284/146/284
f 285/147/285 286/148/286 287/149/287
f 288/150/288 285/147/285 287/149/287
f 289/151/289 285/147/285 288/150/288
f 290/2/290 291/152/291 292/146/292
f 293/143/293 294/153/294 295/154/295
f 296/155/296 297/156/297 298/157/298
f 296/155/296 298/157/298 299/158/299
f 296/155/296 299/158/299 300/159/300
f 301/160/301 302/161/302 303/2/303
f 304/154/304 302/161/302 301/160/301
f 305/162/305 306/152/306 303/2/303
f 305/162/305 303/2/303 307/163/307
f 308/164/308 309/162/309 310/163/310
f 307/163/307 303/2/303 311/165/311
f 308/164/308 310/163/310 312/165/312
f 308/164/308 312/165/312 313/166/313
f 314/167/314 306/152/306 305/162/305
f 315/168/315 316/167/316 309/162/309
f 315/168/315 309/162/309 308/164/308
f 317/152/317 318/167/318 319/169/319
f 320/167/320 321/168/321 322/170/322
f 320/167/320 322/170/322 323/169/323
f 324/153/324 317/152/317 319/169/319
f 324/153/324 319/169/319 325/171/325
f 323/169/323 322/170/322 326/171/326
f 324/153/324 325/171/325 327/172/327
f 326/171/326 322/170/322 328/173/328
f 326/171/326 328/173/328 329/172/329
f 330/154/330 324/153/324 327/172/327
f 330/154/330 327/172/327 331/174/331
f 329/172/329 328/173/328 332/174/332
f 333/161/333 334/175/334 335/176/335
f 336/175/336 337/173/337 338/166/338
f 336/175/336 338/166/338 339/176/339
f 333/161/333 335/176/335 340/165/340
f 333/161/333 340/165/340 341/2/341
f 339/176/339 338/166/338 342/165/342
f 334/175/334 333/161/333 343/154/343
f 334/175/334 343/154/343 344/174/344
f 337/173/337 336/175/336 345/174/345
f 346/177/346 347/178/347 348/179/348
f 349/178/349 350/145/350 351/146/351
f 349/178/349 351/146/351 352/179/352
f 353/178/353 354/177/354 355/180/355
f 353/178/353 355/180/355 356/181/356
f 350/145/350 349/178/349 357/181/357
f 356/181/356 355/180/355 358/182/358
f 359/143/359 350/145/350 357/181/357
f 359/143/359 357/181/357 360/182/360
f 361/183/361 362/184/362 363/185/363
f 361/183/361 363/185/363 364/186/364
f 365/152/365 366/183/366 367/186/367
f 368/186/368 369/185/369 370/187/370
f 365/152/365 367/186/367 371/187/371
f 365/152/365 371/187/371 372/146/372
f 370/187/370 369/185/369 373/177/373
f 370/187/370 373/177/373 374/179/374
f 372/146/372 371/187/371 375/179/375
f 376/188/376 377/184/377 378/183/378
f 376/188/376 378/183/378 379/189/379
f 366/183/366 365/152/365 380/189/380
f 381/188/381 382/189/382 383/190/383
f 384/189/384 385/152/385 386/153/386
f 384/189/384 386/153/386 387/190/387
f 388/180/388 381/188/381 383/190/383
f 388/180/388 383/190/383 389/191/389
f 387/190/387 386/153/386 390/191/390
f 388/180/388 389/191/389 391/182/391
f 390/191/390 386/153/386 392/143/392
f 390/191/390 392/143/392 393/182/393
usemtl tex_1042_lit_ds
f 394/192/394 395/193/395 396/194/396
f 397/192/397 398/194/398 399/195/399
f 400/193/400 401/2/401 402/196/402
f 400/193/400 402/196/402 403/194/403
f 404/197/404 405/198/405 406/1/406
f 404/197/404 406/1/406 407/199/407
f 408/200/408 409/197/409 410/199/410
f 408/200/408 410/199/410 411/201/411
usemtl tex_1040_lit
f 412/202/412 413/203/413 414/3/414
f 412/202/412 414/3/414 415/4/415
f 416/1/416 417/2/417 413/203/413
f 416/1/416 413/203/413 412/202/412
f 412/202/412 415/4/415 416/1/416
f 414/3/414 413/203/413 417/2/417
f 418/4/418 419/3/419 420/203/420
f 418/4/418 420/203/420 421/202/421
f 421/202/421 420/203/420 422/2/422
f 421/202/421 422/2/422 423/1/423
f 423/1/423 418/4/418 421/202/421
f 422/2/422 420/203/420 419/3/419
usemtl tex_407_lit_env_ds_ovl
f 424/204/424 425/204/425 426/204/426
f 424/204/424 426/204/426 427/204/427
f 428/204/428 429/204/429 425/204/425
f 428/204/428 425/204/425 424/204/424
f 430/204/430 429/204/429 428/204/428
usemtl tex_1041_lit_ds_ovl
f 431/1/431 432/4/432 433/3/433
f 431/1/431 433/3/433 434/2/434
f 435/2/435 436/3/436 437/4/437
f 435/2/435 437/4/437 438/1/438
usemtl tex_227_lit
f 439/205/439 440/2/440 441/206/441
f 442/207/442 443/2/443 444/208/444
f 442/207/442 444/208/444 445/209/445
f 439/205/439 441/206/441 446/210/446
f 447/205/447 448/210/448 449/211/449
f 449/211/449 450/212/450 447/205/447
f 451/213/451 452/214/452 453/215/453
f 451/213/451 453/215/453 454/216/454
f 455/217/455 456/2/456 457/218/457
f 455/217/455 457/218/457 458/219/458
f 459/220/459 460/221/460 456/2/456
f 459/220/459 456/2/456 455/217/455
usemtl tex_227_lit_ovl
f 461/222/461 462/223/462 460/221/460
f 461/222/461 460/221/460 459/220/459
f 463/224/463 464/225/464 465/223/465
f 463/224/463 465/223/465 466/222/466
usemtl tex_227_lit
f 467/226/467 468/227/468 469/228/469
f 470/229/470 467/226/467 469/228/469
f 470/229/470 469/228/469 471/230/471
f 469/228/469 468/227/468 472/2/472
usemtl tex_1043_lit_ds
f 473/231/473 474/232/474 475/233/475
f 473/231/473 475/233/475 476/1/476
f 477/231/477 478/232/478 479/233/479
f 477/231/477 479/233/479 480/1/480
usemtl tex_1043_lit
f 481/234/481 482/235/482 483/1/483
f 481/234/481 483/1/483 484/2/484
f 485/236/485 486/237/486 487/2/487
f 483/1/483 482/235/482 488/238/488
f 489/239/489 485/236/485 487/2/487
f 490/240/490 491/241/491 492/2/492
f 493/242/493 494/2/494 495/243/495
f 493/242/493 495/243/495 496/244/496
f 497/245/497 498/241/498 499/240/499
f 500/246/500 501/247/501 502/248/502
f 503/249/503 504/250/504 505/251/505
f 503/249/503 505/251/505 506/252/506
f 507/253/507 508/254/508 509/255/509
f 510/252/510 511/251/511 512/256/512
f 507/253/507 509/255/509 513/257/513
f 514/2/514 515/258/515 516/259/516
f 516/259/516 517/260/517 514/2/514
f 518/2/518 519/261/519 520/262/520
f 521/263/521 520/262/520 519/261/519
f 522/1/522 523/2/523 524/4/524
f 523/2/523 525/264/525 524/4/524
f 526/265/526 527/2/527 528/266/528
f 527/2/527 529/1/529 528/266/528
f 527/2/527 530/267/530 531/268/531
f 532/2/532 533/269/533 534/270/534
f 532/2/532 534/270/534 535/271/535
f 523/2/523 522/1/522 536/272/536
usemtl tex_1536_lit
f 537/273/537 538/274/538 539/275/539
f 537/273/537 539/275/539 540/276/540
f 541/2/541 542/277/542 539/275/539
f 541/2/541 539/275/539 538/274/538
f 543/278/543 544/279/544 545/280/545
f 543/278/543 545/280/545 541/2/541
f 546/281/546 547/282/547 544/279/544
f 546/281/546 544/279/544 543/278/543
f 548/283/548 549/284/549 550/285/550
f 548/283/548 550/285/550 551/286/551
usemtl tex_1046_lit
f 552/287/552 553/288/553 554/289/554
f 555/290/555 553/288/553 552/287/552
f 556/291/556 557/292/557 558/293/558
f 556/291/556 558/293/558 559/294/559
f 560/295/560 561/296/561 562/297/562
f 560/295/560 562/297/562 563/298/563
f 564/299/564 565/300/565 566/301/566
f 567/302/567 565/300/565 564/299/564
f 568/303/568 569/304/569 570/305/570
f 571/306/571 568/303/568 570/305/570
f 572/307/572 573/308/573 574/309/574
f 575/2/575 576/310/576 577/311/577
f 575/2/575 578/312/578 576/310/576
f 573/308/573 572/307/572 579/313/579
f 580/314/580 581/315/581 582/316/582
usemtl tex_1046_lit_ovl
f 583/317/583 584/2/584 585/318/585
usemtl tex_1046_lit
f 586/319/586 583/317/583 585/318/585
f 587/320/587 588/320/588 589/321/589
f 587/320/587 589/321/589 590/321/590
f 591/322/591 592/323/592 593/323/593
f 591/322/591 593/323/593 594/322/594
f 589/321/589 591/322/591 594/322/594
f 589/321/589 594/322/594 590/321/590
f 588/320/588 592/323/592 591/322/591
f 588/320/588 591/322/591 589/321/589
f 587/320/587 593/323/593 592/323/592
f 587/320/587 592/323/592 588/320/588
f 595/320/595 596/323/596 593/323/593
f 595/320/595 593/323/593 587/320/587
f 590/321/590 594/322/594 597/322/597
f 590/321/590 597/322/597 598/321/598
f 594/322/594 593/323/593 596/323/596
f 594/322/594 596/323/596 597/322/597
usemtl tex_1044_lit
f 599/324/599 600/325/600 601/2/601
usemtl tex_1044_lit_ovl
f 602/326/602 603/327/603 604/328/604
f 605/329/605 604/328/604 603/327/603
f 605/329/605 603/327/603 606/330/606
usemtl tex_1044_lit
f 607/2/607 608/331/608 609/332/609
f 607/2/607 609/332/609 610/333/610
f 611/334/611 612/2/612 613/335/613
usemtl tex_1044_lit_ovl
f 614/336/614 605/329/605 606/330/606
usemtl tex_1033_lit_w11_ovl
f 615/5/615 616/6/616 617/2/617
f 615/5/615 617/2/617 618/7/618
usemtl tex_1034_lit_w11_ovl
f 619/337/619 620/338/620 621/339/621
f 619/337/619 621/339/621 622/7/622
usemtl tex_1035_lit_w11_ovl
f 623/7/623 624/340/624 625/341/625
f 623/7/623 625/341/625 626/2/626
usemtl tex_1036_lit_w11
f 627/342/627 628/7/628 629/5/629
f 627/342/627 629/5/629 630/343/630
usemtl tex_1037_lit_w11_ovl
f 631/2/631 632/7/632 633/344/633
f 631/2/631 633/344/633 634/345/634
usemtl tex_1038_lit_w11_ovl
f 635/2/635 636/7/636 637/5/637
f 635/2/635 637/5/637 638/346/638
usemtl tex_1039_lit_w11_ovl
f 639/2/639 640/7/640 641/347/641
f 639/2/639 641/347/641 642/348/642
usemtl tex_198_lit_ovl
f 643/349/643 644/350/644 645/350/645
f 643/349/643 645/350/645 646/349/646
usemtl tex_198_lit
f 647/351/647 648/351/648 649/349/649
f 647/351/647 649/349/649 650/349/650
usemtl tex_198_lit_ovl
f 651/350/651 649/349/649 648/351/648
f 651/350/651 648/351/648 652/352/652
f 653/352/653 647/351/647 650/349/650
f 653/352/653 650/349/650 654/350/654
usemtl tex_198_lit
f 653/352/653 654/350/654 651/350/651
f 653/352/653 651/350/651 652/352/652
usemtl tex_198_lit_ovl
f 652/352/652 648/351/648 655/353/655
f 652/352/652 655/353/655 656/354/656
usemtl tex_198_lit
f 655/353/655 648/351/648 647/351/647
f 655/353/655 647/351/647 657/353/657
usemtl tex_198_lit_ovl
f 657/353/657 647/351/647 653/352/653
f 657/353/657 653/352/653 658/354/658
usemtl tex_198_lit
f 658/354/658 653/352/653 652/352/652
f 658/354/658 652/352/652 656/354/656
usemtl tex_198_lit_ovl
f 659/355/659 660/356/660 661/1/661
f 659/355/659 661/1/661 662/2/662
usemtl tex_198_lit
f 663/1/663 664/356/664 665/356/665
f 663/1/663 665/356/665 666/1/666
usemtl tex_198_lit_ovl
f 666/1/666 665/356/665 667/355/667
f 666/1/666 667/355/667 668/2/668
usemtl tex_198_lit
f 668/2/668 667/355/667 669/355/669
f 668/2/668 669/355/669 670/2/670
usemtl tex_1540_lit
f 671/357/671 672/358/672 673/359/673
f 671/357/671 673/359/673 674/360/674
f 675/2/675 676/1/676 677/361/677
f 675/2/675 677/361/677 678/362/678
f 679/363/679 680/364/680 681/365/681
f 679/363/679 681/365/681 682/366/682
f 683/1/683 684/2/684 685/367/685
f 683/1/683 685/367/685 686/368/686
f 687/369/687 688/370/688 689/358/689
f 687/369/687 689/358/689 690/357/690
f 688/370/688 687/369/687 691/360/691
f 688/370/688 691/360/691 692/359/692
f 693/371/693 694/372/694 695/361/695
f 693/371/693 695/361/695 696/1/696
f 697/2/697 698/362/698 694/372/694
f 697/2/697 694/372/694 693/371/693
f 699/371/699 700/373/700 701/367/701
f 699/371/699 701/367/701 702/2/702
f 703/368/703 700/373/700 699/371/699
f 703/368/703 699/371/699 704/1/704
f 705/374/705 706/365/706 707/364/707
f 705/374/705 707/364/707 708/375/708
f 709/366/709 710/374/710 711/375/711
f 709/366/709 711/375/711 712/363/712
usemtl tex_1514_lit_ovl
f 713/2/713 714/2/714 715/2/715
f 713/2/713 715/2/715 716/2/716
usemtl tex_1514_lit
f 717/2/717 718/2/718 719/2/719
f 717/2/717 719/2/719 720/2/720
f 721/2/721 722/2/722 723/2/723
f 721/2/721 723/2/723 724/2/724
f 725/2/725 726/2/726 727/2/727
f 725/2/725 727/2/727 728/2/728
f 729/2/729 725/2/725 728/2/728
f 729/2/729 728/2/728 730/2/730
f 731/2/731 729/2/729 730/2/730
f 732/2/732 729/2/729 731/2/731
usemtl tex_933_lit
f 733/2/733 734/1/734 735/376/735
f 733/2/733 735/376/735 736/377/736
f 737/378/737 738/379/738 739/380/739
f 737/378/737 739/380/739 740/381/740
usemtl tex_934_lit_ovl
f 741/382/741 742/383/742 743/384/743
f 741/382/741 743/384/743 744/385/744
usemtl tex_1089_lit_w11
f 745/4/745 746/386/746 747/2/747
f 745/4/745 747/2/747 748/1/748
f 749/1/749 750/4/750 751/387/751
f 749/1/749 751/387/751 752/2/752
f 753/1/753 754/4/754 755/388/755
f 753/1/753 755/388/755 756/2/756
f 757/1/757 758/4/758 759/389/759
f 757/1/757 759/389/759 760/2/760
usemtl tex_2346_lit
f 761/390/761 762/391/762 763/392/763
usemtl tex_2346_lit_ovl
f 761/390/761 763/392/763 764/2/764
f 761/390/761 764/2/764 765/393/765
usemtl tex_2346_lit
f 766/394/766 761/390/761 767/393/767
f 768/395/768 769/396/769 770/397/770
usemtl tex_2346_lit_ovl
f 768/395/768 770/397/770 771/398/771
usemtl tex_2346_lit
f 768/395/768 771/398/771 772/399/772
f 773/397/773 774/2/774 775/398/775
usemtl tex_1047_lit_sec_ds
f 776/400/776 777/401/777 778/1/778
f 776/400/776 778/1/778 779/2/779
f 780/402/780 781/403/781 779/2/779
f 780/402/780 779/2/779 778/1/778
f 782/404/782 783/405/783 784/406/784
f 785/407/785 786/3/786 787/408/787
f 779/2/779 781/403/781 788/409/788
f 789/410/789 780/402/780 778/1/778
usemtl tex_1047_lit_sec
f 790/4/790 791/3/791 792/2/792
f 790/4/790 792/2/792 793/1/793
f 794/4/794 795/3/795 796/2/796
f 794/4/794 796/2/796 797/1/797
usemtl tex_930_lit_sec
f 798/1/798 799/4/799 800/3/800
f 798/1/798 800/3/800 801/2/801
f 802/2/802 803/3/803 804/4/804
f 802/2/802 804/4/804 805/1/805
f 806/1/806 807/4/807 808/3/808
f 806/1/806 808/3/808 809/2/809
f 810/2/810 811/3/811 812/4/812
f 810/2/810 812/4/812 813/1/813
usemtl tex_408_lit_env_sec_ds
f 814/411/814 815/411/815 816/412/816
f 814/411/814 816/412/816 817/412/817
f 818/413/818 817/412/817 816/412/816
f 819/414/819 815/411/815 814/411/814
usemtl tex_408_lit_env_sec_ds_ovl
f 820/415/820 821/415/821 822/415/822
f 820/415/820 822/415/822 823/415/823
f 824/415/824 825/415/825 826/415/826
f 824/415/824 826/415/826 827/415/827
f 828/204/828 829/204/829 830/204/830
f 828/204/828 830/204/830 831/204/831
f 832/204/832 833/204/833 834/204/834
f 832/204/832 834/204/834 835/204/835
usemtl tex_407_lit_env
f 836/416/836 837/417/837 838/418/838
f 839/419/839 837/417/837 836/416/836
f 840/420/840 838/418/838 837/417/837
f 840/420/840 837/417/837 841/421/841
f 838/418/838 842/422/842 836/416/836
f 840/420/840 842/422/842 838/418/838
f 841/421/841 842/422/842 840/420/840
f 837/417/837 842/422/842 841/421/841
f 839/419/839 842/422/842 837/417/837
f 836/416/836 842/422/842 839/419/839
f 843/423/843 844/424/844 845/425/845
f 843/423/843 845/425/845 846/426/846
f 847/427/847 848/428/848 844/424/844
f 847/427/847 844/424/844 843/423/843
f 849/429/849 850/430/850 848/428/848
f 849/429/849 848/428/848 847/427/847
f 851/431/851 852/432/852 853/430/853
f 851/431/851 853/430/853 854/429/854
f 855/433/855 856/434/856 852/432/852
f 855/433/855 852/432/852 851/431/851
f 857/435/857 858/436/858 856/434/856
f 857/435/857 856/434/856 855/433/855
f 859/437/859 860/438/860 858/436/858
f 859/437/859 858/436/858 857/435/857
f 861/426/861 862/425/862 860/438/860
f 861/426/861 860/438/860 859/437/859
f 863/439/863 864/440/864 865/423/865
f 863/439/863 865/423/865 861/426/861
f 866/441/866 861/426/861 859/437/859
f 867/441/867 868/437/868 869/442/869
f 870/443/870 868/437/868 871/435/871
f 870/443/870 871/435/871 872/444/872
f 873/445/873 871/435/871 874/433/874
f 873/445/873 874/433/874 875/446/875
f 876/447/876 874/433/874 877/431/877
f 876/447/876 877/431/877 878/448/878
f 879/449/879 877/431/877 880/429/880
f 879/449/879 880/429/880 881/450/881
f 882/451/882 883/429/883 884/427/884
f 882/451/882 884/427/884 885/452/885
f 886/453/886 884/427/884 887/423/887
f 886/453/886 887/423/887 888/453/888
f 889/440/889 890/439/890 891/442/891
f 889/440/889 891/442/891 892/444/892
f 885/452/885 889/440/889 892/444/892
f 885/452/885 892/444/892 893/446/893
f 894/450/894 885/452/885 893/446/893
f 894/450/894 893/446/893 895/448/895
f 896/416/896 897/417/897 898/418/898
f 899/419/899 897/417/897 896/416/896
f 900/420/900 898/418/898 897/417/897
f 900/420/900 897/417/897 901/421/901
f 898/418/898 902/422/902 896/416/896
f 900/420/900 902/422/902 898/418/898
f 901/421/901 902/422/902 900/420/900
f 897/417/897 902/422/902 901/421/901
f 899/419/899 902/422/902 897/417/897
f 896/416/896 902/422/902 899/419/899
