mtllib Psat1_reflectZ.mtl
v 0.0 800.0 2975.0 1.000 1.000 1.000
v -754.0 555.0 2975.0 1.000 1.000 1.000
v -617.0 366.0 2975.0 1.000 1.000 1.000
v 0.0 566.0 2975.0 1.000 1.000 1.000
v -754.0 555.0 2975.0 1.000 1.000 1.000
v -1221.0 -87.0 2975.0 1.000 1.000 1.000
v -999.0 -159.0 2975.0 1.000 1.000 1.000
v -617.0 366.0 2975.0 1.000 1.000 1.000
v -1221.0 -87.0 2975.0 1.000 1.000 1.000
v -1221.0 -880.0 2975.0 1.000 1.000 1.000
v -999.0 -808.0 2975.0 1.000 1.000 1.000
v -999.0 -159.0 2975.0 1.000 1.000 1.000
v -1221.0 -880.0 2975.0 1.000 1.000 1.000
v -754.0 -1522.0 2975.0 1.000 1.000 1.000
v -617.0 -1333.0 2975.0 1.000 1.000 1.000
v -999.0 -808.0 2975.0 1.000 1.000 1.000
v -754.0 -1522.0 2975.0 1.000 1.000 1.000
v 0.0 -1767.0 2975.0 1.000 1.000 1.000
v 0.0 -1534.0 2975.0 1.000 1.000 1.000
v -617.0 -1333.0 2975.0 1.000 1.000 1.000
v 0.0 -1767.0 2975.0 1.000 1.000 1.000
v 754.0 -1522.0 2975.0 1.000 1.000 1.000
v 617.0 -1333.0 2975.0 1.000 1.000 1.000
v 0.0 -1534.0 2975.0 1.000 1.000 1.000
v 754.0 -1522.0 2975.0 1.000 1.000 1.000
v 1221.0 -880.0 2975.0 1.000 1.000 1.000
v 999.0 -808.0 2975.0 1.000 1.000 1.000
v 617.0 -1333.0 2975.0 1.000 1.000 1.000
v 1221.0 -880.0 2975.0 1.000 1.000 1.000
v 1221.0 -87.0 2975.0 1.000 1.000 1.000
v 999.0 -159.0 2975.0 1.000 1.000 1.000
v 999.0 -808.0 2975.0 1.000 1.000 1.000
v 1221.0 -87.0 2975.0 1.000 1.000 1.000
v 754.0 555.0 2975.0 1.000 1.000 1.000
v 617.0 366.0 2975.0 1.000 1.000 1.000
v 999.0 -159.0 2975.0 1.000 1.000 1.000
v 754.0 555.0 2975.0 1.000 1.000 1.000
v 0.0 800.0 2975.0 1.000 1.000 1.000
v 0.0 566.0 2975.0 1.000 1.000 1.000
v 617.0 366.0 2975.0 1.000 1.000 1.000
v 0.0 1033.0 -2392.0 1.000 1.000 1.000
v -891.0 743.0 -2392.0 1.000 1.000 1.000
v -617.0 366.0 -1458.0 1.000 1.000 1.000
v 0.0 566.0 -1458.0 1.000 1.000 1.000
v -891.0 743.0 -2392.0 1.000 1.000 1.000
v -1442.0 -15.0 -2392.0 1.000 1.000 1.000
v -999.0 -159.0 -1458.0 1.000 1.000 1.000
v -617.0 366.0 -1458.0 1.000 1.000 1.000
v -1442.0 -15.0 -2392.0 1.000 1.000 1.000
v -1442.0 -952.0 -2392.0 1.000 1.000 1.000
v -999.0 -808.0 -1458.0 1.000 1.000 1.000
v -999.0 -159.0 -1458.0 1.000 1.000 1.000
v -1442.0 -952.0 -2392.0 1.000 1.000 1.000
v -891.0 -1711.0 -2392.0 1.000 1.000 1.000
v -617.0 -1333.0 -1458.0 1.000 1.000 1.000
v -999.0 -808.0 -1458.0 1.000 1.000 1.000
v -891.0 -1711.0 -2392.0 1.000 1.000 1.000
v 0.0 -2000.0 -2392.0 1.000 1.000 1.000
v 0.0 -1534.0 -1458.0 1.000 1.000 1.000
v -617.0 -1333.0 -1458.0 1.000 1.000 1.000
v 0.0 -2000.0 -2392.0 1.000 1.000 1.000
v 891.0 -1711.0 -2392.0 1.000 1.000 1.000
v 617.0 -1333.0 -1458.0 1.000 1.000 1.000
v 0.0 -1534.0 -1458.0 1.000 1.000 1.000
v 891.0 -1711.0 -2392.0 1.000 1.000 1.000
v 1442.0 -952.0 -2392.0 1.000 1.000 1.000
v 999.0 -808.0 -1458.0 1.000 1.000 1.000
v 617.0 -1333.0 -1458.0 1.000 1.000 1.000
v 1442.0 -952.0 -2392.0 1.000 1.000 1.000
v 1442.0 -15.0 -2392.0 1.000 1.000 1.000
v 999.0 -159.0 -1458.0 1.000 1.000 1.000
v 999.0 -808.0 -1458.0 1.000 1.000 1.000
v 1442.0 -15.0 -2392.0 1.000 1.000 1.000
v 891.0 743.0 -2392.0 1.000 1.000 1.000
v 617.0 366.0 -1458.0 1.000 1.000 1.000
v 999.0 -159.0 -1458.0 1.000 1.000 1.000
v 891.0 743.0 -2392.0 1.000 1.000 1.000
v 0.0 1033.0 -2392.0 1.000 1.000 1.000
v 0.0 566.0 -1458.0 1.000 1.000 1.000
v 617.0 366.0 -1458.0 1.000 1.000 1.000
v 0.0 683.0 -4258.0 1.000 1.000 1.000
v -686.0 460.0 -4258.0 1.000 1.000 1.000
v -891.0 743.0 -4258.0 1.000 1.000 1.000
v 0.0 1033.0 -4258.0 1.000 1.000 1.000
v -686.0 460.0 -4258.0 1.000 1.000 1.000
v -1110.0 -123.0 -4258.0 1.000 1.000 1.000
v -1442.0 -15.0 -4258.0 1.000 1.000 1.000
v -891.0 743.0 -4258.0 1.000 1.000 1.000
v -1110.0 -123.0 -4258.0 1.000 1.000 1.000
v -1110.0 -844.0 -4258.0 1.000 1.000 1.000
v -1442.0 -952.0 -4258.0 1.000 1.000 1.000
v -1442.0 -15.0 -4258.0 1.000 1.000 1.000
v -1110.0 -844.0 -4258.0 1.000 1.000 1.000
v -686.0 -1427.0 -4258.0 1.000 1.000 1.000
v -891.0 -1711.0 -4258.0 1.000 1.000 1.000
v -1442.0 -952.0 -4258.0 1.000 1.000 1.000
v -686.0 -1427.0 -4258.0 1.000 1.000 1.000
v 0.0 -1650.0 -4258.0 1.000 1.000 1.000
v 0.0 -2000.0 -4258.0 1.000 1.000 1.000
v -891.0 -1711.0 -4258.0 1.000 1.000 1.000
v 0.0 -1650.0 -4258.0 1.000 1.000 1.000
v 686.0 -1427.0 -4258.0 1.000 1.000 1.000
v 891.0 -1711.0 -4258.0 1.000 1.000 1.000
v 0.0 -2000.0 -4258.0 1.000 1.000 1.000
v 686.0 -1427.0 -4258.0 1.000 1.000 1.000
v 1110.0 -844.0 -4258.0 1.000 1.000 1.000
v 1442.0 -952.0 -4258.0 1.000 1.000 1.000
v 891.0 -1711.0 -4258.0 1.000 1.000 1.000
v 1110.0 -844.0 -4258.0 1.000 1.000 1.000
v 1110.0 -123.0 -4258.0 1.000 1.000 1.000
v 1442.0 -15.0 -4258.0 1.000 1.000 1.000
v 1442.0 -952.0 -4258.0 1.000 1.000 1.000
v 1110.0 -123.0 -4258.0 1.000 1.000 1.000
v 686.0 460.0 -4258.0 1.000 1.000 1.000
v 891.0 743.0 -4258.0 1.000 1.000 1.000
v 1442.0 -15.0 -4258.0 1.000 1.000 1.000
v 686.0 460.0 -4258.0 1.000 1.000 1.000
v 0.0 683.0 -4258.0 1.000 1.000 1.000
v 0.0 1033.0 -4258.0 1.000 1.000 1.000
v 891.0 743.0 -4258.0 1.000 1.000 1.000
v 1050.0 3016.0 1342.0 1.000 1.000 1.000
v 933.0 3250.0 1342.0 1.000 1.000 1.000
v 933.0 3250.0 -1458.0 1.000 1.000 1.000
v 1050.0 3016.0 -1458.0 1.000 1.000 1.000
v 1167.0 3250.0 -1458.0 1.000 1.000 1.000
v 933.0 3250.0 -1458.0 1.000 1.000 1.000
v 933.0 3250.0 1342.0 1.000 1.000 1.000
v 1167.0 3250.0 1342.0 1.000 1.000 1.000
v 1050.0 3016.0 -1458.0 1.000 1.000 1.000
v 1167.0 3250.0 -1458.0 1.000 1.000 1.000
v 1167.0 3250.0 1342.0 1.000 1.000 1.000
v 1050.0 3016.0 1342.0 1.000 1.000 1.000
v -1057.0 3019.0 1342.0 1.000 1.000 1.000
v -1174.0 3253.0 1342.0 1.000 1.000 1.000
v -1174.0 3253.0 -1458.0 1.000 1.000 1.000
v -1057.0 3019.0 -1458.0 1.000 1.000 1.000
v -940.0 3253.0 -1458.0 1.000 1.000 1.000
v -1174.0 3253.0 -1458.0 1.000 1.000 1.000
v -1174.0 3253.0 1342.0 1.000 1.000 1.000
v -940.0 3253.0 1342.0 1.000 1.000 1.000
v -1057.0 3019.0 -1458.0 1.000 1.000 1.000
v -940.0 3253.0 -1458.0 1.000 1.000 1.000
v -940.0 3253.0 1342.0 1.000 1.000 1.000
v -1057.0 3019.0 1342.0 1.000 1.000 1.000
v 0.0 1033.0 -4258.0 1.000 1.000 1.000
v -891.0 743.0 -4258.0 1.000 1.000 1.000
v -891.0 743.0 -2392.0 1.000 1.000 1.000
v 0.0 1033.0 -2392.0 1.000 1.000 1.000
v -891.0 743.0 -4258.0 1.000 1.000 1.000
v -1442.0 -15.0 -4258.0 1.000 1.000 1.000
v -1442.0 -15.0 -2392.0 1.000 1.000 1.000
v -891.0 743.0 -2392.0 1.000 1.000 1.000
v -1442.0 -952.0 -4258.0 1.000 1.000 1.000
v -1442.0 -952.0 -2392.0 1.000 1.000 1.000
v -1442.0 -952.0 -4258.0 1.000 1.000 1.000
v -891.0 -1711.0 -4258.0 1.000 1.000 1.000
v -891.0 -1711.0 -2392.0 1.000 1.000 1.000
v -1442.0 -952.0 -2392.0 1.000 1.000 1.000
v 0.0 -2000.0 -4258.0 1.000 1.000 1.000
v 0.0 -2000.0 -2392.0 1.000 1.000 1.000
v 0.0 -2000.0 -4258.0 1.000 1.000 1.000
v 891.0 -1711.0 -4258.0 1.000 1.000 1.000
v 891.0 -1711.0 -2392.0 1.000 1.000 1.000
v 0.0 -2000.0 -2392.0 1.000 1.000 1.000
v 1442.0 -952.0 -4258.0 1.000 1.000 1.000
v 1442.0 -952.0 -2392.0 1.000 1.000 1.000
v 1442.0 -952.0 -4258.0 1.000 1.000 1.000
v 1442.0 -15.0 -4258.0 1.000 1.000 1.000
v 1442.0 -15.0 -2392.0 1.000 1.000 1.000
v 1442.0 -952.0 -2392.0 1.000 1.000 1.000
v 891.0 743.0 -4258.0 1.000 1.000 1.000
v 891.0 743.0 -2392.0 1.000 1.000 1.000
v 891.0 743.0 -4258.0 1.000 1.000 1.000
v 0.0 1033.0 -4258.0 1.000 1.000 1.000
v 0.0 1033.0 -2392.0 1.000 1.000 1.000
v 891.0 743.0 -2392.0 1.000 1.000 1.000
v 0.0 916.0 1925.0 1.000 1.000 1.000
v -823.0 649.0 1925.0 1.000 1.000 1.000
v -754.0 555.0 2975.0 1.000 1.000 1.000
v 0.0 800.0 2975.0 1.000 1.000 1.000
v -823.0 649.0 1925.0 1.000 1.000 1.000
v -1331.0 -51.0 1925.0 1.000 1.000 1.000
v -1221.0 -87.0 2975.0 1.000 1.000 1.000
v -754.0 555.0 2975.0 1.000 1.000 1.000
v -1331.0 -51.0 1925.0 1.000 1.000 1.000
v -1331.0 -916.0 1925.0 1.000 1.000 1.000
v -1221.0 -880.0 2975.0 1.000 1.000 1.000
v -1221.0 -87.0 2975.0 1.000 1.000 1.000
v -1331.0 -916.0 1925.0 1.000 1.000 1.000
v -823.0 -1616.0 1925.0 1.000 1.000 1.000
v -754.0 -1522.0 2975.0 1.000 1.000 1.000
v -1221.0 -880.0 2975.0 1.000 1.000 1.000
v -823.0 -1616.0 1925.0 1.000 1.000 1.000
v 0.0 -1884.0 1925.0 1.000 1.000 1.000
v 0.0 -1767.0 2975.0 1.000 1.000 1.000
v -754.0 -1522.0 2975.0 1.000 1.000 1.000
v 0.0 -1884.0 1925.0 1.000 1.000 1.000
v 823.0 -1616.0 1925.0 1.000 1.000 1.000
v 754.0 -1522.0 2975.0 1.000 1.000 1.000
v 0.0 -1767.0 2975.0 1.000 1.000 1.000
v 823.0 -1616.0 1925.0 1.000 1.000 1.000
v 1331.0 -916.0 1925.0 1.000 1.000 1.000
v 1221.0 -880.0 2975.0 1.000 1.000 1.000
v 754.0 -1522.0 2975.0 1.000 1.000 1.000
v 1331.0 -916.0 1925.0 1.000 1.000 1.000
v 1331.0 -51.0 1925.0 1.000 1.000 1.000
v 1221.0 -87.0 2975.0 1.000 1.000 1.000
v 1221.0 -880.0 2975.0 1.000 1.000 1.000
v 1331.0 -51.0 1925.0 1.000 1.000 1.000
v 823.0 649.0 1925.0 1.000 1.000 1.000
v 754.0 555.0 2975.0 1.000 1.000 1.000
v 1221.0 -87.0 2975.0 1.000 1.000 1.000
v 823.0 649.0 1925.0 1.000 1.000 1.000
v 0.0 916.0 1925.0 1.000 1.000 1.000
v 0.0 800.0 2975.0 1.000 1.000 1.000
v 754.0 555.0 2975.0 1.000 1.000 1.000
v 0.0 566.0 2975.0 1.000 1.000 1.000
v -617.0 366.0 2975.0 1.000 1.000 1.000
v -480.0 177.0 4142.0 1.000 1.000 1.000
v 0.0 333.0 4142.0 1.000 1.000 1.000
v -617.0 366.0 2975.0 1.000 1.000 1.000
v -999.0 -159.0 2975.0 1.000 1.000 1.000
v -777.0 -231.0 4142.0 1.000 1.000 1.000
v -480.0 177.0 4142.0 1.000 1.000 1.000
v -999.0 -159.0 2975.0 1.000 1.000 1.000
v -999.0 -808.0 2975.0 1.000 1.000 1.000
v -777.0 -736.0 4142.0 1.000 1.000 1.000
v -777.0 -231.0 4142.0 1.000 1.000 1.000
v -999.0 -808.0 2975.0 1.000 1.000 1.000
v -617.0 -1333.0 2975.0 1.000 1.000 1.000
v -480.0 -1144.0 4142.0 1.000 1.000 1.000
v -777.0 -736.0 4142.0 1.000 1.000 1.000
v -617.0 -1333.0 2975.0 1.000 1.000 1.000
v 0.0 -1534.0 2975.0 1.000 1.000 1.000
v 0.0 -1300.0 4142.0 1.000 1.000 1.000
v -480.0 -1144.0 4142.0 1.000 1.000 1.000
v 0.0 -1534.0 2975.0 1.000 1.000 1.000
v 617.0 -1333.0 2975.0 1.000 1.000 1.000
v 480.0 -1144.0 4142.0 1.000 1.000 1.000
v 0.0 -1300.0 4142.0 1.000 1.000 1.000
v 617.0 -1333.0 2975.0 1.000 1.000 1.000
v 999.0 -808.0 2975.0 1.000 1.000 1.000
v 777.0 -736.0 4142.0 1.000 1.000 1.000
v 480.0 -1144.0 4142.0 1.000 1.000 1.000
v 999.0 -808.0 2975.0 1.000 1.000 1.000
v 999.0 -159.0 2975.0 1.000 1.000 1.000
v 777.0 -231.0 4142.0 1.000 1.000 1.000
v 777.0 -736.0 4142.0 1.000 1.000 1.000
v 999.0 -159.0 2975.0 1.000 1.000 1.000
v 617.0 366.0 2975.0 1.000 1.000 1.000
v 480.0 177.0 4142.0 1.000 1.000 1.000
v 777.0 -231.0 4142.0 1.000 1.000 1.000
v 617.0 366.0 2975.0 1.000 1.000 1.000
v 0.0 566.0 2975.0 1.000 1.000 1.000
v 0.0 333.0 4142.0 1.000 1.000 1.000
v 480.0 177.0 4142.0 1.000 1.000 1.000
v 0.0 566.0 -1458.0 1.000 1.000 1.000
v -617.0 366.0 -1458.0 1.000 1.000 1.000
v -617.0 366.0 1925.0 1.000 1.000 1.000
v 0.0 566.0 1925.0 1.000 1.000 1.000
v -617.0 366.0 -1458.0 1.000 1.000 1.000
v -999.0 -159.0 -1458.0 1.000 1.000 1.000
v -999.0 -159.0 1925.0 1.000 1.000 1.000
v -617.0 366.0 1925.0 1.000 1.000 1.000
v -999.0 -159.0 -1458.0 1.000 1.000 1.000
v -999.0 -808.0 -1458.0 1.000 1.000 1.000
v -999.0 -808.0 1925.0 1.000 1.000 1.000
v -999.0 -159.0 1925.0 1.000 1.000 1.000
v -999.0 -808.0 -1458.0 1.000 1.000 1.000
v -617.0 -1333.0 -1458.0 1.000 1.000 1.000
v -617.0 -1333.0 1925.0 1.000 1.000 1.000
v -999.0 -808.0 1925.0 1.000 1.000 1.000
v -617.0 -1333.0 -1458.0 1.000 1.000 1.000
v 0.0 -1534.0 -1458.0 1.000 1.000 1.000
v 0.0 -1534.0 1925.0 1.000 1.000 1.000
v -617.0 -1333.0 1925.0 1.000 1.000 1.000
v 0.0 -1534.0 -1458.0 1.000 1.000 1.000
v 617.0 -1333.0 -1458.0 1.000 1.000 1.000
v 617.0 -1333.0 1925.0 1.000 1.000 1.000
v 0.0 -1534.0 1925.0 1.000 1.000 1.000
v 617.0 -1333.0 -1458.0 1.000 1.000 1.000
v 999.0 -808.0 -1458.0 1.000 1.000 1.000
v 999.0 -808.0 1925.0 1.000 1.000 1.000
v 617.0 -1333.0 1925.0 1.000 1.000 1.000
v 999.0 -159.0 -1458.0 1.000 1.000 1.000
v 999.0 -159.0 1925.0 1.000 1.000 1.000
v 999.0 -808.0 1925.0 1.000 1.000 1.000
v 999.0 -159.0 -1458.0 1.000 1.000 1.000
v 617.0 366.0 -1458.0 1.000 1.000 1.000
v 617.0 366.0 1925.0 1.000 1.000 1.000
v 999.0 -159.0 1925.0 1.000 1.000 1.000
v 617.0 366.0 -1458.0 1.000 1.000 1.000
v 0.0 566.0 -1458.0 1.000 1.000 1.000
v 0.0 566.0 1925.0 1.000 1.000 1.000
v 617.0 366.0 1925.0 1.000 1.000 1.000
v 0.0 333.0 4142.0 1.000 1.000 1.000
v -480.0 177.0 4142.0 1.000 1.000 1.000
v -206.0 -200.0 4842.0 1.000 1.000 1.000
v 0.0 -134.0 4842.0 1.000 1.000 1.000
v -480.0 177.0 4142.0 1.000 1.000 1.000
v -777.0 -231.0 4142.0 1.000 1.000 1.000
v -333.0 -375.0 4842.0 1.000 1.000 1.000
v -206.0 -200.0 4842.0 1.000 1.000 1.000
v -777.0 -231.0 4142.0 1.000 1.000 1.000
v -777.0 -736.0 4142.0 1.000 1.000 1.000
v -333.0 -592.0 4842.0 1.000 1.000 1.000
v -333.0 -375.0 4842.0 1.000 1.000 1.000
v -777.0 -736.0 4142.0 1.000 1.000 1.000
v -480.0 -1144.0 4142.0 1.000 1.000 1.000
v -206.0 -767.0 4842.0 1.000 1.000 1.000
v -333.0 -592.0 4842.0 1.000 1.000 1.000
v -480.0 -1144.0 4142.0 1.000 1.000 1.000
v 0.0 -1300.0 4142.0 1.000 1.000 1.000
v 0.0 -834.0 4842.0 1.000 1.000 1.000
v -206.0 -767.0 4842.0 1.000 1.000 1.000
v 0.0 -1300.0 4142.0 1.000 1.000 1.000
v 480.0 -1144.0 4142.0 1.000 1.000 1.000
v 206.0 -767.0 4842.0 1.000 1.000 1.000
v 0.0 -834.0 4842.0 1.000 1.000 1.000
v 480.0 -1144.0 4142.0 1.000 1.000 1.000
v 777.0 -736.0 4142.0 1.000 1.000 1.000
v 333.0 -592.0 4842.0 1.000 1.000 1.000
v 206.0 -767.0 4842.0 1.000 1.000 1.000
v 777.0 -736.0 4142.0 1.000 1.000 1.000
v 777.0 -231.0 4142.0 1.000 1.000 1.000
v 333.0 -375.0 4842.0 1.000 1.000 1.000
v 333.0 -592.0 4842.0 1.000 1.000 1.000
v 777.0 -231.0 4142.0 1.000 1.000 1.000
v 480.0 177.0 4142.0 1.000 1.000 1.000
v 206.0 -200.0 4842.0 1.000 1.000 1.000
v 333.0 -375.0 4842.0 1.000 1.000 1.000
v 480.0 177.0 4142.0 1.000 1.000 1.000
v 0.0 333.0 4142.0 1.000 1.000 1.000
v 0.0 -134.0 4842.0 1.000 1.000 1.000
v 206.0 -200.0 4842.0 1.000 1.000 1.000
v 0.0 566.0 1925.0 1.000 1.000 1.000
v -617.0 366.0 1925.0 1.000 1.000 1.000
v -823.0 649.0 1925.0 1.000 1.000 1.000
v 0.0 916.0 1925.0 1.000 1.000 1.000
v -617.0 366.0 1925.0 1.000 1.000 1.000
v -999.0 -159.0 1925.0 1.000 1.000 1.000
v -1331.0 -51.0 1925.0 1.000 1.000 1.000
v -823.0 649.0 1925.0 1.000 1.000 1.000
v -999.0 -159.0 1925.0 1.000 1.000 1.000
v -999.0 -808.0 1925.0 1.000 1.000 1.000
v -1331.0 -916.0 1925.0 1.000 1.000 1.000
v -1331.0 -51.0 1925.0 1.000 1.000 1.000
v -999.0 -808.0 1925.0 1.000 1.000 1.000
v -617.0 -1333.0 1925.0 1.000 1.000 1.000
v -823.0 -1616.0 1925.0 1.000 1.000 1.000
v -1331.0 -916.0 1925.0 1.000 1.000 1.000
v -617.0 -1333.0 1925.0 1.000 1.000 1.000
v 0.0 -1534.0 1925.0 1.000 1.000 1.000
v 0.0 -1884.0 1925.0 1.000 1.000 1.000
v -823.0 -1616.0 1925.0 1.000 1.000 1.000
v 0.0 -1534.0 1925.0 1.000 1.000 1.000
v 617.0 -1333.0 1925.0 1.000 1.000 1.000
v 823.0 -1616.0 1925.0 1.000 1.000 1.000
v 0.0 -1884.0 1925.0 1.000 1.000 1.000
v 617.0 -1333.0 1925.0 1.000 1.000 1.000
v 999.0 -808.0 1925.0 1.000 1.000 1.000
v 1331.0 -916.0 1925.0 1.000 1.000 1.000
v 823.0 -1616.0 1925.0 1.000 1.000 1.000
v 999.0 -808.0 1925.0 1.000 1.000 1.000
v 999.0 -159.0 1925.0 1.000 1.000 1.000
v 1331.0 -51.0 1925.0 1.000 1.000 1.000
v 1331.0 -916.0 1925.0 1.000 1.000 1.000
v 999.0 -159.0 1925.0 1.000 1.000 1.000
v 617.0 366.0 1925.0 1.000 1.000 1.000
v 823.0 649.0 1925.0 1.000 1.000 1.000
v 1331.0 -51.0 1925.0 1.000 1.000 1.000
v 617.0 366.0 1925.0 1.000 1.000 1.000
v 0.0 566.0 1925.0 1.000 1.000 1.000
v 0.0 916.0 1925.0 1.000 1.000 1.000
v 823.0 649.0 1925.0 1.000 1.000 1.000
v 0.0 683.0 -4725.0 1.000 1.000 1.000
v -686.0 460.0 -4725.0 1.000 1.000 1.000
v -686.0 460.0 -4258.0 1.000 1.000 1.000
v 0.0 683.0 -4258.0 1.000 1.000 1.000
v -686.0 460.0 -4725.0 1.000 1.000 1.000
v -1110.0 -123.0 -4725.0 1.000 1.000 1.000
v -1110.0 -123.0 -4258.0 1.000 1.000 1.000
v -686.0 460.0 -4258.0 1.000 1.000 1.000
v -1110.0 -123.0 -4725.0 1.000 1.000 1.000
v -1110.0 -844.0 -4725.0 1.000 1.000 1.000
v -1110.0 -844.0 -4258.0 1.000 1.000 1.000
v -1110.0 -123.0 -4258.0 1.000 1.000 1.000
v -1110.0 -844.0 -4725.0 1.000 1.000 1.000
v -686.0 -1427.0 -4725.0 1.000 1.000 1.000
v -686.0 -1427.0 -4258.0 1.000 1.000 1.000
v -1110.0 -844.0 -4258.0 1.000 1.000 1.000
v -686.0 -1427.0 -4725.0 1.000 1.000 1.000
v 0.0 -1650.0 -4725.0 1.000 1.000 1.000
v 0.0 -1650.0 -4258.0 1.000 1.000 1.000
v -686.0 -1427.0 -4258.0 1.000 1.000 1.000
v 0.0 -1650.0 -4725.0 1.000 1.000 1.000
v 686.0 -1427.0 -4725.0 1.000 1.000 1.000
v 686.0 -1427.0 -4258.0 1.000 1.000 1.000
v 0.0 -1650.0 -4258.0 1.000 1.000 1.000
v 686.0 -1427.0 -4725.0 1.000 1.000 1.000
v 1110.0 -844.0 -4725.0 1.000 1.000 1.000
v 1110.0 -844.0 -4258.0 1.000 1.000 1.000
v 686.0 -1427.0 -4258.0 1.000 1.000 1.000
v 1110.0 -844.0 -4725.0 1.000 1.000 1.000
v 1110.0 -123.0 -4725.0 1.000 1.000 1.000
v 1110.0 -123.0 -4258.0 1.000 1.000 1.000
v 1110.0 -844.0 -4258.0 1.000 1.000 1.000
v 1110.0 -123.0 -4725.0 1.000 1.000 1.000
v 686.0 460.0 -4725.0 1.000 1.000 1.000
v 686.0 460.0 -4258.0 1.000 1.000 1.000
v 1110.0 -123.0 -4258.0 1.000 1.000 1.000
v 686.0 460.0 -4725.0 1.000 1.000 1.000
v 0.0 683.0 -4725.0 1.000 1.000 1.000
v 0.0 683.0 -4258.0 1.000 1.000 1.000
v 686.0 460.0 -4258.0 1.000 1.000 1.000
v 0.0 100.0 -5075.0 1.000 1.000 1.000
v -343.0 -12.0 -5075.0 1.000 1.000 1.000
v -343.0 -12.0 -4725.0 1.000 1.000 1.000
v 0.0 100.0 -4725.0 1.000 1.000 1.000
v -343.0 -12.0 -5075.0 1.000 1.000 1.000
v -555.0 -303.0 -5075.0 1.000 1.000 1.000
v -555.0 -303.0 -4725.0 1.000 1.000 1.000
v -343.0 -12.0 -4725.0 1.000 1.000 1.000
v -555.0 -303.0 -5075.0 1.000 1.000 1.000
v -555.0 -664.0 -5075.0 1.000 1.000 1.000
v -555.0 -664.0 -4725.0 1.000 1.000 1.000
v -555.0 -303.0 -4725.0 1.000 1.000 1.000
v -555.0 -664.0 -5075.0 1.000 1.000 1.000
v -343.0 -956.0 -5075.0 1.000 1.000 1.000
v -343.0 -956.0 -4725.0 1.000 1.000 1.000
v -555.0 -664.0 -4725.0 1.000 1.000 1.000
v -343.0 -956.0 -5075.0 1.000 1.000 1.000
v 0.0 -1067.0 -5075.0 1.000 1.000 1.000
v 0.0 -1067.0 -4725.0 1.000 1.000 1.000
v -343.0 -956.0 -4725.0 1.000 1.000 1.000
v 0.0 -1067.0 -5075.0 1.000 1.000 1.000
v 343.0 -956.0 -5075.0 1.000 1.000 1.000
v 343.0 -956.0 -4725.0 1.000 1.000 1.000
v 0.0 -1067.0 -4725.0 1.000 1.000 1.000
v 343.0 -956.0 -5075.0 1.000 1.000 1.000
v 555.0 -664.0 -5075.0 1.000 1.000 1.000
v 555.0 -664.0 -4725.0 1.000 1.000 1.000
v 343.0 -956.0 -4725.0 1.000 1.000 1.000
v 555.0 -664.0 -5075.0 1.000 1.000 1.000
v 555.0 -303.0 -5075.0 1.000 1.000 1.000
v 555.0 -303.0 -4725.0 1.000 1.000 1.000
v 555.0 -664.0 -4725.0 1.000 1.000 1.000
v 555.0 -303.0 -5075.0 1.000 1.000 1.000
v 343.0 -12.0 -5075.0 1.000 1.000 1.000
v 343.0 -12.0 -4725.0 1.000 1.000 1.000
v 555.0 -303.0 -4725.0 1.000 1.000 1.000
v 343.0 -12.0 -5075.0 1.000 1.000 1.000
v 0.0 100.0 -5075.0 1.000 1.000 1.000
v 0.0 100.0 -4725.0 1.000 1.000 1.000
v 343.0 -12.0 -4725.0 1.000 1.000 1.000
v 0.0 -484.0 -5075.0 1.000 1.000 1.000
v 0.0 -484.0 -5075.0 1.000 1.000 1.000
v -343.0 -12.0 -5075.0 1.000 1.000 1.000
v 0.0 100.0 -5075.0 1.000 1.000 1.000
v -555.0 -303.0 -5075.0 1.000 1.000 1.000
v -343.0 -12.0 -5075.0 1.000 1.000 1.000
v -555.0 -664.0 -5075.0 1.000 1.000 1.000
v -555.0 -303.0 -5075.0 1.000 1.000 1.000
v 0.0 -484.0 -5075.0 1.000 1.000 1.000
v 0.0 -484.0 -5075.0 1.000 1.000 1.000
v -343.0 -956.0 -5075.0 1.000 1.000 1.000
v -555.0 -664.0 -5075.0 1.000 1.000 1.000
v 0.0 -1067.0 -5075.0 1.000 1.000 1.000
v -343.0 -956.0 -5075.0 1.000 1.000 1.000
v 343.0 -956.0 -5075.0 1.000 1.000 1.000
v 0.0 -1067.0 -5075.0 1.000 1.000 1.000
v 555.0 -664.0 -5075.0 1.000 1.000 1.000
v 343.0 -956.0 -5075.0 1.000 1.000 1.000
v 555.0 -303.0 -5075.0 1.000 1.000 1.000
v 555.0 -664.0 -5075.0 1.000 1.000 1.000
v 343.0 -12.0 -5075.0 1.000 1.000 1.000
v 555.0 -303.0 -5075.0 1.000 1.000 1.000
v 0.0 100.0 -5075.0 1.000 1.000 1.000
v 343.0 -12.0 -5075.0 1.000 1.000 1.000
v 0.0 -1650.0 -4725.0 1.000 1.000 1.000
v 0.0 683.0 -4725.0 1.000 1.000 1.000
v 686.0 460.0 -4725.0 1.000 1.000 1.000
v 686.0 -1427.0 -4725.0 1.000 1.000 1.000
v -1110.0 -844.0 -4725.0 1.000 1.000 1.000
v -1110.0 -123.0 -4725.0 1.000 1.000 1.000
v -686.0 460.0 -4725.0 1.000 1.000 1.000
v -686.0 -1427.0 -4725.0 1.000 1.000 1.000
v 1110.0 -123.0 -4725.0 1.000 1.000 1.000
v 1110.0 -844.0 -4725.0 1.000 1.000 1.000
v 0.0 -134.0 4842.0 1.000 1.000 1.000
v -206.0 -200.0 4842.0 1.000 1.000 1.000
v 0.0 -484.0 5075.0 1.000 1.000 1.000
v -333.0 -375.0 4842.0 1.000 1.000 1.000
v -333.0 -592.0 4842.0 1.000 1.000 1.000
v -206.0 -767.0 4842.0 1.000 1.000 1.000
v -206.0 -767.0 4842.0 1.000 1.000 1.000
v 0.0 -834.0 4842.0 1.000 1.000 1.000
v 0.0 -484.0 5075.0 1.000 1.000 1.000
v 206.0 -767.0 4842.0 1.000 1.000 1.000
v 333.0 -592.0 4842.0 1.000 1.000 1.000
v 333.0 -375.0 4842.0 1.000 1.000 1.000
v 206.0 -200.0 4842.0 1.000 1.000 1.000
v 0.0 -134.0 4842.0 1.000 1.000 1.000
v -1174.0 3253.0 1342.0 1.000 1.000 1.000
v -1057.0 3019.0 1342.0 1.000 1.000 1.000
v -940.0 3253.0 1342.0 1.000 1.000 1.000
v 1167.0 3250.0 1342.0 1.000 1.000 1.000
v 933.0 3250.0 1342.0 1.000 1.000 1.000
v 1050.0 3016.0 1342.0 1.000 1.000 1.000
v 1050.0 3016.0 -1458.0 1.000 1.000 1.000
v 933.0 3250.0 -1458.0 1.000 1.000 1.000
v 1167.0 3250.0 -1458.0 1.000 1.000 1.000
v -1193.0 3267.0 -1458.0 1.000 1.000 1.000
v -960.0 3284.0 -1458.0 1.000 1.000 1.000
v -1060.0 3043.0 -1458.0 1.000 1.000 1.000
v -1057.0 3019.0 1225.0 1.000 1.000 1.000
v -1057.0 1269.0 1225.0 1.000 1.000 1.000
v -1057.0 1269.0 -1342.0 1.000 1.000 1.000
v -1057.0 3019.0 -1342.0 1.000 1.000 1.000
v -1057.0 -481.0 1225.0 1.000 1.000 1.000
v -1057.0 -481.0 -1342.0 1.000 1.000 1.000
v 1050.0 3016.0 1225.0 1.000 1.000 1.000
v 1050.0 3016.0 -1342.0 1.000 1.000 1.000
v 1050.0 1266.0 -1342.0 1.000 1.000 1.000
v 1050.0 1266.0 1225.0 1.000 1.000 1.000
v 1050.0 -484.0 1225.0 1.000 1.000 1.000
v 1050.0 -484.0 -1342.0 1.000 1.000 1.000
v 1050.0 -396.0 1143.0 1.000 1.000 1.000
v 1050.0 1179.0 1143.0 1.000 1.000 1.000
v 1050.0 1179.0 -1260.0 1.000 1.000 1.000
v 1050.0 -396.0 -1260.0 1.000 1.000 1.000
v 1050.0 2929.0 1143.0 1.000 1.000 1.000
v 1050.0 2929.0 -1260.0 1.000 1.000 1.000
v 1050.0 1354.0 -1260.0 1.000 1.000 1.000
v 1050.0 1354.0 1143.0 1.000 1.000 1.000
v -1057.0 2932.0 1143.0 1.000 1.000 1.000
v -1057.0 1357.0 1143.0 1.000 1.000 1.000
v -1057.0 1357.0 -1260.0 1.000 1.000 1.000
v -1057.0 2932.0 -1260.0 1.000 1.000 1.000
v -1057.0 -393.0 1143.0 1.000 1.000 1.000
v -1057.0 -393.0 -1260.0 1.000 1.000 1.000
v -1057.0 1182.0 -1260.0 1.000 1.000 1.000
v -1057.0 1182.0 1143.0 1.000 1.000 1.000
v -655.0 314.0 -149.0 1.000 1.000 1.000
v -961.0 -107.0 -149.0 1.000 1.000 1.000
v -961.0 -107.0 934.0 1.000 1.000 1.000
v -655.0 314.0 934.0 1.000 1.000 1.000
v 959.0 -104.0 -122.0 1.000 1.000 1.000
v 665.0 300.0 -122.0 1.000 1.000 1.000
v 665.0 300.0 920.0 1.000 1.000 1.000
v 959.0 -104.0 920.0 1.000 1.000 1.000
v -880.0 529.0 2156.0 1.000 1.000 1.000
v -1236.0 40.0 2155.0 1.000 1.000 1.000
v -1171.0 23.0 2745.0 1.000 1.000 1.000
v -844.0 473.0 2744.0 1.000 1.000 1.000
v 1265.0 6.0 2114.0 1.000 1.000 1.000
v 857.0 567.0 2114.0 1.000 1.000 1.000
v 817.0 502.0 2787.0 1.000 1.000 1.000
v 1190.0 -11.0 2787.0 1.000 1.000 1.000
v 1442.0 -759.0 -4110.0 1.000 1.000 1.000
v 1442.0 -197.0 -4110.0 1.000 1.000 1.000
v 1442.0 -197.0 -3550.0 1.000 1.000 1.000
v 1442.0 -759.0 -3550.0 1.000 1.000 1.000
v -467.0 -1417.0 -1342.0 1.000 1.000 1.000
v 467.0 -1417.0 -1342.0 1.000 1.000 1.000
v 467.0 -3284.0 -1342.0 1.000 1.000 1.000
v -467.0 -3284.0 -1342.0 1.000 1.000 1.000
v -467.0 -3284.0 1575.0 1.000 1.000 1.000
v 467.0 -3284.0 1575.0 1.000 1.000 1.000
v 467.0 -1417.0 1575.0 1.000 1.000 1.000
v -467.0 -1417.0 1575.0 1.000 1.000 1.000
v 467.0 -3284.0 1575.0 1.000 1.000 1.000
v 467.0 -3284.0 -1342.0 1.000 1.000 1.000
v 467.0 -1417.0 -1342.0 1.000 1.000 1.000
v 467.0 -1417.0 1575.0 1.000 1.000 1.000
v -467.0 -1417.0 1575.0 1.000 1.000 1.000
v -467.0 -1417.0 -1342.0 1.000 1.000 1.000
v -467.0 -3284.0 -1342.0 1.000 1.000 1.000
v -467.0 -3284.0 1575.0 1.000 1.000 1.000
vt 1.1113 0.0005
vt -0.1113 0.0005
vt 0.0000 1.0000
vt 1.0000 1.0000
vt 1.1113 0.0010
vt -0.1113 0.0010
vt 1.1113 -0.0010
vt -0.1113 -0.0010
vt 1.1113 0.0000
vt -0.1113 0.0000
vt 1.1113 0.0034
vt -0.1113 0.0034
vt 1.1113 0.0049
vt -0.1113 0.0049
vt 3.6934 -0.0015
vt -0.6714 -0.0015
vt 3.0220 1.0000
vt 3.5928 0.0005
vt -0.6533 0.0005
vt 2.9395 1.0000
vt 3.7012 0.0005
vt -0.6729 0.0005
vt 3.0283 1.0000
vt 3.6475 0.0024
vt -0.6631 0.0024
vt 2.9844 1.0000
vt 3.6870 0.0054
vt -0.6704 0.0054
vt 3.0166 1.0000
vt 3.6978 0.0039
vt -0.6724 0.0039
vt 3.0254 1.0000
vt 3.6426 0.0117
vt -0.6621 0.0117
vt 2.9805 1.0000
vt 3.6646 0.0083
vt -0.6665 0.0083
vt 2.9985 1.0000
vt 3.6445 0.0054
vt -0.6626 0.0054
vt 2.9819 1.0000
vt 3.6768 0.0049
vt -0.6685 0.0049
vt 3.0083 1.0000
vt 1.1499 -0.0010
vt -0.1499 -0.0010
vt 1.1499 0.0039
vt -0.1499 0.0039
vt 1.1499 0.0005
vt -0.1499 0.0005
vt 1.1499 0.0083
vt -0.1499 0.0083
vt 1.1499 0.0054
vt -0.1499 0.0054
vt 1.1499 -0.0015
vt -0.1499 -0.0015
vt 1.1499 -0.0142
vt -0.1499 -0.0142
vt 1.0005 0.8066
vt 1.0005 0.6729
vt 0.0000 0.6729
vt 0.0000 0.8066
vt 0.0000 0.6836
vt 0.0000 0.7939
vt 0.9995 0.7939
vt 0.9995 0.6836
vt 0.0000 0.6797
vt 0.0000 0.7881
vt 0.9995 0.7881
vt 0.9995 0.6797
vt 1.0020 0.6914
vt 1.0020 0.6113
vt 0.0000 0.6113
vt 0.0000 0.6914
vt 0.0000 0.6665
vt 0.0000 0.7778
vt 1.0000 0.7778
vt 1.0000 0.6665
vt 0.0000 0.7002
vt 0.0000 0.7744
vt 1.0000 0.7744
vt 1.0000 0.7002
vt 0.0000 1.5000
vt 0.9956 1.5000
vt 0.9956 1.0000
vt 0.0000 0.5000
vt 0.9956 0.5000
vt 0.0000 -0.0908
vt 1.0000 0.0000
vt 0.0000 -0.0332
vt 1.0000 0.0527
vt 0.0000 -0.0557
vt 1.0000 0.0327
vt 0.0000 -0.0444
vt 1.0000 0.0425
vt 0.0000 -0.0298
vt 1.0000 0.0557
vt 0.0000 -0.0449
vt 1.0000 0.0420
vt 0.0000 -0.0283
vt 1.0000 0.0571
vt 0.0000 0.3223
vt 1.0000 0.4727
vt 0.0000 0.0273
vt 1.0000 0.2432
vt 0.0000 -0.0737
vt 1.0000 0.1650
vt 0.0000 0.0474
vt 1.0000 0.2593
vt 0.0000 0.0957
vt 1.0000 0.2969
vt 0.0000 -0.1631
vt 0.0000 0.5146
vt 1.0000 0.6011
vt 1.0000 0.0737
vt 0.0000 0.3491
vt 1.0000 0.4937
vt 0.0000 0.0205
vt 1.0000 0.2383
vt 0.0000 -0.0586
vt 0.0000 0.8389
vt 1.0000 0.8701
vt 1.0000 0.1724
vt 0.0000 -0.3608
vt 0.0000 0.5586
vt 1.0000 0.4873
vt 1.0000 -0.2280
vt 0.0000 0.0728
vt 2.7617 0.0728
vt 2.7617 1.0000
vt 0.0000 1.5298
vt 2.7617 1.5298
vt 0.0000 0.4287
vt 0.0000 0.9585
vt 2.7617 0.9585
vt 2.7617 0.4287
vt 0.0000 0.1655
vt 0.0000 0.7944
vt 2.7651 0.8081
vt 2.7651 0.1792
vt 0.0000 1.6836
vt 2.7705 1.0000
vt 2.7705 1.6836
vt -0.0044 -0.0342
vt -0.0020 0.5142
vt 2.7578 0.4785
vt 2.7559 -0.0703
vt 0.0000 0.5278
vt 2.7573 1.0000
vt 2.7573 0.5278
vt 0.0000 0.6206
vt 2.7622 0.6206
vt 2.7622 1.0000
vt 0.0000 0.5889
vt 2.7578 1.0000
vt 2.7578 0.5889
vt 0.0000 1.2500
vt 0.0000 2.1772
vt 2.7617 2.1772
vt 2.7617 1.2500
vt 0.0000 0.3130
vt 1.0000 0.7056
vt 0.0000 0.2812
vt 1.0000 0.6919
vt 0.0000 0.3027
vt 1.0000 0.7012
vt 0.0000 0.3125
vt 1.0000 0.7051
vt 0.0000 0.2690
vt 1.0000 0.6870
vt 0.0000 0.3047
vt 1.0000 0.7021
vt 0.0000 0.3560
vt 1.0000 0.7241
vt 0.0000 0.3232
vt 1.0000 0.7100
vt 0.0000 0.3633
vt 1.0000 0.7271
vt 0.0000 0.3052
vt 0.0000 0.0288
vt -0.4980 -0.1328
vt -0.4980 1.1616
vt 0.0000 0.0332
vt -0.4956 -0.1279
vt -0.4956 1.1611
vt 0.0000 0.0342
vt -0.4951 -0.1265
vt -0.4951 1.1611
vt 0.0000 0.0415
vt -0.4917 -0.1182
vt -0.4917 1.1597
vt 0.0000 0.0518
vt -0.4863 -0.1060
vt -0.4863 1.1582
vt 0.0000 0.0234
vt -0.5010 -0.1396
vt -0.5010 1.1626
vt 0.0000 0.0308
vt -0.4971 -0.1304
vt -0.4971 1.1616
vt 0.0000 0.0229
vt 0.0000 0.0073
vt -0.5093 -0.1582
vt -0.5093 1.1655
vt 0.0000 0.0078
vt -0.5088 -0.1572
vt -0.5088 1.1655
vt 0.0000 0.0000
vt 1.0000 -0.0303
vt 0.0000 -0.0303
vt -0.0566 0.4849
vt 0.9194 0.8130
vt 0.9194 -1.1099
vt 0.3599 -0.9243
vt 0.3599 0.6313
vt 1.8257 0.1455
vt 1.8257 -0.4482
vt 1.4795 -0.9282
vt 1.4795 0.6274
vt 0.0137 -0.4424
vt 0.0137 0.1519
vt 0.5000 0.5000
vt 1.0000 -1.0000
vt 0.0000 -1.0000
vt 0.0146 0.4171
vt 0.0436 0.3135
vt 0.0894 0.2236
vt 0.0479 0.3017
vt 0.9106 0.2236
vt 0.9521 0.3017
vt 0.9854 0.4171
vt 0.9564 0.3135
vt 0.0000 -0.0361
vt 1.0000 0.0503
vt 1.0000 -0.0381
vt 0.0000 0.0483
vt 1.0000 -0.0044
vt 0.0000 -0.0044
vt 1.0000 -0.0010
vt 0.0000 -0.0010
vn -0.577 -0.577 -0.577
vn -0.577 -0.577 -0.577
vn -0.577 -0.577 -0.577
vn -0.577 -0.577 -0.577
vn -0.577 -0.577 -0.577
vn -0.577 -0.577 -0.577
vn -0.577 -0.577 -0.577
vn -0.577 -0.577 -0.577
vn -0.577 -0.577 -0.577
vn -0.577 -0.577 -0.577
vn -0.577 -0.577 -0.577
vn -0.577 -0.577 -0.577
vn -0.577 -0.577 -0.577
vn 0.577 0.577 0.577
vn 0.577 0.577 0.577
vn -0.577 -0.577 -0.577
vn 0.577 0.577 0.577
vn 0.577 0.577 0.577
vn 0.577 0.577 0.577
vn 0.577 0.577 0.577
vn 0.577 0.577 0.577
vn 0.577 0.577 0.577
vn 0.577 0.577 0.577
vn 0.577 0.577 0.577
vn 0.577 0.577 0.577
vn 0.577 0.577 0.577
vn 0.577 0.577 0.577
vn 0.577 0.577 0.577
vn 0.577 0.577 0.577
vn 0.577 0.577 0.577
vn 0.577 0.577 0.577
vn 0.577 0.577 0.577
vn 0.577 0.577 0.577
vn 0.577 0.577 0.577
vn 0.577 0.577 0.577
vn 0.577 0.577 0.577
vn 0.577 0.577 0.577
vn -0.577 -0.577 -0.577
vn -0.577 -0.577 -0.577
vn 0.577 0.577 0.577
vn -0.577 -0.577 -0.577
vn -0.577 -0.577 -0.577
vn 0.577 0.577 0.577
vn 0.577 0.577 0.577
vn -0.577 -0.577 -0.577
vn -0.577 -0.577 -0.577
vn 0.577 0.577 0.577
vn 0.577 0.577 0.577
vn -0.577 -0.577 -0.577
vn -0.577 -0.577 -0.577
vn 0.577 0.577 0.577
vn 0.577 0.577 0.577
vn -0.577 -0.577 -0.577
vn 0.577 0.577 0.577
vn 0.577 0.577 0.577
vn 0.577 0.577 0.577
vn 0.577 0.577 0.577
vn 0.577 0.577 0.577
vn 0.577 0.577 0.577
vn 0.577 0.577 0.577
vn 0.577 0.577 0.577
vn 0.577 0.577 0.577
vn 0.577 0.577 0.577
vn 0.577 0.577 0.577
vn 0.577 0.577 0.577
vn 0.577 0.577 0.577
vn 0.577 0.577 0.577
vn 0.577 0.577 0.577
vn 0.577 0.577 0.577
vn 0.577 0.577 0.577
vn 0.577 0.577 0.577
vn 0.577 0.577 0.577
vn 0.577 0.577 0.577
vn 0.577 0.577 0.577
vn 0.577 0.577 0.577
vn 0.577 0.577 0.577
vn 0.577 0.577 0.577
vn -0.577 -0.577 -0.577
vn 0.577 0.577 0.577
vn 0.577 0.577 0.577
vn 0.577 0.577 0.577
vn 0.577 0.577 0.577
vn 0.577 0.577 0.577
vn 0.577 0.577 0.577
vn 0.577 0.577 0.577
vn 0.577 0.577 0.577
vn 0.577 0.577 0.577
vn 0.577 0.577 0.577
vn 0.577 0.577 0.577
vn 0.577 0.577 0.577
vn 0.577 0.577 0.577
vn 0.577 0.577 0.577
vn 0.577 0.577 0.577
vn 0.577 0.577 0.577
vn 0.577 0.577 0.577
vn 0.577 0.577 0.577
vn 0.577 0.577 0.577
vn 0.577 0.577 0.577
vn 0.577 0.577 0.577
vn 0.577 0.577 0.577
vn 0.577 0.577 0.577
vn 0.577 0.577 0.577
vn 0.577 0.577 0.577
vn 0.577 0.577 0.577
vn 0.577 0.577 0.577
vn 0.577 0.577 0.577
vn 0.577 0.577 0.577
vn 0.577 0.577 0.577
vn 0.577 0.577 0.577
vn 0.577 0.577 0.577
vn 0.577 0.577 0.577
vn 0.577 0.577 0.577
vn 0.577 0.577 0.577
vn 0.577 0.577 0.577
vn 0.577 0.577 0.577
vn 0.577 0.577 0.577
vn 0.577 0.577 0.577
vn 0.577 0.577 0.577
vn 0.577 0.577 0.577
vn 0.577 0.577 0.577
vn -0.577 -0.577 -0.577
vn -0.577 -0.577 -0.577
vn -0.577 -0.577 -0.577
vn -0.577 -0.577 -0.577
vn 0.577 0.577 0.577
vn 0.577 0.577 0.577
vn 0.577 0.577 0.577
vn 0.577 0.577 0.577
vn 0.577 0.577 0.577
vn 0.577 0.577 0.577
vn 0.577 0.577 0.577
vn 0.577 0.577 0.577
vn 0.577 0.577 0.577
vn 0.577 0.577 0.577
vn 0.577 0.577 0.577
vn 0.577 0.577 0.577
vn 0.577 0.577 0.577
vn 0.577 0.577 0.577
vn 0.577 0.577 0.577
vn 0.577 0.577 0.577
vn -0.577 -0.577 -0.577
vn -0.577 -0.577 -0.577
vn -0.577 -0.577 -0.577
vn -0.577 -0.577 -0.577
vn -0.577 -0.577 -0.577
vn -0.577 -0.577 -0.577
vn -0.577 -0.577 -0.577
vn -0.577 -0.577 -0.577
vn -0.577 -0.577 -0.577
vn -0.577 -0.577 -0.577
vn -0.577 -0.577 -0.577
vn -0.577 -0.577 -0.577
vn 0.577 0.577 0.577
vn -0.577 -0.577 -0.577
vn 0.577 0.577 0.577
vn 0.577 0.577 0.577
vn 0.577 0.577 0.577
vn -0.577 -0.577 -0.577
vn 0.577 0.577 0.577
vn 0.577 0.577 0.577
vn 0.577 0.577 0.577
vn 0.577 0.577 0.577
vn 0.577 0.577 0.577
vn 0.577 0.577 0.577
vn 0.577 0.577 0.577
vn 0.577 0.577 0.577
vn 0.577 0.577 0.577
vn 0.577 0.577 0.577
vn 0.577 0.577 0.577
vn 0.577 0.577 0.577
vn 0.577 0.577 0.577
vn 0.577 0.577 0.577
vn 0.577 0.577 0.577
vn -0.577 -0.577 -0.577
vn -0.577 -0.577 -0.577
vn 0.577 0.577 0.577
vn -0.577 -0.577 -0.577
vn -0.577 -0.577 -0.577
vn -0.577 -0.577 -0.577
vn -0.577 -0.577 -0.577
vn -0.577 -0.577 -0.577
vn -0.577 -0.577 -0.577
vn -0.577 -0.577 -0.577
vn -0.577 -0.577 -0.577
vn -0.577 -0.577 -0.577
vn -0.577 -0.577 -0.577
vn -0.577 -0.577 -0.577
vn -0.577 -0.577 -0.577
vn -0.577 -0.577 -0.577
vn 0.577 0.577 0.577
vn 0.577 0.577 0.577
vn -0.577 -0.577 -0.577
vn 0.577 0.577 0.577
vn 0.577 0.577 0.577
vn 0.577 0.577 0.577
vn 0.577 0.577 0.577
vn 0.577 0.577 0.577
vn 0.577 0.577 0.577
vn 0.577 0.577 0.577
vn 0.577 0.577 0.577
vn 0.577 0.577 0.577
vn 0.577 0.577 0.577
vn 0.577 0.577 0.577
vn 0.577 0.577 0.577
vn 0.577 0.577 0.577
vn 0.577 0.577 0.577
vn 0.577 0.577 0.577
vn 0.577 0.577 0.577
vn 0.577 0.577 0.577
vn 0.577 0.577 0.577
vn 0.577 0.577 0.577
vn 0.577 0.577 0.577
vn 0.577 0.577 0.577
vn -0.577 -0.577 -0.577
vn -0.577 -0.577 -0.577
vn 0.577 0.577 0.577
vn -0.577 -0.577 -0.577
vn -0.577 -0.577 -0.577
vn -0.577 -0.577 -0.577
vn -0.577 -0.577 -0.577
vn -0.577 -0.577 -0.577
vn -0.577 -0.577 -0.577
vn -0.577 -0.577 -0.577
vn -0.577 -0.577 -0.577
vn -0.577 -0.577 -0.577
vn -0.577 -0.577 -0.577
vn -0.577 -0.577 -0.577
vn -0.577 -0.577 -0.577
vn -0.577 -0.577 -0.577
vn 0.577 0.577 0.577
vn 0.577 0.577 0.577
vn -0.577 -0.577 -0.577
vn 0.577 0.577 0.577
vn 0.577 0.577 0.577
vn 0.577 0.577 0.577
vn 0.577 0.577 0.577
vn 0.577 0.577 0.577
vn 0.577 0.577 0.577
vn 0.577 0.577 0.577
vn 0.577 0.577 0.577
vn 0.577 0.577 0.577
vn 0.577 0.577 0.577
vn 0.577 0.577 0.577
vn 0.577 0.577 0.577
vn 0.577 0.577 0.577
vn 0.577 0.577 0.577
vn 0.577 0.577 0.577
vn 0.577 0.577 0.577
vn 0.577 0.577 0.577
vn 0.577 0.577 0.577
vn 0.577 0.577 0.577
vn 0.577 0.577 0.577
vn 0.577 0.577 0.577
vn -0.577 -0.577 -0.577
vn -0.577 -0.577 -0.577
vn 0.577 0.577 0.577
vn 0.577 0.577 0.577
vn 0.577 0.577 0.577
vn -0.577 -0.577 -0.577
vn -0.577 -0.577 -0.577
vn 0.577 0.577 0.577
vn 0.577 0.577 0.577
vn -0.577 -0.577 -0.577
vn -0.577 -0.577 -0.577
vn 0.577 0.577 0.577
vn 0.577 0.577 0.577
vn -0.577 -0.577 -0.577
vn -0.577 -0.577 -0.577
vn 0.577 0.577 0.577
vn 0.577 0.577 0.577
vn 0.577 0.577 0.577
vn -0.577 -0.577 -0.577
vn 0.577 0.577 0.577
vn 0.577 0.577 0.577
vn 0.577 0.577 0.577
vn 0.577 0.577 0.577
vn 0.577 0.577 0.577
vn 0.577 0.577 0.577
vn 0.577 0.577 0.577
vn 0.577 0.577 0.577
vn 0.577 0.577 0.577
vn 0.577 0.577 0.577
vn 0.577 0.577 0.577
vn 0.577 0.577 0.577
vn 0.577 0.577 0.577
vn 0.577 0.577 0.577
vn 0.577 0.577 0.577
vn 0.577 0.577 0.577
vn 0.577 0.577 0.577
vn 0.577 0.577 0.577
vn 0.577 0.577 0.577
vn 0.577 0.577 0.577
vn 0.577 0.577 0.577
vn -0.577 -0.577 -0.577
vn 0.577 0.577 0.577
vn -0.577 -0.577 -0.577
vn -0.577 -0.577 -0.577
vn -0.577 -0.577 -0.577
vn -0.577 -0.577 -0.577
vn -0.577 -0.577 -0.577
vn -0.577 -0.577 -0.577
vn -0.577 -0.577 -0.577
vn -0.577 -0.577 -0.577
vn -0.577 -0.577 -0.577
vn -0.577 -0.577 -0.577
vn -0.577 -0.577 -0.577
vn -0.577 -0.577 -0.577
vn -0.577 -0.577 -0.577
vn 0.577 0.577 0.577
vn 0.577 0.577 0.577
vn -0.577 -0.577 -0.577
vn 0.577 0.577 0.577
vn 0.577 0.577 0.577
vn 0.577 0.577 0.577
vn 0.577 0.577 0.577
vn 0.577 0.577 0.577
vn 0.577 0.577 0.577
vn 0.577 0.577 0.577
vn 0.577 0.577 0.577
vn 0.577 0.577 0.577
vn 0.577 0.577 0.577
vn 0.577 0.577 0.577
vn 0.577 0.577 0.577
vn 0.577 0.577 0.577
vn 0.577 0.577 0.577
vn 0.577 0.577 0.577
vn 0.577 0.577 0.577
vn 0.577 0.577 0.577
vn 0.577 0.577 0.577
vn 0.577 0.577 0.577
vn 0.577 0.577 0.577
vn 0.577 0.577 0.577
vn -0.577 -0.577 -0.577
vn -0.577 -0.577 -0.577
vn 0.577 0.577 0.577
vn 0.577 0.577 0.577
vn 0.577 0.577 0.577
vn 0.577 0.577 0.577
vn 0.577 0.577 0.577
vn 0.577 0.577 0.577
vn 0.577 0.577 0.577
vn 0.577 0.577 0.577
vn 0.577 0.577 0.577
vn 0.577 0.577 0.577
vn 0.577 0.577 0.577
vn 0.577 0.577 0.577
vn 0.577 0.577 0.577
vn 0.577 0.577 0.577
vn 0.577 0.577 0.577
vn 0.577 0.577 0.577
vn 0.577 0.577 0.577
vn 0.577 0.577 0.577
vn 0.577 0.577 0.577
vn 0.577 0.577 0.577
vn 0.577 0.577 0.577
vn 0.577 0.577 0.577
vn 0.577 0.577 0.577
vn 0.577 0.577 0.577
vn 0.577 0.577 0.577
vn 0.577 0.577 0.577
vn 0.577 0.577 0.577
vn 0.577 0.577 0.577
vn 0.577 0.577 0.577
vn 0.577 0.577 0.577
vn 0.577 0.577 0.577
vn 0.577 0.577 0.577
vn 0.577 0.577 0.577
vn 0.577 0.577 0.577
vn 0.577 0.577 0.577
vn 0.577 0.577 0.577
vn 0.577 0.577 0.577
vn 0.577 0.577 0.577
vn 0.577 0.577 0.577
vn 0.577 0.577 0.577
vn 0.577 0.577 0.577
vn -0.577 -0.577 -0.577
vn -0.577 -0.577 -0.577
vn -0.577 -0.577 -0.577
vn -0.577 -0.577 -0.577
vn -0.577 -0.577 -0.577
vn -0.577 -0.577 -0.577
vn -0.577 -0.577 -0.577
vn -0.577 -0.577 -0.577
vn -0.577 -0.577 -0.577
vn 0.577 0.577 0.577
vn 0.577 0.577 0.577
vn -0.577 -0.577 -0.577
vn 0.577 0.577 0.577
vn 0.577 0.577 0.577
vn 0.577 0.577 0.577
vn 0.577 0.577 0.577
vn 0.577 0.577 0.577
vn 0.577 0.577 0.577
vn 0.577 0.577 0.577
vn 0.577 0.577 0.577
vn 0.577 0.577 0.577
vn 0.577 0.577 0.577
vn 0.577 0.577 0.577
vn 0.577 0.577 0.577
vn 0.577 0.577 0.577
vn 0.577 0.577 0.577
vn 0.577 0.577 0.577
vn 0.577 0.577 0.577
vn 0.577 0.577 0.577
vn 0.577 0.577 0.577
vn 0.577 0.577 0.577
vn 0.577 0.577 0.577
vn 0.577 0.577 0.577
vn 0.577 0.577 0.577
vn 0.577 0.577 0.577
vn 0.577 0.577 0.577
vn 0.577 0.577 0.577
vn -0.577 -0.577 -0.577
vn -0.577 -0.577 -0.577
vn 0.577 0.577 0.577
vn -0.577 -0.577 -0.577
vn -0.577 -0.577 -0.577
vn -0.577 -0.577 -0.577
vn -0.577 -0.577 -0.577
vn -0.577 -0.577 -0.577
vn -0.577 -0.577 -0.577
vn -0.577 -0.577 -0.577
vn -0.577 -0.577 -0.577
vn -0.577 -0.577 -0.577
vn -0.577 -0.577 -0.577
vn -0.577 -0.577 -0.577
vn -0.577 -0.577 -0.577
vn -0.577 -0.577 -0.577
vn 0.577 0.577 0.577
vn 0.577 0.577 0.577
vn -0.577 -0.577 -0.577
vn 0.577 0.577 0.577
vn 0.577 0.577 0.577
vn 0.577 0.577 0.577
vn 0.577 0.577 0.577
vn 0.577 0.577 0.577
vn 0.577 0.577 0.577
vn 0.577 0.577 0.577
vn 0.577 0.577 0.577
vn 0.577 0.577 0.577
vn 0.577 0.577 0.577
vn 0.577 0.577 0.577
vn 0.577 0.577 0.577
vn 0.577 0.577 0.577
vn 0.577 0.577 0.577
vn 0.577 0.577 0.577
vn 0.577 0.577 0.577
vn 0.577 0.577 0.577
vn 0.577 0.577 0.577
vn 0.577 0.577 0.577
vn 0.577 0.577 0.577
vn 0.577 0.577 0.577
vn -0.577 -0.577 -0.577
vn -0.577 -0.577 -0.577
vn 0.577 0.577 0.577
vn 0.577 0.577 0.577
vn 0.577 0.577 0.577
vn 0.577 0.577 0.577
vn 0.577 0.577 0.577
vn 0.577 0.577 0.577
vn 0.577 0.577 0.577
vn 0.577 0.577 0.577
vn 0.577 0.577 0.577
vn 0.577 0.577 0.577
vn 0.577 0.577 0.577
vn 0.577 0.577 0.577
vn 0.577 0.577 0.577
vn 0.577 0.577 0.577
vn 0.577 0.577 0.577
vn 0.577 0.577 0.577
vn 0.577 0.577 0.577
vn 0.577 0.577 0.577
vn 0.577 0.577 0.577
vn 0.577 0.577 0.577
vn 0.577 0.577 0.577
vn 0.577 0.577 0.577
vn 0.577 0.577 0.577
vn 0.577 0.577 0.577
vn 0.577 0.577 0.577
vn 0.577 0.577 0.577
vn 0.577 0.577 0.577
vn 0.577 0.577 0.577
vn 0.577 0.577 0.577
vn 0.577 0.577 0.577
vn 0.577 0.577 0.577
vn 0.577 0.577 0.577
vn 0.577 0.577 0.577
vn 0.577 0.577 0.577
vn 0.577 0.577 0.577
vn 0.577 0.577 0.577
vn 0.577 0.577 0.577
vn 0.577 0.577 0.577
vn 0.577 0.577 0.577
vn 0.577 0.577 0.577
vn 0.577 0.577 0.577
vn 0.577 0.577 0.577
vn 0.577 0.577 0.577
vn 0.577 0.577 0.577
vn 0.577 0.577 0.577
vn 0.577 0.577 0.577
vn 0.577 0.577 0.577
vn 0.577 0.577 0.577
vn 0.577 0.577 0.577
vn 0.000 0.000 1.000
vn 0.000 0.000 1.000
vn 0.000 0.000 1.000
vn 0.000 0.000 1.000
vn 0.000 0.000 1.000
vn 0.000 0.000 1.000
vn 0.000 0.000 -1.000
vn 0.000 0.000 -1.000
vn 0.000 0.000 -1.000
vn 0.000 0.000 -1.000
vn 0.000 0.000 -1.000
vn 0.000 0.000 -1.000
vn -0.577 -0.577 -0.577
vn -0.577 -0.577 -0.577
vn -0.577 -0.577 -0.577
vn -0.577 -0.577 -0.577
vn -0.577 -0.577 -0.577
vn -0.577 -0.577 -0.577
vn -0.577 -0.577 -0.577
vn -0.577 -0.577 -0.577
vn -0.577 -0.577 -0.577
vn -0.577 -0.577 -0.577
vn -0.577 -0.577 -0.577
vn -0.577 -0.577 -0.577
vn -0.971 0.166 0.174
vn -0.913 0.373 0.167
vn -0.913 0.373 -0.167
vn -0.971 0.166 -0.174
vn -0.821 0.553 0.142
vn -0.821 0.553 -0.142
vn -0.904 0.397 -0.159
vn -0.904 0.397 0.159
vn 0.821 0.553 0.142
vn 0.904 0.397 0.159
vn 0.904 0.397 -0.159
vn 0.821 0.553 -0.142
vn 0.971 0.166 0.174
vn 0.971 0.166 -0.174
vn 0.913 0.373 -0.167
vn 0.913 0.373 0.167
vn -1.000 0.000 0.000
vn -1.000 0.000 0.000
vn -1.000 0.000 0.000
vn -1.000 0.000 0.000
vn 1.000 0.000 0.000
vn 1.000 0.000 0.000
vn 1.000 0.000 0.000
vn 1.000 0.000 0.000
vn -1.000 0.000 0.000
vn -1.000 0.000 0.000
vn -1.000 0.000 0.000
vn -1.000 0.000 0.000
vn 1.000 0.000 0.000
vn 1.000 0.000 0.000
vn 1.000 0.000 0.000
vn 1.000 0.000 0.000
vn 1.000 0.000 0.000
vn 1.000 0.000 0.000
vn 1.000 0.000 0.000
vn 1.000 0.000 0.000
vn -0.577 -0.577 -0.577
vn -0.577 -0.577 -0.577
vn -0.577 -0.577 -0.577
vn -0.577 -0.577 -0.577
vn -0.577 -0.577 -0.577
vn -0.577 -0.577 -0.577
vn -0.577 -0.577 -0.577
vn -0.577 -0.577 -0.577
vn -0.577 -0.577 -0.577
vn -0.577 -0.577 -0.577
vn -0.577 -0.577 -0.577
vn -0.577 -0.577 -0.577
vn -0.577 -0.577 -0.577
vn -0.577 -0.577 -0.577
vn -0.577 -0.577 -0.577
vn -0.577 -0.577 -0.577
usemtl tex_1176_lit_ds
f 1/1/1 2/2/2 3/3/3
f 1/1/1 3/3/3 4/4/4
f 5/5/5 6/6/6 7/3/7
f 5/5/5 7/3/7 8/4/8
f 9/7/9 10/8/10 11/3/11
f 9/7/9 11/3/11 12/4/12
f 13/9/13 14/10/14 15/3/15
f 13/9/13 15/3/15 16/4/16
f 17/1/17 18/2/18 19/3/19
f 17/1/17 19/3/19 20/4/20
f 21/1/21 22/2/22 23/3/23
f 21/1/21 23/3/23 24/4/24
f 25/1/25 26/2/26 27/3/27
f 25/1/25 27/3/27 28/4/28
f 29/9/29 30/10/30 31/3/31
f 29/9/29 31/3/31 32/4/32
f 33/11/33 34/12/34 35/3/35
f 33/11/33 35/3/35 36/4/36
f 37/13/37 38/14/38 39/3/39
f 37/13/37 39/3/39 40/4/40
f 41/15/41 42/16/42 43/3/43
f 41/15/41 43/3/43 44/17/44
f 45/18/45 46/19/46 47/3/47
f 45/18/45 47/3/47 48/20/48
f 49/21/49 50/22/50 51/3/51
f 49/21/49 51/3/51 52/23/52
f 53/24/53 54/25/54 55/3/55
f 53/24/53 55/3/55 56/26/56
f 57/27/57 58/28/58 59/3/59
f 57/27/57 59/3/59 60/29/60
f 61/30/61 62/31/62 63/3/63
f 61/30/61 63/3/63 64/32/64
f 65/33/65 66/34/66 67/3/67
f 65/33/65 67/3/67 68/35/68
f 69/36/69 70/37/70 71/3/71
f 69/36/69 71/3/71 72/38/72
f 73/39/73 74/40/74 75/3/75
f 73/39/73 75/3/75 76/41/76
f 77/42/77 78/43/78 79/3/79
f 77/42/77 79/3/79 80/44/80
f 81/3/81 82/4/82 83/45/83
f 81/3/81 83/45/83 84/46/84
f 85/3/85 86/4/86 87/47/87
f 85/3/85 87/47/87 88/48/88
f 89/3/89 90/4/90 91/49/91
f 89/3/89 91/49/91 92/50/92
f 93/3/93 94/4/94 95/51/95
f 93/3/93 95/51/95 96/52/96
f 97/3/97 98/4/98 99/49/99
f 97/3/97 99/49/99 100/50/100
f 101/3/101 102/4/102 103/53/103
f 101/3/101 103/53/103 104/54/104
f 105/3/105 106/4/106 107/55/107
f 105/3/105 107/55/107 108/56/108
f 109/3/109 110/4/110 111/45/111
f 109/3/109 111/45/111 112/46/112
f 113/3/113 114/4/114 115/57/115
f 113/3/113 115/57/115 116/58/116
f 117/3/117 118/4/118 119/47/119
f 117/3/117 119/47/119 120/48/120
usemtl tex_1181_lit_ds
f 121/59/121 122/60/122 123/61/123
f 121/59/121 123/61/123 124/62/124
f 125/63/125 126/64/126 127/65/127
f 125/63/125 127/65/127 128/66/128
f 129/67/129 130/68/130 131/69/131
f 129/67/129 131/69/131 132/70/132
f 133/71/133 134/72/134 135/73/135
f 133/71/133 135/73/135 136/74/136
f 137/75/137 138/76/138 139/77/139
f 137/75/137 139/77/139 140/78/140
f 141/79/141 142/80/142 143/81/143
f 141/79/141 143/81/143 144/82/144
f 145/3/145 146/83/146 147/84/147
f 145/3/145 147/84/147 148/85/148
f 149/86/149 150/3/150 151/85/151
f 149/86/149 151/85/151 152/87/152
f 150/3/150 153/83/153 154/84/154
f 150/3/150 154/84/154 151/85/151
f 155/86/155 156/3/156 157/85/157
f 155/86/155 157/85/157 158/87/158
f 156/3/156 159/83/159 160/84/160
f 156/3/156 160/84/160 157/85/157
f 161/86/161 162/3/162 163/85/163
f 161/86/161 163/85/163 164/87/164
f 162/3/162 165/83/165 166/84/166
f 162/3/162 166/84/166 163/85/163
f 167/86/167 168/3/168 169/85/169
f 167/86/167 169/85/169 170/87/170
f 168/3/168 171/83/171 172/84/172
f 168/3/168 172/84/172 169/85/169
f 173/86/173 174/3/174 175/85/175
f 173/86/173 175/85/175 176/87/176
usemtl tex_1179_lit_ds
f 177/88/177 178/3/178 179/4/179
f 177/88/177 179/4/179 180/89/180
f 181/88/181 182/3/182 183/4/183
f 181/88/181 183/4/183 184/89/184
f 185/88/185 186/3/186 187/4/187
f 185/88/185 187/4/187 188/89/188
f 189/90/189 190/3/190 191/4/191
f 189/90/189 191/4/191 192/91/192
f 193/92/193 194/3/194 195/4/195
f 193/92/193 195/4/195 196/93/196
f 197/94/197 198/3/198 199/4/199
f 197/94/197 199/4/199 200/95/200
f 201/96/201 202/3/202 203/4/203
f 201/96/201 203/4/203 204/97/204
f 205/98/205 206/3/206 207/4/207
f 205/98/205 207/4/207 208/99/208
f 209/100/209 210/3/210 211/4/211
f 209/100/209 211/4/211 212/101/212
f 213/88/213 214/3/214 215/4/215
f 213/88/213 215/4/215 216/89/216
usemtl tex_1180_lit_ds
f 217/102/217 218/3/218 219/4/219
f 217/102/217 219/4/219 220/103/220
f 221/104/221 222/3/222 223/4/223
f 221/104/221 223/4/223 224/105/224
f 225/106/225 226/3/226 227/4/227
f 225/106/225 227/4/227 228/107/228
f 229/108/229 230/3/230 231/4/231
f 229/108/229 231/4/231 232/109/232
f 233/110/233 234/3/234 235/4/235
f 233/110/233 235/4/235 236/111/236
f 237/112/237 238/113/238 239/114/239
f 237/112/237 239/114/239 240/115/240
f 241/116/241 242/3/242 243/4/243
f 241/116/241 243/4/243 244/117/244
f 245/118/245 246/3/246 247/4/247
f 245/118/245 247/4/247 248/119/248
f 249/120/249 250/121/250 251/122/251
f 249/120/249 251/122/251 252/123/252
f 253/124/253 254/125/254 255/126/255
f 253/124/253 255/126/255 256/127/256
usemtl tex_1177_lit_ds
f 257/3/257 258/128/258 259/129/259
f 257/3/257 259/129/259 260/130/260
f 261/3/261 262/131/262 263/132/263
f 261/3/261 263/132/263 264/130/264
f 265/133/265 266/134/266 267/135/267
f 265/133/265 267/135/267 268/136/268
f 269/137/269 270/138/270 271/139/271
f 269/137/269 271/139/271 272/140/272
f 273/141/273 274/3/274 275/142/275
f 273/141/273 275/142/275 276/143/276
f 277/144/277 278/145/278 279/146/279
f 277/144/277 279/146/279 280/147/280
f 281/148/281 282/3/282 283/149/283
f 281/148/281 283/149/283 284/150/284
f 282/3/282 285/151/285 286/152/286
f 282/3/282 286/152/286 287/153/287
f 288/154/288 289/3/289 290/155/290
f 288/154/288 290/155/290 291/156/291
f 292/157/292 293/158/293 294/159/294
f 292/157/292 294/159/294 295/160/295
usemtl tex_1182_lit_ds
f 296/161/296 297/3/297 298/4/298
f 296/161/296 298/4/298 299/162/299
f 300/163/300 301/3/301 302/4/302
f 300/163/300 302/4/302 303/164/303
f 304/165/304 305/3/305 306/4/306
f 304/165/304 306/4/306 307/166/307
f 308/167/308 309/3/309 310/4/310
f 308/167/308 310/4/310 311/168/311
f 312/169/312 313/3/313 314/4/314
f 312/169/312 314/4/314 315/170/315
f 316/171/316 317/3/317 318/4/318
f 316/171/316 318/4/318 319/172/319
f 320/173/320 321/3/321 322/4/322
f 320/173/320 322/4/322 323/174/323
f 324/175/324 325/3/325 326/4/326
f 324/175/324 326/4/326 327/176/327
f 328/177/328 329/3/329 330/4/330
f 328/177/328 330/4/330 331/178/331
f 332/179/332 333/3/333 334/4/334
f 332/179/332 334/4/334 335/172/335
f 336/3/336 337/180/337 338/181/338
f 336/3/336 338/181/338 339/182/339
f 340/3/340 341/183/341 342/184/342
f 340/3/340 342/184/342 343/185/343
f 344/3/344 345/186/345 346/187/346
f 344/3/344 346/187/346 347/188/347
f 348/3/348 349/189/349 350/190/350
f 348/3/348 350/190/350 351/191/351
f 352/3/352 353/192/353 354/193/354
f 352/3/352 354/193/354 355/194/355
f 356/3/356 357/195/357 358/196/358
f 356/3/356 358/196/358 359/197/359
f 360/3/360 361/198/361 362/199/362
f 360/3/360 362/199/362 363/200/363
f 364/3/364 365/201/365 366/196/366
f 364/3/364 366/196/366 367/197/367
f 368/3/368 369/202/369 370/203/370
f 368/3/368 370/203/370 371/204/371
f 372/3/372 373/205/373 374/206/374
f 372/3/372 374/206/374 375/207/375
f 376/4/376 377/89/377 378/208/378
f 376/4/376 378/208/378 379/3/379
f 380/4/380 381/89/381 382/208/382
f 380/4/380 382/208/382 383/3/383
f 384/4/384 385/89/385 386/208/386
f 384/4/384 386/208/386 387/3/387
f 388/4/388 389/89/389 390/208/390
f 388/4/388 390/208/390 391/3/391
f 392/4/392 393/89/393 394/208/394
f 392/4/392 394/208/394 395/3/395
f 396/4/396 397/89/397 398/208/398
f 396/4/396 398/208/398 399/3/399
f 400/4/400 401/89/401 402/208/402
f 400/4/400 402/208/402 403/3/403
f 404/4/404 405/89/405 406/208/406
f 404/4/404 406/208/406 407/3/407
f 408/4/408 409/89/409 410/208/410
f 408/4/408 410/208/410 411/3/411
f 412/4/412 413/89/413 414/208/414
f 412/4/412 414/208/414 415/3/415
f 416/4/416 417/89/417 418/208/418
f 416/4/416 418/208/418 419/3/419
f 420/4/420 421/89/421 422/208/422
f 420/4/420 422/208/422 423/3/423
f 424/4/424 425/89/425 426/208/426
f 424/4/424 426/208/426 427/3/427
f 428/4/428 429/89/429 430/208/430
f 428/4/428 430/208/430 431/3/431
f 432/4/432 433/89/433 434/208/434
f 432/4/432 434/208/434 435/3/435
f 436/4/436 437/89/437 438/208/438
f 436/4/436 438/208/438 439/3/439
f 440/4/440 441/89/441 442/208/442
f 440/4/440 442/208/442 443/3/443
f 444/4/444 445/209/445 446/210/446
f 444/4/444 446/210/446 447/3/447
f 448/4/448 449/89/449 450/208/450
f 448/4/448 450/208/450 451/3/451
f 452/4/452 453/89/453 454/208/454
f 452/4/452 454/208/454 455/3/455
f 456/211/456 458/4/458 459/209/459
f 456/211/456 460/4/460 461/209/461
f 456/211/456 462/4/462 463/209/463
f 464/211/464 466/4/466 467/209/467
f 464/211/464 468/4/468 469/209/469
f 464/211/464 470/4/470 471/209/471
f 464/211/464 472/4/472 473/209/473
f 464/211/464 474/4/474 475/209/475
f 464/211/464 476/4/476 477/209/477
f 464/211/464 478/4/478 479/209/479
usemtl tex_1178_lit_ds
f 480/212/480 481/213/481 482/214/482
f 480/212/480 482/214/482 483/215/483
f 484/216/484 485/217/485 486/218/486
f 484/216/484 486/218/486 487/219/487
f 487/219/487 486/218/486 481/213/481
f 487/219/487 481/213/481 480/212/480
f 483/215/483 482/214/482 488/220/488
f 483/215/483 488/220/488 489/221/489
usemtl tex_1514_lit_ds
f 490/3/490 491/3/491 492/3/492
f 491/3/491 493/3/493 492/3/492
f 493/3/493 494/3/494 492/3/492
f 494/3/494 495/3/495 492/3/492
f 496/3/496 497/3/497 498/3/498
f 497/3/497 499/3/499 498/3/498
f 499/3/499 500/3/500 498/3/498
f 500/3/500 501/3/501 498/3/498
f 501/3/501 502/3/502 498/3/498
f 502/3/502 503/3/503 498/3/498
usemtl tex_1514_lit_env_ds
f 504/222/504 505/222/505 506/222/506
f 507/222/507 508/222/508 509/222/509
f 510/222/510 511/222/511 512/222/512
f 513/222/513 514/222/514 515/222/515
usemtl tex_1183_lit_ds
f 516/223/516 517/89/517 518/208/518
f 516/223/516 518/208/518 519/224/519
f 520/4/520 521/3/521 518/208/518
f 520/4/520 518/208/518 517/89/517
f 522/224/522 523/223/523 524/89/524
f 522/224/522 524/89/524 525/208/525
f 526/3/526 525/208/525 524/89/524
f 526/3/526 524/89/524 527/4/527
usemtl tex_1184_lit_env_ds_w11_ovl
f 528/225/528 529/226/529 530/226/530
f 528/225/528 530/226/530 531/225/531
f 532/227/532 533/227/533 534/228/534
f 532/227/532 534/228/534 535/228/535
f 536/229/536 537/230/537 538/230/538
f 536/229/536 538/230/538 539/229/539
f 540/231/540 541/231/541 542/232/542
f 540/231/540 542/232/542 543/232/543
usemtl tex_246_lit_ds_w11_ovl
f 544/208/544 545/3/545 546/4/546
f 544/208/544 546/4/546 547/89/547
f 548/4/548 549/89/549 550/208/550
f 548/4/548 550/208/550 551/3/551
usemtl tex_1284_lit_ds_w11_ovl
f 552/233/552 553/3/553 554/4/554
usemtl tex_1284_lit_ds_w11
f 552/233/552 554/4/554 555/234/555
usemtl tex_1284_lit_ds_w11_ovl
f 556/4/556 557/235/557 558/236/558
usemtl tex_1284_lit_ds_w11
f 556/4/556 558/236/558 559/3/559
usemtl tex_1284_lit_ds_w11_ovl
f 560/4/560 561/237/561 562/238/562
f 560/4/560 562/238/562 563/3/563
usemtl tex_919_lit_sec_ds_w11
f 564/89/564 565/208/565 566/3/566
f 564/89/564 566/3/566 567/4/567
f 568/3/568 569/4/569 570/239/570
f 568/3/568 570/239/570 571/240/571
f 572/3/572 573/4/573 574/89/574
f 572/3/572 574/89/574 575/208/575
f 576/89/576 577/208/577 578/3/578
f 576/89/576 578/3/578 579/4/579
