mtllib PtankZ.mtl
v 1525.0 -1450.0 3507.0 1.000 1.000 1.000
v 1525.0 -2313.0 3507.0 1.000 1.000 1.000
v 1525.0 -2313.0 -1159.0 1.000 1.000 1.000
v 1525.0 -1450.0 -1159.0 1.000 1.000 1.000
v 915.0 -1450.0 -1159.0 1.000 1.000 1.000
v 915.0 -2313.0 -1159.0 1.000 1.000 1.000
v 915.0 -2313.0 3507.0 1.000 1.000 1.000
v 915.0 -1450.0 3507.0 1.000 1.000 1.000
v 915.0 -1450.0 -1159.0 1.000 1.000 1.000
v 915.0 -2313.0 -1159.0 1.000 1.000 1.000
v 915.0 -2313.0 3507.0 1.000 1.000 1.000
v 915.0 -1450.0 3507.0 1.000 1.000 1.000
v -915.0 -1450.0 3507.0 1.000 1.000 1.000
v -915.0 -2313.0 3507.0 1.000 1.000 1.000
v -915.0 -2313.0 -1159.0 1.000 1.000 1.000
v -915.0 -1450.0 -1159.0 1.000 1.000 1.000
v -1525.0 -1450.0 -1159.0 1.000 1.000 1.000
v -1525.0 -2313.0 -1159.0 1.000 1.000 1.000
v -1525.0 -2313.0 3507.0 1.000 1.000 1.000
v -1525.0 -1450.0 3507.0 1.000 1.000 1.000
v 1525.0 -1779.0 4413.0 1.000 1.000 1.000
v 915.0 -1779.0 4413.0 1.000 1.000 1.000
v 915.0 -1946.0 4262.0 1.000 1.000 1.000
v 1525.0 -1946.0 4262.0 1.000 1.000 1.000
v 1525.0 -1550.0 4468.0 1.000 1.000 1.000
v 915.0 -1550.0 4468.0 1.000 1.000 1.000
v 915.0 -1779.0 4413.0 1.000 1.000 1.000
v 1525.0 -1779.0 4413.0 1.000 1.000 1.000
v 1525.0 -1279.0 4388.0 1.000 1.000 1.000
v 915.0 -1279.0 4388.0 1.000 1.000 1.000
v 915.0 -1550.0 4468.0 1.000 1.000 1.000
v 1525.0 -1550.0 4468.0 1.000 1.000 1.000
v 915.0 -2313.0 3507.0 1.000 1.000 1.000
v 1525.0 -2313.0 3507.0 1.000 1.000 1.000
v 1525.0 -1946.0 4262.0 1.000 1.000 1.000
v 915.0 -1946.0 4262.0 1.000 1.000 1.000
v 915.0 -1669.0 -2106.0 1.000 1.000 1.000
v 1525.0 -1874.0 -1999.0 1.000 1.000 1.000
v 915.0 -1874.0 -1999.0 1.000 1.000 1.000
v 1525.0 -1669.0 -2106.0 1.000 1.000 1.000
v 1525.0 -1874.0 -1999.0 1.000 1.000 1.000
v 915.0 -1432.0 -2106.0 1.000 1.000 1.000
v 1525.0 -1669.0 -2106.0 1.000 1.000 1.000
v 915.0 -1669.0 -2106.0 1.000 1.000 1.000
v 1525.0 -1432.0 -2106.0 1.000 1.000 1.000
v 1525.0 -1669.0 -2106.0 1.000 1.000 1.000
v 915.0 -1245.0 -1983.0 1.000 1.000 1.000
v 1525.0 -1432.0 -2106.0 1.000 1.000 1.000
v 915.0 -1432.0 -2106.0 1.000 1.000 1.000
v 1525.0 -1245.0 -1983.0 1.000 1.000 1.000
v 1525.0 -1432.0 -2106.0 1.000 1.000 1.000
v 915.0 -1245.0 -1983.0 1.000 1.000 1.000
v 1525.0 -2313.0 -1159.0 1.000 1.000 1.000
v 915.0 -2313.0 -1159.0 1.000 1.000 1.000
v 915.0 -1874.0 -1999.0 1.000 1.000 1.000
v 1525.0 -1874.0 -1999.0 1.000 1.000 1.000
v -915.0 -1293.0 4360.0 1.000 1.000 1.000
v -1525.0 -1293.0 4360.0 1.000 1.000 1.000
v -1525.0 -1550.0 4468.0 1.000 1.000 1.000
v -915.0 -1550.0 4468.0 1.000 1.000 1.000
v -915.0 -1550.0 4468.0 1.000 1.000 1.000
v -1525.0 -1550.0 4468.0 1.000 1.000 1.000
v -1525.0 -1779.0 4413.0 1.000 1.000 1.000
v -915.0 -1779.0 4413.0 1.000 1.000 1.000
v -915.0 -1779.0 4413.0 1.000 1.000 1.000
v -1525.0 -1779.0 4413.0 1.000 1.000 1.000
v -1525.0 -1946.0 4262.0 1.000 1.000 1.000
v -915.0 -1946.0 4262.0 1.000 1.000 1.000
v -1525.0 -2313.0 3507.0 1.000 1.000 1.000
v -915.0 -2313.0 3507.0 1.000 1.000 1.000
v -1525.0 -1669.0 -2106.0 1.000 1.000 1.000
v -915.0 -1874.0 -1999.0 1.000 1.000 1.000
v -1525.0 -1874.0 -1999.0 1.000 1.000 1.000
v -915.0 -1669.0 -2106.0 1.000 1.000 1.000
v -1525.0 -1432.0 -2106.0 1.000 1.000 1.000
v -915.0 -1669.0 -2106.0 1.000 1.000 1.000
v -1525.0 -1669.0 -2106.0 1.000 1.000 1.000
v -915.0 -1432.0 -2106.0 1.000 1.000 1.000
v -915.0 -1669.0 -2106.0 1.000 1.000 1.000
v -1525.0 -1245.0 -1983.0 1.000 1.000 1.000
v -915.0 -1432.0 -2106.0 1.000 1.000 1.000
v -1525.0 -1432.0 -2106.0 1.000 1.000 1.000
v -915.0 -1245.0 -1983.0 1.000 1.000 1.000
v -915.0 -1432.0 -2106.0 1.000 1.000 1.000
v -1525.0 -1245.0 -1983.0 1.000 1.000 1.000
v -915.0 -2313.0 -1159.0 1.000 1.000 1.000
v -1525.0 -2313.0 -1159.0 1.000 1.000 1.000
v -1525.0 -1874.0 -1999.0 1.000 1.000 1.000
v -915.0 -1874.0 -1999.0 1.000 1.000 1.000
v 915.0 -2008.0 -1159.0 1.000 1.000 1.000
v -915.0 -2008.0 -1159.0 1.000 1.000 1.000
v -915.0 -1550.0 -1983.0 1.000 1.000 1.000
v 915.0 -1550.0 -1983.0 1.000 1.000 1.000
v 915.0 -1245.0 -1983.0 1.000 1.000 1.000
v 915.0 -1450.0 -473.0 1.000 1.000 1.000
v 915.0 -940.0 -473.0 1.000 1.000 1.000
v 915.0 -940.0 -1983.0 1.000 1.000 1.000
v 1525.0 -940.0 4056.0 1.000 1.000 1.000
v 1525.0 -1184.0 4572.0 1.000 1.000 1.000
v 1525.0 -1450.0 4056.0 1.000 1.000 1.000
v -915.0 -940.0 -1983.0 1.000 1.000 1.000
v -915.0 -940.0 -473.0 1.000 1.000 1.000
v -915.0 -1450.0 -473.0 1.000 1.000 1.000
v -915.0 -1245.0 -1983.0 1.000 1.000 1.000
v -1525.0 -1293.0 4360.0 1.000 1.000 1.000
v -915.0 -1293.0 4360.0 1.000 1.000 1.000
v -915.0 -1184.0 4572.0 1.000 1.000 1.000
v -1525.0 -1184.0 4572.0 1.000 1.000 1.000
v 915.0 -1550.0 -1983.0 1.000 1.000 1.000
v -915.0 -1550.0 -1983.0 1.000 1.000 1.000
v -915.0 -1093.0 -1983.0 1.000 1.000 1.000
v 915.0 -1093.0 -1983.0 1.000 1.000 1.000
v 1525.0 -1450.0 -473.0 1.000 1.000 1.000
v 1525.0 -1450.0 -1708.0 1.000 1.000 1.000
v 1525.0 -1245.0 -1983.0 1.000 1.000 1.000
v 915.0 -1416.0 4391.0 1.000 1.000 1.000
v 915.0 -2313.0 3507.0 1.000 1.000 1.000
v 915.0 -1946.0 4262.0 1.000 1.000 1.000
v 915.0 -1450.0 3507.0 1.000 1.000 1.000
v 1525.0 -1779.0 4413.0 1.000 1.000 1.000
v 1525.0 -1946.0 4262.0 1.000 1.000 1.000
v 1525.0 -1450.0 4056.0 1.000 1.000 1.000
v 1525.0 -1550.0 4468.0 1.000 1.000 1.000
v 1525.0 -1279.0 4388.0 1.000 1.000 1.000
v 915.0 -1779.0 4413.0 1.000 1.000 1.000
v 915.0 -1416.0 4391.0 1.000 1.000 1.000
v 915.0 -1946.0 4262.0 1.000 1.000 1.000
v 915.0 -1550.0 4468.0 1.000 1.000 1.000
v 915.0 -1279.0 4388.0 1.000 1.000 1.000
v 1525.0 -2313.0 3507.0 1.000 1.000 1.000
v 1525.0 -1450.0 3507.0 1.000 1.000 1.000
v 915.0 -1669.0 -2106.0 1.000 1.000 1.000
v 915.0 -1874.0 -1999.0 1.000 1.000 1.000
v 915.0 -1450.0 -1708.0 1.000 1.000 1.000
v 915.0 -1432.0 -2106.0 1.000 1.000 1.000
v 915.0 -1245.0 -1983.0 1.000 1.000 1.000
v 915.0 -1432.0 -2106.0 1.000 1.000 1.000
v 915.0 -1450.0 -1708.0 1.000 1.000 1.000
v 1525.0 -1669.0 -2106.0 1.000 1.000 1.000
v 1525.0 -1450.0 -1708.0 1.000 1.000 1.000
v 1525.0 -1874.0 -1999.0 1.000 1.000 1.000
v 1525.0 -1432.0 -2106.0 1.000 1.000 1.000
v 1525.0 -1245.0 -1983.0 1.000 1.000 1.000
v 1525.0 -2313.0 -1159.0 1.000 1.000 1.000
v 1525.0 -1450.0 -1159.0 1.000 1.000 1.000
v 915.0 -1874.0 -1999.0 1.000 1.000 1.000
v 915.0 -2313.0 -1159.0 1.000 1.000 1.000
v 915.0 -1450.0 -1159.0 1.000 1.000 1.000
v 915.0 -1245.0 -1983.0 1.000 1.000 1.000
v 915.0 -1450.0 -1708.0 1.000 1.000 1.000
v 915.0 -1450.0 -473.0 1.000 1.000 1.000
v -1525.0 -1245.0 -1983.0 1.000 1.000 1.000
v -1525.0 -1450.0 -1708.0 1.000 1.000 1.000
v -1525.0 -1450.0 -473.0 1.000 1.000 1.000
v -1525.0 -1450.0 4056.0 1.000 1.000 1.000
v -1525.0 -2313.0 3507.0 1.000 1.000 1.000
v -1525.0 -1946.0 4262.0 1.000 1.000 1.000
v -1525.0 -1450.0 3507.0 1.000 1.000 1.000
v -915.0 -1779.0 4413.0 1.000 1.000 1.000
v -915.0 -1946.0 4262.0 1.000 1.000 1.000
v -915.0 -1416.0 4391.0 1.000 1.000 1.000
v -915.0 -1550.0 4468.0 1.000 1.000 1.000
v -915.0 -1293.0 4360.0 1.000 1.000 1.000
v -1525.0 -1779.0 4413.0 1.000 1.000 1.000
v -1525.0 -1550.0 4468.0 1.000 1.000 1.000
v -1525.0 -1293.0 4360.0 1.000 1.000 1.000
v -915.0 -2313.0 3507.0 1.000 1.000 1.000
v -915.0 -2313.0 3507.0 1.000 1.000 1.000
v -915.0 -1450.0 3507.0 1.000 1.000 1.000
v -915.0 -1416.0 4391.0 1.000 1.000 1.000
v -1525.0 -1669.0 -2106.0 1.000 1.000 1.000
v -1525.0 -1874.0 -1999.0 1.000 1.000 1.000
v -1525.0 -1450.0 -1708.0 1.000 1.000 1.000
v -1525.0 -1432.0 -2106.0 1.000 1.000 1.000
v -1525.0 -1245.0 -1983.0 1.000 1.000 1.000
v -915.0 -1669.0 -2106.0 1.000 1.000 1.000
v -915.0 -1450.0 -1708.0 1.000 1.000 1.000
v -915.0 -1874.0 -1999.0 1.000 1.000 1.000
v -915.0 -1432.0 -2106.0 1.000 1.000 1.000
v -915.0 -1245.0 -1983.0 1.000 1.000 1.000
v -915.0 -2313.0 -1159.0 1.000 1.000 1.000
v -915.0 -1450.0 -1159.0 1.000 1.000 1.000
v -1525.0 -2313.0 -1159.0 1.000 1.000 1.000
v -1525.0 -2313.0 -1159.0 1.000 1.000 1.000
v -1525.0 -1450.0 -1159.0 1.000 1.000 1.000
v -1525.0 -1450.0 -1708.0 1.000 1.000 1.000
v 915.0 -1093.0 -1983.0 1.000 1.000 1.000
v -915.0 -1093.0 -1983.0 1.000 1.000 1.000
v -915.0 -788.0 -1708.0 1.000 1.000 1.000
v 915.0 -788.0 -1708.0 1.000 1.000 1.000
v -915.0 -788.0 -1708.0 1.000 1.000 1.000
v -915.0 -1093.0 -1983.0 1.000 1.000 1.000
v -915.0 -1093.0 2742.0 1.000 1.000 1.000
v -915.0 -788.0 2970.0 1.000 1.000 1.000
v -915.0 -1093.0 2742.0 1.000 1.000 1.000
v -915.0 -1416.0 4391.0 1.000 1.000 1.000
v 915.0 -1416.0 4391.0 1.000 1.000 1.000
v 915.0 -1004.0 3460.0 1.000 1.000 1.000
v 2.802596928649634e-45 -1004.0 3460.0 1.000 1.000 1.000
v 915.0 -1416.0 4391.0 1.000 1.000 1.000
v 2.802596928649634e-45 -1004.0 3460.0 1.000 1.000 1.000
v 2.802596928649634e-45 -1416.0 4391.0 1.000 1.000 1.000
v 2.802596928649634e-45 -1004.0 3460.0 1.000 1.000 1.000
v -915.0 -1004.0 3460.0 1.000 1.000 1.000
v -915.0 -1416.0 4391.0 1.000 1.000 1.000
v 2.802596928649634e-45 -1416.0 4391.0 1.000 1.000 1.000
v 915.0 -1416.0 4391.0 1.000 1.000 1.000
v -915.0 -1416.0 4391.0 1.000 1.000 1.000
v -915.0 -2008.0 3233.0 1.000 1.000 1.000
v 915.0 -2008.0 3233.0 1.000 1.000 1.000
v 915.0 -788.0 2970.0 1.000 1.000 1.000
v 915.0 -1093.0 2742.0 1.000 1.000 1.000
v 915.0 -1093.0 -1983.0 1.000 1.000 1.000
v 915.0 -788.0 -1708.0 1.000 1.000 1.000
v 915.0 -1416.0 4391.0 1.000 1.000 1.000
v 915.0 -1184.0 4572.0 1.000 1.000 1.000
v 1525.0 -1184.0 4572.0 1.000 1.000 1.000
v 1525.0 -940.0 4056.0 1.000 1.000 1.000
v 915.0 -940.0 4056.0 1.000 1.000 1.000
v 915.0 -2008.0 -1159.0 1.000 1.000 1.000
v 915.0 -2008.0 3233.0 1.000 1.000 1.000
v -915.0 -2008.0 3233.0 1.000 1.000 1.000
v -915.0 -2008.0 -1159.0 1.000 1.000 1.000
v -1525.0 -1184.0 4572.0 1.000 1.000 1.000
v -915.0 -1184.0 4572.0 1.000 1.000 1.000
v -915.0 -940.0 4056.0 1.000 1.000 1.000
v -1525.0 -940.0 4056.0 1.000 1.000 1.000
v 915.0 -788.0 -1708.0 1.000 1.000 1.000
v -915.0 -788.0 -1708.0 1.000 1.000 1.000
v -915.0 -788.0 -738.0 1.000 1.000 1.000
v 915.0 -788.0 -738.0 1.000 1.000 1.000
v -915.0 -788.0 -738.0 1.000 1.000 1.000
v -915.0 -788.0 2970.0 1.000 1.000 1.000
v 915.0 -788.0 2970.0 1.000 1.000 1.000
v 915.0 -788.0 -738.0 1.000 1.000 1.000
v 915.0 -1004.0 3460.0 1.000 1.000 1.000
v 915.0 -788.0 2970.0 1.000 1.000 1.000
v 2.802596928649634e-45 -788.0 2970.0 1.000 1.000 1.000
v 2.802596928649634e-45 -1004.0 3460.0 1.000 1.000 1.000
v 2.802596928649634e-45 -788.0 2970.0 1.000 1.000 1.000
v -915.0 -788.0 2970.0 1.000 1.000 1.000
v -915.0 -1004.0 3460.0 1.000 1.000 1.000
v 2.802596928649634e-45 -1004.0 3460.0 1.000 1.000 1.000
v 1525.0 -940.0 -1983.0 1.000 1.000 1.000
v 915.0 -940.0 -1983.0 1.000 1.000 1.000
v 915.0 -940.0 4056.0 1.000 1.000 1.000
v 1525.0 -940.0 4056.0 1.000 1.000 1.000
v 1525.0 -940.0 -1983.0 1.000 1.000 1.000
v 1525.0 -940.0 -473.0 1.000 1.000 1.000
v 1525.0 -1450.0 -473.0 1.000 1.000 1.000
v 1525.0 -1245.0 -1983.0 1.000 1.000 1.000
v 1525.0 -940.0 4056.0 1.000 1.000 1.000
v 1525.0 -1450.0 4056.0 1.000 1.000 1.000
v 915.0 -1450.0 -473.0 1.000 1.000 1.000
v 915.0 -1416.0 4391.0 1.000 1.000 1.000
v 915.0 -940.0 4056.0 1.000 1.000 1.000
v 915.0 -940.0 -473.0 1.000 1.000 1.000
v 915.0 -1184.0 4572.0 1.000 1.000 1.000
v 915.0 -940.0 -1983.0 1.000 1.000 1.000
v 1525.0 -940.0 -1983.0 1.000 1.000 1.000
v 1525.0 -959.0 -2077.0 1.000 1.000 1.000
v 915.0 -959.0 -2077.0 1.000 1.000 1.000
v 1525.0 -1012.0 -2159.0 1.000 1.000 1.000
v 915.0 -1012.0 -2159.0 1.000 1.000 1.000
v 915.0 -959.0 -2077.0 1.000 1.000 1.000
v 1525.0 -959.0 -2077.0 1.000 1.000 1.000
v 1525.0 -1093.0 -2220.0 1.000 1.000 1.000
v 915.0 -1093.0 -2220.0 1.000 1.000 1.000
v 1525.0 -959.0 -2077.0 1.000 1.000 1.000
v 1525.0 -940.0 -1983.0 1.000 1.000 1.000
v 1525.0 -1245.0 -1983.0 1.000 1.000 1.000
v 1525.0 -1012.0 -2159.0 1.000 1.000 1.000
v 1525.0 -1093.0 -2220.0 1.000 1.000 1.000
v 915.0 -959.0 -2077.0 1.000 1.000 1.000
v 915.0 -1245.0 -1983.0 1.000 1.000 1.000
v 915.0 -940.0 -1983.0 1.000 1.000 1.000
v 915.0 -1012.0 -2159.0 1.000 1.000 1.000
v 915.0 -1093.0 -2220.0 1.000 1.000 1.000
v -915.0 -940.0 -1983.0 1.000 1.000 1.000
v -1525.0 -940.0 -1983.0 1.000 1.000 1.000
v -1525.0 -940.0 4056.0 1.000 1.000 1.000
v -915.0 -940.0 4056.0 1.000 1.000 1.000
v -1525.0 -1245.0 -1983.0 1.000 1.000 1.000
v -1525.0 -1450.0 -473.0 1.000 1.000 1.000
v -1525.0 -940.0 -473.0 1.000 1.000 1.000
v -1525.0 -940.0 -1983.0 1.000 1.000 1.000
v -1525.0 -1450.0 4056.0 1.000 1.000 1.000
v -1525.0 -940.0 4056.0 1.000 1.000 1.000
v -915.0 -940.0 -473.0 1.000 1.000 1.000
v -915.0 -940.0 4056.0 1.000 1.000 1.000
v -915.0 -1416.0 4391.0 1.000 1.000 1.000
v -915.0 -1450.0 -473.0 1.000 1.000 1.000
v -915.0 -1184.0 4572.0 1.000 1.000 1.000
v -1525.0 -1184.0 4572.0 1.000 1.000 1.000
v -915.0 -1012.0 -2159.0 1.000 1.000 1.000
v -1525.0 -1012.0 -2159.0 1.000 1.000 1.000
v -1525.0 -959.0 -2077.0 1.000 1.000 1.000
v -915.0 -959.0 -2077.0 1.000 1.000 1.000
v -1525.0 -940.0 -1983.0 1.000 1.000 1.000
v -915.0 -940.0 -1983.0 1.000 1.000 1.000
v -915.0 -1093.0 -2220.0 1.000 1.000 1.000
v -1525.0 -1093.0 -2220.0 1.000 1.000 1.000
v -1525.0 -959.0 -2077.0 1.000 1.000 1.000
v -1525.0 -1245.0 -1983.0 1.000 1.000 1.000
v -1525.0 -940.0 -1983.0 1.000 1.000 1.000
v -1525.0 -1012.0 -2159.0 1.000 1.000 1.000
v -1525.0 -1093.0 -2220.0 1.000 1.000 1.000
v -915.0 -959.0 -2077.0 1.000 1.000 1.000
v -915.0 -940.0 -1983.0 1.000 1.000 1.000
v -915.0 -1245.0 -1983.0 1.000 1.000 1.000
v -915.0 -1012.0 -2159.0 1.000 1.000 1.000
v -915.0 -959.0 -2077.0 1.000 1.000 1.000
v -915.0 -1245.0 -1983.0 1.000 1.000 1.000
v -915.0 -1093.0 -2220.0 1.000 1.000 1.000
v 915.0 -1279.0 4388.0 1.000 1.000 1.000
v 1525.0 -1279.0 4388.0 1.000 1.000 1.000
v 1525.0 -1184.0 4572.0 1.000 1.000 1.000
v 915.0 -1184.0 4572.0 1.000 1.000 1.000
v 1525.0 -1245.0 -1983.0 1.000 1.000 1.000
v 915.0 -1245.0 -1983.0 1.000 1.000 1.000
v 915.0 -1093.0 -2220.0 1.000 1.000 1.000
v 1525.0 -1093.0 -2220.0 1.000 1.000 1.000
v -915.0 -1093.0 -2220.0 1.000 1.000 1.000
v -915.0 -1245.0 -1983.0 1.000 1.000 1.000
v -1525.0 -1245.0 -1983.0 1.000 1.000 1.000
v -1525.0 -1093.0 -2220.0 1.000 1.000 1.000
v -915.0 -1450.0 -473.0 1.000 1.000 1.000
v -915.0 -1450.0 -1708.0 1.000 1.000 1.000
v -915.0 -1245.0 -1983.0 1.000 1.000 1.000
v 380.787034034729 385.56903076171875 2291.81396484375 1.000 1.000 1.000
v 815.787034034729 385.56903076171875 1767.81396484375 1.000 1.000 1.000
v 1046.787034034729 543.5690307617188 1950.81396484375 1.000 1.000 1.000
v 611.787034034729 543.5690307617188 2474.81396484375 1.000 1.000 1.000
v -566.212965965271 543.5690307617188 2478.81396484375 1.000 1.000 1.000
v -1001.212965965271 543.5690307617188 1954.81396484375 1.000 1.000 1.000
v -777.212965965271 385.56903076171875 1767.81396484375 1.000 1.000 1.000
v -341.212965965271 385.56903076171875 2291.81396484375 1.000 1.000 1.000
v -646.212965965271 965.5690307617188 1638.81396484375 1.000 1.000 1.000
v -171.212965965271 965.5690307617188 2127.81396484375 1.000 1.000 1.000
v -197.212965965271 1000.5690307617188 1799.81396484375 1.000 1.000 1.000
v -533.212965965271 1000.5690307617188 1555.81396484375 1.000 1.000 1.000
v 200.787034034729 965.5690307617188 2127.81396484375 1.000 1.000 1.000
v 665.787034034729 965.5690307617188 1638.81396484375 1.000 1.000 1.000
v 552.787034034729 1000.5690307617188 1555.81396484375 1.000 1.000 1.000
v 216.787034034729 1000.5690307617188 1799.81396484375 1.000 1.000 1.000
v 260.787034034729 965.5690307617188 272.81396484375 1.000 1.000 1.000
v -241.212965965271 965.5690307617188 272.81396484375 1.000 1.000 1.000
v -197.212965965271 1000.5690307617188 404.81396484375 1.000 1.000 1.000
v 216.787034034729 1000.5690307617188 404.81396484375 1.000 1.000 1.000
v -850.212965965271 687.5690307617188 1785.81396484375 1.000 1.000 1.000
v -318.212965965271 687.5690307617188 2366.81396484375 1.000 1.000 1.000
v -171.212965965271 965.5690307617188 2127.81396484375 1.000 1.000 1.000
v -646.212965965271 965.5690307617188 1638.81396484375 1.000 1.000 1.000
v 337.787034034729 687.5690307617188 2366.81396484375 1.000 1.000 1.000
v 869.787034034729 687.5690307617188 1785.81396484375 1.000 1.000 1.000
v 665.787034034729 965.5690307617188 1638.81396484375 1.000 1.000 1.000
v 200.787034034729 965.5690307617188 2127.81396484375 1.000 1.000 1.000
v 337.787034034729 687.5690307617188 32.81396484375 1.000 1.000 1.000
v -318.212965965271 687.5690307617188 32.81396484375 1.000 1.000 1.000
v -940.212965965271 305.56903076171875 1851.81396484375 1.000 1.000 1.000
v -353.212965965271 305.56903076171875 2473.81396484375 1.000 1.000 1.000
v 372.787034034729 305.56903076171875 2473.81396484375 1.000 1.000 1.000
v 959.787034034729 305.56903076171875 1851.81396484375 1.000 1.000 1.000
v 869.787034034729 687.5690307617188 1785.81396484375 1.000 1.000 1.000
v 337.787034034729 687.5690307617188 2366.81396484375 1.000 1.000 1.000
v 372.787034034729 305.56903076171875 -73.18603515625 1.000 1.000 1.000
v -353.212965965271 305.56903076171875 -73.18603515625 1.000 1.000 1.000
v -318.212965965271 687.5690307617188 32.81396484375 1.000 1.000 1.000
v 337.787034034729 687.5690307617188 32.81396484375 1.000 1.000 1.000
v 611.787034034729 543.5690307617188 2474.81396484375 1.000 1.000 1.000
v 1046.787034034729 543.5690307617188 1950.81396484375 1.000 1.000 1.000
v 1046.787034034729 649.5690307617188 1950.81396484375 1.000 1.000 1.000
v 611.787034034729 649.5690307617188 2474.81396484375 1.000 1.000 1.000
v 1046.787034034729 543.5690307617188 1950.81396484375 1.000 1.000 1.000
v 815.787034034729 385.56903076171875 1767.81396484375 1.000 1.000 1.000
v 717.787034034729 861.5690307617188 1685.81396484375 1.000 1.000 1.000
v 1046.787034034729 649.5690307617188 1950.81396484375 1.000 1.000 1.000
v 380.787034034729 385.56903076171875 2291.81396484375 1.000 1.000 1.000
v 611.787034034729 543.5690307617188 2474.81396484375 1.000 1.000 1.000
v 611.787034034729 649.5690307617188 2474.81396484375 1.000 1.000 1.000
v 282.787034034729 861.5690307617188 2209.81396484375 1.000 1.000 1.000
v -566.212965965271 649.5690307617188 2478.81396484375 1.000 1.000 1.000
v -1001.212965965271 649.5690307617188 1954.81396484375 1.000 1.000 1.000
v -1001.212965965271 543.5690307617188 1954.81396484375 1.000 1.000 1.000
v -566.212965965271 543.5690307617188 2478.81396484375 1.000 1.000 1.000
v -1001.212965965271 649.5690307617188 1954.81396484375 1.000 1.000 1.000
v -678.212965965271 861.5690307617188 1685.81396484375 1.000 1.000 1.000
v -777.212965965271 385.56903076171875 1767.81396484375 1.000 1.000 1.000
v -1001.212965965271 543.5690307617188 1954.81396484375 1.000 1.000 1.000
v -243.212965965271 861.5690307617188 2209.81396484375 1.000 1.000 1.000
v -566.212965965271 649.5690307617188 2478.81396484375 1.000 1.000 1.000
v -566.212965965271 543.5690307617188 2478.81396484375 1.000 1.000 1.000
v -341.212965965271 385.56903076171875 2291.81396484375 1.000 1.000 1.000
v -318.212965965271 687.5690307617188 2366.81396484375 1.000 1.000 1.000
v 337.787034034729 687.5690307617188 2366.81396484375 1.000 1.000 1.000
v 200.787034034729 965.5690307617188 2127.81396484375 1.000 1.000 1.000
v -171.212965965271 965.5690307617188 2127.81396484375 1.000 1.000 1.000
v -353.212965965271 305.56903076171875 2473.81396484375 1.000 1.000 1.000
v 372.787034034729 305.56903076171875 2473.81396484375 1.000 1.000 1.000
v 611.787034034729 649.5690307617188 2474.81396484375 1.000 1.000 1.000
v 1046.787034034729 649.5690307617188 1950.81396484375 1.000 1.000 1.000
v 717.787034034729 861.5690307617188 1685.81396484375 1.000 1.000 1.000
v 282.787034034729 861.5690307617188 2209.81396484375 1.000 1.000 1.000
v -243.212965965271 861.5690307617188 2209.81396484375 1.000 1.000 1.000
v -678.212965965271 861.5690307617188 1685.81396484375 1.000 1.000 1.000
v -1001.212965965271 649.5690307617188 1954.81396484375 1.000 1.000 1.000
v -566.212965965271 649.5690307617188 2478.81396484375 1.000 1.000 1.000
v -171.212965965271 965.5690307617188 2127.81396484375 1.000 1.000 1.000
v 200.787034034729 965.5690307617188 2127.81396484375 1.000 1.000 1.000
v 216.787034034729 1000.5690307617188 1799.81396484375 1.000 1.000 1.000
v -197.212965965271 1000.5690307617188 1799.81396484375 1.000 1.000 1.000
v 820.787034034729 965.5690307617188 1161.81396484375 1.000 1.000 1.000
v 665.787034034729 965.5690307617188 427.81396484375 1.000 1.000 1.000
v 552.787034034729 1000.5690307617188 509.81396484375 1.000 1.000 1.000
v 680.787034034729 1000.5690307617188 1161.81396484375 1.000 1.000 1.000
v -646.212965965271 965.5690307617188 427.81396484375 1.000 1.000 1.000
v -801.212965965271 965.5690307617188 1161.81396484375 1.000 1.000 1.000
v -661.212965965271 1000.5690307617188 1161.81396484375 1.000 1.000 1.000
v -533.212965965271 1000.5690307617188 509.81396484375 1.000 1.000 1.000
v 1071.787034034729 687.5690307617188 1161.81396484375 1.000 1.000 1.000
v 869.787034034729 687.5690307617188 279.81396484375 1.000 1.000 1.000
v -850.212965965271 687.5690307617188 279.81396484375 1.000 1.000 1.000
v -1052.212965965271 687.5690307617188 1161.81396484375 1.000 1.000 1.000
v 1183.787034034729 305.56903076171875 1161.81396484375 1.000 1.000 1.000
v 959.787034034729 305.56903076171875 213.81396484375 1.000 1.000 1.000
v 869.787034034729 687.5690307617188 279.81396484375 1.000 1.000 1.000
v 1071.787034034729 687.5690307617188 1161.81396484375 1.000 1.000 1.000
v -940.212965965271 305.56903076171875 213.81396484375 1.000 1.000 1.000
v -1164.212965965271 305.56903076171875 1161.81396484375 1.000 1.000 1.000
v -1052.212965965271 687.5690307617188 1161.81396484375 1.000 1.000 1.000
v -850.212965965271 687.5690307617188 279.81396484375 1.000 1.000 1.000
v 216.787034034729 1000.5690307617188 1799.81396484375 1.000 1.000 1.000
v 552.787034034729 1000.5690307617188 1555.81396484375 1.000 1.000 1.000
v -533.212965965271 1000.5690307617188 1555.81396484375 1.000 1.000 1.000
v -197.212965965271 1000.5690307617188 1799.81396484375 1.000 1.000 1.000
v -533.212965965271 1000.5690307617188 509.81396484375 1.000 1.000 1.000
v 552.787034034729 1000.5690307617188 509.81396484375 1.000 1.000 1.000
v 216.787034034729 1000.5690307617188 404.81396484375 1.000 1.000 1.000
v -197.212965965271 1000.5690307617188 404.81396484375 1.000 1.000 1.000
v -533.212965965271 1000.5690307617188 1043.81396484375 1.000 1.000 1.000
v -533.212965965271 1000.5690307617188 1555.81396484375 1.000 1.000 1.000
v 552.787034034729 1000.5690307617188 1555.81396484375 1.000 1.000 1.000
v 0.7870340347290039 1000.5690307617188 1043.81396484375 1.000 1.000 1.000
v -661.212965965271 1000.5690307617188 1161.81396484375 1.000 1.000 1.000
v -533.212965965271 1000.5690307617188 509.81396484375 1.000 1.000 1.000
v 680.787034034729 1000.5690307617188 1161.81396484375 1.000 1.000 1.000
v 0.7870340347290039 1000.5690307617188 509.81396484375 1.000 1.000 1.000
v 552.787034034729 1000.5690307617188 509.81396484375 1.000 1.000 1.000
v -801.212965965271 965.5690307617188 1161.81396484375 1.000 1.000 1.000
v -646.212965965271 965.5690307617188 1638.81396484375 1.000 1.000 1.000
v -533.212965965271 1000.5690307617188 1555.81396484375 1.000 1.000 1.000
v -661.212965965271 1000.5690307617188 1161.81396484375 1.000 1.000 1.000
v 665.787034034729 965.5690307617188 1638.81396484375 1.000 1.000 1.000
v 820.787034034729 965.5690307617188 1161.81396484375 1.000 1.000 1.000
v 680.787034034729 1000.5690307617188 1161.81396484375 1.000 1.000 1.000
v 665.787034034729 965.5690307617188 1638.81396484375 1.000 1.000 1.000
v 680.787034034729 1000.5690307617188 1161.81396484375 1.000 1.000 1.000
v 552.787034034729 1000.5690307617188 1555.81396484375 1.000 1.000 1.000
v 665.787034034729 965.5690307617188 427.81396484375 1.000 1.000 1.000
v 260.787034034729 965.5690307617188 272.81396484375 1.000 1.000 1.000
v 216.787034034729 1000.5690307617188 404.81396484375 1.000 1.000 1.000
v 552.787034034729 1000.5690307617188 509.81396484375 1.000 1.000 1.000
v -241.212965965271 965.5690307617188 272.81396484375 1.000 1.000 1.000
v -646.212965965271 965.5690307617188 427.81396484375 1.000 1.000 1.000
v -533.212965965271 1000.5690307617188 509.81396484375 1.000 1.000 1.000
v -197.212965965271 1000.5690307617188 404.81396484375 1.000 1.000 1.000
v -1052.212965965271 687.5690307617188 1161.81396484375 1.000 1.000 1.000
v -850.212965965271 687.5690307617188 1785.81396484375 1.000 1.000 1.000
v -646.212965965271 965.5690307617188 1638.81396484375 1.000 1.000 1.000
v -801.212965965271 965.5690307617188 1161.81396484375 1.000 1.000 1.000
v 869.787034034729 687.5690307617188 1785.81396484375 1.000 1.000 1.000
v 1071.787034034729 687.5690307617188 1161.81396484375 1.000 1.000 1.000
v 820.787034034729 965.5690307617188 1161.81396484375 1.000 1.000 1.000
v 665.787034034729 965.5690307617188 1638.81396484375 1.000 1.000 1.000
v 869.787034034729 687.5690307617188 279.81396484375 1.000 1.000 1.000
v 337.787034034729 687.5690307617188 32.81396484375 1.000 1.000 1.000
v 260.787034034729 965.5690307617188 272.81396484375 1.000 1.000 1.000
v 665.787034034729 965.5690307617188 427.81396484375 1.000 1.000 1.000
v -318.212965965271 687.5690307617188 32.81396484375 1.000 1.000 1.000
v -850.212965965271 687.5690307617188 279.81396484375 1.000 1.000 1.000
v -646.212965965271 965.5690307617188 427.81396484375 1.000 1.000 1.000
v -241.212965965271 965.5690307617188 272.81396484375 1.000 1.000 1.000
v -1164.212965965271 305.56903076171875 1161.81396484375 1.000 1.000 1.000
v -940.212965965271 305.56903076171875 1851.81396484375 1.000 1.000 1.000
v -850.212965965271 687.5690307617188 1785.81396484375 1.000 1.000 1.000
v -1052.212965965271 687.5690307617188 1161.81396484375 1.000 1.000 1.000
v 959.787034034729 305.56903076171875 1851.81396484375 1.000 1.000 1.000
v 1183.787034034729 305.56903076171875 1161.81396484375 1.000 1.000 1.000
v 1071.787034034729 687.5690307617188 1161.81396484375 1.000 1.000 1.000
v 869.787034034729 687.5690307617188 1785.81396484375 1.000 1.000 1.000
v 959.787034034729 305.56903076171875 213.81396484375 1.000 1.000 1.000
v 372.787034034729 305.56903076171875 -73.18603515625 1.000 1.000 1.000
v 337.787034034729 687.5690307617188 32.81396484375 1.000 1.000 1.000
v 869.787034034729 687.5690307617188 279.81396484375 1.000 1.000 1.000
v -353.212965965271 305.56903076171875 -73.18603515625 1.000 1.000 1.000
v -940.212965965271 305.56903076171875 213.81396484375 1.000 1.000 1.000
v -850.212965965271 687.5690307617188 279.81396484375 1.000 1.000 1.000
v -318.212965965271 687.5690307617188 32.81396484375 1.000 1.000 1.000
v 372.787034034729 305.56903076171875 -73.18603515625 1.000 1.000 1.000
v 959.787034034729 305.56903076171875 213.81396484375 1.000 1.000 1.000
v 1183.787034034729 305.56903076171875 1161.81396484375 1.000 1.000 1.000
v 959.787034034729 305.56903076171875 1851.81396484375 1.000 1.000 1.000
v -940.212965965271 305.56903076171875 1851.81396484375 1.000 1.000 1.000
v -1164.212965965271 305.56903076171875 1161.81396484375 1.000 1.000 1.000
v -940.212965965271 305.56903076171875 213.81396484375 1.000 1.000 1.000
v -353.212965965271 305.56903076171875 -73.18603515625 1.000 1.000 1.000
v 0.7870340347290039 1000.5690307617188 509.81396484375 1.000 1.000 1.000
v -533.212965965271 1000.5690307617188 509.81396484375 1.000 1.000 1.000
v -533.212965965271 1000.5690307617188 1043.81396484375 1.000 1.000 1.000
v 0.7870340347290039 1000.5690307617188 1043.81396484375 1.000 1.000 1.000
v 0.7870340347290039 1534.5690307617188 509.81396484375 1.000 1.000 1.000
v -533.212965965271 1534.5690307617188 509.81396484375 1.000 1.000 1.000
v -533.212965965271 1000.5690307617188 509.81396484375 1.000 1.000 1.000
v 0.7870340347290039 1000.5690307617188 509.81396484375 1.000 1.000 1.000
v 378.787034034729 2960.5690307617188 549.81396484375 1.000 1.000 1.000
v 378.787034034729 2960.5690307617188 469.81396484375 1.000 1.000 1.000
v 378.787034034729 1000.5690307617188 469.81396484375 1.000 1.000 1.000
v 378.787034034729 1000.5690307617188 549.81396484375 1.000 1.000 1.000
v 418.787034034729 2960.5690307617188 509.81396484375 1.000 1.000 1.000
v 338.787034034729 2960.5690307617188 509.81396484375 1.000 1.000 1.000
v 338.787034034729 1000.5690307617188 509.81396484375 1.000 1.000 1.000
v 418.787034034729 1000.5690307617188 509.81396484375 1.000 1.000 1.000
v -9.999999974752427e-07 181.43098402023315 3479.631591796875 1.000 1.000 1.000
v -9.999999974752427e-07 -111.56901597976685 3329.631591796875 1.000 1.000 1.000
v -9.999999974752427e-07 468.43098402023315 2586.631591796875 1.000 1.000 1.000
v -9.999999974752427e-07 615.4309840202332 2661.631591796875 1.000 1.000 1.000
v -9.999999974752427e-07 -68.56901597976685 3303.631591796875 1.000 1.000 1.000
v -9.999999974752427e-07 -68.56901597976685 3603.631591796875 1.000 1.000 1.000
v -9.999999974752427e-07 -1082.5690159797668 3528.631591796875 1.000 1.000 1.000
v -9.999999974752427e-07 -1082.5690159797668 3378.631591796875 1.000 1.000 1.000
v -9.999999974752427e-07 -114.56901597976685 3583.631591796875 1.000 1.000 1.000
v -9.999999974752427e-07 177.43098402023315 3433.631591796875 1.000 1.000 1.000
v -9.999999974752427e-07 611.4309840202332 4251.631591796875 1.000 1.000 1.000
v -9.999999974752427e-07 465.43098402023315 4326.631591796875 1.000 1.000 1.000
v -54.0 358.56903076171875 4374.059875488281 1.000 1.000 1.000
v -54.0 358.56903076171875 1903.0598754882812 1.000 1.000 1.000
v -76.0 304.56903076171875 1903.0598754882812 1.000 1.000 1.000
v -76.0 304.56903076171875 4374.059875488281 1.000 1.000 1.000
v 0.0 381.56903076171875 4374.059875488281 1.000 1.000 1.000
v 0.0 381.56903076171875 1903.0598754882812 1.000 1.000 1.000
v 54.0 358.56903076171875 4374.059875488281 1.000 1.000 1.000
v 54.0 358.56903076171875 1903.0598754882812 1.000 1.000 1.000
v 76.0 304.56903076171875 4374.059875488281 1.000 1.000 1.000
v 76.0 304.56903076171875 1903.0598754882812 1.000 1.000 1.000
v 54.0 251.56903076171875 4374.059875488281 1.000 1.000 1.000
v 54.0 251.56903076171875 1903.0598754882812 1.000 1.000 1.000
v 0.0 228.56903076171875 4374.059875488281 1.000 1.000 1.000
v 0.0 228.56903076171875 1903.0598754882812 1.000 1.000 1.000
v -54.0 251.56903076171875 4374.059875488281 1.000 1.000 1.000
v -54.0 251.56903076171875 1903.0598754882812 1.000 1.000 1.000
v -76.0 304.56903076171875 4374.059875488281 1.000 1.000 1.000
v -76.0 304.56903076171875 1903.0598754882812 1.000 1.000 1.000
v -54.0 251.56903076171875 1903.0598754882812 1.000 1.000 1.000
v -54.0 251.56903076171875 4374.059875488281 1.000 1.000 1.000
v -122.0 304.56903076171875 4854.059875488281 1.000 1.000 1.000
v -86.0 218.56903076171875 4854.059875488281 1.000 1.000 1.000
v 122.0 304.56903076171875 4854.059875488281 1.000 1.000 1.000
v 86.0 391.56903076171875 4854.059875488281 1.000 1.000 1.000
v 86.0 218.56903076171875 4854.059875488281 1.000 1.000 1.000
v 0.0 182.56903076171875 4854.059875488281 1.000 1.000 1.000
v -86.0 391.56903076171875 4854.059875488281 1.000 1.000 1.000
v 0.0 426.56903076171875 4854.059875488281 1.000 1.000 1.000
v 86.0 391.56903076171875 4374.059875488281 1.000 1.000 1.000
v 122.0 304.56903076171875 4374.059875488281 1.000 1.000 1.000
v -86.0 218.56903076171875 4374.059875488281 1.000 1.000 1.000
v -122.0 304.56903076171875 4374.059875488281 1.000 1.000 1.000
v 122.0 304.56903076171875 4374.059875488281 1.000 1.000 1.000
v 86.0 218.56903076171875 4374.059875488281 1.000 1.000 1.000
v -86.0 218.56903076171875 4374.059875488281 1.000 1.000 1.000
v 0.0 182.56903076171875 4374.059875488281 1.000 1.000 1.000
v -122.0 304.56903076171875 4374.059875488281 1.000 1.000 1.000
v -86.0 391.56903076171875 4374.059875488281 1.000 1.000 1.000
v 86.0 391.56903076171875 4374.059875488281 1.000 1.000 1.000
v 0.0 426.56903076171875 4374.059875488281 1.000 1.000 1.000
v -86.0 391.56903076171875 4854.059875488281 1.000 1.000 1.000
v -86.0 391.56903076171875 4374.059875488281 1.000 1.000 1.000
v -122.0 304.56903076171875 4374.059875488281 1.000 1.000 1.000
v -122.0 304.56903076171875 4854.059875488281 1.000 1.000 1.000
v 0.0 426.56903076171875 4854.059875488281 1.000 1.000 1.000
v 0.0 426.56903076171875 4374.059875488281 1.000 1.000 1.000
v 86.0 391.56903076171875 4854.059875488281 1.000 1.000 1.000
v 86.0 391.56903076171875 4374.059875488281 1.000 1.000 1.000
v 0.0 426.56903076171875 4374.059875488281 1.000 1.000 1.000
v 0.0 426.56903076171875 4854.059875488281 1.000 1.000 1.000
v 122.0 304.56903076171875 4854.059875488281 1.000 1.000 1.000
v 122.0 304.56903076171875 4374.059875488281 1.000 1.000 1.000
v 86.0 218.56903076171875 4854.059875488281 1.000 1.000 1.000
v 86.0 218.56903076171875 4374.059875488281 1.000 1.000 1.000
v 0.0 182.56903076171875 4854.059875488281 1.000 1.000 1.000
v 0.0 182.56903076171875 4374.059875488281 1.000 1.000 1.000
v 86.0 218.56903076171875 4374.059875488281 1.000 1.000 1.000
v 86.0 218.56903076171875 4854.059875488281 1.000 1.000 1.000
v -86.0 218.56903076171875 4854.059875488281 1.000 1.000 1.000
v -86.0 218.56903076171875 4374.059875488281 1.000 1.000 1.000
v -122.0 304.56903076171875 4854.059875488281 1.000 1.000 1.000
v -122.0 304.56903076171875 4374.059875488281 1.000 1.000 1.000
v -86.0 218.56903076171875 4374.059875488281 1.000 1.000 1.000
v -86.0 218.56903076171875 4854.059875488281 1.000 1.000 1.000
v -54.0 358.56903076171875 1903.0598754882812 1.000 1.000 1.000
v -204.0 501.56903076171875 1100.0598754882812 1.000 1.000 1.000
v -289.0 303.56903076171875 1270.0598754882812 1.000 1.000 1.000
v -76.0 304.56903076171875 1903.0598754882812 1.000 1.000 1.000
v 0.0 381.56903076171875 1903.0598754882812 1.000 1.000 1.000
v 0.0 584.5690307617188 1030.0598754882812 1.000 1.000 1.000
v 54.0 358.56903076171875 1903.0598754882812 1.000 1.000 1.000
v 204.0 501.56903076171875 1100.0598754882812 1.000 1.000 1.000
v 76.0 304.56903076171875 1903.0598754882812 1.000 1.000 1.000
v 289.0 303.56903076171875 1270.0598754882812 1.000 1.000 1.000
v 54.0 251.56903076171875 1903.0598754882812 1.000 1.000 1.000
v 204.0 104.56903076171875 1439.0598754882812 1.000 1.000 1.000
v 0.0 228.56903076171875 1903.0598754882812 1.000 1.000 1.000
v 0.0 22.56903076171875 1509.0598754882812 1.000 1.000 1.000
v 204.0 104.56903076171875 1439.0598754882812 1.000 1.000 1.000
v 54.0 251.56903076171875 1903.0598754882812 1.000 1.000 1.000
v -54.0 251.56903076171875 1903.0598754882812 1.000 1.000 1.000
v -204.0 104.56903076171875 1439.0598754882812 1.000 1.000 1.000
v -76.0 304.56903076171875 1903.0598754882812 1.000 1.000 1.000
v -289.0 303.56903076171875 1270.0598754882812 1.000 1.000 1.000
vt 0.0000 -0.0039
vt 0.0000 1.0000
vt 2.9932 1.0000
vt 2.9932 -0.0039
vt 3.6387 1.0039
vt 3.6377 0.4678
vt -0.0078 0.4727
vt -0.0068 1.0088
vt -2.5010 0.7861
vt -2.4951 -0.0186
vt 1.0049 -0.0186
vt 0.9980 0.7861
vt -0.0068 0.1807
vt -0.0068 1.0000
vt 3.4922 0.9922
vt 3.4912 0.1738
vt 0.0000 0.0098
vt 3.0029 1.0000
vt 3.0029 0.0098
vt 0.0000 0.8887
vt 1.0000 0.8887
vt 1.0000 0.5000
vt 0.0000 0.5000
vt 0.9980 1.5752
vt 0.0000 1.5752
vt 0.9980 1.0000
vt 0.0000 0.3887
vt 1.0000 0.3887
vt 1.0000 0.0000
vt 0.0000 0.0000
vt 1.0000 1.0000
vt 0.0000 0.1113
vt -1.0000 0.5000
vt 1.0000 0.1113
vt 0.0000 0.6113
vt -1.0000 1.0000
vt 1.0000 0.6113
vt 0.0000 1.1201
vt -1.0000 1.5000
vt 0.0000 1.5000
vt 1.0000 1.1201
vt 0.0000 -1.1914
vt -1.0000 -1.1914
vt 1.0000 1.5303
vt 0.0000 1.5303
vt -1.0000 0.6113
vt 0.0000 -0.3887
vt -1.0000 0.0000
vt 1.0000 -0.3887
vt 0.0000 0.1201
vt 0.0000 -0.6914
vt -1.0000 -0.6914
vt 2.0000 1.0000
vt 2.0000 -0.0059
vt 0.0000 -0.0059
vt 1.8335 0.5000
vt 1.8335 0.0000
vt -0.8931 1.0000
vt -0.4077 1.8643
vt 0.6738 0.3721
vt 0.9258 0.3477
vt 0.9219 0.9219
vt 0.6699 0.9473
vt 0.9971 0.9854
vt -0.9873 1.0059
vt -0.9844 0.0205
vt -0.0830 1.4473
vt 0.7090 1.3359
vt 0.8711 1.0752
vt 0.7002 1.3066
vt 0.3643 1.9775
vt 0.8564 1.5967
vt 0.3301 1.3721
vt 0.9385 0.5361
vt 0.8369 0.6729
vt 0.7354 0.2822
vt 0.9844 0.3525
vt 0.9482 0.1377
vt 0.9502 1.4453
vt 0.9775 1.2578
vt 0.9297 1.0820
vt 0.3525 0.9834
vt 0.3955 0.2959
vt 0.9697 1.3916
vt 0.9102 1.5605
vt 0.9580 1.2080
vt 0.3916 1.9756
vt 0.3564 1.3857
vt 2.0000 2.0088
vt 0.0000 2.0088
vt 5.0000 1.0000
vt 5.3330 0.6670
vt 0.0000 0.6670
vt 0.0830 1.4170
vt 1.2080 1.0420
vt 0.4072 1.0020
vt 0.4072 0.0054
vt -0.5981 0.0054
vt -0.5981 1.0020
vt 1.4487 0.0015
vt 0.0000 0.0015
vt 1.4487 1.0000
vt -2.2275 1.0000
vt -2.0273 1.1543
vt 2.1016 1.1543
vt 1.8613 1.0000
vt -3.4688 1.3174
vt 2.4805 3.9761
vt 2.4805 1.0000
vt 0.0000 3.9761
vt 2.0103 1.0000
vt 2.0103 -0.9873
vt 0.0000 -0.9873
vt 1.3423 1.0000
vt 1.3423 -1.9951
vt 0.0000 -1.9951
vt 1.0000 0.4038
vt 1.9995 0.4038
vt 1.9995 1.0000
vt 1.0000 0.4155
vt 0.0000 0.4155
vt 5.8271 1.0000
vt 5.8271 0.0073
vt 0.0000 0.0073
vt 5.8291 1.0000
vt 4.3716 1.0000
vt 4.3716 1.4922
vt 5.8291 1.2944
vt 0.0000 1.4922
vt 4.2915 0.5171
vt -0.3174 0.5488
vt 4.2915 1.0000
vt -0.4888 0.7695
vt 0.0000 1.8340
vt 0.1309 1.8340
vt 0.1309 1.0000
vt 0.2554 1.8340
vt 0.2554 1.0000
vt 0.3594 1.8340
vt 0.3594 1.0000
vt 1.0000 1.2271
vt 0.4214 1.0000
vt 0.9302 1.4268
vt 0.7988 1.5752
vt 0.0215 1.1094
vt 0.3545 1.0000
vt 0.0830 1.2051
vt 0.1772 1.2764
vt -5.9897 0.4951
vt -5.9897 1.0000
vt 0.0000 0.4951
vt -6.0112 1.3037
vt -4.5088 1.5073
vt -4.5088 1.0000
vt -6.0112 1.0000
vt 0.0000 1.5073
vt 4.5977 1.0000
vt -0.3403 1.4834
vt 4.5977 1.5176
vt -0.5234 1.2471
vt 0.5132 1.2422
vt -6.1650 0.4951
vt -6.1650 1.0000
vt -6.0830 1.0000
vt -6.0830 0.4951
vt -6.2256 0.4951
vt -6.2256 1.0000
vt -6.1050 1.0181
vt -6.1870 1.0708
vt -6.2480 1.1519
vt 0.2310 1.0000
vt 0.1416 1.7231
vt 0.4517 1.0874
vt 0.6348 1.2510
vt 0.0000 2.5415
vt 3.9546 2.5415
vt 3.9546 1.0000
vt 0.2544 0.1108
vt 0.9937 0.1235
vt 0.7759 0.0054
vt 0.2939 0.0283
vt 0.2036 0.0928
vt 0.9453 0.0781
vt 0.9243 -0.0122
vt 0.4478 -0.0386
vt 0.2168 0.1392
vt 1.1846 0.1392
vt 1.1011 0.0571
vt 0.3003 0.0571
vt 0.1260 0.5146
vt 1.0454 0.5186
vt 0.0625 0.5049
vt 0.9834 0.5005
vt 0.0669 0.5312
vt 1.3345 0.5312
vt 1.4014 1.0000
vt 0.3696 0.7031
vt 4.3706 0.7266
vt 4.3706 0.3589
vt 0.3696 0.3354
vt 0.2505 0.6558
vt 0.6255 0.9863
vt 0.9990 -0.0244
vt 0.2783 0.4321
vt 0.6274 1.1455
vt -0.2046 0.7314
vt -0.2705 0.3496
vt 0.7725 -0.6665
vt 0.0820 0.5195
vt 0.9404 0.5195
vt 0.8730 0.0732
vt 0.2178 0.0732
vt 0.9482 1.0000
vt -0.2612 1.4590
vt 1.0049 1.4590
vt -0.2661 1.0000
vt -0.1230 1.0000
vt 0.4897 1.0000
vt 0.5156 0.4570
vt -0.1670 0.4570
vt 0.0332 0.0723
vt 0.8037 0.0781
vt 0.7432 -0.0073
vt 0.0610 -0.0156
vt 0.0923 0.1733
vt 0.8618 0.1680
vt 0.8242 0.0894
vt 0.1426 0.0967
vt -0.0024 0.4946
vt 0.9272 0.4966
vt 0.0161 0.5483
vt 0.9453 0.5469
vt 0.4253 1.2119
vt 1.3765 1.0000
vt 0.9512 1.2119
vt 1.3765 0.0894
vt 0.0000 0.0894
vt 0.4253 -0.0015
vt 0.9512 -0.0015
vt 1.3765 0.5537
vt 0.6997 0.5537
vt 1.5391 0.6567
vt -0.1626 0.6567
vt 0.6997 0.0894
vt 0.1548 0.1528
vt 0.8452 0.1528
vt 0.7856 0.0728
vt 0.2144 0.0728
vt 0.1548 0.1274
vt 0.8452 0.1274
vt 0.7856 0.0449
vt 0.2144 0.0449
vt 0.2603 0.1216
vt 0.9219 0.1099
vt 0.8921 0.0264
vt 0.3604 0.0430
vt 0.0781 0.1040
vt 0.7397 0.1172
vt 0.6396 0.0347
vt 0.1084 0.0166
vt 0.0479 0.5391
vt 0.9521 0.5391
vt 0.0479 0.5249
vt 0.9521 0.5249
vt 0.0801 0.5181
vt 0.9761 0.5146
vt 0.0244 0.5127
vt 0.9199 0.5166
vt 0.0000 0.9961
vt 1.0000 0.9961
vt 1.9009 1.6558
vt 1.4497 0.7461
vt -0.0244 0.4053
vt -1.0947 0.7593
vt -1.0796 3.7104
vt -0.0054 4.0532
vt 1.4653 3.6973
vt 1.9067 2.7832
vt 0.1416 1.0000
vt 0.1416 2.0000
vt 0.1655 2.0000
vt 0.1655 1.0000
vt 0.1182 1.0000
vt 0.1182 2.0000
vt 0.0947 1.0000
vt 0.0947 2.0000
vt 0.0708 1.0000
vt 0.0708 2.0000
vt 0.0474 1.0000
vt 0.0474 2.0000
vt 0.0234 1.0000
vt 0.0234 2.0000
vt 0.0000 2.0000
vt -0.0234 1.0000
vt -0.0234 2.0000
vt -0.0332 1.3984
vt 0.0322 1.7920
vt 1.0107 1.6104
vt 0.9453 1.2168
vt 0.7705 1.9424
vt 0.3652 2.0176
vt 0.2070 1.0664
vt 0.6133 0.9912
vt 0.9609 1.2197
vt 1.0264 1.6143
vt 0.0479 1.7959
vt -0.0176 1.4014
vt 0.7861 1.9453
vt 0.3809 2.0215
vt 0.2227 1.0693
vt 0.6289 0.9941
vt 1.0000 0.2930
vt -0.0088 0.2930
vt -0.0088 0.7070
vt 1.0000 0.7070
vt -0.0088 0.0000
vt 0.0000 0.2930
vt 0.0000 0.7070
vt -0.0088 1.0000
vt 0.3125 0.5854
vt 0.0137 -0.0410
vt -0.1357 0.3921
vt 0.2734 0.6812
vt 0.4141 0.5430
vt 0.3945 -0.2324
vt 0.5166 0.5781
vt 0.7852 -0.0693
vt 0.5605 0.6704
vt 0.9551 0.3521
vt 0.5215 0.7656
vt 0.8057 0.7856
vt 0.4199 0.8081
vt 0.4238 0.9766
vt 0.3174 0.7729
vt 0.0342 0.8140
vn 0.577 0.577 0.577
vn -0.577 -0.577 -0.577
vn -0.577 -0.577 -0.577
vn 0.577 0.577 0.577
vn 0.577 0.577 0.577
vn -0.577 -0.577 -0.577
vn -0.577 -0.577 -0.577
vn 0.577 0.577 0.577
vn 0.577 0.577 0.577
vn 0.577 0.577 0.577
vn 0.577 0.577 0.577
vn 0.577 0.577 0.577
vn 0.577 0.577 0.577
vn 0.577 0.577 0.577
vn 0.577 0.577 0.577
vn 0.577 0.577 0.577
vn 0.577 0.577 0.577
vn -0.577 -0.577 -0.577
vn -0.577 -0.577 -0.577
vn 0.577 0.577 0.577
vn -0.577 -0.577 -0.577
vn -0.577 -0.577 -0.577
vn 0.577 0.577 0.577
vn 0.577 0.577 0.577
vn -0.577 -0.577 -0.577
vn -0.577 -0.577 -0.577
vn -0.577 -0.577 -0.577
vn -0.577 -0.577 -0.577
vn 0.000 0.283 0.959
vn 0.000 0.283 0.959
vn -0.577 -0.577 -0.577
vn -0.577 -0.577 -0.577
vn 0.577 0.577 0.577
vn 0.577 0.577 0.577
vn 0.577 0.577 0.577
vn 0.577 0.577 0.577
vn -0.577 -0.577 -0.577
vn -0.577 -0.577 -0.577
vn -0.577 -0.577 -0.577
vn -0.577 -0.577 -0.577
vn -0.577 -0.577 -0.577
vn -0.577 -0.577 -0.577
vn -0.577 -0.577 -0.577
vn -0.577 -0.577 -0.577
vn -0.577 -0.577 -0.577
vn -0.577 -0.577 -0.577
vn -0.577 -0.577 -0.577
vn -0.577 -0.577 -0.577
vn -0.577 -0.577 -0.577
vn -0.577 -0.577 -0.577
vn -0.577 -0.577 -0.577
vn -0.577 -0.577 -0.577
vn -0.577 -0.577 -0.577
vn -0.577 -0.577 -0.577
vn -0.577 -0.577 -0.577
vn -0.577 -0.577 -0.577
vn 0.000 0.387 0.922
vn 0.000 0.387 0.922
vn -0.577 -0.577 -0.577
vn -0.577 -0.577 -0.577
vn -0.577 -0.577 -0.577
vn -0.577 -0.577 -0.577
vn 0.577 0.577 0.577
vn 0.577 0.577 0.577
vn 0.577 0.577 0.577
vn 0.577 0.577 0.577
vn 0.577 0.577 0.577
vn 0.577 0.577 0.577
vn 0.577 0.577 0.577
vn 0.577 0.577 0.577
vn -0.577 -0.577 -0.577
vn 0.577 0.577 0.577
vn -0.577 -0.577 -0.577
vn 0.577 0.577 0.577
vn -0.577 -0.577 -0.577
vn 0.577 0.577 0.577
vn -0.577 -0.577 -0.577
vn -0.577 -0.577 -0.577
vn 0.577 0.577 0.577
vn -0.577 -0.577 -0.577
vn -0.577 -0.577 -0.577
vn -0.577 -0.577 -0.577
vn -0.577 -0.577 -0.577
vn -0.577 -0.577 -0.577
vn -0.577 -0.577 -0.577
vn -0.577 -0.577 -0.577
vn -0.577 -0.577 -0.577
vn -0.577 -0.577 -0.577
vn 0.577 0.577 0.577
vn 0.577 0.577 0.577
vn 0.577 0.577 0.577
vn 0.577 0.577 0.577
vn 0.577 0.577 0.577
vn 0.577 0.577 0.577
vn 0.577 0.577 0.577
vn -0.577 -0.577 -0.577
vn -0.577 -0.577 -0.577
vn 0.560 0.617 0.554
vn 0.558 0.614 0.558
vn 0.563 0.612 0.555
vn -0.577 -0.577 -0.577
vn -0.577 -0.577 -0.577
vn 0.577 0.577 0.577
vn 0.577 0.577 0.577
vn 0.000 -0.889 0.457
vn 0.000 -0.889 0.457
vn 0.558 0.614 0.558
vn 0.558 0.614 0.558
vn 0.577 0.577 0.577
vn 0.577 0.577 0.577
vn -0.577 -0.577 -0.577
vn -0.577 -0.577 -0.577
vn 0.577 0.577 0.577
vn 0.577 0.577 0.577
vn 0.577 0.577 0.577
vn 0.577 0.577 0.577
vn 0.577 0.577 0.577
vn 0.577 0.577 0.577
vn 0.577 0.577 0.577
vn -0.577 -0.577 -0.577
vn -0.577 -0.577 -0.577
vn 0.577 0.577 0.577
vn -0.577 -0.577 -0.577
vn 0.577 0.577 0.577
vn 0.577 0.577 0.577
vn 0.577 0.577 0.577
vn 0.577 0.577 0.577
vn 0.577 0.577 0.577
vn 0.577 0.577 0.577
vn -0.577 -0.577 -0.577
vn 0.577 0.577 0.577
vn 0.577 0.577 0.577
vn 0.577 0.577 0.577
vn 0.577 0.577 0.577
vn 0.577 0.577 0.577
vn 0.577 0.577 0.577
vn 0.577 0.577 0.577
vn 0.577 0.577 0.577
vn -0.577 -0.577 -0.577
vn 0.577 0.577 0.577
vn -0.577 -0.577 -0.577
vn -0.577 -0.577 -0.577
vn 0.577 0.577 0.577
vn -0.577 -0.577 -0.577
vn 0.577 0.577 0.577
vn 0.577 0.577 0.577
vn 0.577 0.577 0.577
vn 0.577 0.577 0.577
vn 0.577 0.577 0.577
vn 0.577 0.577 0.577
vn 0.577 0.577 0.577
vn 0.577 0.577 0.577
vn -0.577 -0.577 -0.577
vn 0.577 0.577 0.577
vn 0.577 0.577 0.577
vn -0.577 -0.577 -0.577
vn -0.577 -0.577 -0.577
vn 0.577 0.577 0.577
vn 0.577 0.577 0.577
vn 0.577 0.577 0.577
vn 0.577 0.577 0.577
vn 0.577 0.577 0.577
vn 0.577 0.577 0.577
vn -0.577 -0.577 -0.577
vn -0.577 -0.577 -0.577
vn 0.577 0.577 0.577
vn 0.577 0.577 0.577
vn 0.577 0.577 0.577
vn 0.577 0.577 0.577
vn 0.577 0.577 0.577
vn -0.577 -0.577 -0.577
vn -0.577 -0.577 -0.577
vn -0.577 -0.577 -0.577
vn -0.577 -0.577 -0.577
vn 0.577 0.577 0.577
vn 0.577 0.577 0.577
vn 0.577 0.577 0.577
vn 0.577 0.577 0.577
vn 0.577 0.577 0.577
vn 0.577 0.577 0.577
vn 0.577 0.577 0.577
vn 0.577 0.577 0.577
vn -0.577 -0.577 -0.577
vn -0.577 -0.577 -0.577
vn 0.577 0.577 0.577
vn -0.577 -0.577 -0.577
vn -0.577 -0.577 -0.577
vn -0.577 -0.577 -0.577
vn -0.577 -0.577 -0.577
vn -0.577 -0.577 -0.577
vn 0.577 0.577 0.577
vn 0.577 0.577 0.577
vn 0.577 0.577 0.577
vn 0.577 0.577 0.577
vn 0.577 0.577 0.577
vn 0.577 0.577 0.577
vn 0.560 0.617 0.554
vn 0.560 0.617 0.554
vn 0.560 0.617 0.554
vn 0.560 0.617 0.554
vn 0.560 0.617 0.554
vn 0.560 0.617 0.554
vn 0.560 0.617 0.554
vn 0.560 0.617 0.554
vn 0.560 0.617 0.554
vn 0.560 0.617 0.554
vn 0.577 0.577 0.577
vn 0.577 0.577 0.577
vn 0.577 0.577 0.577
vn 0.577 0.577 0.577
vn 0.577 0.577 0.577
vn 0.577 0.577 0.577
vn 0.577 0.577 0.577
vn 0.577 0.577 0.577
vn 0.577 0.577 0.577
vn 0.558 0.614 0.558
vn 0.558 0.614 0.558
vn 0.625 0.595 0.505
vn 0.625 0.595 0.505
vn 0.577 0.577 0.577
vn 0.577 0.577 0.577
vn 0.577 0.577 0.577
vn 0.577 0.577 0.577
vn 0.558 0.614 0.558
vn 0.558 0.614 0.558
vn 0.560 0.617 0.554
vn 0.560 0.617 0.554
vn 0.560 0.617 0.554
vn 0.560 0.617 0.554
vn 0.560 0.617 0.554
vn 0.560 0.617 0.554
vn 0.560 0.617 0.554
vn 0.560 0.617 0.554
vn 0.560 0.617 0.554
vn 0.560 0.617 0.554
vn 0.560 0.617 0.554
vn 0.560 0.617 0.554
vn 0.560 0.617 0.554
vn 0.560 0.617 0.554
vn 0.560 0.617 0.554
vn 0.560 0.617 0.554
vn 0.560 0.617 0.554
vn 0.560 0.617 0.554
vn 0.625 0.595 0.505
vn 0.625 0.595 0.505
vn 0.625 0.595 0.505
vn 0.625 0.595 0.505
vn 0.560 0.617 0.554
vn 0.560 0.617 0.554
vn 0.563 0.612 0.555
vn 0.563 0.612 0.555
vn 0.560 0.617 0.554
vn 0.563 0.612 0.555
vn 0.577 0.577 0.577
vn 0.577 0.577 0.577
vn -0.577 -0.577 -0.577
vn -0.577 -0.577 -0.577
vn 0.558 0.614 0.558
vn 0.625 0.595 0.505
vn 0.625 0.595 0.505
vn -0.577 -0.577 -0.577
vn -0.577 -0.577 -0.577
vn -0.577 -0.577 -0.577
vn -0.577 -0.577 -0.577
vn -0.577 -0.577 -0.577
vn -0.577 -0.577 -0.577
vn -0.577 -0.577 -0.577
vn -0.577 -0.577 -0.577
vn 0.560 0.617 0.554
vn 0.560 0.617 0.554
vn 0.563 0.612 0.555
vn 0.560 0.617 0.554
vn 0.560 0.617 0.554
vn -0.577 -0.577 -0.577
vn 0.577 0.577 0.577
vn -0.577 -0.577 -0.577
vn -0.577 -0.577 -0.577
vn -0.577 -0.577 -0.577
vn 0.625 0.595 0.505
vn 0.625 0.595 0.505
vn 0.625 0.595 0.505
vn 0.625 0.595 0.505
vn 0.563 0.612 0.555
vn 0.563 0.612 0.555
vn 0.560 0.617 0.554
vn 0.560 0.617 0.554
vn 0.563 0.612 0.555
vn 0.560 0.617 0.554
vn -0.577 -0.577 -0.577
vn 0.560 0.617 0.554
vn 0.577 0.577 0.577
vn 0.577 0.577 0.577
vn 0.558 0.614 0.558
vn 0.558 0.614 0.558
vn -0.577 -0.577 -0.577
vn -0.577 -0.577 -0.577
vn -0.577 -0.577 -0.577
vn -0.577 -0.577 -0.577
vn 0.559 0.617 0.554
vn 0.559 0.617 0.554
vn -0.577 -0.577 -0.577
vn -0.577 -0.577 -0.577
vn 0.560 0.617 0.554
vn 0.563 0.612 0.555
vn 0.560 0.617 0.554
vn 0.560 0.617 0.554
vn 0.560 0.617 0.554
vn -0.577 -0.577 -0.577
vn -0.577 -0.577 -0.577
vn 0.577 0.577 0.577
vn -0.577 -0.577 -0.577
vn -0.577 -0.577 -0.577
vn 0.577 0.577 0.577
vn -0.577 -0.577 -0.577
vn 0.000 -0.889 0.459
vn 0.000 -0.889 0.459
vn 0.558 0.614 0.558
vn 0.558 0.614 0.558
vn 0.000 -0.842 -0.540
vn 0.000 -0.842 -0.540
vn 0.000 -0.842 -0.540
vn 0.000 -0.842 -0.540
vn 0.000 -0.842 -0.540
vn 0.000 -0.842 -0.540
vn 0.000 -0.842 -0.540
vn 0.000 -0.842 -0.540
vn 0.577 0.577 0.577
vn 0.577 0.577 0.577
vn 0.577 0.577 0.577
vn 0.364 -0.881 0.302
vn 0.364 -0.881 0.302
vn 0.577 0.577 0.577
vn 0.577 0.577 0.577
vn 0.577 0.577 0.577
vn 0.577 0.577 0.577
vn -0.366 -0.880 0.304
vn -0.365 -0.880 0.304
vn 0.560 0.617 0.554
vn 0.560 0.617 0.554
vn 0.560 0.617 0.554
vn 0.560 0.617 0.554
vn 0.560 0.617 0.554
vn 0.560 0.617 0.554
vn 0.560 0.617 0.554
vn 0.560 0.617 0.554
vn 0.560 0.617 0.554
vn 0.560 0.617 0.554
vn 0.560 0.617 0.554
vn 0.560 0.617 0.554
vn 0.560 0.616 0.554
vn 0.560 0.616 0.554
vn 0.560 0.617 0.554
vn 0.560 0.617 0.554
vn 0.560 0.616 0.554
vn 0.560 0.616 0.554
vn 0.560 0.617 0.554
vn 0.560 0.617 0.554
vn 0.560 0.616 0.554
vn 0.560 0.616 0.554
vn 0.628 0.596 0.500
vn 0.628 0.596 0.500
vn 0.628 0.596 0.500
vn 0.628 0.596 0.500
vn 0.560 0.616 0.554
vn 0.560 0.616 0.554
vn 0.628 0.596 0.500
vn 0.628 0.596 0.500
vn 0.560 0.616 0.554
vn 0.560 0.616 0.554
vn 0.577 0.577 0.577
vn 0.577 0.577 0.577
vn 0.577 0.577 0.577
vn 0.577 0.577 0.577
vn -0.577 -0.577 -0.577
vn 0.577 0.577 0.577
vn 0.577 0.577 0.577
vn -0.577 -0.577 -0.577
vn 0.577 0.577 0.577
vn -0.577 -0.577 -0.577
vn -0.577 -0.577 -0.577
vn -0.577 -0.577 -0.577
vn 0.577 0.577 0.577
vn 0.577 0.577 0.577
vn 0.577 0.577 0.577
vn 0.577 0.577 0.577
vn -0.577 -0.577 -0.577
vn 0.577 0.577 0.577
vn 0.577 0.577 0.577
vn -0.577 -0.577 -0.577
vn -0.577 -0.577 -0.577
vn -0.577 -0.577 -0.577
vn -0.577 -0.577 -0.577
vn 0.577 0.577 0.577
vn 0.560 0.616 0.554
vn 0.560 0.616 0.554
vn 0.560 0.617 0.554
vn 0.560 0.617 0.554
vn 0.628 0.596 0.500
vn 0.628 0.596 0.500
vn -0.577 -0.577 -0.577
vn -0.577 -0.577 -0.577
vn -0.577 -0.577 -0.577
vn -0.577 -0.577 -0.577
vn -0.577 -0.577 -0.577
vn -0.577 -0.577 -0.577
vn -0.577 -0.577 -0.577
vn -0.577 -0.577 -0.577
vn 0.560 0.617 0.554
vn 0.560 0.617 0.554
vn 0.560 0.617 0.554
vn 0.560 0.617 0.554
vn 0.560 0.617 0.554
vn 0.560 0.617 0.554
vn 0.560 0.617 0.554
vn 0.560 0.617 0.554
vn 0.560 0.617 0.554
vn 0.560 0.617 0.554
vn 0.560 0.617 0.554
vn 0.560 0.617 0.554
vn 0.560 0.616 0.554
vn 0.560 0.616 0.554
vn 0.560 0.616 0.554
vn 0.560 0.616 0.554
vn 0.628 0.596 0.500
vn 0.628 0.596 0.500
vn 0.560 0.616 0.554
vn 0.560 0.616 0.554
vn 0.628 0.596 0.500
vn 0.628 0.596 0.500
vn 0.560 0.616 0.554
vn 0.560 0.616 0.554
vn 0.560 0.617 0.554
vn 0.560 0.617 0.554
vn 0.560 0.617 0.554
vn 0.560 0.617 0.554
vn 0.560 0.617 0.554
vn 0.560 0.617 0.554
vn 0.560 0.617 0.554
vn 0.560 0.617 0.554
vn 0.560 0.617 0.554
vn 0.560 0.617 0.554
vn 0.560 0.617 0.554
vn 0.560 0.617 0.554
vn 0.560 0.617 0.554
vn 0.560 0.617 0.554
vn 0.560 0.617 0.554
vn 0.560 0.617 0.554
vn 0.560 0.617 0.554
vn 0.560 0.617 0.554
vn 0.560 0.617 0.554
vn 0.560 0.617 0.554
vn 0.560 0.617 0.554
vn 0.560 0.617 0.554
vn 0.560 0.617 0.554
vn 0.560 0.617 0.554
vn 0.560 0.617 0.554
vn 0.560 0.617 0.554
vn 0.560 0.617 0.554
vn 0.560 0.617 0.554
vn 0.560 0.617 0.554
vn 0.560 0.617 0.554
vn 0.560 0.617 0.554
vn 0.560 0.617 0.554
vn 0.560 0.617 0.554
vn 0.560 0.617 0.554
vn 0.560 0.617 0.554
vn 0.560 0.616 0.554
vn 0.560 0.616 0.554
vn 0.560 0.617 0.554
vn 0.560 0.617 0.554
vn 0.560 0.616 0.554
vn 0.560 0.616 0.554
vn 0.560 0.617 0.554
vn 0.560 0.617 0.554
vn 0.560 0.616 0.554
vn 0.560 0.616 0.554
vn 0.560 0.617 0.554
vn 0.560 0.617 0.554
vn 0.560 0.616 0.554
vn 0.560 0.616 0.554
vn 0.560 0.617 0.554
vn 0.560 0.617 0.554
vn 0.628 0.596 0.500
vn 0.628 0.596 0.500
vn 0.560 0.616 0.554
vn 0.560 0.616 0.554
vn 0.628 0.596 0.500
vn 0.628 0.596 0.500
vn 0.560 0.616 0.554
vn 0.560 0.616 0.554
vn 0.628 0.596 0.500
vn 0.628 0.596 0.500
vn 0.560 0.616 0.554
vn 0.560 0.616 0.554
vn 0.628 0.596 0.500
vn 0.628 0.596 0.500
vn 0.560 0.616 0.554
vn 0.560 0.616 0.554
vn 0.628 0.596 0.500
vn 0.628 0.596 0.500
vn 0.628 0.596 0.500
vn 0.628 0.596 0.500
vn 0.628 0.596 0.500
vn 0.628 0.596 0.500
vn 0.628 0.596 0.500
vn 0.628 0.596 0.500
vn 0.560 0.617 0.554
vn 0.560 0.617 0.554
vn 0.560 0.617 0.554
vn 0.560 0.617 0.554
vn 0.559 0.617 0.554
vn 0.559 0.617 0.554
vn 0.555 0.620 0.555
vn 0.555 0.620 0.555
vn -0.577 -0.577 -0.577
vn -0.577 -0.577 -0.577
vn 0.560 0.617 0.554
vn 0.560 0.617 0.554
vn -0.577 -0.577 -0.577
vn -0.577 -0.577 -0.577
vn 0.560 0.617 0.554
vn 0.560 0.617 0.554
vn 1.000 0.000 0.000
vn 1.000 0.000 0.000
vn 1.000 0.000 0.000
vn 1.000 0.000 0.000
vn 1.000 0.000 0.000
vn 1.000 0.000 0.000
vn 1.000 0.000 0.000
vn 1.000 0.000 0.000
vn 1.000 0.000 0.000
vn 1.000 0.000 0.000
vn 1.000 0.000 0.000
vn 1.000 0.000 0.000
vn -0.577 -0.577 -0.577
vn -0.577 -0.577 -0.577
vn 0.577 0.577 0.577
vn 0.577 0.577 0.577
vn -0.577 -0.577 -0.577
vn -0.577 -0.577 -0.577
vn -0.577 -0.577 -0.577
vn -0.577 -0.577 -0.577
vn 0.577 0.577 0.577
vn 0.577 0.577 0.577
vn 0.577 0.577 0.577
vn 0.577 0.577 0.577
vn 0.577 0.577 0.577
vn 0.577 0.577 0.577
vn 0.577 0.577 0.577
vn 0.577 0.577 0.577
vn 0.577 0.577 0.577
vn 0.577 0.577 0.577
vn 0.577 0.577 0.577
vn 0.577 0.577 0.577
vn 0.577 0.577 0.577
vn 0.577 0.577 0.577
vn 0.577 0.577 0.577
vn -0.577 -0.577 -0.577
vn 0.577 0.577 0.577
vn 0.577 0.577 0.577
vn -0.577 -0.577 -0.577
vn 0.577 0.577 0.577
vn -0.577 -0.577 -0.577
vn 0.577 0.577 0.577
vn 0.577 0.577 0.577
vn 0.577 0.577 0.577
vn 0.577 0.577 0.577
vn 0.577 0.577 0.577
vn 0.577 0.577 0.577
vn 0.577 0.577 0.577
vn 0.577 0.577 0.577
vn -0.577 -0.577 -0.577
vn -0.577 -0.577 -0.577
vn -0.577 -0.577 -0.577
vn -0.577 -0.577 -0.577
vn -0.577 -0.577 -0.577
vn 0.577 0.577 0.577
vn 0.577 0.577 0.577
vn -0.577 -0.577 -0.577
vn -0.577 -0.577 -0.577
vn -0.577 -0.577 -0.577
vn -0.577 -0.577 -0.577
vn -0.577 -0.577 -0.577
vn -0.577 -0.577 -0.577
vn 0.577 0.577 0.577
vn 0.577 0.577 0.577
vn 0.577 0.577 0.577
vn 0.577 0.577 0.577
vn 0.577 0.577 0.577
vn 0.577 0.577 0.577
vn 0.577 0.577 0.577
vn 0.577 0.577 0.577
vn 0.577 0.577 0.577
vn 0.577 0.577 0.577
vn 0.577 0.577 0.577
vn 0.577 0.577 0.577
vn 0.577 0.577 0.577
vn 0.577 0.577 0.577
vn -0.577 -0.577 -0.577
vn -0.577 -0.577 -0.577
vn -0.577 -0.577 -0.577
vn -0.577 -0.577 -0.577
vn -0.577 -0.577 -0.577
vn -0.577 -0.577 -0.577
vn -0.577 -0.577 -0.577
vn -0.577 -0.577 -0.577
vn -0.577 -0.577 -0.577
vn -0.577 -0.577 -0.577
vn 0.577 0.577 0.577
vn 0.577 0.577 0.577
vn 0.577 0.577 0.577
vn 0.577 0.577 0.577
vn 0.577 0.577 0.577
vn 0.577 0.577 0.577
vn 0.577 0.577 0.577
vn 0.577 0.577 0.577
vn -0.577 -0.577 -0.577
vn -0.577 -0.577 -0.577
usemtl tex_1390_lit
f 1/1/1 2/2/2 3/3/3
f 1/1/1 3/3/3 4/4/4
f 5/5/5 6/6/6 7/7/7
f 5/5/5 7/7/7 8/8/8
f 9/9/9 10/10/10 11/11/11
f 9/9/9 11/11/11 12/12/12
f 8/8/8 7/7/7 6/6/6
f 8/8/8 6/6/6 5/5/5
f 13/13/13 14/14/14 15/15/15
f 13/13/13 15/15/15 16/16/16
f 17/17/17 18/2/18 19/18/19
f 17/17/17 19/18/19 20/19/20
usemtl tex_1400_lit
f 21/20/21 22/21/22 23/22/23
f 21/20/21 23/22/23 24/23/24
f 25/24/25 26/25/26 27/2/27
f 25/24/25 27/2/27 28/26/28
f 29/27/29 30/28/30 31/29/31
f 29/27/29 31/29/31 32/30/32
f 33/29/33 34/30/34 35/2/35
f 33/29/33 35/2/35 36/31/36
f 37/32/37 38/33/38 39/23/39
f 40/34/40 41/22/41 37/32/37
f 42/35/42 43/36/43 44/2/44
f 45/37/45 46/31/46 42/35/42
f 47/38/47 48/39/48 49/40/49
f 50/38/50 51/40/51 52/41/52
f 53/33/53 54/23/54 55/42/55
f 53/33/53 55/42/55 56/43/56
f 57/21/57 58/20/58 59/23/59
f 57/21/57 59/23/59 60/22/60
f 61/28/61 62/27/62 63/30/63
f 61/28/61 63/30/63 64/29/64
f 65/44/65 66/45/66 67/2/67
f 65/44/65 67/2/67 68/31/68
f 69/30/69 70/29/70 68/31/68
f 69/30/69 68/31/68 67/2/67
f 71/35/71 72/36/72 73/2/73
f 74/46/74 72/36/72 71/35/71
f 75/47/75 76/48/76 77/30/77
f 78/49/78 79/29/79 75/47/75
f 80/50/80 81/33/81 82/23/82
f 83/38/83 84/40/84 85/41/85
f 86/36/86 87/2/87 88/51/88
f 86/36/86 88/51/88 89/52/89
usemtl tex_2347_lit
f 90/2/90 91/53/91 92/54/92
f 90/2/90 92/54/92 93/55/93
usemtl tex_2347_lit_ovl
f 94/56/94 95/2/95 96/30/96
f 94/56/94 96/30/96 97/57/97
f 98/2/98 99/58/99 100/59/100
f 101/57/101 102/30/102 103/2/103
f 101/57/101 103/2/103 104/56/104
usemtl tex_1391_lit
f 105/60/105 106/61/106 107/62/107
f 105/60/105 107/62/107 108/63/108
usemtl tex_2348_lit
f 109/64/109 110/65/110 111/66/111
f 109/64/109 111/66/111 112/29/112
usemtl tex_2349_lit_ovl
f 113/67/113 114/68/114 115/69/115
f 116/70/116 117/71/117 118/72/118
f 116/70/116 119/73/119 117/71/117
f 120/74/120 121/75/121 122/76/122
f 123/77/123 120/74/120 122/76/122
f 124/78/124 123/77/123 122/76/122
f 125/79/125 126/70/126 127/72/127
f 128/80/128 126/70/126 125/79/125
f 129/81/129 126/70/126 128/80/128
f 121/75/121 130/82/130 122/76/122
f 130/82/130 131/83/131 122/76/122
f 132/84/132 133/85/133 134/68/134
f 135/86/135 132/84/132 134/68/134
f 136/69/136 137/86/137 138/68/138
f 139/84/139 140/68/140 141/85/141
f 142/86/142 140/68/140 139/84/139
f 143/69/143 140/68/140 142/86/142
f 140/68/140 144/87/144 141/85/141
f 140/68/140 145/88/145 144/87/144
f 146/85/146 147/87/147 138/68/138
f 147/87/147 148/88/148 138/68/138
f 149/69/149 150/68/150 151/67/151
f 152/69/152 153/68/153 154/67/154
f 155/70/155 156/71/156 157/72/157
f 155/70/155 158/73/158 156/71/156
f 159/79/159 160/72/160 161/70/161
f 162/80/162 159/79/159 161/70/161
f 163/81/163 162/80/162 161/70/161
f 164/79/164 155/70/155 157/72/157
f 165/80/165 155/70/155 164/79/164
f 166/81/166 155/70/155 165/80/165
f 160/72/160 167/71/167 161/70/161
f 168/71/168 169/73/169 170/70/170
f 171/84/171 172/85/172 173/68/173
f 174/86/174 171/84/171 173/68/173
f 175/69/175 174/86/174 173/68/173
f 176/84/176 177/68/177 178/85/178
f 179/86/179 177/68/177 176/84/176
f 180/69/180 177/68/177 179/86/179
f 177/68/177 181/87/181 178/85/178
f 177/68/177 182/88/182 181/87/181
f 172/85/172 183/87/183 173/68/173
f 184/87/184 185/88/185 186/68/186
usemtl tex_2350_lit
f 187/89/187 188/90/188 189/2/189
f 187/89/187 189/2/189 190/53/190
usemtl tex_2351_lit_ovl
f 191/91/191 192/92/192 193/93/193
f 191/91/191 193/93/193 194/2/194
f 195/94/195 196/95/196 194/2/194
usemtl tex_2353_lit
f 197/96/197 198/97/198 199/98/199
f 200/96/200 201/98/201 202/99/202
f 203/29/203 204/30/204 205/2/205
f 203/29/203 205/2/205 206/31/206
f 207/100/207 208/101/208 209/2/209
f 207/100/207 209/2/209 210/102/210
usemtl tex_2354_lit_ovl
f 211/103/211 212/104/212 213/105/213
f 211/103/211 213/105/213 214/106/214
f 211/103/211 215/107/215 212/104/212
usemtl tex_2354_lit
f 216/2/216 217/31/217 218/29/218
f 216/2/216 218/29/218 219/30/219
f 220/108/220 221/109/221 222/2/222
f 220/108/220 222/2/222 223/110/223
f 224/2/224 225/31/225 226/29/226
f 224/2/224 226/29/226 227/30/227
usemtl tex_1464_lit
f 228/2/228 229/111/229 230/112/230
f 228/2/228 230/112/230 231/113/231
usemtl tex_2357_lit_ovl
f 232/114/232 233/115/233 234/116/234
f 232/114/232 234/116/234 235/2/235
usemtl tex_2357_lit
f 236/31/236 237/117/237 238/118/238
f 236/31/236 238/118/238 239/119/239
f 240/120/240 241/121/241 242/2/242
f 240/120/240 242/2/242 243/31/243
usemtl tex_2358_lit
f 244/122/244 245/123/245 246/124/246
f 244/122/244 246/124/246 247/2/247
usemtl tex_2358_lit_ovl
f 248/125/248 249/126/249 250/127/250
f 248/125/248 250/127/250 251/128/251
f 249/126/249 252/2/252 253/129/253
f 249/126/249 253/129/253 250/127/250
f 254/130/254 255/131/255 256/2/256
f 254/130/254 256/2/256 257/132/257
f 256/2/256 255/131/255 258/133/258
usemtl tex_2358_lit
f 259/2/259 260/134/260 261/135/261
f 259/2/259 261/135/261 262/136/262
f 263/137/263 264/138/264 265/136/265
f 263/137/263 265/136/265 266/135/266
f 267/139/267 268/140/268 264/138/264
f 267/139/267 264/138/264 263/137/263
usemtl tex_2358_lit_ovl
f 269/141/269 270/31/270 271/142/271
f 272/143/272 269/141/269 271/142/271
f 273/144/273 272/143/272 271/142/271
f 274/145/274 275/146/275 276/2/276
f 277/147/277 275/146/275 274/145/274
f 278/148/278 275/146/275 277/147/277
usemtl tex_2358_lit
f 279/149/279 280/150/280 281/2/281
f 279/149/279 281/2/281 282/151/282
usemtl tex_2358_lit_ovl
f 283/152/283 284/153/284 285/154/285
f 283/152/283 285/154/285 286/155/286
f 284/153/284 287/156/287 288/2/288
f 284/153/284 288/2/288 285/154/285
f 289/157/289 290/2/290 291/158/291
f 289/157/289 291/158/291 292/159/292
f 290/2/290 293/160/293 291/158/291
f 288/2/288 287/156/287 294/161/294
usemtl tex_2358_lit
f 295/162/295 296/163/296 297/164/297
f 295/162/295 297/164/297 298/165/298
f 298/165/298 297/164/297 299/150/299
f 298/165/298 299/150/299 300/149/300
f 296/163/296 295/162/295 301/166/301
f 296/163/296 301/166/301 302/167/302
usemtl tex_2358_lit_ovl
f 303/168/303 304/152/304 305/155/305
f 306/169/306 304/152/304 303/168/303
f 307/170/307 304/152/304 306/169/306
usemtl tex_2359_lit_ovl
f 308/171/308 309/2/309 310/172/310
f 311/173/311 312/171/312 313/172/313
f 314/174/314 311/173/311 313/172/313
usemtl tex_1514_lit
f 315/2/315 316/2/316 317/2/317
f 315/2/315 317/2/317 318/2/318
f 319/2/319 320/2/320 321/2/321
f 319/2/319 321/2/321 322/2/322
f 323/2/323 324/2/324 325/2/325
f 323/2/323 325/2/325 326/2/326
usemtl tex_1514_lit_ovl
f 327/2/327 328/2/328 329/2/329
usemtl tex_2352_lit
f 330/175/330 331/176/331 332/177/332
f 330/175/330 332/177/332 333/2/333
f 334/2/334 335/177/335 336/176/336
f 334/2/334 336/176/336 337/175/337
usemtl tex_2353_lit
f 338/178/338 339/179/339 340/180/340
f 338/178/338 340/180/340 341/181/341
f 342/182/342 343/183/343 344/184/344
f 342/182/342 344/184/344 345/185/345
f 346/186/346 347/187/347 348/188/348
f 346/186/346 348/188/348 349/189/349
f 350/190/350 351/191/351 352/179/352
f 350/190/350 352/179/352 353/178/353
f 354/192/354 355/193/355 356/183/356
f 354/192/354 356/183/356 357/182/357
f 358/194/358 359/195/359 347/187/347
f 358/194/358 347/187/347 346/186/346
f 360/2/360 361/31/361 351/191/351
f 360/2/360 351/191/351 350/190/350
f 362/2/362 363/31/363 364/193/364
f 362/2/362 364/193/364 365/192/365
f 366/2/366 367/196/367 368/195/368
f 366/2/366 368/195/368 369/194/369
usemtl tex_2355_lit
f 370/197/370 371/198/371 372/199/372
f 370/197/370 372/199/372 373/200/373
f 374/201/374 375/202/375 376/203/376
f 374/201/374 376/203/376 377/204/377
f 378/205/378 379/206/379 380/207/380
f 378/205/378 380/207/380 381/208/381
f 382/200/382 383/199/383 384/198/384
f 382/200/382 384/198/384 385/197/385
f 386/204/386 387/203/387 388/202/388
f 386/204/386 388/202/388 389/201/389
f 390/208/390 391/207/391 392/206/392
f 390/208/390 392/206/392 393/205/393
usemtl tex_493_lit
f 394/209/394 395/210/395 396/211/396
f 394/209/394 396/211/396 397/212/397
f 398/2/398 399/213/399 395/210/395
f 398/2/398 395/210/395 394/209/394
usemtl tex_2356_lit
f 400/214/400 401/215/401 402/31/402
f 400/214/400 402/31/402 403/216/403
f 404/216/404 405/31/405 406/215/406
f 404/216/404 406/215/406 407/214/407
usemtl tex_2357_lit
f 408/217/408 409/218/409 410/219/410
f 408/217/408 410/219/410 411/220/411
f 412/221/412 413/222/413 414/223/414
f 412/221/412 414/223/414 415/224/415
f 416/225/416 417/226/417 418/227/418
f 416/225/416 418/227/418 419/228/419
f 420/229/420 421/230/421 413/222/413
f 420/229/420 413/222/413 412/221/412
f 422/231/422 423/232/423 417/226/417
f 422/231/422 417/226/417 416/225/416
f 424/2/424 425/31/425 426/230/426
f 424/2/424 426/230/426 427/229/427
f 428/2/428 429/31/429 430/232/430
f 428/2/428 430/232/430 431/231/431
f 432/233/432 433/2/433 434/234/434
f 432/233/432 434/234/434 435/235/435
f 436/236/436 437/237/437 438/238/438
f 436/236/436 438/238/438 439/239/439
f 440/240/440 441/234/441 442/2/442
f 440/240/440 442/2/442 443/241/443
f 444/242/444 441/234/441 440/240/440
f 445/236/445 444/242/444 440/240/440
f 446/243/446 447/244/447 443/241/443
f 446/243/446 443/241/443 442/2/442
f 448/237/448 447/244/447 446/243/446
usemtl tex_2359_lit
f 449/245/449 450/246/450 451/247/451
f 449/245/449 451/247/451 452/248/452
f 453/249/453 454/250/454 455/251/455
f 456/249/456 457/251/457 458/252/458
f 459/253/459 460/254/460 461/255/461
f 459/253/459 461/255/461 462/256/462
f 463/257/463 464/258/464 465/259/465
f 463/257/463 465/259/465 466/260/466
f 467/261/467 468/262/468 469/246/469
f 467/261/467 469/246/469 470/245/470
f 471/263/471 472/264/472 473/250/473
f 471/263/471 473/250/473 474/249/474
f 475/265/475 476/266/476 477/254/477
f 475/265/475 477/254/477 478/253/478
f 479/267/479 480/268/480 481/258/481
f 479/267/479 481/258/481 482/257/482
f 483/2/483 484/31/484 485/262/485
f 483/2/483 485/262/485 486/261/486
f 487/2/487 488/31/488 489/264/489
f 487/2/487 489/264/489 490/263/490
f 491/2/491 492/31/492 493/266/493
f 491/2/491 493/266/493 494/265/494
f 495/269/495 496/270/496 497/268/497
f 495/269/495 497/268/497 498/267/498
f 499/271/499 500/272/500 501/273/501
f 499/271/499 501/273/501 502/274/502
f 503/275/503 504/276/504 505/277/505
f 503/275/503 505/277/505 506/278/506
usemtl tex_2361_lit_w11_ovl
f 507/29/507 508/30/508 509/2/509
f 507/29/507 509/2/509 510/31/510
usemtl tex_2360_lit_sec_ds_w11
f 511/29/511 512/30/512 513/2/513
f 511/29/511 513/2/513 514/31/514
usemtl tex_46_lit_sec_ds_w11
f 515/29/515 516/30/516 517/2/517
f 515/29/515 517/2/517 518/31/518
usemtl tex_46_lit_sec_ds_w11_ovl
f 519/29/519 520/30/520 521/2/521
f 519/29/519 521/2/521 522/31/522
usemtl tex_884_sw0_0_ds_w11
f 523/2/523 524/30/524 525/29/525
f 523/2/523 525/29/525 526/31/526
f 527/2/527 528/30/528 529/29/529
f 527/2/527 529/29/529 530/31/530
f 531/2/531 532/30/532 533/29/533
f 531/2/531 533/29/533 534/31/534
usemtl tex_2347_lit
f 535/279/535 536/280/536 537/281/537
f 535/279/535 537/281/537 538/282/538
f 539/283/539 540/284/540 536/280/536
f 539/283/539 536/280/536 535/279/535
f 541/285/541 542/286/542 540/284/540
f 541/285/541 540/284/540 539/283/539
f 543/287/543 544/288/544 542/286/542
f 543/287/543 542/286/542 541/285/541
f 545/289/545 546/290/546 544/288/544
f 545/289/545 544/288/544 543/287/543
f 547/291/547 548/292/548 546/290/546
f 547/291/547 546/290/546 545/289/545
f 549/2/549 550/293/550 548/292/548
f 549/2/549 548/292/548 547/291/547
f 551/294/551 552/295/552 553/293/553
f 551/294/551 553/293/553 554/2/554
usemtl tex_1393_lit
f 555/296/555 556/297/556 557/298/557
f 555/296/555 557/298/557 558/299/558
f 556/297/556 559/300/559 557/298/557
f 556/297/556 560/301/560 559/300/559
f 558/299/558 561/302/561 555/296/555
f 558/299/558 562/303/562 561/302/561
f 563/304/563 564/305/564 565/306/565
f 563/304/563 565/306/565 566/307/566
f 567/305/567 568/308/568 569/306/569
f 568/308/568 570/309/570 569/306/569
f 571/307/571 572/310/572 573/304/573
f 572/310/572 574/311/574 573/304/573
usemtl tex_2350_lit
f 575/312/575 576/313/576 577/314/577
f 575/312/575 577/314/577 578/315/578
f 579/29/579 580/316/580 576/313/576
f 579/29/579 576/313/576 575/312/575
f 581/317/581 582/312/582 583/29/583
f 581/317/581 583/29/583 584/30/584
f 585/318/585 586/315/586 582/312/582
f 585/318/585 582/312/582 581/317/581
f 587/2/587 588/31/588 586/315/586
f 587/2/587 586/315/586 585/318/585
f 589/22/589 590/23/590 591/2/591
f 589/22/589 591/2/591 592/31/592
f 593/29/593 594/30/594 590/23/590
f 593/29/593 590/23/590 589/22/589
f 595/315/595 596/314/596 597/319/597
f 595/315/595 597/319/597 598/31/598
usemtl tex_493_lit
f 599/320/599 600/321/600 601/322/601
f 599/320/599 601/322/601 602/323/602
f 603/324/603 604/325/604 600/321/600
f 603/324/603 600/321/600 599/320/599
f 605/326/605 606/327/606 604/325/604
f 605/326/605 604/325/604 603/324/603
f 607/328/607 608/329/608 606/327/606
f 607/328/607 606/327/606 605/326/605
f 609/330/609 610/331/610 608/329/608
f 609/330/609 608/329/608 607/328/607
f 611/332/611 612/333/612 613/331/613
f 611/332/611 613/331/613 614/330/614
f 615/334/615 616/335/616 612/333/612
f 615/334/615 612/333/612 611/332/611
f 617/323/617 618/322/618 616/335/616
f 617/323/617 616/335/616 615/334/615
