mtllib PtigerZ.mtl
v -304.75 335.25 -3278.75 1.000 1.000 1.000
v -228.75 335.25 -3278.75 1.000 1.000 1.000
v -228.75 259.25 -3278.75 1.000 1.000 1.000
v -304.75 259.25 -3278.75 1.000 1.000 1.000
v -380.75 183.25 -2668.75 1.000 1.000 1.000
v -304.75 259.25 -3278.75 1.000 1.000 1.000
v -228.75 259.25 -3278.75 1.000 1.000 1.000
v -228.75 183.25 -2668.75 1.000 1.000 1.000
v -304.75 335.25 -3278.75 1.000 1.000 1.000
v -304.75 259.25 -3278.75 1.000 1.000 1.000
v -380.75 183.25 -2668.75 1.000 1.000 1.000
v -380.75 335.25 -2668.75 1.000 1.000 1.000
v -380.75 183.25 -2515.75 1.000 1.000 1.000
v -228.75 183.25 -2515.75 1.000 1.000 1.000
v -228.75 183.25 -2668.75 1.000 1.000 1.000
v -228.75 335.25 -2668.75 1.000 1.000 1.000
v -228.75 335.25 -2515.75 1.000 1.000 1.000
v -228.75 183.25 -2515.75 1.000 1.000 1.000
v -228.75 259.25 -3278.75 1.000 1.000 1.000
v -228.75 335.25 -3278.75 1.000 1.000 1.000
v -228.75 335.25 -3278.75 1.000 1.000 1.000
v -304.75 335.25 -3278.75 1.000 1.000 1.000
v -380.75 335.25 -2668.75 1.000 1.000 1.000
v -228.75 335.25 -2668.75 1.000 1.000 1.000
v -380.75 335.25 -2515.75 1.000 1.000 1.000
v -228.75 335.25 -2515.75 1.000 1.000 1.000
v -380.75 335.25 -2668.75 1.000 1.000 1.000
v -380.75 183.25 -2668.75 1.000 1.000 1.000
v -380.75 183.25 -2515.75 1.000 1.000 1.000
v -380.75 335.25 -2515.75 1.000 1.000 1.000
v -380.75 183.25 -2515.75 1.000 1.000 1.000
v -228.75 183.25 -2515.75 1.000 1.000 1.000
v -266.75 221.25 -2363.75 1.000 1.000 1.000
v -342.75 221.25 -2363.75 1.000 1.000 1.000
v -228.75 183.25 -2515.75 1.000 1.000 1.000
v -228.75 335.25 -2515.75 1.000 1.000 1.000
v -266.75 297.25 -2363.75 1.000 1.000 1.000
v -266.75 221.25 -2363.75 1.000 1.000 1.000
v -266.75 297.25 -2363.75 1.000 1.000 1.000
v -228.75 335.25 -2515.75 1.000 1.000 1.000
v -380.75 335.25 -2515.75 1.000 1.000 1.000
v -342.75 297.25 -2363.75 1.000 1.000 1.000
v -380.75 183.25 -2515.75 1.000 1.000 1.000
v -342.75 221.25 -2363.75 1.000 1.000 1.000
v -342.75 297.25 -2363.75 1.000 1.000 1.000
v -380.75 335.25 -2515.75 1.000 1.000 1.000
v 381.25 259.25 -3278.75 1.000 1.000 1.000
v 381.25 335.25 -3278.75 1.000 1.000 1.000
v 457.25 335.25 -3278.75 1.000 1.000 1.000
v 457.25 259.25 -3278.75 1.000 1.000 1.000
v 381.25 259.25 -3278.75 1.000 1.000 1.000
v 457.25 259.25 -3278.75 1.000 1.000 1.000
v 534.25 183.25 -2668.75 1.000 1.000 1.000
v 381.25 183.25 -2668.75 1.000 1.000 1.000
v 534.25 183.25 -2668.75 1.000 1.000 1.000
v 457.25 259.25 -3278.75 1.000 1.000 1.000
v 457.25 335.25 -3278.75 1.000 1.000 1.000
v 534.25 335.25 -2668.75 1.000 1.000 1.000
v 534.25 183.25 -2515.75 1.000 1.000 1.000
v 381.25 183.25 -2515.75 1.000 1.000 1.000
v 381.25 335.25 -2515.75 1.000 1.000 1.000
v 381.25 335.25 -2668.75 1.000 1.000 1.000
v 381.25 183.25 -2668.75 1.000 1.000 1.000
v 381.25 183.25 -2515.75 1.000 1.000 1.000
v 381.25 335.25 -3278.75 1.000 1.000 1.000
v 381.25 259.25 -3278.75 1.000 1.000 1.000
v 534.25 335.25 -2668.75 1.000 1.000 1.000
v 381.25 335.25 -2668.75 1.000 1.000 1.000
v 381.25 335.25 -2515.75 1.000 1.000 1.000
v 534.25 335.25 -2515.75 1.000 1.000 1.000
v 457.25 335.25 -3278.75 1.000 1.000 1.000
v 381.25 335.25 -3278.75 1.000 1.000 1.000
v 534.25 183.25 -2515.75 1.000 1.000 1.000
v 534.25 183.25 -2668.75 1.000 1.000 1.000
v 534.25 335.25 -2668.75 1.000 1.000 1.000
v 534.25 335.25 -2515.75 1.000 1.000 1.000
v 419.25 221.25 -2363.75 1.000 1.000 1.000
v 381.25 183.25 -2515.75 1.000 1.000 1.000
v 534.25 183.25 -2515.75 1.000 1.000 1.000
v 495.25 221.25 -2363.75 1.000 1.000 1.000
v 419.25 297.25 -2363.75 1.000 1.000 1.000
v 381.25 335.25 -2515.75 1.000 1.000 1.000
v 381.25 183.25 -2515.75 1.000 1.000 1.000
v 419.25 221.25 -2363.75 1.000 1.000 1.000
v 534.25 335.25 -2515.75 1.000 1.000 1.000
v 381.25 335.25 -2515.75 1.000 1.000 1.000
v 419.25 297.25 -2363.75 1.000 1.000 1.000
v 495.25 297.25 -2363.75 1.000 1.000 1.000
v 495.25 297.25 -2363.75 1.000 1.000 1.000
v 495.25 221.25 -2363.75 1.000 1.000 1.000
v 534.25 183.25 -2515.75 1.000 1.000 1.000
v 534.25 335.25 -2515.75 1.000 1.000 1.000
v 76.25 412.25 -6437.75 1.000 1.000 1.000
v 76.25 412.25 -6544.75 1.000 1.000 1.000
v 106.25 183.25 -6742.75 1.000 1.000 1.000
v 106.25 183.25 -6666.75 1.000 1.000 1.000
v 137.25 183.25 -6666.75 1.000 1.000 1.000
v 137.25 183.25 -6742.75 1.000 1.000 1.000
v 137.25 412.25 -6544.75 1.000 1.000 1.000
v 137.25 412.25 -6437.75 1.000 1.000 1.000
v 137.25 183.25 -6666.75 1.000 1.000 1.000
v 106.25 183.25 -6666.75 1.000 1.000 1.000
v 106.25 183.25 -6742.75 1.000 1.000 1.000
v 137.25 183.25 -6742.75 1.000 1.000 1.000
v -953.75 145.25 -4235.75 1.000 1.000 1.000
v -991.75 107.25 -4235.75 1.000 1.000 1.000
v -1028.75 145.25 -4235.75 1.000 1.000 1.000
v -991.75 183.25 -4235.75 1.000 1.000 1.000
v 1181.25 145.25 -4235.75 1.000 1.000 1.000
v 1143.25 107.25 -4235.75 1.000 1.000 1.000
v 1106.25 145.25 -4235.75 1.000 1.000 1.000
v 1143.25 183.25 -4235.75 1.000 1.000 1.000
v 198.25 335.25 -3296.75 1.000 1.000 1.000
v 198.25 335.25 -3509.75 1.000 1.000 1.000
v 351.25 -124.75 -3906.75 1.000 1.000 1.000
v 351.25 -124.75 -3753.75 1.000 1.000 1.000
v 412.25 -124.75 -3753.75 1.000 1.000 1.000
v 412.25 -124.75 -3906.75 1.000 1.000 1.000
v 320.25 335.25 -3509.75 1.000 1.000 1.000
v 320.25 335.25 -3296.75 1.000 1.000 1.000
v 412.25 -124.75 -3753.75 1.000 1.000 1.000
v 351.25 -124.75 -3753.75 1.000 1.000 1.000
v 351.25 -124.75 -3906.75 1.000 1.000 1.000
v 412.25 -124.75 -3906.75 1.000 1.000 1.000
v -198.75 -124.75 -3753.75 1.000 1.000 1.000
v -198.75 -124.75 -3906.75 1.000 1.000 1.000
v -45.75 335.25 -3509.75 1.000 1.000 1.000
v -45.75 335.25 -3296.75 1.000 1.000 1.000
v -167.75 335.25 -3296.75 1.000 1.000 1.000
v -167.75 335.25 -3509.75 1.000 1.000 1.000
v -259.75 -124.75 -3906.75 1.000 1.000 1.000
v -259.75 -124.75 -3753.75 1.000 1.000 1.000
v -259.75 -124.75 -3906.75 1.000 1.000 1.000
v -198.75 -124.75 -3906.75 1.000 1.000 1.000
v -198.75 -124.75 -3753.75 1.000 1.000 1.000
v -259.75 -124.75 -3753.75 1.000 1.000 1.000
v -75.75 1165.25 -3049.75 1.000 1.000 1.000
v -75.75 1165.25 -2515.75 1.000 1.000 1.000
v 229.25 1165.25 -3049.75 1.000 1.000 1.000
v 229.25 1165.25 -2515.75 1.000 1.000 1.000
v -76.75 1015.25 -1905.75 1.000 1.000 1.000
v 229.25 1015.25 -1905.75 1.000 1.000 1.000
v -75.75 789.25 -1600.75 1.000 1.000 1.000
v 229.25 789.25 -1600.75 1.000 1.000 1.000
v -188.75 717.25 -3049.75 1.000 1.000 1.000
v -188.75 717.25 -2515.75 1.000 1.000 1.000
v -188.75 717.25 -2058.75 1.000 1.000 1.000
v -188.75 640.25 -1753.75 1.000 1.000 1.000
v 341.25 717.25 -2515.75 1.000 1.000 1.000
v 341.25 717.25 -3049.75 1.000 1.000 1.000
v 341.25 717.25 -2058.75 1.000 1.000 1.000
v 341.25 640.25 -1753.75 1.000 1.000 1.000
v 137.25 274.25 -6712.75 1.000 1.000 1.000
v 183.25 274.25 -6712.75 1.000 1.000 1.000
v 183.25 229.25 -6758.75 1.000 1.000 1.000
v 137.25 229.25 -6758.75 1.000 1.000 1.000
v 183.25 229.25 -6758.75 1.000 1.000 1.000
v 183.25 168.25 -6758.75 1.000 1.000 1.000
v 137.25 168.25 -6758.75 1.000 1.000 1.000
v 137.25 229.25 -6758.75 1.000 1.000 1.000
v 183.25 122.25 -6712.75 1.000 1.000 1.000
v 137.25 122.25 -6712.75 1.000 1.000 1.000
v 137.25 168.25 -6758.75 1.000 1.000 1.000
v 183.25 168.25 -6758.75 1.000 1.000 1.000
v 137.25 122.25 -6712.75 1.000 1.000 1.000
v 183.25 122.25 -6712.75 1.000 1.000 1.000
v 183.25 122.25 -6651.75 1.000 1.000 1.000
v 137.25 122.25 -6651.75 1.000 1.000 1.000
v 183.25 274.25 -6651.75 1.000 1.000 1.000
v 183.25 274.25 -6712.75 1.000 1.000 1.000
v 137.25 274.25 -6712.75 1.000 1.000 1.000
v 137.25 274.25 -6651.75 1.000 1.000 1.000
v 137.25 274.25 -6651.75 1.000 1.000 1.000
v 137.25 229.25 -6605.75 1.000 1.000 1.000
v 183.25 229.25 -6605.75 1.000 1.000 1.000
v 183.25 274.25 -6651.75 1.000 1.000 1.000
v 183.25 229.25 -6605.75 1.000 1.000 1.000
v 137.25 229.25 -6605.75 1.000 1.000 1.000
v 137.25 168.25 -6605.75 1.000 1.000 1.000
v 183.25 168.25 -6605.75 1.000 1.000 1.000
v 137.25 168.25 -6605.75 1.000 1.000 1.000
v 137.25 122.25 -6651.75 1.000 1.000 1.000
v 183.25 122.25 -6651.75 1.000 1.000 1.000
v 183.25 168.25 -6605.75 1.000 1.000 1.000
v 412.25 58.25 -3845.75 1.000 1.000 1.000
v 503.25 58.25 -3845.75 1.000 1.000 1.000
v 503.25 -32.75 -3936.75 1.000 1.000 1.000
v 412.25 -32.75 -3936.75 1.000 1.000 1.000
v 503.25 -32.75 -3936.75 1.000 1.000 1.000
v 503.25 -154.75 -3936.75 1.000 1.000 1.000
v 412.25 -154.75 -3936.75 1.000 1.000 1.000
v 412.25 -32.75 -3936.75 1.000 1.000 1.000
v 503.25 -246.75 -3845.75 1.000 1.000 1.000
v 412.25 -246.75 -3845.75 1.000 1.000 1.000
v 412.25 -154.75 -3936.75 1.000 1.000 1.000
v 503.25 -154.75 -3936.75 1.000 1.000 1.000
v 412.25 -246.75 -3845.75 1.000 1.000 1.000
v 503.25 -246.75 -3845.75 1.000 1.000 1.000
v 503.25 -246.75 -3723.75 1.000 1.000 1.000
v 412.25 -246.75 -3723.75 1.000 1.000 1.000
v 503.25 58.25 -3723.75 1.000 1.000 1.000
v 503.25 58.25 -3845.75 1.000 1.000 1.000
v 412.25 58.25 -3845.75 1.000 1.000 1.000
v 412.25 58.25 -3723.75 1.000 1.000 1.000
v 412.25 58.25 -3723.75 1.000 1.000 1.000
v 412.25 -32.75 -3631.75 1.000 1.000 1.000
v 503.25 -32.75 -3631.75 1.000 1.000 1.000
v 503.25 58.25 -3723.75 1.000 1.000 1.000
v 503.25 -32.75 -3631.75 1.000 1.000 1.000
v 412.25 -32.75 -3631.75 1.000 1.000 1.000
v 412.25 -154.75 -3631.75 1.000 1.000 1.000
v 503.25 -154.75 -3631.75 1.000 1.000 1.000
v 412.25 -154.75 -3631.75 1.000 1.000 1.000
v 412.25 -246.75 -3723.75 1.000 1.000 1.000
v 503.25 -246.75 -3723.75 1.000 1.000 1.000
v 503.25 -154.75 -3631.75 1.000 1.000 1.000
v -259.75 -32.75 -3936.75 1.000 1.000 1.000
v -350.75 -32.75 -3936.75 1.000 1.000 1.000
v -350.75 58.25 -3845.75 1.000 1.000 1.000
v -259.75 58.25 -3845.75 1.000 1.000 1.000
v -259.75 -32.75 -3936.75 1.000 1.000 1.000
v -259.75 -154.75 -3936.75 1.000 1.000 1.000
v -350.75 -154.75 -3936.75 1.000 1.000 1.000
v -350.75 -32.75 -3936.75 1.000 1.000 1.000
v -350.75 -154.75 -3936.75 1.000 1.000 1.000
v -259.75 -154.75 -3936.75 1.000 1.000 1.000
v -259.75 -246.75 -3845.75 1.000 1.000 1.000
v -350.75 -246.75 -3845.75 1.000 1.000 1.000
v -259.75 -246.75 -3723.75 1.000 1.000 1.000
v -350.75 -246.75 -3723.75 1.000 1.000 1.000
v -350.75 -246.75 -3845.75 1.000 1.000 1.000
v -259.75 -246.75 -3845.75 1.000 1.000 1.000
v -259.75 58.25 -3723.75 1.000 1.000 1.000
v -259.75 58.25 -3845.75 1.000 1.000 1.000
v -350.75 58.25 -3845.75 1.000 1.000 1.000
v -350.75 58.25 -3723.75 1.000 1.000 1.000
v -350.75 58.25 -3723.75 1.000 1.000 1.000
v -350.75 -32.75 -3631.75 1.000 1.000 1.000
v -259.75 -32.75 -3631.75 1.000 1.000 1.000
v -259.75 58.25 -3723.75 1.000 1.000 1.000
v -350.75 -154.75 -3631.75 1.000 1.000 1.000
v -259.75 -154.75 -3631.75 1.000 1.000 1.000
v -259.75 -32.75 -3631.75 1.000 1.000 1.000
v -350.75 -32.75 -3631.75 1.000 1.000 1.000
v -350.75 -154.75 -3631.75 1.000 1.000 1.000
v -350.75 -246.75 -3723.75 1.000 1.000 1.000
v -259.75 -246.75 -3723.75 1.000 1.000 1.000
v -259.75 -154.75 -3631.75 1.000 1.000 1.000
v -1028.75 145.25 -3304.75 1.000 1.000 1.000
v -991.75 107.25 -3304.75 1.000 1.000 1.000
v -991.75 145.25 -3119.75 1.000 1.000 1.000
v -991.75 183.25 -3304.75 1.000 1.000 1.000
v -991.75 183.25 -3304.75 1.000 1.000 1.000
v -991.75 145.25 -3119.75 1.000 1.000 1.000
v -953.75 145.25 -3304.75 1.000 1.000 1.000
v -991.75 107.25 -3304.75 1.000 1.000 1.000
v -1028.75 145.25 -3304.75 1.000 1.000 1.000
v -991.75 183.25 -3304.75 1.000 1.000 1.000
v -991.75 183.25 -4235.75 1.000 1.000 1.000
v -1028.75 145.25 -4235.75 1.000 1.000 1.000
v -991.75 107.25 -4235.75 1.000 1.000 1.000
v -953.75 145.25 -3304.75 1.000 1.000 1.000
v -991.75 107.25 -3304.75 1.000 1.000 1.000
v -991.75 107.25 -4235.75 1.000 1.000 1.000
v -953.75 145.25 -3304.75 1.000 1.000 1.000
v -991.75 107.25 -4235.75 1.000 1.000 1.000
v -953.75 145.25 -4235.75 1.000 1.000 1.000
v -991.75 183.25 -3304.75 1.000 1.000 1.000
v -991.75 183.25 -4235.75 1.000 1.000 1.000
v 1106.25 145.25 -3304.75 1.000 1.000 1.000
v 1143.25 107.25 -3304.75 1.000 1.000 1.000
v 1143.25 145.25 -3119.75 1.000 1.000 1.000
v 1143.25 183.25 -3304.75 1.000 1.000 1.000
v 1143.25 183.25 -3304.75 1.000 1.000 1.000
v 1143.25 145.25 -3119.75 1.000 1.000 1.000
v 1181.25 145.25 -3304.75 1.000 1.000 1.000
v 1143.25 107.25 -3304.75 1.000 1.000 1.000
v 1106.25 145.25 -3304.75 1.000 1.000 1.000
v 1143.25 183.25 -3304.75 1.000 1.000 1.000
v 1143.25 183.25 -4235.75 1.000 1.000 1.000
v 1106.25 145.25 -3304.75 1.000 1.000 1.000
v 1143.25 183.25 -4235.75 1.000 1.000 1.000
v 1106.25 145.25 -4235.75 1.000 1.000 1.000
v 1143.25 107.25 -4235.75 1.000 1.000 1.000
v 1143.25 107.25 -3304.75 1.000 1.000 1.000
v 1181.25 145.25 -3304.75 1.000 1.000 1.000
v 1143.25 107.25 -3304.75 1.000 1.000 1.000
v 1143.25 107.25 -4235.75 1.000 1.000 1.000
v 1181.25 145.25 -4235.75 1.000 1.000 1.000
v 1143.25 183.25 -3304.75 1.000 1.000 1.000
v 1143.25 183.25 -4235.75 1.000 1.000 1.000
v 839.25 259.25 -3278.75 1.000 1.000 1.000
v 686.25 259.25 -3278.75 1.000 1.000 1.000
v 686.25 107.25 -3278.75 1.000 1.000 1.000
v 839.25 107.25 -3278.75 1.000 1.000 1.000
v -533.75 259.25 -3278.75 1.000 1.000 1.000
v -685.75 259.25 -3278.75 1.000 1.000 1.000
v -685.75 107.25 -3278.75 1.000 1.000 1.000
v -533.75 107.25 -3278.75 1.000 1.000 1.000
v 686.25 107.25 -3888.75 1.000 1.000 1.000
v 686.25 259.25 -3888.75 1.000 1.000 1.000
v 839.25 259.25 -3888.75 1.000 1.000 1.000
v 839.25 107.25 -3888.75 1.000 1.000 1.000
v 686.25 107.25 -3278.75 1.000 1.000 1.000
v 686.25 259.25 -3278.75 1.000 1.000 1.000
v 686.25 259.25 -3888.75 1.000 1.000 1.000
v 686.25 259.25 -3888.75 1.000 1.000 1.000
v 686.25 259.25 -3278.75 1.000 1.000 1.000
v 839.25 259.25 -3278.75 1.000 1.000 1.000
v 839.25 259.25 -3888.75 1.000 1.000 1.000
v 839.25 107.25 -3888.75 1.000 1.000 1.000
v 839.25 259.25 -3888.75 1.000 1.000 1.000
v 839.25 259.25 -3278.75 1.000 1.000 1.000
v 839.25 107.25 -3278.75 1.000 1.000 1.000
v -685.75 107.25 -3888.75 1.000 1.000 1.000
v -685.75 259.25 -3888.75 1.000 1.000 1.000
v -533.75 259.25 -3888.75 1.000 1.000 1.000
v -533.75 107.25 -3888.75 1.000 1.000 1.000
v -685.75 107.25 -3278.75 1.000 1.000 1.000
v -685.75 259.25 -3278.75 1.000 1.000 1.000
v -685.75 259.25 -3888.75 1.000 1.000 1.000
v -685.75 259.25 -3888.75 1.000 1.000 1.000
v -685.75 259.25 -3278.75 1.000 1.000 1.000
v -533.75 259.25 -3278.75 1.000 1.000 1.000
v -533.75 259.25 -3888.75 1.000 1.000 1.000
v -533.75 107.25 -3888.75 1.000 1.000 1.000
v -533.75 259.25 -3888.75 1.000 1.000 1.000
v -533.75 259.25 -3278.75 1.000 1.000 1.000
v -533.75 107.25 -3278.75 1.000 1.000 1.000
v 381.25 335.25 -3278.75 1.000 1.000 1.000
v 534.25 335.25 -3278.75 1.000 1.000 1.000
v 457.25 717.25 -3278.75 1.000 1.000 1.000
v 341.25 717.25 -3278.75 1.000 1.000 1.000
v -188.75 717.25 -3278.75 1.000 1.000 1.000
v -304.75 717.25 -3278.75 1.000 1.000 1.000
v -380.75 335.25 -3278.75 1.000 1.000 1.000
v -228.75 335.25 -3278.75 1.000 1.000 1.000
v -266.75 221.25 -2363.75 1.000 1.000 1.000
v -266.75 297.25 -2363.75 1.000 1.000 1.000
v -342.75 297.25 -2363.75 1.000 1.000 1.000
v -342.75 221.25 -2363.75 1.000 1.000 1.000
v 495.25 297.25 -2363.75 1.000 1.000 1.000
v 419.25 297.25 -2363.75 1.000 1.000 1.000
v 419.25 221.25 -2363.75 1.000 1.000 1.000
v 495.25 221.25 -2363.75 1.000 1.000 1.000
v -227.75 335.25 -1753.75 1.000 1.000 1.000
v -75.75 412.25 -1295.75 1.000 1.000 1.000
v -75.75 640.25 -1295.75 1.000 1.000 1.000
v 0.25 714.25 -6633.75 1.000 1.000 1.000
v 0.25 714.25 -7090.75 1.000 1.000 1.000
v 0.25 564.25 -7090.75 1.000 1.000 1.000
v 0.25 412.25 -6633.75 1.000 1.000 1.000
v 0.25 864.25 -5108.75 1.000 1.000 1.000
v 0.25 714.25 -6633.75 1.000 1.000 1.000
v 0.25 412.25 -6633.75 1.000 1.000 1.000
v -152.75 412.25 -5108.75 1.000 1.000 1.000
v 0.25 864.25 -5108.75 1.000 1.000 1.000
v -175.75 640.25 -4498.75 1.000 1.000 1.000
v -109.75 1240.25 -3888.75 1.000 1.000 1.000
v 0.25 864.25 -5108.75 1.000 1.000 1.000
v -152.75 412.25 -5108.75 1.000 1.000 1.000
v -175.75 640.25 -4498.75 1.000 1.000 1.000
v -109.75 1240.25 -3278.75 1.000 1.000 1.000
v -188.75 717.25 -3049.75 1.000 1.000 1.000
v -75.75 1165.25 -3049.75 1.000 1.000 1.000
v -188.75 717.25 -3049.75 1.000 1.000 1.000
v -228.75 335.25 -3278.75 1.000 1.000 1.000
v -227.75 335.25 -1753.75 1.000 1.000 1.000
v -188.75 717.25 -2058.75 1.000 1.000 1.000
v -188.75 717.25 -2058.75 1.000 1.000 1.000
v -227.75 335.25 -1753.75 1.000 1.000 1.000
v -188.75 640.25 -1753.75 1.000 1.000 1.000
v -227.75 335.25 -1753.75 1.000 1.000 1.000
v -75.75 640.25 -1295.75 1.000 1.000 1.000
v -188.75 640.25 -1753.75 1.000 1.000 1.000
v -75.75 789.25 -1600.75 1.000 1.000 1.000
v -75.75 640.25 -1295.75 1.000 1.000 1.000
v -75.75 412.25 -1295.75 1.000 1.000 1.000
v 0.25 564.25 -1143.75 1.000 1.000 1.000
v 0.25 564.25 -7090.75 1.000 1.000 1.000
v 0.25 714.25 -7090.75 1.000 1.000 1.000
v 152.25 564.25 -7090.75 1.000 1.000 1.000
v 152.25 714.25 -7090.75 1.000 1.000 1.000
v 76.25 869.25 -7243.75 1.000 1.000 1.000
v 76.25 1479.25 -7090.75 1.000 1.000 1.000
v 0.25 869.25 -6785.75 1.000 1.000 1.000
v 76.25 869.25 -6557.75 1.000 1.000 1.000
v 76.25 1479.25 -7548.75 1.000 1.000 1.000
v 76.25 869.25 -7243.75 1.000 1.000 1.000
v 0.25 869.25 -6785.75 1.000 1.000 1.000
v 76.25 1479.25 -7548.75 1.000 1.000 1.000
v 76.25 869.25 -7243.75 1.000 1.000 1.000
v 0.25 714.25 -7090.75 1.000 1.000 1.000
v 0.25 869.25 -6785.75 1.000 1.000 1.000
v 0.25 714.25 -7090.75 1.000 1.000 1.000
v 0.25 714.25 -6633.75 1.000 1.000 1.000
v 0.25 869.25 -6785.75 1.000 1.000 1.000
v 76.25 869.25 -6557.75 1.000 1.000 1.000
v 76.25 793.25 -6328.75 1.000 1.000 1.000
v 76.25 869.25 -6557.75 1.000 1.000 1.000
v 0.25 714.25 -6633.75 1.000 1.000 1.000
v 0.25 864.25 -5108.75 1.000 1.000 1.000
v 76.25 793.25 -6328.75 1.000 1.000 1.000
v 0.25 714.25 -6633.75 1.000 1.000 1.000
v 0.25 864.25 -5108.75 1.000 1.000 1.000
v 152.25 864.25 -5108.75 1.000 1.000 1.000
v 76.25 793.25 -6328.75 1.000 1.000 1.000
v 381.25 335.25 -4498.75 1.000 1.000 1.000
v -228.75 335.25 -4498.75 1.000 1.000 1.000
v -152.75 412.25 -5108.75 1.000 1.000 1.000
v 305.25 412.25 -5108.75 1.000 1.000 1.000
v 380.25 335.25 -1753.75 1.000 1.000 1.000
v -227.75 335.25 -1753.75 1.000 1.000 1.000
v 229.25 412.25 -1295.75 1.000 1.000 1.000
v -75.75 412.25 -1295.75 1.000 1.000 1.000
v 152.25 564.25 -1143.75 1.000 1.000 1.000
v 0.25 564.25 -1143.75 1.000 1.000 1.000
v -75.75 412.25 -1295.75 1.000 1.000 1.000
v 229.25 412.25 -1295.75 1.000 1.000 1.000
v 0.25 412.25 -6633.75 1.000 1.000 1.000
v 152.25 412.25 -6633.75 1.000 1.000 1.000
v 305.25 412.25 -5108.75 1.000 1.000 1.000
v -152.75 412.25 -5108.75 1.000 1.000 1.000
v 152.25 412.25 -6633.75 1.000 1.000 1.000
v 0.25 412.25 -6633.75 1.000 1.000 1.000
v 0.25 564.25 -7090.75 1.000 1.000 1.000
v 152.25 564.25 -7090.75 1.000 1.000 1.000
v -109.75 1240.25 -3888.75 1.000 1.000 1.000
v 262.25 1240.25 -3888.75 1.000 1.000 1.000
v 152.25 864.25 -5108.75 1.000 1.000 1.000
v 0.25 864.25 -5108.75 1.000 1.000 1.000
v -109.75 1240.25 -3278.75 1.000 1.000 1.000
v 262.25 1240.25 -3278.75 1.000 1.000 1.000
v 262.25 1240.25 -3888.75 1.000 1.000 1.000
v -109.75 1240.25 -3888.75 1.000 1.000 1.000
v -75.75 1165.25 -3049.75 1.000 1.000 1.000
v 229.25 1165.25 -3049.75 1.000 1.000 1.000
v 262.25 1240.25 -3278.75 1.000 1.000 1.000
v -109.75 1240.25 -3278.75 1.000 1.000 1.000
v -75.75 640.25 -1295.75 1.000 1.000 1.000
v 229.25 640.25 -1295.75 1.000 1.000 1.000
v 229.25 789.25 -1600.75 1.000 1.000 1.000
v -75.75 789.25 -1600.75 1.000 1.000 1.000
v 0.25 564.25 -1143.75 1.000 1.000 1.000
v 152.25 564.25 -1143.75 1.000 1.000 1.000
v 229.25 640.25 -1295.75 1.000 1.000 1.000
v -75.75 640.25 -1295.75 1.000 1.000 1.000
v -152.75 412.25 -5108.75 1.000 1.000 1.000
v -228.75 335.25 -4498.75 1.000 1.000 1.000
v -175.75 640.25 -4498.75 1.000 1.000 1.000
v -175.75 640.25 -4498.75 1.000 1.000 1.000
v -177.75 793.25 -3888.75 1.000 1.000 1.000
v -109.75 1240.25 -3888.75 1.000 1.000 1.000
v -109.75 1240.25 -3888.75 1.000 1.000 1.000
v -177.75 793.25 -3888.75 1.000 1.000 1.000
v -177.75 793.25 -3430.75 1.000 1.000 1.000
v -109.75 1240.25 -3278.75 1.000 1.000 1.000
v -188.75 717.25 -3278.75 1.000 1.000 1.000
v -188.75 717.25 -3049.75 1.000 1.000 1.000
v -109.75 1240.25 -3278.75 1.000 1.000 1.000
v -188.75 717.25 -3278.75 1.000 1.000 1.000
v -228.75 335.25 -3278.75 1.000 1.000 1.000
v 229.25 640.25 -1295.75 1.000 1.000 1.000
v 341.25 640.25 -1753.75 1.000 1.000 1.000
v 229.25 789.25 -1600.75 1.000 1.000 1.000
v 152.25 564.25 -1143.75 1.000 1.000 1.000
v 229.25 412.25 -1295.75 1.000 1.000 1.000
v 229.25 640.25 -1295.75 1.000 1.000 1.000
v 229.25 640.25 -1295.75 1.000 1.000 1.000
v 229.25 412.25 -1295.75 1.000 1.000 1.000
v 380.25 335.25 -1753.75 1.000 1.000 1.000
v 341.25 640.25 -1753.75 1.000 1.000 1.000
v 229.25 640.25 -1295.75 1.000 1.000 1.000
v 380.25 335.25 -1753.75 1.000 1.000 1.000
v 341.25 640.25 -1753.75 1.000 1.000 1.000
v 380.25 335.25 -1753.75 1.000 1.000 1.000
v 341.25 717.25 -2058.75 1.000 1.000 1.000
v 341.25 717.25 -2058.75 1.000 1.000 1.000
v 380.25 335.25 -1753.75 1.000 1.000 1.000
v 341.25 717.25 -3049.75 1.000 1.000 1.000
v 381.25 335.25 -3278.75 1.000 1.000 1.000
v 381.25 335.25 -3278.75 1.000 1.000 1.000
v 341.25 717.25 -3278.75 1.000 1.000 1.000
v 341.25 717.25 -3049.75 1.000 1.000 1.000
v 229.25 1165.25 -3049.75 1.000 1.000 1.000
v 262.25 1240.25 -3278.75 1.000 1.000 1.000
v 330.25 793.25 -3430.75 1.000 1.000 1.000
v 262.25 1240.25 -3278.75 1.000 1.000 1.000
v 341.25 717.25 -3278.75 1.000 1.000 1.000
v 330.25 793.25 -3888.75 1.000 1.000 1.000
v 262.25 1240.25 -3888.75 1.000 1.000 1.000
v 262.25 1240.25 -3888.75 1.000 1.000 1.000
v 330.25 793.25 -3888.75 1.000 1.000 1.000
v 328.25 640.25 -4498.75 1.000 1.000 1.000
v 152.25 864.25 -5108.75 1.000 1.000 1.000
v 328.25 640.25 -4498.75 1.000 1.000 1.000
v 381.25 335.25 -4498.75 1.000 1.000 1.000
v 305.25 412.25 -5108.75 1.000 1.000 1.000
v 152.25 864.25 -5108.75 1.000 1.000 1.000
v 152.25 864.25 -5108.75 1.000 1.000 1.000
v 305.25 412.25 -5108.75 1.000 1.000 1.000
v 152.25 412.25 -6633.75 1.000 1.000 1.000
v 152.25 714.25 -6633.75 1.000 1.000 1.000
v 76.25 793.25 -6328.75 1.000 1.000 1.000
v 152.25 714.25 -6633.75 1.000 1.000 1.000
v 76.25 869.25 -6557.75 1.000 1.000 1.000
v 76.25 793.25 -6328.75 1.000 1.000 1.000
v 152.25 714.25 -6633.75 1.000 1.000 1.000
v 152.25 869.25 -6785.75 1.000 1.000 1.000
v 76.25 869.25 -6557.75 1.000 1.000 1.000
v 76.25 869.25 -6557.75 1.000 1.000 1.000
v 152.25 869.25 -6785.75 1.000 1.000 1.000
v 76.25 1479.25 -7090.75 1.000 1.000 1.000
v 76.25 1479.25 -7548.75 1.000 1.000 1.000
v 152.25 714.25 -6633.75 1.000 1.000 1.000
v 152.25 412.25 -6633.75 1.000 1.000 1.000
v 152.25 564.25 -7090.75 1.000 1.000 1.000
v 152.25 869.25 -6785.75 1.000 1.000 1.000
v 152.25 714.25 -7090.75 1.000 1.000 1.000
v 152.25 869.25 -6785.75 1.000 1.000 1.000
v 152.25 714.25 -7090.75 1.000 1.000 1.000
v 76.25 869.25 -7243.75 1.000 1.000 1.000
v 76.25 869.25 -7243.75 1.000 1.000 1.000
v 442.25 640.25 -4345.75 1.000 1.000 1.000
v 328.25 640.25 -4498.75 1.000 1.000 1.000
v 473.25 793.25 -3888.75 1.000 1.000 1.000
v 473.25 793.25 -3888.75 1.000 1.000 1.000
v 328.25 640.25 -4498.75 1.000 1.000 1.000
v 330.25 793.25 -3888.75 1.000 1.000 1.000
v 551.25 410.25 -3659.75 1.000 1.000 1.000
v 1144.25 183.25 -3888.75 1.000 1.000 1.000
v 564.25 335.25 -3888.75 1.000 1.000 1.000
v 1144.25 183.25 -3583.75 1.000 1.000 1.000
v 564.25 335.25 -3430.75 1.000 1.000 1.000
v 564.25 335.25 -3430.75 1.000 1.000 1.000
v 564.25 335.25 -3888.75 1.000 1.000 1.000
v 473.25 793.25 -3888.75 1.000 1.000 1.000
v 473.25 793.25 -3430.75 1.000 1.000 1.000
v 503.25 335.25 -4345.75 1.000 1.000 1.000
v 442.25 640.25 -4345.75 1.000 1.000 1.000
v 457.25 717.25 -3278.75 1.000 1.000 1.000
v 534.25 335.25 -3278.75 1.000 1.000 1.000
v 442.25 640.25 -4345.75 1.000 1.000 1.000
v 503.25 335.25 -4345.75 1.000 1.000 1.000
v 381.25 335.25 -4498.75 1.000 1.000 1.000
v 328.25 640.25 -4498.75 1.000 1.000 1.000
v 564.25 335.25 -3888.75 1.000 1.000 1.000
v 381.25 335.25 -3888.75 1.000 1.000 1.000
v 381.25 335.25 -4498.75 1.000 1.000 1.000
v 503.25 335.25 -4345.75 1.000 1.000 1.000
v 564.25 335.25 -3430.75 1.000 1.000 1.000
v 381.25 335.25 -3430.75 1.000 1.000 1.000
v 534.25 335.25 -3278.75 1.000 1.000 1.000
v 381.25 335.25 -3278.75 1.000 1.000 1.000
v 1144.25 183.25 -3888.75 1.000 1.000 1.000
v 1144.25 183.25 -3583.75 1.000 1.000 1.000
v 564.25 335.25 -3430.75 1.000 1.000 1.000
v 564.25 335.25 -3888.75 1.000 1.000 1.000
v 473.25 793.25 -3430.75 1.000 1.000 1.000
v 473.25 793.25 -3888.75 1.000 1.000 1.000
v 330.25 793.25 -3888.75 1.000 1.000 1.000
v 330.25 793.25 -3430.75 1.000 1.000 1.000
v 341.25 717.25 -3278.75 1.000 1.000 1.000
v 457.25 717.25 -3278.75 1.000 1.000 1.000
v -319.75 793.25 -3888.75 1.000 1.000 1.000
v -175.75 640.25 -4498.75 1.000 1.000 1.000
v -289.75 640.25 -4345.75 1.000 1.000 1.000
v -177.75 793.25 -3888.75 1.000 1.000 1.000
v -411.75 335.25 -3888.75 1.000 1.000 1.000
v -990.75 183.25 -3888.75 1.000 1.000 1.000
v -398.75 410.25 -3659.75 1.000 1.000 1.000
v -990.75 183.25 -3583.75 1.000 1.000 1.000
v -411.75 335.25 -3430.75 1.000 1.000 1.000
v -319.75 793.25 -3430.75 1.000 1.000 1.000
v -319.75 793.25 -3888.75 1.000 1.000 1.000
v -411.75 335.25 -3888.75 1.000 1.000 1.000
v -411.75 335.25 -3430.75 1.000 1.000 1.000
v -289.75 640.25 -4345.75 1.000 1.000 1.000
v -350.75 335.25 -4345.75 1.000 1.000 1.000
v -380.75 335.25 -3278.75 1.000 1.000 1.000
v -304.75 717.25 -3278.75 1.000 1.000 1.000
v -175.75 640.25 -4498.75 1.000 1.000 1.000
v -228.75 335.25 -4498.75 1.000 1.000 1.000
v -350.75 335.25 -4345.75 1.000 1.000 1.000
v -289.75 640.25 -4345.75 1.000 1.000 1.000
v -350.75 335.25 -4345.75 1.000 1.000 1.000
v -228.75 335.25 -4498.75 1.000 1.000 1.000
v -228.75 335.25 -3888.75 1.000 1.000 1.000
v -411.75 335.25 -3888.75 1.000 1.000 1.000
v -228.75 335.25 -3888.75 1.000 1.000 1.000
v -228.75 335.25 -3430.75 1.000 1.000 1.000
v -411.75 335.25 -3430.75 1.000 1.000 1.000
v -411.75 335.25 -3888.75 1.000 1.000 1.000
v -228.75 335.25 -3278.75 1.000 1.000 1.000
v -380.75 335.25 -3278.75 1.000 1.000 1.000
v -411.75 335.25 -3888.75 1.000 1.000 1.000
v -411.75 335.25 -3430.75 1.000 1.000 1.000
v -990.75 183.25 -3583.75 1.000 1.000 1.000
v -990.75 183.25 -3888.75 1.000 1.000 1.000
v -177.75 793.25 -3430.75 1.000 1.000 1.000
v -177.75 793.25 -3888.75 1.000 1.000 1.000
v -319.75 793.25 -3888.75 1.000 1.000 1.000
v -319.75 793.25 -3430.75 1.000 1.000 1.000
v -304.75 717.25 -3278.75 1.000 1.000 1.000
v -188.75 717.25 -3278.75 1.000 1.000 1.000
v 152.25 564.25 -6633.75 1.000 1.000 1.000
v 991.25 564.25 -6785.75 1.000 1.000 1.000
v 152.25 640.25 -6862.75 1.000 1.000 1.000
v 991.25 564.25 -7014.75 1.000 1.000 1.000
v 152.25 564.25 -7090.75 1.000 1.000 1.000
v 0.25 640.25 -6862.75 1.000 1.000 1.000
v -838.75 564.25 -6785.75 1.000 1.000 1.000
v 0.25 564.25 -6633.75 1.000 1.000 1.000
v 0.25 564.25 -7090.75 1.000 1.000 1.000
v -838.75 564.25 -7014.75 1.000 1.000 1.000
v 0.25 714.25 -7090.75 1.000 1.000 1.000
v 0.25 714.25 -6633.75 1.000 1.000 1.000
v 152.25 714.25 -7090.75 1.000 1.000 1.000
v 152.25 714.25 -6633.75 1.000 1.000 1.000
v 0.25 864.25 -5108.75 1.000 1.000 1.000
v 152.25 864.25 -5108.75 1.000 1.000 1.000
v 686.25 107.25 -3888.75 1.000 1.000 1.000
v 839.25 107.25 -3888.75 1.000 1.000 1.000
v 839.25 107.25 -3278.75 1.000 1.000 1.000
v 686.25 107.25 -3278.75 1.000 1.000 1.000
v -991.75 183.25 -3524.75 1.000 1.000 1.000
v -991.75 244.25 -3524.75 1.000 1.000 1.000
v -991.75 183.25 -3414.75 1.000 1.000 1.000
v -991.75 183.25 -4158.75 1.000 1.000 1.000
v -991.75 289.25 -4158.75 1.000 1.000 1.000
v -991.75 183.25 -3914.75 1.000 1.000 1.000
v -1028.75 145.25 -3524.75 1.000 1.000 1.000
v -1089.75 145.25 -3524.75 1.000 1.000 1.000
v -1028.75 145.25 -3414.75 1.000 1.000 1.000
v -1028.75 145.25 -4158.75 1.000 1.000 1.000
v -1135.75 145.25 -4158.75 1.000 1.000 1.000
v -1028.75 145.25 -3914.75 1.000 1.000 1.000
v -991.75 107.25 -4158.75 1.000 1.000 1.000
v -991.75 1.25 -4158.75 1.000 1.000 1.000
v -991.75 107.25 -3914.75 1.000 1.000 1.000
v -991.75 107.25 -3524.75 1.000 1.000 1.000
v -991.75 46.25 -3524.75 1.000 1.000 1.000
v -991.75 107.25 -3414.75 1.000 1.000 1.000
v -953.75 145.25 -4158.75 1.000 1.000 1.000
v -846.75 145.25 -4158.75 1.000 1.000 1.000
v -953.75 145.25 -3914.75 1.000 1.000 1.000
v -953.75 145.25 -3524.75 1.000 1.000 1.000
v -892.75 145.25 -3524.75 1.000 1.000 1.000
v -953.75 145.25 -3414.75 1.000 1.000 1.000
v 1143.25 183.25 -3524.75 1.000 1.000 1.000
v 1143.25 244.25 -3524.75 1.000 1.000 1.000
v 1143.25 183.25 -3414.75 1.000 1.000 1.000
v 1143.25 183.25 -4158.75 1.000 1.000 1.000
v 1143.25 289.25 -4158.75 1.000 1.000 1.000
v 1143.25 183.25 -3914.75 1.000 1.000 1.000
v 1106.25 145.25 -3524.75 1.000 1.000 1.000
v 1045.25 145.25 -3524.75 1.000 1.000 1.000
v 1106.25 145.25 -3414.75 1.000 1.000 1.000
v 1106.25 145.25 -4158.75 1.000 1.000 1.000
v 999.25 145.25 -4158.75 1.000 1.000 1.000
v 1106.25 145.25 -3914.75 1.000 1.000 1.000
v 1143.25 107.25 -4158.75 1.000 1.000 1.000
v 1143.25 1.25 -4158.75 1.000 1.000 1.000
v 1143.25 107.25 -3914.75 1.000 1.000 1.000
v 1143.25 107.25 -3524.75 1.000 1.000 1.000
v 1143.25 46.25 -3524.75 1.000 1.000 1.000
v 1143.25 107.25 -3414.75 1.000 1.000 1.000
v 1181.25 145.25 -4158.75 1.000 1.000 1.000
v 1288.25 145.25 -4158.75 1.000 1.000 1.000
v 1181.25 145.25 -3914.75 1.000 1.000 1.000
v 1181.25 145.25 -3524.75 1.000 1.000 1.000
v 1242.25 145.25 -3524.75 1.000 1.000 1.000
v 1181.25 145.25 -3414.75 1.000 1.000 1.000
v -685.75 107.25 -3888.75 1.000 1.000 1.000
v -533.75 107.25 -3888.75 1.000 1.000 1.000
v -533.75 107.25 -3278.75 1.000 1.000 1.000
v -685.75 107.25 -3278.75 1.000 1.000 1.000
v -207.75 534.25 -3147.75 1.000 1.000 1.000
v -210.75 503.25 -3086.75 1.000 1.000 1.000
v -204.75 564.25 -3087.75 1.000 1.000 1.000
v -198.75 622.25 -2646.75 1.000 1.000 1.000
v -198.75 622.25 -2585.75 1.000 1.000 1.000
v -191.75 684.25 -2616.75 1.000 1.000 1.000
v 344.25 684.25 -2616.75 1.000 1.000 1.000
v 351.25 622.25 -2585.75 1.000 1.000 1.000
v 351.25 622.25 -2646.75 1.000 1.000 1.000
v 357.25 563.25 -3087.75 1.000 1.000 1.000
v 363.25 502.25 -3087.75 1.000 1.000 1.000
v 360.25 533.25 -3148.75 1.000 1.000 1.000
v 505.25 516.25 -3314.75 1.000 1.000 1.000
v 534.25 456.25 -3401.75 1.000 1.000 1.000
v 512.25 575.25 -3407.75 1.000 1.000 1.000
v -358.75 576.25 -3407.75 1.000 1.000 1.000
v -381.75 456.25 -3401.75 1.000 1.000 1.000
v -352.75 515.25 -3315.75 1.000 1.000 1.000
v -215.75 456.25 -2669.75 1.000 1.000 1.000
v -215.75 458.25 -2973.75 1.000 1.000 1.000
v -225.75 366.25 -2973.75 1.000 1.000 1.000
v -224.75 367.25 -2667.75 1.000 1.000 1.000
v 377.25 366.25 -2363.75 1.000 1.000 1.000
v 377.25 366.25 -2668.75 1.000 1.000 1.000
v 368.25 457.25 -2668.75 1.000 1.000 1.000
v 368.25 457.25 -2363.75 1.000 1.000 1.000
v -215.75 456.25 -2364.75 1.000 1.000 1.000
v -215.75 456.25 -2669.75 1.000 1.000 1.000
v -224.75 367.25 -2667.75 1.000 1.000 1.000
v -224.75 367.25 -2362.75 1.000 1.000 1.000
v 377.25 366.25 -2668.75 1.000 1.000 1.000
v 377.25 366.25 -2973.75 1.000 1.000 1.000
v 368.25 457.25 -2973.75 1.000 1.000 1.000
v 368.25 457.25 -2668.75 1.000 1.000 1.000
v -132.75 1089.25 -3888.75 1.000 1.000 1.000
v -155.75 938.25 -3888.75 1.000 1.000 1.000
v -155.75 938.25 -3387.75 1.000 1.000 1.000
v -132.75 1089.25 -3387.75 1.000 1.000 1.000
v 285.25 1089.25 -3387.75 1.000 1.000 1.000
v 308.25 938.25 -3387.75 1.000 1.000 1.000
v 308.25 938.25 -3888.75 1.000 1.000 1.000
v 285.25 1089.25 -3888.75 1.000 1.000 1.000
v 137.25 122.25 -6605.75 1.000 1.000 1.000
v 137.25 274.25 -6605.75 1.000 1.000 1.000
v 137.25 274.25 -6758.75 1.000 1.000 1.000
v 137.25 122.25 -6758.75 1.000 1.000 1.000
v 183.25 122.25 -6758.75 1.000 1.000 1.000
v 183.25 274.25 -6758.75 1.000 1.000 1.000
v 183.25 274.25 -6605.75 1.000 1.000 1.000
v 183.25 122.25 -6605.75 1.000 1.000 1.000
v 412.25 -246.75 -3631.75 1.000 1.000 1.000
v 412.25 58.25 -3631.75 1.000 1.000 1.000
v 412.25 58.25 -3936.75 1.000 1.000 1.000
v 412.25 -246.75 -3936.75 1.000 1.000 1.000
v 503.25 -246.75 -3936.75 1.000 1.000 1.000
v 503.25 58.25 -3936.75 1.000 1.000 1.000
v 503.25 58.25 -3631.75 1.000 1.000 1.000
v 503.25 -246.75 -3631.75 1.000 1.000 1.000
v -259.75 -246.75 -3936.75 1.000 1.000 1.000
v -259.75 58.25 -3936.75 1.000 1.000 1.000
v -259.75 58.25 -3631.75 1.000 1.000 1.000
v -259.75 -246.75 -3631.75 1.000 1.000 1.000
v -350.75 -246.75 -3631.75 1.000 1.000 1.000
v -350.75 58.25 -3631.75 1.000 1.000 1.000
v -350.75 58.25 -3936.75 1.000 1.000 1.000
v -350.75 -246.75 -3936.75 1.000 1.000 1.000
v -158.0 -6.0 153.0 1.000 1.000 1.000
v 147.0 -6.0 153.0 1.000 1.000 1.000
v -6.0 70.0 0.0 1.000 1.000 1.000
v -158.0 -6.0 -152.0 1.000 1.000 1.000
v 147.0 -6.0 -152.0 1.000 1.000 1.000
v 1670.0 0.0 -2353.0 1.000 1.000 1.000
v -2.0 0.0 -2753.0 1.000 1.000 1.000
v -34.0 0.0 -6.0 1.000 1.000 1.000
v 21.0 0.0 6.0 1.000 1.000 1.000
v -1403.0 0.0 2348.0 1.000 1.000 1.000
v -24.0 0.0 2750.0 1.000 1.000 1.000
v 21.0 0.0 6.0 1.000 1.000 1.000
v -34.0 0.0 -6.0 1.000 1.000 1.000
v -2359.0 0.0 -1676.0 1.000 1.000 1.000
v -2759.0 0.0 -4.0 1.000 1.000 1.000
v -12.0 0.0 28.0 1.000 1.000 1.000
v 0.0 0.0 -27.0 1.000 1.000 1.000
v 2343.0 0.0 1397.0 1.000 1.000 1.000
v 2744.0 0.0 19.0 1.000 1.000 1.000
v 0.0 0.0 -27.0 1.000 1.000 1.000
v -12.0 0.0 28.0 1.000 1.000 1.000
v 0.0 0.0 65.0 1.000 1.000 1.000
v 0.0 -65.0 0.0 1.000 1.000 1.000
v 23.0 0.0 0.0 1.000 1.000 1.000
v 0.0 65.0 0.0 1.000 1.000 1.000
v 0.0 0.0 -65.0 1.000 1.000 1.000
v 0.0 334.0 -276.0 1.000 1.000 1.000
v 0.0 107.0 -399.0 1.000 1.000 1.000
v 0.0 -4.0 -2.0 1.000 1.000 1.000
v 0.0 4.0 2.0 1.000 1.000 1.000
v 0.0 -294.0 286.0 1.000 1.000 1.000
v 0.0 -109.0 398.0 1.000 1.000 1.000
v 0.0 4.0 2.0 1.000 1.000 1.000
v 0.0 -4.0 -2.0 1.000 1.000 1.000
v 0.0 -276.0 -334.0 1.000 1.000 1.000
v 0.0 -399.0 -107.0 1.000 1.000 1.000
v 0.0 -2.0 4.0 1.000 1.000 1.000
v 0.0 2.0 -4.0 1.000 1.000 1.000
v 0.0 286.0 294.0 1.000 1.000 1.000
v 0.0 398.0 109.0 1.000 1.000 1.000
v 0.0 2.0 -4.0 1.000 1.000 1.000
v 0.0 -2.0 4.0 1.000 1.000 1.000
vt 4.2305 0.5771
vt 3.8076 0.5771
vt 3.8076 1.0000
vt 4.2305 1.0000
vt 0.0000 0.0000
vt -4.0000 0.5000
vt -4.0000 1.0000
vt 0.0000 1.0000
vt -3.6597 0.0410
vt -3.6597 0.5068
vt 0.0693 0.9727
vt 0.0693 0.0410
vt 1.0000 0.0000
vt 1.0000 1.0000
vt 1.0000 2.0000
vt 0.0000 2.0000
vt 5.0000 1.5000
vt 5.0000 1.0000
vt -4.0000 0.0000
vt 1.0015 0.9727
vt 1.0015 0.0410
vt 2.0000 0.7500
vt 2.0000 0.2500
vt -1.0000 1.2500
vt -1.0000 1.7500
vt 1.9336 0.7402
vt 1.9336 0.2734
vt 0.4229 1.0000
vt 0.4229 0.5771
vt 0.0000 0.5771
vt -4.0483 0.4199
vt -4.0068 0.9170
vt 0.0068 1.0830
vt -0.0757 0.0898
vt 0.9175 0.0068
vt 1.9312 0.1729
vt 1.9727 0.6689
vt 0.6665 -3.0723
vt 0.6665 -2.3086
vt 0.3335 1.0000
vt 0.3330 0.4541
vt 0.0000 0.4541
vt 0.0000 -2.3086
vt -0.0005 -3.0723
vt -0.5356 1.1416
vt -0.5371 1.0518
vt -0.7607 1.0557
vt -0.7593 1.1455
vt 14.2554 -27.1377
vt 15.2554 -27.1377
vt 15.2554 -28.1377
vt 14.2554 -28.1377
vt -8.0293 1.1465
vt -7.0293 1.1465
vt -7.0293 0.1465
vt -8.0293 0.1465
vt 1.1665 -3.0811
vt 1.1665 -2.3193
vt 0.3335 0.4561
vt 0.0000 0.4561
vt 0.5000 -2.3193
vt 0.5000 -3.0811
vt 8.0278 1.8135
vt 8.0249 1.6348
vt 7.5771 1.6416
vt 7.5801 1.8213
vt 0.0000 0.5205
vt -0.7344 -1.9248
vt -0.7344 -2.5957
vt -0.1470 -2.5957
vt -0.1470 -1.9248
vt 0.2935 1.0000
vt 0.2935 0.5205
vt 7.5493 -0.1494
vt 7.5522 0.0303
vt 8.0000 0.0234
vt 7.9971 -0.1562
vt 0.2187 0.0959
vt 0.2666 0.0608
vt 0.6934 0.0422
vt 0.7447 0.0698
vt 0.4168 0.0521
vt 0.6386 0.0802
vt 0.3330 0.0984
vt 0.6939 0.1003
vt 0.0249 0.3575
vt 0.0247 0.3455
vt 0.0202 0.4088
vt 0.0125 0.4366
vt 0.9577 0.2988
vt 0.9836 0.3771
vt 0.9730 0.3450
vt 0.9516 0.3138
vt -1.0129 0.3271
vt -1.0210 0.6689
vt -1.6711 0.3271
vt -1.0046 -0.0146
vt 0.0012 0.0000
vt -0.6550 0.5000
vt 0.0007 0.5000
vt 2.3042 -0.0146
vt 2.2959 0.3271
vt 2.2878 0.6689
vt 3.2959 1.0000
vt 3.2966 0.5000
vt 3.2971 0.0000
vt 5.0103 -4.0103
vt 0.0000 -4.0103
vt 5.0103 1.0000
vt 0.8384 0.0000
vt 0.8384 1.0000
vt 0.9980 1.8350
vt 1.0020 1.0000
vt -0.0029 1.6348
vt 0.0889 0.6401
vt -0.0073 1.5913
vt 0.4263 1.7056
vt 5.0786 0.2725
vt 5.8237 0.2725
vt 5.8237 0.0278
vt 5.0786 -0.2207
vt 3.5063 0.3887
vt 5.2188 0.1440
vt 5.2188 -0.3486
vt 3.5063 -0.3486
vt 1.4214 0.2744
vt 0.5337 0.6577
vt 0.5322 1.9082
vt 1.5220 1.6377
vt 1.5083 0.8857
vt 0.5332 1.2412
vt -1.3140 -1.2935
vt -0.3530 0.9199
vt -0.3530 -1.0215
vt -0.3667 0.4180
vt -1.2388 -0.0898
vt -1.2007 3.3584
vt -0.3418 2.6592
vt -0.3198 0.4399
vt -1.3228 1.7441
vt -0.3203 1.4961
vt -1.0176 -0.1162
vt -1.4014 1.7500
vt -0.3628 0.5864
vt -0.3628 1.4072
vt 0.6616 1.4604
vt 0.6616 0.5405
vt -0.0239 1.1538
vt 0.8345 0.7549
vt 0.7041 0.7583
vt 0.8394 0.9409
vt 0.7090 0.9443
vt 0.4414 0.8584
vt -0.0684 0.0610
vt -0.0547 1.0859
vt 0.2256 1.2417
vt -0.6704 -0.2510
vt -0.6777 0.7739
vt -0.5923 0.5312
vt -0.2480 0.1631
vt -0.6250 -0.4834
vt 5.3271 0.5244
vt 4.9546 0.5244
vt 4.9663 0.2720
vt 5.3389 0.3960
vt 5.4634 0.1440
vt 4.8765 0.2720
vt 3.5078 0.6733
vt 3.5078 0.9204
vt 4.8721 0.7969
vt 3.9395 -0.0908
vt 3.9409 0.9985
vt 4.9199 0.8638
vt 4.9189 0.0439
vt -0.4678 -0.0908
vt -0.4663 0.9985
vt -1.2021 0.1807
vt -1.2012 0.7271
vt -0.0850 0.6953
vt -0.0850 1.2280
vt 0.6680 1.4941
vt 0.6680 0.4292
vt 7.8950 0.5903
vt 7.8945 0.3169
vt 5.4453 0.0439
vt 5.4468 0.8638
vt 7.3677 0.3169
vt 7.3682 0.5903
vt 8.1025 0.5903
vt 8.1025 0.3169
vt 0.0000 0.9492
vt 0.0000 1.0508
vt 0.3496 1.0210
vt 0.3496 0.9790
vt -0.4756 0.3970
vt -0.4756 1.0000
vt 0.5137 1.0000
vt 0.5137 0.3970
vt -0.3813 1.5381
vt -0.3813 0.6699
vt -1.0664 0.5752
vt -1.0664 1.6328
vt -1.3770 0.0000
vt -1.3770 1.0000
vt -0.3618 1.0000
vt -0.3623 0.0000
vt -1.9282 0.3071
vt -1.9282 0.8071
vt -1.3696 1.0571
vt -1.3696 0.0571
vt 0.5317 0.7480
vt 0.0635 1.4448
vt 1.4414 1.6636
vt 1.4409 0.8384
vt 0.7539 0.8374
vt 0.5259 1.6626
vt 0.5249 0.6968
vt -1.3140 0.9199
vt -1.3140 2.5142
vt 1.4429 0.9331
vt 1.7764 0.6831
vt 0.4429 1.0000
vt 0.4429 0.6875
vt 2.1055 0.2368
vt 1.9990 1.0000
vt 0.0000 -0.0176
vt 1.9990 -0.5264
vt 0.4458 1.0000
vt 1.4458 1.0000
vt 1.4458 0.0000
vt 0.4458 0.0000
vt 2.4458 0.9741
vt 2.4458 0.3076
vt 0.1123 0.1538
vt 0.1123 0.9873
vt 2.4590 0.1338
vt 2.4590 0.9717
vt 2.7368 0.9150
vt 2.7368 0.0806
vt -0.5532 0.5996
vt -0.5532 1.0000
vt 0.7822 1.0000
vt 0.4482 0.7329
vt -1.5547 0.5996
vt -1.5547 1.0000
vt -1.8887 0.6660
vt -1.8887 1.0000
vt -0.5571 1.0000
vt -0.5571 0.6875
vt -0.8906 0.7134
vt -0.8906 0.9668
vt 2.1226 2.1221
vt -0.0547 1.5610
vt 2.1772 1.5625
vt 2.2324 1.0000
vt 2.0283 1.5640
vt -0.0513 1.5625
vt 1.9771 2.1250
vt 2.0796 1.0000
vt -3.2002 -1.4004
vt -2.3999 -0.7998
vt -3.2002 -0.4004
vt -2.0000 5.0000
vt -1.6001 5.7998
vt -2.6001 5.7998
vt -0.6738 0.5303
vt 0.3262 0.5303
vt -0.2896 -0.3926
vt 0.9922 0.0312
vt 0.0000 0.0312
vt 0.9922 1.0000
vt 0.9673 0.9736
vt 0.9644 0.0225
vt 0.0166 0.0225
vt 0.0195 0.9736
vt 0.0762 0.0093
vt 0.9248 -0.0078
vt 0.8271 0.9897
vt 0.7422 0.9917
vn 0.577 0.577 0.577
vn 0.577 0.577 0.577
vn 0.577 0.577 0.577
vn 0.577 0.577 0.577
vn 0.577 0.577 0.577
vn 0.577 0.577 0.577
vn 0.577 0.577 0.577
vn 0.577 0.577 0.577
vn 0.577 0.577 0.577
vn 0.577 0.577 0.577
vn 0.577 0.577 0.577
vn 0.577 0.577 0.577
vn 0.577 0.577 0.577
vn 0.577 0.577 0.577
vn 0.577 0.577 0.577
vn 0.577 0.577 0.577
vn 0.577 0.577 0.577
vn 0.577 0.577 0.577
vn 0.577 0.577 0.577
vn 0.577 0.577 0.577
vn 0.577 0.577 0.577
vn 0.577 0.577 0.577
vn 0.577 0.577 0.577
vn 0.577 0.577 0.577
vn 0.577 0.577 0.577
vn 0.577 0.577 0.577
vn 0.577 0.577 0.577
vn 0.577 0.577 0.577
vn 0.577 0.577 0.577
vn 0.577 0.577 0.577
vn 0.577 0.577 0.577
vn 0.577 0.577 0.577
vn 0.577 0.577 0.577
vn 0.577 0.577 0.577
vn 0.577 0.577 0.577
vn 0.577 0.577 0.577
vn 0.577 0.577 0.577
vn 0.577 0.577 0.577
vn 0.577 0.577 0.577
vn 0.577 0.577 0.577
vn 0.577 0.577 0.577
vn 0.577 0.577 0.577
vn 0.577 0.577 0.577
vn 0.577 0.577 0.577
vn 0.577 0.577 0.577
vn 0.577 0.577 0.577
vn 0.577 0.577 0.577
vn 0.577 0.577 0.577
vn 0.577 0.577 0.577
vn 0.577 0.577 0.577
vn 0.577 0.577 0.577
vn 0.577 0.577 0.577
vn 0.577 0.577 0.577
vn 0.577 0.577 0.577
vn 0.577 0.577 0.577
vn 0.577 0.577 0.577
vn 0.577 0.577 0.577
vn 0.577 0.577 0.577
vn 0.577 0.577 0.577
vn 0.577 0.577 0.577
vn 0.577 0.577 0.577
vn 0.577 0.577 0.577
vn 0.577 0.577 0.577
vn 0.577 0.577 0.577
vn 0.577 0.577 0.577
vn 0.577 0.577 0.577
vn 0.577 0.577 0.577
vn 0.577 0.577 0.577
vn 0.577 0.577 0.577
vn 0.577 0.577 0.577
vn 0.577 0.577 0.577
vn 0.577 0.577 0.577
vn 0.577 0.577 0.577
vn 0.577 0.577 0.577
vn 0.577 0.577 0.577
vn 0.577 0.577 0.577
vn 0.577 0.577 0.577
vn 0.577 0.577 0.577
vn 0.577 0.577 0.577
vn 0.577 0.577 0.577
vn 0.577 0.577 0.577
vn 0.577 0.577 0.577
vn 0.577 0.577 0.577
vn 0.577 0.577 0.577
vn 0.577 0.577 0.577
vn 0.577 0.577 0.577
vn 0.577 0.577 0.577
vn 0.577 0.577 0.577
vn 0.577 0.577 0.577
vn 0.577 0.577 0.577
vn 0.577 0.577 0.577
vn 0.577 0.577 0.577
vn 0.577 0.577 0.577
vn 0.577 0.577 0.577
vn 0.577 0.577 0.577
vn 0.577 0.577 0.577
vn 0.577 0.577 0.577
vn 0.577 0.577 0.577
vn 0.577 0.577 0.577
vn 0.577 0.577 0.577
vn 0.577 0.577 0.577
vn 0.577 0.577 0.577
vn 0.577 0.577 0.577
vn 0.577 0.577 0.577
vn 0.000 0.000 -1.000
vn 0.000 0.000 -1.000
vn 0.000 0.000 -1.000
vn 0.000 0.000 -1.000
vn 0.000 0.000 -1.000
vn 0.000 0.000 -1.000
vn 0.000 0.000 -1.000
vn 0.000 0.000 -1.000
vn 0.577 0.577 0.577
vn 0.577 0.577 0.577
vn 0.577 0.577 0.577
vn 0.577 0.577 0.577
vn 0.577 0.577 0.577
vn 0.577 0.577 0.577
vn 0.577 0.577 0.577
vn 0.577 0.577 0.577
vn 0.577 0.577 0.577
vn 0.577 0.577 0.577
vn 0.577 0.577 0.577
vn 0.577 0.577 0.577
vn 0.577 0.577 0.577
vn 0.577 0.577 0.577
vn 0.577 0.577 0.577
vn 0.577 0.577 0.577
vn 0.577 0.577 0.577
vn 0.577 0.577 0.577
vn 0.577 0.577 0.577
vn 0.577 0.577 0.577
vn 0.577 0.577 0.577
vn 0.577 0.577 0.577
vn 0.577 0.577 0.577
vn 0.577 0.577 0.577
vn -0.563 0.808 0.174
vn -0.467 0.878 0.103
vn 0.387 0.916 0.110
vn 0.489 0.860 0.142
vn -0.166 0.896 0.412
vn 0.277 0.840 0.467
vn -0.334 0.803 0.493
vn 0.388 0.799 0.459
vn -0.950 0.285 0.127
vn -0.951 0.309 0.032
vn -0.960 0.182 0.214
vn -0.975 0.127 0.182
vn 0.915 0.402 0.008
vn 0.967 0.246 0.063
vn 0.946 0.310 0.095
vn 0.903 0.372 0.214
vn -0.577 -0.577 -0.577
vn -0.577 -0.577 -0.577
vn -0.577 -0.577 -0.577
vn -0.577 -0.577 -0.577
vn -0.577 -0.577 -0.577
vn -0.577 -0.577 -0.577
vn -0.577 -0.577 -0.577
vn -0.577 -0.577 -0.577
vn -0.577 -0.577 -0.577
vn -0.577 -0.577 -0.577
vn -0.577 -0.577 -0.577
vn -0.577 -0.577 -0.577
vn -0.577 -0.577 -0.577
vn -0.577 -0.577 -0.577
vn -0.577 -0.577 -0.577
vn -0.577 -0.577 -0.577
vn -0.577 -0.577 -0.577
vn -0.577 -0.577 -0.577
vn -0.577 -0.577 -0.577
vn -0.577 -0.577 -0.577
vn -0.577 -0.577 -0.577
vn -0.577 -0.577 -0.577
vn -0.577 -0.577 -0.577
vn -0.577 -0.577 -0.577
vn -0.577 -0.577 -0.577
vn -0.577 -0.577 -0.577
vn -0.577 -0.577 -0.577
vn -0.577 -0.577 -0.577
vn -0.577 -0.577 -0.577
vn -0.577 -0.577 -0.577
vn -0.577 -0.577 -0.577
vn -0.577 -0.577 -0.577
vn -0.577 -0.577 -0.577
vn -0.577 -0.577 -0.577
vn -0.577 -0.577 -0.577
vn -0.577 -0.577 -0.577
vn -0.577 -0.577 -0.577
vn -0.577 -0.577 -0.577
vn -0.577 -0.577 -0.577
vn -0.577 -0.577 -0.577
vn -0.577 -0.577 -0.577
vn -0.577 -0.577 -0.577
vn -0.577 -0.577 -0.577
vn -0.577 -0.577 -0.577
vn -0.577 -0.577 -0.577
vn -0.577 -0.577 -0.577
vn -0.577 -0.577 -0.577
vn -0.577 -0.577 -0.577
vn -0.577 -0.577 -0.577
vn -0.577 -0.577 -0.577
vn -0.577 -0.577 -0.577
vn -0.577 -0.577 -0.577
vn -0.577 -0.577 -0.577
vn -0.577 -0.577 -0.577
vn -0.577 -0.577 -0.577
vn -0.577 -0.577 -0.577
vn -0.577 -0.577 -0.577
vn -0.577 -0.577 -0.577
vn -0.577 -0.577 -0.577
vn -0.577 -0.577 -0.577
vn -0.577 -0.577 -0.577
vn -0.577 -0.577 -0.577
vn -0.577 -0.577 -0.577
vn -0.577 -0.577 -0.577
vn -0.577 -0.577 -0.577
vn -0.577 -0.577 -0.577
vn -0.577 -0.577 -0.577
vn -0.577 -0.577 -0.577
vn -0.577 -0.577 -0.577
vn -0.577 -0.577 -0.577
vn -0.577 -0.577 -0.577
vn -0.577 -0.577 -0.577
vn -0.577 -0.577 -0.577
vn -0.577 -0.577 -0.577
vn -0.577 -0.577 -0.577
vn -0.577 -0.577 -0.577
vn -0.577 -0.577 -0.577
vn -0.577 -0.577 -0.577
vn -0.577 -0.577 -0.577
vn -0.577 -0.577 -0.577
vn -0.577 -0.577 -0.577
vn -0.577 -0.577 -0.577
vn -0.577 -0.577 -0.577
vn -0.577 -0.577 -0.577
vn -0.577 -0.577 -0.577
vn -0.577 -0.577 -0.577
vn -0.577 -0.577 -0.577
vn -0.577 -0.577 -0.577
vn -0.577 -0.577 -0.577
vn -0.577 -0.577 -0.577
vn -0.577 -0.577 -0.577
vn -0.577 -0.577 -0.577
vn -0.577 -0.577 -0.577
vn -0.577 -0.577 -0.577
vn -0.577 -0.577 -0.577
vn -0.577 -0.577 -0.577
vn -1.000 0.000 0.000
vn 0.577 0.577 0.577
vn -1.000 0.000 0.000
vn -1.000 0.000 0.000
vn -1.000 0.000 0.000
vn -1.000 0.000 0.000
vn -1.000 0.000 0.000
vn 0.577 0.577 0.577
vn -0.577 -0.577 -0.577
vn -0.577 -0.577 -0.577
vn -0.577 -0.577 -0.577
vn -0.577 -0.577 -0.577
vn 0.577 0.577 0.577
vn -0.577 -0.577 -0.577
vn -0.577 -0.577 -0.577
vn -0.577 -0.577 -0.577
vn -0.577 -0.577 -0.577
vn -0.577 -0.577 -0.577
vn -0.577 -0.577 -0.577
vn -0.577 -0.577 -0.577
vn -0.577 -0.577 -0.577
vn -1.000 0.000 0.000
vn 0.577 0.577 0.577
vn -1.000 0.000 0.000
vn -1.000 0.000 0.000
vn -1.000 0.000 0.000
vn -1.000 0.000 0.000
vn -1.000 0.000 0.000
vn 0.577 0.577 0.577
vn -0.577 -0.577 -0.577
vn -0.577 -0.577 -0.577
vn -0.577 -0.577 -0.577
vn -0.577 -0.577 -0.577
vn -0.577 -0.577 -0.577
vn -0.577 -0.577 -0.577
vn 0.577 0.577 0.577
vn 0.577 0.577 0.577
vn -0.577 -0.577 -0.577
vn -0.577 -0.577 -0.577
vn -0.577 -0.577 -0.577
vn -0.577 -0.577 -0.577
vn -0.577 -0.577 -0.577
vn -0.577 -0.577 -0.577
vn -0.753 -0.554 -0.356
vn -0.753 -0.554 -0.356
vn -0.753 -0.554 -0.356
vn -0.753 -0.554 -0.356
vn -0.753 -0.554 -0.356
vn -0.753 -0.554 -0.356
vn -0.753 -0.554 -0.356
vn -0.753 -0.554 -0.356
vn 0.430 0.598 -0.676
vn -0.862 -0.489 -0.131
vn -0.862 -0.489 -0.131
vn 0.430 0.598 -0.676
vn 0.430 0.598 -0.676
vn -0.862 -0.489 -0.131
vn -0.862 -0.489 -0.131
vn -0.862 -0.489 -0.131
vn -0.862 -0.489 -0.131
vn -0.862 -0.489 -0.131
vn -0.862 -0.489 -0.131
vn 0.430 0.598 -0.676
vn -0.862 -0.489 -0.131
vn -0.862 -0.489 -0.131
vn 0.430 0.598 -0.676
vn 0.430 0.598 -0.676
vn -0.862 -0.489 -0.131
vn -0.862 -0.489 -0.131
vn 0.430 0.598 -0.676
vn 0.430 0.598 -0.676
vn -0.862 -0.489 -0.131
vn -0.862 -0.489 -0.131
vn -0.862 -0.489 -0.131
vn -0.862 -0.489 -0.131
vn -0.862 -0.489 -0.131
vn -0.862 -0.489 -0.131
vn 0.430 0.598 -0.676
vn -0.862 -0.489 -0.131
vn -0.862 -0.489 -0.131
vn 0.430 0.598 -0.676
vn -0.577 -0.577 -0.577
vn -0.577 -0.577 -0.577
vn -0.577 -0.577 -0.577
vn -0.577 -0.577 -0.577
vn -0.577 -0.577 -0.577
vn -0.577 -0.577 -0.577
vn -0.577 -0.577 -0.577
vn -0.577 -0.577 -0.577
vn 0.577 0.577 0.577
vn 0.577 0.577 0.577
vn 0.577 0.577 0.577
vn 0.577 0.577 0.577
vn 0.577 0.577 0.577
vn 0.577 0.577 0.577
vn 0.577 0.577 0.577
vn 0.577 0.577 0.577
vn 0.577 0.577 0.577
vn 0.577 0.577 0.577
vn 0.577 0.577 0.577
vn 0.577 0.577 0.577
vn 0.577 0.577 0.577
vn 0.577 0.577 0.577
vn 0.577 0.577 0.577
vn 0.577 0.577 0.577
vn 0.577 0.577 0.577
vn 0.577 0.577 0.577
vn 0.577 0.577 0.577
vn 0.577 0.577 0.577
vn 0.577 0.577 0.577
vn 0.577 0.577 0.577
vn 0.577 0.577 0.577
vn 0.577 0.577 0.577
vn 0.577 0.577 0.577
vn 0.577 0.577 0.577
vn 0.577 0.577 0.577
vn 0.577 0.577 0.577
vn 0.577 0.577 0.577
vn 0.577 0.577 0.577
vn 0.577 0.577 0.577
vn 0.577 0.577 0.577
vn 0.577 0.577 0.577
vn 0.577 0.577 0.577
vn 0.577 0.577 0.577
vn 0.577 0.577 0.577
vn 0.577 0.577 0.577
vn 0.577 0.577 0.577
vn 0.577 0.577 0.577
vn 0.577 0.577 0.577
vn 0.577 0.577 0.577
vn 0.577 0.577 0.577
vn 0.577 0.577 0.577
vn 0.577 0.577 0.577
vn 0.577 0.577 0.577
vn 0.577 0.577 0.577
vn 0.577 0.577 0.577
vn 0.577 0.577 0.577
vn 0.577 0.577 0.577
vn 0.577 0.577 0.577
vn 0.577 0.577 0.577
vn 0.577 0.577 0.577
vn 0.577 0.577 0.577
vn 0.577 0.577 0.577
vn 0.577 0.577 0.577
vn 0.577 0.577 0.577
vn 0.577 0.577 0.577
vn 0.577 0.577 0.577
vn 0.577 0.577 0.577
vn 0.577 0.577 0.577
vn 0.577 0.577 0.577
vn 0.577 0.577 0.577
vn 0.577 0.577 0.577
vn 0.577 0.577 0.577
vn 0.577 0.577 0.577
vn 0.577 0.577 0.577
vn 0.577 0.577 0.577
vn 0.577 0.577 0.577
vn 0.577 0.577 0.577
vn 0.577 0.577 0.577
vn 0.577 0.577 0.577
vn 0.577 0.577 0.577
vn 0.577 0.577 0.577
vn 0.577 0.577 0.577
vn 0.577 0.577 0.577
vn 0.577 0.577 0.577
vn 0.577 0.577 0.577
vn 0.577 0.577 0.577
vn 0.577 0.577 0.577
vn 0.577 0.577 0.577
vn 0.577 0.577 0.577
vn 0.577 0.577 0.577
vn 0.577 0.577 0.577
vn 0.577 0.577 0.577
vn 0.577 0.577 0.577
vn 0.577 0.577 0.577
vn 0.577 0.577 0.577
vn 0.577 0.577 0.577
vn 0.577 0.577 0.577
vn 0.577 0.577 0.577
vn 0.577 0.577 0.577
vn 0.577 0.577 0.577
vn 0.577 0.577 0.577
vn 0.577 0.577 0.577
vn 0.577 0.577 0.577
vn 0.577 0.577 0.577
vn 0.577 0.577 0.577
vn 0.577 0.577 0.577
vn 0.577 0.577 0.577
vn 0.577 0.577 0.577
vn 0.577 0.577 0.577
vn 0.577 0.577 0.577
vn 0.577 0.577 0.577
vn 0.577 0.577 0.577
vn 0.577 0.577 0.577
vn 0.577 0.577 0.577
vn 0.577 0.577 0.577
vn 0.577 0.577 0.577
vn 0.577 0.577 0.577
vn 0.577 0.577 0.577
vn 0.577 0.577 0.577
vn 0.577 0.577 0.577
vn 0.577 0.577 0.577
vn 0.577 0.577 0.577
vn 0.577 0.577 0.577
vn 0.577 0.577 0.577
vn 0.577 0.577 0.577
vn 0.577 0.577 0.577
vn 0.577 0.577 0.577
vn 0.577 0.577 0.577
vn 0.577 0.577 0.577
vn 0.577 0.577 0.577
vn 0.577 0.577 0.577
vn 0.577 0.577 0.577
vn 0.577 0.577 0.577
vn 0.577 0.577 0.577
vn 0.577 0.577 0.577
vn 0.577 0.577 0.577
vn 0.577 0.577 0.577
vn 0.577 0.577 0.577
vn 0.577 0.577 0.577
vn 0.577 0.577 0.577
vn 0.577 0.577 0.577
vn 0.577 0.577 0.577
vn 0.577 0.577 0.577
vn 0.577 0.577 0.577
vn 0.577 0.577 0.577
vn 0.577 0.577 0.577
vn 0.577 0.577 0.577
vn 0.577 0.577 0.577
vn 0.577 0.577 0.577
vn 0.577 0.577 0.577
vn 0.577 0.577 0.577
vn 0.577 0.577 0.577
vn 0.577 0.577 0.577
vn 0.577 0.577 0.577
vn 0.577 0.577 0.577
vn 0.577 0.577 0.577
vn 0.577 0.577 0.577
vn 0.577 0.577 0.577
vn 0.577 0.577 0.577
vn 0.577 0.577 0.577
vn 0.577 0.577 0.577
vn 0.577 0.577 0.577
vn 0.577 0.577 0.577
vn 0.577 0.577 0.577
vn 0.577 0.577 0.577
vn 0.577 0.577 0.577
vn 0.577 0.577 0.577
vn 0.577 0.577 0.577
vn 0.577 0.577 0.577
vn 0.577 0.577 0.577
vn 0.577 0.577 0.577
vn 0.577 0.577 0.577
vn 0.577 0.577 0.577
vn 0.577 0.577 0.577
vn 0.577 0.577 0.577
vn 0.577 0.577 0.577
vn 0.577 0.577 0.577
vn 0.577 0.577 0.577
vn 0.577 0.577 0.577
vn 0.577 0.577 0.577
vn 0.577 0.577 0.577
vn 0.577 0.577 0.577
vn 0.577 0.577 0.577
vn 0.577 0.577 0.577
vn 0.577 0.577 0.577
vn 0.577 0.577 0.577
vn 0.577 0.577 0.577
vn 0.577 0.577 0.577
vn 0.577 0.577 0.577
vn 0.577 0.577 0.577
vn 0.577 0.577 0.577
vn 0.577 0.577 0.577
vn 0.577 0.577 0.577
vn 0.577 0.577 0.577
vn 0.577 0.577 0.577
vn 0.577 0.577 0.577
vn 0.577 0.577 0.577
vn 0.577 0.577 0.577
vn 0.577 0.577 0.577
vn 0.577 0.577 0.577
vn 0.577 0.577 0.577
vn 0.577 0.577 0.577
vn 0.577 0.577 0.577
vn 0.577 0.577 0.577
vn 0.577 0.577 0.577
vn 0.577 0.577 0.577
vn 0.577 0.577 0.577
vn 0.577 0.577 0.577
vn 0.577 0.577 0.577
vn 0.577 0.577 0.577
vn 0.577 0.577 0.577
vn 0.577 0.577 0.577
vn 0.577 0.577 0.577
vn 0.577 0.577 0.577
vn 0.577 0.577 0.577
vn 0.577 0.577 0.577
vn 0.577 0.577 0.577
vn 0.577 0.577 0.577
vn 0.577 0.577 0.577
vn 0.577 0.577 0.577
vn 0.577 0.577 0.577
vn 0.577 0.577 0.577
vn 0.577 0.577 0.577
vn 0.577 0.577 0.577
vn 0.577 0.577 0.577
vn 0.577 0.577 0.577
vn 0.577 0.577 0.577
vn 0.577 0.577 0.577
vn 0.577 0.577 0.577
vn 0.577 0.577 0.577
vn 0.577 0.577 0.577
vn 0.577 0.577 0.577
vn 0.577 0.577 0.577
vn 0.577 0.577 0.577
vn 0.577 0.577 0.577
vn 0.577 0.577 0.577
vn 0.577 0.577 0.577
vn 0.577 0.577 0.577
vn 0.577 0.577 0.577
vn 0.577 0.577 0.577
vn 0.577 0.577 0.577
vn 0.577 0.577 0.577
vn 0.577 0.577 0.577
vn 0.577 0.577 0.577
vn 0.577 0.577 0.577
vn 0.577 0.577 0.577
vn 0.577 0.577 0.577
vn 0.577 0.577 0.577
vn 0.577 0.577 0.577
vn 0.577 0.577 0.577
vn 0.577 0.577 0.577
vn 0.577 0.577 0.577
vn 0.577 0.577 0.577
vn 0.577 0.577 0.577
vn 0.577 0.577 0.577
vn 0.577 0.577 0.577
vn 0.577 0.577 0.577
vn 0.577 0.577 0.577
vn 0.577 0.577 0.577
vn 0.577 0.577 0.577
vn 0.577 0.577 0.577
vn 0.577 0.577 0.577
vn 0.577 0.577 0.577
vn 0.577 0.577 0.577
vn 0.577 0.577 0.577
vn 0.577 0.577 0.577
vn 0.577 0.577 0.577
vn 0.577 0.577 0.577
vn 0.577 0.577 0.577
vn 0.577 0.577 0.577
vn 0.577 0.577 0.577
vn 0.577 0.577 0.577
vn 0.577 0.577 0.577
vn 0.577 0.577 0.577
vn 0.577 0.577 0.577
vn 0.577 0.577 0.577
vn 0.577 0.577 0.577
vn 0.577 0.577 0.577
vn 0.577 0.577 0.577
vn 0.577 0.577 0.577
vn 0.577 0.577 0.577
vn 0.577 0.577 0.577
vn 0.577 0.577 0.577
vn 0.577 0.577 0.577
vn 0.577 0.577 0.577
vn 0.577 0.577 0.577
vn 0.577 0.577 0.577
vn 0.577 0.577 0.577
vn 0.577 0.577 0.577
vn 0.577 0.577 0.577
vn 0.577 0.577 0.577
vn 0.577 0.577 0.577
vn 0.430 0.598 -0.676
vn 0.430 0.598 -0.676
vn 0.430 0.598 -0.676
vn 0.430 0.598 -0.676
vn 0.577 0.577 0.577
vn 0.577 0.577 0.577
vn 0.577 0.577 0.577
vn 0.577 0.577 0.577
vn 0.577 0.577 0.577
vn 0.577 0.577 0.577
vn 0.577 0.577 0.577
vn 0.577 0.577 0.577
vn 0.577 0.577 0.577
vn 0.577 0.577 0.577
vn 0.577 0.577 0.577
vn 0.577 0.577 0.577
vn 0.577 0.577 0.577
vn 0.577 0.577 0.577
vn 0.577 0.577 0.577
vn 0.577 0.577 0.577
vn 0.577 0.577 0.577
vn 0.577 0.577 0.577
vn 0.577 0.577 0.577
vn 0.577 0.577 0.577
vn 0.577 0.577 0.577
vn 0.577 0.577 0.577
vn 0.577 0.577 0.577
vn 0.577 0.577 0.577
vn 0.577 0.577 0.577
vn 0.577 0.577 0.577
vn 0.577 0.577 0.577
vn 0.577 0.577 0.577
vn 0.577 0.577 0.577
vn 0.577 0.577 0.577
vn 0.577 0.577 0.577
vn 0.577 0.577 0.577
vn 0.577 0.577 0.577
vn 0.577 0.577 0.577
vn 0.577 0.577 0.577
vn 0.577 0.577 0.577
vn 0.577 0.577 0.577
vn 0.577 0.577 0.577
vn 0.577 0.577 0.577
vn 0.577 0.577 0.577
vn 0.577 0.577 0.577
vn 0.577 0.577 0.577
vn 0.577 0.577 0.577
vn 0.577 0.577 0.577
vn 0.577 0.577 0.577
vn 0.577 0.577 0.577
vn 0.577 0.577 0.577
vn 0.577 0.577 0.577
vn 0.430 0.598 -0.676
vn 0.430 0.598 -0.676
vn 0.430 0.598 -0.676
vn 0.430 0.598 -0.676
vn -0.707 -0.707 0.000
vn -0.707 -0.707 0.000
vn -0.707 -0.707 0.000
vn -0.707 -0.707 0.000
vn -0.707 -0.707 0.000
vn -0.707 -0.707 0.000
vn -0.707 -0.707 0.000
vn -0.707 -0.707 0.000
vn -0.707 -0.707 0.000
vn -0.707 -0.707 0.000
vn -0.707 -0.707 0.000
vn -0.707 -0.707 0.000
vn -0.707 -0.707 0.000
vn -0.707 -0.707 0.000
vn -0.707 -0.707 0.000
vn -0.707 -0.707 0.000
vn -0.707 -0.707 0.000
vn -0.707 -0.707 0.000
vn -0.577 -0.577 -0.577
vn -0.577 -0.577 -0.577
vn -0.577 -0.577 -0.577
vn -0.577 -0.577 -0.577
vn -0.577 -0.577 -0.577
vn -0.577 -0.577 -0.577
vn -0.577 -0.577 -0.577
vn -0.577 -0.577 -0.577
vn -0.577 -0.577 -0.577
vn -0.577 -0.577 -0.577
vn -0.577 -0.577 -0.577
vn -0.577 -0.577 -0.577
vn -0.577 -0.577 -0.577
vn -0.577 -0.577 -0.577
vn -0.577 -0.577 -0.577
vn -0.577 -0.577 -0.577
vn -0.577 -0.577 -0.577
vn -0.577 -0.577 -0.577
vn -0.577 -0.577 -0.577
vn -0.577 -0.577 -0.577
vn -0.577 -0.577 -0.577
vn -0.577 -0.577 -0.577
vn -0.577 -0.577 -0.577
vn -0.577 -0.577 -0.577
vn -0.577 -0.577 -0.577
vn -0.577 -0.577 -0.577
vn -0.577 -0.577 -0.577
vn -0.577 -0.577 -0.577
vn -0.577 -0.577 -0.577
vn -0.577 -0.577 -0.577
vn -0.577 -0.577 -0.577
vn -0.577 -0.577 -0.577
vn -0.577 -0.577 -0.577
vn -0.577 -0.577 -0.577
vn -0.577 -0.577 -0.577
vn -0.577 -0.577 -0.577
vn -0.577 -0.577 -0.577
vn -0.577 -0.577 -0.577
vn -0.577 -0.577 -0.577
vn -0.577 -0.577 -0.577
vn -0.577 -0.577 -0.577
vn -0.577 -0.577 -0.577
vn -0.577 -0.577 -0.577
vn -0.577 -0.577 -0.577
vn -0.577 -0.577 -0.577
vn -0.577 -0.577 -0.577
vn -0.577 -0.577 -0.577
vn -0.577 -0.577 -0.577
vn 0.577 0.577 0.577
vn 0.577 0.577 0.577
vn 0.577 0.577 0.577
vn 0.577 0.577 0.577
vn 0.577 0.577 0.577
vn 0.577 0.577 0.577
vn 0.577 0.577 0.577
vn 0.577 0.577 0.577
vn 0.577 0.577 0.577
vn 0.577 0.577 0.577
vn 0.577 0.577 0.577
vn 0.577 0.577 0.577
vn 0.577 0.577 0.577
vn 0.577 0.577 0.577
vn 0.577 0.577 0.577
vn 0.577 0.577 0.577
vn 0.577 0.577 0.577
vn 0.577 0.577 0.577
vn 0.577 0.577 0.577
vn 0.577 0.577 0.577
vn 0.577 0.577 0.577
vn 0.577 0.577 0.577
vn 0.577 0.577 0.577
vn 0.577 0.577 0.577
vn 0.577 0.577 0.577
vn 0.577 0.577 0.577
vn 0.577 0.577 0.577
vn 0.577 0.577 0.577
vn 0.577 0.577 0.577
vn 0.577 0.577 0.577
vn 0.577 0.577 0.577
vn 0.577 0.577 0.577
vn 0.577 0.577 0.577
vn 0.577 0.577 0.577
vn 0.577 0.577 0.577
vn 0.577 0.577 0.577
vn 0.577 0.577 0.577
vn 0.577 0.577 0.577
vn 0.577 0.577 0.577
vn 0.577 0.577 0.577
vn 0.577 0.577 0.577
vn 0.577 0.577 0.577
usemtl tex_1042_lit
f 1/1/1 2/2/2 3/3/3
f 1/1/1 3/3/3 4/4/4
f 5/5/5 6/6/6 7/7/7
f 5/5/5 7/7/7 8/8/8
f 9/9/9 10/10/10 11/11/11
f 9/9/9 11/11/11 12/12/12
f 13/13/13 5/5/5 8/8/8
f 13/13/13 8/8/8 14/14/14
f 15/15/15 16/14/16 17/8/17
f 15/15/15 17/8/17 18/16/18
f 15/15/15 19/17/19 20/18/20
f 15/15/15 20/18/20 16/14/16
f 21/19/21 22/6/22 23/8/23
f 21/19/21 23/8/23 24/5/24
f 23/8/23 25/14/25 26/13/26
f 23/8/23 26/13/26 24/5/24
f 27/12/27 28/11/28 29/20/29
f 27/12/27 29/20/29 30/21/30
f 31/13/31 32/14/32 33/22/33
f 31/13/31 33/22/33 34/23/34
f 35/16/35 36/8/36 37/24/37
f 35/16/35 37/24/37 38/25/38
f 39/23/39 40/13/40 41/14/41
f 39/23/39 41/14/41 42/22/42
f 43/20/43 44/26/44 45/27/45
f 43/20/43 45/27/45 46/21/46
f 47/28/47 48/29/48 49/30/49
f 47/28/47 49/30/49 50/8/50
f 51/31/51 52/32/52 53/33/53
f 51/31/51 53/33/53 54/34/54
f 55/5/55 56/6/56 57/7/57
f 55/5/55 57/7/57 58/8/58
f 54/34/54 53/33/53 59/14/59
f 54/34/54 59/14/59 60/35/60
f 61/13/61 62/5/62 63/8/63
f 61/13/61 63/8/63 64/14/64
f 62/5/62 65/19/65 66/6/66
f 62/5/62 66/6/66 63/8/63
f 67/5/67 68/8/68 69/14/69
f 67/5/67 69/14/69 70/13/70
f 67/5/67 71/6/71 72/7/72
f 67/5/67 72/7/72 68/8/68
f 73/13/73 74/5/74 75/8/75
f 73/13/73 75/8/75 76/14/76
f 77/36/77 78/35/78 79/14/79
f 77/36/77 79/14/79 80/37/80
f 81/23/81 82/13/82 83/14/83
f 81/23/81 83/14/83 84/22/84
f 85/13/85 86/14/86 87/22/87
f 85/13/85 87/22/87 88/23/88
f 89/22/89 90/23/90 91/13/91
f 89/22/89 91/13/91 92/14/92
f 93/38/93 94/39/94 95/40/95
f 93/38/93 95/40/95 96/41/96
f 97/42/97 98/8/98 99/43/99
f 97/42/97 99/43/99 100/44/100
f 100/44/100 93/38/93 96/41/96
f 100/44/100 96/41/96 97/42/97
f 98/8/98 95/40/95 94/39/94
f 98/8/98 94/39/94 99/43/99
f 101/45/101 102/46/102 103/47/103
f 101/45/101 103/47/103 104/48/104
f 105/49/105 106/50/106 107/51/107
f 107/51/107 108/52/108 105/49/105
f 109/53/109 110/54/110 111/55/111
f 111/55/111 112/56/112 109/53/109
f 113/57/113 114/58/114 115/40/115
f 113/57/113 115/40/115 116/59/116
f 117/60/117 118/8/118 119/61/119
f 117/60/117 119/61/119 120/62/120
f 120/62/120 113/57/113 116/59/116
f 120/62/120 116/59/116 117/60/117
f 118/8/118 115/40/115 114/58/114
f 118/8/118 114/58/114 119/61/119
f 121/63/121 122/64/122 123/65/123
f 121/63/121 123/65/123 124/66/124
f 125/67/125 126/8/126 127/68/127
f 125/67/125 127/68/127 128/69/128
f 129/70/129 130/71/130 131/72/131
f 129/70/129 131/72/131 132/73/132
f 132/73/132 125/67/125 128/69/128
f 132/73/132 128/69/128 129/70/129
f 130/71/130 127/68/127 126/8/126
f 130/71/130 126/8/126 131/72/131
f 133/74/133 134/75/134 135/76/135
f 133/74/133 135/76/135 136/77/136
usemtl tex_652_lit_env
f 137/78/137 138/79/138 139/80/139
f 138/79/138 140/81/140 139/80/139
f 138/79/138 141/82/141 140/81/140
f 141/82/141 142/83/142 140/81/140
f 141/82/141 143/84/143 142/83/142
f 143/84/143 144/85/144 142/83/142
f 137/78/137 145/86/145 146/87/146
f 137/78/137 146/87/146 138/79/138
f 138/79/138 146/87/146 147/88/147
f 138/79/138 147/88/147 148/89/148
f 138/79/138 148/89/148 141/82/141
f 141/82/141 148/89/148 143/84/143
f 139/80/139 149/90/149 150/91/150
f 139/80/139 140/81/140 149/90/149
f 140/81/140 151/92/151 149/90/149
f 152/93/152 151/92/151 140/81/140
f 142/83/142 152/93/152 140/81/140
f 144/85/144 152/93/152 142/83/142
usemtl tex_939_lit
f 153/14/153 154/8/154 155/5/155
f 153/14/153 155/5/155 156/13/156
f 157/8/157 158/5/158 159/13/159
f 157/8/157 159/13/159 160/14/160
f 161/5/161 162/13/162 163/14/163
f 161/5/161 163/14/163 164/8/164
f 165/14/165 166/8/166 167/5/167
f 165/14/165 167/5/167 168/13/168
f 169/8/169 170/5/170 171/13/171
f 169/8/169 171/13/171 172/14/172
f 173/13/173 174/14/174 175/8/175
f 173/13/173 175/8/175 176/5/176
f 177/5/177 178/13/178 179/14/179
f 177/5/177 179/14/179 180/8/180
f 181/13/181 182/14/182 183/8/183
f 181/13/181 183/8/183 184/5/184
f 185/5/185 186/13/186 187/14/187
f 185/5/185 187/14/187 188/8/188
f 189/13/189 190/14/190 191/8/191
f 189/13/189 191/8/191 192/5/192
f 193/14/193 194/8/194 195/5/195
f 193/14/193 195/5/195 196/13/196
f 197/5/197 198/13/198 199/14/199
f 197/5/197 199/14/199 200/8/200
f 201/13/201 202/14/202 203/8/203
f 201/13/201 203/8/203 204/5/204
f 205/8/205 206/5/206 207/13/207
f 205/8/205 207/13/207 208/14/208
f 209/14/209 210/8/210 211/5/211
f 209/14/209 211/5/211 212/13/212
f 213/8/213 214/5/214 215/13/215
f 213/8/213 215/13/215 216/14/216
f 217/8/217 218/14/218 219/13/219
f 217/8/217 219/13/219 220/5/220
f 221/5/221 222/8/222 223/14/223
f 221/5/221 223/14/223 224/13/224
f 225/13/225 226/5/226 227/8/227
f 225/13/225 227/8/227 228/14/228
f 229/8/229 230/14/230 231/13/231
f 229/8/229 231/13/231 232/5/232
f 233/5/233 234/8/234 235/14/235
f 233/5/233 235/14/235 236/13/236
f 237/14/237 238/13/238 239/5/239
f 237/14/237 239/5/239 240/8/240
f 241/13/241 242/5/242 243/8/243
f 241/13/241 243/8/243 244/14/244
f 245/14/245 246/13/246 247/5/247
f 245/14/245 247/5/247 248/8/248
usemtl tex_508_lit
f 249/94/249 250/95/250 251/96/251
f 252/97/252 249/94/249 251/96/251
f 253/98/253 254/99/254 255/100/255
f 254/99/254 256/8/256 255/100/255
f 257/94/257 258/97/258 259/101/259
f 257/94/257 259/101/259 260/102/260
f 257/94/257 260/102/260 261/103/261
f 257/94/257 261/103/261 250/95/250
f 262/100/262 263/8/263 264/104/264
f 265/100/265 266/104/266 267/105/267
f 268/98/268 265/100/265 267/105/267
f 268/98/268 267/105/267 269/106/269
f 270/94/270 271/95/271 272/96/272
f 273/97/273 270/94/270 272/96/272
f 274/98/274 275/99/275 276/100/276
f 275/99/275 277/8/277 276/100/276
f 278/94/278 279/97/279 280/101/280
f 281/94/281 282/101/282 283/102/283
f 281/94/281 283/102/283 284/103/284
f 281/94/281 284/103/284 285/95/285
f 286/100/286 287/8/287 288/104/288
f 286/100/286 288/104/288 289/105/289
f 290/98/290 286/100/286 289/105/289
f 290/98/290 289/105/289 291/106/291
usemtl tex_510_lit_ovl
f 292/107/292 293/108/293 294/8/294
f 292/107/292 294/8/294 295/109/295
f 296/107/296 297/108/297 298/8/298
f 296/107/296 298/8/298 299/109/299
usemtl tex_511_lit
f 300/13/300 301/110/301 302/111/302
f 300/13/300 302/111/302 303/14/303
f 300/13/300 304/5/304 305/8/305
f 300/13/300 305/8/305 306/14/306
f 307/13/307 308/5/308 309/8/309
f 307/13/307 309/8/309 310/14/310
f 311/14/311 312/13/312 313/5/313
f 311/14/311 313/5/313 314/8/314
f 315/13/315 316/110/316 317/111/317
f 315/13/315 317/111/317 318/14/318
f 315/13/315 319/5/319 320/8/320
f 315/13/315 320/8/320 321/14/321
f 322/13/322 323/5/323 324/8/324
f 322/13/322 324/8/324 325/14/325
f 326/14/326 327/13/327 328/5/328
f 326/14/326 328/5/328 329/8/329
usemtl tex_427_lit_ovl
f 330/112/330 331/113/331 332/8/332
f 330/112/330 332/8/332 333/114/333
f 334/114/334 335/8/335 336/113/336
f 334/114/334 336/113/336 337/112/337
usemtl tex_427_lit
f 338/14/338 339/13/339 340/5/340
f 338/14/338 340/5/340 341/8/341
f 342/13/342 343/5/343 344/8/344
f 342/13/342 344/8/344 345/14/345
usemtl tex_1045_lit
f 346/115/346 347/116/347 348/117/348
f 349/118/349 350/119/350 351/120/351
f 351/120/351 352/121/352 349/118/349
f 353/122/353 354/123/354 355/124/355
f 355/124/355 356/125/356 353/122/353
f 357/126/357 358/127/358 359/128/359
f 360/129/360 361/130/361 362/131/362
f 363/132/363 364/133/364 365/134/365
f 366/135/366 367/136/367 368/137/368
f 366/135/366 368/137/368 369/138/369
f 370/139/370 371/140/371 372/141/372
f 373/142/373 374/143/374 375/144/375
f 376/145/376 375/144/375 374/143/374
f 377/146/377 378/147/378 379/148/379
f 380/149/380 381/150/381 382/151/382
f 381/150/381 383/152/383 382/151/382
f 381/150/381 384/153/384 383/152/383
f 385/154/385 386/155/386 387/156/387
f 388/157/388 386/155/386 385/154/385
f 389/158/389 390/155/390 391/157/391
f 392/159/392 393/160/393 394/161/394
f 395/119/395 396/118/396 397/162/397
f 398/163/398 397/162/397 396/118/396
f 399/164/399 400/165/400 401/166/401
f 402/122/402 403/167/403 404/123/404
f 405/168/405 406/169/406 407/170/407
f 408/171/408 409/172/409 410/173/410
f 408/171/408 410/173/410 411/174/411
usemtl tex_1045_lit_ovl
f 408/171/408 412/175/412 413/176/413
f 408/171/408 413/176/413 409/172/409
usemtl tex_1045_lit
f 412/175/412 414/177/414 415/178/415
f 412/175/412 415/178/415 413/176/413
f 416/179/416 417/180/417 418/181/418
f 416/179/416 418/181/418 419/182/419
f 420/183/420 421/184/421 422/185/422
f 420/183/420 422/185/422 423/186/423
f 424/187/424 425/188/425 426/189/426
f 424/187/424 426/189/426 427/190/427
f 428/191/428 429/192/429 430/193/430
f 428/191/428 430/193/430 431/194/431
f 432/195/432 433/196/433 434/197/434
f 432/195/432 434/197/434 435/198/435
f 436/199/436 437/200/437 438/201/438
f 436/199/436 438/201/438 439/202/439
f 440/203/440 441/204/441 442/205/442
f 440/203/440 442/205/442 443/206/443
f 444/207/444 445/208/445 446/209/446
f 444/207/444 446/209/446 447/210/447
f 448/130/448 449/211/449 450/131/450
f 451/127/451 452/212/452 453/128/453
f 454/213/454 455/214/455 456/215/456
f 454/213/454 456/215/456 457/216/457
f 458/217/458 457/216/457 456/215/456
f 459/133/459 460/132/460 461/218/461
f 459/133/459 461/218/461 462/219/462
f 463/143/463 464/144/464 465/145/465
f 466/148/466 467/147/467 468/146/468
f 469/117/469 470/116/470 471/115/471
f 472/144/472 473/143/473 474/142/474
f 475/141/475 476/140/476 477/139/477
f 478/138/478 479/137/479 480/135/480
f 479/137/479 481/136/481 480/135/480
f 482/219/482 483/218/483 484/133/484
f 485/134/485 484/133/484 486/132/486
f 483/218/483 486/132/486 484/133/484
f 487/215/487 488/216/488 489/217/489
f 488/216/488 487/215/487 490/214/490
f 488/216/488 490/214/490 491/213/491
f 492/128/492 493/212/493 494/127/494
f 492/128/492 494/127/494 495/126/495
f 496/131/496 497/211/497 498/130/498
f 496/131/496 498/130/498 499/129/499
f 500/122/500 501/125/501 502/124/502
f 503/123/503 504/167/504 500/122/500
f 502/124/502 503/123/503 500/122/500
f 505/166/505 506/165/506 507/164/507
f 508/118/508 509/162/509 510/163/510
f 511/156/511 512/155/512 513/154/513
f 513/154/513 512/155/512 514/157/514
f 515/118/515 516/121/516 517/120/517
f 518/162/518 515/118/515 519/119/519
f 517/120/517 519/119/519 515/118/515
f 520/161/520 521/160/521 522/159/522
f 514/157/514 512/155/512 523/158/523
f 524/220/524 525/221/525 526/222/526
f 527/222/527 528/221/528 529/223/529
f 530/224/530 531/8/531 532/225/532
f 531/8/531 530/224/530 533/226/533
f 533/226/533 530/224/530 534/227/534
f 535/228/535 536/229/536 537/230/537
f 535/228/535 537/230/537 538/231/538
f 536/229/536 539/232/539 540/233/540
f 536/229/536 540/233/540 537/230/537
f 538/231/538 541/234/541 542/235/542
f 538/231/538 542/235/542 535/228/535
f 543/236/543 544/237/544 545/238/545
f 543/236/543 545/238/545 546/239/546
usemtl tex_1045_lit_ovl
f 547/240/547 548/241/548 549/242/549
f 547/240/547 549/242/549 550/243/550
f 547/240/547 551/244/551 552/245/552
f 547/240/547 552/245/552 548/241/548
f 552/245/552 551/244/551 553/246/553
f 552/245/552 553/246/553 554/247/554
usemtl tex_1045_lit
f 555/8/555 556/226/556 557/227/557
f 555/8/555 557/227/557 558/225/558
f 559/248/559 560/222/560 561/223/561
f 559/248/559 561/223/561 562/249/562
f 559/248/559 562/249/562 563/250/563
f 559/248/559 563/250/563 564/251/564
f 565/222/565 566/221/566 567/220/567
f 568/223/568 566/221/566 565/222/565
f 569/225/569 570/8/570 571/224/571
f 572/226/572 571/224/571 570/8/570
f 573/227/573 571/224/571 572/226/572
f 574/231/574 575/230/575 576/229/576
f 574/231/574 576/229/576 577/228/577
f 575/230/575 578/233/578 579/232/579
f 575/230/575 579/232/579 576/229/576
f 577/228/577 580/235/580 581/234/581
f 577/228/577 581/234/581 574/231/574
f 582/239/582 583/238/583 584/237/584
f 582/239/582 584/237/584 585/236/585
usemtl tex_1045_lit_ovl
f 586/243/586 587/242/587 588/241/588
f 586/243/586 588/241/588 589/240/589
f 590/241/590 591/245/591 592/244/592
f 590/241/590 592/244/592 593/240/593
f 594/247/594 595/246/595 592/244/592
f 594/247/594 592/244/592 591/245/591
usemtl tex_1045_lit
f 596/225/596 597/227/597 598/226/598
f 596/225/596 598/226/598 599/8/599
f 600/249/600 601/223/601 602/222/602
f 600/249/600 602/222/602 603/248/603
f 604/251/604 605/250/605 600/249/600
f 604/251/604 600/249/600 603/248/603
f 606/252/606 607/253/607 608/254/608
f 608/254/608 609/8/609 610/255/610
f 610/255/610 609/8/609 607/253/607
f 607/253/607 606/252/606 610/255/610
f 609/8/609 608/254/608 607/253/607
f 611/256/611 612/257/612 613/258/613
f 614/259/614 615/8/615 611/256/611
f 612/257/612 615/8/615 614/259/614
f 614/259/614 613/258/613 612/257/612
f 615/8/615 612/257/612 611/256/611
usemtl tex_1514_lit
f 616/8/616 617/8/617 618/8/618
f 617/8/617 619/8/619 618/8/618
f 617/8/617 620/8/620 619/8/619
f 620/8/620 621/8/621 619/8/619
f 622/8/622 623/8/623 624/8/624
f 622/8/622 624/8/624 625/8/625
usemtl tex_1514_lit_ds
f 626/8/626 627/8/627 628/8/628
f 629/8/629 630/8/630 631/8/631
f 632/8/632 633/8/633 634/8/634
f 635/8/635 636/8/636 637/8/637
f 638/8/638 639/8/639 640/8/640
f 641/8/641 642/8/642 643/8/643
f 644/8/644 645/8/645 646/8/646
f 647/8/647 648/8/648 649/8/649
f 650/8/650 651/8/651 652/8/652
f 653/8/653 654/8/654 655/8/655
f 656/8/656 657/8/657 658/8/658
f 659/8/659 660/8/660 661/8/661
f 662/8/662 663/8/663 664/8/664
f 665/8/665 666/8/666 667/8/667
f 668/8/668 669/8/669 670/8/670
f 671/8/671 672/8/672 673/8/673
usemtl tex_1514_lit
f 674/8/674 675/8/675 676/8/676
f 674/8/674 676/8/676 677/8/677
usemtl tex_1042_lit
f 678/260/678 679/261/679 680/262/680
f 681/263/681 682/264/682 683/265/683
f 684/265/684 685/264/685 686/263/686
f 687/262/687 688/261/688 689/260/689
f 690/266/690 691/267/691 692/268/692
f 693/268/693 694/267/694 695/266/695
usemtl tex_1542_lit_w11_ovl
f 696/269/696 697/270/697 698/8/698
usemtl tex_1542_lit_w11
f 696/269/696 698/8/698 699/271/699
f 700/8/700 701/271/701 702/269/702
f 700/8/700 702/269/702 703/270/703
usemtl tex_1543_lit_w11_ovl
f 704/269/704 705/270/705 706/8/706
f 704/269/704 706/8/706 707/271/707
f 708/8/708 709/271/709 710/269/710
f 708/8/708 710/269/710 711/270/711
usemtl tex_1546_lit_w11_ovl
f 712/5/712 713/8/713 714/14/714
f 712/5/712 714/14/714 715/13/715
f 716/5/716 717/8/717 718/14/718
f 716/5/716 718/14/718 719/13/719
usemtl tex_930_lit_sec_ovl
f 720/272/720 721/273/721 722/274/722
f 720/272/720 722/274/722 723/275/723
usemtl tex_930_lit_sec
f 724/275/724 725/274/725 726/273/726
f 724/275/724 726/273/726 727/272/727
f 728/272/728 729/273/729 730/274/730
f 728/272/728 730/274/730 731/275/731
f 732/275/732 733/274/733 734/273/734
f 732/275/732 734/273/734 735/272/735
f 736/275/736 737/274/737 738/273/738
f 736/275/736 738/273/738 739/272/739
f 740/272/740 741/273/741 742/274/742
f 740/272/740 742/274/742 743/275/743
usemtl tex_1514_lit
f 744/8/744 745/8/745 746/8/746
f 747/8/747 746/8/746 748/8/748
f 744/8/744 746/8/746 747/8/747
f 748/8/748 746/8/746 745/8/745
usemtl tex_1456_lit_sec_ds
f 749/276/749 750/277/750 751/278/751
f 749/276/749 751/278/751 752/279/752
f 753/276/753 754/277/754 755/278/755
f 753/276/753 755/278/755 756/279/756
f 757/276/757 758/277/758 759/278/759
f 757/276/757 759/278/759 760/279/760
f 761/276/761 762/277/762 763/278/763
f 761/276/761 763/278/763 764/279/764
usemtl tex_1514_lit
f 765/8/765 766/8/766 767/8/767
f 768/8/768 767/8/767 769/8/769
f 765/8/765 767/8/767 768/8/768
f 769/8/769 767/8/767 766/8/766
usemtl tex_1456_lit_sec_ds_ovl
f 770/276/770 771/277/771 772/278/772
f 770/276/770 772/278/772 773/279/773
f 774/276/774 775/277/775 776/278/776
f 774/276/774 776/278/776 777/279/777
f 778/276/778 779/277/779 780/278/780
f 778/276/778 780/278/780 781/279/781
f 782/276/782 783/277/783 784/278/784
f 782/276/782 784/278/784 785/279/785
