mtllib PwalletbondZ.mtl
v -2240.0 2457.0 -50.0 0.835 0.835 0.647
v -2240.0 -2693.0 -50.0 0.835 0.835 0.647
v -1821.0 -2493.0 -50.0 0.835 0.835 0.647
v -1821.0 2107.0 -50.0 0.835 0.835 0.647
v 2133.0 -2693.0 -50.0 0.835 0.835 0.647
v 2133.0 2457.0 -50.0 0.835 0.835 0.647
v 1679.0 2107.0 -50.0 0.835 0.835 0.647
v 1679.0 -2493.0 -50.0 0.835 0.835 0.647
v 1679.0 -743.0 -50.0 0.616 0.592 0.478
v 1779.0 131.0 -50.0 0.616 0.592 0.478
v 1679.0 177.0 -50.0 0.616 0.592 0.478
v 1779.0 -697.0 -50.0 0.616 0.592 0.478
v 1879.0 -605.0 -50.0 0.616 0.592 0.478
v 1879.0 39.0 -50.0 0.616 0.592 0.478
v 1679.0 177.0 -50.0 0.616 0.592 0.478
v 1779.0 1051.0 -50.0 0.616 0.592 0.478
v 1679.0 1097.0 -50.0 0.616 0.592 0.478
v 1779.0 223.0 -50.0 0.616 0.592 0.478
v 1879.0 315.0 -50.0 0.616 0.592 0.478
v 1879.0 959.0 -50.0 0.616 0.592 0.478
v 1679.0 1097.0 -50.0 0.616 0.592 0.478
v 1779.0 1971.0 -50.0 0.616 0.592 0.478
v 1679.0 2017.0 -50.0 0.616 0.592 0.478
v 1779.0 1143.0 -50.0 0.616 0.592 0.478
v 1879.0 1235.0 -50.0 0.616 0.592 0.478
v 1879.0 1879.0 -50.0 0.616 0.592 0.478
v 1779.0 1971.0 -50.0 0.616 0.592 0.478
v 1679.0 1097.0 -50.0 0.616 0.592 0.478
v 1811.0 -2610.0 -50.0 0.000 0.000 0.000
v 1679.0 2107.0 -50.0 0.000 0.000 0.000
v 1679.0 -2493.0 -50.0 0.000 0.000 0.000
v -1821.0 -2493.0 -50.0 0.000 0.000 0.000
v 1811.0 -2610.0 -50.0 0.000 0.000 0.000
v 1679.0 -2493.0 -50.0 0.000 0.000 0.000
v 712.0 1145.0 -50.0 0.835 0.804 0.647
v 1554.0 1145.0 -50.0 0.835 0.804 0.647
v 1554.0 1977.0 -50.0 0.835 0.804 0.647
v 712.0 1977.0 -50.0 0.835 0.804 0.647
v 712.0 2107.0 -50.0 0.835 0.804 0.647
v -1821.0 2107.0 -50.0 0.835 0.804 0.647
v -1821.0 -2493.0 -50.0 0.835 0.804 0.647
v 1679.0 -2493.0 -50.0 0.835 0.804 0.647
v 1679.0 1145.0 -50.0 0.835 0.804 0.647
v 1679.0 2107.0 -50.0 0.835 0.804 0.647
v 712.0 2107.0 -50.0 0.835 0.804 0.647
v 712.0 1977.0 -50.0 0.835 0.804 0.647
v 1554.0 1977.0 -50.0 0.835 0.804 0.647
v 1554.0 1145.0 -50.0 0.835 0.804 0.647
v 1679.0 1145.0 -50.0 0.835 0.804 0.647
v 1811.0 -2610.0 -50.0 0.000 0.000 0.000
v 1679.0 2107.0 -50.0 0.000 0.000 0.000
v 1679.0 -2493.0 -50.0 0.000 0.000 0.000
v -1821.0 -2493.0 -50.0 0.000 0.000 0.000
v 1811.0 -2610.0 -50.0 0.000 0.000 0.000
v 1679.0 -2493.0 -50.0 0.000 0.000 0.000
v -1821.0 -2493.0 -50.0 0.835 0.804 0.647
v 1679.0 -2493.0 -50.0 0.835 0.804 0.647
v 1679.0 2107.0 -50.0 0.835 0.804 0.647
v -1821.0 2107.0 -50.0 0.835 0.804 0.647
v 1811.0 -2610.0 -50.0 0.000 0.000 0.000
v 1679.0 2107.0 -50.0 0.000 0.000 0.000
v 1679.0 -2493.0 -50.0 0.000 0.000 0.000
v -1821.0 -2493.0 -50.0 0.000 0.000 0.000
v 1811.0 -2610.0 -50.0 0.000 0.000 0.000
v 1679.0 -2493.0 -50.0 0.000 0.000 0.000
v 1651.0 1997.0 -50.0 0.106 0.106 0.106
v 1679.0 2023.0 -50.0 0.106 0.106 0.106
v 957.0 2023.0 -50.0 0.106 0.106 0.106
v 984.0 1997.0 -50.0 0.106 0.106 0.106
v 957.0 1530.0 -50.0 0.106 0.106 0.106
v 984.0 1572.0 -50.0 0.106 0.106 0.106
v 1679.0 1530.0 -50.0 0.106 0.106 0.106
v 1651.0 1572.0 -50.0 0.106 0.106 0.106
v 957.0 1997.0 -50.0 0.106 0.106 0.106
v 262.0 2023.0 -50.0 0.106 0.106 0.106
v 957.0 1997.0 -50.0 0.106 0.106 0.106
v 262.0 2023.0 -50.0 0.106 0.106 0.106
v 290.0 1997.0 -50.0 0.106 0.106 0.106
v 262.0 1530.0 -50.0 0.106 0.106 0.106
v 290.0 1572.0 -50.0 0.106 0.106 0.106
v 957.0 1530.0 -50.0 0.106 0.106 0.106
v 957.0 1572.0 -50.0 0.106 0.106 0.106
v 262.0 1997.0 -50.0 0.106 0.106 0.106
v -432.0 2023.0 -50.0 0.106 0.106 0.106
v -404.0 1997.0 -50.0 0.106 0.106 0.106
v -432.0 1530.0 -50.0 0.106 0.106 0.106
v -404.0 1572.0 -50.0 0.106 0.106 0.106
v 262.0 1572.0 -50.0 0.106 0.106 0.106
v -1821.0 2107.0 -50.0 0.416 0.400 0.325
v -1821.0 2023.0 -50.0 0.416 0.400 0.325
v 1679.0 2023.0 -50.0 0.416 0.400 0.325
v -1821.0 2107.0 -50.0 0.416 0.400 0.325
v 1679.0 2023.0 -50.0 0.416 0.400 0.325
v 1679.0 2107.0 -50.0 0.416 0.400 0.325
v -432.0 1997.0 -50.0 0.106 0.106 0.106
v -432.0 2023.0 -50.0 0.106 0.106 0.106
v -1127.0 2023.0 -50.0 0.106 0.106 0.106
v -1099.0 1997.0 -50.0 0.106 0.106 0.106
v -1127.0 1530.0 -50.0 0.106 0.106 0.106
v -1099.0 1572.0 -50.0 0.106 0.106 0.106
v -432.0 1530.0 -50.0 0.106 0.106 0.106
v -432.0 1572.0 -50.0 0.106 0.106 0.106
v -1127.0 1997.0 -50.0 0.106 0.106 0.106
v -1821.0 2023.0 -50.0 0.106 0.106 0.106
v -1793.0 1997.0 -50.0 0.106 0.106 0.106
v -1821.0 1530.0 -50.0 0.106 0.106 0.106
v -1793.0 1572.0 -50.0 0.106 0.106 0.106
v -1821.0 1530.0 -50.0 0.106 0.106 0.106
v -1127.0 1530.0 -50.0 0.106 0.106 0.106
v -1127.0 1572.0 -50.0 0.106 0.106 0.106
v -1793.0 1572.0 -50.0 0.106 0.106 0.106
v 1679.0 1417.0 -50.0 0.494 0.475 0.380
v 1679.0 1446.0 -50.0 0.494 0.475 0.380
v -1821.0 1446.0 -50.0 0.494 0.475 0.380
v -1821.0 1417.0 -50.0 0.494 0.475 0.380
v -1821.0 1530.0 -50.0 0.416 0.400 0.325
v -1821.0 1446.0 -50.0 0.416 0.400 0.325
v 1679.0 1446.0 -50.0 0.416 0.400 0.325
v 1679.0 1530.0 -50.0 0.416 0.400 0.325
v 1651.0 1307.0 -50.0 0.106 0.106 0.106
v 1679.0 1333.0 -50.0 0.106 0.106 0.106
v 957.0 1333.0 -50.0 0.106 0.106 0.106
v 984.0 1307.0 -50.0 0.106 0.106 0.106
v 957.0 840.0 -50.0 0.106 0.106 0.106
v 984.0 882.0 -50.0 0.106 0.106 0.106
v 984.0 1307.0 -50.0 0.106 0.106 0.106
v 957.0 1333.0 -50.0 0.106 0.106 0.106
v 1679.0 840.0 -50.0 0.106 0.106 0.106
v 1651.0 882.0 -50.0 0.106 0.106 0.106
v 1679.0 1333.0 -50.0 0.106 0.106 0.106
v 1651.0 1307.0 -50.0 0.106 0.106 0.106
v 957.0 1307.0 -50.0 0.106 0.106 0.106
v 262.0 1333.0 -50.0 0.106 0.106 0.106
v 290.0 1307.0 -50.0 0.106 0.106 0.106
v 262.0 840.0 -50.0 0.106 0.106 0.106
v 290.0 882.0 -50.0 0.106 0.106 0.106
v 957.0 882.0 -50.0 0.106 0.106 0.106
v 262.0 1307.0 -50.0 0.106 0.106 0.106
v -432.0 1333.0 -50.0 0.106 0.106 0.106
v 262.0 1307.0 -50.0 0.106 0.106 0.106
v -432.0 1333.0 -50.0 0.106 0.106 0.106
v -404.0 1307.0 -50.0 0.106 0.106 0.106
v -432.0 840.0 -50.0 0.106 0.106 0.106
v -404.0 882.0 -50.0 0.106 0.106 0.106
v 262.0 840.0 -50.0 0.106 0.106 0.106
v 262.0 882.0 -50.0 0.106 0.106 0.106
v -1821.0 1417.0 -50.0 0.416 0.400 0.325
v -1821.0 1333.0 -50.0 0.416 0.400 0.325
v 1679.0 1333.0 -50.0 0.416 0.400 0.325
v 1679.0 1417.0 -50.0 0.416 0.400 0.325
v -432.0 1307.0 -50.0 0.106 0.106 0.106
v -1127.0 1333.0 -50.0 0.106 0.106 0.106
v -1099.0 1307.0 -50.0 0.106 0.106 0.106
v -1127.0 840.0 -50.0 0.106 0.106 0.106
v -1099.0 882.0 -50.0 0.106 0.106 0.106
v -1127.0 840.0 -50.0 0.106 0.106 0.106
v -432.0 840.0 -50.0 0.106 0.106 0.106
v -432.0 882.0 -50.0 0.106 0.106 0.106
v -1099.0 882.0 -50.0 0.106 0.106 0.106
v -1127.0 1307.0 -50.0 0.106 0.106 0.106
v -1127.0 1333.0 -50.0 0.106 0.106 0.106
v -1821.0 1333.0 -50.0 0.106 0.106 0.106
v -1793.0 1307.0 -50.0 0.106 0.106 0.106
v -1821.0 840.0 -50.0 0.106 0.106 0.106
v -1793.0 882.0 -50.0 0.106 0.106 0.106
v -1127.0 882.0 -50.0 0.106 0.106 0.106
v 1679.0 727.0 -50.0 0.494 0.475 0.380
v 1679.0 756.0 -50.0 0.494 0.475 0.380
v -1821.0 756.0 -50.0 0.494 0.475 0.380
v -1821.0 727.0 -50.0 0.494 0.475 0.380
v -1821.0 840.0 -50.0 0.416 0.400 0.325
v -1821.0 756.0 -50.0 0.416 0.400 0.325
v 1679.0 756.0 -50.0 0.416 0.400 0.325
v 1679.0 840.0 -50.0 0.416 0.400 0.325
v 1651.0 617.0 -50.0 0.106 0.106 0.106
v 1679.0 643.0 -50.0 0.106 0.106 0.106
v 957.0 643.0 -50.0 0.106 0.106 0.106
v 984.0 617.0 -50.0 0.106 0.106 0.106
v 957.0 150.0 -50.0 0.106 0.106 0.106
v 984.0 192.0 -50.0 0.106 0.106 0.106
v 1679.0 150.0 -50.0 0.106 0.106 0.106
v 1651.0 192.0 -50.0 0.106 0.106 0.106
v 957.0 617.0 -50.0 0.106 0.106 0.106
v 262.0 643.0 -50.0 0.106 0.106 0.106
v 290.0 617.0 -50.0 0.106 0.106 0.106
v 262.0 150.0 -50.0 0.106 0.106 0.106
v 290.0 192.0 -50.0 0.106 0.106 0.106
v 290.0 617.0 -50.0 0.106 0.106 0.106
v 262.0 643.0 -50.0 0.106 0.106 0.106
v 957.0 150.0 -50.0 0.106 0.106 0.106
v 957.0 192.0 -50.0 0.106 0.106 0.106
v 262.0 617.0 -50.0 0.106 0.106 0.106
v -432.0 643.0 -50.0 0.106 0.106 0.106
v -404.0 617.0 -50.0 0.106 0.106 0.106
v -432.0 150.0 -50.0 0.106 0.106 0.106
v -404.0 192.0 -50.0 0.106 0.106 0.106
v 262.0 192.0 -50.0 0.106 0.106 0.106
v -1821.0 727.0 -50.0 0.416 0.400 0.325
v -1821.0 643.0 -50.0 0.416 0.400 0.325
v 1679.0 643.0 -50.0 0.416 0.400 0.325
v 1679.0 727.0 -50.0 0.416 0.400 0.325
v -432.0 617.0 -50.0 0.106 0.106 0.106
v -432.0 643.0 -50.0 0.106 0.106 0.106
v -1127.0 643.0 -50.0 0.106 0.106 0.106
v -1099.0 617.0 -50.0 0.106 0.106 0.106
v -1127.0 150.0 -50.0 0.106 0.106 0.106
v -1099.0 192.0 -50.0 0.106 0.106 0.106
v -432.0 150.0 -50.0 0.106 0.106 0.106
v -432.0 192.0 -50.0 0.106 0.106 0.106
v -1127.0 617.0 -50.0 0.106 0.106 0.106
v -1821.0 643.0 -50.0 0.106 0.106 0.106
v -1793.0 617.0 -50.0 0.106 0.106 0.106
v -1821.0 150.0 -50.0 0.106 0.106 0.106
v -1793.0 192.0 -50.0 0.106 0.106 0.106
v -1127.0 192.0 -50.0 0.106 0.106 0.106
v 1679.0 37.0 -50.0 0.494 0.475 0.380
v 1679.0 66.0 -50.0 0.494 0.475 0.380
v -1821.0 66.0 -50.0 0.494 0.475 0.380
v -1821.0 37.0 -50.0 0.494 0.475 0.380
v -1821.0 150.0 -50.0 0.416 0.400 0.325
v -1821.0 66.0 -50.0 0.416 0.400 0.325
v 1679.0 66.0 -50.0 0.416 0.400 0.325
v 1679.0 150.0 -50.0 0.416 0.400 0.325
v 1651.0 -73.0 -50.0 0.106 0.106 0.106
v 1679.0 -47.0 -50.0 0.106 0.106 0.106
v 957.0 -47.0 -50.0 0.106 0.106 0.106
v 984.0 -73.0 -50.0 0.106 0.106 0.106
v 957.0 -540.0 -50.0 0.106 0.106 0.106
v 984.0 -498.0 -50.0 0.106 0.106 0.106
v 1679.0 -540.0 -50.0 0.106 0.106 0.106
v 1651.0 -498.0 -50.0 0.106 0.106 0.106
v 957.0 -73.0 -50.0 0.106 0.106 0.106
v 957.0 -47.0 -50.0 0.106 0.106 0.106
v 262.0 -47.0 -50.0 0.106 0.106 0.106
v 290.0 -73.0 -50.0 0.106 0.106 0.106
v 262.0 -540.0 -50.0 0.106 0.106 0.106
v 290.0 -498.0 -50.0 0.106 0.106 0.106
v 957.0 -540.0 -50.0 0.106 0.106 0.106
v 957.0 -498.0 -50.0 0.106 0.106 0.106
v 262.0 -73.0 -50.0 0.106 0.106 0.106
v -432.0 -47.0 -50.0 0.106 0.106 0.106
v -404.0 -73.0 -50.0 0.106 0.106 0.106
v -432.0 -540.0 -50.0 0.106 0.106 0.106
v -404.0 -498.0 -50.0 0.106 0.106 0.106
v 262.0 -498.0 -50.0 0.106 0.106 0.106
v -1821.0 37.0 -50.0 0.416 0.400 0.325
v -1821.0 -47.0 -50.0 0.416 0.400 0.325
v 1679.0 -47.0 -50.0 0.416 0.400 0.325
v 1679.0 37.0 -50.0 0.416 0.400 0.325
v -432.0 -73.0 -50.0 0.106 0.106 0.106
v -432.0 -47.0 -50.0 0.106 0.106 0.106
v -1127.0 -47.0 -50.0 0.106 0.106 0.106
v -1099.0 -73.0 -50.0 0.106 0.106 0.106
v -1127.0 -540.0 -50.0 0.106 0.106 0.106
v -1099.0 -498.0 -50.0 0.106 0.106 0.106
v -432.0 -540.0 -50.0 0.106 0.106 0.106
v -432.0 -498.0 -50.0 0.106 0.106 0.106
v -1127.0 -73.0 -50.0 0.106 0.106 0.106
v -1821.0 -47.0 -50.0 0.106 0.106 0.106
v -1793.0 -73.0 -50.0 0.106 0.106 0.106
v -1821.0 -540.0 -50.0 0.106 0.106 0.106
v -1793.0 -498.0 -50.0 0.106 0.106 0.106
v -1793.0 -73.0 -50.0 0.106 0.106 0.106
v -1821.0 -47.0 -50.0 0.106 0.106 0.106
v -1127.0 -540.0 -50.0 0.106 0.106 0.106
v -1127.0 -498.0 -50.0 0.106 0.106 0.106
v -1821.0 -540.0 -50.0 0.416 0.400 0.325
v -1821.0 -624.0 -50.0 0.416 0.400 0.325
v 1679.0 -624.0 -50.0 0.416 0.400 0.325
v 1679.0 -540.0 -50.0 0.416 0.400 0.325
v -1821.0 -2493.0 -50.0 0.718 0.690 0.561
v 1679.0 -2493.0 -50.0 0.718 0.690 0.561
v 1679.0 -670.0 -50.0 0.718 0.690 0.561
v -1821.0 -670.0 -50.0 0.718 0.690 0.561
v 1679.0 -670.0 -50.0 0.494 0.475 0.380
v 1679.0 -624.0 -50.0 0.494 0.475 0.380
v -1821.0 -624.0 -50.0 0.494 0.475 0.380
v -1821.0 -670.0 -50.0 0.494 0.475 0.380
v -1793.0 1572.0 -50.0 0.996 0.996 0.996
v -1127.0 1572.0 -50.0 0.996 0.996 0.996
v -1127.0 1997.0 -50.0 0.996 0.996 0.996
v -1793.0 1997.0 -50.0 0.996 0.996 0.996
v -1099.0 1572.0 -50.0 0.996 0.996 0.996
v -432.0 1572.0 -50.0 0.996 0.996 0.996
v -432.0 1997.0 -50.0 0.996 0.996 0.996
v -1099.0 1997.0 -50.0 0.996 0.996 0.996
v -404.0 1572.0 -50.0 0.996 0.996 0.996
v 262.0 1572.0 -50.0 0.996 0.996 0.996
v 262.0 1997.0 -50.0 0.996 0.996 0.996
v -404.0 1997.0 -50.0 0.996 0.996 0.996
v 290.0 1572.0 -50.0 0.996 0.996 0.996
v 957.0 1572.0 -50.0 0.996 0.996 0.996
v 957.0 1997.0 -50.0 0.996 0.996 0.996
v 290.0 1997.0 -50.0 0.996 0.996 0.996
v 984.0 1572.0 -50.0 0.996 0.996 0.996
v 1651.0 1572.0 -50.0 0.996 0.996 0.996
v 1651.0 1997.0 -50.0 0.996 0.996 0.996
v 984.0 1997.0 -50.0 0.996 0.996 0.996
v -1793.0 882.0 -50.0 0.996 0.996 0.996
v -1127.0 882.0 -50.0 0.996 0.996 0.996
v -1127.0 1307.0 -50.0 0.996 0.996 0.996
v -1793.0 1307.0 -50.0 0.996 0.996 0.996
v -1099.0 882.0 -50.0 0.996 0.996 0.996
v -432.0 882.0 -50.0 0.996 0.996 0.996
v -432.0 1307.0 -50.0 0.996 0.996 0.996
v -1099.0 1307.0 -50.0 0.996 0.996 0.996
v -404.0 882.0 -50.0 0.996 0.996 0.996
v 262.0 882.0 -50.0 0.996 0.996 0.996
v 262.0 1307.0 -50.0 0.996 0.996 0.996
v -404.0 1307.0 -50.0 0.996 0.996 0.996
v 290.0 882.0 -50.0 0.996 0.996 0.996
v 957.0 882.0 -50.0 0.996 0.996 0.996
v 957.0 1307.0 -50.0 0.996 0.996 0.996
v 290.0 1307.0 -50.0 0.996 0.996 0.996
v 984.0 882.0 -50.0 0.996 0.996 0.996
v 1651.0 882.0 -50.0 0.996 0.996 0.996
v 1651.0 1307.0 -50.0 0.996 0.996 0.996
v 984.0 1307.0 -50.0 0.996 0.996 0.996
v -1793.0 192.0 -50.0 0.996 0.996 0.996
v -1127.0 192.0 -50.0 0.996 0.996 0.996
v -1127.0 617.0 -50.0 0.996 0.996 0.996
v -1793.0 617.0 -50.0 0.996 0.996 0.996
v -1099.0 192.0 -50.0 0.996 0.996 0.996
v -432.0 192.0 -50.0 0.996 0.996 0.996
v -432.0 617.0 -50.0 0.996 0.996 0.996
v -1099.0 617.0 -50.0 0.996 0.996 0.996
v -404.0 192.0 -50.0 0.996 0.996 0.996
v 262.0 192.0 -50.0 0.996 0.996 0.996
v 262.0 617.0 -50.0 0.996 0.996 0.996
v -404.0 617.0 -50.0 0.996 0.996 0.996
v 290.0 192.0 -50.0 0.996 0.996 0.996
v 957.0 192.0 -50.0 0.996 0.996 0.996
v 957.0 617.0 -50.0 0.996 0.996 0.996
v 290.0 617.0 -50.0 0.996 0.996 0.996
v 984.0 192.0 -50.0 0.996 0.996 0.996
v 1651.0 192.0 -50.0 0.996 0.996 0.996
v 1651.0 617.0 -50.0 0.996 0.996 0.996
v 984.0 617.0 -50.0 0.996 0.996 0.996
v -1793.0 -498.0 -50.0 0.996 0.996 0.996
v -1127.0 -498.0 -50.0 0.996 0.996 0.996
v -1127.0 -73.0 -50.0 0.996 0.996 0.996
v -1793.0 -73.0 -50.0 0.996 0.996 0.996
v -1099.0 -498.0 -50.0 0.996 0.996 0.996
v -432.0 -498.0 -50.0 0.996 0.996 0.996
v -432.0 -73.0 -50.0 0.996 0.996 0.996
v -1099.0 -73.0 -50.0 0.996 0.996 0.996
v -404.0 -498.0 -50.0 0.996 0.996 0.996
v 262.0 -498.0 -50.0 0.996 0.996 0.996
v 262.0 -73.0 -50.0 0.996 0.996 0.996
v -404.0 -73.0 -50.0 0.996 0.996 0.996
v 290.0 -498.0 -50.0 0.996 0.996 0.996
v 957.0 -498.0 -50.0 0.996 0.996 0.996
v 957.0 -73.0 -50.0 0.996 0.996 0.996
v 290.0 -73.0 -50.0 0.996 0.996 0.996
v 984.0 -498.0 -50.0 0.996 0.996 0.996
v 1651.0 -498.0 -50.0 0.996 0.996 0.996
v 1651.0 -73.0 -50.0 0.996 0.996 0.996
v 984.0 -73.0 -50.0 0.996 0.996 0.996
v 179.0 -618.0 -50.0 1.000 0.000 0.000
v -71.0 -368.0 -50.0 0.588 0.000 0.000
v -821.0 -1118.0 -50.0 1.000 0.000 0.000
v -571.0 -1368.0 -50.0 0.435 0.000 0.000
v -196.0 -1743.0 -50.0 0.435 0.000 0.000
v 554.0 -993.0 -50.0 1.000 0.000 0.000
v 304.0 -743.0 -50.0 0.435 0.000 0.000
v -446.0 -1493.0 -50.0 1.000 0.000 0.000
v 554.0 -993.0 -50.0 0.435 0.000 0.000
v 1304.0 -243.0 -50.0 1.000 0.000 0.000
v 1054.0 7.0 -50.0 0.435 0.000 0.000
v 304.0 -743.0 -50.0 1.000 0.000 0.000
v 929.0 132.0 -50.0 1.000 0.000 0.000
v 679.0 382.0 -50.0 0.435 0.000 0.000
v -71.0 -368.0 -50.0 0.588 0.000 0.000
v 179.0 -618.0 -50.0 0.435 0.000 0.000
v -1592.0 1703.0 -50.0 0.000 0.000 0.000
v -1270.0 1703.0 -50.0 0.000 0.000 0.000
v -1270.0 1921.0 -50.0 0.000 0.000 0.000
v -1592.0 1921.0 -50.0 0.000 0.000 0.000
v -1270.0 1703.0 -50.0 0.000 0.000 0.000
v -948.0 1703.0 -50.0 0.000 0.000 0.000
v -948.0 1921.0 -50.0 0.000 0.000 0.000
v -1270.0 1921.0 -50.0 0.000 0.000 0.000
v -150.0 -130.0 -50.0 1.000 0.000 0.000
v 53.0 160.0 -50.0 0.435 0.000 0.000
v -1395.0 1174.0 -50.0 1.000 0.000 0.000
v -1598.0 884.0 -50.0 0.435 0.000 0.000
v -150.0 -130.0 -50.0 0.435 0.000 0.000
v 1298.0 -1144.0 -50.0 1.000 0.000 0.000
v 1501.0 -854.0 -50.0 0.435 0.000 0.000
v 53.0 160.0 -50.0 1.000 0.000 0.000
v 361.0 -537.0 -50.0 1.000 0.000 0.000
v 107.0 -291.0 -50.0 0.435 0.000 0.000
v -1121.0 -1563.0 -50.0 1.000 0.000 0.000
v -867.0 -1808.0 -50.0 0.435 0.000 0.000
v 361.0 -537.0 -50.0 0.435 0.000 0.000
v 1589.0 735.0 -50.0 1.000 0.000 0.000
v 1335.0 981.0 -50.0 0.435 0.000 0.000
v 107.0 -291.0 -50.0 1.000 0.000 0.000
v -321.0 -373.0 -50.0 1.000 0.000 0.000
v -119.0 -84.0 -50.0 0.490 0.000 0.000
v -1175.0 658.0 -50.0 1.000 0.000 0.000
v -1378.0 368.0 -50.0 0.435 0.000 0.000
v -321.0 -373.0 -50.0 1.000 0.000 0.000
v 662.0 -1068.0 -50.0 1.000 0.000 0.000
v 865.0 -778.0 -50.0 0.435 0.000 0.000
v -119.0 -84.0 -50.0 0.490 0.000 0.000
v -1739.0 431.0 2.0 0.000 0.000 0.000
v -434.0 431.0 2.0 0.000 0.000 0.000
v -434.0 526.0 2.0 0.000 0.000 0.000
v -1613.0 526.0 2.0 0.000 0.000 0.000
v -1739.0 431.0 2.0 0.000 0.000 0.000
v -1613.0 526.0 2.0 0.000 0.000 0.000
v -1613.0 2121.0 2.0 0.000 0.000 0.000
v -978.0 2121.0 2.0 0.996 0.996 0.996
v -1613.0 2121.0 2.0 0.996 0.996 0.996
v -1613.0 1324.0 2.0 0.996 0.996 0.996
v -978.0 1324.0 2.0 0.996 0.996 0.996
v -344.0 1324.0 2.0 0.996 0.996 0.996
v -344.0 2121.0 2.0 0.996 0.996 0.996
v -978.0 2121.0 2.0 0.996 0.996 0.996
v -978.0 1324.0 2.0 0.996 0.996 0.996
v -1613.0 526.0 2.0 0.996 0.996 0.996
v -978.0 526.0 2.0 0.996 0.996 0.996
v -978.0 1324.0 2.0 0.996 0.996 0.996
v -1613.0 1324.0 2.0 0.996 0.996 0.996
v -978.0 526.0 2.0 0.996 0.996 0.996
v -344.0 526.0 2.0 0.996 0.996 0.996
v -344.0 1324.0 2.0 0.996 0.996 0.996
v -978.0 1324.0 2.0 0.996 0.996 0.996
v -978.0 2121.0 2.0 0.996 0.996 0.996
v -1613.0 2121.0 2.0 0.996 0.996 0.996
v -1613.0 1324.0 2.0 0.996 0.996 0.996
v -978.0 1324.0 2.0 0.996 0.996 0.996
v -344.0 1324.0 2.0 0.996 0.996 0.996
v -344.0 2121.0 2.0 0.996 0.996 0.996
v -978.0 2121.0 2.0 0.996 0.996 0.996
v -978.0 1324.0 2.0 0.996 0.996 0.996
v -1613.0 526.0 2.0 0.996 0.996 0.996
v -978.0 526.0 2.0 0.996 0.996 0.996
v -978.0 1324.0 2.0 0.996 0.996 0.996
v -1613.0 1324.0 2.0 0.996 0.996 0.996
v -978.0 526.0 2.0 0.996 0.996 0.996
v -344.0 526.0 2.0 0.996 0.996 0.996
v -344.0 1324.0 2.0 0.996 0.996 0.996
v -978.0 1324.0 2.0 0.996 0.996 0.996
v -978.0 2121.0 2.0 0.996 0.996 0.996
v -1613.0 2121.0 2.0 0.996 0.996 0.996
v -1613.0 1324.0 2.0 0.996 0.996 0.996
v -978.0 1324.0 2.0 0.996 0.996 0.996
v -344.0 1324.0 2.0 0.996 0.996 0.996
v -344.0 2121.0 2.0 0.996 0.996 0.996
v -978.0 2121.0 2.0 0.996 0.996 0.996
v -978.0 1324.0 2.0 0.996 0.996 0.996
v -1613.0 526.0 2.0 0.996 0.996 0.996
v -978.0 526.0 2.0 0.996 0.996 0.996
v -978.0 1324.0 2.0 0.996 0.996 0.996
v -1613.0 1324.0 2.0 0.996 0.996 0.996
v -978.0 526.0 2.0 0.996 0.996 0.996
v -344.0 526.0 2.0 0.996 0.996 0.996
v -344.0 1324.0 2.0 0.996 0.996 0.996
v -978.0 1324.0 2.0 0.996 0.996 0.996
v -978.0 2121.0 2.0 0.996 0.996 0.996
v -1613.0 2121.0 2.0 0.996 0.996 0.996
v -1613.0 1324.0 2.0 0.996 0.996 0.996
v -978.0 1324.0 2.0 0.996 0.996 0.996
v -344.0 1324.0 2.0 0.996 0.996 0.996
v -344.0 2121.0 2.0 0.996 0.996 0.996
v -978.0 2121.0 2.0 0.996 0.996 0.996
v -978.0 1324.0 2.0 0.996 0.996 0.996
v -1613.0 526.0 2.0 0.996 0.996 0.996
v -978.0 526.0 2.0 0.996 0.996 0.996
v -978.0 1324.0 2.0 0.996 0.996 0.996
v -1613.0 1324.0 2.0 0.996 0.996 0.996
v -978.0 526.0 2.0 0.996 0.996 0.996
v -344.0 526.0 2.0 0.996 0.996 0.996
v -344.0 1324.0 2.0 0.996 0.996 0.996
v -978.0 1324.0 2.0 0.996 0.996 0.996
v -1306.0 1877.0 2.0 0.996 0.996 0.996
v -1306.0 2327.0 2.0 0.996 0.996 0.996
v -1456.0 2327.0 2.0 0.996 0.996 0.996
v -1456.0 1877.0 2.0 0.996 0.996 0.996
v 115.0 726.0 2.0 0.000 0.000 0.000
v 221.0 819.0 2.0 0.000 0.000 0.000
v 221.0 2121.0 2.0 0.000 0.000 0.000
v 221.0 819.0 2.0 0.000 0.000 0.000
v 115.0 726.0 2.0 0.000 0.000 0.000
v 1451.0 726.0 2.0 0.000 0.000 0.000
v 1451.0 819.0 2.0 0.000 0.000 0.000
v 1562.0 1470.0 2.0 0.996 0.996 0.996
v 1562.0 2121.0 2.0 0.996 0.996 0.996
v 221.0 2121.0 2.0 0.996 0.996 0.996
v 221.0 1470.0 2.0 0.996 0.996 0.996
v 221.0 1470.0 2.0 0.996 0.996 0.996
v 221.0 819.0 2.0 0.996 0.996 0.996
v 1562.0 819.0 2.0 0.996 0.996 0.996
v 1562.0 1470.0 2.0 0.996 0.996 0.996
v 1562.0 1470.0 2.0 0.996 0.996 0.996
v 1562.0 2121.0 2.0 0.996 0.996 0.996
v 221.0 2121.0 2.0 0.996 0.996 0.996
v 221.0 1470.0 2.0 0.996 0.996 0.996
v 221.0 1470.0 2.0 0.996 0.996 0.996
v 221.0 819.0 2.0 0.996 0.996 0.996
v 1562.0 819.0 2.0 0.996 0.996 0.996
v 1562.0 1470.0 2.0 0.996 0.996 0.996
v 1562.0 1470.0 2.0 0.996 0.996 0.996
v 1562.0 2121.0 2.0 0.996 0.996 0.996
v 221.0 2121.0 2.0 0.996 0.996 0.996
v 221.0 1470.0 2.0 0.996 0.996 0.996
v 221.0 1470.0 2.0 0.996 0.996 0.996
v 221.0 819.0 2.0 0.996 0.996 0.996
v 1562.0 819.0 2.0 0.996 0.996 0.996
v 1562.0 1470.0 2.0 0.996 0.996 0.996
v 1562.0 1470.0 2.0 0.996 0.996 0.996
v 1562.0 2121.0 2.0 0.996 0.996 0.996
v 221.0 2121.0 2.0 0.996 0.996 0.996
v 221.0 1470.0 2.0 0.996 0.996 0.996
v 221.0 1470.0 2.0 0.996 0.996 0.996
v 221.0 819.0 2.0 0.996 0.996 0.996
v 1562.0 819.0 2.0 0.996 0.996 0.996
v 1562.0 1470.0 2.0 0.996 0.996 0.996
v 1562.0 1470.0 2.0 0.996 0.996 0.996
v 1562.0 2121.0 2.0 0.996 0.996 0.996
v 221.0 2121.0 2.0 0.996 0.996 0.996
v 221.0 1470.0 2.0 0.996 0.996 0.996
v 221.0 1470.0 2.0 0.996 0.996 0.996
v 221.0 819.0 2.0 0.996 0.996 0.996
v 1562.0 819.0 2.0 0.996 0.996 0.996
v 1562.0 1470.0 2.0 0.996 0.996 0.996
v 1562.0 1470.0 2.0 0.996 0.996 0.996
v 1562.0 2121.0 2.0 0.996 0.996 0.996
v 221.0 2121.0 2.0 0.996 0.996 0.996
v 221.0 1470.0 2.0 0.996 0.996 0.996
v 221.0 1470.0 2.0 0.996 0.996 0.996
v 221.0 819.0 2.0 0.996 0.996 0.996
v 1562.0 819.0 2.0 0.996 0.996 0.996
v 1562.0 1470.0 2.0 0.996 0.996 0.996
v 1562.0 1470.0 2.0 0.996 0.996 0.996
v 1562.0 2121.0 2.0 0.996 0.996 0.996
v 221.0 2121.0 2.0 0.996 0.996 0.996
v 221.0 1470.0 2.0 0.996 0.996 0.996
v 221.0 1470.0 2.0 0.996 0.996 0.996
v 221.0 819.0 2.0 0.996 0.996 0.996
v 1562.0 819.0 2.0 0.996 0.996 0.996
v 1562.0 1470.0 2.0 0.996 0.996 0.996
v 1562.0 1470.0 2.0 0.996 0.996 0.996
v 1562.0 2121.0 2.0 0.996 0.996 0.996
v 221.0 2121.0 2.0 0.996 0.996 0.996
v 221.0 1470.0 2.0 0.996 0.996 0.996
v 221.0 1470.0 2.0 0.996 0.996 0.996
v 221.0 819.0 2.0 0.996 0.996 0.996
v 1562.0 819.0 2.0 0.996 0.996 0.996
v 1562.0 1470.0 2.0 0.996 0.996 0.996
v 1562.0 1470.0 2.0 0.996 0.996 0.996
v 1562.0 2121.0 2.0 0.996 0.996 0.996
v 221.0 2121.0 2.0 0.996 0.996 0.996
v 221.0 1470.0 2.0 0.996 0.996 0.996
v 221.0 1470.0 2.0 0.996 0.996 0.996
v 221.0 819.0 2.0 0.996 0.996 0.996
v 1562.0 819.0 2.0 0.996 0.996 0.996
v 1562.0 1470.0 2.0 0.996 0.996 0.996
v 1562.0 1470.0 2.0 0.996 0.996 0.996
v 1562.0 2121.0 2.0 0.996 0.996 0.996
v 221.0 2121.0 2.0 0.996 0.996 0.996
v 221.0 1470.0 2.0 0.996 0.996 0.996
v 221.0 1470.0 2.0 0.996 0.996 0.996
v 221.0 819.0 2.0 0.996 0.996 0.996
v 1562.0 819.0 2.0 0.996 0.996 0.996
v 1562.0 1470.0 2.0 0.996 0.996 0.996
v 1562.0 1470.0 2.0 0.996 0.996 0.996
v 1562.0 2121.0 2.0 0.996 0.996 0.996
v 221.0 2121.0 2.0 0.996 0.996 0.996
v 221.0 1470.0 2.0 0.996 0.996 0.996
v 221.0 1470.0 2.0 0.996 0.996 0.996
v 221.0 819.0 2.0 0.996 0.996 0.996
v 1562.0 819.0 2.0 0.996 0.996 0.996
v 1562.0 1470.0 2.0 0.996 0.996 0.996
v 1562.0 1470.0 2.0 0.996 0.996 0.996
v 1562.0 2121.0 2.0 0.996 0.996 0.996
v 221.0 2121.0 2.0 0.996 0.996 0.996
v 221.0 1470.0 2.0 0.996 0.996 0.996
v 221.0 1470.0 2.0 0.996 0.996 0.996
v 221.0 819.0 2.0 0.996 0.996 0.996
v 1562.0 819.0 2.0 0.996 0.996 0.996
v 1562.0 1470.0 2.0 0.996 0.996 0.996
v 1562.0 1470.0 2.0 0.996 0.996 0.996
v 1562.0 2121.0 2.0 0.996 0.996 0.996
v 221.0 2121.0 2.0 0.996 0.996 0.996
v 221.0 1470.0 2.0 0.996 0.996 0.996
v 221.0 1470.0 2.0 0.996 0.996 0.996
v 221.0 819.0 2.0 0.996 0.996 0.996
v 1562.0 819.0 2.0 0.996 0.996 0.996
v 1562.0 1470.0 2.0 0.996 0.996 0.996
v 1562.0 1470.0 2.0 0.996 0.996 0.996
v 1562.0 2121.0 2.0 0.996 0.996 0.996
v 221.0 2121.0 2.0 0.996 0.996 0.996
v 221.0 1470.0 2.0 0.996 0.996 0.996
v 221.0 1470.0 2.0 0.996 0.996 0.996
v 221.0 819.0 2.0 0.996 0.996 0.996
v 1562.0 819.0 2.0 0.996 0.996 0.996
v 1562.0 1470.0 2.0 0.996 0.996 0.996
v 1562.0 1470.0 2.0 0.996 0.996 0.996
v 1562.0 2121.0 2.0 0.996 0.996 0.996
v 221.0 2121.0 2.0 0.996 0.996 0.996
v 221.0 1470.0 2.0 0.996 0.996 0.996
v 221.0 1470.0 2.0 0.996 0.996 0.996
v 221.0 819.0 2.0 0.996 0.996 0.996
v 1562.0 819.0 2.0 0.996 0.996 0.996
v 1562.0 1470.0 2.0 0.996 0.996 0.996
v 1562.0 1470.0 2.0 0.996 0.996 0.996
v 1562.0 2121.0 2.0 0.996 0.996 0.996
v 221.0 2121.0 2.0 0.996 0.996 0.996
v 221.0 1470.0 2.0 0.996 0.996 0.996
v 221.0 1470.0 2.0 0.996 0.996 0.996
v 221.0 819.0 2.0 0.996 0.996 0.996
v 1562.0 819.0 2.0 0.996 0.996 0.996
v 1562.0 1470.0 2.0 0.996 0.996 0.996
v 1562.0 1470.0 2.0 0.996 0.996 0.996
v 1562.0 2121.0 2.0 0.996 0.996 0.996
v 221.0 2121.0 2.0 0.996 0.996 0.996
v 221.0 1470.0 2.0 0.996 0.996 0.996
v 221.0 1470.0 2.0 0.996 0.996 0.996
v 221.0 819.0 2.0 0.996 0.996 0.996
v 1562.0 819.0 2.0 0.996 0.996 0.996
v 1562.0 1470.0 2.0 0.996 0.996 0.996
v 1562.0 1470.0 2.0 0.996 0.996 0.996
v 1562.0 2121.0 2.0 0.996 0.996 0.996
v 221.0 2121.0 2.0 0.996 0.996 0.996
v 221.0 1470.0 2.0 0.996 0.996 0.996
v 221.0 1470.0 2.0 0.996 0.996 0.996
v 221.0 819.0 2.0 0.996 0.996 0.996
v 1562.0 819.0 2.0 0.996 0.996 0.996
v 1562.0 1470.0 2.0 0.996 0.996 0.996
v 1562.0 1470.0 2.0 0.996 0.996 0.996
v 1562.0 2121.0 2.0 0.996 0.996 0.996
v 221.0 2121.0 2.0 0.996 0.996 0.996
v 221.0 1470.0 2.0 0.996 0.996 0.996
v 221.0 1470.0 2.0 0.996 0.996 0.996
v 221.0 819.0 2.0 0.996 0.996 0.996
v 1562.0 819.0 2.0 0.996 0.996 0.996
v 1562.0 1470.0 2.0 0.996 0.996 0.996
v 1562.0 1470.0 2.0 0.996 0.996 0.996
v 1562.0 2121.0 2.0 0.996 0.996 0.996
v 221.0 2121.0 2.0 0.996 0.996 0.996
v 221.0 1470.0 2.0 0.996 0.996 0.996
v 221.0 1470.0 2.0 0.996 0.996 0.996
v 221.0 819.0 2.0 0.996 0.996 0.996
v 1562.0 819.0 2.0 0.996 0.996 0.996
v 1562.0 1470.0 2.0 0.996 0.996 0.996
v 600.0 1877.0 2.0 0.996 0.996 0.996
v 600.0 2327.0 2.0 0.996 0.996 0.996
v 450.0 2327.0 2.0 0.996 0.996 0.996
v 450.0 1877.0 2.0 0.996 0.996 0.996
v -2240.0 -2693.0 -100.0 0.106 0.106 0.106
v -2240.0 -2693.0 50.0 0.106 0.106 0.106
v -2240.0 2457.0 50.0 0.106 0.106 0.106
v -2240.0 2457.0 -100.0 0.106 0.106 0.106
v -1585.0 -2608.0 -31.0 0.835 0.804 0.647
v 2240.0 -2363.0 -31.0 0.835 0.804 0.647
v 1892.0 2627.0 -31.0 0.835 0.804 0.647
v -1934.0 2382.0 -31.0 0.835 0.804 0.647
v -2240.0 -2693.0 50.0 0.106 0.106 0.106
v -1983.0 -2693.0 50.0 0.835 0.835 0.647
v -1983.0 2457.0 50.0 0.835 0.835 0.647
v -2240.0 2457.0 50.0 0.106 0.106 0.106
v 1993.0 397.0 50.0 0.835 0.835 0.647
v 2199.0 603.0 50.0 0.835 0.835 0.647
v 2199.0 1736.0 50.0 0.835 0.835 0.647
v 1993.0 1942.0 50.0 0.835 0.835 0.647
v 1993.0 -2693.0 50.0 0.835 0.835 0.647
v 1993.0 397.0 50.0 0.835 0.835 0.647
v -1983.0 -2693.0 50.0 0.835 0.835 0.647
v 1993.0 1942.0 50.0 0.835 0.835 0.647
v -1983.0 2457.0 50.0 0.835 0.835 0.647
v 1993.0 2457.0 50.0 0.835 0.835 0.647
v -760.0 -820.0 50.0 0.933 0.871 0.541
v -44.0 -820.0 50.0 0.722 0.671 0.392
v -44.0 -103.0 50.0 0.933 0.871 0.541
v -760.0 -103.0 50.0 0.722 0.671 0.392
v -44.0 -820.0 50.0 0.722 0.671 0.392
v 672.0 -820.0 50.0 0.933 0.871 0.541
v 672.0 -103.0 50.0 0.722 0.671 0.392
v -44.0 -103.0 50.0 0.933 0.871 0.541
v 672.0 -103.0 50.0 0.722 0.671 0.392
v 672.0 613.0 50.0 0.933 0.871 0.541
v -44.0 613.0 50.0 0.722 0.671 0.392
v -44.0 -103.0 50.0 0.933 0.871 0.541
v -44.0 613.0 50.0 0.722 0.671 0.392
v -760.0 613.0 50.0 0.933 0.871 0.541
v -760.0 -103.0 50.0 0.722 0.671 0.392
v -44.0 -103.0 50.0 0.933 0.871 0.541
v -2165.0 260.0 100.0 0.000 0.000 0.000
v -2034.0 397.0 100.0 0.000 0.000 0.000
v -2034.0 2406.0 100.0 0.000 0.000 0.000
v -2034.0 397.0 100.0 0.000 0.000 0.000
v -2165.0 260.0 100.0 0.000 0.000 0.000
v -571.0 260.0 100.0 0.000 0.000 0.000
v -571.0 397.0 100.0 0.000 0.000 0.000
v -1236.0 2406.0 100.0 0.996 0.996 0.996
v -2034.0 2406.0 100.0 0.890 0.890 0.890
v -2034.0 1401.0 100.0 0.996 0.996 0.996
v -1236.0 1401.0 100.0 0.996 0.996 0.996
v -438.0 1401.0 100.0 0.996 0.996 0.996
v -438.0 2406.0 100.0 0.890 0.890 0.890
v -1236.0 2406.0 100.0 0.996 0.996 0.996
v -1236.0 1401.0 100.0 0.996 0.996 0.996
v -2034.0 397.0 100.0 0.890 0.890 0.890
v -1236.0 397.0 100.0 0.996 0.996 0.996
v -1236.0 1401.0 100.0 0.996 0.996 0.996
v -2034.0 1401.0 100.0 0.996 0.996 0.996
v -1236.0 397.0 100.0 0.996 0.996 0.996
v -438.0 397.0 100.0 0.890 0.890 0.890
v -438.0 1401.0 100.0 0.996 0.996 0.996
v -1236.0 1401.0 100.0 0.996 0.996 0.996
v -1236.0 2406.0 100.0 0.996 0.996 0.996
v -2034.0 2406.0 100.0 0.890 0.890 0.890
v -2034.0 1401.0 100.0 0.996 0.996 0.996
v -1236.0 1401.0 100.0 0.996 0.996 0.996
v -438.0 1401.0 100.0 0.996 0.996 0.996
v -438.0 2406.0 100.0 0.890 0.890 0.890
v -1236.0 2406.0 100.0 0.996 0.996 0.996
v -1236.0 1401.0 100.0 0.996 0.996 0.996
v -2034.0 397.0 100.0 0.890 0.890 0.890
v -1236.0 397.0 100.0 0.996 0.996 0.996
v -1236.0 1401.0 100.0 0.996 0.996 0.996
v -2034.0 1401.0 100.0 0.996 0.996 0.996
v -1236.0 397.0 100.0 0.996 0.996 0.996
v -438.0 397.0 100.0 0.890 0.890 0.890
v -438.0 1401.0 100.0 0.996 0.996 0.996
v -1236.0 1401.0 100.0 0.996 0.996 0.996
v -1236.0 2406.0 100.0 0.996 0.996 0.996
v -2034.0 2406.0 100.0 0.890 0.890 0.890
v -2034.0 1401.0 100.0 0.996 0.996 0.996
v -1236.0 1401.0 100.0 0.996 0.996 0.996
v -438.0 1401.0 100.0 0.996 0.996 0.996
v -438.0 2406.0 100.0 0.890 0.890 0.890
v -1236.0 2406.0 100.0 0.996 0.996 0.996
v -1236.0 1401.0 100.0 0.996 0.996 0.996
v -2034.0 397.0 100.0 0.890 0.890 0.890
v -1236.0 397.0 100.0 0.996 0.996 0.996
v -1236.0 1401.0 100.0 0.996 0.996 0.996
v -2034.0 1401.0 100.0 0.996 0.996 0.996
v -1236.0 397.0 100.0 0.996 0.996 0.996
v -438.0 397.0 100.0 0.890 0.890 0.890
v -438.0 1401.0 100.0 0.996 0.996 0.996
v -1236.0 1401.0 100.0 0.996 0.996 0.996
v -1236.0 2406.0 100.0 0.996 0.996 0.996
v -2034.0 2406.0 100.0 0.890 0.890 0.890
v -2034.0 1401.0 100.0 0.996 0.996 0.996
v -1236.0 1401.0 100.0 0.996 0.996 0.996
v -438.0 1401.0 100.0 0.996 0.996 0.996
v -438.0 2406.0 100.0 0.890 0.890 0.890
v -1236.0 2406.0 100.0 0.996 0.996 0.996
v -1236.0 1401.0 100.0 0.996 0.996 0.996
v -2034.0 397.0 100.0 0.890 0.890 0.890
v -1236.0 397.0 100.0 0.996 0.996 0.996
v -1236.0 1401.0 100.0 0.996 0.996 0.996
v -2034.0 1401.0 100.0 0.996 0.996 0.996
v -1236.0 397.0 100.0 0.996 0.996 0.996
v -438.0 397.0 100.0 0.890 0.890 0.890
v -438.0 1401.0 100.0 0.996 0.996 0.996
v -1236.0 1401.0 100.0 0.996 0.996 0.996
v -1709.0 2183.0 100.0 0.890 0.890 0.890
v -1709.0 2693.0 100.0 0.890 0.890 0.890
v -1879.0 2693.0 100.0 0.890 0.890 0.890
v -1879.0 2183.0 100.0 0.890 0.890 0.890
vt -0.0957 -1.4077
vt -0.0957 1.0000
vt 0.0859 0.9067
vt 0.0859 -1.2441
vt 1.7993 1.0000
vt 1.7993 -1.4077
vt 1.6025 -1.2441
vt 1.6025 0.9067
vt 1.1177 3.0000
vt 1.2354 2.2939
vt 1.1177 2.2354
vt 1.2354 2.9414
vt 1.2939 2.8823
vt 1.2939 2.3530
vt 1.1177 2.0000
vt 1.2354 1.0000
vt 1.1177 0.9414
vt 1.2354 1.9414
vt 1.2939 1.8823
vt 1.2939 1.0586
vt 1.1406 1.0000
vt -8.3633 1.0000
vt 1.0000 0.0000
vt -3.6621 1.0000
vt 1.4941 1.0000
vt 1.3965 -0.0850
vt 0.0000 1.0000
vt 1.0000 1.0000
vt 0.0000 0.0000
vt 0.0000 -0.1416
vt -3.0059 -0.1416
vt -3.0059 5.3174
vt 1.1479 5.3174
vt 1.1479 1.0000
vt 1.1479 -0.1416
vt 0.0000 0.0127
vt 1.0000 0.0127
vt 27.0000 24.6660
vt 26.0000 24.6660
vt 26.0000 -22.6660
vt 27.0000 -22.6660
vt 4.9321 -1.0356
vt 4.9321 -1.0786
vt 0.0000 -1.0786
vt 0.0000 -1.0356
vt 4.9321 -0.0176
vt 4.9321 -0.0610
vt 0.0000 -0.0610
vt 0.0000 -0.0176
vt 4.9321 1.0000
vt 4.9321 0.9570
vt 0.0000 0.9570
vt 0.0000 4.4292
vt 4.9321 4.4292
vt 4.9321 2.0776
vt 0.0000 2.0776
vt 4.9321 2.0176
vt 0.0000 2.0176
vt 0.9895 1.0000
vt 0.9895 0.0312
vt 0.0000 0.0312
vt -0.1641 1.0000
vt 2.2119 1.0000
vt 2.2119 0.0000
vt 0.0264 0.0000
vt -3.4004 1.0000
vt 0.9846 0.0154
vt 0.0000 0.0154
vt 0.9846 1.0000
vt -1.9258 1.0000
vt -2.4102 0.0000
vt -2.8193 1.0000
vt 2.8193 1.0000
vt 2.7783 0.0000
vt -0.0786 1.0879
vt -0.0610 -0.3213
vt 2.0674 1.0000
vt 2.0674 -1.9424
vt 0.0000 -1.9424
vt -0.0903 1.0000
vt 0.0000 -0.8047
vt -0.0903 -0.8047
vt 1.2812 -0.0830
vt 1.3535 -0.1553
vt 1.3535 -0.5522
vt 1.2812 -0.6245
vt 1.2812 1.0000
vt 1.2812 -0.8047
vt -3.0693 1.0000
vt 2.4131 0.0000
vt 2.6289 1.0000
vn 0.000 0.000 1.000
vn 0.000 0.000 1.000
vn 0.000 0.000 1.000
vn 0.000 0.000 1.000
vn 0.000 0.000 1.000
vn 0.000 0.000 1.000
vn 0.000 0.000 1.000
vn 0.000 0.000 1.000
vn 0.000 0.000 1.000
vn 0.000 0.000 1.000
vn 0.000 0.000 1.000
vn 0.000 0.000 1.000
vn 0.000 0.000 1.000
vn 0.000 0.000 1.000
vn 0.000 0.000 1.000
vn 0.000 0.000 1.000
vn 0.000 0.000 1.000
vn 0.000 0.000 1.000
vn 0.000 0.000 1.000
vn 0.000 0.000 1.000
vn 0.000 0.000 1.000
vn 0.000 0.000 1.000
vn 0.000 0.000 1.000
vn 0.000 0.000 1.000
vn 0.000 0.000 1.000
vn 0.000 0.000 1.000
vn 0.000 0.000 1.000
vn 0.000 0.000 1.000
vn 0.000 0.000 1.000
vn 0.000 0.000 1.000
vn 0.000 0.000 1.000
vn 0.000 0.000 1.000
vn 0.000 0.000 1.000
vn 0.000 0.000 1.000
vn 0.000 0.000 1.000
vn 0.000 0.000 1.000
vn 0.000 0.000 1.000
vn 0.000 0.000 1.000
vn 0.000 0.000 1.000
vn 0.000 0.000 1.000
vn 0.000 0.000 1.000
vn 0.000 0.000 1.000
vn 0.000 0.000 1.000
vn 0.000 0.000 1.000
vn 0.000 0.000 1.000
vn 0.000 0.000 1.000
vn 0.000 0.000 1.000
vn 0.000 0.000 1.000
vn 0.000 0.000 1.000
vn 0.000 0.000 1.000
vn 0.000 0.000 1.000
vn 0.000 0.000 1.000
vn 0.000 0.000 1.000
vn 0.000 0.000 1.000
vn 0.000 0.000 1.000
vn 0.000 0.000 1.000
vn 0.000 0.000 1.000
vn 0.000 0.000 1.000
vn 0.000 0.000 1.000
vn 0.000 0.000 1.000
vn 0.000 0.000 1.000
vn 0.000 0.000 1.000
vn 0.000 0.000 1.000
vn 0.000 0.000 1.000
vn 0.000 0.000 1.000
vn 0.000 0.000 1.000
vn 0.000 0.000 1.000
vn 0.000 0.000 1.000
vn 0.000 0.000 1.000
vn 0.000 0.000 1.000
vn 0.000 0.000 1.000
vn 0.000 0.000 1.000
vn 0.000 0.000 1.000
vn 0.000 0.000 1.000
vn 0.000 0.000 1.000
vn 0.000 0.000 1.000
vn 0.000 0.000 1.000
vn 0.000 0.000 1.000
vn 0.000 0.000 1.000
vn 0.000 0.000 1.000
vn 0.000 0.000 1.000
vn 0.000 0.000 1.000
vn 0.000 0.000 1.000
vn 0.000 0.000 1.000
vn 0.000 0.000 1.000
vn 0.000 0.000 1.000
vn 0.000 0.000 1.000
vn 0.000 0.000 1.000
vn 0.000 0.000 1.000
vn 0.000 0.000 1.000
vn 0.000 0.000 1.000
vn 0.000 0.000 1.000
vn 0.000 0.000 1.000
vn 0.000 0.000 1.000
vn 0.000 0.000 1.000
vn 0.000 0.000 1.000
vn 0.000 0.000 1.000
vn 0.000 0.000 1.000
vn 0.000 0.000 1.000
vn 0.000 0.000 1.000
vn 0.000 0.000 1.000
vn 0.000 0.000 1.000
vn 0.000 0.000 1.000
vn 0.000 0.000 1.000
vn 0.000 0.000 1.000
vn 0.000 0.000 1.000
vn 0.000 0.000 1.000
vn 0.000 0.000 1.000
vn 0.000 0.000 1.000
vn 0.000 0.000 1.000
vn 0.000 0.000 1.000
vn 0.000 0.000 1.000
vn 0.000 0.000 1.000
vn 0.000 0.000 1.000
vn 0.000 0.000 1.000
vn 0.000 0.000 1.000
vn 0.000 0.000 1.000
vn 0.000 0.000 1.000
vn 0.000 0.000 1.000
vn 0.000 0.000 1.000
vn 0.000 0.000 1.000
vn 0.000 0.000 1.000
vn 0.000 0.000 1.000
vn 0.000 0.000 1.000
vn 0.000 0.000 1.000
vn 0.000 0.000 1.000
vn 0.000 0.000 1.000
vn 0.000 0.000 1.000
vn 0.000 0.000 1.000
vn 0.000 0.000 1.000
vn 0.000 0.000 1.000
vn 0.000 0.000 1.000
vn 0.000 0.000 1.000
vn 0.000 0.000 1.000
vn 0.000 0.000 1.000
vn 0.000 0.000 1.000
vn 0.000 0.000 1.000
vn 0.000 0.000 1.000
vn 0.000 0.000 1.000
vn 0.000 0.000 1.000
vn 0.000 0.000 1.000
vn 0.000 0.000 1.000
vn 0.000 0.000 1.000
vn 0.000 0.000 1.000
vn 0.000 0.000 1.000
vn 0.000 0.000 1.000
vn 0.000 0.000 1.000
vn 0.000 0.000 1.000
vn 0.000 0.000 1.000
vn 0.000 0.000 1.000
vn 0.000 0.000 1.000
vn 0.000 0.000 1.000
vn 0.000 0.000 1.000
vn 0.000 0.000 1.000
vn 0.000 0.000 1.000
vn 0.000 0.000 1.000
vn 0.000 0.000 1.000
vn 0.000 0.000 1.000
vn 0.000 0.000 1.000
vn 0.000 0.000 1.000
vn 0.000 0.000 1.000
vn 0.000 0.000 1.000
vn 0.000 0.000 1.000
vn 0.000 0.000 1.000
vn 0.000 0.000 1.000
vn 0.000 0.000 1.000
vn 0.000 0.000 1.000
vn 0.000 0.000 1.000
vn 0.000 0.000 1.000
vn 0.000 0.000 1.000
vn 0.000 0.000 1.000
vn 0.000 0.000 1.000
vn 0.000 0.000 1.000
vn 0.000 0.000 1.000
vn 0.000 0.000 1.000
vn 0.000 0.000 1.000
vn 0.000 0.000 1.000
vn 0.000 0.000 1.000
vn 0.000 0.000 1.000
vn 0.000 0.000 1.000
vn 0.000 0.000 1.000
vn 0.000 0.000 1.000
vn 0.000 0.000 1.000
vn 0.000 0.000 1.000
vn 0.000 0.000 1.000
vn 0.000 0.000 1.000
vn 0.000 0.000 1.000
vn 0.000 0.000 1.000
vn 0.000 0.000 1.000
vn 0.000 0.000 1.000
vn 0.000 0.000 1.000
vn 0.000 0.000 1.000
vn 0.000 0.000 1.000
vn 0.000 0.000 1.000
vn 0.000 0.000 1.000
vn 0.000 0.000 1.000
vn 0.000 0.000 1.000
vn 0.000 0.000 1.000
vn 0.000 0.000 1.000
vn 0.000 0.000 1.000
vn 0.000 0.000 1.000
vn 0.000 0.000 1.000
vn 0.000 0.000 1.000
vn 0.000 0.000 1.000
vn 0.000 0.000 1.000
vn 0.000 0.000 1.000
vn 0.000 0.000 1.000
vn 0.000 0.000 1.000
vn 0.000 0.000 1.000
vn 0.000 0.000 1.000
vn 0.000 0.000 1.000
vn 0.000 0.000 1.000
vn 0.000 0.000 1.000
vn 0.000 0.000 1.000
vn 0.000 0.000 1.000
vn 0.000 0.000 1.000
vn 0.000 0.000 1.000
vn 0.000 0.000 1.000
vn 0.000 0.000 1.000
vn 0.000 0.000 1.000
vn 0.000 0.000 1.000
vn 0.000 0.000 1.000
vn 0.000 0.000 1.000
vn 0.000 0.000 1.000
vn 0.000 0.000 1.000
vn 0.000 0.000 1.000
vn 0.000 0.000 1.000
vn 0.000 0.000 1.000
vn 0.000 0.000 1.000
vn 0.000 0.000 1.000
vn 0.000 0.000 1.000
vn 0.000 0.000 1.000
vn 0.000 0.000 1.000
vn 0.000 0.000 1.000
vn 0.000 0.000 1.000
vn 0.000 0.000 1.000
vn 0.000 0.000 1.000
vn 0.000 0.000 1.000
vn 0.000 0.000 1.000
vn 0.000 0.000 1.000
vn 0.000 0.000 1.000
vn 0.000 0.000 1.000
vn 0.000 0.000 1.000
vn 0.000 0.000 1.000
vn 0.000 0.000 1.000
vn 0.000 0.000 1.000
vn 0.000 0.000 1.000
vn 0.000 0.000 1.000
vn 0.000 0.000 1.000
vn 0.000 0.000 1.000
vn 0.000 0.000 1.000
vn 0.000 0.000 1.000
vn 0.000 0.000 1.000
vn 0.000 0.000 1.000
vn 0.000 0.000 1.000
vn 0.000 0.000 1.000
vn 0.000 0.000 1.000
vn 0.000 0.000 1.000
vn 0.000 0.000 1.000
vn 0.000 0.000 1.000
vn 0.000 0.000 1.000
vn 0.000 0.000 1.000
vn 0.000 0.000 1.000
vn 0.000 0.000 1.000
vn 0.000 0.000 1.000
vn 0.000 0.000 1.000
vn 0.000 0.000 1.000
vn 0.000 0.000 1.000
vn 0.000 0.000 1.000
vn 0.000 0.000 1.000
vn 0.000 0.000 1.000
vn 0.000 0.000 1.000
vn 0.000 0.000 1.000
vn 0.000 0.000 1.000
vn 0.000 0.000 1.000
vn 0.000 0.000 1.000
vn 0.000 0.000 1.000
vn 0.000 0.000 1.000
vn 0.000 0.000 1.000
vn 0.000 0.000 1.000
vn 0.000 0.000 1.000
vn 0.000 0.000 1.000
vn 0.000 0.000 1.000
vn 0.000 0.000 1.000
vn 0.000 0.000 1.000
vn 0.000 0.000 1.000
vn 0.000 0.000 1.000
vn 0.000 0.000 1.000
vn 0.000 0.000 1.000
vn 0.000 0.000 1.000
vn 0.000 0.000 1.000
vn 0.000 0.000 1.000
vn 0.000 0.000 1.000
vn 0.000 0.000 1.000
vn 0.000 0.000 1.000
vn 0.000 0.000 1.000
vn 0.000 0.000 1.000
vn 0.000 0.000 1.000
vn 0.000 0.000 1.000
vn 0.000 0.000 1.000
vn 0.000 0.000 1.000
vn 0.000 0.000 1.000
vn 0.000 0.000 1.000
vn 0.000 0.000 1.000
vn 0.000 0.000 1.000
vn 0.000 0.000 1.000
vn 0.000 0.000 1.000
vn 0.000 0.000 1.000
vn 0.000 0.000 1.000
vn 0.000 0.000 1.000
vn 0.000 0.000 1.000
vn 0.000 0.000 1.000
vn 0.000 0.000 1.000
vn 0.000 0.000 1.000
vn 0.000 0.000 1.000
vn 0.000 0.000 1.000
vn 0.000 0.000 1.000
vn 0.000 0.000 1.000
vn 0.000 0.000 1.000
vn 0.000 0.000 1.000
vn 0.000 0.000 1.000
vn 0.000 0.000 1.000
vn 0.000 0.000 1.000
vn 0.000 0.000 1.000
vn 0.000 0.000 1.000
vn 0.000 0.000 1.000
vn 0.000 0.000 1.000
vn 0.000 0.000 1.000
vn 0.000 0.000 1.000
vn 0.000 0.000 1.000
vn 0.000 0.000 1.000
vn 0.000 0.000 1.000
vn 0.000 0.000 1.000
vn 0.000 0.000 1.000
vn 0.000 0.000 1.000
vn 0.000 0.000 1.000
vn 0.000 0.000 1.000
vn 0.000 0.000 1.000
vn 0.000 0.000 1.000
vn 0.000 0.000 1.000
vn 0.000 0.000 1.000
vn 0.000 0.000 1.000
vn 0.000 0.000 1.000
vn 0.000 0.000 1.000
vn 0.000 0.000 1.000
vn 0.000 0.000 1.000
vn 0.000 0.000 1.000
vn 0.000 0.000 1.000
vn 0.000 0.000 1.000
vn 0.000 0.000 1.000
vn 0.000 0.000 1.000
vn 0.000 0.000 1.000
vn 0.000 0.000 1.000
vn 0.000 0.000 1.000
vn 0.000 0.000 1.000
vn 0.000 0.000 1.000
vn 0.000 0.000 1.000
vn 0.000 0.000 1.000
vn 0.000 0.000 1.000
vn 0.000 0.000 1.000
vn 0.000 0.000 1.000
vn 0.000 0.000 1.000
vn 0.000 0.000 1.000
vn 0.000 0.000 1.000
vn 0.000 0.000 1.000
vn 0.000 0.000 1.000
vn 0.000 0.000 1.000
vn 0.000 0.000 1.000
vn 0.000 0.000 1.000
vn 0.000 0.000 1.000
vn 0.000 0.000 1.000
vn 0.000 0.000 1.000
vn 0.000 0.000 1.000
vn 0.000 0.000 1.000
vn 0.000 0.000 1.000
vn 0.000 0.000 1.000
vn 0.000 0.000 1.000
vn 0.000 0.000 1.000
vn 0.000 0.000 1.000
vn 0.000 0.000 1.000
vn 0.000 0.000 1.000
vn 0.000 0.000 1.000
vn 0.000 0.000 1.000
vn 0.000 0.000 1.000
vn 0.000 0.000 1.000
vn 0.000 0.000 1.000
vn 0.000 0.000 1.000
vn 0.000 0.000 1.000
vn 0.000 0.000 1.000
vn 0.000 0.000 1.000
vn 0.000 0.000 1.000
vn 0.000 0.000 1.000
vn 0.000 0.000 1.000
vn 0.000 0.000 1.000
vn 0.000 0.000 1.000
vn 0.000 0.000 1.000
vn 0.000 0.000 1.000
vn 0.000 0.000 1.000
vn 0.000 0.000 1.000
vn 0.000 0.000 1.000
vn 0.000 0.000 1.000
vn 0.000 0.000 1.000
vn 0.000 0.000 1.000
vn 0.000 0.000 1.000
vn 0.000 0.000 1.000
vn 0.000 0.000 1.000
vn 0.000 0.000 1.000
vn 0.000 0.000 1.000
vn 0.000 0.000 1.000
vn 0.000 0.000 1.000
vn 0.000 0.000 1.000
vn 0.000 0.000 1.000
vn 0.000 0.000 1.000
vn 0.000 0.000 1.000
vn 0.000 0.000 1.000
vn 0.000 0.000 1.000
vn 0.000 0.000 1.000
vn 0.000 0.000 1.000
vn 0.000 0.000 1.000
vn 0.000 0.000 1.000
vn 0.000 0.000 1.000
vn 0.000 0.000 1.000
vn 0.000 0.000 1.000
vn 0.000 0.000 1.000
vn 0.000 0.000 1.000
vn 0.000 0.000 1.000
vn 0.000 0.000 1.000
vn 0.000 0.000 1.000
vn 0.000 0.000 1.000
vn 0.000 0.000 1.000
vn 0.000 0.000 1.000
vn 0.000 0.000 1.000
vn 0.000 0.000 1.000
vn 0.000 0.000 1.000
vn 0.000 0.000 1.000
vn 0.000 0.000 1.000
vn 0.000 0.000 1.000
vn 0.000 0.000 1.000
vn 0.000 0.000 1.000
vn 0.000 0.000 1.000
vn 0.000 0.000 1.000
vn 0.000 0.000 1.000
vn 0.000 0.000 1.000
vn 0.000 0.000 1.000
vn 0.000 0.000 1.000
vn 0.000 0.000 1.000
vn 0.000 0.000 1.000
vn 0.000 0.000 1.000
vn 0.000 0.000 1.000
vn 0.000 0.000 1.000
vn 0.000 0.000 1.000
vn 0.000 0.000 1.000
vn 0.000 0.000 1.000
vn 0.000 0.000 1.000
vn 0.000 0.000 1.000
vn 0.000 0.000 1.000
vn 0.000 0.000 1.000
vn 0.000 0.000 1.000
vn 0.000 0.000 1.000
vn 0.000 0.000 1.000
vn 0.000 0.000 1.000
vn 0.000 0.000 1.000
vn 0.000 0.000 1.000
vn 0.000 0.000 1.000
vn 0.000 0.000 1.000
vn 0.000 0.000 1.000
vn 0.000 0.000 1.000
vn 0.000 0.000 1.000
vn 0.000 0.000 1.000
vn 0.000 0.000 1.000
vn 0.000 0.000 1.000
vn 0.000 0.000 1.000
vn 0.000 0.000 1.000
vn 0.000 0.000 1.000
vn 0.000 0.000 1.000
vn 0.000 0.000 1.000
vn 0.000 0.000 1.000
vn 0.000 0.000 1.000
vn 0.000 0.000 1.000
vn 0.000 0.000 1.000
vn 0.000 0.000 1.000
vn 0.000 0.000 1.000
vn 0.000 0.000 1.000
vn 0.000 0.000 1.000
vn 0.000 0.000 1.000
vn 0.000 0.000 1.000
vn 0.000 0.000 1.000
vn 0.000 0.000 1.000
vn 0.000 0.000 1.000
vn 0.000 0.000 1.000
vn 0.000 0.000 1.000
vn 0.000 0.000 1.000
vn 0.000 0.000 1.000
vn 0.000 0.000 1.000
vn 0.000 0.000 1.000
vn 0.000 0.000 1.000
vn 0.000 0.000 1.000
vn 0.000 0.000 1.000
vn 0.000 0.000 1.000
vn 0.000 0.000 1.000
vn 0.000 0.000 1.000
vn 0.000 0.000 1.000
vn 0.000 0.000 1.000
vn 0.000 0.000 1.000
vn 0.000 0.000 1.000
vn 0.000 0.000 1.000
vn 0.000 0.000 1.000
vn 0.000 0.000 1.000
vn 0.000 0.000 1.000
vn 0.000 0.000 1.000
vn 0.000 0.000 1.000
vn 0.000 0.000 1.000
vn 0.000 0.000 1.000
vn 0.000 0.000 1.000
vn 0.000 0.000 1.000
vn 0.000 0.000 1.000
vn 0.000 0.000 1.000
vn 0.000 0.000 1.000
vn 0.000 0.000 1.000
vn 0.000 0.000 1.000
vn 0.000 0.000 1.000
vn 0.000 0.000 1.000
vn 0.000 0.000 1.000
vn 0.000 0.000 1.000
vn 0.000 0.000 1.000
vn 0.000 0.000 1.000
vn 0.000 0.000 1.000
vn 0.000 0.000 1.000
vn 0.000 0.000 1.000
vn 0.000 0.000 1.000
vn 0.000 0.000 1.000
vn 0.000 0.000 1.000
vn 0.000 0.000 1.000
vn 0.000 0.000 1.000
vn 0.000 0.000 1.000
vn 0.000 0.000 1.000
vn 0.000 0.000 1.000
vn 0.000 0.000 1.000
vn 0.000 0.000 1.000
vn 0.000 0.000 1.000
vn 0.000 0.000 1.000
vn 0.000 0.000 1.000
vn 0.000 0.000 1.000
vn 0.000 0.000 1.000
vn 0.000 0.000 1.000
vn 0.000 0.000 1.000
vn 0.000 0.000 1.000
vn 0.000 0.000 1.000
vn 0.000 0.000 1.000
vn 0.000 0.000 1.000
vn 0.000 0.000 1.000
vn 0.000 0.000 1.000
vn 0.000 0.000 1.000
vn 0.000 0.000 1.000
vn 0.000 0.000 1.000
vn 0.000 0.000 1.000
vn 0.000 0.000 1.000
vn 0.000 0.000 1.000
vn 0.000 0.000 1.000
vn 0.000 0.000 1.000
vn 0.000 0.000 1.000
vn 0.000 0.000 1.000
vn 0.000 0.000 1.000
vn 0.000 0.000 1.000
vn 0.000 0.000 1.000
vn 0.000 0.000 1.000
vn 0.000 0.000 1.000
vn 0.000 0.000 1.000
vn 0.000 0.000 1.000
vn 0.000 0.000 1.000
vn 0.000 0.000 1.000
vn 0.000 0.000 1.000
vn 0.000 0.000 1.000
vn 0.000 0.000 1.000
vn 0.000 0.000 1.000
vn 0.000 0.000 1.000
vn 0.000 0.000 1.000
vn 0.000 0.000 1.000
vn 0.000 0.000 1.000
vn 0.000 0.000 1.000
vn 0.000 0.000 1.000
vn 0.000 0.000 1.000
vn 0.000 0.000 1.000
vn 0.000 0.000 1.000
vn 0.000 0.000 1.000
vn 0.000 0.000 1.000
vn 0.000 0.000 1.000
vn 0.000 0.000 1.000
vn 0.000 0.000 1.000
vn 0.000 0.000 1.000
vn 0.000 0.000 1.000
vn 0.000 0.000 1.000
vn 0.000 0.000 1.000
vn 0.000 0.000 1.000
vn 0.000 0.000 1.000
vn 0.000 0.000 1.000
vn 0.000 0.000 1.000
vn 0.000 0.000 1.000
vn 0.000 0.000 1.000
vn 0.000 0.000 1.000
vn 0.000 0.000 1.000
vn 0.000 0.000 1.000
vn 0.000 0.000 1.000
vn 0.000 0.000 1.000
vn 0.000 0.000 1.000
vn 0.000 0.000 1.000
vn 0.000 0.000 1.000
vn 0.000 0.000 1.000
vn 0.000 0.000 1.000
vn 0.000 0.000 1.000
vn 0.000 0.000 1.000
vn 0.000 0.000 1.000
vn 0.000 0.000 1.000
vn 0.000 0.000 1.000
vn 0.000 0.000 1.000
vn 0.000 0.000 1.000
vn 0.000 0.000 1.000
vn 0.000 0.000 1.000
vn 0.000 0.000 1.000
vn 0.000 0.000 1.000
vn 0.000 0.000 1.000
vn 0.000 0.000 1.000
vn 0.000 0.000 1.000
vn 0.000 0.000 1.000
vn 0.000 0.000 1.000
vn 0.000 0.000 1.000
vn 0.000 0.000 1.000
vn 0.000 0.000 1.000
vn 0.000 0.000 1.000
vn 0.000 0.000 1.000
vn 0.000 0.000 1.000
vn 0.000 0.000 1.000
vn 0.000 0.000 1.000
vn 0.000 0.000 1.000
vn 0.000 0.000 1.000
vn 0.000 0.000 1.000
vn 0.000 0.000 1.000
vn 0.000 0.000 1.000
vn 0.000 0.000 1.000
vn 0.000 0.000 1.000
vn 0.000 0.000 1.000
vn 0.000 0.000 1.000
vn 0.000 0.000 1.000
vn 0.000 0.000 1.000
vn 0.000 0.000 1.000
vn 0.000 0.000 1.000
vn 0.000 0.000 1.000
vn 0.000 0.000 1.000
vn 0.000 0.000 1.000
vn 0.000 0.000 1.000
vn 0.000 0.000 1.000
vn 0.000 0.000 1.000
vn -1.000 0.000 0.000
vn -1.000 0.000 0.000
vn -1.000 0.000 0.000
vn -1.000 0.000 0.000
vn 0.000 0.000 1.000
vn 0.000 0.000 1.000
vn 0.000 0.000 1.000
vn 0.000 0.000 1.000
vn 0.000 0.000 1.000
vn 0.000 0.000 1.000
vn 0.000 0.000 1.000
vn 0.000 0.000 1.000
vn 0.000 0.000 1.000
vn 0.000 0.000 1.000
vn 0.000 0.000 1.000
vn 0.000 0.000 1.000
vn 0.000 0.000 1.000
vn 0.000 0.000 1.000
vn 0.000 0.000 1.000
vn 0.000 0.000 1.000
vn 0.000 0.000 1.000
vn 0.000 0.000 1.000
vn 0.000 0.000 1.000
vn 0.000 0.000 1.000
vn 0.000 0.000 1.000
vn 0.000 0.000 1.000
vn 0.000 0.000 1.000
vn 0.000 0.000 1.000
vn 0.000 0.000 1.000
vn 0.000 0.000 1.000
vn 0.000 0.000 1.000
vn 0.000 0.000 1.000
vn 0.000 0.000 1.000
vn 0.000 0.000 1.000
vn 0.000 0.000 1.000
vn 0.000 0.000 1.000
vn 0.000 0.000 1.000
vn 0.000 0.000 1.000
vn 0.000 0.000 1.000
vn 0.000 0.000 1.000
vn 0.000 0.000 1.000
vn 0.000 0.000 1.000
vn 0.000 0.000 1.000
vn 0.000 0.000 1.000
vn 0.000 0.000 1.000
vn 0.000 0.000 1.000
vn 0.000 0.000 1.000
vn 0.000 0.000 1.000
vn 0.000 0.000 1.000
vn 0.000 0.000 1.000
vn 0.000 0.000 1.000
vn 0.000 0.000 1.000
vn 0.000 0.000 1.000
vn 0.000 0.000 1.000
vn 0.000 0.000 1.000
vn 0.000 0.000 1.000
vn 0.000 0.000 1.000
vn 0.000 0.000 1.000
vn 0.000 0.000 1.000
vn 0.000 0.000 1.000
vn 0.000 0.000 1.000
vn 0.000 0.000 1.000
vn 0.000 0.000 1.000
vn 0.000 0.000 1.000
vn 0.000 0.000 1.000
vn 0.000 0.000 1.000
vn 0.000 0.000 1.000
vn 0.000 0.000 1.000
vn 0.000 0.000 1.000
vn 0.000 0.000 1.000
vn 0.000 0.000 1.000
vn 0.000 0.000 1.000
vn 0.000 0.000 1.000
vn 0.000 0.000 1.000
vn 0.000 0.000 1.000
vn 0.000 0.000 1.000
vn 0.000 0.000 1.000
vn 0.000 0.000 1.000
vn 0.000 0.000 1.000
vn 0.000 0.000 1.000
vn 0.000 0.000 1.000
vn 0.000 0.000 1.000
vn 0.000 0.000 1.000
vn 0.000 0.000 1.000
vn 0.000 0.000 1.000
vn 0.000 0.000 1.000
vn 0.000 0.000 1.000
vn 0.000 0.000 1.000
vn 0.000 0.000 1.000
vn 0.000 0.000 1.000
vn 0.000 0.000 1.000
vn 0.000 0.000 1.000
vn 0.000 0.000 1.000
vn 0.000 0.000 1.000
vn 0.000 0.000 1.000
vn 0.000 0.000 1.000
vn 0.000 0.000 1.000
vn 0.000 0.000 1.000
vn 0.000 0.000 1.000
vn 0.000 0.000 1.000
vn 0.000 0.000 1.000
vn 0.000 0.000 1.000
vn 0.000 0.000 1.000
vn 0.000 0.000 1.000
vn 0.000 0.000 1.000
vn 0.000 0.000 1.000
vn 0.000 0.000 1.000
vn 0.000 0.000 1.000
vn 0.000 0.000 1.000
vn 0.000 0.000 1.000
vn 0.000 0.000 1.000
vn 0.000 0.000 1.000
vn 0.000 0.000 1.000
usemtl tex_2626
f 1/1/1 2/2/2 3/3/3
f 1/1/1 3/3/3 4/4/4
f 5/5/5 6/6/6 7/7/7
f 5/5/5 7/7/7 8/8/8
f 4/4/4 7/7/7 6/6/6
f 4/4/4 6/6/6 1/1/1
f 5/5/5 8/8/8 3/3/3
f 5/5/5 3/3/3 2/2/2
usemtl tex_2629_sw0_0_ovl
f 9/9/9 10/10/10 11/11/11
f 12/12/12 13/13/13 14/14/14
f 12/12/12 14/14/14 10/10/10
f 9/9/9 12/12/12 10/10/10
f 15/15/15 16/16/16 17/17/17
f 18/18/18 19/19/19 20/20/20
f 18/18/18 20/20/20 16/16/16
f 15/15/15 18/18/18 16/16/16
f 21/9/21 22/10/22 23/11/23
f 24/12/24 25/13/25 26/14/26
f 24/12/24 26/14/26 27/10/27
f 28/9/28 24/12/24 27/10/27
usemtl tex_1277_fl0_w11_ovl
f 29/21/29 30/22/30 31/23/31
f 32/24/32 33/25/33 34/26/34
usemtl tex_2630_fl0_w11_ovl
f 35/27/35 36/28/36 37/23/37
f 35/27/35 37/23/37 38/29/38
usemtl tex_2629_fl0_ovl
f 39/30/39 40/31/40 41/32/41
f 39/30/39 41/32/41 35/27/35
f 35/27/35 41/32/41 42/33/42
f 35/27/35 42/33/42 43/34/43
f 44/35/44 45/30/45 46/36/46
f 44/35/44 46/36/46 47/37/47
f 47/37/47 48/28/48 49/34/49
f 47/37/47 49/34/49 44/35/44
usemtl tex_1277_sw1_0_w11_ovl
f 50/21/50 51/22/51 52/23/52
f 53/24/53 54/25/54 55/26/55
usemtl tex_2629_sw1_0_ovl
f 56/32/56 57/33/57 58/35/58
f 56/32/56 58/35/58 59/31/59
usemtl tex_1277_sw2_0_w11_ovl
f 60/21/60 61/22/61 62/23/62
f 63/24/63 64/25/64 65/26/65
f 66/27/66 67/27/67 68/27/68
f 66/27/66 68/27/68 69/27/69
f 70/27/70 71/27/71 69/27/69
f 70/27/70 69/27/69 68/27/68
f 70/27/70 72/27/72 73/27/73
f 70/27/70 73/27/73 71/27/71
f 73/27/73 72/27/72 67/27/67
f 73/27/73 67/27/67 66/27/66
f 74/27/74 68/27/68 75/27/75
f 76/27/76 77/27/77 78/27/78
f 79/27/79 80/27/80 78/27/78
f 79/27/79 78/27/78 77/27/77
f 79/27/79 81/27/81 82/27/82
f 79/27/79 82/27/82 80/27/80
f 83/27/83 77/27/77 84/27/84
f 83/27/83 84/27/84 85/27/85
f 86/27/86 87/27/87 85/27/85
f 86/27/86 85/27/85 84/27/84
f 86/27/86 79/27/79 88/27/88
f 86/27/86 88/27/88 87/27/87
usemtl tex_2631_sw2_0_ovl
f 89/38/89 90/39/90 91/40/91
f 92/38/92 93/40/93 94/41/94
f 95/27/95 96/27/96 97/27/97
f 95/27/95 97/27/97 98/27/98
f 99/27/99 100/27/100 98/27/98
f 99/27/99 98/27/98 97/27/97
f 99/27/99 101/27/101 102/27/102
f 99/27/99 102/27/102 100/27/100
f 103/27/103 97/27/97 104/27/104
f 103/27/103 104/27/104 105/27/105
f 106/27/106 107/27/107 105/27/105
f 106/27/106 105/27/105 104/27/104
f 108/27/108 109/27/109 110/27/110
f 108/27/108 110/27/110 111/27/111
usemtl tex_2629_sw2_0_ovl
f 112/42/112 113/43/113 114/44/114
f 112/42/112 114/44/114 115/45/115
usemtl tex_2631_sw2_0_ovl
f 116/38/116 117/39/117 118/40/118
f 116/38/116 118/40/118 119/41/119
f 120/27/120 121/27/121 122/27/122
f 120/27/120 122/27/122 123/27/123
f 124/27/124 125/27/125 126/27/126
f 124/27/124 126/27/126 127/27/127
f 124/27/124 128/27/128 129/27/129
f 124/27/124 129/27/129 125/27/125
f 129/27/129 128/27/128 130/27/130
f 129/27/129 130/27/130 131/27/131
f 132/27/132 127/27/127 133/27/133
f 132/27/132 133/27/133 134/27/134
f 135/27/135 136/27/136 134/27/134
f 135/27/135 134/27/134 133/27/133
f 135/27/135 124/27/124 137/27/137
f 135/27/135 137/27/137 136/27/136
f 138/27/138 133/27/133 139/27/139
f 140/27/140 141/27/141 142/27/142
f 143/27/143 144/27/144 142/27/142
f 143/27/143 142/27/142 141/27/141
f 143/27/143 145/27/145 146/27/146
f 143/27/143 146/27/146 144/27/144
f 147/38/147 148/39/148 149/40/149
f 147/38/147 149/40/149 150/41/150
f 151/27/151 141/27/141 152/27/152
f 151/27/151 152/27/152 153/27/153
f 154/27/154 155/27/155 153/27/153
f 154/27/154 153/27/153 152/27/152
f 156/27/156 157/27/157 158/27/158
f 156/27/156 158/27/158 159/27/159
f 160/27/160 161/27/161 162/27/162
f 160/27/160 162/27/162 163/27/163
f 164/27/164 165/27/165 163/27/163
f 164/27/164 163/27/163 162/27/162
f 164/27/164 156/27/156 166/27/166
f 164/27/164 166/27/166 165/27/165
usemtl tex_2629_sw2_0_ovl
f 167/46/167 168/47/168 169/48/169
f 167/46/167 169/48/169 170/49/170
usemtl tex_2631_sw2_0_ovl
f 171/38/171 172/39/172 173/40/173
f 171/38/171 173/40/173 174/41/174
f 175/27/175 176/27/176 177/27/177
f 175/27/175 177/27/177 178/27/178
f 179/27/179 180/27/180 178/27/178
f 179/27/179 178/27/178 177/27/177
f 179/27/179 181/27/181 182/27/182
f 179/27/179 182/27/182 180/27/180
f 182/27/182 181/27/181 176/27/176
f 182/27/182 176/27/176 175/27/175
f 183/27/183 177/27/177 184/27/184
f 183/27/183 184/27/184 185/27/185
f 186/27/186 187/27/187 188/27/188
f 186/27/186 188/27/188 189/27/189
f 186/27/186 190/27/190 191/27/191
f 186/27/186 191/27/191 187/27/187
f 192/27/192 189/27/189 193/27/193
f 192/27/192 193/27/193 194/27/194
f 195/27/195 196/27/196 194/27/194
f 195/27/195 194/27/194 193/27/193
f 195/27/195 186/27/186 197/27/197
f 195/27/195 197/27/197 196/27/196
f 198/38/198 199/39/199 200/40/200
f 198/38/198 200/40/200 201/41/201
f 202/27/202 203/27/203 204/27/204
f 202/27/202 204/27/204 205/27/205
f 206/27/206 207/27/207 205/27/205
f 206/27/206 205/27/205 204/27/204
f 206/27/206 208/27/208 209/27/209
f 206/27/206 209/27/209 207/27/207
f 210/27/210 204/27/204 211/27/211
f 210/27/210 211/27/211 212/27/212
f 213/27/213 214/27/214 212/27/212
f 213/27/213 212/27/212 211/27/211
f 213/27/213 206/27/206 215/27/215
f 213/27/213 215/27/215 214/27/214
usemtl tex_2629_sw2_0_ovl
f 216/50/216 217/51/217 218/52/218
f 216/50/216 218/52/218 219/27/219
usemtl tex_2631_sw2_0_ovl
f 220/38/220 221/39/221 222/40/222
f 220/38/220 222/40/222 223/41/223
f 224/27/224 225/27/225 226/27/226
f 224/27/224 226/27/226 227/27/227
f 228/27/228 229/27/229 227/27/227
f 228/27/228 227/27/227 226/27/226
f 228/27/228 230/27/230 231/27/231
f 228/27/228 231/27/231 229/27/229
f 231/27/231 230/27/230 225/27/225
f 231/27/231 225/27/225 224/27/224
f 232/27/232 233/27/233 234/27/234
f 232/27/232 234/27/234 235/27/235
f 236/27/236 237/27/237 235/27/235
f 236/27/236 235/27/235 234/27/234
f 236/27/236 238/27/238 239/27/239
f 236/27/236 239/27/239 237/27/237
f 240/27/240 234/27/234 241/27/241
f 240/27/240 241/27/241 242/27/242
f 243/27/243 244/27/244 242/27/242
f 243/27/243 242/27/242 241/27/241
f 243/27/243 236/27/236 245/27/245
f 243/27/243 245/27/245 244/27/244
f 246/38/246 247/39/247 248/40/248
f 246/38/246 248/40/248 249/41/249
f 250/27/250 251/27/251 252/27/252
f 250/27/250 252/27/252 253/27/253
f 254/27/254 255/27/255 253/27/253
f 254/27/254 253/27/253 252/27/252
f 254/27/254 256/27/256 257/27/257
f 254/27/254 257/27/257 255/27/255
f 258/27/258 252/27/252 259/27/259
f 258/27/258 259/27/259 260/27/260
f 261/27/261 262/27/262 263/27/263
f 261/27/261 263/27/263 264/27/264
f 261/27/261 265/27/265 266/27/266
f 261/27/261 266/27/266 262/27/262
f 267/38/267 268/39/268 269/40/269
f 267/38/267 269/40/269 270/41/270
usemtl tex_2629_sw2_0_ovl
f 271/53/271 272/54/272 273/55/273
f 271/53/271 273/55/273 274/56/274
f 275/55/275 276/57/276 277/58/277
f 275/55/275 277/58/277 278/56/278
usemtl tex_2585_sw3_0_w11_ovl
f 279/27/279 280/28/280 281/23/281
f 279/27/279 281/23/281 282/29/282
usemtl tex_2580_sw3_0_w11_ovl
f 283/27/283 284/28/284 285/23/285
f 283/27/283 285/23/285 286/29/286
usemtl tex_2590_sw3_0_w11_ovl
f 287/27/287 288/28/288 289/23/289
f 287/27/287 289/23/289 290/29/290
usemtl tex_2593_sw3_0_w11_ovl
f 291/27/291 292/28/292 293/23/293
f 291/27/291 293/23/293 294/29/294
usemtl tex_2591_sw3_0_w11_ovl
f 295/27/295 296/28/296 297/23/297
f 295/27/295 297/23/297 298/29/298
usemtl tex_2595_sw3_0_w11_ovl
f 299/27/299 300/28/300 301/23/301
f 299/27/299 301/23/301 302/29/302
usemtl tex_2587_sw3_0_w11_ovl
f 303/27/303 304/28/304 305/23/305
f 303/27/303 305/23/305 306/29/306
usemtl tex_2594_sw3_0_w11_ovl
f 307/27/307 308/28/308 309/23/309
f 307/27/307 309/23/309 310/29/310
usemtl tex_2592_sw3_0_w11_ovl
f 311/27/311 312/28/312 313/23/313
f 311/27/311 313/23/313 314/29/314
usemtl tex_2596_sw3_0_w11_ovl
f 315/27/315 316/28/316 317/23/317
f 315/27/315 317/23/317 318/29/318
usemtl tex_2578_sw3_0_w11_ovl
f 319/27/319 320/28/320 321/23/321
f 319/27/319 321/23/321 322/29/322
usemtl tex_2589_sw3_0_w11_ovl
f 323/27/323 324/28/324 325/23/325
f 323/27/323 325/23/325 326/29/326
usemtl tex_2586_sw3_0_w11_ovl
f 327/27/327 328/28/328 329/23/329
f 327/27/327 329/23/329 330/29/330
usemtl tex_2597_sw3_0_w11_ovl
f 331/27/331 332/28/332 333/23/333
f 331/27/331 333/23/333 334/29/334
usemtl tex_2588_sw3_0_w11_ovl
f 335/27/335 336/28/336 337/23/337
f 335/27/335 337/23/337 338/29/338
usemtl tex_2579_sw3_0_w11_ovl
f 339/27/339 340/28/340 341/23/341
f 339/27/339 341/23/341 342/29/342
usemtl tex_2582_sw3_0_w11_ovl
f 343/27/343 344/28/344 345/23/345
f 343/27/343 345/23/345 346/29/346
usemtl tex_2583_sw3_0_w11_ovl
f 347/27/347 348/28/348 349/23/349
f 347/27/347 349/23/349 350/29/350
usemtl tex_2581_sw3_0_w11_ovl
f 351/27/351 352/28/352 353/23/353
f 351/27/351 353/23/353 354/29/354
usemtl tex_2584_sw3_0_w11_ovl
f 355/27/355 356/28/356 357/23/357
f 355/27/355 357/23/357 358/29/358
usemtl tex_2624_sw4_0_w11_ovl
f 359/59/359 360/60/360 361/61/361
f 359/59/359 361/61/361 362/27/362
usemtl tex_2622_sw4_0_w11_ovl
f 363/27/363 364/59/364 365/60/365
f 363/27/363 365/60/365 366/61/366
usemtl tex_2623_sw4_0_w11_ovl
f 367/27/367 368/59/368 369/60/369
f 367/27/367 369/60/369 370/61/370
usemtl tex_2625_sw4_0_w11_ovl
f 371/59/371 372/60/372 373/61/373
f 371/59/371 373/61/373 374/27/374
usemtl tex_2627_sw5_0_w11_ovl
f 375/27/375 376/59/376 377/60/377
f 375/27/375 377/60/377 378/61/378
usemtl tex_2628_sw5_0_w11_ovl
f 379/27/379 380/59/380 381/60/381
f 379/27/379 381/60/381 382/61/382
usemtl tex_2620_sw6_0_w11_ovl
f 383/59/383 384/60/384 385/61/385
f 383/59/383 385/61/385 386/27/386
usemtl tex_2621_sw6_0_w11_ovl
f 387/27/387 388/59/388 389/60/389
f 387/27/387 389/60/389 390/61/390
usemtl tex_2620_sw7_0_w11_ovl
f 391/59/391 392/60/392 393/61/393
f 391/59/391 393/61/393 394/27/394
usemtl tex_2621_sw7_0_w11_ovl
f 395/27/395 396/59/396 397/60/397
f 395/27/395 397/60/397 398/61/398
usemtl tex_2618_sw8_0_w11_ovl
f 399/59/399 400/60/400 401/61/401
f 399/59/399 401/61/401 402/27/402
usemtl tex_2619_sw8_0_w11_ovl
f 403/27/403 404/59/404 405/60/405
f 403/27/403 405/60/405 406/61/406
usemtl tex_1277_sw9_0_w11
f 407/62/407 408/63/408 409/64/409
f 407/62/407 409/64/409 410/65/410
f 411/28/411 412/23/412 413/66/413
usemtl tex_2602_sw10_0_w11_ovl
f 414/67/414 415/68/415 416/27/416
f 414/67/414 416/27/416 417/69/417
usemtl tex_2603_sw10_0_w11_ovl
f 418/69/418 419/67/419 420/68/420
f 418/69/418 420/68/420 421/27/421
usemtl tex_2604_sw10_0_w11_ovl
f 422/27/422 423/69/423 424/67/424
f 422/27/422 424/67/424 425/68/425
usemtl tex_2605_sw10_0_w11_ovl
f 426/27/426 427/69/427 428/67/428
f 426/27/426 428/67/428 429/68/429
usemtl tex_2602_sw11_0_w11_ovl
f 430/67/430 431/68/431 432/27/432
f 430/67/430 432/27/432 433/69/433
usemtl tex_2603_sw11_0_w11_ovl
f 434/69/434 435/67/435 436/68/436
f 434/69/434 436/68/436 437/27/437
usemtl tex_2604_sw11_0_w11_ovl
f 438/27/438 439/69/439 440/67/440
f 438/27/438 440/67/440 441/68/441
usemtl tex_2605_sw11_0_w11_ovl
f 442/27/442 443/69/443 444/67/444
f 442/27/442 444/67/444 445/68/445
usemtl tex_2602_sw12_0_w11_ovl
f 446/67/446 447/68/447 448/27/448
f 446/67/446 448/27/448 449/69/449
usemtl tex_2603_sw12_0_w11_ovl
f 450/69/450 451/67/451 452/68/452
f 450/69/450 452/68/452 453/27/453
usemtl tex_2604_sw12_0_w11_ovl
f 454/27/454 455/69/455 456/67/456
f 454/27/454 456/67/456 457/68/457
usemtl tex_2605_sw12_0_w11_ovl
f 458/27/458 459/69/459 460/67/460
f 458/27/458 460/67/460 461/68/461
usemtl tex_2602_sw13_0_w11_ovl
f 462/67/462 463/68/463 464/27/464
f 462/67/462 464/27/464 465/69/465
usemtl tex_2603_sw13_0_w11_ovl
f 466/69/466 467/67/467 468/68/468
f 466/69/466 468/68/468 469/27/469
usemtl tex_2604_sw13_0_w11_ovl
f 470/27/470 471/69/471 472/67/472
f 470/27/470 472/67/472 473/68/473
usemtl tex_2605_sw13_0_w11_ovl
f 474/27/474 475/69/475 476/67/476
f 474/27/474 476/67/476 477/68/477
usemtl tex_1014_w11_ovl
f 478/28/478 479/23/479 480/29/480
f 478/28/478 480/29/480 481/27/481
usemtl tex_1277_sw14_0_w11
f 482/28/482 483/23/483 484/70/484
f 485/71/485 486/72/486 487/73/487
f 485/71/485 487/73/487 488/74/488
usemtl tex_2552_sw15_0_w11_ovl
f 489/28/489 490/23/490 491/29/491
f 489/28/489 491/29/491 492/27/492
usemtl tex_2553_sw15_0_w11_ovl
f 493/29/493 494/27/494 495/28/495
f 493/29/493 495/28/495 496/23/496
usemtl tex_2542_sw16_0_w11_ovl
f 497/28/497 498/23/498 499/29/499
f 497/28/497 499/29/499 500/27/500
usemtl tex_2543_sw16_0_w11_ovl
f 501/29/501 502/27/502 503/28/503
f 501/29/501 503/28/503 504/23/504
usemtl tex_2562_sw17_0_w11_ovl
f 505/28/505 506/23/506 507/29/507
f 505/28/505 507/29/507 508/27/508
usemtl tex_2563_sw17_0_w11_ovl
f 509/29/509 510/27/510 511/28/511
f 509/29/509 511/28/511 512/23/512
usemtl tex_2568_sw18_0_w11_ovl
f 513/28/513 514/23/514 515/29/515
f 513/28/513 515/29/515 516/27/516
usemtl tex_2569_sw18_0_w11_ovl
f 517/29/517 518/27/518 519/28/519
f 517/29/517 519/28/519 520/23/520
usemtl tex_2564_sw19_0_w11_ovl
f 521/28/521 522/23/522 523/29/523
f 521/28/521 523/29/523 524/27/524
usemtl tex_2565_sw19_0_w11_ovl
f 525/29/525 526/27/526 527/28/527
f 525/29/525 527/28/527 528/23/528
usemtl tex_2572_sw20_0_w11_ovl
f 529/28/529 530/23/530 531/29/531
f 529/28/529 531/29/531 532/27/532
usemtl tex_2573_sw20_0_w11_ovl
f 533/29/533 534/27/534 535/28/535
f 533/29/533 535/28/535 536/23/536
usemtl tex_2556_sw21_0_w11_ovl
f 537/28/537 538/23/538 539/29/539
f 537/28/537 539/29/539 540/27/540
usemtl tex_2557_sw21_0_w11_ovl
f 541/29/541 542/27/542 543/28/543
f 541/29/541 543/28/543 544/23/544
usemtl tex_2570_sw22_0_w11_ovl
f 545/28/545 546/23/546 547/29/547
f 545/28/545 547/29/547 548/27/548
usemtl tex_2571_sw22_0_w11_ovl
f 549/29/549 550/27/550 551/28/551
f 549/29/549 551/28/551 552/23/552
usemtl tex_2566_sw23_0_w11_ovl
f 553/28/553 554/23/554 555/29/555
f 553/28/553 555/29/555 556/27/556
usemtl tex_2567_sw23_0_w11_ovl
f 557/29/557 558/27/558 559/28/559
f 557/29/557 559/28/559 560/23/560
usemtl tex_2574_sw24_0_w11_ovl
f 561/28/561 562/23/562 563/29/563
f 561/28/561 563/29/563 564/27/564
usemtl tex_2575_sw24_0_w11_ovl
f 565/29/565 566/27/566 567/28/567
f 565/29/565 567/28/567 568/23/568
usemtl tex_2538_sw25_0_w11_ovl
f 569/28/569 570/23/570 571/29/571
f 569/28/569 571/29/571 572/27/572
usemtl tex_2539_sw25_0_w11_ovl
f 573/29/573 574/27/574 575/28/575
f 573/29/573 575/28/575 576/23/576
usemtl tex_2560_sw26_0_w11_ovl
f 577/28/577 578/23/578 579/29/579
f 577/28/577 579/29/579 580/27/580
usemtl tex_2561_sw26_0_w11_ovl
f 581/29/581 582/27/582 583/28/583
f 581/29/581 583/28/583 584/23/584
usemtl tex_2554_sw27_0_w11_ovl
f 585/28/585 586/23/586 587/29/587
f 585/28/585 587/29/587 588/27/588
usemtl tex_2555_sw27_0_w11_ovl
f 589/29/589 590/27/590 591/28/591
f 589/29/589 591/28/591 592/23/592
usemtl tex_2576_sw28_0_w11_ovl
f 593/28/593 594/23/594 595/29/595
f 593/28/593 595/29/595 596/27/596
usemtl tex_2577_sw28_0_w11_ovl
f 597/29/597 598/27/598 599/28/599
f 597/29/597 599/28/599 600/23/600
usemtl tex_2558_sw29_0_w11_ovl
f 601/28/601 602/23/602 603/29/603
f 601/28/601 603/29/603 604/27/604
usemtl tex_2559_sw29_0_w11_ovl
f 605/29/605 606/27/606 607/28/607
f 605/29/605 607/28/607 608/23/608
usemtl tex_2540_sw30_0_w11_ovl
f 609/28/609 610/23/610 611/29/611
f 609/28/609 611/29/611 612/27/612
usemtl tex_2541_sw30_0_w11_ovl
f 613/29/613 614/27/614 615/28/615
f 613/29/613 615/28/615 616/23/616
usemtl tex_2546_sw31_0_w11_ovl
f 617/28/617 618/23/618 619/29/619
f 617/28/617 619/29/619 620/27/620
usemtl tex_2547_sw31_0_w11_ovl
f 621/29/621 622/27/622 623/28/623
f 621/29/621 623/28/623 624/23/624
usemtl tex_2548_sw32_0_w11_ovl
f 625/28/625 626/23/626 627/29/627
f 625/28/625 627/29/627 628/27/628
usemtl tex_2549_sw32_0_w11_ovl
f 629/29/629 630/27/630 631/28/631
f 629/29/629 631/28/631 632/23/632
usemtl tex_2544_sw33_0_w11_ovl
f 633/28/633 634/23/634 635/29/635
f 633/28/633 635/29/635 636/27/636
usemtl tex_2545_sw33_0_w11_ovl
f 637/29/637 638/27/638 639/28/639
f 637/29/637 639/28/639 640/23/640
usemtl tex_2550_sw34_0_w11_ovl
f 641/28/641 642/23/642 643/29/643
f 641/28/641 643/29/643 644/27/644
usemtl tex_2551_sw34_0_w11_ovl
f 645/29/645 646/27/646 647/28/647
f 645/29/645 647/28/647 648/23/648
usemtl tex_1014_w11_ovl
f 649/28/649 650/23/650 651/29/651
f 649/28/649 651/29/651 652/27/652
usemtl tex_2626_sw35_0_ds
f 653/75/653 654/75/654 655/76/655
f 653/75/653 655/76/655 656/76/656
usemtl tex_2629_sw35_0_ds
f 657/27/657 658/77/658 659/78/659
f 657/27/657 659/78/659 660/79/660
usemtl tex_2626_sw35_0_ds
f 661/80/661 662/27/662 663/81/663
f 661/80/661 663/81/663 664/82/664
f 665/83/665 666/84/666 667/85/667
f 665/83/665 667/85/667 668/86/668
f 669/87/669 670/83/670 671/27/671
f 671/27/671 670/83/670 672/86/672
f 671/27/671 672/86/672 673/81/673
f 672/86/672 674/88/674 673/81/673
usemtl tex_2600_sw35_0_w11_ovl
f 675/27/675 676/69/676 677/67/677
f 675/27/675 677/67/677 678/68/678
usemtl tex_2601_sw35_0_w11_ovl
f 679/27/679 680/69/680 681/67/681
f 679/27/679 681/67/681 682/68/682
usemtl tex_2599_sw35_0_w11_ovl
f 683/69/683 684/67/684 685/68/685
f 683/69/683 685/68/685 686/27/686
usemtl tex_2598_sw35_0_w11_ovl
f 687/67/687 688/68/688 689/27/689
f 687/67/687 689/27/689 690/69/690
usemtl tex_1277_sw36_0_w11
f 691/28/691 692/23/692 693/89/693
f 694/90/694 695/91/695 696/27/696
f 694/90/694 696/27/696 697/29/697
usemtl tex_2602_sw37_0_w11_ovl
f 698/67/698 699/68/699 700/27/700
f 698/67/698 700/27/700 701/69/701
usemtl tex_2603_sw37_0_w11_ovl
f 702/69/702 703/67/703 704/68/704
f 702/69/702 704/68/704 705/27/705
usemtl tex_2604_sw37_0_w11_ovl
f 706/27/706 707/69/707 708/67/708
f 706/27/706 708/67/708 709/68/709
usemtl tex_2605_sw37_0_w11_ovl
f 710/27/710 711/69/711 712/67/712
f 710/27/710 712/67/712 713/68/713
usemtl tex_2602_sw38_0_w11_ovl
f 714/67/714 715/68/715 716/27/716
f 714/67/714 716/27/716 717/69/717
usemtl tex_2603_sw38_0_w11_ovl
f 718/69/718 719/67/719 720/68/720
f 718/69/718 720/68/720 721/27/721
usemtl tex_2604_sw38_0_w11_ovl
f 722/27/722 723/69/723 724/67/724
f 722/27/722 724/67/724 725/68/725
usemtl tex_2605_sw38_0_w11_ovl
f 726/27/726 727/69/727 728/67/728
f 726/27/726 728/67/728 729/68/729
usemtl tex_2602_sw39_0_w11_ovl
f 730/67/730 731/68/731 732/27/732
f 730/67/730 732/27/732 733/69/733
usemtl tex_2603_sw39_0_w11_ovl
f 734/69/734 735/67/735 736/68/736
f 734/69/734 736/68/736 737/27/737
usemtl tex_2604_sw39_0_w11_ovl
f 738/27/738 739/69/739 740/67/740
f 738/27/738 740/67/740 741/68/741
usemtl tex_2605_sw39_0_w11_ovl
f 742/27/742 743/69/743 744/67/744
f 742/27/742 744/67/744 745/68/745
usemtl tex_2602_sw40_0_w11_ovl
f 746/67/746 747/68/747 748/27/748
f 746/67/746 748/27/748 749/69/749
usemtl tex_2603_sw40_0_w11_ovl
f 750/69/750 751/67/751 752/68/752
f 750/69/750 752/68/752 753/27/753
usemtl tex_2604_sw40_0_w11_ovl
f 754/27/754 755/69/755 756/67/756
f 754/27/754 756/67/756 757/68/757
usemtl tex_2605_sw40_0_w11_ovl
f 758/27/758 759/69/759 760/67/760
f 758/27/758 760/67/760 761/68/761
usemtl tex_1014_w11_ovl
f 762/28/762 763/23/763 764/29/764
f 762/28/762 764/29/764 765/27/765
