mtllib Pwooden_table1Z.mtl
v -902.0 398.0 -477.0 1.000 1.000 1.000
v -902.0 398.0 477.0 1.000 1.000 1.000
v 902.0 398.0 477.0 1.000 1.000 1.000
v 902.0 398.0 -477.0 1.000 1.000 1.000
v -902.0 345.0 477.0 1.000 1.000 1.000
v -902.0 398.0 477.0 1.000 1.000 1.000
v -902.0 398.0 -477.0 1.000 1.000 1.000
v -902.0 345.0 -477.0 1.000 1.000 1.000
v 902.0 345.0 -477.0 1.000 1.000 1.000
v 902.0 398.0 -477.0 1.000 1.000 1.000
v 902.0 398.0 477.0 1.000 1.000 1.000
v 902.0 345.0 477.0 1.000 1.000 1.000
v 902.0 345.0 477.0 1.000 1.000 1.000
v 902.0 398.0 477.0 1.000 1.000 1.000
v -902.0 398.0 477.0 1.000 1.000 1.000
v -902.0 345.0 477.0 1.000 1.000 1.000
v -902.0 345.0 -477.0 1.000 1.000 1.000
v -902.0 398.0 -477.0 1.000 1.000 1.000
v 902.0 398.0 -477.0 1.000 1.000 1.000
v 902.0 345.0 -477.0 1.000 1.000 1.000
v -796.0 193.0 371.0 1.000 1.000 1.000
v -796.0 345.0 371.0 1.000 1.000 1.000
v -796.0 345.0 -371.0 1.000 1.000 1.000
v -796.0 193.0 -371.0 1.000 1.000 1.000
v 796.0 193.0 -371.0 1.000 1.000 1.000
v 796.0 345.0 -371.0 1.000 1.000 1.000
v 796.0 345.0 371.0 1.000 1.000 1.000
v 796.0 193.0 371.0 1.000 1.000 1.000
v 796.0 193.0 371.0 1.000 1.000 1.000
v 796.0 345.0 371.0 1.000 1.000 1.000
v -796.0 345.0 371.0 1.000 1.000 1.000
v -796.0 193.0 371.0 1.000 1.000 1.000
v -796.0 193.0 -371.0 1.000 1.000 1.000
v -796.0 345.0 -371.0 1.000 1.000 1.000
v 796.0 345.0 -371.0 1.000 1.000 1.000
v 796.0 193.0 -371.0 1.000 1.000 1.000
v -703.0 345.0 381.0 1.000 1.000 1.000
v -809.0 345.0 381.0 1.000 1.000 1.000
v -809.0 -398.0 381.0 1.000 1.000 1.000
v -747.0 -398.0 381.0 1.000 1.000 1.000
v -809.0 -398.0 319.0 1.000 1.000 1.000
v -809.0 -398.0 381.0 1.000 1.000 1.000
v -809.0 345.0 274.0 1.000 1.000 1.000
v -809.0 345.0 -280.0 1.000 1.000 1.000
v -809.0 345.0 -386.0 1.000 1.000 1.000
v -809.0 -398.0 -386.0 1.000 1.000 1.000
v -809.0 -398.0 -325.0 1.000 1.000 1.000
v -747.0 -398.0 -386.0 1.000 1.000 1.000
v -809.0 -398.0 -386.0 1.000 1.000 1.000
v -809.0 345.0 -386.0 1.000 1.000 1.000
v -703.0 345.0 -386.0 1.000 1.000 1.000
v 705.0 345.0 -386.0 1.000 1.000 1.000
v 811.0 345.0 -386.0 1.000 1.000 1.000
v 811.0 -398.0 -386.0 1.000 1.000 1.000
v 750.0 -398.0 -386.0 1.000 1.000 1.000
v 811.0 -398.0 -325.0 1.000 1.000 1.000
v 811.0 -398.0 -386.0 1.000 1.000 1.000
v 811.0 345.0 -386.0 1.000 1.000 1.000
v 811.0 345.0 -280.0 1.000 1.000 1.000
v 811.0 345.0 277.0 1.000 1.000 1.000
v 811.0 345.0 384.0 1.000 1.000 1.000
v 811.0 -398.0 384.0 1.000 1.000 1.000
v 811.0 -398.0 322.0 1.000 1.000 1.000
v 750.0 -398.0 384.0 1.000 1.000 1.000
v 811.0 -398.0 384.0 1.000 1.000 1.000
v 811.0 345.0 384.0 1.000 1.000 1.000
v 705.0 345.0 384.0 1.000 1.000 1.000
vt 1.5215 1.0000
vt 0.0000 1.0000
vt 0.0020 -0.0010
vt 1.5225 -0.0010
vt 2.4307 1.0000
vt 2.4219 0.0000
vt -0.8506 0.0000
vt -0.8418 1.0000
vt 2.9336 1.0000
vt 2.9287 0.0000
vt -0.3535 0.0000
vt -0.3477 1.0000
vt 3.5781 1.0000
vt 3.5801 0.0000
vt -2.9932 0.0000
vt -2.9961 1.0000
vt 5.4502 1.0000
vt 5.4521 0.0000
vt -0.9355 0.0000
vt -0.9365 1.0000
vt -0.3018 1.0000
vt -0.3018 0.3047
vt 1.4033 0.3047
vt 1.4033 1.0000
vt 2.1807 1.0000
vt 2.1807 0.3887
vt -1.0303 0.3887
vt -1.0303 1.0000
vt 0.0000 1.4941
vt 1.5791 1.0000
vt 1.5791 1.2852
vt 1.6367 1.2705
vt 1.6367 1.0000
vt 0.0000 1.4678
vt 0.0000 1.5654
vt 1.6953 1.0000
vt 1.6953 1.3262
vt 2.1377 1.3525
vt 2.1377 1.0000
vt 0.0000 1.6113
vt 0.0000 1.5615
vt 1.9639 1.0000
vt 1.9639 1.3242
vt 1.9854 1.3281
vt 1.9854 1.0000
vt 0.0000 1.5674
vt 0.0000 1.5889
vt 1.6514 1.0000
vt 1.6514 1.3398
vn -0.577 -0.577 -0.577
vn -0.577 -0.577 -0.577
vn -0.577 -0.577 -0.577
vn -0.577 -0.577 -0.577
vn -1.000 0.000 0.000
vn -1.000 0.000 0.000
vn -1.000 0.000 0.000
vn -1.000 0.000 0.000
vn 0.577 0.577 0.577
vn 0.577 0.577 0.577
vn 0.577 0.577 0.577
vn 0.577 0.577 0.577
vn 0.000 0.000 1.000
vn 0.000 0.000 1.000
vn 0.000 0.000 1.000
vn 0.000 0.000 1.000
vn -0.577 -0.577 -0.577
vn -0.577 -0.577 -0.577
vn -0.577 -0.577 -0.577
vn -0.577 -0.577 -0.577
vn -1.000 0.000 0.000
vn -1.000 0.000 0.000
vn -1.000 0.000 0.000
vn -1.000 0.000 0.000
vn 0.577 0.577 0.577
vn 0.577 0.577 0.577
vn 0.577 0.577 0.577
vn 0.577 0.577 0.577
vn 0.000 0.000 1.000
vn 0.000 0.000 1.000
vn 0.000 0.000 1.000
vn 0.000 0.000 1.000
vn -0.577 -0.577 -0.577
vn -0.577 -0.577 -0.577
vn -0.577 -0.577 -0.577
vn -0.577 -0.577 -0.577
vn 0.000 0.000 1.000
vn -0.847 0.000 0.531
vn 0.000 0.000 1.000
vn 0.000 0.000 1.000
vn -1.000 0.000 0.000
vn -1.000 0.000 0.000
vn -1.000 0.000 0.000
vn -1.000 0.000 0.000
vn -1.000 0.000 0.000
vn -1.000 0.000 0.000
vn -1.000 0.000 0.000
vn -0.577 -0.577 -0.577
vn -0.577 -0.577 -0.577
vn -0.577 -0.577 -0.577
vn -0.577 -0.577 -0.577
vn -0.577 -0.577 -0.577
vn -0.577 -0.577 -0.577
vn -0.577 -0.577 -0.577
vn -0.577 -0.577 -0.577
vn 0.577 0.577 0.577
vn 0.577 0.577 0.577
vn 0.577 0.577 0.577
vn 0.577 0.577 0.577
vn 0.577 0.577 0.577
vn 0.577 0.577 0.577
vn 0.577 0.577 0.577
vn 0.577 0.577 0.577
vn 0.000 0.000 1.000
vn 0.000 0.000 1.000
vn 0.000 0.000 1.000
vn 0.000 0.000 1.000
usemtl tex_1530_lit_ds
f 1/1/1 2/2/2 3/3/3
f 1/1/1 3/3/3 4/4/4
usemtl tex_1528_lit_ds
f 5/5/5 6/6/6 7/7/7
f 5/5/5 7/7/7 8/8/8
f 9/9/9 10/10/10 11/11/11
f 9/9/9 11/11/11 12/12/12
f 13/13/13 14/14/14 15/15/15
f 13/13/13 15/15/15 16/16/16
f 17/17/17 18/18/18 19/19/19
f 17/17/17 19/19/19 20/20/20
f 21/21/21 22/22/22 23/23/23
f 21/21/21 23/23/23 24/24/24
f 25/24/25 26/23/26 27/22/27
f 25/24/25 27/22/27 28/21/28
f 29/25/29 30/26/30 31/27/31
f 29/25/29 31/27/31 32/28/32
f 33/28/33 34/27/34 35/26/35
f 33/28/33 35/26/35 36/25/36
f 37/29/37 38/2/38 39/30/39
f 37/29/37 39/30/39 40/31/40
f 41/32/41 42/33/42 38/2/38
f 41/32/41 38/2/38 43/34/43
f 44/35/44 45/2/45 46/36/46
f 44/35/44 46/36/46 47/37/47
f 48/38/48 49/39/49 50/2/50
f 48/38/48 50/2/50 51/40/51
f 52/41/52 53/2/53 54/42/54
f 52/41/52 54/42/54 55/43/55
f 56/44/56 57/45/57 58/2/58
f 56/44/56 58/2/58 59/46/59
f 60/47/60 61/2/61 62/48/62
f 60/47/60 62/48/62 63/49/63
f 64/43/64 65/42/65 66/2/66
f 64/43/64 66/2/66 67/41/67
